ISO-10303-21;
HEADER;
FILE_DESCRIPTION(('Open CASCADE Model'),'2;1');
FILE_NAME('Open CASCADE Shape Model','2026-06-05T13:18:45',('Author'),(
    'Open CASCADE'),'Open CASCADE STEP processor 7.9','Open CASCADE 7.9'
  ,'Unknown');
FILE_SCHEMA(('AUTOMOTIVE_DESIGN { 1 0 10303 214 1 1 1 1 }'));
ENDSEC;
DATA;
#1 = APPLICATION_PROTOCOL_DEFINITION('international standard',
  'automotive_design',2000,#2);
#2 = APPLICATION_CONTEXT(
  'core data for automotive mechanical design processes');
#3 = SHAPE_DEFINITION_REPRESENTATION(#4,#10);
#4 = PRODUCT_DEFINITION_SHAPE('','',#5);
#5 = PRODUCT_DEFINITION('design','',#6,#9);
#6 = PRODUCT_DEFINITION_FORMATION('','',#7);
#7 = PRODUCT('Open CASCADE STEP translator 7.9 10',
  'Open CASCADE STEP translator 7.9 10','',(#8));
#8 = PRODUCT_CONTEXT('',#2,'mechanical');
#9 = PRODUCT_DEFINITION_CONTEXT('part definition',#2,'design');
#10 = MANIFOLD_SURFACE_SHAPE_REPRESENTATION('',(#11,#15),#121);
#11 = AXIS2_PLACEMENT_3D('',#12,#13,#14);
#12 = CARTESIAN_POINT('',(0.,0.,0.));
#13 = DIRECTION('',(0.,0.,1.));
#14 = DIRECTION('',(1.,0.,-0.));
#15 = SHELL_BASED_SURFACE_MODEL('',(#16));
#16 = OPEN_SHELL('',(#17));
#17 = ADVANCED_FACE('',(#18),#40,.T.);
#18 = FACE_BOUND('',#19,.T.);
#19 = EDGE_LOOP('',(#20,#59,#75,#107));
#20 = ORIENTED_EDGE('',*,*,#21,.T.);
#21 = EDGE_CURVE('',#22,#24,#26,.T.);
#22 = VERTEX_POINT('',#23);
#23 = CARTESIAN_POINT('',(0.,0.,0.));
#24 = VERTEX_POINT('',#25);
#25 = CARTESIAN_POINT('',(1.,0.,0.));
#26 = SURFACE_CURVE('',#27,(#39),.PCURVE_S1.);
#27 = B_SPLINE_CURVE_WITH_KNOTS('',1,(#28,#29,#30,#31,#32,#33,#34,#35,
    #36,#37,#38),.UNSPECIFIED.,.F.,.F.,(2,1,1,1,1,1,1,1,1,1,2),(0.,
    6.211826142588E-02,0.209045964284,0.376385724316,0.41117993984,
    0.487321166646,0.634542875387,0.726725538427,0.880748746558,
    0.927487940259,1.),.UNSPECIFIED.);
#28 = CARTESIAN_POINT('',(0.,-0.,0.));
#29 = CARTESIAN_POINT('',(6.219694382684E-02,-5.246286020777E-04,0.));
#30 = CARTESIAN_POINT('',(0.209274640818,2.963041002033E-03,0.));
#31 = CARTESIAN_POINT('',(0.376689446227,-3.955035922146E-03,0.));
#32 = CARTESIAN_POINT('',(0.411523060748,-3.313203503948E-03,0.));
#33 = CARTESIAN_POINT('',(0.487482706724,3.223482336402E-03,0.));
#34 = CARTESIAN_POINT('',(0.634852451671,-3.651267204203E-04,0.));
#35 = CARTESIAN_POINT('',(0.727154485619,-1.182965811561E-05,0.));
#36 = CARTESIAN_POINT('',(0.881310515532,4.559316489303E-03,0.));
#37 = CARTESIAN_POINT('',(0.927463811119,-3.194328360921E-03,0.));
#38 = CARTESIAN_POINT('',(1.,-0.,0.));
#39 = PCURVE('',#40,#45);
#40 = PLANE('',#41);
#41 = AXIS2_PLACEMENT_3D('',#42,#43,#44);
#42 = CARTESIAN_POINT('',(0.500233427861,5.E-02,0.));
#43 = DIRECTION('',(0.,0.,1.));
#44 = DIRECTION('',(1.,0.,-0.));
#45 = DEFINITIONAL_REPRESENTATION('',(#46),#58);
#46 = B_SPLINE_CURVE_WITH_KNOTS('',1,(#47,#48,#49,#50,#51,#52,#53,#54,
    #55,#56,#57),.UNSPECIFIED.,.F.,.F.,(2,1,1,1,1,1,1,1,1,1,2),(0.,
    6.211826142588E-02,0.209045964284,0.376385724316,0.41117993984,
    0.487321166646,0.634542875387,0.726725538427,0.880748746558,
    0.927487940259,1.),.UNSPECIFIED.);
#47 = CARTESIAN_POINT('',(-0.500233427861,-5.E-02));
#48 = CARTESIAN_POINT('',(-0.438036484035,-5.052462860208E-02));
#49 = CARTESIAN_POINT('',(-0.290958787044,-4.703695899797E-02));
#50 = CARTESIAN_POINT('',(-0.123543981634,-5.395503592215E-02));
#51 = CARTESIAN_POINT('',(-8.871036711356E-02,-5.331320350395E-02));
#52 = CARTESIAN_POINT('',(-1.275072113789E-02,-4.67765176636E-02));
#53 = CARTESIAN_POINT('',(0.13461902381,-5.036512672042E-02));
#54 = CARTESIAN_POINT('',(0.226921057757,-5.001182965812E-02));
#55 = CARTESIAN_POINT('',(0.38107708767,-4.54406835107E-02));
#56 = CARTESIAN_POINT('',(0.427230383258,-5.319432836092E-02));
#57 = CARTESIAN_POINT('',(0.499766572139,-5.E-02));
#58 = ( GEOMETRIC_REPRESENTATION_CONTEXT(2) 
PARAMETRIC_REPRESENTATION_CONTEXT() REPRESENTATION_CONTEXT('2D SPACE',''
  ) );
#59 = ORIENTED_EDGE('',*,*,#60,.T.);
#60 = EDGE_CURVE('',#24,#61,#63,.T.);
#61 = VERTEX_POINT('',#62);
#62 = CARTESIAN_POINT('',(1.,0.1,0.));
#63 = SURFACE_CURVE('',#64,(#68),.PCURVE_S1.);
#64 = LINE('',#65,#66);
#65 = CARTESIAN_POINT('',(1.,-0.,0.));
#66 = VECTOR('',#67,1.);
#67 = DIRECTION('',(0.,1.,0.));
#68 = PCURVE('',#40,#69);
#69 = DEFINITIONAL_REPRESENTATION('',(#70),#74);
#70 = LINE('',#71,#72);
#71 = CARTESIAN_POINT('',(0.499766572139,-5.E-02));
#72 = VECTOR('',#73,1.);
#73 = DIRECTION('',(0.,1.));
#74 = ( GEOMETRIC_REPRESENTATION_CONTEXT(2) 
PARAMETRIC_REPRESENTATION_CONTEXT() REPRESENTATION_CONTEXT('2D SPACE',''
  ) );
#75 = ORIENTED_EDGE('',*,*,#76,.T.);
#76 = EDGE_CURVE('',#61,#77,#79,.T.);
#77 = VERTEX_POINT('',#78);
#78 = CARTESIAN_POINT('',(0.,0.1,0.));
#79 = SURFACE_CURVE('',#80,(#92),.PCURVE_S1.);
#80 = B_SPLINE_CURVE_WITH_KNOTS('',1,(#81,#82,#83,#84,#85,#86,#87,#88,
    #89,#90,#91),.UNSPECIFIED.,.F.,.F.,(2,1,1,1,1,1,1,1,1,1,2),(0.,
    7.251205974071E-02,0.119251253442,0.273274461573,0.365457124613,
    0.512678833354,0.58882006016,0.623614275684,0.790954035716,
    0.937881738574,1.),.UNSPECIFIED.);
#81 = CARTESIAN_POINT('',(1.,0.1,0.));
#82 = CARTESIAN_POINT('',(0.927463811119,0.103194328361,0.));
#83 = CARTESIAN_POINT('',(0.881310515532,9.54406835107E-02,0.));
#84 = CARTESIAN_POINT('',(0.727154485619,0.100011829658,0.));
#85 = CARTESIAN_POINT('',(0.634852451671,0.10036512672,0.));
#86 = CARTESIAN_POINT('',(0.487482706724,9.67765176636E-02,0.));
#87 = CARTESIAN_POINT('',(0.411523060748,0.103313203504,0.));
#88 = CARTESIAN_POINT('',(0.376689446227,0.103955035922,0.));
#89 = CARTESIAN_POINT('',(0.209274640818,9.703695899797E-02,0.));
#90 = CARTESIAN_POINT('',(6.219694382684E-02,0.100524628602,0.));
#91 = CARTESIAN_POINT('',(0.,0.1,0.));
#92 = PCURVE('',#40,#93);
#93 = DEFINITIONAL_REPRESENTATION('',(#94),#106);
#94 = B_SPLINE_CURVE_WITH_KNOTS('',1,(#95,#96,#97,#98,#99,#100,#101,#102
    ,#103,#104,#105),.UNSPECIFIED.,.F.,.F.,(2,1,1,1,1,1,1,1,1,1,2),(0.,
    7.251205974071E-02,0.119251253442,0.273274461573,0.365457124613,
    0.512678833354,0.58882006016,0.623614275684,0.790954035716,
    0.937881738574,1.),.UNSPECIFIED.);
#95 = CARTESIAN_POINT('',(0.499766572139,5.E-02));
#96 = CARTESIAN_POINT('',(0.427230383258,5.319432836092E-02));
#97 = CARTESIAN_POINT('',(0.38107708767,4.54406835107E-02));
#98 = CARTESIAN_POINT('',(0.226921057757,5.001182965812E-02));
#99 = CARTESIAN_POINT('',(0.13461902381,5.036512672042E-02));
#100 = CARTESIAN_POINT('',(-1.275072113789E-02,4.67765176636E-02));
#101 = CARTESIAN_POINT('',(-8.871036711356E-02,5.331320350395E-02));
#102 = CARTESIAN_POINT('',(-0.123543981634,5.395503592215E-02));
#103 = CARTESIAN_POINT('',(-0.290958787044,4.703695899797E-02));
#104 = CARTESIAN_POINT('',(-0.438036484035,5.052462860208E-02));
#105 = CARTESIAN_POINT('',(-0.500233427861,5.E-02));
#106 = ( GEOMETRIC_REPRESENTATION_CONTEXT(2) 
PARAMETRIC_REPRESENTATION_CONTEXT() REPRESENTATION_CONTEXT('2D SPACE',''
  ) );
#107 = ORIENTED_EDGE('',*,*,#108,.T.);
#108 = EDGE_CURVE('',#77,#22,#109,.T.);
#109 = SURFACE_CURVE('',#110,(#114),.PCURVE_S1.);
#110 = LINE('',#111,#112);
#111 = CARTESIAN_POINT('',(0.,0.1,0.));
#112 = VECTOR('',#113,1.);
#113 = DIRECTION('',(0.,-1.,0.));
#114 = PCURVE('',#40,#115);
#115 = DEFINITIONAL_REPRESENTATION('',(#116),#120);
#116 = LINE('',#117,#118);
#117 = CARTESIAN_POINT('',(-0.500233427861,5.E-02));
#118 = VECTOR('',#119,1.);
#119 = DIRECTION('',(0.,-1.));
#120 = ( GEOMETRIC_REPRESENTATION_CONTEXT(2) 
PARAMETRIC_REPRESENTATION_CONTEXT() REPRESENTATION_CONTEXT('2D SPACE',''
  ) );
#121 = ( GEOMETRIC_REPRESENTATION_CONTEXT(3) 
GLOBAL_UNCERTAINTY_ASSIGNED_CONTEXT((#125)) GLOBAL_UNIT_ASSIGNED_CONTEXT
((#122,#123,#124)) REPRESENTATION_CONTEXT('Context #1',
  '3D Context with UNIT and UNCERTAINTY') );
#122 = ( LENGTH_UNIT() NAMED_UNIT(*) SI_UNIT(.MILLI.,.METRE.) );
#123 = ( NAMED_UNIT(*) PLANE_ANGLE_UNIT() SI_UNIT($,.RADIAN.) );
#124 = ( NAMED_UNIT(*) SI_UNIT($,.STERADIAN.) SOLID_ANGLE_UNIT() );
#125 = UNCERTAINTY_MEASURE_WITH_UNIT(LENGTH_MEASURE(1.E-07),#122,
  'distance_accuracy_value','confusion accuracy');
#126 = PRODUCT_RELATED_PRODUCT_CATEGORY('part',$,(#7));
ENDSEC;
END-ISO-10303-21;
