ISO-10303-21;
HEADER;
FILE_DESCRIPTION(('Open CASCADE Model'),'2;1');
FILE_NAME('Open CASCADE Shape Model','2026-06-05T13:18:45',('Author'),(
    'Open CASCADE'),'Open CASCADE STEP processor 7.9','Open CASCADE 7.9'
  ,'Unknown');
FILE_SCHEMA(('AUTOMOTIVE_DESIGN { 1 0 10303 214 1 1 1 1 }'));
ENDSEC;
DATA;
#1 = APPLICATION_PROTOCOL_DEFINITION('international standard',
  'automotive_design',2000,#2);
#2 = APPLICATION_CONTEXT(
  'core data for automotive mechanical design processes');
#3 = SHAPE_DEFINITION_REPRESENTATION(#4,#10);
#4 = PRODUCT_DEFINITION_SHAPE('','',#5);
#5 = PRODUCT_DEFINITION('design','',#6,#9);
#6 = PRODUCT_DEFINITION_FORMATION('','',#7);
#7 = PRODUCT('Open CASCADE STEP translator 7.9 65',
  'Open CASCADE STEP translator 7.9 65','',(#8));
#8 = PRODUCT_CONTEXT('',#2,'mechanical');
#9 = PRODUCT_DEFINITION_CONTEXT('part definition',#2,'design');
#10 = MANIFOLD_SURFACE_SHAPE_REPRESENTATION('',(#11,#15),#121);
#11 = AXIS2_PLACEMENT_3D('',#12,#13,#14);
#12 = CARTESIAN_POINT('',(0.,0.,0.));
#13 = DIRECTION('',(0.,0.,1.));
#14 = DIRECTION('',(1.,0.,-0.));
#15 = SHELL_BASED_SURFACE_MODEL('',(#16));
#16 = OPEN_SHELL('',(#17));
#17 = ADVANCED_FACE('',(#18),#40,.T.);
#18 = FACE_BOUND('',#19,.T.);
#19 = EDGE_LOOP('',(#20,#59,#75,#107));
#20 = ORIENTED_EDGE('',*,*,#21,.T.);
#21 = EDGE_CURVE('',#22,#24,#26,.T.);
#22 = VERTEX_POINT('',#23);
#23 = CARTESIAN_POINT('',(0.,0.,0.));
#24 = VERTEX_POINT('',#25);
#25 = CARTESIAN_POINT('',(1.,0.,0.));
#26 = SURFACE_CURVE('',#27,(#39),.PCURVE_S1.);
#27 = B_SPLINE_CURVE_WITH_KNOTS('',1,(#28,#29,#30,#31,#32,#33,#34,#35,
    #36,#37,#38),.UNSPECIFIED.,.F.,.F.,(2,1,1,1,1,1,1,1,1,1,2),(0.,
    0.221508004801,0.250094293575,0.272522441476,0.327393073677,
    0.463550518034,0.489723618124,0.520532455894,0.741133808687,
    0.766021832461,1.),.UNSPECIFIED.);
#28 = CARTESIAN_POINT('',(0.,-0.,0.));
#29 = CARTESIAN_POINT('',(0.221583185946,-2.789415094946E-03,0.));
#30 = CARTESIAN_POINT('',(0.250180231913,-2.526245552535E-03,0.));
#31 = CARTESIAN_POINT('',(0.272562107365,-9.467666165141E-04,0.));
#32 = CARTESIAN_POINT('',(0.327317818799,2.941664632105E-03,0.));
#33 = CARTESIAN_POINT('',(0.463504828412,2.077151424036E-04,0.));
#34 = CARTESIAN_POINT('',(0.48968883819,1.575299359411E-04,0.));
#35 = CARTESIAN_POINT('',(0.520496534516,1.08773435477E-03,0.));
#36 = CARTESIAN_POINT('',(0.741188677601,2.558277016277E-04,0.));
#37 = CARTESIAN_POINT('',(0.765942304249,2.937330705986E-03,0.));
#38 = CARTESIAN_POINT('',(1.,-0.,0.));
#39 = PCURVE('',#40,#45);
#40 = PLANE('',#41);
#41 = AXIS2_PLACEMENT_3D('',#42,#43,#44);
#42 = CARTESIAN_POINT('',(0.499993786001,5.E-02,0.));
#43 = DIRECTION('',(0.,0.,1.));
#44 = DIRECTION('',(1.,0.,-0.));
#45 = DEFINITIONAL_REPRESENTATION('',(#46),#58);
#46 = B_SPLINE_CURVE_WITH_KNOTS('',1,(#47,#48,#49,#50,#51,#52,#53,#54,
    #55,#56,#57),.UNSPECIFIED.,.F.,.F.,(2,1,1,1,1,1,1,1,1,1,2),(0.,
    0.221508004801,0.250094293575,0.272522441476,0.327393073677,
    0.463550518034,0.489723618124,0.520532455894,0.741133808687,
    0.766021832461,1.),.UNSPECIFIED.);
#47 = CARTESIAN_POINT('',(-0.499993786001,-5.E-02));
#48 = CARTESIAN_POINT('',(-0.278410600055,-5.278941509495E-02));
#49 = CARTESIAN_POINT('',(-0.249813554088,-5.252624555254E-02));
#50 = CARTESIAN_POINT('',(-0.227431678636,-5.094676661651E-02));
#51 = CARTESIAN_POINT('',(-0.172675967202,-4.705833536789E-02));
#52 = CARTESIAN_POINT('',(-3.648895758876E-02,-4.97922848576E-02));
#53 = CARTESIAN_POINT('',(-1.03049478107E-02,-4.984247006406E-02));
#54 = CARTESIAN_POINT('',(2.050274851523E-02,-4.891226564523E-02));
#55 = CARTESIAN_POINT('',(0.2411948916,-4.974417229837E-02));
#56 = CARTESIAN_POINT('',(0.265948518248,-4.706266929401E-02));
#57 = CARTESIAN_POINT('',(0.500006213999,-5.E-02));
#58 = ( GEOMETRIC_REPRESENTATION_CONTEXT(2) 
PARAMETRIC_REPRESENTATION_CONTEXT() REPRESENTATION_CONTEXT('2D SPACE',''
  ) );
#59 = ORIENTED_EDGE('',*,*,#60,.T.);
#60 = EDGE_CURVE('',#24,#61,#63,.T.);
#61 = VERTEX_POINT('',#62);
#62 = CARTESIAN_POINT('',(1.,0.1,0.));
#63 = SURFACE_CURVE('',#64,(#68),.PCURVE_S1.);
#64 = LINE('',#65,#66);
#65 = CARTESIAN_POINT('',(1.,-0.,0.));
#66 = VECTOR('',#67,1.);
#67 = DIRECTION('',(0.,1.,0.));
#68 = PCURVE('',#40,#69);
#69 = DEFINITIONAL_REPRESENTATION('',(#70),#74);
#70 = LINE('',#71,#72);
#71 = CARTESIAN_POINT('',(0.500006213999,-5.E-02));
#72 = VECTOR('',#73,1.);
#73 = DIRECTION('',(0.,1.));
#74 = ( GEOMETRIC_REPRESENTATION_CONTEXT(2) 
PARAMETRIC_REPRESENTATION_CONTEXT() REPRESENTATION_CONTEXT('2D SPACE',''
  ) );
#75 = ORIENTED_EDGE('',*,*,#76,.T.);
#76 = EDGE_CURVE('',#61,#77,#79,.T.);
#77 = VERTEX_POINT('',#78);
#78 = CARTESIAN_POINT('',(0.,0.1,0.));
#79 = SURFACE_CURVE('',#80,(#92),.PCURVE_S1.);
#80 = B_SPLINE_CURVE_WITH_KNOTS('',1,(#81,#82,#83,#84,#85,#86,#87,#88,
    #89,#90,#91),.UNSPECIFIED.,.F.,.F.,(2,1,1,1,1,1,1,1,1,1,2),(0.,
    0.233978167539,0.258866191313,0.479467544106,0.510276381876,
    0.536449481966,0.672606926323,0.727477558524,0.749905706425,
    0.778491995199,1.),.UNSPECIFIED.);
#81 = CARTESIAN_POINT('',(1.,0.1,0.));
#82 = CARTESIAN_POINT('',(0.765942304249,9.706266929401E-02,0.));
#83 = CARTESIAN_POINT('',(0.741188677601,9.974417229837E-02,0.));
#84 = CARTESIAN_POINT('',(0.520496534516,9.891226564523E-02,0.));
#85 = CARTESIAN_POINT('',(0.48968883819,9.984247006406E-02,0.));
#86 = CARTESIAN_POINT('',(0.463504828412,9.97922848576E-02,0.));
#87 = CARTESIAN_POINT('',(0.327317818799,9.705833536789E-02,0.));
#88 = CARTESIAN_POINT('',(0.272562107365,0.100946766617,0.));
#89 = CARTESIAN_POINT('',(0.250180231913,0.102526245553,0.));
#90 = CARTESIAN_POINT('',(0.221583185946,0.102789415095,0.));
#91 = CARTESIAN_POINT('',(0.,0.1,0.));
#92 = PCURVE('',#40,#93);
#93 = DEFINITIONAL_REPRESENTATION('',(#94),#106);
#94 = B_SPLINE_CURVE_WITH_KNOTS('',1,(#95,#96,#97,#98,#99,#100,#101,#102
    ,#103,#104,#105),.UNSPECIFIED.,.F.,.F.,(2,1,1,1,1,1,1,1,1,1,2),(0.,
    0.233978167539,0.258866191313,0.479467544106,0.510276381876,
    0.536449481966,0.672606926323,0.727477558524,0.749905706425,
    0.778491995199,1.),.UNSPECIFIED.);
#95 = CARTESIAN_POINT('',(0.500006213999,5.E-02));
#96 = CARTESIAN_POINT('',(0.265948518248,4.706266929401E-02));
#97 = CARTESIAN_POINT('',(0.2411948916,4.974417229837E-02));
#98 = CARTESIAN_POINT('',(2.050274851523E-02,4.891226564523E-02));
#99 = CARTESIAN_POINT('',(-1.03049478107E-02,4.984247006406E-02));
#100 = CARTESIAN_POINT('',(-3.648895758876E-02,4.97922848576E-02));
#101 = CARTESIAN_POINT('',(-0.172675967202,4.705833536789E-02));
#102 = CARTESIAN_POINT('',(-0.227431678636,5.094676661651E-02));
#103 = CARTESIAN_POINT('',(-0.249813554088,5.252624555254E-02));
#104 = CARTESIAN_POINT('',(-0.278410600055,5.278941509495E-02));
#105 = CARTESIAN_POINT('',(-0.499993786001,5.E-02));
#106 = ( GEOMETRIC_REPRESENTATION_CONTEXT(2) 
PARAMETRIC_REPRESENTATION_CONTEXT() REPRESENTATION_CONTEXT('2D SPACE',''
  ) );
#107 = ORIENTED_EDGE('',*,*,#108,.T.);
#108 = EDGE_CURVE('',#77,#22,#109,.T.);
#109 = SURFACE_CURVE('',#110,(#114),.PCURVE_S1.);
#110 = LINE('',#111,#112);
#111 = CARTESIAN_POINT('',(0.,0.1,0.));
#112 = VECTOR('',#113,1.);
#113 = DIRECTION('',(0.,-1.,0.));
#114 = PCURVE('',#40,#115);
#115 = DEFINITIONAL_REPRESENTATION('',(#116),#120);
#116 = LINE('',#117,#118);
#117 = CARTESIAN_POINT('',(-0.499993786001,5.E-02));
#118 = VECTOR('',#119,1.);
#119 = DIRECTION('',(0.,-1.));
#120 = ( GEOMETRIC_REPRESENTATION_CONTEXT(2) 
PARAMETRIC_REPRESENTATION_CONTEXT() REPRESENTATION_CONTEXT('2D SPACE',''
  ) );
#121 = ( GEOMETRIC_REPRESENTATION_CONTEXT(3) 
GLOBAL_UNCERTAINTY_ASSIGNED_CONTEXT((#125)) GLOBAL_UNIT_ASSIGNED_CONTEXT
((#122,#123,#124)) REPRESENTATION_CONTEXT('Context #1',
  '3D Context with UNIT and UNCERTAINTY') );
#122 = ( LENGTH_UNIT() NAMED_UNIT(*) SI_UNIT(.MILLI.,.METRE.) );
#123 = ( NAMED_UNIT(*) PLANE_ANGLE_UNIT() SI_UNIT($,.RADIAN.) );
#124 = ( NAMED_UNIT(*) SI_UNIT($,.STERADIAN.) SOLID_ANGLE_UNIT() );
#125 = UNCERTAINTY_MEASURE_WITH_UNIT(LENGTH_MEASURE(1.E-07),#122,
  'distance_accuracy_value','confusion accuracy');
#126 = PRODUCT_RELATED_PRODUCT_CATEGORY('part',$,(#7));
ENDSEC;
END-ISO-10303-21;
