ISO-10303-21;
HEADER;
FILE_DESCRIPTION(('Open CASCADE Model'),'2;1');
FILE_NAME('Open CASCADE Shape Model','2026-06-05T13:18:45',('Author'),(
    'Open CASCADE'),'Open CASCADE STEP processor 7.9','Open CASCADE 7.9'
  ,'Unknown');
FILE_SCHEMA(('AUTOMOTIVE_DESIGN { 1 0 10303 214 1 1 1 1 }'));
ENDSEC;
DATA;
#1 = APPLICATION_PROTOCOL_DEFINITION('international standard',
  'automotive_design',2000,#2);
#2 = APPLICATION_CONTEXT(
  'core data for automotive mechanical design processes');
#3 = SHAPE_DEFINITION_REPRESENTATION(#4,#10);
#4 = PRODUCT_DEFINITION_SHAPE('','',#5);
#5 = PRODUCT_DEFINITION('design','',#6,#9);
#6 = PRODUCT_DEFINITION_FORMATION('','',#7);
#7 = PRODUCT('Open CASCADE STEP translator 7.9 69',
  'Open CASCADE STEP translator 7.9 69','',(#8));
#8 = PRODUCT_CONTEXT('',#2,'mechanical');
#9 = PRODUCT_DEFINITION_CONTEXT('part definition',#2,'design');
#10 = MANIFOLD_SURFACE_SHAPE_REPRESENTATION('',(#11,#15),#121);
#11 = AXIS2_PLACEMENT_3D('',#12,#13,#14);
#12 = CARTESIAN_POINT('',(0.,0.,0.));
#13 = DIRECTION('',(0.,0.,1.));
#14 = DIRECTION('',(1.,0.,-0.));
#15 = SHELL_BASED_SURFACE_MODEL('',(#16));
#16 = OPEN_SHELL('',(#17));
#17 = ADVANCED_FACE('',(#18),#40,.T.);
#18 = FACE_BOUND('',#19,.T.);
#19 = EDGE_LOOP('',(#20,#59,#75,#107));
#20 = ORIENTED_EDGE('',*,*,#21,.T.);
#21 = EDGE_CURVE('',#22,#24,#26,.T.);
#22 = VERTEX_POINT('',#23);
#23 = CARTESIAN_POINT('',(0.,0.,0.));
#24 = VERTEX_POINT('',#25);
#25 = CARTESIAN_POINT('',(1.,0.,0.));
#26 = SURFACE_CURVE('',#27,(#39),.PCURVE_S1.);
#27 = B_SPLINE_CURVE_WITH_KNOTS('',1,(#28,#29,#30,#31,#32,#33,#34,#35,
    #36,#37,#38),.UNSPECIFIED.,.F.,.F.,(2,1,1,1,1,1,1,1,1,1,2),(0.,
    0.214324689661,0.25650253264,0.33915218026,0.486770286387,
    0.541393256304,0.611018445738,0.652555157855,0.73245673215,
    0.914081537394,1.),.UNSPECIFIED.);
#28 = CARTESIAN_POINT('',(0.,-0.,0.));
#29 = CARTESIAN_POINT('',(0.214595178593,5.966643566322E-04,0.));
#30 = CARTESIAN_POINT('',(0.256794625959,-1.041629916317E-03,0.));
#31 = CARTESIAN_POINT('',(0.339529006765,7.728596662298E-04,0.));
#32 = CARTESIAN_POINT('',(0.487234190734,-4.657656097969E-03,0.));
#33 = CARTESIAN_POINT('',(0.54180690005,-1.045564147444E-03,0.));
#34 = CARTESIAN_POINT('',(0.611410105878,2.871328878708E-03,0.));
#35 = CARTESIAN_POINT('',(0.652417818549,-4.059537422801E-03,0.));
#36 = CARTESIAN_POINT('',(0.732178502054,2.158913501584E-03,0.));
#37 = CARTESIAN_POINT('',(0.913990885343,-1.765297530995E-03,0.));
#38 = CARTESIAN_POINT('',(1.,-0.,0.));
#39 = PCURVE('',#40,#45);
#40 = PLANE('',#41);
#41 = AXIS2_PLACEMENT_3D('',#42,#43,#44);
#42 = CARTESIAN_POINT('',(0.500121682138,5.E-02,0.));
#43 = DIRECTION('',(0.,0.,1.));
#44 = DIRECTION('',(1.,0.,-0.));
#45 = DEFINITIONAL_REPRESENTATION('',(#46),#58);
#46 = B_SPLINE_CURVE_WITH_KNOTS('',1,(#47,#48,#49,#50,#51,#52,#53,#54,
    #55,#56,#57),.UNSPECIFIED.,.F.,.F.,(2,1,1,1,1,1,1,1,1,1,2),(0.,
    0.214324689661,0.25650253264,0.33915218026,0.486770286387,
    0.541393256304,0.611018445738,0.652555157855,0.73245673215,
    0.914081537394,1.),.UNSPECIFIED.);
#47 = CARTESIAN_POINT('',(-0.500121682138,-5.E-02));
#48 = CARTESIAN_POINT('',(-0.285526503545,-4.940333564337E-02));
#49 = CARTESIAN_POINT('',(-0.243327056178,-5.104162991632E-02));
#50 = CARTESIAN_POINT('',(-0.160592675373,-4.922714033377E-02));
#51 = CARTESIAN_POINT('',(-1.288749140346E-02,-5.465765609797E-02));
#52 = CARTESIAN_POINT('',(4.168521791238E-02,-5.104556414744E-02));
#53 = CARTESIAN_POINT('',(0.111288423741,-4.712867112129E-02));
#54 = CARTESIAN_POINT('',(0.152296136412,-5.40595374228E-02));
#55 = CARTESIAN_POINT('',(0.232056819916,-4.784108649842E-02));
#56 = CARTESIAN_POINT('',(0.413869203206,-5.176529753099E-02));
#57 = CARTESIAN_POINT('',(0.499878317862,-5.E-02));
#58 = ( GEOMETRIC_REPRESENTATION_CONTEXT(2) 
PARAMETRIC_REPRESENTATION_CONTEXT() REPRESENTATION_CONTEXT('2D SPACE',''
  ) );
#59 = ORIENTED_EDGE('',*,*,#60,.T.);
#60 = EDGE_CURVE('',#24,#61,#63,.T.);
#61 = VERTEX_POINT('',#62);
#62 = CARTESIAN_POINT('',(1.,0.1,0.));
#63 = SURFACE_CURVE('',#64,(#68),.PCURVE_S1.);
#64 = LINE('',#65,#66);
#65 = CARTESIAN_POINT('',(1.,-0.,0.));
#66 = VECTOR('',#67,1.);
#67 = DIRECTION('',(0.,1.,0.));
#68 = PCURVE('',#40,#69);
#69 = DEFINITIONAL_REPRESENTATION('',(#70),#74);
#70 = LINE('',#71,#72);
#71 = CARTESIAN_POINT('',(0.499878317862,-5.E-02));
#72 = VECTOR('',#73,1.);
#73 = DIRECTION('',(0.,1.));
#74 = ( GEOMETRIC_REPRESENTATION_CONTEXT(2) 
PARAMETRIC_REPRESENTATION_CONTEXT() REPRESENTATION_CONTEXT('2D SPACE',''
  ) );
#75 = ORIENTED_EDGE('',*,*,#76,.T.);
#76 = EDGE_CURVE('',#61,#77,#79,.T.);
#77 = VERTEX_POINT('',#78);
#78 = CARTESIAN_POINT('',(0.,0.1,0.));
#79 = SURFACE_CURVE('',#80,(#92),.PCURVE_S1.);
#80 = B_SPLINE_CURVE_WITH_KNOTS('',1,(#81,#82,#83,#84,#85,#86,#87,#88,
    #89,#90,#91),.UNSPECIFIED.,.F.,.F.,(2,1,1,1,1,1,1,1,1,1,2),(0.,
    8.59184626057E-02,0.26754326785,0.347444842145,0.388981554262,
    0.458606743696,0.513229713613,0.66084781974,0.74349746736,
    0.785675310339,1.),.UNSPECIFIED.);
#81 = CARTESIAN_POINT('',(1.,0.1,0.));
#82 = CARTESIAN_POINT('',(0.913990885343,0.101765297531,0.));
#83 = CARTESIAN_POINT('',(0.732178502054,9.784108649842E-02,0.));
#84 = CARTESIAN_POINT('',(0.652417818549,0.104059537423,0.));
#85 = CARTESIAN_POINT('',(0.611410105878,9.712867112129E-02,0.));
#86 = CARTESIAN_POINT('',(0.54180690005,0.101045564147,0.));
#87 = CARTESIAN_POINT('',(0.487234190734,0.104657656098,0.));
#88 = CARTESIAN_POINT('',(0.339529006765,9.922714033377E-02,0.));
#89 = CARTESIAN_POINT('',(0.256794625959,0.101041629916,0.));
#90 = CARTESIAN_POINT('',(0.214595178593,9.940333564337E-02,0.));
#91 = CARTESIAN_POINT('',(0.,0.1,0.));
#92 = PCURVE('',#40,#93);
#93 = DEFINITIONAL_REPRESENTATION('',(#94),#106);
#94 = B_SPLINE_CURVE_WITH_KNOTS('',1,(#95,#96,#97,#98,#99,#100,#101,#102
    ,#103,#104,#105),.UNSPECIFIED.,.F.,.F.,(2,1,1,1,1,1,1,1,1,1,2),(0.,
    8.59184626057E-02,0.26754326785,0.347444842145,0.388981554262,
    0.458606743696,0.513229713613,0.66084781974,0.74349746736,
    0.785675310339,1.),.UNSPECIFIED.);
#95 = CARTESIAN_POINT('',(0.499878317862,5.E-02));
#96 = CARTESIAN_POINT('',(0.413869203206,5.176529753099E-02));
#97 = CARTESIAN_POINT('',(0.232056819916,4.784108649842E-02));
#98 = CARTESIAN_POINT('',(0.152296136412,5.40595374228E-02));
#99 = CARTESIAN_POINT('',(0.111288423741,4.712867112129E-02));
#100 = CARTESIAN_POINT('',(4.168521791238E-02,5.104556414744E-02));
#101 = CARTESIAN_POINT('',(-1.288749140346E-02,5.465765609797E-02));
#102 = CARTESIAN_POINT('',(-0.160592675373,4.922714033377E-02));
#103 = CARTESIAN_POINT('',(-0.243327056178,5.104162991632E-02));
#104 = CARTESIAN_POINT('',(-0.285526503545,4.940333564337E-02));
#105 = CARTESIAN_POINT('',(-0.500121682138,5.E-02));
#106 = ( GEOMETRIC_REPRESENTATION_CONTEXT(2) 
PARAMETRIC_REPRESENTATION_CONTEXT() REPRESENTATION_CONTEXT('2D SPACE',''
  ) );
#107 = ORIENTED_EDGE('',*,*,#108,.T.);
#108 = EDGE_CURVE('',#77,#22,#109,.T.);
#109 = SURFACE_CURVE('',#110,(#114),.PCURVE_S1.);
#110 = LINE('',#111,#112);
#111 = CARTESIAN_POINT('',(0.,0.1,0.));
#112 = VECTOR('',#113,1.);
#113 = DIRECTION('',(0.,-1.,0.));
#114 = PCURVE('',#40,#115);
#115 = DEFINITIONAL_REPRESENTATION('',(#116),#120);
#116 = LINE('',#117,#118);
#117 = CARTESIAN_POINT('',(-0.500121682138,5.E-02));
#118 = VECTOR('',#119,1.);
#119 = DIRECTION('',(0.,-1.));
#120 = ( GEOMETRIC_REPRESENTATION_CONTEXT(2) 
PARAMETRIC_REPRESENTATION_CONTEXT() REPRESENTATION_CONTEXT('2D SPACE',''
  ) );
#121 = ( GEOMETRIC_REPRESENTATION_CONTEXT(3) 
GLOBAL_UNCERTAINTY_ASSIGNED_CONTEXT((#125)) GLOBAL_UNIT_ASSIGNED_CONTEXT
((#122,#123,#124)) REPRESENTATION_CONTEXT('Context #1',
  '3D Context with UNIT and UNCERTAINTY') );
#122 = ( LENGTH_UNIT() NAMED_UNIT(*) SI_UNIT(.MILLI.,.METRE.) );
#123 = ( NAMED_UNIT(*) PLANE_ANGLE_UNIT() SI_UNIT($,.RADIAN.) );
#124 = ( NAMED_UNIT(*) SI_UNIT($,.STERADIAN.) SOLID_ANGLE_UNIT() );
#125 = UNCERTAINTY_MEASURE_WITH_UNIT(LENGTH_MEASURE(1.E-07),#122,
  'distance_accuracy_value','confusion accuracy');
#126 = PRODUCT_RELATED_PRODUCT_CATEGORY('part',$,(#7));
ENDSEC;
END-ISO-10303-21;
