ISO-10303-21;
HEADER;
FILE_DESCRIPTION(('Open CASCADE Model'),'2;1');
FILE_NAME('Open CASCADE Shape Model','2026-06-08T14:44:29',('Author'),(
    'Open CASCADE'),'Open CASCADE STEP processor 7.9','Open CASCADE 7.9'
  ,'Unknown');
FILE_SCHEMA(('AUTOMOTIVE_DESIGN { 1 0 10303 214 1 1 1 1 }'));
ENDSEC;
DATA;
#1 = APPLICATION_PROTOCOL_DEFINITION('international standard',
  'automotive_design',2000,#2);
#2 = APPLICATION_CONTEXT(
  'core data for automotive mechanical design processes');
#3 = SHAPE_DEFINITION_REPRESENTATION(#4,#10);
#4 = PRODUCT_DEFINITION_SHAPE('','',#5);
#5 = PRODUCT_DEFINITION('design','',#6,#9);
#6 = PRODUCT_DEFINITION_FORMATION('','',#7);
#7 = PRODUCT('Open CASCADE STEP translator 7.9 1',
  'Open CASCADE STEP translator 7.9 1','',(#8));
#8 = PRODUCT_CONTEXT('',#2,'mechanical');
#9 = PRODUCT_DEFINITION_CONTEXT('part definition',#2,'design');
#10 = MANIFOLD_SURFACE_SHAPE_REPRESENTATION('',(#11,#15),#121);
#11 = AXIS2_PLACEMENT_3D('',#12,#13,#14);
#12 = CARTESIAN_POINT('',(0.,0.,0.));
#13 = DIRECTION('',(0.,0.,1.));
#14 = DIRECTION('',(1.,0.,-0.));
#15 = SHELL_BASED_SURFACE_MODEL('',(#16));
#16 = OPEN_SHELL('',(#17));
#17 = ADVANCED_FACE('',(#18),#40,.T.);
#18 = FACE_BOUND('',#19,.T.);
#19 = EDGE_LOOP('',(#20,#59,#75,#107));
#20 = ORIENTED_EDGE('',*,*,#21,.T.);
#21 = EDGE_CURVE('',#22,#24,#26,.T.);
#22 = VERTEX_POINT('',#23);
#23 = CARTESIAN_POINT('',(0.,0.,0.));
#24 = VERTEX_POINT('',#25);
#25 = CARTESIAN_POINT('',(1.,0.,0.));
#26 = SURFACE_CURVE('',#27,(#39),.PCURVE_S1.);
#27 = B_SPLINE_CURVE_WITH_KNOTS('',1,(#28,#29,#30,#31,#32,#33,#34,#35,
    #36,#37,#38),.UNSPECIFIED.,.F.,.F.,(2,1,1,1,1,1,1,1,1,1,2),(0.,
    0.151424964284,0.299229535486,0.449612172594,0.484918875529,
    0.50989676413,0.609311255547,0.706422585388,0.897277608144,
    0.922744251801,1.),.UNSPECIFIED.);
#28 = CARTESIAN_POINT('',(0.,-0.,0.));
#29 = CARTESIAN_POINT('',(0.1516999038,1.292019757674E-03,0.));
#30 = CARTESIAN_POINT('',(0.299673804409,-4.267649888486E-03,0.));
#31 = CARTESIAN_POINT('',(0.45030838984,-1.438651200807E-03,0.));
#32 = CARTESIAN_POINT('',(0.485635213393,-3.227616132708E-03,0.));
#33 = CARTESIAN_POINT('',(0.510370159107,5.658580117267E-04,0.));
#34 = CARTESIAN_POINT('',(0.609945304898,2.727612782152E-03,0.));
#35 = CARTESIAN_POINT('',(0.70718140142,-5.458478701583E-04,0.));
#36 = CARTESIAN_POINT('',(0.898326898628,4.361827438958E-03,0.));
#37 = CARTESIAN_POINT('',(0.922670547563,-3.276311719926E-03,0.));
#38 = CARTESIAN_POINT('',(1.,-0.,0.));
#39 = PCURVE('',#40,#45);
#40 = PLANE('',#41);
#41 = AXIS2_PLACEMENT_3D('',#42,#43,#44);
#42 = CARTESIAN_POINT('',(0.500458545271,5.E-02,0.));
#43 = DIRECTION('',(0.,0.,1.));
#44 = DIRECTION('',(1.,0.,-0.));
#45 = DEFINITIONAL_REPRESENTATION('',(#46),#58);
#46 = B_SPLINE_CURVE_WITH_KNOTS('',1,(#47,#48,#49,#50,#51,#52,#53,#54,
    #55,#56,#57),.UNSPECIFIED.,.F.,.F.,(2,1,1,1,1,1,1,1,1,1,2),(0.,
    0.151424964284,0.299229535486,0.449612172594,0.484918875529,
    0.50989676413,0.609311255547,0.706422585388,0.897277608144,
    0.922744251801,1.),.UNSPECIFIED.);
#47 = CARTESIAN_POINT('',(-0.500458545271,-5.E-02));
#48 = CARTESIAN_POINT('',(-0.348758641471,-4.870798024233E-02));
#49 = CARTESIAN_POINT('',(-0.200784740861,-5.426764988849E-02));
#50 = CARTESIAN_POINT('',(-5.015015543028E-02,-5.143865120081E-02));
#51 = CARTESIAN_POINT('',(-1.482333187748E-02,-5.322761613271E-02));
#52 = CARTESIAN_POINT('',(9.911613836543E-03,-4.943414198827E-02));
#53 = CARTESIAN_POINT('',(0.109486759627,-4.727238721785E-02));
#54 = CARTESIAN_POINT('',(0.206722856149,-5.054584787016E-02));
#55 = CARTESIAN_POINT('',(0.397868353358,-4.563817256104E-02));
#56 = CARTESIAN_POINT('',(0.422212002292,-5.327631171993E-02));
#57 = CARTESIAN_POINT('',(0.499541454729,-5.E-02));
#58 = ( GEOMETRIC_REPRESENTATION_CONTEXT(2) 
PARAMETRIC_REPRESENTATION_CONTEXT() REPRESENTATION_CONTEXT('2D SPACE',''
  ) );
#59 = ORIENTED_EDGE('',*,*,#60,.T.);
#60 = EDGE_CURVE('',#24,#61,#63,.T.);
#61 = VERTEX_POINT('',#62);
#62 = CARTESIAN_POINT('',(1.,0.1,0.));
#63 = SURFACE_CURVE('',#64,(#68),.PCURVE_S1.);
#64 = LINE('',#65,#66);
#65 = CARTESIAN_POINT('',(1.,-0.,0.));
#66 = VECTOR('',#67,1.);
#67 = DIRECTION('',(0.,1.,0.));
#68 = PCURVE('',#40,#69);
#69 = DEFINITIONAL_REPRESENTATION('',(#70),#74);
#70 = LINE('',#71,#72);
#71 = CARTESIAN_POINT('',(0.499541454729,-5.E-02));
#72 = VECTOR('',#73,1.);
#73 = DIRECTION('',(0.,1.));
#74 = ( GEOMETRIC_REPRESENTATION_CONTEXT(2) 
PARAMETRIC_REPRESENTATION_CONTEXT() REPRESENTATION_CONTEXT('2D SPACE',''
  ) );
#75 = ORIENTED_EDGE('',*,*,#76,.T.);
#76 = EDGE_CURVE('',#61,#77,#79,.T.);
#77 = VERTEX_POINT('',#78);
#78 = CARTESIAN_POINT('',(0.,0.1,0.));
#79 = SURFACE_CURVE('',#80,(#92),.PCURVE_S1.);
#80 = B_SPLINE_CURVE_WITH_KNOTS('',1,(#81,#82,#83,#84,#85,#86,#87,#88,
    #89,#90,#91),.UNSPECIFIED.,.F.,.F.,(2,1,1,1,1,1,1,1,1,1,2),(0.,
    7.725574819931E-02,0.102722391856,0.293577414612,0.390688744453,
    0.49010323587,0.515081124471,0.550387827406,0.700770464514,
    0.848575035716,1.),.UNSPECIFIED.);
#81 = CARTESIAN_POINT('',(1.,0.1,0.));
#82 = CARTESIAN_POINT('',(0.922670547563,0.10327631172,0.));
#83 = CARTESIAN_POINT('',(0.898326898628,9.563817256104E-02,0.));
#84 = CARTESIAN_POINT('',(0.70718140142,0.10054584787,0.));
#85 = CARTESIAN_POINT('',(0.609945304898,9.727238721785E-02,0.));
#86 = CARTESIAN_POINT('',(0.510370159107,9.943414198827E-02,0.));
#87 = CARTESIAN_POINT('',(0.485635213393,0.103227616133,0.));
#88 = CARTESIAN_POINT('',(0.45030838984,0.101438651201,0.));
#89 = CARTESIAN_POINT('',(0.299673804409,0.104267649888,0.));
#90 = CARTESIAN_POINT('',(0.1516999038,9.870798024233E-02,0.));
#91 = CARTESIAN_POINT('',(0.,0.1,0.));
#92 = PCURVE('',#40,#93);
#93 = DEFINITIONAL_REPRESENTATION('',(#94),#106);
#94 = B_SPLINE_CURVE_WITH_KNOTS('',1,(#95,#96,#97,#98,#99,#100,#101,#102
    ,#103,#104,#105),.UNSPECIFIED.,.F.,.F.,(2,1,1,1,1,1,1,1,1,1,2),(0.,
    7.725574819931E-02,0.102722391856,0.293577414612,0.390688744453,
    0.49010323587,0.515081124471,0.550387827406,0.700770464514,
    0.848575035716,1.),.UNSPECIFIED.);
#95 = CARTESIAN_POINT('',(0.499541454729,5.E-02));
#96 = CARTESIAN_POINT('',(0.422212002292,5.327631171993E-02));
#97 = CARTESIAN_POINT('',(0.397868353358,4.563817256104E-02));
#98 = CARTESIAN_POINT('',(0.206722856149,5.054584787016E-02));
#99 = CARTESIAN_POINT('',(0.109486759627,4.727238721785E-02));
#100 = CARTESIAN_POINT('',(9.911613836543E-03,4.943414198827E-02));
#101 = CARTESIAN_POINT('',(-1.482333187748E-02,5.322761613271E-02));
#102 = CARTESIAN_POINT('',(-5.015015543028E-02,5.143865120081E-02));
#103 = CARTESIAN_POINT('',(-0.200784740861,5.426764988849E-02));
#104 = CARTESIAN_POINT('',(-0.348758641471,4.870798024233E-02));
#105 = CARTESIAN_POINT('',(-0.500458545271,5.E-02));
#106 = ( GEOMETRIC_REPRESENTATION_CONTEXT(2) 
PARAMETRIC_REPRESENTATION_CONTEXT() REPRESENTATION_CONTEXT('2D SPACE',''
  ) );
#107 = ORIENTED_EDGE('',*,*,#108,.T.);
#108 = EDGE_CURVE('',#77,#22,#109,.T.);
#109 = SURFACE_CURVE('',#110,(#114),.PCURVE_S1.);
#110 = LINE('',#111,#112);
#111 = CARTESIAN_POINT('',(0.,0.1,0.));
#112 = VECTOR('',#113,1.);
#113 = DIRECTION('',(0.,-1.,0.));
#114 = PCURVE('',#40,#115);
#115 = DEFINITIONAL_REPRESENTATION('',(#116),#120);
#116 = LINE('',#117,#118);
#117 = CARTESIAN_POINT('',(-0.500458545271,5.E-02));
#118 = VECTOR('',#119,1.);
#119 = DIRECTION('',(0.,-1.));
#120 = ( GEOMETRIC_REPRESENTATION_CONTEXT(2) 
PARAMETRIC_REPRESENTATION_CONTEXT() REPRESENTATION_CONTEXT('2D SPACE',''
  ) );
#121 = ( GEOMETRIC_REPRESENTATION_CONTEXT(3) 
GLOBAL_UNCERTAINTY_ASSIGNED_CONTEXT((#125)) GLOBAL_UNIT_ASSIGNED_CONTEXT
((#122,#123,#124)) REPRESENTATION_CONTEXT('Context #1',
  '3D Context with UNIT and UNCERTAINTY') );
#122 = ( LENGTH_UNIT() NAMED_UNIT(*) SI_UNIT(.MILLI.,.METRE.) );
#123 = ( NAMED_UNIT(*) PLANE_ANGLE_UNIT() SI_UNIT($,.RADIAN.) );
#124 = ( NAMED_UNIT(*) SI_UNIT($,.STERADIAN.) SOLID_ANGLE_UNIT() );
#125 = UNCERTAINTY_MEASURE_WITH_UNIT(LENGTH_MEASURE(1.E-07),#122,
  'distance_accuracy_value','confusion accuracy');
#126 = PRODUCT_RELATED_PRODUCT_CATEGORY('part',$,(#7));
ENDSEC;
END-ISO-10303-21;
