ISO-10303-21;
HEADER;
FILE_DESCRIPTION(('Open CASCADE Model'),'2;1');
FILE_NAME('Open CASCADE Shape Model','2026-06-05T13:18:45',('Author'),(
    'Open CASCADE'),'Open CASCADE STEP processor 7.9','Open CASCADE 7.9'
  ,'Unknown');
FILE_SCHEMA(('AUTOMOTIVE_DESIGN { 1 0 10303 214 1 1 1 1 }'));
ENDSEC;
DATA;
#1 = APPLICATION_PROTOCOL_DEFINITION('international standard',
  'automotive_design',2000,#2);
#2 = APPLICATION_CONTEXT(
  'core data for automotive mechanical design processes');
#3 = SHAPE_DEFINITION_REPRESENTATION(#4,#10);
#4 = PRODUCT_DEFINITION_SHAPE('','',#5);
#5 = PRODUCT_DEFINITION('design','',#6,#9);
#6 = PRODUCT_DEFINITION_FORMATION('','',#7);
#7 = PRODUCT('Open CASCADE STEP translator 7.9 21',
  'Open CASCADE STEP translator 7.9 21','',(#8));
#8 = PRODUCT_CONTEXT('',#2,'mechanical');
#9 = PRODUCT_DEFINITION_CONTEXT('part definition',#2,'design');
#10 = MANIFOLD_SURFACE_SHAPE_REPRESENTATION('',(#11,#15),#121);
#11 = AXIS2_PLACEMENT_3D('',#12,#13,#14);
#12 = CARTESIAN_POINT('',(0.,0.,0.));
#13 = DIRECTION('',(0.,0.,1.));
#14 = DIRECTION('',(1.,0.,-0.));
#15 = SHELL_BASED_SURFACE_MODEL('',(#16));
#16 = OPEN_SHELL('',(#17));
#17 = ADVANCED_FACE('',(#18),#40,.T.);
#18 = FACE_BOUND('',#19,.T.);
#19 = EDGE_LOOP('',(#20,#59,#75,#107));
#20 = ORIENTED_EDGE('',*,*,#21,.T.);
#21 = EDGE_CURVE('',#22,#24,#26,.T.);
#22 = VERTEX_POINT('',#23);
#23 = CARTESIAN_POINT('',(0.,0.,0.));
#24 = VERTEX_POINT('',#25);
#25 = CARTESIAN_POINT('',(1.,0.,0.));
#26 = SURFACE_CURVE('',#27,(#39),.PCURVE_S1.);
#27 = B_SPLINE_CURVE_WITH_KNOTS('',1,(#28,#29,#30,#31,#32,#33,#34,#35,
    #36,#37,#38),.UNSPECIFIED.,.F.,.F.,(2,1,1,1,1,1,1,1,1,1,2),(0.,
    0.203121372989,0.279293619811,0.353763142575,0.401935349843,
    0.448126030924,0.500731979714,0.743789165603,0.840753407765,
    0.871306985911,1.),.UNSPECIFIED.);
#28 = CARTESIAN_POINT('',(0.,-0.,0.));
#29 = CARTESIAN_POINT('',(0.203350734379,1.667712556951E-03,0.));
#30 = CARTESIAN_POINT('',(0.279590491305,-1.246903906526E-04,0.));
#31 = CARTESIAN_POINT('',(0.354066973314,-3.569775927349E-03,0.));
#32 = CARTESIAN_POINT('',(0.401605681459,4.556284185655E-03,0.));
#33 = CARTESIAN_POINT('',(0.447653951377,3.017795426434E-04,0.));
#34 = CARTESIAN_POINT('',(0.500274782991,2.509444515117E-03,0.));
#35 = CARTESIAN_POINT('',(0.743577840268,-1.720546488885E-03,0.));
#36 = CARTESIAN_POINT('',(0.84065473063,-1.576579424866E-03,0.));
#37 = CARTESIAN_POINT('',(0.871159220899,6.970883303294E-04,0.));
#38 = CARTESIAN_POINT('',(1.,-0.,0.));
#39 = PCURVE('',#40,#45);
#40 = PLANE('',#41);
#41 = AXIS2_PLACEMENT_3D('',#42,#43,#44);
#42 = CARTESIAN_POINT('',(0.499920513831,5.E-02,0.));
#43 = DIRECTION('',(0.,0.,1.));
#44 = DIRECTION('',(1.,0.,-0.));
#45 = DEFINITIONAL_REPRESENTATION('',(#46),#58);
#46 = B_SPLINE_CURVE_WITH_KNOTS('',1,(#47,#48,#49,#50,#51,#52,#53,#54,
    #55,#56,#57),.UNSPECIFIED.,.F.,.F.,(2,1,1,1,1,1,1,1,1,1,2),(0.,
    0.203121372989,0.279293619811,0.353763142575,0.401935349843,
    0.448126030924,0.500731979714,0.743789165603,0.840753407765,
    0.871306985911,1.),.UNSPECIFIED.);
#47 = CARTESIAN_POINT('',(-0.499920513831,-5.E-02));
#48 = CARTESIAN_POINT('',(-0.296569779452,-4.833228744305E-02));
#49 = CARTESIAN_POINT('',(-0.220330022525,-5.012469039065E-02));
#50 = CARTESIAN_POINT('',(-0.145853540516,-5.356977592735E-02));
#51 = CARTESIAN_POINT('',(-9.831483237153E-02,-4.544371581434E-02));
#52 = CARTESIAN_POINT('',(-5.22665624533E-02,-4.969822045736E-02));
#53 = CARTESIAN_POINT('',(3.542691604048E-04,-4.749055548488E-02));
#54 = CARTESIAN_POINT('',(0.243657326437,-5.172054648888E-02));
#55 = CARTESIAN_POINT('',(0.340734216799,-5.157657942487E-02));
#56 = CARTESIAN_POINT('',(0.371238707068,-4.930291166967E-02));
#57 = CARTESIAN_POINT('',(0.500079486169,-5.E-02));
#58 = ( GEOMETRIC_REPRESENTATION_CONTEXT(2) 
PARAMETRIC_REPRESENTATION_CONTEXT() REPRESENTATION_CONTEXT('2D SPACE',''
  ) );
#59 = ORIENTED_EDGE('',*,*,#60,.T.);
#60 = EDGE_CURVE('',#24,#61,#63,.T.);
#61 = VERTEX_POINT('',#62);
#62 = CARTESIAN_POINT('',(1.,0.1,0.));
#63 = SURFACE_CURVE('',#64,(#68),.PCURVE_S1.);
#64 = LINE('',#65,#66);
#65 = CARTESIAN_POINT('',(1.,-0.,0.));
#66 = VECTOR('',#67,1.);
#67 = DIRECTION('',(0.,1.,0.));
#68 = PCURVE('',#40,#69);
#69 = DEFINITIONAL_REPRESENTATION('',(#70),#74);
#70 = LINE('',#71,#72);
#71 = CARTESIAN_POINT('',(0.500079486169,-5.E-02));
#72 = VECTOR('',#73,1.);
#73 = DIRECTION('',(0.,1.));
#74 = ( GEOMETRIC_REPRESENTATION_CONTEXT(2) 
PARAMETRIC_REPRESENTATION_CONTEXT() REPRESENTATION_CONTEXT('2D SPACE',''
  ) );
#75 = ORIENTED_EDGE('',*,*,#76,.T.);
#76 = EDGE_CURVE('',#61,#77,#79,.T.);
#77 = VERTEX_POINT('',#78);
#78 = CARTESIAN_POINT('',(0.,0.1,0.));
#79 = SURFACE_CURVE('',#80,(#92),.PCURVE_S1.);
#80 = B_SPLINE_CURVE_WITH_KNOTS('',1,(#81,#82,#83,#84,#85,#86,#87,#88,
    #89,#90,#91),.UNSPECIFIED.,.F.,.F.,(2,1,1,1,1,1,1,1,1,1,2),(0.,
    0.128693014089,0.159246592235,0.256210834397,0.499268020286,
    0.551873969076,0.598064650157,0.646236857425,0.720706380189,
    0.796878627011,1.),.UNSPECIFIED.);
#81 = CARTESIAN_POINT('',(1.,0.1,0.));
#82 = CARTESIAN_POINT('',(0.871159220899,9.930291166967E-02,0.));
#83 = CARTESIAN_POINT('',(0.84065473063,0.101576579425,0.));
#84 = CARTESIAN_POINT('',(0.743577840268,0.101720546489,0.));
#85 = CARTESIAN_POINT('',(0.500274782991,9.749055548488E-02,0.));
#86 = CARTESIAN_POINT('',(0.447653951377,9.969822045736E-02,0.));
#87 = CARTESIAN_POINT('',(0.401605681459,9.544371581434E-02,0.));
#88 = CARTESIAN_POINT('',(0.354066973314,0.103569775927,0.));
#89 = CARTESIAN_POINT('',(0.279590491305,0.100124690391,0.));
#90 = CARTESIAN_POINT('',(0.203350734379,9.833228744305E-02,0.));
#91 = CARTESIAN_POINT('',(0.,0.1,0.));
#92 = PCURVE('',#40,#93);
#93 = DEFINITIONAL_REPRESENTATION('',(#94),#106);
#94 = B_SPLINE_CURVE_WITH_KNOTS('',1,(#95,#96,#97,#98,#99,#100,#101,#102
    ,#103,#104,#105),.UNSPECIFIED.,.F.,.F.,(2,1,1,1,1,1,1,1,1,1,2),(0.,
    0.128693014089,0.159246592235,0.256210834397,0.499268020286,
    0.551873969076,0.598064650157,0.646236857425,0.720706380189,
    0.796878627011,1.),.UNSPECIFIED.);
#95 = CARTESIAN_POINT('',(0.500079486169,5.E-02));
#96 = CARTESIAN_POINT('',(0.371238707068,4.930291166967E-02));
#97 = CARTESIAN_POINT('',(0.340734216799,5.157657942487E-02));
#98 = CARTESIAN_POINT('',(0.243657326437,5.172054648888E-02));
#99 = CARTESIAN_POINT('',(3.542691604048E-04,4.749055548488E-02));
#100 = CARTESIAN_POINT('',(-5.22665624533E-02,4.969822045736E-02));
#101 = CARTESIAN_POINT('',(-9.831483237153E-02,4.544371581434E-02));
#102 = CARTESIAN_POINT('',(-0.145853540516,5.356977592735E-02));
#103 = CARTESIAN_POINT('',(-0.220330022525,5.012469039065E-02));
#104 = CARTESIAN_POINT('',(-0.296569779452,4.833228744305E-02));
#105 = CARTESIAN_POINT('',(-0.499920513831,5.E-02));
#106 = ( GEOMETRIC_REPRESENTATION_CONTEXT(2) 
PARAMETRIC_REPRESENTATION_CONTEXT() REPRESENTATION_CONTEXT('2D SPACE',''
  ) );
#107 = ORIENTED_EDGE('',*,*,#108,.T.);
#108 = EDGE_CURVE('',#77,#22,#109,.T.);
#109 = SURFACE_CURVE('',#110,(#114),.PCURVE_S1.);
#110 = LINE('',#111,#112);
#111 = CARTESIAN_POINT('',(0.,0.1,0.));
#112 = VECTOR('',#113,1.);
#113 = DIRECTION('',(0.,-1.,0.));
#114 = PCURVE('',#40,#115);
#115 = DEFINITIONAL_REPRESENTATION('',(#116),#120);
#116 = LINE('',#117,#118);
#117 = CARTESIAN_POINT('',(-0.499920513831,5.E-02));
#118 = VECTOR('',#119,1.);
#119 = DIRECTION('',(0.,-1.));
#120 = ( GEOMETRIC_REPRESENTATION_CONTEXT(2) 
PARAMETRIC_REPRESENTATION_CONTEXT() REPRESENTATION_CONTEXT('2D SPACE',''
  ) );
#121 = ( GEOMETRIC_REPRESENTATION_CONTEXT(3) 
GLOBAL_UNCERTAINTY_ASSIGNED_CONTEXT((#125)) GLOBAL_UNIT_ASSIGNED_CONTEXT
((#122,#123,#124)) REPRESENTATION_CONTEXT('Context #1',
  '3D Context with UNIT and UNCERTAINTY') );
#122 = ( LENGTH_UNIT() NAMED_UNIT(*) SI_UNIT(.MILLI.,.METRE.) );
#123 = ( NAMED_UNIT(*) PLANE_ANGLE_UNIT() SI_UNIT($,.RADIAN.) );
#124 = ( NAMED_UNIT(*) SI_UNIT($,.STERADIAN.) SOLID_ANGLE_UNIT() );
#125 = UNCERTAINTY_MEASURE_WITH_UNIT(LENGTH_MEASURE(1.E-07),#122,
  'distance_accuracy_value','confusion accuracy');
#126 = PRODUCT_RELATED_PRODUCT_CATEGORY('part',$,(#7));
ENDSEC;
END-ISO-10303-21;
