ISO-10303-21;
HEADER;
FILE_DESCRIPTION(('Open CASCADE Model'),'2;1');
FILE_NAME('Open CASCADE Shape Model','2026-06-05T13:18:45',('Author'),(
    'Open CASCADE'),'Open CASCADE STEP processor 7.9','Open CASCADE 7.9'
  ,'Unknown');
FILE_SCHEMA(('AUTOMOTIVE_DESIGN { 1 0 10303 214 1 1 1 1 }'));
ENDSEC;
DATA;
#1 = APPLICATION_PROTOCOL_DEFINITION('international standard',
  'automotive_design',2000,#2);
#2 = APPLICATION_CONTEXT(
  'core data for automotive mechanical design processes');
#3 = SHAPE_DEFINITION_REPRESENTATION(#4,#10);
#4 = PRODUCT_DEFINITION_SHAPE('','',#5);
#5 = PRODUCT_DEFINITION('design','',#6,#9);
#6 = PRODUCT_DEFINITION_FORMATION('','',#7);
#7 = PRODUCT('Open CASCADE STEP translator 7.9 77',
  'Open CASCADE STEP translator 7.9 77','',(#8));
#8 = PRODUCT_CONTEXT('',#2,'mechanical');
#9 = PRODUCT_DEFINITION_CONTEXT('part definition',#2,'design');
#10 = MANIFOLD_SURFACE_SHAPE_REPRESENTATION('',(#11,#15),#121);
#11 = AXIS2_PLACEMENT_3D('',#12,#13,#14);
#12 = CARTESIAN_POINT('',(0.,0.,0.));
#13 = DIRECTION('',(0.,0.,1.));
#14 = DIRECTION('',(1.,0.,-0.));
#15 = SHELL_BASED_SURFACE_MODEL('',(#16));
#16 = OPEN_SHELL('',(#17));
#17 = ADVANCED_FACE('',(#18),#40,.T.);
#18 = FACE_BOUND('',#19,.T.);
#19 = EDGE_LOOP('',(#20,#59,#75,#107));
#20 = ORIENTED_EDGE('',*,*,#21,.T.);
#21 = EDGE_CURVE('',#22,#24,#26,.T.);
#22 = VERTEX_POINT('',#23);
#23 = CARTESIAN_POINT('',(0.,0.,0.));
#24 = VERTEX_POINT('',#25);
#25 = CARTESIAN_POINT('',(1.,0.,0.));
#26 = SURFACE_CURVE('',#27,(#39),.PCURVE_S1.);
#27 = B_SPLINE_CURVE_WITH_KNOTS('',1,(#28,#29,#30,#31,#32,#33,#34,#35,
    #36,#37,#38),.UNSPECIFIED.,.F.,.F.,(2,1,1,1,1,1,1,1,1,1,2),(0.,
    7.833606351033E-02,0.117956460967,0.225490485389,0.250937032325,
    0.428046122517,0.578956926264,0.630855783983,0.667305725093,
    0.843893521439,1.),.UNSPECIFIED.);
#28 = CARTESIAN_POINT('',(0.,-0.,0.));
#29 = CARTESIAN_POINT('',(7.84303359422E-02,4.069162996886E-03,0.));
#30 = CARTESIAN_POINT('',(0.117147199083,-4.807582898966E-03,0.));
#31 = CARTESIAN_POINT('',(0.224877619551,-7.120487908332E-04,0.));
#32 = CARTESIAN_POINT('',(0.250174108699,-4.016749471898E-03,0.));
#33 = CARTESIAN_POINT('',(0.427721587601,-1.847777139191E-03,0.));
#34 = CARTESIAN_POINT('',(0.579002709842,-3.943192518013E-03,0.));
#35 = CARTESIAN_POINT('',(0.630325519796,4.613394945548E-03,0.));
#36 = CARTESIAN_POINT('',(0.666479990303,-7.004630000058E-04,0.));
#37 = CARTESIAN_POINT('',(0.843503412729,1.579460913833E-03,0.));
#38 = CARTESIAN_POINT('',(1.,-0.,0.));
#39 = PCURVE('',#40,#45);
#40 = PLANE('',#41);
#41 = AXIS2_PLACEMENT_3D('',#42,#43,#44);
#42 = CARTESIAN_POINT('',(0.49963913632,5.E-02,0.));
#43 = DIRECTION('',(0.,0.,1.));
#44 = DIRECTION('',(1.,0.,-0.));
#45 = DEFINITIONAL_REPRESENTATION('',(#46),#58);
#46 = B_SPLINE_CURVE_WITH_KNOTS('',1,(#47,#48,#49,#50,#51,#52,#53,#54,
    #55,#56,#57),.UNSPECIFIED.,.F.,.F.,(2,1,1,1,1,1,1,1,1,1,2),(0.,
    7.833606351033E-02,0.117956460967,0.225490485389,0.250937032325,
    0.428046122517,0.578956926264,0.630855783983,0.667305725093,
    0.843893521439,1.),.UNSPECIFIED.);
#47 = CARTESIAN_POINT('',(-0.49963913632,-5.E-02));
#48 = CARTESIAN_POINT('',(-0.421208800378,-4.593083700311E-02));
#49 = CARTESIAN_POINT('',(-0.382491937237,-5.480758289897E-02));
#50 = CARTESIAN_POINT('',(-0.274761516769,-5.071204879083E-02));
#51 = CARTESIAN_POINT('',(-0.249465027621,-5.40167494719E-02));
#52 = CARTESIAN_POINT('',(-7.19175487195E-02,-5.184777713919E-02));
#53 = CARTESIAN_POINT('',(7.936357352137E-02,-5.394319251801E-02));
#54 = CARTESIAN_POINT('',(0.130686383476,-4.538660505445E-02));
#55 = CARTESIAN_POINT('',(0.166840853983,-5.070046300001E-02));
#56 = CARTESIAN_POINT('',(0.343864276409,-4.842053908617E-02));
#57 = CARTESIAN_POINT('',(0.50036086368,-5.E-02));
#58 = ( GEOMETRIC_REPRESENTATION_CONTEXT(2) 
PARAMETRIC_REPRESENTATION_CONTEXT() REPRESENTATION_CONTEXT('2D SPACE',''
  ) );
#59 = ORIENTED_EDGE('',*,*,#60,.T.);
#60 = EDGE_CURVE('',#24,#61,#63,.T.);
#61 = VERTEX_POINT('',#62);
#62 = CARTESIAN_POINT('',(1.,0.1,0.));
#63 = SURFACE_CURVE('',#64,(#68),.PCURVE_S1.);
#64 = LINE('',#65,#66);
#65 = CARTESIAN_POINT('',(1.,-0.,0.));
#66 = VECTOR('',#67,1.);
#67 = DIRECTION('',(0.,1.,0.));
#68 = PCURVE('',#40,#69);
#69 = DEFINITIONAL_REPRESENTATION('',(#70),#74);
#70 = LINE('',#71,#72);
#71 = CARTESIAN_POINT('',(0.50036086368,-5.E-02));
#72 = VECTOR('',#73,1.);
#73 = DIRECTION('',(0.,1.));
#74 = ( GEOMETRIC_REPRESENTATION_CONTEXT(2) 
PARAMETRIC_REPRESENTATION_CONTEXT() REPRESENTATION_CONTEXT('2D SPACE',''
  ) );
#75 = ORIENTED_EDGE('',*,*,#76,.T.);
#76 = EDGE_CURVE('',#61,#77,#79,.T.);
#77 = VERTEX_POINT('',#78);
#78 = CARTESIAN_POINT('',(0.,0.1,0.));
#79 = SURFACE_CURVE('',#80,(#92),.PCURVE_S1.);
#80 = B_SPLINE_CURVE_WITH_KNOTS('',1,(#81,#82,#83,#84,#85,#86,#87,#88,
    #89,#90,#91),.UNSPECIFIED.,.F.,.F.,(2,1,1,1,1,1,1,1,1,1,2),(0.,
    0.156106478561,0.332694274907,0.369144216017,0.421043073736,
    0.571953877483,0.749062967675,0.774509514611,0.882043539033,
    0.92166393649,1.),.UNSPECIFIED.);
#81 = CARTESIAN_POINT('',(1.,0.1,0.));
#82 = CARTESIAN_POINT('',(0.843503412729,9.842053908617E-02,0.));
#83 = CARTESIAN_POINT('',(0.666479990303,0.100700463,0.));
#84 = CARTESIAN_POINT('',(0.630325519796,9.538660505445E-02,0.));
#85 = CARTESIAN_POINT('',(0.579002709842,0.103943192518,0.));
#86 = CARTESIAN_POINT('',(0.427721587601,0.101847777139,0.));
#87 = CARTESIAN_POINT('',(0.250174108699,0.104016749472,0.));
#88 = CARTESIAN_POINT('',(0.224877619551,0.100712048791,0.));
#89 = CARTESIAN_POINT('',(0.117147199083,0.104807582899,0.));
#90 = CARTESIAN_POINT('',(7.84303359422E-02,9.593083700311E-02,0.));
#91 = CARTESIAN_POINT('',(0.,0.1,0.));
#92 = PCURVE('',#40,#93);
#93 = DEFINITIONAL_REPRESENTATION('',(#94),#106);
#94 = B_SPLINE_CURVE_WITH_KNOTS('',1,(#95,#96,#97,#98,#99,#100,#101,#102
    ,#103,#104,#105),.UNSPECIFIED.,.F.,.F.,(2,1,1,1,1,1,1,1,1,1,2),(0.,
    0.156106478561,0.332694274907,0.369144216017,0.421043073736,
    0.571953877483,0.749062967675,0.774509514611,0.882043539033,
    0.92166393649,1.),.UNSPECIFIED.);
#95 = CARTESIAN_POINT('',(0.50036086368,5.E-02));
#96 = CARTESIAN_POINT('',(0.343864276409,4.842053908617E-02));
#97 = CARTESIAN_POINT('',(0.166840853983,5.070046300001E-02));
#98 = CARTESIAN_POINT('',(0.130686383476,4.538660505445E-02));
#99 = CARTESIAN_POINT('',(7.936357352137E-02,5.394319251801E-02));
#100 = CARTESIAN_POINT('',(-7.19175487195E-02,5.184777713919E-02));
#101 = CARTESIAN_POINT('',(-0.249465027621,5.40167494719E-02));
#102 = CARTESIAN_POINT('',(-0.274761516769,5.071204879083E-02));
#103 = CARTESIAN_POINT('',(-0.382491937237,5.480758289897E-02));
#104 = CARTESIAN_POINT('',(-0.421208800378,4.593083700311E-02));
#105 = CARTESIAN_POINT('',(-0.49963913632,5.E-02));
#106 = ( GEOMETRIC_REPRESENTATION_CONTEXT(2) 
PARAMETRIC_REPRESENTATION_CONTEXT() REPRESENTATION_CONTEXT('2D SPACE',''
  ) );
#107 = ORIENTED_EDGE('',*,*,#108,.T.);
#108 = EDGE_CURVE('',#77,#22,#109,.T.);
#109 = SURFACE_CURVE('',#110,(#114),.PCURVE_S1.);
#110 = LINE('',#111,#112);
#111 = CARTESIAN_POINT('',(0.,0.1,0.));
#112 = VECTOR('',#113,1.);
#113 = DIRECTION('',(0.,-1.,0.));
#114 = PCURVE('',#40,#115);
#115 = DEFINITIONAL_REPRESENTATION('',(#116),#120);
#116 = LINE('',#117,#118);
#117 = CARTESIAN_POINT('',(-0.49963913632,5.E-02));
#118 = VECTOR('',#119,1.);
#119 = DIRECTION('',(0.,-1.));
#120 = ( GEOMETRIC_REPRESENTATION_CONTEXT(2) 
PARAMETRIC_REPRESENTATION_CONTEXT() REPRESENTATION_CONTEXT('2D SPACE',''
  ) );
#121 = ( GEOMETRIC_REPRESENTATION_CONTEXT(3) 
GLOBAL_UNCERTAINTY_ASSIGNED_CONTEXT((#125)) GLOBAL_UNIT_ASSIGNED_CONTEXT
((#122,#123,#124)) REPRESENTATION_CONTEXT('Context #1',
  '3D Context with UNIT and UNCERTAINTY') );
#122 = ( LENGTH_UNIT() NAMED_UNIT(*) SI_UNIT(.MILLI.,.METRE.) );
#123 = ( NAMED_UNIT(*) PLANE_ANGLE_UNIT() SI_UNIT($,.RADIAN.) );
#124 = ( NAMED_UNIT(*) SI_UNIT($,.STERADIAN.) SOLID_ANGLE_UNIT() );
#125 = UNCERTAINTY_MEASURE_WITH_UNIT(LENGTH_MEASURE(1.E-07),#122,
  'distance_accuracy_value','confusion accuracy');
#126 = PRODUCT_RELATED_PRODUCT_CATEGORY('part',$,(#7));
ENDSEC;
END-ISO-10303-21;
