ISO-10303-21;
HEADER;
FILE_DESCRIPTION(('Open CASCADE Model'),'2;1');
FILE_NAME('Open CASCADE Shape Model','2026-06-05T13:18:45',('Author'),(
    'Open CASCADE'),'Open CASCADE STEP processor 7.9','Open CASCADE 7.9'
  ,'Unknown');
FILE_SCHEMA(('AUTOMOTIVE_DESIGN { 1 0 10303 214 1 1 1 1 }'));
ENDSEC;
DATA;
#1 = APPLICATION_PROTOCOL_DEFINITION('international standard',
  'automotive_design',2000,#2);
#2 = APPLICATION_CONTEXT(
  'core data for automotive mechanical design processes');
#3 = SHAPE_DEFINITION_REPRESENTATION(#4,#10);
#4 = PRODUCT_DEFINITION_SHAPE('','',#5);
#5 = PRODUCT_DEFINITION('design','',#6,#9);
#6 = PRODUCT_DEFINITION_FORMATION('','',#7);
#7 = PRODUCT('Open CASCADE STEP translator 7.9 3',
  'Open CASCADE STEP translator 7.9 3','',(#8));
#8 = PRODUCT_CONTEXT('',#2,'mechanical');
#9 = PRODUCT_DEFINITION_CONTEXT('part definition',#2,'design');
#10 = MANIFOLD_SURFACE_SHAPE_REPRESENTATION('',(#11,#15),#121);
#11 = AXIS2_PLACEMENT_3D('',#12,#13,#14);
#12 = CARTESIAN_POINT('',(0.,0.,0.));
#13 = DIRECTION('',(0.,0.,1.));
#14 = DIRECTION('',(1.,0.,-0.));
#15 = SHELL_BASED_SURFACE_MODEL('',(#16));
#16 = OPEN_SHELL('',(#17));
#17 = ADVANCED_FACE('',(#18),#40,.T.);
#18 = FACE_BOUND('',#19,.T.);
#19 = EDGE_LOOP('',(#20,#59,#75,#107));
#20 = ORIENTED_EDGE('',*,*,#21,.T.);
#21 = EDGE_CURVE('',#22,#24,#26,.T.);
#22 = VERTEX_POINT('',#23);
#23 = CARTESIAN_POINT('',(0.,0.,0.));
#24 = VERTEX_POINT('',#25);
#25 = CARTESIAN_POINT('',(1.,0.,0.));
#26 = SURFACE_CURVE('',#27,(#39),.PCURVE_S1.);
#27 = B_SPLINE_CURVE_WITH_KNOTS('',1,(#28,#29,#30,#31,#32,#33,#34,#35,
    #36,#37,#38),.UNSPECIFIED.,.F.,.F.,(2,1,1,1,1,1,1,1,1,1,2),(0.,
    4.785336368411E-02,0.147872902276,0.204410443917,0.28972796413,
    0.317269762768,0.519505083929,0.571916905462,0.597668608517,
    0.920893044917,1.),.UNSPECIFIED.);
#28 = CARTESIAN_POINT('',(0.,-0.,0.));
#29 = CARTESIAN_POINT('',(4.781229246298E-02,2.511194078267E-03,0.));
#30 = CARTESIAN_POINT('',(0.147883275841,2.210253732888E-03,0.));
#31 = CARTESIAN_POINT('',(0.204371184153,-7.776935531436E-04,0.));
#32 = CARTESIAN_POINT('',(0.289712618547,-2.64172259189E-03,0.));
#33 = CARTESIAN_POINT('',(0.317260258224,-1.95936976872E-03,0.));
#34 = CARTESIAN_POINT('',(0.519595180882,-4.903595349626E-04,0.));
#35 = CARTESIAN_POINT('',(0.572034040707,-3.621588089129E-04,0.));
#36 = CARTESIAN_POINT('',(0.597573167857,-3.766795752768E-03,0.));
#37 = CARTESIAN_POINT('',(0.920899699397,2.747466956108E-03,0.));
#38 = CARTESIAN_POINT('',(1.,-0.,0.));
#39 = PCURVE('',#40,#45);
#40 = PLANE('',#41);
#41 = AXIS2_PLACEMENT_3D('',#42,#43,#44);
#42 = CARTESIAN_POINT('',(0.499994333891,5.E-02,0.));
#43 = DIRECTION('',(0.,0.,1.));
#44 = DIRECTION('',(1.,0.,-0.));
#45 = DEFINITIONAL_REPRESENTATION('',(#46),#58);
#46 = B_SPLINE_CURVE_WITH_KNOTS('',1,(#47,#48,#49,#50,#51,#52,#53,#54,
    #55,#56,#57),.UNSPECIFIED.,.F.,.F.,(2,1,1,1,1,1,1,1,1,1,2),(0.,
    4.785336368411E-02,0.147872902276,0.204410443917,0.28972796413,
    0.317269762768,0.519505083929,0.571916905462,0.597668608517,
    0.920893044917,1.),.UNSPECIFIED.);
#47 = CARTESIAN_POINT('',(-0.499994333891,-5.E-02));
#48 = CARTESIAN_POINT('',(-0.452182041428,-4.748880592173E-02));
#49 = CARTESIAN_POINT('',(-0.35211105805,-4.778974626711E-02));
#50 = CARTESIAN_POINT('',(-0.295623149738,-5.077769355314E-02));
#51 = CARTESIAN_POINT('',(-0.210281715344,-5.264172259189E-02));
#52 = CARTESIAN_POINT('',(-0.182734075667,-5.195936976872E-02));
#53 = CARTESIAN_POINT('',(1.960084699151E-02,-5.049035953496E-02));
#54 = CARTESIAN_POINT('',(7.203970681601E-02,-5.036215880891E-02));
#55 = CARTESIAN_POINT('',(9.757883396587E-02,-5.376679575277E-02));
#56 = CARTESIAN_POINT('',(0.420905365506,-4.725253304389E-02));
#57 = CARTESIAN_POINT('',(0.500005666109,-5.E-02));
#58 = ( GEOMETRIC_REPRESENTATION_CONTEXT(2) 
PARAMETRIC_REPRESENTATION_CONTEXT() REPRESENTATION_CONTEXT('2D SPACE',''
  ) );
#59 = ORIENTED_EDGE('',*,*,#60,.T.);
#60 = EDGE_CURVE('',#24,#61,#63,.T.);
#61 = VERTEX_POINT('',#62);
#62 = CARTESIAN_POINT('',(1.,0.1,0.));
#63 = SURFACE_CURVE('',#64,(#68),.PCURVE_S1.);
#64 = LINE('',#65,#66);
#65 = CARTESIAN_POINT('',(1.,-0.,0.));
#66 = VECTOR('',#67,1.);
#67 = DIRECTION('',(0.,1.,0.));
#68 = PCURVE('',#40,#69);
#69 = DEFINITIONAL_REPRESENTATION('',(#70),#74);
#70 = LINE('',#71,#72);
#71 = CARTESIAN_POINT('',(0.500005666109,-5.E-02));
#72 = VECTOR('',#73,1.);
#73 = DIRECTION('',(0.,1.));
#74 = ( GEOMETRIC_REPRESENTATION_CONTEXT(2) 
PARAMETRIC_REPRESENTATION_CONTEXT() REPRESENTATION_CONTEXT('2D SPACE',''
  ) );
#75 = ORIENTED_EDGE('',*,*,#76,.T.);
#76 = EDGE_CURVE('',#61,#77,#79,.T.);
#77 = VERTEX_POINT('',#78);
#78 = CARTESIAN_POINT('',(0.,0.1,0.));
#79 = SURFACE_CURVE('',#80,(#92),.PCURVE_S1.);
#80 = B_SPLINE_CURVE_WITH_KNOTS('',1,(#81,#82,#83,#84,#85,#86,#87,#88,
    #89,#90,#91),.UNSPECIFIED.,.F.,.F.,(2,1,1,1,1,1,1,1,1,1,2),(0.,
    7.910695508303E-02,0.402331391483,0.428083094538,0.480494916071,
    0.682730237232,0.71027203587,0.795589556083,0.852127097724,
    0.952146636316,1.),.UNSPECIFIED.);
#81 = CARTESIAN_POINT('',(1.,0.1,0.));
#82 = CARTESIAN_POINT('',(0.920899699397,9.725253304389E-02,0.));
#83 = CARTESIAN_POINT('',(0.597573167857,0.103766795753,0.));
#84 = CARTESIAN_POINT('',(0.572034040707,0.100362158809,0.));
#85 = CARTESIAN_POINT('',(0.519595180882,0.100490359535,0.));
#86 = CARTESIAN_POINT('',(0.317260258224,0.101959369769,0.));
#87 = CARTESIAN_POINT('',(0.289712618547,0.102641722592,0.));
#88 = CARTESIAN_POINT('',(0.204371184153,0.100777693553,0.));
#89 = CARTESIAN_POINT('',(0.147883275841,9.778974626711E-02,0.));
#90 = CARTESIAN_POINT('',(4.781229246298E-02,9.748880592173E-02,0.));
#91 = CARTESIAN_POINT('',(0.,0.1,0.));
#92 = PCURVE('',#40,#93);
#93 = DEFINITIONAL_REPRESENTATION('',(#94),#106);
#94 = B_SPLINE_CURVE_WITH_KNOTS('',1,(#95,#96,#97,#98,#99,#100,#101,#102
    ,#103,#104,#105),.UNSPECIFIED.,.F.,.F.,(2,1,1,1,1,1,1,1,1,1,2),(0.,
    7.910695508303E-02,0.402331391483,0.428083094538,0.480494916071,
    0.682730237232,0.71027203587,0.795589556083,0.852127097724,
    0.952146636316,1.),.UNSPECIFIED.);
#95 = CARTESIAN_POINT('',(0.500005666109,5.E-02));
#96 = CARTESIAN_POINT('',(0.420905365506,4.725253304389E-02));
#97 = CARTESIAN_POINT('',(9.757883396587E-02,5.376679575277E-02));
#98 = CARTESIAN_POINT('',(7.203970681601E-02,5.036215880891E-02));
#99 = CARTESIAN_POINT('',(1.960084699151E-02,5.049035953496E-02));
#100 = CARTESIAN_POINT('',(-0.182734075667,5.195936976872E-02));
#101 = CARTESIAN_POINT('',(-0.210281715344,5.264172259189E-02));
#102 = CARTESIAN_POINT('',(-0.295623149738,5.077769355314E-02));
#103 = CARTESIAN_POINT('',(-0.35211105805,4.778974626711E-02));
#104 = CARTESIAN_POINT('',(-0.452182041428,4.748880592173E-02));
#105 = CARTESIAN_POINT('',(-0.499994333891,5.E-02));
#106 = ( GEOMETRIC_REPRESENTATION_CONTEXT(2) 
PARAMETRIC_REPRESENTATION_CONTEXT() REPRESENTATION_CONTEXT('2D SPACE',''
  ) );
#107 = ORIENTED_EDGE('',*,*,#108,.T.);
#108 = EDGE_CURVE('',#77,#22,#109,.T.);
#109 = SURFACE_CURVE('',#110,(#114),.PCURVE_S1.);
#110 = LINE('',#111,#112);
#111 = CARTESIAN_POINT('',(0.,0.1,0.));
#112 = VECTOR('',#113,1.);
#113 = DIRECTION('',(0.,-1.,0.));
#114 = PCURVE('',#40,#115);
#115 = DEFINITIONAL_REPRESENTATION('',(#116),#120);
#116 = LINE('',#117,#118);
#117 = CARTESIAN_POINT('',(-0.499994333891,5.E-02));
#118 = VECTOR('',#119,1.);
#119 = DIRECTION('',(0.,-1.));
#120 = ( GEOMETRIC_REPRESENTATION_CONTEXT(2) 
PARAMETRIC_REPRESENTATION_CONTEXT() REPRESENTATION_CONTEXT('2D SPACE',''
  ) );
#121 = ( GEOMETRIC_REPRESENTATION_CONTEXT(3) 
GLOBAL_UNCERTAINTY_ASSIGNED_CONTEXT((#125)) GLOBAL_UNIT_ASSIGNED_CONTEXT
((#122,#123,#124)) REPRESENTATION_CONTEXT('Context #1',
  '3D Context with UNIT and UNCERTAINTY') );
#122 = ( LENGTH_UNIT() NAMED_UNIT(*) SI_UNIT(.MILLI.,.METRE.) );
#123 = ( NAMED_UNIT(*) PLANE_ANGLE_UNIT() SI_UNIT($,.RADIAN.) );
#124 = ( NAMED_UNIT(*) SI_UNIT($,.STERADIAN.) SOLID_ANGLE_UNIT() );
#125 = UNCERTAINTY_MEASURE_WITH_UNIT(LENGTH_MEASURE(1.E-07),#122,
  'distance_accuracy_value','confusion accuracy');
#126 = PRODUCT_RELATED_PRODUCT_CATEGORY('part',$,(#7));
ENDSEC;
END-ISO-10303-21;
