ISO-10303-21;
HEADER;
FILE_DESCRIPTION(('Open CASCADE Model'),'2;1');
FILE_NAME('Open CASCADE Shape Model','2026-06-08T14:44:29',('Author'),(
    'Open CASCADE'),'Open CASCADE STEP processor 7.9','Open CASCADE 7.9'
  ,'Unknown');
FILE_SCHEMA(('AUTOMOTIVE_DESIGN { 1 0 10303 214 1 1 1 1 }'));
ENDSEC;
DATA;
#1 = APPLICATION_PROTOCOL_DEFINITION('international standard',
  'automotive_design',2000,#2);
#2 = APPLICATION_CONTEXT(
  'core data for automotive mechanical design processes');
#3 = SHAPE_DEFINITION_REPRESENTATION(#4,#10);
#4 = PRODUCT_DEFINITION_SHAPE('','',#5);
#5 = PRODUCT_DEFINITION('design','',#6,#9);
#6 = PRODUCT_DEFINITION_FORMATION('','',#7);
#7 = PRODUCT('Open CASCADE STEP translator 7.9 37',
  'Open CASCADE STEP translator 7.9 37','',(#8));
#8 = PRODUCT_CONTEXT('',#2,'mechanical');
#9 = PRODUCT_DEFINITION_CONTEXT('part definition',#2,'design');
#10 = MANIFOLD_SURFACE_SHAPE_REPRESENTATION('',(#11,#15),#121);
#11 = AXIS2_PLACEMENT_3D('',#12,#13,#14);
#12 = CARTESIAN_POINT('',(0.,0.,0.));
#13 = DIRECTION('',(0.,0.,1.));
#14 = DIRECTION('',(1.,0.,-0.));
#15 = SHELL_BASED_SURFACE_MODEL('',(#16));
#16 = OPEN_SHELL('',(#17));
#17 = ADVANCED_FACE('',(#18),#40,.T.);
#18 = FACE_BOUND('',#19,.T.);
#19 = EDGE_LOOP('',(#20,#59,#75,#107));
#20 = ORIENTED_EDGE('',*,*,#21,.T.);
#21 = EDGE_CURVE('',#22,#24,#26,.T.);
#22 = VERTEX_POINT('',#23);
#23 = CARTESIAN_POINT('',(0.,0.,0.));
#24 = VERTEX_POINT('',#25);
#25 = CARTESIAN_POINT('',(1.,0.,0.));
#26 = SURFACE_CURVE('',#27,(#39),.PCURVE_S1.);
#27 = B_SPLINE_CURVE_WITH_KNOTS('',1,(#28,#29,#30,#31,#32,#33,#34,#35,
    #36,#37,#38),.UNSPECIFIED.,.F.,.F.,(2,1,1,1,1,1,1,1,1,1,2),(0.,
    0.183028409791,0.243166851941,0.342052210984,0.400055828429,
    0.663333621022,0.705775331162,0.746814626734,0.814889193813,
    0.940776523253,1.),.UNSPECIFIED.);
#28 = CARTESIAN_POINT('',(0.,-0.,0.));
#29 = CARTESIAN_POINT('',(0.183225156396,2.374269141327E-04,0.));
#30 = CARTESIAN_POINT('',(0.243204648155,-4.94701748935E-03,0.));
#31 = CARTESIAN_POINT('',(0.342144618505,-1.74597476979E-03,0.));
#32 = CARTESIAN_POINT('',(0.400193746082,-3.146384431179E-03,0.));
#33 = CARTESIAN_POINT('',(0.663753304434,-4.025539692192E-03,0.));
#34 = CARTESIAN_POINT('',(0.70622511642,-2.875898362293E-03,0.));
#35 = CARTESIAN_POINT('',(0.746864501726,3.148206550464E-03,0.));
#36 = CARTESIAN_POINT('',(0.81490794776,-6.217073373757E-04,0.));
#37 = CARTESIAN_POINT('',(0.940846623615,3.981058426855E-03,0.));
#38 = CARTESIAN_POINT('',(1.,-0.,0.));
#39 = PCURVE('',#40,#45);
#40 = PLANE('',#41);
#41 = AXIS2_PLACEMENT_3D('',#42,#43,#44);
#42 = CARTESIAN_POINT('',(0.500136636402,5.E-02,0.));
#43 = DIRECTION('',(0.,0.,1.));
#44 = DIRECTION('',(1.,0.,-0.));
#45 = DEFINITIONAL_REPRESENTATION('',(#46),#58);
#46 = B_SPLINE_CURVE_WITH_KNOTS('',1,(#47,#48,#49,#50,#51,#52,#53,#54,
    #55,#56,#57),.UNSPECIFIED.,.F.,.F.,(2,1,1,1,1,1,1,1,1,1,2),(0.,
    0.183028409791,0.243166851941,0.342052210984,0.400055828429,
    0.663333621022,0.705775331162,0.746814626734,0.814889193813,
    0.940776523253,1.),.UNSPECIFIED.);
#47 = CARTESIAN_POINT('',(-0.500136636402,-5.E-02));
#48 = CARTESIAN_POINT('',(-0.316911480006,-4.976257308587E-02));
#49 = CARTESIAN_POINT('',(-0.256931988247,-5.494701748935E-02));
#50 = CARTESIAN_POINT('',(-0.157992017897,-5.174597476979E-02));
#51 = CARTESIAN_POINT('',(-9.994289032023E-02,-5.314638443118E-02));
#52 = CARTESIAN_POINT('',(0.163616668032,-5.402553969219E-02));
#53 = CARTESIAN_POINT('',(0.206088480018,-5.287589836229E-02));
#54 = CARTESIAN_POINT('',(0.246727865324,-4.685179344954E-02));
#55 = CARTESIAN_POINT('',(0.314771311358,-5.062170733738E-02));
#56 = CARTESIAN_POINT('',(0.440709987213,-4.601894157315E-02));
#57 = CARTESIAN_POINT('',(0.499863363598,-5.E-02));
#58 = ( GEOMETRIC_REPRESENTATION_CONTEXT(2) 
PARAMETRIC_REPRESENTATION_CONTEXT() REPRESENTATION_CONTEXT('2D SPACE',''
  ) );
#59 = ORIENTED_EDGE('',*,*,#60,.T.);
#60 = EDGE_CURVE('',#24,#61,#63,.T.);
#61 = VERTEX_POINT('',#62);
#62 = CARTESIAN_POINT('',(1.,0.1,0.));
#63 = SURFACE_CURVE('',#64,(#68),.PCURVE_S1.);
#64 = LINE('',#65,#66);
#65 = CARTESIAN_POINT('',(1.,-0.,0.));
#66 = VECTOR('',#67,1.);
#67 = DIRECTION('',(0.,1.,0.));
#68 = PCURVE('',#40,#69);
#69 = DEFINITIONAL_REPRESENTATION('',(#70),#74);
#70 = LINE('',#71,#72);
#71 = CARTESIAN_POINT('',(0.499863363598,-5.E-02));
#72 = VECTOR('',#73,1.);
#73 = DIRECTION('',(0.,1.));
#74 = ( GEOMETRIC_REPRESENTATION_CONTEXT(2) 
PARAMETRIC_REPRESENTATION_CONTEXT() REPRESENTATION_CONTEXT('2D SPACE',''
  ) );
#75 = ORIENTED_EDGE('',*,*,#76,.T.);
#76 = EDGE_CURVE('',#61,#77,#79,.T.);
#77 = VERTEX_POINT('',#78);
#78 = CARTESIAN_POINT('',(0.,0.1,0.));
#79 = SURFACE_CURVE('',#80,(#92),.PCURVE_S1.);
#80 = B_SPLINE_CURVE_WITH_KNOTS('',1,(#81,#82,#83,#84,#85,#86,#87,#88,
    #89,#90,#91),.UNSPECIFIED.,.F.,.F.,(2,1,1,1,1,1,1,1,1,1,2),(0.,
    5.922347674662E-02,0.185110806187,0.253185373266,0.294224668838,
    0.336666378978,0.599944171571,0.657947789016,0.756833148059,
    0.816971590209,1.),.UNSPECIFIED.);
#81 = CARTESIAN_POINT('',(1.,0.1,0.));
#82 = CARTESIAN_POINT('',(0.940846623615,9.601894157315E-02,0.));
#83 = CARTESIAN_POINT('',(0.81490794776,0.100621707337,0.));
#84 = CARTESIAN_POINT('',(0.746864501726,9.685179344954E-02,0.));
#85 = CARTESIAN_POINT('',(0.70622511642,0.102875898362,0.));
#86 = CARTESIAN_POINT('',(0.663753304434,0.104025539692,0.));
#87 = CARTESIAN_POINT('',(0.400193746082,0.103146384431,0.));
#88 = CARTESIAN_POINT('',(0.342144618505,0.10174597477,0.));
#89 = CARTESIAN_POINT('',(0.243204648155,0.104947017489,0.));
#90 = CARTESIAN_POINT('',(0.183225156396,9.976257308587E-02,0.));
#91 = CARTESIAN_POINT('',(0.,0.1,0.));
#92 = PCURVE('',#40,#93);
#93 = DEFINITIONAL_REPRESENTATION('',(#94),#106);
#94 = B_SPLINE_CURVE_WITH_KNOTS('',1,(#95,#96,#97,#98,#99,#100,#101,#102
    ,#103,#104,#105),.UNSPECIFIED.,.F.,.F.,(2,1,1,1,1,1,1,1,1,1,2),(0.,
    5.922347674662E-02,0.185110806187,0.253185373266,0.294224668838,
    0.336666378978,0.599944171571,0.657947789016,0.756833148059,
    0.816971590209,1.),.UNSPECIFIED.);
#95 = CARTESIAN_POINT('',(0.499863363598,5.E-02));
#96 = CARTESIAN_POINT('',(0.440709987213,4.601894157315E-02));
#97 = CARTESIAN_POINT('',(0.314771311358,5.062170733738E-02));
#98 = CARTESIAN_POINT('',(0.246727865324,4.685179344954E-02));
#99 = CARTESIAN_POINT('',(0.206088480018,5.287589836229E-02));
#100 = CARTESIAN_POINT('',(0.163616668032,5.402553969219E-02));
#101 = CARTESIAN_POINT('',(-9.994289032023E-02,5.314638443118E-02));
#102 = CARTESIAN_POINT('',(-0.157992017897,5.174597476979E-02));
#103 = CARTESIAN_POINT('',(-0.256931988247,5.494701748935E-02));
#104 = CARTESIAN_POINT('',(-0.316911480006,4.976257308587E-02));
#105 = CARTESIAN_POINT('',(-0.500136636402,5.E-02));
#106 = ( GEOMETRIC_REPRESENTATION_CONTEXT(2) 
PARAMETRIC_REPRESENTATION_CONTEXT() REPRESENTATION_CONTEXT('2D SPACE',''
  ) );
#107 = ORIENTED_EDGE('',*,*,#108,.T.);
#108 = EDGE_CURVE('',#77,#22,#109,.T.);
#109 = SURFACE_CURVE('',#110,(#114),.PCURVE_S1.);
#110 = LINE('',#111,#112);
#111 = CARTESIAN_POINT('',(0.,0.1,0.));
#112 = VECTOR('',#113,1.);
#113 = DIRECTION('',(0.,-1.,0.));
#114 = PCURVE('',#40,#115);
#115 = DEFINITIONAL_REPRESENTATION('',(#116),#120);
#116 = LINE('',#117,#118);
#117 = CARTESIAN_POINT('',(-0.500136636402,5.E-02));
#118 = VECTOR('',#119,1.);
#119 = DIRECTION('',(0.,-1.));
#120 = ( GEOMETRIC_REPRESENTATION_CONTEXT(2) 
PARAMETRIC_REPRESENTATION_CONTEXT() REPRESENTATION_CONTEXT('2D SPACE',''
  ) );
#121 = ( GEOMETRIC_REPRESENTATION_CONTEXT(3) 
GLOBAL_UNCERTAINTY_ASSIGNED_CONTEXT((#125)) GLOBAL_UNIT_ASSIGNED_CONTEXT
((#122,#123,#124)) REPRESENTATION_CONTEXT('Context #1',
  '3D Context with UNIT and UNCERTAINTY') );
#122 = ( LENGTH_UNIT() NAMED_UNIT(*) SI_UNIT(.MILLI.,.METRE.) );
#123 = ( NAMED_UNIT(*) PLANE_ANGLE_UNIT() SI_UNIT($,.RADIAN.) );
#124 = ( NAMED_UNIT(*) SI_UNIT($,.STERADIAN.) SOLID_ANGLE_UNIT() );
#125 = UNCERTAINTY_MEASURE_WITH_UNIT(LENGTH_MEASURE(1.E-07),#122,
  'distance_accuracy_value','confusion accuracy');
#126 = PRODUCT_RELATED_PRODUCT_CATEGORY('part',$,(#7));
ENDSEC;
END-ISO-10303-21;
