ISO-10303-21;
HEADER;
FILE_DESCRIPTION(('Open CASCADE Model'),'2;1');
FILE_NAME('Open CASCADE Shape Model','2026-06-05T13:18:45',('Author'),(
    'Open CASCADE'),'Open CASCADE STEP processor 7.9','Open CASCADE 7.9'
  ,'Unknown');
FILE_SCHEMA(('AUTOMOTIVE_DESIGN { 1 0 10303 214 1 1 1 1 }'));
ENDSEC;
DATA;
#1 = APPLICATION_PROTOCOL_DEFINITION('international standard',
  'automotive_design',2000,#2);
#2 = APPLICATION_CONTEXT(
  'core data for automotive mechanical design processes');
#3 = SHAPE_DEFINITION_REPRESENTATION(#4,#10);
#4 = PRODUCT_DEFINITION_SHAPE('','',#5);
#5 = PRODUCT_DEFINITION('design','',#6,#9);
#6 = PRODUCT_DEFINITION_FORMATION('','',#7);
#7 = PRODUCT('Open CASCADE STEP translator 7.9 9',
  'Open CASCADE STEP translator 7.9 9','',(#8));
#8 = PRODUCT_CONTEXT('',#2,'mechanical');
#9 = PRODUCT_DEFINITION_CONTEXT('part definition',#2,'design');
#10 = MANIFOLD_SURFACE_SHAPE_REPRESENTATION('',(#11,#15),#121);
#11 = AXIS2_PLACEMENT_3D('',#12,#13,#14);
#12 = CARTESIAN_POINT('',(0.,0.,0.));
#13 = DIRECTION('',(0.,0.,1.));
#14 = DIRECTION('',(1.,0.,-0.));
#15 = SHELL_BASED_SURFACE_MODEL('',(#16));
#16 = OPEN_SHELL('',(#17));
#17 = ADVANCED_FACE('',(#18),#40,.T.);
#18 = FACE_BOUND('',#19,.T.);
#19 = EDGE_LOOP('',(#20,#59,#75,#107));
#20 = ORIENTED_EDGE('',*,*,#21,.T.);
#21 = EDGE_CURVE('',#22,#24,#26,.T.);
#22 = VERTEX_POINT('',#23);
#23 = CARTESIAN_POINT('',(0.,0.,0.));
#24 = VERTEX_POINT('',#25);
#25 = CARTESIAN_POINT('',(1.,0.,0.));
#26 = SURFACE_CURVE('',#27,(#39),.PCURVE_S1.);
#27 = B_SPLINE_CURVE_WITH_KNOTS('',1,(#28,#29,#30,#31,#32,#33,#34,#35,
    #36,#37,#38),.UNSPECIFIED.,.F.,.F.,(2,1,1,1,1,1,1,1,1,1,2),(0.,
    3.223223184212E-02,0.345811389595,0.414134507537,0.495029133204,
    0.589042726298,0.661052467167,0.76820384614,0.857268966919,
    0.945669526897,1.),.UNSPECIFIED.);
#28 = CARTESIAN_POINT('',(0.,-0.,0.));
#29 = CARTESIAN_POINT('',(3.219593687156E-02,-1.820889844052E-03,0.));
#30 = CARTESIAN_POINT('',(0.345870541394,3.890779303587E-03,0.));
#31 = CARTESIAN_POINT('',(0.414225422561,3.668281500506E-03,0.));
#32 = CARTESIAN_POINT('',(0.495020500311,-1.048836874886E-03,0.));
#33 = CARTESIAN_POINT('',(0.589042960286,1.529222485497E-03,0.));
#34 = CARTESIAN_POINT('',(0.66108019057,5.712538694694E-04,0.));
#35 = CARTESIAN_POINT('',(0.768235233881,3.735793321049E-03,0.));
#36 = CARTESIAN_POINT('',(0.857206783605,-1.175479672964E-03,0.));
#37 = CARTESIAN_POINT('',(0.945645236844,-3.695122309288E-04,0.));
#38 = CARTESIAN_POINT('',(1.,-0.,0.));
#39 = PCURVE('',#40,#45);
#40 = PLANE('',#41);
#41 = AXIS2_PLACEMENT_3D('',#42,#43,#44);
#42 = CARTESIAN_POINT('',(0.50000852646,5.E-02,0.));
#43 = DIRECTION('',(0.,0.,1.));
#44 = DIRECTION('',(1.,0.,-0.));
#45 = DEFINITIONAL_REPRESENTATION('',(#46),#58);
#46 = B_SPLINE_CURVE_WITH_KNOTS('',1,(#47,#48,#49,#50,#51,#52,#53,#54,
    #55,#56,#57),.UNSPECIFIED.,.F.,.F.,(2,1,1,1,1,1,1,1,1,1,2),(0.,
    3.223223184212E-02,0.345811389595,0.414134507537,0.495029133204,
    0.589042726298,0.661052467167,0.76820384614,0.857268966919,
    0.945669526897,1.),.UNSPECIFIED.);
#47 = CARTESIAN_POINT('',(-0.50000852646,-5.E-02));
#48 = CARTESIAN_POINT('',(-0.467812589588,-5.182088984405E-02));
#49 = CARTESIAN_POINT('',(-0.154137985066,-4.610922069641E-02));
#50 = CARTESIAN_POINT('',(-8.578310389932E-02,-4.633171849949E-02));
#51 = CARTESIAN_POINT('',(-4.988026149453E-03,-5.104883687489E-02));
#52 = CARTESIAN_POINT('',(8.90344338262E-02,-4.84707775145E-02));
#53 = CARTESIAN_POINT('',(0.16107166411,-4.942874613053E-02));
#54 = CARTESIAN_POINT('',(0.268226707421,-4.626420667895E-02));
#55 = CARTESIAN_POINT('',(0.357198257145,-5.117547967296E-02));
#56 = CARTESIAN_POINT('',(0.445636710384,-5.036951223093E-02));
#57 = CARTESIAN_POINT('',(0.49999147354,-5.E-02));
#58 = ( GEOMETRIC_REPRESENTATION_CONTEXT(2) 
PARAMETRIC_REPRESENTATION_CONTEXT() REPRESENTATION_CONTEXT('2D SPACE',''
  ) );
#59 = ORIENTED_EDGE('',*,*,#60,.T.);
#60 = EDGE_CURVE('',#24,#61,#63,.T.);
#61 = VERTEX_POINT('',#62);
#62 = CARTESIAN_POINT('',(1.,0.1,0.));
#63 = SURFACE_CURVE('',#64,(#68),.PCURVE_S1.);
#64 = LINE('',#65,#66);
#65 = CARTESIAN_POINT('',(1.,-0.,0.));
#66 = VECTOR('',#67,1.);
#67 = DIRECTION('',(0.,1.,0.));
#68 = PCURVE('',#40,#69);
#69 = DEFINITIONAL_REPRESENTATION('',(#70),#74);
#70 = LINE('',#71,#72);
#71 = CARTESIAN_POINT('',(0.49999147354,-5.E-02));
#72 = VECTOR('',#73,1.);
#73 = DIRECTION('',(0.,1.));
#74 = ( GEOMETRIC_REPRESENTATION_CONTEXT(2) 
PARAMETRIC_REPRESENTATION_CONTEXT() REPRESENTATION_CONTEXT('2D SPACE',''
  ) );
#75 = ORIENTED_EDGE('',*,*,#76,.T.);
#76 = EDGE_CURVE('',#61,#77,#79,.T.);
#77 = VERTEX_POINT('',#78);
#78 = CARTESIAN_POINT('',(0.,0.1,0.));
#79 = SURFACE_CURVE('',#80,(#92),.PCURVE_S1.);
#80 = B_SPLINE_CURVE_WITH_KNOTS('',1,(#81,#82,#83,#84,#85,#86,#87,#88,
    #89,#90,#91),.UNSPECIFIED.,.F.,.F.,(2,1,1,1,1,1,1,1,1,1,2),(0.,
    5.433047310321E-02,0.142731033081,0.23179615386,0.338947532833,
    0.410957273702,0.504970866796,0.585865492463,0.654188610405,
    0.967767768158,1.),.UNSPECIFIED.);
#81 = CARTESIAN_POINT('',(1.,0.1,0.));
#82 = CARTESIAN_POINT('',(0.945645236844,0.100369512231,0.));
#83 = CARTESIAN_POINT('',(0.857206783605,0.101175479673,0.));
#84 = CARTESIAN_POINT('',(0.768235233881,9.626420667895E-02,0.));
#85 = CARTESIAN_POINT('',(0.66108019057,9.942874613053E-02,0.));
#86 = CARTESIAN_POINT('',(0.589042960286,9.84707775145E-02,0.));
#87 = CARTESIAN_POINT('',(0.495020500311,0.101048836875,0.));
#88 = CARTESIAN_POINT('',(0.414225422561,9.633171849949E-02,0.));
#89 = CARTESIAN_POINT('',(0.345870541394,9.610922069641E-02,0.));
#90 = CARTESIAN_POINT('',(3.219593687156E-02,0.101820889844,0.));
#91 = CARTESIAN_POINT('',(0.,0.1,0.));
#92 = PCURVE('',#40,#93);
#93 = DEFINITIONAL_REPRESENTATION('',(#94),#106);
#94 = B_SPLINE_CURVE_WITH_KNOTS('',1,(#95,#96,#97,#98,#99,#100,#101,#102
    ,#103,#104,#105),.UNSPECIFIED.,.F.,.F.,(2,1,1,1,1,1,1,1,1,1,2),(0.,
    5.433047310321E-02,0.142731033081,0.23179615386,0.338947532833,
    0.410957273702,0.504970866796,0.585865492463,0.654188610405,
    0.967767768158,1.),.UNSPECIFIED.);
#95 = CARTESIAN_POINT('',(0.49999147354,5.E-02));
#96 = CARTESIAN_POINT('',(0.445636710384,5.036951223093E-02));
#97 = CARTESIAN_POINT('',(0.357198257145,5.117547967296E-02));
#98 = CARTESIAN_POINT('',(0.268226707421,4.626420667895E-02));
#99 = CARTESIAN_POINT('',(0.16107166411,4.942874613053E-02));
#100 = CARTESIAN_POINT('',(8.90344338262E-02,4.84707775145E-02));
#101 = CARTESIAN_POINT('',(-4.988026149453E-03,5.104883687489E-02));
#102 = CARTESIAN_POINT('',(-8.578310389932E-02,4.633171849949E-02));
#103 = CARTESIAN_POINT('',(-0.154137985066,4.610922069641E-02));
#104 = CARTESIAN_POINT('',(-0.467812589588,5.182088984405E-02));
#105 = CARTESIAN_POINT('',(-0.50000852646,5.E-02));
#106 = ( GEOMETRIC_REPRESENTATION_CONTEXT(2) 
PARAMETRIC_REPRESENTATION_CONTEXT() REPRESENTATION_CONTEXT('2D SPACE',''
  ) );
#107 = ORIENTED_EDGE('',*,*,#108,.T.);
#108 = EDGE_CURVE('',#77,#22,#109,.T.);
#109 = SURFACE_CURVE('',#110,(#114),.PCURVE_S1.);
#110 = LINE('',#111,#112);
#111 = CARTESIAN_POINT('',(0.,0.1,0.));
#112 = VECTOR('',#113,1.);
#113 = DIRECTION('',(0.,-1.,0.));
#114 = PCURVE('',#40,#115);
#115 = DEFINITIONAL_REPRESENTATION('',(#116),#120);
#116 = LINE('',#117,#118);
#117 = CARTESIAN_POINT('',(-0.50000852646,5.E-02));
#118 = VECTOR('',#119,1.);
#119 = DIRECTION('',(0.,-1.));
#120 = ( GEOMETRIC_REPRESENTATION_CONTEXT(2) 
PARAMETRIC_REPRESENTATION_CONTEXT() REPRESENTATION_CONTEXT('2D SPACE',''
  ) );
#121 = ( GEOMETRIC_REPRESENTATION_CONTEXT(3) 
GLOBAL_UNCERTAINTY_ASSIGNED_CONTEXT((#125)) GLOBAL_UNIT_ASSIGNED_CONTEXT
((#122,#123,#124)) REPRESENTATION_CONTEXT('Context #1',
  '3D Context with UNIT and UNCERTAINTY') );
#122 = ( LENGTH_UNIT() NAMED_UNIT(*) SI_UNIT(.MILLI.,.METRE.) );
#123 = ( NAMED_UNIT(*) PLANE_ANGLE_UNIT() SI_UNIT($,.RADIAN.) );
#124 = ( NAMED_UNIT(*) SI_UNIT($,.STERADIAN.) SOLID_ANGLE_UNIT() );
#125 = UNCERTAINTY_MEASURE_WITH_UNIT(LENGTH_MEASURE(1.E-07),#122,
  'distance_accuracy_value','confusion accuracy');
#126 = PRODUCT_RELATED_PRODUCT_CATEGORY('part',$,(#7));
ENDSEC;
END-ISO-10303-21;
