ISO-10303-21;
HEADER;
FILE_DESCRIPTION(('Open CASCADE Model'),'2;1');
FILE_NAME('Open CASCADE Shape Model','2026-06-08T14:44:29',('Author'),(
    'Open CASCADE'),'Open CASCADE STEP processor 7.9','Open CASCADE 7.9'
  ,'Unknown');
FILE_SCHEMA(('AUTOMOTIVE_DESIGN { 1 0 10303 214 1 1 1 1 }'));
ENDSEC;
DATA;
#1 = APPLICATION_PROTOCOL_DEFINITION('international standard',
  'automotive_design',2000,#2);
#2 = APPLICATION_CONTEXT(
  'core data for automotive mechanical design processes');
#3 = SHAPE_DEFINITION_REPRESENTATION(#4,#10);
#4 = PRODUCT_DEFINITION_SHAPE('','',#5);
#5 = PRODUCT_DEFINITION('design','',#6,#9);
#6 = PRODUCT_DEFINITION_FORMATION('','',#7);
#7 = PRODUCT('Open CASCADE STEP translator 7.9 26',
  'Open CASCADE STEP translator 7.9 26','',(#8));
#8 = PRODUCT_CONTEXT('',#2,'mechanical');
#9 = PRODUCT_DEFINITION_CONTEXT('part definition',#2,'design');
#10 = MANIFOLD_SURFACE_SHAPE_REPRESENTATION('',(#11,#15),#121);
#11 = AXIS2_PLACEMENT_3D('',#12,#13,#14);
#12 = CARTESIAN_POINT('',(0.,0.,0.));
#13 = DIRECTION('',(0.,0.,1.));
#14 = DIRECTION('',(1.,0.,-0.));
#15 = SHELL_BASED_SURFACE_MODEL('',(#16));
#16 = OPEN_SHELL('',(#17));
#17 = ADVANCED_FACE('',(#18),#40,.T.);
#18 = FACE_BOUND('',#19,.T.);
#19 = EDGE_LOOP('',(#20,#59,#75,#107));
#20 = ORIENTED_EDGE('',*,*,#21,.T.);
#21 = EDGE_CURVE('',#22,#24,#26,.T.);
#22 = VERTEX_POINT('',#23);
#23 = CARTESIAN_POINT('',(0.,0.,0.));
#24 = VERTEX_POINT('',#25);
#25 = CARTESIAN_POINT('',(1.,0.,0.));
#26 = SURFACE_CURVE('',#27,(#39),.PCURVE_S1.);
#27 = B_SPLINE_CURVE_WITH_KNOTS('',1,(#28,#29,#30,#31,#32,#33,#34,#35,
    #36,#37,#38),.UNSPECIFIED.,.F.,.F.,(2,1,1,1,1,1,1,1,1,1,2),(0.,
    0.149232787766,0.276153482738,0.303713185145,0.359626415956,
    0.414239318646,0.444549199768,0.525648897875,0.55359541729,
    0.774429977744,1.),.UNSPECIFIED.);
#28 = CARTESIAN_POINT('',(0.,-0.,0.));
#29 = CARTESIAN_POINT('',(0.149328323045,-1.52433056521E-03,0.));
#30 = CARTESIAN_POINT('',(0.276292376372,1.83785848176E-03,0.));
#31 = CARTESIAN_POINT('',(0.303465609206,-2.87432221986E-03,0.));
#32 = CARTESIAN_POINT('',(0.359366785266,-4.914438359968E-04,0.));
#33 = CARTESIAN_POINT('',(0.414004815454,6.858180482011E-04,0.));
#34 = CARTESIAN_POINT('',(0.444273192904,-1.260124809411E-03,0.));
#35 = CARTESIAN_POINT('',(0.525385643889,1.393426655497E-03,0.));
#36 = CARTESIAN_POINT('',(0.553310128281,-1.273924460676E-04,0.));
#37 = CARTESIAN_POINT('',(0.774286224904,-2.367056884822E-03,0.));
#38 = CARTESIAN_POINT('',(1.,-0.,0.));
#39 = PCURVE('',#40,#45);
#40 = PLANE('',#41);
#41 = AXIS2_PLACEMENT_3D('',#42,#43,#44);
#42 = CARTESIAN_POINT('',(0.499901793423,5.E-02,0.));
#43 = DIRECTION('',(0.,0.,1.));
#44 = DIRECTION('',(1.,0.,-0.));
#45 = DEFINITIONAL_REPRESENTATION('',(#46),#58);
#46 = B_SPLINE_CURVE_WITH_KNOTS('',1,(#47,#48,#49,#50,#51,#52,#53,#54,
    #55,#56,#57),.UNSPECIFIED.,.F.,.F.,(2,1,1,1,1,1,1,1,1,1,2),(0.,
    0.149232787766,0.276153482738,0.303713185145,0.359626415956,
    0.414239318646,0.444549199768,0.525648897875,0.55359541729,
    0.774429977744,1.),.UNSPECIFIED.);
#47 = CARTESIAN_POINT('',(-0.499901793423,-5.E-02));
#48 = CARTESIAN_POINT('',(-0.350573470378,-5.152433056521E-02));
#49 = CARTESIAN_POINT('',(-0.223609417051,-4.816214151824E-02));
#50 = CARTESIAN_POINT('',(-0.196436184217,-5.287432221986E-02));
#51 = CARTESIAN_POINT('',(-0.140535008157,-5.0491443836E-02));
#52 = CARTESIAN_POINT('',(-8.589697796929E-02,-4.93141819518E-02));
#53 = CARTESIAN_POINT('',(-5.562860051955E-02,-5.126012480941E-02));
#54 = CARTESIAN_POINT('',(2.548385046571E-02,-4.86065733445E-02));
#55 = CARTESIAN_POINT('',(5.340833485794E-02,-5.012739244607E-02));
#56 = CARTESIAN_POINT('',(0.274384431481,-5.236705688482E-02));
#57 = CARTESIAN_POINT('',(0.500098206577,-5.E-02));
#58 = ( GEOMETRIC_REPRESENTATION_CONTEXT(2) 
PARAMETRIC_REPRESENTATION_CONTEXT() REPRESENTATION_CONTEXT('2D SPACE',''
  ) );
#59 = ORIENTED_EDGE('',*,*,#60,.T.);
#60 = EDGE_CURVE('',#24,#61,#63,.T.);
#61 = VERTEX_POINT('',#62);
#62 = CARTESIAN_POINT('',(1.,0.1,0.));
#63 = SURFACE_CURVE('',#64,(#68),.PCURVE_S1.);
#64 = LINE('',#65,#66);
#65 = CARTESIAN_POINT('',(1.,-0.,0.));
#66 = VECTOR('',#67,1.);
#67 = DIRECTION('',(0.,1.,0.));
#68 = PCURVE('',#40,#69);
#69 = DEFINITIONAL_REPRESENTATION('',(#70),#74);
#70 = LINE('',#71,#72);
#71 = CARTESIAN_POINT('',(0.500098206577,-5.E-02));
#72 = VECTOR('',#73,1.);
#73 = DIRECTION('',(0.,1.));
#74 = ( GEOMETRIC_REPRESENTATION_CONTEXT(2) 
PARAMETRIC_REPRESENTATION_CONTEXT() REPRESENTATION_CONTEXT('2D SPACE',''
  ) );
#75 = ORIENTED_EDGE('',*,*,#76,.T.);
#76 = EDGE_CURVE('',#61,#77,#79,.T.);
#77 = VERTEX_POINT('',#78);
#78 = CARTESIAN_POINT('',(0.,0.1,0.));
#79 = SURFACE_CURVE('',#80,(#92),.PCURVE_S1.);
#80 = B_SPLINE_CURVE_WITH_KNOTS('',1,(#81,#82,#83,#84,#85,#86,#87,#88,
    #89,#90,#91),.UNSPECIFIED.,.F.,.F.,(2,1,1,1,1,1,1,1,1,1,2),(0.,
    0.225570022256,0.44640458271,0.474351102125,0.555450800232,
    0.585760681354,0.640373584044,0.696286814855,0.723846517262,
    0.850767212234,1.),.UNSPECIFIED.);
#81 = CARTESIAN_POINT('',(1.,0.1,0.));
#82 = CARTESIAN_POINT('',(0.774286224904,0.102367056885,0.));
#83 = CARTESIAN_POINT('',(0.553310128281,0.100127392446,0.));
#84 = CARTESIAN_POINT('',(0.525385643889,9.86065733445E-02,0.));
#85 = CARTESIAN_POINT('',(0.444273192904,0.101260124809,0.));
#86 = CARTESIAN_POINT('',(0.414004815454,9.93141819518E-02,0.));
#87 = CARTESIAN_POINT('',(0.359366785266,0.100491443836,0.));
#88 = CARTESIAN_POINT('',(0.303465609206,0.10287432222,0.));
#89 = CARTESIAN_POINT('',(0.276292376372,9.816214151824E-02,0.));
#90 = CARTESIAN_POINT('',(0.149328323045,0.101524330565,0.));
#91 = CARTESIAN_POINT('',(0.,0.1,0.));
#92 = PCURVE('',#40,#93);
#93 = DEFINITIONAL_REPRESENTATION('',(#94),#106);
#94 = B_SPLINE_CURVE_WITH_KNOTS('',1,(#95,#96,#97,#98,#99,#100,#101,#102
    ,#103,#104,#105),.UNSPECIFIED.,.F.,.F.,(2,1,1,1,1,1,1,1,1,1,2),(0.,
    0.225570022256,0.44640458271,0.474351102125,0.555450800232,
    0.585760681354,0.640373584044,0.696286814855,0.723846517262,
    0.850767212234,1.),.UNSPECIFIED.);
#95 = CARTESIAN_POINT('',(0.500098206577,5.E-02));
#96 = CARTESIAN_POINT('',(0.274384431481,5.236705688482E-02));
#97 = CARTESIAN_POINT('',(5.340833485794E-02,5.012739244607E-02));
#98 = CARTESIAN_POINT('',(2.548385046571E-02,4.86065733445E-02));
#99 = CARTESIAN_POINT('',(-5.562860051955E-02,5.126012480941E-02));
#100 = CARTESIAN_POINT('',(-8.589697796929E-02,4.93141819518E-02));
#101 = CARTESIAN_POINT('',(-0.140535008157,5.0491443836E-02));
#102 = CARTESIAN_POINT('',(-0.196436184217,5.287432221986E-02));
#103 = CARTESIAN_POINT('',(-0.223609417051,4.816214151824E-02));
#104 = CARTESIAN_POINT('',(-0.350573470378,5.152433056521E-02));
#105 = CARTESIAN_POINT('',(-0.499901793423,5.E-02));
#106 = ( GEOMETRIC_REPRESENTATION_CONTEXT(2) 
PARAMETRIC_REPRESENTATION_CONTEXT() REPRESENTATION_CONTEXT('2D SPACE',''
  ) );
#107 = ORIENTED_EDGE('',*,*,#108,.T.);
#108 = EDGE_CURVE('',#77,#22,#109,.T.);
#109 = SURFACE_CURVE('',#110,(#114),.PCURVE_S1.);
#110 = LINE('',#111,#112);
#111 = CARTESIAN_POINT('',(0.,0.1,0.));
#112 = VECTOR('',#113,1.);
#113 = DIRECTION('',(0.,-1.,0.));
#114 = PCURVE('',#40,#115);
#115 = DEFINITIONAL_REPRESENTATION('',(#116),#120);
#116 = LINE('',#117,#118);
#117 = CARTESIAN_POINT('',(-0.499901793423,5.E-02));
#118 = VECTOR('',#119,1.);
#119 = DIRECTION('',(0.,-1.));
#120 = ( GEOMETRIC_REPRESENTATION_CONTEXT(2) 
PARAMETRIC_REPRESENTATION_CONTEXT() REPRESENTATION_CONTEXT('2D SPACE',''
  ) );
#121 = ( GEOMETRIC_REPRESENTATION_CONTEXT(3) 
GLOBAL_UNCERTAINTY_ASSIGNED_CONTEXT((#125)) GLOBAL_UNIT_ASSIGNED_CONTEXT
((#122,#123,#124)) REPRESENTATION_CONTEXT('Context #1',
  '3D Context with UNIT and UNCERTAINTY') );
#122 = ( LENGTH_UNIT() NAMED_UNIT(*) SI_UNIT(.MILLI.,.METRE.) );
#123 = ( NAMED_UNIT(*) PLANE_ANGLE_UNIT() SI_UNIT($,.RADIAN.) );
#124 = ( NAMED_UNIT(*) SI_UNIT($,.STERADIAN.) SOLID_ANGLE_UNIT() );
#125 = UNCERTAINTY_MEASURE_WITH_UNIT(LENGTH_MEASURE(1.E-07),#122,
  'distance_accuracy_value','confusion accuracy');
#126 = PRODUCT_RELATED_PRODUCT_CATEGORY('part',$,(#7));
ENDSEC;
END-ISO-10303-21;
