ISO-10303-21;
HEADER;
FILE_DESCRIPTION(('Open CASCADE Model'),'2;1');
FILE_NAME('Open CASCADE Shape Model','2026-07-13T14:32:07',('Author'),(
    'Open CASCADE'),'Open CASCADE STEP processor 7.9','Open CASCADE 7.9'
  ,'Unknown');
FILE_SCHEMA(('AUTOMOTIVE_DESIGN { 1 0 10303 214 1 1 1 1 }'));
ENDSEC;
DATA;
#1 = APPLICATION_PROTOCOL_DEFINITION('international standard',
  'automotive_design',2000,#2);
#2 = APPLICATION_CONTEXT(
  'core data for automotive mechanical design processes');
#3 = SHAPE_DEFINITION_REPRESENTATION(#4,#10);
#4 = PRODUCT_DEFINITION_SHAPE('','',#5);
#5 = PRODUCT_DEFINITION('design','',#6,#9);
#6 = PRODUCT_DEFINITION_FORMATION('','',#7);
#7 = PRODUCT('Open CASCADE STEP translator 7.9 10',
  'Open CASCADE STEP translator 7.9 10','',(#8));
#8 = PRODUCT_CONTEXT('',#2,'mechanical');
#9 = PRODUCT_DEFINITION_CONTEXT('part definition',#2,'design');
#10 = MANIFOLD_SURFACE_SHAPE_REPRESENTATION('',(#11,#15),#121);
#11 = AXIS2_PLACEMENT_3D('',#12,#13,#14);
#12 = CARTESIAN_POINT('',(0.,0.,0.));
#13 = DIRECTION('',(0.,0.,1.));
#14 = DIRECTION('',(1.,0.,-0.));
#15 = SHELL_BASED_SURFACE_MODEL('',(#16));
#16 = OPEN_SHELL('',(#17));
#17 = ADVANCED_FACE('',(#18),#40,.T.);
#18 = FACE_BOUND('',#19,.T.);
#19 = EDGE_LOOP('',(#20,#59,#75,#107));
#20 = ORIENTED_EDGE('',*,*,#21,.T.);
#21 = EDGE_CURVE('',#22,#24,#26,.T.);
#22 = VERTEX_POINT('',#23);
#23 = CARTESIAN_POINT('',(0.,0.,0.));
#24 = VERTEX_POINT('',#25);
#25 = CARTESIAN_POINT('',(1.,0.,0.));
#26 = SURFACE_CURVE('',#27,(#39),.PCURVE_S1.);
#27 = B_SPLINE_CURVE_WITH_KNOTS('',1,(#28,#29,#30,#31,#32,#33,#34,#35,
    #36,#37,#38),.UNSPECIFIED.,.F.,.F.,(2,1,1,1,1,1,1,1,1,1,2),(0.,
    9.721972606713E-02,0.1952427177,0.300547369898,0.398927218325,
    0.503434025721,0.603210200383,0.698381442746,0.804653599668,
    0.897965530392,1.),.UNSPECIFIED.);
#28 = CARTESIAN_POINT('',(0.,-0.,0.));
#29 = CARTESIAN_POINT('',(9.730213990895E-02,-1.505712923171E-04,0.));
#30 = CARTESIAN_POINT('',(0.195374125562,2.440349094324E-03,0.));
#31 = CARTESIAN_POINT('',(0.300548524694,-4.36043570049E-03,0.));
#32 = CARTESIAN_POINT('',(0.398709222839,3.35392182418E-03,0.));
#33 = CARTESIAN_POINT('',(0.503297897431,4.550893806077E-03,0.));
#34 = CARTESIAN_POINT('',(0.603082514721,6.490293999696E-04,0.));
#35 = CARTESIAN_POINT('',(0.698171388928,-4.923755640558E-03,0.));
#36 = CARTESIAN_POINT('',(0.804528993951,-3.916772662549E-03,0.));
#37 = CARTESIAN_POINT('',(0.897909178381,-2.486080194569E-03,0.));
#38 = CARTESIAN_POINT('',(1.,-0.,0.));
#39 = PCURVE('',#40,#45);
#40 = PLANE('',#41);
#41 = AXIS2_PLACEMENT_3D('',#42,#43,#44);
#42 = CARTESIAN_POINT('',(0.499939960949,5.E-02,0.));
#43 = DIRECTION('',(0.,0.,1.));
#44 = DIRECTION('',(1.,0.,-0.));
#45 = DEFINITIONAL_REPRESENTATION('',(#46),#58);
#46 = B_SPLINE_CURVE_WITH_KNOTS('',1,(#47,#48,#49,#50,#51,#52,#53,#54,
    #55,#56,#57),.UNSPECIFIED.,.F.,.F.,(2,1,1,1,1,1,1,1,1,1,2),(0.,
    9.721972606713E-02,0.1952427177,0.300547369898,0.398927218325,
    0.503434025721,0.603210200383,0.698381442746,0.804653599668,
    0.897965530392,1.),.UNSPECIFIED.);
#47 = CARTESIAN_POINT('',(-0.499939960949,-5.E-02));
#48 = CARTESIAN_POINT('',(-0.40263782104,-5.015057129232E-02));
#49 = CARTESIAN_POINT('',(-0.304565835387,-4.755965090568E-02));
#50 = CARTESIAN_POINT('',(-0.199391436255,-5.436043570049E-02));
#51 = CARTESIAN_POINT('',(-0.101230738111,-4.664607817582E-02));
#52 = CARTESIAN_POINT('',(3.357936482072E-03,-4.544910619392E-02));
#53 = CARTESIAN_POINT('',(0.103142553771,-4.935097060003E-02));
#54 = CARTESIAN_POINT('',(0.198231427979,-5.492375564056E-02));
#55 = CARTESIAN_POINT('',(0.304589033001,-5.391677266255E-02));
#56 = CARTESIAN_POINT('',(0.397969217432,-5.248608019457E-02));
#57 = CARTESIAN_POINT('',(0.500060039051,-5.E-02));
#58 = ( GEOMETRIC_REPRESENTATION_CONTEXT(2) 
PARAMETRIC_REPRESENTATION_CONTEXT() REPRESENTATION_CONTEXT('2D SPACE',''
  ) );
#59 = ORIENTED_EDGE('',*,*,#60,.T.);
#60 = EDGE_CURVE('',#24,#61,#63,.T.);
#61 = VERTEX_POINT('',#62);
#62 = CARTESIAN_POINT('',(1.,0.1,0.));
#63 = SURFACE_CURVE('',#64,(#68),.PCURVE_S1.);
#64 = LINE('',#65,#66);
#65 = CARTESIAN_POINT('',(1.,-0.,0.));
#66 = VECTOR('',#67,1.);
#67 = DIRECTION('',(0.,1.,0.));
#68 = PCURVE('',#40,#69);
#69 = DEFINITIONAL_REPRESENTATION('',(#70),#74);
#70 = LINE('',#71,#72);
#71 = CARTESIAN_POINT('',(0.500060039051,-5.E-02));
#72 = VECTOR('',#73,1.);
#73 = DIRECTION('',(0.,1.));
#74 = ( GEOMETRIC_REPRESENTATION_CONTEXT(2) 
PARAMETRIC_REPRESENTATION_CONTEXT() REPRESENTATION_CONTEXT('2D SPACE',''
  ) );
#75 = ORIENTED_EDGE('',*,*,#76,.T.);
#76 = EDGE_CURVE('',#61,#77,#79,.T.);
#77 = VERTEX_POINT('',#78);
#78 = CARTESIAN_POINT('',(0.,0.1,0.));
#79 = SURFACE_CURVE('',#80,(#92),.PCURVE_S1.);
#80 = B_SPLINE_CURVE_WITH_KNOTS('',1,(#81,#82,#83,#84,#85,#86,#87,#88,
    #89,#90,#91),.UNSPECIFIED.,.F.,.F.,(2,1,1,1,1,1,1,1,1,1,2),(0.,
    0.102034469608,0.195346400332,0.301618557254,0.396789799617,
    0.496565974279,0.601072781675,0.699452630102,0.8047572823,
    0.902780273933,1.),.UNSPECIFIED.);
#81 = CARTESIAN_POINT('',(1.,0.1,0.));
#82 = CARTESIAN_POINT('',(0.897909178381,0.102486080195,0.));
#83 = CARTESIAN_POINT('',(0.804528993951,0.103916772663,0.));
#84 = CARTESIAN_POINT('',(0.698171388928,0.104923755641,0.));
#85 = CARTESIAN_POINT('',(0.603082514721,9.935097060003E-02,0.));
#86 = CARTESIAN_POINT('',(0.503297897431,9.544910619392E-02,0.));
#87 = CARTESIAN_POINT('',(0.398709222839,9.664607817582E-02,0.));
#88 = CARTESIAN_POINT('',(0.300548524694,0.1043604357,0.));
#89 = CARTESIAN_POINT('',(0.195374125562,9.755965090568E-02,0.));
#90 = CARTESIAN_POINT('',(9.730213990895E-02,0.100150571292,0.));
#91 = CARTESIAN_POINT('',(0.,0.1,0.));
#92 = PCURVE('',#40,#93);
#93 = DEFINITIONAL_REPRESENTATION('',(#94),#106);
#94 = B_SPLINE_CURVE_WITH_KNOTS('',1,(#95,#96,#97,#98,#99,#100,#101,#102
    ,#103,#104,#105),.UNSPECIFIED.,.F.,.F.,(2,1,1,1,1,1,1,1,1,1,2),(0.,
    0.102034469608,0.195346400332,0.301618557254,0.396789799617,
    0.496565974279,0.601072781675,0.699452630102,0.8047572823,
    0.902780273933,1.),.UNSPECIFIED.);
#95 = CARTESIAN_POINT('',(0.500060039051,5.E-02));
#96 = CARTESIAN_POINT('',(0.397969217432,5.248608019457E-02));
#97 = CARTESIAN_POINT('',(0.304589033001,5.391677266255E-02));
#98 = CARTESIAN_POINT('',(0.198231427979,5.492375564056E-02));
#99 = CARTESIAN_POINT('',(0.103142553771,4.935097060003E-02));
#100 = CARTESIAN_POINT('',(3.357936482072E-03,4.544910619392E-02));
#101 = CARTESIAN_POINT('',(-0.101230738111,4.664607817582E-02));
#102 = CARTESIAN_POINT('',(-0.199391436255,5.436043570049E-02));
#103 = CARTESIAN_POINT('',(-0.304565835387,4.755965090568E-02));
#104 = CARTESIAN_POINT('',(-0.40263782104,5.015057129232E-02));
#105 = CARTESIAN_POINT('',(-0.499939960949,5.E-02));
#106 = ( GEOMETRIC_REPRESENTATION_CONTEXT(2) 
PARAMETRIC_REPRESENTATION_CONTEXT() REPRESENTATION_CONTEXT('2D SPACE',''
  ) );
#107 = ORIENTED_EDGE('',*,*,#108,.T.);
#108 = EDGE_CURVE('',#77,#22,#109,.T.);
#109 = SURFACE_CURVE('',#110,(#114),.PCURVE_S1.);
#110 = LINE('',#111,#112);
#111 = CARTESIAN_POINT('',(0.,0.1,0.));
#112 = VECTOR('',#113,1.);
#113 = DIRECTION('',(0.,-1.,0.));
#114 = PCURVE('',#40,#115);
#115 = DEFINITIONAL_REPRESENTATION('',(#116),#120);
#116 = LINE('',#117,#118);
#117 = CARTESIAN_POINT('',(-0.499939960949,5.E-02));
#118 = VECTOR('',#119,1.);
#119 = DIRECTION('',(0.,-1.));
#120 = ( GEOMETRIC_REPRESENTATION_CONTEXT(2) 
PARAMETRIC_REPRESENTATION_CONTEXT() REPRESENTATION_CONTEXT('2D SPACE',''
  ) );
#121 = ( GEOMETRIC_REPRESENTATION_CONTEXT(3) 
GLOBAL_UNCERTAINTY_ASSIGNED_CONTEXT((#125)) GLOBAL_UNIT_ASSIGNED_CONTEXT
((#122,#123,#124)) REPRESENTATION_CONTEXT('Context #1',
  '3D Context with UNIT and UNCERTAINTY') );
#122 = ( LENGTH_UNIT() NAMED_UNIT(*) SI_UNIT(.MILLI.,.METRE.) );
#123 = ( NAMED_UNIT(*) PLANE_ANGLE_UNIT() SI_UNIT($,.RADIAN.) );
#124 = ( NAMED_UNIT(*) SI_UNIT($,.STERADIAN.) SOLID_ANGLE_UNIT() );
#125 = UNCERTAINTY_MEASURE_WITH_UNIT(LENGTH_MEASURE(1.E-07),#122,
  'distance_accuracy_value','confusion accuracy');
#126 = PRODUCT_RELATED_PRODUCT_CATEGORY('part',$,(#7));
ENDSEC;
END-ISO-10303-21;
