ISO-10303-21;
HEADER;
FILE_DESCRIPTION(('Open CASCADE Model'),'2;1');
FILE_NAME('Open CASCADE Shape Model','2026-08-17T20:30:04',('Author'),(
    'Open CASCADE'),'Open CASCADE STEP processor 7.9','Open CASCADE 7.9'
  ,'Unknown');
FILE_SCHEMA(('AUTOMOTIVE_DESIGN { 1 0 10303 214 1 1 1 1 }'));
ENDSEC;
DATA;
#1 = APPLICATION_PROTOCOL_DEFINITION('international standard',
  'automotive_design',2000,#2);
#2 = APPLICATION_CONTEXT(
  'core data for automotive mechanical design processes');
#3 = SHAPE_DEFINITION_REPRESENTATION(#4,#10);
#4 = PRODUCT_DEFINITION_SHAPE('','',#5);
#5 = PRODUCT_DEFINITION('design','',#6,#9);
#6 = PRODUCT_DEFINITION_FORMATION('','',#7);
#7 = PRODUCT('Open CASCADE STEP translator 7.9 37',
  'Open CASCADE STEP translator 7.9 37','',(#8));
#8 = PRODUCT_CONTEXT('',#2,'mechanical');
#9 = PRODUCT_DEFINITION_CONTEXT('part definition',#2,'design');
#10 = MANIFOLD_SURFACE_SHAPE_REPRESENTATION('',(#11,#15),#101);
#11 = AXIS2_PLACEMENT_3D('',#12,#13,#14);
#12 = CARTESIAN_POINT('',(0.,0.,0.));
#13 = DIRECTION('',(0.,0.,1.));
#14 = DIRECTION('',(1.,0.,-0.));
#15 = SHELL_BASED_SURFACE_MODEL('',(#16));
#16 = OPEN_SHELL('',(#17));
#17 = ADVANCED_FACE('',(#18),#35,.T.);
#18 = FACE_BOUND('',#19,.T.);
#19 = EDGE_LOOP('',(#20,#49,#65,#87));
#20 = ORIENTED_EDGE('',*,*,#21,.T.);
#21 = EDGE_CURVE('',#22,#24,#26,.T.);
#22 = VERTEX_POINT('',#23);
#23 = CARTESIAN_POINT('',(0.,0.,0.));
#24 = VERTEX_POINT('',#25);
#25 = CARTESIAN_POINT('',(1.,0.,0.));
#26 = SURFACE_CURVE('',#27,(#34),.PCURVE_S1.);
#27 = B_SPLINE_CURVE_WITH_KNOTS('',1,(#28,#29,#30,#31,#32,#33),
  .UNSPECIFIED.,.F.,.F.,(2,1,1,1,1,2),(0.,0.157037506634,0.238615583534,
    0.288056546208,0.66811614053,1.),.UNSPECIFIED.);
#28 = CARTESIAN_POINT('',(0.,-0.,0.));
#29 = CARTESIAN_POINT('',(0.157040395297,-6.490136482493E-04,0.));
#30 = CARTESIAN_POINT('',(0.238616260992,-1.49711311805E-03,0.));
#31 = CARTESIAN_POINT('',(0.28805216573,-7.022584717642E-04,0.));
#32 = CARTESIAN_POINT('',(0.668117308215,-2.590119218773E-03,0.));
#33 = CARTESIAN_POINT('',(1.,-0.,0.));
#34 = PCURVE('',#35,#40);
#35 = PLANE('',#36);
#36 = AXIS2_PLACEMENT_3D('',#37,#38,#39);
#37 = CARTESIAN_POINT('',(0.499999886644,0.1,0.));
#38 = DIRECTION('',(0.,0.,1.));
#39 = DIRECTION('',(1.,0.,-0.));
#40 = DEFINITIONAL_REPRESENTATION('',(#41),#48);
#41 = B_SPLINE_CURVE_WITH_KNOTS('',1,(#42,#43,#44,#45,#46,#47),
  .UNSPECIFIED.,.F.,.F.,(2,1,1,1,1,2),(0.,0.157037506634,0.238615583534,
    0.288056546208,0.66811614053,1.),.UNSPECIFIED.);
#42 = CARTESIAN_POINT('',(-0.499999886644,-0.1));
#43 = CARTESIAN_POINT('',(-0.342959491347,-0.100649013648));
#44 = CARTESIAN_POINT('',(-0.261383625652,-0.101497113118));
#45 = CARTESIAN_POINT('',(-0.211947720914,-0.100702258472));
#46 = CARTESIAN_POINT('',(0.16811742157,-0.102590119219));
#47 = CARTESIAN_POINT('',(0.500000113356,-0.1));
#48 = ( GEOMETRIC_REPRESENTATION_CONTEXT(2) 
PARAMETRIC_REPRESENTATION_CONTEXT() REPRESENTATION_CONTEXT('2D SPACE',''
  ) );
#49 = ORIENTED_EDGE('',*,*,#50,.T.);
#50 = EDGE_CURVE('',#24,#51,#53,.T.);
#51 = VERTEX_POINT('',#52);
#52 = CARTESIAN_POINT('',(1.,0.2,0.));
#53 = SURFACE_CURVE('',#54,(#58),.PCURVE_S1.);
#54 = LINE('',#55,#56);
#55 = CARTESIAN_POINT('',(1.,-0.,0.));
#56 = VECTOR('',#57,1.);
#57 = DIRECTION('',(0.,1.,0.));
#58 = PCURVE('',#35,#59);
#59 = DEFINITIONAL_REPRESENTATION('',(#60),#64);
#60 = LINE('',#61,#62);
#61 = CARTESIAN_POINT('',(0.500000113356,-0.1));
#62 = VECTOR('',#63,1.);
#63 = DIRECTION('',(0.,1.));
#64 = ( GEOMETRIC_REPRESENTATION_CONTEXT(2) 
PARAMETRIC_REPRESENTATION_CONTEXT() REPRESENTATION_CONTEXT('2D SPACE',''
  ) );
#65 = ORIENTED_EDGE('',*,*,#66,.T.);
#66 = EDGE_CURVE('',#51,#67,#69,.T.);
#67 = VERTEX_POINT('',#68);
#68 = CARTESIAN_POINT('',(0.,0.2,0.));
#69 = SURFACE_CURVE('',#70,(#77),.PCURVE_S1.);
#70 = B_SPLINE_CURVE_WITH_KNOTS('',1,(#71,#72,#73,#74,#75,#76),
  .UNSPECIFIED.,.F.,.F.,(2,1,1,1,1,2),(0.,0.33188385947,0.711943453792,
    0.761384416466,0.842962493366,1.),.UNSPECIFIED.);
#71 = CARTESIAN_POINT('',(1.,0.2,0.));
#72 = CARTESIAN_POINT('',(0.668117308215,0.202590119219,0.));
#73 = CARTESIAN_POINT('',(0.28805216573,0.200702258472,0.));
#74 = CARTESIAN_POINT('',(0.238616260992,0.201497113118,0.));
#75 = CARTESIAN_POINT('',(0.157040395297,0.200649013648,0.));
#76 = CARTESIAN_POINT('',(0.,0.2,0.));
#77 = PCURVE('',#35,#78);
#78 = DEFINITIONAL_REPRESENTATION('',(#79),#86);
#79 = B_SPLINE_CURVE_WITH_KNOTS('',1,(#80,#81,#82,#83,#84,#85),
  .UNSPECIFIED.,.F.,.F.,(2,1,1,1,1,2),(0.,0.33188385947,0.711943453792,
    0.761384416466,0.842962493366,1.),.UNSPECIFIED.);
#80 = CARTESIAN_POINT('',(0.500000113356,1.E-01));
#81 = CARTESIAN_POINT('',(0.16811742157,0.102590119219));
#82 = CARTESIAN_POINT('',(-0.211947720914,0.100702258472));
#83 = CARTESIAN_POINT('',(-0.261383625652,0.101497113118));
#84 = CARTESIAN_POINT('',(-0.342959491347,0.100649013648));
#85 = CARTESIAN_POINT('',(-0.499999886644,1.E-01));
#86 = ( GEOMETRIC_REPRESENTATION_CONTEXT(2) 
PARAMETRIC_REPRESENTATION_CONTEXT() REPRESENTATION_CONTEXT('2D SPACE',''
  ) );
#87 = ORIENTED_EDGE('',*,*,#88,.T.);
#88 = EDGE_CURVE('',#67,#22,#89,.T.);
#89 = SURFACE_CURVE('',#90,(#94),.PCURVE_S1.);
#90 = LINE('',#91,#92);
#91 = CARTESIAN_POINT('',(0.,0.2,0.));
#92 = VECTOR('',#93,1.);
#93 = DIRECTION('',(0.,-1.,0.));
#94 = PCURVE('',#35,#95);
#95 = DEFINITIONAL_REPRESENTATION('',(#96),#100);
#96 = LINE('',#97,#98);
#97 = CARTESIAN_POINT('',(-0.499999886644,1.E-01));
#98 = VECTOR('',#99,1.);
#99 = DIRECTION('',(0.,-1.));
#100 = ( GEOMETRIC_REPRESENTATION_CONTEXT(2) 
PARAMETRIC_REPRESENTATION_CONTEXT() REPRESENTATION_CONTEXT('2D SPACE',''
  ) );
#101 = ( GEOMETRIC_REPRESENTATION_CONTEXT(3) 
GLOBAL_UNCERTAINTY_ASSIGNED_CONTEXT((#105)) GLOBAL_UNIT_ASSIGNED_CONTEXT
((#102,#103,#104)) REPRESENTATION_CONTEXT('Context #1',
  '3D Context with UNIT and UNCERTAINTY') );
#102 = ( LENGTH_UNIT() NAMED_UNIT(*) SI_UNIT(.MILLI.,.METRE.) );
#103 = ( NAMED_UNIT(*) PLANE_ANGLE_UNIT() SI_UNIT($,.RADIAN.) );
#104 = ( NAMED_UNIT(*) SI_UNIT($,.STERADIAN.) SOLID_ANGLE_UNIT() );
#105 = UNCERTAINTY_MEASURE_WITH_UNIT(LENGTH_MEASURE(1.E-07),#102,
  'distance_accuracy_value','confusion accuracy');
#106 = PRODUCT_RELATED_PRODUCT_CATEGORY('part',$,(#7));
ENDSEC;
END-ISO-10303-21;
