ISO-10303-21;
HEADER;
FILE_DESCRIPTION(('Open CASCADE Model'),'2;1');
FILE_NAME('Open CASCADE Shape Model','2026-07-21T00:13:24',('Author'),(
    'Open CASCADE'),'Open CASCADE STEP processor 7.9','Open CASCADE 7.9'
  ,'Unknown');
FILE_SCHEMA(('AUTOMOTIVE_DESIGN { 1 0 10303 214 1 1 1 1 }'));
ENDSEC;
DATA;
#1 = APPLICATION_PROTOCOL_DEFINITION('international standard',
  'automotive_design',2000,#2);
#2 = APPLICATION_CONTEXT(
  'core data for automotive mechanical design processes');
#3 = SHAPE_DEFINITION_REPRESENTATION(#4,#10);
#4 = PRODUCT_DEFINITION_SHAPE('','',#5);
#5 = PRODUCT_DEFINITION('design','',#6,#9);
#6 = PRODUCT_DEFINITION_FORMATION('','',#7);
#7 = PRODUCT('Open CASCADE STEP translator 7.9 39',
  'Open CASCADE STEP translator 7.9 39','',(#8));
#8 = PRODUCT_CONTEXT('',#2,'mechanical');
#9 = PRODUCT_DEFINITION_CONTEXT('part definition',#2,'design');
#10 = MANIFOLD_SURFACE_SHAPE_REPRESENTATION('',(#11,#15),#161);
#11 = AXIS2_PLACEMENT_3D('',#12,#13,#14);
#12 = CARTESIAN_POINT('',(0.,0.,0.));
#13 = DIRECTION('',(0.,0.,1.));
#14 = DIRECTION('',(1.,0.,-0.));
#15 = SHELL_BASED_SURFACE_MODEL('',(#16));
#16 = OPEN_SHELL('',(#17));
#17 = ADVANCED_FACE('',(#18),#50,.T.);
#18 = FACE_BOUND('',#19,.T.);
#19 = EDGE_LOOP('',(#20,#79,#95,#147));
#20 = ORIENTED_EDGE('',*,*,#21,.T.);
#21 = EDGE_CURVE('',#22,#24,#26,.T.);
#22 = VERTEX_POINT('',#23);
#23 = CARTESIAN_POINT('',(0.,0.,0.));
#24 = VERTEX_POINT('',#25);
#25 = CARTESIAN_POINT('',(1.,0.,0.));
#26 = SURFACE_CURVE('',#27,(#49),.PCURVE_S1.);
#27 = B_SPLINE_CURVE_WITH_KNOTS('',1,(#28,#29,#30,#31,#32,#33,#34,#35,
    #36,#37,#38,#39,#40,#41,#42,#43,#44,#45,#46,#47,#48),.UNSPECIFIED.,
  .F.,.F.,(2,1,1,1,1,1,1,1,1,1,1,1,1,1,1,1,1,1,1,1,2),(0.,
    4.824131889409E-02,5.908013936832E-02,8.264680280225E-02,
    0.160894245355,0.40060049358,0.427765377841,0.46310463102,
    0.510937710902,0.546246739432,0.623477002047,0.723066964005,
    0.741520624221,0.783894191487,0.800053703282,0.818925270521,
    0.855316570471,0.881351642977,0.895056908971,0.935707645558,1.),
  .UNSPECIFIED.);
#28 = CARTESIAN_POINT('',(0.,-0.,0.));
#29 = CARTESIAN_POINT('',(4.862010506016E-02,-4.23644023022E-04,0.));
#30 = CARTESIAN_POINT('',(5.887311990415E-02,3.346886766327E-03,0.));
#31 = CARTESIAN_POINT('',(8.260944185871E-02,2.467445255998E-03,0.));
#32 = CARTESIAN_POINT('',(0.161468792435,3.396879750177E-03,0.));
#33 = CARTESIAN_POINT('',(0.40296734629,-3.519331577948E-03,0.));
#34 = CARTESIAN_POINT('',(0.430215374711,-8.422786006122E-04,0.));
#35 = CARTESIAN_POINT('',(0.465801480059,-2.351294275196E-03,0.));
#36 = CARTESIAN_POINT('',(0.51381159177,2.0396713709E-03,0.));
#37 = CARTESIAN_POINT('',(0.549391263947,1.287473629117E-03,0.));
#38 = CARTESIAN_POINT('',(0.627230160541,9.514503557347E-04,0.));
#39 = CARTESIAN_POINT('',(0.727543050507,-2.60014971744E-03,0.));
#40 = CARTESIAN_POINT('',(0.746141903855,-2.723529876746E-03,0.));
#41 = CARTESIAN_POINT('',(0.788473704764,2.93186472486E-03,0.));
#42 = CARTESIAN_POINT('',(0.803009338914,-4.415388567381E-03,0.));
#43 = CARTESIAN_POINT('',(0.820167228879,3.793446625563E-03,0.));
#44 = CARTESIAN_POINT('',(0.856016532837,-3.961220824236E-03,0.));
#45 = CARTESIAN_POINT('',(0.88102144115,3.996043543502E-03,0.));
#46 = CARTESIAN_POINT('',(0.89473697122,2.354601888487E-03,0.));
#47 = CARTESIAN_POINT('',(0.935293064456,-3.46478536068E-03,0.));
#48 = CARTESIAN_POINT('',(1.,-0.,0.));
#49 = PCURVE('',#50,#55);
#50 = PLANE('',#51);
#51 = AXIS2_PLACEMENT_3D('',#52,#53,#54);
#52 = CARTESIAN_POINT('',(0.501673485096,5.E-02,0.));
#53 = DIRECTION('',(0.,0.,1.));
#54 = DIRECTION('',(1.,0.,-0.));
#55 = DEFINITIONAL_REPRESENTATION('',(#56),#78);
#56 = B_SPLINE_CURVE_WITH_KNOTS('',1,(#57,#58,#59,#60,#61,#62,#63,#64,
    #65,#66,#67,#68,#69,#70,#71,#72,#73,#74,#75,#76,#77),.UNSPECIFIED.,
  .F.,.F.,(2,1,1,1,1,1,1,1,1,1,1,1,1,1,1,1,1,1,1,1,2),(0.,
    4.824131889409E-02,5.908013936832E-02,8.264680280225E-02,
    0.160894245355,0.40060049358,0.427765377841,0.46310463102,
    0.510937710902,0.546246739432,0.623477002047,0.723066964005,
    0.741520624221,0.783894191487,0.800053703282,0.818925270521,
    0.855316570471,0.881351642977,0.895056908971,0.935707645558,1.),
  .UNSPECIFIED.);
#57 = CARTESIAN_POINT('',(-0.501673485096,-5.E-02));
#58 = CARTESIAN_POINT('',(-0.453053380035,-5.042364402302E-02));
#59 = CARTESIAN_POINT('',(-0.442800365191,-4.665311323367E-02));
#60 = CARTESIAN_POINT('',(-0.419064043237,-4.7532554744E-02));
#61 = CARTESIAN_POINT('',(-0.340204692661,-4.660312024982E-02));
#62 = CARTESIAN_POINT('',(-9.870613880578E-02,-5.351933157795E-02));
#63 = CARTESIAN_POINT('',(-7.145811038414E-02,-5.084227860061E-02));
#64 = CARTESIAN_POINT('',(-3.587200503685E-02,-5.23512942752E-02));
#65 = CARTESIAN_POINT('',(1.213810667426E-02,-4.79603286291E-02));
#66 = CARTESIAN_POINT('',(4.7717778851E-02,-4.871252637088E-02));
#67 = CARTESIAN_POINT('',(0.125556675445,-4.904854964427E-02));
#68 = CARTESIAN_POINT('',(0.225869565411,-5.260014971744E-02));
#69 = CARTESIAN_POINT('',(0.24446841876,-5.272352987675E-02));
#70 = CARTESIAN_POINT('',(0.286800219668,-4.706813527514E-02));
#71 = CARTESIAN_POINT('',(0.301335853818,-5.441538856738E-02));
#72 = CARTESIAN_POINT('',(0.318493743783,-4.620655337444E-02));
#73 = CARTESIAN_POINT('',(0.354343047742,-5.396122082424E-02));
#74 = CARTESIAN_POINT('',(0.379347956055,-4.60039564565E-02));
#75 = CARTESIAN_POINT('',(0.393063486125,-4.764539811151E-02));
#76 = CARTESIAN_POINT('',(0.433619579361,-5.346478536068E-02));
#77 = CARTESIAN_POINT('',(0.498326514904,-5.E-02));
#78 = ( GEOMETRIC_REPRESENTATION_CONTEXT(2) 
PARAMETRIC_REPRESENTATION_CONTEXT() REPRESENTATION_CONTEXT('2D SPACE',''
  ) );
#79 = ORIENTED_EDGE('',*,*,#80,.T.);
#80 = EDGE_CURVE('',#24,#81,#83,.T.);
#81 = VERTEX_POINT('',#82);
#82 = CARTESIAN_POINT('',(1.,0.1,0.));
#83 = SURFACE_CURVE('',#84,(#88),.PCURVE_S1.);
#84 = LINE('',#85,#86);
#85 = CARTESIAN_POINT('',(1.,-0.,0.));
#86 = VECTOR('',#87,1.);
#87 = DIRECTION('',(0.,1.,0.));
#88 = PCURVE('',#50,#89);
#89 = DEFINITIONAL_REPRESENTATION('',(#90),#94);
#90 = LINE('',#91,#92);
#91 = CARTESIAN_POINT('',(0.498326514904,-5.E-02));
#92 = VECTOR('',#93,1.);
#93 = DIRECTION('',(0.,1.));
#94 = ( GEOMETRIC_REPRESENTATION_CONTEXT(2) 
PARAMETRIC_REPRESENTATION_CONTEXT() REPRESENTATION_CONTEXT('2D SPACE',''
  ) );
#95 = ORIENTED_EDGE('',*,*,#96,.T.);
#96 = EDGE_CURVE('',#81,#97,#99,.T.);
#97 = VERTEX_POINT('',#98);
#98 = CARTESIAN_POINT('',(0.,0.1,0.));
#99 = SURFACE_CURVE('',#100,(#122),.PCURVE_S1.);
#100 = B_SPLINE_CURVE_WITH_KNOTS('',1,(#101,#102,#103,#104,#105,#106,
    #107,#108,#109,#110,#111,#112,#113,#114,#115,#116,#117,#118,#119,
    #120,#121),.UNSPECIFIED.,.F.,.F.,(2,1,1,1,1,1,1,1,1,1,1,1,1,1,1,1,1,
    1,1,1,2),(0.,6.429235444181E-02,0.104943091029,0.118648357023,
    0.144683429529,0.181074729479,0.199946296718,0.216105808513,
    0.258479375779,0.276933035995,0.376522997953,0.453753260568,
    0.489062289098,0.53689536898,0.572234622159,0.59939950642,
    0.839105754645,0.917353197198,0.940919860632,0.951758681106,1.),
  .UNSPECIFIED.);
#101 = CARTESIAN_POINT('',(1.,0.1,0.));
#102 = CARTESIAN_POINT('',(0.935293064456,0.103464785361,0.));
#103 = CARTESIAN_POINT('',(0.89473697122,9.764539811151E-02,0.));
#104 = CARTESIAN_POINT('',(0.88102144115,9.60039564565E-02,0.));
#105 = CARTESIAN_POINT('',(0.856016532837,0.103961220824,0.));
#106 = CARTESIAN_POINT('',(0.820167228879,9.620655337444E-02,0.));
#107 = CARTESIAN_POINT('',(0.803009338914,0.104415388567,0.));
#108 = CARTESIAN_POINT('',(0.788473704764,9.706813527514E-02,0.));
#109 = CARTESIAN_POINT('',(0.746141903855,0.102723529877,0.));
#110 = CARTESIAN_POINT('',(0.727543050507,0.102600149717,0.));
#111 = CARTESIAN_POINT('',(0.627230160541,9.904854964427E-02,0.));
#112 = CARTESIAN_POINT('',(0.549391263947,9.871252637088E-02,0.));
#113 = CARTESIAN_POINT('',(0.51381159177,9.79603286291E-02,0.));
#114 = CARTESIAN_POINT('',(0.465801480059,0.102351294275,0.));
#115 = CARTESIAN_POINT('',(0.430215374711,0.100842278601,0.));
#116 = CARTESIAN_POINT('',(0.40296734629,0.103519331578,0.));
#117 = CARTESIAN_POINT('',(0.161468792435,9.660312024982E-02,0.));
#118 = CARTESIAN_POINT('',(8.260944185871E-02,9.7532554744E-02,0.));
#119 = CARTESIAN_POINT('',(5.887311990415E-02,9.665311323367E-02,0.));
#120 = CARTESIAN_POINT('',(4.862010506016E-02,0.100423644023,0.));
#121 = CARTESIAN_POINT('',(0.,0.1,0.));
#122 = PCURVE('',#50,#123);
#123 = DEFINITIONAL_REPRESENTATION('',(#124),#146);
#124 = B_SPLINE_CURVE_WITH_KNOTS('',1,(#125,#126,#127,#128,#129,#130,
    #131,#132,#133,#134,#135,#136,#137,#138,#139,#140,#141,#142,#143,
    #144,#145),.UNSPECIFIED.,.F.,.F.,(2,1,1,1,1,1,1,1,1,1,1,1,1,1,1,1,1,
    1,1,1,2),(0.,6.429235444181E-02,0.104943091029,0.118648357023,
    0.144683429529,0.181074729479,0.199946296718,0.216105808513,
    0.258479375779,0.276933035995,0.376522997953,0.453753260568,
    0.489062289098,0.53689536898,0.572234622159,0.59939950642,
    0.839105754645,0.917353197198,0.940919860632,0.951758681106,1.),
  .UNSPECIFIED.);
#125 = CARTESIAN_POINT('',(0.498326514904,5.E-02));
#126 = CARTESIAN_POINT('',(0.433619579361,5.346478536068E-02));
#127 = CARTESIAN_POINT('',(0.393063486125,4.764539811151E-02));
#128 = CARTESIAN_POINT('',(0.379347956055,4.60039564565E-02));
#129 = CARTESIAN_POINT('',(0.354343047742,5.396122082424E-02));
#130 = CARTESIAN_POINT('',(0.318493743783,4.620655337444E-02));
#131 = CARTESIAN_POINT('',(0.301335853818,5.441538856738E-02));
#132 = CARTESIAN_POINT('',(0.286800219668,4.706813527514E-02));
#133 = CARTESIAN_POINT('',(0.24446841876,5.272352987675E-02));
#134 = CARTESIAN_POINT('',(0.225869565411,5.260014971744E-02));
#135 = CARTESIAN_POINT('',(0.125556675445,4.904854964427E-02));
#136 = CARTESIAN_POINT('',(4.7717778851E-02,4.871252637088E-02));
#137 = CARTESIAN_POINT('',(1.213810667426E-02,4.79603286291E-02));
#138 = CARTESIAN_POINT('',(-3.587200503685E-02,5.23512942752E-02));
#139 = CARTESIAN_POINT('',(-7.145811038414E-02,5.084227860061E-02));
#140 = CARTESIAN_POINT('',(-9.870613880578E-02,5.351933157795E-02));
#141 = CARTESIAN_POINT('',(-0.340204692661,4.660312024982E-02));
#142 = CARTESIAN_POINT('',(-0.419064043237,4.7532554744E-02));
#143 = CARTESIAN_POINT('',(-0.442800365191,4.665311323367E-02));
#144 = CARTESIAN_POINT('',(-0.453053380035,5.042364402302E-02));
#145 = CARTESIAN_POINT('',(-0.501673485096,5.E-02));
#146 = ( GEOMETRIC_REPRESENTATION_CONTEXT(2) 
PARAMETRIC_REPRESENTATION_CONTEXT() REPRESENTATION_CONTEXT('2D SPACE',''
  ) );
#147 = ORIENTED_EDGE('',*,*,#148,.T.);
#148 = EDGE_CURVE('',#97,#22,#149,.T.);
#149 = SURFACE_CURVE('',#150,(#154),.PCURVE_S1.);
#150 = LINE('',#151,#152);
#151 = CARTESIAN_POINT('',(0.,0.1,0.));
#152 = VECTOR('',#153,1.);
#153 = DIRECTION('',(0.,-1.,0.));
#154 = PCURVE('',#50,#155);
#155 = DEFINITIONAL_REPRESENTATION('',(#156),#160);
#156 = LINE('',#157,#158);
#157 = CARTESIAN_POINT('',(-0.501673485096,5.E-02));
#158 = VECTOR('',#159,1.);
#159 = DIRECTION('',(0.,-1.));
#160 = ( GEOMETRIC_REPRESENTATION_CONTEXT(2) 
PARAMETRIC_REPRESENTATION_CONTEXT() REPRESENTATION_CONTEXT('2D SPACE',''
  ) );
#161 = ( GEOMETRIC_REPRESENTATION_CONTEXT(3) 
GLOBAL_UNCERTAINTY_ASSIGNED_CONTEXT((#165)) GLOBAL_UNIT_ASSIGNED_CONTEXT
((#162,#163,#164)) REPRESENTATION_CONTEXT('Context #1',
  '3D Context with UNIT and UNCERTAINTY') );
#162 = ( LENGTH_UNIT() NAMED_UNIT(*) SI_UNIT(.MILLI.,.METRE.) );
#163 = ( NAMED_UNIT(*) PLANE_ANGLE_UNIT() SI_UNIT($,.RADIAN.) );
#164 = ( NAMED_UNIT(*) SI_UNIT($,.STERADIAN.) SOLID_ANGLE_UNIT() );
#165 = UNCERTAINTY_MEASURE_WITH_UNIT(LENGTH_MEASURE(1.E-07),#162,
  'distance_accuracy_value','confusion accuracy');
#166 = PRODUCT_RELATED_PRODUCT_CATEGORY('part',$,(#7));
ENDSEC;
END-ISO-10303-21;
