ISO-10303-21;
HEADER;
FILE_DESCRIPTION(('Open CASCADE Model'),'2;1');
FILE_NAME('Open CASCADE Shape Model','2026-08-17T20:30:05',('Author'),(
    'Open CASCADE'),'Open CASCADE STEP processor 7.9','Open CASCADE 7.9'
  ,'Unknown');
FILE_SCHEMA(('AUTOMOTIVE_DESIGN { 1 0 10303 214 1 1 1 1 }'));
ENDSEC;
DATA;
#1 = APPLICATION_PROTOCOL_DEFINITION('international standard',
  'automotive_design',2000,#2);
#2 = APPLICATION_CONTEXT(
  'core data for automotive mechanical design processes');
#3 = SHAPE_DEFINITION_REPRESENTATION(#4,#10);
#4 = PRODUCT_DEFINITION_SHAPE('','',#5);
#5 = PRODUCT_DEFINITION('design','',#6,#9);
#6 = PRODUCT_DEFINITION_FORMATION('','',#7);
#7 = PRODUCT('Open CASCADE STEP translator 7.9 79',
  'Open CASCADE STEP translator 7.9 79','',(#8));
#8 = PRODUCT_CONTEXT('',#2,'mechanical');
#9 = PRODUCT_DEFINITION_CONTEXT('part definition',#2,'design');
#10 = MANIFOLD_SURFACE_SHAPE_REPRESENTATION('',(#11,#15),#145);
#11 = AXIS2_PLACEMENT_3D('',#12,#13,#14);
#12 = CARTESIAN_POINT('',(0.,0.,0.));
#13 = DIRECTION('',(0.,0.,1.));
#14 = DIRECTION('',(1.,0.,-0.));
#15 = SHELL_BASED_SURFACE_MODEL('',(#16));
#16 = OPEN_SHELL('',(#17));
#17 = ADVANCED_FACE('',(#18),#46,.T.);
#18 = FACE_BOUND('',#19,.T.);
#19 = EDGE_LOOP('',(#20,#71,#87,#131));
#20 = ORIENTED_EDGE('',*,*,#21,.T.);
#21 = EDGE_CURVE('',#22,#24,#26,.T.);
#22 = VERTEX_POINT('',#23);
#23 = CARTESIAN_POINT('',(0.,0.,0.));
#24 = VERTEX_POINT('',#25);
#25 = CARTESIAN_POINT('',(1.,0.,0.));
#26 = SURFACE_CURVE('',#27,(#45),.PCURVE_S1.);
#27 = B_SPLINE_CURVE_WITH_KNOTS('',1,(#28,#29,#30,#31,#32,#33,#34,#35,
    #36,#37,#38,#39,#40,#41,#42,#43,#44),.UNSPECIFIED.,.F.,.F.,(2,1,1,1,
    1,1,1,1,1,1,1,1,1,1,1,1,2),(0.,7.48768349613E-02,0.173415217677,
    0.20844312345,0.278086537601,0.422391962361,0.457404070234,
    0.545873734224,0.560474455606,0.652808364947,0.679642506552,
    0.710928350212,0.741975561136,0.857721211584,0.877452734225,
    0.894110620027,1.),.UNSPECIFIED.);
#28 = CARTESIAN_POINT('',(0.,-0.,0.));
#29 = CARTESIAN_POINT('',(7.498960414306E-02,3.776945165616E-03,0.));
#30 = CARTESIAN_POINT('',(0.173795288581,2.670379468514E-03,0.));
#31 = CARTESIAN_POINT('',(0.208406595016,-3.315607605251E-03,0.));
#32 = CARTESIAN_POINT('',(0.278228765401,-1.890485813769E-03,0.));
#33 = CARTESIAN_POINT('',(0.422925397703,-3.532725935377E-03,0.));
#34 = CARTESIAN_POINT('',(0.458008443126,-4.889878219611E-03,0.));
#35 = CARTESIAN_POINT('',(0.546658391598,-1.487505219778E-03,0.));
#36 = CARTESIAN_POINT('',(0.560036737702,4.461103950903E-03,0.));
#37 = CARTESIAN_POINT('',(0.652623385415,3.651596929073E-03,0.));
#38 = CARTESIAN_POINT('',(0.679524197921,3.003389448166E-03,0.));
#39 = CARTESIAN_POINT('',(0.710871095737,4.274996886485E-03,0.));
#40 = CARTESIAN_POINT('',(0.741617784522,-6.167026219674E-04,0.));
#41 = CARTESIAN_POINT('',(0.857677943583,-1.868347013577E-03,0.));
#42 = CARTESIAN_POINT('',(0.877234723485,1.136577166766E-03,0.));
#43 = CARTESIAN_POINT('',(0.893854095003,2.817093139248E-03,0.));
#44 = CARTESIAN_POINT('',(1.,-0.,0.));
#45 = PCURVE('',#46,#51);
#46 = PLANE('',#47);
#47 = AXIS2_PLACEMENT_3D('',#48,#49,#50);
#48 = CARTESIAN_POINT('',(0.500080501781,3.125E-02,0.));
#49 = DIRECTION('',(0.,0.,1.));
#50 = DIRECTION('',(1.,0.,-0.));
#51 = DEFINITIONAL_REPRESENTATION('',(#52),#70);
#52 = B_SPLINE_CURVE_WITH_KNOTS('',1,(#53,#54,#55,#56,#57,#58,#59,#60,
    #61,#62,#63,#64,#65,#66,#67,#68,#69),.UNSPECIFIED.,.F.,.F.,(2,1,1,1,
    1,1,1,1,1,1,1,1,1,1,1,1,2),(0.,7.48768349613E-02,0.173415217677,
    0.20844312345,0.278086537601,0.422391962361,0.457404070234,
    0.545873734224,0.560474455606,0.652808364947,0.679642506552,
    0.710928350212,0.741975561136,0.857721211584,0.877452734225,
    0.894110620027,1.),.UNSPECIFIED.);
#53 = CARTESIAN_POINT('',(-0.500080501781,-3.125E-02));
#54 = CARTESIAN_POINT('',(-0.425090897638,-2.747305483438E-02));
#55 = CARTESIAN_POINT('',(-0.3262852132,-2.857962053149E-02));
#56 = CARTESIAN_POINT('',(-0.291673906765,-3.456560760525E-02));
#57 = CARTESIAN_POINT('',(-0.22185173638,-3.314048581377E-02));
#58 = CARTESIAN_POINT('',(-7.715510407829E-02,-3.478272593538E-02));
#59 = CARTESIAN_POINT('',(-4.207205865524E-02,-3.613987821961E-02));
#60 = CARTESIAN_POINT('',(4.65778898171E-02,-3.273750521978E-02));
#61 = CARTESIAN_POINT('',(5.995623592134E-02,-2.67888960491E-02));
#62 = CARTESIAN_POINT('',(0.152542883634,-2.759840307093E-02));
#63 = CARTESIAN_POINT('',(0.17944369614,-2.824661055183E-02));
#64 = CARTESIAN_POINT('',(0.210790593956,-2.697500311351E-02));
#65 = CARTESIAN_POINT('',(0.241537282741,-3.186670262197E-02));
#66 = CARTESIAN_POINT('',(0.357597441803,-3.311834701358E-02));
#67 = CARTESIAN_POINT('',(0.377154221705,-3.011342283323E-02));
#68 = CARTESIAN_POINT('',(0.393773593222,-2.843290686075E-02));
#69 = CARTESIAN_POINT('',(0.499919498219,-3.125E-02));
#70 = ( GEOMETRIC_REPRESENTATION_CONTEXT(2) 
PARAMETRIC_REPRESENTATION_CONTEXT() REPRESENTATION_CONTEXT('2D SPACE',''
  ) );
#71 = ORIENTED_EDGE('',*,*,#72,.T.);
#72 = EDGE_CURVE('',#24,#73,#75,.T.);
#73 = VERTEX_POINT('',#74);
#74 = CARTESIAN_POINT('',(1.,6.25E-02,0.));
#75 = SURFACE_CURVE('',#76,(#80),.PCURVE_S1.);
#76 = LINE('',#77,#78);
#77 = CARTESIAN_POINT('',(1.,-0.,0.));
#78 = VECTOR('',#79,1.);
#79 = DIRECTION('',(0.,1.,0.));
#80 = PCURVE('',#46,#81);
#81 = DEFINITIONAL_REPRESENTATION('',(#82),#86);
#82 = LINE('',#83,#84);
#83 = CARTESIAN_POINT('',(0.499919498219,-3.125E-02));
#84 = VECTOR('',#85,1.);
#85 = DIRECTION('',(0.,1.));
#86 = ( GEOMETRIC_REPRESENTATION_CONTEXT(2) 
PARAMETRIC_REPRESENTATION_CONTEXT() REPRESENTATION_CONTEXT('2D SPACE',''
  ) );
#87 = ORIENTED_EDGE('',*,*,#88,.T.);
#88 = EDGE_CURVE('',#73,#89,#91,.T.);
#89 = VERTEX_POINT('',#90);
#90 = CARTESIAN_POINT('',(0.,6.25E-02,0.));
#91 = SURFACE_CURVE('',#92,(#110),.PCURVE_S1.);
#92 = B_SPLINE_CURVE_WITH_KNOTS('',1,(#93,#94,#95,#96,#97,#98,#99,#100,
    #101,#102,#103,#104,#105,#106,#107,#108,#109),.UNSPECIFIED.,.F.,.F.,
  (2,1,1,1,1,1,1,1,1,1,1,1,1,1,1,1,2),(0.,0.105889379973,0.122547265775,
    0.142278788416,0.258024438864,0.289071649788,0.320357493448,
    0.347191635053,0.439525544394,0.454126265776,0.542595929766,
    0.577608037639,0.721913462399,0.79155687655,0.826584782323,
    0.925123165039,1.),.UNSPECIFIED.);
#93 = CARTESIAN_POINT('',(1.,6.25E-02,0.));
#94 = CARTESIAN_POINT('',(0.893854095003,5.968290686075E-02,0.));
#95 = CARTESIAN_POINT('',(0.877234723485,6.136342283323E-02,0.));
#96 = CARTESIAN_POINT('',(0.857677943583,6.436834701358E-02,0.));
#97 = CARTESIAN_POINT('',(0.741617784522,6.311670262197E-02,0.));
#98 = CARTESIAN_POINT('',(0.710871095737,5.822500311351E-02,0.));
#99 = CARTESIAN_POINT('',(0.679524197921,5.949661055183E-02,0.));
#100 = CARTESIAN_POINT('',(0.652623385415,5.884840307093E-02,0.));
#101 = CARTESIAN_POINT('',(0.560036737702,5.80388960491E-02,0.));
#102 = CARTESIAN_POINT('',(0.546658391598,6.398750521978E-02,0.));
#103 = CARTESIAN_POINT('',(0.458008443126,6.738987821961E-02,0.));
#104 = CARTESIAN_POINT('',(0.422925397703,6.603272593538E-02,0.));
#105 = CARTESIAN_POINT('',(0.278228765401,6.439048581377E-02,0.));
#106 = CARTESIAN_POINT('',(0.208406595016,6.581560760525E-02,0.));
#107 = CARTESIAN_POINT('',(0.173795288581,5.982962053149E-02,0.));
#108 = CARTESIAN_POINT('',(7.498960414306E-02,5.872305483438E-02,0.));
#109 = CARTESIAN_POINT('',(0.,6.25E-02,0.));
#110 = PCURVE('',#46,#111);
#111 = DEFINITIONAL_REPRESENTATION('',(#112),#130);
#112 = B_SPLINE_CURVE_WITH_KNOTS('',1,(#113,#114,#115,#116,#117,#118,
    #119,#120,#121,#122,#123,#124,#125,#126,#127,#128,#129),
  .UNSPECIFIED.,.F.,.F.,(2,1,1,1,1,1,1,1,1,1,1,1,1,1,1,1,2),(0.,
    0.105889379973,0.122547265775,0.142278788416,0.258024438864,
    0.289071649788,0.320357493448,0.347191635053,0.439525544394,
    0.454126265776,0.542595929766,0.577608037639,0.721913462399,
    0.79155687655,0.826584782323,0.925123165039,1.),.UNSPECIFIED.);
#113 = CARTESIAN_POINT('',(0.499919498219,3.125E-02));
#114 = CARTESIAN_POINT('',(0.393773593222,2.843290686075E-02));
#115 = CARTESIAN_POINT('',(0.377154221705,3.011342283323E-02));
#116 = CARTESIAN_POINT('',(0.357597441803,3.311834701358E-02));
#117 = CARTESIAN_POINT('',(0.241537282741,3.186670262197E-02));
#118 = CARTESIAN_POINT('',(0.210790593956,2.697500311351E-02));
#119 = CARTESIAN_POINT('',(0.17944369614,2.824661055183E-02));
#120 = CARTESIAN_POINT('',(0.152542883634,2.759840307093E-02));
#121 = CARTESIAN_POINT('',(5.995623592134E-02,2.67888960491E-02));
#122 = CARTESIAN_POINT('',(4.65778898171E-02,3.273750521978E-02));
#123 = CARTESIAN_POINT('',(-4.207205865524E-02,3.613987821961E-02));
#124 = CARTESIAN_POINT('',(-7.715510407829E-02,3.478272593538E-02));
#125 = CARTESIAN_POINT('',(-0.22185173638,3.314048581377E-02));
#126 = CARTESIAN_POINT('',(-0.291673906765,3.456560760525E-02));
#127 = CARTESIAN_POINT('',(-0.3262852132,2.857962053149E-02));
#128 = CARTESIAN_POINT('',(-0.425090897638,2.747305483438E-02));
#129 = CARTESIAN_POINT('',(-0.500080501781,3.125E-02));
#130 = ( GEOMETRIC_REPRESENTATION_CONTEXT(2) 
PARAMETRIC_REPRESENTATION_CONTEXT() REPRESENTATION_CONTEXT('2D SPACE',''
  ) );
#131 = ORIENTED_EDGE('',*,*,#132,.T.);
#132 = EDGE_CURVE('',#89,#22,#133,.T.);
#133 = SURFACE_CURVE('',#134,(#138),.PCURVE_S1.);
#134 = LINE('',#135,#136);
#135 = CARTESIAN_POINT('',(0.,6.25E-02,0.));
#136 = VECTOR('',#137,1.);
#137 = DIRECTION('',(0.,-1.,0.));
#138 = PCURVE('',#46,#139);
#139 = DEFINITIONAL_REPRESENTATION('',(#140),#144);
#140 = LINE('',#141,#142);
#141 = CARTESIAN_POINT('',(-0.500080501781,3.125E-02));
#142 = VECTOR('',#143,1.);
#143 = DIRECTION('',(0.,-1.));
#144 = ( GEOMETRIC_REPRESENTATION_CONTEXT(2) 
PARAMETRIC_REPRESENTATION_CONTEXT() REPRESENTATION_CONTEXT('2D SPACE',''
  ) );
#145 = ( GEOMETRIC_REPRESENTATION_CONTEXT(3) 
GLOBAL_UNCERTAINTY_ASSIGNED_CONTEXT((#149)) GLOBAL_UNIT_ASSIGNED_CONTEXT
((#146,#147,#148)) REPRESENTATION_CONTEXT('Context #1',
  '3D Context with UNIT and UNCERTAINTY') );
#146 = ( LENGTH_UNIT() NAMED_UNIT(*) SI_UNIT(.MILLI.,.METRE.) );
#147 = ( NAMED_UNIT(*) PLANE_ANGLE_UNIT() SI_UNIT($,.RADIAN.) );
#148 = ( NAMED_UNIT(*) SI_UNIT($,.STERADIAN.) SOLID_ANGLE_UNIT() );
#149 = UNCERTAINTY_MEASURE_WITH_UNIT(LENGTH_MEASURE(1.E-07),#146,
  'distance_accuracy_value','confusion accuracy');
#150 = PRODUCT_RELATED_PRODUCT_CATEGORY('part',$,(#7));
ENDSEC;
END-ISO-10303-21;
