ISO-10303-21;
HEADER;
FILE_DESCRIPTION(('Open CASCADE Model'),'2;1');
FILE_NAME('Open CASCADE Shape Model','2026-07-21T00:13:23',('Author'),(
    'Open CASCADE'),'Open CASCADE STEP processor 7.9','Open CASCADE 7.9'
  ,'Unknown');
FILE_SCHEMA(('AUTOMOTIVE_DESIGN { 1 0 10303 214 1 1 1 1 }'));
ENDSEC;
DATA;
#1 = APPLICATION_PROTOCOL_DEFINITION('international standard',
  'automotive_design',2000,#2);
#2 = APPLICATION_CONTEXT(
  'core data for automotive mechanical design processes');
#3 = SHAPE_DEFINITION_REPRESENTATION(#4,#10);
#4 = PRODUCT_DEFINITION_SHAPE('','',#5);
#5 = PRODUCT_DEFINITION('design','',#6,#9);
#6 = PRODUCT_DEFINITION_FORMATION('','',#7);
#7 = PRODUCT('Open CASCADE STEP translator 7.9 17',
  'Open CASCADE STEP translator 7.9 17','',(#8));
#8 = PRODUCT_CONTEXT('',#2,'mechanical');
#9 = PRODUCT_DEFINITION_CONTEXT('part definition',#2,'design');
#10 = MANIFOLD_SURFACE_SHAPE_REPRESENTATION('',(#11,#15),#161);
#11 = AXIS2_PLACEMENT_3D('',#12,#13,#14);
#12 = CARTESIAN_POINT('',(0.,0.,0.));
#13 = DIRECTION('',(0.,0.,1.));
#14 = DIRECTION('',(1.,0.,-0.));
#15 = SHELL_BASED_SURFACE_MODEL('',(#16));
#16 = OPEN_SHELL('',(#17));
#17 = ADVANCED_FACE('',(#18),#50,.T.);
#18 = FACE_BOUND('',#19,.T.);
#19 = EDGE_LOOP('',(#20,#79,#95,#147));
#20 = ORIENTED_EDGE('',*,*,#21,.T.);
#21 = EDGE_CURVE('',#22,#24,#26,.T.);
#22 = VERTEX_POINT('',#23);
#23 = CARTESIAN_POINT('',(0.,0.,0.));
#24 = VERTEX_POINT('',#25);
#25 = CARTESIAN_POINT('',(2.,0.,0.));
#26 = SURFACE_CURVE('',#27,(#49),.PCURVE_S1.);
#27 = B_SPLINE_CURVE_WITH_KNOTS('',1,(#28,#29,#30,#31,#32,#33,#34,#35,
    #36,#37,#38,#39,#40,#41,#42,#43,#44,#45,#46,#47,#48),.UNSPECIFIED.,
  .F.,.F.,(2,1,1,1,1,1,1,1,1,1,1,1,1,1,1,1,1,1,1,1,2),(0.,
    4.486942132961E-02,9.85182856382E-02,0.114001815303,0.141025624318,
    0.198629501692,0.24601685252,0.26475188441,0.388120719193,
    0.399524446433,0.450158767423,0.463722787829,0.563416706954,
    0.576656715833,0.643292367839,0.659975240237,0.835763954036,
    0.866857228304,0.919714951956,0.965546325979,1.),.UNSPECIFIED.);
#28 = CARTESIAN_POINT('',(0.,-0.,0.));
#29 = CARTESIAN_POINT('',(8.971533122124E-02,-4.460270628173E-03,0.));
#30 = CARTESIAN_POINT('',(0.196893855197,2.466166461608E-03,0.));
#31 = CARTESIAN_POINT('',(0.227707636713,-9.007589535831E-04,0.));
#32 = CARTESIAN_POINT('',(0.281580874054,4.049508024356E-03,0.));
#33 = CARTESIAN_POINT('',(0.396782893388,-1.161657000241E-03,0.));
#34 = CARTESIAN_POINT('',(0.491545418362,3.287086959072E-03,0.));
#35 = CARTESIAN_POINT('',(0.528844771249,-6.495061147244E-04,0.));
#36 = CARTESIAN_POINT('',(0.775822442643,-7.243051403385E-04,0.));
#37 = CARTESIAN_POINT('',(0.798627253909,3.401484701877E-04,0.));
#38 = CARTESIAN_POINT('',(0.899992821793,-2.263177551312E-04,0.));
#39 = CARTESIAN_POINT('',(0.927039834156,-2.639233900066E-03,0.));
#40 = CARTESIAN_POINT('',(1.126621313635,-2.992447165121E-03,0.));
#41 = CARTESIAN_POINT('',(1.152948593165,7.846784424571E-05,0.));
#42 = CARTESIAN_POINT('',(1.286345209692,-9.959344152261E-04,0.));
#43 = CARTESIAN_POINT('',(1.319578342995,-4.312362356901E-03,0.));
#44 = CARTESIAN_POINT('',(1.671404190251,3.802664114989E-03,0.));
#45 = CARTESIAN_POINT('',(1.733651224966,3.828964340999E-03,0.));
#46 = CARTESIAN_POINT('',(1.839469098313,4.122909880892E-03,0.));
#47 = CARTESIAN_POINT('',(1.931043690228,-1.578632850405E-03,0.));
#48 = CARTESIAN_POINT('',(2.,-0.,0.));
#49 = PCURVE('',#50,#55);
#50 = PLANE('',#51);
#51 = AXIS2_PLACEMENT_3D('',#52,#53,#54);
#52 = CARTESIAN_POINT('',(0.99973067243,5.E-02,0.));
#53 = DIRECTION('',(0.,0.,1.));
#54 = DIRECTION('',(1.,0.,-0.));
#55 = DEFINITIONAL_REPRESENTATION('',(#56),#78);
#56 = B_SPLINE_CURVE_WITH_KNOTS('',1,(#57,#58,#59,#60,#61,#62,#63,#64,
    #65,#66,#67,#68,#69,#70,#71,#72,#73,#74,#75,#76,#77),.UNSPECIFIED.,
  .F.,.F.,(2,1,1,1,1,1,1,1,1,1,1,1,1,1,1,1,1,1,1,1,2),(0.,
    4.486942132961E-02,9.85182856382E-02,0.114001815303,0.141025624318,
    0.198629501692,0.24601685252,0.26475188441,0.388120719193,
    0.399524446433,0.450158767423,0.463722787829,0.563416706954,
    0.576656715833,0.643292367839,0.659975240237,0.835763954036,
    0.866857228304,0.919714951956,0.965546325979,1.),.UNSPECIFIED.);
#57 = CARTESIAN_POINT('',(-0.99973067243,-5.E-02));
#58 = CARTESIAN_POINT('',(-0.910015341209,-5.446027062817E-02));
#59 = CARTESIAN_POINT('',(-0.802836817234,-4.753383353839E-02));
#60 = CARTESIAN_POINT('',(-0.772023035717,-5.090075895358E-02));
#61 = CARTESIAN_POINT('',(-0.718149798377,-4.595049197564E-02));
#62 = CARTESIAN_POINT('',(-0.602947779043,-5.116165700024E-02));
#63 = CARTESIAN_POINT('',(-0.508185254068,-4.671291304093E-02));
#64 = CARTESIAN_POINT('',(-0.470885901181,-5.064950611472E-02));
#65 = CARTESIAN_POINT('',(-0.223908229788,-5.072430514034E-02));
#66 = CARTESIAN_POINT('',(-0.201103418522,-4.965985152981E-02));
#67 = CARTESIAN_POINT('',(-9.973785063752E-02,-5.022631775513E-02));
#68 = CARTESIAN_POINT('',(-7.269083827453E-02,-5.263923390007E-02));
#69 = CARTESIAN_POINT('',(0.126890641205,-5.299244716512E-02));
#70 = CARTESIAN_POINT('',(0.153217920735,-4.992153215575E-02));
#71 = CARTESIAN_POINT('',(0.286614537262,-5.099593441523E-02));
#72 = CARTESIAN_POINT('',(0.319847670565,-5.43123623569E-02));
#73 = CARTESIAN_POINT('',(0.671673517821,-4.619733588501E-02));
#74 = CARTESIAN_POINT('',(0.733920552535,-4.6171035659E-02));
#75 = CARTESIAN_POINT('',(0.839738425883,-4.587709011911E-02));
#76 = CARTESIAN_POINT('',(0.931313017797,-5.157863285041E-02));
#77 = CARTESIAN_POINT('',(1.00026932757,-5.E-02));
#78 = ( GEOMETRIC_REPRESENTATION_CONTEXT(2) 
PARAMETRIC_REPRESENTATION_CONTEXT() REPRESENTATION_CONTEXT('2D SPACE',''
  ) );
#79 = ORIENTED_EDGE('',*,*,#80,.T.);
#80 = EDGE_CURVE('',#24,#81,#83,.T.);
#81 = VERTEX_POINT('',#82);
#82 = CARTESIAN_POINT('',(2.,0.1,0.));
#83 = SURFACE_CURVE('',#84,(#88),.PCURVE_S1.);
#84 = LINE('',#85,#86);
#85 = CARTESIAN_POINT('',(2.,-0.,0.));
#86 = VECTOR('',#87,1.);
#87 = DIRECTION('',(0.,1.,0.));
#88 = PCURVE('',#50,#89);
#89 = DEFINITIONAL_REPRESENTATION('',(#90),#94);
#90 = LINE('',#91,#92);
#91 = CARTESIAN_POINT('',(1.00026932757,-5.E-02));
#92 = VECTOR('',#93,1.);
#93 = DIRECTION('',(0.,1.));
#94 = ( GEOMETRIC_REPRESENTATION_CONTEXT(2) 
PARAMETRIC_REPRESENTATION_CONTEXT() REPRESENTATION_CONTEXT('2D SPACE',''
  ) );
#95 = ORIENTED_EDGE('',*,*,#96,.T.);
#96 = EDGE_CURVE('',#81,#97,#99,.T.);
#97 = VERTEX_POINT('',#98);
#98 = CARTESIAN_POINT('',(0.,0.1,0.));
#99 = SURFACE_CURVE('',#100,(#122),.PCURVE_S1.);
#100 = B_SPLINE_CURVE_WITH_KNOTS('',1,(#101,#102,#103,#104,#105,#106,
    #107,#108,#109,#110,#111,#112,#113,#114,#115,#116,#117,#118,#119,
    #120,#121),.UNSPECIFIED.,.F.,.F.,(2,1,1,1,1,1,1,1,1,1,1,1,1,1,1,1,1,
    1,1,1,2),(0.,3.445367402117E-02,8.028504804406E-02,0.133142771696,
    0.164236045964,0.340024759763,0.356707632161,0.423343284167,
    0.436583293046,0.536277212171,0.549841232577,0.600475553567,
    0.611879280807,0.73524811559,0.75398314748,0.801370498308,
    0.858974375682,0.885998184697,0.901481714362,0.95513057867,1.),
  .UNSPECIFIED.);
#101 = CARTESIAN_POINT('',(2.,0.1,0.));
#102 = CARTESIAN_POINT('',(1.931043690228,0.10157863285,0.));
#103 = CARTESIAN_POINT('',(1.839469098313,9.587709011911E-02,0.));
#104 = CARTESIAN_POINT('',(1.733651224966,9.6171035659E-02,0.));
#105 = CARTESIAN_POINT('',(1.671404190251,9.619733588501E-02,0.));
#106 = CARTESIAN_POINT('',(1.319578342995,0.104312362357,0.));
#107 = CARTESIAN_POINT('',(1.286345209692,0.100995934415,0.));
#108 = CARTESIAN_POINT('',(1.152948593165,9.992153215575E-02,0.));
#109 = CARTESIAN_POINT('',(1.126621313635,0.102992447165,0.));
#110 = CARTESIAN_POINT('',(0.927039834156,0.1026392339,0.));
#111 = CARTESIAN_POINT('',(0.899992821793,0.100226317755,0.));
#112 = CARTESIAN_POINT('',(0.798627253909,9.965985152981E-02,0.));
#113 = CARTESIAN_POINT('',(0.775822442643,0.10072430514,0.));
#114 = CARTESIAN_POINT('',(0.528844771249,0.100649506115,0.));
#115 = CARTESIAN_POINT('',(0.491545418362,9.671291304093E-02,0.));
#116 = CARTESIAN_POINT('',(0.396782893388,0.101161657,0.));
#117 = CARTESIAN_POINT('',(0.281580874054,9.595049197564E-02,0.));
#118 = CARTESIAN_POINT('',(0.227707636713,0.100900758954,0.));
#119 = CARTESIAN_POINT('',(0.196893855197,9.753383353839E-02,0.));
#120 = CARTESIAN_POINT('',(8.971533122124E-02,0.104460270628,0.));
#121 = CARTESIAN_POINT('',(0.,0.1,0.));
#122 = PCURVE('',#50,#123);
#123 = DEFINITIONAL_REPRESENTATION('',(#124),#146);
#124 = B_SPLINE_CURVE_WITH_KNOTS('',1,(#125,#126,#127,#128,#129,#130,
    #131,#132,#133,#134,#135,#136,#137,#138,#139,#140,#141,#142,#143,
    #144,#145),.UNSPECIFIED.,.F.,.F.,(2,1,1,1,1,1,1,1,1,1,1,1,1,1,1,1,1,
    1,1,1,2),(0.,3.445367402117E-02,8.028504804406E-02,0.133142771696,
    0.164236045964,0.340024759763,0.356707632161,0.423343284167,
    0.436583293046,0.536277212171,0.549841232577,0.600475553567,
    0.611879280807,0.73524811559,0.75398314748,0.801370498308,
    0.858974375682,0.885998184697,0.901481714362,0.95513057867,1.),
  .UNSPECIFIED.);
#125 = CARTESIAN_POINT('',(1.00026932757,5.E-02));
#126 = CARTESIAN_POINT('',(0.931313017797,5.157863285041E-02));
#127 = CARTESIAN_POINT('',(0.839738425883,4.587709011911E-02));
#128 = CARTESIAN_POINT('',(0.733920552535,4.6171035659E-02));
#129 = CARTESIAN_POINT('',(0.671673517821,4.619733588501E-02));
#130 = CARTESIAN_POINT('',(0.319847670565,5.43123623569E-02));
#131 = CARTESIAN_POINT('',(0.286614537262,5.099593441523E-02));
#132 = CARTESIAN_POINT('',(0.153217920735,4.992153215575E-02));
#133 = CARTESIAN_POINT('',(0.126890641205,5.299244716512E-02));
#134 = CARTESIAN_POINT('',(-7.269083827453E-02,5.263923390007E-02));
#135 = CARTESIAN_POINT('',(-9.973785063752E-02,5.022631775513E-02));
#136 = CARTESIAN_POINT('',(-0.201103418522,4.965985152981E-02));
#137 = CARTESIAN_POINT('',(-0.223908229788,5.072430514034E-02));
#138 = CARTESIAN_POINT('',(-0.470885901181,5.064950611472E-02));
#139 = CARTESIAN_POINT('',(-0.508185254068,4.671291304093E-02));
#140 = CARTESIAN_POINT('',(-0.602947779043,5.116165700024E-02));
#141 = CARTESIAN_POINT('',(-0.718149798377,4.595049197564E-02));
#142 = CARTESIAN_POINT('',(-0.772023035717,5.090075895358E-02));
#143 = CARTESIAN_POINT('',(-0.802836817234,4.753383353839E-02));
#144 = CARTESIAN_POINT('',(-0.910015341209,5.446027062817E-02));
#145 = CARTESIAN_POINT('',(-0.99973067243,5.E-02));
#146 = ( GEOMETRIC_REPRESENTATION_CONTEXT(2) 
PARAMETRIC_REPRESENTATION_CONTEXT() REPRESENTATION_CONTEXT('2D SPACE',''
  ) );
#147 = ORIENTED_EDGE('',*,*,#148,.T.);
#148 = EDGE_CURVE('',#97,#22,#149,.T.);
#149 = SURFACE_CURVE('',#150,(#154),.PCURVE_S1.);
#150 = LINE('',#151,#152);
#151 = CARTESIAN_POINT('',(0.,0.1,0.));
#152 = VECTOR('',#153,1.);
#153 = DIRECTION('',(0.,-1.,0.));
#154 = PCURVE('',#50,#155);
#155 = DEFINITIONAL_REPRESENTATION('',(#156),#160);
#156 = LINE('',#157,#158);
#157 = CARTESIAN_POINT('',(-0.99973067243,5.E-02));
#158 = VECTOR('',#159,1.);
#159 = DIRECTION('',(0.,-1.));
#160 = ( GEOMETRIC_REPRESENTATION_CONTEXT(2) 
PARAMETRIC_REPRESENTATION_CONTEXT() REPRESENTATION_CONTEXT('2D SPACE',''
  ) );
#161 = ( GEOMETRIC_REPRESENTATION_CONTEXT(3) 
GLOBAL_UNCERTAINTY_ASSIGNED_CONTEXT((#165)) GLOBAL_UNIT_ASSIGNED_CONTEXT
((#162,#163,#164)) REPRESENTATION_CONTEXT('Context #1',
  '3D Context with UNIT and UNCERTAINTY') );
#162 = ( LENGTH_UNIT() NAMED_UNIT(*) SI_UNIT(.MILLI.,.METRE.) );
#163 = ( NAMED_UNIT(*) PLANE_ANGLE_UNIT() SI_UNIT($,.RADIAN.) );
#164 = ( NAMED_UNIT(*) SI_UNIT($,.STERADIAN.) SOLID_ANGLE_UNIT() );
#165 = UNCERTAINTY_MEASURE_WITH_UNIT(LENGTH_MEASURE(1.E-07),#162,
  'distance_accuracy_value','confusion accuracy');
#166 = PRODUCT_RELATED_PRODUCT_CATEGORY('part',$,(#7));
ENDSEC;
END-ISO-10303-21;
