ISO-10303-21;
HEADER;
FILE_DESCRIPTION(('Open CASCADE Model'),'2;1');
FILE_NAME('Open CASCADE Shape Model','2026-07-23T16:45:03',('Author'),(
    'Open CASCADE'),'Open CASCADE STEP processor 7.9','Open CASCADE 7.9'
  ,'Unknown');
FILE_SCHEMA(('AUTOMOTIVE_DESIGN { 1 0 10303 214 1 1 1 1 }'));
ENDSEC;
DATA;
#1 = APPLICATION_PROTOCOL_DEFINITION('international standard',
  'automotive_design',2000,#2);
#2 = APPLICATION_CONTEXT(
  'core data for automotive mechanical design processes');
#3 = SHAPE_DEFINITION_REPRESENTATION(#4,#10);
#4 = PRODUCT_DEFINITION_SHAPE('','',#5);
#5 = PRODUCT_DEFINITION('design','',#6,#9);
#6 = PRODUCT_DEFINITION_FORMATION('','',#7);
#7 = PRODUCT('Open CASCADE STEP translator 7.9 18',
  'Open CASCADE STEP translator 7.9 18','',(#8));
#8 = PRODUCT_CONTEXT('',#2,'mechanical');
#9 = PRODUCT_DEFINITION_CONTEXT('part definition',#2,'design');
#10 = MANIFOLD_SURFACE_SHAPE_REPRESENTATION('',(#11,#15),#161);
#11 = AXIS2_PLACEMENT_3D('',#12,#13,#14);
#12 = CARTESIAN_POINT('',(0.,0.,0.));
#13 = DIRECTION('',(0.,0.,1.));
#14 = DIRECTION('',(1.,0.,-0.));
#15 = SHELL_BASED_SURFACE_MODEL('',(#16));
#16 = OPEN_SHELL('',(#17));
#17 = ADVANCED_FACE('',(#18),#50,.T.);
#18 = FACE_BOUND('',#19,.T.);
#19 = EDGE_LOOP('',(#20,#79,#95,#147));
#20 = ORIENTED_EDGE('',*,*,#21,.T.);
#21 = EDGE_CURVE('',#22,#24,#26,.T.);
#22 = VERTEX_POINT('',#23);
#23 = CARTESIAN_POINT('',(0.,0.,0.));
#24 = VERTEX_POINT('',#25);
#25 = CARTESIAN_POINT('',(1.,0.,0.));
#26 = SURFACE_CURVE('',#27,(#49),.PCURVE_S1.);
#27 = B_SPLINE_CURVE_WITH_KNOTS('',1,(#28,#29,#30,#31,#32,#33,#34,#35,
    #36,#37,#38,#39,#40,#41,#42,#43,#44,#45,#46,#47,#48),.UNSPECIFIED.,
  .F.,.F.,(2,1,1,1,1,1,1,1,1,1,1,1,1,1,1,1,1,1,1,1,2),(0.,
    1.786391272475E-02,6.837299476871E-02,0.150605404126,0.167013137987,
    0.207776390146,0.300673632474,0.327494283002,0.35348077914,
    0.384533588242,0.402307405958,0.418556952015,0.527349504371,
    0.613785326207,0.642477300617,0.662685316705,0.715370448166,
    0.863688166997,0.942543917318,0.968779715722,1.),.UNSPECIFIED.);
#28 = CARTESIAN_POINT('',(0.,-0.,0.));
#29 = CARTESIAN_POINT('',(1.733849286047E-02,-4.866315449243E-03,0.));
#30 = CARTESIAN_POINT('',(6.818521358588E-02,-2.177602360036E-03,0.));
#31 = CARTESIAN_POINT('',(0.151050105144,-4.511946600038E-03,0.));
#32 = CARTESIAN_POINT('',(0.165341579863,3.81521422783E-03,0.));
#33 = CARTESIAN_POINT('',(0.205777334739,-3.505336791908E-03,0.));
#34 = CARTESIAN_POINT('',(0.299401892634,-1.370738839912E-03,0.));
#35 = CARTESIAN_POINT('',(0.3259442534,3.780783216649E-03,0.));
#36 = CARTESIAN_POINT('',(0.351722599374,-8.825799996922E-04,0.));
#37 = CARTESIAN_POINT('',(0.383011368648,-1.860963651054E-03,0.));
#38 = CARTESIAN_POINT('',(0.399613826863,4.876973141114E-03,0.));
#39 = CARTESIAN_POINT('',(0.41538722813,4.568203815825E-04,0.));
#40 = CARTESIAN_POINT('',(0.524997242,-3.253995111963E-03,0.));
#41 = CARTESIAN_POINT('',(0.61197106945,2.046409746559E-03,0.));
#42 = CARTESIAN_POINT('',(0.640849123098,4.145191820145E-04,0.));
#43 = CARTESIAN_POINT('',(0.661219998606,5.768587293211E-04,0.));
#44 = CARTESIAN_POINT('',(0.714312856732,1.980726085575E-03,0.));
#45 = CARTESIAN_POINT('',(0.863703478383,-4.184418955156E-03,0.));
#46 = CARTESIAN_POINT('',(0.943185431403,-2.812940354315E-03,0.));
#47 = CARTESIAN_POINT('',(0.968768944505,3.894115890039E-03,0.));
#48 = CARTESIAN_POINT('',(1.,-0.,0.));
#49 = PCURVE('',#50,#55);
#50 = PLANE('',#51);
#51 = AXIS2_PLACEMENT_3D('',#52,#53,#54);
#52 = CARTESIAN_POINT('',(0.498917070749,2.5E-02,0.));
#53 = DIRECTION('',(0.,0.,1.));
#54 = DIRECTION('',(1.,0.,-0.));
#55 = DEFINITIONAL_REPRESENTATION('',(#56),#78);
#56 = B_SPLINE_CURVE_WITH_KNOTS('',1,(#57,#58,#59,#60,#61,#62,#63,#64,
    #65,#66,#67,#68,#69,#70,#71,#72,#73,#74,#75,#76,#77),.UNSPECIFIED.,
  .F.,.F.,(2,1,1,1,1,1,1,1,1,1,1,1,1,1,1,1,1,1,1,1,2),(0.,
    1.786391272475E-02,6.837299476871E-02,0.150605404126,0.167013137987,
    0.207776390146,0.300673632474,0.327494283002,0.35348077914,
    0.384533588242,0.402307405958,0.418556952015,0.527349504371,
    0.613785326207,0.642477300617,0.662685316705,0.715370448166,
    0.863688166997,0.942543917318,0.968779715722,1.),.UNSPECIFIED.);
#57 = CARTESIAN_POINT('',(-0.498917070749,-2.5E-02));
#58 = CARTESIAN_POINT('',(-0.481578577889,-2.986631544924E-02));
#59 = CARTESIAN_POINT('',(-0.430731857163,-2.717760236004E-02));
#60 = CARTESIAN_POINT('',(-0.347866965606,-2.951194660004E-02));
#61 = CARTESIAN_POINT('',(-0.333575490886,-2.118478577217E-02));
#62 = CARTESIAN_POINT('',(-0.293139736011,-2.850533679191E-02));
#63 = CARTESIAN_POINT('',(-0.199515178116,-2.637073883991E-02));
#64 = CARTESIAN_POINT('',(-0.17297281735,-2.121921678335E-02));
#65 = CARTESIAN_POINT('',(-0.147194471375,-2.588257999969E-02));
#66 = CARTESIAN_POINT('',(-0.115905702101,-2.686096365105E-02));
#67 = CARTESIAN_POINT('',(-9.930324388624E-02,-2.012302685889E-02));
#68 = CARTESIAN_POINT('',(-8.352984261945E-02,-2.454317961842E-02));
#69 = CARTESIAN_POINT('',(2.608017125047E-02,-2.825399511196E-02));
#70 = CARTESIAN_POINT('',(0.1130539987,-2.295359025344E-02));
#71 = CARTESIAN_POINT('',(0.141932052349,-2.458548081799E-02));
#72 = CARTESIAN_POINT('',(0.162302927857,-2.442314127068E-02));
#73 = CARTESIAN_POINT('',(0.215395785982,-2.301927391442E-02));
#74 = CARTESIAN_POINT('',(0.364786407634,-2.918441895516E-02));
#75 = CARTESIAN_POINT('',(0.444268360654,-2.781294035432E-02));
#76 = CARTESIAN_POINT('',(0.469851873756,-2.110588410996E-02));
#77 = CARTESIAN_POINT('',(0.501082929251,-2.5E-02));
#78 = ( GEOMETRIC_REPRESENTATION_CONTEXT(2) 
PARAMETRIC_REPRESENTATION_CONTEXT() REPRESENTATION_CONTEXT('2D SPACE',''
  ) );
#79 = ORIENTED_EDGE('',*,*,#80,.T.);
#80 = EDGE_CURVE('',#24,#81,#83,.T.);
#81 = VERTEX_POINT('',#82);
#82 = CARTESIAN_POINT('',(1.,5.E-02,0.));
#83 = SURFACE_CURVE('',#84,(#88),.PCURVE_S1.);
#84 = LINE('',#85,#86);
#85 = CARTESIAN_POINT('',(1.,-0.,0.));
#86 = VECTOR('',#87,1.);
#87 = DIRECTION('',(0.,1.,0.));
#88 = PCURVE('',#50,#89);
#89 = DEFINITIONAL_REPRESENTATION('',(#90),#94);
#90 = LINE('',#91,#92);
#91 = CARTESIAN_POINT('',(0.501082929251,-2.5E-02));
#92 = VECTOR('',#93,1.);
#93 = DIRECTION('',(0.,1.));
#94 = ( GEOMETRIC_REPRESENTATION_CONTEXT(2) 
PARAMETRIC_REPRESENTATION_CONTEXT() REPRESENTATION_CONTEXT('2D SPACE',''
  ) );
#95 = ORIENTED_EDGE('',*,*,#96,.T.);
#96 = EDGE_CURVE('',#81,#97,#99,.T.);
#97 = VERTEX_POINT('',#98);
#98 = CARTESIAN_POINT('',(0.,5.E-02,0.));
#99 = SURFACE_CURVE('',#100,(#122),.PCURVE_S1.);
#100 = B_SPLINE_CURVE_WITH_KNOTS('',1,(#101,#102,#103,#104,#105,#106,
    #107,#108,#109,#110,#111,#112,#113,#114,#115,#116,#117,#118,#119,
    #120,#121),.UNSPECIFIED.,.F.,.F.,(2,1,1,1,1,1,1,1,1,1,1,1,1,1,1,1,1,
    1,1,1,2),(0.,3.122028427809E-02,5.745608268206E-02,0.136311833003,
    0.284629551834,0.337314683295,0.357522699383,0.386214673793,
    0.472650495629,0.581443047985,0.597692594042,0.615466411758,
    0.64651922086,0.672505716998,0.699326367526,0.792223609854,
    0.832986862013,0.849394595874,0.931627005231,0.982136087275,1.),
  .UNSPECIFIED.);
#101 = CARTESIAN_POINT('',(1.,5.E-02,0.));
#102 = CARTESIAN_POINT('',(0.968768944505,4.610588410996E-02,0.));
#103 = CARTESIAN_POINT('',(0.943185431403,5.281294035432E-02,0.));
#104 = CARTESIAN_POINT('',(0.863703478383,5.418441895516E-02,0.));
#105 = CARTESIAN_POINT('',(0.714312856732,4.801927391442E-02,0.));
#106 = CARTESIAN_POINT('',(0.661219998606,4.942314127068E-02,0.));
#107 = CARTESIAN_POINT('',(0.640849123098,4.958548081799E-02,0.));
#108 = CARTESIAN_POINT('',(0.61197106945,4.795359025344E-02,0.));
#109 = CARTESIAN_POINT('',(0.524997242,5.325399511196E-02,0.));
#110 = CARTESIAN_POINT('',(0.41538722813,4.954317961842E-02,0.));
#111 = CARTESIAN_POINT('',(0.399613826863,4.512302685889E-02,0.));
#112 = CARTESIAN_POINT('',(0.383011368648,5.186096365105E-02,0.));
#113 = CARTESIAN_POINT('',(0.351722599374,5.088257999969E-02,0.));
#114 = CARTESIAN_POINT('',(0.3259442534,4.621921678335E-02,0.));
#115 = CARTESIAN_POINT('',(0.299401892634,5.137073883991E-02,0.));
#116 = CARTESIAN_POINT('',(0.205777334739,5.350533679191E-02,0.));
#117 = CARTESIAN_POINT('',(0.165341579863,4.618478577217E-02,0.));
#118 = CARTESIAN_POINT('',(0.151050105144,5.451194660004E-02,0.));
#119 = CARTESIAN_POINT('',(6.818521358588E-02,5.217760236004E-02,0.));
#120 = CARTESIAN_POINT('',(1.733849286047E-02,5.486631544924E-02,0.));
#121 = CARTESIAN_POINT('',(0.,5.E-02,0.));
#122 = PCURVE('',#50,#123);
#123 = DEFINITIONAL_REPRESENTATION('',(#124),#146);
#124 = B_SPLINE_CURVE_WITH_KNOTS('',1,(#125,#126,#127,#128,#129,#130,
    #131,#132,#133,#134,#135,#136,#137,#138,#139,#140,#141,#142,#143,
    #144,#145),.UNSPECIFIED.,.F.,.F.,(2,1,1,1,1,1,1,1,1,1,1,1,1,1,1,1,1,
    1,1,1,2),(0.,3.122028427809E-02,5.745608268206E-02,0.136311833003,
    0.284629551834,0.337314683295,0.357522699383,0.386214673793,
    0.472650495629,0.581443047985,0.597692594042,0.615466411758,
    0.64651922086,0.672505716998,0.699326367526,0.792223609854,
    0.832986862013,0.849394595874,0.931627005231,0.982136087275,1.),
  .UNSPECIFIED.);
#125 = CARTESIAN_POINT('',(0.501082929251,2.5E-02));
#126 = CARTESIAN_POINT('',(0.469851873756,2.110588410996E-02));
#127 = CARTESIAN_POINT('',(0.444268360654,2.781294035432E-02));
#128 = CARTESIAN_POINT('',(0.364786407634,2.918441895516E-02));
#129 = CARTESIAN_POINT('',(0.215395785982,2.301927391442E-02));
#130 = CARTESIAN_POINT('',(0.162302927857,2.442314127068E-02));
#131 = CARTESIAN_POINT('',(0.141932052349,2.458548081799E-02));
#132 = CARTESIAN_POINT('',(0.1130539987,2.295359025344E-02));
#133 = CARTESIAN_POINT('',(2.608017125047E-02,2.825399511196E-02));
#134 = CARTESIAN_POINT('',(-8.352984261945E-02,2.454317961842E-02));
#135 = CARTESIAN_POINT('',(-9.930324388624E-02,2.012302685889E-02));
#136 = CARTESIAN_POINT('',(-0.115905702101,2.686096365105E-02));
#137 = CARTESIAN_POINT('',(-0.147194471375,2.588257999969E-02));
#138 = CARTESIAN_POINT('',(-0.17297281735,2.121921678335E-02));
#139 = CARTESIAN_POINT('',(-0.199515178116,2.637073883991E-02));
#140 = CARTESIAN_POINT('',(-0.293139736011,2.850533679191E-02));
#141 = CARTESIAN_POINT('',(-0.333575490886,2.118478577217E-02));
#142 = CARTESIAN_POINT('',(-0.347866965606,2.951194660004E-02));
#143 = CARTESIAN_POINT('',(-0.430731857163,2.717760236004E-02));
#144 = CARTESIAN_POINT('',(-0.481578577889,2.986631544924E-02));
#145 = CARTESIAN_POINT('',(-0.498917070749,2.5E-02));
#146 = ( GEOMETRIC_REPRESENTATION_CONTEXT(2) 
PARAMETRIC_REPRESENTATION_CONTEXT() REPRESENTATION_CONTEXT('2D SPACE',''
  ) );
#147 = ORIENTED_EDGE('',*,*,#148,.T.);
#148 = EDGE_CURVE('',#97,#22,#149,.T.);
#149 = SURFACE_CURVE('',#150,(#154),.PCURVE_S1.);
#150 = LINE('',#151,#152);
#151 = CARTESIAN_POINT('',(0.,5.E-02,0.));
#152 = VECTOR('',#153,1.);
#153 = DIRECTION('',(0.,-1.,0.));
#154 = PCURVE('',#50,#155);
#155 = DEFINITIONAL_REPRESENTATION('',(#156),#160);
#156 = LINE('',#157,#158);
#157 = CARTESIAN_POINT('',(-0.498917070749,2.5E-02));
#158 = VECTOR('',#159,1.);
#159 = DIRECTION('',(0.,-1.));
#160 = ( GEOMETRIC_REPRESENTATION_CONTEXT(2) 
PARAMETRIC_REPRESENTATION_CONTEXT() REPRESENTATION_CONTEXT('2D SPACE',''
  ) );
#161 = ( GEOMETRIC_REPRESENTATION_CONTEXT(3) 
GLOBAL_UNCERTAINTY_ASSIGNED_CONTEXT((#165)) GLOBAL_UNIT_ASSIGNED_CONTEXT
((#162,#163,#164)) REPRESENTATION_CONTEXT('Context #1',
  '3D Context with UNIT and UNCERTAINTY') );
#162 = ( LENGTH_UNIT() NAMED_UNIT(*) SI_UNIT(.MILLI.,.METRE.) );
#163 = ( NAMED_UNIT(*) PLANE_ANGLE_UNIT() SI_UNIT($,.RADIAN.) );
#164 = ( NAMED_UNIT(*) SI_UNIT($,.STERADIAN.) SOLID_ANGLE_UNIT() );
#165 = UNCERTAINTY_MEASURE_WITH_UNIT(LENGTH_MEASURE(1.E-07),#162,
  'distance_accuracy_value','confusion accuracy');
#166 = PRODUCT_RELATED_PRODUCT_CATEGORY('part',$,(#7));
ENDSEC;
END-ISO-10303-21;
