ISO-10303-21;
HEADER;
FILE_DESCRIPTION(('Open CASCADE Model'),'2;1');
FILE_NAME('Open CASCADE Shape Model','2026-08-17T20:30:05',('Author'),(
    'Open CASCADE'),'Open CASCADE STEP processor 7.9','Open CASCADE 7.9'
  ,'Unknown');
FILE_SCHEMA(('AUTOMOTIVE_DESIGN { 1 0 10303 214 1 1 1 1 }'));
ENDSEC;
DATA;
#1 = APPLICATION_PROTOCOL_DEFINITION('international standard',
  'automotive_design',2000,#2);
#2 = APPLICATION_CONTEXT(
  'core data for automotive mechanical design processes');
#3 = SHAPE_DEFINITION_REPRESENTATION(#4,#10);
#4 = PRODUCT_DEFINITION_SHAPE('','',#5);
#5 = PRODUCT_DEFINITION('design','',#6,#9);
#6 = PRODUCT_DEFINITION_FORMATION('','',#7);
#7 = PRODUCT('Open CASCADE STEP translator 7.9 68',
  'Open CASCADE STEP translator 7.9 68','',(#8));
#8 = PRODUCT_CONTEXT('',#2,'mechanical');
#9 = PRODUCT_DEFINITION_CONTEXT('part definition',#2,'design');
#10 = MANIFOLD_SURFACE_SHAPE_REPRESENTATION('',(#11,#15),#145);
#11 = AXIS2_PLACEMENT_3D('',#12,#13,#14);
#12 = CARTESIAN_POINT('',(0.,0.,0.));
#13 = DIRECTION('',(0.,0.,1.));
#14 = DIRECTION('',(1.,0.,-0.));
#15 = SHELL_BASED_SURFACE_MODEL('',(#16));
#16 = OPEN_SHELL('',(#17));
#17 = ADVANCED_FACE('',(#18),#46,.T.);
#18 = FACE_BOUND('',#19,.T.);
#19 = EDGE_LOOP('',(#20,#71,#87,#131));
#20 = ORIENTED_EDGE('',*,*,#21,.T.);
#21 = EDGE_CURVE('',#22,#24,#26,.T.);
#22 = VERTEX_POINT('',#23);
#23 = CARTESIAN_POINT('',(0.,0.,0.));
#24 = VERTEX_POINT('',#25);
#25 = CARTESIAN_POINT('',(1.,0.,0.));
#26 = SURFACE_CURVE('',#27,(#45),.PCURVE_S1.);
#27 = B_SPLINE_CURVE_WITH_KNOTS('',1,(#28,#29,#30,#31,#32,#33,#34,#35,
    #36,#37,#38,#39,#40,#41,#42,#43,#44),.UNSPECIFIED.,.F.,.F.,(2,1,1,1,
    1,1,1,1,1,1,1,1,1,1,1,1,2),(0.,6.881215391018E-02,0.206780341758,
    0.273509068782,0.288144454252,0.344546019623,0.36210231694,
    0.452618253352,0.52237321188,0.594676183652,0.6359770178,
    0.661863002076,0.683724729958,0.716911342359,0.783648579227,
    0.921353713541,1.),.UNSPECIFIED.);
#28 = CARTESIAN_POINT('',(0.,-0.,0.));
#29 = CARTESIAN_POINT('',(6.905622595696E-02,1.378755796032E-03,0.));
#30 = CARTESIAN_POINT('',(0.20754049141,8.850444455508E-04,0.));
#31 = CARTESIAN_POINT('',(0.274497662345,2.585309560313E-03,0.));
#32 = CARTESIAN_POINT('',(0.288116580456,-2.921752253264E-03,0.));
#33 = CARTESIAN_POINT('',(0.34454824557,1.604551625425E-03,0.));
#34 = CARTESIAN_POINT('',(0.361995184686,4.082858496862E-03,0.));
#35 = CARTESIAN_POINT('',(0.452471110916,-4.208993677998E-03,0.));
#36 = CARTESIAN_POINT('',(0.52200646577,3.983704020351E-03,0.));
#37 = CARTESIAN_POINT('',(0.594436581388,-5.821817626929E-04,0.));
#38 = CARTESIAN_POINT('',(0.63584622366,1.368999341358E-03,0.));
#39 = CARTESIAN_POINT('',(0.661364867133,-3.521189516714E-03,0.));
#40 = CARTESIAN_POINT('',(0.683143612202,-8.361007119752E-04,0.));
#41 = CARTESIAN_POINT('',(0.7163396576,1.928434595392E-03,0.));
#42 = CARTESIAN_POINT('',(0.783020254472,-4.474372901156E-03,0.));
#43 = CARTESIAN_POINT('',(0.9210862361,2.072302180373E-03,0.));
#44 = CARTESIAN_POINT('',(1.,-0.,0.));
#45 = PCURVE('',#46,#51);
#46 = PLANE('',#47);
#47 = AXIS2_PLACEMENT_3D('',#48,#49,#50);
#48 = CARTESIAN_POINT('',(0.499935137902,3.125E-02,0.));
#49 = DIRECTION('',(0.,0.,1.));
#50 = DIRECTION('',(1.,0.,-0.));
#51 = DEFINITIONAL_REPRESENTATION('',(#52),#70);
#52 = B_SPLINE_CURVE_WITH_KNOTS('',1,(#53,#54,#55,#56,#57,#58,#59,#60,
    #61,#62,#63,#64,#65,#66,#67,#68,#69),.UNSPECIFIED.,.F.,.F.,(2,1,1,1,
    1,1,1,1,1,1,1,1,1,1,1,1,2),(0.,6.881215391018E-02,0.206780341758,
    0.273509068782,0.288144454252,0.344546019623,0.36210231694,
    0.452618253352,0.52237321188,0.594676183652,0.6359770178,
    0.661863002076,0.683724729958,0.716911342359,0.783648579227,
    0.921353713541,1.),.UNSPECIFIED.);
#53 = CARTESIAN_POINT('',(-0.499935137902,-3.125E-02));
#54 = CARTESIAN_POINT('',(-0.430878911945,-2.987124420397E-02));
#55 = CARTESIAN_POINT('',(-0.292394646492,-3.036495555445E-02));
#56 = CARTESIAN_POINT('',(-0.225437475557,-2.866469043969E-02));
#57 = CARTESIAN_POINT('',(-0.211818557446,-3.417175225326E-02));
#58 = CARTESIAN_POINT('',(-0.155386892332,-2.964544837457E-02));
#59 = CARTESIAN_POINT('',(-0.137939953216,-2.716714150314E-02));
#60 = CARTESIAN_POINT('',(-4.74640269861E-02,-3.5458993678E-02));
#61 = CARTESIAN_POINT('',(2.207132786805E-02,-2.726629597965E-02));
#62 = CARTESIAN_POINT('',(9.450144348592E-02,-3.183218176269E-02));
#63 = CARTESIAN_POINT('',(0.135911085758,-2.988100065864E-02));
#64 = CARTESIAN_POINT('',(0.161429729231,-3.477118951671E-02));
#65 = CARTESIAN_POINT('',(0.1832084743,-3.208610071198E-02));
#66 = CARTESIAN_POINT('',(0.216404519698,-2.932156540461E-02));
#67 = CARTESIAN_POINT('',(0.28308511657,-3.572437290116E-02));
#68 = CARTESIAN_POINT('',(0.421151098198,-2.917769781963E-02));
#69 = CARTESIAN_POINT('',(0.500064862098,-3.125E-02));
#70 = ( GEOMETRIC_REPRESENTATION_CONTEXT(2) 
PARAMETRIC_REPRESENTATION_CONTEXT() REPRESENTATION_CONTEXT('2D SPACE',''
  ) );
#71 = ORIENTED_EDGE('',*,*,#72,.T.);
#72 = EDGE_CURVE('',#24,#73,#75,.T.);
#73 = VERTEX_POINT('',#74);
#74 = CARTESIAN_POINT('',(1.,6.25E-02,0.));
#75 = SURFACE_CURVE('',#76,(#80),.PCURVE_S1.);
#76 = LINE('',#77,#78);
#77 = CARTESIAN_POINT('',(1.,-0.,0.));
#78 = VECTOR('',#79,1.);
#79 = DIRECTION('',(0.,1.,0.));
#80 = PCURVE('',#46,#81);
#81 = DEFINITIONAL_REPRESENTATION('',(#82),#86);
#82 = LINE('',#83,#84);
#83 = CARTESIAN_POINT('',(0.500064862098,-3.125E-02));
#84 = VECTOR('',#85,1.);
#85 = DIRECTION('',(0.,1.));
#86 = ( GEOMETRIC_REPRESENTATION_CONTEXT(2) 
PARAMETRIC_REPRESENTATION_CONTEXT() REPRESENTATION_CONTEXT('2D SPACE',''
  ) );
#87 = ORIENTED_EDGE('',*,*,#88,.T.);
#88 = EDGE_CURVE('',#73,#89,#91,.T.);
#89 = VERTEX_POINT('',#90);
#90 = CARTESIAN_POINT('',(0.,6.25E-02,0.));
#91 = SURFACE_CURVE('',#92,(#110),.PCURVE_S1.);
#92 = B_SPLINE_CURVE_WITH_KNOTS('',1,(#93,#94,#95,#96,#97,#98,#99,#100,
    #101,#102,#103,#104,#105,#106,#107,#108,#109),.UNSPECIFIED.,.F.,.F.,
  (2,1,1,1,1,1,1,1,1,1,1,1,1,1,1,1,2),(0.,7.864628645894E-02,
    0.216351420773,0.283088657641,0.316275270042,0.338136997924,
    0.3640229822,0.405323816348,0.47762678812,0.547381746648,
    0.63789768306,0.655453980377,0.711855545748,0.726490931218,
    0.793219658242,0.93118784609,1.),.UNSPECIFIED.);
#93 = CARTESIAN_POINT('',(1.,6.25E-02,0.));
#94 = CARTESIAN_POINT('',(0.9210862361,6.042769781963E-02,0.));
#95 = CARTESIAN_POINT('',(0.783020254472,6.697437290116E-02,0.));
#96 = CARTESIAN_POINT('',(0.7163396576,6.057156540461E-02,0.));
#97 = CARTESIAN_POINT('',(0.683143612202,6.333610071198E-02,0.));
#98 = CARTESIAN_POINT('',(0.661364867133,6.602118951671E-02,0.));
#99 = CARTESIAN_POINT('',(0.63584622366,6.113100065864E-02,0.));
#100 = CARTESIAN_POINT('',(0.594436581388,6.308218176269E-02,0.));
#101 = CARTESIAN_POINT('',(0.52200646577,5.851629597965E-02,0.));
#102 = CARTESIAN_POINT('',(0.452471110916,6.6708993678E-02,0.));
#103 = CARTESIAN_POINT('',(0.361995184686,5.841714150314E-02,0.));
#104 = CARTESIAN_POINT('',(0.34454824557,6.089544837457E-02,0.));
#105 = CARTESIAN_POINT('',(0.288116580456,6.542175225326E-02,0.));
#106 = CARTESIAN_POINT('',(0.274497662345,5.991469043969E-02,0.));
#107 = CARTESIAN_POINT('',(0.20754049141,6.161495555445E-02,0.));
#108 = CARTESIAN_POINT('',(6.905622595696E-02,6.112124420397E-02,0.));
#109 = CARTESIAN_POINT('',(0.,6.25E-02,0.));
#110 = PCURVE('',#46,#111);
#111 = DEFINITIONAL_REPRESENTATION('',(#112),#130);
#112 = B_SPLINE_CURVE_WITH_KNOTS('',1,(#113,#114,#115,#116,#117,#118,
    #119,#120,#121,#122,#123,#124,#125,#126,#127,#128,#129),
  .UNSPECIFIED.,.F.,.F.,(2,1,1,1,1,1,1,1,1,1,1,1,1,1,1,1,2),(0.,
    7.864628645894E-02,0.216351420773,0.283088657641,0.316275270042,
    0.338136997924,0.3640229822,0.405323816348,0.47762678812,
    0.547381746648,0.63789768306,0.655453980377,0.711855545748,
    0.726490931218,0.793219658242,0.93118784609,1.),.UNSPECIFIED.);
#113 = CARTESIAN_POINT('',(0.500064862098,3.125E-02));
#114 = CARTESIAN_POINT('',(0.421151098198,2.917769781963E-02));
#115 = CARTESIAN_POINT('',(0.28308511657,3.572437290116E-02));
#116 = CARTESIAN_POINT('',(0.216404519698,2.932156540461E-02));
#117 = CARTESIAN_POINT('',(0.1832084743,3.208610071198E-02));
#118 = CARTESIAN_POINT('',(0.161429729231,3.477118951671E-02));
#119 = CARTESIAN_POINT('',(0.135911085758,2.988100065864E-02));
#120 = CARTESIAN_POINT('',(9.450144348592E-02,3.183218176269E-02));
#121 = CARTESIAN_POINT('',(2.207132786805E-02,2.726629597965E-02));
#122 = CARTESIAN_POINT('',(-4.74640269861E-02,3.5458993678E-02));
#123 = CARTESIAN_POINT('',(-0.137939953216,2.716714150314E-02));
#124 = CARTESIAN_POINT('',(-0.155386892332,2.964544837457E-02));
#125 = CARTESIAN_POINT('',(-0.211818557446,3.417175225326E-02));
#126 = CARTESIAN_POINT('',(-0.225437475557,2.866469043969E-02));
#127 = CARTESIAN_POINT('',(-0.292394646492,3.036495555445E-02));
#128 = CARTESIAN_POINT('',(-0.430878911945,2.987124420397E-02));
#129 = CARTESIAN_POINT('',(-0.499935137902,3.125E-02));
#130 = ( GEOMETRIC_REPRESENTATION_CONTEXT(2) 
PARAMETRIC_REPRESENTATION_CONTEXT() REPRESENTATION_CONTEXT('2D SPACE',''
  ) );
#131 = ORIENTED_EDGE('',*,*,#132,.T.);
#132 = EDGE_CURVE('',#89,#22,#133,.T.);
#133 = SURFACE_CURVE('',#134,(#138),.PCURVE_S1.);
#134 = LINE('',#135,#136);
#135 = CARTESIAN_POINT('',(0.,6.25E-02,0.));
#136 = VECTOR('',#137,1.);
#137 = DIRECTION('',(0.,-1.,0.));
#138 = PCURVE('',#46,#139);
#139 = DEFINITIONAL_REPRESENTATION('',(#140),#144);
#140 = LINE('',#141,#142);
#141 = CARTESIAN_POINT('',(-0.499935137902,3.125E-02));
#142 = VECTOR('',#143,1.);
#143 = DIRECTION('',(0.,-1.));
#144 = ( GEOMETRIC_REPRESENTATION_CONTEXT(2) 
PARAMETRIC_REPRESENTATION_CONTEXT() REPRESENTATION_CONTEXT('2D SPACE',''
  ) );
#145 = ( GEOMETRIC_REPRESENTATION_CONTEXT(3) 
GLOBAL_UNCERTAINTY_ASSIGNED_CONTEXT((#149)) GLOBAL_UNIT_ASSIGNED_CONTEXT
((#146,#147,#148)) REPRESENTATION_CONTEXT('Context #1',
  '3D Context with UNIT and UNCERTAINTY') );
#146 = ( LENGTH_UNIT() NAMED_UNIT(*) SI_UNIT(.MILLI.,.METRE.) );
#147 = ( NAMED_UNIT(*) PLANE_ANGLE_UNIT() SI_UNIT($,.RADIAN.) );
#148 = ( NAMED_UNIT(*) SI_UNIT($,.STERADIAN.) SOLID_ANGLE_UNIT() );
#149 = UNCERTAINTY_MEASURE_WITH_UNIT(LENGTH_MEASURE(1.E-07),#146,
  'distance_accuracy_value','confusion accuracy');
#150 = PRODUCT_RELATED_PRODUCT_CATEGORY('part',$,(#7));
ENDSEC;
END-ISO-10303-21;
