ISO-10303-21;
HEADER;
FILE_DESCRIPTION(('Open CASCADE Model'),'2;1');
FILE_NAME('Open CASCADE Shape Model','2026-08-17T20:30:04',('Author'),(
    'Open CASCADE'),'Open CASCADE STEP processor 7.9','Open CASCADE 7.9'
  ,'Unknown');
FILE_SCHEMA(('AUTOMOTIVE_DESIGN { 1 0 10303 214 1 1 1 1 }'));
ENDSEC;
DATA;
#1 = APPLICATION_PROTOCOL_DEFINITION('international standard',
  'automotive_design',2000,#2);
#2 = APPLICATION_CONTEXT(
  'core data for automotive mechanical design processes');
#3 = SHAPE_DEFINITION_REPRESENTATION(#4,#10);
#4 = PRODUCT_DEFINITION_SHAPE('','',#5);
#5 = PRODUCT_DEFINITION('design','',#6,#9);
#6 = PRODUCT_DEFINITION_FORMATION('','',#7);
#7 = PRODUCT('Open CASCADE STEP translator 7.9 43',
  'Open CASCADE STEP translator 7.9 43','',(#8));
#8 = PRODUCT_CONTEXT('',#2,'mechanical');
#9 = PRODUCT_DEFINITION_CONTEXT('part definition',#2,'design');
#10 = MANIFOLD_SURFACE_SHAPE_REPRESENTATION('',(#11,#15),#145);
#11 = AXIS2_PLACEMENT_3D('',#12,#13,#14);
#12 = CARTESIAN_POINT('',(0.,0.,0.));
#13 = DIRECTION('',(0.,0.,1.));
#14 = DIRECTION('',(1.,0.,-0.));
#15 = SHELL_BASED_SURFACE_MODEL('',(#16));
#16 = OPEN_SHELL('',(#17));
#17 = ADVANCED_FACE('',(#18),#46,.T.);
#18 = FACE_BOUND('',#19,.T.);
#19 = EDGE_LOOP('',(#20,#71,#87,#131));
#20 = ORIENTED_EDGE('',*,*,#21,.T.);
#21 = EDGE_CURVE('',#22,#24,#26,.T.);
#22 = VERTEX_POINT('',#23);
#23 = CARTESIAN_POINT('',(0.,0.,0.));
#24 = VERTEX_POINT('',#25);
#25 = CARTESIAN_POINT('',(1.,0.,0.));
#26 = SURFACE_CURVE('',#27,(#45),.PCURVE_S1.);
#27 = B_SPLINE_CURVE_WITH_KNOTS('',1,(#28,#29,#30,#31,#32,#33,#34,#35,
    #36,#37,#38,#39,#40,#41,#42,#43,#44),.UNSPECIFIED.,.F.,.F.,(2,1,1,1,
    1,1,1,1,1,1,1,1,1,1,1,1,2),(0.,1.587924310024E-02,3.312422223452E-02
    ,7.743388242208E-02,0.134807526538,0.182227460878,0.280897798103,
    0.306383753164,0.339689341662,0.516106063512,0.542037391135,
    0.713346702488,0.776567506205,0.804162953384,0.822151612142,
    0.925429837132,1.),.UNSPECIFIED.);
#28 = CARTESIAN_POINT('',(0.,-0.,0.));
#29 = CARTESIAN_POINT('',(1.581033436926E-02,-1.977061104721E-03,0.));
#30 = CARTESIAN_POINT('',(3.165123407421E-02,4.986399624148E-03,0.));
#31 = CARTESIAN_POINT('',(7.6104485628E-02,4.157781767381E-03,0.));
#32 = CARTESIAN_POINT('',(0.133668838157,4.932831167411E-03,0.));
#33 = CARTESIAN_POINT('',(0.181246861436,4.327874763119E-03,0.));
#34 = CARTESIAN_POINT('',(0.279846073356,-4.652013624793E-03,0.));
#35 = CARTESIAN_POINT('',(0.304599476525,1.770346625601E-03,0.));
#36 = CARTESIAN_POINT('',(0.337796860197,-2.074772296326E-03,0.));
#37 = CARTESIAN_POINT('',(0.514773585167,1.801442086274E-03,0.));
#38 = CARTESIAN_POINT('',(0.540759760286,4.774715391923E-04,0.));
#39 = CARTESIAN_POINT('',(0.71265070652,1.553992792438E-03,0.));
#40 = CARTESIAN_POINT('',(0.775997451486,4.931038441576E-03,0.));
#41 = CARTESIAN_POINT('',(0.803663244309,3.781055735317E-03,0.));
#42 = CARTESIAN_POINT('',(0.821579654028,1.588350938445E-03,0.));
#43 = CARTESIAN_POINT('',(0.925180628375,-9.023906967888E-04,0.));
#44 = CARTESIAN_POINT('',(1.,-0.,0.));
#45 = PCURVE('',#46,#51);
#46 = PLANE('',#47);
#47 = AXIS2_PLACEMENT_3D('',#48,#49,#50);
#48 = CARTESIAN_POINT('',(0.499060435976,3.125E-02,0.));
#49 = DIRECTION('',(0.,0.,1.));
#50 = DIRECTION('',(1.,0.,-0.));
#51 = DEFINITIONAL_REPRESENTATION('',(#52),#70);
#52 = B_SPLINE_CURVE_WITH_KNOTS('',1,(#53,#54,#55,#56,#57,#58,#59,#60,
    #61,#62,#63,#64,#65,#66,#67,#68,#69),.UNSPECIFIED.,.F.,.F.,(2,1,1,1,
    1,1,1,1,1,1,1,1,1,1,1,1,2),(0.,1.587924310024E-02,3.312422223452E-02
    ,7.743388242208E-02,0.134807526538,0.182227460878,0.280897798103,
    0.306383753164,0.339689341662,0.516106063512,0.542037391135,
    0.713346702488,0.776567506205,0.804162953384,0.822151612142,
    0.925429837132,1.),.UNSPECIFIED.);
#53 = CARTESIAN_POINT('',(-0.499060435976,-3.125E-02));
#54 = CARTESIAN_POINT('',(-0.483250101607,-3.322706110472E-02));
#55 = CARTESIAN_POINT('',(-0.467409201902,-2.626360037585E-02));
#56 = CARTESIAN_POINT('',(-0.422955950348,-2.709221823262E-02));
#57 = CARTESIAN_POINT('',(-0.365391597819,-2.631716883259E-02));
#58 = CARTESIAN_POINT('',(-0.31781357454,-2.692212523688E-02));
#59 = CARTESIAN_POINT('',(-0.21921436262,-3.590201362479E-02));
#60 = CARTESIAN_POINT('',(-0.194460959451,-2.94796533744E-02));
#61 = CARTESIAN_POINT('',(-0.161263575779,-3.332477229633E-02));
#62 = CARTESIAN_POINT('',(1.571314919047E-02,-2.944855791373E-02));
#63 = CARTESIAN_POINT('',(4.169932431019E-02,-3.077252846081E-02));
#64 = CARTESIAN_POINT('',(0.213590270544,-2.969600720756E-02));
#65 = CARTESIAN_POINT('',(0.27693701551,-2.631896155842E-02));
#66 = CARTESIAN_POINT('',(0.304602808333,-2.746894426468E-02));
#67 = CARTESIAN_POINT('',(0.322519218052,-2.966164906156E-02));
#68 = CARTESIAN_POINT('',(0.426120192399,-3.215239069679E-02));
#69 = CARTESIAN_POINT('',(0.500939564024,-3.125E-02));
#70 = ( GEOMETRIC_REPRESENTATION_CONTEXT(2) 
PARAMETRIC_REPRESENTATION_CONTEXT() REPRESENTATION_CONTEXT('2D SPACE',''
  ) );
#71 = ORIENTED_EDGE('',*,*,#72,.T.);
#72 = EDGE_CURVE('',#24,#73,#75,.T.);
#73 = VERTEX_POINT('',#74);
#74 = CARTESIAN_POINT('',(1.,6.25E-02,0.));
#75 = SURFACE_CURVE('',#76,(#80),.PCURVE_S1.);
#76 = LINE('',#77,#78);
#77 = CARTESIAN_POINT('',(1.,-0.,0.));
#78 = VECTOR('',#79,1.);
#79 = DIRECTION('',(0.,1.,0.));
#80 = PCURVE('',#46,#81);
#81 = DEFINITIONAL_REPRESENTATION('',(#82),#86);
#82 = LINE('',#83,#84);
#83 = CARTESIAN_POINT('',(0.500939564024,-3.125E-02));
#84 = VECTOR('',#85,1.);
#85 = DIRECTION('',(0.,1.));
#86 = ( GEOMETRIC_REPRESENTATION_CONTEXT(2) 
PARAMETRIC_REPRESENTATION_CONTEXT() REPRESENTATION_CONTEXT('2D SPACE',''
  ) );
#87 = ORIENTED_EDGE('',*,*,#88,.T.);
#88 = EDGE_CURVE('',#73,#89,#91,.T.);
#89 = VERTEX_POINT('',#90);
#90 = CARTESIAN_POINT('',(0.,6.25E-02,0.));
#91 = SURFACE_CURVE('',#92,(#110),.PCURVE_S1.);
#92 = B_SPLINE_CURVE_WITH_KNOTS('',1,(#93,#94,#95,#96,#97,#98,#99,#100,
    #101,#102,#103,#104,#105,#106,#107,#108,#109),.UNSPECIFIED.,.F.,.F.,
  (2,1,1,1,1,1,1,1,1,1,1,1,1,1,1,1,2),(0.,7.457016286773E-02,
    0.177848387858,0.195837046616,0.223432493795,0.286653297512,
    0.457962608865,0.483893936488,0.660310658338,0.693616246836,
    0.719102201897,0.817772539122,0.865192473462,0.922566117578,
    0.966875777765,0.9841207569,1.),.UNSPECIFIED.);
#93 = CARTESIAN_POINT('',(1.,6.25E-02,0.));
#94 = CARTESIAN_POINT('',(0.925180628375,6.340239069679E-02,0.));
#95 = CARTESIAN_POINT('',(0.821579654028,6.091164906156E-02,0.));
#96 = CARTESIAN_POINT('',(0.803663244309,5.871894426468E-02,0.));
#97 = CARTESIAN_POINT('',(0.775997451486,5.756896155842E-02,0.));
#98 = CARTESIAN_POINT('',(0.71265070652,6.094600720756E-02,0.));
#99 = CARTESIAN_POINT('',(0.540759760286,6.202252846081E-02,0.));
#100 = CARTESIAN_POINT('',(0.514773585167,6.069855791373E-02,0.));
#101 = CARTESIAN_POINT('',(0.337796860197,6.457477229633E-02,0.));
#102 = CARTESIAN_POINT('',(0.304599476525,6.07296533744E-02,0.));
#103 = CARTESIAN_POINT('',(0.279846073356,6.715201362479E-02,0.));
#104 = CARTESIAN_POINT('',(0.181246861436,5.817212523688E-02,0.));
#105 = CARTESIAN_POINT('',(0.133668838157,5.756716883259E-02,0.));
#106 = CARTESIAN_POINT('',(7.6104485628E-02,5.834221823262E-02,0.));
#107 = CARTESIAN_POINT('',(3.165123407421E-02,5.751360037585E-02,0.));
#108 = CARTESIAN_POINT('',(1.581033436926E-02,6.447706110472E-02,0.));
#109 = CARTESIAN_POINT('',(0.,6.25E-02,0.));
#110 = PCURVE('',#46,#111);
#111 = DEFINITIONAL_REPRESENTATION('',(#112),#130);
#112 = B_SPLINE_CURVE_WITH_KNOTS('',1,(#113,#114,#115,#116,#117,#118,
    #119,#120,#121,#122,#123,#124,#125,#126,#127,#128,#129),
  .UNSPECIFIED.,.F.,.F.,(2,1,1,1,1,1,1,1,1,1,1,1,1,1,1,1,2),(0.,
    7.457016286773E-02,0.177848387858,0.195837046616,0.223432493795,
    0.286653297512,0.457962608865,0.483893936488,0.660310658338,
    0.693616246836,0.719102201897,0.817772539122,0.865192473462,
    0.922566117578,0.966875777765,0.9841207569,1.),.UNSPECIFIED.);
#113 = CARTESIAN_POINT('',(0.500939564024,3.125E-02));
#114 = CARTESIAN_POINT('',(0.426120192399,3.215239069679E-02));
#115 = CARTESIAN_POINT('',(0.322519218052,2.966164906156E-02));
#116 = CARTESIAN_POINT('',(0.304602808333,2.746894426468E-02));
#117 = CARTESIAN_POINT('',(0.27693701551,2.631896155842E-02));
#118 = CARTESIAN_POINT('',(0.213590270544,2.969600720756E-02));
#119 = CARTESIAN_POINT('',(4.169932431019E-02,3.077252846081E-02));
#120 = CARTESIAN_POINT('',(1.571314919047E-02,2.944855791373E-02));
#121 = CARTESIAN_POINT('',(-0.161263575779,3.332477229633E-02));
#122 = CARTESIAN_POINT('',(-0.194460959451,2.94796533744E-02));
#123 = CARTESIAN_POINT('',(-0.21921436262,3.590201362479E-02));
#124 = CARTESIAN_POINT('',(-0.31781357454,2.692212523688E-02));
#125 = CARTESIAN_POINT('',(-0.365391597819,2.631716883259E-02));
#126 = CARTESIAN_POINT('',(-0.422955950348,2.709221823262E-02));
#127 = CARTESIAN_POINT('',(-0.467409201902,2.626360037585E-02));
#128 = CARTESIAN_POINT('',(-0.483250101607,3.322706110472E-02));
#129 = CARTESIAN_POINT('',(-0.499060435976,3.125E-02));
#130 = ( GEOMETRIC_REPRESENTATION_CONTEXT(2) 
PARAMETRIC_REPRESENTATION_CONTEXT() REPRESENTATION_CONTEXT('2D SPACE',''
  ) );
#131 = ORIENTED_EDGE('',*,*,#132,.T.);
#132 = EDGE_CURVE('',#89,#22,#133,.T.);
#133 = SURFACE_CURVE('',#134,(#138),.PCURVE_S1.);
#134 = LINE('',#135,#136);
#135 = CARTESIAN_POINT('',(0.,6.25E-02,0.));
#136 = VECTOR('',#137,1.);
#137 = DIRECTION('',(0.,-1.,0.));
#138 = PCURVE('',#46,#139);
#139 = DEFINITIONAL_REPRESENTATION('',(#140),#144);
#140 = LINE('',#141,#142);
#141 = CARTESIAN_POINT('',(-0.499060435976,3.125E-02));
#142 = VECTOR('',#143,1.);
#143 = DIRECTION('',(0.,-1.));
#144 = ( GEOMETRIC_REPRESENTATION_CONTEXT(2) 
PARAMETRIC_REPRESENTATION_CONTEXT() REPRESENTATION_CONTEXT('2D SPACE',''
  ) );
#145 = ( GEOMETRIC_REPRESENTATION_CONTEXT(3) 
GLOBAL_UNCERTAINTY_ASSIGNED_CONTEXT((#149)) GLOBAL_UNIT_ASSIGNED_CONTEXT
((#146,#147,#148)) REPRESENTATION_CONTEXT('Context #1',
  '3D Context with UNIT and UNCERTAINTY') );
#146 = ( LENGTH_UNIT() NAMED_UNIT(*) SI_UNIT(.MILLI.,.METRE.) );
#147 = ( NAMED_UNIT(*) PLANE_ANGLE_UNIT() SI_UNIT($,.RADIAN.) );
#148 = ( NAMED_UNIT(*) SI_UNIT($,.STERADIAN.) SOLID_ANGLE_UNIT() );
#149 = UNCERTAINTY_MEASURE_WITH_UNIT(LENGTH_MEASURE(1.E-07),#146,
  'distance_accuracy_value','confusion accuracy');
#150 = PRODUCT_RELATED_PRODUCT_CATEGORY('part',$,(#7));
ENDSEC;
END-ISO-10303-21;
