ISO-10303-21;
HEADER;
FILE_DESCRIPTION(('Open CASCADE Model'),'2;1');
FILE_NAME('Open CASCADE Shape Model','2026-08-17T20:30:05',('Author'),(
    'Open CASCADE'),'Open CASCADE STEP processor 7.9','Open CASCADE 7.9'
  ,'Unknown');
FILE_SCHEMA(('AUTOMOTIVE_DESIGN { 1 0 10303 214 1 1 1 1 }'));
ENDSEC;
DATA;
#1 = APPLICATION_PROTOCOL_DEFINITION('international standard',
  'automotive_design',2000,#2);
#2 = APPLICATION_CONTEXT(
  'core data for automotive mechanical design processes');
#3 = SHAPE_DEFINITION_REPRESENTATION(#4,#10);
#4 = PRODUCT_DEFINITION_SHAPE('','',#5);
#5 = PRODUCT_DEFINITION('design','',#6,#9);
#6 = PRODUCT_DEFINITION_FORMATION('','',#7);
#7 = PRODUCT('Open CASCADE STEP translator 7.9 58',
  'Open CASCADE STEP translator 7.9 58','',(#8));
#8 = PRODUCT_CONTEXT('',#2,'mechanical');
#9 = PRODUCT_DEFINITION_CONTEXT('part definition',#2,'design');
#10 = MANIFOLD_SURFACE_SHAPE_REPRESENTATION('',(#11,#15),#145);
#11 = AXIS2_PLACEMENT_3D('',#12,#13,#14);
#12 = CARTESIAN_POINT('',(0.,0.,0.));
#13 = DIRECTION('',(0.,0.,1.));
#14 = DIRECTION('',(1.,0.,-0.));
#15 = SHELL_BASED_SURFACE_MODEL('',(#16));
#16 = OPEN_SHELL('',(#17));
#17 = ADVANCED_FACE('',(#18),#46,.T.);
#18 = FACE_BOUND('',#19,.T.);
#19 = EDGE_LOOP('',(#20,#71,#87,#131));
#20 = ORIENTED_EDGE('',*,*,#21,.T.);
#21 = EDGE_CURVE('',#22,#24,#26,.T.);
#22 = VERTEX_POINT('',#23);
#23 = CARTESIAN_POINT('',(0.,0.,0.));
#24 = VERTEX_POINT('',#25);
#25 = CARTESIAN_POINT('',(1.,0.,0.));
#26 = SURFACE_CURVE('',#27,(#45),.PCURVE_S1.);
#27 = B_SPLINE_CURVE_WITH_KNOTS('',1,(#28,#29,#30,#31,#32,#33,#34,#35,
    #36,#37,#38,#39,#40,#41,#42,#43,#44),.UNSPECIFIED.,.F.,.F.,(2,1,1,1,
    1,1,1,1,1,1,1,1,1,1,1,1,2),(0.,4.317053646645E-02,8.230553233999E-02
    ,0.103191052892,0.187132480576,0.242558810952,0.500030147976,
    0.532540434497,0.577180486451,0.591883433116,0.636252593383,
    0.745988937359,0.784451094403,0.819211460097,0.866527525631,
    0.889526238583,1.),.UNSPECIFIED.);
#28 = CARTESIAN_POINT('',(0.,-0.,0.));
#29 = CARTESIAN_POINT('',(4.324186628386E-02,-3.438840036216E-03,0.));
#30 = CARTESIAN_POINT('',(8.188339123804E-02,3.852510049118E-03,0.));
#31 = CARTESIAN_POINT('',(0.101286554349,-4.143283721739E-03,0.));
#32 = CARTESIAN_POINT('',(0.185632105103,-4.074314151045E-03,0.));
#33 = CARTESIAN_POINT('',(0.241315458899,-3.027614223871E-03,0.));
#34 = CARTESIAN_POINT('',(0.499993747279,1.085059395447E-03,0.));
#35 = CARTESIAN_POINT('',(0.532453362592,4.758485441558E-03,0.));
#36 = CARTESIAN_POINT('',(0.577277370007,3.091885801418E-03,0.));
#37 = CARTESIAN_POINT('',(0.590397286268,-3.700101585243E-03,0.));
#38 = CARTESIAN_POINT('',(0.634961688096,-2.41998895587E-03,0.));
#39 = CARTESIAN_POINT('',(0.745203859328,-1.916609443409E-04,0.));
#40 = CARTESIAN_POINT('',(0.783783418792,2.096239377793E-03,0.));
#41 = CARTESIAN_POINT('',(0.818559762979,-1.152131635203E-03,0.));
#42 = CARTESIAN_POINT('',(0.866078988135,-2.682985214265E-03,0.));
#43 = CARTESIAN_POINT('',(0.889095948515,-4.748404563885E-03,0.));
#44 = CARTESIAN_POINT('',(1.,-0.,0.));
#45 = PCURVE('',#46,#51);
#46 = PLANE('',#47);
#47 = AXIS2_PLACEMENT_3D('',#48,#49,#50);
#48 = CARTESIAN_POINT('',(0.49933006992,3.125E-02,0.));
#49 = DIRECTION('',(0.,0.,1.));
#50 = DIRECTION('',(1.,0.,-0.));
#51 = DEFINITIONAL_REPRESENTATION('',(#52),#70);
#52 = B_SPLINE_CURVE_WITH_KNOTS('',1,(#53,#54,#55,#56,#57,#58,#59,#60,
    #61,#62,#63,#64,#65,#66,#67,#68,#69),.UNSPECIFIED.,.F.,.F.,(2,1,1,1,
    1,1,1,1,1,1,1,1,1,1,1,1,2),(0.,4.317053646645E-02,8.230553233999E-02
    ,0.103191052892,0.187132480576,0.242558810952,0.500030147976,
    0.532540434497,0.577180486451,0.591883433116,0.636252593383,
    0.745988937359,0.784451094403,0.819211460097,0.866527525631,
    0.889526238583,1.),.UNSPECIFIED.);
#53 = CARTESIAN_POINT('',(-0.49933006992,-3.125E-02));
#54 = CARTESIAN_POINT('',(-0.456088203636,-3.468884003622E-02));
#55 = CARTESIAN_POINT('',(-0.417446678682,-2.739748995088E-02));
#56 = CARTESIAN_POINT('',(-0.398043515571,-3.539328372174E-02));
#57 = CARTESIAN_POINT('',(-0.313697964817,-3.532431415104E-02));
#58 = CARTESIAN_POINT('',(-0.258014611021,-3.427761422387E-02));
#59 = CARTESIAN_POINT('',(6.636773596163E-04,-3.016494060455E-02));
#60 = CARTESIAN_POINT('',(3.312329267238E-02,-2.649151455844E-02));
#61 = CARTESIAN_POINT('',(7.794730008746E-02,-2.815811419858E-02));
#62 = CARTESIAN_POINT('',(9.10672163479E-02,-3.495010158524E-02));
#63 = CARTESIAN_POINT('',(0.135631618177,-3.366998895587E-02));
#64 = CARTESIAN_POINT('',(0.245873789408,-3.144166094434E-02));
#65 = CARTESIAN_POINT('',(0.284453348872,-2.915376062221E-02));
#66 = CARTESIAN_POINT('',(0.319229693059,-3.24021316352E-02));
#67 = CARTESIAN_POINT('',(0.366748918215,-3.393298521427E-02));
#68 = CARTESIAN_POINT('',(0.389765878595,-3.599840456389E-02));
#69 = CARTESIAN_POINT('',(0.50066993008,-3.125E-02));
#70 = ( GEOMETRIC_REPRESENTATION_CONTEXT(2) 
PARAMETRIC_REPRESENTATION_CONTEXT() REPRESENTATION_CONTEXT('2D SPACE',''
  ) );
#71 = ORIENTED_EDGE('',*,*,#72,.T.);
#72 = EDGE_CURVE('',#24,#73,#75,.T.);
#73 = VERTEX_POINT('',#74);
#74 = CARTESIAN_POINT('',(1.,6.25E-02,0.));
#75 = SURFACE_CURVE('',#76,(#80),.PCURVE_S1.);
#76 = LINE('',#77,#78);
#77 = CARTESIAN_POINT('',(1.,-0.,0.));
#78 = VECTOR('',#79,1.);
#79 = DIRECTION('',(0.,1.,0.));
#80 = PCURVE('',#46,#81);
#81 = DEFINITIONAL_REPRESENTATION('',(#82),#86);
#82 = LINE('',#83,#84);
#83 = CARTESIAN_POINT('',(0.50066993008,-3.125E-02));
#84 = VECTOR('',#85,1.);
#85 = DIRECTION('',(0.,1.));
#86 = ( GEOMETRIC_REPRESENTATION_CONTEXT(2) 
PARAMETRIC_REPRESENTATION_CONTEXT() REPRESENTATION_CONTEXT('2D SPACE',''
  ) );
#87 = ORIENTED_EDGE('',*,*,#88,.T.);
#88 = EDGE_CURVE('',#73,#89,#91,.T.);
#89 = VERTEX_POINT('',#90);
#90 = CARTESIAN_POINT('',(0.,6.25E-02,0.));
#91 = SURFACE_CURVE('',#92,(#110),.PCURVE_S1.);
#92 = B_SPLINE_CURVE_WITH_KNOTS('',1,(#93,#94,#95,#96,#97,#98,#99,#100,
    #101,#102,#103,#104,#105,#106,#107,#108,#109),.UNSPECIFIED.,.F.,.F.,
  (2,1,1,1,1,1,1,1,1,1,1,1,1,1,1,1,2),(0.,0.110473761417,0.133472474369,
    0.180788539903,0.215548905597,0.254011062641,0.363747406617,
    0.408116566884,0.422819513549,0.467459565503,0.499969852024,
    0.757441189048,0.812867519424,0.896808947108,0.91769446766,
    0.956829463534,1.),.UNSPECIFIED.);
#93 = CARTESIAN_POINT('',(1.,6.25E-02,0.));
#94 = CARTESIAN_POINT('',(0.889095948515,6.724840456389E-02,0.));
#95 = CARTESIAN_POINT('',(0.866078988135,6.518298521427E-02,0.));
#96 = CARTESIAN_POINT('',(0.818559762979,6.36521316352E-02,0.));
#97 = CARTESIAN_POINT('',(0.783783418792,6.040376062221E-02,0.));
#98 = CARTESIAN_POINT('',(0.745203859328,6.269166094434E-02,0.));
#99 = CARTESIAN_POINT('',(0.634961688096,6.491998895587E-02,0.));
#100 = CARTESIAN_POINT('',(0.590397286268,6.620010158524E-02,0.));
#101 = CARTESIAN_POINT('',(0.577277370007,5.940811419858E-02,0.));
#102 = CARTESIAN_POINT('',(0.532453362592,5.774151455844E-02,0.));
#103 = CARTESIAN_POINT('',(0.499993747279,6.141494060455E-02,0.));
#104 = CARTESIAN_POINT('',(0.241315458899,6.552761422387E-02,0.));
#105 = CARTESIAN_POINT('',(0.185632105103,6.657431415104E-02,0.));
#106 = CARTESIAN_POINT('',(0.101286554349,6.664328372174E-02,0.));
#107 = CARTESIAN_POINT('',(8.188339123804E-02,5.864748995088E-02,0.));
#108 = CARTESIAN_POINT('',(4.324186628386E-02,6.593884003622E-02,0.));
#109 = CARTESIAN_POINT('',(0.,6.25E-02,0.));
#110 = PCURVE('',#46,#111);
#111 = DEFINITIONAL_REPRESENTATION('',(#112),#130);
#112 = B_SPLINE_CURVE_WITH_KNOTS('',1,(#113,#114,#115,#116,#117,#118,
    #119,#120,#121,#122,#123,#124,#125,#126,#127,#128,#129),
  .UNSPECIFIED.,.F.,.F.,(2,1,1,1,1,1,1,1,1,1,1,1,1,1,1,1,2),(0.,
    0.110473761417,0.133472474369,0.180788539903,0.215548905597,
    0.254011062641,0.363747406617,0.408116566884,0.422819513549,
    0.467459565503,0.499969852024,0.757441189048,0.812867519424,
    0.896808947108,0.91769446766,0.956829463534,1.),.UNSPECIFIED.);
#113 = CARTESIAN_POINT('',(0.50066993008,3.125E-02));
#114 = CARTESIAN_POINT('',(0.389765878595,3.599840456389E-02));
#115 = CARTESIAN_POINT('',(0.366748918215,3.393298521427E-02));
#116 = CARTESIAN_POINT('',(0.319229693059,3.24021316352E-02));
#117 = CARTESIAN_POINT('',(0.284453348872,2.915376062221E-02));
#118 = CARTESIAN_POINT('',(0.245873789408,3.144166094434E-02));
#119 = CARTESIAN_POINT('',(0.135631618177,3.366998895587E-02));
#120 = CARTESIAN_POINT('',(9.10672163479E-02,3.495010158524E-02));
#121 = CARTESIAN_POINT('',(7.794730008746E-02,2.815811419858E-02));
#122 = CARTESIAN_POINT('',(3.312329267238E-02,2.649151455844E-02));
#123 = CARTESIAN_POINT('',(6.636773596163E-04,3.016494060455E-02));
#124 = CARTESIAN_POINT('',(-0.258014611021,3.427761422387E-02));
#125 = CARTESIAN_POINT('',(-0.313697964817,3.532431415104E-02));
#126 = CARTESIAN_POINT('',(-0.398043515571,3.539328372174E-02));
#127 = CARTESIAN_POINT('',(-0.417446678682,2.739748995088E-02));
#128 = CARTESIAN_POINT('',(-0.456088203636,3.468884003622E-02));
#129 = CARTESIAN_POINT('',(-0.49933006992,3.125E-02));
#130 = ( GEOMETRIC_REPRESENTATION_CONTEXT(2) 
PARAMETRIC_REPRESENTATION_CONTEXT() REPRESENTATION_CONTEXT('2D SPACE',''
  ) );
#131 = ORIENTED_EDGE('',*,*,#132,.T.);
#132 = EDGE_CURVE('',#89,#22,#133,.T.);
#133 = SURFACE_CURVE('',#134,(#138),.PCURVE_S1.);
#134 = LINE('',#135,#136);
#135 = CARTESIAN_POINT('',(0.,6.25E-02,0.));
#136 = VECTOR('',#137,1.);
#137 = DIRECTION('',(0.,-1.,0.));
#138 = PCURVE('',#46,#139);
#139 = DEFINITIONAL_REPRESENTATION('',(#140),#144);
#140 = LINE('',#141,#142);
#141 = CARTESIAN_POINT('',(-0.49933006992,3.125E-02));
#142 = VECTOR('',#143,1.);
#143 = DIRECTION('',(0.,-1.));
#144 = ( GEOMETRIC_REPRESENTATION_CONTEXT(2) 
PARAMETRIC_REPRESENTATION_CONTEXT() REPRESENTATION_CONTEXT('2D SPACE',''
  ) );
#145 = ( GEOMETRIC_REPRESENTATION_CONTEXT(3) 
GLOBAL_UNCERTAINTY_ASSIGNED_CONTEXT((#149)) GLOBAL_UNIT_ASSIGNED_CONTEXT
((#146,#147,#148)) REPRESENTATION_CONTEXT('Context #1',
  '3D Context with UNIT and UNCERTAINTY') );
#146 = ( LENGTH_UNIT() NAMED_UNIT(*) SI_UNIT(.MILLI.,.METRE.) );
#147 = ( NAMED_UNIT(*) PLANE_ANGLE_UNIT() SI_UNIT($,.RADIAN.) );
#148 = ( NAMED_UNIT(*) SI_UNIT($,.STERADIAN.) SOLID_ANGLE_UNIT() );
#149 = UNCERTAINTY_MEASURE_WITH_UNIT(LENGTH_MEASURE(1.E-07),#146,
  'distance_accuracy_value','confusion accuracy');
#150 = PRODUCT_RELATED_PRODUCT_CATEGORY('part',$,(#7));
ENDSEC;
END-ISO-10303-21;
