ISO-10303-21;
HEADER;
FILE_DESCRIPTION(('Open CASCADE Model'),'2;1');
FILE_NAME('Open CASCADE Shape Model','2026-07-21T00:13:23',('Author'),(
    'Open CASCADE'),'Open CASCADE STEP processor 7.9','Open CASCADE 7.9'
  ,'Unknown');
FILE_SCHEMA(('AUTOMOTIVE_DESIGN { 1 0 10303 214 1 1 1 1 }'));
ENDSEC;
DATA;
#1 = APPLICATION_PROTOCOL_DEFINITION('international standard',
  'automotive_design',2000,#2);
#2 = APPLICATION_CONTEXT(
  'core data for automotive mechanical design processes');
#3 = SHAPE_DEFINITION_REPRESENTATION(#4,#10);
#4 = PRODUCT_DEFINITION_SHAPE('','',#5);
#5 = PRODUCT_DEFINITION('design','',#6,#9);
#6 = PRODUCT_DEFINITION_FORMATION('','',#7);
#7 = PRODUCT('Open CASCADE STEP translator 7.9 11',
  'Open CASCADE STEP translator 7.9 11','',(#8));
#8 = PRODUCT_CONTEXT('',#2,'mechanical');
#9 = PRODUCT_DEFINITION_CONTEXT('part definition',#2,'design');
#10 = MANIFOLD_SURFACE_SHAPE_REPRESENTATION('',(#11,#15),#161);
#11 = AXIS2_PLACEMENT_3D('',#12,#13,#14);
#12 = CARTESIAN_POINT('',(0.,0.,0.));
#13 = DIRECTION('',(0.,0.,1.));
#14 = DIRECTION('',(1.,0.,-0.));
#15 = SHELL_BASED_SURFACE_MODEL('',(#16));
#16 = OPEN_SHELL('',(#17));
#17 = ADVANCED_FACE('',(#18),#50,.T.);
#18 = FACE_BOUND('',#19,.T.);
#19 = EDGE_LOOP('',(#20,#79,#95,#147));
#20 = ORIENTED_EDGE('',*,*,#21,.T.);
#21 = EDGE_CURVE('',#22,#24,#26,.T.);
#22 = VERTEX_POINT('',#23);
#23 = CARTESIAN_POINT('',(0.,0.,0.));
#24 = VERTEX_POINT('',#25);
#25 = CARTESIAN_POINT('',(2.,0.,0.));
#26 = SURFACE_CURVE('',#27,(#49),.PCURVE_S1.);
#27 = B_SPLINE_CURVE_WITH_KNOTS('',1,(#28,#29,#30,#31,#32,#33,#34,#35,
    #36,#37,#38,#39,#40,#41,#42,#43,#44,#45,#46,#47,#48),.UNSPECIFIED.,
  .F.,.F.,(2,1,1,1,1,1,1,1,1,1,1,1,1,1,1,1,1,1,1,1,2),(0.,
    1.704440299909E-02,9.925681663386E-02,0.15788504599,0.180313869797,
    0.197973274597,0.228147688794,0.249621606799,0.262467865437,
    0.291452386296,0.386217003328,0.434186680185,0.560209830177,
    0.647281814153,0.6993819162,0.779058438587,0.816483880379,
    0.866680639277,0.891004374333,0.909245024435,1.),.UNSPECIFIED.);
#28 = CARTESIAN_POINT('',(0.,-0.,0.));
#29 = CARTESIAN_POINT('',(3.410708593727E-02,4.422371016639E-04,0.));
#30 = CARTESIAN_POINT('',(0.198614396417,2.976366352048E-03,0.));
#31 = CARTESIAN_POINT('',(0.315939021403,1.940433758493E-03,0.));
#32 = CARTESIAN_POINT('',(0.360741237792,-7.92195689419E-04,0.));
#33 = CARTESIAN_POINT('',(0.395852063945,3.232272170608E-03,0.));
#34 = CARTESIAN_POINT('',(0.455854419098,-3.566142840924E-03,0.));
#35 = CARTESIAN_POINT('',(0.498817700497,-2.585195298352E-03,0.));
#36 = CARTESIAN_POINT('',(0.524523189106,-2.194629559509E-03,0.));
#37 = CARTESIAN_POINT('',(0.582456963202,6.79069602249E-04,0.));
#38 = CARTESIAN_POINT('',(0.772093723381,-1.273088407024E-03,0.));
#39 = CARTESIAN_POINT('',(0.868091620232,-8.409796891274E-04,0.));
#40 = CARTESIAN_POINT('',(1.120293419231,-1.498466015548E-03,0.));
#41 = CARTESIAN_POINT('',(1.294453663483,4.155556788601E-03,0.));
#42 = CARTESIAN_POINT('',(1.398665839419,8.419259782939E-04,0.));
#43 = CARTESIAN_POINT('',(1.558073825414,4.583858261381E-03,0.));
#44 = CARTESIAN_POINT('',(1.632834400859,6.009180755481E-05,0.));
#45 = CARTESIAN_POINT('',(1.733276788378,1.701387876672E-03,0.));
#46 = CARTESIAN_POINT('',(1.781919141041,3.55475811134E-03,0.));
#47 = CARTESIAN_POINT('',(1.818420756091,3.965970322774E-03,0.));
#48 = CARTESIAN_POINT('',(2.,-0.,0.));
#49 = PCURVE('',#50,#55);
#50 = PLANE('',#51);
#51 = AXIS2_PLACEMENT_3D('',#52,#53,#54);
#52 = CARTESIAN_POINT('',(0.999872652752,5.E-02,0.));
#53 = DIRECTION('',(0.,0.,1.));
#54 = DIRECTION('',(1.,0.,-0.));
#55 = DEFINITIONAL_REPRESENTATION('',(#56),#78);
#56 = B_SPLINE_CURVE_WITH_KNOTS('',1,(#57,#58,#59,#60,#61,#62,#63,#64,
    #65,#66,#67,#68,#69,#70,#71,#72,#73,#74,#75,#76,#77),.UNSPECIFIED.,
  .F.,.F.,(2,1,1,1,1,1,1,1,1,1,1,1,1,1,1,1,1,1,1,1,2),(0.,
    1.704440299909E-02,9.925681663386E-02,0.15788504599,0.180313869797,
    0.197973274597,0.228147688794,0.249621606799,0.262467865437,
    0.291452386296,0.386217003328,0.434186680185,0.560209830177,
    0.647281814153,0.6993819162,0.779058438587,0.816483880379,
    0.866680639277,0.891004374333,0.909245024435,1.),.UNSPECIFIED.);
#57 = CARTESIAN_POINT('',(-0.999872652752,-5.E-02));
#58 = CARTESIAN_POINT('',(-0.965765566814,-4.955776289834E-02));
#59 = CARTESIAN_POINT('',(-0.801258256335,-4.702363364795E-02));
#60 = CARTESIAN_POINT('',(-0.683933631349,-4.805956624151E-02));
#61 = CARTESIAN_POINT('',(-0.63913141496,-5.079219568942E-02));
#62 = CARTESIAN_POINT('',(-0.604020588807,-4.676772782939E-02));
#63 = CARTESIAN_POINT('',(-0.544018233653,-5.356614284092E-02));
#64 = CARTESIAN_POINT('',(-0.501054952255,-5.258519529835E-02));
#65 = CARTESIAN_POINT('',(-0.475349463646,-5.219462955951E-02));
#66 = CARTESIAN_POINT('',(-0.417415689549,-4.932093039775E-02));
#67 = CARTESIAN_POINT('',(-0.227778929371,-5.127308840702E-02));
#68 = CARTESIAN_POINT('',(-0.13178103252,-5.084097968913E-02));
#69 = CARTESIAN_POINT('',(0.120420766479,-5.149846601555E-02));
#70 = CARTESIAN_POINT('',(0.294581010731,-4.58444432114E-02));
#71 = CARTESIAN_POINT('',(0.398793186667,-4.915807402171E-02));
#72 = CARTESIAN_POINT('',(0.558201172662,-4.541614173862E-02));
#73 = CARTESIAN_POINT('',(0.632961748107,-4.993990819245E-02));
#74 = CARTESIAN_POINT('',(0.733404135626,-4.829861212333E-02));
#75 = CARTESIAN_POINT('',(0.78204648829,-4.644524188866E-02));
#76 = CARTESIAN_POINT('',(0.818548103339,-4.603402967723E-02));
#77 = CARTESIAN_POINT('',(1.000127347248,-5.E-02));
#78 = ( GEOMETRIC_REPRESENTATION_CONTEXT(2) 
PARAMETRIC_REPRESENTATION_CONTEXT() REPRESENTATION_CONTEXT('2D SPACE',''
  ) );
#79 = ORIENTED_EDGE('',*,*,#80,.T.);
#80 = EDGE_CURVE('',#24,#81,#83,.T.);
#81 = VERTEX_POINT('',#82);
#82 = CARTESIAN_POINT('',(2.,0.1,0.));
#83 = SURFACE_CURVE('',#84,(#88),.PCURVE_S1.);
#84 = LINE('',#85,#86);
#85 = CARTESIAN_POINT('',(2.,-0.,0.));
#86 = VECTOR('',#87,1.);
#87 = DIRECTION('',(0.,1.,0.));
#88 = PCURVE('',#50,#89);
#89 = DEFINITIONAL_REPRESENTATION('',(#90),#94);
#90 = LINE('',#91,#92);
#91 = CARTESIAN_POINT('',(1.000127347248,-5.E-02));
#92 = VECTOR('',#93,1.);
#93 = DIRECTION('',(0.,1.));
#94 = ( GEOMETRIC_REPRESENTATION_CONTEXT(2) 
PARAMETRIC_REPRESENTATION_CONTEXT() REPRESENTATION_CONTEXT('2D SPACE',''
  ) );
#95 = ORIENTED_EDGE('',*,*,#96,.T.);
#96 = EDGE_CURVE('',#81,#97,#99,.T.);
#97 = VERTEX_POINT('',#98);
#98 = CARTESIAN_POINT('',(0.,0.1,0.));
#99 = SURFACE_CURVE('',#100,(#122),.PCURVE_S1.);
#100 = B_SPLINE_CURVE_WITH_KNOTS('',1,(#101,#102,#103,#104,#105,#106,
    #107,#108,#109,#110,#111,#112,#113,#114,#115,#116,#117,#118,#119,
    #120,#121),.UNSPECIFIED.,.F.,.F.,(2,1,1,1,1,1,1,1,1,1,1,1,1,1,1,1,1,
    1,1,1,2),(0.,9.075497556532E-02,0.108995625667,0.133319360723,
    0.183516119621,0.220941561413,0.3006180838,0.352718185847,
    0.439790169823,0.565813319815,0.613782996672,0.708547613704,
    0.737532134563,0.750378393201,0.771852311206,0.802026725403,
    0.819686130203,0.84211495401,0.900743183366,0.982955597001,1.),
  .UNSPECIFIED.);
#101 = CARTESIAN_POINT('',(2.,0.1,0.));
#102 = CARTESIAN_POINT('',(1.818420756091,9.603402967723E-02,0.));
#103 = CARTESIAN_POINT('',(1.781919141041,9.644524188866E-02,0.));
#104 = CARTESIAN_POINT('',(1.733276788378,9.829861212333E-02,0.));
#105 = CARTESIAN_POINT('',(1.632834400859,9.993990819245E-02,0.));
#106 = CARTESIAN_POINT('',(1.558073825414,9.541614173862E-02,0.));
#107 = CARTESIAN_POINT('',(1.398665839419,9.915807402171E-02,0.));
#108 = CARTESIAN_POINT('',(1.294453663483,9.58444432114E-02,0.));
#109 = CARTESIAN_POINT('',(1.120293419231,0.101498466016,0.));
#110 = CARTESIAN_POINT('',(0.868091620232,0.100840979689,0.));
#111 = CARTESIAN_POINT('',(0.772093723381,0.101273088407,0.));
#112 = CARTESIAN_POINT('',(0.582456963202,9.932093039775E-02,0.));
#113 = CARTESIAN_POINT('',(0.524523189106,0.10219462956,0.));
#114 = CARTESIAN_POINT('',(0.498817700497,0.102585195298,0.));
#115 = CARTESIAN_POINT('',(0.455854419098,0.103566142841,0.));
#116 = CARTESIAN_POINT('',(0.395852063945,9.676772782939E-02,0.));
#117 = CARTESIAN_POINT('',(0.360741237792,0.100792195689,0.));
#118 = CARTESIAN_POINT('',(0.315939021403,9.805956624151E-02,0.));
#119 = CARTESIAN_POINT('',(0.198614396417,9.702363364795E-02,0.));
#120 = CARTESIAN_POINT('',(3.410708593727E-02,9.955776289834E-02,0.));
#121 = CARTESIAN_POINT('',(0.,0.1,0.));
#122 = PCURVE('',#50,#123);
#123 = DEFINITIONAL_REPRESENTATION('',(#124),#146);
#124 = B_SPLINE_CURVE_WITH_KNOTS('',1,(#125,#126,#127,#128,#129,#130,
    #131,#132,#133,#134,#135,#136,#137,#138,#139,#140,#141,#142,#143,
    #144,#145),.UNSPECIFIED.,.F.,.F.,(2,1,1,1,1,1,1,1,1,1,1,1,1,1,1,1,1,
    1,1,1,2),(0.,9.075497556532E-02,0.108995625667,0.133319360723,
    0.183516119621,0.220941561413,0.3006180838,0.352718185847,
    0.439790169823,0.565813319815,0.613782996672,0.708547613704,
    0.737532134563,0.750378393201,0.771852311206,0.802026725403,
    0.819686130203,0.84211495401,0.900743183366,0.982955597001,1.),
  .UNSPECIFIED.);
#125 = CARTESIAN_POINT('',(1.000127347248,5.E-02));
#126 = CARTESIAN_POINT('',(0.818548103339,4.603402967723E-02));
#127 = CARTESIAN_POINT('',(0.78204648829,4.644524188866E-02));
#128 = CARTESIAN_POINT('',(0.733404135626,4.829861212333E-02));
#129 = CARTESIAN_POINT('',(0.632961748107,4.993990819245E-02));
#130 = CARTESIAN_POINT('',(0.558201172662,4.541614173862E-02));
#131 = CARTESIAN_POINT('',(0.398793186667,4.915807402171E-02));
#132 = CARTESIAN_POINT('',(0.294581010731,4.58444432114E-02));
#133 = CARTESIAN_POINT('',(0.120420766479,5.149846601555E-02));
#134 = CARTESIAN_POINT('',(-0.13178103252,5.084097968913E-02));
#135 = CARTESIAN_POINT('',(-0.227778929371,5.127308840702E-02));
#136 = CARTESIAN_POINT('',(-0.417415689549,4.932093039775E-02));
#137 = CARTESIAN_POINT('',(-0.475349463646,5.219462955951E-02));
#138 = CARTESIAN_POINT('',(-0.501054952255,5.258519529835E-02));
#139 = CARTESIAN_POINT('',(-0.544018233653,5.356614284092E-02));
#140 = CARTESIAN_POINT('',(-0.604020588807,4.676772782939E-02));
#141 = CARTESIAN_POINT('',(-0.63913141496,5.079219568942E-02));
#142 = CARTESIAN_POINT('',(-0.683933631349,4.805956624151E-02));
#143 = CARTESIAN_POINT('',(-0.801258256335,4.702363364795E-02));
#144 = CARTESIAN_POINT('',(-0.965765566814,4.955776289834E-02));
#145 = CARTESIAN_POINT('',(-0.999872652752,5.E-02));
#146 = ( GEOMETRIC_REPRESENTATION_CONTEXT(2) 
PARAMETRIC_REPRESENTATION_CONTEXT() REPRESENTATION_CONTEXT('2D SPACE',''
  ) );
#147 = ORIENTED_EDGE('',*,*,#148,.T.);
#148 = EDGE_CURVE('',#97,#22,#149,.T.);
#149 = SURFACE_CURVE('',#150,(#154),.PCURVE_S1.);
#150 = LINE('',#151,#152);
#151 = CARTESIAN_POINT('',(0.,0.1,0.));
#152 = VECTOR('',#153,1.);
#153 = DIRECTION('',(0.,-1.,0.));
#154 = PCURVE('',#50,#155);
#155 = DEFINITIONAL_REPRESENTATION('',(#156),#160);
#156 = LINE('',#157,#158);
#157 = CARTESIAN_POINT('',(-0.999872652752,5.E-02));
#158 = VECTOR('',#159,1.);
#159 = DIRECTION('',(0.,-1.));
#160 = ( GEOMETRIC_REPRESENTATION_CONTEXT(2) 
PARAMETRIC_REPRESENTATION_CONTEXT() REPRESENTATION_CONTEXT('2D SPACE',''
  ) );
#161 = ( GEOMETRIC_REPRESENTATION_CONTEXT(3) 
GLOBAL_UNCERTAINTY_ASSIGNED_CONTEXT((#165)) GLOBAL_UNIT_ASSIGNED_CONTEXT
((#162,#163,#164)) REPRESENTATION_CONTEXT('Context #1',
  '3D Context with UNIT and UNCERTAINTY') );
#162 = ( LENGTH_UNIT() NAMED_UNIT(*) SI_UNIT(.MILLI.,.METRE.) );
#163 = ( NAMED_UNIT(*) PLANE_ANGLE_UNIT() SI_UNIT($,.RADIAN.) );
#164 = ( NAMED_UNIT(*) SI_UNIT($,.STERADIAN.) SOLID_ANGLE_UNIT() );
#165 = UNCERTAINTY_MEASURE_WITH_UNIT(LENGTH_MEASURE(1.E-07),#162,
  'distance_accuracy_value','confusion accuracy');
#166 = PRODUCT_RELATED_PRODUCT_CATEGORY('part',$,(#7));
ENDSEC;
END-ISO-10303-21;
