ISO-10303-21;
HEADER;
FILE_DESCRIPTION(('Open CASCADE Model'),'2;1');
FILE_NAME('Open CASCADE Shape Model','2026-08-17T20:30:05',('Author'),(
    'Open CASCADE'),'Open CASCADE STEP processor 7.9','Open CASCADE 7.9'
  ,'Unknown');
FILE_SCHEMA(('AUTOMOTIVE_DESIGN { 1 0 10303 214 1 1 1 1 }'));
ENDSEC;
DATA;
#1 = APPLICATION_PROTOCOL_DEFINITION('international standard',
  'automotive_design',2000,#2);
#2 = APPLICATION_CONTEXT(
  'core data for automotive mechanical design processes');
#3 = SHAPE_DEFINITION_REPRESENTATION(#4,#10);
#4 = PRODUCT_DEFINITION_SHAPE('','',#5);
#5 = PRODUCT_DEFINITION('design','',#6,#9);
#6 = PRODUCT_DEFINITION_FORMATION('','',#7);
#7 = PRODUCT('Open CASCADE STEP translator 7.9 76',
  'Open CASCADE STEP translator 7.9 76','',(#8));
#8 = PRODUCT_CONTEXT('',#2,'mechanical');
#9 = PRODUCT_DEFINITION_CONTEXT('part definition',#2,'design');
#10 = MANIFOLD_SURFACE_SHAPE_REPRESENTATION('',(#11,#15),#145);
#11 = AXIS2_PLACEMENT_3D('',#12,#13,#14);
#12 = CARTESIAN_POINT('',(0.,0.,0.));
#13 = DIRECTION('',(0.,0.,1.));
#14 = DIRECTION('',(1.,0.,-0.));
#15 = SHELL_BASED_SURFACE_MODEL('',(#16));
#16 = OPEN_SHELL('',(#17));
#17 = ADVANCED_FACE('',(#18),#46,.T.);
#18 = FACE_BOUND('',#19,.T.);
#19 = EDGE_LOOP('',(#20,#71,#87,#131));
#20 = ORIENTED_EDGE('',*,*,#21,.T.);
#21 = EDGE_CURVE('',#22,#24,#26,.T.);
#22 = VERTEX_POINT('',#23);
#23 = CARTESIAN_POINT('',(0.,0.,0.));
#24 = VERTEX_POINT('',#25);
#25 = CARTESIAN_POINT('',(1.,0.,0.));
#26 = SURFACE_CURVE('',#27,(#45),.PCURVE_S1.);
#27 = B_SPLINE_CURVE_WITH_KNOTS('',1,(#28,#29,#30,#31,#32,#33,#34,#35,
    #36,#37,#38,#39,#40,#41,#42,#43,#44),.UNSPECIFIED.,.F.,.F.,(2,1,1,1,
    1,1,1,1,1,1,1,1,1,1,1,1,2),(0.,0.163226036373,0.186918249595,
    0.237290963603,0.278109493616,0.509135796664,0.561168806308,
    0.592614372635,0.636165456326,0.679449043274,0.698296965566,
    0.716880169549,0.817825455335,0.898788491599,0.913080891913,
    0.974330157998,1.),.UNSPECIFIED.);
#28 = CARTESIAN_POINT('',(0.,-0.,0.));
#29 = CARTESIAN_POINT('',(0.16380365395,-1.293589835778E-03,0.));
#30 = CARTESIAN_POINT('',(0.187365203034,1.898496614382E-03,0.));
#31 = CARTESIAN_POINT('',(0.237578454211,-3.948676543693E-03,0.));
#32 = CARTESIAN_POINT('',(0.277664930675,4.486045304498E-03,0.));
#33 = CARTESIAN_POINT('',(0.50933202854,-4.748592487133E-03,0.));
#34 = CARTESIAN_POINT('',(0.561383683778,-5.74248794442E-04,0.));
#35 = CARTESIAN_POINT('',(0.592613575173,3.963419178789E-03,0.));
#36 = CARTESIAN_POINT('',(0.63574263096,-3.118121811513E-03,0.));
#37 = CARTESIAN_POINT('',(0.679120320901,-8.278044733105E-04,0.));
#38 = CARTESIAN_POINT('',(0.698028334922,-3.060878923139E-04,0.));
#39 = CARTESIAN_POINT('',(0.716507441063,-2.821686986567E-03,0.));
#40 = CARTESIAN_POINT('',(0.817794718564,-4.751793544152E-03,0.));
#41 = CARTESIAN_POINT('',(0.898934440181,-4.802794323009E-04,0.));
#42 = CARTESIAN_POINT('',(0.912910493177,-3.705768710299E-03,0.));
#43 = CARTESIAN_POINT('',(0.974241531982,3.942300335182E-04,0.));
#44 = CARTESIAN_POINT('',(1.,-0.,0.));
#45 = PCURVE('',#46,#51);
#46 = PLANE('',#47);
#47 = AXIS2_PLACEMENT_3D('',#48,#49,#50);
#48 = CARTESIAN_POINT('',(0.499998045393,3.125E-02,0.));
#49 = DIRECTION('',(0.,0.,1.));
#50 = DIRECTION('',(1.,0.,-0.));
#51 = DEFINITIONAL_REPRESENTATION('',(#52),#70);
#52 = B_SPLINE_CURVE_WITH_KNOTS('',1,(#53,#54,#55,#56,#57,#58,#59,#60,
    #61,#62,#63,#64,#65,#66,#67,#68,#69),.UNSPECIFIED.,.F.,.F.,(2,1,1,1,
    1,1,1,1,1,1,1,1,1,1,1,1,2),(0.,0.163226036373,0.186918249595,
    0.237290963603,0.278109493616,0.509135796664,0.561168806308,
    0.592614372635,0.636165456326,0.679449043274,0.698296965566,
    0.716880169549,0.817825455335,0.898788491599,0.913080891913,
    0.974330157998,1.),.UNSPECIFIED.);
#53 = CARTESIAN_POINT('',(-0.499998045393,-3.125E-02));
#54 = CARTESIAN_POINT('',(-0.336194391443,-3.254358983578E-02));
#55 = CARTESIAN_POINT('',(-0.31263284236,-2.935150338562E-02));
#56 = CARTESIAN_POINT('',(-0.262419591182,-3.519867654369E-02));
#57 = CARTESIAN_POINT('',(-0.222333114719,-2.67639546955E-02));
#58 = CARTESIAN_POINT('',(9.333983146907E-03,-3.599859248713E-02));
#59 = CARTESIAN_POINT('',(6.138563838446E-02,-3.182424879444E-02));
#60 = CARTESIAN_POINT('',(9.261552977984E-02,-2.728658082121E-02));
#61 = CARTESIAN_POINT('',(0.135744585567,-3.436812181151E-02));
#62 = CARTESIAN_POINT('',(0.179122275507,-3.207780447331E-02));
#63 = CARTESIAN_POINT('',(0.198030289529,-3.155608789231E-02));
#64 = CARTESIAN_POINT('',(0.21650939567,-3.407168698657E-02));
#65 = CARTESIAN_POINT('',(0.317796673171,-3.600179354415E-02));
#66 = CARTESIAN_POINT('',(0.398936394788,-3.17302794323E-02));
#67 = CARTESIAN_POINT('',(0.412912447784,-3.49557687103E-02));
#68 = CARTESIAN_POINT('',(0.474243486588,-3.085576996648E-02));
#69 = CARTESIAN_POINT('',(0.500001954607,-3.125E-02));
#70 = ( GEOMETRIC_REPRESENTATION_CONTEXT(2) 
PARAMETRIC_REPRESENTATION_CONTEXT() REPRESENTATION_CONTEXT('2D SPACE',''
  ) );
#71 = ORIENTED_EDGE('',*,*,#72,.T.);
#72 = EDGE_CURVE('',#24,#73,#75,.T.);
#73 = VERTEX_POINT('',#74);
#74 = CARTESIAN_POINT('',(1.,6.25E-02,0.));
#75 = SURFACE_CURVE('',#76,(#80),.PCURVE_S1.);
#76 = LINE('',#77,#78);
#77 = CARTESIAN_POINT('',(1.,-0.,0.));
#78 = VECTOR('',#79,1.);
#79 = DIRECTION('',(0.,1.,0.));
#80 = PCURVE('',#46,#81);
#81 = DEFINITIONAL_REPRESENTATION('',(#82),#86);
#82 = LINE('',#83,#84);
#83 = CARTESIAN_POINT('',(0.500001954607,-3.125E-02));
#84 = VECTOR('',#85,1.);
#85 = DIRECTION('',(0.,1.));
#86 = ( GEOMETRIC_REPRESENTATION_CONTEXT(2) 
PARAMETRIC_REPRESENTATION_CONTEXT() REPRESENTATION_CONTEXT('2D SPACE',''
  ) );
#87 = ORIENTED_EDGE('',*,*,#88,.T.);
#88 = EDGE_CURVE('',#73,#89,#91,.T.);
#89 = VERTEX_POINT('',#90);
#90 = CARTESIAN_POINT('',(0.,6.25E-02,0.));
#91 = SURFACE_CURVE('',#92,(#110),.PCURVE_S1.);
#92 = B_SPLINE_CURVE_WITH_KNOTS('',1,(#93,#94,#95,#96,#97,#98,#99,#100,
    #101,#102,#103,#104,#105,#106,#107,#108,#109),.UNSPECIFIED.,.F.,.F.,
  (2,1,1,1,1,1,1,1,1,1,1,1,1,1,1,1,2),(0.,2.566984200241E-02,
    8.691910808694E-02,0.101211508401,0.182174544665,0.283119830451,
    0.301703034434,0.320550956726,0.363834543674,0.407385627365,
    0.438831193692,0.490864203336,0.721890506384,0.762709036397,
    0.813081750405,0.836773963627,1.),.UNSPECIFIED.);
#93 = CARTESIAN_POINT('',(1.,6.25E-02,0.));
#94 = CARTESIAN_POINT('',(0.974241531982,6.210576996648E-02,0.));
#95 = CARTESIAN_POINT('',(0.912910493177,6.62057687103E-02,0.));
#96 = CARTESIAN_POINT('',(0.898934440181,6.29802794323E-02,0.));
#97 = CARTESIAN_POINT('',(0.817794718564,6.725179354415E-02,0.));
#98 = CARTESIAN_POINT('',(0.716507441063,6.532168698657E-02,0.));
#99 = CARTESIAN_POINT('',(0.698028334922,6.280608789231E-02,0.));
#100 = CARTESIAN_POINT('',(0.679120320901,6.332780447331E-02,0.));
#101 = CARTESIAN_POINT('',(0.63574263096,6.561812181151E-02,0.));
#102 = CARTESIAN_POINT('',(0.592613575173,5.853658082121E-02,0.));
#103 = CARTESIAN_POINT('',(0.561383683778,6.307424879444E-02,0.));
#104 = CARTESIAN_POINT('',(0.50933202854,6.724859248713E-02,0.));
#105 = CARTESIAN_POINT('',(0.277664930675,5.80139546955E-02,0.));
#106 = CARTESIAN_POINT('',(0.237578454211,6.644867654369E-02,0.));
#107 = CARTESIAN_POINT('',(0.187365203034,6.060150338562E-02,0.));
#108 = CARTESIAN_POINT('',(0.16380365395,6.379358983578E-02,0.));
#109 = CARTESIAN_POINT('',(0.,6.25E-02,0.));
#110 = PCURVE('',#46,#111);
#111 = DEFINITIONAL_REPRESENTATION('',(#112),#130);
#112 = B_SPLINE_CURVE_WITH_KNOTS('',1,(#113,#114,#115,#116,#117,#118,
    #119,#120,#121,#122,#123,#124,#125,#126,#127,#128,#129),
  .UNSPECIFIED.,.F.,.F.,(2,1,1,1,1,1,1,1,1,1,1,1,1,1,1,1,2),(0.,
    2.566984200241E-02,8.691910808694E-02,0.101211508401,0.182174544665,
    0.283119830451,0.301703034434,0.320550956726,0.363834543674,
    0.407385627365,0.438831193692,0.490864203336,0.721890506384,
    0.762709036397,0.813081750405,0.836773963627,1.),.UNSPECIFIED.);
#113 = CARTESIAN_POINT('',(0.500001954607,3.125E-02));
#114 = CARTESIAN_POINT('',(0.474243486588,3.085576996648E-02));
#115 = CARTESIAN_POINT('',(0.412912447784,3.49557687103E-02));
#116 = CARTESIAN_POINT('',(0.398936394788,3.17302794323E-02));
#117 = CARTESIAN_POINT('',(0.317796673171,3.600179354415E-02));
#118 = CARTESIAN_POINT('',(0.21650939567,3.407168698657E-02));
#119 = CARTESIAN_POINT('',(0.198030289529,3.155608789231E-02));
#120 = CARTESIAN_POINT('',(0.179122275507,3.207780447331E-02));
#121 = CARTESIAN_POINT('',(0.135744585567,3.436812181151E-02));
#122 = CARTESIAN_POINT('',(9.261552977984E-02,2.728658082121E-02));
#123 = CARTESIAN_POINT('',(6.138563838446E-02,3.182424879444E-02));
#124 = CARTESIAN_POINT('',(9.333983146907E-03,3.599859248713E-02));
#125 = CARTESIAN_POINT('',(-0.222333114719,2.67639546955E-02));
#126 = CARTESIAN_POINT('',(-0.262419591182,3.519867654369E-02));
#127 = CARTESIAN_POINT('',(-0.31263284236,2.935150338562E-02));
#128 = CARTESIAN_POINT('',(-0.336194391443,3.254358983578E-02));
#129 = CARTESIAN_POINT('',(-0.499998045393,3.125E-02));
#130 = ( GEOMETRIC_REPRESENTATION_CONTEXT(2) 
PARAMETRIC_REPRESENTATION_CONTEXT() REPRESENTATION_CONTEXT('2D SPACE',''
  ) );
#131 = ORIENTED_EDGE('',*,*,#132,.T.);
#132 = EDGE_CURVE('',#89,#22,#133,.T.);
#133 = SURFACE_CURVE('',#134,(#138),.PCURVE_S1.);
#134 = LINE('',#135,#136);
#135 = CARTESIAN_POINT('',(0.,6.25E-02,0.));
#136 = VECTOR('',#137,1.);
#137 = DIRECTION('',(0.,-1.,0.));
#138 = PCURVE('',#46,#139);
#139 = DEFINITIONAL_REPRESENTATION('',(#140),#144);
#140 = LINE('',#141,#142);
#141 = CARTESIAN_POINT('',(-0.499998045393,3.125E-02));
#142 = VECTOR('',#143,1.);
#143 = DIRECTION('',(0.,-1.));
#144 = ( GEOMETRIC_REPRESENTATION_CONTEXT(2) 
PARAMETRIC_REPRESENTATION_CONTEXT() REPRESENTATION_CONTEXT('2D SPACE',''
  ) );
#145 = ( GEOMETRIC_REPRESENTATION_CONTEXT(3) 
GLOBAL_UNCERTAINTY_ASSIGNED_CONTEXT((#149)) GLOBAL_UNIT_ASSIGNED_CONTEXT
((#146,#147,#148)) REPRESENTATION_CONTEXT('Context #1',
  '3D Context with UNIT and UNCERTAINTY') );
#146 = ( LENGTH_UNIT() NAMED_UNIT(*) SI_UNIT(.MILLI.,.METRE.) );
#147 = ( NAMED_UNIT(*) PLANE_ANGLE_UNIT() SI_UNIT($,.RADIAN.) );
#148 = ( NAMED_UNIT(*) SI_UNIT($,.STERADIAN.) SOLID_ANGLE_UNIT() );
#149 = UNCERTAINTY_MEASURE_WITH_UNIT(LENGTH_MEASURE(1.E-07),#146,
  'distance_accuracy_value','confusion accuracy');
#150 = PRODUCT_RELATED_PRODUCT_CATEGORY('part',$,(#7));
ENDSEC;
END-ISO-10303-21;
