ISO-10303-21;
HEADER;
FILE_DESCRIPTION(('Open CASCADE Model'),'2;1');
FILE_NAME('Open CASCADE Shape Model','2026-08-17T20:30:05',('Author'),(
    'Open CASCADE'),'Open CASCADE STEP processor 7.9','Open CASCADE 7.9'
  ,'Unknown');
FILE_SCHEMA(('AUTOMOTIVE_DESIGN { 1 0 10303 214 1 1 1 1 }'));
ENDSEC;
DATA;
#1 = APPLICATION_PROTOCOL_DEFINITION('international standard',
  'automotive_design',2000,#2);
#2 = APPLICATION_CONTEXT(
  'core data for automotive mechanical design processes');
#3 = SHAPE_DEFINITION_REPRESENTATION(#4,#10);
#4 = PRODUCT_DEFINITION_SHAPE('','',#5);
#5 = PRODUCT_DEFINITION('design','',#6,#9);
#6 = PRODUCT_DEFINITION_FORMATION('','',#7);
#7 = PRODUCT('Open CASCADE STEP translator 7.9 88',
  'Open CASCADE STEP translator 7.9 88','',(#8));
#8 = PRODUCT_CONTEXT('',#2,'mechanical');
#9 = PRODUCT_DEFINITION_CONTEXT('part definition',#2,'design');
#10 = MANIFOLD_SURFACE_SHAPE_REPRESENTATION('',(#11,#15),#145);
#11 = AXIS2_PLACEMENT_3D('',#12,#13,#14);
#12 = CARTESIAN_POINT('',(0.,0.,0.));
#13 = DIRECTION('',(0.,0.,1.));
#14 = DIRECTION('',(1.,0.,-0.));
#15 = SHELL_BASED_SURFACE_MODEL('',(#16));
#16 = OPEN_SHELL('',(#17));
#17 = ADVANCED_FACE('',(#18),#46,.T.);
#18 = FACE_BOUND('',#19,.T.);
#19 = EDGE_LOOP('',(#20,#71,#87,#131));
#20 = ORIENTED_EDGE('',*,*,#21,.T.);
#21 = EDGE_CURVE('',#22,#24,#26,.T.);
#22 = VERTEX_POINT('',#23);
#23 = CARTESIAN_POINT('',(0.,0.,0.));
#24 = VERTEX_POINT('',#25);
#25 = CARTESIAN_POINT('',(1.,0.,0.));
#26 = SURFACE_CURVE('',#27,(#45),.PCURVE_S1.);
#27 = B_SPLINE_CURVE_WITH_KNOTS('',1,(#28,#29,#30,#31,#32,#33,#34,#35,
    #36,#37,#38,#39,#40,#41,#42,#43,#44),.UNSPECIFIED.,.F.,.F.,(2,1,1,1,
    1,1,1,1,1,1,1,1,1,1,1,1,2),(0.,2.773380532872E-02,0.188388444332,
    0.229483051212,0.265370370298,0.308345526584,0.357071939756,
    0.434220582079,0.517301056994,0.556880264787,0.572060703428,
    0.687667552342,0.739992718079,0.765941699783,0.798750437675,
    0.831953750665,1.),.UNSPECIFIED.);
#28 = CARTESIAN_POINT('',(0.,-0.,0.));
#29 = CARTESIAN_POINT('',(2.774475701958E-02,-1.643279972529E-03,0.));
#30 = CARTESIAN_POINT('',(0.188743850372,-2.097142463547E-03,0.));
#31 = CARTESIAN_POINT('',(0.229840314434,5.693639656165E-04,0.));
#32 = CARTESIAN_POINT('',(0.265436190726,-4.56601806156E-03,0.));
#33 = CARTESIAN_POINT('',(0.308219845925,3.701481813343E-04,0.));
#34 = CARTESIAN_POINT('',(0.356850106306,4.794189335349E-03,0.));
#35 = CARTESIAN_POINT('',(0.434038904249,3.896517031034E-04,0.));
#36 = CARTESIAN_POINT('',(0.517227731814,3.805697649576E-03,0.));
#37 = CARTESIAN_POINT('',(0.556403385483,-2.400667980957E-03,0.));
#38 = CARTESIAN_POINT('',(0.571568873812,-1.198685499739E-03,0.));
#39 = CARTESIAN_POINT('',(0.68741167448,4.947814287412E-04,0.));
#40 = CARTESIAN_POINT('',(0.739848814157,2.841354287179E-04,0.));
#41 = CARTESIAN_POINT('',(0.765813382562,1.728684630913E-03,0.));
#42 = CARTESIAN_POINT('',(0.798622110773,-4.230540576652E-04,0.));
#43 = CARTESIAN_POINT('',(0.831634460322,3.746614309354E-03,0.));
#44 = CARTESIAN_POINT('',(1.,-0.,0.));
#45 = PCURVE('',#46,#51);
#46 = PLANE('',#47);
#47 = AXIS2_PLACEMENT_3D('',#48,#49,#50);
#48 = CARTESIAN_POINT('',(0.499907737297,3.125E-02,0.));
#49 = DIRECTION('',(0.,0.,1.));
#50 = DIRECTION('',(1.,0.,-0.));
#51 = DEFINITIONAL_REPRESENTATION('',(#52),#70);
#52 = B_SPLINE_CURVE_WITH_KNOTS('',1,(#53,#54,#55,#56,#57,#58,#59,#60,
    #61,#62,#63,#64,#65,#66,#67,#68,#69),.UNSPECIFIED.,.F.,.F.,(2,1,1,1,
    1,1,1,1,1,1,1,1,1,1,1,1,2),(0.,2.773380532872E-02,0.188388444332,
    0.229483051212,0.265370370298,0.308345526584,0.357071939756,
    0.434220582079,0.517301056994,0.556880264787,0.572060703428,
    0.687667552342,0.739992718079,0.765941699783,0.798750437675,
    0.831953750665,1.),.UNSPECIFIED.);
#53 = CARTESIAN_POINT('',(-0.499907737297,-3.125E-02));
#54 = CARTESIAN_POINT('',(-0.472162980278,-3.289327997253E-02));
#55 = CARTESIAN_POINT('',(-0.311163886925,-3.334714246355E-02));
#56 = CARTESIAN_POINT('',(-0.270067422863,-3.068063603438E-02));
#57 = CARTESIAN_POINT('',(-0.234471546571,-3.581601806156E-02));
#58 = CARTESIAN_POINT('',(-0.191687891372,-3.087985181867E-02));
#59 = CARTESIAN_POINT('',(-0.143057630991,-2.645581066465E-02));
#60 = CARTESIAN_POINT('',(-6.58688330478E-02,-3.08603482969E-02));
#61 = CARTESIAN_POINT('',(1.731999451713E-02,-2.744430235042E-02));
#62 = CARTESIAN_POINT('',(5.649564818614E-02,-3.365066798096E-02));
#63 = CARTESIAN_POINT('',(7.166113651506E-02,-3.244868549974E-02));
#64 = CARTESIAN_POINT('',(0.187503937183,-3.075521857126E-02));
#65 = CARTESIAN_POINT('',(0.23994107686,-3.096586457128E-02));
#66 = CARTESIAN_POINT('',(0.265905645265,-2.952131536909E-02));
#67 = CARTESIAN_POINT('',(0.298714373475,-3.167305405767E-02));
#68 = CARTESIAN_POINT('',(0.331726723025,-2.750338569065E-02));
#69 = CARTESIAN_POINT('',(0.500092262703,-3.125E-02));
#70 = ( GEOMETRIC_REPRESENTATION_CONTEXT(2) 
PARAMETRIC_REPRESENTATION_CONTEXT() REPRESENTATION_CONTEXT('2D SPACE',''
  ) );
#71 = ORIENTED_EDGE('',*,*,#72,.T.);
#72 = EDGE_CURVE('',#24,#73,#75,.T.);
#73 = VERTEX_POINT('',#74);
#74 = CARTESIAN_POINT('',(1.,6.25E-02,0.));
#75 = SURFACE_CURVE('',#76,(#80),.PCURVE_S1.);
#76 = LINE('',#77,#78);
#77 = CARTESIAN_POINT('',(1.,-0.,0.));
#78 = VECTOR('',#79,1.);
#79 = DIRECTION('',(0.,1.,0.));
#80 = PCURVE('',#46,#81);
#81 = DEFINITIONAL_REPRESENTATION('',(#82),#86);
#82 = LINE('',#83,#84);
#83 = CARTESIAN_POINT('',(0.500092262703,-3.125E-02));
#84 = VECTOR('',#85,1.);
#85 = DIRECTION('',(0.,1.));
#86 = ( GEOMETRIC_REPRESENTATION_CONTEXT(2) 
PARAMETRIC_REPRESENTATION_CONTEXT() REPRESENTATION_CONTEXT('2D SPACE',''
  ) );
#87 = ORIENTED_EDGE('',*,*,#88,.T.);
#88 = EDGE_CURVE('',#73,#89,#91,.T.);
#89 = VERTEX_POINT('',#90);
#90 = CARTESIAN_POINT('',(0.,6.25E-02,0.));
#91 = SURFACE_CURVE('',#92,(#110),.PCURVE_S1.);
#92 = B_SPLINE_CURVE_WITH_KNOTS('',1,(#93,#94,#95,#96,#97,#98,#99,#100,
    #101,#102,#103,#104,#105,#106,#107,#108,#109),.UNSPECIFIED.,.F.,.F.,
  (2,1,1,1,1,1,1,1,1,1,1,1,1,1,1,1,2),(0.,0.168046249335,0.201249562325,
    0.234058300217,0.260007281921,0.312332447658,0.427939296572,
    0.443119735213,0.482698943006,0.565779417921,0.642928060244,
    0.691654473416,0.734629629702,0.770516948788,0.811611555668,
    0.972266194671,1.),.UNSPECIFIED.);
#93 = CARTESIAN_POINT('',(1.,6.25E-02,0.));
#94 = CARTESIAN_POINT('',(0.831634460322,5.875338569065E-02,0.));
#95 = CARTESIAN_POINT('',(0.798622110773,6.292305405767E-02,0.));
#96 = CARTESIAN_POINT('',(0.765813382562,6.077131536909E-02,0.));
#97 = CARTESIAN_POINT('',(0.739848814157,6.221586457128E-02,0.));
#98 = CARTESIAN_POINT('',(0.68741167448,6.200521857126E-02,0.));
#99 = CARTESIAN_POINT('',(0.571568873812,6.369868549974E-02,0.));
#100 = CARTESIAN_POINT('',(0.556403385483,6.490066798096E-02,0.));
#101 = CARTESIAN_POINT('',(0.517227731814,5.869430235042E-02,0.));
#102 = CARTESIAN_POINT('',(0.434038904249,6.21103482969E-02,0.));
#103 = CARTESIAN_POINT('',(0.356850106306,5.770581066465E-02,0.));
#104 = CARTESIAN_POINT('',(0.308219845925,6.212985181867E-02,0.));
#105 = CARTESIAN_POINT('',(0.265436190726,6.706601806156E-02,0.));
#106 = CARTESIAN_POINT('',(0.229840314434,6.193063603438E-02,0.));
#107 = CARTESIAN_POINT('',(0.188743850372,6.459714246355E-02,0.));
#108 = CARTESIAN_POINT('',(2.774475701958E-02,6.414327997253E-02,0.));
#109 = CARTESIAN_POINT('',(0.,6.25E-02,0.));
#110 = PCURVE('',#46,#111);
#111 = DEFINITIONAL_REPRESENTATION('',(#112),#130);
#112 = B_SPLINE_CURVE_WITH_KNOTS('',1,(#113,#114,#115,#116,#117,#118,
    #119,#120,#121,#122,#123,#124,#125,#126,#127,#128,#129),
  .UNSPECIFIED.,.F.,.F.,(2,1,1,1,1,1,1,1,1,1,1,1,1,1,1,1,2),(0.,
    0.168046249335,0.201249562325,0.234058300217,0.260007281921,
    0.312332447658,0.427939296572,0.443119735213,0.482698943006,
    0.565779417921,0.642928060244,0.691654473416,0.734629629702,
    0.770516948788,0.811611555668,0.972266194671,1.),.UNSPECIFIED.);
#113 = CARTESIAN_POINT('',(0.500092262703,3.125E-02));
#114 = CARTESIAN_POINT('',(0.331726723025,2.750338569065E-02));
#115 = CARTESIAN_POINT('',(0.298714373475,3.167305405767E-02));
#116 = CARTESIAN_POINT('',(0.265905645265,2.952131536909E-02));
#117 = CARTESIAN_POINT('',(0.23994107686,3.096586457128E-02));
#118 = CARTESIAN_POINT('',(0.187503937183,3.075521857126E-02));
#119 = CARTESIAN_POINT('',(7.166113651506E-02,3.244868549974E-02));
#120 = CARTESIAN_POINT('',(5.649564818614E-02,3.365066798096E-02));
#121 = CARTESIAN_POINT('',(1.731999451713E-02,2.744430235042E-02));
#122 = CARTESIAN_POINT('',(-6.58688330478E-02,3.08603482969E-02));
#123 = CARTESIAN_POINT('',(-0.143057630991,2.645581066465E-02));
#124 = CARTESIAN_POINT('',(-0.191687891372,3.087985181867E-02));
#125 = CARTESIAN_POINT('',(-0.234471546571,3.581601806156E-02));
#126 = CARTESIAN_POINT('',(-0.270067422863,3.068063603438E-02));
#127 = CARTESIAN_POINT('',(-0.311163886925,3.334714246355E-02));
#128 = CARTESIAN_POINT('',(-0.472162980278,3.289327997253E-02));
#129 = CARTESIAN_POINT('',(-0.499907737297,3.125E-02));
#130 = ( GEOMETRIC_REPRESENTATION_CONTEXT(2) 
PARAMETRIC_REPRESENTATION_CONTEXT() REPRESENTATION_CONTEXT('2D SPACE',''
  ) );
#131 = ORIENTED_EDGE('',*,*,#132,.T.);
#132 = EDGE_CURVE('',#89,#22,#133,.T.);
#133 = SURFACE_CURVE('',#134,(#138),.PCURVE_S1.);
#134 = LINE('',#135,#136);
#135 = CARTESIAN_POINT('',(0.,6.25E-02,0.));
#136 = VECTOR('',#137,1.);
#137 = DIRECTION('',(0.,-1.,0.));
#138 = PCURVE('',#46,#139);
#139 = DEFINITIONAL_REPRESENTATION('',(#140),#144);
#140 = LINE('',#141,#142);
#141 = CARTESIAN_POINT('',(-0.499907737297,3.125E-02));
#142 = VECTOR('',#143,1.);
#143 = DIRECTION('',(0.,-1.));
#144 = ( GEOMETRIC_REPRESENTATION_CONTEXT(2) 
PARAMETRIC_REPRESENTATION_CONTEXT() REPRESENTATION_CONTEXT('2D SPACE',''
  ) );
#145 = ( GEOMETRIC_REPRESENTATION_CONTEXT(3) 
GLOBAL_UNCERTAINTY_ASSIGNED_CONTEXT((#149)) GLOBAL_UNIT_ASSIGNED_CONTEXT
((#146,#147,#148)) REPRESENTATION_CONTEXT('Context #1',
  '3D Context with UNIT and UNCERTAINTY') );
#146 = ( LENGTH_UNIT() NAMED_UNIT(*) SI_UNIT(.MILLI.,.METRE.) );
#147 = ( NAMED_UNIT(*) PLANE_ANGLE_UNIT() SI_UNIT($,.RADIAN.) );
#148 = ( NAMED_UNIT(*) SI_UNIT($,.STERADIAN.) SOLID_ANGLE_UNIT() );
#149 = UNCERTAINTY_MEASURE_WITH_UNIT(LENGTH_MEASURE(1.E-07),#146,
  'distance_accuracy_value','confusion accuracy');
#150 = PRODUCT_RELATED_PRODUCT_CATEGORY('part',$,(#7));
ENDSEC;
END-ISO-10303-21;
