ISO-10303-21;
HEADER;
FILE_DESCRIPTION(('Open CASCADE Model'),'2;1');
FILE_NAME('Open CASCADE Shape Model','2026-08-17T20:30:05',('Author'),(
    'Open CASCADE'),'Open CASCADE STEP processor 7.9','Open CASCADE 7.9'
  ,'Unknown');
FILE_SCHEMA(('AUTOMOTIVE_DESIGN { 1 0 10303 214 1 1 1 1 }'));
ENDSEC;
DATA;
#1 = APPLICATION_PROTOCOL_DEFINITION('international standard',
  'automotive_design',2000,#2);
#2 = APPLICATION_CONTEXT(
  'core data for automotive mechanical design processes');
#3 = SHAPE_DEFINITION_REPRESENTATION(#4,#10);
#4 = PRODUCT_DEFINITION_SHAPE('','',#5);
#5 = PRODUCT_DEFINITION('design','',#6,#9);
#6 = PRODUCT_DEFINITION_FORMATION('','',#7);
#7 = PRODUCT('Open CASCADE STEP translator 7.9 71',
  'Open CASCADE STEP translator 7.9 71','',(#8));
#8 = PRODUCT_CONTEXT('',#2,'mechanical');
#9 = PRODUCT_DEFINITION_CONTEXT('part definition',#2,'design');
#10 = MANIFOLD_SURFACE_SHAPE_REPRESENTATION('',(#11,#15),#145);
#11 = AXIS2_PLACEMENT_3D('',#12,#13,#14);
#12 = CARTESIAN_POINT('',(0.,0.,0.));
#13 = DIRECTION('',(0.,0.,1.));
#14 = DIRECTION('',(1.,0.,-0.));
#15 = SHELL_BASED_SURFACE_MODEL('',(#16));
#16 = OPEN_SHELL('',(#17));
#17 = ADVANCED_FACE('',(#18),#46,.T.);
#18 = FACE_BOUND('',#19,.T.);
#19 = EDGE_LOOP('',(#20,#71,#87,#131));
#20 = ORIENTED_EDGE('',*,*,#21,.T.);
#21 = EDGE_CURVE('',#22,#24,#26,.T.);
#22 = VERTEX_POINT('',#23);
#23 = CARTESIAN_POINT('',(0.,0.,0.));
#24 = VERTEX_POINT('',#25);
#25 = CARTESIAN_POINT('',(1.,0.,0.));
#26 = SURFACE_CURVE('',#27,(#45),.PCURVE_S1.);
#27 = B_SPLINE_CURVE_WITH_KNOTS('',1,(#28,#29,#30,#31,#32,#33,#34,#35,
    #36,#37,#38,#39,#40,#41,#42,#43,#44),.UNSPECIFIED.,.F.,.F.,(2,1,1,1,
    1,1,1,1,1,1,1,1,1,1,1,1,2),(0.,1.774645536472E-02,6.747935582353E-02
    ,0.151317186514,0.227320767277,0.373136361283,0.449791838304,
    0.500175893617,0.549649347997,0.579834423911,0.661719101046,
    0.70306221777,0.794768116581,0.824511508852,0.841556533583,
    0.948141582327,1.),.UNSPECIFIED.);
#28 = CARTESIAN_POINT('',(0.,-0.,0.));
#29 = CARTESIAN_POINT('',(1.748820907248E-02,3.294739710333E-03,0.));
#30 = CARTESIAN_POINT('',(6.677577703229E-02,-4.313709980069E-03,0.));
#31 = CARTESIAN_POINT('',(0.150812426692,-1.902094853536E-03,0.));
#32 = CARTESIAN_POINT('',(0.227006544663,-3.693940831933E-03,0.));
#33 = CARTESIAN_POINT('',(0.373015002555,4.197556515386E-03,0.));
#34 = CARTESIAN_POINT('',(0.449881667338,4.783176894455E-03,0.));
#35 = CARTESIAN_POINT('',(0.500383302271,3.268950455273E-03,0.));
#36 = CARTESIAN_POINT('',(0.549993412793,2.940960736655E-03,0.));
#37 = CARTESIAN_POINT('',(0.580251701479,3.75045917059E-03,0.));
#38 = CARTESIAN_POINT('',(0.661980327109,-4.181739232085E-03,0.));
#39 = CARTESIAN_POINT('',(0.703015695533,1.724413716925E-03,0.));
#40 = CARTESIAN_POINT('',(0.794975600262,2.216185556173E-03,0.));
#41 = CARTESIAN_POINT('',(0.824619785044,-1.073892363303E-03,0.));
#42 = CARTESIAN_POINT('',(0.841339168707,-4.625665242694E-03,0.));
#43 = CARTESIAN_POINT('',(0.948028097899,1.792316658045E-03,0.));
#44 = CARTESIAN_POINT('',(1.,-0.,0.));
#45 = PCURVE('',#46,#51);
#46 = PLANE('',#47);
#47 = AXIS2_PLACEMENT_3D('',#48,#49,#50);
#48 = CARTESIAN_POINT('',(0.499919479543,3.125E-02,0.));
#49 = DIRECTION('',(0.,0.,1.));
#50 = DIRECTION('',(1.,0.,-0.));
#51 = DEFINITIONAL_REPRESENTATION('',(#52),#70);
#52 = B_SPLINE_CURVE_WITH_KNOTS('',1,(#53,#54,#55,#56,#57,#58,#59,#60,
    #61,#62,#63,#64,#65,#66,#67,#68,#69),.UNSPECIFIED.,.F.,.F.,(2,1,1,1,
    1,1,1,1,1,1,1,1,1,1,1,1,2),(0.,1.774645536472E-02,6.747935582353E-02
    ,0.151317186514,0.227320767277,0.373136361283,0.449791838304,
    0.500175893617,0.549649347997,0.579834423911,0.661719101046,
    0.70306221777,0.794768116581,0.824511508852,0.841556533583,
    0.948141582327,1.),.UNSPECIFIED.);
#53 = CARTESIAN_POINT('',(-0.499919479543,-3.125E-02));
#54 = CARTESIAN_POINT('',(-0.48243127047,-2.795526028967E-02));
#55 = CARTESIAN_POINT('',(-0.43314370251,-3.556370998007E-02));
#56 = CARTESIAN_POINT('',(-0.34910705285,-3.315209485354E-02));
#57 = CARTESIAN_POINT('',(-0.27291293488,-3.494394083193E-02));
#58 = CARTESIAN_POINT('',(-0.126904476987,-2.705244348461E-02));
#59 = CARTESIAN_POINT('',(-5.003781220503E-02,-2.646682310555E-02));
#60 = CARTESIAN_POINT('',(4.638227282642E-04,-2.798104954473E-02));
#61 = CARTESIAN_POINT('',(5.007393325038E-02,-2.830903926334E-02));
#62 = CARTESIAN_POINT('',(8.033222193639E-02,-2.749954082941E-02));
#63 = CARTESIAN_POINT('',(0.162060847566,-3.543173923209E-02));
#64 = CARTESIAN_POINT('',(0.20309621599,-2.952558628307E-02));
#65 = CARTESIAN_POINT('',(0.295056120719,-2.903381444383E-02));
#66 = CARTESIAN_POINT('',(0.324700305501,-3.23238923633E-02));
#67 = CARTESIAN_POINT('',(0.341419689165,-3.587566524269E-02));
#68 = CARTESIAN_POINT('',(0.448108618356,-2.945768334196E-02));
#69 = CARTESIAN_POINT('',(0.500080520457,-3.125E-02));
#70 = ( GEOMETRIC_REPRESENTATION_CONTEXT(2) 
PARAMETRIC_REPRESENTATION_CONTEXT() REPRESENTATION_CONTEXT('2D SPACE',''
  ) );
#71 = ORIENTED_EDGE('',*,*,#72,.T.);
#72 = EDGE_CURVE('',#24,#73,#75,.T.);
#73 = VERTEX_POINT('',#74);
#74 = CARTESIAN_POINT('',(1.,6.25E-02,0.));
#75 = SURFACE_CURVE('',#76,(#80),.PCURVE_S1.);
#76 = LINE('',#77,#78);
#77 = CARTESIAN_POINT('',(1.,-0.,0.));
#78 = VECTOR('',#79,1.);
#79 = DIRECTION('',(0.,1.,0.));
#80 = PCURVE('',#46,#81);
#81 = DEFINITIONAL_REPRESENTATION('',(#82),#86);
#82 = LINE('',#83,#84);
#83 = CARTESIAN_POINT('',(0.500080520457,-3.125E-02));
#84 = VECTOR('',#85,1.);
#85 = DIRECTION('',(0.,1.));
#86 = ( GEOMETRIC_REPRESENTATION_CONTEXT(2) 
PARAMETRIC_REPRESENTATION_CONTEXT() REPRESENTATION_CONTEXT('2D SPACE',''
  ) );
#87 = ORIENTED_EDGE('',*,*,#88,.T.);
#88 = EDGE_CURVE('',#73,#89,#91,.T.);
#89 = VERTEX_POINT('',#90);
#90 = CARTESIAN_POINT('',(0.,6.25E-02,0.));
#91 = SURFACE_CURVE('',#92,(#110),.PCURVE_S1.);
#92 = B_SPLINE_CURVE_WITH_KNOTS('',1,(#93,#94,#95,#96,#97,#98,#99,#100,
    #101,#102,#103,#104,#105,#106,#107,#108,#109),.UNSPECIFIED.,.F.,.F.,
  (2,1,1,1,1,1,1,1,1,1,1,1,1,1,1,1,2),(0.,5.185841767273E-02,
    0.158443466417,0.175488491148,0.205231883419,0.29693778223,
    0.338280898954,0.420165576089,0.450350652003,0.499824106383,
    0.550208161696,0.626863638717,0.772679232723,0.848682813486,
    0.932520644176,0.982253544635,1.),.UNSPECIFIED.);
#93 = CARTESIAN_POINT('',(1.,6.25E-02,0.));
#94 = CARTESIAN_POINT('',(0.948028097899,6.070768334196E-02,0.));
#95 = CARTESIAN_POINT('',(0.841339168707,6.712566524269E-02,0.));
#96 = CARTESIAN_POINT('',(0.824619785044,6.35738923633E-02,0.));
#97 = CARTESIAN_POINT('',(0.794975600262,6.028381444383E-02,0.));
#98 = CARTESIAN_POINT('',(0.703015695533,6.077558628307E-02,0.));
#99 = CARTESIAN_POINT('',(0.661980327109,6.668173923209E-02,0.));
#100 = CARTESIAN_POINT('',(0.580251701479,5.874954082941E-02,0.));
#101 = CARTESIAN_POINT('',(0.549993412793,5.955903926334E-02,0.));
#102 = CARTESIAN_POINT('',(0.500383302271,5.923104954473E-02,0.));
#103 = CARTESIAN_POINT('',(0.449881667338,5.771682310555E-02,0.));
#104 = CARTESIAN_POINT('',(0.373015002555,5.830244348461E-02,0.));
#105 = CARTESIAN_POINT('',(0.227006544663,6.619394083193E-02,0.));
#106 = CARTESIAN_POINT('',(0.150812426692,6.440209485354E-02,0.));
#107 = CARTESIAN_POINT('',(6.677577703229E-02,6.681370998007E-02,0.));
#108 = CARTESIAN_POINT('',(1.748820907248E-02,5.920526028967E-02,0.));
#109 = CARTESIAN_POINT('',(0.,6.25E-02,0.));
#110 = PCURVE('',#46,#111);
#111 = DEFINITIONAL_REPRESENTATION('',(#112),#130);
#112 = B_SPLINE_CURVE_WITH_KNOTS('',1,(#113,#114,#115,#116,#117,#118,
    #119,#120,#121,#122,#123,#124,#125,#126,#127,#128,#129),
  .UNSPECIFIED.,.F.,.F.,(2,1,1,1,1,1,1,1,1,1,1,1,1,1,1,1,2),(0.,
    5.185841767273E-02,0.158443466417,0.175488491148,0.205231883419,
    0.29693778223,0.338280898954,0.420165576089,0.450350652003,
    0.499824106383,0.550208161696,0.626863638717,0.772679232723,
    0.848682813486,0.932520644176,0.982253544635,1.),.UNSPECIFIED.);
#113 = CARTESIAN_POINT('',(0.500080520457,3.125E-02));
#114 = CARTESIAN_POINT('',(0.448108618356,2.945768334196E-02));
#115 = CARTESIAN_POINT('',(0.341419689165,3.587566524269E-02));
#116 = CARTESIAN_POINT('',(0.324700305501,3.23238923633E-02));
#117 = CARTESIAN_POINT('',(0.295056120719,2.903381444383E-02));
#118 = CARTESIAN_POINT('',(0.20309621599,2.952558628307E-02));
#119 = CARTESIAN_POINT('',(0.162060847566,3.543173923209E-02));
#120 = CARTESIAN_POINT('',(8.033222193639E-02,2.749954082941E-02));
#121 = CARTESIAN_POINT('',(5.007393325038E-02,2.830903926334E-02));
#122 = CARTESIAN_POINT('',(4.638227282642E-04,2.798104954473E-02));
#123 = CARTESIAN_POINT('',(-5.003781220503E-02,2.646682310555E-02));
#124 = CARTESIAN_POINT('',(-0.126904476987,2.705244348461E-02));
#125 = CARTESIAN_POINT('',(-0.27291293488,3.494394083193E-02));
#126 = CARTESIAN_POINT('',(-0.34910705285,3.315209485354E-02));
#127 = CARTESIAN_POINT('',(-0.43314370251,3.556370998007E-02));
#128 = CARTESIAN_POINT('',(-0.48243127047,2.795526028967E-02));
#129 = CARTESIAN_POINT('',(-0.499919479543,3.125E-02));
#130 = ( GEOMETRIC_REPRESENTATION_CONTEXT(2) 
PARAMETRIC_REPRESENTATION_CONTEXT() REPRESENTATION_CONTEXT('2D SPACE',''
  ) );
#131 = ORIENTED_EDGE('',*,*,#132,.T.);
#132 = EDGE_CURVE('',#89,#22,#133,.T.);
#133 = SURFACE_CURVE('',#134,(#138),.PCURVE_S1.);
#134 = LINE('',#135,#136);
#135 = CARTESIAN_POINT('',(0.,6.25E-02,0.));
#136 = VECTOR('',#137,1.);
#137 = DIRECTION('',(0.,-1.,0.));
#138 = PCURVE('',#46,#139);
#139 = DEFINITIONAL_REPRESENTATION('',(#140),#144);
#140 = LINE('',#141,#142);
#141 = CARTESIAN_POINT('',(-0.499919479543,3.125E-02));
#142 = VECTOR('',#143,1.);
#143 = DIRECTION('',(0.,-1.));
#144 = ( GEOMETRIC_REPRESENTATION_CONTEXT(2) 
PARAMETRIC_REPRESENTATION_CONTEXT() REPRESENTATION_CONTEXT('2D SPACE',''
  ) );
#145 = ( GEOMETRIC_REPRESENTATION_CONTEXT(3) 
GLOBAL_UNCERTAINTY_ASSIGNED_CONTEXT((#149)) GLOBAL_UNIT_ASSIGNED_CONTEXT
((#146,#147,#148)) REPRESENTATION_CONTEXT('Context #1',
  '3D Context with UNIT and UNCERTAINTY') );
#146 = ( LENGTH_UNIT() NAMED_UNIT(*) SI_UNIT(.MILLI.,.METRE.) );
#147 = ( NAMED_UNIT(*) PLANE_ANGLE_UNIT() SI_UNIT($,.RADIAN.) );
#148 = ( NAMED_UNIT(*) SI_UNIT($,.STERADIAN.) SOLID_ANGLE_UNIT() );
#149 = UNCERTAINTY_MEASURE_WITH_UNIT(LENGTH_MEASURE(1.E-07),#146,
  'distance_accuracy_value','confusion accuracy');
#150 = PRODUCT_RELATED_PRODUCT_CATEGORY('part',$,(#7));
ENDSEC;
END-ISO-10303-21;
