ISO-10303-21;
HEADER;
FILE_DESCRIPTION(('Open CASCADE Model'),'2;1');
FILE_NAME('Open CASCADE Shape Model','2026-08-17T20:30:04',('Author'),(
    'Open CASCADE'),'Open CASCADE STEP processor 7.9','Open CASCADE 7.9'
  ,'Unknown');
FILE_SCHEMA(('AUTOMOTIVE_DESIGN { 1 0 10303 214 1 1 1 1 }'));
ENDSEC;
DATA;
#1 = APPLICATION_PROTOCOL_DEFINITION('international standard',
  'automotive_design',2000,#2);
#2 = APPLICATION_CONTEXT(
  'core data for automotive mechanical design processes');
#3 = SHAPE_DEFINITION_REPRESENTATION(#4,#10);
#4 = PRODUCT_DEFINITION_SHAPE('','',#5);
#5 = PRODUCT_DEFINITION('design','',#6,#9);
#6 = PRODUCT_DEFINITION_FORMATION('','',#7);
#7 = PRODUCT('Open CASCADE STEP translator 7.9 42',
  'Open CASCADE STEP translator 7.9 42','',(#8));
#8 = PRODUCT_CONTEXT('',#2,'mechanical');
#9 = PRODUCT_DEFINITION_CONTEXT('part definition',#2,'design');
#10 = MANIFOLD_SURFACE_SHAPE_REPRESENTATION('',(#11,#15),#145);
#11 = AXIS2_PLACEMENT_3D('',#12,#13,#14);
#12 = CARTESIAN_POINT('',(0.,0.,0.));
#13 = DIRECTION('',(0.,0.,1.));
#14 = DIRECTION('',(1.,0.,-0.));
#15 = SHELL_BASED_SURFACE_MODEL('',(#16));
#16 = OPEN_SHELL('',(#17));
#17 = ADVANCED_FACE('',(#18),#46,.T.);
#18 = FACE_BOUND('',#19,.T.);
#19 = EDGE_LOOP('',(#20,#71,#87,#131));
#20 = ORIENTED_EDGE('',*,*,#21,.T.);
#21 = EDGE_CURVE('',#22,#24,#26,.T.);
#22 = VERTEX_POINT('',#23);
#23 = CARTESIAN_POINT('',(0.,0.,0.));
#24 = VERTEX_POINT('',#25);
#25 = CARTESIAN_POINT('',(1.,0.,0.));
#26 = SURFACE_CURVE('',#27,(#45),.PCURVE_S1.);
#27 = B_SPLINE_CURVE_WITH_KNOTS('',1,(#28,#29,#30,#31,#32,#33,#34,#35,
    #36,#37,#38,#39,#40,#41,#42,#43,#44),.UNSPECIFIED.,.F.,.F.,(2,1,1,1,
    1,1,1,1,1,1,1,1,1,1,1,1,2),(0.,7.070219986833E-02,0.10118163665,
    0.142410508904,0.32761055544,0.376458754408,0.437848489907,
    0.501284222608,0.522999440429,0.564974973434,0.593819873829,
    0.622962728771,0.671457424848,0.778068248626,0.827400415104,
    0.911740189345,1.),.UNSPECIFIED.);
#28 = CARTESIAN_POINT('',(0.,-0.,0.));
#29 = CARTESIAN_POINT('',(7.091525300922E-02,-2.455124689373E-03,0.));
#30 = CARTESIAN_POINT('',(0.101470236625,-3.909953900592E-03,0.));
#31 = CARTESIAN_POINT('',(0.14284811798,-3.929476719329E-03,0.));
#32 = CARTESIAN_POINT('',(0.328710720638,-2.338027453035E-03,0.));
#33 = CARTESIAN_POINT('',(0.377463048379,2.823055189977E-03,0.));
#34 = CARTESIAN_POINT('',(0.438720795336,-3.770862538147E-03,0.));
#35 = CARTESIAN_POINT('',(0.502374045545,-4.994414284619E-03,0.));
#36 = CARTESIAN_POINT('',(0.524087431189,-3.125086974889E-03,0.));
#37 = CARTESIAN_POINT('',(0.565653170585,3.730138101593E-03,0.));
#38 = CARTESIAN_POINT('',(0.59410070351,-1.635626113739E-03,0.));
#39 = CARTESIAN_POINT('',(0.62310467808,2.136090899938E-03,0.));
#40 = CARTESIAN_POINT('',(0.671456907204,-3.416204573708E-03,0.));
#41 = CARTESIAN_POINT('',(0.778155163387,4.562377163963E-03,0.));
#42 = CARTESIAN_POINT('',(0.826836353376,-4.461379183916E-03,0.));
#43 = CARTESIAN_POINT('',(0.911463202853,-2.727795136054E-03,0.));
#44 = CARTESIAN_POINT('',(1.,-0.,0.));
#45 = PCURVE('',#46,#51);
#46 = PLANE('',#47);
#47 = AXIS2_PLACEMENT_3D('',#48,#49,#50);
#48 = CARTESIAN_POINT('',(0.500351191937,3.125E-02,0.));
#49 = DIRECTION('',(0.,0.,1.));
#50 = DIRECTION('',(1.,0.,-0.));
#51 = DEFINITIONAL_REPRESENTATION('',(#52),#70);
#52 = B_SPLINE_CURVE_WITH_KNOTS('',1,(#53,#54,#55,#56,#57,#58,#59,#60,
    #61,#62,#63,#64,#65,#66,#67,#68,#69),.UNSPECIFIED.,.F.,.F.,(2,1,1,1,
    1,1,1,1,1,1,1,1,1,1,1,1,2),(0.,7.070219986833E-02,0.10118163665,
    0.142410508904,0.32761055544,0.376458754408,0.437848489907,
    0.501284222608,0.522999440429,0.564974973434,0.593819873829,
    0.622962728771,0.671457424848,0.778068248626,0.827400415104,
    0.911740189345,1.),.UNSPECIFIED.);
#53 = CARTESIAN_POINT('',(-0.500351191937,-3.125E-02));
#54 = CARTESIAN_POINT('',(-0.429435938928,-3.370512468937E-02));
#55 = CARTESIAN_POINT('',(-0.398880955312,-3.515995390059E-02));
#56 = CARTESIAN_POINT('',(-0.357503073958,-3.517947671933E-02));
#57 = CARTESIAN_POINT('',(-0.1716404713,-3.358802745303E-02));
#58 = CARTESIAN_POINT('',(-0.122888143558,-2.842694481002E-02));
#59 = CARTESIAN_POINT('',(-6.163039660137E-02,-3.502086253815E-02));
#60 = CARTESIAN_POINT('',(2.022853608003E-03,-3.624441428462E-02));
#61 = CARTESIAN_POINT('',(2.373623925134E-02,-3.437508697489E-02));
#62 = CARTESIAN_POINT('',(6.530197864797E-02,-2.751986189841E-02));
#63 = CARTESIAN_POINT('',(9.374951157224E-02,-3.288562611374E-02));
#64 = CARTESIAN_POINT('',(0.122753486142,-2.911390910006E-02));
#65 = CARTESIAN_POINT('',(0.171105715267,-3.466620457371E-02));
#66 = CARTESIAN_POINT('',(0.277803971449,-2.668762283604E-02));
#67 = CARTESIAN_POINT('',(0.326485161438,-3.571137918392E-02));
#68 = CARTESIAN_POINT('',(0.411112010915,-3.397779513605E-02));
#69 = CARTESIAN_POINT('',(0.499648808063,-3.125E-02));
#70 = ( GEOMETRIC_REPRESENTATION_CONTEXT(2) 
PARAMETRIC_REPRESENTATION_CONTEXT() REPRESENTATION_CONTEXT('2D SPACE',''
  ) );
#71 = ORIENTED_EDGE('',*,*,#72,.T.);
#72 = EDGE_CURVE('',#24,#73,#75,.T.);
#73 = VERTEX_POINT('',#74);
#74 = CARTESIAN_POINT('',(1.,6.25E-02,0.));
#75 = SURFACE_CURVE('',#76,(#80),.PCURVE_S1.);
#76 = LINE('',#77,#78);
#77 = CARTESIAN_POINT('',(1.,-0.,0.));
#78 = VECTOR('',#79,1.);
#79 = DIRECTION('',(0.,1.,0.));
#80 = PCURVE('',#46,#81);
#81 = DEFINITIONAL_REPRESENTATION('',(#82),#86);
#82 = LINE('',#83,#84);
#83 = CARTESIAN_POINT('',(0.499648808063,-3.125E-02));
#84 = VECTOR('',#85,1.);
#85 = DIRECTION('',(0.,1.));
#86 = ( GEOMETRIC_REPRESENTATION_CONTEXT(2) 
PARAMETRIC_REPRESENTATION_CONTEXT() REPRESENTATION_CONTEXT('2D SPACE',''
  ) );
#87 = ORIENTED_EDGE('',*,*,#88,.T.);
#88 = EDGE_CURVE('',#73,#89,#91,.T.);
#89 = VERTEX_POINT('',#90);
#90 = CARTESIAN_POINT('',(0.,6.25E-02,0.));
#91 = SURFACE_CURVE('',#92,(#110),.PCURVE_S1.);
#92 = B_SPLINE_CURVE_WITH_KNOTS('',1,(#93,#94,#95,#96,#97,#98,#99,#100,
    #101,#102,#103,#104,#105,#106,#107,#108,#109),.UNSPECIFIED.,.F.,.F.,
  (2,1,1,1,1,1,1,1,1,1,1,1,1,1,1,1,2),(0.,8.825981065499E-02,
    0.172599584896,0.221931751374,0.328542575152,0.377037271229,
    0.406180126171,0.435025026566,0.477000559571,0.498715777392,
    0.562151510093,0.623541245592,0.67238944456,0.857589491096,
    0.89881836335,0.929297800132,1.),.UNSPECIFIED.);
#93 = CARTESIAN_POINT('',(1.,6.25E-02,0.));
#94 = CARTESIAN_POINT('',(0.911463202853,6.522779513605E-02,0.));
#95 = CARTESIAN_POINT('',(0.826836353376,6.696137918392E-02,0.));
#96 = CARTESIAN_POINT('',(0.778155163387,5.793762283604E-02,0.));
#97 = CARTESIAN_POINT('',(0.671456907204,6.591620457371E-02,0.));
#98 = CARTESIAN_POINT('',(0.62310467808,6.036390910006E-02,0.));
#99 = CARTESIAN_POINT('',(0.59410070351,6.413562611374E-02,0.));
#100 = CARTESIAN_POINT('',(0.565653170585,5.876986189841E-02,0.));
#101 = CARTESIAN_POINT('',(0.524087431189,6.562508697489E-02,0.));
#102 = CARTESIAN_POINT('',(0.502374045545,6.749441428462E-02,0.));
#103 = CARTESIAN_POINT('',(0.438720795336,6.627086253815E-02,0.));
#104 = CARTESIAN_POINT('',(0.377463048379,5.967694481002E-02,0.));
#105 = CARTESIAN_POINT('',(0.328710720638,6.483802745303E-02,0.));
#106 = CARTESIAN_POINT('',(0.14284811798,6.642947671933E-02,0.));
#107 = CARTESIAN_POINT('',(0.101470236625,6.640995390059E-02,0.));
#108 = CARTESIAN_POINT('',(7.091525300922E-02,6.495512468937E-02,0.));
#109 = CARTESIAN_POINT('',(0.,6.25E-02,0.));
#110 = PCURVE('',#46,#111);
#111 = DEFINITIONAL_REPRESENTATION('',(#112),#130);
#112 = B_SPLINE_CURVE_WITH_KNOTS('',1,(#113,#114,#115,#116,#117,#118,
    #119,#120,#121,#122,#123,#124,#125,#126,#127,#128,#129),
  .UNSPECIFIED.,.F.,.F.,(2,1,1,1,1,1,1,1,1,1,1,1,1,1,1,1,2),(0.,
    8.825981065499E-02,0.172599584896,0.221931751374,0.328542575152,
    0.377037271229,0.406180126171,0.435025026566,0.477000559571,
    0.498715777392,0.562151510093,0.623541245592,0.67238944456,
    0.857589491096,0.89881836335,0.929297800132,1.),.UNSPECIFIED.);
#113 = CARTESIAN_POINT('',(0.499648808063,3.125E-02));
#114 = CARTESIAN_POINT('',(0.411112010915,3.397779513605E-02));
#115 = CARTESIAN_POINT('',(0.326485161438,3.571137918392E-02));
#116 = CARTESIAN_POINT('',(0.277803971449,2.668762283604E-02));
#117 = CARTESIAN_POINT('',(0.171105715267,3.466620457371E-02));
#118 = CARTESIAN_POINT('',(0.122753486142,2.911390910006E-02));
#119 = CARTESIAN_POINT('',(9.374951157224E-02,3.288562611374E-02));
#120 = CARTESIAN_POINT('',(6.530197864797E-02,2.751986189841E-02));
#121 = CARTESIAN_POINT('',(2.373623925134E-02,3.437508697489E-02));
#122 = CARTESIAN_POINT('',(2.022853608003E-03,3.624441428462E-02));
#123 = CARTESIAN_POINT('',(-6.163039660137E-02,3.502086253815E-02));
#124 = CARTESIAN_POINT('',(-0.122888143558,2.842694481002E-02));
#125 = CARTESIAN_POINT('',(-0.1716404713,3.358802745303E-02));
#126 = CARTESIAN_POINT('',(-0.357503073958,3.517947671933E-02));
#127 = CARTESIAN_POINT('',(-0.398880955312,3.515995390059E-02));
#128 = CARTESIAN_POINT('',(-0.429435938928,3.370512468937E-02));
#129 = CARTESIAN_POINT('',(-0.500351191937,3.125E-02));
#130 = ( GEOMETRIC_REPRESENTATION_CONTEXT(2) 
PARAMETRIC_REPRESENTATION_CONTEXT() REPRESENTATION_CONTEXT('2D SPACE',''
  ) );
#131 = ORIENTED_EDGE('',*,*,#132,.T.);
#132 = EDGE_CURVE('',#89,#22,#133,.T.);
#133 = SURFACE_CURVE('',#134,(#138),.PCURVE_S1.);
#134 = LINE('',#135,#136);
#135 = CARTESIAN_POINT('',(0.,6.25E-02,0.));
#136 = VECTOR('',#137,1.);
#137 = DIRECTION('',(0.,-1.,0.));
#138 = PCURVE('',#46,#139);
#139 = DEFINITIONAL_REPRESENTATION('',(#140),#144);
#140 = LINE('',#141,#142);
#141 = CARTESIAN_POINT('',(-0.500351191937,3.125E-02));
#142 = VECTOR('',#143,1.);
#143 = DIRECTION('',(0.,-1.));
#144 = ( GEOMETRIC_REPRESENTATION_CONTEXT(2) 
PARAMETRIC_REPRESENTATION_CONTEXT() REPRESENTATION_CONTEXT('2D SPACE',''
  ) );
#145 = ( GEOMETRIC_REPRESENTATION_CONTEXT(3) 
GLOBAL_UNCERTAINTY_ASSIGNED_CONTEXT((#149)) GLOBAL_UNIT_ASSIGNED_CONTEXT
((#146,#147,#148)) REPRESENTATION_CONTEXT('Context #1',
  '3D Context with UNIT and UNCERTAINTY') );
#146 = ( LENGTH_UNIT() NAMED_UNIT(*) SI_UNIT(.MILLI.,.METRE.) );
#147 = ( NAMED_UNIT(*) PLANE_ANGLE_UNIT() SI_UNIT($,.RADIAN.) );
#148 = ( NAMED_UNIT(*) SI_UNIT($,.STERADIAN.) SOLID_ANGLE_UNIT() );
#149 = UNCERTAINTY_MEASURE_WITH_UNIT(LENGTH_MEASURE(1.E-07),#146,
  'distance_accuracy_value','confusion accuracy');
#150 = PRODUCT_RELATED_PRODUCT_CATEGORY('part',$,(#7));
ENDSEC;
END-ISO-10303-21;
