ISO-10303-21;
HEADER;
FILE_DESCRIPTION(('Open CASCADE Model'),'2;1');
FILE_NAME('Open CASCADE Shape Model','2026-07-21T00:13:24',('Author'),(
    'Open CASCADE'),'Open CASCADE STEP processor 7.9','Open CASCADE 7.9'
  ,'Unknown');
FILE_SCHEMA(('AUTOMOTIVE_DESIGN { 1 0 10303 214 1 1 1 1 }'));
ENDSEC;
DATA;
#1 = APPLICATION_PROTOCOL_DEFINITION('international standard',
  'automotive_design',2000,#2);
#2 = APPLICATION_CONTEXT(
  'core data for automotive mechanical design processes');
#3 = SHAPE_DEFINITION_REPRESENTATION(#4,#10);
#4 = PRODUCT_DEFINITION_SHAPE('','',#5);
#5 = PRODUCT_DEFINITION('design','',#6,#9);
#6 = PRODUCT_DEFINITION_FORMATION('','',#7);
#7 = PRODUCT('Open CASCADE STEP translator 7.9 37',
  'Open CASCADE STEP translator 7.9 37','',(#8));
#8 = PRODUCT_CONTEXT('',#2,'mechanical');
#9 = PRODUCT_DEFINITION_CONTEXT('part definition',#2,'design');
#10 = MANIFOLD_SURFACE_SHAPE_REPRESENTATION('',(#11,#15),#161);
#11 = AXIS2_PLACEMENT_3D('',#12,#13,#14);
#12 = CARTESIAN_POINT('',(0.,0.,0.));
#13 = DIRECTION('',(0.,0.,1.));
#14 = DIRECTION('',(1.,0.,-0.));
#15 = SHELL_BASED_SURFACE_MODEL('',(#16));
#16 = OPEN_SHELL('',(#17));
#17 = ADVANCED_FACE('',(#18),#50,.T.);
#18 = FACE_BOUND('',#19,.T.);
#19 = EDGE_LOOP('',(#20,#79,#95,#147));
#20 = ORIENTED_EDGE('',*,*,#21,.T.);
#21 = EDGE_CURVE('',#22,#24,#26,.T.);
#22 = VERTEX_POINT('',#23);
#23 = CARTESIAN_POINT('',(0.,0.,0.));
#24 = VERTEX_POINT('',#25);
#25 = CARTESIAN_POINT('',(1.,0.,0.));
#26 = SURFACE_CURVE('',#27,(#49),.PCURVE_S1.);
#27 = B_SPLINE_CURVE_WITH_KNOTS('',1,(#28,#29,#30,#31,#32,#33,#34,#35,
    #36,#37,#38,#39,#40,#41,#42,#43,#44,#45,#46,#47,#48),.UNSPECIFIED.,
  .F.,.F.,(2,1,1,1,1,1,1,1,1,1,1,1,1,1,1,1,1,1,1,1,2),(0.,
    1.790899399215E-02,5.789334592308E-02,7.180182561356E-02,
    0.12407042227,0.136927015557,0.155578502737,0.170978256,
    0.272361266442,0.422203115762,0.483772876714,0.539531723724,
    0.561913113383,0.615963763229,0.672107556621,0.737832742074,
    0.810501639218,0.885164940858,0.896074349408,0.951874376316,1.),
  .UNSPECIFIED.);
#28 = CARTESIAN_POINT('',(0.,-0.,0.));
#29 = CARTESIAN_POINT('',(1.803983252214E-02,9.203856963943E-04,0.));
#30 = CARTESIAN_POINT('',(5.824634618296E-02,4.059280369106E-03,0.));
#31 = CARTESIAN_POINT('',(6.980048504292E-02,-3.896564216754E-03,0.));
#32 = CARTESIAN_POINT('',(0.122286851075,1.049927599594E-03,0.));
#33 = CARTESIAN_POINT('',(0.134931321778,-1.825815982092E-03,0.));
#34 = CARTESIAN_POINT('',(0.152972035344,3.506258436318E-03,0.));
#35 = CARTESIAN_POINT('',(0.166211886899,-4.61549629541E-03,0.));
#36 = CARTESIAN_POINT('',(0.268168099975,3.215582381782E-03,0.));
#37 = CARTESIAN_POINT('',(0.419300824738,3.004580071005E-03,0.));
#38 = CARTESIAN_POINT('',(0.481049942804,-3.589828605577E-03,0.));
#39 = CARTESIAN_POINT('',(0.537286648316,-4.125827441419E-03,0.));
#40 = CARTESIAN_POINT('',(0.558746720357,2.878525924767E-03,0.));
#41 = CARTESIAN_POINT('',(0.613202145585,3.019911182517E-04,0.));
#42 = CARTESIAN_POINT('',(0.669768238685,-2.334949045628E-03,0.));
#43 = CARTESIAN_POINT('',(0.736043874267,-3.783657338108E-03,0.));
#44 = CARTESIAN_POINT('',(0.809168606373,1.209473049627E-03,0.));
#45 = CARTESIAN_POINT('',(0.884462560439,-1.701948684943E-04,0.));
#46 = CARTESIAN_POINT('',(0.895234097269,-2.417164105197E-03,0.));
#47 = CARTESIAN_POINT('',(0.951514792305,-2.311359766528E-03,0.));
#48 = CARTESIAN_POINT('',(1.,-0.,0.));
#49 = PCURVE('',#50,#55);
#50 = PLANE('',#51);
#51 = AXIS2_PLACEMENT_3D('',#52,#53,#54);
#52 = CARTESIAN_POINT('',(0.497943361346,5.E-02,0.));
#53 = DIRECTION('',(0.,0.,1.));
#54 = DIRECTION('',(1.,0.,-0.));
#55 = DEFINITIONAL_REPRESENTATION('',(#56),#78);
#56 = B_SPLINE_CURVE_WITH_KNOTS('',1,(#57,#58,#59,#60,#61,#62,#63,#64,
    #65,#66,#67,#68,#69,#70,#71,#72,#73,#74,#75,#76,#77),.UNSPECIFIED.,
  .F.,.F.,(2,1,1,1,1,1,1,1,1,1,1,1,1,1,1,1,1,1,1,1,2),(0.,
    1.790899399215E-02,5.789334592308E-02,7.180182561356E-02,
    0.12407042227,0.136927015557,0.155578502737,0.170978256,
    0.272361266442,0.422203115762,0.483772876714,0.539531723724,
    0.561913113383,0.615963763229,0.672107556621,0.737832742074,
    0.810501639218,0.885164940858,0.896074349408,0.951874376316,1.),
  .UNSPECIFIED.);
#57 = CARTESIAN_POINT('',(-0.497943361346,-5.E-02));
#58 = CARTESIAN_POINT('',(-0.479903528824,-4.907961430361E-02));
#59 = CARTESIAN_POINT('',(-0.439697015163,-4.594071963089E-02));
#60 = CARTESIAN_POINT('',(-0.428142876303,-5.389656421675E-02));
#61 = CARTESIAN_POINT('',(-0.375656510271,-4.895007240041E-02));
#62 = CARTESIAN_POINT('',(-0.363012039568,-5.182581598209E-02));
#63 = CARTESIAN_POINT('',(-0.344971326001,-4.649374156368E-02));
#64 = CARTESIAN_POINT('',(-0.331731474446,-5.461549629541E-02));
#65 = CARTESIAN_POINT('',(-0.22977526137,-4.678441761822E-02));
#66 = CARTESIAN_POINT('',(-7.864253660765E-02,-4.699541992899E-02));
#67 = CARTESIAN_POINT('',(-1.689341854165E-02,-5.358982860558E-02));
#68 = CARTESIAN_POINT('',(3.934328697022E-02,-5.412582744142E-02));
#69 = CARTESIAN_POINT('',(6.08033590118E-02,-4.712147407523E-02));
#70 = CARTESIAN_POINT('',(0.115258784239,-4.969800888175E-02));
#71 = CARTESIAN_POINT('',(0.17182487734,-5.233494904563E-02));
#72 = CARTESIAN_POINT('',(0.238100512921,-5.378365733811E-02));
#73 = CARTESIAN_POINT('',(0.311225245027,-4.879052695037E-02));
#74 = CARTESIAN_POINT('',(0.386519199093,-5.017019486849E-02));
#75 = CARTESIAN_POINT('',(0.397290735923,-5.24171641052E-02));
#76 = CARTESIAN_POINT('',(0.453571430959,-5.231135976653E-02));
#77 = CARTESIAN_POINT('',(0.502056638654,-5.E-02));
#78 = ( GEOMETRIC_REPRESENTATION_CONTEXT(2) 
PARAMETRIC_REPRESENTATION_CONTEXT() REPRESENTATION_CONTEXT('2D SPACE',''
  ) );
#79 = ORIENTED_EDGE('',*,*,#80,.T.);
#80 = EDGE_CURVE('',#24,#81,#83,.T.);
#81 = VERTEX_POINT('',#82);
#82 = CARTESIAN_POINT('',(1.,0.1,0.));
#83 = SURFACE_CURVE('',#84,(#88),.PCURVE_S1.);
#84 = LINE('',#85,#86);
#85 = CARTESIAN_POINT('',(1.,-0.,0.));
#86 = VECTOR('',#87,1.);
#87 = DIRECTION('',(0.,1.,0.));
#88 = PCURVE('',#50,#89);
#89 = DEFINITIONAL_REPRESENTATION('',(#90),#94);
#90 = LINE('',#91,#92);
#91 = CARTESIAN_POINT('',(0.502056638654,-5.E-02));
#92 = VECTOR('',#93,1.);
#93 = DIRECTION('',(0.,1.));
#94 = ( GEOMETRIC_REPRESENTATION_CONTEXT(2) 
PARAMETRIC_REPRESENTATION_CONTEXT() REPRESENTATION_CONTEXT('2D SPACE',''
  ) );
#95 = ORIENTED_EDGE('',*,*,#96,.T.);
#96 = EDGE_CURVE('',#81,#97,#99,.T.);
#97 = VERTEX_POINT('',#98);
#98 = CARTESIAN_POINT('',(0.,0.1,0.));
#99 = SURFACE_CURVE('',#100,(#122),.PCURVE_S1.);
#100 = B_SPLINE_CURVE_WITH_KNOTS('',1,(#101,#102,#103,#104,#105,#106,
    #107,#108,#109,#110,#111,#112,#113,#114,#115,#116,#117,#118,#119,
    #120,#121),.UNSPECIFIED.,.F.,.F.,(2,1,1,1,1,1,1,1,1,1,1,1,1,1,1,1,1,
    1,1,1,2),(0.,4.812562368418E-02,0.103925650592,0.114835059142,
    0.189498360782,0.262167257926,0.327892443379,0.384036236771,
    0.438086886617,0.460468276276,0.516227123286,0.577796884238,
    0.727638733558,0.829021744,0.844421497263,0.863072984443,
    0.87592957773,0.928198174386,0.942106654077,0.982091006008,1.),
  .UNSPECIFIED.);
#101 = CARTESIAN_POINT('',(1.,0.1,0.));
#102 = CARTESIAN_POINT('',(0.951514792305,0.102311359767,0.));
#103 = CARTESIAN_POINT('',(0.895234097269,0.102417164105,0.));
#104 = CARTESIAN_POINT('',(0.884462560439,0.100170194868,0.));
#105 = CARTESIAN_POINT('',(0.809168606373,9.879052695037E-02,0.));
#106 = CARTESIAN_POINT('',(0.736043874267,0.103783657338,0.));
#107 = CARTESIAN_POINT('',(0.669768238685,0.102334949046,0.));
#108 = CARTESIAN_POINT('',(0.613202145585,9.969800888175E-02,0.));
#109 = CARTESIAN_POINT('',(0.558746720357,9.712147407523E-02,0.));
#110 = CARTESIAN_POINT('',(0.537286648316,0.104125827441,0.));
#111 = CARTESIAN_POINT('',(0.481049942804,0.103589828606,0.));
#112 = CARTESIAN_POINT('',(0.419300824738,9.699541992899E-02,0.));
#113 = CARTESIAN_POINT('',(0.268168099975,9.678441761822E-02,0.));
#114 = CARTESIAN_POINT('',(0.166211886899,0.104615496295,0.));
#115 = CARTESIAN_POINT('',(0.152972035344,9.649374156368E-02,0.));
#116 = CARTESIAN_POINT('',(0.134931321778,0.101825815982,0.));
#117 = CARTESIAN_POINT('',(0.122286851075,9.895007240041E-02,0.));
#118 = CARTESIAN_POINT('',(6.980048504292E-02,0.103896564217,0.));
#119 = CARTESIAN_POINT('',(5.824634618296E-02,9.594071963089E-02,0.));
#120 = CARTESIAN_POINT('',(1.803983252214E-02,9.907961430361E-02,0.));
#121 = CARTESIAN_POINT('',(0.,0.1,0.));
#122 = PCURVE('',#50,#123);
#123 = DEFINITIONAL_REPRESENTATION('',(#124),#146);
#124 = B_SPLINE_CURVE_WITH_KNOTS('',1,(#125,#126,#127,#128,#129,#130,
    #131,#132,#133,#134,#135,#136,#137,#138,#139,#140,#141,#142,#143,
    #144,#145),.UNSPECIFIED.,.F.,.F.,(2,1,1,1,1,1,1,1,1,1,1,1,1,1,1,1,1,
    1,1,1,2),(0.,4.812562368418E-02,0.103925650592,0.114835059142,
    0.189498360782,0.262167257926,0.327892443379,0.384036236771,
    0.438086886617,0.460468276276,0.516227123286,0.577796884238,
    0.727638733558,0.829021744,0.844421497263,0.863072984443,
    0.87592957773,0.928198174386,0.942106654077,0.982091006008,1.),
  .UNSPECIFIED.);
#125 = CARTESIAN_POINT('',(0.502056638654,5.E-02));
#126 = CARTESIAN_POINT('',(0.453571430959,5.231135976653E-02));
#127 = CARTESIAN_POINT('',(0.397290735923,5.24171641052E-02));
#128 = CARTESIAN_POINT('',(0.386519199093,5.017019486849E-02));
#129 = CARTESIAN_POINT('',(0.311225245027,4.879052695037E-02));
#130 = CARTESIAN_POINT('',(0.238100512921,5.378365733811E-02));
#131 = CARTESIAN_POINT('',(0.17182487734,5.233494904563E-02));
#132 = CARTESIAN_POINT('',(0.115258784239,4.969800888175E-02));
#133 = CARTESIAN_POINT('',(6.08033590118E-02,4.712147407523E-02));
#134 = CARTESIAN_POINT('',(3.934328697022E-02,5.412582744142E-02));
#135 = CARTESIAN_POINT('',(-1.689341854165E-02,5.358982860558E-02));
#136 = CARTESIAN_POINT('',(-7.864253660765E-02,4.699541992899E-02));
#137 = CARTESIAN_POINT('',(-0.22977526137,4.678441761822E-02));
#138 = CARTESIAN_POINT('',(-0.331731474446,5.461549629541E-02));
#139 = CARTESIAN_POINT('',(-0.344971326001,4.649374156368E-02));
#140 = CARTESIAN_POINT('',(-0.363012039568,5.182581598209E-02));
#141 = CARTESIAN_POINT('',(-0.375656510271,4.895007240041E-02));
#142 = CARTESIAN_POINT('',(-0.428142876303,5.389656421675E-02));
#143 = CARTESIAN_POINT('',(-0.439697015163,4.594071963089E-02));
#144 = CARTESIAN_POINT('',(-0.479903528824,4.907961430361E-02));
#145 = CARTESIAN_POINT('',(-0.497943361346,5.E-02));
#146 = ( GEOMETRIC_REPRESENTATION_CONTEXT(2) 
PARAMETRIC_REPRESENTATION_CONTEXT() REPRESENTATION_CONTEXT('2D SPACE',''
  ) );
#147 = ORIENTED_EDGE('',*,*,#148,.T.);
#148 = EDGE_CURVE('',#97,#22,#149,.T.);
#149 = SURFACE_CURVE('',#150,(#154),.PCURVE_S1.);
#150 = LINE('',#151,#152);
#151 = CARTESIAN_POINT('',(0.,0.1,0.));
#152 = VECTOR('',#153,1.);
#153 = DIRECTION('',(0.,-1.,0.));
#154 = PCURVE('',#50,#155);
#155 = DEFINITIONAL_REPRESENTATION('',(#156),#160);
#156 = LINE('',#157,#158);
#157 = CARTESIAN_POINT('',(-0.497943361346,5.E-02));
#158 = VECTOR('',#159,1.);
#159 = DIRECTION('',(0.,-1.));
#160 = ( GEOMETRIC_REPRESENTATION_CONTEXT(2) 
PARAMETRIC_REPRESENTATION_CONTEXT() REPRESENTATION_CONTEXT('2D SPACE',''
  ) );
#161 = ( GEOMETRIC_REPRESENTATION_CONTEXT(3) 
GLOBAL_UNCERTAINTY_ASSIGNED_CONTEXT((#165)) GLOBAL_UNIT_ASSIGNED_CONTEXT
((#162,#163,#164)) REPRESENTATION_CONTEXT('Context #1',
  '3D Context with UNIT and UNCERTAINTY') );
#162 = ( LENGTH_UNIT() NAMED_UNIT(*) SI_UNIT(.MILLI.,.METRE.) );
#163 = ( NAMED_UNIT(*) PLANE_ANGLE_UNIT() SI_UNIT($,.RADIAN.) );
#164 = ( NAMED_UNIT(*) SI_UNIT($,.STERADIAN.) SOLID_ANGLE_UNIT() );
#165 = UNCERTAINTY_MEASURE_WITH_UNIT(LENGTH_MEASURE(1.E-07),#162,
  'distance_accuracy_value','confusion accuracy');
#166 = PRODUCT_RELATED_PRODUCT_CATEGORY('part',$,(#7));
ENDSEC;
END-ISO-10303-21;
