ISO-10303-21;
HEADER;
FILE_DESCRIPTION(('Open CASCADE Model'),'2;1');
FILE_NAME('Open CASCADE Shape Model','2026-07-21T00:13:24',('Author'),(
    'Open CASCADE'),'Open CASCADE STEP processor 7.9','Open CASCADE 7.9'
  ,'Unknown');
FILE_SCHEMA(('AUTOMOTIVE_DESIGN { 1 0 10303 214 1 1 1 1 }'));
ENDSEC;
DATA;
#1 = APPLICATION_PROTOCOL_DEFINITION('international standard',
  'automotive_design',2000,#2);
#2 = APPLICATION_CONTEXT(
  'core data for automotive mechanical design processes');
#3 = SHAPE_DEFINITION_REPRESENTATION(#4,#10);
#4 = PRODUCT_DEFINITION_SHAPE('','',#5);
#5 = PRODUCT_DEFINITION('design','',#6,#9);
#6 = PRODUCT_DEFINITION_FORMATION('','',#7);
#7 = PRODUCT('Open CASCADE STEP translator 7.9 42',
  'Open CASCADE STEP translator 7.9 42','',(#8));
#8 = PRODUCT_CONTEXT('',#2,'mechanical');
#9 = PRODUCT_DEFINITION_CONTEXT('part definition',#2,'design');
#10 = MANIFOLD_SURFACE_SHAPE_REPRESENTATION('',(#11,#15),#121);
#11 = AXIS2_PLACEMENT_3D('',#12,#13,#14);
#12 = CARTESIAN_POINT('',(0.,0.,0.));
#13 = DIRECTION('',(0.,0.,1.));
#14 = DIRECTION('',(1.,0.,-0.));
#15 = SHELL_BASED_SURFACE_MODEL('',(#16));
#16 = OPEN_SHELL('',(#17));
#17 = ADVANCED_FACE('',(#18),#40,.T.);
#18 = FACE_BOUND('',#19,.T.);
#19 = EDGE_LOOP('',(#20,#59,#75,#107));
#20 = ORIENTED_EDGE('',*,*,#21,.T.);
#21 = EDGE_CURVE('',#22,#24,#26,.T.);
#22 = VERTEX_POINT('',#23);
#23 = CARTESIAN_POINT('',(0.,0.,0.));
#24 = VERTEX_POINT('',#25);
#25 = CARTESIAN_POINT('',(1.,0.,0.));
#26 = SURFACE_CURVE('',#27,(#39),.PCURVE_S1.);
#27 = B_SPLINE_CURVE_WITH_KNOTS('',1,(#28,#29,#30,#31,#32,#33,#34,#35,
    #36,#37,#38),.UNSPECIFIED.,.F.,.F.,(2,1,1,1,1,1,1,1,1,1,2),(0.,
    4.310217991068E-02,0.115700415411,0.164302394571,0.219178304744,
    0.29450727327,0.363339592586,0.592935195587,0.664781374127,
    0.902449955639,1.),.UNSPECIFIED.);
#28 = CARTESIAN_POINT('',(0.,-0.,0.));
#29 = CARTESIAN_POINT('',(4.312870663391E-02,-3.199026022586E-03,0.));
#30 = CARTESIAN_POINT('',(0.115961210635,-1.99390713432E-03,0.));
#31 = CARTESIAN_POINT('',(0.164660596854,5.4432054482E-04,0.));
#32 = CARTESIAN_POINT('',(0.218887381238,-9.001221892489E-03,0.));
#33 = CARTESIAN_POINT('',(0.293487313022,3.145727144901E-03,0.));
#34 = CARTESIAN_POINT('',(0.362471857706,6.455289975015E-03,0.));
#35 = CARTESIAN_POINT('',(0.592621982795,-3.561881217597E-03,0.));
#36 = CARTESIAN_POINT('',(0.664631602976,-6.920151226158E-03,0.));
#37 = CARTESIAN_POINT('',(0.902554627931,9.194925201202E-03,0.));
#38 = CARTESIAN_POINT('',(1.,-0.,0.));
#39 = PCURVE('',#40,#45);
#40 = PLANE('',#41);
#41 = AXIS2_PLACEMENT_3D('',#42,#43,#44);
#42 = CARTESIAN_POINT('',(0.499782745207,5.E-02,0.));
#43 = DIRECTION('',(0.,0.,1.));
#44 = DIRECTION('',(1.,0.,-0.));
#45 = DEFINITIONAL_REPRESENTATION('',(#46),#58);
#46 = B_SPLINE_CURVE_WITH_KNOTS('',1,(#47,#48,#49,#50,#51,#52,#53,#54,
    #55,#56,#57),.UNSPECIFIED.,.F.,.F.,(2,1,1,1,1,1,1,1,1,1,2),(0.,
    4.310217991068E-02,0.115700415411,0.164302394571,0.219178304744,
    0.29450727327,0.363339592586,0.592935195587,0.664781374127,
    0.902449955639,1.),.UNSPECIFIED.);
#47 = CARTESIAN_POINT('',(-0.499782745207,-5.E-02));
#48 = CARTESIAN_POINT('',(-0.456654038573,-5.319902602259E-02));
#49 = CARTESIAN_POINT('',(-0.383821534572,-5.199390713432E-02));
#50 = CARTESIAN_POINT('',(-0.335122148353,-4.945567945518E-02));
#51 = CARTESIAN_POINT('',(-0.280895363968,-5.900122189249E-02));
#52 = CARTESIAN_POINT('',(-0.206295432185,-4.68542728551E-02));
#53 = CARTESIAN_POINT('',(-0.137310887501,-4.354471002499E-02));
#54 = CARTESIAN_POINT('',(9.283923758851E-02,-5.35618812176E-02));
#55 = CARTESIAN_POINT('',(0.164848857769,-5.692015122616E-02));
#56 = CARTESIAN_POINT('',(0.402771882724,-4.08050747988E-02));
#57 = CARTESIAN_POINT('',(0.500217254793,-5.E-02));
#58 = ( GEOMETRIC_REPRESENTATION_CONTEXT(2) 
PARAMETRIC_REPRESENTATION_CONTEXT() REPRESENTATION_CONTEXT('2D SPACE',''
  ) );
#59 = ORIENTED_EDGE('',*,*,#60,.T.);
#60 = EDGE_CURVE('',#24,#61,#63,.T.);
#61 = VERTEX_POINT('',#62);
#62 = CARTESIAN_POINT('',(1.,0.1,0.));
#63 = SURFACE_CURVE('',#64,(#68),.PCURVE_S1.);
#64 = LINE('',#65,#66);
#65 = CARTESIAN_POINT('',(1.,-0.,0.));
#66 = VECTOR('',#67,1.);
#67 = DIRECTION('',(0.,1.,0.));
#68 = PCURVE('',#40,#69);
#69 = DEFINITIONAL_REPRESENTATION('',(#70),#74);
#70 = LINE('',#71,#72);
#71 = CARTESIAN_POINT('',(0.500217254793,-5.E-02));
#72 = VECTOR('',#73,1.);
#73 = DIRECTION('',(0.,1.));
#74 = ( GEOMETRIC_REPRESENTATION_CONTEXT(2) 
PARAMETRIC_REPRESENTATION_CONTEXT() REPRESENTATION_CONTEXT('2D SPACE',''
  ) );
#75 = ORIENTED_EDGE('',*,*,#76,.T.);
#76 = EDGE_CURVE('',#61,#77,#79,.T.);
#77 = VERTEX_POINT('',#78);
#78 = CARTESIAN_POINT('',(0.,0.1,0.));
#79 = SURFACE_CURVE('',#80,(#92),.PCURVE_S1.);
#80 = B_SPLINE_CURVE_WITH_KNOTS('',1,(#81,#82,#83,#84,#85,#86,#87,#88,
    #89,#90,#91),.UNSPECIFIED.,.F.,.F.,(2,1,1,1,1,1,1,1,1,1,2),(0.,
    9.755004436097E-02,0.335218625873,0.407064804413,0.636660407414,
    0.70549272673,0.780821695256,0.835697605429,0.884299584589,
    0.956897820089,1.),.UNSPECIFIED.);
#81 = CARTESIAN_POINT('',(1.,0.1,0.));
#82 = CARTESIAN_POINT('',(0.902554627931,9.08050747988E-02,0.));
#83 = CARTESIAN_POINT('',(0.664631602976,0.106920151226,0.));
#84 = CARTESIAN_POINT('',(0.592621982795,0.103561881218,0.));
#85 = CARTESIAN_POINT('',(0.362471857706,9.354471002499E-02,0.));
#86 = CARTESIAN_POINT('',(0.293487313022,9.68542728551E-02,0.));
#87 = CARTESIAN_POINT('',(0.218887381238,0.109001221892,0.));
#88 = CARTESIAN_POINT('',(0.164660596854,9.945567945518E-02,0.));
#89 = CARTESIAN_POINT('',(0.115961210635,0.101993907134,0.));
#90 = CARTESIAN_POINT('',(4.312870663391E-02,0.103199026023,0.));
#91 = CARTESIAN_POINT('',(0.,0.1,0.));
#92 = PCURVE('',#40,#93);
#93 = DEFINITIONAL_REPRESENTATION('',(#94),#106);
#94 = B_SPLINE_CURVE_WITH_KNOTS('',1,(#95,#96,#97,#98,#99,#100,#101,#102
    ,#103,#104,#105),.UNSPECIFIED.,.F.,.F.,(2,1,1,1,1,1,1,1,1,1,2),(0.,
    9.755004436097E-02,0.335218625873,0.407064804413,0.636660407414,
    0.70549272673,0.780821695256,0.835697605429,0.884299584589,
    0.956897820089,1.),.UNSPECIFIED.);
#95 = CARTESIAN_POINT('',(0.500217254793,5.E-02));
#96 = CARTESIAN_POINT('',(0.402771882724,4.08050747988E-02));
#97 = CARTESIAN_POINT('',(0.164848857769,5.692015122616E-02));
#98 = CARTESIAN_POINT('',(9.283923758851E-02,5.35618812176E-02));
#99 = CARTESIAN_POINT('',(-0.137310887501,4.354471002499E-02));
#100 = CARTESIAN_POINT('',(-0.206295432185,4.68542728551E-02));
#101 = CARTESIAN_POINT('',(-0.280895363968,5.900122189249E-02));
#102 = CARTESIAN_POINT('',(-0.335122148353,4.945567945518E-02));
#103 = CARTESIAN_POINT('',(-0.383821534572,5.199390713432E-02));
#104 = CARTESIAN_POINT('',(-0.456654038573,5.319902602259E-02));
#105 = CARTESIAN_POINT('',(-0.499782745207,5.E-02));
#106 = ( GEOMETRIC_REPRESENTATION_CONTEXT(2) 
PARAMETRIC_REPRESENTATION_CONTEXT() REPRESENTATION_CONTEXT('2D SPACE',''
  ) );
#107 = ORIENTED_EDGE('',*,*,#108,.T.);
#108 = EDGE_CURVE('',#77,#22,#109,.T.);
#109 = SURFACE_CURVE('',#110,(#114),.PCURVE_S1.);
#110 = LINE('',#111,#112);
#111 = CARTESIAN_POINT('',(0.,0.1,0.));
#112 = VECTOR('',#113,1.);
#113 = DIRECTION('',(0.,-1.,0.));
#114 = PCURVE('',#40,#115);
#115 = DEFINITIONAL_REPRESENTATION('',(#116),#120);
#116 = LINE('',#117,#118);
#117 = CARTESIAN_POINT('',(-0.499782745207,5.E-02));
#118 = VECTOR('',#119,1.);
#119 = DIRECTION('',(0.,-1.));
#120 = ( GEOMETRIC_REPRESENTATION_CONTEXT(2) 
PARAMETRIC_REPRESENTATION_CONTEXT() REPRESENTATION_CONTEXT('2D SPACE',''
  ) );
#121 = ( GEOMETRIC_REPRESENTATION_CONTEXT(3) 
GLOBAL_UNCERTAINTY_ASSIGNED_CONTEXT((#125)) GLOBAL_UNIT_ASSIGNED_CONTEXT
((#122,#123,#124)) REPRESENTATION_CONTEXT('Context #1',
  '3D Context with UNIT and UNCERTAINTY') );
#122 = ( LENGTH_UNIT() NAMED_UNIT(*) SI_UNIT(.MILLI.,.METRE.) );
#123 = ( NAMED_UNIT(*) PLANE_ANGLE_UNIT() SI_UNIT($,.RADIAN.) );
#124 = ( NAMED_UNIT(*) SI_UNIT($,.STERADIAN.) SOLID_ANGLE_UNIT() );
#125 = UNCERTAINTY_MEASURE_WITH_UNIT(LENGTH_MEASURE(1.E-07),#122,
  'distance_accuracy_value','confusion accuracy');
#126 = PRODUCT_RELATED_PRODUCT_CATEGORY('part',$,(#7));
ENDSEC;
END-ISO-10303-21;
