ISO-10303-21;
HEADER;
FILE_DESCRIPTION(('Open CASCADE Model'),'2;1');
FILE_NAME('Open CASCADE Shape Model','2026-08-17T20:30:05',('Author'),(
    'Open CASCADE'),'Open CASCADE STEP processor 7.9','Open CASCADE 7.9'
  ,'Unknown');
FILE_SCHEMA(('AUTOMOTIVE_DESIGN { 1 0 10303 214 1 1 1 1 }'));
ENDSEC;
DATA;
#1 = APPLICATION_PROTOCOL_DEFINITION('international standard',
  'automotive_design',2000,#2);
#2 = APPLICATION_CONTEXT(
  'core data for automotive mechanical design processes');
#3 = SHAPE_DEFINITION_REPRESENTATION(#4,#10);
#4 = PRODUCT_DEFINITION_SHAPE('','',#5);
#5 = PRODUCT_DEFINITION('design','',#6,#9);
#6 = PRODUCT_DEFINITION_FORMATION('','',#7);
#7 = PRODUCT('Open CASCADE STEP translator 7.9 82',
  'Open CASCADE STEP translator 7.9 82','',(#8));
#8 = PRODUCT_CONTEXT('',#2,'mechanical');
#9 = PRODUCT_DEFINITION_CONTEXT('part definition',#2,'design');
#10 = MANIFOLD_SURFACE_SHAPE_REPRESENTATION('',(#11,#15),#145);
#11 = AXIS2_PLACEMENT_3D('',#12,#13,#14);
#12 = CARTESIAN_POINT('',(0.,0.,0.));
#13 = DIRECTION('',(0.,0.,1.));
#14 = DIRECTION('',(1.,0.,-0.));
#15 = SHELL_BASED_SURFACE_MODEL('',(#16));
#16 = OPEN_SHELL('',(#17));
#17 = ADVANCED_FACE('',(#18),#46,.T.);
#18 = FACE_BOUND('',#19,.T.);
#19 = EDGE_LOOP('',(#20,#71,#87,#131));
#20 = ORIENTED_EDGE('',*,*,#21,.T.);
#21 = EDGE_CURVE('',#22,#24,#26,.T.);
#22 = VERTEX_POINT('',#23);
#23 = CARTESIAN_POINT('',(0.,0.,0.));
#24 = VERTEX_POINT('',#25);
#25 = CARTESIAN_POINT('',(1.,0.,0.));
#26 = SURFACE_CURVE('',#27,(#45),.PCURVE_S1.);
#27 = B_SPLINE_CURVE_WITH_KNOTS('',1,(#28,#29,#30,#31,#32,#33,#34,#35,
    #36,#37,#38,#39,#40,#41,#42,#43,#44),.UNSPECIFIED.,.F.,.F.,(2,1,1,1,
    1,1,1,1,1,1,1,1,1,1,1,1,2),(0.,2.977944923747E-02,8.658930706159E-02
    ,0.166999566562,0.180787772953,0.196825478703,0.280344262651,
    0.556532850277,0.592631983661,0.607913658878,0.689485911247,
    0.821792107369,0.885758118671,0.912400355826,0.930474855419,
    0.977312008925,1.),.UNSPECIFIED.);
#28 = CARTESIAN_POINT('',(0.,-0.,0.));
#29 = CARTESIAN_POINT('',(2.975011058525E-02,2.233874523564E-03,0.));
#30 = CARTESIAN_POINT('',(8.666213771927E-02,1.80291114148E-03,0.));
#31 = CARTESIAN_POINT('',(0.167114315513,-2.308866626129E-03,0.));
#32 = CARTESIAN_POINT('',(0.179833671219,3.078897511538E-03,0.));
#33 = CARTESIAN_POINT('',(0.195898064274,3.368834345174E-03,0.));
#34 = CARTESIAN_POINT('',(0.279437111166,-1.335267867965E-03,0.));
#35 = CARTESIAN_POINT('',(0.556104155284,2.471326178333E-03,0.));
#36 = CARTESIAN_POINT('',(0.592259452481,1.629662228644E-03,0.));
#37 = CARTESIAN_POINT('',(0.607568331613,1.481367732397E-03,0.));
#38 = CARTESIAN_POINT('',(0.689272605989,-1.866119766334E-04,0.));
#39 = CARTESIAN_POINT('',(0.821820308964,-4.380364609938E-04,0.));
#40 = CARTESIAN_POINT('',(0.885880976712,1.249374327675E-03,0.));
#41 = CARTESIAN_POINT('',(0.912445076742,-1.349401579439E-03,0.));
#42 = CARTESIAN_POINT('',(0.930394256678,1.040031441622E-03,0.));
#43 = CARTESIAN_POINT('',(0.977282886003,-7.486237521895E-04,0.));
#44 = CARTESIAN_POINT('',(1.,-0.,0.));
#45 = PCURVE('',#46,#51);
#46 = PLANE('',#47);
#47 = AXIS2_PLACEMENT_3D('',#48,#49,#50);
#48 = CARTESIAN_POINT('',(0.499694316355,3.125E-02,0.));
#49 = DIRECTION('',(0.,0.,1.));
#50 = DIRECTION('',(1.,0.,-0.));
#51 = DEFINITIONAL_REPRESENTATION('',(#52),#70);
#52 = B_SPLINE_CURVE_WITH_KNOTS('',1,(#53,#54,#55,#56,#57,#58,#59,#60,
    #61,#62,#63,#64,#65,#66,#67,#68,#69),.UNSPECIFIED.,.F.,.F.,(2,1,1,1,
    1,1,1,1,1,1,1,1,1,1,1,1,2),(0.,2.977944923747E-02,8.658930706159E-02
    ,0.166999566562,0.180787772953,0.196825478703,0.280344262651,
    0.556532850277,0.592631983661,0.607913658878,0.689485911247,
    0.821792107369,0.885758118671,0.912400355826,0.930474855419,
    0.977312008925,1.),.UNSPECIFIED.);
#53 = CARTESIAN_POINT('',(-0.499694316355,-3.125E-02));
#54 = CARTESIAN_POINT('',(-0.46994420577,-2.901612547644E-02));
#55 = CARTESIAN_POINT('',(-0.413032178636,-2.944708885852E-02));
#56 = CARTESIAN_POINT('',(-0.332580000842,-3.355886662613E-02));
#57 = CARTESIAN_POINT('',(-0.319860645136,-2.817110248846E-02));
#58 = CARTESIAN_POINT('',(-0.303796252081,-2.788116565483E-02));
#59 = CARTESIAN_POINT('',(-0.220257205189,-3.258526786797E-02));
#60 = CARTESIAN_POINT('',(5.640983892885E-02,-2.877867382167E-02));
#61 = CARTESIAN_POINT('',(9.256513612657E-02,-2.962033777136E-02));
#62 = CARTESIAN_POINT('',(0.107874015258,-2.97686322676E-02));
#63 = CARTESIAN_POINT('',(0.189578289634,-3.143661197663E-02));
#64 = CARTESIAN_POINT('',(0.32212599261,-3.168803646099E-02));
#65 = CARTESIAN_POINT('',(0.386186660357,-3.000062567232E-02));
#66 = CARTESIAN_POINT('',(0.412750760387,-3.259940157944E-02));
#67 = CARTESIAN_POINT('',(0.430699940323,-3.020996855838E-02));
#68 = CARTESIAN_POINT('',(0.477588569648,-3.199862375219E-02));
#69 = CARTESIAN_POINT('',(0.500305683645,-3.125E-02));
#70 = ( GEOMETRIC_REPRESENTATION_CONTEXT(2) 
PARAMETRIC_REPRESENTATION_CONTEXT() REPRESENTATION_CONTEXT('2D SPACE',''
  ) );
#71 = ORIENTED_EDGE('',*,*,#72,.T.);
#72 = EDGE_CURVE('',#24,#73,#75,.T.);
#73 = VERTEX_POINT('',#74);
#74 = CARTESIAN_POINT('',(1.,6.25E-02,0.));
#75 = SURFACE_CURVE('',#76,(#80),.PCURVE_S1.);
#76 = LINE('',#77,#78);
#77 = CARTESIAN_POINT('',(1.,-0.,0.));
#78 = VECTOR('',#79,1.);
#79 = DIRECTION('',(0.,1.,0.));
#80 = PCURVE('',#46,#81);
#81 = DEFINITIONAL_REPRESENTATION('',(#82),#86);
#82 = LINE('',#83,#84);
#83 = CARTESIAN_POINT('',(0.500305683645,-3.125E-02));
#84 = VECTOR('',#85,1.);
#85 = DIRECTION('',(0.,1.));
#86 = ( GEOMETRIC_REPRESENTATION_CONTEXT(2) 
PARAMETRIC_REPRESENTATION_CONTEXT() REPRESENTATION_CONTEXT('2D SPACE',''
  ) );
#87 = ORIENTED_EDGE('',*,*,#88,.T.);
#88 = EDGE_CURVE('',#73,#89,#91,.T.);
#89 = VERTEX_POINT('',#90);
#90 = CARTESIAN_POINT('',(0.,6.25E-02,0.));
#91 = SURFACE_CURVE('',#92,(#110),.PCURVE_S1.);
#92 = B_SPLINE_CURVE_WITH_KNOTS('',1,(#93,#94,#95,#96,#97,#98,#99,#100,
    #101,#102,#103,#104,#105,#106,#107,#108,#109),.UNSPECIFIED.,.F.,.F.,
  (2,1,1,1,1,1,1,1,1,1,1,1,1,1,1,1,2),(0.,2.268799107544E-02,
    6.952514458096E-02,8.759964417381E-02,0.114241881329,0.178207892631,
    0.310514088753,0.392086341122,0.407368016339,0.443467149723,
    0.719655737349,0.803174521297,0.819212227047,0.833000433438,
    0.913410692938,0.970220550763,1.),.UNSPECIFIED.);
#93 = CARTESIAN_POINT('',(1.,6.25E-02,0.));
#94 = CARTESIAN_POINT('',(0.977282886003,6.324862375219E-02,0.));
#95 = CARTESIAN_POINT('',(0.930394256678,6.145996855838E-02,0.));
#96 = CARTESIAN_POINT('',(0.912445076742,6.384940157944E-02,0.));
#97 = CARTESIAN_POINT('',(0.885880976712,6.125062567232E-02,0.));
#98 = CARTESIAN_POINT('',(0.821820308964,6.293803646099E-02,0.));
#99 = CARTESIAN_POINT('',(0.689272605989,6.268661197663E-02,0.));
#100 = CARTESIAN_POINT('',(0.607568331613,6.10186322676E-02,0.));
#101 = CARTESIAN_POINT('',(0.592259452481,6.087033777136E-02,0.));
#102 = CARTESIAN_POINT('',(0.556104155284,6.002867382167E-02,0.));
#103 = CARTESIAN_POINT('',(0.279437111166,6.383526786797E-02,0.));
#104 = CARTESIAN_POINT('',(0.195898064274,5.913116565483E-02,0.));
#105 = CARTESIAN_POINT('',(0.179833671219,5.942110248846E-02,0.));
#106 = CARTESIAN_POINT('',(0.167114315513,6.480886662613E-02,0.));
#107 = CARTESIAN_POINT('',(8.666213771927E-02,6.069708885852E-02,0.));
#108 = CARTESIAN_POINT('',(2.975011058525E-02,6.026612547644E-02,0.));
#109 = CARTESIAN_POINT('',(0.,6.25E-02,0.));
#110 = PCURVE('',#46,#111);
#111 = DEFINITIONAL_REPRESENTATION('',(#112),#130);
#112 = B_SPLINE_CURVE_WITH_KNOTS('',1,(#113,#114,#115,#116,#117,#118,
    #119,#120,#121,#122,#123,#124,#125,#126,#127,#128,#129),
  .UNSPECIFIED.,.F.,.F.,(2,1,1,1,1,1,1,1,1,1,1,1,1,1,1,1,2),(0.,
    2.268799107544E-02,6.952514458096E-02,8.759964417381E-02,
    0.114241881329,0.178207892631,0.310514088753,0.392086341122,
    0.407368016339,0.443467149723,0.719655737349,0.803174521297,
    0.819212227047,0.833000433438,0.913410692938,0.970220550763,1.),
  .UNSPECIFIED.);
#113 = CARTESIAN_POINT('',(0.500305683645,3.125E-02));
#114 = CARTESIAN_POINT('',(0.477588569648,3.199862375219E-02));
#115 = CARTESIAN_POINT('',(0.430699940323,3.020996855838E-02));
#116 = CARTESIAN_POINT('',(0.412750760387,3.259940157944E-02));
#117 = CARTESIAN_POINT('',(0.386186660357,3.000062567232E-02));
#118 = CARTESIAN_POINT('',(0.32212599261,3.168803646099E-02));
#119 = CARTESIAN_POINT('',(0.189578289634,3.143661197663E-02));
#120 = CARTESIAN_POINT('',(0.107874015258,2.97686322676E-02));
#121 = CARTESIAN_POINT('',(9.256513612657E-02,2.962033777136E-02));
#122 = CARTESIAN_POINT('',(5.640983892885E-02,2.877867382167E-02));
#123 = CARTESIAN_POINT('',(-0.220257205189,3.258526786797E-02));
#124 = CARTESIAN_POINT('',(-0.303796252081,2.788116565483E-02));
#125 = CARTESIAN_POINT('',(-0.319860645136,2.817110248846E-02));
#126 = CARTESIAN_POINT('',(-0.332580000842,3.355886662613E-02));
#127 = CARTESIAN_POINT('',(-0.413032178636,2.944708885852E-02));
#128 = CARTESIAN_POINT('',(-0.46994420577,2.901612547644E-02));
#129 = CARTESIAN_POINT('',(-0.499694316355,3.125E-02));
#130 = ( GEOMETRIC_REPRESENTATION_CONTEXT(2) 
PARAMETRIC_REPRESENTATION_CONTEXT() REPRESENTATION_CONTEXT('2D SPACE',''
  ) );
#131 = ORIENTED_EDGE('',*,*,#132,.T.);
#132 = EDGE_CURVE('',#89,#22,#133,.T.);
#133 = SURFACE_CURVE('',#134,(#138),.PCURVE_S1.);
#134 = LINE('',#135,#136);
#135 = CARTESIAN_POINT('',(0.,6.25E-02,0.));
#136 = VECTOR('',#137,1.);
#137 = DIRECTION('',(0.,-1.,0.));
#138 = PCURVE('',#46,#139);
#139 = DEFINITIONAL_REPRESENTATION('',(#140),#144);
#140 = LINE('',#141,#142);
#141 = CARTESIAN_POINT('',(-0.499694316355,3.125E-02));
#142 = VECTOR('',#143,1.);
#143 = DIRECTION('',(0.,-1.));
#144 = ( GEOMETRIC_REPRESENTATION_CONTEXT(2) 
PARAMETRIC_REPRESENTATION_CONTEXT() REPRESENTATION_CONTEXT('2D SPACE',''
  ) );
#145 = ( GEOMETRIC_REPRESENTATION_CONTEXT(3) 
GLOBAL_UNCERTAINTY_ASSIGNED_CONTEXT((#149)) GLOBAL_UNIT_ASSIGNED_CONTEXT
((#146,#147,#148)) REPRESENTATION_CONTEXT('Context #1',
  '3D Context with UNIT and UNCERTAINTY') );
#146 = ( LENGTH_UNIT() NAMED_UNIT(*) SI_UNIT(.MILLI.,.METRE.) );
#147 = ( NAMED_UNIT(*) PLANE_ANGLE_UNIT() SI_UNIT($,.RADIAN.) );
#148 = ( NAMED_UNIT(*) SI_UNIT($,.STERADIAN.) SOLID_ANGLE_UNIT() );
#149 = UNCERTAINTY_MEASURE_WITH_UNIT(LENGTH_MEASURE(1.E-07),#146,
  'distance_accuracy_value','confusion accuracy');
#150 = PRODUCT_RELATED_PRODUCT_CATEGORY('part',$,(#7));
ENDSEC;
END-ISO-10303-21;
