ISO-10303-21;
HEADER;
FILE_DESCRIPTION(('Open CASCADE Model'),'2;1');
FILE_NAME('Open CASCADE Shape Model','2026-08-17T20:30:05',('Author'),(
    'Open CASCADE'),'Open CASCADE STEP processor 7.9','Open CASCADE 7.9'
  ,'Unknown');
FILE_SCHEMA(('AUTOMOTIVE_DESIGN { 1 0 10303 214 1 1 1 1 }'));
ENDSEC;
DATA;
#1 = APPLICATION_PROTOCOL_DEFINITION('international standard',
  'automotive_design',2000,#2);
#2 = APPLICATION_CONTEXT(
  'core data for automotive mechanical design processes');
#3 = SHAPE_DEFINITION_REPRESENTATION(#4,#10);
#4 = PRODUCT_DEFINITION_SHAPE('','',#5);
#5 = PRODUCT_DEFINITION('design','',#6,#9);
#6 = PRODUCT_DEFINITION_FORMATION('','',#7);
#7 = PRODUCT('Open CASCADE STEP translator 7.9 67',
  'Open CASCADE STEP translator 7.9 67','',(#8));
#8 = PRODUCT_CONTEXT('',#2,'mechanical');
#9 = PRODUCT_DEFINITION_CONTEXT('part definition',#2,'design');
#10 = MANIFOLD_SURFACE_SHAPE_REPRESENTATION('',(#11,#15),#145);
#11 = AXIS2_PLACEMENT_3D('',#12,#13,#14);
#12 = CARTESIAN_POINT('',(0.,0.,0.));
#13 = DIRECTION('',(0.,0.,1.));
#14 = DIRECTION('',(1.,0.,-0.));
#15 = SHELL_BASED_SURFACE_MODEL('',(#16));
#16 = OPEN_SHELL('',(#17));
#17 = ADVANCED_FACE('',(#18),#46,.T.);
#18 = FACE_BOUND('',#19,.T.);
#19 = EDGE_LOOP('',(#20,#71,#87,#131));
#20 = ORIENTED_EDGE('',*,*,#21,.T.);
#21 = EDGE_CURVE('',#22,#24,#26,.T.);
#22 = VERTEX_POINT('',#23);
#23 = CARTESIAN_POINT('',(0.,0.,0.));
#24 = VERTEX_POINT('',#25);
#25 = CARTESIAN_POINT('',(1.,0.,0.));
#26 = SURFACE_CURVE('',#27,(#45),.PCURVE_S1.);
#27 = B_SPLINE_CURVE_WITH_KNOTS('',1,(#28,#29,#30,#31,#32,#33,#34,#35,
    #36,#37,#38,#39,#40,#41,#42,#43,#44),.UNSPECIFIED.,.F.,.F.,(2,1,1,1,
    1,1,1,1,1,1,1,1,1,1,1,1,2),(0.,0.189208065321,0.220277711477,
    0.305370150175,0.393009902642,0.425123878631,0.44572570586,
    0.466104721146,0.495104140511,0.522491011029,0.554088581831,
    0.574453335739,0.612921277201,0.629926844802,0.802005991591,
    0.870521127347,1.),.UNSPECIFIED.);
#28 = CARTESIAN_POINT('',(0.,-0.,0.));
#29 = CARTESIAN_POINT('',(0.1897016115,-2.632899506246E-03,0.));
#30 = CARTESIAN_POINT('',(0.220157728496,3.922815487085E-03,0.));
#31 = CARTESIAN_POINT('',(0.305480182823,4.089763962846E-03,0.));
#32 = CARTESIAN_POINT('',(0.393255829922,-1.258766918522E-04,0.));
#33 = CARTESIAN_POINT('',(0.425454128633,-5.308810631039E-04,0.));
#34 = CARTESIAN_POINT('',(0.445768616901,3.218277674107E-03,0.));
#35 = CARTESIAN_POINT('',(0.466070713876,8.990115031729E-04,0.));
#36 = CARTESIAN_POINT('',(0.49486408249,-3.158587064579E-03,0.));
#37 = CARTESIAN_POINT('',(0.522324570245,-3.318481971817E-03,0.));
#38 = CARTESIAN_POINT('',(0.553766257695,5.847919588039E-04,0.));
#39 = CARTESIAN_POINT('',(0.573623752506,-4.174391467315E-03,0.));
#40 = CARTESIAN_POINT('',(0.612163298113,-2.592452062541E-03,0.));
#41 = CARTESIAN_POINT('',(0.629212465612,-2.878588331478E-03,0.));
#42 = CARTESIAN_POINT('',(0.8016104128,4.234549632323E-03,0.));
#43 = CARTESIAN_POINT('',(0.870170965243,-1.478640623025E-04,0.));
#44 = CARTESIAN_POINT('',(1.,-0.,0.));
#45 = PCURVE('',#46,#51);
#46 = PLANE('',#47);
#47 = AXIS2_PLACEMENT_3D('',#48,#49,#50);
#48 = CARTESIAN_POINT('',(0.49987300887,3.125E-02,0.));
#49 = DIRECTION('',(0.,0.,1.));
#50 = DIRECTION('',(1.,0.,-0.));
#51 = DEFINITIONAL_REPRESENTATION('',(#52),#70);
#52 = B_SPLINE_CURVE_WITH_KNOTS('',1,(#53,#54,#55,#56,#57,#58,#59,#60,
    #61,#62,#63,#64,#65,#66,#67,#68,#69),.UNSPECIFIED.,.F.,.F.,(2,1,1,1,
    1,1,1,1,1,1,1,1,1,1,1,1,2),(0.,0.189208065321,0.220277711477,
    0.305370150175,0.393009902642,0.425123878631,0.44572570586,
    0.466104721146,0.495104140511,0.522491011029,0.554088581831,
    0.574453335739,0.612921277201,0.629926844802,0.802005991591,
    0.870521127347,1.),.UNSPECIFIED.);
#53 = CARTESIAN_POINT('',(-0.49987300887,-3.125E-02));
#54 = CARTESIAN_POINT('',(-0.310171397369,-3.388289950625E-02));
#55 = CARTESIAN_POINT('',(-0.279715280373,-2.732718451291E-02));
#56 = CARTESIAN_POINT('',(-0.194392826047,-2.716023603715E-02));
#57 = CARTESIAN_POINT('',(-0.106617178947,-3.137587669185E-02));
#58 = CARTESIAN_POINT('',(-7.441888023672E-02,-3.17808810631E-02));
#59 = CARTESIAN_POINT('',(-5.410439196905E-02,-2.803172232589E-02));
#60 = CARTESIAN_POINT('',(-3.380229499358E-02,-3.035098849683E-02));
#61 = CARTESIAN_POINT('',(-5.008926379746E-03,-3.440858706458E-02));
#62 = CARTESIAN_POINT('',(2.245156137497E-02,-3.456848197182E-02));
#63 = CARTESIAN_POINT('',(5.389324882509E-02,-3.06652080412E-02));
#64 = CARTESIAN_POINT('',(7.375074363638E-02,-3.542439146732E-02));
#65 = CARTESIAN_POINT('',(0.112290289243,-3.384245206254E-02));
#66 = CARTESIAN_POINT('',(0.129339456742,-3.412858833148E-02));
#67 = CARTESIAN_POINT('',(0.30173740393,-2.701545036768E-02));
#68 = CARTESIAN_POINT('',(0.370297956373,-3.13978640623E-02));
#69 = CARTESIAN_POINT('',(0.50012699113,-3.125E-02));
#70 = ( GEOMETRIC_REPRESENTATION_CONTEXT(2) 
PARAMETRIC_REPRESENTATION_CONTEXT() REPRESENTATION_CONTEXT('2D SPACE',''
  ) );
#71 = ORIENTED_EDGE('',*,*,#72,.T.);
#72 = EDGE_CURVE('',#24,#73,#75,.T.);
#73 = VERTEX_POINT('',#74);
#74 = CARTESIAN_POINT('',(1.,6.25E-02,0.));
#75 = SURFACE_CURVE('',#76,(#80),.PCURVE_S1.);
#76 = LINE('',#77,#78);
#77 = CARTESIAN_POINT('',(1.,-0.,0.));
#78 = VECTOR('',#79,1.);
#79 = DIRECTION('',(0.,1.,0.));
#80 = PCURVE('',#46,#81);
#81 = DEFINITIONAL_REPRESENTATION('',(#82),#86);
#82 = LINE('',#83,#84);
#83 = CARTESIAN_POINT('',(0.50012699113,-3.125E-02));
#84 = VECTOR('',#85,1.);
#85 = DIRECTION('',(0.,1.));
#86 = ( GEOMETRIC_REPRESENTATION_CONTEXT(2) 
PARAMETRIC_REPRESENTATION_CONTEXT() REPRESENTATION_CONTEXT('2D SPACE',''
  ) );
#87 = ORIENTED_EDGE('',*,*,#88,.T.);
#88 = EDGE_CURVE('',#73,#89,#91,.T.);
#89 = VERTEX_POINT('',#90);
#90 = CARTESIAN_POINT('',(0.,6.25E-02,0.));
#91 = SURFACE_CURVE('',#92,(#110),.PCURVE_S1.);
#92 = B_SPLINE_CURVE_WITH_KNOTS('',1,(#93,#94,#95,#96,#97,#98,#99,#100,
    #101,#102,#103,#104,#105,#106,#107,#108,#109),.UNSPECIFIED.,.F.,.F.,
  (2,1,1,1,1,1,1,1,1,1,1,1,1,1,1,1,2),(0.,0.129478872653,0.197994008409,
    0.370073155198,0.387078722799,0.425546664261,0.445911418169,
    0.477508988971,0.504895859489,0.533895278854,0.55427429414,
    0.574876121369,0.606990097358,0.694629849825,0.779722288523,
    0.810791934679,1.),.UNSPECIFIED.);
#93 = CARTESIAN_POINT('',(1.,6.25E-02,0.));
#94 = CARTESIAN_POINT('',(0.870170965243,6.26478640623E-02,0.));
#95 = CARTESIAN_POINT('',(0.8016104128,5.826545036768E-02,0.));
#96 = CARTESIAN_POINT('',(0.629212465612,6.537858833148E-02,0.));
#97 = CARTESIAN_POINT('',(0.612163298113,6.509245206254E-02,0.));
#98 = CARTESIAN_POINT('',(0.573623752506,6.667439146732E-02,0.));
#99 = CARTESIAN_POINT('',(0.553766257695,6.19152080412E-02,0.));
#100 = CARTESIAN_POINT('',(0.522324570245,6.581848197182E-02,0.));
#101 = CARTESIAN_POINT('',(0.49486408249,6.565858706458E-02,0.));
#102 = CARTESIAN_POINT('',(0.466070713876,6.160098849683E-02,0.));
#103 = CARTESIAN_POINT('',(0.445768616901,5.928172232589E-02,0.));
#104 = CARTESIAN_POINT('',(0.425454128633,6.30308810631E-02,0.));
#105 = CARTESIAN_POINT('',(0.393255829922,6.262587669185E-02,0.));
#106 = CARTESIAN_POINT('',(0.305480182823,5.841023603715E-02,0.));
#107 = CARTESIAN_POINT('',(0.220157728496,5.857718451291E-02,0.));
#108 = CARTESIAN_POINT('',(0.1897016115,6.513289950625E-02,0.));
#109 = CARTESIAN_POINT('',(0.,6.25E-02,0.));
#110 = PCURVE('',#46,#111);
#111 = DEFINITIONAL_REPRESENTATION('',(#112),#130);
#112 = B_SPLINE_CURVE_WITH_KNOTS('',1,(#113,#114,#115,#116,#117,#118,
    #119,#120,#121,#122,#123,#124,#125,#126,#127,#128,#129),
  .UNSPECIFIED.,.F.,.F.,(2,1,1,1,1,1,1,1,1,1,1,1,1,1,1,1,2),(0.,
    0.129478872653,0.197994008409,0.370073155198,0.387078722799,
    0.425546664261,0.445911418169,0.477508988971,0.504895859489,
    0.533895278854,0.55427429414,0.574876121369,0.606990097358,
    0.694629849825,0.779722288523,0.810791934679,1.),.UNSPECIFIED.);
#113 = CARTESIAN_POINT('',(0.50012699113,3.125E-02));
#114 = CARTESIAN_POINT('',(0.370297956373,3.13978640623E-02));
#115 = CARTESIAN_POINT('',(0.30173740393,2.701545036768E-02));
#116 = CARTESIAN_POINT('',(0.129339456742,3.412858833148E-02));
#117 = CARTESIAN_POINT('',(0.112290289243,3.384245206254E-02));
#118 = CARTESIAN_POINT('',(7.375074363638E-02,3.542439146732E-02));
#119 = CARTESIAN_POINT('',(5.389324882509E-02,3.06652080412E-02));
#120 = CARTESIAN_POINT('',(2.245156137497E-02,3.456848197182E-02));
#121 = CARTESIAN_POINT('',(-5.008926379746E-03,3.440858706458E-02));
#122 = CARTESIAN_POINT('',(-3.380229499358E-02,3.035098849683E-02));
#123 = CARTESIAN_POINT('',(-5.410439196905E-02,2.803172232589E-02));
#124 = CARTESIAN_POINT('',(-7.441888023672E-02,3.17808810631E-02));
#125 = CARTESIAN_POINT('',(-0.106617178947,3.137587669185E-02));
#126 = CARTESIAN_POINT('',(-0.194392826047,2.716023603715E-02));
#127 = CARTESIAN_POINT('',(-0.279715280373,2.732718451291E-02));
#128 = CARTESIAN_POINT('',(-0.310171397369,3.388289950625E-02));
#129 = CARTESIAN_POINT('',(-0.49987300887,3.125E-02));
#130 = ( GEOMETRIC_REPRESENTATION_CONTEXT(2) 
PARAMETRIC_REPRESENTATION_CONTEXT() REPRESENTATION_CONTEXT('2D SPACE',''
  ) );
#131 = ORIENTED_EDGE('',*,*,#132,.T.);
#132 = EDGE_CURVE('',#89,#22,#133,.T.);
#133 = SURFACE_CURVE('',#134,(#138),.PCURVE_S1.);
#134 = LINE('',#135,#136);
#135 = CARTESIAN_POINT('',(0.,6.25E-02,0.));
#136 = VECTOR('',#137,1.);
#137 = DIRECTION('',(0.,-1.,0.));
#138 = PCURVE('',#46,#139);
#139 = DEFINITIONAL_REPRESENTATION('',(#140),#144);
#140 = LINE('',#141,#142);
#141 = CARTESIAN_POINT('',(-0.49987300887,3.125E-02));
#142 = VECTOR('',#143,1.);
#143 = DIRECTION('',(0.,-1.));
#144 = ( GEOMETRIC_REPRESENTATION_CONTEXT(2) 
PARAMETRIC_REPRESENTATION_CONTEXT() REPRESENTATION_CONTEXT('2D SPACE',''
  ) );
#145 = ( GEOMETRIC_REPRESENTATION_CONTEXT(3) 
GLOBAL_UNCERTAINTY_ASSIGNED_CONTEXT((#149)) GLOBAL_UNIT_ASSIGNED_CONTEXT
((#146,#147,#148)) REPRESENTATION_CONTEXT('Context #1',
  '3D Context with UNIT and UNCERTAINTY') );
#146 = ( LENGTH_UNIT() NAMED_UNIT(*) SI_UNIT(.MILLI.,.METRE.) );
#147 = ( NAMED_UNIT(*) PLANE_ANGLE_UNIT() SI_UNIT($,.RADIAN.) );
#148 = ( NAMED_UNIT(*) SI_UNIT($,.STERADIAN.) SOLID_ANGLE_UNIT() );
#149 = UNCERTAINTY_MEASURE_WITH_UNIT(LENGTH_MEASURE(1.E-07),#146,
  'distance_accuracy_value','confusion accuracy');
#150 = PRODUCT_RELATED_PRODUCT_CATEGORY('part',$,(#7));
ENDSEC;
END-ISO-10303-21;
