ISO-10303-21;
HEADER;
FILE_DESCRIPTION(('Open CASCADE Model'),'2;1');
FILE_NAME('Open CASCADE Shape Model','2026-08-17T20:30:04',('Author'),(
    'Open CASCADE'),'Open CASCADE STEP processor 7.9','Open CASCADE 7.9'
  ,'Unknown');
FILE_SCHEMA(('AUTOMOTIVE_DESIGN { 1 0 10303 214 1 1 1 1 }'));
ENDSEC;
DATA;
#1 = APPLICATION_PROTOCOL_DEFINITION('international standard',
  'automotive_design',2000,#2);
#2 = APPLICATION_CONTEXT(
  'core data for automotive mechanical design processes');
#3 = SHAPE_DEFINITION_REPRESENTATION(#4,#10);
#4 = PRODUCT_DEFINITION_SHAPE('','',#5);
#5 = PRODUCT_DEFINITION('design','',#6,#9);
#6 = PRODUCT_DEFINITION_FORMATION('','',#7);
#7 = PRODUCT('Open CASCADE STEP translator 7.9 35',
  'Open CASCADE STEP translator 7.9 35','',(#8));
#8 = PRODUCT_CONTEXT('',#2,'mechanical');
#9 = PRODUCT_DEFINITION_CONTEXT('part definition',#2,'design');
#10 = MANIFOLD_SURFACE_SHAPE_REPRESENTATION('',(#11,#15),#101);
#11 = AXIS2_PLACEMENT_3D('',#12,#13,#14);
#12 = CARTESIAN_POINT('',(0.,0.,0.));
#13 = DIRECTION('',(0.,0.,1.));
#14 = DIRECTION('',(1.,0.,-0.));
#15 = SHELL_BASED_SURFACE_MODEL('',(#16));
#16 = OPEN_SHELL('',(#17));
#17 = ADVANCED_FACE('',(#18),#35,.T.);
#18 = FACE_BOUND('',#19,.T.);
#19 = EDGE_LOOP('',(#20,#49,#65,#87));
#20 = ORIENTED_EDGE('',*,*,#21,.T.);
#21 = EDGE_CURVE('',#22,#24,#26,.T.);
#22 = VERTEX_POINT('',#23);
#23 = CARTESIAN_POINT('',(0.,0.,0.));
#24 = VERTEX_POINT('',#25);
#25 = CARTESIAN_POINT('',(1.,0.,0.));
#26 = SURFACE_CURVE('',#27,(#34),.PCURVE_S1.);
#27 = B_SPLINE_CURVE_WITH_KNOTS('',1,(#28,#29,#30,#31,#32,#33),
  .UNSPECIFIED.,.F.,.F.,(2,1,1,1,1,2),(0.,0.100684935929,0.312606659078,
    0.470098477462,0.584607250027,1.),.UNSPECIFIED.);
#28 = CARTESIAN_POINT('',(0.,-0.,0.));
#29 = CARTESIAN_POINT('',(0.100634524311,-3.469568408986E-03,0.));
#30 = CARTESIAN_POINT('',(0.312557549707,-6.736856657562E-04,0.));
#31 = CARTESIAN_POINT('',(0.470061540398,-1.561276441691E-03,0.));
#32 = CARTESIAN_POINT('',(0.584568567401,1.248926645409E-04,0.));
#33 = CARTESIAN_POINT('',(1.,-0.,0.));
#34 = PCURVE('',#35,#40);
#35 = PLANE('',#36);
#36 = AXIS2_PLACEMENT_3D('',#37,#38,#39);
#37 = CARTESIAN_POINT('',(0.499973147267,1.E-01,0.));
#38 = DIRECTION('',(0.,0.,1.));
#39 = DIRECTION('',(1.,0.,-0.));
#40 = DEFINITIONAL_REPRESENTATION('',(#41),#48);
#41 = B_SPLINE_CURVE_WITH_KNOTS('',1,(#42,#43,#44,#45,#46,#47),
  .UNSPECIFIED.,.F.,.F.,(2,1,1,1,1,2),(0.,0.100684935929,0.312606659078,
    0.470098477462,0.584607250027,1.),.UNSPECIFIED.);
#42 = CARTESIAN_POINT('',(-0.499973147267,-1.E-01));
#43 = CARTESIAN_POINT('',(-0.399338622955,-0.103469568409));
#44 = CARTESIAN_POINT('',(-0.18741559756,-0.100673685666));
#45 = CARTESIAN_POINT('',(-2.991160686873E-02,-0.101561276442));
#46 = CARTESIAN_POINT('',(8.459542013454E-02,-9.987510733546E-02));
#47 = CARTESIAN_POINT('',(0.500026852733,-1.E-01));
#48 = ( GEOMETRIC_REPRESENTATION_CONTEXT(2) 
PARAMETRIC_REPRESENTATION_CONTEXT() REPRESENTATION_CONTEXT('2D SPACE',''
  ) );
#49 = ORIENTED_EDGE('',*,*,#50,.T.);
#50 = EDGE_CURVE('',#24,#51,#53,.T.);
#51 = VERTEX_POINT('',#52);
#52 = CARTESIAN_POINT('',(1.,0.2,0.));
#53 = SURFACE_CURVE('',#54,(#58),.PCURVE_S1.);
#54 = LINE('',#55,#56);
#55 = CARTESIAN_POINT('',(1.,-0.,0.));
#56 = VECTOR('',#57,1.);
#57 = DIRECTION('',(0.,1.,0.));
#58 = PCURVE('',#35,#59);
#59 = DEFINITIONAL_REPRESENTATION('',(#60),#64);
#60 = LINE('',#61,#62);
#61 = CARTESIAN_POINT('',(0.500026852733,-1.E-01));
#62 = VECTOR('',#63,1.);
#63 = DIRECTION('',(0.,1.));
#64 = ( GEOMETRIC_REPRESENTATION_CONTEXT(2) 
PARAMETRIC_REPRESENTATION_CONTEXT() REPRESENTATION_CONTEXT('2D SPACE',''
  ) );
#65 = ORIENTED_EDGE('',*,*,#66,.T.);
#66 = EDGE_CURVE('',#51,#67,#69,.T.);
#67 = VERTEX_POINT('',#68);
#68 = CARTESIAN_POINT('',(0.,0.2,0.));
#69 = SURFACE_CURVE('',#70,(#77),.PCURVE_S1.);
#70 = B_SPLINE_CURVE_WITH_KNOTS('',1,(#71,#72,#73,#74,#75,#76),
  .UNSPECIFIED.,.F.,.F.,(2,1,1,1,1,2),(0.,0.415392749973,0.529901522538,
    0.687393340922,0.899315064071,1.),.UNSPECIFIED.);
#71 = CARTESIAN_POINT('',(1.,0.2,0.));
#72 = CARTESIAN_POINT('',(0.584568567401,0.199875107335,0.));
#73 = CARTESIAN_POINT('',(0.470061540398,0.201561276442,0.));
#74 = CARTESIAN_POINT('',(0.312557549707,0.200673685666,0.));
#75 = CARTESIAN_POINT('',(0.100634524311,0.203469568409,0.));
#76 = CARTESIAN_POINT('',(0.,0.2,0.));
#77 = PCURVE('',#35,#78);
#78 = DEFINITIONAL_REPRESENTATION('',(#79),#86);
#79 = B_SPLINE_CURVE_WITH_KNOTS('',1,(#80,#81,#82,#83,#84,#85),
  .UNSPECIFIED.,.F.,.F.,(2,1,1,1,1,2),(0.,0.415392749973,0.529901522538,
    0.687393340922,0.899315064071,1.),.UNSPECIFIED.);
#80 = CARTESIAN_POINT('',(0.500026852733,0.1));
#81 = CARTESIAN_POINT('',(8.459542013454E-02,9.987510733546E-02));
#82 = CARTESIAN_POINT('',(-2.991160686873E-02,0.101561276442));
#83 = CARTESIAN_POINT('',(-0.18741559756,0.100673685666));
#84 = CARTESIAN_POINT('',(-0.399338622955,0.103469568409));
#85 = CARTESIAN_POINT('',(-0.499973147267,0.1));
#86 = ( GEOMETRIC_REPRESENTATION_CONTEXT(2) 
PARAMETRIC_REPRESENTATION_CONTEXT() REPRESENTATION_CONTEXT('2D SPACE',''
  ) );
#87 = ORIENTED_EDGE('',*,*,#88,.T.);
#88 = EDGE_CURVE('',#67,#22,#89,.T.);
#89 = SURFACE_CURVE('',#90,(#94),.PCURVE_S1.);
#90 = LINE('',#91,#92);
#91 = CARTESIAN_POINT('',(0.,0.2,0.));
#92 = VECTOR('',#93,1.);
#93 = DIRECTION('',(0.,-1.,0.));
#94 = PCURVE('',#35,#95);
#95 = DEFINITIONAL_REPRESENTATION('',(#96),#100);
#96 = LINE('',#97,#98);
#97 = CARTESIAN_POINT('',(-0.499973147267,0.1));
#98 = VECTOR('',#99,1.);
#99 = DIRECTION('',(0.,-1.));
#100 = ( GEOMETRIC_REPRESENTATION_CONTEXT(2) 
PARAMETRIC_REPRESENTATION_CONTEXT() REPRESENTATION_CONTEXT('2D SPACE',''
  ) );
#101 = ( GEOMETRIC_REPRESENTATION_CONTEXT(3) 
GLOBAL_UNCERTAINTY_ASSIGNED_CONTEXT((#105)) GLOBAL_UNIT_ASSIGNED_CONTEXT
((#102,#103,#104)) REPRESENTATION_CONTEXT('Context #1',
  '3D Context with UNIT and UNCERTAINTY') );
#102 = ( LENGTH_UNIT() NAMED_UNIT(*) SI_UNIT(.MILLI.,.METRE.) );
#103 = ( NAMED_UNIT(*) PLANE_ANGLE_UNIT() SI_UNIT($,.RADIAN.) );
#104 = ( NAMED_UNIT(*) SI_UNIT($,.STERADIAN.) SOLID_ANGLE_UNIT() );
#105 = UNCERTAINTY_MEASURE_WITH_UNIT(LENGTH_MEASURE(1.E-07),#102,
  'distance_accuracy_value','confusion accuracy');
#106 = PRODUCT_RELATED_PRODUCT_CATEGORY('part',$,(#7));
ENDSEC;
END-ISO-10303-21;
