ISO-10303-21;
HEADER;
FILE_DESCRIPTION(('Open CASCADE Model'),'2;1');
FILE_NAME('Open CASCADE Shape Model','2026-08-17T20:30:05',('Author'),(
    'Open CASCADE'),'Open CASCADE STEP processor 7.9','Open CASCADE 7.9'
  ,'Unknown');
FILE_SCHEMA(('AUTOMOTIVE_DESIGN { 1 0 10303 214 1 1 1 1 }'));
ENDSEC;
DATA;
#1 = APPLICATION_PROTOCOL_DEFINITION('international standard',
  'automotive_design',2000,#2);
#2 = APPLICATION_CONTEXT(
  'core data for automotive mechanical design processes');
#3 = SHAPE_DEFINITION_REPRESENTATION(#4,#10);
#4 = PRODUCT_DEFINITION_SHAPE('','',#5);
#5 = PRODUCT_DEFINITION('design','',#6,#9);
#6 = PRODUCT_DEFINITION_FORMATION('','',#7);
#7 = PRODUCT('Open CASCADE STEP translator 7.9 81',
  'Open CASCADE STEP translator 7.9 81','',(#8));
#8 = PRODUCT_CONTEXT('',#2,'mechanical');
#9 = PRODUCT_DEFINITION_CONTEXT('part definition',#2,'design');
#10 = MANIFOLD_SURFACE_SHAPE_REPRESENTATION('',(#11,#15),#145);
#11 = AXIS2_PLACEMENT_3D('',#12,#13,#14);
#12 = CARTESIAN_POINT('',(0.,0.,0.));
#13 = DIRECTION('',(0.,0.,1.));
#14 = DIRECTION('',(1.,0.,-0.));
#15 = SHELL_BASED_SURFACE_MODEL('',(#16));
#16 = OPEN_SHELL('',(#17));
#17 = ADVANCED_FACE('',(#18),#46,.T.);
#18 = FACE_BOUND('',#19,.T.);
#19 = EDGE_LOOP('',(#20,#71,#87,#131));
#20 = ORIENTED_EDGE('',*,*,#21,.T.);
#21 = EDGE_CURVE('',#22,#24,#26,.T.);
#22 = VERTEX_POINT('',#23);
#23 = CARTESIAN_POINT('',(0.,0.,0.));
#24 = VERTEX_POINT('',#25);
#25 = CARTESIAN_POINT('',(1.,0.,0.));
#26 = SURFACE_CURVE('',#27,(#45),.PCURVE_S1.);
#27 = B_SPLINE_CURVE_WITH_KNOTS('',1,(#28,#29,#30,#31,#32,#33,#34,#35,
    #36,#37,#38,#39,#40,#41,#42,#43,#44),.UNSPECIFIED.,.F.,.F.,(2,1,1,1,
    1,1,1,1,1,1,1,1,1,1,1,1,2),(0.,5.274714458787E-02,0.119665871353,
    0.171363386963,0.184082820639,0.211754352066,0.247771192756,
    0.269934814657,0.283672760648,0.305394289756,0.472843772228,
    0.509716528392,0.549681821034,0.625659784122,0.914920217633,
    0.954448485587,1.),.UNSPECIFIED.);
#28 = CARTESIAN_POINT('',(0.,-0.,0.));
#29 = CARTESIAN_POINT('',(5.284973920239E-02,4.007872501721E-03,0.));
#30 = CARTESIAN_POINT('',(0.120084159956,4.977182082715E-03,0.));
#31 = CARTESIAN_POINT('',(0.17115070281,-4.545329987292E-03,0.));
#32 = CARTESIAN_POINT('',(0.183883037361,-3.433731891851E-03,0.));
#33 = CARTESIAN_POINT('',(0.211051465496,2.481712427882E-03,0.));
#34 = CARTESIAN_POINT('',(0.246905904792,-2.438900258117E-03,0.));
#35 = CARTESIAN_POINT('',(0.269130303671,-1.00676263432E-03,0.));
#36 = CARTESIAN_POINT('',(0.28189290114,4.253633768669E-03,0.));
#37 = CARTESIAN_POINT('',(0.303709628355,3.608287532361E-03,0.));
#38 = CARTESIAN_POINT('',(0.471924198164,-1.666118011384E-04,0.));
#39 = CARTESIAN_POINT('',(0.50877639462,-3.99535942438E-03,0.));
#40 = CARTESIAN_POINT('',(0.548204131169,3.628217025851E-03,0.));
#41 = CARTESIAN_POINT('',(0.624546748688,3.117263284612E-03,0.));
#42 = CARTESIAN_POINT('',(0.915174955992,-8.469161175133E-04,0.));
#43 = CARTESIAN_POINT('',(0.95448509152,4.836575621295E-03,0.));
#44 = CARTESIAN_POINT('',(1.,-0.,0.));
#45 = PCURVE('',#46,#51);
#46 = PLANE('',#47);
#47 = AXIS2_PLACEMENT_3D('',#48,#49,#50);
#48 = CARTESIAN_POINT('',(0.499427235888,3.125E-02,0.));
#49 = DIRECTION('',(0.,0.,1.));
#50 = DIRECTION('',(1.,0.,-0.));
#51 = DEFINITIONAL_REPRESENTATION('',(#52),#70);
#52 = B_SPLINE_CURVE_WITH_KNOTS('',1,(#53,#54,#55,#56,#57,#58,#59,#60,
    #61,#62,#63,#64,#65,#66,#67,#68,#69),.UNSPECIFIED.,.F.,.F.,(2,1,1,1,
    1,1,1,1,1,1,1,1,1,1,1,1,2),(0.,5.274714458787E-02,0.119665871353,
    0.171363386963,0.184082820639,0.211754352066,0.247771192756,
    0.269934814657,0.283672760648,0.305394289756,0.472843772228,
    0.509716528392,0.549681821034,0.625659784122,0.914920217633,
    0.954448485587,1.),.UNSPECIFIED.);
#53 = CARTESIAN_POINT('',(-0.499427235888,-3.125E-02));
#54 = CARTESIAN_POINT('',(-0.446577496686,-2.724212749828E-02));
#55 = CARTESIAN_POINT('',(-0.379343075933,-2.627281791728E-02));
#56 = CARTESIAN_POINT('',(-0.328276533078,-3.579532998729E-02));
#57 = CARTESIAN_POINT('',(-0.315544198528,-3.468373189185E-02));
#58 = CARTESIAN_POINT('',(-0.288375770393,-2.876828757212E-02));
#59 = CARTESIAN_POINT('',(-0.252521331096,-3.368890025812E-02));
#60 = CARTESIAN_POINT('',(-0.230296932217,-3.225676263432E-02));
#61 = CARTESIAN_POINT('',(-0.217534334748,-2.699636623133E-02));
#62 = CARTESIAN_POINT('',(-0.195717607533,-2.764171246764E-02));
#63 = CARTESIAN_POINT('',(-2.750303772416E-02,-3.141661180114E-02));
#64 = CARTESIAN_POINT('',(9.349158731445E-03,-3.524535942438E-02));
#65 = CARTESIAN_POINT('',(4.877689528076E-02,-2.762178297415E-02));
#66 = CARTESIAN_POINT('',(0.1251195128,-2.813273671539E-02));
#67 = CARTESIAN_POINT('',(0.415747720104,-3.209691611751E-02));
#68 = CARTESIAN_POINT('',(0.455057855631,-2.641342437871E-02));
#69 = CARTESIAN_POINT('',(0.500572764112,-3.125E-02));
#70 = ( GEOMETRIC_REPRESENTATION_CONTEXT(2) 
PARAMETRIC_REPRESENTATION_CONTEXT() REPRESENTATION_CONTEXT('2D SPACE',''
  ) );
#71 = ORIENTED_EDGE('',*,*,#72,.T.);
#72 = EDGE_CURVE('',#24,#73,#75,.T.);
#73 = VERTEX_POINT('',#74);
#74 = CARTESIAN_POINT('',(1.,6.25E-02,0.));
#75 = SURFACE_CURVE('',#76,(#80),.PCURVE_S1.);
#76 = LINE('',#77,#78);
#77 = CARTESIAN_POINT('',(1.,-0.,0.));
#78 = VECTOR('',#79,1.);
#79 = DIRECTION('',(0.,1.,0.));
#80 = PCURVE('',#46,#81);
#81 = DEFINITIONAL_REPRESENTATION('',(#82),#86);
#82 = LINE('',#83,#84);
#83 = CARTESIAN_POINT('',(0.500572764112,-3.125E-02));
#84 = VECTOR('',#85,1.);
#85 = DIRECTION('',(0.,1.));
#86 = ( GEOMETRIC_REPRESENTATION_CONTEXT(2) 
PARAMETRIC_REPRESENTATION_CONTEXT() REPRESENTATION_CONTEXT('2D SPACE',''
  ) );
#87 = ORIENTED_EDGE('',*,*,#88,.T.);
#88 = EDGE_CURVE('',#73,#89,#91,.T.);
#89 = VERTEX_POINT('',#90);
#90 = CARTESIAN_POINT('',(0.,6.25E-02,0.));
#91 = SURFACE_CURVE('',#92,(#110),.PCURVE_S1.);
#92 = B_SPLINE_CURVE_WITH_KNOTS('',1,(#93,#94,#95,#96,#97,#98,#99,#100,
    #101,#102,#103,#104,#105,#106,#107,#108,#109),.UNSPECIFIED.,.F.,.F.,
  (2,1,1,1,1,1,1,1,1,1,1,1,1,1,1,1,2),(0.,4.555151441266E-02,
    8.507978236686E-02,0.374340215878,0.450318178966,0.490283471608,
    0.527156227772,0.694605710244,0.716327239352,0.730065185343,
    0.752228807244,0.788245647934,0.815917179361,0.828636613037,
    0.880334128647,0.947252855412,1.),.UNSPECIFIED.);
#93 = CARTESIAN_POINT('',(1.,6.25E-02,0.));
#94 = CARTESIAN_POINT('',(0.95448509152,5.766342437871E-02,0.));
#95 = CARTESIAN_POINT('',(0.915174955992,6.334691611751E-02,0.));
#96 = CARTESIAN_POINT('',(0.624546748688,5.938273671539E-02,0.));
#97 = CARTESIAN_POINT('',(0.548204131169,5.887178297415E-02,0.));
#98 = CARTESIAN_POINT('',(0.50877639462,6.649535942438E-02,0.));
#99 = CARTESIAN_POINT('',(0.471924198164,6.266661180114E-02,0.));
#100 = CARTESIAN_POINT('',(0.303709628355,5.889171246764E-02,0.));
#101 = CARTESIAN_POINT('',(0.28189290114,5.824636623133E-02,0.));
#102 = CARTESIAN_POINT('',(0.269130303671,6.350676263432E-02,0.));
#103 = CARTESIAN_POINT('',(0.246905904792,6.493890025812E-02,0.));
#104 = CARTESIAN_POINT('',(0.211051465496,6.001828757212E-02,0.));
#105 = CARTESIAN_POINT('',(0.183883037361,6.593373189185E-02,0.));
#106 = CARTESIAN_POINT('',(0.17115070281,6.704532998729E-02,0.));
#107 = CARTESIAN_POINT('',(0.120084159956,5.752281791728E-02,0.));
#108 = CARTESIAN_POINT('',(5.284973920239E-02,5.849212749828E-02,0.));
#109 = CARTESIAN_POINT('',(0.,6.25E-02,0.));
#110 = PCURVE('',#46,#111);
#111 = DEFINITIONAL_REPRESENTATION('',(#112),#130);
#112 = B_SPLINE_CURVE_WITH_KNOTS('',1,(#113,#114,#115,#116,#117,#118,
    #119,#120,#121,#122,#123,#124,#125,#126,#127,#128,#129),
  .UNSPECIFIED.,.F.,.F.,(2,1,1,1,1,1,1,1,1,1,1,1,1,1,1,1,2),(0.,
    4.555151441266E-02,8.507978236686E-02,0.374340215878,0.450318178966,
    0.490283471608,0.527156227772,0.694605710244,0.716327239352,
    0.730065185343,0.752228807244,0.788245647934,0.815917179361,
    0.828636613037,0.880334128647,0.947252855412,1.),.UNSPECIFIED.);
#113 = CARTESIAN_POINT('',(0.500572764112,3.125E-02));
#114 = CARTESIAN_POINT('',(0.455057855631,2.641342437871E-02));
#115 = CARTESIAN_POINT('',(0.415747720104,3.209691611751E-02));
#116 = CARTESIAN_POINT('',(0.1251195128,2.813273671539E-02));
#117 = CARTESIAN_POINT('',(4.877689528076E-02,2.762178297415E-02));
#118 = CARTESIAN_POINT('',(9.349158731445E-03,3.524535942438E-02));
#119 = CARTESIAN_POINT('',(-2.750303772416E-02,3.141661180114E-02));
#120 = CARTESIAN_POINT('',(-0.195717607533,2.764171246764E-02));
#121 = CARTESIAN_POINT('',(-0.217534334748,2.699636623133E-02));
#122 = CARTESIAN_POINT('',(-0.230296932217,3.225676263432E-02));
#123 = CARTESIAN_POINT('',(-0.252521331096,3.368890025812E-02));
#124 = CARTESIAN_POINT('',(-0.288375770393,2.876828757212E-02));
#125 = CARTESIAN_POINT('',(-0.315544198528,3.468373189185E-02));
#126 = CARTESIAN_POINT('',(-0.328276533078,3.579532998729E-02));
#127 = CARTESIAN_POINT('',(-0.379343075933,2.627281791728E-02));
#128 = CARTESIAN_POINT('',(-0.446577496686,2.724212749828E-02));
#129 = CARTESIAN_POINT('',(-0.499427235888,3.125E-02));
#130 = ( GEOMETRIC_REPRESENTATION_CONTEXT(2) 
PARAMETRIC_REPRESENTATION_CONTEXT() REPRESENTATION_CONTEXT('2D SPACE',''
  ) );
#131 = ORIENTED_EDGE('',*,*,#132,.T.);
#132 = EDGE_CURVE('',#89,#22,#133,.T.);
#133 = SURFACE_CURVE('',#134,(#138),.PCURVE_S1.);
#134 = LINE('',#135,#136);
#135 = CARTESIAN_POINT('',(0.,6.25E-02,0.));
#136 = VECTOR('',#137,1.);
#137 = DIRECTION('',(0.,-1.,0.));
#138 = PCURVE('',#46,#139);
#139 = DEFINITIONAL_REPRESENTATION('',(#140),#144);
#140 = LINE('',#141,#142);
#141 = CARTESIAN_POINT('',(-0.499427235888,3.125E-02));
#142 = VECTOR('',#143,1.);
#143 = DIRECTION('',(0.,-1.));
#144 = ( GEOMETRIC_REPRESENTATION_CONTEXT(2) 
PARAMETRIC_REPRESENTATION_CONTEXT() REPRESENTATION_CONTEXT('2D SPACE',''
  ) );
#145 = ( GEOMETRIC_REPRESENTATION_CONTEXT(3) 
GLOBAL_UNCERTAINTY_ASSIGNED_CONTEXT((#149)) GLOBAL_UNIT_ASSIGNED_CONTEXT
((#146,#147,#148)) REPRESENTATION_CONTEXT('Context #1',
  '3D Context with UNIT and UNCERTAINTY') );
#146 = ( LENGTH_UNIT() NAMED_UNIT(*) SI_UNIT(.MILLI.,.METRE.) );
#147 = ( NAMED_UNIT(*) PLANE_ANGLE_UNIT() SI_UNIT($,.RADIAN.) );
#148 = ( NAMED_UNIT(*) SI_UNIT($,.STERADIAN.) SOLID_ANGLE_UNIT() );
#149 = UNCERTAINTY_MEASURE_WITH_UNIT(LENGTH_MEASURE(1.E-07),#146,
  'distance_accuracy_value','confusion accuracy');
#150 = PRODUCT_RELATED_PRODUCT_CATEGORY('part',$,(#7));
ENDSEC;
END-ISO-10303-21;
