ISO-10303-21;
HEADER;
FILE_DESCRIPTION(('Open CASCADE Model'),'2;1');
FILE_NAME('Open CASCADE Shape Model','2026-07-21T00:13:24',('Author'),(
    'Open CASCADE'),'Open CASCADE STEP processor 7.9','Open CASCADE 7.9'
  ,'Unknown');
FILE_SCHEMA(('AUTOMOTIVE_DESIGN { 1 0 10303 214 1 1 1 1 }'));
ENDSEC;
DATA;
#1 = APPLICATION_PROTOCOL_DEFINITION('international standard',
  'automotive_design',2000,#2);
#2 = APPLICATION_CONTEXT(
  'core data for automotive mechanical design processes');
#3 = SHAPE_DEFINITION_REPRESENTATION(#4,#10);
#4 = PRODUCT_DEFINITION_SHAPE('','',#5);
#5 = PRODUCT_DEFINITION('design','',#6,#9);
#6 = PRODUCT_DEFINITION_FORMATION('','',#7);
#7 = PRODUCT('Open CASCADE STEP translator 7.9 32',
  'Open CASCADE STEP translator 7.9 32','',(#8));
#8 = PRODUCT_CONTEXT('',#2,'mechanical');
#9 = PRODUCT_DEFINITION_CONTEXT('part definition',#2,'design');
#10 = MANIFOLD_SURFACE_SHAPE_REPRESENTATION('',(#11,#15),#161);
#11 = AXIS2_PLACEMENT_3D('',#12,#13,#14);
#12 = CARTESIAN_POINT('',(0.,0.,0.));
#13 = DIRECTION('',(0.,0.,1.));
#14 = DIRECTION('',(1.,0.,-0.));
#15 = SHELL_BASED_SURFACE_MODEL('',(#16));
#16 = OPEN_SHELL('',(#17));
#17 = ADVANCED_FACE('',(#18),#50,.T.);
#18 = FACE_BOUND('',#19,.T.);
#19 = EDGE_LOOP('',(#20,#79,#95,#147));
#20 = ORIENTED_EDGE('',*,*,#21,.T.);
#21 = EDGE_CURVE('',#22,#24,#26,.T.);
#22 = VERTEX_POINT('',#23);
#23 = CARTESIAN_POINT('',(0.,0.,0.));
#24 = VERTEX_POINT('',#25);
#25 = CARTESIAN_POINT('',(1.,0.,0.));
#26 = SURFACE_CURVE('',#27,(#49),.PCURVE_S1.);
#27 = B_SPLINE_CURVE_WITH_KNOTS('',1,(#28,#29,#30,#31,#32,#33,#34,#35,
    #36,#37,#38,#39,#40,#41,#42,#43,#44,#45,#46,#47,#48),.UNSPECIFIED.,
  .F.,.F.,(2,1,1,1,1,1,1,1,1,1,1,1,1,1,1,1,1,1,1,1,2),(0.,0.10781865744,
    0.143697417119,0.222724395408,0.333397112812,0.382063817211,
    0.404049721385,0.431130892737,0.444531134423,0.513517572561,
    0.55324713044,0.631699953532,0.702153838154,0.713324228255,
    0.767381936416,0.782253068183,0.795098223427,0.833659225288,
    0.859340799045,0.908596746178,1.),.UNSPECIFIED.);
#28 = CARTESIAN_POINT('',(0.,-0.,0.));
#29 = CARTESIAN_POINT('',(0.108614235003,-2.394314684765E-03,0.));
#30 = CARTESIAN_POINT('',(0.144761298277,-3.008715921066E-03,0.));
#31 = CARTESIAN_POINT('',(0.224034952892,4.510362901767E-03,0.));
#32 = CARTESIAN_POINT('',(0.335535951922,2.654648495587E-03,0.));
#33 = CARTESIAN_POINT('',(0.384420437414,-1.218977733752E-03,0.));
#34 = CARTESIAN_POINT('',(0.406447645781,-3.581253046248E-03,0.));
#35 = CARTESIAN_POINT('',(0.432365728102,4.954998750603E-03,0.));
#36 = CARTESIAN_POINT('',(0.444867392486,-1.462934211635E-04,0.));
#37 = CARTESIAN_POINT('',(0.51436072113,-1.772873993644E-03,0.));
#38 = CARTESIAN_POINT('',(0.553865749472,4.703927108714E-03,0.));
#39 = CARTESIAN_POINT('',(0.632829206002,9.864444244661E-04,0.));
#40 = CARTESIAN_POINT('',(0.703647920221,-3.956348813837E-03,0.));
#41 = CARTESIAN_POINT('',(0.714678277589,-1.716128088559E-03,0.));
#42 = CARTESIAN_POINT('',(0.768974961021,2.623416366394E-03,0.));
#43 = CARTESIAN_POINT('',(0.782638698858,-3.527811296319E-03,0.));
#44 = CARTESIAN_POINT('',(0.794557009521,1.519685765905E-03,0.));
#45 = CARTESIAN_POINT('',(0.83308200051,-3.533446711441E-03,0.));
#46 = CARTESIAN_POINT('',(0.858358505051,2.010563488811E-03,0.));
#47 = CARTESIAN_POINT('',(0.907904354515,-9.032025088315E-04,0.));
#48 = CARTESIAN_POINT('',(1.,-0.,0.));
#49 = PCURVE('',#50,#55);
#50 = PLANE('',#51);
#51 = AXIS2_PLACEMENT_3D('',#52,#53,#54);
#52 = CARTESIAN_POINT('',(0.500734879832,5.E-02,0.));
#53 = DIRECTION('',(0.,0.,1.));
#54 = DIRECTION('',(1.,0.,-0.));
#55 = DEFINITIONAL_REPRESENTATION('',(#56),#78);
#56 = B_SPLINE_CURVE_WITH_KNOTS('',1,(#57,#58,#59,#60,#61,#62,#63,#64,
    #65,#66,#67,#68,#69,#70,#71,#72,#73,#74,#75,#76,#77),.UNSPECIFIED.,
  .F.,.F.,(2,1,1,1,1,1,1,1,1,1,1,1,1,1,1,1,1,1,1,1,2),(0.,0.10781865744,
    0.143697417119,0.222724395408,0.333397112812,0.382063817211,
    0.404049721385,0.431130892737,0.444531134423,0.513517572561,
    0.55324713044,0.631699953532,0.702153838154,0.713324228255,
    0.767381936416,0.782253068183,0.795098223427,0.833659225288,
    0.859340799045,0.908596746178,1.),.UNSPECIFIED.);
#57 = CARTESIAN_POINT('',(-0.500734879832,-5.E-02));
#58 = CARTESIAN_POINT('',(-0.392120644829,-5.239431468477E-02));
#59 = CARTESIAN_POINT('',(-0.355973581555,-5.300871592107E-02));
#60 = CARTESIAN_POINT('',(-0.27669992694,-4.548963709823E-02));
#61 = CARTESIAN_POINT('',(-0.16519892791,-4.734535150441E-02));
#62 = CARTESIAN_POINT('',(-0.116314442418,-5.121897773375E-02));
#63 = CARTESIAN_POINT('',(-9.428723405125E-02,-5.358125304625E-02));
#64 = CARTESIAN_POINT('',(-6.836915173021E-02,-4.50450012494E-02));
#65 = CARTESIAN_POINT('',(-5.586748734577E-02,-5.014629342116E-02));
#66 = CARTESIAN_POINT('',(1.362584129781E-02,-5.177287399364E-02));
#67 = CARTESIAN_POINT('',(5.313086964002E-02,-4.529607289129E-02));
#68 = CARTESIAN_POINT('',(0.13209432617,-4.901355557553E-02));
#69 = CARTESIAN_POINT('',(0.202913040389,-5.395634881384E-02));
#70 = CARTESIAN_POINT('',(0.213943397757,-5.171612808856E-02));
#71 = CARTESIAN_POINT('',(0.268240081189,-4.737658363361E-02));
#72 = CARTESIAN_POINT('',(0.281903819026,-5.352781129632E-02));
#73 = CARTESIAN_POINT('',(0.293822129689,-4.84803142341E-02));
#74 = CARTESIAN_POINT('',(0.332347120678,-5.353344671144E-02));
#75 = CARTESIAN_POINT('',(0.357623625219,-4.798943651119E-02));
#76 = CARTESIAN_POINT('',(0.407169474682,-5.090320250883E-02));
#77 = CARTESIAN_POINT('',(0.499265120168,-5.E-02));
#78 = ( GEOMETRIC_REPRESENTATION_CONTEXT(2) 
PARAMETRIC_REPRESENTATION_CONTEXT() REPRESENTATION_CONTEXT('2D SPACE',''
  ) );
#79 = ORIENTED_EDGE('',*,*,#80,.T.);
#80 = EDGE_CURVE('',#24,#81,#83,.T.);
#81 = VERTEX_POINT('',#82);
#82 = CARTESIAN_POINT('',(1.,0.1,0.));
#83 = SURFACE_CURVE('',#84,(#88),.PCURVE_S1.);
#84 = LINE('',#85,#86);
#85 = CARTESIAN_POINT('',(1.,-0.,0.));
#86 = VECTOR('',#87,1.);
#87 = DIRECTION('',(0.,1.,0.));
#88 = PCURVE('',#50,#89);
#89 = DEFINITIONAL_REPRESENTATION('',(#90),#94);
#90 = LINE('',#91,#92);
#91 = CARTESIAN_POINT('',(0.499265120168,-5.E-02));
#92 = VECTOR('',#93,1.);
#93 = DIRECTION('',(0.,1.));
#94 = ( GEOMETRIC_REPRESENTATION_CONTEXT(2) 
PARAMETRIC_REPRESENTATION_CONTEXT() REPRESENTATION_CONTEXT('2D SPACE',''
  ) );
#95 = ORIENTED_EDGE('',*,*,#96,.T.);
#96 = EDGE_CURVE('',#81,#97,#99,.T.);
#97 = VERTEX_POINT('',#98);
#98 = CARTESIAN_POINT('',(0.,0.1,0.));
#99 = SURFACE_CURVE('',#100,(#122),.PCURVE_S1.);
#100 = B_SPLINE_CURVE_WITH_KNOTS('',1,(#101,#102,#103,#104,#105,#106,
    #107,#108,#109,#110,#111,#112,#113,#114,#115,#116,#117,#118,#119,
    #120,#121),.UNSPECIFIED.,.F.,.F.,(2,1,1,1,1,1,1,1,1,1,1,1,1,1,1,1,1,
    1,1,1,2),(0.,9.140325382222E-02,0.140659200955,0.166340774712,
    0.204901776573,0.217746931817,0.232618063584,0.286675771745,
    0.297846161846,0.368300046468,0.44675286956,0.486482427439,
    0.555468865577,0.568869107263,0.595950278615,0.617936182789,
    0.666602887188,0.777275604592,0.856302582881,0.89218134256,1.),
  .UNSPECIFIED.);
#101 = CARTESIAN_POINT('',(1.,0.1,0.));
#102 = CARTESIAN_POINT('',(0.907904354515,0.100903202509,0.));
#103 = CARTESIAN_POINT('',(0.858358505051,9.798943651119E-02,0.));
#104 = CARTESIAN_POINT('',(0.83308200051,0.103533446711,0.));
#105 = CARTESIAN_POINT('',(0.794557009521,9.84803142341E-02,0.));
#106 = CARTESIAN_POINT('',(0.782638698858,0.103527811296,0.));
#107 = CARTESIAN_POINT('',(0.768974961021,9.737658363361E-02,0.));
#108 = CARTESIAN_POINT('',(0.714678277589,0.101716128089,0.));
#109 = CARTESIAN_POINT('',(0.703647920221,0.103956348814,0.));
#110 = CARTESIAN_POINT('',(0.632829206002,9.901355557553E-02,0.));
#111 = CARTESIAN_POINT('',(0.553865749472,9.529607289129E-02,0.));
#112 = CARTESIAN_POINT('',(0.51436072113,0.101772873994,0.));
#113 = CARTESIAN_POINT('',(0.444867392486,0.100146293421,0.));
#114 = CARTESIAN_POINT('',(0.432365728102,9.50450012494E-02,0.));
#115 = CARTESIAN_POINT('',(0.406447645781,0.103581253046,0.));
#116 = CARTESIAN_POINT('',(0.384420437414,0.101218977734,0.));
#117 = CARTESIAN_POINT('',(0.335535951922,9.734535150441E-02,0.));
#118 = CARTESIAN_POINT('',(0.224034952892,9.548963709823E-02,0.));
#119 = CARTESIAN_POINT('',(0.144761298277,0.103008715921,0.));
#120 = CARTESIAN_POINT('',(0.108614235003,0.102394314685,0.));
#121 = CARTESIAN_POINT('',(0.,0.1,0.));
#122 = PCURVE('',#50,#123);
#123 = DEFINITIONAL_REPRESENTATION('',(#124),#146);
#124 = B_SPLINE_CURVE_WITH_KNOTS('',1,(#125,#126,#127,#128,#129,#130,
    #131,#132,#133,#134,#135,#136,#137,#138,#139,#140,#141,#142,#143,
    #144,#145),.UNSPECIFIED.,.F.,.F.,(2,1,1,1,1,1,1,1,1,1,1,1,1,1,1,1,1,
    1,1,1,2),(0.,9.140325382222E-02,0.140659200955,0.166340774712,
    0.204901776573,0.217746931817,0.232618063584,0.286675771745,
    0.297846161846,0.368300046468,0.44675286956,0.486482427439,
    0.555468865577,0.568869107263,0.595950278615,0.617936182789,
    0.666602887188,0.777275604592,0.856302582881,0.89218134256,1.),
  .UNSPECIFIED.);
#125 = CARTESIAN_POINT('',(0.499265120168,5.E-02));
#126 = CARTESIAN_POINT('',(0.407169474682,5.090320250883E-02));
#127 = CARTESIAN_POINT('',(0.357623625219,4.798943651119E-02));
#128 = CARTESIAN_POINT('',(0.332347120678,5.353344671144E-02));
#129 = CARTESIAN_POINT('',(0.293822129689,4.84803142341E-02));
#130 = CARTESIAN_POINT('',(0.281903819026,5.352781129632E-02));
#131 = CARTESIAN_POINT('',(0.268240081189,4.737658363361E-02));
#132 = CARTESIAN_POINT('',(0.213943397757,5.171612808856E-02));
#133 = CARTESIAN_POINT('',(0.202913040389,5.395634881384E-02));
#134 = CARTESIAN_POINT('',(0.13209432617,4.901355557553E-02));
#135 = CARTESIAN_POINT('',(5.313086964002E-02,4.529607289129E-02));
#136 = CARTESIAN_POINT('',(1.362584129781E-02,5.177287399364E-02));
#137 = CARTESIAN_POINT('',(-5.586748734577E-02,5.014629342116E-02));
#138 = CARTESIAN_POINT('',(-6.836915173021E-02,4.50450012494E-02));
#139 = CARTESIAN_POINT('',(-9.428723405125E-02,5.358125304625E-02));
#140 = CARTESIAN_POINT('',(-0.116314442418,5.121897773375E-02));
#141 = CARTESIAN_POINT('',(-0.16519892791,4.734535150441E-02));
#142 = CARTESIAN_POINT('',(-0.27669992694,4.548963709823E-02));
#143 = CARTESIAN_POINT('',(-0.355973581555,5.300871592107E-02));
#144 = CARTESIAN_POINT('',(-0.392120644829,5.239431468477E-02));
#145 = CARTESIAN_POINT('',(-0.500734879832,5.E-02));
#146 = ( GEOMETRIC_REPRESENTATION_CONTEXT(2) 
PARAMETRIC_REPRESENTATION_CONTEXT() REPRESENTATION_CONTEXT('2D SPACE',''
  ) );
#147 = ORIENTED_EDGE('',*,*,#148,.T.);
#148 = EDGE_CURVE('',#97,#22,#149,.T.);
#149 = SURFACE_CURVE('',#150,(#154),.PCURVE_S1.);
#150 = LINE('',#151,#152);
#151 = CARTESIAN_POINT('',(0.,0.1,0.));
#152 = VECTOR('',#153,1.);
#153 = DIRECTION('',(0.,-1.,0.));
#154 = PCURVE('',#50,#155);
#155 = DEFINITIONAL_REPRESENTATION('',(#156),#160);
#156 = LINE('',#157,#158);
#157 = CARTESIAN_POINT('',(-0.500734879832,5.E-02));
#158 = VECTOR('',#159,1.);
#159 = DIRECTION('',(0.,-1.));
#160 = ( GEOMETRIC_REPRESENTATION_CONTEXT(2) 
PARAMETRIC_REPRESENTATION_CONTEXT() REPRESENTATION_CONTEXT('2D SPACE',''
  ) );
#161 = ( GEOMETRIC_REPRESENTATION_CONTEXT(3) 
GLOBAL_UNCERTAINTY_ASSIGNED_CONTEXT((#165)) GLOBAL_UNIT_ASSIGNED_CONTEXT
((#162,#163,#164)) REPRESENTATION_CONTEXT('Context #1',
  '3D Context with UNIT and UNCERTAINTY') );
#162 = ( LENGTH_UNIT() NAMED_UNIT(*) SI_UNIT(.MILLI.,.METRE.) );
#163 = ( NAMED_UNIT(*) PLANE_ANGLE_UNIT() SI_UNIT($,.RADIAN.) );
#164 = ( NAMED_UNIT(*) SI_UNIT($,.STERADIAN.) SOLID_ANGLE_UNIT() );
#165 = UNCERTAINTY_MEASURE_WITH_UNIT(LENGTH_MEASURE(1.E-07),#162,
  'distance_accuracy_value','confusion accuracy');
#166 = PRODUCT_RELATED_PRODUCT_CATEGORY('part',$,(#7));
ENDSEC;
END-ISO-10303-21;
