ISO-10303-21;
HEADER;
FILE_DESCRIPTION(('Open CASCADE Model'),'2;1');
FILE_NAME('Open CASCADE Shape Model','2026-08-17T20:30:04',('Author'),(
    'Open CASCADE'),'Open CASCADE STEP processor 7.9','Open CASCADE 7.9'
  ,'Unknown');
FILE_SCHEMA(('AUTOMOTIVE_DESIGN { 1 0 10303 214 1 1 1 1 }'));
ENDSEC;
DATA;
#1 = APPLICATION_PROTOCOL_DEFINITION('international standard',
  'automotive_design',2000,#2);
#2 = APPLICATION_CONTEXT(
  'core data for automotive mechanical design processes');
#3 = SHAPE_DEFINITION_REPRESENTATION(#4,#10);
#4 = PRODUCT_DEFINITION_SHAPE('','',#5);
#5 = PRODUCT_DEFINITION('design','',#6,#9);
#6 = PRODUCT_DEFINITION_FORMATION('','',#7);
#7 = PRODUCT('Open CASCADE STEP translator 7.9 46',
  'Open CASCADE STEP translator 7.9 46','',(#8));
#8 = PRODUCT_CONTEXT('',#2,'mechanical');
#9 = PRODUCT_DEFINITION_CONTEXT('part definition',#2,'design');
#10 = MANIFOLD_SURFACE_SHAPE_REPRESENTATION('',(#11,#15),#145);
#11 = AXIS2_PLACEMENT_3D('',#12,#13,#14);
#12 = CARTESIAN_POINT('',(0.,0.,0.));
#13 = DIRECTION('',(0.,0.,1.));
#14 = DIRECTION('',(1.,0.,-0.));
#15 = SHELL_BASED_SURFACE_MODEL('',(#16));
#16 = OPEN_SHELL('',(#17));
#17 = ADVANCED_FACE('',(#18),#46,.T.);
#18 = FACE_BOUND('',#19,.T.);
#19 = EDGE_LOOP('',(#20,#71,#87,#131));
#20 = ORIENTED_EDGE('',*,*,#21,.T.);
#21 = EDGE_CURVE('',#22,#24,#26,.T.);
#22 = VERTEX_POINT('',#23);
#23 = CARTESIAN_POINT('',(0.,0.,0.));
#24 = VERTEX_POINT('',#25);
#25 = CARTESIAN_POINT('',(1.,0.,0.));
#26 = SURFACE_CURVE('',#27,(#45),.PCURVE_S1.);
#27 = B_SPLINE_CURVE_WITH_KNOTS('',1,(#28,#29,#30,#31,#32,#33,#34,#35,
    #36,#37,#38,#39,#40,#41,#42,#43,#44),.UNSPECIFIED.,.F.,.F.,(2,1,1,1,
    1,1,1,1,1,1,1,1,1,1,1,1,2),(0.,2.230506766346E-02,0.128181618841,
    0.144029753888,0.231974092452,0.251467473575,0.398228170778,
    0.445241892903,0.610223321874,0.659493520694,0.695644608674,
    0.788609426057,0.920767940402,0.939290059214,0.955388964341,
    0.970194074482,1.),.UNSPECIFIED.);
#28 = CARTESIAN_POINT('',(0.,-0.,0.));
#29 = CARTESIAN_POINT('',(2.222706840249E-02,-2.317962203246E-03,0.));
#30 = CARTESIAN_POINT('',(0.128124305538,3.8802240814E-03,0.));
#31 = CARTESIAN_POINT('',(0.143900203717,2.079295957866E-03,0.));
#32 = CARTESIAN_POINT('',(0.231879617847,-2.753708875301E-03,0.));
#33 = CARTESIAN_POINT('',(0.251158527188,3.714055107311E-04,0.));
#34 = CARTESIAN_POINT('',(0.398188758659,2.116759130142E-03,0.));
#35 = CARTESIAN_POINT('',(0.445282021671,3.093156296872E-03,0.));
#36 = CARTESIAN_POINT('',(0.61039072048,-4.775063523674E-03,0.));
#37 = CARTESIAN_POINT('',(0.659645102081,-1.484686760042E-03,0.));
#38 = CARTESIAN_POINT('',(0.695856701269,-2.266279302642E-03,0.));
#39 = CARTESIAN_POINT('',(0.788998799802,-2.320485251357E-03,0.));
#40 = CARTESIAN_POINT('',(0.921367995016,9.889451251634E-04,0.));
#41 = CARTESIAN_POINT('',(0.939808386041,3.069971977106E-03,0.));
#42 = CARTESIAN_POINT('',(0.95562070302,-1.135615559093E-04,0.));
#43 = CARTESIAN_POINT('',(0.970248436173,-2.574773302496E-03,0.));
#44 = CARTESIAN_POINT('',(1.,-0.,0.));
#45 = PCURVE('',#46,#51);
#46 = PLANE('',#47);
#47 = AXIS2_PLACEMENT_3D('',#48,#49,#50);
#48 = CARTESIAN_POINT('',(0.500089769679,3.125E-02,0.));
#49 = DIRECTION('',(0.,0.,1.));
#50 = DIRECTION('',(1.,0.,-0.));
#51 = DEFINITIONAL_REPRESENTATION('',(#52),#70);
#52 = B_SPLINE_CURVE_WITH_KNOTS('',1,(#53,#54,#55,#56,#57,#58,#59,#60,
    #61,#62,#63,#64,#65,#66,#67,#68,#69),.UNSPECIFIED.,.F.,.F.,(2,1,1,1,
    1,1,1,1,1,1,1,1,1,1,1,1,2),(0.,2.230506766346E-02,0.128181618841,
    0.144029753888,0.231974092452,0.251467473575,0.398228170778,
    0.445241892903,0.610223321874,0.659493520694,0.695644608674,
    0.788609426057,0.920767940402,0.939290059214,0.955388964341,
    0.970194074482,1.),.UNSPECIFIED.);
#53 = CARTESIAN_POINT('',(-0.500089769679,-3.125E-02));
#54 = CARTESIAN_POINT('',(-0.477862701276,-3.356796220325E-02));
#55 = CARTESIAN_POINT('',(-0.371965464141,-2.73697759186E-02));
#56 = CARTESIAN_POINT('',(-0.356189565961,-2.917070404213E-02));
#57 = CARTESIAN_POINT('',(-0.268210151832,-3.40037088753E-02));
#58 = CARTESIAN_POINT('',(-0.248931242491,-3.087859448927E-02));
#59 = CARTESIAN_POINT('',(-0.101901011019,-2.913324086986E-02));
#60 = CARTESIAN_POINT('',(-5.480774800758E-02,-2.815684370313E-02));
#61 = CARTESIAN_POINT('',(0.110300950801,-3.602506352367E-02));
#62 = CARTESIAN_POINT('',(0.159555332402,-3.273468676004E-02));
#63 = CARTESIAN_POINT('',(0.19576693159,-3.351627930264E-02));
#64 = CARTESIAN_POINT('',(0.288909030123,-3.357048525136E-02));
#65 = CARTESIAN_POINT('',(0.421278225337,-3.026105487484E-02));
#66 = CARTESIAN_POINT('',(0.439718616362,-2.818002802289E-02));
#67 = CARTESIAN_POINT('',(0.455530933341,-3.136356155591E-02));
#68 = CARTESIAN_POINT('',(0.470158666495,-3.38247733025E-02));
#69 = CARTESIAN_POINT('',(0.499910230321,-3.125E-02));
#70 = ( GEOMETRIC_REPRESENTATION_CONTEXT(2) 
PARAMETRIC_REPRESENTATION_CONTEXT() REPRESENTATION_CONTEXT('2D SPACE',''
  ) );
#71 = ORIENTED_EDGE('',*,*,#72,.T.);
#72 = EDGE_CURVE('',#24,#73,#75,.T.);
#73 = VERTEX_POINT('',#74);
#74 = CARTESIAN_POINT('',(1.,6.25E-02,0.));
#75 = SURFACE_CURVE('',#76,(#80),.PCURVE_S1.);
#76 = LINE('',#77,#78);
#77 = CARTESIAN_POINT('',(1.,-0.,0.));
#78 = VECTOR('',#79,1.);
#79 = DIRECTION('',(0.,1.,0.));
#80 = PCURVE('',#46,#81);
#81 = DEFINITIONAL_REPRESENTATION('',(#82),#86);
#82 = LINE('',#83,#84);
#83 = CARTESIAN_POINT('',(0.499910230321,-3.125E-02));
#84 = VECTOR('',#85,1.);
#85 = DIRECTION('',(0.,1.));
#86 = ( GEOMETRIC_REPRESENTATION_CONTEXT(2) 
PARAMETRIC_REPRESENTATION_CONTEXT() REPRESENTATION_CONTEXT('2D SPACE',''
  ) );
#87 = ORIENTED_EDGE('',*,*,#88,.T.);
#88 = EDGE_CURVE('',#73,#89,#91,.T.);
#89 = VERTEX_POINT('',#90);
#90 = CARTESIAN_POINT('',(0.,6.25E-02,0.));
#91 = SURFACE_CURVE('',#92,(#110),.PCURVE_S1.);
#92 = B_SPLINE_CURVE_WITH_KNOTS('',1,(#93,#94,#95,#96,#97,#98,#99,#100,
    #101,#102,#103,#104,#105,#106,#107,#108,#109),.UNSPECIFIED.,.F.,.F.,
  (2,1,1,1,1,1,1,1,1,1,1,1,1,1,1,1,2),(0.,2.980592551838E-02,
    4.461103565943E-02,6.070994078557E-02,7.923205959838E-02,
    0.211390573943,0.304355391326,0.340506479306,0.389776678126,
    0.554758107097,0.601771829222,0.748532526425,0.768025907548,
    0.855970246112,0.871818381159,0.977694932337,1.),.UNSPECIFIED.);
#93 = CARTESIAN_POINT('',(1.,6.25E-02,0.));
#94 = CARTESIAN_POINT('',(0.970248436173,6.50747733025E-02,0.));
#95 = CARTESIAN_POINT('',(0.95562070302,6.261356155591E-02,0.));
#96 = CARTESIAN_POINT('',(0.939808386041,5.943002802289E-02,0.));
#97 = CARTESIAN_POINT('',(0.921367995016,6.151105487484E-02,0.));
#98 = CARTESIAN_POINT('',(0.788998799802,6.482048525136E-02,0.));
#99 = CARTESIAN_POINT('',(0.695856701269,6.476627930264E-02,0.));
#100 = CARTESIAN_POINT('',(0.659645102081,6.398468676004E-02,0.));
#101 = CARTESIAN_POINT('',(0.61039072048,6.727506352367E-02,0.));
#102 = CARTESIAN_POINT('',(0.445282021671,5.940684370313E-02,0.));
#103 = CARTESIAN_POINT('',(0.398188758659,6.038324086986E-02,0.));
#104 = CARTESIAN_POINT('',(0.251158527188,6.212859448927E-02,0.));
#105 = CARTESIAN_POINT('',(0.231879617847,6.52537088753E-02,0.));
#106 = CARTESIAN_POINT('',(0.143900203717,6.042070404213E-02,0.));
#107 = CARTESIAN_POINT('',(0.128124305538,5.86197759186E-02,0.));
#108 = CARTESIAN_POINT('',(2.222706840249E-02,6.481796220325E-02,0.));
#109 = CARTESIAN_POINT('',(0.,6.25E-02,0.));
#110 = PCURVE('',#46,#111);
#111 = DEFINITIONAL_REPRESENTATION('',(#112),#130);
#112 = B_SPLINE_CURVE_WITH_KNOTS('',1,(#113,#114,#115,#116,#117,#118,
    #119,#120,#121,#122,#123,#124,#125,#126,#127,#128,#129),
  .UNSPECIFIED.,.F.,.F.,(2,1,1,1,1,1,1,1,1,1,1,1,1,1,1,1,2),(0.,
    2.980592551838E-02,4.461103565943E-02,6.070994078557E-02,
    7.923205959838E-02,0.211390573943,0.304355391326,0.340506479306,
    0.389776678126,0.554758107097,0.601771829222,0.748532526425,
    0.768025907548,0.855970246112,0.871818381159,0.977694932337,1.),
  .UNSPECIFIED.);
#113 = CARTESIAN_POINT('',(0.499910230321,3.125E-02));
#114 = CARTESIAN_POINT('',(0.470158666495,3.38247733025E-02));
#115 = CARTESIAN_POINT('',(0.455530933341,3.136356155591E-02));
#116 = CARTESIAN_POINT('',(0.439718616362,2.818002802289E-02));
#117 = CARTESIAN_POINT('',(0.421278225337,3.026105487484E-02));
#118 = CARTESIAN_POINT('',(0.288909030123,3.357048525136E-02));
#119 = CARTESIAN_POINT('',(0.19576693159,3.351627930264E-02));
#120 = CARTESIAN_POINT('',(0.159555332402,3.273468676004E-02));
#121 = CARTESIAN_POINT('',(0.110300950801,3.602506352367E-02));
#122 = CARTESIAN_POINT('',(-5.480774800758E-02,2.815684370313E-02));
#123 = CARTESIAN_POINT('',(-0.101901011019,2.913324086986E-02));
#124 = CARTESIAN_POINT('',(-0.248931242491,3.087859448927E-02));
#125 = CARTESIAN_POINT('',(-0.268210151832,3.40037088753E-02));
#126 = CARTESIAN_POINT('',(-0.356189565961,2.917070404213E-02));
#127 = CARTESIAN_POINT('',(-0.371965464141,2.73697759186E-02));
#128 = CARTESIAN_POINT('',(-0.477862701276,3.356796220325E-02));
#129 = CARTESIAN_POINT('',(-0.500089769679,3.125E-02));
#130 = ( GEOMETRIC_REPRESENTATION_CONTEXT(2) 
PARAMETRIC_REPRESENTATION_CONTEXT() REPRESENTATION_CONTEXT('2D SPACE',''
  ) );
#131 = ORIENTED_EDGE('',*,*,#132,.T.);
#132 = EDGE_CURVE('',#89,#22,#133,.T.);
#133 = SURFACE_CURVE('',#134,(#138),.PCURVE_S1.);
#134 = LINE('',#135,#136);
#135 = CARTESIAN_POINT('',(0.,6.25E-02,0.));
#136 = VECTOR('',#137,1.);
#137 = DIRECTION('',(0.,-1.,0.));
#138 = PCURVE('',#46,#139);
#139 = DEFINITIONAL_REPRESENTATION('',(#140),#144);
#140 = LINE('',#141,#142);
#141 = CARTESIAN_POINT('',(-0.500089769679,3.125E-02));
#142 = VECTOR('',#143,1.);
#143 = DIRECTION('',(0.,-1.));
#144 = ( GEOMETRIC_REPRESENTATION_CONTEXT(2) 
PARAMETRIC_REPRESENTATION_CONTEXT() REPRESENTATION_CONTEXT('2D SPACE',''
  ) );
#145 = ( GEOMETRIC_REPRESENTATION_CONTEXT(3) 
GLOBAL_UNCERTAINTY_ASSIGNED_CONTEXT((#149)) GLOBAL_UNIT_ASSIGNED_CONTEXT
((#146,#147,#148)) REPRESENTATION_CONTEXT('Context #1',
  '3D Context with UNIT and UNCERTAINTY') );
#146 = ( LENGTH_UNIT() NAMED_UNIT(*) SI_UNIT(.MILLI.,.METRE.) );
#147 = ( NAMED_UNIT(*) PLANE_ANGLE_UNIT() SI_UNIT($,.RADIAN.) );
#148 = ( NAMED_UNIT(*) SI_UNIT($,.STERADIAN.) SOLID_ANGLE_UNIT() );
#149 = UNCERTAINTY_MEASURE_WITH_UNIT(LENGTH_MEASURE(1.E-07),#146,
  'distance_accuracy_value','confusion accuracy');
#150 = PRODUCT_RELATED_PRODUCT_CATEGORY('part',$,(#7));
ENDSEC;
END-ISO-10303-21;
