ISO-10303-21;
HEADER;
FILE_DESCRIPTION(('Open CASCADE Model'),'2;1');
FILE_NAME('Open CASCADE Shape Model','2026-08-17T20:30:05',('Author'),(
    'Open CASCADE'),'Open CASCADE STEP processor 7.9','Open CASCADE 7.9'
  ,'Unknown');
FILE_SCHEMA(('AUTOMOTIVE_DESIGN { 1 0 10303 214 1 1 1 1 }'));
ENDSEC;
DATA;
#1 = APPLICATION_PROTOCOL_DEFINITION('international standard',
  'automotive_design',2000,#2);
#2 = APPLICATION_CONTEXT(
  'core data for automotive mechanical design processes');
#3 = SHAPE_DEFINITION_REPRESENTATION(#4,#10);
#4 = PRODUCT_DEFINITION_SHAPE('','',#5);
#5 = PRODUCT_DEFINITION('design','',#6,#9);
#6 = PRODUCT_DEFINITION_FORMATION('','',#7);
#7 = PRODUCT('Open CASCADE STEP translator 7.9 61',
  'Open CASCADE STEP translator 7.9 61','',(#8));
#8 = PRODUCT_CONTEXT('',#2,'mechanical');
#9 = PRODUCT_DEFINITION_CONTEXT('part definition',#2,'design');
#10 = MANIFOLD_SURFACE_SHAPE_REPRESENTATION('',(#11,#15),#145);
#11 = AXIS2_PLACEMENT_3D('',#12,#13,#14);
#12 = CARTESIAN_POINT('',(0.,0.,0.));
#13 = DIRECTION('',(0.,0.,1.));
#14 = DIRECTION('',(1.,0.,-0.));
#15 = SHELL_BASED_SURFACE_MODEL('',(#16));
#16 = OPEN_SHELL('',(#17));
#17 = ADVANCED_FACE('',(#18),#46,.T.);
#18 = FACE_BOUND('',#19,.T.);
#19 = EDGE_LOOP('',(#20,#71,#87,#131));
#20 = ORIENTED_EDGE('',*,*,#21,.T.);
#21 = EDGE_CURVE('',#22,#24,#26,.T.);
#22 = VERTEX_POINT('',#23);
#23 = CARTESIAN_POINT('',(0.,0.,0.));
#24 = VERTEX_POINT('',#25);
#25 = CARTESIAN_POINT('',(1.,0.,0.));
#26 = SURFACE_CURVE('',#27,(#45),.PCURVE_S1.);
#27 = B_SPLINE_CURVE_WITH_KNOTS('',1,(#28,#29,#30,#31,#32,#33,#34,#35,
    #36,#37,#38,#39,#40,#41,#42,#43,#44),.UNSPECIFIED.,.F.,.F.,(2,1,1,1,
    1,1,1,1,1,1,1,1,1,1,1,1,2),(0.,2.140500093892E-02,9.656793562721E-02
    ,0.11967819017,0.169002747872,0.212620155136,0.309872009381,
    0.434869860906,0.498888233828,0.637964966033,0.699851090224,
    0.757174706378,0.811194158588,0.837750034228,0.857533862153,
    0.907269490303,1.),.UNSPECIFIED.);
#28 = CARTESIAN_POINT('',(0.,-0.,0.));
#29 = CARTESIAN_POINT('',(2.146567122399E-02,-8.485990074479E-04,0.));
#30 = CARTESIAN_POINT('',(9.68879018803E-02,-2.228562123038E-03,0.));
#31 = CARTESIAN_POINT('',(0.120078088088,-1.815693350128E-03,0.));
#32 = CARTESIAN_POINT('',(0.169244536543,3.946894205743E-03,0.));
#33 = CARTESIAN_POINT('',(0.212957426584,1.612014517822E-03,0.));
#34 = CARTESIAN_POINT('',(0.310509731808,-1.554544921965E-03,0.));
#35 = CARTESIAN_POINT('',(0.43595172156,-2.977479982451E-03,0.));
#36 = CARTESIAN_POINT('',(0.50020167649,-3.027079929593E-03,0.));
#37 = CARTESIAN_POINT('',(0.639569045314,4.672126957923E-03,0.));
#38 = CARTESIAN_POINT('',(0.701166919322,-3.287486053485E-03,0.));
#39 = CARTESIAN_POINT('',(0.758579250372,4.057395520182E-04,0.));
#40 = CARTESIAN_POINT('',(0.812618710736,-3.952004589362E-03,0.));
#41 = CARTESIAN_POINT('',(0.838589791165,2.033752921446E-03,0.));
#42 = CARTESIAN_POINT('',(0.857791277965,-3.019941977428E-03,0.));
#43 = CARTESIAN_POINT('',(0.907065924506,4.95327307518E-03,0.));
#44 = CARTESIAN_POINT('',(1.,-0.,0.));
#45 = PCURVE('',#46,#51);
#46 = PLANE('',#47);
#47 = AXIS2_PLACEMENT_3D('',#48,#49,#50);
#48 = CARTESIAN_POINT('',(0.500718941999,3.125E-02,0.));
#49 = DIRECTION('',(0.,0.,1.));
#50 = DIRECTION('',(1.,0.,-0.));
#51 = DEFINITIONAL_REPRESENTATION('',(#52),#70);
#52 = B_SPLINE_CURVE_WITH_KNOTS('',1,(#53,#54,#55,#56,#57,#58,#59,#60,
    #61,#62,#63,#64,#65,#66,#67,#68,#69),.UNSPECIFIED.,.F.,.F.,(2,1,1,1,
    1,1,1,1,1,1,1,1,1,1,1,1,2),(0.,2.140500093892E-02,9.656793562721E-02
    ,0.11967819017,0.169002747872,0.212620155136,0.309872009381,
    0.434869860906,0.498888233828,0.637964966033,0.699851090224,
    0.757174706378,0.811194158588,0.837750034228,0.857533862153,
    0.907269490303,1.),.UNSPECIFIED.);
#53 = CARTESIAN_POINT('',(-0.500718941999,-3.125E-02));
#54 = CARTESIAN_POINT('',(-0.479253270775,-3.209859900745E-02));
#55 = CARTESIAN_POINT('',(-0.403831040118,-3.347856212304E-02));
#56 = CARTESIAN_POINT('',(-0.380640853911,-3.306569335013E-02));
#57 = CARTESIAN_POINT('',(-0.331474405456,-2.730310579426E-02));
#58 = CARTESIAN_POINT('',(-0.287761515414,-2.963798548218E-02));
#59 = CARTESIAN_POINT('',(-0.190209210191,-3.280454492196E-02));
#60 = CARTESIAN_POINT('',(-6.476722043913E-02,-3.422747998245E-02));
#61 = CARTESIAN_POINT('',(-5.172655090584E-04,-3.427707992959E-02));
#62 = CARTESIAN_POINT('',(0.138850103316,-2.657787304208E-02));
#63 = CARTESIAN_POINT('',(0.200447977324,-3.453748605348E-02));
#64 = CARTESIAN_POINT('',(0.257860308373,-3.084426044798E-02));
#65 = CARTESIAN_POINT('',(0.311899768738,-3.520200458936E-02));
#66 = CARTESIAN_POINT('',(0.337870849166,-2.921624707855E-02));
#67 = CARTESIAN_POINT('',(0.357072335967,-3.426994197743E-02));
#68 = CARTESIAN_POINT('',(0.406346982508,-2.629672692482E-02));
#69 = CARTESIAN_POINT('',(0.499281058001,-3.125E-02));
#70 = ( GEOMETRIC_REPRESENTATION_CONTEXT(2) 
PARAMETRIC_REPRESENTATION_CONTEXT() REPRESENTATION_CONTEXT('2D SPACE',''
  ) );
#71 = ORIENTED_EDGE('',*,*,#72,.T.);
#72 = EDGE_CURVE('',#24,#73,#75,.T.);
#73 = VERTEX_POINT('',#74);
#74 = CARTESIAN_POINT('',(1.,6.25E-02,0.));
#75 = SURFACE_CURVE('',#76,(#80),.PCURVE_S1.);
#76 = LINE('',#77,#78);
#77 = CARTESIAN_POINT('',(1.,-0.,0.));
#78 = VECTOR('',#79,1.);
#79 = DIRECTION('',(0.,1.,0.));
#80 = PCURVE('',#46,#81);
#81 = DEFINITIONAL_REPRESENTATION('',(#82),#86);
#82 = LINE('',#83,#84);
#83 = CARTESIAN_POINT('',(0.499281058001,-3.125E-02));
#84 = VECTOR('',#85,1.);
#85 = DIRECTION('',(0.,1.));
#86 = ( GEOMETRIC_REPRESENTATION_CONTEXT(2) 
PARAMETRIC_REPRESENTATION_CONTEXT() REPRESENTATION_CONTEXT('2D SPACE',''
  ) );
#87 = ORIENTED_EDGE('',*,*,#88,.T.);
#88 = EDGE_CURVE('',#73,#89,#91,.T.);
#89 = VERTEX_POINT('',#90);
#90 = CARTESIAN_POINT('',(0.,6.25E-02,0.));
#91 = SURFACE_CURVE('',#92,(#110),.PCURVE_S1.);
#92 = B_SPLINE_CURVE_WITH_KNOTS('',1,(#93,#94,#95,#96,#97,#98,#99,#100,
    #101,#102,#103,#104,#105,#106,#107,#108,#109),.UNSPECIFIED.,.F.,.F.,
  (2,1,1,1,1,1,1,1,1,1,1,1,1,1,1,1,2),(0.,9.273050969728E-02,
    0.142466137847,0.162249965772,0.188805841412,0.242825293622,
    0.300148909776,0.362035033967,0.501111766172,0.565130139094,
    0.690127990619,0.787379844864,0.830997252128,0.88032180983,
    0.903432064373,0.978594999061,1.),.UNSPECIFIED.);
#93 = CARTESIAN_POINT('',(1.,6.25E-02,0.));
#94 = CARTESIAN_POINT('',(0.907065924506,5.754672692482E-02,0.));
#95 = CARTESIAN_POINT('',(0.857791277965,6.551994197743E-02,0.));
#96 = CARTESIAN_POINT('',(0.838589791165,6.046624707855E-02,0.));
#97 = CARTESIAN_POINT('',(0.812618710736,6.645200458936E-02,0.));
#98 = CARTESIAN_POINT('',(0.758579250372,6.209426044798E-02,0.));
#99 = CARTESIAN_POINT('',(0.701166919322,6.578748605348E-02,0.));
#100 = CARTESIAN_POINT('',(0.639569045314,5.782787304208E-02,0.));
#101 = CARTESIAN_POINT('',(0.50020167649,6.552707992959E-02,0.));
#102 = CARTESIAN_POINT('',(0.43595172156,6.547747998245E-02,0.));
#103 = CARTESIAN_POINT('',(0.310509731808,6.405454492196E-02,0.));
#104 = CARTESIAN_POINT('',(0.212957426584,6.088798548218E-02,0.));
#105 = CARTESIAN_POINT('',(0.169244536543,5.855310579426E-02,0.));
#106 = CARTESIAN_POINT('',(0.120078088088,6.431569335013E-02,0.));
#107 = CARTESIAN_POINT('',(9.68879018803E-02,6.472856212304E-02,0.));
#108 = CARTESIAN_POINT('',(2.146567122399E-02,6.334859900745E-02,0.));
#109 = CARTESIAN_POINT('',(0.,6.25E-02,0.));
#110 = PCURVE('',#46,#111);
#111 = DEFINITIONAL_REPRESENTATION('',(#112),#130);
#112 = B_SPLINE_CURVE_WITH_KNOTS('',1,(#113,#114,#115,#116,#117,#118,
    #119,#120,#121,#122,#123,#124,#125,#126,#127,#128,#129),
  .UNSPECIFIED.,.F.,.F.,(2,1,1,1,1,1,1,1,1,1,1,1,1,1,1,1,2),(0.,
    9.273050969728E-02,0.142466137847,0.162249965772,0.188805841412,
    0.242825293622,0.300148909776,0.362035033967,0.501111766172,
    0.565130139094,0.690127990619,0.787379844864,0.830997252128,
    0.88032180983,0.903432064373,0.978594999061,1.),.UNSPECIFIED.);
#113 = CARTESIAN_POINT('',(0.499281058001,3.125E-02));
#114 = CARTESIAN_POINT('',(0.406346982508,2.629672692482E-02));
#115 = CARTESIAN_POINT('',(0.357072335967,3.426994197743E-02));
#116 = CARTESIAN_POINT('',(0.337870849166,2.921624707855E-02));
#117 = CARTESIAN_POINT('',(0.311899768738,3.520200458936E-02));
#118 = CARTESIAN_POINT('',(0.257860308373,3.084426044798E-02));
#119 = CARTESIAN_POINT('',(0.200447977324,3.453748605348E-02));
#120 = CARTESIAN_POINT('',(0.138850103316,2.657787304208E-02));
#121 = CARTESIAN_POINT('',(-5.172655090584E-04,3.427707992959E-02));
#122 = CARTESIAN_POINT('',(-6.476722043913E-02,3.422747998245E-02));
#123 = CARTESIAN_POINT('',(-0.190209210191,3.280454492196E-02));
#124 = CARTESIAN_POINT('',(-0.287761515414,2.963798548218E-02));
#125 = CARTESIAN_POINT('',(-0.331474405456,2.730310579426E-02));
#126 = CARTESIAN_POINT('',(-0.380640853911,3.306569335013E-02));
#127 = CARTESIAN_POINT('',(-0.403831040118,3.347856212304E-02));
#128 = CARTESIAN_POINT('',(-0.479253270775,3.209859900745E-02));
#129 = CARTESIAN_POINT('',(-0.500718941999,3.125E-02));
#130 = ( GEOMETRIC_REPRESENTATION_CONTEXT(2) 
PARAMETRIC_REPRESENTATION_CONTEXT() REPRESENTATION_CONTEXT('2D SPACE',''
  ) );
#131 = ORIENTED_EDGE('',*,*,#132,.T.);
#132 = EDGE_CURVE('',#89,#22,#133,.T.);
#133 = SURFACE_CURVE('',#134,(#138),.PCURVE_S1.);
#134 = LINE('',#135,#136);
#135 = CARTESIAN_POINT('',(0.,6.25E-02,0.));
#136 = VECTOR('',#137,1.);
#137 = DIRECTION('',(0.,-1.,0.));
#138 = PCURVE('',#46,#139);
#139 = DEFINITIONAL_REPRESENTATION('',(#140),#144);
#140 = LINE('',#141,#142);
#141 = CARTESIAN_POINT('',(-0.500718941999,3.125E-02));
#142 = VECTOR('',#143,1.);
#143 = DIRECTION('',(0.,-1.));
#144 = ( GEOMETRIC_REPRESENTATION_CONTEXT(2) 
PARAMETRIC_REPRESENTATION_CONTEXT() REPRESENTATION_CONTEXT('2D SPACE',''
  ) );
#145 = ( GEOMETRIC_REPRESENTATION_CONTEXT(3) 
GLOBAL_UNCERTAINTY_ASSIGNED_CONTEXT((#149)) GLOBAL_UNIT_ASSIGNED_CONTEXT
((#146,#147,#148)) REPRESENTATION_CONTEXT('Context #1',
  '3D Context with UNIT and UNCERTAINTY') );
#146 = ( LENGTH_UNIT() NAMED_UNIT(*) SI_UNIT(.MILLI.,.METRE.) );
#147 = ( NAMED_UNIT(*) PLANE_ANGLE_UNIT() SI_UNIT($,.RADIAN.) );
#148 = ( NAMED_UNIT(*) SI_UNIT($,.STERADIAN.) SOLID_ANGLE_UNIT() );
#149 = UNCERTAINTY_MEASURE_WITH_UNIT(LENGTH_MEASURE(1.E-07),#146,
  'distance_accuracy_value','confusion accuracy');
#150 = PRODUCT_RELATED_PRODUCT_CATEGORY('part',$,(#7));
ENDSEC;
END-ISO-10303-21;
