ISO-10303-21;
HEADER;
FILE_DESCRIPTION(('Open CASCADE Model'),'2;1');
FILE_NAME('Open CASCADE Shape Model','2026-08-17T20:30:05',('Author'),(
    'Open CASCADE'),'Open CASCADE STEP processor 7.9','Open CASCADE 7.9'
  ,'Unknown');
FILE_SCHEMA(('AUTOMOTIVE_DESIGN { 1 0 10303 214 1 1 1 1 }'));
ENDSEC;
DATA;
#1 = APPLICATION_PROTOCOL_DEFINITION('international standard',
  'automotive_design',2000,#2);
#2 = APPLICATION_CONTEXT(
  'core data for automotive mechanical design processes');
#3 = SHAPE_DEFINITION_REPRESENTATION(#4,#10);
#4 = PRODUCT_DEFINITION_SHAPE('','',#5);
#5 = PRODUCT_DEFINITION('design','',#6,#9);
#6 = PRODUCT_DEFINITION_FORMATION('','',#7);
#7 = PRODUCT('Open CASCADE STEP translator 7.9 75',
  'Open CASCADE STEP translator 7.9 75','',(#8));
#8 = PRODUCT_CONTEXT('',#2,'mechanical');
#9 = PRODUCT_DEFINITION_CONTEXT('part definition',#2,'design');
#10 = MANIFOLD_SURFACE_SHAPE_REPRESENTATION('',(#11,#15),#145);
#11 = AXIS2_PLACEMENT_3D('',#12,#13,#14);
#12 = CARTESIAN_POINT('',(0.,0.,0.));
#13 = DIRECTION('',(0.,0.,1.));
#14 = DIRECTION('',(1.,0.,-0.));
#15 = SHELL_BASED_SURFACE_MODEL('',(#16));
#16 = OPEN_SHELL('',(#17));
#17 = ADVANCED_FACE('',(#18),#46,.T.);
#18 = FACE_BOUND('',#19,.T.);
#19 = EDGE_LOOP('',(#20,#71,#87,#131));
#20 = ORIENTED_EDGE('',*,*,#21,.T.);
#21 = EDGE_CURVE('',#22,#24,#26,.T.);
#22 = VERTEX_POINT('',#23);
#23 = CARTESIAN_POINT('',(0.,0.,0.));
#24 = VERTEX_POINT('',#25);
#25 = CARTESIAN_POINT('',(1.,0.,0.));
#26 = SURFACE_CURVE('',#27,(#45),.PCURVE_S1.);
#27 = B_SPLINE_CURVE_WITH_KNOTS('',1,(#28,#29,#30,#31,#32,#33,#34,#35,
    #36,#37,#38,#39,#40,#41,#42,#43,#44),.UNSPECIFIED.,.F.,.F.,(2,1,1,1,
    1,1,1,1,1,1,1,1,1,1,1,1,2),(0.,0.104108667722,0.150887240201,
    0.164936217197,0.200179567612,0.243389452796,0.332424843813,
    0.433071961079,0.486595291098,0.522994605791,0.576178168092,
    0.73360786506,0.764157852677,0.8668302371,0.938584330268,
    0.954104458205,1.),.UNSPECIFIED.);
#28 = CARTESIAN_POINT('',(0.,-0.,0.));
#29 = CARTESIAN_POINT('',(0.104306476926,4.35205952611E-03,0.));
#30 = CARTESIAN_POINT('',(0.15121336141,3.996718570182E-03,0.));
#31 = CARTESIAN_POINT('',(0.164398993461,-9.6397844038E-04,0.));
#32 = CARTESIAN_POINT('',(0.199358566491,4.214540645916E-03,0.));
#33 = CARTESIAN_POINT('',(0.242286476509,-1.672160697296E-03,0.));
#34 = CARTESIAN_POINT('',(0.331503744674,1.731603314861E-03,0.));
#35 = CARTESIAN_POINT('',(0.432427003966,2.486782776727E-03,0.));
#36 = CARTESIAN_POINT('',(0.486027739392,-2.719631011882E-04,0.));
#37 = CARTESIAN_POINT('',(0.522400130884,-3.323852974497E-03,0.));
#38 = CARTESIAN_POINT('',(0.575659149057,-5.544337831035E-04,0.));
#39 = CARTESIAN_POINT('',(0.733523001199,2.787328392992E-04,0.));
#40 = CARTESIAN_POINT('',(0.764129032575,1.6029275996E-03,0.));
#41 = CARTESIAN_POINT('',(0.867080184484,5.088403370855E-04,0.));
#42 = CARTESIAN_POINT('',(0.939025977449,1.525564011198E-03,0.));
#43 = CARTESIAN_POINT('',(0.95423233787,4.838886430929E-03,0.));
#44 = CARTESIAN_POINT('',(1.,-0.,0.));
#45 = PCURVE('',#46,#51);
#46 = PLANE('',#47);
#47 = AXIS2_PLACEMENT_3D('',#48,#49,#50);
#48 = CARTESIAN_POINT('',(0.499715426862,3.125E-02,0.));
#49 = DIRECTION('',(0.,0.,1.));
#50 = DIRECTION('',(1.,0.,-0.));
#51 = DEFINITIONAL_REPRESENTATION('',(#52),#70);
#52 = B_SPLINE_CURVE_WITH_KNOTS('',1,(#53,#54,#55,#56,#57,#58,#59,#60,
    #61,#62,#63,#64,#65,#66,#67,#68,#69),.UNSPECIFIED.,.F.,.F.,(2,1,1,1,
    1,1,1,1,1,1,1,1,1,1,1,1,2),(0.,0.104108667722,0.150887240201,
    0.164936217197,0.200179567612,0.243389452796,0.332424843813,
    0.433071961079,0.486595291098,0.522994605791,0.576178168092,
    0.73360786506,0.764157852677,0.8668302371,0.938584330268,
    0.954104458205,1.),.UNSPECIFIED.);
#53 = CARTESIAN_POINT('',(-0.499715426862,-3.125E-02));
#54 = CARTESIAN_POINT('',(-0.395408949936,-2.689794047389E-02));
#55 = CARTESIAN_POINT('',(-0.348502065452,-2.725328142982E-02));
#56 = CARTESIAN_POINT('',(-0.335316433401,-3.221397844038E-02));
#57 = CARTESIAN_POINT('',(-0.300356860371,-2.703545935408E-02));
#58 = CARTESIAN_POINT('',(-0.257428950353,-3.29221606973E-02));
#59 = CARTESIAN_POINT('',(-0.168211682188,-2.951839668514E-02));
#60 = CARTESIAN_POINT('',(-6.728842289547E-02,-2.876321722327E-02));
#61 = CARTESIAN_POINT('',(-1.368768746988E-02,-3.152196310119E-02));
#62 = CARTESIAN_POINT('',(2.268470402227E-02,-3.45738529745E-02));
#63 = CARTESIAN_POINT('',(7.594372219563E-02,-3.18044337831E-02));
#64 = CARTESIAN_POINT('',(0.233807574337,-3.09712671607E-02));
#65 = CARTESIAN_POINT('',(0.264413605713,-2.96470724004E-02));
#66 = CARTESIAN_POINT('',(0.367364757622,-3.074115966291E-02));
#67 = CARTESIAN_POINT('',(0.439310550587,-2.97244359888E-02));
#68 = CARTESIAN_POINT('',(0.454516911008,-2.641111356907E-02));
#69 = CARTESIAN_POINT('',(0.500284573138,-3.125E-02));
#70 = ( GEOMETRIC_REPRESENTATION_CONTEXT(2) 
PARAMETRIC_REPRESENTATION_CONTEXT() REPRESENTATION_CONTEXT('2D SPACE',''
  ) );
#71 = ORIENTED_EDGE('',*,*,#72,.T.);
#72 = EDGE_CURVE('',#24,#73,#75,.T.);
#73 = VERTEX_POINT('',#74);
#74 = CARTESIAN_POINT('',(1.,6.25E-02,0.));
#75 = SURFACE_CURVE('',#76,(#80),.PCURVE_S1.);
#76 = LINE('',#77,#78);
#77 = CARTESIAN_POINT('',(1.,-0.,0.));
#78 = VECTOR('',#79,1.);
#79 = DIRECTION('',(0.,1.,0.));
#80 = PCURVE('',#46,#81);
#81 = DEFINITIONAL_REPRESENTATION('',(#82),#86);
#82 = LINE('',#83,#84);
#83 = CARTESIAN_POINT('',(0.500284573138,-3.125E-02));
#84 = VECTOR('',#85,1.);
#85 = DIRECTION('',(0.,1.));
#86 = ( GEOMETRIC_REPRESENTATION_CONTEXT(2) 
PARAMETRIC_REPRESENTATION_CONTEXT() REPRESENTATION_CONTEXT('2D SPACE',''
  ) );
#87 = ORIENTED_EDGE('',*,*,#88,.T.);
#88 = EDGE_CURVE('',#73,#89,#91,.T.);
#89 = VERTEX_POINT('',#90);
#90 = CARTESIAN_POINT('',(0.,6.25E-02,0.));
#91 = SURFACE_CURVE('',#92,(#110),.PCURVE_S1.);
#92 = B_SPLINE_CURVE_WITH_KNOTS('',1,(#93,#94,#95,#96,#97,#98,#99,#100,
    #101,#102,#103,#104,#105,#106,#107,#108,#109),.UNSPECIFIED.,.F.,.F.,
  (2,1,1,1,1,1,1,1,1,1,1,1,1,1,1,1,2),(0.,4.589554179452E-02,
    6.141566973153E-02,0.1331697629,0.235842147323,0.26639213494,
    0.423821831908,0.477005394209,0.513404708902,0.566928038921,
    0.667575156187,0.756610547204,0.799820432388,0.835063782803,
    0.849112759799,0.895891332278,1.),.UNSPECIFIED.);
#93 = CARTESIAN_POINT('',(1.,6.25E-02,0.));
#94 = CARTESIAN_POINT('',(0.95423233787,5.766111356907E-02,0.));
#95 = CARTESIAN_POINT('',(0.939025977449,6.09744359888E-02,0.));
#96 = CARTESIAN_POINT('',(0.867080184484,6.199115966291E-02,0.));
#97 = CARTESIAN_POINT('',(0.764129032575,6.08970724004E-02,0.));
#98 = CARTESIAN_POINT('',(0.733523001199,6.22212671607E-02,0.));
#99 = CARTESIAN_POINT('',(0.575659149057,6.30544337831E-02,0.));
#100 = CARTESIAN_POINT('',(0.522400130884,6.58238529745E-02,0.));
#101 = CARTESIAN_POINT('',(0.486027739392,6.277196310119E-02,0.));
#102 = CARTESIAN_POINT('',(0.432427003966,6.001321722327E-02,0.));
#103 = CARTESIAN_POINT('',(0.331503744674,6.076839668514E-02,0.));
#104 = CARTESIAN_POINT('',(0.242286476509,6.41721606973E-02,0.));
#105 = CARTESIAN_POINT('',(0.199358566491,5.828545935408E-02,0.));
#106 = CARTESIAN_POINT('',(0.164398993461,6.346397844038E-02,0.));
#107 = CARTESIAN_POINT('',(0.15121336141,5.850328142982E-02,0.));
#108 = CARTESIAN_POINT('',(0.104306476926,5.814794047389E-02,0.));
#109 = CARTESIAN_POINT('',(0.,6.25E-02,0.));
#110 = PCURVE('',#46,#111);
#111 = DEFINITIONAL_REPRESENTATION('',(#112),#130);
#112 = B_SPLINE_CURVE_WITH_KNOTS('',1,(#113,#114,#115,#116,#117,#118,
    #119,#120,#121,#122,#123,#124,#125,#126,#127,#128,#129),
  .UNSPECIFIED.,.F.,.F.,(2,1,1,1,1,1,1,1,1,1,1,1,1,1,1,1,2),(0.,
    4.589554179452E-02,6.141566973153E-02,0.1331697629,0.235842147323,
    0.26639213494,0.423821831908,0.477005394209,0.513404708902,
    0.566928038921,0.667575156187,0.756610547204,0.799820432388,
    0.835063782803,0.849112759799,0.895891332278,1.),.UNSPECIFIED.);
#113 = CARTESIAN_POINT('',(0.500284573138,3.125E-02));
#114 = CARTESIAN_POINT('',(0.454516911008,2.641111356907E-02));
#115 = CARTESIAN_POINT('',(0.439310550587,2.97244359888E-02));
#116 = CARTESIAN_POINT('',(0.367364757622,3.074115966291E-02));
#117 = CARTESIAN_POINT('',(0.264413605713,2.96470724004E-02));
#118 = CARTESIAN_POINT('',(0.233807574337,3.09712671607E-02));
#119 = CARTESIAN_POINT('',(7.594372219563E-02,3.18044337831E-02));
#120 = CARTESIAN_POINT('',(2.268470402227E-02,3.45738529745E-02));
#121 = CARTESIAN_POINT('',(-1.368768746988E-02,3.152196310119E-02));
#122 = CARTESIAN_POINT('',(-6.728842289547E-02,2.876321722327E-02));
#123 = CARTESIAN_POINT('',(-0.168211682188,2.951839668514E-02));
#124 = CARTESIAN_POINT('',(-0.257428950353,3.29221606973E-02));
#125 = CARTESIAN_POINT('',(-0.300356860371,2.703545935408E-02));
#126 = CARTESIAN_POINT('',(-0.335316433401,3.221397844038E-02));
#127 = CARTESIAN_POINT('',(-0.348502065452,2.725328142982E-02));
#128 = CARTESIAN_POINT('',(-0.395408949936,2.689794047389E-02));
#129 = CARTESIAN_POINT('',(-0.499715426862,3.125E-02));
#130 = ( GEOMETRIC_REPRESENTATION_CONTEXT(2) 
PARAMETRIC_REPRESENTATION_CONTEXT() REPRESENTATION_CONTEXT('2D SPACE',''
  ) );
#131 = ORIENTED_EDGE('',*,*,#132,.T.);
#132 = EDGE_CURVE('',#89,#22,#133,.T.);
#133 = SURFACE_CURVE('',#134,(#138),.PCURVE_S1.);
#134 = LINE('',#135,#136);
#135 = CARTESIAN_POINT('',(0.,6.25E-02,0.));
#136 = VECTOR('',#137,1.);
#137 = DIRECTION('',(0.,-1.,0.));
#138 = PCURVE('',#46,#139);
#139 = DEFINITIONAL_REPRESENTATION('',(#140),#144);
#140 = LINE('',#141,#142);
#141 = CARTESIAN_POINT('',(-0.499715426862,3.125E-02));
#142 = VECTOR('',#143,1.);
#143 = DIRECTION('',(0.,-1.));
#144 = ( GEOMETRIC_REPRESENTATION_CONTEXT(2) 
PARAMETRIC_REPRESENTATION_CONTEXT() REPRESENTATION_CONTEXT('2D SPACE',''
  ) );
#145 = ( GEOMETRIC_REPRESENTATION_CONTEXT(3) 
GLOBAL_UNCERTAINTY_ASSIGNED_CONTEXT((#149)) GLOBAL_UNIT_ASSIGNED_CONTEXT
((#146,#147,#148)) REPRESENTATION_CONTEXT('Context #1',
  '3D Context with UNIT and UNCERTAINTY') );
#146 = ( LENGTH_UNIT() NAMED_UNIT(*) SI_UNIT(.MILLI.,.METRE.) );
#147 = ( NAMED_UNIT(*) PLANE_ANGLE_UNIT() SI_UNIT($,.RADIAN.) );
#148 = ( NAMED_UNIT(*) SI_UNIT($,.STERADIAN.) SOLID_ANGLE_UNIT() );
#149 = UNCERTAINTY_MEASURE_WITH_UNIT(LENGTH_MEASURE(1.E-07),#146,
  'distance_accuracy_value','confusion accuracy');
#150 = PRODUCT_RELATED_PRODUCT_CATEGORY('part',$,(#7));
ENDSEC;
END-ISO-10303-21;
