ISO-10303-21;
HEADER;
FILE_DESCRIPTION(('Open CASCADE Model'),'2;1');
FILE_NAME('Open CASCADE Shape Model','2026-08-17T20:30:04',('Author'),(
    'Open CASCADE'),'Open CASCADE STEP processor 7.9','Open CASCADE 7.9'
  ,'Unknown');
FILE_SCHEMA(('AUTOMOTIVE_DESIGN { 1 0 10303 214 1 1 1 1 }'));
ENDSEC;
DATA;
#1 = APPLICATION_PROTOCOL_DEFINITION('international standard',
  'automotive_design',2000,#2);
#2 = APPLICATION_CONTEXT(
  'core data for automotive mechanical design processes');
#3 = SHAPE_DEFINITION_REPRESENTATION(#4,#10);
#4 = PRODUCT_DEFINITION_SHAPE('','',#5);
#5 = PRODUCT_DEFINITION('design','',#6,#9);
#6 = PRODUCT_DEFINITION_FORMATION('','',#7);
#7 = PRODUCT('Open CASCADE STEP translator 7.9 47',
  'Open CASCADE STEP translator 7.9 47','',(#8));
#8 = PRODUCT_CONTEXT('',#2,'mechanical');
#9 = PRODUCT_DEFINITION_CONTEXT('part definition',#2,'design');
#10 = MANIFOLD_SURFACE_SHAPE_REPRESENTATION('',(#11,#15),#145);
#11 = AXIS2_PLACEMENT_3D('',#12,#13,#14);
#12 = CARTESIAN_POINT('',(0.,0.,0.));
#13 = DIRECTION('',(0.,0.,1.));
#14 = DIRECTION('',(1.,0.,-0.));
#15 = SHELL_BASED_SURFACE_MODEL('',(#16));
#16 = OPEN_SHELL('',(#17));
#17 = ADVANCED_FACE('',(#18),#46,.T.);
#18 = FACE_BOUND('',#19,.T.);
#19 = EDGE_LOOP('',(#20,#71,#87,#131));
#20 = ORIENTED_EDGE('',*,*,#21,.T.);
#21 = EDGE_CURVE('',#22,#24,#26,.T.);
#22 = VERTEX_POINT('',#23);
#23 = CARTESIAN_POINT('',(0.,0.,0.));
#24 = VERTEX_POINT('',#25);
#25 = CARTESIAN_POINT('',(1.,0.,0.));
#26 = SURFACE_CURVE('',#27,(#45),.PCURVE_S1.);
#27 = B_SPLINE_CURVE_WITH_KNOTS('',1,(#28,#29,#30,#31,#32,#33,#34,#35,
    #36,#37,#38,#39,#40,#41,#42,#43,#44),.UNSPECIFIED.,.F.,.F.,(2,1,1,1,
    1,1,1,1,1,1,1,1,1,1,1,1,2),(0.,7.680294030989E-02,9.643591897885E-02
    ,0.109748807011,0.204104495267,0.253371303397,0.398762039482,
    0.504425057864,0.553538914999,0.618879630743,0.727382135034,
    0.824082831886,0.843429180018,0.867835863713,0.894612132213,
    0.935884334565,1.),.UNSPECIFIED.);
#28 = CARTESIAN_POINT('',(0.,-0.,0.));
#29 = CARTESIAN_POINT('',(7.685473386492E-02,4.414321409039E-03,0.));
#30 = CARTESIAN_POINT('',(9.635288593296E-02,1.755504028406E-03,0.));
#31 = CARTESIAN_POINT('',(0.109683530078,1.162610792754E-03,0.));
#32 = CARTESIAN_POINT('',(0.204218416519,-1.589465117419E-03,0.));
#33 = CARTESIAN_POINT('',(0.253562636519,-3.502421118572E-03,0.));
#34 = CARTESIAN_POINT('',(0.399261100631,-5.402996960738E-04,0.));
#35 = CARTESIAN_POINT('',(0.50514047987,1.944882836799E-03,0.));
#36 = CARTESIAN_POINT('',(0.554366200459,2.416527934984E-03,0.));
#37 = CARTESIAN_POINT('',(0.619739373397,-1.53588630176E-03,0.));
#38 = CARTESIAN_POINT('',(0.728313698658,4.723853672279E-03,0.));
#39 = CARTESIAN_POINT('',(0.825007642674,-1.970417466971E-03,0.));
#40 = CARTESIAN_POINT('',(0.844087117527,1.493140683522E-03,0.));
#41 = CARTESIAN_POINT('',(0.868322728094,4.823745033763E-03,0.));
#42 = CARTESIAN_POINT('',(0.894901317084,1.097757156671E-03,0.));
#43 = CARTESIAN_POINT('',(0.935891686528,-4.479845034556E-03,0.));
#44 = CARTESIAN_POINT('',(1.,-0.,0.));
#45 = PCURVE('',#46,#51);
#46 = PLANE('',#47);
#47 = AXIS2_PLACEMENT_3D('',#48,#49,#50);
#48 = CARTESIAN_POINT('',(0.50042436219,3.125E-02,0.));
#49 = DIRECTION('',(0.,0.,1.));
#50 = DIRECTION('',(1.,0.,-0.));
#51 = DEFINITIONAL_REPRESENTATION('',(#52),#70);
#52 = B_SPLINE_CURVE_WITH_KNOTS('',1,(#53,#54,#55,#56,#57,#58,#59,#60,
    #61,#62,#63,#64,#65,#66,#67,#68,#69),.UNSPECIFIED.,.F.,.F.,(2,1,1,1,
    1,1,1,1,1,1,1,1,1,1,1,1,2),(0.,7.680294030989E-02,9.643591897885E-02
    ,0.109748807011,0.204104495267,0.253371303397,0.398762039482,
    0.504425057864,0.553538914999,0.618879630743,0.727382135034,
    0.824082831886,0.843429180018,0.867835863713,0.894612132213,
    0.935884334565,1.),.UNSPECIFIED.);
#53 = CARTESIAN_POINT('',(-0.50042436219,-3.125E-02));
#54 = CARTESIAN_POINT('',(-0.423569628326,-2.683567859096E-02));
#55 = CARTESIAN_POINT('',(-0.404071476258,-2.949449597159E-02));
#56 = CARTESIAN_POINT('',(-0.390740832113,-3.008738920725E-02));
#57 = CARTESIAN_POINT('',(-0.296205945671,-3.283946511742E-02));
#58 = CARTESIAN_POINT('',(-0.246861725672,-3.475242111857E-02));
#59 = CARTESIAN_POINT('',(-0.101163261559,-3.179029969607E-02));
#60 = CARTESIAN_POINT('',(4.716117679518E-03,-2.93051171632E-02));
#61 = CARTESIAN_POINT('',(5.394183826843E-02,-2.883347206502E-02));
#62 = CARTESIAN_POINT('',(0.119315011207,-3.278588630176E-02));
#63 = CARTESIAN_POINT('',(0.227889336467,-2.652614632772E-02));
#64 = CARTESIAN_POINT('',(0.324583280484,-3.322041746697E-02));
#65 = CARTESIAN_POINT('',(0.343662755337,-2.975685931648E-02));
#66 = CARTESIAN_POINT('',(0.367898365904,-2.642625496624E-02));
#67 = CARTESIAN_POINT('',(0.394476954894,-3.015224284333E-02));
#68 = CARTESIAN_POINT('',(0.435467324338,-3.572984503456E-02));
#69 = CARTESIAN_POINT('',(0.49957563781,-3.125E-02));
#70 = ( GEOMETRIC_REPRESENTATION_CONTEXT(2) 
PARAMETRIC_REPRESENTATION_CONTEXT() REPRESENTATION_CONTEXT('2D SPACE',''
  ) );
#71 = ORIENTED_EDGE('',*,*,#72,.T.);
#72 = EDGE_CURVE('',#24,#73,#75,.T.);
#73 = VERTEX_POINT('',#74);
#74 = CARTESIAN_POINT('',(1.,6.25E-02,0.));
#75 = SURFACE_CURVE('',#76,(#80),.PCURVE_S1.);
#76 = LINE('',#77,#78);
#77 = CARTESIAN_POINT('',(1.,-0.,0.));
#78 = VECTOR('',#79,1.);
#79 = DIRECTION('',(0.,1.,0.));
#80 = PCURVE('',#46,#81);
#81 = DEFINITIONAL_REPRESENTATION('',(#82),#86);
#82 = LINE('',#83,#84);
#83 = CARTESIAN_POINT('',(0.49957563781,-3.125E-02));
#84 = VECTOR('',#85,1.);
#85 = DIRECTION('',(0.,1.));
#86 = ( GEOMETRIC_REPRESENTATION_CONTEXT(2) 
PARAMETRIC_REPRESENTATION_CONTEXT() REPRESENTATION_CONTEXT('2D SPACE',''
  ) );
#87 = ORIENTED_EDGE('',*,*,#88,.T.);
#88 = EDGE_CURVE('',#73,#89,#91,.T.);
#89 = VERTEX_POINT('',#90);
#90 = CARTESIAN_POINT('',(0.,6.25E-02,0.));
#91 = SURFACE_CURVE('',#92,(#110),.PCURVE_S1.);
#92 = B_SPLINE_CURVE_WITH_KNOTS('',1,(#93,#94,#95,#96,#97,#98,#99,#100,
    #101,#102,#103,#104,#105,#106,#107,#108,#109),.UNSPECIFIED.,.F.,.F.,
  (2,1,1,1,1,1,1,1,1,1,1,1,1,1,1,1,2),(0.,6.411566543469E-02,
    0.105387867787,0.132164136287,0.156570819982,0.175917168114,
    0.272617864966,0.381120369257,0.446461085001,0.495574942136,
    0.601237960518,0.746628696603,0.795895504733,0.890251192989,
    0.903564081021,0.92319705969,1.),.UNSPECIFIED.);
#93 = CARTESIAN_POINT('',(1.,6.25E-02,0.));
#94 = CARTESIAN_POINT('',(0.935891686528,6.697984503456E-02,0.));
#95 = CARTESIAN_POINT('',(0.894901317084,6.140224284333E-02,0.));
#96 = CARTESIAN_POINT('',(0.868322728094,5.767625496624E-02,0.));
#97 = CARTESIAN_POINT('',(0.844087117527,6.100685931648E-02,0.));
#98 = CARTESIAN_POINT('',(0.825007642674,6.447041746697E-02,0.));
#99 = CARTESIAN_POINT('',(0.728313698658,5.777614632772E-02,0.));
#100 = CARTESIAN_POINT('',(0.619739373397,6.403588630176E-02,0.));
#101 = CARTESIAN_POINT('',(0.554366200459,6.008347206502E-02,0.));
#102 = CARTESIAN_POINT('',(0.50514047987,6.05551171632E-02,0.));
#103 = CARTESIAN_POINT('',(0.399261100631,6.304029969607E-02,0.));
#104 = CARTESIAN_POINT('',(0.253562636519,6.600242111857E-02,0.));
#105 = CARTESIAN_POINT('',(0.204218416519,6.408946511742E-02,0.));
#106 = CARTESIAN_POINT('',(0.109683530078,6.133738920725E-02,0.));
#107 = CARTESIAN_POINT('',(9.635288593296E-02,6.074449597159E-02,0.));
#108 = CARTESIAN_POINT('',(7.685473386492E-02,5.808567859096E-02,0.));
#109 = CARTESIAN_POINT('',(0.,6.25E-02,0.));
#110 = PCURVE('',#46,#111);
#111 = DEFINITIONAL_REPRESENTATION('',(#112),#130);
#112 = B_SPLINE_CURVE_WITH_KNOTS('',1,(#113,#114,#115,#116,#117,#118,
    #119,#120,#121,#122,#123,#124,#125,#126,#127,#128,#129),
  .UNSPECIFIED.,.F.,.F.,(2,1,1,1,1,1,1,1,1,1,1,1,1,1,1,1,2),(0.,
    6.411566543469E-02,0.105387867787,0.132164136287,0.156570819982,
    0.175917168114,0.272617864966,0.381120369257,0.446461085001,
    0.495574942136,0.601237960518,0.746628696603,0.795895504733,
    0.890251192989,0.903564081021,0.92319705969,1.),.UNSPECIFIED.);
#113 = CARTESIAN_POINT('',(0.49957563781,3.125E-02));
#114 = CARTESIAN_POINT('',(0.435467324338,3.572984503456E-02));
#115 = CARTESIAN_POINT('',(0.394476954894,3.015224284333E-02));
#116 = CARTESIAN_POINT('',(0.367898365904,2.642625496624E-02));
#117 = CARTESIAN_POINT('',(0.343662755337,2.975685931648E-02));
#118 = CARTESIAN_POINT('',(0.324583280484,3.322041746697E-02));
#119 = CARTESIAN_POINT('',(0.227889336467,2.652614632772E-02));
#120 = CARTESIAN_POINT('',(0.119315011207,3.278588630176E-02));
#121 = CARTESIAN_POINT('',(5.394183826843E-02,2.883347206502E-02));
#122 = CARTESIAN_POINT('',(4.716117679518E-03,2.93051171632E-02));
#123 = CARTESIAN_POINT('',(-0.101163261559,3.179029969607E-02));
#124 = CARTESIAN_POINT('',(-0.246861725672,3.475242111857E-02));
#125 = CARTESIAN_POINT('',(-0.296205945671,3.283946511742E-02));
#126 = CARTESIAN_POINT('',(-0.390740832113,3.008738920725E-02));
#127 = CARTESIAN_POINT('',(-0.404071476258,2.949449597159E-02));
#128 = CARTESIAN_POINT('',(-0.423569628326,2.683567859096E-02));
#129 = CARTESIAN_POINT('',(-0.50042436219,3.125E-02));
#130 = ( GEOMETRIC_REPRESENTATION_CONTEXT(2) 
PARAMETRIC_REPRESENTATION_CONTEXT() REPRESENTATION_CONTEXT('2D SPACE',''
  ) );
#131 = ORIENTED_EDGE('',*,*,#132,.T.);
#132 = EDGE_CURVE('',#89,#22,#133,.T.);
#133 = SURFACE_CURVE('',#134,(#138),.PCURVE_S1.);
#134 = LINE('',#135,#136);
#135 = CARTESIAN_POINT('',(0.,6.25E-02,0.));
#136 = VECTOR('',#137,1.);
#137 = DIRECTION('',(0.,-1.,0.));
#138 = PCURVE('',#46,#139);
#139 = DEFINITIONAL_REPRESENTATION('',(#140),#144);
#140 = LINE('',#141,#142);
#141 = CARTESIAN_POINT('',(-0.50042436219,3.125E-02));
#142 = VECTOR('',#143,1.);
#143 = DIRECTION('',(0.,-1.));
#144 = ( GEOMETRIC_REPRESENTATION_CONTEXT(2) 
PARAMETRIC_REPRESENTATION_CONTEXT() REPRESENTATION_CONTEXT('2D SPACE',''
  ) );
#145 = ( GEOMETRIC_REPRESENTATION_CONTEXT(3) 
GLOBAL_UNCERTAINTY_ASSIGNED_CONTEXT((#149)) GLOBAL_UNIT_ASSIGNED_CONTEXT
((#146,#147,#148)) REPRESENTATION_CONTEXT('Context #1',
  '3D Context with UNIT and UNCERTAINTY') );
#146 = ( LENGTH_UNIT() NAMED_UNIT(*) SI_UNIT(.MILLI.,.METRE.) );
#147 = ( NAMED_UNIT(*) PLANE_ANGLE_UNIT() SI_UNIT($,.RADIAN.) );
#148 = ( NAMED_UNIT(*) SI_UNIT($,.STERADIAN.) SOLID_ANGLE_UNIT() );
#149 = UNCERTAINTY_MEASURE_WITH_UNIT(LENGTH_MEASURE(1.E-07),#146,
  'distance_accuracy_value','confusion accuracy');
#150 = PRODUCT_RELATED_PRODUCT_CATEGORY('part',$,(#7));
ENDSEC;
END-ISO-10303-21;
