ISO-10303-21;
HEADER;
FILE_DESCRIPTION(('Open CASCADE Model'),'2;1');
FILE_NAME('Open CASCADE Shape Model','2026-08-17T20:30:05',('Author'),(
    'Open CASCADE'),'Open CASCADE STEP processor 7.9','Open CASCADE 7.9'
  ,'Unknown');
FILE_SCHEMA(('AUTOMOTIVE_DESIGN { 1 0 10303 214 1 1 1 1 }'));
ENDSEC;
DATA;
#1 = APPLICATION_PROTOCOL_DEFINITION('international standard',
  'automotive_design',2000,#2);
#2 = APPLICATION_CONTEXT(
  'core data for automotive mechanical design processes');
#3 = SHAPE_DEFINITION_REPRESENTATION(#4,#10);
#4 = PRODUCT_DEFINITION_SHAPE('','',#5);
#5 = PRODUCT_DEFINITION('design','',#6,#9);
#6 = PRODUCT_DEFINITION_FORMATION('','',#7);
#7 = PRODUCT('Open CASCADE STEP translator 7.9 57',
  'Open CASCADE STEP translator 7.9 57','',(#8));
#8 = PRODUCT_CONTEXT('',#2,'mechanical');
#9 = PRODUCT_DEFINITION_CONTEXT('part definition',#2,'design');
#10 = MANIFOLD_SURFACE_SHAPE_REPRESENTATION('',(#11,#15),#145);
#11 = AXIS2_PLACEMENT_3D('',#12,#13,#14);
#12 = CARTESIAN_POINT('',(0.,0.,0.));
#13 = DIRECTION('',(0.,0.,1.));
#14 = DIRECTION('',(1.,0.,-0.));
#15 = SHELL_BASED_SURFACE_MODEL('',(#16));
#16 = OPEN_SHELL('',(#17));
#17 = ADVANCED_FACE('',(#18),#46,.T.);
#18 = FACE_BOUND('',#19,.T.);
#19 = EDGE_LOOP('',(#20,#71,#87,#131));
#20 = ORIENTED_EDGE('',*,*,#21,.T.);
#21 = EDGE_CURVE('',#22,#24,#26,.T.);
#22 = VERTEX_POINT('',#23);
#23 = CARTESIAN_POINT('',(0.,0.,0.));
#24 = VERTEX_POINT('',#25);
#25 = CARTESIAN_POINT('',(1.,0.,0.));
#26 = SURFACE_CURVE('',#27,(#45),.PCURVE_S1.);
#27 = B_SPLINE_CURVE_WITH_KNOTS('',1,(#28,#29,#30,#31,#32,#33,#34,#35,
    #36,#37,#38,#39,#40,#41,#42,#43,#44),.UNSPECIFIED.,.F.,.F.,(2,1,1,1,
    1,1,1,1,1,1,1,1,1,1,1,1,2),(0.,2.034852376137E-02,6.241005237068E-02
    ,0.149097091696,0.166092637549,0.209390289993,0.253541033883,
    0.326233456702,0.363238945595,0.435734823336,0.527836647412,
    0.568836536126,0.621627568861,0.738477732368,0.903093709543,
    0.972341293521,1.),.UNSPECIFIED.);
#28 = CARTESIAN_POINT('',(0.,-0.,0.));
#29 = CARTESIAN_POINT('',(1.9928075982E-02,4.449137238288E-03,0.));
#30 = CARTESIAN_POINT('',(6.168257166877E-02,-1.71177850303E-03,0.));
#31 = CARTESIAN_POINT('',(0.148668398048,-1.869530841215E-03,0.));
#32 = CARTESIAN_POINT('',(0.164490257,4.495444721408E-03,0.));
#33 = CARTESIAN_POINT('',(0.207049103928,-4.244281979144E-03,0.));
#34 = CARTESIAN_POINT('',(0.251288937049,-1.879474371835E-03,0.));
#35 = CARTESIAN_POINT('',(0.32423034835,-1.383997252247E-03,0.));
#36 = CARTESIAN_POINT('',(0.361330202959,1.869114043798E-04,0.));
#37 = CARTESIAN_POINT('',(0.434075841043,3.711076486752E-04,0.));
#38 = CARTESIAN_POINT('',(0.526474637493,-1.58153044915E-03,0.));
#39 = CARTESIAN_POINT('',(0.567591624391,-2.99491376002E-03,0.));
#40 = CARTESIAN_POINT('',(0.620546995937,-4.364384655531E-03,0.));
#41 = CARTESIAN_POINT('',(0.737685338392,8.22133472576E-04,0.));
#42 = CARTESIAN_POINT('',(0.902862184783,2.319813938709E-03,0.));
#43 = CARTESIAN_POINT('',(0.972266231193,-1.061726163515E-03,0.));
#44 = CARTESIAN_POINT('',(1.,-0.,0.));
#45 = PCURVE('',#46,#51);
#46 = PLANE('',#47);
#47 = AXIS2_PLACEMENT_3D('',#48,#49,#50);
#48 = CARTESIAN_POINT('',(0.498966163848,3.125E-02,0.));
#49 = DIRECTION('',(0.,0.,1.));
#50 = DIRECTION('',(1.,0.,-0.));
#51 = DEFINITIONAL_REPRESENTATION('',(#52),#70);
#52 = B_SPLINE_CURVE_WITH_KNOTS('',1,(#53,#54,#55,#56,#57,#58,#59,#60,
    #61,#62,#63,#64,#65,#66,#67,#68,#69),.UNSPECIFIED.,.F.,.F.,(2,1,1,1,
    1,1,1,1,1,1,1,1,1,1,1,1,2),(0.,2.034852376137E-02,6.241005237068E-02
    ,0.149097091696,0.166092637549,0.209390289993,0.253541033883,
    0.326233456702,0.363238945595,0.435734823336,0.527836647412,
    0.568836536126,0.621627568861,0.738477732368,0.903093709543,
    0.972341293521,1.),.UNSPECIFIED.);
#53 = CARTESIAN_POINT('',(-0.498966163848,-3.125E-02));
#54 = CARTESIAN_POINT('',(-0.479038087866,-2.680086276171E-02));
#55 = CARTESIAN_POINT('',(-0.437283592179,-3.296177850303E-02));
#56 = CARTESIAN_POINT('',(-0.350297765799,-3.311953084122E-02));
#57 = CARTESIAN_POINT('',(-0.334475906848,-2.675455527859E-02));
#58 = CARTESIAN_POINT('',(-0.291917059919,-3.549428197914E-02));
#59 = CARTESIAN_POINT('',(-0.247677226799,-3.312947437183E-02));
#60 = CARTESIAN_POINT('',(-0.174735815498,-3.263399725225E-02));
#61 = CARTESIAN_POINT('',(-0.137635960888,-3.106308859562E-02));
#62 = CARTESIAN_POINT('',(-6.489032280451E-02,-3.087889235132E-02));
#63 = CARTESIAN_POINT('',(2.750847364506E-02,-3.283153044915E-02));
#64 = CARTESIAN_POINT('',(6.862546054339E-02,-3.424491376002E-02));
#65 = CARTESIAN_POINT('',(0.12158083209,-3.561438465553E-02));
#66 = CARTESIAN_POINT('',(0.238719174544,-3.042786652742E-02));
#67 = CARTESIAN_POINT('',(0.403896020935,-2.893018606129E-02));
#68 = CARTESIAN_POINT('',(0.473300067346,-3.231172616352E-02));
#69 = CARTESIAN_POINT('',(0.501033836152,-3.125E-02));
#70 = ( GEOMETRIC_REPRESENTATION_CONTEXT(2) 
PARAMETRIC_REPRESENTATION_CONTEXT() REPRESENTATION_CONTEXT('2D SPACE',''
  ) );
#71 = ORIENTED_EDGE('',*,*,#72,.T.);
#72 = EDGE_CURVE('',#24,#73,#75,.T.);
#73 = VERTEX_POINT('',#74);
#74 = CARTESIAN_POINT('',(1.,6.25E-02,0.));
#75 = SURFACE_CURVE('',#76,(#80),.PCURVE_S1.);
#76 = LINE('',#77,#78);
#77 = CARTESIAN_POINT('',(1.,-0.,0.));
#78 = VECTOR('',#79,1.);
#79 = DIRECTION('',(0.,1.,0.));
#80 = PCURVE('',#46,#81);
#81 = DEFINITIONAL_REPRESENTATION('',(#82),#86);
#82 = LINE('',#83,#84);
#83 = CARTESIAN_POINT('',(0.501033836152,-3.125E-02));
#84 = VECTOR('',#85,1.);
#85 = DIRECTION('',(0.,1.));
#86 = ( GEOMETRIC_REPRESENTATION_CONTEXT(2) 
PARAMETRIC_REPRESENTATION_CONTEXT() REPRESENTATION_CONTEXT('2D SPACE',''
  ) );
#87 = ORIENTED_EDGE('',*,*,#88,.T.);
#88 = EDGE_CURVE('',#73,#89,#91,.T.);
#89 = VERTEX_POINT('',#90);
#90 = CARTESIAN_POINT('',(0.,6.25E-02,0.));
#91 = SURFACE_CURVE('',#92,(#110),.PCURVE_S1.);
#92 = B_SPLINE_CURVE_WITH_KNOTS('',1,(#93,#94,#95,#96,#97,#98,#99,#100,
    #101,#102,#103,#104,#105,#106,#107,#108,#109),.UNSPECIFIED.,.F.,.F.,
  (2,1,1,1,1,1,1,1,1,1,1,1,1,1,1,1,2),(0.,2.76587064793E-02,
    9.690629045687E-02,0.261522267632,0.378372431139,0.431163463874,
    0.472163352588,0.564265176664,0.636761054405,0.673766543298,
    0.746458966117,0.790609710007,0.833907362451,0.850902908304,
    0.937589947629,0.979651476239,1.),.UNSPECIFIED.);
#93 = CARTESIAN_POINT('',(1.,6.25E-02,0.));
#94 = CARTESIAN_POINT('',(0.972266231193,6.356172616352E-02,0.));
#95 = CARTESIAN_POINT('',(0.902862184783,6.018018606129E-02,0.));
#96 = CARTESIAN_POINT('',(0.737685338392,6.167786652742E-02,0.));
#97 = CARTESIAN_POINT('',(0.620546995937,6.686438465553E-02,0.));
#98 = CARTESIAN_POINT('',(0.567591624391,6.549491376002E-02,0.));
#99 = CARTESIAN_POINT('',(0.526474637493,6.408153044915E-02,0.));
#100 = CARTESIAN_POINT('',(0.434075841043,6.212889235132E-02,0.));
#101 = CARTESIAN_POINT('',(0.361330202959,6.231308859562E-02,0.));
#102 = CARTESIAN_POINT('',(0.32423034835,6.388399725225E-02,0.));
#103 = CARTESIAN_POINT('',(0.251288937049,6.437947437183E-02,0.));
#104 = CARTESIAN_POINT('',(0.207049103928,6.674428197914E-02,0.));
#105 = CARTESIAN_POINT('',(0.164490257,5.800455527859E-02,0.));
#106 = CARTESIAN_POINT('',(0.148668398048,6.436953084122E-02,0.));
#107 = CARTESIAN_POINT('',(6.168257166877E-02,6.421177850303E-02,0.));
#108 = CARTESIAN_POINT('',(1.9928075982E-02,5.805086276171E-02,0.));
#109 = CARTESIAN_POINT('',(0.,6.25E-02,0.));
#110 = PCURVE('',#46,#111);
#111 = DEFINITIONAL_REPRESENTATION('',(#112),#130);
#112 = B_SPLINE_CURVE_WITH_KNOTS('',1,(#113,#114,#115,#116,#117,#118,
    #119,#120,#121,#122,#123,#124,#125,#126,#127,#128,#129),
  .UNSPECIFIED.,.F.,.F.,(2,1,1,1,1,1,1,1,1,1,1,1,1,1,1,1,2),(0.,
    2.76587064793E-02,9.690629045687E-02,0.261522267632,0.378372431139,
    0.431163463874,0.472163352588,0.564265176664,0.636761054405,
    0.673766543298,0.746458966117,0.790609710007,0.833907362451,
    0.850902908304,0.937589947629,0.979651476239,1.),.UNSPECIFIED.);
#113 = CARTESIAN_POINT('',(0.501033836152,3.125E-02));
#114 = CARTESIAN_POINT('',(0.473300067346,3.231172616352E-02));
#115 = CARTESIAN_POINT('',(0.403896020935,2.893018606129E-02));
#116 = CARTESIAN_POINT('',(0.238719174544,3.042786652742E-02));
#117 = CARTESIAN_POINT('',(0.12158083209,3.561438465553E-02));
#118 = CARTESIAN_POINT('',(6.862546054339E-02,3.424491376002E-02));
#119 = CARTESIAN_POINT('',(2.750847364506E-02,3.283153044915E-02));
#120 = CARTESIAN_POINT('',(-6.489032280451E-02,3.087889235132E-02));
#121 = CARTESIAN_POINT('',(-0.137635960888,3.106308859562E-02));
#122 = CARTESIAN_POINT('',(-0.174735815498,3.263399725225E-02));
#123 = CARTESIAN_POINT('',(-0.247677226799,3.312947437183E-02));
#124 = CARTESIAN_POINT('',(-0.291917059919,3.549428197914E-02));
#125 = CARTESIAN_POINT('',(-0.334475906848,2.675455527859E-02));
#126 = CARTESIAN_POINT('',(-0.350297765799,3.311953084122E-02));
#127 = CARTESIAN_POINT('',(-0.437283592179,3.296177850303E-02));
#128 = CARTESIAN_POINT('',(-0.479038087866,2.680086276171E-02));
#129 = CARTESIAN_POINT('',(-0.498966163848,3.125E-02));
#130 = ( GEOMETRIC_REPRESENTATION_CONTEXT(2) 
PARAMETRIC_REPRESENTATION_CONTEXT() REPRESENTATION_CONTEXT('2D SPACE',''
  ) );
#131 = ORIENTED_EDGE('',*,*,#132,.T.);
#132 = EDGE_CURVE('',#89,#22,#133,.T.);
#133 = SURFACE_CURVE('',#134,(#138),.PCURVE_S1.);
#134 = LINE('',#135,#136);
#135 = CARTESIAN_POINT('',(0.,6.25E-02,0.));
#136 = VECTOR('',#137,1.);
#137 = DIRECTION('',(0.,-1.,0.));
#138 = PCURVE('',#46,#139);
#139 = DEFINITIONAL_REPRESENTATION('',(#140),#144);
#140 = LINE('',#141,#142);
#141 = CARTESIAN_POINT('',(-0.498966163848,3.125E-02));
#142 = VECTOR('',#143,1.);
#143 = DIRECTION('',(0.,-1.));
#144 = ( GEOMETRIC_REPRESENTATION_CONTEXT(2) 
PARAMETRIC_REPRESENTATION_CONTEXT() REPRESENTATION_CONTEXT('2D SPACE',''
  ) );
#145 = ( GEOMETRIC_REPRESENTATION_CONTEXT(3) 
GLOBAL_UNCERTAINTY_ASSIGNED_CONTEXT((#149)) GLOBAL_UNIT_ASSIGNED_CONTEXT
((#146,#147,#148)) REPRESENTATION_CONTEXT('Context #1',
  '3D Context with UNIT and UNCERTAINTY') );
#146 = ( LENGTH_UNIT() NAMED_UNIT(*) SI_UNIT(.MILLI.,.METRE.) );
#147 = ( NAMED_UNIT(*) PLANE_ANGLE_UNIT() SI_UNIT($,.RADIAN.) );
#148 = ( NAMED_UNIT(*) SI_UNIT($,.STERADIAN.) SOLID_ANGLE_UNIT() );
#149 = UNCERTAINTY_MEASURE_WITH_UNIT(LENGTH_MEASURE(1.E-07),#146,
  'distance_accuracy_value','confusion accuracy');
#150 = PRODUCT_RELATED_PRODUCT_CATEGORY('part',$,(#7));
ENDSEC;
END-ISO-10303-21;
