ISO-10303-21;
HEADER;
FILE_DESCRIPTION(('Open CASCADE Model'),'2;1');
FILE_NAME('Open CASCADE Shape Model','2026-08-17T20:30:04',('Author'),(
    'Open CASCADE'),'Open CASCADE STEP processor 7.9','Open CASCADE 7.9'
  ,'Unknown');
FILE_SCHEMA(('AUTOMOTIVE_DESIGN { 1 0 10303 214 1 1 1 1 }'));
ENDSEC;
DATA;
#1 = APPLICATION_PROTOCOL_DEFINITION('international standard',
  'automotive_design',2000,#2);
#2 = APPLICATION_CONTEXT(
  'core data for automotive mechanical design processes');
#3 = SHAPE_DEFINITION_REPRESENTATION(#4,#10);
#4 = PRODUCT_DEFINITION_SHAPE('','',#5);
#5 = PRODUCT_DEFINITION('design','',#6,#9);
#6 = PRODUCT_DEFINITION_FORMATION('','',#7);
#7 = PRODUCT('Open CASCADE STEP translator 7.9 51',
  'Open CASCADE STEP translator 7.9 51','',(#8));
#8 = PRODUCT_CONTEXT('',#2,'mechanical');
#9 = PRODUCT_DEFINITION_CONTEXT('part definition',#2,'design');
#10 = MANIFOLD_SURFACE_SHAPE_REPRESENTATION('',(#11,#15),#145);
#11 = AXIS2_PLACEMENT_3D('',#12,#13,#14);
#12 = CARTESIAN_POINT('',(0.,0.,0.));
#13 = DIRECTION('',(0.,0.,1.));
#14 = DIRECTION('',(1.,0.,-0.));
#15 = SHELL_BASED_SURFACE_MODEL('',(#16));
#16 = OPEN_SHELL('',(#17));
#17 = ADVANCED_FACE('',(#18),#46,.T.);
#18 = FACE_BOUND('',#19,.T.);
#19 = EDGE_LOOP('',(#20,#71,#87,#131));
#20 = ORIENTED_EDGE('',*,*,#21,.T.);
#21 = EDGE_CURVE('',#22,#24,#26,.T.);
#22 = VERTEX_POINT('',#23);
#23 = CARTESIAN_POINT('',(0.,0.,0.));
#24 = VERTEX_POINT('',#25);
#25 = CARTESIAN_POINT('',(1.,0.,0.));
#26 = SURFACE_CURVE('',#27,(#45),.PCURVE_S1.);
#27 = B_SPLINE_CURVE_WITH_KNOTS('',1,(#28,#29,#30,#31,#32,#33,#34,#35,
    #36,#37,#38,#39,#40,#41,#42,#43,#44),.UNSPECIFIED.,.F.,.F.,(2,1,1,1,
    1,1,1,1,1,1,1,1,1,1,1,1,2),(0.,4.815202697651E-02,0.107107404591,
    0.131457193149,0.169833811924,0.190268293603,0.203788944877,
    0.270909440489,0.341100120355,0.522079761719,0.585985602733,
    0.78370421364,0.801521412299,0.864976182515,0.882454511048,
    0.950960426072,1.),.UNSPECIFIED.);
#28 = CARTESIAN_POINT('',(0.,-0.,0.));
#29 = CARTESIAN_POINT('',(4.830240566565E-02,2.260315830771E-03,0.));
#30 = CARTESIAN_POINT('',(0.107475814269,3.507828156032E-04,0.));
#31 = CARTESIAN_POINT('',(0.131416685847,-4.625405602753E-03,0.));
#32 = CARTESIAN_POINT('',(0.168833729041,4.604339953264E-03,0.));
#33 = CARTESIAN_POINT('',(0.187752837223,-3.343470493131E-03,0.));
#34 = CARTESIAN_POINT('',(0.201290563666,-4.38481024949E-03,0.));
#35 = CARTESIAN_POINT('',(0.268677039937,-2.857087623786E-03,0.));
#36 = CARTESIAN_POINT('',(0.339163316637,-2.552639391926E-03,0.));
#37 = CARTESIAN_POINT('',(0.520878231039,6.708592874902E-04,0.));
#38 = CARTESIAN_POINT('',(0.585030326198,2.406464927142E-03,0.));
#39 = CARTESIAN_POINT('',(0.783577648134,3.924270612628E-03,0.));
#40 = CARTESIAN_POINT('',(0.801091245097,2.620453987739E-04,0.));
#41 = CARTESIAN_POINT('',(0.864813820186,2.126438063196E-04,0.));
#42 = CARTESIAN_POINT('',(0.882041837882,3.569964344169E-03,0.));
#43 = CARTESIAN_POINT('',(0.950753810485,1.89892116246E-04,0.));
#44 = CARTESIAN_POINT('',(1.,-0.,0.));
#45 = PCURVE('',#46,#51);
#46 = PLANE('',#47);
#47 = AXIS2_PLACEMENT_3D('',#48,#49,#50);
#48 = CARTESIAN_POINT('',(0.499165084145,3.125E-02,0.));
#49 = DIRECTION('',(0.,0.,1.));
#50 = DIRECTION('',(1.,0.,-0.));
#51 = DEFINITIONAL_REPRESENTATION('',(#52),#70);
#52 = B_SPLINE_CURVE_WITH_KNOTS('',1,(#53,#54,#55,#56,#57,#58,#59,#60,
    #61,#62,#63,#64,#65,#66,#67,#68,#69),.UNSPECIFIED.,.F.,.F.,(2,1,1,1,
    1,1,1,1,1,1,1,1,1,1,1,1,2),(0.,4.815202697651E-02,0.107107404591,
    0.131457193149,0.169833811924,0.190268293603,0.203788944877,
    0.270909440489,0.341100120355,0.522079761719,0.585985602733,
    0.78370421364,0.801521412299,0.864976182515,0.882454511048,
    0.950960426072,1.),.UNSPECIFIED.);
#53 = CARTESIAN_POINT('',(-0.499165084145,-3.125E-02));
#54 = CARTESIAN_POINT('',(-0.45086267848,-2.898968416923E-02));
#55 = CARTESIAN_POINT('',(-0.391689269876,-3.08992171844E-02));
#56 = CARTESIAN_POINT('',(-0.367748398298,-3.587540560275E-02));
#57 = CARTESIAN_POINT('',(-0.330331355105,-2.664566004674E-02));
#58 = CARTESIAN_POINT('',(-0.311412246923,-3.459347049313E-02));
#59 = CARTESIAN_POINT('',(-0.297874520479,-3.563481024949E-02));
#60 = CARTESIAN_POINT('',(-0.230488044208,-3.410708762379E-02));
#61 = CARTESIAN_POINT('',(-0.160001767508,-3.380263939193E-02));
#62 = CARTESIAN_POINT('',(2.171314689362E-02,-3.057914071251E-02));
#63 = CARTESIAN_POINT('',(8.58652420531E-02,-2.884353507286E-02));
#64 = CARTESIAN_POINT('',(0.284412563989,-2.732572938737E-02));
#65 = CARTESIAN_POINT('',(0.301926160952,-3.098795460123E-02));
#66 = CARTESIAN_POINT('',(0.365648736041,-3.103735619368E-02));
#67 = CARTESIAN_POINT('',(0.382876753737,-2.768003565583E-02));
#68 = CARTESIAN_POINT('',(0.451588726339,-3.106010788375E-02));
#69 = CARTESIAN_POINT('',(0.500834915855,-3.125E-02));
#70 = ( GEOMETRIC_REPRESENTATION_CONTEXT(2) 
PARAMETRIC_REPRESENTATION_CONTEXT() REPRESENTATION_CONTEXT('2D SPACE',''
  ) );
#71 = ORIENTED_EDGE('',*,*,#72,.T.);
#72 = EDGE_CURVE('',#24,#73,#75,.T.);
#73 = VERTEX_POINT('',#74);
#74 = CARTESIAN_POINT('',(1.,6.25E-02,0.));
#75 = SURFACE_CURVE('',#76,(#80),.PCURVE_S1.);
#76 = LINE('',#77,#78);
#77 = CARTESIAN_POINT('',(1.,-0.,0.));
#78 = VECTOR('',#79,1.);
#79 = DIRECTION('',(0.,1.,0.));
#80 = PCURVE('',#46,#81);
#81 = DEFINITIONAL_REPRESENTATION('',(#82),#86);
#82 = LINE('',#83,#84);
#83 = CARTESIAN_POINT('',(0.500834915855,-3.125E-02));
#84 = VECTOR('',#85,1.);
#85 = DIRECTION('',(0.,1.));
#86 = ( GEOMETRIC_REPRESENTATION_CONTEXT(2) 
PARAMETRIC_REPRESENTATION_CONTEXT() REPRESENTATION_CONTEXT('2D SPACE',''
  ) );
#87 = ORIENTED_EDGE('',*,*,#88,.T.);
#88 = EDGE_CURVE('',#73,#89,#91,.T.);
#89 = VERTEX_POINT('',#90);
#90 = CARTESIAN_POINT('',(0.,6.25E-02,0.));
#91 = SURFACE_CURVE('',#92,(#110),.PCURVE_S1.);
#92 = B_SPLINE_CURVE_WITH_KNOTS('',1,(#93,#94,#95,#96,#97,#98,#99,#100,
    #101,#102,#103,#104,#105,#106,#107,#108,#109),.UNSPECIFIED.,.F.,.F.,
  (2,1,1,1,1,1,1,1,1,1,1,1,1,1,1,1,2),(0.,4.903957392789E-02,
    0.117545488952,0.135023817485,0.198478587701,0.21629578636,
    0.414014397267,0.477920238281,0.658899879645,0.729090559511,
    0.796211055123,0.809731706397,0.830166188076,0.868542806851,
    0.892892595409,0.951847973023,1.),.UNSPECIFIED.);
#93 = CARTESIAN_POINT('',(1.,6.25E-02,0.));
#94 = CARTESIAN_POINT('',(0.950753810485,6.231010788375E-02,0.));
#95 = CARTESIAN_POINT('',(0.882041837882,5.893003565583E-02,0.));
#96 = CARTESIAN_POINT('',(0.864813820186,6.228735619368E-02,0.));
#97 = CARTESIAN_POINT('',(0.801091245097,6.223795460123E-02,0.));
#98 = CARTESIAN_POINT('',(0.783577648134,5.857572938737E-02,0.));
#99 = CARTESIAN_POINT('',(0.585030326198,6.009353507286E-02,0.));
#100 = CARTESIAN_POINT('',(0.520878231039,6.182914071251E-02,0.));
#101 = CARTESIAN_POINT('',(0.339163316637,6.505263939193E-02,0.));
#102 = CARTESIAN_POINT('',(0.268677039937,6.535708762379E-02,0.));
#103 = CARTESIAN_POINT('',(0.201290563666,6.688481024949E-02,0.));
#104 = CARTESIAN_POINT('',(0.187752837223,6.584347049313E-02,0.));
#105 = CARTESIAN_POINT('',(0.168833729041,5.789566004674E-02,0.));
#106 = CARTESIAN_POINT('',(0.131416685847,6.712540560275E-02,0.));
#107 = CARTESIAN_POINT('',(0.107475814269,6.21492171844E-02,0.));
#108 = CARTESIAN_POINT('',(4.830240566565E-02,6.023968416923E-02,0.));
#109 = CARTESIAN_POINT('',(0.,6.25E-02,0.));
#110 = PCURVE('',#46,#111);
#111 = DEFINITIONAL_REPRESENTATION('',(#112),#130);
#112 = B_SPLINE_CURVE_WITH_KNOTS('',1,(#113,#114,#115,#116,#117,#118,
    #119,#120,#121,#122,#123,#124,#125,#126,#127,#128,#129),
  .UNSPECIFIED.,.F.,.F.,(2,1,1,1,1,1,1,1,1,1,1,1,1,1,1,1,2),(0.,
    4.903957392789E-02,0.117545488952,0.135023817485,0.198478587701,
    0.21629578636,0.414014397267,0.477920238281,0.658899879645,
    0.729090559511,0.796211055123,0.809731706397,0.830166188076,
    0.868542806851,0.892892595409,0.951847973023,1.),.UNSPECIFIED.);
#113 = CARTESIAN_POINT('',(0.500834915855,3.125E-02));
#114 = CARTESIAN_POINT('',(0.451588726339,3.106010788375E-02));
#115 = CARTESIAN_POINT('',(0.382876753737,2.768003565583E-02));
#116 = CARTESIAN_POINT('',(0.365648736041,3.103735619368E-02));
#117 = CARTESIAN_POINT('',(0.301926160952,3.098795460123E-02));
#118 = CARTESIAN_POINT('',(0.284412563989,2.732572938737E-02));
#119 = CARTESIAN_POINT('',(8.58652420531E-02,2.884353507286E-02));
#120 = CARTESIAN_POINT('',(2.171314689362E-02,3.057914071251E-02));
#121 = CARTESIAN_POINT('',(-0.160001767508,3.380263939193E-02));
#122 = CARTESIAN_POINT('',(-0.230488044208,3.410708762379E-02));
#123 = CARTESIAN_POINT('',(-0.297874520479,3.563481024949E-02));
#124 = CARTESIAN_POINT('',(-0.311412246923,3.459347049313E-02));
#125 = CARTESIAN_POINT('',(-0.330331355105,2.664566004674E-02));
#126 = CARTESIAN_POINT('',(-0.367748398298,3.587540560275E-02));
#127 = CARTESIAN_POINT('',(-0.391689269876,3.08992171844E-02));
#128 = CARTESIAN_POINT('',(-0.45086267848,2.898968416923E-02));
#129 = CARTESIAN_POINT('',(-0.499165084145,3.125E-02));
#130 = ( GEOMETRIC_REPRESENTATION_CONTEXT(2) 
PARAMETRIC_REPRESENTATION_CONTEXT() REPRESENTATION_CONTEXT('2D SPACE',''
  ) );
#131 = ORIENTED_EDGE('',*,*,#132,.T.);
#132 = EDGE_CURVE('',#89,#22,#133,.T.);
#133 = SURFACE_CURVE('',#134,(#138),.PCURVE_S1.);
#134 = LINE('',#135,#136);
#135 = CARTESIAN_POINT('',(0.,6.25E-02,0.));
#136 = VECTOR('',#137,1.);
#137 = DIRECTION('',(0.,-1.,0.));
#138 = PCURVE('',#46,#139);
#139 = DEFINITIONAL_REPRESENTATION('',(#140),#144);
#140 = LINE('',#141,#142);
#141 = CARTESIAN_POINT('',(-0.499165084145,3.125E-02));
#142 = VECTOR('',#143,1.);
#143 = DIRECTION('',(0.,-1.));
#144 = ( GEOMETRIC_REPRESENTATION_CONTEXT(2) 
PARAMETRIC_REPRESENTATION_CONTEXT() REPRESENTATION_CONTEXT('2D SPACE',''
  ) );
#145 = ( GEOMETRIC_REPRESENTATION_CONTEXT(3) 
GLOBAL_UNCERTAINTY_ASSIGNED_CONTEXT((#149)) GLOBAL_UNIT_ASSIGNED_CONTEXT
((#146,#147,#148)) REPRESENTATION_CONTEXT('Context #1',
  '3D Context with UNIT and UNCERTAINTY') );
#146 = ( LENGTH_UNIT() NAMED_UNIT(*) SI_UNIT(.MILLI.,.METRE.) );
#147 = ( NAMED_UNIT(*) PLANE_ANGLE_UNIT() SI_UNIT($,.RADIAN.) );
#148 = ( NAMED_UNIT(*) SI_UNIT($,.STERADIAN.) SOLID_ANGLE_UNIT() );
#149 = UNCERTAINTY_MEASURE_WITH_UNIT(LENGTH_MEASURE(1.E-07),#146,
  'distance_accuracy_value','confusion accuracy');
#150 = PRODUCT_RELATED_PRODUCT_CATEGORY('part',$,(#7));
ENDSEC;
END-ISO-10303-21;
