ISO-10303-21;
HEADER;
FILE_DESCRIPTION(('Open CASCADE Model'),'2;1');
FILE_NAME('Open CASCADE Shape Model','2026-08-17T20:30:05',('Author'),(
    'Open CASCADE'),'Open CASCADE STEP processor 7.9','Open CASCADE 7.9'
  ,'Unknown');
FILE_SCHEMA(('AUTOMOTIVE_DESIGN { 1 0 10303 214 1 1 1 1 }'));
ENDSEC;
DATA;
#1 = APPLICATION_PROTOCOL_DEFINITION('international standard',
  'automotive_design',2000,#2);
#2 = APPLICATION_CONTEXT(
  'core data for automotive mechanical design processes');
#3 = SHAPE_DEFINITION_REPRESENTATION(#4,#10);
#4 = PRODUCT_DEFINITION_SHAPE('','',#5);
#5 = PRODUCT_DEFINITION('design','',#6,#9);
#6 = PRODUCT_DEFINITION_FORMATION('','',#7);
#7 = PRODUCT('Open CASCADE STEP translator 7.9 62',
  'Open CASCADE STEP translator 7.9 62','',(#8));
#8 = PRODUCT_CONTEXT('',#2,'mechanical');
#9 = PRODUCT_DEFINITION_CONTEXT('part definition',#2,'design');
#10 = MANIFOLD_SURFACE_SHAPE_REPRESENTATION('',(#11,#15),#145);
#11 = AXIS2_PLACEMENT_3D('',#12,#13,#14);
#12 = CARTESIAN_POINT('',(0.,0.,0.));
#13 = DIRECTION('',(0.,0.,1.));
#14 = DIRECTION('',(1.,0.,-0.));
#15 = SHELL_BASED_SURFACE_MODEL('',(#16));
#16 = OPEN_SHELL('',(#17));
#17 = ADVANCED_FACE('',(#18),#46,.T.);
#18 = FACE_BOUND('',#19,.T.);
#19 = EDGE_LOOP('',(#20,#71,#87,#131));
#20 = ORIENTED_EDGE('',*,*,#21,.T.);
#21 = EDGE_CURVE('',#22,#24,#26,.T.);
#22 = VERTEX_POINT('',#23);
#23 = CARTESIAN_POINT('',(0.,0.,0.));
#24 = VERTEX_POINT('',#25);
#25 = CARTESIAN_POINT('',(1.,0.,0.));
#26 = SURFACE_CURVE('',#27,(#45),.PCURVE_S1.);
#27 = B_SPLINE_CURVE_WITH_KNOTS('',1,(#28,#29,#30,#31,#32,#33,#34,#35,
    #36,#37,#38,#39,#40,#41,#42,#43,#44),.UNSPECIFIED.,.F.,.F.,(2,1,1,1,
    1,1,1,1,1,1,1,1,1,1,1,1,2),(0.,1.89334716935E-02,3.773403335039E-02,
    9.354775124922E-02,0.108850727722,0.12997422751,0.202160278633,
    0.257569886984,0.339758501277,0.450048792187,0.553378314003,
    0.573586175299,0.706759413074,0.762683747169,0.931397263785,
    0.966287474284,1.),.UNSPECIFIED.);
#28 = CARTESIAN_POINT('',(0.,-0.,0.));
#29 = CARTESIAN_POINT('',(1.896287718737E-02,7.210892609395E-05,0.));
#30 = CARTESIAN_POINT('',(3.747486462339E-02,3.517589621412E-03,0.));
#31 = CARTESIAN_POINT('',(9.31646969784E-02,-1.334491937024E-03,0.));
#32 = CARTESIAN_POINT('',(0.108259610613,1.321829624041E-03,0.));
#33 = CARTESIAN_POINT('',(0.129132186501,-2.132350037832E-03,0.));
#34 = CARTESIAN_POINT('',(0.201371541375,7.96055558419E-04,0.));
#35 = CARTESIAN_POINT('',(0.256794646105,-2.048729964952E-03,0.));
#36 = CARTESIAN_POINT('',(0.339055463092,9.881775521772E-04,0.));
#37 = CARTESIAN_POINT('',(0.449513505073,1.967238999452E-03,0.));
#38 = CARTESIAN_POINT('',(0.552969899146,-6.992199127489E-04,0.));
#39 = CARTESIAN_POINT('',(0.573088574182,-2.906462133444E-03,0.));
#40 = CARTESIAN_POINT('',(0.706460184645,-1.321072738187E-03,0.));
#41 = CARTESIAN_POINT('',(0.762443711855,4.519033801485E-04,0.));
#42 = CARTESIAN_POINT('',(0.9313944555,3.417346948693E-03,0.));
#43 = CARTESIAN_POINT('',(0.966246051765,8.688434393975E-04,0.));
#44 = CARTESIAN_POINT('',(1.,-0.,0.));
#45 = PCURVE('',#46,#51);
#46 = PLANE('',#47);
#47 = AXIS2_PLACEMENT_3D('',#48,#49,#50);
#48 = CARTESIAN_POINT('',(0.499603141713,3.125E-02,0.));
#49 = DIRECTION('',(0.,0.,1.));
#50 = DIRECTION('',(1.,0.,-0.));
#51 = DEFINITIONAL_REPRESENTATION('',(#52),#70);
#52 = B_SPLINE_CURVE_WITH_KNOTS('',1,(#53,#54,#55,#56,#57,#58,#59,#60,
    #61,#62,#63,#64,#65,#66,#67,#68,#69),.UNSPECIFIED.,.F.,.F.,(2,1,1,1,
    1,1,1,1,1,1,1,1,1,1,1,1,2),(0.,1.89334716935E-02,3.773403335039E-02,
    9.354775124922E-02,0.108850727722,0.12997422751,0.202160278633,
    0.257569886984,0.339758501277,0.450048792187,0.553378314003,
    0.573586175299,0.706759413074,0.762683747169,0.931397263785,
    0.966287474284,1.),.UNSPECIFIED.);
#53 = CARTESIAN_POINT('',(-0.499603141713,-3.125E-02));
#54 = CARTESIAN_POINT('',(-0.480640264526,-3.117789107391E-02));
#55 = CARTESIAN_POINT('',(-0.462128277089,-2.773241037859E-02));
#56 = CARTESIAN_POINT('',(-0.406438444734,-3.258449193702E-02));
#57 = CARTESIAN_POINT('',(-0.3913435311,-2.992817037596E-02));
#58 = CARTESIAN_POINT('',(-0.370470955212,-3.338235003783E-02));
#59 = CARTESIAN_POINT('',(-0.298231600338,-3.045394444158E-02));
#60 = CARTESIAN_POINT('',(-0.242808495608,-3.329872996495E-02));
#61 = CARTESIAN_POINT('',(-0.160547678621,-3.026182244782E-02));
#62 = CARTESIAN_POINT('',(-5.008963663942E-02,-2.928276100055E-02));
#63 = CARTESIAN_POINT('',(5.336675743343E-02,-3.194921991275E-02));
#64 = CARTESIAN_POINT('',(7.348543246941E-02,-3.415646213344E-02));
#65 = CARTESIAN_POINT('',(0.206857042932,-3.257107273819E-02));
#66 = CARTESIAN_POINT('',(0.262840570143,-3.079809661985E-02));
#67 = CARTESIAN_POINT('',(0.431791313787,-2.783265305131E-02));
#68 = CARTESIAN_POINT('',(0.466642910052,-3.03811565606E-02));
#69 = CARTESIAN_POINT('',(0.500396858287,-3.125E-02));
#70 = ( GEOMETRIC_REPRESENTATION_CONTEXT(2) 
PARAMETRIC_REPRESENTATION_CONTEXT() REPRESENTATION_CONTEXT('2D SPACE',''
  ) );
#71 = ORIENTED_EDGE('',*,*,#72,.T.);
#72 = EDGE_CURVE('',#24,#73,#75,.T.);
#73 = VERTEX_POINT('',#74);
#74 = CARTESIAN_POINT('',(1.,6.25E-02,0.));
#75 = SURFACE_CURVE('',#76,(#80),.PCURVE_S1.);
#76 = LINE('',#77,#78);
#77 = CARTESIAN_POINT('',(1.,-0.,0.));
#78 = VECTOR('',#79,1.);
#79 = DIRECTION('',(0.,1.,0.));
#80 = PCURVE('',#46,#81);
#81 = DEFINITIONAL_REPRESENTATION('',(#82),#86);
#82 = LINE('',#83,#84);
#83 = CARTESIAN_POINT('',(0.500396858287,-3.125E-02));
#84 = VECTOR('',#85,1.);
#85 = DIRECTION('',(0.,1.));
#86 = ( GEOMETRIC_REPRESENTATION_CONTEXT(2) 
PARAMETRIC_REPRESENTATION_CONTEXT() REPRESENTATION_CONTEXT('2D SPACE',''
  ) );
#87 = ORIENTED_EDGE('',*,*,#88,.T.);
#88 = EDGE_CURVE('',#73,#89,#91,.T.);
#89 = VERTEX_POINT('',#90);
#90 = CARTESIAN_POINT('',(0.,6.25E-02,0.));
#91 = SURFACE_CURVE('',#92,(#110),.PCURVE_S1.);
#92 = B_SPLINE_CURVE_WITH_KNOTS('',1,(#93,#94,#95,#96,#97,#98,#99,#100,
    #101,#102,#103,#104,#105,#106,#107,#108,#109),.UNSPECIFIED.,.F.,.F.,
  (2,1,1,1,1,1,1,1,1,1,1,1,1,1,1,1,2),(0.,3.37125257159E-02,
    6.860273621469E-02,0.237316252831,0.293240586926,0.426413824701,
    0.446621685997,0.549951207813,0.660241498723,0.742430113016,
    0.797839721367,0.87002577249,0.891149272278,0.906452248751,
    0.96226596665,0.981066528306,1.),.UNSPECIFIED.);
#93 = CARTESIAN_POINT('',(1.,6.25E-02,0.));
#94 = CARTESIAN_POINT('',(0.966246051765,6.16311565606E-02,0.));
#95 = CARTESIAN_POINT('',(0.9313944555,5.908265305131E-02,0.));
#96 = CARTESIAN_POINT('',(0.762443711855,6.204809661985E-02,0.));
#97 = CARTESIAN_POINT('',(0.706460184645,6.382107273819E-02,0.));
#98 = CARTESIAN_POINT('',(0.573088574182,6.540646213344E-02,0.));
#99 = CARTESIAN_POINT('',(0.552969899146,6.319921991275E-02,0.));
#100 = CARTESIAN_POINT('',(0.449513505073,6.053276100055E-02,0.));
#101 = CARTESIAN_POINT('',(0.339055463092,6.151182244782E-02,0.));
#102 = CARTESIAN_POINT('',(0.256794646105,6.454872996495E-02,0.));
#103 = CARTESIAN_POINT('',(0.201371541375,6.170394444158E-02,0.));
#104 = CARTESIAN_POINT('',(0.129132186501,6.463235003783E-02,0.));
#105 = CARTESIAN_POINT('',(0.108259610613,6.117817037596E-02,0.));
#106 = CARTESIAN_POINT('',(9.31646969784E-02,6.383449193702E-02,0.));
#107 = CARTESIAN_POINT('',(3.747486462339E-02,5.898241037859E-02,0.));
#108 = CARTESIAN_POINT('',(1.896287718737E-02,6.242789107391E-02,0.));
#109 = CARTESIAN_POINT('',(0.,6.25E-02,0.));
#110 = PCURVE('',#46,#111);
#111 = DEFINITIONAL_REPRESENTATION('',(#112),#130);
#112 = B_SPLINE_CURVE_WITH_KNOTS('',1,(#113,#114,#115,#116,#117,#118,
    #119,#120,#121,#122,#123,#124,#125,#126,#127,#128,#129),
  .UNSPECIFIED.,.F.,.F.,(2,1,1,1,1,1,1,1,1,1,1,1,1,1,1,1,2),(0.,
    3.37125257159E-02,6.860273621469E-02,0.237316252831,0.293240586926,
    0.426413824701,0.446621685997,0.549951207813,0.660241498723,
    0.742430113016,0.797839721367,0.87002577249,0.891149272278,
    0.906452248751,0.96226596665,0.981066528306,1.),.UNSPECIFIED.);
#113 = CARTESIAN_POINT('',(0.500396858287,3.125E-02));
#114 = CARTESIAN_POINT('',(0.466642910052,3.03811565606E-02));
#115 = CARTESIAN_POINT('',(0.431791313787,2.783265305131E-02));
#116 = CARTESIAN_POINT('',(0.262840570143,3.079809661985E-02));
#117 = CARTESIAN_POINT('',(0.206857042932,3.257107273819E-02));
#118 = CARTESIAN_POINT('',(7.348543246941E-02,3.415646213344E-02));
#119 = CARTESIAN_POINT('',(5.336675743343E-02,3.194921991275E-02));
#120 = CARTESIAN_POINT('',(-5.008963663942E-02,2.928276100055E-02));
#121 = CARTESIAN_POINT('',(-0.160547678621,3.026182244782E-02));
#122 = CARTESIAN_POINT('',(-0.242808495608,3.329872996495E-02));
#123 = CARTESIAN_POINT('',(-0.298231600338,3.045394444158E-02));
#124 = CARTESIAN_POINT('',(-0.370470955212,3.338235003783E-02));
#125 = CARTESIAN_POINT('',(-0.3913435311,2.992817037596E-02));
#126 = CARTESIAN_POINT('',(-0.406438444734,3.258449193702E-02));
#127 = CARTESIAN_POINT('',(-0.462128277089,2.773241037859E-02));
#128 = CARTESIAN_POINT('',(-0.480640264526,3.117789107391E-02));
#129 = CARTESIAN_POINT('',(-0.499603141713,3.125E-02));
#130 = ( GEOMETRIC_REPRESENTATION_CONTEXT(2) 
PARAMETRIC_REPRESENTATION_CONTEXT() REPRESENTATION_CONTEXT('2D SPACE',''
  ) );
#131 = ORIENTED_EDGE('',*,*,#132,.T.);
#132 = EDGE_CURVE('',#89,#22,#133,.T.);
#133 = SURFACE_CURVE('',#134,(#138),.PCURVE_S1.);
#134 = LINE('',#135,#136);
#135 = CARTESIAN_POINT('',(0.,6.25E-02,0.));
#136 = VECTOR('',#137,1.);
#137 = DIRECTION('',(0.,-1.,0.));
#138 = PCURVE('',#46,#139);
#139 = DEFINITIONAL_REPRESENTATION('',(#140),#144);
#140 = LINE('',#141,#142);
#141 = CARTESIAN_POINT('',(-0.499603141713,3.125E-02));
#142 = VECTOR('',#143,1.);
#143 = DIRECTION('',(0.,-1.));
#144 = ( GEOMETRIC_REPRESENTATION_CONTEXT(2) 
PARAMETRIC_REPRESENTATION_CONTEXT() REPRESENTATION_CONTEXT('2D SPACE',''
  ) );
#145 = ( GEOMETRIC_REPRESENTATION_CONTEXT(3) 
GLOBAL_UNCERTAINTY_ASSIGNED_CONTEXT((#149)) GLOBAL_UNIT_ASSIGNED_CONTEXT
((#146,#147,#148)) REPRESENTATION_CONTEXT('Context #1',
  '3D Context with UNIT and UNCERTAINTY') );
#146 = ( LENGTH_UNIT() NAMED_UNIT(*) SI_UNIT(.MILLI.,.METRE.) );
#147 = ( NAMED_UNIT(*) PLANE_ANGLE_UNIT() SI_UNIT($,.RADIAN.) );
#148 = ( NAMED_UNIT(*) SI_UNIT($,.STERADIAN.) SOLID_ANGLE_UNIT() );
#149 = UNCERTAINTY_MEASURE_WITH_UNIT(LENGTH_MEASURE(1.E-07),#146,
  'distance_accuracy_value','confusion accuracy');
#150 = PRODUCT_RELATED_PRODUCT_CATEGORY('part',$,(#7));
ENDSEC;
END-ISO-10303-21;
