ISO-10303-21;
HEADER;
FILE_DESCRIPTION(('Open CASCADE Model'),'2;1');
FILE_NAME('Open CASCADE Shape Model','2026-07-21T00:13:23',('Author'),(
    'Open CASCADE'),'Open CASCADE STEP processor 7.9','Open CASCADE 7.9'
  ,'Unknown');
FILE_SCHEMA(('AUTOMOTIVE_DESIGN { 1 0 10303 214 1 1 1 1 }'));
ENDSEC;
DATA;
#1 = APPLICATION_PROTOCOL_DEFINITION('international standard',
  'automotive_design',2000,#2);
#2 = APPLICATION_CONTEXT(
  'core data for automotive mechanical design processes');
#3 = SHAPE_DEFINITION_REPRESENTATION(#4,#10);
#4 = PRODUCT_DEFINITION_SHAPE('','',#5);
#5 = PRODUCT_DEFINITION('design','',#6,#9);
#6 = PRODUCT_DEFINITION_FORMATION('','',#7);
#7 = PRODUCT('Open CASCADE STEP translator 7.9 14',
  'Open CASCADE STEP translator 7.9 14','',(#8));
#8 = PRODUCT_CONTEXT('',#2,'mechanical');
#9 = PRODUCT_DEFINITION_CONTEXT('part definition',#2,'design');
#10 = MANIFOLD_SURFACE_SHAPE_REPRESENTATION('',(#11,#15),#161);
#11 = AXIS2_PLACEMENT_3D('',#12,#13,#14);
#12 = CARTESIAN_POINT('',(0.,0.,0.));
#13 = DIRECTION('',(0.,0.,1.));
#14 = DIRECTION('',(1.,0.,-0.));
#15 = SHELL_BASED_SURFACE_MODEL('',(#16));
#16 = OPEN_SHELL('',(#17));
#17 = ADVANCED_FACE('',(#18),#50,.T.);
#18 = FACE_BOUND('',#19,.T.);
#19 = EDGE_LOOP('',(#20,#79,#95,#147));
#20 = ORIENTED_EDGE('',*,*,#21,.T.);
#21 = EDGE_CURVE('',#22,#24,#26,.T.);
#22 = VERTEX_POINT('',#23);
#23 = CARTESIAN_POINT('',(0.,0.,0.));
#24 = VERTEX_POINT('',#25);
#25 = CARTESIAN_POINT('',(2.,0.,0.));
#26 = SURFACE_CURVE('',#27,(#49),.PCURVE_S1.);
#27 = B_SPLINE_CURVE_WITH_KNOTS('',1,(#28,#29,#30,#31,#32,#33,#34,#35,
    #36,#37,#38,#39,#40,#41,#42,#43,#44,#45,#46,#47,#48),.UNSPECIFIED.,
  .F.,.F.,(2,1,1,1,1,1,1,1,1,1,1,1,1,1,1,1,1,1,1,1,2),(0.,
    3.695464143789E-02,8.69663567425E-02,0.209849943526,0.231437661409,
    0.309722235458,0.349783916003,0.427822745875,0.451956567697,
    0.475088471871,0.495384193591,0.546434846533,0.582157060311,
    0.626211808014,0.686724053477,0.742126460681,0.793231583023,
    0.858250833339,0.869670679168,0.938860235552,1.),.UNSPECIFIED.);
#28 = CARTESIAN_POINT('',(0.,-0.,0.));
#29 = CARTESIAN_POINT('',(7.38886736211E-02,3.941025962492E-03,0.));
#30 = CARTESIAN_POINT('',(0.174025757127,3.596604029361E-03,0.));
#31 = CARTESIAN_POINT('',(0.420057848921,8.08856806837E-04,0.));
#32 = CARTESIAN_POINT('',(0.462934943665,-4.662319121432E-03,0.));
#33 = CARTESIAN_POINT('',(0.61963920299,-9.604255323437E-04,0.));
#34 = CARTESIAN_POINT('',(0.699783266122,-4.330232216002E-03,0.));
#35 = CARTESIAN_POINT('',(0.85603389819,-3.04360915613E-03,0.));
#36 = CARTESIAN_POINT('',(0.904239032777,3.261839844471E-04,0.));
#37 = CARTESIAN_POINT('',(0.95044681305,-2.847634492522E-03,0.));
#38 = CARTESIAN_POINT('',(0.990354376927,4.82163216023E-03,0.));
#39 = CARTESIAN_POINT('',(1.092568223207,3.908560032343E-03,0.));
#40 = CARTESIAN_POINT('',(1.163730657215,-3.294286148827E-03,0.));
#41 = CARTESIAN_POINT('',(1.251940187091,-2.968170883252E-03,0.));
#42 = CARTESIAN_POINT('',(1.372971488848,2.673592580336E-03,0.));
#43 = CARTESIAN_POINT('',(1.483862794395,-3.076959059905E-04,0.));
#44 = CARTESIAN_POINT('',(1.586187015383,-1.060158207E-03,0.));
#45 = CARTESIAN_POINT('',(1.716347733401,-3.67738953776E-03,0.));
#46 = CARTESIAN_POINT('',(1.73905986323,-1.031071573387E-03,0.));
#47 = CARTESIAN_POINT('',(1.877583927306,8.742843072632E-04,0.));
#48 = CARTESIAN_POINT('',(2.,-0.,0.));
#49 = PCURVE('',#50,#55);
#50 = PLANE('',#51);
#51 = AXIS2_PLACEMENT_3D('',#52,#53,#54);
#52 = CARTESIAN_POINT('',(0.999930161031,5.E-02,0.));
#53 = DIRECTION('',(0.,0.,1.));
#54 = DIRECTION('',(1.,0.,-0.));
#55 = DEFINITIONAL_REPRESENTATION('',(#56),#78);
#56 = B_SPLINE_CURVE_WITH_KNOTS('',1,(#57,#58,#59,#60,#61,#62,#63,#64,
    #65,#66,#67,#68,#69,#70,#71,#72,#73,#74,#75,#76,#77),.UNSPECIFIED.,
  .F.,.F.,(2,1,1,1,1,1,1,1,1,1,1,1,1,1,1,1,1,1,1,1,2),(0.,
    3.695464143789E-02,8.69663567425E-02,0.209849943526,0.231437661409,
    0.309722235458,0.349783916003,0.427822745875,0.451956567697,
    0.475088471871,0.495384193591,0.546434846533,0.582157060311,
    0.626211808014,0.686724053477,0.742126460681,0.793231583023,
    0.858250833339,0.869670679168,0.938860235552,1.),.UNSPECIFIED.);
#57 = CARTESIAN_POINT('',(-0.999930161031,-5.E-02));
#58 = CARTESIAN_POINT('',(-0.926041487409,-4.605897403751E-02));
#59 = CARTESIAN_POINT('',(-0.825904403904,-4.640339597064E-02));
#60 = CARTESIAN_POINT('',(-0.579872312109,-4.919114319316E-02));
#61 = CARTESIAN_POINT('',(-0.536995217366,-5.466231912143E-02));
#62 = CARTESIAN_POINT('',(-0.38029095804,-5.096042553234E-02));
#63 = CARTESIAN_POINT('',(-0.300146894909,-5.4330232216E-02));
#64 = CARTESIAN_POINT('',(-0.143896262841,-5.304360915613E-02));
#65 = CARTESIAN_POINT('',(-9.569112825369E-02,-4.967381601555E-02));
#66 = CARTESIAN_POINT('',(-4.948334798021E-02,-5.284763449252E-02));
#67 = CARTESIAN_POINT('',(-9.57578410365E-03,-4.517836783977E-02));
#68 = CARTESIAN_POINT('',(9.263806217672E-02,-4.609143996766E-02));
#69 = CARTESIAN_POINT('',(0.163800496185,-5.329428614883E-02));
#70 = CARTESIAN_POINT('',(0.252010026061,-5.296817088325E-02));
#71 = CARTESIAN_POINT('',(0.373041327817,-4.732640741966E-02));
#72 = CARTESIAN_POINT('',(0.483932633365,-5.030769590599E-02));
#73 = CARTESIAN_POINT('',(0.586256854352,-5.1060158207E-02));
#74 = CARTESIAN_POINT('',(0.716417572371,-5.367738953776E-02));
#75 = CARTESIAN_POINT('',(0.7391297022,-5.103107157339E-02));
#76 = CARTESIAN_POINT('',(0.877653766276,-4.912571569274E-02));
#77 = CARTESIAN_POINT('',(1.000069838969,-5.E-02));
#78 = ( GEOMETRIC_REPRESENTATION_CONTEXT(2) 
PARAMETRIC_REPRESENTATION_CONTEXT() REPRESENTATION_CONTEXT('2D SPACE',''
  ) );
#79 = ORIENTED_EDGE('',*,*,#80,.T.);
#80 = EDGE_CURVE('',#24,#81,#83,.T.);
#81 = VERTEX_POINT('',#82);
#82 = CARTESIAN_POINT('',(2.,0.1,0.));
#83 = SURFACE_CURVE('',#84,(#88),.PCURVE_S1.);
#84 = LINE('',#85,#86);
#85 = CARTESIAN_POINT('',(2.,-0.,0.));
#86 = VECTOR('',#87,1.);
#87 = DIRECTION('',(0.,1.,0.));
#88 = PCURVE('',#50,#89);
#89 = DEFINITIONAL_REPRESENTATION('',(#90),#94);
#90 = LINE('',#91,#92);
#91 = CARTESIAN_POINT('',(1.000069838969,-5.E-02));
#92 = VECTOR('',#93,1.);
#93 = DIRECTION('',(0.,1.));
#94 = ( GEOMETRIC_REPRESENTATION_CONTEXT(2) 
PARAMETRIC_REPRESENTATION_CONTEXT() REPRESENTATION_CONTEXT('2D SPACE',''
  ) );
#95 = ORIENTED_EDGE('',*,*,#96,.T.);
#96 = EDGE_CURVE('',#81,#97,#99,.T.);
#97 = VERTEX_POINT('',#98);
#98 = CARTESIAN_POINT('',(0.,0.1,0.));
#99 = SURFACE_CURVE('',#100,(#122),.PCURVE_S1.);
#100 = B_SPLINE_CURVE_WITH_KNOTS('',1,(#101,#102,#103,#104,#105,#106,
    #107,#108,#109,#110,#111,#112,#113,#114,#115,#116,#117,#118,#119,
    #120,#121),.UNSPECIFIED.,.F.,.F.,(2,1,1,1,1,1,1,1,1,1,1,1,1,1,1,1,1,
    1,1,1,2),(0.,6.113976444845E-02,0.130329320832,0.141749166661,
    0.206768416977,0.257873539319,0.313275946523,0.373788191986,
    0.417842939689,0.453565153467,0.504615806409,0.524911528129,
    0.548043432303,0.572177254125,0.650216083997,0.690277764542,
    0.768562338591,0.790150056474,0.913033643257,0.963045358562,1.),
  .UNSPECIFIED.);
#101 = CARTESIAN_POINT('',(2.,0.1,0.));
#102 = CARTESIAN_POINT('',(1.877583927306,9.912571569274E-02,0.));
#103 = CARTESIAN_POINT('',(1.73905986323,0.101031071573,0.));
#104 = CARTESIAN_POINT('',(1.716347733401,0.103677389538,0.));
#105 = CARTESIAN_POINT('',(1.586187015383,0.101060158207,0.));
#106 = CARTESIAN_POINT('',(1.483862794395,0.100307695906,0.));
#107 = CARTESIAN_POINT('',(1.372971488848,9.732640741966E-02,0.));
#108 = CARTESIAN_POINT('',(1.251940187091,0.102968170883,0.));
#109 = CARTESIAN_POINT('',(1.163730657215,0.103294286149,0.));
#110 = CARTESIAN_POINT('',(1.092568223207,9.609143996766E-02,0.));
#111 = CARTESIAN_POINT('',(0.990354376927,9.517836783977E-02,0.));
#112 = CARTESIAN_POINT('',(0.95044681305,0.102847634493,0.));
#113 = CARTESIAN_POINT('',(0.904239032777,9.967381601555E-02,0.));
#114 = CARTESIAN_POINT('',(0.85603389819,0.103043609156,0.));
#115 = CARTESIAN_POINT('',(0.699783266122,0.104330232216,0.));
#116 = CARTESIAN_POINT('',(0.61963920299,0.100960425532,0.));
#117 = CARTESIAN_POINT('',(0.462934943665,0.104662319121,0.));
#118 = CARTESIAN_POINT('',(0.420057848921,9.919114319316E-02,0.));
#119 = CARTESIAN_POINT('',(0.174025757127,9.640339597064E-02,0.));
#120 = CARTESIAN_POINT('',(7.38886736211E-02,9.605897403751E-02,0.));
#121 = CARTESIAN_POINT('',(0.,0.1,0.));
#122 = PCURVE('',#50,#123);
#123 = DEFINITIONAL_REPRESENTATION('',(#124),#146);
#124 = B_SPLINE_CURVE_WITH_KNOTS('',1,(#125,#126,#127,#128,#129,#130,
    #131,#132,#133,#134,#135,#136,#137,#138,#139,#140,#141,#142,#143,
    #144,#145),.UNSPECIFIED.,.F.,.F.,(2,1,1,1,1,1,1,1,1,1,1,1,1,1,1,1,1,
    1,1,1,2),(0.,6.113976444845E-02,0.130329320832,0.141749166661,
    0.206768416977,0.257873539319,0.313275946523,0.373788191986,
    0.417842939689,0.453565153467,0.504615806409,0.524911528129,
    0.548043432303,0.572177254125,0.650216083997,0.690277764542,
    0.768562338591,0.790150056474,0.913033643257,0.963045358562,1.),
  .UNSPECIFIED.);
#125 = CARTESIAN_POINT('',(1.000069838969,5.E-02));
#126 = CARTESIAN_POINT('',(0.877653766276,4.912571569274E-02));
#127 = CARTESIAN_POINT('',(0.7391297022,5.103107157339E-02));
#128 = CARTESIAN_POINT('',(0.716417572371,5.367738953776E-02));
#129 = CARTESIAN_POINT('',(0.586256854352,5.1060158207E-02));
#130 = CARTESIAN_POINT('',(0.483932633365,5.030769590599E-02));
#131 = CARTESIAN_POINT('',(0.373041327817,4.732640741966E-02));
#132 = CARTESIAN_POINT('',(0.252010026061,5.296817088325E-02));
#133 = CARTESIAN_POINT('',(0.163800496185,5.329428614883E-02));
#134 = CARTESIAN_POINT('',(9.263806217672E-02,4.609143996766E-02));
#135 = CARTESIAN_POINT('',(-9.57578410365E-03,4.517836783977E-02));
#136 = CARTESIAN_POINT('',(-4.948334798021E-02,5.284763449252E-02));
#137 = CARTESIAN_POINT('',(-9.569112825369E-02,4.967381601555E-02));
#138 = CARTESIAN_POINT('',(-0.143896262841,5.304360915613E-02));
#139 = CARTESIAN_POINT('',(-0.300146894909,5.4330232216E-02));
#140 = CARTESIAN_POINT('',(-0.38029095804,5.096042553234E-02));
#141 = CARTESIAN_POINT('',(-0.536995217366,5.466231912143E-02));
#142 = CARTESIAN_POINT('',(-0.579872312109,4.919114319316E-02));
#143 = CARTESIAN_POINT('',(-0.825904403904,4.640339597064E-02));
#144 = CARTESIAN_POINT('',(-0.926041487409,4.605897403751E-02));
#145 = CARTESIAN_POINT('',(-0.999930161031,5.E-02));
#146 = ( GEOMETRIC_REPRESENTATION_CONTEXT(2) 
PARAMETRIC_REPRESENTATION_CONTEXT() REPRESENTATION_CONTEXT('2D SPACE',''
  ) );
#147 = ORIENTED_EDGE('',*,*,#148,.T.);
#148 = EDGE_CURVE('',#97,#22,#149,.T.);
#149 = SURFACE_CURVE('',#150,(#154),.PCURVE_S1.);
#150 = LINE('',#151,#152);
#151 = CARTESIAN_POINT('',(0.,0.1,0.));
#152 = VECTOR('',#153,1.);
#153 = DIRECTION('',(0.,-1.,0.));
#154 = PCURVE('',#50,#155);
#155 = DEFINITIONAL_REPRESENTATION('',(#156),#160);
#156 = LINE('',#157,#158);
#157 = CARTESIAN_POINT('',(-0.999930161031,5.E-02));
#158 = VECTOR('',#159,1.);
#159 = DIRECTION('',(0.,-1.));
#160 = ( GEOMETRIC_REPRESENTATION_CONTEXT(2) 
PARAMETRIC_REPRESENTATION_CONTEXT() REPRESENTATION_CONTEXT('2D SPACE',''
  ) );
#161 = ( GEOMETRIC_REPRESENTATION_CONTEXT(3) 
GLOBAL_UNCERTAINTY_ASSIGNED_CONTEXT((#165)) GLOBAL_UNIT_ASSIGNED_CONTEXT
((#162,#163,#164)) REPRESENTATION_CONTEXT('Context #1',
  '3D Context with UNIT and UNCERTAINTY') );
#162 = ( LENGTH_UNIT() NAMED_UNIT(*) SI_UNIT(.MILLI.,.METRE.) );
#163 = ( NAMED_UNIT(*) PLANE_ANGLE_UNIT() SI_UNIT($,.RADIAN.) );
#164 = ( NAMED_UNIT(*) SI_UNIT($,.STERADIAN.) SOLID_ANGLE_UNIT() );
#165 = UNCERTAINTY_MEASURE_WITH_UNIT(LENGTH_MEASURE(1.E-07),#162,
  'distance_accuracy_value','confusion accuracy');
#166 = PRODUCT_RELATED_PRODUCT_CATEGORY('part',$,(#7));
ENDSEC;
END-ISO-10303-21;
