ISO-10303-21;
HEADER;
FILE_DESCRIPTION(('Open CASCADE Model'),'2;1');
FILE_NAME('Open CASCADE Shape Model','2026-07-23T16:45:03',('Author'),(
    'Open CASCADE'),'Open CASCADE STEP processor 7.9','Open CASCADE 7.9'
  ,'Unknown');
FILE_SCHEMA(('AUTOMOTIVE_DESIGN { 1 0 10303 214 1 1 1 1 }'));
ENDSEC;
DATA;
#1 = APPLICATION_PROTOCOL_DEFINITION('international standard',
  'automotive_design',2000,#2);
#2 = APPLICATION_CONTEXT(
  'core data for automotive mechanical design processes');
#3 = SHAPE_DEFINITION_REPRESENTATION(#4,#10);
#4 = PRODUCT_DEFINITION_SHAPE('','',#5);
#5 = PRODUCT_DEFINITION('design','',#6,#9);
#6 = PRODUCT_DEFINITION_FORMATION('','',#7);
#7 = PRODUCT('Open CASCADE STEP translator 7.9 16',
  'Open CASCADE STEP translator 7.9 16','',(#8));
#8 = PRODUCT_CONTEXT('',#2,'mechanical');
#9 = PRODUCT_DEFINITION_CONTEXT('part definition',#2,'design');
#10 = MANIFOLD_SURFACE_SHAPE_REPRESENTATION('',(#11,#15),#161);
#11 = AXIS2_PLACEMENT_3D('',#12,#13,#14);
#12 = CARTESIAN_POINT('',(0.,0.,0.));
#13 = DIRECTION('',(0.,0.,1.));
#14 = DIRECTION('',(1.,0.,-0.));
#15 = SHELL_BASED_SURFACE_MODEL('',(#16));
#16 = OPEN_SHELL('',(#17));
#17 = ADVANCED_FACE('',(#18),#50,.T.);
#18 = FACE_BOUND('',#19,.T.);
#19 = EDGE_LOOP('',(#20,#79,#95,#147));
#20 = ORIENTED_EDGE('',*,*,#21,.T.);
#21 = EDGE_CURVE('',#22,#24,#26,.T.);
#22 = VERTEX_POINT('',#23);
#23 = CARTESIAN_POINT('',(0.,0.,0.));
#24 = VERTEX_POINT('',#25);
#25 = CARTESIAN_POINT('',(1.,0.,0.));
#26 = SURFACE_CURVE('',#27,(#49),.PCURVE_S1.);
#27 = B_SPLINE_CURVE_WITH_KNOTS('',1,(#28,#29,#30,#31,#32,#33,#34,#35,
    #36,#37,#38,#39,#40,#41,#42,#43,#44,#45,#46,#47,#48),.UNSPECIFIED.,
  .F.,.F.,(2,1,1,1,1,1,1,1,1,1,1,1,1,1,1,1,1,1,1,1,2),(0.,
    2.39481582238E-02,9.493860986717E-02,0.107874853437,0.155625924946,
    0.167582518698,0.281487676674,0.301378751716,0.320870557729,
    0.373149747412,0.470794742094,0.604492959117,0.668203557671,
    0.745490263377,0.798030487377,0.816016775195,0.87124659979,
    0.88783358603,0.936295734686,0.976095438567,1.),.UNSPECIFIED.);
#28 = CARTESIAN_POINT('',(0.,-0.,0.));
#29 = CARTESIAN_POINT('',(2.394851544238E-02,-1.395632712371E-03,0.));
#30 = CARTESIAN_POINT('',(9.496252844252E-02,2.335366824992E-03,0.));
#31 = CARTESIAN_POINT('',(0.107858829396,3.60231589046E-03,0.));
#32 = CARTESIAN_POINT('',(0.155571983505,2.212272597625E-04,0.));
#33 = CARTESIAN_POINT('',(0.167533504025,8.311063140512E-04,0.));
#34 = CARTESIAN_POINT('',(0.281618730078,2.674300594711E-03,0.));
#35 = CARTESIAN_POINT('',(0.301498103229,1.324881898849E-03,0.));
#36 = CARTESIAN_POINT('',(0.321023267632,1.336075501738E-03,0.));
#37 = CARTESIAN_POINT('',(0.373390492274,1.725044355875E-03,0.));
#38 = CARTESIAN_POINT('',(0.471201232662,1.205359202731E-03,0.));
#39 = CARTESIAN_POINT('',(0.605093257344,-1.857433454559E-03,0.));
#40 = CARTESIAN_POINT('',(0.668794318414,2.031235254287E-03,0.));
#41 = CARTESIAN_POINT('',(0.745938285256,-4.488579267153E-03,0.));
#42 = CARTESIAN_POINT('',(0.798567431462,-4.163480195382E-03,0.));
#43 = CARTESIAN_POINT('',(0.816050403637,1.908957169992E-04,0.));
#44 = CARTESIAN_POINT('',(0.871353722302,1.716387949953E-03,0.));
#45 = CARTESIAN_POINT('',(0.887839557854,-3.543478983E-04,0.));
#46 = CARTESIAN_POINT('',(0.936283561422,-3.485604887736E-03,0.));
#47 = CARTESIAN_POINT('',(0.976103190164,-1.525873405601E-03,0.));
#48 = CARTESIAN_POINT('',(1.,-0.,0.));
#49 = PCURVE('',#50,#55);
#50 = PLANE('',#51);
#51 = AXIS2_PLACEMENT_3D('',#52,#53,#54);
#52 = CARTESIAN_POINT('',(0.50022040055,2.5E-02,0.));
#53 = DIRECTION('',(0.,0.,1.));
#54 = DIRECTION('',(1.,0.,-0.));
#55 = DEFINITIONAL_REPRESENTATION('',(#56),#78);
#56 = B_SPLINE_CURVE_WITH_KNOTS('',1,(#57,#58,#59,#60,#61,#62,#63,#64,
    #65,#66,#67,#68,#69,#70,#71,#72,#73,#74,#75,#76,#77),.UNSPECIFIED.,
  .F.,.F.,(2,1,1,1,1,1,1,1,1,1,1,1,1,1,1,1,1,1,1,1,2),(0.,
    2.39481582238E-02,9.493860986717E-02,0.107874853437,0.155625924946,
    0.167582518698,0.281487676674,0.301378751716,0.320870557729,
    0.373149747412,0.470794742094,0.604492959117,0.668203557671,
    0.745490263377,0.798030487377,0.816016775195,0.87124659979,
    0.88783358603,0.936295734686,0.976095438567,1.),.UNSPECIFIED.);
#57 = CARTESIAN_POINT('',(-0.50022040055,-2.5E-02));
#58 = CARTESIAN_POINT('',(-0.476271885107,-2.639563271237E-02));
#59 = CARTESIAN_POINT('',(-0.405257872107,-2.266463317501E-02));
#60 = CARTESIAN_POINT('',(-0.392361571154,-2.139768410954E-02));
#61 = CARTESIAN_POINT('',(-0.344648417045,-2.477877274024E-02));
#62 = CARTESIAN_POINT('',(-0.332686896524,-2.416889368595E-02));
#63 = CARTESIAN_POINT('',(-0.218601670472,-2.232569940529E-02));
#64 = CARTESIAN_POINT('',(-0.198722297321,-2.367511810115E-02));
#65 = CARTESIAN_POINT('',(-0.179197132918,-2.366392449826E-02));
#66 = CARTESIAN_POINT('',(-0.126829908276,-2.327495564413E-02));
#67 = CARTESIAN_POINT('',(-2.901916788738E-02,-2.379464079727E-02));
#68 = CARTESIAN_POINT('',(0.104872856795,-2.685743345456E-02));
#69 = CARTESIAN_POINT('',(0.168573917864,-2.296876474571E-02));
#70 = CARTESIAN_POINT('',(0.245717884706,-2.948857926715E-02));
#71 = CARTESIAN_POINT('',(0.298347030913,-2.916348019538E-02));
#72 = CARTESIAN_POINT('',(0.315830003088,-2.4809104283E-02));
#73 = CARTESIAN_POINT('',(0.371133321753,-2.328361205005E-02));
#74 = CARTESIAN_POINT('',(0.387619157304,-2.53543478983E-02));
#75 = CARTESIAN_POINT('',(0.436063160872,-2.848560488774E-02));
#76 = CARTESIAN_POINT('',(0.475882789615,-2.65258734056E-02));
#77 = CARTESIAN_POINT('',(0.49977959945,-2.5E-02));
#78 = ( GEOMETRIC_REPRESENTATION_CONTEXT(2) 
PARAMETRIC_REPRESENTATION_CONTEXT() REPRESENTATION_CONTEXT('2D SPACE',''
  ) );
#79 = ORIENTED_EDGE('',*,*,#80,.T.);
#80 = EDGE_CURVE('',#24,#81,#83,.T.);
#81 = VERTEX_POINT('',#82);
#82 = CARTESIAN_POINT('',(1.,5.E-02,0.));
#83 = SURFACE_CURVE('',#84,(#88),.PCURVE_S1.);
#84 = LINE('',#85,#86);
#85 = CARTESIAN_POINT('',(1.,-0.,0.));
#86 = VECTOR('',#87,1.);
#87 = DIRECTION('',(0.,1.,0.));
#88 = PCURVE('',#50,#89);
#89 = DEFINITIONAL_REPRESENTATION('',(#90),#94);
#90 = LINE('',#91,#92);
#91 = CARTESIAN_POINT('',(0.49977959945,-2.5E-02));
#92 = VECTOR('',#93,1.);
#93 = DIRECTION('',(0.,1.));
#94 = ( GEOMETRIC_REPRESENTATION_CONTEXT(2) 
PARAMETRIC_REPRESENTATION_CONTEXT() REPRESENTATION_CONTEXT('2D SPACE',''
  ) );
#95 = ORIENTED_EDGE('',*,*,#96,.T.);
#96 = EDGE_CURVE('',#81,#97,#99,.T.);
#97 = VERTEX_POINT('',#98);
#98 = CARTESIAN_POINT('',(0.,5.E-02,0.));
#99 = SURFACE_CURVE('',#100,(#122),.PCURVE_S1.);
#100 = B_SPLINE_CURVE_WITH_KNOTS('',1,(#101,#102,#103,#104,#105,#106,
    #107,#108,#109,#110,#111,#112,#113,#114,#115,#116,#117,#118,#119,
    #120,#121),.UNSPECIFIED.,.F.,.F.,(2,1,1,1,1,1,1,1,1,1,1,1,1,1,1,1,1,
    1,1,1,2),(0.,2.390456143257E-02,6.370426531361E-02,0.11216641397,
    0.12875340021,0.183983224805,0.201969512623,0.254509736623,
    0.331796442329,0.395507040883,0.529205257906,0.626850252588,
    0.679129442271,0.698621248284,0.718512323326,0.832417481302,
    0.844374075054,0.892125146563,0.905061390133,0.976051841776,1.),
  .UNSPECIFIED.);
#101 = CARTESIAN_POINT('',(1.,5.E-02,0.));
#102 = CARTESIAN_POINT('',(0.976103190164,5.15258734056E-02,0.));
#103 = CARTESIAN_POINT('',(0.936283561422,5.348560488774E-02,0.));
#104 = CARTESIAN_POINT('',(0.887839557854,5.03543478983E-02,0.));
#105 = CARTESIAN_POINT('',(0.871353722302,4.828361205005E-02,0.));
#106 = CARTESIAN_POINT('',(0.816050403637,4.9809104283E-02,0.));
#107 = CARTESIAN_POINT('',(0.798567431462,5.416348019538E-02,0.));
#108 = CARTESIAN_POINT('',(0.745938285256,5.448857926715E-02,0.));
#109 = CARTESIAN_POINT('',(0.668794318414,4.796876474571E-02,0.));
#110 = CARTESIAN_POINT('',(0.605093257344,5.185743345456E-02,0.));
#111 = CARTESIAN_POINT('',(0.471201232662,4.879464079727E-02,0.));
#112 = CARTESIAN_POINT('',(0.373390492274,4.827495564413E-02,0.));
#113 = CARTESIAN_POINT('',(0.321023267632,4.866392449826E-02,0.));
#114 = CARTESIAN_POINT('',(0.301498103229,4.867511810115E-02,0.));
#115 = CARTESIAN_POINT('',(0.281618730078,4.732569940529E-02,0.));
#116 = CARTESIAN_POINT('',(0.167533504025,4.916889368595E-02,0.));
#117 = CARTESIAN_POINT('',(0.155571983505,4.977877274024E-02,0.));
#118 = CARTESIAN_POINT('',(0.107858829396,4.639768410954E-02,0.));
#119 = CARTESIAN_POINT('',(9.496252844252E-02,4.766463317501E-02,0.));
#120 = CARTESIAN_POINT('',(2.394851544238E-02,5.139563271237E-02,0.));
#121 = CARTESIAN_POINT('',(0.,5.E-02,0.));
#122 = PCURVE('',#50,#123);
#123 = DEFINITIONAL_REPRESENTATION('',(#124),#146);
#124 = B_SPLINE_CURVE_WITH_KNOTS('',1,(#125,#126,#127,#128,#129,#130,
    #131,#132,#133,#134,#135,#136,#137,#138,#139,#140,#141,#142,#143,
    #144,#145),.UNSPECIFIED.,.F.,.F.,(2,1,1,1,1,1,1,1,1,1,1,1,1,1,1,1,1,
    1,1,1,2),(0.,2.390456143257E-02,6.370426531361E-02,0.11216641397,
    0.12875340021,0.183983224805,0.201969512623,0.254509736623,
    0.331796442329,0.395507040883,0.529205257906,0.626850252588,
    0.679129442271,0.698621248284,0.718512323326,0.832417481302,
    0.844374075054,0.892125146563,0.905061390133,0.976051841776,1.),
  .UNSPECIFIED.);
#125 = CARTESIAN_POINT('',(0.49977959945,2.5E-02));
#126 = CARTESIAN_POINT('',(0.475882789615,2.65258734056E-02));
#127 = CARTESIAN_POINT('',(0.436063160872,2.848560488774E-02));
#128 = CARTESIAN_POINT('',(0.387619157304,2.53543478983E-02));
#129 = CARTESIAN_POINT('',(0.371133321753,2.328361205005E-02));
#130 = CARTESIAN_POINT('',(0.315830003088,2.4809104283E-02));
#131 = CARTESIAN_POINT('',(0.298347030913,2.916348019538E-02));
#132 = CARTESIAN_POINT('',(0.245717884706,2.948857926715E-02));
#133 = CARTESIAN_POINT('',(0.168573917864,2.296876474571E-02));
#134 = CARTESIAN_POINT('',(0.104872856795,2.685743345456E-02));
#135 = CARTESIAN_POINT('',(-2.901916788738E-02,2.379464079727E-02));
#136 = CARTESIAN_POINT('',(-0.126829908276,2.327495564413E-02));
#137 = CARTESIAN_POINT('',(-0.179197132918,2.366392449826E-02));
#138 = CARTESIAN_POINT('',(-0.198722297321,2.367511810115E-02));
#139 = CARTESIAN_POINT('',(-0.218601670472,2.232569940529E-02));
#140 = CARTESIAN_POINT('',(-0.332686896524,2.416889368595E-02));
#141 = CARTESIAN_POINT('',(-0.344648417045,2.477877274024E-02));
#142 = CARTESIAN_POINT('',(-0.392361571154,2.139768410954E-02));
#143 = CARTESIAN_POINT('',(-0.405257872107,2.266463317501E-02));
#144 = CARTESIAN_POINT('',(-0.476271885107,2.639563271237E-02));
#145 = CARTESIAN_POINT('',(-0.50022040055,2.5E-02));
#146 = ( GEOMETRIC_REPRESENTATION_CONTEXT(2) 
PARAMETRIC_REPRESENTATION_CONTEXT() REPRESENTATION_CONTEXT('2D SPACE',''
  ) );
#147 = ORIENTED_EDGE('',*,*,#148,.T.);
#148 = EDGE_CURVE('',#97,#22,#149,.T.);
#149 = SURFACE_CURVE('',#150,(#154),.PCURVE_S1.);
#150 = LINE('',#151,#152);
#151 = CARTESIAN_POINT('',(0.,5.E-02,0.));
#152 = VECTOR('',#153,1.);
#153 = DIRECTION('',(0.,-1.,0.));
#154 = PCURVE('',#50,#155);
#155 = DEFINITIONAL_REPRESENTATION('',(#156),#160);
#156 = LINE('',#157,#158);
#157 = CARTESIAN_POINT('',(-0.50022040055,2.5E-02));
#158 = VECTOR('',#159,1.);
#159 = DIRECTION('',(0.,-1.));
#160 = ( GEOMETRIC_REPRESENTATION_CONTEXT(2) 
PARAMETRIC_REPRESENTATION_CONTEXT() REPRESENTATION_CONTEXT('2D SPACE',''
  ) );
#161 = ( GEOMETRIC_REPRESENTATION_CONTEXT(3) 
GLOBAL_UNCERTAINTY_ASSIGNED_CONTEXT((#165)) GLOBAL_UNIT_ASSIGNED_CONTEXT
((#162,#163,#164)) REPRESENTATION_CONTEXT('Context #1',
  '3D Context with UNIT and UNCERTAINTY') );
#162 = ( LENGTH_UNIT() NAMED_UNIT(*) SI_UNIT(.MILLI.,.METRE.) );
#163 = ( NAMED_UNIT(*) PLANE_ANGLE_UNIT() SI_UNIT($,.RADIAN.) );
#164 = ( NAMED_UNIT(*) SI_UNIT($,.STERADIAN.) SOLID_ANGLE_UNIT() );
#165 = UNCERTAINTY_MEASURE_WITH_UNIT(LENGTH_MEASURE(1.E-07),#162,
  'distance_accuracy_value','confusion accuracy');
#166 = PRODUCT_RELATED_PRODUCT_CATEGORY('part',$,(#7));
ENDSEC;
END-ISO-10303-21;
