ISO-10303-21;
HEADER;
FILE_DESCRIPTION(('Open CASCADE Model'),'2;1');
FILE_NAME('Open CASCADE Shape Model','2026-07-21T00:13:23',('Author'),(
    'Open CASCADE'),'Open CASCADE STEP processor 7.9','Open CASCADE 7.9'
  ,'Unknown');
FILE_SCHEMA(('AUTOMOTIVE_DESIGN { 1 0 10303 214 1 1 1 1 }'));
ENDSEC;
DATA;
#1 = APPLICATION_PROTOCOL_DEFINITION('international standard',
  'automotive_design',2000,#2);
#2 = APPLICATION_CONTEXT(
  'core data for automotive mechanical design processes');
#3 = SHAPE_DEFINITION_REPRESENTATION(#4,#10);
#4 = PRODUCT_DEFINITION_SHAPE('','',#5);
#5 = PRODUCT_DEFINITION('design','',#6,#9);
#6 = PRODUCT_DEFINITION_FORMATION('','',#7);
#7 = PRODUCT('Open CASCADE STEP translator 7.9 12',
  'Open CASCADE STEP translator 7.9 12','',(#8));
#8 = PRODUCT_CONTEXT('',#2,'mechanical');
#9 = PRODUCT_DEFINITION_CONTEXT('part definition',#2,'design');
#10 = MANIFOLD_SURFACE_SHAPE_REPRESENTATION('',(#11,#15),#161);
#11 = AXIS2_PLACEMENT_3D('',#12,#13,#14);
#12 = CARTESIAN_POINT('',(0.,0.,0.));
#13 = DIRECTION('',(0.,0.,1.));
#14 = DIRECTION('',(1.,0.,-0.));
#15 = SHELL_BASED_SURFACE_MODEL('',(#16));
#16 = OPEN_SHELL('',(#17));
#17 = ADVANCED_FACE('',(#18),#50,.T.);
#18 = FACE_BOUND('',#19,.T.);
#19 = EDGE_LOOP('',(#20,#79,#95,#147));
#20 = ORIENTED_EDGE('',*,*,#21,.T.);
#21 = EDGE_CURVE('',#22,#24,#26,.T.);
#22 = VERTEX_POINT('',#23);
#23 = CARTESIAN_POINT('',(0.,0.,0.));
#24 = VERTEX_POINT('',#25);
#25 = CARTESIAN_POINT('',(2.,0.,0.));
#26 = SURFACE_CURVE('',#27,(#49),.PCURVE_S1.);
#27 = B_SPLINE_CURVE_WITH_KNOTS('',1,(#28,#29,#30,#31,#32,#33,#34,#35,
    #36,#37,#38,#39,#40,#41,#42,#43,#44,#45,#46,#47,#48),.UNSPECIFIED.,
  .F.,.F.,(2,1,1,1,1,1,1,1,1,1,1,1,1,1,1,1,1,1,1,1,2),(0.,0.104649776399
    ,0.142854117539,0.204436784419,0.226969901435,0.295113299804,
    0.362044191653,0.375551440042,0.573887160772,0.607279631955,
    0.665730565268,0.684163809927,0.728383380388,0.74869529662,
    0.814730449394,0.84078734484,0.877874776194,0.906182538107,
    0.942365244687,0.968724483658,1.),.UNSPECIFIED.);
#28 = CARTESIAN_POINT('',(0.,-0.,0.));
#29 = CARTESIAN_POINT('',(0.209630242494,4.783879201197E-03,0.));
#30 = CARTESIAN_POINT('',(0.285755462943,-3.262919241944E-03,0.));
#31 = CARTESIAN_POINT('',(0.409145535072,-3.961607718398E-03,0.));
#32 = CARTESIAN_POINT('',(0.453657433261,3.597509110014E-03,0.));
#33 = CARTESIAN_POINT('',(0.590132384865,-5.403614353905E-04,0.));
#34 = CARTESIAN_POINT('',(0.724166570954,3.914242588646E-03,0.));
#35 = CARTESIAN_POINT('',(0.750637318089,-1.722400930398E-03,0.));
#36 = CARTESIAN_POINT('',(1.148019696034,2.18766216161E-03,0.));
#37 = CARTESIAN_POINT('',(1.214820603838,-1.594226346919E-03,0.));
#38 = CARTESIAN_POINT('',(1.331935708148,-2.269946142869E-03,0.));
#39 = CARTESIAN_POINT('',(1.368867710644,-2.686474919177E-03,0.));
#40 = CARTESIAN_POINT('',(1.457222807695,3.922590540441E-03,0.));
#41 = CARTESIAN_POINT('',(1.497110734849,-4.160118451376E-03,0.));
#42 = CARTESIAN_POINT('',(1.629246300152,2.697860091051E-03,0.));
#43 = CARTESIAN_POINT('',(1.681420408206,4.625874438238E-03,0.));
#44 = CARTESIAN_POINT('',(1.755551439279,-5.485246939148E-04,0.));
#45 = CARTESIAN_POINT('',(1.812241347897,1.290777161376E-03,0.));
#46 = CARTESIAN_POINT('',(1.8845946058,-3.297897431324E-03,0.));
#47 = CARTESIAN_POINT('',(1.937409686072,-3.082514720643E-03,0.));
#48 = CARTESIAN_POINT('',(2.,-0.,0.));
#49 = PCURVE('',#50,#55);
#50 = PLANE('',#51);
#51 = AXIS2_PLACEMENT_3D('',#52,#53,#54);
#52 = CARTESIAN_POINT('',(1.000018769855,5.E-02,0.));
#53 = DIRECTION('',(0.,0.,1.));
#54 = DIRECTION('',(1.,0.,-0.));
#55 = DEFINITIONAL_REPRESENTATION('',(#56),#78);
#56 = B_SPLINE_CURVE_WITH_KNOTS('',1,(#57,#58,#59,#60,#61,#62,#63,#64,
    #65,#66,#67,#68,#69,#70,#71,#72,#73,#74,#75,#76,#77),.UNSPECIFIED.,
  .F.,.F.,(2,1,1,1,1,1,1,1,1,1,1,1,1,1,1,1,1,1,1,1,2),(0.,0.104649776399
    ,0.142854117539,0.204436784419,0.226969901435,0.295113299804,
    0.362044191653,0.375551440042,0.573887160772,0.607279631955,
    0.665730565268,0.684163809927,0.728383380388,0.74869529662,
    0.814730449394,0.84078734484,0.877874776194,0.906182538107,
    0.942365244687,0.968724483658,1.),.UNSPECIFIED.);
#57 = CARTESIAN_POINT('',(-1.000018769855,-5.E-02));
#58 = CARTESIAN_POINT('',(-0.79038852736,-4.52161207988E-02));
#59 = CARTESIAN_POINT('',(-0.714263306912,-5.326291924194E-02));
#60 = CARTESIAN_POINT('',(-0.590873234783,-5.39616077184E-02));
#61 = CARTESIAN_POINT('',(-0.546361336593,-4.640249088999E-02));
#62 = CARTESIAN_POINT('',(-0.40988638499,-5.054036143539E-02));
#63 = CARTESIAN_POINT('',(-0.275852198901,-4.608575741135E-02));
#64 = CARTESIAN_POINT('',(-0.249381451766,-5.17224009304E-02));
#65 = CARTESIAN_POINT('',(0.148000926179,-4.781233783839E-02));
#66 = CARTESIAN_POINT('',(0.214801833984,-5.159422634692E-02));
#67 = CARTESIAN_POINT('',(0.331916938293,-5.226994614287E-02));
#68 = CARTESIAN_POINT('',(0.368848940789,-5.268647491918E-02));
#69 = CARTESIAN_POINT('',(0.45720403784,-4.607740945956E-02));
#70 = CARTESIAN_POINT('',(0.497091964994,-5.416011845138E-02));
#71 = CARTESIAN_POINT('',(0.629227530297,-4.730213990895E-02));
#72 = CARTESIAN_POINT('',(0.681401638351,-4.537412556176E-02));
#73 = CARTESIAN_POINT('',(0.755532669424,-5.054852469391E-02));
#74 = CARTESIAN_POINT('',(0.812222578042,-4.870922283862E-02));
#75 = CARTESIAN_POINT('',(0.884575835945,-5.329789743132E-02));
#76 = CARTESIAN_POINT('',(0.937390916217,-5.308251472064E-02));
#77 = CARTESIAN_POINT('',(0.999981230145,-5.E-02));
#78 = ( GEOMETRIC_REPRESENTATION_CONTEXT(2) 
PARAMETRIC_REPRESENTATION_CONTEXT() REPRESENTATION_CONTEXT('2D SPACE',''
  ) );
#79 = ORIENTED_EDGE('',*,*,#80,.T.);
#80 = EDGE_CURVE('',#24,#81,#83,.T.);
#81 = VERTEX_POINT('',#82);
#82 = CARTESIAN_POINT('',(2.,0.1,0.));
#83 = SURFACE_CURVE('',#84,(#88),.PCURVE_S1.);
#84 = LINE('',#85,#86);
#85 = CARTESIAN_POINT('',(2.,-0.,0.));
#86 = VECTOR('',#87,1.);
#87 = DIRECTION('',(0.,1.,0.));
#88 = PCURVE('',#50,#89);
#89 = DEFINITIONAL_REPRESENTATION('',(#90),#94);
#90 = LINE('',#91,#92);
#91 = CARTESIAN_POINT('',(0.999981230145,-5.E-02));
#92 = VECTOR('',#93,1.);
#93 = DIRECTION('',(0.,1.));
#94 = ( GEOMETRIC_REPRESENTATION_CONTEXT(2) 
PARAMETRIC_REPRESENTATION_CONTEXT() REPRESENTATION_CONTEXT('2D SPACE',''
  ) );
#95 = ORIENTED_EDGE('',*,*,#96,.T.);
#96 = EDGE_CURVE('',#81,#97,#99,.T.);
#97 = VERTEX_POINT('',#98);
#98 = CARTESIAN_POINT('',(0.,0.1,0.));
#99 = SURFACE_CURVE('',#100,(#122),.PCURVE_S1.);
#100 = B_SPLINE_CURVE_WITH_KNOTS('',1,(#101,#102,#103,#104,#105,#106,
    #107,#108,#109,#110,#111,#112,#113,#114,#115,#116,#117,#118,#119,
    #120,#121),.UNSPECIFIED.,.F.,.F.,(2,1,1,1,1,1,1,1,1,1,1,1,1,1,1,1,1,
    1,1,1,2),(0.,3.127551634163E-02,5.763475531337E-02,
    9.381746189264E-02,0.122125223806,0.15921265516,0.185269550606,
    0.25130470338,0.271616619612,0.315836190073,0.334269434732,
    0.392720368045,0.426112839228,0.624448559958,0.637955808347,
    0.704886700196,0.773030098565,0.795563215581,0.857145882461,
    0.895350223601,1.),.UNSPECIFIED.);
#101 = CARTESIAN_POINT('',(2.,0.1,0.));
#102 = CARTESIAN_POINT('',(1.937409686072,0.103082514721,0.));
#103 = CARTESIAN_POINT('',(1.8845946058,0.103297897431,0.));
#104 = CARTESIAN_POINT('',(1.812241347897,9.870922283862E-02,0.));
#105 = CARTESIAN_POINT('',(1.755551439279,0.100548524694,0.));
#106 = CARTESIAN_POINT('',(1.681420408206,9.537412556176E-02,0.));
#107 = CARTESIAN_POINT('',(1.629246300152,9.730213990895E-02,0.));
#108 = CARTESIAN_POINT('',(1.497110734849,0.104160118451,0.));
#109 = CARTESIAN_POINT('',(1.457222807695,9.607740945956E-02,0.));
#110 = CARTESIAN_POINT('',(1.368867710644,0.102686474919,0.));
#111 = CARTESIAN_POINT('',(1.331935708148,0.102269946143,0.));
#112 = CARTESIAN_POINT('',(1.214820603838,0.101594226347,0.));
#113 = CARTESIAN_POINT('',(1.148019696034,9.781233783839E-02,0.));
#114 = CARTESIAN_POINT('',(0.750637318089,0.10172240093,0.));
#115 = CARTESIAN_POINT('',(0.724166570954,9.608575741135E-02,0.));
#116 = CARTESIAN_POINT('',(0.590132384865,0.100540361435,0.));
#117 = CARTESIAN_POINT('',(0.453657433261,9.640249088999E-02,0.));
#118 = CARTESIAN_POINT('',(0.409145535072,0.103961607718,0.));
#119 = CARTESIAN_POINT('',(0.285755462943,0.103262919242,0.));
#120 = CARTESIAN_POINT('',(0.209630242494,9.52161207988E-02,0.));
#121 = CARTESIAN_POINT('',(0.,0.1,0.));
#122 = PCURVE('',#50,#123);
#123 = DEFINITIONAL_REPRESENTATION('',(#124),#146);
#124 = B_SPLINE_CURVE_WITH_KNOTS('',1,(#125,#126,#127,#128,#129,#130,
    #131,#132,#133,#134,#135,#136,#137,#138,#139,#140,#141,#142,#143,
    #144,#145),.UNSPECIFIED.,.F.,.F.,(2,1,1,1,1,1,1,1,1,1,1,1,1,1,1,1,1,
    1,1,1,2),(0.,3.127551634163E-02,5.763475531337E-02,
    9.381746189264E-02,0.122125223806,0.15921265516,0.185269550606,
    0.25130470338,0.271616619612,0.315836190073,0.334269434732,
    0.392720368045,0.426112839228,0.624448559958,0.637955808347,
    0.704886700196,0.773030098565,0.795563215581,0.857145882461,
    0.895350223601,1.),.UNSPECIFIED.);
#125 = CARTESIAN_POINT('',(0.999981230145,5.E-02));
#126 = CARTESIAN_POINT('',(0.937390916217,5.308251472064E-02));
#127 = CARTESIAN_POINT('',(0.884575835945,5.329789743132E-02));
#128 = CARTESIAN_POINT('',(0.812222578042,4.870922283862E-02));
#129 = CARTESIAN_POINT('',(0.755532669424,5.054852469391E-02));
#130 = CARTESIAN_POINT('',(0.681401638351,4.537412556176E-02));
#131 = CARTESIAN_POINT('',(0.629227530297,4.730213990895E-02));
#132 = CARTESIAN_POINT('',(0.497091964994,5.416011845138E-02));
#133 = CARTESIAN_POINT('',(0.45720403784,4.607740945956E-02));
#134 = CARTESIAN_POINT('',(0.368848940789,5.268647491918E-02));
#135 = CARTESIAN_POINT('',(0.331916938293,5.226994614287E-02));
#136 = CARTESIAN_POINT('',(0.214801833984,5.159422634692E-02));
#137 = CARTESIAN_POINT('',(0.148000926179,4.781233783839E-02));
#138 = CARTESIAN_POINT('',(-0.249381451766,5.17224009304E-02));
#139 = CARTESIAN_POINT('',(-0.275852198901,4.608575741135E-02));
#140 = CARTESIAN_POINT('',(-0.40988638499,5.054036143539E-02));
#141 = CARTESIAN_POINT('',(-0.546361336593,4.640249088999E-02));
#142 = CARTESIAN_POINT('',(-0.590873234783,5.39616077184E-02));
#143 = CARTESIAN_POINT('',(-0.714263306912,5.326291924194E-02));
#144 = CARTESIAN_POINT('',(-0.79038852736,4.52161207988E-02));
#145 = CARTESIAN_POINT('',(-1.000018769855,5.E-02));
#146 = ( GEOMETRIC_REPRESENTATION_CONTEXT(2) 
PARAMETRIC_REPRESENTATION_CONTEXT() REPRESENTATION_CONTEXT('2D SPACE',''
  ) );
#147 = ORIENTED_EDGE('',*,*,#148,.T.);
#148 = EDGE_CURVE('',#97,#22,#149,.T.);
#149 = SURFACE_CURVE('',#150,(#154),.PCURVE_S1.);
#150 = LINE('',#151,#152);
#151 = CARTESIAN_POINT('',(0.,0.1,0.));
#152 = VECTOR('',#153,1.);
#153 = DIRECTION('',(0.,-1.,0.));
#154 = PCURVE('',#50,#155);
#155 = DEFINITIONAL_REPRESENTATION('',(#156),#160);
#156 = LINE('',#157,#158);
#157 = CARTESIAN_POINT('',(-1.000018769855,5.E-02));
#158 = VECTOR('',#159,1.);
#159 = DIRECTION('',(0.,-1.));
#160 = ( GEOMETRIC_REPRESENTATION_CONTEXT(2) 
PARAMETRIC_REPRESENTATION_CONTEXT() REPRESENTATION_CONTEXT('2D SPACE',''
  ) );
#161 = ( GEOMETRIC_REPRESENTATION_CONTEXT(3) 
GLOBAL_UNCERTAINTY_ASSIGNED_CONTEXT((#165)) GLOBAL_UNIT_ASSIGNED_CONTEXT
((#162,#163,#164)) REPRESENTATION_CONTEXT('Context #1',
  '3D Context with UNIT and UNCERTAINTY') );
#162 = ( LENGTH_UNIT() NAMED_UNIT(*) SI_UNIT(.MILLI.,.METRE.) );
#163 = ( NAMED_UNIT(*) PLANE_ANGLE_UNIT() SI_UNIT($,.RADIAN.) );
#164 = ( NAMED_UNIT(*) SI_UNIT($,.STERADIAN.) SOLID_ANGLE_UNIT() );
#165 = UNCERTAINTY_MEASURE_WITH_UNIT(LENGTH_MEASURE(1.E-07),#162,
  'distance_accuracy_value','confusion accuracy');
#166 = PRODUCT_RELATED_PRODUCT_CATEGORY('part',$,(#7));
ENDSEC;
END-ISO-10303-21;
