ISO-10303-21;
HEADER;
FILE_DESCRIPTION(('Open CASCADE Model'),'2;1');
FILE_NAME('Open CASCADE Shape Model','2026-07-21T00:13:24',('Author'),(
    'Open CASCADE'),'Open CASCADE STEP processor 7.9','Open CASCADE 7.9'
  ,'Unknown');
FILE_SCHEMA(('AUTOMOTIVE_DESIGN { 1 0 10303 214 1 1 1 1 }'));
ENDSEC;
DATA;
#1 = APPLICATION_PROTOCOL_DEFINITION('international standard',
  'automotive_design',2000,#2);
#2 = APPLICATION_CONTEXT(
  'core data for automotive mechanical design processes');
#3 = SHAPE_DEFINITION_REPRESENTATION(#4,#10);
#4 = PRODUCT_DEFINITION_SHAPE('','',#5);
#5 = PRODUCT_DEFINITION('design','',#6,#9);
#6 = PRODUCT_DEFINITION_FORMATION('','',#7);
#7 = PRODUCT('Open CASCADE STEP translator 7.9 36',
  'Open CASCADE STEP translator 7.9 36','',(#8));
#8 = PRODUCT_CONTEXT('',#2,'mechanical');
#9 = PRODUCT_DEFINITION_CONTEXT('part definition',#2,'design');
#10 = MANIFOLD_SURFACE_SHAPE_REPRESENTATION('',(#11,#15),#161);
#11 = AXIS2_PLACEMENT_3D('',#12,#13,#14);
#12 = CARTESIAN_POINT('',(0.,0.,0.));
#13 = DIRECTION('',(0.,0.,1.));
#14 = DIRECTION('',(1.,0.,-0.));
#15 = SHELL_BASED_SURFACE_MODEL('',(#16));
#16 = OPEN_SHELL('',(#17));
#17 = ADVANCED_FACE('',(#18),#50,.T.);
#18 = FACE_BOUND('',#19,.T.);
#19 = EDGE_LOOP('',(#20,#79,#95,#147));
#20 = ORIENTED_EDGE('',*,*,#21,.T.);
#21 = EDGE_CURVE('',#22,#24,#26,.T.);
#22 = VERTEX_POINT('',#23);
#23 = CARTESIAN_POINT('',(0.,0.,0.));
#24 = VERTEX_POINT('',#25);
#25 = CARTESIAN_POINT('',(1.,0.,0.));
#26 = SURFACE_CURVE('',#27,(#49),.PCURVE_S1.);
#27 = B_SPLINE_CURVE_WITH_KNOTS('',1,(#28,#29,#30,#31,#32,#33,#34,#35,
    #36,#37,#38,#39,#40,#41,#42,#43,#44,#45,#46,#47,#48),.UNSPECIFIED.,
  .F.,.F.,(2,1,1,1,1,1,1,1,1,1,1,1,1,1,1,1,1,1,1,1,2),(0.,
    3.685067045766E-02,6.408002099249E-02,0.145260875145,0.176800749877,
    0.27471015791,0.320687354103,0.356227636883,0.383854777401,
    0.407934379998,0.426119830678,0.437369327732,0.459637843152,
    0.470203291677,0.489292906508,0.616334485721,0.713915318178,
    0.809011804879,0.833706328622,0.949336624728,1.),.UNSPECIFIED.);
#28 = CARTESIAN_POINT('',(0.,-0.,0.));
#29 = CARTESIAN_POINT('',(3.697237452784E-02,3.739736582534E-03,0.));
#30 = CARTESIAN_POINT('',(6.443048260312E-02,3.562813385445E-03,0.));
#31 = CARTESIAN_POINT('',(0.146110501779,-1.930954269297E-03,0.));
#32 = CARTESIAN_POINT('',(0.177487793598,3.270560635579E-03,0.));
#33 = CARTESIAN_POINT('',(0.276165174149,-7.292701582043E-05,0.));
#34 = CARTESIAN_POINT('',(0.32227577085,-4.917744759287E-03,0.));
#35 = CARTESIAN_POINT('',(0.356727316363,4.959923952667E-03,0.));
#36 = CARTESIAN_POINT('',(0.384586850951,4.834201981024E-03,0.));
#37 = CARTESIAN_POINT('',(0.406819235515,-4.930845819305E-03,0.));
#38 = CARTESIAN_POINT('',(0.424697205701,-8.463883413417E-04,0.));
#39 = CARTESIAN_POINT('',(0.435077005108,3.730900244815E-03,0.));
#40 = CARTESIAN_POINT('',(0.456170234411,-3.973021997541E-03,0.));
#41 = CARTESIAN_POINT('',(0.466823322,-3.803803001277E-03,0.));
#42 = CARTESIAN_POINT('',(0.485763530402,-3.620041311138E-04,0.));
#43 = CARTESIAN_POINT('',(0.6138722036,-1.217920298608E-03,0.));
#44 = CARTESIAN_POINT('',(0.712213100377,2.268128084991E-03,0.));
#45 = CARTESIAN_POINT('',(0.808084641997,4.49480303628E-03,0.));
#46 = CARTESIAN_POINT('',(0.832385585014,-9.456760889086E-04,0.));
#47 = CARTESIAN_POINT('',(0.948951177462,2.052448067972E-03,0.));
#48 = CARTESIAN_POINT('',(1.,-0.,0.));
#49 = PCURVE('',#50,#55);
#50 = PLANE('',#51);
#51 = AXIS2_PLACEMENT_3D('',#52,#53,#54);
#52 = CARTESIAN_POINT('',(0.499318354268,5.E-02,0.));
#53 = DIRECTION('',(0.,0.,1.));
#54 = DIRECTION('',(1.,0.,-0.));
#55 = DEFINITIONAL_REPRESENTATION('',(#56),#78);
#56 = B_SPLINE_CURVE_WITH_KNOTS('',1,(#57,#58,#59,#60,#61,#62,#63,#64,
    #65,#66,#67,#68,#69,#70,#71,#72,#73,#74,#75,#76,#77),.UNSPECIFIED.,
  .F.,.F.,(2,1,1,1,1,1,1,1,1,1,1,1,1,1,1,1,1,1,1,1,2),(0.,
    3.685067045766E-02,6.408002099249E-02,0.145260875145,0.176800749877,
    0.27471015791,0.320687354103,0.356227636883,0.383854777401,
    0.407934379998,0.426119830678,0.437369327732,0.459637843152,
    0.470203291677,0.489292906508,0.616334485721,0.713915318178,
    0.809011804879,0.833706328622,0.949336624728,1.),.UNSPECIFIED.);
#57 = CARTESIAN_POINT('',(-0.499318354268,-5.E-02));
#58 = CARTESIAN_POINT('',(-0.46234597974,-4.626026341747E-02));
#59 = CARTESIAN_POINT('',(-0.434887871664,-4.643718661456E-02));
#60 = CARTESIAN_POINT('',(-0.353207852488,-5.19309542693E-02));
#61 = CARTESIAN_POINT('',(-0.321830560669,-4.672943936442E-02));
#62 = CARTESIAN_POINT('',(-0.223153180119,-5.007292701582E-02));
#63 = CARTESIAN_POINT('',(-0.177042583417,-5.491774475929E-02));
#64 = CARTESIAN_POINT('',(-0.142591037905,-4.504007604733E-02));
#65 = CARTESIAN_POINT('',(-0.114731503317,-4.516579801898E-02));
#66 = CARTESIAN_POINT('',(-9.249911875255E-02,-5.493084581931E-02));
#67 = CARTESIAN_POINT('',(-7.462114856686E-02,-5.084638834134E-02));
#68 = CARTESIAN_POINT('',(-6.424134915915E-02,-4.626909975519E-02));
#69 = CARTESIAN_POINT('',(-4.314811985617E-02,-5.397302199754E-02));
#70 = CARTESIAN_POINT('',(-3.249503226786E-02,-5.380380300128E-02));
#71 = CARTESIAN_POINT('',(-1.355482386566E-02,-5.036200413111E-02));
#72 = CARTESIAN_POINT('',(0.114553849332,-5.121792029861E-02));
#73 = CARTESIAN_POINT('',(0.21289474611,-4.773187191501E-02));
#74 = CARTESIAN_POINT('',(0.308766287729,-4.550519696372E-02));
#75 = CARTESIAN_POINT('',(0.333067230746,-5.094567608891E-02));
#76 = CARTESIAN_POINT('',(0.449632823194,-4.794755193203E-02));
#77 = CARTESIAN_POINT('',(0.500681645732,-5.E-02));
#78 = ( GEOMETRIC_REPRESENTATION_CONTEXT(2) 
PARAMETRIC_REPRESENTATION_CONTEXT() REPRESENTATION_CONTEXT('2D SPACE',''
  ) );
#79 = ORIENTED_EDGE('',*,*,#80,.T.);
#80 = EDGE_CURVE('',#24,#81,#83,.T.);
#81 = VERTEX_POINT('',#82);
#82 = CARTESIAN_POINT('',(1.,0.1,0.));
#83 = SURFACE_CURVE('',#84,(#88),.PCURVE_S1.);
#84 = LINE('',#85,#86);
#85 = CARTESIAN_POINT('',(1.,-0.,0.));
#86 = VECTOR('',#87,1.);
#87 = DIRECTION('',(0.,1.,0.));
#88 = PCURVE('',#50,#89);
#89 = DEFINITIONAL_REPRESENTATION('',(#90),#94);
#90 = LINE('',#91,#92);
#91 = CARTESIAN_POINT('',(0.500681645732,-5.E-02));
#92 = VECTOR('',#93,1.);
#93 = DIRECTION('',(0.,1.));
#94 = ( GEOMETRIC_REPRESENTATION_CONTEXT(2) 
PARAMETRIC_REPRESENTATION_CONTEXT() REPRESENTATION_CONTEXT('2D SPACE',''
  ) );
#95 = ORIENTED_EDGE('',*,*,#96,.T.);
#96 = EDGE_CURVE('',#81,#97,#99,.T.);
#97 = VERTEX_POINT('',#98);
#98 = CARTESIAN_POINT('',(0.,0.1,0.));
#99 = SURFACE_CURVE('',#100,(#122),.PCURVE_S1.);
#100 = B_SPLINE_CURVE_WITH_KNOTS('',1,(#101,#102,#103,#104,#105,#106,
    #107,#108,#109,#110,#111,#112,#113,#114,#115,#116,#117,#118,#119,
    #120,#121),.UNSPECIFIED.,.F.,.F.,(2,1,1,1,1,1,1,1,1,1,1,1,1,1,1,1,1,
    1,1,1,2),(0.,5.066337527155E-02,0.166293671378,0.190988195121,
    0.286084681822,0.383665514279,0.510707093492,0.529796708323,
    0.540362156848,0.562630672268,0.573880169322,0.592065620002,
    0.616145222599,0.643772363117,0.679312645897,0.72528984209,
    0.823199250123,0.854739124855,0.935919979008,0.963149329542,1.),
  .UNSPECIFIED.);
#101 = CARTESIAN_POINT('',(1.,0.1,0.));
#102 = CARTESIAN_POINT('',(0.948951177462,9.794755193203E-02,0.));
#103 = CARTESIAN_POINT('',(0.832385585014,0.100945676089,0.));
#104 = CARTESIAN_POINT('',(0.808084641997,9.550519696372E-02,0.));
#105 = CARTESIAN_POINT('',(0.712213100377,9.773187191501E-02,0.));
#106 = CARTESIAN_POINT('',(0.6138722036,0.101217920299,0.));
#107 = CARTESIAN_POINT('',(0.485763530402,0.100362004131,0.));
#108 = CARTESIAN_POINT('',(0.466823322,0.103803803001,0.));
#109 = CARTESIAN_POINT('',(0.456170234411,0.103973021998,0.));
#110 = CARTESIAN_POINT('',(0.435077005108,9.626909975519E-02,0.));
#111 = CARTESIAN_POINT('',(0.424697205701,0.100846388341,0.));
#112 = CARTESIAN_POINT('',(0.406819235515,0.104930845819,0.));
#113 = CARTESIAN_POINT('',(0.384586850951,9.516579801898E-02,0.));
#114 = CARTESIAN_POINT('',(0.356727316363,9.504007604733E-02,0.));
#115 = CARTESIAN_POINT('',(0.32227577085,0.104917744759,0.));
#116 = CARTESIAN_POINT('',(0.276165174149,0.100072927016,0.));
#117 = CARTESIAN_POINT('',(0.177487793598,9.672943936442E-02,0.));
#118 = CARTESIAN_POINT('',(0.146110501779,0.101930954269,0.));
#119 = CARTESIAN_POINT('',(6.443048260312E-02,9.643718661456E-02,0.));
#120 = CARTESIAN_POINT('',(3.697237452784E-02,9.626026341747E-02,0.));
#121 = CARTESIAN_POINT('',(0.,0.1,0.));
#122 = PCURVE('',#50,#123);
#123 = DEFINITIONAL_REPRESENTATION('',(#124),#146);
#124 = B_SPLINE_CURVE_WITH_KNOTS('',1,(#125,#126,#127,#128,#129,#130,
    #131,#132,#133,#134,#135,#136,#137,#138,#139,#140,#141,#142,#143,
    #144,#145),.UNSPECIFIED.,.F.,.F.,(2,1,1,1,1,1,1,1,1,1,1,1,1,1,1,1,1,
    1,1,1,2),(0.,5.066337527155E-02,0.166293671378,0.190988195121,
    0.286084681822,0.383665514279,0.510707093492,0.529796708323,
    0.540362156848,0.562630672268,0.573880169322,0.592065620002,
    0.616145222599,0.643772363117,0.679312645897,0.72528984209,
    0.823199250123,0.854739124855,0.935919979008,0.963149329542,1.),
  .UNSPECIFIED.);
#125 = CARTESIAN_POINT('',(0.500681645732,5.E-02));
#126 = CARTESIAN_POINT('',(0.449632823194,4.794755193203E-02));
#127 = CARTESIAN_POINT('',(0.333067230746,5.094567608891E-02));
#128 = CARTESIAN_POINT('',(0.308766287729,4.550519696372E-02));
#129 = CARTESIAN_POINT('',(0.21289474611,4.773187191501E-02));
#130 = CARTESIAN_POINT('',(0.114553849332,5.121792029861E-02));
#131 = CARTESIAN_POINT('',(-1.355482386566E-02,5.036200413111E-02));
#132 = CARTESIAN_POINT('',(-3.249503226786E-02,5.380380300128E-02));
#133 = CARTESIAN_POINT('',(-4.314811985617E-02,5.397302199754E-02));
#134 = CARTESIAN_POINT('',(-6.424134915915E-02,4.626909975519E-02));
#135 = CARTESIAN_POINT('',(-7.462114856686E-02,5.084638834134E-02));
#136 = CARTESIAN_POINT('',(-9.249911875255E-02,5.493084581931E-02));
#137 = CARTESIAN_POINT('',(-0.114731503317,4.516579801898E-02));
#138 = CARTESIAN_POINT('',(-0.142591037905,4.504007604733E-02));
#139 = CARTESIAN_POINT('',(-0.177042583417,5.491774475929E-02));
#140 = CARTESIAN_POINT('',(-0.223153180119,5.007292701582E-02));
#141 = CARTESIAN_POINT('',(-0.321830560669,4.672943936442E-02));
#142 = CARTESIAN_POINT('',(-0.353207852488,5.19309542693E-02));
#143 = CARTESIAN_POINT('',(-0.434887871664,4.643718661456E-02));
#144 = CARTESIAN_POINT('',(-0.46234597974,4.626026341747E-02));
#145 = CARTESIAN_POINT('',(-0.499318354268,5.E-02));
#146 = ( GEOMETRIC_REPRESENTATION_CONTEXT(2) 
PARAMETRIC_REPRESENTATION_CONTEXT() REPRESENTATION_CONTEXT('2D SPACE',''
  ) );
#147 = ORIENTED_EDGE('',*,*,#148,.T.);
#148 = EDGE_CURVE('',#97,#22,#149,.T.);
#149 = SURFACE_CURVE('',#150,(#154),.PCURVE_S1.);
#150 = LINE('',#151,#152);
#151 = CARTESIAN_POINT('',(0.,0.1,0.));
#152 = VECTOR('',#153,1.);
#153 = DIRECTION('',(0.,-1.,0.));
#154 = PCURVE('',#50,#155);
#155 = DEFINITIONAL_REPRESENTATION('',(#156),#160);
#156 = LINE('',#157,#158);
#157 = CARTESIAN_POINT('',(-0.499318354268,5.E-02));
#158 = VECTOR('',#159,1.);
#159 = DIRECTION('',(0.,-1.));
#160 = ( GEOMETRIC_REPRESENTATION_CONTEXT(2) 
PARAMETRIC_REPRESENTATION_CONTEXT() REPRESENTATION_CONTEXT('2D SPACE',''
  ) );
#161 = ( GEOMETRIC_REPRESENTATION_CONTEXT(3) 
GLOBAL_UNCERTAINTY_ASSIGNED_CONTEXT((#165)) GLOBAL_UNIT_ASSIGNED_CONTEXT
((#162,#163,#164)) REPRESENTATION_CONTEXT('Context #1',
  '3D Context with UNIT and UNCERTAINTY') );
#162 = ( LENGTH_UNIT() NAMED_UNIT(*) SI_UNIT(.MILLI.,.METRE.) );
#163 = ( NAMED_UNIT(*) PLANE_ANGLE_UNIT() SI_UNIT($,.RADIAN.) );
#164 = ( NAMED_UNIT(*) SI_UNIT($,.STERADIAN.) SOLID_ANGLE_UNIT() );
#165 = UNCERTAINTY_MEASURE_WITH_UNIT(LENGTH_MEASURE(1.E-07),#162,
  'distance_accuracy_value','confusion accuracy');
#166 = PRODUCT_RELATED_PRODUCT_CATEGORY('part',$,(#7));
ENDSEC;
END-ISO-10303-21;
