ISO-10303-21;
HEADER;
FILE_DESCRIPTION(('Open CASCADE Model'),'2;1');
FILE_NAME('Open CASCADE Shape Model','2026-07-21T00:13:23',('Author'),(
    'Open CASCADE'),'Open CASCADE STEP processor 7.9','Open CASCADE 7.9'
  ,'Unknown');
FILE_SCHEMA(('AUTOMOTIVE_DESIGN { 1 0 10303 214 1 1 1 1 }'));
ENDSEC;
DATA;
#1 = APPLICATION_PROTOCOL_DEFINITION('international standard',
  'automotive_design',2000,#2);
#2 = APPLICATION_CONTEXT(
  'core data for automotive mechanical design processes');
#3 = SHAPE_DEFINITION_REPRESENTATION(#4,#10);
#4 = PRODUCT_DEFINITION_SHAPE('','',#5);
#5 = PRODUCT_DEFINITION('design','',#6,#9);
#6 = PRODUCT_DEFINITION_FORMATION('','',#7);
#7 = PRODUCT('Open CASCADE STEP translator 7.9 15',
  'Open CASCADE STEP translator 7.9 15','',(#8));
#8 = PRODUCT_CONTEXT('',#2,'mechanical');
#9 = PRODUCT_DEFINITION_CONTEXT('part definition',#2,'design');
#10 = MANIFOLD_SURFACE_SHAPE_REPRESENTATION('',(#11,#15),#161);
#11 = AXIS2_PLACEMENT_3D('',#12,#13,#14);
#12 = CARTESIAN_POINT('',(0.,0.,0.));
#13 = DIRECTION('',(0.,0.,1.));
#14 = DIRECTION('',(1.,0.,-0.));
#15 = SHELL_BASED_SURFACE_MODEL('',(#16));
#16 = OPEN_SHELL('',(#17));
#17 = ADVANCED_FACE('',(#18),#50,.T.);
#18 = FACE_BOUND('',#19,.T.);
#19 = EDGE_LOOP('',(#20,#79,#95,#147));
#20 = ORIENTED_EDGE('',*,*,#21,.T.);
#21 = EDGE_CURVE('',#22,#24,#26,.T.);
#22 = VERTEX_POINT('',#23);
#23 = CARTESIAN_POINT('',(0.,0.,0.));
#24 = VERTEX_POINT('',#25);
#25 = CARTESIAN_POINT('',(2.,0.,0.));
#26 = SURFACE_CURVE('',#27,(#49),.PCURVE_S1.);
#27 = B_SPLINE_CURVE_WITH_KNOTS('',1,(#28,#29,#30,#31,#32,#33,#34,#35,
    #36,#37,#38,#39,#40,#41,#42,#43,#44,#45,#46,#47,#48),.UNSPECIFIED.,
  .F.,.F.,(2,1,1,1,1,1,1,1,1,1,1,1,1,1,1,1,1,1,1,1,2),(0.,
    3.35363465711E-02,5.492777072506E-02,0.129416539496,0.239705087019,
    0.374776788533,0.399062872388,0.457110698041,0.491176922827,
    0.581368426745,0.601718230901,0.614601542009,0.641498522977,
    0.655395305703,0.687461731137,0.720307863284,0.735608356251,
    0.890239271723,0.914396756609,0.98047801016,1.),.UNSPECIFIED.);
#28 = CARTESIAN_POINT('',(0.,-0.,0.));
#29 = CARTESIAN_POINT('',(6.704199274375E-02,3.845099363346E-03,0.));
#30 = CARTESIAN_POINT('',(0.109865143499,4.788519836636E-03,0.));
#31 = CARTESIAN_POINT('',(0.25901881085,4.446045908357E-03,0.));
#32 = CARTESIAN_POINT('',(0.479854047474,3.253585290641E-03,0.));
#33 = CARTESIAN_POINT('',(0.750314824233,4.466180673728E-03,0.));
#34 = CARTESIAN_POINT('',(0.798646293815,-9.114381611097E-04,0.));
#35 = CARTESIAN_POINT('',(0.914876055205,-1.807145267995E-03,0.));
#36 = CARTESIAN_POINT('',(0.983028796376,1.06369543168E-03,0.));
#37 = CARTESIAN_POINT('',(1.163623955428,1.82008903048E-03,0.));
#38 = CARTESIAN_POINT('',(1.204329070215,-4.52623702223E-05,0.));
#39 = CARTESIAN_POINT('',(1.22985881083,-3.750049422346E-03,0.));
#40 = CARTESIAN_POINT('',(1.283715983939,-3.511316268222E-03,0.));
#41 = CARTESIAN_POINT('',(1.310344597793,4.565249379872E-03,0.));
#42 = CARTESIAN_POINT('',(1.374538602996,3.185015904035E-03,0.));
#43 = CARTESIAN_POINT('',(1.44030638546,2.632551288956E-03,0.));
#44 = CARTESIAN_POINT('',(1.470943369543,2.506124241678E-03,0.));
#45 = CARTESIAN_POINT('',(1.780554916153,-7.123265174277E-04,0.));
#46 = CARTESIAN_POINT('',(1.828902303869,8.373757429681E-04,0.));
#47 = CARTESIAN_POINT('',(1.961170502265,4.507458800724E-03,0.));
#48 = CARTESIAN_POINT('',(2.,-0.,0.));
#49 = PCURVE('',#50,#55);
#50 = PLANE('',#51);
#51 = AXIS2_PLACEMENT_3D('',#52,#53,#54);
#52 = CARTESIAN_POINT('',(1.000270942894,5.E-02,0.));
#53 = DIRECTION('',(0.,0.,1.));
#54 = DIRECTION('',(1.,0.,-0.));
#55 = DEFINITIONAL_REPRESENTATION('',(#56),#78);
#56 = B_SPLINE_CURVE_WITH_KNOTS('',1,(#57,#58,#59,#60,#61,#62,#63,#64,
    #65,#66,#67,#68,#69,#70,#71,#72,#73,#74,#75,#76,#77),.UNSPECIFIED.,
  .F.,.F.,(2,1,1,1,1,1,1,1,1,1,1,1,1,1,1,1,1,1,1,1,2),(0.,
    3.35363465711E-02,5.492777072506E-02,0.129416539496,0.239705087019,
    0.374776788533,0.399062872388,0.457110698041,0.491176922827,
    0.581368426745,0.601718230901,0.614601542009,0.641498522977,
    0.655395305703,0.687461731137,0.720307863284,0.735608356251,
    0.890239271723,0.914396756609,0.98047801016,1.),.UNSPECIFIED.);
#57 = CARTESIAN_POINT('',(-1.000270942894,-5.E-02));
#58 = CARTESIAN_POINT('',(-0.93322895015,-4.615490063665E-02));
#59 = CARTESIAN_POINT('',(-0.890405799395,-4.521148016336E-02));
#60 = CARTESIAN_POINT('',(-0.741252132044,-4.555395409164E-02));
#61 = CARTESIAN_POINT('',(-0.520416895419,-4.674641470936E-02));
#62 = CARTESIAN_POINT('',(-0.249956118661,-4.553381932627E-02));
#63 = CARTESIAN_POINT('',(-0.201624649079,-5.091143816111E-02));
#64 = CARTESIAN_POINT('',(-8.539488768858E-02,-5.1807145268E-02));
#65 = CARTESIAN_POINT('',(-1.72421465182E-02,-4.893630456832E-02));
#66 = CARTESIAN_POINT('',(0.163353012534,-4.817991096952E-02));
#67 = CARTESIAN_POINT('',(0.204058127322,-5.004526237022E-02));
#68 = CARTESIAN_POINT('',(0.229587867936,-5.375004942235E-02));
#69 = CARTESIAN_POINT('',(0.283445041045,-5.351131626822E-02));
#70 = CARTESIAN_POINT('',(0.310073654899,-4.543475062013E-02));
#71 = CARTESIAN_POINT('',(0.374267660102,-4.681498409597E-02));
#72 = CARTESIAN_POINT('',(0.440035442566,-4.736744871104E-02));
#73 = CARTESIAN_POINT('',(0.470672426649,-4.749387575832E-02));
#74 = CARTESIAN_POINT('',(0.78028397326,-5.071232651743E-02));
#75 = CARTESIAN_POINT('',(0.828631360975,-4.916262425703E-02));
#76 = CARTESIAN_POINT('',(0.960899559371,-4.549254119928E-02));
#77 = CARTESIAN_POINT('',(0.999729057106,-5.E-02));
#78 = ( GEOMETRIC_REPRESENTATION_CONTEXT(2) 
PARAMETRIC_REPRESENTATION_CONTEXT() REPRESENTATION_CONTEXT('2D SPACE',''
  ) );
#79 = ORIENTED_EDGE('',*,*,#80,.T.);
#80 = EDGE_CURVE('',#24,#81,#83,.T.);
#81 = VERTEX_POINT('',#82);
#82 = CARTESIAN_POINT('',(2.,0.1,0.));
#83 = SURFACE_CURVE('',#84,(#88),.PCURVE_S1.);
#84 = LINE('',#85,#86);
#85 = CARTESIAN_POINT('',(2.,-0.,0.));
#86 = VECTOR('',#87,1.);
#87 = DIRECTION('',(0.,1.,0.));
#88 = PCURVE('',#50,#89);
#89 = DEFINITIONAL_REPRESENTATION('',(#90),#94);
#90 = LINE('',#91,#92);
#91 = CARTESIAN_POINT('',(0.999729057106,-5.E-02));
#92 = VECTOR('',#93,1.);
#93 = DIRECTION('',(0.,1.));
#94 = ( GEOMETRIC_REPRESENTATION_CONTEXT(2) 
PARAMETRIC_REPRESENTATION_CONTEXT() REPRESENTATION_CONTEXT('2D SPACE',''
  ) );
#95 = ORIENTED_EDGE('',*,*,#96,.T.);
#96 = EDGE_CURVE('',#81,#97,#99,.T.);
#97 = VERTEX_POINT('',#98);
#98 = CARTESIAN_POINT('',(0.,0.1,0.));
#99 = SURFACE_CURVE('',#100,(#122),.PCURVE_S1.);
#100 = B_SPLINE_CURVE_WITH_KNOTS('',1,(#101,#102,#103,#104,#105,#106,
    #107,#108,#109,#110,#111,#112,#113,#114,#115,#116,#117,#118,#119,
    #120,#121),.UNSPECIFIED.,.F.,.F.,(2,1,1,1,1,1,1,1,1,1,1,1,1,1,1,1,1,
    1,1,1,2),(0.,1.952198984025E-02,8.560324339065E-02,0.109760728277,
    0.264391643749,0.279692136716,0.312538268863,0.344604694297,
    0.358501477023,0.385398457991,0.398281769099,0.418631573255,
    0.508823077173,0.542889301959,0.600937127612,0.625223211467,
    0.760294912981,0.870583460504,0.945072229275,0.966463653429,1.),
  .UNSPECIFIED.);
#101 = CARTESIAN_POINT('',(2.,0.1,0.));
#102 = CARTESIAN_POINT('',(1.961170502265,9.549254119928E-02,0.));
#103 = CARTESIAN_POINT('',(1.828902303869,9.916262425703E-02,0.));
#104 = CARTESIAN_POINT('',(1.780554916153,0.100712326517,0.));
#105 = CARTESIAN_POINT('',(1.470943369543,9.749387575832E-02,0.));
#106 = CARTESIAN_POINT('',(1.44030638546,9.736744871104E-02,0.));
#107 = CARTESIAN_POINT('',(1.374538602996,9.681498409597E-02,0.));
#108 = CARTESIAN_POINT('',(1.310344597793,9.543475062013E-02,0.));
#109 = CARTESIAN_POINT('',(1.283715983939,0.103511316268,0.));
#110 = CARTESIAN_POINT('',(1.22985881083,0.103750049422,0.));
#111 = CARTESIAN_POINT('',(1.204329070215,0.10004526237,0.));
#112 = CARTESIAN_POINT('',(1.163623955428,9.817991096952E-02,0.));
#113 = CARTESIAN_POINT('',(0.983028796376,9.893630456832E-02,0.));
#114 = CARTESIAN_POINT('',(0.914876055205,0.101807145268,0.));
#115 = CARTESIAN_POINT('',(0.798646293815,0.100911438161,0.));
#116 = CARTESIAN_POINT('',(0.750314824233,9.553381932627E-02,0.));
#117 = CARTESIAN_POINT('',(0.479854047474,9.674641470936E-02,0.));
#118 = CARTESIAN_POINT('',(0.25901881085,9.555395409164E-02,0.));
#119 = CARTESIAN_POINT('',(0.109865143499,9.521148016336E-02,0.));
#120 = CARTESIAN_POINT('',(6.704199274375E-02,9.615490063665E-02,0.));
#121 = CARTESIAN_POINT('',(0.,0.1,0.));
#122 = PCURVE('',#50,#123);
#123 = DEFINITIONAL_REPRESENTATION('',(#124),#146);
#124 = B_SPLINE_CURVE_WITH_KNOTS('',1,(#125,#126,#127,#128,#129,#130,
    #131,#132,#133,#134,#135,#136,#137,#138,#139,#140,#141,#142,#143,
    #144,#145),.UNSPECIFIED.,.F.,.F.,(2,1,1,1,1,1,1,1,1,1,1,1,1,1,1,1,1,
    1,1,1,2),(0.,1.952198984025E-02,8.560324339065E-02,0.109760728277,
    0.264391643749,0.279692136716,0.312538268863,0.344604694297,
    0.358501477023,0.385398457991,0.398281769099,0.418631573255,
    0.508823077173,0.542889301959,0.600937127612,0.625223211467,
    0.760294912981,0.870583460504,0.945072229275,0.966463653429,1.),
  .UNSPECIFIED.);
#125 = CARTESIAN_POINT('',(0.999729057106,5.E-02));
#126 = CARTESIAN_POINT('',(0.960899559371,4.549254119928E-02));
#127 = CARTESIAN_POINT('',(0.828631360975,4.916262425703E-02));
#128 = CARTESIAN_POINT('',(0.78028397326,5.071232651743E-02));
#129 = CARTESIAN_POINT('',(0.470672426649,4.749387575832E-02));
#130 = CARTESIAN_POINT('',(0.440035442566,4.736744871104E-02));
#131 = CARTESIAN_POINT('',(0.374267660102,4.681498409597E-02));
#132 = CARTESIAN_POINT('',(0.310073654899,4.543475062013E-02));
#133 = CARTESIAN_POINT('',(0.283445041045,5.351131626822E-02));
#134 = CARTESIAN_POINT('',(0.229587867936,5.375004942235E-02));
#135 = CARTESIAN_POINT('',(0.204058127322,5.004526237022E-02));
#136 = CARTESIAN_POINT('',(0.163353012534,4.817991096952E-02));
#137 = CARTESIAN_POINT('',(-1.72421465182E-02,4.893630456832E-02));
#138 = CARTESIAN_POINT('',(-8.539488768858E-02,5.1807145268E-02));
#139 = CARTESIAN_POINT('',(-0.201624649079,5.091143816111E-02));
#140 = CARTESIAN_POINT('',(-0.249956118661,4.553381932627E-02));
#141 = CARTESIAN_POINT('',(-0.520416895419,4.674641470936E-02));
#142 = CARTESIAN_POINT('',(-0.741252132044,4.555395409164E-02));
#143 = CARTESIAN_POINT('',(-0.890405799395,4.521148016336E-02));
#144 = CARTESIAN_POINT('',(-0.93322895015,4.615490063665E-02));
#145 = CARTESIAN_POINT('',(-1.000270942894,5.E-02));
#146 = ( GEOMETRIC_REPRESENTATION_CONTEXT(2) 
PARAMETRIC_REPRESENTATION_CONTEXT() REPRESENTATION_CONTEXT('2D SPACE',''
  ) );
#147 = ORIENTED_EDGE('',*,*,#148,.T.);
#148 = EDGE_CURVE('',#97,#22,#149,.T.);
#149 = SURFACE_CURVE('',#150,(#154),.PCURVE_S1.);
#150 = LINE('',#151,#152);
#151 = CARTESIAN_POINT('',(0.,0.1,0.));
#152 = VECTOR('',#153,1.);
#153 = DIRECTION('',(0.,-1.,0.));
#154 = PCURVE('',#50,#155);
#155 = DEFINITIONAL_REPRESENTATION('',(#156),#160);
#156 = LINE('',#157,#158);
#157 = CARTESIAN_POINT('',(-1.000270942894,5.E-02));
#158 = VECTOR('',#159,1.);
#159 = DIRECTION('',(0.,-1.));
#160 = ( GEOMETRIC_REPRESENTATION_CONTEXT(2) 
PARAMETRIC_REPRESENTATION_CONTEXT() REPRESENTATION_CONTEXT('2D SPACE',''
  ) );
#161 = ( GEOMETRIC_REPRESENTATION_CONTEXT(3) 
GLOBAL_UNCERTAINTY_ASSIGNED_CONTEXT((#165)) GLOBAL_UNIT_ASSIGNED_CONTEXT
((#162,#163,#164)) REPRESENTATION_CONTEXT('Context #1',
  '3D Context with UNIT and UNCERTAINTY') );
#162 = ( LENGTH_UNIT() NAMED_UNIT(*) SI_UNIT(.MILLI.,.METRE.) );
#163 = ( NAMED_UNIT(*) PLANE_ANGLE_UNIT() SI_UNIT($,.RADIAN.) );
#164 = ( NAMED_UNIT(*) SI_UNIT($,.STERADIAN.) SOLID_ANGLE_UNIT() );
#165 = UNCERTAINTY_MEASURE_WITH_UNIT(LENGTH_MEASURE(1.E-07),#162,
  'distance_accuracy_value','confusion accuracy');
#166 = PRODUCT_RELATED_PRODUCT_CATEGORY('part',$,(#7));
ENDSEC;
END-ISO-10303-21;
