ISO-10303-21;
HEADER;
FILE_DESCRIPTION(('Open CASCADE Model'),'2;1');
FILE_NAME('Open CASCADE Shape Model','2026-08-17T20:30:05',('Author'),(
    'Open CASCADE'),'Open CASCADE STEP processor 7.9','Open CASCADE 7.9'
  ,'Unknown');
FILE_SCHEMA(('AUTOMOTIVE_DESIGN { 1 0 10303 214 1 1 1 1 }'));
ENDSEC;
DATA;
#1 = APPLICATION_PROTOCOL_DEFINITION('international standard',
  'automotive_design',2000,#2);
#2 = APPLICATION_CONTEXT(
  'core data for automotive mechanical design processes');
#3 = SHAPE_DEFINITION_REPRESENTATION(#4,#10);
#4 = PRODUCT_DEFINITION_SHAPE('','',#5);
#5 = PRODUCT_DEFINITION('design','',#6,#9);
#6 = PRODUCT_DEFINITION_FORMATION('','',#7);
#7 = PRODUCT('Open CASCADE STEP translator 7.9 70',
  'Open CASCADE STEP translator 7.9 70','',(#8));
#8 = PRODUCT_CONTEXT('',#2,'mechanical');
#9 = PRODUCT_DEFINITION_CONTEXT('part definition',#2,'design');
#10 = MANIFOLD_SURFACE_SHAPE_REPRESENTATION('',(#11,#15),#145);
#11 = AXIS2_PLACEMENT_3D('',#12,#13,#14);
#12 = CARTESIAN_POINT('',(0.,0.,0.));
#13 = DIRECTION('',(0.,0.,1.));
#14 = DIRECTION('',(1.,0.,-0.));
#15 = SHELL_BASED_SURFACE_MODEL('',(#16));
#16 = OPEN_SHELL('',(#17));
#17 = ADVANCED_FACE('',(#18),#46,.T.);
#18 = FACE_BOUND('',#19,.T.);
#19 = EDGE_LOOP('',(#20,#71,#87,#131));
#20 = ORIENTED_EDGE('',*,*,#21,.T.);
#21 = EDGE_CURVE('',#22,#24,#26,.T.);
#22 = VERTEX_POINT('',#23);
#23 = CARTESIAN_POINT('',(0.,0.,0.));
#24 = VERTEX_POINT('',#25);
#25 = CARTESIAN_POINT('',(1.,0.,0.));
#26 = SURFACE_CURVE('',#27,(#45),.PCURVE_S1.);
#27 = B_SPLINE_CURVE_WITH_KNOTS('',1,(#28,#29,#30,#31,#32,#33,#34,#35,
    #36,#37,#38,#39,#40,#41,#42,#43,#44),.UNSPECIFIED.,.F.,.F.,(2,1,1,1,
    1,1,1,1,1,1,1,1,1,1,1,1,2),(0.,4.615560552163E-02,6.774850839428E-02
    ,0.108600122868,0.171365911803,0.390126589713,0.420996047717,
    0.445991647792,0.558038815983,0.581263200595,0.693328454092,
    0.748503156999,0.84143519606,0.875175017635,0.903748116419,
    0.940462917498,1.),.UNSPECIFIED.);
#28 = CARTESIAN_POINT('',(0.,-0.,0.));
#29 = CARTESIAN_POINT('',(4.623157421045E-02,-1.75090439835E-03,0.));
#30 = CARTESIAN_POINT('',(6.748645759881E-02,2.334490172222E-03,0.));
#31 = CARTESIAN_POINT('',(0.108314790309,-7.962221632858E-04,0.));
#32 = CARTESIAN_POINT('',(0.171147569164,-3.995351662212E-03,0.));
#33 = CARTESIAN_POINT('',(0.390396481156,-4.342345029791E-04,0.));
#34 = CARTESIAN_POINT('',(0.42115986943,-3.758109906063E-03,0.));
#35 = CARTESIAN_POINT('',(0.446071375037,-1.08334324537E-03,0.));
#36 = CARTESIAN_POINT('',(0.558357766011,1.317226306719E-03,0.));
#37 = CARTESIAN_POINT('',(0.581510837434,3.738073551546E-03,0.));
#38 = CARTESIAN_POINT('',(0.693840446836,3.380986020293E-03,0.));
#39 = CARTESIAN_POINT('',(0.749099300197,1.118852243423E-03,0.));
#40 = CARTESIAN_POINT('',(0.842244530978,1.837584402553E-05,0.));
#41 = CARTESIAN_POINT('',(0.875794752286,-4.241534543828E-03,0.));
#42 = CARTESIAN_POINT('',(0.903575465071,2.723994489318E-03,0.));
#43 = CARTESIAN_POINT('',(0.94037664565,2.549287744322E-03,0.));
#44 = CARTESIAN_POINT('',(1.,-0.,0.));
#45 = PCURVE('',#46,#51);
#46 = PLANE('',#47);
#47 = AXIS2_PLACEMENT_3D('',#48,#49,#50);
#48 = CARTESIAN_POINT('',(0.500168177246,3.125E-02,0.));
#49 = DIRECTION('',(0.,0.,1.));
#50 = DIRECTION('',(1.,0.,-0.));
#51 = DEFINITIONAL_REPRESENTATION('',(#52),#70);
#52 = B_SPLINE_CURVE_WITH_KNOTS('',1,(#53,#54,#55,#56,#57,#58,#59,#60,
    #61,#62,#63,#64,#65,#66,#67,#68,#69),.UNSPECIFIED.,.F.,.F.,(2,1,1,1,
    1,1,1,1,1,1,1,1,1,1,1,1,2),(0.,4.615560552163E-02,6.774850839428E-02
    ,0.108600122868,0.171365911803,0.390126589713,0.420996047717,
    0.445991647792,0.558038815983,0.581263200595,0.693328454092,
    0.748503156999,0.84143519606,0.875175017635,0.903748116419,
    0.940462917498,1.),.UNSPECIFIED.);
#53 = CARTESIAN_POINT('',(-0.500168177246,-3.125E-02));
#54 = CARTESIAN_POINT('',(-0.453936603035,-3.300090439835E-02));
#55 = CARTESIAN_POINT('',(-0.432681719647,-2.891550982778E-02));
#56 = CARTESIAN_POINT('',(-0.391853386937,-3.204622216329E-02));
#57 = CARTESIAN_POINT('',(-0.329020608082,-3.524535166221E-02));
#58 = CARTESIAN_POINT('',(-0.109771696089,-3.168423450298E-02));
#59 = CARTESIAN_POINT('',(-7.900830781603E-02,-3.500810990606E-02));
#60 = CARTESIAN_POINT('',(-5.409680220905E-02,-3.233334324537E-02));
#61 = CARTESIAN_POINT('',(5.818958876503E-02,-2.993277369328E-02));
#62 = CARTESIAN_POINT('',(8.134266018797E-02,-2.751192644845E-02));
#63 = CARTESIAN_POINT('',(0.19367226959,-2.786901397971E-02));
#64 = CARTESIAN_POINT('',(0.248931122951,-3.013114775658E-02));
#65 = CARTESIAN_POINT('',(0.342076353732,-3.123162415597E-02));
#66 = CARTESIAN_POINT('',(0.37562657504,-3.549153454383E-02));
#67 = CARTESIAN_POINT('',(0.403407287826,-2.852600551068E-02));
#68 = CARTESIAN_POINT('',(0.440208468404,-2.870071225568E-02));
#69 = CARTESIAN_POINT('',(0.499831822754,-3.125E-02));
#70 = ( GEOMETRIC_REPRESENTATION_CONTEXT(2) 
PARAMETRIC_REPRESENTATION_CONTEXT() REPRESENTATION_CONTEXT('2D SPACE',''
  ) );
#71 = ORIENTED_EDGE('',*,*,#72,.T.);
#72 = EDGE_CURVE('',#24,#73,#75,.T.);
#73 = VERTEX_POINT('',#74);
#74 = CARTESIAN_POINT('',(1.,6.25E-02,0.));
#75 = SURFACE_CURVE('',#76,(#80),.PCURVE_S1.);
#76 = LINE('',#77,#78);
#77 = CARTESIAN_POINT('',(1.,-0.,0.));
#78 = VECTOR('',#79,1.);
#79 = DIRECTION('',(0.,1.,0.));
#80 = PCURVE('',#46,#81);
#81 = DEFINITIONAL_REPRESENTATION('',(#82),#86);
#82 = LINE('',#83,#84);
#83 = CARTESIAN_POINT('',(0.499831822754,-3.125E-02));
#84 = VECTOR('',#85,1.);
#85 = DIRECTION('',(0.,1.));
#86 = ( GEOMETRIC_REPRESENTATION_CONTEXT(2) 
PARAMETRIC_REPRESENTATION_CONTEXT() REPRESENTATION_CONTEXT('2D SPACE',''
  ) );
#87 = ORIENTED_EDGE('',*,*,#88,.T.);
#88 = EDGE_CURVE('',#73,#89,#91,.T.);
#89 = VERTEX_POINT('',#90);
#90 = CARTESIAN_POINT('',(0.,6.25E-02,0.));
#91 = SURFACE_CURVE('',#92,(#110),.PCURVE_S1.);
#92 = B_SPLINE_CURVE_WITH_KNOTS('',1,(#93,#94,#95,#96,#97,#98,#99,#100,
    #101,#102,#103,#104,#105,#106,#107,#108,#109),.UNSPECIFIED.,.F.,.F.,
  (2,1,1,1,1,1,1,1,1,1,1,1,1,1,1,1,2),(0.,5.953708250166E-02,
    9.625188358147E-02,0.124824982365,0.15856480394,0.251496843001,
    0.306671545908,0.418736799405,0.441961184017,0.554008352208,
    0.579003952283,0.609873410287,0.828634088197,0.891399877132,
    0.932251491606,0.953844394478,1.),.UNSPECIFIED.);
#93 = CARTESIAN_POINT('',(1.,6.25E-02,0.));
#94 = CARTESIAN_POINT('',(0.94037664565,5.995071225568E-02,0.));
#95 = CARTESIAN_POINT('',(0.903575465071,5.977600551068E-02,0.));
#96 = CARTESIAN_POINT('',(0.875794752286,6.674153454383E-02,0.));
#97 = CARTESIAN_POINT('',(0.842244530978,6.248162415597E-02,0.));
#98 = CARTESIAN_POINT('',(0.749099300197,6.138114775658E-02,0.));
#99 = CARTESIAN_POINT('',(0.693840446836,5.911901397971E-02,0.));
#100 = CARTESIAN_POINT('',(0.581510837434,5.876192644845E-02,0.));
#101 = CARTESIAN_POINT('',(0.558357766011,6.118277369328E-02,0.));
#102 = CARTESIAN_POINT('',(0.446071375037,6.358334324537E-02,0.));
#103 = CARTESIAN_POINT('',(0.42115986943,6.625810990606E-02,0.));
#104 = CARTESIAN_POINT('',(0.390396481156,6.293423450298E-02,0.));
#105 = CARTESIAN_POINT('',(0.171147569164,6.649535166221E-02,0.));
#106 = CARTESIAN_POINT('',(0.108314790309,6.329622216329E-02,0.));
#107 = CARTESIAN_POINT('',(6.748645759881E-02,6.016550982778E-02,0.));
#108 = CARTESIAN_POINT('',(4.623157421045E-02,6.425090439835E-02,0.));
#109 = CARTESIAN_POINT('',(0.,6.25E-02,0.));
#110 = PCURVE('',#46,#111);
#111 = DEFINITIONAL_REPRESENTATION('',(#112),#130);
#112 = B_SPLINE_CURVE_WITH_KNOTS('',1,(#113,#114,#115,#116,#117,#118,
    #119,#120,#121,#122,#123,#124,#125,#126,#127,#128,#129),
  .UNSPECIFIED.,.F.,.F.,(2,1,1,1,1,1,1,1,1,1,1,1,1,1,1,1,2),(0.,
    5.953708250166E-02,9.625188358147E-02,0.124824982365,0.15856480394,
    0.251496843001,0.306671545908,0.418736799405,0.441961184017,
    0.554008352208,0.579003952283,0.609873410287,0.828634088197,
    0.891399877132,0.932251491606,0.953844394478,1.),.UNSPECIFIED.);
#113 = CARTESIAN_POINT('',(0.499831822754,3.125E-02));
#114 = CARTESIAN_POINT('',(0.440208468404,2.870071225568E-02));
#115 = CARTESIAN_POINT('',(0.403407287826,2.852600551068E-02));
#116 = CARTESIAN_POINT('',(0.37562657504,3.549153454383E-02));
#117 = CARTESIAN_POINT('',(0.342076353732,3.123162415597E-02));
#118 = CARTESIAN_POINT('',(0.248931122951,3.013114775658E-02));
#119 = CARTESIAN_POINT('',(0.19367226959,2.786901397971E-02));
#120 = CARTESIAN_POINT('',(8.134266018797E-02,2.751192644845E-02));
#121 = CARTESIAN_POINT('',(5.818958876503E-02,2.993277369328E-02));
#122 = CARTESIAN_POINT('',(-5.409680220905E-02,3.233334324537E-02));
#123 = CARTESIAN_POINT('',(-7.900830781603E-02,3.500810990606E-02));
#124 = CARTESIAN_POINT('',(-0.109771696089,3.168423450298E-02));
#125 = CARTESIAN_POINT('',(-0.329020608082,3.524535166221E-02));
#126 = CARTESIAN_POINT('',(-0.391853386937,3.204622216329E-02));
#127 = CARTESIAN_POINT('',(-0.432681719647,2.891550982778E-02));
#128 = CARTESIAN_POINT('',(-0.453936603035,3.300090439835E-02));
#129 = CARTESIAN_POINT('',(-0.500168177246,3.125E-02));
#130 = ( GEOMETRIC_REPRESENTATION_CONTEXT(2) 
PARAMETRIC_REPRESENTATION_CONTEXT() REPRESENTATION_CONTEXT('2D SPACE',''
  ) );
#131 = ORIENTED_EDGE('',*,*,#132,.T.);
#132 = EDGE_CURVE('',#89,#22,#133,.T.);
#133 = SURFACE_CURVE('',#134,(#138),.PCURVE_S1.);
#134 = LINE('',#135,#136);
#135 = CARTESIAN_POINT('',(0.,6.25E-02,0.));
#136 = VECTOR('',#137,1.);
#137 = DIRECTION('',(0.,-1.,0.));
#138 = PCURVE('',#46,#139);
#139 = DEFINITIONAL_REPRESENTATION('',(#140),#144);
#140 = LINE('',#141,#142);
#141 = CARTESIAN_POINT('',(-0.500168177246,3.125E-02));
#142 = VECTOR('',#143,1.);
#143 = DIRECTION('',(0.,-1.));
#144 = ( GEOMETRIC_REPRESENTATION_CONTEXT(2) 
PARAMETRIC_REPRESENTATION_CONTEXT() REPRESENTATION_CONTEXT('2D SPACE',''
  ) );
#145 = ( GEOMETRIC_REPRESENTATION_CONTEXT(3) 
GLOBAL_UNCERTAINTY_ASSIGNED_CONTEXT((#149)) GLOBAL_UNIT_ASSIGNED_CONTEXT
((#146,#147,#148)) REPRESENTATION_CONTEXT('Context #1',
  '3D Context with UNIT and UNCERTAINTY') );
#146 = ( LENGTH_UNIT() NAMED_UNIT(*) SI_UNIT(.MILLI.,.METRE.) );
#147 = ( NAMED_UNIT(*) PLANE_ANGLE_UNIT() SI_UNIT($,.RADIAN.) );
#148 = ( NAMED_UNIT(*) SI_UNIT($,.STERADIAN.) SOLID_ANGLE_UNIT() );
#149 = UNCERTAINTY_MEASURE_WITH_UNIT(LENGTH_MEASURE(1.E-07),#146,
  'distance_accuracy_value','confusion accuracy');
#150 = PRODUCT_RELATED_PRODUCT_CATEGORY('part',$,(#7));
ENDSEC;
END-ISO-10303-21;
