ISO-10303-21;
HEADER;
FILE_DESCRIPTION(('Open CASCADE Model'),'2;1');
FILE_NAME('Open CASCADE Shape Model','2026-08-17T20:30:05',('Author'),(
    'Open CASCADE'),'Open CASCADE STEP processor 7.9','Open CASCADE 7.9'
  ,'Unknown');
FILE_SCHEMA(('AUTOMOTIVE_DESIGN { 1 0 10303 214 1 1 1 1 }'));
ENDSEC;
DATA;
#1 = APPLICATION_PROTOCOL_DEFINITION('international standard',
  'automotive_design',2000,#2);
#2 = APPLICATION_CONTEXT(
  'core data for automotive mechanical design processes');
#3 = SHAPE_DEFINITION_REPRESENTATION(#4,#10);
#4 = PRODUCT_DEFINITION_SHAPE('','',#5);
#5 = PRODUCT_DEFINITION('design','',#6,#9);
#6 = PRODUCT_DEFINITION_FORMATION('','',#7);
#7 = PRODUCT('Open CASCADE STEP translator 7.9 94',
  'Open CASCADE STEP translator 7.9 94','',(#8));
#8 = PRODUCT_CONTEXT('',#2,'mechanical');
#9 = PRODUCT_DEFINITION_CONTEXT('part definition',#2,'design');
#10 = MANIFOLD_SURFACE_SHAPE_REPRESENTATION('',(#11,#15),#113);
#11 = AXIS2_PLACEMENT_3D('',#12,#13,#14);
#12 = CARTESIAN_POINT('',(0.,0.,0.));
#13 = DIRECTION('',(0.,0.,1.));
#14 = DIRECTION('',(1.,0.,-0.));
#15 = SHELL_BASED_SURFACE_MODEL('',(#16));
#16 = OPEN_SHELL('',(#17));
#17 = ADVANCED_FACE('',(#18),#38,.T.);
#18 = FACE_BOUND('',#19,.T.);
#19 = EDGE_LOOP('',(#20,#55,#71,#99));
#20 = ORIENTED_EDGE('',*,*,#21,.T.);
#21 = EDGE_CURVE('',#22,#24,#26,.T.);
#22 = VERTEX_POINT('',#23);
#23 = CARTESIAN_POINT('',(0.,0.,0.));
#24 = VERTEX_POINT('',#25);
#25 = CARTESIAN_POINT('',(1.,0.,0.));
#26 = SURFACE_CURVE('',#27,(#37),.PCURVE_S1.);
#27 = B_SPLINE_CURVE_WITH_KNOTS('',1,(#28,#29,#30,#31,#32,#33,#34,#35,
    #36),.UNSPECIFIED.,.F.,.F.,(2,1,1,1,1,1,1,1,2),(0.,0.10185146777,
    0.377830572093,0.412376043319,0.517844203131,0.544498749806,
    0.579760027243,0.970825752102,1.),.UNSPECIFIED.);
#28 = CARTESIAN_POINT('',(0.,-0.,0.));
#29 = CARTESIAN_POINT('',(0.101816675479,-4.952091302129E-03,0.));
#30 = CARTESIAN_POINT('',(0.377855242839,4.804944785727E-03,0.));
#31 = CARTESIAN_POINT('',(0.412341902059,2.342044149122E-03,0.));
#32 = CARTESIAN_POINT('',(0.517808210953,-2.026926303353E-03,0.));
#33 = CARTESIAN_POINT('',(0.544258838729,1.440546097984E-03,0.));
#34 = CARTESIAN_POINT('',(0.579429817211,4.347419287185E-03,0.));
#35 = CARTESIAN_POINT('',(0.970801689771,1.615267578606E-04,0.));
#36 = CARTESIAN_POINT('',(1.,-0.,0.));
#37 = PCURVE('',#38,#43);
#38 = PLANE('',#39);
#39 = AXIS2_PLACEMENT_3D('',#40,#41,#42);
#40 = CARTESIAN_POINT('',(0.499919652932,6.25E-02,0.));
#41 = DIRECTION('',(0.,0.,1.));
#42 = DIRECTION('',(1.,0.,-0.));
#43 = DEFINITIONAL_REPRESENTATION('',(#44),#54);
#44 = B_SPLINE_CURVE_WITH_KNOTS('',1,(#45,#46,#47,#48,#49,#50,#51,#52,
    #53),.UNSPECIFIED.,.F.,.F.,(2,1,1,1,1,1,1,1,2),(0.,0.10185146777,
    0.377830572093,0.412376043319,0.517844203131,0.544498749806,
    0.579760027243,0.970825752102,1.),.UNSPECIFIED.);
#45 = CARTESIAN_POINT('',(-0.499919652932,-6.25E-02));
#46 = CARTESIAN_POINT('',(-0.398102977453,-6.745209130213E-02));
#47 = CARTESIAN_POINT('',(-0.122064410093,-5.769505521427E-02));
#48 = CARTESIAN_POINT('',(-8.75777508731E-02,-6.015795585088E-02));
#49 = CARTESIAN_POINT('',(1.78885580211E-02,-6.452692630335E-02));
#50 = CARTESIAN_POINT('',(4.433918579735E-02,-6.105945390202E-02));
#51 = CARTESIAN_POINT('',(7.951016427896E-02,-5.815258071282E-02));
#52 = CARTESIAN_POINT('',(0.470882036839,-6.233847324214E-02));
#53 = CARTESIAN_POINT('',(0.500080347068,-6.25E-02));
#54 = ( GEOMETRIC_REPRESENTATION_CONTEXT(2) 
PARAMETRIC_REPRESENTATION_CONTEXT() REPRESENTATION_CONTEXT('2D SPACE',''
  ) );
#55 = ORIENTED_EDGE('',*,*,#56,.T.);
#56 = EDGE_CURVE('',#24,#57,#59,.T.);
#57 = VERTEX_POINT('',#58);
#58 = CARTESIAN_POINT('',(1.,0.125,0.));
#59 = SURFACE_CURVE('',#60,(#64),.PCURVE_S1.);
#60 = LINE('',#61,#62);
#61 = CARTESIAN_POINT('',(1.,-0.,0.));
#62 = VECTOR('',#63,1.);
#63 = DIRECTION('',(0.,1.,0.));
#64 = PCURVE('',#38,#65);
#65 = DEFINITIONAL_REPRESENTATION('',(#66),#70);
#66 = LINE('',#67,#68);
#67 = CARTESIAN_POINT('',(0.500080347068,-6.25E-02));
#68 = VECTOR('',#69,1.);
#69 = DIRECTION('',(0.,1.));
#70 = ( GEOMETRIC_REPRESENTATION_CONTEXT(2) 
PARAMETRIC_REPRESENTATION_CONTEXT() REPRESENTATION_CONTEXT('2D SPACE',''
  ) );
#71 = ORIENTED_EDGE('',*,*,#72,.T.);
#72 = EDGE_CURVE('',#57,#73,#75,.T.);
#73 = VERTEX_POINT('',#74);
#74 = CARTESIAN_POINT('',(0.,0.125,0.));
#75 = SURFACE_CURVE('',#76,(#86),.PCURVE_S1.);
#76 = B_SPLINE_CURVE_WITH_KNOTS('',1,(#77,#78,#79,#80,#81,#82,#83,#84,
    #85),.UNSPECIFIED.,.F.,.F.,(2,1,1,1,1,1,1,1,2),(0.,
    2.917424789836E-02,0.420239972757,0.455501250194,0.482155796869,
    0.587623956681,0.622169427907,0.89814853223,1.),.UNSPECIFIED.);
#77 = CARTESIAN_POINT('',(1.,0.125,0.));
#78 = CARTESIAN_POINT('',(0.970801689771,0.124838473242,0.));
#79 = CARTESIAN_POINT('',(0.579429817211,0.120652580713,0.));
#80 = CARTESIAN_POINT('',(0.544258838729,0.123559453902,0.));
#81 = CARTESIAN_POINT('',(0.517808210953,0.127026926303,0.));
#82 = CARTESIAN_POINT('',(0.412341902059,0.122657955851,0.));
#83 = CARTESIAN_POINT('',(0.377855242839,0.120195055214,0.));
#84 = CARTESIAN_POINT('',(0.101816675479,0.129952091302,0.));
#85 = CARTESIAN_POINT('',(0.,0.125,0.));
#86 = PCURVE('',#38,#87);
#87 = DEFINITIONAL_REPRESENTATION('',(#88),#98);
#88 = B_SPLINE_CURVE_WITH_KNOTS('',1,(#89,#90,#91,#92,#93,#94,#95,#96,
    #97),.UNSPECIFIED.,.F.,.F.,(2,1,1,1,1,1,1,1,2),(0.,
    2.917424789836E-02,0.420239972757,0.455501250194,0.482155796869,
    0.587623956681,0.622169427907,0.89814853223,1.),.UNSPECIFIED.);
#89 = CARTESIAN_POINT('',(0.500080347068,6.25E-02));
#90 = CARTESIAN_POINT('',(0.470882036839,6.233847324214E-02));
#91 = CARTESIAN_POINT('',(7.951016427896E-02,5.815258071282E-02));
#92 = CARTESIAN_POINT('',(4.433918579735E-02,6.105945390202E-02));
#93 = CARTESIAN_POINT('',(1.78885580211E-02,6.452692630335E-02));
#94 = CARTESIAN_POINT('',(-8.75777508731E-02,6.015795585088E-02));
#95 = CARTESIAN_POINT('',(-0.122064410093,5.769505521427E-02));
#96 = CARTESIAN_POINT('',(-0.398102977453,6.745209130213E-02));
#97 = CARTESIAN_POINT('',(-0.499919652932,6.25E-02));
#98 = ( GEOMETRIC_REPRESENTATION_CONTEXT(2) 
PARAMETRIC_REPRESENTATION_CONTEXT() REPRESENTATION_CONTEXT('2D SPACE',''
  ) );
#99 = ORIENTED_EDGE('',*,*,#100,.T.);
#100 = EDGE_CURVE('',#73,#22,#101,.T.);
#101 = SURFACE_CURVE('',#102,(#106),.PCURVE_S1.);
#102 = LINE('',#103,#104);
#103 = CARTESIAN_POINT('',(0.,0.125,0.));
#104 = VECTOR('',#105,1.);
#105 = DIRECTION('',(0.,-1.,0.));
#106 = PCURVE('',#38,#107);
#107 = DEFINITIONAL_REPRESENTATION('',(#108),#112);
#108 = LINE('',#109,#110);
#109 = CARTESIAN_POINT('',(-0.499919652932,6.25E-02));
#110 = VECTOR('',#111,1.);
#111 = DIRECTION('',(0.,-1.));
#112 = ( GEOMETRIC_REPRESENTATION_CONTEXT(2) 
PARAMETRIC_REPRESENTATION_CONTEXT() REPRESENTATION_CONTEXT('2D SPACE',''
  ) );
#113 = ( GEOMETRIC_REPRESENTATION_CONTEXT(3) 
GLOBAL_UNCERTAINTY_ASSIGNED_CONTEXT((#117)) GLOBAL_UNIT_ASSIGNED_CONTEXT
((#114,#115,#116)) REPRESENTATION_CONTEXT('Context #1',
  '3D Context with UNIT and UNCERTAINTY') );
#114 = ( LENGTH_UNIT() NAMED_UNIT(*) SI_UNIT(.MILLI.,.METRE.) );
#115 = ( NAMED_UNIT(*) PLANE_ANGLE_UNIT() SI_UNIT($,.RADIAN.) );
#116 = ( NAMED_UNIT(*) SI_UNIT($,.STERADIAN.) SOLID_ANGLE_UNIT() );
#117 = UNCERTAINTY_MEASURE_WITH_UNIT(LENGTH_MEASURE(1.E-07),#114,
  'distance_accuracy_value','confusion accuracy');
#118 = PRODUCT_RELATED_PRODUCT_CATEGORY('part',$,(#7));
ENDSEC;
END-ISO-10303-21;
