ISO-10303-21;
HEADER;
FILE_DESCRIPTION(('Open CASCADE Model'),'2;1');
FILE_NAME('Open CASCADE Shape Model','2026-08-17T20:30:05',('Author'),(
    'Open CASCADE'),'Open CASCADE STEP processor 7.9','Open CASCADE 7.9'
  ,'Unknown');
FILE_SCHEMA(('AUTOMOTIVE_DESIGN { 1 0 10303 214 1 1 1 1 }'));
ENDSEC;
DATA;
#1 = APPLICATION_PROTOCOL_DEFINITION('international standard',
  'automotive_design',2000,#2);
#2 = APPLICATION_CONTEXT(
  'core data for automotive mechanical design processes');
#3 = SHAPE_DEFINITION_REPRESENTATION(#4,#10);
#4 = PRODUCT_DEFINITION_SHAPE('','',#5);
#5 = PRODUCT_DEFINITION('design','',#6,#9);
#6 = PRODUCT_DEFINITION_FORMATION('','',#7);
#7 = PRODUCT('Open CASCADE STEP translator 7.9 96',
  'Open CASCADE STEP translator 7.9 96','',(#8));
#8 = PRODUCT_CONTEXT('',#2,'mechanical');
#9 = PRODUCT_DEFINITION_CONTEXT('part definition',#2,'design');
#10 = MANIFOLD_SURFACE_SHAPE_REPRESENTATION('',(#11,#15),#113);
#11 = AXIS2_PLACEMENT_3D('',#12,#13,#14);
#12 = CARTESIAN_POINT('',(0.,0.,0.));
#13 = DIRECTION('',(0.,0.,1.));
#14 = DIRECTION('',(1.,0.,-0.));
#15 = SHELL_BASED_SURFACE_MODEL('',(#16));
#16 = OPEN_SHELL('',(#17));
#17 = ADVANCED_FACE('',(#18),#38,.T.);
#18 = FACE_BOUND('',#19,.T.);
#19 = EDGE_LOOP('',(#20,#55,#71,#99));
#20 = ORIENTED_EDGE('',*,*,#21,.T.);
#21 = EDGE_CURVE('',#22,#24,#26,.T.);
#22 = VERTEX_POINT('',#23);
#23 = CARTESIAN_POINT('',(0.,0.,0.));
#24 = VERTEX_POINT('',#25);
#25 = CARTESIAN_POINT('',(1.,0.,0.));
#26 = SURFACE_CURVE('',#27,(#37),.PCURVE_S1.);
#27 = B_SPLINE_CURVE_WITH_KNOTS('',1,(#28,#29,#30,#31,#32,#33,#34,#35,
    #36),.UNSPECIFIED.,.F.,.F.,(2,1,1,1,1,1,1,1,2),(0.,
    3.096625797868E-02,0.10095625561,0.173150390534,0.393242305921,
    0.477273927309,0.518251384988,0.801125946638,1.),.UNSPECIFIED.);
#28 = CARTESIAN_POINT('',(0.,-0.,0.));
#29 = CARTESIAN_POINT('',(3.096391842076E-02,9.337192050169E-04,0.));
#30 = CARTESIAN_POINT('',(0.100878970731,-2.834413373691E-03,0.));
#31 = CARTESIAN_POINT('',(0.173034511573,2.513958907713E-04,0.));
#32 = CARTESIAN_POINT('',(0.393198555763,-1.97733302817E-03,0.));
#33 = CARTESIAN_POINT('',(0.477260920616,-1.546820881152E-03,0.));
#34 = CARTESIAN_POINT('',(0.518178331164,-4.034893505601E-03,0.));
#35 = CARTESIAN_POINT('',(0.801072987194,2.985955371102E-03,0.));
#36 = CARTESIAN_POINT('',(1.,-0.,0.));
#37 = PCURVE('',#38,#43);
#38 = PLANE('',#39);
#39 = AXIS2_PLACEMENT_3D('',#40,#41,#42);
#40 = CARTESIAN_POINT('',(0.499951465577,6.25E-02,0.));
#41 = DIRECTION('',(0.,0.,1.));
#42 = DIRECTION('',(1.,0.,-0.));
#43 = DEFINITIONAL_REPRESENTATION('',(#44),#54);
#44 = B_SPLINE_CURVE_WITH_KNOTS('',1,(#45,#46,#47,#48,#49,#50,#51,#52,
    #53),.UNSPECIFIED.,.F.,.F.,(2,1,1,1,1,1,1,1,2),(0.,
    3.096625797868E-02,0.10095625561,0.173150390534,0.393242305921,
    0.477273927309,0.518251384988,0.801125946638,1.),.UNSPECIFIED.);
#45 = CARTESIAN_POINT('',(-0.499951465577,-6.25E-02));
#46 = CARTESIAN_POINT('',(-0.468987547156,-6.156628079498E-02));
#47 = CARTESIAN_POINT('',(-0.399072494846,-6.533441337369E-02));
#48 = CARTESIAN_POINT('',(-0.326916954004,-6.224860410923E-02));
#49 = CARTESIAN_POINT('',(-0.106752909814,-6.447733302817E-02));
#50 = CARTESIAN_POINT('',(-2.269054496073E-02,-6.404682088115E-02));
#51 = CARTESIAN_POINT('',(1.822686558649E-02,-6.65348935056E-02));
#52 = CARTESIAN_POINT('',(0.301121521617,-5.95140446289E-02));
#53 = CARTESIAN_POINT('',(0.500048534423,-6.25E-02));
#54 = ( GEOMETRIC_REPRESENTATION_CONTEXT(2) 
PARAMETRIC_REPRESENTATION_CONTEXT() REPRESENTATION_CONTEXT('2D SPACE',''
  ) );
#55 = ORIENTED_EDGE('',*,*,#56,.T.);
#56 = EDGE_CURVE('',#24,#57,#59,.T.);
#57 = VERTEX_POINT('',#58);
#58 = CARTESIAN_POINT('',(1.,0.125,0.));
#59 = SURFACE_CURVE('',#60,(#64),.PCURVE_S1.);
#60 = LINE('',#61,#62);
#61 = CARTESIAN_POINT('',(1.,-0.,0.));
#62 = VECTOR('',#63,1.);
#63 = DIRECTION('',(0.,1.,0.));
#64 = PCURVE('',#38,#65);
#65 = DEFINITIONAL_REPRESENTATION('',(#66),#70);
#66 = LINE('',#67,#68);
#67 = CARTESIAN_POINT('',(0.500048534423,-6.25E-02));
#68 = VECTOR('',#69,1.);
#69 = DIRECTION('',(0.,1.));
#70 = ( GEOMETRIC_REPRESENTATION_CONTEXT(2) 
PARAMETRIC_REPRESENTATION_CONTEXT() REPRESENTATION_CONTEXT('2D SPACE',''
  ) );
#71 = ORIENTED_EDGE('',*,*,#72,.T.);
#72 = EDGE_CURVE('',#57,#73,#75,.T.);
#73 = VERTEX_POINT('',#74);
#74 = CARTESIAN_POINT('',(0.,0.125,0.));
#75 = SURFACE_CURVE('',#76,(#86),.PCURVE_S1.);
#76 = B_SPLINE_CURVE_WITH_KNOTS('',1,(#77,#78,#79,#80,#81,#82,#83,#84,
    #85),.UNSPECIFIED.,.F.,.F.,(2,1,1,1,1,1,1,1,2),(0.,0.198874053362,
    0.481748615012,0.522726072691,0.606757694079,0.826849609466,
    0.89904374439,0.969033742021,1.),.UNSPECIFIED.);
#77 = CARTESIAN_POINT('',(1.,0.125,0.));
#78 = CARTESIAN_POINT('',(0.801072987194,0.122014044629,0.));
#79 = CARTESIAN_POINT('',(0.518178331164,0.129034893506,0.));
#80 = CARTESIAN_POINT('',(0.477260920616,0.126546820881,0.));
#81 = CARTESIAN_POINT('',(0.393198555763,0.126977333028,0.));
#82 = CARTESIAN_POINT('',(0.173034511573,0.124748604109,0.));
#83 = CARTESIAN_POINT('',(0.100878970731,0.127834413374,0.));
#84 = CARTESIAN_POINT('',(3.096391842076E-02,0.124066280795,0.));
#85 = CARTESIAN_POINT('',(0.,0.125,0.));
#86 = PCURVE('',#38,#87);
#87 = DEFINITIONAL_REPRESENTATION('',(#88),#98);
#88 = B_SPLINE_CURVE_WITH_KNOTS('',1,(#89,#90,#91,#92,#93,#94,#95,#96,
    #97),.UNSPECIFIED.,.F.,.F.,(2,1,1,1,1,1,1,1,2),(0.,0.198874053362,
    0.481748615012,0.522726072691,0.606757694079,0.826849609466,
    0.89904374439,0.969033742021,1.),.UNSPECIFIED.);
#89 = CARTESIAN_POINT('',(0.500048534423,6.25E-02));
#90 = CARTESIAN_POINT('',(0.301121521617,5.95140446289E-02));
#91 = CARTESIAN_POINT('',(1.822686558649E-02,6.65348935056E-02));
#92 = CARTESIAN_POINT('',(-2.269054496073E-02,6.404682088115E-02));
#93 = CARTESIAN_POINT('',(-0.106752909814,6.447733302817E-02));
#94 = CARTESIAN_POINT('',(-0.326916954004,6.224860410923E-02));
#95 = CARTESIAN_POINT('',(-0.399072494846,6.533441337369E-02));
#96 = CARTESIAN_POINT('',(-0.468987547156,6.156628079498E-02));
#97 = CARTESIAN_POINT('',(-0.499951465577,6.25E-02));
#98 = ( GEOMETRIC_REPRESENTATION_CONTEXT(2) 
PARAMETRIC_REPRESENTATION_CONTEXT() REPRESENTATION_CONTEXT('2D SPACE',''
  ) );
#99 = ORIENTED_EDGE('',*,*,#100,.T.);
#100 = EDGE_CURVE('',#73,#22,#101,.T.);
#101 = SURFACE_CURVE('',#102,(#106),.PCURVE_S1.);
#102 = LINE('',#103,#104);
#103 = CARTESIAN_POINT('',(0.,0.125,0.));
#104 = VECTOR('',#105,1.);
#105 = DIRECTION('',(0.,-1.,0.));
#106 = PCURVE('',#38,#107);
#107 = DEFINITIONAL_REPRESENTATION('',(#108),#112);
#108 = LINE('',#109,#110);
#109 = CARTESIAN_POINT('',(-0.499951465577,6.25E-02));
#110 = VECTOR('',#111,1.);
#111 = DIRECTION('',(0.,-1.));
#112 = ( GEOMETRIC_REPRESENTATION_CONTEXT(2) 
PARAMETRIC_REPRESENTATION_CONTEXT() REPRESENTATION_CONTEXT('2D SPACE',''
  ) );
#113 = ( GEOMETRIC_REPRESENTATION_CONTEXT(3) 
GLOBAL_UNCERTAINTY_ASSIGNED_CONTEXT((#117)) GLOBAL_UNIT_ASSIGNED_CONTEXT
((#114,#115,#116)) REPRESENTATION_CONTEXT('Context #1',
  '3D Context with UNIT and UNCERTAINTY') );
#114 = ( LENGTH_UNIT() NAMED_UNIT(*) SI_UNIT(.MILLI.,.METRE.) );
#115 = ( NAMED_UNIT(*) PLANE_ANGLE_UNIT() SI_UNIT($,.RADIAN.) );
#116 = ( NAMED_UNIT(*) SI_UNIT($,.STERADIAN.) SOLID_ANGLE_UNIT() );
#117 = UNCERTAINTY_MEASURE_WITH_UNIT(LENGTH_MEASURE(1.E-07),#114,
  'distance_accuracy_value','confusion accuracy');
#118 = PRODUCT_RELATED_PRODUCT_CATEGORY('part',$,(#7));
ENDSEC;
END-ISO-10303-21;
