ISO-10303-21;
HEADER;
FILE_DESCRIPTION(('Open CASCADE Model'),'2;1');
FILE_NAME('Open CASCADE Shape Model','2026-07-21T00:13:24',('Author'),(
    'Open CASCADE'),'Open CASCADE STEP processor 7.9','Open CASCADE 7.9'
  ,'Unknown');
FILE_SCHEMA(('AUTOMOTIVE_DESIGN { 1 0 10303 214 1 1 1 1 }'));
ENDSEC;
DATA;
#1 = APPLICATION_PROTOCOL_DEFINITION('international standard',
  'automotive_design',2000,#2);
#2 = APPLICATION_CONTEXT(
  'core data for automotive mechanical design processes');
#3 = SHAPE_DEFINITION_REPRESENTATION(#4,#10);
#4 = PRODUCT_DEFINITION_SHAPE('','',#5);
#5 = PRODUCT_DEFINITION('design','',#6,#9);
#6 = PRODUCT_DEFINITION_FORMATION('','',#7);
#7 = PRODUCT('Open CASCADE STEP translator 7.9 33',
  'Open CASCADE STEP translator 7.9 33','',(#8));
#8 = PRODUCT_CONTEXT('',#2,'mechanical');
#9 = PRODUCT_DEFINITION_CONTEXT('part definition',#2,'design');
#10 = MANIFOLD_SURFACE_SHAPE_REPRESENTATION('',(#11,#15),#161);
#11 = AXIS2_PLACEMENT_3D('',#12,#13,#14);
#12 = CARTESIAN_POINT('',(0.,0.,0.));
#13 = DIRECTION('',(0.,0.,1.));
#14 = DIRECTION('',(1.,0.,-0.));
#15 = SHELL_BASED_SURFACE_MODEL('',(#16));
#16 = OPEN_SHELL('',(#17));
#17 = ADVANCED_FACE('',(#18),#50,.T.);
#18 = FACE_BOUND('',#19,.T.);
#19 = EDGE_LOOP('',(#20,#79,#95,#147));
#20 = ORIENTED_EDGE('',*,*,#21,.T.);
#21 = EDGE_CURVE('',#22,#24,#26,.T.);
#22 = VERTEX_POINT('',#23);
#23 = CARTESIAN_POINT('',(0.,0.,0.));
#24 = VERTEX_POINT('',#25);
#25 = CARTESIAN_POINT('',(1.,0.,0.));
#26 = SURFACE_CURVE('',#27,(#49),.PCURVE_S1.);
#27 = B_SPLINE_CURVE_WITH_KNOTS('',1,(#28,#29,#30,#31,#32,#33,#34,#35,
    #36,#37,#38,#39,#40,#41,#42,#43,#44,#45,#46,#47,#48),.UNSPECIFIED.,
  .F.,.F.,(2,1,1,1,1,1,1,1,1,1,1,1,1,1,1,1,1,1,1,1,2),(0.,
    2.75519501435E-02,7.227573301899E-02,0.15751097074,0.224848573496,
    0.23683679427,0.2489125071,0.291977382617,0.383293194373,
    0.443970523273,0.465777426088,0.563354515317,0.755434218221,
    0.787771170768,0.832887952394,0.874683722699,0.903398119143,
    0.936508574588,0.965773871889,0.986689891037,1.),.UNSPECIFIED.);
#28 = CARTESIAN_POINT('',(0.,-0.,0.));
#29 = CARTESIAN_POINT('',(2.764984516399E-02,4.672008349984E-04,0.));
#30 = CARTESIAN_POINT('',(7.250233216881E-02,-1.345402649518E-03,0.));
#31 = CARTESIAN_POINT('',(0.158003039285,1.567075376211E-03,0.));
#32 = CARTESIAN_POINT('',(0.225585149435,7.961822849472E-04,0.));
#33 = CARTESIAN_POINT('',(0.236343790418,-4.592092728446E-03,0.));
#34 = CARTESIAN_POINT('',(0.248285639652,-2.519631215749E-03,0.));
#35 = CARTESIAN_POINT('',(0.29145811538,-4.085663694495E-04,0.));
#36 = CARTESIAN_POINT('',(0.383075615786,2.154591248882E-03,0.));
#37 = CARTESIAN_POINT('',(0.443668489728,-3.96996798773E-03,0.));
#38 = CARTESIAN_POINT('',(0.464531182013,2.649028831193E-03,0.));
#39 = CARTESIAN_POINT('',(0.562464793218,1.746572694833E-03,0.));
#40 = CARTESIAN_POINT('',(0.755166102692,-4.090648144229E-03,0.));
#41 = CARTESIAN_POINT('',(0.787399927176,-2.954205528507E-04,0.));
#42 = CARTESIAN_POINT('',(0.832633460004,-2.42317949418E-03,0.));
#43 = CARTESIAN_POINT('',(0.874556330607,-9.074479416377E-04,0.));
#44 = CARTESIAN_POINT('',(0.903370045881,-1.534392090095E-03,0.));
#45 = CARTESIAN_POINT('',(0.936413749255,2.006167084852E-03,0.));
#46 = CARTESIAN_POINT('',(0.965781492567,2.586279383733E-03,0.));
#47 = CARTESIAN_POINT('',(0.986759146139,1.775076528313E-03,0.));
#48 = CARTESIAN_POINT('',(1.,-0.,0.));
#49 = PCURVE('',#50,#55);
#50 = PLANE('',#51);
#51 = AXIS2_PLACEMENT_3D('',#52,#53,#54);
#52 = CARTESIAN_POINT('',(0.499756472694,5.E-02,0.));
#53 = DIRECTION('',(0.,0.,1.));
#54 = DIRECTION('',(1.,0.,-0.));
#55 = DEFINITIONAL_REPRESENTATION('',(#56),#78);
#56 = B_SPLINE_CURVE_WITH_KNOTS('',1,(#57,#58,#59,#60,#61,#62,#63,#64,
    #65,#66,#67,#68,#69,#70,#71,#72,#73,#74,#75,#76,#77),.UNSPECIFIED.,
  .F.,.F.,(2,1,1,1,1,1,1,1,1,1,1,1,1,1,1,1,1,1,1,1,2),(0.,
    2.75519501435E-02,7.227573301899E-02,0.15751097074,0.224848573496,
    0.23683679427,0.2489125071,0.291977382617,0.383293194373,
    0.443970523273,0.465777426088,0.563354515317,0.755434218221,
    0.787771170768,0.832887952394,0.874683722699,0.903398119143,
    0.936508574588,0.965773871889,0.986689891037,1.),.UNSPECIFIED.);
#57 = CARTESIAN_POINT('',(-0.499756472694,-5.E-02));
#58 = CARTESIAN_POINT('',(-0.47210662753,-4.9532799165E-02));
#59 = CARTESIAN_POINT('',(-0.427254140525,-5.134540264952E-02));
#60 = CARTESIAN_POINT('',(-0.341753433408,-4.843292462379E-02));
#61 = CARTESIAN_POINT('',(-0.274171323259,-4.920381771505E-02));
#62 = CARTESIAN_POINT('',(-0.263412682276,-5.459209272845E-02));
#63 = CARTESIAN_POINT('',(-0.251470833042,-5.251963121575E-02));
#64 = CARTESIAN_POINT('',(-0.208298357314,-5.040856636945E-02));
#65 = CARTESIAN_POINT('',(-0.116680856908,-4.784540875112E-02));
#66 = CARTESIAN_POINT('',(-5.608798296563E-02,-5.396996798773E-02));
#67 = CARTESIAN_POINT('',(-3.522529068093E-02,-4.735097116881E-02));
#68 = CARTESIAN_POINT('',(6.270832052419E-02,-4.825342730517E-02));
#69 = CARTESIAN_POINT('',(0.255409629998,-5.409064814423E-02));
#70 = CARTESIAN_POINT('',(0.287643454482,-5.029542055285E-02));
#71 = CARTESIAN_POINT('',(0.332876987311,-5.242317949418E-02));
#72 = CARTESIAN_POINT('',(0.374799857913,-5.090744794164E-02));
#73 = CARTESIAN_POINT('',(0.403613573187,-5.153439209009E-02));
#74 = CARTESIAN_POINT('',(0.436657276561,-4.799383291515E-02));
#75 = CARTESIAN_POINT('',(0.466025019873,-4.741372061627E-02));
#76 = CARTESIAN_POINT('',(0.487002673446,-4.822492347169E-02));
#77 = CARTESIAN_POINT('',(0.500243527306,-5.E-02));
#78 = ( GEOMETRIC_REPRESENTATION_CONTEXT(2) 
PARAMETRIC_REPRESENTATION_CONTEXT() REPRESENTATION_CONTEXT('2D SPACE',''
  ) );
#79 = ORIENTED_EDGE('',*,*,#80,.T.);
#80 = EDGE_CURVE('',#24,#81,#83,.T.);
#81 = VERTEX_POINT('',#82);
#82 = CARTESIAN_POINT('',(1.,0.1,0.));
#83 = SURFACE_CURVE('',#84,(#88),.PCURVE_S1.);
#84 = LINE('',#85,#86);
#85 = CARTESIAN_POINT('',(1.,-0.,0.));
#86 = VECTOR('',#87,1.);
#87 = DIRECTION('',(0.,1.,0.));
#88 = PCURVE('',#50,#89);
#89 = DEFINITIONAL_REPRESENTATION('',(#90),#94);
#90 = LINE('',#91,#92);
#91 = CARTESIAN_POINT('',(0.500243527306,-5.E-02));
#92 = VECTOR('',#93,1.);
#93 = DIRECTION('',(0.,1.));
#94 = ( GEOMETRIC_REPRESENTATION_CONTEXT(2) 
PARAMETRIC_REPRESENTATION_CONTEXT() REPRESENTATION_CONTEXT('2D SPACE',''
  ) );
#95 = ORIENTED_EDGE('',*,*,#96,.T.);
#96 = EDGE_CURVE('',#81,#97,#99,.T.);
#97 = VERTEX_POINT('',#98);
#98 = CARTESIAN_POINT('',(0.,0.1,0.));
#99 = SURFACE_CURVE('',#100,(#122),.PCURVE_S1.);
#100 = B_SPLINE_CURVE_WITH_KNOTS('',1,(#101,#102,#103,#104,#105,#106,
    #107,#108,#109,#110,#111,#112,#113,#114,#115,#116,#117,#118,#119,
    #120,#121),.UNSPECIFIED.,.F.,.F.,(2,1,1,1,1,1,1,1,1,1,1,1,1,1,1,1,1,
    1,1,1,2),(0.,1.331010896264E-02,3.422612811107E-02,
    6.349142541182E-02,9.660188085702E-02,0.125316277301,0.167112047606,
    0.212228829232,0.244565781779,0.436645484683,0.534222573912,
    0.556029476727,0.616706805627,0.708022617383,0.7510874929,
    0.76316320573,0.775151426504,0.84248902926,0.927724266981,
    0.972448049856,1.),.UNSPECIFIED.);
#101 = CARTESIAN_POINT('',(1.,0.1,0.));
#102 = CARTESIAN_POINT('',(0.986759146139,9.822492347169E-02,0.));
#103 = CARTESIAN_POINT('',(0.965781492567,9.741372061627E-02,0.));
#104 = CARTESIAN_POINT('',(0.936413749255,9.799383291515E-02,0.));
#105 = CARTESIAN_POINT('',(0.903370045881,0.10153439209,0.));
#106 = CARTESIAN_POINT('',(0.874556330607,0.100907447942,0.));
#107 = CARTESIAN_POINT('',(0.832633460004,0.102423179494,0.));
#108 = CARTESIAN_POINT('',(0.787399927176,0.100295420553,0.));
#109 = CARTESIAN_POINT('',(0.755166102692,0.104090648144,0.));
#110 = CARTESIAN_POINT('',(0.562464793218,9.825342730517E-02,0.));
#111 = CARTESIAN_POINT('',(0.464531182013,9.735097116881E-02,0.));
#112 = CARTESIAN_POINT('',(0.443668489728,0.103969967988,0.));
#113 = CARTESIAN_POINT('',(0.383075615786,9.784540875112E-02,0.));
#114 = CARTESIAN_POINT('',(0.29145811538,0.100408566369,0.));
#115 = CARTESIAN_POINT('',(0.248285639652,0.102519631216,0.));
#116 = CARTESIAN_POINT('',(0.236343790418,0.104592092728,0.));
#117 = CARTESIAN_POINT('',(0.225585149435,9.920381771505E-02,0.));
#118 = CARTESIAN_POINT('',(0.158003039285,9.843292462379E-02,0.));
#119 = CARTESIAN_POINT('',(7.250233216881E-02,0.10134540265,0.));
#120 = CARTESIAN_POINT('',(2.764984516399E-02,9.9532799165E-02,0.));
#121 = CARTESIAN_POINT('',(0.,0.1,0.));
#122 = PCURVE('',#50,#123);
#123 = DEFINITIONAL_REPRESENTATION('',(#124),#146);
#124 = B_SPLINE_CURVE_WITH_KNOTS('',1,(#125,#126,#127,#128,#129,#130,
    #131,#132,#133,#134,#135,#136,#137,#138,#139,#140,#141,#142,#143,
    #144,#145),.UNSPECIFIED.,.F.,.F.,(2,1,1,1,1,1,1,1,1,1,1,1,1,1,1,1,1,
    1,1,1,2),(0.,1.331010896264E-02,3.422612811107E-02,
    6.349142541182E-02,9.660188085702E-02,0.125316277301,0.167112047606,
    0.212228829232,0.244565781779,0.436645484683,0.534222573912,
    0.556029476727,0.616706805627,0.708022617383,0.7510874929,
    0.76316320573,0.775151426504,0.84248902926,0.927724266981,
    0.972448049856,1.),.UNSPECIFIED.);
#125 = CARTESIAN_POINT('',(0.500243527306,5.E-02));
#126 = CARTESIAN_POINT('',(0.487002673446,4.822492347169E-02));
#127 = CARTESIAN_POINT('',(0.466025019873,4.741372061627E-02));
#128 = CARTESIAN_POINT('',(0.436657276561,4.799383291515E-02));
#129 = CARTESIAN_POINT('',(0.403613573187,5.153439209009E-02));
#130 = CARTESIAN_POINT('',(0.374799857913,5.090744794164E-02));
#131 = CARTESIAN_POINT('',(0.332876987311,5.242317949418E-02));
#132 = CARTESIAN_POINT('',(0.287643454482,5.029542055285E-02));
#133 = CARTESIAN_POINT('',(0.255409629998,5.409064814423E-02));
#134 = CARTESIAN_POINT('',(6.270832052419E-02,4.825342730517E-02));
#135 = CARTESIAN_POINT('',(-3.522529068093E-02,4.735097116881E-02));
#136 = CARTESIAN_POINT('',(-5.608798296563E-02,5.396996798773E-02));
#137 = CARTESIAN_POINT('',(-0.116680856908,4.784540875112E-02));
#138 = CARTESIAN_POINT('',(-0.208298357314,5.040856636945E-02));
#139 = CARTESIAN_POINT('',(-0.251470833042,5.251963121575E-02));
#140 = CARTESIAN_POINT('',(-0.263412682276,5.459209272845E-02));
#141 = CARTESIAN_POINT('',(-0.274171323259,4.920381771505E-02));
#142 = CARTESIAN_POINT('',(-0.341753433408,4.843292462379E-02));
#143 = CARTESIAN_POINT('',(-0.427254140525,5.134540264952E-02));
#144 = CARTESIAN_POINT('',(-0.47210662753,4.9532799165E-02));
#145 = CARTESIAN_POINT('',(-0.499756472694,5.E-02));
#146 = ( GEOMETRIC_REPRESENTATION_CONTEXT(2) 
PARAMETRIC_REPRESENTATION_CONTEXT() REPRESENTATION_CONTEXT('2D SPACE',''
  ) );
#147 = ORIENTED_EDGE('',*,*,#148,.T.);
#148 = EDGE_CURVE('',#97,#22,#149,.T.);
#149 = SURFACE_CURVE('',#150,(#154),.PCURVE_S1.);
#150 = LINE('',#151,#152);
#151 = CARTESIAN_POINT('',(0.,0.1,0.));
#152 = VECTOR('',#153,1.);
#153 = DIRECTION('',(0.,-1.,0.));
#154 = PCURVE('',#50,#155);
#155 = DEFINITIONAL_REPRESENTATION('',(#156),#160);
#156 = LINE('',#157,#158);
#157 = CARTESIAN_POINT('',(-0.499756472694,5.E-02));
#158 = VECTOR('',#159,1.);
#159 = DIRECTION('',(0.,-1.));
#160 = ( GEOMETRIC_REPRESENTATION_CONTEXT(2) 
PARAMETRIC_REPRESENTATION_CONTEXT() REPRESENTATION_CONTEXT('2D SPACE',''
  ) );
#161 = ( GEOMETRIC_REPRESENTATION_CONTEXT(3) 
GLOBAL_UNCERTAINTY_ASSIGNED_CONTEXT((#165)) GLOBAL_UNIT_ASSIGNED_CONTEXT
((#162,#163,#164)) REPRESENTATION_CONTEXT('Context #1',
  '3D Context with UNIT and UNCERTAINTY') );
#162 = ( LENGTH_UNIT() NAMED_UNIT(*) SI_UNIT(.MILLI.,.METRE.) );
#163 = ( NAMED_UNIT(*) PLANE_ANGLE_UNIT() SI_UNIT($,.RADIAN.) );
#164 = ( NAMED_UNIT(*) SI_UNIT($,.STERADIAN.) SOLID_ANGLE_UNIT() );
#165 = UNCERTAINTY_MEASURE_WITH_UNIT(LENGTH_MEASURE(1.E-07),#162,
  'distance_accuracy_value','confusion accuracy');
#166 = PRODUCT_RELATED_PRODUCT_CATEGORY('part',$,(#7));
ENDSEC;
END-ISO-10303-21;
