ISO-10303-21;
HEADER;
FILE_DESCRIPTION(('Open CASCADE Model'),'2;1');
FILE_NAME('Open CASCADE Shape Model','2026-08-17T20:30:05',('Author'),(
    'Open CASCADE'),'Open CASCADE STEP processor 7.9','Open CASCADE 7.9'
  ,'Unknown');
FILE_SCHEMA(('AUTOMOTIVE_DESIGN { 1 0 10303 214 1 1 1 1 }'));
ENDSEC;
DATA;
#1 = APPLICATION_PROTOCOL_DEFINITION('international standard',
  'automotive_design',2000,#2);
#2 = APPLICATION_CONTEXT(
  'core data for automotive mechanical design processes');
#3 = SHAPE_DEFINITION_REPRESENTATION(#4,#10);
#4 = PRODUCT_DEFINITION_SHAPE('','',#5);
#5 = PRODUCT_DEFINITION('design','',#6,#9);
#6 = PRODUCT_DEFINITION_FORMATION('','',#7);
#7 = PRODUCT('Open CASCADE STEP translator 7.9 53',
  'Open CASCADE STEP translator 7.9 53','',(#8));
#8 = PRODUCT_CONTEXT('',#2,'mechanical');
#9 = PRODUCT_DEFINITION_CONTEXT('part definition',#2,'design');
#10 = MANIFOLD_SURFACE_SHAPE_REPRESENTATION('',(#11,#15),#145);
#11 = AXIS2_PLACEMENT_3D('',#12,#13,#14);
#12 = CARTESIAN_POINT('',(0.,0.,0.));
#13 = DIRECTION('',(0.,0.,1.));
#14 = DIRECTION('',(1.,0.,-0.));
#15 = SHELL_BASED_SURFACE_MODEL('',(#16));
#16 = OPEN_SHELL('',(#17));
#17 = ADVANCED_FACE('',(#18),#46,.T.);
#18 = FACE_BOUND('',#19,.T.);
#19 = EDGE_LOOP('',(#20,#71,#87,#131));
#20 = ORIENTED_EDGE('',*,*,#21,.T.);
#21 = EDGE_CURVE('',#22,#24,#26,.T.);
#22 = VERTEX_POINT('',#23);
#23 = CARTESIAN_POINT('',(0.,0.,0.));
#24 = VERTEX_POINT('',#25);
#25 = CARTESIAN_POINT('',(1.,0.,0.));
#26 = SURFACE_CURVE('',#27,(#45),.PCURVE_S1.);
#27 = B_SPLINE_CURVE_WITH_KNOTS('',1,(#28,#29,#30,#31,#32,#33,#34,#35,
    #36,#37,#38,#39,#40,#41,#42,#43,#44),.UNSPECIFIED.,.F.,.F.,(2,1,1,1,
    1,1,1,1,1,1,1,1,1,1,1,1,2),(0.,1.441893006126E-02,3.397306695092E-02
    ,6.561540546613E-02,8.574566649982E-02,0.107986995336,0.131930620096
    ,0.337977661858,0.490571797642,0.539359606459,0.77799743661,
    0.801142912432,0.822191012659,0.907455889644,0.942887518861,
    0.981048635896,1.),.UNSPECIFIED.);
#28 = CARTESIAN_POINT('',(0.,-0.,0.));
#29 = CARTESIAN_POINT('',(1.36650340938E-02,4.728061737243E-03,0.));
#30 = CARTESIAN_POINT('',(3.268407510844E-02,-4.839363768727E-05,0.));
#31 = CARTESIAN_POINT('',(6.431984005378E-02,-2.520061539117E-03,0.));
#32 = CARTESIAN_POINT('',(8.44806903201E-02,-1.484828980575E-03,0.));
#33 = CARTESIAN_POINT('',(0.106709664973,-3.318458269741E-03,0.));
#34 = CARTESIAN_POINT('',(0.130594705464,-8.563744958944E-04,0.));
#35 = CARTESIAN_POINT('',(0.337186396319,-4.938534575901E-03,0.));
#36 = CARTESIAN_POINT('',(0.490205244002,-3.324787680911E-03,0.));
#37 = CARTESIAN_POINT('',(0.538565832653,4.093985520501E-03,0.));
#38 = CARTESIAN_POINT('',(0.777867299878,1.517891191111E-03,0.));
#39 = CARTESIAN_POINT('',(0.800882126151,4.530691076466E-03,0.));
#40 = CARTESIAN_POINT('',(0.82196923285,3.594986382973E-03,0.));
#41 = CARTESIAN_POINT('',(0.907443858681,1.244155987567E-03,0.));
#42 = CARTESIAN_POINT('',(0.942937961511,2.889573290758E-03,0.));
#43 = CARTESIAN_POINT('',(0.98120737975,2.834400701401E-03,0.));
#44 = CARTESIAN_POINT('',(1.,-0.,0.));
#45 = PCURVE('',#46,#51);
#46 = PLANE('',#47);
#47 = AXIS2_PLACEMENT_3D('',#48,#49,#50);
#48 = CARTESIAN_POINT('',(0.499424792582,3.125E-02,0.));
#49 = DIRECTION('',(0.,0.,1.));
#50 = DIRECTION('',(1.,0.,-0.));
#51 = DEFINITIONAL_REPRESENTATION('',(#52),#70);
#52 = B_SPLINE_CURVE_WITH_KNOTS('',1,(#53,#54,#55,#56,#57,#58,#59,#60,
    #61,#62,#63,#64,#65,#66,#67,#68,#69),.UNSPECIFIED.,.F.,.F.,(2,1,1,1,
    1,1,1,1,1,1,1,1,1,1,1,1,2),(0.,1.441893006126E-02,3.397306695092E-02
    ,6.561540546613E-02,8.574566649982E-02,0.107986995336,0.131930620096
    ,0.337977661858,0.490571797642,0.539359606459,0.77799743661,
    0.801142912432,0.822191012659,0.907455889644,0.942887518861,
    0.981048635896,1.),.UNSPECIFIED.);
#53 = CARTESIAN_POINT('',(-0.499424792582,-3.125E-02));
#54 = CARTESIAN_POINT('',(-0.485759758488,-2.652193826276E-02));
#55 = CARTESIAN_POINT('',(-0.466740717473,-3.129839363769E-02));
#56 = CARTESIAN_POINT('',(-0.435104952528,-3.377006153912E-02));
#57 = CARTESIAN_POINT('',(-0.414944102261,-3.273482898058E-02));
#58 = CARTESIAN_POINT('',(-0.392715127609,-3.456845826974E-02));
#59 = CARTESIAN_POINT('',(-0.368830087118,-3.210637449589E-02));
#60 = CARTESIAN_POINT('',(-0.162238396262,-3.61885345759E-02));
#61 = CARTESIAN_POINT('',(-9.219548579656E-03,-3.457478768091E-02));
#62 = CARTESIAN_POINT('',(3.91410400717E-02,-2.71560144795E-02));
#63 = CARTESIAN_POINT('',(0.278442507296,-2.973210880889E-02));
#64 = CARTESIAN_POINT('',(0.30145733357,-2.671930892353E-02));
#65 = CARTESIAN_POINT('',(0.322544440269,-2.765501361703E-02));
#66 = CARTESIAN_POINT('',(0.4080190661,-3.000584401243E-02));
#67 = CARTESIAN_POINT('',(0.443513168929,-2.836042670924E-02));
#68 = CARTESIAN_POINT('',(0.481782587168,-2.84155992986E-02));
#69 = CARTESIAN_POINT('',(0.500575207418,-3.125E-02));
#70 = ( GEOMETRIC_REPRESENTATION_CONTEXT(2) 
PARAMETRIC_REPRESENTATION_CONTEXT() REPRESENTATION_CONTEXT('2D SPACE',''
  ) );
#71 = ORIENTED_EDGE('',*,*,#72,.T.);
#72 = EDGE_CURVE('',#24,#73,#75,.T.);
#73 = VERTEX_POINT('',#74);
#74 = CARTESIAN_POINT('',(1.,6.25E-02,0.));
#75 = SURFACE_CURVE('',#76,(#80),.PCURVE_S1.);
#76 = LINE('',#77,#78);
#77 = CARTESIAN_POINT('',(1.,-0.,0.));
#78 = VECTOR('',#79,1.);
#79 = DIRECTION('',(0.,1.,0.));
#80 = PCURVE('',#46,#81);
#81 = DEFINITIONAL_REPRESENTATION('',(#82),#86);
#82 = LINE('',#83,#84);
#83 = CARTESIAN_POINT('',(0.500575207418,-3.125E-02));
#84 = VECTOR('',#85,1.);
#85 = DIRECTION('',(0.,1.));
#86 = ( GEOMETRIC_REPRESENTATION_CONTEXT(2) 
PARAMETRIC_REPRESENTATION_CONTEXT() REPRESENTATION_CONTEXT('2D SPACE',''
  ) );
#87 = ORIENTED_EDGE('',*,*,#88,.T.);
#88 = EDGE_CURVE('',#73,#89,#91,.T.);
#89 = VERTEX_POINT('',#90);
#90 = CARTESIAN_POINT('',(0.,6.25E-02,0.));
#91 = SURFACE_CURVE('',#92,(#110),.PCURVE_S1.);
#92 = B_SPLINE_CURVE_WITH_KNOTS('',1,(#93,#94,#95,#96,#97,#98,#99,#100,
    #101,#102,#103,#104,#105,#106,#107,#108,#109),.UNSPECIFIED.,.F.,.F.,
  (2,1,1,1,1,1,1,1,1,1,1,1,1,1,1,1,2),(0.,1.895136410368E-02,
    5.711248113881E-02,9.254411035634E-02,0.177808987341,0.198857087568,
    0.22200256339,0.460640393541,0.509428202358,0.662022338142,
    0.868069379904,0.892013004664,0.9142543335,0.934384594534,
    0.966026933049,0.985581069939,1.),.UNSPECIFIED.);
#93 = CARTESIAN_POINT('',(1.,6.25E-02,0.));
#94 = CARTESIAN_POINT('',(0.98120737975,5.96655992986E-02,0.));
#95 = CARTESIAN_POINT('',(0.942937961511,5.961042670924E-02,0.));
#96 = CARTESIAN_POINT('',(0.907443858681,6.125584401243E-02,0.));
#97 = CARTESIAN_POINT('',(0.82196923285,5.890501361703E-02,0.));
#98 = CARTESIAN_POINT('',(0.800882126151,5.796930892353E-02,0.));
#99 = CARTESIAN_POINT('',(0.777867299878,6.098210880889E-02,0.));
#100 = CARTESIAN_POINT('',(0.538565832653,5.84060144795E-02,0.));
#101 = CARTESIAN_POINT('',(0.490205244002,6.582478768091E-02,0.));
#102 = CARTESIAN_POINT('',(0.337186396319,6.74385345759E-02,0.));
#103 = CARTESIAN_POINT('',(0.130594705464,6.335637449589E-02,0.));
#104 = CARTESIAN_POINT('',(0.106709664973,6.581845826974E-02,0.));
#105 = CARTESIAN_POINT('',(8.44806903201E-02,6.398482898058E-02,0.));
#106 = CARTESIAN_POINT('',(6.431984005378E-02,6.502006153912E-02,0.));
#107 = CARTESIAN_POINT('',(3.268407510844E-02,6.254839363769E-02,0.));
#108 = CARTESIAN_POINT('',(1.36650340938E-02,5.777193826276E-02,0.));
#109 = CARTESIAN_POINT('',(0.,6.25E-02,0.));
#110 = PCURVE('',#46,#111);
#111 = DEFINITIONAL_REPRESENTATION('',(#112),#130);
#112 = B_SPLINE_CURVE_WITH_KNOTS('',1,(#113,#114,#115,#116,#117,#118,
    #119,#120,#121,#122,#123,#124,#125,#126,#127,#128,#129),
  .UNSPECIFIED.,.F.,.F.,(2,1,1,1,1,1,1,1,1,1,1,1,1,1,1,1,2),(0.,
    1.895136410368E-02,5.711248113881E-02,9.254411035634E-02,
    0.177808987341,0.198857087568,0.22200256339,0.460640393541,
    0.509428202358,0.662022338142,0.868069379904,0.892013004664,
    0.9142543335,0.934384594534,0.966026933049,0.985581069939,1.),
  .UNSPECIFIED.);
#113 = CARTESIAN_POINT('',(0.500575207418,3.125E-02));
#114 = CARTESIAN_POINT('',(0.481782587168,2.84155992986E-02));
#115 = CARTESIAN_POINT('',(0.443513168929,2.836042670924E-02));
#116 = CARTESIAN_POINT('',(0.4080190661,3.000584401243E-02));
#117 = CARTESIAN_POINT('',(0.322544440269,2.765501361703E-02));
#118 = CARTESIAN_POINT('',(0.30145733357,2.671930892353E-02));
#119 = CARTESIAN_POINT('',(0.278442507296,2.973210880889E-02));
#120 = CARTESIAN_POINT('',(3.91410400717E-02,2.71560144795E-02));
#121 = CARTESIAN_POINT('',(-9.219548579656E-03,3.457478768091E-02));
#122 = CARTESIAN_POINT('',(-0.162238396262,3.61885345759E-02));
#123 = CARTESIAN_POINT('',(-0.368830087118,3.210637449589E-02));
#124 = CARTESIAN_POINT('',(-0.392715127609,3.456845826974E-02));
#125 = CARTESIAN_POINT('',(-0.414944102261,3.273482898058E-02));
#126 = CARTESIAN_POINT('',(-0.435104952528,3.377006153912E-02));
#127 = CARTESIAN_POINT('',(-0.466740717473,3.129839363769E-02));
#128 = CARTESIAN_POINT('',(-0.485759758488,2.652193826276E-02));
#129 = CARTESIAN_POINT('',(-0.499424792582,3.125E-02));
#130 = ( GEOMETRIC_REPRESENTATION_CONTEXT(2) 
PARAMETRIC_REPRESENTATION_CONTEXT() REPRESENTATION_CONTEXT('2D SPACE',''
  ) );
#131 = ORIENTED_EDGE('',*,*,#132,.T.);
#132 = EDGE_CURVE('',#89,#22,#133,.T.);
#133 = SURFACE_CURVE('',#134,(#138),.PCURVE_S1.);
#134 = LINE('',#135,#136);
#135 = CARTESIAN_POINT('',(0.,6.25E-02,0.));
#136 = VECTOR('',#137,1.);
#137 = DIRECTION('',(0.,-1.,0.));
#138 = PCURVE('',#46,#139);
#139 = DEFINITIONAL_REPRESENTATION('',(#140),#144);
#140 = LINE('',#141,#142);
#141 = CARTESIAN_POINT('',(-0.499424792582,3.125E-02));
#142 = VECTOR('',#143,1.);
#143 = DIRECTION('',(0.,-1.));
#144 = ( GEOMETRIC_REPRESENTATION_CONTEXT(2) 
PARAMETRIC_REPRESENTATION_CONTEXT() REPRESENTATION_CONTEXT('2D SPACE',''
  ) );
#145 = ( GEOMETRIC_REPRESENTATION_CONTEXT(3) 
GLOBAL_UNCERTAINTY_ASSIGNED_CONTEXT((#149)) GLOBAL_UNIT_ASSIGNED_CONTEXT
((#146,#147,#148)) REPRESENTATION_CONTEXT('Context #1',
  '3D Context with UNIT and UNCERTAINTY') );
#146 = ( LENGTH_UNIT() NAMED_UNIT(*) SI_UNIT(.MILLI.,.METRE.) );
#147 = ( NAMED_UNIT(*) PLANE_ANGLE_UNIT() SI_UNIT($,.RADIAN.) );
#148 = ( NAMED_UNIT(*) SI_UNIT($,.STERADIAN.) SOLID_ANGLE_UNIT() );
#149 = UNCERTAINTY_MEASURE_WITH_UNIT(LENGTH_MEASURE(1.E-07),#146,
  'distance_accuracy_value','confusion accuracy');
#150 = PRODUCT_RELATED_PRODUCT_CATEGORY('part',$,(#7));
ENDSEC;
END-ISO-10303-21;
