ISO-10303-21;
HEADER;
FILE_DESCRIPTION(('Open CASCADE Model'),'2;1');
FILE_NAME('Open CASCADE Shape Model','2026-08-17T20:30:04',('Author'),(
    'Open CASCADE'),'Open CASCADE STEP processor 7.9','Open CASCADE 7.9'
  ,'Unknown');
FILE_SCHEMA(('AUTOMOTIVE_DESIGN { 1 0 10303 214 1 1 1 1 }'));
ENDSEC;
DATA;
#1 = APPLICATION_PROTOCOL_DEFINITION('international standard',
  'automotive_design',2000,#2);
#2 = APPLICATION_CONTEXT(
  'core data for automotive mechanical design processes');
#3 = SHAPE_DEFINITION_REPRESENTATION(#4,#10);
#4 = PRODUCT_DEFINITION_SHAPE('','',#5);
#5 = PRODUCT_DEFINITION('design','',#6,#9);
#6 = PRODUCT_DEFINITION_FORMATION('','',#7);
#7 = PRODUCT('Open CASCADE STEP translator 7.9 38',
  'Open CASCADE STEP translator 7.9 38','',(#8));
#8 = PRODUCT_CONTEXT('',#2,'mechanical');
#9 = PRODUCT_DEFINITION_CONTEXT('part definition',#2,'design');
#10 = MANIFOLD_SURFACE_SHAPE_REPRESENTATION('',(#11,#15),#101);
#11 = AXIS2_PLACEMENT_3D('',#12,#13,#14);
#12 = CARTESIAN_POINT('',(0.,0.,0.));
#13 = DIRECTION('',(0.,0.,1.));
#14 = DIRECTION('',(1.,0.,-0.));
#15 = SHELL_BASED_SURFACE_MODEL('',(#16));
#16 = OPEN_SHELL('',(#17));
#17 = ADVANCED_FACE('',(#18),#35,.T.);
#18 = FACE_BOUND('',#19,.T.);
#19 = EDGE_LOOP('',(#20,#49,#65,#87));
#20 = ORIENTED_EDGE('',*,*,#21,.T.);
#21 = EDGE_CURVE('',#22,#24,#26,.T.);
#22 = VERTEX_POINT('',#23);
#23 = CARTESIAN_POINT('',(0.,0.,0.));
#24 = VERTEX_POINT('',#25);
#25 = CARTESIAN_POINT('',(1.,0.,0.));
#26 = SURFACE_CURVE('',#27,(#34),.PCURVE_S1.);
#27 = B_SPLINE_CURVE_WITH_KNOTS('',1,(#28,#29,#30,#31,#32,#33),
  .UNSPECIFIED.,.F.,.F.,(2,1,1,1,1,2),(0.,0.112766525274,0.153897346715,
    0.729011852448,0.839041733022,1.),.UNSPECIFIED.);
#28 = CARTESIAN_POINT('',(0.,-0.,0.));
#29 = CARTESIAN_POINT('',(0.112831375664,2.402010492028E-04,0.));
#30 = CARTESIAN_POINT('',(0.153771001051,4.440864832717E-03,0.));
#31 = CARTESIAN_POINT('',(0.729217535519,4.573210201788E-03,0.));
#32 = CARTESIAN_POINT('',(0.838993268391,-3.784220975847E-03,0.));
#33 = CARTESIAN_POINT('',(1.,-0.,0.));
#34 = PCURVE('',#35,#40);
#35 = PLANE('',#36);
#36 = AXIS2_PLACEMENT_3D('',#37,#38,#39);
#37 = CARTESIAN_POINT('',(0.50002496475,1.E-01,0.));
#38 = DIRECTION('',(0.,0.,1.));
#39 = DIRECTION('',(1.,0.,-0.));
#40 = DEFINITIONAL_REPRESENTATION('',(#41),#48);
#41 = B_SPLINE_CURVE_WITH_KNOTS('',1,(#42,#43,#44,#45,#46,#47),
  .UNSPECIFIED.,.F.,.F.,(2,1,1,1,1,2),(0.,0.112766525274,0.153897346715,
    0.729011852448,0.839041733022,1.),.UNSPECIFIED.);
#42 = CARTESIAN_POINT('',(-0.50002496475,-1.E-01));
#43 = CARTESIAN_POINT('',(-0.387193589087,-9.97597989508E-02));
#44 = CARTESIAN_POINT('',(-0.346253963699,-9.555913516728E-02));
#45 = CARTESIAN_POINT('',(0.229192570769,-9.542678979821E-02));
#46 = CARTESIAN_POINT('',(0.338968303641,-0.103784220976));
#47 = CARTESIAN_POINT('',(0.49997503525,-1.E-01));
#48 = ( GEOMETRIC_REPRESENTATION_CONTEXT(2) 
PARAMETRIC_REPRESENTATION_CONTEXT() REPRESENTATION_CONTEXT('2D SPACE',''
  ) );
#49 = ORIENTED_EDGE('',*,*,#50,.T.);
#50 = EDGE_CURVE('',#24,#51,#53,.T.);
#51 = VERTEX_POINT('',#52);
#52 = CARTESIAN_POINT('',(1.,0.2,0.));
#53 = SURFACE_CURVE('',#54,(#58),.PCURVE_S1.);
#54 = LINE('',#55,#56);
#55 = CARTESIAN_POINT('',(1.,-0.,0.));
#56 = VECTOR('',#57,1.);
#57 = DIRECTION('',(0.,1.,0.));
#58 = PCURVE('',#35,#59);
#59 = DEFINITIONAL_REPRESENTATION('',(#60),#64);
#60 = LINE('',#61,#62);
#61 = CARTESIAN_POINT('',(0.49997503525,-1.E-01));
#62 = VECTOR('',#63,1.);
#63 = DIRECTION('',(0.,1.));
#64 = ( GEOMETRIC_REPRESENTATION_CONTEXT(2) 
PARAMETRIC_REPRESENTATION_CONTEXT() REPRESENTATION_CONTEXT('2D SPACE',''
  ) );
#65 = ORIENTED_EDGE('',*,*,#66,.T.);
#66 = EDGE_CURVE('',#51,#67,#69,.T.);
#67 = VERTEX_POINT('',#68);
#68 = CARTESIAN_POINT('',(0.,0.2,0.));
#69 = SURFACE_CURVE('',#70,(#77),.PCURVE_S1.);
#70 = B_SPLINE_CURVE_WITH_KNOTS('',1,(#71,#72,#73,#74,#75,#76),
  .UNSPECIFIED.,.F.,.F.,(2,1,1,1,1,2),(0.,0.160958266978,0.270988147552,
    0.846102653285,0.887233474726,1.),.UNSPECIFIED.);
#71 = CARTESIAN_POINT('',(1.,0.2,0.));
#72 = CARTESIAN_POINT('',(0.838993268391,0.203784220976,0.));
#73 = CARTESIAN_POINT('',(0.729217535519,0.195426789798,0.));
#74 = CARTESIAN_POINT('',(0.153771001051,0.195559135167,0.));
#75 = CARTESIAN_POINT('',(0.112831375664,0.199759798951,0.));
#76 = CARTESIAN_POINT('',(0.,0.2,0.));
#77 = PCURVE('',#35,#78);
#78 = DEFINITIONAL_REPRESENTATION('',(#79),#86);
#79 = B_SPLINE_CURVE_WITH_KNOTS('',1,(#80,#81,#82,#83,#84,#85),
  .UNSPECIFIED.,.F.,.F.,(2,1,1,1,1,2),(0.,0.160958266978,0.270988147552,
    0.846102653285,0.887233474726,1.),.UNSPECIFIED.);
#80 = CARTESIAN_POINT('',(0.49997503525,0.1));
#81 = CARTESIAN_POINT('',(0.338968303641,0.103784220976));
#82 = CARTESIAN_POINT('',(0.229192570769,9.542678979821E-02));
#83 = CARTESIAN_POINT('',(-0.346253963699,9.555913516728E-02));
#84 = CARTESIAN_POINT('',(-0.387193589087,9.97597989508E-02));
#85 = CARTESIAN_POINT('',(-0.50002496475,0.1));
#86 = ( GEOMETRIC_REPRESENTATION_CONTEXT(2) 
PARAMETRIC_REPRESENTATION_CONTEXT() REPRESENTATION_CONTEXT('2D SPACE',''
  ) );
#87 = ORIENTED_EDGE('',*,*,#88,.T.);
#88 = EDGE_CURVE('',#67,#22,#89,.T.);
#89 = SURFACE_CURVE('',#90,(#94),.PCURVE_S1.);
#90 = LINE('',#91,#92);
#91 = CARTESIAN_POINT('',(0.,0.2,0.));
#92 = VECTOR('',#93,1.);
#93 = DIRECTION('',(0.,-1.,0.));
#94 = PCURVE('',#35,#95);
#95 = DEFINITIONAL_REPRESENTATION('',(#96),#100);
#96 = LINE('',#97,#98);
#97 = CARTESIAN_POINT('',(-0.50002496475,0.1));
#98 = VECTOR('',#99,1.);
#99 = DIRECTION('',(0.,-1.));
#100 = ( GEOMETRIC_REPRESENTATION_CONTEXT(2) 
PARAMETRIC_REPRESENTATION_CONTEXT() REPRESENTATION_CONTEXT('2D SPACE',''
  ) );
#101 = ( GEOMETRIC_REPRESENTATION_CONTEXT(3) 
GLOBAL_UNCERTAINTY_ASSIGNED_CONTEXT((#105)) GLOBAL_UNIT_ASSIGNED_CONTEXT
((#102,#103,#104)) REPRESENTATION_CONTEXT('Context #1',
  '3D Context with UNIT and UNCERTAINTY') );
#102 = ( LENGTH_UNIT() NAMED_UNIT(*) SI_UNIT(.MILLI.,.METRE.) );
#103 = ( NAMED_UNIT(*) PLANE_ANGLE_UNIT() SI_UNIT($,.RADIAN.) );
#104 = ( NAMED_UNIT(*) SI_UNIT($,.STERADIAN.) SOLID_ANGLE_UNIT() );
#105 = UNCERTAINTY_MEASURE_WITH_UNIT(LENGTH_MEASURE(1.E-07),#102,
  'distance_accuracy_value','confusion accuracy');
#106 = PRODUCT_RELATED_PRODUCT_CATEGORY('part',$,(#7));
ENDSEC;
END-ISO-10303-21;
