ISO-10303-21;
HEADER;
FILE_DESCRIPTION(('Open CASCADE Model'),'2;1');
FILE_NAME('Open CASCADE Shape Model','2026-07-21T00:13:24',('Author'),(
    'Open CASCADE'),'Open CASCADE STEP processor 7.9','Open CASCADE 7.9'
  ,'Unknown');
FILE_SCHEMA(('AUTOMOTIVE_DESIGN { 1 0 10303 214 1 1 1 1 }'));
ENDSEC;
DATA;
#1 = APPLICATION_PROTOCOL_DEFINITION('international standard',
  'automotive_design',2000,#2);
#2 = APPLICATION_CONTEXT(
  'core data for automotive mechanical design processes');
#3 = SHAPE_DEFINITION_REPRESENTATION(#4,#10);
#4 = PRODUCT_DEFINITION_SHAPE('','',#5);
#5 = PRODUCT_DEFINITION('design','',#6,#9);
#6 = PRODUCT_DEFINITION_FORMATION('','',#7);
#7 = PRODUCT('Open CASCADE STEP translator 7.9 31',
  'Open CASCADE STEP translator 7.9 31','',(#8));
#8 = PRODUCT_CONTEXT('',#2,'mechanical');
#9 = PRODUCT_DEFINITION_CONTEXT('part definition',#2,'design');
#10 = MANIFOLD_SURFACE_SHAPE_REPRESENTATION('',(#11,#15),#161);
#11 = AXIS2_PLACEMENT_3D('',#12,#13,#14);
#12 = CARTESIAN_POINT('',(0.,0.,0.));
#13 = DIRECTION('',(0.,0.,1.));
#14 = DIRECTION('',(1.,0.,-0.));
#15 = SHELL_BASED_SURFACE_MODEL('',(#16));
#16 = OPEN_SHELL('',(#17));
#17 = ADVANCED_FACE('',(#18),#50,.T.);
#18 = FACE_BOUND('',#19,.T.);
#19 = EDGE_LOOP('',(#20,#79,#95,#147));
#20 = ORIENTED_EDGE('',*,*,#21,.T.);
#21 = EDGE_CURVE('',#22,#24,#26,.T.);
#22 = VERTEX_POINT('',#23);
#23 = CARTESIAN_POINT('',(0.,0.,0.));
#24 = VERTEX_POINT('',#25);
#25 = CARTESIAN_POINT('',(1.,0.,0.));
#26 = SURFACE_CURVE('',#27,(#49),.PCURVE_S1.);
#27 = B_SPLINE_CURVE_WITH_KNOTS('',1,(#28,#29,#30,#31,#32,#33,#34,#35,
    #36,#37,#38,#39,#40,#41,#42,#43,#44,#45,#46,#47,#48),.UNSPECIFIED.,
  .F.,.F.,(2,1,1,1,1,1,1,1,1,1,1,1,1,1,1,1,1,1,1,1,2),(0.,
    3.171740177483E-02,4.779741436701E-02,9.317201579736E-02,
    0.212047286311,0.228825819044,0.257209019803,0.309664225887,
    0.344313355586,0.356862255458,0.541505184839,0.584139813348,
    0.606596263915,0.637475953231,0.650641384888,0.694665180804,
    0.77381134782,0.817877948417,0.890293545236,0.928654709618,1.),
  .UNSPECIFIED.);
#28 = CARTESIAN_POINT('',(0.,-0.,0.));
#29 = CARTESIAN_POINT('',(3.175579920602E-02,-2.61432563184E-03,0.));
#30 = CARTESIAN_POINT('',(4.784730320269E-02,-4.033278719641E-03,0.));
#31 = CARTESIAN_POINT('',(9.339392531645E-02,-2.206959467184E-03,0.));
#32 = CARTESIAN_POINT('',(0.212791129288,-4.632112235494E-03,0.));
#33 = CARTESIAN_POINT('',(0.229549120375,-2.820051707382E-03,0.));
#34 = CARTESIAN_POINT('',(0.258050208889,-3.668014382619E-03,0.));
#35 = CARTESIAN_POINT('',(0.310206257594,3.858959288164E-03,0.));
#36 = CARTESIAN_POINT('',(0.344461136279,-2.324135029938E-03,0.));
#37 = CARTESIAN_POINT('',(0.356724125406,5.991130047263E-04,0.));
#38 = CARTESIAN_POINT('',(0.542212556349,-5.310380241128E-04,0.));
#39 = CARTESIAN_POINT('',(0.585031298925,-1.541024094824E-03,0.));
#40 = CARTESIAN_POINT('',(0.607368993815,-4.698151167056E-03,0.));
#41 = CARTESIAN_POINT('',(0.638390309347,-4.845780814316E-03,0.));
#42 = CARTESIAN_POINT('',(0.649634676512,2.117717545121E-03,0.));
#43 = CARTESIAN_POINT('',(0.693635904924,-2.337534974379E-03,0.));
#44 = CARTESIAN_POINT('',(0.773145801617,-2.499835379353E-03,0.));
#45 = CARTESIAN_POINT('',(0.817230746196,1.53507138687E-03,0.));
#46 = CARTESIAN_POINT('',(0.889945221545,3.761302251358E-03,0.));
#47 = CARTESIAN_POINT('',(0.928473839017,4.590530397143E-03,0.));
#48 = CARTESIAN_POINT('',(1.,-0.,0.));
#49 = PCURVE('',#50,#55);
#50 = PLANE('',#51);
#51 = AXIS2_PLACEMENT_3D('',#52,#53,#54);
#52 = CARTESIAN_POINT('',(0.500077298926,5.E-02,0.));
#53 = DIRECTION('',(0.,0.,1.));
#54 = DIRECTION('',(1.,0.,-0.));
#55 = DEFINITIONAL_REPRESENTATION('',(#56),#78);
#56 = B_SPLINE_CURVE_WITH_KNOTS('',1,(#57,#58,#59,#60,#61,#62,#63,#64,
    #65,#66,#67,#68,#69,#70,#71,#72,#73,#74,#75,#76,#77),.UNSPECIFIED.,
  .F.,.F.,(2,1,1,1,1,1,1,1,1,1,1,1,1,1,1,1,1,1,1,1,2),(0.,
    3.171740177483E-02,4.779741436701E-02,9.317201579736E-02,
    0.212047286311,0.228825819044,0.257209019803,0.309664225887,
    0.344313355586,0.356862255458,0.541505184839,0.584139813348,
    0.606596263915,0.637475953231,0.650641384888,0.694665180804,
    0.77381134782,0.817877948417,0.890293545236,0.928654709618,1.),
  .UNSPECIFIED.);
#57 = CARTESIAN_POINT('',(-0.500077298926,-5.E-02));
#58 = CARTESIAN_POINT('',(-0.46832149972,-5.261432563184E-02));
#59 = CARTESIAN_POINT('',(-0.452229995724,-5.403327871964E-02));
#60 = CARTESIAN_POINT('',(-0.40668337361,-5.220695946718E-02));
#61 = CARTESIAN_POINT('',(-0.287286169638,-5.463211223549E-02));
#62 = CARTESIAN_POINT('',(-0.270528178551,-5.282005170738E-02));
#63 = CARTESIAN_POINT('',(-0.242027090037,-5.366801438262E-02));
#64 = CARTESIAN_POINT('',(-0.189871041333,-4.614104071184E-02));
#65 = CARTESIAN_POINT('',(-0.155616162647,-5.232413502994E-02));
#66 = CARTESIAN_POINT('',(-0.143353173521,-4.940088699527E-02));
#67 = CARTESIAN_POINT('',(4.213525742289E-02,-5.053103802411E-02));
#68 = CARTESIAN_POINT('',(8.495399999834E-02,-5.154102409482E-02));
#69 = CARTESIAN_POINT('',(0.107291694889,-5.469815116706E-02));
#70 = CARTESIAN_POINT('',(0.13831301042,-5.484578081432E-02));
#71 = CARTESIAN_POINT('',(0.149557377586,-4.788228245488E-02));
#72 = CARTESIAN_POINT('',(0.193558605998,-5.233753497438E-02));
#73 = CARTESIAN_POINT('',(0.27306850269,-5.249983537935E-02));
#74 = CARTESIAN_POINT('',(0.31715344727,-4.846492861313E-02));
#75 = CARTESIAN_POINT('',(0.389867922618,-4.623869774864E-02));
#76 = CARTESIAN_POINT('',(0.42839654009,-4.540946960286E-02));
#77 = CARTESIAN_POINT('',(0.499922701074,-5.E-02));
#78 = ( GEOMETRIC_REPRESENTATION_CONTEXT(2) 
PARAMETRIC_REPRESENTATION_CONTEXT() REPRESENTATION_CONTEXT('2D SPACE',''
  ) );
#79 = ORIENTED_EDGE('',*,*,#80,.T.);
#80 = EDGE_CURVE('',#24,#81,#83,.T.);
#81 = VERTEX_POINT('',#82);
#82 = CARTESIAN_POINT('',(1.,0.1,0.));
#83 = SURFACE_CURVE('',#84,(#88),.PCURVE_S1.);
#84 = LINE('',#85,#86);
#85 = CARTESIAN_POINT('',(1.,-0.,0.));
#86 = VECTOR('',#87,1.);
#87 = DIRECTION('',(0.,1.,0.));
#88 = PCURVE('',#50,#89);
#89 = DEFINITIONAL_REPRESENTATION('',(#90),#94);
#90 = LINE('',#91,#92);
#91 = CARTESIAN_POINT('',(0.499922701074,-5.E-02));
#92 = VECTOR('',#93,1.);
#93 = DIRECTION('',(0.,1.));
#94 = ( GEOMETRIC_REPRESENTATION_CONTEXT(2) 
PARAMETRIC_REPRESENTATION_CONTEXT() REPRESENTATION_CONTEXT('2D SPACE',''
  ) );
#95 = ORIENTED_EDGE('',*,*,#96,.T.);
#96 = EDGE_CURVE('',#81,#97,#99,.T.);
#97 = VERTEX_POINT('',#98);
#98 = CARTESIAN_POINT('',(0.,0.1,0.));
#99 = SURFACE_CURVE('',#100,(#122),.PCURVE_S1.);
#100 = B_SPLINE_CURVE_WITH_KNOTS('',1,(#101,#102,#103,#104,#105,#106,
    #107,#108,#109,#110,#111,#112,#113,#114,#115,#116,#117,#118,#119,
    #120,#121),.UNSPECIFIED.,.F.,.F.,(2,1,1,1,1,1,1,1,1,1,1,1,1,1,1,1,1,
    1,1,1,2),(0.,7.134529038211E-02,0.109706454764,0.182122051583,
    0.22618865218,0.305334819196,0.349358615112,0.362524046769,
    0.393403736085,0.415860186652,0.458494815161,0.643137744542,
    0.655686644414,0.690335774113,0.742790980197,0.771174180956,
    0.787952713689,0.906827984203,0.952202585633,0.968282598225,1.),
  .UNSPECIFIED.);
#101 = CARTESIAN_POINT('',(1.,0.1,0.));
#102 = CARTESIAN_POINT('',(0.928473839017,9.540946960286E-02,0.));
#103 = CARTESIAN_POINT('',(0.889945221545,9.623869774864E-02,0.));
#104 = CARTESIAN_POINT('',(0.817230746196,9.846492861313E-02,0.));
#105 = CARTESIAN_POINT('',(0.773145801617,0.102499835379,0.));
#106 = CARTESIAN_POINT('',(0.693635904924,0.102337534974,0.));
#107 = CARTESIAN_POINT('',(0.649634676512,9.788228245488E-02,0.));
#108 = CARTESIAN_POINT('',(0.638390309347,0.104845780814,0.));
#109 = CARTESIAN_POINT('',(0.607368993815,0.104698151167,0.));
#110 = CARTESIAN_POINT('',(0.585031298925,0.101541024095,0.));
#111 = CARTESIAN_POINT('',(0.542212556349,0.100531038024,0.));
#112 = CARTESIAN_POINT('',(0.356724125406,9.940088699527E-02,0.));
#113 = CARTESIAN_POINT('',(0.344461136279,0.10232413503,0.));
#114 = CARTESIAN_POINT('',(0.310206257594,9.614104071184E-02,0.));
#115 = CARTESIAN_POINT('',(0.258050208889,0.103668014383,0.));
#116 = CARTESIAN_POINT('',(0.229549120375,0.102820051707,0.));
#117 = CARTESIAN_POINT('',(0.212791129288,0.104632112235,0.));
#118 = CARTESIAN_POINT('',(9.339392531645E-02,0.102206959467,0.));
#119 = CARTESIAN_POINT('',(4.784730320269E-02,0.10403327872,0.));
#120 = CARTESIAN_POINT('',(3.175579920602E-02,0.102614325632,0.));
#121 = CARTESIAN_POINT('',(0.,0.1,0.));
#122 = PCURVE('',#50,#123);
#123 = DEFINITIONAL_REPRESENTATION('',(#124),#146);
#124 = B_SPLINE_CURVE_WITH_KNOTS('',1,(#125,#126,#127,#128,#129,#130,
    #131,#132,#133,#134,#135,#136,#137,#138,#139,#140,#141,#142,#143,
    #144,#145),.UNSPECIFIED.,.F.,.F.,(2,1,1,1,1,1,1,1,1,1,1,1,1,1,1,1,1,
    1,1,1,2),(0.,7.134529038211E-02,0.109706454764,0.182122051583,
    0.22618865218,0.305334819196,0.349358615112,0.362524046769,
    0.393403736085,0.415860186652,0.458494815161,0.643137744542,
    0.655686644414,0.690335774113,0.742790980197,0.771174180956,
    0.787952713689,0.906827984203,0.952202585633,0.968282598225,1.),
  .UNSPECIFIED.);
#125 = CARTESIAN_POINT('',(0.499922701074,5.E-02));
#126 = CARTESIAN_POINT('',(0.42839654009,4.540946960286E-02));
#127 = CARTESIAN_POINT('',(0.389867922618,4.623869774864E-02));
#128 = CARTESIAN_POINT('',(0.31715344727,4.846492861313E-02));
#129 = CARTESIAN_POINT('',(0.27306850269,5.249983537935E-02));
#130 = CARTESIAN_POINT('',(0.193558605998,5.233753497438E-02));
#131 = CARTESIAN_POINT('',(0.149557377586,4.788228245488E-02));
#132 = CARTESIAN_POINT('',(0.13831301042,5.484578081432E-02));
#133 = CARTESIAN_POINT('',(0.107291694889,5.469815116706E-02));
#134 = CARTESIAN_POINT('',(8.495399999834E-02,5.154102409482E-02));
#135 = CARTESIAN_POINT('',(4.213525742289E-02,5.053103802411E-02));
#136 = CARTESIAN_POINT('',(-0.143353173521,4.940088699527E-02));
#137 = CARTESIAN_POINT('',(-0.155616162647,5.232413502994E-02));
#138 = CARTESIAN_POINT('',(-0.189871041333,4.614104071184E-02));
#139 = CARTESIAN_POINT('',(-0.242027090037,5.366801438262E-02));
#140 = CARTESIAN_POINT('',(-0.270528178551,5.282005170738E-02));
#141 = CARTESIAN_POINT('',(-0.287286169638,5.463211223549E-02));
#142 = CARTESIAN_POINT('',(-0.40668337361,5.220695946718E-02));
#143 = CARTESIAN_POINT('',(-0.452229995724,5.403327871964E-02));
#144 = CARTESIAN_POINT('',(-0.46832149972,5.261432563184E-02));
#145 = CARTESIAN_POINT('',(-0.500077298926,5.E-02));
#146 = ( GEOMETRIC_REPRESENTATION_CONTEXT(2) 
PARAMETRIC_REPRESENTATION_CONTEXT() REPRESENTATION_CONTEXT('2D SPACE',''
  ) );
#147 = ORIENTED_EDGE('',*,*,#148,.T.);
#148 = EDGE_CURVE('',#97,#22,#149,.T.);
#149 = SURFACE_CURVE('',#150,(#154),.PCURVE_S1.);
#150 = LINE('',#151,#152);
#151 = CARTESIAN_POINT('',(0.,0.1,0.));
#152 = VECTOR('',#153,1.);
#153 = DIRECTION('',(0.,-1.,0.));
#154 = PCURVE('',#50,#155);
#155 = DEFINITIONAL_REPRESENTATION('',(#156),#160);
#156 = LINE('',#157,#158);
#157 = CARTESIAN_POINT('',(-0.500077298926,5.E-02));
#158 = VECTOR('',#159,1.);
#159 = DIRECTION('',(0.,-1.));
#160 = ( GEOMETRIC_REPRESENTATION_CONTEXT(2) 
PARAMETRIC_REPRESENTATION_CONTEXT() REPRESENTATION_CONTEXT('2D SPACE',''
  ) );
#161 = ( GEOMETRIC_REPRESENTATION_CONTEXT(3) 
GLOBAL_UNCERTAINTY_ASSIGNED_CONTEXT((#165)) GLOBAL_UNIT_ASSIGNED_CONTEXT
((#162,#163,#164)) REPRESENTATION_CONTEXT('Context #1',
  '3D Context with UNIT and UNCERTAINTY') );
#162 = ( LENGTH_UNIT() NAMED_UNIT(*) SI_UNIT(.MILLI.,.METRE.) );
#163 = ( NAMED_UNIT(*) PLANE_ANGLE_UNIT() SI_UNIT($,.RADIAN.) );
#164 = ( NAMED_UNIT(*) SI_UNIT($,.STERADIAN.) SOLID_ANGLE_UNIT() );
#165 = UNCERTAINTY_MEASURE_WITH_UNIT(LENGTH_MEASURE(1.E-07),#162,
  'distance_accuracy_value','confusion accuracy');
#166 = PRODUCT_RELATED_PRODUCT_CATEGORY('part',$,(#7));
ENDSEC;
END-ISO-10303-21;
