ISO-10303-21;
HEADER;
FILE_DESCRIPTION(('Open CASCADE Model'),'2;1');
FILE_NAME('Open CASCADE Shape Model','2026-07-21T00:13:23',('Author'),(
    'Open CASCADE'),'Open CASCADE STEP processor 7.9','Open CASCADE 7.9'
  ,'Unknown');
FILE_SCHEMA(('AUTOMOTIVE_DESIGN { 1 0 10303 214 1 1 1 1 }'));
ENDSEC;
DATA;
#1 = APPLICATION_PROTOCOL_DEFINITION('international standard',
  'automotive_design',2000,#2);
#2 = APPLICATION_CONTEXT(
  'core data for automotive mechanical design processes');
#3 = SHAPE_DEFINITION_REPRESENTATION(#4,#10);
#4 = PRODUCT_DEFINITION_SHAPE('','',#5);
#5 = PRODUCT_DEFINITION('design','',#6,#9);
#6 = PRODUCT_DEFINITION_FORMATION('','',#7);
#7 = PRODUCT('Open CASCADE STEP translator 7.9 18',
  'Open CASCADE STEP translator 7.9 18','',(#8));
#8 = PRODUCT_CONTEXT('',#2,'mechanical');
#9 = PRODUCT_DEFINITION_CONTEXT('part definition',#2,'design');
#10 = MANIFOLD_SURFACE_SHAPE_REPRESENTATION('',(#11,#15),#161);
#11 = AXIS2_PLACEMENT_3D('',#12,#13,#14);
#12 = CARTESIAN_POINT('',(0.,0.,0.));
#13 = DIRECTION('',(0.,0.,1.));
#14 = DIRECTION('',(1.,0.,-0.));
#15 = SHELL_BASED_SURFACE_MODEL('',(#16));
#16 = OPEN_SHELL('',(#17));
#17 = ADVANCED_FACE('',(#18),#50,.T.);
#18 = FACE_BOUND('',#19,.T.);
#19 = EDGE_LOOP('',(#20,#79,#95,#147));
#20 = ORIENTED_EDGE('',*,*,#21,.T.);
#21 = EDGE_CURVE('',#22,#24,#26,.T.);
#22 = VERTEX_POINT('',#23);
#23 = CARTESIAN_POINT('',(0.,0.,0.));
#24 = VERTEX_POINT('',#25);
#25 = CARTESIAN_POINT('',(2.,0.,0.));
#26 = SURFACE_CURVE('',#27,(#49),.PCURVE_S1.);
#27 = B_SPLINE_CURVE_WITH_KNOTS('',1,(#28,#29,#30,#31,#32,#33,#34,#35,
    #36,#37,#38,#39,#40,#41,#42,#43,#44,#45,#46,#47,#48),.UNSPECIFIED.,
  .F.,.F.,(2,1,1,1,1,1,1,1,1,1,1,1,1,1,1,1,1,1,1,1,2),(0.,
    1.747214422961E-02,6.823134515466E-02,0.150932910237,0.165787716194,
    0.206304754964,0.299741582212,0.326353430051,0.35218343428,
    0.383411252346,0.400317010554,0.416211521112,0.525610313946,
    0.612444391538,0.641274169129,0.661603038628,0.714590625663,
    0.863703745279,0.943024123891,0.968773083317,1.),.UNSPECIFIED.);
#28 = CARTESIAN_POINT('',(0.,-0.,0.));
#29 = CARTESIAN_POINT('',(3.467698572095E-02,-4.866315449243E-03,0.));
#30 = CARTESIAN_POINT('',(0.136370427172,-2.177602360036E-03,0.));
#31 = CARTESIAN_POINT('',(0.302100210287,-4.511946600038E-03,0.));
#32 = CARTESIAN_POINT('',(0.330683159727,3.81521422783E-03,0.));
#33 = CARTESIAN_POINT('',(0.411554669477,-3.505336791908E-03,0.));
#34 = CARTESIAN_POINT('',(0.598803785267,-1.370738839912E-03,0.));
#35 = CARTESIAN_POINT('',(0.651888506799,3.780783216649E-03,0.));
#36 = CARTESIAN_POINT('',(0.703445198748,-8.825799996922E-04,0.));
#37 = CARTESIAN_POINT('',(0.766022737297,-1.860963651054E-03,0.));
#38 = CARTESIAN_POINT('',(0.799227653726,4.876973141114E-03,0.));
#39 = CARTESIAN_POINT('',(0.83077445626,4.568203815825E-04,0.));
#40 = CARTESIAN_POINT('',(1.049994484,-3.253995111963E-03,0.));
#41 = CARTESIAN_POINT('',(1.223942138899,2.046409746559E-03,0.));
#42 = CARTESIAN_POINT('',(1.281698246197,4.145191820145E-04,0.));
#43 = CARTESIAN_POINT('',(1.322439997212,5.768587293211E-04,0.));
#44 = CARTESIAN_POINT('',(1.428625713463,1.980726085575E-03,0.));
#45 = CARTESIAN_POINT('',(1.727406956767,-4.184418955156E-03,0.));
#46 = CARTESIAN_POINT('',(1.886370862806,-2.812940354315E-03,0.));
#47 = CARTESIAN_POINT('',(1.93753788901,3.894115890039E-03,0.));
#48 = CARTESIAN_POINT('',(2.,-0.,0.));
#49 = PCURVE('',#50,#55);
#50 = PLANE('',#51);
#51 = AXIS2_PLACEMENT_3D('',#52,#53,#54);
#52 = CARTESIAN_POINT('',(0.99943153147,5.E-02,0.));
#53 = DIRECTION('',(0.,0.,1.));
#54 = DIRECTION('',(1.,0.,-0.));
#55 = DEFINITIONAL_REPRESENTATION('',(#56),#78);
#56 = B_SPLINE_CURVE_WITH_KNOTS('',1,(#57,#58,#59,#60,#61,#62,#63,#64,
    #65,#66,#67,#68,#69,#70,#71,#72,#73,#74,#75,#76,#77),.UNSPECIFIED.,
  .F.,.F.,(2,1,1,1,1,1,1,1,1,1,1,1,1,1,1,1,1,1,1,1,2),(0.,
    1.747214422961E-02,6.823134515466E-02,0.150932910237,0.165787716194,
    0.206304754964,0.299741582212,0.326353430051,0.35218343428,
    0.383411252346,0.400317010554,0.416211521112,0.525610313946,
    0.612444391538,0.641274169129,0.661603038628,0.714590625663,
    0.863703745279,0.943024123891,0.968773083317,1.),.UNSPECIFIED.);
#57 = CARTESIAN_POINT('',(-0.99943153147,-5.E-02));
#58 = CARTESIAN_POINT('',(-0.964754545749,-5.486631544924E-02));
#59 = CARTESIAN_POINT('',(-0.863061104298,-5.217760236004E-02));
#60 = CARTESIAN_POINT('',(-0.697331321183,-5.451194660004E-02));
#61 = CARTESIAN_POINT('',(-0.668748371743,-4.618478577217E-02));
#62 = CARTESIAN_POINT('',(-0.587876861993,-5.350533679191E-02));
#63 = CARTESIAN_POINT('',(-0.400627746203,-5.137073883991E-02));
#64 = CARTESIAN_POINT('',(-0.34754302467,-4.621921678335E-02));
#65 = CARTESIAN_POINT('',(-0.295986332722,-5.088257999969E-02));
#66 = CARTESIAN_POINT('',(-0.233408794173,-5.186096365105E-02));
#67 = CARTESIAN_POINT('',(-0.200203877744,-4.512302685889E-02));
#68 = CARTESIAN_POINT('',(-0.16865707521,-4.954317961842E-02));
#69 = CARTESIAN_POINT('',(5.056295252956E-02,-5.325399511196E-02));
#70 = CARTESIAN_POINT('',(0.224510607429,-4.795359025344E-02));
#71 = CARTESIAN_POINT('',(0.282266714727,-4.958548081799E-02));
#72 = CARTESIAN_POINT('',(0.323008465742,-4.942314127068E-02));
#73 = CARTESIAN_POINT('',(0.429194181993,-4.801927391442E-02));
#74 = CARTESIAN_POINT('',(0.727975425297,-5.418441895516E-02));
#75 = CARTESIAN_POINT('',(0.886939331336,-5.281294035432E-02));
#76 = CARTESIAN_POINT('',(0.93810635754,-4.610588410996E-02));
#77 = CARTESIAN_POINT('',(1.00056846853,-5.E-02));
#78 = ( GEOMETRIC_REPRESENTATION_CONTEXT(2) 
PARAMETRIC_REPRESENTATION_CONTEXT() REPRESENTATION_CONTEXT('2D SPACE',''
  ) );
#79 = ORIENTED_EDGE('',*,*,#80,.T.);
#80 = EDGE_CURVE('',#24,#81,#83,.T.);
#81 = VERTEX_POINT('',#82);
#82 = CARTESIAN_POINT('',(2.,0.1,0.));
#83 = SURFACE_CURVE('',#84,(#88),.PCURVE_S1.);
#84 = LINE('',#85,#86);
#85 = CARTESIAN_POINT('',(2.,-0.,0.));
#86 = VECTOR('',#87,1.);
#87 = DIRECTION('',(0.,1.,0.));
#88 = PCURVE('',#50,#89);
#89 = DEFINITIONAL_REPRESENTATION('',(#90),#94);
#90 = LINE('',#91,#92);
#91 = CARTESIAN_POINT('',(1.00056846853,-5.E-02));
#92 = VECTOR('',#93,1.);
#93 = DIRECTION('',(0.,1.));
#94 = ( GEOMETRIC_REPRESENTATION_CONTEXT(2) 
PARAMETRIC_REPRESENTATION_CONTEXT() REPRESENTATION_CONTEXT('2D SPACE',''
  ) );
#95 = ORIENTED_EDGE('',*,*,#96,.T.);
#96 = EDGE_CURVE('',#81,#97,#99,.T.);
#97 = VERTEX_POINT('',#98);
#98 = CARTESIAN_POINT('',(0.,0.1,0.));
#99 = SURFACE_CURVE('',#100,(#122),.PCURVE_S1.);
#100 = B_SPLINE_CURVE_WITH_KNOTS('',1,(#101,#102,#103,#104,#105,#106,
    #107,#108,#109,#110,#111,#112,#113,#114,#115,#116,#117,#118,#119,
    #120,#121),.UNSPECIFIED.,.F.,.F.,(2,1,1,1,1,1,1,1,1,1,1,1,1,1,1,1,1,
    1,1,1,2),(0.,3.122691668342E-02,5.697587610939E-02,0.136296254721,
    0.285409374337,0.338396961372,0.358725830871,0.387555608462,
    0.474389686054,0.583788478888,0.599682989446,0.616588747654,
    0.64781656572,0.673646569949,0.700258417788,0.793695245036,
    0.834212283806,0.849067089763,0.931768654845,0.98252785577,1.),
  .UNSPECIFIED.);
#101 = CARTESIAN_POINT('',(2.,0.1,0.));
#102 = CARTESIAN_POINT('',(1.93753788901,9.610588410996E-02,0.));
#103 = CARTESIAN_POINT('',(1.886370862806,0.102812940354,0.));
#104 = CARTESIAN_POINT('',(1.727406956767,0.104184418955,0.));
#105 = CARTESIAN_POINT('',(1.428625713463,9.801927391442E-02,0.));
#106 = CARTESIAN_POINT('',(1.322439997212,9.942314127068E-02,0.));
#107 = CARTESIAN_POINT('',(1.281698246197,9.958548081799E-02,0.));
#108 = CARTESIAN_POINT('',(1.223942138899,9.795359025344E-02,0.));
#109 = CARTESIAN_POINT('',(1.049994484,0.103253995112,0.));
#110 = CARTESIAN_POINT('',(0.83077445626,9.954317961842E-02,0.));
#111 = CARTESIAN_POINT('',(0.799227653726,9.512302685889E-02,0.));
#112 = CARTESIAN_POINT('',(0.766022737297,0.101860963651,0.));
#113 = CARTESIAN_POINT('',(0.703445198748,0.10088258,0.));
#114 = CARTESIAN_POINT('',(0.651888506799,9.621921678335E-02,0.));
#115 = CARTESIAN_POINT('',(0.598803785267,0.10137073884,0.));
#116 = CARTESIAN_POINT('',(0.411554669477,0.103505336792,0.));
#117 = CARTESIAN_POINT('',(0.330683159727,9.618478577217E-02,0.));
#118 = CARTESIAN_POINT('',(0.302100210287,0.1045119466,0.));
#119 = CARTESIAN_POINT('',(0.136370427172,0.10217760236,0.));
#120 = CARTESIAN_POINT('',(3.467698572095E-02,0.104866315449,0.));
#121 = CARTESIAN_POINT('',(0.,0.1,0.));
#122 = PCURVE('',#50,#123);
#123 = DEFINITIONAL_REPRESENTATION('',(#124),#146);
#124 = B_SPLINE_CURVE_WITH_KNOTS('',1,(#125,#126,#127,#128,#129,#130,
    #131,#132,#133,#134,#135,#136,#137,#138,#139,#140,#141,#142,#143,
    #144,#145),.UNSPECIFIED.,.F.,.F.,(2,1,1,1,1,1,1,1,1,1,1,1,1,1,1,1,1,
    1,1,1,2),(0.,3.122691668342E-02,5.697587610939E-02,0.136296254721,
    0.285409374337,0.338396961372,0.358725830871,0.387555608462,
    0.474389686054,0.583788478888,0.599682989446,0.616588747654,
    0.64781656572,0.673646569949,0.700258417788,0.793695245036,
    0.834212283806,0.849067089763,0.931768654845,0.98252785577,1.),
  .UNSPECIFIED.);
#125 = CARTESIAN_POINT('',(1.00056846853,5.E-02));
#126 = CARTESIAN_POINT('',(0.93810635754,4.610588410996E-02));
#127 = CARTESIAN_POINT('',(0.886939331336,5.281294035432E-02));
#128 = CARTESIAN_POINT('',(0.727975425297,5.418441895516E-02));
#129 = CARTESIAN_POINT('',(0.429194181993,4.801927391442E-02));
#130 = CARTESIAN_POINT('',(0.323008465742,4.942314127068E-02));
#131 = CARTESIAN_POINT('',(0.282266714727,4.958548081799E-02));
#132 = CARTESIAN_POINT('',(0.224510607429,4.795359025344E-02));
#133 = CARTESIAN_POINT('',(5.056295252956E-02,5.325399511196E-02));
#134 = CARTESIAN_POINT('',(-0.16865707521,4.954317961842E-02));
#135 = CARTESIAN_POINT('',(-0.200203877744,4.512302685889E-02));
#136 = CARTESIAN_POINT('',(-0.233408794173,5.186096365105E-02));
#137 = CARTESIAN_POINT('',(-0.295986332722,5.088257999969E-02));
#138 = CARTESIAN_POINT('',(-0.34754302467,4.621921678335E-02));
#139 = CARTESIAN_POINT('',(-0.400627746203,5.137073883991E-02));
#140 = CARTESIAN_POINT('',(-0.587876861993,5.350533679191E-02));
#141 = CARTESIAN_POINT('',(-0.668748371743,4.618478577217E-02));
#142 = CARTESIAN_POINT('',(-0.697331321183,5.451194660004E-02));
#143 = CARTESIAN_POINT('',(-0.863061104298,5.217760236004E-02));
#144 = CARTESIAN_POINT('',(-0.964754545749,5.486631544924E-02));
#145 = CARTESIAN_POINT('',(-0.99943153147,5.E-02));
#146 = ( GEOMETRIC_REPRESENTATION_CONTEXT(2) 
PARAMETRIC_REPRESENTATION_CONTEXT() REPRESENTATION_CONTEXT('2D SPACE',''
  ) );
#147 = ORIENTED_EDGE('',*,*,#148,.T.);
#148 = EDGE_CURVE('',#97,#22,#149,.T.);
#149 = SURFACE_CURVE('',#150,(#154),.PCURVE_S1.);
#150 = LINE('',#151,#152);
#151 = CARTESIAN_POINT('',(0.,0.1,0.));
#152 = VECTOR('',#153,1.);
#153 = DIRECTION('',(0.,-1.,0.));
#154 = PCURVE('',#50,#155);
#155 = DEFINITIONAL_REPRESENTATION('',(#156),#160);
#156 = LINE('',#157,#158);
#157 = CARTESIAN_POINT('',(-0.99943153147,5.E-02));
#158 = VECTOR('',#159,1.);
#159 = DIRECTION('',(0.,-1.));
#160 = ( GEOMETRIC_REPRESENTATION_CONTEXT(2) 
PARAMETRIC_REPRESENTATION_CONTEXT() REPRESENTATION_CONTEXT('2D SPACE',''
  ) );
#161 = ( GEOMETRIC_REPRESENTATION_CONTEXT(3) 
GLOBAL_UNCERTAINTY_ASSIGNED_CONTEXT((#165)) GLOBAL_UNIT_ASSIGNED_CONTEXT
((#162,#163,#164)) REPRESENTATION_CONTEXT('Context #1',
  '3D Context with UNIT and UNCERTAINTY') );
#162 = ( LENGTH_UNIT() NAMED_UNIT(*) SI_UNIT(.MILLI.,.METRE.) );
#163 = ( NAMED_UNIT(*) PLANE_ANGLE_UNIT() SI_UNIT($,.RADIAN.) );
#164 = ( NAMED_UNIT(*) SI_UNIT($,.STERADIAN.) SOLID_ANGLE_UNIT() );
#165 = UNCERTAINTY_MEASURE_WITH_UNIT(LENGTH_MEASURE(1.E-07),#162,
  'distance_accuracy_value','confusion accuracy');
#166 = PRODUCT_RELATED_PRODUCT_CATEGORY('part',$,(#7));
ENDSEC;
END-ISO-10303-21;
