ISO-10303-21;
HEADER;
FILE_DESCRIPTION(('Open CASCADE Model'),'2;1');
FILE_NAME('Open CASCADE Shape Model','2026-07-23T16:45:03',('Author'),(
    'Open CASCADE'),'Open CASCADE STEP processor 7.9','Open CASCADE 7.9'
  ,'Unknown');
FILE_SCHEMA(('AUTOMOTIVE_DESIGN { 1 0 10303 214 1 1 1 1 }'));
ENDSEC;
DATA;
#1 = APPLICATION_PROTOCOL_DEFINITION('international standard',
  'automotive_design',2000,#2);
#2 = APPLICATION_CONTEXT(
  'core data for automotive mechanical design processes');
#3 = SHAPE_DEFINITION_REPRESENTATION(#4,#10);
#4 = PRODUCT_DEFINITION_SHAPE('','',#5);
#5 = PRODUCT_DEFINITION('design','',#6,#9);
#6 = PRODUCT_DEFINITION_FORMATION('','',#7);
#7 = PRODUCT('Open CASCADE STEP translator 7.9 19',
  'Open CASCADE STEP translator 7.9 19','',(#8));
#8 = PRODUCT_CONTEXT('',#2,'mechanical');
#9 = PRODUCT_DEFINITION_CONTEXT('part definition',#2,'design');
#10 = MANIFOLD_SURFACE_SHAPE_REPRESENTATION('',(#11,#15),#161);
#11 = AXIS2_PLACEMENT_3D('',#12,#13,#14);
#12 = CARTESIAN_POINT('',(0.,0.,0.));
#13 = DIRECTION('',(0.,0.,1.));
#14 = DIRECTION('',(1.,0.,-0.));
#15 = SHELL_BASED_SURFACE_MODEL('',(#16));
#16 = OPEN_SHELL('',(#17));
#17 = ADVANCED_FACE('',(#18),#50,.T.);
#18 = FACE_BOUND('',#19,.T.);
#19 = EDGE_LOOP('',(#20,#79,#95,#147));
#20 = ORIENTED_EDGE('',*,*,#21,.T.);
#21 = EDGE_CURVE('',#22,#24,#26,.T.);
#22 = VERTEX_POINT('',#23);
#23 = CARTESIAN_POINT('',(0.,0.,0.));
#24 = VERTEX_POINT('',#25);
#25 = CARTESIAN_POINT('',(1.,0.,0.));
#26 = SURFACE_CURVE('',#27,(#49),.PCURVE_S1.);
#27 = B_SPLINE_CURVE_WITH_KNOTS('',1,(#28,#29,#30,#31,#32,#33,#34,#35,
    #36,#37,#38,#39,#40,#41,#42,#43,#44,#45,#46,#47,#48),.UNSPECIFIED.,
  .F.,.F.,(2,1,1,1,1,1,1,1,1,1,1,1,1,1,1,1,1,1,1,1,2),(0.,
    2.499369423E-02,8.391063957071E-02,9.45037099387E-02,0.165204826296,
    0.175870386932,0.218563270094,0.232884327797,0.253810284695,
    0.283716702077,0.368124533424,0.385587724804,0.528428483644,
    0.612879743039,0.62726929907,0.638996164061,0.65561266412,
    0.69887456544,0.919850890286,0.942079735658,1.),.UNSPECIFIED.);
#28 = CARTESIAN_POINT('',(0.,-0.,0.));
#29 = CARTESIAN_POINT('',(2.481077702259E-02,4.427680598467E-03,0.));
#30 = CARTESIAN_POINT('',(8.375317719685E-02,-3.009638536417E-03,0.));
#31 = CARTESIAN_POINT('',(9.435928940105E-02,-4.277954301723E-03,0.));
#32 = CARTESIAN_POINT('',(0.165634795341,-2.721083991044E-03,0.));
#33 = CARTESIAN_POINT('',(0.176364089658,-1.981207839786E-03,0.));
#34 = CARTESIAN_POINT('',(0.219391359799,-3.379802186554E-03,0.));
#35 = CARTESIAN_POINT('',(0.23142817861,4.598487004529E-03,0.));
#36 = CARTESIAN_POINT('',(0.252467179462,2.982178892809E-03,0.));
#37 = CARTESIAN_POINT('',(0.282613958065,3.750763206944E-03,0.));
#38 = CARTESIAN_POINT('',(0.36764313791,-4.530990192987E-05,0.));
#39 = CARTESIAN_POINT('',(0.385087180741,-2.451881283288E-03,0.));
#40 = CARTESIAN_POINT('',(0.529118149144,-1.300118445764E-03,0.));
#41 = CARTESIAN_POINT('',(0.614247102134,-3.511310997619E-03,0.));
#42 = CARTESIAN_POINT('',(0.626979249293,3.447870075589E-03,0.));
#43 = CARTESIAN_POINT('',(0.637287411868,-2.346210919352E-03,0.));
#44 = CARTESIAN_POINT('',(0.653143503681,3.069585091311E-03,0.));
#45 = CARTESIAN_POINT('',(0.696760352814,2.292412486822E-03,0.));
#46 = CARTESIAN_POINT('',(0.919541791884,-2.099046972813E-03,0.));
#47 = CARTESIAN_POINT('',(0.941792999596,-4.802047848987E-03,0.));
#48 = CARTESIAN_POINT('',(1.,-0.,0.));
#49 = PCURVE('',#50,#55);
#50 = PLANE('',#51);
#51 = AXIS2_PLACEMENT_3D('',#52,#53,#54);
#52 = CARTESIAN_POINT('',(0.499584029962,2.5E-02,0.));
#53 = DIRECTION('',(0.,0.,1.));
#54 = DIRECTION('',(1.,0.,-0.));
#55 = DEFINITIONAL_REPRESENTATION('',(#56),#78);
#56 = B_SPLINE_CURVE_WITH_KNOTS('',1,(#57,#58,#59,#60,#61,#62,#63,#64,
    #65,#66,#67,#68,#69,#70,#71,#72,#73,#74,#75,#76,#77),.UNSPECIFIED.,
  .F.,.F.,(2,1,1,1,1,1,1,1,1,1,1,1,1,1,1,1,1,1,1,1,2),(0.,
    2.499369423E-02,8.391063957071E-02,9.45037099387E-02,0.165204826296,
    0.175870386932,0.218563270094,0.232884327797,0.253810284695,
    0.283716702077,0.368124533424,0.385587724804,0.528428483644,
    0.612879743039,0.62726929907,0.638996164061,0.65561266412,
    0.69887456544,0.919850890286,0.942079735658,1.),.UNSPECIFIED.);
#57 = CARTESIAN_POINT('',(-0.499584029962,-2.5E-02));
#58 = CARTESIAN_POINT('',(-0.474773252939,-2.057231940153E-02));
#59 = CARTESIAN_POINT('',(-0.415830852765,-2.800963853642E-02));
#60 = CARTESIAN_POINT('',(-0.405224740561,-2.927795430172E-02));
#61 = CARTESIAN_POINT('',(-0.33394923462,-2.772108399104E-02));
#62 = CARTESIAN_POINT('',(-0.323219940304,-2.698120783979E-02));
#63 = CARTESIAN_POINT('',(-0.280192670163,-2.837980218655E-02));
#64 = CARTESIAN_POINT('',(-0.268155851352,-2.040151299547E-02));
#65 = CARTESIAN_POINT('',(-0.2471168505,-2.201782110719E-02));
#66 = CARTESIAN_POINT('',(-0.216970071897,-2.124923679306E-02));
#67 = CARTESIAN_POINT('',(-0.131940892052,-2.504530990193E-02));
#68 = CARTESIAN_POINT('',(-0.11449684922,-2.745188128329E-02));
#69 = CARTESIAN_POINT('',(2.953411918174E-02,-2.630011844576E-02));
#70 = CARTESIAN_POINT('',(0.114663072172,-2.851131099762E-02));
#71 = CARTESIAN_POINT('',(0.127395219331,-2.155212992441E-02));
#72 = CARTESIAN_POINT('',(0.137703381906,-2.734621091935E-02));
#73 = CARTESIAN_POINT('',(0.153559473719,-2.193041490869E-02));
#74 = CARTESIAN_POINT('',(0.197176322852,-2.270758751318E-02));
#75 = CARTESIAN_POINT('',(0.419957761922,-2.709904697281E-02));
#76 = CARTESIAN_POINT('',(0.442208969634,-2.980204784899E-02));
#77 = CARTESIAN_POINT('',(0.500415970038,-2.5E-02));
#78 = ( GEOMETRIC_REPRESENTATION_CONTEXT(2) 
PARAMETRIC_REPRESENTATION_CONTEXT() REPRESENTATION_CONTEXT('2D SPACE',''
  ) );
#79 = ORIENTED_EDGE('',*,*,#80,.T.);
#80 = EDGE_CURVE('',#24,#81,#83,.T.);
#81 = VERTEX_POINT('',#82);
#82 = CARTESIAN_POINT('',(1.,5.E-02,0.));
#83 = SURFACE_CURVE('',#84,(#88),.PCURVE_S1.);
#84 = LINE('',#85,#86);
#85 = CARTESIAN_POINT('',(1.,-0.,0.));
#86 = VECTOR('',#87,1.);
#87 = DIRECTION('',(0.,1.,0.));
#88 = PCURVE('',#50,#89);
#89 = DEFINITIONAL_REPRESENTATION('',(#90),#94);
#90 = LINE('',#91,#92);
#91 = CARTESIAN_POINT('',(0.500415970038,-2.5E-02));
#92 = VECTOR('',#93,1.);
#93 = DIRECTION('',(0.,1.));
#94 = ( GEOMETRIC_REPRESENTATION_CONTEXT(2) 
PARAMETRIC_REPRESENTATION_CONTEXT() REPRESENTATION_CONTEXT('2D SPACE',''
  ) );
#95 = ORIENTED_EDGE('',*,*,#96,.T.);
#96 = EDGE_CURVE('',#81,#97,#99,.T.);
#97 = VERTEX_POINT('',#98);
#98 = CARTESIAN_POINT('',(0.,5.E-02,0.));
#99 = SURFACE_CURVE('',#100,(#122),.PCURVE_S1.);
#100 = B_SPLINE_CURVE_WITH_KNOTS('',1,(#101,#102,#103,#104,#105,#106,
    #107,#108,#109,#110,#111,#112,#113,#114,#115,#116,#117,#118,#119,
    #120,#121),.UNSPECIFIED.,.F.,.F.,(2,1,1,1,1,1,1,1,1,1,1,1,1,1,1,1,1,
    1,1,1,2),(0.,5.792026434193E-02,8.014910971409E-02,0.30112543456,
    0.34438733588,0.361003835939,0.37273070093,0.387120256961,
    0.471571516356,0.614412275196,0.631875466576,0.716283297923,
    0.746189715305,0.767115672203,0.781436729906,0.824129613068,
    0.834795173704,0.905496290061,0.916089360429,0.97500630577,1.),
  .UNSPECIFIED.);
#101 = CARTESIAN_POINT('',(1.,5.E-02,0.));
#102 = CARTESIAN_POINT('',(0.941792999596,5.480204784899E-02,0.));
#103 = CARTESIAN_POINT('',(0.919541791884,5.209904697281E-02,0.));
#104 = CARTESIAN_POINT('',(0.696760352814,4.770758751318E-02,0.));
#105 = CARTESIAN_POINT('',(0.653143503681,4.693041490869E-02,0.));
#106 = CARTESIAN_POINT('',(0.637287411868,5.234621091935E-02,0.));
#107 = CARTESIAN_POINT('',(0.626979249293,4.655212992441E-02,0.));
#108 = CARTESIAN_POINT('',(0.614247102134,5.351131099762E-02,0.));
#109 = CARTESIAN_POINT('',(0.529118149144,5.130011844576E-02,0.));
#110 = CARTESIAN_POINT('',(0.385087180741,5.245188128329E-02,0.));
#111 = CARTESIAN_POINT('',(0.36764313791,5.004530990193E-02,0.));
#112 = CARTESIAN_POINT('',(0.282613958065,4.624923679306E-02,0.));
#113 = CARTESIAN_POINT('',(0.252467179462,4.701782110719E-02,0.));
#114 = CARTESIAN_POINT('',(0.23142817861,4.540151299547E-02,0.));
#115 = CARTESIAN_POINT('',(0.219391359799,5.337980218655E-02,0.));
#116 = CARTESIAN_POINT('',(0.176364089658,5.198120783979E-02,0.));
#117 = CARTESIAN_POINT('',(0.165634795341,5.272108399104E-02,0.));
#118 = CARTESIAN_POINT('',(9.435928940105E-02,5.427795430172E-02,0.));
#119 = CARTESIAN_POINT('',(8.375317719685E-02,5.300963853642E-02,0.));
#120 = CARTESIAN_POINT('',(2.481077702259E-02,4.557231940153E-02,0.));
#121 = CARTESIAN_POINT('',(0.,5.E-02,0.));
#122 = PCURVE('',#50,#123);
#123 = DEFINITIONAL_REPRESENTATION('',(#124),#146);
#124 = B_SPLINE_CURVE_WITH_KNOTS('',1,(#125,#126,#127,#128,#129,#130,
    #131,#132,#133,#134,#135,#136,#137,#138,#139,#140,#141,#142,#143,
    #144,#145),.UNSPECIFIED.,.F.,.F.,(2,1,1,1,1,1,1,1,1,1,1,1,1,1,1,1,1,
    1,1,1,2),(0.,5.792026434193E-02,8.014910971409E-02,0.30112543456,
    0.34438733588,0.361003835939,0.37273070093,0.387120256961,
    0.471571516356,0.614412275196,0.631875466576,0.716283297923,
    0.746189715305,0.767115672203,0.781436729906,0.824129613068,
    0.834795173704,0.905496290061,0.916089360429,0.97500630577,1.),
  .UNSPECIFIED.);
#125 = CARTESIAN_POINT('',(0.500415970038,2.5E-02));
#126 = CARTESIAN_POINT('',(0.442208969634,2.980204784899E-02));
#127 = CARTESIAN_POINT('',(0.419957761922,2.709904697281E-02));
#128 = CARTESIAN_POINT('',(0.197176322852,2.270758751318E-02));
#129 = CARTESIAN_POINT('',(0.153559473719,2.193041490869E-02));
#130 = CARTESIAN_POINT('',(0.137703381906,2.734621091935E-02));
#131 = CARTESIAN_POINT('',(0.127395219331,2.155212992441E-02));
#132 = CARTESIAN_POINT('',(0.114663072172,2.851131099762E-02));
#133 = CARTESIAN_POINT('',(2.953411918174E-02,2.630011844576E-02));
#134 = CARTESIAN_POINT('',(-0.11449684922,2.745188128329E-02));
#135 = CARTESIAN_POINT('',(-0.131940892052,2.504530990193E-02));
#136 = CARTESIAN_POINT('',(-0.216970071897,2.124923679306E-02));
#137 = CARTESIAN_POINT('',(-0.2471168505,2.201782110719E-02));
#138 = CARTESIAN_POINT('',(-0.268155851352,2.040151299547E-02));
#139 = CARTESIAN_POINT('',(-0.280192670163,2.837980218655E-02));
#140 = CARTESIAN_POINT('',(-0.323219940304,2.698120783979E-02));
#141 = CARTESIAN_POINT('',(-0.33394923462,2.772108399104E-02));
#142 = CARTESIAN_POINT('',(-0.405224740561,2.927795430172E-02));
#143 = CARTESIAN_POINT('',(-0.415830852765,2.800963853642E-02));
#144 = CARTESIAN_POINT('',(-0.474773252939,2.057231940153E-02));
#145 = CARTESIAN_POINT('',(-0.499584029962,2.5E-02));
#146 = ( GEOMETRIC_REPRESENTATION_CONTEXT(2) 
PARAMETRIC_REPRESENTATION_CONTEXT() REPRESENTATION_CONTEXT('2D SPACE',''
  ) );
#147 = ORIENTED_EDGE('',*,*,#148,.T.);
#148 = EDGE_CURVE('',#97,#22,#149,.T.);
#149 = SURFACE_CURVE('',#150,(#154),.PCURVE_S1.);
#150 = LINE('',#151,#152);
#151 = CARTESIAN_POINT('',(0.,5.E-02,0.));
#152 = VECTOR('',#153,1.);
#153 = DIRECTION('',(0.,-1.,0.));
#154 = PCURVE('',#50,#155);
#155 = DEFINITIONAL_REPRESENTATION('',(#156),#160);
#156 = LINE('',#157,#158);
#157 = CARTESIAN_POINT('',(-0.499584029962,2.5E-02));
#158 = VECTOR('',#159,1.);
#159 = DIRECTION('',(0.,-1.));
#160 = ( GEOMETRIC_REPRESENTATION_CONTEXT(2) 
PARAMETRIC_REPRESENTATION_CONTEXT() REPRESENTATION_CONTEXT('2D SPACE',''
  ) );
#161 = ( GEOMETRIC_REPRESENTATION_CONTEXT(3) 
GLOBAL_UNCERTAINTY_ASSIGNED_CONTEXT((#165)) GLOBAL_UNIT_ASSIGNED_CONTEXT
((#162,#163,#164)) REPRESENTATION_CONTEXT('Context #1',
  '3D Context with UNIT and UNCERTAINTY') );
#162 = ( LENGTH_UNIT() NAMED_UNIT(*) SI_UNIT(.MILLI.,.METRE.) );
#163 = ( NAMED_UNIT(*) PLANE_ANGLE_UNIT() SI_UNIT($,.RADIAN.) );
#164 = ( NAMED_UNIT(*) SI_UNIT($,.STERADIAN.) SOLID_ANGLE_UNIT() );
#165 = UNCERTAINTY_MEASURE_WITH_UNIT(LENGTH_MEASURE(1.E-07),#162,
  'distance_accuracy_value','confusion accuracy');
#166 = PRODUCT_RELATED_PRODUCT_CATEGORY('part',$,(#7));
ENDSEC;
END-ISO-10303-21;
