ISO-10303-21;
HEADER;
FILE_DESCRIPTION(('Open CASCADE Model'),'2;1');
FILE_NAME('Open CASCADE Shape Model','2026-08-17T20:30:05',('Author'),(
    'Open CASCADE'),'Open CASCADE STEP processor 7.9','Open CASCADE 7.9'
  ,'Unknown');
FILE_SCHEMA(('AUTOMOTIVE_DESIGN { 1 0 10303 214 1 1 1 1 }'));
ENDSEC;
DATA;
#1 = APPLICATION_PROTOCOL_DEFINITION('international standard',
  'automotive_design',2000,#2);
#2 = APPLICATION_CONTEXT(
  'core data for automotive mechanical design processes');
#3 = SHAPE_DEFINITION_REPRESENTATION(#4,#10);
#4 = PRODUCT_DEFINITION_SHAPE('','',#5);
#5 = PRODUCT_DEFINITION('design','',#6,#9);
#6 = PRODUCT_DEFINITION_FORMATION('','',#7);
#7 = PRODUCT('Open CASCADE STEP translator 7.9 77',
  'Open CASCADE STEP translator 7.9 77','',(#8));
#8 = PRODUCT_CONTEXT('',#2,'mechanical');
#9 = PRODUCT_DEFINITION_CONTEXT('part definition',#2,'design');
#10 = MANIFOLD_SURFACE_SHAPE_REPRESENTATION('',(#11,#15),#145);
#11 = AXIS2_PLACEMENT_3D('',#12,#13,#14);
#12 = CARTESIAN_POINT('',(0.,0.,0.));
#13 = DIRECTION('',(0.,0.,1.));
#14 = DIRECTION('',(1.,0.,-0.));
#15 = SHELL_BASED_SURFACE_MODEL('',(#16));
#16 = OPEN_SHELL('',(#17));
#17 = ADVANCED_FACE('',(#18),#46,.T.);
#18 = FACE_BOUND('',#19,.T.);
#19 = EDGE_LOOP('',(#20,#71,#87,#131));
#20 = ORIENTED_EDGE('',*,*,#21,.T.);
#21 = EDGE_CURVE('',#22,#24,#26,.T.);
#22 = VERTEX_POINT('',#23);
#23 = CARTESIAN_POINT('',(0.,0.,0.));
#24 = VERTEX_POINT('',#25);
#25 = CARTESIAN_POINT('',(1.,0.,0.));
#26 = SURFACE_CURVE('',#27,(#45),.PCURVE_S1.);
#27 = B_SPLINE_CURVE_WITH_KNOTS('',1,(#28,#29,#30,#31,#32,#33,#34,#35,
    #36,#37,#38,#39,#40,#41,#42,#43,#44),.UNSPECIFIED.,.F.,.F.,(2,1,1,1,
    1,1,1,1,1,1,1,1,1,1,1,1,2),(0.,4.805291592465E-02,6.416609763745E-02
    ,0.190308166516,0.216591776006,0.28131346189,0.30095058541,
    0.315397832661,0.330607119003,0.423640263791,0.526781177477,
    0.562328817186,0.691296260521,0.82330075367,0.858132911216,
    0.982100086158,1.),.UNSPECIFIED.);
#28 = CARTESIAN_POINT('',(0.,-0.,0.));
#29 = CARTESIAN_POINT('',(4.825134272835E-02,1.625584144294E-03,0.));
#30 = CARTESIAN_POINT('',(6.409450515685E-02,4.953439651919E-03,0.));
#31 = CARTESIAN_POINT('',(0.190684668798,-1.09994868253E-03,0.));
#32 = CARTESIAN_POINT('',(0.216454369801,4.667055044027E-03,0.));
#33 = CARTESIAN_POINT('',(0.28079219941,-4.766940651552E-03,0.));
#34 = CARTESIAN_POINT('',(0.299620251039,1.128282198178E-03,0.));
#35 = CARTESIAN_POINT('',(0.314132267187,1.429178760705E-03,0.));
#36 = CARTESIAN_POINT('',(0.329391630994,2.237445623614E-03,0.));
#37 = CARTESIAN_POINT('',(0.422818247768,-6.201995548681E-04,0.));
#38 = CARTESIAN_POINT('',(0.526438305232,-1.689597315272E-03,0.));
#39 = CARTESIAN_POINT('',(0.561564859069,4.765130656863E-03,0.));
#40 = CARTESIAN_POINT('',(0.69078037598,-4.859471862599E-03,0.));
#41 = CARTESIAN_POINT('',(0.823380715563,-2.313150421357E-03,0.));
#42 = CARTESIAN_POINT('',(0.857707037202,4.49949189898E-03,0.));
#43 = CARTESIAN_POINT('',(0.982100349503,-1.740029852171E-03,0.));
#44 = CARTESIAN_POINT('',(1.,-0.,0.));
#45 = PCURVE('',#46,#51);
#46 = PLANE('',#47);
#47 = AXIS2_PLACEMENT_3D('',#48,#49,#50);
#48 = CARTESIAN_POINT('',(0.499654323799,3.125E-02,0.));
#49 = DIRECTION('',(0.,0.,1.));
#50 = DIRECTION('',(1.,0.,-0.));
#51 = DEFINITIONAL_REPRESENTATION('',(#52),#70);
#52 = B_SPLINE_CURVE_WITH_KNOTS('',1,(#53,#54,#55,#56,#57,#58,#59,#60,
    #61,#62,#63,#64,#65,#66,#67,#68,#69),.UNSPECIFIED.,.F.,.F.,(2,1,1,1,
    1,1,1,1,1,1,1,1,1,1,1,1,2),(0.,4.805291592465E-02,6.416609763745E-02
    ,0.190308166516,0.216591776006,0.28131346189,0.30095058541,
    0.315397832661,0.330607119003,0.423640263791,0.526781177477,
    0.562328817186,0.691296260521,0.82330075367,0.858132911216,
    0.982100086158,1.),.UNSPECIFIED.);
#53 = CARTESIAN_POINT('',(-0.499654323799,-3.125E-02));
#54 = CARTESIAN_POINT('',(-0.451402981071,-2.962441585571E-02));
#55 = CARTESIAN_POINT('',(-0.435559818642,-2.629656034808E-02));
#56 = CARTESIAN_POINT('',(-0.308969655001,-3.234994868253E-02));
#57 = CARTESIAN_POINT('',(-0.283199953998,-2.658294495597E-02));
#58 = CARTESIAN_POINT('',(-0.21886212439,-3.601694065155E-02));
#59 = CARTESIAN_POINT('',(-0.20003407276,-3.012171780182E-02));
#60 = CARTESIAN_POINT('',(-0.185522056612,-2.982082123929E-02));
#61 = CARTESIAN_POINT('',(-0.170262692805,-2.901255437639E-02));
#62 = CARTESIAN_POINT('',(-7.683607603157E-02,-3.187019955487E-02));
#63 = CARTESIAN_POINT('',(2.678398143293E-02,-3.293959731527E-02));
#64 = CARTESIAN_POINT('',(6.191053526987E-02,-2.648486934314E-02));
#65 = CARTESIAN_POINT('',(0.191126052181,-3.61094718626E-02));
#66 = CARTESIAN_POINT('',(0.323726391764,-3.356315042136E-02));
#67 = CARTESIAN_POINT('',(0.358052713403,-2.675050810102E-02));
#68 = CARTESIAN_POINT('',(0.482446025703,-3.299002985217E-02));
#69 = CARTESIAN_POINT('',(0.500345676201,-3.125E-02));
#70 = ( GEOMETRIC_REPRESENTATION_CONTEXT(2) 
PARAMETRIC_REPRESENTATION_CONTEXT() REPRESENTATION_CONTEXT('2D SPACE',''
  ) );
#71 = ORIENTED_EDGE('',*,*,#72,.T.);
#72 = EDGE_CURVE('',#24,#73,#75,.T.);
#73 = VERTEX_POINT('',#74);
#74 = CARTESIAN_POINT('',(1.,6.25E-02,0.));
#75 = SURFACE_CURVE('',#76,(#80),.PCURVE_S1.);
#76 = LINE('',#77,#78);
#77 = CARTESIAN_POINT('',(1.,-0.,0.));
#78 = VECTOR('',#79,1.);
#79 = DIRECTION('',(0.,1.,0.));
#80 = PCURVE('',#46,#81);
#81 = DEFINITIONAL_REPRESENTATION('',(#82),#86);
#82 = LINE('',#83,#84);
#83 = CARTESIAN_POINT('',(0.500345676201,-3.125E-02));
#84 = VECTOR('',#85,1.);
#85 = DIRECTION('',(0.,1.));
#86 = ( GEOMETRIC_REPRESENTATION_CONTEXT(2) 
PARAMETRIC_REPRESENTATION_CONTEXT() REPRESENTATION_CONTEXT('2D SPACE',''
  ) );
#87 = ORIENTED_EDGE('',*,*,#88,.T.);
#88 = EDGE_CURVE('',#73,#89,#91,.T.);
#89 = VERTEX_POINT('',#90);
#90 = CARTESIAN_POINT('',(0.,6.25E-02,0.));
#91 = SURFACE_CURVE('',#92,(#110),.PCURVE_S1.);
#92 = B_SPLINE_CURVE_WITH_KNOTS('',1,(#93,#94,#95,#96,#97,#98,#99,#100,
    #101,#102,#103,#104,#105,#106,#107,#108,#109),.UNSPECIFIED.,.F.,.F.,
  (2,1,1,1,1,1,1,1,1,1,1,1,1,1,1,1,2),(0.,1.789991384208E-02,
    0.141867088784,0.17669924633,0.308703739479,0.437671182814,
    0.473218822523,0.576359736209,0.669392880997,0.684602167339,
    0.69904941459,0.71868653811,0.783408223994,0.809691833484,
    0.935833902363,0.951947084075,1.),.UNSPECIFIED.);
#93 = CARTESIAN_POINT('',(1.,6.25E-02,0.));
#94 = CARTESIAN_POINT('',(0.982100349503,6.424002985217E-02,0.));
#95 = CARTESIAN_POINT('',(0.857707037202,5.800050810102E-02,0.));
#96 = CARTESIAN_POINT('',(0.823380715563,6.481315042136E-02,0.));
#97 = CARTESIAN_POINT('',(0.69078037598,6.73594718626E-02,0.));
#98 = CARTESIAN_POINT('',(0.561564859069,5.773486934314E-02,0.));
#99 = CARTESIAN_POINT('',(0.526438305232,6.418959731527E-02,0.));
#100 = CARTESIAN_POINT('',(0.422818247768,6.312019955487E-02,0.));
#101 = CARTESIAN_POINT('',(0.329391630994,6.026255437639E-02,0.));
#102 = CARTESIAN_POINT('',(0.314132267187,6.107082123929E-02,0.));
#103 = CARTESIAN_POINT('',(0.299620251039,6.137171780182E-02,0.));
#104 = CARTESIAN_POINT('',(0.28079219941,6.726694065155E-02,0.));
#105 = CARTESIAN_POINT('',(0.216454369801,5.783294495597E-02,0.));
#106 = CARTESIAN_POINT('',(0.190684668798,6.359994868253E-02,0.));
#107 = CARTESIAN_POINT('',(6.409450515685E-02,5.754656034808E-02,0.));
#108 = CARTESIAN_POINT('',(4.825134272835E-02,6.087441585571E-02,0.));
#109 = CARTESIAN_POINT('',(0.,6.25E-02,0.));
#110 = PCURVE('',#46,#111);
#111 = DEFINITIONAL_REPRESENTATION('',(#112),#130);
#112 = B_SPLINE_CURVE_WITH_KNOTS('',1,(#113,#114,#115,#116,#117,#118,
    #119,#120,#121,#122,#123,#124,#125,#126,#127,#128,#129),
  .UNSPECIFIED.,.F.,.F.,(2,1,1,1,1,1,1,1,1,1,1,1,1,1,1,1,2),(0.,
    1.789991384208E-02,0.141867088784,0.17669924633,0.308703739479,
    0.437671182814,0.473218822523,0.576359736209,0.669392880997,
    0.684602167339,0.69904941459,0.71868653811,0.783408223994,
    0.809691833484,0.935833902363,0.951947084075,1.),.UNSPECIFIED.);
#113 = CARTESIAN_POINT('',(0.500345676201,3.125E-02));
#114 = CARTESIAN_POINT('',(0.482446025703,3.299002985217E-02));
#115 = CARTESIAN_POINT('',(0.358052713403,2.675050810102E-02));
#116 = CARTESIAN_POINT('',(0.323726391764,3.356315042136E-02));
#117 = CARTESIAN_POINT('',(0.191126052181,3.61094718626E-02));
#118 = CARTESIAN_POINT('',(6.191053526987E-02,2.648486934314E-02));
#119 = CARTESIAN_POINT('',(2.678398143293E-02,3.293959731527E-02));
#120 = CARTESIAN_POINT('',(-7.683607603157E-02,3.187019955487E-02));
#121 = CARTESIAN_POINT('',(-0.170262692805,2.901255437639E-02));
#122 = CARTESIAN_POINT('',(-0.185522056612,2.982082123929E-02));
#123 = CARTESIAN_POINT('',(-0.20003407276,3.012171780182E-02));
#124 = CARTESIAN_POINT('',(-0.21886212439,3.601694065155E-02));
#125 = CARTESIAN_POINT('',(-0.283199953998,2.658294495597E-02));
#126 = CARTESIAN_POINT('',(-0.308969655001,3.234994868253E-02));
#127 = CARTESIAN_POINT('',(-0.435559818642,2.629656034808E-02));
#128 = CARTESIAN_POINT('',(-0.451402981071,2.962441585571E-02));
#129 = CARTESIAN_POINT('',(-0.499654323799,3.125E-02));
#130 = ( GEOMETRIC_REPRESENTATION_CONTEXT(2) 
PARAMETRIC_REPRESENTATION_CONTEXT() REPRESENTATION_CONTEXT('2D SPACE',''
  ) );
#131 = ORIENTED_EDGE('',*,*,#132,.T.);
#132 = EDGE_CURVE('',#89,#22,#133,.T.);
#133 = SURFACE_CURVE('',#134,(#138),.PCURVE_S1.);
#134 = LINE('',#135,#136);
#135 = CARTESIAN_POINT('',(0.,6.25E-02,0.));
#136 = VECTOR('',#137,1.);
#137 = DIRECTION('',(0.,-1.,0.));
#138 = PCURVE('',#46,#139);
#139 = DEFINITIONAL_REPRESENTATION('',(#140),#144);
#140 = LINE('',#141,#142);
#141 = CARTESIAN_POINT('',(-0.499654323799,3.125E-02));
#142 = VECTOR('',#143,1.);
#143 = DIRECTION('',(0.,-1.));
#144 = ( GEOMETRIC_REPRESENTATION_CONTEXT(2) 
PARAMETRIC_REPRESENTATION_CONTEXT() REPRESENTATION_CONTEXT('2D SPACE',''
  ) );
#145 = ( GEOMETRIC_REPRESENTATION_CONTEXT(3) 
GLOBAL_UNCERTAINTY_ASSIGNED_CONTEXT((#149)) GLOBAL_UNIT_ASSIGNED_CONTEXT
((#146,#147,#148)) REPRESENTATION_CONTEXT('Context #1',
  '3D Context with UNIT and UNCERTAINTY') );
#146 = ( LENGTH_UNIT() NAMED_UNIT(*) SI_UNIT(.MILLI.,.METRE.) );
#147 = ( NAMED_UNIT(*) PLANE_ANGLE_UNIT() SI_UNIT($,.RADIAN.) );
#148 = ( NAMED_UNIT(*) SI_UNIT($,.STERADIAN.) SOLID_ANGLE_UNIT() );
#149 = UNCERTAINTY_MEASURE_WITH_UNIT(LENGTH_MEASURE(1.E-07),#146,
  'distance_accuracy_value','confusion accuracy');
#150 = PRODUCT_RELATED_PRODUCT_CATEGORY('part',$,(#7));
ENDSEC;
END-ISO-10303-21;
