ISO-10303-21;
HEADER;
FILE_DESCRIPTION(('Open CASCADE Model'),'2;1');
FILE_NAME('Open CASCADE Shape Model','2026-07-21T00:13:24',('Author'),(
    'Open CASCADE'),'Open CASCADE STEP processor 7.9','Open CASCADE 7.9'
  ,'Unknown');
FILE_SCHEMA(('AUTOMOTIVE_DESIGN { 1 0 10303 214 1 1 1 1 }'));
ENDSEC;
DATA;
#1 = APPLICATION_PROTOCOL_DEFINITION('international standard',
  'automotive_design',2000,#2);
#2 = APPLICATION_CONTEXT(
  'core data for automotive mechanical design processes');
#3 = SHAPE_DEFINITION_REPRESENTATION(#4,#10);
#4 = PRODUCT_DEFINITION_SHAPE('','',#5);
#5 = PRODUCT_DEFINITION('design','',#6,#9);
#6 = PRODUCT_DEFINITION_FORMATION('','',#7);
#7 = PRODUCT('Open CASCADE STEP translator 7.9 40',
  'Open CASCADE STEP translator 7.9 40','',(#8));
#8 = PRODUCT_CONTEXT('',#2,'mechanical');
#9 = PRODUCT_DEFINITION_CONTEXT('part definition',#2,'design');
#10 = MANIFOLD_SURFACE_SHAPE_REPRESENTATION('',(#11,#15),#161);
#11 = AXIS2_PLACEMENT_3D('',#12,#13,#14);
#12 = CARTESIAN_POINT('',(0.,0.,0.));
#13 = DIRECTION('',(0.,0.,1.));
#14 = DIRECTION('',(1.,0.,-0.));
#15 = SHELL_BASED_SURFACE_MODEL('',(#16));
#16 = OPEN_SHELL('',(#17));
#17 = ADVANCED_FACE('',(#18),#50,.T.);
#18 = FACE_BOUND('',#19,.T.);
#19 = EDGE_LOOP('',(#20,#79,#95,#147));
#20 = ORIENTED_EDGE('',*,*,#21,.T.);
#21 = EDGE_CURVE('',#22,#24,#26,.T.);
#22 = VERTEX_POINT('',#23);
#23 = CARTESIAN_POINT('',(0.,0.,0.));
#24 = VERTEX_POINT('',#25);
#25 = CARTESIAN_POINT('',(1.,0.,0.));
#26 = SURFACE_CURVE('',#27,(#49),.PCURVE_S1.);
#27 = B_SPLINE_CURVE_WITH_KNOTS('',1,(#28,#29,#30,#31,#32,#33,#34,#35,
    #36,#37,#38,#39,#40,#41,#42,#43,#44,#45,#46,#47,#48),.UNSPECIFIED.,
  .F.,.F.,(2,1,1,1,1,1,1,1,1,1,1,1,1,1,1,1,1,1,1,1,2),(0.,
    1.652030002405E-02,5.833085881053E-02,7.418096733491E-02,
    9.831260006681E-02,0.141717688591,0.165859612511,0.288358990522,
    0.331718073343,0.369167282487,0.410828734734,0.474723486424,
    0.501222593462,0.571413075293,0.689848360998,0.78661896541,
    0.827307992581,0.847636472956,0.871755315677,0.950506872172,1.),
  .UNSPECIFIED.);
#28 = CARTESIAN_POINT('',(0.,-0.,0.));
#29 = CARTESIAN_POINT('',(1.623125824379E-02,3.682451671079E-03,0.));
#30 = CARTESIAN_POINT('',(5.835419084637E-02,3.743361471315E-03,0.));
#31 = CARTESIAN_POINT('',(7.201691316829E-02,-4.522497158457E-03,0.));
#32 = CARTESIAN_POINT('',(9.586980211702E-02,1.796924041365E-04,0.));
#33 = CARTESIAN_POINT('',(0.139344641972,-4.532055249052E-03,0.));
#34 = CARTESIAN_POINT('',(0.16234950672,3.364231222899E-03,0.));
#35 = CARTESIAN_POINT('',(0.285702324852,-5.441655203993E-04,0.));
#36 = CARTESIAN_POINT('',(0.329247596735,2.922827466485E-03,0.));
#37 = CARTESIAN_POINT('',(0.366973895013,2.468153938734E-03,0.));
#38 = CARTESIAN_POINT('',(0.408887300273,4.699454212388E-03,0.));
#39 = CARTESIAN_POINT('',(0.473253349049,3.810466892598E-03,0.));
#40 = CARTESIAN_POINT('',(0.498730245508,-4.168484076292E-03,0.));
#41 = CARTESIAN_POINT('',(0.569194176989,1.784670085177E-03,0.));
#42 = CARTESIAN_POINT('',(0.688480013814,-1.081292119146E-03,0.));
#43 = CARTESIAN_POINT('',(0.785963205045,3.498586801073E-04,0.));
#44 = CARTESIAN_POINT('',(0.826951185186,9.954875475472E-04,0.));
#45 = CARTESIAN_POINT('',(0.8473893462,-3.188609134607E-04,0.));
#46 = CARTESIAN_POINT('',(0.871442752428,3.127610553847E-03,0.));
#47 = CARTESIAN_POINT('',(0.950377015799,-4.886038985196E-03,0.));
#48 = CARTESIAN_POINT('',(1.,-0.,0.));
#49 = PCURVE('',#50,#55);
#50 = PLANE('',#51);
#51 = AXIS2_PLACEMENT_3D('',#52,#53,#54);
#52 = CARTESIAN_POINT('',(0.498535673017,5.E-02,0.));
#53 = DIRECTION('',(0.,0.,1.));
#54 = DIRECTION('',(1.,0.,-0.));
#55 = DEFINITIONAL_REPRESENTATION('',(#56),#78);
#56 = B_SPLINE_CURVE_WITH_KNOTS('',1,(#57,#58,#59,#60,#61,#62,#63,#64,
    #65,#66,#67,#68,#69,#70,#71,#72,#73,#74,#75,#76,#77),.UNSPECIFIED.,
  .F.,.F.,(2,1,1,1,1,1,1,1,1,1,1,1,1,1,1,1,1,1,1,1,2),(0.,
    1.652030002405E-02,5.833085881053E-02,7.418096733491E-02,
    9.831260006681E-02,0.141717688591,0.165859612511,0.288358990522,
    0.331718073343,0.369167282487,0.410828734734,0.474723486424,
    0.501222593462,0.571413075293,0.689848360998,0.78661896541,
    0.827307992581,0.847636472956,0.871755315677,0.950506872172,1.),
  .UNSPECIFIED.);
#57 = CARTESIAN_POINT('',(-0.498535673017,-5.E-02));
#58 = CARTESIAN_POINT('',(-0.482304414773,-4.631754832892E-02));
#59 = CARTESIAN_POINT('',(-0.44018148217,-4.625663852869E-02));
#60 = CARTESIAN_POINT('',(-0.426518759848,-5.452249715846E-02));
#61 = CARTESIAN_POINT('',(-0.4026658709,-4.982030759586E-02));
#62 = CARTESIAN_POINT('',(-0.359191031045,-5.453205524905E-02));
#63 = CARTESIAN_POINT('',(-0.336186166296,-4.66357687771E-02));
#64 = CARTESIAN_POINT('',(-0.212833348165,-5.05441655204E-02));
#65 = CARTESIAN_POINT('',(-0.169288076282,-4.707717253352E-02));
#66 = CARTESIAN_POINT('',(-0.131561778004,-4.753184606127E-02));
#67 = CARTESIAN_POINT('',(-8.964837274335E-02,-4.530054578761E-02));
#68 = CARTESIAN_POINT('',(-2.528232396786E-02,-4.61895331074E-02));
#69 = CARTESIAN_POINT('',(1.945724916688E-04,-5.416848407629E-02));
#70 = CARTESIAN_POINT('',(7.065850397194E-02,-4.821532991482E-02));
#71 = CARTESIAN_POINT('',(0.189944340797,-5.108129211915E-02));
#72 = CARTESIAN_POINT('',(0.287427532028,-4.965014131989E-02));
#73 = CARTESIAN_POINT('',(0.328415512169,-4.900451245245E-02));
#74 = CARTESIAN_POINT('',(0.348853673184,-5.031886091346E-02));
#75 = CARTESIAN_POINT('',(0.372907079411,-4.687238944615E-02));
#76 = CARTESIAN_POINT('',(0.451841342782,-5.48860389852E-02));
#77 = CARTESIAN_POINT('',(0.501464326983,-5.E-02));
#78 = ( GEOMETRIC_REPRESENTATION_CONTEXT(2) 
PARAMETRIC_REPRESENTATION_CONTEXT() REPRESENTATION_CONTEXT('2D SPACE',''
  ) );
#79 = ORIENTED_EDGE('',*,*,#80,.T.);
#80 = EDGE_CURVE('',#24,#81,#83,.T.);
#81 = VERTEX_POINT('',#82);
#82 = CARTESIAN_POINT('',(1.,0.1,0.));
#83 = SURFACE_CURVE('',#84,(#88),.PCURVE_S1.);
#84 = LINE('',#85,#86);
#85 = CARTESIAN_POINT('',(1.,-0.,0.));
#86 = VECTOR('',#87,1.);
#87 = DIRECTION('',(0.,1.,0.));
#88 = PCURVE('',#50,#89);
#89 = DEFINITIONAL_REPRESENTATION('',(#90),#94);
#90 = LINE('',#91,#92);
#91 = CARTESIAN_POINT('',(0.501464326983,-5.E-02));
#92 = VECTOR('',#93,1.);
#93 = DIRECTION('',(0.,1.));
#94 = ( GEOMETRIC_REPRESENTATION_CONTEXT(2) 
PARAMETRIC_REPRESENTATION_CONTEXT() REPRESENTATION_CONTEXT('2D SPACE',''
  ) );
#95 = ORIENTED_EDGE('',*,*,#96,.T.);
#96 = EDGE_CURVE('',#81,#97,#99,.T.);
#97 = VERTEX_POINT('',#98);
#98 = CARTESIAN_POINT('',(0.,0.1,0.));
#99 = SURFACE_CURVE('',#100,(#122),.PCURVE_S1.);
#100 = B_SPLINE_CURVE_WITH_KNOTS('',1,(#101,#102,#103,#104,#105,#106,
    #107,#108,#109,#110,#111,#112,#113,#114,#115,#116,#117,#118,#119,
    #120,#121),.UNSPECIFIED.,.F.,.F.,(2,1,1,1,1,1,1,1,1,1,1,1,1,1,1,1,1,
    1,1,1,2),(0.,4.9493127828E-02,0.128244684323,0.152363527044,
    0.172692007419,0.21338103459,0.310151639002,0.428586924707,
    0.498777406538,0.525276513576,0.589171265266,0.630832717513,
    0.668281926657,0.711641009478,0.834140387489,0.858282311409,
    0.901687399933,0.925819032665,0.941669141189,0.983479699976,1.),
  .UNSPECIFIED.);
#101 = CARTESIAN_POINT('',(1.,0.1,0.));
#102 = CARTESIAN_POINT('',(0.950377015799,0.104886038985,0.));
#103 = CARTESIAN_POINT('',(0.871442752428,9.687238944615E-02,0.));
#104 = CARTESIAN_POINT('',(0.8473893462,0.100318860913,0.));
#105 = CARTESIAN_POINT('',(0.826951185186,9.900451245245E-02,0.));
#106 = CARTESIAN_POINT('',(0.785963205045,9.965014131989E-02,0.));
#107 = CARTESIAN_POINT('',(0.688480013814,0.101081292119,0.));
#108 = CARTESIAN_POINT('',(0.569194176989,9.821532991482E-02,0.));
#109 = CARTESIAN_POINT('',(0.498730245508,0.104168484076,0.));
#110 = CARTESIAN_POINT('',(0.473253349049,9.61895331074E-02,0.));
#111 = CARTESIAN_POINT('',(0.408887300273,9.530054578761E-02,0.));
#112 = CARTESIAN_POINT('',(0.366973895013,9.753184606127E-02,0.));
#113 = CARTESIAN_POINT('',(0.329247596735,9.707717253352E-02,0.));
#114 = CARTESIAN_POINT('',(0.285702324852,0.10054416552,0.));
#115 = CARTESIAN_POINT('',(0.16234950672,9.66357687771E-02,0.));
#116 = CARTESIAN_POINT('',(0.139344641972,0.104532055249,0.));
#117 = CARTESIAN_POINT('',(9.586980211702E-02,9.982030759586E-02,0.));
#118 = CARTESIAN_POINT('',(7.201691316829E-02,0.104522497158,0.));
#119 = CARTESIAN_POINT('',(5.835419084637E-02,9.625663852869E-02,0.));
#120 = CARTESIAN_POINT('',(1.623125824379E-02,9.631754832892E-02,0.));
#121 = CARTESIAN_POINT('',(0.,0.1,0.));
#122 = PCURVE('',#50,#123);
#123 = DEFINITIONAL_REPRESENTATION('',(#124),#146);
#124 = B_SPLINE_CURVE_WITH_KNOTS('',1,(#125,#126,#127,#128,#129,#130,
    #131,#132,#133,#134,#135,#136,#137,#138,#139,#140,#141,#142,#143,
    #144,#145),.UNSPECIFIED.,.F.,.F.,(2,1,1,1,1,1,1,1,1,1,1,1,1,1,1,1,1,
    1,1,1,2),(0.,4.9493127828E-02,0.128244684323,0.152363527044,
    0.172692007419,0.21338103459,0.310151639002,0.428586924707,
    0.498777406538,0.525276513576,0.589171265266,0.630832717513,
    0.668281926657,0.711641009478,0.834140387489,0.858282311409,
    0.901687399933,0.925819032665,0.941669141189,0.983479699976,1.),
  .UNSPECIFIED.);
#125 = CARTESIAN_POINT('',(0.501464326983,5.E-02));
#126 = CARTESIAN_POINT('',(0.451841342782,5.48860389852E-02));
#127 = CARTESIAN_POINT('',(0.372907079411,4.687238944615E-02));
#128 = CARTESIAN_POINT('',(0.348853673184,5.031886091346E-02));
#129 = CARTESIAN_POINT('',(0.328415512169,4.900451245245E-02));
#130 = CARTESIAN_POINT('',(0.287427532028,4.965014131989E-02));
#131 = CARTESIAN_POINT('',(0.189944340797,5.108129211915E-02));
#132 = CARTESIAN_POINT('',(7.065850397194E-02,4.821532991482E-02));
#133 = CARTESIAN_POINT('',(1.945724916689E-04,5.416848407629E-02));
#134 = CARTESIAN_POINT('',(-2.528232396786E-02,4.61895331074E-02));
#135 = CARTESIAN_POINT('',(-8.964837274335E-02,4.530054578761E-02));
#136 = CARTESIAN_POINT('',(-0.131561778004,4.753184606127E-02));
#137 = CARTESIAN_POINT('',(-0.169288076282,4.707717253352E-02));
#138 = CARTESIAN_POINT('',(-0.212833348165,5.05441655204E-02));
#139 = CARTESIAN_POINT('',(-0.336186166296,4.66357687771E-02));
#140 = CARTESIAN_POINT('',(-0.359191031045,5.453205524905E-02));
#141 = CARTESIAN_POINT('',(-0.4026658709,4.982030759586E-02));
#142 = CARTESIAN_POINT('',(-0.426518759848,5.452249715846E-02));
#143 = CARTESIAN_POINT('',(-0.44018148217,4.625663852869E-02));
#144 = CARTESIAN_POINT('',(-0.482304414773,4.631754832892E-02));
#145 = CARTESIAN_POINT('',(-0.498535673017,5.E-02));
#146 = ( GEOMETRIC_REPRESENTATION_CONTEXT(2) 
PARAMETRIC_REPRESENTATION_CONTEXT() REPRESENTATION_CONTEXT('2D SPACE',''
  ) );
#147 = ORIENTED_EDGE('',*,*,#148,.T.);
#148 = EDGE_CURVE('',#97,#22,#149,.T.);
#149 = SURFACE_CURVE('',#150,(#154),.PCURVE_S1.);
#150 = LINE('',#151,#152);
#151 = CARTESIAN_POINT('',(0.,0.1,0.));
#152 = VECTOR('',#153,1.);
#153 = DIRECTION('',(0.,-1.,0.));
#154 = PCURVE('',#50,#155);
#155 = DEFINITIONAL_REPRESENTATION('',(#156),#160);
#156 = LINE('',#157,#158);
#157 = CARTESIAN_POINT('',(-0.498535673017,5.E-02));
#158 = VECTOR('',#159,1.);
#159 = DIRECTION('',(0.,-1.));
#160 = ( GEOMETRIC_REPRESENTATION_CONTEXT(2) 
PARAMETRIC_REPRESENTATION_CONTEXT() REPRESENTATION_CONTEXT('2D SPACE',''
  ) );
#161 = ( GEOMETRIC_REPRESENTATION_CONTEXT(3) 
GLOBAL_UNCERTAINTY_ASSIGNED_CONTEXT((#165)) GLOBAL_UNIT_ASSIGNED_CONTEXT
((#162,#163,#164)) REPRESENTATION_CONTEXT('Context #1',
  '3D Context with UNIT and UNCERTAINTY') );
#162 = ( LENGTH_UNIT() NAMED_UNIT(*) SI_UNIT(.MILLI.,.METRE.) );
#163 = ( NAMED_UNIT(*) PLANE_ANGLE_UNIT() SI_UNIT($,.RADIAN.) );
#164 = ( NAMED_UNIT(*) SI_UNIT($,.STERADIAN.) SOLID_ANGLE_UNIT() );
#165 = UNCERTAINTY_MEASURE_WITH_UNIT(LENGTH_MEASURE(1.E-07),#162,
  'distance_accuracy_value','confusion accuracy');
#166 = PRODUCT_RELATED_PRODUCT_CATEGORY('part',$,(#7));
ENDSEC;
END-ISO-10303-21;
