ISO-10303-21;
HEADER;
FILE_DESCRIPTION(('Open CASCADE Model'),'2;1');
FILE_NAME('Open CASCADE Shape Model','2026-08-17T20:30:05',('Author'),(
    'Open CASCADE'),'Open CASCADE STEP processor 7.9','Open CASCADE 7.9'
  ,'Unknown');
FILE_SCHEMA(('AUTOMOTIVE_DESIGN { 1 0 10303 214 1 1 1 1 }'));
ENDSEC;
DATA;
#1 = APPLICATION_PROTOCOL_DEFINITION('international standard',
  'automotive_design',2000,#2);
#2 = APPLICATION_CONTEXT(
  'core data for automotive mechanical design processes');
#3 = SHAPE_DEFINITION_REPRESENTATION(#4,#10);
#4 = PRODUCT_DEFINITION_SHAPE('','',#5);
#5 = PRODUCT_DEFINITION('design','',#6,#9);
#6 = PRODUCT_DEFINITION_FORMATION('','',#7);
#7 = PRODUCT('Open CASCADE STEP translator 7.9 80',
  'Open CASCADE STEP translator 7.9 80','',(#8));
#8 = PRODUCT_CONTEXT('',#2,'mechanical');
#9 = PRODUCT_DEFINITION_CONTEXT('part definition',#2,'design');
#10 = MANIFOLD_SURFACE_SHAPE_REPRESENTATION('',(#11,#15),#145);
#11 = AXIS2_PLACEMENT_3D('',#12,#13,#14);
#12 = CARTESIAN_POINT('',(0.,0.,0.));
#13 = DIRECTION('',(0.,0.,1.));
#14 = DIRECTION('',(1.,0.,-0.));
#15 = SHELL_BASED_SURFACE_MODEL('',(#16));
#16 = OPEN_SHELL('',(#17));
#17 = ADVANCED_FACE('',(#18),#46,.T.);
#18 = FACE_BOUND('',#19,.T.);
#19 = EDGE_LOOP('',(#20,#71,#87,#131));
#20 = ORIENTED_EDGE('',*,*,#21,.T.);
#21 = EDGE_CURVE('',#22,#24,#26,.T.);
#22 = VERTEX_POINT('',#23);
#23 = CARTESIAN_POINT('',(0.,0.,0.));
#24 = VERTEX_POINT('',#25);
#25 = CARTESIAN_POINT('',(1.,0.,0.));
#26 = SURFACE_CURVE('',#27,(#45),.PCURVE_S1.);
#27 = B_SPLINE_CURVE_WITH_KNOTS('',1,(#28,#29,#30,#31,#32,#33,#34,#35,
    #36,#37,#38,#39,#40,#41,#42,#43,#44),.UNSPECIFIED.,.F.,.F.,(2,1,1,1,
    1,1,1,1,1,1,1,1,1,1,1,1,2),(0.,6.235088374504E-02,0.279074428466,
    0.341591055742,0.375265978592,0.41305010544,0.49333085621,
    0.53508289699,0.707531168367,0.729283921588,0.788684111685,
    0.823767894838,0.854027473787,0.916326245713,0.948456345663,
    0.984010545458,1.),.UNSPECIFIED.);
#28 = CARTESIAN_POINT('',(0.,-0.,0.));
#29 = CARTESIAN_POINT('',(6.23623690161E-02,-3.752545784636E-03,0.));
#30 = CARTESIAN_POINT('',(0.279382278387,3.92133074188E-03,0.));
#31 = CARTESIAN_POINT('',(0.341782866025,-1.564277976822E-03,0.));
#32 = CARTESIAN_POINT('',(0.375492118755,-7.698342084744E-05,0.));
#33 = CARTESIAN_POINT('',(0.413351545577,-1.112696066368E-04,0.));
#34 = CARTESIAN_POINT('',(0.493687941504,-4.207830426018E-03,0.));
#35 = CARTESIAN_POINT('',(0.535462605444,-1.956853406375E-03,0.));
#36 = CARTESIAN_POINT('',(0.708246060637,-3.676687963859E-03,0.));
#37 = CARTESIAN_POINT('',(0.730005937439,-4.932997155261E-03,0.));
#38 = CARTESIAN_POINT('',(0.789513612001,-3.792999093909E-03,0.));
#39 = CARTESIAN_POINT('',(0.824644407554,-2.523765289805E-03,0.));
#40 = CARTESIAN_POINT('',(0.854959118319,-3.084466407752E-03,0.));
#41 = CARTESIAN_POINT('',(0.917331361028,-5.688419257129E-04,0.));
#42 = CARTESIAN_POINT('',(0.949422345818,2.006363212097E-03,0.));
#43 = CARTESIAN_POINT('',(0.984517004717,-4.118222869619E-03,0.));
#44 = CARTESIAN_POINT('',(1.,-0.,0.));
#45 = PCURVE('',#46,#51);
#46 = PLANE('',#47);
#47 = AXIS2_PLACEMENT_3D('',#48,#49,#50);
#48 = CARTESIAN_POINT('',(0.500418865658,3.125E-02,0.));
#49 = DIRECTION('',(0.,0.,1.));
#50 = DIRECTION('',(1.,0.,-0.));
#51 = DEFINITIONAL_REPRESENTATION('',(#52),#70);
#52 = B_SPLINE_CURVE_WITH_KNOTS('',1,(#53,#54,#55,#56,#57,#58,#59,#60,
    #61,#62,#63,#64,#65,#66,#67,#68,#69),.UNSPECIFIED.,.F.,.F.,(2,1,1,1,
    1,1,1,1,1,1,1,1,1,1,1,1,2),(0.,6.235088374504E-02,0.279074428466,
    0.341591055742,0.375265978592,0.41305010544,0.49333085621,
    0.53508289699,0.707531168367,0.729283921588,0.788684111685,
    0.823767894838,0.854027473787,0.916326245713,0.948456345663,
    0.984010545458,1.),.UNSPECIFIED.);
#53 = CARTESIAN_POINT('',(-0.500418865658,-3.125E-02));
#54 = CARTESIAN_POINT('',(-0.438056496642,-3.500254578464E-02));
#55 = CARTESIAN_POINT('',(-0.221036587271,-2.732866925812E-02));
#56 = CARTESIAN_POINT('',(-0.158635999633,-3.281427797682E-02));
#57 = CARTESIAN_POINT('',(-0.124926746903,-3.132698342085E-02));
#58 = CARTESIAN_POINT('',(-8.706732008093E-02,-3.136126960664E-02));
#59 = CARTESIAN_POINT('',(-6.730924154098E-03,-3.545783042602E-02));
#60 = CARTESIAN_POINT('',(3.504373978602E-02,-3.320685340638E-02));
#61 = CARTESIAN_POINT('',(0.207827194979,-3.492668796386E-02));
#62 = CARTESIAN_POINT('',(0.22958707178,-3.618299715526E-02));
#63 = CARTESIAN_POINT('',(0.289094746343,-3.504299909391E-02));
#64 = CARTESIAN_POINT('',(0.324225541896,-3.377376528981E-02));
#65 = CARTESIAN_POINT('',(0.354540252661,-3.433446640775E-02));
#66 = CARTESIAN_POINT('',(0.41691249537,-3.181884192571E-02));
#67 = CARTESIAN_POINT('',(0.44900348016,-2.92436367879E-02));
#68 = CARTESIAN_POINT('',(0.484098139059,-3.536822286962E-02));
#69 = CARTESIAN_POINT('',(0.499581134342,-3.125E-02));
#70 = ( GEOMETRIC_REPRESENTATION_CONTEXT(2) 
PARAMETRIC_REPRESENTATION_CONTEXT() REPRESENTATION_CONTEXT('2D SPACE',''
  ) );
#71 = ORIENTED_EDGE('',*,*,#72,.T.);
#72 = EDGE_CURVE('',#24,#73,#75,.T.);
#73 = VERTEX_POINT('',#74);
#74 = CARTESIAN_POINT('',(1.,6.25E-02,0.));
#75 = SURFACE_CURVE('',#76,(#80),.PCURVE_S1.);
#76 = LINE('',#77,#78);
#77 = CARTESIAN_POINT('',(1.,-0.,0.));
#78 = VECTOR('',#79,1.);
#79 = DIRECTION('',(0.,1.,0.));
#80 = PCURVE('',#46,#81);
#81 = DEFINITIONAL_REPRESENTATION('',(#82),#86);
#82 = LINE('',#83,#84);
#83 = CARTESIAN_POINT('',(0.499581134342,-3.125E-02));
#84 = VECTOR('',#85,1.);
#85 = DIRECTION('',(0.,1.));
#86 = ( GEOMETRIC_REPRESENTATION_CONTEXT(2) 
PARAMETRIC_REPRESENTATION_CONTEXT() REPRESENTATION_CONTEXT('2D SPACE',''
  ) );
#87 = ORIENTED_EDGE('',*,*,#88,.T.);
#88 = EDGE_CURVE('',#73,#89,#91,.T.);
#89 = VERTEX_POINT('',#90);
#90 = CARTESIAN_POINT('',(0.,6.25E-02,0.));
#91 = SURFACE_CURVE('',#92,(#110),.PCURVE_S1.);
#92 = B_SPLINE_CURVE_WITH_KNOTS('',1,(#93,#94,#95,#96,#97,#98,#99,#100,
    #101,#102,#103,#104,#105,#106,#107,#108,#109),.UNSPECIFIED.,.F.,.F.,
  (2,1,1,1,1,1,1,1,1,1,1,1,1,1,1,1,2),(0.,1.598945454226E-02,
    5.154365433691E-02,8.367375428662E-02,0.145972526213,0.176232105162,
    0.211315888315,0.270716078412,0.292468831633,0.46491710301,
    0.50666914379,0.58694989456,0.624734021408,0.658408944258,
    0.720925571534,0.937649116255,1.),.UNSPECIFIED.);
#93 = CARTESIAN_POINT('',(1.,6.25E-02,0.));
#94 = CARTESIAN_POINT('',(0.984517004717,6.661822286962E-02,0.));
#95 = CARTESIAN_POINT('',(0.949422345818,6.04936367879E-02,0.));
#96 = CARTESIAN_POINT('',(0.917331361028,6.306884192571E-02,0.));
#97 = CARTESIAN_POINT('',(0.854959118319,6.558446640775E-02,0.));
#98 = CARTESIAN_POINT('',(0.824644407554,6.502376528981E-02,0.));
#99 = CARTESIAN_POINT('',(0.789513612001,6.629299909391E-02,0.));
#100 = CARTESIAN_POINT('',(0.730005937439,6.743299715526E-02,0.));
#101 = CARTESIAN_POINT('',(0.708246060637,6.617668796386E-02,0.));
#102 = CARTESIAN_POINT('',(0.535462605444,6.445685340638E-02,0.));
#103 = CARTESIAN_POINT('',(0.493687941504,6.670783042602E-02,0.));
#104 = CARTESIAN_POINT('',(0.413351545577,6.261126960664E-02,0.));
#105 = CARTESIAN_POINT('',(0.375492118755,6.257698342085E-02,0.));
#106 = CARTESIAN_POINT('',(0.341782866025,6.406427797682E-02,0.));
#107 = CARTESIAN_POINT('',(0.279382278387,5.857866925812E-02,0.));
#108 = CARTESIAN_POINT('',(6.23623690161E-02,6.625254578464E-02,0.));
#109 = CARTESIAN_POINT('',(0.,6.25E-02,0.));
#110 = PCURVE('',#46,#111);
#111 = DEFINITIONAL_REPRESENTATION('',(#112),#130);
#112 = B_SPLINE_CURVE_WITH_KNOTS('',1,(#113,#114,#115,#116,#117,#118,
    #119,#120,#121,#122,#123,#124,#125,#126,#127,#128,#129),
  .UNSPECIFIED.,.F.,.F.,(2,1,1,1,1,1,1,1,1,1,1,1,1,1,1,1,2),(0.,
    1.598945454226E-02,5.154365433691E-02,8.367375428662E-02,
    0.145972526213,0.176232105162,0.211315888315,0.270716078412,
    0.292468831633,0.46491710301,0.50666914379,0.58694989456,
    0.624734021408,0.658408944258,0.720925571534,0.937649116255,1.),
  .UNSPECIFIED.);
#113 = CARTESIAN_POINT('',(0.499581134342,3.125E-02));
#114 = CARTESIAN_POINT('',(0.484098139059,3.536822286962E-02));
#115 = CARTESIAN_POINT('',(0.44900348016,2.92436367879E-02));
#116 = CARTESIAN_POINT('',(0.41691249537,3.181884192571E-02));
#117 = CARTESIAN_POINT('',(0.354540252661,3.433446640775E-02));
#118 = CARTESIAN_POINT('',(0.324225541896,3.377376528981E-02));
#119 = CARTESIAN_POINT('',(0.289094746343,3.504299909391E-02));
#120 = CARTESIAN_POINT('',(0.22958707178,3.618299715526E-02));
#121 = CARTESIAN_POINT('',(0.207827194979,3.492668796386E-02));
#122 = CARTESIAN_POINT('',(3.504373978602E-02,3.320685340638E-02));
#123 = CARTESIAN_POINT('',(-6.730924154098E-03,3.545783042602E-02));
#124 = CARTESIAN_POINT('',(-8.706732008093E-02,3.136126960664E-02));
#125 = CARTESIAN_POINT('',(-0.124926746903,3.132698342085E-02));
#126 = CARTESIAN_POINT('',(-0.158635999633,3.281427797682E-02));
#127 = CARTESIAN_POINT('',(-0.221036587271,2.732866925812E-02));
#128 = CARTESIAN_POINT('',(-0.438056496642,3.500254578464E-02));
#129 = CARTESIAN_POINT('',(-0.500418865658,3.125E-02));
#130 = ( GEOMETRIC_REPRESENTATION_CONTEXT(2) 
PARAMETRIC_REPRESENTATION_CONTEXT() REPRESENTATION_CONTEXT('2D SPACE',''
  ) );
#131 = ORIENTED_EDGE('',*,*,#132,.T.);
#132 = EDGE_CURVE('',#89,#22,#133,.T.);
#133 = SURFACE_CURVE('',#134,(#138),.PCURVE_S1.);
#134 = LINE('',#135,#136);
#135 = CARTESIAN_POINT('',(0.,6.25E-02,0.));
#136 = VECTOR('',#137,1.);
#137 = DIRECTION('',(0.,-1.,0.));
#138 = PCURVE('',#46,#139);
#139 = DEFINITIONAL_REPRESENTATION('',(#140),#144);
#140 = LINE('',#141,#142);
#141 = CARTESIAN_POINT('',(-0.500418865658,3.125E-02));
#142 = VECTOR('',#143,1.);
#143 = DIRECTION('',(0.,-1.));
#144 = ( GEOMETRIC_REPRESENTATION_CONTEXT(2) 
PARAMETRIC_REPRESENTATION_CONTEXT() REPRESENTATION_CONTEXT('2D SPACE',''
  ) );
#145 = ( GEOMETRIC_REPRESENTATION_CONTEXT(3) 
GLOBAL_UNCERTAINTY_ASSIGNED_CONTEXT((#149)) GLOBAL_UNIT_ASSIGNED_CONTEXT
((#146,#147,#148)) REPRESENTATION_CONTEXT('Context #1',
  '3D Context with UNIT and UNCERTAINTY') );
#146 = ( LENGTH_UNIT() NAMED_UNIT(*) SI_UNIT(.MILLI.,.METRE.) );
#147 = ( NAMED_UNIT(*) PLANE_ANGLE_UNIT() SI_UNIT($,.RADIAN.) );
#148 = ( NAMED_UNIT(*) SI_UNIT($,.STERADIAN.) SOLID_ANGLE_UNIT() );
#149 = UNCERTAINTY_MEASURE_WITH_UNIT(LENGTH_MEASURE(1.E-07),#146,
  'distance_accuracy_value','confusion accuracy');
#150 = PRODUCT_RELATED_PRODUCT_CATEGORY('part',$,(#7));
ENDSEC;
END-ISO-10303-21;
