ISO-10303-21;
HEADER;
FILE_DESCRIPTION(('Open CASCADE Model'),'2;1');
FILE_NAME('Open CASCADE Shape Model','2026-08-17T20:30:05',('Author'),(
    'Open CASCADE'),'Open CASCADE STEP processor 7.9','Open CASCADE 7.9'
  ,'Unknown');
FILE_SCHEMA(('AUTOMOTIVE_DESIGN { 1 0 10303 214 1 1 1 1 }'));
ENDSEC;
DATA;
#1 = APPLICATION_PROTOCOL_DEFINITION('international standard',
  'automotive_design',2000,#2);
#2 = APPLICATION_CONTEXT(
  'core data for automotive mechanical design processes');
#3 = SHAPE_DEFINITION_REPRESENTATION(#4,#10);
#4 = PRODUCT_DEFINITION_SHAPE('','',#5);
#5 = PRODUCT_DEFINITION('design','',#6,#9);
#6 = PRODUCT_DEFINITION_FORMATION('','',#7);
#7 = PRODUCT('Open CASCADE STEP translator 7.9 85',
  'Open CASCADE STEP translator 7.9 85','',(#8));
#8 = PRODUCT_CONTEXT('',#2,'mechanical');
#9 = PRODUCT_DEFINITION_CONTEXT('part definition',#2,'design');
#10 = MANIFOLD_SURFACE_SHAPE_REPRESENTATION('',(#11,#15),#145);
#11 = AXIS2_PLACEMENT_3D('',#12,#13,#14);
#12 = CARTESIAN_POINT('',(0.,0.,0.));
#13 = DIRECTION('',(0.,0.,1.));
#14 = DIRECTION('',(1.,0.,-0.));
#15 = SHELL_BASED_SURFACE_MODEL('',(#16));
#16 = OPEN_SHELL('',(#17));
#17 = ADVANCED_FACE('',(#18),#46,.T.);
#18 = FACE_BOUND('',#19,.T.);
#19 = EDGE_LOOP('',(#20,#71,#87,#131));
#20 = ORIENTED_EDGE('',*,*,#21,.T.);
#21 = EDGE_CURVE('',#22,#24,#26,.T.);
#22 = VERTEX_POINT('',#23);
#23 = CARTESIAN_POINT('',(0.,0.,0.));
#24 = VERTEX_POINT('',#25);
#25 = CARTESIAN_POINT('',(1.,0.,0.));
#26 = SURFACE_CURVE('',#27,(#45),.PCURVE_S1.);
#27 = B_SPLINE_CURVE_WITH_KNOTS('',1,(#28,#29,#30,#31,#32,#33,#34,#35,
    #36,#37,#38,#39,#40,#41,#42,#43,#44),.UNSPECIFIED.,.F.,.F.,(2,1,1,1,
    1,1,1,1,1,1,1,1,1,1,1,1,2),(0.,0.292281444676,0.34949374704,
    0.393419770559,0.492969609209,0.518593764803,0.534978737604,
    0.575343091956,0.637042770898,0.677334241336,0.71013594957,
    0.748057260835,0.766426865692,0.881213852609,0.896452794553,
    0.944337733327,1.),.UNSPECIFIED.);
#28 = CARTESIAN_POINT('',(0.,-0.,0.));
#29 = CARTESIAN_POINT('',(0.293749469765,4.06583635377E-04,0.));
#30 = CARTESIAN_POINT('',(0.350998089707,-4.961159488969E-03,0.));
#31 = CARTESIAN_POINT('',(0.395103192119,-3.045376755445E-03,0.));
#32 = CARTESIAN_POINT('',(0.494871853018,4.451578338671E-03,0.));
#33 = CARTESIAN_POINT('',(0.520401502586,1.068106107308E-03,0.));
#34 = CARTESIAN_POINT('',(0.536819854489,2.33663961178E-03,0.));
#35 = CARTESIAN_POINT('',(0.577341779031,4.251210034169E-03,0.));
#36 = CARTESIAN_POINT('',(0.638932489801,-2.944554280193E-03,0.));
#37 = CARTESIAN_POINT('',(0.679426337517,-2.994777863424E-03,0.));
#38 = CARTESIAN_POINT('',(0.71238860815,-3.522269203609E-03,0.));
#39 = CARTESIAN_POINT('',(0.750410620033,-9.075228593929E-04,0.));
#40 = CARTESIAN_POINT('',(0.768871500821,-7.148227537787E-04,0.));
#41 = CARTESIAN_POINT('',(0.884202564872,-3.455827874186E-03,0.));
#42 = CARTESIAN_POINT('',(0.897038773853,4.898582213664E-03,0.));
#43 = CARTESIAN_POINT('',(0.944238878062,-4.49361212475E-03,0.));
#44 = CARTESIAN_POINT('',(1.,-0.,0.));
#45 = PCURVE('',#46,#51);
#46 = PLANE('',#47);
#47 = AXIS2_PLACEMENT_3D('',#48,#49,#50);
#48 = CARTESIAN_POINT('',(0.501368682148,3.125E-02,0.));
#49 = DIRECTION('',(0.,0.,1.));
#50 = DIRECTION('',(1.,0.,-0.));
#51 = DEFINITIONAL_REPRESENTATION('',(#52),#70);
#52 = B_SPLINE_CURVE_WITH_KNOTS('',1,(#53,#54,#55,#56,#57,#58,#59,#60,
    #61,#62,#63,#64,#65,#66,#67,#68,#69),.UNSPECIFIED.,.F.,.F.,(2,1,1,1,
    1,1,1,1,1,1,1,1,1,1,1,1,2),(0.,0.292281444676,0.34949374704,
    0.393419770559,0.492969609209,0.518593764803,0.534978737604,
    0.575343091956,0.637042770898,0.677334241336,0.71013594957,
    0.748057260835,0.766426865692,0.881213852609,0.896452794553,
    0.944337733327,1.),.UNSPECIFIED.);
#53 = CARTESIAN_POINT('',(-0.501368682148,-3.125E-02));
#54 = CARTESIAN_POINT('',(-0.207619212383,-3.084341636462E-02));
#55 = CARTESIAN_POINT('',(-0.150370592441,-3.621115948897E-02));
#56 = CARTESIAN_POINT('',(-0.106265490029,-3.429537675544E-02));
#57 = CARTESIAN_POINT('',(-6.496829130116E-03,-2.679842166133E-02));
#58 = CARTESIAN_POINT('',(1.903282043747E-02,-3.018189389269E-02));
#59 = CARTESIAN_POINT('',(3.545117234063E-02,-2.891336038822E-02));
#60 = CARTESIAN_POINT('',(7.597309688298E-02,-2.699878996583E-02));
#61 = CARTESIAN_POINT('',(0.137563807653,-3.419455428019E-02));
#62 = CARTESIAN_POINT('',(0.178057655369,-3.424477786342E-02));
#63 = CARTESIAN_POINT('',(0.211019926002,-3.477226920361E-02));
#64 = CARTESIAN_POINT('',(0.249041937884,-3.215752285939E-02));
#65 = CARTESIAN_POINT('',(0.267502818673,-3.196482275378E-02));
#66 = CARTESIAN_POINT('',(0.382833882724,-3.470582787419E-02));
#67 = CARTESIAN_POINT('',(0.395670091705,-2.635141778634E-02));
#68 = CARTESIAN_POINT('',(0.442870195914,-3.574361212475E-02));
#69 = CARTESIAN_POINT('',(0.498631317852,-3.125E-02));
#70 = ( GEOMETRIC_REPRESENTATION_CONTEXT(2) 
PARAMETRIC_REPRESENTATION_CONTEXT() REPRESENTATION_CONTEXT('2D SPACE',''
  ) );
#71 = ORIENTED_EDGE('',*,*,#72,.T.);
#72 = EDGE_CURVE('',#24,#73,#75,.T.);
#73 = VERTEX_POINT('',#74);
#74 = CARTESIAN_POINT('',(1.,6.25E-02,0.));
#75 = SURFACE_CURVE('',#76,(#80),.PCURVE_S1.);
#76 = LINE('',#77,#78);
#77 = CARTESIAN_POINT('',(1.,-0.,0.));
#78 = VECTOR('',#79,1.);
#79 = DIRECTION('',(0.,1.,0.));
#80 = PCURVE('',#46,#81);
#81 = DEFINITIONAL_REPRESENTATION('',(#82),#86);
#82 = LINE('',#83,#84);
#83 = CARTESIAN_POINT('',(0.498631317852,-3.125E-02));
#84 = VECTOR('',#85,1.);
#85 = DIRECTION('',(0.,1.));
#86 = ( GEOMETRIC_REPRESENTATION_CONTEXT(2) 
PARAMETRIC_REPRESENTATION_CONTEXT() REPRESENTATION_CONTEXT('2D SPACE',''
  ) );
#87 = ORIENTED_EDGE('',*,*,#88,.T.);
#88 = EDGE_CURVE('',#73,#89,#91,.T.);
#89 = VERTEX_POINT('',#90);
#90 = CARTESIAN_POINT('',(0.,6.25E-02,0.));
#91 = SURFACE_CURVE('',#92,(#110),.PCURVE_S1.);
#92 = B_SPLINE_CURVE_WITH_KNOTS('',1,(#93,#94,#95,#96,#97,#98,#99,#100,
    #101,#102,#103,#104,#105,#106,#107,#108,#109),.UNSPECIFIED.,.F.,.F.,
  (2,1,1,1,1,1,1,1,1,1,1,1,1,1,1,1,2),(0.,5.566226667322E-02,
    0.103547205447,0.118786147391,0.233573134308,0.251942739165,
    0.28986405043,0.322665758664,0.362957229102,0.424656908044,
    0.465021262396,0.481406235197,0.507030390791,0.606580229441,
    0.65050625296,0.707718555324,1.),.UNSPECIFIED.);
#93 = CARTESIAN_POINT('',(1.,6.25E-02,0.));
#94 = CARTESIAN_POINT('',(0.944238878062,6.699361212475E-02,0.));
#95 = CARTESIAN_POINT('',(0.897038773853,5.760141778634E-02,0.));
#96 = CARTESIAN_POINT('',(0.884202564872,6.595582787419E-02,0.));
#97 = CARTESIAN_POINT('',(0.768871500821,6.321482275378E-02,0.));
#98 = CARTESIAN_POINT('',(0.750410620033,6.340752285939E-02,0.));
#99 = CARTESIAN_POINT('',(0.71238860815,6.602226920361E-02,0.));
#100 = CARTESIAN_POINT('',(0.679426337517,6.549477786342E-02,0.));
#101 = CARTESIAN_POINT('',(0.638932489801,6.544455428019E-02,0.));
#102 = CARTESIAN_POINT('',(0.577341779031,5.824878996583E-02,0.));
#103 = CARTESIAN_POINT('',(0.536819854489,6.016336038822E-02,0.));
#104 = CARTESIAN_POINT('',(0.520401502586,6.143189389269E-02,0.));
#105 = CARTESIAN_POINT('',(0.494871853018,5.804842166133E-02,0.));
#106 = CARTESIAN_POINT('',(0.395103192119,6.554537675544E-02,0.));
#107 = CARTESIAN_POINT('',(0.350998089707,6.746115948897E-02,0.));
#108 = CARTESIAN_POINT('',(0.293749469765,6.209341636462E-02,0.));
#109 = CARTESIAN_POINT('',(0.,6.25E-02,0.));
#110 = PCURVE('',#46,#111);
#111 = DEFINITIONAL_REPRESENTATION('',(#112),#130);
#112 = B_SPLINE_CURVE_WITH_KNOTS('',1,(#113,#114,#115,#116,#117,#118,
    #119,#120,#121,#122,#123,#124,#125,#126,#127,#128,#129),
  .UNSPECIFIED.,.F.,.F.,(2,1,1,1,1,1,1,1,1,1,1,1,1,1,1,1,2),(0.,
    5.566226667322E-02,0.103547205447,0.118786147391,0.233573134308,
    0.251942739165,0.28986405043,0.322665758664,0.362957229102,
    0.424656908044,0.465021262396,0.481406235197,0.507030390791,
    0.606580229441,0.65050625296,0.707718555324,1.),.UNSPECIFIED.);
#113 = CARTESIAN_POINT('',(0.498631317852,3.125E-02));
#114 = CARTESIAN_POINT('',(0.442870195914,3.574361212475E-02));
#115 = CARTESIAN_POINT('',(0.395670091705,2.635141778634E-02));
#116 = CARTESIAN_POINT('',(0.382833882724,3.470582787419E-02));
#117 = CARTESIAN_POINT('',(0.267502818673,3.196482275378E-02));
#118 = CARTESIAN_POINT('',(0.249041937884,3.215752285939E-02));
#119 = CARTESIAN_POINT('',(0.211019926002,3.477226920361E-02));
#120 = CARTESIAN_POINT('',(0.178057655369,3.424477786342E-02));
#121 = CARTESIAN_POINT('',(0.137563807653,3.419455428019E-02));
#122 = CARTESIAN_POINT('',(7.597309688298E-02,2.699878996583E-02));
#123 = CARTESIAN_POINT('',(3.545117234063E-02,2.891336038822E-02));
#124 = CARTESIAN_POINT('',(1.903282043747E-02,3.018189389269E-02));
#125 = CARTESIAN_POINT('',(-6.496829130116E-03,2.679842166133E-02));
#126 = CARTESIAN_POINT('',(-0.106265490029,3.429537675544E-02));
#127 = CARTESIAN_POINT('',(-0.150370592441,3.621115948897E-02));
#128 = CARTESIAN_POINT('',(-0.207619212383,3.084341636462E-02));
#129 = CARTESIAN_POINT('',(-0.501368682148,3.125E-02));
#130 = ( GEOMETRIC_REPRESENTATION_CONTEXT(2) 
PARAMETRIC_REPRESENTATION_CONTEXT() REPRESENTATION_CONTEXT('2D SPACE',''
  ) );
#131 = ORIENTED_EDGE('',*,*,#132,.T.);
#132 = EDGE_CURVE('',#89,#22,#133,.T.);
#133 = SURFACE_CURVE('',#134,(#138),.PCURVE_S1.);
#134 = LINE('',#135,#136);
#135 = CARTESIAN_POINT('',(0.,6.25E-02,0.));
#136 = VECTOR('',#137,1.);
#137 = DIRECTION('',(0.,-1.,0.));
#138 = PCURVE('',#46,#139);
#139 = DEFINITIONAL_REPRESENTATION('',(#140),#144);
#140 = LINE('',#141,#142);
#141 = CARTESIAN_POINT('',(-0.501368682148,3.125E-02));
#142 = VECTOR('',#143,1.);
#143 = DIRECTION('',(0.,-1.));
#144 = ( GEOMETRIC_REPRESENTATION_CONTEXT(2) 
PARAMETRIC_REPRESENTATION_CONTEXT() REPRESENTATION_CONTEXT('2D SPACE',''
  ) );
#145 = ( GEOMETRIC_REPRESENTATION_CONTEXT(3) 
GLOBAL_UNCERTAINTY_ASSIGNED_CONTEXT((#149)) GLOBAL_UNIT_ASSIGNED_CONTEXT
((#146,#147,#148)) REPRESENTATION_CONTEXT('Context #1',
  '3D Context with UNIT and UNCERTAINTY') );
#146 = ( LENGTH_UNIT() NAMED_UNIT(*) SI_UNIT(.MILLI.,.METRE.) );
#147 = ( NAMED_UNIT(*) PLANE_ANGLE_UNIT() SI_UNIT($,.RADIAN.) );
#148 = ( NAMED_UNIT(*) SI_UNIT($,.STERADIAN.) SOLID_ANGLE_UNIT() );
#149 = UNCERTAINTY_MEASURE_WITH_UNIT(LENGTH_MEASURE(1.E-07),#146,
  'distance_accuracy_value','confusion accuracy');
#150 = PRODUCT_RELATED_PRODUCT_CATEGORY('part',$,(#7));
ENDSEC;
END-ISO-10303-21;
