ISO-10303-21;
HEADER;
FILE_DESCRIPTION(('Open CASCADE Model'),'2;1');
FILE_NAME('Open CASCADE Shape Model','2026-08-17T20:30:05',('Author'),(
    'Open CASCADE'),'Open CASCADE STEP processor 7.9','Open CASCADE 7.9'
  ,'Unknown');
FILE_SCHEMA(('AUTOMOTIVE_DESIGN { 1 0 10303 214 1 1 1 1 }'));
ENDSEC;
DATA;
#1 = APPLICATION_PROTOCOL_DEFINITION('international standard',
  'automotive_design',2000,#2);
#2 = APPLICATION_CONTEXT(
  'core data for automotive mechanical design processes');
#3 = SHAPE_DEFINITION_REPRESENTATION(#4,#10);
#4 = PRODUCT_DEFINITION_SHAPE('','',#5);
#5 = PRODUCT_DEFINITION('design','',#6,#9);
#6 = PRODUCT_DEFINITION_FORMATION('','',#7);
#7 = PRODUCT('Open CASCADE STEP translator 7.9 64',
  'Open CASCADE STEP translator 7.9 64','',(#8));
#8 = PRODUCT_CONTEXT('',#2,'mechanical');
#9 = PRODUCT_DEFINITION_CONTEXT('part definition',#2,'design');
#10 = MANIFOLD_SURFACE_SHAPE_REPRESENTATION('',(#11,#15),#145);
#11 = AXIS2_PLACEMENT_3D('',#12,#13,#14);
#12 = CARTESIAN_POINT('',(0.,0.,0.));
#13 = DIRECTION('',(0.,0.,1.));
#14 = DIRECTION('',(1.,0.,-0.));
#15 = SHELL_BASED_SURFACE_MODEL('',(#16));
#16 = OPEN_SHELL('',(#17));
#17 = ADVANCED_FACE('',(#18),#46,.T.);
#18 = FACE_BOUND('',#19,.T.);
#19 = EDGE_LOOP('',(#20,#71,#87,#131));
#20 = ORIENTED_EDGE('',*,*,#21,.T.);
#21 = EDGE_CURVE('',#22,#24,#26,.T.);
#22 = VERTEX_POINT('',#23);
#23 = CARTESIAN_POINT('',(0.,0.,0.));
#24 = VERTEX_POINT('',#25);
#25 = CARTESIAN_POINT('',(1.,0.,0.));
#26 = SURFACE_CURVE('',#27,(#45),.PCURVE_S1.);
#27 = B_SPLINE_CURVE_WITH_KNOTS('',1,(#28,#29,#30,#31,#32,#33,#34,#35,
    #36,#37,#38,#39,#40,#41,#42,#43,#44),.UNSPECIFIED.,.F.,.F.,(2,1,1,1,
    1,1,1,1,1,1,1,1,1,1,1,1,2),(0.,1.659641683514E-02,4.964488905167E-02
    ,0.173576349608,0.209161867595,0.272440039668,0.333477757486,
    0.353103030086,0.478785814991,0.519249646505,0.569899138916,
    0.595095527958,0.644415862799,0.736220599723,0.773473467139,
    0.850577236376,1.),.UNSPECIFIED.);
#28 = CARTESIAN_POINT('',(0.,-0.,0.));
#29 = CARTESIAN_POINT('',(1.664598602195E-02,2.925897167791E-04,0.));
#30 = CARTESIAN_POINT('',(4.953422862261E-02,-3.883349095764E-03,0.));
#31 = CARTESIAN_POINT('',(0.173683111328,2.652647546796E-03,0.));
#32 = CARTESIAN_POINT('',(0.208832781757,-3.5762392316E-03,0.));
#33 = CARTESIAN_POINT('',(0.272259732035,-1.056747067571E-03,0.));
#34 = CARTESIAN_POINT('',(0.333328336388,3.378853289799E-03,0.));
#35 = CARTESIAN_POINT('',(0.352205636854,-2.208873336035E-03,0.));
#36 = CARTESIAN_POINT('',(0.478282649071,-1.811462132646E-03,0.));
#37 = CARTESIAN_POINT('',(0.518580078259,3.061203065324E-03,0.));
#38 = CARTESIAN_POINT('',(0.569383381938,2.326472836849E-03,0.));
#39 = CARTESIAN_POINT('',(0.594445545067,-9.50918379317E-04,0.));
#40 = CARTESIAN_POINT('',(0.643915094224,-1.977033554565E-04,0.));
#41 = CARTESIAN_POINT('',(0.735901989904,-4.620438473195E-03,0.));
#42 = CARTESIAN_POINT('',(0.772792275564,1.34751908233E-03,0.));
#43 = CARTESIAN_POINT('',(0.850129198406,2.53270166982E-03,0.));
#44 = CARTESIAN_POINT('',(1.,-0.,0.));
#45 = PCURVE('',#46,#51);
#46 = PLANE('',#47);
#47 = AXIS2_PLACEMENT_3D('',#48,#49,#50);
#48 = CARTESIAN_POINT('',(0.499661763055,3.125E-02,0.));
#49 = DIRECTION('',(0.,0.,1.));
#50 = DIRECTION('',(1.,0.,-0.));
#51 = DEFINITIONAL_REPRESENTATION('',(#52),#70);
#52 = B_SPLINE_CURVE_WITH_KNOTS('',1,(#53,#54,#55,#56,#57,#58,#59,#60,
    #61,#62,#63,#64,#65,#66,#67,#68,#69),.UNSPECIFIED.,.F.,.F.,(2,1,1,1,
    1,1,1,1,1,1,1,1,1,1,1,1,2),(0.,1.659641683514E-02,4.964488905167E-02
    ,0.173576349608,0.209161867595,0.272440039668,0.333477757486,
    0.353103030086,0.478785814991,0.519249646505,0.569899138916,
    0.595095527958,0.644415862799,0.736220599723,0.773473467139,
    0.850577236376,1.),.UNSPECIFIED.);
#53 = CARTESIAN_POINT('',(-0.499661763055,-3.125E-02));
#54 = CARTESIAN_POINT('',(-0.483015777033,-3.095741028322E-02));
#55 = CARTESIAN_POINT('',(-0.450127534432,-3.513334909576E-02));
#56 = CARTESIAN_POINT('',(-0.325978651727,-2.85973524532E-02));
#57 = CARTESIAN_POINT('',(-0.290828981298,-3.48262392316E-02));
#58 = CARTESIAN_POINT('',(-0.22740203102,-3.230674706757E-02));
#59 = CARTESIAN_POINT('',(-0.166333426667,-2.78711467102E-02));
#60 = CARTESIAN_POINT('',(-0.147456126201,-3.345887333603E-02));
#61 = CARTESIAN_POINT('',(-2.137911398431E-02,-3.306146213265E-02));
#62 = CARTESIAN_POINT('',(1.891831520383E-02,-2.818879693468E-02));
#63 = CARTESIAN_POINT('',(6.97216188834E-02,-2.892352716315E-02));
#64 = CARTESIAN_POINT('',(9.4783782012E-02,-3.220091837932E-02));
#65 = CARTESIAN_POINT('',(0.144253331169,-3.144770335546E-02));
#66 = CARTESIAN_POINT('',(0.236240226849,-3.587043847319E-02));
#67 = CARTESIAN_POINT('',(0.273130512509,-2.990248091767E-02));
#68 = CARTESIAN_POINT('',(0.350467435351,-2.871729833018E-02));
#69 = CARTESIAN_POINT('',(0.500338236945,-3.125E-02));
#70 = ( GEOMETRIC_REPRESENTATION_CONTEXT(2) 
PARAMETRIC_REPRESENTATION_CONTEXT() REPRESENTATION_CONTEXT('2D SPACE',''
  ) );
#71 = ORIENTED_EDGE('',*,*,#72,.T.);
#72 = EDGE_CURVE('',#24,#73,#75,.T.);
#73 = VERTEX_POINT('',#74);
#74 = CARTESIAN_POINT('',(1.,6.25E-02,0.));
#75 = SURFACE_CURVE('',#76,(#80),.PCURVE_S1.);
#76 = LINE('',#77,#78);
#77 = CARTESIAN_POINT('',(1.,-0.,0.));
#78 = VECTOR('',#79,1.);
#79 = DIRECTION('',(0.,1.,0.));
#80 = PCURVE('',#46,#81);
#81 = DEFINITIONAL_REPRESENTATION('',(#82),#86);
#82 = LINE('',#83,#84);
#83 = CARTESIAN_POINT('',(0.500338236945,-3.125E-02));
#84 = VECTOR('',#85,1.);
#85 = DIRECTION('',(0.,1.));
#86 = ( GEOMETRIC_REPRESENTATION_CONTEXT(2) 
PARAMETRIC_REPRESENTATION_CONTEXT() REPRESENTATION_CONTEXT('2D SPACE',''
  ) );
#87 = ORIENTED_EDGE('',*,*,#88,.T.);
#88 = EDGE_CURVE('',#73,#89,#91,.T.);
#89 = VERTEX_POINT('',#90);
#90 = CARTESIAN_POINT('',(0.,6.25E-02,0.));
#91 = SURFACE_CURVE('',#92,(#110),.PCURVE_S1.);
#92 = B_SPLINE_CURVE_WITH_KNOTS('',1,(#93,#94,#95,#96,#97,#98,#99,#100,
    #101,#102,#103,#104,#105,#106,#107,#108,#109),.UNSPECIFIED.,.F.,.F.,
  (2,1,1,1,1,1,1,1,1,1,1,1,1,1,1,1,2),(0.,0.149422763624,0.226526532861,
    0.263779400277,0.355584137201,0.404904472042,0.430100861084,
    0.480750353495,0.521214185009,0.646896969914,0.666522242514,
    0.727559960332,0.790838132405,0.826423650392,0.950355110948,
    0.983403583165,1.),.UNSPECIFIED.);
#93 = CARTESIAN_POINT('',(1.,6.25E-02,0.));
#94 = CARTESIAN_POINT('',(0.850129198406,5.996729833018E-02,0.));
#95 = CARTESIAN_POINT('',(0.772792275564,6.115248091767E-02,0.));
#96 = CARTESIAN_POINT('',(0.735901989904,6.712043847319E-02,0.));
#97 = CARTESIAN_POINT('',(0.643915094224,6.269770335546E-02,0.));
#98 = CARTESIAN_POINT('',(0.594445545067,6.345091837932E-02,0.));
#99 = CARTESIAN_POINT('',(0.569383381938,6.017352716315E-02,0.));
#100 = CARTESIAN_POINT('',(0.518580078259,5.943879693468E-02,0.));
#101 = CARTESIAN_POINT('',(0.478282649071,6.431146213265E-02,0.));
#102 = CARTESIAN_POINT('',(0.352205636854,6.470887333603E-02,0.));
#103 = CARTESIAN_POINT('',(0.333328336388,5.91211467102E-02,0.));
#104 = CARTESIAN_POINT('',(0.272259732035,6.355674706757E-02,0.));
#105 = CARTESIAN_POINT('',(0.208832781757,6.60762392316E-02,0.));
#106 = CARTESIAN_POINT('',(0.173683111328,5.98473524532E-02,0.));
#107 = CARTESIAN_POINT('',(4.953422862261E-02,6.638334909576E-02,0.));
#108 = CARTESIAN_POINT('',(1.664598602195E-02,6.220741028322E-02,0.));
#109 = CARTESIAN_POINT('',(0.,6.25E-02,0.));
#110 = PCURVE('',#46,#111);
#111 = DEFINITIONAL_REPRESENTATION('',(#112),#130);
#112 = B_SPLINE_CURVE_WITH_KNOTS('',1,(#113,#114,#115,#116,#117,#118,
    #119,#120,#121,#122,#123,#124,#125,#126,#127,#128,#129),
  .UNSPECIFIED.,.F.,.F.,(2,1,1,1,1,1,1,1,1,1,1,1,1,1,1,1,2),(0.,
    0.149422763624,0.226526532861,0.263779400277,0.355584137201,
    0.404904472042,0.430100861084,0.480750353495,0.521214185009,
    0.646896969914,0.666522242514,0.727559960332,0.790838132405,
    0.826423650392,0.950355110948,0.983403583165,1.),.UNSPECIFIED.);
#113 = CARTESIAN_POINT('',(0.500338236945,3.125E-02));
#114 = CARTESIAN_POINT('',(0.350467435351,2.871729833018E-02));
#115 = CARTESIAN_POINT('',(0.273130512509,2.990248091767E-02));
#116 = CARTESIAN_POINT('',(0.236240226849,3.587043847319E-02));
#117 = CARTESIAN_POINT('',(0.144253331169,3.144770335546E-02));
#118 = CARTESIAN_POINT('',(9.4783782012E-02,3.220091837932E-02));
#119 = CARTESIAN_POINT('',(6.97216188834E-02,2.892352716315E-02));
#120 = CARTESIAN_POINT('',(1.891831520383E-02,2.818879693468E-02));
#121 = CARTESIAN_POINT('',(-2.137911398431E-02,3.306146213265E-02));
#122 = CARTESIAN_POINT('',(-0.147456126201,3.345887333603E-02));
#123 = CARTESIAN_POINT('',(-0.166333426667,2.78711467102E-02));
#124 = CARTESIAN_POINT('',(-0.22740203102,3.230674706757E-02));
#125 = CARTESIAN_POINT('',(-0.290828981298,3.48262392316E-02));
#126 = CARTESIAN_POINT('',(-0.325978651727,2.85973524532E-02));
#127 = CARTESIAN_POINT('',(-0.450127534432,3.513334909576E-02));
#128 = CARTESIAN_POINT('',(-0.483015777033,3.095741028322E-02));
#129 = CARTESIAN_POINT('',(-0.499661763055,3.125E-02));
#130 = ( GEOMETRIC_REPRESENTATION_CONTEXT(2) 
PARAMETRIC_REPRESENTATION_CONTEXT() REPRESENTATION_CONTEXT('2D SPACE',''
  ) );
#131 = ORIENTED_EDGE('',*,*,#132,.T.);
#132 = EDGE_CURVE('',#89,#22,#133,.T.);
#133 = SURFACE_CURVE('',#134,(#138),.PCURVE_S1.);
#134 = LINE('',#135,#136);
#135 = CARTESIAN_POINT('',(0.,6.25E-02,0.));
#136 = VECTOR('',#137,1.);
#137 = DIRECTION('',(0.,-1.,0.));
#138 = PCURVE('',#46,#139);
#139 = DEFINITIONAL_REPRESENTATION('',(#140),#144);
#140 = LINE('',#141,#142);
#141 = CARTESIAN_POINT('',(-0.499661763055,3.125E-02));
#142 = VECTOR('',#143,1.);
#143 = DIRECTION('',(0.,-1.));
#144 = ( GEOMETRIC_REPRESENTATION_CONTEXT(2) 
PARAMETRIC_REPRESENTATION_CONTEXT() REPRESENTATION_CONTEXT('2D SPACE',''
  ) );
#145 = ( GEOMETRIC_REPRESENTATION_CONTEXT(3) 
GLOBAL_UNCERTAINTY_ASSIGNED_CONTEXT((#149)) GLOBAL_UNIT_ASSIGNED_CONTEXT
((#146,#147,#148)) REPRESENTATION_CONTEXT('Context #1',
  '3D Context with UNIT and UNCERTAINTY') );
#146 = ( LENGTH_UNIT() NAMED_UNIT(*) SI_UNIT(.MILLI.,.METRE.) );
#147 = ( NAMED_UNIT(*) PLANE_ANGLE_UNIT() SI_UNIT($,.RADIAN.) );
#148 = ( NAMED_UNIT(*) SI_UNIT($,.STERADIAN.) SOLID_ANGLE_UNIT() );
#149 = UNCERTAINTY_MEASURE_WITH_UNIT(LENGTH_MEASURE(1.E-07),#146,
  'distance_accuracy_value','confusion accuracy');
#150 = PRODUCT_RELATED_PRODUCT_CATEGORY('part',$,(#7));
ENDSEC;
END-ISO-10303-21;
