ISO-10303-21;
HEADER;
FILE_DESCRIPTION(('Open CASCADE Model'),'2;1');
FILE_NAME('Open CASCADE Shape Model','2026-08-17T20:30:05',('Author'),(
    'Open CASCADE'),'Open CASCADE STEP processor 7.9','Open CASCADE 7.9'
  ,'Unknown');
FILE_SCHEMA(('AUTOMOTIVE_DESIGN { 1 0 10303 214 1 1 1 1 }'));
ENDSEC;
DATA;
#1 = APPLICATION_PROTOCOL_DEFINITION('international standard',
  'automotive_design',2000,#2);
#2 = APPLICATION_CONTEXT(
  'core data for automotive mechanical design processes');
#3 = SHAPE_DEFINITION_REPRESENTATION(#4,#10);
#4 = PRODUCT_DEFINITION_SHAPE('','',#5);
#5 = PRODUCT_DEFINITION('design','',#6,#9);
#6 = PRODUCT_DEFINITION_FORMATION('','',#7);
#7 = PRODUCT('Open CASCADE STEP translator 7.9 74',
  'Open CASCADE STEP translator 7.9 74','',(#8));
#8 = PRODUCT_CONTEXT('',#2,'mechanical');
#9 = PRODUCT_DEFINITION_CONTEXT('part definition',#2,'design');
#10 = MANIFOLD_SURFACE_SHAPE_REPRESENTATION('',(#11,#15),#145);
#11 = AXIS2_PLACEMENT_3D('',#12,#13,#14);
#12 = CARTESIAN_POINT('',(0.,0.,0.));
#13 = DIRECTION('',(0.,0.,1.));
#14 = DIRECTION('',(1.,0.,-0.));
#15 = SHELL_BASED_SURFACE_MODEL('',(#16));
#16 = OPEN_SHELL('',(#17));
#17 = ADVANCED_FACE('',(#18),#46,.T.);
#18 = FACE_BOUND('',#19,.T.);
#19 = EDGE_LOOP('',(#20,#71,#87,#131));
#20 = ORIENTED_EDGE('',*,*,#21,.T.);
#21 = EDGE_CURVE('',#22,#24,#26,.T.);
#22 = VERTEX_POINT('',#23);
#23 = CARTESIAN_POINT('',(0.,0.,0.));
#24 = VERTEX_POINT('',#25);
#25 = CARTESIAN_POINT('',(1.,0.,0.));
#26 = SURFACE_CURVE('',#27,(#45),.PCURVE_S1.);
#27 = B_SPLINE_CURVE_WITH_KNOTS('',1,(#28,#29,#30,#31,#32,#33,#34,#35,
    #36,#37,#38,#39,#40,#41,#42,#43,#44),.UNSPECIFIED.,.F.,.F.,(2,1,1,1,
    1,1,1,1,1,1,1,1,1,1,1,1,2),(0.,4.114665568022E-02,0.126510340703,
    0.144697282787,0.178597658354,0.291464529885,0.41805082448,
    0.440413791517,0.476784653647,0.54466197181,0.611866814727,
    0.732858646004,0.761513772208,0.798798086525,0.858916425598,
    0.900282718312,1.),.UNSPECIFIED.);
#28 = CARTESIAN_POINT('',(0.,-0.,0.));
#29 = CARTESIAN_POINT('',(4.11981645552E-02,1.574652189955E-03,0.));
#30 = CARTESIAN_POINT('',(0.126731111751,1.539167654027E-03,0.));
#31 = CARTESIAN_POINT('',(0.144450820948,-2.714046512414E-03,0.));
#32 = CARTESIAN_POINT('',(0.178216264886,9.862868204247E-04,0.));
#33 = CARTESIAN_POINT('',(0.291283611106,-1.310800490765E-03,0.));
#34 = CARTESIAN_POINT('',(0.418108009733,4.986030867785E-04,0.));
#35 = CARTESIAN_POINT('',(0.440110651916,4.737863142002E-03,0.));
#36 = CARTESIAN_POINT('',(0.476369693119,1.08096279705E-03,0.));
#37 = CARTESIAN_POINT('',(0.544338519822,-1.339571720802E-03,0.));
#38 = CARTESIAN_POINT('',(0.611670356477,-2.258343591666E-03,0.));
#39 = CARTESIAN_POINT('',(0.732839325208,1.64266869202E-03,0.));
#40 = CARTESIAN_POINT('',(0.761391666507,-1.380526928755E-03,0.));
#41 = CARTESIAN_POINT('',(0.798635459044,1.541540336466E-03,0.));
#42 = CARTESIAN_POINT('',(0.858744545241,-2.390389532196E-03,0.));
#43 = CARTESIAN_POINT('',(0.900163308736,-3.955370651487E-03,0.));
#44 = CARTESIAN_POINT('',(1.,-0.,0.));
#45 = PCURVE('',#46,#51);
#46 = PLANE('',#47);
#47 = AXIS2_PLACEMENT_3D('',#48,#49,#50);
#48 = CARTESIAN_POINT('',(0.499869612079,3.125E-02,0.));
#49 = DIRECTION('',(0.,0.,1.));
#50 = DIRECTION('',(1.,0.,-0.));
#51 = DEFINITIONAL_REPRESENTATION('',(#52),#70);
#52 = B_SPLINE_CURVE_WITH_KNOTS('',1,(#53,#54,#55,#56,#57,#58,#59,#60,
    #61,#62,#63,#64,#65,#66,#67,#68,#69),.UNSPECIFIED.,.F.,.F.,(2,1,1,1,
    1,1,1,1,1,1,1,1,1,1,1,1,2),(0.,4.114665568022E-02,0.126510340703,
    0.144697282787,0.178597658354,0.291464529885,0.41805082448,
    0.440413791517,0.476784653647,0.54466197181,0.611866814727,
    0.732858646004,0.761513772208,0.798798086525,0.858916425598,
    0.900282718312,1.),.UNSPECIFIED.);
#53 = CARTESIAN_POINT('',(-0.499869612079,-3.125E-02));
#54 = CARTESIAN_POINT('',(-0.458671447524,-2.967534781004E-02));
#55 = CARTESIAN_POINT('',(-0.373138500328,-2.971083234597E-02));
#56 = CARTESIAN_POINT('',(-0.355418791131,-3.396404651241E-02));
#57 = CARTESIAN_POINT('',(-0.321653347193,-3.026371317958E-02));
#58 = CARTESIAN_POINT('',(-0.208586000973,-3.256080049077E-02));
#59 = CARTESIAN_POINT('',(-8.176160234582E-02,-3.075139691322E-02));
#60 = CARTESIAN_POINT('',(-5.975896016297E-02,-2.6512136858E-02));
#61 = CARTESIAN_POINT('',(-2.349991895984E-02,-3.016903720295E-02));
#62 = CARTESIAN_POINT('',(4.446890774313E-02,-3.25895717208E-02));
#63 = CARTESIAN_POINT('',(0.111800744398,-3.350834359167E-02));
#64 = CARTESIAN_POINT('',(0.232969713129,-2.960733130798E-02));
#65 = CARTESIAN_POINT('',(0.261522054428,-3.263052692875E-02));
#66 = CARTESIAN_POINT('',(0.298765846965,-2.970845966353E-02));
#67 = CARTESIAN_POINT('',(0.358874933162,-3.36403895322E-02));
#68 = CARTESIAN_POINT('',(0.400293696657,-3.520537065149E-02));
#69 = CARTESIAN_POINT('',(0.500130387921,-3.125E-02));
#70 = ( GEOMETRIC_REPRESENTATION_CONTEXT(2) 
PARAMETRIC_REPRESENTATION_CONTEXT() REPRESENTATION_CONTEXT('2D SPACE',''
  ) );
#71 = ORIENTED_EDGE('',*,*,#72,.T.);
#72 = EDGE_CURVE('',#24,#73,#75,.T.);
#73 = VERTEX_POINT('',#74);
#74 = CARTESIAN_POINT('',(1.,6.25E-02,0.));
#75 = SURFACE_CURVE('',#76,(#80),.PCURVE_S1.);
#76 = LINE('',#77,#78);
#77 = CARTESIAN_POINT('',(1.,-0.,0.));
#78 = VECTOR('',#79,1.);
#79 = DIRECTION('',(0.,1.,0.));
#80 = PCURVE('',#46,#81);
#81 = DEFINITIONAL_REPRESENTATION('',(#82),#86);
#82 = LINE('',#83,#84);
#83 = CARTESIAN_POINT('',(0.500130387921,-3.125E-02));
#84 = VECTOR('',#85,1.);
#85 = DIRECTION('',(0.,1.));
#86 = ( GEOMETRIC_REPRESENTATION_CONTEXT(2) 
PARAMETRIC_REPRESENTATION_CONTEXT() REPRESENTATION_CONTEXT('2D SPACE',''
  ) );
#87 = ORIENTED_EDGE('',*,*,#88,.T.);
#88 = EDGE_CURVE('',#73,#89,#91,.T.);
#89 = VERTEX_POINT('',#90);
#90 = CARTESIAN_POINT('',(0.,6.25E-02,0.));
#91 = SURFACE_CURVE('',#92,(#110),.PCURVE_S1.);
#92 = B_SPLINE_CURVE_WITH_KNOTS('',1,(#93,#94,#95,#96,#97,#98,#99,#100,
    #101,#102,#103,#104,#105,#106,#107,#108,#109),.UNSPECIFIED.,.F.,.F.,
  (2,1,1,1,1,1,1,1,1,1,1,1,1,1,1,1,2),(0.,9.971728168762E-02,
    0.141083574402,0.201201913475,0.238486227792,0.267141353996,
    0.388133185273,0.45533802819,0.523215346353,0.559586208483,
    0.58194917552,0.708535470115,0.821402341646,0.855302717213,
    0.873489659297,0.95885334432,1.),.UNSPECIFIED.);
#93 = CARTESIAN_POINT('',(1.,6.25E-02,0.));
#94 = CARTESIAN_POINT('',(0.900163308736,6.645537065149E-02,0.));
#95 = CARTESIAN_POINT('',(0.858744545241,6.48903895322E-02,0.));
#96 = CARTESIAN_POINT('',(0.798635459044,6.095845966353E-02,0.));
#97 = CARTESIAN_POINT('',(0.761391666507,6.388052692875E-02,0.));
#98 = CARTESIAN_POINT('',(0.732839325208,6.085733130798E-02,0.));
#99 = CARTESIAN_POINT('',(0.611670356477,6.475834359167E-02,0.));
#100 = CARTESIAN_POINT('',(0.544338519822,6.38395717208E-02,0.));
#101 = CARTESIAN_POINT('',(0.476369693119,6.141903720295E-02,0.));
#102 = CARTESIAN_POINT('',(0.440110651916,5.7762136858E-02,0.));
#103 = CARTESIAN_POINT('',(0.418108009733,6.200139691322E-02,0.));
#104 = CARTESIAN_POINT('',(0.291283611106,6.381080049077E-02,0.));
#105 = CARTESIAN_POINT('',(0.178216264886,6.151371317958E-02,0.));
#106 = CARTESIAN_POINT('',(0.144450820948,6.521404651241E-02,0.));
#107 = CARTESIAN_POINT('',(0.126731111751,6.096083234597E-02,0.));
#108 = CARTESIAN_POINT('',(4.11981645552E-02,6.092534781004E-02,0.));
#109 = CARTESIAN_POINT('',(0.,6.25E-02,0.));
#110 = PCURVE('',#46,#111);
#111 = DEFINITIONAL_REPRESENTATION('',(#112),#130);
#112 = B_SPLINE_CURVE_WITH_KNOTS('',1,(#113,#114,#115,#116,#117,#118,
    #119,#120,#121,#122,#123,#124,#125,#126,#127,#128,#129),
  .UNSPECIFIED.,.F.,.F.,(2,1,1,1,1,1,1,1,1,1,1,1,1,1,1,1,2),(0.,
    9.971728168762E-02,0.141083574402,0.201201913475,0.238486227792,
    0.267141353996,0.388133185273,0.45533802819,0.523215346353,
    0.559586208483,0.58194917552,0.708535470115,0.821402341646,
    0.855302717213,0.873489659297,0.95885334432,1.),.UNSPECIFIED.);
#113 = CARTESIAN_POINT('',(0.500130387921,3.125E-02));
#114 = CARTESIAN_POINT('',(0.400293696657,3.520537065149E-02));
#115 = CARTESIAN_POINT('',(0.358874933162,3.36403895322E-02));
#116 = CARTESIAN_POINT('',(0.298765846965,2.970845966353E-02));
#117 = CARTESIAN_POINT('',(0.261522054428,3.263052692875E-02));
#118 = CARTESIAN_POINT('',(0.232969713129,2.960733130798E-02));
#119 = CARTESIAN_POINT('',(0.111800744398,3.350834359167E-02));
#120 = CARTESIAN_POINT('',(4.446890774313E-02,3.25895717208E-02));
#121 = CARTESIAN_POINT('',(-2.349991895984E-02,3.016903720295E-02));
#122 = CARTESIAN_POINT('',(-5.975896016297E-02,2.6512136858E-02));
#123 = CARTESIAN_POINT('',(-8.176160234582E-02,3.075139691322E-02));
#124 = CARTESIAN_POINT('',(-0.208586000973,3.256080049077E-02));
#125 = CARTESIAN_POINT('',(-0.321653347193,3.026371317958E-02));
#126 = CARTESIAN_POINT('',(-0.355418791131,3.396404651241E-02));
#127 = CARTESIAN_POINT('',(-0.373138500328,2.971083234597E-02));
#128 = CARTESIAN_POINT('',(-0.458671447524,2.967534781004E-02));
#129 = CARTESIAN_POINT('',(-0.499869612079,3.125E-02));
#130 = ( GEOMETRIC_REPRESENTATION_CONTEXT(2) 
PARAMETRIC_REPRESENTATION_CONTEXT() REPRESENTATION_CONTEXT('2D SPACE',''
  ) );
#131 = ORIENTED_EDGE('',*,*,#132,.T.);
#132 = EDGE_CURVE('',#89,#22,#133,.T.);
#133 = SURFACE_CURVE('',#134,(#138),.PCURVE_S1.);
#134 = LINE('',#135,#136);
#135 = CARTESIAN_POINT('',(0.,6.25E-02,0.));
#136 = VECTOR('',#137,1.);
#137 = DIRECTION('',(0.,-1.,0.));
#138 = PCURVE('',#46,#139);
#139 = DEFINITIONAL_REPRESENTATION('',(#140),#144);
#140 = LINE('',#141,#142);
#141 = CARTESIAN_POINT('',(-0.499869612079,3.125E-02));
#142 = VECTOR('',#143,1.);
#143 = DIRECTION('',(0.,-1.));
#144 = ( GEOMETRIC_REPRESENTATION_CONTEXT(2) 
PARAMETRIC_REPRESENTATION_CONTEXT() REPRESENTATION_CONTEXT('2D SPACE',''
  ) );
#145 = ( GEOMETRIC_REPRESENTATION_CONTEXT(3) 
GLOBAL_UNCERTAINTY_ASSIGNED_CONTEXT((#149)) GLOBAL_UNIT_ASSIGNED_CONTEXT
((#146,#147,#148)) REPRESENTATION_CONTEXT('Context #1',
  '3D Context with UNIT and UNCERTAINTY') );
#146 = ( LENGTH_UNIT() NAMED_UNIT(*) SI_UNIT(.MILLI.,.METRE.) );
#147 = ( NAMED_UNIT(*) PLANE_ANGLE_UNIT() SI_UNIT($,.RADIAN.) );
#148 = ( NAMED_UNIT(*) SI_UNIT($,.STERADIAN.) SOLID_ANGLE_UNIT() );
#149 = UNCERTAINTY_MEASURE_WITH_UNIT(LENGTH_MEASURE(1.E-07),#146,
  'distance_accuracy_value','confusion accuracy');
#150 = PRODUCT_RELATED_PRODUCT_CATEGORY('part',$,(#7));
ENDSEC;
END-ISO-10303-21;
