ISO-10303-21;
HEADER;
FILE_DESCRIPTION(('Open CASCADE Model'),'2;1');
FILE_NAME('Open CASCADE Shape Model','2026-08-17T20:30:05',('Author'),(
    'Open CASCADE'),'Open CASCADE STEP processor 7.9','Open CASCADE 7.9'
  ,'Unknown');
FILE_SCHEMA(('AUTOMOTIVE_DESIGN { 1 0 10303 214 1 1 1 1 }'));
ENDSEC;
DATA;
#1 = APPLICATION_PROTOCOL_DEFINITION('international standard',
  'automotive_design',2000,#2);
#2 = APPLICATION_CONTEXT(
  'core data for automotive mechanical design processes');
#3 = SHAPE_DEFINITION_REPRESENTATION(#4,#10);
#4 = PRODUCT_DEFINITION_SHAPE('','',#5);
#5 = PRODUCT_DEFINITION('design','',#6,#9);
#6 = PRODUCT_DEFINITION_FORMATION('','',#7);
#7 = PRODUCT('Open CASCADE STEP translator 7.9 60',
  'Open CASCADE STEP translator 7.9 60','',(#8));
#8 = PRODUCT_CONTEXT('',#2,'mechanical');
#9 = PRODUCT_DEFINITION_CONTEXT('part definition',#2,'design');
#10 = MANIFOLD_SURFACE_SHAPE_REPRESENTATION('',(#11,#15),#145);
#11 = AXIS2_PLACEMENT_3D('',#12,#13,#14);
#12 = CARTESIAN_POINT('',(0.,0.,0.));
#13 = DIRECTION('',(0.,0.,1.));
#14 = DIRECTION('',(1.,0.,-0.));
#15 = SHELL_BASED_SURFACE_MODEL('',(#16));
#16 = OPEN_SHELL('',(#17));
#17 = ADVANCED_FACE('',(#18),#46,.T.);
#18 = FACE_BOUND('',#19,.T.);
#19 = EDGE_LOOP('',(#20,#71,#87,#131));
#20 = ORIENTED_EDGE('',*,*,#21,.T.);
#21 = EDGE_CURVE('',#22,#24,#26,.T.);
#22 = VERTEX_POINT('',#23);
#23 = CARTESIAN_POINT('',(0.,0.,0.));
#24 = VERTEX_POINT('',#25);
#25 = CARTESIAN_POINT('',(1.,0.,0.));
#26 = SURFACE_CURVE('',#27,(#45),.PCURVE_S1.);
#27 = B_SPLINE_CURVE_WITH_KNOTS('',1,(#28,#29,#30,#31,#32,#33,#34,#35,
    #36,#37,#38,#39,#40,#41,#42,#43,#44),.UNSPECIFIED.,.F.,.F.,(2,1,1,1,
    1,1,1,1,1,1,1,1,1,1,1,1,2),(0.,7.621464324822E-02,0.107617268023,
    0.164382940403,0.189259894275,0.318496065695,0.511882809034,
    0.549705427474,0.572421942294,0.655980255389,0.727837851821,
    0.748711780899,0.776077143725,0.821030756156,0.843470477334,
    0.986039684588,1.),.UNSPECIFIED.);
#28 = CARTESIAN_POINT('',(0.,-0.,0.));
#29 = CARTESIAN_POINT('',(7.633964072742E-02,4.405775291657E-04,0.));
#30 = CARTESIAN_POINT('',(0.107794248006,3.880374585428E-04,0.));
#31 = CARTESIAN_POINT('',(0.164590843223,-2.29047396933E-03,0.));
#32 = CARTESIAN_POINT('',(0.189060250861,2.417309783241E-03,0.));
#33 = CARTESIAN_POINT('',(0.318395117996,-3.047863458287E-03,0.));
#34 = CARTESIAN_POINT('',(0.512101898295,-3.419785969491E-03,0.));
#35 = CARTESIAN_POINT('',(0.549965691797,-2.143983992362E-03,0.));
#36 = CARTESIAN_POINT('',(0.572719605579,-2.247767796562E-03,0.));
#37 = CARTESIAN_POINT('',(0.656124586338,4.73470338327E-03,0.));
#38 = CARTESIAN_POINT('',(0.728019851405,1.312930283058E-03,0.));
#39 = CARTESIAN_POINT('',(0.74865038692,4.711000189402E-03,0.));
#40 = CARTESIAN_POINT('',(0.775924677677,1.979780014787E-03,0.));
#41 = CARTESIAN_POINT('',(0.820939455986,8.849862363157E-04,0.));
#42 = CARTESIAN_POINT('',(0.843343192795,-9.270655858303E-04,0.));
#43 = CARTESIAN_POINT('',(0.986123894319,1.729278139243E-03,0.));
#44 = CARTESIAN_POINT('',(1.,-0.,0.));
#45 = PCURVE('',#46,#51);
#46 = PLANE('',#47);
#47 = AXIS2_PLACEMENT_3D('',#48,#49,#50);
#48 = CARTESIAN_POINT('',(0.500043338591,3.125E-02,0.));
#49 = DIRECTION('',(0.,0.,1.));
#50 = DIRECTION('',(1.,0.,-0.));
#51 = DEFINITIONAL_REPRESENTATION('',(#52),#70);
#52 = B_SPLINE_CURVE_WITH_KNOTS('',1,(#53,#54,#55,#56,#57,#58,#59,#60,
    #61,#62,#63,#64,#65,#66,#67,#68,#69),.UNSPECIFIED.,.F.,.F.,(2,1,1,1,
    1,1,1,1,1,1,1,1,1,1,1,1,2),(0.,7.621464324822E-02,0.107617268023,
    0.164382940403,0.189259894275,0.318496065695,0.511882809034,
    0.549705427474,0.572421942294,0.655980255389,0.727837851821,
    0.748711780899,0.776077143725,0.821030756156,0.843470477334,
    0.986039684588,1.),.UNSPECIFIED.);
#53 = CARTESIAN_POINT('',(-0.500043338591,-3.125E-02));
#54 = CARTESIAN_POINT('',(-0.423703697864,-3.080942247083E-02));
#55 = CARTESIAN_POINT('',(-0.392249090585,-3.086196254146E-02));
#56 = CARTESIAN_POINT('',(-0.335452495368,-3.354047396933E-02));
#57 = CARTESIAN_POINT('',(-0.31098308773,-2.883269021676E-02));
#58 = CARTESIAN_POINT('',(-0.181648220595,-3.429786345829E-02));
#59 = CARTESIAN_POINT('',(1.205855970402E-02,-3.466978596949E-02));
#60 = CARTESIAN_POINT('',(4.992235320565E-02,-3.339398399236E-02));
#61 = CARTESIAN_POINT('',(7.267626698799E-02,-3.349776779656E-02));
#62 = CARTESIAN_POINT('',(0.156081247747,-2.651529661673E-02));
#63 = CARTESIAN_POINT('',(0.227976512813,-2.993706971694E-02));
#64 = CARTESIAN_POINT('',(0.248607048329,-2.65389998106E-02));
#65 = CARTESIAN_POINT('',(0.275881339086,-2.927021998521E-02));
#66 = CARTESIAN_POINT('',(0.320896117395,-3.036501376368E-02));
#67 = CARTESIAN_POINT('',(0.343299854204,-3.217706558583E-02));
#68 = CARTESIAN_POINT('',(0.486080555727,-2.952072186076E-02));
#69 = CARTESIAN_POINT('',(0.499956661409,-3.125E-02));
#70 = ( GEOMETRIC_REPRESENTATION_CONTEXT(2) 
PARAMETRIC_REPRESENTATION_CONTEXT() REPRESENTATION_CONTEXT('2D SPACE',''
  ) );
#71 = ORIENTED_EDGE('',*,*,#72,.T.);
#72 = EDGE_CURVE('',#24,#73,#75,.T.);
#73 = VERTEX_POINT('',#74);
#74 = CARTESIAN_POINT('',(1.,6.25E-02,0.));
#75 = SURFACE_CURVE('',#76,(#80),.PCURVE_S1.);
#76 = LINE('',#77,#78);
#77 = CARTESIAN_POINT('',(1.,-0.,0.));
#78 = VECTOR('',#79,1.);
#79 = DIRECTION('',(0.,1.,0.));
#80 = PCURVE('',#46,#81);
#81 = DEFINITIONAL_REPRESENTATION('',(#82),#86);
#82 = LINE('',#83,#84);
#83 = CARTESIAN_POINT('',(0.499956661409,-3.125E-02));
#84 = VECTOR('',#85,1.);
#85 = DIRECTION('',(0.,1.));
#86 = ( GEOMETRIC_REPRESENTATION_CONTEXT(2) 
PARAMETRIC_REPRESENTATION_CONTEXT() REPRESENTATION_CONTEXT('2D SPACE',''
  ) );
#87 = ORIENTED_EDGE('',*,*,#88,.T.);
#88 = EDGE_CURVE('',#73,#89,#91,.T.);
#89 = VERTEX_POINT('',#90);
#90 = CARTESIAN_POINT('',(0.,6.25E-02,0.));
#91 = SURFACE_CURVE('',#92,(#110),.PCURVE_S1.);
#92 = B_SPLINE_CURVE_WITH_KNOTS('',1,(#93,#94,#95,#96,#97,#98,#99,#100,
    #101,#102,#103,#104,#105,#106,#107,#108,#109),.UNSPECIFIED.,.F.,.F.,
  (2,1,1,1,1,1,1,1,1,1,1,1,1,1,1,1,2),(0.,1.396031541206E-02,
    0.156529522666,0.178969243844,0.223922856275,0.251288219101,
    0.272162148179,0.344019744611,0.427578057706,0.450294572526,
    0.488117190966,0.681503934305,0.810740105725,0.835617059597,
    0.892382731977,0.923785356752,1.),.UNSPECIFIED.);
#93 = CARTESIAN_POINT('',(1.,6.25E-02,0.));
#94 = CARTESIAN_POINT('',(0.986123894319,6.077072186076E-02,0.));
#95 = CARTESIAN_POINT('',(0.843343192795,6.342706558583E-02,0.));
#96 = CARTESIAN_POINT('',(0.820939455986,6.161501376368E-02,0.));
#97 = CARTESIAN_POINT('',(0.775924677677,6.052021998521E-02,0.));
#98 = CARTESIAN_POINT('',(0.74865038692,5.77889998106E-02,0.));
#99 = CARTESIAN_POINT('',(0.728019851405,6.118706971694E-02,0.));
#100 = CARTESIAN_POINT('',(0.656124586338,5.776529661673E-02,0.));
#101 = CARTESIAN_POINT('',(0.572719605579,6.474776779656E-02,0.));
#102 = CARTESIAN_POINT('',(0.549965691797,6.464398399236E-02,0.));
#103 = CARTESIAN_POINT('',(0.512101898295,6.591978596949E-02,0.));
#104 = CARTESIAN_POINT('',(0.318395117996,6.554786345829E-02,0.));
#105 = CARTESIAN_POINT('',(0.189060250861,6.008269021676E-02,0.));
#106 = CARTESIAN_POINT('',(0.164590843223,6.479047396933E-02,0.));
#107 = CARTESIAN_POINT('',(0.107794248006,6.211196254146E-02,0.));
#108 = CARTESIAN_POINT('',(7.633964072742E-02,6.205942247083E-02,0.));
#109 = CARTESIAN_POINT('',(0.,6.25E-02,0.));
#110 = PCURVE('',#46,#111);
#111 = DEFINITIONAL_REPRESENTATION('',(#112),#130);
#112 = B_SPLINE_CURVE_WITH_KNOTS('',1,(#113,#114,#115,#116,#117,#118,
    #119,#120,#121,#122,#123,#124,#125,#126,#127,#128,#129),
  .UNSPECIFIED.,.F.,.F.,(2,1,1,1,1,1,1,1,1,1,1,1,1,1,1,1,2),(0.,
    1.396031541206E-02,0.156529522666,0.178969243844,0.223922856275,
    0.251288219101,0.272162148179,0.344019744611,0.427578057706,
    0.450294572526,0.488117190966,0.681503934305,0.810740105725,
    0.835617059597,0.892382731977,0.923785356752,1.),.UNSPECIFIED.);
#113 = CARTESIAN_POINT('',(0.499956661409,3.125E-02));
#114 = CARTESIAN_POINT('',(0.486080555727,2.952072186076E-02));
#115 = CARTESIAN_POINT('',(0.343299854204,3.217706558583E-02));
#116 = CARTESIAN_POINT('',(0.320896117395,3.036501376368E-02));
#117 = CARTESIAN_POINT('',(0.275881339086,2.927021998521E-02));
#118 = CARTESIAN_POINT('',(0.248607048329,2.65389998106E-02));
#119 = CARTESIAN_POINT('',(0.227976512813,2.993706971694E-02));
#120 = CARTESIAN_POINT('',(0.156081247747,2.651529661673E-02));
#121 = CARTESIAN_POINT('',(7.267626698799E-02,3.349776779656E-02));
#122 = CARTESIAN_POINT('',(4.992235320565E-02,3.339398399236E-02));
#123 = CARTESIAN_POINT('',(1.205855970402E-02,3.466978596949E-02));
#124 = CARTESIAN_POINT('',(-0.181648220595,3.429786345829E-02));
#125 = CARTESIAN_POINT('',(-0.31098308773,2.883269021676E-02));
#126 = CARTESIAN_POINT('',(-0.335452495368,3.354047396933E-02));
#127 = CARTESIAN_POINT('',(-0.392249090585,3.086196254146E-02));
#128 = CARTESIAN_POINT('',(-0.423703697864,3.080942247083E-02));
#129 = CARTESIAN_POINT('',(-0.500043338591,3.125E-02));
#130 = ( GEOMETRIC_REPRESENTATION_CONTEXT(2) 
PARAMETRIC_REPRESENTATION_CONTEXT() REPRESENTATION_CONTEXT('2D SPACE',''
  ) );
#131 = ORIENTED_EDGE('',*,*,#132,.T.);
#132 = EDGE_CURVE('',#89,#22,#133,.T.);
#133 = SURFACE_CURVE('',#134,(#138),.PCURVE_S1.);
#134 = LINE('',#135,#136);
#135 = CARTESIAN_POINT('',(0.,6.25E-02,0.));
#136 = VECTOR('',#137,1.);
#137 = DIRECTION('',(0.,-1.,0.));
#138 = PCURVE('',#46,#139);
#139 = DEFINITIONAL_REPRESENTATION('',(#140),#144);
#140 = LINE('',#141,#142);
#141 = CARTESIAN_POINT('',(-0.500043338591,3.125E-02));
#142 = VECTOR('',#143,1.);
#143 = DIRECTION('',(0.,-1.));
#144 = ( GEOMETRIC_REPRESENTATION_CONTEXT(2) 
PARAMETRIC_REPRESENTATION_CONTEXT() REPRESENTATION_CONTEXT('2D SPACE',''
  ) );
#145 = ( GEOMETRIC_REPRESENTATION_CONTEXT(3) 
GLOBAL_UNCERTAINTY_ASSIGNED_CONTEXT((#149)) GLOBAL_UNIT_ASSIGNED_CONTEXT
((#146,#147,#148)) REPRESENTATION_CONTEXT('Context #1',
  '3D Context with UNIT and UNCERTAINTY') );
#146 = ( LENGTH_UNIT() NAMED_UNIT(*) SI_UNIT(.MILLI.,.METRE.) );
#147 = ( NAMED_UNIT(*) PLANE_ANGLE_UNIT() SI_UNIT($,.RADIAN.) );
#148 = ( NAMED_UNIT(*) SI_UNIT($,.STERADIAN.) SOLID_ANGLE_UNIT() );
#149 = UNCERTAINTY_MEASURE_WITH_UNIT(LENGTH_MEASURE(1.E-07),#146,
  'distance_accuracy_value','confusion accuracy');
#150 = PRODUCT_RELATED_PRODUCT_CATEGORY('part',$,(#7));
ENDSEC;
END-ISO-10303-21;
