ISO-10303-21;
HEADER;
FILE_DESCRIPTION(('Open CASCADE Model'),'2;1');
FILE_NAME('Open CASCADE Shape Model','2026-08-17T20:30:05',('Author'),(
    'Open CASCADE'),'Open CASCADE STEP processor 7.9','Open CASCADE 7.9'
  ,'Unknown');
FILE_SCHEMA(('AUTOMOTIVE_DESIGN { 1 0 10303 214 1 1 1 1 }'));
ENDSEC;
DATA;
#1 = APPLICATION_PROTOCOL_DEFINITION('international standard',
  'automotive_design',2000,#2);
#2 = APPLICATION_CONTEXT(
  'core data for automotive mechanical design processes');
#3 = SHAPE_DEFINITION_REPRESENTATION(#4,#10);
#4 = PRODUCT_DEFINITION_SHAPE('','',#5);
#5 = PRODUCT_DEFINITION('design','',#6,#9);
#6 = PRODUCT_DEFINITION_FORMATION('','',#7);
#7 = PRODUCT('Open CASCADE STEP translator 7.9 87',
  'Open CASCADE STEP translator 7.9 87','',(#8));
#8 = PRODUCT_CONTEXT('',#2,'mechanical');
#9 = PRODUCT_DEFINITION_CONTEXT('part definition',#2,'design');
#10 = MANIFOLD_SURFACE_SHAPE_REPRESENTATION('',(#11,#15),#145);
#11 = AXIS2_PLACEMENT_3D('',#12,#13,#14);
#12 = CARTESIAN_POINT('',(0.,0.,0.));
#13 = DIRECTION('',(0.,0.,1.));
#14 = DIRECTION('',(1.,0.,-0.));
#15 = SHELL_BASED_SURFACE_MODEL('',(#16));
#16 = OPEN_SHELL('',(#17));
#17 = ADVANCED_FACE('',(#18),#46,.T.);
#18 = FACE_BOUND('',#19,.T.);
#19 = EDGE_LOOP('',(#20,#71,#87,#131));
#20 = ORIENTED_EDGE('',*,*,#21,.T.);
#21 = EDGE_CURVE('',#22,#24,#26,.T.);
#22 = VERTEX_POINT('',#23);
#23 = CARTESIAN_POINT('',(0.,0.,0.));
#24 = VERTEX_POINT('',#25);
#25 = CARTESIAN_POINT('',(1.,0.,0.));
#26 = SURFACE_CURVE('',#27,(#45),.PCURVE_S1.);
#27 = B_SPLINE_CURVE_WITH_KNOTS('',1,(#28,#29,#30,#31,#32,#33,#34,#35,
    #36,#37,#38,#39,#40,#41,#42,#43,#44),.UNSPECIFIED.,.F.,.F.,(2,1,1,1,
    1,1,1,1,1,1,1,1,1,1,1,1,2),(0.,3.873785834952E-02,6.58329621095E-02,
    9.437749097883E-02,0.206616815905,0.239909899103,0.264300000672,
    0.366968320659,0.435255790956,0.481399185403,0.522600066638,
    0.821251862603,0.838446203057,0.875563774833,0.923301298529,
    0.94496527265,1.),.UNSPECIFIED.);
#28 = CARTESIAN_POINT('',(0.,-0.,0.));
#29 = CARTESIAN_POINT('',(3.891471791288E-02,1.334080681566E-03,0.));
#30 = CARTESIAN_POINT('',(6.541750359115E-02,-4.937805765421E-03,0.));
#31 = CARTESIAN_POINT('',(9.250500954358E-02,4.521603319175E-03,0.));
#32 = CARTESIAN_POINT('',(0.205321177946,3.879405291221E-03,0.));
#33 = CARTESIAN_POINT('',(0.238490804245,-5.550261926335E-04,0.));
#34 = CARTESIAN_POINT('',(0.262764237548,2.884059076959E-03,0.));
#35 = CARTESIAN_POINT('',(0.365807428954,-2.759953050909E-03,0.));
#36 = CARTESIAN_POINT('',(0.434249418359,2.443935480675E-03,0.));
#37 = CARTESIAN_POINT('',(0.480627574835,2.983544258753E-03,0.));
#38 = CARTESIAN_POINT('',(0.521622187147,-2.890398147271E-03,0.));
#39 = CARTESIAN_POINT('',(0.821718961879,4.6524077053E-03,0.));
#40 = CARTESIAN_POINT('',(0.83855005508,7.260842241886E-04,0.));
#41 = CARTESIAN_POINT('',(0.875623532506,-3.458908553317E-03,0.));
#42 = CARTESIAN_POINT('',(0.923409366791,8.935731759011E-04,0.));
#43 = CARTESIAN_POINT('',(0.944779434508,-3.289711881493E-03,0.));
#44 = CARTESIAN_POINT('',(1.,-0.,0.));
#45 = PCURVE('',#46,#51);
#46 = PLANE('',#47);
#47 = AXIS2_PLACEMENT_3D('',#48,#49,#50);
#48 = CARTESIAN_POINT('',(0.499386874981,3.125E-02,0.));
#49 = DIRECTION('',(0.,0.,1.));
#50 = DIRECTION('',(1.,0.,-0.));
#51 = DEFINITIONAL_REPRESENTATION('',(#52),#70);
#52 = B_SPLINE_CURVE_WITH_KNOTS('',1,(#53,#54,#55,#56,#57,#58,#59,#60,
    #61,#62,#63,#64,#65,#66,#67,#68,#69),.UNSPECIFIED.,.F.,.F.,(2,1,1,1,
    1,1,1,1,1,1,1,1,1,1,1,1,2),(0.,3.873785834952E-02,6.58329621095E-02,
    9.437749097883E-02,0.206616815905,0.239909899103,0.264300000672,
    0.366968320659,0.435255790956,0.481399185403,0.522600066638,
    0.821251862603,0.838446203057,0.875563774833,0.923301298529,
    0.94496527265,1.),.UNSPECIFIED.);
#53 = CARTESIAN_POINT('',(-0.499386874981,-3.125E-02));
#54 = CARTESIAN_POINT('',(-0.460472157068,-2.991591931843E-02));
#55 = CARTESIAN_POINT('',(-0.43396937139,-3.618780576542E-02));
#56 = CARTESIAN_POINT('',(-0.406881865437,-2.672839668082E-02));
#57 = CARTESIAN_POINT('',(-0.294065697035,-2.737059470878E-02));
#58 = CARTESIAN_POINT('',(-0.260896070736,-3.180502619263E-02));
#59 = CARTESIAN_POINT('',(-0.236622637433,-2.836594092304E-02));
#60 = CARTESIAN_POINT('',(-0.133579446026,-3.400995305091E-02));
#61 = CARTESIAN_POINT('',(-6.5137456622E-02,-2.880606451933E-02));
#62 = CARTESIAN_POINT('',(-1.87593001457E-02,-2.826645574125E-02));
#63 = CARTESIAN_POINT('',(2.223531216612E-02,-3.414039814727E-02));
#64 = CARTESIAN_POINT('',(0.322332086899,-2.65975922947E-02));
#65 = CARTESIAN_POINT('',(0.339163180099,-3.052391577581E-02));
#66 = CARTESIAN_POINT('',(0.376236657525,-3.470890855332E-02));
#67 = CARTESIAN_POINT('',(0.42402249181,-3.03564268241E-02));
#68 = CARTESIAN_POINT('',(0.445392559527,-3.453971188149E-02));
#69 = CARTESIAN_POINT('',(0.500613125019,-3.125E-02));
#70 = ( GEOMETRIC_REPRESENTATION_CONTEXT(2) 
PARAMETRIC_REPRESENTATION_CONTEXT() REPRESENTATION_CONTEXT('2D SPACE',''
  ) );
#71 = ORIENTED_EDGE('',*,*,#72,.T.);
#72 = EDGE_CURVE('',#24,#73,#75,.T.);
#73 = VERTEX_POINT('',#74);
#74 = CARTESIAN_POINT('',(1.,6.25E-02,0.));
#75 = SURFACE_CURVE('',#76,(#80),.PCURVE_S1.);
#76 = LINE('',#77,#78);
#77 = CARTESIAN_POINT('',(1.,-0.,0.));
#78 = VECTOR('',#79,1.);
#79 = DIRECTION('',(0.,1.,0.));
#80 = PCURVE('',#46,#81);
#81 = DEFINITIONAL_REPRESENTATION('',(#82),#86);
#82 = LINE('',#83,#84);
#83 = CARTESIAN_POINT('',(0.500613125019,-3.125E-02));
#84 = VECTOR('',#85,1.);
#85 = DIRECTION('',(0.,1.));
#86 = ( GEOMETRIC_REPRESENTATION_CONTEXT(2) 
PARAMETRIC_REPRESENTATION_CONTEXT() REPRESENTATION_CONTEXT('2D SPACE',''
  ) );
#87 = ORIENTED_EDGE('',*,*,#88,.T.);
#88 = EDGE_CURVE('',#73,#89,#91,.T.);
#89 = VERTEX_POINT('',#90);
#90 = CARTESIAN_POINT('',(0.,6.25E-02,0.));
#91 = SURFACE_CURVE('',#92,(#110),.PCURVE_S1.);
#92 = B_SPLINE_CURVE_WITH_KNOTS('',1,(#93,#94,#95,#96,#97,#98,#99,#100,
    #101,#102,#103,#104,#105,#106,#107,#108,#109),.UNSPECIFIED.,.F.,.F.,
  (2,1,1,1,1,1,1,1,1,1,1,1,1,1,1,1,2),(0.,5.503472734987E-02,
    7.669870147084E-02,0.124436225167,0.161553796943,0.178748137397,
    0.477399933362,0.518600814597,0.564744209044,0.633031679341,
    0.735699999328,0.760090100897,0.793383184095,0.905622509021,
    0.934167037891,0.96126214165,1.),.UNSPECIFIED.);
#93 = CARTESIAN_POINT('',(1.,6.25E-02,0.));
#94 = CARTESIAN_POINT('',(0.944779434508,6.578971188149E-02,0.));
#95 = CARTESIAN_POINT('',(0.923409366791,6.16064268241E-02,0.));
#96 = CARTESIAN_POINT('',(0.875623532506,6.595890855332E-02,0.));
#97 = CARTESIAN_POINT('',(0.83855005508,6.177391577581E-02,0.));
#98 = CARTESIAN_POINT('',(0.821718961879,5.78475922947E-02,0.));
#99 = CARTESIAN_POINT('',(0.521622187147,6.539039814727E-02,0.));
#100 = CARTESIAN_POINT('',(0.480627574835,5.951645574125E-02,0.));
#101 = CARTESIAN_POINT('',(0.434249418359,6.005606451933E-02,0.));
#102 = CARTESIAN_POINT('',(0.365807428954,6.525995305091E-02,0.));
#103 = CARTESIAN_POINT('',(0.262764237548,5.961594092304E-02,0.));
#104 = CARTESIAN_POINT('',(0.238490804245,6.305502619263E-02,0.));
#105 = CARTESIAN_POINT('',(0.205321177946,5.862059470878E-02,0.));
#106 = CARTESIAN_POINT('',(9.250500954358E-02,5.797839668082E-02,0.));
#107 = CARTESIAN_POINT('',(6.541750359115E-02,6.743780576542E-02,0.));
#108 = CARTESIAN_POINT('',(3.891471791288E-02,6.116591931843E-02,0.));
#109 = CARTESIAN_POINT('',(0.,6.25E-02,0.));
#110 = PCURVE('',#46,#111);
#111 = DEFINITIONAL_REPRESENTATION('',(#112),#130);
#112 = B_SPLINE_CURVE_WITH_KNOTS('',1,(#113,#114,#115,#116,#117,#118,
    #119,#120,#121,#122,#123,#124,#125,#126,#127,#128,#129),
  .UNSPECIFIED.,.F.,.F.,(2,1,1,1,1,1,1,1,1,1,1,1,1,1,1,1,2),(0.,
    5.503472734987E-02,7.669870147084E-02,0.124436225167,0.161553796943,
    0.178748137397,0.477399933362,0.518600814597,0.564744209044,
    0.633031679341,0.735699999328,0.760090100897,0.793383184095,
    0.905622509021,0.934167037891,0.96126214165,1.),.UNSPECIFIED.);
#113 = CARTESIAN_POINT('',(0.500613125019,3.125E-02));
#114 = CARTESIAN_POINT('',(0.445392559527,3.453971188149E-02));
#115 = CARTESIAN_POINT('',(0.42402249181,3.03564268241E-02));
#116 = CARTESIAN_POINT('',(0.376236657525,3.470890855332E-02));
#117 = CARTESIAN_POINT('',(0.339163180099,3.052391577581E-02));
#118 = CARTESIAN_POINT('',(0.322332086899,2.65975922947E-02));
#119 = CARTESIAN_POINT('',(2.223531216612E-02,3.414039814727E-02));
#120 = CARTESIAN_POINT('',(-1.87593001457E-02,2.826645574125E-02));
#121 = CARTESIAN_POINT('',(-6.5137456622E-02,2.880606451933E-02));
#122 = CARTESIAN_POINT('',(-0.133579446026,3.400995305091E-02));
#123 = CARTESIAN_POINT('',(-0.236622637433,2.836594092304E-02));
#124 = CARTESIAN_POINT('',(-0.260896070736,3.180502619263E-02));
#125 = CARTESIAN_POINT('',(-0.294065697035,2.737059470878E-02));
#126 = CARTESIAN_POINT('',(-0.406881865437,2.672839668082E-02));
#127 = CARTESIAN_POINT('',(-0.43396937139,3.618780576542E-02));
#128 = CARTESIAN_POINT('',(-0.460472157068,2.991591931843E-02));
#129 = CARTESIAN_POINT('',(-0.499386874981,3.125E-02));
#130 = ( GEOMETRIC_REPRESENTATION_CONTEXT(2) 
PARAMETRIC_REPRESENTATION_CONTEXT() REPRESENTATION_CONTEXT('2D SPACE',''
  ) );
#131 = ORIENTED_EDGE('',*,*,#132,.T.);
#132 = EDGE_CURVE('',#89,#22,#133,.T.);
#133 = SURFACE_CURVE('',#134,(#138),.PCURVE_S1.);
#134 = LINE('',#135,#136);
#135 = CARTESIAN_POINT('',(0.,6.25E-02,0.));
#136 = VECTOR('',#137,1.);
#137 = DIRECTION('',(0.,-1.,0.));
#138 = PCURVE('',#46,#139);
#139 = DEFINITIONAL_REPRESENTATION('',(#140),#144);
#140 = LINE('',#141,#142);
#141 = CARTESIAN_POINT('',(-0.499386874981,3.125E-02));
#142 = VECTOR('',#143,1.);
#143 = DIRECTION('',(0.,-1.));
#144 = ( GEOMETRIC_REPRESENTATION_CONTEXT(2) 
PARAMETRIC_REPRESENTATION_CONTEXT() REPRESENTATION_CONTEXT('2D SPACE',''
  ) );
#145 = ( GEOMETRIC_REPRESENTATION_CONTEXT(3) 
GLOBAL_UNCERTAINTY_ASSIGNED_CONTEXT((#149)) GLOBAL_UNIT_ASSIGNED_CONTEXT
((#146,#147,#148)) REPRESENTATION_CONTEXT('Context #1',
  '3D Context with UNIT and UNCERTAINTY') );
#146 = ( LENGTH_UNIT() NAMED_UNIT(*) SI_UNIT(.MILLI.,.METRE.) );
#147 = ( NAMED_UNIT(*) PLANE_ANGLE_UNIT() SI_UNIT($,.RADIAN.) );
#148 = ( NAMED_UNIT(*) SI_UNIT($,.STERADIAN.) SOLID_ANGLE_UNIT() );
#149 = UNCERTAINTY_MEASURE_WITH_UNIT(LENGTH_MEASURE(1.E-07),#146,
  'distance_accuracy_value','confusion accuracy');
#150 = PRODUCT_RELATED_PRODUCT_CATEGORY('part',$,(#7));
ENDSEC;
END-ISO-10303-21;
