ISO-10303-21;
HEADER;
FILE_DESCRIPTION(('Open CASCADE Model'),'2;1');
FILE_NAME('Open CASCADE Shape Model','2026-08-17T20:30:05',('Author'),(
    'Open CASCADE'),'Open CASCADE STEP processor 7.9','Open CASCADE 7.9'
  ,'Unknown');
FILE_SCHEMA(('AUTOMOTIVE_DESIGN { 1 0 10303 214 1 1 1 1 }'));
ENDSEC;
DATA;
#1 = APPLICATION_PROTOCOL_DEFINITION('international standard',
  'automotive_design',2000,#2);
#2 = APPLICATION_CONTEXT(
  'core data for automotive mechanical design processes');
#3 = SHAPE_DEFINITION_REPRESENTATION(#4,#10);
#4 = PRODUCT_DEFINITION_SHAPE('','',#5);
#5 = PRODUCT_DEFINITION('design','',#6,#9);
#6 = PRODUCT_DEFINITION_FORMATION('','',#7);
#7 = PRODUCT('Open CASCADE STEP translator 7.9 52',
  'Open CASCADE STEP translator 7.9 52','',(#8));
#8 = PRODUCT_CONTEXT('',#2,'mechanical');
#9 = PRODUCT_DEFINITION_CONTEXT('part definition',#2,'design');
#10 = MANIFOLD_SURFACE_SHAPE_REPRESENTATION('',(#11,#15),#145);
#11 = AXIS2_PLACEMENT_3D('',#12,#13,#14);
#12 = CARTESIAN_POINT('',(0.,0.,0.));
#13 = DIRECTION('',(0.,0.,1.));
#14 = DIRECTION('',(1.,0.,-0.));
#15 = SHELL_BASED_SURFACE_MODEL('',(#16));
#16 = OPEN_SHELL('',(#17));
#17 = ADVANCED_FACE('',(#18),#46,.T.);
#18 = FACE_BOUND('',#19,.T.);
#19 = EDGE_LOOP('',(#20,#71,#87,#131));
#20 = ORIENTED_EDGE('',*,*,#21,.T.);
#21 = EDGE_CURVE('',#22,#24,#26,.T.);
#22 = VERTEX_POINT('',#23);
#23 = CARTESIAN_POINT('',(0.,0.,0.));
#24 = VERTEX_POINT('',#25);
#25 = CARTESIAN_POINT('',(1.,0.,0.));
#26 = SURFACE_CURVE('',#27,(#45),.PCURVE_S1.);
#27 = B_SPLINE_CURVE_WITH_KNOTS('',1,(#28,#29,#30,#31,#32,#33,#34,#35,
    #36,#37,#38,#39,#40,#41,#42,#43,#44),.UNSPECIFIED.,.F.,.F.,(2,1,1,1,
    1,1,1,1,1,1,1,1,1,1,1,1,2),(0.,3.777602387236E-02,5.908124294284E-02
    ,9.263697353415E-02,0.121075030409,0.183097700221,0.239151864196,
    0.286997892966,0.352610532234,0.526219249406,0.577413607325,
    0.651464706739,0.710667838322,0.785228574061,0.849421420328,
    0.924774802747,1.),.UNSPECIFIED.);
#28 = CARTESIAN_POINT('',(0.,-0.,0.));
#29 = CARTESIAN_POINT('',(3.787405014187E-02,-3.315851056022E-04,0.));
#30 = CARTESIAN_POINT('',(5.885500842213E-02,3.681583627754E-03,0.));
#31 = CARTESIAN_POINT('',(9.219393046741E-02,-8.396321090582E-04,0.));
#32 = CARTESIAN_POINT('',(0.120632512118,1.218297264814E-03,0.));
#33 = CARTESIAN_POINT('',(0.18281441488,1.931928587929E-03,0.));
#34 = CARTESIAN_POINT('',(0.238685009865,-4.160368379694E-03,0.));
#35 = CARTESIAN_POINT('',(0.286652209425,-4.840731751598E-03,0.));
#36 = CARTESIAN_POINT('',(0.351881692133,3.69367914133E-03,0.));
#37 = CARTESIAN_POINT('',(0.525845726372,-2.2602396873E-03,0.));
#38 = CARTESIAN_POINT('',(0.577095473446,5.940925681351E-04,0.));
#39 = CARTESIAN_POINT('',(0.651224752939,-3.569276195625E-03,0.));
#40 = CARTESIAN_POINT('',(0.710105205834,3.953173484106E-03,0.));
#41 = CARTESIAN_POINT('',(0.784753911876,-7.073118641404E-05,0.));
#42 = CARTESIAN_POINT('',(0.849058564598,-2.784471211998E-03,0.));
#43 = CARTESIAN_POINT('',(0.924607860614,-2.167556101378E-03,0.));
#44 = CARTESIAN_POINT('',(1.,-0.,0.));
#45 = PCURVE('',#46,#51);
#46 = PLANE('',#47);
#47 = AXIS2_PLACEMENT_3D('',#48,#49,#50);
#48 = CARTESIAN_POINT('',(0.499650614343,3.125E-02,0.));
#49 = DIRECTION('',(0.,0.,1.));
#50 = DIRECTION('',(1.,0.,-0.));
#51 = DEFINITIONAL_REPRESENTATION('',(#52),#70);
#52 = B_SPLINE_CURVE_WITH_KNOTS('',1,(#53,#54,#55,#56,#57,#58,#59,#60,
    #61,#62,#63,#64,#65,#66,#67,#68,#69),.UNSPECIFIED.,.F.,.F.,(2,1,1,1,
    1,1,1,1,1,1,1,1,1,1,1,1,2),(0.,3.777602387236E-02,5.908124294284E-02
    ,9.263697353415E-02,0.121075030409,0.183097700221,0.239151864196,
    0.286997892966,0.352610532234,0.526219249406,0.577413607325,
    0.651464706739,0.710667838322,0.785228574061,0.849421420328,
    0.924774802747,1.),.UNSPECIFIED.);
#53 = CARTESIAN_POINT('',(-0.499650614343,-3.125E-02));
#54 = CARTESIAN_POINT('',(-0.461776564201,-3.15815851056E-02));
#55 = CARTESIAN_POINT('',(-0.440795605921,-2.756841637225E-02));
#56 = CARTESIAN_POINT('',(-0.407456683876,-3.208963210906E-02));
#57 = CARTESIAN_POINT('',(-0.379018102224,-3.003170273519E-02));
#58 = CARTESIAN_POINT('',(-0.316836199463,-2.931807141207E-02));
#59 = CARTESIAN_POINT('',(-0.260965604478,-3.541036837969E-02));
#60 = CARTESIAN_POINT('',(-0.212998404917,-3.60907317516E-02));
#61 = CARTESIAN_POINT('',(-0.14776892221,-2.755632085867E-02));
#62 = CARTESIAN_POINT('',(2.619511202863E-02,-3.35102396873E-02));
#63 = CARTESIAN_POINT('',(7.744485910312E-02,-3.065590743186E-02));
#64 = CARTESIAN_POINT('',(0.151574138596,-3.481927619562E-02));
#65 = CARTESIAN_POINT('',(0.210454591491,-2.729682651589E-02));
#66 = CARTESIAN_POINT('',(0.285103297533,-3.132073118641E-02));
#67 = CARTESIAN_POINT('',(0.349407950255,-3.4034471212E-02));
#68 = CARTESIAN_POINT('',(0.424957246271,-3.341755610138E-02));
#69 = CARTESIAN_POINT('',(0.500349385657,-3.125E-02));
#70 = ( GEOMETRIC_REPRESENTATION_CONTEXT(2) 
PARAMETRIC_REPRESENTATION_CONTEXT() REPRESENTATION_CONTEXT('2D SPACE',''
  ) );
#71 = ORIENTED_EDGE('',*,*,#72,.T.);
#72 = EDGE_CURVE('',#24,#73,#75,.T.);
#73 = VERTEX_POINT('',#74);
#74 = CARTESIAN_POINT('',(1.,6.25E-02,0.));
#75 = SURFACE_CURVE('',#76,(#80),.PCURVE_S1.);
#76 = LINE('',#77,#78);
#77 = CARTESIAN_POINT('',(1.,-0.,0.));
#78 = VECTOR('',#79,1.);
#79 = DIRECTION('',(0.,1.,0.));
#80 = PCURVE('',#46,#81);
#81 = DEFINITIONAL_REPRESENTATION('',(#82),#86);
#82 = LINE('',#83,#84);
#83 = CARTESIAN_POINT('',(0.500349385657,-3.125E-02));
#84 = VECTOR('',#85,1.);
#85 = DIRECTION('',(0.,1.));
#86 = ( GEOMETRIC_REPRESENTATION_CONTEXT(2) 
PARAMETRIC_REPRESENTATION_CONTEXT() REPRESENTATION_CONTEXT('2D SPACE',''
  ) );
#87 = ORIENTED_EDGE('',*,*,#88,.T.);
#88 = EDGE_CURVE('',#73,#89,#91,.T.);
#89 = VERTEX_POINT('',#90);
#90 = CARTESIAN_POINT('',(0.,6.25E-02,0.));
#91 = SURFACE_CURVE('',#92,(#110),.PCURVE_S1.);
#92 = B_SPLINE_CURVE_WITH_KNOTS('',1,(#93,#94,#95,#96,#97,#98,#99,#100,
    #101,#102,#103,#104,#105,#106,#107,#108,#109),.UNSPECIFIED.,.F.,.F.,
  (2,1,1,1,1,1,1,1,1,1,1,1,1,1,1,1,2),(0.,7.522519725276E-02,
    0.150578579672,0.214771425939,0.289332161678,0.348535293261,
    0.422586392675,0.473780750594,0.647389467766,0.713002107034,
    0.760848135804,0.816902299779,0.878924969591,0.907363026466,
    0.940918757057,0.962223976128,1.),.UNSPECIFIED.);
#93 = CARTESIAN_POINT('',(1.,6.25E-02,0.));
#94 = CARTESIAN_POINT('',(0.924607860614,6.466755610138E-02,0.));
#95 = CARTESIAN_POINT('',(0.849058564598,6.5284471212E-02,0.));
#96 = CARTESIAN_POINT('',(0.784753911876,6.257073118641E-02,0.));
#97 = CARTESIAN_POINT('',(0.710105205834,5.854682651589E-02,0.));
#98 = CARTESIAN_POINT('',(0.651224752939,6.606927619562E-02,0.));
#99 = CARTESIAN_POINT('',(0.577095473446,6.190590743186E-02,0.));
#100 = CARTESIAN_POINT('',(0.525845726372,6.47602396873E-02,0.));
#101 = CARTESIAN_POINT('',(0.351881692133,5.880632085867E-02,0.));
#102 = CARTESIAN_POINT('',(0.286652209425,6.73407317516E-02,0.));
#103 = CARTESIAN_POINT('',(0.238685009865,6.666036837969E-02,0.));
#104 = CARTESIAN_POINT('',(0.18281441488,6.056807141207E-02,0.));
#105 = CARTESIAN_POINT('',(0.120632512118,6.128170273519E-02,0.));
#106 = CARTESIAN_POINT('',(9.219393046741E-02,6.333963210906E-02,0.));
#107 = CARTESIAN_POINT('',(5.885500842213E-02,5.881841637225E-02,0.));
#108 = CARTESIAN_POINT('',(3.787405014187E-02,6.28315851056E-02,0.));
#109 = CARTESIAN_POINT('',(0.,6.25E-02,0.));
#110 = PCURVE('',#46,#111);
#111 = DEFINITIONAL_REPRESENTATION('',(#112),#130);
#112 = B_SPLINE_CURVE_WITH_KNOTS('',1,(#113,#114,#115,#116,#117,#118,
    #119,#120,#121,#122,#123,#124,#125,#126,#127,#128,#129),
  .UNSPECIFIED.,.F.,.F.,(2,1,1,1,1,1,1,1,1,1,1,1,1,1,1,1,2),(0.,
    7.522519725276E-02,0.150578579672,0.214771425939,0.289332161678,
    0.348535293261,0.422586392675,0.473780750594,0.647389467766,
    0.713002107034,0.760848135804,0.816902299779,0.878924969591,
    0.907363026466,0.940918757057,0.962223976128,1.),.UNSPECIFIED.);
#113 = CARTESIAN_POINT('',(0.500349385657,3.125E-02));
#114 = CARTESIAN_POINT('',(0.424957246271,3.341755610138E-02));
#115 = CARTESIAN_POINT('',(0.349407950255,3.4034471212E-02));
#116 = CARTESIAN_POINT('',(0.285103297533,3.132073118641E-02));
#117 = CARTESIAN_POINT('',(0.210454591491,2.729682651589E-02));
#118 = CARTESIAN_POINT('',(0.151574138596,3.481927619562E-02));
#119 = CARTESIAN_POINT('',(7.744485910312E-02,3.065590743186E-02));
#120 = CARTESIAN_POINT('',(2.619511202863E-02,3.35102396873E-02));
#121 = CARTESIAN_POINT('',(-0.14776892221,2.755632085867E-02));
#122 = CARTESIAN_POINT('',(-0.212998404917,3.60907317516E-02));
#123 = CARTESIAN_POINT('',(-0.260965604478,3.541036837969E-02));
#124 = CARTESIAN_POINT('',(-0.316836199463,2.931807141207E-02));
#125 = CARTESIAN_POINT('',(-0.379018102224,3.003170273519E-02));
#126 = CARTESIAN_POINT('',(-0.407456683876,3.208963210906E-02));
#127 = CARTESIAN_POINT('',(-0.440795605921,2.756841637225E-02));
#128 = CARTESIAN_POINT('',(-0.461776564201,3.15815851056E-02));
#129 = CARTESIAN_POINT('',(-0.499650614343,3.125E-02));
#130 = ( GEOMETRIC_REPRESENTATION_CONTEXT(2) 
PARAMETRIC_REPRESENTATION_CONTEXT() REPRESENTATION_CONTEXT('2D SPACE',''
  ) );
#131 = ORIENTED_EDGE('',*,*,#132,.T.);
#132 = EDGE_CURVE('',#89,#22,#133,.T.);
#133 = SURFACE_CURVE('',#134,(#138),.PCURVE_S1.);
#134 = LINE('',#135,#136);
#135 = CARTESIAN_POINT('',(0.,6.25E-02,0.));
#136 = VECTOR('',#137,1.);
#137 = DIRECTION('',(0.,-1.,0.));
#138 = PCURVE('',#46,#139);
#139 = DEFINITIONAL_REPRESENTATION('',(#140),#144);
#140 = LINE('',#141,#142);
#141 = CARTESIAN_POINT('',(-0.499650614343,3.125E-02));
#142 = VECTOR('',#143,1.);
#143 = DIRECTION('',(0.,-1.));
#144 = ( GEOMETRIC_REPRESENTATION_CONTEXT(2) 
PARAMETRIC_REPRESENTATION_CONTEXT() REPRESENTATION_CONTEXT('2D SPACE',''
  ) );
#145 = ( GEOMETRIC_REPRESENTATION_CONTEXT(3) 
GLOBAL_UNCERTAINTY_ASSIGNED_CONTEXT((#149)) GLOBAL_UNIT_ASSIGNED_CONTEXT
((#146,#147,#148)) REPRESENTATION_CONTEXT('Context #1',
  '3D Context with UNIT and UNCERTAINTY') );
#146 = ( LENGTH_UNIT() NAMED_UNIT(*) SI_UNIT(.MILLI.,.METRE.) );
#147 = ( NAMED_UNIT(*) PLANE_ANGLE_UNIT() SI_UNIT($,.RADIAN.) );
#148 = ( NAMED_UNIT(*) SI_UNIT($,.STERADIAN.) SOLID_ANGLE_UNIT() );
#149 = UNCERTAINTY_MEASURE_WITH_UNIT(LENGTH_MEASURE(1.E-07),#146,
  'distance_accuracy_value','confusion accuracy');
#150 = PRODUCT_RELATED_PRODUCT_CATEGORY('part',$,(#7));
ENDSEC;
END-ISO-10303-21;
