ISO-10303-21;
HEADER;
FILE_DESCRIPTION(('Open CASCADE Model'),'2;1');
FILE_NAME('Open CASCADE Shape Model','2026-08-17T20:30:05',('Author'),(
    'Open CASCADE'),'Open CASCADE STEP processor 7.9','Open CASCADE 7.9'
  ,'Unknown');
FILE_SCHEMA(('AUTOMOTIVE_DESIGN { 1 0 10303 214 1 1 1 1 }'));
ENDSEC;
DATA;
#1 = APPLICATION_PROTOCOL_DEFINITION('international standard',
  'automotive_design',2000,#2);
#2 = APPLICATION_CONTEXT(
  'core data for automotive mechanical design processes');
#3 = SHAPE_DEFINITION_REPRESENTATION(#4,#10);
#4 = PRODUCT_DEFINITION_SHAPE('','',#5);
#5 = PRODUCT_DEFINITION('design','',#6,#9);
#6 = PRODUCT_DEFINITION_FORMATION('','',#7);
#7 = PRODUCT('Open CASCADE STEP translator 7.9 78',
  'Open CASCADE STEP translator 7.9 78','',(#8));
#8 = PRODUCT_CONTEXT('',#2,'mechanical');
#9 = PRODUCT_DEFINITION_CONTEXT('part definition',#2,'design');
#10 = MANIFOLD_SURFACE_SHAPE_REPRESENTATION('',(#11,#15),#145);
#11 = AXIS2_PLACEMENT_3D('',#12,#13,#14);
#12 = CARTESIAN_POINT('',(0.,0.,0.));
#13 = DIRECTION('',(0.,0.,1.));
#14 = DIRECTION('',(1.,0.,-0.));
#15 = SHELL_BASED_SURFACE_MODEL('',(#16));
#16 = OPEN_SHELL('',(#17));
#17 = ADVANCED_FACE('',(#18),#46,.T.);
#18 = FACE_BOUND('',#19,.T.);
#19 = EDGE_LOOP('',(#20,#71,#87,#131));
#20 = ORIENTED_EDGE('',*,*,#21,.T.);
#21 = EDGE_CURVE('',#22,#24,#26,.T.);
#22 = VERTEX_POINT('',#23);
#23 = CARTESIAN_POINT('',(0.,0.,0.));
#24 = VERTEX_POINT('',#25);
#25 = CARTESIAN_POINT('',(1.,0.,0.));
#26 = SURFACE_CURVE('',#27,(#45),.PCURVE_S1.);
#27 = B_SPLINE_CURVE_WITH_KNOTS('',1,(#28,#29,#30,#31,#32,#33,#34,#35,
    #36,#37,#38,#39,#40,#41,#42,#43,#44),.UNSPECIFIED.,.F.,.F.,(2,1,1,1,
    1,1,1,1,1,1,1,1,1,1,1,1,2),(0.,8.964625823563E-02,0.129721645294,
    0.200131469868,0.233026979277,0.285480883483,0.331320730495,
    0.357101457763,0.486886507505,0.503714441068,0.568069055884,
    0.701380018655,0.730327841144,0.789337832395,0.952351285702,
    0.969701385253,1.),.UNSPECIFIED.);
#28 = CARTESIAN_POINT('',(0.,-0.,0.));
#29 = CARTESIAN_POINT('',(8.973854139379E-02,-4.112442586266E-03,0.));
#30 = CARTESIAN_POINT('',(0.12915598556,3.568039076936E-03,0.));
#31 = CARTESIAN_POINT('',(0.19936407465,-3.4328490488E-03,0.));
#32 = CARTESIAN_POINT('',(0.232299938182,-2.072809685725E-03,0.));
#33 = CARTESIAN_POINT('',(0.284829577667,-3.945457655291E-03,0.));
#34 = CARTESIAN_POINT('',(0.330711760143,-1.739247765709E-03,0.));
#35 = CARTESIAN_POINT('',(0.356534027228,-9.491710692589E-04,0.));
#36 = CARTESIAN_POINT('',(0.486485117016,4.248705229871E-03,0.));
#37 = CARTESIAN_POINT('',(0.503333652903,4.945438116881E-03,0.));
#38 = CARTESIAN_POINT('',(0.567553278395,-9.36973100768E-04,0.));
#39 = CARTESIAN_POINT('',(0.701136191173,-2.131032014087E-03,0.));
#40 = CARTESIAN_POINT('',(0.730132832858,-1.318134544685E-03,0.));
#41 = CARTESIAN_POINT('',(0.789265384373,-1.464206413752E-03,0.));
#42 = CARTESIAN_POINT('',(0.952615054132,-2.42935369613E-03,0.));
#43 = CARTESIAN_POINT('',(0.969655521723,1.020572097868E-03,0.));
#44 = CARTESIAN_POINT('',(1.,-0.,0.));
#45 = PCURVE('',#46,#51);
#46 = PLANE('',#47);
#47 = AXIS2_PLACEMENT_3D('',#48,#49,#50);
#48 = CARTESIAN_POINT('',(0.499714371177,3.125E-02,0.));
#49 = DIRECTION('',(0.,0.,1.));
#50 = DIRECTION('',(1.,0.,-0.));
#51 = DEFINITIONAL_REPRESENTATION('',(#52),#70);
#52 = B_SPLINE_CURVE_WITH_KNOTS('',1,(#53,#54,#55,#56,#57,#58,#59,#60,
    #61,#62,#63,#64,#65,#66,#67,#68,#69),.UNSPECIFIED.,.F.,.F.,(2,1,1,1,
    1,1,1,1,1,1,1,1,1,1,1,1,2),(0.,8.964625823563E-02,0.129721645294,
    0.200131469868,0.233026979277,0.285480883483,0.331320730495,
    0.357101457763,0.486886507505,0.503714441068,0.568069055884,
    0.701380018655,0.730327841144,0.789337832395,0.952351285702,
    0.969701385253,1.),.UNSPECIFIED.);
#53 = CARTESIAN_POINT('',(-0.499714371177,-3.125E-02));
#54 = CARTESIAN_POINT('',(-0.409975829783,-3.536244258627E-02));
#55 = CARTESIAN_POINT('',(-0.370558385618,-2.768196092306E-02));
#56 = CARTESIAN_POINT('',(-0.300350296527,-3.46828490488E-02));
#57 = CARTESIAN_POINT('',(-0.267414432995,-3.332280968572E-02));
#58 = CARTESIAN_POINT('',(-0.21488479351,-3.519545765529E-02));
#59 = CARTESIAN_POINT('',(-0.169002611034,-3.298924776571E-02));
#60 = CARTESIAN_POINT('',(-0.143180343949,-3.219917106926E-02));
#61 = CARTESIAN_POINT('',(-1.322925416136E-02,-2.700129477013E-02));
#62 = CARTESIAN_POINT('',(3.61928172599E-03,-2.630456188312E-02));
#63 = CARTESIAN_POINT('',(6.783890721802E-02,-3.218697310077E-02));
#64 = CARTESIAN_POINT('',(0.201421819995,-3.338103201409E-02));
#65 = CARTESIAN_POINT('',(0.23041846168,-3.256813454468E-02));
#66 = CARTESIAN_POINT('',(0.289551013195,-3.271420641375E-02));
#67 = CARTESIAN_POINT('',(0.452900682955,-3.367935369613E-02));
#68 = CARTESIAN_POINT('',(0.469941150546,-3.022942790213E-02));
#69 = CARTESIAN_POINT('',(0.500285628823,-3.125E-02));
#70 = ( GEOMETRIC_REPRESENTATION_CONTEXT(2) 
PARAMETRIC_REPRESENTATION_CONTEXT() REPRESENTATION_CONTEXT('2D SPACE',''
  ) );
#71 = ORIENTED_EDGE('',*,*,#72,.T.);
#72 = EDGE_CURVE('',#24,#73,#75,.T.);
#73 = VERTEX_POINT('',#74);
#74 = CARTESIAN_POINT('',(1.,6.25E-02,0.));
#75 = SURFACE_CURVE('',#76,(#80),.PCURVE_S1.);
#76 = LINE('',#77,#78);
#77 = CARTESIAN_POINT('',(1.,-0.,0.));
#78 = VECTOR('',#79,1.);
#79 = DIRECTION('',(0.,1.,0.));
#80 = PCURVE('',#46,#81);
#81 = DEFINITIONAL_REPRESENTATION('',(#82),#86);
#82 = LINE('',#83,#84);
#83 = CARTESIAN_POINT('',(0.500285628823,-3.125E-02));
#84 = VECTOR('',#85,1.);
#85 = DIRECTION('',(0.,1.));
#86 = ( GEOMETRIC_REPRESENTATION_CONTEXT(2) 
PARAMETRIC_REPRESENTATION_CONTEXT() REPRESENTATION_CONTEXT('2D SPACE',''
  ) );
#87 = ORIENTED_EDGE('',*,*,#88,.T.);
#88 = EDGE_CURVE('',#73,#89,#91,.T.);
#89 = VERTEX_POINT('',#90);
#90 = CARTESIAN_POINT('',(0.,6.25E-02,0.));
#91 = SURFACE_CURVE('',#92,(#110),.PCURVE_S1.);
#92 = B_SPLINE_CURVE_WITH_KNOTS('',1,(#93,#94,#95,#96,#97,#98,#99,#100,
    #101,#102,#103,#104,#105,#106,#107,#108,#109),.UNSPECIFIED.,.F.,.F.,
  (2,1,1,1,1,1,1,1,1,1,1,1,1,1,1,1,2),(0.,3.02986147474E-02,
    4.764871429784E-02,0.210662167605,0.269672158856,0.298619981345,
    0.431930944116,0.496285558932,0.513113492495,0.642898542237,
    0.668679269505,0.714519116517,0.766973020723,0.799868530132,
    0.870278354706,0.910353741764,1.),.UNSPECIFIED.);
#93 = CARTESIAN_POINT('',(1.,6.25E-02,0.));
#94 = CARTESIAN_POINT('',(0.969655521723,6.147942790213E-02,0.));
#95 = CARTESIAN_POINT('',(0.952615054132,6.492935369613E-02,0.));
#96 = CARTESIAN_POINT('',(0.789265384373,6.396420641375E-02,0.));
#97 = CARTESIAN_POINT('',(0.730132832858,6.381813454468E-02,0.));
#98 = CARTESIAN_POINT('',(0.701136191173,6.463103201409E-02,0.));
#99 = CARTESIAN_POINT('',(0.567553278395,6.343697310077E-02,0.));
#100 = CARTESIAN_POINT('',(0.503333652903,5.755456188312E-02,0.));
#101 = CARTESIAN_POINT('',(0.486485117016,5.825129477013E-02,0.));
#102 = CARTESIAN_POINT('',(0.356534027228,6.344917106926E-02,0.));
#103 = CARTESIAN_POINT('',(0.330711760143,6.423924776571E-02,0.));
#104 = CARTESIAN_POINT('',(0.284829577667,6.644545765529E-02,0.));
#105 = CARTESIAN_POINT('',(0.232299938182,6.457280968572E-02,0.));
#106 = CARTESIAN_POINT('',(0.19936407465,6.59328490488E-02,0.));
#107 = CARTESIAN_POINT('',(0.12915598556,5.893196092306E-02,0.));
#108 = CARTESIAN_POINT('',(8.973854139379E-02,6.661244258627E-02,0.));
#109 = CARTESIAN_POINT('',(0.,6.25E-02,0.));
#110 = PCURVE('',#46,#111);
#111 = DEFINITIONAL_REPRESENTATION('',(#112),#130);
#112 = B_SPLINE_CURVE_WITH_KNOTS('',1,(#113,#114,#115,#116,#117,#118,
    #119,#120,#121,#122,#123,#124,#125,#126,#127,#128,#129),
  .UNSPECIFIED.,.F.,.F.,(2,1,1,1,1,1,1,1,1,1,1,1,1,1,1,1,2),(0.,
    3.02986147474E-02,4.764871429784E-02,0.210662167605,0.269672158856,
    0.298619981345,0.431930944116,0.496285558932,0.513113492495,
    0.642898542237,0.668679269505,0.714519116517,0.766973020723,
    0.799868530132,0.870278354706,0.910353741764,1.),.UNSPECIFIED.);
#113 = CARTESIAN_POINT('',(0.500285628823,3.125E-02));
#114 = CARTESIAN_POINT('',(0.469941150546,3.022942790213E-02));
#115 = CARTESIAN_POINT('',(0.452900682955,3.367935369613E-02));
#116 = CARTESIAN_POINT('',(0.289551013195,3.271420641375E-02));
#117 = CARTESIAN_POINT('',(0.23041846168,3.256813454468E-02));
#118 = CARTESIAN_POINT('',(0.201421819995,3.338103201409E-02));
#119 = CARTESIAN_POINT('',(6.783890721802E-02,3.218697310077E-02));
#120 = CARTESIAN_POINT('',(3.61928172599E-03,2.630456188312E-02));
#121 = CARTESIAN_POINT('',(-1.322925416136E-02,2.700129477013E-02));
#122 = CARTESIAN_POINT('',(-0.143180343949,3.219917106926E-02));
#123 = CARTESIAN_POINT('',(-0.169002611034,3.298924776571E-02));
#124 = CARTESIAN_POINT('',(-0.21488479351,3.519545765529E-02));
#125 = CARTESIAN_POINT('',(-0.267414432995,3.332280968572E-02));
#126 = CARTESIAN_POINT('',(-0.300350296527,3.46828490488E-02));
#127 = CARTESIAN_POINT('',(-0.370558385618,2.768196092306E-02));
#128 = CARTESIAN_POINT('',(-0.409975829783,3.536244258627E-02));
#129 = CARTESIAN_POINT('',(-0.499714371177,3.125E-02));
#130 = ( GEOMETRIC_REPRESENTATION_CONTEXT(2) 
PARAMETRIC_REPRESENTATION_CONTEXT() REPRESENTATION_CONTEXT('2D SPACE',''
  ) );
#131 = ORIENTED_EDGE('',*,*,#132,.T.);
#132 = EDGE_CURVE('',#89,#22,#133,.T.);
#133 = SURFACE_CURVE('',#134,(#138),.PCURVE_S1.);
#134 = LINE('',#135,#136);
#135 = CARTESIAN_POINT('',(0.,6.25E-02,0.));
#136 = VECTOR('',#137,1.);
#137 = DIRECTION('',(0.,-1.,0.));
#138 = PCURVE('',#46,#139);
#139 = DEFINITIONAL_REPRESENTATION('',(#140),#144);
#140 = LINE('',#141,#142);
#141 = CARTESIAN_POINT('',(-0.499714371177,3.125E-02));
#142 = VECTOR('',#143,1.);
#143 = DIRECTION('',(0.,-1.));
#144 = ( GEOMETRIC_REPRESENTATION_CONTEXT(2) 
PARAMETRIC_REPRESENTATION_CONTEXT() REPRESENTATION_CONTEXT('2D SPACE',''
  ) );
#145 = ( GEOMETRIC_REPRESENTATION_CONTEXT(3) 
GLOBAL_UNCERTAINTY_ASSIGNED_CONTEXT((#149)) GLOBAL_UNIT_ASSIGNED_CONTEXT
((#146,#147,#148)) REPRESENTATION_CONTEXT('Context #1',
  '3D Context with UNIT and UNCERTAINTY') );
#146 = ( LENGTH_UNIT() NAMED_UNIT(*) SI_UNIT(.MILLI.,.METRE.) );
#147 = ( NAMED_UNIT(*) PLANE_ANGLE_UNIT() SI_UNIT($,.RADIAN.) );
#148 = ( NAMED_UNIT(*) SI_UNIT($,.STERADIAN.) SOLID_ANGLE_UNIT() );
#149 = UNCERTAINTY_MEASURE_WITH_UNIT(LENGTH_MEASURE(1.E-07),#146,
  'distance_accuracy_value','confusion accuracy');
#150 = PRODUCT_RELATED_PRODUCT_CATEGORY('part',$,(#7));
ENDSEC;
END-ISO-10303-21;
