ISO-10303-21;
HEADER;
FILE_DESCRIPTION(('Open CASCADE Model'),'2;1');
FILE_NAME('Open CASCADE Shape Model','2026-08-17T20:30:05',('Author'),(
    'Open CASCADE'),'Open CASCADE STEP processor 7.9','Open CASCADE 7.9'
  ,'Unknown');
FILE_SCHEMA(('AUTOMOTIVE_DESIGN { 1 0 10303 214 1 1 1 1 }'));
ENDSEC;
DATA;
#1 = APPLICATION_PROTOCOL_DEFINITION('international standard',
  'automotive_design',2000,#2);
#2 = APPLICATION_CONTEXT(
  'core data for automotive mechanical design processes');
#3 = SHAPE_DEFINITION_REPRESENTATION(#4,#10);
#4 = PRODUCT_DEFINITION_SHAPE('','',#5);
#5 = PRODUCT_DEFINITION('design','',#6,#9);
#6 = PRODUCT_DEFINITION_FORMATION('','',#7);
#7 = PRODUCT('Open CASCADE STEP translator 7.9 101',
  'Open CASCADE STEP translator 7.9 101','',(#8));
#8 = PRODUCT_CONTEXT('',#2,'mechanical');
#9 = PRODUCT_DEFINITION_CONTEXT('part definition',#2,'design');
#10 = MANIFOLD_SURFACE_SHAPE_REPRESENTATION('',(#11,#15),#97);
#11 = AXIS2_PLACEMENT_3D('',#12,#13,#14);
#12 = CARTESIAN_POINT('',(0.,0.,0.));
#13 = DIRECTION('',(0.,0.,1.));
#14 = DIRECTION('',(1.,0.,-0.));
#15 = SHELL_BASED_SURFACE_MODEL('',(#16));
#16 = OPEN_SHELL('',(#17));
#17 = ADVANCED_FACE('',(#18),#34,.T.);
#18 = FACE_BOUND('',#19,.T.);
#19 = EDGE_LOOP('',(#20,#47,#63,#83));
#20 = ORIENTED_EDGE('',*,*,#21,.T.);
#21 = EDGE_CURVE('',#22,#24,#26,.T.);
#22 = VERTEX_POINT('',#23);
#23 = CARTESIAN_POINT('',(0.,0.,0.));
#24 = VERTEX_POINT('',#25);
#25 = CARTESIAN_POINT('',(1.,0.,0.));
#26 = SURFACE_CURVE('',#27,(#33),.PCURVE_S1.);
#27 = B_SPLINE_CURVE_WITH_KNOTS('',1,(#28,#29,#30,#31,#32),
  .UNSPECIFIED.,.F.,.F.,(2,1,1,1,2),(0.,0.385702504802,0.818633055326,
    0.930481288438,1.),.UNSPECIFIED.);
#28 = CARTESIAN_POINT('',(0.,-0.,0.));
#29 = CARTESIAN_POINT('',(0.385735492404,4.579995365834E-03,0.));
#30 = CARTESIAN_POINT('',(0.818733475286,4.267428808376E-03,0.));
#31 = CARTESIAN_POINT('',(0.930477043639,-9.58092956528E-04,0.));
#32 = CARTESIAN_POINT('',(1.,-0.,0.));
#33 = PCURVE('',#34,#39);
#34 = PLANE('',#35);
#35 = AXIS2_PLACEMENT_3D('',#36,#37,#38);
#36 = CARTESIAN_POINT('',(0.500032377626,0.125,0.));
#37 = DIRECTION('',(0.,0.,1.));
#38 = DIRECTION('',(1.,0.,-0.));
#39 = DEFINITIONAL_REPRESENTATION('',(#40),#46);
#40 = B_SPLINE_CURVE_WITH_KNOTS('',1,(#41,#42,#43,#44,#45),
  .UNSPECIFIED.,.F.,.F.,(2,1,1,1,2),(0.,0.385702504802,0.818633055326,
    0.930481288438,1.),.UNSPECIFIED.);
#41 = CARTESIAN_POINT('',(-0.500032377626,-0.125));
#42 = CARTESIAN_POINT('',(-0.114296885222,-0.120420004634));
#43 = CARTESIAN_POINT('',(0.31870109766,-0.120732571192));
#44 = CARTESIAN_POINT('',(0.430444666013,-0.125958092957));
#45 = CARTESIAN_POINT('',(0.499967622374,-0.125));
#46 = ( GEOMETRIC_REPRESENTATION_CONTEXT(2) 
PARAMETRIC_REPRESENTATION_CONTEXT() REPRESENTATION_CONTEXT('2D SPACE',''
  ) );
#47 = ORIENTED_EDGE('',*,*,#48,.T.);
#48 = EDGE_CURVE('',#24,#49,#51,.T.);
#49 = VERTEX_POINT('',#50);
#50 = CARTESIAN_POINT('',(1.,0.25,0.));
#51 = SURFACE_CURVE('',#52,(#56),.PCURVE_S1.);
#52 = LINE('',#53,#54);
#53 = CARTESIAN_POINT('',(1.,-0.,0.));
#54 = VECTOR('',#55,1.);
#55 = DIRECTION('',(0.,1.,0.));
#56 = PCURVE('',#34,#57);
#57 = DEFINITIONAL_REPRESENTATION('',(#58),#62);
#58 = LINE('',#59,#60);
#59 = CARTESIAN_POINT('',(0.499967622374,-0.125));
#60 = VECTOR('',#61,1.);
#61 = DIRECTION('',(0.,1.));
#62 = ( GEOMETRIC_REPRESENTATION_CONTEXT(2) 
PARAMETRIC_REPRESENTATION_CONTEXT() REPRESENTATION_CONTEXT('2D SPACE',''
  ) );
#63 = ORIENTED_EDGE('',*,*,#64,.T.);
#64 = EDGE_CURVE('',#49,#65,#67,.T.);
#65 = VERTEX_POINT('',#66);
#66 = CARTESIAN_POINT('',(0.,0.25,0.));
#67 = SURFACE_CURVE('',#68,(#74),.PCURVE_S1.);
#68 = B_SPLINE_CURVE_WITH_KNOTS('',1,(#69,#70,#71,#72,#73),
  .UNSPECIFIED.,.F.,.F.,(2,1,1,1,2),(0.,6.951871156204E-02,
    0.181366944674,0.614297495198,1.),.UNSPECIFIED.);
#69 = CARTESIAN_POINT('',(1.,0.25,0.));
#70 = CARTESIAN_POINT('',(0.930477043639,0.250958092957,0.));
#71 = CARTESIAN_POINT('',(0.818733475286,0.245732571192,0.));
#72 = CARTESIAN_POINT('',(0.385735492404,0.245420004634,0.));
#73 = CARTESIAN_POINT('',(0.,0.25,0.));
#74 = PCURVE('',#34,#75);
#75 = DEFINITIONAL_REPRESENTATION('',(#76),#82);
#76 = B_SPLINE_CURVE_WITH_KNOTS('',1,(#77,#78,#79,#80,#81),
  .UNSPECIFIED.,.F.,.F.,(2,1,1,1,2),(0.,6.951871156204E-02,
    0.181366944674,0.614297495198,1.),.UNSPECIFIED.);
#77 = CARTESIAN_POINT('',(0.499967622374,0.125));
#78 = CARTESIAN_POINT('',(0.430444666013,0.125958092957));
#79 = CARTESIAN_POINT('',(0.31870109766,0.120732571192));
#80 = CARTESIAN_POINT('',(-0.114296885222,0.120420004634));
#81 = CARTESIAN_POINT('',(-0.500032377626,0.125));
#82 = ( GEOMETRIC_REPRESENTATION_CONTEXT(2) 
PARAMETRIC_REPRESENTATION_CONTEXT() REPRESENTATION_CONTEXT('2D SPACE',''
  ) );
#83 = ORIENTED_EDGE('',*,*,#84,.T.);
#84 = EDGE_CURVE('',#65,#22,#85,.T.);
#85 = SURFACE_CURVE('',#86,(#90),.PCURVE_S1.);
#86 = LINE('',#87,#88);
#87 = CARTESIAN_POINT('',(0.,0.25,0.));
#88 = VECTOR('',#89,1.);
#89 = DIRECTION('',(0.,-1.,0.));
#90 = PCURVE('',#34,#91);
#91 = DEFINITIONAL_REPRESENTATION('',(#92),#96);
#92 = LINE('',#93,#94);
#93 = CARTESIAN_POINT('',(-0.500032377626,0.125));
#94 = VECTOR('',#95,1.);
#95 = DIRECTION('',(0.,-1.));
#96 = ( GEOMETRIC_REPRESENTATION_CONTEXT(2) 
PARAMETRIC_REPRESENTATION_CONTEXT() REPRESENTATION_CONTEXT('2D SPACE',''
  ) );
#97 = ( GEOMETRIC_REPRESENTATION_CONTEXT(3) 
GLOBAL_UNCERTAINTY_ASSIGNED_CONTEXT((#101)) GLOBAL_UNIT_ASSIGNED_CONTEXT
((#98,#99,#100)) REPRESENTATION_CONTEXT('Context #1',
  '3D Context with UNIT and UNCERTAINTY') );
#98 = ( LENGTH_UNIT() NAMED_UNIT(*) SI_UNIT(.MILLI.,.METRE.) );
#99 = ( NAMED_UNIT(*) PLANE_ANGLE_UNIT() SI_UNIT($,.RADIAN.) );
#100 = ( NAMED_UNIT(*) SI_UNIT($,.STERADIAN.) SOLID_ANGLE_UNIT() );
#101 = UNCERTAINTY_MEASURE_WITH_UNIT(LENGTH_MEASURE(1.E-07),#98,
  'distance_accuracy_value','confusion accuracy');
#102 = PRODUCT_RELATED_PRODUCT_CATEGORY('part',$,(#7));
ENDSEC;
END-ISO-10303-21;
