ISO-10303-21;
HEADER;
FILE_DESCRIPTION(('Open CASCADE Model'),'2;1');
FILE_NAME('Open CASCADE Shape Model','2026-08-17T20:30:04',('Author'),(
    'Open CASCADE'),'Open CASCADE STEP processor 7.9','Open CASCADE 7.9'
  ,'Unknown');
FILE_SCHEMA(('AUTOMOTIVE_DESIGN { 1 0 10303 214 1 1 1 1 }'));
ENDSEC;
DATA;
#1 = APPLICATION_PROTOCOL_DEFINITION('international standard',
  'automotive_design',2000,#2);
#2 = APPLICATION_CONTEXT(
  'core data for automotive mechanical design processes');
#3 = SHAPE_DEFINITION_REPRESENTATION(#4,#10);
#4 = PRODUCT_DEFINITION_SHAPE('','',#5);
#5 = PRODUCT_DEFINITION('design','',#6,#9);
#6 = PRODUCT_DEFINITION_FORMATION('','',#7);
#7 = PRODUCT('Open CASCADE STEP translator 7.9 44',
  'Open CASCADE STEP translator 7.9 44','',(#8));
#8 = PRODUCT_CONTEXT('',#2,'mechanical');
#9 = PRODUCT_DEFINITION_CONTEXT('part definition',#2,'design');
#10 = MANIFOLD_SURFACE_SHAPE_REPRESENTATION('',(#11,#15),#145);
#11 = AXIS2_PLACEMENT_3D('',#12,#13,#14);
#12 = CARTESIAN_POINT('',(0.,0.,0.));
#13 = DIRECTION('',(0.,0.,1.));
#14 = DIRECTION('',(1.,0.,-0.));
#15 = SHELL_BASED_SURFACE_MODEL('',(#16));
#16 = OPEN_SHELL('',(#17));
#17 = ADVANCED_FACE('',(#18),#46,.T.);
#18 = FACE_BOUND('',#19,.T.);
#19 = EDGE_LOOP('',(#20,#71,#87,#131));
#20 = ORIENTED_EDGE('',*,*,#21,.T.);
#21 = EDGE_CURVE('',#22,#24,#26,.T.);
#22 = VERTEX_POINT('',#23);
#23 = CARTESIAN_POINT('',(0.,0.,0.));
#24 = VERTEX_POINT('',#25);
#25 = CARTESIAN_POINT('',(1.,0.,0.));
#26 = SURFACE_CURVE('',#27,(#45),.PCURVE_S1.);
#27 = B_SPLINE_CURVE_WITH_KNOTS('',1,(#28,#29,#30,#31,#32,#33,#34,#35,
    #36,#37,#38,#39,#40,#41,#42,#43,#44),.UNSPECIFIED.,.F.,.F.,(2,1,1,1,
    1,1,1,1,1,1,1,1,1,1,1,1,2),(0.,3.031107541077E-02,9.541533758876E-02
    ,0.126652224983,0.160810690997,0.186650014555,0.24742896255,
    0.321725488963,0.447427387775,0.489116550105,0.622312372667,
    0.691061278911,0.734808010632,0.872754217481,0.911642350156,
    0.973185862579,1.),.UNSPECIFIED.);
#28 = CARTESIAN_POINT('',(0.,-0.,0.));
#29 = CARTESIAN_POINT('',(3.028070301596E-02,2.914221778017E-03,0.));
#30 = CARTESIAN_POINT('',(9.559273131327E-02,4.80990427314E-03,0.));
#31 = CARTESIAN_POINT('',(0.125974892862,-2.918766173526E-03,0.));
#32 = CARTESIAN_POINT('',(0.159899209942,2.019840290511E-03,0.));
#33 = CARTESIAN_POINT('',(0.18574498107,4.14141617371E-03,0.));
#34 = CARTESIAN_POINT('',(0.246703976561,1.943985907638E-03,0.));
#35 = CARTESIAN_POINT('',(0.321248021047,1.756194412424E-04,0.));
#36 = CARTESIAN_POINT('',(0.447315465425,4.905853411321E-03,0.));
#37 = CARTESIAN_POINT('',(0.488271720985,-3.647241179937E-03,0.));
#38 = CARTESIAN_POINT('',(0.621839843695,1.750899257275E-03,0.));
#39 = CARTESIAN_POINT('',(0.690832020555,2.595671563811E-03,0.));
#40 = CARTESIAN_POINT('',(0.734637350954,-3.583816847532E-04,0.));
#41 = CARTESIAN_POINT('',(0.873005533719,4.244252742706E-03,0.));
#42 = CARTESIAN_POINT('',(0.911420672017,-2.648776870918E-03,0.));
#43 = CARTESIAN_POINT('',(0.973185469474,-2.277034405689E-03,0.));
#44 = CARTESIAN_POINT('',(1.,-0.,0.));
#45 = PCURVE('',#46,#51);
#46 = PLANE('',#47);
#47 = AXIS2_PLACEMENT_3D('',#48,#49,#50);
#48 = CARTESIAN_POINT('',(0.499692563318,3.125E-02,0.));
#49 = DIRECTION('',(0.,0.,1.));
#50 = DIRECTION('',(1.,0.,-0.));
#51 = DEFINITIONAL_REPRESENTATION('',(#52),#70);
#52 = B_SPLINE_CURVE_WITH_KNOTS('',1,(#53,#54,#55,#56,#57,#58,#59,#60,
    #61,#62,#63,#64,#65,#66,#67,#68,#69),.UNSPECIFIED.,.F.,.F.,(2,1,1,1,
    1,1,1,1,1,1,1,1,1,1,1,1,2),(0.,3.031107541077E-02,9.541533758876E-02
    ,0.126652224983,0.160810690997,0.186650014555,0.24742896255,
    0.321725488963,0.447427387775,0.489116550105,0.622312372667,
    0.691061278911,0.734808010632,0.872754217481,0.911642350156,
    0.973185862579,1.),.UNSPECIFIED.);
#53 = CARTESIAN_POINT('',(-0.499692563318,-3.125E-02));
#54 = CARTESIAN_POINT('',(-0.469411860302,-2.833577822198E-02));
#55 = CARTESIAN_POINT('',(-0.404099832005,-2.644009572686E-02));
#56 = CARTESIAN_POINT('',(-0.373717670457,-3.416876617353E-02));
#57 = CARTESIAN_POINT('',(-0.339793353376,-2.923015970949E-02));
#58 = CARTESIAN_POINT('',(-0.313947582249,-2.710858382629E-02));
#59 = CARTESIAN_POINT('',(-0.252988586757,-2.930601409236E-02));
#60 = CARTESIAN_POINT('',(-0.178444542271,-3.107438055876E-02));
#61 = CARTESIAN_POINT('',(-5.23770978938E-02,-2.634414658868E-02));
#62 = CARTESIAN_POINT('',(-1.142084233335E-02,-3.489724117994E-02));
#63 = CARTESIAN_POINT('',(0.122147280376,-2.949910074273E-02));
#64 = CARTESIAN_POINT('',(0.191139457237,-2.865432843619E-02));
#65 = CARTESIAN_POINT('',(0.234944787636,-3.160838168475E-02));
#66 = CARTESIAN_POINT('',(0.373312970401,-2.700574725729E-02));
#67 = CARTESIAN_POINT('',(0.411728108698,-3.389877687092E-02));
#68 = CARTESIAN_POINT('',(0.473492906155,-3.352703440569E-02));
#69 = CARTESIAN_POINT('',(0.500307436682,-3.125E-02));
#70 = ( GEOMETRIC_REPRESENTATION_CONTEXT(2) 
PARAMETRIC_REPRESENTATION_CONTEXT() REPRESENTATION_CONTEXT('2D SPACE',''
  ) );
#71 = ORIENTED_EDGE('',*,*,#72,.T.);
#72 = EDGE_CURVE('',#24,#73,#75,.T.);
#73 = VERTEX_POINT('',#74);
#74 = CARTESIAN_POINT('',(1.,6.25E-02,0.));
#75 = SURFACE_CURVE('',#76,(#80),.PCURVE_S1.);
#76 = LINE('',#77,#78);
#77 = CARTESIAN_POINT('',(1.,-0.,0.));
#78 = VECTOR('',#79,1.);
#79 = DIRECTION('',(0.,1.,0.));
#80 = PCURVE('',#46,#81);
#81 = DEFINITIONAL_REPRESENTATION('',(#82),#86);
#82 = LINE('',#83,#84);
#83 = CARTESIAN_POINT('',(0.500307436682,-3.125E-02));
#84 = VECTOR('',#85,1.);
#85 = DIRECTION('',(0.,1.));
#86 = ( GEOMETRIC_REPRESENTATION_CONTEXT(2) 
PARAMETRIC_REPRESENTATION_CONTEXT() REPRESENTATION_CONTEXT('2D SPACE',''
  ) );
#87 = ORIENTED_EDGE('',*,*,#88,.T.);
#88 = EDGE_CURVE('',#73,#89,#91,.T.);
#89 = VERTEX_POINT('',#90);
#90 = CARTESIAN_POINT('',(0.,6.25E-02,0.));
#91 = SURFACE_CURVE('',#92,(#110),.PCURVE_S1.);
#92 = B_SPLINE_CURVE_WITH_KNOTS('',1,(#93,#94,#95,#96,#97,#98,#99,#100,
    #101,#102,#103,#104,#105,#106,#107,#108,#109),.UNSPECIFIED.,.F.,.F.,
  (2,1,1,1,1,1,1,1,1,1,1,1,1,1,1,1,2),(0.,2.681413742105E-02,
    8.835764984388E-02,0.127245782519,0.265191989368,0.308938721089,
    0.377687627333,0.510883449895,0.552572612225,0.678274511037,
    0.75257103745,0.813349985445,0.839189309003,0.873347775017,
    0.904584662411,0.969688924589,1.),.UNSPECIFIED.);
#93 = CARTESIAN_POINT('',(1.,6.25E-02,0.));
#94 = CARTESIAN_POINT('',(0.973185469474,6.477703440569E-02,0.));
#95 = CARTESIAN_POINT('',(0.911420672017,6.514877687092E-02,0.));
#96 = CARTESIAN_POINT('',(0.873005533719,5.825574725729E-02,0.));
#97 = CARTESIAN_POINT('',(0.734637350954,6.285838168475E-02,0.));
#98 = CARTESIAN_POINT('',(0.690832020555,5.990432843619E-02,0.));
#99 = CARTESIAN_POINT('',(0.621839843695,6.074910074273E-02,0.));
#100 = CARTESIAN_POINT('',(0.488271720985,6.614724117994E-02,0.));
#101 = CARTESIAN_POINT('',(0.447315465425,5.759414658868E-02,0.));
#102 = CARTESIAN_POINT('',(0.321248021047,6.232438055876E-02,0.));
#103 = CARTESIAN_POINT('',(0.246703976561,6.055601409236E-02,0.));
#104 = CARTESIAN_POINT('',(0.18574498107,5.835858382629E-02,0.));
#105 = CARTESIAN_POINT('',(0.159899209942,6.048015970949E-02,0.));
#106 = CARTESIAN_POINT('',(0.125974892862,6.541876617353E-02,0.));
#107 = CARTESIAN_POINT('',(9.559273131327E-02,5.769009572686E-02,0.));
#108 = CARTESIAN_POINT('',(3.028070301596E-02,5.958577822198E-02,0.));
#109 = CARTESIAN_POINT('',(0.,6.25E-02,0.));
#110 = PCURVE('',#46,#111);
#111 = DEFINITIONAL_REPRESENTATION('',(#112),#130);
#112 = B_SPLINE_CURVE_WITH_KNOTS('',1,(#113,#114,#115,#116,#117,#118,
    #119,#120,#121,#122,#123,#124,#125,#126,#127,#128,#129),
  .UNSPECIFIED.,.F.,.F.,(2,1,1,1,1,1,1,1,1,1,1,1,1,1,1,1,2),(0.,
    2.681413742105E-02,8.835764984388E-02,0.127245782519,0.265191989368,
    0.308938721089,0.377687627333,0.510883449895,0.552572612225,
    0.678274511037,0.75257103745,0.813349985445,0.839189309003,
    0.873347775017,0.904584662411,0.969688924589,1.),.UNSPECIFIED.);
#113 = CARTESIAN_POINT('',(0.500307436682,3.125E-02));
#114 = CARTESIAN_POINT('',(0.473492906155,3.352703440569E-02));
#115 = CARTESIAN_POINT('',(0.411728108698,3.389877687092E-02));
#116 = CARTESIAN_POINT('',(0.373312970401,2.700574725729E-02));
#117 = CARTESIAN_POINT('',(0.234944787636,3.160838168475E-02));
#118 = CARTESIAN_POINT('',(0.191139457237,2.865432843619E-02));
#119 = CARTESIAN_POINT('',(0.122147280376,2.949910074273E-02));
#120 = CARTESIAN_POINT('',(-1.142084233335E-02,3.489724117994E-02));
#121 = CARTESIAN_POINT('',(-5.23770978938E-02,2.634414658868E-02));
#122 = CARTESIAN_POINT('',(-0.178444542271,3.107438055876E-02));
#123 = CARTESIAN_POINT('',(-0.252988586757,2.930601409236E-02));
#124 = CARTESIAN_POINT('',(-0.313947582249,2.710858382629E-02));
#125 = CARTESIAN_POINT('',(-0.339793353376,2.923015970949E-02));
#126 = CARTESIAN_POINT('',(-0.373717670457,3.416876617353E-02));
#127 = CARTESIAN_POINT('',(-0.404099832005,2.644009572686E-02));
#128 = CARTESIAN_POINT('',(-0.469411860302,2.833577822198E-02));
#129 = CARTESIAN_POINT('',(-0.499692563318,3.125E-02));
#130 = ( GEOMETRIC_REPRESENTATION_CONTEXT(2) 
PARAMETRIC_REPRESENTATION_CONTEXT() REPRESENTATION_CONTEXT('2D SPACE',''
  ) );
#131 = ORIENTED_EDGE('',*,*,#132,.T.);
#132 = EDGE_CURVE('',#89,#22,#133,.T.);
#133 = SURFACE_CURVE('',#134,(#138),.PCURVE_S1.);
#134 = LINE('',#135,#136);
#135 = CARTESIAN_POINT('',(0.,6.25E-02,0.));
#136 = VECTOR('',#137,1.);
#137 = DIRECTION('',(0.,-1.,0.));
#138 = PCURVE('',#46,#139);
#139 = DEFINITIONAL_REPRESENTATION('',(#140),#144);
#140 = LINE('',#141,#142);
#141 = CARTESIAN_POINT('',(-0.499692563318,3.125E-02));
#142 = VECTOR('',#143,1.);
#143 = DIRECTION('',(0.,-1.));
#144 = ( GEOMETRIC_REPRESENTATION_CONTEXT(2) 
PARAMETRIC_REPRESENTATION_CONTEXT() REPRESENTATION_CONTEXT('2D SPACE',''
  ) );
#145 = ( GEOMETRIC_REPRESENTATION_CONTEXT(3) 
GLOBAL_UNCERTAINTY_ASSIGNED_CONTEXT((#149)) GLOBAL_UNIT_ASSIGNED_CONTEXT
((#146,#147,#148)) REPRESENTATION_CONTEXT('Context #1',
  '3D Context with UNIT and UNCERTAINTY') );
#146 = ( LENGTH_UNIT() NAMED_UNIT(*) SI_UNIT(.MILLI.,.METRE.) );
#147 = ( NAMED_UNIT(*) PLANE_ANGLE_UNIT() SI_UNIT($,.RADIAN.) );
#148 = ( NAMED_UNIT(*) SI_UNIT($,.STERADIAN.) SOLID_ANGLE_UNIT() );
#149 = UNCERTAINTY_MEASURE_WITH_UNIT(LENGTH_MEASURE(1.E-07),#146,
  'distance_accuracy_value','confusion accuracy');
#150 = PRODUCT_RELATED_PRODUCT_CATEGORY('part',$,(#7));
ENDSEC;
END-ISO-10303-21;
