ISO-10303-21;
HEADER;
FILE_DESCRIPTION(('Open CASCADE Model'),'2;1');
FILE_NAME('Open CASCADE Shape Model','2026-08-17T20:30:05',('Author'),(
    'Open CASCADE'),'Open CASCADE STEP processor 7.9','Open CASCADE 7.9'
  ,'Unknown');
FILE_SCHEMA(('AUTOMOTIVE_DESIGN { 1 0 10303 214 1 1 1 1 }'));
ENDSEC;
DATA;
#1 = APPLICATION_PROTOCOL_DEFINITION('international standard',
  'automotive_design',2000,#2);
#2 = APPLICATION_CONTEXT(
  'core data for automotive mechanical design processes');
#3 = SHAPE_DEFINITION_REPRESENTATION(#4,#10);
#4 = PRODUCT_DEFINITION_SHAPE('','',#5);
#5 = PRODUCT_DEFINITION('design','',#6,#9);
#6 = PRODUCT_DEFINITION_FORMATION('','',#7);
#7 = PRODUCT('Open CASCADE STEP translator 7.9 83',
  'Open CASCADE STEP translator 7.9 83','',(#8));
#8 = PRODUCT_CONTEXT('',#2,'mechanical');
#9 = PRODUCT_DEFINITION_CONTEXT('part definition',#2,'design');
#10 = MANIFOLD_SURFACE_SHAPE_REPRESENTATION('',(#11,#15),#145);
#11 = AXIS2_PLACEMENT_3D('',#12,#13,#14);
#12 = CARTESIAN_POINT('',(0.,0.,0.));
#13 = DIRECTION('',(0.,0.,1.));
#14 = DIRECTION('',(1.,0.,-0.));
#15 = SHELL_BASED_SURFACE_MODEL('',(#16));
#16 = OPEN_SHELL('',(#17));
#17 = ADVANCED_FACE('',(#18),#46,.T.);
#18 = FACE_BOUND('',#19,.T.);
#19 = EDGE_LOOP('',(#20,#71,#87,#131));
#20 = ORIENTED_EDGE('',*,*,#21,.T.);
#21 = EDGE_CURVE('',#22,#24,#26,.T.);
#22 = VERTEX_POINT('',#23);
#23 = CARTESIAN_POINT('',(0.,0.,0.));
#24 = VERTEX_POINT('',#25);
#25 = CARTESIAN_POINT('',(1.,0.,0.));
#26 = SURFACE_CURVE('',#27,(#45),.PCURVE_S1.);
#27 = B_SPLINE_CURVE_WITH_KNOTS('',1,(#28,#29,#30,#31,#32,#33,#34,#35,
    #36,#37,#38,#39,#40,#41,#42,#43,#44),.UNSPECIFIED.,.F.,.F.,(2,1,1,1,
    1,1,1,1,1,1,1,1,1,1,1,1,2),(0.,3.089470216613E-02,6.034925015446E-02
    ,0.10086621686,0.335827261061,0.44359933081,0.48427445242,
    0.502686998425,0.657336134,0.796250890937,0.816968411823,
    0.838944538944,0.861513221913,0.903793326694,0.917887982013,
    0.944960787971,1.),.UNSPECIFIED.);
#28 = CARTESIAN_POINT('',(0.,-0.,0.));
#29 = CARTESIAN_POINT('',(3.093284378102E-02,-2.146769606714E-03,0.));
#30 = CARTESIAN_POINT('',(6.04073651505E-02,1.237880834563E-04,0.));
#31 = CARTESIAN_POINT('',(0.101054867177,-1.054125313326E-03,0.));
#32 = CARTESIAN_POINT('',(0.336842002519,-4.805903924822E-03,0.));
#33 = CARTESIAN_POINT('',(0.445005304129,-4.261460738243E-03,0.));
#34 = CARTESIAN_POINT('',(0.485213761086,2.796977025423E-03,0.));
#35 = CARTESIAN_POINT('',(0.502640938478,-3.35037021096E-03,0.));
#36 = CARTESIAN_POINT('',(0.657812259552,2.249713995153E-04,0.));
#37 = CARTESIAN_POINT('',(0.797225362863,1.690736005024E-03,0.));
#38 = CARTESIAN_POINT('',(0.817995770617,2.659602701083E-03,0.));
#39 = CARTESIAN_POINT('',(0.84005178253,2.746677559089E-03,0.));
#40 = CARTESIAN_POINT('',(0.86221152476,-1.944699243601E-03,0.));
#41 = CARTESIAN_POINT('',(0.904642593999,-1.43531807134E-03,0.));
#42 = CARTESIAN_POINT('',(0.91786427382,3.594246193529E-03,0.));
#43 = CARTESIAN_POINT('',(0.944760899664,-2.603728004709E-04,0.));
#44 = CARTESIAN_POINT('',(1.,-0.,0.));
#45 = PCURVE('',#46,#51);
#46 = PLANE('',#47);
#47 = AXIS2_PLACEMENT_3D('',#48,#49,#50);
#48 = CARTESIAN_POINT('',(0.500530302426,3.125E-02,0.));
#49 = DIRECTION('',(0.,0.,1.));
#50 = DIRECTION('',(1.,0.,-0.));
#51 = DEFINITIONAL_REPRESENTATION('',(#52),#70);
#52 = B_SPLINE_CURVE_WITH_KNOTS('',1,(#53,#54,#55,#56,#57,#58,#59,#60,
    #61,#62,#63,#64,#65,#66,#67,#68,#69),.UNSPECIFIED.,.F.,.F.,(2,1,1,1,
    1,1,1,1,1,1,1,1,1,1,1,1,2),(0.,3.089470216613E-02,6.034925015446E-02
    ,0.10086621686,0.335827261061,0.44359933081,0.48427445242,
    0.502686998425,0.657336134,0.796250890937,0.816968411823,
    0.838944538944,0.861513221913,0.903793326694,0.917887982013,
    0.944960787971,1.),.UNSPECIFIED.);
#53 = CARTESIAN_POINT('',(-0.500530302426,-3.125E-02));
#54 = CARTESIAN_POINT('',(-0.469597458645,-3.339676960671E-02));
#55 = CARTESIAN_POINT('',(-0.440122937275,-3.112621191654E-02));
#56 = CARTESIAN_POINT('',(-0.399475435249,-3.230412531333E-02));
#57 = CARTESIAN_POINT('',(-0.163688299907,-3.605590392482E-02));
#58 = CARTESIAN_POINT('',(-5.552499829687E-02,-3.551146073824E-02));
#59 = CARTESIAN_POINT('',(-1.531654133951E-02,-2.845302297458E-02));
#60 = CARTESIAN_POINT('',(2.110636052176E-03,-3.460037021096E-02));
#61 = CARTESIAN_POINT('',(0.157281957127,-3.102502860048E-02));
#62 = CARTESIAN_POINT('',(0.296695060438,-2.955926399498E-02));
#63 = CARTESIAN_POINT('',(0.317465468191,-2.859039729892E-02));
#64 = CARTESIAN_POINT('',(0.339521480105,-2.850332244091E-02));
#65 = CARTESIAN_POINT('',(0.361681222334,-3.31946992436E-02));
#66 = CARTESIAN_POINT('',(0.404112291573,-3.268531807134E-02));
#67 = CARTESIAN_POINT('',(0.417333971395,-2.765575380647E-02));
#68 = CARTESIAN_POINT('',(0.444230597239,-3.151037280047E-02));
#69 = CARTESIAN_POINT('',(0.499469697574,-3.125E-02));
#70 = ( GEOMETRIC_REPRESENTATION_CONTEXT(2) 
PARAMETRIC_REPRESENTATION_CONTEXT() REPRESENTATION_CONTEXT('2D SPACE',''
  ) );
#71 = ORIENTED_EDGE('',*,*,#72,.T.);
#72 = EDGE_CURVE('',#24,#73,#75,.T.);
#73 = VERTEX_POINT('',#74);
#74 = CARTESIAN_POINT('',(1.,6.25E-02,0.));
#75 = SURFACE_CURVE('',#76,(#80),.PCURVE_S1.);
#76 = LINE('',#77,#78);
#77 = CARTESIAN_POINT('',(1.,-0.,0.));
#78 = VECTOR('',#79,1.);
#79 = DIRECTION('',(0.,1.,0.));
#80 = PCURVE('',#46,#81);
#81 = DEFINITIONAL_REPRESENTATION('',(#82),#86);
#82 = LINE('',#83,#84);
#83 = CARTESIAN_POINT('',(0.499469697574,-3.125E-02));
#84 = VECTOR('',#85,1.);
#85 = DIRECTION('',(0.,1.));
#86 = ( GEOMETRIC_REPRESENTATION_CONTEXT(2) 
PARAMETRIC_REPRESENTATION_CONTEXT() REPRESENTATION_CONTEXT('2D SPACE',''
  ) );
#87 = ORIENTED_EDGE('',*,*,#88,.T.);
#88 = EDGE_CURVE('',#73,#89,#91,.T.);
#89 = VERTEX_POINT('',#90);
#90 = CARTESIAN_POINT('',(0.,6.25E-02,0.));
#91 = SURFACE_CURVE('',#92,(#110),.PCURVE_S1.);
#92 = B_SPLINE_CURVE_WITH_KNOTS('',1,(#93,#94,#95,#96,#97,#98,#99,#100,
    #101,#102,#103,#104,#105,#106,#107,#108,#109),.UNSPECIFIED.,.F.,.F.,
  (2,1,1,1,1,1,1,1,1,1,1,1,1,1,1,1,2),(0.,5.503921202933E-02,
    8.211201798673E-02,9.620667330554E-02,0.138486778087,0.161055461056,
    0.183031588177,0.203749109063,0.342663866,0.497313001575,
    0.51572554758,0.55640066919,0.664172738939,0.89913378314,
    0.939650749846,0.969105297834,1.),.UNSPECIFIED.);
#93 = CARTESIAN_POINT('',(1.,6.25E-02,0.));
#94 = CARTESIAN_POINT('',(0.944760899664,6.276037280047E-02,0.));
#95 = CARTESIAN_POINT('',(0.91786427382,5.890575380647E-02,0.));
#96 = CARTESIAN_POINT('',(0.904642593999,6.393531807134E-02,0.));
#97 = CARTESIAN_POINT('',(0.86221152476,6.44446992436E-02,0.));
#98 = CARTESIAN_POINT('',(0.84005178253,5.975332244091E-02,0.));
#99 = CARTESIAN_POINT('',(0.817995770617,5.984039729892E-02,0.));
#100 = CARTESIAN_POINT('',(0.797225362863,6.080926399498E-02,0.));
#101 = CARTESIAN_POINT('',(0.657812259552,6.227502860048E-02,0.));
#102 = CARTESIAN_POINT('',(0.502640938478,6.585037021096E-02,0.));
#103 = CARTESIAN_POINT('',(0.485213761086,5.970302297458E-02,0.));
#104 = CARTESIAN_POINT('',(0.445005304129,6.676146073824E-02,0.));
#105 = CARTESIAN_POINT('',(0.336842002519,6.730590392482E-02,0.));
#106 = CARTESIAN_POINT('',(0.101054867177,6.355412531333E-02,0.));
#107 = CARTESIAN_POINT('',(6.04073651505E-02,6.237621191654E-02,0.));
#108 = CARTESIAN_POINT('',(3.093284378102E-02,6.464676960671E-02,0.));
#109 = CARTESIAN_POINT('',(0.,6.25E-02,0.));
#110 = PCURVE('',#46,#111);
#111 = DEFINITIONAL_REPRESENTATION('',(#112),#130);
#112 = B_SPLINE_CURVE_WITH_KNOTS('',1,(#113,#114,#115,#116,#117,#118,
    #119,#120,#121,#122,#123,#124,#125,#126,#127,#128,#129),
  .UNSPECIFIED.,.F.,.F.,(2,1,1,1,1,1,1,1,1,1,1,1,1,1,1,1,2),(0.,
    5.503921202933E-02,8.211201798673E-02,9.620667330554E-02,
    0.138486778087,0.161055461056,0.183031588177,0.203749109063,
    0.342663866,0.497313001575,0.51572554758,0.55640066919,
    0.664172738939,0.89913378314,0.939650749846,0.969105297834,1.),
  .UNSPECIFIED.);
#113 = CARTESIAN_POINT('',(0.499469697574,3.125E-02));
#114 = CARTESIAN_POINT('',(0.444230597239,3.151037280047E-02));
#115 = CARTESIAN_POINT('',(0.417333971395,2.765575380647E-02));
#116 = CARTESIAN_POINT('',(0.404112291573,3.268531807134E-02));
#117 = CARTESIAN_POINT('',(0.361681222334,3.31946992436E-02));
#118 = CARTESIAN_POINT('',(0.339521480105,2.850332244091E-02));
#119 = CARTESIAN_POINT('',(0.317465468191,2.859039729892E-02));
#120 = CARTESIAN_POINT('',(0.296695060438,2.955926399498E-02));
#121 = CARTESIAN_POINT('',(0.157281957127,3.102502860048E-02));
#122 = CARTESIAN_POINT('',(2.110636052176E-03,3.460037021096E-02));
#123 = CARTESIAN_POINT('',(-1.531654133951E-02,2.845302297458E-02));
#124 = CARTESIAN_POINT('',(-5.552499829687E-02,3.551146073824E-02));
#125 = CARTESIAN_POINT('',(-0.163688299907,3.605590392482E-02));
#126 = CARTESIAN_POINT('',(-0.399475435249,3.230412531333E-02));
#127 = CARTESIAN_POINT('',(-0.440122937275,3.112621191654E-02));
#128 = CARTESIAN_POINT('',(-0.469597458645,3.339676960671E-02));
#129 = CARTESIAN_POINT('',(-0.500530302426,3.125E-02));
#130 = ( GEOMETRIC_REPRESENTATION_CONTEXT(2) 
PARAMETRIC_REPRESENTATION_CONTEXT() REPRESENTATION_CONTEXT('2D SPACE',''
  ) );
#131 = ORIENTED_EDGE('',*,*,#132,.T.);
#132 = EDGE_CURVE('',#89,#22,#133,.T.);
#133 = SURFACE_CURVE('',#134,(#138),.PCURVE_S1.);
#134 = LINE('',#135,#136);
#135 = CARTESIAN_POINT('',(0.,6.25E-02,0.));
#136 = VECTOR('',#137,1.);
#137 = DIRECTION('',(0.,-1.,0.));
#138 = PCURVE('',#46,#139);
#139 = DEFINITIONAL_REPRESENTATION('',(#140),#144);
#140 = LINE('',#141,#142);
#141 = CARTESIAN_POINT('',(-0.500530302426,3.125E-02));
#142 = VECTOR('',#143,1.);
#143 = DIRECTION('',(0.,-1.));
#144 = ( GEOMETRIC_REPRESENTATION_CONTEXT(2) 
PARAMETRIC_REPRESENTATION_CONTEXT() REPRESENTATION_CONTEXT('2D SPACE',''
  ) );
#145 = ( GEOMETRIC_REPRESENTATION_CONTEXT(3) 
GLOBAL_UNCERTAINTY_ASSIGNED_CONTEXT((#149)) GLOBAL_UNIT_ASSIGNED_CONTEXT
((#146,#147,#148)) REPRESENTATION_CONTEXT('Context #1',
  '3D Context with UNIT and UNCERTAINTY') );
#146 = ( LENGTH_UNIT() NAMED_UNIT(*) SI_UNIT(.MILLI.,.METRE.) );
#147 = ( NAMED_UNIT(*) PLANE_ANGLE_UNIT() SI_UNIT($,.RADIAN.) );
#148 = ( NAMED_UNIT(*) SI_UNIT($,.STERADIAN.) SOLID_ANGLE_UNIT() );
#149 = UNCERTAINTY_MEASURE_WITH_UNIT(LENGTH_MEASURE(1.E-07),#146,
  'distance_accuracy_value','confusion accuracy');
#150 = PRODUCT_RELATED_PRODUCT_CATEGORY('part',$,(#7));
ENDSEC;
END-ISO-10303-21;
