ISO-10303-21;
HEADER;
FILE_DESCRIPTION(('Open CASCADE Model'),'2;1');
FILE_NAME('Open CASCADE Shape Model','2026-08-17T20:30:05',('Author'),(
    'Open CASCADE'),'Open CASCADE STEP processor 7.9','Open CASCADE 7.9'
  ,'Unknown');
FILE_SCHEMA(('AUTOMOTIVE_DESIGN { 1 0 10303 214 1 1 1 1 }'));
ENDSEC;
DATA;
#1 = APPLICATION_PROTOCOL_DEFINITION('international standard',
  'automotive_design',2000,#2);
#2 = APPLICATION_CONTEXT(
  'core data for automotive mechanical design processes');
#3 = SHAPE_DEFINITION_REPRESENTATION(#4,#10);
#4 = PRODUCT_DEFINITION_SHAPE('','',#5);
#5 = PRODUCT_DEFINITION('design','',#6,#9);
#6 = PRODUCT_DEFINITION_FORMATION('','',#7);
#7 = PRODUCT('Open CASCADE STEP translator 7.9 65',
  'Open CASCADE STEP translator 7.9 65','',(#8));
#8 = PRODUCT_CONTEXT('',#2,'mechanical');
#9 = PRODUCT_DEFINITION_CONTEXT('part definition',#2,'design');
#10 = MANIFOLD_SURFACE_SHAPE_REPRESENTATION('',(#11,#15),#145);
#11 = AXIS2_PLACEMENT_3D('',#12,#13,#14);
#12 = CARTESIAN_POINT('',(0.,0.,0.));
#13 = DIRECTION('',(0.,0.,1.));
#14 = DIRECTION('',(1.,0.,-0.));
#15 = SHELL_BASED_SURFACE_MODEL('',(#16));
#16 = OPEN_SHELL('',(#17));
#17 = ADVANCED_FACE('',(#18),#46,.T.);
#18 = FACE_BOUND('',#19,.T.);
#19 = EDGE_LOOP('',(#20,#71,#87,#131));
#20 = ORIENTED_EDGE('',*,*,#21,.T.);
#21 = EDGE_CURVE('',#22,#24,#26,.T.);
#22 = VERTEX_POINT('',#23);
#23 = CARTESIAN_POINT('',(0.,0.,0.));
#24 = VERTEX_POINT('',#25);
#25 = CARTESIAN_POINT('',(1.,0.,0.));
#26 = SURFACE_CURVE('',#27,(#45),.PCURVE_S1.);
#27 = B_SPLINE_CURVE_WITH_KNOTS('',1,(#28,#29,#30,#31,#32,#33,#34,#35,
    #36,#37,#38,#39,#40,#41,#42,#43,#44),.UNSPECIFIED.,.F.,.F.,(2,1,1,1,
    1,1,1,1,1,1,1,1,1,1,1,1,2),(0.,7.722962941726E-02,9.461360488335E-02
    ,0.165647122985,0.214126946892,0.233872340925,0.262783163368,
    0.364653802924,0.386329685202,0.683199530007,0.764135749421,
    0.795057086904,0.827898179702,0.883904949293,0.949060044492,
    0.977540693251,1.),.UNSPECIFIED.);
#28 = CARTESIAN_POINT('',(0.,-0.,0.));
#29 = CARTESIAN_POINT('',(7.745666784588E-02,1.862395018128E-03,0.));
#30 = CARTESIAN_POINT('',(9.480864439841E-02,3.613590763843E-03,0.));
#31 = CARTESIAN_POINT('',(0.165551047234,-4.983962413753E-03,0.));
#32 = CARTESIAN_POINT('',(0.214029565643,-1.068304412241E-03,0.));
#33 = CARTESIAN_POINT('',(0.233715042211,1.141905045223E-03,0.));
#34 = CARTESIAN_POINT('',(0.262191027086,-4.368229558997E-03,0.));
#35 = CARTESIAN_POINT('',(0.36438291942,-3.109282541214E-03,0.));
#36 = CARTESIAN_POINT('',(0.38573582874,1.006164726636E-03,0.));
#37 = CARTESIAN_POINT('',(0.683539502756,-2.849501645273E-03,0.));
#38 = CARTESIAN_POINT('',(0.764696416971,-2.78886241317E-04,0.));
#39 = CARTESIAN_POINT('',(0.795639644101,-2.47700321564E-03,0.));
#40 = CARTESIAN_POINT('',(0.828557774964,-1.094289020822E-03,0.));
#41 = CARTESIAN_POINT('',(0.884684620462,1.519038527311E-03,0.));
#42 = CARTESIAN_POINT('',(0.949991915036,4.277476486997E-03,0.));
#43 = CARTESIAN_POINT('',(0.977653164624,-2.881471867925E-03,0.));
#44 = CARTESIAN_POINT('',(1.,-0.,0.));
#45 = PCURVE('',#46,#51);
#46 = PLANE('',#47);
#47 = AXIS2_PLACEMENT_3D('',#48,#49,#50);
#48 = CARTESIAN_POINT('',(0.500088124042,3.125E-02,0.));
#49 = DIRECTION('',(0.,0.,1.));
#50 = DIRECTION('',(1.,0.,-0.));
#51 = DEFINITIONAL_REPRESENTATION('',(#52),#70);
#52 = B_SPLINE_CURVE_WITH_KNOTS('',1,(#53,#54,#55,#56,#57,#58,#59,#60,
    #61,#62,#63,#64,#65,#66,#67,#68,#69),.UNSPECIFIED.,.F.,.F.,(2,1,1,1,
    1,1,1,1,1,1,1,1,1,1,1,1,2),(0.,7.722962941726E-02,9.461360488335E-02
    ,0.165647122985,0.214126946892,0.233872340925,0.262783163368,
    0.364653802924,0.386329685202,0.683199530007,0.764135749421,
    0.795057086904,0.827898179702,0.883904949293,0.949060044492,
    0.977540693251,1.),.UNSPECIFIED.);
#53 = CARTESIAN_POINT('',(-0.500088124042,-3.125E-02));
#54 = CARTESIAN_POINT('',(-0.422631456196,-2.938760498187E-02));
#55 = CARTESIAN_POINT('',(-0.405279479643,-2.763640923616E-02));
#56 = CARTESIAN_POINT('',(-0.334537076808,-3.623396241375E-02));
#57 = CARTESIAN_POINT('',(-0.286058558398,-3.231830441224E-02));
#58 = CARTESIAN_POINT('',(-0.266373081831,-3.010809495478E-02));
#59 = CARTESIAN_POINT('',(-0.237897096956,-3.5618229559E-02));
#60 = CARTESIAN_POINT('',(-0.135705204622,-3.435928254121E-02));
#61 = CARTESIAN_POINT('',(-0.114352295302,-3.024383527336E-02));
#62 = CARTESIAN_POINT('',(0.183451378714,-3.409950164527E-02));
#63 = CARTESIAN_POINT('',(0.26460829293,-3.152888624132E-02));
#64 = CARTESIAN_POINT('',(0.295551520059,-3.372700321564E-02));
#65 = CARTESIAN_POINT('',(0.328469650922,-3.234428902082E-02));
#66 = CARTESIAN_POINT('',(0.38459649642,-2.973096147269E-02));
#67 = CARTESIAN_POINT('',(0.449903790994,-2.6972523513E-02));
#68 = CARTESIAN_POINT('',(0.477565040582,-3.413147186792E-02));
#69 = CARTESIAN_POINT('',(0.499911875958,-3.125E-02));
#70 = ( GEOMETRIC_REPRESENTATION_CONTEXT(2) 
PARAMETRIC_REPRESENTATION_CONTEXT() REPRESENTATION_CONTEXT('2D SPACE',''
  ) );
#71 = ORIENTED_EDGE('',*,*,#72,.T.);
#72 = EDGE_CURVE('',#24,#73,#75,.T.);
#73 = VERTEX_POINT('',#74);
#74 = CARTESIAN_POINT('',(1.,6.25E-02,0.));
#75 = SURFACE_CURVE('',#76,(#80),.PCURVE_S1.);
#76 = LINE('',#77,#78);
#77 = CARTESIAN_POINT('',(1.,-0.,0.));
#78 = VECTOR('',#79,1.);
#79 = DIRECTION('',(0.,1.,0.));
#80 = PCURVE('',#46,#81);
#81 = DEFINITIONAL_REPRESENTATION('',(#82),#86);
#82 = LINE('',#83,#84);
#83 = CARTESIAN_POINT('',(0.499911875958,-3.125E-02));
#84 = VECTOR('',#85,1.);
#85 = DIRECTION('',(0.,1.));
#86 = ( GEOMETRIC_REPRESENTATION_CONTEXT(2) 
PARAMETRIC_REPRESENTATION_CONTEXT() REPRESENTATION_CONTEXT('2D SPACE',''
  ) );
#87 = ORIENTED_EDGE('',*,*,#88,.T.);
#88 = EDGE_CURVE('',#73,#89,#91,.T.);
#89 = VERTEX_POINT('',#90);
#90 = CARTESIAN_POINT('',(0.,6.25E-02,0.));
#91 = SURFACE_CURVE('',#92,(#110),.PCURVE_S1.);
#92 = B_SPLINE_CURVE_WITH_KNOTS('',1,(#93,#94,#95,#96,#97,#98,#99,#100,
    #101,#102,#103,#104,#105,#106,#107,#108,#109),.UNSPECIFIED.,.F.,.F.,
  (2,1,1,1,1,1,1,1,1,1,1,1,1,1,1,1,2),(0.,2.245930674898E-02,
    5.09399555077E-02,0.116095050707,0.172101820298,0.204942913096,
    0.235864250579,0.316800469993,0.613670314798,0.635346197076,
    0.737216836632,0.766127659075,0.785873053108,0.834352877015,
    0.905386395117,0.922770370583,1.),.UNSPECIFIED.);
#93 = CARTESIAN_POINT('',(1.,6.25E-02,0.));
#94 = CARTESIAN_POINT('',(0.977653164624,6.538147186792E-02,0.));
#95 = CARTESIAN_POINT('',(0.949991915036,5.8222523513E-02,0.));
#96 = CARTESIAN_POINT('',(0.884684620462,6.098096147269E-02,0.));
#97 = CARTESIAN_POINT('',(0.828557774964,6.359428902082E-02,0.));
#98 = CARTESIAN_POINT('',(0.795639644101,6.497700321564E-02,0.));
#99 = CARTESIAN_POINT('',(0.764696416971,6.277888624132E-02,0.));
#100 = CARTESIAN_POINT('',(0.683539502756,6.534950164527E-02,0.));
#101 = CARTESIAN_POINT('',(0.38573582874,6.149383527336E-02,0.));
#102 = CARTESIAN_POINT('',(0.36438291942,6.560928254121E-02,0.));
#103 = CARTESIAN_POINT('',(0.262191027086,6.6868229559E-02,0.));
#104 = CARTESIAN_POINT('',(0.233715042211,6.135809495478E-02,0.));
#105 = CARTESIAN_POINT('',(0.214029565643,6.356830441224E-02,0.));
#106 = CARTESIAN_POINT('',(0.165551047234,6.748396241375E-02,0.));
#107 = CARTESIAN_POINT('',(9.480864439841E-02,5.888640923616E-02,0.));
#108 = CARTESIAN_POINT('',(7.745666784588E-02,6.063760498187E-02,0.));
#109 = CARTESIAN_POINT('',(0.,6.25E-02,0.));
#110 = PCURVE('',#46,#111);
#111 = DEFINITIONAL_REPRESENTATION('',(#112),#130);
#112 = B_SPLINE_CURVE_WITH_KNOTS('',1,(#113,#114,#115,#116,#117,#118,
    #119,#120,#121,#122,#123,#124,#125,#126,#127,#128,#129),
  .UNSPECIFIED.,.F.,.F.,(2,1,1,1,1,1,1,1,1,1,1,1,1,1,1,1,2),(0.,
    2.245930674898E-02,5.09399555077E-02,0.116095050707,0.172101820298,
    0.204942913096,0.235864250579,0.316800469993,0.613670314798,
    0.635346197076,0.737216836632,0.766127659075,0.785873053108,
    0.834352877015,0.905386395117,0.922770370583,1.),.UNSPECIFIED.);
#113 = CARTESIAN_POINT('',(0.499911875958,3.125E-02));
#114 = CARTESIAN_POINT('',(0.477565040582,3.413147186792E-02));
#115 = CARTESIAN_POINT('',(0.449903790994,2.6972523513E-02));
#116 = CARTESIAN_POINT('',(0.38459649642,2.973096147269E-02));
#117 = CARTESIAN_POINT('',(0.328469650922,3.234428902082E-02));
#118 = CARTESIAN_POINT('',(0.295551520059,3.372700321564E-02));
#119 = CARTESIAN_POINT('',(0.26460829293,3.152888624132E-02));
#120 = CARTESIAN_POINT('',(0.183451378714,3.409950164527E-02));
#121 = CARTESIAN_POINT('',(-0.114352295302,3.024383527336E-02));
#122 = CARTESIAN_POINT('',(-0.135705204622,3.435928254121E-02));
#123 = CARTESIAN_POINT('',(-0.237897096956,3.5618229559E-02));
#124 = CARTESIAN_POINT('',(-0.266373081831,3.010809495478E-02));
#125 = CARTESIAN_POINT('',(-0.286058558398,3.231830441224E-02));
#126 = CARTESIAN_POINT('',(-0.334537076808,3.623396241375E-02));
#127 = CARTESIAN_POINT('',(-0.405279479643,2.763640923616E-02));
#128 = CARTESIAN_POINT('',(-0.422631456196,2.938760498187E-02));
#129 = CARTESIAN_POINT('',(-0.500088124042,3.125E-02));
#130 = ( GEOMETRIC_REPRESENTATION_CONTEXT(2) 
PARAMETRIC_REPRESENTATION_CONTEXT() REPRESENTATION_CONTEXT('2D SPACE',''
  ) );
#131 = ORIENTED_EDGE('',*,*,#132,.T.);
#132 = EDGE_CURVE('',#89,#22,#133,.T.);
#133 = SURFACE_CURVE('',#134,(#138),.PCURVE_S1.);
#134 = LINE('',#135,#136);
#135 = CARTESIAN_POINT('',(0.,6.25E-02,0.));
#136 = VECTOR('',#137,1.);
#137 = DIRECTION('',(0.,-1.,0.));
#138 = PCURVE('',#46,#139);
#139 = DEFINITIONAL_REPRESENTATION('',(#140),#144);
#140 = LINE('',#141,#142);
#141 = CARTESIAN_POINT('',(-0.500088124042,3.125E-02));
#142 = VECTOR('',#143,1.);
#143 = DIRECTION('',(0.,-1.));
#144 = ( GEOMETRIC_REPRESENTATION_CONTEXT(2) 
PARAMETRIC_REPRESENTATION_CONTEXT() REPRESENTATION_CONTEXT('2D SPACE',''
  ) );
#145 = ( GEOMETRIC_REPRESENTATION_CONTEXT(3) 
GLOBAL_UNCERTAINTY_ASSIGNED_CONTEXT((#149)) GLOBAL_UNIT_ASSIGNED_CONTEXT
((#146,#147,#148)) REPRESENTATION_CONTEXT('Context #1',
  '3D Context with UNIT and UNCERTAINTY') );
#146 = ( LENGTH_UNIT() NAMED_UNIT(*) SI_UNIT(.MILLI.,.METRE.) );
#147 = ( NAMED_UNIT(*) PLANE_ANGLE_UNIT() SI_UNIT($,.RADIAN.) );
#148 = ( NAMED_UNIT(*) SI_UNIT($,.STERADIAN.) SOLID_ANGLE_UNIT() );
#149 = UNCERTAINTY_MEASURE_WITH_UNIT(LENGTH_MEASURE(1.E-07),#146,
  'distance_accuracy_value','confusion accuracy');
#150 = PRODUCT_RELATED_PRODUCT_CATEGORY('part',$,(#7));
ENDSEC;
END-ISO-10303-21;
