ISO-10303-21;
HEADER;
FILE_DESCRIPTION(('Open CASCADE Model'),'2;1');
FILE_NAME('Open CASCADE Shape Model','2026-08-17T20:30:04',('Author'),(
    'Open CASCADE'),'Open CASCADE STEP processor 7.9','Open CASCADE 7.9'
  ,'Unknown');
FILE_SCHEMA(('AUTOMOTIVE_DESIGN { 1 0 10303 214 1 1 1 1 }'));
ENDSEC;
DATA;
#1 = APPLICATION_PROTOCOL_DEFINITION('international standard',
  'automotive_design',2000,#2);
#2 = APPLICATION_CONTEXT(
  'core data for automotive mechanical design processes');
#3 = SHAPE_DEFINITION_REPRESENTATION(#4,#10);
#4 = PRODUCT_DEFINITION_SHAPE('','',#5);
#5 = PRODUCT_DEFINITION('design','',#6,#9);
#6 = PRODUCT_DEFINITION_FORMATION('','',#7);
#7 = PRODUCT('Open CASCADE STEP translator 7.9 41',
  'Open CASCADE STEP translator 7.9 41','',(#8));
#8 = PRODUCT_CONTEXT('',#2,'mechanical');
#9 = PRODUCT_DEFINITION_CONTEXT('part definition',#2,'design');
#10 = MANIFOLD_SURFACE_SHAPE_REPRESENTATION('',(#11,#15),#145);
#11 = AXIS2_PLACEMENT_3D('',#12,#13,#14);
#12 = CARTESIAN_POINT('',(0.,0.,0.));
#13 = DIRECTION('',(0.,0.,1.));
#14 = DIRECTION('',(1.,0.,-0.));
#15 = SHELL_BASED_SURFACE_MODEL('',(#16));
#16 = OPEN_SHELL('',(#17));
#17 = ADVANCED_FACE('',(#18),#46,.T.);
#18 = FACE_BOUND('',#19,.T.);
#19 = EDGE_LOOP('',(#20,#71,#87,#131));
#20 = ORIENTED_EDGE('',*,*,#21,.T.);
#21 = EDGE_CURVE('',#22,#24,#26,.T.);
#22 = VERTEX_POINT('',#23);
#23 = CARTESIAN_POINT('',(0.,0.,0.));
#24 = VERTEX_POINT('',#25);
#25 = CARTESIAN_POINT('',(1.,0.,0.));
#26 = SURFACE_CURVE('',#27,(#45),.PCURVE_S1.);
#27 = B_SPLINE_CURVE_WITH_KNOTS('',1,(#28,#29,#30,#31,#32,#33,#34,#35,
    #36,#37,#38,#39,#40,#41,#42,#43,#44),.UNSPECIFIED.,.F.,.F.,(2,1,1,1,
    1,1,1,1,1,1,1,1,1,1,1,1,2),(0.,3.376527855101E-02,9.078216953537E-02
    ,0.12728478113,0.183901869518,0.410477462351,0.426263070699,
    0.459091058554,0.589207222791,0.639378528904,0.686097788038,
    0.712257750704,0.747302047008,0.80576486353,0.907798069068,
    0.972882563124,1.),.UNSPECIFIED.);
#28 = CARTESIAN_POINT('',(0.,-0.,0.));
#29 = CARTESIAN_POINT('',(3.379371749304E-02,-1.739448342273E-03,0.));
#30 = CARTESIAN_POINT('',(9.085051629575E-02,-4.83035018564E-03,0.));
#31 = CARTESIAN_POINT('',(0.127365032248,-2.613961915757E-03,0.));
#32 = CARTESIAN_POINT('',(0.183718910208,3.992407137837E-03,0.));
#33 = CARTESIAN_POINT('',(0.410781366925,2.616020163648E-03,0.));
#34 = CARTESIAN_POINT('',(0.426559519048,3.763446881636E-03,0.));
#35 = CARTESIAN_POINT('',(0.459441570598,4.823458375172E-03,0.));
#36 = CARTESIAN_POINT('',(0.589782227901,9.516082544246E-04,0.));
#37 = CARTESIAN_POINT('',(0.640032159318,2.691312005758E-03,0.));
#38 = CARTESIAN_POINT('',(0.686335526785,-4.248302622773E-03,0.));
#39 = CARTESIAN_POINT('',(0.712552166154,-4.278391151781E-03,0.));
#40 = CARTESIAN_POINT('',(0.747671437837,-4.016999377475E-03,0.));
#41 = CARTESIAN_POINT('',(0.80588945823,2.5703859693E-03,0.));
#42 = CARTESIAN_POINT('',(0.908111982205,2.007956712585E-05,0.));
#43 = CARTESIAN_POINT('',(0.973187992012,4.43422981746E-03,0.));
#44 = CARTESIAN_POINT('',(1.,-0.,0.));
#45 = PCURVE('',#46,#51);
#46 = PLANE('',#47);
#47 = AXIS2_PLACEMENT_3D('',#48,#49,#50);
#48 = CARTESIAN_POINT('',(0.500210528165,3.125E-02,0.));
#49 = DIRECTION('',(0.,0.,1.));
#50 = DIRECTION('',(1.,0.,-0.));
#51 = DEFINITIONAL_REPRESENTATION('',(#52),#70);
#52 = B_SPLINE_CURVE_WITH_KNOTS('',1,(#53,#54,#55,#56,#57,#58,#59,#60,
    #61,#62,#63,#64,#65,#66,#67,#68,#69),.UNSPECIFIED.,.F.,.F.,(2,1,1,1,
    1,1,1,1,1,1,1,1,1,1,1,1,2),(0.,3.376527855101E-02,9.078216953537E-02
    ,0.12728478113,0.183901869518,0.410477462351,0.426263070699,
    0.459091058554,0.589207222791,0.639378528904,0.686097788038,
    0.712257750704,0.747302047008,0.80576486353,0.907798069068,
    0.972882563124,1.),.UNSPECIFIED.);
#53 = CARTESIAN_POINT('',(-0.500210528165,-3.125E-02));
#54 = CARTESIAN_POINT('',(-0.466416810672,-3.298944834227E-02));
#55 = CARTESIAN_POINT('',(-0.409360011869,-3.608035018564E-02));
#56 = CARTESIAN_POINT('',(-0.372845495917,-3.386396191576E-02));
#57 = CARTESIAN_POINT('',(-0.316491617957,-2.725759286216E-02));
#58 = CARTESIAN_POINT('',(-8.942916123985E-02,-2.863397983635E-02));
#59 = CARTESIAN_POINT('',(-7.365100911681E-02,-2.748655311836E-02));
#60 = CARTESIAN_POINT('',(-4.076895756652E-02,-2.642654162483E-02));
#61 = CARTESIAN_POINT('',(8.957169973611E-02,-3.029839174558E-02));
#62 = CARTESIAN_POINT('',(0.139821631153,-2.855868799424E-02));
#63 = CARTESIAN_POINT('',(0.18612499862,-3.549830262277E-02));
#64 = CARTESIAN_POINT('',(0.212341637989,-3.552839115178E-02));
#65 = CARTESIAN_POINT('',(0.247460909672,-3.526699937748E-02));
#66 = CARTESIAN_POINT('',(0.305678930065,-2.86796140307E-02));
#67 = CARTESIAN_POINT('',(0.40790145404,-3.122992043287E-02));
#68 = CARTESIAN_POINT('',(0.472977463847,-2.681577018254E-02));
#69 = CARTESIAN_POINT('',(0.499789471835,-3.125E-02));
#70 = ( GEOMETRIC_REPRESENTATION_CONTEXT(2) 
PARAMETRIC_REPRESENTATION_CONTEXT() REPRESENTATION_CONTEXT('2D SPACE',''
  ) );
#71 = ORIENTED_EDGE('',*,*,#72,.T.);
#72 = EDGE_CURVE('',#24,#73,#75,.T.);
#73 = VERTEX_POINT('',#74);
#74 = CARTESIAN_POINT('',(1.,6.25E-02,0.));
#75 = SURFACE_CURVE('',#76,(#80),.PCURVE_S1.);
#76 = LINE('',#77,#78);
#77 = CARTESIAN_POINT('',(1.,-0.,0.));
#78 = VECTOR('',#79,1.);
#79 = DIRECTION('',(0.,1.,0.));
#80 = PCURVE('',#46,#81);
#81 = DEFINITIONAL_REPRESENTATION('',(#82),#86);
#82 = LINE('',#83,#84);
#83 = CARTESIAN_POINT('',(0.499789471835,-3.125E-02));
#84 = VECTOR('',#85,1.);
#85 = DIRECTION('',(0.,1.));
#86 = ( GEOMETRIC_REPRESENTATION_CONTEXT(2) 
PARAMETRIC_REPRESENTATION_CONTEXT() REPRESENTATION_CONTEXT('2D SPACE',''
  ) );
#87 = ORIENTED_EDGE('',*,*,#88,.T.);
#88 = EDGE_CURVE('',#73,#89,#91,.T.);
#89 = VERTEX_POINT('',#90);
#90 = CARTESIAN_POINT('',(0.,6.25E-02,0.));
#91 = SURFACE_CURVE('',#92,(#110),.PCURVE_S1.);
#92 = B_SPLINE_CURVE_WITH_KNOTS('',1,(#93,#94,#95,#96,#97,#98,#99,#100,
    #101,#102,#103,#104,#105,#106,#107,#108,#109),.UNSPECIFIED.,.F.,.F.,
  (2,1,1,1,1,1,1,1,1,1,1,1,1,1,1,1,2),(0.,2.711743687607E-02,
    9.220193093228E-02,0.19423513647,0.252697952992,0.287742249296,
    0.313902211962,0.360621471096,0.410792777209,0.540908941446,
    0.573736929301,0.589522537649,0.816098130482,0.87271521887,
    0.909217830465,0.966234721449,1.),.UNSPECIFIED.);
#93 = CARTESIAN_POINT('',(1.,6.25E-02,0.));
#94 = CARTESIAN_POINT('',(0.973187992012,5.806577018254E-02,0.));
#95 = CARTESIAN_POINT('',(0.908111982205,6.247992043287E-02,0.));
#96 = CARTESIAN_POINT('',(0.80588945823,5.99296140307E-02,0.));
#97 = CARTESIAN_POINT('',(0.747671437837,6.651699937748E-02,0.));
#98 = CARTESIAN_POINT('',(0.712552166154,6.677839115178E-02,0.));
#99 = CARTESIAN_POINT('',(0.686335526785,6.674830262277E-02,0.));
#100 = CARTESIAN_POINT('',(0.640032159318,5.980868799424E-02,0.));
#101 = CARTESIAN_POINT('',(0.589782227901,6.154839174558E-02,0.));
#102 = CARTESIAN_POINT('',(0.459441570598,5.767654162483E-02,0.));
#103 = CARTESIAN_POINT('',(0.426559519048,5.873655311836E-02,0.));
#104 = CARTESIAN_POINT('',(0.410781366925,5.988397983635E-02,0.));
#105 = CARTESIAN_POINT('',(0.183718910208,5.850759286216E-02,0.));
#106 = CARTESIAN_POINT('',(0.127365032248,6.511396191576E-02,0.));
#107 = CARTESIAN_POINT('',(9.085051629575E-02,6.733035018564E-02,0.));
#108 = CARTESIAN_POINT('',(3.379371749304E-02,6.423944834227E-02,0.));
#109 = CARTESIAN_POINT('',(0.,6.25E-02,0.));
#110 = PCURVE('',#46,#111);
#111 = DEFINITIONAL_REPRESENTATION('',(#112),#130);
#112 = B_SPLINE_CURVE_WITH_KNOTS('',1,(#113,#114,#115,#116,#117,#118,
    #119,#120,#121,#122,#123,#124,#125,#126,#127,#128,#129),
  .UNSPECIFIED.,.F.,.F.,(2,1,1,1,1,1,1,1,1,1,1,1,1,1,1,1,2),(0.,
    2.711743687607E-02,9.220193093228E-02,0.19423513647,0.252697952992,
    0.287742249296,0.313902211962,0.360621471096,0.410792777209,
    0.540908941446,0.573736929301,0.589522537649,0.816098130482,
    0.87271521887,0.909217830465,0.966234721449,1.),.UNSPECIFIED.);
#113 = CARTESIAN_POINT('',(0.499789471835,3.125E-02));
#114 = CARTESIAN_POINT('',(0.472977463847,2.681577018254E-02));
#115 = CARTESIAN_POINT('',(0.40790145404,3.122992043287E-02));
#116 = CARTESIAN_POINT('',(0.305678930065,2.86796140307E-02));
#117 = CARTESIAN_POINT('',(0.247460909672,3.526699937748E-02));
#118 = CARTESIAN_POINT('',(0.212341637989,3.552839115178E-02));
#119 = CARTESIAN_POINT('',(0.18612499862,3.549830262277E-02));
#120 = CARTESIAN_POINT('',(0.139821631153,2.855868799424E-02));
#121 = CARTESIAN_POINT('',(8.957169973611E-02,3.029839174558E-02));
#122 = CARTESIAN_POINT('',(-4.076895756652E-02,2.642654162483E-02));
#123 = CARTESIAN_POINT('',(-7.365100911681E-02,2.748655311836E-02));
#124 = CARTESIAN_POINT('',(-8.942916123985E-02,2.863397983635E-02));
#125 = CARTESIAN_POINT('',(-0.316491617957,2.725759286216E-02));
#126 = CARTESIAN_POINT('',(-0.372845495917,3.386396191576E-02));
#127 = CARTESIAN_POINT('',(-0.409360011869,3.608035018564E-02));
#128 = CARTESIAN_POINT('',(-0.466416810672,3.298944834227E-02));
#129 = CARTESIAN_POINT('',(-0.500210528165,3.125E-02));
#130 = ( GEOMETRIC_REPRESENTATION_CONTEXT(2) 
PARAMETRIC_REPRESENTATION_CONTEXT() REPRESENTATION_CONTEXT('2D SPACE',''
  ) );
#131 = ORIENTED_EDGE('',*,*,#132,.T.);
#132 = EDGE_CURVE('',#89,#22,#133,.T.);
#133 = SURFACE_CURVE('',#134,(#138),.PCURVE_S1.);
#134 = LINE('',#135,#136);
#135 = CARTESIAN_POINT('',(0.,6.25E-02,0.));
#136 = VECTOR('',#137,1.);
#137 = DIRECTION('',(0.,-1.,0.));
#138 = PCURVE('',#46,#139);
#139 = DEFINITIONAL_REPRESENTATION('',(#140),#144);
#140 = LINE('',#141,#142);
#141 = CARTESIAN_POINT('',(-0.500210528165,3.125E-02));
#142 = VECTOR('',#143,1.);
#143 = DIRECTION('',(0.,-1.));
#144 = ( GEOMETRIC_REPRESENTATION_CONTEXT(2) 
PARAMETRIC_REPRESENTATION_CONTEXT() REPRESENTATION_CONTEXT('2D SPACE',''
  ) );
#145 = ( GEOMETRIC_REPRESENTATION_CONTEXT(3) 
GLOBAL_UNCERTAINTY_ASSIGNED_CONTEXT((#149)) GLOBAL_UNIT_ASSIGNED_CONTEXT
((#146,#147,#148)) REPRESENTATION_CONTEXT('Context #1',
  '3D Context with UNIT and UNCERTAINTY') );
#146 = ( LENGTH_UNIT() NAMED_UNIT(*) SI_UNIT(.MILLI.,.METRE.) );
#147 = ( NAMED_UNIT(*) PLANE_ANGLE_UNIT() SI_UNIT($,.RADIAN.) );
#148 = ( NAMED_UNIT(*) SI_UNIT($,.STERADIAN.) SOLID_ANGLE_UNIT() );
#149 = UNCERTAINTY_MEASURE_WITH_UNIT(LENGTH_MEASURE(1.E-07),#146,
  'distance_accuracy_value','confusion accuracy');
#150 = PRODUCT_RELATED_PRODUCT_CATEGORY('part',$,(#7));
ENDSEC;
END-ISO-10303-21;
