ISO-10303-21;
HEADER;
FILE_DESCRIPTION(('Open CASCADE Model'),'2;1');
FILE_NAME('Open CASCADE Shape Model','2026-08-17T20:30:04',('Author'),(
    'Open CASCADE'),'Open CASCADE STEP processor 7.9','Open CASCADE 7.9'
  ,'Unknown');
FILE_SCHEMA(('AUTOMOTIVE_DESIGN { 1 0 10303 214 1 1 1 1 }'));
ENDSEC;
DATA;
#1 = APPLICATION_PROTOCOL_DEFINITION('international standard',
  'automotive_design',2000,#2);
#2 = APPLICATION_CONTEXT(
  'core data for automotive mechanical design processes');
#3 = SHAPE_DEFINITION_REPRESENTATION(#4,#10);
#4 = PRODUCT_DEFINITION_SHAPE('','',#5);
#5 = PRODUCT_DEFINITION('design','',#6,#9);
#6 = PRODUCT_DEFINITION_FORMATION('','',#7);
#7 = PRODUCT('Open CASCADE STEP translator 7.9 48',
  'Open CASCADE STEP translator 7.9 48','',(#8));
#8 = PRODUCT_CONTEXT('',#2,'mechanical');
#9 = PRODUCT_DEFINITION_CONTEXT('part definition',#2,'design');
#10 = MANIFOLD_SURFACE_SHAPE_REPRESENTATION('',(#11,#15),#145);
#11 = AXIS2_PLACEMENT_3D('',#12,#13,#14);
#12 = CARTESIAN_POINT('',(0.,0.,0.));
#13 = DIRECTION('',(0.,0.,1.));
#14 = DIRECTION('',(1.,0.,-0.));
#15 = SHELL_BASED_SURFACE_MODEL('',(#16));
#16 = OPEN_SHELL('',(#17));
#17 = ADVANCED_FACE('',(#18),#46,.T.);
#18 = FACE_BOUND('',#19,.T.);
#19 = EDGE_LOOP('',(#20,#71,#87,#131));
#20 = ORIENTED_EDGE('',*,*,#21,.T.);
#21 = EDGE_CURVE('',#22,#24,#26,.T.);
#22 = VERTEX_POINT('',#23);
#23 = CARTESIAN_POINT('',(0.,0.,0.));
#24 = VERTEX_POINT('',#25);
#25 = CARTESIAN_POINT('',(1.,0.,0.));
#26 = SURFACE_CURVE('',#27,(#45),.PCURVE_S1.);
#27 = B_SPLINE_CURVE_WITH_KNOTS('',1,(#28,#29,#30,#31,#32,#33,#34,#35,
    #36,#37,#38,#39,#40,#41,#42,#43,#44),.UNSPECIFIED.,.F.,.F.,(2,1,1,1,
    1,1,1,1,1,1,1,1,1,1,1,1,2),(0.,6.483678394941E-02,8.128169220032E-02
    ,0.189679442035,0.219243453011,0.309762703575,0.323850764672,
    0.376974601512,0.61469916741,0.726166548331,0.745370030836,
    0.821218362792,0.89344179602,0.920612276489,0.955129050026,
    0.974143553056,1.),.UNSPECIFIED.);
#28 = CARTESIAN_POINT('',(0.,-0.,0.));
#29 = CARTESIAN_POINT('',(6.502994308856E-02,4.080656347508E-03,0.));
#30 = CARTESIAN_POINT('',(7.885318487957E-02,-4.976824290933E-03,0.));
#31 = CARTESIAN_POINT('',(0.187765945866,-2.799443741356E-03,0.));
#32 = CARTESIAN_POINT('',(0.217462047979,-3.721349244432E-03,0.));
#33 = CARTESIAN_POINT('',(0.308161294762,3.259429261897E-03,0.));
#34 = CARTESIAN_POINT('',(0.322234862752,1.717140388753E-03,0.));
#35 = CARTESIAN_POINT('',(0.375621102097,1.982812199684E-03,0.));
#36 = CARTESIAN_POINT('',(0.614519433909,3.261245064506E-03,0.));
#37 = CARTESIAN_POINT('',(0.726255061725,-4.706531968685E-03,0.));
#38 = CARTESIAN_POINT('',(0.745543738581,-4.088483152142E-03,0.));
#39 = CARTESIAN_POINT('',(0.821751840852,-2.535468293821E-03,0.));
#40 = CARTESIAN_POINT('',(0.894331823622,-2.137116741235E-03,0.));
#41 = CARTESIAN_POINT('',(0.921265867603,2.348605889354E-03,0.));
#42 = CARTESIAN_POINT('',(0.955626136951,-2.406202890188E-03,0.));
#43 = CARTESIAN_POINT('',(0.974124987259,2.382685843514E-03,0.));
#44 = CARTESIAN_POINT('',(1.,-0.,0.));
#45 = PCURVE('',#46,#51);
#46 = PLANE('',#47);
#47 = AXIS2_PLACEMENT_3D('',#48,#49,#50);
#48 = CARTESIAN_POINT('',(0.499418038292,3.125E-02,0.));
#49 = DIRECTION('',(0.,0.,1.));
#50 = DIRECTION('',(1.,0.,-0.));
#51 = DEFINITIONAL_REPRESENTATION('',(#52),#70);
#52 = B_SPLINE_CURVE_WITH_KNOTS('',1,(#53,#54,#55,#56,#57,#58,#59,#60,
    #61,#62,#63,#64,#65,#66,#67,#68,#69),.UNSPECIFIED.,.F.,.F.,(2,1,1,1,
    1,1,1,1,1,1,1,1,1,1,1,1,2),(0.,6.483678394941E-02,8.128169220032E-02
    ,0.189679442035,0.219243453011,0.309762703575,0.323850764672,
    0.376974601512,0.61469916741,0.726166548331,0.745370030836,
    0.821218362792,0.89344179602,0.920612276489,0.955129050026,
    0.974143553056,1.),.UNSPECIFIED.);
#53 = CARTESIAN_POINT('',(-0.499418038292,-3.125E-02));
#54 = CARTESIAN_POINT('',(-0.434388095203,-2.716934365249E-02));
#55 = CARTESIAN_POINT('',(-0.420564853412,-3.622682429093E-02));
#56 = CARTESIAN_POINT('',(-0.311652092426,-3.404944374136E-02));
#57 = CARTESIAN_POINT('',(-0.281955990313,-3.497134924443E-02));
#58 = CARTESIAN_POINT('',(-0.19125674353,-2.79905707381E-02));
#59 = CARTESIAN_POINT('',(-0.17718317554,-2.953285961125E-02));
#60 = CARTESIAN_POINT('',(-0.123796936195,-2.926718780032E-02));
#61 = CARTESIAN_POINT('',(0.115101395617,-2.798875493549E-02));
#62 = CARTESIAN_POINT('',(0.226837023433,-3.595653196868E-02));
#63 = CARTESIAN_POINT('',(0.246125700289,-3.533848315214E-02));
#64 = CARTESIAN_POINT('',(0.32233380256,-3.378546829382E-02));
#65 = CARTESIAN_POINT('',(0.39491378533,-3.338711674124E-02));
#66 = CARTESIAN_POINT('',(0.421847829311,-2.890139411065E-02));
#67 = CARTESIAN_POINT('',(0.456208098659,-3.365620289019E-02));
#68 = CARTESIAN_POINT('',(0.474706948967,-2.886731415649E-02));
#69 = CARTESIAN_POINT('',(0.500581961708,-3.125E-02));
#70 = ( GEOMETRIC_REPRESENTATION_CONTEXT(2) 
PARAMETRIC_REPRESENTATION_CONTEXT() REPRESENTATION_CONTEXT('2D SPACE',''
  ) );
#71 = ORIENTED_EDGE('',*,*,#72,.T.);
#72 = EDGE_CURVE('',#24,#73,#75,.T.);
#73 = VERTEX_POINT('',#74);
#74 = CARTESIAN_POINT('',(1.,6.25E-02,0.));
#75 = SURFACE_CURVE('',#76,(#80),.PCURVE_S1.);
#76 = LINE('',#77,#78);
#77 = CARTESIAN_POINT('',(1.,-0.,0.));
#78 = VECTOR('',#79,1.);
#79 = DIRECTION('',(0.,1.,0.));
#80 = PCURVE('',#46,#81);
#81 = DEFINITIONAL_REPRESENTATION('',(#82),#86);
#82 = LINE('',#83,#84);
#83 = CARTESIAN_POINT('',(0.500581961708,-3.125E-02));
#84 = VECTOR('',#85,1.);
#85 = DIRECTION('',(0.,1.));
#86 = ( GEOMETRIC_REPRESENTATION_CONTEXT(2) 
PARAMETRIC_REPRESENTATION_CONTEXT() REPRESENTATION_CONTEXT('2D SPACE',''
  ) );
#87 = ORIENTED_EDGE('',*,*,#88,.T.);
#88 = EDGE_CURVE('',#73,#89,#91,.T.);
#89 = VERTEX_POINT('',#90);
#90 = CARTESIAN_POINT('',(0.,6.25E-02,0.));
#91 = SURFACE_CURVE('',#92,(#110),.PCURVE_S1.);
#92 = B_SPLINE_CURVE_WITH_KNOTS('',1,(#93,#94,#95,#96,#97,#98,#99,#100,
    #101,#102,#103,#104,#105,#106,#107,#108,#109),.UNSPECIFIED.,.F.,.F.,
  (2,1,1,1,1,1,1,1,1,1,1,1,1,1,1,1,2),(0.,2.585644694376E-02,
    4.487094997428E-02,7.938772351087E-02,0.10655820398,0.178781637208,
    0.254629969164,0.273833451669,0.38530083259,0.623025398488,
    0.676149235328,0.690237296425,0.780756546989,0.810320557965,
    0.9187183078,0.935163216051,1.),.UNSPECIFIED.);
#93 = CARTESIAN_POINT('',(1.,6.25E-02,0.));
#94 = CARTESIAN_POINT('',(0.974124987259,6.011731415649E-02,0.));
#95 = CARTESIAN_POINT('',(0.955626136951,6.490620289019E-02,0.));
#96 = CARTESIAN_POINT('',(0.921265867603,6.015139411065E-02,0.));
#97 = CARTESIAN_POINT('',(0.894331823622,6.463711674124E-02,0.));
#98 = CARTESIAN_POINT('',(0.821751840852,6.503546829382E-02,0.));
#99 = CARTESIAN_POINT('',(0.745543738581,6.658848315214E-02,0.));
#100 = CARTESIAN_POINT('',(0.726255061725,6.720653196868E-02,0.));
#101 = CARTESIAN_POINT('',(0.614519433909,5.923875493549E-02,0.));
#102 = CARTESIAN_POINT('',(0.375621102097,6.051718780032E-02,0.));
#103 = CARTESIAN_POINT('',(0.322234862752,6.078285961125E-02,0.));
#104 = CARTESIAN_POINT('',(0.308161294762,5.92405707381E-02,0.));
#105 = CARTESIAN_POINT('',(0.217462047979,6.622134924443E-02,0.));
#106 = CARTESIAN_POINT('',(0.187765945866,6.529944374136E-02,0.));
#107 = CARTESIAN_POINT('',(7.885318487957E-02,6.747682429093E-02,0.));
#108 = CARTESIAN_POINT('',(6.502994308856E-02,5.841934365249E-02,0.));
#109 = CARTESIAN_POINT('',(0.,6.25E-02,0.));
#110 = PCURVE('',#46,#111);
#111 = DEFINITIONAL_REPRESENTATION('',(#112),#130);
#112 = B_SPLINE_CURVE_WITH_KNOTS('',1,(#113,#114,#115,#116,#117,#118,
    #119,#120,#121,#122,#123,#124,#125,#126,#127,#128,#129),
  .UNSPECIFIED.,.F.,.F.,(2,1,1,1,1,1,1,1,1,1,1,1,1,1,1,1,2),(0.,
    2.585644694376E-02,4.487094997428E-02,7.938772351087E-02,
    0.10655820398,0.178781637208,0.254629969164,0.273833451669,
    0.38530083259,0.623025398488,0.676149235328,0.690237296425,
    0.780756546989,0.810320557965,0.9187183078,0.935163216051,1.),
  .UNSPECIFIED.);
#113 = CARTESIAN_POINT('',(0.500581961708,3.125E-02));
#114 = CARTESIAN_POINT('',(0.474706948967,2.886731415649E-02));
#115 = CARTESIAN_POINT('',(0.456208098659,3.365620289019E-02));
#116 = CARTESIAN_POINT('',(0.421847829311,2.890139411065E-02));
#117 = CARTESIAN_POINT('',(0.39491378533,3.338711674124E-02));
#118 = CARTESIAN_POINT('',(0.32233380256,3.378546829382E-02));
#119 = CARTESIAN_POINT('',(0.246125700289,3.533848315214E-02));
#120 = CARTESIAN_POINT('',(0.226837023433,3.595653196868E-02));
#121 = CARTESIAN_POINT('',(0.115101395617,2.798875493549E-02));
#122 = CARTESIAN_POINT('',(-0.123796936195,2.926718780032E-02));
#123 = CARTESIAN_POINT('',(-0.17718317554,2.953285961125E-02));
#124 = CARTESIAN_POINT('',(-0.19125674353,2.79905707381E-02));
#125 = CARTESIAN_POINT('',(-0.281955990313,3.497134924443E-02));
#126 = CARTESIAN_POINT('',(-0.311652092426,3.404944374136E-02));
#127 = CARTESIAN_POINT('',(-0.420564853412,3.622682429093E-02));
#128 = CARTESIAN_POINT('',(-0.434388095203,2.716934365249E-02));
#129 = CARTESIAN_POINT('',(-0.499418038292,3.125E-02));
#130 = ( GEOMETRIC_REPRESENTATION_CONTEXT(2) 
PARAMETRIC_REPRESENTATION_CONTEXT() REPRESENTATION_CONTEXT('2D SPACE',''
  ) );
#131 = ORIENTED_EDGE('',*,*,#132,.T.);
#132 = EDGE_CURVE('',#89,#22,#133,.T.);
#133 = SURFACE_CURVE('',#134,(#138),.PCURVE_S1.);
#134 = LINE('',#135,#136);
#135 = CARTESIAN_POINT('',(0.,6.25E-02,0.));
#136 = VECTOR('',#137,1.);
#137 = DIRECTION('',(0.,-1.,0.));
#138 = PCURVE('',#46,#139);
#139 = DEFINITIONAL_REPRESENTATION('',(#140),#144);
#140 = LINE('',#141,#142);
#141 = CARTESIAN_POINT('',(-0.499418038292,3.125E-02));
#142 = VECTOR('',#143,1.);
#143 = DIRECTION('',(0.,-1.));
#144 = ( GEOMETRIC_REPRESENTATION_CONTEXT(2) 
PARAMETRIC_REPRESENTATION_CONTEXT() REPRESENTATION_CONTEXT('2D SPACE',''
  ) );
#145 = ( GEOMETRIC_REPRESENTATION_CONTEXT(3) 
GLOBAL_UNCERTAINTY_ASSIGNED_CONTEXT((#149)) GLOBAL_UNIT_ASSIGNED_CONTEXT
((#146,#147,#148)) REPRESENTATION_CONTEXT('Context #1',
  '3D Context with UNIT and UNCERTAINTY') );
#146 = ( LENGTH_UNIT() NAMED_UNIT(*) SI_UNIT(.MILLI.,.METRE.) );
#147 = ( NAMED_UNIT(*) PLANE_ANGLE_UNIT() SI_UNIT($,.RADIAN.) );
#148 = ( NAMED_UNIT(*) SI_UNIT($,.STERADIAN.) SOLID_ANGLE_UNIT() );
#149 = UNCERTAINTY_MEASURE_WITH_UNIT(LENGTH_MEASURE(1.E-07),#146,
  'distance_accuracy_value','confusion accuracy');
#150 = PRODUCT_RELATED_PRODUCT_CATEGORY('part',$,(#7));
ENDSEC;
END-ISO-10303-21;
