ISO-10303-21;
HEADER;
FILE_DESCRIPTION(('Open CASCADE Model'),'2;1');
FILE_NAME('Open CASCADE Shape Model','2026-08-17T20:30:05',('Author'),(
    'Open CASCADE'),'Open CASCADE STEP processor 7.9','Open CASCADE 7.9'
  ,'Unknown');
FILE_SCHEMA(('AUTOMOTIVE_DESIGN { 1 0 10303 214 1 1 1 1 }'));
ENDSEC;
DATA;
#1 = APPLICATION_PROTOCOL_DEFINITION('international standard',
  'automotive_design',2000,#2);
#2 = APPLICATION_CONTEXT(
  'core data for automotive mechanical design processes');
#3 = SHAPE_DEFINITION_REPRESENTATION(#4,#10);
#4 = PRODUCT_DEFINITION_SHAPE('','',#5);
#5 = PRODUCT_DEFINITION('design','',#6,#9);
#6 = PRODUCT_DEFINITION_FORMATION('','',#7);
#7 = PRODUCT('Open CASCADE STEP translator 7.9 59',
  'Open CASCADE STEP translator 7.9 59','',(#8));
#8 = PRODUCT_CONTEXT('',#2,'mechanical');
#9 = PRODUCT_DEFINITION_CONTEXT('part definition',#2,'design');
#10 = MANIFOLD_SURFACE_SHAPE_REPRESENTATION('',(#11,#15),#145);
#11 = AXIS2_PLACEMENT_3D('',#12,#13,#14);
#12 = CARTESIAN_POINT('',(0.,0.,0.));
#13 = DIRECTION('',(0.,0.,1.));
#14 = DIRECTION('',(1.,0.,-0.));
#15 = SHELL_BASED_SURFACE_MODEL('',(#16));
#16 = OPEN_SHELL('',(#17));
#17 = ADVANCED_FACE('',(#18),#46,.T.);
#18 = FACE_BOUND('',#19,.T.);
#19 = EDGE_LOOP('',(#20,#71,#87,#131));
#20 = ORIENTED_EDGE('',*,*,#21,.T.);
#21 = EDGE_CURVE('',#22,#24,#26,.T.);
#22 = VERTEX_POINT('',#23);
#23 = CARTESIAN_POINT('',(0.,0.,0.));
#24 = VERTEX_POINT('',#25);
#25 = CARTESIAN_POINT('',(1.,0.,0.));
#26 = SURFACE_CURVE('',#27,(#45),.PCURVE_S1.);
#27 = B_SPLINE_CURVE_WITH_KNOTS('',1,(#28,#29,#30,#31,#32,#33,#34,#35,
    #36,#37,#38,#39,#40,#41,#42,#43,#44),.UNSPECIFIED.,.F.,.F.,(2,1,1,1,
    1,1,1,1,1,1,1,1,1,1,1,1,2),(0.,2.322857639215E-02,0.166569147203,
    0.221859921616,0.284023380819,0.365794355023,0.403269319674,
    0.452378665699,0.616811148079,0.640922676094,0.775802845657,
    0.806810773801,0.874804897333,0.909818236187,0.943572011651,
    0.970504637328,1.),.UNSPECIFIED.);
#28 = CARTESIAN_POINT('',(0.,-0.,0.));
#29 = CARTESIAN_POINT('',(2.282145234686E-02,4.750993605298E-03,0.));
#30 = CARTESIAN_POINT('',(0.166663466599,3.483829116849E-03,0.));
#31 = CARTESIAN_POINT('',(0.221820733827,-2.550308320641E-03,0.));
#32 = CARTESIAN_POINT('',(0.283995548072,2.546169513824E-03,0.));
#33 = CARTESIAN_POINT('',(0.365934057946,-1.921431034329E-03,0.));
#34 = CARTESIAN_POINT('',(0.403508000218,-3.510303622697E-03,0.));
#35 = CARTESIAN_POINT('',(0.452481363354,2.005971537196E-03,0.));
#36 = CARTESIAN_POINT('',(0.617486548775,3.722500038035E-03,0.));
#37 = CARTESIAN_POINT('',(0.641683170529,3.62569382733E-03,0.));
#38 = CARTESIAN_POINT('',(0.777036110718,4.708118500473E-03,0.));
#39 = CARTESIAN_POINT('',(0.807836492049,2.76174075768E-04,0.));
#40 = CARTESIAN_POINT('',(0.87605512252,1.753856078159E-03,0.));
#41 = CARTESIAN_POINT('',(0.910614849991,-4.590214365084E-03,0.));
#42 = CARTESIAN_POINT('',(0.943582698366,3.188768995042E-03,0.));
#43 = CARTESIAN_POINT('',(0.97040080701,-1.721813805437E-04,0.));
#44 = CARTESIAN_POINT('',(1.,-0.,0.));
#45 = PCURVE('',#46,#51);
#46 = PLANE('',#47);
#47 = AXIS2_PLACEMENT_3D('',#48,#49,#50);
#48 = CARTESIAN_POINT('',(0.500345627937,3.125E-02,0.));
#49 = DIRECTION('',(0.,0.,1.));
#50 = DIRECTION('',(1.,0.,-0.));
#51 = DEFINITIONAL_REPRESENTATION('',(#52),#70);
#52 = B_SPLINE_CURVE_WITH_KNOTS('',1,(#53,#54,#55,#56,#57,#58,#59,#60,
    #61,#62,#63,#64,#65,#66,#67,#68,#69),.UNSPECIFIED.,.F.,.F.,(2,1,1,1,
    1,1,1,1,1,1,1,1,1,1,1,1,2),(0.,2.322857639215E-02,0.166569147203,
    0.221859921616,0.284023380819,0.365794355023,0.403269319674,
    0.452378665699,0.616811148079,0.640922676094,0.775802845657,
    0.806810773801,0.874804897333,0.909818236187,0.943572011651,
    0.970504637328,1.),.UNSPECIFIED.);
#53 = CARTESIAN_POINT('',(-0.500345627937,-3.125E-02));
#54 = CARTESIAN_POINT('',(-0.47752417559,-2.64990063947E-02));
#55 = CARTESIAN_POINT('',(-0.333682161337,-2.776617088315E-02));
#56 = CARTESIAN_POINT('',(-0.278524894109,-3.380030832064E-02));
#57 = CARTESIAN_POINT('',(-0.216350079865,-2.870383048618E-02));
#58 = CARTESIAN_POINT('',(-0.134411569991,-3.317143103433E-02));
#59 = CARTESIAN_POINT('',(-9.683762771896E-02,-3.47603036227E-02));
#60 = CARTESIAN_POINT('',(-4.7864264583E-02,-2.92440284628E-02));
#61 = CARTESIAN_POINT('',(0.117140920838,-2.752749996196E-02));
#62 = CARTESIAN_POINT('',(0.141337542593,-2.762430617267E-02));
#63 = CARTESIAN_POINT('',(0.276690482782,-2.654188149953E-02));
#64 = CARTESIAN_POINT('',(0.307490864113,-3.097382592423E-02));
#65 = CARTESIAN_POINT('',(0.375709494584,-2.949614392184E-02));
#66 = CARTESIAN_POINT('',(0.410269222055,-3.584021436508E-02));
#67 = CARTESIAN_POINT('',(0.443237070429,-2.806123100496E-02));
#68 = CARTESIAN_POINT('',(0.470055179073,-3.142218138054E-02));
#69 = CARTESIAN_POINT('',(0.499654372063,-3.125E-02));
#70 = ( GEOMETRIC_REPRESENTATION_CONTEXT(2) 
PARAMETRIC_REPRESENTATION_CONTEXT() REPRESENTATION_CONTEXT('2D SPACE',''
  ) );
#71 = ORIENTED_EDGE('',*,*,#72,.T.);
#72 = EDGE_CURVE('',#24,#73,#75,.T.);
#73 = VERTEX_POINT('',#74);
#74 = CARTESIAN_POINT('',(1.,6.25E-02,0.));
#75 = SURFACE_CURVE('',#76,(#80),.PCURVE_S1.);
#76 = LINE('',#77,#78);
#77 = CARTESIAN_POINT('',(1.,-0.,0.));
#78 = VECTOR('',#79,1.);
#79 = DIRECTION('',(0.,1.,0.));
#80 = PCURVE('',#46,#81);
#81 = DEFINITIONAL_REPRESENTATION('',(#82),#86);
#82 = LINE('',#83,#84);
#83 = CARTESIAN_POINT('',(0.499654372063,-3.125E-02));
#84 = VECTOR('',#85,1.);
#85 = DIRECTION('',(0.,1.));
#86 = ( GEOMETRIC_REPRESENTATION_CONTEXT(2) 
PARAMETRIC_REPRESENTATION_CONTEXT() REPRESENTATION_CONTEXT('2D SPACE',''
  ) );
#87 = ORIENTED_EDGE('',*,*,#88,.T.);
#88 = EDGE_CURVE('',#73,#89,#91,.T.);
#89 = VERTEX_POINT('',#90);
#90 = CARTESIAN_POINT('',(0.,6.25E-02,0.));
#91 = SURFACE_CURVE('',#92,(#110),.PCURVE_S1.);
#92 = B_SPLINE_CURVE_WITH_KNOTS('',1,(#93,#94,#95,#96,#97,#98,#99,#100,
    #101,#102,#103,#104,#105,#106,#107,#108,#109),.UNSPECIFIED.,.F.,.F.,
  (2,1,1,1,1,1,1,1,1,1,1,1,1,1,1,1,2),(0.,2.949536267202E-02,
    5.642798834904E-02,9.018176381293E-02,0.125195102667,0.193189226199,
    0.224197154343,0.359077323906,0.383188851921,0.547621334301,
    0.596730680326,0.634205644977,0.715976619181,0.778140078384,
    0.833430852797,0.976771423608,1.),.UNSPECIFIED.);
#93 = CARTESIAN_POINT('',(1.,6.25E-02,0.));
#94 = CARTESIAN_POINT('',(0.97040080701,6.267218138054E-02,0.));
#95 = CARTESIAN_POINT('',(0.943582698366,5.931123100496E-02,0.));
#96 = CARTESIAN_POINT('',(0.910614849991,6.709021436508E-02,0.));
#97 = CARTESIAN_POINT('',(0.87605512252,6.074614392184E-02,0.));
#98 = CARTESIAN_POINT('',(0.807836492049,6.222382592423E-02,0.));
#99 = CARTESIAN_POINT('',(0.777036110718,5.779188149953E-02,0.));
#100 = CARTESIAN_POINT('',(0.641683170529,5.887430617267E-02,0.));
#101 = CARTESIAN_POINT('',(0.617486548775,5.877749996196E-02,0.));
#102 = CARTESIAN_POINT('',(0.452481363354,6.04940284628E-02,0.));
#103 = CARTESIAN_POINT('',(0.403508000218,6.60103036227E-02,0.));
#104 = CARTESIAN_POINT('',(0.365934057946,6.442143103433E-02,0.));
#105 = CARTESIAN_POINT('',(0.283995548072,5.995383048618E-02,0.));
#106 = CARTESIAN_POINT('',(0.221820733827,6.505030832064E-02,0.));
#107 = CARTESIAN_POINT('',(0.166663466599,5.901617088315E-02,0.));
#108 = CARTESIAN_POINT('',(2.282145234686E-02,5.77490063947E-02,0.));
#109 = CARTESIAN_POINT('',(0.,6.25E-02,0.));
#110 = PCURVE('',#46,#111);
#111 = DEFINITIONAL_REPRESENTATION('',(#112),#130);
#112 = B_SPLINE_CURVE_WITH_KNOTS('',1,(#113,#114,#115,#116,#117,#118,
    #119,#120,#121,#122,#123,#124,#125,#126,#127,#128,#129),
  .UNSPECIFIED.,.F.,.F.,(2,1,1,1,1,1,1,1,1,1,1,1,1,1,1,1,2),(0.,
    2.949536267202E-02,5.642798834904E-02,9.018176381293E-02,
    0.125195102667,0.193189226199,0.224197154343,0.359077323906,
    0.383188851921,0.547621334301,0.596730680326,0.634205644977,
    0.715976619181,0.778140078384,0.833430852797,0.976771423608,1.),
  .UNSPECIFIED.);
#113 = CARTESIAN_POINT('',(0.499654372063,3.125E-02));
#114 = CARTESIAN_POINT('',(0.470055179073,3.142218138054E-02));
#115 = CARTESIAN_POINT('',(0.443237070429,2.806123100496E-02));
#116 = CARTESIAN_POINT('',(0.410269222055,3.584021436508E-02));
#117 = CARTESIAN_POINT('',(0.375709494584,2.949614392184E-02));
#118 = CARTESIAN_POINT('',(0.307490864113,3.097382592423E-02));
#119 = CARTESIAN_POINT('',(0.276690482782,2.654188149953E-02));
#120 = CARTESIAN_POINT('',(0.141337542593,2.762430617267E-02));
#121 = CARTESIAN_POINT('',(0.117140920838,2.752749996196E-02));
#122 = CARTESIAN_POINT('',(-4.7864264583E-02,2.92440284628E-02));
#123 = CARTESIAN_POINT('',(-9.683762771896E-02,3.47603036227E-02));
#124 = CARTESIAN_POINT('',(-0.134411569991,3.317143103433E-02));
#125 = CARTESIAN_POINT('',(-0.216350079865,2.870383048618E-02));
#126 = CARTESIAN_POINT('',(-0.278524894109,3.380030832064E-02));
#127 = CARTESIAN_POINT('',(-0.333682161337,2.776617088315E-02));
#128 = CARTESIAN_POINT('',(-0.47752417559,2.64990063947E-02));
#129 = CARTESIAN_POINT('',(-0.500345627937,3.125E-02));
#130 = ( GEOMETRIC_REPRESENTATION_CONTEXT(2) 
PARAMETRIC_REPRESENTATION_CONTEXT() REPRESENTATION_CONTEXT('2D SPACE',''
  ) );
#131 = ORIENTED_EDGE('',*,*,#132,.T.);
#132 = EDGE_CURVE('',#89,#22,#133,.T.);
#133 = SURFACE_CURVE('',#134,(#138),.PCURVE_S1.);
#134 = LINE('',#135,#136);
#135 = CARTESIAN_POINT('',(0.,6.25E-02,0.));
#136 = VECTOR('',#137,1.);
#137 = DIRECTION('',(0.,-1.,0.));
#138 = PCURVE('',#46,#139);
#139 = DEFINITIONAL_REPRESENTATION('',(#140),#144);
#140 = LINE('',#141,#142);
#141 = CARTESIAN_POINT('',(-0.500345627937,3.125E-02));
#142 = VECTOR('',#143,1.);
#143 = DIRECTION('',(0.,-1.));
#144 = ( GEOMETRIC_REPRESENTATION_CONTEXT(2) 
PARAMETRIC_REPRESENTATION_CONTEXT() REPRESENTATION_CONTEXT('2D SPACE',''
  ) );
#145 = ( GEOMETRIC_REPRESENTATION_CONTEXT(3) 
GLOBAL_UNCERTAINTY_ASSIGNED_CONTEXT((#149)) GLOBAL_UNIT_ASSIGNED_CONTEXT
((#146,#147,#148)) REPRESENTATION_CONTEXT('Context #1',
  '3D Context with UNIT and UNCERTAINTY') );
#146 = ( LENGTH_UNIT() NAMED_UNIT(*) SI_UNIT(.MILLI.,.METRE.) );
#147 = ( NAMED_UNIT(*) PLANE_ANGLE_UNIT() SI_UNIT($,.RADIAN.) );
#148 = ( NAMED_UNIT(*) SI_UNIT($,.STERADIAN.) SOLID_ANGLE_UNIT() );
#149 = UNCERTAINTY_MEASURE_WITH_UNIT(LENGTH_MEASURE(1.E-07),#146,
  'distance_accuracy_value','confusion accuracy');
#150 = PRODUCT_RELATED_PRODUCT_CATEGORY('part',$,(#7));
ENDSEC;
END-ISO-10303-21;
