ISO-10303-21;
HEADER;
FILE_DESCRIPTION(('Open CASCADE Model'),'2;1');
FILE_NAME('Open CASCADE Shape Model','2026-07-21T00:13:24',('Author'),(
    'Open CASCADE'),'Open CASCADE STEP processor 7.9','Open CASCADE 7.9'
  ,'Unknown');
FILE_SCHEMA(('AUTOMOTIVE_DESIGN { 1 0 10303 214 1 1 1 1 }'));
ENDSEC;
DATA;
#1 = APPLICATION_PROTOCOL_DEFINITION('international standard',
  'automotive_design',2000,#2);
#2 = APPLICATION_CONTEXT(
  'core data for automotive mechanical design processes');
#3 = SHAPE_DEFINITION_REPRESENTATION(#4,#10);
#4 = PRODUCT_DEFINITION_SHAPE('','',#5);
#5 = PRODUCT_DEFINITION('design','',#6,#9);
#6 = PRODUCT_DEFINITION_FORMATION('','',#7);
#7 = PRODUCT('Open CASCADE STEP translator 7.9 34',
  'Open CASCADE STEP translator 7.9 34','',(#8));
#8 = PRODUCT_CONTEXT('',#2,'mechanical');
#9 = PRODUCT_DEFINITION_CONTEXT('part definition',#2,'design');
#10 = MANIFOLD_SURFACE_SHAPE_REPRESENTATION('',(#11,#15),#161);
#11 = AXIS2_PLACEMENT_3D('',#12,#13,#14);
#12 = CARTESIAN_POINT('',(0.,0.,0.));
#13 = DIRECTION('',(0.,0.,1.));
#14 = DIRECTION('',(1.,0.,-0.));
#15 = SHELL_BASED_SURFACE_MODEL('',(#16));
#16 = OPEN_SHELL('',(#17));
#17 = ADVANCED_FACE('',(#18),#50,.T.);
#18 = FACE_BOUND('',#19,.T.);
#19 = EDGE_LOOP('',(#20,#79,#95,#147));
#20 = ORIENTED_EDGE('',*,*,#21,.T.);
#21 = EDGE_CURVE('',#22,#24,#26,.T.);
#22 = VERTEX_POINT('',#23);
#23 = CARTESIAN_POINT('',(0.,0.,0.));
#24 = VERTEX_POINT('',#25);
#25 = CARTESIAN_POINT('',(1.,0.,0.));
#26 = SURFACE_CURVE('',#27,(#49),.PCURVE_S1.);
#27 = B_SPLINE_CURVE_WITH_KNOTS('',1,(#28,#29,#30,#31,#32,#33,#34,#35,
    #36,#37,#38,#39,#40,#41,#42,#43,#44,#45,#46,#47,#48),.UNSPECIFIED.,
  .F.,.F.,(2,1,1,1,1,1,1,1,1,1,1,1,1,1,1,1,1,1,1,1,2),(0.,
    1.528068398092E-02,5.501991310588E-02,6.782781250147E-02,
    8.087325804283E-02,9.669002266905E-02,0.119656158062,0.134603203499,
    0.180219274156,0.211315695846,0.360347095045,0.463301698304,
    0.493143551964,0.520398310318,0.533622396223,0.588392400686,
    0.694294437435,0.722160476892,0.775581964645,0.789133663741,1.),
  .UNSPECIFIED.);
#28 = CARTESIAN_POINT('',(0.,-0.,0.));
#29 = CARTESIAN_POINT('',(1.467718882226E-02,4.589209066952E-03,0.));
#30 = CARTESIAN_POINT('',(5.461674634783E-02,2.539333884951E-03,0.));
#31 = CARTESIAN_POINT('',(6.737909372692E-02,4.344695660816E-03,0.));
#32 = CARTESIAN_POINT('',(7.991619006527E-02,4.488215758824E-04,0.));
#33 = CARTESIAN_POINT('',(9.582193043531E-02,-1.608780125711E-04,0.));
#34 = CARTESIAN_POINT('',(0.118844441649,1.874300509714E-03,0.));
#35 = CARTESIAN_POINT('',(0.133657370251,4.490395174251E-03,0.));
#36 = CARTESIAN_POINT('',(0.179559733653,3.883996317508E-03,0.));
#37 = CARTESIAN_POINT('',(0.210734830262,1.154956220101E-03,0.));
#38 = CARTESIAN_POINT('',(0.360679661038,4.394715491735E-03,0.));
#39 = CARTESIAN_POINT('',(0.464093052546,-1.981897256099E-03,0.));
#40 = CARTESIAN_POINT('',(0.493720442259,2.929794584752E-03,0.));
#41 = CARTESIAN_POINT('',(0.521132173644,1.979284312164E-03,0.));
#42 = CARTESIAN_POINT('',(0.534408541365,1.058742228219E-03,0.));
#43 = CARTESIAN_POINT('',(0.589526640374,8.339036693085E-04,0.));
#44 = CARTESIAN_POINT('',(0.696021821627,4.983392923252E-03,0.));
#45 = CARTESIAN_POINT('',(0.724043455801,3.879296290013E-03,0.));
#46 = CARTESIAN_POINT('',(0.777278221663,-3.627645637409E-03,0.));
#47 = CARTESIAN_POINT('',(0.787850344947,4.987669374881E-03,0.));
#48 = CARTESIAN_POINT('',(1.,-0.,0.));
#49 = PCURVE('',#50,#55);
#50 = PLANE('',#51);
#51 = AXIS2_PLACEMENT_3D('',#52,#53,#54);
#52 = CARTESIAN_POINT('',(0.500148449729,5.E-02,0.));
#53 = DIRECTION('',(0.,0.,1.));
#54 = DIRECTION('',(1.,0.,-0.));
#55 = DEFINITIONAL_REPRESENTATION('',(#56),#78);
#56 = B_SPLINE_CURVE_WITH_KNOTS('',1,(#57,#58,#59,#60,#61,#62,#63,#64,
    #65,#66,#67,#68,#69,#70,#71,#72,#73,#74,#75,#76,#77),.UNSPECIFIED.,
  .F.,.F.,(2,1,1,1,1,1,1,1,1,1,1,1,1,1,1,1,1,1,1,1,2),(0.,
    1.528068398092E-02,5.501991310588E-02,6.782781250147E-02,
    8.087325804283E-02,9.669002266905E-02,0.119656158062,0.134603203499,
    0.180219274156,0.211315695846,0.360347095045,0.463301698304,
    0.493143551964,0.520398310318,0.533622396223,0.588392400686,
    0.694294437435,0.722160476892,0.775581964645,0.789133663741,1.),
  .UNSPECIFIED.);
#57 = CARTESIAN_POINT('',(-0.500148449729,-5.E-02));
#58 = CARTESIAN_POINT('',(-0.485471260907,-4.541079093305E-02));
#59 = CARTESIAN_POINT('',(-0.445531703381,-4.746066611505E-02));
#60 = CARTESIAN_POINT('',(-0.432769356002,-4.565530433918E-02));
#61 = CARTESIAN_POINT('',(-0.420232259664,-4.955117842412E-02));
#62 = CARTESIAN_POINT('',(-0.404326519294,-5.016087801257E-02));
#63 = CARTESIAN_POINT('',(-0.38130400808,-4.812569949029E-02));
#64 = CARTESIAN_POINT('',(-0.366491079478,-4.550960482575E-02));
#65 = CARTESIAN_POINT('',(-0.320588716076,-4.611600368249E-02));
#66 = CARTESIAN_POINT('',(-0.289413619467,-4.88450437799E-02));
#67 = CARTESIAN_POINT('',(-0.139468788691,-4.560528450827E-02));
#68 = CARTESIAN_POINT('',(-3.605539718303E-02,-5.19818972561E-02));
#69 = CARTESIAN_POINT('',(-6.428007469391E-03,-4.707020541525E-02));
#70 = CARTESIAN_POINT('',(2.098372391549E-02,-4.802071568784E-02));
#71 = CARTESIAN_POINT('',(3.42600916361E-02,-4.894125777178E-02));
#72 = CARTESIAN_POINT('',(8.937819064509E-02,-4.916609633069E-02));
#73 = CARTESIAN_POINT('',(0.195873371898,-4.501660707675E-02));
#74 = CARTESIAN_POINT('',(0.223895006072,-4.612070370999E-02));
#75 = CARTESIAN_POINT('',(0.277129771934,-5.362764563741E-02));
#76 = CARTESIAN_POINT('',(0.287701895218,-4.501233062512E-02));
#77 = CARTESIAN_POINT('',(0.499851550271,-5.E-02));
#78 = ( GEOMETRIC_REPRESENTATION_CONTEXT(2) 
PARAMETRIC_REPRESENTATION_CONTEXT() REPRESENTATION_CONTEXT('2D SPACE',''
  ) );
#79 = ORIENTED_EDGE('',*,*,#80,.T.);
#80 = EDGE_CURVE('',#24,#81,#83,.T.);
#81 = VERTEX_POINT('',#82);
#82 = CARTESIAN_POINT('',(1.,0.1,0.));
#83 = SURFACE_CURVE('',#84,(#88),.PCURVE_S1.);
#84 = LINE('',#85,#86);
#85 = CARTESIAN_POINT('',(1.,-0.,0.));
#86 = VECTOR('',#87,1.);
#87 = DIRECTION('',(0.,1.,0.));
#88 = PCURVE('',#50,#89);
#89 = DEFINITIONAL_REPRESENTATION('',(#90),#94);
#90 = LINE('',#91,#92);
#91 = CARTESIAN_POINT('',(0.499851550271,-5.E-02));
#92 = VECTOR('',#93,1.);
#93 = DIRECTION('',(0.,1.));
#94 = ( GEOMETRIC_REPRESENTATION_CONTEXT(2) 
PARAMETRIC_REPRESENTATION_CONTEXT() REPRESENTATION_CONTEXT('2D SPACE',''
  ) );
#95 = ORIENTED_EDGE('',*,*,#96,.T.);
#96 = EDGE_CURVE('',#81,#97,#99,.T.);
#97 = VERTEX_POINT('',#98);
#98 = CARTESIAN_POINT('',(0.,0.1,0.));
#99 = SURFACE_CURVE('',#100,(#122),.PCURVE_S1.);
#100 = B_SPLINE_CURVE_WITH_KNOTS('',1,(#101,#102,#103,#104,#105,#106,
    #107,#108,#109,#110,#111,#112,#113,#114,#115,#116,#117,#118,#119,
    #120,#121),.UNSPECIFIED.,.F.,.F.,(2,1,1,1,1,1,1,1,1,1,1,1,1,1,1,1,1,
    1,1,1,2),(0.,0.210866336259,0.224418035355,0.277839523108,
    0.305705562565,0.411607599314,0.466377603777,0.479601689682,
    0.506856448036,0.536698301696,0.639652904955,0.788684304154,
    0.819780725844,0.865396796501,0.880343841938,0.903309977331,
    0.919126741957,0.932172187499,0.944980086894,0.984719316019,1.),
  .UNSPECIFIED.);
#101 = CARTESIAN_POINT('',(1.,0.1,0.));
#102 = CARTESIAN_POINT('',(0.787850344947,9.501233062512E-02,0.));
#103 = CARTESIAN_POINT('',(0.777278221663,0.103627645637,0.));
#104 = CARTESIAN_POINT('',(0.724043455801,9.612070370999E-02,0.));
#105 = CARTESIAN_POINT('',(0.696021821627,9.501660707675E-02,0.));
#106 = CARTESIAN_POINT('',(0.589526640374,9.916609633069E-02,0.));
#107 = CARTESIAN_POINT('',(0.534408541365,9.894125777178E-02,0.));
#108 = CARTESIAN_POINT('',(0.521132173644,9.802071568784E-02,0.));
#109 = CARTESIAN_POINT('',(0.493720442259,9.707020541525E-02,0.));
#110 = CARTESIAN_POINT('',(0.464093052546,0.101981897256,0.));
#111 = CARTESIAN_POINT('',(0.360679661038,9.560528450827E-02,0.));
#112 = CARTESIAN_POINT('',(0.210734830262,9.88450437799E-02,0.));
#113 = CARTESIAN_POINT('',(0.179559733653,9.611600368249E-02,0.));
#114 = CARTESIAN_POINT('',(0.133657370251,9.550960482575E-02,0.));
#115 = CARTESIAN_POINT('',(0.118844441649,9.812569949029E-02,0.));
#116 = CARTESIAN_POINT('',(9.582193043531E-02,0.100160878013,0.));
#117 = CARTESIAN_POINT('',(7.991619006527E-02,9.955117842412E-02,0.));
#118 = CARTESIAN_POINT('',(6.737909372692E-02,9.565530433918E-02,0.));
#119 = CARTESIAN_POINT('',(5.461674634783E-02,9.746066611505E-02,0.));
#120 = CARTESIAN_POINT('',(1.467718882226E-02,9.541079093305E-02,0.));
#121 = CARTESIAN_POINT('',(0.,0.1,0.));
#122 = PCURVE('',#50,#123);
#123 = DEFINITIONAL_REPRESENTATION('',(#124),#146);
#124 = B_SPLINE_CURVE_WITH_KNOTS('',1,(#125,#126,#127,#128,#129,#130,
    #131,#132,#133,#134,#135,#136,#137,#138,#139,#140,#141,#142,#143,
    #144,#145),.UNSPECIFIED.,.F.,.F.,(2,1,1,1,1,1,1,1,1,1,1,1,1,1,1,1,1,
    1,1,1,2),(0.,0.210866336259,0.224418035355,0.277839523108,
    0.305705562565,0.411607599314,0.466377603777,0.479601689682,
    0.506856448036,0.536698301696,0.639652904955,0.788684304154,
    0.819780725844,0.865396796501,0.880343841938,0.903309977331,
    0.919126741957,0.932172187499,0.944980086894,0.984719316019,1.),
  .UNSPECIFIED.);
#125 = CARTESIAN_POINT('',(0.499851550271,5.E-02));
#126 = CARTESIAN_POINT('',(0.287701895218,4.501233062512E-02));
#127 = CARTESIAN_POINT('',(0.277129771934,5.362764563741E-02));
#128 = CARTESIAN_POINT('',(0.223895006072,4.612070370999E-02));
#129 = CARTESIAN_POINT('',(0.195873371898,4.501660707675E-02));
#130 = CARTESIAN_POINT('',(8.937819064509E-02,4.916609633069E-02));
#131 = CARTESIAN_POINT('',(3.42600916361E-02,4.894125777178E-02));
#132 = CARTESIAN_POINT('',(2.098372391549E-02,4.802071568784E-02));
#133 = CARTESIAN_POINT('',(-6.428007469391E-03,4.707020541525E-02));
#134 = CARTESIAN_POINT('',(-3.605539718303E-02,5.19818972561E-02));
#135 = CARTESIAN_POINT('',(-0.139468788691,4.560528450827E-02));
#136 = CARTESIAN_POINT('',(-0.289413619467,4.88450437799E-02));
#137 = CARTESIAN_POINT('',(-0.320588716076,4.611600368249E-02));
#138 = CARTESIAN_POINT('',(-0.366491079478,4.550960482575E-02));
#139 = CARTESIAN_POINT('',(-0.38130400808,4.812569949029E-02));
#140 = CARTESIAN_POINT('',(-0.404326519294,5.016087801257E-02));
#141 = CARTESIAN_POINT('',(-0.420232259664,4.955117842412E-02));
#142 = CARTESIAN_POINT('',(-0.432769356002,4.565530433918E-02));
#143 = CARTESIAN_POINT('',(-0.445531703381,4.746066611505E-02));
#144 = CARTESIAN_POINT('',(-0.485471260907,4.541079093305E-02));
#145 = CARTESIAN_POINT('',(-0.500148449729,5.E-02));
#146 = ( GEOMETRIC_REPRESENTATION_CONTEXT(2) 
PARAMETRIC_REPRESENTATION_CONTEXT() REPRESENTATION_CONTEXT('2D SPACE',''
  ) );
#147 = ORIENTED_EDGE('',*,*,#148,.T.);
#148 = EDGE_CURVE('',#97,#22,#149,.T.);
#149 = SURFACE_CURVE('',#150,(#154),.PCURVE_S1.);
#150 = LINE('',#151,#152);
#151 = CARTESIAN_POINT('',(0.,0.1,0.));
#152 = VECTOR('',#153,1.);
#153 = DIRECTION('',(0.,-1.,0.));
#154 = PCURVE('',#50,#155);
#155 = DEFINITIONAL_REPRESENTATION('',(#156),#160);
#156 = LINE('',#157,#158);
#157 = CARTESIAN_POINT('',(-0.500148449729,5.E-02));
#158 = VECTOR('',#159,1.);
#159 = DIRECTION('',(0.,-1.));
#160 = ( GEOMETRIC_REPRESENTATION_CONTEXT(2) 
PARAMETRIC_REPRESENTATION_CONTEXT() REPRESENTATION_CONTEXT('2D SPACE',''
  ) );
#161 = ( GEOMETRIC_REPRESENTATION_CONTEXT(3) 
GLOBAL_UNCERTAINTY_ASSIGNED_CONTEXT((#165)) GLOBAL_UNIT_ASSIGNED_CONTEXT
((#162,#163,#164)) REPRESENTATION_CONTEXT('Context #1',
  '3D Context with UNIT and UNCERTAINTY') );
#162 = ( LENGTH_UNIT() NAMED_UNIT(*) SI_UNIT(.MILLI.,.METRE.) );
#163 = ( NAMED_UNIT(*) PLANE_ANGLE_UNIT() SI_UNIT($,.RADIAN.) );
#164 = ( NAMED_UNIT(*) SI_UNIT($,.STERADIAN.) SOLID_ANGLE_UNIT() );
#165 = UNCERTAINTY_MEASURE_WITH_UNIT(LENGTH_MEASURE(1.E-07),#162,
  'distance_accuracy_value','confusion accuracy');
#166 = PRODUCT_RELATED_PRODUCT_CATEGORY('part',$,(#7));
ENDSEC;
END-ISO-10303-21;
