ISO-10303-21;
HEADER;
FILE_DESCRIPTION(('Open CASCADE Model'),'2;1');
FILE_NAME('Open CASCADE Shape Model','2026-08-17T20:30:05',('Author'),(
    'Open CASCADE'),'Open CASCADE STEP processor 7.9','Open CASCADE 7.9'
  ,'Unknown');
FILE_SCHEMA(('AUTOMOTIVE_DESIGN { 1 0 10303 214 1 1 1 1 }'));
ENDSEC;
DATA;
#1 = APPLICATION_PROTOCOL_DEFINITION('international standard',
  'automotive_design',2000,#2);
#2 = APPLICATION_CONTEXT(
  'core data for automotive mechanical design processes');
#3 = SHAPE_DEFINITION_REPRESENTATION(#4,#10);
#4 = PRODUCT_DEFINITION_SHAPE('','',#5);
#5 = PRODUCT_DEFINITION('design','',#6,#9);
#6 = PRODUCT_DEFINITION_FORMATION('','',#7);
#7 = PRODUCT('Open CASCADE STEP translator 7.9 86',
  'Open CASCADE STEP translator 7.9 86','',(#8));
#8 = PRODUCT_CONTEXT('',#2,'mechanical');
#9 = PRODUCT_DEFINITION_CONTEXT('part definition',#2,'design');
#10 = MANIFOLD_SURFACE_SHAPE_REPRESENTATION('',(#11,#15),#145);
#11 = AXIS2_PLACEMENT_3D('',#12,#13,#14);
#12 = CARTESIAN_POINT('',(0.,0.,0.));
#13 = DIRECTION('',(0.,0.,1.));
#14 = DIRECTION('',(1.,0.,-0.));
#15 = SHELL_BASED_SURFACE_MODEL('',(#16));
#16 = OPEN_SHELL('',(#17));
#17 = ADVANCED_FACE('',(#18),#46,.T.);
#18 = FACE_BOUND('',#19,.T.);
#19 = EDGE_LOOP('',(#20,#71,#87,#131));
#20 = ORIENTED_EDGE('',*,*,#21,.T.);
#21 = EDGE_CURVE('',#22,#24,#26,.T.);
#22 = VERTEX_POINT('',#23);
#23 = CARTESIAN_POINT('',(0.,0.,0.));
#24 = VERTEX_POINT('',#25);
#25 = CARTESIAN_POINT('',(1.,0.,0.));
#26 = SURFACE_CURVE('',#27,(#45),.PCURVE_S1.);
#27 = B_SPLINE_CURVE_WITH_KNOTS('',1,(#28,#29,#30,#31,#32,#33,#34,#35,
    #36,#37,#38,#39,#40,#41,#42,#43,#44),.UNSPECIFIED.,.F.,.F.,(2,1,1,1,
    1,1,1,1,1,1,1,1,1,1,1,1,2),(0.,5.923485428472E-02,8.330951382091E-02
    ,0.131181999775,0.174145857752,0.249437732049,0.276719974685,
    0.306323878363,0.327154152027,0.427321767538,0.472106726218,
    0.538697726092,0.752737018665,0.889468154691,0.902259114642,
    0.932155191508,1.),.UNSPECIFIED.);
#28 = CARTESIAN_POINT('',(0.,-0.,0.));
#29 = CARTESIAN_POINT('',(5.952695571183E-02,1.65757567341E-03,0.));
#30 = CARTESIAN_POINT('',(8.344050232309E-02,-2.072793516678E-03,0.));
#31 = CARTESIAN_POINT('',(0.131240178416,3.53245283469E-03,0.));
#32 = CARTESIAN_POINT('',(0.173607419583,-4.870248099685E-03,0.));
#33 = CARTESIAN_POINT('',(0.249197811114,-9.402309664853E-04,0.));
#34 = CARTESIAN_POINT('',(0.276615953602,-1.652987342772E-03,0.));
#35 = CARTESIAN_POINT('',(0.30634667674,-3.004350431636E-03,0.));
#36 = CARTESIAN_POINT('',(0.325870151236,4.569545430322E-03,0.));
#37 = CARTESIAN_POINT('',(0.42611909346,-4.957118912424E-03,0.));
#38 = CARTESIAN_POINT('',(0.471013650087,-1.555389791877E-03,0.));
#39 = CARTESIAN_POINT('',(0.53790015247,1.250151576976E-03,0.));
#40 = CARTESIAN_POINT('',(0.753032212545,-3.203128559238E-03,0.));
#41 = CARTESIAN_POINT('',(0.890328412069,3.477771962774E-03,0.));
#42 = CARTESIAN_POINT('',(0.903180780118,3.891260693503E-03,0.));
#43 = CARTESIAN_POINT('',(0.931961144579,-4.769137045023E-03,0.));
#44 = CARTESIAN_POINT('',(1.,-0.,0.));
#45 = PCURVE('',#46,#51);
#46 = PLANE('',#47);
#47 = AXIS2_PLACEMENT_3D('',#48,#49,#50);
#48 = CARTESIAN_POINT('',(0.499775593666,3.125E-02,0.));
#49 = DIRECTION('',(0.,0.,1.));
#50 = DIRECTION('',(1.,0.,-0.));
#51 = DEFINITIONAL_REPRESENTATION('',(#52),#70);
#52 = B_SPLINE_CURVE_WITH_KNOTS('',1,(#53,#54,#55,#56,#57,#58,#59,#60,
    #61,#62,#63,#64,#65,#66,#67,#68,#69),.UNSPECIFIED.,.F.,.F.,(2,1,1,1,
    1,1,1,1,1,1,1,1,1,1,1,1,2),(0.,5.923485428472E-02,8.330951382091E-02
    ,0.131181999775,0.174145857752,0.249437732049,0.276719974685,
    0.306323878363,0.327154152027,0.427321767538,0.472106726218,
    0.538697726092,0.752737018665,0.889468154691,0.902259114642,
    0.932155191508,1.),.UNSPECIFIED.);
#53 = CARTESIAN_POINT('',(-0.499775593666,-3.125E-02));
#54 = CARTESIAN_POINT('',(-0.440248637954,-2.959242432659E-02));
#55 = CARTESIAN_POINT('',(-0.416335091343,-3.332279351668E-02));
#56 = CARTESIAN_POINT('',(-0.36853541525,-2.771754716531E-02));
#57 = CARTESIAN_POINT('',(-0.326168174083,-3.612024809968E-02));
#58 = CARTESIAN_POINT('',(-0.250577782552,-3.219023096649E-02));
#59 = CARTESIAN_POINT('',(-0.223159640064,-3.290298734277E-02));
#60 = CARTESIAN_POINT('',(-0.193428916926,-3.425435043164E-02));
#61 = CARTESIAN_POINT('',(-0.17390544243,-2.668045456968E-02));
#62 = CARTESIAN_POINT('',(-7.365650020621E-02,-3.620711891242E-02));
#63 = CARTESIAN_POINT('',(-2.876194357883E-02,-3.280538979188E-02));
#64 = CARTESIAN_POINT('',(3.812455880398E-02,-2.999984842302E-02));
#65 = CARTESIAN_POINT('',(0.253256618879,-3.445312855924E-02));
#66 = CARTESIAN_POINT('',(0.390552818402,-2.777222803723E-02));
#67 = CARTESIAN_POINT('',(0.403405186452,-2.73587393065E-02));
#68 = CARTESIAN_POINT('',(0.432185550913,-3.601913704502E-02));
#69 = CARTESIAN_POINT('',(0.500224406334,-3.125E-02));
#70 = ( GEOMETRIC_REPRESENTATION_CONTEXT(2) 
PARAMETRIC_REPRESENTATION_CONTEXT() REPRESENTATION_CONTEXT('2D SPACE',''
  ) );
#71 = ORIENTED_EDGE('',*,*,#72,.T.);
#72 = EDGE_CURVE('',#24,#73,#75,.T.);
#73 = VERTEX_POINT('',#74);
#74 = CARTESIAN_POINT('',(1.,6.25E-02,0.));
#75 = SURFACE_CURVE('',#76,(#80),.PCURVE_S1.);
#76 = LINE('',#77,#78);
#77 = CARTESIAN_POINT('',(1.,-0.,0.));
#78 = VECTOR('',#79,1.);
#79 = DIRECTION('',(0.,1.,0.));
#80 = PCURVE('',#46,#81);
#81 = DEFINITIONAL_REPRESENTATION('',(#82),#86);
#82 = LINE('',#83,#84);
#83 = CARTESIAN_POINT('',(0.500224406334,-3.125E-02));
#84 = VECTOR('',#85,1.);
#85 = DIRECTION('',(0.,1.));
#86 = ( GEOMETRIC_REPRESENTATION_CONTEXT(2) 
PARAMETRIC_REPRESENTATION_CONTEXT() REPRESENTATION_CONTEXT('2D SPACE',''
  ) );
#87 = ORIENTED_EDGE('',*,*,#88,.T.);
#88 = EDGE_CURVE('',#73,#89,#91,.T.);
#89 = VERTEX_POINT('',#90);
#90 = CARTESIAN_POINT('',(0.,6.25E-02,0.));
#91 = SURFACE_CURVE('',#92,(#110),.PCURVE_S1.);
#92 = B_SPLINE_CURVE_WITH_KNOTS('',1,(#93,#94,#95,#96,#97,#98,#99,#100,
    #101,#102,#103,#104,#105,#106,#107,#108,#109),.UNSPECIFIED.,.F.,.F.,
  (2,1,1,1,1,1,1,1,1,1,1,1,1,1,1,1,2),(0.,6.784480849237E-02,
    9.774088535758E-02,0.110531845309,0.247262981335,0.461302273908,
    0.527893273782,0.572678232462,0.672845847973,0.693676121637,
    0.723280025315,0.750562267951,0.825854142248,0.868818000225,
    0.916690486179,0.940765145715,1.),.UNSPECIFIED.);
#93 = CARTESIAN_POINT('',(1.,6.25E-02,0.));
#94 = CARTESIAN_POINT('',(0.931961144579,6.726913704502E-02,0.));
#95 = CARTESIAN_POINT('',(0.903180780118,5.86087393065E-02,0.));
#96 = CARTESIAN_POINT('',(0.890328412069,5.902222803723E-02,0.));
#97 = CARTESIAN_POINT('',(0.753032212545,6.570312855924E-02,0.));
#98 = CARTESIAN_POINT('',(0.53790015247,6.124984842302E-02,0.));
#99 = CARTESIAN_POINT('',(0.471013650087,6.405538979188E-02,0.));
#100 = CARTESIAN_POINT('',(0.42611909346,6.745711891242E-02,0.));
#101 = CARTESIAN_POINT('',(0.325870151236,5.793045456968E-02,0.));
#102 = CARTESIAN_POINT('',(0.30634667674,6.550435043164E-02,0.));
#103 = CARTESIAN_POINT('',(0.276615953602,6.415298734277E-02,0.));
#104 = CARTESIAN_POINT('',(0.249197811114,6.344023096649E-02,0.));
#105 = CARTESIAN_POINT('',(0.173607419583,6.737024809969E-02,0.));
#106 = CARTESIAN_POINT('',(0.131240178416,5.896754716531E-02,0.));
#107 = CARTESIAN_POINT('',(8.344050232309E-02,6.457279351668E-02,0.));
#108 = CARTESIAN_POINT('',(5.952695571183E-02,6.084242432659E-02,0.));
#109 = CARTESIAN_POINT('',(0.,6.25E-02,0.));
#110 = PCURVE('',#46,#111);
#111 = DEFINITIONAL_REPRESENTATION('',(#112),#130);
#112 = B_SPLINE_CURVE_WITH_KNOTS('',1,(#113,#114,#115,#116,#117,#118,
    #119,#120,#121,#122,#123,#124,#125,#126,#127,#128,#129),
  .UNSPECIFIED.,.F.,.F.,(2,1,1,1,1,1,1,1,1,1,1,1,1,1,1,1,2),(0.,
    6.784480849237E-02,9.774088535758E-02,0.110531845309,0.247262981335,
    0.461302273908,0.527893273782,0.572678232462,0.672845847973,
    0.693676121637,0.723280025315,0.750562267951,0.825854142248,
    0.868818000225,0.916690486179,0.940765145715,1.),.UNSPECIFIED.);
#113 = CARTESIAN_POINT('',(0.500224406334,3.125E-02));
#114 = CARTESIAN_POINT('',(0.432185550913,3.601913704502E-02));
#115 = CARTESIAN_POINT('',(0.403405186452,2.73587393065E-02));
#116 = CARTESIAN_POINT('',(0.390552818402,2.777222803723E-02));
#117 = CARTESIAN_POINT('',(0.253256618879,3.445312855924E-02));
#118 = CARTESIAN_POINT('',(3.812455880398E-02,2.999984842302E-02));
#119 = CARTESIAN_POINT('',(-2.876194357883E-02,3.280538979188E-02));
#120 = CARTESIAN_POINT('',(-7.365650020621E-02,3.620711891242E-02));
#121 = CARTESIAN_POINT('',(-0.17390544243,2.668045456968E-02));
#122 = CARTESIAN_POINT('',(-0.193428916926,3.425435043164E-02));
#123 = CARTESIAN_POINT('',(-0.223159640064,3.290298734277E-02));
#124 = CARTESIAN_POINT('',(-0.250577782552,3.219023096649E-02));
#125 = CARTESIAN_POINT('',(-0.326168174083,3.612024809969E-02));
#126 = CARTESIAN_POINT('',(-0.36853541525,2.771754716531E-02));
#127 = CARTESIAN_POINT('',(-0.416335091343,3.332279351668E-02));
#128 = CARTESIAN_POINT('',(-0.440248637954,2.959242432659E-02));
#129 = CARTESIAN_POINT('',(-0.499775593666,3.125E-02));
#130 = ( GEOMETRIC_REPRESENTATION_CONTEXT(2) 
PARAMETRIC_REPRESENTATION_CONTEXT() REPRESENTATION_CONTEXT('2D SPACE',''
  ) );
#131 = ORIENTED_EDGE('',*,*,#132,.T.);
#132 = EDGE_CURVE('',#89,#22,#133,.T.);
#133 = SURFACE_CURVE('',#134,(#138),.PCURVE_S1.);
#134 = LINE('',#135,#136);
#135 = CARTESIAN_POINT('',(0.,6.25E-02,0.));
#136 = VECTOR('',#137,1.);
#137 = DIRECTION('',(0.,-1.,0.));
#138 = PCURVE('',#46,#139);
#139 = DEFINITIONAL_REPRESENTATION('',(#140),#144);
#140 = LINE('',#141,#142);
#141 = CARTESIAN_POINT('',(-0.499775593666,3.125E-02));
#142 = VECTOR('',#143,1.);
#143 = DIRECTION('',(0.,-1.));
#144 = ( GEOMETRIC_REPRESENTATION_CONTEXT(2) 
PARAMETRIC_REPRESENTATION_CONTEXT() REPRESENTATION_CONTEXT('2D SPACE',''
  ) );
#145 = ( GEOMETRIC_REPRESENTATION_CONTEXT(3) 
GLOBAL_UNCERTAINTY_ASSIGNED_CONTEXT((#149)) GLOBAL_UNIT_ASSIGNED_CONTEXT
((#146,#147,#148)) REPRESENTATION_CONTEXT('Context #1',
  '3D Context with UNIT and UNCERTAINTY') );
#146 = ( LENGTH_UNIT() NAMED_UNIT(*) SI_UNIT(.MILLI.,.METRE.) );
#147 = ( NAMED_UNIT(*) PLANE_ANGLE_UNIT() SI_UNIT($,.RADIAN.) );
#148 = ( NAMED_UNIT(*) SI_UNIT($,.STERADIAN.) SOLID_ANGLE_UNIT() );
#149 = UNCERTAINTY_MEASURE_WITH_UNIT(LENGTH_MEASURE(1.E-07),#146,
  'distance_accuracy_value','confusion accuracy');
#150 = PRODUCT_RELATED_PRODUCT_CATEGORY('part',$,(#7));
ENDSEC;
END-ISO-10303-21;
