ISO-10303-21;
HEADER;
FILE_DESCRIPTION(('Open CASCADE Model'),'2;1');
FILE_NAME('Open CASCADE Shape Model','2026-08-17T20:30:05',('Author'),(
    'Open CASCADE'),'Open CASCADE STEP processor 7.9','Open CASCADE 7.9'
  ,'Unknown');
FILE_SCHEMA(('AUTOMOTIVE_DESIGN { 1 0 10303 214 1 1 1 1 }'));
ENDSEC;
DATA;
#1 = APPLICATION_PROTOCOL_DEFINITION('international standard',
  'automotive_design',2000,#2);
#2 = APPLICATION_CONTEXT(
  'core data for automotive mechanical design processes');
#3 = SHAPE_DEFINITION_REPRESENTATION(#4,#10);
#4 = PRODUCT_DEFINITION_SHAPE('','',#5);
#5 = PRODUCT_DEFINITION('design','',#6,#9);
#6 = PRODUCT_DEFINITION_FORMATION('','',#7);
#7 = PRODUCT('Open CASCADE STEP translator 7.9 63',
  'Open CASCADE STEP translator 7.9 63','',(#8));
#8 = PRODUCT_CONTEXT('',#2,'mechanical');
#9 = PRODUCT_DEFINITION_CONTEXT('part definition',#2,'design');
#10 = MANIFOLD_SURFACE_SHAPE_REPRESENTATION('',(#11,#15),#145);
#11 = AXIS2_PLACEMENT_3D('',#12,#13,#14);
#12 = CARTESIAN_POINT('',(0.,0.,0.));
#13 = DIRECTION('',(0.,0.,1.));
#14 = DIRECTION('',(1.,0.,-0.));
#15 = SHELL_BASED_SURFACE_MODEL('',(#16));
#16 = OPEN_SHELL('',(#17));
#17 = ADVANCED_FACE('',(#18),#46,.T.);
#18 = FACE_BOUND('',#19,.T.);
#19 = EDGE_LOOP('',(#20,#71,#87,#131));
#20 = ORIENTED_EDGE('',*,*,#21,.T.);
#21 = EDGE_CURVE('',#22,#24,#26,.T.);
#22 = VERTEX_POINT('',#23);
#23 = CARTESIAN_POINT('',(0.,0.,0.));
#24 = VERTEX_POINT('',#25);
#25 = CARTESIAN_POINT('',(1.,0.,0.));
#26 = SURFACE_CURVE('',#27,(#45),.PCURVE_S1.);
#27 = B_SPLINE_CURVE_WITH_KNOTS('',1,(#28,#29,#30,#31,#32,#33,#34,#35,
    #36,#37,#38,#39,#40,#41,#42,#43,#44),.UNSPECIFIED.,.F.,.F.,(2,1,1,1,
    1,1,1,1,1,1,1,1,1,1,1,1,2),(0.,4.144346225902E-02,5.776581032597E-02
    ,8.899184304138E-02,0.107850700059,0.128164696643,0.161097623933,
    0.250295884955,0.39831768798,0.434916317046,0.525001600078,
    0.582253084546,0.639715732947,0.736959171167,0.820882450253,
    0.955309815486,1.),.UNSPECIFIED.);
#28 = CARTESIAN_POINT('',(0.,-0.,0.));
#29 = CARTESIAN_POINT('',(4.146672871569E-02,-1.674415986616E-03,0.));
#30 = CARTESIAN_POINT('',(5.778419181386E-02,-7.291353451827E-04,0.));
#31 = CARTESIAN_POINT('',(8.905279326084E-02,-5.664998911722E-04,0.));
#32 = CARTESIAN_POINT('',(0.107335118759,4.165631230582E-03,0.));
#33 = CARTESIAN_POINT('',(0.127457984335,1.188080504898E-03,0.));
#34 = CARTESIAN_POINT('',(0.160427507164,1.947548117999E-03,0.));
#35 = CARTESIAN_POINT('',(0.249748347658,1.745828206756E-03,0.));
#36 = CARTESIAN_POINT('',(0.397888490949,-3.286648937754E-03,0.));
#37 = CARTESIAN_POINT('',(0.434520772834,-2.179210012877E-03,0.));
#38 = CARTESIAN_POINT('',(0.524725998109,-3.03782474366E-03,0.));
#39 = CARTESIAN_POINT('',(0.582052077924,-3.734069567292E-03,0.));
#40 = CARTESIAN_POINT('',(0.639501397122,-4.736797038541E-04,0.));
#41 = CARTESIAN_POINT('',(0.736876117436,-1.185495414089E-03,0.));
#42 = CARTESIAN_POINT('',(0.820913647788,-1.651754333727E-03,0.));
#43 = CARTESIAN_POINT('',(0.955492314828,-4.667099956455E-03,0.));
#44 = CARTESIAN_POINT('',(1.,-0.,0.));
#45 = PCURVE('',#46,#51);
#46 = PLANE('',#47);
#47 = AXIS2_PLACEMENT_3D('',#48,#49,#50);
#48 = CARTESIAN_POINT('',(0.499780687034,3.125E-02,0.));
#49 = DIRECTION('',(0.,0.,1.));
#50 = DIRECTION('',(1.,0.,-0.));
#51 = DEFINITIONAL_REPRESENTATION('',(#52),#70);
#52 = B_SPLINE_CURVE_WITH_KNOTS('',1,(#53,#54,#55,#56,#57,#58,#59,#60,
    #61,#62,#63,#64,#65,#66,#67,#68,#69),.UNSPECIFIED.,.F.,.F.,(2,1,1,1,
    1,1,1,1,1,1,1,1,1,1,1,1,2),(0.,4.144346225902E-02,5.776581032597E-02
    ,8.899184304138E-02,0.107850700059,0.128164696643,0.161097623933,
    0.250295884955,0.39831768798,0.434916317046,0.525001600078,
    0.582253084546,0.639715732947,0.736959171167,0.820882450253,
    0.955309815486,1.),.UNSPECIFIED.);
#53 = CARTESIAN_POINT('',(-0.499780687034,-3.125E-02));
#54 = CARTESIAN_POINT('',(-0.458313958318,-3.292441598662E-02));
#55 = CARTESIAN_POINT('',(-0.44199649522,-3.197913534518E-02));
#56 = CARTESIAN_POINT('',(-0.410727893773,-3.181649989117E-02));
#57 = CARTESIAN_POINT('',(-0.392445568275,-2.708436876942E-02));
#58 = CARTESIAN_POINT('',(-0.372322702699,-3.00619194951E-02));
#59 = CARTESIAN_POINT('',(-0.33935317987,-2.9302451882E-02));
#60 = CARTESIAN_POINT('',(-0.250032339376,-2.950417179324E-02));
#61 = CARTESIAN_POINT('',(-0.101892196085,-3.453664893775E-02));
#62 = CARTESIAN_POINT('',(-6.52599141998E-02,-3.342921001288E-02));
#63 = CARTESIAN_POINT('',(2.494531107476E-02,-3.428782474366E-02));
#64 = CARTESIAN_POINT('',(8.227139088968E-02,-3.498406956729E-02));
#65 = CARTESIAN_POINT('',(0.139720710088,-3.172367970385E-02));
#66 = CARTESIAN_POINT('',(0.237095430402,-3.243549541409E-02));
#67 = CARTESIAN_POINT('',(0.321132960754,-3.290175433373E-02));
#68 = CARTESIAN_POINT('',(0.455711627794,-3.591709995645E-02));
#69 = CARTESIAN_POINT('',(0.500219312966,-3.125E-02));
#70 = ( GEOMETRIC_REPRESENTATION_CONTEXT(2) 
PARAMETRIC_REPRESENTATION_CONTEXT() REPRESENTATION_CONTEXT('2D SPACE',''
  ) );
#71 = ORIENTED_EDGE('',*,*,#72,.T.);
#72 = EDGE_CURVE('',#24,#73,#75,.T.);
#73 = VERTEX_POINT('',#74);
#74 = CARTESIAN_POINT('',(1.,6.25E-02,0.));
#75 = SURFACE_CURVE('',#76,(#80),.PCURVE_S1.);
#76 = LINE('',#77,#78);
#77 = CARTESIAN_POINT('',(1.,-0.,0.));
#78 = VECTOR('',#79,1.);
#79 = DIRECTION('',(0.,1.,0.));
#80 = PCURVE('',#46,#81);
#81 = DEFINITIONAL_REPRESENTATION('',(#82),#86);
#82 = LINE('',#83,#84);
#83 = CARTESIAN_POINT('',(0.500219312966,-3.125E-02));
#84 = VECTOR('',#85,1.);
#85 = DIRECTION('',(0.,1.));
#86 = ( GEOMETRIC_REPRESENTATION_CONTEXT(2) 
PARAMETRIC_REPRESENTATION_CONTEXT() REPRESENTATION_CONTEXT('2D SPACE',''
  ) );
#87 = ORIENTED_EDGE('',*,*,#88,.T.);
#88 = EDGE_CURVE('',#73,#89,#91,.T.);
#89 = VERTEX_POINT('',#90);
#90 = CARTESIAN_POINT('',(0.,6.25E-02,0.));
#91 = SURFACE_CURVE('',#92,(#110),.PCURVE_S1.);
#92 = B_SPLINE_CURVE_WITH_KNOTS('',1,(#93,#94,#95,#96,#97,#98,#99,#100,
    #101,#102,#103,#104,#105,#106,#107,#108,#109),.UNSPECIFIED.,.F.,.F.,
  (2,1,1,1,1,1,1,1,1,1,1,1,1,1,1,1,2),(0.,4.46901845141E-02,
    0.179117549747,0.263040828833,0.360284267053,0.417746915454,
    0.474998399922,0.565083682954,0.60168231202,0.749704115045,
    0.838902376067,0.871835303357,0.892149299941,0.911008156959,
    0.942234189674,0.958556537741,1.),.UNSPECIFIED.);
#93 = CARTESIAN_POINT('',(1.,6.25E-02,0.));
#94 = CARTESIAN_POINT('',(0.955492314828,6.716709995645E-02,0.));
#95 = CARTESIAN_POINT('',(0.820913647788,6.415175433373E-02,0.));
#96 = CARTESIAN_POINT('',(0.736876117436,6.368549541409E-02,0.));
#97 = CARTESIAN_POINT('',(0.639501397122,6.297367970385E-02,0.));
#98 = CARTESIAN_POINT('',(0.582052077924,6.623406956729E-02,0.));
#99 = CARTESIAN_POINT('',(0.524725998109,6.553782474366E-02,0.));
#100 = CARTESIAN_POINT('',(0.434520772834,6.467921001288E-02,0.));
#101 = CARTESIAN_POINT('',(0.397888490949,6.578664893775E-02,0.));
#102 = CARTESIAN_POINT('',(0.249748347658,6.075417179324E-02,0.));
#103 = CARTESIAN_POINT('',(0.160427507164,6.0552451882E-02,0.));
#104 = CARTESIAN_POINT('',(0.127457984335,6.13119194951E-02,0.));
#105 = CARTESIAN_POINT('',(0.107335118759,5.833436876942E-02,0.));
#106 = CARTESIAN_POINT('',(8.905279326084E-02,6.306649989117E-02,0.));
#107 = CARTESIAN_POINT('',(5.778419181386E-02,6.322913534518E-02,0.));
#108 = CARTESIAN_POINT('',(4.146672871569E-02,6.417441598662E-02,0.));
#109 = CARTESIAN_POINT('',(0.,6.25E-02,0.));
#110 = PCURVE('',#46,#111);
#111 = DEFINITIONAL_REPRESENTATION('',(#112),#130);
#112 = B_SPLINE_CURVE_WITH_KNOTS('',1,(#113,#114,#115,#116,#117,#118,
    #119,#120,#121,#122,#123,#124,#125,#126,#127,#128,#129),
  .UNSPECIFIED.,.F.,.F.,(2,1,1,1,1,1,1,1,1,1,1,1,1,1,1,1,2),(0.,
    4.46901845141E-02,0.179117549747,0.263040828833,0.360284267053,
    0.417746915454,0.474998399922,0.565083682954,0.60168231202,
    0.749704115045,0.838902376067,0.871835303357,0.892149299941,
    0.911008156959,0.942234189674,0.958556537741,1.),.UNSPECIFIED.);
#113 = CARTESIAN_POINT('',(0.500219312966,3.125E-02));
#114 = CARTESIAN_POINT('',(0.455711627794,3.591709995645E-02));
#115 = CARTESIAN_POINT('',(0.321132960754,3.290175433373E-02));
#116 = CARTESIAN_POINT('',(0.237095430402,3.243549541409E-02));
#117 = CARTESIAN_POINT('',(0.139720710088,3.172367970385E-02));
#118 = CARTESIAN_POINT('',(8.227139088968E-02,3.498406956729E-02));
#119 = CARTESIAN_POINT('',(2.494531107476E-02,3.428782474366E-02));
#120 = CARTESIAN_POINT('',(-6.52599141998E-02,3.342921001288E-02));
#121 = CARTESIAN_POINT('',(-0.101892196085,3.453664893775E-02));
#122 = CARTESIAN_POINT('',(-0.250032339376,2.950417179324E-02));
#123 = CARTESIAN_POINT('',(-0.33935317987,2.9302451882E-02));
#124 = CARTESIAN_POINT('',(-0.372322702699,3.00619194951E-02));
#125 = CARTESIAN_POINT('',(-0.392445568275,2.708436876942E-02));
#126 = CARTESIAN_POINT('',(-0.410727893773,3.181649989117E-02));
#127 = CARTESIAN_POINT('',(-0.44199649522,3.197913534518E-02));
#128 = CARTESIAN_POINT('',(-0.458313958318,3.292441598662E-02));
#129 = CARTESIAN_POINT('',(-0.499780687034,3.125E-02));
#130 = ( GEOMETRIC_REPRESENTATION_CONTEXT(2) 
PARAMETRIC_REPRESENTATION_CONTEXT() REPRESENTATION_CONTEXT('2D SPACE',''
  ) );
#131 = ORIENTED_EDGE('',*,*,#132,.T.);
#132 = EDGE_CURVE('',#89,#22,#133,.T.);
#133 = SURFACE_CURVE('',#134,(#138),.PCURVE_S1.);
#134 = LINE('',#135,#136);
#135 = CARTESIAN_POINT('',(0.,6.25E-02,0.));
#136 = VECTOR('',#137,1.);
#137 = DIRECTION('',(0.,-1.,0.));
#138 = PCURVE('',#46,#139);
#139 = DEFINITIONAL_REPRESENTATION('',(#140),#144);
#140 = LINE('',#141,#142);
#141 = CARTESIAN_POINT('',(-0.499780687034,3.125E-02));
#142 = VECTOR('',#143,1.);
#143 = DIRECTION('',(0.,-1.));
#144 = ( GEOMETRIC_REPRESENTATION_CONTEXT(2) 
PARAMETRIC_REPRESENTATION_CONTEXT() REPRESENTATION_CONTEXT('2D SPACE',''
  ) );
#145 = ( GEOMETRIC_REPRESENTATION_CONTEXT(3) 
GLOBAL_UNCERTAINTY_ASSIGNED_CONTEXT((#149)) GLOBAL_UNIT_ASSIGNED_CONTEXT
((#146,#147,#148)) REPRESENTATION_CONTEXT('Context #1',
  '3D Context with UNIT and UNCERTAINTY') );
#146 = ( LENGTH_UNIT() NAMED_UNIT(*) SI_UNIT(.MILLI.,.METRE.) );
#147 = ( NAMED_UNIT(*) PLANE_ANGLE_UNIT() SI_UNIT($,.RADIAN.) );
#148 = ( NAMED_UNIT(*) SI_UNIT($,.STERADIAN.) SOLID_ANGLE_UNIT() );
#149 = UNCERTAINTY_MEASURE_WITH_UNIT(LENGTH_MEASURE(1.E-07),#146,
  'distance_accuracy_value','confusion accuracy');
#150 = PRODUCT_RELATED_PRODUCT_CATEGORY('part',$,(#7));
ENDSEC;
END-ISO-10303-21;
