ISO-10303-21;
HEADER;
FILE_DESCRIPTION(('Open CASCADE Model'),'2;1');
FILE_NAME('Open CASCADE Shape Model','2026-07-23T16:45:03',('Author'),(
    'Open CASCADE'),'Open CASCADE STEP processor 7.9','Open CASCADE 7.9'
  ,'Unknown');
FILE_SCHEMA(('AUTOMOTIVE_DESIGN { 1 0 10303 214 1 1 1 1 }'));
ENDSEC;
DATA;
#1 = APPLICATION_PROTOCOL_DEFINITION('international standard',
  'automotive_design',2000,#2);
#2 = APPLICATION_CONTEXT(
  'core data for automotive mechanical design processes');
#3 = SHAPE_DEFINITION_REPRESENTATION(#4,#10);
#4 = PRODUCT_DEFINITION_SHAPE('','',#5);
#5 = PRODUCT_DEFINITION('design','',#6,#9);
#6 = PRODUCT_DEFINITION_FORMATION('','',#7);
#7 = PRODUCT('Open CASCADE STEP translator 7.9 20',
  'Open CASCADE STEP translator 7.9 20','',(#8));
#8 = PRODUCT_CONTEXT('',#2,'mechanical');
#9 = PRODUCT_DEFINITION_CONTEXT('part definition',#2,'design');
#10 = MANIFOLD_SURFACE_SHAPE_REPRESENTATION('',(#11,#15),#161);
#11 = AXIS2_PLACEMENT_3D('',#12,#13,#14);
#12 = CARTESIAN_POINT('',(0.,0.,0.));
#13 = DIRECTION('',(0.,0.,1.));
#14 = DIRECTION('',(1.,0.,-0.));
#15 = SHELL_BASED_SURFACE_MODEL('',(#16));
#16 = OPEN_SHELL('',(#17));
#17 = ADVANCED_FACE('',(#18),#50,.T.);
#18 = FACE_BOUND('',#19,.T.);
#19 = EDGE_LOOP('',(#20,#79,#95,#147));
#20 = ORIENTED_EDGE('',*,*,#21,.T.);
#21 = EDGE_CURVE('',#22,#24,#26,.T.);
#22 = VERTEX_POINT('',#23);
#23 = CARTESIAN_POINT('',(0.,0.,0.));
#24 = VERTEX_POINT('',#25);
#25 = CARTESIAN_POINT('',(1.,0.,0.));
#26 = SURFACE_CURVE('',#27,(#49),.PCURVE_S1.);
#27 = B_SPLINE_CURVE_WITH_KNOTS('',1,(#28,#29,#30,#31,#32,#33,#34,#35,
    #36,#37,#38,#39,#40,#41,#42,#43,#44,#45,#46,#47,#48),.UNSPECIFIED.,
  .F.,.F.,(2,1,1,1,1,1,1,1,1,1,1,1,1,1,1,1,1,1,1,1,2),(0.,
    2.529653724951E-02,4.044784436589E-02,9.394483608654E-02,
    0.107938452054,0.252324401092,0.283215744125,0.304349410505,
    0.320648412243,0.353559159427,0.407297066353,0.473160325662,
    0.510775928263,0.627329160779,0.686101820971,0.701792773258,
    0.813618398824,0.836444847245,0.953398056236,0.973483455088,1.),
  .UNSPECIFIED.);
#28 = CARTESIAN_POINT('',(0.,-0.,0.));
#29 = CARTESIAN_POINT('',(2.500886342978E-02,-4.405944096955E-03,0.));
#30 = CARTESIAN_POINT('',(3.799283588238E-02,3.515610100799E-03,0.));
#31 = CARTESIAN_POINT('',(9.157521492893E-02,-8.352738446942E-05,0.));
#32 = CARTESIAN_POINT('',(0.105583962077,9.596560925923E-04,0.));
#33 = CARTESIAN_POINT('',(0.250524546075,2.583127051738E-04,0.));
#34 = CARTESIAN_POINT('',(0.281331104112,3.807824738023E-03,0.));
#35 = CARTESIAN_POINT('',(0.302545678738,3.659053901272E-03,0.));
#36 = CARTESIAN_POINT('',(0.318844008527,2.219244542187E-03,0.));
#37 = CARTESIAN_POINT('',(0.351880490521,1.952953962392E-03,0.));
#38 = CARTESIAN_POINT('',(0.405811384559,7.209678631865E-04,0.));
#39 = CARTESIAN_POINT('',(0.471903067059,-1.109875470366E-03,0.));
#40 = CARTESIAN_POINT('',(0.509662865796,-1.346291174183E-03,0.));
#41 = CARTESIAN_POINT('',(0.626643969613,8.818910341443E-04,0.));
#42 = CARTESIAN_POINT('',(0.685643078277,9.12168905713E-04,0.));
#43 = CARTESIAN_POINT('',(0.701278069106,2.82371473303E-03,0.));
#44 = CARTESIAN_POINT('',(0.813473351966,-8.830624840901E-04,0.));
#45 = CARTESIAN_POINT('',(0.836226621466,1.829590886828E-03,0.));
#46 = CARTESIAN_POINT('',(0.953596833249,4.639401657226E-03,0.));
#47 = CARTESIAN_POINT('',(0.973393794719,8.159995584314E-04,0.));
#48 = CARTESIAN_POINT('',(1.,-0.,0.));
#49 = PCURVE('',#50,#55);
#50 = PLANE('',#51);
#51 = AXIS2_PLACEMENT_3D('',#52,#53,#54);
#52 = CARTESIAN_POINT('',(0.498973825151,2.5E-02,0.));
#53 = DIRECTION('',(0.,0.,1.));
#54 = DIRECTION('',(1.,0.,-0.));
#55 = DEFINITIONAL_REPRESENTATION('',(#56),#78);
#56 = B_SPLINE_CURVE_WITH_KNOTS('',1,(#57,#58,#59,#60,#61,#62,#63,#64,
    #65,#66,#67,#68,#69,#70,#71,#72,#73,#74,#75,#76,#77),.UNSPECIFIED.,
  .F.,.F.,(2,1,1,1,1,1,1,1,1,1,1,1,1,1,1,1,1,1,1,1,2),(0.,
    2.529653724951E-02,4.044784436589E-02,9.394483608654E-02,
    0.107938452054,0.252324401092,0.283215744125,0.304349410505,
    0.320648412243,0.353559159427,0.407297066353,0.473160325662,
    0.510775928263,0.627329160779,0.686101820971,0.701792773258,
    0.813618398824,0.836444847245,0.953398056236,0.973483455088,1.),
  .UNSPECIFIED.);
#57 = CARTESIAN_POINT('',(-0.498973825151,-2.5E-02));
#58 = CARTESIAN_POINT('',(-0.473964961721,-2.940594409696E-02));
#59 = CARTESIAN_POINT('',(-0.460980989268,-2.14843898992E-02));
#60 = CARTESIAN_POINT('',(-0.407398610222,-2.508352738447E-02));
#61 = CARTESIAN_POINT('',(-0.393389863073,-2.404034390741E-02));
#62 = CARTESIAN_POINT('',(-0.248449279076,-2.474168729483E-02));
#63 = CARTESIAN_POINT('',(-0.217642721038,-2.119217526198E-02));
#64 = CARTESIAN_POINT('',(-0.196428146413,-2.134094609873E-02));
#65 = CARTESIAN_POINT('',(-0.180129816624,-2.278075545781E-02));
#66 = CARTESIAN_POINT('',(-0.14709333463,-2.304704603761E-02));
#67 = CARTESIAN_POINT('',(-9.31624405922E-02,-2.427903213681E-02));
#68 = CARTESIAN_POINT('',(-2.70707580918E-02,-2.610987547037E-02));
#69 = CARTESIAN_POINT('',(1.068904064554E-02,-2.634629117418E-02));
#70 = CARTESIAN_POINT('',(0.127670144462,-2.411810896586E-02));
#71 = CARTESIAN_POINT('',(0.186669253126,-2.408783109429E-02));
#72 = CARTESIAN_POINT('',(0.202304243955,-2.217628526697E-02));
#73 = CARTESIAN_POINT('',(0.314499526816,-2.588306248409E-02));
#74 = CARTESIAN_POINT('',(0.337252796316,-2.317040911317E-02));
#75 = CARTESIAN_POINT('',(0.454623008098,-2.036059834277E-02));
#76 = CARTESIAN_POINT('',(0.474419969568,-2.418400044157E-02));
#77 = CARTESIAN_POINT('',(0.501026174849,-2.5E-02));
#78 = ( GEOMETRIC_REPRESENTATION_CONTEXT(2) 
PARAMETRIC_REPRESENTATION_CONTEXT() REPRESENTATION_CONTEXT('2D SPACE',''
  ) );
#79 = ORIENTED_EDGE('',*,*,#80,.T.);
#80 = EDGE_CURVE('',#24,#81,#83,.T.);
#81 = VERTEX_POINT('',#82);
#82 = CARTESIAN_POINT('',(1.,5.E-02,0.));
#83 = SURFACE_CURVE('',#84,(#88),.PCURVE_S1.);
#84 = LINE('',#85,#86);
#85 = CARTESIAN_POINT('',(1.,-0.,0.));
#86 = VECTOR('',#87,1.);
#87 = DIRECTION('',(0.,1.,0.));
#88 = PCURVE('',#50,#89);
#89 = DEFINITIONAL_REPRESENTATION('',(#90),#94);
#90 = LINE('',#91,#92);
#91 = CARTESIAN_POINT('',(0.501026174849,-2.5E-02));
#92 = VECTOR('',#93,1.);
#93 = DIRECTION('',(0.,1.));
#94 = ( GEOMETRIC_REPRESENTATION_CONTEXT(2) 
PARAMETRIC_REPRESENTATION_CONTEXT() REPRESENTATION_CONTEXT('2D SPACE',''
  ) );
#95 = ORIENTED_EDGE('',*,*,#96,.T.);
#96 = EDGE_CURVE('',#81,#97,#99,.T.);
#97 = VERTEX_POINT('',#98);
#98 = CARTESIAN_POINT('',(0.,5.E-02,0.));
#99 = SURFACE_CURVE('',#100,(#122),.PCURVE_S1.);
#100 = B_SPLINE_CURVE_WITH_KNOTS('',1,(#101,#102,#103,#104,#105,#106,
    #107,#108,#109,#110,#111,#112,#113,#114,#115,#116,#117,#118,#119,
    #120,#121),.UNSPECIFIED.,.F.,.F.,(2,1,1,1,1,1,1,1,1,1,1,1,1,1,1,1,1,
    1,1,1,2),(0.,2.651654491197E-02,4.660194376391E-02,0.163555152755,
    0.186381601176,0.298207226742,0.313898179029,0.372670839221,
    0.489224071737,0.526839674338,0.592702933647,0.646440840573,
    0.679351587757,0.695650589495,0.716784255875,0.747675598908,
    0.892061547946,0.906055163913,0.959552155634,0.97470346275,1.),
  .UNSPECIFIED.);
#101 = CARTESIAN_POINT('',(1.,5.E-02,0.));
#102 = CARTESIAN_POINT('',(0.973393794719,4.918400044157E-02,0.));
#103 = CARTESIAN_POINT('',(0.953596833249,4.536059834277E-02,0.));
#104 = CARTESIAN_POINT('',(0.836226621466,4.817040911317E-02,0.));
#105 = CARTESIAN_POINT('',(0.813473351966,5.088306248409E-02,0.));
#106 = CARTESIAN_POINT('',(0.701278069106,4.717628526697E-02,0.));
#107 = CARTESIAN_POINT('',(0.685643078277,4.908783109429E-02,0.));
#108 = CARTESIAN_POINT('',(0.626643969613,4.911810896586E-02,0.));
#109 = CARTESIAN_POINT('',(0.509662865796,5.134629117418E-02,0.));
#110 = CARTESIAN_POINT('',(0.471903067059,5.110987547037E-02,0.));
#111 = CARTESIAN_POINT('',(0.405811384559,4.927903213681E-02,0.));
#112 = CARTESIAN_POINT('',(0.351880490521,4.804704603761E-02,0.));
#113 = CARTESIAN_POINT('',(0.318844008527,4.778075545781E-02,0.));
#114 = CARTESIAN_POINT('',(0.302545678738,4.634094609873E-02,0.));
#115 = CARTESIAN_POINT('',(0.281331104112,4.619217526198E-02,0.));
#116 = CARTESIAN_POINT('',(0.250524546075,4.974168729483E-02,0.));
#117 = CARTESIAN_POINT('',(0.105583962077,4.904034390741E-02,0.));
#118 = CARTESIAN_POINT('',(9.157521492893E-02,5.008352738447E-02,0.));
#119 = CARTESIAN_POINT('',(3.799283588238E-02,4.64843898992E-02,0.));
#120 = CARTESIAN_POINT('',(2.500886342978E-02,5.440594409696E-02,0.));
#121 = CARTESIAN_POINT('',(0.,5.E-02,0.));
#122 = PCURVE('',#50,#123);
#123 = DEFINITIONAL_REPRESENTATION('',(#124),#146);
#124 = B_SPLINE_CURVE_WITH_KNOTS('',1,(#125,#126,#127,#128,#129,#130,
    #131,#132,#133,#134,#135,#136,#137,#138,#139,#140,#141,#142,#143,
    #144,#145),.UNSPECIFIED.,.F.,.F.,(2,1,1,1,1,1,1,1,1,1,1,1,1,1,1,1,1,
    1,1,1,2),(0.,2.651654491197E-02,4.660194376391E-02,0.163555152755,
    0.186381601176,0.298207226742,0.313898179029,0.372670839221,
    0.489224071737,0.526839674338,0.592702933647,0.646440840573,
    0.679351587757,0.695650589495,0.716784255875,0.747675598908,
    0.892061547946,0.906055163913,0.959552155634,0.97470346275,1.),
  .UNSPECIFIED.);
#125 = CARTESIAN_POINT('',(0.501026174849,2.5E-02));
#126 = CARTESIAN_POINT('',(0.474419969568,2.418400044157E-02));
#127 = CARTESIAN_POINT('',(0.454623008098,2.036059834277E-02));
#128 = CARTESIAN_POINT('',(0.337252796316,2.317040911317E-02));
#129 = CARTESIAN_POINT('',(0.314499526816,2.588306248409E-02));
#130 = CARTESIAN_POINT('',(0.202304243955,2.217628526697E-02));
#131 = CARTESIAN_POINT('',(0.186669253126,2.408783109429E-02));
#132 = CARTESIAN_POINT('',(0.127670144462,2.411810896586E-02));
#133 = CARTESIAN_POINT('',(1.068904064554E-02,2.634629117418E-02));
#134 = CARTESIAN_POINT('',(-2.70707580918E-02,2.610987547037E-02));
#135 = CARTESIAN_POINT('',(-9.31624405922E-02,2.427903213681E-02));
#136 = CARTESIAN_POINT('',(-0.14709333463,2.304704603761E-02));
#137 = CARTESIAN_POINT('',(-0.180129816624,2.278075545781E-02));
#138 = CARTESIAN_POINT('',(-0.196428146413,2.134094609873E-02));
#139 = CARTESIAN_POINT('',(-0.217642721038,2.119217526198E-02));
#140 = CARTESIAN_POINT('',(-0.248449279076,2.474168729483E-02));
#141 = CARTESIAN_POINT('',(-0.393389863073,2.404034390741E-02));
#142 = CARTESIAN_POINT('',(-0.407398610222,2.508352738447E-02));
#143 = CARTESIAN_POINT('',(-0.460980989268,2.14843898992E-02));
#144 = CARTESIAN_POINT('',(-0.473964961721,2.940594409696E-02));
#145 = CARTESIAN_POINT('',(-0.498973825151,2.5E-02));
#146 = ( GEOMETRIC_REPRESENTATION_CONTEXT(2) 
PARAMETRIC_REPRESENTATION_CONTEXT() REPRESENTATION_CONTEXT('2D SPACE',''
  ) );
#147 = ORIENTED_EDGE('',*,*,#148,.T.);
#148 = EDGE_CURVE('',#97,#22,#149,.T.);
#149 = SURFACE_CURVE('',#150,(#154),.PCURVE_S1.);
#150 = LINE('',#151,#152);
#151 = CARTESIAN_POINT('',(0.,5.E-02,0.));
#152 = VECTOR('',#153,1.);
#153 = DIRECTION('',(0.,-1.,0.));
#154 = PCURVE('',#50,#155);
#155 = DEFINITIONAL_REPRESENTATION('',(#156),#160);
#156 = LINE('',#157,#158);
#157 = CARTESIAN_POINT('',(-0.498973825151,2.5E-02));
#158 = VECTOR('',#159,1.);
#159 = DIRECTION('',(0.,-1.));
#160 = ( GEOMETRIC_REPRESENTATION_CONTEXT(2) 
PARAMETRIC_REPRESENTATION_CONTEXT() REPRESENTATION_CONTEXT('2D SPACE',''
  ) );
#161 = ( GEOMETRIC_REPRESENTATION_CONTEXT(3) 
GLOBAL_UNCERTAINTY_ASSIGNED_CONTEXT((#165)) GLOBAL_UNIT_ASSIGNED_CONTEXT
((#162,#163,#164)) REPRESENTATION_CONTEXT('Context #1',
  '3D Context with UNIT and UNCERTAINTY') );
#162 = ( LENGTH_UNIT() NAMED_UNIT(*) SI_UNIT(.MILLI.,.METRE.) );
#163 = ( NAMED_UNIT(*) PLANE_ANGLE_UNIT() SI_UNIT($,.RADIAN.) );
#164 = ( NAMED_UNIT(*) SI_UNIT($,.STERADIAN.) SOLID_ANGLE_UNIT() );
#165 = UNCERTAINTY_MEASURE_WITH_UNIT(LENGTH_MEASURE(1.E-07),#162,
  'distance_accuracy_value','confusion accuracy');
#166 = PRODUCT_RELATED_PRODUCT_CATEGORY('part',$,(#7));
ENDSEC;
END-ISO-10303-21;
