ISO-10303-21;
HEADER;
FILE_DESCRIPTION(('Open CASCADE Model'),'2;1');
FILE_NAME('Open CASCADE Shape Model','2026-08-17T20:30:05',('Author'),(
    'Open CASCADE'),'Open CASCADE STEP processor 7.9','Open CASCADE 7.9'
  ,'Unknown');
FILE_SCHEMA(('AUTOMOTIVE_DESIGN { 1 0 10303 214 1 1 1 1 }'));
ENDSEC;
DATA;
#1 = APPLICATION_PROTOCOL_DEFINITION('international standard',
  'automotive_design',2000,#2);
#2 = APPLICATION_CONTEXT(
  'core data for automotive mechanical design processes');
#3 = SHAPE_DEFINITION_REPRESENTATION(#4,#10);
#4 = PRODUCT_DEFINITION_SHAPE('','',#5);
#5 = PRODUCT_DEFINITION('design','',#6,#9);
#6 = PRODUCT_DEFINITION_FORMATION('','',#7);
#7 = PRODUCT('Open CASCADE STEP translator 7.9 73',
  'Open CASCADE STEP translator 7.9 73','',(#8));
#8 = PRODUCT_CONTEXT('',#2,'mechanical');
#9 = PRODUCT_DEFINITION_CONTEXT('part definition',#2,'design');
#10 = MANIFOLD_SURFACE_SHAPE_REPRESENTATION('',(#11,#15),#145);
#11 = AXIS2_PLACEMENT_3D('',#12,#13,#14);
#12 = CARTESIAN_POINT('',(0.,0.,0.));
#13 = DIRECTION('',(0.,0.,1.));
#14 = DIRECTION('',(1.,0.,-0.));
#15 = SHELL_BASED_SURFACE_MODEL('',(#16));
#16 = OPEN_SHELL('',(#17));
#17 = ADVANCED_FACE('',(#18),#46,.T.);
#18 = FACE_BOUND('',#19,.T.);
#19 = EDGE_LOOP('',(#20,#71,#87,#131));
#20 = ORIENTED_EDGE('',*,*,#21,.T.);
#21 = EDGE_CURVE('',#22,#24,#26,.T.);
#22 = VERTEX_POINT('',#23);
#23 = CARTESIAN_POINT('',(0.,0.,0.));
#24 = VERTEX_POINT('',#25);
#25 = CARTESIAN_POINT('',(1.,0.,0.));
#26 = SURFACE_CURVE('',#27,(#45),.PCURVE_S1.);
#27 = B_SPLINE_CURVE_WITH_KNOTS('',1,(#28,#29,#30,#31,#32,#33,#34,#35,
    #36,#37,#38,#39,#40,#41,#42,#43,#44),.UNSPECIFIED.,.F.,.F.,(2,1,1,1,
    1,1,1,1,1,1,1,1,1,1,1,1,2),(0.,2.610343575347E-02,4.89276909402E-02,
    6.564602310704E-02,0.109985130348,0.122798259685,0.140622485834,
    0.169937447502,0.283318336757,0.324014751265,0.400200706081,
    0.463015639395,0.485855817875,0.508093719702,0.770367899038,
    0.971474166001,1.),.UNSPECIFIED.);
#28 = CARTESIAN_POINT('',(0.,-0.,0.));
#29 = CARTESIAN_POINT('',(2.57386804468E-02,4.981811205607E-03,0.));
#30 = CARTESIAN_POINT('',(4.780307897977E-02,-1.233202728538E-03,0.));
#31 = CARTESIAN_POINT('',(6.433559444347E-02,1.699766086764E-03,0.));
#32 = CARTESIAN_POINT('',(0.10874004745,-1.654191195527E-03,0.));
#33 = CARTESIAN_POINT('',(0.121324901657,-4.341458181411E-03,0.));
#34 = CARTESIAN_POINT('',(0.139004605011,-1.533232747559E-03,0.));
#35 = CARTESIAN_POINT('',(0.168445391411,-1.289951964286E-03,0.));
#36 = CARTESIAN_POINT('',(0.282309662133,-1.337232165411E-05,0.));
#37 = CARTESIAN_POINT('',(0.323023155909,-3.614971238498E-03,0.));
#38 = CARTESIAN_POINT('',(0.399526579803,-2.251674125472E-03,0.));
#39 = CARTESIAN_POINT('',(0.462611389599,-2.739941622702E-03,0.));
#40 = CARTESIAN_POINT('',(0.484382351692,4.486587551506E-03,0.));
#41 = CARTESIAN_POINT('',(0.5060729478,-8.36066801158E-04,0.));
#42 = CARTESIAN_POINT('',(0.769432918764,4.240611623937E-03,0.));
#43 = CARTESIAN_POINT('',(0.971390883821,1.515909868296E-03,0.));
#44 = CARTESIAN_POINT('',(1.,-0.,0.));
#45 = PCURVE('',#46,#51);
#46 = PLANE('',#47);
#47 = AXIS2_PLACEMENT_3D('',#48,#49,#50);
#48 = CARTESIAN_POINT('',(0.499039202195,3.125E-02,0.));
#49 = DIRECTION('',(0.,0.,1.));
#50 = DIRECTION('',(1.,0.,-0.));
#51 = DEFINITIONAL_REPRESENTATION('',(#52),#70);
#52 = B_SPLINE_CURVE_WITH_KNOTS('',1,(#53,#54,#55,#56,#57,#58,#59,#60,
    #61,#62,#63,#64,#65,#66,#67,#68,#69),.UNSPECIFIED.,.F.,.F.,(2,1,1,1,
    1,1,1,1,1,1,1,1,1,1,1,1,2),(0.,2.610343575347E-02,4.89276909402E-02,
    6.564602310704E-02,0.109985130348,0.122798259685,0.140622485834,
    0.169937447502,0.283318336757,0.324014751265,0.400200706081,
    0.463015639395,0.485855817875,0.508093719702,0.770367899038,
    0.971474166001,1.),.UNSPECIFIED.);
#53 = CARTESIAN_POINT('',(-0.499039202195,-3.125E-02));
#54 = CARTESIAN_POINT('',(-0.473300521749,-2.626818879439E-02));
#55 = CARTESIAN_POINT('',(-0.451236123216,-3.248320272854E-02));
#56 = CARTESIAN_POINT('',(-0.434703607752,-2.955023391324E-02));
#57 = CARTESIAN_POINT('',(-0.390299154745,-3.290419119553E-02));
#58 = CARTESIAN_POINT('',(-0.377714300538,-3.559145818141E-02));
#59 = CARTESIAN_POINT('',(-0.360034597185,-3.278323274756E-02));
#60 = CARTESIAN_POINT('',(-0.330593810784,-3.253995196429E-02));
#61 = CARTESIAN_POINT('',(-0.216729540062,-3.126337232165E-02));
#62 = CARTESIAN_POINT('',(-0.176016046287,-3.48649712385E-02));
#63 = CARTESIAN_POINT('',(-9.951262239279E-02,-3.350167412547E-02));
#64 = CARTESIAN_POINT('',(-3.642781259649E-02,-3.39899416227E-02));
#65 = CARTESIAN_POINT('',(-1.465685050335E-02,-2.676341244849E-02));
#66 = CARTESIAN_POINT('',(7.033745604758E-03,-3.208606680116E-02));
#67 = CARTESIAN_POINT('',(0.270393716569,-2.700938837606E-02));
#68 = CARTESIAN_POINT('',(0.472351681625,-2.97340901317E-02));
#69 = CARTESIAN_POINT('',(0.500960797805,-3.125E-02));
#70 = ( GEOMETRIC_REPRESENTATION_CONTEXT(2) 
PARAMETRIC_REPRESENTATION_CONTEXT() REPRESENTATION_CONTEXT('2D SPACE',''
  ) );
#71 = ORIENTED_EDGE('',*,*,#72,.T.);
#72 = EDGE_CURVE('',#24,#73,#75,.T.);
#73 = VERTEX_POINT('',#74);
#74 = CARTESIAN_POINT('',(1.,6.25E-02,0.));
#75 = SURFACE_CURVE('',#76,(#80),.PCURVE_S1.);
#76 = LINE('',#77,#78);
#77 = CARTESIAN_POINT('',(1.,-0.,0.));
#78 = VECTOR('',#79,1.);
#79 = DIRECTION('',(0.,1.,0.));
#80 = PCURVE('',#46,#81);
#81 = DEFINITIONAL_REPRESENTATION('',(#82),#86);
#82 = LINE('',#83,#84);
#83 = CARTESIAN_POINT('',(0.500960797805,-3.125E-02));
#84 = VECTOR('',#85,1.);
#85 = DIRECTION('',(0.,1.));
#86 = ( GEOMETRIC_REPRESENTATION_CONTEXT(2) 
PARAMETRIC_REPRESENTATION_CONTEXT() REPRESENTATION_CONTEXT('2D SPACE',''
  ) );
#87 = ORIENTED_EDGE('',*,*,#88,.T.);
#88 = EDGE_CURVE('',#73,#89,#91,.T.);
#89 = VERTEX_POINT('',#90);
#90 = CARTESIAN_POINT('',(0.,6.25E-02,0.));
#91 = SURFACE_CURVE('',#92,(#110),.PCURVE_S1.);
#92 = B_SPLINE_CURVE_WITH_KNOTS('',1,(#93,#94,#95,#96,#97,#98,#99,#100,
    #101,#102,#103,#104,#105,#106,#107,#108,#109),.UNSPECIFIED.,.F.,.F.,
  (2,1,1,1,1,1,1,1,1,1,1,1,1,1,1,1,2),(0.,2.852583399893E-02,
    0.229632100962,0.491906280298,0.514144182125,0.536984360605,
    0.599799293919,0.675985248735,0.716681663243,0.830062552498,
    0.859377514166,0.877201740315,0.890014869652,0.934353976893,
    0.95107230906,0.973896564247,1.),.UNSPECIFIED.);
#93 = CARTESIAN_POINT('',(1.,6.25E-02,0.));
#94 = CARTESIAN_POINT('',(0.971390883821,6.09840901317E-02,0.));
#95 = CARTESIAN_POINT('',(0.769432918764,5.825938837606E-02,0.));
#96 = CARTESIAN_POINT('',(0.5060729478,6.333606680116E-02,0.));
#97 = CARTESIAN_POINT('',(0.484382351692,5.801341244849E-02,0.));
#98 = CARTESIAN_POINT('',(0.462611389599,6.52399416227E-02,0.));
#99 = CARTESIAN_POINT('',(0.399526579803,6.475167412547E-02,0.));
#100 = CARTESIAN_POINT('',(0.323023155909,6.61149712385E-02,0.));
#101 = CARTESIAN_POINT('',(0.282309662133,6.251337232165E-02,0.));
#102 = CARTESIAN_POINT('',(0.168445391411,6.378995196429E-02,0.));
#103 = CARTESIAN_POINT('',(0.139004605011,6.403323274756E-02,0.));
#104 = CARTESIAN_POINT('',(0.121324901657,6.684145818141E-02,0.));
#105 = CARTESIAN_POINT('',(0.10874004745,6.415419119553E-02,0.));
#106 = CARTESIAN_POINT('',(6.433559444347E-02,6.080023391324E-02,0.));
#107 = CARTESIAN_POINT('',(4.780307897977E-02,6.373320272854E-02,0.));
#108 = CARTESIAN_POINT('',(2.57386804468E-02,5.751818879439E-02,0.));
#109 = CARTESIAN_POINT('',(0.,6.25E-02,0.));
#110 = PCURVE('',#46,#111);
#111 = DEFINITIONAL_REPRESENTATION('',(#112),#130);
#112 = B_SPLINE_CURVE_WITH_KNOTS('',1,(#113,#114,#115,#116,#117,#118,
    #119,#120,#121,#122,#123,#124,#125,#126,#127,#128,#129),
  .UNSPECIFIED.,.F.,.F.,(2,1,1,1,1,1,1,1,1,1,1,1,1,1,1,1,2),(0.,
    2.852583399893E-02,0.229632100962,0.491906280298,0.514144182125,
    0.536984360605,0.599799293919,0.675985248735,0.716681663243,
    0.830062552498,0.859377514166,0.877201740315,0.890014869652,
    0.934353976893,0.95107230906,0.973896564247,1.),.UNSPECIFIED.);
#113 = CARTESIAN_POINT('',(0.500960797805,3.125E-02));
#114 = CARTESIAN_POINT('',(0.472351681625,2.97340901317E-02));
#115 = CARTESIAN_POINT('',(0.270393716569,2.700938837606E-02));
#116 = CARTESIAN_POINT('',(7.033745604758E-03,3.208606680116E-02));
#117 = CARTESIAN_POINT('',(-1.465685050335E-02,2.676341244849E-02));
#118 = CARTESIAN_POINT('',(-3.642781259649E-02,3.39899416227E-02));
#119 = CARTESIAN_POINT('',(-9.951262239279E-02,3.350167412547E-02));
#120 = CARTESIAN_POINT('',(-0.176016046287,3.48649712385E-02));
#121 = CARTESIAN_POINT('',(-0.216729540062,3.126337232165E-02));
#122 = CARTESIAN_POINT('',(-0.330593810784,3.253995196429E-02));
#123 = CARTESIAN_POINT('',(-0.360034597185,3.278323274756E-02));
#124 = CARTESIAN_POINT('',(-0.377714300538,3.559145818141E-02));
#125 = CARTESIAN_POINT('',(-0.390299154745,3.290419119553E-02));
#126 = CARTESIAN_POINT('',(-0.434703607752,2.955023391324E-02));
#127 = CARTESIAN_POINT('',(-0.451236123216,3.248320272854E-02));
#128 = CARTESIAN_POINT('',(-0.473300521749,2.626818879439E-02));
#129 = CARTESIAN_POINT('',(-0.499039202195,3.125E-02));
#130 = ( GEOMETRIC_REPRESENTATION_CONTEXT(2) 
PARAMETRIC_REPRESENTATION_CONTEXT() REPRESENTATION_CONTEXT('2D SPACE',''
  ) );
#131 = ORIENTED_EDGE('',*,*,#132,.T.);
#132 = EDGE_CURVE('',#89,#22,#133,.T.);
#133 = SURFACE_CURVE('',#134,(#138),.PCURVE_S1.);
#134 = LINE('',#135,#136);
#135 = CARTESIAN_POINT('',(0.,6.25E-02,0.));
#136 = VECTOR('',#137,1.);
#137 = DIRECTION('',(0.,-1.,0.));
#138 = PCURVE('',#46,#139);
#139 = DEFINITIONAL_REPRESENTATION('',(#140),#144);
#140 = LINE('',#141,#142);
#141 = CARTESIAN_POINT('',(-0.499039202195,3.125E-02));
#142 = VECTOR('',#143,1.);
#143 = DIRECTION('',(0.,-1.));
#144 = ( GEOMETRIC_REPRESENTATION_CONTEXT(2) 
PARAMETRIC_REPRESENTATION_CONTEXT() REPRESENTATION_CONTEXT('2D SPACE',''
  ) );
#145 = ( GEOMETRIC_REPRESENTATION_CONTEXT(3) 
GLOBAL_UNCERTAINTY_ASSIGNED_CONTEXT((#149)) GLOBAL_UNIT_ASSIGNED_CONTEXT
((#146,#147,#148)) REPRESENTATION_CONTEXT('Context #1',
  '3D Context with UNIT and UNCERTAINTY') );
#146 = ( LENGTH_UNIT() NAMED_UNIT(*) SI_UNIT(.MILLI.,.METRE.) );
#147 = ( NAMED_UNIT(*) PLANE_ANGLE_UNIT() SI_UNIT($,.RADIAN.) );
#148 = ( NAMED_UNIT(*) SI_UNIT($,.STERADIAN.) SOLID_ANGLE_UNIT() );
#149 = UNCERTAINTY_MEASURE_WITH_UNIT(LENGTH_MEASURE(1.E-07),#146,
  'distance_accuracy_value','confusion accuracy');
#150 = PRODUCT_RELATED_PRODUCT_CATEGORY('part',$,(#7));
ENDSEC;
END-ISO-10303-21;
