ISO-10303-21;
HEADER;
FILE_DESCRIPTION(('Open CASCADE Model'),'2;1');
FILE_NAME('Open CASCADE Shape Model','2026-08-17T20:30:04',('Author'),(
    'Open CASCADE'),'Open CASCADE STEP processor 7.9','Open CASCADE 7.9'
  ,'Unknown');
FILE_SCHEMA(('AUTOMOTIVE_DESIGN { 1 0 10303 214 1 1 1 1 }'));
ENDSEC;
DATA;
#1 = APPLICATION_PROTOCOL_DEFINITION('international standard',
  'automotive_design',2000,#2);
#2 = APPLICATION_CONTEXT(
  'core data for automotive mechanical design processes');
#3 = SHAPE_DEFINITION_REPRESENTATION(#4,#10);
#4 = PRODUCT_DEFINITION_SHAPE('','',#5);
#5 = PRODUCT_DEFINITION('design','',#6,#9);
#6 = PRODUCT_DEFINITION_FORMATION('','',#7);
#7 = PRODUCT('Open CASCADE STEP translator 7.9 45',
  'Open CASCADE STEP translator 7.9 45','',(#8));
#8 = PRODUCT_CONTEXT('',#2,'mechanical');
#9 = PRODUCT_DEFINITION_CONTEXT('part definition',#2,'design');
#10 = MANIFOLD_SURFACE_SHAPE_REPRESENTATION('',(#11,#15),#145);
#11 = AXIS2_PLACEMENT_3D('',#12,#13,#14);
#12 = CARTESIAN_POINT('',(0.,0.,0.));
#13 = DIRECTION('',(0.,0.,1.));
#14 = DIRECTION('',(1.,0.,-0.));
#15 = SHELL_BASED_SURFACE_MODEL('',(#16));
#16 = OPEN_SHELL('',(#17));
#17 = ADVANCED_FACE('',(#18),#46,.T.);
#18 = FACE_BOUND('',#19,.T.);
#19 = EDGE_LOOP('',(#20,#71,#87,#131));
#20 = ORIENTED_EDGE('',*,*,#21,.T.);
#21 = EDGE_CURVE('',#22,#24,#26,.T.);
#22 = VERTEX_POINT('',#23);
#23 = CARTESIAN_POINT('',(0.,0.,0.));
#24 = VERTEX_POINT('',#25);
#25 = CARTESIAN_POINT('',(1.,0.,0.));
#26 = SURFACE_CURVE('',#27,(#45),.PCURVE_S1.);
#27 = B_SPLINE_CURVE_WITH_KNOTS('',1,(#28,#29,#30,#31,#32,#33,#34,#35,
    #36,#37,#38,#39,#40,#41,#42,#43,#44),.UNSPECIFIED.,.F.,.F.,(2,1,1,1,
    1,1,1,1,1,1,1,1,1,1,1,1,2),(0.,0.111871910819,0.156483434028,
    0.345955904876,0.384791636757,0.444938448415,0.556087354738,
    0.572514068072,0.624962411717,0.648431241489,0.683711668229,
    0.728082999418,0.775863886259,0.803784757077,0.850575073703,
    0.952892510217,1.),.UNSPECIFIED.);
#28 = CARTESIAN_POINT('',(0.,-0.,0.));
#29 = CARTESIAN_POINT('',(0.112340786076,-2.186170671381E-03,0.));
#30 = CARTESIAN_POINT('',(0.156971141778,1.788347433953E-03,0.));
#31 = CARTESIAN_POINT('',(0.347264185585,3.696187032975E-03,0.));
#32 = CARTESIAN_POINT('',(0.385749416763,-2.655654627179E-03,0.));
#33 = CARTESIAN_POINT('',(0.446152656646,-3.581376515826E-03,0.));
#34 = CARTESIAN_POINT('',(0.557566262375,3.459854972828E-03,0.));
#35 = CARTESIAN_POINT('',(0.572483937802,-3.587806038151E-03,0.));
#36 = CARTESIAN_POINT('',(0.62514963019,-4.732723396911E-03,0.));
#37 = CARTESIAN_POINT('',(0.647763872905,1.917005304695E-03,0.));
#38 = CARTESIAN_POINT('',(0.683193227971,1.284473169296E-03,0.));
#39 = CARTESIAN_POINT('',(0.727758951364,1.317307023465E-03,0.));
#40 = CARTESIAN_POINT('',(0.775741626189,2.168798761639E-03,0.));
#41 = CARTESIAN_POINT('',(0.803776655489,2.845729081136E-03,0.));
#42 = CARTESIAN_POINT('',(0.850235136596,-4.237318506715E-03,0.));
#43 = CARTESIAN_POINT('',(0.952764693701,2.725668912898E-03,0.));
#44 = CARTESIAN_POINT('',(1.,-0.,0.));
#45 = PCURVE('',#46,#51);
#46 = PLANE('',#47);
#47 = AXIS2_PLACEMENT_3D('',#48,#49,#50);
#48 = CARTESIAN_POINT('',(0.500376481999,3.125E-02,0.));
#49 = DIRECTION('',(0.,0.,1.));
#50 = DIRECTION('',(1.,0.,-0.));
#51 = DEFINITIONAL_REPRESENTATION('',(#52),#70);
#52 = B_SPLINE_CURVE_WITH_KNOTS('',1,(#53,#54,#55,#56,#57,#58,#59,#60,
    #61,#62,#63,#64,#65,#66,#67,#68,#69),.UNSPECIFIED.,.F.,.F.,(2,1,1,1,
    1,1,1,1,1,1,1,1,1,1,1,1,2),(0.,0.111871910819,0.156483434028,
    0.345955904876,0.384791636757,0.444938448415,0.556087354738,
    0.572514068072,0.624962411717,0.648431241489,0.683711668229,
    0.728082999418,0.775863886259,0.803784757077,0.850575073703,
    0.952892510217,1.),.UNSPECIFIED.);
#53 = CARTESIAN_POINT('',(-0.500376481999,-3.125E-02));
#54 = CARTESIAN_POINT('',(-0.388035695923,-3.343617067138E-02));
#55 = CARTESIAN_POINT('',(-0.343405340222,-2.946165256605E-02));
#56 = CARTESIAN_POINT('',(-0.153112296415,-2.755381296702E-02));
#57 = CARTESIAN_POINT('',(-0.114627065236,-3.390565462718E-02));
#58 = CARTESIAN_POINT('',(-5.422382535321E-02,-3.483137651583E-02));
#59 = CARTESIAN_POINT('',(5.718978037537E-02,-2.779014502717E-02));
#60 = CARTESIAN_POINT('',(7.210745580246E-02,-3.483780603815E-02));
#61 = CARTESIAN_POINT('',(0.12477314819,-3.598272339691E-02));
#62 = CARTESIAN_POINT('',(0.147387390906,-2.933299469531E-02));
#63 = CARTESIAN_POINT('',(0.182816745972,-2.99655268307E-02));
#64 = CARTESIAN_POINT('',(0.227382469364,-2.993269297654E-02));
#65 = CARTESIAN_POINT('',(0.27536514419,-2.908120123836E-02));
#66 = CARTESIAN_POINT('',(0.303400173489,-2.840427091886E-02));
#67 = CARTESIAN_POINT('',(0.349858654597,-3.548731850672E-02));
#68 = CARTESIAN_POINT('',(0.452388211702,-2.85243310871E-02));
#69 = CARTESIAN_POINT('',(0.499623518001,-3.125E-02));
#70 = ( GEOMETRIC_REPRESENTATION_CONTEXT(2) 
PARAMETRIC_REPRESENTATION_CONTEXT() REPRESENTATION_CONTEXT('2D SPACE',''
  ) );
#71 = ORIENTED_EDGE('',*,*,#72,.T.);
#72 = EDGE_CURVE('',#24,#73,#75,.T.);
#73 = VERTEX_POINT('',#74);
#74 = CARTESIAN_POINT('',(1.,6.25E-02,0.));
#75 = SURFACE_CURVE('',#76,(#80),.PCURVE_S1.);
#76 = LINE('',#77,#78);
#77 = CARTESIAN_POINT('',(1.,-0.,0.));
#78 = VECTOR('',#79,1.);
#79 = DIRECTION('',(0.,1.,0.));
#80 = PCURVE('',#46,#81);
#81 = DEFINITIONAL_REPRESENTATION('',(#82),#86);
#82 = LINE('',#83,#84);
#83 = CARTESIAN_POINT('',(0.499623518001,-3.125E-02));
#84 = VECTOR('',#85,1.);
#85 = DIRECTION('',(0.,1.));
#86 = ( GEOMETRIC_REPRESENTATION_CONTEXT(2) 
PARAMETRIC_REPRESENTATION_CONTEXT() REPRESENTATION_CONTEXT('2D SPACE',''
  ) );
#87 = ORIENTED_EDGE('',*,*,#88,.T.);
#88 = EDGE_CURVE('',#73,#89,#91,.T.);
#89 = VERTEX_POINT('',#90);
#90 = CARTESIAN_POINT('',(0.,6.25E-02,0.));
#91 = SURFACE_CURVE('',#92,(#110),.PCURVE_S1.);
#92 = B_SPLINE_CURVE_WITH_KNOTS('',1,(#93,#94,#95,#96,#97,#98,#99,#100,
    #101,#102,#103,#104,#105,#106,#107,#108,#109),.UNSPECIFIED.,.F.,.F.,
  (2,1,1,1,1,1,1,1,1,1,1,1,1,1,1,1,2),(0.,4.710748978292E-02,
    0.149424926297,0.196215242923,0.224136113741,0.271917000582,
    0.316288331771,0.351568758511,0.375037588283,0.427485931928,
    0.443912645262,0.555061551585,0.615208363243,0.654044095124,
    0.843516565972,0.888128089181,1.),.UNSPECIFIED.);
#93 = CARTESIAN_POINT('',(1.,6.25E-02,0.));
#94 = CARTESIAN_POINT('',(0.952764693701,5.97743310871E-02,0.));
#95 = CARTESIAN_POINT('',(0.850235136596,6.673731850672E-02,0.));
#96 = CARTESIAN_POINT('',(0.803776655489,5.965427091886E-02,0.));
#97 = CARTESIAN_POINT('',(0.775741626189,6.033120123836E-02,0.));
#98 = CARTESIAN_POINT('',(0.727758951364,6.118269297654E-02,0.));
#99 = CARTESIAN_POINT('',(0.683193227971,6.12155268307E-02,0.));
#100 = CARTESIAN_POINT('',(0.647763872905,6.058299469531E-02,0.));
#101 = CARTESIAN_POINT('',(0.62514963019,6.723272339691E-02,0.));
#102 = CARTESIAN_POINT('',(0.572483937802,6.608780603815E-02,0.));
#103 = CARTESIAN_POINT('',(0.557566262375,5.904014502717E-02,0.));
#104 = CARTESIAN_POINT('',(0.446152656646,6.608137651583E-02,0.));
#105 = CARTESIAN_POINT('',(0.385749416763,6.515565462718E-02,0.));
#106 = CARTESIAN_POINT('',(0.347264185585,5.880381296702E-02,0.));
#107 = CARTESIAN_POINT('',(0.156971141778,6.071165256605E-02,0.));
#108 = CARTESIAN_POINT('',(0.112340786076,6.468617067138E-02,0.));
#109 = CARTESIAN_POINT('',(0.,6.25E-02,0.));
#110 = PCURVE('',#46,#111);
#111 = DEFINITIONAL_REPRESENTATION('',(#112),#130);
#112 = B_SPLINE_CURVE_WITH_KNOTS('',1,(#113,#114,#115,#116,#117,#118,
    #119,#120,#121,#122,#123,#124,#125,#126,#127,#128,#129),
  .UNSPECIFIED.,.F.,.F.,(2,1,1,1,1,1,1,1,1,1,1,1,1,1,1,1,2),(0.,
    4.710748978292E-02,0.149424926297,0.196215242923,0.224136113741,
    0.271917000582,0.316288331771,0.351568758511,0.375037588283,
    0.427485931928,0.443912645262,0.555061551585,0.615208363243,
    0.654044095124,0.843516565972,0.888128089181,1.),.UNSPECIFIED.);
#113 = CARTESIAN_POINT('',(0.499623518001,3.125E-02));
#114 = CARTESIAN_POINT('',(0.452388211702,2.85243310871E-02));
#115 = CARTESIAN_POINT('',(0.349858654597,3.548731850672E-02));
#116 = CARTESIAN_POINT('',(0.303400173489,2.840427091886E-02));
#117 = CARTESIAN_POINT('',(0.27536514419,2.908120123836E-02));
#118 = CARTESIAN_POINT('',(0.227382469364,2.993269297654E-02));
#119 = CARTESIAN_POINT('',(0.182816745972,2.99655268307E-02));
#120 = CARTESIAN_POINT('',(0.147387390906,2.933299469531E-02));
#121 = CARTESIAN_POINT('',(0.12477314819,3.598272339691E-02));
#122 = CARTESIAN_POINT('',(7.210745580246E-02,3.483780603815E-02));
#123 = CARTESIAN_POINT('',(5.718978037537E-02,2.779014502717E-02));
#124 = CARTESIAN_POINT('',(-5.422382535321E-02,3.483137651583E-02));
#125 = CARTESIAN_POINT('',(-0.114627065236,3.390565462718E-02));
#126 = CARTESIAN_POINT('',(-0.153112296415,2.755381296702E-02));
#127 = CARTESIAN_POINT('',(-0.343405340222,2.946165256605E-02));
#128 = CARTESIAN_POINT('',(-0.388035695923,3.343617067138E-02));
#129 = CARTESIAN_POINT('',(-0.500376481999,3.125E-02));
#130 = ( GEOMETRIC_REPRESENTATION_CONTEXT(2) 
PARAMETRIC_REPRESENTATION_CONTEXT() REPRESENTATION_CONTEXT('2D SPACE',''
  ) );
#131 = ORIENTED_EDGE('',*,*,#132,.T.);
#132 = EDGE_CURVE('',#89,#22,#133,.T.);
#133 = SURFACE_CURVE('',#134,(#138),.PCURVE_S1.);
#134 = LINE('',#135,#136);
#135 = CARTESIAN_POINT('',(0.,6.25E-02,0.));
#136 = VECTOR('',#137,1.);
#137 = DIRECTION('',(0.,-1.,0.));
#138 = PCURVE('',#46,#139);
#139 = DEFINITIONAL_REPRESENTATION('',(#140),#144);
#140 = LINE('',#141,#142);
#141 = CARTESIAN_POINT('',(-0.500376481999,3.125E-02));
#142 = VECTOR('',#143,1.);
#143 = DIRECTION('',(0.,-1.));
#144 = ( GEOMETRIC_REPRESENTATION_CONTEXT(2) 
PARAMETRIC_REPRESENTATION_CONTEXT() REPRESENTATION_CONTEXT('2D SPACE',''
  ) );
#145 = ( GEOMETRIC_REPRESENTATION_CONTEXT(3) 
GLOBAL_UNCERTAINTY_ASSIGNED_CONTEXT((#149)) GLOBAL_UNIT_ASSIGNED_CONTEXT
((#146,#147,#148)) REPRESENTATION_CONTEXT('Context #1',
  '3D Context with UNIT and UNCERTAINTY') );
#146 = ( LENGTH_UNIT() NAMED_UNIT(*) SI_UNIT(.MILLI.,.METRE.) );
#147 = ( NAMED_UNIT(*) PLANE_ANGLE_UNIT() SI_UNIT($,.RADIAN.) );
#148 = ( NAMED_UNIT(*) SI_UNIT($,.STERADIAN.) SOLID_ANGLE_UNIT() );
#149 = UNCERTAINTY_MEASURE_WITH_UNIT(LENGTH_MEASURE(1.E-07),#146,
  'distance_accuracy_value','confusion accuracy');
#150 = PRODUCT_RELATED_PRODUCT_CATEGORY('part',$,(#7));
ENDSEC;
END-ISO-10303-21;
