ISO-10303-21;
HEADER;
FILE_DESCRIPTION(('Open CASCADE Model'),'2;1');
FILE_NAME('Open CASCADE Shape Model','2026-07-21T00:13:23',('Author'),(
    'Open CASCADE'),'Open CASCADE STEP processor 7.9','Open CASCADE 7.9'
  ,'Unknown');
FILE_SCHEMA(('AUTOMOTIVE_DESIGN { 1 0 10303 214 1 1 1 1 }'));
ENDSEC;
DATA;
#1 = APPLICATION_PROTOCOL_DEFINITION('international standard',
  'automotive_design',2000,#2);
#2 = APPLICATION_CONTEXT(
  'core data for automotive mechanical design processes');
#3 = SHAPE_DEFINITION_REPRESENTATION(#4,#10);
#4 = PRODUCT_DEFINITION_SHAPE('','',#5);
#5 = PRODUCT_DEFINITION('design','',#6,#9);
#6 = PRODUCT_DEFINITION_FORMATION('','',#7);
#7 = PRODUCT('Open CASCADE STEP translator 7.9 13',
  'Open CASCADE STEP translator 7.9 13','',(#8));
#8 = PRODUCT_CONTEXT('',#2,'mechanical');
#9 = PRODUCT_DEFINITION_CONTEXT('part definition',#2,'design');
#10 = MANIFOLD_SURFACE_SHAPE_REPRESENTATION('',(#11,#15),#161);
#11 = AXIS2_PLACEMENT_3D('',#12,#13,#14);
#12 = CARTESIAN_POINT('',(0.,0.,0.));
#13 = DIRECTION('',(0.,0.,1.));
#14 = DIRECTION('',(1.,0.,-0.));
#15 = SHELL_BASED_SURFACE_MODEL('',(#16));
#16 = OPEN_SHELL('',(#17));
#17 = ADVANCED_FACE('',(#18),#50,.T.);
#18 = FACE_BOUND('',#19,.T.);
#19 = EDGE_LOOP('',(#20,#79,#95,#147));
#20 = ORIENTED_EDGE('',*,*,#21,.T.);
#21 = EDGE_CURVE('',#22,#24,#26,.T.);
#22 = VERTEX_POINT('',#23);
#23 = CARTESIAN_POINT('',(0.,0.,0.));
#24 = VERTEX_POINT('',#25);
#25 = CARTESIAN_POINT('',(2.,0.,0.));
#26 = SURFACE_CURVE('',#27,(#49),.PCURVE_S1.);
#27 = B_SPLINE_CURVE_WITH_KNOTS('',1,(#28,#29,#30,#31,#32,#33,#34,#35,
    #36,#37,#38,#39,#40,#41,#42,#43,#44,#45,#46,#47,#48),.UNSPECIFIED.,
  .F.,.F.,(2,1,1,1,1,1,1,1,1,1,1,1,1,1,1,1,1,1,1,1,2),(0.,
    3.938657203992E-02,6.321035383895E-02,8.487509697968E-02,
    0.176749892022,0.208263106004,0.26961587016,0.291312243898,
    0.308487869759,0.362391407223,0.426738896823,0.473249724877,
    0.52877887479,0.57789401926,0.62978689551,0.726241454282,
    0.844511465566,0.879902182523,0.89364145273,0.957520621642,1.),
  .UNSPECIFIED.);
#28 = CARTESIAN_POINT('',(0.,-0.,0.));
#29 = CARTESIAN_POINT('',(7.876089295623E-02,-4.368131505338E-03,0.));
#30 = CARTESIAN_POINT('',(0.125964129008,2.590294249943E-03,0.));
#31 = CARTESIAN_POINT('',(0.169337346964,3.772420675885E-03,0.));
#32 = CARTESIAN_POINT('',(0.353204297354,-3.311126721249E-03,0.));
#33 = CARTESIAN_POINT('',(0.415952720736,3.467156833755E-03,0.));
#34 = CARTESIAN_POINT('',(0.538827430492,3.207316918423E-03,0.));
#35 = CARTESIAN_POINT('',(0.582076536332,-9.938279152084E-04,0.));
#36 = CARTESIAN_POINT('',(0.61636498284,-3.745620408375E-03,0.));
#37 = CARTESIAN_POINT('',(0.724107745199,3.035653342854E-03,0.));
#38 = CARTESIAN_POINT('',(0.852975419534,1.896763270999E-03,0.));
#39 = CARTESIAN_POINT('',(0.946008360847,-2.774048382412E-03,0.));
#40 = CARTESIAN_POINT('',(1.057203036239,-4.71826426061E-03,0.));
#41 = CARTESIAN_POINT('',(1.1554561124,-7.411862023423E-06,0.));
#42 = CARTESIAN_POINT('',(1.259323913142,3.561024974487E-03,0.));
#43 = CARTESIAN_POINT('',(1.452495066234,4.860637122918E-03,0.));
#44 = CARTESIAN_POINT('',(1.689351927036,2.703439700011E-03,0.));
#45 = CARTESIAN_POINT('',(1.760224357749,3.681777822135E-03,0.));
#46 = CARTESIAN_POINT('',(1.787194032973,-1.776586736129E-03,0.));
#47 = CARTESIAN_POINT('',(1.915008005586,3.781674953715E-03,0.));
#48 = CARTESIAN_POINT('',(2.,-0.,0.));
#49 = PCURVE('',#50,#55);
#50 = PLANE('',#51);
#51 = AXIS2_PLACEMENT_3D('',#52,#53,#54);
#52 = CARTESIAN_POINT('',(0.999768363367,5.E-02,0.));
#53 = DIRECTION('',(0.,0.,1.));
#54 = DIRECTION('',(1.,0.,-0.));
#55 = DEFINITIONAL_REPRESENTATION('',(#56),#78);
#56 = B_SPLINE_CURVE_WITH_KNOTS('',1,(#57,#58,#59,#60,#61,#62,#63,#64,
    #65,#66,#67,#68,#69,#70,#71,#72,#73,#74,#75,#76,#77),.UNSPECIFIED.,
  .F.,.F.,(2,1,1,1,1,1,1,1,1,1,1,1,1,1,1,1,1,1,1,1,2),(0.,
    3.938657203992E-02,6.321035383895E-02,8.487509697968E-02,
    0.176749892022,0.208263106004,0.26961587016,0.291312243898,
    0.308487869759,0.362391407223,0.426738896823,0.473249724877,
    0.52877887479,0.57789401926,0.62978689551,0.726241454282,
    0.844511465566,0.879902182523,0.89364145273,0.957520621642,1.),
  .UNSPECIFIED.);
#57 = CARTESIAN_POINT('',(-0.999768363367,-5.E-02));
#58 = CARTESIAN_POINT('',(-0.92100747041,-5.436813150534E-02));
#59 = CARTESIAN_POINT('',(-0.873804234358,-4.740970575006E-02));
#60 = CARTESIAN_POINT('',(-0.830431016403,-4.622757932411E-02));
#61 = CARTESIAN_POINT('',(-0.646564066013,-5.331112672125E-02));
#62 = CARTESIAN_POINT('',(-0.583815642631,-4.653284316624E-02));
#63 = CARTESIAN_POINT('',(-0.460940932875,-4.679268308158E-02));
#64 = CARTESIAN_POINT('',(-0.417691827035,-5.099382791521E-02));
#65 = CARTESIAN_POINT('',(-0.383403380526,-5.374562040837E-02));
#66 = CARTESIAN_POINT('',(-0.275660618168,-4.696434665715E-02));
#67 = CARTESIAN_POINT('',(-0.146792943833,-4.8103236729E-02));
#68 = CARTESIAN_POINT('',(-5.376000251954E-02,-5.277404838241E-02));
#69 = CARTESIAN_POINT('',(5.743467287231E-02,-5.471826426061E-02));
#70 = CARTESIAN_POINT('',(0.155687749033,-5.000741186202E-02));
#71 = CARTESIAN_POINT('',(0.259555549775,-4.643897502551E-02));
#72 = CARTESIAN_POINT('',(0.452726702868,-4.513936287708E-02));
#73 = CARTESIAN_POINT('',(0.68958356367,-4.729656029999E-02));
#74 = CARTESIAN_POINT('',(0.760455994383,-4.631822217787E-02));
#75 = CARTESIAN_POINT('',(0.787425669606,-5.177658673613E-02));
#76 = CARTESIAN_POINT('',(0.91523964222,-4.621832504629E-02));
#77 = CARTESIAN_POINT('',(1.000231636633,-5.E-02));
#78 = ( GEOMETRIC_REPRESENTATION_CONTEXT(2) 
PARAMETRIC_REPRESENTATION_CONTEXT() REPRESENTATION_CONTEXT('2D SPACE',''
  ) );
#79 = ORIENTED_EDGE('',*,*,#80,.T.);
#80 = EDGE_CURVE('',#24,#81,#83,.T.);
#81 = VERTEX_POINT('',#82);
#82 = CARTESIAN_POINT('',(2.,0.1,0.));
#83 = SURFACE_CURVE('',#84,(#88),.PCURVE_S1.);
#84 = LINE('',#85,#86);
#85 = CARTESIAN_POINT('',(2.,-0.,0.));
#86 = VECTOR('',#87,1.);
#87 = DIRECTION('',(0.,1.,0.));
#88 = PCURVE('',#50,#89);
#89 = DEFINITIONAL_REPRESENTATION('',(#90),#94);
#90 = LINE('',#91,#92);
#91 = CARTESIAN_POINT('',(1.000231636633,-5.E-02));
#92 = VECTOR('',#93,1.);
#93 = DIRECTION('',(0.,1.));
#94 = ( GEOMETRIC_REPRESENTATION_CONTEXT(2) 
PARAMETRIC_REPRESENTATION_CONTEXT() REPRESENTATION_CONTEXT('2D SPACE',''
  ) );
#95 = ORIENTED_EDGE('',*,*,#96,.T.);
#96 = EDGE_CURVE('',#81,#97,#99,.T.);
#97 = VERTEX_POINT('',#98);
#98 = CARTESIAN_POINT('',(0.,0.1,0.));
#99 = SURFACE_CURVE('',#100,(#122),.PCURVE_S1.);
#100 = B_SPLINE_CURVE_WITH_KNOTS('',1,(#101,#102,#103,#104,#105,#106,
    #107,#108,#109,#110,#111,#112,#113,#114,#115,#116,#117,#118,#119,
    #120,#121),.UNSPECIFIED.,.F.,.F.,(2,1,1,1,1,1,1,1,1,1,1,1,1,1,1,1,1,
    1,1,1,2),(0.,4.247937835821E-02,0.10635854727,0.120097817477,
    0.155488534434,0.273758545718,0.37021310449,0.42210598074,
    0.47122112521,0.526750275123,0.573261103177,0.637608592777,
    0.691512130241,0.708687756102,0.73038412984,0.791736893996,
    0.823250107978,0.91512490302,0.936789646161,0.96061342796,1.),
  .UNSPECIFIED.);
#101 = CARTESIAN_POINT('',(2.,0.1,0.));
#102 = CARTESIAN_POINT('',(1.915008005586,9.621832504629E-02,0.));
#103 = CARTESIAN_POINT('',(1.787194032973,0.101776586736,0.));
#104 = CARTESIAN_POINT('',(1.760224357749,9.631822217787E-02,0.));
#105 = CARTESIAN_POINT('',(1.689351927036,9.729656029999E-02,0.));
#106 = CARTESIAN_POINT('',(1.452495066234,9.513936287708E-02,0.));
#107 = CARTESIAN_POINT('',(1.259323913142,9.643897502551E-02,0.));
#108 = CARTESIAN_POINT('',(1.1554561124,0.100007411862,0.));
#109 = CARTESIAN_POINT('',(1.057203036239,0.104718264261,0.));
#110 = CARTESIAN_POINT('',(0.946008360847,0.102774048382,0.));
#111 = CARTESIAN_POINT('',(0.852975419534,9.8103236729E-02,0.));
#112 = CARTESIAN_POINT('',(0.724107745199,9.696434665715E-02,0.));
#113 = CARTESIAN_POINT('',(0.61636498284,0.103745620408,0.));
#114 = CARTESIAN_POINT('',(0.582076536332,0.100993827915,0.));
#115 = CARTESIAN_POINT('',(0.538827430492,9.679268308158E-02,0.));
#116 = CARTESIAN_POINT('',(0.415952720736,9.653284316624E-02,0.));
#117 = CARTESIAN_POINT('',(0.353204297354,0.103311126721,0.));
#118 = CARTESIAN_POINT('',(0.169337346964,9.622757932411E-02,0.));
#119 = CARTESIAN_POINT('',(0.125964129008,9.740970575006E-02,0.));
#120 = CARTESIAN_POINT('',(7.876089295623E-02,0.104368131505,0.));
#121 = CARTESIAN_POINT('',(0.,0.1,0.));
#122 = PCURVE('',#50,#123);
#123 = DEFINITIONAL_REPRESENTATION('',(#124),#146);
#124 = B_SPLINE_CURVE_WITH_KNOTS('',1,(#125,#126,#127,#128,#129,#130,
    #131,#132,#133,#134,#135,#136,#137,#138,#139,#140,#141,#142,#143,
    #144,#145),.UNSPECIFIED.,.F.,.F.,(2,1,1,1,1,1,1,1,1,1,1,1,1,1,1,1,1,
    1,1,1,2),(0.,4.247937835821E-02,0.10635854727,0.120097817477,
    0.155488534434,0.273758545718,0.37021310449,0.42210598074,
    0.47122112521,0.526750275123,0.573261103177,0.637608592777,
    0.691512130241,0.708687756102,0.73038412984,0.791736893996,
    0.823250107978,0.91512490302,0.936789646161,0.96061342796,1.),
  .UNSPECIFIED.);
#125 = CARTESIAN_POINT('',(1.000231636633,5.E-02));
#126 = CARTESIAN_POINT('',(0.91523964222,4.621832504629E-02));
#127 = CARTESIAN_POINT('',(0.787425669606,5.177658673613E-02));
#128 = CARTESIAN_POINT('',(0.760455994383,4.631822217787E-02));
#129 = CARTESIAN_POINT('',(0.68958356367,4.729656029999E-02));
#130 = CARTESIAN_POINT('',(0.452726702868,4.513936287708E-02));
#131 = CARTESIAN_POINT('',(0.259555549775,4.643897502551E-02));
#132 = CARTESIAN_POINT('',(0.155687749033,5.000741186202E-02));
#133 = CARTESIAN_POINT('',(5.743467287231E-02,5.471826426061E-02));
#134 = CARTESIAN_POINT('',(-5.376000251954E-02,5.277404838241E-02));
#135 = CARTESIAN_POINT('',(-0.146792943833,4.8103236729E-02));
#136 = CARTESIAN_POINT('',(-0.275660618168,4.696434665715E-02));
#137 = CARTESIAN_POINT('',(-0.383403380526,5.374562040837E-02));
#138 = CARTESIAN_POINT('',(-0.417691827035,5.099382791521E-02));
#139 = CARTESIAN_POINT('',(-0.460940932875,4.679268308158E-02));
#140 = CARTESIAN_POINT('',(-0.583815642631,4.653284316624E-02));
#141 = CARTESIAN_POINT('',(-0.646564066013,5.331112672125E-02));
#142 = CARTESIAN_POINT('',(-0.830431016403,4.622757932411E-02));
#143 = CARTESIAN_POINT('',(-0.873804234358,4.740970575006E-02));
#144 = CARTESIAN_POINT('',(-0.92100747041,5.436813150534E-02));
#145 = CARTESIAN_POINT('',(-0.999768363367,5.E-02));
#146 = ( GEOMETRIC_REPRESENTATION_CONTEXT(2) 
PARAMETRIC_REPRESENTATION_CONTEXT() REPRESENTATION_CONTEXT('2D SPACE',''
  ) );
#147 = ORIENTED_EDGE('',*,*,#148,.T.);
#148 = EDGE_CURVE('',#97,#22,#149,.T.);
#149 = SURFACE_CURVE('',#150,(#154),.PCURVE_S1.);
#150 = LINE('',#151,#152);
#151 = CARTESIAN_POINT('',(0.,0.1,0.));
#152 = VECTOR('',#153,1.);
#153 = DIRECTION('',(0.,-1.,0.));
#154 = PCURVE('',#50,#155);
#155 = DEFINITIONAL_REPRESENTATION('',(#156),#160);
#156 = LINE('',#157,#158);
#157 = CARTESIAN_POINT('',(-0.999768363367,5.E-02));
#158 = VECTOR('',#159,1.);
#159 = DIRECTION('',(0.,-1.));
#160 = ( GEOMETRIC_REPRESENTATION_CONTEXT(2) 
PARAMETRIC_REPRESENTATION_CONTEXT() REPRESENTATION_CONTEXT('2D SPACE',''
  ) );
#161 = ( GEOMETRIC_REPRESENTATION_CONTEXT(3) 
GLOBAL_UNCERTAINTY_ASSIGNED_CONTEXT((#165)) GLOBAL_UNIT_ASSIGNED_CONTEXT
((#162,#163,#164)) REPRESENTATION_CONTEXT('Context #1',
  '3D Context with UNIT and UNCERTAINTY') );
#162 = ( LENGTH_UNIT() NAMED_UNIT(*) SI_UNIT(.MILLI.,.METRE.) );
#163 = ( NAMED_UNIT(*) PLANE_ANGLE_UNIT() SI_UNIT($,.RADIAN.) );
#164 = ( NAMED_UNIT(*) SI_UNIT($,.STERADIAN.) SOLID_ANGLE_UNIT() );
#165 = UNCERTAINTY_MEASURE_WITH_UNIT(LENGTH_MEASURE(1.E-07),#162,
  'distance_accuracy_value','confusion accuracy');
#166 = PRODUCT_RELATED_PRODUCT_CATEGORY('part',$,(#7));
ENDSEC;
END-ISO-10303-21;
