ISO-10303-21;
HEADER;
FILE_DESCRIPTION(('Open CASCADE Model'),'2;1');
FILE_NAME('Open CASCADE Shape Model','2026-07-21T00:13:24',('Author'),(
    'Open CASCADE'),'Open CASCADE STEP processor 7.9','Open CASCADE 7.9'
  ,'Unknown');
FILE_SCHEMA(('AUTOMOTIVE_DESIGN { 1 0 10303 214 1 1 1 1 }'));
ENDSEC;
DATA;
#1 = APPLICATION_PROTOCOL_DEFINITION('international standard',
  'automotive_design',2000,#2);
#2 = APPLICATION_CONTEXT(
  'core data for automotive mechanical design processes');
#3 = SHAPE_DEFINITION_REPRESENTATION(#4,#10);
#4 = PRODUCT_DEFINITION_SHAPE('','',#5);
#5 = PRODUCT_DEFINITION('design','',#6,#9);
#6 = PRODUCT_DEFINITION_FORMATION('','',#7);
#7 = PRODUCT('Open CASCADE STEP translator 7.9 35',
  'Open CASCADE STEP translator 7.9 35','',(#8));
#8 = PRODUCT_CONTEXT('',#2,'mechanical');
#9 = PRODUCT_DEFINITION_CONTEXT('part definition',#2,'design');
#10 = MANIFOLD_SURFACE_SHAPE_REPRESENTATION('',(#11,#15),#161);
#11 = AXIS2_PLACEMENT_3D('',#12,#13,#14);
#12 = CARTESIAN_POINT('',(0.,0.,0.));
#13 = DIRECTION('',(0.,0.,1.));
#14 = DIRECTION('',(1.,0.,-0.));
#15 = SHELL_BASED_SURFACE_MODEL('',(#16));
#16 = OPEN_SHELL('',(#17));
#17 = ADVANCED_FACE('',(#18),#50,.T.);
#18 = FACE_BOUND('',#19,.T.);
#19 = EDGE_LOOP('',(#20,#79,#95,#147));
#20 = ORIENTED_EDGE('',*,*,#21,.T.);
#21 = EDGE_CURVE('',#22,#24,#26,.T.);
#22 = VERTEX_POINT('',#23);
#23 = CARTESIAN_POINT('',(0.,0.,0.));
#24 = VERTEX_POINT('',#25);
#25 = CARTESIAN_POINT('',(1.,0.,0.));
#26 = SURFACE_CURVE('',#27,(#49),.PCURVE_S1.);
#27 = B_SPLINE_CURVE_WITH_KNOTS('',1,(#28,#29,#30,#31,#32,#33,#34,#35,
    #36,#37,#38,#39,#40,#41,#42,#43,#44,#45,#46,#47,#48),.UNSPECIFIED.,
  .F.,.F.,(2,1,1,1,1,1,1,1,1,1,1,1,1,1,1,1,1,1,1,1,2),(0.,
    3.279776464921E-02,7.683934136129E-02,0.100971047932,0.149051120245,
    0.245558217942,0.285455660122,0.323388434179,0.340798960071,
    0.380648900836,0.500480025332,0.538947949661,0.584197378188,
    0.730424756809,0.759632563121,0.773122810868,0.882592595646,
    0.925673172876,0.943618685638,0.958430450966,1.),.UNSPECIFIED.);
#28 = CARTESIAN_POINT('',(0.,-0.,0.));
#29 = CARTESIAN_POINT('',(3.279799660493E-02,-4.188231935307E-03,0.));
#30 = CARTESIAN_POINT('',(7.625587641355E-02,4.907402181789E-03,0.));
#31 = CARTESIAN_POINT('',(0.10051772618,3.116780251886E-03,0.));
#32 = CARTESIAN_POINT('',(0.148963124628,4.687164870984E-03,0.));
#33 = CARTESIAN_POINT('',(0.246251350412,3.893705324378E-03,0.));
#34 = CARTESIAN_POINT('',(0.28614903049,-1.201492866283E-03,0.));
#35 = CARTESIAN_POINT('',(0.324202318074,2.583610912609E-03,0.));
#36 = CARTESIAN_POINT('',(0.341445964813,-6.921205043068E-04,0.));
#37 = CARTESIAN_POINT('',(0.381619238895,-9.019538276613E-04,0.));
#38 = CARTESIAN_POINT('',(0.502396474801,-3.494353330898E-03,0.));
#39 = CARTESIAN_POINT('',(0.540245940822,4.952586070881E-03,0.));
#40 = CARTESIAN_POINT('',(0.585066822747,-3.533694593424E-03,0.));
#41 = CARTESIAN_POINT('',(0.732464054876,-1.19119086427E-03,0.));
#42 = CARTESIAN_POINT('',(0.761553426601,3.37256513895E-03,0.));
#43 = CARTESIAN_POINT('',(0.773707576078,-2.729373881353E-03,0.));
#44 = CARTESIAN_POINT('',(0.884063991297,-3.554915417906E-03,0.));
#45 = CARTESIAN_POINT('',(0.927076542269,2.457365162458E-03,0.));
#46 = CARTESIAN_POINT('',(0.943903231227,-4.187936809027E-03,0.));
#47 = CARTESIAN_POINT('',(0.958095068222,4.554256970134E-04,0.));
#48 = CARTESIAN_POINT('',(1.,-0.,0.));
#49 = PCURVE('',#50,#55);
#50 = PLANE('',#51);
#51 = AXIS2_PLACEMENT_3D('',#52,#53,#54);
#52 = CARTESIAN_POINT('',(0.500769220635,5.E-02,0.));
#53 = DIRECTION('',(0.,0.,1.));
#54 = DIRECTION('',(1.,0.,-0.));
#55 = DEFINITIONAL_REPRESENTATION('',(#56),#78);
#56 = B_SPLINE_CURVE_WITH_KNOTS('',1,(#57,#58,#59,#60,#61,#62,#63,#64,
    #65,#66,#67,#68,#69,#70,#71,#72,#73,#74,#75,#76,#77),.UNSPECIFIED.,
  .F.,.F.,(2,1,1,1,1,1,1,1,1,1,1,1,1,1,1,1,1,1,1,1,2),(0.,
    3.279776464921E-02,7.683934136129E-02,0.100971047932,0.149051120245,
    0.245558217942,0.285455660122,0.323388434179,0.340798960071,
    0.380648900836,0.500480025332,0.538947949661,0.584197378188,
    0.730424756809,0.759632563121,0.773122810868,0.882592595646,
    0.925673172876,0.943618685638,0.958430450966,1.),.UNSPECIFIED.);
#57 = CARTESIAN_POINT('',(-0.500769220635,-5.E-02));
#58 = CARTESIAN_POINT('',(-0.46797122403,-5.418823193531E-02));
#59 = CARTESIAN_POINT('',(-0.424513344221,-4.509259781821E-02));
#60 = CARTESIAN_POINT('',(-0.400251494455,-4.688321974811E-02));
#61 = CARTESIAN_POINT('',(-0.351806096007,-4.531283512902E-02));
#62 = CARTESIAN_POINT('',(-0.254517870223,-4.610629467562E-02));
#63 = CARTESIAN_POINT('',(-0.214620190145,-5.120149286628E-02));
#64 = CARTESIAN_POINT('',(-0.17656690256,-4.741638908739E-02));
#65 = CARTESIAN_POINT('',(-0.159323255822,-5.069212050431E-02));
#66 = CARTESIAN_POINT('',(-0.11914998174,-5.090195382766E-02));
#67 = CARTESIAN_POINT('',(1.627254165655E-03,-5.34943533309E-02));
#68 = CARTESIAN_POINT('',(3.947672018733E-02,-4.504741392912E-02));
#69 = CARTESIAN_POINT('',(8.429760211261E-02,-5.353369459342E-02));
#70 = CARTESIAN_POINT('',(0.231694834241,-5.119119086427E-02));
#71 = CARTESIAN_POINT('',(0.260784205966,-4.662743486105E-02));
#72 = CARTESIAN_POINT('',(0.272938355443,-5.272937388135E-02));
#73 = CARTESIAN_POINT('',(0.383294770662,-5.355491541791E-02));
#74 = CARTESIAN_POINT('',(0.426307321635,-4.754263483754E-02));
#75 = CARTESIAN_POINT('',(0.443134010593,-5.418793680903E-02));
#76 = CARTESIAN_POINT('',(0.457325847587,-4.954457430299E-02));
#77 = CARTESIAN_POINT('',(0.499230779365,-5.E-02));
#78 = ( GEOMETRIC_REPRESENTATION_CONTEXT(2) 
PARAMETRIC_REPRESENTATION_CONTEXT() REPRESENTATION_CONTEXT('2D SPACE',''
  ) );
#79 = ORIENTED_EDGE('',*,*,#80,.T.);
#80 = EDGE_CURVE('',#24,#81,#83,.T.);
#81 = VERTEX_POINT('',#82);
#82 = CARTESIAN_POINT('',(1.,0.1,0.));
#83 = SURFACE_CURVE('',#84,(#88),.PCURVE_S1.);
#84 = LINE('',#85,#86);
#85 = CARTESIAN_POINT('',(1.,-0.,0.));
#86 = VECTOR('',#87,1.);
#87 = DIRECTION('',(0.,1.,0.));
#88 = PCURVE('',#50,#89);
#89 = DEFINITIONAL_REPRESENTATION('',(#90),#94);
#90 = LINE('',#91,#92);
#91 = CARTESIAN_POINT('',(0.499230779365,-5.E-02));
#92 = VECTOR('',#93,1.);
#93 = DIRECTION('',(0.,1.));
#94 = ( GEOMETRIC_REPRESENTATION_CONTEXT(2) 
PARAMETRIC_REPRESENTATION_CONTEXT() REPRESENTATION_CONTEXT('2D SPACE',''
  ) );
#95 = ORIENTED_EDGE('',*,*,#96,.T.);
#96 = EDGE_CURVE('',#81,#97,#99,.T.);
#97 = VERTEX_POINT('',#98);
#98 = CARTESIAN_POINT('',(0.,0.1,0.));
#99 = SURFACE_CURVE('',#100,(#122),.PCURVE_S1.);
#100 = B_SPLINE_CURVE_WITH_KNOTS('',1,(#101,#102,#103,#104,#105,#106,
    #107,#108,#109,#110,#111,#112,#113,#114,#115,#116,#117,#118,#119,
    #120,#121),.UNSPECIFIED.,.F.,.F.,(2,1,1,1,1,1,1,1,1,1,1,1,1,1,1,1,1,
    1,1,1,2),(0.,4.156954903388E-02,5.638131436162E-02,
    7.432682712416E-02,0.117407404354,0.226877189132,0.240367436879,
    0.269575243191,0.415802621812,0.461052050339,0.499519974668,
    0.619351099164,0.659201039929,0.676611565821,0.714544339878,
    0.754441782058,0.850948879755,0.899028952068,0.923160658639,
    0.967202235351,1.),.UNSPECIFIED.);
#101 = CARTESIAN_POINT('',(1.,0.1,0.));
#102 = CARTESIAN_POINT('',(0.958095068222,9.954457430299E-02,0.));
#103 = CARTESIAN_POINT('',(0.943903231227,0.104187936809,0.));
#104 = CARTESIAN_POINT('',(0.927076542269,9.754263483754E-02,0.));
#105 = CARTESIAN_POINT('',(0.884063991297,0.103554915418,0.));
#106 = CARTESIAN_POINT('',(0.773707576078,0.102729373881,0.));
#107 = CARTESIAN_POINT('',(0.761553426601,9.662743486105E-02,0.));
#108 = CARTESIAN_POINT('',(0.732464054876,0.101191190864,0.));
#109 = CARTESIAN_POINT('',(0.585066822747,0.103533694593,0.));
#110 = CARTESIAN_POINT('',(0.540245940822,9.504741392912E-02,0.));
#111 = CARTESIAN_POINT('',(0.502396474801,0.103494353331,0.));
#112 = CARTESIAN_POINT('',(0.381619238895,0.100901953828,0.));
#113 = CARTESIAN_POINT('',(0.341445964813,0.100692120504,0.));
#114 = CARTESIAN_POINT('',(0.324202318074,9.741638908739E-02,0.));
#115 = CARTESIAN_POINT('',(0.28614903049,0.101201492866,0.));
#116 = CARTESIAN_POINT('',(0.246251350412,9.610629467562E-02,0.));
#117 = CARTESIAN_POINT('',(0.148963124628,9.531283512902E-02,0.));
#118 = CARTESIAN_POINT('',(0.10051772618,9.688321974811E-02,0.));
#119 = CARTESIAN_POINT('',(7.625587641355E-02,9.509259781821E-02,0.));
#120 = CARTESIAN_POINT('',(3.279799660493E-02,0.104188231935,0.));
#121 = CARTESIAN_POINT('',(0.,0.1,0.));
#122 = PCURVE('',#50,#123);
#123 = DEFINITIONAL_REPRESENTATION('',(#124),#146);
#124 = B_SPLINE_CURVE_WITH_KNOTS('',1,(#125,#126,#127,#128,#129,#130,
    #131,#132,#133,#134,#135,#136,#137,#138,#139,#140,#141,#142,#143,
    #144,#145),.UNSPECIFIED.,.F.,.F.,(2,1,1,1,1,1,1,1,1,1,1,1,1,1,1,1,1,
    1,1,1,2),(0.,4.156954903388E-02,5.638131436162E-02,
    7.432682712416E-02,0.117407404354,0.226877189132,0.240367436879,
    0.269575243191,0.415802621812,0.461052050339,0.499519974668,
    0.619351099164,0.659201039929,0.676611565821,0.714544339878,
    0.754441782058,0.850948879755,0.899028952068,0.923160658639,
    0.967202235351,1.),.UNSPECIFIED.);
#125 = CARTESIAN_POINT('',(0.499230779365,5.E-02));
#126 = CARTESIAN_POINT('',(0.457325847587,4.954457430299E-02));
#127 = CARTESIAN_POINT('',(0.443134010593,5.418793680903E-02));
#128 = CARTESIAN_POINT('',(0.426307321635,4.754263483754E-02));
#129 = CARTESIAN_POINT('',(0.383294770662,5.355491541791E-02));
#130 = CARTESIAN_POINT('',(0.272938355443,5.272937388135E-02));
#131 = CARTESIAN_POINT('',(0.260784205966,4.662743486105E-02));
#132 = CARTESIAN_POINT('',(0.231694834241,5.119119086427E-02));
#133 = CARTESIAN_POINT('',(8.429760211261E-02,5.353369459342E-02));
#134 = CARTESIAN_POINT('',(3.947672018733E-02,4.504741392912E-02));
#135 = CARTESIAN_POINT('',(1.627254165655E-03,5.34943533309E-02));
#136 = CARTESIAN_POINT('',(-0.11914998174,5.090195382766E-02));
#137 = CARTESIAN_POINT('',(-0.159323255822,5.069212050431E-02));
#138 = CARTESIAN_POINT('',(-0.17656690256,4.741638908739E-02));
#139 = CARTESIAN_POINT('',(-0.214620190145,5.120149286628E-02));
#140 = CARTESIAN_POINT('',(-0.254517870223,4.610629467562E-02));
#141 = CARTESIAN_POINT('',(-0.351806096007,4.531283512902E-02));
#142 = CARTESIAN_POINT('',(-0.400251494455,4.688321974811E-02));
#143 = CARTESIAN_POINT('',(-0.424513344221,4.509259781821E-02));
#144 = CARTESIAN_POINT('',(-0.46797122403,5.418823193531E-02));
#145 = CARTESIAN_POINT('',(-0.500769220635,5.E-02));
#146 = ( GEOMETRIC_REPRESENTATION_CONTEXT(2) 
PARAMETRIC_REPRESENTATION_CONTEXT() REPRESENTATION_CONTEXT('2D SPACE',''
  ) );
#147 = ORIENTED_EDGE('',*,*,#148,.T.);
#148 = EDGE_CURVE('',#97,#22,#149,.T.);
#149 = SURFACE_CURVE('',#150,(#154),.PCURVE_S1.);
#150 = LINE('',#151,#152);
#151 = CARTESIAN_POINT('',(0.,0.1,0.));
#152 = VECTOR('',#153,1.);
#153 = DIRECTION('',(0.,-1.,0.));
#154 = PCURVE('',#50,#155);
#155 = DEFINITIONAL_REPRESENTATION('',(#156),#160);
#156 = LINE('',#157,#158);
#157 = CARTESIAN_POINT('',(-0.500769220635,5.E-02));
#158 = VECTOR('',#159,1.);
#159 = DIRECTION('',(0.,-1.));
#160 = ( GEOMETRIC_REPRESENTATION_CONTEXT(2) 
PARAMETRIC_REPRESENTATION_CONTEXT() REPRESENTATION_CONTEXT('2D SPACE',''
  ) );
#161 = ( GEOMETRIC_REPRESENTATION_CONTEXT(3) 
GLOBAL_UNCERTAINTY_ASSIGNED_CONTEXT((#165)) GLOBAL_UNIT_ASSIGNED_CONTEXT
((#162,#163,#164)) REPRESENTATION_CONTEXT('Context #1',
  '3D Context with UNIT and UNCERTAINTY') );
#162 = ( LENGTH_UNIT() NAMED_UNIT(*) SI_UNIT(.MILLI.,.METRE.) );
#163 = ( NAMED_UNIT(*) PLANE_ANGLE_UNIT() SI_UNIT($,.RADIAN.) );
#164 = ( NAMED_UNIT(*) SI_UNIT($,.STERADIAN.) SOLID_ANGLE_UNIT() );
#165 = UNCERTAINTY_MEASURE_WITH_UNIT(LENGTH_MEASURE(1.E-07),#162,
  'distance_accuracy_value','confusion accuracy');
#166 = PRODUCT_RELATED_PRODUCT_CATEGORY('part',$,(#7));
ENDSEC;
END-ISO-10303-21;
