ISO-10303-21;
HEADER;
FILE_DESCRIPTION(('Open CASCADE Model'),'2;1');
FILE_NAME('Open CASCADE Shape Model','2026-08-17T20:30:05',('Author'),(
    'Open CASCADE'),'Open CASCADE STEP processor 7.9','Open CASCADE 7.9'
  ,'Unknown');
FILE_SCHEMA(('AUTOMOTIVE_DESIGN { 1 0 10303 214 1 1 1 1 }'));
ENDSEC;
DATA;
#1 = APPLICATION_PROTOCOL_DEFINITION('international standard',
  'automotive_design',2000,#2);
#2 = APPLICATION_CONTEXT(
  'core data for automotive mechanical design processes');
#3 = SHAPE_DEFINITION_REPRESENTATION(#4,#10);
#4 = PRODUCT_DEFINITION_SHAPE('','',#5);
#5 = PRODUCT_DEFINITION('design','',#6,#9);
#6 = PRODUCT_DEFINITION_FORMATION('','',#7);
#7 = PRODUCT('Open CASCADE STEP translator 7.9 72',
  'Open CASCADE STEP translator 7.9 72','',(#8));
#8 = PRODUCT_CONTEXT('',#2,'mechanical');
#9 = PRODUCT_DEFINITION_CONTEXT('part definition',#2,'design');
#10 = MANIFOLD_SURFACE_SHAPE_REPRESENTATION('',(#11,#15),#145);
#11 = AXIS2_PLACEMENT_3D('',#12,#13,#14);
#12 = CARTESIAN_POINT('',(0.,0.,0.));
#13 = DIRECTION('',(0.,0.,1.));
#14 = DIRECTION('',(1.,0.,-0.));
#15 = SHELL_BASED_SURFACE_MODEL('',(#16));
#16 = OPEN_SHELL('',(#17));
#17 = ADVANCED_FACE('',(#18),#46,.T.);
#18 = FACE_BOUND('',#19,.T.);
#19 = EDGE_LOOP('',(#20,#71,#87,#131));
#20 = ORIENTED_EDGE('',*,*,#21,.T.);
#21 = EDGE_CURVE('',#22,#24,#26,.T.);
#22 = VERTEX_POINT('',#23);
#23 = CARTESIAN_POINT('',(0.,0.,0.));
#24 = VERTEX_POINT('',#25);
#25 = CARTESIAN_POINT('',(1.,0.,0.));
#26 = SURFACE_CURVE('',#27,(#45),.PCURVE_S1.);
#27 = B_SPLINE_CURVE_WITH_KNOTS('',1,(#28,#29,#30,#31,#32,#33,#34,#35,
    #36,#37,#38,#39,#40,#41,#42,#43,#44),.UNSPECIFIED.,.F.,.F.,(2,1,1,1,
    1,1,1,1,1,1,1,1,1,1,1,1,2),(0.,0.100778800586,0.153637485465,
    0.212192200455,0.254709236095,0.268891593389,0.30047532989,
    0.488905196689,0.520930091305,0.600267809366,0.657369224156,
    0.694494874945,0.720787601551,0.758949023017,0.819691889311,
    0.8807411758,1.),.UNSPECIFIED.);
#28 = CARTESIAN_POINT('',(0.,-0.,0.));
#29 = CARTESIAN_POINT('',(0.100850485182,4.838656243503E-03,0.));
#30 = CARTESIAN_POINT('',(0.153786815336,3.354530822486E-03,0.));
#31 = CARTESIAN_POINT('',(0.211973477105,-4.112075026572E-03,0.));
#32 = CARTESIAN_POINT('',(0.254482639567,-1.390104007912E-03,0.));
#33 = CARTESIAN_POINT('',(0.267643156764,3.966196903632E-03,0.));
#34 = CARTESIAN_POINT('',(0.299269935414,2.966989339738E-03,0.));
#35 = CARTESIAN_POINT('',(0.488042031555,1.153735242814E-03,0.));
#36 = CARTESIAN_POINT('',(0.520124563507,1.512585266305E-03,0.));
#37 = CARTESIAN_POINT('',(0.599609703567,1.280411794152E-03,0.));
#38 = CARTESIAN_POINT('',(0.656807385154,2.354323280517E-03,0.));
#39 = CARTESIAN_POINT('',(0.693984508229,1.207903410351E-03,0.));
#40 = CARTESIAN_POINT('',(0.720326067788,1.292379849685E-03,0.));
#41 = CARTESIAN_POINT('',(0.758542660347,1.897967158983E-04,0.));
#42 = CARTESIAN_POINT('',(0.819369450656,2.074948625888E-03,0.));
#43 = CARTESIAN_POINT('',(0.880523497734,1.029263175415E-03,0.));
#44 = CARTESIAN_POINT('',(1.,-0.,0.));
#45 = PCURVE('',#46,#51);
#46 = PLANE('',#47);
#47 = AXIS2_PLACEMENT_3D('',#48,#49,#50);
#48 = CARTESIAN_POINT('',(0.499560801625,3.125E-02,0.));
#49 = DIRECTION('',(0.,0.,1.));
#50 = DIRECTION('',(1.,0.,-0.));
#51 = DEFINITIONAL_REPRESENTATION('',(#52),#70);
#52 = B_SPLINE_CURVE_WITH_KNOTS('',1,(#53,#54,#55,#56,#57,#58,#59,#60,
    #61,#62,#63,#64,#65,#66,#67,#68,#69),.UNSPECIFIED.,.F.,.F.,(2,1,1,1,
    1,1,1,1,1,1,1,1,1,1,1,1,2),(0.,0.100778800586,0.153637485465,
    0.212192200455,0.254709236095,0.268891593389,0.30047532989,
    0.488905196689,0.520930091305,0.600267809366,0.657369224156,
    0.694494874945,0.720787601551,0.758949023017,0.819691889311,
    0.8807411758,1.),.UNSPECIFIED.);
#53 = CARTESIAN_POINT('',(-0.499560801625,-3.125E-02));
#54 = CARTESIAN_POINT('',(-0.398710316443,-2.64113437565E-02));
#55 = CARTESIAN_POINT('',(-0.345773986289,-2.789546917751E-02));
#56 = CARTESIAN_POINT('',(-0.287587324519,-3.536207502657E-02));
#57 = CARTESIAN_POINT('',(-0.245078162058,-3.264010400791E-02));
#58 = CARTESIAN_POINT('',(-0.231917644861,-2.728380309637E-02));
#59 = CARTESIAN_POINT('',(-0.20029086621,-2.828301066026E-02));
#60 = CARTESIAN_POINT('',(-1.151877006939E-02,-3.009626475719E-02));
#61 = CARTESIAN_POINT('',(2.05637618817E-02,-2.973741473369E-02));
#62 = CARTESIAN_POINT('',(0.100048901942,-2.996958820585E-02));
#63 = CARTESIAN_POINT('',(0.157246583529,-2.889567671948E-02));
#64 = CARTESIAN_POINT('',(0.194423706604,-3.004209658965E-02));
#65 = CARTESIAN_POINT('',(0.220765266164,-2.995762015032E-02));
#66 = CARTESIAN_POINT('',(0.258981858722,-3.10602032841E-02));
#67 = CARTESIAN_POINT('',(0.319808649031,-2.917505137411E-02));
#68 = CARTESIAN_POINT('',(0.380962696109,-3.022073682458E-02));
#69 = CARTESIAN_POINT('',(0.500439198375,-3.125E-02));
#70 = ( GEOMETRIC_REPRESENTATION_CONTEXT(2) 
PARAMETRIC_REPRESENTATION_CONTEXT() REPRESENTATION_CONTEXT('2D SPACE',''
  ) );
#71 = ORIENTED_EDGE('',*,*,#72,.T.);
#72 = EDGE_CURVE('',#24,#73,#75,.T.);
#73 = VERTEX_POINT('',#74);
#74 = CARTESIAN_POINT('',(1.,6.25E-02,0.));
#75 = SURFACE_CURVE('',#76,(#80),.PCURVE_S1.);
#76 = LINE('',#77,#78);
#77 = CARTESIAN_POINT('',(1.,-0.,0.));
#78 = VECTOR('',#79,1.);
#79 = DIRECTION('',(0.,1.,0.));
#80 = PCURVE('',#46,#81);
#81 = DEFINITIONAL_REPRESENTATION('',(#82),#86);
#82 = LINE('',#83,#84);
#83 = CARTESIAN_POINT('',(0.500439198375,-3.125E-02));
#84 = VECTOR('',#85,1.);
#85 = DIRECTION('',(0.,1.));
#86 = ( GEOMETRIC_REPRESENTATION_CONTEXT(2) 
PARAMETRIC_REPRESENTATION_CONTEXT() REPRESENTATION_CONTEXT('2D SPACE',''
  ) );
#87 = ORIENTED_EDGE('',*,*,#88,.T.);
#88 = EDGE_CURVE('',#73,#89,#91,.T.);
#89 = VERTEX_POINT('',#90);
#90 = CARTESIAN_POINT('',(0.,6.25E-02,0.));
#91 = SURFACE_CURVE('',#92,(#110),.PCURVE_S1.);
#92 = B_SPLINE_CURVE_WITH_KNOTS('',1,(#93,#94,#95,#96,#97,#98,#99,#100,
    #101,#102,#103,#104,#105,#106,#107,#108,#109),.UNSPECIFIED.,.F.,.F.,
  (2,1,1,1,1,1,1,1,1,1,1,1,1,1,1,1,2),(0.,0.1192588242,0.180308110689,
    0.241050976983,0.279212398449,0.305505125055,0.342630775844,
    0.399732190634,0.479069908695,0.511094803311,0.69952467011,
    0.731108406611,0.745290763905,0.787807799545,0.846362514535,
    0.899221199414,1.),.UNSPECIFIED.);
#93 = CARTESIAN_POINT('',(1.,6.25E-02,0.));
#94 = CARTESIAN_POINT('',(0.880523497734,6.147073682458E-02,0.));
#95 = CARTESIAN_POINT('',(0.819369450656,6.042505137411E-02,0.));
#96 = CARTESIAN_POINT('',(0.758542660347,6.23102032841E-02,0.));
#97 = CARTESIAN_POINT('',(0.720326067788,6.120762015032E-02,0.));
#98 = CARTESIAN_POINT('',(0.693984508229,6.129209658965E-02,0.));
#99 = CARTESIAN_POINT('',(0.656807385154,6.014567671948E-02,0.));
#100 = CARTESIAN_POINT('',(0.599609703567,6.121958820585E-02,0.));
#101 = CARTESIAN_POINT('',(0.520124563507,6.098741473369E-02,0.));
#102 = CARTESIAN_POINT('',(0.488042031555,6.134626475719E-02,0.));
#103 = CARTESIAN_POINT('',(0.299269935414,5.953301066026E-02,0.));
#104 = CARTESIAN_POINT('',(0.267643156764,5.853380309637E-02,0.));
#105 = CARTESIAN_POINT('',(0.254482639567,6.389010400791E-02,0.));
#106 = CARTESIAN_POINT('',(0.211973477105,6.661207502657E-02,0.));
#107 = CARTESIAN_POINT('',(0.153786815336,5.914546917751E-02,0.));
#108 = CARTESIAN_POINT('',(0.100850485182,5.76613437565E-02,0.));
#109 = CARTESIAN_POINT('',(0.,6.25E-02,0.));
#110 = PCURVE('',#46,#111);
#111 = DEFINITIONAL_REPRESENTATION('',(#112),#130);
#112 = B_SPLINE_CURVE_WITH_KNOTS('',1,(#113,#114,#115,#116,#117,#118,
    #119,#120,#121,#122,#123,#124,#125,#126,#127,#128,#129),
  .UNSPECIFIED.,.F.,.F.,(2,1,1,1,1,1,1,1,1,1,1,1,1,1,1,1,2),(0.,
    0.1192588242,0.180308110689,0.241050976983,0.279212398449,
    0.305505125055,0.342630775844,0.399732190634,0.479069908695,
    0.511094803311,0.69952467011,0.731108406611,0.745290763905,
    0.787807799545,0.846362514535,0.899221199414,1.),.UNSPECIFIED.);
#113 = CARTESIAN_POINT('',(0.500439198375,3.125E-02));
#114 = CARTESIAN_POINT('',(0.380962696109,3.022073682458E-02));
#115 = CARTESIAN_POINT('',(0.319808649031,2.917505137411E-02));
#116 = CARTESIAN_POINT('',(0.258981858722,3.10602032841E-02));
#117 = CARTESIAN_POINT('',(0.220765266164,2.995762015032E-02));
#118 = CARTESIAN_POINT('',(0.194423706604,3.004209658965E-02));
#119 = CARTESIAN_POINT('',(0.157246583529,2.889567671948E-02));
#120 = CARTESIAN_POINT('',(0.100048901942,2.996958820585E-02));
#121 = CARTESIAN_POINT('',(2.05637618817E-02,2.973741473369E-02));
#122 = CARTESIAN_POINT('',(-1.151877006939E-02,3.009626475719E-02));
#123 = CARTESIAN_POINT('',(-0.20029086621,2.828301066026E-02));
#124 = CARTESIAN_POINT('',(-0.231917644861,2.728380309637E-02));
#125 = CARTESIAN_POINT('',(-0.245078162058,3.264010400791E-02));
#126 = CARTESIAN_POINT('',(-0.287587324519,3.536207502657E-02));
#127 = CARTESIAN_POINT('',(-0.345773986289,2.789546917751E-02));
#128 = CARTESIAN_POINT('',(-0.398710316443,2.64113437565E-02));
#129 = CARTESIAN_POINT('',(-0.499560801625,3.125E-02));
#130 = ( GEOMETRIC_REPRESENTATION_CONTEXT(2) 
PARAMETRIC_REPRESENTATION_CONTEXT() REPRESENTATION_CONTEXT('2D SPACE',''
  ) );
#131 = ORIENTED_EDGE('',*,*,#132,.T.);
#132 = EDGE_CURVE('',#89,#22,#133,.T.);
#133 = SURFACE_CURVE('',#134,(#138),.PCURVE_S1.);
#134 = LINE('',#135,#136);
#135 = CARTESIAN_POINT('',(0.,6.25E-02,0.));
#136 = VECTOR('',#137,1.);
#137 = DIRECTION('',(0.,-1.,0.));
#138 = PCURVE('',#46,#139);
#139 = DEFINITIONAL_REPRESENTATION('',(#140),#144);
#140 = LINE('',#141,#142);
#141 = CARTESIAN_POINT('',(-0.499560801625,3.125E-02));
#142 = VECTOR('',#143,1.);
#143 = DIRECTION('',(0.,-1.));
#144 = ( GEOMETRIC_REPRESENTATION_CONTEXT(2) 
PARAMETRIC_REPRESENTATION_CONTEXT() REPRESENTATION_CONTEXT('2D SPACE',''
  ) );
#145 = ( GEOMETRIC_REPRESENTATION_CONTEXT(3) 
GLOBAL_UNCERTAINTY_ASSIGNED_CONTEXT((#149)) GLOBAL_UNIT_ASSIGNED_CONTEXT
((#146,#147,#148)) REPRESENTATION_CONTEXT('Context #1',
  '3D Context with UNIT and UNCERTAINTY') );
#146 = ( LENGTH_UNIT() NAMED_UNIT(*) SI_UNIT(.MILLI.,.METRE.) );
#147 = ( NAMED_UNIT(*) PLANE_ANGLE_UNIT() SI_UNIT($,.RADIAN.) );
#148 = ( NAMED_UNIT(*) SI_UNIT($,.STERADIAN.) SOLID_ANGLE_UNIT() );
#149 = UNCERTAINTY_MEASURE_WITH_UNIT(LENGTH_MEASURE(1.E-07),#146,
  'distance_accuracy_value','confusion accuracy');
#150 = PRODUCT_RELATED_PRODUCT_CATEGORY('part',$,(#7));
ENDSEC;
END-ISO-10303-21;
