ISO-10303-21;
HEADER;
FILE_DESCRIPTION(('Open CASCADE Model'),'2;1');
FILE_NAME('Open CASCADE Shape Model','2026-08-17T20:30:05',('Author'),(
    'Open CASCADE'),'Open CASCADE STEP processor 7.9','Open CASCADE 7.9'
  ,'Unknown');
FILE_SCHEMA(('AUTOMOTIVE_DESIGN { 1 0 10303 214 1 1 1 1 }'));
ENDSEC;
DATA;
#1 = APPLICATION_PROTOCOL_DEFINITION('international standard',
  'automotive_design',2000,#2);
#2 = APPLICATION_CONTEXT(
  'core data for automotive mechanical design processes');
#3 = SHAPE_DEFINITION_REPRESENTATION(#4,#10);
#4 = PRODUCT_DEFINITION_SHAPE('','',#5);
#5 = PRODUCT_DEFINITION('design','',#6,#9);
#6 = PRODUCT_DEFINITION_FORMATION('','',#7);
#7 = PRODUCT('Open CASCADE STEP translator 7.9 66',
  'Open CASCADE STEP translator 7.9 66','',(#8));
#8 = PRODUCT_CONTEXT('',#2,'mechanical');
#9 = PRODUCT_DEFINITION_CONTEXT('part definition',#2,'design');
#10 = MANIFOLD_SURFACE_SHAPE_REPRESENTATION('',(#11,#15),#145);
#11 = AXIS2_PLACEMENT_3D('',#12,#13,#14);
#12 = CARTESIAN_POINT('',(0.,0.,0.));
#13 = DIRECTION('',(0.,0.,1.));
#14 = DIRECTION('',(1.,0.,-0.));
#15 = SHELL_BASED_SURFACE_MODEL('',(#16));
#16 = OPEN_SHELL('',(#17));
#17 = ADVANCED_FACE('',(#18),#46,.T.);
#18 = FACE_BOUND('',#19,.T.);
#19 = EDGE_LOOP('',(#20,#71,#87,#131));
#20 = ORIENTED_EDGE('',*,*,#21,.T.);
#21 = EDGE_CURVE('',#22,#24,#26,.T.);
#22 = VERTEX_POINT('',#23);
#23 = CARTESIAN_POINT('',(0.,0.,0.));
#24 = VERTEX_POINT('',#25);
#25 = CARTESIAN_POINT('',(1.,0.,0.));
#26 = SURFACE_CURVE('',#27,(#45),.PCURVE_S1.);
#27 = B_SPLINE_CURVE_WITH_KNOTS('',1,(#28,#29,#30,#31,#32,#33,#34,#35,
    #36,#37,#38,#39,#40,#41,#42,#43,#44),.UNSPECIFIED.,.F.,.F.,(2,1,1,1,
    1,1,1,1,1,1,1,1,1,1,1,1,2),(0.,0.102705138951,0.120807089496,
    0.176722367704,0.239374318829,0.272972222825,0.316366730208,
    0.441116746115,0.537366640696,0.562169370232,0.600913815922,
    0.643180334721,0.765503451998,0.881154332575,0.921034000321,
    0.959407555297,1.),.UNSPECIFIED.);
#28 = CARTESIAN_POINT('',(0.,-0.,0.));
#29 = CARTESIAN_POINT('',(0.102905836892,4.293759664766E-03,0.));
#30 = CARTESIAN_POINT('',(0.120489248403,-2.1832154692E-04,0.));
#31 = CARTESIAN_POINT('',(0.176559291714,3.851768173416E-04,0.));
#32 = CARTESIAN_POINT('',(0.239382711194,1.222657357716E-03,0.));
#33 = CARTESIAN_POINT('',(0.273074454539,1.495663395035E-03,0.));
#34 = CARTESIAN_POINT('',(0.316510989663,-1.151723897221E-03,0.));
#35 = CARTESIAN_POINT('',(0.441463386774,4.975815859758E-03,0.));
#36 = CARTESIAN_POINT('',(0.537752788325,-1.719440731461E-03,0.));
#37 = CARTESIAN_POINT('',(0.561774552133,4.731300117154E-03,0.));
#38 = CARTESIAN_POINT('',(0.600617107162,3.790993993459E-03,0.));
#39 = CARTESIAN_POINT('',(0.642990697126,2.766994104803E-03,0.));
#40 = CARTESIAN_POINT('',(0.765551594621,-2.376883364043E-03,0.));
#41 = CARTESIAN_POINT('',(0.881443664569,2.079071302885E-03,0.));
#42 = CARTESIAN_POINT('',(0.921294772624,-1.279268464331E-03,0.));
#43 = CARTESIAN_POINT('',(0.959598498461,-4.979080395982E-03,0.));
#44 = CARTESIAN_POINT('',(1.,-0.,0.));
#45 = PCURVE('',#46,#51);
#46 = PLANE('',#47);
#47 = AXIS2_PLACEMENT_3D('',#48,#49,#50);
#48 = CARTESIAN_POINT('',(0.500070258179,3.125E-02,0.));
#49 = DIRECTION('',(0.,0.,1.));
#50 = DIRECTION('',(1.,0.,-0.));
#51 = DEFINITIONAL_REPRESENTATION('',(#52),#70);
#52 = B_SPLINE_CURVE_WITH_KNOTS('',1,(#53,#54,#55,#56,#57,#58,#59,#60,
    #61,#62,#63,#64,#65,#66,#67,#68,#69),.UNSPECIFIED.,.F.,.F.,(2,1,1,1,
    1,1,1,1,1,1,1,1,1,1,1,1,2),(0.,0.102705138951,0.120807089496,
    0.176722367704,0.239374318829,0.272972222825,0.316366730208,
    0.441116746115,0.537366640696,0.562169370232,0.600913815922,
    0.643180334721,0.765503451998,0.881154332575,0.921034000321,
    0.959407555297,1.),.UNSPECIFIED.);
#53 = CARTESIAN_POINT('',(-0.500070258179,-3.125E-02));
#54 = CARTESIAN_POINT('',(-0.397164421287,-2.695624033523E-02));
#55 = CARTESIAN_POINT('',(-0.379581009775,-3.146832154692E-02));
#56 = CARTESIAN_POINT('',(-0.323510966464,-3.086482318266E-02));
#57 = CARTESIAN_POINT('',(-0.260687546984,-3.002734264228E-02));
#58 = CARTESIAN_POINT('',(-0.22699580364,-2.975433660496E-02));
#59 = CARTESIAN_POINT('',(-0.183559268516,-3.240172389722E-02));
#60 = CARTESIAN_POINT('',(-5.860687140414E-02,-2.627418414024E-02));
#61 = CARTESIAN_POINT('',(3.768253014683E-02,-3.296944073146E-02));
#62 = CARTESIAN_POINT('',(6.170429395399E-02,-2.651869988285E-02));
#63 = CARTESIAN_POINT('',(0.100546848983,-2.745900600654E-02));
#64 = CARTESIAN_POINT('',(0.142920438947,-2.84830058952E-02));
#65 = CARTESIAN_POINT('',(0.265481336442,-3.362688336404E-02));
#66 = CARTESIAN_POINT('',(0.381373406391,-2.917092869711E-02));
#67 = CARTESIAN_POINT('',(0.421224514446,-3.252926846433E-02));
#68 = CARTESIAN_POINT('',(0.459528240282,-3.622908039598E-02));
#69 = CARTESIAN_POINT('',(0.499929741821,-3.125E-02));
#70 = ( GEOMETRIC_REPRESENTATION_CONTEXT(2) 
PARAMETRIC_REPRESENTATION_CONTEXT() REPRESENTATION_CONTEXT('2D SPACE',''
  ) );
#71 = ORIENTED_EDGE('',*,*,#72,.T.);
#72 = EDGE_CURVE('',#24,#73,#75,.T.);
#73 = VERTEX_POINT('',#74);
#74 = CARTESIAN_POINT('',(1.,6.25E-02,0.));
#75 = SURFACE_CURVE('',#76,(#80),.PCURVE_S1.);
#76 = LINE('',#77,#78);
#77 = CARTESIAN_POINT('',(1.,-0.,0.));
#78 = VECTOR('',#79,1.);
#79 = DIRECTION('',(0.,1.,0.));
#80 = PCURVE('',#46,#81);
#81 = DEFINITIONAL_REPRESENTATION('',(#82),#86);
#82 = LINE('',#83,#84);
#83 = CARTESIAN_POINT('',(0.499929741821,-3.125E-02));
#84 = VECTOR('',#85,1.);
#85 = DIRECTION('',(0.,1.));
#86 = ( GEOMETRIC_REPRESENTATION_CONTEXT(2) 
PARAMETRIC_REPRESENTATION_CONTEXT() REPRESENTATION_CONTEXT('2D SPACE',''
  ) );
#87 = ORIENTED_EDGE('',*,*,#88,.T.);
#88 = EDGE_CURVE('',#73,#89,#91,.T.);
#89 = VERTEX_POINT('',#90);
#90 = CARTESIAN_POINT('',(0.,6.25E-02,0.));
#91 = SURFACE_CURVE('',#92,(#110),.PCURVE_S1.);
#92 = B_SPLINE_CURVE_WITH_KNOTS('',1,(#93,#94,#95,#96,#97,#98,#99,#100,
    #101,#102,#103,#104,#105,#106,#107,#108,#109),.UNSPECIFIED.,.F.,.F.,
  (2,1,1,1,1,1,1,1,1,1,1,1,1,1,1,1,2),(0.,4.059244470328E-02,
    7.89659996788E-02,0.118845667425,0.234496548002,0.356819665279,
    0.399086184078,0.437830629768,0.462633359304,0.558883253885,
    0.683633269792,0.727027777175,0.760625681171,0.823277632296,
    0.879192910504,0.897294861049,1.),.UNSPECIFIED.);
#93 = CARTESIAN_POINT('',(1.,6.25E-02,0.));
#94 = CARTESIAN_POINT('',(0.959598498461,6.747908039598E-02,0.));
#95 = CARTESIAN_POINT('',(0.921294772624,6.377926846433E-02,0.));
#96 = CARTESIAN_POINT('',(0.881443664569,6.042092869711E-02,0.));
#97 = CARTESIAN_POINT('',(0.765551594621,6.487688336404E-02,0.));
#98 = CARTESIAN_POINT('',(0.642990697126,5.97330058952E-02,0.));
#99 = CARTESIAN_POINT('',(0.600617107162,5.870900600654E-02,0.));
#100 = CARTESIAN_POINT('',(0.561774552133,5.776869988285E-02,0.));
#101 = CARTESIAN_POINT('',(0.537752788325,6.421944073146E-02,0.));
#102 = CARTESIAN_POINT('',(0.441463386774,5.752418414024E-02,0.));
#103 = CARTESIAN_POINT('',(0.316510989663,6.365172389722E-02,0.));
#104 = CARTESIAN_POINT('',(0.273074454539,6.100433660496E-02,0.));
#105 = CARTESIAN_POINT('',(0.239382711194,6.127734264228E-02,0.));
#106 = CARTESIAN_POINT('',(0.176559291714,6.211482318266E-02,0.));
#107 = CARTESIAN_POINT('',(0.120489248403,6.271832154692E-02,0.));
#108 = CARTESIAN_POINT('',(0.102905836892,5.820624033523E-02,0.));
#109 = CARTESIAN_POINT('',(0.,6.25E-02,0.));
#110 = PCURVE('',#46,#111);
#111 = DEFINITIONAL_REPRESENTATION('',(#112),#130);
#112 = B_SPLINE_CURVE_WITH_KNOTS('',1,(#113,#114,#115,#116,#117,#118,
    #119,#120,#121,#122,#123,#124,#125,#126,#127,#128,#129),
  .UNSPECIFIED.,.F.,.F.,(2,1,1,1,1,1,1,1,1,1,1,1,1,1,1,1,2),(0.,
    4.059244470328E-02,7.89659996788E-02,0.118845667425,0.234496548002,
    0.356819665279,0.399086184078,0.437830629768,0.462633359304,
    0.558883253885,0.683633269792,0.727027777175,0.760625681171,
    0.823277632296,0.879192910504,0.897294861049,1.),.UNSPECIFIED.);
#113 = CARTESIAN_POINT('',(0.499929741821,3.125E-02));
#114 = CARTESIAN_POINT('',(0.459528240282,3.622908039598E-02));
#115 = CARTESIAN_POINT('',(0.421224514446,3.252926846433E-02));
#116 = CARTESIAN_POINT('',(0.381373406391,2.917092869711E-02));
#117 = CARTESIAN_POINT('',(0.265481336442,3.362688336404E-02));
#118 = CARTESIAN_POINT('',(0.142920438947,2.84830058952E-02));
#119 = CARTESIAN_POINT('',(0.100546848983,2.745900600654E-02));
#120 = CARTESIAN_POINT('',(6.170429395399E-02,2.651869988285E-02));
#121 = CARTESIAN_POINT('',(3.768253014683E-02,3.296944073146E-02));
#122 = CARTESIAN_POINT('',(-5.860687140414E-02,2.627418414024E-02));
#123 = CARTESIAN_POINT('',(-0.183559268516,3.240172389722E-02));
#124 = CARTESIAN_POINT('',(-0.22699580364,2.975433660496E-02));
#125 = CARTESIAN_POINT('',(-0.260687546984,3.002734264228E-02));
#126 = CARTESIAN_POINT('',(-0.323510966464,3.086482318266E-02));
#127 = CARTESIAN_POINT('',(-0.379581009775,3.146832154692E-02));
#128 = CARTESIAN_POINT('',(-0.397164421287,2.695624033523E-02));
#129 = CARTESIAN_POINT('',(-0.500070258179,3.125E-02));
#130 = ( GEOMETRIC_REPRESENTATION_CONTEXT(2) 
PARAMETRIC_REPRESENTATION_CONTEXT() REPRESENTATION_CONTEXT('2D SPACE',''
  ) );
#131 = ORIENTED_EDGE('',*,*,#132,.T.);
#132 = EDGE_CURVE('',#89,#22,#133,.T.);
#133 = SURFACE_CURVE('',#134,(#138),.PCURVE_S1.);
#134 = LINE('',#135,#136);
#135 = CARTESIAN_POINT('',(0.,6.25E-02,0.));
#136 = VECTOR('',#137,1.);
#137 = DIRECTION('',(0.,-1.,0.));
#138 = PCURVE('',#46,#139);
#139 = DEFINITIONAL_REPRESENTATION('',(#140),#144);
#140 = LINE('',#141,#142);
#141 = CARTESIAN_POINT('',(-0.500070258179,3.125E-02));
#142 = VECTOR('',#143,1.);
#143 = DIRECTION('',(0.,-1.));
#144 = ( GEOMETRIC_REPRESENTATION_CONTEXT(2) 
PARAMETRIC_REPRESENTATION_CONTEXT() REPRESENTATION_CONTEXT('2D SPACE',''
  ) );
#145 = ( GEOMETRIC_REPRESENTATION_CONTEXT(3) 
GLOBAL_UNCERTAINTY_ASSIGNED_CONTEXT((#149)) GLOBAL_UNIT_ASSIGNED_CONTEXT
((#146,#147,#148)) REPRESENTATION_CONTEXT('Context #1',
  '3D Context with UNIT and UNCERTAINTY') );
#146 = ( LENGTH_UNIT() NAMED_UNIT(*) SI_UNIT(.MILLI.,.METRE.) );
#147 = ( NAMED_UNIT(*) PLANE_ANGLE_UNIT() SI_UNIT($,.RADIAN.) );
#148 = ( NAMED_UNIT(*) SI_UNIT($,.STERADIAN.) SOLID_ANGLE_UNIT() );
#149 = UNCERTAINTY_MEASURE_WITH_UNIT(LENGTH_MEASURE(1.E-07),#146,
  'distance_accuracy_value','confusion accuracy');
#150 = PRODUCT_RELATED_PRODUCT_CATEGORY('part',$,(#7));
ENDSEC;
END-ISO-10303-21;
