ISO-10303-21;
HEADER;
FILE_DESCRIPTION(('Open CASCADE Model'),'2;1');
FILE_NAME('Open CASCADE Shape Model','2026-08-17T20:30:04',('Author'),(
    'Open CASCADE'),'Open CASCADE STEP processor 7.9','Open CASCADE 7.9'
  ,'Unknown');
FILE_SCHEMA(('AUTOMOTIVE_DESIGN { 1 0 10303 214 1 1 1 1 }'));
ENDSEC;
DATA;
#1 = APPLICATION_PROTOCOL_DEFINITION('international standard',
  'automotive_design',2000,#2);
#2 = APPLICATION_CONTEXT(
  'core data for automotive mechanical design processes');
#3 = SHAPE_DEFINITION_REPRESENTATION(#4,#10);
#4 = PRODUCT_DEFINITION_SHAPE('','',#5);
#5 = PRODUCT_DEFINITION('design','',#6,#9);
#6 = PRODUCT_DEFINITION_FORMATION('','',#7);
#7 = PRODUCT('Open CASCADE STEP translator 7.9 50',
  'Open CASCADE STEP translator 7.9 50','',(#8));
#8 = PRODUCT_CONTEXT('',#2,'mechanical');
#9 = PRODUCT_DEFINITION_CONTEXT('part definition',#2,'design');
#10 = MANIFOLD_SURFACE_SHAPE_REPRESENTATION('',(#11,#15),#145);
#11 = AXIS2_PLACEMENT_3D('',#12,#13,#14);
#12 = CARTESIAN_POINT('',(0.,0.,0.));
#13 = DIRECTION('',(0.,0.,1.));
#14 = DIRECTION('',(1.,0.,-0.));
#15 = SHELL_BASED_SURFACE_MODEL('',(#16));
#16 = OPEN_SHELL('',(#17));
#17 = ADVANCED_FACE('',(#18),#46,.T.);
#18 = FACE_BOUND('',#19,.T.);
#19 = EDGE_LOOP('',(#20,#71,#87,#131));
#20 = ORIENTED_EDGE('',*,*,#21,.T.);
#21 = EDGE_CURVE('',#22,#24,#26,.T.);
#22 = VERTEX_POINT('',#23);
#23 = CARTESIAN_POINT('',(0.,0.,0.));
#24 = VERTEX_POINT('',#25);
#25 = CARTESIAN_POINT('',(1.,0.,0.));
#26 = SURFACE_CURVE('',#27,(#45),.PCURVE_S1.);
#27 = B_SPLINE_CURVE_WITH_KNOTS('',1,(#28,#29,#30,#31,#32,#33,#34,#35,
    #36,#37,#38,#39,#40,#41,#42,#43,#44),.UNSPECIFIED.,.F.,.F.,(2,1,1,1,
    1,1,1,1,1,1,1,1,1,1,1,1,2),(0.,3.101509154833E-02,9.958009251355E-02
    ,0.146423262135,0.218959839139,0.282007138147,0.338333976699,
    0.523288685898,0.664168016023,0.716307446482,0.795571348701,
    0.814918267366,0.844027402895,0.877618780236,0.892888903734,
    0.953571079735,1.),.UNSPECIFIED.);
#28 = CARTESIAN_POINT('',(0.,-0.,0.));
#29 = CARTESIAN_POINT('',(3.096398914018E-02,-2.525091434253E-03,0.));
#30 = CARTESIAN_POINT('',(9.964285431812E-02,-2.29085177186E-03,0.));
#31 = CARTESIAN_POINT('',(0.146520954318,-4.302300071804E-03,0.));
#32 = CARTESIAN_POINT('',(0.219150370872,-2.283824408607E-03,0.));
#33 = CARTESIAN_POINT('',(0.282215240022,1.039395324175E-03,0.));
#34 = CARTESIAN_POINT('',(0.338558803113,-1.910030216582E-03,0.));
#35 = CARTESIAN_POINT('',(0.523811791046,9.889392469444E-06,0.));
#36 = CARTESIAN_POINT('',(0.664913435539,1.885190449546E-03,0.));
#37 = CARTESIAN_POINT('',(0.716786019356,-4.183058219132E-03,0.));
#38 = CARTESIAN_POINT('',(0.796059624251,2.237191997782E-04,0.));
#39 = CARTESIAN_POINT('',(0.815413777994,-7.604494965701E-04,0.));
#40 = CARTESIAN_POINT('',(0.844565864996,-1.32978275919E-03,0.));
#41 = CARTESIAN_POINT('',(0.878077411358,1.690303590701E-03,0.));
#42 = CARTESIAN_POINT('',(0.893054795326,-1.413318032147E-03,0.));
#43 = CARTESIAN_POINT('',(0.953743117165,-4.810008674744E-03,0.));
#44 = CARTESIAN_POINT('',(1.,-0.,0.));
#45 = PCURVE('',#46,#51);
#46 = PLANE('',#47);
#47 = AXIS2_PLACEMENT_3D('',#48,#49,#50);
#48 = CARTESIAN_POINT('',(0.500308410341,3.125E-02,0.));
#49 = DIRECTION('',(0.,0.,1.));
#50 = DIRECTION('',(1.,0.,-0.));
#51 = DEFINITIONAL_REPRESENTATION('',(#52),#70);
#52 = B_SPLINE_CURVE_WITH_KNOTS('',1,(#53,#54,#55,#56,#57,#58,#59,#60,
    #61,#62,#63,#64,#65,#66,#67,#68,#69),.UNSPECIFIED.,.F.,.F.,(2,1,1,1,
    1,1,1,1,1,1,1,1,1,1,1,1,2),(0.,3.101509154833E-02,9.958009251355E-02
    ,0.146423262135,0.218959839139,0.282007138147,0.338333976699,
    0.523288685898,0.664168016023,0.716307446482,0.795571348701,
    0.814918267366,0.844027402895,0.877618780236,0.892888903734,
    0.953571079735,1.),.UNSPECIFIED.);
#53 = CARTESIAN_POINT('',(-0.500308410341,-3.125E-02));
#54 = CARTESIAN_POINT('',(-0.469344421201,-3.377509143425E-02));
#55 = CARTESIAN_POINT('',(-0.400665556023,-3.354085177186E-02));
#56 = CARTESIAN_POINT('',(-0.353787456024,-3.55523000718E-02));
#57 = CARTESIAN_POINT('',(-0.281158039469,-3.353382440861E-02));
#58 = CARTESIAN_POINT('',(-0.218093170319,-3.021060467583E-02));
#59 = CARTESIAN_POINT('',(-0.161749607229,-3.316003021658E-02));
#60 = CARTESIAN_POINT('',(2.350338070453E-02,-3.124011060753E-02));
#61 = CARTESIAN_POINT('',(0.164605025198,-2.936480955045E-02));
#62 = CARTESIAN_POINT('',(0.216477609015,-3.543305821913E-02));
#63 = CARTESIAN_POINT('',(0.295751213909,-3.102628080022E-02));
#64 = CARTESIAN_POINT('',(0.315105367653,-3.201044949657E-02));
#65 = CARTESIAN_POINT('',(0.344257454654,-3.257978275919E-02));
#66 = CARTESIAN_POINT('',(0.377769001016,-2.95596964093E-02));
#67 = CARTESIAN_POINT('',(0.392746384985,-3.266331803215E-02));
#68 = CARTESIAN_POINT('',(0.453434706824,-3.606000867474E-02));
#69 = CARTESIAN_POINT('',(0.499691589659,-3.125E-02));
#70 = ( GEOMETRIC_REPRESENTATION_CONTEXT(2) 
PARAMETRIC_REPRESENTATION_CONTEXT() REPRESENTATION_CONTEXT('2D SPACE',''
  ) );
#71 = ORIENTED_EDGE('',*,*,#72,.T.);
#72 = EDGE_CURVE('',#24,#73,#75,.T.);
#73 = VERTEX_POINT('',#74);
#74 = CARTESIAN_POINT('',(1.,6.25E-02,0.));
#75 = SURFACE_CURVE('',#76,(#80),.PCURVE_S1.);
#76 = LINE('',#77,#78);
#77 = CARTESIAN_POINT('',(1.,-0.,0.));
#78 = VECTOR('',#79,1.);
#79 = DIRECTION('',(0.,1.,0.));
#80 = PCURVE('',#46,#81);
#81 = DEFINITIONAL_REPRESENTATION('',(#82),#86);
#82 = LINE('',#83,#84);
#83 = CARTESIAN_POINT('',(0.499691589659,-3.125E-02));
#84 = VECTOR('',#85,1.);
#85 = DIRECTION('',(0.,1.));
#86 = ( GEOMETRIC_REPRESENTATION_CONTEXT(2) 
PARAMETRIC_REPRESENTATION_CONTEXT() REPRESENTATION_CONTEXT('2D SPACE',''
  ) );
#87 = ORIENTED_EDGE('',*,*,#88,.T.);
#88 = EDGE_CURVE('',#73,#89,#91,.T.);
#89 = VERTEX_POINT('',#90);
#90 = CARTESIAN_POINT('',(0.,6.25E-02,0.));
#91 = SURFACE_CURVE('',#92,(#110),.PCURVE_S1.);
#92 = B_SPLINE_CURVE_WITH_KNOTS('',1,(#93,#94,#95,#96,#97,#98,#99,#100,
    #101,#102,#103,#104,#105,#106,#107,#108,#109),.UNSPECIFIED.,.F.,.F.,
  (2,1,1,1,1,1,1,1,1,1,1,1,1,1,1,1,2),(0.,4.642892026455E-02,
    0.107111096266,0.122381219764,0.155972597105,0.185081732634,
    0.204428651299,0.283692553518,0.335831983977,0.476711314102,
    0.661666023301,0.717992861853,0.781040160861,0.853576737865,
    0.900419907486,0.968984908452,1.),.UNSPECIFIED.);
#93 = CARTESIAN_POINT('',(1.,6.25E-02,0.));
#94 = CARTESIAN_POINT('',(0.953743117165,6.731000867474E-02,0.));
#95 = CARTESIAN_POINT('',(0.893054795326,6.391331803215E-02,0.));
#96 = CARTESIAN_POINT('',(0.878077411358,6.08096964093E-02,0.));
#97 = CARTESIAN_POINT('',(0.844565864996,6.382978275919E-02,0.));
#98 = CARTESIAN_POINT('',(0.815413777994,6.326044949657E-02,0.));
#99 = CARTESIAN_POINT('',(0.796059624251,6.227628080022E-02,0.));
#100 = CARTESIAN_POINT('',(0.716786019356,6.668305821913E-02,0.));
#101 = CARTESIAN_POINT('',(0.664913435539,6.061480955045E-02,0.));
#102 = CARTESIAN_POINT('',(0.523811791046,6.249011060753E-02,0.));
#103 = CARTESIAN_POINT('',(0.338558803113,6.441003021658E-02,0.));
#104 = CARTESIAN_POINT('',(0.282215240022,6.146060467583E-02,0.));
#105 = CARTESIAN_POINT('',(0.219150370872,6.478382440861E-02,0.));
#106 = CARTESIAN_POINT('',(0.146520954318,6.68023000718E-02,0.));
#107 = CARTESIAN_POINT('',(9.964285431812E-02,6.479085177186E-02,0.));
#108 = CARTESIAN_POINT('',(3.096398914018E-02,6.502509143425E-02,0.));
#109 = CARTESIAN_POINT('',(0.,6.25E-02,0.));
#110 = PCURVE('',#46,#111);
#111 = DEFINITIONAL_REPRESENTATION('',(#112),#130);
#112 = B_SPLINE_CURVE_WITH_KNOTS('',1,(#113,#114,#115,#116,#117,#118,
    #119,#120,#121,#122,#123,#124,#125,#126,#127,#128,#129),
  .UNSPECIFIED.,.F.,.F.,(2,1,1,1,1,1,1,1,1,1,1,1,1,1,1,1,2),(0.,
    4.642892026455E-02,0.107111096266,0.122381219764,0.155972597105,
    0.185081732634,0.204428651299,0.283692553518,0.335831983977,
    0.476711314102,0.661666023301,0.717992861853,0.781040160861,
    0.853576737865,0.900419907486,0.968984908452,1.),.UNSPECIFIED.);
#113 = CARTESIAN_POINT('',(0.499691589659,3.125E-02));
#114 = CARTESIAN_POINT('',(0.453434706824,3.606000867474E-02));
#115 = CARTESIAN_POINT('',(0.392746384985,3.266331803215E-02));
#116 = CARTESIAN_POINT('',(0.377769001016,2.95596964093E-02));
#117 = CARTESIAN_POINT('',(0.344257454654,3.257978275919E-02));
#118 = CARTESIAN_POINT('',(0.315105367653,3.201044949657E-02));
#119 = CARTESIAN_POINT('',(0.295751213909,3.102628080022E-02));
#120 = CARTESIAN_POINT('',(0.216477609015,3.543305821913E-02));
#121 = CARTESIAN_POINT('',(0.164605025198,2.936480955045E-02));
#122 = CARTESIAN_POINT('',(2.350338070453E-02,3.124011060753E-02));
#123 = CARTESIAN_POINT('',(-0.161749607229,3.316003021658E-02));
#124 = CARTESIAN_POINT('',(-0.218093170319,3.021060467583E-02));
#125 = CARTESIAN_POINT('',(-0.281158039469,3.353382440861E-02));
#126 = CARTESIAN_POINT('',(-0.353787456024,3.55523000718E-02));
#127 = CARTESIAN_POINT('',(-0.400665556023,3.354085177186E-02));
#128 = CARTESIAN_POINT('',(-0.469344421201,3.377509143425E-02));
#129 = CARTESIAN_POINT('',(-0.500308410341,3.125E-02));
#130 = ( GEOMETRIC_REPRESENTATION_CONTEXT(2) 
PARAMETRIC_REPRESENTATION_CONTEXT() REPRESENTATION_CONTEXT('2D SPACE',''
  ) );
#131 = ORIENTED_EDGE('',*,*,#132,.T.);
#132 = EDGE_CURVE('',#89,#22,#133,.T.);
#133 = SURFACE_CURVE('',#134,(#138),.PCURVE_S1.);
#134 = LINE('',#135,#136);
#135 = CARTESIAN_POINT('',(0.,6.25E-02,0.));
#136 = VECTOR('',#137,1.);
#137 = DIRECTION('',(0.,-1.,0.));
#138 = PCURVE('',#46,#139);
#139 = DEFINITIONAL_REPRESENTATION('',(#140),#144);
#140 = LINE('',#141,#142);
#141 = CARTESIAN_POINT('',(-0.500308410341,3.125E-02));
#142 = VECTOR('',#143,1.);
#143 = DIRECTION('',(0.,-1.));
#144 = ( GEOMETRIC_REPRESENTATION_CONTEXT(2) 
PARAMETRIC_REPRESENTATION_CONTEXT() REPRESENTATION_CONTEXT('2D SPACE',''
  ) );
#145 = ( GEOMETRIC_REPRESENTATION_CONTEXT(3) 
GLOBAL_UNCERTAINTY_ASSIGNED_CONTEXT((#149)) GLOBAL_UNIT_ASSIGNED_CONTEXT
((#146,#147,#148)) REPRESENTATION_CONTEXT('Context #1',
  '3D Context with UNIT and UNCERTAINTY') );
#146 = ( LENGTH_UNIT() NAMED_UNIT(*) SI_UNIT(.MILLI.,.METRE.) );
#147 = ( NAMED_UNIT(*) PLANE_ANGLE_UNIT() SI_UNIT($,.RADIAN.) );
#148 = ( NAMED_UNIT(*) SI_UNIT($,.STERADIAN.) SOLID_ANGLE_UNIT() );
#149 = UNCERTAINTY_MEASURE_WITH_UNIT(LENGTH_MEASURE(1.E-07),#146,
  'distance_accuracy_value','confusion accuracy');
#150 = PRODUCT_RELATED_PRODUCT_CATEGORY('part',$,(#7));
ENDSEC;
END-ISO-10303-21;
