ISO-10303-21;
HEADER;
FILE_DESCRIPTION(('Open CASCADE Model'),'2;1');
FILE_NAME('Open CASCADE Shape Model','2026-08-17T20:30:05',('Author'),(
    'Open CASCADE'),'Open CASCADE STEP processor 7.9','Open CASCADE 7.9'
  ,'Unknown');
FILE_SCHEMA(('AUTOMOTIVE_DESIGN { 1 0 10303 214 1 1 1 1 }'));
ENDSEC;
DATA;
#1 = APPLICATION_PROTOCOL_DEFINITION('international standard',
  'automotive_design',2000,#2);
#2 = APPLICATION_CONTEXT(
  'core data for automotive mechanical design processes');
#3 = SHAPE_DEFINITION_REPRESENTATION(#4,#10);
#4 = PRODUCT_DEFINITION_SHAPE('','',#5);
#5 = PRODUCT_DEFINITION('design','',#6,#9);
#6 = PRODUCT_DEFINITION_FORMATION('','',#7);
#7 = PRODUCT('Open CASCADE STEP translator 7.9 84',
  'Open CASCADE STEP translator 7.9 84','',(#8));
#8 = PRODUCT_CONTEXT('',#2,'mechanical');
#9 = PRODUCT_DEFINITION_CONTEXT('part definition',#2,'design');
#10 = MANIFOLD_SURFACE_SHAPE_REPRESENTATION('',(#11,#15),#145);
#11 = AXIS2_PLACEMENT_3D('',#12,#13,#14);
#12 = CARTESIAN_POINT('',(0.,0.,0.));
#13 = DIRECTION('',(0.,0.,1.));
#14 = DIRECTION('',(1.,0.,-0.));
#15 = SHELL_BASED_SURFACE_MODEL('',(#16));
#16 = OPEN_SHELL('',(#17));
#17 = ADVANCED_FACE('',(#18),#46,.T.);
#18 = FACE_BOUND('',#19,.T.);
#19 = EDGE_LOOP('',(#20,#71,#87,#131));
#20 = ORIENTED_EDGE('',*,*,#21,.T.);
#21 = EDGE_CURVE('',#22,#24,#26,.T.);
#22 = VERTEX_POINT('',#23);
#23 = CARTESIAN_POINT('',(0.,0.,0.));
#24 = VERTEX_POINT('',#25);
#25 = CARTESIAN_POINT('',(1.,0.,0.));
#26 = SURFACE_CURVE('',#27,(#45),.PCURVE_S1.);
#27 = B_SPLINE_CURVE_WITH_KNOTS('',1,(#28,#29,#30,#31,#32,#33,#34,#35,
    #36,#37,#38,#39,#40,#41,#42,#43,#44),.UNSPECIFIED.,.F.,.F.,(2,1,1,1,
    1,1,1,1,1,1,1,1,1,1,1,1,2),(0.,1.757325201811E-02,6.523464054962E-02
    ,9.799704687507E-02,0.122267677292,0.153875104286,0.232131101507,
    0.259375509708,0.415838489313,0.45054526981,0.482799956178,
    0.496392255161,0.616309074403,0.750585789669,0.791645591036,
    0.926712457251,1.),.UNSPECIFIED.);
#28 = CARTESIAN_POINT('',(0.,-0.,0.));
#29 = CARTESIAN_POINT('',(1.734944107166E-02,-2.992624805719E-03,0.));
#30 = CARTESIAN_POINT('',(6.508691947242E-02,-4.053127489939E-03,0.));
#31 = CARTESIAN_POINT('',(9.785329557301E-02,-2.1292657791E-03,0.));
#32 = CARTESIAN_POINT('',(0.122160648723,-1.504709709094E-03,0.));
#33 = CARTESIAN_POINT('',(0.153301716133,4.235530776793E-03,0.));
#34 = CARTESIAN_POINT('',(0.231672072003,2.069995225322E-03,0.));
#35 = CARTESIAN_POINT('',(0.258953314203,1.215030476555E-03,0.));
#36 = CARTESIAN_POINT('',(0.41568124956,3.929093841995E-03,0.));
#37 = CARTESIAN_POINT('',(0.45024749922,1.633899920494E-04,0.));
#38 = CARTESIAN_POINT('',(0.482301986581,4.251688333155E-03,0.));
#39 = CARTESIAN_POINT('',(0.4958296632,2.691433883841E-03,0.));
#40 = CARTESIAN_POINT('',(0.615866682444,-2.230787588259E-03,0.));
#41 = CARTESIAN_POINT('',(0.750239401134,4.152846367586E-03,0.));
#42 = CARTESIAN_POINT('',(0.791313818526,1.911975632515E-03,0.));
#43 = CARTESIAN_POINT('',(0.92659002268,-1.364367505151E-03,0.));
#44 = CARTESIAN_POINT('',(1.,-0.,0.));
#45 = PCURVE('',#46,#51);
#46 = PLANE('',#47);
#47 = AXIS2_PLACEMENT_3D('',#48,#49,#50);
#48 = CARTESIAN_POINT('',(0.499701278741,3.125E-02,0.));
#49 = DIRECTION('',(0.,0.,1.));
#50 = DIRECTION('',(1.,0.,-0.));
#51 = DEFINITIONAL_REPRESENTATION('',(#52),#70);
#52 = B_SPLINE_CURVE_WITH_KNOTS('',1,(#53,#54,#55,#56,#57,#58,#59,#60,
    #61,#62,#63,#64,#65,#66,#67,#68,#69),.UNSPECIFIED.,.F.,.F.,(2,1,1,1,
    1,1,1,1,1,1,1,1,1,1,1,1,2),(0.,1.757325201811E-02,6.523464054962E-02
    ,9.799704687507E-02,0.122267677292,0.153875104286,0.232131101507,
    0.259375509708,0.415838489313,0.45054526981,0.482799956178,
    0.496392255161,0.616309074403,0.750585789669,0.791645591036,
    0.926712457251,1.),.UNSPECIFIED.);
#53 = CARTESIAN_POINT('',(-0.499701278741,-3.125E-02));
#54 = CARTESIAN_POINT('',(-0.482351837669,-3.424262480572E-02));
#55 = CARTESIAN_POINT('',(-0.434614359268,-3.530312748994E-02));
#56 = CARTESIAN_POINT('',(-0.401847983168,-3.33792657791E-02));
#57 = CARTESIAN_POINT('',(-0.377540630018,-3.275470970909E-02));
#58 = CARTESIAN_POINT('',(-0.346399562607,-2.701446922321E-02));
#59 = CARTESIAN_POINT('',(-0.268029206738,-2.918000477468E-02));
#60 = CARTESIAN_POINT('',(-0.240747964537,-3.003496952344E-02));
#61 = CARTESIAN_POINT('',(-8.402002918097E-02,-2.732090615801E-02));
#62 = CARTESIAN_POINT('',(-4.945377952105E-02,-3.108661000795E-02));
#63 = CARTESIAN_POINT('',(-1.739929215973E-02,-2.699831166685E-02));
#64 = CARTESIAN_POINT('',(-3.871615540661E-03,-2.855856611616E-02));
#65 = CARTESIAN_POINT('',(0.116165403703,-3.348078758826E-02));
#66 = CARTESIAN_POINT('',(0.250538122393,-2.709715363241E-02));
#67 = CARTESIAN_POINT('',(0.291612539786,-2.933802436748E-02));
#68 = CARTESIAN_POINT('',(0.426888743939,-3.261436750515E-02));
#69 = CARTESIAN_POINT('',(0.500298721259,-3.125E-02));
#70 = ( GEOMETRIC_REPRESENTATION_CONTEXT(2) 
PARAMETRIC_REPRESENTATION_CONTEXT() REPRESENTATION_CONTEXT('2D SPACE',''
  ) );
#71 = ORIENTED_EDGE('',*,*,#72,.T.);
#72 = EDGE_CURVE('',#24,#73,#75,.T.);
#73 = VERTEX_POINT('',#74);
#74 = CARTESIAN_POINT('',(1.,6.25E-02,0.));
#75 = SURFACE_CURVE('',#76,(#80),.PCURVE_S1.);
#76 = LINE('',#77,#78);
#77 = CARTESIAN_POINT('',(1.,-0.,0.));
#78 = VECTOR('',#79,1.);
#79 = DIRECTION('',(0.,1.,0.));
#80 = PCURVE('',#46,#81);
#81 = DEFINITIONAL_REPRESENTATION('',(#82),#86);
#82 = LINE('',#83,#84);
#83 = CARTESIAN_POINT('',(0.500298721259,-3.125E-02));
#84 = VECTOR('',#85,1.);
#85 = DIRECTION('',(0.,1.));
#86 = ( GEOMETRIC_REPRESENTATION_CONTEXT(2) 
PARAMETRIC_REPRESENTATION_CONTEXT() REPRESENTATION_CONTEXT('2D SPACE',''
  ) );
#87 = ORIENTED_EDGE('',*,*,#88,.T.);
#88 = EDGE_CURVE('',#73,#89,#91,.T.);
#89 = VERTEX_POINT('',#90);
#90 = CARTESIAN_POINT('',(0.,6.25E-02,0.));
#91 = SURFACE_CURVE('',#92,(#110),.PCURVE_S1.);
#92 = B_SPLINE_CURVE_WITH_KNOTS('',1,(#93,#94,#95,#96,#97,#98,#99,#100,
    #101,#102,#103,#104,#105,#106,#107,#108,#109),.UNSPECIFIED.,.F.,.F.,
  (2,1,1,1,1,1,1,1,1,1,1,1,1,1,1,1,2),(0.,7.328754274862E-02,
    0.208354408964,0.249414210331,0.383690925597,0.503607744839,
    0.517200043822,0.54945473019,0.584161510687,0.740624490292,
    0.767868898493,0.846124895714,0.877732322708,0.902002953125,
    0.93476535945,0.982426747982,1.),.UNSPECIFIED.);
#93 = CARTESIAN_POINT('',(1.,6.25E-02,0.));
#94 = CARTESIAN_POINT('',(0.92659002268,6.386436750515E-02,0.));
#95 = CARTESIAN_POINT('',(0.791313818526,6.058802436748E-02,0.));
#96 = CARTESIAN_POINT('',(0.750239401134,5.834715363241E-02,0.));
#97 = CARTESIAN_POINT('',(0.615866682444,6.473078758826E-02,0.));
#98 = CARTESIAN_POINT('',(0.4958296632,5.980856611616E-02,0.));
#99 = CARTESIAN_POINT('',(0.482301986581,5.824831166685E-02,0.));
#100 = CARTESIAN_POINT('',(0.45024749922,6.233661000795E-02,0.));
#101 = CARTESIAN_POINT('',(0.41568124956,5.857090615801E-02,0.));
#102 = CARTESIAN_POINT('',(0.258953314203,6.128496952344E-02,0.));
#103 = CARTESIAN_POINT('',(0.231672072003,6.043000477468E-02,0.));
#104 = CARTESIAN_POINT('',(0.153301716133,5.826446922321E-02,0.));
#105 = CARTESIAN_POINT('',(0.122160648723,6.400470970909E-02,0.));
#106 = CARTESIAN_POINT('',(9.785329557301E-02,6.46292657791E-02,0.));
#107 = CARTESIAN_POINT('',(6.508691947242E-02,6.655312748994E-02,0.));
#108 = CARTESIAN_POINT('',(1.734944107166E-02,6.549262480572E-02,0.));
#109 = CARTESIAN_POINT('',(0.,6.25E-02,0.));
#110 = PCURVE('',#46,#111);
#111 = DEFINITIONAL_REPRESENTATION('',(#112),#130);
#112 = B_SPLINE_CURVE_WITH_KNOTS('',1,(#113,#114,#115,#116,#117,#118,
    #119,#120,#121,#122,#123,#124,#125,#126,#127,#128,#129),
  .UNSPECIFIED.,.F.,.F.,(2,1,1,1,1,1,1,1,1,1,1,1,1,1,1,1,2),(0.,
    7.328754274862E-02,0.208354408964,0.249414210331,0.383690925597,
    0.503607744839,0.517200043822,0.54945473019,0.584161510687,
    0.740624490292,0.767868898493,0.846124895714,0.877732322708,
    0.902002953125,0.93476535945,0.982426747982,1.),.UNSPECIFIED.);
#113 = CARTESIAN_POINT('',(0.500298721259,3.125E-02));
#114 = CARTESIAN_POINT('',(0.426888743939,3.261436750515E-02));
#115 = CARTESIAN_POINT('',(0.291612539786,2.933802436748E-02));
#116 = CARTESIAN_POINT('',(0.250538122393,2.709715363241E-02));
#117 = CARTESIAN_POINT('',(0.116165403703,3.348078758826E-02));
#118 = CARTESIAN_POINT('',(-3.871615540661E-03,2.855856611616E-02));
#119 = CARTESIAN_POINT('',(-1.739929215973E-02,2.699831166685E-02));
#120 = CARTESIAN_POINT('',(-4.945377952105E-02,3.108661000795E-02));
#121 = CARTESIAN_POINT('',(-8.402002918097E-02,2.732090615801E-02));
#122 = CARTESIAN_POINT('',(-0.240747964537,3.003496952344E-02));
#123 = CARTESIAN_POINT('',(-0.268029206738,2.918000477468E-02));
#124 = CARTESIAN_POINT('',(-0.346399562607,2.701446922321E-02));
#125 = CARTESIAN_POINT('',(-0.377540630018,3.275470970909E-02));
#126 = CARTESIAN_POINT('',(-0.401847983168,3.33792657791E-02));
#127 = CARTESIAN_POINT('',(-0.434614359268,3.530312748994E-02));
#128 = CARTESIAN_POINT('',(-0.482351837669,3.424262480572E-02));
#129 = CARTESIAN_POINT('',(-0.499701278741,3.125E-02));
#130 = ( GEOMETRIC_REPRESENTATION_CONTEXT(2) 
PARAMETRIC_REPRESENTATION_CONTEXT() REPRESENTATION_CONTEXT('2D SPACE',''
  ) );
#131 = ORIENTED_EDGE('',*,*,#132,.T.);
#132 = EDGE_CURVE('',#89,#22,#133,.T.);
#133 = SURFACE_CURVE('',#134,(#138),.PCURVE_S1.);
#134 = LINE('',#135,#136);
#135 = CARTESIAN_POINT('',(0.,6.25E-02,0.));
#136 = VECTOR('',#137,1.);
#137 = DIRECTION('',(0.,-1.,0.));
#138 = PCURVE('',#46,#139);
#139 = DEFINITIONAL_REPRESENTATION('',(#140),#144);
#140 = LINE('',#141,#142);
#141 = CARTESIAN_POINT('',(-0.499701278741,3.125E-02));
#142 = VECTOR('',#143,1.);
#143 = DIRECTION('',(0.,-1.));
#144 = ( GEOMETRIC_REPRESENTATION_CONTEXT(2) 
PARAMETRIC_REPRESENTATION_CONTEXT() REPRESENTATION_CONTEXT('2D SPACE',''
  ) );
#145 = ( GEOMETRIC_REPRESENTATION_CONTEXT(3) 
GLOBAL_UNCERTAINTY_ASSIGNED_CONTEXT((#149)) GLOBAL_UNIT_ASSIGNED_CONTEXT
((#146,#147,#148)) REPRESENTATION_CONTEXT('Context #1',
  '3D Context with UNIT and UNCERTAINTY') );
#146 = ( LENGTH_UNIT() NAMED_UNIT(*) SI_UNIT(.MILLI.,.METRE.) );
#147 = ( NAMED_UNIT(*) PLANE_ANGLE_UNIT() SI_UNIT($,.RADIAN.) );
#148 = ( NAMED_UNIT(*) SI_UNIT($,.STERADIAN.) SOLID_ANGLE_UNIT() );
#149 = UNCERTAINTY_MEASURE_WITH_UNIT(LENGTH_MEASURE(1.E-07),#146,
  'distance_accuracy_value','confusion accuracy');
#150 = PRODUCT_RELATED_PRODUCT_CATEGORY('part',$,(#7));
ENDSEC;
END-ISO-10303-21;
