ISO-10303-21;
HEADER;
FILE_DESCRIPTION(('Open CASCADE Model'),'2;1');
FILE_NAME('Open CASCADE Shape Model','2026-07-23T16:45:03',('Author'),(
    'Open CASCADE'),'Open CASCADE STEP processor 7.9','Open CASCADE 7.9'
  ,'Unknown');
FILE_SCHEMA(('AUTOMOTIVE_DESIGN { 1 0 10303 214 1 1 1 1 }'));
ENDSEC;
DATA;
#1 = APPLICATION_PROTOCOL_DEFINITION('international standard',
  'automotive_design',2000,#2);
#2 = APPLICATION_CONTEXT(
  'core data for automotive mechanical design processes');
#3 = SHAPE_DEFINITION_REPRESENTATION(#4,#10);
#4 = PRODUCT_DEFINITION_SHAPE('','',#5);
#5 = PRODUCT_DEFINITION('design','',#6,#9);
#6 = PRODUCT_DEFINITION_FORMATION('','',#7);
#7 = PRODUCT('Open CASCADE STEP translator 7.9 11',
  'Open CASCADE STEP translator 7.9 11','',(#8));
#8 = PRODUCT_CONTEXT('',#2,'mechanical');
#9 = PRODUCT_DEFINITION_CONTEXT('part definition',#2,'design');
#10 = MANIFOLD_SURFACE_SHAPE_REPRESENTATION('',(#11,#15),#161);
#11 = AXIS2_PLACEMENT_3D('',#12,#13,#14);
#12 = CARTESIAN_POINT('',(0.,0.,0.));
#13 = DIRECTION('',(0.,0.,1.));
#14 = DIRECTION('',(1.,0.,-0.));
#15 = SHELL_BASED_SURFACE_MODEL('',(#16));
#16 = OPEN_SHELL('',(#17));
#17 = ADVANCED_FACE('',(#18),#50,.T.);
#18 = FACE_BOUND('',#19,.T.);
#19 = EDGE_LOOP('',(#20,#79,#95,#147));
#20 = ORIENTED_EDGE('',*,*,#21,.T.);
#21 = EDGE_CURVE('',#22,#24,#26,.T.);
#22 = VERTEX_POINT('',#23);
#23 = CARTESIAN_POINT('',(0.,0.,0.));
#24 = VERTEX_POINT('',#25);
#25 = CARTESIAN_POINT('',(1.,0.,0.));
#26 = SURFACE_CURVE('',#27,(#49),.PCURVE_S1.);
#27 = B_SPLINE_CURVE_WITH_KNOTS('',1,(#28,#29,#30,#31,#32,#33,#34,#35,
    #36,#37,#38,#39,#40,#41,#42,#43,#44,#45,#46,#47,#48),.UNSPECIFIED.,
  .F.,.F.,(2,1,1,1,1,1,1,1,1,1,1,1,1,1,1,1,1,1,1,1,2),(0.,
    1.701727851903E-02,9.910736786081E-02,0.157634385475,0.180145992685,
    0.198112451276,0.228798532332,0.250249618632,0.263076639475,
    0.292114059556,0.386719054132,0.434601775939,0.560393942189,
    0.64744259551,0.699525403413,0.779120749531,0.81668107904,
    0.866805381839,0.891137024045,0.909347521148,1.),.UNSPECIFIED.);
#28 = CARTESIAN_POINT('',(0.,-0.,0.));
#29 = CARTESIAN_POINT('',(1.705354296863E-02,4.422371016639E-04,0.));
#30 = CARTESIAN_POINT('',(9.93071982083E-02,2.976366352048E-03,0.));
#31 = CARTESIAN_POINT('',(0.157969510701,1.940433758493E-03,0.));
#32 = CARTESIAN_POINT('',(0.180370618896,-7.92195689419E-04,0.));
#33 = CARTESIAN_POINT('',(0.197926031972,3.232272170608E-03,0.));
#34 = CARTESIAN_POINT('',(0.227927209549,-3.566142840924E-03,0.));
#35 = CARTESIAN_POINT('',(0.249408850248,-2.585195298352E-03,0.));
#36 = CARTESIAN_POINT('',(0.262261594553,-2.194629559509E-03,0.));
#37 = CARTESIAN_POINT('',(0.291228481601,6.79069602249E-04,0.));
#38 = CARTESIAN_POINT('',(0.38604686169,-1.273088407024E-03,0.));
#39 = CARTESIAN_POINT('',(0.434045810116,-8.409796891274E-04,0.));
#40 = CARTESIAN_POINT('',(0.560146709615,-1.498466015548E-03,0.));
#41 = CARTESIAN_POINT('',(0.647226831741,4.155556788601E-03,0.));
#42 = CARTESIAN_POINT('',(0.699332919709,8.419259782939E-04,0.));
#43 = CARTESIAN_POINT('',(0.779036912707,4.583858261381E-03,0.));
#44 = CARTESIAN_POINT('',(0.816417200429,6.009180755481E-05,0.));
#45 = CARTESIAN_POINT('',(0.866638394189,1.701387876672E-03,0.));
#46 = CARTESIAN_POINT('',(0.890959570521,3.55475811134E-03,0.));
#47 = CARTESIAN_POINT('',(0.909210378045,3.965970322774E-03,0.));
#48 = CARTESIAN_POINT('',(1.,-0.,0.));
#49 = PCURVE('',#50,#55);
#50 = PLANE('',#51);
#51 = AXIS2_PLACEMENT_3D('',#52,#53,#54);
#52 = CARTESIAN_POINT('',(0.499748929768,2.5E-02,0.));
#53 = DIRECTION('',(0.,0.,1.));
#54 = DIRECTION('',(1.,0.,-0.));
#55 = DEFINITIONAL_REPRESENTATION('',(#56),#78);
#56 = B_SPLINE_CURVE_WITH_KNOTS('',1,(#57,#58,#59,#60,#61,#62,#63,#64,
    #65,#66,#67,#68,#69,#70,#71,#72,#73,#74,#75,#76,#77),.UNSPECIFIED.,
  .F.,.F.,(2,1,1,1,1,1,1,1,1,1,1,1,1,1,1,1,1,1,1,1,2),(0.,
    1.701727851903E-02,9.910736786081E-02,0.157634385475,0.180145992685,
    0.198112451276,0.228798532332,0.250249618632,0.263076639475,
    0.292114059556,0.386719054132,0.434601775939,0.560393942189,
    0.64744259551,0.699525403413,0.779120749531,0.81668107904,
    0.866805381839,0.891137024045,0.909347521148,1.),.UNSPECIFIED.);
#57 = CARTESIAN_POINT('',(-0.499748929768,-2.5E-02));
#58 = CARTESIAN_POINT('',(-0.482695386799,-2.455776289834E-02));
#59 = CARTESIAN_POINT('',(-0.400441731559,-2.202363364795E-02));
#60 = CARTESIAN_POINT('',(-0.341779419066,-2.305956624151E-02));
#61 = CARTESIAN_POINT('',(-0.319378310872,-2.579219568942E-02));
#62 = CARTESIAN_POINT('',(-0.301822897795,-2.176772782939E-02));
#63 = CARTESIAN_POINT('',(-0.271821720219,-2.856614284092E-02));
#64 = CARTESIAN_POINT('',(-0.250340079519,-2.758519529835E-02));
#65 = CARTESIAN_POINT('',(-0.237487335215,-2.719462955951E-02));
#66 = CARTESIAN_POINT('',(-0.208520448167,-2.432093039775E-02));
#67 = CARTESIAN_POINT('',(-0.113702068077,-2.627308840702E-02));
#68 = CARTESIAN_POINT('',(-6.570311965193E-02,-2.584097968913E-02));
#69 = CARTESIAN_POINT('',(6.039777984767E-02,-2.649846601555E-02));
#70 = CARTESIAN_POINT('',(0.147477901974,-2.08444432114E-02));
#71 = CARTESIAN_POINT('',(0.199583989942,-2.415807402171E-02));
#72 = CARTESIAN_POINT('',(0.279287982939,-2.041614173862E-02));
#73 = CARTESIAN_POINT('',(0.316668270662,-2.493990819245E-02));
#74 = CARTESIAN_POINT('',(0.366889464421,-2.329861212333E-02));
#75 = CARTESIAN_POINT('',(0.391210640753,-2.144524188866E-02));
#76 = CARTESIAN_POINT('',(0.409461448278,-2.103402967723E-02));
#77 = CARTESIAN_POINT('',(0.500251070232,-2.5E-02));
#78 = ( GEOMETRIC_REPRESENTATION_CONTEXT(2) 
PARAMETRIC_REPRESENTATION_CONTEXT() REPRESENTATION_CONTEXT('2D SPACE',''
  ) );
#79 = ORIENTED_EDGE('',*,*,#80,.T.);
#80 = EDGE_CURVE('',#24,#81,#83,.T.);
#81 = VERTEX_POINT('',#82);
#82 = CARTESIAN_POINT('',(1.,5.E-02,0.));
#83 = SURFACE_CURVE('',#84,(#88),.PCURVE_S1.);
#84 = LINE('',#85,#86);
#85 = CARTESIAN_POINT('',(1.,-0.,0.));
#86 = VECTOR('',#87,1.);
#87 = DIRECTION('',(0.,1.,0.));
#88 = PCURVE('',#50,#89);
#89 = DEFINITIONAL_REPRESENTATION('',(#90),#94);
#90 = LINE('',#91,#92);
#91 = CARTESIAN_POINT('',(0.500251070232,-2.5E-02));
#92 = VECTOR('',#93,1.);
#93 = DIRECTION('',(0.,1.));
#94 = ( GEOMETRIC_REPRESENTATION_CONTEXT(2) 
PARAMETRIC_REPRESENTATION_CONTEXT() REPRESENTATION_CONTEXT('2D SPACE',''
  ) );
#95 = ORIENTED_EDGE('',*,*,#96,.T.);
#96 = EDGE_CURVE('',#81,#97,#99,.T.);
#97 = VERTEX_POINT('',#98);
#98 = CARTESIAN_POINT('',(0.,5.E-02,0.));
#99 = SURFACE_CURVE('',#100,(#122),.PCURVE_S1.);
#100 = B_SPLINE_CURVE_WITH_KNOTS('',1,(#101,#102,#103,#104,#105,#106,
    #107,#108,#109,#110,#111,#112,#113,#114,#115,#116,#117,#118,#119,
    #120,#121),.UNSPECIFIED.,.F.,.F.,(2,1,1,1,1,1,1,1,1,1,1,1,1,1,1,1,1,
    1,1,1,2),(0.,9.065247885204E-02,0.108862975955,0.133194618161,
    0.18331892096,0.220879250469,0.300474596587,0.35255740449,
    0.439606057811,0.565398224061,0.613280945868,0.707885940444,
    0.736923360525,0.749750381368,0.771201467668,0.801887548724,
    0.819854007315,0.842365614525,0.900892632139,0.982982721481,1.),
  .UNSPECIFIED.);
#101 = CARTESIAN_POINT('',(1.,5.E-02,0.));
#102 = CARTESIAN_POINT('',(0.909210378045,4.603402967723E-02,0.));
#103 = CARTESIAN_POINT('',(0.890959570521,4.644524188866E-02,0.));
#104 = CARTESIAN_POINT('',(0.866638394189,4.829861212333E-02,0.));
#105 = CARTESIAN_POINT('',(0.816417200429,4.993990819245E-02,0.));
#106 = CARTESIAN_POINT('',(0.779036912707,4.541614173862E-02,0.));
#107 = CARTESIAN_POINT('',(0.699332919709,4.915807402171E-02,0.));
#108 = CARTESIAN_POINT('',(0.647226831741,4.58444432114E-02,0.));
#109 = CARTESIAN_POINT('',(0.560146709615,5.149846601555E-02,0.));
#110 = CARTESIAN_POINT('',(0.434045810116,5.084097968913E-02,0.));
#111 = CARTESIAN_POINT('',(0.38604686169,5.127308840702E-02,0.));
#112 = CARTESIAN_POINT('',(0.291228481601,4.932093039775E-02,0.));
#113 = CARTESIAN_POINT('',(0.262261594553,5.219462955951E-02,0.));
#114 = CARTESIAN_POINT('',(0.249408850248,5.258519529835E-02,0.));
#115 = CARTESIAN_POINT('',(0.227927209549,5.356614284092E-02,0.));
#116 = CARTESIAN_POINT('',(0.197926031972,4.676772782939E-02,0.));
#117 = CARTESIAN_POINT('',(0.180370618896,5.079219568942E-02,0.));
#118 = CARTESIAN_POINT('',(0.157969510701,4.805956624151E-02,0.));
#119 = CARTESIAN_POINT('',(9.93071982083E-02,4.702363364795E-02,0.));
#120 = CARTESIAN_POINT('',(1.705354296863E-02,4.955776289834E-02,0.));
#121 = CARTESIAN_POINT('',(0.,5.E-02,0.));
#122 = PCURVE('',#50,#123);
#123 = DEFINITIONAL_REPRESENTATION('',(#124),#146);
#124 = B_SPLINE_CURVE_WITH_KNOTS('',1,(#125,#126,#127,#128,#129,#130,
    #131,#132,#133,#134,#135,#136,#137,#138,#139,#140,#141,#142,#143,
    #144,#145),.UNSPECIFIED.,.F.,.F.,(2,1,1,1,1,1,1,1,1,1,1,1,1,1,1,1,1,
    1,1,1,2),(0.,9.065247885204E-02,0.108862975955,0.133194618161,
    0.18331892096,0.220879250469,0.300474596587,0.35255740449,
    0.439606057811,0.565398224061,0.613280945868,0.707885940444,
    0.736923360525,0.749750381368,0.771201467668,0.801887548724,
    0.819854007315,0.842365614525,0.900892632139,0.982982721481,1.),
  .UNSPECIFIED.);
#125 = CARTESIAN_POINT('',(0.500251070232,2.5E-02));
#126 = CARTESIAN_POINT('',(0.409461448278,2.103402967723E-02));
#127 = CARTESIAN_POINT('',(0.391210640753,2.144524188866E-02));
#128 = CARTESIAN_POINT('',(0.366889464421,2.329861212333E-02));
#129 = CARTESIAN_POINT('',(0.316668270662,2.493990819245E-02));
#130 = CARTESIAN_POINT('',(0.279287982939,2.041614173862E-02));
#131 = CARTESIAN_POINT('',(0.199583989942,2.415807402171E-02));
#132 = CARTESIAN_POINT('',(0.147477901974,2.08444432114E-02));
#133 = CARTESIAN_POINT('',(6.039777984767E-02,2.649846601555E-02));
#134 = CARTESIAN_POINT('',(-6.570311965193E-02,2.584097968913E-02));
#135 = CARTESIAN_POINT('',(-0.113702068077,2.627308840702E-02));
#136 = CARTESIAN_POINT('',(-0.208520448167,2.432093039775E-02));
#137 = CARTESIAN_POINT('',(-0.237487335215,2.719462955951E-02));
#138 = CARTESIAN_POINT('',(-0.250340079519,2.758519529835E-02));
#139 = CARTESIAN_POINT('',(-0.271821720219,2.856614284092E-02));
#140 = CARTESIAN_POINT('',(-0.301822897795,2.176772782939E-02));
#141 = CARTESIAN_POINT('',(-0.319378310872,2.579219568942E-02));
#142 = CARTESIAN_POINT('',(-0.341779419066,2.305956624151E-02));
#143 = CARTESIAN_POINT('',(-0.400441731559,2.202363364795E-02));
#144 = CARTESIAN_POINT('',(-0.482695386799,2.455776289834E-02));
#145 = CARTESIAN_POINT('',(-0.499748929768,2.5E-02));
#146 = ( GEOMETRIC_REPRESENTATION_CONTEXT(2) 
PARAMETRIC_REPRESENTATION_CONTEXT() REPRESENTATION_CONTEXT('2D SPACE',''
  ) );
#147 = ORIENTED_EDGE('',*,*,#148,.T.);
#148 = EDGE_CURVE('',#97,#22,#149,.T.);
#149 = SURFACE_CURVE('',#150,(#154),.PCURVE_S1.);
#150 = LINE('',#151,#152);
#151 = CARTESIAN_POINT('',(0.,5.E-02,0.));
#152 = VECTOR('',#153,1.);
#153 = DIRECTION('',(0.,-1.,0.));
#154 = PCURVE('',#50,#155);
#155 = DEFINITIONAL_REPRESENTATION('',(#156),#160);
#156 = LINE('',#157,#158);
#157 = CARTESIAN_POINT('',(-0.499748929768,2.5E-02));
#158 = VECTOR('',#159,1.);
#159 = DIRECTION('',(0.,-1.));
#160 = ( GEOMETRIC_REPRESENTATION_CONTEXT(2) 
PARAMETRIC_REPRESENTATION_CONTEXT() REPRESENTATION_CONTEXT('2D SPACE',''
  ) );
#161 = ( GEOMETRIC_REPRESENTATION_CONTEXT(3) 
GLOBAL_UNCERTAINTY_ASSIGNED_CONTEXT((#165)) GLOBAL_UNIT_ASSIGNED_CONTEXT
((#162,#163,#164)) REPRESENTATION_CONTEXT('Context #1',
  '3D Context with UNIT and UNCERTAINTY') );
#162 = ( LENGTH_UNIT() NAMED_UNIT(*) SI_UNIT(.MILLI.,.METRE.) );
#163 = ( NAMED_UNIT(*) PLANE_ANGLE_UNIT() SI_UNIT($,.RADIAN.) );
#164 = ( NAMED_UNIT(*) SI_UNIT($,.STERADIAN.) SOLID_ANGLE_UNIT() );
#165 = UNCERTAINTY_MEASURE_WITH_UNIT(LENGTH_MEASURE(1.E-07),#162,
  'distance_accuracy_value','confusion accuracy');
#166 = PRODUCT_RELATED_PRODUCT_CATEGORY('part',$,(#7));
ENDSEC;
END-ISO-10303-21;
