ISO-10303-21;
HEADER;
FILE_DESCRIPTION(('Open CASCADE Model'),'2;1');
FILE_NAME('Open CASCADE Shape Model','2026-08-17T20:30:05',('Author'),(
    'Open CASCADE'),'Open CASCADE STEP processor 7.9','Open CASCADE 7.9'
  ,'Unknown');
FILE_SCHEMA(('AUTOMOTIVE_DESIGN { 1 0 10303 214 1 1 1 1 }'));
ENDSEC;
DATA;
#1 = APPLICATION_PROTOCOL_DEFINITION('international standard',
  'automotive_design',2000,#2);
#2 = APPLICATION_CONTEXT(
  'core data for automotive mechanical design processes');
#3 = SHAPE_DEFINITION_REPRESENTATION(#4,#10);
#4 = PRODUCT_DEFINITION_SHAPE('','',#5);
#5 = PRODUCT_DEFINITION('design','',#6,#9);
#6 = PRODUCT_DEFINITION_FORMATION('','',#7);
#7 = PRODUCT('Open CASCADE STEP translator 7.9 89',
  'Open CASCADE STEP translator 7.9 89','',(#8));
#8 = PRODUCT_CONTEXT('',#2,'mechanical');
#9 = PRODUCT_DEFINITION_CONTEXT('part definition',#2,'design');
#10 = MANIFOLD_SURFACE_SHAPE_REPRESENTATION('',(#11,#15),#145);
#11 = AXIS2_PLACEMENT_3D('',#12,#13,#14);
#12 = CARTESIAN_POINT('',(0.,0.,0.));
#13 = DIRECTION('',(0.,0.,1.));
#14 = DIRECTION('',(1.,0.,-0.));
#15 = SHELL_BASED_SURFACE_MODEL('',(#16));
#16 = OPEN_SHELL('',(#17));
#17 = ADVANCED_FACE('',(#18),#46,.T.);
#18 = FACE_BOUND('',#19,.T.);
#19 = EDGE_LOOP('',(#20,#71,#87,#131));
#20 = ORIENTED_EDGE('',*,*,#21,.T.);
#21 = EDGE_CURVE('',#22,#24,#26,.T.);
#22 = VERTEX_POINT('',#23);
#23 = CARTESIAN_POINT('',(0.,0.,0.));
#24 = VERTEX_POINT('',#25);
#25 = CARTESIAN_POINT('',(1.,0.,0.));
#26 = SURFACE_CURVE('',#27,(#45),.PCURVE_S1.);
#27 = B_SPLINE_CURVE_WITH_KNOTS('',1,(#28,#29,#30,#31,#32,#33,#34,#35,
    #36,#37,#38,#39,#40,#41,#42,#43,#44),.UNSPECIFIED.,.F.,.F.,(2,1,1,1,
    1,1,1,1,1,1,1,1,1,1,1,1,2),(0.,1.693877612286E-02,6.635610284201E-02
    ,0.150912959665,0.249548857577,0.268508251559,0.2866671417,
    0.312857066818,0.432145645602,0.535490109378,0.595095206045,
    0.714214088116,0.851690425033,0.881162767506,0.899970157861,
    0.923830438686,1.),.UNSPECIFIED.);
#28 = CARTESIAN_POINT('',(0.,-0.,0.));
#29 = CARTESIAN_POINT('',(1.697317438051E-02,-1.285674706709E-03,0.));
#30 = CARTESIAN_POINT('',(6.652364936853E-02,2.003686234788E-03,0.));
#31 = CARTESIAN_POINT('',(0.151361889562,-2.749621104369E-03,0.));
#32 = CARTESIAN_POINT('',(0.250238640843,4.180882642475E-03,0.));
#33 = CARTESIAN_POINT('',(0.267789029982,-3.233611294625E-03,0.));
#34 = CARTESIAN_POINT('',(0.28495734531,2.949795351913E-03,0.));
#35 = CARTESIAN_POINT('',(0.311053697443,-4.60889827297E-04,0.));
#36 = CARTESIAN_POINT('',(0.430843795026,-4.924954911991E-03,0.));
#37 = CARTESIAN_POINT('',(0.53448267334,1.709051464745E-03,0.));
#38 = CARTESIAN_POINT('',(0.594305387693,4.696031768433E-03,0.));
#39 = CARTESIAN_POINT('',(0.713856821701,-1.320234983463E-03,0.));
#40 = CARTESIAN_POINT('',(0.851928116779,3.346783551208E-03,0.));
#41 = CARTESIAN_POINT('',(0.881326429032,-2.440082735521E-04,0.));
#42 = CARTESIAN_POINT('',(0.899827661987,3.615805025884E-03,0.));
#43 = CARTESIAN_POINT('',(0.923458406642,-4.45638555535E-04,0.));
#44 = CARTESIAN_POINT('',(1.,-0.,0.));
#45 = PCURVE('',#46,#51);
#46 = PLANE('',#47);
#47 = AXIS2_PLACEMENT_3D('',#48,#49,#50);
#48 = CARTESIAN_POINT('',(0.499595493948,3.125E-02,0.));
#49 = DIRECTION('',(0.,0.,1.));
#50 = DIRECTION('',(1.,0.,-0.));
#51 = DEFINITIONAL_REPRESENTATION('',(#52),#70);
#52 = B_SPLINE_CURVE_WITH_KNOTS('',1,(#53,#54,#55,#56,#57,#58,#59,#60,
    #61,#62,#63,#64,#65,#66,#67,#68,#69),.UNSPECIFIED.,.F.,.F.,(2,1,1,1,
    1,1,1,1,1,1,1,1,1,1,1,1,2),(0.,1.693877612286E-02,6.635610284201E-02
    ,0.150912959665,0.249548857577,0.268508251559,0.2866671417,
    0.312857066818,0.432145645602,0.535490109378,0.595095206045,
    0.714214088116,0.851690425033,0.881162767506,0.899970157861,
    0.923830438686,1.),.UNSPECIFIED.);
#53 = CARTESIAN_POINT('',(-0.499595493948,-3.125E-02));
#54 = CARTESIAN_POINT('',(-0.482622319567,-3.253567470671E-02));
#55 = CARTESIAN_POINT('',(-0.433071844579,-2.924631376521E-02));
#56 = CARTESIAN_POINT('',(-0.348233604386,-3.399962110437E-02));
#57 = CARTESIAN_POINT('',(-0.249356853105,-2.706911735753E-02));
#58 = CARTESIAN_POINT('',(-0.231806463966,-3.448361129462E-02));
#59 = CARTESIAN_POINT('',(-0.214638148638,-2.830020464809E-02));
#60 = CARTESIAN_POINT('',(-0.188541796505,-3.17108898273E-02));
#61 = CARTESIAN_POINT('',(-6.875169892179E-02,-3.617495491199E-02));
#62 = CARTESIAN_POINT('',(3.48871793919E-02,-2.954094853526E-02));
#63 = CARTESIAN_POINT('',(9.470989374459E-02,-2.655396823157E-02));
#64 = CARTESIAN_POINT('',(0.214261327753,-3.257023498346E-02));
#65 = CARTESIAN_POINT('',(0.352332622831,-2.790321644879E-02));
#66 = CARTESIAN_POINT('',(0.381730935084,-3.149400827355E-02));
#67 = CARTESIAN_POINT('',(0.400232168039,-2.763419497412E-02));
#68 = CARTESIAN_POINT('',(0.423862912694,-3.169563855553E-02));
#69 = CARTESIAN_POINT('',(0.500404506052,-3.125E-02));
#70 = ( GEOMETRIC_REPRESENTATION_CONTEXT(2) 
PARAMETRIC_REPRESENTATION_CONTEXT() REPRESENTATION_CONTEXT('2D SPACE',''
  ) );
#71 = ORIENTED_EDGE('',*,*,#72,.T.);
#72 = EDGE_CURVE('',#24,#73,#75,.T.);
#73 = VERTEX_POINT('',#74);
#74 = CARTESIAN_POINT('',(1.,6.25E-02,0.));
#75 = SURFACE_CURVE('',#76,(#80),.PCURVE_S1.);
#76 = LINE('',#77,#78);
#77 = CARTESIAN_POINT('',(1.,-0.,0.));
#78 = VECTOR('',#79,1.);
#79 = DIRECTION('',(0.,1.,0.));
#80 = PCURVE('',#46,#81);
#81 = DEFINITIONAL_REPRESENTATION('',(#82),#86);
#82 = LINE('',#83,#84);
#83 = CARTESIAN_POINT('',(0.500404506052,-3.125E-02));
#84 = VECTOR('',#85,1.);
#85 = DIRECTION('',(0.,1.));
#86 = ( GEOMETRIC_REPRESENTATION_CONTEXT(2) 
PARAMETRIC_REPRESENTATION_CONTEXT() REPRESENTATION_CONTEXT('2D SPACE',''
  ) );
#87 = ORIENTED_EDGE('',*,*,#88,.T.);
#88 = EDGE_CURVE('',#73,#89,#91,.T.);
#89 = VERTEX_POINT('',#90);
#90 = CARTESIAN_POINT('',(0.,6.25E-02,0.));
#91 = SURFACE_CURVE('',#92,(#110),.PCURVE_S1.);
#92 = B_SPLINE_CURVE_WITH_KNOTS('',1,(#93,#94,#95,#96,#97,#98,#99,#100,
    #101,#102,#103,#104,#105,#106,#107,#108,#109),.UNSPECIFIED.,.F.,.F.,
  (2,1,1,1,1,1,1,1,1,1,1,1,1,1,1,1,2),(0.,7.61695613144E-02,
    0.100029842139,0.118837232494,0.148309574967,0.285785911884,
    0.404904793955,0.464509890622,0.567854354398,0.687142933182,
    0.7133328583,0.731491748441,0.750451142423,0.849087040335,
    0.933643897158,0.983061223877,1.),.UNSPECIFIED.);
#93 = CARTESIAN_POINT('',(1.,6.25E-02,0.));
#94 = CARTESIAN_POINT('',(0.923458406642,6.294563855553E-02,0.));
#95 = CARTESIAN_POINT('',(0.899827661987,5.888419497412E-02,0.));
#96 = CARTESIAN_POINT('',(0.881326429032,6.274400827355E-02,0.));
#97 = CARTESIAN_POINT('',(0.851928116779,5.915321644879E-02,0.));
#98 = CARTESIAN_POINT('',(0.713856821701,6.382023498346E-02,0.));
#99 = CARTESIAN_POINT('',(0.594305387693,5.780396823157E-02,0.));
#100 = CARTESIAN_POINT('',(0.53448267334,6.079094853526E-02,0.));
#101 = CARTESIAN_POINT('',(0.430843795026,6.742495491199E-02,0.));
#102 = CARTESIAN_POINT('',(0.311053697443,6.29608898273E-02,0.));
#103 = CARTESIAN_POINT('',(0.28495734531,5.955020464809E-02,0.));
#104 = CARTESIAN_POINT('',(0.267789029982,6.573361129462E-02,0.));
#105 = CARTESIAN_POINT('',(0.250238640843,5.831911735753E-02,0.));
#106 = CARTESIAN_POINT('',(0.151361889562,6.524962110437E-02,0.));
#107 = CARTESIAN_POINT('',(6.652364936853E-02,6.049631376521E-02,0.));
#108 = CARTESIAN_POINT('',(1.697317438051E-02,6.378567470671E-02,0.));
#109 = CARTESIAN_POINT('',(0.,6.25E-02,0.));
#110 = PCURVE('',#46,#111);
#111 = DEFINITIONAL_REPRESENTATION('',(#112),#130);
#112 = B_SPLINE_CURVE_WITH_KNOTS('',1,(#113,#114,#115,#116,#117,#118,
    #119,#120,#121,#122,#123,#124,#125,#126,#127,#128,#129),
  .UNSPECIFIED.,.F.,.F.,(2,1,1,1,1,1,1,1,1,1,1,1,1,1,1,1,2),(0.,
    7.61695613144E-02,0.100029842139,0.118837232494,0.148309574967,
    0.285785911884,0.404904793955,0.464509890622,0.567854354398,
    0.687142933182,0.7133328583,0.731491748441,0.750451142423,
    0.849087040335,0.933643897158,0.983061223877,1.),.UNSPECIFIED.);
#113 = CARTESIAN_POINT('',(0.500404506052,3.125E-02));
#114 = CARTESIAN_POINT('',(0.423862912694,3.169563855553E-02));
#115 = CARTESIAN_POINT('',(0.400232168039,2.763419497412E-02));
#116 = CARTESIAN_POINT('',(0.381730935084,3.149400827355E-02));
#117 = CARTESIAN_POINT('',(0.352332622831,2.790321644879E-02));
#118 = CARTESIAN_POINT('',(0.214261327753,3.257023498346E-02));
#119 = CARTESIAN_POINT('',(9.470989374459E-02,2.655396823157E-02));
#120 = CARTESIAN_POINT('',(3.48871793919E-02,2.954094853526E-02));
#121 = CARTESIAN_POINT('',(-6.875169892179E-02,3.617495491199E-02));
#122 = CARTESIAN_POINT('',(-0.188541796505,3.17108898273E-02));
#123 = CARTESIAN_POINT('',(-0.214638148638,2.830020464809E-02));
#124 = CARTESIAN_POINT('',(-0.231806463966,3.448361129462E-02));
#125 = CARTESIAN_POINT('',(-0.249356853105,2.706911735753E-02));
#126 = CARTESIAN_POINT('',(-0.348233604386,3.399962110437E-02));
#127 = CARTESIAN_POINT('',(-0.433071844579,2.924631376521E-02));
#128 = CARTESIAN_POINT('',(-0.482622319567,3.253567470671E-02));
#129 = CARTESIAN_POINT('',(-0.499595493948,3.125E-02));
#130 = ( GEOMETRIC_REPRESENTATION_CONTEXT(2) 
PARAMETRIC_REPRESENTATION_CONTEXT() REPRESENTATION_CONTEXT('2D SPACE',''
  ) );
#131 = ORIENTED_EDGE('',*,*,#132,.T.);
#132 = EDGE_CURVE('',#89,#22,#133,.T.);
#133 = SURFACE_CURVE('',#134,(#138),.PCURVE_S1.);
#134 = LINE('',#135,#136);
#135 = CARTESIAN_POINT('',(0.,6.25E-02,0.));
#136 = VECTOR('',#137,1.);
#137 = DIRECTION('',(0.,-1.,0.));
#138 = PCURVE('',#46,#139);
#139 = DEFINITIONAL_REPRESENTATION('',(#140),#144);
#140 = LINE('',#141,#142);
#141 = CARTESIAN_POINT('',(-0.499595493948,3.125E-02));
#142 = VECTOR('',#143,1.);
#143 = DIRECTION('',(0.,-1.));
#144 = ( GEOMETRIC_REPRESENTATION_CONTEXT(2) 
PARAMETRIC_REPRESENTATION_CONTEXT() REPRESENTATION_CONTEXT('2D SPACE',''
  ) );
#145 = ( GEOMETRIC_REPRESENTATION_CONTEXT(3) 
GLOBAL_UNCERTAINTY_ASSIGNED_CONTEXT((#149)) GLOBAL_UNIT_ASSIGNED_CONTEXT
((#146,#147,#148)) REPRESENTATION_CONTEXT('Context #1',
  '3D Context with UNIT and UNCERTAINTY') );
#146 = ( LENGTH_UNIT() NAMED_UNIT(*) SI_UNIT(.MILLI.,.METRE.) );
#147 = ( NAMED_UNIT(*) PLANE_ANGLE_UNIT() SI_UNIT($,.RADIAN.) );
#148 = ( NAMED_UNIT(*) SI_UNIT($,.STERADIAN.) SOLID_ANGLE_UNIT() );
#149 = UNCERTAINTY_MEASURE_WITH_UNIT(LENGTH_MEASURE(1.E-07),#146,
  'distance_accuracy_value','confusion accuracy');
#150 = PRODUCT_RELATED_PRODUCT_CATEGORY('part',$,(#7));
ENDSEC;
END-ISO-10303-21;
