ISO-10303-21;
HEADER;
FILE_DESCRIPTION(('Open CASCADE Model'),'2;1');
FILE_NAME('Open CASCADE Shape Model','2026-08-17T20:30:05',('Author'),(
    'Open CASCADE'),'Open CASCADE STEP processor 7.9','Open CASCADE 7.9'
  ,'Unknown');
FILE_SCHEMA(('AUTOMOTIVE_DESIGN { 1 0 10303 214 1 1 1 1 }'));
ENDSEC;
DATA;
#1 = APPLICATION_PROTOCOL_DEFINITION('international standard',
  'automotive_design',2000,#2);
#2 = APPLICATION_CONTEXT(
  'core data for automotive mechanical design processes');
#3 = SHAPE_DEFINITION_REPRESENTATION(#4,#10);
#4 = PRODUCT_DEFINITION_SHAPE('','',#5);
#5 = PRODUCT_DEFINITION('design','',#6,#9);
#6 = PRODUCT_DEFINITION_FORMATION('','',#7);
#7 = PRODUCT('Open CASCADE STEP translator 7.9 91',
  'Open CASCADE STEP translator 7.9 91','',(#8));
#8 = PRODUCT_CONTEXT('',#2,'mechanical');
#9 = PRODUCT_DEFINITION_CONTEXT('part definition',#2,'design');
#10 = MANIFOLD_SURFACE_SHAPE_REPRESENTATION('',(#11,#15),#113);
#11 = AXIS2_PLACEMENT_3D('',#12,#13,#14);
#12 = CARTESIAN_POINT('',(0.,0.,0.));
#13 = DIRECTION('',(0.,0.,1.));
#14 = DIRECTION('',(1.,0.,-0.));
#15 = SHELL_BASED_SURFACE_MODEL('',(#16));
#16 = OPEN_SHELL('',(#17));
#17 = ADVANCED_FACE('',(#18),#38,.T.);
#18 = FACE_BOUND('',#19,.T.);
#19 = EDGE_LOOP('',(#20,#55,#71,#99));
#20 = ORIENTED_EDGE('',*,*,#21,.T.);
#21 = EDGE_CURVE('',#22,#24,#26,.T.);
#22 = VERTEX_POINT('',#23);
#23 = CARTESIAN_POINT('',(0.,0.,0.));
#24 = VERTEX_POINT('',#25);
#25 = CARTESIAN_POINT('',(1.,0.,0.));
#26 = SURFACE_CURVE('',#27,(#37),.PCURVE_S1.);
#27 = B_SPLINE_CURVE_WITH_KNOTS('',1,(#28,#29,#30,#31,#32,#33,#34,#35,
    #36),.UNSPECIFIED.,.F.,.F.,(2,1,1,1,1,1,1,1,2),(0.,0.128020481301,
    0.232283677628,0.261951172734,0.373420250022,0.545559760306,
    0.787150070337,0.859389288889,1.),.UNSPECIFIED.);
#28 = CARTESIAN_POINT('',(0.,-0.,0.));
#29 = CARTESIAN_POINT('',(0.128005045219,3.950258569669E-03,0.));
#30 = CARTESIAN_POINT('',(0.232302230722,4.750379616501E-03,0.));
#31 = CARTESIAN_POINT('',(0.261797166445,1.458751814604E-03,0.));
#32 = CARTESIAN_POINT('',(0.373304930173,1.002610227274E-03,0.));
#33 = CARTESIAN_POINT('',(0.545496831382,2.742749259562E-03,0.));
#34 = CARTESIAN_POINT('',(0.787141773276,-1.142767456258E-03,0.));
#35 = CARTESIAN_POINT('',(0.859349854865,1.72218117332E-03,0.));
#36 = CARTESIAN_POINT('',(1.,-0.,0.));
#37 = PCURVE('',#38,#43);
#38 = PLANE('',#39);
#39 = AXIS2_PLACEMENT_3D('',#40,#41,#42);
#40 = CARTESIAN_POINT('',(0.499958853796,6.25E-02,0.));
#41 = DIRECTION('',(0.,0.,1.));
#42 = DIRECTION('',(1.,0.,-0.));
#43 = DEFINITIONAL_REPRESENTATION('',(#44),#54);
#44 = B_SPLINE_CURVE_WITH_KNOTS('',1,(#45,#46,#47,#48,#49,#50,#51,#52,
    #53),.UNSPECIFIED.,.F.,.F.,(2,1,1,1,1,1,1,1,2),(0.,0.128020481301,
    0.232283677628,0.261951172734,0.373420250022,0.545559760306,
    0.787150070337,0.859389288889,1.),.UNSPECIFIED.);
#45 = CARTESIAN_POINT('',(-0.499958853796,-6.25E-02));
#46 = CARTESIAN_POINT('',(-0.371953808577,-5.854974143033E-02));
#47 = CARTESIAN_POINT('',(-0.267656623074,-5.77496203835E-02));
#48 = CARTESIAN_POINT('',(-0.23816168735,-6.10412481854E-02));
#49 = CARTESIAN_POINT('',(-0.126653923623,-6.149738977273E-02));
#50 = CARTESIAN_POINT('',(4.553797758652E-02,-5.975725074044E-02));
#51 = CARTESIAN_POINT('',(0.287182919481,-6.364276745626E-02));
#52 = CARTESIAN_POINT('',(0.359391001069,-6.077781882668E-02));
#53 = CARTESIAN_POINT('',(0.500041146204,-6.25E-02));
#54 = ( GEOMETRIC_REPRESENTATION_CONTEXT(2) 
PARAMETRIC_REPRESENTATION_CONTEXT() REPRESENTATION_CONTEXT('2D SPACE',''
  ) );
#55 = ORIENTED_EDGE('',*,*,#56,.T.);
#56 = EDGE_CURVE('',#24,#57,#59,.T.);
#57 = VERTEX_POINT('',#58);
#58 = CARTESIAN_POINT('',(1.,0.125,0.));
#59 = SURFACE_CURVE('',#60,(#64),.PCURVE_S1.);
#60 = LINE('',#61,#62);
#61 = CARTESIAN_POINT('',(1.,-0.,0.));
#62 = VECTOR('',#63,1.);
#63 = DIRECTION('',(0.,1.,0.));
#64 = PCURVE('',#38,#65);
#65 = DEFINITIONAL_REPRESENTATION('',(#66),#70);
#66 = LINE('',#67,#68);
#67 = CARTESIAN_POINT('',(0.500041146204,-6.25E-02));
#68 = VECTOR('',#69,1.);
#69 = DIRECTION('',(0.,1.));
#70 = ( GEOMETRIC_REPRESENTATION_CONTEXT(2) 
PARAMETRIC_REPRESENTATION_CONTEXT() REPRESENTATION_CONTEXT('2D SPACE',''
  ) );
#71 = ORIENTED_EDGE('',*,*,#72,.T.);
#72 = EDGE_CURVE('',#57,#73,#75,.T.);
#73 = VERTEX_POINT('',#74);
#74 = CARTESIAN_POINT('',(0.,0.125,0.));
#75 = SURFACE_CURVE('',#76,(#86),.PCURVE_S1.);
#76 = B_SPLINE_CURVE_WITH_KNOTS('',1,(#77,#78,#79,#80,#81,#82,#83,#84,
    #85),.UNSPECIFIED.,.F.,.F.,(2,1,1,1,1,1,1,1,2),(0.,0.140610711111,
    0.212849929663,0.454440239694,0.626579749978,0.738048827266,
    0.767716322372,0.871979518699,1.),.UNSPECIFIED.);
#77 = CARTESIAN_POINT('',(1.,0.125,0.));
#78 = CARTESIAN_POINT('',(0.859349854865,0.123277818827,0.));
#79 = CARTESIAN_POINT('',(0.787141773276,0.126142767456,0.));
#80 = CARTESIAN_POINT('',(0.545496831382,0.12225725074,0.));
#81 = CARTESIAN_POINT('',(0.373304930173,0.123997389773,0.));
#82 = CARTESIAN_POINT('',(0.261797166445,0.123541248185,0.));
#83 = CARTESIAN_POINT('',(0.232302230722,0.120249620383,0.));
#84 = CARTESIAN_POINT('',(0.128005045219,0.12104974143,0.));
#85 = CARTESIAN_POINT('',(0.,0.125,0.));
#86 = PCURVE('',#38,#87);
#87 = DEFINITIONAL_REPRESENTATION('',(#88),#98);
#88 = B_SPLINE_CURVE_WITH_KNOTS('',1,(#89,#90,#91,#92,#93,#94,#95,#96,
    #97),.UNSPECIFIED.,.F.,.F.,(2,1,1,1,1,1,1,1,2),(0.,0.140610711111,
    0.212849929663,0.454440239694,0.626579749978,0.738048827266,
    0.767716322372,0.871979518699,1.),.UNSPECIFIED.);
#89 = CARTESIAN_POINT('',(0.500041146204,6.25E-02));
#90 = CARTESIAN_POINT('',(0.359391001069,6.077781882668E-02));
#91 = CARTESIAN_POINT('',(0.287182919481,6.364276745626E-02));
#92 = CARTESIAN_POINT('',(4.553797758652E-02,5.975725074044E-02));
#93 = CARTESIAN_POINT('',(-0.126653923623,6.149738977273E-02));
#94 = CARTESIAN_POINT('',(-0.23816168735,6.10412481854E-02));
#95 = CARTESIAN_POINT('',(-0.267656623074,5.77496203835E-02));
#96 = CARTESIAN_POINT('',(-0.371953808577,5.854974143033E-02));
#97 = CARTESIAN_POINT('',(-0.499958853796,6.25E-02));
#98 = ( GEOMETRIC_REPRESENTATION_CONTEXT(2) 
PARAMETRIC_REPRESENTATION_CONTEXT() REPRESENTATION_CONTEXT('2D SPACE',''
  ) );
#99 = ORIENTED_EDGE('',*,*,#100,.T.);
#100 = EDGE_CURVE('',#73,#22,#101,.T.);
#101 = SURFACE_CURVE('',#102,(#106),.PCURVE_S1.);
#102 = LINE('',#103,#104);
#103 = CARTESIAN_POINT('',(0.,0.125,0.));
#104 = VECTOR('',#105,1.);
#105 = DIRECTION('',(0.,-1.,0.));
#106 = PCURVE('',#38,#107);
#107 = DEFINITIONAL_REPRESENTATION('',(#108),#112);
#108 = LINE('',#109,#110);
#109 = CARTESIAN_POINT('',(-0.499958853796,6.25E-02));
#110 = VECTOR('',#111,1.);
#111 = DIRECTION('',(0.,-1.));
#112 = ( GEOMETRIC_REPRESENTATION_CONTEXT(2) 
PARAMETRIC_REPRESENTATION_CONTEXT() REPRESENTATION_CONTEXT('2D SPACE',''
  ) );
#113 = ( GEOMETRIC_REPRESENTATION_CONTEXT(3) 
GLOBAL_UNCERTAINTY_ASSIGNED_CONTEXT((#117)) GLOBAL_UNIT_ASSIGNED_CONTEXT
((#114,#115,#116)) REPRESENTATION_CONTEXT('Context #1',
  '3D Context with UNIT and UNCERTAINTY') );
#114 = ( LENGTH_UNIT() NAMED_UNIT(*) SI_UNIT(.MILLI.,.METRE.) );
#115 = ( NAMED_UNIT(*) PLANE_ANGLE_UNIT() SI_UNIT($,.RADIAN.) );
#116 = ( NAMED_UNIT(*) SI_UNIT($,.STERADIAN.) SOLID_ANGLE_UNIT() );
#117 = UNCERTAINTY_MEASURE_WITH_UNIT(LENGTH_MEASURE(1.E-07),#114,
  'distance_accuracy_value','confusion accuracy');
#118 = PRODUCT_RELATED_PRODUCT_CATEGORY('part',$,(#7));
ENDSEC;
END-ISO-10303-21;
