ISO-10303-21;
HEADER;
FILE_DESCRIPTION(('Open CASCADE Model'),'2;1');
FILE_NAME('Open CASCADE Shape Model','2026-08-17T20:30:05',('Author'),(
    'Open CASCADE'),'Open CASCADE STEP processor 7.9','Open CASCADE 7.9'
  ,'Unknown');
FILE_SCHEMA(('AUTOMOTIVE_DESIGN { 1 0 10303 214 1 1 1 1 }'));
ENDSEC;
DATA;
#1 = APPLICATION_PROTOCOL_DEFINITION('international standard',
  'automotive_design',2000,#2);
#2 = APPLICATION_CONTEXT(
  'core data for automotive mechanical design processes');
#3 = SHAPE_DEFINITION_REPRESENTATION(#4,#10);
#4 = PRODUCT_DEFINITION_SHAPE('','',#5);
#5 = PRODUCT_DEFINITION('design','',#6,#9);
#6 = PRODUCT_DEFINITION_FORMATION('','',#7);
#7 = PRODUCT('Open CASCADE STEP translator 7.9 69',
  'Open CASCADE STEP translator 7.9 69','',(#8));
#8 = PRODUCT_CONTEXT('',#2,'mechanical');
#9 = PRODUCT_DEFINITION_CONTEXT('part definition',#2,'design');
#10 = MANIFOLD_SURFACE_SHAPE_REPRESENTATION('',(#11,#15),#145);
#11 = AXIS2_PLACEMENT_3D('',#12,#13,#14);
#12 = CARTESIAN_POINT('',(0.,0.,0.));
#13 = DIRECTION('',(0.,0.,1.));
#14 = DIRECTION('',(1.,0.,-0.));
#15 = SHELL_BASED_SURFACE_MODEL('',(#16));
#16 = OPEN_SHELL('',(#17));
#17 = ADVANCED_FACE('',(#18),#46,.T.);
#18 = FACE_BOUND('',#19,.T.);
#19 = EDGE_LOOP('',(#20,#71,#87,#131));
#20 = ORIENTED_EDGE('',*,*,#21,.T.);
#21 = EDGE_CURVE('',#22,#24,#26,.T.);
#22 = VERTEX_POINT('',#23);
#23 = CARTESIAN_POINT('',(0.,0.,0.));
#24 = VERTEX_POINT('',#25);
#25 = CARTESIAN_POINT('',(1.,0.,0.));
#26 = SURFACE_CURVE('',#27,(#45),.PCURVE_S1.);
#27 = B_SPLINE_CURVE_WITH_KNOTS('',1,(#28,#29,#30,#31,#32,#33,#34,#35,
    #36,#37,#38,#39,#40,#41,#42,#43,#44),.UNSPECIFIED.,.F.,.F.,(2,1,1,1,
    1,1,1,1,1,1,1,1,1,1,1,1,2),(0.,0.141402017027,0.169100852461,
    0.312829488086,0.365738727624,0.472017833918,0.4988297569,
    0.620872322188,0.642888220208,0.710561521549,0.731750797688,
    0.773756416804,0.843148196692,0.866009213158,0.905711935222,
    0.930101424145,1.),.UNSPECIFIED.);
#28 = CARTESIAN_POINT('',(0.,-0.,0.));
#29 = CARTESIAN_POINT('',(0.141916587155,4.221459196072E-03,0.));
#30 = CARTESIAN_POINT('',(0.168183689869,-4.918711916098E-03,0.));
#31 = CARTESIAN_POINT('',(0.312484005805,-2.826868201351E-03,0.));
#32 = CARTESIAN_POINT('',(0.365590725695,-4.230544480618E-03,0.));
#33 = CARTESIAN_POINT('',(0.472179249947,9.230817803125E-04,0.));
#34 = CARTESIAN_POINT('',(0.498548018611,-4.50366509285E-03,0.));
#35 = CARTESIAN_POINT('',(0.62099746058,2.289124042942E-04,0.));
#36 = CARTESIAN_POINT('',(0.642969587473,2.656159456102E-03,0.));
#37 = CARTESIAN_POINT('',(0.7107855452,-1.603584821019E-03,0.));
#38 = CARTESIAN_POINT('',(0.731960254458,-3.675056858768E-03,0.));
#39 = CARTESIAN_POINT('',(0.773553500863,3.318649386093E-03,0.));
#40 = CARTESIAN_POINT('',(0.843228530448,3.215866785803E-03,0.));
#41 = CARTESIAN_POINT('',(0.866027607416,5.504168574603E-04,0.));
#42 = CARTESIAN_POINT('',(0.905884074027,-2.660091195248E-04,0.));
#43 = CARTESIAN_POINT('',(0.929946860102,4.283377150572E-03,0.));
#44 = CARTESIAN_POINT('',(1.,-0.,0.));
#45 = PCURVE('',#46,#51);
#46 = PLANE('',#47);
#47 = AXIS2_PLACEMENT_3D('',#48,#49,#50);
#48 = CARTESIAN_POINT('',(0.499933500787,3.125E-02,0.));
#49 = DIRECTION('',(0.,0.,1.));
#50 = DIRECTION('',(1.,0.,-0.));
#51 = DEFINITIONAL_REPRESENTATION('',(#52),#70);
#52 = B_SPLINE_CURVE_WITH_KNOTS('',1,(#53,#54,#55,#56,#57,#58,#59,#60,
    #61,#62,#63,#64,#65,#66,#67,#68,#69),.UNSPECIFIED.,.F.,.F.,(2,1,1,1,
    1,1,1,1,1,1,1,1,1,1,1,1,2),(0.,0.141402017027,0.169100852461,
    0.312829488086,0.365738727624,0.472017833918,0.4988297569,
    0.620872322188,0.642888220208,0.710561521549,0.731750797688,
    0.773756416804,0.843148196692,0.866009213158,0.905711935222,
    0.930101424145,1.),.UNSPECIFIED.);
#53 = CARTESIAN_POINT('',(-0.499933500787,-3.125E-02));
#54 = CARTESIAN_POINT('',(-0.358016913632,-2.702854080393E-02));
#55 = CARTESIAN_POINT('',(-0.331749810919,-3.61687119161E-02));
#56 = CARTESIAN_POINT('',(-0.187449494982,-3.407686820135E-02));
#57 = CARTESIAN_POINT('',(-0.134342775092,-3.548054448062E-02));
#58 = CARTESIAN_POINT('',(-2.775425084044E-02,-3.032691821969E-02));
#59 = CARTESIAN_POINT('',(-1.385482176082E-03,-3.575366509285E-02));
#60 = CARTESIAN_POINT('',(0.121063959793,-3.102108759571E-02));
#61 = CARTESIAN_POINT('',(0.143036086685,-2.85938405439E-02));
#62 = CARTESIAN_POINT('',(0.210852044413,-3.285358482102E-02));
#63 = CARTESIAN_POINT('',(0.23202675367,-3.492505685877E-02));
#64 = CARTESIAN_POINT('',(0.273620000076,-2.793135061391E-02));
#65 = CARTESIAN_POINT('',(0.343295029661,-2.80341332142E-02));
#66 = CARTESIAN_POINT('',(0.366094106629,-3.069958314254E-02));
#67 = CARTESIAN_POINT('',(0.405950573239,-3.151600911952E-02));
#68 = CARTESIAN_POINT('',(0.430013359315,-2.696662284943E-02));
#69 = CARTESIAN_POINT('',(0.500066499213,-3.125E-02));
#70 = ( GEOMETRIC_REPRESENTATION_CONTEXT(2) 
PARAMETRIC_REPRESENTATION_CONTEXT() REPRESENTATION_CONTEXT('2D SPACE',''
  ) );
#71 = ORIENTED_EDGE('',*,*,#72,.T.);
#72 = EDGE_CURVE('',#24,#73,#75,.T.);
#73 = VERTEX_POINT('',#74);
#74 = CARTESIAN_POINT('',(1.,6.25E-02,0.));
#75 = SURFACE_CURVE('',#76,(#80),.PCURVE_S1.);
#76 = LINE('',#77,#78);
#77 = CARTESIAN_POINT('',(1.,-0.,0.));
#78 = VECTOR('',#79,1.);
#79 = DIRECTION('',(0.,1.,0.));
#80 = PCURVE('',#46,#81);
#81 = DEFINITIONAL_REPRESENTATION('',(#82),#86);
#82 = LINE('',#83,#84);
#83 = CARTESIAN_POINT('',(0.500066499213,-3.125E-02));
#84 = VECTOR('',#85,1.);
#85 = DIRECTION('',(0.,1.));
#86 = ( GEOMETRIC_REPRESENTATION_CONTEXT(2) 
PARAMETRIC_REPRESENTATION_CONTEXT() REPRESENTATION_CONTEXT('2D SPACE',''
  ) );
#87 = ORIENTED_EDGE('',*,*,#88,.T.);
#88 = EDGE_CURVE('',#73,#89,#91,.T.);
#89 = VERTEX_POINT('',#90);
#90 = CARTESIAN_POINT('',(0.,6.25E-02,0.));
#91 = SURFACE_CURVE('',#92,(#110),.PCURVE_S1.);
#92 = B_SPLINE_CURVE_WITH_KNOTS('',1,(#93,#94,#95,#96,#97,#98,#99,#100,
    #101,#102,#103,#104,#105,#106,#107,#108,#109),.UNSPECIFIED.,.F.,.F.,
  (2,1,1,1,1,1,1,1,1,1,1,1,1,1,1,1,2),(0.,6.989857585451E-02,
    9.428806477842E-02,0.133990786842,0.156851803308,0.226243583196,
    0.268249202312,0.289438478451,0.357111779792,0.379127677812,
    0.5011702431,0.527982166082,0.634261272376,0.687170511914,
    0.830899147539,0.858597982973,1.),.UNSPECIFIED.);
#93 = CARTESIAN_POINT('',(1.,6.25E-02,0.));
#94 = CARTESIAN_POINT('',(0.929946860102,5.821662284943E-02,0.));
#95 = CARTESIAN_POINT('',(0.905884074027,6.276600911952E-02,0.));
#96 = CARTESIAN_POINT('',(0.866027607416,6.194958314254E-02,0.));
#97 = CARTESIAN_POINT('',(0.843228530448,5.92841332142E-02,0.));
#98 = CARTESIAN_POINT('',(0.773553500863,5.918135061391E-02,0.));
#99 = CARTESIAN_POINT('',(0.731960254458,6.617505685877E-02,0.));
#100 = CARTESIAN_POINT('',(0.7107855452,6.410358482102E-02,0.));
#101 = CARTESIAN_POINT('',(0.642969587473,5.98438405439E-02,0.));
#102 = CARTESIAN_POINT('',(0.62099746058,6.227108759571E-02,0.));
#103 = CARTESIAN_POINT('',(0.498548018611,6.700366509285E-02,0.));
#104 = CARTESIAN_POINT('',(0.472179249947,6.157691821969E-02,0.));
#105 = CARTESIAN_POINT('',(0.365590725695,6.673054448062E-02,0.));
#106 = CARTESIAN_POINT('',(0.312484005805,6.532686820135E-02,0.));
#107 = CARTESIAN_POINT('',(0.168183689869,6.74187119161E-02,0.));
#108 = CARTESIAN_POINT('',(0.141916587155,5.827854080393E-02,0.));
#109 = CARTESIAN_POINT('',(0.,6.25E-02,0.));
#110 = PCURVE('',#46,#111);
#111 = DEFINITIONAL_REPRESENTATION('',(#112),#130);
#112 = B_SPLINE_CURVE_WITH_KNOTS('',1,(#113,#114,#115,#116,#117,#118,
    #119,#120,#121,#122,#123,#124,#125,#126,#127,#128,#129),
  .UNSPECIFIED.,.F.,.F.,(2,1,1,1,1,1,1,1,1,1,1,1,1,1,1,1,2),(0.,
    6.989857585451E-02,9.428806477842E-02,0.133990786842,0.156851803308,
    0.226243583196,0.268249202312,0.289438478451,0.357111779792,
    0.379127677812,0.5011702431,0.527982166082,0.634261272376,
    0.687170511914,0.830899147539,0.858597982973,1.),.UNSPECIFIED.);
#113 = CARTESIAN_POINT('',(0.500066499213,3.125E-02));
#114 = CARTESIAN_POINT('',(0.430013359315,2.696662284943E-02));
#115 = CARTESIAN_POINT('',(0.405950573239,3.151600911952E-02));
#116 = CARTESIAN_POINT('',(0.366094106629,3.069958314254E-02));
#117 = CARTESIAN_POINT('',(0.343295029661,2.80341332142E-02));
#118 = CARTESIAN_POINT('',(0.273620000076,2.793135061391E-02));
#119 = CARTESIAN_POINT('',(0.23202675367,3.492505685877E-02));
#120 = CARTESIAN_POINT('',(0.210852044413,3.285358482102E-02));
#121 = CARTESIAN_POINT('',(0.143036086685,2.85938405439E-02));
#122 = CARTESIAN_POINT('',(0.121063959793,3.102108759571E-02));
#123 = CARTESIAN_POINT('',(-1.385482176082E-03,3.575366509285E-02));
#124 = CARTESIAN_POINT('',(-2.775425084044E-02,3.032691821969E-02));
#125 = CARTESIAN_POINT('',(-0.134342775092,3.548054448062E-02));
#126 = CARTESIAN_POINT('',(-0.187449494982,3.407686820135E-02));
#127 = CARTESIAN_POINT('',(-0.331749810919,3.61687119161E-02));
#128 = CARTESIAN_POINT('',(-0.358016913632,2.702854080393E-02));
#129 = CARTESIAN_POINT('',(-0.499933500787,3.125E-02));
#130 = ( GEOMETRIC_REPRESENTATION_CONTEXT(2) 
PARAMETRIC_REPRESENTATION_CONTEXT() REPRESENTATION_CONTEXT('2D SPACE',''
  ) );
#131 = ORIENTED_EDGE('',*,*,#132,.T.);
#132 = EDGE_CURVE('',#89,#22,#133,.T.);
#133 = SURFACE_CURVE('',#134,(#138),.PCURVE_S1.);
#134 = LINE('',#135,#136);
#135 = CARTESIAN_POINT('',(0.,6.25E-02,0.));
#136 = VECTOR('',#137,1.);
#137 = DIRECTION('',(0.,-1.,0.));
#138 = PCURVE('',#46,#139);
#139 = DEFINITIONAL_REPRESENTATION('',(#140),#144);
#140 = LINE('',#141,#142);
#141 = CARTESIAN_POINT('',(-0.499933500787,3.125E-02));
#142 = VECTOR('',#143,1.);
#143 = DIRECTION('',(0.,-1.));
#144 = ( GEOMETRIC_REPRESENTATION_CONTEXT(2) 
PARAMETRIC_REPRESENTATION_CONTEXT() REPRESENTATION_CONTEXT('2D SPACE',''
  ) );
#145 = ( GEOMETRIC_REPRESENTATION_CONTEXT(3) 
GLOBAL_UNCERTAINTY_ASSIGNED_CONTEXT((#149)) GLOBAL_UNIT_ASSIGNED_CONTEXT
((#146,#147,#148)) REPRESENTATION_CONTEXT('Context #1',
  '3D Context with UNIT and UNCERTAINTY') );
#146 = ( LENGTH_UNIT() NAMED_UNIT(*) SI_UNIT(.MILLI.,.METRE.) );
#147 = ( NAMED_UNIT(*) PLANE_ANGLE_UNIT() SI_UNIT($,.RADIAN.) );
#148 = ( NAMED_UNIT(*) SI_UNIT($,.STERADIAN.) SOLID_ANGLE_UNIT() );
#149 = UNCERTAINTY_MEASURE_WITH_UNIT(LENGTH_MEASURE(1.E-07),#146,
  'distance_accuracy_value','confusion accuracy');
#150 = PRODUCT_RELATED_PRODUCT_CATEGORY('part',$,(#7));
ENDSEC;
END-ISO-10303-21;
