ISO-10303-21;
HEADER;
FILE_DESCRIPTION(('Open CASCADE Model'),'2;1');
FILE_NAME('Open CASCADE Shape Model','2026-08-17T20:30:05',('Author'),(
    'Open CASCADE'),'Open CASCADE STEP processor 7.9','Open CASCADE 7.9'
  ,'Unknown');
FILE_SCHEMA(('AUTOMOTIVE_DESIGN { 1 0 10303 214 1 1 1 1 }'));
ENDSEC;
DATA;
#1 = APPLICATION_PROTOCOL_DEFINITION('international standard',
  'automotive_design',2000,#2);
#2 = APPLICATION_CONTEXT(
  'core data for automotive mechanical design processes');
#3 = SHAPE_DEFINITION_REPRESENTATION(#4,#10);
#4 = PRODUCT_DEFINITION_SHAPE('','',#5);
#5 = PRODUCT_DEFINITION('design','',#6,#9);
#6 = PRODUCT_DEFINITION_FORMATION('','',#7);
#7 = PRODUCT('Open CASCADE STEP translator 7.9 55',
  'Open CASCADE STEP translator 7.9 55','',(#8));
#8 = PRODUCT_CONTEXT('',#2,'mechanical');
#9 = PRODUCT_DEFINITION_CONTEXT('part definition',#2,'design');
#10 = MANIFOLD_SURFACE_SHAPE_REPRESENTATION('',(#11,#15),#145);
#11 = AXIS2_PLACEMENT_3D('',#12,#13,#14);
#12 = CARTESIAN_POINT('',(0.,0.,0.));
#13 = DIRECTION('',(0.,0.,1.));
#14 = DIRECTION('',(1.,0.,-0.));
#15 = SHELL_BASED_SURFACE_MODEL('',(#16));
#16 = OPEN_SHELL('',(#17));
#17 = ADVANCED_FACE('',(#18),#46,.T.);
#18 = FACE_BOUND('',#19,.T.);
#19 = EDGE_LOOP('',(#20,#71,#87,#131));
#20 = ORIENTED_EDGE('',*,*,#21,.T.);
#21 = EDGE_CURVE('',#22,#24,#26,.T.);
#22 = VERTEX_POINT('',#23);
#23 = CARTESIAN_POINT('',(0.,0.,0.));
#24 = VERTEX_POINT('',#25);
#25 = CARTESIAN_POINT('',(1.,0.,0.));
#26 = SURFACE_CURVE('',#27,(#45),.PCURVE_S1.);
#27 = B_SPLINE_CURVE_WITH_KNOTS('',1,(#28,#29,#30,#31,#32,#33,#34,#35,
    #36,#37,#38,#39,#40,#41,#42,#43,#44),.UNSPECIFIED.,.F.,.F.,(2,1,1,1,
    1,1,1,1,1,1,1,1,1,1,1,1,2),(0.,5.791654053555E-02,7.279036759045E-02
    ,0.131103692548,0.231285041718,0.265604275218,0.283423027717,
    0.340094816768,0.387605268845,0.415945563329,0.547649532233,
    0.56173256747,0.605939229298,0.647280907732,0.705467517679,
    0.974362152152,1.),.UNSPECIFIED.);
#28 = CARTESIAN_POINT('',(0.,-0.,0.));
#29 = CARTESIAN_POINT('',(5.80624858707E-02,1.611448495863E-03,0.));
#30 = CARTESIAN_POINT('',(7.267417116385E-02,4.614284723723E-03,0.));
#31 = CARTESIAN_POINT('',(0.130659667369,-2.996095418357E-03,0.));
#32 = CARTESIAN_POINT('',(0.231130100902,-3.636053128166E-03,0.));
#33 = CARTESIAN_POINT('',(0.265007827251,2.443808366458E-03,0.));
#34 = CARTESIAN_POINT('',(0.282689809161,-1.452967107454E-04,0.));
#35 = CARTESIAN_POINT('',(0.339424407765,-3.546793315012E-03,0.));
#36 = CARTESIAN_POINT('',(0.386983434525,-6.278920141803E-04,0.));
#37 = CARTESIAN_POINT('',(0.415323953024,-2.787070105798E-03,0.));
#38 = CARTESIAN_POINT('',(0.547297040923,2.690062993059E-03,0.));
#39 = CARTESIAN_POINT('',(0.561417575226,3.001116500885E-03,0.));
#40 = CARTESIAN_POINT('',(0.605529451295,-1.442490677841E-03,0.));
#41 = CARTESIAN_POINT('',(0.646961639931,1.246367427726E-04,0.));
#42 = CARTESIAN_POINT('',(0.705175389984,4.192406206671E-03,0.));
#43 = CARTESIAN_POINT('',(0.974707202492,-4.625943258895E-03,0.));
#44 = CARTESIAN_POINT('',(1.,-0.,0.));
#45 = PCURVE('',#46,#51);
#46 = PLANE('',#47);
#47 = AXIS2_PLACEMENT_3D('',#48,#49,#50);
#48 = CARTESIAN_POINT('',(0.49975440037,3.125E-02,0.));
#49 = DIRECTION('',(0.,0.,1.));
#50 = DIRECTION('',(1.,0.,-0.));
#51 = DEFINITIONAL_REPRESENTATION('',(#52),#70);
#52 = B_SPLINE_CURVE_WITH_KNOTS('',1,(#53,#54,#55,#56,#57,#58,#59,#60,
    #61,#62,#63,#64,#65,#66,#67,#68,#69),.UNSPECIFIED.,.F.,.F.,(2,1,1,1,
    1,1,1,1,1,1,1,1,1,1,1,1,2),(0.,5.791654053555E-02,7.279036759045E-02
    ,0.131103692548,0.231285041718,0.265604275218,0.283423027717,
    0.340094816768,0.387605268845,0.415945563329,0.547649532233,
    0.56173256747,0.605939229298,0.647280907732,0.705467517679,
    0.974362152152,1.),.UNSPECIFIED.);
#53 = CARTESIAN_POINT('',(-0.49975440037,-3.125E-02));
#54 = CARTESIAN_POINT('',(-0.441691914499,-2.963855150414E-02));
#55 = CARTESIAN_POINT('',(-0.427080229206,-2.663571527628E-02));
#56 = CARTESIAN_POINT('',(-0.369094733001,-3.424609541836E-02));
#57 = CARTESIAN_POINT('',(-0.268624299468,-3.488605312817E-02));
#58 = CARTESIAN_POINT('',(-0.234746573119,-2.880619163354E-02));
#59 = CARTESIAN_POINT('',(-0.217064591209,-3.139529671075E-02));
#60 = CARTESIAN_POINT('',(-0.160329992604,-3.479679331501E-02));
#61 = CARTESIAN_POINT('',(-0.112770965845,-3.187789201418E-02));
#62 = CARTESIAN_POINT('',(-8.443044734599E-02,-3.40370701058E-02));
#63 = CARTESIAN_POINT('',(4.754264055311E-02,-2.855993700694E-02));
#64 = CARTESIAN_POINT('',(6.166317485667E-02,-2.824888349911E-02));
#65 = CARTESIAN_POINT('',(0.105775050926,-3.269249067784E-02));
#66 = CARTESIAN_POINT('',(0.147207239561,-3.112536325723E-02));
#67 = CARTESIAN_POINT('',(0.205420989615,-2.705759379333E-02));
#68 = CARTESIAN_POINT('',(0.474952802122,-3.587594325889E-02));
#69 = CARTESIAN_POINT('',(0.50024559963,-3.125E-02));
#70 = ( GEOMETRIC_REPRESENTATION_CONTEXT(2) 
PARAMETRIC_REPRESENTATION_CONTEXT() REPRESENTATION_CONTEXT('2D SPACE',''
  ) );
#71 = ORIENTED_EDGE('',*,*,#72,.T.);
#72 = EDGE_CURVE('',#24,#73,#75,.T.);
#73 = VERTEX_POINT('',#74);
#74 = CARTESIAN_POINT('',(1.,6.25E-02,0.));
#75 = SURFACE_CURVE('',#76,(#80),.PCURVE_S1.);
#76 = LINE('',#77,#78);
#77 = CARTESIAN_POINT('',(1.,-0.,0.));
#78 = VECTOR('',#79,1.);
#79 = DIRECTION('',(0.,1.,0.));
#80 = PCURVE('',#46,#81);
#81 = DEFINITIONAL_REPRESENTATION('',(#82),#86);
#82 = LINE('',#83,#84);
#83 = CARTESIAN_POINT('',(0.50024559963,-3.125E-02));
#84 = VECTOR('',#85,1.);
#85 = DIRECTION('',(0.,1.));
#86 = ( GEOMETRIC_REPRESENTATION_CONTEXT(2) 
PARAMETRIC_REPRESENTATION_CONTEXT() REPRESENTATION_CONTEXT('2D SPACE',''
  ) );
#87 = ORIENTED_EDGE('',*,*,#88,.T.);
#88 = EDGE_CURVE('',#73,#89,#91,.T.);
#89 = VERTEX_POINT('',#90);
#90 = CARTESIAN_POINT('',(0.,6.25E-02,0.));
#91 = SURFACE_CURVE('',#92,(#110),.PCURVE_S1.);
#92 = B_SPLINE_CURVE_WITH_KNOTS('',1,(#93,#94,#95,#96,#97,#98,#99,#100,
    #101,#102,#103,#104,#105,#106,#107,#108,#109),.UNSPECIFIED.,.F.,.F.,
  (2,1,1,1,1,1,1,1,1,1,1,1,1,1,1,1,2),(0.,2.56378478483E-02,
    0.294532482321,0.352719092268,0.394060770702,0.43826743253,
    0.452350467767,0.584054436671,0.612394731155,0.659905183232,
    0.716576972283,0.734395724782,0.768714958282,0.868896307452,
    0.92720963241,0.942083459464,1.),.UNSPECIFIED.);
#93 = CARTESIAN_POINT('',(1.,6.25E-02,0.));
#94 = CARTESIAN_POINT('',(0.974707202492,6.712594325889E-02,0.));
#95 = CARTESIAN_POINT('',(0.705175389984,5.830759379333E-02,0.));
#96 = CARTESIAN_POINT('',(0.646961639931,6.237536325723E-02,0.));
#97 = CARTESIAN_POINT('',(0.605529451295,6.394249067784E-02,0.));
#98 = CARTESIAN_POINT('',(0.561417575226,5.949888349911E-02,0.));
#99 = CARTESIAN_POINT('',(0.547297040923,5.980993700694E-02,0.));
#100 = CARTESIAN_POINT('',(0.415323953024,6.52870701058E-02,0.));
#101 = CARTESIAN_POINT('',(0.386983434525,6.312789201418E-02,0.));
#102 = CARTESIAN_POINT('',(0.339424407765,6.604679331501E-02,0.));
#103 = CARTESIAN_POINT('',(0.282689809161,6.264529671075E-02,0.));
#104 = CARTESIAN_POINT('',(0.265007827251,6.005619163354E-02,0.));
#105 = CARTESIAN_POINT('',(0.231130100902,6.613605312817E-02,0.));
#106 = CARTESIAN_POINT('',(0.130659667369,6.549609541836E-02,0.));
#107 = CARTESIAN_POINT('',(7.267417116385E-02,5.788571527628E-02,0.));
#108 = CARTESIAN_POINT('',(5.80624858707E-02,6.088855150414E-02,0.));
#109 = CARTESIAN_POINT('',(0.,6.25E-02,0.));
#110 = PCURVE('',#46,#111);
#111 = DEFINITIONAL_REPRESENTATION('',(#112),#130);
#112 = B_SPLINE_CURVE_WITH_KNOTS('',1,(#113,#114,#115,#116,#117,#118,
    #119,#120,#121,#122,#123,#124,#125,#126,#127,#128,#129),
  .UNSPECIFIED.,.F.,.F.,(2,1,1,1,1,1,1,1,1,1,1,1,1,1,1,1,2),(0.,
    2.56378478483E-02,0.294532482321,0.352719092268,0.394060770702,
    0.43826743253,0.452350467767,0.584054436671,0.612394731155,
    0.659905183232,0.716576972283,0.734395724782,0.768714958282,
    0.868896307452,0.92720963241,0.942083459464,1.),.UNSPECIFIED.);
#113 = CARTESIAN_POINT('',(0.50024559963,3.125E-02));
#114 = CARTESIAN_POINT('',(0.474952802122,3.587594325889E-02));
#115 = CARTESIAN_POINT('',(0.205420989615,2.705759379333E-02));
#116 = CARTESIAN_POINT('',(0.147207239561,3.112536325723E-02));
#117 = CARTESIAN_POINT('',(0.105775050926,3.269249067784E-02));
#118 = CARTESIAN_POINT('',(6.166317485667E-02,2.824888349911E-02));
#119 = CARTESIAN_POINT('',(4.754264055311E-02,2.855993700694E-02));
#120 = CARTESIAN_POINT('',(-8.443044734599E-02,3.40370701058E-02));
#121 = CARTESIAN_POINT('',(-0.112770965845,3.187789201418E-02));
#122 = CARTESIAN_POINT('',(-0.160329992604,3.479679331501E-02));
#123 = CARTESIAN_POINT('',(-0.217064591209,3.139529671075E-02));
#124 = CARTESIAN_POINT('',(-0.234746573119,2.880619163354E-02));
#125 = CARTESIAN_POINT('',(-0.268624299468,3.488605312817E-02));
#126 = CARTESIAN_POINT('',(-0.369094733001,3.424609541836E-02));
#127 = CARTESIAN_POINT('',(-0.427080229206,2.663571527628E-02));
#128 = CARTESIAN_POINT('',(-0.441691914499,2.963855150414E-02));
#129 = CARTESIAN_POINT('',(-0.49975440037,3.125E-02));
#130 = ( GEOMETRIC_REPRESENTATION_CONTEXT(2) 
PARAMETRIC_REPRESENTATION_CONTEXT() REPRESENTATION_CONTEXT('2D SPACE',''
  ) );
#131 = ORIENTED_EDGE('',*,*,#132,.T.);
#132 = EDGE_CURVE('',#89,#22,#133,.T.);
#133 = SURFACE_CURVE('',#134,(#138),.PCURVE_S1.);
#134 = LINE('',#135,#136);
#135 = CARTESIAN_POINT('',(0.,6.25E-02,0.));
#136 = VECTOR('',#137,1.);
#137 = DIRECTION('',(0.,-1.,0.));
#138 = PCURVE('',#46,#139);
#139 = DEFINITIONAL_REPRESENTATION('',(#140),#144);
#140 = LINE('',#141,#142);
#141 = CARTESIAN_POINT('',(-0.49975440037,3.125E-02));
#142 = VECTOR('',#143,1.);
#143 = DIRECTION('',(0.,-1.));
#144 = ( GEOMETRIC_REPRESENTATION_CONTEXT(2) 
PARAMETRIC_REPRESENTATION_CONTEXT() REPRESENTATION_CONTEXT('2D SPACE',''
  ) );
#145 = ( GEOMETRIC_REPRESENTATION_CONTEXT(3) 
GLOBAL_UNCERTAINTY_ASSIGNED_CONTEXT((#149)) GLOBAL_UNIT_ASSIGNED_CONTEXT
((#146,#147,#148)) REPRESENTATION_CONTEXT('Context #1',
  '3D Context with UNIT and UNCERTAINTY') );
#146 = ( LENGTH_UNIT() NAMED_UNIT(*) SI_UNIT(.MILLI.,.METRE.) );
#147 = ( NAMED_UNIT(*) PLANE_ANGLE_UNIT() SI_UNIT($,.RADIAN.) );
#148 = ( NAMED_UNIT(*) SI_UNIT($,.STERADIAN.) SOLID_ANGLE_UNIT() );
#149 = UNCERTAINTY_MEASURE_WITH_UNIT(LENGTH_MEASURE(1.E-07),#146,
  'distance_accuracy_value','confusion accuracy');
#150 = PRODUCT_RELATED_PRODUCT_CATEGORY('part',$,(#7));
ENDSEC;
END-ISO-10303-21;
