ISO-10303-21;
HEADER;
FILE_DESCRIPTION(('Open CASCADE Model'),'2;1');
FILE_NAME('Open CASCADE Shape Model','2026-07-21T00:13:24',('Author'),(
    'Open CASCADE'),'Open CASCADE STEP processor 7.9','Open CASCADE 7.9'
  ,'Unknown');
FILE_SCHEMA(('AUTOMOTIVE_DESIGN { 1 0 10303 214 1 1 1 1 }'));
ENDSEC;
DATA;
#1 = APPLICATION_PROTOCOL_DEFINITION('international standard',
  'automotive_design',2000,#2);
#2 = APPLICATION_CONTEXT(
  'core data for automotive mechanical design processes');
#3 = SHAPE_DEFINITION_REPRESENTATION(#4,#10);
#4 = PRODUCT_DEFINITION_SHAPE('','',#5);
#5 = PRODUCT_DEFINITION('design','',#6,#9);
#6 = PRODUCT_DEFINITION_FORMATION('','',#7);
#7 = PRODUCT('Open CASCADE STEP translator 7.9 19',
  'Open CASCADE STEP translator 7.9 19','',(#8));
#8 = PRODUCT_CONTEXT('',#2,'mechanical');
#9 = PRODUCT_DEFINITION_CONTEXT('part definition',#2,'design');
#10 = MANIFOLD_SURFACE_SHAPE_REPRESENTATION('',(#11,#15),#161);
#11 = AXIS2_PLACEMENT_3D('',#12,#13,#14);
#12 = CARTESIAN_POINT('',(0.,0.,0.));
#13 = DIRECTION('',(0.,0.,1.));
#14 = DIRECTION('',(1.,0.,-0.));
#15 = SHELL_BASED_SURFACE_MODEL('',(#16));
#16 = OPEN_SHELL('',(#17));
#17 = ADVANCED_FACE('',(#18),#50,.T.);
#18 = FACE_BOUND('',#19,.T.);
#19 = EDGE_LOOP('',(#20,#79,#95,#147));
#20 = ORIENTED_EDGE('',*,*,#21,.T.);
#21 = EDGE_CURVE('',#22,#24,#26,.T.);
#22 = VERTEX_POINT('',#23);
#23 = CARTESIAN_POINT('',(0.,0.,0.));
#24 = VERTEX_POINT('',#25);
#25 = CARTESIAN_POINT('',(2.,0.,0.));
#26 = SURFACE_CURVE('',#27,(#49),.PCURVE_S1.);
#27 = B_SPLINE_CURVE_WITH_KNOTS('',1,(#28,#29,#30,#31,#32,#33,#34,#35,
    #36,#37,#38,#39,#40,#41,#42,#43,#44,#45,#46,#47,#48),.UNSPECIFIED.,
  .F.,.F.,(2,1,1,1,1,1,1,1,1,1,1,1,1,1,1,1,1,1,1,1,2),(0.,
    2.485510077571E-02,8.378606386158E-02,9.438797767103E-02,
    0.165512494971,0.176224783897,0.219164015332,0.231817024577,
    0.252825686804,0.282909253013,0.367774384184,0.385221797481,
    0.52894023128,0.613890946339,0.627061257867,0.637745461568,
    0.653796085742,0.697319669418,0.919626712093,0.941870375984,1.),
  .UNSPECIFIED.);
#28 = CARTESIAN_POINT('',(0.,-0.,0.));
#29 = CARTESIAN_POINT('',(4.962155404519E-02,4.427680598467E-03,0.));
#30 = CARTESIAN_POINT('',(0.167506354394,-3.009638536417E-03,0.));
#31 = CARTESIAN_POINT('',(0.188718578802,-4.277954301723E-03,0.));
#32 = CARTESIAN_POINT('',(0.331269590683,-2.721083991044E-03,0.));
#33 = CARTESIAN_POINT('',(0.352728179317,-1.981207839786E-03,0.));
#34 = CARTESIAN_POINT('',(0.438782719598,-3.379802186554E-03,0.));
#35 = CARTESIAN_POINT('',(0.462856357219,4.598487004529E-03,0.));
#36 = CARTESIAN_POINT('',(0.504934358923,2.982178892809E-03,0.));
#37 = CARTESIAN_POINT('',(0.565227916131,3.750763206944E-03,0.));
#38 = CARTESIAN_POINT('',(0.73528627582,-4.530990192987E-05,0.));
#39 = CARTESIAN_POINT('',(0.770174361483,-2.451881283288E-03,0.));
#40 = CARTESIAN_POINT('',(1.058236298287,-1.300118445764E-03,0.));
#41 = CARTESIAN_POINT('',(1.228494204268,-3.511310997619E-03,0.));
#42 = CARTESIAN_POINT('',(1.253958498586,3.447870075589E-03,0.));
#43 = CARTESIAN_POINT('',(1.274574823736,-2.346210919352E-03,0.));
#44 = CARTESIAN_POINT('',(1.306287007361,3.069585091311E-03,0.));
#45 = CARTESIAN_POINT('',(1.393520705628,2.292412486822E-03,0.));
#46 = CARTESIAN_POINT('',(1.839083583767,-2.099046972813E-03,0.));
#47 = CARTESIAN_POINT('',(1.883585999191,-4.802047848987E-03,0.));
#48 = CARTESIAN_POINT('',(2.,-0.,0.));
#49 = PCURVE('',#50,#55);
#50 = PLANE('',#51);
#51 = AXIS2_PLACEMENT_3D('',#52,#53,#54);
#52 = CARTESIAN_POINT('',(0.999779200199,5.E-02,0.));
#53 = DIRECTION('',(0.,0.,1.));
#54 = DIRECTION('',(1.,0.,-0.));
#55 = DEFINITIONAL_REPRESENTATION('',(#56),#78);
#56 = B_SPLINE_CURVE_WITH_KNOTS('',1,(#57,#58,#59,#60,#61,#62,#63,#64,
    #65,#66,#67,#68,#69,#70,#71,#72,#73,#74,#75,#76,#77),.UNSPECIFIED.,
  .F.,.F.,(2,1,1,1,1,1,1,1,1,1,1,1,1,1,1,1,1,1,1,1,2),(0.,
    2.485510077571E-02,8.378606386158E-02,9.438797767103E-02,
    0.165512494971,0.176224783897,0.219164015332,0.231817024577,
    0.252825686804,0.282909253013,0.367774384184,0.385221797481,
    0.52894023128,0.613890946339,0.627061257867,0.637745461568,
    0.653796085742,0.697319669418,0.919626712093,0.941870375984,1.),
  .UNSPECIFIED.);
#57 = CARTESIAN_POINT('',(-0.999779200199,-5.E-02));
#58 = CARTESIAN_POINT('',(-0.950157646154,-4.557231940153E-02));
#59 = CARTESIAN_POINT('',(-0.832272845806,-5.300963853642E-02));
#60 = CARTESIAN_POINT('',(-0.811060621397,-5.427795430172E-02));
#61 = CARTESIAN_POINT('',(-0.668509609516,-5.272108399104E-02));
#62 = CARTESIAN_POINT('',(-0.647051020883,-5.198120783979E-02));
#63 = CARTESIAN_POINT('',(-0.560996480601,-5.337980218655E-02));
#64 = CARTESIAN_POINT('',(-0.53692284298,-4.540151299547E-02));
#65 = CARTESIAN_POINT('',(-0.494844841276,-4.701782110719E-02));
#66 = CARTESIAN_POINT('',(-0.434551284069,-4.624923679306E-02));
#67 = CARTESIAN_POINT('',(-0.264492924379,-5.004530990193E-02));
#68 = CARTESIAN_POINT('',(-0.229604838716,-5.245188128329E-02));
#69 = CARTESIAN_POINT('',(5.845709808798E-02,-5.130011844576E-02));
#70 = CARTESIAN_POINT('',(0.228715004068,-5.351131099762E-02));
#71 = CARTESIAN_POINT('',(0.254179298387,-4.655212992441E-02));
#72 = CARTESIAN_POINT('',(0.274795623537,-5.234621091935E-02));
#73 = CARTESIAN_POINT('',(0.306507807162,-4.693041490869E-02));
#74 = CARTESIAN_POINT('',(0.393741505429,-4.770758751318E-02));
#75 = CARTESIAN_POINT('',(0.839304383568,-5.209904697281E-02));
#76 = CARTESIAN_POINT('',(0.883806798992,-5.480204784899E-02));
#77 = CARTESIAN_POINT('',(1.000220799801,-5.E-02));
#78 = ( GEOMETRIC_REPRESENTATION_CONTEXT(2) 
PARAMETRIC_REPRESENTATION_CONTEXT() REPRESENTATION_CONTEXT('2D SPACE',''
  ) );
#79 = ORIENTED_EDGE('',*,*,#80,.T.);
#80 = EDGE_CURVE('',#24,#81,#83,.T.);
#81 = VERTEX_POINT('',#82);
#82 = CARTESIAN_POINT('',(2.,0.1,0.));
#83 = SURFACE_CURVE('',#84,(#88),.PCURVE_S1.);
#84 = LINE('',#85,#86);
#85 = CARTESIAN_POINT('',(2.,-0.,0.));
#86 = VECTOR('',#87,1.);
#87 = DIRECTION('',(0.,1.,0.));
#88 = PCURVE('',#50,#89);
#89 = DEFINITIONAL_REPRESENTATION('',(#90),#94);
#90 = LINE('',#91,#92);
#91 = CARTESIAN_POINT('',(1.000220799801,-5.E-02));
#92 = VECTOR('',#93,1.);
#93 = DIRECTION('',(0.,1.));
#94 = ( GEOMETRIC_REPRESENTATION_CONTEXT(2) 
PARAMETRIC_REPRESENTATION_CONTEXT() REPRESENTATION_CONTEXT('2D SPACE',''
  ) );
#95 = ORIENTED_EDGE('',*,*,#96,.T.);
#96 = EDGE_CURVE('',#81,#97,#99,.T.);
#97 = VERTEX_POINT('',#98);
#98 = CARTESIAN_POINT('',(0.,0.1,0.));
#99 = SURFACE_CURVE('',#100,(#122),.PCURVE_S1.);
#100 = B_SPLINE_CURVE_WITH_KNOTS('',1,(#101,#102,#103,#104,#105,#106,
    #107,#108,#109,#110,#111,#112,#113,#114,#115,#116,#117,#118,#119,
    #120,#121),.UNSPECIFIED.,.F.,.F.,(2,1,1,1,1,1,1,1,1,1,1,1,1,1,1,1,1,
    1,1,1,2),(0.,5.812962401564E-02,8.037328790687E-02,0.302680330582,
    0.346203914258,0.362254538432,0.372938742133,0.386109053661,
    0.47105976872,0.614778202519,0.632225615816,0.717090746987,
    0.747174313196,0.768182975423,0.780835984668,0.823775216103,
    0.834487505029,0.905612022329,0.916213936138,0.975144899224,1.),
  .UNSPECIFIED.);
#101 = CARTESIAN_POINT('',(2.,0.1,0.));
#102 = CARTESIAN_POINT('',(1.883585999191,0.104802047849,0.));
#103 = CARTESIAN_POINT('',(1.839083583767,0.102099046973,0.));
#104 = CARTESIAN_POINT('',(1.393520705628,9.770758751318E-02,0.));
#105 = CARTESIAN_POINT('',(1.306287007361,9.693041490869E-02,0.));
#106 = CARTESIAN_POINT('',(1.274574823736,0.102346210919,0.));
#107 = CARTESIAN_POINT('',(1.253958498586,9.655212992441E-02,0.));
#108 = CARTESIAN_POINT('',(1.228494204268,0.103511310998,0.));
#109 = CARTESIAN_POINT('',(1.058236298287,0.101300118446,0.));
#110 = CARTESIAN_POINT('',(0.770174361483,0.102451881283,0.));
#111 = CARTESIAN_POINT('',(0.73528627582,0.100045309902,0.));
#112 = CARTESIAN_POINT('',(0.565227916131,9.624923679306E-02,0.));
#113 = CARTESIAN_POINT('',(0.504934358923,9.701782110719E-02,0.));
#114 = CARTESIAN_POINT('',(0.462856357219,9.540151299547E-02,0.));
#115 = CARTESIAN_POINT('',(0.438782719598,0.103379802187,0.));
#116 = CARTESIAN_POINT('',(0.352728179317,0.10198120784,0.));
#117 = CARTESIAN_POINT('',(0.331269590683,0.102721083991,0.));
#118 = CARTESIAN_POINT('',(0.188718578802,0.104277954302,0.));
#119 = CARTESIAN_POINT('',(0.167506354394,0.103009638536,0.));
#120 = CARTESIAN_POINT('',(4.962155404519E-02,9.557231940153E-02,0.));
#121 = CARTESIAN_POINT('',(0.,0.1,0.));
#122 = PCURVE('',#50,#123);
#123 = DEFINITIONAL_REPRESENTATION('',(#124),#146);
#124 = B_SPLINE_CURVE_WITH_KNOTS('',1,(#125,#126,#127,#128,#129,#130,
    #131,#132,#133,#134,#135,#136,#137,#138,#139,#140,#141,#142,#143,
    #144,#145),.UNSPECIFIED.,.F.,.F.,(2,1,1,1,1,1,1,1,1,1,1,1,1,1,1,1,1,
    1,1,1,2),(0.,5.812962401564E-02,8.037328790687E-02,0.302680330582,
    0.346203914258,0.362254538432,0.372938742133,0.386109053661,
    0.47105976872,0.614778202519,0.632225615816,0.717090746987,
    0.747174313196,0.768182975423,0.780835984668,0.823775216103,
    0.834487505029,0.905612022329,0.916213936138,0.975144899224,1.),
  .UNSPECIFIED.);
#125 = CARTESIAN_POINT('',(1.000220799801,5.E-02));
#126 = CARTESIAN_POINT('',(0.883806798992,5.480204784899E-02));
#127 = CARTESIAN_POINT('',(0.839304383568,5.209904697281E-02));
#128 = CARTESIAN_POINT('',(0.393741505429,4.770758751318E-02));
#129 = CARTESIAN_POINT('',(0.306507807162,4.693041490869E-02));
#130 = CARTESIAN_POINT('',(0.274795623537,5.234621091935E-02));
#131 = CARTESIAN_POINT('',(0.254179298387,4.655212992441E-02));
#132 = CARTESIAN_POINT('',(0.228715004068,5.351131099762E-02));
#133 = CARTESIAN_POINT('',(5.845709808798E-02,5.130011844576E-02));
#134 = CARTESIAN_POINT('',(-0.229604838716,5.245188128329E-02));
#135 = CARTESIAN_POINT('',(-0.264492924379,5.004530990193E-02));
#136 = CARTESIAN_POINT('',(-0.434551284069,4.624923679306E-02));
#137 = CARTESIAN_POINT('',(-0.494844841276,4.701782110719E-02));
#138 = CARTESIAN_POINT('',(-0.53692284298,4.540151299547E-02));
#139 = CARTESIAN_POINT('',(-0.560996480601,5.337980218655E-02));
#140 = CARTESIAN_POINT('',(-0.647051020883,5.198120783979E-02));
#141 = CARTESIAN_POINT('',(-0.668509609516,5.272108399104E-02));
#142 = CARTESIAN_POINT('',(-0.811060621397,5.427795430172E-02));
#143 = CARTESIAN_POINT('',(-0.832272845806,5.300963853642E-02));
#144 = CARTESIAN_POINT('',(-0.950157646154,4.557231940153E-02));
#145 = CARTESIAN_POINT('',(-0.999779200199,5.E-02));
#146 = ( GEOMETRIC_REPRESENTATION_CONTEXT(2) 
PARAMETRIC_REPRESENTATION_CONTEXT() REPRESENTATION_CONTEXT('2D SPACE',''
  ) );
#147 = ORIENTED_EDGE('',*,*,#148,.T.);
#148 = EDGE_CURVE('',#97,#22,#149,.T.);
#149 = SURFACE_CURVE('',#150,(#154),.PCURVE_S1.);
#150 = LINE('',#151,#152);
#151 = CARTESIAN_POINT('',(0.,0.1,0.));
#152 = VECTOR('',#153,1.);
#153 = DIRECTION('',(0.,-1.,0.));
#154 = PCURVE('',#50,#155);
#155 = DEFINITIONAL_REPRESENTATION('',(#156),#160);
#156 = LINE('',#157,#158);
#157 = CARTESIAN_POINT('',(-0.999779200199,5.E-02));
#158 = VECTOR('',#159,1.);
#159 = DIRECTION('',(0.,-1.));
#160 = ( GEOMETRIC_REPRESENTATION_CONTEXT(2) 
PARAMETRIC_REPRESENTATION_CONTEXT() REPRESENTATION_CONTEXT('2D SPACE',''
  ) );
#161 = ( GEOMETRIC_REPRESENTATION_CONTEXT(3) 
GLOBAL_UNCERTAINTY_ASSIGNED_CONTEXT((#165)) GLOBAL_UNIT_ASSIGNED_CONTEXT
((#162,#163,#164)) REPRESENTATION_CONTEXT('Context #1',
  '3D Context with UNIT and UNCERTAINTY') );
#162 = ( LENGTH_UNIT() NAMED_UNIT(*) SI_UNIT(.MILLI.,.METRE.) );
#163 = ( NAMED_UNIT(*) PLANE_ANGLE_UNIT() SI_UNIT($,.RADIAN.) );
#164 = ( NAMED_UNIT(*) SI_UNIT($,.STERADIAN.) SOLID_ANGLE_UNIT() );
#165 = UNCERTAINTY_MEASURE_WITH_UNIT(LENGTH_MEASURE(1.E-07),#162,
  'distance_accuracy_value','confusion accuracy');
#166 = PRODUCT_RELATED_PRODUCT_CATEGORY('part',$,(#7));
ENDSEC;
END-ISO-10303-21;
