ISO-10303-21;
HEADER;
FILE_DESCRIPTION(('Open CASCADE Model'),'2;1');
FILE_NAME('Open CASCADE Shape Model','2026-08-17T20:30:05',('Author'),(
    'Open CASCADE'),'Open CASCADE STEP processor 7.9','Open CASCADE 7.9'
  ,'Unknown');
FILE_SCHEMA(('AUTOMOTIVE_DESIGN { 1 0 10303 214 1 1 1 1 }'));
ENDSEC;
DATA;
#1 = APPLICATION_PROTOCOL_DEFINITION('international standard',
  'automotive_design',2000,#2);
#2 = APPLICATION_CONTEXT(
  'core data for automotive mechanical design processes');
#3 = SHAPE_DEFINITION_REPRESENTATION(#4,#10);
#4 = PRODUCT_DEFINITION_SHAPE('','',#5);
#5 = PRODUCT_DEFINITION('design','',#6,#9);
#6 = PRODUCT_DEFINITION_FORMATION('','',#7);
#7 = PRODUCT('Open CASCADE STEP translator 7.9 56',
  'Open CASCADE STEP translator 7.9 56','',(#8));
#8 = PRODUCT_CONTEXT('',#2,'mechanical');
#9 = PRODUCT_DEFINITION_CONTEXT('part definition',#2,'design');
#10 = MANIFOLD_SURFACE_SHAPE_REPRESENTATION('',(#11,#15),#145);
#11 = AXIS2_PLACEMENT_3D('',#12,#13,#14);
#12 = CARTESIAN_POINT('',(0.,0.,0.));
#13 = DIRECTION('',(0.,0.,1.));
#14 = DIRECTION('',(1.,0.,-0.));
#15 = SHELL_BASED_SURFACE_MODEL('',(#16));
#16 = OPEN_SHELL('',(#17));
#17 = ADVANCED_FACE('',(#18),#46,.T.);
#18 = FACE_BOUND('',#19,.T.);
#19 = EDGE_LOOP('',(#20,#71,#87,#131));
#20 = ORIENTED_EDGE('',*,*,#21,.T.);
#21 = EDGE_CURVE('',#22,#24,#26,.T.);
#22 = VERTEX_POINT('',#23);
#23 = CARTESIAN_POINT('',(0.,0.,0.));
#24 = VERTEX_POINT('',#25);
#25 = CARTESIAN_POINT('',(1.,0.,0.));
#26 = SURFACE_CURVE('',#27,(#45),.PCURVE_S1.);
#27 = B_SPLINE_CURVE_WITH_KNOTS('',1,(#28,#29,#30,#31,#32,#33,#34,#35,
    #36,#37,#38,#39,#40,#41,#42,#43,#44),.UNSPECIFIED.,.F.,.F.,(2,1,1,1,
    1,1,1,1,1,1,1,1,1,1,1,1,2),(0.,5.683175516357E-02,0.159540534942,
    0.179237141815,0.291360732148,0.385997171993,0.402384834884,
    0.531477147725,0.55322660518,0.695416356762,0.72681074023,
    0.75165203122,0.824418357681,0.84113691958,0.949613672677,
    0.979988678145,1.),.UNSPECIFIED.);
#28 = CARTESIAN_POINT('',(0.,-0.,0.));
#29 = CARTESIAN_POINT('',(5.678086285928E-02,-4.902516319804E-03,0.));
#30 = CARTESIAN_POINT('',(0.1597646529,-3.156685997703E-03,0.));
#31 = CARTESIAN_POINT('',(0.179507561071,-2.551430061216E-03,0.));
#32 = CARTESIAN_POINT('',(0.291942969159,-1.539379267103E-03,0.));
#33 = CARTESIAN_POINT('',(0.386801383073,-4.463401172977E-03,0.));
#34 = CARTESIAN_POINT('',(0.402719633253,-3.789821654873E-04,0.));
#35 = CARTESIAN_POINT('',(0.53216899487,9.866639891826E-04,0.));
#36 = CARTESIAN_POINT('',(0.55347437388,-3.681631492279E-03,0.));
#37 = CARTESIAN_POINT('',(0.696064395218,-4.199009932768E-03,0.));
#38 = CARTESIAN_POINT('',(0.727312715042,-3.623801597827E-04,0.));
#39 = CARTESIAN_POINT('',(0.751943981848,3.362906091241E-03,0.));
#40 = CARTESIAN_POINT('',(0.824849483486,2.566091247851E-04,0.));
#41 = CARTESIAN_POINT('',(0.841592064233,1.137451122892E-03,0.));
#42 = CARTESIAN_POINT('',(0.950366126882,-2.440690868252E-04,0.));
#43 = CARTESIAN_POINT('',(0.980450311755,4.530535195573E-03,0.));
#44 = CARTESIAN_POINT('',(1.,-0.,0.));
#45 = PCURVE('',#46,#51);
#46 = PLANE('',#47);
#47 = AXIS2_PLACEMENT_3D('',#48,#49,#50);
#48 = CARTESIAN_POINT('',(0.500400457421,3.125E-02,0.));
#49 = DIRECTION('',(0.,0.,1.));
#50 = DIRECTION('',(1.,0.,-0.));
#51 = DEFINITIONAL_REPRESENTATION('',(#52),#70);
#52 = B_SPLINE_CURVE_WITH_KNOTS('',1,(#53,#54,#55,#56,#57,#58,#59,#60,
    #61,#62,#63,#64,#65,#66,#67,#68,#69),.UNSPECIFIED.,.F.,.F.,(2,1,1,1,
    1,1,1,1,1,1,1,1,1,1,1,1,2),(0.,5.683175516357E-02,0.159540534942,
    0.179237141815,0.291360732148,0.385997171993,0.402384834884,
    0.531477147725,0.55322660518,0.695416356762,0.72681074023,
    0.75165203122,0.824418357681,0.84113691958,0.949613672677,
    0.979988678145,1.),.UNSPECIFIED.);
#53 = CARTESIAN_POINT('',(-0.500400457421,-3.125E-02));
#54 = CARTESIAN_POINT('',(-0.443619594562,-3.61525163198E-02));
#55 = CARTESIAN_POINT('',(-0.340635804521,-3.44066859977E-02));
#56 = CARTESIAN_POINT('',(-0.32089289635,-3.380143006122E-02));
#57 = CARTESIAN_POINT('',(-0.208457488262,-3.27893792671E-02));
#58 = CARTESIAN_POINT('',(-0.113599074348,-3.571340117298E-02));
#59 = CARTESIAN_POINT('',(-9.768082416752E-02,-3.162898216549E-02));
#60 = CARTESIAN_POINT('',(3.176853744958E-02,-3.026333601082E-02));
#61 = CARTESIAN_POINT('',(5.30739164587E-02,-3.493163149228E-02));
#62 = CARTESIAN_POINT('',(0.195663937797,-3.544900993277E-02));
#63 = CARTESIAN_POINT('',(0.226912257622,-3.161238015978E-02));
#64 = CARTESIAN_POINT('',(0.251543524428,-2.788709390876E-02));
#65 = CARTESIAN_POINT('',(0.324449026065,-3.099339087521E-02));
#66 = CARTESIAN_POINT('',(0.341191606812,-3.011254887711E-02));
#67 = CARTESIAN_POINT('',(0.449965669462,-3.149406908683E-02));
#68 = CARTESIAN_POINT('',(0.480049854334,-2.671946480443E-02));
#69 = CARTESIAN_POINT('',(0.499599542579,-3.125E-02));
#70 = ( GEOMETRIC_REPRESENTATION_CONTEXT(2) 
PARAMETRIC_REPRESENTATION_CONTEXT() REPRESENTATION_CONTEXT('2D SPACE',''
  ) );
#71 = ORIENTED_EDGE('',*,*,#72,.T.);
#72 = EDGE_CURVE('',#24,#73,#75,.T.);
#73 = VERTEX_POINT('',#74);
#74 = CARTESIAN_POINT('',(1.,6.25E-02,0.));
#75 = SURFACE_CURVE('',#76,(#80),.PCURVE_S1.);
#76 = LINE('',#77,#78);
#77 = CARTESIAN_POINT('',(1.,-0.,0.));
#78 = VECTOR('',#79,1.);
#79 = DIRECTION('',(0.,1.,0.));
#80 = PCURVE('',#46,#81);
#81 = DEFINITIONAL_REPRESENTATION('',(#82),#86);
#82 = LINE('',#83,#84);
#83 = CARTESIAN_POINT('',(0.499599542579,-3.125E-02));
#84 = VECTOR('',#85,1.);
#85 = DIRECTION('',(0.,1.));
#86 = ( GEOMETRIC_REPRESENTATION_CONTEXT(2) 
PARAMETRIC_REPRESENTATION_CONTEXT() REPRESENTATION_CONTEXT('2D SPACE',''
  ) );
#87 = ORIENTED_EDGE('',*,*,#88,.T.);
#88 = EDGE_CURVE('',#73,#89,#91,.T.);
#89 = VERTEX_POINT('',#90);
#90 = CARTESIAN_POINT('',(0.,6.25E-02,0.));
#91 = SURFACE_CURVE('',#92,(#110),.PCURVE_S1.);
#92 = B_SPLINE_CURVE_WITH_KNOTS('',1,(#93,#94,#95,#96,#97,#98,#99,#100,
    #101,#102,#103,#104,#105,#106,#107,#108,#109),.UNSPECIFIED.,.F.,.F.,
  (2,1,1,1,1,1,1,1,1,1,1,1,1,1,1,1,2),(0.,2.00113218549E-02,
    5.038632732315E-02,0.15886308042,0.175581642319,0.24834796878,
    0.27318925977,0.304583643238,0.44677339482,0.468522852275,
    0.597615165116,0.614002828007,0.708639267852,0.820762858185,
    0.840459465058,0.943168244836,1.),.UNSPECIFIED.);
#93 = CARTESIAN_POINT('',(1.,6.25E-02,0.));
#94 = CARTESIAN_POINT('',(0.980450311755,5.796946480443E-02,0.));
#95 = CARTESIAN_POINT('',(0.950366126882,6.274406908683E-02,0.));
#96 = CARTESIAN_POINT('',(0.841592064233,6.136254887711E-02,0.));
#97 = CARTESIAN_POINT('',(0.824849483486,6.224339087521E-02,0.));
#98 = CARTESIAN_POINT('',(0.751943981848,5.913709390876E-02,0.));
#99 = CARTESIAN_POINT('',(0.727312715042,6.286238015978E-02,0.));
#100 = CARTESIAN_POINT('',(0.696064395218,6.669900993277E-02,0.));
#101 = CARTESIAN_POINT('',(0.55347437388,6.618163149228E-02,0.));
#102 = CARTESIAN_POINT('',(0.53216899487,6.151333601082E-02,0.));
#103 = CARTESIAN_POINT('',(0.402719633253,6.287898216549E-02,0.));
#104 = CARTESIAN_POINT('',(0.386801383073,6.696340117298E-02,0.));
#105 = CARTESIAN_POINT('',(0.291942969159,6.40393792671E-02,0.));
#106 = CARTESIAN_POINT('',(0.179507561071,6.505143006122E-02,0.));
#107 = CARTESIAN_POINT('',(0.1597646529,6.56566859977E-02,0.));
#108 = CARTESIAN_POINT('',(5.678086285928E-02,6.74025163198E-02,0.));
#109 = CARTESIAN_POINT('',(0.,6.25E-02,0.));
#110 = PCURVE('',#46,#111);
#111 = DEFINITIONAL_REPRESENTATION('',(#112),#130);
#112 = B_SPLINE_CURVE_WITH_KNOTS('',1,(#113,#114,#115,#116,#117,#118,
    #119,#120,#121,#122,#123,#124,#125,#126,#127,#128,#129),
  .UNSPECIFIED.,.F.,.F.,(2,1,1,1,1,1,1,1,1,1,1,1,1,1,1,1,2),(0.,
    2.00113218549E-02,5.038632732315E-02,0.15886308042,0.175581642319,
    0.24834796878,0.27318925977,0.304583643238,0.44677339482,
    0.468522852275,0.597615165116,0.614002828007,0.708639267852,
    0.820762858185,0.840459465058,0.943168244836,1.),.UNSPECIFIED.);
#113 = CARTESIAN_POINT('',(0.499599542579,3.125E-02));
#114 = CARTESIAN_POINT('',(0.480049854334,2.671946480443E-02));
#115 = CARTESIAN_POINT('',(0.449965669462,3.149406908683E-02));
#116 = CARTESIAN_POINT('',(0.341191606812,3.011254887711E-02));
#117 = CARTESIAN_POINT('',(0.324449026065,3.099339087521E-02));
#118 = CARTESIAN_POINT('',(0.251543524428,2.788709390876E-02));
#119 = CARTESIAN_POINT('',(0.226912257622,3.161238015978E-02));
#120 = CARTESIAN_POINT('',(0.195663937797,3.544900993277E-02));
#121 = CARTESIAN_POINT('',(5.30739164587E-02,3.493163149228E-02));
#122 = CARTESIAN_POINT('',(3.176853744958E-02,3.026333601082E-02));
#123 = CARTESIAN_POINT('',(-9.768082416752E-02,3.162898216549E-02));
#124 = CARTESIAN_POINT('',(-0.113599074348,3.571340117298E-02));
#125 = CARTESIAN_POINT('',(-0.208457488262,3.27893792671E-02));
#126 = CARTESIAN_POINT('',(-0.32089289635,3.380143006122E-02));
#127 = CARTESIAN_POINT('',(-0.340635804521,3.44066859977E-02));
#128 = CARTESIAN_POINT('',(-0.443619594562,3.61525163198E-02));
#129 = CARTESIAN_POINT('',(-0.500400457421,3.125E-02));
#130 = ( GEOMETRIC_REPRESENTATION_CONTEXT(2) 
PARAMETRIC_REPRESENTATION_CONTEXT() REPRESENTATION_CONTEXT('2D SPACE',''
  ) );
#131 = ORIENTED_EDGE('',*,*,#132,.T.);
#132 = EDGE_CURVE('',#89,#22,#133,.T.);
#133 = SURFACE_CURVE('',#134,(#138),.PCURVE_S1.);
#134 = LINE('',#135,#136);
#135 = CARTESIAN_POINT('',(0.,6.25E-02,0.));
#136 = VECTOR('',#137,1.);
#137 = DIRECTION('',(0.,-1.,0.));
#138 = PCURVE('',#46,#139);
#139 = DEFINITIONAL_REPRESENTATION('',(#140),#144);
#140 = LINE('',#141,#142);
#141 = CARTESIAN_POINT('',(-0.500400457421,3.125E-02));
#142 = VECTOR('',#143,1.);
#143 = DIRECTION('',(0.,-1.));
#144 = ( GEOMETRIC_REPRESENTATION_CONTEXT(2) 
PARAMETRIC_REPRESENTATION_CONTEXT() REPRESENTATION_CONTEXT('2D SPACE',''
  ) );
#145 = ( GEOMETRIC_REPRESENTATION_CONTEXT(3) 
GLOBAL_UNCERTAINTY_ASSIGNED_CONTEXT((#149)) GLOBAL_UNIT_ASSIGNED_CONTEXT
((#146,#147,#148)) REPRESENTATION_CONTEXT('Context #1',
  '3D Context with UNIT and UNCERTAINTY') );
#146 = ( LENGTH_UNIT() NAMED_UNIT(*) SI_UNIT(.MILLI.,.METRE.) );
#147 = ( NAMED_UNIT(*) PLANE_ANGLE_UNIT() SI_UNIT($,.RADIAN.) );
#148 = ( NAMED_UNIT(*) SI_UNIT($,.STERADIAN.) SOLID_ANGLE_UNIT() );
#149 = UNCERTAINTY_MEASURE_WITH_UNIT(LENGTH_MEASURE(1.E-07),#146,
  'distance_accuracy_value','confusion accuracy');
#150 = PRODUCT_RELATED_PRODUCT_CATEGORY('part',$,(#7));
ENDSEC;
END-ISO-10303-21;
