ISO-10303-21;
HEADER;
FILE_DESCRIPTION(('Open CASCADE Model'),'2;1');
FILE_NAME('Open CASCADE Shape Model','2026-06-01T11:13:06',('Author'),(
    'Open CASCADE'),'Open CASCADE STEP processor 7.9','Open CASCADE 7.9'
  ,'Unknown');
FILE_SCHEMA(('AUTOMOTIVE_DESIGN { 1 0 10303 214 1 1 1 1 }'));
ENDSEC;
DATA;
#1 = APPLICATION_PROTOCOL_DEFINITION('international standard',
  'automotive_design',2000,#2);
#2 = APPLICATION_CONTEXT(
  'core data for automotive mechanical design processes');
#3 = SHAPE_DEFINITION_REPRESENTATION(#4,#10);
#4 = PRODUCT_DEFINITION_SHAPE('','',#5);
#5 = PRODUCT_DEFINITION('design','',#6,#9);
#6 = PRODUCT_DEFINITION_FORMATION('','',#7);
#7 = PRODUCT('Open CASCADE STEP translator 7.9 63',
  'Open CASCADE STEP translator 7.9 63','',(#8));
#8 = PRODUCT_CONTEXT('',#2,'mechanical');
#9 = PRODUCT_DEFINITION_CONTEXT('part definition',#2,'design');
#10 = MANIFOLD_SURFACE_SHAPE_REPRESENTATION('',(#11,#15),#121);
#11 = AXIS2_PLACEMENT_3D('',#12,#13,#14);
#12 = CARTESIAN_POINT('',(0.,0.,0.));
#13 = DIRECTION('',(0.,0.,1.));
#14 = DIRECTION('',(1.,0.,-0.));
#15 = SHELL_BASED_SURFACE_MODEL('',(#16));
#16 = OPEN_SHELL('',(#17));
#17 = ADVANCED_FACE('',(#18),#40,.T.);
#18 = FACE_BOUND('',#19,.T.);
#19 = EDGE_LOOP('',(#20,#59,#75,#107));
#20 = ORIENTED_EDGE('',*,*,#21,.T.);
#21 = EDGE_CURVE('',#22,#24,#26,.T.);
#22 = VERTEX_POINT('',#23);
#23 = CARTESIAN_POINT('',(0.,-4.172219209999,0.));
#24 = VERTEX_POINT('',#25);
#25 = CARTESIAN_POINT('',(150.,-4.339298666861,0.));
#26 = SURFACE_CURVE('',#27,(#39),.PCURVE_S1.);
#27 = B_SPLINE_CURVE_WITH_KNOTS('',1,(#28,#29,#30,#31,#32,#33,#34,#35,
    #36,#37,#38),.UNSPECIFIED.,.F.,.F.,(2,1,1,1,1,1,1,1,1,1,2),(0.,
    3.810342333571E-02,0.105152043137,0.20643007601,0.338023696805,
    0.39568468914,0.462900784903,0.742048391619,0.814608237489,
    0.868191565583,1.),.UNSPECIFIED.);
#28 = CARTESIAN_POINT('',(0.,-4.172219209999,0.));
#29 = CARTESIAN_POINT('',(5.839450748231,-3.200779095322,0.));
#30 = CARTESIAN_POINT('',(14.34578598701,2.811516365115,0.));
#31 = CARTESIAN_POINT('',(29.648631205881,-0.848454248714,0.));
#32 = CARTESIAN_POINT('',(49.932593738105,-3.4033268219,0.));
#33 = CARTESIAN_POINT('',(57.659098410398,1.12982457196,0.));
#34 = CARTESIAN_POINT('',(67.807767619656,3.59004450658,0.));
#35 = CARTESIAN_POINT('',(110.70265589028,-2.798666120159,0.));
#36 = CARTESIAN_POINT('',(121.57915059562,0.16412803774,0.));
#37 = CARTESIAN_POINT('',(129.87050987915,-0.579534123233,0.));
#38 = CARTESIAN_POINT('',(150.,-4.339298666861,0.));
#39 = PCURVE('',#40,#45);
#40 = PLANE('',#41);
#41 = AXIS2_PLACEMENT_3D('',#42,#43,#44);
#42 = CARTESIAN_POINT('',(74.28361143163,7.5,0.));
#43 = DIRECTION('',(0.,0.,1.));
#44 = DIRECTION('',(1.,0.,-0.));
#45 = DEFINITIONAL_REPRESENTATION('',(#46),#58);
#46 = B_SPLINE_CURVE_WITH_KNOTS('',1,(#47,#48,#49,#50,#51,#52,#53,#54,
    #55,#56,#57),.UNSPECIFIED.,.F.,.F.,(2,1,1,1,1,1,1,1,1,1,2),(0.,
    3.810342333571E-02,0.105152043137,0.20643007601,0.338023696805,
    0.39568468914,0.462900784903,0.742048391619,0.814608237489,
    0.868191565583,1.),.UNSPECIFIED.);
#47 = CARTESIAN_POINT('',(-74.28361143163,-11.67221920999));
#48 = CARTESIAN_POINT('',(-68.44416068339,-10.70077909532));
#49 = CARTESIAN_POINT('',(-59.93782544462,-4.688483634885));
#50 = CARTESIAN_POINT('',(-44.63498022574,-8.348454248714));
#51 = CARTESIAN_POINT('',(-24.35101769352,-10.9033268219));
#52 = CARTESIAN_POINT('',(-16.62451302123,-6.37017542804));
#53 = CARTESIAN_POINT('',(-6.475843811974,-3.90995549342));
#54 = CARTESIAN_POINT('',(36.419044458657,-10.29866612015));
#55 = CARTESIAN_POINT('',(47.295539163996,-7.33587196226));
#56 = CARTESIAN_POINT('',(55.586898447522,-8.079534123233));
#57 = CARTESIAN_POINT('',(75.71638856837,-11.83929866686));
#58 = ( GEOMETRIC_REPRESENTATION_CONTEXT(2) 
PARAMETRIC_REPRESENTATION_CONTEXT() REPRESENTATION_CONTEXT('2D SPACE',''
  ) );
#59 = ORIENTED_EDGE('',*,*,#60,.T.);
#60 = EDGE_CURVE('',#24,#61,#63,.T.);
#61 = VERTEX_POINT('',#62);
#62 = CARTESIAN_POINT('',(150.,19.339298666861,0.));
#63 = SURFACE_CURVE('',#64,(#68),.PCURVE_S1.);
#64 = LINE('',#65,#66);
#65 = CARTESIAN_POINT('',(150.,-4.339298666861,0.));
#66 = VECTOR('',#67,1.);
#67 = DIRECTION('',(0.,1.,0.));
#68 = PCURVE('',#40,#69);
#69 = DEFINITIONAL_REPRESENTATION('',(#70),#74);
#70 = LINE('',#71,#72);
#71 = CARTESIAN_POINT('',(75.71638856837,-11.83929866686));
#72 = VECTOR('',#73,1.);
#73 = DIRECTION('',(0.,1.));
#74 = ( GEOMETRIC_REPRESENTATION_CONTEXT(2) 
PARAMETRIC_REPRESENTATION_CONTEXT() REPRESENTATION_CONTEXT('2D SPACE',''
  ) );
#75 = ORIENTED_EDGE('',*,*,#76,.T.);
#76 = EDGE_CURVE('',#61,#77,#79,.T.);
#77 = VERTEX_POINT('',#78);
#78 = CARTESIAN_POINT('',(0.,19.172219209999,0.));
#79 = SURFACE_CURVE('',#80,(#92),.PCURVE_S1.);
#80 = B_SPLINE_CURVE_WITH_KNOTS('',1,(#81,#82,#83,#84,#85,#86,#87,#88,
    #89,#90,#91),.UNSPECIFIED.,.F.,.F.,(2,1,1,1,1,1,1,1,1,1,2),(0.,
    0.131808434417,0.185391762511,0.257951608381,0.537099215097,
    0.60431531086,0.661976303195,0.79356992399,0.894847956863,
    0.961896576664,1.),.UNSPECIFIED.);
#81 = CARTESIAN_POINT('',(150.,19.339298666861,0.));
#82 = CARTESIAN_POINT('',(129.87050987915,15.579534123233,0.));
#83 = CARTESIAN_POINT('',(121.57915059562,14.83587196226,0.));
#84 = CARTESIAN_POINT('',(110.70265589028,17.798666120159,0.));
#85 = CARTESIAN_POINT('',(67.807767619656,11.40995549342,0.));
#86 = CARTESIAN_POINT('',(57.659098410398,13.87017542804,0.));
#87 = CARTESIAN_POINT('',(49.932593738105,18.4033268219,0.));
#88 = CARTESIAN_POINT('',(29.648631205881,15.848454248714,0.));
#89 = CARTESIAN_POINT('',(14.34578598701,12.188483634885,0.));
#90 = CARTESIAN_POINT('',(5.839450748231,18.200779095322,0.));
#91 = CARTESIAN_POINT('',(0.,19.172219209999,0.));
#92 = PCURVE('',#40,#93);
#93 = DEFINITIONAL_REPRESENTATION('',(#94),#106);
#94 = B_SPLINE_CURVE_WITH_KNOTS('',1,(#95,#96,#97,#98,#99,#100,#101,#102
    ,#103,#104,#105),.UNSPECIFIED.,.F.,.F.,(2,1,1,1,1,1,1,1,1,1,2),(0.,
    0.131808434417,0.185391762511,0.257951608381,0.537099215097,
    0.60431531086,0.661976303195,0.79356992399,0.894847956863,
    0.961896576664,1.),.UNSPECIFIED.);
#95 = CARTESIAN_POINT('',(75.71638856837,11.839298666861));
#96 = CARTESIAN_POINT('',(55.586898447522,8.079534123233));
#97 = CARTESIAN_POINT('',(47.295539163996,7.33587196226));
#98 = CARTESIAN_POINT('',(36.419044458657,10.298666120159));
#99 = CARTESIAN_POINT('',(-6.475843811974,3.90995549342));
#100 = CARTESIAN_POINT('',(-16.62451302123,6.37017542804));
#101 = CARTESIAN_POINT('',(-24.35101769352,10.9033268219));
#102 = CARTESIAN_POINT('',(-44.63498022574,8.348454248714));
#103 = CARTESIAN_POINT('',(-59.93782544462,4.688483634885));
#104 = CARTESIAN_POINT('',(-68.44416068339,10.700779095322));
#105 = CARTESIAN_POINT('',(-74.28361143163,11.672219209999));
#106 = ( GEOMETRIC_REPRESENTATION_CONTEXT(2) 
PARAMETRIC_REPRESENTATION_CONTEXT() REPRESENTATION_CONTEXT('2D SPACE',''
  ) );
#107 = ORIENTED_EDGE('',*,*,#108,.T.);
#108 = EDGE_CURVE('',#77,#22,#109,.T.);
#109 = SURFACE_CURVE('',#110,(#114),.PCURVE_S1.);
#110 = LINE('',#111,#112);
#111 = CARTESIAN_POINT('',(0.,19.172219209999,0.));
#112 = VECTOR('',#113,1.);
#113 = DIRECTION('',(0.,-1.,0.));
#114 = PCURVE('',#40,#115);
#115 = DEFINITIONAL_REPRESENTATION('',(#116),#120);
#116 = LINE('',#117,#118);
#117 = CARTESIAN_POINT('',(-74.28361143163,11.672219209999));
#118 = VECTOR('',#119,1.);
#119 = DIRECTION('',(0.,-1.));
#120 = ( GEOMETRIC_REPRESENTATION_CONTEXT(2) 
PARAMETRIC_REPRESENTATION_CONTEXT() REPRESENTATION_CONTEXT('2D SPACE',''
  ) );
#121 = ( GEOMETRIC_REPRESENTATION_CONTEXT(3) 
GLOBAL_UNCERTAINTY_ASSIGNED_CONTEXT((#125)) GLOBAL_UNIT_ASSIGNED_CONTEXT
((#122,#123,#124)) REPRESENTATION_CONTEXT('Context #1',
  '3D Context with UNIT and UNCERTAINTY') );
#122 = ( LENGTH_UNIT() NAMED_UNIT(*) SI_UNIT(.MILLI.,.METRE.) );
#123 = ( NAMED_UNIT(*) PLANE_ANGLE_UNIT() SI_UNIT($,.RADIAN.) );
#124 = ( NAMED_UNIT(*) SI_UNIT($,.STERADIAN.) SOLID_ANGLE_UNIT() );
#125 = UNCERTAINTY_MEASURE_WITH_UNIT(LENGTH_MEASURE(1.E-07),#122,
  'distance_accuracy_value','confusion accuracy');
#126 = PRODUCT_RELATED_PRODUCT_CATEGORY('part',$,(#7));
ENDSEC;
END-ISO-10303-21;
