ISO-10303-21;
HEADER;
FILE_DESCRIPTION(('Open CASCADE Model'),'2;1');
FILE_NAME('Open CASCADE Shape Model','2026-06-01T11:13:05',('Author'),(
    'Open CASCADE'),'Open CASCADE STEP processor 7.9','Open CASCADE 7.9'
  ,'Unknown');
FILE_SCHEMA(('AUTOMOTIVE_DESIGN { 1 0 10303 214 1 1 1 1 }'));
ENDSEC;
DATA;
#1 = APPLICATION_PROTOCOL_DEFINITION('international standard',
  'automotive_design',2000,#2);
#2 = APPLICATION_CONTEXT(
  'core data for automotive mechanical design processes');
#3 = SHAPE_DEFINITION_REPRESENTATION(#4,#10);
#4 = PRODUCT_DEFINITION_SHAPE('','',#5);
#5 = PRODUCT_DEFINITION('design','',#6,#9);
#6 = PRODUCT_DEFINITION_FORMATION('','',#7);
#7 = PRODUCT('Open CASCADE STEP translator 7.9 9',
  'Open CASCADE STEP translator 7.9 9','',(#8));
#8 = PRODUCT_CONTEXT('',#2,'mechanical');
#9 = PRODUCT_DEFINITION_CONTEXT('part definition',#2,'design');
#10 = MANIFOLD_SURFACE_SHAPE_REPRESENTATION('',(#11,#15),#121);
#11 = AXIS2_PLACEMENT_3D('',#12,#13,#14);
#12 = CARTESIAN_POINT('',(0.,0.,0.));
#13 = DIRECTION('',(0.,0.,1.));
#14 = DIRECTION('',(1.,0.,-0.));
#15 = SHELL_BASED_SURFACE_MODEL('',(#16));
#16 = OPEN_SHELL('',(#17));
#17 = ADVANCED_FACE('',(#18),#40,.T.);
#18 = FACE_BOUND('',#19,.T.);
#19 = EDGE_LOOP('',(#20,#59,#75,#107));
#20 = ORIENTED_EDGE('',*,*,#21,.T.);
#21 = EDGE_CURVE('',#22,#24,#26,.T.);
#22 = VERTEX_POINT('',#23);
#23 = CARTESIAN_POINT('',(0.,-3.517132417907,0.));
#24 = VERTEX_POINT('',#25);
#25 = CARTESIAN_POINT('',(150.,-3.931318354804,0.));
#26 = SURFACE_CURVE('',#27,(#39),.PCURVE_S1.);
#27 = B_SPLINE_CURVE_WITH_KNOTS('',1,(#28,#29,#30,#31,#32,#33,#34,#35,
    #36,#37,#38),.UNSPECIFIED.,.F.,.F.,(2,1,1,1,1,1,1,1,1,1,2),(0.,
    8.870206688275E-02,0.144503586928,0.192847556471,0.407345595124,
    0.477422634613,0.619220760595,0.668682604995,0.720952634201,
    0.847045092115,1.),.UNSPECIFIED.);
#28 = CARTESIAN_POINT('',(0.,-3.517132417907,0.));
#29 = CARTESIAN_POINT('',(13.798732913686,-3.541019757281,0.));
#30 = CARTESIAN_POINT('',(21.797984384135,-0.169725243478,0.));
#31 = CARTESIAN_POINT('',(29.093377550123,1.656638533523,0.));
#32 = CARTESIAN_POINT('',(62.207886394674,-2.448111888999,0.));
#33 = CARTESIAN_POINT('',(73.063941389098,-1.45495136851,0.));
#34 = CARTESIAN_POINT('',(94.96965330628,1.137080440137,0.));
#35 = CARTESIAN_POINT('',(102.24223787424,3.649799987446,0.));
#36 = CARTESIAN_POINT('',(107.86808492721,-2.221106502141,0.));
#37 = CARTESIAN_POINT('',(126.99293613609,2.137855356694,0.));
#38 = CARTESIAN_POINT('',(150.,-3.931318354804,0.));
#39 = PCURVE('',#40,#45);
#40 = PLANE('',#41);
#41 = AXIS2_PLACEMENT_3D('',#42,#43,#44);
#42 = CARTESIAN_POINT('',(75.733546487673,7.5,0.));
#43 = DIRECTION('',(0.,0.,1.));
#44 = DIRECTION('',(1.,0.,-0.));
#45 = DEFINITIONAL_REPRESENTATION('',(#46),#58);
#46 = B_SPLINE_CURVE_WITH_KNOTS('',1,(#47,#48,#49,#50,#51,#52,#53,#54,
    #55,#56,#57),.UNSPECIFIED.,.F.,.F.,(2,1,1,1,1,1,1,1,1,1,2),(0.,
    8.870206688275E-02,0.144503586928,0.192847556471,0.407345595124,
    0.477422634613,0.619220760595,0.668682604995,0.720952634201,
    0.847045092115,1.),.UNSPECIFIED.);
#47 = CARTESIAN_POINT('',(-75.73354648767,-11.0171324179));
#48 = CARTESIAN_POINT('',(-61.93481357398,-11.04101975728));
#49 = CARTESIAN_POINT('',(-53.93556210353,-7.669725243478));
#50 = CARTESIAN_POINT('',(-46.64016893755,-5.843361466477));
#51 = CARTESIAN_POINT('',(-13.52566009299,-9.948111888999));
#52 = CARTESIAN_POINT('',(-2.669605098575,-8.95495136851));
#53 = CARTESIAN_POINT('',(19.236106818607,-6.362919559863));
#54 = CARTESIAN_POINT('',(26.508691386569,-3.850200012554));
#55 = CARTESIAN_POINT('',(32.134538439539,-9.721106502141));
#56 = CARTESIAN_POINT('',(51.259389648419,-5.362144643306));
#57 = CARTESIAN_POINT('',(74.266453512327,-11.4313183548));
#58 = ( GEOMETRIC_REPRESENTATION_CONTEXT(2) 
PARAMETRIC_REPRESENTATION_CONTEXT() REPRESENTATION_CONTEXT('2D SPACE',''
  ) );
#59 = ORIENTED_EDGE('',*,*,#60,.T.);
#60 = EDGE_CURVE('',#24,#61,#63,.T.);
#61 = VERTEX_POINT('',#62);
#62 = CARTESIAN_POINT('',(150.,18.931318354804,0.));
#63 = SURFACE_CURVE('',#64,(#68),.PCURVE_S1.);
#64 = LINE('',#65,#66);
#65 = CARTESIAN_POINT('',(150.,-3.931318354804,0.));
#66 = VECTOR('',#67,1.);
#67 = DIRECTION('',(0.,1.,0.));
#68 = PCURVE('',#40,#69);
#69 = DEFINITIONAL_REPRESENTATION('',(#70),#74);
#70 = LINE('',#71,#72);
#71 = CARTESIAN_POINT('',(74.266453512327,-11.4313183548));
#72 = VECTOR('',#73,1.);
#73 = DIRECTION('',(0.,1.));
#74 = ( GEOMETRIC_REPRESENTATION_CONTEXT(2) 
PARAMETRIC_REPRESENTATION_CONTEXT() REPRESENTATION_CONTEXT('2D SPACE',''
  ) );
#75 = ORIENTED_EDGE('',*,*,#76,.T.);
#76 = EDGE_CURVE('',#61,#77,#79,.T.);
#77 = VERTEX_POINT('',#78);
#78 = CARTESIAN_POINT('',(0.,18.517132417907,0.));
#79 = SURFACE_CURVE('',#80,(#92),.PCURVE_S1.);
#80 = B_SPLINE_CURVE_WITH_KNOTS('',1,(#81,#82,#83,#84,#85,#86,#87,#88,
    #89,#90,#91),.UNSPECIFIED.,.F.,.F.,(2,1,1,1,1,1,1,1,1,1,2),(0.,
    0.152954907885,0.279047365799,0.331317395005,0.380779239405,
    0.522577365387,0.592654404876,0.807152443529,0.855496413072,
    0.911297933117,1.),.UNSPECIFIED.);
#81 = CARTESIAN_POINT('',(150.,18.931318354804,0.));
#82 = CARTESIAN_POINT('',(126.99293613609,12.862144643306,0.));
#83 = CARTESIAN_POINT('',(107.86808492721,17.221106502141,0.));
#84 = CARTESIAN_POINT('',(102.24223787424,11.350200012554,0.));
#85 = CARTESIAN_POINT('',(94.96965330628,13.862919559863,0.));
#86 = CARTESIAN_POINT('',(73.063941389098,16.45495136851,0.));
#87 = CARTESIAN_POINT('',(62.207886394674,17.448111888999,0.));
#88 = CARTESIAN_POINT('',(29.093377550123,13.343361466477,0.));
#89 = CARTESIAN_POINT('',(21.797984384135,15.169725243478,0.));
#90 = CARTESIAN_POINT('',(13.798732913686,18.541019757281,0.));
#91 = CARTESIAN_POINT('',(0.,18.517132417907,0.));
#92 = PCURVE('',#40,#93);
#93 = DEFINITIONAL_REPRESENTATION('',(#94),#106);
#94 = B_SPLINE_CURVE_WITH_KNOTS('',1,(#95,#96,#97,#98,#99,#100,#101,#102
    ,#103,#104,#105),.UNSPECIFIED.,.F.,.F.,(2,1,1,1,1,1,1,1,1,1,2),(0.,
    0.152954907885,0.279047365799,0.331317395005,0.380779239405,
    0.522577365387,0.592654404876,0.807152443529,0.855496413072,
    0.911297933117,1.),.UNSPECIFIED.);
#95 = CARTESIAN_POINT('',(74.266453512327,11.431318354804));
#96 = CARTESIAN_POINT('',(51.259389648419,5.362144643306));
#97 = CARTESIAN_POINT('',(32.134538439539,9.721106502141));
#98 = CARTESIAN_POINT('',(26.508691386569,3.850200012554));
#99 = CARTESIAN_POINT('',(19.236106818607,6.362919559863));
#100 = CARTESIAN_POINT('',(-2.669605098575,8.95495136851));
#101 = CARTESIAN_POINT('',(-13.52566009299,9.948111888999));
#102 = CARTESIAN_POINT('',(-46.64016893755,5.843361466477));
#103 = CARTESIAN_POINT('',(-53.93556210353,7.669725243478));
#104 = CARTESIAN_POINT('',(-61.93481357398,11.041019757281));
#105 = CARTESIAN_POINT('',(-75.73354648767,11.017132417907));
#106 = ( GEOMETRIC_REPRESENTATION_CONTEXT(2) 
PARAMETRIC_REPRESENTATION_CONTEXT() REPRESENTATION_CONTEXT('2D SPACE',''
  ) );
#107 = ORIENTED_EDGE('',*,*,#108,.T.);
#108 = EDGE_CURVE('',#77,#22,#109,.T.);
#109 = SURFACE_CURVE('',#110,(#114),.PCURVE_S1.);
#110 = LINE('',#111,#112);
#111 = CARTESIAN_POINT('',(0.,18.517132417907,0.));
#112 = VECTOR('',#113,1.);
#113 = DIRECTION('',(0.,-1.,0.));
#114 = PCURVE('',#40,#115);
#115 = DEFINITIONAL_REPRESENTATION('',(#116),#120);
#116 = LINE('',#117,#118);
#117 = CARTESIAN_POINT('',(-75.73354648767,11.017132417907));
#118 = VECTOR('',#119,1.);
#119 = DIRECTION('',(0.,-1.));
#120 = ( GEOMETRIC_REPRESENTATION_CONTEXT(2) 
PARAMETRIC_REPRESENTATION_CONTEXT() REPRESENTATION_CONTEXT('2D SPACE',''
  ) );
#121 = ( GEOMETRIC_REPRESENTATION_CONTEXT(3) 
GLOBAL_UNCERTAINTY_ASSIGNED_CONTEXT((#125)) GLOBAL_UNIT_ASSIGNED_CONTEXT
((#122,#123,#124)) REPRESENTATION_CONTEXT('Context #1',
  '3D Context with UNIT and UNCERTAINTY') );
#122 = ( LENGTH_UNIT() NAMED_UNIT(*) SI_UNIT(.MILLI.,.METRE.) );
#123 = ( NAMED_UNIT(*) PLANE_ANGLE_UNIT() SI_UNIT($,.RADIAN.) );
#124 = ( NAMED_UNIT(*) SI_UNIT($,.STERADIAN.) SOLID_ANGLE_UNIT() );
#125 = UNCERTAINTY_MEASURE_WITH_UNIT(LENGTH_MEASURE(1.E-07),#122,
  'distance_accuracy_value','confusion accuracy');
#126 = PRODUCT_RELATED_PRODUCT_CATEGORY('part',$,(#7));
ENDSEC;
END-ISO-10303-21;
