ISO-10303-21;
HEADER;
FILE_DESCRIPTION(('Open CASCADE Model'),'2;1');
FILE_NAME('Open CASCADE Shape Model','2026-06-01T11:13:06',('Author'),(
    'Open CASCADE'),'Open CASCADE STEP processor 7.9','Open CASCADE 7.9'
  ,'Unknown');
FILE_SCHEMA(('AUTOMOTIVE_DESIGN { 1 0 10303 214 1 1 1 1 }'));
ENDSEC;
DATA;
#1 = APPLICATION_PROTOCOL_DEFINITION('international standard',
  'automotive_design',2000,#2);
#2 = APPLICATION_CONTEXT(
  'core data for automotive mechanical design processes');
#3 = SHAPE_DEFINITION_REPRESENTATION(#4,#10);
#4 = PRODUCT_DEFINITION_SHAPE('','',#5);
#5 = PRODUCT_DEFINITION('design','',#6,#9);
#6 = PRODUCT_DEFINITION_FORMATION('','',#7);
#7 = PRODUCT('Open CASCADE STEP translator 7.9 83',
  'Open CASCADE STEP translator 7.9 83','',(#8));
#8 = PRODUCT_CONTEXT('',#2,'mechanical');
#9 = PRODUCT_DEFINITION_CONTEXT('part definition',#2,'design');
#10 = MANIFOLD_SURFACE_SHAPE_REPRESENTATION('',(#11,#15),#121);
#11 = AXIS2_PLACEMENT_3D('',#12,#13,#14);
#12 = CARTESIAN_POINT('',(0.,0.,0.));
#13 = DIRECTION('',(0.,0.,1.));
#14 = DIRECTION('',(1.,0.,-0.));
#15 = SHELL_BASED_SURFACE_MODEL('',(#16));
#16 = OPEN_SHELL('',(#17));
#17 = ADVANCED_FACE('',(#18),#40,.T.);
#18 = FACE_BOUND('',#19,.T.);
#19 = EDGE_LOOP('',(#20,#59,#75,#107));
#20 = ORIENTED_EDGE('',*,*,#21,.T.);
#21 = EDGE_CURVE('',#22,#24,#26,.T.);
#22 = VERTEX_POINT('',#23);
#23 = CARTESIAN_POINT('',(0.,-3.797077558493,0.));
#24 = VERTEX_POINT('',#25);
#25 = CARTESIAN_POINT('',(150.,-2.945291360317,0.));
#26 = SURFACE_CURVE('',#27,(#39),.PCURVE_S1.);
#27 = B_SPLINE_CURVE_WITH_KNOTS('',1,(#28,#29,#30,#31,#32,#33,#34,#35,
    #36,#37,#38),.UNSPECIFIED.,.F.,.F.,(2,1,1,1,1,1,1,1,1,1,2),(0.,
    0.104732671079,0.185691147491,0.208670031422,0.2610366026,
    0.436579150931,0.499810187193,0.584780857131,0.646452215703,
    0.858330229604,1.),.UNSPECIFIED.);
#28 = CARTESIAN_POINT('',(0.,-3.797077558493,0.));
#29 = CARTESIAN_POINT('',(15.810696883719,1.510532570669,0.));
#30 = CARTESIAN_POINT('',(28.618884618038,2.977787633554,0.));
#31 = CARTESIAN_POINT('',(32.25790152843,2.594050528803,0.));
#32 = CARTESIAN_POINT('',(40.524506836163,3.689987480594,0.));
#33 = CARTESIAN_POINT('',(68.476865154556,3.419004329088,0.));
#34 = CARTESIAN_POINT('',(78.536289247068,3.858259192336,0.));
#35 = CARTESIAN_POINT('',(89.248267624475,-4.408407622844,0.));
#36 = CARTESIAN_POINT('',(94.588335772741,3.833480849678,0.));
#37 = CARTESIAN_POINT('',(128.32401832799,3.307121271437,0.));
#38 = CARTESIAN_POINT('',(150.,-2.945291360317,0.));
#39 = PCURVE('',#40,#45);
#40 = PLANE('',#41);
#41 = AXIS2_PLACEMENT_3D('',#42,#43,#44);
#42 = CARTESIAN_POINT('',(75.151978905697,7.5,0.));
#43 = DIRECTION('',(0.,0.,1.));
#44 = DIRECTION('',(1.,0.,-0.));
#45 = DEFINITIONAL_REPRESENTATION('',(#46),#58);
#46 = B_SPLINE_CURVE_WITH_KNOTS('',1,(#47,#48,#49,#50,#51,#52,#53,#54,
    #55,#56,#57),.UNSPECIFIED.,.F.,.F.,(2,1,1,1,1,1,1,1,1,1,2),(0.,
    0.104732671079,0.185691147491,0.208670031422,0.2610366026,
    0.436579150931,0.499810187193,0.584780857131,0.646452215703,
    0.858330229604,1.),.UNSPECIFIED.);
#47 = CARTESIAN_POINT('',(-75.15197890569,-11.29707755849));
#48 = CARTESIAN_POINT('',(-59.34128202197,-5.989467429331));
#49 = CARTESIAN_POINT('',(-46.53309428765,-4.522212366446));
#50 = CARTESIAN_POINT('',(-42.89407737726,-4.905949471197));
#51 = CARTESIAN_POINT('',(-34.62747206953,-3.810012519406));
#52 = CARTESIAN_POINT('',(-6.675113751141,-4.080995670912));
#53 = CARTESIAN_POINT('',(3.384310341371,-3.641740807664));
#54 = CARTESIAN_POINT('',(14.096288718778,-11.90840762284));
#55 = CARTESIAN_POINT('',(19.436356867044,-3.666519150322));
#56 = CARTESIAN_POINT('',(53.1720394223,-4.192878728563));
#57 = CARTESIAN_POINT('',(74.848021094303,-10.44529136031));
#58 = ( GEOMETRIC_REPRESENTATION_CONTEXT(2) 
PARAMETRIC_REPRESENTATION_CONTEXT() REPRESENTATION_CONTEXT('2D SPACE',''
  ) );
#59 = ORIENTED_EDGE('',*,*,#60,.T.);
#60 = EDGE_CURVE('',#24,#61,#63,.T.);
#61 = VERTEX_POINT('',#62);
#62 = CARTESIAN_POINT('',(150.,17.945291360317,0.));
#63 = SURFACE_CURVE('',#64,(#68),.PCURVE_S1.);
#64 = LINE('',#65,#66);
#65 = CARTESIAN_POINT('',(150.,-2.945291360317,0.));
#66 = VECTOR('',#67,1.);
#67 = DIRECTION('',(0.,1.,0.));
#68 = PCURVE('',#40,#69);
#69 = DEFINITIONAL_REPRESENTATION('',(#70),#74);
#70 = LINE('',#71,#72);
#71 = CARTESIAN_POINT('',(74.848021094303,-10.44529136031));
#72 = VECTOR('',#73,1.);
#73 = DIRECTION('',(0.,1.));
#74 = ( GEOMETRIC_REPRESENTATION_CONTEXT(2) 
PARAMETRIC_REPRESENTATION_CONTEXT() REPRESENTATION_CONTEXT('2D SPACE',''
  ) );
#75 = ORIENTED_EDGE('',*,*,#76,.T.);
#76 = EDGE_CURVE('',#61,#77,#79,.T.);
#77 = VERTEX_POINT('',#78);
#78 = CARTESIAN_POINT('',(0.,18.797077558493,0.));
#79 = SURFACE_CURVE('',#80,(#92),.PCURVE_S1.);
#80 = B_SPLINE_CURVE_WITH_KNOTS('',1,(#81,#82,#83,#84,#85,#86,#87,#88,
    #89,#90,#91),.UNSPECIFIED.,.F.,.F.,(2,1,1,1,1,1,1,1,1,1,2),(0.,
    0.141669770396,0.353547784297,0.415219142869,0.500189812807,
    0.563420849069,0.7389633974,0.791329968578,0.814308852509,
    0.895267328921,1.),.UNSPECIFIED.);
#81 = CARTESIAN_POINT('',(150.,17.945291360317,0.));
#82 = CARTESIAN_POINT('',(128.32401832799,11.692878728563,0.));
#83 = CARTESIAN_POINT('',(94.588335772741,11.166519150322,0.));
#84 = CARTESIAN_POINT('',(89.248267624475,19.408407622844,0.));
#85 = CARTESIAN_POINT('',(78.536289247068,11.141740807664,0.));
#86 = CARTESIAN_POINT('',(68.476865154556,11.580995670912,0.));
#87 = CARTESIAN_POINT('',(40.524506836163,11.310012519406,0.));
#88 = CARTESIAN_POINT('',(32.25790152843,12.405949471197,0.));
#89 = CARTESIAN_POINT('',(28.618884618038,12.022212366446,0.));
#90 = CARTESIAN_POINT('',(15.810696883719,13.489467429331,0.));
#91 = CARTESIAN_POINT('',(0.,18.797077558493,0.));
#92 = PCURVE('',#40,#93);
#93 = DEFINITIONAL_REPRESENTATION('',(#94),#106);
#94 = B_SPLINE_CURVE_WITH_KNOTS('',1,(#95,#96,#97,#98,#99,#100,#101,#102
    ,#103,#104,#105),.UNSPECIFIED.,.F.,.F.,(2,1,1,1,1,1,1,1,1,1,2),(0.,
    0.141669770396,0.353547784297,0.415219142869,0.500189812807,
    0.563420849069,0.7389633974,0.791329968578,0.814308852509,
    0.895267328921,1.),.UNSPECIFIED.);
#95 = CARTESIAN_POINT('',(74.848021094303,10.445291360317));
#96 = CARTESIAN_POINT('',(53.1720394223,4.192878728563));
#97 = CARTESIAN_POINT('',(19.436356867044,3.666519150322));
#98 = CARTESIAN_POINT('',(14.096288718778,11.908407622844));
#99 = CARTESIAN_POINT('',(3.384310341371,3.641740807664));
#100 = CARTESIAN_POINT('',(-6.675113751141,4.080995670912));
#101 = CARTESIAN_POINT('',(-34.62747206953,3.810012519406));
#102 = CARTESIAN_POINT('',(-42.89407737726,4.905949471197));
#103 = CARTESIAN_POINT('',(-46.53309428765,4.522212366446));
#104 = CARTESIAN_POINT('',(-59.34128202197,5.989467429331));
#105 = CARTESIAN_POINT('',(-75.15197890569,11.297077558493));
#106 = ( GEOMETRIC_REPRESENTATION_CONTEXT(2) 
PARAMETRIC_REPRESENTATION_CONTEXT() REPRESENTATION_CONTEXT('2D SPACE',''
  ) );
#107 = ORIENTED_EDGE('',*,*,#108,.T.);
#108 = EDGE_CURVE('',#77,#22,#109,.T.);
#109 = SURFACE_CURVE('',#110,(#114),.PCURVE_S1.);
#110 = LINE('',#111,#112);
#111 = CARTESIAN_POINT('',(0.,18.797077558493,0.));
#112 = VECTOR('',#113,1.);
#113 = DIRECTION('',(0.,-1.,0.));
#114 = PCURVE('',#40,#115);
#115 = DEFINITIONAL_REPRESENTATION('',(#116),#120);
#116 = LINE('',#117,#118);
#117 = CARTESIAN_POINT('',(-75.15197890569,11.297077558493));
#118 = VECTOR('',#119,1.);
#119 = DIRECTION('',(0.,-1.));
#120 = ( GEOMETRIC_REPRESENTATION_CONTEXT(2) 
PARAMETRIC_REPRESENTATION_CONTEXT() REPRESENTATION_CONTEXT('2D SPACE',''
  ) );
#121 = ( GEOMETRIC_REPRESENTATION_CONTEXT(3) 
GLOBAL_UNCERTAINTY_ASSIGNED_CONTEXT((#125)) GLOBAL_UNIT_ASSIGNED_CONTEXT
((#122,#123,#124)) REPRESENTATION_CONTEXT('Context #1',
  '3D Context with UNIT and UNCERTAINTY') );
#122 = ( LENGTH_UNIT() NAMED_UNIT(*) SI_UNIT(.MILLI.,.METRE.) );
#123 = ( NAMED_UNIT(*) PLANE_ANGLE_UNIT() SI_UNIT($,.RADIAN.) );
#124 = ( NAMED_UNIT(*) SI_UNIT($,.STERADIAN.) SOLID_ANGLE_UNIT() );
#125 = UNCERTAINTY_MEASURE_WITH_UNIT(LENGTH_MEASURE(1.E-07),#122,
  'distance_accuracy_value','confusion accuracy');
#126 = PRODUCT_RELATED_PRODUCT_CATEGORY('part',$,(#7));
ENDSEC;
END-ISO-10303-21;
