ISO-10303-21;
HEADER;
FILE_DESCRIPTION(('Open CASCADE Model'),'2;1');
FILE_NAME('Open CASCADE Shape Model','2026-06-01T11:13:06',('Author'),(
    'Open CASCADE'),'Open CASCADE STEP processor 7.9','Open CASCADE 7.9'
  ,'Unknown');
FILE_SCHEMA(('AUTOMOTIVE_DESIGN { 1 0 10303 214 1 1 1 1 }'));
ENDSEC;
DATA;
#1 = APPLICATION_PROTOCOL_DEFINITION('international standard',
  'automotive_design',2000,#2);
#2 = APPLICATION_CONTEXT(
  'core data for automotive mechanical design processes');
#3 = SHAPE_DEFINITION_REPRESENTATION(#4,#10);
#4 = PRODUCT_DEFINITION_SHAPE('','',#5);
#5 = PRODUCT_DEFINITION('design','',#6,#9);
#6 = PRODUCT_DEFINITION_FORMATION('','',#7);
#7 = PRODUCT('Open CASCADE STEP translator 7.9 40',
  'Open CASCADE STEP translator 7.9 40','',(#8));
#8 = PRODUCT_CONTEXT('',#2,'mechanical');
#9 = PRODUCT_DEFINITION_CONTEXT('part definition',#2,'design');
#10 = MANIFOLD_SURFACE_SHAPE_REPRESENTATION('',(#11,#15),#121);
#11 = AXIS2_PLACEMENT_3D('',#12,#13,#14);
#12 = CARTESIAN_POINT('',(0.,0.,0.));
#13 = DIRECTION('',(0.,0.,1.));
#14 = DIRECTION('',(1.,0.,-0.));
#15 = SHELL_BASED_SURFACE_MODEL('',(#16));
#16 = OPEN_SHELL('',(#17));
#17 = ADVANCED_FACE('',(#18),#40,.T.);
#18 = FACE_BOUND('',#19,.T.);
#19 = EDGE_LOOP('',(#20,#59,#75,#107));
#20 = ORIENTED_EDGE('',*,*,#21,.T.);
#21 = EDGE_CURVE('',#22,#24,#26,.T.);
#22 = VERTEX_POINT('',#23);
#23 = CARTESIAN_POINT('',(0.,0.944934839635,0.));
#24 = VERTEX_POINT('',#25);
#25 = CARTESIAN_POINT('',(150.,-2.101454141065,0.));
#26 = SURFACE_CURVE('',#27,(#39),.PCURVE_S1.);
#27 = B_SPLINE_CURVE_WITH_KNOTS('',1,(#28,#29,#30,#31,#32,#33,#34,#35,
    #36,#37,#38),.UNSPECIFIED.,.F.,.F.,(2,1,1,1,1,1,1,1,1,1,2),(0.,
    0.100727572313,0.220793228989,0.356952361481,0.496067988913,
    0.516663491576,0.622592741823,0.708096717172,0.872012527543,
    0.903510028369,1.),.UNSPECIFIED.);
#28 = CARTESIAN_POINT('',(0.,0.944934839635,0.));
#29 = CARTESIAN_POINT('',(15.497853201668,-1.643234383883,0.));
#30 = CARTESIAN_POINT('',(33.601646230117,3.155632592687,0.));
#31 = CARTESIAN_POINT('',(53.543665255753,-4.153946665869,0.));
#32 = CARTESIAN_POINT('',(74.067880807101,2.894024143604,0.));
#33 = CARTESIAN_POINT('',(77.274953236965,2.704122063905,0.));
#34 = CARTESIAN_POINT('',(92.696208577951,-3.230845745019,0.));
#35 = CARTESIAN_POINT('',(106.02523650766,-3.713244697277,0.));
#36 = CARTESIAN_POINT('',(130.80516702775,2.59067333229,0.));
#37 = CARTESIAN_POINT('',(135.13682030704,0.271792006427,0.));
#38 = CARTESIAN_POINT('',(150.,-2.101454141065,0.));
#39 = PCURVE('',#40,#45);
#40 = PLANE('',#41);
#41 = AXIS2_PLACEMENT_3D('',#42,#43,#44);
#42 = CARTESIAN_POINT('',(76.280837164079,7.5,0.));
#43 = DIRECTION('',(0.,0.,1.));
#44 = DIRECTION('',(1.,0.,-0.));
#45 = DEFINITIONAL_REPRESENTATION('',(#46),#58);
#46 = B_SPLINE_CURVE_WITH_KNOTS('',1,(#47,#48,#49,#50,#51,#52,#53,#54,
    #55,#56,#57),.UNSPECIFIED.,.F.,.F.,(2,1,1,1,1,1,1,1,1,1,2),(0.,
    0.100727572313,0.220793228989,0.356952361481,0.496067988913,
    0.516663491576,0.622592741823,0.708096717172,0.872012527543,
    0.903510028369,1.),.UNSPECIFIED.);
#47 = CARTESIAN_POINT('',(-76.28083716407,-6.555065160365));
#48 = CARTESIAN_POINT('',(-60.78298396241,-9.143234383883));
#49 = CARTESIAN_POINT('',(-42.67919093396,-4.344367407313));
#50 = CARTESIAN_POINT('',(-22.73717190832,-11.65394666586));
#51 = CARTESIAN_POINT('',(-2.212956356979,-4.605975856396));
#52 = CARTESIAN_POINT('',(0.994116072886,-4.795877936095));
#53 = CARTESIAN_POINT('',(16.415371413871,-10.73084574501));
#54 = CARTESIAN_POINT('',(29.744399343584,-11.21324469727));
#55 = CARTESIAN_POINT('',(54.524329863678,-4.90932666771));
#56 = CARTESIAN_POINT('',(58.855983142964,-7.228207993573));
#57 = CARTESIAN_POINT('',(73.719162835921,-9.601454141065));
#58 = ( GEOMETRIC_REPRESENTATION_CONTEXT(2) 
PARAMETRIC_REPRESENTATION_CONTEXT() REPRESENTATION_CONTEXT('2D SPACE',''
  ) );
#59 = ORIENTED_EDGE('',*,*,#60,.T.);
#60 = EDGE_CURVE('',#24,#61,#63,.T.);
#61 = VERTEX_POINT('',#62);
#62 = CARTESIAN_POINT('',(150.,17.101454141065,0.));
#63 = SURFACE_CURVE('',#64,(#68),.PCURVE_S1.);
#64 = LINE('',#65,#66);
#65 = CARTESIAN_POINT('',(150.,-2.101454141065,0.));
#66 = VECTOR('',#67,1.);
#67 = DIRECTION('',(0.,1.,0.));
#68 = PCURVE('',#40,#69);
#69 = DEFINITIONAL_REPRESENTATION('',(#70),#74);
#70 = LINE('',#71,#72);
#71 = CARTESIAN_POINT('',(73.719162835921,-9.601454141065));
#72 = VECTOR('',#73,1.);
#73 = DIRECTION('',(0.,1.));
#74 = ( GEOMETRIC_REPRESENTATION_CONTEXT(2) 
PARAMETRIC_REPRESENTATION_CONTEXT() REPRESENTATION_CONTEXT('2D SPACE',''
  ) );
#75 = ORIENTED_EDGE('',*,*,#76,.T.);
#76 = EDGE_CURVE('',#61,#77,#79,.T.);
#77 = VERTEX_POINT('',#78);
#78 = CARTESIAN_POINT('',(0.,14.055065160365,0.));
#79 = SURFACE_CURVE('',#80,(#92),.PCURVE_S1.);
#80 = B_SPLINE_CURVE_WITH_KNOTS('',1,(#81,#82,#83,#84,#85,#86,#87,#88,
    #89,#90,#91),.UNSPECIFIED.,.F.,.F.,(2,1,1,1,1,1,1,1,1,1,2),(0.,
    9.648997163105E-02,0.127987472457,0.291903282828,0.377407258177,
    0.483336508424,0.503932011087,0.643047638519,0.779206771011,
    0.899272427687,1.),.UNSPECIFIED.);
#81 = CARTESIAN_POINT('',(150.,17.101454141065,0.));
#82 = CARTESIAN_POINT('',(135.13682030704,14.728207993573,0.));
#83 = CARTESIAN_POINT('',(130.80516702775,12.40932666771,0.));
#84 = CARTESIAN_POINT('',(106.02523650766,18.713244697277,0.));
#85 = CARTESIAN_POINT('',(92.696208577951,18.230845745019,0.));
#86 = CARTESIAN_POINT('',(77.274953236965,12.295877936095,0.));
#87 = CARTESIAN_POINT('',(74.067880807101,12.105975856396,0.));
#88 = CARTESIAN_POINT('',(53.543665255753,19.153946665869,0.));
#89 = CARTESIAN_POINT('',(33.601646230117,11.844367407313,0.));
#90 = CARTESIAN_POINT('',(15.497853201668,16.643234383883,0.));
#91 = CARTESIAN_POINT('',(0.,14.055065160365,0.));
#92 = PCURVE('',#40,#93);
#93 = DEFINITIONAL_REPRESENTATION('',(#94),#106);
#94 = B_SPLINE_CURVE_WITH_KNOTS('',1,(#95,#96,#97,#98,#99,#100,#101,#102
    ,#103,#104,#105),.UNSPECIFIED.,.F.,.F.,(2,1,1,1,1,1,1,1,1,1,2),(0.,
    9.648997163105E-02,0.127987472457,0.291903282828,0.377407258177,
    0.483336508424,0.503932011087,0.643047638519,0.779206771011,
    0.899272427687,1.),.UNSPECIFIED.);
#95 = CARTESIAN_POINT('',(73.719162835921,9.601454141065));
#96 = CARTESIAN_POINT('',(58.855983142964,7.228207993573));
#97 = CARTESIAN_POINT('',(54.524329863678,4.90932666771));
#98 = CARTESIAN_POINT('',(29.744399343584,11.213244697277));
#99 = CARTESIAN_POINT('',(16.415371413871,10.730845745019));
#100 = CARTESIAN_POINT('',(0.994116072886,4.795877936095));
#101 = CARTESIAN_POINT('',(-2.212956356979,4.605975856396));
#102 = CARTESIAN_POINT('',(-22.73717190832,11.653946665869));
#103 = CARTESIAN_POINT('',(-42.67919093396,4.344367407313));
#104 = CARTESIAN_POINT('',(-60.78298396241,9.143234383883));
#105 = CARTESIAN_POINT('',(-76.28083716407,6.555065160365));
#106 = ( GEOMETRIC_REPRESENTATION_CONTEXT(2) 
PARAMETRIC_REPRESENTATION_CONTEXT() REPRESENTATION_CONTEXT('2D SPACE',''
  ) );
#107 = ORIENTED_EDGE('',*,*,#108,.T.);
#108 = EDGE_CURVE('',#77,#22,#109,.T.);
#109 = SURFACE_CURVE('',#110,(#114),.PCURVE_S1.);
#110 = LINE('',#111,#112);
#111 = CARTESIAN_POINT('',(0.,14.055065160365,0.));
#112 = VECTOR('',#113,1.);
#113 = DIRECTION('',(0.,-1.,0.));
#114 = PCURVE('',#40,#115);
#115 = DEFINITIONAL_REPRESENTATION('',(#116),#120);
#116 = LINE('',#117,#118);
#117 = CARTESIAN_POINT('',(-76.28083716407,6.555065160365));
#118 = VECTOR('',#119,1.);
#119 = DIRECTION('',(0.,-1.));
#120 = ( GEOMETRIC_REPRESENTATION_CONTEXT(2) 
PARAMETRIC_REPRESENTATION_CONTEXT() REPRESENTATION_CONTEXT('2D SPACE',''
  ) );
#121 = ( GEOMETRIC_REPRESENTATION_CONTEXT(3) 
GLOBAL_UNCERTAINTY_ASSIGNED_CONTEXT((#125)) GLOBAL_UNIT_ASSIGNED_CONTEXT
((#122,#123,#124)) REPRESENTATION_CONTEXT('Context #1',
  '3D Context with UNIT and UNCERTAINTY') );
#122 = ( LENGTH_UNIT() NAMED_UNIT(*) SI_UNIT(.MILLI.,.METRE.) );
#123 = ( NAMED_UNIT(*) PLANE_ANGLE_UNIT() SI_UNIT($,.RADIAN.) );
#124 = ( NAMED_UNIT(*) SI_UNIT($,.STERADIAN.) SOLID_ANGLE_UNIT() );
#125 = UNCERTAINTY_MEASURE_WITH_UNIT(LENGTH_MEASURE(1.E-07),#122,
  'distance_accuracy_value','confusion accuracy');
#126 = PRODUCT_RELATED_PRODUCT_CATEGORY('part',$,(#7));
ENDSEC;
END-ISO-10303-21;
