ISO-10303-21;
HEADER;
FILE_DESCRIPTION(('Open CASCADE Model'),'2;1');
FILE_NAME('Open CASCADE Shape Model','2026-06-01T11:13:06',('Author'),(
    'Open CASCADE'),'Open CASCADE STEP processor 7.9','Open CASCADE 7.9'
  ,'Unknown');
FILE_SCHEMA(('AUTOMOTIVE_DESIGN { 1 0 10303 214 1 1 1 1 }'));
ENDSEC;
DATA;
#1 = APPLICATION_PROTOCOL_DEFINITION('international standard',
  'automotive_design',2000,#2);
#2 = APPLICATION_CONTEXT(
  'core data for automotive mechanical design processes');
#3 = SHAPE_DEFINITION_REPRESENTATION(#4,#10);
#4 = PRODUCT_DEFINITION_SHAPE('','',#5);
#5 = PRODUCT_DEFINITION('design','',#6,#9);
#6 = PRODUCT_DEFINITION_FORMATION('','',#7);
#7 = PRODUCT('Open CASCADE STEP translator 7.9 92',
  'Open CASCADE STEP translator 7.9 92','',(#8));
#8 = PRODUCT_CONTEXT('',#2,'mechanical');
#9 = PRODUCT_DEFINITION_CONTEXT('part definition',#2,'design');
#10 = MANIFOLD_SURFACE_SHAPE_REPRESENTATION('',(#11,#15),#121);
#11 = AXIS2_PLACEMENT_3D('',#12,#13,#14);
#12 = CARTESIAN_POINT('',(0.,0.,0.));
#13 = DIRECTION('',(0.,0.,1.));
#14 = DIRECTION('',(1.,0.,-0.));
#15 = SHELL_BASED_SURFACE_MODEL('',(#16));
#16 = OPEN_SHELL('',(#17));
#17 = ADVANCED_FACE('',(#18),#40,.T.);
#18 = FACE_BOUND('',#19,.T.);
#19 = EDGE_LOOP('',(#20,#59,#75,#107));
#20 = ORIENTED_EDGE('',*,*,#21,.T.);
#21 = EDGE_CURVE('',#22,#24,#26,.T.);
#22 = VERTEX_POINT('',#23);
#23 = CARTESIAN_POINT('',(0.,-2.367173670991,0.));
#24 = VERTEX_POINT('',#25);
#25 = CARTESIAN_POINT('',(150.,-0.64657778869,0.));
#26 = SURFACE_CURVE('',#27,(#39),.PCURVE_S1.);
#27 = B_SPLINE_CURVE_WITH_KNOTS('',1,(#28,#29,#30,#31,#32,#33,#34,#35,
    #36,#37,#38),.UNSPECIFIED.,.F.,.F.,(2,1,1,1,1,1,1,1,1,1,2),(0.,
    7.242107581528E-02,0.100002414141,0.204880573423,0.371314695025,
    0.408295036128,0.468580835012,0.49274114875,0.630394485986,
    0.977599407831,1.),.UNSPECIFIED.);
#28 = CARTESIAN_POINT('',(0.,-2.367173670991,0.));
#29 = CARTESIAN_POINT('',(11.169502557784,-4.231814153129,0.));
#30 = CARTESIAN_POINT('',(15.443239073983,-3.65311996936,0.));
#31 = CARTESIAN_POINT('',(31.83206897649,-4.236391450766,0.));
#32 = CARTESIAN_POINT('',(57.579939023052,-0.452911551279,0.));
#33 = CARTESIAN_POINT('',(61.501409339411,3.796594741032,0.));
#34 = CARTESIAN_POINT('',(67.875656213032,-3.148102780245,0.));
#35 = CARTESIAN_POINT('',(71.000072932724,-1.024454302281,0.));
#36 = CARTESIAN_POINT('',(92.52414677545,-1.032630697695,0.));
#37 = CARTESIAN_POINT('',(146.7855197037,0.744717511272,0.));
#38 = CARTESIAN_POINT('',(150.,-0.64657778869,0.));
#39 = PCURVE('',#40,#45);
#40 = PLANE('',#41);
#41 = AXIS2_PLACEMENT_3D('',#42,#43,#44);
#42 = CARTESIAN_POINT('',(73.895979493137,7.5,0.));
#43 = DIRECTION('',(0.,0.,1.));
#44 = DIRECTION('',(1.,0.,-0.));
#45 = DEFINITIONAL_REPRESENTATION('',(#46),#58);
#46 = B_SPLINE_CURVE_WITH_KNOTS('',1,(#47,#48,#49,#50,#51,#52,#53,#54,
    #55,#56,#57),.UNSPECIFIED.,.F.,.F.,(2,1,1,1,1,1,1,1,1,1,2),(0.,
    7.242107581528E-02,0.100002414141,0.204880573423,0.371314695025,
    0.408295036128,0.468580835012,0.49274114875,0.630394485986,
    0.977599407831,1.),.UNSPECIFIED.);
#47 = CARTESIAN_POINT('',(-73.89597949313,-9.867173670991));
#48 = CARTESIAN_POINT('',(-62.72647693535,-11.73181415312));
#49 = CARTESIAN_POINT('',(-58.45274041915,-11.15311996936));
#50 = CARTESIAN_POINT('',(-42.06391051664,-11.73639145076));
#51 = CARTESIAN_POINT('',(-16.31604047008,-7.952911551279));
#52 = CARTESIAN_POINT('',(-12.39457015372,-3.703405258968));
#53 = CARTESIAN_POINT('',(-6.020323280104,-10.64810278024));
#54 = CARTESIAN_POINT('',(-2.895906560412,-8.524454302281));
#55 = CARTESIAN_POINT('',(18.628167282314,-8.532630697695));
#56 = CARTESIAN_POINT('',(72.889540210569,-6.755282488728));
#57 = CARTESIAN_POINT('',(76.104020506863,-8.14657778869));
#58 = ( GEOMETRIC_REPRESENTATION_CONTEXT(2) 
PARAMETRIC_REPRESENTATION_CONTEXT() REPRESENTATION_CONTEXT('2D SPACE',''
  ) );
#59 = ORIENTED_EDGE('',*,*,#60,.T.);
#60 = EDGE_CURVE('',#24,#61,#63,.T.);
#61 = VERTEX_POINT('',#62);
#62 = CARTESIAN_POINT('',(150.,15.64657778869,0.));
#63 = SURFACE_CURVE('',#64,(#68),.PCURVE_S1.);
#64 = LINE('',#65,#66);
#65 = CARTESIAN_POINT('',(150.,-0.64657778869,0.));
#66 = VECTOR('',#67,1.);
#67 = DIRECTION('',(0.,1.,0.));
#68 = PCURVE('',#40,#69);
#69 = DEFINITIONAL_REPRESENTATION('',(#70),#74);
#70 = LINE('',#71,#72);
#71 = CARTESIAN_POINT('',(76.104020506863,-8.14657778869));
#72 = VECTOR('',#73,1.);
#73 = DIRECTION('',(0.,1.));
#74 = ( GEOMETRIC_REPRESENTATION_CONTEXT(2) 
PARAMETRIC_REPRESENTATION_CONTEXT() REPRESENTATION_CONTEXT('2D SPACE',''
  ) );
#75 = ORIENTED_EDGE('',*,*,#76,.T.);
#76 = EDGE_CURVE('',#61,#77,#79,.T.);
#77 = VERTEX_POINT('',#78);
#78 = CARTESIAN_POINT('',(0.,17.367173670991,0.));
#79 = SURFACE_CURVE('',#80,(#92),.PCURVE_S1.);
#80 = B_SPLINE_CURVE_WITH_KNOTS('',1,(#81,#82,#83,#84,#85,#86,#87,#88,
    #89,#90,#91),.UNSPECIFIED.,.F.,.F.,(2,1,1,1,1,1,1,1,1,1,2),(0.,
    2.240059216876E-02,0.369605514014,0.50725885125,0.531419164988,
    0.591704963872,0.628685304975,0.795119426577,0.899997585859,
    0.927578924185,1.),.UNSPECIFIED.);
#81 = CARTESIAN_POINT('',(150.,15.64657778869,0.));
#82 = CARTESIAN_POINT('',(146.7855197037,14.255282488728,0.));
#83 = CARTESIAN_POINT('',(92.52414677545,16.032630697695,0.));
#84 = CARTESIAN_POINT('',(71.000072932724,16.024454302281,0.));
#85 = CARTESIAN_POINT('',(67.875656213032,18.148102780245,0.));
#86 = CARTESIAN_POINT('',(61.501409339411,11.203405258968,0.));
#87 = CARTESIAN_POINT('',(57.579939023052,15.452911551279,0.));
#88 = CARTESIAN_POINT('',(31.83206897649,19.236391450766,0.));
#89 = CARTESIAN_POINT('',(15.443239073983,18.65311996936,0.));
#90 = CARTESIAN_POINT('',(11.169502557784,19.231814153129,0.));
#91 = CARTESIAN_POINT('',(0.,17.367173670991,0.));
#92 = PCURVE('',#40,#93);
#93 = DEFINITIONAL_REPRESENTATION('',(#94),#106);
#94 = B_SPLINE_CURVE_WITH_KNOTS('',1,(#95,#96,#97,#98,#99,#100,#101,#102
    ,#103,#104,#105),.UNSPECIFIED.,.F.,.F.,(2,1,1,1,1,1,1,1,1,1,2),(0.,
    2.240059216876E-02,0.369605514014,0.50725885125,0.531419164988,
    0.591704963872,0.628685304975,0.795119426577,0.899997585859,
    0.927578924185,1.),.UNSPECIFIED.);
#95 = CARTESIAN_POINT('',(76.104020506863,8.14657778869));
#96 = CARTESIAN_POINT('',(72.889540210569,6.755282488728));
#97 = CARTESIAN_POINT('',(18.628167282314,8.532630697695));
#98 = CARTESIAN_POINT('',(-2.895906560412,8.524454302281));
#99 = CARTESIAN_POINT('',(-6.020323280104,10.648102780245));
#100 = CARTESIAN_POINT('',(-12.39457015372,3.703405258968));
#101 = CARTESIAN_POINT('',(-16.31604047008,7.952911551279));
#102 = CARTESIAN_POINT('',(-42.06391051664,11.736391450766));
#103 = CARTESIAN_POINT('',(-58.45274041915,11.15311996936));
#104 = CARTESIAN_POINT('',(-62.72647693535,11.731814153129));
#105 = CARTESIAN_POINT('',(-73.89597949313,9.867173670991));
#106 = ( GEOMETRIC_REPRESENTATION_CONTEXT(2) 
PARAMETRIC_REPRESENTATION_CONTEXT() REPRESENTATION_CONTEXT('2D SPACE',''
  ) );
#107 = ORIENTED_EDGE('',*,*,#108,.T.);
#108 = EDGE_CURVE('',#77,#22,#109,.T.);
#109 = SURFACE_CURVE('',#110,(#114),.PCURVE_S1.);
#110 = LINE('',#111,#112);
#111 = CARTESIAN_POINT('',(0.,17.367173670991,0.));
#112 = VECTOR('',#113,1.);
#113 = DIRECTION('',(0.,-1.,0.));
#114 = PCURVE('',#40,#115);
#115 = DEFINITIONAL_REPRESENTATION('',(#116),#120);
#116 = LINE('',#117,#118);
#117 = CARTESIAN_POINT('',(-73.89597949313,9.867173670991));
#118 = VECTOR('',#119,1.);
#119 = DIRECTION('',(0.,-1.));
#120 = ( GEOMETRIC_REPRESENTATION_CONTEXT(2) 
PARAMETRIC_REPRESENTATION_CONTEXT() REPRESENTATION_CONTEXT('2D SPACE',''
  ) );
#121 = ( GEOMETRIC_REPRESENTATION_CONTEXT(3) 
GLOBAL_UNCERTAINTY_ASSIGNED_CONTEXT((#125)) GLOBAL_UNIT_ASSIGNED_CONTEXT
((#122,#123,#124)) REPRESENTATION_CONTEXT('Context #1',
  '3D Context with UNIT and UNCERTAINTY') );
#122 = ( LENGTH_UNIT() NAMED_UNIT(*) SI_UNIT(.MILLI.,.METRE.) );
#123 = ( NAMED_UNIT(*) PLANE_ANGLE_UNIT() SI_UNIT($,.RADIAN.) );
#124 = ( NAMED_UNIT(*) SI_UNIT($,.STERADIAN.) SOLID_ANGLE_UNIT() );
#125 = UNCERTAINTY_MEASURE_WITH_UNIT(LENGTH_MEASURE(1.E-07),#122,
  'distance_accuracy_value','confusion accuracy');
#126 = PRODUCT_RELATED_PRODUCT_CATEGORY('part',$,(#7));
ENDSEC;
END-ISO-10303-21;
