ISO-10303-21;
HEADER;
FILE_DESCRIPTION(('Open CASCADE Model'),'2;1');
FILE_NAME('Open CASCADE Shape Model','2026-06-01T11:13:06',('Author'),(
    'Open CASCADE'),'Open CASCADE STEP processor 7.9','Open CASCADE 7.9'
  ,'Unknown');
FILE_SCHEMA(('AUTOMOTIVE_DESIGN { 1 0 10303 214 1 1 1 1 }'));
ENDSEC;
DATA;
#1 = APPLICATION_PROTOCOL_DEFINITION('international standard',
  'automotive_design',2000,#2);
#2 = APPLICATION_CONTEXT(
  'core data for automotive mechanical design processes');
#3 = SHAPE_DEFINITION_REPRESENTATION(#4,#10);
#4 = PRODUCT_DEFINITION_SHAPE('','',#5);
#5 = PRODUCT_DEFINITION('design','',#6,#9);
#6 = PRODUCT_DEFINITION_FORMATION('','',#7);
#7 = PRODUCT('Open CASCADE STEP translator 7.9 52',
  'Open CASCADE STEP translator 7.9 52','',(#8));
#8 = PRODUCT_CONTEXT('',#2,'mechanical');
#9 = PRODUCT_DEFINITION_CONTEXT('part definition',#2,'design');
#10 = MANIFOLD_SURFACE_SHAPE_REPRESENTATION('',(#11,#15),#121);
#11 = AXIS2_PLACEMENT_3D('',#12,#13,#14);
#12 = CARTESIAN_POINT('',(0.,0.,0.));
#13 = DIRECTION('',(0.,0.,1.));
#14 = DIRECTION('',(1.,0.,-0.));
#15 = SHELL_BASED_SURFACE_MODEL('',(#16));
#16 = OPEN_SHELL('',(#17));
#17 = ADVANCED_FACE('',(#18),#40,.T.);
#18 = FACE_BOUND('',#19,.T.);
#19 = EDGE_LOOP('',(#20,#59,#75,#107));
#20 = ORIENTED_EDGE('',*,*,#21,.T.);
#21 = EDGE_CURVE('',#22,#24,#26,.T.);
#22 = VERTEX_POINT('',#23);
#23 = CARTESIAN_POINT('',(0.,-2.677597521127,0.));
#24 = VERTEX_POINT('',#25);
#25 = CARTESIAN_POINT('',(150.,-1.077016733729,0.));
#26 = SURFACE_CURVE('',#27,(#39),.PCURVE_S1.);
#27 = B_SPLINE_CURVE_WITH_KNOTS('',1,(#28,#29,#30,#31,#32,#33,#34,#35,
    #36,#37,#38),.UNSPECIFIED.,.F.,.F.,(2,1,1,1,1,1,1,1,1,1,2),(0.,
    8.974039697715E-02,0.186958068638,0.343069835604,0.397688018312,
    0.441140615303,0.718182086336,0.823909130354,0.913259243223,
    0.938761814732,1.),.UNSPECIFIED.);
#28 = CARTESIAN_POINT('',(0.,-2.677597521127,0.));
#29 = CARTESIAN_POINT('',(14.159360448331,-3.052564796109,0.));
#30 = CARTESIAN_POINT('',(28.147505724549,3.255038368956,0.));
#31 = CARTESIAN_POINT('',(52.113577529578,-2.469023110647,0.));
#32 = CARTESIAN_POINT('',(58.372962498564,3.458662494215,0.));
#33 = CARTESIAN_POINT('',(64.771458386275,0.989436688591,0.));
#34 = CARTESIAN_POINT('',(108.15440576541,-4.487485635107,0.));
#35 = CARTESIAN_POINT('',(123.18281729802,2.766682590922,0.));
#36 = CARTESIAN_POINT('',(137.28125512733,3.114327756801,0.));
#37 = CARTESIAN_POINT('',(140.49815327161,0.694797007079,0.));
#38 = CARTESIAN_POINT('',(150.,-1.077016733729,0.));
#39 = PCURVE('',#40,#45);
#40 = PLANE('',#41);
#41 = AXIS2_PLACEMENT_3D('',#42,#43,#44);
#42 = CARTESIAN_POINT('',(74.235870429407,7.5,0.));
#43 = DIRECTION('',(0.,0.,1.));
#44 = DIRECTION('',(1.,0.,-0.));
#45 = DEFINITIONAL_REPRESENTATION('',(#46),#58);
#46 = B_SPLINE_CURVE_WITH_KNOTS('',1,(#47,#48,#49,#50,#51,#52,#53,#54,
    #55,#56,#57),.UNSPECIFIED.,.F.,.F.,(2,1,1,1,1,1,1,1,1,1,2),(0.,
    8.974039697715E-02,0.186958068638,0.343069835604,0.397688018312,
    0.441140615303,0.718182086336,0.823909130354,0.913259243223,
    0.938761814732,1.),.UNSPECIFIED.);
#47 = CARTESIAN_POINT('',(-74.2358704294,-10.17759752112));
#48 = CARTESIAN_POINT('',(-60.07650998107,-10.5525647961));
#49 = CARTESIAN_POINT('',(-46.08836470485,-4.244961631044));
#50 = CARTESIAN_POINT('',(-22.12229289982,-9.969023110647));
#51 = CARTESIAN_POINT('',(-15.86290793084,-4.041337505785));
#52 = CARTESIAN_POINT('',(-9.464412043132,-6.510563311409));
#53 = CARTESIAN_POINT('',(33.918535336009,-11.9874856351));
#54 = CARTESIAN_POINT('',(48.946946868615,-4.733317409078));
#55 = CARTESIAN_POINT('',(63.045384697928,-4.385672243199));
#56 = CARTESIAN_POINT('',(66.262282842203,-6.805202992921));
#57 = CARTESIAN_POINT('',(75.764129570593,-8.577016733729));
#58 = ( GEOMETRIC_REPRESENTATION_CONTEXT(2) 
PARAMETRIC_REPRESENTATION_CONTEXT() REPRESENTATION_CONTEXT('2D SPACE',''
  ) );
#59 = ORIENTED_EDGE('',*,*,#60,.T.);
#60 = EDGE_CURVE('',#24,#61,#63,.T.);
#61 = VERTEX_POINT('',#62);
#62 = CARTESIAN_POINT('',(150.,16.077016733729,0.));
#63 = SURFACE_CURVE('',#64,(#68),.PCURVE_S1.);
#64 = LINE('',#65,#66);
#65 = CARTESIAN_POINT('',(150.,-1.077016733729,0.));
#66 = VECTOR('',#67,1.);
#67 = DIRECTION('',(0.,1.,0.));
#68 = PCURVE('',#40,#69);
#69 = DEFINITIONAL_REPRESENTATION('',(#70),#74);
#70 = LINE('',#71,#72);
#71 = CARTESIAN_POINT('',(75.764129570593,-8.577016733729));
#72 = VECTOR('',#73,1.);
#73 = DIRECTION('',(0.,1.));
#74 = ( GEOMETRIC_REPRESENTATION_CONTEXT(2) 
PARAMETRIC_REPRESENTATION_CONTEXT() REPRESENTATION_CONTEXT('2D SPACE',''
  ) );
#75 = ORIENTED_EDGE('',*,*,#76,.T.);
#76 = EDGE_CURVE('',#61,#77,#79,.T.);
#77 = VERTEX_POINT('',#78);
#78 = CARTESIAN_POINT('',(0.,17.677597521127,0.));
#79 = SURFACE_CURVE('',#80,(#92),.PCURVE_S1.);
#80 = B_SPLINE_CURVE_WITH_KNOTS('',1,(#81,#82,#83,#84,#85,#86,#87,#88,
    #89,#90,#91),.UNSPECIFIED.,.F.,.F.,(2,1,1,1,1,1,1,1,1,1,2),(0.,
    6.123818526807E-02,8.674075677742E-02,0.176090869646,0.281817913664,
    0.558859384697,0.602311981688,0.656930164396,0.813041931362,
    0.910259603023,1.),.UNSPECIFIED.);
#81 = CARTESIAN_POINT('',(150.,16.077016733729,0.));
#82 = CARTESIAN_POINT('',(140.49815327161,14.305202992921,0.));
#83 = CARTESIAN_POINT('',(137.28125512733,11.885672243199,0.));
#84 = CARTESIAN_POINT('',(123.18281729802,12.233317409078,0.));
#85 = CARTESIAN_POINT('',(108.15440576541,19.487485635107,0.));
#86 = CARTESIAN_POINT('',(64.771458386275,14.010563311409,0.));
#87 = CARTESIAN_POINT('',(58.372962498564,11.541337505785,0.));
#88 = CARTESIAN_POINT('',(52.113577529578,17.469023110647,0.));
#89 = CARTESIAN_POINT('',(28.147505724549,11.744961631044,0.));
#90 = CARTESIAN_POINT('',(14.159360448331,18.052564796109,0.));
#91 = CARTESIAN_POINT('',(0.,17.677597521127,0.));
#92 = PCURVE('',#40,#93);
#93 = DEFINITIONAL_REPRESENTATION('',(#94),#106);
#94 = B_SPLINE_CURVE_WITH_KNOTS('',1,(#95,#96,#97,#98,#99,#100,#101,#102
    ,#103,#104,#105),.UNSPECIFIED.,.F.,.F.,(2,1,1,1,1,1,1,1,1,1,2),(0.,
    6.123818526807E-02,8.674075677742E-02,0.176090869646,0.281817913664,
    0.558859384697,0.602311981688,0.656930164396,0.813041931362,
    0.910259603023,1.),.UNSPECIFIED.);
#95 = CARTESIAN_POINT('',(75.764129570593,8.577016733729));
#96 = CARTESIAN_POINT('',(66.262282842203,6.805202992921));
#97 = CARTESIAN_POINT('',(63.045384697928,4.385672243199));
#98 = CARTESIAN_POINT('',(48.946946868615,4.733317409078));
#99 = CARTESIAN_POINT('',(33.918535336009,11.987485635107));
#100 = CARTESIAN_POINT('',(-9.464412043132,6.510563311409));
#101 = CARTESIAN_POINT('',(-15.86290793084,4.041337505785));
#102 = CARTESIAN_POINT('',(-22.12229289982,9.969023110647));
#103 = CARTESIAN_POINT('',(-46.08836470485,4.244961631044));
#104 = CARTESIAN_POINT('',(-60.07650998107,10.552564796109));
#105 = CARTESIAN_POINT('',(-74.2358704294,10.177597521127));
#106 = ( GEOMETRIC_REPRESENTATION_CONTEXT(2) 
PARAMETRIC_REPRESENTATION_CONTEXT() REPRESENTATION_CONTEXT('2D SPACE',''
  ) );
#107 = ORIENTED_EDGE('',*,*,#108,.T.);
#108 = EDGE_CURVE('',#77,#22,#109,.T.);
#109 = SURFACE_CURVE('',#110,(#114),.PCURVE_S1.);
#110 = LINE('',#111,#112);
#111 = CARTESIAN_POINT('',(0.,17.677597521127,0.));
#112 = VECTOR('',#113,1.);
#113 = DIRECTION('',(0.,-1.,0.));
#114 = PCURVE('',#40,#115);
#115 = DEFINITIONAL_REPRESENTATION('',(#116),#120);
#116 = LINE('',#117,#118);
#117 = CARTESIAN_POINT('',(-74.2358704294,10.177597521127));
#118 = VECTOR('',#119,1.);
#119 = DIRECTION('',(0.,-1.));
#120 = ( GEOMETRIC_REPRESENTATION_CONTEXT(2) 
PARAMETRIC_REPRESENTATION_CONTEXT() REPRESENTATION_CONTEXT('2D SPACE',''
  ) );
#121 = ( GEOMETRIC_REPRESENTATION_CONTEXT(3) 
GLOBAL_UNCERTAINTY_ASSIGNED_CONTEXT((#125)) GLOBAL_UNIT_ASSIGNED_CONTEXT
((#122,#123,#124)) REPRESENTATION_CONTEXT('Context #1',
  '3D Context with UNIT and UNCERTAINTY') );
#122 = ( LENGTH_UNIT() NAMED_UNIT(*) SI_UNIT(.MILLI.,.METRE.) );
#123 = ( NAMED_UNIT(*) PLANE_ANGLE_UNIT() SI_UNIT($,.RADIAN.) );
#124 = ( NAMED_UNIT(*) SI_UNIT($,.STERADIAN.) SOLID_ANGLE_UNIT() );
#125 = UNCERTAINTY_MEASURE_WITH_UNIT(LENGTH_MEASURE(1.E-07),#122,
  'distance_accuracy_value','confusion accuracy');
#126 = PRODUCT_RELATED_PRODUCT_CATEGORY('part',$,(#7));
ENDSEC;
END-ISO-10303-21;
