ISO-10303-21;
HEADER;
FILE_DESCRIPTION(('Open CASCADE Model'),'2;1');
FILE_NAME('Open CASCADE Shape Model','2026-06-01T11:13:06',('Author'),(
    'Open CASCADE'),'Open CASCADE STEP processor 7.9','Open CASCADE 7.9'
  ,'Unknown');
FILE_SCHEMA(('AUTOMOTIVE_DESIGN { 1 0 10303 214 1 1 1 1 }'));
ENDSEC;
DATA;
#1 = APPLICATION_PROTOCOL_DEFINITION('international standard',
  'automotive_design',2000,#2);
#2 = APPLICATION_CONTEXT(
  'core data for automotive mechanical design processes');
#3 = SHAPE_DEFINITION_REPRESENTATION(#4,#10);
#4 = PRODUCT_DEFINITION_SHAPE('','',#5);
#5 = PRODUCT_DEFINITION('design','',#6,#9);
#6 = PRODUCT_DEFINITION_FORMATION('','',#7);
#7 = PRODUCT('Open CASCADE STEP translator 7.9 36',
  'Open CASCADE STEP translator 7.9 36','',(#8));
#8 = PRODUCT_CONTEXT('',#2,'mechanical');
#9 = PRODUCT_DEFINITION_CONTEXT('part definition',#2,'design');
#10 = MANIFOLD_SURFACE_SHAPE_REPRESENTATION('',(#11,#15),#121);
#11 = AXIS2_PLACEMENT_3D('',#12,#13,#14);
#12 = CARTESIAN_POINT('',(0.,0.,0.));
#13 = DIRECTION('',(0.,0.,1.));
#14 = DIRECTION('',(1.,0.,-0.));
#15 = SHELL_BASED_SURFACE_MODEL('',(#16));
#16 = OPEN_SHELL('',(#17));
#17 = ADVANCED_FACE('',(#18),#40,.T.);
#18 = FACE_BOUND('',#19,.T.);
#19 = EDGE_LOOP('',(#20,#59,#75,#107));
#20 = ORIENTED_EDGE('',*,*,#21,.T.);
#21 = EDGE_CURVE('',#22,#24,#26,.T.);
#22 = VERTEX_POINT('',#23);
#23 = CARTESIAN_POINT('',(0.,4.073633819951,0.));
#24 = VERTEX_POINT('',#25);
#25 = CARTESIAN_POINT('',(150.,-0.811758444895,0.));
#26 = SURFACE_CURVE('',#27,(#39),.PCURVE_S1.);
#27 = B_SPLINE_CURVE_WITH_KNOTS('',1,(#28,#29,#30,#31,#32,#33,#34,#35,
    #36,#37,#38),.UNSPECIFIED.,.F.,.F.,(2,1,1,1,1,1,1,1,1,1,2),(0.,
    6.525214217967E-02,0.258243807953,0.33889604131,0.411741356212,
    0.640161748027,0.688549956567,0.725370142662,0.898601156765,
    0.970466017505,1.),.UNSPECIFIED.);
#28 = CARTESIAN_POINT('',(0.,4.073633819951,0.));
#29 = CARTESIAN_POINT('',(10.206170816456,3.256151655253,0.));
#30 = CARTESIAN_POINT('',(39.662686021383,-3.769408741776,0.));
#31 = CARTESIAN_POINT('',(49.313870402596,4.41666196361,0.));
#32 = CARTESIAN_POINT('',(60.630012113224,2.805102226698,0.));
#33 = CARTESIAN_POINT('',(96.444082000295,4.218448383885,0.));
#34 = CARTESIAN_POINT('',(104.00312564478,3.50433479194,0.));
#35 = CARTESIAN_POINT('',(107.51759315168,-1.081343579655,0.));
#36 = CARTESIAN_POINT('',(134.48534251315,2.325249821348,0.));
#37 = CARTESIAN_POINT('',(145.36960726867,-0.622908453876,0.));
#38 = CARTESIAN_POINT('',(150.,-0.811758444895,0.));
#39 = PCURVE('',#40,#45);
#40 = PLANE('',#41);
#41 = AXIS2_PLACEMENT_3D('',#42,#43,#44);
#42 = CARTESIAN_POINT('',(76.98617912181,7.5,0.));
#43 = DIRECTION('',(0.,0.,1.));
#44 = DIRECTION('',(1.,0.,-0.));
#45 = DEFINITIONAL_REPRESENTATION('',(#46),#58);
#46 = B_SPLINE_CURVE_WITH_KNOTS('',1,(#47,#48,#49,#50,#51,#52,#53,#54,
    #55,#56,#57),.UNSPECIFIED.,.F.,.F.,(2,1,1,1,1,1,1,1,1,1,2),(0.,
    6.525214217967E-02,0.258243807953,0.33889604131,0.411741356212,
    0.640161748027,0.688549956567,0.725370142662,0.898601156765,
    0.970466017505,1.),.UNSPECIFIED.);
#47 = CARTESIAN_POINT('',(-76.98617912181,-3.426366180049));
#48 = CARTESIAN_POINT('',(-66.78000830535,-4.243848344747));
#49 = CARTESIAN_POINT('',(-37.32349310042,-11.26940874177));
#50 = CARTESIAN_POINT('',(-27.67230871921,-3.08333803639));
#51 = CARTESIAN_POINT('',(-16.35616700858,-4.694897773302));
#52 = CARTESIAN_POINT('',(19.457902878485,-3.281551616115));
#53 = CARTESIAN_POINT('',(27.016946522974,-3.99566520806));
#54 = CARTESIAN_POINT('',(30.531414029879,-8.581343579655));
#55 = CARTESIAN_POINT('',(57.499163391342,-5.174750178652));
#56 = CARTESIAN_POINT('',(68.383428146864,-8.122908453876));
#57 = CARTESIAN_POINT('',(73.01382087819,-8.311758444895));
#58 = ( GEOMETRIC_REPRESENTATION_CONTEXT(2) 
PARAMETRIC_REPRESENTATION_CONTEXT() REPRESENTATION_CONTEXT('2D SPACE',''
  ) );
#59 = ORIENTED_EDGE('',*,*,#60,.T.);
#60 = EDGE_CURVE('',#24,#61,#63,.T.);
#61 = VERTEX_POINT('',#62);
#62 = CARTESIAN_POINT('',(150.,15.811758444895,0.));
#63 = SURFACE_CURVE('',#64,(#68),.PCURVE_S1.);
#64 = LINE('',#65,#66);
#65 = CARTESIAN_POINT('',(150.,-0.811758444895,0.));
#66 = VECTOR('',#67,1.);
#67 = DIRECTION('',(0.,1.,0.));
#68 = PCURVE('',#40,#69);
#69 = DEFINITIONAL_REPRESENTATION('',(#70),#74);
#70 = LINE('',#71,#72);
#71 = CARTESIAN_POINT('',(73.01382087819,-8.311758444895));
#72 = VECTOR('',#73,1.);
#73 = DIRECTION('',(0.,1.));
#74 = ( GEOMETRIC_REPRESENTATION_CONTEXT(2) 
PARAMETRIC_REPRESENTATION_CONTEXT() REPRESENTATION_CONTEXT('2D SPACE',''
  ) );
#75 = ORIENTED_EDGE('',*,*,#76,.T.);
#76 = EDGE_CURVE('',#61,#77,#79,.T.);
#77 = VERTEX_POINT('',#78);
#78 = CARTESIAN_POINT('',(0.,10.926366180049,0.));
#79 = SURFACE_CURVE('',#80,(#92),.PCURVE_S1.);
#80 = B_SPLINE_CURVE_WITH_KNOTS('',1,(#81,#82,#83,#84,#85,#86,#87,#88,
    #89,#90,#91),.UNSPECIFIED.,.F.,.F.,(2,1,1,1,1,1,1,1,1,1,2),(0.,
    2.953398249454E-02,0.101398843235,0.274629857338,0.311450043433,
    0.359838251973,0.588258643788,0.66110395869,0.741756192047,
    0.93474785782,1.),.UNSPECIFIED.);
#81 = CARTESIAN_POINT('',(150.,15.811758444895,0.));
#82 = CARTESIAN_POINT('',(145.36960726867,15.622908453876,0.));
#83 = CARTESIAN_POINT('',(134.48534251315,12.674750178652,0.));
#84 = CARTESIAN_POINT('',(107.51759315168,16.081343579655,0.));
#85 = CARTESIAN_POINT('',(104.00312564478,11.49566520806,0.));
#86 = CARTESIAN_POINT('',(96.444082000295,10.781551616115,0.));
#87 = CARTESIAN_POINT('',(60.630012113224,12.194897773302,0.));
#88 = CARTESIAN_POINT('',(49.313870402596,10.58333803639,0.));
#89 = CARTESIAN_POINT('',(39.662686021383,18.769408741776,0.));
#90 = CARTESIAN_POINT('',(10.206170816456,11.743848344747,0.));
#91 = CARTESIAN_POINT('',(0.,10.926366180049,0.));
#92 = PCURVE('',#40,#93);
#93 = DEFINITIONAL_REPRESENTATION('',(#94),#106);
#94 = B_SPLINE_CURVE_WITH_KNOTS('',1,(#95,#96,#97,#98,#99,#100,#101,#102
    ,#103,#104,#105),.UNSPECIFIED.,.F.,.F.,(2,1,1,1,1,1,1,1,1,1,2),(0.,
    2.953398249454E-02,0.101398843235,0.274629857338,0.311450043433,
    0.359838251973,0.588258643788,0.66110395869,0.741756192047,
    0.93474785782,1.),.UNSPECIFIED.);
#95 = CARTESIAN_POINT('',(73.01382087819,8.311758444895));
#96 = CARTESIAN_POINT('',(68.383428146864,8.122908453876));
#97 = CARTESIAN_POINT('',(57.499163391342,5.174750178652));
#98 = CARTESIAN_POINT('',(30.531414029879,8.581343579655));
#99 = CARTESIAN_POINT('',(27.016946522974,3.99566520806));
#100 = CARTESIAN_POINT('',(19.457902878485,3.281551616115));
#101 = CARTESIAN_POINT('',(-16.35616700858,4.694897773302));
#102 = CARTESIAN_POINT('',(-27.67230871921,3.08333803639));
#103 = CARTESIAN_POINT('',(-37.32349310042,11.269408741776));
#104 = CARTESIAN_POINT('',(-66.78000830535,4.243848344747));
#105 = CARTESIAN_POINT('',(-76.98617912181,3.426366180049));
#106 = ( GEOMETRIC_REPRESENTATION_CONTEXT(2) 
PARAMETRIC_REPRESENTATION_CONTEXT() REPRESENTATION_CONTEXT('2D SPACE',''
  ) );
#107 = ORIENTED_EDGE('',*,*,#108,.T.);
#108 = EDGE_CURVE('',#77,#22,#109,.T.);
#109 = SURFACE_CURVE('',#110,(#114),.PCURVE_S1.);
#110 = LINE('',#111,#112);
#111 = CARTESIAN_POINT('',(0.,10.926366180049,0.));
#112 = VECTOR('',#113,1.);
#113 = DIRECTION('',(0.,-1.,0.));
#114 = PCURVE('',#40,#115);
#115 = DEFINITIONAL_REPRESENTATION('',(#116),#120);
#116 = LINE('',#117,#118);
#117 = CARTESIAN_POINT('',(-76.98617912181,3.426366180049));
#118 = VECTOR('',#119,1.);
#119 = DIRECTION('',(0.,-1.));
#120 = ( GEOMETRIC_REPRESENTATION_CONTEXT(2) 
PARAMETRIC_REPRESENTATION_CONTEXT() REPRESENTATION_CONTEXT('2D SPACE',''
  ) );
#121 = ( GEOMETRIC_REPRESENTATION_CONTEXT(3) 
GLOBAL_UNCERTAINTY_ASSIGNED_CONTEXT((#125)) GLOBAL_UNIT_ASSIGNED_CONTEXT
((#122,#123,#124)) REPRESENTATION_CONTEXT('Context #1',
  '3D Context with UNIT and UNCERTAINTY') );
#122 = ( LENGTH_UNIT() NAMED_UNIT(*) SI_UNIT(.MILLI.,.METRE.) );
#123 = ( NAMED_UNIT(*) PLANE_ANGLE_UNIT() SI_UNIT($,.RADIAN.) );
#124 = ( NAMED_UNIT(*) SI_UNIT($,.STERADIAN.) SOLID_ANGLE_UNIT() );
#125 = UNCERTAINTY_MEASURE_WITH_UNIT(LENGTH_MEASURE(1.E-07),#122,
  'distance_accuracy_value','confusion accuracy');
#126 = PRODUCT_RELATED_PRODUCT_CATEGORY('part',$,(#7));
ENDSEC;
END-ISO-10303-21;
