ISO-10303-21;
HEADER;
FILE_DESCRIPTION(('Open CASCADE Model'),'2;1');
FILE_NAME('Open CASCADE Shape Model','2026-06-01T11:13:05',('Author'),(
    'Open CASCADE'),'Open CASCADE STEP processor 7.9','Open CASCADE 7.9'
  ,'Unknown');
FILE_SCHEMA(('AUTOMOTIVE_DESIGN { 1 0 10303 214 1 1 1 1 }'));
ENDSEC;
DATA;
#1 = APPLICATION_PROTOCOL_DEFINITION('international standard',
  'automotive_design',2000,#2);
#2 = APPLICATION_CONTEXT(
  'core data for automotive mechanical design processes');
#3 = SHAPE_DEFINITION_REPRESENTATION(#4,#10);
#4 = PRODUCT_DEFINITION_SHAPE('','',#5);
#5 = PRODUCT_DEFINITION('design','',#6,#9);
#6 = PRODUCT_DEFINITION_FORMATION('','',#7);
#7 = PRODUCT('Open CASCADE STEP translator 7.9 13',
  'Open CASCADE STEP translator 7.9 13','',(#8));
#8 = PRODUCT_CONTEXT('',#2,'mechanical');
#9 = PRODUCT_DEFINITION_CONTEXT('part definition',#2,'design');
#10 = MANIFOLD_SURFACE_SHAPE_REPRESENTATION('',(#11,#15),#121);
#11 = AXIS2_PLACEMENT_3D('',#12,#13,#14);
#12 = CARTESIAN_POINT('',(0.,0.,0.));
#13 = DIRECTION('',(0.,0.,1.));
#14 = DIRECTION('',(1.,0.,-0.));
#15 = SHELL_BASED_SURFACE_MODEL('',(#16));
#16 = OPEN_SHELL('',(#17));
#17 = ADVANCED_FACE('',(#18),#40,.T.);
#18 = FACE_BOUND('',#19,.T.);
#19 = EDGE_LOOP('',(#20,#59,#75,#107));
#20 = ORIENTED_EDGE('',*,*,#21,.T.);
#21 = EDGE_CURVE('',#22,#24,#26,.T.);
#22 = VERTEX_POINT('',#23);
#23 = CARTESIAN_POINT('',(0.,-3.788734252387,0.));
#24 = VERTEX_POINT('',#25);
#25 = CARTESIAN_POINT('',(150.,-1.626430741196,0.));
#26 = SURFACE_CURVE('',#27,(#39),.PCURVE_S1.);
#27 = B_SPLINE_CURVE_WITH_KNOTS('',1,(#28,#29,#30,#31,#32,#33,#34,#35,
    #36,#37,#38),.UNSPECIFIED.,.F.,.F.,(2,1,1,1,1,1,1,1,1,1,2),(0.,
    0.186078370553,0.286570107895,0.57490345443,0.629305947397,
    0.65882438629,0.735195028066,0.766815690438,0.86071586876,
    0.962103566236,1.),.UNSPECIFIED.);
#28 = CARTESIAN_POINT('',(0.,-3.788734252387,0.));
#29 = CARTESIAN_POINT('',(27.449804922173,3.010214495382,0.));
#30 = CARTESIAN_POINT('',(42.68432687328,1.937519258959,0.));
#31 = CARTESIAN_POINT('',(86.487922907623,3.117479443271,0.));
#32 = CARTESIAN_POINT('',(94.74862406845,3.460589427012,0.));
#33 = CARTESIAN_POINT('',(99.153606033873,4.309667852972,0.));
#34 = CARTESIAN_POINT('',(110.75594761472,4.001441317522,0.));
#35 = CARTESIAN_POINT('',(115.44012840553,2.928226761577,0.));
#36 = CARTESIAN_POINT('',(129.6688251239,4.019562606355,0.));
#37 = CARTESIAN_POINT('',(144.29738303373,-0.820294344999,0.));
#38 = CARTESIAN_POINT('',(150.,-1.626430741196,0.));
#39 = PCURVE('',#40,#45);
#40 = PLANE('',#41);
#41 = AXIS2_PLACEMENT_3D('',#42,#43,#44);
#42 = CARTESIAN_POINT('',(74.10889772357,7.5,0.));
#43 = DIRECTION('',(0.,0.,1.));
#44 = DIRECTION('',(1.,0.,-0.));
#45 = DEFINITIONAL_REPRESENTATION('',(#46),#58);
#46 = B_SPLINE_CURVE_WITH_KNOTS('',1,(#47,#48,#49,#50,#51,#52,#53,#54,
    #55,#56,#57),.UNSPECIFIED.,.F.,.F.,(2,1,1,1,1,1,1,1,1,1,2),(0.,
    0.186078370553,0.286570107895,0.57490345443,0.629305947397,
    0.65882438629,0.735195028066,0.766815690438,0.86071586876,
    0.962103566236,1.),.UNSPECIFIED.);
#47 = CARTESIAN_POINT('',(-74.10889772357,-11.28873425238));
#48 = CARTESIAN_POINT('',(-46.65909280139,-4.489785504618));
#49 = CARTESIAN_POINT('',(-31.42457085029,-5.562480741041));
#50 = CARTESIAN_POINT('',(12.379025184053,-4.382520556729));
#51 = CARTESIAN_POINT('',(20.63972634488,-4.039410572988));
#52 = CARTESIAN_POINT('',(25.044708310303,-3.190332147028));
#53 = CARTESIAN_POINT('',(36.647049891158,-3.498558682478));
#54 = CARTESIAN_POINT('',(41.331230681961,-4.571773238423));
#55 = CARTESIAN_POINT('',(55.55992740033,-3.480437393645));
#56 = CARTESIAN_POINT('',(70.188485310169,-8.320294344999));
#57 = CARTESIAN_POINT('',(75.89110227643,-9.126430741196));
#58 = ( GEOMETRIC_REPRESENTATION_CONTEXT(2) 
PARAMETRIC_REPRESENTATION_CONTEXT() REPRESENTATION_CONTEXT('2D SPACE',''
  ) );
#59 = ORIENTED_EDGE('',*,*,#60,.T.);
#60 = EDGE_CURVE('',#24,#61,#63,.T.);
#61 = VERTEX_POINT('',#62);
#62 = CARTESIAN_POINT('',(150.,16.626430741196,0.));
#63 = SURFACE_CURVE('',#64,(#68),.PCURVE_S1.);
#64 = LINE('',#65,#66);
#65 = CARTESIAN_POINT('',(150.,-1.626430741196,0.));
#66 = VECTOR('',#67,1.);
#67 = DIRECTION('',(0.,1.,0.));
#68 = PCURVE('',#40,#69);
#69 = DEFINITIONAL_REPRESENTATION('',(#70),#74);
#70 = LINE('',#71,#72);
#71 = CARTESIAN_POINT('',(75.89110227643,-9.126430741196));
#72 = VECTOR('',#73,1.);
#73 = DIRECTION('',(0.,1.));
#74 = ( GEOMETRIC_REPRESENTATION_CONTEXT(2) 
PARAMETRIC_REPRESENTATION_CONTEXT() REPRESENTATION_CONTEXT('2D SPACE',''
  ) );
#75 = ORIENTED_EDGE('',*,*,#76,.T.);
#76 = EDGE_CURVE('',#61,#77,#79,.T.);
#77 = VERTEX_POINT('',#78);
#78 = CARTESIAN_POINT('',(0.,18.788734252387,0.));
#79 = SURFACE_CURVE('',#80,(#92),.PCURVE_S1.);
#80 = B_SPLINE_CURVE_WITH_KNOTS('',1,(#81,#82,#83,#84,#85,#86,#87,#88,
    #89,#90,#91),.UNSPECIFIED.,.F.,.F.,(2,1,1,1,1,1,1,1,1,1,2),(0.,
    3.789643376414E-02,0.13928413124,0.233184309562,0.264804971934,
    0.34117561371,0.370694052603,0.42509654557,0.713429892105,
    0.813921629447,1.),.UNSPECIFIED.);
#81 = CARTESIAN_POINT('',(150.,16.626430741196,0.));
#82 = CARTESIAN_POINT('',(144.29738303373,15.820294344999,0.));
#83 = CARTESIAN_POINT('',(129.6688251239,10.980437393645,0.));
#84 = CARTESIAN_POINT('',(115.44012840553,12.071773238423,0.));
#85 = CARTESIAN_POINT('',(110.75594761472,10.998558682478,0.));
#86 = CARTESIAN_POINT('',(99.153606033873,10.690332147028,0.));
#87 = CARTESIAN_POINT('',(94.74862406845,11.539410572988,0.));
#88 = CARTESIAN_POINT('',(86.487922907623,11.882520556729,0.));
#89 = CARTESIAN_POINT('',(42.68432687328,13.062480741041,0.));
#90 = CARTESIAN_POINT('',(27.449804922173,11.989785504618,0.));
#91 = CARTESIAN_POINT('',(0.,18.788734252387,0.));
#92 = PCURVE('',#40,#93);
#93 = DEFINITIONAL_REPRESENTATION('',(#94),#106);
#94 = B_SPLINE_CURVE_WITH_KNOTS('',1,(#95,#96,#97,#98,#99,#100,#101,#102
    ,#103,#104,#105),.UNSPECIFIED.,.F.,.F.,(2,1,1,1,1,1,1,1,1,1,2),(0.,
    3.789643376414E-02,0.13928413124,0.233184309562,0.264804971934,
    0.34117561371,0.370694052603,0.42509654557,0.713429892105,
    0.813921629447,1.),.UNSPECIFIED.);
#95 = CARTESIAN_POINT('',(75.89110227643,9.126430741196));
#96 = CARTESIAN_POINT('',(70.188485310169,8.320294344999));
#97 = CARTESIAN_POINT('',(55.55992740033,3.480437393645));
#98 = CARTESIAN_POINT('',(41.331230681961,4.571773238423));
#99 = CARTESIAN_POINT('',(36.647049891158,3.498558682478));
#100 = CARTESIAN_POINT('',(25.044708310303,3.190332147028));
#101 = CARTESIAN_POINT('',(20.63972634488,4.039410572988));
#102 = CARTESIAN_POINT('',(12.379025184053,4.382520556729));
#103 = CARTESIAN_POINT('',(-31.42457085029,5.562480741041));
#104 = CARTESIAN_POINT('',(-46.65909280139,4.489785504618));
#105 = CARTESIAN_POINT('',(-74.10889772357,11.288734252387));
#106 = ( GEOMETRIC_REPRESENTATION_CONTEXT(2) 
PARAMETRIC_REPRESENTATION_CONTEXT() REPRESENTATION_CONTEXT('2D SPACE',''
  ) );
#107 = ORIENTED_EDGE('',*,*,#108,.T.);
#108 = EDGE_CURVE('',#77,#22,#109,.T.);
#109 = SURFACE_CURVE('',#110,(#114),.PCURVE_S1.);
#110 = LINE('',#111,#112);
#111 = CARTESIAN_POINT('',(0.,18.788734252387,0.));
#112 = VECTOR('',#113,1.);
#113 = DIRECTION('',(0.,-1.,0.));
#114 = PCURVE('',#40,#115);
#115 = DEFINITIONAL_REPRESENTATION('',(#116),#120);
#116 = LINE('',#117,#118);
#117 = CARTESIAN_POINT('',(-74.10889772357,11.288734252387));
#118 = VECTOR('',#119,1.);
#119 = DIRECTION('',(0.,-1.));
#120 = ( GEOMETRIC_REPRESENTATION_CONTEXT(2) 
PARAMETRIC_REPRESENTATION_CONTEXT() REPRESENTATION_CONTEXT('2D SPACE',''
  ) );
#121 = ( GEOMETRIC_REPRESENTATION_CONTEXT(3) 
GLOBAL_UNCERTAINTY_ASSIGNED_CONTEXT((#125)) GLOBAL_UNIT_ASSIGNED_CONTEXT
((#122,#123,#124)) REPRESENTATION_CONTEXT('Context #1',
  '3D Context with UNIT and UNCERTAINTY') );
#122 = ( LENGTH_UNIT() NAMED_UNIT(*) SI_UNIT(.MILLI.,.METRE.) );
#123 = ( NAMED_UNIT(*) PLANE_ANGLE_UNIT() SI_UNIT($,.RADIAN.) );
#124 = ( NAMED_UNIT(*) SI_UNIT($,.STERADIAN.) SOLID_ANGLE_UNIT() );
#125 = UNCERTAINTY_MEASURE_WITH_UNIT(LENGTH_MEASURE(1.E-07),#122,
  'distance_accuracy_value','confusion accuracy');
#126 = PRODUCT_RELATED_PRODUCT_CATEGORY('part',$,(#7));
ENDSEC;
END-ISO-10303-21;
