ISO-10303-21;
HEADER;
FILE_DESCRIPTION(('Open CASCADE Model'),'2;1');
FILE_NAME('Open CASCADE Shape Model','2026-06-01T11:13:06',('Author'),(
    'Open CASCADE'),'Open CASCADE STEP processor 7.9','Open CASCADE 7.9'
  ,'Unknown');
FILE_SCHEMA(('AUTOMOTIVE_DESIGN { 1 0 10303 214 1 1 1 1 }'));
ENDSEC;
DATA;
#1 = APPLICATION_PROTOCOL_DEFINITION('international standard',
  'automotive_design',2000,#2);
#2 = APPLICATION_CONTEXT(
  'core data for automotive mechanical design processes');
#3 = SHAPE_DEFINITION_REPRESENTATION(#4,#10);
#4 = PRODUCT_DEFINITION_SHAPE('','',#5);
#5 = PRODUCT_DEFINITION('design','',#6,#9);
#6 = PRODUCT_DEFINITION_FORMATION('','',#7);
#7 = PRODUCT('Open CASCADE STEP translator 7.9 32',
  'Open CASCADE STEP translator 7.9 32','',(#8));
#8 = PRODUCT_CONTEXT('',#2,'mechanical');
#9 = PRODUCT_DEFINITION_CONTEXT('part definition',#2,'design');
#10 = MANIFOLD_SURFACE_SHAPE_REPRESENTATION('',(#11,#15),#121);
#11 = AXIS2_PLACEMENT_3D('',#12,#13,#14);
#12 = CARTESIAN_POINT('',(0.,0.,0.));
#13 = DIRECTION('',(0.,0.,1.));
#14 = DIRECTION('',(1.,0.,-0.));
#15 = SHELL_BASED_SURFACE_MODEL('',(#16));
#16 = OPEN_SHELL('',(#17));
#17 = ADVANCED_FACE('',(#18),#40,.T.);
#18 = FACE_BOUND('',#19,.T.);
#19 = EDGE_LOOP('',(#20,#59,#75,#107));
#20 = ORIENTED_EDGE('',*,*,#21,.T.);
#21 = EDGE_CURVE('',#22,#24,#26,.T.);
#22 = VERTEX_POINT('',#23);
#23 = CARTESIAN_POINT('',(0.,-3.73768884257,0.));
#24 = VERTEX_POINT('',#25);
#25 = CARTESIAN_POINT('',(150.,0.716564056453,0.));
#26 = SURFACE_CURVE('',#27,(#39),.PCURVE_S1.);
#27 = B_SPLINE_CURVE_WITH_KNOTS('',1,(#28,#29,#30,#31,#32,#33,#34,#35,
    #36,#37,#38),.UNSPECIFIED.,.F.,.F.,(2,1,1,1,1,1,1,1,1,1,2),(0.,
    0.106866504161,0.136361182848,0.162414233419,0.23277886034,
    0.372355085985,0.466743411883,0.51032215658,0.659331732486,
    0.947696644233,1.),.UNSPECIFIED.);
#28 = CARTESIAN_POINT('',(0.,-3.73768884257,0.));
#29 = CARTESIAN_POINT('',(16.052311745762,2.775063482686E-02,0.));
#30 = CARTESIAN_POINT('',(19.224275200791,3.290697780182,0.));
#31 = CARTESIAN_POINT('',(22.664440062822,1.211593831208,0.));
#32 = CARTESIAN_POINT('',(33.183745858412,3.89549998037,0.));
#33 = CARTESIAN_POINT('',(54.684232492967,2.682188660801,0.));
#34 = CARTESIAN_POINT('',(69.152272845862,4.340980971001,0.));
#35 = CARTESIAN_POINT('',(74.614552288715,0.420480751499,0.));
#36 = CARTESIAN_POINT('',(97.546730935734,-1.210862384566,0.));
#37 = CARTESIAN_POINT('',(141.96019149493,1.41036783859,0.));
#38 = CARTESIAN_POINT('',(150.,0.716564056453,0.));
#39 = PCURVE('',#40,#45);
#40 = PLANE('',#41);
#41 = AXIS2_PLACEMENT_3D('',#42,#43,#44);
#42 = CARTESIAN_POINT('',(72.158958830324,7.5,0.));
#43 = DIRECTION('',(0.,0.,1.));
#44 = DIRECTION('',(1.,0.,-0.));
#45 = DEFINITIONAL_REPRESENTATION('',(#46),#58);
#46 = B_SPLINE_CURVE_WITH_KNOTS('',1,(#47,#48,#49,#50,#51,#52,#53,#54,
    #55,#56,#57),.UNSPECIFIED.,.F.,.F.,(2,1,1,1,1,1,1,1,1,1,2),(0.,
    0.106866504161,0.136361182848,0.162414233419,0.23277886034,
    0.372355085985,0.466743411883,0.51032215658,0.659331732486,
    0.947696644233,1.),.UNSPECIFIED.);
#47 = CARTESIAN_POINT('',(-72.15895883032,-11.23768884257));
#48 = CARTESIAN_POINT('',(-56.10664708456,-7.472249365173));
#49 = CARTESIAN_POINT('',(-52.93468362953,-4.209302219818));
#50 = CARTESIAN_POINT('',(-49.4945187675,-6.288406168792));
#51 = CARTESIAN_POINT('',(-38.97521297191,-3.60450001963));
#52 = CARTESIAN_POINT('',(-17.47472633735,-4.817811339199));
#53 = CARTESIAN_POINT('',(-3.006685984463,-3.159019028999));
#54 = CARTESIAN_POINT('',(2.455593458391,-7.079519248501));
#55 = CARTESIAN_POINT('',(25.38777210541,-8.710862384566));
#56 = CARTESIAN_POINT('',(69.801232664606,-6.08963216141));
#57 = CARTESIAN_POINT('',(77.841041169676,-6.783435943547));
#58 = ( GEOMETRIC_REPRESENTATION_CONTEXT(2) 
PARAMETRIC_REPRESENTATION_CONTEXT() REPRESENTATION_CONTEXT('2D SPACE',''
  ) );
#59 = ORIENTED_EDGE('',*,*,#60,.T.);
#60 = EDGE_CURVE('',#24,#61,#63,.T.);
#61 = VERTEX_POINT('',#62);
#62 = CARTESIAN_POINT('',(150.,14.283435943547,0.));
#63 = SURFACE_CURVE('',#64,(#68),.PCURVE_S1.);
#64 = LINE('',#65,#66);
#65 = CARTESIAN_POINT('',(150.,0.716564056453,0.));
#66 = VECTOR('',#67,1.);
#67 = DIRECTION('',(0.,1.,0.));
#68 = PCURVE('',#40,#69);
#69 = DEFINITIONAL_REPRESENTATION('',(#70),#74);
#70 = LINE('',#71,#72);
#71 = CARTESIAN_POINT('',(77.841041169676,-6.783435943547));
#72 = VECTOR('',#73,1.);
#73 = DIRECTION('',(0.,1.));
#74 = ( GEOMETRIC_REPRESENTATION_CONTEXT(2) 
PARAMETRIC_REPRESENTATION_CONTEXT() REPRESENTATION_CONTEXT('2D SPACE',''
  ) );
#75 = ORIENTED_EDGE('',*,*,#76,.T.);
#76 = EDGE_CURVE('',#61,#77,#79,.T.);
#77 = VERTEX_POINT('',#78);
#78 = CARTESIAN_POINT('',(0.,18.73768884257,0.));
#79 = SURFACE_CURVE('',#80,(#92),.PCURVE_S1.);
#80 = B_SPLINE_CURVE_WITH_KNOTS('',1,(#81,#82,#83,#84,#85,#86,#87,#88,
    #89,#90,#91),.UNSPECIFIED.,.F.,.F.,(2,1,1,1,1,1,1,1,1,1,2),(0.,
    5.230335576747E-02,0.340668267514,0.48967784342,0.533256588117,
    0.627644914015,0.76722113966,0.837585766581,0.863638817152,
    0.893133495839,1.),.UNSPECIFIED.);
#81 = CARTESIAN_POINT('',(150.,14.283435943547,0.));
#82 = CARTESIAN_POINT('',(141.96019149493,13.58963216141,0.));
#83 = CARTESIAN_POINT('',(97.546730935734,16.210862384566,0.));
#84 = CARTESIAN_POINT('',(74.614552288715,14.579519248501,0.));
#85 = CARTESIAN_POINT('',(69.152272845862,10.659019028999,0.));
#86 = CARTESIAN_POINT('',(54.684232492967,12.317811339199,0.));
#87 = CARTESIAN_POINT('',(33.183745858412,11.10450001963,0.));
#88 = CARTESIAN_POINT('',(22.664440062822,13.788406168792,0.));
#89 = CARTESIAN_POINT('',(19.224275200791,11.709302219818,0.));
#90 = CARTESIAN_POINT('',(16.052311745762,14.972249365173,0.));
#91 = CARTESIAN_POINT('',(0.,18.73768884257,0.));
#92 = PCURVE('',#40,#93);
#93 = DEFINITIONAL_REPRESENTATION('',(#94),#106);
#94 = B_SPLINE_CURVE_WITH_KNOTS('',1,(#95,#96,#97,#98,#99,#100,#101,#102
    ,#103,#104,#105),.UNSPECIFIED.,.F.,.F.,(2,1,1,1,1,1,1,1,1,1,2),(0.,
    5.230335576747E-02,0.340668267514,0.48967784342,0.533256588117,
    0.627644914015,0.76722113966,0.837585766581,0.863638817152,
    0.893133495839,1.),.UNSPECIFIED.);
#95 = CARTESIAN_POINT('',(77.841041169676,6.783435943547));
#96 = CARTESIAN_POINT('',(69.801232664606,6.08963216141));
#97 = CARTESIAN_POINT('',(25.38777210541,8.710862384566));
#98 = CARTESIAN_POINT('',(2.455593458391,7.079519248501));
#99 = CARTESIAN_POINT('',(-3.006685984463,3.159019028999));
#100 = CARTESIAN_POINT('',(-17.47472633735,4.817811339199));
#101 = CARTESIAN_POINT('',(-38.97521297191,3.60450001963));
#102 = CARTESIAN_POINT('',(-49.4945187675,6.288406168792));
#103 = CARTESIAN_POINT('',(-52.93468362953,4.209302219818));
#104 = CARTESIAN_POINT('',(-56.10664708456,7.472249365173));
#105 = CARTESIAN_POINT('',(-72.15895883032,11.23768884257));
#106 = ( GEOMETRIC_REPRESENTATION_CONTEXT(2) 
PARAMETRIC_REPRESENTATION_CONTEXT() REPRESENTATION_CONTEXT('2D SPACE',''
  ) );
#107 = ORIENTED_EDGE('',*,*,#108,.T.);
#108 = EDGE_CURVE('',#77,#22,#109,.T.);
#109 = SURFACE_CURVE('',#110,(#114),.PCURVE_S1.);
#110 = LINE('',#111,#112);
#111 = CARTESIAN_POINT('',(0.,18.73768884257,0.));
#112 = VECTOR('',#113,1.);
#113 = DIRECTION('',(0.,-1.,0.));
#114 = PCURVE('',#40,#115);
#115 = DEFINITIONAL_REPRESENTATION('',(#116),#120);
#116 = LINE('',#117,#118);
#117 = CARTESIAN_POINT('',(-72.15895883032,11.23768884257));
#118 = VECTOR('',#119,1.);
#119 = DIRECTION('',(0.,-1.));
#120 = ( GEOMETRIC_REPRESENTATION_CONTEXT(2) 
PARAMETRIC_REPRESENTATION_CONTEXT() REPRESENTATION_CONTEXT('2D SPACE',''
  ) );
#121 = ( GEOMETRIC_REPRESENTATION_CONTEXT(3) 
GLOBAL_UNCERTAINTY_ASSIGNED_CONTEXT((#125)) GLOBAL_UNIT_ASSIGNED_CONTEXT
((#122,#123,#124)) REPRESENTATION_CONTEXT('Context #1',
  '3D Context with UNIT and UNCERTAINTY') );
#122 = ( LENGTH_UNIT() NAMED_UNIT(*) SI_UNIT(.MILLI.,.METRE.) );
#123 = ( NAMED_UNIT(*) PLANE_ANGLE_UNIT() SI_UNIT($,.RADIAN.) );
#124 = ( NAMED_UNIT(*) SI_UNIT($,.STERADIAN.) SOLID_ANGLE_UNIT() );
#125 = UNCERTAINTY_MEASURE_WITH_UNIT(LENGTH_MEASURE(1.E-07),#122,
  'distance_accuracy_value','confusion accuracy');
#126 = PRODUCT_RELATED_PRODUCT_CATEGORY('part',$,(#7));
ENDSEC;
END-ISO-10303-21;
