ISO-10303-21;
HEADER;
FILE_DESCRIPTION(('Open CASCADE Model'),'2;1');
FILE_NAME('Open CASCADE Shape Model','2026-06-01T11:13:06',('Author'),(
    'Open CASCADE'),'Open CASCADE STEP processor 7.9','Open CASCADE 7.9'
  ,'Unknown');
FILE_SCHEMA(('AUTOMOTIVE_DESIGN { 1 0 10303 214 1 1 1 1 }'));
ENDSEC;
DATA;
#1 = APPLICATION_PROTOCOL_DEFINITION('international standard',
  'automotive_design',2000,#2);
#2 = APPLICATION_CONTEXT(
  'core data for automotive mechanical design processes');
#3 = SHAPE_DEFINITION_REPRESENTATION(#4,#10);
#4 = PRODUCT_DEFINITION_SHAPE('','',#5);
#5 = PRODUCT_DEFINITION('design','',#6,#9);
#6 = PRODUCT_DEFINITION_FORMATION('','',#7);
#7 = PRODUCT('Open CASCADE STEP translator 7.9 70',
  'Open CASCADE STEP translator 7.9 70','',(#8));
#8 = PRODUCT_CONTEXT('',#2,'mechanical');
#9 = PRODUCT_DEFINITION_CONTEXT('part definition',#2,'design');
#10 = MANIFOLD_SURFACE_SHAPE_REPRESENTATION('',(#11,#15),#121);
#11 = AXIS2_PLACEMENT_3D('',#12,#13,#14);
#12 = CARTESIAN_POINT('',(0.,0.,0.));
#13 = DIRECTION('',(0.,0.,1.));
#14 = DIRECTION('',(1.,0.,-0.));
#15 = SHELL_BASED_SURFACE_MODEL('',(#16));
#16 = OPEN_SHELL('',(#17));
#17 = ADVANCED_FACE('',(#18),#40,.T.);
#18 = FACE_BOUND('',#19,.T.);
#19 = EDGE_LOOP('',(#20,#59,#75,#107));
#20 = ORIENTED_EDGE('',*,*,#21,.T.);
#21 = EDGE_CURVE('',#22,#24,#26,.T.);
#22 = VERTEX_POINT('',#23);
#23 = CARTESIAN_POINT('',(0.,-1.238480822061,0.));
#24 = VERTEX_POINT('',#25);
#25 = CARTESIAN_POINT('',(150.,0.64647122842,0.));
#26 = SURFACE_CURVE('',#27,(#39),.PCURVE_S1.);
#27 = B_SPLINE_CURVE_WITH_KNOTS('',1,(#28,#29,#30,#31,#32,#33,#34,#35,
    #36,#37,#38),.UNSPECIFIED.,.F.,.F.,(2,1,1,1,1,1,1,1,1,1,2),(0.,
    0.17082730093,0.247488261898,0.318819407019,0.380209189123,
    0.571332524721,0.649857320943,0.723776339168,0.751636419817,
    0.959106166633,1.),.UNSPECIFIED.);
#28 = CARTESIAN_POINT('',(0.,-1.238480822061,0.));
#29 = CARTESIAN_POINT('',(26.769563263505,4.042498842464,0.));
#30 = CARTESIAN_POINT('',(35.702245290558,-4.332483911277,0.));
#31 = CARTESIAN_POINT('',(46.120712085848,0.278954288886,0.));
#32 = CARTESIAN_POINT('',(55.138895901426,-3.570798344316,0.));
#33 = CARTESIAN_POINT('',(85.42991424836,0.219949440904,0.));
#34 = CARTESIAN_POINT('',(97.402658930166,3.957022632832,0.));
#35 = CARTESIAN_POINT('',(107.0142095944,-2.899921914844,0.));
#36 = CARTESIAN_POINT('',(111.17942542692,-1.333653567004,0.));
#37 = CARTESIAN_POINT('',(144.29584543133,-2.535813428166,0.));
#38 = CARTESIAN_POINT('',(150.,0.64647122842,0.));
#39 = PCURVE('',#40,#45);
#40 = PLANE('',#41);
#41 = AXIS2_PLACEMENT_3D('',#42,#43,#44);
#42 = CARTESIAN_POINT('',(73.676727204466,7.5,0.));
#43 = DIRECTION('',(0.,0.,1.));
#44 = DIRECTION('',(1.,0.,-0.));
#45 = DEFINITIONAL_REPRESENTATION('',(#46),#58);
#46 = B_SPLINE_CURVE_WITH_KNOTS('',1,(#47,#48,#49,#50,#51,#52,#53,#54,
    #55,#56,#57),.UNSPECIFIED.,.F.,.F.,(2,1,1,1,1,1,1,1,1,1,2),(0.,
    0.17082730093,0.247488261898,0.318819407019,0.380209189123,
    0.571332524721,0.649857320943,0.723776339168,0.751636419817,
    0.959106166633,1.),.UNSPECIFIED.);
#47 = CARTESIAN_POINT('',(-73.67672720446,-8.738480822061));
#48 = CARTESIAN_POINT('',(-46.90716394096,-3.457501157536));
#49 = CARTESIAN_POINT('',(-37.9744819139,-11.83248391127));
#50 = CARTESIAN_POINT('',(-27.55601511861,-7.221045711114));
#51 = CARTESIAN_POINT('',(-18.53783130304,-11.07079834431));
#52 = CARTESIAN_POINT('',(11.753187043895,-7.280050559096));
#53 = CARTESIAN_POINT('',(23.7259317257,-3.542977367168));
#54 = CARTESIAN_POINT('',(33.337482389936,-10.39992191484));
#55 = CARTESIAN_POINT('',(37.502698222456,-8.833653567004));
#56 = CARTESIAN_POINT('',(70.619118226865,-10.03581342816));
#57 = CARTESIAN_POINT('',(76.323272795534,-6.85352877158));
#58 = ( GEOMETRIC_REPRESENTATION_CONTEXT(2) 
PARAMETRIC_REPRESENTATION_CONTEXT() REPRESENTATION_CONTEXT('2D SPACE',''
  ) );
#59 = ORIENTED_EDGE('',*,*,#60,.T.);
#60 = EDGE_CURVE('',#24,#61,#63,.T.);
#61 = VERTEX_POINT('',#62);
#62 = CARTESIAN_POINT('',(150.,14.35352877158,0.));
#63 = SURFACE_CURVE('',#64,(#68),.PCURVE_S1.);
#64 = LINE('',#65,#66);
#65 = CARTESIAN_POINT('',(150.,0.64647122842,0.));
#66 = VECTOR('',#67,1.);
#67 = DIRECTION('',(0.,1.,0.));
#68 = PCURVE('',#40,#69);
#69 = DEFINITIONAL_REPRESENTATION('',(#70),#74);
#70 = LINE('',#71,#72);
#71 = CARTESIAN_POINT('',(76.323272795534,-6.85352877158));
#72 = VECTOR('',#73,1.);
#73 = DIRECTION('',(0.,1.));
#74 = ( GEOMETRIC_REPRESENTATION_CONTEXT(2) 
PARAMETRIC_REPRESENTATION_CONTEXT() REPRESENTATION_CONTEXT('2D SPACE',''
  ) );
#75 = ORIENTED_EDGE('',*,*,#76,.T.);
#76 = EDGE_CURVE('',#61,#77,#79,.T.);
#77 = VERTEX_POINT('',#78);
#78 = CARTESIAN_POINT('',(0.,16.238480822061,0.));
#79 = SURFACE_CURVE('',#80,(#92),.PCURVE_S1.);
#80 = B_SPLINE_CURVE_WITH_KNOTS('',1,(#81,#82,#83,#84,#85,#86,#87,#88,
    #89,#90,#91),.UNSPECIFIED.,.F.,.F.,(2,1,1,1,1,1,1,1,1,1,2),(0.,
    4.089383336663E-02,0.248363580183,0.276223660832,0.350142679057,
    0.428667475279,0.619790810877,0.681180592981,0.752511738102,
    0.82917269907,1.),.UNSPECIFIED.);
#81 = CARTESIAN_POINT('',(150.,14.35352877158,0.));
#82 = CARTESIAN_POINT('',(144.29584543133,17.535813428166,0.));
#83 = CARTESIAN_POINT('',(111.17942542692,16.333653567004,0.));
#84 = CARTESIAN_POINT('',(107.0142095944,17.899921914844,0.));
#85 = CARTESIAN_POINT('',(97.402658930166,11.042977367168,0.));
#86 = CARTESIAN_POINT('',(85.42991424836,14.780050559096,0.));
#87 = CARTESIAN_POINT('',(55.138895901426,18.570798344316,0.));
#88 = CARTESIAN_POINT('',(46.120712085848,14.721045711114,0.));
#89 = CARTESIAN_POINT('',(35.702245290558,19.332483911277,0.));
#90 = CARTESIAN_POINT('',(26.769563263505,10.957501157536,0.));
#91 = CARTESIAN_POINT('',(0.,16.238480822061,0.));
#92 = PCURVE('',#40,#93);
#93 = DEFINITIONAL_REPRESENTATION('',(#94),#106);
#94 = B_SPLINE_CURVE_WITH_KNOTS('',1,(#95,#96,#97,#98,#99,#100,#101,#102
    ,#103,#104,#105),.UNSPECIFIED.,.F.,.F.,(2,1,1,1,1,1,1,1,1,1,2),(0.,
    4.089383336663E-02,0.248363580183,0.276223660832,0.350142679057,
    0.428667475279,0.619790810877,0.681180592981,0.752511738102,
    0.82917269907,1.),.UNSPECIFIED.);
#95 = CARTESIAN_POINT('',(76.323272795534,6.85352877158));
#96 = CARTESIAN_POINT('',(70.619118226865,10.035813428166));
#97 = CARTESIAN_POINT('',(37.502698222456,8.833653567004));
#98 = CARTESIAN_POINT('',(33.337482389936,10.399921914844));
#99 = CARTESIAN_POINT('',(23.7259317257,3.542977367168));
#100 = CARTESIAN_POINT('',(11.753187043895,7.280050559096));
#101 = CARTESIAN_POINT('',(-18.53783130304,11.070798344316));
#102 = CARTESIAN_POINT('',(-27.55601511861,7.221045711114));
#103 = CARTESIAN_POINT('',(-37.9744819139,11.832483911277));
#104 = CARTESIAN_POINT('',(-46.90716394096,3.457501157536));
#105 = CARTESIAN_POINT('',(-73.67672720446,8.738480822061));
#106 = ( GEOMETRIC_REPRESENTATION_CONTEXT(2) 
PARAMETRIC_REPRESENTATION_CONTEXT() REPRESENTATION_CONTEXT('2D SPACE',''
  ) );
#107 = ORIENTED_EDGE('',*,*,#108,.T.);
#108 = EDGE_CURVE('',#77,#22,#109,.T.);
#109 = SURFACE_CURVE('',#110,(#114),.PCURVE_S1.);
#110 = LINE('',#111,#112);
#111 = CARTESIAN_POINT('',(0.,16.238480822061,0.));
#112 = VECTOR('',#113,1.);
#113 = DIRECTION('',(0.,-1.,0.));
#114 = PCURVE('',#40,#115);
#115 = DEFINITIONAL_REPRESENTATION('',(#116),#120);
#116 = LINE('',#117,#118);
#117 = CARTESIAN_POINT('',(-73.67672720446,8.738480822061));
#118 = VECTOR('',#119,1.);
#119 = DIRECTION('',(0.,-1.));
#120 = ( GEOMETRIC_REPRESENTATION_CONTEXT(2) 
PARAMETRIC_REPRESENTATION_CONTEXT() REPRESENTATION_CONTEXT('2D SPACE',''
  ) );
#121 = ( GEOMETRIC_REPRESENTATION_CONTEXT(3) 
GLOBAL_UNCERTAINTY_ASSIGNED_CONTEXT((#125)) GLOBAL_UNIT_ASSIGNED_CONTEXT
((#122,#123,#124)) REPRESENTATION_CONTEXT('Context #1',
  '3D Context with UNIT and UNCERTAINTY') );
#122 = ( LENGTH_UNIT() NAMED_UNIT(*) SI_UNIT(.MILLI.,.METRE.) );
#123 = ( NAMED_UNIT(*) PLANE_ANGLE_UNIT() SI_UNIT($,.RADIAN.) );
#124 = ( NAMED_UNIT(*) SI_UNIT($,.STERADIAN.) SOLID_ANGLE_UNIT() );
#125 = UNCERTAINTY_MEASURE_WITH_UNIT(LENGTH_MEASURE(1.E-07),#122,
  'distance_accuracy_value','confusion accuracy');
#126 = PRODUCT_RELATED_PRODUCT_CATEGORY('part',$,(#7));
ENDSEC;
END-ISO-10303-21;
