ISO-10303-21;
HEADER;
FILE_DESCRIPTION(('Open CASCADE Model'),'2;1');
FILE_NAME('Open CASCADE Shape Model','2026-06-01T11:13:05',('Author'),(
    'Open CASCADE'),'Open CASCADE STEP processor 7.9','Open CASCADE 7.9'
  ,'Unknown');
FILE_SCHEMA(('AUTOMOTIVE_DESIGN { 1 0 10303 214 1 1 1 1 }'));
ENDSEC;
DATA;
#1 = APPLICATION_PROTOCOL_DEFINITION('international standard',
  'automotive_design',2000,#2);
#2 = APPLICATION_CONTEXT(
  'core data for automotive mechanical design processes');
#3 = SHAPE_DEFINITION_REPRESENTATION(#4,#10);
#4 = PRODUCT_DEFINITION_SHAPE('','',#5);
#5 = PRODUCT_DEFINITION('design','',#6,#9);
#6 = PRODUCT_DEFINITION_FORMATION('','',#7);
#7 = PRODUCT('Open CASCADE STEP translator 7.9 23',
  'Open CASCADE STEP translator 7.9 23','',(#8));
#8 = PRODUCT_CONTEXT('',#2,'mechanical');
#9 = PRODUCT_DEFINITION_CONTEXT('part definition',#2,'design');
#10 = MANIFOLD_SURFACE_SHAPE_REPRESENTATION('',(#11,#15),#121);
#11 = AXIS2_PLACEMENT_3D('',#12,#13,#14);
#12 = CARTESIAN_POINT('',(0.,0.,0.));
#13 = DIRECTION('',(0.,0.,1.));
#14 = DIRECTION('',(1.,0.,-0.));
#15 = SHELL_BASED_SURFACE_MODEL('',(#16));
#16 = OPEN_SHELL('',(#17));
#17 = ADVANCED_FACE('',(#18),#40,.T.);
#18 = FACE_BOUND('',#19,.T.);
#19 = EDGE_LOOP('',(#20,#59,#75,#107));
#20 = ORIENTED_EDGE('',*,*,#21,.T.);
#21 = EDGE_CURVE('',#22,#24,#26,.T.);
#22 = VERTEX_POINT('',#23);
#23 = CARTESIAN_POINT('',(0.,-1.211662056764,0.));
#24 = VERTEX_POINT('',#25);
#25 = CARTESIAN_POINT('',(150.,-0.652121398099,0.));
#26 = SURFACE_CURVE('',#27,(#39),.PCURVE_S1.);
#27 = B_SPLINE_CURVE_WITH_KNOTS('',1,(#28,#29,#30,#31,#32,#33,#34,#35,
    #36,#37,#38),.UNSPECIFIED.,.F.,.F.,(2,1,1,1,1,1,1,1,1,1,2),(0.,
    3.292129549259E-02,0.438890714775,0.524886212753,0.586300726268,
    0.618760234922,0.64714120864,0.679689583141,0.755152160501,
    0.829595291161,1.),.UNSPECIFIED.);
#28 = CARTESIAN_POINT('',(0.,-1.211662056764,0.));
#29 = CARTESIAN_POINT('',(4.668944558913,0.79370193073,0.));
#30 = CARTESIAN_POINT('',(67.330175494557,0.820952015142,0.));
#31 = CARTESIAN_POINT('',(80.491586250543,2.541343259727,0.));
#32 = CARTESIAN_POINT('',(89.364451081866,-0.794756235681,0.));
#33 = CARTESIAN_POINT('',(93.739478398758,1.646631798145,0.));
#34 = CARTESIAN_POINT('',(97.316434927117,4.175461491504,0.));
#35 = CARTESIAN_POINT('',(100.97675763703,0.734399602588,0.));
#36 = CARTESIAN_POINT('',(112.61357453316,0.232805924188,0.));
#37 = CARTESIAN_POINT('',(123.88401341723,2.469664186162,0.));
#38 = CARTESIAN_POINT('',(150.,-0.652121398099,0.));
#39 = PCURVE('',#40,#45);
#40 = PLANE('',#41);
#41 = AXIS2_PLACEMENT_3D('',#42,#43,#44);
#42 = CARTESIAN_POINT('',(75.089144776835,7.5,0.));
#43 = DIRECTION('',(0.,0.,1.));
#44 = DIRECTION('',(1.,0.,-0.));
#45 = DEFINITIONAL_REPRESENTATION('',(#46),#58);
#46 = B_SPLINE_CURVE_WITH_KNOTS('',1,(#47,#48,#49,#50,#51,#52,#53,#54,
    #55,#56,#57),.UNSPECIFIED.,.F.,.F.,(2,1,1,1,1,1,1,1,1,1,2),(0.,
    3.292129549259E-02,0.438890714775,0.524886212753,0.586300726268,
    0.618760234922,0.64714120864,0.679689583141,0.755152160501,
    0.829595291161,1.),.UNSPECIFIED.);
#47 = CARTESIAN_POINT('',(-75.08914477683,-8.711662056764));
#48 = CARTESIAN_POINT('',(-70.42020021792,-6.70629806927));
#49 = CARTESIAN_POINT('',(-7.758969282278,-6.679047984858));
#50 = CARTESIAN_POINT('',(5.402441473708,-4.958656740273));
#51 = CARTESIAN_POINT('',(14.275306305031,-8.294756235681));
#52 = CARTESIAN_POINT('',(18.650333621923,-5.853368201855));
#53 = CARTESIAN_POINT('',(22.227290150282,-3.324538508496));
#54 = CARTESIAN_POINT('',(25.887612860195,-6.765600397412));
#55 = CARTESIAN_POINT('',(37.524429756325,-7.267194075812));
#56 = CARTESIAN_POINT('',(48.794868640399,-5.030335813838));
#57 = CARTESIAN_POINT('',(74.910855223165,-8.152121398099));
#58 = ( GEOMETRIC_REPRESENTATION_CONTEXT(2) 
PARAMETRIC_REPRESENTATION_CONTEXT() REPRESENTATION_CONTEXT('2D SPACE',''
  ) );
#59 = ORIENTED_EDGE('',*,*,#60,.T.);
#60 = EDGE_CURVE('',#24,#61,#63,.T.);
#61 = VERTEX_POINT('',#62);
#62 = CARTESIAN_POINT('',(150.,15.652121398099,0.));
#63 = SURFACE_CURVE('',#64,(#68),.PCURVE_S1.);
#64 = LINE('',#65,#66);
#65 = CARTESIAN_POINT('',(150.,-0.652121398099,0.));
#66 = VECTOR('',#67,1.);
#67 = DIRECTION('',(0.,1.,0.));
#68 = PCURVE('',#40,#69);
#69 = DEFINITIONAL_REPRESENTATION('',(#70),#74);
#70 = LINE('',#71,#72);
#71 = CARTESIAN_POINT('',(74.910855223165,-8.152121398099));
#72 = VECTOR('',#73,1.);
#73 = DIRECTION('',(0.,1.));
#74 = ( GEOMETRIC_REPRESENTATION_CONTEXT(2) 
PARAMETRIC_REPRESENTATION_CONTEXT() REPRESENTATION_CONTEXT('2D SPACE',''
  ) );
#75 = ORIENTED_EDGE('',*,*,#76,.T.);
#76 = EDGE_CURVE('',#61,#77,#79,.T.);
#77 = VERTEX_POINT('',#78);
#78 = CARTESIAN_POINT('',(0.,16.211662056764,0.));
#79 = SURFACE_CURVE('',#80,(#92),.PCURVE_S1.);
#80 = B_SPLINE_CURVE_WITH_KNOTS('',1,(#81,#82,#83,#84,#85,#86,#87,#88,
    #89,#90,#91),.UNSPECIFIED.,.F.,.F.,(2,1,1,1,1,1,1,1,1,1,2),(0.,
    0.170404708839,0.244847839499,0.320310416859,0.35285879136,
    0.381239765078,0.413699273732,0.475113787247,0.561109285225,
    0.967078704507,1.),.UNSPECIFIED.);
#81 = CARTESIAN_POINT('',(150.,15.652121398099,0.));
#82 = CARTESIAN_POINT('',(123.88401341723,12.530335813838,0.));
#83 = CARTESIAN_POINT('',(112.61357453316,14.767194075812,0.));
#84 = CARTESIAN_POINT('',(100.97675763703,14.265600397412,0.));
#85 = CARTESIAN_POINT('',(97.316434927117,10.824538508496,0.));
#86 = CARTESIAN_POINT('',(93.739478398758,13.353368201855,0.));
#87 = CARTESIAN_POINT('',(89.364451081866,15.794756235681,0.));
#88 = CARTESIAN_POINT('',(80.491586250543,12.458656740273,0.));
#89 = CARTESIAN_POINT('',(67.330175494557,14.179047984858,0.));
#90 = CARTESIAN_POINT('',(4.668944558913,14.20629806927,0.));
#91 = CARTESIAN_POINT('',(0.,16.211662056764,0.));
#92 = PCURVE('',#40,#93);
#93 = DEFINITIONAL_REPRESENTATION('',(#94),#106);
#94 = B_SPLINE_CURVE_WITH_KNOTS('',1,(#95,#96,#97,#98,#99,#100,#101,#102
    ,#103,#104,#105),.UNSPECIFIED.,.F.,.F.,(2,1,1,1,1,1,1,1,1,1,2),(0.,
    0.170404708839,0.244847839499,0.320310416859,0.35285879136,
    0.381239765078,0.413699273732,0.475113787247,0.561109285225,
    0.967078704507,1.),.UNSPECIFIED.);
#95 = CARTESIAN_POINT('',(74.910855223165,8.152121398099));
#96 = CARTESIAN_POINT('',(48.794868640399,5.030335813838));
#97 = CARTESIAN_POINT('',(37.524429756325,7.267194075812));
#98 = CARTESIAN_POINT('',(25.887612860195,6.765600397412));
#99 = CARTESIAN_POINT('',(22.227290150282,3.324538508496));
#100 = CARTESIAN_POINT('',(18.650333621923,5.853368201855));
#101 = CARTESIAN_POINT('',(14.275306305031,8.294756235681));
#102 = CARTESIAN_POINT('',(5.402441473708,4.958656740273));
#103 = CARTESIAN_POINT('',(-7.758969282278,6.679047984858));
#104 = CARTESIAN_POINT('',(-70.42020021792,6.70629806927));
#105 = CARTESIAN_POINT('',(-75.08914477683,8.711662056764));
#106 = ( GEOMETRIC_REPRESENTATION_CONTEXT(2) 
PARAMETRIC_REPRESENTATION_CONTEXT() REPRESENTATION_CONTEXT('2D SPACE',''
  ) );
#107 = ORIENTED_EDGE('',*,*,#108,.T.);
#108 = EDGE_CURVE('',#77,#22,#109,.T.);
#109 = SURFACE_CURVE('',#110,(#114),.PCURVE_S1.);
#110 = LINE('',#111,#112);
#111 = CARTESIAN_POINT('',(0.,16.211662056764,0.));
#112 = VECTOR('',#113,1.);
#113 = DIRECTION('',(0.,-1.,0.));
#114 = PCURVE('',#40,#115);
#115 = DEFINITIONAL_REPRESENTATION('',(#116),#120);
#116 = LINE('',#117,#118);
#117 = CARTESIAN_POINT('',(-75.08914477683,8.711662056764));
#118 = VECTOR('',#119,1.);
#119 = DIRECTION('',(0.,-1.));
#120 = ( GEOMETRIC_REPRESENTATION_CONTEXT(2) 
PARAMETRIC_REPRESENTATION_CONTEXT() REPRESENTATION_CONTEXT('2D SPACE',''
  ) );
#121 = ( GEOMETRIC_REPRESENTATION_CONTEXT(3) 
GLOBAL_UNCERTAINTY_ASSIGNED_CONTEXT((#125)) GLOBAL_UNIT_ASSIGNED_CONTEXT
((#122,#123,#124)) REPRESENTATION_CONTEXT('Context #1',
  '3D Context with UNIT and UNCERTAINTY') );
#122 = ( LENGTH_UNIT() NAMED_UNIT(*) SI_UNIT(.MILLI.,.METRE.) );
#123 = ( NAMED_UNIT(*) PLANE_ANGLE_UNIT() SI_UNIT($,.RADIAN.) );
#124 = ( NAMED_UNIT(*) SI_UNIT($,.STERADIAN.) SOLID_ANGLE_UNIT() );
#125 = UNCERTAINTY_MEASURE_WITH_UNIT(LENGTH_MEASURE(1.E-07),#122,
  'distance_accuracy_value','confusion accuracy');
#126 = PRODUCT_RELATED_PRODUCT_CATEGORY('part',$,(#7));
ENDSEC;
END-ISO-10303-21;
