ISO-10303-21;
HEADER;
FILE_DESCRIPTION(('Open CASCADE Model'),'2;1');
FILE_NAME('Open CASCADE Shape Model','2026-06-01T11:13:06',('Author'),(
    'Open CASCADE'),'Open CASCADE STEP processor 7.9','Open CASCADE 7.9'
  ,'Unknown');
FILE_SCHEMA(('AUTOMOTIVE_DESIGN { 1 0 10303 214 1 1 1 1 }'));
ENDSEC;
DATA;
#1 = APPLICATION_PROTOCOL_DEFINITION('international standard',
  'automotive_design',2000,#2);
#2 = APPLICATION_CONTEXT(
  'core data for automotive mechanical design processes');
#3 = SHAPE_DEFINITION_REPRESENTATION(#4,#10);
#4 = PRODUCT_DEFINITION_SHAPE('','',#5);
#5 = PRODUCT_DEFINITION('design','',#6,#9);
#6 = PRODUCT_DEFINITION_FORMATION('','',#7);
#7 = PRODUCT('Open CASCADE STEP translator 7.9 28',
  'Open CASCADE STEP translator 7.9 28','',(#8));
#8 = PRODUCT_CONTEXT('',#2,'mechanical');
#9 = PRODUCT_DEFINITION_CONTEXT('part definition',#2,'design');
#10 = MANIFOLD_SURFACE_SHAPE_REPRESENTATION('',(#11,#15),#121);
#11 = AXIS2_PLACEMENT_3D('',#12,#13,#14);
#12 = CARTESIAN_POINT('',(0.,0.,0.));
#13 = DIRECTION('',(0.,0.,1.));
#14 = DIRECTION('',(1.,0.,-0.));
#15 = SHELL_BASED_SURFACE_MODEL('',(#16));
#16 = OPEN_SHELL('',(#17));
#17 = ADVANCED_FACE('',(#18),#40,.T.);
#18 = FACE_BOUND('',#19,.T.);
#19 = EDGE_LOOP('',(#20,#59,#75,#107));
#20 = ORIENTED_EDGE('',*,*,#21,.T.);
#21 = EDGE_CURVE('',#22,#24,#26,.T.);
#22 = VERTEX_POINT('',#23);
#23 = CARTESIAN_POINT('',(0.,1.450299279514,0.));
#24 = VERTEX_POINT('',#25);
#25 = CARTESIAN_POINT('',(150.,-1.203927957623,0.));
#26 = SURFACE_CURVE('',#27,(#39),.PCURVE_S1.);
#27 = B_SPLINE_CURVE_WITH_KNOTS('',1,(#28,#29,#30,#31,#32,#33,#34,#35,
    #36,#37,#38),.UNSPECIFIED.,.F.,.F.,(2,1,1,1,1,1,1,1,1,1,2),(0.,
    0.171476280687,0.383095570382,0.485745790702,0.611482608848,
    0.658738027656,0.690360133197,0.762757166939,0.920434485866,
    0.957353549486,1.),.UNSPECIFIED.);
#28 = CARTESIAN_POINT('',(0.,1.450299279514,0.));
#29 = CARTESIAN_POINT('',(26.80877985413,2.775572913036,0.));
#30 = CARTESIAN_POINT('',(59.899934549042,4.276591813813,0.));
#31 = CARTESIAN_POINT('',(73.763080000071,-3.847144126536,0.));
#32 = CARTESIAN_POINT('',(92.96646628877,0.466134045688,0.));
#33 = CARTESIAN_POINT('',(100.25429676612,1.732184348213,0.));
#34 = CARTESIAN_POINT('',(104.45486569225,-0.88629472402,0.));
#35 = CARTESIAN_POINT('',(114.46071678617,4.434169893363,0.));
#36 = CARTESIAN_POINT('',(139.02171120814,1.997801040593,0.));
#37 = CARTESIAN_POINT('',(143.35363746267,-1.82730119129,0.));
#38 = CARTESIAN_POINT('',(150.,-1.203927957623,0.));
#39 = PCURVE('',#40,#45);
#40 = PLANE('',#41);
#41 = AXIS2_PLACEMENT_3D('',#42,#43,#44);
#42 = CARTESIAN_POINT('',(77.07045854526,7.5,0.));
#43 = DIRECTION('',(0.,0.,1.));
#44 = DIRECTION('',(1.,0.,-0.));
#45 = DEFINITIONAL_REPRESENTATION('',(#46),#58);
#46 = B_SPLINE_CURVE_WITH_KNOTS('',1,(#47,#48,#49,#50,#51,#52,#53,#54,
    #55,#56,#57),.UNSPECIFIED.,.F.,.F.,(2,1,1,1,1,1,1,1,1,1,2),(0.,
    0.171476280687,0.383095570382,0.485745790702,0.611482608848,
    0.658738027656,0.690360133197,0.762757166939,0.920434485866,
    0.957353549486,1.),.UNSPECIFIED.);
#47 = CARTESIAN_POINT('',(-77.07045854526,-6.049700720486));
#48 = CARTESIAN_POINT('',(-50.26167869113,-4.724427086964));
#49 = CARTESIAN_POINT('',(-17.17052399621,-3.223408186187));
#50 = CARTESIAN_POINT('',(-3.307378545189,-11.34714412653));
#51 = CARTESIAN_POINT('',(15.89600774351,-7.033865954312));
#52 = CARTESIAN_POINT('',(23.183838220867,-5.767815651787));
#53 = CARTESIAN_POINT('',(27.384407146997,-8.38629472402));
#54 = CARTESIAN_POINT('',(37.390258240913,-3.065830106637));
#55 = CARTESIAN_POINT('',(61.951252662881,-5.502198959407));
#56 = CARTESIAN_POINT('',(66.283178917417,-9.32730119129));
#57 = CARTESIAN_POINT('',(72.92954145474,-8.703927957623));
#58 = ( GEOMETRIC_REPRESENTATION_CONTEXT(2) 
PARAMETRIC_REPRESENTATION_CONTEXT() REPRESENTATION_CONTEXT('2D SPACE',''
  ) );
#59 = ORIENTED_EDGE('',*,*,#60,.T.);
#60 = EDGE_CURVE('',#24,#61,#63,.T.);
#61 = VERTEX_POINT('',#62);
#62 = CARTESIAN_POINT('',(150.,16.203927957623,0.));
#63 = SURFACE_CURVE('',#64,(#68),.PCURVE_S1.);
#64 = LINE('',#65,#66);
#65 = CARTESIAN_POINT('',(150.,-1.203927957623,0.));
#66 = VECTOR('',#67,1.);
#67 = DIRECTION('',(0.,1.,0.));
#68 = PCURVE('',#40,#69);
#69 = DEFINITIONAL_REPRESENTATION('',(#70),#74);
#70 = LINE('',#71,#72);
#71 = CARTESIAN_POINT('',(72.92954145474,-8.703927957623));
#72 = VECTOR('',#73,1.);
#73 = DIRECTION('',(0.,1.));
#74 = ( GEOMETRIC_REPRESENTATION_CONTEXT(2) 
PARAMETRIC_REPRESENTATION_CONTEXT() REPRESENTATION_CONTEXT('2D SPACE',''
  ) );
#75 = ORIENTED_EDGE('',*,*,#76,.T.);
#76 = EDGE_CURVE('',#61,#77,#79,.T.);
#77 = VERTEX_POINT('',#78);
#78 = CARTESIAN_POINT('',(0.,13.549700720486,0.));
#79 = SURFACE_CURVE('',#80,(#92),.PCURVE_S1.);
#80 = B_SPLINE_CURVE_WITH_KNOTS('',1,(#81,#82,#83,#84,#85,#86,#87,#88,
    #89,#90,#91),.UNSPECIFIED.,.F.,.F.,(2,1,1,1,1,1,1,1,1,1,2),(0.,
    4.264645051377E-02,7.956551413418E-02,0.237242833061,0.309639866803,
    0.341261972344,0.388517391152,0.514254209298,0.616904429618,
    0.828523719313,1.),.UNSPECIFIED.);
#81 = CARTESIAN_POINT('',(150.,16.203927957623,0.));
#82 = CARTESIAN_POINT('',(143.35363746267,16.82730119129,0.));
#83 = CARTESIAN_POINT('',(139.02171120814,13.002198959407,0.));
#84 = CARTESIAN_POINT('',(114.46071678617,10.565830106637,0.));
#85 = CARTESIAN_POINT('',(104.45486569225,15.88629472402,0.));
#86 = CARTESIAN_POINT('',(100.25429676612,13.267815651787,0.));
#87 = CARTESIAN_POINT('',(92.96646628877,14.533865954312,0.));
#88 = CARTESIAN_POINT('',(73.763080000071,18.847144126536,0.));
#89 = CARTESIAN_POINT('',(59.899934549042,10.723408186187,0.));
#90 = CARTESIAN_POINT('',(26.80877985413,12.224427086964,0.));
#91 = CARTESIAN_POINT('',(0.,13.549700720486,0.));
#92 = PCURVE('',#40,#93);
#93 = DEFINITIONAL_REPRESENTATION('',(#94),#106);
#94 = B_SPLINE_CURVE_WITH_KNOTS('',1,(#95,#96,#97,#98,#99,#100,#101,#102
    ,#103,#104,#105),.UNSPECIFIED.,.F.,.F.,(2,1,1,1,1,1,1,1,1,1,2),(0.,
    4.264645051377E-02,7.956551413418E-02,0.237242833061,0.309639866803,
    0.341261972344,0.388517391152,0.514254209298,0.616904429618,
    0.828523719313,1.),.UNSPECIFIED.);
#95 = CARTESIAN_POINT('',(72.92954145474,8.703927957623));
#96 = CARTESIAN_POINT('',(66.283178917417,9.32730119129));
#97 = CARTESIAN_POINT('',(61.951252662881,5.502198959407));
#98 = CARTESIAN_POINT('',(37.390258240913,3.065830106637));
#99 = CARTESIAN_POINT('',(27.384407146997,8.38629472402));
#100 = CARTESIAN_POINT('',(23.183838220867,5.767815651787));
#101 = CARTESIAN_POINT('',(15.89600774351,7.033865954312));
#102 = CARTESIAN_POINT('',(-3.307378545189,11.347144126536));
#103 = CARTESIAN_POINT('',(-17.17052399621,3.223408186187));
#104 = CARTESIAN_POINT('',(-50.26167869113,4.724427086964));
#105 = CARTESIAN_POINT('',(-77.07045854526,6.049700720486));
#106 = ( GEOMETRIC_REPRESENTATION_CONTEXT(2) 
PARAMETRIC_REPRESENTATION_CONTEXT() REPRESENTATION_CONTEXT('2D SPACE',''
  ) );
#107 = ORIENTED_EDGE('',*,*,#108,.T.);
#108 = EDGE_CURVE('',#77,#22,#109,.T.);
#109 = SURFACE_CURVE('',#110,(#114),.PCURVE_S1.);
#110 = LINE('',#111,#112);
#111 = CARTESIAN_POINT('',(0.,13.549700720486,0.));
#112 = VECTOR('',#113,1.);
#113 = DIRECTION('',(0.,-1.,0.));
#114 = PCURVE('',#40,#115);
#115 = DEFINITIONAL_REPRESENTATION('',(#116),#120);
#116 = LINE('',#117,#118);
#117 = CARTESIAN_POINT('',(-77.07045854526,6.049700720486));
#118 = VECTOR('',#119,1.);
#119 = DIRECTION('',(0.,-1.));
#120 = ( GEOMETRIC_REPRESENTATION_CONTEXT(2) 
PARAMETRIC_REPRESENTATION_CONTEXT() REPRESENTATION_CONTEXT('2D SPACE',''
  ) );
#121 = ( GEOMETRIC_REPRESENTATION_CONTEXT(3) 
GLOBAL_UNCERTAINTY_ASSIGNED_CONTEXT((#125)) GLOBAL_UNIT_ASSIGNED_CONTEXT
((#122,#123,#124)) REPRESENTATION_CONTEXT('Context #1',
  '3D Context with UNIT and UNCERTAINTY') );
#122 = ( LENGTH_UNIT() NAMED_UNIT(*) SI_UNIT(.MILLI.,.METRE.) );
#123 = ( NAMED_UNIT(*) PLANE_ANGLE_UNIT() SI_UNIT($,.RADIAN.) );
#124 = ( NAMED_UNIT(*) SI_UNIT($,.STERADIAN.) SOLID_ANGLE_UNIT() );
#125 = UNCERTAINTY_MEASURE_WITH_UNIT(LENGTH_MEASURE(1.E-07),#122,
  'distance_accuracy_value','confusion accuracy');
#126 = PRODUCT_RELATED_PRODUCT_CATEGORY('part',$,(#7));
ENDSEC;
END-ISO-10303-21;
