ISO-10303-21;
HEADER;
FILE_DESCRIPTION(('Open CASCADE Model'),'2;1');
FILE_NAME('Open CASCADE Shape Model','2026-06-01T11:13:06',('Author'),(
    'Open CASCADE'),'Open CASCADE STEP processor 7.9','Open CASCADE 7.9'
  ,'Unknown');
FILE_SCHEMA(('AUTOMOTIVE_DESIGN { 1 0 10303 214 1 1 1 1 }'));
ENDSEC;
DATA;
#1 = APPLICATION_PROTOCOL_DEFINITION('international standard',
  'automotive_design',2000,#2);
#2 = APPLICATION_CONTEXT(
  'core data for automotive mechanical design processes');
#3 = SHAPE_DEFINITION_REPRESENTATION(#4,#10);
#4 = PRODUCT_DEFINITION_SHAPE('','',#5);
#5 = PRODUCT_DEFINITION('design','',#6,#9);
#6 = PRODUCT_DEFINITION_FORMATION('','',#7);
#7 = PRODUCT('Open CASCADE STEP translator 7.9 90',
  'Open CASCADE STEP translator 7.9 90','',(#8));
#8 = PRODUCT_CONTEXT('',#2,'mechanical');
#9 = PRODUCT_DEFINITION_CONTEXT('part definition',#2,'design');
#10 = MANIFOLD_SURFACE_SHAPE_REPRESENTATION('',(#11,#15),#121);
#11 = AXIS2_PLACEMENT_3D('',#12,#13,#14);
#12 = CARTESIAN_POINT('',(0.,0.,0.));
#13 = DIRECTION('',(0.,0.,1.));
#14 = DIRECTION('',(1.,0.,-0.));
#15 = SHELL_BASED_SURFACE_MODEL('',(#16));
#16 = OPEN_SHELL('',(#17));
#17 = ADVANCED_FACE('',(#18),#40,.T.);
#18 = FACE_BOUND('',#19,.T.);
#19 = EDGE_LOOP('',(#20,#59,#75,#107));
#20 = ORIENTED_EDGE('',*,*,#21,.T.);
#21 = EDGE_CURVE('',#22,#24,#26,.T.);
#22 = VERTEX_POINT('',#23);
#23 = CARTESIAN_POINT('',(0.,4.400849993542,0.));
#24 = VERTEX_POINT('',#25);
#25 = CARTESIAN_POINT('',(150.,5.342756704401E-02,0.));
#26 = SURFACE_CURVE('',#27,(#39),.PCURVE_S1.);
#27 = B_SPLINE_CURVE_WITH_KNOTS('',1,(#28,#29,#30,#31,#32,#33,#34,#35,
    #36,#37,#38),.UNSPECIFIED.,.F.,.F.,(2,1,1,1,1,1,1,1,1,1,2),(0.,
    0.136609141186,0.183593064614,0.34438179747,0.386269134021,
    0.536992806164,0.675286240354,0.795006526323,0.818802892692,
    0.881094677963,1.),.UNSPECIFIED.);
#28 = CARTESIAN_POINT('',(0.,4.400849993542,0.));
#29 = CARTESIAN_POINT('',(21.37460443649,2.892562418726,0.));
#30 = CARTESIAN_POINT('',(24.795233000917,-3.635137699159,0.));
#31 = CARTESIAN_POINT('',(49.813146362061,-0.445442515201,0.));
#32 = CARTESIAN_POINT('',(55.312518239664,3.149643795766,0.));
#33 = CARTESIAN_POINT('',(78.949432208966,2.674885926518,0.));
#34 = CARTESIAN_POINT('',(100.2475336144,-1.439876198134,0.));
#35 = CARTESIAN_POINT('',(119.01712851092,-2.023351400222,0.));
#36 = CARTESIAN_POINT('',(122.57500943449,-0.894841277219,0.));
#37 = CARTESIAN_POINT('',(131.81258591776,-4.078335419213,0.));
#38 = CARTESIAN_POINT('',(150.,5.342756704401E-02,0.));
#39 = PCURVE('',#40,#45);
#40 = PLANE('',#41);
#41 = AXIS2_PLACEMENT_3D('',#42,#43,#44);
#42 = CARTESIAN_POINT('',(75.946000139248,7.5,0.));
#43 = DIRECTION('',(0.,0.,1.));
#44 = DIRECTION('',(1.,0.,-0.));
#45 = DEFINITIONAL_REPRESENTATION('',(#46),#58);
#46 = B_SPLINE_CURVE_WITH_KNOTS('',1,(#47,#48,#49,#50,#51,#52,#53,#54,
    #55,#56,#57),.UNSPECIFIED.,.F.,.F.,(2,1,1,1,1,1,1,1,1,1,2),(0.,
    0.136609141186,0.183593064614,0.34438179747,0.386269134021,
    0.536992806164,0.675286240354,0.795006526323,0.818802892692,
    0.881094677963,1.),.UNSPECIFIED.);
#47 = CARTESIAN_POINT('',(-75.94600013924,-3.099150006458));
#48 = CARTESIAN_POINT('',(-54.57139570275,-4.607437581274));
#49 = CARTESIAN_POINT('',(-51.15076713833,-11.13513769915));
#50 = CARTESIAN_POINT('',(-26.13285377718,-7.945442515201));
#51 = CARTESIAN_POINT('',(-20.63348189958,-4.350356204234));
#52 = CARTESIAN_POINT('',(3.003432069718,-4.825114073482));
#53 = CARTESIAN_POINT('',(24.301533475157,-8.939876198134));
#54 = CARTESIAN_POINT('',(43.071128371672,-9.523351400222));
#55 = CARTESIAN_POINT('',(46.629009295248,-8.394841277219));
#56 = CARTESIAN_POINT('',(55.866585778518,-11.57833541921));
#57 = CARTESIAN_POINT('',(74.053999860752,-7.446572432956));
#58 = ( GEOMETRIC_REPRESENTATION_CONTEXT(2) 
PARAMETRIC_REPRESENTATION_CONTEXT() REPRESENTATION_CONTEXT('2D SPACE',''
  ) );
#59 = ORIENTED_EDGE('',*,*,#60,.T.);
#60 = EDGE_CURVE('',#24,#61,#63,.T.);
#61 = VERTEX_POINT('',#62);
#62 = CARTESIAN_POINT('',(150.,14.946572432956,0.));
#63 = SURFACE_CURVE('',#64,(#68),.PCURVE_S1.);
#64 = LINE('',#65,#66);
#65 = CARTESIAN_POINT('',(150.,5.342756704401E-02,0.));
#66 = VECTOR('',#67,1.);
#67 = DIRECTION('',(0.,1.,0.));
#68 = PCURVE('',#40,#69);
#69 = DEFINITIONAL_REPRESENTATION('',(#70),#74);
#70 = LINE('',#71,#72);
#71 = CARTESIAN_POINT('',(74.053999860752,-7.446572432956));
#72 = VECTOR('',#73,1.);
#73 = DIRECTION('',(0.,1.));
#74 = ( GEOMETRIC_REPRESENTATION_CONTEXT(2) 
PARAMETRIC_REPRESENTATION_CONTEXT() REPRESENTATION_CONTEXT('2D SPACE',''
  ) );
#75 = ORIENTED_EDGE('',*,*,#76,.T.);
#76 = EDGE_CURVE('',#61,#77,#79,.T.);
#77 = VERTEX_POINT('',#78);
#78 = CARTESIAN_POINT('',(0.,10.599150006458,0.));
#79 = SURFACE_CURVE('',#80,(#92),.PCURVE_S1.);
#80 = B_SPLINE_CURVE_WITH_KNOTS('',1,(#81,#82,#83,#84,#85,#86,#87,#88,
    #89,#90,#91),.UNSPECIFIED.,.F.,.F.,(2,1,1,1,1,1,1,1,1,1,2),(0.,
    0.118905322037,0.181197107308,0.204993473677,0.324713759646,
    0.463007193836,0.613730865979,0.65561820253,0.816406935386,
    0.863390858814,1.),.UNSPECIFIED.);
#81 = CARTESIAN_POINT('',(150.,14.946572432956,0.));
#82 = CARTESIAN_POINT('',(131.81258591776,19.078335419213,0.));
#83 = CARTESIAN_POINT('',(122.57500943449,15.894841277219,0.));
#84 = CARTESIAN_POINT('',(119.01712851092,17.023351400222,0.));
#85 = CARTESIAN_POINT('',(100.2475336144,16.439876198134,0.));
#86 = CARTESIAN_POINT('',(78.949432208966,12.325114073482,0.));
#87 = CARTESIAN_POINT('',(55.312518239664,11.850356204234,0.));
#88 = CARTESIAN_POINT('',(49.813146362061,15.445442515201,0.));
#89 = CARTESIAN_POINT('',(24.795233000917,18.635137699159,0.));
#90 = CARTESIAN_POINT('',(21.37460443649,12.107437581274,0.));
#91 = CARTESIAN_POINT('',(0.,10.599150006458,0.));
#92 = PCURVE('',#40,#93);
#93 = DEFINITIONAL_REPRESENTATION('',(#94),#106);
#94 = B_SPLINE_CURVE_WITH_KNOTS('',1,(#95,#96,#97,#98,#99,#100,#101,#102
    ,#103,#104,#105),.UNSPECIFIED.,.F.,.F.,(2,1,1,1,1,1,1,1,1,1,2),(0.,
    0.118905322037,0.181197107308,0.204993473677,0.324713759646,
    0.463007193836,0.613730865979,0.65561820253,0.816406935386,
    0.863390858814,1.),.UNSPECIFIED.);
#95 = CARTESIAN_POINT('',(74.053999860752,7.446572432956));
#96 = CARTESIAN_POINT('',(55.866585778518,11.578335419213));
#97 = CARTESIAN_POINT('',(46.629009295248,8.394841277219));
#98 = CARTESIAN_POINT('',(43.071128371672,9.523351400222));
#99 = CARTESIAN_POINT('',(24.301533475157,8.939876198134));
#100 = CARTESIAN_POINT('',(3.003432069718,4.825114073482));
#101 = CARTESIAN_POINT('',(-20.63348189958,4.350356204234));
#102 = CARTESIAN_POINT('',(-26.13285377718,7.945442515201));
#103 = CARTESIAN_POINT('',(-51.15076713833,11.135137699159));
#104 = CARTESIAN_POINT('',(-54.57139570275,4.607437581274));
#105 = CARTESIAN_POINT('',(-75.94600013924,3.099150006458));
#106 = ( GEOMETRIC_REPRESENTATION_CONTEXT(2) 
PARAMETRIC_REPRESENTATION_CONTEXT() REPRESENTATION_CONTEXT('2D SPACE',''
  ) );
#107 = ORIENTED_EDGE('',*,*,#108,.T.);
#108 = EDGE_CURVE('',#77,#22,#109,.T.);
#109 = SURFACE_CURVE('',#110,(#114),.PCURVE_S1.);
#110 = LINE('',#111,#112);
#111 = CARTESIAN_POINT('',(0.,10.599150006458,0.));
#112 = VECTOR('',#113,1.);
#113 = DIRECTION('',(0.,-1.,0.));
#114 = PCURVE('',#40,#115);
#115 = DEFINITIONAL_REPRESENTATION('',(#116),#120);
#116 = LINE('',#117,#118);
#117 = CARTESIAN_POINT('',(-75.94600013924,3.099150006458));
#118 = VECTOR('',#119,1.);
#119 = DIRECTION('',(0.,-1.));
#120 = ( GEOMETRIC_REPRESENTATION_CONTEXT(2) 
PARAMETRIC_REPRESENTATION_CONTEXT() REPRESENTATION_CONTEXT('2D SPACE',''
  ) );
#121 = ( GEOMETRIC_REPRESENTATION_CONTEXT(3) 
GLOBAL_UNCERTAINTY_ASSIGNED_CONTEXT((#125)) GLOBAL_UNIT_ASSIGNED_CONTEXT
((#122,#123,#124)) REPRESENTATION_CONTEXT('Context #1',
  '3D Context with UNIT and UNCERTAINTY') );
#122 = ( LENGTH_UNIT() NAMED_UNIT(*) SI_UNIT(.MILLI.,.METRE.) );
#123 = ( NAMED_UNIT(*) PLANE_ANGLE_UNIT() SI_UNIT($,.RADIAN.) );
#124 = ( NAMED_UNIT(*) SI_UNIT($,.STERADIAN.) SOLID_ANGLE_UNIT() );
#125 = UNCERTAINTY_MEASURE_WITH_UNIT(LENGTH_MEASURE(1.E-07),#122,
  'distance_accuracy_value','confusion accuracy');
#126 = PRODUCT_RELATED_PRODUCT_CATEGORY('part',$,(#7));
ENDSEC;
END-ISO-10303-21;
