ISO-10303-21;
HEADER;
FILE_DESCRIPTION(('Open CASCADE Model'),'2;1');
FILE_NAME('Open CASCADE Shape Model','2026-06-01T11:13:06',('Author'),(
    'Open CASCADE'),'Open CASCADE STEP processor 7.9','Open CASCADE 7.9'
  ,'Unknown');
FILE_SCHEMA(('AUTOMOTIVE_DESIGN { 1 0 10303 214 1 1 1 1 }'));
ENDSEC;
DATA;
#1 = APPLICATION_PROTOCOL_DEFINITION('international standard',
  'automotive_design',2000,#2);
#2 = APPLICATION_CONTEXT(
  'core data for automotive mechanical design processes');
#3 = SHAPE_DEFINITION_REPRESENTATION(#4,#10);
#4 = PRODUCT_DEFINITION_SHAPE('','',#5);
#5 = PRODUCT_DEFINITION('design','',#6,#9);
#6 = PRODUCT_DEFINITION_FORMATION('','',#7);
#7 = PRODUCT('Open CASCADE STEP translator 7.9 72',
  'Open CASCADE STEP translator 7.9 72','',(#8));
#8 = PRODUCT_CONTEXT('',#2,'mechanical');
#9 = PRODUCT_DEFINITION_CONTEXT('part definition',#2,'design');
#10 = MANIFOLD_SURFACE_SHAPE_REPRESENTATION('',(#11,#15),#121);
#11 = AXIS2_PLACEMENT_3D('',#12,#13,#14);
#12 = CARTESIAN_POINT('',(0.,0.,0.));
#13 = DIRECTION('',(0.,0.,1.));
#14 = DIRECTION('',(1.,0.,-0.));
#15 = SHELL_BASED_SURFACE_MODEL('',(#16));
#16 = OPEN_SHELL('',(#17));
#17 = ADVANCED_FACE('',(#18),#40,.T.);
#18 = FACE_BOUND('',#19,.T.);
#19 = EDGE_LOOP('',(#20,#59,#75,#107));
#20 = ORIENTED_EDGE('',*,*,#21,.T.);
#21 = EDGE_CURVE('',#22,#24,#26,.T.);
#22 = VERTEX_POINT('',#23);
#23 = CARTESIAN_POINT('',(0.,1.280856316266,0.));
#24 = VERTEX_POINT('',#25);
#25 = CARTESIAN_POINT('',(150.,-2.53990075741,0.));
#26 = SURFACE_CURVE('',#27,(#39),.PCURVE_S1.);
#27 = B_SPLINE_CURVE_WITH_KNOTS('',1,(#28,#29,#30,#31,#32,#33,#34,#35,
    #36,#37,#38),.UNSPECIFIED.,.F.,.F.,(2,1,1,1,1,1,1,1,1,1,2),(0.,
    2.732585140195E-02,0.220337851642,0.266801584982,0.314964386436,
    0.3471658504,0.444914832945,0.510792915913,0.764197277902,
    0.928487004777,1.),.UNSPECIFIED.);
#28 = CARTESIAN_POINT('',(0.,1.280856316266,0.));
#29 = CARTESIAN_POINT('',(4.017617176479,0.19435566522,0.));
#30 = CARTESIAN_POINT('',(33.263526612205,3.17316641863,0.));
#31 = CARTESIAN_POINT('',(40.248858723,2.03913268086,0.));
#32 = CARTESIAN_POINT('',(47.577696604296,1.725001164424,0.));
#33 = CARTESIAN_POINT('',(52.20361494266,3.354514215039,0.));
#34 = CARTESIAN_POINT('',(66.596654413901,-0.452157227174,0.));
#35 = CARTESIAN_POINT('',(76.533215551505,-1.845253768718,0.));
#36 = CARTESIAN_POINT('',(114.70306086208,3.870615316708,0.));
#37 = CARTESIAN_POINT('',(139.45048363953,0.169892084132,0.));
#38 = CARTESIAN_POINT('',(150.,-2.53990075741,0.));
#39 = PCURVE('',#40,#45);
#40 = PLANE('',#41);
#41 = AXIS2_PLACEMENT_3D('',#42,#43,#44);
#42 = CARTESIAN_POINT('',(76.754331347495,7.5,0.));
#43 = DIRECTION('',(0.,0.,1.));
#44 = DIRECTION('',(1.,0.,-0.));
#45 = DEFINITIONAL_REPRESENTATION('',(#46),#58);
#46 = B_SPLINE_CURVE_WITH_KNOTS('',1,(#47,#48,#49,#50,#51,#52,#53,#54,
    #55,#56,#57),.UNSPECIFIED.,.F.,.F.,(2,1,1,1,1,1,1,1,1,1,2),(0.,
    2.732585140195E-02,0.220337851642,0.266801584982,0.314964386436,
    0.3471658504,0.444914832945,0.510792915913,0.764197277902,
    0.928487004777,1.),.UNSPECIFIED.);
#47 = CARTESIAN_POINT('',(-76.75433134749,-6.219143683734));
#48 = CARTESIAN_POINT('',(-72.73671417101,-7.30564433478));
#49 = CARTESIAN_POINT('',(-43.49080473529,-4.32683358137));
#50 = CARTESIAN_POINT('',(-36.50547262449,-5.46086731914));
#51 = CARTESIAN_POINT('',(-29.17663474319,-5.774998835576));
#52 = CARTESIAN_POINT('',(-24.55071640483,-4.145485784961));
#53 = CARTESIAN_POINT('',(-10.15767693359,-7.952157227174));
#54 = CARTESIAN_POINT('',(-0.22111579599,-9.345253768718));
#55 = CARTESIAN_POINT('',(37.948729514586,-3.629384683292));
#56 = CARTESIAN_POINT('',(62.696152292038,-7.330107915868));
#57 = CARTESIAN_POINT('',(73.245668652505,-10.03990075741));
#58 = ( GEOMETRIC_REPRESENTATION_CONTEXT(2) 
PARAMETRIC_REPRESENTATION_CONTEXT() REPRESENTATION_CONTEXT('2D SPACE',''
  ) );
#59 = ORIENTED_EDGE('',*,*,#60,.T.);
#60 = EDGE_CURVE('',#24,#61,#63,.T.);
#61 = VERTEX_POINT('',#62);
#62 = CARTESIAN_POINT('',(150.,17.53990075741,0.));
#63 = SURFACE_CURVE('',#64,(#68),.PCURVE_S1.);
#64 = LINE('',#65,#66);
#65 = CARTESIAN_POINT('',(150.,-2.53990075741,0.));
#66 = VECTOR('',#67,1.);
#67 = DIRECTION('',(0.,1.,0.));
#68 = PCURVE('',#40,#69);
#69 = DEFINITIONAL_REPRESENTATION('',(#70),#74);
#70 = LINE('',#71,#72);
#71 = CARTESIAN_POINT('',(73.245668652505,-10.03990075741));
#72 = VECTOR('',#73,1.);
#73 = DIRECTION('',(0.,1.));
#74 = ( GEOMETRIC_REPRESENTATION_CONTEXT(2) 
PARAMETRIC_REPRESENTATION_CONTEXT() REPRESENTATION_CONTEXT('2D SPACE',''
  ) );
#75 = ORIENTED_EDGE('',*,*,#76,.T.);
#76 = EDGE_CURVE('',#61,#77,#79,.T.);
#77 = VERTEX_POINT('',#78);
#78 = CARTESIAN_POINT('',(0.,13.719143683734,0.));
#79 = SURFACE_CURVE('',#80,(#92),.PCURVE_S1.);
#80 = B_SPLINE_CURVE_WITH_KNOTS('',1,(#81,#82,#83,#84,#85,#86,#87,#88,
    #89,#90,#91),.UNSPECIFIED.,.F.,.F.,(2,1,1,1,1,1,1,1,1,1,2),(0.,
    7.151299522313E-02,0.235802722098,0.489207084087,0.555085167055,
    0.6528341496,0.685035613564,0.733198415018,0.779662148358,
    0.972674148598,1.),.UNSPECIFIED.);
#81 = CARTESIAN_POINT('',(150.,17.53990075741,0.));
#82 = CARTESIAN_POINT('',(139.45048363953,14.830107915868,0.));
#83 = CARTESIAN_POINT('',(114.70306086208,11.129384683292,0.));
#84 = CARTESIAN_POINT('',(76.533215551505,16.845253768718,0.));
#85 = CARTESIAN_POINT('',(66.596654413901,15.452157227174,0.));
#86 = CARTESIAN_POINT('',(52.20361494266,11.645485784961,0.));
#87 = CARTESIAN_POINT('',(47.577696604296,13.274998835576,0.));
#88 = CARTESIAN_POINT('',(40.248858723,12.96086731914,0.));
#89 = CARTESIAN_POINT('',(33.263526612205,11.82683358137,0.));
#90 = CARTESIAN_POINT('',(4.017617176479,14.80564433478,0.));
#91 = CARTESIAN_POINT('',(0.,13.719143683734,0.));
#92 = PCURVE('',#40,#93);
#93 = DEFINITIONAL_REPRESENTATION('',(#94),#106);
#94 = B_SPLINE_CURVE_WITH_KNOTS('',1,(#95,#96,#97,#98,#99,#100,#101,#102
    ,#103,#104,#105),.UNSPECIFIED.,.F.,.F.,(2,1,1,1,1,1,1,1,1,1,2),(0.,
    7.151299522313E-02,0.235802722098,0.489207084087,0.555085167055,
    0.6528341496,0.685035613564,0.733198415018,0.779662148358,
    0.972674148598,1.),.UNSPECIFIED.);
#95 = CARTESIAN_POINT('',(73.245668652505,10.03990075741));
#96 = CARTESIAN_POINT('',(62.696152292038,7.330107915868));
#97 = CARTESIAN_POINT('',(37.948729514586,3.629384683292));
#98 = CARTESIAN_POINT('',(-0.22111579599,9.345253768718));
#99 = CARTESIAN_POINT('',(-10.15767693359,7.952157227174));
#100 = CARTESIAN_POINT('',(-24.55071640483,4.145485784961));
#101 = CARTESIAN_POINT('',(-29.17663474319,5.774998835576));
#102 = CARTESIAN_POINT('',(-36.50547262449,5.46086731914));
#103 = CARTESIAN_POINT('',(-43.49080473529,4.32683358137));
#104 = CARTESIAN_POINT('',(-72.73671417101,7.30564433478));
#105 = CARTESIAN_POINT('',(-76.75433134749,6.219143683734));
#106 = ( GEOMETRIC_REPRESENTATION_CONTEXT(2) 
PARAMETRIC_REPRESENTATION_CONTEXT() REPRESENTATION_CONTEXT('2D SPACE',''
  ) );
#107 = ORIENTED_EDGE('',*,*,#108,.T.);
#108 = EDGE_CURVE('',#77,#22,#109,.T.);
#109 = SURFACE_CURVE('',#110,(#114),.PCURVE_S1.);
#110 = LINE('',#111,#112);
#111 = CARTESIAN_POINT('',(0.,13.719143683734,0.));
#112 = VECTOR('',#113,1.);
#113 = DIRECTION('',(0.,-1.,0.));
#114 = PCURVE('',#40,#115);
#115 = DEFINITIONAL_REPRESENTATION('',(#116),#120);
#116 = LINE('',#117,#118);
#117 = CARTESIAN_POINT('',(-76.75433134749,6.219143683734));
#118 = VECTOR('',#119,1.);
#119 = DIRECTION('',(0.,-1.));
#120 = ( GEOMETRIC_REPRESENTATION_CONTEXT(2) 
PARAMETRIC_REPRESENTATION_CONTEXT() REPRESENTATION_CONTEXT('2D SPACE',''
  ) );
#121 = ( GEOMETRIC_REPRESENTATION_CONTEXT(3) 
GLOBAL_UNCERTAINTY_ASSIGNED_CONTEXT((#125)) GLOBAL_UNIT_ASSIGNED_CONTEXT
((#122,#123,#124)) REPRESENTATION_CONTEXT('Context #1',
  '3D Context with UNIT and UNCERTAINTY') );
#122 = ( LENGTH_UNIT() NAMED_UNIT(*) SI_UNIT(.MILLI.,.METRE.) );
#123 = ( NAMED_UNIT(*) PLANE_ANGLE_UNIT() SI_UNIT($,.RADIAN.) );
#124 = ( NAMED_UNIT(*) SI_UNIT($,.STERADIAN.) SOLID_ANGLE_UNIT() );
#125 = UNCERTAINTY_MEASURE_WITH_UNIT(LENGTH_MEASURE(1.E-07),#122,
  'distance_accuracy_value','confusion accuracy');
#126 = PRODUCT_RELATED_PRODUCT_CATEGORY('part',$,(#7));
ENDSEC;
END-ISO-10303-21;
