ISO-10303-21;
HEADER;
FILE_DESCRIPTION(('Open CASCADE Model'),'2;1');
FILE_NAME('Open CASCADE Shape Model','2026-06-01T11:13:06',('Author'),(
    'Open CASCADE'),'Open CASCADE STEP processor 7.9','Open CASCADE 7.9'
  ,'Unknown');
FILE_SCHEMA(('AUTOMOTIVE_DESIGN { 1 0 10303 214 1 1 1 1 }'));
ENDSEC;
DATA;
#1 = APPLICATION_PROTOCOL_DEFINITION('international standard',
  'automotive_design',2000,#2);
#2 = APPLICATION_CONTEXT(
  'core data for automotive mechanical design processes');
#3 = SHAPE_DEFINITION_REPRESENTATION(#4,#10);
#4 = PRODUCT_DEFINITION_SHAPE('','',#5);
#5 = PRODUCT_DEFINITION('design','',#6,#9);
#6 = PRODUCT_DEFINITION_FORMATION('','',#7);
#7 = PRODUCT('Open CASCADE STEP translator 7.9 38',
  'Open CASCADE STEP translator 7.9 38','',(#8));
#8 = PRODUCT_CONTEXT('',#2,'mechanical');
#9 = PRODUCT_DEFINITION_CONTEXT('part definition',#2,'design');
#10 = MANIFOLD_SURFACE_SHAPE_REPRESENTATION('',(#11,#15),#121);
#11 = AXIS2_PLACEMENT_3D('',#12,#13,#14);
#12 = CARTESIAN_POINT('',(0.,0.,0.));
#13 = DIRECTION('',(0.,0.,1.));
#14 = DIRECTION('',(1.,0.,-0.));
#15 = SHELL_BASED_SURFACE_MODEL('',(#16));
#16 = OPEN_SHELL('',(#17));
#17 = ADVANCED_FACE('',(#18),#40,.T.);
#18 = FACE_BOUND('',#19,.T.);
#19 = EDGE_LOOP('',(#20,#59,#75,#107));
#20 = ORIENTED_EDGE('',*,*,#21,.T.);
#21 = EDGE_CURVE('',#22,#24,#26,.T.);
#22 = VERTEX_POINT('',#23);
#23 = CARTESIAN_POINT('',(0.,3.36576292428,0.));
#24 = VERTEX_POINT('',#25);
#25 = CARTESIAN_POINT('',(150.,3.357810220333,0.));
#26 = SURFACE_CURVE('',#27,(#39),.PCURVE_S1.);
#27 = B_SPLINE_CURVE_WITH_KNOTS('',1,(#28,#29,#30,#31,#32,#33,#34,#35,
    #36,#37,#38),.UNSPECIFIED.,.F.,.F.,(2,1,1,1,1,1,1,1,1,1,2),(0.,
    1.911812673779E-02,6.612451293352E-02,0.100974062149,0.138331293809,
    0.342510250596,0.507912112627,0.660119898954,0.727941488789,
    0.913757115402,1.),.UNSPECIFIED.);
#28 = CARTESIAN_POINT('',(0.,3.36576292428,0.));
#29 = CARTESIAN_POINT('',(3.095888199,3.2065320469,0.));
#30 = CARTESIAN_POINT('',(8.89660288514,-1.737858842367,0.));
#31 = CARTESIAN_POINT('',(12.061488325616,2.943504572021,0.));
#32 = CARTESIAN_POINT('',(17.318628450042,-6.563431423839E-02,0.));
#33 = CARTESIAN_POINT('',(50.13760059531,-4.425970283358,0.));
#34 = CARTESIAN_POINT('',(75.441083218185,4.4639315574,0.));
#35 = CARTESIAN_POINT('',(100.12112616753,4.350781782922,0.));
#36 = CARTESIAN_POINT('',(106.73169438345,-4.437761237375,0.));
#37 = CARTESIAN_POINT('',(136.63637756039,-0.761749507207,0.));
#38 = CARTESIAN_POINT('',(150.,3.357810220333,0.));
#39 = PCURVE('',#40,#45);
#40 = PLANE('',#41);
#41 = AXIS2_PLACEMENT_3D('',#42,#43,#44);
#42 = CARTESIAN_POINT('',(73.903592916231,7.5,0.));
#43 = DIRECTION('',(0.,0.,1.));
#44 = DIRECTION('',(1.,0.,-0.));
#45 = DEFINITIONAL_REPRESENTATION('',(#46),#58);
#46 = B_SPLINE_CURVE_WITH_KNOTS('',1,(#47,#48,#49,#50,#51,#52,#53,#54,
    #55,#56,#57),.UNSPECIFIED.,.F.,.F.,(2,1,1,1,1,1,1,1,1,1,2),(0.,
    1.911812673779E-02,6.612451293352E-02,0.100974062149,0.138331293809,
    0.342510250596,0.507912112627,0.660119898954,0.727941488789,
    0.913757115402,1.),.UNSPECIFIED.);
#47 = CARTESIAN_POINT('',(-73.90359291623,-4.13423707572));
#48 = CARTESIAN_POINT('',(-70.80770471723,-4.2934679531));
#49 = CARTESIAN_POINT('',(-65.00699003109,-9.237858842367));
#50 = CARTESIAN_POINT('',(-61.84210459061,-4.556495427979));
#51 = CARTESIAN_POINT('',(-56.58496446618,-7.565634314238));
#52 = CARTESIAN_POINT('',(-23.76599232092,-11.92597028335));
#53 = CARTESIAN_POINT('',(1.537490301954,-3.0360684426));
#54 = CARTESIAN_POINT('',(26.217533251307,-3.149218217078));
#55 = CARTESIAN_POINT('',(32.828101467224,-11.93776123737));
#56 = CARTESIAN_POINT('',(62.732784644167,-8.261749507207));
#57 = CARTESIAN_POINT('',(76.096407083769,-4.142189779667));
#58 = ( GEOMETRIC_REPRESENTATION_CONTEXT(2) 
PARAMETRIC_REPRESENTATION_CONTEXT() REPRESENTATION_CONTEXT('2D SPACE',''
  ) );
#59 = ORIENTED_EDGE('',*,*,#60,.T.);
#60 = EDGE_CURVE('',#24,#61,#63,.T.);
#61 = VERTEX_POINT('',#62);
#62 = CARTESIAN_POINT('',(150.,11.642189779667,0.));
#63 = SURFACE_CURVE('',#64,(#68),.PCURVE_S1.);
#64 = LINE('',#65,#66);
#65 = CARTESIAN_POINT('',(150.,3.357810220333,0.));
#66 = VECTOR('',#67,1.);
#67 = DIRECTION('',(0.,1.,0.));
#68 = PCURVE('',#40,#69);
#69 = DEFINITIONAL_REPRESENTATION('',(#70),#74);
#70 = LINE('',#71,#72);
#71 = CARTESIAN_POINT('',(76.096407083769,-4.142189779667));
#72 = VECTOR('',#73,1.);
#73 = DIRECTION('',(0.,1.));
#74 = ( GEOMETRIC_REPRESENTATION_CONTEXT(2) 
PARAMETRIC_REPRESENTATION_CONTEXT() REPRESENTATION_CONTEXT('2D SPACE',''
  ) );
#75 = ORIENTED_EDGE('',*,*,#76,.T.);
#76 = EDGE_CURVE('',#61,#77,#79,.T.);
#77 = VERTEX_POINT('',#78);
#78 = CARTESIAN_POINT('',(0.,11.63423707572,0.));
#79 = SURFACE_CURVE('',#80,(#92),.PCURVE_S1.);
#80 = B_SPLINE_CURVE_WITH_KNOTS('',1,(#81,#82,#83,#84,#85,#86,#87,#88,
    #89,#90,#91),.UNSPECIFIED.,.F.,.F.,(2,1,1,1,1,1,1,1,1,1,2),(0.,
    8.624288459803E-02,0.272058511211,0.339880101046,0.492087887373,
    0.657489749404,0.861668706191,0.899025937851,0.933875487066,
    0.980881873262,1.),.UNSPECIFIED.);
#81 = CARTESIAN_POINT('',(150.,11.642189779667,0.));
#82 = CARTESIAN_POINT('',(136.63637756039,15.761749507207,0.));
#83 = CARTESIAN_POINT('',(106.73169438345,19.437761237375,0.));
#84 = CARTESIAN_POINT('',(100.12112616753,10.649218217078,0.));
#85 = CARTESIAN_POINT('',(75.441083218185,10.5360684426,0.));
#86 = CARTESIAN_POINT('',(50.13760059531,19.425970283358,0.));
#87 = CARTESIAN_POINT('',(17.318628450042,15.065634314238,0.));
#88 = CARTESIAN_POINT('',(12.061488325616,12.056495427979,0.));
#89 = CARTESIAN_POINT('',(8.89660288514,16.737858842367,0.));
#90 = CARTESIAN_POINT('',(3.095888199,11.7934679531,0.));
#91 = CARTESIAN_POINT('',(0.,11.63423707572,0.));
#92 = PCURVE('',#40,#93);
#93 = DEFINITIONAL_REPRESENTATION('',(#94),#106);
#94 = B_SPLINE_CURVE_WITH_KNOTS('',1,(#95,#96,#97,#98,#99,#100,#101,#102
    ,#103,#104,#105),.UNSPECIFIED.,.F.,.F.,(2,1,1,1,1,1,1,1,1,1,2),(0.,
    8.624288459803E-02,0.272058511211,0.339880101046,0.492087887373,
    0.657489749404,0.861668706191,0.899025937851,0.933875487066,
    0.980881873262,1.),.UNSPECIFIED.);
#95 = CARTESIAN_POINT('',(76.096407083769,4.142189779667));
#96 = CARTESIAN_POINT('',(62.732784644167,8.261749507207));
#97 = CARTESIAN_POINT('',(32.828101467224,11.937761237375));
#98 = CARTESIAN_POINT('',(26.217533251307,3.149218217078));
#99 = CARTESIAN_POINT('',(1.537490301954,3.0360684426));
#100 = CARTESIAN_POINT('',(-23.76599232092,11.925970283358));
#101 = CARTESIAN_POINT('',(-56.58496446618,7.565634314238));
#102 = CARTESIAN_POINT('',(-61.84210459061,4.556495427979));
#103 = CARTESIAN_POINT('',(-65.00699003109,9.237858842367));
#104 = CARTESIAN_POINT('',(-70.80770471723,4.2934679531));
#105 = CARTESIAN_POINT('',(-73.90359291623,4.13423707572));
#106 = ( GEOMETRIC_REPRESENTATION_CONTEXT(2) 
PARAMETRIC_REPRESENTATION_CONTEXT() REPRESENTATION_CONTEXT('2D SPACE',''
  ) );
#107 = ORIENTED_EDGE('',*,*,#108,.T.);
#108 = EDGE_CURVE('',#77,#22,#109,.T.);
#109 = SURFACE_CURVE('',#110,(#114),.PCURVE_S1.);
#110 = LINE('',#111,#112);
#111 = CARTESIAN_POINT('',(0.,11.63423707572,0.));
#112 = VECTOR('',#113,1.);
#113 = DIRECTION('',(0.,-1.,0.));
#114 = PCURVE('',#40,#115);
#115 = DEFINITIONAL_REPRESENTATION('',(#116),#120);
#116 = LINE('',#117,#118);
#117 = CARTESIAN_POINT('',(-73.90359291623,4.13423707572));
#118 = VECTOR('',#119,1.);
#119 = DIRECTION('',(0.,-1.));
#120 = ( GEOMETRIC_REPRESENTATION_CONTEXT(2) 
PARAMETRIC_REPRESENTATION_CONTEXT() REPRESENTATION_CONTEXT('2D SPACE',''
  ) );
#121 = ( GEOMETRIC_REPRESENTATION_CONTEXT(3) 
GLOBAL_UNCERTAINTY_ASSIGNED_CONTEXT((#125)) GLOBAL_UNIT_ASSIGNED_CONTEXT
((#122,#123,#124)) REPRESENTATION_CONTEXT('Context #1',
  '3D Context with UNIT and UNCERTAINTY') );
#122 = ( LENGTH_UNIT() NAMED_UNIT(*) SI_UNIT(.MILLI.,.METRE.) );
#123 = ( NAMED_UNIT(*) PLANE_ANGLE_UNIT() SI_UNIT($,.RADIAN.) );
#124 = ( NAMED_UNIT(*) SI_UNIT($,.STERADIAN.) SOLID_ANGLE_UNIT() );
#125 = UNCERTAINTY_MEASURE_WITH_UNIT(LENGTH_MEASURE(1.E-07),#122,
  'distance_accuracy_value','confusion accuracy');
#126 = PRODUCT_RELATED_PRODUCT_CATEGORY('part',$,(#7));
ENDSEC;
END-ISO-10303-21;
