ISO-10303-21;
HEADER;
FILE_DESCRIPTION(('Open CASCADE Model'),'2;1');
FILE_NAME('Open CASCADE Shape Model','2026-06-01T11:13:05',('Author'),(
    'Open CASCADE'),'Open CASCADE STEP processor 7.9','Open CASCADE 7.9'
  ,'Unknown');
FILE_SCHEMA(('AUTOMOTIVE_DESIGN { 1 0 10303 214 1 1 1 1 }'));
ENDSEC;
DATA;
#1 = APPLICATION_PROTOCOL_DEFINITION('international standard',
  'automotive_design',2000,#2);
#2 = APPLICATION_CONTEXT(
  'core data for automotive mechanical design processes');
#3 = SHAPE_DEFINITION_REPRESENTATION(#4,#10);
#4 = PRODUCT_DEFINITION_SHAPE('','',#5);
#5 = PRODUCT_DEFINITION('design','',#6,#9);
#6 = PRODUCT_DEFINITION_FORMATION('','',#7);
#7 = PRODUCT('Open CASCADE STEP translator 7.9 12',
  'Open CASCADE STEP translator 7.9 12','',(#8));
#8 = PRODUCT_CONTEXT('',#2,'mechanical');
#9 = PRODUCT_DEFINITION_CONTEXT('part definition',#2,'design');
#10 = MANIFOLD_SURFACE_SHAPE_REPRESENTATION('',(#11,#15),#121);
#11 = AXIS2_PLACEMENT_3D('',#12,#13,#14);
#12 = CARTESIAN_POINT('',(0.,0.,0.));
#13 = DIRECTION('',(0.,0.,1.));
#14 = DIRECTION('',(1.,0.,-0.));
#15 = SHELL_BASED_SURFACE_MODEL('',(#16));
#16 = OPEN_SHELL('',(#17));
#17 = ADVANCED_FACE('',(#18),#40,.T.);
#18 = FACE_BOUND('',#19,.T.);
#19 = EDGE_LOOP('',(#20,#59,#75,#107));
#20 = ORIENTED_EDGE('',*,*,#21,.T.);
#21 = EDGE_CURVE('',#22,#24,#26,.T.);
#22 = VERTEX_POINT('',#23);
#23 = CARTESIAN_POINT('',(0.,-0.276926315391,0.));
#24 = VERTEX_POINT('',#25);
#25 = CARTESIAN_POINT('',(150.,2.269443933438,0.));
#26 = SURFACE_CURVE('',#27,(#39),.PCURVE_S1.);
#27 = B_SPLINE_CURVE_WITH_KNOTS('',1,(#28,#29,#30,#31,#32,#33,#34,#35,
    #36,#37,#38),.UNSPECIFIED.,.F.,.F.,(2,1,1,1,1,1,1,1,1,1,2),(0.,
    4.031399429195E-02,0.150602598642,0.356268403849,0.40228849182,
    0.690625690275,0.714315150677,0.740097173971,0.876361583451,
    0.941168800012,1.),.UNSPECIFIED.);
#28 = CARTESIAN_POINT('',(0.,-0.276926315391,0.));
#29 = CARTESIAN_POINT('',(6.095185271632,-0.9541423863,0.));
#30 = CARTESIAN_POINT('',(22.706457928304,-3.309650583984,0.));
#31 = CARTESIAN_POINT('',(53.902201943554,-0.927964416049,0.));
#32 = CARTESIAN_POINT('',(60.689651950789,0.786855876537,0.));
#33 = CARTESIAN_POINT('',(104.5510520816,1.132343609335,0.));
#34 = CARTESIAN_POINT('',(108.12460427638,0.667061222638,0.));
#35 = CARTESIAN_POINT('',(111.4777324717,-1.36737923022,0.));
#36 = CARTESIAN_POINT('',(132.11571842754,-3.307415685771,0.));
#37 = CARTESIAN_POINT('',(141.24466568999,0.414928061313,0.));
#38 = CARTESIAN_POINT('',(150.,2.269443933438,0.));
#39 = PCURVE('',#40,#45);
#40 = PLANE('',#41);
#41 = AXIS2_PLACEMENT_3D('',#42,#43,#44);
#42 = CARTESIAN_POINT('',(74.230227513323,7.5,0.));
#43 = DIRECTION('',(0.,0.,1.));
#44 = DIRECTION('',(1.,0.,-0.));
#45 = DEFINITIONAL_REPRESENTATION('',(#46),#58);
#46 = B_SPLINE_CURVE_WITH_KNOTS('',1,(#47,#48,#49,#50,#51,#52,#53,#54,
    #55,#56,#57),.UNSPECIFIED.,.F.,.F.,(2,1,1,1,1,1,1,1,1,1,2),(0.,
    4.031399429195E-02,0.150602598642,0.356268403849,0.40228849182,
    0.690625690275,0.714315150677,0.740097173971,0.876361583451,
    0.941168800012,1.),.UNSPECIFIED.);
#47 = CARTESIAN_POINT('',(-74.23022751332,-7.776926315391));
#48 = CARTESIAN_POINT('',(-68.13504224169,-8.4541423863));
#49 = CARTESIAN_POINT('',(-51.52376958501,-10.80965058398));
#50 = CARTESIAN_POINT('',(-20.32802556977,-8.427964416049));
#51 = CARTESIAN_POINT('',(-13.54057556253,-6.713144123463));
#52 = CARTESIAN_POINT('',(30.32082456828,-6.367656390665));
#53 = CARTESIAN_POINT('',(33.894376763064,-6.832938777362));
#54 = CARTESIAN_POINT('',(37.247504958379,-8.86737923022));
#55 = CARTESIAN_POINT('',(57.885490914222,-10.80741568577));
#56 = CARTESIAN_POINT('',(67.014438176669,-7.085071938687));
#57 = CARTESIAN_POINT('',(75.769772486677,-5.230556066562));
#58 = ( GEOMETRIC_REPRESENTATION_CONTEXT(2) 
PARAMETRIC_REPRESENTATION_CONTEXT() REPRESENTATION_CONTEXT('2D SPACE',''
  ) );
#59 = ORIENTED_EDGE('',*,*,#60,.T.);
#60 = EDGE_CURVE('',#24,#61,#63,.T.);
#61 = VERTEX_POINT('',#62);
#62 = CARTESIAN_POINT('',(150.,12.730556066562,0.));
#63 = SURFACE_CURVE('',#64,(#68),.PCURVE_S1.);
#64 = LINE('',#65,#66);
#65 = CARTESIAN_POINT('',(150.,2.269443933438,0.));
#66 = VECTOR('',#67,1.);
#67 = DIRECTION('',(0.,1.,0.));
#68 = PCURVE('',#40,#69);
#69 = DEFINITIONAL_REPRESENTATION('',(#70),#74);
#70 = LINE('',#71,#72);
#71 = CARTESIAN_POINT('',(75.769772486677,-5.230556066562));
#72 = VECTOR('',#73,1.);
#73 = DIRECTION('',(0.,1.));
#74 = ( GEOMETRIC_REPRESENTATION_CONTEXT(2) 
PARAMETRIC_REPRESENTATION_CONTEXT() REPRESENTATION_CONTEXT('2D SPACE',''
  ) );
#75 = ORIENTED_EDGE('',*,*,#76,.T.);
#76 = EDGE_CURVE('',#61,#77,#79,.T.);
#77 = VERTEX_POINT('',#78);
#78 = CARTESIAN_POINT('',(0.,15.276926315391,0.));
#79 = SURFACE_CURVE('',#80,(#92),.PCURVE_S1.);
#80 = B_SPLINE_CURVE_WITH_KNOTS('',1,(#81,#82,#83,#84,#85,#86,#87,#88,
    #89,#90,#91),.UNSPECIFIED.,.F.,.F.,(2,1,1,1,1,1,1,1,1,1,2),(0.,
    5.883119998767E-02,0.123638416549,0.259902826029,0.285684849323,
    0.309374309725,0.59771150818,0.643731596151,0.849397401358,
    0.959686005708,1.),.UNSPECIFIED.);
#81 = CARTESIAN_POINT('',(150.,12.730556066562,0.));
#82 = CARTESIAN_POINT('',(141.24466568999,14.585071938687,0.));
#83 = CARTESIAN_POINT('',(132.11571842754,18.307415685771,0.));
#84 = CARTESIAN_POINT('',(111.4777324717,16.36737923022,0.));
#85 = CARTESIAN_POINT('',(108.12460427638,14.332938777362,0.));
#86 = CARTESIAN_POINT('',(104.5510520816,13.867656390665,0.));
#87 = CARTESIAN_POINT('',(60.689651950789,14.213144123463,0.));
#88 = CARTESIAN_POINT('',(53.902201943554,15.927964416049,0.));
#89 = CARTESIAN_POINT('',(22.706457928304,18.309650583984,0.));
#90 = CARTESIAN_POINT('',(6.095185271632,15.9541423863,0.));
#91 = CARTESIAN_POINT('',(0.,15.276926315391,0.));
#92 = PCURVE('',#40,#93);
#93 = DEFINITIONAL_REPRESENTATION('',(#94),#106);
#94 = B_SPLINE_CURVE_WITH_KNOTS('',1,(#95,#96,#97,#98,#99,#100,#101,#102
    ,#103,#104,#105),.UNSPECIFIED.,.F.,.F.,(2,1,1,1,1,1,1,1,1,1,2),(0.,
    5.883119998767E-02,0.123638416549,0.259902826029,0.285684849323,
    0.309374309725,0.59771150818,0.643731596151,0.849397401358,
    0.959686005708,1.),.UNSPECIFIED.);
#95 = CARTESIAN_POINT('',(75.769772486677,5.230556066562));
#96 = CARTESIAN_POINT('',(67.014438176669,7.085071938687));
#97 = CARTESIAN_POINT('',(57.885490914222,10.807415685771));
#98 = CARTESIAN_POINT('',(37.247504958379,8.86737923022));
#99 = CARTESIAN_POINT('',(33.894376763064,6.832938777362));
#100 = CARTESIAN_POINT('',(30.32082456828,6.367656390665));
#101 = CARTESIAN_POINT('',(-13.54057556253,6.713144123463));
#102 = CARTESIAN_POINT('',(-20.32802556977,8.427964416049));
#103 = CARTESIAN_POINT('',(-51.52376958501,10.809650583984));
#104 = CARTESIAN_POINT('',(-68.13504224169,8.4541423863));
#105 = CARTESIAN_POINT('',(-74.23022751332,7.776926315391));
#106 = ( GEOMETRIC_REPRESENTATION_CONTEXT(2) 
PARAMETRIC_REPRESENTATION_CONTEXT() REPRESENTATION_CONTEXT('2D SPACE',''
  ) );
#107 = ORIENTED_EDGE('',*,*,#108,.T.);
#108 = EDGE_CURVE('',#77,#22,#109,.T.);
#109 = SURFACE_CURVE('',#110,(#114),.PCURVE_S1.);
#110 = LINE('',#111,#112);
#111 = CARTESIAN_POINT('',(0.,15.276926315391,0.));
#112 = VECTOR('',#113,1.);
#113 = DIRECTION('',(0.,-1.,0.));
#114 = PCURVE('',#40,#115);
#115 = DEFINITIONAL_REPRESENTATION('',(#116),#120);
#116 = LINE('',#117,#118);
#117 = CARTESIAN_POINT('',(-74.23022751332,7.776926315391));
#118 = VECTOR('',#119,1.);
#119 = DIRECTION('',(0.,-1.));
#120 = ( GEOMETRIC_REPRESENTATION_CONTEXT(2) 
PARAMETRIC_REPRESENTATION_CONTEXT() REPRESENTATION_CONTEXT('2D SPACE',''
  ) );
#121 = ( GEOMETRIC_REPRESENTATION_CONTEXT(3) 
GLOBAL_UNCERTAINTY_ASSIGNED_CONTEXT((#125)) GLOBAL_UNIT_ASSIGNED_CONTEXT
((#122,#123,#124)) REPRESENTATION_CONTEXT('Context #1',
  '3D Context with UNIT and UNCERTAINTY') );
#122 = ( LENGTH_UNIT() NAMED_UNIT(*) SI_UNIT(.MILLI.,.METRE.) );
#123 = ( NAMED_UNIT(*) PLANE_ANGLE_UNIT() SI_UNIT($,.RADIAN.) );
#124 = ( NAMED_UNIT(*) SI_UNIT($,.STERADIAN.) SOLID_ANGLE_UNIT() );
#125 = UNCERTAINTY_MEASURE_WITH_UNIT(LENGTH_MEASURE(1.E-07),#122,
  'distance_accuracy_value','confusion accuracy');
#126 = PRODUCT_RELATED_PRODUCT_CATEGORY('part',$,(#7));
ENDSEC;
END-ISO-10303-21;
