ISO-10303-21;
HEADER;
FILE_DESCRIPTION(('Open CASCADE Model'),'2;1');
FILE_NAME('Open CASCADE Shape Model','2026-06-01T11:13:05',('Author'),(
    'Open CASCADE'),'Open CASCADE STEP processor 7.9','Open CASCADE 7.9'
  ,'Unknown');
FILE_SCHEMA(('AUTOMOTIVE_DESIGN { 1 0 10303 214 1 1 1 1 }'));
ENDSEC;
DATA;
#1 = APPLICATION_PROTOCOL_DEFINITION('international standard',
  'automotive_design',2000,#2);
#2 = APPLICATION_CONTEXT(
  'core data for automotive mechanical design processes');
#3 = SHAPE_DEFINITION_REPRESENTATION(#4,#10);
#4 = PRODUCT_DEFINITION_SHAPE('','',#5);
#5 = PRODUCT_DEFINITION('design','',#6,#9);
#6 = PRODUCT_DEFINITION_FORMATION('','',#7);
#7 = PRODUCT('Open CASCADE STEP translator 7.9 15',
  'Open CASCADE STEP translator 7.9 15','',(#8));
#8 = PRODUCT_CONTEXT('',#2,'mechanical');
#9 = PRODUCT_DEFINITION_CONTEXT('part definition',#2,'design');
#10 = MANIFOLD_SURFACE_SHAPE_REPRESENTATION('',(#11,#15),#121);
#11 = AXIS2_PLACEMENT_3D('',#12,#13,#14);
#12 = CARTESIAN_POINT('',(0.,0.,0.));
#13 = DIRECTION('',(0.,0.,1.));
#14 = DIRECTION('',(1.,0.,-0.));
#15 = SHELL_BASED_SURFACE_MODEL('',(#16));
#16 = OPEN_SHELL('',(#17));
#17 = ADVANCED_FACE('',(#18),#40,.T.);
#18 = FACE_BOUND('',#19,.T.);
#19 = EDGE_LOOP('',(#20,#59,#75,#107));
#20 = ORIENTED_EDGE('',*,*,#21,.T.);
#21 = EDGE_CURVE('',#22,#24,#26,.T.);
#22 = VERTEX_POINT('',#23);
#23 = CARTESIAN_POINT('',(0.,1.034194535097,0.));
#24 = VERTEX_POINT('',#25);
#25 = CARTESIAN_POINT('',(150.,1.084823282458,0.));
#26 = SURFACE_CURVE('',#27,(#39),.PCURVE_S1.);
#27 = B_SPLINE_CURVE_WITH_KNOTS('',1,(#28,#29,#30,#31,#32,#33,#34,#35,
    #36,#37,#38),.UNSPECIFIED.,.F.,.F.,(2,1,1,1,1,1,1,1,1,1,2),(0.,
    0.159484093135,0.376455146283,0.481539123514,0.609214736341,
    0.696590953989,0.730154410891,0.822037469559,0.852173138906,
    0.932887674698,1.),.UNSPECIFIED.);
#28 = CARTESIAN_POINT('',(0.,1.034194535097,0.));
#29 = CARTESIAN_POINT('',(23.96085674941,-1.256069441134,0.));
#30 = CARTESIAN_POINT('',(56.534493986412,2.101830142492,0.));
#31 = CARTESIAN_POINT('',(72.353202078346,3.242084301414,0.));
#32 = CARTESIAN_POINT('',(91.380798068701,0.199104533786,0.));
#33 = CARTESIAN_POINT('',(104.55658548416,0.747995682646,0.));
#34 = CARTESIAN_POINT('',(109.34280784291,2.40687053524,0.));
#35 = CARTESIAN_POINT('',(123.15693341134,1.192393708964,0.));
#36 = CARTESIAN_POINT('',(127.70513434087,1.202467951564,0.));
#37 = CARTESIAN_POINT('',(139.88190757046,1.552539920287,0.));
#38 = CARTESIAN_POINT('',(150.,1.084823282458,0.));
#39 = PCURVE('',#40,#45);
#40 = PLANE('',#41);
#41 = AXIS2_PLACEMENT_3D('',#42,#43,#44);
#42 = CARTESIAN_POINT('',(74.981598256825,7.5,0.));
#43 = DIRECTION('',(0.,0.,1.));
#44 = DIRECTION('',(1.,0.,-0.));
#45 = DEFINITIONAL_REPRESENTATION('',(#46),#58);
#46 = B_SPLINE_CURVE_WITH_KNOTS('',1,(#47,#48,#49,#50,#51,#52,#53,#54,
    #55,#56,#57),.UNSPECIFIED.,.F.,.F.,(2,1,1,1,1,1,1,1,1,1,2),(0.,
    0.159484093135,0.376455146283,0.481539123514,0.609214736341,
    0.696590953989,0.730154410891,0.822037469559,0.852173138906,
    0.932887674698,1.),.UNSPECIFIED.);
#47 = CARTESIAN_POINT('',(-74.98159825682,-6.465805464903));
#48 = CARTESIAN_POINT('',(-51.02074150741,-8.756069441134));
#49 = CARTESIAN_POINT('',(-18.44710427041,-5.398169857508));
#50 = CARTESIAN_POINT('',(-2.62839617848,-4.257915698586));
#51 = CARTESIAN_POINT('',(16.399199811876,-7.300895466214));
#52 = CARTESIAN_POINT('',(29.574987227335,-6.752004317354));
#53 = CARTESIAN_POINT('',(34.361209586091,-5.09312946476));
#54 = CARTESIAN_POINT('',(48.175335154518,-6.307606291036));
#55 = CARTESIAN_POINT('',(52.723536084047,-6.297532048436));
#56 = CARTESIAN_POINT('',(64.900309313642,-5.947460079713));
#57 = CARTESIAN_POINT('',(75.018401743175,-6.415176717542));
#58 = ( GEOMETRIC_REPRESENTATION_CONTEXT(2) 
PARAMETRIC_REPRESENTATION_CONTEXT() REPRESENTATION_CONTEXT('2D SPACE',''
  ) );
#59 = ORIENTED_EDGE('',*,*,#60,.T.);
#60 = EDGE_CURVE('',#24,#61,#63,.T.);
#61 = VERTEX_POINT('',#62);
#62 = CARTESIAN_POINT('',(150.,13.915176717542,0.));
#63 = SURFACE_CURVE('',#64,(#68),.PCURVE_S1.);
#64 = LINE('',#65,#66);
#65 = CARTESIAN_POINT('',(150.,1.084823282458,0.));
#66 = VECTOR('',#67,1.);
#67 = DIRECTION('',(0.,1.,0.));
#68 = PCURVE('',#40,#69);
#69 = DEFINITIONAL_REPRESENTATION('',(#70),#74);
#70 = LINE('',#71,#72);
#71 = CARTESIAN_POINT('',(75.018401743175,-6.415176717542));
#72 = VECTOR('',#73,1.);
#73 = DIRECTION('',(0.,1.));
#74 = ( GEOMETRIC_REPRESENTATION_CONTEXT(2) 
PARAMETRIC_REPRESENTATION_CONTEXT() REPRESENTATION_CONTEXT('2D SPACE',''
  ) );
#75 = ORIENTED_EDGE('',*,*,#76,.T.);
#76 = EDGE_CURVE('',#61,#77,#79,.T.);
#77 = VERTEX_POINT('',#78);
#78 = CARTESIAN_POINT('',(0.,13.965805464903,0.));
#79 = SURFACE_CURVE('',#80,(#92),.PCURVE_S1.);
#80 = B_SPLINE_CURVE_WITH_KNOTS('',1,(#81,#82,#83,#84,#85,#86,#87,#88,
    #89,#90,#91),.UNSPECIFIED.,.F.,.F.,(2,1,1,1,1,1,1,1,1,1,2),(0.,
    6.711232530177E-02,0.147826861094,0.177962530441,0.269845589109,
    0.303409046011,0.390785263659,0.518460876486,0.623544853717,
    0.840515906865,1.),.UNSPECIFIED.);
#81 = CARTESIAN_POINT('',(150.,13.915176717542,0.));
#82 = CARTESIAN_POINT('',(139.88190757046,13.447460079713,0.));
#83 = CARTESIAN_POINT('',(127.70513434087,13.797532048436,0.));
#84 = CARTESIAN_POINT('',(123.15693341134,13.807606291036,0.));
#85 = CARTESIAN_POINT('',(109.34280784291,12.59312946476,0.));
#86 = CARTESIAN_POINT('',(104.55658548416,14.252004317354,0.));
#87 = CARTESIAN_POINT('',(91.380798068701,14.800895466214,0.));
#88 = CARTESIAN_POINT('',(72.353202078346,11.757915698586,0.));
#89 = CARTESIAN_POINT('',(56.534493986412,12.898169857508,0.));
#90 = CARTESIAN_POINT('',(23.96085674941,16.256069441134,0.));
#91 = CARTESIAN_POINT('',(0.,13.965805464903,0.));
#92 = PCURVE('',#40,#93);
#93 = DEFINITIONAL_REPRESENTATION('',(#94),#106);
#94 = B_SPLINE_CURVE_WITH_KNOTS('',1,(#95,#96,#97,#98,#99,#100,#101,#102
    ,#103,#104,#105),.UNSPECIFIED.,.F.,.F.,(2,1,1,1,1,1,1,1,1,1,2),(0.,
    6.711232530177E-02,0.147826861094,0.177962530441,0.269845589109,
    0.303409046011,0.390785263659,0.518460876486,0.623544853717,
    0.840515906865,1.),.UNSPECIFIED.);
#95 = CARTESIAN_POINT('',(75.018401743175,6.415176717542));
#96 = CARTESIAN_POINT('',(64.900309313642,5.947460079713));
#97 = CARTESIAN_POINT('',(52.723536084047,6.297532048436));
#98 = CARTESIAN_POINT('',(48.175335154518,6.307606291036));
#99 = CARTESIAN_POINT('',(34.361209586091,5.09312946476));
#100 = CARTESIAN_POINT('',(29.574987227335,6.752004317354));
#101 = CARTESIAN_POINT('',(16.399199811876,7.300895466214));
#102 = CARTESIAN_POINT('',(-2.62839617848,4.257915698586));
#103 = CARTESIAN_POINT('',(-18.44710427041,5.398169857508));
#104 = CARTESIAN_POINT('',(-51.02074150741,8.756069441134));
#105 = CARTESIAN_POINT('',(-74.98159825682,6.465805464903));
#106 = ( GEOMETRIC_REPRESENTATION_CONTEXT(2) 
PARAMETRIC_REPRESENTATION_CONTEXT() REPRESENTATION_CONTEXT('2D SPACE',''
  ) );
#107 = ORIENTED_EDGE('',*,*,#108,.T.);
#108 = EDGE_CURVE('',#77,#22,#109,.T.);
#109 = SURFACE_CURVE('',#110,(#114),.PCURVE_S1.);
#110 = LINE('',#111,#112);
#111 = CARTESIAN_POINT('',(0.,13.965805464903,0.));
#112 = VECTOR('',#113,1.);
#113 = DIRECTION('',(0.,-1.,0.));
#114 = PCURVE('',#40,#115);
#115 = DEFINITIONAL_REPRESENTATION('',(#116),#120);
#116 = LINE('',#117,#118);
#117 = CARTESIAN_POINT('',(-74.98159825682,6.465805464903));
#118 = VECTOR('',#119,1.);
#119 = DIRECTION('',(0.,-1.));
#120 = ( GEOMETRIC_REPRESENTATION_CONTEXT(2) 
PARAMETRIC_REPRESENTATION_CONTEXT() REPRESENTATION_CONTEXT('2D SPACE',''
  ) );
#121 = ( GEOMETRIC_REPRESENTATION_CONTEXT(3) 
GLOBAL_UNCERTAINTY_ASSIGNED_CONTEXT((#125)) GLOBAL_UNIT_ASSIGNED_CONTEXT
((#122,#123,#124)) REPRESENTATION_CONTEXT('Context #1',
  '3D Context with UNIT and UNCERTAINTY') );
#122 = ( LENGTH_UNIT() NAMED_UNIT(*) SI_UNIT(.MILLI.,.METRE.) );
#123 = ( NAMED_UNIT(*) PLANE_ANGLE_UNIT() SI_UNIT($,.RADIAN.) );
#124 = ( NAMED_UNIT(*) SI_UNIT($,.STERADIAN.) SOLID_ANGLE_UNIT() );
#125 = UNCERTAINTY_MEASURE_WITH_UNIT(LENGTH_MEASURE(1.E-07),#122,
  'distance_accuracy_value','confusion accuracy');
#126 = PRODUCT_RELATED_PRODUCT_CATEGORY('part',$,(#7));
ENDSEC;
END-ISO-10303-21;
