ISO-10303-21;
HEADER;
FILE_DESCRIPTION(('Open CASCADE Model'),'2;1');
FILE_NAME('Open CASCADE Shape Model','2026-06-01T11:13:06',('Author'),(
    'Open CASCADE'),'Open CASCADE STEP processor 7.9','Open CASCADE 7.9'
  ,'Unknown');
FILE_SCHEMA(('AUTOMOTIVE_DESIGN { 1 0 10303 214 1 1 1 1 }'));
ENDSEC;
DATA;
#1 = APPLICATION_PROTOCOL_DEFINITION('international standard',
  'automotive_design',2000,#2);
#2 = APPLICATION_CONTEXT(
  'core data for automotive mechanical design processes');
#3 = SHAPE_DEFINITION_REPRESENTATION(#4,#10);
#4 = PRODUCT_DEFINITION_SHAPE('','',#5);
#5 = PRODUCT_DEFINITION('design','',#6,#9);
#6 = PRODUCT_DEFINITION_FORMATION('','',#7);
#7 = PRODUCT('Open CASCADE STEP translator 7.9 41',
  'Open CASCADE STEP translator 7.9 41','',(#8));
#8 = PRODUCT_CONTEXT('',#2,'mechanical');
#9 = PRODUCT_DEFINITION_CONTEXT('part definition',#2,'design');
#10 = MANIFOLD_SURFACE_SHAPE_REPRESENTATION('',(#11,#15),#121);
#11 = AXIS2_PLACEMENT_3D('',#12,#13,#14);
#12 = CARTESIAN_POINT('',(0.,0.,0.));
#13 = DIRECTION('',(0.,0.,1.));
#14 = DIRECTION('',(1.,0.,-0.));
#15 = SHELL_BASED_SURFACE_MODEL('',(#16));
#16 = OPEN_SHELL('',(#17));
#17 = ADVANCED_FACE('',(#18),#40,.T.);
#18 = FACE_BOUND('',#19,.T.);
#19 = EDGE_LOOP('',(#20,#59,#75,#107));
#20 = ORIENTED_EDGE('',*,*,#21,.T.);
#21 = EDGE_CURVE('',#22,#24,#26,.T.);
#22 = VERTEX_POINT('',#23);
#23 = CARTESIAN_POINT('',(0.,-2.682876922365,0.));
#24 = VERTEX_POINT('',#25);
#25 = CARTESIAN_POINT('',(150.,1.627807602603,0.));
#26 = SURFACE_CURVE('',#27,(#39),.PCURVE_S1.);
#27 = B_SPLINE_CURVE_WITH_KNOTS('',1,(#28,#29,#30,#31,#32,#33,#34,#35,
    #36,#37,#38),.UNSPECIFIED.,.F.,.F.,(2,1,1,1,1,1,1,1,1,1,2),(0.,
    0.13971687815,0.164845434158,0.27196445125,0.457975283855,
    0.546851506934,0.679022867415,0.726489845362,0.758165987111,
    0.940229356991,1.),.UNSPECIFIED.);
#28 = CARTESIAN_POINT('',(0.,-2.682876922365,0.));
#29 = CARTESIAN_POINT('',(21.077003924546,3.601237705553,0.));
#30 = CARTESIAN_POINT('',(24.919165918232,2.660423696267,0.));
#31 = CARTESIAN_POINT('',(41.068174976492,-2.192403285969,0.));
#32 = CARTESIAN_POINT('',(69.622558540486,4.291739148762,0.));
#33 = CARTESIAN_POINT('',(80.654183921435,-4.313021703366,0.));
#34 = CARTESIAN_POINT('',(100.74224217679,1.105697876799,0.));
#35 = CARTESIAN_POINT('',(107.55027505915,-1.973812803217,0.));
#36 = CARTESIAN_POINT('',(112.30114412146,-3.488139796392,0.));
#37 = CARTESIAN_POINT('',(140.61562766129,0.948331006649,0.));
#38 = CARTESIAN_POINT('',(150.,1.627807602603,0.));
#39 = PCURVE('',#40,#45);
#40 = PLANE('',#41);
#41 = AXIS2_PLACEMENT_3D('',#42,#43,#44);
#42 = CARTESIAN_POINT('',(72.84521834792,7.5,0.));
#43 = DIRECTION('',(0.,0.,1.));
#44 = DIRECTION('',(1.,0.,-0.));
#45 = DEFINITIONAL_REPRESENTATION('',(#46),#58);
#46 = B_SPLINE_CURVE_WITH_KNOTS('',1,(#47,#48,#49,#50,#51,#52,#53,#54,
    #55,#56,#57),.UNSPECIFIED.,.F.,.F.,(2,1,1,1,1,1,1,1,1,1,2),(0.,
    0.13971687815,0.164845434158,0.27196445125,0.457975283855,
    0.546851506934,0.679022867415,0.726489845362,0.758165987111,
    0.940229356991,1.),.UNSPECIFIED.);
#47 = CARTESIAN_POINT('',(-72.84521834792,-10.18287692236));
#48 = CARTESIAN_POINT('',(-51.76821442337,-3.898762294447));
#49 = CARTESIAN_POINT('',(-47.92605242968,-4.839576303733));
#50 = CARTESIAN_POINT('',(-31.77704337142,-9.692403285969));
#51 = CARTESIAN_POINT('',(-3.222659807434,-3.208260851238));
#52 = CARTESIAN_POINT('',(7.808965573515,-11.81302170336));
#53 = CARTESIAN_POINT('',(27.897023828879,-6.394302123201));
#54 = CARTESIAN_POINT('',(34.705056711235,-9.473812803217));
#55 = CARTESIAN_POINT('',(39.455925773541,-10.98813979639));
#56 = CARTESIAN_POINT('',(67.770409313377,-6.551668993351));
#57 = CARTESIAN_POINT('',(77.15478165208,-5.872192397397));
#58 = ( GEOMETRIC_REPRESENTATION_CONTEXT(2) 
PARAMETRIC_REPRESENTATION_CONTEXT() REPRESENTATION_CONTEXT('2D SPACE',''
  ) );
#59 = ORIENTED_EDGE('',*,*,#60,.T.);
#60 = EDGE_CURVE('',#24,#61,#63,.T.);
#61 = VERTEX_POINT('',#62);
#62 = CARTESIAN_POINT('',(150.,13.372192397397,0.));
#63 = SURFACE_CURVE('',#64,(#68),.PCURVE_S1.);
#64 = LINE('',#65,#66);
#65 = CARTESIAN_POINT('',(150.,1.627807602603,0.));
#66 = VECTOR('',#67,1.);
#67 = DIRECTION('',(0.,1.,0.));
#68 = PCURVE('',#40,#69);
#69 = DEFINITIONAL_REPRESENTATION('',(#70),#74);
#70 = LINE('',#71,#72);
#71 = CARTESIAN_POINT('',(77.15478165208,-5.872192397397));
#72 = VECTOR('',#73,1.);
#73 = DIRECTION('',(0.,1.));
#74 = ( GEOMETRIC_REPRESENTATION_CONTEXT(2) 
PARAMETRIC_REPRESENTATION_CONTEXT() REPRESENTATION_CONTEXT('2D SPACE',''
  ) );
#75 = ORIENTED_EDGE('',*,*,#76,.T.);
#76 = EDGE_CURVE('',#61,#77,#79,.T.);
#77 = VERTEX_POINT('',#78);
#78 = CARTESIAN_POINT('',(0.,17.682876922365,0.));
#79 = SURFACE_CURVE('',#80,(#92),.PCURVE_S1.);
#80 = B_SPLINE_CURVE_WITH_KNOTS('',1,(#81,#82,#83,#84,#85,#86,#87,#88,
    #89,#90,#91),.UNSPECIFIED.,.F.,.F.,(2,1,1,1,1,1,1,1,1,1,2),(0.,
    5.977064300926E-02,0.241834012889,0.273510154638,0.320977132585,
    0.453148493066,0.542024716145,0.72803554875,0.835154565842,
    0.86028312185,1.),.UNSPECIFIED.);
#81 = CARTESIAN_POINT('',(150.,13.372192397397,0.));
#82 = CARTESIAN_POINT('',(140.61562766129,14.051668993351,0.));
#83 = CARTESIAN_POINT('',(112.30114412146,18.488139796392,0.));
#84 = CARTESIAN_POINT('',(107.55027505915,16.973812803217,0.));
#85 = CARTESIAN_POINT('',(100.74224217679,13.894302123201,0.));
#86 = CARTESIAN_POINT('',(80.654183921435,19.313021703366,0.));
#87 = CARTESIAN_POINT('',(69.622558540486,10.708260851238,0.));
#88 = CARTESIAN_POINT('',(41.068174976492,17.192403285969,0.));
#89 = CARTESIAN_POINT('',(24.919165918232,12.339576303733,0.));
#90 = CARTESIAN_POINT('',(21.077003924546,11.398762294447,0.));
#91 = CARTESIAN_POINT('',(0.,17.682876922365,0.));
#92 = PCURVE('',#40,#93);
#93 = DEFINITIONAL_REPRESENTATION('',(#94),#106);
#94 = B_SPLINE_CURVE_WITH_KNOTS('',1,(#95,#96,#97,#98,#99,#100,#101,#102
    ,#103,#104,#105),.UNSPECIFIED.,.F.,.F.,(2,1,1,1,1,1,1,1,1,1,2),(0.,
    5.977064300926E-02,0.241834012889,0.273510154638,0.320977132585,
    0.453148493066,0.542024716145,0.72803554875,0.835154565842,
    0.86028312185,1.),.UNSPECIFIED.);
#95 = CARTESIAN_POINT('',(77.15478165208,5.872192397397));
#96 = CARTESIAN_POINT('',(67.770409313377,6.551668993351));
#97 = CARTESIAN_POINT('',(39.455925773541,10.988139796392));
#98 = CARTESIAN_POINT('',(34.705056711235,9.473812803217));
#99 = CARTESIAN_POINT('',(27.897023828879,6.394302123201));
#100 = CARTESIAN_POINT('',(7.808965573515,11.813021703366));
#101 = CARTESIAN_POINT('',(-3.222659807434,3.208260851238));
#102 = CARTESIAN_POINT('',(-31.77704337142,9.692403285969));
#103 = CARTESIAN_POINT('',(-47.92605242968,4.839576303733));
#104 = CARTESIAN_POINT('',(-51.76821442337,3.898762294447));
#105 = CARTESIAN_POINT('',(-72.84521834792,10.182876922365));
#106 = ( GEOMETRIC_REPRESENTATION_CONTEXT(2) 
PARAMETRIC_REPRESENTATION_CONTEXT() REPRESENTATION_CONTEXT('2D SPACE',''
  ) );
#107 = ORIENTED_EDGE('',*,*,#108,.T.);
#108 = EDGE_CURVE('',#77,#22,#109,.T.);
#109 = SURFACE_CURVE('',#110,(#114),.PCURVE_S1.);
#110 = LINE('',#111,#112);
#111 = CARTESIAN_POINT('',(0.,17.682876922365,0.));
#112 = VECTOR('',#113,1.);
#113 = DIRECTION('',(0.,-1.,0.));
#114 = PCURVE('',#40,#115);
#115 = DEFINITIONAL_REPRESENTATION('',(#116),#120);
#116 = LINE('',#117,#118);
#117 = CARTESIAN_POINT('',(-72.84521834792,10.182876922365));
#118 = VECTOR('',#119,1.);
#119 = DIRECTION('',(0.,-1.));
#120 = ( GEOMETRIC_REPRESENTATION_CONTEXT(2) 
PARAMETRIC_REPRESENTATION_CONTEXT() REPRESENTATION_CONTEXT('2D SPACE',''
  ) );
#121 = ( GEOMETRIC_REPRESENTATION_CONTEXT(3) 
GLOBAL_UNCERTAINTY_ASSIGNED_CONTEXT((#125)) GLOBAL_UNIT_ASSIGNED_CONTEXT
((#122,#123,#124)) REPRESENTATION_CONTEXT('Context #1',
  '3D Context with UNIT and UNCERTAINTY') );
#122 = ( LENGTH_UNIT() NAMED_UNIT(*) SI_UNIT(.MILLI.,.METRE.) );
#123 = ( NAMED_UNIT(*) PLANE_ANGLE_UNIT() SI_UNIT($,.RADIAN.) );
#124 = ( NAMED_UNIT(*) SI_UNIT($,.STERADIAN.) SOLID_ANGLE_UNIT() );
#125 = UNCERTAINTY_MEASURE_WITH_UNIT(LENGTH_MEASURE(1.E-07),#122,
  'distance_accuracy_value','confusion accuracy');
#126 = PRODUCT_RELATED_PRODUCT_CATEGORY('part',$,(#7));
ENDSEC;
END-ISO-10303-21;
