ISO-10303-21;
HEADER;
FILE_DESCRIPTION(('Open CASCADE Model'),'2;1');
FILE_NAME('Open CASCADE Shape Model','2026-06-01T11:13:06',('Author'),(
    'Open CASCADE'),'Open CASCADE STEP processor 7.9','Open CASCADE 7.9'
  ,'Unknown');
FILE_SCHEMA(('AUTOMOTIVE_DESIGN { 1 0 10303 214 1 1 1 1 }'));
ENDSEC;
DATA;
#1 = APPLICATION_PROTOCOL_DEFINITION('international standard',
  'automotive_design',2000,#2);
#2 = APPLICATION_CONTEXT(
  'core data for automotive mechanical design processes');
#3 = SHAPE_DEFINITION_REPRESENTATION(#4,#10);
#4 = PRODUCT_DEFINITION_SHAPE('','',#5);
#5 = PRODUCT_DEFINITION('design','',#6,#9);
#6 = PRODUCT_DEFINITION_FORMATION('','',#7);
#7 = PRODUCT('Open CASCADE STEP translator 7.9 49',
  'Open CASCADE STEP translator 7.9 49','',(#8));
#8 = PRODUCT_CONTEXT('',#2,'mechanical');
#9 = PRODUCT_DEFINITION_CONTEXT('part definition',#2,'design');
#10 = MANIFOLD_SURFACE_SHAPE_REPRESENTATION('',(#11,#15),#121);
#11 = AXIS2_PLACEMENT_3D('',#12,#13,#14);
#12 = CARTESIAN_POINT('',(0.,0.,0.));
#13 = DIRECTION('',(0.,0.,1.));
#14 = DIRECTION('',(1.,0.,-0.));
#15 = SHELL_BASED_SURFACE_MODEL('',(#16));
#16 = OPEN_SHELL('',(#17));
#17 = ADVANCED_FACE('',(#18),#40,.T.);
#18 = FACE_BOUND('',#19,.T.);
#19 = EDGE_LOOP('',(#20,#59,#75,#107));
#20 = ORIENTED_EDGE('',*,*,#21,.T.);
#21 = EDGE_CURVE('',#22,#24,#26,.T.);
#22 = VERTEX_POINT('',#23);
#23 = CARTESIAN_POINT('',(0.,3.367736835189,0.));
#24 = VERTEX_POINT('',#25);
#25 = CARTESIAN_POINT('',(150.,2.279876604965,0.));
#26 = SURFACE_CURVE('',#27,(#39),.PCURVE_S1.);
#27 = B_SPLINE_CURVE_WITH_KNOTS('',1,(#28,#29,#30,#31,#32,#33,#34,#35,
    #36,#37,#38),.UNSPECIFIED.,.F.,.F.,(2,1,1,1,1,1,1,1,1,1,2),(0.,
    9.189313767351E-02,0.244807470851,0.277027023311,0.431384946769,
    0.661860627049,0.803681966265,0.856080297239,0.907151467096,
    0.953507587167,1.),.UNSPECIFIED.);
#28 = CARTESIAN_POINT('',(0.,3.367736835189,0.));
#29 = CARTESIAN_POINT('',(14.318272397086,3.674486888469,0.));
#30 = CARTESIAN_POINT('',(37.579802912259,-1.507409308321,0.));
#31 = CARTESIAN_POINT('',(42.600068321349,-1.399659645087,0.));
#32 = CARTESIAN_POINT('',(66.656679482355,-1.466187427891,0.));
#33 = CARTESIAN_POINT('',(102.10689946314,4.322101991916,0.));
#34 = CARTESIAN_POINT('',(124.03664692279,1.561078415954,0.));
#35 = CARTESIAN_POINT('',(132.12032257138,2.719711374667,0.));
#36 = CARTESIAN_POINT('',(138.12634618977,-2.503362802896,0.));
#37 = CARTESIAN_POINT('',(145.31271724649,-3.245673612565,0.));
#38 = CARTESIAN_POINT('',(150.,2.279876604965,0.));
#39 = PCURVE('',#40,#45);
#40 = PLANE('',#41);
#41 = AXIS2_PLACEMENT_3D('',#42,#43,#44);
#42 = CARTESIAN_POINT('',(77.267702126774,7.5,0.));
#43 = DIRECTION('',(0.,0.,1.));
#44 = DIRECTION('',(1.,0.,-0.));
#45 = DEFINITIONAL_REPRESENTATION('',(#46),#58);
#46 = B_SPLINE_CURVE_WITH_KNOTS('',1,(#47,#48,#49,#50,#51,#52,#53,#54,
    #55,#56,#57),.UNSPECIFIED.,.F.,.F.,(2,1,1,1,1,1,1,1,1,1,2),(0.,
    9.189313767351E-02,0.244807470851,0.277027023311,0.431384946769,
    0.661860627049,0.803681966265,0.856080297239,0.907151467096,
    0.953507587167,1.),.UNSPECIFIED.);
#47 = CARTESIAN_POINT('',(-77.26770212677,-4.132263164811));
#48 = CARTESIAN_POINT('',(-62.94942972968,-3.825513111531));
#49 = CARTESIAN_POINT('',(-39.68789921451,-9.007409308321));
#50 = CARTESIAN_POINT('',(-34.66763380542,-8.899659645087));
#51 = CARTESIAN_POINT('',(-10.61102264441,-8.966187427891));
#52 = CARTESIAN_POINT('',(24.839197336369,-3.177898008084));
#53 = CARTESIAN_POINT('',(46.76894479602,-5.938921584046));
#54 = CARTESIAN_POINT('',(54.852620444612,-4.780288625333));
#55 = CARTESIAN_POINT('',(60.858644063,-10.00336280289));
#56 = CARTESIAN_POINT('',(68.045015119723,-10.74567361256));
#57 = CARTESIAN_POINT('',(72.732297873226,-5.220123395035));
#58 = ( GEOMETRIC_REPRESENTATION_CONTEXT(2) 
PARAMETRIC_REPRESENTATION_CONTEXT() REPRESENTATION_CONTEXT('2D SPACE',''
  ) );
#59 = ORIENTED_EDGE('',*,*,#60,.T.);
#60 = EDGE_CURVE('',#24,#61,#63,.T.);
#61 = VERTEX_POINT('',#62);
#62 = CARTESIAN_POINT('',(150.,12.720123395035,0.));
#63 = SURFACE_CURVE('',#64,(#68),.PCURVE_S1.);
#64 = LINE('',#65,#66);
#65 = CARTESIAN_POINT('',(150.,2.279876604965,0.));
#66 = VECTOR('',#67,1.);
#67 = DIRECTION('',(0.,1.,0.));
#68 = PCURVE('',#40,#69);
#69 = DEFINITIONAL_REPRESENTATION('',(#70),#74);
#70 = LINE('',#71,#72);
#71 = CARTESIAN_POINT('',(72.732297873226,-5.220123395035));
#72 = VECTOR('',#73,1.);
#73 = DIRECTION('',(0.,1.));
#74 = ( GEOMETRIC_REPRESENTATION_CONTEXT(2) 
PARAMETRIC_REPRESENTATION_CONTEXT() REPRESENTATION_CONTEXT('2D SPACE',''
  ) );
#75 = ORIENTED_EDGE('',*,*,#76,.T.);
#76 = EDGE_CURVE('',#61,#77,#79,.T.);
#77 = VERTEX_POINT('',#78);
#78 = CARTESIAN_POINT('',(0.,11.632263164811,0.));
#79 = SURFACE_CURVE('',#80,(#92),.PCURVE_S1.);
#80 = B_SPLINE_CURVE_WITH_KNOTS('',1,(#81,#82,#83,#84,#85,#86,#87,#88,
    #89,#90,#91),.UNSPECIFIED.,.F.,.F.,(2,1,1,1,1,1,1,1,1,1,2),(0.,
    4.649241283329E-02,9.284853290387E-02,0.143919702761,0.196318033735,
    0.338139372951,0.568615053231,0.722972976689,0.755192529149,
    0.908106862326,1.),.UNSPECIFIED.);
#81 = CARTESIAN_POINT('',(150.,12.720123395035,0.));
#82 = CARTESIAN_POINT('',(145.31271724649,18.245673612565,0.));
#83 = CARTESIAN_POINT('',(138.12634618977,17.503362802896,0.));
#84 = CARTESIAN_POINT('',(132.12032257138,12.280288625333,0.));
#85 = CARTESIAN_POINT('',(124.03664692279,13.438921584046,0.));
#86 = CARTESIAN_POINT('',(102.10689946314,10.677898008084,0.));
#87 = CARTESIAN_POINT('',(66.656679482355,16.466187427891,0.));
#88 = CARTESIAN_POINT('',(42.600068321349,16.399659645087,0.));
#89 = CARTESIAN_POINT('',(37.579802912259,16.507409308321,0.));
#90 = CARTESIAN_POINT('',(14.318272397086,11.325513111531,0.));
#91 = CARTESIAN_POINT('',(0.,11.632263164811,0.));
#92 = PCURVE('',#40,#93);
#93 = DEFINITIONAL_REPRESENTATION('',(#94),#106);
#94 = B_SPLINE_CURVE_WITH_KNOTS('',1,(#95,#96,#97,#98,#99,#100,#101,#102
    ,#103,#104,#105),.UNSPECIFIED.,.F.,.F.,(2,1,1,1,1,1,1,1,1,1,2),(0.,
    4.649241283329E-02,9.284853290387E-02,0.143919702761,0.196318033735,
    0.338139372951,0.568615053231,0.722972976689,0.755192529149,
    0.908106862326,1.),.UNSPECIFIED.);
#95 = CARTESIAN_POINT('',(72.732297873226,5.220123395035));
#96 = CARTESIAN_POINT('',(68.045015119723,10.745673612565));
#97 = CARTESIAN_POINT('',(60.858644063,10.003362802896));
#98 = CARTESIAN_POINT('',(54.852620444612,4.780288625333));
#99 = CARTESIAN_POINT('',(46.76894479602,5.938921584046));
#100 = CARTESIAN_POINT('',(24.839197336369,3.177898008084));
#101 = CARTESIAN_POINT('',(-10.61102264441,8.966187427891));
#102 = CARTESIAN_POINT('',(-34.66763380542,8.899659645087));
#103 = CARTESIAN_POINT('',(-39.68789921451,9.007409308321));
#104 = CARTESIAN_POINT('',(-62.94942972968,3.825513111531));
#105 = CARTESIAN_POINT('',(-77.26770212677,4.132263164811));
#106 = ( GEOMETRIC_REPRESENTATION_CONTEXT(2) 
PARAMETRIC_REPRESENTATION_CONTEXT() REPRESENTATION_CONTEXT('2D SPACE',''
  ) );
#107 = ORIENTED_EDGE('',*,*,#108,.T.);
#108 = EDGE_CURVE('',#77,#22,#109,.T.);
#109 = SURFACE_CURVE('',#110,(#114),.PCURVE_S1.);
#110 = LINE('',#111,#112);
#111 = CARTESIAN_POINT('',(0.,11.632263164811,0.));
#112 = VECTOR('',#113,1.);
#113 = DIRECTION('',(0.,-1.,0.));
#114 = PCURVE('',#40,#115);
#115 = DEFINITIONAL_REPRESENTATION('',(#116),#120);
#116 = LINE('',#117,#118);
#117 = CARTESIAN_POINT('',(-77.26770212677,4.132263164811));
#118 = VECTOR('',#119,1.);
#119 = DIRECTION('',(0.,-1.));
#120 = ( GEOMETRIC_REPRESENTATION_CONTEXT(2) 
PARAMETRIC_REPRESENTATION_CONTEXT() REPRESENTATION_CONTEXT('2D SPACE',''
  ) );
#121 = ( GEOMETRIC_REPRESENTATION_CONTEXT(3) 
GLOBAL_UNCERTAINTY_ASSIGNED_CONTEXT((#125)) GLOBAL_UNIT_ASSIGNED_CONTEXT
((#122,#123,#124)) REPRESENTATION_CONTEXT('Context #1',
  '3D Context with UNIT and UNCERTAINTY') );
#122 = ( LENGTH_UNIT() NAMED_UNIT(*) SI_UNIT(.MILLI.,.METRE.) );
#123 = ( NAMED_UNIT(*) PLANE_ANGLE_UNIT() SI_UNIT($,.RADIAN.) );
#124 = ( NAMED_UNIT(*) SI_UNIT($,.STERADIAN.) SOLID_ANGLE_UNIT() );
#125 = UNCERTAINTY_MEASURE_WITH_UNIT(LENGTH_MEASURE(1.E-07),#122,
  'distance_accuracy_value','confusion accuracy');
#126 = PRODUCT_RELATED_PRODUCT_CATEGORY('part',$,(#7));
ENDSEC;
END-ISO-10303-21;
