ISO-10303-21;
HEADER;
FILE_DESCRIPTION(('Open CASCADE Model'),'2;1');
FILE_NAME('Open CASCADE Shape Model','2026-06-01T11:13:05',('Author'),(
    'Open CASCADE'),'Open CASCADE STEP processor 7.9','Open CASCADE 7.9'
  ,'Unknown');
FILE_SCHEMA(('AUTOMOTIVE_DESIGN { 1 0 10303 214 1 1 1 1 }'));
ENDSEC;
DATA;
#1 = APPLICATION_PROTOCOL_DEFINITION('international standard',
  'automotive_design',2000,#2);
#2 = APPLICATION_CONTEXT(
  'core data for automotive mechanical design processes');
#3 = SHAPE_DEFINITION_REPRESENTATION(#4,#10);
#4 = PRODUCT_DEFINITION_SHAPE('','',#5);
#5 = PRODUCT_DEFINITION('design','',#6,#9);
#6 = PRODUCT_DEFINITION_FORMATION('','',#7);
#7 = PRODUCT('Open CASCADE STEP translator 7.9 8',
  'Open CASCADE STEP translator 7.9 8','',(#8));
#8 = PRODUCT_CONTEXT('',#2,'mechanical');
#9 = PRODUCT_DEFINITION_CONTEXT('part definition',#2,'design');
#10 = MANIFOLD_SURFACE_SHAPE_REPRESENTATION('',(#11,#15),#121);
#11 = AXIS2_PLACEMENT_3D('',#12,#13,#14);
#12 = CARTESIAN_POINT('',(0.,0.,0.));
#13 = DIRECTION('',(0.,0.,1.));
#14 = DIRECTION('',(1.,0.,-0.));
#15 = SHELL_BASED_SURFACE_MODEL('',(#16));
#16 = OPEN_SHELL('',(#17));
#17 = ADVANCED_FACE('',(#18),#40,.T.);
#18 = FACE_BOUND('',#19,.T.);
#19 = EDGE_LOOP('',(#20,#59,#75,#107));
#20 = ORIENTED_EDGE('',*,*,#21,.T.);
#21 = EDGE_CURVE('',#22,#24,#26,.T.);
#22 = VERTEX_POINT('',#23);
#23 = CARTESIAN_POINT('',(0.,-1.434803712227,0.));
#24 = VERTEX_POINT('',#25);
#25 = CARTESIAN_POINT('',(150.,-2.774263248579,0.));
#26 = SURFACE_CURVE('',#27,(#39),.PCURVE_S1.);
#27 = B_SPLINE_CURVE_WITH_KNOTS('',1,(#28,#29,#30,#31,#32,#33,#34,#35,
    #36,#37,#38),.UNSPECIFIED.,.F.,.F.,(2,1,1,1,1,1,1,1,1,1,2),(0.,
    4.820727521502E-02,0.10491906866,0.148254289106,0.27348000129,
    0.450652235657,0.506462686824,0.735874436488,0.767145597975,
    0.958537161473,1.),.UNSPECIFIED.);
#28 = CARTESIAN_POINT('',(0.,-1.434803712227,0.));
#29 = CARTESIAN_POINT('',(7.529265835606,-2.042951528582,0.));
#30 = CARTESIAN_POINT('',(16.407747686207,-2.417827427259,0.));
#31 = CARTESIAN_POINT('',(19.683180890262,3.530331486397,0.));
#32 = CARTESIAN_POINT('',(37.907055353583,-3.744106606238,0.));
#33 = CARTESIAN_POINT('',(64.974051181919,2.428074081946,0.));
#34 = CARTESIAN_POINT('',(73.545329897951,4.163286994414,0.));
#35 = CARTESIAN_POINT('',(109.18982435522,-0.493672224523,0.));
#36 = CARTESIAN_POINT('',(113.80173820733,1.161699445238,0.));
#37 = CARTESIAN_POINT('',(143.5059182427,-2.968107688192,0.));
#38 = CARTESIAN_POINT('',(150.,-2.774263248579,0.));
#39 = PCURVE('',#40,#45);
#40 = PLANE('',#41);
#41 = AXIS2_PLACEMENT_3D('',#42,#43,#44);
#42 = CARTESIAN_POINT('',(74.130539815739,7.5,0.));
#43 = DIRECTION('',(0.,0.,1.));
#44 = DIRECTION('',(1.,0.,-0.));
#45 = DEFINITIONAL_REPRESENTATION('',(#46),#58);
#46 = B_SPLINE_CURVE_WITH_KNOTS('',1,(#47,#48,#49,#50,#51,#52,#53,#54,
    #55,#56,#57),.UNSPECIFIED.,.F.,.F.,(2,1,1,1,1,1,1,1,1,1,2),(0.,
    4.820727521502E-02,0.10491906866,0.148254289106,0.27348000129,
    0.450652235657,0.506462686824,0.735874436488,0.767145597975,
    0.958537161473,1.),.UNSPECIFIED.);
#47 = CARTESIAN_POINT('',(-74.13053981573,-8.934803712227));
#48 = CARTESIAN_POINT('',(-66.60127398013,-9.542951528582));
#49 = CARTESIAN_POINT('',(-57.72279212953,-9.917827427259));
#50 = CARTESIAN_POINT('',(-54.44735892547,-3.969668513603));
#51 = CARTESIAN_POINT('',(-36.22348446215,-11.24410660623));
#52 = CARTESIAN_POINT('',(-9.15648863382,-5.071925918054));
#53 = CARTESIAN_POINT('',(-0.585209917789,-3.336713005586));
#54 = CARTESIAN_POINT('',(35.059284539481,-7.993672224523));
#55 = CARTESIAN_POINT('',(39.671198391599,-6.338300554762));
#56 = CARTESIAN_POINT('',(69.37537842697,-10.46810768819));
#57 = CARTESIAN_POINT('',(75.869460184261,-10.27426324857));
#58 = ( GEOMETRIC_REPRESENTATION_CONTEXT(2) 
PARAMETRIC_REPRESENTATION_CONTEXT() REPRESENTATION_CONTEXT('2D SPACE',''
  ) );
#59 = ORIENTED_EDGE('',*,*,#60,.T.);
#60 = EDGE_CURVE('',#24,#61,#63,.T.);
#61 = VERTEX_POINT('',#62);
#62 = CARTESIAN_POINT('',(150.,17.774263248579,0.));
#63 = SURFACE_CURVE('',#64,(#68),.PCURVE_S1.);
#64 = LINE('',#65,#66);
#65 = CARTESIAN_POINT('',(150.,-2.774263248579,0.));
#66 = VECTOR('',#67,1.);
#67 = DIRECTION('',(0.,1.,0.));
#68 = PCURVE('',#40,#69);
#69 = DEFINITIONAL_REPRESENTATION('',(#70),#74);
#70 = LINE('',#71,#72);
#71 = CARTESIAN_POINT('',(75.869460184261,-10.27426324857));
#72 = VECTOR('',#73,1.);
#73 = DIRECTION('',(0.,1.));
#74 = ( GEOMETRIC_REPRESENTATION_CONTEXT(2) 
PARAMETRIC_REPRESENTATION_CONTEXT() REPRESENTATION_CONTEXT('2D SPACE',''
  ) );
#75 = ORIENTED_EDGE('',*,*,#76,.T.);
#76 = EDGE_CURVE('',#61,#77,#79,.T.);
#77 = VERTEX_POINT('',#78);
#78 = CARTESIAN_POINT('',(0.,16.434803712227,0.));
#79 = SURFACE_CURVE('',#80,(#92),.PCURVE_S1.);
#80 = B_SPLINE_CURVE_WITH_KNOTS('',1,(#81,#82,#83,#84,#85,#86,#87,#88,
    #89,#90,#91),.UNSPECIFIED.,.F.,.F.,(2,1,1,1,1,1,1,1,1,1,2),(0.,
    4.146283852722E-02,0.232854402025,0.264125563512,0.493537313176,
    0.549347764343,0.72651999871,0.851745710894,0.89508093134,
    0.951792724785,1.),.UNSPECIFIED.);
#81 = CARTESIAN_POINT('',(150.,17.774263248579,0.));
#82 = CARTESIAN_POINT('',(143.5059182427,17.968107688192,0.));
#83 = CARTESIAN_POINT('',(113.80173820733,13.838300554762,0.));
#84 = CARTESIAN_POINT('',(109.18982435522,15.493672224523,0.));
#85 = CARTESIAN_POINT('',(73.545329897951,10.836713005586,0.));
#86 = CARTESIAN_POINT('',(64.974051181919,12.571925918054,0.));
#87 = CARTESIAN_POINT('',(37.907055353583,18.744106606238,0.));
#88 = CARTESIAN_POINT('',(19.683180890262,11.469668513603,0.));
#89 = CARTESIAN_POINT('',(16.407747686207,17.417827427259,0.));
#90 = CARTESIAN_POINT('',(7.529265835606,17.042951528582,0.));
#91 = CARTESIAN_POINT('',(0.,16.434803712227,0.));
#92 = PCURVE('',#40,#93);
#93 = DEFINITIONAL_REPRESENTATION('',(#94),#106);
#94 = B_SPLINE_CURVE_WITH_KNOTS('',1,(#95,#96,#97,#98,#99,#100,#101,#102
    ,#103,#104,#105),.UNSPECIFIED.,.F.,.F.,(2,1,1,1,1,1,1,1,1,1,2),(0.,
    4.146283852722E-02,0.232854402025,0.264125563512,0.493537313176,
    0.549347764343,0.72651999871,0.851745710894,0.89508093134,
    0.951792724785,1.),.UNSPECIFIED.);
#95 = CARTESIAN_POINT('',(75.869460184261,10.274263248579));
#96 = CARTESIAN_POINT('',(69.37537842697,10.468107688192));
#97 = CARTESIAN_POINT('',(39.671198391599,6.338300554762));
#98 = CARTESIAN_POINT('',(35.059284539481,7.993672224523));
#99 = CARTESIAN_POINT('',(-0.585209917789,3.336713005586));
#100 = CARTESIAN_POINT('',(-9.15648863382,5.071925918054));
#101 = CARTESIAN_POINT('',(-36.22348446215,11.244106606238));
#102 = CARTESIAN_POINT('',(-54.44735892547,3.969668513603));
#103 = CARTESIAN_POINT('',(-57.72279212953,9.917827427259));
#104 = CARTESIAN_POINT('',(-66.60127398013,9.542951528582));
#105 = CARTESIAN_POINT('',(-74.13053981573,8.934803712227));
#106 = ( GEOMETRIC_REPRESENTATION_CONTEXT(2) 
PARAMETRIC_REPRESENTATION_CONTEXT() REPRESENTATION_CONTEXT('2D SPACE',''
  ) );
#107 = ORIENTED_EDGE('',*,*,#108,.T.);
#108 = EDGE_CURVE('',#77,#22,#109,.T.);
#109 = SURFACE_CURVE('',#110,(#114),.PCURVE_S1.);
#110 = LINE('',#111,#112);
#111 = CARTESIAN_POINT('',(0.,16.434803712227,0.));
#112 = VECTOR('',#113,1.);
#113 = DIRECTION('',(0.,-1.,0.));
#114 = PCURVE('',#40,#115);
#115 = DEFINITIONAL_REPRESENTATION('',(#116),#120);
#116 = LINE('',#117,#118);
#117 = CARTESIAN_POINT('',(-74.13053981573,8.934803712227));
#118 = VECTOR('',#119,1.);
#119 = DIRECTION('',(0.,-1.));
#120 = ( GEOMETRIC_REPRESENTATION_CONTEXT(2) 
PARAMETRIC_REPRESENTATION_CONTEXT() REPRESENTATION_CONTEXT('2D SPACE',''
  ) );
#121 = ( GEOMETRIC_REPRESENTATION_CONTEXT(3) 
GLOBAL_UNCERTAINTY_ASSIGNED_CONTEXT((#125)) GLOBAL_UNIT_ASSIGNED_CONTEXT
((#122,#123,#124)) REPRESENTATION_CONTEXT('Context #1',
  '3D Context with UNIT and UNCERTAINTY') );
#122 = ( LENGTH_UNIT() NAMED_UNIT(*) SI_UNIT(.MILLI.,.METRE.) );
#123 = ( NAMED_UNIT(*) PLANE_ANGLE_UNIT() SI_UNIT($,.RADIAN.) );
#124 = ( NAMED_UNIT(*) SI_UNIT($,.STERADIAN.) SOLID_ANGLE_UNIT() );
#125 = UNCERTAINTY_MEASURE_WITH_UNIT(LENGTH_MEASURE(1.E-07),#122,
  'distance_accuracy_value','confusion accuracy');
#126 = PRODUCT_RELATED_PRODUCT_CATEGORY('part',$,(#7));
ENDSEC;
END-ISO-10303-21;
