ISO-10303-21;
HEADER;
FILE_DESCRIPTION(('Open CASCADE Model'),'2;1');
FILE_NAME('Open CASCADE Shape Model','2026-06-01T11:13:06',('Author'),(
    'Open CASCADE'),'Open CASCADE STEP processor 7.9','Open CASCADE 7.9'
  ,'Unknown');
FILE_SCHEMA(('AUTOMOTIVE_DESIGN { 1 0 10303 214 1 1 1 1 }'));
ENDSEC;
DATA;
#1 = APPLICATION_PROTOCOL_DEFINITION('international standard',
  'automotive_design',2000,#2);
#2 = APPLICATION_CONTEXT(
  'core data for automotive mechanical design processes');
#3 = SHAPE_DEFINITION_REPRESENTATION(#4,#10);
#4 = PRODUCT_DEFINITION_SHAPE('','',#5);
#5 = PRODUCT_DEFINITION('design','',#6,#9);
#6 = PRODUCT_DEFINITION_FORMATION('','',#7);
#7 = PRODUCT('Open CASCADE STEP translator 7.9 100',
  'Open CASCADE STEP translator 7.9 100','',(#8));
#8 = PRODUCT_CONTEXT('',#2,'mechanical');
#9 = PRODUCT_DEFINITION_CONTEXT('part definition',#2,'design');
#10 = MANIFOLD_SURFACE_SHAPE_REPRESENTATION('',(#11,#15),#121);
#11 = AXIS2_PLACEMENT_3D('',#12,#13,#14);
#12 = CARTESIAN_POINT('',(0.,0.,0.));
#13 = DIRECTION('',(0.,0.,1.));
#14 = DIRECTION('',(1.,0.,-0.));
#15 = SHELL_BASED_SURFACE_MODEL('',(#16));
#16 = OPEN_SHELL('',(#17));
#17 = ADVANCED_FACE('',(#18),#40,.T.);
#18 = FACE_BOUND('',#19,.T.);
#19 = EDGE_LOOP('',(#20,#59,#75,#107));
#20 = ORIENTED_EDGE('',*,*,#21,.T.);
#21 = EDGE_CURVE('',#22,#24,#26,.T.);
#22 = VERTEX_POINT('',#23);
#23 = CARTESIAN_POINT('',(0.,1.985806690256,0.));
#24 = VERTEX_POINT('',#25);
#25 = CARTESIAN_POINT('',(150.,-4.41728788996,0.));
#26 = SURFACE_CURVE('',#27,(#39),.PCURVE_S1.);
#27 = B_SPLINE_CURVE_WITH_KNOTS('',1,(#28,#29,#30,#31,#32,#33,#34,#35,
    #36,#37,#38),.UNSPECIFIED.,.F.,.F.,(2,1,1,1,1,1,1,1,1,1,2),(0.,
    0.144425390391,0.503129196758,0.532771062329,0.604874189708,
    0.665653082705,0.705078618658,0.775228809648,0.869422945087,
    0.97070977751,1.),.UNSPECIFIED.);
#28 = CARTESIAN_POINT('',(0.,1.985806690256,0.));
#29 = CARTESIAN_POINT('',(21.926210425812,2.763524371559,0.));
#30 = CARTESIAN_POINT('',(76.392114204189,1.092411653089,0.));
#31 = CARTESIAN_POINT('',(80.894693818196,1.033490363796,0.));
#32 = CARTESIAN_POINT('',(91.840167266761,1.448930334574,0.));
#33 = CARTESIAN_POINT('',(101.07269215223,1.548685048224,0.));
#34 = CARTESIAN_POINT('',(106.66511805176,3.692418500329,0.));
#35 = CARTESIAN_POINT('',(117.30596219711,4.273155475865,0.));
#36 = CARTESIAN_POINT('',(131.52635689649,2.680971298592,0.));
#37 = CARTESIAN_POINT('',(146.0811806362,-2.30984484675,0.));
#38 = CARTESIAN_POINT('',(150.,-4.41728788996,0.));
#39 = PCURVE('',#40,#45);
#40 = PLANE('',#41);
#41 = AXIS2_PLACEMENT_3D('',#42,#43,#44);
#42 = CARTESIAN_POINT('',(78.466697942927,7.5,0.));
#43 = DIRECTION('',(0.,0.,1.));
#44 = DIRECTION('',(1.,0.,-0.));
#45 = DEFINITIONAL_REPRESENTATION('',(#46),#58);
#46 = B_SPLINE_CURVE_WITH_KNOTS('',1,(#47,#48,#49,#50,#51,#52,#53,#54,
    #55,#56,#57),.UNSPECIFIED.,.F.,.F.,(2,1,1,1,1,1,1,1,1,1,2),(0.,
    0.144425390391,0.503129196758,0.532771062329,0.604874189708,
    0.665653082705,0.705078618658,0.775228809648,0.869422945087,
    0.97070977751,1.),.UNSPECIFIED.);
#47 = CARTESIAN_POINT('',(-78.46669794292,-5.514193309744));
#48 = CARTESIAN_POINT('',(-56.54048751711,-4.736475628441));
#49 = CARTESIAN_POINT('',(-2.074583738737,-6.407588346911));
#50 = CARTESIAN_POINT('',(2.427995875269,-6.466509636204));
#51 = CARTESIAN_POINT('',(13.373469323834,-6.051069665426));
#52 = CARTESIAN_POINT('',(22.605994209308,-5.951314951776));
#53 = CARTESIAN_POINT('',(28.19842010884,-3.807581499671));
#54 = CARTESIAN_POINT('',(38.839264254188,-3.226844524135));
#55 = CARTESIAN_POINT('',(53.059658953565,-4.819028701408));
#56 = CARTESIAN_POINT('',(67.614482693281,-9.80984484675));
#57 = CARTESIAN_POINT('',(71.533302057073,-11.91728788996));
#58 = ( GEOMETRIC_REPRESENTATION_CONTEXT(2) 
PARAMETRIC_REPRESENTATION_CONTEXT() REPRESENTATION_CONTEXT('2D SPACE',''
  ) );
#59 = ORIENTED_EDGE('',*,*,#60,.T.);
#60 = EDGE_CURVE('',#24,#61,#63,.T.);
#61 = VERTEX_POINT('',#62);
#62 = CARTESIAN_POINT('',(150.,19.41728788996,0.));
#63 = SURFACE_CURVE('',#64,(#68),.PCURVE_S1.);
#64 = LINE('',#65,#66);
#65 = CARTESIAN_POINT('',(150.,-4.41728788996,0.));
#66 = VECTOR('',#67,1.);
#67 = DIRECTION('',(0.,1.,0.));
#68 = PCURVE('',#40,#69);
#69 = DEFINITIONAL_REPRESENTATION('',(#70),#74);
#70 = LINE('',#71,#72);
#71 = CARTESIAN_POINT('',(71.533302057073,-11.91728788996));
#72 = VECTOR('',#73,1.);
#73 = DIRECTION('',(0.,1.));
#74 = ( GEOMETRIC_REPRESENTATION_CONTEXT(2) 
PARAMETRIC_REPRESENTATION_CONTEXT() REPRESENTATION_CONTEXT('2D SPACE',''
  ) );
#75 = ORIENTED_EDGE('',*,*,#76,.T.);
#76 = EDGE_CURVE('',#61,#77,#79,.T.);
#77 = VERTEX_POINT('',#78);
#78 = CARTESIAN_POINT('',(0.,13.014193309744,0.));
#79 = SURFACE_CURVE('',#80,(#92),.PCURVE_S1.);
#80 = B_SPLINE_CURVE_WITH_KNOTS('',1,(#81,#82,#83,#84,#85,#86,#87,#88,
    #89,#90,#91),.UNSPECIFIED.,.F.,.F.,(2,1,1,1,1,1,1,1,1,1,2),(0.,
    2.929022249E-02,0.130577054913,0.224771190352,0.294921381342,
    0.334346917295,0.395125810292,0.467228937671,0.496870803242,
    0.855574609609,1.),.UNSPECIFIED.);
#81 = CARTESIAN_POINT('',(150.,19.41728788996,0.));
#82 = CARTESIAN_POINT('',(146.0811806362,17.30984484675,0.));
#83 = CARTESIAN_POINT('',(131.52635689649,12.319028701408,0.));
#84 = CARTESIAN_POINT('',(117.30596219711,10.726844524135,0.));
#85 = CARTESIAN_POINT('',(106.66511805176,11.307581499671,0.));
#86 = CARTESIAN_POINT('',(101.07269215223,13.451314951776,0.));
#87 = CARTESIAN_POINT('',(91.840167266761,13.551069665426,0.));
#88 = CARTESIAN_POINT('',(80.894693818196,13.966509636204,0.));
#89 = CARTESIAN_POINT('',(76.392114204189,13.907588346911,0.));
#90 = CARTESIAN_POINT('',(21.926210425812,12.236475628441,0.));
#91 = CARTESIAN_POINT('',(0.,13.014193309744,0.));
#92 = PCURVE('',#40,#93);
#93 = DEFINITIONAL_REPRESENTATION('',(#94),#106);
#94 = B_SPLINE_CURVE_WITH_KNOTS('',1,(#95,#96,#97,#98,#99,#100,#101,#102
    ,#103,#104,#105),.UNSPECIFIED.,.F.,.F.,(2,1,1,1,1,1,1,1,1,1,2),(0.,
    2.929022249E-02,0.130577054913,0.224771190352,0.294921381342,
    0.334346917295,0.395125810292,0.467228937671,0.496870803242,
    0.855574609609,1.),.UNSPECIFIED.);
#95 = CARTESIAN_POINT('',(71.533302057073,11.91728788996));
#96 = CARTESIAN_POINT('',(67.614482693281,9.80984484675));
#97 = CARTESIAN_POINT('',(53.059658953565,4.819028701408));
#98 = CARTESIAN_POINT('',(38.839264254188,3.226844524135));
#99 = CARTESIAN_POINT('',(28.19842010884,3.807581499671));
#100 = CARTESIAN_POINT('',(22.605994209308,5.951314951776));
#101 = CARTESIAN_POINT('',(13.373469323834,6.051069665426));
#102 = CARTESIAN_POINT('',(2.427995875269,6.466509636204));
#103 = CARTESIAN_POINT('',(-2.074583738737,6.407588346911));
#104 = CARTESIAN_POINT('',(-56.54048751711,4.736475628441));
#105 = CARTESIAN_POINT('',(-78.46669794292,5.514193309744));
#106 = ( GEOMETRIC_REPRESENTATION_CONTEXT(2) 
PARAMETRIC_REPRESENTATION_CONTEXT() REPRESENTATION_CONTEXT('2D SPACE',''
  ) );
#107 = ORIENTED_EDGE('',*,*,#108,.T.);
#108 = EDGE_CURVE('',#77,#22,#109,.T.);
#109 = SURFACE_CURVE('',#110,(#114),.PCURVE_S1.);
#110 = LINE('',#111,#112);
#111 = CARTESIAN_POINT('',(0.,13.014193309744,0.));
#112 = VECTOR('',#113,1.);
#113 = DIRECTION('',(0.,-1.,0.));
#114 = PCURVE('',#40,#115);
#115 = DEFINITIONAL_REPRESENTATION('',(#116),#120);
#116 = LINE('',#117,#118);
#117 = CARTESIAN_POINT('',(-78.46669794292,5.514193309744));
#118 = VECTOR('',#119,1.);
#119 = DIRECTION('',(0.,-1.));
#120 = ( GEOMETRIC_REPRESENTATION_CONTEXT(2) 
PARAMETRIC_REPRESENTATION_CONTEXT() REPRESENTATION_CONTEXT('2D SPACE',''
  ) );
#121 = ( GEOMETRIC_REPRESENTATION_CONTEXT(3) 
GLOBAL_UNCERTAINTY_ASSIGNED_CONTEXT((#125)) GLOBAL_UNIT_ASSIGNED_CONTEXT
((#122,#123,#124)) REPRESENTATION_CONTEXT('Context #1',
  '3D Context with UNIT and UNCERTAINTY') );
#122 = ( LENGTH_UNIT() NAMED_UNIT(*) SI_UNIT(.MILLI.,.METRE.) );
#123 = ( NAMED_UNIT(*) PLANE_ANGLE_UNIT() SI_UNIT($,.RADIAN.) );
#124 = ( NAMED_UNIT(*) SI_UNIT($,.STERADIAN.) SOLID_ANGLE_UNIT() );
#125 = UNCERTAINTY_MEASURE_WITH_UNIT(LENGTH_MEASURE(1.E-07),#122,
  'distance_accuracy_value','confusion accuracy');
#126 = PRODUCT_RELATED_PRODUCT_CATEGORY('part',$,(#7));
ENDSEC;
END-ISO-10303-21;
