ISO-10303-21;
HEADER;
FILE_DESCRIPTION(('Open CASCADE Model'),'2;1');
FILE_NAME('Open CASCADE Shape Model','2026-06-01T11:13:06',('Author'),(
    'Open CASCADE'),'Open CASCADE STEP processor 7.9','Open CASCADE 7.9'
  ,'Unknown');
FILE_SCHEMA(('AUTOMOTIVE_DESIGN { 1 0 10303 214 1 1 1 1 }'));
ENDSEC;
DATA;
#1 = APPLICATION_PROTOCOL_DEFINITION('international standard',
  'automotive_design',2000,#2);
#2 = APPLICATION_CONTEXT(
  'core data for automotive mechanical design processes');
#3 = SHAPE_DEFINITION_REPRESENTATION(#4,#10);
#4 = PRODUCT_DEFINITION_SHAPE('','',#5);
#5 = PRODUCT_DEFINITION('design','',#6,#9);
#6 = PRODUCT_DEFINITION_FORMATION('','',#7);
#7 = PRODUCT('Open CASCADE STEP translator 7.9 62',
  'Open CASCADE STEP translator 7.9 62','',(#8));
#8 = PRODUCT_CONTEXT('',#2,'mechanical');
#9 = PRODUCT_DEFINITION_CONTEXT('part definition',#2,'design');
#10 = MANIFOLD_SURFACE_SHAPE_REPRESENTATION('',(#11,#15),#121);
#11 = AXIS2_PLACEMENT_3D('',#12,#13,#14);
#12 = CARTESIAN_POINT('',(0.,0.,0.));
#13 = DIRECTION('',(0.,0.,1.));
#14 = DIRECTION('',(1.,0.,-0.));
#15 = SHELL_BASED_SURFACE_MODEL('',(#16));
#16 = OPEN_SHELL('',(#17));
#17 = ADVANCED_FACE('',(#18),#40,.T.);
#18 = FACE_BOUND('',#19,.T.);
#19 = EDGE_LOOP('',(#20,#59,#75,#107));
#20 = ORIENTED_EDGE('',*,*,#21,.T.);
#21 = EDGE_CURVE('',#22,#24,#26,.T.);
#22 = VERTEX_POINT('',#23);
#23 = CARTESIAN_POINT('',(0.,4.45843081041,0.));
#24 = VERTEX_POINT('',#25);
#25 = CARTESIAN_POINT('',(150.,-2.579847412442,0.));
#26 = SURFACE_CURVE('',#27,(#39),.PCURVE_S1.);
#27 = B_SPLINE_CURVE_WITH_KNOTS('',1,(#28,#29,#30,#31,#32,#33,#34,#35,
    #36,#37,#38),.UNSPECIFIED.,.F.,.F.,(2,1,1,1,1,1,1,1,1,1,2),(0.,
    0.16264886941,0.226333038011,0.29687483471,0.466577068689,
    0.514983680917,0.642368445416,0.68231698323,0.867238616784,
    0.944849164625,1.),.UNSPECIFIED.);
#28 = CARTESIAN_POINT('',(0.,4.45843081041,0.));
#29 = CARTESIAN_POINT('',(26.144245620956,4.153122006089,0.));
#30 = CARTESIAN_POINT('',(34.595883989854,-1.623769251029,0.));
#31 = CARTESIAN_POINT('',(45.885945599873,-0.564012124487,0.));
#32 = CARTESIAN_POINT('',(72.735682137493,4.261208065145,0.));
#33 = CARTESIAN_POINT('',(77.085147418633,-2.191139651001,0.));
#34 = CARTESIAN_POINT('',(97.539046401944,-3.169308033623,0.));
#35 = CARTESIAN_POINT('',(103.10585504532,3.224265804623E-02,0.));
#36 = CARTESIAN_POINT('',(132.83097982473,0.308183036785,0.));
#37 = CARTESIAN_POINT('',(144.59914978041,4.450742020488,0.));
#38 = CARTESIAN_POINT('',(150.,-2.579847412442,0.));
#39 = PCURVE('',#40,#45);
#40 = PLANE('',#41);
#41 = AXIS2_PLACEMENT_3D('',#42,#43,#44);
#42 = CARTESIAN_POINT('',(79.353040057087,7.5,0.));
#43 = DIRECTION('',(0.,0.,1.));
#44 = DIRECTION('',(1.,0.,-0.));
#45 = DEFINITIONAL_REPRESENTATION('',(#46),#58);
#46 = B_SPLINE_CURVE_WITH_KNOTS('',1,(#47,#48,#49,#50,#51,#52,#53,#54,
    #55,#56,#57),.UNSPECIFIED.,.F.,.F.,(2,1,1,1,1,1,1,1,1,1,2),(0.,
    0.16264886941,0.226333038011,0.29687483471,0.466577068689,
    0.514983680917,0.642368445416,0.68231698323,0.867238616784,
    0.944849164625,1.),.UNSPECIFIED.);
#47 = CARTESIAN_POINT('',(-79.35304005708,-3.04156918959));
#48 = CARTESIAN_POINT('',(-53.20879443613,-3.346877993911));
#49 = CARTESIAN_POINT('',(-44.75715606723,-9.123769251029));
#50 = CARTESIAN_POINT('',(-33.46709445721,-8.064012124487));
#51 = CARTESIAN_POINT('',(-6.617357919594,-3.238791934855));
#52 = CARTESIAN_POINT('',(-2.267892638454,-9.691139651001));
#53 = CARTESIAN_POINT('',(18.186006344856,-10.66930803362));
#54 = CARTESIAN_POINT('',(23.752814988234,-7.467757341954));
#55 = CARTESIAN_POINT('',(53.477939767649,-7.191816963215));
#56 = CARTESIAN_POINT('',(65.24610972333,-3.049257979512));
#57 = CARTESIAN_POINT('',(70.646959942913,-10.07984741244));
#58 = ( GEOMETRIC_REPRESENTATION_CONTEXT(2) 
PARAMETRIC_REPRESENTATION_CONTEXT() REPRESENTATION_CONTEXT('2D SPACE',''
  ) );
#59 = ORIENTED_EDGE('',*,*,#60,.T.);
#60 = EDGE_CURVE('',#24,#61,#63,.T.);
#61 = VERTEX_POINT('',#62);
#62 = CARTESIAN_POINT('',(150.,17.579847412442,0.));
#63 = SURFACE_CURVE('',#64,(#68),.PCURVE_S1.);
#64 = LINE('',#65,#66);
#65 = CARTESIAN_POINT('',(150.,-2.579847412442,0.));
#66 = VECTOR('',#67,1.);
#67 = DIRECTION('',(0.,1.,0.));
#68 = PCURVE('',#40,#69);
#69 = DEFINITIONAL_REPRESENTATION('',(#70),#74);
#70 = LINE('',#71,#72);
#71 = CARTESIAN_POINT('',(70.646959942913,-10.07984741244));
#72 = VECTOR('',#73,1.);
#73 = DIRECTION('',(0.,1.));
#74 = ( GEOMETRIC_REPRESENTATION_CONTEXT(2) 
PARAMETRIC_REPRESENTATION_CONTEXT() REPRESENTATION_CONTEXT('2D SPACE',''
  ) );
#75 = ORIENTED_EDGE('',*,*,#76,.T.);
#76 = EDGE_CURVE('',#61,#77,#79,.T.);
#77 = VERTEX_POINT('',#78);
#78 = CARTESIAN_POINT('',(0.,10.54156918959,0.));
#79 = SURFACE_CURVE('',#80,(#92),.PCURVE_S1.);
#80 = B_SPLINE_CURVE_WITH_KNOTS('',1,(#81,#82,#83,#84,#85,#86,#87,#88,
    #89,#90,#91),.UNSPECIFIED.,.F.,.F.,(2,1,1,1,1,1,1,1,1,1,2),(0.,
    5.515083537529E-02,0.132761383216,0.31768301677,0.357631554584,
    0.485016319083,0.533422931311,0.70312516529,0.773666961989,
    0.83735113059,1.),.UNSPECIFIED.);
#81 = CARTESIAN_POINT('',(150.,17.579847412442,0.));
#82 = CARTESIAN_POINT('',(144.59914978041,10.549257979512,0.));
#83 = CARTESIAN_POINT('',(132.83097982473,14.691816963215,0.));
#84 = CARTESIAN_POINT('',(103.10585504532,14.967757341954,0.));
#85 = CARTESIAN_POINT('',(97.539046401944,18.169308033623,0.));
#86 = CARTESIAN_POINT('',(77.085147418633,17.191139651001,0.));
#87 = CARTESIAN_POINT('',(72.735682137493,10.738791934855,0.));
#88 = CARTESIAN_POINT('',(45.885945599873,15.564012124487,0.));
#89 = CARTESIAN_POINT('',(34.595883989854,16.623769251029,0.));
#90 = CARTESIAN_POINT('',(26.144245620956,10.846877993911,0.));
#91 = CARTESIAN_POINT('',(0.,10.54156918959,0.));
#92 = PCURVE('',#40,#93);
#93 = DEFINITIONAL_REPRESENTATION('',(#94),#106);
#94 = B_SPLINE_CURVE_WITH_KNOTS('',1,(#95,#96,#97,#98,#99,#100,#101,#102
    ,#103,#104,#105),.UNSPECIFIED.,.F.,.F.,(2,1,1,1,1,1,1,1,1,1,2),(0.,
    5.515083537529E-02,0.132761383216,0.31768301677,0.357631554584,
    0.485016319083,0.533422931311,0.70312516529,0.773666961989,
    0.83735113059,1.),.UNSPECIFIED.);
#95 = CARTESIAN_POINT('',(70.646959942913,10.079847412442));
#96 = CARTESIAN_POINT('',(65.24610972333,3.049257979512));
#97 = CARTESIAN_POINT('',(53.477939767649,7.191816963215));
#98 = CARTESIAN_POINT('',(23.752814988234,7.467757341954));
#99 = CARTESIAN_POINT('',(18.186006344856,10.669308033623));
#100 = CARTESIAN_POINT('',(-2.267892638454,9.691139651001));
#101 = CARTESIAN_POINT('',(-6.617357919594,3.238791934855));
#102 = CARTESIAN_POINT('',(-33.46709445721,8.064012124487));
#103 = CARTESIAN_POINT('',(-44.75715606723,9.123769251029));
#104 = CARTESIAN_POINT('',(-53.20879443613,3.346877993911));
#105 = CARTESIAN_POINT('',(-79.35304005708,3.04156918959));
#106 = ( GEOMETRIC_REPRESENTATION_CONTEXT(2) 
PARAMETRIC_REPRESENTATION_CONTEXT() REPRESENTATION_CONTEXT('2D SPACE',''
  ) );
#107 = ORIENTED_EDGE('',*,*,#108,.T.);
#108 = EDGE_CURVE('',#77,#22,#109,.T.);
#109 = SURFACE_CURVE('',#110,(#114),.PCURVE_S1.);
#110 = LINE('',#111,#112);
#111 = CARTESIAN_POINT('',(0.,10.54156918959,0.));
#112 = VECTOR('',#113,1.);
#113 = DIRECTION('',(0.,-1.,0.));
#114 = PCURVE('',#40,#115);
#115 = DEFINITIONAL_REPRESENTATION('',(#116),#120);
#116 = LINE('',#117,#118);
#117 = CARTESIAN_POINT('',(-79.35304005708,3.04156918959));
#118 = VECTOR('',#119,1.);
#119 = DIRECTION('',(0.,-1.));
#120 = ( GEOMETRIC_REPRESENTATION_CONTEXT(2) 
PARAMETRIC_REPRESENTATION_CONTEXT() REPRESENTATION_CONTEXT('2D SPACE',''
  ) );
#121 = ( GEOMETRIC_REPRESENTATION_CONTEXT(3) 
GLOBAL_UNCERTAINTY_ASSIGNED_CONTEXT((#125)) GLOBAL_UNIT_ASSIGNED_CONTEXT
((#122,#123,#124)) REPRESENTATION_CONTEXT('Context #1',
  '3D Context with UNIT and UNCERTAINTY') );
#122 = ( LENGTH_UNIT() NAMED_UNIT(*) SI_UNIT(.MILLI.,.METRE.) );
#123 = ( NAMED_UNIT(*) PLANE_ANGLE_UNIT() SI_UNIT($,.RADIAN.) );
#124 = ( NAMED_UNIT(*) SI_UNIT($,.STERADIAN.) SOLID_ANGLE_UNIT() );
#125 = UNCERTAINTY_MEASURE_WITH_UNIT(LENGTH_MEASURE(1.E-07),#122,
  'distance_accuracy_value','confusion accuracy');
#126 = PRODUCT_RELATED_PRODUCT_CATEGORY('part',$,(#7));
ENDSEC;
END-ISO-10303-21;
