ISO-10303-21;
HEADER;
FILE_DESCRIPTION(('Open CASCADE Model'),'2;1');
FILE_NAME('Open CASCADE Shape Model','2026-06-01T11:13:06',('Author'),(
    'Open CASCADE'),'Open CASCADE STEP processor 7.9','Open CASCADE 7.9'
  ,'Unknown');
FILE_SCHEMA(('AUTOMOTIVE_DESIGN { 1 0 10303 214 1 1 1 1 }'));
ENDSEC;
DATA;
#1 = APPLICATION_PROTOCOL_DEFINITION('international standard',
  'automotive_design',2000,#2);
#2 = APPLICATION_CONTEXT(
  'core data for automotive mechanical design processes');
#3 = SHAPE_DEFINITION_REPRESENTATION(#4,#10);
#4 = PRODUCT_DEFINITION_SHAPE('','',#5);
#5 = PRODUCT_DEFINITION('design','',#6,#9);
#6 = PRODUCT_DEFINITION_FORMATION('','',#7);
#7 = PRODUCT('Open CASCADE STEP translator 7.9 46',
  'Open CASCADE STEP translator 7.9 46','',(#8));
#8 = PRODUCT_CONTEXT('',#2,'mechanical');
#9 = PRODUCT_DEFINITION_CONTEXT('part definition',#2,'design');
#10 = MANIFOLD_SURFACE_SHAPE_REPRESENTATION('',(#11,#15),#121);
#11 = AXIS2_PLACEMENT_3D('',#12,#13,#14);
#12 = CARTESIAN_POINT('',(0.,0.,0.));
#13 = DIRECTION('',(0.,0.,1.));
#14 = DIRECTION('',(1.,0.,-0.));
#15 = SHELL_BASED_SURFACE_MODEL('',(#16));
#16 = OPEN_SHELL('',(#17));
#17 = ADVANCED_FACE('',(#18),#40,.T.);
#18 = FACE_BOUND('',#19,.T.);
#19 = EDGE_LOOP('',(#20,#59,#75,#107));
#20 = ORIENTED_EDGE('',*,*,#21,.T.);
#21 = EDGE_CURVE('',#22,#24,#26,.T.);
#22 = VERTEX_POINT('',#23);
#23 = CARTESIAN_POINT('',(0.,1.606203076659,0.));
#24 = VERTEX_POINT('',#25);
#25 = CARTESIAN_POINT('',(150.,3.124105900863,0.));
#26 = SURFACE_CURVE('',#27,(#39),.PCURVE_S1.);
#27 = B_SPLINE_CURVE_WITH_KNOTS('',1,(#28,#29,#30,#31,#32,#33,#34,#35,
    #36,#37,#38),.UNSPECIFIED.,.F.,.F.,(2,1,1,1,1,1,1,1,1,1,2),(0.,
    6.667289119284E-02,9.122485034203E-02,0.335585854035,0.374732370144,
    0.464710560789,0.537144077569,0.60524935575,0.634272860945,
    0.693922239687,1.),.UNSPECIFIED.);
#28 = CARTESIAN_POINT('',(0.,1.606203076659,0.));
#29 = CARTESIAN_POINT('',(9.955714282906,-0.973162907231,0.));
#30 = CARTESIAN_POINT('',(13.51714026126,0.314872812097,0.));
#31 = CARTESIAN_POINT('',(51.205824241299,0.895938792792,0.));
#32 = CARTESIAN_POINT('',(57.127252496701,-0.286974822115,0.));
#33 = CARTESIAN_POINT('',(70.655518723133,2.814849498462,0.));
#34 = CARTESIAN_POINT('',(79.188931974217,-4.397435086676,0.));
#35 = CARTESIAN_POINT('',(89.581900281709,-2.864770818335,0.));
#36 = CARTESIAN_POINT('',(94.005303306182,-2.174531694584,0.));
#37 = CARTESIAN_POINT('',(102.87257813237,0.281166326874,0.));
#38 = CARTESIAN_POINT('',(150.,3.124105900863,0.));
#39 = PCURVE('',#40,#45);
#40 = PLANE('',#41);
#41 = AXIS2_PLACEMENT_3D('',#42,#43,#44);
#42 = CARTESIAN_POINT('',(74.12660697011,7.5,0.));
#43 = DIRECTION('',(0.,0.,1.));
#44 = DIRECTION('',(1.,0.,-0.));
#45 = DEFINITIONAL_REPRESENTATION('',(#46),#58);
#46 = B_SPLINE_CURVE_WITH_KNOTS('',1,(#47,#48,#49,#50,#51,#52,#53,#54,
    #55,#56,#57),.UNSPECIFIED.,.F.,.F.,(2,1,1,1,1,1,1,1,1,1,2),(0.,
    6.667289119284E-02,9.122485034203E-02,0.335585854035,0.374732370144,
    0.464710560789,0.537144077569,0.60524935575,0.634272860945,
    0.693922239687,1.),.UNSPECIFIED.);
#47 = CARTESIAN_POINT('',(-74.12660697011,-5.893796923341));
#48 = CARTESIAN_POINT('',(-64.1708926872,-8.473162907231));
#49 = CARTESIAN_POINT('',(-60.60946670885,-7.185127187903));
#50 = CARTESIAN_POINT('',(-22.92078272881,-6.604061207208));
#51 = CARTESIAN_POINT('',(-16.9993544734,-7.786974822115));
#52 = CARTESIAN_POINT('',(-3.471088246977,-4.685150501538));
#53 = CARTESIAN_POINT('',(5.062325004107,-11.89743508667));
#54 = CARTESIAN_POINT('',(15.455293311599,-10.36477081833));
#55 = CARTESIAN_POINT('',(19.878696336072,-9.674531694584));
#56 = CARTESIAN_POINT('',(28.745971162264,-7.218833673126));
#57 = CARTESIAN_POINT('',(75.87339302989,-4.375894099137));
#58 = ( GEOMETRIC_REPRESENTATION_CONTEXT(2) 
PARAMETRIC_REPRESENTATION_CONTEXT() REPRESENTATION_CONTEXT('2D SPACE',''
  ) );
#59 = ORIENTED_EDGE('',*,*,#60,.T.);
#60 = EDGE_CURVE('',#24,#61,#63,.T.);
#61 = VERTEX_POINT('',#62);
#62 = CARTESIAN_POINT('',(150.,11.875894099137,0.));
#63 = SURFACE_CURVE('',#64,(#68),.PCURVE_S1.);
#64 = LINE('',#65,#66);
#65 = CARTESIAN_POINT('',(150.,3.124105900863,0.));
#66 = VECTOR('',#67,1.);
#67 = DIRECTION('',(0.,1.,0.));
#68 = PCURVE('',#40,#69);
#69 = DEFINITIONAL_REPRESENTATION('',(#70),#74);
#70 = LINE('',#71,#72);
#71 = CARTESIAN_POINT('',(75.87339302989,-4.375894099137));
#72 = VECTOR('',#73,1.);
#73 = DIRECTION('',(0.,1.));
#74 = ( GEOMETRIC_REPRESENTATION_CONTEXT(2) 
PARAMETRIC_REPRESENTATION_CONTEXT() REPRESENTATION_CONTEXT('2D SPACE',''
  ) );
#75 = ORIENTED_EDGE('',*,*,#76,.T.);
#76 = EDGE_CURVE('',#61,#77,#79,.T.);
#77 = VERTEX_POINT('',#78);
#78 = CARTESIAN_POINT('',(0.,13.393796923341,0.));
#79 = SURFACE_CURVE('',#80,(#92),.PCURVE_S1.);
#80 = B_SPLINE_CURVE_WITH_KNOTS('',1,(#81,#82,#83,#84,#85,#86,#87,#88,
    #89,#90,#91),.UNSPECIFIED.,.F.,.F.,(2,1,1,1,1,1,1,1,1,1,2),(0.,
    0.306077760313,0.365727139055,0.39475064425,0.462855922431,
    0.535289439211,0.625267629856,0.664414145965,0.908775149658,
    0.933327108807,1.),.UNSPECIFIED.);
#81 = CARTESIAN_POINT('',(150.,11.875894099137,0.));
#82 = CARTESIAN_POINT('',(102.87257813237,14.718833673126,0.));
#83 = CARTESIAN_POINT('',(94.005303306182,17.174531694584,0.));
#84 = CARTESIAN_POINT('',(89.581900281709,17.864770818335,0.));
#85 = CARTESIAN_POINT('',(79.188931974217,19.397435086676,0.));
#86 = CARTESIAN_POINT('',(70.655518723133,12.185150501538,0.));
#87 = CARTESIAN_POINT('',(57.127252496701,15.286974822115,0.));
#88 = CARTESIAN_POINT('',(51.205824241299,14.104061207208,0.));
#89 = CARTESIAN_POINT('',(13.51714026126,14.685127187903,0.));
#90 = CARTESIAN_POINT('',(9.955714282906,15.973162907231,0.));
#91 = CARTESIAN_POINT('',(0.,13.393796923341,0.));
#92 = PCURVE('',#40,#93);
#93 = DEFINITIONAL_REPRESENTATION('',(#94),#106);
#94 = B_SPLINE_CURVE_WITH_KNOTS('',1,(#95,#96,#97,#98,#99,#100,#101,#102
    ,#103,#104,#105),.UNSPECIFIED.,.F.,.F.,(2,1,1,1,1,1,1,1,1,1,2),(0.,
    0.306077760313,0.365727139055,0.39475064425,0.462855922431,
    0.535289439211,0.625267629856,0.664414145965,0.908775149658,
    0.933327108807,1.),.UNSPECIFIED.);
#95 = CARTESIAN_POINT('',(75.87339302989,4.375894099137));
#96 = CARTESIAN_POINT('',(28.745971162264,7.218833673126));
#97 = CARTESIAN_POINT('',(19.878696336072,9.674531694584));
#98 = CARTESIAN_POINT('',(15.455293311599,10.364770818335));
#99 = CARTESIAN_POINT('',(5.062325004107,11.897435086676));
#100 = CARTESIAN_POINT('',(-3.471088246977,4.685150501538));
#101 = CARTESIAN_POINT('',(-16.9993544734,7.786974822115));
#102 = CARTESIAN_POINT('',(-22.92078272881,6.604061207208));
#103 = CARTESIAN_POINT('',(-60.60946670885,7.185127187903));
#104 = CARTESIAN_POINT('',(-64.1708926872,8.473162907231));
#105 = CARTESIAN_POINT('',(-74.12660697011,5.893796923341));
#106 = ( GEOMETRIC_REPRESENTATION_CONTEXT(2) 
PARAMETRIC_REPRESENTATION_CONTEXT() REPRESENTATION_CONTEXT('2D SPACE',''
  ) );
#107 = ORIENTED_EDGE('',*,*,#108,.T.);
#108 = EDGE_CURVE('',#77,#22,#109,.T.);
#109 = SURFACE_CURVE('',#110,(#114),.PCURVE_S1.);
#110 = LINE('',#111,#112);
#111 = CARTESIAN_POINT('',(0.,13.393796923341,0.));
#112 = VECTOR('',#113,1.);
#113 = DIRECTION('',(0.,-1.,0.));
#114 = PCURVE('',#40,#115);
#115 = DEFINITIONAL_REPRESENTATION('',(#116),#120);
#116 = LINE('',#117,#118);
#117 = CARTESIAN_POINT('',(-74.12660697011,5.893796923341));
#118 = VECTOR('',#119,1.);
#119 = DIRECTION('',(0.,-1.));
#120 = ( GEOMETRIC_REPRESENTATION_CONTEXT(2) 
PARAMETRIC_REPRESENTATION_CONTEXT() REPRESENTATION_CONTEXT('2D SPACE',''
  ) );
#121 = ( GEOMETRIC_REPRESENTATION_CONTEXT(3) 
GLOBAL_UNCERTAINTY_ASSIGNED_CONTEXT((#125)) GLOBAL_UNIT_ASSIGNED_CONTEXT
((#122,#123,#124)) REPRESENTATION_CONTEXT('Context #1',
  '3D Context with UNIT and UNCERTAINTY') );
#122 = ( LENGTH_UNIT() NAMED_UNIT(*) SI_UNIT(.MILLI.,.METRE.) );
#123 = ( NAMED_UNIT(*) PLANE_ANGLE_UNIT() SI_UNIT($,.RADIAN.) );
#124 = ( NAMED_UNIT(*) SI_UNIT($,.STERADIAN.) SOLID_ANGLE_UNIT() );
#125 = UNCERTAINTY_MEASURE_WITH_UNIT(LENGTH_MEASURE(1.E-07),#122,
  'distance_accuracy_value','confusion accuracy');
#126 = PRODUCT_RELATED_PRODUCT_CATEGORY('part',$,(#7));
ENDSEC;
END-ISO-10303-21;
