ISO-10303-21;
HEADER;
FILE_DESCRIPTION(('Open CASCADE Model'),'2;1');
FILE_NAME('Open CASCADE Shape Model','2026-06-01T11:13:06',('Author'),(
    'Open CASCADE'),'Open CASCADE STEP processor 7.9','Open CASCADE 7.9'
  ,'Unknown');
FILE_SCHEMA(('AUTOMOTIVE_DESIGN { 1 0 10303 214 1 1 1 1 }'));
ENDSEC;
DATA;
#1 = APPLICATION_PROTOCOL_DEFINITION('international standard',
  'automotive_design',2000,#2);
#2 = APPLICATION_CONTEXT(
  'core data for automotive mechanical design processes');
#3 = SHAPE_DEFINITION_REPRESENTATION(#4,#10);
#4 = PRODUCT_DEFINITION_SHAPE('','',#5);
#5 = PRODUCT_DEFINITION('design','',#6,#9);
#6 = PRODUCT_DEFINITION_FORMATION('','',#7);
#7 = PRODUCT('Open CASCADE STEP translator 7.9 29',
  'Open CASCADE STEP translator 7.9 29','',(#8));
#8 = PRODUCT_CONTEXT('',#2,'mechanical');
#9 = PRODUCT_DEFINITION_CONTEXT('part definition',#2,'design');
#10 = MANIFOLD_SURFACE_SHAPE_REPRESENTATION('',(#11,#15),#121);
#11 = AXIS2_PLACEMENT_3D('',#12,#13,#14);
#12 = CARTESIAN_POINT('',(0.,0.,0.));
#13 = DIRECTION('',(0.,0.,1.));
#14 = DIRECTION('',(1.,0.,-0.));
#15 = SHELL_BASED_SURFACE_MODEL('',(#16));
#16 = OPEN_SHELL('',(#17));
#17 = ADVANCED_FACE('',(#18),#40,.T.);
#18 = FACE_BOUND('',#19,.T.);
#19 = EDGE_LOOP('',(#20,#59,#75,#107));
#20 = ORIENTED_EDGE('',*,*,#21,.T.);
#21 = EDGE_CURVE('',#22,#24,#26,.T.);
#22 = VERTEX_POINT('',#23);
#23 = CARTESIAN_POINT('',(0.,-2.091721526944,0.));
#24 = VERTEX_POINT('',#25);
#25 = CARTESIAN_POINT('',(150.,3.385172026222,0.));
#26 = SURFACE_CURVE('',#27,(#39),.PCURVE_S1.);
#27 = B_SPLINE_CURVE_WITH_KNOTS('',1,(#28,#29,#30,#31,#32,#33,#34,#35,
    #36,#37,#38),.UNSPECIFIED.,.F.,.F.,(2,1,1,1,1,1,1,1,1,1,2),(0.,
    9.520566600938E-02,0.148915507995,0.241340992404,0.299271950883,
    0.369863997479,0.492374411032,0.732325754768,0.77878220857,
    0.971579760319,1.),.UNSPECIFIED.);
#28 = CARTESIAN_POINT('',(0.,-2.091721526944,0.));
#29 = CARTESIAN_POINT('',(14.309243807102,0.539201704254,0.));
#30 = CARTESIAN_POINT('',(22.453783224521,-0.477934221701,0.));
#31 = CARTESIAN_POINT('',(36.548739392285,-1.386921685341,0.));
#32 = CARTESIAN_POINT('',(44.933226382864,-4.22833605035,0.));
#33 = CARTESIAN_POINT('',(55.72011180653,-4.361202732885,0.));
#34 = CARTESIAN_POINT('',(73.361723108546,1.905945790609,0.));
#35 = CARTESIAN_POINT('',(109.8106088594,-2.103781476941,0.));
#36 = CARTESIAN_POINT('',(116.9084674891,-2.249851841417,0.));
#37 = CARTESIAN_POINT('',(146.14666732069,1.381564248183,0.));
#38 = CARTESIAN_POINT('',(150.,3.385172026222,0.));
#39 = PCURVE('',#40,#45);
#40 = PLANE('',#41);
#41 = AXIS2_PLACEMENT_3D('',#42,#43,#44);
#42 = CARTESIAN_POINT('',(72.555162594181,7.5,0.));
#43 = DIRECTION('',(0.,0.,1.));
#44 = DIRECTION('',(1.,0.,-0.));
#45 = DEFINITIONAL_REPRESENTATION('',(#46),#58);
#46 = B_SPLINE_CURVE_WITH_KNOTS('',1,(#47,#48,#49,#50,#51,#52,#53,#54,
    #55,#56,#57),.UNSPECIFIED.,.F.,.F.,(2,1,1,1,1,1,1,1,1,1,2),(0.,
    9.520566600938E-02,0.148915507995,0.241340992404,0.299271950883,
    0.369863997479,0.492374411032,0.732325754768,0.77878220857,
    0.971579760319,1.),.UNSPECIFIED.);
#47 = CARTESIAN_POINT('',(-72.55516259418,-9.591721526944));
#48 = CARTESIAN_POINT('',(-58.24591878707,-6.960798295746));
#49 = CARTESIAN_POINT('',(-50.10137936966,-7.977934221701));
#50 = CARTESIAN_POINT('',(-36.00642320189,-8.886921685341));
#51 = CARTESIAN_POINT('',(-27.62193621131,-11.72833605035));
#52 = CARTESIAN_POINT('',(-16.83505078765,-11.86120273288));
#53 = CARTESIAN_POINT('',(0.806560514365,-5.594054209391));
#54 = CARTESIAN_POINT('',(37.255446265226,-9.603781476941));
#55 = CARTESIAN_POINT('',(44.353304894928,-9.749851841417));
#56 = CARTESIAN_POINT('',(73.591504726515,-6.118435751817));
#57 = CARTESIAN_POINT('',(77.444837405819,-4.114827973778));
#58 = ( GEOMETRIC_REPRESENTATION_CONTEXT(2) 
PARAMETRIC_REPRESENTATION_CONTEXT() REPRESENTATION_CONTEXT('2D SPACE',''
  ) );
#59 = ORIENTED_EDGE('',*,*,#60,.T.);
#60 = EDGE_CURVE('',#24,#61,#63,.T.);
#61 = VERTEX_POINT('',#62);
#62 = CARTESIAN_POINT('',(150.,11.614827973778,0.));
#63 = SURFACE_CURVE('',#64,(#68),.PCURVE_S1.);
#64 = LINE('',#65,#66);
#65 = CARTESIAN_POINT('',(150.,3.385172026222,0.));
#66 = VECTOR('',#67,1.);
#67 = DIRECTION('',(0.,1.,0.));
#68 = PCURVE('',#40,#69);
#69 = DEFINITIONAL_REPRESENTATION('',(#70),#74);
#70 = LINE('',#71,#72);
#71 = CARTESIAN_POINT('',(77.444837405819,-4.114827973778));
#72 = VECTOR('',#73,1.);
#73 = DIRECTION('',(0.,1.));
#74 = ( GEOMETRIC_REPRESENTATION_CONTEXT(2) 
PARAMETRIC_REPRESENTATION_CONTEXT() REPRESENTATION_CONTEXT('2D SPACE',''
  ) );
#75 = ORIENTED_EDGE('',*,*,#76,.T.);
#76 = EDGE_CURVE('',#61,#77,#79,.T.);
#77 = VERTEX_POINT('',#78);
#78 = CARTESIAN_POINT('',(0.,17.091721526944,0.));
#79 = SURFACE_CURVE('',#80,(#92),.PCURVE_S1.);
#80 = B_SPLINE_CURVE_WITH_KNOTS('',1,(#81,#82,#83,#84,#85,#86,#87,#88,
    #89,#90,#91),.UNSPECIFIED.,.F.,.F.,(2,1,1,1,1,1,1,1,1,1,2),(0.,
    2.84202396814E-02,0.22121779143,0.267674245232,0.507625588968,
    0.630136002521,0.700728049117,0.758659007596,0.851084492005,
    0.904794333991,1.),.UNSPECIFIED.);
#81 = CARTESIAN_POINT('',(150.,11.614827973778,0.));
#82 = CARTESIAN_POINT('',(146.14666732069,13.618435751817,0.));
#83 = CARTESIAN_POINT('',(116.9084674891,17.249851841417,0.));
#84 = CARTESIAN_POINT('',(109.8106088594,17.103781476941,0.));
#85 = CARTESIAN_POINT('',(73.361723108546,13.094054209391,0.));
#86 = CARTESIAN_POINT('',(55.72011180653,19.361202732885,0.));
#87 = CARTESIAN_POINT('',(44.933226382864,19.22833605035,0.));
#88 = CARTESIAN_POINT('',(36.548739392285,16.386921685341,0.));
#89 = CARTESIAN_POINT('',(22.453783224521,15.477934221701,0.));
#90 = CARTESIAN_POINT('',(14.309243807102,14.460798295746,0.));
#91 = CARTESIAN_POINT('',(0.,17.091721526944,0.));
#92 = PCURVE('',#40,#93);
#93 = DEFINITIONAL_REPRESENTATION('',(#94),#106);
#94 = B_SPLINE_CURVE_WITH_KNOTS('',1,(#95,#96,#97,#98,#99,#100,#101,#102
    ,#103,#104,#105),.UNSPECIFIED.,.F.,.F.,(2,1,1,1,1,1,1,1,1,1,2),(0.,
    2.84202396814E-02,0.22121779143,0.267674245232,0.507625588968,
    0.630136002521,0.700728049117,0.758659007596,0.851084492005,
    0.904794333991,1.),.UNSPECIFIED.);
#95 = CARTESIAN_POINT('',(77.444837405819,4.114827973778));
#96 = CARTESIAN_POINT('',(73.591504726515,6.118435751817));
#97 = CARTESIAN_POINT('',(44.353304894928,9.749851841417));
#98 = CARTESIAN_POINT('',(37.255446265226,9.603781476941));
#99 = CARTESIAN_POINT('',(0.806560514365,5.594054209391));
#100 = CARTESIAN_POINT('',(-16.83505078765,11.861202732885));
#101 = CARTESIAN_POINT('',(-27.62193621131,11.72833605035));
#102 = CARTESIAN_POINT('',(-36.00642320189,8.886921685341));
#103 = CARTESIAN_POINT('',(-50.10137936966,7.977934221701));
#104 = CARTESIAN_POINT('',(-58.24591878707,6.960798295746));
#105 = CARTESIAN_POINT('',(-72.55516259418,9.591721526944));
#106 = ( GEOMETRIC_REPRESENTATION_CONTEXT(2) 
PARAMETRIC_REPRESENTATION_CONTEXT() REPRESENTATION_CONTEXT('2D SPACE',''
  ) );
#107 = ORIENTED_EDGE('',*,*,#108,.T.);
#108 = EDGE_CURVE('',#77,#22,#109,.T.);
#109 = SURFACE_CURVE('',#110,(#114),.PCURVE_S1.);
#110 = LINE('',#111,#112);
#111 = CARTESIAN_POINT('',(0.,17.091721526944,0.));
#112 = VECTOR('',#113,1.);
#113 = DIRECTION('',(0.,-1.,0.));
#114 = PCURVE('',#40,#115);
#115 = DEFINITIONAL_REPRESENTATION('',(#116),#120);
#116 = LINE('',#117,#118);
#117 = CARTESIAN_POINT('',(-72.55516259418,9.591721526944));
#118 = VECTOR('',#119,1.);
#119 = DIRECTION('',(0.,-1.));
#120 = ( GEOMETRIC_REPRESENTATION_CONTEXT(2) 
PARAMETRIC_REPRESENTATION_CONTEXT() REPRESENTATION_CONTEXT('2D SPACE',''
  ) );
#121 = ( GEOMETRIC_REPRESENTATION_CONTEXT(3) 
GLOBAL_UNCERTAINTY_ASSIGNED_CONTEXT((#125)) GLOBAL_UNIT_ASSIGNED_CONTEXT
((#122,#123,#124)) REPRESENTATION_CONTEXT('Context #1',
  '3D Context with UNIT and UNCERTAINTY') );
#122 = ( LENGTH_UNIT() NAMED_UNIT(*) SI_UNIT(.MILLI.,.METRE.) );
#123 = ( NAMED_UNIT(*) PLANE_ANGLE_UNIT() SI_UNIT($,.RADIAN.) );
#124 = ( NAMED_UNIT(*) SI_UNIT($,.STERADIAN.) SOLID_ANGLE_UNIT() );
#125 = UNCERTAINTY_MEASURE_WITH_UNIT(LENGTH_MEASURE(1.E-07),#122,
  'distance_accuracy_value','confusion accuracy');
#126 = PRODUCT_RELATED_PRODUCT_CATEGORY('part',$,(#7));
ENDSEC;
END-ISO-10303-21;
