ISO-10303-21;
HEADER;
FILE_DESCRIPTION(('Open CASCADE Model'),'2;1');
FILE_NAME('Open CASCADE Shape Model','2026-06-01T11:13:06',('Author'),(
    'Open CASCADE'),'Open CASCADE STEP processor 7.9','Open CASCADE 7.9'
  ,'Unknown');
FILE_SCHEMA(('AUTOMOTIVE_DESIGN { 1 0 10303 214 1 1 1 1 }'));
ENDSEC;
DATA;
#1 = APPLICATION_PROTOCOL_DEFINITION('international standard',
  'automotive_design',2000,#2);
#2 = APPLICATION_CONTEXT(
  'core data for automotive mechanical design processes');
#3 = SHAPE_DEFINITION_REPRESENTATION(#4,#10);
#4 = PRODUCT_DEFINITION_SHAPE('','',#5);
#5 = PRODUCT_DEFINITION('design','',#6,#9);
#6 = PRODUCT_DEFINITION_FORMATION('','',#7);
#7 = PRODUCT('Open CASCADE STEP translator 7.9 82',
  'Open CASCADE STEP translator 7.9 82','',(#8));
#8 = PRODUCT_CONTEXT('',#2,'mechanical');
#9 = PRODUCT_DEFINITION_CONTEXT('part definition',#2,'design');
#10 = MANIFOLD_SURFACE_SHAPE_REPRESENTATION('',(#11,#15),#121);
#11 = AXIS2_PLACEMENT_3D('',#12,#13,#14);
#12 = CARTESIAN_POINT('',(0.,0.,0.));
#13 = DIRECTION('',(0.,0.,1.));
#14 = DIRECTION('',(1.,0.,-0.));
#15 = SHELL_BASED_SURFACE_MODEL('',(#16));
#16 = OPEN_SHELL('',(#17));
#17 = ADVANCED_FACE('',(#18),#40,.T.);
#18 = FACE_BOUND('',#19,.T.);
#19 = EDGE_LOOP('',(#20,#59,#75,#107));
#20 = ORIENTED_EDGE('',*,*,#21,.T.);
#21 = EDGE_CURVE('',#22,#24,#26,.T.);
#22 = VERTEX_POINT('',#23);
#23 = CARTESIAN_POINT('',(0.,-0.281634793367,0.));
#24 = VERTEX_POINT('',#25);
#25 = CARTESIAN_POINT('',(150.,0.214795610186,0.));
#26 = SURFACE_CURVE('',#27,(#39),.PCURVE_S1.);
#27 = B_SPLINE_CURVE_WITH_KNOTS('',1,(#28,#29,#30,#31,#32,#33,#34,#35,
    #36,#37,#38),.UNSPECIFIED.,.F.,.F.,(2,1,1,1,1,1,1,1,1,1,2),(0.,
    2.627961097448E-02,0.17470101068,0.438351485028,0.469792605822,
    0.556888285867,0.598665514072,0.673893409512,0.826636441624,
    0.936495869071,1.),.UNSPECIFIED.);
#28 = CARTESIAN_POINT('',(0.,-0.281634793367,0.));
#29 = CARTESIAN_POINT('',(3.407697398984,-2.513429492173,0.));
#30 = CARTESIAN_POINT('',(25.907093482264,2.288702313045,0.));
#31 = CARTESIAN_POINT('',(66.774188952584,2.423283252595,0.));
#32 = CARTESIAN_POINT('',(71.290271251563,4.255360798522,0.));
#33 = CARTESIAN_POINT('',(81.873316397382,-4.126637645779,0.));
#34 = CARTESIAN_POINT('',(87.950561923874,-1.890151920492,0.));
#35 = CARTESIAN_POINT('',(99.592041367912,-1.220043186092,0.));
#36 = CARTESIAN_POINT('',(123.24795491875,-2.195952504255,0.));
#37 = CARTESIAN_POINT('',(140.16917192684,-0.284516268259,0.));
#38 = CARTESIAN_POINT('',(150.,0.214795610186,0.));
#39 = PCURVE('',#40,#45);
#40 = PLANE('',#41);
#41 = AXIS2_PLACEMENT_3D('',#42,#43,#44);
#42 = CARTESIAN_POINT('',(74.399658039228,7.5,0.));
#43 = DIRECTION('',(0.,0.,1.));
#44 = DIRECTION('',(1.,0.,-0.));
#45 = DEFINITIONAL_REPRESENTATION('',(#46),#58);
#46 = B_SPLINE_CURVE_WITH_KNOTS('',1,(#47,#48,#49,#50,#51,#52,#53,#54,
    #55,#56,#57),.UNSPECIFIED.,.F.,.F.,(2,1,1,1,1,1,1,1,1,1,2),(0.,
    2.627961097448E-02,0.17470101068,0.438351485028,0.469792605822,
    0.556888285867,0.598665514072,0.673893409512,0.826636441624,
    0.936495869071,1.),.UNSPECIFIED.);
#47 = CARTESIAN_POINT('',(-74.39965803922,-7.781634793367));
#48 = CARTESIAN_POINT('',(-70.99196064024,-10.01342949217));
#49 = CARTESIAN_POINT('',(-48.49256455696,-5.211297686955));
#50 = CARTESIAN_POINT('',(-7.625469086645,-5.076716747405));
#51 = CARTESIAN_POINT('',(-3.109386787665,-3.244639201478));
#52 = CARTESIAN_POINT('',(7.473658358154,-11.62663764577));
#53 = CARTESIAN_POINT('',(13.550903884646,-9.390151920492));
#54 = CARTESIAN_POINT('',(25.192383328684,-8.720043186092));
#55 = CARTESIAN_POINT('',(48.848296879528,-9.695952504255));
#56 = CARTESIAN_POINT('',(65.769513887615,-7.784516268259));
#57 = CARTESIAN_POINT('',(75.600341960772,-7.285204389814));
#58 = ( GEOMETRIC_REPRESENTATION_CONTEXT(2) 
PARAMETRIC_REPRESENTATION_CONTEXT() REPRESENTATION_CONTEXT('2D SPACE',''
  ) );
#59 = ORIENTED_EDGE('',*,*,#60,.T.);
#60 = EDGE_CURVE('',#24,#61,#63,.T.);
#61 = VERTEX_POINT('',#62);
#62 = CARTESIAN_POINT('',(150.,14.785204389814,0.));
#63 = SURFACE_CURVE('',#64,(#68),.PCURVE_S1.);
#64 = LINE('',#65,#66);
#65 = CARTESIAN_POINT('',(150.,0.214795610186,0.));
#66 = VECTOR('',#67,1.);
#67 = DIRECTION('',(0.,1.,0.));
#68 = PCURVE('',#40,#69);
#69 = DEFINITIONAL_REPRESENTATION('',(#70),#74);
#70 = LINE('',#71,#72);
#71 = CARTESIAN_POINT('',(75.600341960772,-7.285204389814));
#72 = VECTOR('',#73,1.);
#73 = DIRECTION('',(0.,1.));
#74 = ( GEOMETRIC_REPRESENTATION_CONTEXT(2) 
PARAMETRIC_REPRESENTATION_CONTEXT() REPRESENTATION_CONTEXT('2D SPACE',''
  ) );
#75 = ORIENTED_EDGE('',*,*,#76,.T.);
#76 = EDGE_CURVE('',#61,#77,#79,.T.);
#77 = VERTEX_POINT('',#78);
#78 = CARTESIAN_POINT('',(0.,15.281634793367,0.));
#79 = SURFACE_CURVE('',#80,(#92),.PCURVE_S1.);
#80 = B_SPLINE_CURVE_WITH_KNOTS('',1,(#81,#82,#83,#84,#85,#86,#87,#88,
    #89,#90,#91),.UNSPECIFIED.,.F.,.F.,(2,1,1,1,1,1,1,1,1,1,2),(0.,
    6.350413092871E-02,0.173363558376,0.326106590488,0.401334485928,
    0.443111714133,0.530207394178,0.561648514972,0.82529898932,
    0.973720389026,1.),.UNSPECIFIED.);
#81 = CARTESIAN_POINT('',(150.,14.785204389814,0.));
#82 = CARTESIAN_POINT('',(140.16917192684,15.284516268259,0.));
#83 = CARTESIAN_POINT('',(123.24795491875,17.195952504255,0.));
#84 = CARTESIAN_POINT('',(99.592041367912,16.220043186092,0.));
#85 = CARTESIAN_POINT('',(87.950561923874,16.890151920492,0.));
#86 = CARTESIAN_POINT('',(81.873316397382,19.126637645779,0.));
#87 = CARTESIAN_POINT('',(71.290271251563,10.744639201478,0.));
#88 = CARTESIAN_POINT('',(66.774188952584,12.576716747405,0.));
#89 = CARTESIAN_POINT('',(25.907093482264,12.711297686955,0.));
#90 = CARTESIAN_POINT('',(3.407697398984,17.513429492173,0.));
#91 = CARTESIAN_POINT('',(0.,15.281634793367,0.));
#92 = PCURVE('',#40,#93);
#93 = DEFINITIONAL_REPRESENTATION('',(#94),#106);
#94 = B_SPLINE_CURVE_WITH_KNOTS('',1,(#95,#96,#97,#98,#99,#100,#101,#102
    ,#103,#104,#105),.UNSPECIFIED.,.F.,.F.,(2,1,1,1,1,1,1,1,1,1,2),(0.,
    6.350413092871E-02,0.173363558376,0.326106590488,0.401334485928,
    0.443111714133,0.530207394178,0.561648514972,0.82529898932,
    0.973720389026,1.),.UNSPECIFIED.);
#95 = CARTESIAN_POINT('',(75.600341960772,7.285204389814));
#96 = CARTESIAN_POINT('',(65.769513887615,7.784516268259));
#97 = CARTESIAN_POINT('',(48.848296879528,9.695952504255));
#98 = CARTESIAN_POINT('',(25.192383328684,8.720043186092));
#99 = CARTESIAN_POINT('',(13.550903884646,9.390151920492));
#100 = CARTESIAN_POINT('',(7.473658358154,11.626637645779));
#101 = CARTESIAN_POINT('',(-3.109386787665,3.244639201478));
#102 = CARTESIAN_POINT('',(-7.625469086645,5.076716747405));
#103 = CARTESIAN_POINT('',(-48.49256455696,5.211297686955));
#104 = CARTESIAN_POINT('',(-70.99196064024,10.013429492173));
#105 = CARTESIAN_POINT('',(-74.39965803922,7.781634793367));
#106 = ( GEOMETRIC_REPRESENTATION_CONTEXT(2) 
PARAMETRIC_REPRESENTATION_CONTEXT() REPRESENTATION_CONTEXT('2D SPACE',''
  ) );
#107 = ORIENTED_EDGE('',*,*,#108,.T.);
#108 = EDGE_CURVE('',#77,#22,#109,.T.);
#109 = SURFACE_CURVE('',#110,(#114),.PCURVE_S1.);
#110 = LINE('',#111,#112);
#111 = CARTESIAN_POINT('',(0.,15.281634793367,0.));
#112 = VECTOR('',#113,1.);
#113 = DIRECTION('',(0.,-1.,0.));
#114 = PCURVE('',#40,#115);
#115 = DEFINITIONAL_REPRESENTATION('',(#116),#120);
#116 = LINE('',#117,#118);
#117 = CARTESIAN_POINT('',(-74.39965803922,7.781634793367));
#118 = VECTOR('',#119,1.);
#119 = DIRECTION('',(0.,-1.));
#120 = ( GEOMETRIC_REPRESENTATION_CONTEXT(2) 
PARAMETRIC_REPRESENTATION_CONTEXT() REPRESENTATION_CONTEXT('2D SPACE',''
  ) );
#121 = ( GEOMETRIC_REPRESENTATION_CONTEXT(3) 
GLOBAL_UNCERTAINTY_ASSIGNED_CONTEXT((#125)) GLOBAL_UNIT_ASSIGNED_CONTEXT
((#122,#123,#124)) REPRESENTATION_CONTEXT('Context #1',
  '3D Context with UNIT and UNCERTAINTY') );
#122 = ( LENGTH_UNIT() NAMED_UNIT(*) SI_UNIT(.MILLI.,.METRE.) );
#123 = ( NAMED_UNIT(*) PLANE_ANGLE_UNIT() SI_UNIT($,.RADIAN.) );
#124 = ( NAMED_UNIT(*) SI_UNIT($,.STERADIAN.) SOLID_ANGLE_UNIT() );
#125 = UNCERTAINTY_MEASURE_WITH_UNIT(LENGTH_MEASURE(1.E-07),#122,
  'distance_accuracy_value','confusion accuracy');
#126 = PRODUCT_RELATED_PRODUCT_CATEGORY('part',$,(#7));
ENDSEC;
END-ISO-10303-21;
