ISO-10303-21;
HEADER;
FILE_DESCRIPTION(('Open CASCADE Model'),'2;1');
FILE_NAME('Open CASCADE Shape Model','2026-06-01T11:13:06',('Author'),(
    'Open CASCADE'),'Open CASCADE STEP processor 7.9','Open CASCADE 7.9'
  ,'Unknown');
FILE_SCHEMA(('AUTOMOTIVE_DESIGN { 1 0 10303 214 1 1 1 1 }'));
ENDSEC;
DATA;
#1 = APPLICATION_PROTOCOL_DEFINITION('international standard',
  'automotive_design',2000,#2);
#2 = APPLICATION_CONTEXT(
  'core data for automotive mechanical design processes');
#3 = SHAPE_DEFINITION_REPRESENTATION(#4,#10);
#4 = PRODUCT_DEFINITION_SHAPE('','',#5);
#5 = PRODUCT_DEFINITION('design','',#6,#9);
#6 = PRODUCT_DEFINITION_FORMATION('','',#7);
#7 = PRODUCT('Open CASCADE STEP translator 7.9 87',
  'Open CASCADE STEP translator 7.9 87','',(#8));
#8 = PRODUCT_CONTEXT('',#2,'mechanical');
#9 = PRODUCT_DEFINITION_CONTEXT('part definition',#2,'design');
#10 = MANIFOLD_SURFACE_SHAPE_REPRESENTATION('',(#11,#15),#121);
#11 = AXIS2_PLACEMENT_3D('',#12,#13,#14);
#12 = CARTESIAN_POINT('',(0.,0.,0.));
#13 = DIRECTION('',(0.,0.,1.));
#14 = DIRECTION('',(1.,0.,-0.));
#15 = SHELL_BASED_SURFACE_MODEL('',(#16));
#16 = OPEN_SHELL('',(#17));
#17 = ADVANCED_FACE('',(#18),#40,.T.);
#18 = FACE_BOUND('',#19,.T.);
#19 = EDGE_LOOP('',(#20,#59,#75,#107));
#20 = ORIENTED_EDGE('',*,*,#21,.T.);
#21 = EDGE_CURVE('',#22,#24,#26,.T.);
#22 = VERTEX_POINT('',#23);
#23 = CARTESIAN_POINT('',(0.,-3.969686562882,0.));
#24 = VERTEX_POINT('',#25);
#25 = CARTESIAN_POINT('',(150.,-2.304838329416,0.));
#26 = SURFACE_CURVE('',#27,(#39),.PCURVE_S1.);
#27 = B_SPLINE_CURVE_WITH_KNOTS('',1,(#28,#29,#30,#31,#32,#33,#34,#35,
    #36,#37,#38),.UNSPECIFIED.,.F.,.F.,(2,1,1,1,1,1,1,1,1,1,2),(0.,
    5.738546452305E-02,0.150078927972,0.182450548085,0.208229866908,
    0.306443139353,0.757162610695,0.850139605501,0.89634729272,
    0.956887115008,1.),.UNSPECIFIED.);
#28 = CARTESIAN_POINT('',(0.,-3.969686562882,0.));
#29 = CARTESIAN_POINT('',(6.060834147168,2.993715003202,0.));
#30 = CARTESIAN_POINT('',(20.388109044166,-1.139752959277,0.));
#31 = CARTESIAN_POINT('',(24.838941994418,1.563854740523,0.));
#32 = CARTESIAN_POINT('',(27.863000552513,-1.274051933679,0.));
#33 = CARTESIAN_POINT('',(43.52723136238,0.789672631823,0.));
#34 = CARTESIAN_POINT('',(115.96713790186,-2.336787470758,0.));
#35 = CARTESIAN_POINT('',(130.14651391798,2.423887872049,0.));
#36 = CARTESIAN_POINT('',(134.42881394258,-3.652126676228,0.));
#37 = CARTESIAN_POINT('',(143.45793013605,-1.886843820169E-03,0.));
#38 = CARTESIAN_POINT('',(150.,-2.304838329416,0.));
#39 = PCURVE('',#40,#45);
#40 = PLANE('',#41);
#41 = AXIS2_PLACEMENT_3D('',#42,#43,#44);
#42 = CARTESIAN_POINT('',(73.918887729968,7.5,0.));
#43 = DIRECTION('',(0.,0.,1.));
#44 = DIRECTION('',(1.,0.,-0.));
#45 = DEFINITIONAL_REPRESENTATION('',(#46),#58);
#46 = B_SPLINE_CURVE_WITH_KNOTS('',1,(#47,#48,#49,#50,#51,#52,#53,#54,
    #55,#56,#57),.UNSPECIFIED.,.F.,.F.,(2,1,1,1,1,1,1,1,1,1,2),(0.,
    5.738546452305E-02,0.150078927972,0.182450548085,0.208229866908,
    0.306443139353,0.757162610695,0.850139605501,0.89634729272,
    0.956887115008,1.),.UNSPECIFIED.);
#47 = CARTESIAN_POINT('',(-73.91888772996,-11.46968656288));
#48 = CARTESIAN_POINT('',(-67.8580535828,-4.506284996798));
#49 = CARTESIAN_POINT('',(-53.5307786858,-8.639752959277));
#50 = CARTESIAN_POINT('',(-49.07994573555,-5.936145259477));
#51 = CARTESIAN_POINT('',(-46.05588717745,-8.774051933679));
#52 = CARTESIAN_POINT('',(-30.39165636758,-6.710327368177));
#53 = CARTESIAN_POINT('',(42.048250171896,-9.836787470758));
#54 = CARTESIAN_POINT('',(56.227626188014,-5.076112127951));
#55 = CARTESIAN_POINT('',(60.509926212615,-11.15212667622));
#56 = CARTESIAN_POINT('',(69.539042406085,-7.50188684382));
#57 = CARTESIAN_POINT('',(76.081112270032,-9.804838329416));
#58 = ( GEOMETRIC_REPRESENTATION_CONTEXT(2) 
PARAMETRIC_REPRESENTATION_CONTEXT() REPRESENTATION_CONTEXT('2D SPACE',''
  ) );
#59 = ORIENTED_EDGE('',*,*,#60,.T.);
#60 = EDGE_CURVE('',#24,#61,#63,.T.);
#61 = VERTEX_POINT('',#62);
#62 = CARTESIAN_POINT('',(150.,17.304838329416,0.));
#63 = SURFACE_CURVE('',#64,(#68),.PCURVE_S1.);
#64 = LINE('',#65,#66);
#65 = CARTESIAN_POINT('',(150.,-2.304838329416,0.));
#66 = VECTOR('',#67,1.);
#67 = DIRECTION('',(0.,1.,0.));
#68 = PCURVE('',#40,#69);
#69 = DEFINITIONAL_REPRESENTATION('',(#70),#74);
#70 = LINE('',#71,#72);
#71 = CARTESIAN_POINT('',(76.081112270032,-9.804838329416));
#72 = VECTOR('',#73,1.);
#73 = DIRECTION('',(0.,1.));
#74 = ( GEOMETRIC_REPRESENTATION_CONTEXT(2) 
PARAMETRIC_REPRESENTATION_CONTEXT() REPRESENTATION_CONTEXT('2D SPACE',''
  ) );
#75 = ORIENTED_EDGE('',*,*,#76,.T.);
#76 = EDGE_CURVE('',#61,#77,#79,.T.);
#77 = VERTEX_POINT('',#78);
#78 = CARTESIAN_POINT('',(0.,18.969686562882,0.));
#79 = SURFACE_CURVE('',#80,(#92),.PCURVE_S1.);
#80 = B_SPLINE_CURVE_WITH_KNOTS('',1,(#81,#82,#83,#84,#85,#86,#87,#88,
    #89,#90,#91),.UNSPECIFIED.,.F.,.F.,(2,1,1,1,1,1,1,1,1,1,2),(0.,
    4.311288499214E-02,0.10365270728,0.149860394499,0.242837389305,
    0.693556860647,0.791770133092,0.817549451915,0.849921072028,
    0.942614535477,1.),.UNSPECIFIED.);
#81 = CARTESIAN_POINT('',(150.,17.304838329416,0.));
#82 = CARTESIAN_POINT('',(143.45793013605,15.00188684382,0.));
#83 = CARTESIAN_POINT('',(134.42881394258,18.652126676228,0.));
#84 = CARTESIAN_POINT('',(130.14651391798,12.576112127951,0.));
#85 = CARTESIAN_POINT('',(115.96713790186,17.336787470758,0.));
#86 = CARTESIAN_POINT('',(43.52723136238,14.210327368177,0.));
#87 = CARTESIAN_POINT('',(27.863000552513,16.274051933679,0.));
#88 = CARTESIAN_POINT('',(24.838941994418,13.436145259477,0.));
#89 = CARTESIAN_POINT('',(20.388109044166,16.139752959277,0.));
#90 = CARTESIAN_POINT('',(6.060834147168,12.006284996798,0.));
#91 = CARTESIAN_POINT('',(0.,18.969686562882,0.));
#92 = PCURVE('',#40,#93);
#93 = DEFINITIONAL_REPRESENTATION('',(#94),#106);
#94 = B_SPLINE_CURVE_WITH_KNOTS('',1,(#95,#96,#97,#98,#99,#100,#101,#102
    ,#103,#104,#105),.UNSPECIFIED.,.F.,.F.,(2,1,1,1,1,1,1,1,1,1,2),(0.,
    4.311288499214E-02,0.10365270728,0.149860394499,0.242837389305,
    0.693556860647,0.791770133092,0.817549451915,0.849921072028,
    0.942614535477,1.),.UNSPECIFIED.);
#95 = CARTESIAN_POINT('',(76.081112270032,9.804838329416));
#96 = CARTESIAN_POINT('',(69.539042406085,7.50188684382));
#97 = CARTESIAN_POINT('',(60.509926212615,11.152126676228));
#98 = CARTESIAN_POINT('',(56.227626188014,5.076112127951));
#99 = CARTESIAN_POINT('',(42.048250171896,9.836787470758));
#100 = CARTESIAN_POINT('',(-30.39165636758,6.710327368177));
#101 = CARTESIAN_POINT('',(-46.05588717745,8.774051933679));
#102 = CARTESIAN_POINT('',(-49.07994573555,5.936145259477));
#103 = CARTESIAN_POINT('',(-53.5307786858,8.639752959277));
#104 = CARTESIAN_POINT('',(-67.8580535828,4.506284996798));
#105 = CARTESIAN_POINT('',(-73.91888772996,11.469686562882));
#106 = ( GEOMETRIC_REPRESENTATION_CONTEXT(2) 
PARAMETRIC_REPRESENTATION_CONTEXT() REPRESENTATION_CONTEXT('2D SPACE',''
  ) );
#107 = ORIENTED_EDGE('',*,*,#108,.T.);
#108 = EDGE_CURVE('',#77,#22,#109,.T.);
#109 = SURFACE_CURVE('',#110,(#114),.PCURVE_S1.);
#110 = LINE('',#111,#112);
#111 = CARTESIAN_POINT('',(0.,18.969686562882,0.));
#112 = VECTOR('',#113,1.);
#113 = DIRECTION('',(0.,-1.,0.));
#114 = PCURVE('',#40,#115);
#115 = DEFINITIONAL_REPRESENTATION('',(#116),#120);
#116 = LINE('',#117,#118);
#117 = CARTESIAN_POINT('',(-73.91888772996,11.469686562882));
#118 = VECTOR('',#119,1.);
#119 = DIRECTION('',(0.,-1.));
#120 = ( GEOMETRIC_REPRESENTATION_CONTEXT(2) 
PARAMETRIC_REPRESENTATION_CONTEXT() REPRESENTATION_CONTEXT('2D SPACE',''
  ) );
#121 = ( GEOMETRIC_REPRESENTATION_CONTEXT(3) 
GLOBAL_UNCERTAINTY_ASSIGNED_CONTEXT((#125)) GLOBAL_UNIT_ASSIGNED_CONTEXT
((#122,#123,#124)) REPRESENTATION_CONTEXT('Context #1',
  '3D Context with UNIT and UNCERTAINTY') );
#122 = ( LENGTH_UNIT() NAMED_UNIT(*) SI_UNIT(.MILLI.,.METRE.) );
#123 = ( NAMED_UNIT(*) PLANE_ANGLE_UNIT() SI_UNIT($,.RADIAN.) );
#124 = ( NAMED_UNIT(*) SI_UNIT($,.STERADIAN.) SOLID_ANGLE_UNIT() );
#125 = UNCERTAINTY_MEASURE_WITH_UNIT(LENGTH_MEASURE(1.E-07),#122,
  'distance_accuracy_value','confusion accuracy');
#126 = PRODUCT_RELATED_PRODUCT_CATEGORY('part',$,(#7));
ENDSEC;
END-ISO-10303-21;
