ISO-10303-21;
HEADER;
FILE_DESCRIPTION(('Open CASCADE Model'),'2;1');
FILE_NAME('Open CASCADE Shape Model','2026-06-01T11:13:06',('Author'),(
    'Open CASCADE'),'Open CASCADE STEP processor 7.9','Open CASCADE 7.9'
  ,'Unknown');
FILE_SCHEMA(('AUTOMOTIVE_DESIGN { 1 0 10303 214 1 1 1 1 }'));
ENDSEC;
DATA;
#1 = APPLICATION_PROTOCOL_DEFINITION('international standard',
  'automotive_design',2000,#2);
#2 = APPLICATION_CONTEXT(
  'core data for automotive mechanical design processes');
#3 = SHAPE_DEFINITION_REPRESENTATION(#4,#10);
#4 = PRODUCT_DEFINITION_SHAPE('','',#5);
#5 = PRODUCT_DEFINITION('design','',#6,#9);
#6 = PRODUCT_DEFINITION_FORMATION('','',#7);
#7 = PRODUCT('Open CASCADE STEP translator 7.9 44',
  'Open CASCADE STEP translator 7.9 44','',(#8));
#8 = PRODUCT_CONTEXT('',#2,'mechanical');
#9 = PRODUCT_DEFINITION_CONTEXT('part definition',#2,'design');
#10 = MANIFOLD_SURFACE_SHAPE_REPRESENTATION('',(#11,#15),#121);
#11 = AXIS2_PLACEMENT_3D('',#12,#13,#14);
#12 = CARTESIAN_POINT('',(0.,0.,0.));
#13 = DIRECTION('',(0.,0.,1.));
#14 = DIRECTION('',(1.,0.,-0.));
#15 = SHELL_BASED_SURFACE_MODEL('',(#16));
#16 = OPEN_SHELL('',(#17));
#17 = ADVANCED_FACE('',(#18),#40,.T.);
#18 = FACE_BOUND('',#19,.T.);
#19 = EDGE_LOOP('',(#20,#59,#75,#107));
#20 = ORIENTED_EDGE('',*,*,#21,.T.);
#21 = EDGE_CURVE('',#22,#24,#26,.T.);
#22 = VERTEX_POINT('',#23);
#23 = CARTESIAN_POINT('',(0.,1.83570423381,0.));
#24 = VERTEX_POINT('',#25);
#25 = CARTESIAN_POINT('',(150.,2.119141699638,0.));
#26 = SURFACE_CURVE('',#27,(#39),.PCURVE_S1.);
#27 = B_SPLINE_CURVE_WITH_KNOTS('',1,(#28,#29,#30,#31,#32,#33,#34,#35,
    #36,#37,#38),.UNSPECIFIED.,.F.,.F.,(2,1,1,1,1,1,1,1,1,1,2),(0.,
    2.688062694924E-02,0.111674768829,0.250241678,0.384507942194,
    0.445227968469,0.541180072524,0.600590681945,0.660509542937,
    0.729403265059,1.),.UNSPECIFIED.);
#28 = CARTESIAN_POINT('',(0.,1.83570423381,0.));
#29 = CARTESIAN_POINT('',(4.307228488657,1.158726266206,0.));
#30 = CARTESIAN_POINT('',(18.057725679973,0.856305320161,0.));
#31 = CARTESIAN_POINT('',(40.305171757826,-2.340134745696,0.));
#32 = CARTESIAN_POINT('',(62.083213386329,-2.451176889071,0.));
#33 = CARTESIAN_POINT('',(70.514998718929,2.638678252374,0.));
#34 = CARTESIAN_POINT('',(84.604085137228,-3.973849710643,0.));
#35 = CARTESIAN_POINT('',(90.791270478748,3.414101963007,0.));
#36 = CARTESIAN_POINT('',(97.555109207925,-3.565098741813,0.));
#37 = CARTESIAN_POINT('',(106.13339954277,3.596439189152,0.));
#38 = CARTESIAN_POINT('',(150.,2.119141699638,0.));
#39 = PCURVE('',#40,#45);
#40 = PLANE('',#41);
#41 = AXIS2_PLACEMENT_3D('',#42,#43,#44);
#42 = CARTESIAN_POINT('',(75.733779402354,7.5,0.));
#43 = DIRECTION('',(0.,0.,1.));
#44 = DIRECTION('',(1.,0.,-0.));
#45 = DEFINITIONAL_REPRESENTATION('',(#46),#58);
#46 = B_SPLINE_CURVE_WITH_KNOTS('',1,(#47,#48,#49,#50,#51,#52,#53,#54,
    #55,#56,#57),.UNSPECIFIED.,.F.,.F.,(2,1,1,1,1,1,1,1,1,1,2),(0.,
    2.688062694924E-02,0.111674768829,0.250241678,0.384507942194,
    0.445227968469,0.541180072524,0.600590681945,0.660509542937,
    0.729403265059,1.),.UNSPECIFIED.);
#47 = CARTESIAN_POINT('',(-75.73377940235,-5.66429576619));
#48 = CARTESIAN_POINT('',(-71.42655091369,-6.341273733794));
#49 = CARTESIAN_POINT('',(-57.67605372238,-6.643694679839));
#50 = CARTESIAN_POINT('',(-35.42860764452,-9.840134745696));
#51 = CARTESIAN_POINT('',(-13.65056601602,-9.951176889071));
#52 = CARTESIAN_POINT('',(-5.218780683425,-4.861321747626));
#53 = CARTESIAN_POINT('',(8.870305734873,-11.47384971064));
#54 = CARTESIAN_POINT('',(15.057491076394,-4.085898036993));
#55 = CARTESIAN_POINT('',(21.821329805571,-11.06509874181));
#56 = CARTESIAN_POINT('',(30.39962014042,-3.903560810848));
#57 = CARTESIAN_POINT('',(74.266220597646,-5.380858300362));
#58 = ( GEOMETRIC_REPRESENTATION_CONTEXT(2) 
PARAMETRIC_REPRESENTATION_CONTEXT() REPRESENTATION_CONTEXT('2D SPACE',''
  ) );
#59 = ORIENTED_EDGE('',*,*,#60,.T.);
#60 = EDGE_CURVE('',#24,#61,#63,.T.);
#61 = VERTEX_POINT('',#62);
#62 = CARTESIAN_POINT('',(150.,12.880858300362,0.));
#63 = SURFACE_CURVE('',#64,(#68),.PCURVE_S1.);
#64 = LINE('',#65,#66);
#65 = CARTESIAN_POINT('',(150.,2.119141699638,0.));
#66 = VECTOR('',#67,1.);
#67 = DIRECTION('',(0.,1.,0.));
#68 = PCURVE('',#40,#69);
#69 = DEFINITIONAL_REPRESENTATION('',(#70),#74);
#70 = LINE('',#71,#72);
#71 = CARTESIAN_POINT('',(74.266220597646,-5.380858300362));
#72 = VECTOR('',#73,1.);
#73 = DIRECTION('',(0.,1.));
#74 = ( GEOMETRIC_REPRESENTATION_CONTEXT(2) 
PARAMETRIC_REPRESENTATION_CONTEXT() REPRESENTATION_CONTEXT('2D SPACE',''
  ) );
#75 = ORIENTED_EDGE('',*,*,#76,.T.);
#76 = EDGE_CURVE('',#61,#77,#79,.T.);
#77 = VERTEX_POINT('',#78);
#78 = CARTESIAN_POINT('',(0.,13.16429576619,0.));
#79 = SURFACE_CURVE('',#80,(#92),.PCURVE_S1.);
#80 = B_SPLINE_CURVE_WITH_KNOTS('',1,(#81,#82,#83,#84,#85,#86,#87,#88,
    #89,#90,#91),.UNSPECIFIED.,.F.,.F.,(2,1,1,1,1,1,1,1,1,1,2),(0.,
    0.270596734941,0.339490457063,0.399409318055,0.458819927476,
    0.554772031531,0.615492057806,0.749758322,0.888325231171,
    0.973119373051,1.),.UNSPECIFIED.);
#81 = CARTESIAN_POINT('',(150.,12.880858300362,0.));
#82 = CARTESIAN_POINT('',(106.13339954277,11.403560810848,0.));
#83 = CARTESIAN_POINT('',(97.555109207925,18.565098741813,0.));
#84 = CARTESIAN_POINT('',(90.791270478748,11.585898036993,0.));
#85 = CARTESIAN_POINT('',(84.604085137228,18.973849710643,0.));
#86 = CARTESIAN_POINT('',(70.514998718929,12.361321747626,0.));
#87 = CARTESIAN_POINT('',(62.083213386329,17.451176889071,0.));
#88 = CARTESIAN_POINT('',(40.305171757826,17.340134745696,0.));
#89 = CARTESIAN_POINT('',(18.057725679973,14.143694679839,0.));
#90 = CARTESIAN_POINT('',(4.307228488657,13.841273733794,0.));
#91 = CARTESIAN_POINT('',(0.,13.16429576619,0.));
#92 = PCURVE('',#40,#93);
#93 = DEFINITIONAL_REPRESENTATION('',(#94),#106);
#94 = B_SPLINE_CURVE_WITH_KNOTS('',1,(#95,#96,#97,#98,#99,#100,#101,#102
    ,#103,#104,#105),.UNSPECIFIED.,.F.,.F.,(2,1,1,1,1,1,1,1,1,1,2),(0.,
    0.270596734941,0.339490457063,0.399409318055,0.458819927476,
    0.554772031531,0.615492057806,0.749758322,0.888325231171,
    0.973119373051,1.),.UNSPECIFIED.);
#95 = CARTESIAN_POINT('',(74.266220597646,5.380858300362));
#96 = CARTESIAN_POINT('',(30.39962014042,3.903560810848));
#97 = CARTESIAN_POINT('',(21.821329805571,11.065098741813));
#98 = CARTESIAN_POINT('',(15.057491076394,4.085898036993));
#99 = CARTESIAN_POINT('',(8.870305734873,11.473849710643));
#100 = CARTESIAN_POINT('',(-5.218780683425,4.861321747626));
#101 = CARTESIAN_POINT('',(-13.65056601602,9.951176889071));
#102 = CARTESIAN_POINT('',(-35.42860764452,9.840134745696));
#103 = CARTESIAN_POINT('',(-57.67605372238,6.643694679839));
#104 = CARTESIAN_POINT('',(-71.42655091369,6.341273733794));
#105 = CARTESIAN_POINT('',(-75.73377940235,5.66429576619));
#106 = ( GEOMETRIC_REPRESENTATION_CONTEXT(2) 
PARAMETRIC_REPRESENTATION_CONTEXT() REPRESENTATION_CONTEXT('2D SPACE',''
  ) );
#107 = ORIENTED_EDGE('',*,*,#108,.T.);
#108 = EDGE_CURVE('',#77,#22,#109,.T.);
#109 = SURFACE_CURVE('',#110,(#114),.PCURVE_S1.);
#110 = LINE('',#111,#112);
#111 = CARTESIAN_POINT('',(0.,13.16429576619,0.));
#112 = VECTOR('',#113,1.);
#113 = DIRECTION('',(0.,-1.,0.));
#114 = PCURVE('',#40,#115);
#115 = DEFINITIONAL_REPRESENTATION('',(#116),#120);
#116 = LINE('',#117,#118);
#117 = CARTESIAN_POINT('',(-75.73377940235,5.66429576619));
#118 = VECTOR('',#119,1.);
#119 = DIRECTION('',(0.,-1.));
#120 = ( GEOMETRIC_REPRESENTATION_CONTEXT(2) 
PARAMETRIC_REPRESENTATION_CONTEXT() REPRESENTATION_CONTEXT('2D SPACE',''
  ) );
#121 = ( GEOMETRIC_REPRESENTATION_CONTEXT(3) 
GLOBAL_UNCERTAINTY_ASSIGNED_CONTEXT((#125)) GLOBAL_UNIT_ASSIGNED_CONTEXT
((#122,#123,#124)) REPRESENTATION_CONTEXT('Context #1',
  '3D Context with UNIT and UNCERTAINTY') );
#122 = ( LENGTH_UNIT() NAMED_UNIT(*) SI_UNIT(.MILLI.,.METRE.) );
#123 = ( NAMED_UNIT(*) PLANE_ANGLE_UNIT() SI_UNIT($,.RADIAN.) );
#124 = ( NAMED_UNIT(*) SI_UNIT($,.STERADIAN.) SOLID_ANGLE_UNIT() );
#125 = UNCERTAINTY_MEASURE_WITH_UNIT(LENGTH_MEASURE(1.E-07),#122,
  'distance_accuracy_value','confusion accuracy');
#126 = PRODUCT_RELATED_PRODUCT_CATEGORY('part',$,(#7));
ENDSEC;
END-ISO-10303-21;
