ISO-10303-21;
HEADER;
FILE_DESCRIPTION(('Open CASCADE Model'),'2;1');
FILE_NAME('Open CASCADE Shape Model','2026-06-01T11:13:06',('Author'),(
    'Open CASCADE'),'Open CASCADE STEP processor 7.9','Open CASCADE 7.9'
  ,'Unknown');
FILE_SCHEMA(('AUTOMOTIVE_DESIGN { 1 0 10303 214 1 1 1 1 }'));
ENDSEC;
DATA;
#1 = APPLICATION_PROTOCOL_DEFINITION('international standard',
  'automotive_design',2000,#2);
#2 = APPLICATION_CONTEXT(
  'core data for automotive mechanical design processes');
#3 = SHAPE_DEFINITION_REPRESENTATION(#4,#10);
#4 = PRODUCT_DEFINITION_SHAPE('','',#5);
#5 = PRODUCT_DEFINITION('design','',#6,#9);
#6 = PRODUCT_DEFINITION_FORMATION('','',#7);
#7 = PRODUCT('Open CASCADE STEP translator 7.9 33',
  'Open CASCADE STEP translator 7.9 33','',(#8));
#8 = PRODUCT_CONTEXT('',#2,'mechanical');
#9 = PRODUCT_DEFINITION_CONTEXT('part definition',#2,'design');
#10 = MANIFOLD_SURFACE_SHAPE_REPRESENTATION('',(#11,#15),#121);
#11 = AXIS2_PLACEMENT_3D('',#12,#13,#14);
#12 = CARTESIAN_POINT('',(0.,0.,0.));
#13 = DIRECTION('',(0.,0.,1.));
#14 = DIRECTION('',(1.,0.,-0.));
#15 = SHELL_BASED_SURFACE_MODEL('',(#16));
#16 = OPEN_SHELL('',(#17));
#17 = ADVANCED_FACE('',(#18),#40,.T.);
#18 = FACE_BOUND('',#19,.T.);
#19 = EDGE_LOOP('',(#20,#59,#75,#107));
#20 = ORIENTED_EDGE('',*,*,#21,.T.);
#21 = EDGE_CURVE('',#22,#24,#26,.T.);
#22 = VERTEX_POINT('',#23);
#23 = CARTESIAN_POINT('',(0.,-0.816703147474,0.));
#24 = VERTEX_POINT('',#25);
#25 = CARTESIAN_POINT('',(150.,-2.554416984381,0.));
#26 = SURFACE_CURVE('',#27,(#39),.PCURVE_S1.);
#27 = B_SPLINE_CURVE_WITH_KNOTS('',1,(#28,#29,#30,#31,#32,#33,#34,#35,
    #36,#37,#38),.UNSPECIFIED.,.F.,.F.,(2,1,1,1,1,1,1,1,1,1,2),(0.,
    0.115598089452,0.170945314308,0.278912074685,0.370291000937,
    0.462065204553,0.521229837994,0.601200112659,0.800821965548,
    0.905069904767,1.),.UNSPECIFIED.);
#28 = CARTESIAN_POINT('',(0.,-0.816703147474,0.));
#29 = CARTESIAN_POINT('',(17.890517945401,-1.380952881085,0.));
#30 = CARTESIAN_POINT('',(25.846155666608,1.805550376367,0.));
#31 = CARTESIAN_POINT('',(42.555766107267,2.32765144536,0.));
#32 = CARTESIAN_POINT('',(56.686193334352,1.597568875482,0.));
#33 = CARTESIAN_POINT('',(70.816918111272,3.101025923249,0.));
#34 = CARTESIAN_POINT('',(77.302885393181,-3.368829287617,0.));
#35 = CARTESIAN_POINT('',(88.484746601453,1.950777600749,0.));
#36 = CARTESIAN_POINT('',(119.2929430406,-0.553404549729,0.));
#37 = CARTESIAN_POINT('',(135.30103831425,-2.627769826272,0.));
#38 = CARTESIAN_POINT('',(150.,-2.554416984381,0.));
#39 = PCURVE('',#40,#45);
#40 = PLANE('',#41);
#41 = AXIS2_PLACEMENT_3D('',#42,#43,#44);
#42 = CARTESIAN_POINT('',(75.648329582875,7.5,0.));
#43 = DIRECTION('',(0.,0.,1.));
#44 = DIRECTION('',(1.,0.,-0.));
#45 = DEFINITIONAL_REPRESENTATION('',(#46),#58);
#46 = B_SPLINE_CURVE_WITH_KNOTS('',1,(#47,#48,#49,#50,#51,#52,#53,#54,
    #55,#56,#57),.UNSPECIFIED.,.F.,.F.,(2,1,1,1,1,1,1,1,1,1,2),(0.,
    0.115598089452,0.170945314308,0.278912074685,0.370291000937,
    0.462065204553,0.521229837994,0.601200112659,0.800821965548,
    0.905069904767,1.),.UNSPECIFIED.);
#47 = CARTESIAN_POINT('',(-75.64832958287,-8.316703147474));
#48 = CARTESIAN_POINT('',(-57.75781163747,-8.880952881085));
#49 = CARTESIAN_POINT('',(-49.80217391626,-5.694449623633));
#50 = CARTESIAN_POINT('',(-33.0925634756,-5.17234855464));
#51 = CARTESIAN_POINT('',(-18.96213624852,-5.902431124518));
#52 = CARTESIAN_POINT('',(-4.831411471603,-4.398974076751));
#53 = CARTESIAN_POINT('',(1.654555810306,-10.86882928761));
#54 = CARTESIAN_POINT('',(12.836417018578,-5.549222399251));
#55 = CARTESIAN_POINT('',(43.644613457732,-8.053404549729));
#56 = CARTESIAN_POINT('',(59.652708731376,-10.12776982627));
#57 = CARTESIAN_POINT('',(74.351670417125,-10.05441698438));
#58 = ( GEOMETRIC_REPRESENTATION_CONTEXT(2) 
PARAMETRIC_REPRESENTATION_CONTEXT() REPRESENTATION_CONTEXT('2D SPACE',''
  ) );
#59 = ORIENTED_EDGE('',*,*,#60,.T.);
#60 = EDGE_CURVE('',#24,#61,#63,.T.);
#61 = VERTEX_POINT('',#62);
#62 = CARTESIAN_POINT('',(150.,17.554416984381,0.));
#63 = SURFACE_CURVE('',#64,(#68),.PCURVE_S1.);
#64 = LINE('',#65,#66);
#65 = CARTESIAN_POINT('',(150.,-2.554416984381,0.));
#66 = VECTOR('',#67,1.);
#67 = DIRECTION('',(0.,1.,0.));
#68 = PCURVE('',#40,#69);
#69 = DEFINITIONAL_REPRESENTATION('',(#70),#74);
#70 = LINE('',#71,#72);
#71 = CARTESIAN_POINT('',(74.351670417125,-10.05441698438));
#72 = VECTOR('',#73,1.);
#73 = DIRECTION('',(0.,1.));
#74 = ( GEOMETRIC_REPRESENTATION_CONTEXT(2) 
PARAMETRIC_REPRESENTATION_CONTEXT() REPRESENTATION_CONTEXT('2D SPACE',''
  ) );
#75 = ORIENTED_EDGE('',*,*,#76,.T.);
#76 = EDGE_CURVE('',#61,#77,#79,.T.);
#77 = VERTEX_POINT('',#78);
#78 = CARTESIAN_POINT('',(0.,15.816703147474,0.));
#79 = SURFACE_CURVE('',#80,(#92),.PCURVE_S1.);
#80 = B_SPLINE_CURVE_WITH_KNOTS('',1,(#81,#82,#83,#84,#85,#86,#87,#88,
    #89,#90,#91),.UNSPECIFIED.,.F.,.F.,(2,1,1,1,1,1,1,1,1,1,2),(0.,
    9.493009523332E-02,0.199178034452,0.398799887341,0.478770162006,
    0.537934795447,0.629708999063,0.721087925315,0.829054685692,
    0.884401910548,1.),.UNSPECIFIED.);
#81 = CARTESIAN_POINT('',(150.,17.554416984381,0.));
#82 = CARTESIAN_POINT('',(135.30103831425,17.627769826272,0.));
#83 = CARTESIAN_POINT('',(119.2929430406,15.553404549729,0.));
#84 = CARTESIAN_POINT('',(88.484746601453,13.049222399251,0.));
#85 = CARTESIAN_POINT('',(77.302885393181,18.368829287617,0.));
#86 = CARTESIAN_POINT('',(70.816918111272,11.898974076751,0.));
#87 = CARTESIAN_POINT('',(56.686193334352,13.402431124518,0.));
#88 = CARTESIAN_POINT('',(42.555766107267,12.67234855464,0.));
#89 = CARTESIAN_POINT('',(25.846155666608,13.194449623633,0.));
#90 = CARTESIAN_POINT('',(17.890517945401,16.380952881085,0.));
#91 = CARTESIAN_POINT('',(0.,15.816703147474,0.));
#92 = PCURVE('',#40,#93);
#93 = DEFINITIONAL_REPRESENTATION('',(#94),#106);
#94 = B_SPLINE_CURVE_WITH_KNOTS('',1,(#95,#96,#97,#98,#99,#100,#101,#102
    ,#103,#104,#105),.UNSPECIFIED.,.F.,.F.,(2,1,1,1,1,1,1,1,1,1,2),(0.,
    9.493009523332E-02,0.199178034452,0.398799887341,0.478770162006,
    0.537934795447,0.629708999063,0.721087925315,0.829054685692,
    0.884401910548,1.),.UNSPECIFIED.);
#95 = CARTESIAN_POINT('',(74.351670417125,10.054416984381));
#96 = CARTESIAN_POINT('',(59.652708731376,10.127769826272));
#97 = CARTESIAN_POINT('',(43.644613457732,8.053404549729));
#98 = CARTESIAN_POINT('',(12.836417018578,5.549222399251));
#99 = CARTESIAN_POINT('',(1.654555810306,10.868829287617));
#100 = CARTESIAN_POINT('',(-4.831411471603,4.398974076751));
#101 = CARTESIAN_POINT('',(-18.96213624852,5.902431124518));
#102 = CARTESIAN_POINT('',(-33.0925634756,5.17234855464));
#103 = CARTESIAN_POINT('',(-49.80217391626,5.694449623633));
#104 = CARTESIAN_POINT('',(-57.75781163747,8.880952881085));
#105 = CARTESIAN_POINT('',(-75.64832958287,8.316703147474));
#106 = ( GEOMETRIC_REPRESENTATION_CONTEXT(2) 
PARAMETRIC_REPRESENTATION_CONTEXT() REPRESENTATION_CONTEXT('2D SPACE',''
  ) );
#107 = ORIENTED_EDGE('',*,*,#108,.T.);
#108 = EDGE_CURVE('',#77,#22,#109,.T.);
#109 = SURFACE_CURVE('',#110,(#114),.PCURVE_S1.);
#110 = LINE('',#111,#112);
#111 = CARTESIAN_POINT('',(0.,15.816703147474,0.));
#112 = VECTOR('',#113,1.);
#113 = DIRECTION('',(0.,-1.,0.));
#114 = PCURVE('',#40,#115);
#115 = DEFINITIONAL_REPRESENTATION('',(#116),#120);
#116 = LINE('',#117,#118);
#117 = CARTESIAN_POINT('',(-75.64832958287,8.316703147474));
#118 = VECTOR('',#119,1.);
#119 = DIRECTION('',(0.,-1.));
#120 = ( GEOMETRIC_REPRESENTATION_CONTEXT(2) 
PARAMETRIC_REPRESENTATION_CONTEXT() REPRESENTATION_CONTEXT('2D SPACE',''
  ) );
#121 = ( GEOMETRIC_REPRESENTATION_CONTEXT(3) 
GLOBAL_UNCERTAINTY_ASSIGNED_CONTEXT((#125)) GLOBAL_UNIT_ASSIGNED_CONTEXT
((#122,#123,#124)) REPRESENTATION_CONTEXT('Context #1',
  '3D Context with UNIT and UNCERTAINTY') );
#122 = ( LENGTH_UNIT() NAMED_UNIT(*) SI_UNIT(.MILLI.,.METRE.) );
#123 = ( NAMED_UNIT(*) PLANE_ANGLE_UNIT() SI_UNIT($,.RADIAN.) );
#124 = ( NAMED_UNIT(*) SI_UNIT($,.STERADIAN.) SOLID_ANGLE_UNIT() );
#125 = UNCERTAINTY_MEASURE_WITH_UNIT(LENGTH_MEASURE(1.E-07),#122,
  'distance_accuracy_value','confusion accuracy');
#126 = PRODUCT_RELATED_PRODUCT_CATEGORY('part',$,(#7));
ENDSEC;
END-ISO-10303-21;
