ISO-10303-21;
HEADER;
FILE_DESCRIPTION(('Open CASCADE Model'),'2;1');
FILE_NAME('Open CASCADE Shape Model','2026-06-01T11:13:06',('Author'),(
    'Open CASCADE'),'Open CASCADE STEP processor 7.9','Open CASCADE 7.9'
  ,'Unknown');
FILE_SCHEMA(('AUTOMOTIVE_DESIGN { 1 0 10303 214 1 1 1 1 }'));
ENDSEC;
DATA;
#1 = APPLICATION_PROTOCOL_DEFINITION('international standard',
  'automotive_design',2000,#2);
#2 = APPLICATION_CONTEXT(
  'core data for automotive mechanical design processes');
#3 = SHAPE_DEFINITION_REPRESENTATION(#4,#10);
#4 = PRODUCT_DEFINITION_SHAPE('','',#5);
#5 = PRODUCT_DEFINITION('design','',#6,#9);
#6 = PRODUCT_DEFINITION_FORMATION('','',#7);
#7 = PRODUCT('Open CASCADE STEP translator 7.9 50',
  'Open CASCADE STEP translator 7.9 50','',(#8));
#8 = PRODUCT_CONTEXT('',#2,'mechanical');
#9 = PRODUCT_DEFINITION_CONTEXT('part definition',#2,'design');
#10 = MANIFOLD_SURFACE_SHAPE_REPRESENTATION('',(#11,#15),#121);
#11 = AXIS2_PLACEMENT_3D('',#12,#13,#14);
#12 = CARTESIAN_POINT('',(0.,0.,0.));
#13 = DIRECTION('',(0.,0.,1.));
#14 = DIRECTION('',(1.,0.,-0.));
#15 = SHELL_BASED_SURFACE_MODEL('',(#16));
#16 = OPEN_SHELL('',(#17));
#17 = ADVANCED_FACE('',(#18),#40,.T.);
#18 = FACE_BOUND('',#19,.T.);
#19 = EDGE_LOOP('',(#20,#59,#75,#107));
#20 = ORIENTED_EDGE('',*,*,#21,.T.);
#21 = EDGE_CURVE('',#22,#24,#26,.T.);
#22 = VERTEX_POINT('',#23);
#23 = CARTESIAN_POINT('',(0.,-4.07630221637,0.));
#24 = VERTEX_POINT('',#25);
#25 = CARTESIAN_POINT('',(150.,-3.375968519903,0.));
#26 = SURFACE_CURVE('',#27,(#39),.PCURVE_S1.);
#27 = B_SPLINE_CURVE_WITH_KNOTS('',1,(#28,#29,#30,#31,#32,#33,#34,#35,
    #36,#37,#38),.UNSPECIFIED.,.F.,.F.,(2,1,1,1,1,1,1,1,1,1,2),(0.,
    8.162822564077E-02,0.112923990023,0.195630148826,0.252938670997,
    0.371126402991,0.460753800635,0.635219602802,0.716773865665,
    0.799793596154,1.),.UNSPECIFIED.);
#28 = CARTESIAN_POINT('',(0.,-4.07630221637,0.));
#29 = CARTESIAN_POINT('',(12.415278820489,-0.990544345985,0.));
#30 = CARTESIAN_POINT('',(16.137016202352,2.204037620754,0.));
#31 = CARTESIAN_POINT('',(28.663022965492,-1.129303412225,0.));
#32 = CARTESIAN_POINT('',(37.214861507304,1.615579544898,0.));
#33 = CARTESIAN_POINT('',(54.77254922986,-4.285155516225,0.));
#34 = CARTESIAN_POINT('',(67.826001174194,0.902914783527,0.));
#35 = CARTESIAN_POINT('',(95.047564071469,-1.668849486849,0.));
#36 = CARTESIAN_POINT('',(106.35443671536,4.290951758879,0.));
#37 = CARTESIAN_POINT('',(118.91573115514,0.899446984787,0.));
#38 = CARTESIAN_POINT('',(150.,-3.375968519903,0.));
#39 = PCURVE('',#40,#45);
#40 = PLANE('',#41);
#41 = AXIS2_PLACEMENT_3D('',#42,#43,#44);
#42 = CARTESIAN_POINT('',(74.107319334823,7.5,0.));
#43 = DIRECTION('',(0.,0.,1.));
#44 = DIRECTION('',(1.,0.,-0.));
#45 = DEFINITIONAL_REPRESENTATION('',(#46),#58);
#46 = B_SPLINE_CURVE_WITH_KNOTS('',1,(#47,#48,#49,#50,#51,#52,#53,#54,
    #55,#56,#57),.UNSPECIFIED.,.F.,.F.,(2,1,1,1,1,1,1,1,1,1,2),(0.,
    8.162822564077E-02,0.112923990023,0.195630148826,0.252938670997,
    0.371126402991,0.460753800635,0.635219602802,0.716773865665,
    0.799793596154,1.),.UNSPECIFIED.);
#47 = CARTESIAN_POINT('',(-74.10731933482,-11.57630221637));
#48 = CARTESIAN_POINT('',(-61.69204051433,-8.490544345985));
#49 = CARTESIAN_POINT('',(-57.97030313247,-5.295962379246));
#50 = CARTESIAN_POINT('',(-45.44429636933,-8.629303412225));
#51 = CARTESIAN_POINT('',(-36.89245782751,-5.884420455102));
#52 = CARTESIAN_POINT('',(-19.33477010496,-11.78515551622));
#53 = CARTESIAN_POINT('',(-6.281318160629,-6.597085216473));
#54 = CARTESIAN_POINT('',(20.940244736646,-9.168849486849));
#55 = CARTESIAN_POINT('',(32.247117380542,-3.209048241121));
#56 = CARTESIAN_POINT('',(44.808411820322,-6.600553015213));
#57 = CARTESIAN_POINT('',(75.892680665177,-10.8759685199));
#58 = ( GEOMETRIC_REPRESENTATION_CONTEXT(2) 
PARAMETRIC_REPRESENTATION_CONTEXT() REPRESENTATION_CONTEXT('2D SPACE',''
  ) );
#59 = ORIENTED_EDGE('',*,*,#60,.T.);
#60 = EDGE_CURVE('',#24,#61,#63,.T.);
#61 = VERTEX_POINT('',#62);
#62 = CARTESIAN_POINT('',(150.,18.375968519903,0.));
#63 = SURFACE_CURVE('',#64,(#68),.PCURVE_S1.);
#64 = LINE('',#65,#66);
#65 = CARTESIAN_POINT('',(150.,-3.375968519903,0.));
#66 = VECTOR('',#67,1.);
#67 = DIRECTION('',(0.,1.,0.));
#68 = PCURVE('',#40,#69);
#69 = DEFINITIONAL_REPRESENTATION('',(#70),#74);
#70 = LINE('',#71,#72);
#71 = CARTESIAN_POINT('',(75.892680665177,-10.8759685199));
#72 = VECTOR('',#73,1.);
#73 = DIRECTION('',(0.,1.));
#74 = ( GEOMETRIC_REPRESENTATION_CONTEXT(2) 
PARAMETRIC_REPRESENTATION_CONTEXT() REPRESENTATION_CONTEXT('2D SPACE',''
  ) );
#75 = ORIENTED_EDGE('',*,*,#76,.T.);
#76 = EDGE_CURVE('',#61,#77,#79,.T.);
#77 = VERTEX_POINT('',#78);
#78 = CARTESIAN_POINT('',(0.,19.07630221637,0.));
#79 = SURFACE_CURVE('',#80,(#92),.PCURVE_S1.);
#80 = B_SPLINE_CURVE_WITH_KNOTS('',1,(#81,#82,#83,#84,#85,#86,#87,#88,
    #89,#90,#91),.UNSPECIFIED.,.F.,.F.,(2,1,1,1,1,1,1,1,1,1,2),(0.,
    0.200206403846,0.283226134335,0.364780397198,0.539246199365,
    0.628873597009,0.747061329003,0.804369851174,0.887076009977,
    0.918371774359,1.),.UNSPECIFIED.);
#81 = CARTESIAN_POINT('',(150.,18.375968519903,0.));
#82 = CARTESIAN_POINT('',(118.91573115514,14.100553015213,0.));
#83 = CARTESIAN_POINT('',(106.35443671536,10.709048241121,0.));
#84 = CARTESIAN_POINT('',(95.047564071469,16.668849486849,0.));
#85 = CARTESIAN_POINT('',(67.826001174194,14.097085216473,0.));
#86 = CARTESIAN_POINT('',(54.77254922986,19.285155516225,0.));
#87 = CARTESIAN_POINT('',(37.214861507304,13.384420455102,0.));
#88 = CARTESIAN_POINT('',(28.663022965492,16.129303412225,0.));
#89 = CARTESIAN_POINT('',(16.137016202352,12.795962379246,0.));
#90 = CARTESIAN_POINT('',(12.415278820489,15.990544345985,0.));
#91 = CARTESIAN_POINT('',(0.,19.07630221637,0.));
#92 = PCURVE('',#40,#93);
#93 = DEFINITIONAL_REPRESENTATION('',(#94),#106);
#94 = B_SPLINE_CURVE_WITH_KNOTS('',1,(#95,#96,#97,#98,#99,#100,#101,#102
    ,#103,#104,#105),.UNSPECIFIED.,.F.,.F.,(2,1,1,1,1,1,1,1,1,1,2),(0.,
    0.200206403846,0.283226134335,0.364780397198,0.539246199365,
    0.628873597009,0.747061329003,0.804369851174,0.887076009977,
    0.918371774359,1.),.UNSPECIFIED.);
#95 = CARTESIAN_POINT('',(75.892680665177,10.875968519903));
#96 = CARTESIAN_POINT('',(44.808411820322,6.600553015213));
#97 = CARTESIAN_POINT('',(32.247117380542,3.209048241121));
#98 = CARTESIAN_POINT('',(20.940244736646,9.168849486849));
#99 = CARTESIAN_POINT('',(-6.281318160629,6.597085216473));
#100 = CARTESIAN_POINT('',(-19.33477010496,11.785155516225));
#101 = CARTESIAN_POINT('',(-36.89245782751,5.884420455102));
#102 = CARTESIAN_POINT('',(-45.44429636933,8.629303412225));
#103 = CARTESIAN_POINT('',(-57.97030313247,5.295962379246));
#104 = CARTESIAN_POINT('',(-61.69204051433,8.490544345985));
#105 = CARTESIAN_POINT('',(-74.10731933482,11.57630221637));
#106 = ( GEOMETRIC_REPRESENTATION_CONTEXT(2) 
PARAMETRIC_REPRESENTATION_CONTEXT() REPRESENTATION_CONTEXT('2D SPACE',''
  ) );
#107 = ORIENTED_EDGE('',*,*,#108,.T.);
#108 = EDGE_CURVE('',#77,#22,#109,.T.);
#109 = SURFACE_CURVE('',#110,(#114),.PCURVE_S1.);
#110 = LINE('',#111,#112);
#111 = CARTESIAN_POINT('',(0.,19.07630221637,0.));
#112 = VECTOR('',#113,1.);
#113 = DIRECTION('',(0.,-1.,0.));
#114 = PCURVE('',#40,#115);
#115 = DEFINITIONAL_REPRESENTATION('',(#116),#120);
#116 = LINE('',#117,#118);
#117 = CARTESIAN_POINT('',(-74.10731933482,11.57630221637));
#118 = VECTOR('',#119,1.);
#119 = DIRECTION('',(0.,-1.));
#120 = ( GEOMETRIC_REPRESENTATION_CONTEXT(2) 
PARAMETRIC_REPRESENTATION_CONTEXT() REPRESENTATION_CONTEXT('2D SPACE',''
  ) );
#121 = ( GEOMETRIC_REPRESENTATION_CONTEXT(3) 
GLOBAL_UNCERTAINTY_ASSIGNED_CONTEXT((#125)) GLOBAL_UNIT_ASSIGNED_CONTEXT
((#122,#123,#124)) REPRESENTATION_CONTEXT('Context #1',
  '3D Context with UNIT and UNCERTAINTY') );
#122 = ( LENGTH_UNIT() NAMED_UNIT(*) SI_UNIT(.MILLI.,.METRE.) );
#123 = ( NAMED_UNIT(*) PLANE_ANGLE_UNIT() SI_UNIT($,.RADIAN.) );
#124 = ( NAMED_UNIT(*) SI_UNIT($,.STERADIAN.) SOLID_ANGLE_UNIT() );
#125 = UNCERTAINTY_MEASURE_WITH_UNIT(LENGTH_MEASURE(1.E-07),#122,
  'distance_accuracy_value','confusion accuracy');
#126 = PRODUCT_RELATED_PRODUCT_CATEGORY('part',$,(#7));
ENDSEC;
END-ISO-10303-21;
