ISO-10303-21;
HEADER;
FILE_DESCRIPTION(('Open CASCADE Model'),'2;1');
FILE_NAME('Open CASCADE Shape Model','2026-06-01T11:13:06',('Author'),(
    'Open CASCADE'),'Open CASCADE STEP processor 7.9','Open CASCADE 7.9'
  ,'Unknown');
FILE_SCHEMA(('AUTOMOTIVE_DESIGN { 1 0 10303 214 1 1 1 1 }'));
ENDSEC;
DATA;
#1 = APPLICATION_PROTOCOL_DEFINITION('international standard',
  'automotive_design',2000,#2);
#2 = APPLICATION_CONTEXT(
  'core data for automotive mechanical design processes');
#3 = SHAPE_DEFINITION_REPRESENTATION(#4,#10);
#4 = PRODUCT_DEFINITION_SHAPE('','',#5);
#5 = PRODUCT_DEFINITION('design','',#6,#9);
#6 = PRODUCT_DEFINITION_FORMATION('','',#7);
#7 = PRODUCT('Open CASCADE STEP translator 7.9 80',
  'Open CASCADE STEP translator 7.9 80','',(#8));
#8 = PRODUCT_CONTEXT('',#2,'mechanical');
#9 = PRODUCT_DEFINITION_CONTEXT('part definition',#2,'design');
#10 = MANIFOLD_SURFACE_SHAPE_REPRESENTATION('',(#11,#15),#121);
#11 = AXIS2_PLACEMENT_3D('',#12,#13,#14);
#12 = CARTESIAN_POINT('',(0.,0.,0.));
#13 = DIRECTION('',(0.,0.,1.));
#14 = DIRECTION('',(1.,0.,-0.));
#15 = SHELL_BASED_SURFACE_MODEL('',(#16));
#16 = OPEN_SHELL('',(#17));
#17 = ADVANCED_FACE('',(#18),#40,.T.);
#18 = FACE_BOUND('',#19,.T.);
#19 = EDGE_LOOP('',(#20,#59,#75,#107));
#20 = ORIENTED_EDGE('',*,*,#21,.T.);
#21 = EDGE_CURVE('',#22,#24,#26,.T.);
#22 = VERTEX_POINT('',#23);
#23 = CARTESIAN_POINT('',(0.,2.803227895133,0.));
#24 = VERTEX_POINT('',#25);
#25 = CARTESIAN_POINT('',(150.,3.65572958393,0.));
#26 = SURFACE_CURVE('',#27,(#39),.PCURVE_S1.);
#27 = B_SPLINE_CURVE_WITH_KNOTS('',1,(#28,#29,#30,#31,#32,#33,#34,#35,
    #36,#37,#38),.UNSPECIFIED.,.F.,.F.,(2,1,1,1,1,1,1,1,1,1,2),(0.,
    5.924448286583E-02,0.243707074897,0.316994958358,0.410563227304,
    0.647693770387,0.738515894085,0.76619704478,0.844061813092,
    0.93756422457,1.),.UNSPECIFIED.);
#28 = CARTESIAN_POINT('',(0.,2.803227895133,0.));
#29 = CARTESIAN_POINT('',(7.676684539664,-2.657090327244,0.));
#30 = CARTESIAN_POINT('',(36.970516583332,-4.145636570659,0.));
#31 = CARTESIAN_POINT('',(48.42423536585,-1.996526990103,0.));
#32 = CARTESIAN_POINT('',(63.197676413214,-3.760739969632,0.));
#33 = CARTESIAN_POINT('',(100.89937530675,-4.357667384532,0.));
#34 = CARTESIAN_POINT('',(114.17328629133,1.331543931847,0.));
#35 = CARTESIAN_POINT('',(117.74270093999,-1.244011976337,0.));
#36 = CARTESIAN_POINT('',(130.03546779657,0.234605361257,0.));
#37 = CARTESIAN_POINT('',(144.16925952986,-4.379658721769,0.));
#38 = CARTESIAN_POINT('',(150.,3.65572958393,0.));
#39 = PCURVE('',#40,#45);
#40 = PLANE('',#41);
#41 = AXIS2_PLACEMENT_3D('',#42,#43,#44);
#42 = CARTESIAN_POINT('',(76.306417036057,7.5,0.));
#43 = DIRECTION('',(0.,0.,1.));
#44 = DIRECTION('',(1.,0.,-0.));
#45 = DEFINITIONAL_REPRESENTATION('',(#46),#58);
#46 = B_SPLINE_CURVE_WITH_KNOTS('',1,(#47,#48,#49,#50,#51,#52,#53,#54,
    #55,#56,#57),.UNSPECIFIED.,.F.,.F.,(2,1,1,1,1,1,1,1,1,1,2),(0.,
    5.924448286583E-02,0.243707074897,0.316994958358,0.410563227304,
    0.647693770387,0.738515894085,0.76619704478,0.844061813092,
    0.93756422457,1.),.UNSPECIFIED.);
#47 = CARTESIAN_POINT('',(-76.30641703605,-4.696772104867));
#48 = CARTESIAN_POINT('',(-68.62973249639,-10.15709032724));
#49 = CARTESIAN_POINT('',(-39.33590045272,-11.64563657065));
#50 = CARTESIAN_POINT('',(-27.8821816702,-9.496526990103));
#51 = CARTESIAN_POINT('',(-13.10874062284,-11.26073996963));
#52 = CARTESIAN_POINT('',(24.592958270696,-11.85766738453));
#53 = CARTESIAN_POINT('',(37.866869255273,-6.168456068153));
#54 = CARTESIAN_POINT('',(41.436283903934,-8.744011976337));
#55 = CARTESIAN_POINT('',(53.729050760515,-7.265394638743));
#56 = CARTESIAN_POINT('',(67.862842493803,-11.87965872176));
#57 = CARTESIAN_POINT('',(73.693582963943,-3.84427041607));
#58 = ( GEOMETRIC_REPRESENTATION_CONTEXT(2) 
PARAMETRIC_REPRESENTATION_CONTEXT() REPRESENTATION_CONTEXT('2D SPACE',''
  ) );
#59 = ORIENTED_EDGE('',*,*,#60,.T.);
#60 = EDGE_CURVE('',#24,#61,#63,.T.);
#61 = VERTEX_POINT('',#62);
#62 = CARTESIAN_POINT('',(150.,11.34427041607,0.));
#63 = SURFACE_CURVE('',#64,(#68),.PCURVE_S1.);
#64 = LINE('',#65,#66);
#65 = CARTESIAN_POINT('',(150.,3.65572958393,0.));
#66 = VECTOR('',#67,1.);
#67 = DIRECTION('',(0.,1.,0.));
#68 = PCURVE('',#40,#69);
#69 = DEFINITIONAL_REPRESENTATION('',(#70),#74);
#70 = LINE('',#71,#72);
#71 = CARTESIAN_POINT('',(73.693582963943,-3.84427041607));
#72 = VECTOR('',#73,1.);
#73 = DIRECTION('',(0.,1.));
#74 = ( GEOMETRIC_REPRESENTATION_CONTEXT(2) 
PARAMETRIC_REPRESENTATION_CONTEXT() REPRESENTATION_CONTEXT('2D SPACE',''
  ) );
#75 = ORIENTED_EDGE('',*,*,#76,.T.);
#76 = EDGE_CURVE('',#61,#77,#79,.T.);
#77 = VERTEX_POINT('',#78);
#78 = CARTESIAN_POINT('',(0.,12.196772104867,0.));
#79 = SURFACE_CURVE('',#80,(#92),.PCURVE_S1.);
#80 = B_SPLINE_CURVE_WITH_KNOTS('',1,(#81,#82,#83,#84,#85,#86,#87,#88,
    #89,#90,#91),.UNSPECIFIED.,.F.,.F.,(2,1,1,1,1,1,1,1,1,1,2),(0.,
    6.243577542951E-02,0.155938186908,0.23380295522,0.261484105915,
    0.352306229613,0.589436772696,0.683005041642,0.756292925103,
    0.940755517134,1.),.UNSPECIFIED.);
#81 = CARTESIAN_POINT('',(150.,11.34427041607,0.));
#82 = CARTESIAN_POINT('',(144.16925952986,19.379658721769,0.));
#83 = CARTESIAN_POINT('',(130.03546779657,14.765394638743,0.));
#84 = CARTESIAN_POINT('',(117.74270093999,16.244011976337,0.));
#85 = CARTESIAN_POINT('',(114.17328629133,13.668456068153,0.));
#86 = CARTESIAN_POINT('',(100.89937530675,19.357667384532,0.));
#87 = CARTESIAN_POINT('',(63.197676413214,18.760739969632,0.));
#88 = CARTESIAN_POINT('',(48.42423536585,16.996526990103,0.));
#89 = CARTESIAN_POINT('',(36.970516583332,19.145636570659,0.));
#90 = CARTESIAN_POINT('',(7.676684539664,17.657090327244,0.));
#91 = CARTESIAN_POINT('',(0.,12.196772104867,0.));
#92 = PCURVE('',#40,#93);
#93 = DEFINITIONAL_REPRESENTATION('',(#94),#106);
#94 = B_SPLINE_CURVE_WITH_KNOTS('',1,(#95,#96,#97,#98,#99,#100,#101,#102
    ,#103,#104,#105),.UNSPECIFIED.,.F.,.F.,(2,1,1,1,1,1,1,1,1,1,2),(0.,
    6.243577542951E-02,0.155938186908,0.23380295522,0.261484105915,
    0.352306229613,0.589436772696,0.683005041642,0.756292925103,
    0.940755517134,1.),.UNSPECIFIED.);
#95 = CARTESIAN_POINT('',(73.693582963943,3.84427041607));
#96 = CARTESIAN_POINT('',(67.862842493803,11.879658721769));
#97 = CARTESIAN_POINT('',(53.729050760515,7.265394638743));
#98 = CARTESIAN_POINT('',(41.436283903934,8.744011976337));
#99 = CARTESIAN_POINT('',(37.866869255273,6.168456068153));
#100 = CARTESIAN_POINT('',(24.592958270696,11.857667384532));
#101 = CARTESIAN_POINT('',(-13.10874062284,11.260739969632));
#102 = CARTESIAN_POINT('',(-27.8821816702,9.496526990103));
#103 = CARTESIAN_POINT('',(-39.33590045272,11.645636570659));
#104 = CARTESIAN_POINT('',(-68.62973249639,10.157090327244));
#105 = CARTESIAN_POINT('',(-76.30641703605,4.696772104867));
#106 = ( GEOMETRIC_REPRESENTATION_CONTEXT(2) 
PARAMETRIC_REPRESENTATION_CONTEXT() REPRESENTATION_CONTEXT('2D SPACE',''
  ) );
#107 = ORIENTED_EDGE('',*,*,#108,.T.);
#108 = EDGE_CURVE('',#77,#22,#109,.T.);
#109 = SURFACE_CURVE('',#110,(#114),.PCURVE_S1.);
#110 = LINE('',#111,#112);
#111 = CARTESIAN_POINT('',(0.,12.196772104867,0.));
#112 = VECTOR('',#113,1.);
#113 = DIRECTION('',(0.,-1.,0.));
#114 = PCURVE('',#40,#115);
#115 = DEFINITIONAL_REPRESENTATION('',(#116),#120);
#116 = LINE('',#117,#118);
#117 = CARTESIAN_POINT('',(-76.30641703605,4.696772104867));
#118 = VECTOR('',#119,1.);
#119 = DIRECTION('',(0.,-1.));
#120 = ( GEOMETRIC_REPRESENTATION_CONTEXT(2) 
PARAMETRIC_REPRESENTATION_CONTEXT() REPRESENTATION_CONTEXT('2D SPACE',''
  ) );
#121 = ( GEOMETRIC_REPRESENTATION_CONTEXT(3) 
GLOBAL_UNCERTAINTY_ASSIGNED_CONTEXT((#125)) GLOBAL_UNIT_ASSIGNED_CONTEXT
((#122,#123,#124)) REPRESENTATION_CONTEXT('Context #1',
  '3D Context with UNIT and UNCERTAINTY') );
#122 = ( LENGTH_UNIT() NAMED_UNIT(*) SI_UNIT(.MILLI.,.METRE.) );
#123 = ( NAMED_UNIT(*) PLANE_ANGLE_UNIT() SI_UNIT($,.RADIAN.) );
#124 = ( NAMED_UNIT(*) SI_UNIT($,.STERADIAN.) SOLID_ANGLE_UNIT() );
#125 = UNCERTAINTY_MEASURE_WITH_UNIT(LENGTH_MEASURE(1.E-07),#122,
  'distance_accuracy_value','confusion accuracy');
#126 = PRODUCT_RELATED_PRODUCT_CATEGORY('part',$,(#7));
ENDSEC;
END-ISO-10303-21;
