ISO-10303-21;
HEADER;
FILE_DESCRIPTION(('Open CASCADE Model'),'2;1');
FILE_NAME('Open CASCADE Shape Model','2026-06-01T11:13:06',('Author'),(
    'Open CASCADE'),'Open CASCADE STEP processor 7.9','Open CASCADE 7.9'
  ,'Unknown');
FILE_SCHEMA(('AUTOMOTIVE_DESIGN { 1 0 10303 214 1 1 1 1 }'));
ENDSEC;
DATA;
#1 = APPLICATION_PROTOCOL_DEFINITION('international standard',
  'automotive_design',2000,#2);
#2 = APPLICATION_CONTEXT(
  'core data for automotive mechanical design processes');
#3 = SHAPE_DEFINITION_REPRESENTATION(#4,#10);
#4 = PRODUCT_DEFINITION_SHAPE('','',#5);
#5 = PRODUCT_DEFINITION('design','',#6,#9);
#6 = PRODUCT_DEFINITION_FORMATION('','',#7);
#7 = PRODUCT('Open CASCADE STEP translator 7.9 71',
  'Open CASCADE STEP translator 7.9 71','',(#8));
#8 = PRODUCT_CONTEXT('',#2,'mechanical');
#9 = PRODUCT_DEFINITION_CONTEXT('part definition',#2,'design');
#10 = MANIFOLD_SURFACE_SHAPE_REPRESENTATION('',(#11,#15),#121);
#11 = AXIS2_PLACEMENT_3D('',#12,#13,#14);
#12 = CARTESIAN_POINT('',(0.,0.,0.));
#13 = DIRECTION('',(0.,0.,1.));
#14 = DIRECTION('',(1.,0.,-0.));
#15 = SHELL_BASED_SURFACE_MODEL('',(#16));
#16 = OPEN_SHELL('',(#17));
#17 = ADVANCED_FACE('',(#18),#40,.T.);
#18 = FACE_BOUND('',#19,.T.);
#19 = EDGE_LOOP('',(#20,#59,#75,#107));
#20 = ORIENTED_EDGE('',*,*,#21,.T.);
#21 = EDGE_CURVE('',#22,#24,#26,.T.);
#22 = VERTEX_POINT('',#23);
#23 = CARTESIAN_POINT('',(0.,-5.186083268467E-02,0.));
#24 = VERTEX_POINT('',#25);
#25 = CARTESIAN_POINT('',(150.,2.046721523257,0.));
#26 = SURFACE_CURVE('',#27,(#39),.PCURVE_S1.);
#27 = B_SPLINE_CURVE_WITH_KNOTS('',1,(#28,#29,#30,#31,#32,#33,#34,#35,
    #36,#37,#38),.UNSPECIFIED.,.F.,.F.,(2,1,1,1,1,1,1,1,1,1,2),(0.,
    8.127346963411E-02,0.22394709226,0.328830974021,0.434587645151,
    0.589920838632,0.667723124719,0.780594386632,0.834681907093,
    0.906415268705,1.),.UNSPECIFIED.);
#28 = CARTESIAN_POINT('',(0.,-5.186083268467E-02,0.));
#29 = CARTESIAN_POINT('',(12.306874831346,-2.129157838042,0.));
#30 = CARTESIAN_POINT('',(34.074745214739,0.362614819918,0.));
#31 = CARTESIAN_POINT('',(50.030824984365,2.560543723686,0.));
#32 = CARTESIAN_POINT('',(65.556129565253,-2.206834585029,0.));
#33 = CARTESIAN_POINT('',(88.761249057677,3.319603477338,0.));
#34 = CARTESIAN_POINT('',(100.69372537058,2.712747028218,0.));
#35 = CARTESIAN_POINT('',(117.5931457804,-1.141424845058,0.));
#36 = CARTESIAN_POINT('',(125.82818898041,-2.225428201729,0.));
#37 = CARTESIAN_POINT('',(136.7639078126,-3.55219098181,0.));
#38 = CARTESIAN_POINT('',(150.,2.046721523257,0.));
#39 = PCURVE('',#40,#45);
#40 = PLANE('',#41);
#41 = AXIS2_PLACEMENT_3D('',#42,#43,#44);
#42 = CARTESIAN_POINT('',(74.447575353345,7.5,0.));
#43 = DIRECTION('',(0.,0.,1.));
#44 = DIRECTION('',(1.,0.,-0.));
#45 = DEFINITIONAL_REPRESENTATION('',(#46),#58);
#46 = B_SPLINE_CURVE_WITH_KNOTS('',1,(#47,#48,#49,#50,#51,#52,#53,#54,
    #55,#56,#57),.UNSPECIFIED.,.F.,.F.,(2,1,1,1,1,1,1,1,1,1,2),(0.,
    8.127346963411E-02,0.22394709226,0.328830974021,0.434587645151,
    0.589920838632,0.667723124719,0.780594386632,0.834681907093,
    0.906415268705,1.),.UNSPECIFIED.);
#47 = CARTESIAN_POINT('',(-74.44757535334,-7.551860832685));
#48 = CARTESIAN_POINT('',(-62.140700522,-9.629157838042));
#49 = CARTESIAN_POINT('',(-40.3728301386,-7.137385180082));
#50 = CARTESIAN_POINT('',(-24.41675036898,-4.939456276314));
#51 = CARTESIAN_POINT('',(-8.891445788092,-9.706834585029));
#52 = CARTESIAN_POINT('',(14.313673704331,-4.180396522662));
#53 = CARTESIAN_POINT('',(26.246150017242,-4.787252971782));
#54 = CARTESIAN_POINT('',(43.14557042706,-8.641424845058));
#55 = CARTESIAN_POINT('',(51.380613627066,-9.725428201729));
#56 = CARTESIAN_POINT('',(62.316332459258,-11.05219098181));
#57 = CARTESIAN_POINT('',(75.552424646655,-5.453278476743));
#58 = ( GEOMETRIC_REPRESENTATION_CONTEXT(2) 
PARAMETRIC_REPRESENTATION_CONTEXT() REPRESENTATION_CONTEXT('2D SPACE',''
  ) );
#59 = ORIENTED_EDGE('',*,*,#60,.T.);
#60 = EDGE_CURVE('',#24,#61,#63,.T.);
#61 = VERTEX_POINT('',#62);
#62 = CARTESIAN_POINT('',(150.,12.953278476743,0.));
#63 = SURFACE_CURVE('',#64,(#68),.PCURVE_S1.);
#64 = LINE('',#65,#66);
#65 = CARTESIAN_POINT('',(150.,2.046721523257,0.));
#66 = VECTOR('',#67,1.);
#67 = DIRECTION('',(0.,1.,0.));
#68 = PCURVE('',#40,#69);
#69 = DEFINITIONAL_REPRESENTATION('',(#70),#74);
#70 = LINE('',#71,#72);
#71 = CARTESIAN_POINT('',(75.552424646655,-5.453278476743));
#72 = VECTOR('',#73,1.);
#73 = DIRECTION('',(0.,1.));
#74 = ( GEOMETRIC_REPRESENTATION_CONTEXT(2) 
PARAMETRIC_REPRESENTATION_CONTEXT() REPRESENTATION_CONTEXT('2D SPACE',''
  ) );
#75 = ORIENTED_EDGE('',*,*,#76,.T.);
#76 = EDGE_CURVE('',#61,#77,#79,.T.);
#77 = VERTEX_POINT('',#78);
#78 = CARTESIAN_POINT('',(0.,15.051860832685,0.));
#79 = SURFACE_CURVE('',#80,(#92),.PCURVE_S1.);
#80 = B_SPLINE_CURVE_WITH_KNOTS('',1,(#81,#82,#83,#84,#85,#86,#87,#88,
    #89,#90,#91),.UNSPECIFIED.,.F.,.F.,(2,1,1,1,1,1,1,1,1,1,2),(0.,
    9.358473129458E-02,0.165318092907,0.219405613368,0.332276875281,
    0.410079161368,0.565412354849,0.671169025979,0.77605290774,
    0.918726530366,1.),.UNSPECIFIED.);
#81 = CARTESIAN_POINT('',(150.,12.953278476743,0.));
#82 = CARTESIAN_POINT('',(136.7639078126,18.55219098181,0.));
#83 = CARTESIAN_POINT('',(125.82818898041,17.225428201729,0.));
#84 = CARTESIAN_POINT('',(117.5931457804,16.141424845058,0.));
#85 = CARTESIAN_POINT('',(100.69372537058,12.287252971782,0.));
#86 = CARTESIAN_POINT('',(88.761249057677,11.680396522662,0.));
#87 = CARTESIAN_POINT('',(65.556129565253,17.206834585029,0.));
#88 = CARTESIAN_POINT('',(50.030824984365,12.439456276314,0.));
#89 = CARTESIAN_POINT('',(34.074745214739,14.637385180082,0.));
#90 = CARTESIAN_POINT('',(12.306874831346,17.129157838042,0.));
#91 = CARTESIAN_POINT('',(0.,15.051860832685,0.));
#92 = PCURVE('',#40,#93);
#93 = DEFINITIONAL_REPRESENTATION('',(#94),#106);
#94 = B_SPLINE_CURVE_WITH_KNOTS('',1,(#95,#96,#97,#98,#99,#100,#101,#102
    ,#103,#104,#105),.UNSPECIFIED.,.F.,.F.,(2,1,1,1,1,1,1,1,1,1,2),(0.,
    9.358473129458E-02,0.165318092907,0.219405613368,0.332276875281,
    0.410079161368,0.565412354849,0.671169025979,0.77605290774,
    0.918726530366,1.),.UNSPECIFIED.);
#95 = CARTESIAN_POINT('',(75.552424646655,5.453278476743));
#96 = CARTESIAN_POINT('',(62.316332459258,11.05219098181));
#97 = CARTESIAN_POINT('',(51.380613627066,9.725428201729));
#98 = CARTESIAN_POINT('',(43.14557042706,8.641424845058));
#99 = CARTESIAN_POINT('',(26.246150017242,4.787252971782));
#100 = CARTESIAN_POINT('',(14.313673704331,4.180396522662));
#101 = CARTESIAN_POINT('',(-8.891445788092,9.706834585029));
#102 = CARTESIAN_POINT('',(-24.41675036898,4.939456276314));
#103 = CARTESIAN_POINT('',(-40.3728301386,7.137385180082));
#104 = CARTESIAN_POINT('',(-62.140700522,9.629157838042));
#105 = CARTESIAN_POINT('',(-74.44757535334,7.551860832685));
#106 = ( GEOMETRIC_REPRESENTATION_CONTEXT(2) 
PARAMETRIC_REPRESENTATION_CONTEXT() REPRESENTATION_CONTEXT('2D SPACE',''
  ) );
#107 = ORIENTED_EDGE('',*,*,#108,.T.);
#108 = EDGE_CURVE('',#77,#22,#109,.T.);
#109 = SURFACE_CURVE('',#110,(#114),.PCURVE_S1.);
#110 = LINE('',#111,#112);
#111 = CARTESIAN_POINT('',(0.,15.051860832685,0.));
#112 = VECTOR('',#113,1.);
#113 = DIRECTION('',(0.,-1.,0.));
#114 = PCURVE('',#40,#115);
#115 = DEFINITIONAL_REPRESENTATION('',(#116),#120);
#116 = LINE('',#117,#118);
#117 = CARTESIAN_POINT('',(-74.44757535334,7.551860832685));
#118 = VECTOR('',#119,1.);
#119 = DIRECTION('',(0.,-1.));
#120 = ( GEOMETRIC_REPRESENTATION_CONTEXT(2) 
PARAMETRIC_REPRESENTATION_CONTEXT() REPRESENTATION_CONTEXT('2D SPACE',''
  ) );
#121 = ( GEOMETRIC_REPRESENTATION_CONTEXT(3) 
GLOBAL_UNCERTAINTY_ASSIGNED_CONTEXT((#125)) GLOBAL_UNIT_ASSIGNED_CONTEXT
((#122,#123,#124)) REPRESENTATION_CONTEXT('Context #1',
  '3D Context with UNIT and UNCERTAINTY') );
#122 = ( LENGTH_UNIT() NAMED_UNIT(*) SI_UNIT(.MILLI.,.METRE.) );
#123 = ( NAMED_UNIT(*) PLANE_ANGLE_UNIT() SI_UNIT($,.RADIAN.) );
#124 = ( NAMED_UNIT(*) SI_UNIT($,.STERADIAN.) SOLID_ANGLE_UNIT() );
#125 = UNCERTAINTY_MEASURE_WITH_UNIT(LENGTH_MEASURE(1.E-07),#122,
  'distance_accuracy_value','confusion accuracy');
#126 = PRODUCT_RELATED_PRODUCT_CATEGORY('part',$,(#7));
ENDSEC;
END-ISO-10303-21;
