ISO-10303-21;
HEADER;
FILE_DESCRIPTION(('Open CASCADE Model'),'2;1');
FILE_NAME('Open CASCADE Shape Model','2026-06-01T11:13:06',('Author'),(
    'Open CASCADE'),'Open CASCADE STEP processor 7.9','Open CASCADE 7.9'
  ,'Unknown');
FILE_SCHEMA(('AUTOMOTIVE_DESIGN { 1 0 10303 214 1 1 1 1 }'));
ENDSEC;
DATA;
#1 = APPLICATION_PROTOCOL_DEFINITION('international standard',
  'automotive_design',2000,#2);
#2 = APPLICATION_CONTEXT(
  'core data for automotive mechanical design processes');
#3 = SHAPE_DEFINITION_REPRESENTATION(#4,#10);
#4 = PRODUCT_DEFINITION_SHAPE('','',#5);
#5 = PRODUCT_DEFINITION('design','',#6,#9);
#6 = PRODUCT_DEFINITION_FORMATION('','',#7);
#7 = PRODUCT('Open CASCADE STEP translator 7.9 68',
  'Open CASCADE STEP translator 7.9 68','',(#8));
#8 = PRODUCT_CONTEXT('',#2,'mechanical');
#9 = PRODUCT_DEFINITION_CONTEXT('part definition',#2,'design');
#10 = MANIFOLD_SURFACE_SHAPE_REPRESENTATION('',(#11,#15),#121);
#11 = AXIS2_PLACEMENT_3D('',#12,#13,#14);
#12 = CARTESIAN_POINT('',(0.,0.,0.));
#13 = DIRECTION('',(0.,0.,1.));
#14 = DIRECTION('',(1.,0.,-0.));
#15 = SHELL_BASED_SURFACE_MODEL('',(#16));
#16 = OPEN_SHELL('',(#17));
#17 = ADVANCED_FACE('',(#18),#40,.T.);
#18 = FACE_BOUND('',#19,.T.);
#19 = EDGE_LOOP('',(#20,#59,#75,#107));
#20 = ORIENTED_EDGE('',*,*,#21,.T.);
#21 = EDGE_CURVE('',#22,#24,#26,.T.);
#22 = VERTEX_POINT('',#23);
#23 = CARTESIAN_POINT('',(0.,4.05794120625,0.));
#24 = VERTEX_POINT('',#25);
#25 = CARTESIAN_POINT('',(150.,-1.06010017655,0.));
#26 = SURFACE_CURVE('',#27,(#39),.PCURVE_S1.);
#27 = B_SPLINE_CURVE_WITH_KNOTS('',1,(#28,#29,#30,#31,#32,#33,#34,#35,
    #36,#37,#38),.UNSPECIFIED.,.F.,.F.,(2,1,1,1,1,1,1,1,1,1,2),(0.,
    7.966409738714E-02,0.102380156177,0.138468489449,0.180533477817,
    0.486427594419,0.542460798267,0.595604377469,0.848411336189,
    0.942507634267,1.),.UNSPECIFIED.);
#28 = CARTESIAN_POINT('',(0.,4.05794120625,0.));
#29 = CARTESIAN_POINT('',(12.186148659457,3.11758350716,0.));
#30 = CARTESIAN_POINT('',(15.575312650448,3.930043691677,0.));
#31 = CARTESIAN_POINT('',(20.983576444378,2.743881830169,0.));
#32 = CARTESIAN_POINT('',(26.493097665602,-0.617127432334,0.));
#33 = CARTESIAN_POINT('',(73.322407984536,-3.712039166661,0.));
#34 = CARTESIAN_POINT('',(81.228161423953,-0.334969953249,0.));
#35 = CARTESIAN_POINT('',(89.342419658751,-1.133906010292,0.));
#36 = CARTESIAN_POINT('',(127.94076698193,2.683194735514,0.));
#37 = CARTESIAN_POINT('',(141.33407381606,-2.705252586065,0.));
#38 = CARTESIAN_POINT('',(150.,-1.06010017655,0.));
#39 = PCURVE('',#40,#45);
#40 = PLANE('',#41);
#41 = AXIS2_PLACEMENT_3D('',#42,#43,#44);
#42 = CARTESIAN_POINT('',(77.410124832179,7.5,0.));
#43 = DIRECTION('',(0.,0.,1.));
#44 = DIRECTION('',(1.,0.,-0.));
#45 = DEFINITIONAL_REPRESENTATION('',(#46),#58);
#46 = B_SPLINE_CURVE_WITH_KNOTS('',1,(#47,#48,#49,#50,#51,#52,#53,#54,
    #55,#56,#57),.UNSPECIFIED.,.F.,.F.,(2,1,1,1,1,1,1,1,1,1,2),(0.,
    7.966409738714E-02,0.102380156177,0.138468489449,0.180533477817,
    0.486427594419,0.542460798267,0.595604377469,0.848411336189,
    0.942507634267,1.),.UNSPECIFIED.);
#47 = CARTESIAN_POINT('',(-77.41012483217,-3.44205879375));
#48 = CARTESIAN_POINT('',(-65.22397617272,-4.38241649284));
#49 = CARTESIAN_POINT('',(-61.83481218173,-3.569956308323));
#50 = CARTESIAN_POINT('',(-56.4265483878,-4.756118169831));
#51 = CARTESIAN_POINT('',(-50.91702716657,-8.117127432334));
#52 = CARTESIAN_POINT('',(-4.087716847643,-11.21203916666));
#53 = CARTESIAN_POINT('',(3.818036591775,-7.834969953249));
#54 = CARTESIAN_POINT('',(11.932294826572,-8.633906010292));
#55 = CARTESIAN_POINT('',(50.530642149758,-4.816805264486));
#56 = CARTESIAN_POINT('',(63.923948983886,-10.20525258606));
#57 = CARTESIAN_POINT('',(72.589875167821,-8.56010017655));
#58 = ( GEOMETRIC_REPRESENTATION_CONTEXT(2) 
PARAMETRIC_REPRESENTATION_CONTEXT() REPRESENTATION_CONTEXT('2D SPACE',''
  ) );
#59 = ORIENTED_EDGE('',*,*,#60,.T.);
#60 = EDGE_CURVE('',#24,#61,#63,.T.);
#61 = VERTEX_POINT('',#62);
#62 = CARTESIAN_POINT('',(150.,16.06010017655,0.));
#63 = SURFACE_CURVE('',#64,(#68),.PCURVE_S1.);
#64 = LINE('',#65,#66);
#65 = CARTESIAN_POINT('',(150.,-1.06010017655,0.));
#66 = VECTOR('',#67,1.);
#67 = DIRECTION('',(0.,1.,0.));
#68 = PCURVE('',#40,#69);
#69 = DEFINITIONAL_REPRESENTATION('',(#70),#74);
#70 = LINE('',#71,#72);
#71 = CARTESIAN_POINT('',(72.589875167821,-8.56010017655));
#72 = VECTOR('',#73,1.);
#73 = DIRECTION('',(0.,1.));
#74 = ( GEOMETRIC_REPRESENTATION_CONTEXT(2) 
PARAMETRIC_REPRESENTATION_CONTEXT() REPRESENTATION_CONTEXT('2D SPACE',''
  ) );
#75 = ORIENTED_EDGE('',*,*,#76,.T.);
#76 = EDGE_CURVE('',#61,#77,#79,.T.);
#77 = VERTEX_POINT('',#78);
#78 = CARTESIAN_POINT('',(0.,10.94205879375,0.));
#79 = SURFACE_CURVE('',#80,(#92),.PCURVE_S1.);
#80 = B_SPLINE_CURVE_WITH_KNOTS('',1,(#81,#82,#83,#84,#85,#86,#87,#88,
    #89,#90,#91),.UNSPECIFIED.,.F.,.F.,(2,1,1,1,1,1,1,1,1,1,2),(0.,
    5.749236573305E-02,0.151588663811,0.404395622531,0.457539201733,
    0.513572405581,0.819466522183,0.861531510551,0.897619843823,
    0.920335902613,1.),.UNSPECIFIED.);
#81 = CARTESIAN_POINT('',(150.,16.06010017655,0.));
#82 = CARTESIAN_POINT('',(141.33407381606,17.705252586065,0.));
#83 = CARTESIAN_POINT('',(127.94076698193,12.316805264486,0.));
#84 = CARTESIAN_POINT('',(89.342419658751,16.133906010292,0.));
#85 = CARTESIAN_POINT('',(81.228161423953,15.334969953249,0.));
#86 = CARTESIAN_POINT('',(73.322407984536,18.712039166661,0.));
#87 = CARTESIAN_POINT('',(26.493097665602,15.617127432334,0.));
#88 = CARTESIAN_POINT('',(20.983576444378,12.256118169831,0.));
#89 = CARTESIAN_POINT('',(15.575312650448,11.069956308323,0.));
#90 = CARTESIAN_POINT('',(12.186148659457,11.88241649284,0.));
#91 = CARTESIAN_POINT('',(0.,10.94205879375,0.));
#92 = PCURVE('',#40,#93);
#93 = DEFINITIONAL_REPRESENTATION('',(#94),#106);
#94 = B_SPLINE_CURVE_WITH_KNOTS('',1,(#95,#96,#97,#98,#99,#100,#101,#102
    ,#103,#104,#105),.UNSPECIFIED.,.F.,.F.,(2,1,1,1,1,1,1,1,1,1,2),(0.,
    5.749236573305E-02,0.151588663811,0.404395622531,0.457539201733,
    0.513572405581,0.819466522183,0.861531510551,0.897619843823,
    0.920335902613,1.),.UNSPECIFIED.);
#95 = CARTESIAN_POINT('',(72.589875167821,8.56010017655));
#96 = CARTESIAN_POINT('',(63.923948983886,10.205252586065));
#97 = CARTESIAN_POINT('',(50.530642149758,4.816805264486));
#98 = CARTESIAN_POINT('',(11.932294826572,8.633906010292));
#99 = CARTESIAN_POINT('',(3.818036591775,7.834969953249));
#100 = CARTESIAN_POINT('',(-4.087716847643,11.212039166661));
#101 = CARTESIAN_POINT('',(-50.91702716657,8.117127432334));
#102 = CARTESIAN_POINT('',(-56.4265483878,4.756118169831));
#103 = CARTESIAN_POINT('',(-61.83481218173,3.569956308323));
#104 = CARTESIAN_POINT('',(-65.22397617272,4.38241649284));
#105 = CARTESIAN_POINT('',(-77.41012483217,3.44205879375));
#106 = ( GEOMETRIC_REPRESENTATION_CONTEXT(2) 
PARAMETRIC_REPRESENTATION_CONTEXT() REPRESENTATION_CONTEXT('2D SPACE',''
  ) );
#107 = ORIENTED_EDGE('',*,*,#108,.T.);
#108 = EDGE_CURVE('',#77,#22,#109,.T.);
#109 = SURFACE_CURVE('',#110,(#114),.PCURVE_S1.);
#110 = LINE('',#111,#112);
#111 = CARTESIAN_POINT('',(0.,10.94205879375,0.));
#112 = VECTOR('',#113,1.);
#113 = DIRECTION('',(0.,-1.,0.));
#114 = PCURVE('',#40,#115);
#115 = DEFINITIONAL_REPRESENTATION('',(#116),#120);
#116 = LINE('',#117,#118);
#117 = CARTESIAN_POINT('',(-77.41012483217,3.44205879375));
#118 = VECTOR('',#119,1.);
#119 = DIRECTION('',(0.,-1.));
#120 = ( GEOMETRIC_REPRESENTATION_CONTEXT(2) 
PARAMETRIC_REPRESENTATION_CONTEXT() REPRESENTATION_CONTEXT('2D SPACE',''
  ) );
#121 = ( GEOMETRIC_REPRESENTATION_CONTEXT(3) 
GLOBAL_UNCERTAINTY_ASSIGNED_CONTEXT((#125)) GLOBAL_UNIT_ASSIGNED_CONTEXT
((#122,#123,#124)) REPRESENTATION_CONTEXT('Context #1',
  '3D Context with UNIT and UNCERTAINTY') );
#122 = ( LENGTH_UNIT() NAMED_UNIT(*) SI_UNIT(.MILLI.,.METRE.) );
#123 = ( NAMED_UNIT(*) PLANE_ANGLE_UNIT() SI_UNIT($,.RADIAN.) );
#124 = ( NAMED_UNIT(*) SI_UNIT($,.STERADIAN.) SOLID_ANGLE_UNIT() );
#125 = UNCERTAINTY_MEASURE_WITH_UNIT(LENGTH_MEASURE(1.E-07),#122,
  'distance_accuracy_value','confusion accuracy');
#126 = PRODUCT_RELATED_PRODUCT_CATEGORY('part',$,(#7));
ENDSEC;
END-ISO-10303-21;
