ISO-10303-21;
HEADER;
FILE_DESCRIPTION(('Open CASCADE Model'),'2;1');
FILE_NAME('Open CASCADE Shape Model','2026-06-01T11:13:06',('Author'),(
    'Open CASCADE'),'Open CASCADE STEP processor 7.9','Open CASCADE 7.9'
  ,'Unknown');
FILE_SCHEMA(('AUTOMOTIVE_DESIGN { 1 0 10303 214 1 1 1 1 }'));
ENDSEC;
DATA;
#1 = APPLICATION_PROTOCOL_DEFINITION('international standard',
  'automotive_design',2000,#2);
#2 = APPLICATION_CONTEXT(
  'core data for automotive mechanical design processes');
#3 = SHAPE_DEFINITION_REPRESENTATION(#4,#10);
#4 = PRODUCT_DEFINITION_SHAPE('','',#5);
#5 = PRODUCT_DEFINITION('design','',#6,#9);
#6 = PRODUCT_DEFINITION_FORMATION('','',#7);
#7 = PRODUCT('Open CASCADE STEP translator 7.9 98',
  'Open CASCADE STEP translator 7.9 98','',(#8));
#8 = PRODUCT_CONTEXT('',#2,'mechanical');
#9 = PRODUCT_DEFINITION_CONTEXT('part definition',#2,'design');
#10 = MANIFOLD_SURFACE_SHAPE_REPRESENTATION('',(#11,#15),#121);
#11 = AXIS2_PLACEMENT_3D('',#12,#13,#14);
#12 = CARTESIAN_POINT('',(0.,0.,0.));
#13 = DIRECTION('',(0.,0.,1.));
#14 = DIRECTION('',(1.,0.,-0.));
#15 = SHELL_BASED_SURFACE_MODEL('',(#16));
#16 = OPEN_SHELL('',(#17));
#17 = ADVANCED_FACE('',(#18),#40,.T.);
#18 = FACE_BOUND('',#19,.T.);
#19 = EDGE_LOOP('',(#20,#59,#75,#107));
#20 = ORIENTED_EDGE('',*,*,#21,.T.);
#21 = EDGE_CURVE('',#22,#24,#26,.T.);
#22 = VERTEX_POINT('',#23);
#23 = CARTESIAN_POINT('',(0.,1.787394269518,0.));
#24 = VERTEX_POINT('',#25);
#25 = CARTESIAN_POINT('',(150.,-1.950765751472,0.));
#26 = SURFACE_CURVE('',#27,(#39),.PCURVE_S1.);
#27 = B_SPLINE_CURVE_WITH_KNOTS('',1,(#28,#29,#30,#31,#32,#33,#34,#35,
    #36,#37,#38),.UNSPECIFIED.,.F.,.F.,(2,1,1,1,1,1,1,1,1,1,2),(0.,
    7.97357304231E-02,0.133294879626,0.242034268686,0.347452405288,
    0.38919455853,0.511925575942,0.568265241761,0.776837341283,
    0.926565229035,1.),.UNSPECIFIED.);
#28 = CARTESIAN_POINT('',(0.,1.787394269518,0.));
#29 = CARTESIAN_POINT('',(12.135567536964,4.220373599371,0.));
#30 = CARTESIAN_POINT('',(19.789082013685,0.97346061081,0.));
#31 = CARTESIAN_POINT('',(36.579887213713,2.698349124736,0.));
#32 = CARTESIAN_POINT('',(52.363340169971,-1.620314418671,0.));
#33 = CARTESIAN_POINT('',(57.036403548261,2.868106871107,0.));
#34 = CARTESIAN_POINT('',(75.562483492073,-1.573314771653,0.));
#35 = CARTESIAN_POINT('',(83.485647250452,2.128721146296,0.));
#36 = CARTESIAN_POINT('',(115.85090958202,1.303039492909,0.));
#37 = CARTESIAN_POINT('',(139.09248592413,1.360254131582,0.));
#38 = CARTESIAN_POINT('',(150.,-1.950765751472,0.));
#39 = PCURVE('',#40,#45);
#40 = PLANE('',#41);
#41 = AXIS2_PLACEMENT_3D('',#42,#43,#44);
#42 = CARTESIAN_POINT('',(76.172684321663,7.5,0.));
#43 = DIRECTION('',(0.,0.,1.));
#44 = DIRECTION('',(1.,0.,-0.));
#45 = DEFINITIONAL_REPRESENTATION('',(#46),#58);
#46 = B_SPLINE_CURVE_WITH_KNOTS('',1,(#47,#48,#49,#50,#51,#52,#53,#54,
    #55,#56,#57),.UNSPECIFIED.,.F.,.F.,(2,1,1,1,1,1,1,1,1,1,2),(0.,
    7.97357304231E-02,0.133294879626,0.242034268686,0.347452405288,
    0.38919455853,0.511925575942,0.568265241761,0.776837341283,
    0.926565229035,1.),.UNSPECIFIED.);
#47 = CARTESIAN_POINT('',(-76.17268432166,-5.712605730482));
#48 = CARTESIAN_POINT('',(-64.03711678469,-3.279626400629));
#49 = CARTESIAN_POINT('',(-56.38360230797,-6.52653938919));
#50 = CARTESIAN_POINT('',(-39.59279710795,-4.801650875264));
#51 = CARTESIAN_POINT('',(-23.80934415169,-9.120314418671));
#52 = CARTESIAN_POINT('',(-19.1362807734,-4.631893128893));
#53 = CARTESIAN_POINT('',(-0.61020082959,-9.073314771653));
#54 = CARTESIAN_POINT('',(7.312962928789,-5.371278853704));
#55 = CARTESIAN_POINT('',(39.678225260357,-6.196960507091));
#56 = CARTESIAN_POINT('',(62.919801602469,-6.139745868418));
#57 = CARTESIAN_POINT('',(73.827315678337,-9.450765751472));
#58 = ( GEOMETRIC_REPRESENTATION_CONTEXT(2) 
PARAMETRIC_REPRESENTATION_CONTEXT() REPRESENTATION_CONTEXT('2D SPACE',''
  ) );
#59 = ORIENTED_EDGE('',*,*,#60,.T.);
#60 = EDGE_CURVE('',#24,#61,#63,.T.);
#61 = VERTEX_POINT('',#62);
#62 = CARTESIAN_POINT('',(150.,16.950765751472,0.));
#63 = SURFACE_CURVE('',#64,(#68),.PCURVE_S1.);
#64 = LINE('',#65,#66);
#65 = CARTESIAN_POINT('',(150.,-1.950765751472,0.));
#66 = VECTOR('',#67,1.);
#67 = DIRECTION('',(0.,1.,0.));
#68 = PCURVE('',#40,#69);
#69 = DEFINITIONAL_REPRESENTATION('',(#70),#74);
#70 = LINE('',#71,#72);
#71 = CARTESIAN_POINT('',(73.827315678337,-9.450765751472));
#72 = VECTOR('',#73,1.);
#73 = DIRECTION('',(0.,1.));
#74 = ( GEOMETRIC_REPRESENTATION_CONTEXT(2) 
PARAMETRIC_REPRESENTATION_CONTEXT() REPRESENTATION_CONTEXT('2D SPACE',''
  ) );
#75 = ORIENTED_EDGE('',*,*,#76,.T.);
#76 = EDGE_CURVE('',#61,#77,#79,.T.);
#77 = VERTEX_POINT('',#78);
#78 = CARTESIAN_POINT('',(0.,13.212605730482,0.));
#79 = SURFACE_CURVE('',#80,(#92),.PCURVE_S1.);
#80 = B_SPLINE_CURVE_WITH_KNOTS('',1,(#81,#82,#83,#84,#85,#86,#87,#88,
    #89,#90,#91),.UNSPECIFIED.,.F.,.F.,(2,1,1,1,1,1,1,1,1,1,2),(0.,
    7.343477096464E-02,0.223162658717,0.431734758239,0.488074424058,
    0.61080544147,0.652547594712,0.757965731314,0.866705120374,
    0.920264269577,1.),.UNSPECIFIED.);
#81 = CARTESIAN_POINT('',(150.,16.950765751472,0.));
#82 = CARTESIAN_POINT('',(139.09248592413,13.639745868418,0.));
#83 = CARTESIAN_POINT('',(115.85090958202,13.696960507091,0.));
#84 = CARTESIAN_POINT('',(83.485647250452,12.871278853704,0.));
#85 = CARTESIAN_POINT('',(75.562483492073,16.573314771653,0.));
#86 = CARTESIAN_POINT('',(57.036403548261,12.131893128893,0.));
#87 = CARTESIAN_POINT('',(52.363340169971,16.620314418671,0.));
#88 = CARTESIAN_POINT('',(36.579887213713,12.301650875264,0.));
#89 = CARTESIAN_POINT('',(19.789082013685,14.02653938919,0.));
#90 = CARTESIAN_POINT('',(12.135567536964,10.779626400629,0.));
#91 = CARTESIAN_POINT('',(0.,13.212605730482,0.));
#92 = PCURVE('',#40,#93);
#93 = DEFINITIONAL_REPRESENTATION('',(#94),#106);
#94 = B_SPLINE_CURVE_WITH_KNOTS('',1,(#95,#96,#97,#98,#99,#100,#101,#102
    ,#103,#104,#105),.UNSPECIFIED.,.F.,.F.,(2,1,1,1,1,1,1,1,1,1,2),(0.,
    7.343477096464E-02,0.223162658717,0.431734758239,0.488074424058,
    0.61080544147,0.652547594712,0.757965731314,0.866705120374,
    0.920264269577,1.),.UNSPECIFIED.);
#95 = CARTESIAN_POINT('',(73.827315678337,9.450765751472));
#96 = CARTESIAN_POINT('',(62.919801602469,6.139745868418));
#97 = CARTESIAN_POINT('',(39.678225260357,6.196960507091));
#98 = CARTESIAN_POINT('',(7.312962928789,5.371278853704));
#99 = CARTESIAN_POINT('',(-0.61020082959,9.073314771653));
#100 = CARTESIAN_POINT('',(-19.1362807734,4.631893128893));
#101 = CARTESIAN_POINT('',(-23.80934415169,9.120314418671));
#102 = CARTESIAN_POINT('',(-39.59279710795,4.801650875264));
#103 = CARTESIAN_POINT('',(-56.38360230797,6.52653938919));
#104 = CARTESIAN_POINT('',(-64.03711678469,3.279626400629));
#105 = CARTESIAN_POINT('',(-76.17268432166,5.712605730482));
#106 = ( GEOMETRIC_REPRESENTATION_CONTEXT(2) 
PARAMETRIC_REPRESENTATION_CONTEXT() REPRESENTATION_CONTEXT('2D SPACE',''
  ) );
#107 = ORIENTED_EDGE('',*,*,#108,.T.);
#108 = EDGE_CURVE('',#77,#22,#109,.T.);
#109 = SURFACE_CURVE('',#110,(#114),.PCURVE_S1.);
#110 = LINE('',#111,#112);
#111 = CARTESIAN_POINT('',(0.,13.212605730482,0.));
#112 = VECTOR('',#113,1.);
#113 = DIRECTION('',(0.,-1.,0.));
#114 = PCURVE('',#40,#115);
#115 = DEFINITIONAL_REPRESENTATION('',(#116),#120);
#116 = LINE('',#117,#118);
#117 = CARTESIAN_POINT('',(-76.17268432166,5.712605730482));
#118 = VECTOR('',#119,1.);
#119 = DIRECTION('',(0.,-1.));
#120 = ( GEOMETRIC_REPRESENTATION_CONTEXT(2) 
PARAMETRIC_REPRESENTATION_CONTEXT() REPRESENTATION_CONTEXT('2D SPACE',''
  ) );
#121 = ( GEOMETRIC_REPRESENTATION_CONTEXT(3) 
GLOBAL_UNCERTAINTY_ASSIGNED_CONTEXT((#125)) GLOBAL_UNIT_ASSIGNED_CONTEXT
((#122,#123,#124)) REPRESENTATION_CONTEXT('Context #1',
  '3D Context with UNIT and UNCERTAINTY') );
#122 = ( LENGTH_UNIT() NAMED_UNIT(*) SI_UNIT(.MILLI.,.METRE.) );
#123 = ( NAMED_UNIT(*) PLANE_ANGLE_UNIT() SI_UNIT($,.RADIAN.) );
#124 = ( NAMED_UNIT(*) SI_UNIT($,.STERADIAN.) SOLID_ANGLE_UNIT() );
#125 = UNCERTAINTY_MEASURE_WITH_UNIT(LENGTH_MEASURE(1.E-07),#122,
  'distance_accuracy_value','confusion accuracy');
#126 = PRODUCT_RELATED_PRODUCT_CATEGORY('part',$,(#7));
ENDSEC;
END-ISO-10303-21;
