ISO-10303-21;
HEADER;
FILE_DESCRIPTION(('Open CASCADE Model'),'2;1');
FILE_NAME('Open CASCADE Shape Model','2026-06-01T11:13:06',('Author'),(
    'Open CASCADE'),'Open CASCADE STEP processor 7.9','Open CASCADE 7.9'
  ,'Unknown');
FILE_SCHEMA(('AUTOMOTIVE_DESIGN { 1 0 10303 214 1 1 1 1 }'));
ENDSEC;
DATA;
#1 = APPLICATION_PROTOCOL_DEFINITION('international standard',
  'automotive_design',2000,#2);
#2 = APPLICATION_CONTEXT(
  'core data for automotive mechanical design processes');
#3 = SHAPE_DEFINITION_REPRESENTATION(#4,#10);
#4 = PRODUCT_DEFINITION_SHAPE('','',#5);
#5 = PRODUCT_DEFINITION('design','',#6,#9);
#6 = PRODUCT_DEFINITION_FORMATION('','',#7);
#7 = PRODUCT('Open CASCADE STEP translator 7.9 79',
  'Open CASCADE STEP translator 7.9 79','',(#8));
#8 = PRODUCT_CONTEXT('',#2,'mechanical');
#9 = PRODUCT_DEFINITION_CONTEXT('part definition',#2,'design');
#10 = MANIFOLD_SURFACE_SHAPE_REPRESENTATION('',(#11,#15),#121);
#11 = AXIS2_PLACEMENT_3D('',#12,#13,#14);
#12 = CARTESIAN_POINT('',(0.,0.,0.));
#13 = DIRECTION('',(0.,0.,1.));
#14 = DIRECTION('',(1.,0.,-0.));
#15 = SHELL_BASED_SURFACE_MODEL('',(#16));
#16 = OPEN_SHELL('',(#17));
#17 = ADVANCED_FACE('',(#18),#40,.T.);
#18 = FACE_BOUND('',#19,.T.);
#19 = EDGE_LOOP('',(#20,#59,#75,#107));
#20 = ORIENTED_EDGE('',*,*,#21,.T.);
#21 = EDGE_CURVE('',#22,#24,#26,.T.);
#22 = VERTEX_POINT('',#23);
#23 = CARTESIAN_POINT('',(0.,-3.94660313065,0.));
#24 = VERTEX_POINT('',#25);
#25 = CARTESIAN_POINT('',(150.,2.354953235741,0.));
#26 = SURFACE_CURVE('',#27,(#39),.PCURVE_S1.);
#27 = B_SPLINE_CURVE_WITH_KNOTS('',1,(#28,#29,#30,#31,#32,#33,#34,#35,
    #36,#37,#38),.UNSPECIFIED.,.F.,.F.,(2,1,1,1,1,1,1,1,1,1,2),(0.,
    8.770171769504E-02,0.166912000405,0.20427597017,0.240426389333,
    0.441269863176,0.615027465277,0.69490955934,0.894249413731,
    0.921433057901,1.),.UNSPECIFIED.);
#28 = CARTESIAN_POINT('',(0.,-3.94660313065,0.));
#29 = CARTESIAN_POINT('',(13.341222805544,-2.055374691718,0.));
#30 = CARTESIAN_POINT('',(25.23362348507,0.528995263675,0.));
#31 = CARTESIAN_POINT('',(29.428347598082,-3.390103248765,0.));
#32 = CARTESIAN_POINT('',(34.007730845186,-0.247118670653,0.));
#33 = CARTESIAN_POINT('',(64.803536540206,-2.202938350351,0.));
#34 = CARTESIAN_POINT('',(91.491174962662,-2.884553494727,0.));
#35 = CARTESIAN_POINT('',(103.74764473077,-2.244175755291,0.));
#36 = CARTESIAN_POINT('',(134.09153040361,1.909306115567,0.));
#37 = CARTESIAN_POINT('',(137.97768543406,3.439404891848,0.));
#38 = CARTESIAN_POINT('',(150.,2.354953235741,0.));
#39 = PCURVE('',#40,#45);
#40 = PLANE('',#41);
#41 = AXIS2_PLACEMENT_3D('',#42,#43,#44);
#42 = CARTESIAN_POINT('',(71.588530650123,7.5,0.));
#43 = DIRECTION('',(0.,0.,1.));
#44 = DIRECTION('',(1.,0.,-0.));
#45 = DEFINITIONAL_REPRESENTATION('',(#46),#58);
#46 = B_SPLINE_CURVE_WITH_KNOTS('',1,(#47,#48,#49,#50,#51,#52,#53,#54,
    #55,#56,#57),.UNSPECIFIED.,.F.,.F.,(2,1,1,1,1,1,1,1,1,1,2),(0.,
    8.770171769504E-02,0.166912000405,0.20427597017,0.240426389333,
    0.441269863176,0.615027465277,0.69490955934,0.894249413731,
    0.921433057901,1.),.UNSPECIFIED.);
#47 = CARTESIAN_POINT('',(-71.58853065012,-11.44660313065));
#48 = CARTESIAN_POINT('',(-58.24730784457,-9.555374691718));
#49 = CARTESIAN_POINT('',(-46.35490716505,-6.971004736325));
#50 = CARTESIAN_POINT('',(-42.16018305204,-10.89010324876));
#51 = CARTESIAN_POINT('',(-37.58079980493,-7.747118670653));
#52 = CARTESIAN_POINT('',(-6.784994109916,-9.702938350351));
#53 = CARTESIAN_POINT('',(19.902644312539,-10.38455349472));
#54 = CARTESIAN_POINT('',(32.15911408065,-9.744175755291));
#55 = CARTESIAN_POINT('',(62.502999753489,-5.590693884433));
#56 = CARTESIAN_POINT('',(66.389154783939,-4.060595108152));
#57 = CARTESIAN_POINT('',(78.411469349877,-5.145046764259));
#58 = ( GEOMETRIC_REPRESENTATION_CONTEXT(2) 
PARAMETRIC_REPRESENTATION_CONTEXT() REPRESENTATION_CONTEXT('2D SPACE',''
  ) );
#59 = ORIENTED_EDGE('',*,*,#60,.T.);
#60 = EDGE_CURVE('',#24,#61,#63,.T.);
#61 = VERTEX_POINT('',#62);
#62 = CARTESIAN_POINT('',(150.,12.645046764259,0.));
#63 = SURFACE_CURVE('',#64,(#68),.PCURVE_S1.);
#64 = LINE('',#65,#66);
#65 = CARTESIAN_POINT('',(150.,2.354953235741,0.));
#66 = VECTOR('',#67,1.);
#67 = DIRECTION('',(0.,1.,0.));
#68 = PCURVE('',#40,#69);
#69 = DEFINITIONAL_REPRESENTATION('',(#70),#74);
#70 = LINE('',#71,#72);
#71 = CARTESIAN_POINT('',(78.411469349877,-5.145046764259));
#72 = VECTOR('',#73,1.);
#73 = DIRECTION('',(0.,1.));
#74 = ( GEOMETRIC_REPRESENTATION_CONTEXT(2) 
PARAMETRIC_REPRESENTATION_CONTEXT() REPRESENTATION_CONTEXT('2D SPACE',''
  ) );
#75 = ORIENTED_EDGE('',*,*,#76,.T.);
#76 = EDGE_CURVE('',#61,#77,#79,.T.);
#77 = VERTEX_POINT('',#78);
#78 = CARTESIAN_POINT('',(0.,18.94660313065,0.));
#79 = SURFACE_CURVE('',#80,(#92),.PCURVE_S1.);
#80 = B_SPLINE_CURVE_WITH_KNOTS('',1,(#81,#82,#83,#84,#85,#86,#87,#88,
    #89,#90,#91),.UNSPECIFIED.,.F.,.F.,(2,1,1,1,1,1,1,1,1,1,2),(0.,
    7.856694209888E-02,0.105750586269,0.30509044066,0.384972534723,
    0.558730136824,0.759573610667,0.79572402983,0.833087999595,
    0.912298282305,1.),.UNSPECIFIED.);
#81 = CARTESIAN_POINT('',(150.,12.645046764259,0.));
#82 = CARTESIAN_POINT('',(137.97768543406,11.560595108152,0.));
#83 = CARTESIAN_POINT('',(134.09153040361,13.090693884433,0.));
#84 = CARTESIAN_POINT('',(103.74764473077,17.244175755291,0.));
#85 = CARTESIAN_POINT('',(91.491174962662,17.884553494727,0.));
#86 = CARTESIAN_POINT('',(64.803536540206,17.202938350351,0.));
#87 = CARTESIAN_POINT('',(34.007730845186,15.247118670653,0.));
#88 = CARTESIAN_POINT('',(29.428347598082,18.390103248765,0.));
#89 = CARTESIAN_POINT('',(25.23362348507,14.471004736325,0.));
#90 = CARTESIAN_POINT('',(13.341222805544,17.055374691718,0.));
#91 = CARTESIAN_POINT('',(0.,18.94660313065,0.));
#92 = PCURVE('',#40,#93);
#93 = DEFINITIONAL_REPRESENTATION('',(#94),#106);
#94 = B_SPLINE_CURVE_WITH_KNOTS('',1,(#95,#96,#97,#98,#99,#100,#101,#102
    ,#103,#104,#105),.UNSPECIFIED.,.F.,.F.,(2,1,1,1,1,1,1,1,1,1,2),(0.,
    7.856694209888E-02,0.105750586269,0.30509044066,0.384972534723,
    0.558730136824,0.759573610667,0.79572402983,0.833087999595,
    0.912298282305,1.),.UNSPECIFIED.);
#95 = CARTESIAN_POINT('',(78.411469349877,5.145046764259));
#96 = CARTESIAN_POINT('',(66.389154783939,4.060595108152));
#97 = CARTESIAN_POINT('',(62.502999753489,5.590693884433));
#98 = CARTESIAN_POINT('',(32.15911408065,9.744175755291));
#99 = CARTESIAN_POINT('',(19.902644312539,10.384553494727));
#100 = CARTESIAN_POINT('',(-6.784994109916,9.702938350351));
#101 = CARTESIAN_POINT('',(-37.58079980493,7.747118670653));
#102 = CARTESIAN_POINT('',(-42.16018305204,10.890103248765));
#103 = CARTESIAN_POINT('',(-46.35490716505,6.971004736325));
#104 = CARTESIAN_POINT('',(-58.24730784457,9.555374691718));
#105 = CARTESIAN_POINT('',(-71.58853065012,11.44660313065));
#106 = ( GEOMETRIC_REPRESENTATION_CONTEXT(2) 
PARAMETRIC_REPRESENTATION_CONTEXT() REPRESENTATION_CONTEXT('2D SPACE',''
  ) );
#107 = ORIENTED_EDGE('',*,*,#108,.T.);
#108 = EDGE_CURVE('',#77,#22,#109,.T.);
#109 = SURFACE_CURVE('',#110,(#114),.PCURVE_S1.);
#110 = LINE('',#111,#112);
#111 = CARTESIAN_POINT('',(0.,18.94660313065,0.));
#112 = VECTOR('',#113,1.);
#113 = DIRECTION('',(0.,-1.,0.));
#114 = PCURVE('',#40,#115);
#115 = DEFINITIONAL_REPRESENTATION('',(#116),#120);
#116 = LINE('',#117,#118);
#117 = CARTESIAN_POINT('',(-71.58853065012,11.44660313065));
#118 = VECTOR('',#119,1.);
#119 = DIRECTION('',(0.,-1.));
#120 = ( GEOMETRIC_REPRESENTATION_CONTEXT(2) 
PARAMETRIC_REPRESENTATION_CONTEXT() REPRESENTATION_CONTEXT('2D SPACE',''
  ) );
#121 = ( GEOMETRIC_REPRESENTATION_CONTEXT(3) 
GLOBAL_UNCERTAINTY_ASSIGNED_CONTEXT((#125)) GLOBAL_UNIT_ASSIGNED_CONTEXT
((#122,#123,#124)) REPRESENTATION_CONTEXT('Context #1',
  '3D Context with UNIT and UNCERTAINTY') );
#122 = ( LENGTH_UNIT() NAMED_UNIT(*) SI_UNIT(.MILLI.,.METRE.) );
#123 = ( NAMED_UNIT(*) PLANE_ANGLE_UNIT() SI_UNIT($,.RADIAN.) );
#124 = ( NAMED_UNIT(*) SI_UNIT($,.STERADIAN.) SOLID_ANGLE_UNIT() );
#125 = UNCERTAINTY_MEASURE_WITH_UNIT(LENGTH_MEASURE(1.E-07),#122,
  'distance_accuracy_value','confusion accuracy');
#126 = PRODUCT_RELATED_PRODUCT_CATEGORY('part',$,(#7));
ENDSEC;
END-ISO-10303-21;
