ISO-10303-21;
HEADER;
FILE_DESCRIPTION(('Open CASCADE Model'),'2;1');
FILE_NAME('Open CASCADE Shape Model','2026-06-01T11:13:06',('Author'),(
    'Open CASCADE'),'Open CASCADE STEP processor 7.9','Open CASCADE 7.9'
  ,'Unknown');
FILE_SCHEMA(('AUTOMOTIVE_DESIGN { 1 0 10303 214 1 1 1 1 }'));
ENDSEC;
DATA;
#1 = APPLICATION_PROTOCOL_DEFINITION('international standard',
  'automotive_design',2000,#2);
#2 = APPLICATION_CONTEXT(
  'core data for automotive mechanical design processes');
#3 = SHAPE_DEFINITION_REPRESENTATION(#4,#10);
#4 = PRODUCT_DEFINITION_SHAPE('','',#5);
#5 = PRODUCT_DEFINITION('design','',#6,#9);
#6 = PRODUCT_DEFINITION_FORMATION('','',#7);
#7 = PRODUCT('Open CASCADE STEP translator 7.9 34',
  'Open CASCADE STEP translator 7.9 34','',(#8));
#8 = PRODUCT_CONTEXT('',#2,'mechanical');
#9 = PRODUCT_DEFINITION_CONTEXT('part definition',#2,'design');
#10 = MANIFOLD_SURFACE_SHAPE_REPRESENTATION('',(#11,#15),#121);
#11 = AXIS2_PLACEMENT_3D('',#12,#13,#14);
#12 = CARTESIAN_POINT('',(0.,0.,0.));
#13 = DIRECTION('',(0.,0.,1.));
#14 = DIRECTION('',(1.,0.,-0.));
#15 = SHELL_BASED_SURFACE_MODEL('',(#16));
#16 = OPEN_SHELL('',(#17));
#17 = ADVANCED_FACE('',(#18),#40,.T.);
#18 = FACE_BOUND('',#19,.T.);
#19 = EDGE_LOOP('',(#20,#59,#75,#107));
#20 = ORIENTED_EDGE('',*,*,#21,.T.);
#21 = EDGE_CURVE('',#22,#24,#26,.T.);
#22 = VERTEX_POINT('',#23);
#23 = CARTESIAN_POINT('',(0.,-0.114588578701,0.));
#24 = VERTEX_POINT('',#25);
#25 = CARTESIAN_POINT('',(150.,1.686870458743,0.));
#26 = SURFACE_CURVE('',#27,(#39),.PCURVE_S1.);
#27 = B_SPLINE_CURVE_WITH_KNOTS('',1,(#28,#29,#30,#31,#32,#33,#34,#35,
    #36,#37,#38),.UNSPECIFIED.,.F.,.F.,(2,1,1,1,1,1,1,1,1,1,2),(0.,
    2.726996088346E-02,0.107388836179,0.182515673384,0.431289917839,
    0.600469045133,0.652488820297,0.700728602023,0.733853454962,
    0.82551771917,1.),.UNSPECIFIED.);
#28 = CARTESIAN_POINT('',(0.,-0.114588578701,0.));
#29 = CARTESIAN_POINT('',(4.210349560637,0.60324756419,0.));
#30 = CARTESIAN_POINT('',(16.239033209575,4.177415237237,0.));
#31 = CARTESIAN_POINT('',(24.564121320883,-4.137970700963,0.));
#32 = CARTESIAN_POINT('',(62.757280925069,3.572975842829,0.));
#33 = CARTESIAN_POINT('',(89.248769523035,4.130288160256,0.));
#34 = CARTESIAN_POINT('',(97.184642144964,2.285400496456,0.));
#35 = CARTESIAN_POINT('',(104.5633236455,3.910226094735,0.));
#36 = CARTESIAN_POINT('',(108.38726070323,0.403939418294,0.));
#37 = CARTESIAN_POINT('',(122.73350658213,-0.144790211314,0.));
#38 = CARTESIAN_POINT('',(150.,1.686870458743,0.));
#39 = PCURVE('',#40,#45);
#40 = PLANE('',#41);
#41 = AXIS2_PLACEMENT_3D('',#42,#43,#44);
#42 = CARTESIAN_POINT('',(73.061232286891,7.5,0.));
#43 = DIRECTION('',(0.,0.,1.));
#44 = DIRECTION('',(1.,0.,-0.));
#45 = DEFINITIONAL_REPRESENTATION('',(#46),#58);
#46 = B_SPLINE_CURVE_WITH_KNOTS('',1,(#47,#48,#49,#50,#51,#52,#53,#54,
    #55,#56,#57),.UNSPECIFIED.,.F.,.F.,(2,1,1,1,1,1,1,1,1,1,2),(0.,
    2.726996088346E-02,0.107388836179,0.182515673384,0.431289917839,
    0.600469045133,0.652488820297,0.700728602023,0.733853454962,
    0.82551771917,1.),.UNSPECIFIED.);
#47 = CARTESIAN_POINT('',(-73.06123228689,-7.614588578701));
#48 = CARTESIAN_POINT('',(-68.85088272625,-6.89675243581));
#49 = CARTESIAN_POINT('',(-56.82219907731,-3.322584762763));
#50 = CARTESIAN_POINT('',(-48.497110966,-11.63797070096));
#51 = CARTESIAN_POINT('',(-10.30395136182,-3.927024157171));
#52 = CARTESIAN_POINT('',(16.187537236143,-3.369711839744));
#53 = CARTESIAN_POINT('',(24.123409858073,-5.214599503544));
#54 = CARTESIAN_POINT('',(31.502091358615,-3.589773905265));
#55 = CARTESIAN_POINT('',(35.326028416343,-7.096060581706));
#56 = CARTESIAN_POINT('',(49.672274295243,-7.644790211314));
#57 = CARTESIAN_POINT('',(76.938767713109,-5.813129541257));
#58 = ( GEOMETRIC_REPRESENTATION_CONTEXT(2) 
PARAMETRIC_REPRESENTATION_CONTEXT() REPRESENTATION_CONTEXT('2D SPACE',''
  ) );
#59 = ORIENTED_EDGE('',*,*,#60,.T.);
#60 = EDGE_CURVE('',#24,#61,#63,.T.);
#61 = VERTEX_POINT('',#62);
#62 = CARTESIAN_POINT('',(150.,13.313129541257,0.));
#63 = SURFACE_CURVE('',#64,(#68),.PCURVE_S1.);
#64 = LINE('',#65,#66);
#65 = CARTESIAN_POINT('',(150.,1.686870458743,0.));
#66 = VECTOR('',#67,1.);
#67 = DIRECTION('',(0.,1.,0.));
#68 = PCURVE('',#40,#69);
#69 = DEFINITIONAL_REPRESENTATION('',(#70),#74);
#70 = LINE('',#71,#72);
#71 = CARTESIAN_POINT('',(76.938767713109,-5.813129541257));
#72 = VECTOR('',#73,1.);
#73 = DIRECTION('',(0.,1.));
#74 = ( GEOMETRIC_REPRESENTATION_CONTEXT(2) 
PARAMETRIC_REPRESENTATION_CONTEXT() REPRESENTATION_CONTEXT('2D SPACE',''
  ) );
#75 = ORIENTED_EDGE('',*,*,#76,.T.);
#76 = EDGE_CURVE('',#61,#77,#79,.T.);
#77 = VERTEX_POINT('',#78);
#78 = CARTESIAN_POINT('',(0.,15.114588578701,0.));
#79 = SURFACE_CURVE('',#80,(#92),.PCURVE_S1.);
#80 = B_SPLINE_CURVE_WITH_KNOTS('',1,(#81,#82,#83,#84,#85,#86,#87,#88,
    #89,#90,#91),.UNSPECIFIED.,.F.,.F.,(2,1,1,1,1,1,1,1,1,1,2),(0.,
    0.17448228083,0.266146545038,0.299271397977,0.347511179703,
    0.399530954867,0.568710082161,0.817484326616,0.892611163821,
    0.972730039117,1.),.UNSPECIFIED.);
#81 = CARTESIAN_POINT('',(150.,13.313129541257,0.));
#82 = CARTESIAN_POINT('',(122.73350658213,15.144790211314,0.));
#83 = CARTESIAN_POINT('',(108.38726070323,14.596060581706,0.));
#84 = CARTESIAN_POINT('',(104.5633236455,11.089773905265,0.));
#85 = CARTESIAN_POINT('',(97.184642144964,12.714599503544,0.));
#86 = CARTESIAN_POINT('',(89.248769523035,10.869711839744,0.));
#87 = CARTESIAN_POINT('',(62.757280925069,11.427024157171,0.));
#88 = CARTESIAN_POINT('',(24.564121320883,19.137970700963,0.));
#89 = CARTESIAN_POINT('',(16.239033209575,10.822584762763,0.));
#90 = CARTESIAN_POINT('',(4.210349560637,14.39675243581,0.));
#91 = CARTESIAN_POINT('',(0.,15.114588578701,0.));
#92 = PCURVE('',#40,#93);
#93 = DEFINITIONAL_REPRESENTATION('',(#94),#106);
#94 = B_SPLINE_CURVE_WITH_KNOTS('',1,(#95,#96,#97,#98,#99,#100,#101,#102
    ,#103,#104,#105),.UNSPECIFIED.,.F.,.F.,(2,1,1,1,1,1,1,1,1,1,2),(0.,
    0.17448228083,0.266146545038,0.299271397977,0.347511179703,
    0.399530954867,0.568710082161,0.817484326616,0.892611163821,
    0.972730039117,1.),.UNSPECIFIED.);
#95 = CARTESIAN_POINT('',(76.938767713109,5.813129541257));
#96 = CARTESIAN_POINT('',(49.672274295243,7.644790211314));
#97 = CARTESIAN_POINT('',(35.326028416343,7.096060581706));
#98 = CARTESIAN_POINT('',(31.502091358615,3.589773905265));
#99 = CARTESIAN_POINT('',(24.123409858073,5.214599503544));
#100 = CARTESIAN_POINT('',(16.187537236143,3.369711839744));
#101 = CARTESIAN_POINT('',(-10.30395136182,3.927024157171));
#102 = CARTESIAN_POINT('',(-48.497110966,11.637970700963));
#103 = CARTESIAN_POINT('',(-56.82219907731,3.322584762763));
#104 = CARTESIAN_POINT('',(-68.85088272625,6.89675243581));
#105 = CARTESIAN_POINT('',(-73.06123228689,7.614588578701));
#106 = ( GEOMETRIC_REPRESENTATION_CONTEXT(2) 
PARAMETRIC_REPRESENTATION_CONTEXT() REPRESENTATION_CONTEXT('2D SPACE',''
  ) );
#107 = ORIENTED_EDGE('',*,*,#108,.T.);
#108 = EDGE_CURVE('',#77,#22,#109,.T.);
#109 = SURFACE_CURVE('',#110,(#114),.PCURVE_S1.);
#110 = LINE('',#111,#112);
#111 = CARTESIAN_POINT('',(0.,15.114588578701,0.));
#112 = VECTOR('',#113,1.);
#113 = DIRECTION('',(0.,-1.,0.));
#114 = PCURVE('',#40,#115);
#115 = DEFINITIONAL_REPRESENTATION('',(#116),#120);
#116 = LINE('',#117,#118);
#117 = CARTESIAN_POINT('',(-73.06123228689,7.614588578701));
#118 = VECTOR('',#119,1.);
#119 = DIRECTION('',(0.,-1.));
#120 = ( GEOMETRIC_REPRESENTATION_CONTEXT(2) 
PARAMETRIC_REPRESENTATION_CONTEXT() REPRESENTATION_CONTEXT('2D SPACE',''
  ) );
#121 = ( GEOMETRIC_REPRESENTATION_CONTEXT(3) 
GLOBAL_UNCERTAINTY_ASSIGNED_CONTEXT((#125)) GLOBAL_UNIT_ASSIGNED_CONTEXT
((#122,#123,#124)) REPRESENTATION_CONTEXT('Context #1',
  '3D Context with UNIT and UNCERTAINTY') );
#122 = ( LENGTH_UNIT() NAMED_UNIT(*) SI_UNIT(.MILLI.,.METRE.) );
#123 = ( NAMED_UNIT(*) PLANE_ANGLE_UNIT() SI_UNIT($,.RADIAN.) );
#124 = ( NAMED_UNIT(*) SI_UNIT($,.STERADIAN.) SOLID_ANGLE_UNIT() );
#125 = UNCERTAINTY_MEASURE_WITH_UNIT(LENGTH_MEASURE(1.E-07),#122,
  'distance_accuracy_value','confusion accuracy');
#126 = PRODUCT_RELATED_PRODUCT_CATEGORY('part',$,(#7));
ENDSEC;
END-ISO-10303-21;
