ISO-10303-21;
HEADER;
FILE_DESCRIPTION(('Open CASCADE Model'),'2;1');
FILE_NAME('Open CASCADE Shape Model','2026-06-01T11:13:06',('Author'),(
    'Open CASCADE'),'Open CASCADE STEP processor 7.9','Open CASCADE 7.9'
  ,'Unknown');
FILE_SCHEMA(('AUTOMOTIVE_DESIGN { 1 0 10303 214 1 1 1 1 }'));
ENDSEC;
DATA;
#1 = APPLICATION_PROTOCOL_DEFINITION('international standard',
  'automotive_design',2000,#2);
#2 = APPLICATION_CONTEXT(
  'core data for automotive mechanical design processes');
#3 = SHAPE_DEFINITION_REPRESENTATION(#4,#10);
#4 = PRODUCT_DEFINITION_SHAPE('','',#5);
#5 = PRODUCT_DEFINITION('design','',#6,#9);
#6 = PRODUCT_DEFINITION_FORMATION('','',#7);
#7 = PRODUCT('Open CASCADE STEP translator 7.9 89',
  'Open CASCADE STEP translator 7.9 89','',(#8));
#8 = PRODUCT_CONTEXT('',#2,'mechanical');
#9 = PRODUCT_DEFINITION_CONTEXT('part definition',#2,'design');
#10 = MANIFOLD_SURFACE_SHAPE_REPRESENTATION('',(#11,#15),#121);
#11 = AXIS2_PLACEMENT_3D('',#12,#13,#14);
#12 = CARTESIAN_POINT('',(0.,0.,0.));
#13 = DIRECTION('',(0.,0.,1.));
#14 = DIRECTION('',(1.,0.,-0.));
#15 = SHELL_BASED_SURFACE_MODEL('',(#16));
#16 = OPEN_SHELL('',(#17));
#17 = ADVANCED_FACE('',(#18),#40,.T.);
#18 = FACE_BOUND('',#19,.T.);
#19 = EDGE_LOOP('',(#20,#59,#75,#107));
#20 = ORIENTED_EDGE('',*,*,#21,.T.);
#21 = EDGE_CURVE('',#22,#24,#26,.T.);
#22 = VERTEX_POINT('',#23);
#23 = CARTESIAN_POINT('',(0.,0.483458952776,0.));
#24 = VERTEX_POINT('',#25);
#25 = CARTESIAN_POINT('',(150.,4.005585097221,0.));
#26 = SURFACE_CURVE('',#27,(#39),.PCURVE_S1.);
#27 = B_SPLINE_CURVE_WITH_KNOTS('',1,(#28,#29,#30,#31,#32,#33,#34,#35,
    #36,#37,#38),.UNSPECIFIED.,.F.,.F.,(2,1,1,1,1,1,1,1,1,1,2),(0.,
    9.26976033586E-02,0.191755592879,0.309251981439,0.370649874923,
    0.493936384137,0.544201069286,0.623833625997,0.689681176965,
    0.721567545896,1.),.UNSPECIFIED.);
#28 = CARTESIAN_POINT('',(0.,0.483458952776,0.));
#29 = CARTESIAN_POINT('',(14.171508445061,2.449189921024,0.));
#30 = CARTESIAN_POINT('',(28.692872077401,-2.334069900201,0.));
#31 = CARTESIAN_POINT('',(46.733144488712,-0.485830132352,0.));
#32 = CARTESIAN_POINT('',(54.906539707907,4.30959589719,0.));
#33 = CARTESIAN_POINT('',(73.748509089342,1.65274688397,0.));
#34 = CARTESIAN_POINT('',(81.404434572355,2.906987299908,0.));
#35 = CARTESIAN_POINT('',(92.914713600946,-1.402855748846,0.));
#36 = CARTESIAN_POINT('',(102.48236772722,2.024720634328,0.));
#37 = CARTESIAN_POINT('',(107.02609618576,3.915478987111,0.));
#38 = CARTESIAN_POINT('',(150.,4.005585097221,0.));
#39 = PCURVE('',#40,#45);
#40 = PLANE('',#41);
#41 = AXIS2_PLACEMENT_3D('',#42,#43,#44);
#42 = CARTESIAN_POINT('',(73.077130278143,7.5,0.));
#43 = DIRECTION('',(0.,0.,1.));
#44 = DIRECTION('',(1.,0.,-0.));
#45 = DEFINITIONAL_REPRESENTATION('',(#46),#58);
#46 = B_SPLINE_CURVE_WITH_KNOTS('',1,(#47,#48,#49,#50,#51,#52,#53,#54,
    #55,#56,#57),.UNSPECIFIED.,.F.,.F.,(2,1,1,1,1,1,1,1,1,1,2),(0.,
    9.26976033586E-02,0.191755592879,0.309251981439,0.370649874923,
    0.493936384137,0.544201069286,0.623833625997,0.689681176965,
    0.721567545896,1.),.UNSPECIFIED.);
#47 = CARTESIAN_POINT('',(-73.07713027814,-7.016541047224));
#48 = CARTESIAN_POINT('',(-58.90562183308,-5.050810078976));
#49 = CARTESIAN_POINT('',(-44.38425820074,-9.834069900201));
#50 = CARTESIAN_POINT('',(-26.34398578943,-7.985830132352));
#51 = CARTESIAN_POINT('',(-18.17059057023,-3.19040410281));
#52 = CARTESIAN_POINT('',(0.671378811199,-5.84725311603));
#53 = CARTESIAN_POINT('',(8.327304294213,-4.593012700092));
#54 = CARTESIAN_POINT('',(19.837583322803,-8.902855748846));
#55 = CARTESIAN_POINT('',(29.405237449079,-5.475279365672));
#56 = CARTESIAN_POINT('',(33.948965907617,-3.584521012889));
#57 = CARTESIAN_POINT('',(76.922869721857,-3.494414902779));
#58 = ( GEOMETRIC_REPRESENTATION_CONTEXT(2) 
PARAMETRIC_REPRESENTATION_CONTEXT() REPRESENTATION_CONTEXT('2D SPACE',''
  ) );
#59 = ORIENTED_EDGE('',*,*,#60,.T.);
#60 = EDGE_CURVE('',#24,#61,#63,.T.);
#61 = VERTEX_POINT('',#62);
#62 = CARTESIAN_POINT('',(150.,10.994414902779,0.));
#63 = SURFACE_CURVE('',#64,(#68),.PCURVE_S1.);
#64 = LINE('',#65,#66);
#65 = CARTESIAN_POINT('',(150.,4.005585097221,0.));
#66 = VECTOR('',#67,1.);
#67 = DIRECTION('',(0.,1.,0.));
#68 = PCURVE('',#40,#69);
#69 = DEFINITIONAL_REPRESENTATION('',(#70),#74);
#70 = LINE('',#71,#72);
#71 = CARTESIAN_POINT('',(76.922869721857,-3.494414902779));
#72 = VECTOR('',#73,1.);
#73 = DIRECTION('',(0.,1.));
#74 = ( GEOMETRIC_REPRESENTATION_CONTEXT(2) 
PARAMETRIC_REPRESENTATION_CONTEXT() REPRESENTATION_CONTEXT('2D SPACE',''
  ) );
#75 = ORIENTED_EDGE('',*,*,#76,.T.);
#76 = EDGE_CURVE('',#61,#77,#79,.T.);
#77 = VERTEX_POINT('',#78);
#78 = CARTESIAN_POINT('',(0.,14.516541047224,0.));
#79 = SURFACE_CURVE('',#80,(#92),.PCURVE_S1.);
#80 = B_SPLINE_CURVE_WITH_KNOTS('',1,(#81,#82,#83,#84,#85,#86,#87,#88,
    #89,#90,#91),.UNSPECIFIED.,.F.,.F.,(2,1,1,1,1,1,1,1,1,1,2),(0.,
    0.278432454104,0.310318823035,0.376166374003,0.455798930714,
    0.506063615863,0.629350125077,0.690748018561,0.808244407121,
    0.907302396641,1.),.UNSPECIFIED.);
#81 = CARTESIAN_POINT('',(150.,10.994414902779,0.));
#82 = CARTESIAN_POINT('',(107.02609618576,11.084521012889,0.));
#83 = CARTESIAN_POINT('',(102.48236772722,12.975279365672,0.));
#84 = CARTESIAN_POINT('',(92.914713600946,16.402855748846,0.));
#85 = CARTESIAN_POINT('',(81.404434572355,12.093012700092,0.));
#86 = CARTESIAN_POINT('',(73.748509089342,13.34725311603,0.));
#87 = CARTESIAN_POINT('',(54.906539707907,10.69040410281,0.));
#88 = CARTESIAN_POINT('',(46.733144488712,15.485830132352,0.));
#89 = CARTESIAN_POINT('',(28.692872077401,17.334069900201,0.));
#90 = CARTESIAN_POINT('',(14.171508445061,12.550810078976,0.));
#91 = CARTESIAN_POINT('',(0.,14.516541047224,0.));
#92 = PCURVE('',#40,#93);
#93 = DEFINITIONAL_REPRESENTATION('',(#94),#106);
#94 = B_SPLINE_CURVE_WITH_KNOTS('',1,(#95,#96,#97,#98,#99,#100,#101,#102
    ,#103,#104,#105),.UNSPECIFIED.,.F.,.F.,(2,1,1,1,1,1,1,1,1,1,2),(0.,
    0.278432454104,0.310318823035,0.376166374003,0.455798930714,
    0.506063615863,0.629350125077,0.690748018561,0.808244407121,
    0.907302396641,1.),.UNSPECIFIED.);
#95 = CARTESIAN_POINT('',(76.922869721857,3.494414902779));
#96 = CARTESIAN_POINT('',(33.948965907617,3.584521012889));
#97 = CARTESIAN_POINT('',(29.405237449079,5.475279365672));
#98 = CARTESIAN_POINT('',(19.837583322803,8.902855748846));
#99 = CARTESIAN_POINT('',(8.327304294213,4.593012700092));
#100 = CARTESIAN_POINT('',(0.671378811199,5.84725311603));
#101 = CARTESIAN_POINT('',(-18.17059057023,3.19040410281));
#102 = CARTESIAN_POINT('',(-26.34398578943,7.985830132352));
#103 = CARTESIAN_POINT('',(-44.38425820074,9.834069900201));
#104 = CARTESIAN_POINT('',(-58.90562183308,5.050810078976));
#105 = CARTESIAN_POINT('',(-73.07713027814,7.016541047224));
#106 = ( GEOMETRIC_REPRESENTATION_CONTEXT(2) 
PARAMETRIC_REPRESENTATION_CONTEXT() REPRESENTATION_CONTEXT('2D SPACE',''
  ) );
#107 = ORIENTED_EDGE('',*,*,#108,.T.);
#108 = EDGE_CURVE('',#77,#22,#109,.T.);
#109 = SURFACE_CURVE('',#110,(#114),.PCURVE_S1.);
#110 = LINE('',#111,#112);
#111 = CARTESIAN_POINT('',(0.,14.516541047224,0.));
#112 = VECTOR('',#113,1.);
#113 = DIRECTION('',(0.,-1.,0.));
#114 = PCURVE('',#40,#115);
#115 = DEFINITIONAL_REPRESENTATION('',(#116),#120);
#116 = LINE('',#117,#118);
#117 = CARTESIAN_POINT('',(-73.07713027814,7.016541047224));
#118 = VECTOR('',#119,1.);
#119 = DIRECTION('',(0.,-1.));
#120 = ( GEOMETRIC_REPRESENTATION_CONTEXT(2) 
PARAMETRIC_REPRESENTATION_CONTEXT() REPRESENTATION_CONTEXT('2D SPACE',''
  ) );
#121 = ( GEOMETRIC_REPRESENTATION_CONTEXT(3) 
GLOBAL_UNCERTAINTY_ASSIGNED_CONTEXT((#125)) GLOBAL_UNIT_ASSIGNED_CONTEXT
((#122,#123,#124)) REPRESENTATION_CONTEXT('Context #1',
  '3D Context with UNIT and UNCERTAINTY') );
#122 = ( LENGTH_UNIT() NAMED_UNIT(*) SI_UNIT(.MILLI.,.METRE.) );
#123 = ( NAMED_UNIT(*) PLANE_ANGLE_UNIT() SI_UNIT($,.RADIAN.) );
#124 = ( NAMED_UNIT(*) SI_UNIT($,.STERADIAN.) SOLID_ANGLE_UNIT() );
#125 = UNCERTAINTY_MEASURE_WITH_UNIT(LENGTH_MEASURE(1.E-07),#122,
  'distance_accuracy_value','confusion accuracy');
#126 = PRODUCT_RELATED_PRODUCT_CATEGORY('part',$,(#7));
ENDSEC;
END-ISO-10303-21;
