ISO-10303-21;
HEADER;
FILE_DESCRIPTION(('Open CASCADE Model'),'2;1');
FILE_NAME('Open CASCADE Shape Model','2026-06-01T11:13:05',('Author'),(
    'Open CASCADE'),'Open CASCADE STEP processor 7.9','Open CASCADE 7.9'
  ,'Unknown');
FILE_SCHEMA(('AUTOMOTIVE_DESIGN { 1 0 10303 214 1 1 1 1 }'));
ENDSEC;
DATA;
#1 = APPLICATION_PROTOCOL_DEFINITION('international standard',
  'automotive_design',2000,#2);
#2 = APPLICATION_CONTEXT(
  'core data for automotive mechanical design processes');
#3 = SHAPE_DEFINITION_REPRESENTATION(#4,#10);
#4 = PRODUCT_DEFINITION_SHAPE('','',#5);
#5 = PRODUCT_DEFINITION('design','',#6,#9);
#6 = PRODUCT_DEFINITION_FORMATION('','',#7);
#7 = PRODUCT('Open CASCADE STEP translator 7.9 16',
  'Open CASCADE STEP translator 7.9 16','',(#8));
#8 = PRODUCT_CONTEXT('',#2,'mechanical');
#9 = PRODUCT_DEFINITION_CONTEXT('part definition',#2,'design');
#10 = MANIFOLD_SURFACE_SHAPE_REPRESENTATION('',(#11,#15),#121);
#11 = AXIS2_PLACEMENT_3D('',#12,#13,#14);
#12 = CARTESIAN_POINT('',(0.,0.,0.));
#13 = DIRECTION('',(0.,0.,1.));
#14 = DIRECTION('',(1.,0.,-0.));
#15 = SHELL_BASED_SURFACE_MODEL('',(#16));
#16 = OPEN_SHELL('',(#17));
#17 = ADVANCED_FACE('',(#18),#40,.T.);
#18 = FACE_BOUND('',#19,.T.);
#19 = EDGE_LOOP('',(#20,#59,#75,#107));
#20 = ORIENTED_EDGE('',*,*,#21,.T.);
#21 = EDGE_CURVE('',#22,#24,#26,.T.);
#22 = VERTEX_POINT('',#23);
#23 = CARTESIAN_POINT('',(0.,-0.294500484592,0.));
#24 = VERTEX_POINT('',#25);
#25 = CARTESIAN_POINT('',(150.,-2.031440654443,0.));
#26 = SURFACE_CURVE('',#27,(#39),.PCURVE_S1.);
#27 = B_SPLINE_CURVE_WITH_KNOTS('',1,(#28,#29,#30,#31,#32,#33,#34,#35,
    #36,#37,#38),.UNSPECIFIED.,.F.,.F.,(2,1,1,1,1,1,1,1,1,1,2),(0.,
    6.19979426578E-02,0.113315132658,0.218485805459,0.275321181564,
    0.366961775348,0.432244213216,0.506773325982,0.731796054125,
    0.905900186034,1.),.UNSPECIFIED.);
#28 = CARTESIAN_POINT('',(0.,-0.294500484592,0.));
#29 = CARTESIAN_POINT('',(9.702437729834,-1.196258663409,0.));
#30 = CARTESIAN_POINT('',(17.147262340418,1.906599472358,0.));
#31 = CARTESIAN_POINT('',(33.180560528048,-2.114038460793,0.));
#32 = CARTESIAN_POINT('',(40.719043619534,2.678358661869,0.));
#33 = CARTESIAN_POINT('',(54.423560185764,-1.753183159366,0.));
#34 = CARTESIAN_POINT('',(64.574792562885,-3.246471614933,0.));
#35 = CARTESIAN_POINT('',(74.281044781274,3.311074464286,0.));
#36 = CARTESIAN_POINT('',(109.38063967038,-1.029417664877,0.));
#37 = CARTESIAN_POINT('',(136.3426317843,3.644138265931,0.));
#38 = CARTESIAN_POINT('',(150.,-2.031440654443,0.));
#39 = PCURVE('',#40,#45);
#40 = PLANE('',#41);
#41 = AXIS2_PLACEMENT_3D('',#42,#43,#44);
#42 = CARTESIAN_POINT('',(75.459680933827,7.5,0.));
#43 = DIRECTION('',(0.,0.,1.));
#44 = DIRECTION('',(1.,0.,-0.));
#45 = DEFINITIONAL_REPRESENTATION('',(#46),#58);
#46 = B_SPLINE_CURVE_WITH_KNOTS('',1,(#47,#48,#49,#50,#51,#52,#53,#54,
    #55,#56,#57),.UNSPECIFIED.,.F.,.F.,(2,1,1,1,1,1,1,1,1,1,2),(0.,
    6.19979426578E-02,0.113315132658,0.218485805459,0.275321181564,
    0.366961775348,0.432244213216,0.506773325982,0.731796054125,
    0.905900186034,1.),.UNSPECIFIED.);
#47 = CARTESIAN_POINT('',(-75.45968093382,-7.794500484592));
#48 = CARTESIAN_POINT('',(-65.75724320399,-8.696258663409));
#49 = CARTESIAN_POINT('',(-58.3124185934,-5.593400527642));
#50 = CARTESIAN_POINT('',(-42.27912040577,-9.614038460793));
#51 = CARTESIAN_POINT('',(-34.74063731429,-4.821641338131));
#52 = CARTESIAN_POINT('',(-21.03612074806,-9.253183159366));
#53 = CARTESIAN_POINT('',(-10.88488837094,-10.74647161493));
#54 = CARTESIAN_POINT('',(-1.178636152553,-4.188925535714));
#55 = CARTESIAN_POINT('',(33.920958736557,-8.529417664877));
#56 = CARTESIAN_POINT('',(60.882950850479,-3.855861734069));
#57 = CARTESIAN_POINT('',(74.540319066173,-9.531440654443));
#58 = ( GEOMETRIC_REPRESENTATION_CONTEXT(2) 
PARAMETRIC_REPRESENTATION_CONTEXT() REPRESENTATION_CONTEXT('2D SPACE',''
  ) );
#59 = ORIENTED_EDGE('',*,*,#60,.T.);
#60 = EDGE_CURVE('',#24,#61,#63,.T.);
#61 = VERTEX_POINT('',#62);
#62 = CARTESIAN_POINT('',(150.,17.031440654443,0.));
#63 = SURFACE_CURVE('',#64,(#68),.PCURVE_S1.);
#64 = LINE('',#65,#66);
#65 = CARTESIAN_POINT('',(150.,-2.031440654443,0.));
#66 = VECTOR('',#67,1.);
#67 = DIRECTION('',(0.,1.,0.));
#68 = PCURVE('',#40,#69);
#69 = DEFINITIONAL_REPRESENTATION('',(#70),#74);
#70 = LINE('',#71,#72);
#71 = CARTESIAN_POINT('',(74.540319066173,-9.531440654443));
#72 = VECTOR('',#73,1.);
#73 = DIRECTION('',(0.,1.));
#74 = ( GEOMETRIC_REPRESENTATION_CONTEXT(2) 
PARAMETRIC_REPRESENTATION_CONTEXT() REPRESENTATION_CONTEXT('2D SPACE',''
  ) );
#75 = ORIENTED_EDGE('',*,*,#76,.T.);
#76 = EDGE_CURVE('',#61,#77,#79,.T.);
#77 = VERTEX_POINT('',#78);
#78 = CARTESIAN_POINT('',(0.,15.294500484592,0.));
#79 = SURFACE_CURVE('',#80,(#92),.PCURVE_S1.);
#80 = B_SPLINE_CURVE_WITH_KNOTS('',1,(#81,#82,#83,#84,#85,#86,#87,#88,
    #89,#90,#91),.UNSPECIFIED.,.F.,.F.,(2,1,1,1,1,1,1,1,1,1,2),(0.,
    9.409981396566E-02,0.268203945875,0.493226674018,0.567755786784,
    0.633038224652,0.724678818436,0.781514194541,0.886684867342,
    0.938002057342,1.),.UNSPECIFIED.);
#81 = CARTESIAN_POINT('',(150.,17.031440654443,0.));
#82 = CARTESIAN_POINT('',(136.3426317843,11.355861734069,0.));
#83 = CARTESIAN_POINT('',(109.38063967038,16.029417664877,0.));
#84 = CARTESIAN_POINT('',(74.281044781274,11.688925535714,0.));
#85 = CARTESIAN_POINT('',(64.574792562885,18.246471614933,0.));
#86 = CARTESIAN_POINT('',(54.423560185764,16.753183159366,0.));
#87 = CARTESIAN_POINT('',(40.719043619534,12.321641338131,0.));
#88 = CARTESIAN_POINT('',(33.180560528048,17.114038460793,0.));
#89 = CARTESIAN_POINT('',(17.147262340418,13.093400527642,0.));
#90 = CARTESIAN_POINT('',(9.702437729834,16.196258663409,0.));
#91 = CARTESIAN_POINT('',(0.,15.294500484592,0.));
#92 = PCURVE('',#40,#93);
#93 = DEFINITIONAL_REPRESENTATION('',(#94),#106);
#94 = B_SPLINE_CURVE_WITH_KNOTS('',1,(#95,#96,#97,#98,#99,#100,#101,#102
    ,#103,#104,#105),.UNSPECIFIED.,.F.,.F.,(2,1,1,1,1,1,1,1,1,1,2),(0.,
    9.409981396566E-02,0.268203945875,0.493226674018,0.567755786784,
    0.633038224652,0.724678818436,0.781514194541,0.886684867342,
    0.938002057342,1.),.UNSPECIFIED.);
#95 = CARTESIAN_POINT('',(74.540319066173,9.531440654443));
#96 = CARTESIAN_POINT('',(60.882950850479,3.855861734069));
#97 = CARTESIAN_POINT('',(33.920958736557,8.529417664877));
#98 = CARTESIAN_POINT('',(-1.178636152553,4.188925535714));
#99 = CARTESIAN_POINT('',(-10.88488837094,10.746471614933));
#100 = CARTESIAN_POINT('',(-21.03612074806,9.253183159366));
#101 = CARTESIAN_POINT('',(-34.74063731429,4.821641338131));
#102 = CARTESIAN_POINT('',(-42.27912040577,9.614038460793));
#103 = CARTESIAN_POINT('',(-58.3124185934,5.593400527642));
#104 = CARTESIAN_POINT('',(-65.75724320399,8.696258663409));
#105 = CARTESIAN_POINT('',(-75.45968093382,7.794500484592));
#106 = ( GEOMETRIC_REPRESENTATION_CONTEXT(2) 
PARAMETRIC_REPRESENTATION_CONTEXT() REPRESENTATION_CONTEXT('2D SPACE',''
  ) );
#107 = ORIENTED_EDGE('',*,*,#108,.T.);
#108 = EDGE_CURVE('',#77,#22,#109,.T.);
#109 = SURFACE_CURVE('',#110,(#114),.PCURVE_S1.);
#110 = LINE('',#111,#112);
#111 = CARTESIAN_POINT('',(0.,15.294500484592,0.));
#112 = VECTOR('',#113,1.);
#113 = DIRECTION('',(0.,-1.,0.));
#114 = PCURVE('',#40,#115);
#115 = DEFINITIONAL_REPRESENTATION('',(#116),#120);
#116 = LINE('',#117,#118);
#117 = CARTESIAN_POINT('',(-75.45968093382,7.794500484592));
#118 = VECTOR('',#119,1.);
#119 = DIRECTION('',(0.,-1.));
#120 = ( GEOMETRIC_REPRESENTATION_CONTEXT(2) 
PARAMETRIC_REPRESENTATION_CONTEXT() REPRESENTATION_CONTEXT('2D SPACE',''
  ) );
#121 = ( GEOMETRIC_REPRESENTATION_CONTEXT(3) 
GLOBAL_UNCERTAINTY_ASSIGNED_CONTEXT((#125)) GLOBAL_UNIT_ASSIGNED_CONTEXT
((#122,#123,#124)) REPRESENTATION_CONTEXT('Context #1',
  '3D Context with UNIT and UNCERTAINTY') );
#122 = ( LENGTH_UNIT() NAMED_UNIT(*) SI_UNIT(.MILLI.,.METRE.) );
#123 = ( NAMED_UNIT(*) PLANE_ANGLE_UNIT() SI_UNIT($,.RADIAN.) );
#124 = ( NAMED_UNIT(*) SI_UNIT($,.STERADIAN.) SOLID_ANGLE_UNIT() );
#125 = UNCERTAINTY_MEASURE_WITH_UNIT(LENGTH_MEASURE(1.E-07),#122,
  'distance_accuracy_value','confusion accuracy');
#126 = PRODUCT_RELATED_PRODUCT_CATEGORY('part',$,(#7));
ENDSEC;
END-ISO-10303-21;
