ISO-10303-21;
HEADER;
FILE_DESCRIPTION(('Open CASCADE Model'),'2;1');
FILE_NAME('Open CASCADE Shape Model','2026-06-01T11:13:05',('Author'),(
    'Open CASCADE'),'Open CASCADE STEP processor 7.9','Open CASCADE 7.9'
  ,'Unknown');
FILE_SCHEMA(('AUTOMOTIVE_DESIGN { 1 0 10303 214 1 1 1 1 }'));
ENDSEC;
DATA;
#1 = APPLICATION_PROTOCOL_DEFINITION('international standard',
  'automotive_design',2000,#2);
#2 = APPLICATION_CONTEXT(
  'core data for automotive mechanical design processes');
#3 = SHAPE_DEFINITION_REPRESENTATION(#4,#10);
#4 = PRODUCT_DEFINITION_SHAPE('','',#5);
#5 = PRODUCT_DEFINITION('design','',#6,#9);
#6 = PRODUCT_DEFINITION_FORMATION('','',#7);
#7 = PRODUCT('Open CASCADE STEP translator 7.9 10',
  'Open CASCADE STEP translator 7.9 10','',(#8));
#8 = PRODUCT_CONTEXT('',#2,'mechanical');
#9 = PRODUCT_DEFINITION_CONTEXT('part definition',#2,'design');
#10 = MANIFOLD_SURFACE_SHAPE_REPRESENTATION('',(#11,#15),#121);
#11 = AXIS2_PLACEMENT_3D('',#12,#13,#14);
#12 = CARTESIAN_POINT('',(0.,0.,0.));
#13 = DIRECTION('',(0.,0.,1.));
#14 = DIRECTION('',(1.,0.,-0.));
#15 = SHELL_BASED_SURFACE_MODEL('',(#16));
#16 = OPEN_SHELL('',(#17));
#17 = ADVANCED_FACE('',(#18),#40,.T.);
#18 = FACE_BOUND('',#19,.T.);
#19 = EDGE_LOOP('',(#20,#59,#75,#107));
#20 = ORIENTED_EDGE('',*,*,#21,.T.);
#21 = EDGE_CURVE('',#22,#24,#26,.T.);
#22 = VERTEX_POINT('',#23);
#23 = CARTESIAN_POINT('',(0.,-4.246437834549,0.));
#24 = VERTEX_POINT('',#25);
#25 = CARTESIAN_POINT('',(150.,-0.730049482988,0.));
#26 = SURFACE_CURVE('',#27,(#39),.PCURVE_S1.);
#27 = B_SPLINE_CURVE_WITH_KNOTS('',1,(#28,#29,#30,#31,#32,#33,#34,#35,
    #36,#37,#38),.UNSPECIFIED.,.F.,.F.,(2,1,1,1,1,1,1,1,1,1,2),(0.,
    0.12693126623,0.166353162246,0.290977866163,0.368708814026,
    0.400193348789,0.456831151847,0.825399408198,0.889220583476,
    0.935791539817,1.),.UNSPECIFIED.);
#28 = CARTESIAN_POINT('',(0.,-4.246437834549,0.));
#29 = CARTESIAN_POINT('',(19.117286718392,-6.670675821081E-03,0.));
#30 = CARTESIAN_POINT('',(24.281789704419,3.204922477039,0.));
#31 = CARTESIAN_POINT('',(43.472126808995,4.374573410626,0.));
#32 = CARTESIAN_POINT('',(55.30553093045,2.43309573001,0.));
#33 = CARTESIAN_POINT('',(60.082198671103,3.313600039921,0.));
#34 = CARTESIAN_POINT('',(67.307984413504,-1.598928062516,0.));
#35 = CARTESIAN_POINT('',(123.94681094585,3.403507458343,0.));
#36 = CARTESIAN_POINT('',(133.16438839406,-5.69693845857E-02,0.));
#37 = CARTESIAN_POINT('',(140.14699307665,-1.748361920786,0.));
#38 = CARTESIAN_POINT('',(150.,-0.730049482988,0.));
#39 = PCURVE('',#40,#45);
#40 = PLANE('',#41);
#41 = AXIS2_PLACEMENT_3D('',#42,#43,#44);
#42 = CARTESIAN_POINT('',(73.205466048907,7.5,0.));
#43 = DIRECTION('',(0.,0.,1.));
#44 = DIRECTION('',(1.,0.,-0.));
#45 = DEFINITIONAL_REPRESENTATION('',(#46),#58);
#46 = B_SPLINE_CURVE_WITH_KNOTS('',1,(#47,#48,#49,#50,#51,#52,#53,#54,
    #55,#56,#57),.UNSPECIFIED.,.F.,.F.,(2,1,1,1,1,1,1,1,1,1,2),(0.,
    0.12693126623,0.166353162246,0.290977866163,0.368708814026,
    0.400193348789,0.456831151847,0.825399408198,0.889220583476,
    0.935791539817,1.),.UNSPECIFIED.);
#47 = CARTESIAN_POINT('',(-73.2054660489,-11.74643783454));
#48 = CARTESIAN_POINT('',(-54.08817933051,-7.506670675821));
#49 = CARTESIAN_POINT('',(-48.92367634448,-4.295077522961));
#50 = CARTESIAN_POINT('',(-29.73333923991,-3.125426589374));
#51 = CARTESIAN_POINT('',(-17.89993511845,-5.06690426999));
#52 = CARTESIAN_POINT('',(-13.1232673778,-4.186399960079));
#53 = CARTESIAN_POINT('',(-5.897481635403,-9.098928062516));
#54 = CARTESIAN_POINT('',(50.741344896944,-4.096492541657));
#55 = CARTESIAN_POINT('',(59.958922345156,-7.556969384586));
#56 = CARTESIAN_POINT('',(66.941527027746,-9.248361920786));
#57 = CARTESIAN_POINT('',(76.794533951093,-8.230049482988));
#58 = ( GEOMETRIC_REPRESENTATION_CONTEXT(2) 
PARAMETRIC_REPRESENTATION_CONTEXT() REPRESENTATION_CONTEXT('2D SPACE',''
  ) );
#59 = ORIENTED_EDGE('',*,*,#60,.T.);
#60 = EDGE_CURVE('',#24,#61,#63,.T.);
#61 = VERTEX_POINT('',#62);
#62 = CARTESIAN_POINT('',(150.,15.730049482988,0.));
#63 = SURFACE_CURVE('',#64,(#68),.PCURVE_S1.);
#64 = LINE('',#65,#66);
#65 = CARTESIAN_POINT('',(150.,-0.730049482988,0.));
#66 = VECTOR('',#67,1.);
#67 = DIRECTION('',(0.,1.,0.));
#68 = PCURVE('',#40,#69);
#69 = DEFINITIONAL_REPRESENTATION('',(#70),#74);
#70 = LINE('',#71,#72);
#71 = CARTESIAN_POINT('',(76.794533951093,-8.230049482988));
#72 = VECTOR('',#73,1.);
#73 = DIRECTION('',(0.,1.));
#74 = ( GEOMETRIC_REPRESENTATION_CONTEXT(2) 
PARAMETRIC_REPRESENTATION_CONTEXT() REPRESENTATION_CONTEXT('2D SPACE',''
  ) );
#75 = ORIENTED_EDGE('',*,*,#76,.T.);
#76 = EDGE_CURVE('',#61,#77,#79,.T.);
#77 = VERTEX_POINT('',#78);
#78 = CARTESIAN_POINT('',(0.,19.246437834549,0.));
#79 = SURFACE_CURVE('',#80,(#92),.PCURVE_S1.);
#80 = B_SPLINE_CURVE_WITH_KNOTS('',1,(#81,#82,#83,#84,#85,#86,#87,#88,
    #89,#90,#91),.UNSPECIFIED.,.F.,.F.,(2,1,1,1,1,1,1,1,1,1,2),(0.,
    6.420846018304E-02,0.110779416524,0.174600591802,0.543168848153,
    0.599806651211,0.631291185974,0.709022133837,0.833646837754,
    0.87306873377,1.),.UNSPECIFIED.);
#81 = CARTESIAN_POINT('',(150.,15.730049482988,0.));
#82 = CARTESIAN_POINT('',(140.14699307665,16.748361920786,0.));
#83 = CARTESIAN_POINT('',(133.16438839406,15.056969384586,0.));
#84 = CARTESIAN_POINT('',(123.94681094585,11.596492541657,0.));
#85 = CARTESIAN_POINT('',(67.307984413504,16.598928062516,0.));
#86 = CARTESIAN_POINT('',(60.082198671103,11.686399960079,0.));
#87 = CARTESIAN_POINT('',(55.30553093045,12.56690426999,0.));
#88 = CARTESIAN_POINT('',(43.472126808995,10.625426589374,0.));
#89 = CARTESIAN_POINT('',(24.281789704419,11.795077522961,0.));
#90 = CARTESIAN_POINT('',(19.117286718392,15.006670675821,0.));
#91 = CARTESIAN_POINT('',(0.,19.246437834549,0.));
#92 = PCURVE('',#40,#93);
#93 = DEFINITIONAL_REPRESENTATION('',(#94),#106);
#94 = B_SPLINE_CURVE_WITH_KNOTS('',1,(#95,#96,#97,#98,#99,#100,#101,#102
    ,#103,#104,#105),.UNSPECIFIED.,.F.,.F.,(2,1,1,1,1,1,1,1,1,1,2),(0.,
    6.420846018304E-02,0.110779416524,0.174600591802,0.543168848153,
    0.599806651211,0.631291185974,0.709022133837,0.833646837754,
    0.87306873377,1.),.UNSPECIFIED.);
#95 = CARTESIAN_POINT('',(76.794533951093,8.230049482988));
#96 = CARTESIAN_POINT('',(66.941527027746,9.248361920786));
#97 = CARTESIAN_POINT('',(59.958922345156,7.556969384586));
#98 = CARTESIAN_POINT('',(50.741344896944,4.096492541657));
#99 = CARTESIAN_POINT('',(-5.897481635403,9.098928062516));
#100 = CARTESIAN_POINT('',(-13.1232673778,4.186399960079));
#101 = CARTESIAN_POINT('',(-17.89993511845,5.06690426999));
#102 = CARTESIAN_POINT('',(-29.73333923991,3.125426589374));
#103 = CARTESIAN_POINT('',(-48.92367634448,4.295077522961));
#104 = CARTESIAN_POINT('',(-54.08817933051,7.506670675821));
#105 = CARTESIAN_POINT('',(-73.2054660489,11.746437834549));
#106 = ( GEOMETRIC_REPRESENTATION_CONTEXT(2) 
PARAMETRIC_REPRESENTATION_CONTEXT() REPRESENTATION_CONTEXT('2D SPACE',''
  ) );
#107 = ORIENTED_EDGE('',*,*,#108,.T.);
#108 = EDGE_CURVE('',#77,#22,#109,.T.);
#109 = SURFACE_CURVE('',#110,(#114),.PCURVE_S1.);
#110 = LINE('',#111,#112);
#111 = CARTESIAN_POINT('',(0.,19.246437834549,0.));
#112 = VECTOR('',#113,1.);
#113 = DIRECTION('',(0.,-1.,0.));
#114 = PCURVE('',#40,#115);
#115 = DEFINITIONAL_REPRESENTATION('',(#116),#120);
#116 = LINE('',#117,#118);
#117 = CARTESIAN_POINT('',(-73.2054660489,11.746437834549));
#118 = VECTOR('',#119,1.);
#119 = DIRECTION('',(0.,-1.));
#120 = ( GEOMETRIC_REPRESENTATION_CONTEXT(2) 
PARAMETRIC_REPRESENTATION_CONTEXT() REPRESENTATION_CONTEXT('2D SPACE',''
  ) );
#121 = ( GEOMETRIC_REPRESENTATION_CONTEXT(3) 
GLOBAL_UNCERTAINTY_ASSIGNED_CONTEXT((#125)) GLOBAL_UNIT_ASSIGNED_CONTEXT
((#122,#123,#124)) REPRESENTATION_CONTEXT('Context #1',
  '3D Context with UNIT and UNCERTAINTY') );
#122 = ( LENGTH_UNIT() NAMED_UNIT(*) SI_UNIT(.MILLI.,.METRE.) );
#123 = ( NAMED_UNIT(*) PLANE_ANGLE_UNIT() SI_UNIT($,.RADIAN.) );
#124 = ( NAMED_UNIT(*) SI_UNIT($,.STERADIAN.) SOLID_ANGLE_UNIT() );
#125 = UNCERTAINTY_MEASURE_WITH_UNIT(LENGTH_MEASURE(1.E-07),#122,
  'distance_accuracy_value','confusion accuracy');
#126 = PRODUCT_RELATED_PRODUCT_CATEGORY('part',$,(#7));
ENDSEC;
END-ISO-10303-21;
