ISO-10303-21;
HEADER;
FILE_DESCRIPTION(('Open CASCADE Model'),'2;1');
FILE_NAME('Open CASCADE Shape Model','2026-06-01T11:13:05',('Author'),(
    'Open CASCADE'),'Open CASCADE STEP processor 7.9','Open CASCADE 7.9'
  ,'Unknown');
FILE_SCHEMA(('AUTOMOTIVE_DESIGN { 1 0 10303 214 1 1 1 1 }'));
ENDSEC;
DATA;
#1 = APPLICATION_PROTOCOL_DEFINITION('international standard',
  'automotive_design',2000,#2);
#2 = APPLICATION_CONTEXT(
  'core data for automotive mechanical design processes');
#3 = SHAPE_DEFINITION_REPRESENTATION(#4,#10);
#4 = PRODUCT_DEFINITION_SHAPE('','',#5);
#5 = PRODUCT_DEFINITION('design','',#6,#9);
#6 = PRODUCT_DEFINITION_FORMATION('','',#7);
#7 = PRODUCT('Open CASCADE STEP translator 7.9 6',
  'Open CASCADE STEP translator 7.9 6','',(#8));
#8 = PRODUCT_CONTEXT('',#2,'mechanical');
#9 = PRODUCT_DEFINITION_CONTEXT('part definition',#2,'design');
#10 = MANIFOLD_SURFACE_SHAPE_REPRESENTATION('',(#11,#15),#121);
#11 = AXIS2_PLACEMENT_3D('',#12,#13,#14);
#12 = CARTESIAN_POINT('',(0.,0.,0.));
#13 = DIRECTION('',(0.,0.,1.));
#14 = DIRECTION('',(1.,0.,-0.));
#15 = SHELL_BASED_SURFACE_MODEL('',(#16));
#16 = OPEN_SHELL('',(#17));
#17 = ADVANCED_FACE('',(#18),#40,.T.);
#18 = FACE_BOUND('',#19,.T.);
#19 = EDGE_LOOP('',(#20,#59,#75,#107));
#20 = ORIENTED_EDGE('',*,*,#21,.T.);
#21 = EDGE_CURVE('',#22,#24,#26,.T.);
#22 = VERTEX_POINT('',#23);
#23 = CARTESIAN_POINT('',(0.,-3.209528556831,0.));
#24 = VERTEX_POINT('',#25);
#25 = CARTESIAN_POINT('',(150.,5.408262679933E-02,0.));
#26 = SURFACE_CURVE('',#27,(#39),.PCURVE_S1.);
#27 = B_SPLINE_CURVE_WITH_KNOTS('',1,(#28,#29,#30,#31,#32,#33,#34,#35,
    #36,#37,#38),.UNSPECIFIED.,.F.,.F.,(2,1,1,1,1,1,1,1,1,1,2),(0.,
    0.106066629407,0.252524714784,0.319365535446,0.366309085605,
    0.640804375565,0.677180404251,0.730500340024,0.790112527601,
    0.926391356443,1.),.UNSPECIFIED.);
#28 = CARTESIAN_POINT('',(0.,-3.209528556831,0.));
#29 = CARTESIAN_POINT('',(16.300041758328,-2.326675768517,0.));
#30 = CARTESIAN_POINT('',(38.837585044744,-1.975166603558,0.));
#31 = CARTESIAN_POINT('',(48.79413149062,0.611162642024,0.));
#32 = CARTESIAN_POINT('',(55.801981434791,-1.145779566322,0.));
#33 = CARTESIAN_POINT('',(98.045737984401,-0.756881720215,0.));
#34 = CARTESIAN_POINT('',(103.61274374603,-1.348619413993,0.));
#35 = CARTESIAN_POINT('',(110.0505742524,3.740001109741,0.));
#36 = CARTESIAN_POINT('',(118.72680743145,0.757733380465,0.));
#37 = CARTESIAN_POINT('',(139.4283331042,4.125472435243,0.));
#38 = CARTESIAN_POINT('',(150.,5.408262679933E-02,0.));
#39 = PCURVE('',#40,#45);
#40 = PLANE('',#41);
#41 = AXIS2_PLACEMENT_3D('',#42,#43,#44);
#42 = CARTESIAN_POINT('',(74.316987085761,7.5,0.));
#43 = DIRECTION('',(0.,0.,1.));
#44 = DIRECTION('',(1.,0.,-0.));
#45 = DEFINITIONAL_REPRESENTATION('',(#46),#58);
#46 = B_SPLINE_CURVE_WITH_KNOTS('',1,(#47,#48,#49,#50,#51,#52,#53,#54,
    #55,#56,#57),.UNSPECIFIED.,.F.,.F.,(2,1,1,1,1,1,1,1,1,1,2),(0.,
    0.106066629407,0.252524714784,0.319365535446,0.366309085605,
    0.640804375565,0.677180404251,0.730500340024,0.790112527601,
    0.926391356443,1.),.UNSPECIFIED.);
#47 = CARTESIAN_POINT('',(-74.31698708576,-10.70952855683));
#48 = CARTESIAN_POINT('',(-58.01694532743,-9.826675768517));
#49 = CARTESIAN_POINT('',(-35.47940204101,-9.475166603558));
#50 = CARTESIAN_POINT('',(-25.52285559514,-6.888837357976));
#51 = CARTESIAN_POINT('',(-18.51500565097,-8.645779566322));
#52 = CARTESIAN_POINT('',(23.72875089864,-8.256881720215));
#53 = CARTESIAN_POINT('',(29.29575666027,-8.848619413993));
#54 = CARTESIAN_POINT('',(35.733587166646,-3.759998890259));
#55 = CARTESIAN_POINT('',(44.409820345698,-6.742266619535));
#56 = CARTESIAN_POINT('',(65.111346018445,-3.374527564757));
#57 = CARTESIAN_POINT('',(75.683012914239,-7.445917373201));
#58 = ( GEOMETRIC_REPRESENTATION_CONTEXT(2) 
PARAMETRIC_REPRESENTATION_CONTEXT() REPRESENTATION_CONTEXT('2D SPACE',''
  ) );
#59 = ORIENTED_EDGE('',*,*,#60,.T.);
#60 = EDGE_CURVE('',#24,#61,#63,.T.);
#61 = VERTEX_POINT('',#62);
#62 = CARTESIAN_POINT('',(150.,14.945917373201,0.));
#63 = SURFACE_CURVE('',#64,(#68),.PCURVE_S1.);
#64 = LINE('',#65,#66);
#65 = CARTESIAN_POINT('',(150.,5.408262679933E-02,0.));
#66 = VECTOR('',#67,1.);
#67 = DIRECTION('',(0.,1.,0.));
#68 = PCURVE('',#40,#69);
#69 = DEFINITIONAL_REPRESENTATION('',(#70),#74);
#70 = LINE('',#71,#72);
#71 = CARTESIAN_POINT('',(75.683012914239,-7.445917373201));
#72 = VECTOR('',#73,1.);
#73 = DIRECTION('',(0.,1.));
#74 = ( GEOMETRIC_REPRESENTATION_CONTEXT(2) 
PARAMETRIC_REPRESENTATION_CONTEXT() REPRESENTATION_CONTEXT('2D SPACE',''
  ) );
#75 = ORIENTED_EDGE('',*,*,#76,.T.);
#76 = EDGE_CURVE('',#61,#77,#79,.T.);
#77 = VERTEX_POINT('',#78);
#78 = CARTESIAN_POINT('',(0.,18.209528556831,0.));
#79 = SURFACE_CURVE('',#80,(#92),.PCURVE_S1.);
#80 = B_SPLINE_CURVE_WITH_KNOTS('',1,(#81,#82,#83,#84,#85,#86,#87,#88,
    #89,#90,#91),.UNSPECIFIED.,.F.,.F.,(2,1,1,1,1,1,1,1,1,1,2),(0.,
    7.360864355677E-02,0.209887472399,0.269499659976,0.322819595749,
    0.359195624435,0.633690914395,0.680634464554,0.747475285216,
    0.893933370593,1.),.UNSPECIFIED.);
#81 = CARTESIAN_POINT('',(150.,14.945917373201,0.));
#82 = CARTESIAN_POINT('',(139.4283331042,10.874527564757,0.));
#83 = CARTESIAN_POINT('',(118.72680743145,14.242266619535,0.));
#84 = CARTESIAN_POINT('',(110.0505742524,11.259998890259,0.));
#85 = CARTESIAN_POINT('',(103.61274374603,16.348619413993,0.));
#86 = CARTESIAN_POINT('',(98.045737984401,15.756881720215,0.));
#87 = CARTESIAN_POINT('',(55.801981434791,16.145779566322,0.));
#88 = CARTESIAN_POINT('',(48.79413149062,14.388837357976,0.));
#89 = CARTESIAN_POINT('',(38.837585044744,16.975166603558,0.));
#90 = CARTESIAN_POINT('',(16.300041758328,17.326675768517,0.));
#91 = CARTESIAN_POINT('',(0.,18.209528556831,0.));
#92 = PCURVE('',#40,#93);
#93 = DEFINITIONAL_REPRESENTATION('',(#94),#106);
#94 = B_SPLINE_CURVE_WITH_KNOTS('',1,(#95,#96,#97,#98,#99,#100,#101,#102
    ,#103,#104,#105),.UNSPECIFIED.,.F.,.F.,(2,1,1,1,1,1,1,1,1,1,2),(0.,
    7.360864355677E-02,0.209887472399,0.269499659976,0.322819595749,
    0.359195624435,0.633690914395,0.680634464554,0.747475285216,
    0.893933370593,1.),.UNSPECIFIED.);
#95 = CARTESIAN_POINT('',(75.683012914239,7.445917373201));
#96 = CARTESIAN_POINT('',(65.111346018445,3.374527564757));
#97 = CARTESIAN_POINT('',(44.409820345698,6.742266619535));
#98 = CARTESIAN_POINT('',(35.733587166646,3.759998890259));
#99 = CARTESIAN_POINT('',(29.29575666027,8.848619413993));
#100 = CARTESIAN_POINT('',(23.72875089864,8.256881720215));
#101 = CARTESIAN_POINT('',(-18.51500565097,8.645779566322));
#102 = CARTESIAN_POINT('',(-25.52285559514,6.888837357976));
#103 = CARTESIAN_POINT('',(-35.47940204101,9.475166603558));
#104 = CARTESIAN_POINT('',(-58.01694532743,9.826675768517));
#105 = CARTESIAN_POINT('',(-74.31698708576,10.709528556831));
#106 = ( GEOMETRIC_REPRESENTATION_CONTEXT(2) 
PARAMETRIC_REPRESENTATION_CONTEXT() REPRESENTATION_CONTEXT('2D SPACE',''
  ) );
#107 = ORIENTED_EDGE('',*,*,#108,.T.);
#108 = EDGE_CURVE('',#77,#22,#109,.T.);
#109 = SURFACE_CURVE('',#110,(#114),.PCURVE_S1.);
#110 = LINE('',#111,#112);
#111 = CARTESIAN_POINT('',(0.,18.209528556831,0.));
#112 = VECTOR('',#113,1.);
#113 = DIRECTION('',(0.,-1.,0.));
#114 = PCURVE('',#40,#115);
#115 = DEFINITIONAL_REPRESENTATION('',(#116),#120);
#116 = LINE('',#117,#118);
#117 = CARTESIAN_POINT('',(-74.31698708576,10.709528556831));
#118 = VECTOR('',#119,1.);
#119 = DIRECTION('',(0.,-1.));
#120 = ( GEOMETRIC_REPRESENTATION_CONTEXT(2) 
PARAMETRIC_REPRESENTATION_CONTEXT() REPRESENTATION_CONTEXT('2D SPACE',''
  ) );
#121 = ( GEOMETRIC_REPRESENTATION_CONTEXT(3) 
GLOBAL_UNCERTAINTY_ASSIGNED_CONTEXT((#125)) GLOBAL_UNIT_ASSIGNED_CONTEXT
((#122,#123,#124)) REPRESENTATION_CONTEXT('Context #1',
  '3D Context with UNIT and UNCERTAINTY') );
#122 = ( LENGTH_UNIT() NAMED_UNIT(*) SI_UNIT(.MILLI.,.METRE.) );
#123 = ( NAMED_UNIT(*) PLANE_ANGLE_UNIT() SI_UNIT($,.RADIAN.) );
#124 = ( NAMED_UNIT(*) SI_UNIT($,.STERADIAN.) SOLID_ANGLE_UNIT() );
#125 = UNCERTAINTY_MEASURE_WITH_UNIT(LENGTH_MEASURE(1.E-07),#122,
  'distance_accuracy_value','confusion accuracy');
#126 = PRODUCT_RELATED_PRODUCT_CATEGORY('part',$,(#7));
ENDSEC;
END-ISO-10303-21;
