ISO-10303-21;
HEADER;
FILE_DESCRIPTION(('Open CASCADE Model'),'2;1');
FILE_NAME('Open CASCADE Shape Model','2026-06-01T11:13:06',('Author'),(
    'Open CASCADE'),'Open CASCADE STEP processor 7.9','Open CASCADE 7.9'
  ,'Unknown');
FILE_SCHEMA(('AUTOMOTIVE_DESIGN { 1 0 10303 214 1 1 1 1 }'));
ENDSEC;
DATA;
#1 = APPLICATION_PROTOCOL_DEFINITION('international standard',
  'automotive_design',2000,#2);
#2 = APPLICATION_CONTEXT(
  'core data for automotive mechanical design processes');
#3 = SHAPE_DEFINITION_REPRESENTATION(#4,#10);
#4 = PRODUCT_DEFINITION_SHAPE('','',#5);
#5 = PRODUCT_DEFINITION('design','',#6,#9);
#6 = PRODUCT_DEFINITION_FORMATION('','',#7);
#7 = PRODUCT('Open CASCADE STEP translator 7.9 57',
  'Open CASCADE STEP translator 7.9 57','',(#8));
#8 = PRODUCT_CONTEXT('',#2,'mechanical');
#9 = PRODUCT_DEFINITION_CONTEXT('part definition',#2,'design');
#10 = MANIFOLD_SURFACE_SHAPE_REPRESENTATION('',(#11,#15),#121);
#11 = AXIS2_PLACEMENT_3D('',#12,#13,#14);
#12 = CARTESIAN_POINT('',(0.,0.,0.));
#13 = DIRECTION('',(0.,0.,1.));
#14 = DIRECTION('',(1.,0.,-0.));
#15 = SHELL_BASED_SURFACE_MODEL('',(#16));
#16 = OPEN_SHELL('',(#17));
#17 = ADVANCED_FACE('',(#18),#40,.T.);
#18 = FACE_BOUND('',#19,.T.);
#19 = EDGE_LOOP('',(#20,#59,#75,#107));
#20 = ORIENTED_EDGE('',*,*,#21,.T.);
#21 = EDGE_CURVE('',#22,#24,#26,.T.);
#22 = VERTEX_POINT('',#23);
#23 = CARTESIAN_POINT('',(0.,0.1242713194,0.));
#24 = VERTEX_POINT('',#25);
#25 = CARTESIAN_POINT('',(150.,-0.576856233425,0.));
#26 = SURFACE_CURVE('',#27,(#39),.PCURVE_S1.);
#27 = B_SPLINE_CURVE_WITH_KNOTS('',1,(#28,#29,#30,#31,#32,#33,#34,#35,
    #36,#37,#38),.UNSPECIFIED.,.F.,.F.,(2,1,1,1,1,1,1,1,1,1,2),(0.,
    0.145830605306,0.213824005832,0.314365201861,0.372606289284,
    0.432895429265,0.770832772825,0.900251572319,0.92729495195,
    0.95789136096,1.),.UNSPECIFIED.);
#28 = CARTESIAN_POINT('',(0.,0.1242713194,0.));
#29 = CARTESIAN_POINT('',(22.12521538217,2.158338101913,0.));
#30 = CARTESIAN_POINT('',(32.385931787288,0.732095214167,0.));
#31 = CARTESIAN_POINT('',(47.396849246116,-2.321192868596,0.));
#32 = CARTESIAN_POINT('',(56.24880035517,-2.939503361921,0.));
#33 = CARTESIAN_POINT('',(65.118386200426,-0.55100761101,0.));
#34 = CARTESIAN_POINT('',(116.58165116081,1.031674672286,0.));
#35 = CARTESIAN_POINT('',(136.27266576904,2.063729146544,0.));
#36 = CARTESIAN_POINT('',(139.71717718639,-0.197266236923,0.));
#37 = CARTESIAN_POINT('',(143.98967869198,1.667253432921,0.));
#38 = CARTESIAN_POINT('',(150.,-0.576856233425,0.));
#39 = PCURVE('',#40,#45);
#40 = PLANE('',#41);
#41 = AXIS2_PLACEMENT_3D('',#42,#43,#44);
#42 = CARTESIAN_POINT('',(75.748652561917,7.5,0.));
#43 = DIRECTION('',(0.,0.,1.));
#44 = DIRECTION('',(1.,0.,-0.));
#45 = DEFINITIONAL_REPRESENTATION('',(#46),#58);
#46 = B_SPLINE_CURVE_WITH_KNOTS('',1,(#47,#48,#49,#50,#51,#52,#53,#54,
    #55,#56,#57),.UNSPECIFIED.,.F.,.F.,(2,1,1,1,1,1,1,1,1,1,2),(0.,
    0.145830605306,0.213824005832,0.314365201861,0.372606289284,
    0.432895429265,0.770832772825,0.900251572319,0.92729495195,
    0.95789136096,1.),.UNSPECIFIED.);
#47 = CARTESIAN_POINT('',(-75.74865256191,-7.3757286806));
#48 = CARTESIAN_POINT('',(-53.62343717974,-5.341661898087));
#49 = CARTESIAN_POINT('',(-43.36272077462,-6.767904785833));
#50 = CARTESIAN_POINT('',(-28.3518033158,-9.821192868596));
#51 = CARTESIAN_POINT('',(-19.49985220674,-10.43950336192));
#52 = CARTESIAN_POINT('',(-10.63026636149,-8.05100761101));
#53 = CARTESIAN_POINT('',(40.832998598902,-6.468325327714));
#54 = CARTESIAN_POINT('',(60.52401320713,-5.436270853456));
#55 = CARTESIAN_POINT('',(63.968524624473,-7.697266236923));
#56 = CARTESIAN_POINT('',(68.241026130066,-5.832746567079));
#57 = CARTESIAN_POINT('',(74.251347438083,-8.076856233425));
#58 = ( GEOMETRIC_REPRESENTATION_CONTEXT(2) 
PARAMETRIC_REPRESENTATION_CONTEXT() REPRESENTATION_CONTEXT('2D SPACE',''
  ) );
#59 = ORIENTED_EDGE('',*,*,#60,.T.);
#60 = EDGE_CURVE('',#24,#61,#63,.T.);
#61 = VERTEX_POINT('',#62);
#62 = CARTESIAN_POINT('',(150.,15.576856233425,0.));
#63 = SURFACE_CURVE('',#64,(#68),.PCURVE_S1.);
#64 = LINE('',#65,#66);
#65 = CARTESIAN_POINT('',(150.,-0.576856233425,0.));
#66 = VECTOR('',#67,1.);
#67 = DIRECTION('',(0.,1.,0.));
#68 = PCURVE('',#40,#69);
#69 = DEFINITIONAL_REPRESENTATION('',(#70),#74);
#70 = LINE('',#71,#72);
#71 = CARTESIAN_POINT('',(74.251347438083,-8.076856233425));
#72 = VECTOR('',#73,1.);
#73 = DIRECTION('',(0.,1.));
#74 = ( GEOMETRIC_REPRESENTATION_CONTEXT(2) 
PARAMETRIC_REPRESENTATION_CONTEXT() REPRESENTATION_CONTEXT('2D SPACE',''
  ) );
#75 = ORIENTED_EDGE('',*,*,#76,.T.);
#76 = EDGE_CURVE('',#61,#77,#79,.T.);
#77 = VERTEX_POINT('',#78);
#78 = CARTESIAN_POINT('',(0.,14.8757286806,0.));
#79 = SURFACE_CURVE('',#80,(#92),.PCURVE_S1.);
#80 = B_SPLINE_CURVE_WITH_KNOTS('',1,(#81,#82,#83,#84,#85,#86,#87,#88,
    #89,#90,#91),.UNSPECIFIED.,.F.,.F.,(2,1,1,1,1,1,1,1,1,1,2),(0.,
    4.21086390397E-02,7.270504805003E-02,9.974842768132E-02,
    0.229167227175,0.567104570735,0.627393710716,0.685634798139,
    0.786175994168,0.854169394694,1.),.UNSPECIFIED.);
#81 = CARTESIAN_POINT('',(150.,15.576856233425,0.));
#82 = CARTESIAN_POINT('',(143.98967869198,13.332746567079,0.));
#83 = CARTESIAN_POINT('',(139.71717718639,15.197266236923,0.));
#84 = CARTESIAN_POINT('',(136.27266576904,12.936270853456,0.));
#85 = CARTESIAN_POINT('',(116.58165116081,13.968325327714,0.));
#86 = CARTESIAN_POINT('',(65.118386200426,15.55100761101,0.));
#87 = CARTESIAN_POINT('',(56.24880035517,17.939503361921,0.));
#88 = CARTESIAN_POINT('',(47.396849246116,17.321192868596,0.));
#89 = CARTESIAN_POINT('',(32.385931787288,14.267904785833,0.));
#90 = CARTESIAN_POINT('',(22.12521538217,12.841661898087,0.));
#91 = CARTESIAN_POINT('',(0.,14.8757286806,0.));
#92 = PCURVE('',#40,#93);
#93 = DEFINITIONAL_REPRESENTATION('',(#94),#106);
#94 = B_SPLINE_CURVE_WITH_KNOTS('',1,(#95,#96,#97,#98,#99,#100,#101,#102
    ,#103,#104,#105),.UNSPECIFIED.,.F.,.F.,(2,1,1,1,1,1,1,1,1,1,2),(0.,
    4.21086390397E-02,7.270504805003E-02,9.974842768132E-02,
    0.229167227175,0.567104570735,0.627393710716,0.685634798139,
    0.786175994168,0.854169394694,1.),.UNSPECIFIED.);
#95 = CARTESIAN_POINT('',(74.251347438083,8.076856233425));
#96 = CARTESIAN_POINT('',(68.241026130066,5.832746567079));
#97 = CARTESIAN_POINT('',(63.968524624473,7.697266236923));
#98 = CARTESIAN_POINT('',(60.52401320713,5.436270853456));
#99 = CARTESIAN_POINT('',(40.832998598902,6.468325327714));
#100 = CARTESIAN_POINT('',(-10.63026636149,8.05100761101));
#101 = CARTESIAN_POINT('',(-19.49985220674,10.439503361921));
#102 = CARTESIAN_POINT('',(-28.3518033158,9.821192868596));
#103 = CARTESIAN_POINT('',(-43.36272077462,6.767904785833));
#104 = CARTESIAN_POINT('',(-53.62343717974,5.341661898087));
#105 = CARTESIAN_POINT('',(-75.74865256191,7.3757286806));
#106 = ( GEOMETRIC_REPRESENTATION_CONTEXT(2) 
PARAMETRIC_REPRESENTATION_CONTEXT() REPRESENTATION_CONTEXT('2D SPACE',''
  ) );
#107 = ORIENTED_EDGE('',*,*,#108,.T.);
#108 = EDGE_CURVE('',#77,#22,#109,.T.);
#109 = SURFACE_CURVE('',#110,(#114),.PCURVE_S1.);
#110 = LINE('',#111,#112);
#111 = CARTESIAN_POINT('',(0.,14.8757286806,0.));
#112 = VECTOR('',#113,1.);
#113 = DIRECTION('',(0.,-1.,0.));
#114 = PCURVE('',#40,#115);
#115 = DEFINITIONAL_REPRESENTATION('',(#116),#120);
#116 = LINE('',#117,#118);
#117 = CARTESIAN_POINT('',(-75.74865256191,7.3757286806));
#118 = VECTOR('',#119,1.);
#119 = DIRECTION('',(0.,-1.));
#120 = ( GEOMETRIC_REPRESENTATION_CONTEXT(2) 
PARAMETRIC_REPRESENTATION_CONTEXT() REPRESENTATION_CONTEXT('2D SPACE',''
  ) );
#121 = ( GEOMETRIC_REPRESENTATION_CONTEXT(3) 
GLOBAL_UNCERTAINTY_ASSIGNED_CONTEXT((#125)) GLOBAL_UNIT_ASSIGNED_CONTEXT
((#122,#123,#124)) REPRESENTATION_CONTEXT('Context #1',
  '3D Context with UNIT and UNCERTAINTY') );
#122 = ( LENGTH_UNIT() NAMED_UNIT(*) SI_UNIT(.MILLI.,.METRE.) );
#123 = ( NAMED_UNIT(*) PLANE_ANGLE_UNIT() SI_UNIT($,.RADIAN.) );
#124 = ( NAMED_UNIT(*) SI_UNIT($,.STERADIAN.) SOLID_ANGLE_UNIT() );
#125 = UNCERTAINTY_MEASURE_WITH_UNIT(LENGTH_MEASURE(1.E-07),#122,
  'distance_accuracy_value','confusion accuracy');
#126 = PRODUCT_RELATED_PRODUCT_CATEGORY('part',$,(#7));
ENDSEC;
END-ISO-10303-21;
