ISO-10303-21;
HEADER;
FILE_DESCRIPTION(('Open CASCADE Model'),'2;1');
FILE_NAME('Open CASCADE Shape Model','2026-06-01T11:13:06',('Author'),(
    'Open CASCADE'),'Open CASCADE STEP processor 7.9','Open CASCADE 7.9'
  ,'Unknown');
FILE_SCHEMA(('AUTOMOTIVE_DESIGN { 1 0 10303 214 1 1 1 1 }'));
ENDSEC;
DATA;
#1 = APPLICATION_PROTOCOL_DEFINITION('international standard',
  'automotive_design',2000,#2);
#2 = APPLICATION_CONTEXT(
  'core data for automotive mechanical design processes');
#3 = SHAPE_DEFINITION_REPRESENTATION(#4,#10);
#4 = PRODUCT_DEFINITION_SHAPE('','',#5);
#5 = PRODUCT_DEFINITION('design','',#6,#9);
#6 = PRODUCT_DEFINITION_FORMATION('','',#7);
#7 = PRODUCT('Open CASCADE STEP translator 7.9 81',
  'Open CASCADE STEP translator 7.9 81','',(#8));
#8 = PRODUCT_CONTEXT('',#2,'mechanical');
#9 = PRODUCT_DEFINITION_CONTEXT('part definition',#2,'design');
#10 = MANIFOLD_SURFACE_SHAPE_REPRESENTATION('',(#11,#15),#121);
#11 = AXIS2_PLACEMENT_3D('',#12,#13,#14);
#12 = CARTESIAN_POINT('',(0.,0.,0.));
#13 = DIRECTION('',(0.,0.,1.));
#14 = DIRECTION('',(1.,0.,-0.));
#15 = SHELL_BASED_SURFACE_MODEL('',(#16));
#16 = OPEN_SHELL('',(#17));
#17 = ADVANCED_FACE('',(#18),#40,.T.);
#18 = FACE_BOUND('',#19,.T.);
#19 = EDGE_LOOP('',(#20,#59,#75,#107));
#20 = ORIENTED_EDGE('',*,*,#21,.T.);
#21 = EDGE_CURVE('',#22,#24,#26,.T.);
#22 = VERTEX_POINT('',#23);
#23 = CARTESIAN_POINT('',(0.,-0.95726556194,0.));
#24 = VERTEX_POINT('',#25);
#25 = CARTESIAN_POINT('',(150.,-3.285902087196,0.));
#26 = SURFACE_CURVE('',#27,(#39),.PCURVE_S1.);
#27 = B_SPLINE_CURVE_WITH_KNOTS('',1,(#28,#29,#30,#31,#32,#33,#34,#35,
    #36,#37,#38),.UNSPECIFIED.,.F.,.F.,(2,1,1,1,1,1,1,1,1,1,2),(0.,
    2.139844993689E-02,0.326924748541,0.386528813303,0.580146810476,
    0.639928363856,0.690746635988,0.749693427855,0.807103703306,
    0.950720734174,1.),.UNSPECIFIED.);
#28 = CARTESIAN_POINT('',(0.,-0.95726556194,0.));
#29 = CARTESIAN_POINT('',(3.335072264786,-1.42632691554,0.));
#30 = CARTESIAN_POINT('',(51.397107705503,-2.966358681771,0.));
#31 = CARTESIAN_POINT('',(57.354922187533,4.279942432062,0.));
#32 = CARTESIAN_POINT('',(87.777461094665,2.518578979629,0.));
#33 = CARTESIAN_POINT('',(96.080549581742,-1.907260295297,0.));
#34 = CARTESIAN_POINT('',(103.96653044537,-0.571709132726,0.));
#35 = CARTESIAN_POINT('',(113.22399155736,3.955429618971E-02,0.));
#36 = CARTESIAN_POINT('',(121.34407074383,4.003110389628,0.));
#37 = CARTESIAN_POINT('',(143.7935018849,1.365517048847,0.));
#38 = CARTESIAN_POINT('',(150.,-3.285902087196,0.));
#39 = PCURVE('',#40,#45);
#40 = PLANE('',#41);
#41 = AXIS2_PLACEMENT_3D('',#42,#43,#44);
#42 = CARTESIAN_POINT('',(76.594079734006,7.5,0.));
#43 = DIRECTION('',(0.,0.,1.));
#44 = DIRECTION('',(1.,0.,-0.));
#45 = DEFINITIONAL_REPRESENTATION('',(#46),#58);
#46 = B_SPLINE_CURVE_WITH_KNOTS('',1,(#47,#48,#49,#50,#51,#52,#53,#54,
    #55,#56,#57),.UNSPECIFIED.,.F.,.F.,(2,1,1,1,1,1,1,1,1,1,2),(0.,
    2.139844993689E-02,0.326924748541,0.386528813303,0.580146810476,
    0.639928363856,0.690746635988,0.749693427855,0.807103703306,
    0.950720734174,1.),.UNSPECIFIED.);
#47 = CARTESIAN_POINT('',(-76.594079734,-8.45726556194));
#48 = CARTESIAN_POINT('',(-73.25900746922,-8.92632691554));
#49 = CARTESIAN_POINT('',(-25.1969720285,-10.46635868177));
#50 = CARTESIAN_POINT('',(-19.23915754647,-3.220057567938));
#51 = CARTESIAN_POINT('',(11.183381360658,-4.981421020371));
#52 = CARTESIAN_POINT('',(19.486469847736,-9.407260295297));
#53 = CARTESIAN_POINT('',(27.372450711367,-8.071709132726));
#54 = CARTESIAN_POINT('',(36.629911823357,-7.46044570381));
#55 = CARTESIAN_POINT('',(44.749991009833,-3.496889610372));
#56 = CARTESIAN_POINT('',(67.199422150903,-6.134482951153));
#57 = CARTESIAN_POINT('',(73.405920265994,-10.78590208719));
#58 = ( GEOMETRIC_REPRESENTATION_CONTEXT(2) 
PARAMETRIC_REPRESENTATION_CONTEXT() REPRESENTATION_CONTEXT('2D SPACE',''
  ) );
#59 = ORIENTED_EDGE('',*,*,#60,.T.);
#60 = EDGE_CURVE('',#24,#61,#63,.T.);
#61 = VERTEX_POINT('',#62);
#62 = CARTESIAN_POINT('',(150.,18.285902087196,0.));
#63 = SURFACE_CURVE('',#64,(#68),.PCURVE_S1.);
#64 = LINE('',#65,#66);
#65 = CARTESIAN_POINT('',(150.,-3.285902087196,0.));
#66 = VECTOR('',#67,1.);
#67 = DIRECTION('',(0.,1.,0.));
#68 = PCURVE('',#40,#69);
#69 = DEFINITIONAL_REPRESENTATION('',(#70),#74);
#70 = LINE('',#71,#72);
#71 = CARTESIAN_POINT('',(73.405920265994,-10.78590208719));
#72 = VECTOR('',#73,1.);
#73 = DIRECTION('',(0.,1.));
#74 = ( GEOMETRIC_REPRESENTATION_CONTEXT(2) 
PARAMETRIC_REPRESENTATION_CONTEXT() REPRESENTATION_CONTEXT('2D SPACE',''
  ) );
#75 = ORIENTED_EDGE('',*,*,#76,.T.);
#76 = EDGE_CURVE('',#61,#77,#79,.T.);
#77 = VERTEX_POINT('',#78);
#78 = CARTESIAN_POINT('',(0.,15.95726556194,0.));
#79 = SURFACE_CURVE('',#80,(#92),.PCURVE_S1.);
#80 = B_SPLINE_CURVE_WITH_KNOTS('',1,(#81,#82,#83,#84,#85,#86,#87,#88,
    #89,#90,#91),.UNSPECIFIED.,.F.,.F.,(2,1,1,1,1,1,1,1,1,1,2),(0.,
    4.927926582552E-02,0.192896296694,0.250306572145,0.309253364012,
    0.360071636144,0.419853189524,0.613471186697,0.673075251459,
    0.978601550063,1.),.UNSPECIFIED.);
#81 = CARTESIAN_POINT('',(150.,18.285902087196,0.));
#82 = CARTESIAN_POINT('',(143.7935018849,13.634482951153,0.));
#83 = CARTESIAN_POINT('',(121.34407074383,10.996889610372,0.));
#84 = CARTESIAN_POINT('',(113.22399155736,14.96044570381,0.));
#85 = CARTESIAN_POINT('',(103.96653044537,15.571709132726,0.));
#86 = CARTESIAN_POINT('',(96.080549581742,16.907260295297,0.));
#87 = CARTESIAN_POINT('',(87.777461094665,12.481421020371,0.));
#88 = CARTESIAN_POINT('',(57.354922187533,10.720057567938,0.));
#89 = CARTESIAN_POINT('',(51.397107705503,17.966358681771,0.));
#90 = CARTESIAN_POINT('',(3.335072264786,16.42632691554,0.));
#91 = CARTESIAN_POINT('',(0.,15.95726556194,0.));
#92 = PCURVE('',#40,#93);
#93 = DEFINITIONAL_REPRESENTATION('',(#94),#106);
#94 = B_SPLINE_CURVE_WITH_KNOTS('',1,(#95,#96,#97,#98,#99,#100,#101,#102
    ,#103,#104,#105),.UNSPECIFIED.,.F.,.F.,(2,1,1,1,1,1,1,1,1,1,2),(0.,
    4.927926582552E-02,0.192896296694,0.250306572145,0.309253364012,
    0.360071636144,0.419853189524,0.613471186697,0.673075251459,
    0.978601550063,1.),.UNSPECIFIED.);
#95 = CARTESIAN_POINT('',(73.405920265994,10.785902087196));
#96 = CARTESIAN_POINT('',(67.199422150903,6.134482951153));
#97 = CARTESIAN_POINT('',(44.749991009833,3.496889610372));
#98 = CARTESIAN_POINT('',(36.629911823357,7.46044570381));
#99 = CARTESIAN_POINT('',(27.372450711367,8.071709132726));
#100 = CARTESIAN_POINT('',(19.486469847736,9.407260295297));
#101 = CARTESIAN_POINT('',(11.183381360658,4.981421020371));
#102 = CARTESIAN_POINT('',(-19.23915754647,3.220057567938));
#103 = CARTESIAN_POINT('',(-25.1969720285,10.466358681771));
#104 = CARTESIAN_POINT('',(-73.25900746922,8.92632691554));
#105 = CARTESIAN_POINT('',(-76.594079734,8.45726556194));
#106 = ( GEOMETRIC_REPRESENTATION_CONTEXT(2) 
PARAMETRIC_REPRESENTATION_CONTEXT() REPRESENTATION_CONTEXT('2D SPACE',''
  ) );
#107 = ORIENTED_EDGE('',*,*,#108,.T.);
#108 = EDGE_CURVE('',#77,#22,#109,.T.);
#109 = SURFACE_CURVE('',#110,(#114),.PCURVE_S1.);
#110 = LINE('',#111,#112);
#111 = CARTESIAN_POINT('',(0.,15.95726556194,0.));
#112 = VECTOR('',#113,1.);
#113 = DIRECTION('',(0.,-1.,0.));
#114 = PCURVE('',#40,#115);
#115 = DEFINITIONAL_REPRESENTATION('',(#116),#120);
#116 = LINE('',#117,#118);
#117 = CARTESIAN_POINT('',(-76.594079734,8.45726556194));
#118 = VECTOR('',#119,1.);
#119 = DIRECTION('',(0.,-1.));
#120 = ( GEOMETRIC_REPRESENTATION_CONTEXT(2) 
PARAMETRIC_REPRESENTATION_CONTEXT() REPRESENTATION_CONTEXT('2D SPACE',''
  ) );
#121 = ( GEOMETRIC_REPRESENTATION_CONTEXT(3) 
GLOBAL_UNCERTAINTY_ASSIGNED_CONTEXT((#125)) GLOBAL_UNIT_ASSIGNED_CONTEXT
((#122,#123,#124)) REPRESENTATION_CONTEXT('Context #1',
  '3D Context with UNIT and UNCERTAINTY') );
#122 = ( LENGTH_UNIT() NAMED_UNIT(*) SI_UNIT(.MILLI.,.METRE.) );
#123 = ( NAMED_UNIT(*) PLANE_ANGLE_UNIT() SI_UNIT($,.RADIAN.) );
#124 = ( NAMED_UNIT(*) SI_UNIT($,.STERADIAN.) SOLID_ANGLE_UNIT() );
#125 = UNCERTAINTY_MEASURE_WITH_UNIT(LENGTH_MEASURE(1.E-07),#122,
  'distance_accuracy_value','confusion accuracy');
#126 = PRODUCT_RELATED_PRODUCT_CATEGORY('part',$,(#7));
ENDSEC;
END-ISO-10303-21;
