ISO-10303-21;
HEADER;
FILE_DESCRIPTION(('Open CASCADE Model'),'2;1');
FILE_NAME('Open CASCADE Shape Model','2026-05-28T17:04:49',('Author'),(
    'Open CASCADE'),'Open CASCADE STEP processor 7.9','Open CASCADE 7.9'
  ,'Unknown');
FILE_SCHEMA(('AUTOMOTIVE_DESIGN { 1 0 10303 214 1 1 1 1 }'));
ENDSEC;
DATA;
#1 = APPLICATION_PROTOCOL_DEFINITION('international standard',
  'automotive_design',2000,#2);
#2 = APPLICATION_CONTEXT(
  'core data for automotive mechanical design processes');
#3 = SHAPE_DEFINITION_REPRESENTATION(#4,#10);
#4 = PRODUCT_DEFINITION_SHAPE('','',#5);
#5 = PRODUCT_DEFINITION('design','',#6,#9);
#6 = PRODUCT_DEFINITION_FORMATION('','',#7);
#7 = PRODUCT('Open CASCADE STEP translator 7.9 30',
  'Open CASCADE STEP translator 7.9 30','',(#8));
#8 = PRODUCT_CONTEXT('',#2,'mechanical');
#9 = PRODUCT_DEFINITION_CONTEXT('part definition',#2,'design');
#10 = MANIFOLD_SURFACE_SHAPE_REPRESENTATION('',(#11,#15),#197);
#11 = AXIS2_PLACEMENT_3D('',#12,#13,#14);
#12 = CARTESIAN_POINT('',(0.,0.,0.));
#13 = DIRECTION('',(0.,0.,1.));
#14 = DIRECTION('',(1.,0.,-0.));
#15 = SHELL_BASED_SURFACE_MODEL('',(#16));
#16 = OPEN_SHELL('',(#17));
#17 = ADVANCED_FACE('',(#18),#59,.T.);
#18 = FACE_BOUND('',#19,.T.);
#19 = EDGE_LOOP('',(#20,#97,#113,#183));
#20 = ORIENTED_EDGE('',*,*,#21,.T.);
#21 = EDGE_CURVE('',#22,#24,#26,.T.);
#22 = VERTEX_POINT('',#23);
#23 = CARTESIAN_POINT('',(0.,1.091578415451E-02,0.));
#24 = VERTEX_POINT('',#25);
#25 = CARTESIAN_POINT('',(5.8,8.166520679942E-03,0.));
#26 = SURFACE_CURVE('',#27,(#58),.PCURVE_S1.);
#27 = B_SPLINE_CURVE_WITH_KNOTS('',1,(#28,#29,#30,#31,#32,#33,#34,#35,
    #36,#37,#38,#39,#40,#41,#42,#43,#44,#45,#46,#47,#48,#49,#50,#51,#52,
    #53,#54,#55,#56,#57),.UNSPECIFIED.,.F.,.F.,(2,1,1,1,1,1,1,1,1,1,1,1,
    1,1,1,1,1,1,1,1,1,1,1,1,1,1,1,1,1,2),(0.,7.126517627443E-02,
    7.569562772078E-02,0.130807659277,0.149474935168,0.167942249295,
    0.21440257862,0.243442124737,0.25783772094,0.286329312486,
    0.291325917294,0.303677529371,0.326120579422,0.438222484783,
    0.541185888985,0.555202337854,0.595061873834,0.612271510568,
    0.621217760347,0.670288623115,0.681801128428,0.690915244954,
    0.693693022462,0.704446446181,0.77369284937,0.804392279307,
    0.847996981873,0.861948111048,0.913140564125,1.),.UNSPECIFIED.);
#28 = CARTESIAN_POINT('',(0.,1.091578415451E-02,0.));
#29 = CARTESIAN_POINT('',(0.429609205884,4.959462196282E-02,0.));
#30 = CARTESIAN_POINT('',(0.450919068165,3.331584865238E-02,0.));
#31 = CARTESIAN_POINT('',(0.783462794862,7.084484184236E-03,0.));
#32 = CARTESIAN_POINT('',(0.890482968755,-2.914875718297E-02,0.));
#33 = CARTESIAN_POINT('',(0.984341809572,3.155255076184E-02,0.));
#34 = CARTESIAN_POINT('',(1.256409712267,-3.956998921499E-02,0.));
#35 = CARTESIAN_POINT('',(1.428843002343,-5.495794288736E-03,0.));
#36 = CARTESIAN_POINT('',(1.512081931748,-3.125060222215E-02,0.));
#37 = CARTESIAN_POINT('',(1.681037860327,3.293281999577E-03,0.));
#38 = CARTESIAN_POINT('',(1.711111410532,9.66929493332E-05,0.));
#39 = CARTESIAN_POINT('',(1.784459704998,-1.436632672556E-02,0.));
#40 = CARTESIAN_POINT('',(1.915167514467,-5.13564729799E-02,0.));
#41 = CARTESIAN_POINT('',(2.591665286002,9.824902304508E-04,0.));
#42 = CARTESIAN_POINT('',(3.214856397213,-3.438904572995E-03,0.));
#43 = CARTESIAN_POINT('',(3.299236071229,-1.22396356233E-02,0.));
#44 = CARTESIAN_POINT('',(3.539945254983,-2.850181647573E-02,0.));
#45 = CARTESIAN_POINT('',(3.606799777795,5.137795974165E-02,0.));
#46 = CARTESIAN_POINT('',(3.616568943928,-1.882492622637E-03,0.));
#47 = CARTESIAN_POINT('',(3.913552067005,2.209009295275E-03,0.));
#48 = CARTESIAN_POINT('',(3.959011108858,-5.060219810851E-02,0.));
#49 = CARTESIAN_POINT('',(3.979089243134,7.792103476391E-04,0.));
#50 = CARTESIAN_POINT('',(3.995628424227,3.80153583668E-03,0.));
#51 = CARTESIAN_POINT('',(4.022534723603,-5.546399862416E-02,0.));
#52 = CARTESIAN_POINT('',(4.437141550033,5.930824367894E-03,0.));
#53 = CARTESIAN_POINT('',(4.620116032856,3.829386836135E-02,0.));
#54 = CARTESIAN_POINT('',(4.884006880279,3.397006526331E-02,0.));
#55 = CARTESIAN_POINT('',(4.967175857803,4.857749539956E-02,0.));
#56 = CARTESIAN_POINT('',(5.276820411853,5.993182448893E-02,0.));
#57 = CARTESIAN_POINT('',(5.8,8.166520679942E-03,0.));
#58 = PCURVE('',#59,#64);
#59 = PLANE('',#60);
#60 = AXIS2_PLACEMENT_3D('',#61,#62,#63);
#61 = CARTESIAN_POINT('',(2.913272240923,0.1,0.));
#62 = DIRECTION('',(0.,0.,1.));
#63 = DIRECTION('',(1.,0.,-0.));
#64 = DEFINITIONAL_REPRESENTATION('',(#65),#96);
#65 = B_SPLINE_CURVE_WITH_KNOTS('',1,(#66,#67,#68,#69,#70,#71,#72,#73,
    #74,#75,#76,#77,#78,#79,#80,#81,#82,#83,#84,#85,#86,#87,#88,#89,#90,
    #91,#92,#93,#94,#95),.UNSPECIFIED.,.F.,.F.,(2,1,1,1,1,1,1,1,1,1,1,1,
    1,1,1,1,1,1,1,1,1,1,1,1,1,1,1,1,1,2),(0.,7.126517627443E-02,
    7.569562772078E-02,0.130807659277,0.149474935168,0.167942249295,
    0.21440257862,0.243442124737,0.25783772094,0.286329312486,
    0.291325917294,0.303677529371,0.326120579422,0.438222484783,
    0.541185888985,0.555202337854,0.595061873834,0.612271510568,
    0.621217760347,0.670288623115,0.681801128428,0.690915244954,
    0.693693022462,0.704446446181,0.77369284937,0.804392279307,
    0.847996981873,0.861948111048,0.913140564125,1.),.UNSPECIFIED.);
#66 = CARTESIAN_POINT('',(-2.913272240923,-8.908421584549E-02));
#67 = CARTESIAN_POINT('',(-2.483663035038,-5.040537803718E-02));
#68 = CARTESIAN_POINT('',(-2.462353172757,-6.668415134762E-02));
#69 = CARTESIAN_POINT('',(-2.129809446061,-9.291551581576E-02));
#70 = CARTESIAN_POINT('',(-2.022789272168,-0.129148757183));
#71 = CARTESIAN_POINT('',(-1.928930431351,-6.844744923816E-02));
#72 = CARTESIAN_POINT('',(-1.656862528655,-0.139569989215));
#73 = CARTESIAN_POINT('',(-1.48442923858,-0.105495794289));
#74 = CARTESIAN_POINT('',(-1.401190309174,-0.131250602222));
#75 = CARTESIAN_POINT('',(-1.232234380596,-9.670671800042E-02));
#76 = CARTESIAN_POINT('',(-1.202160830391,-9.990330705067E-02));
#77 = CARTESIAN_POINT('',(-1.128812535924,-0.114366326726));
#78 = CARTESIAN_POINT('',(-0.998104726456,-0.15135647298));
#79 = CARTESIAN_POINT('',(-0.321606954921,-9.901750976955E-02));
#80 = CARTESIAN_POINT('',(0.301584156291,-0.103438904573));
#81 = CARTESIAN_POINT('',(0.385963830306,-0.112239635623));
#82 = CARTESIAN_POINT('',(0.62667301406,-0.128501816476));
#83 = CARTESIAN_POINT('',(0.693527536873,-4.862204025835E-02));
#84 = CARTESIAN_POINT('',(0.703296703005,-0.101882492623));
#85 = CARTESIAN_POINT('',(1.000279826083,-9.779099070473E-02));
#86 = CARTESIAN_POINT('',(1.045738867935,-0.150602198109));
#87 = CARTESIAN_POINT('',(1.065817002212,-9.922078965236E-02));
#88 = CARTESIAN_POINT('',(1.082356183305,-9.619846416332E-02));
#89 = CARTESIAN_POINT('',(1.10926248268,-0.155463998624));
#90 = CARTESIAN_POINT('',(1.52386930911,-9.406917563211E-02));
#91 = CARTESIAN_POINT('',(1.706843791933,-6.170613163865E-02));
#92 = CARTESIAN_POINT('',(1.970734639356,-6.602993473669E-02));
#93 = CARTESIAN_POINT('',(2.053903616881,-5.142250460044E-02));
#94 = CARTESIAN_POINT('',(2.36354817093,-4.006817551107E-02));
#95 = CARTESIAN_POINT('',(2.886727759077,-9.183347932006E-02));
#96 = ( GEOMETRIC_REPRESENTATION_CONTEXT(2) 
PARAMETRIC_REPRESENTATION_CONTEXT() REPRESENTATION_CONTEXT('2D SPACE',''
  ) );
#97 = ORIENTED_EDGE('',*,*,#98,.T.);
#98 = EDGE_CURVE('',#24,#99,#101,.T.);
#99 = VERTEX_POINT('',#100);
#100 = CARTESIAN_POINT('',(5.8,0.19183347932,0.));
#101 = SURFACE_CURVE('',#102,(#106),.PCURVE_S1.);
#102 = LINE('',#103,#104);
#103 = CARTESIAN_POINT('',(5.8,8.166520679942E-03,0.));
#104 = VECTOR('',#105,1.);
#105 = DIRECTION('',(0.,1.,0.));
#106 = PCURVE('',#59,#107);
#107 = DEFINITIONAL_REPRESENTATION('',(#108),#112);
#108 = LINE('',#109,#110);
#109 = CARTESIAN_POINT('',(2.886727759077,-9.183347932006E-02));
#110 = VECTOR('',#111,1.);
#111 = DIRECTION('',(0.,1.));
#112 = ( GEOMETRIC_REPRESENTATION_CONTEXT(2) 
PARAMETRIC_REPRESENTATION_CONTEXT() REPRESENTATION_CONTEXT('2D SPACE',''
  ) );
#113 = ORIENTED_EDGE('',*,*,#114,.T.);
#114 = EDGE_CURVE('',#99,#115,#117,.T.);
#115 = VERTEX_POINT('',#116);
#116 = CARTESIAN_POINT('',(0.,0.189084215845,0.));
#117 = SURFACE_CURVE('',#118,(#149),.PCURVE_S1.);
#118 = B_SPLINE_CURVE_WITH_KNOTS('',1,(#119,#120,#121,#122,#123,#124,
    #125,#126,#127,#128,#129,#130,#131,#132,#133,#134,#135,#136,#137,
    #138,#139,#140,#141,#142,#143,#144,#145,#146,#147,#148),
  .UNSPECIFIED.,.F.,.F.,(2,1,1,1,1,1,1,1,1,1,1,1,1,1,1,1,1,1,1,1,1,1,1,1
    ,1,1,1,1,1,2),(0.,8.685943587547E-02,0.138051888952,0.152003018127,
    0.195607720693,0.22630715063,0.295553553819,0.306306977538,
    0.309084755046,0.318198871572,0.329711376885,0.378782239653,
    0.387728489432,0.404938126166,0.444797662146,0.458814111015,
    0.561777515217,0.673879420578,0.696322470629,0.708674082706,
    0.713670687514,0.74216227906,0.756557875263,0.78559742138,
    0.832057750705,0.850525064832,0.869192340723,0.924304372279,
    0.928734823726,1.),.UNSPECIFIED.);
#119 = CARTESIAN_POINT('',(5.8,0.19183347932,0.));
#120 = CARTESIAN_POINT('',(5.276820411853,0.140068175511,0.));
#121 = CARTESIAN_POINT('',(4.967175857803,0.1514225046,0.));
#122 = CARTESIAN_POINT('',(4.884006880279,0.166029934737,0.));
#123 = CARTESIAN_POINT('',(4.620116032856,0.161706131639,0.));
#124 = CARTESIAN_POINT('',(4.437141550033,0.194069175632,0.));
#125 = CARTESIAN_POINT('',(4.022534723603,0.255463998624,0.));
#126 = CARTESIAN_POINT('',(3.995628424227,0.196198464163,0.));
#127 = CARTESIAN_POINT('',(3.979089243134,0.199220789652,0.));
#128 = CARTESIAN_POINT('',(3.959011108858,0.250602198109,0.));
#129 = CARTESIAN_POINT('',(3.913552067005,0.197790990705,0.));
#130 = CARTESIAN_POINT('',(3.616568943928,0.201882492623,0.));
#131 = CARTESIAN_POINT('',(3.606799777795,0.148622040258,0.));
#132 = CARTESIAN_POINT('',(3.539945254983,0.228501816476,0.));
#133 = CARTESIAN_POINT('',(3.299236071229,0.212239635623,0.));
#134 = CARTESIAN_POINT('',(3.214856397213,0.203438904573,0.));
#135 = CARTESIAN_POINT('',(2.591665286002,0.19901750977,0.));
#136 = CARTESIAN_POINT('',(1.915167514467,0.25135647298,0.));
#137 = CARTESIAN_POINT('',(1.784459704998,0.214366326726,0.));
#138 = CARTESIAN_POINT('',(1.711111410532,0.199903307051,0.));
#139 = CARTESIAN_POINT('',(1.681037860327,0.196706718,0.));
#140 = CARTESIAN_POINT('',(1.512081931748,0.231250602222,0.));
#141 = CARTESIAN_POINT('',(1.428843002343,0.205495794289,0.));
#142 = CARTESIAN_POINT('',(1.256409712267,0.239569989215,0.));
#143 = CARTESIAN_POINT('',(0.984341809572,0.168447449238,0.));
#144 = CARTESIAN_POINT('',(0.890482968755,0.229148757183,0.));
#145 = CARTESIAN_POINT('',(0.783462794862,0.192915515816,0.));
#146 = CARTESIAN_POINT('',(0.450919068165,0.166684151348,0.));
#147 = CARTESIAN_POINT('',(0.429609205884,0.150405378037,0.));
#148 = CARTESIAN_POINT('',(0.,0.189084215845,0.));
#149 = PCURVE('',#59,#150);
#150 = DEFINITIONAL_REPRESENTATION('',(#151),#182);
#151 = B_SPLINE_CURVE_WITH_KNOTS('',1,(#152,#153,#154,#155,#156,#157,
    #158,#159,#160,#161,#162,#163,#164,#165,#166,#167,#168,#169,#170,
    #171,#172,#173,#174,#175,#176,#177,#178,#179,#180,#181),
  .UNSPECIFIED.,.F.,.F.,(2,1,1,1,1,1,1,1,1,1,1,1,1,1,1,1,1,1,1,1,1,1,1,1
    ,1,1,1,1,1,2),(0.,8.685943587547E-02,0.138051888952,0.152003018127,
    0.195607720693,0.22630715063,0.295553553819,0.306306977538,
    0.309084755046,0.318198871572,0.329711376885,0.378782239653,
    0.387728489432,0.404938126166,0.444797662146,0.458814111015,
    0.561777515217,0.673879420578,0.696322470629,0.708674082706,
    0.713670687514,0.74216227906,0.756557875263,0.78559742138,
    0.832057750705,0.850525064832,0.869192340723,0.924304372279,
    0.928734823726,1.),.UNSPECIFIED.);
#152 = CARTESIAN_POINT('',(2.886727759077,9.183347932006E-02));
#153 = CARTESIAN_POINT('',(2.36354817093,4.006817551107E-02));
#154 = CARTESIAN_POINT('',(2.053903616881,5.142250460044E-02));
#155 = CARTESIAN_POINT('',(1.970734639356,6.602993473669E-02));
#156 = CARTESIAN_POINT('',(1.706843791933,6.170613163865E-02));
#157 = CARTESIAN_POINT('',(1.52386930911,9.406917563211E-02));
#158 = CARTESIAN_POINT('',(1.10926248268,0.155463998624));
#159 = CARTESIAN_POINT('',(1.082356183305,9.619846416332E-02));
#160 = CARTESIAN_POINT('',(1.065817002212,9.922078965236E-02));
#161 = CARTESIAN_POINT('',(1.045738867935,0.150602198109));
#162 = CARTESIAN_POINT('',(1.000279826083,9.779099070473E-02));
#163 = CARTESIAN_POINT('',(0.703296703005,0.101882492623));
#164 = CARTESIAN_POINT('',(0.693527536873,4.862204025835E-02));
#165 = CARTESIAN_POINT('',(0.62667301406,0.128501816476));
#166 = CARTESIAN_POINT('',(0.385963830306,0.112239635623));
#167 = CARTESIAN_POINT('',(0.301584156291,0.103438904573));
#168 = CARTESIAN_POINT('',(-0.321606954921,9.901750976955E-02));
#169 = CARTESIAN_POINT('',(-0.998104726456,0.15135647298));
#170 = CARTESIAN_POINT('',(-1.128812535924,0.114366326726));
#171 = CARTESIAN_POINT('',(-1.202160830391,9.990330705067E-02));
#172 = CARTESIAN_POINT('',(-1.232234380596,9.670671800042E-02));
#173 = CARTESIAN_POINT('',(-1.401190309174,0.131250602222));
#174 = CARTESIAN_POINT('',(-1.48442923858,0.105495794289));
#175 = CARTESIAN_POINT('',(-1.656862528655,0.139569989215));
#176 = CARTESIAN_POINT('',(-1.928930431351,6.844744923816E-02));
#177 = CARTESIAN_POINT('',(-2.022789272168,0.129148757183));
#178 = CARTESIAN_POINT('',(-2.129809446061,9.291551581576E-02));
#179 = CARTESIAN_POINT('',(-2.462353172757,6.668415134762E-02));
#180 = CARTESIAN_POINT('',(-2.483663035038,5.040537803718E-02));
#181 = CARTESIAN_POINT('',(-2.913272240923,8.908421584549E-02));
#182 = ( GEOMETRIC_REPRESENTATION_CONTEXT(2) 
PARAMETRIC_REPRESENTATION_CONTEXT() REPRESENTATION_CONTEXT('2D SPACE',''
  ) );
#183 = ORIENTED_EDGE('',*,*,#184,.T.);
#184 = EDGE_CURVE('',#115,#22,#185,.T.);
#185 = SURFACE_CURVE('',#186,(#190),.PCURVE_S1.);
#186 = LINE('',#187,#188);
#187 = CARTESIAN_POINT('',(0.,0.189084215845,0.));
#188 = VECTOR('',#189,1.);
#189 = DIRECTION('',(0.,-1.,0.));
#190 = PCURVE('',#59,#191);
#191 = DEFINITIONAL_REPRESENTATION('',(#192),#196);
#192 = LINE('',#193,#194);
#193 = CARTESIAN_POINT('',(-2.913272240923,8.908421584549E-02));
#194 = VECTOR('',#195,1.);
#195 = DIRECTION('',(0.,-1.));
#196 = ( GEOMETRIC_REPRESENTATION_CONTEXT(2) 
PARAMETRIC_REPRESENTATION_CONTEXT() REPRESENTATION_CONTEXT('2D SPACE',''
  ) );
#197 = ( GEOMETRIC_REPRESENTATION_CONTEXT(3) 
GLOBAL_UNCERTAINTY_ASSIGNED_CONTEXT((#201)) GLOBAL_UNIT_ASSIGNED_CONTEXT
((#198,#199,#200)) REPRESENTATION_CONTEXT('Context #1',
  '3D Context with UNIT and UNCERTAINTY') );
#198 = ( LENGTH_UNIT() NAMED_UNIT(*) SI_UNIT(.MILLI.,.METRE.) );
#199 = ( NAMED_UNIT(*) PLANE_ANGLE_UNIT() SI_UNIT($,.RADIAN.) );
#200 = ( NAMED_UNIT(*) SI_UNIT($,.STERADIAN.) SOLID_ANGLE_UNIT() );
#201 = UNCERTAINTY_MEASURE_WITH_UNIT(LENGTH_MEASURE(1.E-07),#198,
  'distance_accuracy_value','confusion accuracy');
#202 = PRODUCT_RELATED_PRODUCT_CATEGORY('part',$,(#7));
ENDSEC;
END-ISO-10303-21;
