ISO-10303-21;
HEADER;
FILE_DESCRIPTION(('Open CASCADE Model'),'2;1');
FILE_NAME('Open CASCADE Shape Model','2026-05-28T17:04:49',('Author'),(
    'Open CASCADE'),'Open CASCADE STEP processor 7.9','Open CASCADE 7.9'
  ,'Unknown');
FILE_SCHEMA(('AUTOMOTIVE_DESIGN { 1 0 10303 214 1 1 1 1 }'));
ENDSEC;
DATA;
#1 = APPLICATION_PROTOCOL_DEFINITION('international standard',
  'automotive_design',2000,#2);
#2 = APPLICATION_CONTEXT(
  'core data for automotive mechanical design processes');
#3 = SHAPE_DEFINITION_REPRESENTATION(#4,#10);
#4 = PRODUCT_DEFINITION_SHAPE('','',#5);
#5 = PRODUCT_DEFINITION('design','',#6,#9);
#6 = PRODUCT_DEFINITION_FORMATION('','',#7);
#7 = PRODUCT('Open CASCADE STEP translator 7.9 34',
  'Open CASCADE STEP translator 7.9 34','',(#8));
#8 = PRODUCT_CONTEXT('',#2,'mechanical');
#9 = PRODUCT_DEFINITION_CONTEXT('part definition',#2,'design');
#10 = MANIFOLD_SURFACE_SHAPE_REPRESENTATION('',(#11,#15),#161);
#11 = AXIS2_PLACEMENT_3D('',#12,#13,#14);
#12 = CARTESIAN_POINT('',(0.,0.,0.));
#13 = DIRECTION('',(0.,0.,1.));
#14 = DIRECTION('',(1.,0.,-0.));
#15 = SHELL_BASED_SURFACE_MODEL('',(#16));
#16 = OPEN_SHELL('',(#17));
#17 = ADVANCED_FACE('',(#18),#50,.T.);
#18 = FACE_BOUND('',#19,.T.);
#19 = EDGE_LOOP('',(#20,#79,#95,#147));
#20 = ORIENTED_EDGE('',*,*,#21,.T.);
#21 = EDGE_CURVE('',#22,#24,#26,.T.);
#22 = VERTEX_POINT('',#23);
#23 = CARTESIAN_POINT('',(0.,5.732774152445E-02,0.));
#24 = VERTEX_POINT('',#25);
#25 = CARTESIAN_POINT('',(4.,3.014779622916E-03,0.));
#26 = SURFACE_CURVE('',#27,(#49),.PCURVE_S1.);
#27 = B_SPLINE_CURVE_WITH_KNOTS('',1,(#28,#29,#30,#31,#32,#33,#34,#35,
    #36,#37,#38,#39,#40,#41,#42,#43,#44,#45,#46,#47,#48),.UNSPECIFIED.,
  .F.,.F.,(2,1,1,1,1,1,1,1,1,1,1,1,1,1,1,1,1,1,1,1,2),(0.,
    2.059084424963E-02,2.933318411765E-02,0.103403248845,0.119426019167,
    0.249162408623,0.339191660761,0.36605607315,0.392484882479,
    0.411275353145,0.436701546312,0.471298456344,0.525959823718,
    0.549011459697,0.613535103706,0.636412287099,0.672405122752,
    0.795360976433,0.821248945193,0.944707480286,1.),.UNSPECIFIED.);
#28 = CARTESIAN_POINT('',(0.,5.732774152445E-02,0.));
#29 = CARTESIAN_POINT('',(5.51094211762E-02,-1.216473153736E-02,0.));
#30 = CARTESIAN_POINT('',(8.732556658325E-02,-3.16612880746E-02,0.));
#31 = CARTESIAN_POINT('',(0.401149593981,2.582308936201E-02,0.));
#32 = CARTESIAN_POINT('',(0.434667883217,-3.450667018359E-02,0.));
#33 = CARTESIAN_POINT('',(0.993176991541,-1.588260609196E-02,0.));
#34 = CARTESIAN_POINT('',(1.379325037595,-5.149951587253E-02,0.));
#35 = CARTESIAN_POINT('',(1.494872011529,-5.772057736245E-02,0.));
#36 = CARTESIAN_POINT('',(1.511350576771,5.491846632016E-02,0.));
#37 = CARTESIAN_POINT('',(1.576287896674,6.607468676759E-03,0.));
#38 = CARTESIAN_POINT('',(1.685120510733,-5.638534509386E-03,0.));
#39 = CARTESIAN_POINT('',(1.826189291976,4.239081201508E-02,0.));
#40 = CARTESIAN_POINT('',(2.060533507385,1.964570034872E-02,0.));
#41 = CARTESIAN_POINT('',(2.121764718412,-5.851769373078E-02,0.));
#42 = CARTESIAN_POINT('',(2.374062369769,5.80523452389E-02,0.));
#43 = CARTESIAN_POINT('',(2.457544426141,5.699048217074E-03,0.));
#44 = CARTESIAN_POINT('',(2.60533999496,-4.111855460618E-02,0.));
#45 = CARTESIAN_POINT('',(3.131282262595,2.113184847369E-02,0.));
#46 = CARTESIAN_POINT('',(3.241210221094,2.424179669382E-03,0.));
#47 = CARTESIAN_POINT('',(3.769617003234,-5.736548949456E-02,0.));
#48 = CARTESIAN_POINT('',(4.,3.014779622916E-03,0.));
#49 = PCURVE('',#50,#55);
#50 = PLANE('',#51);
#51 = AXIS2_PLACEMENT_3D('',#52,#53,#54);
#52 = CARTESIAN_POINT('',(1.98910250601,0.1,0.));
#53 = DIRECTION('',(0.,0.,1.));
#54 = DIRECTION('',(1.,0.,-0.));
#55 = DEFINITIONAL_REPRESENTATION('',(#56),#78);
#56 = B_SPLINE_CURVE_WITH_KNOTS('',1,(#57,#58,#59,#60,#61,#62,#63,#64,
    #65,#66,#67,#68,#69,#70,#71,#72,#73,#74,#75,#76,#77),.UNSPECIFIED.,
  .F.,.F.,(2,1,1,1,1,1,1,1,1,1,1,1,1,1,1,1,1,1,1,1,2),(0.,
    2.059084424963E-02,2.933318411765E-02,0.103403248845,0.119426019167,
    0.249162408623,0.339191660761,0.36605607315,0.392484882479,
    0.411275353145,0.436701546312,0.471298456344,0.525959823718,
    0.549011459697,0.613535103706,0.636412287099,0.672405122752,
    0.795360976433,0.821248945193,0.944707480286,1.),.UNSPECIFIED.);
#57 = CARTESIAN_POINT('',(-1.98910250601,-4.267225847555E-02));
#58 = CARTESIAN_POINT('',(-1.933993084834,-0.112164731537));
#59 = CARTESIAN_POINT('',(-1.901776939427,-0.131661288075));
#60 = CARTESIAN_POINT('',(-1.587952912029,-7.417691063799E-02));
#61 = CARTESIAN_POINT('',(-1.554434622793,-0.134506670184));
#62 = CARTESIAN_POINT('',(-0.995925514469,-0.115882606092));
#63 = CARTESIAN_POINT('',(-0.609777468415,-0.151499515873));
#64 = CARTESIAN_POINT('',(-0.494230494481,-0.157720577362));
#65 = CARTESIAN_POINT('',(-0.477751929239,-4.508153367984E-02));
#66 = CARTESIAN_POINT('',(-0.412814609336,-9.339253132324E-02));
#67 = CARTESIAN_POINT('',(-0.303981995277,-0.105638534509));
#68 = CARTESIAN_POINT('',(-0.162913214034,-5.760918798492E-02));
#69 = CARTESIAN_POINT('',(7.14310013747E-02,-8.035429965128E-02));
#70 = CARTESIAN_POINT('',(0.132662212402,-0.158517693731));
#71 = CARTESIAN_POINT('',(0.384959863759,-4.19476547611E-02));
#72 = CARTESIAN_POINT('',(0.468441920131,-9.430095178293E-02));
#73 = CARTESIAN_POINT('',(0.61623748895,-0.141118554606));
#74 = CARTESIAN_POINT('',(1.142179756585,-7.886815152631E-02));
#75 = CARTESIAN_POINT('',(1.252107715084,-9.757582033062E-02));
#76 = CARTESIAN_POINT('',(1.780514497224,-0.157365489495));
#77 = CARTESIAN_POINT('',(2.01089749399,-9.698522037708E-02));
#78 = ( GEOMETRIC_REPRESENTATION_CONTEXT(2) 
PARAMETRIC_REPRESENTATION_CONTEXT() REPRESENTATION_CONTEXT('2D SPACE',''
  ) );
#79 = ORIENTED_EDGE('',*,*,#80,.T.);
#80 = EDGE_CURVE('',#24,#81,#83,.T.);
#81 = VERTEX_POINT('',#82);
#82 = CARTESIAN_POINT('',(4.,0.196985220377,0.));
#83 = SURFACE_CURVE('',#84,(#88),.PCURVE_S1.);
#84 = LINE('',#85,#86);
#85 = CARTESIAN_POINT('',(4.,3.014779622916E-03,0.));
#86 = VECTOR('',#87,1.);
#87 = DIRECTION('',(0.,1.,0.));
#88 = PCURVE('',#50,#89);
#89 = DEFINITIONAL_REPRESENTATION('',(#90),#94);
#90 = LINE('',#91,#92);
#91 = CARTESIAN_POINT('',(2.01089749399,-9.698522037708E-02));
#92 = VECTOR('',#93,1.);
#93 = DIRECTION('',(0.,1.));
#94 = ( GEOMETRIC_REPRESENTATION_CONTEXT(2) 
PARAMETRIC_REPRESENTATION_CONTEXT() REPRESENTATION_CONTEXT('2D SPACE',''
  ) );
#95 = ORIENTED_EDGE('',*,*,#96,.T.);
#96 = EDGE_CURVE('',#81,#97,#99,.T.);
#97 = VERTEX_POINT('',#98);
#98 = CARTESIAN_POINT('',(0.,0.142672258476,0.));
#99 = SURFACE_CURVE('',#100,(#122),.PCURVE_S1.);
#100 = B_SPLINE_CURVE_WITH_KNOTS('',1,(#101,#102,#103,#104,#105,#106,
    #107,#108,#109,#110,#111,#112,#113,#114,#115,#116,#117,#118,#119,
    #120,#121),.UNSPECIFIED.,.F.,.F.,(2,1,1,1,1,1,1,1,1,1,1,1,1,1,1,1,1,
    1,1,1,2),(0.,5.529251971407E-02,0.178751054807,0.204639023567,
    0.327594877248,0.363587712901,0.386464896294,0.450988540303,
    0.474040176282,0.528701543656,0.563298453688,0.588724646855,
    0.607515117521,0.63394392685,0.660808339239,0.750837591377,
    0.880573980833,0.896596751155,0.970666815882,0.97940915575,1.),
  .UNSPECIFIED.);
#101 = CARTESIAN_POINT('',(4.,0.196985220377,0.));
#102 = CARTESIAN_POINT('',(3.769617003234,0.257365489495,0.));
#103 = CARTESIAN_POINT('',(3.241210221094,0.197575820331,0.));
#104 = CARTESIAN_POINT('',(3.131282262595,0.178868151526,0.));
#105 = CARTESIAN_POINT('',(2.60533999496,0.241118554606,0.));
#106 = CARTESIAN_POINT('',(2.457544426141,0.194300951783,0.));
#107 = CARTESIAN_POINT('',(2.374062369769,0.141947654761,0.));
#108 = CARTESIAN_POINT('',(2.121764718412,0.258517693731,0.));
#109 = CARTESIAN_POINT('',(2.060533507385,0.180354299651,0.));
#110 = CARTESIAN_POINT('',(1.826189291976,0.157609187985,0.));
#111 = CARTESIAN_POINT('',(1.685120510733,0.205638534509,0.));
#112 = CARTESIAN_POINT('',(1.576287896674,0.193392531323,0.));
#113 = CARTESIAN_POINT('',(1.511350576771,0.14508153368,0.));
#114 = CARTESIAN_POINT('',(1.494872011529,0.257720577362,0.));
#115 = CARTESIAN_POINT('',(1.379325037595,0.251499515873,0.));
#116 = CARTESIAN_POINT('',(0.993176991541,0.215882606092,0.));
#117 = CARTESIAN_POINT('',(0.434667883217,0.234506670184,0.));
#118 = CARTESIAN_POINT('',(0.401149593981,0.174176910638,0.));
#119 = CARTESIAN_POINT('',(8.732556658325E-02,0.231661288075,0.));
#120 = CARTESIAN_POINT('',(5.51094211762E-02,0.212164731537,0.));
#121 = CARTESIAN_POINT('',(0.,0.142672258476,0.));
#122 = PCURVE('',#50,#123);
#123 = DEFINITIONAL_REPRESENTATION('',(#124),#146);
#124 = B_SPLINE_CURVE_WITH_KNOTS('',1,(#125,#126,#127,#128,#129,#130,
    #131,#132,#133,#134,#135,#136,#137,#138,#139,#140,#141,#142,#143,
    #144,#145),.UNSPECIFIED.,.F.,.F.,(2,1,1,1,1,1,1,1,1,1,1,1,1,1,1,1,1,
    1,1,1,2),(0.,5.529251971407E-02,0.178751054807,0.204639023567,
    0.327594877248,0.363587712901,0.386464896294,0.450988540303,
    0.474040176282,0.528701543656,0.563298453688,0.588724646855,
    0.607515117521,0.63394392685,0.660808339239,0.750837591377,
    0.880573980833,0.896596751155,0.970666815882,0.97940915575,1.),
  .UNSPECIFIED.);
#125 = CARTESIAN_POINT('',(2.01089749399,9.698522037708E-02));
#126 = CARTESIAN_POINT('',(1.780514497224,0.157365489495));
#127 = CARTESIAN_POINT('',(1.252107715084,9.757582033062E-02));
#128 = CARTESIAN_POINT('',(1.142179756585,7.886815152631E-02));
#129 = CARTESIAN_POINT('',(0.61623748895,0.141118554606));
#130 = CARTESIAN_POINT('',(0.468441920131,9.430095178293E-02));
#131 = CARTESIAN_POINT('',(0.384959863759,4.19476547611E-02));
#132 = CARTESIAN_POINT('',(0.132662212402,0.158517693731));
#133 = CARTESIAN_POINT('',(7.14310013747E-02,8.035429965128E-02));
#134 = CARTESIAN_POINT('',(-0.162913214034,5.760918798492E-02));
#135 = CARTESIAN_POINT('',(-0.303981995277,0.105638534509));
#136 = CARTESIAN_POINT('',(-0.412814609336,9.339253132324E-02));
#137 = CARTESIAN_POINT('',(-0.477751929239,4.508153367984E-02));
#138 = CARTESIAN_POINT('',(-0.494230494481,0.157720577362));
#139 = CARTESIAN_POINT('',(-0.609777468415,0.151499515873));
#140 = CARTESIAN_POINT('',(-0.995925514469,0.115882606092));
#141 = CARTESIAN_POINT('',(-1.554434622793,0.134506670184));
#142 = CARTESIAN_POINT('',(-1.587952912029,7.417691063799E-02));
#143 = CARTESIAN_POINT('',(-1.901776939427,0.131661288075));
#144 = CARTESIAN_POINT('',(-1.933993084834,0.112164731537));
#145 = CARTESIAN_POINT('',(-1.98910250601,4.267225847555E-02));
#146 = ( GEOMETRIC_REPRESENTATION_CONTEXT(2) 
PARAMETRIC_REPRESENTATION_CONTEXT() REPRESENTATION_CONTEXT('2D SPACE',''
  ) );
#147 = ORIENTED_EDGE('',*,*,#148,.T.);
#148 = EDGE_CURVE('',#97,#22,#149,.T.);
#149 = SURFACE_CURVE('',#150,(#154),.PCURVE_S1.);
#150 = LINE('',#151,#152);
#151 = CARTESIAN_POINT('',(0.,0.142672258476,0.));
#152 = VECTOR('',#153,1.);
#153 = DIRECTION('',(0.,-1.,0.));
#154 = PCURVE('',#50,#155);
#155 = DEFINITIONAL_REPRESENTATION('',(#156),#160);
#156 = LINE('',#157,#158);
#157 = CARTESIAN_POINT('',(-1.98910250601,4.267225847555E-02));
#158 = VECTOR('',#159,1.);
#159 = DIRECTION('',(0.,-1.));
#160 = ( GEOMETRIC_REPRESENTATION_CONTEXT(2) 
PARAMETRIC_REPRESENTATION_CONTEXT() REPRESENTATION_CONTEXT('2D SPACE',''
  ) );
#161 = ( GEOMETRIC_REPRESENTATION_CONTEXT(3) 
GLOBAL_UNCERTAINTY_ASSIGNED_CONTEXT((#165)) GLOBAL_UNIT_ASSIGNED_CONTEXT
((#162,#163,#164)) REPRESENTATION_CONTEXT('Context #1',
  '3D Context with UNIT and UNCERTAINTY') );
#162 = ( LENGTH_UNIT() NAMED_UNIT(*) SI_UNIT(.MILLI.,.METRE.) );
#163 = ( NAMED_UNIT(*) PLANE_ANGLE_UNIT() SI_UNIT($,.RADIAN.) );
#164 = ( NAMED_UNIT(*) SI_UNIT($,.STERADIAN.) SOLID_ANGLE_UNIT() );
#165 = UNCERTAINTY_MEASURE_WITH_UNIT(LENGTH_MEASURE(1.E-07),#162,
  'distance_accuracy_value','confusion accuracy');
#166 = PRODUCT_RELATED_PRODUCT_CATEGORY('part',$,(#7));
ENDSEC;
END-ISO-10303-21;
