ISO-10303-21;
HEADER;
FILE_DESCRIPTION(('Open CASCADE Model'),'2;1');
FILE_NAME('Open CASCADE Shape Model','2026-05-29T14:30:30',('Author'),(
    'Open CASCADE'),'Open CASCADE STEP processor 7.9','Open CASCADE 7.9'
  ,'Unknown');
FILE_SCHEMA(('AUTOMOTIVE_DESIGN { 1 0 10303 214 1 1 1 1 }'));
ENDSEC;
DATA;
#1 = APPLICATION_PROTOCOL_DEFINITION('international standard',
  'automotive_design',2000,#2);
#2 = APPLICATION_CONTEXT(
  'core data for automotive mechanical design processes');
#3 = SHAPE_DEFINITION_REPRESENTATION(#4,#10);
#4 = PRODUCT_DEFINITION_SHAPE('','',#5);
#5 = PRODUCT_DEFINITION('design','',#6,#9);
#6 = PRODUCT_DEFINITION_FORMATION('','',#7);
#7 = PRODUCT('Open CASCADE STEP translator 7.9 19',
  'Open CASCADE STEP translator 7.9 19','',(#8));
#8 = PRODUCT_CONTEXT('',#2,'mechanical');
#9 = PRODUCT_DEFINITION_CONTEXT('part definition',#2,'design');
#10 = MANIFOLD_SURFACE_SHAPE_REPRESENTATION('',(#11,#15),#121);
#11 = AXIS2_PLACEMENT_3D('',#12,#13,#14);
#12 = CARTESIAN_POINT('',(0.,0.,0.));
#13 = DIRECTION('',(0.,0.,1.));
#14 = DIRECTION('',(1.,0.,-0.));
#15 = SHELL_BASED_SURFACE_MODEL('',(#16));
#16 = OPEN_SHELL('',(#17));
#17 = ADVANCED_FACE('',(#18),#40,.T.);
#18 = FACE_BOUND('',#19,.T.);
#19 = EDGE_LOOP('',(#20,#59,#75,#107));
#20 = ORIENTED_EDGE('',*,*,#21,.T.);
#21 = EDGE_CURVE('',#22,#24,#26,.T.);
#22 = VERTEX_POINT('',#23);
#23 = CARTESIAN_POINT('',(0.,-12.3366495592,0.));
#24 = VERTEX_POINT('',#25);
#25 = CARTESIAN_POINT('',(1.5E+03,17.826534770176,0.));
#26 = SURFACE_CURVE('',#27,(#39),.PCURVE_S1.);
#27 = B_SPLINE_CURVE_WITH_KNOTS('',1,(#28,#29,#30,#31,#32,#33,#34,#35,
    #36,#37,#38),.UNSPECIFIED.,.F.,.F.,(2,1,1,1,1,1,1,1,1,1,2),(0.,
    0.106000734452,0.393199641599,0.545506097398,0.608206087924,
    0.673342150787,0.762442499395,0.83462005245,0.874906849748,
    0.913903551174,1.),.UNSPECIFIED.);
#28 = CARTESIAN_POINT('',(0.,-12.3366495592,0.));
#29 = CARTESIAN_POINT('',(158.19496451811,34.02704894984,0.));
#30 = CARTESIAN_POINT('',(602.86172309581,-7.94321999723,0.));
#31 = CARTESIAN_POINT('',(839.56039404515,-16.74867285949,0.));
#32 = CARTESIAN_POINT('',(915.91907147045,43.892758270026,0.));
#33 = CARTESIAN_POINT('',(1.009078363387E+03,4.111383434243,0.));
#34 = CARTESIAN_POINT('',(1.143559594753E+03,-29.28595600766,0.));
#35 = CARTESIAN_POINT('',(1.24516695002E+03,18.417687719032,0.));
#36 = CARTESIAN_POINT('',(1.306073979651E+03,3.73067263813,0.));
#37 = CARTESIAN_POINT('',(1.366702870104E+03,5.19172856389,0.));
#38 = CARTESIAN_POINT('',(1.5E+03,17.826534770176,0.));
#39 = PCURVE('',#40,#45);
#40 = PLANE('',#41);
#41 = AXIS2_PLACEMENT_3D('',#42,#43,#44);
#42 = CARTESIAN_POINT('',(740.5907146744,75.,0.));
#43 = DIRECTION('',(0.,0.,1.));
#44 = DIRECTION('',(1.,0.,-0.));
#45 = DEFINITIONAL_REPRESENTATION('',(#46),#58);
#46 = B_SPLINE_CURVE_WITH_KNOTS('',1,(#47,#48,#49,#50,#51,#52,#53,#54,
    #55,#56,#57),.UNSPECIFIED.,.F.,.F.,(2,1,1,1,1,1,1,1,1,1,2),(0.,
    0.106000734452,0.393199641599,0.545506097398,0.608206087924,
    0.673342150787,0.762442499395,0.83462005245,0.874906849748,
    0.913903551174,1.),.UNSPECIFIED.);
#47 = CARTESIAN_POINT('',(-740.5907146744,-87.3366495592));
#48 = CARTESIAN_POINT('',(-582.3957501562,-40.97295105016));
#49 = CARTESIAN_POINT('',(-137.7289915785,-82.94321999723));
#50 = CARTESIAN_POINT('',(98.969679370751,-91.74867285949));
#51 = CARTESIAN_POINT('',(175.32835679605,-31.10724172997));
#52 = CARTESIAN_POINT('',(268.48764871272,-70.88861656575));
#53 = CARTESIAN_POINT('',(402.96888007825,-104.2859560076));
#54 = CARTESIAN_POINT('',(504.57623534523,-56.58231228096));
#55 = CARTESIAN_POINT('',(565.48326497633,-71.26932736187));
#56 = CARTESIAN_POINT('',(626.11215542995,-69.80827143611));
#57 = CARTESIAN_POINT('',(759.40928532559,-57.17346522982));
#58 = ( GEOMETRIC_REPRESENTATION_CONTEXT(2) 
PARAMETRIC_REPRESENTATION_CONTEXT() REPRESENTATION_CONTEXT('2D SPACE',''
  ) );
#59 = ORIENTED_EDGE('',*,*,#60,.T.);
#60 = EDGE_CURVE('',#24,#61,#63,.T.);
#61 = VERTEX_POINT('',#62);
#62 = CARTESIAN_POINT('',(1.5E+03,132.17346522982,0.));
#63 = SURFACE_CURVE('',#64,(#68),.PCURVE_S1.);
#64 = LINE('',#65,#66);
#65 = CARTESIAN_POINT('',(1.5E+03,17.826534770176,0.));
#66 = VECTOR('',#67,1.);
#67 = DIRECTION('',(0.,1.,0.));
#68 = PCURVE('',#40,#69);
#69 = DEFINITIONAL_REPRESENTATION('',(#70),#74);
#70 = LINE('',#71,#72);
#71 = CARTESIAN_POINT('',(759.40928532559,-57.17346522982));
#72 = VECTOR('',#73,1.);
#73 = DIRECTION('',(0.,1.));
#74 = ( GEOMETRIC_REPRESENTATION_CONTEXT(2) 
PARAMETRIC_REPRESENTATION_CONTEXT() REPRESENTATION_CONTEXT('2D SPACE',''
  ) );
#75 = ORIENTED_EDGE('',*,*,#76,.T.);
#76 = EDGE_CURVE('',#61,#77,#79,.T.);
#77 = VERTEX_POINT('',#78);
#78 = CARTESIAN_POINT('',(0.,162.3366495592,0.));
#79 = SURFACE_CURVE('',#80,(#92),.PCURVE_S1.);
#80 = B_SPLINE_CURVE_WITH_KNOTS('',1,(#81,#82,#83,#84,#85,#86,#87,#88,
    #89,#90,#91),.UNSPECIFIED.,.F.,.F.,(2,1,1,1,1,1,1,1,1,1,2),(0.,
    8.609644882598E-02,0.125093150252,0.16537994755,0.237557500605,
    0.326657849213,0.391793912076,0.454493902602,0.606800358401,
    0.893999265548,1.),.UNSPECIFIED.);
#81 = CARTESIAN_POINT('',(1.5E+03,132.17346522982,0.));
#82 = CARTESIAN_POINT('',(1.366702870104E+03,144.80827143611,0.));
#83 = CARTESIAN_POINT('',(1.306073979651E+03,146.26932736187,0.));
#84 = CARTESIAN_POINT('',(1.24516695002E+03,131.58231228096,0.));
#85 = CARTESIAN_POINT('',(1.143559594753E+03,179.28595600766,0.));
#86 = CARTESIAN_POINT('',(1.009078363387E+03,145.88861656575,0.));
#87 = CARTESIAN_POINT('',(915.91907147045,106.10724172997,0.));
#88 = CARTESIAN_POINT('',(839.56039404515,166.74867285949,0.));
#89 = CARTESIAN_POINT('',(602.86172309581,157.94321999723,0.));
#90 = CARTESIAN_POINT('',(158.19496451811,115.97295105016,0.));
#91 = CARTESIAN_POINT('',(0.,162.3366495592,0.));
#92 = PCURVE('',#40,#93);
#93 = DEFINITIONAL_REPRESENTATION('',(#94),#106);
#94 = B_SPLINE_CURVE_WITH_KNOTS('',1,(#95,#96,#97,#98,#99,#100,#101,#102
    ,#103,#104,#105),.UNSPECIFIED.,.F.,.F.,(2,1,1,1,1,1,1,1,1,1,2),(0.,
    8.609644882598E-02,0.125093150252,0.16537994755,0.237557500605,
    0.326657849213,0.391793912076,0.454493902602,0.606800358401,
    0.893999265548,1.),.UNSPECIFIED.);
#95 = CARTESIAN_POINT('',(759.40928532559,57.173465229824));
#96 = CARTESIAN_POINT('',(626.11215542995,69.80827143611));
#97 = CARTESIAN_POINT('',(565.48326497633,71.26932736187));
#98 = CARTESIAN_POINT('',(504.57623534523,56.582312280968));
#99 = CARTESIAN_POINT('',(402.96888007825,104.28595600766));
#100 = CARTESIAN_POINT('',(268.48764871272,70.888616565757));
#101 = CARTESIAN_POINT('',(175.32835679605,31.107241729974));
#102 = CARTESIAN_POINT('',(98.969679370751,91.74867285949));
#103 = CARTESIAN_POINT('',(-137.7289915785,82.94321999723));
#104 = CARTESIAN_POINT('',(-582.3957501562,40.97295105016));
#105 = CARTESIAN_POINT('',(-740.5907146744,87.336649559209));
#106 = ( GEOMETRIC_REPRESENTATION_CONTEXT(2) 
PARAMETRIC_REPRESENTATION_CONTEXT() REPRESENTATION_CONTEXT('2D SPACE',''
  ) );
#107 = ORIENTED_EDGE('',*,*,#108,.T.);
#108 = EDGE_CURVE('',#77,#22,#109,.T.);
#109 = SURFACE_CURVE('',#110,(#114),.PCURVE_S1.);
#110 = LINE('',#111,#112);
#111 = CARTESIAN_POINT('',(0.,162.3366495592,0.));
#112 = VECTOR('',#113,1.);
#113 = DIRECTION('',(0.,-1.,0.));
#114 = PCURVE('',#40,#115);
#115 = DEFINITIONAL_REPRESENTATION('',(#116),#120);
#116 = LINE('',#117,#118);
#117 = CARTESIAN_POINT('',(-740.5907146744,87.336649559209));
#118 = VECTOR('',#119,1.);
#119 = DIRECTION('',(0.,-1.));
#120 = ( GEOMETRIC_REPRESENTATION_CONTEXT(2) 
PARAMETRIC_REPRESENTATION_CONTEXT() REPRESENTATION_CONTEXT('2D SPACE',''
  ) );
#121 = ( GEOMETRIC_REPRESENTATION_CONTEXT(3) 
GLOBAL_UNCERTAINTY_ASSIGNED_CONTEXT((#125)) GLOBAL_UNIT_ASSIGNED_CONTEXT
((#122,#123,#124)) REPRESENTATION_CONTEXT('Context #1',
  '3D Context with UNIT and UNCERTAINTY') );
#122 = ( LENGTH_UNIT() NAMED_UNIT(*) SI_UNIT(.MILLI.,.METRE.) );
#123 = ( NAMED_UNIT(*) PLANE_ANGLE_UNIT() SI_UNIT($,.RADIAN.) );
#124 = ( NAMED_UNIT(*) SI_UNIT($,.STERADIAN.) SOLID_ANGLE_UNIT() );
#125 = UNCERTAINTY_MEASURE_WITH_UNIT(LENGTH_MEASURE(1.E-07),#122,
  'distance_accuracy_value','confusion accuracy');
#126 = PRODUCT_RELATED_PRODUCT_CATEGORY('part',$,(#7));
ENDSEC;
END-ISO-10303-21;
