ISO-10303-21;
HEADER;
FILE_DESCRIPTION(('Open CASCADE Model'),'2;1');
FILE_NAME('Open CASCADE Shape Model','2026-05-28T17:04:49',('Author'),(
    'Open CASCADE'),'Open CASCADE STEP processor 7.9','Open CASCADE 7.9'
  ,'Unknown');
FILE_SCHEMA(('AUTOMOTIVE_DESIGN { 1 0 10303 214 1 1 1 1 }'));
ENDSEC;
DATA;
#1 = APPLICATION_PROTOCOL_DEFINITION('international standard',
  'automotive_design',2000,#2);
#2 = APPLICATION_CONTEXT(
  'core data for automotive mechanical design processes');
#3 = SHAPE_DEFINITION_REPRESENTATION(#4,#10);
#4 = PRODUCT_DEFINITION_SHAPE('','',#5);
#5 = PRODUCT_DEFINITION('design','',#6,#9);
#6 = PRODUCT_DEFINITION_FORMATION('','',#7);
#7 = PRODUCT('Open CASCADE STEP translator 7.9 95',
  'Open CASCADE STEP translator 7.9 95','',(#8));
#8 = PRODUCT_CONTEXT('',#2,'mechanical');
#9 = PRODUCT_DEFINITION_CONTEXT('part definition',#2,'design');
#10 = MANIFOLD_SURFACE_SHAPE_REPRESENTATION('',(#11,#15),#249);
#11 = AXIS2_PLACEMENT_3D('',#12,#13,#14);
#12 = CARTESIAN_POINT('',(0.,0.,0.));
#13 = DIRECTION('',(0.,0.,1.));
#14 = DIRECTION('',(1.,0.,-0.));
#15 = SHELL_BASED_SURFACE_MODEL('',(#16));
#16 = OPEN_SHELL('',(#17));
#17 = ADVANCED_FACE('',(#18),#72,.T.);
#18 = FACE_BOUND('',#19,.T.);
#19 = EDGE_LOOP('',(#20,#123,#139,#235));
#20 = ORIENTED_EDGE('',*,*,#21,.T.);
#21 = EDGE_CURVE('',#22,#24,#26,.T.);
#22 = VERTEX_POINT('',#23);
#23 = CARTESIAN_POINT('',(0.,5.355415618257E-02,0.));
#24 = VERTEX_POINT('',#25);
#25 = CARTESIAN_POINT('',(8.4,-1.684087453494E-02,0.));
#26 = SURFACE_CURVE('',#27,(#71),.PCURVE_S1.);
#27 = B_SPLINE_CURVE_WITH_KNOTS('',1,(#28,#29,#30,#31,#32,#33,#34,#35,
    #36,#37,#38,#39,#40,#41,#42,#43,#44,#45,#46,#47,#48,#49,#50,#51,#52,
    #53,#54,#55,#56,#57,#58,#59,#60,#61,#62,#63,#64,#65,#66,#67,#68,#69,
    #70),.UNSPECIFIED.,.F.,.F.,(2,1,1,1,1,1,1,1,1,1,1,1,1,1,1,1,1,1,1,1,
    1,1,1,1,1,1,1,1,1,1,1,1,1,1,1,1,1,1,1,1,1,1,2),(0.,
    1.732463519456E-02,2.691339336606E-02,7.720695339238E-02,
    0.111462027557,0.128642452985,0.134551662287,0.141659088769,
    0.170912604717,0.183817147402,0.205407593999,0.219103314223,
    0.262810265956,0.294692826318,0.360015844021,0.370909981901,
    0.373917611696,0.416772554146,0.419705969246,0.50855606326,
    0.520081837521,0.530465296563,0.544341939993,0.547575320095,
    0.576400457589,0.582053181009,0.610840230192,0.649739779249,
    0.685907554963,0.733357168296,0.74176888533,0.746355058302,
    0.762305293041,0.820522814365,0.840864323357,0.850726844144,
    0.865986148579,0.870617710918,0.89191248286,0.895162202185,
    0.905804828193,0.911119054155,1.),.UNSPECIFIED.);
#28 = CARTESIAN_POINT('',(0.,5.355415618257E-02,0.));
#29 = CARTESIAN_POINT('',(0.127596879329,-3.884093877895E-02,0.));
#30 = CARTESIAN_POINT('',(0.129331901669,4.833448346581E-02,0.));
#31 = CARTESIAN_POINT('',(0.586644176945,5.240596399176E-02,0.));
#32 = CARTESIAN_POINT('',(0.886749885119,-3.103210765755E-02,0.));
#33 = CARTESIAN_POINT('',(1.040681118022,-4.357274630995E-03,0.));
#34 = CARTESIAN_POINT('',(1.092390096713,1.025423710916E-02,0.));
#35 = CARTESIAN_POINT('',(1.119393613221,-4.846346351712E-02,0.));
#36 = CARTESIAN_POINT('',(1.385289432312,-4.071642864813E-02,0.));
#37 = CARTESIAN_POINT('',(1.455793583126,5.308518341435E-02,0.));
#38 = CARTESIAN_POINT('',(1.640328313735,-1.393046903294E-02,0.));
#39 = CARTESIAN_POINT('',(1.763448229986,-3.267208838489E-02,0.));
#40 = CARTESIAN_POINT('',(2.159993111986,-6.058869572994E-03,0.));
#41 = CARTESIAN_POINT('',(2.445224575058,-5.796065988914E-02,0.));
#42 = CARTESIAN_POINT('',(3.038151270186,-2.232570055771E-02,0.));
#43 = CARTESIAN_POINT('',(3.108417988483,4.750283847636E-02,0.));
#44 = CARTESIAN_POINT('',(3.133324043453,3.620423856001E-02,0.));
#45 = CARTESIAN_POINT('',(3.515658527108,-3.914947454394E-02,0.));
#46 = CARTESIAN_POINT('',(3.532771284313,-5.961080077732E-02,0.));
#47 = CARTESIAN_POINT('',(4.333479363732,4.819928797531E-02,0.));
#48 = CARTESIAN_POINT('',(4.43828549116,4.796048185859E-02,0.));
#49 = CARTESIAN_POINT('',(4.489119198832,-3.160644649719E-02,0.));
#50 = CARTESIAN_POINT('',(4.583383341719,5.227748619402E-02,0.));
#51 = CARTESIAN_POINT('',(4.612780845839,5.177278607222E-02,0.));
#52 = CARTESIAN_POINT('',(4.855710410768,-4.665797796116E-02,0.));
#53 = CARTESIAN_POINT('',(4.906006185402,-3.605397747821E-02,0.));
#54 = CARTESIAN_POINT('',(5.167592121974,-4.578758398373E-02,0.));
#55 = CARTESIAN_POINT('',(5.520225970763,-1.806160825593E-02,0.));
#56 = CARTESIAN_POINT('',(5.846744075962,2.129562936734E-02,0.));
#57 = CARTESIAN_POINT('',(6.272488960851,-4.875758283993E-02,0.));
#58 = CARTESIAN_POINT('',(6.29561208463,2.415317700307E-02,0.));
#59 = CARTESIAN_POINT('',(6.337222031507,2.693869926542E-02,0.));
#60 = CARTESIAN_POINT('',(6.462371659952,-4.636805030313E-02,0.));
#61 = CARTESIAN_POINT('',(6.991181273251,-2.169871109918E-02,0.));
#62 = CARTESIAN_POINT('',(7.174345471711,-4.748065016511E-02,0.));
#63 = CARTESIAN_POINT('',(7.187085869014,4.129184528952E-02,0.));
#64 = CARTESIAN_POINT('',(7.287684806774,-5.427561573188E-02,0.));
#65 = CARTESIAN_POINT('',(7.298336564585,-1.352905880404E-02,0.));
#66 = CARTESIAN_POINT('',(7.491860895471,-2.016420529121E-02,0.));
#67 = CARTESIAN_POINT('',(7.493131934683,-4.968726963917E-02,0.));
#68 = CARTESIAN_POINT('',(7.565726278003,1.430964303664E-02,0.));
#69 = CARTESIAN_POINT('',(7.591841947855,-2.63489993635E-02,0.));
#70 = CARTESIAN_POINT('',(8.4,-1.684087453494E-02,0.));
#71 = PCURVE('',#72,#77);
#72 = PLANE('',#73);
#73 = AXIS2_PLACEMENT_3D('',#74,#75,#76);
#74 = CARTESIAN_POINT('',(4.235531894273,0.1,0.));
#75 = DIRECTION('',(0.,0.,1.));
#76 = DIRECTION('',(1.,0.,-0.));
#77 = DEFINITIONAL_REPRESENTATION('',(#78),#122);
#78 = B_SPLINE_CURVE_WITH_KNOTS('',1,(#79,#80,#81,#82,#83,#84,#85,#86,
    #87,#88,#89,#90,#91,#92,#93,#94,#95,#96,#97,#98,#99,#100,#101,#102,
    #103,#104,#105,#106,#107,#108,#109,#110,#111,#112,#113,#114,#115,
    #116,#117,#118,#119,#120,#121),.UNSPECIFIED.,.F.,.F.,(2,1,1,1,1,1,1,
    1,1,1,1,1,1,1,1,1,1,1,1,1,1,1,1,1,1,1,1,1,1,1,1,1,1,1,1,1,1,1,1,1,1,
    1,2),(0.,1.732463519456E-02,2.691339336606E-02,7.720695339238E-02,
    0.111462027557,0.128642452985,0.134551662287,0.141659088769,
    0.170912604717,0.183817147402,0.205407593999,0.219103314223,
    0.262810265956,0.294692826318,0.360015844021,0.370909981901,
    0.373917611696,0.416772554146,0.419705969246,0.50855606326,
    0.520081837521,0.530465296563,0.544341939993,0.547575320095,
    0.576400457589,0.582053181009,0.610840230192,0.649739779249,
    0.685907554963,0.733357168296,0.74176888533,0.746355058302,
    0.762305293041,0.820522814365,0.840864323357,0.850726844144,
    0.865986148579,0.870617710918,0.89191248286,0.895162202185,
    0.905804828193,0.911119054155,1.),.UNSPECIFIED.);
#79 = CARTESIAN_POINT('',(-4.235531894273,-4.644584381743E-02));
#80 = CARTESIAN_POINT('',(-4.107935014944,-0.138840938779));
#81 = CARTESIAN_POINT('',(-4.106199992604,-5.166551653419E-02));
#82 = CARTESIAN_POINT('',(-3.648887717328,-4.759403600824E-02));
#83 = CARTESIAN_POINT('',(-3.348782009154,-0.131032107658));
#84 = CARTESIAN_POINT('',(-3.194850776251,-0.104357274631));
#85 = CARTESIAN_POINT('',(-3.14314179756,-8.974576289084E-02));
#86 = CARTESIAN_POINT('',(-3.116138281052,-0.148463463517));
#87 = CARTESIAN_POINT('',(-2.850242461961,-0.140716428648));
#88 = CARTESIAN_POINT('',(-2.779738311147,-4.691481658565E-02));
#89 = CARTESIAN_POINT('',(-2.595203580538,-0.113930469033));
#90 = CARTESIAN_POINT('',(-2.472083664287,-0.132672088385));
#91 = CARTESIAN_POINT('',(-2.075538782287,-0.106058869573));
#92 = CARTESIAN_POINT('',(-1.790307319215,-0.157960659889));
#93 = CARTESIAN_POINT('',(-1.197380624087,-0.122325700558));
#94 = CARTESIAN_POINT('',(-1.12711390579,-5.249716152364E-02));
#95 = CARTESIAN_POINT('',(-1.10220785082,-6.379576143999E-02));
#96 = CARTESIAN_POINT('',(-0.719873367165,-0.139149474544));
#97 = CARTESIAN_POINT('',(-0.70276060996,-0.159610800777));
#98 = CARTESIAN_POINT('',(9.794746945933E-02,-5.180071202469E-02));
#99 = CARTESIAN_POINT('',(0.202753596887,-5.203951814141E-02));
#100 = CARTESIAN_POINT('',(0.253587304558,-0.131606446497));
#101 = CARTESIAN_POINT('',(0.347851447446,-4.772251380598E-02));
#102 = CARTESIAN_POINT('',(0.377248951566,-4.822721392778E-02));
#103 = CARTESIAN_POINT('',(0.620178516495,-0.146657977961));
#104 = CARTESIAN_POINT('',(0.670474291129,-0.136053977478));
#105 = CARTESIAN_POINT('',(0.9320602277,-0.145787583984));
#106 = CARTESIAN_POINT('',(1.28469407649,-0.118061608256));
#107 = CARTESIAN_POINT('',(1.611212181689,-7.870437063266E-02));
#108 = CARTESIAN_POINT('',(2.036957066578,-0.14875758284));
#109 = CARTESIAN_POINT('',(2.060080190357,-7.584682299693E-02));
#110 = CARTESIAN_POINT('',(2.101690137234,-7.306130073458E-02));
#111 = CARTESIAN_POINT('',(2.226839765679,-0.146368050303));
#112 = CARTESIAN_POINT('',(2.755649378978,-0.121698711099));
#113 = CARTESIAN_POINT('',(2.938813577437,-0.147480650165));
#114 = CARTESIAN_POINT('',(2.951553974741,-5.870815471048E-02));
#115 = CARTESIAN_POINT('',(3.052152912501,-0.154275615732));
#116 = CARTESIAN_POINT('',(3.062804670312,-0.113529058804));
#117 = CARTESIAN_POINT('',(3.256329001198,-0.120164205291));
#118 = CARTESIAN_POINT('',(3.25760004041,-0.149687269639));
#119 = CARTESIAN_POINT('',(3.33019438373,-8.569035696336E-02));
#120 = CARTESIAN_POINT('',(3.356310053582,-0.126348999364));
#121 = CARTESIAN_POINT('',(4.164468105727,-0.116840874535));
#122 = ( GEOMETRIC_REPRESENTATION_CONTEXT(2) 
PARAMETRIC_REPRESENTATION_CONTEXT() REPRESENTATION_CONTEXT('2D SPACE',''
  ) );
#123 = ORIENTED_EDGE('',*,*,#124,.T.);
#124 = EDGE_CURVE('',#24,#125,#127,.T.);
#125 = VERTEX_POINT('',#126);
#126 = CARTESIAN_POINT('',(8.4,0.216840874535,0.));
#127 = SURFACE_CURVE('',#128,(#132),.PCURVE_S1.);
#128 = LINE('',#129,#130);
#129 = CARTESIAN_POINT('',(8.4,-1.684087453494E-02,0.));
#130 = VECTOR('',#131,1.);
#131 = DIRECTION('',(0.,1.,0.));
#132 = PCURVE('',#72,#133);
#133 = DEFINITIONAL_REPRESENTATION('',(#134),#138);
#134 = LINE('',#135,#136);
#135 = CARTESIAN_POINT('',(4.164468105727,-0.116840874535));
#136 = VECTOR('',#137,1.);
#137 = DIRECTION('',(0.,1.));
#138 = ( GEOMETRIC_REPRESENTATION_CONTEXT(2) 
PARAMETRIC_REPRESENTATION_CONTEXT() REPRESENTATION_CONTEXT('2D SPACE',''
  ) );
#139 = ORIENTED_EDGE('',*,*,#140,.T.);
#140 = EDGE_CURVE('',#125,#141,#143,.T.);
#141 = VERTEX_POINT('',#142);
#142 = CARTESIAN_POINT('',(0.,0.146445843817,0.));
#143 = SURFACE_CURVE('',#144,(#188),.PCURVE_S1.);
#144 = B_SPLINE_CURVE_WITH_KNOTS('',1,(#145,#146,#147,#148,#149,#150,
    #151,#152,#153,#154,#155,#156,#157,#158,#159,#160,#161,#162,#163,
    #164,#165,#166,#167,#168,#169,#170,#171,#172,#173,#174,#175,#176,
    #177,#178,#179,#180,#181,#182,#183,#184,#185,#186,#187),
  .UNSPECIFIED.,.F.,.F.,(2,1,1,1,1,1,1,1,1,1,1,1,1,1,1,1,1,1,1,1,1,1,1,1
    ,1,1,1,1,1,1,1,1,1,1,1,1,1,1,1,1,1,1,2),(0.,8.888094584502E-02,
    9.419517180746E-02,0.104837797815,0.10808751714,0.129382289082,
    0.134013851421,0.149273155856,0.159135676643,0.179477185635,
    0.237694706959,0.253644941698,0.25823111467,0.266642831704,
    0.314092445037,0.350260220751,0.389159769808,0.417946818991,
    0.423599542411,0.452424679905,0.455658060007,0.469534703437,
    0.479918162479,0.49144393674,0.580294030754,0.583227445854,
    0.626082388304,0.629090018099,0.639984155979,0.705307173682,
    0.737189734044,0.780896685777,0.794592406001,0.816182852598,
    0.829087395283,0.858340911231,0.865448337713,0.871357547015,
    0.888537972443,0.922793046608,0.973086606634,0.982675364805,1.),
  .UNSPECIFIED.);
#145 = CARTESIAN_POINT('',(8.4,0.216840874535,0.));
#146 = CARTESIAN_POINT('',(7.591841947855,0.226348999364,0.));
#147 = CARTESIAN_POINT('',(7.565726278003,0.185690356963,0.));
#148 = CARTESIAN_POINT('',(7.493131934683,0.249687269639,0.));
#149 = CARTESIAN_POINT('',(7.491860895471,0.220164205291,0.));
#150 = CARTESIAN_POINT('',(7.298336564585,0.213529058804,0.));
#151 = CARTESIAN_POINT('',(7.287684806774,0.254275615732,0.));
#152 = CARTESIAN_POINT('',(7.187085869014,0.15870815471,0.));
#153 = CARTESIAN_POINT('',(7.174345471711,0.247480650165,0.));
#154 = CARTESIAN_POINT('',(6.991181273251,0.221698711099,0.));
#155 = CARTESIAN_POINT('',(6.462371659952,0.246368050303,0.));
#156 = CARTESIAN_POINT('',(6.337222031507,0.173061300735,0.));
#157 = CARTESIAN_POINT('',(6.29561208463,0.175846822997,0.));
#158 = CARTESIAN_POINT('',(6.272488960851,0.24875758284,0.));
#159 = CARTESIAN_POINT('',(5.846744075962,0.178704370633,0.));
#160 = CARTESIAN_POINT('',(5.520225970763,0.218061608256,0.));
#161 = CARTESIAN_POINT('',(5.167592121974,0.245787583984,0.));
#162 = CARTESIAN_POINT('',(4.906006185402,0.236053977478,0.));
#163 = CARTESIAN_POINT('',(4.855710410768,0.246657977961,0.));
#164 = CARTESIAN_POINT('',(4.612780845839,0.148227213928,0.));
#165 = CARTESIAN_POINT('',(4.583383341719,0.147722513806,0.));
#166 = CARTESIAN_POINT('',(4.489119198832,0.231606446497,0.));
#167 = CARTESIAN_POINT('',(4.43828549116,0.152039518141,0.));
#168 = CARTESIAN_POINT('',(4.333479363732,0.151800712025,0.));
#169 = CARTESIAN_POINT('',(3.532771284313,0.259610800777,0.));
#170 = CARTESIAN_POINT('',(3.515658527108,0.239149474544,0.));
#171 = CARTESIAN_POINT('',(3.133324043453,0.16379576144,0.));
#172 = CARTESIAN_POINT('',(3.108417988483,0.152497161524,0.));
#173 = CARTESIAN_POINT('',(3.038151270186,0.222325700558,0.));
#174 = CARTESIAN_POINT('',(2.445224575058,0.257960659889,0.));
#175 = CARTESIAN_POINT('',(2.159993111986,0.206058869573,0.));
#176 = CARTESIAN_POINT('',(1.763448229986,0.232672088385,0.));
#177 = CARTESIAN_POINT('',(1.640328313735,0.213930469033,0.));
#178 = CARTESIAN_POINT('',(1.455793583126,0.146914816586,0.));
#179 = CARTESIAN_POINT('',(1.385289432312,0.240716428648,0.));
#180 = CARTESIAN_POINT('',(1.119393613221,0.248463463517,0.));
#181 = CARTESIAN_POINT('',(1.092390096713,0.189745762891,0.));
#182 = CARTESIAN_POINT('',(1.040681118022,0.204357274631,0.));
#183 = CARTESIAN_POINT('',(0.886749885119,0.231032107658,0.));
#184 = CARTESIAN_POINT('',(0.586644176945,0.147594036008,0.));
#185 = CARTESIAN_POINT('',(0.129331901669,0.151665516534,0.));
#186 = CARTESIAN_POINT('',(0.127596879329,0.238840938779,0.));
#187 = CARTESIAN_POINT('',(0.,0.146445843817,0.));
#188 = PCURVE('',#72,#189);
#189 = DEFINITIONAL_REPRESENTATION('',(#190),#234);
#190 = B_SPLINE_CURVE_WITH_KNOTS('',1,(#191,#192,#193,#194,#195,#196,
    #197,#198,#199,#200,#201,#202,#203,#204,#205,#206,#207,#208,#209,
    #210,#211,#212,#213,#214,#215,#216,#217,#218,#219,#220,#221,#222,
    #223,#224,#225,#226,#227,#228,#229,#230,#231,#232,#233),
  .UNSPECIFIED.,.F.,.F.,(2,1,1,1,1,1,1,1,1,1,1,1,1,1,1,1,1,1,1,1,1,1,1,1
    ,1,1,1,1,1,1,1,1,1,1,1,1,1,1,1,1,1,1,2),(0.,8.888094584502E-02,
    9.419517180746E-02,0.104837797815,0.10808751714,0.129382289082,
    0.134013851421,0.149273155856,0.159135676643,0.179477185635,
    0.237694706959,0.253644941698,0.25823111467,0.266642831704,
    0.314092445037,0.350260220751,0.389159769808,0.417946818991,
    0.423599542411,0.452424679905,0.455658060007,0.469534703437,
    0.479918162479,0.49144393674,0.580294030754,0.583227445854,
    0.626082388304,0.629090018099,0.639984155979,0.705307173682,
    0.737189734044,0.780896685777,0.794592406001,0.816182852598,
    0.829087395283,0.858340911231,0.865448337713,0.871357547015,
    0.888537972443,0.922793046608,0.973086606634,0.982675364805,1.),
  .UNSPECIFIED.);
#191 = CARTESIAN_POINT('',(4.164468105727,0.116840874535));
#192 = CARTESIAN_POINT('',(3.356310053582,0.126348999364));
#193 = CARTESIAN_POINT('',(3.33019438373,8.569035696336E-02));
#194 = CARTESIAN_POINT('',(3.25760004041,0.149687269639));
#195 = CARTESIAN_POINT('',(3.256329001198,0.120164205291));
#196 = CARTESIAN_POINT('',(3.062804670312,0.113529058804));
#197 = CARTESIAN_POINT('',(3.052152912501,0.154275615732));
#198 = CARTESIAN_POINT('',(2.951553974741,5.870815471048E-02));
#199 = CARTESIAN_POINT('',(2.938813577437,0.147480650165));
#200 = CARTESIAN_POINT('',(2.755649378978,0.121698711099));
#201 = CARTESIAN_POINT('',(2.226839765679,0.146368050303));
#202 = CARTESIAN_POINT('',(2.101690137234,7.306130073458E-02));
#203 = CARTESIAN_POINT('',(2.060080190357,7.584682299693E-02));
#204 = CARTESIAN_POINT('',(2.036957066578,0.14875758284));
#205 = CARTESIAN_POINT('',(1.611212181689,7.870437063266E-02));
#206 = CARTESIAN_POINT('',(1.28469407649,0.118061608256));
#207 = CARTESIAN_POINT('',(0.9320602277,0.145787583984));
#208 = CARTESIAN_POINT('',(0.670474291129,0.136053977478));
#209 = CARTESIAN_POINT('',(0.620178516495,0.146657977961));
#210 = CARTESIAN_POINT('',(0.377248951566,4.822721392778E-02));
#211 = CARTESIAN_POINT('',(0.347851447446,4.772251380598E-02));
#212 = CARTESIAN_POINT('',(0.253587304558,0.131606446497));
#213 = CARTESIAN_POINT('',(0.202753596887,5.203951814141E-02));
#214 = CARTESIAN_POINT('',(9.794746945933E-02,5.180071202469E-02));
#215 = CARTESIAN_POINT('',(-0.70276060996,0.159610800777));
#216 = CARTESIAN_POINT('',(-0.719873367165,0.139149474544));
#217 = CARTESIAN_POINT('',(-1.10220785082,6.379576143999E-02));
#218 = CARTESIAN_POINT('',(-1.12711390579,5.249716152364E-02));
#219 = CARTESIAN_POINT('',(-1.197380624087,0.122325700558));
#220 = CARTESIAN_POINT('',(-1.790307319215,0.157960659889));
#221 = CARTESIAN_POINT('',(-2.075538782287,0.106058869573));
#222 = CARTESIAN_POINT('',(-2.472083664287,0.132672088385));
#223 = CARTESIAN_POINT('',(-2.595203580538,0.113930469033));
#224 = CARTESIAN_POINT('',(-2.779738311147,4.691481658565E-02));
#225 = CARTESIAN_POINT('',(-2.850242461961,0.140716428648));
#226 = CARTESIAN_POINT('',(-3.116138281052,0.148463463517));
#227 = CARTESIAN_POINT('',(-3.14314179756,8.974576289084E-02));
#228 = CARTESIAN_POINT('',(-3.194850776251,0.104357274631));
#229 = CARTESIAN_POINT('',(-3.348782009154,0.131032107658));
#230 = CARTESIAN_POINT('',(-3.648887717328,4.759403600824E-02));
#231 = CARTESIAN_POINT('',(-4.106199992604,5.166551653419E-02));
#232 = CARTESIAN_POINT('',(-4.107935014944,0.138840938779));
#233 = CARTESIAN_POINT('',(-4.235531894273,4.644584381743E-02));
#234 = ( GEOMETRIC_REPRESENTATION_CONTEXT(2) 
PARAMETRIC_REPRESENTATION_CONTEXT() REPRESENTATION_CONTEXT('2D SPACE',''
  ) );
#235 = ORIENTED_EDGE('',*,*,#236,.T.);
#236 = EDGE_CURVE('',#141,#22,#237,.T.);
#237 = SURFACE_CURVE('',#238,(#242),.PCURVE_S1.);
#238 = LINE('',#239,#240);
#239 = CARTESIAN_POINT('',(0.,0.146445843817,0.));
#240 = VECTOR('',#241,1.);
#241 = DIRECTION('',(0.,-1.,0.));
#242 = PCURVE('',#72,#243);
#243 = DEFINITIONAL_REPRESENTATION('',(#244),#248);
#244 = LINE('',#245,#246);
#245 = CARTESIAN_POINT('',(-4.235531894273,4.644584381743E-02));
#246 = VECTOR('',#247,1.);
#247 = DIRECTION('',(0.,-1.));
#248 = ( GEOMETRIC_REPRESENTATION_CONTEXT(2) 
PARAMETRIC_REPRESENTATION_CONTEXT() REPRESENTATION_CONTEXT('2D SPACE',''
  ) );
#249 = ( GEOMETRIC_REPRESENTATION_CONTEXT(3) 
GLOBAL_UNCERTAINTY_ASSIGNED_CONTEXT((#253)) GLOBAL_UNIT_ASSIGNED_CONTEXT
((#250,#251,#252)) REPRESENTATION_CONTEXT('Context #1',
  '3D Context with UNIT and UNCERTAINTY') );
#250 = ( LENGTH_UNIT() NAMED_UNIT(*) SI_UNIT(.MILLI.,.METRE.) );
#251 = ( NAMED_UNIT(*) PLANE_ANGLE_UNIT() SI_UNIT($,.RADIAN.) );
#252 = ( NAMED_UNIT(*) SI_UNIT($,.STERADIAN.) SOLID_ANGLE_UNIT() );
#253 = UNCERTAINTY_MEASURE_WITH_UNIT(LENGTH_MEASURE(1.E-07),#250,
  'distance_accuracy_value','confusion accuracy');
#254 = PRODUCT_RELATED_PRODUCT_CATEGORY('part',$,(#7));
ENDSEC;
END-ISO-10303-21;
