ISO-10303-21;
HEADER;
FILE_DESCRIPTION(('Open CASCADE Model'),'2;1');
FILE_NAME('Open CASCADE Shape Model','2026-05-28T17:04:49',('Author'),(
    'Open CASCADE'),'Open CASCADE STEP processor 7.9','Open CASCADE 7.9'
  ,'Unknown');
FILE_SCHEMA(('AUTOMOTIVE_DESIGN { 1 0 10303 214 1 1 1 1 }'));
ENDSEC;
DATA;
#1 = APPLICATION_PROTOCOL_DEFINITION('international standard',
  'automotive_design',2000,#2);
#2 = APPLICATION_CONTEXT(
  'core data for automotive mechanical design processes');
#3 = SHAPE_DEFINITION_REPRESENTATION(#4,#10);
#4 = PRODUCT_DEFINITION_SHAPE('','',#5);
#5 = PRODUCT_DEFINITION('design','',#6,#9);
#6 = PRODUCT_DEFINITION_FORMATION('','',#7);
#7 = PRODUCT('Open CASCADE STEP translator 7.9 28',
  'Open CASCADE STEP translator 7.9 28','',(#8));
#8 = PRODUCT_CONTEXT('',#2,'mechanical');
#9 = PRODUCT_DEFINITION_CONTEXT('part definition',#2,'design');
#10 = MANIFOLD_SURFACE_SHAPE_REPRESENTATION('',(#11,#15),#245);
#11 = AXIS2_PLACEMENT_3D('',#12,#13,#14);
#12 = CARTESIAN_POINT('',(0.,0.,0.));
#13 = DIRECTION('',(0.,0.,1.));
#14 = DIRECTION('',(1.,0.,-0.));
#15 = SHELL_BASED_SURFACE_MODEL('',(#16));
#16 = OPEN_SHELL('',(#17));
#17 = ADVANCED_FACE('',(#18),#71,.T.);
#18 = FACE_BOUND('',#19,.T.);
#19 = EDGE_LOOP('',(#20,#121,#137,#231));
#20 = ORIENTED_EDGE('',*,*,#21,.T.);
#21 = EDGE_CURVE('',#22,#24,#26,.T.);
#22 = VERTEX_POINT('',#23);
#23 = CARTESIAN_POINT('',(0.,-1.671004084274E-02,0.));
#24 = VERTEX_POINT('',#25);
#25 = CARTESIAN_POINT('',(8.2,1.775391909129E-02,0.));
#26 = SURFACE_CURVE('',#27,(#70),.PCURVE_S1.);
#27 = B_SPLINE_CURVE_WITH_KNOTS('',1,(#28,#29,#30,#31,#32,#33,#34,#35,
    #36,#37,#38,#39,#40,#41,#42,#43,#44,#45,#46,#47,#48,#49,#50,#51,#52,
    #53,#54,#55,#56,#57,#58,#59,#60,#61,#62,#63,#64,#65,#66,#67,#68,#69)
  ,.UNSPECIFIED.,.F.,.F.,(2,1,1,1,1,1,1,1,1,1,1,1,1,1,1,1,1,1,1,1,1,1,1,
    1,1,1,1,1,1,1,1,1,1,1,1,1,1,1,1,1,1,2),(0.,3.343876046185E-02,
    8.530918309915E-02,9.818069614976E-02,0.133599460696,0.159171601101,
    0.183060560309,0.187170736886,0.200177728694,0.209355025138,
    0.232697993461,0.252931031588,0.265096973841,0.279161323919,
    0.287169996418,0.301999325095,0.380151451791,0.403470892222,
    0.409616562713,0.413677198991,0.415305765648,0.421745380717,
    0.428387578492,0.477856265408,0.482364782622,0.493615661746,
    0.531158646577,0.648397803033,0.694238873244,0.732096055683,
    0.748596183351,0.760288796084,0.80030726301,0.806690008052,
    0.813883051084,0.849104504572,0.865790023595,0.909375246299,
    0.924702534792,0.944332165238,0.981593073949,1.),.UNSPECIFIED.);
#28 = CARTESIAN_POINT('',(0.,-1.671004084274E-02,0.));
#29 = CARTESIAN_POINT('',(0.287957851099,-3.394863290061E-02,0.));
#30 = CARTESIAN_POINT('',(0.730144441615,3.468787338135E-02,0.));
#31 = CARTESIAN_POINT('',(0.801861579053,-5.008747071194E-02,0.));
#32 = CARTESIAN_POINT('',(1.107312387661,-4.211965440626E-02,0.));
#33 = CARTESIAN_POINT('',(1.327920876047,-4.180569048733E-02,0.));
#34 = CARTESIAN_POINT('',(1.52007723698,3.268066238409E-02,0.));
#35 = CARTESIAN_POINT('',(1.5484586479,5.393568136199E-02,0.));
#36 = CARTESIAN_POINT('',(1.603065784652,-4.409082473791E-02,0.));
#37 = CARTESIAN_POINT('',(1.644612264837,2.330397255137E-02,0.));
#38 = CARTESIAN_POINT('',(1.842453691276,-1.426996574082E-02,0.));
#39 = CARTESIAN_POINT('',(2.016179813441,-3.119602604409E-02,0.));
#40 = CARTESIAN_POINT('',(2.088772470963,4.460480897867E-02,0.));
#41 = CARTESIAN_POINT('',(2.181453155498,-3.370060254229E-02,0.));
#42 = CARTESIAN_POINT('',(2.247902028247,-5.262137507533E-02,0.));
#43 = CARTESIAN_POINT('',(2.373323601566,-2.740499588957E-02,0.));
#44 = CARTESIAN_POINT('',(3.046654308932,7.053270182333E-03,0.));
#45 = CARTESIAN_POINT('',(3.240924160823,-4.52013766502E-02,0.));
#46 = CARTESIAN_POINT('',(3.273401481794,-3.294915608707E-03,0.));
#47 = CARTESIAN_POINT('',(3.296791944888,-2.937251133801E-02,0.));
#48 = CARTESIAN_POINT('',(3.307506106643,-3.846071326303E-02,0.));
#49 = CARTESIAN_POINT('',(3.362400052703,-2.992234340388E-02,0.));
#50 = CARTESIAN_POINT('',(3.377116210468,2.545741487422E-02,0.));
#51 = CARTESIAN_POINT('',(3.803390505796,4.58587318913E-02,0.));
#52 = CARTESIAN_POINT('',(3.839497526687,3.139937647655E-02,0.));
#53 = CARTESIAN_POINT('',(3.931220013408,-3.449924376424E-04,0.));
#54 = CARTESIAN_POINT('',(4.255100068394,-6.332306751715E-04,0.));
#55 = CARTESIAN_POINT('',(5.266469832258,-9.917321917745E-03,0.));
#56 = CARTESIAN_POINT('',(5.661296027027,1.258777949425E-02,0.));
#57 = CARTESIAN_POINT('',(5.984485019684,-3.4426965774E-02,0.));
#58 = CARTESIAN_POINT('',(6.126021565165,-4.957845004166E-02,0.));
#59 = CARTESIAN_POINT('',(6.187499733389,3.039299358246E-02,0.));
#60 = CARTESIAN_POINT('',(6.527695670532,-2.838278612423E-02,0.));
#61 = CARTESIAN_POINT('',(6.582308963365,-2.135662230541E-02,0.));
#62 = CARTESIAN_POINT('',(6.641514038848,-2.770859913518E-03,0.));
#63 = CARTESIAN_POINT('',(6.942702614168,3.73763719351E-02,0.));
#64 = CARTESIAN_POINT('',(7.066878226091,-3.542787102993E-02,0.));
#65 = CARTESIAN_POINT('',(7.442360109402,-5.527515427546E-02,0.));
#66 = CARTESIAN_POINT('',(7.571445135352,-2.662035986803E-02,0.));
#67 = CARTESIAN_POINT('',(7.73914661845,-5.014319959509E-02,0.));
#68 = CARTESIAN_POINT('',(8.060494806594,-5.810223179376E-02,0.));
#69 = CARTESIAN_POINT('',(8.2,1.775391909129E-02,0.));
#70 = PCURVE('',#71,#76);
#71 = PLANE('',#72);
#72 = AXIS2_PLACEMENT_3D('',#73,#74,#75);
#73 = CARTESIAN_POINT('',(4.039825354882,0.1,0.));
#74 = DIRECTION('',(0.,0.,1.));
#75 = DIRECTION('',(1.,0.,-0.));
#76 = DEFINITIONAL_REPRESENTATION('',(#77),#120);
#77 = B_SPLINE_CURVE_WITH_KNOTS('',1,(#78,#79,#80,#81,#82,#83,#84,#85,
    #86,#87,#88,#89,#90,#91,#92,#93,#94,#95,#96,#97,#98,#99,#100,#101,
    #102,#103,#104,#105,#106,#107,#108,#109,#110,#111,#112,#113,#114,
    #115,#116,#117,#118,#119),.UNSPECIFIED.,.F.,.F.,(2,1,1,1,1,1,1,1,1,1
    ,1,1,1,1,1,1,1,1,1,1,1,1,1,1,1,1,1,1,1,1,1,1,1,1,1,1,1,1,1,1,1,2),(
    0.,3.343876046185E-02,8.530918309915E-02,9.818069614976E-02,
    0.133599460696,0.159171601101,0.183060560309,0.187170736886,
    0.200177728694,0.209355025138,0.232697993461,0.252931031588,
    0.265096973841,0.279161323919,0.287169996418,0.301999325095,
    0.380151451791,0.403470892222,0.409616562713,0.413677198991,
    0.415305765648,0.421745380717,0.428387578492,0.477856265408,
    0.482364782622,0.493615661746,0.531158646577,0.648397803033,
    0.694238873244,0.732096055683,0.748596183351,0.760288796084,
    0.80030726301,0.806690008052,0.813883051084,0.849104504572,
    0.865790023595,0.909375246299,0.924702534792,0.944332165238,
    0.981593073949,1.),.UNSPECIFIED.);
#78 = CARTESIAN_POINT('',(-4.039825354882,-0.116710040843));
#79 = CARTESIAN_POINT('',(-3.751867503782,-0.133948632901));
#80 = CARTESIAN_POINT('',(-3.309680913266,-6.531212661865E-02));
#81 = CARTESIAN_POINT('',(-3.237963775829,-0.150087470712));
#82 = CARTESIAN_POINT('',(-2.932512967221,-0.142119654406));
#83 = CARTESIAN_POINT('',(-2.711904478835,-0.141805690487));
#84 = CARTESIAN_POINT('',(-2.519748117901,-6.731933761591E-02));
#85 = CARTESIAN_POINT('',(-2.491366706981,-4.606431863801E-02));
#86 = CARTESIAN_POINT('',(-2.43675957023,-0.144090824738));
#87 = CARTESIAN_POINT('',(-2.395213090045,-7.669602744863E-02));
#88 = CARTESIAN_POINT('',(-2.197371663605,-0.114269965741));
#89 = CARTESIAN_POINT('',(-2.02364554144,-0.131196026044));
#90 = CARTESIAN_POINT('',(-1.951052883918,-5.539519102133E-02));
#91 = CARTESIAN_POINT('',(-1.858372199384,-0.133700602542));
#92 = CARTESIAN_POINT('',(-1.791923326635,-0.152621375075));
#93 = CARTESIAN_POINT('',(-1.666501753316,-0.12740499589));
#94 = CARTESIAN_POINT('',(-0.993171045949,-9.294672981767E-02));
#95 = CARTESIAN_POINT('',(-0.798901194059,-0.14520137665));
#96 = CARTESIAN_POINT('',(-0.766423873088,-0.103294915609));
#97 = CARTESIAN_POINT('',(-0.743033409994,-0.129372511338));
#98 = CARTESIAN_POINT('',(-0.732319248239,-0.138460713263));
#99 = CARTESIAN_POINT('',(-0.677425302179,-0.129922343404));
#100 = CARTESIAN_POINT('',(-0.662709144414,-7.454258512578E-02));
#101 = CARTESIAN_POINT('',(-0.236434849086,-5.41412681087E-02));
#102 = CARTESIAN_POINT('',(-0.200327828194,-6.860062352345E-02));
#103 = CARTESIAN_POINT('',(-0.108605341473,-0.100344992438));
#104 = CARTESIAN_POINT('',(0.215274713512,-0.100633230675));
#105 = CARTESIAN_POINT('',(1.226644477376,-0.109917321918));
#106 = CARTESIAN_POINT('',(1.621470672145,-8.741222050575E-02));
#107 = CARTESIAN_POINT('',(1.944659664802,-0.134426965774));
#108 = CARTESIAN_POINT('',(2.086196210283,-0.149578450042));
#109 = CARTESIAN_POINT('',(2.147674378507,-6.960700641754E-02));
#110 = CARTESIAN_POINT('',(2.48787031565,-0.128382786124));
#111 = CARTESIAN_POINT('',(2.542483608483,-0.121356622305));
#112 = CARTESIAN_POINT('',(2.601688683966,-0.102770859914));
#113 = CARTESIAN_POINT('',(2.902877259286,-6.26236280649E-02));
#114 = CARTESIAN_POINT('',(3.02705287121,-0.13542787103));
#115 = CARTESIAN_POINT('',(3.40253475452,-0.155275154275));
#116 = CARTESIAN_POINT('',(3.53161978047,-0.126620359868));
#117 = CARTESIAN_POINT('',(3.699321263569,-0.150143199595));
#118 = CARTESIAN_POINT('',(4.020669451713,-0.158102231794));
#119 = CARTESIAN_POINT('',(4.160174645118,-8.224608090871E-02));
#120 = ( GEOMETRIC_REPRESENTATION_CONTEXT(2) 
PARAMETRIC_REPRESENTATION_CONTEXT() REPRESENTATION_CONTEXT('2D SPACE',''
  ) );
#121 = ORIENTED_EDGE('',*,*,#122,.T.);
#122 = EDGE_CURVE('',#24,#123,#125,.T.);
#123 = VERTEX_POINT('',#124);
#124 = CARTESIAN_POINT('',(8.2,0.182246080909,0.));
#125 = SURFACE_CURVE('',#126,(#130),.PCURVE_S1.);
#126 = LINE('',#127,#128);
#127 = CARTESIAN_POINT('',(8.2,1.775391909129E-02,0.));
#128 = VECTOR('',#129,1.);
#129 = DIRECTION('',(0.,1.,0.));
#130 = PCURVE('',#71,#131);
#131 = DEFINITIONAL_REPRESENTATION('',(#132),#136);
#132 = LINE('',#133,#134);
#133 = CARTESIAN_POINT('',(4.160174645118,-8.224608090871E-02));
#134 = VECTOR('',#135,1.);
#135 = DIRECTION('',(0.,1.));
#136 = ( GEOMETRIC_REPRESENTATION_CONTEXT(2) 
PARAMETRIC_REPRESENTATION_CONTEXT() REPRESENTATION_CONTEXT('2D SPACE',''
  ) );
#137 = ORIENTED_EDGE('',*,*,#138,.T.);
#138 = EDGE_CURVE('',#123,#139,#141,.T.);
#139 = VERTEX_POINT('',#140);
#140 = CARTESIAN_POINT('',(0.,0.216710040843,0.));
#141 = SURFACE_CURVE('',#142,(#185),.PCURVE_S1.);
#142 = B_SPLINE_CURVE_WITH_KNOTS('',1,(#143,#144,#145,#146,#147,#148,
    #149,#150,#151,#152,#153,#154,#155,#156,#157,#158,#159,#160,#161,
    #162,#163,#164,#165,#166,#167,#168,#169,#170,#171,#172,#173,#174,
    #175,#176,#177,#178,#179,#180,#181,#182,#183,#184),.UNSPECIFIED.,.F.
  ,.F.,(2,1,1,1,1,1,1,1,1,1,1,1,1,1,1,1,1,1,1,1,1,1,1,1,1,1,1,1,1,1,1,1,
    1,1,1,1,1,1,1,1,1,2),(0.,1.840692605067E-02,5.566783476177E-02,
    7.529746520812E-02,9.062475370056E-02,0.134209976405,0.150895495428,
    0.186116948916,0.193309991948,0.19969273699,0.239711203916,
    0.251403816649,0.267903944317,0.305761126756,0.351602196967,
    0.468841353423,0.506384338254,0.517635217378,0.522143734592,
    0.571612421508,0.578254619283,0.584694234352,0.586322801009,
    0.590383437287,0.596529107778,0.619848548209,0.698000674905,
    0.712830003582,0.720838676081,0.734903026159,0.747068968412,
    0.767302006539,0.790644974862,0.799822271306,0.812829263114,
    0.816939439691,0.840828398899,0.866400539304,0.90181930385,
    0.914690816901,0.966561239538,1.),.UNSPECIFIED.);
#143 = CARTESIAN_POINT('',(8.2,0.182246080909,0.));
#144 = CARTESIAN_POINT('',(8.060494806594,0.258102231794,0.));
#145 = CARTESIAN_POINT('',(7.73914661845,0.250143199595,0.));
#146 = CARTESIAN_POINT('',(7.571445135352,0.226620359868,0.));
#147 = CARTESIAN_POINT('',(7.442360109402,0.255275154275,0.));
#148 = CARTESIAN_POINT('',(7.066878226091,0.23542787103,0.));
#149 = CARTESIAN_POINT('',(6.942702614168,0.162623628065,0.));
#150 = CARTESIAN_POINT('',(6.641514038848,0.202770859914,0.));
#151 = CARTESIAN_POINT('',(6.582308963365,0.221356622305,0.));
#152 = CARTESIAN_POINT('',(6.527695670532,0.228382786124,0.));
#153 = CARTESIAN_POINT('',(6.187499733389,0.169607006418,0.));
#154 = CARTESIAN_POINT('',(6.126021565165,0.249578450042,0.));
#155 = CARTESIAN_POINT('',(5.984485019684,0.234426965774,0.));
#156 = CARTESIAN_POINT('',(5.661296027027,0.187412220506,0.));
#157 = CARTESIAN_POINT('',(5.266469832258,0.209917321918,0.));
#158 = CARTESIAN_POINT('',(4.255100068394,0.200633230675,0.));
#159 = CARTESIAN_POINT('',(3.931220013408,0.200344992438,0.));
#160 = CARTESIAN_POINT('',(3.839497526687,0.168600623523,0.));
#161 = CARTESIAN_POINT('',(3.803390505796,0.154141268109,0.));
#162 = CARTESIAN_POINT('',(3.377116210468,0.174542585126,0.));
#163 = CARTESIAN_POINT('',(3.362400052703,0.229922343404,0.));
#164 = CARTESIAN_POINT('',(3.307506106643,0.238460713263,0.));
#165 = CARTESIAN_POINT('',(3.296791944888,0.229372511338,0.));
#166 = CARTESIAN_POINT('',(3.273401481794,0.203294915609,0.));
#167 = CARTESIAN_POINT('',(3.240924160823,0.24520137665,0.));
#168 = CARTESIAN_POINT('',(3.046654308932,0.192946729818,0.));
#169 = CARTESIAN_POINT('',(2.373323601566,0.22740499589,0.));
#170 = CARTESIAN_POINT('',(2.247902028247,0.252621375075,0.));
#171 = CARTESIAN_POINT('',(2.181453155498,0.233700602542,0.));
#172 = CARTESIAN_POINT('',(2.088772470963,0.155395191021,0.));
#173 = CARTESIAN_POINT('',(2.016179813441,0.231196026044,0.));
#174 = CARTESIAN_POINT('',(1.842453691276,0.214269965741,0.));
#175 = CARTESIAN_POINT('',(1.644612264837,0.176696027449,0.));
#176 = CARTESIAN_POINT('',(1.603065784652,0.244090824738,0.));
#177 = CARTESIAN_POINT('',(1.5484586479,0.146064318638,0.));
#178 = CARTESIAN_POINT('',(1.52007723698,0.167319337616,0.));
#179 = CARTESIAN_POINT('',(1.327920876047,0.241805690487,0.));
#180 = CARTESIAN_POINT('',(1.107312387661,0.242119654406,0.));
#181 = CARTESIAN_POINT('',(0.801861579053,0.250087470712,0.));
#182 = CARTESIAN_POINT('',(0.730144441615,0.165312126619,0.));
#183 = CARTESIAN_POINT('',(0.287957851099,0.233948632901,0.));
#184 = CARTESIAN_POINT('',(0.,0.216710040843,0.));
#185 = PCURVE('',#71,#186);
#186 = DEFINITIONAL_REPRESENTATION('',(#187),#230);
#187 = B_SPLINE_CURVE_WITH_KNOTS('',1,(#188,#189,#190,#191,#192,#193,
    #194,#195,#196,#197,#198,#199,#200,#201,#202,#203,#204,#205,#206,
    #207,#208,#209,#210,#211,#212,#213,#214,#215,#216,#217,#218,#219,
    #220,#221,#222,#223,#224,#225,#226,#227,#228,#229),.UNSPECIFIED.,.F.
  ,.F.,(2,1,1,1,1,1,1,1,1,1,1,1,1,1,1,1,1,1,1,1,1,1,1,1,1,1,1,1,1,1,1,1,
    1,1,1,1,1,1,1,1,1,2),(0.,1.840692605067E-02,5.566783476177E-02,
    7.529746520812E-02,9.062475370056E-02,0.134209976405,0.150895495428,
    0.186116948916,0.193309991948,0.19969273699,0.239711203916,
    0.251403816649,0.267903944317,0.305761126756,0.351602196967,
    0.468841353423,0.506384338254,0.517635217378,0.522143734592,
    0.571612421508,0.578254619283,0.584694234352,0.586322801009,
    0.590383437287,0.596529107778,0.619848548209,0.698000674905,
    0.712830003582,0.720838676081,0.734903026159,0.747068968412,
    0.767302006539,0.790644974862,0.799822271306,0.812829263114,
    0.816939439691,0.840828398899,0.866400539304,0.90181930385,
    0.914690816901,0.966561239538,1.),.UNSPECIFIED.);
#188 = CARTESIAN_POINT('',(4.160174645118,8.224608090871E-02));
#189 = CARTESIAN_POINT('',(4.020669451713,0.158102231794));
#190 = CARTESIAN_POINT('',(3.699321263569,0.150143199595));
#191 = CARTESIAN_POINT('',(3.53161978047,0.126620359868));
#192 = CARTESIAN_POINT('',(3.40253475452,0.155275154275));
#193 = CARTESIAN_POINT('',(3.02705287121,0.13542787103));
#194 = CARTESIAN_POINT('',(2.902877259286,6.26236280649E-02));
#195 = CARTESIAN_POINT('',(2.601688683966,0.102770859914));
#196 = CARTESIAN_POINT('',(2.542483608483,0.121356622305));
#197 = CARTESIAN_POINT('',(2.48787031565,0.128382786124));
#198 = CARTESIAN_POINT('',(2.147674378507,6.960700641754E-02));
#199 = CARTESIAN_POINT('',(2.086196210283,0.149578450042));
#200 = CARTESIAN_POINT('',(1.944659664802,0.134426965774));
#201 = CARTESIAN_POINT('',(1.621470672145,8.741222050575E-02));
#202 = CARTESIAN_POINT('',(1.226644477376,0.109917321918));
#203 = CARTESIAN_POINT('',(0.215274713512,0.100633230675));
#204 = CARTESIAN_POINT('',(-0.108605341473,0.100344992438));
#205 = CARTESIAN_POINT('',(-0.200327828194,6.860062352345E-02));
#206 = CARTESIAN_POINT('',(-0.236434849086,5.41412681087E-02));
#207 = CARTESIAN_POINT('',(-0.662709144414,7.454258512578E-02));
#208 = CARTESIAN_POINT('',(-0.677425302179,0.129922343404));
#209 = CARTESIAN_POINT('',(-0.732319248239,0.138460713263));
#210 = CARTESIAN_POINT('',(-0.743033409994,0.129372511338));
#211 = CARTESIAN_POINT('',(-0.766423873088,0.103294915609));
#212 = CARTESIAN_POINT('',(-0.798901194059,0.14520137665));
#213 = CARTESIAN_POINT('',(-0.993171045949,9.294672981767E-02));
#214 = CARTESIAN_POINT('',(-1.666501753316,0.12740499589));
#215 = CARTESIAN_POINT('',(-1.791923326635,0.152621375075));
#216 = CARTESIAN_POINT('',(-1.858372199384,0.133700602542));
#217 = CARTESIAN_POINT('',(-1.951052883918,5.539519102133E-02));
#218 = CARTESIAN_POINT('',(-2.02364554144,0.131196026044));
#219 = CARTESIAN_POINT('',(-2.197371663605,0.114269965741));
#220 = CARTESIAN_POINT('',(-2.395213090045,7.669602744863E-02));
#221 = CARTESIAN_POINT('',(-2.43675957023,0.144090824738));
#222 = CARTESIAN_POINT('',(-2.491366706981,4.606431863801E-02));
#223 = CARTESIAN_POINT('',(-2.519748117901,6.731933761591E-02));
#224 = CARTESIAN_POINT('',(-2.711904478835,0.141805690487));
#225 = CARTESIAN_POINT('',(-2.932512967221,0.142119654406));
#226 = CARTESIAN_POINT('',(-3.237963775829,0.150087470712));
#227 = CARTESIAN_POINT('',(-3.309680913266,6.531212661865E-02));
#228 = CARTESIAN_POINT('',(-3.751867503782,0.133948632901));
#229 = CARTESIAN_POINT('',(-4.039825354882,0.116710040843));
#230 = ( GEOMETRIC_REPRESENTATION_CONTEXT(2) 
PARAMETRIC_REPRESENTATION_CONTEXT() REPRESENTATION_CONTEXT('2D SPACE',''
  ) );
#231 = ORIENTED_EDGE('',*,*,#232,.T.);
#232 = EDGE_CURVE('',#139,#22,#233,.T.);
#233 = SURFACE_CURVE('',#234,(#238),.PCURVE_S1.);
#234 = LINE('',#235,#236);
#235 = CARTESIAN_POINT('',(0.,0.216710040843,0.));
#236 = VECTOR('',#237,1.);
#237 = DIRECTION('',(0.,-1.,0.));
#238 = PCURVE('',#71,#239);
#239 = DEFINITIONAL_REPRESENTATION('',(#240),#244);
#240 = LINE('',#241,#242);
#241 = CARTESIAN_POINT('',(-4.039825354882,0.116710040843));
#242 = VECTOR('',#243,1.);
#243 = DIRECTION('',(0.,-1.));
#244 = ( GEOMETRIC_REPRESENTATION_CONTEXT(2) 
PARAMETRIC_REPRESENTATION_CONTEXT() REPRESENTATION_CONTEXT('2D SPACE',''
  ) );
#245 = ( GEOMETRIC_REPRESENTATION_CONTEXT(3) 
GLOBAL_UNCERTAINTY_ASSIGNED_CONTEXT((#249)) GLOBAL_UNIT_ASSIGNED_CONTEXT
((#246,#247,#248)) REPRESENTATION_CONTEXT('Context #1',
  '3D Context with UNIT and UNCERTAINTY') );
#246 = ( LENGTH_UNIT() NAMED_UNIT(*) SI_UNIT(.MILLI.,.METRE.) );
#247 = ( NAMED_UNIT(*) PLANE_ANGLE_UNIT() SI_UNIT($,.RADIAN.) );
#248 = ( NAMED_UNIT(*) SI_UNIT($,.STERADIAN.) SOLID_ANGLE_UNIT() );
#249 = UNCERTAINTY_MEASURE_WITH_UNIT(LENGTH_MEASURE(1.E-07),#246,
  'distance_accuracy_value','confusion accuracy');
#250 = PRODUCT_RELATED_PRODUCT_CATEGORY('part',$,(#7));
ENDSEC;
END-ISO-10303-21;
