ISO-10303-21;
HEADER;
FILE_DESCRIPTION(('Open CASCADE Model'),'2;1');
FILE_NAME('Open CASCADE Shape Model','2026-05-28T17:04:48',('Author'),(
    'Open CASCADE'),'Open CASCADE STEP processor 7.9','Open CASCADE 7.9'
  ,'Unknown');
FILE_SCHEMA(('AUTOMOTIVE_DESIGN { 1 0 10303 214 1 1 1 1 }'));
ENDSEC;
DATA;
#1 = APPLICATION_PROTOCOL_DEFINITION('international standard',
  'automotive_design',2000,#2);
#2 = APPLICATION_CONTEXT(
  'core data for automotive mechanical design processes');
#3 = SHAPE_DEFINITION_REPRESENTATION(#4,#10);
#4 = PRODUCT_DEFINITION_SHAPE('','',#5);
#5 = PRODUCT_DEFINITION('design','',#6,#9);
#6 = PRODUCT_DEFINITION_FORMATION('','',#7);
#7 = PRODUCT('Open CASCADE STEP translator 7.9 20',
  'Open CASCADE STEP translator 7.9 20','',(#8));
#8 = PRODUCT_CONTEXT('',#2,'mechanical');
#9 = PRODUCT_DEFINITION_CONTEXT('part definition',#2,'design');
#10 = MANIFOLD_SURFACE_SHAPE_REPRESENTATION('',(#11,#15),#221);
#11 = AXIS2_PLACEMENT_3D('',#12,#13,#14);
#12 = CARTESIAN_POINT('',(0.,0.,0.));
#13 = DIRECTION('',(0.,0.,1.));
#14 = DIRECTION('',(1.,0.,-0.));
#15 = SHELL_BASED_SURFACE_MODEL('',(#16));
#16 = OPEN_SHELL('',(#17));
#17 = ADVANCED_FACE('',(#18),#65,.T.);
#18 = FACE_BOUND('',#19,.T.);
#19 = EDGE_LOOP('',(#20,#109,#125,#207));
#20 = ORIENTED_EDGE('',*,*,#21,.T.);
#21 = EDGE_CURVE('',#22,#24,#26,.T.);
#22 = VERTEX_POINT('',#23);
#23 = CARTESIAN_POINT('',(0.,3.983989817066E-02,0.));
#24 = VERTEX_POINT('',#25);
#25 = CARTESIAN_POINT('',(7.,2.530997020342E-02,0.));
#26 = SURFACE_CURVE('',#27,(#64),.PCURVE_S1.);
#27 = B_SPLINE_CURVE_WITH_KNOTS('',1,(#28,#29,#30,#31,#32,#33,#34,#35,
    #36,#37,#38,#39,#40,#41,#42,#43,#44,#45,#46,#47,#48,#49,#50,#51,#52,
    #53,#54,#55,#56,#57,#58,#59,#60,#61,#62,#63),.UNSPECIFIED.,.F.,.F.,(
    2,1,1,1,1,1,1,1,1,1,1,1,1,1,1,1,1,1,1,1,1,1,1,1,1,1,1,1,1,1,1,1,1,1,
    1,2),(0.,6.020354520745E-04,3.526906119175E-02,5.105656408011E-02,
    5.587611097512E-02,7.060051954171E-02,9.947933868672E-02,
    0.104473883776,0.150308566152,0.162354269952,0.319359011432,
    0.324434750066,0.35494788846,0.415380361926,0.423257144426,
    0.434501182135,0.458185145363,0.488115280972,0.514218854639,
    0.530764075201,0.64344021183,0.662475388692,0.716400121527,
    0.737526168107,0.763905990093,0.782423108501,0.798122273009,
    0.817293290948,0.819314327672,0.830935520578,0.875634180853,
    0.88902359607,0.96936541591,0.984003877711,0.993989063296,1.),
  .UNSPECIFIED.);
#28 = CARTESIAN_POINT('',(0.,3.983989817066E-02,0.));
#29 = CARTESIAN_POINT('',(3.631209159939E-03,4.237635182143E-02,0.));
#30 = CARTESIAN_POINT('',(0.243868451959,-4.329611683446E-02,0.));
#31 = CARTESIAN_POINT('',(0.359934081899,-3.877495319401E-02,0.));
#32 = CARTESIAN_POINT('',(0.369649709801,-4.673011951702E-03,0.));
#33 = CARTESIAN_POINT('',(0.472629361312,-3.830398551528E-02,0.));
#34 = CARTESIAN_POINT('',(0.666393608726,4.886927070906E-02,0.));
#35 = CARTESIAN_POINT('',(0.672666630803,1.266221784735E-02,0.));
#36 = CARTESIAN_POINT('',(1.00736087255,-2.853570673276E-02,0.));
#37 = CARTESIAN_POINT('',(1.074678654382,2.910576488112E-02,0.));
#38 = CARTESIAN_POINT('',(2.228284713403,-3.027946973203E-02,0.));
#39 = CARTESIAN_POINT('',(2.250819775686,-5.014325268977E-04,0.));
#40 = CARTESIAN_POINT('',(2.473363865479,-3.003191855379E-02,0.));
#41 = CARTESIAN_POINT('',(2.916661986279,4.23844345712E-03,0.));
#42 = CARTESIAN_POINT('',(2.973438473708,1.585147917338E-02,0.));
#43 = CARTESIAN_POINT('',(3.05421661786,3.369729402256E-02,0.));
#44 = CARTESIAN_POINT('',(3.228462200863,3.49944790278E-02,0.));
#45 = CARTESIAN_POINT('',(3.43880212474,-3.017889726857E-02,0.));
#46 = CARTESIAN_POINT('',(3.615215818449,4.573075823592E-02,0.));
#47 = CARTESIAN_POINT('',(3.736880092918,4.968211798669E-02,0.));
#48 = CARTESIAN_POINT('',(4.565803245261,3.884503619734E-02,0.));
#49 = CARTESIAN_POINT('',(4.705851018564,3.895841862553E-02,0.));
#50 = CARTESIAN_POINT('',(5.094903092781,-3.877291473683E-02,0.));
#51 = CARTESIAN_POINT('',(5.241745457669,1.217920518309E-02,0.));
#52 = CARTESIAN_POINT('',(5.422367169046,-5.884661488326E-02,0.));
#53 = CARTESIAN_POINT('',(5.512247122421,4.353464906513E-02,0.));
#54 = CARTESIAN_POINT('',(5.609726036899,-1.842477908324E-02,0.));
#55 = CARTESIAN_POINT('',(5.748615506185,6.15245913585E-03,0.));
#56 = CARTESIAN_POINT('',(5.761891221913,1.284981879635E-02,0.));
#57 = CARTESIAN_POINT('',(5.824840526974,-4.501010388649E-02,0.));
#58 = CARTESIAN_POINT('',(6.153481457613,-5.707147749941E-02,0.));
#59 = CARTESIAN_POINT('',(6.251217136754,-4.47430750529E-02,0.));
#60 = CARTESIAN_POINT('',(6.836648547516,3.692391851578E-02,0.));
#61 = CARTESIAN_POINT('',(6.944294038696,3.350424945493E-02,0.));
#62 = CARTESIAN_POINT('',(6.995953364569,-1.872886549141E-02,0.));
#63 = CARTESIAN_POINT('',(7.,2.530997020342E-02,0.));
#64 = PCURVE('',#65,#70);
#65 = PLANE('',#66);
#66 = AXIS2_PLACEMENT_3D('',#67,#68,#69);
#67 = CARTESIAN_POINT('',(3.519653894235,1.E-01,0.));
#68 = DIRECTION('',(0.,0.,1.));
#69 = DIRECTION('',(1.,0.,-0.));
#70 = DEFINITIONAL_REPRESENTATION('',(#71),#108);
#71 = B_SPLINE_CURVE_WITH_KNOTS('',1,(#72,#73,#74,#75,#76,#77,#78,#79,
    #80,#81,#82,#83,#84,#85,#86,#87,#88,#89,#90,#91,#92,#93,#94,#95,#96,
    #97,#98,#99,#100,#101,#102,#103,#104,#105,#106,#107),.UNSPECIFIED.,
  .F.,.F.,(2,1,1,1,1,1,1,1,1,1,1,1,1,1,1,1,1,1,1,1,1,1,1,1,1,1,1,1,1,1,1
    ,1,1,1,1,2),(0.,6.020354520745E-04,3.526906119175E-02,
    5.105656408011E-02,5.587611097512E-02,7.060051954171E-02,
    9.947933868672E-02,0.104473883776,0.150308566152,0.162354269952,
    0.319359011432,0.324434750066,0.35494788846,0.415380361926,
    0.423257144426,0.434501182135,0.458185145363,0.488115280972,
    0.514218854639,0.530764075201,0.64344021183,0.662475388692,
    0.716400121527,0.737526168107,0.763905990093,0.782423108501,
    0.798122273009,0.817293290948,0.819314327672,0.830935520578,
    0.875634180853,0.88902359607,0.96936541591,0.984003877711,
    0.993989063296,1.),.UNSPECIFIED.);
#72 = CARTESIAN_POINT('',(-3.519653894235,-6.016010182934E-02));
#73 = CARTESIAN_POINT('',(-3.516022685075,-5.762364817857E-02));
#74 = CARTESIAN_POINT('',(-3.275785442276,-0.143296116834));
#75 = CARTESIAN_POINT('',(-3.159719812337,-0.138774953194));
#76 = CARTESIAN_POINT('',(-3.150004184435,-0.104673011952));
#77 = CARTESIAN_POINT('',(-3.047024532923,-0.138303985515));
#78 = CARTESIAN_POINT('',(-2.853260285509,-5.113072929094E-02));
#79 = CARTESIAN_POINT('',(-2.846987263432,-8.733778215265E-02));
#80 = CARTESIAN_POINT('',(-2.512293021685,-0.128535706733));
#81 = CARTESIAN_POINT('',(-2.444975239853,-7.089423511888E-02));
#82 = CARTESIAN_POINT('',(-1.291369180832,-0.130279469732));
#83 = CARTESIAN_POINT('',(-1.268834118549,-0.100501432527));
#84 = CARTESIAN_POINT('',(-1.046290028756,-0.130031918554));
#85 = CARTESIAN_POINT('',(-0.602991907956,-9.576155654288E-02));
#86 = CARTESIAN_POINT('',(-0.546215420527,-8.414852082662E-02));
#87 = CARTESIAN_POINT('',(-0.465437276375,-6.630270597744E-02));
#88 = CARTESIAN_POINT('',(-0.291191693372,-6.50055209722E-02));
#89 = CARTESIAN_POINT('',(-8.085176949575E-02,-0.130178897269));
#90 = CARTESIAN_POINT('',(9.556192421417E-02,-5.426924176408E-02));
#91 = CARTESIAN_POINT('',(0.217226198682,-5.031788201331E-02));
#92 = CARTESIAN_POINT('',(1.046149351026,-6.115496380266E-02));
#93 = CARTESIAN_POINT('',(1.186197124329,-6.104158137447E-02));
#94 = CARTESIAN_POINT('',(1.575249198546,-0.138772914737));
#95 = CARTESIAN_POINT('',(1.722091563434,-8.782079481691E-02));
#96 = CARTESIAN_POINT('',(1.90271327481,-0.158846614883));
#97 = CARTESIAN_POINT('',(1.992593228185,-5.646535093487E-02));
#98 = CARTESIAN_POINT('',(2.090072142664,-0.118424779083));
#99 = CARTESIAN_POINT('',(2.22896161195,-9.384754086415E-02));
#100 = CARTESIAN_POINT('',(2.242237327678,-8.715018120365E-02));
#101 = CARTESIAN_POINT('',(2.305186632739,-0.145010103886));
#102 = CARTESIAN_POINT('',(2.633827563377,-0.157071477499));
#103 = CARTESIAN_POINT('',(2.731563242519,-0.144743075053));
#104 = CARTESIAN_POINT('',(3.316994653281,-6.307608148422E-02));
#105 = CARTESIAN_POINT('',(3.424640144461,-6.649575054507E-02));
#106 = CARTESIAN_POINT('',(3.476299470334,-0.118728865491));
#107 = CARTESIAN_POINT('',(3.480346105765,-7.469002979658E-02));
#108 = ( GEOMETRIC_REPRESENTATION_CONTEXT(2) 
PARAMETRIC_REPRESENTATION_CONTEXT() REPRESENTATION_CONTEXT('2D SPACE',''
  ) );
#109 = ORIENTED_EDGE('',*,*,#110,.T.);
#110 = EDGE_CURVE('',#24,#111,#113,.T.);
#111 = VERTEX_POINT('',#112);
#112 = CARTESIAN_POINT('',(7.,0.174690029797,0.));
#113 = SURFACE_CURVE('',#114,(#118),.PCURVE_S1.);
#114 = LINE('',#115,#116);
#115 = CARTESIAN_POINT('',(7.,2.530997020342E-02,0.));
#116 = VECTOR('',#117,1.);
#117 = DIRECTION('',(0.,1.,0.));
#118 = PCURVE('',#65,#119);
#119 = DEFINITIONAL_REPRESENTATION('',(#120),#124);
#120 = LINE('',#121,#122);
#121 = CARTESIAN_POINT('',(3.480346105765,-7.469002979658E-02));
#122 = VECTOR('',#123,1.);
#123 = DIRECTION('',(0.,1.));
#124 = ( GEOMETRIC_REPRESENTATION_CONTEXT(2) 
PARAMETRIC_REPRESENTATION_CONTEXT() REPRESENTATION_CONTEXT('2D SPACE',''
  ) );
#125 = ORIENTED_EDGE('',*,*,#126,.T.);
#126 = EDGE_CURVE('',#111,#127,#129,.T.);
#127 = VERTEX_POINT('',#128);
#128 = CARTESIAN_POINT('',(0.,0.160160101829,0.));
#129 = SURFACE_CURVE('',#130,(#167),.PCURVE_S1.);
#130 = B_SPLINE_CURVE_WITH_KNOTS('',1,(#131,#132,#133,#134,#135,#136,
    #137,#138,#139,#140,#141,#142,#143,#144,#145,#146,#147,#148,#149,
    #150,#151,#152,#153,#154,#155,#156,#157,#158,#159,#160,#161,#162,
    #163,#164,#165,#166),.UNSPECIFIED.,.F.,.F.,(2,1,1,1,1,1,1,1,1,1,1,1,
    1,1,1,1,1,1,1,1,1,1,1,1,1,1,1,1,1,1,1,1,1,1,1,2),(0.,
    6.010936703775E-03,1.599612228899E-02,3.063458408985E-02,
    0.11097640393,0.124365819147,0.169064479422,0.180685672328,
    0.182706709052,0.201877726991,0.217576891499,0.236094009907,
    0.262473831893,0.283599878473,0.337524611308,0.35655978817,
    0.469235924799,0.485781145361,0.511884719028,0.541814854637,
    0.565498817865,0.576742855574,0.584619638074,0.64505211154,
    0.675565249934,0.680640988568,0.837645730048,0.849691433848,
    0.895526116224,0.900520661313,0.929399480458,0.944123889025,
    0.94894343592,0.964730938808,0.999397964548,1.),.UNSPECIFIED.);
#131 = CARTESIAN_POINT('',(7.,0.174690029797,0.));
#132 = CARTESIAN_POINT('',(6.995953364569,0.218728865491,0.));
#133 = CARTESIAN_POINT('',(6.944294038696,0.166495750545,0.));
#134 = CARTESIAN_POINT('',(6.836648547516,0.163076081484,0.));
#135 = CARTESIAN_POINT('',(6.251217136754,0.244743075053,0.));
#136 = CARTESIAN_POINT('',(6.153481457613,0.257071477499,0.));
#137 = CARTESIAN_POINT('',(5.824840526974,0.245010103886,0.));
#138 = CARTESIAN_POINT('',(5.761891221913,0.187150181204,0.));
#139 = CARTESIAN_POINT('',(5.748615506185,0.193847540864,0.));
#140 = CARTESIAN_POINT('',(5.609726036899,0.218424779083,0.));
#141 = CARTESIAN_POINT('',(5.512247122421,0.156465350935,0.));
#142 = CARTESIAN_POINT('',(5.422367169046,0.258846614883,0.));
#143 = CARTESIAN_POINT('',(5.241745457669,0.187820794817,0.));
#144 = CARTESIAN_POINT('',(5.094903092781,0.238772914737,0.));
#145 = CARTESIAN_POINT('',(4.705851018564,0.161041581374,0.));
#146 = CARTESIAN_POINT('',(4.565803245261,0.161154963803,0.));
#147 = CARTESIAN_POINT('',(3.736880092918,0.150317882013,0.));
#148 = CARTESIAN_POINT('',(3.615215818449,0.154269241764,0.));
#149 = CARTESIAN_POINT('',(3.43880212474,0.230178897269,0.));
#150 = CARTESIAN_POINT('',(3.228462200863,0.165005520972,0.));
#151 = CARTESIAN_POINT('',(3.05421661786,0.166302705977,0.));
#152 = CARTESIAN_POINT('',(2.973438473708,0.184148520827,0.));
#153 = CARTESIAN_POINT('',(2.916661986279,0.195761556543,0.));
#154 = CARTESIAN_POINT('',(2.473363865479,0.230031918554,0.));
#155 = CARTESIAN_POINT('',(2.250819775686,0.200501432527,0.));
#156 = CARTESIAN_POINT('',(2.228284713403,0.230279469732,0.));
#157 = CARTESIAN_POINT('',(1.074678654382,0.170894235119,0.));
#158 = CARTESIAN_POINT('',(1.00736087255,0.228535706733,0.));
#159 = CARTESIAN_POINT('',(0.672666630803,0.187337782153,0.));
#160 = CARTESIAN_POINT('',(0.666393608726,0.151130729291,0.));
#161 = CARTESIAN_POINT('',(0.472629361312,0.238303985515,0.));
#162 = CARTESIAN_POINT('',(0.369649709801,0.204673011952,0.));
#163 = CARTESIAN_POINT('',(0.359934081899,0.238774953194,0.));
#164 = CARTESIAN_POINT('',(0.243868451959,0.243296116834,0.));
#165 = CARTESIAN_POINT('',(3.631209159939E-03,0.157623648179,0.));
#166 = CARTESIAN_POINT('',(0.,0.160160101829,0.));
#167 = PCURVE('',#65,#168);
#168 = DEFINITIONAL_REPRESENTATION('',(#169),#206);
#169 = B_SPLINE_CURVE_WITH_KNOTS('',1,(#170,#171,#172,#173,#174,#175,
    #176,#177,#178,#179,#180,#181,#182,#183,#184,#185,#186,#187,#188,
    #189,#190,#191,#192,#193,#194,#195,#196,#197,#198,#199,#200,#201,
    #202,#203,#204,#205),.UNSPECIFIED.,.F.,.F.,(2,1,1,1,1,1,1,1,1,1,1,1,
    1,1,1,1,1,1,1,1,1,1,1,1,1,1,1,1,1,1,1,1,1,1,1,2),(0.,
    6.010936703775E-03,1.599612228899E-02,3.063458408985E-02,
    0.11097640393,0.124365819147,0.169064479422,0.180685672328,
    0.182706709052,0.201877726991,0.217576891499,0.236094009907,
    0.262473831893,0.283599878473,0.337524611308,0.35655978817,
    0.469235924799,0.485781145361,0.511884719028,0.541814854637,
    0.565498817865,0.576742855574,0.584619638074,0.64505211154,
    0.675565249934,0.680640988568,0.837645730048,0.849691433848,
    0.895526116224,0.900520661313,0.929399480458,0.944123889025,
    0.94894343592,0.964730938808,0.999397964548,1.),.UNSPECIFIED.);
#170 = CARTESIAN_POINT('',(3.480346105765,7.469002979658E-02));
#171 = CARTESIAN_POINT('',(3.476299470334,0.118728865491));
#172 = CARTESIAN_POINT('',(3.424640144461,6.649575054507E-02));
#173 = CARTESIAN_POINT('',(3.316994653281,6.307608148422E-02));
#174 = CARTESIAN_POINT('',(2.731563242519,0.144743075053));
#175 = CARTESIAN_POINT('',(2.633827563377,0.157071477499));
#176 = CARTESIAN_POINT('',(2.305186632739,0.145010103886));
#177 = CARTESIAN_POINT('',(2.242237327678,8.715018120365E-02));
#178 = CARTESIAN_POINT('',(2.22896161195,9.384754086415E-02));
#179 = CARTESIAN_POINT('',(2.090072142664,0.118424779083));
#180 = CARTESIAN_POINT('',(1.992593228185,5.646535093487E-02));
#181 = CARTESIAN_POINT('',(1.90271327481,0.158846614883));
#182 = CARTESIAN_POINT('',(1.722091563434,8.782079481691E-02));
#183 = CARTESIAN_POINT('',(1.575249198546,0.138772914737));
#184 = CARTESIAN_POINT('',(1.186197124329,6.104158137447E-02));
#185 = CARTESIAN_POINT('',(1.046149351026,6.115496380266E-02));
#186 = CARTESIAN_POINT('',(0.217226198682,5.031788201331E-02));
#187 = CARTESIAN_POINT('',(9.556192421417E-02,5.426924176408E-02));
#188 = CARTESIAN_POINT('',(-8.085176949575E-02,0.130178897269));
#189 = CARTESIAN_POINT('',(-0.291191693372,6.50055209722E-02));
#190 = CARTESIAN_POINT('',(-0.465437276375,6.630270597744E-02));
#191 = CARTESIAN_POINT('',(-0.546215420527,8.414852082662E-02));
#192 = CARTESIAN_POINT('',(-0.602991907956,9.576155654288E-02));
#193 = CARTESIAN_POINT('',(-1.046290028756,0.130031918554));
#194 = CARTESIAN_POINT('',(-1.268834118549,0.100501432527));
#195 = CARTESIAN_POINT('',(-1.291369180832,0.130279469732));
#196 = CARTESIAN_POINT('',(-2.444975239853,7.089423511888E-02));
#197 = CARTESIAN_POINT('',(-2.512293021685,0.128535706733));
#198 = CARTESIAN_POINT('',(-2.846987263432,8.733778215265E-02));
#199 = CARTESIAN_POINT('',(-2.853260285509,5.113072929094E-02));
#200 = CARTESIAN_POINT('',(-3.047024532923,0.138303985515));
#201 = CARTESIAN_POINT('',(-3.150004184435,0.104673011952));
#202 = CARTESIAN_POINT('',(-3.159719812337,0.138774953194));
#203 = CARTESIAN_POINT('',(-3.275785442276,0.143296116834));
#204 = CARTESIAN_POINT('',(-3.516022685075,5.762364817857E-02));
#205 = CARTESIAN_POINT('',(-3.519653894235,6.016010182934E-02));
#206 = ( GEOMETRIC_REPRESENTATION_CONTEXT(2) 
PARAMETRIC_REPRESENTATION_CONTEXT() REPRESENTATION_CONTEXT('2D SPACE',''
  ) );
#207 = ORIENTED_EDGE('',*,*,#208,.T.);
#208 = EDGE_CURVE('',#127,#22,#209,.T.);
#209 = SURFACE_CURVE('',#210,(#214),.PCURVE_S1.);
#210 = LINE('',#211,#212);
#211 = CARTESIAN_POINT('',(0.,0.160160101829,0.));
#212 = VECTOR('',#213,1.);
#213 = DIRECTION('',(0.,-1.,0.));
#214 = PCURVE('',#65,#215);
#215 = DEFINITIONAL_REPRESENTATION('',(#216),#220);
#216 = LINE('',#217,#218);
#217 = CARTESIAN_POINT('',(-3.519653894235,6.016010182934E-02));
#218 = VECTOR('',#219,1.);
#219 = DIRECTION('',(0.,-1.));
#220 = ( GEOMETRIC_REPRESENTATION_CONTEXT(2) 
PARAMETRIC_REPRESENTATION_CONTEXT() REPRESENTATION_CONTEXT('2D SPACE',''
  ) );
#221 = ( GEOMETRIC_REPRESENTATION_CONTEXT(3) 
GLOBAL_UNCERTAINTY_ASSIGNED_CONTEXT((#225)) GLOBAL_UNIT_ASSIGNED_CONTEXT
((#222,#223,#224)) REPRESENTATION_CONTEXT('Context #1',
  '3D Context with UNIT and UNCERTAINTY') );
#222 = ( LENGTH_UNIT() NAMED_UNIT(*) SI_UNIT(.MILLI.,.METRE.) );
#223 = ( NAMED_UNIT(*) PLANE_ANGLE_UNIT() SI_UNIT($,.RADIAN.) );
#224 = ( NAMED_UNIT(*) SI_UNIT($,.STERADIAN.) SOLID_ANGLE_UNIT() );
#225 = UNCERTAINTY_MEASURE_WITH_UNIT(LENGTH_MEASURE(1.E-07),#222,
  'distance_accuracy_value','confusion accuracy');
#226 = PRODUCT_RELATED_PRODUCT_CATEGORY('part',$,(#7));
ENDSEC;
END-ISO-10303-21;
