ISO-10303-21;
HEADER;
FILE_DESCRIPTION(('Open CASCADE Model'),'2;1');
FILE_NAME('Open CASCADE Shape Model','2026-05-28T17:04:49',('Author'),(
    'Open CASCADE'),'Open CASCADE STEP processor 7.9','Open CASCADE 7.9'
  ,'Unknown');
FILE_SCHEMA(('AUTOMOTIVE_DESIGN { 1 0 10303 214 1 1 1 1 }'));
ENDSEC;
DATA;
#1 = APPLICATION_PROTOCOL_DEFINITION('international standard',
  'automotive_design',2000,#2);
#2 = APPLICATION_CONTEXT(
  'core data for automotive mechanical design processes');
#3 = SHAPE_DEFINITION_REPRESENTATION(#4,#10);
#4 = PRODUCT_DEFINITION_SHAPE('','',#5);
#5 = PRODUCT_DEFINITION('design','',#6,#9);
#6 = PRODUCT_DEFINITION_FORMATION('','',#7);
#7 = PRODUCT('Open CASCADE STEP translator 7.9 81',
  'Open CASCADE STEP translator 7.9 81','',(#8));
#8 = PRODUCT_CONTEXT('',#2,'mechanical');
#9 = PRODUCT_DEFINITION_CONTEXT('part definition',#2,'design');
#10 = MANIFOLD_SURFACE_SHAPE_REPRESENTATION('',(#11,#15),#237);
#11 = AXIS2_PLACEMENT_3D('',#12,#13,#14);
#12 = CARTESIAN_POINT('',(0.,0.,0.));
#13 = DIRECTION('',(0.,0.,1.));
#14 = DIRECTION('',(1.,0.,-0.));
#15 = SHELL_BASED_SURFACE_MODEL('',(#16));
#16 = OPEN_SHELL('',(#17));
#17 = ADVANCED_FACE('',(#18),#69,.T.);
#18 = FACE_BOUND('',#19,.T.);
#19 = EDGE_LOOP('',(#20,#117,#133,#223));
#20 = ORIENTED_EDGE('',*,*,#21,.T.);
#21 = EDGE_CURVE('',#22,#24,#26,.T.);
#22 = VERTEX_POINT('',#23);
#23 = CARTESIAN_POINT('',(0.,-5.294083311902E-02,0.));
#24 = VERTEX_POINT('',#25);
#25 = CARTESIAN_POINT('',(7.8,3.145081360028E-02,0.));
#26 = SURFACE_CURVE('',#27,(#68),.PCURVE_S1.);
#27 = B_SPLINE_CURVE_WITH_KNOTS('',1,(#28,#29,#30,#31,#32,#33,#34,#35,
    #36,#37,#38,#39,#40,#41,#42,#43,#44,#45,#46,#47,#48,#49,#50,#51,#52,
    #53,#54,#55,#56,#57,#58,#59,#60,#61,#62,#63,#64,#65,#66,#67),
  .UNSPECIFIED.,.F.,.F.,(2,1,1,1,1,1,1,1,1,1,1,1,1,1,1,1,1,1,1,1,1,1,1,1
    ,1,1,1,1,1,1,1,1,1,1,1,1,1,1,1,2),(0.,0.103150692296,0.116133431264,
    0.117553708057,0.144005517065,0.172652778836,0.208140167651,
    0.212075190423,0.215527951875,0.2189088435,0.261000248048,
    0.273584524339,0.28133685133,0.330189333438,0.352364956579,
    0.375158457229,0.381392574312,0.39046191763,0.435985994014,
    0.458249938504,0.474631948919,0.492395105409,0.502316072322,
    0.547691688983,0.565209598437,0.588498743625,0.596957105557,
    0.670878466467,0.682708438515,0.694621096164,0.700943295128,
    0.716634693614,0.794217019869,0.844306259122,0.858138874845,
    0.875699891858,0.876816880827,0.887898005102,0.992689898488,1.),
  .UNSPECIFIED.);
#28 = CARTESIAN_POINT('',(0.,-5.294083311902E-02,0.));
#29 = CARTESIAN_POINT('',(0.850623590563,2.112245438978E-02,0.));
#30 = CARTESIAN_POINT('',(0.940504039925,-3.778827108624E-02,0.));
#31 = CARTESIAN_POINT('',(0.949184241518,-2.98592400562E-02,0.));
#32 = CARTESIAN_POINT('',(1.167926824481,-2.015086440702E-02,0.));
#33 = CARTESIAN_POINT('',(1.40311442468,-5.044805675521E-02,0.));
#34 = CARTESIAN_POINT('',(1.690356036823,1.104904867424E-02,0.));
#35 = CARTESIAN_POINT('',(1.722854911826,1.323945768206E-02,0.));
#36 = CARTESIAN_POINT('',(1.730825041092,4.068630917022E-02,0.));
#37 = CARTESIAN_POINT('',(1.75518431154,2.690855094059E-02,0.));
#38 = CARTESIAN_POINT('',(2.095978159709,-4.55731747273E-02,0.));
#39 = CARTESIAN_POINT('',(2.188088802233,3.074144050636E-03,0.));
#40 = CARTESIAN_POINT('',(2.250242304507,1.903760133711E-02,0.));
#41 = CARTESIAN_POINT('',(2.654345020599,3.406655339014E-02,0.));
#42 = CARTESIAN_POINT('',(2.835048993894,1.804769970766E-03,0.));
#43 = CARTESIAN_POINT('',(3.021664852162,-2.599984445574E-02,0.));
#44 = CARTESIAN_POINT('',(3.022504177202,2.559695694515E-02,0.));
#45 = CARTESIAN_POINT('',(3.071911098243,-3.092598249752E-02,0.));
#46 = CARTESIAN_POINT('',(3.448429097535,-1.557453296699E-02,0.));
#47 = CARTESIAN_POINT('',(3.631746378054,-3.450750750476E-02,0.));
#48 = CARTESIAN_POINT('',(3.751083275016,2.989084453501E-02,0.));
#49 = CARTESIAN_POINT('',(3.890865610529,-1.572337736797E-02,0.));
#50 = CARTESIAN_POINT('',(3.949717741995,4.155176646134E-02,0.));
#51 = CARTESIAN_POINT('',(4.324472860079,1.634436214024E-02,0.));
#52 = CARTESIAN_POINT('',(4.46287376455,-2.692321138114E-02,0.));
#53 = CARTESIAN_POINT('',(4.655331209493,-1.580020626959E-02,0.));
#54 = CARTESIAN_POINT('',(4.700782402263,3.74567129595E-02,0.));
#55 = CARTESIAN_POINT('',(5.307362276521,-4.30011206511E-02,0.));
#56 = CARTESIAN_POINT('',(5.323416430816,5.359788211858E-02,0.));
#57 = CARTESIAN_POINT('',(5.397548257815,-1.1425882622E-02,0.));
#58 = CARTESIAN_POINT('',(5.421299424917,-5.805846002779E-02,0.));
#59 = CARTESIAN_POINT('',(5.53930213589,-3.78056782113E-03,0.));
#60 = CARTESIAN_POINT('',(6.18068604543,-3.608061839513E-02,0.));
#61 = CARTESIAN_POINT('',(6.59457160998,-1.142171678269E-02,0.));
#62 = CARTESIAN_POINT('',(6.706830443551,-3.397059779076E-02,0.));
#63 = CARTESIAN_POINT('',(6.851386442058,-1.867129624263E-02,0.));
#64 = CARTESIAN_POINT('',(6.859590238439,-2.29358417445E-02,0.));
#65 = CARTESIAN_POINT('',(6.932544577647,3.266266186963E-02,0.));
#66 = CARTESIAN_POINT('',(7.797775838291,-2.901850962875E-02,0.));
#67 = CARTESIAN_POINT('',(7.8,3.145081360028E-02,0.));
#68 = PCURVE('',#69,#74);
#69 = PLANE('',#70);
#70 = AXIS2_PLACEMENT_3D('',#71,#72,#73);
#71 = CARTESIAN_POINT('',(3.894872978803,0.1,0.));
#72 = DIRECTION('',(0.,0.,1.));
#73 = DIRECTION('',(1.,0.,-0.));
#74 = DEFINITIONAL_REPRESENTATION('',(#75),#116);
#75 = B_SPLINE_CURVE_WITH_KNOTS('',1,(#76,#77,#78,#79,#80,#81,#82,#83,
    #84,#85,#86,#87,#88,#89,#90,#91,#92,#93,#94,#95,#96,#97,#98,#99,#100
    ,#101,#102,#103,#104,#105,#106,#107,#108,#109,#110,#111,#112,#113,
    #114,#115),.UNSPECIFIED.,.F.,.F.,(2,1,1,1,1,1,1,1,1,1,1,1,1,1,1,1,1,
    1,1,1,1,1,1,1,1,1,1,1,1,1,1,1,1,1,1,1,1,1,1,2),(0.,0.103150692296,
    0.116133431264,0.117553708057,0.144005517065,0.172652778836,
    0.208140167651,0.212075190423,0.215527951875,0.2189088435,
    0.261000248048,0.273584524339,0.28133685133,0.330189333438,
    0.352364956579,0.375158457229,0.381392574312,0.39046191763,
    0.435985994014,0.458249938504,0.474631948919,0.492395105409,
    0.502316072322,0.547691688983,0.565209598437,0.588498743625,
    0.596957105557,0.670878466467,0.682708438515,0.694621096164,
    0.700943295128,0.716634693614,0.794217019869,0.844306259122,
    0.858138874845,0.875699891858,0.876816880827,0.887898005102,
    0.992689898488,1.),.UNSPECIFIED.);
#76 = CARTESIAN_POINT('',(-3.894872978803,-0.152940833119));
#77 = CARTESIAN_POINT('',(-3.04424938824,-7.887754561022E-02));
#78 = CARTESIAN_POINT('',(-2.954368938878,-0.137788271086));
#79 = CARTESIAN_POINT('',(-2.945688737285,-0.129859240056));
#80 = CARTESIAN_POINT('',(-2.726946154322,-0.120150864407));
#81 = CARTESIAN_POINT('',(-2.491758554123,-0.150448056755));
#82 = CARTESIAN_POINT('',(-2.204516941979,-8.895095132576E-02));
#83 = CARTESIAN_POINT('',(-2.172018066976,-8.676054231794E-02));
#84 = CARTESIAN_POINT('',(-2.164047937711,-5.931369082978E-02));
#85 = CARTESIAN_POINT('',(-2.139688667262,-7.309144905941E-02));
#86 = CARTESIAN_POINT('',(-1.798894819093,-0.145573174727));
#87 = CARTESIAN_POINT('',(-1.706784176569,-9.692585594936E-02));
#88 = CARTESIAN_POINT('',(-1.644630674295,-8.096239866289E-02));
#89 = CARTESIAN_POINT('',(-1.240527958204,-6.593344660986E-02));
#90 = CARTESIAN_POINT('',(-1.059823984908,-9.819523002923E-02));
#91 = CARTESIAN_POINT('',(-0.873208126641,-0.125999844456));
#92 = CARTESIAN_POINT('',(-0.8723688016,-7.440304305485E-02));
#93 = CARTESIAN_POINT('',(-0.822961880559,-0.130925982498));
#94 = CARTESIAN_POINT('',(-0.446443881268,-0.115574532967));
#95 = CARTESIAN_POINT('',(-0.263126600748,-0.134507507505));
#96 = CARTESIAN_POINT('',(-0.143789703787,-7.010915546499E-02));
#97 = CARTESIAN_POINT('',(-4.007368273307E-03,-0.115723377368));
#98 = CARTESIAN_POINT('',(5.484476319268E-02,-5.844823353866E-02));
#99 = CARTESIAN_POINT('',(0.429599881276,-8.365563785976E-02));
#100 = CARTESIAN_POINT('',(0.568000785748,-0.126923211381));
#101 = CARTESIAN_POINT('',(0.760458230691,-0.11580020627));
#102 = CARTESIAN_POINT('',(0.80590942346,-6.25432870405E-02));
#103 = CARTESIAN_POINT('',(1.412489297719,-0.143001120651));
#104 = CARTESIAN_POINT('',(1.428543452014,-4.640211788142E-02));
#105 = CARTESIAN_POINT('',(1.502675279012,-0.111425882622));
#106 = CARTESIAN_POINT('',(1.526426446115,-0.158058460028));
#107 = CARTESIAN_POINT('',(1.644429157087,-0.103780567821));
#108 = CARTESIAN_POINT('',(2.285813066628,-0.136080618395));
#109 = CARTESIAN_POINT('',(2.699698631178,-0.111421716783));
#110 = CARTESIAN_POINT('',(2.811957464749,-0.133970597791));
#111 = CARTESIAN_POINT('',(2.956513463255,-0.118671296243));
#112 = CARTESIAN_POINT('',(2.964717259636,-0.122935841745));
#113 = CARTESIAN_POINT('',(3.037671598845,-6.733733813037E-02));
#114 = CARTESIAN_POINT('',(3.902902859488,-0.129018509629));
#115 = CARTESIAN_POINT('',(3.905127021197,-6.854918639972E-02));
#116 = ( GEOMETRIC_REPRESENTATION_CONTEXT(2) 
PARAMETRIC_REPRESENTATION_CONTEXT() REPRESENTATION_CONTEXT('2D SPACE',''
  ) );
#117 = ORIENTED_EDGE('',*,*,#118,.T.);
#118 = EDGE_CURVE('',#24,#119,#121,.T.);
#119 = VERTEX_POINT('',#120);
#120 = CARTESIAN_POINT('',(7.8,0.1685491864,0.));
#121 = SURFACE_CURVE('',#122,(#126),.PCURVE_S1.);
#122 = LINE('',#123,#124);
#123 = CARTESIAN_POINT('',(7.8,3.145081360028E-02,0.));
#124 = VECTOR('',#125,1.);
#125 = DIRECTION('',(0.,1.,0.));
#126 = PCURVE('',#69,#127);
#127 = DEFINITIONAL_REPRESENTATION('',(#128),#132);
#128 = LINE('',#129,#130);
#129 = CARTESIAN_POINT('',(3.905127021197,-6.854918639972E-02));
#130 = VECTOR('',#131,1.);
#131 = DIRECTION('',(0.,1.));
#132 = ( GEOMETRIC_REPRESENTATION_CONTEXT(2) 
PARAMETRIC_REPRESENTATION_CONTEXT() REPRESENTATION_CONTEXT('2D SPACE',''
  ) );
#133 = ORIENTED_EDGE('',*,*,#134,.T.);
#134 = EDGE_CURVE('',#119,#135,#137,.T.);
#135 = VERTEX_POINT('',#136);
#136 = CARTESIAN_POINT('',(0.,0.252940833119,0.));
#137 = SURFACE_CURVE('',#138,(#179),.PCURVE_S1.);
#138 = B_SPLINE_CURVE_WITH_KNOTS('',1,(#139,#140,#141,#142,#143,#144,
    #145,#146,#147,#148,#149,#150,#151,#152,#153,#154,#155,#156,#157,
    #158,#159,#160,#161,#162,#163,#164,#165,#166,#167,#168,#169,#170,
    #171,#172,#173,#174,#175,#176,#177,#178),.UNSPECIFIED.,.F.,.F.,(2,1,
    1,1,1,1,1,1,1,1,1,1,1,1,1,1,1,1,1,1,1,1,1,1,1,1,1,1,1,1,1,1,1,1,1,1,
    1,1,1,2),(0.,7.310101512109E-03,0.112101994898,0.123183119173,
    0.124300108142,0.141861125155,0.155693740878,0.205782980131,
    0.283365306386,0.299056704872,0.305378903836,0.317291561485,
    0.329121533533,0.403042894443,0.411501256375,0.434790401563,
    0.452308311017,0.497683927678,0.507604894591,0.525368051081,
    0.541750061496,0.564014005986,0.60953808237,0.618607425688,
    0.624841542771,0.647635043421,0.669810666562,0.71866314867,
    0.726415475661,0.738999751952,0.7810911565,0.784472048125,
    0.787924809577,0.791859832349,0.827347221164,0.855994482935,
    0.882446291943,0.883866568736,0.896849307704,1.),.UNSPECIFIED.);
#139 = CARTESIAN_POINT('',(7.8,0.1685491864,0.));
#140 = CARTESIAN_POINT('',(7.797775838291,0.229018509629,0.));
#141 = CARTESIAN_POINT('',(6.932544577647,0.16733733813,0.));
#142 = CARTESIAN_POINT('',(6.859590238439,0.222935841745,0.));
#143 = CARTESIAN_POINT('',(6.851386442058,0.218671296243,0.));
#144 = CARTESIAN_POINT('',(6.706830443551,0.233970597791,0.));
#145 = CARTESIAN_POINT('',(6.59457160998,0.211421716783,0.));
#146 = CARTESIAN_POINT('',(6.18068604543,0.236080618395,0.));
#147 = CARTESIAN_POINT('',(5.53930213589,0.203780567821,0.));
#148 = CARTESIAN_POINT('',(5.421299424917,0.258058460028,0.));
#149 = CARTESIAN_POINT('',(5.397548257815,0.211425882622,0.));
#150 = CARTESIAN_POINT('',(5.323416430816,0.146402117881,0.));
#151 = CARTESIAN_POINT('',(5.307362276521,0.243001120651,0.));
#152 = CARTESIAN_POINT('',(4.700782402263,0.162543287041,0.));
#153 = CARTESIAN_POINT('',(4.655331209493,0.21580020627,0.));
#154 = CARTESIAN_POINT('',(4.46287376455,0.226923211381,0.));
#155 = CARTESIAN_POINT('',(4.324472860079,0.18365563786,0.));
#156 = CARTESIAN_POINT('',(3.949717741995,0.158448233539,0.));
#157 = CARTESIAN_POINT('',(3.890865610529,0.215723377368,0.));
#158 = CARTESIAN_POINT('',(3.751083275016,0.170109155465,0.));
#159 = CARTESIAN_POINT('',(3.631746378054,0.234507507505,0.));
#160 = CARTESIAN_POINT('',(3.448429097535,0.215574532967,0.));
#161 = CARTESIAN_POINT('',(3.071911098243,0.230925982498,0.));
#162 = CARTESIAN_POINT('',(3.022504177202,0.174403043055,0.));
#163 = CARTESIAN_POINT('',(3.021664852162,0.225999844456,0.));
#164 = CARTESIAN_POINT('',(2.835048993894,0.198195230029,0.));
#165 = CARTESIAN_POINT('',(2.654345020599,0.16593344661,0.));
#166 = CARTESIAN_POINT('',(2.250242304507,0.180962398663,0.));
#167 = CARTESIAN_POINT('',(2.188088802233,0.196925855949,0.));
#168 = CARTESIAN_POINT('',(2.095978159709,0.245573174727,0.));
#169 = CARTESIAN_POINT('',(1.75518431154,0.173091449059,0.));
#170 = CARTESIAN_POINT('',(1.730825041092,0.15931369083,0.));
#171 = CARTESIAN_POINT('',(1.722854911826,0.186760542318,0.));
#172 = CARTESIAN_POINT('',(1.690356036823,0.188950951326,0.));
#173 = CARTESIAN_POINT('',(1.40311442468,0.250448056755,0.));
#174 = CARTESIAN_POINT('',(1.167926824481,0.220150864407,0.));
#175 = CARTESIAN_POINT('',(0.949184241518,0.229859240056,0.));
#176 = CARTESIAN_POINT('',(0.940504039925,0.237788271086,0.));
#177 = CARTESIAN_POINT('',(0.850623590563,0.17887754561,0.));
#178 = CARTESIAN_POINT('',(0.,0.252940833119,0.));
#179 = PCURVE('',#69,#180);
#180 = DEFINITIONAL_REPRESENTATION('',(#181),#222);
#181 = B_SPLINE_CURVE_WITH_KNOTS('',1,(#182,#183,#184,#185,#186,#187,
    #188,#189,#190,#191,#192,#193,#194,#195,#196,#197,#198,#199,#200,
    #201,#202,#203,#204,#205,#206,#207,#208,#209,#210,#211,#212,#213,
    #214,#215,#216,#217,#218,#219,#220,#221),.UNSPECIFIED.,.F.,.F.,(2,1,
    1,1,1,1,1,1,1,1,1,1,1,1,1,1,1,1,1,1,1,1,1,1,1,1,1,1,1,1,1,1,1,1,1,1,
    1,1,1,2),(0.,7.310101512109E-03,0.112101994898,0.123183119173,
    0.124300108142,0.141861125155,0.155693740878,0.205782980131,
    0.283365306386,0.299056704872,0.305378903836,0.317291561485,
    0.329121533533,0.403042894443,0.411501256375,0.434790401563,
    0.452308311017,0.497683927678,0.507604894591,0.525368051081,
    0.541750061496,0.564014005986,0.60953808237,0.618607425688,
    0.624841542771,0.647635043421,0.669810666562,0.71866314867,
    0.726415475661,0.738999751952,0.7810911565,0.784472048125,
    0.787924809577,0.791859832349,0.827347221164,0.855994482935,
    0.882446291943,0.883866568736,0.896849307704,1.),.UNSPECIFIED.);
#182 = CARTESIAN_POINT('',(3.905127021197,6.854918639972E-02));
#183 = CARTESIAN_POINT('',(3.902902859488,0.129018509629));
#184 = CARTESIAN_POINT('',(3.037671598845,6.733733813037E-02));
#185 = CARTESIAN_POINT('',(2.964717259636,0.122935841745));
#186 = CARTESIAN_POINT('',(2.956513463255,0.118671296243));
#187 = CARTESIAN_POINT('',(2.811957464749,0.133970597791));
#188 = CARTESIAN_POINT('',(2.699698631178,0.111421716783));
#189 = CARTESIAN_POINT('',(2.285813066628,0.136080618395));
#190 = CARTESIAN_POINT('',(1.644429157087,0.103780567821));
#191 = CARTESIAN_POINT('',(1.526426446115,0.158058460028));
#192 = CARTESIAN_POINT('',(1.502675279012,0.111425882622));
#193 = CARTESIAN_POINT('',(1.428543452014,4.640211788142E-02));
#194 = CARTESIAN_POINT('',(1.412489297719,0.143001120651));
#195 = CARTESIAN_POINT('',(0.80590942346,6.25432870405E-02));
#196 = CARTESIAN_POINT('',(0.760458230691,0.11580020627));
#197 = CARTESIAN_POINT('',(0.568000785748,0.126923211381));
#198 = CARTESIAN_POINT('',(0.429599881276,8.365563785976E-02));
#199 = CARTESIAN_POINT('',(5.484476319268E-02,5.844823353866E-02));
#200 = CARTESIAN_POINT('',(-4.007368273307E-03,0.115723377368));
#201 = CARTESIAN_POINT('',(-0.143789703787,7.010915546499E-02));
#202 = CARTESIAN_POINT('',(-0.263126600748,0.134507507505));
#203 = CARTESIAN_POINT('',(-0.446443881268,0.115574532967));
#204 = CARTESIAN_POINT('',(-0.822961880559,0.130925982498));
#205 = CARTESIAN_POINT('',(-0.8723688016,7.440304305485E-02));
#206 = CARTESIAN_POINT('',(-0.873208126641,0.125999844456));
#207 = CARTESIAN_POINT('',(-1.059823984908,9.819523002923E-02));
#208 = CARTESIAN_POINT('',(-1.240527958204,6.593344660986E-02));
#209 = CARTESIAN_POINT('',(-1.644630674295,8.096239866289E-02));
#210 = CARTESIAN_POINT('',(-1.706784176569,9.692585594936E-02));
#211 = CARTESIAN_POINT('',(-1.798894819093,0.145573174727));
#212 = CARTESIAN_POINT('',(-2.139688667262,7.309144905941E-02));
#213 = CARTESIAN_POINT('',(-2.164047937711,5.931369082978E-02));
#214 = CARTESIAN_POINT('',(-2.172018066976,8.676054231794E-02));
#215 = CARTESIAN_POINT('',(-2.204516941979,8.895095132576E-02));
#216 = CARTESIAN_POINT('',(-2.491758554123,0.150448056755));
#217 = CARTESIAN_POINT('',(-2.726946154322,0.120150864407));
#218 = CARTESIAN_POINT('',(-2.945688737285,0.129859240056));
#219 = CARTESIAN_POINT('',(-2.954368938878,0.137788271086));
#220 = CARTESIAN_POINT('',(-3.04424938824,7.887754561022E-02));
#221 = CARTESIAN_POINT('',(-3.894872978803,0.152940833119));
#222 = ( GEOMETRIC_REPRESENTATION_CONTEXT(2) 
PARAMETRIC_REPRESENTATION_CONTEXT() REPRESENTATION_CONTEXT('2D SPACE',''
  ) );
#223 = ORIENTED_EDGE('',*,*,#224,.T.);
#224 = EDGE_CURVE('',#135,#22,#225,.T.);
#225 = SURFACE_CURVE('',#226,(#230),.PCURVE_S1.);
#226 = LINE('',#227,#228);
#227 = CARTESIAN_POINT('',(0.,0.252940833119,0.));
#228 = VECTOR('',#229,1.);
#229 = DIRECTION('',(0.,-1.,0.));
#230 = PCURVE('',#69,#231);
#231 = DEFINITIONAL_REPRESENTATION('',(#232),#236);
#232 = LINE('',#233,#234);
#233 = CARTESIAN_POINT('',(-3.894872978803,0.152940833119));
#234 = VECTOR('',#235,1.);
#235 = DIRECTION('',(0.,-1.));
#236 = ( GEOMETRIC_REPRESENTATION_CONTEXT(2) 
PARAMETRIC_REPRESENTATION_CONTEXT() REPRESENTATION_CONTEXT('2D SPACE',''
  ) );
#237 = ( GEOMETRIC_REPRESENTATION_CONTEXT(3) 
GLOBAL_UNCERTAINTY_ASSIGNED_CONTEXT((#241)) GLOBAL_UNIT_ASSIGNED_CONTEXT
((#238,#239,#240)) REPRESENTATION_CONTEXT('Context #1',
  '3D Context with UNIT and UNCERTAINTY') );
#238 = ( LENGTH_UNIT() NAMED_UNIT(*) SI_UNIT(.MILLI.,.METRE.) );
#239 = ( NAMED_UNIT(*) PLANE_ANGLE_UNIT() SI_UNIT($,.RADIAN.) );
#240 = ( NAMED_UNIT(*) SI_UNIT($,.STERADIAN.) SOLID_ANGLE_UNIT() );
#241 = UNCERTAINTY_MEASURE_WITH_UNIT(LENGTH_MEASURE(1.E-07),#238,
  'distance_accuracy_value','confusion accuracy');
#242 = PRODUCT_RELATED_PRODUCT_CATEGORY('part',$,(#7));
ENDSEC;
END-ISO-10303-21;
