ISO-10303-21;
HEADER;
FILE_DESCRIPTION(('Open CASCADE Model'),'2;1');
FILE_NAME('Open CASCADE Shape Model','2026-05-28T17:04:49',('Author'),(
    'Open CASCADE'),'Open CASCADE STEP processor 7.9','Open CASCADE 7.9'
  ,'Unknown');
FILE_SCHEMA(('AUTOMOTIVE_DESIGN { 1 0 10303 214 1 1 1 1 }'));
ENDSEC;
DATA;
#1 = APPLICATION_PROTOCOL_DEFINITION('international standard',
  'automotive_design',2000,#2);
#2 = APPLICATION_CONTEXT(
  'core data for automotive mechanical design processes');
#3 = SHAPE_DEFINITION_REPRESENTATION(#4,#10);
#4 = PRODUCT_DEFINITION_SHAPE('','',#5);
#5 = PRODUCT_DEFINITION('design','',#6,#9);
#6 = PRODUCT_DEFINITION_FORMATION('','',#7);
#7 = PRODUCT('Open CASCADE STEP translator 7.9 40',
  'Open CASCADE STEP translator 7.9 40','',(#8));
#8 = PRODUCT_CONTEXT('',#2,'mechanical');
#9 = PRODUCT_DEFINITION_CONTEXT('part definition',#2,'design');
#10 = MANIFOLD_SURFACE_SHAPE_REPRESENTATION('',(#11,#15),#133);
#11 = AXIS2_PLACEMENT_3D('',#12,#13,#14);
#12 = CARTESIAN_POINT('',(0.,0.,0.));
#13 = DIRECTION('',(0.,0.,1.));
#14 = DIRECTION('',(1.,0.,-0.));
#15 = SHELL_BASED_SURFACE_MODEL('',(#16));
#16 = OPEN_SHELL('',(#17));
#17 = ADVANCED_FACE('',(#18),#43,.T.);
#18 = FACE_BOUND('',#19,.T.);
#19 = EDGE_LOOP('',(#20,#65,#81,#119));
#20 = ORIENTED_EDGE('',*,*,#21,.T.);
#21 = EDGE_CURVE('',#22,#24,#26,.T.);
#22 = VERTEX_POINT('',#23);
#23 = CARTESIAN_POINT('',(0.,5.036672155152E-02,0.));
#24 = VERTEX_POINT('',#25);
#25 = CARTESIAN_POINT('',(2.6,-4.418837283395E-02,0.));
#26 = SURFACE_CURVE('',#27,(#42),.PCURVE_S1.);
#27 = B_SPLINE_CURVE_WITH_KNOTS('',1,(#28,#29,#30,#31,#32,#33,#34,#35,
    #36,#37,#38,#39,#40,#41),.UNSPECIFIED.,.F.,.F.,(2,1,1,1,1,1,1,1,1,1,
    1,1,1,2),(0.,3.145762695684E-02,7.62432036007E-02,0.111515935624,
    0.201035985311,0.218227882191,0.318054228337,0.378571473657,
    0.410244368024,0.436293228198,0.528143446038,0.77870122916,
    0.924143849231,1.),.UNSPECIFIED.);
#28 = CARTESIAN_POINT('',(0.,5.036672155152E-02,0.));
#29 = CARTESIAN_POINT('',(8.474035244224E-02,2.847244843022E-02,0.));
#30 = CARTESIAN_POINT('',(0.174142834143,-5.832356916919E-02,0.));
#31 = CARTESIAN_POINT('',(0.204732553696,3.492484710185E-02,0.));
#32 = CARTESIAN_POINT('',(0.45379654223,3.622587103055E-02,0.));
#33 = CARTESIAN_POINT('',(0.469836108994,-8.836880255485E-03,0.));
#34 = CARTESIAN_POINT('',(0.747429848226,2.402051048212E-04,0.));
#35 = CARTESIAN_POINT('',(0.915513232206,-9.652595664341E-03,0.));
#36 = CARTESIAN_POINT('',(1.000177028919,1.479176661497E-02,0.));
#37 = CARTESIAN_POINT('',(1.048511315619,-3.921148318739E-02,0.));
#38 = CARTESIAN_POINT('',(1.290350731356,4.33703338269E-02,0.));
#39 = CARTESIAN_POINT('',(1.986597738895,8.592882499024E-03,0.));
#40 = CARTESIAN_POINT('',(2.390038513765,-2.277142181329E-02,0.));
#41 = CARTESIAN_POINT('',(2.6,-4.418837283395E-02,0.));
#42 = PCURVE('',#43,#48);
#43 = PLANE('',#44);
#44 = AXIS2_PLACEMENT_3D('',#45,#46,#47);
#45 = CARTESIAN_POINT('',(1.28970405358,1.E-01,0.));
#46 = DIRECTION('',(0.,0.,1.));
#47 = DIRECTION('',(1.,0.,-0.));
#48 = DEFINITIONAL_REPRESENTATION('',(#49),#64);
#49 = B_SPLINE_CURVE_WITH_KNOTS('',1,(#50,#51,#52,#53,#54,#55,#56,#57,
    #58,#59,#60,#61,#62,#63),.UNSPECIFIED.,.F.,.F.,(2,1,1,1,1,1,1,1,1,1,
    1,1,1,2),(0.,3.145762695684E-02,7.62432036007E-02,0.111515935624,
    0.201035985311,0.218227882191,0.318054228337,0.378571473657,
    0.410244368024,0.436293228198,0.528143446038,0.77870122916,
    0.924143849231,1.),.UNSPECIFIED.);
#50 = CARTESIAN_POINT('',(-1.28970405358,-4.963327844848E-02));
#51 = CARTESIAN_POINT('',(-1.204963701138,-7.152755156978E-02));
#52 = CARTESIAN_POINT('',(-1.115561219437,-0.158323569169));
#53 = CARTESIAN_POINT('',(-1.084971499884,-6.507515289815E-02));
#54 = CARTESIAN_POINT('',(-0.83590751135,-6.377412896945E-02));
#55 = CARTESIAN_POINT('',(-0.819867944586,-0.108836880255));
#56 = CARTESIAN_POINT('',(-0.542274205354,-9.975979489518E-02));
#57 = CARTESIAN_POINT('',(-0.374190821373,-0.109652595664));
#58 = CARTESIAN_POINT('',(-0.28952702466,-8.520823338503E-02));
#59 = CARTESIAN_POINT('',(-0.241192737961,-0.139211483187));
#60 = CARTESIAN_POINT('',(6.466777762422E-04,-5.66296661731E-02));
#61 = CARTESIAN_POINT('',(0.696893685316,-9.140711750098E-02));
#62 = CARTESIAN_POINT('',(1.100334460185,-0.122771421813));
#63 = CARTESIAN_POINT('',(1.31029594642,-0.144188372834));
#64 = ( GEOMETRIC_REPRESENTATION_CONTEXT(2) 
PARAMETRIC_REPRESENTATION_CONTEXT() REPRESENTATION_CONTEXT('2D SPACE',''
  ) );
#65 = ORIENTED_EDGE('',*,*,#66,.T.);
#66 = EDGE_CURVE('',#24,#67,#69,.T.);
#67 = VERTEX_POINT('',#68);
#68 = CARTESIAN_POINT('',(2.6,0.244188372834,0.));
#69 = SURFACE_CURVE('',#70,(#74),.PCURVE_S1.);
#70 = LINE('',#71,#72);
#71 = CARTESIAN_POINT('',(2.6,-4.418837283395E-02,0.));
#72 = VECTOR('',#73,1.);
#73 = DIRECTION('',(0.,1.,0.));
#74 = PCURVE('',#43,#75);
#75 = DEFINITIONAL_REPRESENTATION('',(#76),#80);
#76 = LINE('',#77,#78);
#77 = CARTESIAN_POINT('',(1.31029594642,-0.144188372834));
#78 = VECTOR('',#79,1.);
#79 = DIRECTION('',(0.,1.));
#80 = ( GEOMETRIC_REPRESENTATION_CONTEXT(2) 
PARAMETRIC_REPRESENTATION_CONTEXT() REPRESENTATION_CONTEXT('2D SPACE',''
  ) );
#81 = ORIENTED_EDGE('',*,*,#82,.T.);
#82 = EDGE_CURVE('',#67,#83,#85,.T.);
#83 = VERTEX_POINT('',#84);
#84 = CARTESIAN_POINT('',(0.,0.149633278448,0.));
#85 = SURFACE_CURVE('',#86,(#101),.PCURVE_S1.);
#86 = B_SPLINE_CURVE_WITH_KNOTS('',1,(#87,#88,#89,#90,#91,#92,#93,#94,
    #95,#96,#97,#98,#99,#100),.UNSPECIFIED.,.F.,.F.,(2,1,1,1,1,1,1,1,1,1
    ,1,1,1,2),(0.,7.585615076919E-02,0.22129877084,0.471856553962,
    0.563706771802,0.589755631976,0.621428526343,0.681945771663,
    0.781772117809,0.798964014689,0.888484064376,0.923756796399,
    0.968542373043,1.),.UNSPECIFIED.);
#87 = CARTESIAN_POINT('',(2.6,0.244188372834,0.));
#88 = CARTESIAN_POINT('',(2.390038513765,0.222771421813,0.));
#89 = CARTESIAN_POINT('',(1.986597738895,0.191407117501,0.));
#90 = CARTESIAN_POINT('',(1.290350731356,0.156629666173,0.));
#91 = CARTESIAN_POINT('',(1.048511315619,0.239211483187,0.));
#92 = CARTESIAN_POINT('',(1.000177028919,0.185208233385,0.));
#93 = CARTESIAN_POINT('',(0.915513232206,0.209652595664,0.));
#94 = CARTESIAN_POINT('',(0.747429848226,0.199759794895,0.));
#95 = CARTESIAN_POINT('',(0.469836108994,0.208836880255,0.));
#96 = CARTESIAN_POINT('',(0.45379654223,0.163774128969,0.));
#97 = CARTESIAN_POINT('',(0.204732553696,0.165075152898,0.));
#98 = CARTESIAN_POINT('',(0.174142834143,0.258323569169,0.));
#99 = CARTESIAN_POINT('',(8.474035244224E-02,0.17152755157,0.));
#100 = CARTESIAN_POINT('',(0.,0.149633278448,0.));
#101 = PCURVE('',#43,#102);
#102 = DEFINITIONAL_REPRESENTATION('',(#103),#118);
#103 = B_SPLINE_CURVE_WITH_KNOTS('',1,(#104,#105,#106,#107,#108,#109,
    #110,#111,#112,#113,#114,#115,#116,#117),.UNSPECIFIED.,.F.,.F.,(2,1,
    1,1,1,1,1,1,1,1,1,1,1,2),(0.,7.585615076919E-02,0.22129877084,
    0.471856553962,0.563706771802,0.589755631976,0.621428526343,
    0.681945771663,0.781772117809,0.798964014689,0.888484064376,
    0.923756796399,0.968542373043,1.),.UNSPECIFIED.);
#104 = CARTESIAN_POINT('',(1.31029594642,0.144188372834));
#105 = CARTESIAN_POINT('',(1.100334460185,0.122771421813));
#106 = CARTESIAN_POINT('',(0.696893685316,9.140711750098E-02));
#107 = CARTESIAN_POINT('',(6.466777762422E-04,5.66296661731E-02));
#108 = CARTESIAN_POINT('',(-0.241192737961,0.139211483187));
#109 = CARTESIAN_POINT('',(-0.28952702466,8.520823338503E-02));
#110 = CARTESIAN_POINT('',(-0.374190821373,0.109652595664));
#111 = CARTESIAN_POINT('',(-0.542274205354,9.975979489518E-02));
#112 = CARTESIAN_POINT('',(-0.819867944586,0.108836880255));
#113 = CARTESIAN_POINT('',(-0.83590751135,6.377412896945E-02));
#114 = CARTESIAN_POINT('',(-1.084971499884,6.507515289815E-02));
#115 = CARTESIAN_POINT('',(-1.115561219437,0.158323569169));
#116 = CARTESIAN_POINT('',(-1.204963701138,7.152755156978E-02));
#117 = CARTESIAN_POINT('',(-1.28970405358,4.963327844848E-02));
#118 = ( GEOMETRIC_REPRESENTATION_CONTEXT(2) 
PARAMETRIC_REPRESENTATION_CONTEXT() REPRESENTATION_CONTEXT('2D SPACE',''
  ) );
#119 = ORIENTED_EDGE('',*,*,#120,.T.);
#120 = EDGE_CURVE('',#83,#22,#121,.T.);
#121 = SURFACE_CURVE('',#122,(#126),.PCURVE_S1.);
#122 = LINE('',#123,#124);
#123 = CARTESIAN_POINT('',(0.,0.149633278448,0.));
#124 = VECTOR('',#125,1.);
#125 = DIRECTION('',(0.,-1.,0.));
#126 = PCURVE('',#43,#127);
#127 = DEFINITIONAL_REPRESENTATION('',(#128),#132);
#128 = LINE('',#129,#130);
#129 = CARTESIAN_POINT('',(-1.28970405358,4.963327844848E-02));
#130 = VECTOR('',#131,1.);
#131 = DIRECTION('',(0.,-1.));
#132 = ( GEOMETRIC_REPRESENTATION_CONTEXT(2) 
PARAMETRIC_REPRESENTATION_CONTEXT() REPRESENTATION_CONTEXT('2D SPACE',''
  ) );
#133 = ( GEOMETRIC_REPRESENTATION_CONTEXT(3) 
GLOBAL_UNCERTAINTY_ASSIGNED_CONTEXT((#137)) GLOBAL_UNIT_ASSIGNED_CONTEXT
((#134,#135,#136)) REPRESENTATION_CONTEXT('Context #1',
  '3D Context with UNIT and UNCERTAINTY') );
#134 = ( LENGTH_UNIT() NAMED_UNIT(*) SI_UNIT(.MILLI.,.METRE.) );
#135 = ( NAMED_UNIT(*) PLANE_ANGLE_UNIT() SI_UNIT($,.RADIAN.) );
#136 = ( NAMED_UNIT(*) SI_UNIT($,.STERADIAN.) SOLID_ANGLE_UNIT() );
#137 = UNCERTAINTY_MEASURE_WITH_UNIT(LENGTH_MEASURE(1.E-07),#134,
  'distance_accuracy_value','confusion accuracy');
#138 = PRODUCT_RELATED_PRODUCT_CATEGORY('part',$,(#7));
ENDSEC;
END-ISO-10303-21;
