ISO-10303-21;
HEADER;
FILE_DESCRIPTION(('Open CASCADE Model'),'2;1');
FILE_NAME('Open CASCADE Shape Model','2026-05-29T14:30:30',('Author'),(
    'Open CASCADE'),'Open CASCADE STEP processor 7.9','Open CASCADE 7.9'
  ,'Unknown');
FILE_SCHEMA(('AUTOMOTIVE_DESIGN { 1 0 10303 214 1 1 1 1 }'));
ENDSEC;
DATA;
#1 = APPLICATION_PROTOCOL_DEFINITION('international standard',
  'automotive_design',2000,#2);
#2 = APPLICATION_CONTEXT(
  'core data for automotive mechanical design processes');
#3 = SHAPE_DEFINITION_REPRESENTATION(#4,#10);
#4 = PRODUCT_DEFINITION_SHAPE('','',#5);
#5 = PRODUCT_DEFINITION('design','',#6,#9);
#6 = PRODUCT_DEFINITION_FORMATION('','',#7);
#7 = PRODUCT('Open CASCADE STEP translator 7.9 60',
  'Open CASCADE STEP translator 7.9 60','',(#8));
#8 = PRODUCT_CONTEXT('',#2,'mechanical');
#9 = PRODUCT_DEFINITION_CONTEXT('part definition',#2,'design');
#10 = MANIFOLD_SURFACE_SHAPE_REPRESENTATION('',(#11,#15),#121);
#11 = AXIS2_PLACEMENT_3D('',#12,#13,#14);
#12 = CARTESIAN_POINT('',(0.,0.,0.));
#13 = DIRECTION('',(0.,0.,1.));
#14 = DIRECTION('',(1.,0.,-0.));
#15 = SHELL_BASED_SURFACE_MODEL('',(#16));
#16 = OPEN_SHELL('',(#17));
#17 = ADVANCED_FACE('',(#18),#40,.T.);
#18 = FACE_BOUND('',#19,.T.);
#19 = EDGE_LOOP('',(#20,#59,#75,#107));
#20 = ORIENTED_EDGE('',*,*,#21,.T.);
#21 = EDGE_CURVE('',#22,#24,#26,.T.);
#22 = VERTEX_POINT('',#23);
#23 = CARTESIAN_POINT('',(0.,-42.37962556911,0.));
#24 = VERTEX_POINT('',#25);
#25 = CARTESIAN_POINT('',(1.5E+03,12.719448762488,0.));
#26 = SURFACE_CURVE('',#27,(#39),.PCURVE_S1.);
#27 = B_SPLINE_CURVE_WITH_KNOTS('',1,(#28,#29,#30,#31,#32,#33,#34,#35,
    #36,#37,#38),.UNSPECIFIED.,.F.,.F.,(2,1,1,1,1,1,1,1,1,1,2),(0.,
    4.971092385339E-02,0.149558589502,0.224617188904,0.367922241022,
    0.446133931937,0.515339144853,0.578469030242,0.68842976258,
    0.731181270884,1.),.UNSPECIFIED.);
#28 = CARTESIAN_POINT('',(0.,-42.37962556911,0.));
#29 = CARTESIAN_POINT('',(55.709839245576,10.734087490457,0.));
#30 = CARTESIAN_POINT('',(210.3053142914,9.222747790051,0.));
#31 = CARTESIAN_POINT('',(325.29705121101,-7.627743252444,0.));
#32 = CARTESIAN_POINT('',(543.34861041458,33.475265050699,0.));
#33 = CARTESIAN_POINT('',(663.19798472797,16.102293622933,0.));
#34 = CARTESIAN_POINT('',(769.73461829453,27.611250979938,0.));
#35 = CARTESIAN_POINT('',(867.14851562945,35.704486880366,0.));
#36 = CARTESIAN_POINT('',(1.022953619466E+03,-32.95301456979,0.));
#37 = CARTESIAN_POINT('',(1.084282474441E+03,-8.039804951473,0.));
#38 = CARTESIAN_POINT('',(1.5E+03,12.719448762488,0.));
#39 = PCURVE('',#40,#45);
#40 = PLANE('',#41);
#41 = AXIS2_PLACEMENT_3D('',#42,#43,#44);
#42 = CARTESIAN_POINT('',(718.69834775054,75.,0.));
#43 = DIRECTION('',(0.,0.,1.));
#44 = DIRECTION('',(1.,0.,-0.));
#45 = DEFINITIONAL_REPRESENTATION('',(#46),#58);
#46 = B_SPLINE_CURVE_WITH_KNOTS('',1,(#47,#48,#49,#50,#51,#52,#53,#54,
    #55,#56,#57),.UNSPECIFIED.,.F.,.F.,(2,1,1,1,1,1,1,1,1,1,2),(0.,
    4.971092385339E-02,0.149558589502,0.224617188904,0.367922241022,
    0.446133931937,0.515339144853,0.578469030242,0.68842976258,
    0.731181270884,1.),.UNSPECIFIED.);
#47 = CARTESIAN_POINT('',(-718.6983477505,-117.3796255691));
#48 = CARTESIAN_POINT('',(-662.9885085049,-64.26591250954));
#49 = CARTESIAN_POINT('',(-508.3930334591,-65.77725220994));
#50 = CARTESIAN_POINT('',(-393.4012965395,-82.62774325244));
#51 = CARTESIAN_POINT('',(-175.3497373359,-41.5247349493));
#52 = CARTESIAN_POINT('',(-55.50036302257,-58.89770637706));
#53 = CARTESIAN_POINT('',(51.036270543988,-47.38874902006));
#54 = CARTESIAN_POINT('',(148.4501678789,-39.29551311963));
#55 = CARTESIAN_POINT('',(304.25527171544,-107.9530145697));
#56 = CARTESIAN_POINT('',(365.58412669014,-83.03980495147));
#57 = CARTESIAN_POINT('',(781.30165224945,-62.28055123751));
#58 = ( GEOMETRIC_REPRESENTATION_CONTEXT(2) 
PARAMETRIC_REPRESENTATION_CONTEXT() REPRESENTATION_CONTEXT('2D SPACE',''
  ) );
#59 = ORIENTED_EDGE('',*,*,#60,.T.);
#60 = EDGE_CURVE('',#24,#61,#63,.T.);
#61 = VERTEX_POINT('',#62);
#62 = CARTESIAN_POINT('',(1.5E+03,137.28055123751,0.));
#63 = SURFACE_CURVE('',#64,(#68),.PCURVE_S1.);
#64 = LINE('',#65,#66);
#65 = CARTESIAN_POINT('',(1.5E+03,12.719448762488,0.));
#66 = VECTOR('',#67,1.);
#67 = DIRECTION('',(0.,1.,0.));
#68 = PCURVE('',#40,#69);
#69 = DEFINITIONAL_REPRESENTATION('',(#70),#74);
#70 = LINE('',#71,#72);
#71 = CARTESIAN_POINT('',(781.30165224945,-62.28055123751));
#72 = VECTOR('',#73,1.);
#73 = DIRECTION('',(0.,1.));
#74 = ( GEOMETRIC_REPRESENTATION_CONTEXT(2) 
PARAMETRIC_REPRESENTATION_CONTEXT() REPRESENTATION_CONTEXT('2D SPACE',''
  ) );
#75 = ORIENTED_EDGE('',*,*,#76,.T.);
#76 = EDGE_CURVE('',#61,#77,#79,.T.);
#77 = VERTEX_POINT('',#78);
#78 = CARTESIAN_POINT('',(0.,192.37962556911,0.));
#79 = SURFACE_CURVE('',#80,(#92),.PCURVE_S1.);
#80 = B_SPLINE_CURVE_WITH_KNOTS('',1,(#81,#82,#83,#84,#85,#86,#87,#88,
    #89,#90,#91),.UNSPECIFIED.,.F.,.F.,(2,1,1,1,1,1,1,1,1,1,2),(0.,
    0.268818729116,0.31157023742,0.421530969758,0.484660855147,
    0.553866068063,0.632077758978,0.775382811096,0.850441410498,
    0.950289076147,1.),.UNSPECIFIED.);
#81 = CARTESIAN_POINT('',(1.5E+03,137.28055123751,0.));
#82 = CARTESIAN_POINT('',(1.084282474441E+03,158.03980495147,0.));
#83 = CARTESIAN_POINT('',(1.022953619466E+03,182.95301456979,0.));
#84 = CARTESIAN_POINT('',(867.14851562945,114.29551311963,0.));
#85 = CARTESIAN_POINT('',(769.73461829453,122.38874902006,0.));
#86 = CARTESIAN_POINT('',(663.19798472797,133.89770637706,0.));
#87 = CARTESIAN_POINT('',(543.34861041458,116.5247349493,0.));
#88 = CARTESIAN_POINT('',(325.29705121101,157.62774325244,0.));
#89 = CARTESIAN_POINT('',(210.3053142914,140.77725220994,0.));
#90 = CARTESIAN_POINT('',(55.709839245576,139.26591250954,0.));
#91 = CARTESIAN_POINT('',(0.,192.37962556911,0.));
#92 = PCURVE('',#40,#93);
#93 = DEFINITIONAL_REPRESENTATION('',(#94),#106);
#94 = B_SPLINE_CURVE_WITH_KNOTS('',1,(#95,#96,#97,#98,#99,#100,#101,#102
    ,#103,#104,#105),.UNSPECIFIED.,.F.,.F.,(2,1,1,1,1,1,1,1,1,1,2),(0.,
    0.268818729116,0.31157023742,0.421530969758,0.484660855147,
    0.553866068063,0.632077758978,0.775382811096,0.850441410498,
    0.950289076147,1.),.UNSPECIFIED.);
#95 = CARTESIAN_POINT('',(781.30165224945,62.280551237512));
#96 = CARTESIAN_POINT('',(365.58412669014,83.039804951473));
#97 = CARTESIAN_POINT('',(304.25527171544,107.95301456979));
#98 = CARTESIAN_POINT('',(148.4501678789,39.295513119634));
#99 = CARTESIAN_POINT('',(51.036270543988,47.388749020062));
#100 = CARTESIAN_POINT('',(-55.50036302257,58.897706377067));
#101 = CARTESIAN_POINT('',(-175.3497373359,41.524734949301));
#102 = CARTESIAN_POINT('',(-393.4012965395,82.627743252444));
#103 = CARTESIAN_POINT('',(-508.3930334591,65.777252209949));
#104 = CARTESIAN_POINT('',(-662.9885085049,64.265912509543));
#105 = CARTESIAN_POINT('',(-718.6983477505,117.37962556911));
#106 = ( GEOMETRIC_REPRESENTATION_CONTEXT(2) 
PARAMETRIC_REPRESENTATION_CONTEXT() REPRESENTATION_CONTEXT('2D SPACE',''
  ) );
#107 = ORIENTED_EDGE('',*,*,#108,.T.);
#108 = EDGE_CURVE('',#77,#22,#109,.T.);
#109 = SURFACE_CURVE('',#110,(#114),.PCURVE_S1.);
#110 = LINE('',#111,#112);
#111 = CARTESIAN_POINT('',(0.,192.37962556911,0.));
#112 = VECTOR('',#113,1.);
#113 = DIRECTION('',(0.,-1.,0.));
#114 = PCURVE('',#40,#115);
#115 = DEFINITIONAL_REPRESENTATION('',(#116),#120);
#116 = LINE('',#117,#118);
#117 = CARTESIAN_POINT('',(-718.6983477505,117.37962556911));
#118 = VECTOR('',#119,1.);
#119 = DIRECTION('',(0.,-1.));
#120 = ( GEOMETRIC_REPRESENTATION_CONTEXT(2) 
PARAMETRIC_REPRESENTATION_CONTEXT() REPRESENTATION_CONTEXT('2D SPACE',''
  ) );
#121 = ( GEOMETRIC_REPRESENTATION_CONTEXT(3) 
GLOBAL_UNCERTAINTY_ASSIGNED_CONTEXT((#125)) GLOBAL_UNIT_ASSIGNED_CONTEXT
((#122,#123,#124)) REPRESENTATION_CONTEXT('Context #1',
  '3D Context with UNIT and UNCERTAINTY') );
#122 = ( LENGTH_UNIT() NAMED_UNIT(*) SI_UNIT(.MILLI.,.METRE.) );
#123 = ( NAMED_UNIT(*) PLANE_ANGLE_UNIT() SI_UNIT($,.RADIAN.) );
#124 = ( NAMED_UNIT(*) SI_UNIT($,.STERADIAN.) SOLID_ANGLE_UNIT() );
#125 = UNCERTAINTY_MEASURE_WITH_UNIT(LENGTH_MEASURE(1.E-07),#122,
  'distance_accuracy_value','confusion accuracy');
#126 = PRODUCT_RELATED_PRODUCT_CATEGORY('part',$,(#7));
ENDSEC;
END-ISO-10303-21;
