ISO-10303-21;
HEADER;
FILE_DESCRIPTION(('Open CASCADE Model'),'2;1');
FILE_NAME('Open CASCADE Shape Model','2026-05-28T17:04:48',('Author'),(
    'Open CASCADE'),'Open CASCADE STEP processor 7.9','Open CASCADE 7.9'
  ,'Unknown');
FILE_SCHEMA(('AUTOMOTIVE_DESIGN { 1 0 10303 214 1 1 1 1 }'));
ENDSEC;
DATA;
#1 = APPLICATION_PROTOCOL_DEFINITION('international standard',
  'automotive_design',2000,#2);
#2 = APPLICATION_CONTEXT(
  'core data for automotive mechanical design processes');
#3 = SHAPE_DEFINITION_REPRESENTATION(#4,#10);
#4 = PRODUCT_DEFINITION_SHAPE('','',#5);
#5 = PRODUCT_DEFINITION('design','',#6,#9);
#6 = PRODUCT_DEFINITION_FORMATION('','',#7);
#7 = PRODUCT('Open CASCADE STEP translator 7.9 9',
  'Open CASCADE STEP translator 7.9 9','',(#8));
#8 = PRODUCT_CONTEXT('',#2,'mechanical');
#9 = PRODUCT_DEFINITION_CONTEXT('part definition',#2,'design');
#10 = MANIFOLD_SURFACE_SHAPE_REPRESENTATION('',(#11,#15),#121);
#11 = AXIS2_PLACEMENT_3D('',#12,#13,#14);
#12 = CARTESIAN_POINT('',(0.,0.,0.));
#13 = DIRECTION('',(0.,0.,1.));
#14 = DIRECTION('',(1.,0.,-0.));
#15 = SHELL_BASED_SURFACE_MODEL('',(#16));
#16 = OPEN_SHELL('',(#17));
#17 = ADVANCED_FACE('',(#18),#40,.T.);
#18 = FACE_BOUND('',#19,.T.);
#19 = EDGE_LOOP('',(#20,#59,#75,#107));
#20 = ORIENTED_EDGE('',*,*,#21,.T.);
#21 = EDGE_CURVE('',#22,#24,#26,.T.);
#22 = VERTEX_POINT('',#23);
#23 = CARTESIAN_POINT('',(0.,-1.988216833278E-02,0.));
#24 = VERTEX_POINT('',#25);
#25 = CARTESIAN_POINT('',(2.,-1.87522847193E-02,0.));
#26 = SURFACE_CURVE('',#27,(#39),.PCURVE_S1.);
#27 = B_SPLINE_CURVE_WITH_KNOTS('',1,(#28,#29,#30,#31,#32,#33,#34,#35,
    #36,#37,#38),.UNSPECIFIED.,.F.,.F.,(2,1,1,1,1,1,1,1,1,1,2),(0.,
    9.513088800289E-02,0.125379046364,0.286234235179,0.733272457417,
    0.784256882314,0.82243356596,0.871277920037,0.948078896963,
    0.986333882338,1.),.UNSPECIFIED.);
#28 = CARTESIAN_POINT('',(0.,-1.988216833278E-02,0.));
#29 = CARTESIAN_POINT('',(0.212839063743,-1.801500186706E-02,0.));
#30 = CARTESIAN_POINT('',(0.221176821992,4.91471127619E-02,0.));
#31 = CARTESIAN_POINT('',(0.567816875728,-4.76440078676E-02,0.));
#32 = CARTESIAN_POINT('',(1.562588070863,5.652005961546E-02,0.));
#33 = CARTESIAN_POINT('',(1.673793159322,3.110063303506E-02,0.));
#34 = CARTESIAN_POINT('',(1.758400048615,4.283737498E-02,0.));
#35 = CARTESIAN_POINT('',(1.836883791031,-3.321215288307E-02,0.));
#36 = CARTESIAN_POINT('',(1.994069315675,3.621549273445E-02,0.));
#37 = CARTESIAN_POINT('',(1.998209460948,-4.927658725571E-02,0.));
#38 = CARTESIAN_POINT('',(2.,-1.87522847193E-02,0.));
#39 = PCURVE('',#40,#45);
#40 = PLANE('',#41);
#41 = AXIS2_PLACEMENT_3D('',#42,#43,#44);
#42 = CARTESIAN_POINT('',(1.038350453987,1.E-01,0.));
#43 = DIRECTION('',(0.,0.,1.));
#44 = DIRECTION('',(1.,0.,-0.));
#45 = DEFINITIONAL_REPRESENTATION('',(#46),#58);
#46 = B_SPLINE_CURVE_WITH_KNOTS('',1,(#47,#48,#49,#50,#51,#52,#53,#54,
    #55,#56,#57),.UNSPECIFIED.,.F.,.F.,(2,1,1,1,1,1,1,1,1,1,2),(0.,
    9.513088800289E-02,0.125379046364,0.286234235179,0.733272457417,
    0.784256882314,0.82243356596,0.871277920037,0.948078896963,
    0.986333882338,1.),.UNSPECIFIED.);
#47 = CARTESIAN_POINT('',(-1.038350453987,-0.119882168333));
#48 = CARTESIAN_POINT('',(-0.825511390245,-0.118015001867));
#49 = CARTESIAN_POINT('',(-0.817173631995,-5.08528872381E-02));
#50 = CARTESIAN_POINT('',(-0.470533578259,-0.147644007868));
#51 = CARTESIAN_POINT('',(0.524237616876,-4.347994038454E-02));
#52 = CARTESIAN_POINT('',(0.635442705334,-6.889936696494E-02));
#53 = CARTESIAN_POINT('',(0.720049594628,-5.716262502E-02));
#54 = CARTESIAN_POINT('',(0.798533337044,-0.133212152883));
#55 = CARTESIAN_POINT('',(0.955718861688,-6.378450726555E-02));
#56 = CARTESIAN_POINT('',(0.959859006961,-0.149276587256));
#57 = CARTESIAN_POINT('',(0.961649546013,-0.118752284719));
#58 = ( GEOMETRIC_REPRESENTATION_CONTEXT(2) 
PARAMETRIC_REPRESENTATION_CONTEXT() REPRESENTATION_CONTEXT('2D SPACE',''
  ) );
#59 = ORIENTED_EDGE('',*,*,#60,.T.);
#60 = EDGE_CURVE('',#24,#61,#63,.T.);
#61 = VERTEX_POINT('',#62);
#62 = CARTESIAN_POINT('',(2.,0.218752284719,0.));
#63 = SURFACE_CURVE('',#64,(#68),.PCURVE_S1.);
#64 = LINE('',#65,#66);
#65 = CARTESIAN_POINT('',(2.,-1.87522847193E-02,0.));
#66 = VECTOR('',#67,1.);
#67 = DIRECTION('',(0.,1.,0.));
#68 = PCURVE('',#40,#69);
#69 = DEFINITIONAL_REPRESENTATION('',(#70),#74);
#70 = LINE('',#71,#72);
#71 = CARTESIAN_POINT('',(0.961649546013,-0.118752284719));
#72 = VECTOR('',#73,1.);
#73 = DIRECTION('',(0.,1.));
#74 = ( GEOMETRIC_REPRESENTATION_CONTEXT(2) 
PARAMETRIC_REPRESENTATION_CONTEXT() REPRESENTATION_CONTEXT('2D SPACE',''
  ) );
#75 = ORIENTED_EDGE('',*,*,#76,.T.);
#76 = EDGE_CURVE('',#61,#77,#79,.T.);
#77 = VERTEX_POINT('',#78);
#78 = CARTESIAN_POINT('',(0.,0.219882168333,0.));
#79 = SURFACE_CURVE('',#80,(#92),.PCURVE_S1.);
#80 = B_SPLINE_CURVE_WITH_KNOTS('',1,(#81,#82,#83,#84,#85,#86,#87,#88,
    #89,#90,#91),.UNSPECIFIED.,.F.,.F.,(2,1,1,1,1,1,1,1,1,1,2),(0.,
    1.366611766241E-02,5.192110303723E-02,0.128722079963,0.17756643404,
    0.215743117686,0.266727542583,0.713765764821,0.874620953636,
    0.904869111997,1.),.UNSPECIFIED.);
#81 = CARTESIAN_POINT('',(2.,0.218752284719,0.));
#82 = CARTESIAN_POINT('',(1.998209460948,0.249276587256,0.));
#83 = CARTESIAN_POINT('',(1.994069315675,0.163784507266,0.));
#84 = CARTESIAN_POINT('',(1.836883791031,0.233212152883,0.));
#85 = CARTESIAN_POINT('',(1.758400048615,0.15716262502,0.));
#86 = CARTESIAN_POINT('',(1.673793159322,0.168899366965,0.));
#87 = CARTESIAN_POINT('',(1.562588070863,0.143479940385,0.));
#88 = CARTESIAN_POINT('',(0.567816875728,0.247644007868,0.));
#89 = CARTESIAN_POINT('',(0.221176821992,0.150852887238,0.));
#90 = CARTESIAN_POINT('',(0.212839063743,0.218015001867,0.));
#91 = CARTESIAN_POINT('',(0.,0.219882168333,0.));
#92 = PCURVE('',#40,#93);
#93 = DEFINITIONAL_REPRESENTATION('',(#94),#106);
#94 = B_SPLINE_CURVE_WITH_KNOTS('',1,(#95,#96,#97,#98,#99,#100,#101,#102
    ,#103,#104,#105),.UNSPECIFIED.,.F.,.F.,(2,1,1,1,1,1,1,1,1,1,2),(0.,
    1.366611766241E-02,5.192110303723E-02,0.128722079963,0.17756643404,
    0.215743117686,0.266727542583,0.713765764821,0.874620953636,
    0.904869111997,1.),.UNSPECIFIED.);
#95 = CARTESIAN_POINT('',(0.961649546013,0.118752284719));
#96 = CARTESIAN_POINT('',(0.959859006961,0.149276587256));
#97 = CARTESIAN_POINT('',(0.955718861688,6.378450726555E-02));
#98 = CARTESIAN_POINT('',(0.798533337044,0.133212152883));
#99 = CARTESIAN_POINT('',(0.720049594628,5.716262502E-02));
#100 = CARTESIAN_POINT('',(0.635442705334,6.889936696494E-02));
#101 = CARTESIAN_POINT('',(0.524237616876,4.347994038454E-02));
#102 = CARTESIAN_POINT('',(-0.470533578259,0.147644007868));
#103 = CARTESIAN_POINT('',(-0.817173631995,5.08528872381E-02));
#104 = CARTESIAN_POINT('',(-0.825511390245,0.118015001867));
#105 = CARTESIAN_POINT('',(-1.038350453987,0.119882168333));
#106 = ( GEOMETRIC_REPRESENTATION_CONTEXT(2) 
PARAMETRIC_REPRESENTATION_CONTEXT() REPRESENTATION_CONTEXT('2D SPACE',''
  ) );
#107 = ORIENTED_EDGE('',*,*,#108,.T.);
#108 = EDGE_CURVE('',#77,#22,#109,.T.);
#109 = SURFACE_CURVE('',#110,(#114),.PCURVE_S1.);
#110 = LINE('',#111,#112);
#111 = CARTESIAN_POINT('',(0.,0.219882168333,0.));
#112 = VECTOR('',#113,1.);
#113 = DIRECTION('',(0.,-1.,0.));
#114 = PCURVE('',#40,#115);
#115 = DEFINITIONAL_REPRESENTATION('',(#116),#120);
#116 = LINE('',#117,#118);
#117 = CARTESIAN_POINT('',(-1.038350453987,0.119882168333));
#118 = VECTOR('',#119,1.);
#119 = DIRECTION('',(0.,-1.));
#120 = ( GEOMETRIC_REPRESENTATION_CONTEXT(2) 
PARAMETRIC_REPRESENTATION_CONTEXT() REPRESENTATION_CONTEXT('2D SPACE',''
  ) );
#121 = ( GEOMETRIC_REPRESENTATION_CONTEXT(3) 
GLOBAL_UNCERTAINTY_ASSIGNED_CONTEXT((#125)) GLOBAL_UNIT_ASSIGNED_CONTEXT
((#122,#123,#124)) REPRESENTATION_CONTEXT('Context #1',
  '3D Context with UNIT and UNCERTAINTY') );
#122 = ( LENGTH_UNIT() NAMED_UNIT(*) SI_UNIT(.MILLI.,.METRE.) );
#123 = ( NAMED_UNIT(*) PLANE_ANGLE_UNIT() SI_UNIT($,.RADIAN.) );
#124 = ( NAMED_UNIT(*) SI_UNIT($,.STERADIAN.) SOLID_ANGLE_UNIT() );
#125 = UNCERTAINTY_MEASURE_WITH_UNIT(LENGTH_MEASURE(1.E-07),#122,
  'distance_accuracy_value','confusion accuracy');
#126 = PRODUCT_RELATED_PRODUCT_CATEGORY('part',$,(#7));
ENDSEC;
END-ISO-10303-21;
