ISO-10303-21;
HEADER;
FILE_DESCRIPTION(('Open CASCADE Model'),'2;1');
FILE_NAME('Open CASCADE Shape Model','2026-05-28T17:04:49',('Author'),(
    'Open CASCADE'),'Open CASCADE STEP processor 7.9','Open CASCADE 7.9'
  ,'Unknown');
FILE_SCHEMA(('AUTOMOTIVE_DESIGN { 1 0 10303 214 1 1 1 1 }'));
ENDSEC;
DATA;
#1 = APPLICATION_PROTOCOL_DEFINITION('international standard',
  'automotive_design',2000,#2);
#2 = APPLICATION_CONTEXT(
  'core data for automotive mechanical design processes');
#3 = SHAPE_DEFINITION_REPRESENTATION(#4,#10);
#4 = PRODUCT_DEFINITION_SHAPE('','',#5);
#5 = PRODUCT_DEFINITION('design','',#6,#9);
#6 = PRODUCT_DEFINITION_FORMATION('','',#7);
#7 = PRODUCT('Open CASCADE STEP translator 7.9 48',
  'Open CASCADE STEP translator 7.9 48','',(#8));
#8 = PRODUCT_CONTEXT('',#2,'mechanical');
#9 = PRODUCT_DEFINITION_CONTEXT('part definition',#2,'design');
#10 = MANIFOLD_SURFACE_SHAPE_REPRESENTATION('',(#11,#15),#141);
#11 = AXIS2_PLACEMENT_3D('',#12,#13,#14);
#12 = CARTESIAN_POINT('',(0.,0.,0.));
#13 = DIRECTION('',(0.,0.,1.));
#14 = DIRECTION('',(1.,0.,-0.));
#15 = SHELL_BASED_SURFACE_MODEL('',(#16));
#16 = OPEN_SHELL('',(#17));
#17 = ADVANCED_FACE('',(#18),#45,.T.);
#18 = FACE_BOUND('',#19,.T.);
#19 = EDGE_LOOP('',(#20,#69,#85,#127));
#20 = ORIENTED_EDGE('',*,*,#21,.T.);
#21 = EDGE_CURVE('',#22,#24,#26,.T.);
#22 = VERTEX_POINT('',#23);
#23 = CARTESIAN_POINT('',(0.,8.198270258757E-03,0.));
#24 = VERTEX_POINT('',#25);
#25 = CARTESIAN_POINT('',(3.,5.75686646155E-02,0.));
#26 = SURFACE_CURVE('',#27,(#44),.PCURVE_S1.);
#27 = B_SPLINE_CURVE_WITH_KNOTS('',1,(#28,#29,#30,#31,#32,#33,#34,#35,
    #36,#37,#38,#39,#40,#41,#42,#43),.UNSPECIFIED.,.F.,.F.,(2,1,1,1,1,1,
    1,1,1,1,1,1,1,1,1,2),(0.,6.223193963857E-02,0.200766654272,
    0.222820098321,0.235704851458,0.307915907831,0.361439088328,
    0.373784628073,0.423606740855,0.572832261047,0.642518598524,
    0.736007752106,0.771204134818,0.821593672365,0.940150386745,1.),
  .UNSPECIFIED.);
#28 = CARTESIAN_POINT('',(0.,8.198270258757E-03,0.));
#29 = CARTESIAN_POINT('',(0.192626554696,-2.97347667776E-02,0.));
#30 = CARTESIAN_POINT('',(0.628281844378,5.052315629834E-03,0.));
#31 = CARTESIAN_POINT('',(0.697659045611,1.026872746702E-02,0.));
#32 = CARTESIAN_POINT('',(0.736068794801,-3.033979628722E-03,0.));
#33 = CARTESIAN_POINT('',(0.962510687819,2.187331982288E-02,0.));
#34 = CARTESIAN_POINT('',(1.129408303219,4.74899740464E-02,0.));
#35 = CARTESIAN_POINT('',(1.140706751698,1.021775933686E-02,0.));
#36 = CARTESIAN_POINT('',(1.293954844547,4.513717426448E-02,0.));
#37 = CARTESIAN_POINT('',(1.763465788707,1.074702317335E-02,0.));
#38 = CARTESIAN_POINT('',(1.982604587774,-6.832046545614E-03,0.));
#39 = CARTESIAN_POINT('',(2.274108633774,-5.168534174468E-02,0.));
#40 = CARTESIAN_POINT('',(2.302522247943,5.565332027456E-02,0.));
#41 = CARTESIAN_POINT('',(2.445134470224,-1.457500878023E-02,0.));
#42 = CARTESIAN_POINT('',(2.818634522339,5.071777601991E-03,0.));
#43 = CARTESIAN_POINT('',(3.,5.75686646155E-02,0.));
#44 = PCURVE('',#45,#50);
#45 = PLANE('',#46);
#46 = AXIS2_PLACEMENT_3D('',#47,#48,#49);
#47 = CARTESIAN_POINT('',(1.499179413776,0.1,0.));
#48 = DIRECTION('',(0.,0.,1.));
#49 = DIRECTION('',(1.,0.,-0.));
#50 = DEFINITIONAL_REPRESENTATION('',(#51),#68);
#51 = B_SPLINE_CURVE_WITH_KNOTS('',1,(#52,#53,#54,#55,#56,#57,#58,#59,
    #60,#61,#62,#63,#64,#65,#66,#67),.UNSPECIFIED.,.F.,.F.,(2,1,1,1,1,1,
    1,1,1,1,1,1,1,1,1,2),(0.,6.223193963857E-02,0.200766654272,
    0.222820098321,0.235704851458,0.307915907831,0.361439088328,
    0.373784628073,0.423606740855,0.572832261047,0.642518598524,
    0.736007752106,0.771204134818,0.821593672365,0.940150386745,1.),
  .UNSPECIFIED.);
#52 = CARTESIAN_POINT('',(-1.499179413776,-9.180172974124E-02));
#53 = CARTESIAN_POINT('',(-1.306552859079,-0.129734766778));
#54 = CARTESIAN_POINT('',(-0.870897569397,-9.494768437017E-02));
#55 = CARTESIAN_POINT('',(-0.801520368165,-8.973127253298E-02));
#56 = CARTESIAN_POINT('',(-0.763110618975,-0.103033979629));
#57 = CARTESIAN_POINT('',(-0.536668725956,-7.812668017712E-02));
#58 = CARTESIAN_POINT('',(-0.369771110556,-5.25100259536E-02));
#59 = CARTESIAN_POINT('',(-0.358472662078,-8.978224066314E-02));
#60 = CARTESIAN_POINT('',(-0.205224569228,-5.486282573552E-02));
#61 = CARTESIAN_POINT('',(0.264286374932,-8.925297682665E-02));
#62 = CARTESIAN_POINT('',(0.483425173999,-0.106832046546));
#63 = CARTESIAN_POINT('',(0.774929219998,-0.151685341745));
#64 = CARTESIAN_POINT('',(0.803342834167,-4.434667972544E-02));
#65 = CARTESIAN_POINT('',(0.945955056449,-0.11457500878));
#66 = CARTESIAN_POINT('',(1.319455108563,-9.492822239801E-02));
#67 = CARTESIAN_POINT('',(1.500820586224,-4.24313353845E-02));
#68 = ( GEOMETRIC_REPRESENTATION_CONTEXT(2) 
PARAMETRIC_REPRESENTATION_CONTEXT() REPRESENTATION_CONTEXT('2D SPACE',''
  ) );
#69 = ORIENTED_EDGE('',*,*,#70,.T.);
#70 = EDGE_CURVE('',#24,#71,#73,.T.);
#71 = VERTEX_POINT('',#72);
#72 = CARTESIAN_POINT('',(3.,0.142431335384,0.));
#73 = SURFACE_CURVE('',#74,(#78),.PCURVE_S1.);
#74 = LINE('',#75,#76);
#75 = CARTESIAN_POINT('',(3.,5.75686646155E-02,0.));
#76 = VECTOR('',#77,1.);
#77 = DIRECTION('',(0.,1.,0.));
#78 = PCURVE('',#45,#79);
#79 = DEFINITIONAL_REPRESENTATION('',(#80),#84);
#80 = LINE('',#81,#82);
#81 = CARTESIAN_POINT('',(1.500820586224,-4.24313353845E-02));
#82 = VECTOR('',#83,1.);
#83 = DIRECTION('',(0.,1.));
#84 = ( GEOMETRIC_REPRESENTATION_CONTEXT(2) 
PARAMETRIC_REPRESENTATION_CONTEXT() REPRESENTATION_CONTEXT('2D SPACE',''
  ) );
#85 = ORIENTED_EDGE('',*,*,#86,.T.);
#86 = EDGE_CURVE('',#71,#87,#89,.T.);
#87 = VERTEX_POINT('',#88);
#88 = CARTESIAN_POINT('',(0.,0.191801729741,0.));
#89 = SURFACE_CURVE('',#90,(#107),.PCURVE_S1.);
#90 = B_SPLINE_CURVE_WITH_KNOTS('',1,(#91,#92,#93,#94,#95,#96,#97,#98,
    #99,#100,#101,#102,#103,#104,#105,#106),.UNSPECIFIED.,.F.,.F.,(2,1,1
    ,1,1,1,1,1,1,1,1,1,1,1,1,2),(0.,5.984961325533E-02,0.178406327635,
    0.228795865182,0.263992247894,0.357481401476,0.427167738953,
    0.576393259145,0.626215371927,0.638560911672,0.692084092169,
    0.764295148542,0.777179901679,0.799233345728,0.937768060361,1.),
  .UNSPECIFIED.);
#91 = CARTESIAN_POINT('',(3.,0.142431335384,0.));
#92 = CARTESIAN_POINT('',(2.818634522339,0.194928222398,0.));
#93 = CARTESIAN_POINT('',(2.445134470224,0.21457500878,0.));
#94 = CARTESIAN_POINT('',(2.302522247943,0.144346679725,0.));
#95 = CARTESIAN_POINT('',(2.274108633774,0.251685341745,0.));
#96 = CARTESIAN_POINT('',(1.982604587774,0.206832046546,0.));
#97 = CARTESIAN_POINT('',(1.763465788707,0.189252976827,0.));
#98 = CARTESIAN_POINT('',(1.293954844547,0.154862825736,0.));
#99 = CARTESIAN_POINT('',(1.140706751698,0.189782240663,0.));
#100 = CARTESIAN_POINT('',(1.129408303219,0.152510025954,0.));
#101 = CARTESIAN_POINT('',(0.962510687819,0.178126680177,0.));
#102 = CARTESIAN_POINT('',(0.736068794801,0.203033979629,0.));
#103 = CARTESIAN_POINT('',(0.697659045611,0.189731272533,0.));
#104 = CARTESIAN_POINT('',(0.628281844378,0.19494768437,0.));
#105 = CARTESIAN_POINT('',(0.192626554696,0.229734766778,0.));
#106 = CARTESIAN_POINT('',(0.,0.191801729741,0.));
#107 = PCURVE('',#45,#108);
#108 = DEFINITIONAL_REPRESENTATION('',(#109),#126);
#109 = B_SPLINE_CURVE_WITH_KNOTS('',1,(#110,#111,#112,#113,#114,#115,
    #116,#117,#118,#119,#120,#121,#122,#123,#124,#125),.UNSPECIFIED.,.F.
  ,.F.,(2,1,1,1,1,1,1,1,1,1,1,1,1,1,1,2),(0.,5.984961325533E-02,
    0.178406327635,0.228795865182,0.263992247894,0.357481401476,
    0.427167738953,0.576393259145,0.626215371927,0.638560911672,
    0.692084092169,0.764295148542,0.777179901679,0.799233345728,
    0.937768060361,1.),.UNSPECIFIED.);
#110 = CARTESIAN_POINT('',(1.500820586224,4.24313353845E-02));
#111 = CARTESIAN_POINT('',(1.319455108563,9.492822239801E-02));
#112 = CARTESIAN_POINT('',(0.945955056449,0.11457500878));
#113 = CARTESIAN_POINT('',(0.803342834167,4.434667972544E-02));
#114 = CARTESIAN_POINT('',(0.774929219998,0.151685341745));
#115 = CARTESIAN_POINT('',(0.483425173999,0.106832046546));
#116 = CARTESIAN_POINT('',(0.264286374932,8.925297682665E-02));
#117 = CARTESIAN_POINT('',(-0.205224569228,5.486282573552E-02));
#118 = CARTESIAN_POINT('',(-0.358472662078,8.978224066314E-02));
#119 = CARTESIAN_POINT('',(-0.369771110556,5.25100259536E-02));
#120 = CARTESIAN_POINT('',(-0.536668725956,7.812668017712E-02));
#121 = CARTESIAN_POINT('',(-0.763110618975,0.103033979629));
#122 = CARTESIAN_POINT('',(-0.801520368165,8.973127253298E-02));
#123 = CARTESIAN_POINT('',(-0.870897569397,9.494768437017E-02));
#124 = CARTESIAN_POINT('',(-1.306552859079,0.129734766778));
#125 = CARTESIAN_POINT('',(-1.499179413776,9.180172974124E-02));
#126 = ( GEOMETRIC_REPRESENTATION_CONTEXT(2) 
PARAMETRIC_REPRESENTATION_CONTEXT() REPRESENTATION_CONTEXT('2D SPACE',''
  ) );
#127 = ORIENTED_EDGE('',*,*,#128,.T.);
#128 = EDGE_CURVE('',#87,#22,#129,.T.);
#129 = SURFACE_CURVE('',#130,(#134),.PCURVE_S1.);
#130 = LINE('',#131,#132);
#131 = CARTESIAN_POINT('',(0.,0.191801729741,0.));
#132 = VECTOR('',#133,1.);
#133 = DIRECTION('',(0.,-1.,0.));
#134 = PCURVE('',#45,#135);
#135 = DEFINITIONAL_REPRESENTATION('',(#136),#140);
#136 = LINE('',#137,#138);
#137 = CARTESIAN_POINT('',(-1.499179413776,9.180172974124E-02));
#138 = VECTOR('',#139,1.);
#139 = DIRECTION('',(0.,-1.));
#140 = ( GEOMETRIC_REPRESENTATION_CONTEXT(2) 
PARAMETRIC_REPRESENTATION_CONTEXT() REPRESENTATION_CONTEXT('2D SPACE',''
  ) );
#141 = ( GEOMETRIC_REPRESENTATION_CONTEXT(3) 
GLOBAL_UNCERTAINTY_ASSIGNED_CONTEXT((#145)) GLOBAL_UNIT_ASSIGNED_CONTEXT
((#142,#143,#144)) REPRESENTATION_CONTEXT('Context #1',
  '3D Context with UNIT and UNCERTAINTY') );
#142 = ( LENGTH_UNIT() NAMED_UNIT(*) SI_UNIT(.MILLI.,.METRE.) );
#143 = ( NAMED_UNIT(*) PLANE_ANGLE_UNIT() SI_UNIT($,.RADIAN.) );
#144 = ( NAMED_UNIT(*) SI_UNIT($,.STERADIAN.) SOLID_ANGLE_UNIT() );
#145 = UNCERTAINTY_MEASURE_WITH_UNIT(LENGTH_MEASURE(1.E-07),#142,
  'distance_accuracy_value','confusion accuracy');
#146 = PRODUCT_RELATED_PRODUCT_CATEGORY('part',$,(#7));
ENDSEC;
END-ISO-10303-21;
