ISO-10303-21;
HEADER;
FILE_DESCRIPTION(('Open CASCADE Model'),'2;1');
FILE_NAME('Open CASCADE Shape Model','2026-05-28T17:04:48',('Author'),(
    'Open CASCADE'),'Open CASCADE STEP processor 7.9','Open CASCADE 7.9'
  ,'Unknown');
FILE_SCHEMA(('AUTOMOTIVE_DESIGN { 1 0 10303 214 1 1 1 1 }'));
ENDSEC;
DATA;
#1 = APPLICATION_PROTOCOL_DEFINITION('international standard',
  'automotive_design',2000,#2);
#2 = APPLICATION_CONTEXT(
  'core data for automotive mechanical design processes');
#3 = SHAPE_DEFINITION_REPRESENTATION(#4,#10);
#4 = PRODUCT_DEFINITION_SHAPE('','',#5);
#5 = PRODUCT_DEFINITION('design','',#6,#9);
#6 = PRODUCT_DEFINITION_FORMATION('','',#7);
#7 = PRODUCT('Open CASCADE STEP translator 7.9 12',
  'Open CASCADE STEP translator 7.9 12','',(#8));
#8 = PRODUCT_CONTEXT('',#2,'mechanical');
#9 = PRODUCT_DEFINITION_CONTEXT('part definition',#2,'design');
#10 = MANIFOLD_SURFACE_SHAPE_REPRESENTATION('',(#11,#15),#273);
#11 = AXIS2_PLACEMENT_3D('',#12,#13,#14);
#12 = CARTESIAN_POINT('',(0.,0.,0.));
#13 = DIRECTION('',(0.,0.,1.));
#14 = DIRECTION('',(1.,0.,-0.));
#15 = SHELL_BASED_SURFACE_MODEL('',(#16));
#16 = OPEN_SHELL('',(#17));
#17 = ADVANCED_FACE('',(#18),#78,.T.);
#18 = FACE_BOUND('',#19,.T.);
#19 = EDGE_LOOP('',(#20,#135,#151,#259));
#20 = ORIENTED_EDGE('',*,*,#21,.T.);
#21 = EDGE_CURVE('',#22,#24,#26,.T.);
#22 = VERTEX_POINT('',#23);
#23 = CARTESIAN_POINT('',(0.,2.091298969525E-03,0.));
#24 = VERTEX_POINT('',#25);
#25 = CARTESIAN_POINT('',(9.6,-3.32811753035E-02,0.));
#26 = SURFACE_CURVE('',#27,(#77),.PCURVE_S1.);
#27 = B_SPLINE_CURVE_WITH_KNOTS('',1,(#28,#29,#30,#31,#32,#33,#34,#35,
    #36,#37,#38,#39,#40,#41,#42,#43,#44,#45,#46,#47,#48,#49,#50,#51,#52,
    #53,#54,#55,#56,#57,#58,#59,#60,#61,#62,#63,#64,#65,#66,#67,#68,#69,
    #70,#71,#72,#73,#74,#75,#76),.UNSPECIFIED.,.F.,.F.,(2,1,1,1,1,1,1,1,
    1,1,1,1,1,1,1,1,1,1,1,1,1,1,1,1,1,1,1,1,1,1,1,1,1,1,1,1,1,1,1,1,1,1,
    1,1,1,1,1,1,2),(0.,1.079298066264E-02,4.318513839979E-02,
    5.668310984325E-02,7.817444930797E-02,8.363884372314E-02,
    0.138591856368,0.149176697429,0.16180145942,0.163895300634,
    0.179107200097,0.206184787501,0.229724277384,0.240598230305,
    0.287102232163,0.305246135541,0.331547902031,0.35688408551,
    0.367773292871,0.388830938074,0.393648349843,0.433131268385,
    0.44863620059,0.469015174162,0.48957071935,0.492635841609,
    0.5232690071,0.537709606059,0.553495211224,0.582779865292,
    0.631623986736,0.635453906171,0.643852347411,0.664063836533,
    0.680761207774,0.699928599267,0.748146835147,0.756172310959,
    0.765058087049,0.826346098186,0.830945576493,0.835262074496,
    0.843613468147,0.903622562721,0.952611462466,0.982309983865,
    0.985198223037,0.990205568567,1.),.UNSPECIFIED.);
#28 = CARTESIAN_POINT('',(0.,2.091298969525E-03,0.));
#29 = CARTESIAN_POINT('',(0.102985391766,-3.223531073513E-02,0.));
#30 = CARTESIAN_POINT('',(0.428631254153,-4.224186202574E-02,0.));
#31 = CARTESIAN_POINT('',(0.557841424526,-5.749779484198E-04,0.));
#32 = CARTESIAN_POINT('',(0.768473123003,-4.914626926456E-02,0.));
#33 = CARTESIAN_POINT('',(0.807507211746,-1.045487286444E-02,0.));
#34 = CARTESIAN_POINT('',(1.35932053026,-4.203291586005E-02,0.));
#35 = CARTESIAN_POINT('',(1.446460548607,1.912910452902E-02,0.));
#36 = CARTESIAN_POINT('',(1.57201252088,1.419649762218E-04,0.));
#37 = CARTESIAN_POINT('',(1.592705931615,-3.769324920549E-03,0.));
#38 = CARTESIAN_POINT('',(1.736895861416,4.740243409247E-02,0.));
#39 = CARTESIAN_POINT('',(2.006953522582,1.217369919582E-02,0.));
#40 = CARTESIAN_POINT('',(2.23538193546,-5.00805207062E-02,0.));
#41 = CARTESIAN_POINT('',(2.339207558935,-1.569986884377E-02,0.));
#42 = CARTESIAN_POINT('',(2.803769571019,3.869921010756E-02,0.));
#43 = CARTESIAN_POINT('',(2.985230495239,1.933732372685E-02,0.));
#44 = CARTESIAN_POINT('',(3.249182239654,3.700763884048E-02,0.));
#45 = CARTESIAN_POINT('',(3.503225866351,5.702122418417E-02,0.));
#46 = CARTESIAN_POINT('',(3.519440495353,-5.129525502048E-02,0.));
#47 = CARTESIAN_POINT('',(3.723280273571,6.215120609175E-03,0.));
#48 = CARTESIAN_POINT('',(3.768698072082,2.309579130951E-02,0.));
#49 = CARTESIAN_POINT('',(4.164278662297,-1.181726298693E-02,0.));
#50 = CARTESIAN_POINT('',(4.303157887242,5.912226524484E-02,0.));
#51 = CARTESIAN_POINT('',(4.505538568228,2.66373472079E-02,0.));
#52 = CARTESIAN_POINT('',(4.705896407055,-2.436401588387E-02,0.));
#53 = CARTESIAN_POINT('',(4.735583768166,-1.605237276831E-02,0.));
#54 = CARTESIAN_POINT('',(5.040847708486,-5.78167137051E-02,0.));
#55 = CARTESIAN_POINT('',(5.179463378512,-1.444292515897E-02,0.));
#56 = CARTESIAN_POINT('',(5.337306509073,2.699295164672E-03,0.));
#57 = CARTESIAN_POINT('',(5.629873660942,-3.137190758208E-02,0.));
#58 = CARTESIAN_POINT('',(6.120851524593,-4.839934463569E-02,0.));
#59 = CARTESIAN_POINT('',(6.152530892027,-2.64835136062E-02,0.));
#60 = CARTESIAN_POINT('',(6.231830881289,-5.558534682593E-02,0.));
#61 = CARTESIAN_POINT('',(6.433951251373,-3.384062048858E-02,0.));
#62 = CARTESIAN_POINT('',(6.601584471994,-4.401617259143E-02,0.));
#63 = CARTESIAN_POINT('',(6.771901108647,4.630751145796E-02,0.));
#64 = CARTESIAN_POINT('',(7.25116965883,-2.788962035925E-02,0.));
#65 = CARTESIAN_POINT('',(7.323868982779,7.189356056716E-03,0.));
#66 = CARTESIAN_POINT('',(7.412206957004,-6.372456289353E-03,0.));
#67 = CARTESIAN_POINT('',(8.028521189282,-1.849228913788E-02,0.));
#68 = CARTESIAN_POINT('',(8.055069416464,-5.637781400467E-02,0.));
#69 = CARTESIAN_POINT('',(8.09844849372,-5.814936977179E-02,0.));
#70 = CARTESIAN_POINT('',(8.106997183557,2.541261054145E-02,0.));
#71 = CARTESIAN_POINT('',(8.7081947727,-2.805041969255E-02,0.));
#72 = CARTESIAN_POINT('',(9.200920136649,-2.999802455223E-02,0.));
#73 = CARTESIAN_POINT('',(9.495676825763,1.842085664243E-02,0.));
#74 = CARTESIAN_POINT('',(9.507087977532,4.513562701629E-02,0.));
#75 = CARTESIAN_POINT('',(9.556458936803,5.508636476571E-02,0.));
#76 = CARTESIAN_POINT('',(9.6,-3.32811753035E-02,0.));
#77 = PCURVE('',#78,#83);
#78 = PLANE('',#79);
#79 = AXIS2_PLACEMENT_3D('',#80,#81,#82);
#80 = CARTESIAN_POINT('',(4.850151666461,1.E-01,0.));
#81 = DIRECTION('',(0.,0.,1.));
#82 = DIRECTION('',(1.,0.,-0.));
#83 = DEFINITIONAL_REPRESENTATION('',(#84),#134);
#84 = B_SPLINE_CURVE_WITH_KNOTS('',1,(#85,#86,#87,#88,#89,#90,#91,#92,
    #93,#94,#95,#96,#97,#98,#99,#100,#101,#102,#103,#104,#105,#106,#107,
    #108,#109,#110,#111,#112,#113,#114,#115,#116,#117,#118,#119,#120,
    #121,#122,#123,#124,#125,#126,#127,#128,#129,#130,#131,#132,#133),
  .UNSPECIFIED.,.F.,.F.,(2,1,1,1,1,1,1,1,1,1,1,1,1,1,1,1,1,1,1,1,1,1,1,1
    ,1,1,1,1,1,1,1,1,1,1,1,1,1,1,1,1,1,1,1,1,1,1,1,1,2),(0.,
    1.079298066264E-02,4.318513839979E-02,5.668310984325E-02,
    7.817444930797E-02,8.363884372314E-02,0.138591856368,0.149176697429,
    0.16180145942,0.163895300634,0.179107200097,0.206184787501,
    0.229724277384,0.240598230305,0.287102232163,0.305246135541,
    0.331547902031,0.35688408551,0.367773292871,0.388830938074,
    0.393648349843,0.433131268385,0.44863620059,0.469015174162,
    0.48957071935,0.492635841609,0.5232690071,0.537709606059,
    0.553495211224,0.582779865292,0.631623986736,0.635453906171,
    0.643852347411,0.664063836533,0.680761207774,0.699928599267,
    0.748146835147,0.756172310959,0.765058087049,0.826346098186,
    0.830945576493,0.835262074496,0.843613468147,0.903622562721,
    0.952611462466,0.982309983865,0.985198223037,0.990205568567,1.),
  .UNSPECIFIED.);
#85 = CARTESIAN_POINT('',(-4.850151666461,-9.790870103048E-02));
#86 = CARTESIAN_POINT('',(-4.747166274695,-0.132235310735));
#87 = CARTESIAN_POINT('',(-4.421520412308,-0.142241862026));
#88 = CARTESIAN_POINT('',(-4.292310241935,-0.100574977948));
#89 = CARTESIAN_POINT('',(-4.081678543458,-0.149146269265));
#90 = CARTESIAN_POINT('',(-4.042644454715,-0.110454872864));
#91 = CARTESIAN_POINT('',(-3.490831136201,-0.14203291586));
#92 = CARTESIAN_POINT('',(-3.403691117854,-8.087089547098E-02));
#93 = CARTESIAN_POINT('',(-3.278139145582,-9.985803502378E-02));
#94 = CARTESIAN_POINT('',(-3.257445734847,-0.103769324921));
#95 = CARTESIAN_POINT('',(-3.113255805045,-5.259756590753E-02));
#96 = CARTESIAN_POINT('',(-2.84319814388,-8.782630080418E-02));
#97 = CARTESIAN_POINT('',(-2.614769731002,-0.150080520706));
#98 = CARTESIAN_POINT('',(-2.510944107526,-0.115699868844));
#99 = CARTESIAN_POINT('',(-2.046382095442,-6.130078989244E-02));
#100 = CARTESIAN_POINT('',(-1.864921171222,-8.066267627315E-02));
#101 = CARTESIAN_POINT('',(-1.600969426807,-6.299236115952E-02));
#102 = CARTESIAN_POINT('',(-1.34692580011,-4.297877581583E-02));
#103 = CARTESIAN_POINT('',(-1.330711171108,-0.15129525502));
#104 = CARTESIAN_POINT('',(-1.12687139289,-9.378487939082E-02));
#105 = CARTESIAN_POINT('',(-1.081453594379,-7.690420869049E-02));
#106 = CARTESIAN_POINT('',(-0.685873004164,-0.111817262987));
#107 = CARTESIAN_POINT('',(-0.54699377922,-4.087773475516E-02));
#108 = CARTESIAN_POINT('',(-0.344613098233,-7.33626527921E-02));
#109 = CARTESIAN_POINT('',(-0.144255259406,-0.124364015884));
#110 = CARTESIAN_POINT('',(-0.114567898295,-0.116052372768));
#111 = CARTESIAN_POINT('',(0.190696042024,-0.157816713705));
#112 = CARTESIAN_POINT('',(0.329311712051,-0.114442925159));
#113 = CARTESIAN_POINT('',(0.487154842612,-9.730070483533E-02));
#114 = CARTESIAN_POINT('',(0.779721994481,-0.131371907582));
#115 = CARTESIAN_POINT('',(1.270699858132,-0.148399344636));
#116 = CARTESIAN_POINT('',(1.302379225566,-0.126483513606));
#117 = CARTESIAN_POINT('',(1.381679214828,-0.155585346826));
#118 = CARTESIAN_POINT('',(1.583799584912,-0.133840620489));
#119 = CARTESIAN_POINT('',(1.751432805533,-0.144016172591));
#120 = CARTESIAN_POINT('',(1.921749442185,-5.369248854204E-02));
#121 = CARTESIAN_POINT('',(2.401017992368,-0.127889620359));
#122 = CARTESIAN_POINT('',(2.473717316318,-9.281064394328E-02));
#123 = CARTESIAN_POINT('',(2.562055290543,-0.106372456289));
#124 = CARTESIAN_POINT('',(3.178369522821,-0.118492289138));
#125 = CARTESIAN_POINT('',(3.204917750003,-0.156377814005));
#126 = CARTESIAN_POINT('',(3.248296827259,-0.158149369772));
#127 = CARTESIAN_POINT('',(3.256845517096,-7.458738945855E-02));
#128 = CARTESIAN_POINT('',(3.858043106238,-0.128050419693));
#129 = CARTESIAN_POINT('',(4.350768470188,-0.129998024552));
#130 = CARTESIAN_POINT('',(4.645525159301,-8.157914335757E-02));
#131 = CARTESIAN_POINT('',(4.656936311071,-5.486437298371E-02));
#132 = CARTESIAN_POINT('',(4.706307270342,-4.491363523429E-02));
#133 = CARTESIAN_POINT('',(4.749848333539,-0.133281175304));
#134 = ( GEOMETRIC_REPRESENTATION_CONTEXT(2) 
PARAMETRIC_REPRESENTATION_CONTEXT() REPRESENTATION_CONTEXT('2D SPACE',''
  ) );
#135 = ORIENTED_EDGE('',*,*,#136,.T.);
#136 = EDGE_CURVE('',#24,#137,#139,.T.);
#137 = VERTEX_POINT('',#138);
#138 = CARTESIAN_POINT('',(9.6,0.233281175304,0.));
#139 = SURFACE_CURVE('',#140,(#144),.PCURVE_S1.);
#140 = LINE('',#141,#142);
#141 = CARTESIAN_POINT('',(9.6,-3.32811753035E-02,0.));
#142 = VECTOR('',#143,1.);
#143 = DIRECTION('',(0.,1.,0.));
#144 = PCURVE('',#78,#145);
#145 = DEFINITIONAL_REPRESENTATION('',(#146),#150);
#146 = LINE('',#147,#148);
#147 = CARTESIAN_POINT('',(4.749848333539,-0.133281175304));
#148 = VECTOR('',#149,1.);
#149 = DIRECTION('',(0.,1.));
#150 = ( GEOMETRIC_REPRESENTATION_CONTEXT(2) 
PARAMETRIC_REPRESENTATION_CONTEXT() REPRESENTATION_CONTEXT('2D SPACE',''
  ) );
#151 = ORIENTED_EDGE('',*,*,#152,.T.);
#152 = EDGE_CURVE('',#137,#153,#155,.T.);
#153 = VERTEX_POINT('',#154);
#154 = CARTESIAN_POINT('',(0.,0.19790870103,0.));
#155 = SURFACE_CURVE('',#156,(#206),.PCURVE_S1.);
#156 = B_SPLINE_CURVE_WITH_KNOTS('',1,(#157,#158,#159,#160,#161,#162,
    #163,#164,#165,#166,#167,#168,#169,#170,#171,#172,#173,#174,#175,
    #176,#177,#178,#179,#180,#181,#182,#183,#184,#185,#186,#187,#188,
    #189,#190,#191,#192,#193,#194,#195,#196,#197,#198,#199,#200,#201,
    #202,#203,#204,#205),.UNSPECIFIED.,.F.,.F.,(2,1,1,1,1,1,1,1,1,1,1,1,
    1,1,1,1,1,1,1,1,1,1,1,1,1,1,1,1,1,1,1,1,1,1,1,1,1,1,1,1,1,1,1,1,1,1,
    1,1,2),(0.,9.794431432705E-03,1.480177696274E-02,1.769001613527E-02,
    4.738853753364E-02,9.637743727878E-02,0.156386531853,0.164737925504,
    0.169054423507,0.173653901814,0.234941912951,0.243827689041,
    0.251853164853,0.300071400733,0.319238792226,0.335936163467,
    0.356147652589,0.364546093829,0.368376013264,0.417220134708,
    0.446504788776,0.462290393941,0.4767309929,0.507364158391,
    0.51042928065,0.530984825838,0.55136379941,0.566868731615,
    0.606351650157,0.611169061926,0.632226707129,0.64311591449,
    0.668452097969,0.694753864459,0.712897767837,0.759401769695,
    0.770275722616,0.793815212499,0.820892799903,0.836104699366,
    0.83819854058,0.850823302571,0.861408143632,0.916361156277,
    0.921825550692,0.943316890157,0.9568148616,0.989207019337,1.),
  .UNSPECIFIED.);
#157 = CARTESIAN_POINT('',(9.6,0.233281175304,0.));
#158 = CARTESIAN_POINT('',(9.556458936803,0.144913635234,0.));
#159 = CARTESIAN_POINT('',(9.507087977532,0.154864372984,0.));
#160 = CARTESIAN_POINT('',(9.495676825763,0.181579143358,0.));
#161 = CARTESIAN_POINT('',(9.200920136649,0.229998024552,0.));
#162 = CARTESIAN_POINT('',(8.7081947727,0.228050419693,0.));
#163 = CARTESIAN_POINT('',(8.106997183557,0.174587389459,0.));
#164 = CARTESIAN_POINT('',(8.09844849372,0.258149369772,0.));
#165 = CARTESIAN_POINT('',(8.055069416464,0.256377814005,0.));
#166 = CARTESIAN_POINT('',(8.028521189282,0.218492289138,0.));
#167 = CARTESIAN_POINT('',(7.412206957004,0.206372456289,0.));
#168 = CARTESIAN_POINT('',(7.323868982779,0.192810643943,0.));
#169 = CARTESIAN_POINT('',(7.25116965883,0.227889620359,0.));
#170 = CARTESIAN_POINT('',(6.771901108647,0.153692488542,0.));
#171 = CARTESIAN_POINT('',(6.601584471994,0.244016172591,0.));
#172 = CARTESIAN_POINT('',(6.433951251373,0.233840620489,0.));
#173 = CARTESIAN_POINT('',(6.231830881289,0.255585346826,0.));
#174 = CARTESIAN_POINT('',(6.152530892027,0.226483513606,0.));
#175 = CARTESIAN_POINT('',(6.120851524593,0.248399344636,0.));
#176 = CARTESIAN_POINT('',(5.629873660942,0.231371907582,0.));
#177 = CARTESIAN_POINT('',(5.337306509073,0.197300704835,0.));
#178 = CARTESIAN_POINT('',(5.179463378512,0.214442925159,0.));
#179 = CARTESIAN_POINT('',(5.040847708486,0.257816713705,0.));
#180 = CARTESIAN_POINT('',(4.735583768166,0.216052372768,0.));
#181 = CARTESIAN_POINT('',(4.705896407055,0.224364015884,0.));
#182 = CARTESIAN_POINT('',(4.505538568228,0.173362652792,0.));
#183 = CARTESIAN_POINT('',(4.303157887242,0.140877734755,0.));
#184 = CARTESIAN_POINT('',(4.164278662297,0.211817262987,0.));
#185 = CARTESIAN_POINT('',(3.768698072082,0.17690420869,0.));
#186 = CARTESIAN_POINT('',(3.723280273571,0.193784879391,0.));
#187 = CARTESIAN_POINT('',(3.519440495353,0.25129525502,0.));
#188 = CARTESIAN_POINT('',(3.503225866351,0.142978775816,0.));
#189 = CARTESIAN_POINT('',(3.249182239654,0.16299236116,0.));
#190 = CARTESIAN_POINT('',(2.985230495239,0.180662676273,0.));
#191 = CARTESIAN_POINT('',(2.803769571019,0.161300789892,0.));
#192 = CARTESIAN_POINT('',(2.339207558935,0.215699868844,0.));
#193 = CARTESIAN_POINT('',(2.23538193546,0.250080520706,0.));
#194 = CARTESIAN_POINT('',(2.006953522582,0.187826300804,0.));
#195 = CARTESIAN_POINT('',(1.736895861416,0.152597565908,0.));
#196 = CARTESIAN_POINT('',(1.592705931615,0.203769324921,0.));
#197 = CARTESIAN_POINT('',(1.57201252088,0.199858035024,0.));
#198 = CARTESIAN_POINT('',(1.446460548607,0.180870895471,0.));
#199 = CARTESIAN_POINT('',(1.35932053026,0.24203291586,0.));
#200 = CARTESIAN_POINT('',(0.807507211746,0.210454872864,0.));
#201 = CARTESIAN_POINT('',(0.768473123003,0.249146269265,0.));
#202 = CARTESIAN_POINT('',(0.557841424526,0.200574977948,0.));
#203 = CARTESIAN_POINT('',(0.428631254153,0.242241862026,0.));
#204 = CARTESIAN_POINT('',(0.102985391766,0.232235310735,0.));
#205 = CARTESIAN_POINT('',(0.,0.19790870103,0.));
#206 = PCURVE('',#78,#207);
#207 = DEFINITIONAL_REPRESENTATION('',(#208),#258);
#208 = B_SPLINE_CURVE_WITH_KNOTS('',1,(#209,#210,#211,#212,#213,#214,
    #215,#216,#217,#218,#219,#220,#221,#222,#223,#224,#225,#226,#227,
    #228,#229,#230,#231,#232,#233,#234,#235,#236,#237,#238,#239,#240,
    #241,#242,#243,#244,#245,#246,#247,#248,#249,#250,#251,#252,#253,
    #254,#255,#256,#257),.UNSPECIFIED.,.F.,.F.,(2,1,1,1,1,1,1,1,1,1,1,1,
    1,1,1,1,1,1,1,1,1,1,1,1,1,1,1,1,1,1,1,1,1,1,1,1,1,1,1,1,1,1,1,1,1,1,
    1,1,2),(0.,9.794431432705E-03,1.480177696274E-02,1.769001613527E-02,
    4.738853753364E-02,9.637743727878E-02,0.156386531853,0.164737925504,
    0.169054423507,0.173653901814,0.234941912951,0.243827689041,
    0.251853164853,0.300071400733,0.319238792226,0.335936163467,
    0.356147652589,0.364546093829,0.368376013264,0.417220134708,
    0.446504788776,0.462290393941,0.4767309929,0.507364158391,
    0.51042928065,0.530984825838,0.55136379941,0.566868731615,
    0.606351650157,0.611169061926,0.632226707129,0.64311591449,
    0.668452097969,0.694753864459,0.712897767837,0.759401769695,
    0.770275722616,0.793815212499,0.820892799903,0.836104699366,
    0.83819854058,0.850823302571,0.861408143632,0.916361156277,
    0.921825550692,0.943316890157,0.9568148616,0.989207019337,1.),
  .UNSPECIFIED.);
#209 = CARTESIAN_POINT('',(4.749848333539,0.133281175304));
#210 = CARTESIAN_POINT('',(4.706307270342,4.491363523429E-02));
#211 = CARTESIAN_POINT('',(4.656936311071,5.486437298371E-02));
#212 = CARTESIAN_POINT('',(4.645525159301,8.157914335757E-02));
#213 = CARTESIAN_POINT('',(4.350768470188,0.129998024552));
#214 = CARTESIAN_POINT('',(3.858043106238,0.128050419693));
#215 = CARTESIAN_POINT('',(3.256845517096,7.458738945855E-02));
#216 = CARTESIAN_POINT('',(3.248296827259,0.158149369772));
#217 = CARTESIAN_POINT('',(3.204917750003,0.156377814005));
#218 = CARTESIAN_POINT('',(3.178369522821,0.118492289138));
#219 = CARTESIAN_POINT('',(2.562055290543,0.106372456289));
#220 = CARTESIAN_POINT('',(2.473717316318,9.281064394328E-02));
#221 = CARTESIAN_POINT('',(2.401017992368,0.127889620359));
#222 = CARTESIAN_POINT('',(1.921749442185,5.369248854204E-02));
#223 = CARTESIAN_POINT('',(1.751432805533,0.144016172591));
#224 = CARTESIAN_POINT('',(1.583799584912,0.133840620489));
#225 = CARTESIAN_POINT('',(1.381679214828,0.155585346826));
#226 = CARTESIAN_POINT('',(1.302379225566,0.126483513606));
#227 = CARTESIAN_POINT('',(1.270699858132,0.148399344636));
#228 = CARTESIAN_POINT('',(0.779721994481,0.131371907582));
#229 = CARTESIAN_POINT('',(0.487154842612,9.730070483533E-02));
#230 = CARTESIAN_POINT('',(0.329311712051,0.114442925159));
#231 = CARTESIAN_POINT('',(0.190696042024,0.157816713705));
#232 = CARTESIAN_POINT('',(-0.114567898295,0.116052372768));
#233 = CARTESIAN_POINT('',(-0.144255259406,0.124364015884));
#234 = CARTESIAN_POINT('',(-0.344613098233,7.33626527921E-02));
#235 = CARTESIAN_POINT('',(-0.54699377922,4.087773475516E-02));
#236 = CARTESIAN_POINT('',(-0.685873004164,0.111817262987));
#237 = CARTESIAN_POINT('',(-1.081453594379,7.690420869049E-02));
#238 = CARTESIAN_POINT('',(-1.12687139289,9.378487939082E-02));
#239 = CARTESIAN_POINT('',(-1.330711171108,0.15129525502));
#240 = CARTESIAN_POINT('',(-1.34692580011,4.297877581583E-02));
#241 = CARTESIAN_POINT('',(-1.600969426807,6.299236115952E-02));
#242 = CARTESIAN_POINT('',(-1.864921171222,8.066267627315E-02));
#243 = CARTESIAN_POINT('',(-2.046382095442,6.130078989244E-02));
#244 = CARTESIAN_POINT('',(-2.510944107526,0.115699868844));
#245 = CARTESIAN_POINT('',(-2.614769731002,0.150080520706));
#246 = CARTESIAN_POINT('',(-2.84319814388,8.782630080418E-02));
#247 = CARTESIAN_POINT('',(-3.113255805045,5.259756590753E-02));
#248 = CARTESIAN_POINT('',(-3.257445734847,0.103769324921));
#249 = CARTESIAN_POINT('',(-3.278139145582,9.985803502378E-02));
#250 = CARTESIAN_POINT('',(-3.403691117854,8.087089547098E-02));
#251 = CARTESIAN_POINT('',(-3.490831136201,0.14203291586));
#252 = CARTESIAN_POINT('',(-4.042644454715,0.110454872864));
#253 = CARTESIAN_POINT('',(-4.081678543458,0.149146269265));
#254 = CARTESIAN_POINT('',(-4.292310241935,0.100574977948));
#255 = CARTESIAN_POINT('',(-4.421520412308,0.142241862026));
#256 = CARTESIAN_POINT('',(-4.747166274695,0.132235310735));
#257 = CARTESIAN_POINT('',(-4.850151666461,9.790870103048E-02));
#258 = ( GEOMETRIC_REPRESENTATION_CONTEXT(2) 
PARAMETRIC_REPRESENTATION_CONTEXT() REPRESENTATION_CONTEXT('2D SPACE',''
  ) );
#259 = ORIENTED_EDGE('',*,*,#260,.T.);
#260 = EDGE_CURVE('',#153,#22,#261,.T.);
#261 = SURFACE_CURVE('',#262,(#266),.PCURVE_S1.);
#262 = LINE('',#263,#264);
#263 = CARTESIAN_POINT('',(0.,0.19790870103,0.));
#264 = VECTOR('',#265,1.);
#265 = DIRECTION('',(0.,-1.,0.));
#266 = PCURVE('',#78,#267);
#267 = DEFINITIONAL_REPRESENTATION('',(#268),#272);
#268 = LINE('',#269,#270);
#269 = CARTESIAN_POINT('',(-4.850151666461,9.790870103048E-02));
#270 = VECTOR('',#271,1.);
#271 = DIRECTION('',(0.,-1.));
#272 = ( GEOMETRIC_REPRESENTATION_CONTEXT(2) 
PARAMETRIC_REPRESENTATION_CONTEXT() REPRESENTATION_CONTEXT('2D SPACE',''
  ) );
#273 = ( GEOMETRIC_REPRESENTATION_CONTEXT(3) 
GLOBAL_UNCERTAINTY_ASSIGNED_CONTEXT((#277)) GLOBAL_UNIT_ASSIGNED_CONTEXT
((#274,#275,#276)) REPRESENTATION_CONTEXT('Context #1',
  '3D Context with UNIT and UNCERTAINTY') );
#274 = ( LENGTH_UNIT() NAMED_UNIT(*) SI_UNIT(.MILLI.,.METRE.) );
#275 = ( NAMED_UNIT(*) PLANE_ANGLE_UNIT() SI_UNIT($,.RADIAN.) );
#276 = ( NAMED_UNIT(*) SI_UNIT($,.STERADIAN.) SOLID_ANGLE_UNIT() );
#277 = UNCERTAINTY_MEASURE_WITH_UNIT(LENGTH_MEASURE(1.E-07),#274,
  'distance_accuracy_value','confusion accuracy');
#278 = PRODUCT_RELATED_PRODUCT_CATEGORY('part',$,(#7));
ENDSEC;
END-ISO-10303-21;
