ISO-10303-21;
HEADER;
FILE_DESCRIPTION(('Open CASCADE Model'),'2;1');
FILE_NAME('Open CASCADE Shape Model','2026-05-29T14:30:30',('Author'),(
    'Open CASCADE'),'Open CASCADE STEP processor 7.9','Open CASCADE 7.9'
  ,'Unknown');
FILE_SCHEMA(('AUTOMOTIVE_DESIGN { 1 0 10303 214 1 1 1 1 }'));
ENDSEC;
DATA;
#1 = APPLICATION_PROTOCOL_DEFINITION('international standard',
  'automotive_design',2000,#2);
#2 = APPLICATION_CONTEXT(
  'core data for automotive mechanical design processes');
#3 = SHAPE_DEFINITION_REPRESENTATION(#4,#10);
#4 = PRODUCT_DEFINITION_SHAPE('','',#5);
#5 = PRODUCT_DEFINITION('design','',#6,#9);
#6 = PRODUCT_DEFINITION_FORMATION('','',#7);
#7 = PRODUCT('Open CASCADE STEP translator 7.9 97',
  'Open CASCADE STEP translator 7.9 97','',(#8));
#8 = PRODUCT_CONTEXT('',#2,'mechanical');
#9 = PRODUCT_DEFINITION_CONTEXT('part definition',#2,'design');
#10 = MANIFOLD_SURFACE_SHAPE_REPRESENTATION('',(#11,#15),#121);
#11 = AXIS2_PLACEMENT_3D('',#12,#13,#14);
#12 = CARTESIAN_POINT('',(0.,0.,0.));
#13 = DIRECTION('',(0.,0.,1.));
#14 = DIRECTION('',(1.,0.,-0.));
#15 = SHELL_BASED_SURFACE_MODEL('',(#16));
#16 = OPEN_SHELL('',(#17));
#17 = ADVANCED_FACE('',(#18),#40,.T.);
#18 = FACE_BOUND('',#19,.T.);
#19 = EDGE_LOOP('',(#20,#59,#75,#107));
#20 = ORIENTED_EDGE('',*,*,#21,.T.);
#21 = EDGE_CURVE('',#22,#24,#26,.T.);
#22 = VERTEX_POINT('',#23);
#23 = CARTESIAN_POINT('',(0.,2.261084717187,0.));
#24 = VERTEX_POINT('',#25);
#25 = CARTESIAN_POINT('',(1.5E+03,-42.40216366221,0.));
#26 = SURFACE_CURVE('',#27,(#39),.PCURVE_S1.);
#27 = B_SPLINE_CURVE_WITH_KNOTS('',1,(#28,#29,#30,#31,#32,#33,#34,#35,
    #36,#37,#38),.UNSPECIFIED.,.F.,.F.,(2,1,1,1,1,1,1,1,1,1,2),(0.,
    6.874371977887E-02,0.124290567748,0.204852248634,0.37383240954,
    0.399610558709,0.599049358102,0.649489171966,0.704009793971,
    0.818318434509,1.),.UNSPECIFIED.);
#28 = CARTESIAN_POINT('',(0.,2.261084717187,0.));
#29 = CARTESIAN_POINT('',(103.77028721662,33.217081906815,0.));
#30 = CARTESIAN_POINT('',(190.98015874079,40.345065750025,0.));
#31 = CARTESIAN_POINT('',(289.14134038355,-40.08749151959,0.));
#32 = CARTESIAN_POINT('',(548.20639434073,21.077152805244,0.));
#33 = CARTESIAN_POINT('',(582.6904778093,-0.36575159081,0.));
#34 = CARTESIAN_POINT('',(894.64781361411,36.836841051903,0.));
#35 = CARTESIAN_POINT('',(968.23634563946,6.871039150446,0.));
#36 = CARTESIAN_POINT('',(1.041027111525E+03,-38.70949673251,0.));
#37 = CARTESIAN_POINT('',(1.21693052749E+03,-0.217169426784,0.));
#38 = CARTESIAN_POINT('',(1.5E+03,-42.40216366221,0.));
#39 = PCURVE('',#40,#45);
#40 = PLANE('',#41);
#41 = AXIS2_PLACEMENT_3D('',#42,#43,#44);
#42 = CARTESIAN_POINT('',(761.25679193489,75.,0.));
#43 = DIRECTION('',(0.,0.,1.));
#44 = DIRECTION('',(1.,0.,-0.));
#45 = DEFINITIONAL_REPRESENTATION('',(#46),#58);
#46 = B_SPLINE_CURVE_WITH_KNOTS('',1,(#47,#48,#49,#50,#51,#52,#53,#54,
    #55,#56,#57),.UNSPECIFIED.,.F.,.F.,(2,1,1,1,1,1,1,1,1,1,2),(0.,
    6.874371977887E-02,0.124290567748,0.204852248634,0.37383240954,
    0.399610558709,0.599049358102,0.649489171966,0.704009793971,
    0.818318434509,1.),.UNSPECIFIED.);
#47 = CARTESIAN_POINT('',(-761.2567919348,-72.73891528281));
#48 = CARTESIAN_POINT('',(-657.4865047182,-41.78291809318));
#49 = CARTESIAN_POINT('',(-570.2766331941,-34.65493424997));
#50 = CARTESIAN_POINT('',(-472.1154515513,-115.0874915195));
#51 = CARTESIAN_POINT('',(-213.0503975941,-53.92284719475));
#52 = CARTESIAN_POINT('',(-178.5663141255,-75.36575159081));
#53 = CARTESIAN_POINT('',(133.39102167921,-38.16315894809));
#54 = CARTESIAN_POINT('',(206.97955370456,-68.12896084955));
#55 = CARTESIAN_POINT('',(279.7703195904,-113.7094967325));
#56 = CARTESIAN_POINT('',(455.67373555479,-75.21716942678));
#57 = CARTESIAN_POINT('',(738.7432080651,-117.4021636622));
#58 = ( GEOMETRIC_REPRESENTATION_CONTEXT(2) 
PARAMETRIC_REPRESENTATION_CONTEXT() REPRESENTATION_CONTEXT('2D SPACE',''
  ) );
#59 = ORIENTED_EDGE('',*,*,#60,.T.);
#60 = EDGE_CURVE('',#24,#61,#63,.T.);
#61 = VERTEX_POINT('',#62);
#62 = CARTESIAN_POINT('',(1.5E+03,192.40216366221,0.));
#63 = SURFACE_CURVE('',#64,(#68),.PCURVE_S1.);
#64 = LINE('',#65,#66);
#65 = CARTESIAN_POINT('',(1.5E+03,-42.40216366221,0.));
#66 = VECTOR('',#67,1.);
#67 = DIRECTION('',(0.,1.,0.));
#68 = PCURVE('',#40,#69);
#69 = DEFINITIONAL_REPRESENTATION('',(#70),#74);
#70 = LINE('',#71,#72);
#71 = CARTESIAN_POINT('',(738.7432080651,-117.4021636622));
#72 = VECTOR('',#73,1.);
#73 = DIRECTION('',(0.,1.));
#74 = ( GEOMETRIC_REPRESENTATION_CONTEXT(2) 
PARAMETRIC_REPRESENTATION_CONTEXT() REPRESENTATION_CONTEXT('2D SPACE',''
  ) );
#75 = ORIENTED_EDGE('',*,*,#76,.T.);
#76 = EDGE_CURVE('',#61,#77,#79,.T.);
#77 = VERTEX_POINT('',#78);
#78 = CARTESIAN_POINT('',(0.,147.73891528281,0.));
#79 = SURFACE_CURVE('',#80,(#92),.PCURVE_S1.);
#80 = B_SPLINE_CURVE_WITH_KNOTS('',1,(#81,#82,#83,#84,#85,#86,#87,#88,
    #89,#90,#91),.UNSPECIFIED.,.F.,.F.,(2,1,1,1,1,1,1,1,1,1,2),(0.,
    0.181681565491,0.295990206029,0.350510828034,0.400950641898,
    0.600389441291,0.62616759046,0.795147751366,0.875709432252,
    0.931256280221,1.),.UNSPECIFIED.);
#81 = CARTESIAN_POINT('',(1.5E+03,192.40216366221,0.));
#82 = CARTESIAN_POINT('',(1.21693052749E+03,150.21716942678,0.));
#83 = CARTESIAN_POINT('',(1.041027111525E+03,188.70949673251,0.));
#84 = CARTESIAN_POINT('',(968.23634563946,143.12896084955,0.));
#85 = CARTESIAN_POINT('',(894.64781361411,113.16315894809,0.));
#86 = CARTESIAN_POINT('',(582.6904778093,150.36575159081,0.));
#87 = CARTESIAN_POINT('',(548.20639434073,128.92284719475,0.));
#88 = CARTESIAN_POINT('',(289.14134038355,190.08749151959,0.));
#89 = CARTESIAN_POINT('',(190.98015874079,109.65493424997,0.));
#90 = CARTESIAN_POINT('',(103.77028721662,116.78291809318,0.));
#91 = CARTESIAN_POINT('',(0.,147.73891528281,0.));
#92 = PCURVE('',#40,#93);
#93 = DEFINITIONAL_REPRESENTATION('',(#94),#106);
#94 = B_SPLINE_CURVE_WITH_KNOTS('',1,(#95,#96,#97,#98,#99,#100,#101,#102
    ,#103,#104,#105),.UNSPECIFIED.,.F.,.F.,(2,1,1,1,1,1,1,1,1,1,2),(0.,
    0.181681565491,0.295990206029,0.350510828034,0.400950641898,
    0.600389441291,0.62616759046,0.795147751366,0.875709432252,
    0.931256280221,1.),.UNSPECIFIED.);
#95 = CARTESIAN_POINT('',(738.7432080651,117.40216366221));
#96 = CARTESIAN_POINT('',(455.67373555479,75.217169426784));
#97 = CARTESIAN_POINT('',(279.7703195904,113.70949673251));
#98 = CARTESIAN_POINT('',(206.97955370456,68.128960849554));
#99 = CARTESIAN_POINT('',(133.39102167921,38.163158948097));
#100 = CARTESIAN_POINT('',(-178.5663141255,75.36575159081));
#101 = CARTESIAN_POINT('',(-213.0503975941,53.922847194756));
#102 = CARTESIAN_POINT('',(-472.1154515513,115.08749151959));
#103 = CARTESIAN_POINT('',(-570.2766331941,34.654934249975));
#104 = CARTESIAN_POINT('',(-657.4865047182,41.782918093185));
#105 = CARTESIAN_POINT('',(-761.2567919348,72.738915282813));
#106 = ( GEOMETRIC_REPRESENTATION_CONTEXT(2) 
PARAMETRIC_REPRESENTATION_CONTEXT() REPRESENTATION_CONTEXT('2D SPACE',''
  ) );
#107 = ORIENTED_EDGE('',*,*,#108,.T.);
#108 = EDGE_CURVE('',#77,#22,#109,.T.);
#109 = SURFACE_CURVE('',#110,(#114),.PCURVE_S1.);
#110 = LINE('',#111,#112);
#111 = CARTESIAN_POINT('',(0.,147.73891528281,0.));
#112 = VECTOR('',#113,1.);
#113 = DIRECTION('',(0.,-1.,0.));
#114 = PCURVE('',#40,#115);
#115 = DEFINITIONAL_REPRESENTATION('',(#116),#120);
#116 = LINE('',#117,#118);
#117 = CARTESIAN_POINT('',(-761.2567919348,72.738915282813));
#118 = VECTOR('',#119,1.);
#119 = DIRECTION('',(0.,-1.));
#120 = ( GEOMETRIC_REPRESENTATION_CONTEXT(2) 
PARAMETRIC_REPRESENTATION_CONTEXT() REPRESENTATION_CONTEXT('2D SPACE',''
  ) );
#121 = ( GEOMETRIC_REPRESENTATION_CONTEXT(3) 
GLOBAL_UNCERTAINTY_ASSIGNED_CONTEXT((#125)) GLOBAL_UNIT_ASSIGNED_CONTEXT
((#122,#123,#124)) REPRESENTATION_CONTEXT('Context #1',
  '3D Context with UNIT and UNCERTAINTY') );
#122 = ( LENGTH_UNIT() NAMED_UNIT(*) SI_UNIT(.MILLI.,.METRE.) );
#123 = ( NAMED_UNIT(*) PLANE_ANGLE_UNIT() SI_UNIT($,.RADIAN.) );
#124 = ( NAMED_UNIT(*) SI_UNIT($,.STERADIAN.) SOLID_ANGLE_UNIT() );
#125 = UNCERTAINTY_MEASURE_WITH_UNIT(LENGTH_MEASURE(1.E-07),#122,
  'distance_accuracy_value','confusion accuracy');
#126 = PRODUCT_RELATED_PRODUCT_CATEGORY('part',$,(#7));
ENDSEC;
END-ISO-10303-21;
