ISO-10303-21;
HEADER;
FILE_DESCRIPTION(('Open CASCADE Model'),'2;1');
FILE_NAME('Open CASCADE Shape Model','2026-05-28T17:04:49',('Author'),(
    'Open CASCADE'),'Open CASCADE STEP processor 7.9','Open CASCADE 7.9'
  ,'Unknown');
FILE_SCHEMA(('AUTOMOTIVE_DESIGN { 1 0 10303 214 1 1 1 1 }'));
ENDSEC;
DATA;
#1 = APPLICATION_PROTOCOL_DEFINITION('international standard',
  'automotive_design',2000,#2);
#2 = APPLICATION_CONTEXT(
  'core data for automotive mechanical design processes');
#3 = SHAPE_DEFINITION_REPRESENTATION(#4,#10);
#4 = PRODUCT_DEFINITION_SHAPE('','',#5);
#5 = PRODUCT_DEFINITION('design','',#6,#9);
#6 = PRODUCT_DEFINITION_FORMATION('','',#7);
#7 = PRODUCT('Open CASCADE STEP translator 7.9 56',
  'Open CASCADE STEP translator 7.9 56','',(#8));
#8 = PRODUCT_CONTEXT('',#2,'mechanical');
#9 = PRODUCT_DEFINITION_CONTEXT('part definition',#2,'design');
#10 = MANIFOLD_SURFACE_SHAPE_REPRESENTATION('',(#11,#15),#273);
#11 = AXIS2_PLACEMENT_3D('',#12,#13,#14);
#12 = CARTESIAN_POINT('',(0.,0.,0.));
#13 = DIRECTION('',(0.,0.,1.));
#14 = DIRECTION('',(1.,0.,-0.));
#15 = SHELL_BASED_SURFACE_MODEL('',(#16));
#16 = OPEN_SHELL('',(#17));
#17 = ADVANCED_FACE('',(#18),#78,.T.);
#18 = FACE_BOUND('',#19,.T.);
#19 = EDGE_LOOP('',(#20,#135,#151,#259));
#20 = ORIENTED_EDGE('',*,*,#21,.T.);
#21 = EDGE_CURVE('',#22,#24,#26,.T.);
#22 = VERTEX_POINT('',#23);
#23 = CARTESIAN_POINT('',(0.,2.497267181697E-02,0.));
#24 = VERTEX_POINT('',#25);
#25 = CARTESIAN_POINT('',(9.6,-1.021773859696E-02,0.));
#26 = SURFACE_CURVE('',#27,(#77),.PCURVE_S1.);
#27 = B_SPLINE_CURVE_WITH_KNOTS('',1,(#28,#29,#30,#31,#32,#33,#34,#35,
    #36,#37,#38,#39,#40,#41,#42,#43,#44,#45,#46,#47,#48,#49,#50,#51,#52,
    #53,#54,#55,#56,#57,#58,#59,#60,#61,#62,#63,#64,#65,#66,#67,#68,#69,
    #70,#71,#72,#73,#74,#75,#76),.UNSPECIFIED.,.F.,.F.,(2,1,1,1,1,1,1,1,
    1,1,1,1,1,1,1,1,1,1,1,1,1,1,1,1,1,1,1,1,1,1,1,1,1,1,1,1,1,1,1,1,1,1,
    1,1,1,1,1,1,2),(0.,2.468792879978E-02,3.284196047896E-02,
    4.311389353622E-02,5.634799348274E-02,7.058060569534E-02,
    8.05619833514E-02,9.916846588896E-02,0.104274603813,0.114944116852,
    0.148626497622,0.197346043615,0.260310161386,0.279992152103,
    0.32208313738,0.327709896345,0.356852323865,0.42306493597,
    0.435288931832,0.479477138649,0.483826028068,0.487211361238,
    0.492089147685,0.498850400529,0.534564868466,0.547084438456,
    0.578881914125,0.595091781152,0.604345559951,0.620733604589,
    0.633094620939,0.643167278167,0.646353937655,0.668601237419,
    0.706648617649,0.713875649402,0.723352672759,0.725327573045,
    0.759817376507,0.76750301967,0.821802751514,0.931089279276,
    0.93527175512,0.940747353736,0.949756224745,0.95758796958,
    0.965211575162,0.997070768764,1.),.UNSPECIFIED.);
#28 = CARTESIAN_POINT('',(0.,2.497267181697E-02,0.));
#29 = CARTESIAN_POINT('',(0.244815014018,5.232329491101E-02,0.));
#30 = CARTESIAN_POINT('',(0.254199372528,-2.849525342302E-02,0.));
#31 = CARTESIAN_POINT('',(0.322655704188,4.778568135012E-02,0.));
#32 = CARTESIAN_POINT('',(0.454692223673,4.973308307779E-02,0.));
#33 = CARTESIAN_POINT('',(0.594100579446,2.265322689549E-02,0.));
#34 = CARTESIAN_POINT('',(0.687019200595,5.850412081945E-02,0.));
#35 = CARTESIAN_POINT('',(0.865650974299,7.915726109242E-03,0.));
#36 = CARTESIAN_POINT('',(0.904606698683,-2.492170920961E-02,0.));
#37 = CARTESIAN_POINT('',(1.010472900318,-3.616187177063E-02,0.));
#38 = CARTESIAN_POINT('',(1.345725525152,-1.251687645587E-02,0.));
#39 = CARTESIAN_POINT('',(1.830980710298,-4.162490437367E-02,0.));
#40 = CARTESIAN_POINT('',(2.457015186055,1.121973554795E-02,0.));
#41 = CARTESIAN_POINT('',(2.6460964904,-4.185265020726E-02,0.));
#42 = CARTESIAN_POINT('',(3.064070128966,-7.767972598055E-04,0.));
#43 = CARTESIAN_POINT('',(3.108739223649,3.32356646402E-02,0.));
#44 = CARTESIAN_POINT('',(3.38635076984,-5.329747759926E-02,0.));
#45 = CARTESIAN_POINT('',(4.042127164759,2.700349513955E-02,0.));
#46 = CARTESIAN_POINT('',(4.16038959801,5.685582189746E-02,0.));
#47 = CARTESIAN_POINT('',(4.600537083734,3.08791148454E-02,0.));
#48 = CARTESIAN_POINT('',(4.641299052938,1.599749264911E-02,0.));
#49 = CARTESIAN_POINT('',(4.675027990128,1.783803800529E-02,0.));
#50 = CARTESIAN_POINT('',(4.719031366435,-2.960101133229E-03,0.));
#51 = CARTESIAN_POINT('',(4.771003780417,-4.597522584431E-02,0.));
#52 = CARTESIAN_POINT('',(5.120242440141,2.491941274684E-02,0.));
#53 = CARTESIAN_POINT('',(5.242119040782,-2.4924729551E-03,0.));
#54 = CARTESIAN_POINT('',(5.558655438711,1.918332555738E-02,0.));
#55 = CARTESIAN_POINT('',(5.709720033361,-3.861276712478E-02,0.));
#56 = CARTESIAN_POINT('',(5.756341435324,4.108781840538E-02,0.));
#57 = CARTESIAN_POINT('',(5.919733741401,4.757876780279E-02,0.));
#58 = CARTESIAN_POINT('',(6.033375649967,-3.594303885122E-04,0.));
#59 = CARTESIAN_POINT('',(6.131816763815,-2.062651029186E-02,0.));
#60 = CARTESIAN_POINT('',(6.159939891487,-3.546302413089E-02,0.));
#61 = CARTESIAN_POINT('',(6.380545832892,-1.075498234864E-02,0.));
#62 = CARTESIAN_POINT('',(6.759541347404,-3.286197135828E-02,0.));
#63 = CARTESIAN_POINT('',(6.815293230169,1.287479297269E-02,0.));
#64 = CARTESIAN_POINT('',(6.899420846443,5.605587956802E-02,0.));
#65 = CARTESIAN_POINT('',(6.916407867417,4.606808305181E-02,0.));
#66 = CARTESIAN_POINT('',(7.260424528353,5.535328785252E-02,0.));
#67 = CARTESIAN_POINT('',(7.328748419833,2.052676194282E-02,0.));
#68 = CARTESIAN_POINT('',(7.870186638583,5.410390477581E-04,0.));
#69 = CARTESIAN_POINT('',(8.960528225711,1.724190196117E-02,0.));
#70 = CARTESIAN_POINT('',(8.994302784218,-7.271937007967E-03,0.));
#71 = CARTESIAN_POINT('',(9.04808892787,2.326902180865E-03,0.));
#72 = CARTESIAN_POINT('',(9.134805054243,-2.135313622367E-02,0.));
#73 = CARTESIAN_POINT('',(9.212939704072,-2.003545962761E-02,0.));
#74 = CARTESIAN_POINT('',(9.2764501177,2.183230234696E-02,0.));
#75 = CARTESIAN_POINT('',(9.594325683722,1.845426535667E-02,0.));
#76 = CARTESIAN_POINT('',(9.6,-1.021773859696E-02,0.));
#77 = PCURVE('',#78,#83);
#78 = PLANE('',#79);
#79 = AXIS2_PLACEMENT_3D('',#80,#81,#82);
#80 = CARTESIAN_POINT('',(4.786249058013,1.E-01,0.));
#81 = DIRECTION('',(0.,0.,1.));
#82 = DIRECTION('',(1.,0.,-0.));
#83 = DEFINITIONAL_REPRESENTATION('',(#84),#134);
#84 = B_SPLINE_CURVE_WITH_KNOTS('',1,(#85,#86,#87,#88,#89,#90,#91,#92,
    #93,#94,#95,#96,#97,#98,#99,#100,#101,#102,#103,#104,#105,#106,#107,
    #108,#109,#110,#111,#112,#113,#114,#115,#116,#117,#118,#119,#120,
    #121,#122,#123,#124,#125,#126,#127,#128,#129,#130,#131,#132,#133),
  .UNSPECIFIED.,.F.,.F.,(2,1,1,1,1,1,1,1,1,1,1,1,1,1,1,1,1,1,1,1,1,1,1,1
    ,1,1,1,1,1,1,1,1,1,1,1,1,1,1,1,1,1,1,1,1,1,1,1,1,2),(0.,
    2.468792879978E-02,3.284196047896E-02,4.311389353622E-02,
    5.634799348274E-02,7.058060569534E-02,8.05619833514E-02,
    9.916846588896E-02,0.104274603813,0.114944116852,0.148626497622,
    0.197346043615,0.260310161386,0.279992152103,0.32208313738,
    0.327709896345,0.356852323865,0.42306493597,0.435288931832,
    0.479477138649,0.483826028068,0.487211361238,0.492089147685,
    0.498850400529,0.534564868466,0.547084438456,0.578881914125,
    0.595091781152,0.604345559951,0.620733604589,0.633094620939,
    0.643167278167,0.646353937655,0.668601237419,0.706648617649,
    0.713875649402,0.723352672759,0.725327573045,0.759817376507,
    0.76750301967,0.821802751514,0.931089279276,0.93527175512,
    0.940747353736,0.949756224745,0.95758796958,0.965211575162,
    0.997070768764,1.),.UNSPECIFIED.);
#85 = CARTESIAN_POINT('',(-4.786249058013,-7.502732818303E-02));
#86 = CARTESIAN_POINT('',(-4.541434043995,-4.767670508899E-02));
#87 = CARTESIAN_POINT('',(-4.532049685485,-0.128495253423));
#88 = CARTESIAN_POINT('',(-4.463593353825,-5.221431864988E-02));
#89 = CARTESIAN_POINT('',(-4.33155683434,-5.026691692221E-02));
#90 = CARTESIAN_POINT('',(-4.192148478568,-7.734677310451E-02));
#91 = CARTESIAN_POINT('',(-4.099229857418,-4.149587918055E-02));
#92 = CARTESIAN_POINT('',(-3.920598083714,-9.208427389076E-02));
#93 = CARTESIAN_POINT('',(-3.881642359331,-0.12492170921));
#94 = CARTESIAN_POINT('',(-3.775776157695,-0.136161871771));
#95 = CARTESIAN_POINT('',(-3.440523532861,-0.112516876456));
#96 = CARTESIAN_POINT('',(-2.955268347715,-0.141624904374));
#97 = CARTESIAN_POINT('',(-2.329233871958,-8.878026445205E-02));
#98 = CARTESIAN_POINT('',(-2.140152567613,-0.141852650207));
#99 = CARTESIAN_POINT('',(-1.722178929047,-0.10077679726));
#100 = CARTESIAN_POINT('',(-1.677509834364,-6.67643353598E-02));
#101 = CARTESIAN_POINT('',(-1.399898288174,-0.153297477599));
#102 = CARTESIAN_POINT('',(-0.744121893254,-7.299650486045E-02));
#103 = CARTESIAN_POINT('',(-0.625859460003,-4.314417810254E-02));
#104 = CARTESIAN_POINT('',(-0.185711974279,-6.91208851546E-02));
#105 = CARTESIAN_POINT('',(-0.144950005075,-8.400250735089E-02));
#106 = CARTESIAN_POINT('',(-0.111221067885,-8.216196199471E-02));
#107 = CARTESIAN_POINT('',(-6.721769157796E-02,-0.102960101133));
#108 = CARTESIAN_POINT('',(-1.524527759592E-02,-0.145975225844));
#109 = CARTESIAN_POINT('',(0.333993382128,-7.508058725316E-02));
#110 = CARTESIAN_POINT('',(0.455869982768,-0.102492472955));
#111 = CARTESIAN_POINT('',(0.772406380698,-8.081667444262E-02));
#112 = CARTESIAN_POINT('',(0.923470975348,-0.138612767125));
#113 = CARTESIAN_POINT('',(0.97009237731,-5.891218159462E-02));
#114 = CARTESIAN_POINT('',(1.133484683388,-5.242123219721E-02));
#115 = CARTESIAN_POINT('',(1.247126591954,-0.100359430389));
#116 = CARTESIAN_POINT('',(1.345567705802,-0.120626510292));
#117 = CARTESIAN_POINT('',(1.373690833474,-0.135463024131));
#118 = CARTESIAN_POINT('',(1.594296774879,-0.110754982349));
#119 = CARTESIAN_POINT('',(1.973292289391,-0.132861971358));
#120 = CARTESIAN_POINT('',(2.029044172156,-8.712520702731E-02));
#121 = CARTESIAN_POINT('',(2.11317178843,-4.394412043198E-02));
#122 = CARTESIAN_POINT('',(2.130158809404,-5.393191694819E-02));
#123 = CARTESIAN_POINT('',(2.47417547034,-4.464671214748E-02));
#124 = CARTESIAN_POINT('',(2.54249936182,-7.947323805718E-02));
#125 = CARTESIAN_POINT('',(3.083937580569,-9.945896095224E-02));
#126 = CARTESIAN_POINT('',(4.174279167698,-8.275809803883E-02));
#127 = CARTESIAN_POINT('',(4.208053726205,-0.107271937008));
#128 = CARTESIAN_POINT('',(4.261839869857,-9.767309781913E-02));
#129 = CARTESIAN_POINT('',(4.34855599623,-0.121353136224));
#130 = CARTESIAN_POINT('',(4.426690646058,-0.120035459628));
#131 = CARTESIAN_POINT('',(4.490201059687,-7.816769765304E-02));
#132 = CARTESIAN_POINT('',(4.808076625708,-8.154573464333E-02));
#133 = CARTESIAN_POINT('',(4.813750941987,-0.110217738597));
#134 = ( GEOMETRIC_REPRESENTATION_CONTEXT(2) 
PARAMETRIC_REPRESENTATION_CONTEXT() REPRESENTATION_CONTEXT('2D SPACE',''
  ) );
#135 = ORIENTED_EDGE('',*,*,#136,.T.);
#136 = EDGE_CURVE('',#24,#137,#139,.T.);
#137 = VERTEX_POINT('',#138);
#138 = CARTESIAN_POINT('',(9.6,0.210217738597,0.));
#139 = SURFACE_CURVE('',#140,(#144),.PCURVE_S1.);
#140 = LINE('',#141,#142);
#141 = CARTESIAN_POINT('',(9.6,-1.021773859696E-02,0.));
#142 = VECTOR('',#143,1.);
#143 = DIRECTION('',(0.,1.,0.));
#144 = PCURVE('',#78,#145);
#145 = DEFINITIONAL_REPRESENTATION('',(#146),#150);
#146 = LINE('',#147,#148);
#147 = CARTESIAN_POINT('',(4.813750941987,-0.110217738597));
#148 = VECTOR('',#149,1.);
#149 = DIRECTION('',(0.,1.));
#150 = ( GEOMETRIC_REPRESENTATION_CONTEXT(2) 
PARAMETRIC_REPRESENTATION_CONTEXT() REPRESENTATION_CONTEXT('2D SPACE',''
  ) );
#151 = ORIENTED_EDGE('',*,*,#152,.T.);
#152 = EDGE_CURVE('',#137,#153,#155,.T.);
#153 = VERTEX_POINT('',#154);
#154 = CARTESIAN_POINT('',(0.,0.175027328183,0.));
#155 = SURFACE_CURVE('',#156,(#206),.PCURVE_S1.);
#156 = B_SPLINE_CURVE_WITH_KNOTS('',1,(#157,#158,#159,#160,#161,#162,
    #163,#164,#165,#166,#167,#168,#169,#170,#171,#172,#173,#174,#175,
    #176,#177,#178,#179,#180,#181,#182,#183,#184,#185,#186,#187,#188,
    #189,#190,#191,#192,#193,#194,#195,#196,#197,#198,#199,#200,#201,
    #202,#203,#204,#205),.UNSPECIFIED.,.F.,.F.,(2,1,1,1,1,1,1,1,1,1,1,1,
    1,1,1,1,1,1,1,1,1,1,1,1,1,1,1,1,1,1,1,1,1,1,1,1,1,1,1,1,1,1,1,1,1,1,
    1,1,2),(0.,2.929231236444E-03,3.478842483779E-02,4.241203042E-02,
    5.024377525473E-02,5.925264626383E-02,6.472824487955E-02,
    6.891072072429E-02,0.178197248486,0.23249698033,0.240182623493,
    0.274672426955,0.276647327241,0.286124350598,0.293351382351,
    0.331398762581,0.353646062345,0.356832721833,0.366905379061,
    0.379266395411,0.395654440049,0.404908218848,0.421118085875,
    0.452915561544,0.465435131534,0.501149599471,0.507910852315,
    0.512788638762,0.516173971932,0.520522861351,0.564711068168,
    0.57693506403,0.643147676135,0.672290103655,0.67791686262,
    0.720007847897,0.739689838614,0.802653956385,0.851373502378,
    0.885055883148,0.895725396187,0.900831534111,0.919438016649,
    0.929419394305,0.943652006517,0.956886106464,0.967158039521,
    0.9753120712,1.),.UNSPECIFIED.);
#157 = CARTESIAN_POINT('',(9.6,0.210217738597,0.));
#158 = CARTESIAN_POINT('',(9.594325683722,0.181545734643,0.));
#159 = CARTESIAN_POINT('',(9.2764501177,0.178167697653,0.));
#160 = CARTESIAN_POINT('',(9.212939704072,0.220035459628,0.));
#161 = CARTESIAN_POINT('',(9.134805054243,0.221353136224,0.));
#162 = CARTESIAN_POINT('',(9.04808892787,0.197673097819,0.));
#163 = CARTESIAN_POINT('',(8.994302784218,0.207271937008,0.));
#164 = CARTESIAN_POINT('',(8.960528225711,0.182758098039,0.));
#165 = CARTESIAN_POINT('',(7.870186638583,0.199458960952,0.));
#166 = CARTESIAN_POINT('',(7.328748419833,0.179473238057,0.));
#167 = CARTESIAN_POINT('',(7.260424528353,0.144646712147,0.));
#168 = CARTESIAN_POINT('',(6.916407867417,0.153931916948,0.));
#169 = CARTESIAN_POINT('',(6.899420846443,0.143944120432,0.));
#170 = CARTESIAN_POINT('',(6.815293230169,0.187125207027,0.));
#171 = CARTESIAN_POINT('',(6.759541347404,0.232861971358,0.));
#172 = CARTESIAN_POINT('',(6.380545832892,0.210754982349,0.));
#173 = CARTESIAN_POINT('',(6.159939891487,0.235463024131,0.));
#174 = CARTESIAN_POINT('',(6.131816763815,0.220626510292,0.));
#175 = CARTESIAN_POINT('',(6.033375649967,0.200359430389,0.));
#176 = CARTESIAN_POINT('',(5.919733741401,0.152421232197,0.));
#177 = CARTESIAN_POINT('',(5.756341435324,0.158912181595,0.));
#178 = CARTESIAN_POINT('',(5.709720033361,0.238612767125,0.));
#179 = CARTESIAN_POINT('',(5.558655438711,0.180816674443,0.));
#180 = CARTESIAN_POINT('',(5.242119040782,0.202492472955,0.));
#181 = CARTESIAN_POINT('',(5.120242440141,0.175080587253,0.));
#182 = CARTESIAN_POINT('',(4.771003780417,0.245975225844,0.));
#183 = CARTESIAN_POINT('',(4.719031366435,0.202960101133,0.));
#184 = CARTESIAN_POINT('',(4.675027990128,0.182161961995,0.));
#185 = CARTESIAN_POINT('',(4.641299052938,0.184002507351,0.));
#186 = CARTESIAN_POINT('',(4.600537083734,0.169120885155,0.));
#187 = CARTESIAN_POINT('',(4.16038959801,0.143144178103,0.));
#188 = CARTESIAN_POINT('',(4.042127164759,0.17299650486,0.));
#189 = CARTESIAN_POINT('',(3.38635076984,0.253297477599,0.));
#190 = CARTESIAN_POINT('',(3.108739223649,0.16676433536,0.));
#191 = CARTESIAN_POINT('',(3.064070128966,0.20077679726,0.));
#192 = CARTESIAN_POINT('',(2.6460964904,0.241852650207,0.));
#193 = CARTESIAN_POINT('',(2.457015186055,0.188780264452,0.));
#194 = CARTESIAN_POINT('',(1.830980710298,0.241624904374,0.));
#195 = CARTESIAN_POINT('',(1.345725525152,0.212516876456,0.));
#196 = CARTESIAN_POINT('',(1.010472900318,0.236161871771,0.));
#197 = CARTESIAN_POINT('',(0.904606698683,0.22492170921,0.));
#198 = CARTESIAN_POINT('',(0.865650974299,0.192084273891,0.));
#199 = CARTESIAN_POINT('',(0.687019200595,0.141495879181,0.));
#200 = CARTESIAN_POINT('',(0.594100579446,0.177346773105,0.));
#201 = CARTESIAN_POINT('',(0.454692223673,0.150266916922,0.));
#202 = CARTESIAN_POINT('',(0.322655704188,0.15221431865,0.));
#203 = CARTESIAN_POINT('',(0.254199372528,0.228495253423,0.));
#204 = CARTESIAN_POINT('',(0.244815014018,0.147676705089,0.));
#205 = CARTESIAN_POINT('',(0.,0.175027328183,0.));
#206 = PCURVE('',#78,#207);
#207 = DEFINITIONAL_REPRESENTATION('',(#208),#258);
#208 = B_SPLINE_CURVE_WITH_KNOTS('',1,(#209,#210,#211,#212,#213,#214,
    #215,#216,#217,#218,#219,#220,#221,#222,#223,#224,#225,#226,#227,
    #228,#229,#230,#231,#232,#233,#234,#235,#236,#237,#238,#239,#240,
    #241,#242,#243,#244,#245,#246,#247,#248,#249,#250,#251,#252,#253,
    #254,#255,#256,#257),.UNSPECIFIED.,.F.,.F.,(2,1,1,1,1,1,1,1,1,1,1,1,
    1,1,1,1,1,1,1,1,1,1,1,1,1,1,1,1,1,1,1,1,1,1,1,1,1,1,1,1,1,1,1,1,1,1,
    1,1,2),(0.,2.929231236444E-03,3.478842483779E-02,4.241203042E-02,
    5.024377525473E-02,5.925264626383E-02,6.472824487955E-02,
    6.891072072429E-02,0.178197248486,0.23249698033,0.240182623493,
    0.274672426955,0.276647327241,0.286124350598,0.293351382351,
    0.331398762581,0.353646062345,0.356832721833,0.366905379061,
    0.379266395411,0.395654440049,0.404908218848,0.421118085875,
    0.452915561544,0.465435131534,0.501149599471,0.507910852315,
    0.512788638762,0.516173971932,0.520522861351,0.564711068168,
    0.57693506403,0.643147676135,0.672290103655,0.67791686262,
    0.720007847897,0.739689838614,0.802653956385,0.851373502378,
    0.885055883148,0.895725396187,0.900831534111,0.919438016649,
    0.929419394305,0.943652006517,0.956886106464,0.967158039521,
    0.9753120712,1.),.UNSPECIFIED.);
#209 = CARTESIAN_POINT('',(4.813750941987,0.110217738597));
#210 = CARTESIAN_POINT('',(4.808076625708,8.154573464333E-02));
#211 = CARTESIAN_POINT('',(4.490201059687,7.816769765304E-02));
#212 = CARTESIAN_POINT('',(4.426690646058,0.120035459628));
#213 = CARTESIAN_POINT('',(4.34855599623,0.121353136224));
#214 = CARTESIAN_POINT('',(4.261839869857,9.767309781913E-02));
#215 = CARTESIAN_POINT('',(4.208053726205,0.107271937008));
#216 = CARTESIAN_POINT('',(4.174279167698,8.275809803883E-02));
#217 = CARTESIAN_POINT('',(3.083937580569,9.945896095224E-02));
#218 = CARTESIAN_POINT('',(2.54249936182,7.947323805718E-02));
#219 = CARTESIAN_POINT('',(2.47417547034,4.464671214748E-02));
#220 = CARTESIAN_POINT('',(2.130158809404,5.393191694819E-02));
#221 = CARTESIAN_POINT('',(2.11317178843,4.394412043198E-02));
#222 = CARTESIAN_POINT('',(2.029044172156,8.712520702731E-02));
#223 = CARTESIAN_POINT('',(1.973292289391,0.132861971358));
#224 = CARTESIAN_POINT('',(1.594296774879,0.110754982349));
#225 = CARTESIAN_POINT('',(1.373690833474,0.135463024131));
#226 = CARTESIAN_POINT('',(1.345567705802,0.120626510292));
#227 = CARTESIAN_POINT('',(1.247126591954,0.100359430389));
#228 = CARTESIAN_POINT('',(1.133484683388,5.242123219721E-02));
#229 = CARTESIAN_POINT('',(0.97009237731,5.891218159462E-02));
#230 = CARTESIAN_POINT('',(0.923470975348,0.138612767125));
#231 = CARTESIAN_POINT('',(0.772406380698,8.081667444262E-02));
#232 = CARTESIAN_POINT('',(0.455869982768,0.102492472955));
#233 = CARTESIAN_POINT('',(0.333993382128,7.508058725316E-02));
#234 = CARTESIAN_POINT('',(-1.524527759592E-02,0.145975225844));
#235 = CARTESIAN_POINT('',(-6.721769157796E-02,0.102960101133));
#236 = CARTESIAN_POINT('',(-0.111221067885,8.216196199471E-02));
#237 = CARTESIAN_POINT('',(-0.144950005075,8.400250735089E-02));
#238 = CARTESIAN_POINT('',(-0.185711974279,6.91208851546E-02));
#239 = CARTESIAN_POINT('',(-0.625859460003,4.314417810254E-02));
#240 = CARTESIAN_POINT('',(-0.744121893254,7.299650486045E-02));
#241 = CARTESIAN_POINT('',(-1.399898288174,0.153297477599));
#242 = CARTESIAN_POINT('',(-1.677509834364,6.67643353598E-02));
#243 = CARTESIAN_POINT('',(-1.722178929047,0.10077679726));
#244 = CARTESIAN_POINT('',(-2.140152567613,0.141852650207));
#245 = CARTESIAN_POINT('',(-2.329233871958,8.878026445205E-02));
#246 = CARTESIAN_POINT('',(-2.955268347715,0.141624904374));
#247 = CARTESIAN_POINT('',(-3.440523532861,0.112516876456));
#248 = CARTESIAN_POINT('',(-3.775776157695,0.136161871771));
#249 = CARTESIAN_POINT('',(-3.881642359331,0.12492170921));
#250 = CARTESIAN_POINT('',(-3.920598083714,9.208427389076E-02));
#251 = CARTESIAN_POINT('',(-4.099229857418,4.149587918055E-02));
#252 = CARTESIAN_POINT('',(-4.192148478568,7.734677310451E-02));
#253 = CARTESIAN_POINT('',(-4.33155683434,5.026691692221E-02));
#254 = CARTESIAN_POINT('',(-4.463593353825,5.221431864988E-02));
#255 = CARTESIAN_POINT('',(-4.532049685485,0.128495253423));
#256 = CARTESIAN_POINT('',(-4.541434043995,4.767670508899E-02));
#257 = CARTESIAN_POINT('',(-4.786249058013,7.502732818303E-02));
#258 = ( GEOMETRIC_REPRESENTATION_CONTEXT(2) 
PARAMETRIC_REPRESENTATION_CONTEXT() REPRESENTATION_CONTEXT('2D SPACE',''
  ) );
#259 = ORIENTED_EDGE('',*,*,#260,.T.);
#260 = EDGE_CURVE('',#153,#22,#261,.T.);
#261 = SURFACE_CURVE('',#262,(#266),.PCURVE_S1.);
#262 = LINE('',#263,#264);
#263 = CARTESIAN_POINT('',(0.,0.175027328183,0.));
#264 = VECTOR('',#265,1.);
#265 = DIRECTION('',(0.,-1.,0.));
#266 = PCURVE('',#78,#267);
#267 = DEFINITIONAL_REPRESENTATION('',(#268),#272);
#268 = LINE('',#269,#270);
#269 = CARTESIAN_POINT('',(-4.786249058013,7.502732818303E-02));
#270 = VECTOR('',#271,1.);
#271 = DIRECTION('',(0.,-1.));
#272 = ( GEOMETRIC_REPRESENTATION_CONTEXT(2) 
PARAMETRIC_REPRESENTATION_CONTEXT() REPRESENTATION_CONTEXT('2D SPACE',''
  ) );
#273 = ( GEOMETRIC_REPRESENTATION_CONTEXT(3) 
GLOBAL_UNCERTAINTY_ASSIGNED_CONTEXT((#277)) GLOBAL_UNIT_ASSIGNED_CONTEXT
((#274,#275,#276)) REPRESENTATION_CONTEXT('Context #1',
  '3D Context with UNIT and UNCERTAINTY') );
#274 = ( LENGTH_UNIT() NAMED_UNIT(*) SI_UNIT(.MILLI.,.METRE.) );
#275 = ( NAMED_UNIT(*) PLANE_ANGLE_UNIT() SI_UNIT($,.RADIAN.) );
#276 = ( NAMED_UNIT(*) SI_UNIT($,.STERADIAN.) SOLID_ANGLE_UNIT() );
#277 = UNCERTAINTY_MEASURE_WITH_UNIT(LENGTH_MEASURE(1.E-07),#274,
  'distance_accuracy_value','confusion accuracy');
#278 = PRODUCT_RELATED_PRODUCT_CATEGORY('part',$,(#7));
ENDSEC;
END-ISO-10303-21;
