ISO-10303-21;
HEADER;
FILE_DESCRIPTION(('Open CASCADE Model'),'2;1');
FILE_NAME('Open CASCADE Shape Model','2026-05-29T14:30:30',('Author'),(
    'Open CASCADE'),'Open CASCADE STEP processor 7.9','Open CASCADE 7.9'
  ,'Unknown');
FILE_SCHEMA(('AUTOMOTIVE_DESIGN { 1 0 10303 214 1 1 1 1 }'));
ENDSEC;
DATA;
#1 = APPLICATION_PROTOCOL_DEFINITION('international standard',
  'automotive_design',2000,#2);
#2 = APPLICATION_CONTEXT(
  'core data for automotive mechanical design processes');
#3 = SHAPE_DEFINITION_REPRESENTATION(#4,#10);
#4 = PRODUCT_DEFINITION_SHAPE('','',#5);
#5 = PRODUCT_DEFINITION('design','',#6,#9);
#6 = PRODUCT_DEFINITION_FORMATION('','',#7);
#7 = PRODUCT('Open CASCADE STEP translator 7.9 64',
  'Open CASCADE STEP translator 7.9 64','',(#8));
#8 = PRODUCT_CONTEXT('',#2,'mechanical');
#9 = PRODUCT_DEFINITION_CONTEXT('part definition',#2,'design');
#10 = MANIFOLD_SURFACE_SHAPE_REPRESENTATION('',(#11,#15),#121);
#11 = AXIS2_PLACEMENT_3D('',#12,#13,#14);
#12 = CARTESIAN_POINT('',(0.,0.,0.));
#13 = DIRECTION('',(0.,0.,1.));
#14 = DIRECTION('',(1.,0.,-0.));
#15 = SHELL_BASED_SURFACE_MODEL('',(#16));
#16 = OPEN_SHELL('',(#17));
#17 = ADVANCED_FACE('',(#18),#40,.T.);
#18 = FACE_BOUND('',#19,.T.);
#19 = EDGE_LOOP('',(#20,#59,#75,#107));
#20 = ORIENTED_EDGE('',*,*,#21,.T.);
#21 = EDGE_CURVE('',#22,#24,#26,.T.);
#22 = VERTEX_POINT('',#23);
#23 = CARTESIAN_POINT('',(0.,42.842668002484,0.));
#24 = VERTEX_POINT('',#25);
#25 = CARTESIAN_POINT('',(1.5E+03,-2.002580458413,0.));
#26 = SURFACE_CURVE('',#27,(#39),.PCURVE_S1.);
#27 = B_SPLINE_CURVE_WITH_KNOTS('',1,(#28,#29,#30,#31,#32,#33,#34,#35,
    #36,#37,#38),.UNSPECIFIED.,.F.,.F.,(2,1,1,1,1,1,1,1,1,1,2),(0.,
    6.323393956859E-02,0.130288972376,0.374475143165,0.449874032494,
    0.50161978156,0.607656520546,0.787916839459,0.845228035147,
    0.945717338862,1.),.UNSPECIFIED.);
#28 = CARTESIAN_POINT('',(0.,42.842668002484,0.));
#29 = CARTESIAN_POINT('',(87.934929755939,-1.84116993905,0.));
#30 = CARTESIAN_POINT('',(192.4071154622,3.269185678665,0.));
#31 = CARTESIAN_POINT('',(572.76003445035,-17.11140926206,0.));
#32 = CARTESIAN_POINT('',(680.39524886144,30.294746986549,0.));
#33 = CARTESIAN_POINT('',(747.10333057205,-15.14976667156,0.));
#34 = CARTESIAN_POINT('',(910.41155806901,11.093939291261,0.));
#35 = CARTESIAN_POINT('',(1.190749471732E+03,-10.68433003526,0.));
#36 = CARTESIAN_POINT('',(1.263413858294E+03,41.39144911145,0.));
#37 = CARTESIAN_POINT('',(1.415501523638E+03,3.444552253394,0.));
#38 = CARTESIAN_POINT('',(1.5E+03,-2.002580458413,0.));
#39 = PCURVE('',#40,#45);
#40 = PLANE('',#41);
#41 = AXIS2_PLACEMENT_3D('',#42,#43,#44);
#42 = CARTESIAN_POINT('',(771.17215928095,75.,0.));
#43 = DIRECTION('',(0.,0.,1.));
#44 = DIRECTION('',(1.,0.,-0.));
#45 = DEFINITIONAL_REPRESENTATION('',(#46),#58);
#46 = B_SPLINE_CURVE_WITH_KNOTS('',1,(#47,#48,#49,#50,#51,#52,#53,#54,
    #55,#56,#57),.UNSPECIFIED.,.F.,.F.,(2,1,1,1,1,1,1,1,1,1,2),(0.,
    6.323393956859E-02,0.130288972376,0.374475143165,0.449874032494,
    0.50161978156,0.607656520546,0.787916839459,0.845228035147,
    0.945717338862,1.),.UNSPECIFIED.);
#47 = CARTESIAN_POINT('',(-771.1721592809,-32.15733199751));
#48 = CARTESIAN_POINT('',(-683.237229525,-76.84116993905));
#49 = CARTESIAN_POINT('',(-578.7650438187,-71.73081432133));
#50 = CARTESIAN_POINT('',(-198.4121248306,-92.11140926206));
#51 = CARTESIAN_POINT('',(-90.7769104195,-44.70525301345));
#52 = CARTESIAN_POINT('',(-24.0688287089,-90.14976667156));
#53 = CARTESIAN_POINT('',(139.23939878806,-63.90606070873));
#54 = CARTESIAN_POINT('',(419.57731245118,-85.68433003526));
#55 = CARTESIAN_POINT('',(492.24169901321,-33.60855088855));
#56 = CARTESIAN_POINT('',(644.32936435672,-71.5554477466));
#57 = CARTESIAN_POINT('',(728.82784071904,-77.00258045841));
#58 = ( GEOMETRIC_REPRESENTATION_CONTEXT(2) 
PARAMETRIC_REPRESENTATION_CONTEXT() REPRESENTATION_CONTEXT('2D SPACE',''
  ) );
#59 = ORIENTED_EDGE('',*,*,#60,.T.);
#60 = EDGE_CURVE('',#24,#61,#63,.T.);
#61 = VERTEX_POINT('',#62);
#62 = CARTESIAN_POINT('',(1.5E+03,152.00258045841,0.));
#63 = SURFACE_CURVE('',#64,(#68),.PCURVE_S1.);
#64 = LINE('',#65,#66);
#65 = CARTESIAN_POINT('',(1.5E+03,-2.002580458413,0.));
#66 = VECTOR('',#67,1.);
#67 = DIRECTION('',(0.,1.,0.));
#68 = PCURVE('',#40,#69);
#69 = DEFINITIONAL_REPRESENTATION('',(#70),#74);
#70 = LINE('',#71,#72);
#71 = CARTESIAN_POINT('',(728.82784071904,-77.00258045841));
#72 = VECTOR('',#73,1.);
#73 = DIRECTION('',(0.,1.));
#74 = ( GEOMETRIC_REPRESENTATION_CONTEXT(2) 
PARAMETRIC_REPRESENTATION_CONTEXT() REPRESENTATION_CONTEXT('2D SPACE',''
  ) );
#75 = ORIENTED_EDGE('',*,*,#76,.T.);
#76 = EDGE_CURVE('',#61,#77,#79,.T.);
#77 = VERTEX_POINT('',#78);
#78 = CARTESIAN_POINT('',(0.,107.15733199751,0.));
#79 = SURFACE_CURVE('',#80,(#92),.PCURVE_S1.);
#80 = B_SPLINE_CURVE_WITH_KNOTS('',1,(#81,#82,#83,#84,#85,#86,#87,#88,
    #89,#90,#91),.UNSPECIFIED.,.F.,.F.,(2,1,1,1,1,1,1,1,1,1,2),(0.,
    5.428266113846E-02,0.154771964853,0.212083160541,0.392343479454,
    0.49838021844,0.550125967506,0.625524856835,0.869711027624,
    0.936766060431,1.),.UNSPECIFIED.);
#81 = CARTESIAN_POINT('',(1.5E+03,152.00258045841,0.));
#82 = CARTESIAN_POINT('',(1.415501523638E+03,146.5554477466,0.));
#83 = CARTESIAN_POINT('',(1.263413858294E+03,108.60855088855,0.));
#84 = CARTESIAN_POINT('',(1.190749471732E+03,160.68433003526,0.));
#85 = CARTESIAN_POINT('',(910.41155806901,138.90606070873,0.));
#86 = CARTESIAN_POINT('',(747.10333057205,165.14976667156,0.));
#87 = CARTESIAN_POINT('',(680.39524886144,119.70525301345,0.));
#88 = CARTESIAN_POINT('',(572.76003445035,167.11140926206,0.));
#89 = CARTESIAN_POINT('',(192.4071154622,146.73081432133,0.));
#90 = CARTESIAN_POINT('',(87.934929755939,151.84116993905,0.));
#91 = CARTESIAN_POINT('',(0.,107.15733199751,0.));
#92 = PCURVE('',#40,#93);
#93 = DEFINITIONAL_REPRESENTATION('',(#94),#106);
#94 = B_SPLINE_CURVE_WITH_KNOTS('',1,(#95,#96,#97,#98,#99,#100,#101,#102
    ,#103,#104,#105),.UNSPECIFIED.,.F.,.F.,(2,1,1,1,1,1,1,1,1,1,2),(0.,
    5.428266113846E-02,0.154771964853,0.212083160541,0.392343479454,
    0.49838021844,0.550125967506,0.625524856835,0.869711027624,
    0.936766060431,1.),.UNSPECIFIED.);
#95 = CARTESIAN_POINT('',(728.82784071904,77.002580458413));
#96 = CARTESIAN_POINT('',(644.32936435672,71.555447746606));
#97 = CARTESIAN_POINT('',(492.24169901321,33.60855088855));
#98 = CARTESIAN_POINT('',(419.57731245118,85.684330035268));
#99 = CARTESIAN_POINT('',(139.23939878806,63.906060708739));
#100 = CARTESIAN_POINT('',(-24.0688287089,90.149766671564));
#101 = CARTESIAN_POINT('',(-90.7769104195,44.705253013451));
#102 = CARTESIAN_POINT('',(-198.4121248306,92.111409262061));
#103 = CARTESIAN_POINT('',(-578.7650438187,71.730814321335));
#104 = CARTESIAN_POINT('',(-683.237229525,76.84116993905));
#105 = CARTESIAN_POINT('',(-771.1721592809,32.157331997516));
#106 = ( GEOMETRIC_REPRESENTATION_CONTEXT(2) 
PARAMETRIC_REPRESENTATION_CONTEXT() REPRESENTATION_CONTEXT('2D SPACE',''
  ) );
#107 = ORIENTED_EDGE('',*,*,#108,.T.);
#108 = EDGE_CURVE('',#77,#22,#109,.T.);
#109 = SURFACE_CURVE('',#110,(#114),.PCURVE_S1.);
#110 = LINE('',#111,#112);
#111 = CARTESIAN_POINT('',(0.,107.15733199751,0.));
#112 = VECTOR('',#113,1.);
#113 = DIRECTION('',(0.,-1.,0.));
#114 = PCURVE('',#40,#115);
#115 = DEFINITIONAL_REPRESENTATION('',(#116),#120);
#116 = LINE('',#117,#118);
#117 = CARTESIAN_POINT('',(-771.1721592809,32.157331997516));
#118 = VECTOR('',#119,1.);
#119 = DIRECTION('',(0.,-1.));
#120 = ( GEOMETRIC_REPRESENTATION_CONTEXT(2) 
PARAMETRIC_REPRESENTATION_CONTEXT() REPRESENTATION_CONTEXT('2D SPACE',''
  ) );
#121 = ( GEOMETRIC_REPRESENTATION_CONTEXT(3) 
GLOBAL_UNCERTAINTY_ASSIGNED_CONTEXT((#125)) GLOBAL_UNIT_ASSIGNED_CONTEXT
((#122,#123,#124)) REPRESENTATION_CONTEXT('Context #1',
  '3D Context with UNIT and UNCERTAINTY') );
#122 = ( LENGTH_UNIT() NAMED_UNIT(*) SI_UNIT(.MILLI.,.METRE.) );
#123 = ( NAMED_UNIT(*) PLANE_ANGLE_UNIT() SI_UNIT($,.RADIAN.) );
#124 = ( NAMED_UNIT(*) SI_UNIT($,.STERADIAN.) SOLID_ANGLE_UNIT() );
#125 = UNCERTAINTY_MEASURE_WITH_UNIT(LENGTH_MEASURE(1.E-07),#122,
  'distance_accuracy_value','confusion accuracy');
#126 = PRODUCT_RELATED_PRODUCT_CATEGORY('part',$,(#7));
ENDSEC;
END-ISO-10303-21;
