ISO-10303-21;
HEADER;
FILE_DESCRIPTION(('Open CASCADE Model'),'2;1');
FILE_NAME('Open CASCADE Shape Model','2026-05-28T17:04:49',('Author'),(
    'Open CASCADE'),'Open CASCADE STEP processor 7.9','Open CASCADE 7.9'
  ,'Unknown');
FILE_SCHEMA(('AUTOMOTIVE_DESIGN { 1 0 10303 214 1 1 1 1 }'));
ENDSEC;
DATA;
#1 = APPLICATION_PROTOCOL_DEFINITION('international standard',
  'automotive_design',2000,#2);
#2 = APPLICATION_CONTEXT(
  'core data for automotive mechanical design processes');
#3 = SHAPE_DEFINITION_REPRESENTATION(#4,#10);
#4 = PRODUCT_DEFINITION_SHAPE('','',#5);
#5 = PRODUCT_DEFINITION('design','',#6,#9);
#6 = PRODUCT_DEFINITION_FORMATION('','',#7);
#7 = PRODUCT('Open CASCADE STEP translator 7.9 42',
  'Open CASCADE STEP translator 7.9 42','',(#8));
#8 = PRODUCT_CONTEXT('',#2,'mechanical');
#9 = PRODUCT_DEFINITION_CONTEXT('part definition',#2,'design');
#10 = MANIFOLD_SURFACE_SHAPE_REPRESENTATION('',(#11,#15),#213);
#11 = AXIS2_PLACEMENT_3D('',#12,#13,#14);
#12 = CARTESIAN_POINT('',(0.,0.,0.));
#13 = DIRECTION('',(0.,0.,1.));
#14 = DIRECTION('',(1.,0.,-0.));
#15 = SHELL_BASED_SURFACE_MODEL('',(#16));
#16 = OPEN_SHELL('',(#17));
#17 = ADVANCED_FACE('',(#18),#63,.T.);
#18 = FACE_BOUND('',#19,.T.);
#19 = EDGE_LOOP('',(#20,#105,#121,#199));
#20 = ORIENTED_EDGE('',*,*,#21,.T.);
#21 = EDGE_CURVE('',#22,#24,#26,.T.);
#22 = VERTEX_POINT('',#23);
#23 = CARTESIAN_POINT('',(0.,-1.050261366346E-02,0.));
#24 = VERTEX_POINT('',#25);
#25 = CARTESIAN_POINT('',(6.6,1.93690268147E-02,0.));
#26 = SURFACE_CURVE('',#27,(#62),.PCURVE_S1.);
#27 = B_SPLINE_CURVE_WITH_KNOTS('',1,(#28,#29,#30,#31,#32,#33,#34,#35,
    #36,#37,#38,#39,#40,#41,#42,#43,#44,#45,#46,#47,#48,#49,#50,#51,#52,
    #53,#54,#55,#56,#57,#58,#59,#60,#61),.UNSPECIFIED.,.F.,.F.,(2,1,1,1,
    1,1,1,1,1,1,1,1,1,1,1,1,1,1,1,1,1,1,1,1,1,1,1,1,1,1,1,1,1,2),(0.,
    6.537235149216E-02,6.955841688124E-02,9.759522529608E-02,
    0.108504269404,0.130322796749,0.202245323789,0.240275408372,
    0.25057540188,0.299245830856,0.325236293754,0.334707414493,
    0.419286271668,0.487388530608,0.52671757871,0.53628998572,
    0.554231787916,0.583740842158,0.627929550382,0.676717073756,
    0.686446194647,0.696792644688,0.717462616524,0.72588593889,
    0.757186638733,0.765642625717,0.806233943648,0.829720051722,
    0.899948244451,0.931519536364,0.933232505089,0.957859111878,
    0.974950783583,1.),.UNSPECIFIED.);
#28 = CARTESIAN_POINT('',(0.,-1.050261366346E-02,0.));
#29 = CARTESIAN_POINT('',(0.444670413878,-1.972138421211E-02,0.));
#30 = CARTESIAN_POINT('',(0.452897656918,7.544634936024E-03,0.));
#31 = CARTESIAN_POINT('',(0.639767975809,-3.073449716917E-02,0.));
#32 = CARTESIAN_POINT('',(0.708094579657,-5.972008708064E-02,0.));
#33 = CARTESIAN_POINT('',(0.817368300826,4.075328111187E-02,0.));
#34 = CARTESIAN_POINT('',(1.306672926352,3.571136645955E-02,0.));
#35 = CARTESIAN_POINT('',(1.562233163876,-4.732531039727E-03,0.));
#36 = CARTESIAN_POINT('',(1.631962748324,2.234952328601E-03,0.));
#37 = CARTESIAN_POINT('',(1.962918930018,-8.588374140806E-03,0.));
#38 = CARTESIAN_POINT('',(2.12825790264,5.411111427309E-02,0.));
#39 = CARTESIAN_POINT('',(2.17658350504,1.148682524035E-02,0.));
#40 = CARTESIAN_POINT('',(2.751622742344,-9.957391447867E-03,0.));
#41 = CARTESIAN_POINT('',(3.214961771448,-1.02229621566E-02,0.));
#42 = CARTESIAN_POINT('',(3.48239997999,-1.88800754122E-02,0.));
#43 = CARTESIAN_POINT('',(3.547087984136,-2.642592348032E-02,0.));
#44 = CARTESIAN_POINT('',(3.66879087218,-1.69856644009E-02,0.));
#45 = CARTESIAN_POINT('',(3.868763548788,-3.482917864673E-02,0.));
#46 = CARTESIAN_POINT('',(4.168748378331,-1.497127616215E-02,0.));
#47 = CARTESIAN_POINT('',(4.500512973443,-4.500919504465E-03,0.));
#48 = CARTESIAN_POINT('',(4.566190604485,-1.274357146654E-02,0.));
#49 = CARTESIAN_POINT('',(4.602006168078,4.78567959896E-02,0.));
#50 = CARTESIAN_POINT('',(4.741113716943,2.722121511294E-02,0.));
#51 = CARTESIAN_POINT('',(4.789626406769,-3.287973678976E-03,0.));
#52 = CARTESIAN_POINT('',(4.998506256083,-4.47584658482E-02,0.));
#53 = CARTESIAN_POINT('',(5.051120077995,-2.148618675456E-02,0.));
#54 = CARTESIAN_POINT('',(5.318099809059,4.915103058337E-02,0.));
#55 = CARTESIAN_POINT('',(5.46610582643,-1.107299405333E-02,0.));
#56 = CARTESIAN_POINT('',(5.941835457462,3.339144148355E-02,0.));
#57 = CARTESIAN_POINT('',(6.147648733439,-2.808198717465E-02,0.));
#58 = CARTESIAN_POINT('',(6.150832836918,-3.929290230105E-02,0.));
#59 = CARTESIAN_POINT('',(6.316012458563,-1.12147527108E-02,0.));
#60 = CARTESIAN_POINT('',(6.432296727457,-1.096351317021E-02,0.));
#61 = CARTESIAN_POINT('',(6.6,1.93690268147E-02,0.));
#62 = PCURVE('',#63,#68);
#63 = PLANE('',#64);
#64 = AXIS2_PLACEMENT_3D('',#65,#66,#67);
#65 = CARTESIAN_POINT('',(3.280759665426,1.E-01,0.));
#66 = DIRECTION('',(0.,0.,1.));
#67 = DIRECTION('',(1.,0.,-0.));
#68 = DEFINITIONAL_REPRESENTATION('',(#69),#104);
#69 = B_SPLINE_CURVE_WITH_KNOTS('',1,(#70,#71,#72,#73,#74,#75,#76,#77,
    #78,#79,#80,#81,#82,#83,#84,#85,#86,#87,#88,#89,#90,#91,#92,#93,#94,
    #95,#96,#97,#98,#99,#100,#101,#102,#103),.UNSPECIFIED.,.F.,.F.,(2,1,
    1,1,1,1,1,1,1,1,1,1,1,1,1,1,1,1,1,1,1,1,1,1,1,1,1,1,1,1,1,1,1,2),(0.
    ,6.537235149216E-02,6.955841688124E-02,9.759522529608E-02,
    0.108504269404,0.130322796749,0.202245323789,0.240275408372,
    0.25057540188,0.299245830856,0.325236293754,0.334707414493,
    0.419286271668,0.487388530608,0.52671757871,0.53628998572,
    0.554231787916,0.583740842158,0.627929550382,0.676717073756,
    0.686446194647,0.696792644688,0.717462616524,0.72588593889,
    0.757186638733,0.765642625717,0.806233943648,0.829720051722,
    0.899948244451,0.931519536364,0.933232505089,0.957859111878,
    0.974950783583,1.),.UNSPECIFIED.);
#70 = CARTESIAN_POINT('',(-3.280759665426,-0.110502613663));
#71 = CARTESIAN_POINT('',(-2.836089251549,-0.119721384212));
#72 = CARTESIAN_POINT('',(-2.827862008508,-9.245536506398E-02));
#73 = CARTESIAN_POINT('',(-2.640991689617,-0.130734497169));
#74 = CARTESIAN_POINT('',(-2.57266508577,-0.159720087081));
#75 = CARTESIAN_POINT('',(-2.4633913646,-5.924671888813E-02));
#76 = CARTESIAN_POINT('',(-1.974086739075,-6.428863354045E-02));
#77 = CARTESIAN_POINT('',(-1.718526501551,-0.10473253104));
#78 = CARTESIAN_POINT('',(-1.648796917102,-9.77650476714E-02));
#79 = CARTESIAN_POINT('',(-1.317840735409,-0.108588374141));
#80 = CARTESIAN_POINT('',(-1.152501762787,-4.588888572691E-02));
#81 = CARTESIAN_POINT('',(-1.104176160386,-8.851317475965E-02));
#82 = CARTESIAN_POINT('',(-0.529136923083,-0.109957391448));
#83 = CARTESIAN_POINT('',(-6.579789397803E-02,-0.110222962157));
#84 = CARTESIAN_POINT('',(0.201640314563,-0.118880075412));
#85 = CARTESIAN_POINT('',(0.26632831871,-0.12642592348));
#86 = CARTESIAN_POINT('',(0.388031206754,-0.116985664401));
#87 = CARTESIAN_POINT('',(0.588003883362,-0.134829178647));
#88 = CARTESIAN_POINT('',(0.887988712904,-0.114971276162));
#89 = CARTESIAN_POINT('',(1.219753308016,-0.104500919504));
#90 = CARTESIAN_POINT('',(1.285430939059,-0.112743571467));
#91 = CARTESIAN_POINT('',(1.321246502651,-5.21432040104E-02));
#92 = CARTESIAN_POINT('',(1.460354051516,-7.277878488706E-02));
#93 = CARTESIAN_POINT('',(1.508866741342,-0.103287973679));
#94 = CARTESIAN_POINT('',(1.717746590657,-0.144758465848));
#95 = CARTESIAN_POINT('',(1.770360412569,-0.121486186755));
#96 = CARTESIAN_POINT('',(2.037340143633,-5.084896941663E-02));
#97 = CARTESIAN_POINT('',(2.185346161003,-0.111072994053));
#98 = CARTESIAN_POINT('',(2.661075792035,-6.660855851645E-02));
#99 = CARTESIAN_POINT('',(2.866889068012,-0.128081987175));
#100 = CARTESIAN_POINT('',(2.870073171492,-0.139292902301));
#101 = CARTESIAN_POINT('',(3.035252793137,-0.111214752711));
#102 = CARTESIAN_POINT('',(3.151537062031,-0.11096351317));
#103 = CARTESIAN_POINT('',(3.319240334574,-8.06309731853E-02));
#104 = ( GEOMETRIC_REPRESENTATION_CONTEXT(2) 
PARAMETRIC_REPRESENTATION_CONTEXT() REPRESENTATION_CONTEXT('2D SPACE',''
  ) );
#105 = ORIENTED_EDGE('',*,*,#106,.T.);
#106 = EDGE_CURVE('',#24,#107,#109,.T.);
#107 = VERTEX_POINT('',#108);
#108 = CARTESIAN_POINT('',(6.6,0.180630973185,0.));
#109 = SURFACE_CURVE('',#110,(#114),.PCURVE_S1.);
#110 = LINE('',#111,#112);
#111 = CARTESIAN_POINT('',(6.6,1.93690268147E-02,0.));
#112 = VECTOR('',#113,1.);
#113 = DIRECTION('',(0.,1.,0.));
#114 = PCURVE('',#63,#115);
#115 = DEFINITIONAL_REPRESENTATION('',(#116),#120);
#116 = LINE('',#117,#118);
#117 = CARTESIAN_POINT('',(3.319240334574,-8.06309731853E-02));
#118 = VECTOR('',#119,1.);
#119 = DIRECTION('',(0.,1.));
#120 = ( GEOMETRIC_REPRESENTATION_CONTEXT(2) 
PARAMETRIC_REPRESENTATION_CONTEXT() REPRESENTATION_CONTEXT('2D SPACE',''
  ) );
#121 = ORIENTED_EDGE('',*,*,#122,.T.);
#122 = EDGE_CURVE('',#107,#123,#125,.T.);
#123 = VERTEX_POINT('',#124);
#124 = CARTESIAN_POINT('',(0.,0.210502613663,0.));
#125 = SURFACE_CURVE('',#126,(#161),.PCURVE_S1.);
#126 = B_SPLINE_CURVE_WITH_KNOTS('',1,(#127,#128,#129,#130,#131,#132,
    #133,#134,#135,#136,#137,#138,#139,#140,#141,#142,#143,#144,#145,
    #146,#147,#148,#149,#150,#151,#152,#153,#154,#155,#156,#157,#158,
    #159,#160),.UNSPECIFIED.,.F.,.F.,(2,1,1,1,1,1,1,1,1,1,1,1,1,1,1,1,1,
    1,1,1,1,1,1,1,1,1,1,1,1,1,1,1,1,2),(0.,2.504921641738E-02,
    4.214088812245E-02,6.676749491092E-02,6.848046363635E-02,
    0.100051755549,0.170279948278,0.193766056352,0.234357374283,
    0.242813361267,0.27411406111,0.282537383476,0.303207355312,
    0.313553805353,0.323282926244,0.372070449618,0.416259157842,
    0.445768212084,0.46371001428,0.47328242129,0.512611469392,
    0.580713728332,0.665292585507,0.674763706246,0.700754169144,
    0.74942459812,0.759724591628,0.797754676211,0.869677203251,
    0.891495730596,0.902404774704,0.930441583119,0.934627648508,1.),
  .UNSPECIFIED.);
#127 = CARTESIAN_POINT('',(6.6,0.180630973185,0.));
#128 = CARTESIAN_POINT('',(6.432296727457,0.21096351317,0.));
#129 = CARTESIAN_POINT('',(6.316012458563,0.211214752711,0.));
#130 = CARTESIAN_POINT('',(6.150832836918,0.239292902301,0.));
#131 = CARTESIAN_POINT('',(6.147648733439,0.228081987175,0.));
#132 = CARTESIAN_POINT('',(5.941835457462,0.166608558516,0.));
#133 = CARTESIAN_POINT('',(5.46610582643,0.211072994053,0.));
#134 = CARTESIAN_POINT('',(5.318099809059,0.150848969417,0.));
#135 = CARTESIAN_POINT('',(5.051120077995,0.221486186755,0.));
#136 = CARTESIAN_POINT('',(4.998506256083,0.244758465848,0.));
#137 = CARTESIAN_POINT('',(4.789626406769,0.203287973679,0.));
#138 = CARTESIAN_POINT('',(4.741113716943,0.172778784887,0.));
#139 = CARTESIAN_POINT('',(4.602006168078,0.15214320401,0.));
#140 = CARTESIAN_POINT('',(4.566190604485,0.212743571467,0.));
#141 = CARTESIAN_POINT('',(4.500512973443,0.204500919504,0.));
#142 = CARTESIAN_POINT('',(4.168748378331,0.214971276162,0.));
#143 = CARTESIAN_POINT('',(3.868763548788,0.234829178647,0.));
#144 = CARTESIAN_POINT('',(3.66879087218,0.216985664401,0.));
#145 = CARTESIAN_POINT('',(3.547087984136,0.22642592348,0.));
#146 = CARTESIAN_POINT('',(3.48239997999,0.218880075412,0.));
#147 = CARTESIAN_POINT('',(3.214961771448,0.210222962157,0.));
#148 = CARTESIAN_POINT('',(2.751622742344,0.209957391448,0.));
#149 = CARTESIAN_POINT('',(2.17658350504,0.18851317476,0.));
#150 = CARTESIAN_POINT('',(2.12825790264,0.145888885727,0.));
#151 = CARTESIAN_POINT('',(1.962918930018,0.208588374141,0.));
#152 = CARTESIAN_POINT('',(1.631962748324,0.197765047671,0.));
#153 = CARTESIAN_POINT('',(1.562233163876,0.20473253104,0.));
#154 = CARTESIAN_POINT('',(1.306672926352,0.16428863354,0.));
#155 = CARTESIAN_POINT('',(0.817368300826,0.159246718888,0.));
#156 = CARTESIAN_POINT('',(0.708094579657,0.259720087081,0.));
#157 = CARTESIAN_POINT('',(0.639767975809,0.230734497169,0.));
#158 = CARTESIAN_POINT('',(0.452897656918,0.192455365064,0.));
#159 = CARTESIAN_POINT('',(0.444670413878,0.219721384212,0.));
#160 = CARTESIAN_POINT('',(0.,0.210502613663,0.));
#161 = PCURVE('',#63,#162);
#162 = DEFINITIONAL_REPRESENTATION('',(#163),#198);
#163 = B_SPLINE_CURVE_WITH_KNOTS('',1,(#164,#165,#166,#167,#168,#169,
    #170,#171,#172,#173,#174,#175,#176,#177,#178,#179,#180,#181,#182,
    #183,#184,#185,#186,#187,#188,#189,#190,#191,#192,#193,#194,#195,
    #196,#197),.UNSPECIFIED.,.F.,.F.,(2,1,1,1,1,1,1,1,1,1,1,1,1,1,1,1,1,
    1,1,1,1,1,1,1,1,1,1,1,1,1,1,1,1,2),(0.,2.504921641738E-02,
    4.214088812245E-02,6.676749491092E-02,6.848046363635E-02,
    0.100051755549,0.170279948278,0.193766056352,0.234357374283,
    0.242813361267,0.27411406111,0.282537383476,0.303207355312,
    0.313553805353,0.323282926244,0.372070449618,0.416259157842,
    0.445768212084,0.46371001428,0.47328242129,0.512611469392,
    0.580713728332,0.665292585507,0.674763706246,0.700754169144,
    0.74942459812,0.759724591628,0.797754676211,0.869677203251,
    0.891495730596,0.902404774704,0.930441583119,0.934627648508,1.),
  .UNSPECIFIED.);
#164 = CARTESIAN_POINT('',(3.319240334574,8.06309731853E-02));
#165 = CARTESIAN_POINT('',(3.151537062031,0.11096351317));
#166 = CARTESIAN_POINT('',(3.035252793137,0.111214752711));
#167 = CARTESIAN_POINT('',(2.870073171492,0.139292902301));
#168 = CARTESIAN_POINT('',(2.866889068012,0.128081987175));
#169 = CARTESIAN_POINT('',(2.661075792035,6.660855851645E-02));
#170 = CARTESIAN_POINT('',(2.185346161003,0.111072994053));
#171 = CARTESIAN_POINT('',(2.037340143633,5.084896941663E-02));
#172 = CARTESIAN_POINT('',(1.770360412569,0.121486186755));
#173 = CARTESIAN_POINT('',(1.717746590657,0.144758465848));
#174 = CARTESIAN_POINT('',(1.508866741342,0.103287973679));
#175 = CARTESIAN_POINT('',(1.460354051516,7.277878488706E-02));
#176 = CARTESIAN_POINT('',(1.321246502651,5.21432040104E-02));
#177 = CARTESIAN_POINT('',(1.285430939059,0.112743571467));
#178 = CARTESIAN_POINT('',(1.219753308016,0.104500919504));
#179 = CARTESIAN_POINT('',(0.887988712904,0.114971276162));
#180 = CARTESIAN_POINT('',(0.588003883362,0.134829178647));
#181 = CARTESIAN_POINT('',(0.388031206754,0.116985664401));
#182 = CARTESIAN_POINT('',(0.26632831871,0.12642592348));
#183 = CARTESIAN_POINT('',(0.201640314563,0.118880075412));
#184 = CARTESIAN_POINT('',(-6.579789397803E-02,0.110222962157));
#185 = CARTESIAN_POINT('',(-0.529136923083,0.109957391448));
#186 = CARTESIAN_POINT('',(-1.104176160386,8.851317475965E-02));
#187 = CARTESIAN_POINT('',(-1.152501762787,4.588888572691E-02));
#188 = CARTESIAN_POINT('',(-1.317840735409,0.108588374141));
#189 = CARTESIAN_POINT('',(-1.648796917102,9.77650476714E-02));
#190 = CARTESIAN_POINT('',(-1.718526501551,0.10473253104));
#191 = CARTESIAN_POINT('',(-1.974086739075,6.428863354045E-02));
#192 = CARTESIAN_POINT('',(-2.4633913646,5.924671888813E-02));
#193 = CARTESIAN_POINT('',(-2.57266508577,0.159720087081));
#194 = CARTESIAN_POINT('',(-2.640991689617,0.130734497169));
#195 = CARTESIAN_POINT('',(-2.827862008508,9.245536506398E-02));
#196 = CARTESIAN_POINT('',(-2.836089251549,0.119721384212));
#197 = CARTESIAN_POINT('',(-3.280759665426,0.110502613663));
#198 = ( GEOMETRIC_REPRESENTATION_CONTEXT(2) 
PARAMETRIC_REPRESENTATION_CONTEXT() REPRESENTATION_CONTEXT('2D SPACE',''
  ) );
#199 = ORIENTED_EDGE('',*,*,#200,.T.);
#200 = EDGE_CURVE('',#123,#22,#201,.T.);
#201 = SURFACE_CURVE('',#202,(#206),.PCURVE_S1.);
#202 = LINE('',#203,#204);
#203 = CARTESIAN_POINT('',(0.,0.210502613663,0.));
#204 = VECTOR('',#205,1.);
#205 = DIRECTION('',(0.,-1.,0.));
#206 = PCURVE('',#63,#207);
#207 = DEFINITIONAL_REPRESENTATION('',(#208),#212);
#208 = LINE('',#209,#210);
#209 = CARTESIAN_POINT('',(-3.280759665426,0.110502613663));
#210 = VECTOR('',#211,1.);
#211 = DIRECTION('',(0.,-1.));
#212 = ( GEOMETRIC_REPRESENTATION_CONTEXT(2) 
PARAMETRIC_REPRESENTATION_CONTEXT() REPRESENTATION_CONTEXT('2D SPACE',''
  ) );
#213 = ( GEOMETRIC_REPRESENTATION_CONTEXT(3) 
GLOBAL_UNCERTAINTY_ASSIGNED_CONTEXT((#217)) GLOBAL_UNIT_ASSIGNED_CONTEXT
((#214,#215,#216)) REPRESENTATION_CONTEXT('Context #1',
  '3D Context with UNIT and UNCERTAINTY') );
#214 = ( LENGTH_UNIT() NAMED_UNIT(*) SI_UNIT(.MILLI.,.METRE.) );
#215 = ( NAMED_UNIT(*) PLANE_ANGLE_UNIT() SI_UNIT($,.RADIAN.) );
#216 = ( NAMED_UNIT(*) SI_UNIT($,.STERADIAN.) SOLID_ANGLE_UNIT() );
#217 = UNCERTAINTY_MEASURE_WITH_UNIT(LENGTH_MEASURE(1.E-07),#214,
  'distance_accuracy_value','confusion accuracy');
#218 = PRODUCT_RELATED_PRODUCT_CATEGORY('part',$,(#7));
ENDSEC;
END-ISO-10303-21;
