ISO-10303-21;
HEADER;
FILE_DESCRIPTION(('Open CASCADE Model'),'2;1');
FILE_NAME('Open CASCADE Shape Model','2026-05-28T17:04:49',('Author'),(
    'Open CASCADE'),'Open CASCADE STEP processor 7.9','Open CASCADE 7.9'
  ,'Unknown');
FILE_SCHEMA(('AUTOMOTIVE_DESIGN { 1 0 10303 214 1 1 1 1 }'));
ENDSEC;
DATA;
#1 = APPLICATION_PROTOCOL_DEFINITION('international standard',
  'automotive_design',2000,#2);
#2 = APPLICATION_CONTEXT(
  'core data for automotive mechanical design processes');
#3 = SHAPE_DEFINITION_REPRESENTATION(#4,#10);
#4 = PRODUCT_DEFINITION_SHAPE('','',#5);
#5 = PRODUCT_DEFINITION('design','',#6,#9);
#6 = PRODUCT_DEFINITION_FORMATION('','',#7);
#7 = PRODUCT('Open CASCADE STEP translator 7.9 61',
  'Open CASCADE STEP translator 7.9 61','',(#8));
#8 = PRODUCT_CONTEXT('',#2,'mechanical');
#9 = PRODUCT_DEFINITION_CONTEXT('part definition',#2,'design');
#10 = MANIFOLD_SURFACE_SHAPE_REPRESENTATION('',(#11,#15),#205);
#11 = AXIS2_PLACEMENT_3D('',#12,#13,#14);
#12 = CARTESIAN_POINT('',(0.,0.,0.));
#13 = DIRECTION('',(0.,0.,1.));
#14 = DIRECTION('',(1.,0.,-0.));
#15 = SHELL_BASED_SURFACE_MODEL('',(#16));
#16 = OPEN_SHELL('',(#17));
#17 = ADVANCED_FACE('',(#18),#61,.T.);
#18 = FACE_BOUND('',#19,.T.);
#19 = EDGE_LOOP('',(#20,#101,#117,#191));
#20 = ORIENTED_EDGE('',*,*,#21,.T.);
#21 = EDGE_CURVE('',#22,#24,#26,.T.);
#22 = VERTEX_POINT('',#23);
#23 = CARTESIAN_POINT('',(0.,2.063146289269E-02,0.));
#24 = VERTEX_POINT('',#25);
#25 = CARTESIAN_POINT('',(6.2,5.890167940548E-03,0.));
#26 = SURFACE_CURVE('',#27,(#60),.PCURVE_S1.);
#27 = B_SPLINE_CURVE_WITH_KNOTS('',1,(#28,#29,#30,#31,#32,#33,#34,#35,
    #36,#37,#38,#39,#40,#41,#42,#43,#44,#45,#46,#47,#48,#49,#50,#51,#52,
    #53,#54,#55,#56,#57,#58,#59),.UNSPECIFIED.,.F.,.F.,(2,1,1,1,1,1,1,1,
    1,1,1,1,1,1,1,1,1,1,1,1,1,1,1,1,1,1,1,1,1,1,1,2),(0.,
    7.064588551577E-02,0.13547588352,0.177320749936,0.248212952833,
    0.282451084977,0.295937255559,0.297224193063,0.314542817384,
    0.376129623831,0.380484519459,0.39317977145,0.435372126767,
    0.473096875121,0.490287269825,0.509213577022,0.717046407667,
    0.738748768608,0.754605861029,0.763307045814,0.777599580083,
    0.790755188128,0.800447805396,0.806540877913,0.814620484902,
    0.824280413102,0.840973801796,0.863546236199,0.906825133993,
    0.9187395773,0.974455897152,1.),.UNSPECIFIED.);
#28 = CARTESIAN_POINT('',(0.,2.063146289269E-02,0.));
#29 = CARTESIAN_POINT('',(0.457014828492,-3.671886988626E-02,0.));
#30 = CARTESIAN_POINT('',(0.870790982012,4.958394679791E-02,0.));
#31 = CARTESIAN_POINT('',(1.143564957498,5.467232437073E-02,0.));
#32 = CARTESIAN_POINT('',(1.591390531281,-5.972105368438E-02,0.));
#33 = CARTESIAN_POINT('',(1.814086457065,-4.433485478816E-02,0.));
#34 = CARTESIAN_POINT('',(1.901999318179,-4.594170041594E-02,0.));
#35 = CARTESIAN_POINT('',(1.903721878968,-5.415359371279E-02,0.));
#36 = CARTESIAN_POINT('',(1.998382252489,7.402042870261E-03,0.));
#37 = CARTESIAN_POINT('',(2.39950611687,2.557973343838E-02,0.));
#38 = CARTESIAN_POINT('',(2.420768364461,4.439700059785E-02,0.));
#39 = CARTESIAN_POINT('',(2.490532408115,-1.450960246157E-04,0.));
#40 = CARTESIAN_POINT('',(2.76354251283,3.359420154281E-02,0.));
#41 = CARTESIAN_POINT('',(2.994028560701,-5.226610280872E-02,0.));
#42 = CARTESIAN_POINT('',(3.002123788536,5.951962050687E-02,0.));
#43 = CARTESIAN_POINT('',(3.124384379467,4.281639147083E-02,0.));
#44 = CARTESIAN_POINT('',(4.479362503638,3.042289762999E-02,0.));
#45 = CARTESIAN_POINT('',(4.620743267358,3.612519460882E-02,0.));
#46 = CARTESIAN_POINT('',(4.724078707098,3.290658761043E-02,0.));
#47 = CARTESIAN_POINT('',(4.747582466593,-1.872571260734E-02,0.));
#48 = CARTESIAN_POINT('',(4.832016777672,2.069855060242E-02,0.));
#49 = CARTESIAN_POINT('',(4.910544105545,-1.38029258284E-02,0.));
#50 = CARTESIAN_POINT('',(4.964420436038,-4.683095203755E-02,0.));
#51 = CARTESIAN_POINT('',(4.984072989915,-1.230681186308E-02,0.));
#52 = CARTESIAN_POINT('',(5.035581421477,-2.334393495437E-02,0.));
#53 = CARTESIAN_POINT('',(5.084649417659,1.613960421344E-02,0.));
#54 = CARTESIAN_POINT('',(5.190649605893,4.083138388527E-02,0.));
#55 = CARTESIAN_POINT('',(5.336546843562,2.152991250601E-02,0.));
#56 = CARTESIAN_POINT('',(5.607939372601,-5.571391784449E-02,0.));
#57 = CARTESIAN_POINT('',(5.67385810322,-1.461736613438E-02,0.));
#58 = CARTESIAN_POINT('',(6.034761839225,2.669866566792E-02,0.));
#59 = CARTESIAN_POINT('',(6.2,5.890167940548E-03,0.));
#60 = PCURVE('',#61,#66);
#61 = PLANE('',#62);
#62 = AXIS2_PLACEMENT_3D('',#63,#64,#65);
#63 = CARTESIAN_POINT('',(3.12557661439,1.E-01,0.));
#64 = DIRECTION('',(0.,0.,1.));
#65 = DIRECTION('',(1.,0.,-0.));
#66 = DEFINITIONAL_REPRESENTATION('',(#67),#100);
#67 = B_SPLINE_CURVE_WITH_KNOTS('',1,(#68,#69,#70,#71,#72,#73,#74,#75,
    #76,#77,#78,#79,#80,#81,#82,#83,#84,#85,#86,#87,#88,#89,#90,#91,#92,
    #93,#94,#95,#96,#97,#98,#99),.UNSPECIFIED.,.F.,.F.,(2,1,1,1,1,1,1,1,
    1,1,1,1,1,1,1,1,1,1,1,1,1,1,1,1,1,1,1,1,1,1,1,2),(0.,
    7.064588551577E-02,0.13547588352,0.177320749936,0.248212952833,
    0.282451084977,0.295937255559,0.297224193063,0.314542817384,
    0.376129623831,0.380484519459,0.39317977145,0.435372126767,
    0.473096875121,0.490287269825,0.509213577022,0.717046407667,
    0.738748768608,0.754605861029,0.763307045814,0.777599580083,
    0.790755188128,0.800447805396,0.806540877913,0.814620484902,
    0.824280413102,0.840973801796,0.863546236199,0.906825133993,
    0.9187395773,0.974455897152,1.),.UNSPECIFIED.);
#68 = CARTESIAN_POINT('',(-3.12557661439,-7.936853710731E-02));
#69 = CARTESIAN_POINT('',(-2.668561785898,-0.136718869886));
#70 = CARTESIAN_POINT('',(-2.254785632378,-5.041605320209E-02));
#71 = CARTESIAN_POINT('',(-1.982011656892,-4.532767562927E-02));
#72 = CARTESIAN_POINT('',(-1.534186083109,-0.159721053684));
#73 = CARTESIAN_POINT('',(-1.311490157326,-0.144334854788));
#74 = CARTESIAN_POINT('',(-1.223577296212,-0.145941700416));
#75 = CARTESIAN_POINT('',(-1.221854735423,-0.154153593713));
#76 = CARTESIAN_POINT('',(-1.127194361901,-9.259795712974E-02));
#77 = CARTESIAN_POINT('',(-0.72607049752,-7.442026656162E-02));
#78 = CARTESIAN_POINT('',(-0.704808249929,-5.560299940215E-02));
#79 = CARTESIAN_POINT('',(-0.635044206275,-0.100145096025));
#80 = CARTESIAN_POINT('',(-0.36203410156,-6.640579845719E-02));
#81 = CARTESIAN_POINT('',(-0.13154805369,-0.152266102809));
#82 = CARTESIAN_POINT('',(-0.123452825854,-4.048037949313E-02));
#83 = CARTESIAN_POINT('',(-1.192234922981E-03,-5.718360852917E-02));
#84 = CARTESIAN_POINT('',(1.353785889248,-6.957710237001E-02));
#85 = CARTESIAN_POINT('',(1.495166652968,-6.387480539118E-02));
#86 = CARTESIAN_POINT('',(1.598502092707,-6.709341238957E-02));
#87 = CARTESIAN_POINT('',(1.622005852203,-0.118725712607));
#88 = CARTESIAN_POINT('',(1.706440163282,-7.930144939758E-02));
#89 = CARTESIAN_POINT('',(1.784967491154,-0.113802925828));
#90 = CARTESIAN_POINT('',(1.838843821648,-0.146830952038));
#91 = CARTESIAN_POINT('',(1.858496375525,-0.112306811863));
#92 = CARTESIAN_POINT('',(1.910004807087,-0.123343934954));
#93 = CARTESIAN_POINT('',(1.959072803268,-8.386039578656E-02));
#94 = CARTESIAN_POINT('',(2.065072991503,-5.916861611473E-02));
#95 = CARTESIAN_POINT('',(2.210970229172,-7.847008749399E-02));
#96 = CARTESIAN_POINT('',(2.48236275821,-0.155713917844));
#97 = CARTESIAN_POINT('',(2.548281488829,-0.114617366134));
#98 = CARTESIAN_POINT('',(2.909185224834,-7.330133433208E-02));
#99 = CARTESIAN_POINT('',(3.07442338561,-9.410983205945E-02));
#100 = ( GEOMETRIC_REPRESENTATION_CONTEXT(2) 
PARAMETRIC_REPRESENTATION_CONTEXT() REPRESENTATION_CONTEXT('2D SPACE',''
  ) );
#101 = ORIENTED_EDGE('',*,*,#102,.T.);
#102 = EDGE_CURVE('',#24,#103,#105,.T.);
#103 = VERTEX_POINT('',#104);
#104 = CARTESIAN_POINT('',(6.2,0.194109832059,0.));
#105 = SURFACE_CURVE('',#106,(#110),.PCURVE_S1.);
#106 = LINE('',#107,#108);
#107 = CARTESIAN_POINT('',(6.2,5.890167940548E-03,0.));
#108 = VECTOR('',#109,1.);
#109 = DIRECTION('',(0.,1.,0.));
#110 = PCURVE('',#61,#111);
#111 = DEFINITIONAL_REPRESENTATION('',(#112),#116);
#112 = LINE('',#113,#114);
#113 = CARTESIAN_POINT('',(3.07442338561,-9.410983205945E-02));
#114 = VECTOR('',#115,1.);
#115 = DIRECTION('',(0.,1.));
#116 = ( GEOMETRIC_REPRESENTATION_CONTEXT(2) 
PARAMETRIC_REPRESENTATION_CONTEXT() REPRESENTATION_CONTEXT('2D SPACE',''
  ) );
#117 = ORIENTED_EDGE('',*,*,#118,.T.);
#118 = EDGE_CURVE('',#103,#119,#121,.T.);
#119 = VERTEX_POINT('',#120);
#120 = CARTESIAN_POINT('',(0.,0.179368537107,0.));
#121 = SURFACE_CURVE('',#122,(#155),.PCURVE_S1.);
#122 = B_SPLINE_CURVE_WITH_KNOTS('',1,(#123,#124,#125,#126,#127,#128,
    #129,#130,#131,#132,#133,#134,#135,#136,#137,#138,#139,#140,#141,
    #142,#143,#144,#145,#146,#147,#148,#149,#150,#151,#152,#153,#154),
  .UNSPECIFIED.,.F.,.F.,(2,1,1,1,1,1,1,1,1,1,1,1,1,1,1,1,1,1,1,1,1,1,1,1
    ,1,1,1,1,1,1,1,2),(0.,2.554410284789E-02,8.126042269987E-02,
    9.317486600701E-02,0.136453763801,0.159026198204,0.175719586898,
    0.185379515098,0.193459122087,0.199552194604,0.209244811872,
    0.222400419917,0.236692954186,0.245394138971,0.261251231392,
    0.282953592333,0.490786422978,0.509712730175,0.526903124879,
    0.564627873233,0.60682022855,0.619515480541,0.623870376169,
    0.685457182616,0.702775806937,0.704062744441,0.717548915023,
    0.751787047167,0.822679250064,0.86452411648,0.929354114484,1.),
  .UNSPECIFIED.);
#123 = CARTESIAN_POINT('',(6.2,0.194109832059,0.));
#124 = CARTESIAN_POINT('',(6.034761839225,0.173301334332,0.));
#125 = CARTESIAN_POINT('',(5.67385810322,0.214617366134,0.));
#126 = CARTESIAN_POINT('',(5.607939372601,0.255713917844,0.));
#127 = CARTESIAN_POINT('',(5.336546843562,0.178470087494,0.));
#128 = CARTESIAN_POINT('',(5.190649605893,0.159168616115,0.));
#129 = CARTESIAN_POINT('',(5.084649417659,0.183860395787,0.));
#130 = CARTESIAN_POINT('',(5.035581421477,0.223343934954,0.));
#131 = CARTESIAN_POINT('',(4.984072989915,0.212306811863,0.));
#132 = CARTESIAN_POINT('',(4.964420436038,0.246830952038,0.));
#133 = CARTESIAN_POINT('',(4.910544105545,0.213802925828,0.));
#134 = CARTESIAN_POINT('',(4.832016777672,0.179301449398,0.));
#135 = CARTESIAN_POINT('',(4.747582466593,0.218725712607,0.));
#136 = CARTESIAN_POINT('',(4.724078707098,0.16709341239,0.));
#137 = CARTESIAN_POINT('',(4.620743267358,0.163874805391,0.));
#138 = CARTESIAN_POINT('',(4.479362503638,0.16957710237,0.));
#139 = CARTESIAN_POINT('',(3.124384379467,0.157183608529,0.));
#140 = CARTESIAN_POINT('',(3.002123788536,0.140480379493,0.));
#141 = CARTESIAN_POINT('',(2.994028560701,0.252266102809,0.));
#142 = CARTESIAN_POINT('',(2.76354251283,0.166405798457,0.));
#143 = CARTESIAN_POINT('',(2.490532408115,0.200145096025,0.));
#144 = CARTESIAN_POINT('',(2.420768364461,0.155602999402,0.));
#145 = CARTESIAN_POINT('',(2.39950611687,0.174420266562,0.));
#146 = CARTESIAN_POINT('',(1.998382252489,0.19259795713,0.));
#147 = CARTESIAN_POINT('',(1.903721878968,0.254153593713,0.));
#148 = CARTESIAN_POINT('',(1.901999318179,0.245941700416,0.));
#149 = CARTESIAN_POINT('',(1.814086457065,0.244334854788,0.));
#150 = CARTESIAN_POINT('',(1.591390531281,0.259721053684,0.));
#151 = CARTESIAN_POINT('',(1.143564957498,0.145327675629,0.));
#152 = CARTESIAN_POINT('',(0.870790982012,0.150416053202,0.));
#153 = CARTESIAN_POINT('',(0.457014828492,0.236718869886,0.));
#154 = CARTESIAN_POINT('',(0.,0.179368537107,0.));
#155 = PCURVE('',#61,#156);
#156 = DEFINITIONAL_REPRESENTATION('',(#157),#190);
#157 = B_SPLINE_CURVE_WITH_KNOTS('',1,(#158,#159,#160,#161,#162,#163,
    #164,#165,#166,#167,#168,#169,#170,#171,#172,#173,#174,#175,#176,
    #177,#178,#179,#180,#181,#182,#183,#184,#185,#186,#187,#188,#189),
  .UNSPECIFIED.,.F.,.F.,(2,1,1,1,1,1,1,1,1,1,1,1,1,1,1,1,1,1,1,1,1,1,1,1
    ,1,1,1,1,1,1,1,2),(0.,2.554410284789E-02,8.126042269987E-02,
    9.317486600701E-02,0.136453763801,0.159026198204,0.175719586898,
    0.185379515098,0.193459122087,0.199552194604,0.209244811872,
    0.222400419917,0.236692954186,0.245394138971,0.261251231392,
    0.282953592333,0.490786422978,0.509712730175,0.526903124879,
    0.564627873233,0.60682022855,0.619515480541,0.623870376169,
    0.685457182616,0.702775806937,0.704062744441,0.717548915023,
    0.751787047167,0.822679250064,0.86452411648,0.929354114484,1.),
  .UNSPECIFIED.);
#158 = CARTESIAN_POINT('',(3.07442338561,9.410983205945E-02));
#159 = CARTESIAN_POINT('',(2.909185224834,7.330133433208E-02));
#160 = CARTESIAN_POINT('',(2.548281488829,0.114617366134));
#161 = CARTESIAN_POINT('',(2.48236275821,0.155713917844));
#162 = CARTESIAN_POINT('',(2.210970229172,7.847008749399E-02));
#163 = CARTESIAN_POINT('',(2.065072991503,5.916861611473E-02));
#164 = CARTESIAN_POINT('',(1.959072803268,8.386039578656E-02));
#165 = CARTESIAN_POINT('',(1.910004807087,0.123343934954));
#166 = CARTESIAN_POINT('',(1.858496375525,0.112306811863));
#167 = CARTESIAN_POINT('',(1.838843821648,0.146830952038));
#168 = CARTESIAN_POINT('',(1.784967491154,0.113802925828));
#169 = CARTESIAN_POINT('',(1.706440163282,7.930144939758E-02));
#170 = CARTESIAN_POINT('',(1.622005852203,0.118725712607));
#171 = CARTESIAN_POINT('',(1.598502092707,6.709341238957E-02));
#172 = CARTESIAN_POINT('',(1.495166652968,6.387480539118E-02));
#173 = CARTESIAN_POINT('',(1.353785889248,6.957710237001E-02));
#174 = CARTESIAN_POINT('',(-1.192234922981E-03,5.718360852917E-02));
#175 = CARTESIAN_POINT('',(-0.123452825854,4.048037949313E-02));
#176 = CARTESIAN_POINT('',(-0.13154805369,0.152266102809));
#177 = CARTESIAN_POINT('',(-0.36203410156,6.640579845719E-02));
#178 = CARTESIAN_POINT('',(-0.635044206275,0.100145096025));
#179 = CARTESIAN_POINT('',(-0.704808249929,5.560299940215E-02));
#180 = CARTESIAN_POINT('',(-0.72607049752,7.442026656162E-02));
#181 = CARTESIAN_POINT('',(-1.127194361901,9.259795712974E-02));
#182 = CARTESIAN_POINT('',(-1.221854735423,0.154153593713));
#183 = CARTESIAN_POINT('',(-1.223577296212,0.145941700416));
#184 = CARTESIAN_POINT('',(-1.311490157326,0.144334854788));
#185 = CARTESIAN_POINT('',(-1.534186083109,0.159721053684));
#186 = CARTESIAN_POINT('',(-1.982011656892,4.532767562927E-02));
#187 = CARTESIAN_POINT('',(-2.254785632378,5.041605320209E-02));
#188 = CARTESIAN_POINT('',(-2.668561785898,0.136718869886));
#189 = CARTESIAN_POINT('',(-3.12557661439,7.936853710731E-02));
#190 = ( GEOMETRIC_REPRESENTATION_CONTEXT(2) 
PARAMETRIC_REPRESENTATION_CONTEXT() REPRESENTATION_CONTEXT('2D SPACE',''
  ) );
#191 = ORIENTED_EDGE('',*,*,#192,.T.);
#192 = EDGE_CURVE('',#119,#22,#193,.T.);
#193 = SURFACE_CURVE('',#194,(#198),.PCURVE_S1.);
#194 = LINE('',#195,#196);
#195 = CARTESIAN_POINT('',(0.,0.179368537107,0.));
#196 = VECTOR('',#197,1.);
#197 = DIRECTION('',(0.,-1.,0.));
#198 = PCURVE('',#61,#199);
#199 = DEFINITIONAL_REPRESENTATION('',(#200),#204);
#200 = LINE('',#201,#202);
#201 = CARTESIAN_POINT('',(-3.12557661439,7.936853710731E-02));
#202 = VECTOR('',#203,1.);
#203 = DIRECTION('',(0.,-1.));
#204 = ( GEOMETRIC_REPRESENTATION_CONTEXT(2) 
PARAMETRIC_REPRESENTATION_CONTEXT() REPRESENTATION_CONTEXT('2D SPACE',''
  ) );
#205 = ( GEOMETRIC_REPRESENTATION_CONTEXT(3) 
GLOBAL_UNCERTAINTY_ASSIGNED_CONTEXT((#209)) GLOBAL_UNIT_ASSIGNED_CONTEXT
((#206,#207,#208)) REPRESENTATION_CONTEXT('Context #1',
  '3D Context with UNIT and UNCERTAINTY') );
#206 = ( LENGTH_UNIT() NAMED_UNIT(*) SI_UNIT(.MILLI.,.METRE.) );
#207 = ( NAMED_UNIT(*) PLANE_ANGLE_UNIT() SI_UNIT($,.RADIAN.) );
#208 = ( NAMED_UNIT(*) SI_UNIT($,.STERADIAN.) SOLID_ANGLE_UNIT() );
#209 = UNCERTAINTY_MEASURE_WITH_UNIT(LENGTH_MEASURE(1.E-07),#206,
  'distance_accuracy_value','confusion accuracy');
#210 = PRODUCT_RELATED_PRODUCT_CATEGORY('part',$,(#7));
ENDSEC;
END-ISO-10303-21;
