ISO-10303-21;
HEADER;
FILE_DESCRIPTION(('Open CASCADE Model'),'2;1');
FILE_NAME('Open CASCADE Shape Model','2026-05-29T14:30:30',('Author'),(
    'Open CASCADE'),'Open CASCADE STEP processor 7.9','Open CASCADE 7.9'
  ,'Unknown');
FILE_SCHEMA(('AUTOMOTIVE_DESIGN { 1 0 10303 214 1 1 1 1 }'));
ENDSEC;
DATA;
#1 = APPLICATION_PROTOCOL_DEFINITION('international standard',
  'automotive_design',2000,#2);
#2 = APPLICATION_CONTEXT(
  'core data for automotive mechanical design processes');
#3 = SHAPE_DEFINITION_REPRESENTATION(#4,#10);
#4 = PRODUCT_DEFINITION_SHAPE('','',#5);
#5 = PRODUCT_DEFINITION('design','',#6,#9);
#6 = PRODUCT_DEFINITION_FORMATION('','',#7);
#7 = PRODUCT('Open CASCADE STEP translator 7.9 2',
  'Open CASCADE STEP translator 7.9 2','',(#8));
#8 = PRODUCT_CONTEXT('',#2,'mechanical');
#9 = PRODUCT_DEFINITION_CONTEXT('part definition',#2,'design');
#10 = MANIFOLD_SURFACE_SHAPE_REPRESENTATION('',(#11,#15),#121);
#11 = AXIS2_PLACEMENT_3D('',#12,#13,#14);
#12 = CARTESIAN_POINT('',(0.,0.,0.));
#13 = DIRECTION('',(0.,0.,1.));
#14 = DIRECTION('',(1.,0.,-0.));
#15 = SHELL_BASED_SURFACE_MODEL('',(#16));
#16 = OPEN_SHELL('',(#17));
#17 = ADVANCED_FACE('',(#18),#40,.T.);
#18 = FACE_BOUND('',#19,.T.);
#19 = EDGE_LOOP('',(#20,#59,#75,#107));
#20 = ORIENTED_EDGE('',*,*,#21,.T.);
#21 = EDGE_CURVE('',#22,#24,#26,.T.);
#22 = VERTEX_POINT('',#23);
#23 = CARTESIAN_POINT('',(0.,-42.07587591907,0.));
#24 = VERTEX_POINT('',#25);
#25 = CARTESIAN_POINT('',(1.5E+03,-29.9410376452,0.));
#26 = SURFACE_CURVE('',#27,(#39),.PCURVE_S1.);
#27 = B_SPLINE_CURVE_WITH_KNOTS('',1,(#28,#29,#30,#31,#32,#33,#34,#35,
    #36,#37,#38),.UNSPECIFIED.,.F.,.F.,(2,1,1,1,1,1,1,1,1,1,2),(0.,
    6.038918002368E-02,0.311313574619,0.485358027297,0.588622732938,
    0.660608139769,0.739667484828,0.772126386204,0.821363979395,
    0.927919421024,1.),.UNSPECIFIED.);
#28 = CARTESIAN_POINT('',(0.,-42.07587591907,0.));
#29 = CARTESIAN_POINT('',(73.656281194824,15.675717767566,0.));
#30 = CARTESIAN_POINT('',(462.54459253666,11.658626456862,0.));
#31 = CARTESIAN_POINT('',(732.14954257943,2.739976985177,0.));
#32 = CARTESIAN_POINT('',(890.20252519382,27.947577682414,0.));
#33 = CARTESIAN_POINT('',(1.001644290946E+03,33.307064519808,0.));
#34 = CARTESIAN_POINT('',(1.12016103192E+03,2.186556639666,0.));
#35 = CARTESIAN_POINT('',(1.165211377233E+03,24.57815858542,0.));
#36 = CARTESIAN_POINT('',(1.230286980845E+03,-15.28325952142,0.));
#37 = CARTESIAN_POINT('',(1.394104978014E+03,5.65632730149,0.));
#38 = CARTESIAN_POINT('',(1.5E+03,-29.9410376452,0.));
#39 = PCURVE('',#40,#45);
#40 = PLANE('',#41);
#41 = AXIS2_PLACEMENT_3D('',#42,#43,#44);
#42 = CARTESIAN_POINT('',(744.32605154536,75.,0.));
#43 = DIRECTION('',(0.,0.,1.));
#44 = DIRECTION('',(1.,0.,-0.));
#45 = DEFINITIONAL_REPRESENTATION('',(#46),#58);
#46 = B_SPLINE_CURVE_WITH_KNOTS('',1,(#47,#48,#49,#50,#51,#52,#53,#54,
    #55,#56,#57),.UNSPECIFIED.,.F.,.F.,(2,1,1,1,1,1,1,1,1,1,2),(0.,
    6.038918002368E-02,0.311313574619,0.485358027297,0.588622732938,
    0.660608139769,0.739667484828,0.772126386204,0.821363979395,
    0.927919421024,1.),.UNSPECIFIED.);
#47 = CARTESIAN_POINT('',(-744.3260515453,-117.075875919));
#48 = CARTESIAN_POINT('',(-670.6697703505,-59.32428223243));
#49 = CARTESIAN_POINT('',(-281.7814590086,-63.34137354313));
#50 = CARTESIAN_POINT('',(-12.17650896593,-72.26002301482));
#51 = CARTESIAN_POINT('',(145.87647364845,-47.05242231758));
#52 = CARTESIAN_POINT('',(257.31823940033,-41.69293548019));
#53 = CARTESIAN_POINT('',(375.83498037492,-72.81344336033));
#54 = CARTESIAN_POINT('',(420.88532568762,-50.42184141458));
#55 = CARTESIAN_POINT('',(485.96092929921,-90.28325952142));
#56 = CARTESIAN_POINT('',(649.77892646836,-69.34367269851));
#57 = CARTESIAN_POINT('',(755.67394845463,-104.9410376452));
#58 = ( GEOMETRIC_REPRESENTATION_CONTEXT(2) 
PARAMETRIC_REPRESENTATION_CONTEXT() REPRESENTATION_CONTEXT('2D SPACE',''
  ) );
#59 = ORIENTED_EDGE('',*,*,#60,.T.);
#60 = EDGE_CURVE('',#24,#61,#63,.T.);
#61 = VERTEX_POINT('',#62);
#62 = CARTESIAN_POINT('',(1.5E+03,179.9410376452,0.));
#63 = SURFACE_CURVE('',#64,(#68),.PCURVE_S1.);
#64 = LINE('',#65,#66);
#65 = CARTESIAN_POINT('',(1.5E+03,-29.9410376452,0.));
#66 = VECTOR('',#67,1.);
#67 = DIRECTION('',(0.,1.,0.));
#68 = PCURVE('',#40,#69);
#69 = DEFINITIONAL_REPRESENTATION('',(#70),#74);
#70 = LINE('',#71,#72);
#71 = CARTESIAN_POINT('',(755.67394845463,-104.9410376452));
#72 = VECTOR('',#73,1.);
#73 = DIRECTION('',(0.,1.));
#74 = ( GEOMETRIC_REPRESENTATION_CONTEXT(2) 
PARAMETRIC_REPRESENTATION_CONTEXT() REPRESENTATION_CONTEXT('2D SPACE',''
  ) );
#75 = ORIENTED_EDGE('',*,*,#76,.T.);
#76 = EDGE_CURVE('',#61,#77,#79,.T.);
#77 = VERTEX_POINT('',#78);
#78 = CARTESIAN_POINT('',(0.,192.07587591907,0.));
#79 = SURFACE_CURVE('',#80,(#92),.PCURVE_S1.);
#80 = B_SPLINE_CURVE_WITH_KNOTS('',1,(#81,#82,#83,#84,#85,#86,#87,#88,
    #89,#90,#91),.UNSPECIFIED.,.F.,.F.,(2,1,1,1,1,1,1,1,1,1,2),(0.,
    7.208057897606E-02,0.178636020605,0.227873613796,0.260332515172,
    0.339391860231,0.411377267062,0.514641972703,0.688686425381,
    0.939610819976,1.),.UNSPECIFIED.);
#81 = CARTESIAN_POINT('',(1.5E+03,179.9410376452,0.));
#82 = CARTESIAN_POINT('',(1.394104978014E+03,144.34367269851,0.));
#83 = CARTESIAN_POINT('',(1.230286980845E+03,165.28325952142,0.));
#84 = CARTESIAN_POINT('',(1.165211377233E+03,125.42184141458,0.));
#85 = CARTESIAN_POINT('',(1.12016103192E+03,147.81344336033,0.));
#86 = CARTESIAN_POINT('',(1.001644290946E+03,116.69293548019,0.));
#87 = CARTESIAN_POINT('',(890.20252519382,122.05242231758,0.));
#88 = CARTESIAN_POINT('',(732.14954257943,147.26002301482,0.));
#89 = CARTESIAN_POINT('',(462.54459253666,138.34137354313,0.));
#90 = CARTESIAN_POINT('',(73.656281194824,134.32428223243,0.));
#91 = CARTESIAN_POINT('',(0.,192.07587591907,0.));
#92 = PCURVE('',#40,#93);
#93 = DEFINITIONAL_REPRESENTATION('',(#94),#106);
#94 = B_SPLINE_CURVE_WITH_KNOTS('',1,(#95,#96,#97,#98,#99,#100,#101,#102
    ,#103,#104,#105),.UNSPECIFIED.,.F.,.F.,(2,1,1,1,1,1,1,1,1,1,2),(0.,
    7.208057897606E-02,0.178636020605,0.227873613796,0.260332515172,
    0.339391860231,0.411377267062,0.514641972703,0.688686425381,
    0.939610819976,1.),.UNSPECIFIED.);
#95 = CARTESIAN_POINT('',(755.67394845463,104.9410376452));
#96 = CARTESIAN_POINT('',(649.77892646836,69.34367269851));
#97 = CARTESIAN_POINT('',(485.96092929921,90.283259521426));
#98 = CARTESIAN_POINT('',(420.88532568762,50.42184141458));
#99 = CARTESIAN_POINT('',(375.83498037492,72.813443360334));
#100 = CARTESIAN_POINT('',(257.31823940033,41.692935480192));
#101 = CARTESIAN_POINT('',(145.87647364845,47.052422317586));
#102 = CARTESIAN_POINT('',(-12.17650896593,72.260023014823));
#103 = CARTESIAN_POINT('',(-281.7814590086,63.341373543138));
#104 = CARTESIAN_POINT('',(-670.6697703505,59.324282232434));
#105 = CARTESIAN_POINT('',(-744.3260515453,117.07587591907));
#106 = ( GEOMETRIC_REPRESENTATION_CONTEXT(2) 
PARAMETRIC_REPRESENTATION_CONTEXT() REPRESENTATION_CONTEXT('2D SPACE',''
  ) );
#107 = ORIENTED_EDGE('',*,*,#108,.T.);
#108 = EDGE_CURVE('',#77,#22,#109,.T.);
#109 = SURFACE_CURVE('',#110,(#114),.PCURVE_S1.);
#110 = LINE('',#111,#112);
#111 = CARTESIAN_POINT('',(0.,192.07587591907,0.));
#112 = VECTOR('',#113,1.);
#113 = DIRECTION('',(0.,-1.,0.));
#114 = PCURVE('',#40,#115);
#115 = DEFINITIONAL_REPRESENTATION('',(#116),#120);
#116 = LINE('',#117,#118);
#117 = CARTESIAN_POINT('',(-744.3260515453,117.07587591907));
#118 = VECTOR('',#119,1.);
#119 = DIRECTION('',(0.,-1.));
#120 = ( GEOMETRIC_REPRESENTATION_CONTEXT(2) 
PARAMETRIC_REPRESENTATION_CONTEXT() REPRESENTATION_CONTEXT('2D SPACE',''
  ) );
#121 = ( GEOMETRIC_REPRESENTATION_CONTEXT(3) 
GLOBAL_UNCERTAINTY_ASSIGNED_CONTEXT((#125)) GLOBAL_UNIT_ASSIGNED_CONTEXT
((#122,#123,#124)) REPRESENTATION_CONTEXT('Context #1',
  '3D Context with UNIT and UNCERTAINTY') );
#122 = ( LENGTH_UNIT() NAMED_UNIT(*) SI_UNIT(.MILLI.,.METRE.) );
#123 = ( NAMED_UNIT(*) PLANE_ANGLE_UNIT() SI_UNIT($,.RADIAN.) );
#124 = ( NAMED_UNIT(*) SI_UNIT($,.STERADIAN.) SOLID_ANGLE_UNIT() );
#125 = UNCERTAINTY_MEASURE_WITH_UNIT(LENGTH_MEASURE(1.E-07),#122,
  'distance_accuracy_value','confusion accuracy');
#126 = PRODUCT_RELATED_PRODUCT_CATEGORY('part',$,(#7));
ENDSEC;
END-ISO-10303-21;
