ISO-10303-21;
HEADER;
FILE_DESCRIPTION(('Open CASCADE Model'),'2;1');
FILE_NAME('Open CASCADE Shape Model','2026-05-29T14:30:30',('Author'),(
    'Open CASCADE'),'Open CASCADE STEP processor 7.9','Open CASCADE 7.9'
  ,'Unknown');
FILE_SCHEMA(('AUTOMOTIVE_DESIGN { 1 0 10303 214 1 1 1 1 }'));
ENDSEC;
DATA;
#1 = APPLICATION_PROTOCOL_DEFINITION('international standard',
  'automotive_design',2000,#2);
#2 = APPLICATION_CONTEXT(
  'core data for automotive mechanical design processes');
#3 = SHAPE_DEFINITION_REPRESENTATION(#4,#10);
#4 = PRODUCT_DEFINITION_SHAPE('','',#5);
#5 = PRODUCT_DEFINITION('design','',#6,#9);
#6 = PRODUCT_DEFINITION_FORMATION('','',#7);
#7 = PRODUCT('Open CASCADE STEP translator 7.9 85',
  'Open CASCADE STEP translator 7.9 85','',(#8));
#8 = PRODUCT_CONTEXT('',#2,'mechanical');
#9 = PRODUCT_DEFINITION_CONTEXT('part definition',#2,'design');
#10 = MANIFOLD_SURFACE_SHAPE_REPRESENTATION('',(#11,#15),#121);
#11 = AXIS2_PLACEMENT_3D('',#12,#13,#14);
#12 = CARTESIAN_POINT('',(0.,0.,0.));
#13 = DIRECTION('',(0.,0.,1.));
#14 = DIRECTION('',(1.,0.,-0.));
#15 = SHELL_BASED_SURFACE_MODEL('',(#16));
#16 = OPEN_SHELL('',(#17));
#17 = ADVANCED_FACE('',(#18),#40,.T.);
#18 = FACE_BOUND('',#19,.T.);
#19 = EDGE_LOOP('',(#20,#59,#75,#107));
#20 = ORIENTED_EDGE('',*,*,#21,.T.);
#21 = EDGE_CURVE('',#22,#24,#26,.T.);
#22 = VERTEX_POINT('',#23);
#23 = CARTESIAN_POINT('',(0.,-11.11917326784,0.));
#24 = VERTEX_POINT('',#25);
#25 = CARTESIAN_POINT('',(1.5E+03,5.313363138177,0.));
#26 = SURFACE_CURVE('',#27,(#39),.PCURVE_S1.);
#27 = B_SPLINE_CURVE_WITH_KNOTS('',1,(#28,#29,#30,#31,#32,#33,#34,#35,
    #36,#37,#38),.UNSPECIFIED.,.F.,.F.,(2,1,1,1,1,1,1,1,1,1,2),(0.,
    0.107773073273,0.155919910044,0.387833547651,0.50895255636,
    0.635477215896,0.744970795942,0.790525710644,0.855416783135,
    0.925520117085,1.),.UNSPECIFIED.);
#28 = CARTESIAN_POINT('',(0.,-11.11917326784,0.));
#29 = CARTESIAN_POINT('',(160.42881000494,32.842818700423,0.));
#30 = CARTESIAN_POINT('',(215.1659108769,-17.4186422628,0.));
#31 = CARTESIAN_POINT('',(573.11084686467,-15.72753207422,0.));
#32 = CARTESIAN_POINT('',(760.05160406711,-16.43293099951,0.));
#33 = CARTESIAN_POINT('',(947.50037365807,38.333650253516,0.));
#34 = CARTESIAN_POINT('',(1.113135590546E+03,4.784504182726,0.));
#35 = CARTESIAN_POINT('',(1.183365316425E+03,8.186838115884,0.));
#36 = CARTESIAN_POINT('',(1.279228877834E+03,37.195966472112,0.));
#37 = CARTESIAN_POINT('',(1.386739399524E+03,24.986886489287,0.));
#38 = CARTESIAN_POINT('',(1.5E+03,5.313363138177,0.));
#39 = PCURVE('',#40,#45);
#40 = PLANE('',#41);
#41 = AXIS2_PLACEMENT_3D('',#42,#43,#44);
#42 = CARTESIAN_POINT('',(737.13632991941,75.,0.));
#43 = DIRECTION('',(0.,0.,1.));
#44 = DIRECTION('',(1.,0.,-0.));
#45 = DEFINITIONAL_REPRESENTATION('',(#46),#58);
#46 = B_SPLINE_CURVE_WITH_KNOTS('',1,(#47,#48,#49,#50,#51,#52,#53,#54,
    #55,#56,#57),.UNSPECIFIED.,.F.,.F.,(2,1,1,1,1,1,1,1,1,1,2),(0.,
    0.107773073273,0.155919910044,0.387833547651,0.50895255636,
    0.635477215896,0.744970795942,0.790525710644,0.855416783135,
    0.925520117085,1.),.UNSPECIFIED.);
#47 = CARTESIAN_POINT('',(-737.1363299194,-86.11917326784));
#48 = CARTESIAN_POINT('',(-576.7075199144,-42.15718129957));
#49 = CARTESIAN_POINT('',(-521.9704190425,-92.4186422628));
#50 = CARTESIAN_POINT('',(-164.0254830547,-90.72753207422));
#51 = CARTESIAN_POINT('',(22.915274147696,-91.43293099952));
#52 = CARTESIAN_POINT('',(210.36404373866,-36.66634974648));
#53 = CARTESIAN_POINT('',(375.99926062669,-70.21549581727));
#54 = CARTESIAN_POINT('',(446.22898650566,-66.81316188411));
#55 = CARTESIAN_POINT('',(542.09254791425,-37.80403352788));
#56 = CARTESIAN_POINT('',(649.60306960448,-50.01311351071));
#57 = CARTESIAN_POINT('',(762.86367008058,-69.68663686182));
#58 = ( GEOMETRIC_REPRESENTATION_CONTEXT(2) 
PARAMETRIC_REPRESENTATION_CONTEXT() REPRESENTATION_CONTEXT('2D SPACE',''
  ) );
#59 = ORIENTED_EDGE('',*,*,#60,.T.);
#60 = EDGE_CURVE('',#24,#61,#63,.T.);
#61 = VERTEX_POINT('',#62);
#62 = CARTESIAN_POINT('',(1.5E+03,144.68663686182,0.));
#63 = SURFACE_CURVE('',#64,(#68),.PCURVE_S1.);
#64 = LINE('',#65,#66);
#65 = CARTESIAN_POINT('',(1.5E+03,5.313363138177,0.));
#66 = VECTOR('',#67,1.);
#67 = DIRECTION('',(0.,1.,0.));
#68 = PCURVE('',#40,#69);
#69 = DEFINITIONAL_REPRESENTATION('',(#70),#74);
#70 = LINE('',#71,#72);
#71 = CARTESIAN_POINT('',(762.86367008058,-69.68663686182));
#72 = VECTOR('',#73,1.);
#73 = DIRECTION('',(0.,1.));
#74 = ( GEOMETRIC_REPRESENTATION_CONTEXT(2) 
PARAMETRIC_REPRESENTATION_CONTEXT() REPRESENTATION_CONTEXT('2D SPACE',''
  ) );
#75 = ORIENTED_EDGE('',*,*,#76,.T.);
#76 = EDGE_CURVE('',#61,#77,#79,.T.);
#77 = VERTEX_POINT('',#78);
#78 = CARTESIAN_POINT('',(0.,161.11917326784,0.));
#79 = SURFACE_CURVE('',#80,(#92),.PCURVE_S1.);
#80 = B_SPLINE_CURVE_WITH_KNOTS('',1,(#81,#82,#83,#84,#85,#86,#87,#88,
    #89,#90,#91),.UNSPECIFIED.,.F.,.F.,(2,1,1,1,1,1,1,1,1,1,2),(0.,
    7.447988291457E-02,0.144583216865,0.209474289356,0.255029204058,
    0.364522784104,0.49104744364,0.612166452349,0.844080089956,
    0.892226926727,1.),.UNSPECIFIED.);
#81 = CARTESIAN_POINT('',(1.5E+03,144.68663686182,0.));
#82 = CARTESIAN_POINT('',(1.386739399524E+03,125.01311351071,0.));
#83 = CARTESIAN_POINT('',(1.279228877834E+03,112.80403352788,0.));
#84 = CARTESIAN_POINT('',(1.183365316425E+03,141.81316188411,0.));
#85 = CARTESIAN_POINT('',(1.113135590546E+03,145.21549581727,0.));
#86 = CARTESIAN_POINT('',(947.50037365807,111.66634974648,0.));
#87 = CARTESIAN_POINT('',(760.05160406711,166.43293099951,0.));
#88 = CARTESIAN_POINT('',(573.11084686467,165.72753207422,0.));
#89 = CARTESIAN_POINT('',(215.1659108769,167.4186422628,0.));
#90 = CARTESIAN_POINT('',(160.42881000494,117.15718129957,0.));
#91 = CARTESIAN_POINT('',(0.,161.11917326784,0.));
#92 = PCURVE('',#40,#93);
#93 = DEFINITIONAL_REPRESENTATION('',(#94),#106);
#94 = B_SPLINE_CURVE_WITH_KNOTS('',1,(#95,#96,#97,#98,#99,#100,#101,#102
    ,#103,#104,#105),.UNSPECIFIED.,.F.,.F.,(2,1,1,1,1,1,1,1,1,1,2),(0.,
    7.447988291457E-02,0.144583216865,0.209474289356,0.255029204058,
    0.364522784104,0.49104744364,0.612166452349,0.844080089956,
    0.892226926727,1.),.UNSPECIFIED.);
#95 = CARTESIAN_POINT('',(762.86367008058,69.686636861823));
#96 = CARTESIAN_POINT('',(649.60306960448,50.013113510713));
#97 = CARTESIAN_POINT('',(542.09254791425,37.804033527888));
#98 = CARTESIAN_POINT('',(446.22898650566,66.813161884116));
#99 = CARTESIAN_POINT('',(375.99926062669,70.215495817274));
#100 = CARTESIAN_POINT('',(210.36404373866,36.666349746484));
#101 = CARTESIAN_POINT('',(22.915274147696,91.432930999519));
#102 = CARTESIAN_POINT('',(-164.0254830547,90.72753207422));
#103 = CARTESIAN_POINT('',(-521.9704190425,92.418642262805));
#104 = CARTESIAN_POINT('',(-576.7075199144,42.157181299577));
#105 = CARTESIAN_POINT('',(-737.1363299194,86.119173267847));
#106 = ( GEOMETRIC_REPRESENTATION_CONTEXT(2) 
PARAMETRIC_REPRESENTATION_CONTEXT() REPRESENTATION_CONTEXT('2D SPACE',''
  ) );
#107 = ORIENTED_EDGE('',*,*,#108,.T.);
#108 = EDGE_CURVE('',#77,#22,#109,.T.);
#109 = SURFACE_CURVE('',#110,(#114),.PCURVE_S1.);
#110 = LINE('',#111,#112);
#111 = CARTESIAN_POINT('',(0.,161.11917326784,0.));
#112 = VECTOR('',#113,1.);
#113 = DIRECTION('',(0.,-1.,0.));
#114 = PCURVE('',#40,#115);
#115 = DEFINITIONAL_REPRESENTATION('',(#116),#120);
#116 = LINE('',#117,#118);
#117 = CARTESIAN_POINT('',(-737.1363299194,86.119173267847));
#118 = VECTOR('',#119,1.);
#119 = DIRECTION('',(0.,-1.));
#120 = ( GEOMETRIC_REPRESENTATION_CONTEXT(2) 
PARAMETRIC_REPRESENTATION_CONTEXT() REPRESENTATION_CONTEXT('2D SPACE',''
  ) );
#121 = ( GEOMETRIC_REPRESENTATION_CONTEXT(3) 
GLOBAL_UNCERTAINTY_ASSIGNED_CONTEXT((#125)) GLOBAL_UNIT_ASSIGNED_CONTEXT
((#122,#123,#124)) REPRESENTATION_CONTEXT('Context #1',
  '3D Context with UNIT and UNCERTAINTY') );
#122 = ( LENGTH_UNIT() NAMED_UNIT(*) SI_UNIT(.MILLI.,.METRE.) );
#123 = ( NAMED_UNIT(*) PLANE_ANGLE_UNIT() SI_UNIT($,.RADIAN.) );
#124 = ( NAMED_UNIT(*) SI_UNIT($,.STERADIAN.) SOLID_ANGLE_UNIT() );
#125 = UNCERTAINTY_MEASURE_WITH_UNIT(LENGTH_MEASURE(1.E-07),#122,
  'distance_accuracy_value','confusion accuracy');
#126 = PRODUCT_RELATED_PRODUCT_CATEGORY('part',$,(#7));
ENDSEC;
END-ISO-10303-21;
