ISO-10303-21;
HEADER;
FILE_DESCRIPTION(('Open CASCADE Model'),'2;1');
FILE_NAME('Open CASCADE Shape Model','2026-05-28T17:04:49',('Author'),(
    'Open CASCADE'),'Open CASCADE STEP processor 7.9','Open CASCADE 7.9'
  ,'Unknown');
FILE_SCHEMA(('AUTOMOTIVE_DESIGN { 1 0 10303 214 1 1 1 1 }'));
ENDSEC;
DATA;
#1 = APPLICATION_PROTOCOL_DEFINITION('international standard',
  'automotive_design',2000,#2);
#2 = APPLICATION_CONTEXT(
  'core data for automotive mechanical design processes');
#3 = SHAPE_DEFINITION_REPRESENTATION(#4,#10);
#4 = PRODUCT_DEFINITION_SHAPE('','',#5);
#5 = PRODUCT_DEFINITION('design','',#6,#9);
#6 = PRODUCT_DEFINITION_FORMATION('','',#7);
#7 = PRODUCT('Open CASCADE STEP translator 7.9 99',
  'Open CASCADE STEP translator 7.9 99','',(#8));
#8 = PRODUCT_CONTEXT('',#2,'mechanical');
#9 = PRODUCT_DEFINITION_CONTEXT('part definition',#2,'design');
#10 = MANIFOLD_SURFACE_SHAPE_REPRESENTATION('',(#11,#15),#221);
#11 = AXIS2_PLACEMENT_3D('',#12,#13,#14);
#12 = CARTESIAN_POINT('',(0.,0.,0.));
#13 = DIRECTION('',(0.,0.,1.));
#14 = DIRECTION('',(1.,0.,-0.));
#15 = SHELL_BASED_SURFACE_MODEL('',(#16));
#16 = OPEN_SHELL('',(#17));
#17 = ADVANCED_FACE('',(#18),#65,.T.);
#18 = FACE_BOUND('',#19,.T.);
#19 = EDGE_LOOP('',(#20,#109,#125,#207));
#20 = ORIENTED_EDGE('',*,*,#21,.T.);
#21 = EDGE_CURVE('',#22,#24,#26,.T.);
#22 = VERTEX_POINT('',#23);
#23 = CARTESIAN_POINT('',(0.,-3.068358113091E-02,0.));
#24 = VERTEX_POINT('',#25);
#25 = CARTESIAN_POINT('',(7.,-2.438872762874E-02,0.));
#26 = SURFACE_CURVE('',#27,(#64),.PCURVE_S1.);
#27 = B_SPLINE_CURVE_WITH_KNOTS('',1,(#28,#29,#30,#31,#32,#33,#34,#35,
    #36,#37,#38,#39,#40,#41,#42,#43,#44,#45,#46,#47,#48,#49,#50,#51,#52,
    #53,#54,#55,#56,#57,#58,#59,#60,#61,#62,#63),.UNSPECIFIED.,.F.,.F.,(
    2,1,1,1,1,1,1,1,1,1,1,1,1,1,1,1,1,1,1,1,1,1,1,1,1,1,1,1,1,1,1,1,1,1,
    1,2),(0.,1.554903383328E-02,3.787298374885E-02,4.94956771603E-02,
    5.248035539306E-02,6.242809305147E-02,8.070908272964E-02,
    0.151317730261,0.160704243447,0.224243324766,0.243992927701,
    0.267450921431,0.291022890897,0.314038359464,0.320438514376,
    0.357182526736,0.378342984027,0.395006031055,0.438611500271,
    0.463525548435,0.467541578222,0.506077149523,0.542763892677,
    0.553056824006,0.625735859438,0.646075361627,0.659073220126,
    0.675463900333,0.677160704463,0.703664147091,0.779624044273,
    0.805414526486,0.821818187963,0.969829839238,0.995456330528,1.),
  .UNSPECIFIED.);
#28 = CARTESIAN_POINT('',(0.,-3.068358113091E-02,0.));
#29 = CARTESIAN_POINT('',(0.101043619453,1.860578018159E-02,0.));
#30 = CARTESIAN_POINT('',(0.260924215951,4.076730237803E-02,0.));
#31 = CARTESIAN_POINT('',(0.319064575673,-1.99097640723E-02,0.));
#32 = CARTESIAN_POINT('',(0.327634592708,-1.042475432123E-04,0.));
#33 = CARTESIAN_POINT('',(0.399412418524,-4.707666918681E-03,0.));
#34 = CARTESIAN_POINT('',(0.526986363948,-3.928711946826E-02,0.));
#35 = CARTESIAN_POINT('',(1.034099937787,1.961475889351E-02,0.));
#36 = CARTESIAN_POINT('',(1.08916889959,-2.005137114668E-02,0.));
#37 = CARTESIAN_POINT('',(1.547155357609,1.605702396448E-02,0.));
#38 = CARTESIAN_POINT('',(1.68457432896,5.487313241035E-02,0.));
#39 = CARTESIAN_POINT('',(1.849341642647,1.463818711964E-02,0.));
#40 = CARTESIAN_POINT('',(2.005340269758,-5.40041355845E-02,0.));
#41 = CARTESIAN_POINT('',(2.162039284407,2.00850214939E-03,0.));
#42 = CARTESIAN_POINT('',(2.17281161321,4.701234757958E-02,0.));
#43 = CARTESIAN_POINT('',(2.429216715125,-2.253921952515E-02,0.));
#44 = CARTESIAN_POINT('',(2.578597578155,-5.560552196622E-02,0.));
#45 = CARTESIAN_POINT('',(2.698892900506,-4.895342958531E-02,0.));
#46 = CARTESIAN_POINT('',(3.011585684422,-8.635300536977E-03,0.));
#47 = CARTESIAN_POINT('',(3.190185115596,1.484631067818E-02,0.));
#48 = CARTESIAN_POINT('',(3.205727071163,-9.681320221109E-03,0.));
#49 = CARTESIAN_POINT('',(3.482917601216,-3.791172746391E-02,0.));
#50 = CARTESIAN_POINT('',(3.748118647412,-4.334848104221E-02,0.));
#51 = CARTESIAN_POINT('',(3.822365722528,-3.826126619309E-02,0.));
#52 = CARTESIAN_POINT('',(4.346045953091,5.342834586991E-03,0.));
#53 = CARTESIAN_POINT('',(4.487450541806,4.573704125157E-02,0.));
#54 = CARTESIAN_POINT('',(4.564339382434,-8.300811208653E-03,0.));
#55 = CARTESIAN_POINT('',(4.672002829091,4.1228540636E-02,0.));
#56 = CARTESIAN_POINT('',(4.676391899807,5.268499993226E-02,0.));
#57 = CARTESIAN_POINT('',(4.860681096275,1.598599885367E-04,0.));
#58 = CARTESIAN_POINT('',(5.409573179326,-1.86448140056E-02,0.));
#59 = CARTESIAN_POINT('',(5.594514661758,-4.249767676877E-02,0.));
#60 = CARTESIAN_POINT('',(5.712809210789,-3.394026647452E-02,0.));
#61 = CARTESIAN_POINT('',(6.782943064638,-4.286886153079E-02,0.));
#62 = CARTESIAN_POINT('',(6.967863430812,-3.120825249851E-02,0.));
#63 = CARTESIAN_POINT('',(7.,-2.438872762874E-02,0.));
#64 = PCURVE('',#65,#70);
#65 = PLANE('',#66);
#66 = AXIS2_PLACEMENT_3D('',#67,#68,#69);
#67 = CARTESIAN_POINT('',(3.458591761455,0.1,0.));
#68 = DIRECTION('',(0.,0.,1.));
#69 = DIRECTION('',(1.,0.,-0.));
#70 = DEFINITIONAL_REPRESENTATION('',(#71),#108);
#71 = B_SPLINE_CURVE_WITH_KNOTS('',1,(#72,#73,#74,#75,#76,#77,#78,#79,
    #80,#81,#82,#83,#84,#85,#86,#87,#88,#89,#90,#91,#92,#93,#94,#95,#96,
    #97,#98,#99,#100,#101,#102,#103,#104,#105,#106,#107),.UNSPECIFIED.,
  .F.,.F.,(2,1,1,1,1,1,1,1,1,1,1,1,1,1,1,1,1,1,1,1,1,1,1,1,1,1,1,1,1,1,1
    ,1,1,1,1,2),(0.,1.554903383328E-02,3.787298374885E-02,
    4.94956771603E-02,5.248035539306E-02,6.242809305147E-02,
    8.070908272964E-02,0.151317730261,0.160704243447,0.224243324766,
    0.243992927701,0.267450921431,0.291022890897,0.314038359464,
    0.320438514376,0.357182526736,0.378342984027,0.395006031055,
    0.438611500271,0.463525548435,0.467541578222,0.506077149523,
    0.542763892677,0.553056824006,0.625735859438,0.646075361627,
    0.659073220126,0.675463900333,0.677160704463,0.703664147091,
    0.779624044273,0.805414526486,0.821818187963,0.969829839238,
    0.995456330528,1.),.UNSPECIFIED.);
#72 = CARTESIAN_POINT('',(-3.458591761455,-0.130683581131));
#73 = CARTESIAN_POINT('',(-3.357548142002,-8.139421981841E-02));
#74 = CARTESIAN_POINT('',(-3.197667545504,-5.923269762197E-02));
#75 = CARTESIAN_POINT('',(-3.139527185783,-0.119909764072));
#76 = CARTESIAN_POINT('',(-3.130957168747,-0.100104247543));
#77 = CARTESIAN_POINT('',(-3.059179342932,-0.104707666919));
#78 = CARTESIAN_POINT('',(-2.931605397507,-0.139287119468));
#79 = CARTESIAN_POINT('',(-2.424491823668,-8.038524110649E-02));
#80 = CARTESIAN_POINT('',(-2.369422861866,-0.120051371147));
#81 = CARTESIAN_POINT('',(-1.911436403846,-8.394297603552E-02));
#82 = CARTESIAN_POINT('',(-1.774017432495,-4.512686758965E-02));
#83 = CARTESIAN_POINT('',(-1.609250118808,-8.536181288036E-02));
#84 = CARTESIAN_POINT('',(-1.453251491697,-0.154004135584));
#85 = CARTESIAN_POINT('',(-1.296552477049,-9.799149785061E-02));
#86 = CARTESIAN_POINT('',(-1.285780148245,-5.298765242042E-02));
#87 = CARTESIAN_POINT('',(-1.02937504633,-0.122539219525));
#88 = CARTESIAN_POINT('',(-0.879994183301,-0.155605521966));
#89 = CARTESIAN_POINT('',(-0.759698860949,-0.148953429585));
#90 = CARTESIAN_POINT('',(-0.447006077033,-0.108635300537));
#91 = CARTESIAN_POINT('',(-0.268406645859,-8.515368932182E-02));
#92 = CARTESIAN_POINT('',(-0.252864690292,-0.109681320221));
#93 = CARTESIAN_POINT('',(2.432583976058E-02,-0.137911727464));
#94 = CARTESIAN_POINT('',(0.289526885957,-0.143348481042));
#95 = CARTESIAN_POINT('',(0.363773961073,-0.138261266193));
#96 = CARTESIAN_POINT('',(0.887454191636,-9.465716541301E-02));
#97 = CARTESIAN_POINT('',(1.028858780351,-5.426295874843E-02));
#98 = CARTESIAN_POINT('',(1.105747620979,-0.108300811209));
#99 = CARTESIAN_POINT('',(1.213411067636,-5.8771459364E-02));
#100 = CARTESIAN_POINT('',(1.217800138352,-4.731500006774E-02));
#101 = CARTESIAN_POINT('',(1.40208933482,-9.984014001146E-02));
#102 = CARTESIAN_POINT('',(1.950981417871,-0.118644814006));
#103 = CARTESIAN_POINT('',(2.135922900303,-0.142497676769));
#104 = CARTESIAN_POINT('',(2.254217449334,-0.133940266475));
#105 = CARTESIAN_POINT('',(3.324351303183,-0.142868861531));
#106 = CARTESIAN_POINT('',(3.509271669356,-0.131208252499));
#107 = CARTESIAN_POINT('',(3.541408238545,-0.124388727629));
#108 = ( GEOMETRIC_REPRESENTATION_CONTEXT(2) 
PARAMETRIC_REPRESENTATION_CONTEXT() REPRESENTATION_CONTEXT('2D SPACE',''
  ) );
#109 = ORIENTED_EDGE('',*,*,#110,.T.);
#110 = EDGE_CURVE('',#24,#111,#113,.T.);
#111 = VERTEX_POINT('',#112);
#112 = CARTESIAN_POINT('',(7.,0.224388727629,0.));
#113 = SURFACE_CURVE('',#114,(#118),.PCURVE_S1.);
#114 = LINE('',#115,#116);
#115 = CARTESIAN_POINT('',(7.,-2.438872762874E-02,0.));
#116 = VECTOR('',#117,1.);
#117 = DIRECTION('',(0.,1.,0.));
#118 = PCURVE('',#65,#119);
#119 = DEFINITIONAL_REPRESENTATION('',(#120),#124);
#120 = LINE('',#121,#122);
#121 = CARTESIAN_POINT('',(3.541408238545,-0.124388727629));
#122 = VECTOR('',#123,1.);
#123 = DIRECTION('',(0.,1.));
#124 = ( GEOMETRIC_REPRESENTATION_CONTEXT(2) 
PARAMETRIC_REPRESENTATION_CONTEXT() REPRESENTATION_CONTEXT('2D SPACE',''
  ) );
#125 = ORIENTED_EDGE('',*,*,#126,.T.);
#126 = EDGE_CURVE('',#111,#127,#129,.T.);
#127 = VERTEX_POINT('',#128);
#128 = CARTESIAN_POINT('',(0.,0.230683581131,0.));
#129 = SURFACE_CURVE('',#130,(#167),.PCURVE_S1.);
#130 = B_SPLINE_CURVE_WITH_KNOTS('',1,(#131,#132,#133,#134,#135,#136,
    #137,#138,#139,#140,#141,#142,#143,#144,#145,#146,#147,#148,#149,
    #150,#151,#152,#153,#154,#155,#156,#157,#158,#159,#160,#161,#162,
    #163,#164,#165,#166),.UNSPECIFIED.,.F.,.F.,(2,1,1,1,1,1,1,1,1,1,1,1,
    1,1,1,1,1,1,1,1,1,1,1,1,1,1,1,1,1,1,1,1,1,1,1,2),(0.,
    4.543669472116E-03,3.01701607617E-02,0.178181812037,0.194585473514,
    0.220375955727,0.296335852909,0.322839295537,0.324536099667,
    0.340926779874,0.353924638373,0.374264140562,0.446943175994,
    0.457236107323,0.493922850477,0.532458421778,0.536474451565,
    0.561388499729,0.604993968945,0.621657015973,0.642817473264,
    0.679561485624,0.685961640536,0.708977109103,0.732549078569,
    0.756007072299,0.775756675234,0.839295756553,0.848682269739,
    0.91929091727,0.937571906949,0.947519644607,0.95050432284,
    0.962127016251,0.984450966167,1.),.UNSPECIFIED.);
#131 = CARTESIAN_POINT('',(7.,0.224388727629,0.));
#132 = CARTESIAN_POINT('',(6.967863430812,0.231208252499,0.));
#133 = CARTESIAN_POINT('',(6.782943064638,0.242868861531,0.));
#134 = CARTESIAN_POINT('',(5.712809210789,0.233940266475,0.));
#135 = CARTESIAN_POINT('',(5.594514661758,0.242497676769,0.));
#136 = CARTESIAN_POINT('',(5.409573179326,0.218644814006,0.));
#137 = CARTESIAN_POINT('',(4.860681096275,0.199840140011,0.));
#138 = CARTESIAN_POINT('',(4.676391899807,0.147315000068,0.));
#139 = CARTESIAN_POINT('',(4.672002829091,0.158771459364,0.));
#140 = CARTESIAN_POINT('',(4.564339382434,0.208300811209,0.));
#141 = CARTESIAN_POINT('',(4.487450541806,0.154262958748,0.));
#142 = CARTESIAN_POINT('',(4.346045953091,0.194657165413,0.));
#143 = CARTESIAN_POINT('',(3.822365722528,0.238261266193,0.));
#144 = CARTESIAN_POINT('',(3.748118647412,0.243348481042,0.));
#145 = CARTESIAN_POINT('',(3.482917601216,0.237911727464,0.));
#146 = CARTESIAN_POINT('',(3.205727071163,0.209681320221,0.));
#147 = CARTESIAN_POINT('',(3.190185115596,0.185153689322,0.));
#148 = CARTESIAN_POINT('',(3.011585684422,0.208635300537,0.));
#149 = CARTESIAN_POINT('',(2.698892900506,0.248953429585,0.));
#150 = CARTESIAN_POINT('',(2.578597578155,0.255605521966,0.));
#151 = CARTESIAN_POINT('',(2.429216715125,0.222539219525,0.));
#152 = CARTESIAN_POINT('',(2.17281161321,0.15298765242,0.));
#153 = CARTESIAN_POINT('',(2.162039284407,0.197991497851,0.));
#154 = CARTESIAN_POINT('',(2.005340269758,0.254004135584,0.));
#155 = CARTESIAN_POINT('',(1.849341642647,0.18536181288,0.));
#156 = CARTESIAN_POINT('',(1.68457432896,0.14512686759,0.));
#157 = CARTESIAN_POINT('',(1.547155357609,0.183942976036,0.));
#158 = CARTESIAN_POINT('',(1.08916889959,0.220051371147,0.));
#159 = CARTESIAN_POINT('',(1.034099937787,0.180385241106,0.));
#160 = CARTESIAN_POINT('',(0.526986363948,0.239287119468,0.));
#161 = CARTESIAN_POINT('',(0.399412418524,0.204707666919,0.));
#162 = CARTESIAN_POINT('',(0.327634592708,0.200104247543,0.));
#163 = CARTESIAN_POINT('',(0.319064575673,0.219909764072,0.));
#164 = CARTESIAN_POINT('',(0.260924215951,0.159232697622,0.));
#165 = CARTESIAN_POINT('',(0.101043619453,0.181394219818,0.));
#166 = CARTESIAN_POINT('',(0.,0.230683581131,0.));
#167 = PCURVE('',#65,#168);
#168 = DEFINITIONAL_REPRESENTATION('',(#169),#206);
#169 = B_SPLINE_CURVE_WITH_KNOTS('',1,(#170,#171,#172,#173,#174,#175,
    #176,#177,#178,#179,#180,#181,#182,#183,#184,#185,#186,#187,#188,
    #189,#190,#191,#192,#193,#194,#195,#196,#197,#198,#199,#200,#201,
    #202,#203,#204,#205),.UNSPECIFIED.,.F.,.F.,(2,1,1,1,1,1,1,1,1,1,1,1,
    1,1,1,1,1,1,1,1,1,1,1,1,1,1,1,1,1,1,1,1,1,1,1,2),(0.,
    4.543669472116E-03,3.01701607617E-02,0.178181812037,0.194585473514,
    0.220375955727,0.296335852909,0.322839295537,0.324536099667,
    0.340926779874,0.353924638373,0.374264140562,0.446943175994,
    0.457236107323,0.493922850477,0.532458421778,0.536474451565,
    0.561388499729,0.604993968945,0.621657015973,0.642817473264,
    0.679561485624,0.685961640536,0.708977109103,0.732549078569,
    0.756007072299,0.775756675234,0.839295756553,0.848682269739,
    0.91929091727,0.937571906949,0.947519644607,0.95050432284,
    0.962127016251,0.984450966167,1.),.UNSPECIFIED.);
#170 = CARTESIAN_POINT('',(3.541408238545,0.124388727629));
#171 = CARTESIAN_POINT('',(3.509271669356,0.131208252499));
#172 = CARTESIAN_POINT('',(3.324351303183,0.142868861531));
#173 = CARTESIAN_POINT('',(2.254217449334,0.133940266475));
#174 = CARTESIAN_POINT('',(2.135922900303,0.142497676769));
#175 = CARTESIAN_POINT('',(1.950981417871,0.118644814006));
#176 = CARTESIAN_POINT('',(1.40208933482,9.984014001146E-02));
#177 = CARTESIAN_POINT('',(1.217800138352,4.731500006774E-02));
#178 = CARTESIAN_POINT('',(1.213411067636,5.8771459364E-02));
#179 = CARTESIAN_POINT('',(1.105747620979,0.108300811209));
#180 = CARTESIAN_POINT('',(1.028858780351,5.426295874843E-02));
#181 = CARTESIAN_POINT('',(0.887454191636,9.465716541301E-02));
#182 = CARTESIAN_POINT('',(0.363773961073,0.138261266193));
#183 = CARTESIAN_POINT('',(0.289526885957,0.143348481042));
#184 = CARTESIAN_POINT('',(2.432583976058E-02,0.137911727464));
#185 = CARTESIAN_POINT('',(-0.252864690292,0.109681320221));
#186 = CARTESIAN_POINT('',(-0.268406645859,8.515368932182E-02));
#187 = CARTESIAN_POINT('',(-0.447006077033,0.108635300537));
#188 = CARTESIAN_POINT('',(-0.759698860949,0.148953429585));
#189 = CARTESIAN_POINT('',(-0.879994183301,0.155605521966));
#190 = CARTESIAN_POINT('',(-1.02937504633,0.122539219525));
#191 = CARTESIAN_POINT('',(-1.285780148245,5.298765242042E-02));
#192 = CARTESIAN_POINT('',(-1.296552477049,9.799149785061E-02));
#193 = CARTESIAN_POINT('',(-1.453251491697,0.154004135584));
#194 = CARTESIAN_POINT('',(-1.609250118808,8.536181288036E-02));
#195 = CARTESIAN_POINT('',(-1.774017432495,4.512686758965E-02));
#196 = CARTESIAN_POINT('',(-1.911436403846,8.394297603552E-02));
#197 = CARTESIAN_POINT('',(-2.369422861866,0.120051371147));
#198 = CARTESIAN_POINT('',(-2.424491823668,8.038524110649E-02));
#199 = CARTESIAN_POINT('',(-2.931605397507,0.139287119468));
#200 = CARTESIAN_POINT('',(-3.059179342932,0.104707666919));
#201 = CARTESIAN_POINT('',(-3.130957168747,0.100104247543));
#202 = CARTESIAN_POINT('',(-3.139527185783,0.119909764072));
#203 = CARTESIAN_POINT('',(-3.197667545504,5.923269762197E-02));
#204 = CARTESIAN_POINT('',(-3.357548142002,8.139421981841E-02));
#205 = CARTESIAN_POINT('',(-3.458591761455,0.130683581131));
#206 = ( GEOMETRIC_REPRESENTATION_CONTEXT(2) 
PARAMETRIC_REPRESENTATION_CONTEXT() REPRESENTATION_CONTEXT('2D SPACE',''
  ) );
#207 = ORIENTED_EDGE('',*,*,#208,.T.);
#208 = EDGE_CURVE('',#127,#22,#209,.T.);
#209 = SURFACE_CURVE('',#210,(#214),.PCURVE_S1.);
#210 = LINE('',#211,#212);
#211 = CARTESIAN_POINT('',(0.,0.230683581131,0.));
#212 = VECTOR('',#213,1.);
#213 = DIRECTION('',(0.,-1.,0.));
#214 = PCURVE('',#65,#215);
#215 = DEFINITIONAL_REPRESENTATION('',(#216),#220);
#216 = LINE('',#217,#218);
#217 = CARTESIAN_POINT('',(-3.458591761455,0.130683581131));
#218 = VECTOR('',#219,1.);
#219 = DIRECTION('',(0.,-1.));
#220 = ( GEOMETRIC_REPRESENTATION_CONTEXT(2) 
PARAMETRIC_REPRESENTATION_CONTEXT() REPRESENTATION_CONTEXT('2D SPACE',''
  ) );
#221 = ( GEOMETRIC_REPRESENTATION_CONTEXT(3) 
GLOBAL_UNCERTAINTY_ASSIGNED_CONTEXT((#225)) GLOBAL_UNIT_ASSIGNED_CONTEXT
((#222,#223,#224)) REPRESENTATION_CONTEXT('Context #1',
  '3D Context with UNIT and UNCERTAINTY') );
#222 = ( LENGTH_UNIT() NAMED_UNIT(*) SI_UNIT(.MILLI.,.METRE.) );
#223 = ( NAMED_UNIT(*) PLANE_ANGLE_UNIT() SI_UNIT($,.RADIAN.) );
#224 = ( NAMED_UNIT(*) SI_UNIT($,.STERADIAN.) SOLID_ANGLE_UNIT() );
#225 = UNCERTAINTY_MEASURE_WITH_UNIT(LENGTH_MEASURE(1.E-07),#222,
  'distance_accuracy_value','confusion accuracy');
#226 = PRODUCT_RELATED_PRODUCT_CATEGORY('part',$,(#7));
ENDSEC;
END-ISO-10303-21;
