ISO-10303-21;
HEADER;
FILE_DESCRIPTION(('Open CASCADE Model'),'2;1');
FILE_NAME('Open CASCADE Shape Model','2026-05-28T17:04:48',('Author'),(
    'Open CASCADE'),'Open CASCADE STEP processor 7.9','Open CASCADE 7.9'
  ,'Unknown');
FILE_SCHEMA(('AUTOMOTIVE_DESIGN { 1 0 10303 214 1 1 1 1 }'));
ENDSEC;
DATA;
#1 = APPLICATION_PROTOCOL_DEFINITION('international standard',
  'automotive_design',2000,#2);
#2 = APPLICATION_CONTEXT(
  'core data for automotive mechanical design processes');
#3 = SHAPE_DEFINITION_REPRESENTATION(#4,#10);
#4 = PRODUCT_DEFINITION_SHAPE('','',#5);
#5 = PRODUCT_DEFINITION('design','',#6,#9);
#6 = PRODUCT_DEFINITION_FORMATION('','',#7);
#7 = PRODUCT('Open CASCADE STEP translator 7.9 23',
  'Open CASCADE STEP translator 7.9 23','',(#8));
#8 = PRODUCT_CONTEXT('',#2,'mechanical');
#9 = PRODUCT_DEFINITION_CONTEXT('part definition',#2,'design');
#10 = MANIFOLD_SURFACE_SHAPE_REPRESENTATION('',(#11,#15),#277);
#11 = AXIS2_PLACEMENT_3D('',#12,#13,#14);
#12 = CARTESIAN_POINT('',(0.,0.,0.));
#13 = DIRECTION('',(0.,0.,1.));
#14 = DIRECTION('',(1.,0.,-0.));
#15 = SHELL_BASED_SURFACE_MODEL('',(#16));
#16 = OPEN_SHELL('',(#17));
#17 = ADVANCED_FACE('',(#18),#79,.T.);
#18 = FACE_BOUND('',#19,.T.);
#19 = EDGE_LOOP('',(#20,#137,#153,#263));
#20 = ORIENTED_EDGE('',*,*,#21,.T.);
#21 = EDGE_CURVE('',#22,#24,#26,.T.);
#22 = VERTEX_POINT('',#23);
#23 = CARTESIAN_POINT('',(0.,-4.537769095866E-02,0.));
#24 = VERTEX_POINT('',#25);
#25 = CARTESIAN_POINT('',(9.8,2.378821599637E-02,0.));
#26 = SURFACE_CURVE('',#27,(#78),.PCURVE_S1.);
#27 = B_SPLINE_CURVE_WITH_KNOTS('',1,(#28,#29,#30,#31,#32,#33,#34,#35,
    #36,#37,#38,#39,#40,#41,#42,#43,#44,#45,#46,#47,#48,#49,#50,#51,#52,
    #53,#54,#55,#56,#57,#58,#59,#60,#61,#62,#63,#64,#65,#66,#67,#68,#69,
    #70,#71,#72,#73,#74,#75,#76,#77),.UNSPECIFIED.,.F.,.F.,(2,1,1,1,1,1,
    1,1,1,1,1,1,1,1,1,1,1,1,1,1,1,1,1,1,1,1,1,1,1,1,1,1,1,1,1,1,1,1,1,1,
    1,1,1,1,1,1,1,1,1,2),(0.,7.247151395387E-03,1.04962784886E-02,
    3.192421475961E-02,4.383896860105E-02,5.707273293307E-02,
    9.692679009392E-02,0.159104035276,0.164664150181,0.184939502947,
    0.210273836775,0.250754250634,0.26518777991,0.312568809441,
    0.323930093954,0.338053797196,0.364585038862,0.375674932848,
    0.387089670455,0.390342644172,0.455605278094,0.462713658543,
    0.492131113814,0.495493312881,0.533121726732,0.551237935941,
    0.560406671535,0.561103722787,0.565310266809,0.578411663821,
    0.59280835255,0.596248609481,0.654029236539,0.667736029093,
    0.680202557703,0.720627454894,0.739858423883,0.75518851819,
    0.774555566437,0.785885437242,0.823737485071,0.847702078739,
    0.850991023119,0.873208811661,0.916048433084,0.922327761306,
    0.93927633602,0.959285835346,0.967141245118,1.),.UNSPECIFIED.);
#28 = CARTESIAN_POINT('',(0.,-4.537769095866E-02,0.));
#29 = CARTESIAN_POINT('',(4.526422866461E-02,1.506432762613E-02,0.));
#30 = CARTESIAN_POINT('',(5.363646657935E-02,4.786726008773E-02,0.));
#31 = CARTESIAN_POINT('',(0.26001788462,-3.731554826879E-02,0.));
#32 = CARTESIAN_POINT('',(0.37771159337,2.188373836539E-03,0.));
#33 = CARTESIAN_POINT('',(0.515244705166,-7.727121643101E-03,0.));
#34 = CARTESIAN_POINT('',(0.927469728844,-5.785731555814E-02,0.));
#35 = CARTESIAN_POINT('',(1.573765463332,-1.286537165929E-02,0.));
#36 = CARTESIAN_POINT('',(1.627413797657,9.002473720068E-03,0.));
#37 = CARTESIAN_POINT('',(1.838571069097,1.560187585834E-02,0.));
#38 = CARTESIAN_POINT('',(2.102481931089,9.885684881515E-03,0.));
#39 = CARTESIAN_POINT('',(2.522739150985,4.579211001856E-02,0.));
#40 = CARTESIAN_POINT('',(2.649349524353,-3.537006701011E-02,0.));
#41 = CARTESIAN_POINT('',(3.143012357602,-4.052602298244E-02,0.));
#42 = CARTESIAN_POINT('',(3.241017454112,2.587234385119E-02,0.));
#43 = CARTESIAN_POINT('',(3.388161896474,2.354440579081E-02,0.));
#44 = CARTESIAN_POINT('',(3.655993758069,-4.492011076018E-02,0.));
#45 = CARTESIAN_POINT('',(3.710209318085,5.712355733665E-02,0.));
#46 = CARTESIAN_POINT('',(3.813147772916,-2.454893252067E-03,0.));
#47 = CARTESIAN_POINT('',(3.846350395796,4.35891423822E-03,0.));
#48 = CARTESIAN_POINT('',(4.525815532208,-2.281521234942E-02,0.));
#49 = CARTESIAN_POINT('',(4.564422915501,4.039299598207E-02,0.));
#50 = CARTESIAN_POINT('',(4.864891327905,-2.019968889542E-02,0.));
#51 = CARTESIAN_POINT('',(4.866586692694,1.479191905501E-02,0.));
#52 = CARTESIAN_POINT('',(5.257581652772,-1.424577338036E-02,0.));
#53 = CARTESIAN_POINT('',(5.433110429122,5.518859881527E-02,0.));
#54 = CARTESIAN_POINT('',(5.514146535553,4.592736337859E-03,0.));
#55 = CARTESIAN_POINT('',(5.514189623634,-2.670107277885E-03,0.));
#56 = CARTESIAN_POINT('',(5.537763524181,3.42808316574E-02,0.));
#57 = CARTESIAN_POINT('',(5.673979742552,4.324516149851E-02,0.));
#58 = CARTESIAN_POINT('',(5.823872404155,3.738308363852E-02,0.));
#59 = CARTESIAN_POINT('',(5.854466384924,1.87030706324E-02,0.));
#60 = CARTESIAN_POINT('',(6.455783416204,4.83827820834E-02,0.));
#61 = CARTESIAN_POINT('',(6.555687058117,-5.367837548755E-02,0.));
#62 = CARTESIAN_POINT('',(6.668104295565,1.14007126205E-02,0.));
#63 = CARTESIAN_POINT('',(7.086515261025,-3.707635230081E-02,0.));
#64 = CARTESIAN_POINT('',(7.285907619979,-5.693005477306E-02,0.));
#65 = CARTESIAN_POINT('',(7.40428751624,5.031176639967E-02,0.));
#66 = CARTESIAN_POINT('',(7.594097453137,-1.82003361522E-02,0.));
#67 = CARTESIAN_POINT('',(7.709167182437,-4.456909040895E-02,0.));
#68 = CARTESIAN_POINT('',(8.102540842853,-1.610813207601E-02,0.));
#69 = CARTESIAN_POINT('',(8.351024303278,8.51686543711E-03,0.));
#70 = CARTESIAN_POINT('',(8.385292792684,8.270837083447E-03,0.));
#71 = CARTESIAN_POINT('',(8.611883473869,5.569213367912E-02,0.));
#72 = CARTESIAN_POINT('',(9.054223925345,-4.152090154713E-03,0.));
#73 = CARTESIAN_POINT('',(9.089547624325,-5.922515961442E-02,0.));
#74 = CARTESIAN_POINT('',(9.266094932015,-5.504490311663E-02,0.));
#75 = CARTESIAN_POINT('',(9.443083139777,5.515209253894E-02,0.));
#76 = CARTESIAN_POINT('',(9.461076344121,-2.469564043554E-02,0.));
#77 = CARTESIAN_POINT('',(9.8,2.378821599637E-02,0.));
#78 = PCURVE('',#79,#84);
#79 = PLANE('',#80);
#80 = AXIS2_PLACEMENT_3D('',#81,#82,#83);
#81 = CARTESIAN_POINT('',(4.893386942145,1.E-01,0.));
#82 = DIRECTION('',(0.,0.,1.));
#83 = DIRECTION('',(1.,0.,-0.));
#84 = DEFINITIONAL_REPRESENTATION('',(#85),#136);
#85 = B_SPLINE_CURVE_WITH_KNOTS('',1,(#86,#87,#88,#89,#90,#91,#92,#93,
    #94,#95,#96,#97,#98,#99,#100,#101,#102,#103,#104,#105,#106,#107,#108
    ,#109,#110,#111,#112,#113,#114,#115,#116,#117,#118,#119,#120,#121,
    #122,#123,#124,#125,#126,#127,#128,#129,#130,#131,#132,#133,#134,
    #135),.UNSPECIFIED.,.F.,.F.,(2,1,1,1,1,1,1,1,1,1,1,1,1,1,1,1,1,1,1,1
    ,1,1,1,1,1,1,1,1,1,1,1,1,1,1,1,1,1,1,1,1,1,1,1,1,1,1,1,1,1,2),(0.,
    7.247151395387E-03,1.04962784886E-02,3.192421475961E-02,
    4.383896860105E-02,5.707273293307E-02,9.692679009392E-02,
    0.159104035276,0.164664150181,0.184939502947,0.210273836775,
    0.250754250634,0.26518777991,0.312568809441,0.323930093954,
    0.338053797196,0.364585038862,0.375674932848,0.387089670455,
    0.390342644172,0.455605278094,0.462713658543,0.492131113814,
    0.495493312881,0.533121726732,0.551237935941,0.560406671535,
    0.561103722787,0.565310266809,0.578411663821,0.59280835255,
    0.596248609481,0.654029236539,0.667736029093,0.680202557703,
    0.720627454894,0.739858423883,0.75518851819,0.774555566437,
    0.785885437242,0.823737485071,0.847702078739,0.850991023119,
    0.873208811661,0.916048433084,0.922327761306,0.93927633602,
    0.959285835346,0.967141245118,1.),.UNSPECIFIED.);
#86 = CARTESIAN_POINT('',(-4.893386942145,-0.145377690959));
#87 = CARTESIAN_POINT('',(-4.848122713481,-8.493567237387E-02));
#88 = CARTESIAN_POINT('',(-4.839750475566,-5.213273991227E-02));
#89 = CARTESIAN_POINT('',(-4.633369057526,-0.137315548269));
#90 = CARTESIAN_POINT('',(-4.515675348776,-9.781162616346E-02));
#91 = CARTESIAN_POINT('',(-4.37814223698,-0.107727121643));
#92 = CARTESIAN_POINT('',(-3.965917213301,-0.157857315558));
#93 = CARTESIAN_POINT('',(-3.319621478813,-0.112865371659));
#94 = CARTESIAN_POINT('',(-3.265973144489,-9.099752627993E-02));
#95 = CARTESIAN_POINT('',(-3.054815873048,-8.439812414166E-02));
#96 = CARTESIAN_POINT('',(-2.790905011056,-9.011431511849E-02));
#97 = CARTESIAN_POINT('',(-2.370647791161,-5.420788998144E-02));
#98 = CARTESIAN_POINT('',(-2.244037417792,-0.13537006701));
#99 = CARTESIAN_POINT('',(-1.750374584544,-0.140526022982));
#100 = CARTESIAN_POINT('',(-1.652369488034,-7.412765614881E-02));
#101 = CARTESIAN_POINT('',(-1.505225045672,-7.645559420919E-02));
#102 = CARTESIAN_POINT('',(-1.237393184077,-0.14492011076));
#103 = CARTESIAN_POINT('',(-1.18317762406,-4.287644266335E-02));
#104 = CARTESIAN_POINT('',(-1.080239169229,-0.102454893252));
#105 = CARTESIAN_POINT('',(-1.047036546349,-9.564108576178E-02));
#106 = CARTESIAN_POINT('',(-0.367571409938,-0.122815212349));
#107 = CARTESIAN_POINT('',(-0.328964026644,-5.960700401793E-02));
#108 = CARTESIAN_POINT('',(-2.849561424023E-02,-0.120199688895));
#109 = CARTESIAN_POINT('',(-2.68002494519E-02,-8.520808094499E-02));
#110 = CARTESIAN_POINT('',(0.364194710627,-0.11424577338));
#111 = CARTESIAN_POINT('',(0.539723486976,-4.481140118473E-02));
#112 = CARTESIAN_POINT('',(0.620759593407,-9.540726366214E-02));
#113 = CARTESIAN_POINT('',(0.620802681488,-0.102670107278));
#114 = CARTESIAN_POINT('',(0.644376582035,-6.57191683426E-02));
#115 = CARTESIAN_POINT('',(0.780592800407,-5.675483850149E-02));
#116 = CARTESIAN_POINT('',(0.93048546201,-6.261691636148E-02));
#117 = CARTESIAN_POINT('',(0.961079442778,-8.12969293676E-02));
#118 = CARTESIAN_POINT('',(1.562396474058,-5.16172179166E-02));
#119 = CARTESIAN_POINT('',(1.662300115972,-0.153678375488));
#120 = CARTESIAN_POINT('',(1.77471735342,-8.85992873795E-02));
#121 = CARTESIAN_POINT('',(2.193128318879,-0.137076352301));
#122 = CARTESIAN_POINT('',(2.392520677834,-0.156930054773));
#123 = CARTESIAN_POINT('',(2.510900574094,-4.968823360033E-02));
#124 = CARTESIAN_POINT('',(2.700710510992,-0.118200336152));
#125 = CARTESIAN_POINT('',(2.815780240292,-0.144569090409));
#126 = CARTESIAN_POINT('',(3.209153900707,-0.116108132076));
#127 = CARTESIAN_POINT('',(3.457637361133,-9.148313456289E-02));
#128 = CARTESIAN_POINT('',(3.491905850538,-9.172916291655E-02));
#129 = CARTESIAN_POINT('',(3.718496531723,-4.430786632088E-02));
#130 = CARTESIAN_POINT('',(4.1608369832,-0.104152090155));
#131 = CARTESIAN_POINT('',(4.19616068218,-0.159225159614));
#132 = CARTESIAN_POINT('',(4.372707989869,-0.155044903117));
#133 = CARTESIAN_POINT('',(4.549696197632,-4.484790746106E-02));
#134 = CARTESIAN_POINT('',(4.567689401976,-0.124695640436));
#135 = CARTESIAN_POINT('',(4.906613057855,-7.621178400363E-02));
#136 = ( GEOMETRIC_REPRESENTATION_CONTEXT(2) 
PARAMETRIC_REPRESENTATION_CONTEXT() REPRESENTATION_CONTEXT('2D SPACE',''
  ) );
#137 = ORIENTED_EDGE('',*,*,#138,.T.);
#138 = EDGE_CURVE('',#24,#139,#141,.T.);
#139 = VERTEX_POINT('',#140);
#140 = CARTESIAN_POINT('',(9.8,0.176211784004,0.));
#141 = SURFACE_CURVE('',#142,(#146),.PCURVE_S1.);
#142 = LINE('',#143,#144);
#143 = CARTESIAN_POINT('',(9.8,2.378821599637E-02,0.));
#144 = VECTOR('',#145,1.);
#145 = DIRECTION('',(0.,1.,0.));
#146 = PCURVE('',#79,#147);
#147 = DEFINITIONAL_REPRESENTATION('',(#148),#152);
#148 = LINE('',#149,#150);
#149 = CARTESIAN_POINT('',(4.906613057855,-7.621178400363E-02));
#150 = VECTOR('',#151,1.);
#151 = DIRECTION('',(0.,1.));
#152 = ( GEOMETRIC_REPRESENTATION_CONTEXT(2) 
PARAMETRIC_REPRESENTATION_CONTEXT() REPRESENTATION_CONTEXT('2D SPACE',''
  ) );
#153 = ORIENTED_EDGE('',*,*,#154,.T.);
#154 = EDGE_CURVE('',#139,#155,#157,.T.);
#155 = VERTEX_POINT('',#156);
#156 = CARTESIAN_POINT('',(0.,0.245377690959,0.));
#157 = SURFACE_CURVE('',#158,(#209),.PCURVE_S1.);
#158 = B_SPLINE_CURVE_WITH_KNOTS('',1,(#159,#160,#161,#162,#163,#164,
    #165,#166,#167,#168,#169,#170,#171,#172,#173,#174,#175,#176,#177,
    #178,#179,#180,#181,#182,#183,#184,#185,#186,#187,#188,#189,#190,
    #191,#192,#193,#194,#195,#196,#197,#198,#199,#200,#201,#202,#203,
    #204,#205,#206,#207,#208),.UNSPECIFIED.,.F.,.F.,(2,1,1,1,1,1,1,1,1,1
    ,1,1,1,1,1,1,1,1,1,1,1,1,1,1,1,1,1,1,1,1,1,1,1,1,1,1,1,1,1,1,1,1,1,1
    ,1,1,1,1,1,2),(0.,3.285875488223E-02,4.07141646537E-02,
    6.072366397998E-02,7.767223869447E-02,8.395156691557E-02,
    0.126791188339,0.149008976881,0.152297921261,0.176262514929,
    0.214114562758,0.225444433563,0.24481148181,0.260141576117,
    0.279372545106,0.319797442297,0.332263970907,0.345970763461,
    0.403751390519,0.40719164745,0.421588336179,0.434689733191,
    0.438896277213,0.439593328465,0.448762064059,0.466878273268,
    0.504506687119,0.507868886186,0.537286341457,0.544394721906,
    0.609657355828,0.612910329545,0.624325067152,0.635414961138,
    0.661946202804,0.676069906046,0.687431190559,0.73481222009,
    0.749245749366,0.789726163225,0.815060497053,0.835335849819,
    0.840895964724,0.903073209906,0.942927267067,0.956161031399,
    0.96807578524,0.989503721511,0.992752848605,1.),.UNSPECIFIED.);
#159 = CARTESIAN_POINT('',(9.8,0.176211784004,0.));
#160 = CARTESIAN_POINT('',(9.461076344121,0.224695640436,0.));
#161 = CARTESIAN_POINT('',(9.443083139777,0.144847907461,0.));
#162 = CARTESIAN_POINT('',(9.266094932015,0.255044903117,0.));
#163 = CARTESIAN_POINT('',(9.089547624325,0.259225159614,0.));
#164 = CARTESIAN_POINT('',(9.054223925345,0.204152090155,0.));
#165 = CARTESIAN_POINT('',(8.611883473869,0.144307866321,0.));
#166 = CARTESIAN_POINT('',(8.385292792684,0.191729162917,0.));
#167 = CARTESIAN_POINT('',(8.351024303278,0.191483134563,0.));
#168 = CARTESIAN_POINT('',(8.102540842853,0.216108132076,0.));
#169 = CARTESIAN_POINT('',(7.709167182437,0.244569090409,0.));
#170 = CARTESIAN_POINT('',(7.594097453137,0.218200336152,0.));
#171 = CARTESIAN_POINT('',(7.40428751624,0.1496882336,0.));
#172 = CARTESIAN_POINT('',(7.285907619979,0.256930054773,0.));
#173 = CARTESIAN_POINT('',(7.086515261025,0.237076352301,0.));
#174 = CARTESIAN_POINT('',(6.668104295565,0.188599287379,0.));
#175 = CARTESIAN_POINT('',(6.555687058117,0.253678375488,0.));
#176 = CARTESIAN_POINT('',(6.455783416204,0.151617217917,0.));
#177 = CARTESIAN_POINT('',(5.854466384924,0.181296929368,0.));
#178 = CARTESIAN_POINT('',(5.823872404155,0.162616916361,0.));
#179 = CARTESIAN_POINT('',(5.673979742552,0.156754838501,0.));
#180 = CARTESIAN_POINT('',(5.537763524181,0.165719168343,0.));
#181 = CARTESIAN_POINT('',(5.514189623634,0.202670107278,0.));
#182 = CARTESIAN_POINT('',(5.514146535553,0.195407263662,0.));
#183 = CARTESIAN_POINT('',(5.433110429122,0.144811401185,0.));
#184 = CARTESIAN_POINT('',(5.257581652772,0.21424577338,0.));
#185 = CARTESIAN_POINT('',(4.866586692694,0.185208080945,0.));
#186 = CARTESIAN_POINT('',(4.864891327905,0.220199688895,0.));
#187 = CARTESIAN_POINT('',(4.564422915501,0.159607004018,0.));
#188 = CARTESIAN_POINT('',(4.525815532208,0.222815212349,0.));
#189 = CARTESIAN_POINT('',(3.846350395796,0.195641085762,0.));
#190 = CARTESIAN_POINT('',(3.813147772916,0.202454893252,0.));
#191 = CARTESIAN_POINT('',(3.710209318085,0.142876442663,0.));
#192 = CARTESIAN_POINT('',(3.655993758069,0.24492011076,0.));
#193 = CARTESIAN_POINT('',(3.388161896474,0.176455594209,0.));
#194 = CARTESIAN_POINT('',(3.241017454112,0.174127656149,0.));
#195 = CARTESIAN_POINT('',(3.143012357602,0.240526022982,0.));
#196 = CARTESIAN_POINT('',(2.649349524353,0.23537006701,0.));
#197 = CARTESIAN_POINT('',(2.522739150985,0.154207889981,0.));
#198 = CARTESIAN_POINT('',(2.102481931089,0.190114315118,0.));
#199 = CARTESIAN_POINT('',(1.838571069097,0.184398124142,0.));
#200 = CARTESIAN_POINT('',(1.627413797657,0.19099752628,0.));
#201 = CARTESIAN_POINT('',(1.573765463332,0.212865371659,0.));
#202 = CARTESIAN_POINT('',(0.927469728844,0.257857315558,0.));
#203 = CARTESIAN_POINT('',(0.515244705166,0.207727121643,0.));
#204 = CARTESIAN_POINT('',(0.37771159337,0.197811626163,0.));
#205 = CARTESIAN_POINT('',(0.26001788462,0.237315548269,0.));
#206 = CARTESIAN_POINT('',(5.363646657935E-02,0.152132739912,0.));
#207 = CARTESIAN_POINT('',(4.526422866461E-02,0.184935672374,0.));
#208 = CARTESIAN_POINT('',(0.,0.245377690959,0.));
#209 = PCURVE('',#79,#210);
#210 = DEFINITIONAL_REPRESENTATION('',(#211),#262);
#211 = B_SPLINE_CURVE_WITH_KNOTS('',1,(#212,#213,#214,#215,#216,#217,
    #218,#219,#220,#221,#222,#223,#224,#225,#226,#227,#228,#229,#230,
    #231,#232,#233,#234,#235,#236,#237,#238,#239,#240,#241,#242,#243,
    #244,#245,#246,#247,#248,#249,#250,#251,#252,#253,#254,#255,#256,
    #257,#258,#259,#260,#261),.UNSPECIFIED.,.F.,.F.,(2,1,1,1,1,1,1,1,1,1
    ,1,1,1,1,1,1,1,1,1,1,1,1,1,1,1,1,1,1,1,1,1,1,1,1,1,1,1,1,1,1,1,1,1,1
    ,1,1,1,1,1,2),(0.,3.285875488223E-02,4.07141646537E-02,
    6.072366397998E-02,7.767223869447E-02,8.395156691557E-02,
    0.126791188339,0.149008976881,0.152297921261,0.176262514929,
    0.214114562758,0.225444433563,0.24481148181,0.260141576117,
    0.279372545106,0.319797442297,0.332263970907,0.345970763461,
    0.403751390519,0.40719164745,0.421588336179,0.434689733191,
    0.438896277213,0.439593328465,0.448762064059,0.466878273268,
    0.504506687119,0.507868886186,0.537286341457,0.544394721906,
    0.609657355828,0.612910329545,0.624325067152,0.635414961138,
    0.661946202804,0.676069906046,0.687431190559,0.73481222009,
    0.749245749366,0.789726163225,0.815060497053,0.835335849819,
    0.840895964724,0.903073209906,0.942927267067,0.956161031399,
    0.96807578524,0.989503721511,0.992752848605,1.),.UNSPECIFIED.);
#212 = CARTESIAN_POINT('',(4.906613057855,7.621178400363E-02));
#213 = CARTESIAN_POINT('',(4.567689401976,0.124695640436));
#214 = CARTESIAN_POINT('',(4.549696197632,4.484790746106E-02));
#215 = CARTESIAN_POINT('',(4.372707989869,0.155044903117));
#216 = CARTESIAN_POINT('',(4.19616068218,0.159225159614));
#217 = CARTESIAN_POINT('',(4.1608369832,0.104152090155));
#218 = CARTESIAN_POINT('',(3.718496531723,4.430786632088E-02));
#219 = CARTESIAN_POINT('',(3.491905850538,9.172916291655E-02));
#220 = CARTESIAN_POINT('',(3.457637361133,9.148313456289E-02));
#221 = CARTESIAN_POINT('',(3.209153900707,0.116108132076));
#222 = CARTESIAN_POINT('',(2.815780240292,0.144569090409));
#223 = CARTESIAN_POINT('',(2.700710510992,0.118200336152));
#224 = CARTESIAN_POINT('',(2.510900574094,4.968823360033E-02));
#225 = CARTESIAN_POINT('',(2.392520677834,0.156930054773));
#226 = CARTESIAN_POINT('',(2.193128318879,0.137076352301));
#227 = CARTESIAN_POINT('',(1.77471735342,8.85992873795E-02));
#228 = CARTESIAN_POINT('',(1.662300115972,0.153678375488));
#229 = CARTESIAN_POINT('',(1.562396474058,5.16172179166E-02));
#230 = CARTESIAN_POINT('',(0.961079442778,8.12969293676E-02));
#231 = CARTESIAN_POINT('',(0.93048546201,6.261691636148E-02));
#232 = CARTESIAN_POINT('',(0.780592800407,5.675483850149E-02));
#233 = CARTESIAN_POINT('',(0.644376582035,6.57191683426E-02));
#234 = CARTESIAN_POINT('',(0.620802681488,0.102670107278));
#235 = CARTESIAN_POINT('',(0.620759593407,9.540726366214E-02));
#236 = CARTESIAN_POINT('',(0.539723486976,4.481140118473E-02));
#237 = CARTESIAN_POINT('',(0.364194710627,0.11424577338));
#238 = CARTESIAN_POINT('',(-2.68002494519E-02,8.520808094499E-02));
#239 = CARTESIAN_POINT('',(-2.849561424023E-02,0.120199688895));
#240 = CARTESIAN_POINT('',(-0.328964026644,5.960700401793E-02));
#241 = CARTESIAN_POINT('',(-0.367571409938,0.122815212349));
#242 = CARTESIAN_POINT('',(-1.047036546349,9.564108576178E-02));
#243 = CARTESIAN_POINT('',(-1.080239169229,0.102454893252));
#244 = CARTESIAN_POINT('',(-1.18317762406,4.287644266335E-02));
#245 = CARTESIAN_POINT('',(-1.237393184077,0.14492011076));
#246 = CARTESIAN_POINT('',(-1.505225045672,7.645559420919E-02));
#247 = CARTESIAN_POINT('',(-1.652369488034,7.412765614881E-02));
#248 = CARTESIAN_POINT('',(-1.750374584544,0.140526022982));
#249 = CARTESIAN_POINT('',(-2.244037417792,0.13537006701));
#250 = CARTESIAN_POINT('',(-2.370647791161,5.420788998144E-02));
#251 = CARTESIAN_POINT('',(-2.790905011056,9.011431511849E-02));
#252 = CARTESIAN_POINT('',(-3.054815873048,8.439812414166E-02));
#253 = CARTESIAN_POINT('',(-3.265973144489,9.099752627993E-02));
#254 = CARTESIAN_POINT('',(-3.319621478813,0.112865371659));
#255 = CARTESIAN_POINT('',(-3.965917213301,0.157857315558));
#256 = CARTESIAN_POINT('',(-4.37814223698,0.107727121643));
#257 = CARTESIAN_POINT('',(-4.515675348776,9.781162616346E-02));
#258 = CARTESIAN_POINT('',(-4.633369057526,0.137315548269));
#259 = CARTESIAN_POINT('',(-4.839750475566,5.213273991227E-02));
#260 = CARTESIAN_POINT('',(-4.848122713481,8.493567237387E-02));
#261 = CARTESIAN_POINT('',(-4.893386942145,0.145377690959));
#262 = ( GEOMETRIC_REPRESENTATION_CONTEXT(2) 
PARAMETRIC_REPRESENTATION_CONTEXT() REPRESENTATION_CONTEXT('2D SPACE',''
  ) );
#263 = ORIENTED_EDGE('',*,*,#264,.T.);
#264 = EDGE_CURVE('',#155,#22,#265,.T.);
#265 = SURFACE_CURVE('',#266,(#270),.PCURVE_S1.);
#266 = LINE('',#267,#268);
#267 = CARTESIAN_POINT('',(0.,0.245377690959,0.));
#268 = VECTOR('',#269,1.);
#269 = DIRECTION('',(0.,-1.,0.));
#270 = PCURVE('',#79,#271);
#271 = DEFINITIONAL_REPRESENTATION('',(#272),#276);
#272 = LINE('',#273,#274);
#273 = CARTESIAN_POINT('',(-4.893386942145,0.145377690959));
#274 = VECTOR('',#275,1.);
#275 = DIRECTION('',(0.,-1.));
#276 = ( GEOMETRIC_REPRESENTATION_CONTEXT(2) 
PARAMETRIC_REPRESENTATION_CONTEXT() REPRESENTATION_CONTEXT('2D SPACE',''
  ) );
#277 = ( GEOMETRIC_REPRESENTATION_CONTEXT(3) 
GLOBAL_UNCERTAINTY_ASSIGNED_CONTEXT((#281)) GLOBAL_UNIT_ASSIGNED_CONTEXT
((#278,#279,#280)) REPRESENTATION_CONTEXT('Context #1',
  '3D Context with UNIT and UNCERTAINTY') );
#278 = ( LENGTH_UNIT() NAMED_UNIT(*) SI_UNIT(.MILLI.,.METRE.) );
#279 = ( NAMED_UNIT(*) PLANE_ANGLE_UNIT() SI_UNIT($,.RADIAN.) );
#280 = ( NAMED_UNIT(*) SI_UNIT($,.STERADIAN.) SOLID_ANGLE_UNIT() );
#281 = UNCERTAINTY_MEASURE_WITH_UNIT(LENGTH_MEASURE(1.E-07),#278,
  'distance_accuracy_value','confusion accuracy');
#282 = PRODUCT_RELATED_PRODUCT_CATEGORY('part',$,(#7));
ENDSEC;
END-ISO-10303-21;
