ISO-10303-21;
HEADER;
FILE_DESCRIPTION(('Open CASCADE Model'),'2;1');
FILE_NAME('Open CASCADE Shape Model','2026-05-28T17:04:49',('Author'),(
    'Open CASCADE'),'Open CASCADE STEP processor 7.9','Open CASCADE 7.9'
  ,'Unknown');
FILE_SCHEMA(('AUTOMOTIVE_DESIGN { 1 0 10303 214 1 1 1 1 }'));
ENDSEC;
DATA;
#1 = APPLICATION_PROTOCOL_DEFINITION('international standard',
  'automotive_design',2000,#2);
#2 = APPLICATION_CONTEXT(
  'core data for automotive mechanical design processes');
#3 = SHAPE_DEFINITION_REPRESENTATION(#4,#10);
#4 = PRODUCT_DEFINITION_SHAPE('','',#5);
#5 = PRODUCT_DEFINITION('design','',#6,#9);
#6 = PRODUCT_DEFINITION_FORMATION('','',#7);
#7 = PRODUCT('Open CASCADE STEP translator 7.9 83',
  'Open CASCADE STEP translator 7.9 83','',(#8));
#8 = PRODUCT_CONTEXT('',#2,'mechanical');
#9 = PRODUCT_DEFINITION_CONTEXT('part definition',#2,'design');
#10 = MANIFOLD_SURFACE_SHAPE_REPRESENTATION('',(#11,#15),#249);
#11 = AXIS2_PLACEMENT_3D('',#12,#13,#14);
#12 = CARTESIAN_POINT('',(0.,0.,0.));
#13 = DIRECTION('',(0.,0.,1.));
#14 = DIRECTION('',(1.,0.,-0.));
#15 = SHELL_BASED_SURFACE_MODEL('',(#16));
#16 = OPEN_SHELL('',(#17));
#17 = ADVANCED_FACE('',(#18),#72,.T.);
#18 = FACE_BOUND('',#19,.T.);
#19 = EDGE_LOOP('',(#20,#123,#139,#235));
#20 = ORIENTED_EDGE('',*,*,#21,.T.);
#21 = EDGE_CURVE('',#22,#24,#26,.T.);
#22 = VERTEX_POINT('',#23);
#23 = CARTESIAN_POINT('',(0.,5.334168161708E-02,0.));
#24 = VERTEX_POINT('',#25);
#25 = CARTESIAN_POINT('',(8.4,2.465327100403E-02,0.));
#26 = SURFACE_CURVE('',#27,(#71),.PCURVE_S1.);
#27 = B_SPLINE_CURVE_WITH_KNOTS('',1,(#28,#29,#30,#31,#32,#33,#34,#35,
    #36,#37,#38,#39,#40,#41,#42,#43,#44,#45,#46,#47,#48,#49,#50,#51,#52,
    #53,#54,#55,#56,#57,#58,#59,#60,#61,#62,#63,#64,#65,#66,#67,#68,#69,
    #70),.UNSPECIFIED.,.F.,.F.,(2,1,1,1,1,1,1,1,1,1,1,1,1,1,1,1,1,1,1,1,
    1,1,1,1,1,1,1,1,1,1,1,1,1,1,1,1,1,1,1,1,1,1,2),(0.,
    7.245970066413E-03,2.441286388638E-02,4.434646181167E-02,
    0.11452685448,0.145314961042,0.155011904268,0.184470651292,
    0.19294727792,0.218947647117,0.223933219664,0.234840712051,
    0.239675479288,0.267163125621,0.306627913067,0.315187964978,
    0.387955357978,0.410783985425,0.424130968472,0.42777955419,
    0.510887781976,0.535270906408,0.540802161821,0.549572675885,
    0.581714276206,0.596330079048,0.603580400865,0.611582636355,
    0.619005842985,0.634509657547,0.644718884392,0.766277679341,
    0.817616846418,0.831895201421,0.8407313736,0.854759978794,
    0.881522215343,0.886963736536,0.897633871975,0.920321062706,
    0.978038710392,0.996205473951,1.),.UNSPECIFIED.);
#28 = CARTESIAN_POINT('',(0.,5.334168161708E-02,0.));
#29 = CARTESIAN_POINT('',(6.263402395995E-02,3.976574858021E-02,0.));
#30 = CARTESIAN_POINT('',(0.214467431963,4.06569308492E-02,0.));
#31 = CARTESIAN_POINT('',(0.389961976132,2.37538488701E-02,0.));
#32 = CARTESIAN_POINT('',(1.010400007311,4.2610301177E-02,0.));
#33 = CARTESIAN_POINT('',(1.266250996719,-5.063055849291E-02,0.));
#34 = CARTESIAN_POINT('',(1.33658907556,-1.554534061356E-03,0.));
#35 = CARTESIAN_POINT('',(1.596804482686,-1.482901772432E-02,0.));
#36 = CARTESIAN_POINT('',(1.664638328828,1.710141895223E-02,0.));
#37 = CARTESIAN_POINT('',(1.894397049578,2.685046307593E-02,0.));
#38 = CARTESIAN_POINT('',(1.929079624412,-3.812604278656E-04,0.));
#39 = CARTESIAN_POINT('',(2.022240809603,2.468124301982E-02,0.));
#40 = CARTESIAN_POINT('',(2.064591282591,1.876248891243E-02,0.));
#41 = CARTESIAN_POINT('',(2.307358474519,5.669895087497E-03,0.));
#42 = CARTESIAN_POINT('',(2.656354765564,-6.880424621227E-04,0.));
#43 = CARTESIAN_POINT('',(2.705690408965,-5.811768141382E-02,0.));
#44 = CARTESIAN_POINT('',(3.34278475667,3.320128942057E-02,0.));
#45 = CARTESIAN_POINT('',(3.542183860182,1.442860214082E-03,0.));
#46 = CARTESIAN_POINT('',(3.65302689714,4.205859126128E-02,0.));
#47 = CARTESIAN_POINT('',(3.674534644199,1.800009207504E-02,0.));
#48 = CARTESIAN_POINT('',(4.408279262801,-2.607728624477E-02,0.));
#49 = CARTESIAN_POINT('',(4.613867173454,3.906454274873E-02,0.));
#50 = CARTESIAN_POINT('',(4.616924009823,-9.762156906005E-03,0.));
#51 = CARTESIAN_POINT('',(4.69193816085,9.995877171839E-03,0.));
#52 = CARTESIAN_POINT('',(4.972824254571,5.381045467146E-02,0.));
#53 = CARTESIAN_POINT('',(5.047134761819,-5.196902897741E-02,0.));
#54 = CARTESIAN_POINT('',(5.062181479537,1.036762316485E-02,0.));
#55 = CARTESIAN_POINT('',(5.117268943214,-3.407118429014E-02,0.));
#56 = CARTESIAN_POINT('',(5.165897208777,1.004238135218E-02,0.));
#57 = CARTESIAN_POINT('',(5.287939199789,-5.248323858945E-02,0.));
#58 = CARTESIAN_POINT('',(5.334066493231,2.514355986853E-02,0.));
#59 = CARTESIAN_POINT('',(6.409118262397,1.053232203748E-02,0.));
#60 = CARTESIAN_POINT('',(6.861288566824,-3.106370883111E-02,0.));
#61 = CARTESIAN_POINT('',(6.977332546656,1.87599221663E-02,0.));
#62 = CARTESIAN_POINT('',(7.055446391256,1.627715143978E-02,0.));
#63 = CARTESIAN_POINT('',(7.153791340893,-5.937878080971E-02,0.));
#64 = CARTESIAN_POINT('',(7.384552990388,-6.673743082842E-03,0.));
#65 = CARTESIAN_POINT('',(7.42992589388,-2.272565444042E-02,0.));
#66 = CARTESIAN_POINT('',(7.524139041427,-1.721546809843E-02,0.));
#67 = CARTESIAN_POINT('',(7.723575791485,-3.935089765879E-02,0.));
#68 = CARTESIAN_POINT('',(8.234054852318,-4.341901193301E-02,0.));
#69 = CARTESIAN_POINT('',(8.390689009537,-7.590735896437E-03,0.));
#70 = CARTESIAN_POINT('',(8.4,2.465327100403E-02,0.));
#71 = PCURVE('',#72,#77);
#72 = PLANE('',#73);
#73 = AXIS2_PLACEMENT_3D('',#74,#75,#76);
#74 = CARTESIAN_POINT('',(4.24116261629,0.1,0.));
#75 = DIRECTION('',(0.,0.,1.));
#76 = DIRECTION('',(1.,0.,-0.));
#77 = DEFINITIONAL_REPRESENTATION('',(#78),#122);
#78 = B_SPLINE_CURVE_WITH_KNOTS('',1,(#79,#80,#81,#82,#83,#84,#85,#86,
    #87,#88,#89,#90,#91,#92,#93,#94,#95,#96,#97,#98,#99,#100,#101,#102,
    #103,#104,#105,#106,#107,#108,#109,#110,#111,#112,#113,#114,#115,
    #116,#117,#118,#119,#120,#121),.UNSPECIFIED.,.F.,.F.,(2,1,1,1,1,1,1,
    1,1,1,1,1,1,1,1,1,1,1,1,1,1,1,1,1,1,1,1,1,1,1,1,1,1,1,1,1,1,1,1,1,1,
    1,2),(0.,7.245970066413E-03,2.441286388638E-02,4.434646181167E-02,
    0.11452685448,0.145314961042,0.155011904268,0.184470651292,
    0.19294727792,0.218947647117,0.223933219664,0.234840712051,
    0.239675479288,0.267163125621,0.306627913067,0.315187964978,
    0.387955357978,0.410783985425,0.424130968472,0.42777955419,
    0.510887781976,0.535270906408,0.540802161821,0.549572675885,
    0.581714276206,0.596330079048,0.603580400865,0.611582636355,
    0.619005842985,0.634509657547,0.644718884392,0.766277679341,
    0.817616846418,0.831895201421,0.8407313736,0.854759978794,
    0.881522215343,0.886963736536,0.897633871975,0.920321062706,
    0.978038710392,0.996205473951,1.),.UNSPECIFIED.);
#79 = CARTESIAN_POINT('',(-4.24116261629,-4.665831838292E-02));
#80 = CARTESIAN_POINT('',(-4.178528592331,-6.023425141979E-02));
#81 = CARTESIAN_POINT('',(-4.026695184327,-5.93430691508E-02));
#82 = CARTESIAN_POINT('',(-3.851200640158,-7.62461511299E-02));
#83 = CARTESIAN_POINT('',(-3.230762608979,-5.7389698823E-02));
#84 = CARTESIAN_POINT('',(-2.974911619571,-0.150630558493));
#85 = CARTESIAN_POINT('',(-2.90457354073,-0.101554534061));
#86 = CARTESIAN_POINT('',(-2.644358133604,-0.114829017724));
#87 = CARTESIAN_POINT('',(-2.576524287462,-8.289858104777E-02));
#88 = CARTESIAN_POINT('',(-2.346765566713,-7.314953692407E-02));
#89 = CARTESIAN_POINT('',(-2.312082991878,-0.100381260428));
#90 = CARTESIAN_POINT('',(-2.218921806687,-7.531875698018E-02));
#91 = CARTESIAN_POINT('',(-2.176571333699,-8.123751108757E-02));
#92 = CARTESIAN_POINT('',(-1.933804141771,-9.43301049125E-02));
#93 = CARTESIAN_POINT('',(-1.584807850726,-0.100688042462));
#94 = CARTESIAN_POINT('',(-1.535472207325,-0.158117681414));
#95 = CARTESIAN_POINT('',(-0.89837785962,-6.679871057943E-02));
#96 = CARTESIAN_POINT('',(-0.698978756108,-9.855713978592E-02));
#97 = CARTESIAN_POINT('',(-0.58813571915,-5.794140873872E-02));
#98 = CARTESIAN_POINT('',(-0.566627972091,-8.199990792496E-02));
#99 = CARTESIAN_POINT('',(0.16711664651,-0.126077286245));
#100 = CARTESIAN_POINT('',(0.372704557164,-6.093545725127E-02));
#101 = CARTESIAN_POINT('',(0.375761393533,-0.109762156906));
#102 = CARTESIAN_POINT('',(0.45077554456,-9.000412282816E-02));
#103 = CARTESIAN_POINT('',(0.73166163828,-4.618954532854E-02));
#104 = CARTESIAN_POINT('',(0.805972145529,-0.151969028977));
#105 = CARTESIAN_POINT('',(0.821018863246,-8.963237683515E-02));
#106 = CARTESIAN_POINT('',(0.876106326924,-0.13407118429));
#107 = CARTESIAN_POINT('',(0.924734592487,-8.995761864782E-02));
#108 = CARTESIAN_POINT('',(1.046776583498,-0.152483238589));
#109 = CARTESIAN_POINT('',(1.09290387694,-7.485644013147E-02));
#110 = CARTESIAN_POINT('',(2.167955646107,-8.946767796252E-02));
#111 = CARTESIAN_POINT('',(2.620125950534,-0.131063708831));
#112 = CARTESIAN_POINT('',(2.736169930366,-8.12400778337E-02));
#113 = CARTESIAN_POINT('',(2.814283774966,-8.372284856022E-02));
#114 = CARTESIAN_POINT('',(2.912628724602,-0.15937878081));
#115 = CARTESIAN_POINT('',(3.143390374097,-0.106673743083));
#116 = CARTESIAN_POINT('',(3.18876327759,-0.12272565444));
#117 = CARTESIAN_POINT('',(3.282976425137,-0.117215468098));
#118 = CARTESIAN_POINT('',(3.482413175194,-0.139350897659));
#119 = CARTESIAN_POINT('',(3.992892236028,-0.143419011933));
#120 = CARTESIAN_POINT('',(4.149526393247,-0.107590735896));
#121 = CARTESIAN_POINT('',(4.15883738371,-7.534672899597E-02));
#122 = ( GEOMETRIC_REPRESENTATION_CONTEXT(2) 
PARAMETRIC_REPRESENTATION_CONTEXT() REPRESENTATION_CONTEXT('2D SPACE',''
  ) );
#123 = ORIENTED_EDGE('',*,*,#124,.T.);
#124 = EDGE_CURVE('',#24,#125,#127,.T.);
#125 = VERTEX_POINT('',#126);
#126 = CARTESIAN_POINT('',(8.4,0.175346728996,0.));
#127 = SURFACE_CURVE('',#128,(#132),.PCURVE_S1.);
#128 = LINE('',#129,#130);
#129 = CARTESIAN_POINT('',(8.4,2.465327100403E-02,0.));
#130 = VECTOR('',#131,1.);
#131 = DIRECTION('',(0.,1.,0.));
#132 = PCURVE('',#72,#133);
#133 = DEFINITIONAL_REPRESENTATION('',(#134),#138);
#134 = LINE('',#135,#136);
#135 = CARTESIAN_POINT('',(4.15883738371,-7.534672899597E-02));
#136 = VECTOR('',#137,1.);
#137 = DIRECTION('',(0.,1.));
#138 = ( GEOMETRIC_REPRESENTATION_CONTEXT(2) 
PARAMETRIC_REPRESENTATION_CONTEXT() REPRESENTATION_CONTEXT('2D SPACE',''
  ) );
#139 = ORIENTED_EDGE('',*,*,#140,.T.);
#140 = EDGE_CURVE('',#125,#141,#143,.T.);
#141 = VERTEX_POINT('',#142);
#142 = CARTESIAN_POINT('',(0.,0.146658318383,0.));
#143 = SURFACE_CURVE('',#144,(#188),.PCURVE_S1.);
#144 = B_SPLINE_CURVE_WITH_KNOTS('',1,(#145,#146,#147,#148,#149,#150,
    #151,#152,#153,#154,#155,#156,#157,#158,#159,#160,#161,#162,#163,
    #164,#165,#166,#167,#168,#169,#170,#171,#172,#173,#174,#175,#176,
    #177,#178,#179,#180,#181,#182,#183,#184,#185,#186,#187),
  .UNSPECIFIED.,.F.,.F.,(2,1,1,1,1,1,1,1,1,1,1,1,1,1,1,1,1,1,1,1,1,1,1,1
    ,1,1,1,1,1,1,1,1,1,1,1,1,1,1,1,1,1,1,2),(0.,3.794526049113E-03,
    2.196128960825E-02,7.967893729356E-02,0.102366128025,0.113036263464,
    0.118477784657,0.145240021206,0.1592686264,0.168104798579,
    0.182383153582,0.233722320659,0.355281115608,0.365490342453,
    0.380994157015,0.388417363645,0.396419599135,0.403669920952,
    0.418285723794,0.450427324115,0.459197838179,0.464729093592,
    0.489112218024,0.57222044581,0.575869031528,0.589216014575,
    0.612044642022,0.684812035022,0.693372086933,0.732836874379,
    0.760324520712,0.765159287949,0.776066780336,0.781052352883,
    0.80705272208,0.815529348708,0.844988095732,0.854685038958,
    0.88547314552,0.955653538188,0.975587136114,0.992754029934,1.),
  .UNSPECIFIED.);
#145 = CARTESIAN_POINT('',(8.4,0.175346728996,0.));
#146 = CARTESIAN_POINT('',(8.390689009537,0.207590735896,0.));
#147 = CARTESIAN_POINT('',(8.234054852318,0.243419011933,0.));
#148 = CARTESIAN_POINT('',(7.723575791485,0.239350897659,0.));
#149 = CARTESIAN_POINT('',(7.524139041427,0.217215468098,0.));
#150 = CARTESIAN_POINT('',(7.42992589388,0.22272565444,0.));
#151 = CARTESIAN_POINT('',(7.384552990388,0.206673743083,0.));
#152 = CARTESIAN_POINT('',(7.153791340893,0.25937878081,0.));
#153 = CARTESIAN_POINT('',(7.055446391256,0.18372284856,0.));
#154 = CARTESIAN_POINT('',(6.977332546656,0.181240077834,0.));
#155 = CARTESIAN_POINT('',(6.861288566824,0.231063708831,0.));
#156 = CARTESIAN_POINT('',(6.409118262397,0.189467677963,0.));
#157 = CARTESIAN_POINT('',(5.334066493231,0.174856440131,0.));
#158 = CARTESIAN_POINT('',(5.287939199789,0.252483238589,0.));
#159 = CARTESIAN_POINT('',(5.165897208777,0.189957618648,0.));
#160 = CARTESIAN_POINT('',(5.117268943214,0.23407118429,0.));
#161 = CARTESIAN_POINT('',(5.062181479537,0.189632376835,0.));
#162 = CARTESIAN_POINT('',(5.047134761819,0.251969028977,0.));
#163 = CARTESIAN_POINT('',(4.972824254571,0.146189545329,0.));
#164 = CARTESIAN_POINT('',(4.69193816085,0.190004122828,0.));
#165 = CARTESIAN_POINT('',(4.616924009823,0.209762156906,0.));
#166 = CARTESIAN_POINT('',(4.613867173454,0.160935457251,0.));
#167 = CARTESIAN_POINT('',(4.408279262801,0.226077286245,0.));
#168 = CARTESIAN_POINT('',(3.674534644199,0.181999907925,0.));
#169 = CARTESIAN_POINT('',(3.65302689714,0.157941408739,0.));
#170 = CARTESIAN_POINT('',(3.542183860182,0.198557139786,0.));
#171 = CARTESIAN_POINT('',(3.34278475667,0.166798710579,0.));
#172 = CARTESIAN_POINT('',(2.705690408965,0.258117681414,0.));
#173 = CARTESIAN_POINT('',(2.656354765564,0.200688042462,0.));
#174 = CARTESIAN_POINT('',(2.307358474519,0.194330104913,0.));
#175 = CARTESIAN_POINT('',(2.064591282591,0.181237511088,0.));
#176 = CARTESIAN_POINT('',(2.022240809603,0.17531875698,0.));
#177 = CARTESIAN_POINT('',(1.929079624412,0.200381260428,0.));
#178 = CARTESIAN_POINT('',(1.894397049578,0.173149536924,0.));
#179 = CARTESIAN_POINT('',(1.664638328828,0.182898581048,0.));
#180 = CARTESIAN_POINT('',(1.596804482686,0.214829017724,0.));
#181 = CARTESIAN_POINT('',(1.33658907556,0.201554534061,0.));
#182 = CARTESIAN_POINT('',(1.266250996719,0.250630558493,0.));
#183 = CARTESIAN_POINT('',(1.010400007311,0.157389698823,0.));
#184 = CARTESIAN_POINT('',(0.389961976132,0.17624615113,0.));
#185 = CARTESIAN_POINT('',(0.214467431963,0.159343069151,0.));
#186 = CARTESIAN_POINT('',(6.263402395995E-02,0.16023425142,0.));
#187 = CARTESIAN_POINT('',(0.,0.146658318383,0.));
#188 = PCURVE('',#72,#189);
#189 = DEFINITIONAL_REPRESENTATION('',(#190),#234);
#190 = B_SPLINE_CURVE_WITH_KNOTS('',1,(#191,#192,#193,#194,#195,#196,
    #197,#198,#199,#200,#201,#202,#203,#204,#205,#206,#207,#208,#209,
    #210,#211,#212,#213,#214,#215,#216,#217,#218,#219,#220,#221,#222,
    #223,#224,#225,#226,#227,#228,#229,#230,#231,#232,#233),
  .UNSPECIFIED.,.F.,.F.,(2,1,1,1,1,1,1,1,1,1,1,1,1,1,1,1,1,1,1,1,1,1,1,1
    ,1,1,1,1,1,1,1,1,1,1,1,1,1,1,1,1,1,1,2),(0.,3.794526049113E-03,
    2.196128960825E-02,7.967893729356E-02,0.102366128025,0.113036263464,
    0.118477784657,0.145240021206,0.1592686264,0.168104798579,
    0.182383153582,0.233722320659,0.355281115608,0.365490342453,
    0.380994157015,0.388417363645,0.396419599135,0.403669920952,
    0.418285723794,0.450427324115,0.459197838179,0.464729093592,
    0.489112218024,0.57222044581,0.575869031528,0.589216014575,
    0.612044642022,0.684812035022,0.693372086933,0.732836874379,
    0.760324520712,0.765159287949,0.776066780336,0.781052352883,
    0.80705272208,0.815529348708,0.844988095732,0.854685038958,
    0.88547314552,0.955653538188,0.975587136114,0.992754029934,1.),
  .UNSPECIFIED.);
#191 = CARTESIAN_POINT('',(4.15883738371,7.534672899597E-02));
#192 = CARTESIAN_POINT('',(4.149526393247,0.107590735896));
#193 = CARTESIAN_POINT('',(3.992892236028,0.143419011933));
#194 = CARTESIAN_POINT('',(3.482413175194,0.139350897659));
#195 = CARTESIAN_POINT('',(3.282976425137,0.117215468098));
#196 = CARTESIAN_POINT('',(3.18876327759,0.12272565444));
#197 = CARTESIAN_POINT('',(3.143390374097,0.106673743083));
#198 = CARTESIAN_POINT('',(2.912628724602,0.15937878081));
#199 = CARTESIAN_POINT('',(2.814283774966,8.372284856022E-02));
#200 = CARTESIAN_POINT('',(2.736169930366,8.12400778337E-02));
#201 = CARTESIAN_POINT('',(2.620125950534,0.131063708831));
#202 = CARTESIAN_POINT('',(2.167955646107,8.946767796252E-02));
#203 = CARTESIAN_POINT('',(1.09290387694,7.485644013147E-02));
#204 = CARTESIAN_POINT('',(1.046776583498,0.152483238589));
#205 = CARTESIAN_POINT('',(0.924734592487,8.995761864782E-02));
#206 = CARTESIAN_POINT('',(0.876106326924,0.13407118429));
#207 = CARTESIAN_POINT('',(0.821018863246,8.963237683515E-02));
#208 = CARTESIAN_POINT('',(0.805972145529,0.151969028977));
#209 = CARTESIAN_POINT('',(0.73166163828,4.618954532854E-02));
#210 = CARTESIAN_POINT('',(0.45077554456,9.000412282816E-02));
#211 = CARTESIAN_POINT('',(0.375761393533,0.109762156906));
#212 = CARTESIAN_POINT('',(0.372704557164,6.093545725127E-02));
#213 = CARTESIAN_POINT('',(0.16711664651,0.126077286245));
#214 = CARTESIAN_POINT('',(-0.566627972091,8.199990792496E-02));
#215 = CARTESIAN_POINT('',(-0.58813571915,5.794140873872E-02));
#216 = CARTESIAN_POINT('',(-0.698978756108,9.855713978592E-02));
#217 = CARTESIAN_POINT('',(-0.89837785962,6.679871057943E-02));
#218 = CARTESIAN_POINT('',(-1.535472207325,0.158117681414));
#219 = CARTESIAN_POINT('',(-1.584807850726,0.100688042462));
#220 = CARTESIAN_POINT('',(-1.933804141771,9.43301049125E-02));
#221 = CARTESIAN_POINT('',(-2.176571333699,8.123751108757E-02));
#222 = CARTESIAN_POINT('',(-2.218921806687,7.531875698018E-02));
#223 = CARTESIAN_POINT('',(-2.312082991878,0.100381260428));
#224 = CARTESIAN_POINT('',(-2.346765566713,7.314953692407E-02));
#225 = CARTESIAN_POINT('',(-2.576524287462,8.289858104777E-02));
#226 = CARTESIAN_POINT('',(-2.644358133604,0.114829017724));
#227 = CARTESIAN_POINT('',(-2.90457354073,0.101554534061));
#228 = CARTESIAN_POINT('',(-2.974911619571,0.150630558493));
#229 = CARTESIAN_POINT('',(-3.230762608979,5.7389698823E-02));
#230 = CARTESIAN_POINT('',(-3.851200640158,7.62461511299E-02));
#231 = CARTESIAN_POINT('',(-4.026695184327,5.93430691508E-02));
#232 = CARTESIAN_POINT('',(-4.178528592331,6.023425141979E-02));
#233 = CARTESIAN_POINT('',(-4.24116261629,4.665831838292E-02));
#234 = ( GEOMETRIC_REPRESENTATION_CONTEXT(2) 
PARAMETRIC_REPRESENTATION_CONTEXT() REPRESENTATION_CONTEXT('2D SPACE',''
  ) );
#235 = ORIENTED_EDGE('',*,*,#236,.T.);
#236 = EDGE_CURVE('',#141,#22,#237,.T.);
#237 = SURFACE_CURVE('',#238,(#242),.PCURVE_S1.);
#238 = LINE('',#239,#240);
#239 = CARTESIAN_POINT('',(0.,0.146658318383,0.));
#240 = VECTOR('',#241,1.);
#241 = DIRECTION('',(0.,-1.,0.));
#242 = PCURVE('',#72,#243);
#243 = DEFINITIONAL_REPRESENTATION('',(#244),#248);
#244 = LINE('',#245,#246);
#245 = CARTESIAN_POINT('',(-4.24116261629,4.665831838292E-02));
#246 = VECTOR('',#247,1.);
#247 = DIRECTION('',(0.,-1.));
#248 = ( GEOMETRIC_REPRESENTATION_CONTEXT(2) 
PARAMETRIC_REPRESENTATION_CONTEXT() REPRESENTATION_CONTEXT('2D SPACE',''
  ) );
#249 = ( GEOMETRIC_REPRESENTATION_CONTEXT(3) 
GLOBAL_UNCERTAINTY_ASSIGNED_CONTEXT((#253)) GLOBAL_UNIT_ASSIGNED_CONTEXT
((#250,#251,#252)) REPRESENTATION_CONTEXT('Context #1',
  '3D Context with UNIT and UNCERTAINTY') );
#250 = ( LENGTH_UNIT() NAMED_UNIT(*) SI_UNIT(.MILLI.,.METRE.) );
#251 = ( NAMED_UNIT(*) PLANE_ANGLE_UNIT() SI_UNIT($,.RADIAN.) );
#252 = ( NAMED_UNIT(*) SI_UNIT($,.STERADIAN.) SOLID_ANGLE_UNIT() );
#253 = UNCERTAINTY_MEASURE_WITH_UNIT(LENGTH_MEASURE(1.E-07),#250,
  'distance_accuracy_value','confusion accuracy');
#254 = PRODUCT_RELATED_PRODUCT_CATEGORY('part',$,(#7));
ENDSEC;
END-ISO-10303-21;
