ISO-10303-21;
HEADER;
FILE_DESCRIPTION(('Open CASCADE Model'),'2;1');
FILE_NAME('Open CASCADE Shape Model','2026-05-28T17:04:49',('Author'),(
    'Open CASCADE'),'Open CASCADE STEP processor 7.9','Open CASCADE 7.9'
  ,'Unknown');
FILE_SCHEMA(('AUTOMOTIVE_DESIGN { 1 0 10303 214 1 1 1 1 }'));
ENDSEC;
DATA;
#1 = APPLICATION_PROTOCOL_DEFINITION('international standard',
  'automotive_design',2000,#2);
#2 = APPLICATION_CONTEXT(
  'core data for automotive mechanical design processes');
#3 = SHAPE_DEFINITION_REPRESENTATION(#4,#10);
#4 = PRODUCT_DEFINITION_SHAPE('','',#5);
#5 = PRODUCT_DEFINITION('design','',#6,#9);
#6 = PRODUCT_DEFINITION_FORMATION('','',#7);
#7 = PRODUCT('Open CASCADE STEP translator 7.9 89',
  'Open CASCADE STEP translator 7.9 89','',(#8));
#8 = PRODUCT_CONTEXT('',#2,'mechanical');
#9 = PRODUCT_DEFINITION_CONTEXT('part definition',#2,'design');
#10 = MANIFOLD_SURFACE_SHAPE_REPRESENTATION('',(#11,#15),#173);
#11 = AXIS2_PLACEMENT_3D('',#12,#13,#14);
#12 = CARTESIAN_POINT('',(0.,0.,0.));
#13 = DIRECTION('',(0.,0.,1.));
#14 = DIRECTION('',(1.,0.,-0.));
#15 = SHELL_BASED_SURFACE_MODEL('',(#16));
#16 = OPEN_SHELL('',(#17));
#17 = ADVANCED_FACE('',(#18),#53,.T.);
#18 = FACE_BOUND('',#19,.T.);
#19 = EDGE_LOOP('',(#20,#85,#101,#159));
#20 = ORIENTED_EDGE('',*,*,#21,.T.);
#21 = EDGE_CURVE('',#22,#24,#26,.T.);
#22 = VERTEX_POINT('',#23);
#23 = CARTESIAN_POINT('',(0.,4.133450400753E-02,0.));
#24 = VERTEX_POINT('',#25);
#25 = CARTESIAN_POINT('',(4.6,4.725390619483E-02,0.));
#26 = SURFACE_CURVE('',#27,(#52),.PCURVE_S1.);
#27 = B_SPLINE_CURVE_WITH_KNOTS('',1,(#28,#29,#30,#31,#32,#33,#34,#35,
    #36,#37,#38,#39,#40,#41,#42,#43,#44,#45,#46,#47,#48,#49,#50,#51),
  .UNSPECIFIED.,.F.,.F.,(2,1,1,1,1,1,1,1,1,1,1,1,1,1,1,1,1,1,1,1,1,1,1,2
    ),(0.,5.756757172774E-03,8.802416255196E-02,0.140534105826,
    0.193577548995,0.333837513305,0.351136640687,0.38032810536,
    0.421578976064,0.437262413051,0.481010691462,0.586356914545,
    0.630850739806,0.642930650883,0.713508452353,0.767312740945,
    0.798887572716,0.813531614358,0.90615127542,0.918097075093,
    0.929325293248,0.945809443808,0.962375397191,1.),.UNSPECIFIED.);
#28 = CARTESIAN_POINT('',(0.,4.133450400753E-02,0.));
#29 = CARTESIAN_POINT('',(2.801528650558E-02,4.450029646771E-02,0.));
#30 = CARTESIAN_POINT('',(0.422500873968,-3.742513327049E-02,0.));
#31 = CARTESIAN_POINT('',(0.679665847332,-3.824421932436E-02,0.));
#32 = CARTESIAN_POINT('',(0.939267742353,-2.865113038575E-02,0.));
#33 = CARTESIAN_POINT('',(1.625672091684,-5.526365566856E-02,0.));
#34 = CARTESIAN_POINT('',(1.643621321235,2.753524455775E-02,0.));
#35 = CARTESIAN_POINT('',(1.77005532098,-3.919784867883E-02,0.));
#36 = CARTESIAN_POINT('',(1.963886554925,1.775513639479E-02,0.));
#37 = CARTESIAN_POINT('',(2.037404690323,-4.487835068321E-03,0.));
#38 = CARTESIAN_POINT('',(2.251377536589,6.527996435841E-03,0.));
#39 = CARTESIAN_POINT('',(2.764602534304,5.929799727917E-02,0.));
#40 = CARTESIAN_POINT('',(2.971551516934,-8.935463224699E-03,0.));
#41 = CARTESIAN_POINT('',(3.026948627767,-2.970070653167E-02,0.));
#42 = CARTESIAN_POINT('',(3.365694803952,3.905371397097E-02,0.));
#43 = CARTESIAN_POINT('',(3.613042502737,-5.179870342716E-02,0.));
#44 = CARTESIAN_POINT('',(3.759991872116,-3.64794473022E-03,0.));
#45 = CARTESIAN_POINT('',(3.81793858533,3.861047962187E-02,0.));
#46 = CARTESIAN_POINT('',(4.268055803183,-1.751370851003E-02,0.));
#47 = CARTESIAN_POINT('',(4.289371436146,3.696927497816E-02,0.));
#48 = CARTESIAN_POINT('',(4.342159003814,5.237599820456E-02,0.));
#49 = CARTESIAN_POINT('',(4.372984844085,-2.223782909031E-02,0.));
#50 = CARTESIAN_POINT('',(4.415735128984,4.671661400334E-02,0.));
#51 = CARTESIAN_POINT('',(4.6,4.725390619483E-02,0.));
#52 = PCURVE('',#53,#58);
#53 = PLANE('',#54);
#54 = AXIS2_PLACEMENT_3D('',#55,#56,#57);
#55 = CARTESIAN_POINT('',(2.348329148576,1.E-01,0.));
#56 = DIRECTION('',(0.,0.,1.));
#57 = DIRECTION('',(1.,0.,-0.));
#58 = DEFINITIONAL_REPRESENTATION('',(#59),#84);
#59 = B_SPLINE_CURVE_WITH_KNOTS('',1,(#60,#61,#62,#63,#64,#65,#66,#67,
    #68,#69,#70,#71,#72,#73,#74,#75,#76,#77,#78,#79,#80,#81,#82,#83),
  .UNSPECIFIED.,.F.,.F.,(2,1,1,1,1,1,1,1,1,1,1,1,1,1,1,1,1,1,1,1,1,1,1,2
    ),(0.,5.756757172774E-03,8.802416255196E-02,0.140534105826,
    0.193577548995,0.333837513305,0.351136640687,0.38032810536,
    0.421578976064,0.437262413051,0.481010691462,0.586356914545,
    0.630850739806,0.642930650883,0.713508452353,0.767312740945,
    0.798887572716,0.813531614358,0.90615127542,0.918097075093,
    0.929325293248,0.945809443808,0.962375397191,1.),.UNSPECIFIED.);
#60 = CARTESIAN_POINT('',(-2.348329148576,-5.866549599247E-02));
#61 = CARTESIAN_POINT('',(-2.32031386207,-5.549970353229E-02));
#62 = CARTESIAN_POINT('',(-1.925828274608,-0.13742513327));
#63 = CARTESIAN_POINT('',(-1.668663301244,-0.138244219324));
#64 = CARTESIAN_POINT('',(-1.409061406223,-0.128651130386));
#65 = CARTESIAN_POINT('',(-0.722657056892,-0.155263655669));
#66 = CARTESIAN_POINT('',(-0.704707827341,-7.246475544225E-02));
#67 = CARTESIAN_POINT('',(-0.578273827596,-0.139197848679));
#68 = CARTESIAN_POINT('',(-0.384442593651,-8.224486360521E-02));
#69 = CARTESIAN_POINT('',(-0.310924458253,-0.104487835068));
#70 = CARTESIAN_POINT('',(-9.695161198713E-02,-9.347200356416E-02));
#71 = CARTESIAN_POINT('',(0.416273385728,-4.070200272083E-02));
#72 = CARTESIAN_POINT('',(0.623222368358,-0.108935463225));
#73 = CARTESIAN_POINT('',(0.678619479191,-0.129700706532));
#74 = CARTESIAN_POINT('',(1.017365655376,-6.094628602903E-02));
#75 = CARTESIAN_POINT('',(1.264713354161,-0.151798703427));
#76 = CARTESIAN_POINT('',(1.41166272354,-0.10364794473));
#77 = CARTESIAN_POINT('',(1.469609436755,-6.138952037813E-02));
#78 = CARTESIAN_POINT('',(1.919726654607,-0.11751370851));
#79 = CARTESIAN_POINT('',(1.94104228757,-6.303072502184E-02));
#80 = CARTESIAN_POINT('',(1.993829855238,-4.762400179544E-02));
#81 = CARTESIAN_POINT('',(2.024655695509,-0.12223782909));
#82 = CARTESIAN_POINT('',(2.067405980408,-5.328338599666E-02));
#83 = CARTESIAN_POINT('',(2.251670851424,-5.274609380517E-02));
#84 = ( GEOMETRIC_REPRESENTATION_CONTEXT(2) 
PARAMETRIC_REPRESENTATION_CONTEXT() REPRESENTATION_CONTEXT('2D SPACE',''
  ) );
#85 = ORIENTED_EDGE('',*,*,#86,.T.);
#86 = EDGE_CURVE('',#24,#87,#89,.T.);
#87 = VERTEX_POINT('',#88);
#88 = CARTESIAN_POINT('',(4.6,0.152746093805,0.));
#89 = SURFACE_CURVE('',#90,(#94),.PCURVE_S1.);
#90 = LINE('',#91,#92);
#91 = CARTESIAN_POINT('',(4.6,4.725390619483E-02,0.));
#92 = VECTOR('',#93,1.);
#93 = DIRECTION('',(0.,1.,0.));
#94 = PCURVE('',#53,#95);
#95 = DEFINITIONAL_REPRESENTATION('',(#96),#100);
#96 = LINE('',#97,#98);
#97 = CARTESIAN_POINT('',(2.251670851424,-5.274609380517E-02));
#98 = VECTOR('',#99,1.);
#99 = DIRECTION('',(0.,1.));
#100 = ( GEOMETRIC_REPRESENTATION_CONTEXT(2) 
PARAMETRIC_REPRESENTATION_CONTEXT() REPRESENTATION_CONTEXT('2D SPACE',''
  ) );
#101 = ORIENTED_EDGE('',*,*,#102,.T.);
#102 = EDGE_CURVE('',#87,#103,#105,.T.);
#103 = VERTEX_POINT('',#104);
#104 = CARTESIAN_POINT('',(0.,0.158665495992,0.));
#105 = SURFACE_CURVE('',#106,(#131),.PCURVE_S1.);
#106 = B_SPLINE_CURVE_WITH_KNOTS('',1,(#107,#108,#109,#110,#111,#112,
    #113,#114,#115,#116,#117,#118,#119,#120,#121,#122,#123,#124,#125,
    #126,#127,#128,#129,#130),.UNSPECIFIED.,.F.,.F.,(2,1,1,1,1,1,1,1,1,1
    ,1,1,1,1,1,1,1,1,1,1,1,1,1,2),(0.,3.762460280901E-02,
    5.419055619247E-02,7.067470675174E-02,8.190292490719E-02,
    9.384872458014E-02,0.186468385642,0.201112427284,0.232687259055,
    0.286491547647,0.357069349117,0.369149260194,0.413643085455,
    0.518989308538,0.562737586949,0.578421023936,0.61967189464,
    0.648863359313,0.666162486695,0.806422451005,0.859465894174,
    0.911975837448,0.994243242827,1.),.UNSPECIFIED.);
#107 = CARTESIAN_POINT('',(4.6,0.152746093805,0.));
#108 = CARTESIAN_POINT('',(4.415735128984,0.153283385997,0.));
#109 = CARTESIAN_POINT('',(4.372984844085,0.22223782909,0.));
#110 = CARTESIAN_POINT('',(4.342159003814,0.147624001795,0.));
#111 = CARTESIAN_POINT('',(4.289371436146,0.163030725022,0.));
#112 = CARTESIAN_POINT('',(4.268055803183,0.21751370851,0.));
#113 = CARTESIAN_POINT('',(3.81793858533,0.161389520378,0.));
#114 = CARTESIAN_POINT('',(3.759991872116,0.20364794473,0.));
#115 = CARTESIAN_POINT('',(3.613042502737,0.251798703427,0.));
#116 = CARTESIAN_POINT('',(3.365694803952,0.160946286029,0.));
#117 = CARTESIAN_POINT('',(3.026948627767,0.229700706532,0.));
#118 = CARTESIAN_POINT('',(2.971551516934,0.208935463225,0.));
#119 = CARTESIAN_POINT('',(2.764602534304,0.140702002721,0.));
#120 = CARTESIAN_POINT('',(2.251377536589,0.193472003564,0.));
#121 = CARTESIAN_POINT('',(2.037404690323,0.204487835068,0.));
#122 = CARTESIAN_POINT('',(1.963886554925,0.182244863605,0.));
#123 = CARTESIAN_POINT('',(1.77005532098,0.239197848679,0.));
#124 = CARTESIAN_POINT('',(1.643621321235,0.172464755442,0.));
#125 = CARTESIAN_POINT('',(1.625672091684,0.255263655669,0.));
#126 = CARTESIAN_POINT('',(0.939267742353,0.228651130386,0.));
#127 = CARTESIAN_POINT('',(0.679665847332,0.238244219324,0.));
#128 = CARTESIAN_POINT('',(0.422500873968,0.23742513327,0.));
#129 = CARTESIAN_POINT('',(2.801528650558E-02,0.155499703532,0.));
#130 = CARTESIAN_POINT('',(0.,0.158665495992,0.));
#131 = PCURVE('',#53,#132);
#132 = DEFINITIONAL_REPRESENTATION('',(#133),#158);
#133 = B_SPLINE_CURVE_WITH_KNOTS('',1,(#134,#135,#136,#137,#138,#139,
    #140,#141,#142,#143,#144,#145,#146,#147,#148,#149,#150,#151,#152,
    #153,#154,#155,#156,#157),.UNSPECIFIED.,.F.,.F.,(2,1,1,1,1,1,1,1,1,1
    ,1,1,1,1,1,1,1,1,1,1,1,1,1,2),(0.,3.762460280901E-02,
    5.419055619247E-02,7.067470675174E-02,8.190292490719E-02,
    9.384872458014E-02,0.186468385642,0.201112427284,0.232687259055,
    0.286491547647,0.357069349117,0.369149260194,0.413643085455,
    0.518989308538,0.562737586949,0.578421023936,0.61967189464,
    0.648863359313,0.666162486695,0.806422451005,0.859465894174,
    0.911975837448,0.994243242827,1.),.UNSPECIFIED.);
#134 = CARTESIAN_POINT('',(2.251670851424,5.274609380517E-02));
#135 = CARTESIAN_POINT('',(2.067405980408,5.328338599666E-02));
#136 = CARTESIAN_POINT('',(2.024655695509,0.12223782909));
#137 = CARTESIAN_POINT('',(1.993829855238,4.762400179544E-02));
#138 = CARTESIAN_POINT('',(1.94104228757,6.303072502184E-02));
#139 = CARTESIAN_POINT('',(1.919726654607,0.11751370851));
#140 = CARTESIAN_POINT('',(1.469609436755,6.138952037813E-02));
#141 = CARTESIAN_POINT('',(1.41166272354,0.10364794473));
#142 = CARTESIAN_POINT('',(1.264713354161,0.151798703427));
#143 = CARTESIAN_POINT('',(1.017365655376,6.094628602903E-02));
#144 = CARTESIAN_POINT('',(0.678619479191,0.129700706532));
#145 = CARTESIAN_POINT('',(0.623222368358,0.108935463225));
#146 = CARTESIAN_POINT('',(0.416273385728,4.070200272083E-02));
#147 = CARTESIAN_POINT('',(-9.695161198713E-02,9.347200356416E-02));
#148 = CARTESIAN_POINT('',(-0.310924458253,0.104487835068));
#149 = CARTESIAN_POINT('',(-0.384442593651,8.224486360521E-02));
#150 = CARTESIAN_POINT('',(-0.578273827596,0.139197848679));
#151 = CARTESIAN_POINT('',(-0.704707827341,7.246475544225E-02));
#152 = CARTESIAN_POINT('',(-0.722657056892,0.155263655669));
#153 = CARTESIAN_POINT('',(-1.409061406223,0.128651130386));
#154 = CARTESIAN_POINT('',(-1.668663301244,0.138244219324));
#155 = CARTESIAN_POINT('',(-1.925828274608,0.13742513327));
#156 = CARTESIAN_POINT('',(-2.32031386207,5.549970353229E-02));
#157 = CARTESIAN_POINT('',(-2.348329148576,5.866549599247E-02));
#158 = ( GEOMETRIC_REPRESENTATION_CONTEXT(2) 
PARAMETRIC_REPRESENTATION_CONTEXT() REPRESENTATION_CONTEXT('2D SPACE',''
  ) );
#159 = ORIENTED_EDGE('',*,*,#160,.T.);
#160 = EDGE_CURVE('',#103,#22,#161,.T.);
#161 = SURFACE_CURVE('',#162,(#166),.PCURVE_S1.);
#162 = LINE('',#163,#164);
#163 = CARTESIAN_POINT('',(0.,0.158665495992,0.));
#164 = VECTOR('',#165,1.);
#165 = DIRECTION('',(0.,-1.,0.));
#166 = PCURVE('',#53,#167);
#167 = DEFINITIONAL_REPRESENTATION('',(#168),#172);
#168 = LINE('',#169,#170);
#169 = CARTESIAN_POINT('',(-2.348329148576,5.866549599247E-02));
#170 = VECTOR('',#171,1.);
#171 = DIRECTION('',(0.,-1.));
#172 = ( GEOMETRIC_REPRESENTATION_CONTEXT(2) 
PARAMETRIC_REPRESENTATION_CONTEXT() REPRESENTATION_CONTEXT('2D SPACE',''
  ) );
#173 = ( GEOMETRIC_REPRESENTATION_CONTEXT(3) 
GLOBAL_UNCERTAINTY_ASSIGNED_CONTEXT((#177)) GLOBAL_UNIT_ASSIGNED_CONTEXT
((#174,#175,#176)) REPRESENTATION_CONTEXT('Context #1',
  '3D Context with UNIT and UNCERTAINTY') );
#174 = ( LENGTH_UNIT() NAMED_UNIT(*) SI_UNIT(.MILLI.,.METRE.) );
#175 = ( NAMED_UNIT(*) PLANE_ANGLE_UNIT() SI_UNIT($,.RADIAN.) );
#176 = ( NAMED_UNIT(*) SI_UNIT($,.STERADIAN.) SOLID_ANGLE_UNIT() );
#177 = UNCERTAINTY_MEASURE_WITH_UNIT(LENGTH_MEASURE(1.E-07),#174,
  'distance_accuracy_value','confusion accuracy');
#178 = PRODUCT_RELATED_PRODUCT_CATEGORY('part',$,(#7));
ENDSEC;
END-ISO-10303-21;
