ISO-10303-21;
HEADER;
FILE_DESCRIPTION(('Open CASCADE Model'),'2;1');
FILE_NAME('Open CASCADE Shape Model','2026-05-28T17:04:49',('Author'),(
    'Open CASCADE'),'Open CASCADE STEP processor 7.9','Open CASCADE 7.9'
  ,'Unknown');
FILE_SCHEMA(('AUTOMOTIVE_DESIGN { 1 0 10303 214 1 1 1 1 }'));
ENDSEC;
DATA;
#1 = APPLICATION_PROTOCOL_DEFINITION('international standard',
  'automotive_design',2000,#2);
#2 = APPLICATION_CONTEXT(
  'core data for automotive mechanical design processes');
#3 = SHAPE_DEFINITION_REPRESENTATION(#4,#10);
#4 = PRODUCT_DEFINITION_SHAPE('','',#5);
#5 = PRODUCT_DEFINITION('design','',#6,#9);
#6 = PRODUCT_DEFINITION_FORMATION('','',#7);
#7 = PRODUCT('Open CASCADE STEP translator 7.9 58',
  'Open CASCADE STEP translator 7.9 58','',(#8));
#8 = PRODUCT_CONTEXT('',#2,'mechanical');
#9 = PRODUCT_DEFINITION_CONTEXT('part definition',#2,'design');
#10 = MANIFOLD_SURFACE_SHAPE_REPRESENTATION('',(#11,#15),#169);
#11 = AXIS2_PLACEMENT_3D('',#12,#13,#14);
#12 = CARTESIAN_POINT('',(0.,0.,0.));
#13 = DIRECTION('',(0.,0.,1.));
#14 = DIRECTION('',(1.,0.,-0.));
#15 = SHELL_BASED_SURFACE_MODEL('',(#16));
#16 = OPEN_SHELL('',(#17));
#17 = ADVANCED_FACE('',(#18),#52,.T.);
#18 = FACE_BOUND('',#19,.T.);
#19 = EDGE_LOOP('',(#20,#83,#99,#155));
#20 = ORIENTED_EDGE('',*,*,#21,.T.);
#21 = EDGE_CURVE('',#22,#24,#26,.T.);
#22 = VERTEX_POINT('',#23);
#23 = CARTESIAN_POINT('',(0.,-3.44144054427E-02,0.));
#24 = VERTEX_POINT('',#25);
#25 = CARTESIAN_POINT('',(4.4,-1.154872914575E-02,0.));
#26 = SURFACE_CURVE('',#27,(#51),.PCURVE_S1.);
#27 = B_SPLINE_CURVE_WITH_KNOTS('',1,(#28,#29,#30,#31,#32,#33,#34,#35,
    #36,#37,#38,#39,#40,#41,#42,#43,#44,#45,#46,#47,#48,#49,#50),
  .UNSPECIFIED.,.F.,.F.,(2,1,1,1,1,1,1,1,1,1,1,1,1,1,1,1,1,1,1,1,1,1,2),
  (0.,5.509598624585E-02,7.984096931299E-02,8.551259075326E-02,
    0.113697543848,0.125815233287,0.14942359137,0.242987018478,
    0.264040837366,0.31094807448,0.508461344776,0.513547418987,
    0.518774029871,0.528595389315,0.620513626447,0.649306971245,
    0.671047775034,0.702865863612,0.818255937163,0.839967124785,
    0.881420699843,0.910388516253,1.),.UNSPECIFIED.);
#28 = CARTESIAN_POINT('',(0.,-3.44144054427E-02,0.));
#29 = CARTESIAN_POINT('',(0.239280686334,5.312364545514E-02,0.));
#30 = CARTESIAN_POINT('',(0.302840627391,-4.203404221865E-02,0.));
#31 = CARTESIAN_POINT('',(0.3290387506,-4.329212339455E-02,0.));
#32 = CARTESIAN_POINT('',(0.443570062328,1.892771108544E-02,0.));
#33 = CARTESIAN_POINT('',(0.484748198467,-1.908048791644E-02,0.));
#34 = CARTESIAN_POINT('',(0.589499764608,1.168643619559E-02,0.));
#35 = CARTESIAN_POINT('',(1.021154026947,4.149709413724E-02,0.));
#36 = CARTESIAN_POINT('',(1.107526823698,-3.439490227573E-03,0.));
#37 = CARTESIAN_POINT('',(1.317854957208,4.963683905981E-02,0.));
#38 = CARTESIAN_POINT('',(2.226292217209,-4.541665864752E-02,0.));
#39 = CARTESIAN_POINT('',(2.249161035003,-5.091477112915E-02,0.));
#40 = CARTESIAN_POINT('',(2.269955143475,-3.859357644137E-02,0.));
#41 = CARTESIAN_POINT('',(2.303064930518,-7.503374490717E-03,0.));
#42 = CARTESIAN_POINT('',(2.728138787931,-6.911830935055E-03,0.));
#43 = CARTESIAN_POINT('',(2.851038853941,-5.815288519211E-02,0.));
#44 = CARTESIAN_POINT('',(2.898923053283,3.025179722026E-02,0.));
#45 = CARTESIAN_POINT('',(3.044611233179,5.088619609138E-02,0.));
#46 = CARTESIAN_POINT('',(3.575034183821,-7.432910832141E-03,0.));
#47 = CARTESIAN_POINT('',(3.671460109465,2.054572826279E-02,0.));
#48 = CARTESIAN_POINT('',(3.863159876368,2.131934726303E-02,0.));
#49 = CARTESIAN_POINT('',(3.991668442681,5.914975749961E-02,0.));
#50 = CARTESIAN_POINT('',(4.4,-1.154872914575E-02,0.));
#51 = PCURVE('',#52,#57);
#52 = PLANE('',#53);
#53 = AXIS2_PLACEMENT_3D('',#54,#55,#56);
#54 = CARTESIAN_POINT('',(2.160911868496,0.1,0.));
#55 = DIRECTION('',(0.,0.,1.));
#56 = DIRECTION('',(1.,0.,-0.));
#57 = DEFINITIONAL_REPRESENTATION('',(#58),#82);
#58 = B_SPLINE_CURVE_WITH_KNOTS('',1,(#59,#60,#61,#62,#63,#64,#65,#66,
    #67,#68,#69,#70,#71,#72,#73,#74,#75,#76,#77,#78,#79,#80,#81),
  .UNSPECIFIED.,.F.,.F.,(2,1,1,1,1,1,1,1,1,1,1,1,1,1,1,1,1,1,1,1,1,1,2),
  (0.,5.509598624585E-02,7.984096931299E-02,8.551259075326E-02,
    0.113697543848,0.125815233287,0.14942359137,0.242987018478,
    0.264040837366,0.31094807448,0.508461344776,0.513547418987,
    0.518774029871,0.528595389315,0.620513626447,0.649306971245,
    0.671047775034,0.702865863612,0.818255937163,0.839967124785,
    0.881420699843,0.910388516253,1.),.UNSPECIFIED.);
#59 = CARTESIAN_POINT('',(-2.160911868496,-0.134414405443));
#60 = CARTESIAN_POINT('',(-1.921631182162,-4.687635454486E-02));
#61 = CARTESIAN_POINT('',(-1.858071241104,-0.142034042219));
#62 = CARTESIAN_POINT('',(-1.831873117895,-0.143292123395));
#63 = CARTESIAN_POINT('',(-1.717341806168,-8.107228891456E-02));
#64 = CARTESIAN_POINT('',(-1.676163670029,-0.119080487916));
#65 = CARTESIAN_POINT('',(-1.571412103888,-8.831356380441E-02));
#66 = CARTESIAN_POINT('',(-1.139757841548,-5.850290586276E-02));
#67 = CARTESIAN_POINT('',(-1.053385044798,-0.103439490228));
#68 = CARTESIAN_POINT('',(-0.843056911287,-5.036316094019E-02));
#69 = CARTESIAN_POINT('',(6.538034871344E-02,-0.145416658648));
#70 = CARTESIAN_POINT('',(8.824916650764E-02,-0.150914771129));
#71 = CARTESIAN_POINT('',(0.10904327498,-0.138593576441));
#72 = CARTESIAN_POINT('',(0.142153062022,-0.107503374491));
#73 = CARTESIAN_POINT('',(0.567226919436,-0.106911830935));
#74 = CARTESIAN_POINT('',(0.690126985446,-0.158152885192));
#75 = CARTESIAN_POINT('',(0.738011184788,-6.974820277974E-02));
#76 = CARTESIAN_POINT('',(0.883699364683,-4.911380390862E-02));
#77 = CARTESIAN_POINT('',(1.414122315325,-0.107432910832));
#78 = CARTESIAN_POINT('',(1.51054824097,-7.945427173721E-02));
#79 = CARTESIAN_POINT('',(1.702248007872,-7.868065273697E-02));
#80 = CARTESIAN_POINT('',(1.830756574186,-4.085024250039E-02));
#81 = CARTESIAN_POINT('',(2.239088131504,-0.111548729146));
#82 = ( GEOMETRIC_REPRESENTATION_CONTEXT(2) 
PARAMETRIC_REPRESENTATION_CONTEXT() REPRESENTATION_CONTEXT('2D SPACE',''
  ) );
#83 = ORIENTED_EDGE('',*,*,#84,.T.);
#84 = EDGE_CURVE('',#24,#85,#87,.T.);
#85 = VERTEX_POINT('',#86);
#86 = CARTESIAN_POINT('',(4.4,0.211548729146,0.));
#87 = SURFACE_CURVE('',#88,(#92),.PCURVE_S1.);
#88 = LINE('',#89,#90);
#89 = CARTESIAN_POINT('',(4.4,-1.154872914575E-02,0.));
#90 = VECTOR('',#91,1.);
#91 = DIRECTION('',(0.,1.,0.));
#92 = PCURVE('',#52,#93);
#93 = DEFINITIONAL_REPRESENTATION('',(#94),#98);
#94 = LINE('',#95,#96);
#95 = CARTESIAN_POINT('',(2.239088131504,-0.111548729146));
#96 = VECTOR('',#97,1.);
#97 = DIRECTION('',(0.,1.));
#98 = ( GEOMETRIC_REPRESENTATION_CONTEXT(2) 
PARAMETRIC_REPRESENTATION_CONTEXT() REPRESENTATION_CONTEXT('2D SPACE',''
  ) );
#99 = ORIENTED_EDGE('',*,*,#100,.T.);
#100 = EDGE_CURVE('',#85,#101,#103,.T.);
#101 = VERTEX_POINT('',#102);
#102 = CARTESIAN_POINT('',(0.,0.234414405443,0.));
#103 = SURFACE_CURVE('',#104,(#128),.PCURVE_S1.);
#104 = B_SPLINE_CURVE_WITH_KNOTS('',1,(#105,#106,#107,#108,#109,#110,
    #111,#112,#113,#114,#115,#116,#117,#118,#119,#120,#121,#122,#123,
    #124,#125,#126,#127),.UNSPECIFIED.,.F.,.F.,(2,1,1,1,1,1,1,1,1,1,1,1,
    1,1,1,1,1,1,1,1,1,1,2),(0.,8.961148374718E-02,0.118579300157,
    0.160032875215,0.181744062837,0.297134136388,0.328952224966,
    0.350693028755,0.379486373553,0.471404610685,0.481225970129,
    0.486452581013,0.491538655224,0.68905192552,0.735959162634,
    0.757012981522,0.85057640863,0.874184766713,0.886302456152,
    0.914487409247,0.920159030687,0.944904013754,1.),.UNSPECIFIED.);
#105 = CARTESIAN_POINT('',(4.4,0.211548729146,0.));
#106 = CARTESIAN_POINT('',(3.991668442681,0.1408502425,0.));
#107 = CARTESIAN_POINT('',(3.863159876368,0.178680652737,0.));
#108 = CARTESIAN_POINT('',(3.671460109465,0.179454271737,0.));
#109 = CARTESIAN_POINT('',(3.575034183821,0.207432910832,0.));
#110 = CARTESIAN_POINT('',(3.044611233179,0.149113803909,0.));
#111 = CARTESIAN_POINT('',(2.898923053283,0.16974820278,0.));
#112 = CARTESIAN_POINT('',(2.851038853941,0.258152885192,0.));
#113 = CARTESIAN_POINT('',(2.728138787931,0.206911830935,0.));
#114 = CARTESIAN_POINT('',(2.303064930518,0.207503374491,0.));
#115 = CARTESIAN_POINT('',(2.269955143475,0.238593576441,0.));
#116 = CARTESIAN_POINT('',(2.249161035003,0.250914771129,0.));
#117 = CARTESIAN_POINT('',(2.226292217209,0.245416658648,0.));
#118 = CARTESIAN_POINT('',(1.317854957208,0.15036316094,0.));
#119 = CARTESIAN_POINT('',(1.107526823698,0.203439490228,0.));
#120 = CARTESIAN_POINT('',(1.021154026947,0.158502905863,0.));
#121 = CARTESIAN_POINT('',(0.589499764608,0.188313563804,0.));
#122 = CARTESIAN_POINT('',(0.484748198467,0.219080487916,0.));
#123 = CARTESIAN_POINT('',(0.443570062328,0.181072288915,0.));
#124 = CARTESIAN_POINT('',(0.3290387506,0.243292123395,0.));
#125 = CARTESIAN_POINT('',(0.302840627391,0.242034042219,0.));
#126 = CARTESIAN_POINT('',(0.239280686334,0.146876354545,0.));
#127 = CARTESIAN_POINT('',(0.,0.234414405443,0.));
#128 = PCURVE('',#52,#129);
#129 = DEFINITIONAL_REPRESENTATION('',(#130),#154);
#130 = B_SPLINE_CURVE_WITH_KNOTS('',1,(#131,#132,#133,#134,#135,#136,
    #137,#138,#139,#140,#141,#142,#143,#144,#145,#146,#147,#148,#149,
    #150,#151,#152,#153),.UNSPECIFIED.,.F.,.F.,(2,1,1,1,1,1,1,1,1,1,1,1,
    1,1,1,1,1,1,1,1,1,1,2),(0.,8.961148374718E-02,0.118579300157,
    0.160032875215,0.181744062837,0.297134136388,0.328952224966,
    0.350693028755,0.379486373553,0.471404610685,0.481225970129,
    0.486452581013,0.491538655224,0.68905192552,0.735959162634,
    0.757012981522,0.85057640863,0.874184766713,0.886302456152,
    0.914487409247,0.920159030687,0.944904013754,1.),.UNSPECIFIED.);
#131 = CARTESIAN_POINT('',(2.239088131504,0.111548729146));
#132 = CARTESIAN_POINT('',(1.830756574186,4.085024250039E-02));
#133 = CARTESIAN_POINT('',(1.702248007872,7.868065273697E-02));
#134 = CARTESIAN_POINT('',(1.51054824097,7.945427173721E-02));
#135 = CARTESIAN_POINT('',(1.414122315325,0.107432910832));
#136 = CARTESIAN_POINT('',(0.883699364683,4.911380390862E-02));
#137 = CARTESIAN_POINT('',(0.738011184788,6.974820277974E-02));
#138 = CARTESIAN_POINT('',(0.690126985446,0.158152885192));
#139 = CARTESIAN_POINT('',(0.567226919436,0.106911830935));
#140 = CARTESIAN_POINT('',(0.142153062022,0.107503374491));
#141 = CARTESIAN_POINT('',(0.10904327498,0.138593576441));
#142 = CARTESIAN_POINT('',(8.824916650764E-02,0.150914771129));
#143 = CARTESIAN_POINT('',(6.538034871344E-02,0.145416658648));
#144 = CARTESIAN_POINT('',(-0.843056911287,5.036316094019E-02));
#145 = CARTESIAN_POINT('',(-1.053385044798,0.103439490228));
#146 = CARTESIAN_POINT('',(-1.139757841548,5.850290586276E-02));
#147 = CARTESIAN_POINT('',(-1.571412103888,8.831356380441E-02));
#148 = CARTESIAN_POINT('',(-1.676163670029,0.119080487916));
#149 = CARTESIAN_POINT('',(-1.717341806168,8.107228891456E-02));
#150 = CARTESIAN_POINT('',(-1.831873117895,0.143292123395));
#151 = CARTESIAN_POINT('',(-1.858071241104,0.142034042219));
#152 = CARTESIAN_POINT('',(-1.921631182162,4.687635454486E-02));
#153 = CARTESIAN_POINT('',(-2.160911868496,0.134414405443));
#154 = ( GEOMETRIC_REPRESENTATION_CONTEXT(2) 
PARAMETRIC_REPRESENTATION_CONTEXT() REPRESENTATION_CONTEXT('2D SPACE',''
  ) );
#155 = ORIENTED_EDGE('',*,*,#156,.T.);
#156 = EDGE_CURVE('',#101,#22,#157,.T.);
#157 = SURFACE_CURVE('',#158,(#162),.PCURVE_S1.);
#158 = LINE('',#159,#160);
#159 = CARTESIAN_POINT('',(0.,0.234414405443,0.));
#160 = VECTOR('',#161,1.);
#161 = DIRECTION('',(0.,-1.,0.));
#162 = PCURVE('',#52,#163);
#163 = DEFINITIONAL_REPRESENTATION('',(#164),#168);
#164 = LINE('',#165,#166);
#165 = CARTESIAN_POINT('',(-2.160911868496,0.134414405443));
#166 = VECTOR('',#167,1.);
#167 = DIRECTION('',(0.,-1.));
#168 = ( GEOMETRIC_REPRESENTATION_CONTEXT(2) 
PARAMETRIC_REPRESENTATION_CONTEXT() REPRESENTATION_CONTEXT('2D SPACE',''
  ) );
#169 = ( GEOMETRIC_REPRESENTATION_CONTEXT(3) 
GLOBAL_UNCERTAINTY_ASSIGNED_CONTEXT((#173)) GLOBAL_UNIT_ASSIGNED_CONTEXT
((#170,#171,#172)) REPRESENTATION_CONTEXT('Context #1',
  '3D Context with UNIT and UNCERTAINTY') );
#170 = ( LENGTH_UNIT() NAMED_UNIT(*) SI_UNIT(.MILLI.,.METRE.) );
#171 = ( NAMED_UNIT(*) PLANE_ANGLE_UNIT() SI_UNIT($,.RADIAN.) );
#172 = ( NAMED_UNIT(*) SI_UNIT($,.STERADIAN.) SOLID_ANGLE_UNIT() );
#173 = UNCERTAINTY_MEASURE_WITH_UNIT(LENGTH_MEASURE(1.E-07),#170,
  'distance_accuracy_value','confusion accuracy');
#174 = PRODUCT_RELATED_PRODUCT_CATEGORY('part',$,(#7));
ENDSEC;
END-ISO-10303-21;
