ISO-10303-21;
HEADER;
FILE_DESCRIPTION(('Open CASCADE Model'),'2;1');
FILE_NAME('Open CASCADE Shape Model','2026-05-29T14:30:30',('Author'),(
    'Open CASCADE'),'Open CASCADE STEP processor 7.9','Open CASCADE 7.9'
  ,'Unknown');
FILE_SCHEMA(('AUTOMOTIVE_DESIGN { 1 0 10303 214 1 1 1 1 }'));
ENDSEC;
DATA;
#1 = APPLICATION_PROTOCOL_DEFINITION('international standard',
  'automotive_design',2000,#2);
#2 = APPLICATION_CONTEXT(
  'core data for automotive mechanical design processes');
#3 = SHAPE_DEFINITION_REPRESENTATION(#4,#10);
#4 = PRODUCT_DEFINITION_SHAPE('','',#5);
#5 = PRODUCT_DEFINITION('design','',#6,#9);
#6 = PRODUCT_DEFINITION_FORMATION('','',#7);
#7 = PRODUCT('Open CASCADE STEP translator 7.9 11',
  'Open CASCADE STEP translator 7.9 11','',(#8));
#8 = PRODUCT_CONTEXT('',#2,'mechanical');
#9 = PRODUCT_DEFINITION_CONTEXT('part definition',#2,'design');
#10 = MANIFOLD_SURFACE_SHAPE_REPRESENTATION('',(#11,#15),#121);
#11 = AXIS2_PLACEMENT_3D('',#12,#13,#14);
#12 = CARTESIAN_POINT('',(0.,0.,0.));
#13 = DIRECTION('',(0.,0.,1.));
#14 = DIRECTION('',(1.,0.,-0.));
#15 = SHELL_BASED_SURFACE_MODEL('',(#16));
#16 = OPEN_SHELL('',(#17));
#17 = ADVANCED_FACE('',(#18),#40,.T.);
#18 = FACE_BOUND('',#19,.T.);
#19 = EDGE_LOOP('',(#20,#59,#75,#107));
#20 = ORIENTED_EDGE('',*,*,#21,.T.);
#21 = EDGE_CURVE('',#22,#24,#26,.T.);
#22 = VERTEX_POINT('',#23);
#23 = CARTESIAN_POINT('',(0.,-14.65777914872,0.));
#24 = VERTEX_POINT('',#25);
#25 = CARTESIAN_POINT('',(1.5E+03,-41.96087209288,0.));
#26 = SURFACE_CURVE('',#27,(#39),.PCURVE_S1.);
#27 = B_SPLINE_CURVE_WITH_KNOTS('',1,(#28,#29,#30,#31,#32,#33,#34,#35,
    #36,#37,#38),.UNSPECIFIED.,.F.,.F.,(2,1,1,1,1,1,1,1,1,1,2),(0.,
    4.967351882188E-02,0.237987141126,0.33681457263,0.527730207564,
    0.588993791685,0.63997651535,0.69268994051,0.811198502008,
    0.893711102964,1.),.UNSPECIFIED.);
#28 = CARTESIAN_POINT('',(0.,-14.65777914872,0.));
#29 = CARTESIAN_POINT('',(73.445610098121,-41.00609313422,0.));
#30 = CARTESIAN_POINT('',(363.05899265564,19.219839580615,0.));
#31 = CARTESIAN_POINT('',(507.27784543557,-38.23275863808,0.));
#32 = CARTESIAN_POINT('',(796.02975003126,42.762645775237,0.));
#33 = CARTESIAN_POINT('',(879.59377526187,-4.967823809414,0.));
#34 = CARTESIAN_POINT('',(959.36464940796,-12.05776005129,0.));
#35 = CARTESIAN_POINT('',(1.027170859851E+03,35.469233662432,0.));
#36 = CARTESIAN_POINT('',(1.213302167179E+03,32.369436264248,0.));
#37 = CARTESIAN_POINT('',(1.340464118228E+03,7.279711261533,0.));
#38 = CARTESIAN_POINT('',(1.5E+03,-41.96087209288,0.));
#39 = PCURVE('',#40,#45);
#40 = PLANE('',#41);
#41 = AXIS2_PLACEMENT_3D('',#42,#43,#44);
#42 = CARTESIAN_POINT('',(761.49977402223,75.,0.));
#43 = DIRECTION('',(0.,0.,1.));
#44 = DIRECTION('',(1.,0.,-0.));
#45 = DEFINITIONAL_REPRESENTATION('',(#46),#58);
#46 = B_SPLINE_CURVE_WITH_KNOTS('',1,(#47,#48,#49,#50,#51,#52,#53,#54,
    #55,#56,#57),.UNSPECIFIED.,.F.,.F.,(2,1,1,1,1,1,1,1,1,1,2),(0.,
    4.967351882188E-02,0.237987141126,0.33681457263,0.527730207564,
    0.588993791685,0.63997651535,0.69268994051,0.811198502008,
    0.893711102964,1.),.UNSPECIFIED.);
#47 = CARTESIAN_POINT('',(-761.4997740222,-89.65777914872));
#48 = CARTESIAN_POINT('',(-688.0541639241,-116.0060931342));
#49 = CARTESIAN_POINT('',(-398.4407813665,-55.78016041938));
#50 = CARTESIAN_POINT('',(-254.2219285866,-113.232758638));
#51 = CARTESIAN_POINT('',(34.529976009034,-32.23735422476));
#52 = CARTESIAN_POINT('',(118.09400123964,-79.96782380941));
#53 = CARTESIAN_POINT('',(197.86487538572,-87.05776005129));
#54 = CARTESIAN_POINT('',(265.67108582841,-39.53076633756));
#55 = CARTESIAN_POINT('',(451.80239315722,-42.63056373575));
#56 = CARTESIAN_POINT('',(578.96434420534,-67.72028873846));
#57 = CARTESIAN_POINT('',(738.50022597776,-116.9608720928));
#58 = ( GEOMETRIC_REPRESENTATION_CONTEXT(2) 
PARAMETRIC_REPRESENTATION_CONTEXT() REPRESENTATION_CONTEXT('2D SPACE',''
  ) );
#59 = ORIENTED_EDGE('',*,*,#60,.T.);
#60 = EDGE_CURVE('',#24,#61,#63,.T.);
#61 = VERTEX_POINT('',#62);
#62 = CARTESIAN_POINT('',(1.5E+03,191.96087209288,0.));
#63 = SURFACE_CURVE('',#64,(#68),.PCURVE_S1.);
#64 = LINE('',#65,#66);
#65 = CARTESIAN_POINT('',(1.5E+03,-41.96087209288,0.));
#66 = VECTOR('',#67,1.);
#67 = DIRECTION('',(0.,1.,0.));
#68 = PCURVE('',#40,#69);
#69 = DEFINITIONAL_REPRESENTATION('',(#70),#74);
#70 = LINE('',#71,#72);
#71 = CARTESIAN_POINT('',(738.50022597776,-116.9608720928));
#72 = VECTOR('',#73,1.);
#73 = DIRECTION('',(0.,1.));
#74 = ( GEOMETRIC_REPRESENTATION_CONTEXT(2) 
PARAMETRIC_REPRESENTATION_CONTEXT() REPRESENTATION_CONTEXT('2D SPACE',''
  ) );
#75 = ORIENTED_EDGE('',*,*,#76,.T.);
#76 = EDGE_CURVE('',#61,#77,#79,.T.);
#77 = VERTEX_POINT('',#78);
#78 = CARTESIAN_POINT('',(0.,164.65777914872,0.));
#79 = SURFACE_CURVE('',#80,(#92),.PCURVE_S1.);
#80 = B_SPLINE_CURVE_WITH_KNOTS('',1,(#81,#82,#83,#84,#85,#86,#87,#88,
    #89,#90,#91),.UNSPECIFIED.,.F.,.F.,(2,1,1,1,1,1,1,1,1,1,2),(0.,
    0.106288897036,0.188801497992,0.30731005949,0.36002348465,
    0.411006208315,0.472269792436,0.66318542737,0.762012858874,
    0.950326481178,1.),.UNSPECIFIED.);
#81 = CARTESIAN_POINT('',(1.5E+03,191.96087209288,0.));
#82 = CARTESIAN_POINT('',(1.340464118228E+03,142.72028873846,0.));
#83 = CARTESIAN_POINT('',(1.213302167179E+03,117.63056373575,0.));
#84 = CARTESIAN_POINT('',(1.027170859851E+03,114.53076633756,0.));
#85 = CARTESIAN_POINT('',(959.36464940796,162.05776005129,0.));
#86 = CARTESIAN_POINT('',(879.59377526187,154.96782380941,0.));
#87 = CARTESIAN_POINT('',(796.02975003126,107.23735422476,0.));
#88 = CARTESIAN_POINT('',(507.27784543557,188.23275863808,0.));
#89 = CARTESIAN_POINT('',(363.05899265564,130.78016041938,0.));
#90 = CARTESIAN_POINT('',(73.445610098121,191.00609313422,0.));
#91 = CARTESIAN_POINT('',(0.,164.65777914872,0.));
#92 = PCURVE('',#40,#93);
#93 = DEFINITIONAL_REPRESENTATION('',(#94),#106);
#94 = B_SPLINE_CURVE_WITH_KNOTS('',1,(#95,#96,#97,#98,#99,#100,#101,#102
    ,#103,#104,#105),.UNSPECIFIED.,.F.,.F.,(2,1,1,1,1,1,1,1,1,1,2),(0.,
    0.106288897036,0.188801497992,0.30731005949,0.36002348465,
    0.411006208315,0.472269792436,0.66318542737,0.762012858874,
    0.950326481178,1.),.UNSPECIFIED.);
#95 = CARTESIAN_POINT('',(738.50022597776,116.96087209288));
#96 = CARTESIAN_POINT('',(578.96434420534,67.720288738467));
#97 = CARTESIAN_POINT('',(451.80239315722,42.630563735752));
#98 = CARTESIAN_POINT('',(265.67108582841,39.530766337568));
#99 = CARTESIAN_POINT('',(197.86487538572,87.057760051298));
#100 = CARTESIAN_POINT('',(118.09400123964,79.967823809414));
#101 = CARTESIAN_POINT('',(34.529976009034,32.237354224763));
#102 = CARTESIAN_POINT('',(-254.2219285866,113.23275863808));
#103 = CARTESIAN_POINT('',(-398.4407813665,55.780160419385));
#104 = CARTESIAN_POINT('',(-688.0541639241,116.00609313422));
#105 = CARTESIAN_POINT('',(-761.4997740222,89.657779148722));
#106 = ( GEOMETRIC_REPRESENTATION_CONTEXT(2) 
PARAMETRIC_REPRESENTATION_CONTEXT() REPRESENTATION_CONTEXT('2D SPACE',''
  ) );
#107 = ORIENTED_EDGE('',*,*,#108,.T.);
#108 = EDGE_CURVE('',#77,#22,#109,.T.);
#109 = SURFACE_CURVE('',#110,(#114),.PCURVE_S1.);
#110 = LINE('',#111,#112);
#111 = CARTESIAN_POINT('',(0.,164.65777914872,0.));
#112 = VECTOR('',#113,1.);
#113 = DIRECTION('',(0.,-1.,0.));
#114 = PCURVE('',#40,#115);
#115 = DEFINITIONAL_REPRESENTATION('',(#116),#120);
#116 = LINE('',#117,#118);
#117 = CARTESIAN_POINT('',(-761.4997740222,89.657779148722));
#118 = VECTOR('',#119,1.);
#119 = DIRECTION('',(0.,-1.));
#120 = ( GEOMETRIC_REPRESENTATION_CONTEXT(2) 
PARAMETRIC_REPRESENTATION_CONTEXT() REPRESENTATION_CONTEXT('2D SPACE',''
  ) );
#121 = ( GEOMETRIC_REPRESENTATION_CONTEXT(3) 
GLOBAL_UNCERTAINTY_ASSIGNED_CONTEXT((#125)) GLOBAL_UNIT_ASSIGNED_CONTEXT
((#122,#123,#124)) REPRESENTATION_CONTEXT('Context #1',
  '3D Context with UNIT and UNCERTAINTY') );
#122 = ( LENGTH_UNIT() NAMED_UNIT(*) SI_UNIT(.MILLI.,.METRE.) );
#123 = ( NAMED_UNIT(*) PLANE_ANGLE_UNIT() SI_UNIT($,.RADIAN.) );
#124 = ( NAMED_UNIT(*) SI_UNIT($,.STERADIAN.) SOLID_ANGLE_UNIT() );
#125 = UNCERTAINTY_MEASURE_WITH_UNIT(LENGTH_MEASURE(1.E-07),#122,
  'distance_accuracy_value','confusion accuracy');
#126 = PRODUCT_RELATED_PRODUCT_CATEGORY('part',$,(#7));
ENDSEC;
END-ISO-10303-21;
