ISO-10303-21;
HEADER;
FILE_DESCRIPTION(('Open CASCADE Model'),'2;1');
FILE_NAME('Open CASCADE Shape Model','2026-05-29T14:30:30',('Author'),(
    'Open CASCADE'),'Open CASCADE STEP processor 7.9','Open CASCADE 7.9'
  ,'Unknown');
FILE_SCHEMA(('AUTOMOTIVE_DESIGN { 1 0 10303 214 1 1 1 1 }'));
ENDSEC;
DATA;
#1 = APPLICATION_PROTOCOL_DEFINITION('international standard',
  'automotive_design',2000,#2);
#2 = APPLICATION_CONTEXT(
  'core data for automotive mechanical design processes');
#3 = SHAPE_DEFINITION_REPRESENTATION(#4,#10);
#4 = PRODUCT_DEFINITION_SHAPE('','',#5);
#5 = PRODUCT_DEFINITION('design','',#6,#9);
#6 = PRODUCT_DEFINITION_FORMATION('','',#7);
#7 = PRODUCT('Open CASCADE STEP translator 7.9 88',
  'Open CASCADE STEP translator 7.9 88','',(#8));
#8 = PRODUCT_CONTEXT('',#2,'mechanical');
#9 = PRODUCT_DEFINITION_CONTEXT('part definition',#2,'design');
#10 = MANIFOLD_SURFACE_SHAPE_REPRESENTATION('',(#11,#15),#121);
#11 = AXIS2_PLACEMENT_3D('',#12,#13,#14);
#12 = CARTESIAN_POINT('',(0.,0.,0.));
#13 = DIRECTION('',(0.,0.,1.));
#14 = DIRECTION('',(1.,0.,-0.));
#15 = SHELL_BASED_SURFACE_MODEL('',(#16));
#16 = OPEN_SHELL('',(#17));
#17 = ADVANCED_FACE('',(#18),#40,.T.);
#18 = FACE_BOUND('',#19,.T.);
#19 = EDGE_LOOP('',(#20,#59,#75,#107));
#20 = ORIENTED_EDGE('',*,*,#21,.T.);
#21 = EDGE_CURVE('',#22,#24,#26,.T.);
#22 = VERTEX_POINT('',#23);
#23 = CARTESIAN_POINT('',(0.,-2.568755604821,0.));
#24 = VERTEX_POINT('',#25);
#25 = CARTESIAN_POINT('',(1.5E+03,-4.255455708439,0.));
#26 = SURFACE_CURVE('',#27,(#39),.PCURVE_S1.);
#27 = B_SPLINE_CURVE_WITH_KNOTS('',1,(#28,#29,#30,#31,#32,#33,#34,#35,
    #36,#37,#38),.UNSPECIFIED.,.F.,.F.,(2,1,1,1,1,1,1,1,1,1,2),(0.,
    3.950088455048E-02,0.120056117707,0.23095354804,0.282076672162,
    0.448545708633,0.59004447607,0.72259480202,0.841442038676,
    0.933839495343,1.),.UNSPECIFIED.);
#28 = CARTESIAN_POINT('',(0.,-2.568755604821,0.));
#29 = CARTESIAN_POINT('',(54.423928485712,-29.95533491953,0.));
#30 = CARTESIAN_POINT('',(169.16480741795,17.711813102887,0.));
#31 = CARTESIAN_POINT('',(339.77037143585,5.417186176758,0.));
#32 = CARTESIAN_POINT('',(401.45176282103,-43.70589913608,0.));
#33 = CARTESIAN_POINT('',(658.21329575222,-43.65420270487,0.));
#34 = CARTESIAN_POINT('',(876.34506829414,-36.54961296886,0.));
#35 = CARTESIAN_POINT('',(1.080560718965E+03,-26.86035103452,0.));
#36 = CARTESIAN_POINT('',(1.257572107564E+03,20.778254934947,0.));
#37 = CARTESIAN_POINT('',(1.400009739278E+03,16.123493333953,0.));
#38 = CARTESIAN_POINT('',(1.5E+03,-4.255455708439,0.));
#39 = PCURVE('',#40,#45);
#40 = PLANE('',#41);
#41 = AXIS2_PLACEMENT_3D('',#42,#43,#44);
#42 = CARTESIAN_POINT('',(742.90314712072,75.,0.));
#43 = DIRECTION('',(0.,0.,1.));
#44 = DIRECTION('',(1.,0.,-0.));
#45 = DEFINITIONAL_REPRESENTATION('',(#46),#58);
#46 = B_SPLINE_CURVE_WITH_KNOTS('',1,(#47,#48,#49,#50,#51,#52,#53,#54,
    #55,#56,#57),.UNSPECIFIED.,.F.,.F.,(2,1,1,1,1,1,1,1,1,1,2),(0.,
    3.950088455048E-02,0.120056117707,0.23095354804,0.282076672162,
    0.448545708633,0.59004447607,0.72259480202,0.841442038676,
    0.933839495343,1.),.UNSPECIFIED.);
#47 = CARTESIAN_POINT('',(-742.9031471207,-77.56875560482));
#48 = CARTESIAN_POINT('',(-688.479218635,-104.9553349195));
#49 = CARTESIAN_POINT('',(-573.7383397027,-57.28818689711));
#50 = CARTESIAN_POINT('',(-403.1327756848,-69.58281382324));
#51 = CARTESIAN_POINT('',(-341.4513842996,-118.705899136));
#52 = CARTESIAN_POINT('',(-84.6898513685,-118.6542027048));
#53 = CARTESIAN_POINT('',(133.44192117341,-111.5496129688));
#54 = CARTESIAN_POINT('',(337.65757184378,-101.8603510345));
#55 = CARTESIAN_POINT('',(514.66896044334,-54.22174506505));
#56 = CARTESIAN_POINT('',(657.10659215752,-58.87650666604));
#57 = CARTESIAN_POINT('',(757.09685287927,-79.25545570843));
#58 = ( GEOMETRIC_REPRESENTATION_CONTEXT(2) 
PARAMETRIC_REPRESENTATION_CONTEXT() REPRESENTATION_CONTEXT('2D SPACE',''
  ) );
#59 = ORIENTED_EDGE('',*,*,#60,.T.);
#60 = EDGE_CURVE('',#24,#61,#63,.T.);
#61 = VERTEX_POINT('',#62);
#62 = CARTESIAN_POINT('',(1.5E+03,154.25545570843,0.));
#63 = SURFACE_CURVE('',#64,(#68),.PCURVE_S1.);
#64 = LINE('',#65,#66);
#65 = CARTESIAN_POINT('',(1.5E+03,-4.255455708439,0.));
#66 = VECTOR('',#67,1.);
#67 = DIRECTION('',(0.,1.,0.));
#68 = PCURVE('',#40,#69);
#69 = DEFINITIONAL_REPRESENTATION('',(#70),#74);
#70 = LINE('',#71,#72);
#71 = CARTESIAN_POINT('',(757.09685287927,-79.25545570843));
#72 = VECTOR('',#73,1.);
#73 = DIRECTION('',(0.,1.));
#74 = ( GEOMETRIC_REPRESENTATION_CONTEXT(2) 
PARAMETRIC_REPRESENTATION_CONTEXT() REPRESENTATION_CONTEXT('2D SPACE',''
  ) );
#75 = ORIENTED_EDGE('',*,*,#76,.T.);
#76 = EDGE_CURVE('',#61,#77,#79,.T.);
#77 = VERTEX_POINT('',#78);
#78 = CARTESIAN_POINT('',(0.,152.56875560482,0.));
#79 = SURFACE_CURVE('',#80,(#92),.PCURVE_S1.);
#80 = B_SPLINE_CURVE_WITH_KNOTS('',1,(#81,#82,#83,#84,#85,#86,#87,#88,
    #89,#90,#91),.UNSPECIFIED.,.F.,.F.,(2,1,1,1,1,1,1,1,1,1,2),(0.,
    6.616050465728E-02,0.158557961324,0.27740519798,0.40995552393,
    0.551454291367,0.717923327838,0.76904645196,0.879943882293,
    0.96049911545,1.),.UNSPECIFIED.);
#81 = CARTESIAN_POINT('',(1.5E+03,154.25545570843,0.));
#82 = CARTESIAN_POINT('',(1.400009739278E+03,133.87650666604,0.));
#83 = CARTESIAN_POINT('',(1.257572107564E+03,129.22174506505,0.));
#84 = CARTESIAN_POINT('',(1.080560718965E+03,176.86035103452,0.));
#85 = CARTESIAN_POINT('',(876.34506829414,186.54961296886,0.));
#86 = CARTESIAN_POINT('',(658.21329575222,193.65420270487,0.));
#87 = CARTESIAN_POINT('',(401.45176282103,193.70589913608,0.));
#88 = CARTESIAN_POINT('',(339.77037143585,144.58281382324,0.));
#89 = CARTESIAN_POINT('',(169.16480741795,132.28818689711,0.));
#90 = CARTESIAN_POINT('',(54.423928485712,179.95533491953,0.));
#91 = CARTESIAN_POINT('',(0.,152.56875560482,0.));
#92 = PCURVE('',#40,#93);
#93 = DEFINITIONAL_REPRESENTATION('',(#94),#106);
#94 = B_SPLINE_CURVE_WITH_KNOTS('',1,(#95,#96,#97,#98,#99,#100,#101,#102
    ,#103,#104,#105),.UNSPECIFIED.,.F.,.F.,(2,1,1,1,1,1,1,1,1,1,2),(0.,
    6.616050465728E-02,0.158557961324,0.27740519798,0.40995552393,
    0.551454291367,0.717923327838,0.76904645196,0.879943882293,
    0.96049911545,1.),.UNSPECIFIED.);
#95 = CARTESIAN_POINT('',(757.09685287927,79.255455708439));
#96 = CARTESIAN_POINT('',(657.10659215752,58.876506666047));
#97 = CARTESIAN_POINT('',(514.66896044334,54.221745065053));
#98 = CARTESIAN_POINT('',(337.65757184378,101.86035103452));
#99 = CARTESIAN_POINT('',(133.44192117341,111.54961296886));
#100 = CARTESIAN_POINT('',(-84.6898513685,118.65420270487));
#101 = CARTESIAN_POINT('',(-341.4513842996,118.70589913608));
#102 = CARTESIAN_POINT('',(-403.1327756848,69.582813823242));
#103 = CARTESIAN_POINT('',(-573.7383397027,57.288186897113));
#104 = CARTESIAN_POINT('',(-688.479218635,104.95533491953));
#105 = CARTESIAN_POINT('',(-742.9031471207,77.568755604821));
#106 = ( GEOMETRIC_REPRESENTATION_CONTEXT(2) 
PARAMETRIC_REPRESENTATION_CONTEXT() REPRESENTATION_CONTEXT('2D SPACE',''
  ) );
#107 = ORIENTED_EDGE('',*,*,#108,.T.);
#108 = EDGE_CURVE('',#77,#22,#109,.T.);
#109 = SURFACE_CURVE('',#110,(#114),.PCURVE_S1.);
#110 = LINE('',#111,#112);
#111 = CARTESIAN_POINT('',(0.,152.56875560482,0.));
#112 = VECTOR('',#113,1.);
#113 = DIRECTION('',(0.,-1.,0.));
#114 = PCURVE('',#40,#115);
#115 = DEFINITIONAL_REPRESENTATION('',(#116),#120);
#116 = LINE('',#117,#118);
#117 = CARTESIAN_POINT('',(-742.9031471207,77.568755604821));
#118 = VECTOR('',#119,1.);
#119 = DIRECTION('',(0.,-1.));
#120 = ( GEOMETRIC_REPRESENTATION_CONTEXT(2) 
PARAMETRIC_REPRESENTATION_CONTEXT() REPRESENTATION_CONTEXT('2D SPACE',''
  ) );
#121 = ( GEOMETRIC_REPRESENTATION_CONTEXT(3) 
GLOBAL_UNCERTAINTY_ASSIGNED_CONTEXT((#125)) GLOBAL_UNIT_ASSIGNED_CONTEXT
((#122,#123,#124)) REPRESENTATION_CONTEXT('Context #1',
  '3D Context with UNIT and UNCERTAINTY') );
#122 = ( LENGTH_UNIT() NAMED_UNIT(*) SI_UNIT(.MILLI.,.METRE.) );
#123 = ( NAMED_UNIT(*) PLANE_ANGLE_UNIT() SI_UNIT($,.RADIAN.) );
#124 = ( NAMED_UNIT(*) SI_UNIT($,.STERADIAN.) SOLID_ANGLE_UNIT() );
#125 = UNCERTAINTY_MEASURE_WITH_UNIT(LENGTH_MEASURE(1.E-07),#122,
  'distance_accuracy_value','confusion accuracy');
#126 = PRODUCT_RELATED_PRODUCT_CATEGORY('part',$,(#7));
ENDSEC;
END-ISO-10303-21;
