ISO-10303-21;
HEADER;
FILE_DESCRIPTION(('Open CASCADE Model'),'2;1');
FILE_NAME('Open CASCADE Shape Model','2026-05-28T17:04:49',('Author'),(
    'Open CASCADE'),'Open CASCADE STEP processor 7.9','Open CASCADE 7.9'
  ,'Unknown');
FILE_SCHEMA(('AUTOMOTIVE_DESIGN { 1 0 10303 214 1 1 1 1 }'));
ENDSEC;
DATA;
#1 = APPLICATION_PROTOCOL_DEFINITION('international standard',
  'automotive_design',2000,#2);
#2 = APPLICATION_CONTEXT(
  'core data for automotive mechanical design processes');
#3 = SHAPE_DEFINITION_REPRESENTATION(#4,#10);
#4 = PRODUCT_DEFINITION_SHAPE('','',#5);
#5 = PRODUCT_DEFINITION('design','',#6,#9);
#6 = PRODUCT_DEFINITION_FORMATION('','',#7);
#7 = PRODUCT('Open CASCADE STEP translator 7.9 62',
  'Open CASCADE STEP translator 7.9 62','',(#8));
#8 = PRODUCT_CONTEXT('',#2,'mechanical');
#9 = PRODUCT_DEFINITION_CONTEXT('part definition',#2,'design');
#10 = MANIFOLD_SURFACE_SHAPE_REPRESENTATION('',(#11,#15),#237);
#11 = AXIS2_PLACEMENT_3D('',#12,#13,#14);
#12 = CARTESIAN_POINT('',(0.,0.,0.));
#13 = DIRECTION('',(0.,0.,1.));
#14 = DIRECTION('',(1.,0.,-0.));
#15 = SHELL_BASED_SURFACE_MODEL('',(#16));
#16 = OPEN_SHELL('',(#17));
#17 = ADVANCED_FACE('',(#18),#69,.T.);
#18 = FACE_BOUND('',#19,.T.);
#19 = EDGE_LOOP('',(#20,#117,#133,#223));
#20 = ORIENTED_EDGE('',*,*,#21,.T.);
#21 = EDGE_CURVE('',#22,#24,#26,.T.);
#22 = VERTEX_POINT('',#23);
#23 = CARTESIAN_POINT('',(0.,-4.680176089919E-02,0.));
#24 = VERTEX_POINT('',#25);
#25 = CARTESIAN_POINT('',(7.8,3.071246654482E-02,0.));
#26 = SURFACE_CURVE('',#27,(#68),.PCURVE_S1.);
#27 = B_SPLINE_CURVE_WITH_KNOTS('',1,(#28,#29,#30,#31,#32,#33,#34,#35,
    #36,#37,#38,#39,#40,#41,#42,#43,#44,#45,#46,#47,#48,#49,#50,#51,#52,
    #53,#54,#55,#56,#57,#58,#59,#60,#61,#62,#63,#64,#65,#66,#67),
  .UNSPECIFIED.,.F.,.F.,(2,1,1,1,1,1,1,1,1,1,1,1,1,1,1,1,1,1,1,1,1,1,1,1
    ,1,1,1,1,1,1,1,1,1,1,1,1,1,1,1,2),(0.,2.92765546394E-02,
    5.107902939007E-02,5.699578158627E-02,6.233817471333E-02,
    8.27298978733E-02,0.105633467512,0.155959572458,0.173530574213,
    0.186882365858,0.200593794462,0.207419986226,0.2144345218,
    0.218475292997,0.248927188161,0.277596585754,0.298065388816,
    0.310025228684,0.323008781671,0.355328715984,0.393376317661,
    0.418782326379,0.42345785284,0.536518166283,0.562112917889,
    0.590878091007,0.601594268667,0.644009547747,0.6693017323,
    0.678471162851,0.759222369015,0.806590794374,0.817901390418,
    0.825678005456,0.861427195714,0.881330458126,0.886829246409,
    0.909961413774,0.965100321528,1.),.UNSPECIFIED.);
#28 = CARTESIAN_POINT('',(0.,-4.680176089919E-02,0.));
#29 = CARTESIAN_POINT('',(0.235637596288,-2.153409999551E-02,0.));
#30 = CARTESIAN_POINT('',(0.404079901991,3.114317350857E-02,0.));
#31 = CARTESIAN_POINT('',(0.446867824434,9.622732673306E-03,0.));
#32 = CARTESIAN_POINT('',(0.482133296359,3.465348066744E-02,0.));
#33 = CARTESIAN_POINT('',(0.646902538372,4.456937890498E-02,0.));
#34 = CARTESIAN_POINT('',(0.829831727497,1.440019265833E-02,0.));
#35 = CARTESIAN_POINT('',(1.236534227132,-9.098592608442E-03,0.));
#36 = CARTESIAN_POINT('',(1.376389103461,1.680807894422E-02,0.));
#37 = CARTESIAN_POINT('',(1.480191470244,-1.329894605592E-02,0.));
#38 = CARTESIAN_POINT('',(1.584566686306,2.444943175448E-02,0.));
#39 = CARTESIAN_POINT('',(1.639502044058,1.849793666871E-02,0.));
#40 = CARTESIAN_POINT('',(1.658862712728,-3.488083099735E-02,0.));
#41 = CARTESIAN_POINT('',(1.689835177402,-4.539776770726E-02,0.));
#42 = CARTESIAN_POINT('',(1.92712718079,2.135591021627E-02,0.));
#43 = CARTESIAN_POINT('',(2.157261706524,-8.581896161433E-03,0.));
#44 = CARTESIAN_POINT('',(2.319170303631,2.662052593293E-02,0.));
#45 = CARTESIAN_POINT('',(2.412147865422,5.359984299511E-02,0.));
#46 = CARTESIAN_POINT('',(2.477710722281,-2.854286176325E-02,0.));
#47 = CARTESIAN_POINT('',(2.730337134509,3.947958201166E-02,0.));
#48 = CARTESIAN_POINT('',(3.036805243615,8.91449715037E-03,0.));
#49 = CARTESIAN_POINT('',(3.242330591342,1.554540794501E-03,0.));
#50 = CARTESIAN_POINT('',(3.25301249049,3.786340989851E-02,0.));
#51 = CARTESIAN_POINT('',(4.168151857456,4.865335792039E-02,0.));
#52 = CARTESIAN_POINT('',(4.373092157688,1.823843823947E-02,0.));
#53 = CARTESIAN_POINT('',(4.5943624031,-5.427430890604E-02,0.));
#54 = CARTESIAN_POINT('',(4.671095286783,-1.381627079861E-02,0.));
#55 = CARTESIAN_POINT('',(5.013291900171,1.423077259165E-02,0.));
#56 = CARTESIAN_POINT('',(5.213859851505,5.533070150709E-02,0.));
#57 = CARTESIAN_POINT('',(5.245028663291,-1.203279376693E-02,0.));
#58 = CARTESIAN_POINT('',(5.895846300442,4.892908308776E-02,0.));
#59 = CARTESIAN_POINT('',(6.27545884928,-5.105288525703E-03,0.));
#60 = CARTESIAN_POINT('',(6.363500171548,-3.023406099261E-02,0.));
#61 = CARTESIAN_POINT('',(6.412592736452,9.169758204626E-03,0.));
#62 = CARTESIAN_POINT('',(6.701592133836,2.407062062202E-02,0.));
#63 = CARTESIAN_POINT('',(6.859841473601,5.431389194189E-02,0.));
#64 = CARTESIAN_POINT('',(6.904270437744,5.702665498061E-02,0.));
#65 = CARTESIAN_POINT('',(7.085096269224,8.396811642537E-03,0.));
#66 = CARTESIAN_POINT('',(7.528108513048,-4.600143248436E-02,0.));
#67 = CARTESIAN_POINT('',(7.8,3.071246654482E-02,0.));
#68 = PCURVE('',#69,#74);
#69 = PLANE('',#70);
#70 = AXIS2_PLACEMENT_3D('',#71,#72,#73);
#71 = CARTESIAN_POINT('',(3.849239442959,1.E-01,0.));
#72 = DIRECTION('',(0.,0.,1.));
#73 = DIRECTION('',(1.,0.,-0.));
#74 = DEFINITIONAL_REPRESENTATION('',(#75),#116);
#75 = B_SPLINE_CURVE_WITH_KNOTS('',1,(#76,#77,#78,#79,#80,#81,#82,#83,
    #84,#85,#86,#87,#88,#89,#90,#91,#92,#93,#94,#95,#96,#97,#98,#99,#100
    ,#101,#102,#103,#104,#105,#106,#107,#108,#109,#110,#111,#112,#113,
    #114,#115),.UNSPECIFIED.,.F.,.F.,(2,1,1,1,1,1,1,1,1,1,1,1,1,1,1,1,1,
    1,1,1,1,1,1,1,1,1,1,1,1,1,1,1,1,1,1,1,1,1,1,2),(0.,2.92765546394E-02
    ,5.107902939007E-02,5.699578158627E-02,6.233817471333E-02,
    8.27298978733E-02,0.105633467512,0.155959572458,0.173530574213,
    0.186882365858,0.200593794462,0.207419986226,0.2144345218,
    0.218475292997,0.248927188161,0.277596585754,0.298065388816,
    0.310025228684,0.323008781671,0.355328715984,0.393376317661,
    0.418782326379,0.42345785284,0.536518166283,0.562112917889,
    0.590878091007,0.601594268667,0.644009547747,0.6693017323,
    0.678471162851,0.759222369015,0.806590794374,0.817901390418,
    0.825678005456,0.861427195714,0.881330458126,0.886829246409,
    0.909961413774,0.965100321528,1.),.UNSPECIFIED.);
#76 = CARTESIAN_POINT('',(-3.849239442959,-0.146801760899));
#77 = CARTESIAN_POINT('',(-3.613601846671,-0.121534099996));
#78 = CARTESIAN_POINT('',(-3.445159540968,-6.885682649143E-02));
#79 = CARTESIAN_POINT('',(-3.402371618525,-9.037726732669E-02));
#80 = CARTESIAN_POINT('',(-3.3671061466,-6.534651933256E-02));
#81 = CARTESIAN_POINT('',(-3.202336904588,-5.543062109502E-02));
#82 = CARTESIAN_POINT('',(-3.019407715463,-8.559980734167E-02));
#83 = CARTESIAN_POINT('',(-2.612705215828,-0.109098592608));
#84 = CARTESIAN_POINT('',(-2.472850339499,-8.319192105578E-02));
#85 = CARTESIAN_POINT('',(-2.369047972715,-0.113298946056));
#86 = CARTESIAN_POINT('',(-2.264672756654,-7.555056824552E-02));
#87 = CARTESIAN_POINT('',(-2.209737398901,-8.150206333129E-02));
#88 = CARTESIAN_POINT('',(-2.190376730231,-0.134880830997));
#89 = CARTESIAN_POINT('',(-2.159404265557,-0.145397767707));
#90 = CARTESIAN_POINT('',(-1.92211226217,-7.864408978373E-02));
#91 = CARTESIAN_POINT('',(-1.691977736435,-0.108581896161));
#92 = CARTESIAN_POINT('',(-1.530069139328,-7.337947406707E-02));
#93 = CARTESIAN_POINT('',(-1.437091577537,-4.640015700489E-02));
#94 = CARTESIAN_POINT('',(-1.371528720679,-0.128542861763));
#95 = CARTESIAN_POINT('',(-1.11890230845,-6.052041798834E-02));
#96 = CARTESIAN_POINT('',(-0.812434199344,-9.108550284963E-02));
#97 = CARTESIAN_POINT('',(-0.606908851617,-9.84454592055E-02));
#98 = CARTESIAN_POINT('',(-0.596226952469,-6.213659010149E-02));
#99 = CARTESIAN_POINT('',(0.318912414497,-5.134664207961E-02));
#100 = CARTESIAN_POINT('',(0.523852714728,-8.176156176053E-02));
#101 = CARTESIAN_POINT('',(0.74512296014,-0.154274308906));
#102 = CARTESIAN_POINT('',(0.821855843823,-0.113816270799));
#103 = CARTESIAN_POINT('',(1.164052457211,-8.576922740835E-02));
#104 = CARTESIAN_POINT('',(1.364620408546,-4.466929849291E-02));
#105 = CARTESIAN_POINT('',(1.395789220332,-0.112032793767));
#106 = CARTESIAN_POINT('',(2.046606857483,-5.107091691224E-02));
#107 = CARTESIAN_POINT('',(2.426219406321,-0.105105288526));
#108 = CARTESIAN_POINT('',(2.514260728588,-0.130234060993));
#109 = CARTESIAN_POINT('',(2.563353293493,-9.083024179537E-02));
#110 = CARTESIAN_POINT('',(2.852352690877,-7.592937937798E-02));
#111 = CARTESIAN_POINT('',(3.010602030642,-4.568610805811E-02));
#112 = CARTESIAN_POINT('',(3.055030994785,-4.297334501939E-02));
#113 = CARTESIAN_POINT('',(3.235856826265,-9.160318835746E-02));
#114 = CARTESIAN_POINT('',(3.678869070088,-0.146001432484));
#115 = CARTESIAN_POINT('',(3.950760557041,-6.928753345518E-02));
#116 = ( GEOMETRIC_REPRESENTATION_CONTEXT(2) 
PARAMETRIC_REPRESENTATION_CONTEXT() REPRESENTATION_CONTEXT('2D SPACE',''
  ) );
#117 = ORIENTED_EDGE('',*,*,#118,.T.);
#118 = EDGE_CURVE('',#24,#119,#121,.T.);
#119 = VERTEX_POINT('',#120);
#120 = CARTESIAN_POINT('',(7.8,0.169287533455,0.));
#121 = SURFACE_CURVE('',#122,(#126),.PCURVE_S1.);
#122 = LINE('',#123,#124);
#123 = CARTESIAN_POINT('',(7.8,3.071246654482E-02,0.));
#124 = VECTOR('',#125,1.);
#125 = DIRECTION('',(0.,1.,0.));
#126 = PCURVE('',#69,#127);
#127 = DEFINITIONAL_REPRESENTATION('',(#128),#132);
#128 = LINE('',#129,#130);
#129 = CARTESIAN_POINT('',(3.950760557041,-6.928753345518E-02));
#130 = VECTOR('',#131,1.);
#131 = DIRECTION('',(0.,1.));
#132 = ( GEOMETRIC_REPRESENTATION_CONTEXT(2) 
PARAMETRIC_REPRESENTATION_CONTEXT() REPRESENTATION_CONTEXT('2D SPACE',''
  ) );
#133 = ORIENTED_EDGE('',*,*,#134,.T.);
#134 = EDGE_CURVE('',#119,#135,#137,.T.);
#135 = VERTEX_POINT('',#136);
#136 = CARTESIAN_POINT('',(0.,0.246801760899,0.));
#137 = SURFACE_CURVE('',#138,(#179),.PCURVE_S1.);
#138 = B_SPLINE_CURVE_WITH_KNOTS('',1,(#139,#140,#141,#142,#143,#144,
    #145,#146,#147,#148,#149,#150,#151,#152,#153,#154,#155,#156,#157,
    #158,#159,#160,#161,#162,#163,#164,#165,#166,#167,#168,#169,#170,
    #171,#172,#173,#174,#175,#176,#177,#178),.UNSPECIFIED.,.F.,.F.,(2,1,
    1,1,1,1,1,1,1,1,1,1,1,1,1,1,1,1,1,1,1,1,1,1,1,1,1,1,1,1,1,1,1,1,1,1,
    1,1,1,2),(0.,3.489967847215E-02,9.003858622583E-02,0.113170753591,
    0.118669541874,0.138572804286,0.174321994544,0.182098609582,
    0.193409205626,0.240777630985,0.321528837149,0.3306982677,
    0.355990452253,0.398405731333,0.409121908993,0.437887082111,
    0.463481833717,0.57654214716,0.581217673621,0.606623682339,
    0.644671284016,0.676991218329,0.689974771316,0.701934611184,
    0.722403414246,0.751072811839,0.781524707003,0.7855654782,
    0.792580013774,0.799406205538,0.813117634142,0.826469425787,
    0.844040427542,0.894366532488,0.917270102127,0.937661825287,
    0.943004218414,0.94892097061,0.970723445361,1.),.UNSPECIFIED.);
#139 = CARTESIAN_POINT('',(7.8,0.169287533455,0.));
#140 = CARTESIAN_POINT('',(7.528108513048,0.246001432484,0.));
#141 = CARTESIAN_POINT('',(7.085096269224,0.191603188357,0.));
#142 = CARTESIAN_POINT('',(6.904270437744,0.142973345019,0.));
#143 = CARTESIAN_POINT('',(6.859841473601,0.145686108058,0.));
#144 = CARTESIAN_POINT('',(6.701592133836,0.175929379378,0.));
#145 = CARTESIAN_POINT('',(6.412592736452,0.190830241795,0.));
#146 = CARTESIAN_POINT('',(6.363500171548,0.230234060993,0.));
#147 = CARTESIAN_POINT('',(6.27545884928,0.205105288526,0.));
#148 = CARTESIAN_POINT('',(5.895846300442,0.151070916912,0.));
#149 = CARTESIAN_POINT('',(5.245028663291,0.212032793767,0.));
#150 = CARTESIAN_POINT('',(5.213859851505,0.144669298493,0.));
#151 = CARTESIAN_POINT('',(5.013291900171,0.185769227408,0.));
#152 = CARTESIAN_POINT('',(4.671095286783,0.213816270799,0.));
#153 = CARTESIAN_POINT('',(4.5943624031,0.254274308906,0.));
#154 = CARTESIAN_POINT('',(4.373092157688,0.181761561761,0.));
#155 = CARTESIAN_POINT('',(4.168151857456,0.15134664208,0.));
#156 = CARTESIAN_POINT('',(3.25301249049,0.162136590101,0.));
#157 = CARTESIAN_POINT('',(3.242330591342,0.198445459205,0.));
#158 = CARTESIAN_POINT('',(3.036805243615,0.19108550285,0.));
#159 = CARTESIAN_POINT('',(2.730337134509,0.160520417988,0.));
#160 = CARTESIAN_POINT('',(2.477710722281,0.228542861763,0.));
#161 = CARTESIAN_POINT('',(2.412147865422,0.146400157005,0.));
#162 = CARTESIAN_POINT('',(2.319170303631,0.173379474067,0.));
#163 = CARTESIAN_POINT('',(2.157261706524,0.208581896161,0.));
#164 = CARTESIAN_POINT('',(1.92712718079,0.178644089784,0.));
#165 = CARTESIAN_POINT('',(1.689835177402,0.245397767707,0.));
#166 = CARTESIAN_POINT('',(1.658862712728,0.234880830997,0.));
#167 = CARTESIAN_POINT('',(1.639502044058,0.181502063331,0.));
#168 = CARTESIAN_POINT('',(1.584566686306,0.175550568246,0.));
#169 = CARTESIAN_POINT('',(1.480191470244,0.213298946056,0.));
#170 = CARTESIAN_POINT('',(1.376389103461,0.183191921056,0.));
#171 = CARTESIAN_POINT('',(1.236534227132,0.209098592608,0.));
#172 = CARTESIAN_POINT('',(0.829831727497,0.185599807342,0.));
#173 = CARTESIAN_POINT('',(0.646902538372,0.155430621095,0.));
#174 = CARTESIAN_POINT('',(0.482133296359,0.165346519333,0.));
#175 = CARTESIAN_POINT('',(0.446867824434,0.190377267327,0.));
#176 = CARTESIAN_POINT('',(0.404079901991,0.168856826491,0.));
#177 = CARTESIAN_POINT('',(0.235637596288,0.221534099996,0.));
#178 = CARTESIAN_POINT('',(0.,0.246801760899,0.));
#179 = PCURVE('',#69,#180);
#180 = DEFINITIONAL_REPRESENTATION('',(#181),#222);
#181 = B_SPLINE_CURVE_WITH_KNOTS('',1,(#182,#183,#184,#185,#186,#187,
    #188,#189,#190,#191,#192,#193,#194,#195,#196,#197,#198,#199,#200,
    #201,#202,#203,#204,#205,#206,#207,#208,#209,#210,#211,#212,#213,
    #214,#215,#216,#217,#218,#219,#220,#221),.UNSPECIFIED.,.F.,.F.,(2,1,
    1,1,1,1,1,1,1,1,1,1,1,1,1,1,1,1,1,1,1,1,1,1,1,1,1,1,1,1,1,1,1,1,1,1,
    1,1,1,2),(0.,3.489967847215E-02,9.003858622583E-02,0.113170753591,
    0.118669541874,0.138572804286,0.174321994544,0.182098609582,
    0.193409205626,0.240777630985,0.321528837149,0.3306982677,
    0.355990452253,0.398405731333,0.409121908993,0.437887082111,
    0.463481833717,0.57654214716,0.581217673621,0.606623682339,
    0.644671284016,0.676991218329,0.689974771316,0.701934611184,
    0.722403414246,0.751072811839,0.781524707003,0.7855654782,
    0.792580013774,0.799406205538,0.813117634142,0.826469425787,
    0.844040427542,0.894366532488,0.917270102127,0.937661825287,
    0.943004218414,0.94892097061,0.970723445361,1.),.UNSPECIFIED.);
#182 = CARTESIAN_POINT('',(3.950760557041,6.928753345518E-02));
#183 = CARTESIAN_POINT('',(3.678869070088,0.146001432484));
#184 = CARTESIAN_POINT('',(3.235856826265,9.160318835746E-02));
#185 = CARTESIAN_POINT('',(3.055030994785,4.297334501939E-02));
#186 = CARTESIAN_POINT('',(3.010602030642,4.568610805811E-02));
#187 = CARTESIAN_POINT('',(2.852352690877,7.592937937798E-02));
#188 = CARTESIAN_POINT('',(2.563353293493,9.083024179537E-02));
#189 = CARTESIAN_POINT('',(2.514260728588,0.130234060993));
#190 = CARTESIAN_POINT('',(2.426219406321,0.105105288526));
#191 = CARTESIAN_POINT('',(2.046606857483,5.107091691224E-02));
#192 = CARTESIAN_POINT('',(1.395789220332,0.112032793767));
#193 = CARTESIAN_POINT('',(1.364620408546,4.466929849291E-02));
#194 = CARTESIAN_POINT('',(1.164052457211,8.576922740835E-02));
#195 = CARTESIAN_POINT('',(0.821855843823,0.113816270799));
#196 = CARTESIAN_POINT('',(0.74512296014,0.154274308906));
#197 = CARTESIAN_POINT('',(0.523852714728,8.176156176053E-02));
#198 = CARTESIAN_POINT('',(0.318912414497,5.134664207961E-02));
#199 = CARTESIAN_POINT('',(-0.596226952469,6.213659010149E-02));
#200 = CARTESIAN_POINT('',(-0.606908851617,9.84454592055E-02));
#201 = CARTESIAN_POINT('',(-0.812434199344,9.108550284963E-02));
#202 = CARTESIAN_POINT('',(-1.11890230845,6.052041798834E-02));
#203 = CARTESIAN_POINT('',(-1.371528720679,0.128542861763));
#204 = CARTESIAN_POINT('',(-1.437091577537,4.640015700489E-02));
#205 = CARTESIAN_POINT('',(-1.530069139328,7.337947406707E-02));
#206 = CARTESIAN_POINT('',(-1.691977736435,0.108581896161));
#207 = CARTESIAN_POINT('',(-1.92211226217,7.864408978373E-02));
#208 = CARTESIAN_POINT('',(-2.159404265557,0.145397767707));
#209 = CARTESIAN_POINT('',(-2.190376730231,0.134880830997));
#210 = CARTESIAN_POINT('',(-2.209737398901,8.150206333129E-02));
#211 = CARTESIAN_POINT('',(-2.264672756654,7.555056824552E-02));
#212 = CARTESIAN_POINT('',(-2.369047972715,0.113298946056));
#213 = CARTESIAN_POINT('',(-2.472850339499,8.319192105578E-02));
#214 = CARTESIAN_POINT('',(-2.612705215828,0.109098592608));
#215 = CARTESIAN_POINT('',(-3.019407715463,8.559980734167E-02));
#216 = CARTESIAN_POINT('',(-3.202336904588,5.543062109502E-02));
#217 = CARTESIAN_POINT('',(-3.3671061466,6.534651933256E-02));
#218 = CARTESIAN_POINT('',(-3.402371618525,9.037726732669E-02));
#219 = CARTESIAN_POINT('',(-3.445159540968,6.885682649143E-02));
#220 = CARTESIAN_POINT('',(-3.613601846671,0.121534099996));
#221 = CARTESIAN_POINT('',(-3.849239442959,0.146801760899));
#222 = ( GEOMETRIC_REPRESENTATION_CONTEXT(2) 
PARAMETRIC_REPRESENTATION_CONTEXT() REPRESENTATION_CONTEXT('2D SPACE',''
  ) );
#223 = ORIENTED_EDGE('',*,*,#224,.T.);
#224 = EDGE_CURVE('',#135,#22,#225,.T.);
#225 = SURFACE_CURVE('',#226,(#230),.PCURVE_S1.);
#226 = LINE('',#227,#228);
#227 = CARTESIAN_POINT('',(0.,0.246801760899,0.));
#228 = VECTOR('',#229,1.);
#229 = DIRECTION('',(0.,-1.,0.));
#230 = PCURVE('',#69,#231);
#231 = DEFINITIONAL_REPRESENTATION('',(#232),#236);
#232 = LINE('',#233,#234);
#233 = CARTESIAN_POINT('',(-3.849239442959,0.146801760899));
#234 = VECTOR('',#235,1.);
#235 = DIRECTION('',(0.,-1.));
#236 = ( GEOMETRIC_REPRESENTATION_CONTEXT(2) 
PARAMETRIC_REPRESENTATION_CONTEXT() REPRESENTATION_CONTEXT('2D SPACE',''
  ) );
#237 = ( GEOMETRIC_REPRESENTATION_CONTEXT(3) 
GLOBAL_UNCERTAINTY_ASSIGNED_CONTEXT((#241)) GLOBAL_UNIT_ASSIGNED_CONTEXT
((#238,#239,#240)) REPRESENTATION_CONTEXT('Context #1',
  '3D Context with UNIT and UNCERTAINTY') );
#238 = ( LENGTH_UNIT() NAMED_UNIT(*) SI_UNIT(.MILLI.,.METRE.) );
#239 = ( NAMED_UNIT(*) PLANE_ANGLE_UNIT() SI_UNIT($,.RADIAN.) );
#240 = ( NAMED_UNIT(*) SI_UNIT($,.STERADIAN.) SOLID_ANGLE_UNIT() );
#241 = UNCERTAINTY_MEASURE_WITH_UNIT(LENGTH_MEASURE(1.E-07),#238,
  'distance_accuracy_value','confusion accuracy');
#242 = PRODUCT_RELATED_PRODUCT_CATEGORY('part',$,(#7));
ENDSEC;
END-ISO-10303-21;
