ISO-10303-21;
HEADER;
FILE_DESCRIPTION(('Open CASCADE Model'),'2;1');
FILE_NAME('Open CASCADE Shape Model','2026-05-29T14:30:30',('Author'),(
    'Open CASCADE'),'Open CASCADE STEP processor 7.9','Open CASCADE 7.9'
  ,'Unknown');
FILE_SCHEMA(('AUTOMOTIVE_DESIGN { 1 0 10303 214 1 1 1 1 }'));
ENDSEC;
DATA;
#1 = APPLICATION_PROTOCOL_DEFINITION('international standard',
  'automotive_design',2000,#2);
#2 = APPLICATION_CONTEXT(
  'core data for automotive mechanical design processes');
#3 = SHAPE_DEFINITION_REPRESENTATION(#4,#10);
#4 = PRODUCT_DEFINITION_SHAPE('','',#5);
#5 = PRODUCT_DEFINITION('design','',#6,#9);
#6 = PRODUCT_DEFINITION_FORMATION('','',#7);
#7 = PRODUCT('Open CASCADE STEP translator 7.9 1',
  'Open CASCADE STEP translator 7.9 1','',(#8));
#8 = PRODUCT_CONTEXT('',#2,'mechanical');
#9 = PRODUCT_DEFINITION_CONTEXT('part definition',#2,'design');
#10 = MANIFOLD_SURFACE_SHAPE_REPRESENTATION('',(#11,#15),#121);
#11 = AXIS2_PLACEMENT_3D('',#12,#13,#14);
#12 = CARTESIAN_POINT('',(0.,0.,0.));
#13 = DIRECTION('',(0.,0.,1.));
#14 = DIRECTION('',(1.,0.,-0.));
#15 = SHELL_BASED_SURFACE_MODEL('',(#16));
#16 = OPEN_SHELL('',(#17));
#17 = ADVANCED_FACE('',(#18),#40,.T.);
#18 = FACE_BOUND('',#19,.T.);
#19 = EDGE_LOOP('',(#20,#59,#75,#107));
#20 = ORIENTED_EDGE('',*,*,#21,.T.);
#21 = EDGE_CURVE('',#22,#24,#26,.T.);
#22 = VERTEX_POINT('',#23);
#23 = CARTESIAN_POINT('',(0.,11.628177819068,0.));
#24 = VERTEX_POINT('',#25);
#25 = CARTESIAN_POINT('',(1.5E+03,-23.22789660768,0.));
#26 = SURFACE_CURVE('',#27,(#39),.PCURVE_S1.);
#27 = B_SPLINE_CURVE_WITH_KNOTS('',1,(#28,#29,#30,#31,#32,#33,#34,#35,
    #36,#37,#38),.UNSPECIFIED.,.F.,.F.,(2,1,1,1,1,1,1,1,1,1,2),(0.,
    0.150854849111,0.295513300607,0.442184397187,0.482999451788,
    0.510125208949,0.608698463447,0.707371949472,0.898278615119,
    0.924535205098,1.),.UNSPECIFIED.);
#28 = CARTESIAN_POINT('',(0.,11.628177819068,0.));
#29 = CARTESIAN_POINT('',(227.54985569929,-38.40884899637,0.));
#30 = CARTESIAN_POINT('',(449.51070661422,-12.94786080726,0.));
#31 = CARTESIAN_POINT('',(675.46258476045,-29.04854519437,0.));
#32 = CARTESIAN_POINT('',(728.45282008965,5.09272210554,0.));
#33 = CARTESIAN_POINT('',(765.55523866068,24.54851503937,0.));
#34 = CARTESIAN_POINT('',(914.91795734674,-4.912630831425,0.));
#35 = CARTESIAN_POINT('',(1.06077210213E+03,39.256446950624,0.));
#36 = CARTESIAN_POINT('',(1.347490347943E+03,-29.48680547933,0.));
#37 = CARTESIAN_POINT('',(1.384005821344E+03,-11.84979592098,0.));
#38 = CARTESIAN_POINT('',(1.5E+03,-23.22789660768,0.));
#39 = PCURVE('',#40,#45);
#40 = PLANE('',#41);
#41 = AXIS2_PLACEMENT_3D('',#42,#43,#44);
#42 = CARTESIAN_POINT('',(767.50022696989,75.,0.));
#43 = DIRECTION('',(0.,0.,1.));
#44 = DIRECTION('',(1.,0.,-0.));
#45 = DEFINITIONAL_REPRESENTATION('',(#46),#58);
#46 = B_SPLINE_CURVE_WITH_KNOTS('',1,(#47,#48,#49,#50,#51,#52,#53,#54,
    #55,#56,#57),.UNSPECIFIED.,.F.,.F.,(2,1,1,1,1,1,1,1,1,1,2),(0.,
    0.150854849111,0.295513300607,0.442184397187,0.482999451788,
    0.510125208949,0.608698463447,0.707371949472,0.898278615119,
    0.924535205098,1.),.UNSPECIFIED.);
#47 = CARTESIAN_POINT('',(-767.5002269698,-63.37182218093));
#48 = CARTESIAN_POINT('',(-539.9503712705,-113.4088489963));
#49 = CARTESIAN_POINT('',(-317.9895203556,-87.94786080726));
#50 = CARTESIAN_POINT('',(-92.03764220943,-104.0485451943));
#51 = CARTESIAN_POINT('',(-39.04740688023,-69.90727789446));
#52 = CARTESIAN_POINT('',(-1.94498830921,-50.45148496063));
#53 = CARTESIAN_POINT('',(147.41773037685,-79.91263083142));
#54 = CARTESIAN_POINT('',(293.27187515979,-35.74355304937));
#55 = CARTESIAN_POINT('',(579.99012097261,-104.4868054793));
#56 = CARTESIAN_POINT('',(616.50559437436,-86.84979592098));
#57 = CARTESIAN_POINT('',(732.4997730301,-98.22789660768));
#58 = ( GEOMETRIC_REPRESENTATION_CONTEXT(2) 
PARAMETRIC_REPRESENTATION_CONTEXT() REPRESENTATION_CONTEXT('2D SPACE',''
  ) );
#59 = ORIENTED_EDGE('',*,*,#60,.T.);
#60 = EDGE_CURVE('',#24,#61,#63,.T.);
#61 = VERTEX_POINT('',#62);
#62 = CARTESIAN_POINT('',(1.5E+03,173.22789660768,0.));
#63 = SURFACE_CURVE('',#64,(#68),.PCURVE_S1.);
#64 = LINE('',#65,#66);
#65 = CARTESIAN_POINT('',(1.5E+03,-23.22789660768,0.));
#66 = VECTOR('',#67,1.);
#67 = DIRECTION('',(0.,1.,0.));
#68 = PCURVE('',#40,#69);
#69 = DEFINITIONAL_REPRESENTATION('',(#70),#74);
#70 = LINE('',#71,#72);
#71 = CARTESIAN_POINT('',(732.4997730301,-98.22789660768));
#72 = VECTOR('',#73,1.);
#73 = DIRECTION('',(0.,1.));
#74 = ( GEOMETRIC_REPRESENTATION_CONTEXT(2) 
PARAMETRIC_REPRESENTATION_CONTEXT() REPRESENTATION_CONTEXT('2D SPACE',''
  ) );
#75 = ORIENTED_EDGE('',*,*,#76,.T.);
#76 = EDGE_CURVE('',#61,#77,#79,.T.);
#77 = VERTEX_POINT('',#78);
#78 = CARTESIAN_POINT('',(0.,138.37182218093,0.));
#79 = SURFACE_CURVE('',#80,(#92),.PCURVE_S1.);
#80 = B_SPLINE_CURVE_WITH_KNOTS('',1,(#81,#82,#83,#84,#85,#86,#87,#88,
    #89,#90,#91),.UNSPECIFIED.,.F.,.F.,(2,1,1,1,1,1,1,1,1,1,2),(0.,
    7.546479490198E-02,0.101721384881,0.292628050528,0.391301536553,
    0.489874791051,0.517000548212,0.557815602813,0.704486699393,
    0.849145150889,1.),.UNSPECIFIED.);
#81 = CARTESIAN_POINT('',(1.5E+03,173.22789660768,0.));
#82 = CARTESIAN_POINT('',(1.384005821344E+03,161.84979592098,0.));
#83 = CARTESIAN_POINT('',(1.347490347943E+03,179.48680547933,0.));
#84 = CARTESIAN_POINT('',(1.06077210213E+03,110.74355304937,0.));
#85 = CARTESIAN_POINT('',(914.91795734674,154.91263083142,0.));
#86 = CARTESIAN_POINT('',(765.55523866068,125.45148496063,0.));
#87 = CARTESIAN_POINT('',(728.45282008965,144.90727789446,0.));
#88 = CARTESIAN_POINT('',(675.46258476045,179.04854519437,0.));
#89 = CARTESIAN_POINT('',(449.51070661422,162.94786080726,0.));
#90 = CARTESIAN_POINT('',(227.54985569929,188.40884899637,0.));
#91 = CARTESIAN_POINT('',(0.,138.37182218093,0.));
#92 = PCURVE('',#40,#93);
#93 = DEFINITIONAL_REPRESENTATION('',(#94),#106);
#94 = B_SPLINE_CURVE_WITH_KNOTS('',1,(#95,#96,#97,#98,#99,#100,#101,#102
    ,#103,#104,#105),.UNSPECIFIED.,.F.,.F.,(2,1,1,1,1,1,1,1,1,1,2),(0.,
    7.546479490198E-02,0.101721384881,0.292628050528,0.391301536553,
    0.489874791051,0.517000548212,0.557815602813,0.704486699393,
    0.849145150889,1.),.UNSPECIFIED.);
#95 = CARTESIAN_POINT('',(732.4997730301,98.227896607684));
#96 = CARTESIAN_POINT('',(616.50559437436,86.849795920986));
#97 = CARTESIAN_POINT('',(579.99012097261,104.48680547933));
#98 = CARTESIAN_POINT('',(293.27187515979,35.743553049376));
#99 = CARTESIAN_POINT('',(147.41773037685,79.912630831425));
#100 = CARTESIAN_POINT('',(-1.94498830921,50.45148496063));
#101 = CARTESIAN_POINT('',(-39.04740688023,69.90727789446));
#102 = CARTESIAN_POINT('',(-92.03764220943,104.04854519437));
#103 = CARTESIAN_POINT('',(-317.9895203556,87.94786080726));
#104 = CARTESIAN_POINT('',(-539.9503712705,113.40884899637));
#105 = CARTESIAN_POINT('',(-767.5002269698,63.371822180932));
#106 = ( GEOMETRIC_REPRESENTATION_CONTEXT(2) 
PARAMETRIC_REPRESENTATION_CONTEXT() REPRESENTATION_CONTEXT('2D SPACE',''
  ) );
#107 = ORIENTED_EDGE('',*,*,#108,.T.);
#108 = EDGE_CURVE('',#77,#22,#109,.T.);
#109 = SURFACE_CURVE('',#110,(#114),.PCURVE_S1.);
#110 = LINE('',#111,#112);
#111 = CARTESIAN_POINT('',(0.,138.37182218093,0.));
#112 = VECTOR('',#113,1.);
#113 = DIRECTION('',(0.,-1.,0.));
#114 = PCURVE('',#40,#115);
#115 = DEFINITIONAL_REPRESENTATION('',(#116),#120);
#116 = LINE('',#117,#118);
#117 = CARTESIAN_POINT('',(-767.5002269698,63.371822180932));
#118 = VECTOR('',#119,1.);
#119 = DIRECTION('',(0.,-1.));
#120 = ( GEOMETRIC_REPRESENTATION_CONTEXT(2) 
PARAMETRIC_REPRESENTATION_CONTEXT() REPRESENTATION_CONTEXT('2D SPACE',''
  ) );
#121 = ( GEOMETRIC_REPRESENTATION_CONTEXT(3) 
GLOBAL_UNCERTAINTY_ASSIGNED_CONTEXT((#125)) GLOBAL_UNIT_ASSIGNED_CONTEXT
((#122,#123,#124)) REPRESENTATION_CONTEXT('Context #1',
  '3D Context with UNIT and UNCERTAINTY') );
#122 = ( LENGTH_UNIT() NAMED_UNIT(*) SI_UNIT(.MILLI.,.METRE.) );
#123 = ( NAMED_UNIT(*) PLANE_ANGLE_UNIT() SI_UNIT($,.RADIAN.) );
#124 = ( NAMED_UNIT(*) SI_UNIT($,.STERADIAN.) SOLID_ANGLE_UNIT() );
#125 = UNCERTAINTY_MEASURE_WITH_UNIT(LENGTH_MEASURE(1.E-07),#122,
  'distance_accuracy_value','confusion accuracy');
#126 = PRODUCT_RELATED_PRODUCT_CATEGORY('part',$,(#7));
ENDSEC;
END-ISO-10303-21;
