ISO-10303-21;
HEADER;
FILE_DESCRIPTION(('Open CASCADE Model'),'2;1');
FILE_NAME('Open CASCADE Shape Model','2026-05-28T17:04:48',('Author'),(
    'Open CASCADE'),'Open CASCADE STEP processor 7.9','Open CASCADE 7.9'
  ,'Unknown');
FILE_SCHEMA(('AUTOMOTIVE_DESIGN { 1 0 10303 214 1 1 1 1 }'));
ENDSEC;
DATA;
#1 = APPLICATION_PROTOCOL_DEFINITION('international standard',
  'automotive_design',2000,#2);
#2 = APPLICATION_CONTEXT(
  'core data for automotive mechanical design processes');
#3 = SHAPE_DEFINITION_REPRESENTATION(#4,#10);
#4 = PRODUCT_DEFINITION_SHAPE('','',#5);
#5 = PRODUCT_DEFINITION('design','',#6,#9);
#6 = PRODUCT_DEFINITION_FORMATION('','',#7);
#7 = PRODUCT('Open CASCADE STEP translator 7.9 18',
  'Open CASCADE STEP translator 7.9 18','',(#8));
#8 = PRODUCT_CONTEXT('',#2,'mechanical');
#9 = PRODUCT_DEFINITION_CONTEXT('part definition',#2,'design');
#10 = MANIFOLD_SURFACE_SHAPE_REPRESENTATION('',(#11,#15),#197);
#11 = AXIS2_PLACEMENT_3D('',#12,#13,#14);
#12 = CARTESIAN_POINT('',(0.,0.,0.));
#13 = DIRECTION('',(0.,0.,1.));
#14 = DIRECTION('',(1.,0.,-0.));
#15 = SHELL_BASED_SURFACE_MODEL('',(#16));
#16 = OPEN_SHELL('',(#17));
#17 = ADVANCED_FACE('',(#18),#59,.T.);
#18 = FACE_BOUND('',#19,.T.);
#19 = EDGE_LOOP('',(#20,#97,#113,#183));
#20 = ORIENTED_EDGE('',*,*,#21,.T.);
#21 = EDGE_CURVE('',#22,#24,#26,.T.);
#22 = VERTEX_POINT('',#23);
#23 = CARTESIAN_POINT('',(0.,-7.41827160756E-03,0.));
#24 = VERTEX_POINT('',#25);
#25 = CARTESIAN_POINT('',(5.8,-2.416693214921E-02,0.));
#26 = SURFACE_CURVE('',#27,(#58),.PCURVE_S1.);
#27 = B_SPLINE_CURVE_WITH_KNOTS('',1,(#28,#29,#30,#31,#32,#33,#34,#35,
    #36,#37,#38,#39,#40,#41,#42,#43,#44,#45,#46,#47,#48,#49,#50,#51,#52,
    #53,#54,#55,#56,#57),.UNSPECIFIED.,.F.,.F.,(2,1,1,1,1,1,1,1,1,1,1,1,
    1,1,1,1,1,1,1,1,1,1,1,1,1,1,1,1,1,2),(0.,3.890735843657E-02,
    0.124536113088,0.148341463197,0.174232961234,0.294976984401,
    0.312152253569,0.334884659146,0.357650411847,0.384023173321,
    0.393885445282,0.440122355933,0.451171792596,0.462429441929,
    0.52034883934,0.586413683137,0.617912562501,0.646969608066,
    0.648614140338,0.66991560199,0.716995360385,0.733005125848,
    0.744093817965,0.83699309683,0.88186424605,0.911208759008,
    0.93639311364,0.950709369115,0.991492842719,1.),.UNSPECIFIED.);
#28 = CARTESIAN_POINT('',(0.,-7.41827160756E-03,0.));
#29 = CARTESIAN_POINT('',(0.233471691652,-2.637390420259E-02,0.));
#30 = CARTESIAN_POINT('',(0.748374331656,-1.072098210163E-03,0.));
#31 = CARTESIAN_POINT('',(0.883494918914,-4.885035922914E-02,0.));
#32 = CARTESIAN_POINT('',(1.027965907246,9.683881448663E-03,0.));
#33 = CARTESIAN_POINT('',(1.7543856306,-1.76486157772E-02,0.));
#34 = CARTESIAN_POINT('',(1.851107668727,1.891650800399E-02,0.));
#35 = CARTESIAN_POINT('',(1.987739127979,1.102119981228E-02,0.));
#36 = CARTESIAN_POINT('',(2.124745833628,7.193987011974E-03,0.));
#37 = CARTESIAN_POINT('',(2.278978871107,4.490315780253E-02,0.));
#38 = CARTESIAN_POINT('',(2.338213183891,4.899315851292E-02,0.));
#39 = CARTESIAN_POINT('',(2.607869592852,-2.009879077761E-02,0.));
#40 = CARTESIAN_POINT('',(2.674376694898,-1.866212860117E-02,0.));
#41 = CARTESIAN_POINT('',(2.742147042002,-1.954916570521E-02,0.));
#42 = CARTESIAN_POINT('',(3.082200107264,5.762802655888E-02,0.));
#43 = CARTESIAN_POINT('',(3.478233068953,2.081437887939E-02,0.));
#44 = CARTESIAN_POINT('',(3.667240315575,3.62628183289E-02,0.));
#45 = CARTESIAN_POINT('',(3.82771754655,-3.337817070528E-02,0.));
#46 = CARTESIAN_POINT('',(3.827975169047,-4.327564816754E-02,0.));
#47 = CARTESIAN_POINT('',(3.932945553103,3.039835473286E-02,0.));
#48 = CARTESIAN_POINT('',(4.211844744627,-2.014189906176E-02,0.));
#49 = CARTESIAN_POINT('',(4.283362133582,4.447646358501E-02,0.));
#50 = CARTESIAN_POINT('',(4.347787989753,2.698169692779E-02,0.));
#51 = CARTESIAN_POINT('',(4.906843855586,4.336146045199E-02,0.));
#52 = CARTESIAN_POINT('',(5.176428600186,2.597750800809E-02,0.));
#53 = CARTESIAN_POINT('',(5.346744210899,-2.096838568191E-02,0.));
#54 = CARTESIAN_POINT('',(5.495706478063,-4.923922922223E-02,0.));
#55 = CARTESIAN_POINT('',(5.510354348822,3.56973110491E-02,0.));
#56 = CARTESIAN_POINT('',(5.752484755686,-5.049484194086E-03,0.));
#57 = CARTESIAN_POINT('',(5.8,-2.416693214921E-02,0.));
#58 = PCURVE('',#59,#64);
#59 = PLANE('',#60);
#60 = AXIS2_PLACEMENT_3D('',#61,#62,#63);
#61 = CARTESIAN_POINT('',(2.949127653217,0.1,0.));
#62 = DIRECTION('',(0.,0.,1.));
#63 = DIRECTION('',(1.,0.,-0.));
#64 = DEFINITIONAL_REPRESENTATION('',(#65),#96);
#65 = B_SPLINE_CURVE_WITH_KNOTS('',1,(#66,#67,#68,#69,#70,#71,#72,#73,
    #74,#75,#76,#77,#78,#79,#80,#81,#82,#83,#84,#85,#86,#87,#88,#89,#90,
    #91,#92,#93,#94,#95),.UNSPECIFIED.,.F.,.F.,(2,1,1,1,1,1,1,1,1,1,1,1,
    1,1,1,1,1,1,1,1,1,1,1,1,1,1,1,1,1,2),(0.,3.890735843657E-02,
    0.124536113088,0.148341463197,0.174232961234,0.294976984401,
    0.312152253569,0.334884659146,0.357650411847,0.384023173321,
    0.393885445282,0.440122355933,0.451171792596,0.462429441929,
    0.52034883934,0.586413683137,0.617912562501,0.646969608066,
    0.648614140338,0.66991560199,0.716995360385,0.733005125848,
    0.744093817965,0.83699309683,0.88186424605,0.911208759008,
    0.93639311364,0.950709369115,0.991492842719,1.),.UNSPECIFIED.);
#66 = CARTESIAN_POINT('',(-2.949127653217,-0.107418271608));
#67 = CARTESIAN_POINT('',(-2.715655961566,-0.126373904203));
#68 = CARTESIAN_POINT('',(-2.200753321561,-0.10107209821));
#69 = CARTESIAN_POINT('',(-2.065632734303,-0.148850359229));
#70 = CARTESIAN_POINT('',(-1.921161745971,-9.031611855134E-02));
#71 = CARTESIAN_POINT('',(-1.194742022617,-0.117648615777));
#72 = CARTESIAN_POINT('',(-1.09801998449,-8.108349199601E-02));
#73 = CARTESIAN_POINT('',(-0.961388525238,-8.897880018772E-02));
#74 = CARTESIAN_POINT('',(-0.824381819589,-9.280601298803E-02));
#75 = CARTESIAN_POINT('',(-0.67014878211,-5.509684219747E-02));
#76 = CARTESIAN_POINT('',(-0.610914469326,-5.100684148708E-02));
#77 = CARTESIAN_POINT('',(-0.341258060366,-0.120098790778));
#78 = CARTESIAN_POINT('',(-0.274750958319,-0.118662128601));
#79 = CARTESIAN_POINT('',(-0.206980611215,-0.119549165705));
#80 = CARTESIAN_POINT('',(0.133072454047,-4.237197344112E-02));
#81 = CARTESIAN_POINT('',(0.529105415736,-7.918562112061E-02));
#82 = CARTESIAN_POINT('',(0.718112662358,-6.37371816711E-02));
#83 = CARTESIAN_POINT('',(0.878589893333,-0.133378170705));
#84 = CARTESIAN_POINT('',(0.87884751583,-0.143275648168));
#85 = CARTESIAN_POINT('',(0.983817899886,-6.960164526714E-02));
#86 = CARTESIAN_POINT('',(1.262717091409,-0.120141899062));
#87 = CARTESIAN_POINT('',(1.334234480365,-5.552353641499E-02));
#88 = CARTESIAN_POINT('',(1.398660336535,-7.301830307221E-02));
#89 = CARTESIAN_POINT('',(1.957716202369,-5.663853954801E-02));
#90 = CARTESIAN_POINT('',(2.227300946969,-7.402249199191E-02));
#91 = CARTESIAN_POINT('',(2.397616557682,-0.120968385682));
#92 = CARTESIAN_POINT('',(2.546578824846,-0.149239229222));
#93 = CARTESIAN_POINT('',(2.561226695605,-6.43026889509E-02));
#94 = CARTESIAN_POINT('',(2.803357102469,-0.105049484194));
#95 = CARTESIAN_POINT('',(2.850872346783,-0.124166932149));
#96 = ( GEOMETRIC_REPRESENTATION_CONTEXT(2) 
PARAMETRIC_REPRESENTATION_CONTEXT() REPRESENTATION_CONTEXT('2D SPACE',''
  ) );
#97 = ORIENTED_EDGE('',*,*,#98,.T.);
#98 = EDGE_CURVE('',#24,#99,#101,.T.);
#99 = VERTEX_POINT('',#100);
#100 = CARTESIAN_POINT('',(5.8,0.224166932149,0.));
#101 = SURFACE_CURVE('',#102,(#106),.PCURVE_S1.);
#102 = LINE('',#103,#104);
#103 = CARTESIAN_POINT('',(5.8,-2.416693214921E-02,0.));
#104 = VECTOR('',#105,1.);
#105 = DIRECTION('',(0.,1.,0.));
#106 = PCURVE('',#59,#107);
#107 = DEFINITIONAL_REPRESENTATION('',(#108),#112);
#108 = LINE('',#109,#110);
#109 = CARTESIAN_POINT('',(2.850872346783,-0.124166932149));
#110 = VECTOR('',#111,1.);
#111 = DIRECTION('',(0.,1.));
#112 = ( GEOMETRIC_REPRESENTATION_CONTEXT(2) 
PARAMETRIC_REPRESENTATION_CONTEXT() REPRESENTATION_CONTEXT('2D SPACE',''
  ) );
#113 = ORIENTED_EDGE('',*,*,#114,.T.);
#114 = EDGE_CURVE('',#99,#115,#117,.T.);
#115 = VERTEX_POINT('',#116);
#116 = CARTESIAN_POINT('',(0.,0.207418271608,0.));
#117 = SURFACE_CURVE('',#118,(#149),.PCURVE_S1.);
#118 = B_SPLINE_CURVE_WITH_KNOTS('',1,(#119,#120,#121,#122,#123,#124,
    #125,#126,#127,#128,#129,#130,#131,#132,#133,#134,#135,#136,#137,
    #138,#139,#140,#141,#142,#143,#144,#145,#146,#147,#148),
  .UNSPECIFIED.,.F.,.F.,(2,1,1,1,1,1,1,1,1,1,1,1,1,1,1,1,1,1,1,1,1,1,1,1
    ,1,1,1,1,1,2),(0.,8.507157281343E-03,4.929063088532E-02,
    6.360688635988E-02,8.879124099198E-02,0.11813575395,0.16300690317,
    0.255906182035,0.266994874152,0.283004639615,0.33008439801,
    0.351385859662,0.353030391934,0.382087437499,0.413586316863,
    0.47965116066,0.537570558071,0.548828207404,0.559877644067,
    0.606114554718,0.615976826679,0.642349588153,0.665115340854,
    0.687847746431,0.705023015599,0.825767038766,0.851658536803,
    0.875463886912,0.961092641563,1.),.UNSPECIFIED.);
#119 = CARTESIAN_POINT('',(5.8,0.224166932149,0.));
#120 = CARTESIAN_POINT('',(5.752484755686,0.205049484194,0.));
#121 = CARTESIAN_POINT('',(5.510354348822,0.164302688951,0.));
#122 = CARTESIAN_POINT('',(5.495706478063,0.249239229222,0.));
#123 = CARTESIAN_POINT('',(5.346744210899,0.220968385682,0.));
#124 = CARTESIAN_POINT('',(5.176428600186,0.174022491992,0.));
#125 = CARTESIAN_POINT('',(4.906843855586,0.156638539548,0.));
#126 = CARTESIAN_POINT('',(4.347787989753,0.173018303072,0.));
#127 = CARTESIAN_POINT('',(4.283362133582,0.155523536415,0.));
#128 = CARTESIAN_POINT('',(4.211844744627,0.220141899062,0.));
#129 = CARTESIAN_POINT('',(3.932945553103,0.169601645267,0.));
#130 = CARTESIAN_POINT('',(3.827975169047,0.243275648168,0.));
#131 = CARTESIAN_POINT('',(3.82771754655,0.233378170705,0.));
#132 = CARTESIAN_POINT('',(3.667240315575,0.163737181671,0.));
#133 = CARTESIAN_POINT('',(3.478233068953,0.179185621121,0.));
#134 = CARTESIAN_POINT('',(3.082200107264,0.142371973441,0.));
#135 = CARTESIAN_POINT('',(2.742147042002,0.219549165705,0.));
#136 = CARTESIAN_POINT('',(2.674376694898,0.218662128601,0.));
#137 = CARTESIAN_POINT('',(2.607869592852,0.220098790778,0.));
#138 = CARTESIAN_POINT('',(2.338213183891,0.151006841487,0.));
#139 = CARTESIAN_POINT('',(2.278978871107,0.155096842197,0.));
#140 = CARTESIAN_POINT('',(2.124745833628,0.192806012988,0.));
#141 = CARTESIAN_POINT('',(1.987739127979,0.188978800188,0.));
#142 = CARTESIAN_POINT('',(1.851107668727,0.181083491996,0.));
#143 = CARTESIAN_POINT('',(1.7543856306,0.217648615777,0.));
#144 = CARTESIAN_POINT('',(1.027965907246,0.190316118551,0.));
#145 = CARTESIAN_POINT('',(0.883494918914,0.248850359229,0.));
#146 = CARTESIAN_POINT('',(0.748374331656,0.20107209821,0.));
#147 = CARTESIAN_POINT('',(0.233471691652,0.226373904203,0.));
#148 = CARTESIAN_POINT('',(0.,0.207418271608,0.));
#149 = PCURVE('',#59,#150);
#150 = DEFINITIONAL_REPRESENTATION('',(#151),#182);
#151 = B_SPLINE_CURVE_WITH_KNOTS('',1,(#152,#153,#154,#155,#156,#157,
    #158,#159,#160,#161,#162,#163,#164,#165,#166,#167,#168,#169,#170,
    #171,#172,#173,#174,#175,#176,#177,#178,#179,#180,#181),
  .UNSPECIFIED.,.F.,.F.,(2,1,1,1,1,1,1,1,1,1,1,1,1,1,1,1,1,1,1,1,1,1,1,1
    ,1,1,1,1,1,2),(0.,8.507157281343E-03,4.929063088532E-02,
    6.360688635988E-02,8.879124099198E-02,0.11813575395,0.16300690317,
    0.255906182035,0.266994874152,0.283004639615,0.33008439801,
    0.351385859662,0.353030391934,0.382087437499,0.413586316863,
    0.47965116066,0.537570558071,0.548828207404,0.559877644067,
    0.606114554718,0.615976826679,0.642349588153,0.665115340854,
    0.687847746431,0.705023015599,0.825767038766,0.851658536803,
    0.875463886912,0.961092641563,1.),.UNSPECIFIED.);
#152 = CARTESIAN_POINT('',(2.850872346783,0.124166932149));
#153 = CARTESIAN_POINT('',(2.803357102469,0.105049484194));
#154 = CARTESIAN_POINT('',(2.561226695605,6.43026889509E-02));
#155 = CARTESIAN_POINT('',(2.546578824846,0.149239229222));
#156 = CARTESIAN_POINT('',(2.397616557682,0.120968385682));
#157 = CARTESIAN_POINT('',(2.227300946969,7.402249199191E-02));
#158 = CARTESIAN_POINT('',(1.957716202369,5.663853954801E-02));
#159 = CARTESIAN_POINT('',(1.398660336535,7.301830307221E-02));
#160 = CARTESIAN_POINT('',(1.334234480365,5.552353641499E-02));
#161 = CARTESIAN_POINT('',(1.262717091409,0.120141899062));
#162 = CARTESIAN_POINT('',(0.983817899886,6.960164526714E-02));
#163 = CARTESIAN_POINT('',(0.87884751583,0.143275648168));
#164 = CARTESIAN_POINT('',(0.878589893333,0.133378170705));
#165 = CARTESIAN_POINT('',(0.718112662358,6.37371816711E-02));
#166 = CARTESIAN_POINT('',(0.529105415736,7.918562112061E-02));
#167 = CARTESIAN_POINT('',(0.133072454047,4.237197344112E-02));
#168 = CARTESIAN_POINT('',(-0.206980611215,0.119549165705));
#169 = CARTESIAN_POINT('',(-0.274750958319,0.118662128601));
#170 = CARTESIAN_POINT('',(-0.341258060366,0.120098790778));
#171 = CARTESIAN_POINT('',(-0.610914469326,5.100684148708E-02));
#172 = CARTESIAN_POINT('',(-0.67014878211,5.509684219747E-02));
#173 = CARTESIAN_POINT('',(-0.824381819589,9.280601298803E-02));
#174 = CARTESIAN_POINT('',(-0.961388525238,8.897880018772E-02));
#175 = CARTESIAN_POINT('',(-1.09801998449,8.108349199601E-02));
#176 = CARTESIAN_POINT('',(-1.194742022617,0.117648615777));
#177 = CARTESIAN_POINT('',(-1.921161745971,9.031611855134E-02));
#178 = CARTESIAN_POINT('',(-2.065632734303,0.148850359229));
#179 = CARTESIAN_POINT('',(-2.200753321561,0.10107209821));
#180 = CARTESIAN_POINT('',(-2.715655961566,0.126373904203));
#181 = CARTESIAN_POINT('',(-2.949127653217,0.107418271608));
#182 = ( GEOMETRIC_REPRESENTATION_CONTEXT(2) 
PARAMETRIC_REPRESENTATION_CONTEXT() REPRESENTATION_CONTEXT('2D SPACE',''
  ) );
#183 = ORIENTED_EDGE('',*,*,#184,.T.);
#184 = EDGE_CURVE('',#115,#22,#185,.T.);
#185 = SURFACE_CURVE('',#186,(#190),.PCURVE_S1.);
#186 = LINE('',#187,#188);
#187 = CARTESIAN_POINT('',(0.,0.207418271608,0.));
#188 = VECTOR('',#189,1.);
#189 = DIRECTION('',(0.,-1.,0.));
#190 = PCURVE('',#59,#191);
#191 = DEFINITIONAL_REPRESENTATION('',(#192),#196);
#192 = LINE('',#193,#194);
#193 = CARTESIAN_POINT('',(-2.949127653217,0.107418271608));
#194 = VECTOR('',#195,1.);
#195 = DIRECTION('',(0.,-1.));
#196 = ( GEOMETRIC_REPRESENTATION_CONTEXT(2) 
PARAMETRIC_REPRESENTATION_CONTEXT() REPRESENTATION_CONTEXT('2D SPACE',''
  ) );
#197 = ( GEOMETRIC_REPRESENTATION_CONTEXT(3) 
GLOBAL_UNCERTAINTY_ASSIGNED_CONTEXT((#201)) GLOBAL_UNIT_ASSIGNED_CONTEXT
((#198,#199,#200)) REPRESENTATION_CONTEXT('Context #1',
  '3D Context with UNIT and UNCERTAINTY') );
#198 = ( LENGTH_UNIT() NAMED_UNIT(*) SI_UNIT(.MILLI.,.METRE.) );
#199 = ( NAMED_UNIT(*) PLANE_ANGLE_UNIT() SI_UNIT($,.RADIAN.) );
#200 = ( NAMED_UNIT(*) SI_UNIT($,.STERADIAN.) SOLID_ANGLE_UNIT() );
#201 = UNCERTAINTY_MEASURE_WITH_UNIT(LENGTH_MEASURE(1.E-07),#198,
  'distance_accuracy_value','confusion accuracy');
#202 = PRODUCT_RELATED_PRODUCT_CATEGORY('part',$,(#7));
ENDSEC;
END-ISO-10303-21;
