ISO-10303-21;
HEADER;
FILE_DESCRIPTION(('Open CASCADE Model'),'2;1');
FILE_NAME('Open CASCADE Shape Model','2026-05-28T17:04:49',('Author'),(
    'Open CASCADE'),'Open CASCADE STEP processor 7.9','Open CASCADE 7.9'
  ,'Unknown');
FILE_SCHEMA(('AUTOMOTIVE_DESIGN { 1 0 10303 214 1 1 1 1 }'));
ENDSEC;
DATA;
#1 = APPLICATION_PROTOCOL_DEFINITION('international standard',
  'automotive_design',2000,#2);
#2 = APPLICATION_CONTEXT(
  'core data for automotive mechanical design processes');
#3 = SHAPE_DEFINITION_REPRESENTATION(#4,#10);
#4 = PRODUCT_DEFINITION_SHAPE('','',#5);
#5 = PRODUCT_DEFINITION('design','',#6,#9);
#6 = PRODUCT_DEFINITION_FORMATION('','',#7);
#7 = PRODUCT('Open CASCADE STEP translator 7.9 57',
  'Open CASCADE STEP translator 7.9 57','',(#8));
#8 = PRODUCT_CONTEXT('',#2,'mechanical');
#9 = PRODUCT_DEFINITION_CONTEXT('part definition',#2,'design');
#10 = MANIFOLD_SURFACE_SHAPE_REPRESENTATION('',(#11,#15),#141);
#11 = AXIS2_PLACEMENT_3D('',#12,#13,#14);
#12 = CARTESIAN_POINT('',(0.,0.,0.));
#13 = DIRECTION('',(0.,0.,1.));
#14 = DIRECTION('',(1.,0.,-0.));
#15 = SHELL_BASED_SURFACE_MODEL('',(#16));
#16 = OPEN_SHELL('',(#17));
#17 = ADVANCED_FACE('',(#18),#45,.T.);
#18 = FACE_BOUND('',#19,.T.);
#19 = EDGE_LOOP('',(#20,#69,#85,#127));
#20 = ORIENTED_EDGE('',*,*,#21,.T.);
#21 = EDGE_CURVE('',#22,#24,#26,.T.);
#22 = VERTEX_POINT('',#23);
#23 = CARTESIAN_POINT('',(0.,-5.451219321127E-02,0.));
#24 = VERTEX_POINT('',#25);
#25 = CARTESIAN_POINT('',(3.,-2.885344257338E-02,0.));
#26 = SURFACE_CURVE('',#27,(#44),.PCURVE_S1.);
#27 = B_SPLINE_CURVE_WITH_KNOTS('',1,(#28,#29,#30,#31,#32,#33,#34,#35,
    #36,#37,#38,#39,#40,#41,#42,#43),.UNSPECIFIED.,.F.,.F.,(2,1,1,1,1,1,
    1,1,1,1,1,1,1,1,1,2),(0.,2.656885512494E-02,5.909899963496E-02,
    0.150990761706,0.180484033196,0.33654085662,0.425835966506,
    0.442184373574,0.461767962311,0.513952466065,0.644507815611,
    0.688163998409,0.839505324768,0.875906244136,0.916947790053,1.),
  .UNSPECIFIED.);
#28 = CARTESIAN_POINT('',(0.,-5.451219321127E-02,0.));
#29 = CARTESIAN_POINT('',(3.038801202438E-02,2.559073188249E-02,0.));
#30 = CARTESIAN_POINT('',(0.108917028313,-4.395309280992E-02,0.));
#31 = CARTESIAN_POINT('',(0.405152414039,-5.068674887948E-02,0.));
#32 = CARTESIAN_POINT('',(0.489534471192,-6.819889964494E-03,0.));
#33 = CARTESIAN_POINT('',(0.990953657326,3.567866545587E-02,0.));
#34 = CARTESIAN_POINT('',(1.273009286769,-2.222969185269E-02,0.));
#35 = CARTESIAN_POINT('',(1.323125639026,-5.877367983535E-03,0.));
#36 = CARTESIAN_POINT('',(1.364775682003,-5.334355990232E-02,0.));
#37 = CARTESIAN_POINT('',(1.521745897385,7.287352582741E-03,0.));
#38 = CARTESIAN_POINT('',(1.942232468628,2.777836228322E-02,0.));
#39 = CARTESIAN_POINT('',(2.082135039558,4.340555982071E-02,0.));
#40 = CARTESIAN_POINT('',(2.565491839453,-2.38360282424E-02,0.));
#41 = CARTESIAN_POINT('',(2.678118236132,-5.689315427767E-02,0.));
#42 = CARTESIAN_POINT('',(2.746190811269,5.659874753143E-02,0.));
#43 = CARTESIAN_POINT('',(3.,-2.885344257338E-02,0.));
#44 = PCURVE('',#45,#50);
#45 = PLANE('',#46);
#46 = AXIS2_PLACEMENT_3D('',#47,#48,#49);
#47 = CARTESIAN_POINT('',(1.479796883198,1.E-01,0.));
#48 = DIRECTION('',(0.,0.,1.));
#49 = DIRECTION('',(1.,0.,-0.));
#50 = DEFINITIONAL_REPRESENTATION('',(#51),#68);
#51 = B_SPLINE_CURVE_WITH_KNOTS('',1,(#52,#53,#54,#55,#56,#57,#58,#59,
    #60,#61,#62,#63,#64,#65,#66,#67),.UNSPECIFIED.,.F.,.F.,(2,1,1,1,1,1,
    1,1,1,1,1,1,1,1,1,2),(0.,2.656885512494E-02,5.909899963496E-02,
    0.150990761706,0.180484033196,0.33654085662,0.425835966506,
    0.442184373574,0.461767962311,0.513952466065,0.644507815611,
    0.688163998409,0.839505324768,0.875906244136,0.916947790053,1.),
  .UNSPECIFIED.);
#52 = CARTESIAN_POINT('',(-1.479796883198,-0.154512193211));
#53 = CARTESIAN_POINT('',(-1.449408871173,-7.440926811751E-02));
#54 = CARTESIAN_POINT('',(-1.370879854884,-0.14395309281));
#55 = CARTESIAN_POINT('',(-1.074644469159,-0.150686748879));
#56 = CARTESIAN_POINT('',(-0.990262412005,-0.106819889964));
#57 = CARTESIAN_POINT('',(-0.488843225872,-6.432133454413E-02));
#58 = CARTESIAN_POINT('',(-0.206787596429,-0.122229691853));
#59 = CARTESIAN_POINT('',(-0.156671244172,-0.105877367984));
#60 = CARTESIAN_POINT('',(-0.115021201195,-0.153343559902));
#61 = CARTESIAN_POINT('',(4.194901418732E-02,-9.271264741726E-02));
#62 = CARTESIAN_POINT('',(0.46243558543,-7.222163771678E-02));
#63 = CARTESIAN_POINT('',(0.602338156361,-5.659444017929E-02));
#64 = CARTESIAN_POINT('',(1.085694956255,-0.123836028242));
#65 = CARTESIAN_POINT('',(1.198321352934,-0.156893154278));
#66 = CARTESIAN_POINT('',(1.266393928071,-4.340125246857E-02));
#67 = CARTESIAN_POINT('',(1.520203116802,-0.128853442573));
#68 = ( GEOMETRIC_REPRESENTATION_CONTEXT(2) 
PARAMETRIC_REPRESENTATION_CONTEXT() REPRESENTATION_CONTEXT('2D SPACE',''
  ) );
#69 = ORIENTED_EDGE('',*,*,#70,.T.);
#70 = EDGE_CURVE('',#24,#71,#73,.T.);
#71 = VERTEX_POINT('',#72);
#72 = CARTESIAN_POINT('',(3.,0.228853442573,0.));
#73 = SURFACE_CURVE('',#74,(#78),.PCURVE_S1.);
#74 = LINE('',#75,#76);
#75 = CARTESIAN_POINT('',(3.,-2.885344257338E-02,0.));
#76 = VECTOR('',#77,1.);
#77 = DIRECTION('',(0.,1.,0.));
#78 = PCURVE('',#45,#79);
#79 = DEFINITIONAL_REPRESENTATION('',(#80),#84);
#80 = LINE('',#81,#82);
#81 = CARTESIAN_POINT('',(1.520203116802,-0.128853442573));
#82 = VECTOR('',#83,1.);
#83 = DIRECTION('',(0.,1.));
#84 = ( GEOMETRIC_REPRESENTATION_CONTEXT(2) 
PARAMETRIC_REPRESENTATION_CONTEXT() REPRESENTATION_CONTEXT('2D SPACE',''
  ) );
#85 = ORIENTED_EDGE('',*,*,#86,.T.);
#86 = EDGE_CURVE('',#71,#87,#89,.T.);
#87 = VERTEX_POINT('',#88);
#88 = CARTESIAN_POINT('',(0.,0.254512193211,0.));
#89 = SURFACE_CURVE('',#90,(#107),.PCURVE_S1.);
#90 = B_SPLINE_CURVE_WITH_KNOTS('',1,(#91,#92,#93,#94,#95,#96,#97,#98,
    #99,#100,#101,#102,#103,#104,#105,#106),.UNSPECIFIED.,.F.,.F.,(2,1,1
    ,1,1,1,1,1,1,1,1,1,1,1,1,2),(0.,8.3052209947E-02,0.124093755864,
    0.160494675232,0.311836001591,0.355492184389,0.486047533935,
    0.538232037689,0.557815626426,0.574164033494,0.66345914338,
    0.819515966804,0.849009238294,0.940901000365,0.973431144875,1.),
  .UNSPECIFIED.);
#91 = CARTESIAN_POINT('',(3.,0.228853442573,0.));
#92 = CARTESIAN_POINT('',(2.746190811269,0.143401252469,0.));
#93 = CARTESIAN_POINT('',(2.678118236132,0.256893154278,0.));
#94 = CARTESIAN_POINT('',(2.565491839453,0.223836028242,0.));
#95 = CARTESIAN_POINT('',(2.082135039558,0.156594440179,0.));
#96 = CARTESIAN_POINT('',(1.942232468628,0.172221637717,0.));
#97 = CARTESIAN_POINT('',(1.521745897385,0.192712647417,0.));
#98 = CARTESIAN_POINT('',(1.364775682003,0.253343559902,0.));
#99 = CARTESIAN_POINT('',(1.323125639026,0.205877367984,0.));
#100 = CARTESIAN_POINT('',(1.273009286769,0.222229691853,0.));
#101 = CARTESIAN_POINT('',(0.990953657326,0.164321334544,0.));
#102 = CARTESIAN_POINT('',(0.489534471192,0.206819889964,0.));
#103 = CARTESIAN_POINT('',(0.405152414039,0.250686748879,0.));
#104 = CARTESIAN_POINT('',(0.108917028313,0.24395309281,0.));
#105 = CARTESIAN_POINT('',(3.038801202438E-02,0.174409268118,0.));
#106 = CARTESIAN_POINT('',(0.,0.254512193211,0.));
#107 = PCURVE('',#45,#108);
#108 = DEFINITIONAL_REPRESENTATION('',(#109),#126);
#109 = B_SPLINE_CURVE_WITH_KNOTS('',1,(#110,#111,#112,#113,#114,#115,
    #116,#117,#118,#119,#120,#121,#122,#123,#124,#125),.UNSPECIFIED.,.F.
  ,.F.,(2,1,1,1,1,1,1,1,1,1,1,1,1,1,1,2),(0.,8.3052209947E-02,
    0.124093755864,0.160494675232,0.311836001591,0.355492184389,
    0.486047533935,0.538232037689,0.557815626426,0.574164033494,
    0.66345914338,0.819515966804,0.849009238294,0.940901000365,
    0.973431144875,1.),.UNSPECIFIED.);
#110 = CARTESIAN_POINT('',(1.520203116802,0.128853442573));
#111 = CARTESIAN_POINT('',(1.266393928071,4.340125246857E-02));
#112 = CARTESIAN_POINT('',(1.198321352934,0.156893154278));
#113 = CARTESIAN_POINT('',(1.085694956255,0.123836028242));
#114 = CARTESIAN_POINT('',(0.602338156361,5.659444017929E-02));
#115 = CARTESIAN_POINT('',(0.46243558543,7.222163771678E-02));
#116 = CARTESIAN_POINT('',(4.194901418732E-02,9.271264741726E-02));
#117 = CARTESIAN_POINT('',(-0.115021201195,0.153343559902));
#118 = CARTESIAN_POINT('',(-0.156671244172,0.105877367984));
#119 = CARTESIAN_POINT('',(-0.206787596429,0.122229691853));
#120 = CARTESIAN_POINT('',(-0.488843225872,6.432133454413E-02));
#121 = CARTESIAN_POINT('',(-0.990262412005,0.106819889964));
#122 = CARTESIAN_POINT('',(-1.074644469159,0.150686748879));
#123 = CARTESIAN_POINT('',(-1.370879854884,0.14395309281));
#124 = CARTESIAN_POINT('',(-1.449408871173,7.440926811751E-02));
#125 = CARTESIAN_POINT('',(-1.479796883198,0.154512193211));
#126 = ( GEOMETRIC_REPRESENTATION_CONTEXT(2) 
PARAMETRIC_REPRESENTATION_CONTEXT() REPRESENTATION_CONTEXT('2D SPACE',''
  ) );
#127 = ORIENTED_EDGE('',*,*,#128,.T.);
#128 = EDGE_CURVE('',#87,#22,#129,.T.);
#129 = SURFACE_CURVE('',#130,(#134),.PCURVE_S1.);
#130 = LINE('',#131,#132);
#131 = CARTESIAN_POINT('',(0.,0.254512193211,0.));
#132 = VECTOR('',#133,1.);
#133 = DIRECTION('',(0.,-1.,0.));
#134 = PCURVE('',#45,#135);
#135 = DEFINITIONAL_REPRESENTATION('',(#136),#140);
#136 = LINE('',#137,#138);
#137 = CARTESIAN_POINT('',(-1.479796883198,0.154512193211));
#138 = VECTOR('',#139,1.);
#139 = DIRECTION('',(0.,-1.));
#140 = ( GEOMETRIC_REPRESENTATION_CONTEXT(2) 
PARAMETRIC_REPRESENTATION_CONTEXT() REPRESENTATION_CONTEXT('2D SPACE',''
  ) );
#141 = ( GEOMETRIC_REPRESENTATION_CONTEXT(3) 
GLOBAL_UNCERTAINTY_ASSIGNED_CONTEXT((#145)) GLOBAL_UNIT_ASSIGNED_CONTEXT
((#142,#143,#144)) REPRESENTATION_CONTEXT('Context #1',
  '3D Context with UNIT and UNCERTAINTY') );
#142 = ( LENGTH_UNIT() NAMED_UNIT(*) SI_UNIT(.MILLI.,.METRE.) );
#143 = ( NAMED_UNIT(*) PLANE_ANGLE_UNIT() SI_UNIT($,.RADIAN.) );
#144 = ( NAMED_UNIT(*) SI_UNIT($,.STERADIAN.) SOLID_ANGLE_UNIT() );
#145 = UNCERTAINTY_MEASURE_WITH_UNIT(LENGTH_MEASURE(1.E-07),#142,
  'distance_accuracy_value','confusion accuracy');
#146 = PRODUCT_RELATED_PRODUCT_CATEGORY('part',$,(#7));
ENDSEC;
END-ISO-10303-21;
