ISO-10303-21;
HEADER;
FILE_DESCRIPTION(('Open CASCADE Model'),'2;1');
FILE_NAME('Open CASCADE Shape Model','2026-05-28T17:04:48',('Author'),(
    'Open CASCADE'),'Open CASCADE STEP processor 7.9','Open CASCADE 7.9'
  ,'Unknown');
FILE_SCHEMA(('AUTOMOTIVE_DESIGN { 1 0 10303 214 1 1 1 1 }'));
ENDSEC;
DATA;
#1 = APPLICATION_PROTOCOL_DEFINITION('international standard',
  'automotive_design',2000,#2);
#2 = APPLICATION_CONTEXT(
  'core data for automotive mechanical design processes');
#3 = SHAPE_DEFINITION_REPRESENTATION(#4,#10);
#4 = PRODUCT_DEFINITION_SHAPE('','',#5);
#5 = PRODUCT_DEFINITION('design','',#6,#9);
#6 = PRODUCT_DEFINITION_FORMATION('','',#7);
#7 = PRODUCT('Open CASCADE STEP translator 7.9 26',
  'Open CASCADE STEP translator 7.9 26','',(#8));
#8 = PRODUCT_CONTEXT('',#2,'mechanical');
#9 = PRODUCT_DEFINITION_CONTEXT('part definition',#2,'design');
#10 = MANIFOLD_SURFACE_SHAPE_REPRESENTATION('',(#11,#15),#157);
#11 = AXIS2_PLACEMENT_3D('',#12,#13,#14);
#12 = CARTESIAN_POINT('',(0.,0.,0.));
#13 = DIRECTION('',(0.,0.,1.));
#14 = DIRECTION('',(1.,0.,-0.));
#15 = SHELL_BASED_SURFACE_MODEL('',(#16));
#16 = OPEN_SHELL('',(#17));
#17 = ADVANCED_FACE('',(#18),#49,.T.);
#18 = FACE_BOUND('',#19,.T.);
#19 = EDGE_LOOP('',(#20,#77,#93,#143));
#20 = ORIENTED_EDGE('',*,*,#21,.T.);
#21 = EDGE_CURVE('',#22,#24,#26,.T.);
#22 = VERTEX_POINT('',#23);
#23 = CARTESIAN_POINT('',(0.,5.160820422278E-02,0.));
#24 = VERTEX_POINT('',#25);
#25 = CARTESIAN_POINT('',(3.8,1.568725903908E-02,0.));
#26 = SURFACE_CURVE('',#27,(#48),.PCURVE_S1.);
#27 = B_SPLINE_CURVE_WITH_KNOTS('',1,(#28,#29,#30,#31,#32,#33,#34,#35,
    #36,#37,#38,#39,#40,#41,#42,#43,#44,#45,#46,#47),.UNSPECIFIED.,.F.,
  .F.,(2,1,1,1,1,1,1,1,1,1,1,1,1,1,1,1,1,1,1,2),(0.,0.109155503797,
    0.127845441918,0.147602862629,0.154761010754,0.178035838118,
    0.202880743746,0.279197197686,0.297112051595,0.314710577934,
    0.363861009582,0.482085859337,0.53222602053,0.558036641704,
    0.710197154592,0.713513574139,0.764995610329,0.885100174814,
    0.956915511577,1.),.UNSPECIFIED.);
#28 = CARTESIAN_POINT('',(0.,5.160820422278E-02,0.));
#29 = CARTESIAN_POINT('',(0.420752182682,2.265227788422E-03,0.));
#30 = CARTESIAN_POINT('',(0.48364955365,-3.386534343214E-02,0.));
#31 = CARTESIAN_POINT('',(0.560218623245,-2.975881547429E-02,0.));
#32 = CARTESIAN_POINT('',(0.586807734484,-3.780877154625E-02,0.));
#33 = CARTESIAN_POINT('',(0.665686157853,6.211124019527E-03,0.));
#34 = CARTESIAN_POINT('',(0.751134532568,-3.846684991678E-02,0.));
#35 = CARTESIAN_POINT('',(1.039032868081,3.110963145429E-02,0.));
#36 = CARTESIAN_POINT('',(1.107051923522,1.67027326299E-02,0.));
#37 = CARTESIAN_POINT('',(1.171666175021,3.883733082986E-02,0.));
#38 = CARTESIAN_POINT('',(1.359193999799,3.901855268571E-03,0.));
#39 = CARTESIAN_POINT('',(1.817938719129,1.295279731015E-02,0.));
#40 = CARTESIAN_POINT('',(2.0116871453,3.108874603028E-02,0.));
#41 = CARTESIAN_POINT('',(2.090910829251,-3.021368510769E-02,0.));
#42 = CARTESIAN_POINT('',(2.679107146792,2.23383873466E-02,0.));
#43 = CARTESIAN_POINT('',(2.690998704602,2.72634803825E-02,0.));
#44 = CARTESIAN_POINT('',(2.890074886373,4.429316029794E-02,0.));
#45 = CARTESIAN_POINT('',(3.354737150929,7.341395783766E-03,0.));
#46 = CARTESIAN_POINT('',(3.632977306186,2.364424453952E-02,0.));
#47 = CARTESIAN_POINT('',(3.8,1.568725903908E-02,0.));
#48 = PCURVE('',#49,#54);
#49 = PLANE('',#50);
#50 = AXIS2_PLACEMENT_3D('',#51,#52,#53);
#51 = CARTESIAN_POINT('',(1.903538424933,1.E-01,0.));
#52 = DIRECTION('',(0.,0.,1.));
#53 = DIRECTION('',(1.,0.,-0.));
#54 = DEFINITIONAL_REPRESENTATION('',(#55),#76);
#55 = B_SPLINE_CURVE_WITH_KNOTS('',1,(#56,#57,#58,#59,#60,#61,#62,#63,
    #64,#65,#66,#67,#68,#69,#70,#71,#72,#73,#74,#75),.UNSPECIFIED.,.F.,
  .F.,(2,1,1,1,1,1,1,1,1,1,1,1,1,1,1,1,1,1,1,2),(0.,0.109155503797,
    0.127845441918,0.147602862629,0.154761010754,0.178035838118,
    0.202880743746,0.279197197686,0.297112051595,0.314710577934,
    0.363861009582,0.482085859337,0.53222602053,0.558036641704,
    0.710197154592,0.713513574139,0.764995610329,0.885100174814,
    0.956915511577,1.),.UNSPECIFIED.);
#56 = CARTESIAN_POINT('',(-1.903538424933,-4.839179577722E-02));
#57 = CARTESIAN_POINT('',(-1.482786242251,-9.773477221158E-02));
#58 = CARTESIAN_POINT('',(-1.419888871283,-0.133865343432));
#59 = CARTESIAN_POINT('',(-1.343319801688,-0.129758815474));
#60 = CARTESIAN_POINT('',(-1.316730690449,-0.137808771546));
#61 = CARTESIAN_POINT('',(-1.23785226708,-9.378887598047E-02));
#62 = CARTESIAN_POINT('',(-1.152403892365,-0.138466849917));
#63 = CARTESIAN_POINT('',(-0.864505556852,-6.889036854571E-02));
#64 = CARTESIAN_POINT('',(-0.796486501411,-8.32972673701E-02));
#65 = CARTESIAN_POINT('',(-0.731872249912,-6.116266917014E-02));
#66 = CARTESIAN_POINT('',(-0.544344425134,-9.609814473143E-02));
#67 = CARTESIAN_POINT('',(-8.559970580374E-02,-8.704720268985E-02));
#68 = CARTESIAN_POINT('',(0.108148720367,-6.891125396972E-02));
#69 = CARTESIAN_POINT('',(0.187372404318,-0.130213685108));
#70 = CARTESIAN_POINT('',(0.775568721859,-7.76616126534E-02));
#71 = CARTESIAN_POINT('',(0.787460279669,-7.27365196175E-02));
#72 = CARTESIAN_POINT('',(0.98653646144,-5.570683970206E-02));
#73 = CARTESIAN_POINT('',(1.451198725996,-9.265860421623E-02));
#74 = CARTESIAN_POINT('',(1.729438881253,-7.635575546048E-02));
#75 = CARTESIAN_POINT('',(1.896461575067,-8.431274096092E-02));
#76 = ( GEOMETRIC_REPRESENTATION_CONTEXT(2) 
PARAMETRIC_REPRESENTATION_CONTEXT() REPRESENTATION_CONTEXT('2D SPACE',''
  ) );
#77 = ORIENTED_EDGE('',*,*,#78,.T.);
#78 = EDGE_CURVE('',#24,#79,#81,.T.);
#79 = VERTEX_POINT('',#80);
#80 = CARTESIAN_POINT('',(3.8,0.184312740961,0.));
#81 = SURFACE_CURVE('',#82,(#86),.PCURVE_S1.);
#82 = LINE('',#83,#84);
#83 = CARTESIAN_POINT('',(3.8,1.568725903908E-02,0.));
#84 = VECTOR('',#85,1.);
#85 = DIRECTION('',(0.,1.,0.));
#86 = PCURVE('',#49,#87);
#87 = DEFINITIONAL_REPRESENTATION('',(#88),#92);
#88 = LINE('',#89,#90);
#89 = CARTESIAN_POINT('',(1.896461575067,-8.431274096092E-02));
#90 = VECTOR('',#91,1.);
#91 = DIRECTION('',(0.,1.));
#92 = ( GEOMETRIC_REPRESENTATION_CONTEXT(2) 
PARAMETRIC_REPRESENTATION_CONTEXT() REPRESENTATION_CONTEXT('2D SPACE',''
  ) );
#93 = ORIENTED_EDGE('',*,*,#94,.T.);
#94 = EDGE_CURVE('',#79,#95,#97,.T.);
#95 = VERTEX_POINT('',#96);
#96 = CARTESIAN_POINT('',(0.,0.148391795777,0.));
#97 = SURFACE_CURVE('',#98,(#119),.PCURVE_S1.);
#98 = B_SPLINE_CURVE_WITH_KNOTS('',1,(#99,#100,#101,#102,#103,#104,#105,
    #106,#107,#108,#109,#110,#111,#112,#113,#114,#115,#116,#117,#118),
  .UNSPECIFIED.,.F.,.F.,(2,1,1,1,1,1,1,1,1,1,1,1,1,1,1,1,1,1,1,2),(0.,
    4.308448842329E-02,0.114899825186,0.235004389671,0.286486425861,
    0.289802845408,0.441963358296,0.46777397947,0.517914140663,
    0.636138990418,0.685289422066,0.702887948405,0.720802802314,
    0.797119256254,0.821964161882,0.845238989246,0.852397137371,
    0.872154558082,0.890844496203,1.),.UNSPECIFIED.);
#99 = CARTESIAN_POINT('',(3.8,0.184312740961,0.));
#100 = CARTESIAN_POINT('',(3.632977306186,0.17635575546,0.));
#101 = CARTESIAN_POINT('',(3.354737150929,0.192658604216,0.));
#102 = CARTESIAN_POINT('',(2.890074886373,0.155706839702,0.));
#103 = CARTESIAN_POINT('',(2.690998704602,0.172736519618,0.));
#104 = CARTESIAN_POINT('',(2.679107146792,0.177661612653,0.));
#105 = CARTESIAN_POINT('',(2.090910829251,0.230213685108,0.));
#106 = CARTESIAN_POINT('',(2.0116871453,0.16891125397,0.));
#107 = CARTESIAN_POINT('',(1.817938719129,0.18704720269,0.));
#108 = CARTESIAN_POINT('',(1.359193999799,0.196098144731,0.));
#109 = CARTESIAN_POINT('',(1.171666175021,0.16116266917,0.));
#110 = CARTESIAN_POINT('',(1.107051923522,0.18329726737,0.));
#111 = CARTESIAN_POINT('',(1.039032868081,0.168890368546,0.));
#112 = CARTESIAN_POINT('',(0.751134532568,0.238466849917,0.));
#113 = CARTESIAN_POINT('',(0.665686157853,0.19378887598,0.));
#114 = CARTESIAN_POINT('',(0.586807734484,0.237808771546,0.));
#115 = CARTESIAN_POINT('',(0.560218623245,0.229758815474,0.));
#116 = CARTESIAN_POINT('',(0.48364955365,0.233865343432,0.));
#117 = CARTESIAN_POINT('',(0.420752182682,0.197734772212,0.));
#118 = CARTESIAN_POINT('',(0.,0.148391795777,0.));
#119 = PCURVE('',#49,#120);
#120 = DEFINITIONAL_REPRESENTATION('',(#121),#142);
#121 = B_SPLINE_CURVE_WITH_KNOTS('',1,(#122,#123,#124,#125,#126,#127,
    #128,#129,#130,#131,#132,#133,#134,#135,#136,#137,#138,#139,#140,
    #141),.UNSPECIFIED.,.F.,.F.,(2,1,1,1,1,1,1,1,1,1,1,1,1,1,1,1,1,1,1,2
    ),(0.,4.308448842329E-02,0.114899825186,0.235004389671,
    0.286486425861,0.289802845408,0.441963358296,0.46777397947,
    0.517914140663,0.636138990418,0.685289422066,0.702887948405,
    0.720802802314,0.797119256254,0.821964161882,0.845238989246,
    0.852397137371,0.872154558082,0.890844496203,1.),.UNSPECIFIED.);
#122 = CARTESIAN_POINT('',(1.896461575067,8.431274096092E-02));
#123 = CARTESIAN_POINT('',(1.729438881253,7.635575546048E-02));
#124 = CARTESIAN_POINT('',(1.451198725996,9.265860421623E-02));
#125 = CARTESIAN_POINT('',(0.98653646144,5.570683970206E-02));
#126 = CARTESIAN_POINT('',(0.787460279669,7.27365196175E-02));
#127 = CARTESIAN_POINT('',(0.775568721859,7.76616126534E-02));
#128 = CARTESIAN_POINT('',(0.187372404318,0.130213685108));
#129 = CARTESIAN_POINT('',(0.108148720367,6.891125396972E-02));
#130 = CARTESIAN_POINT('',(-8.559970580374E-02,8.704720268985E-02));
#131 = CARTESIAN_POINT('',(-0.544344425134,9.609814473143E-02));
#132 = CARTESIAN_POINT('',(-0.731872249912,6.116266917014E-02));
#133 = CARTESIAN_POINT('',(-0.796486501411,8.32972673701E-02));
#134 = CARTESIAN_POINT('',(-0.864505556852,6.889036854571E-02));
#135 = CARTESIAN_POINT('',(-1.152403892365,0.138466849917));
#136 = CARTESIAN_POINT('',(-1.23785226708,9.378887598047E-02));
#137 = CARTESIAN_POINT('',(-1.316730690449,0.137808771546));
#138 = CARTESIAN_POINT('',(-1.343319801688,0.129758815474));
#139 = CARTESIAN_POINT('',(-1.419888871283,0.133865343432));
#140 = CARTESIAN_POINT('',(-1.482786242251,9.773477221158E-02));
#141 = CARTESIAN_POINT('',(-1.903538424933,4.839179577722E-02));
#142 = ( GEOMETRIC_REPRESENTATION_CONTEXT(2) 
PARAMETRIC_REPRESENTATION_CONTEXT() REPRESENTATION_CONTEXT('2D SPACE',''
  ) );
#143 = ORIENTED_EDGE('',*,*,#144,.T.);
#144 = EDGE_CURVE('',#95,#22,#145,.T.);
#145 = SURFACE_CURVE('',#146,(#150),.PCURVE_S1.);
#146 = LINE('',#147,#148);
#147 = CARTESIAN_POINT('',(0.,0.148391795777,0.));
#148 = VECTOR('',#149,1.);
#149 = DIRECTION('',(0.,-1.,0.));
#150 = PCURVE('',#49,#151);
#151 = DEFINITIONAL_REPRESENTATION('',(#152),#156);
#152 = LINE('',#153,#154);
#153 = CARTESIAN_POINT('',(-1.903538424933,4.839179577722E-02));
#154 = VECTOR('',#155,1.);
#155 = DIRECTION('',(0.,-1.));
#156 = ( GEOMETRIC_REPRESENTATION_CONTEXT(2) 
PARAMETRIC_REPRESENTATION_CONTEXT() REPRESENTATION_CONTEXT('2D SPACE',''
  ) );
#157 = ( GEOMETRIC_REPRESENTATION_CONTEXT(3) 
GLOBAL_UNCERTAINTY_ASSIGNED_CONTEXT((#161)) GLOBAL_UNIT_ASSIGNED_CONTEXT
((#158,#159,#160)) REPRESENTATION_CONTEXT('Context #1',
  '3D Context with UNIT and UNCERTAINTY') );
#158 = ( LENGTH_UNIT() NAMED_UNIT(*) SI_UNIT(.MILLI.,.METRE.) );
#159 = ( NAMED_UNIT(*) PLANE_ANGLE_UNIT() SI_UNIT($,.RADIAN.) );
#160 = ( NAMED_UNIT(*) SI_UNIT($,.STERADIAN.) SOLID_ANGLE_UNIT() );
#161 = UNCERTAINTY_MEASURE_WITH_UNIT(LENGTH_MEASURE(1.E-07),#158,
  'distance_accuracy_value','confusion accuracy');
#162 = PRODUCT_RELATED_PRODUCT_CATEGORY('part',$,(#7));
ENDSEC;
END-ISO-10303-21;
