ISO-10303-21;
HEADER;
FILE_DESCRIPTION(('Open CASCADE Model'),'2;1');
FILE_NAME('Open CASCADE Shape Model','2026-05-29T14:30:30',('Author'),(
    'Open CASCADE'),'Open CASCADE STEP processor 7.9','Open CASCADE 7.9'
  ,'Unknown');
FILE_SCHEMA(('AUTOMOTIVE_DESIGN { 1 0 10303 214 1 1 1 1 }'));
ENDSEC;
DATA;
#1 = APPLICATION_PROTOCOL_DEFINITION('international standard',
  'automotive_design',2000,#2);
#2 = APPLICATION_CONTEXT(
  'core data for automotive mechanical design processes');
#3 = SHAPE_DEFINITION_REPRESENTATION(#4,#10);
#4 = PRODUCT_DEFINITION_SHAPE('','',#5);
#5 = PRODUCT_DEFINITION('design','',#6,#9);
#6 = PRODUCT_DEFINITION_FORMATION('','',#7);
#7 = PRODUCT('Open CASCADE STEP translator 7.9 8',
  'Open CASCADE STEP translator 7.9 8','',(#8));
#8 = PRODUCT_CONTEXT('',#2,'mechanical');
#9 = PRODUCT_DEFINITION_CONTEXT('part definition',#2,'design');
#10 = MANIFOLD_SURFACE_SHAPE_REPRESENTATION('',(#11,#15),#121);
#11 = AXIS2_PLACEMENT_3D('',#12,#13,#14);
#12 = CARTESIAN_POINT('',(0.,0.,0.));
#13 = DIRECTION('',(0.,0.,1.));
#14 = DIRECTION('',(1.,0.,-0.));
#15 = SHELL_BASED_SURFACE_MODEL('',(#16));
#16 = OPEN_SHELL('',(#17));
#17 = ADVANCED_FACE('',(#18),#40,.T.);
#18 = FACE_BOUND('',#19,.T.);
#19 = EDGE_LOOP('',(#20,#59,#75,#107));
#20 = ORIENTED_EDGE('',*,*,#21,.T.);
#21 = EDGE_CURVE('',#22,#24,#26,.T.);
#22 = VERTEX_POINT('',#23);
#23 = CARTESIAN_POINT('',(0.,-14.34803712227,0.));
#24 = VERTEX_POINT('',#25);
#25 = CARTESIAN_POINT('',(1.5E+03,-27.74263248578,0.));
#26 = SURFACE_CURVE('',#27,(#39),.PCURVE_S1.);
#27 = B_SPLINE_CURVE_WITH_KNOTS('',1,(#28,#29,#30,#31,#32,#33,#34,#35,
    #36,#37,#38),.UNSPECIFIED.,.F.,.F.,(2,1,1,1,1,1,1,1,1,1,2),(0.,
    4.820727521502E-02,0.10491906866,0.148254289106,0.27348000129,
    0.450652235657,0.506462686824,0.735874436488,0.767145597975,
    0.958537161473,1.),.UNSPECIFIED.);
#28 = CARTESIAN_POINT('',(0.,-14.34803712227,0.));
#29 = CARTESIAN_POINT('',(75.292658356056,-20.42951528581,0.));
#30 = CARTESIAN_POINT('',(164.07747686207,-24.17827427258,0.));
#31 = CARTESIAN_POINT('',(196.83180890261,35.303314863969,0.));
#32 = CARTESIAN_POINT('',(379.07055353583,-37.44106606238,0.));
#33 = CARTESIAN_POINT('',(649.74051181919,24.280740819461,0.));
#34 = CARTESIAN_POINT('',(735.4532989795,41.632869944144,0.));
#35 = CARTESIAN_POINT('',(1.091898243552E+03,-4.936722245234,0.));
#36 = CARTESIAN_POINT('',(1.138017382073E+03,11.616994452381,0.));
#37 = CARTESIAN_POINT('',(1.435059182427E+03,-29.68107688191,0.));
#38 = CARTESIAN_POINT('',(1.5E+03,-27.74263248578,0.));
#39 = PCURVE('',#40,#45);
#40 = PLANE('',#41);
#41 = AXIS2_PLACEMENT_3D('',#42,#43,#44);
#42 = CARTESIAN_POINT('',(741.30539815739,75.,0.));
#43 = DIRECTION('',(0.,0.,1.));
#44 = DIRECTION('',(1.,0.,-0.));
#45 = DEFINITIONAL_REPRESENTATION('',(#46),#58);
#46 = B_SPLINE_CURVE_WITH_KNOTS('',1,(#47,#48,#49,#50,#51,#52,#53,#54,
    #55,#56,#57),.UNSPECIFIED.,.F.,.F.,(2,1,1,1,1,1,1,1,1,1,2),(0.,
    4.820727521502E-02,0.10491906866,0.148254289106,0.27348000129,
    0.450652235657,0.506462686824,0.735874436488,0.767145597975,
    0.958537161473,1.),.UNSPECIFIED.);
#47 = CARTESIAN_POINT('',(-741.3053981573,-89.34803712227));
#48 = CARTESIAN_POINT('',(-666.0127398013,-95.42951528581));
#49 = CARTESIAN_POINT('',(-577.2279212953,-99.17827427258));
#50 = CARTESIAN_POINT('',(-544.4735892547,-39.69668513603));
#51 = CARTESIAN_POINT('',(-362.2348446215,-112.4410660623));
#52 = CARTESIAN_POINT('',(-91.5648863382,-50.71925918053));
#53 = CARTESIAN_POINT('',(-5.852099177888,-33.36713005585));
#54 = CARTESIAN_POINT('',(350.59284539481,-79.93672224523));
#55 = CARTESIAN_POINT('',(396.71198391598,-63.38300554761));
#56 = CARTESIAN_POINT('',(693.75378426969,-104.6810768819));
#57 = CARTESIAN_POINT('',(758.6946018426,-102.7426324857));
#58 = ( GEOMETRIC_REPRESENTATION_CONTEXT(2) 
PARAMETRIC_REPRESENTATION_CONTEXT() REPRESENTATION_CONTEXT('2D SPACE',''
  ) );
#59 = ORIENTED_EDGE('',*,*,#60,.T.);
#60 = EDGE_CURVE('',#24,#61,#63,.T.);
#61 = VERTEX_POINT('',#62);
#62 = CARTESIAN_POINT('',(1.5E+03,177.74263248578,0.));
#63 = SURFACE_CURVE('',#64,(#68),.PCURVE_S1.);
#64 = LINE('',#65,#66);
#65 = CARTESIAN_POINT('',(1.5E+03,-27.74263248578,0.));
#66 = VECTOR('',#67,1.);
#67 = DIRECTION('',(0.,1.,0.));
#68 = PCURVE('',#40,#69);
#69 = DEFINITIONAL_REPRESENTATION('',(#70),#74);
#70 = LINE('',#71,#72);
#71 = CARTESIAN_POINT('',(758.6946018426,-102.7426324857));
#72 = VECTOR('',#73,1.);
#73 = DIRECTION('',(0.,1.));
#74 = ( GEOMETRIC_REPRESENTATION_CONTEXT(2) 
PARAMETRIC_REPRESENTATION_CONTEXT() REPRESENTATION_CONTEXT('2D SPACE',''
  ) );
#75 = ORIENTED_EDGE('',*,*,#76,.T.);
#76 = EDGE_CURVE('',#61,#77,#79,.T.);
#77 = VERTEX_POINT('',#78);
#78 = CARTESIAN_POINT('',(0.,164.34803712227,0.));
#79 = SURFACE_CURVE('',#80,(#92),.PCURVE_S1.);
#80 = B_SPLINE_CURVE_WITH_KNOTS('',1,(#81,#82,#83,#84,#85,#86,#87,#88,
    #89,#90,#91),.UNSPECIFIED.,.F.,.F.,(2,1,1,1,1,1,1,1,1,1,2),(0.,
    4.146283852722E-02,0.232854402025,0.264125563512,0.493537313176,
    0.549347764343,0.72651999871,0.851745710894,0.89508093134,
    0.951792724785,1.),.UNSPECIFIED.);
#81 = CARTESIAN_POINT('',(1.5E+03,177.74263248578,0.));
#82 = CARTESIAN_POINT('',(1.435059182427E+03,179.68107688191,0.));
#83 = CARTESIAN_POINT('',(1.138017382073E+03,138.38300554761,0.));
#84 = CARTESIAN_POINT('',(1.091898243552E+03,154.93672224523,0.));
#85 = CARTESIAN_POINT('',(735.4532989795,108.36713005585,0.));
#86 = CARTESIAN_POINT('',(649.74051181919,125.71925918053,0.));
#87 = CARTESIAN_POINT('',(379.07055353583,187.44106606238,0.));
#88 = CARTESIAN_POINT('',(196.83180890261,114.69668513603,0.));
#89 = CARTESIAN_POINT('',(164.07747686207,174.17827427258,0.));
#90 = CARTESIAN_POINT('',(75.292658356056,170.42951528581,0.));
#91 = CARTESIAN_POINT('',(0.,164.34803712227,0.));
#92 = PCURVE('',#40,#93);
#93 = DEFINITIONAL_REPRESENTATION('',(#94),#106);
#94 = B_SPLINE_CURVE_WITH_KNOTS('',1,(#95,#96,#97,#98,#99,#100,#101,#102
    ,#103,#104,#105),.UNSPECIFIED.,.F.,.F.,(2,1,1,1,1,1,1,1,1,1,2),(0.,
    4.146283852722E-02,0.232854402025,0.264125563512,0.493537313176,
    0.549347764343,0.72651999871,0.851745710894,0.89508093134,
    0.951792724785,1.),.UNSPECIFIED.);
#95 = CARTESIAN_POINT('',(758.6946018426,102.74263248578));
#96 = CARTESIAN_POINT('',(693.75378426969,104.68107688191));
#97 = CARTESIAN_POINT('',(396.71198391598,63.383005547619));
#98 = CARTESIAN_POINT('',(350.59284539481,79.936722245234));
#99 = CARTESIAN_POINT('',(-5.852099177888,33.367130055856));
#100 = CARTESIAN_POINT('',(-91.5648863382,50.719259180539));
#101 = CARTESIAN_POINT('',(-362.2348446215,112.44106606238));
#102 = CARTESIAN_POINT('',(-544.4735892547,39.696685136031));
#103 = CARTESIAN_POINT('',(-577.2279212953,99.178274272589));
#104 = CARTESIAN_POINT('',(-666.0127398013,95.429515285819));
#105 = CARTESIAN_POINT('',(-741.3053981573,89.348037122271));
#106 = ( GEOMETRIC_REPRESENTATION_CONTEXT(2) 
PARAMETRIC_REPRESENTATION_CONTEXT() REPRESENTATION_CONTEXT('2D SPACE',''
  ) );
#107 = ORIENTED_EDGE('',*,*,#108,.T.);
#108 = EDGE_CURVE('',#77,#22,#109,.T.);
#109 = SURFACE_CURVE('',#110,(#114),.PCURVE_S1.);
#110 = LINE('',#111,#112);
#111 = CARTESIAN_POINT('',(0.,164.34803712227,0.));
#112 = VECTOR('',#113,1.);
#113 = DIRECTION('',(0.,-1.,0.));
#114 = PCURVE('',#40,#115);
#115 = DEFINITIONAL_REPRESENTATION('',(#116),#120);
#116 = LINE('',#117,#118);
#117 = CARTESIAN_POINT('',(-741.3053981573,89.348037122271));
#118 = VECTOR('',#119,1.);
#119 = DIRECTION('',(0.,-1.));
#120 = ( GEOMETRIC_REPRESENTATION_CONTEXT(2) 
PARAMETRIC_REPRESENTATION_CONTEXT() REPRESENTATION_CONTEXT('2D SPACE',''
  ) );
#121 = ( GEOMETRIC_REPRESENTATION_CONTEXT(3) 
GLOBAL_UNCERTAINTY_ASSIGNED_CONTEXT((#125)) GLOBAL_UNIT_ASSIGNED_CONTEXT
((#122,#123,#124)) REPRESENTATION_CONTEXT('Context #1',
  '3D Context with UNIT and UNCERTAINTY') );
#122 = ( LENGTH_UNIT() NAMED_UNIT(*) SI_UNIT(.MILLI.,.METRE.) );
#123 = ( NAMED_UNIT(*) PLANE_ANGLE_UNIT() SI_UNIT($,.RADIAN.) );
#124 = ( NAMED_UNIT(*) SI_UNIT($,.STERADIAN.) SOLID_ANGLE_UNIT() );
#125 = UNCERTAINTY_MEASURE_WITH_UNIT(LENGTH_MEASURE(1.E-07),#122,
  'distance_accuracy_value','confusion accuracy');
#126 = PRODUCT_RELATED_PRODUCT_CATEGORY('part',$,(#7));
ENDSEC;
END-ISO-10303-21;
