ISO-10303-21;
HEADER;
FILE_DESCRIPTION(('Open CASCADE Model'),'2;1');
FILE_NAME('Open CASCADE Shape Model','2026-05-28T17:04:48',('Author'),(
    'Open CASCADE'),'Open CASCADE STEP processor 7.9','Open CASCADE 7.9'
  ,'Unknown');
FILE_SCHEMA(('AUTOMOTIVE_DESIGN { 1 0 10303 214 1 1 1 1 }'));
ENDSEC;
DATA;
#1 = APPLICATION_PROTOCOL_DEFINITION('international standard',
  'automotive_design',2000,#2);
#2 = APPLICATION_CONTEXT(
  'core data for automotive mechanical design processes');
#3 = SHAPE_DEFINITION_REPRESENTATION(#4,#10);
#4 = PRODUCT_DEFINITION_SHAPE('','',#5);
#5 = PRODUCT_DEFINITION('design','',#6,#9);
#6 = PRODUCT_DEFINITION_FORMATION('','',#7);
#7 = PRODUCT('Open CASCADE STEP translator 7.9 10',
  'Open CASCADE STEP translator 7.9 10','',(#8));
#8 = PRODUCT_CONTEXT('',#2,'mechanical');
#9 = PRODUCT_DEFINITION_CONTEXT('part definition',#2,'design');
#10 = MANIFOLD_SURFACE_SHAPE_REPRESENTATION('',(#11,#15),#169);
#11 = AXIS2_PLACEMENT_3D('',#12,#13,#14);
#12 = CARTESIAN_POINT('',(0.,0.,0.));
#13 = DIRECTION('',(0.,0.,1.));
#14 = DIRECTION('',(1.,0.,-0.));
#15 = SHELL_BASED_SURFACE_MODEL('',(#16));
#16 = OPEN_SHELL('',(#17));
#17 = ADVANCED_FACE('',(#18),#52,.T.);
#18 = FACE_BOUND('',#19,.T.);
#19 = EDGE_LOOP('',(#20,#83,#99,#155));
#20 = ORIENTED_EDGE('',*,*,#21,.T.);
#21 = EDGE_CURVE('',#22,#24,#26,.T.);
#22 = VERTEX_POINT('',#23);
#23 = CARTESIAN_POINT('',(0.,3.683502109573E-02,0.));
#24 = VERTEX_POINT('',#25);
#25 = CARTESIAN_POINT('',(4.4,-2.397311335069E-02,0.));
#26 = SURFACE_CURVE('',#27,(#51),.PCURVE_S1.);
#27 = B_SPLINE_CURVE_WITH_KNOTS('',1,(#28,#29,#30,#31,#32,#33,#34,#35,
    #36,#37,#38,#39,#40,#41,#42,#43,#44,#45,#46,#47,#48,#49,#50),
  .UNSPECIFIED.,.F.,.F.,(2,1,1,1,1,1,1,1,1,1,1,1,1,1,1,1,1,1,1,1,1,1,2),
  (0.,5.428411924938E-03,3.963410832585E-02,5.236077315799E-02,
    6.306708739724E-02,0.127676471326,0.159288646756,0.205042924256,
    0.245414018641,0.493158806687,0.588565031739,0.611092003509,
    0.674564618025,0.714121709615,0.730622320928,0.757021258386,
    0.78415479244,0.785850276175,0.821531658005,0.84448984656,
    0.860942523643,0.932684906078,1.),.UNSPECIFIED.);
#28 = CARTESIAN_POINT('',(0.,3.683502109573E-02,0.));
#29 = CARTESIAN_POINT('',(2.389127016628E-02,2.750894984186E-02,0.));
#30 = CARTESIAN_POINT('',(0.176665718007,-2.518856367376E-02,0.));
#31 = CARTESIAN_POINT('',(0.227294834863,-5.762457418784E-02,0.));
#32 = CARTESIAN_POINT('',(0.251820536674,-1.338523271725E-02,0.));
#33 = CARTESIAN_POINT('',(0.549664188945,5.345996220104E-02,0.));
#34 = CARTESIAN_POINT('',(0.682937166741,-1.39570763913E-02,0.));
#35 = CARTESIAN_POINT('',(0.887841287164,5.491793381038E-02,0.));
#36 = CARTESIAN_POINT('',(1.049632410761,-4.609748536402E-02,0.));
#37 = CARTESIAN_POINT('',(2.219936356849,-2.514939421207E-02,0.));
#38 = CARTESIAN_POINT('',(2.66607078165,3.92246584293E-02,0.));
#39 = CARTESIAN_POINT('',(2.772052116136,4.89934793011E-02,0.));
#40 = CARTESIAN_POINT('',(3.071731449506,3.797601253436E-02,0.));
#41 = CARTESIAN_POINT('',(3.232332804515,-5.76032615465E-02,0.));
#42 = CARTESIAN_POINT('',(3.278827764647,4.972722904981E-03,0.));
#43 = CARTESIAN_POINT('',(3.397276956059,-3.408971380097E-02,0.));
#44 = CARTESIAN_POINT('',(3.524240956023,-1.636900105293E-02,0.));
#45 = CARTESIAN_POINT('',(3.526519967781,-8.689577995036E-03,0.));
#46 = CARTESIAN_POINT('',(3.687112962084,4.258436944019E-02,0.));
#47 = CARTESIAN_POINT('',(3.737398908862,-5.352293442697E-02,0.));
#48 = CARTESIAN_POINT('',(3.744976838953,2.383888409823E-02,0.));
#49 = CARTESIAN_POINT('',(4.082299892758,-9.362065896905E-03,0.));
#50 = CARTESIAN_POINT('',(4.4,-2.397311335069E-02,0.));
#51 = PCURVE('',#52,#57);
#52 = PLANE('',#53);
#53 = AXIS2_PLACEMENT_3D('',#54,#55,#56);
#54 = CARTESIAN_POINT('',(2.248394001601,1.E-01,0.));
#55 = DIRECTION('',(0.,0.,1.));
#56 = DIRECTION('',(1.,0.,-0.));
#57 = DEFINITIONAL_REPRESENTATION('',(#58),#82);
#58 = B_SPLINE_CURVE_WITH_KNOTS('',1,(#59,#60,#61,#62,#63,#64,#65,#66,
    #67,#68,#69,#70,#71,#72,#73,#74,#75,#76,#77,#78,#79,#80,#81),
  .UNSPECIFIED.,.F.,.F.,(2,1,1,1,1,1,1,1,1,1,1,1,1,1,1,1,1,1,1,1,1,1,2),
  (0.,5.428411924938E-03,3.963410832585E-02,5.236077315799E-02,
    6.306708739724E-02,0.127676471326,0.159288646756,0.205042924256,
    0.245414018641,0.493158806687,0.588565031739,0.611092003509,
    0.674564618025,0.714121709615,0.730622320928,0.757021258386,
    0.78415479244,0.785850276175,0.821531658005,0.84448984656,
    0.860942523643,0.932684906078,1.),.UNSPECIFIED.);
#59 = CARTESIAN_POINT('',(-2.248394001601,-6.316497890427E-02));
#60 = CARTESIAN_POINT('',(-2.224502731435,-7.249105015814E-02));
#61 = CARTESIAN_POINT('',(-2.071728283594,-0.125188563674));
#62 = CARTESIAN_POINT('',(-2.021099166738,-0.157624574188));
#63 = CARTESIAN_POINT('',(-1.996573464927,-0.113385232717));
#64 = CARTESIAN_POINT('',(-1.698729812656,-4.654003779896E-02));
#65 = CARTESIAN_POINT('',(-1.56545683486,-0.113957076391));
#66 = CARTESIAN_POINT('',(-1.360552714437,-4.508206618962E-02));
#67 = CARTESIAN_POINT('',(-1.198761590841,-0.146097485364));
#68 = CARTESIAN_POINT('',(-2.845764475194E-02,-0.125149394212));
#69 = CARTESIAN_POINT('',(0.417676780049,-6.07753415707E-02));
#70 = CARTESIAN_POINT('',(0.523658114535,-5.10065206989E-02));
#71 = CARTESIAN_POINT('',(0.823337447905,-6.202398746564E-02));
#72 = CARTESIAN_POINT('',(0.983938802914,-0.157603261547));
#73 = CARTESIAN_POINT('',(1.030433763046,-9.502727709502E-02));
#74 = CARTESIAN_POINT('',(1.148882954458,-0.134089713801));
#75 = CARTESIAN_POINT('',(1.275846954422,-0.116369001053));
#76 = CARTESIAN_POINT('',(1.27812596618,-0.108689577995));
#77 = CARTESIAN_POINT('',(1.438718960483,-5.741563055981E-02));
#78 = CARTESIAN_POINT('',(1.48900490726,-0.153522934427));
#79 = CARTESIAN_POINT('',(1.496582837351,-7.616111590177E-02));
#80 = CARTESIAN_POINT('',(1.833905891157,-0.109362065897));
#81 = CARTESIAN_POINT('',(2.151605998399,-0.123973113351));
#82 = ( GEOMETRIC_REPRESENTATION_CONTEXT(2) 
PARAMETRIC_REPRESENTATION_CONTEXT() REPRESENTATION_CONTEXT('2D SPACE',''
  ) );
#83 = ORIENTED_EDGE('',*,*,#84,.T.);
#84 = EDGE_CURVE('',#24,#85,#87,.T.);
#85 = VERTEX_POINT('',#86);
#86 = CARTESIAN_POINT('',(4.4,0.223973113351,0.));
#87 = SURFACE_CURVE('',#88,(#92),.PCURVE_S1.);
#88 = LINE('',#89,#90);
#89 = CARTESIAN_POINT('',(4.4,-2.397311335069E-02,0.));
#90 = VECTOR('',#91,1.);
#91 = DIRECTION('',(0.,1.,0.));
#92 = PCURVE('',#52,#93);
#93 = DEFINITIONAL_REPRESENTATION('',(#94),#98);
#94 = LINE('',#95,#96);
#95 = CARTESIAN_POINT('',(2.151605998399,-0.123973113351));
#96 = VECTOR('',#97,1.);
#97 = DIRECTION('',(0.,1.));
#98 = ( GEOMETRIC_REPRESENTATION_CONTEXT(2) 
PARAMETRIC_REPRESENTATION_CONTEXT() REPRESENTATION_CONTEXT('2D SPACE',''
  ) );
#99 = ORIENTED_EDGE('',*,*,#100,.T.);
#100 = EDGE_CURVE('',#85,#101,#103,.T.);
#101 = VERTEX_POINT('',#102);
#102 = CARTESIAN_POINT('',(0.,0.163164978904,0.));
#103 = SURFACE_CURVE('',#104,(#128),.PCURVE_S1.);
#104 = B_SPLINE_CURVE_WITH_KNOTS('',1,(#105,#106,#107,#108,#109,#110,
    #111,#112,#113,#114,#115,#116,#117,#118,#119,#120,#121,#122,#123,
    #124,#125,#126,#127),.UNSPECIFIED.,.F.,.F.,(2,1,1,1,1,1,1,1,1,1,1,1,
    1,1,1,1,1,1,1,1,1,1,2),(0.,6.731509392202E-02,0.139057476357,
    0.15551015344,0.178468341995,0.214149723825,0.21584520756,
    0.242978741614,0.269377679072,0.285878290385,0.325435381975,
    0.388907996491,0.411434968261,0.506841193313,0.754585981359,
    0.794957075744,0.840711353244,0.872323528674,0.936932912603,
    0.947639226842,0.960365891674,0.994571588075,1.),.UNSPECIFIED.);
#105 = CARTESIAN_POINT('',(4.4,0.223973113351,0.));
#106 = CARTESIAN_POINT('',(4.082299892758,0.209362065897,0.));
#107 = CARTESIAN_POINT('',(3.744976838953,0.176161115902,0.));
#108 = CARTESIAN_POINT('',(3.737398908862,0.253522934427,0.));
#109 = CARTESIAN_POINT('',(3.687112962084,0.15741563056,0.));
#110 = CARTESIAN_POINT('',(3.526519967781,0.208689577995,0.));
#111 = CARTESIAN_POINT('',(3.524240956023,0.216369001053,0.));
#112 = CARTESIAN_POINT('',(3.397276956059,0.234089713801,0.));
#113 = CARTESIAN_POINT('',(3.278827764647,0.195027277095,0.));
#114 = CARTESIAN_POINT('',(3.232332804515,0.257603261547,0.));
#115 = CARTESIAN_POINT('',(3.071731449506,0.162023987466,0.));
#116 = CARTESIAN_POINT('',(2.772052116136,0.151006520699,0.));
#117 = CARTESIAN_POINT('',(2.66607078165,0.160775341571,0.));
#118 = CARTESIAN_POINT('',(2.219936356849,0.225149394212,0.));
#119 = CARTESIAN_POINT('',(1.049632410761,0.246097485364,0.));
#120 = CARTESIAN_POINT('',(0.887841287164,0.14508206619,0.));
#121 = CARTESIAN_POINT('',(0.682937166741,0.213957076391,0.));
#122 = CARTESIAN_POINT('',(0.549664188945,0.146540037799,0.));
#123 = CARTESIAN_POINT('',(0.251820536674,0.213385232717,0.));
#124 = CARTESIAN_POINT('',(0.227294834863,0.257624574188,0.));
#125 = CARTESIAN_POINT('',(0.176665718007,0.225188563674,0.));
#126 = CARTESIAN_POINT('',(2.389127016628E-02,0.172491050158,0.));
#127 = CARTESIAN_POINT('',(0.,0.163164978904,0.));
#128 = PCURVE('',#52,#129);
#129 = DEFINITIONAL_REPRESENTATION('',(#130),#154);
#130 = B_SPLINE_CURVE_WITH_KNOTS('',1,(#131,#132,#133,#134,#135,#136,
    #137,#138,#139,#140,#141,#142,#143,#144,#145,#146,#147,#148,#149,
    #150,#151,#152,#153),.UNSPECIFIED.,.F.,.F.,(2,1,1,1,1,1,1,1,1,1,1,1,
    1,1,1,1,1,1,1,1,1,1,2),(0.,6.731509392202E-02,0.139057476357,
    0.15551015344,0.178468341995,0.214149723825,0.21584520756,
    0.242978741614,0.269377679072,0.285878290385,0.325435381975,
    0.388907996491,0.411434968261,0.506841193313,0.754585981359,
    0.794957075744,0.840711353244,0.872323528674,0.936932912603,
    0.947639226842,0.960365891674,0.994571588075,1.),.UNSPECIFIED.);
#131 = CARTESIAN_POINT('',(2.151605998399,0.123973113351));
#132 = CARTESIAN_POINT('',(1.833905891157,0.109362065897));
#133 = CARTESIAN_POINT('',(1.496582837351,7.616111590177E-02));
#134 = CARTESIAN_POINT('',(1.48900490726,0.153522934427));
#135 = CARTESIAN_POINT('',(1.438718960483,5.741563055981E-02));
#136 = CARTESIAN_POINT('',(1.27812596618,0.108689577995));
#137 = CARTESIAN_POINT('',(1.275846954422,0.116369001053));
#138 = CARTESIAN_POINT('',(1.148882954458,0.134089713801));
#139 = CARTESIAN_POINT('',(1.030433763046,9.502727709502E-02));
#140 = CARTESIAN_POINT('',(0.983938802914,0.157603261547));
#141 = CARTESIAN_POINT('',(0.823337447905,6.202398746564E-02));
#142 = CARTESIAN_POINT('',(0.523658114535,5.10065206989E-02));
#143 = CARTESIAN_POINT('',(0.417676780049,6.07753415707E-02));
#144 = CARTESIAN_POINT('',(-2.845764475194E-02,0.125149394212));
#145 = CARTESIAN_POINT('',(-1.198761590841,0.146097485364));
#146 = CARTESIAN_POINT('',(-1.360552714437,4.508206618962E-02));
#147 = CARTESIAN_POINT('',(-1.56545683486,0.113957076391));
#148 = CARTESIAN_POINT('',(-1.698729812656,4.654003779896E-02));
#149 = CARTESIAN_POINT('',(-1.996573464927,0.113385232717));
#150 = CARTESIAN_POINT('',(-2.021099166738,0.157624574188));
#151 = CARTESIAN_POINT('',(-2.071728283594,0.125188563674));
#152 = CARTESIAN_POINT('',(-2.224502731435,7.249105015814E-02));
#153 = CARTESIAN_POINT('',(-2.248394001601,6.316497890427E-02));
#154 = ( GEOMETRIC_REPRESENTATION_CONTEXT(2) 
PARAMETRIC_REPRESENTATION_CONTEXT() REPRESENTATION_CONTEXT('2D SPACE',''
  ) );
#155 = ORIENTED_EDGE('',*,*,#156,.T.);
#156 = EDGE_CURVE('',#101,#22,#157,.T.);
#157 = SURFACE_CURVE('',#158,(#162),.PCURVE_S1.);
#158 = LINE('',#159,#160);
#159 = CARTESIAN_POINT('',(0.,0.163164978904,0.));
#160 = VECTOR('',#161,1.);
#161 = DIRECTION('',(0.,-1.,0.));
#162 = PCURVE('',#52,#163);
#163 = DEFINITIONAL_REPRESENTATION('',(#164),#168);
#164 = LINE('',#165,#166);
#165 = CARTESIAN_POINT('',(-2.248394001601,6.316497890427E-02));
#166 = VECTOR('',#167,1.);
#167 = DIRECTION('',(0.,-1.));
#168 = ( GEOMETRIC_REPRESENTATION_CONTEXT(2) 
PARAMETRIC_REPRESENTATION_CONTEXT() REPRESENTATION_CONTEXT('2D SPACE',''
  ) );
#169 = ( GEOMETRIC_REPRESENTATION_CONTEXT(3) 
GLOBAL_UNCERTAINTY_ASSIGNED_CONTEXT((#173)) GLOBAL_UNIT_ASSIGNED_CONTEXT
((#170,#171,#172)) REPRESENTATION_CONTEXT('Context #1',
  '3D Context with UNIT and UNCERTAINTY') );
#170 = ( LENGTH_UNIT() NAMED_UNIT(*) SI_UNIT(.MILLI.,.METRE.) );
#171 = ( NAMED_UNIT(*) PLANE_ANGLE_UNIT() SI_UNIT($,.RADIAN.) );
#172 = ( NAMED_UNIT(*) SI_UNIT($,.STERADIAN.) SOLID_ANGLE_UNIT() );
#173 = UNCERTAINTY_MEASURE_WITH_UNIT(LENGTH_MEASURE(1.E-07),#170,
  'distance_accuracy_value','confusion accuracy');
#174 = PRODUCT_RELATED_PRODUCT_CATEGORY('part',$,(#7));
ENDSEC;
END-ISO-10303-21;
