ISO-10303-21;
HEADER;
FILE_DESCRIPTION(('Open CASCADE Model'),'2;1');
FILE_NAME('Open CASCADE Shape Model','2026-05-28T17:04:49',('Author'),(
    'Open CASCADE'),'Open CASCADE STEP processor 7.9','Open CASCADE 7.9'
  ,'Unknown');
FILE_SCHEMA(('AUTOMOTIVE_DESIGN { 1 0 10303 214 1 1 1 1 }'));
ENDSEC;
DATA;
#1 = APPLICATION_PROTOCOL_DEFINITION('international standard',
  'automotive_design',2000,#2);
#2 = APPLICATION_CONTEXT(
  'core data for automotive mechanical design processes');
#3 = SHAPE_DEFINITION_REPRESENTATION(#4,#10);
#4 = PRODUCT_DEFINITION_SHAPE('','',#5);
#5 = PRODUCT_DEFINITION('design','',#6,#9);
#6 = PRODUCT_DEFINITION_FORMATION('','',#7);
#7 = PRODUCT('Open CASCADE STEP translator 7.9 78',
  'Open CASCADE STEP translator 7.9 78','',(#8));
#8 = PRODUCT_CONTEXT('',#2,'mechanical');
#9 = PRODUCT_DEFINITION_CONTEXT('part definition',#2,'design');
#10 = MANIFOLD_SURFACE_SHAPE_REPRESENTATION('',(#11,#15),#241);
#11 = AXIS2_PLACEMENT_3D('',#12,#13,#14);
#12 = CARTESIAN_POINT('',(0.,0.,0.));
#13 = DIRECTION('',(0.,0.,1.));
#14 = DIRECTION('',(1.,0.,-0.));
#15 = SHELL_BASED_SURFACE_MODEL('',(#16));
#16 = OPEN_SHELL('',(#17));
#17 = ADVANCED_FACE('',(#18),#70,.T.);
#18 = FACE_BOUND('',#19,.T.);
#19 = EDGE_LOOP('',(#20,#119,#135,#227));
#20 = ORIENTED_EDGE('',*,*,#21,.T.);
#21 = EDGE_CURVE('',#22,#24,#26,.T.);
#22 = VERTEX_POINT('',#23);
#23 = CARTESIAN_POINT('',(0.,8.65268841849E-03,0.));
#24 = VERTEX_POINT('',#25);
#25 = CARTESIAN_POINT('',(8.,-1.405542932216E-02,0.));
#26 = SURFACE_CURVE('',#27,(#69),.PCURVE_S1.);
#27 = B_SPLINE_CURVE_WITH_KNOTS('',1,(#28,#29,#30,#31,#32,#33,#34,#35,
    #36,#37,#38,#39,#40,#41,#42,#43,#44,#45,#46,#47,#48,#49,#50,#51,#52,
    #53,#54,#55,#56,#57,#58,#59,#60,#61,#62,#63,#64,#65,#66,#67,#68),
  .UNSPECIFIED.,.F.,.F.,(2,1,1,1,1,1,1,1,1,1,1,1,1,1,1,1,1,1,1,1,1,1,1,1
    ,1,1,1,1,1,1,1,1,1,1,1,1,1,1,1,1,2),(0.,3.321104717548E-02,
    4.450805101351E-02,7.448086134326E-02,8.592671867631E-02,
    0.110045433105,0.130334329668,0.135282304651,0.144819009768,
    0.159378151441,0.241733282803,0.269301823201,0.278056242084,
    0.283896923576,0.294787040727,0.304617399272,0.338842526425,
    0.348153911995,0.372758435719,0.398543294377,0.406274717986,
    0.4482995913,0.456990780984,0.474567882741,0.485266729361,
    0.529888944108,0.657705623858,0.670156681203,0.725437798759,
    0.727184775193,0.739260126584,0.760956737988,0.777408710401,
    0.852145052663,0.854094849866,0.872884242254,0.879881939977,
    0.945382298043,0.976949715076,0.996176621069,1.),.UNSPECIFIED.);
#28 = CARTESIAN_POINT('',(0.,8.65268841849E-03,0.));
#29 = CARTESIAN_POINT('',(0.279326334582,3.991712768267E-02,0.));
#30 = CARTESIAN_POINT('',(0.37248921383,1.843119048307E-02,0.));
#31 = CARTESIAN_POINT('',(0.620413394092,-3.522932992699E-02,0.));
#32 = CARTESIAN_POINT('',(0.69157930615,3.04886819293E-02,0.));
#33 = CARTESIAN_POINT('',(0.890919782293,-1.342735456105E-02,0.));
#34 = CARTESIAN_POINT('',(1.059082330035,-4.814177030983E-02,0.));
#35 = CARTESIAN_POINT('',(1.071112555001,-8.031502443546E-03,0.));
#36 = CARTESIAN_POINT('',(1.138263828453,3.674488646731E-02,0.));
#37 = CARTESIAN_POINT('',(1.260141087109,1.862805672409E-02,0.));
#38 = CARTESIAN_POINT('',(1.956502746287,-1.084430486209E-02,0.));
#39 = CARTESIAN_POINT('',(2.189603261078,-7.933367711824E-04,0.));
#40 = CARTESIAN_POINT('',(2.249967734994,4.216561964677E-02,0.));
#41 = CARTESIAN_POINT('',(2.284071933523,6.384438637132E-03,0.));
#42 = CARTESIAN_POINT('',(2.375509902542,-5.16800338923E-03,0.));
#43 = CARTESIAN_POINT('',(2.451843018549,2.792007426509E-02,0.));
#44 = CARTESIAN_POINT('',(2.738520049981,-1.349346184078E-02,0.));
#45 = CARTESIAN_POINT('',(2.782965293769,5.158078806177E-02,0.));
#46 = CARTESIAN_POINT('',(2.988728051779,1.960715597214E-02,0.));
#47 = CARTESIAN_POINT('',(3.19960984854,-3.651321993331E-02,0.));
#48 = CARTESIAN_POINT('',(3.201696169413,2.888582389102E-02,0.));
#49 = CARTESIAN_POINT('',(3.554929301106,-1.262122200037E-02,0.));
#50 = CARTESIAN_POINT('',(3.624656966479,1.079643435476E-02,0.));
#51 = CARTESIAN_POINT('',(3.77299051174,2.202478291017E-02,0.));
#52 = CARTESIAN_POINT('',(3.827947505132,-4.99358025492E-02,0.));
#53 = CARTESIAN_POINT('',(4.199283039639,1.880859383035E-02,0.));
#54 = CARTESIAN_POINT('',(5.280941071056,3.159889182156E-02,0.));
#55 = CARTESIAN_POINT('',(5.348683566568,-4.911615787683E-02,0.));
#56 = CARTESIAN_POINT('',(5.816125930147,-2.95133227123E-02,0.));
#57 = CARTESIAN_POINT('',(5.828749140303,-2.181596564378E-02,0.));
#58 = CARTESIAN_POINT('',(5.897213973738,5.405580695197E-02,0.));
#59 = CARTESIAN_POINT('',(6.080574252348,4.425540471411E-02,0.));
#60 = CARTESIAN_POINT('',(6.205806512178,-1.660079565716E-02,0.));
#61 = CARTESIAN_POINT('',(6.836214944338,3.486805961685E-02,0.));
#62 = CARTESIAN_POINT('',(6.852601417194,3.292344172436E-02,0.));
#63 = CARTESIAN_POINT('',(6.997083294744,-3.349662184123E-02,0.));
#64 = CARTESIAN_POINT('',(6.999177603781,2.568900613957E-02,0.));
#65 = CARTESIAN_POINT('',(7.552920923972,5.140952374177E-02,0.));
#66 = CARTESIAN_POINT('',(7.820047873031,5.562816632282E-02,0.));
#67 = CARTESIAN_POINT('',(7.97527539688,6.818641530565E-03,0.));
#68 = CARTESIAN_POINT('',(8.,-1.405542932216E-02,0.));
#69 = PCURVE('',#70,#75);
#70 = PLANE('',#71);
#71 = AXIS2_PLACEMENT_3D('',#72,#73,#74);
#72 = CARTESIAN_POINT('',(4.006805343324,0.1,0.));
#73 = DIRECTION('',(0.,0.,1.));
#74 = DIRECTION('',(1.,0.,-0.));
#75 = DEFINITIONAL_REPRESENTATION('',(#76),#118);
#76 = B_SPLINE_CURVE_WITH_KNOTS('',1,(#77,#78,#79,#80,#81,#82,#83,#84,
    #85,#86,#87,#88,#89,#90,#91,#92,#93,#94,#95,#96,#97,#98,#99,#100,
    #101,#102,#103,#104,#105,#106,#107,#108,#109,#110,#111,#112,#113,
    #114,#115,#116,#117),.UNSPECIFIED.,.F.,.F.,(2,1,1,1,1,1,1,1,1,1,1,1,
    1,1,1,1,1,1,1,1,1,1,1,1,1,1,1,1,1,1,1,1,1,1,1,1,1,1,1,1,2),(0.,
    3.321104717548E-02,4.450805101351E-02,7.448086134326E-02,
    8.592671867631E-02,0.110045433105,0.130334329668,0.135282304651,
    0.144819009768,0.159378151441,0.241733282803,0.269301823201,
    0.278056242084,0.283896923576,0.294787040727,0.304617399272,
    0.338842526425,0.348153911995,0.372758435719,0.398543294377,
    0.406274717986,0.4482995913,0.456990780984,0.474567882741,
    0.485266729361,0.529888944108,0.657705623858,0.670156681203,
    0.725437798759,0.727184775193,0.739260126584,0.760956737988,
    0.777408710401,0.852145052663,0.854094849866,0.872884242254,
    0.879881939977,0.945382298043,0.976949715076,0.996176621069,1.),
  .UNSPECIFIED.);
#77 = CARTESIAN_POINT('',(-4.006805343324,-9.134731158151E-02));
#78 = CARTESIAN_POINT('',(-3.727479008742,-6.008287231733E-02));
#79 = CARTESIAN_POINT('',(-3.634316129494,-8.156880951693E-02));
#80 = CARTESIAN_POINT('',(-3.386391949233,-0.135229329927));
#81 = CARTESIAN_POINT('',(-3.315226037174,-6.95113180707E-02));
#82 = CARTESIAN_POINT('',(-3.115885561032,-0.113427354561));
#83 = CARTESIAN_POINT('',(-2.94772301329,-0.14814177031));
#84 = CARTESIAN_POINT('',(-2.935692788323,-0.108031502444));
#85 = CARTESIAN_POINT('',(-2.868541514872,-6.325511353269E-02));
#86 = CARTESIAN_POINT('',(-2.746664256215,-8.137194327591E-02));
#87 = CARTESIAN_POINT('',(-2.050302597037,-0.110844304862));
#88 = CARTESIAN_POINT('',(-1.817202082246,-0.100793336771));
#89 = CARTESIAN_POINT('',(-1.75683760833,-5.783438035323E-02));
#90 = CARTESIAN_POINT('',(-1.722733409801,-9.361556136287E-02));
#91 = CARTESIAN_POINT('',(-1.631295440783,-0.105168003389));
#92 = CARTESIAN_POINT('',(-1.554962324776,-7.207992573491E-02));
#93 = CARTESIAN_POINT('',(-1.268285293344,-0.113493461841));
#94 = CARTESIAN_POINT('',(-1.223840049556,-4.841921193823E-02));
#95 = CARTESIAN_POINT('',(-1.018077291545,-8.039284402786E-02));
#96 = CARTESIAN_POINT('',(-0.807195494784,-0.136513219933));
#97 = CARTESIAN_POINT('',(-0.805109173912,-7.111417610898E-02));
#98 = CARTESIAN_POINT('',(-0.451876042219,-0.112621222));
#99 = CARTESIAN_POINT('',(-0.382148376846,-8.920356564524E-02));
#100 = CARTESIAN_POINT('',(-0.233814831584,-7.797521708983E-02));
#101 = CARTESIAN_POINT('',(-0.178857838193,-0.149935802549));
#102 = CARTESIAN_POINT('',(0.192477696315,-8.119140616965E-02));
#103 = CARTESIAN_POINT('',(1.274135727732,-6.840110817844E-02));
#104 = CARTESIAN_POINT('',(1.341878223243,-0.149116157877));
#105 = CARTESIAN_POINT('',(1.809320586823,-0.129513322712));
#106 = CARTESIAN_POINT('',(1.821943796979,-0.121815965644));
#107 = CARTESIAN_POINT('',(1.890408630413,-4.594419304803E-02));
#108 = CARTESIAN_POINT('',(2.073768909024,-5.574459528589E-02));
#109 = CARTESIAN_POINT('',(2.199001168854,-0.116600795657));
#110 = CARTESIAN_POINT('',(2.829409601013,-6.513194038315E-02));
#111 = CARTESIAN_POINT('',(2.845796073869,-6.707655827564E-02));
#112 = CARTESIAN_POINT('',(2.990277951419,-0.133496621841));
#113 = CARTESIAN_POINT('',(2.992372260456,-7.431099386043E-02));
#114 = CARTESIAN_POINT('',(3.546115580648,-4.859047625823E-02));
#115 = CARTESIAN_POINT('',(3.813242529707,-4.437183367718E-02));
#116 = CARTESIAN_POINT('',(3.968470053556,-9.318135846943E-02));
#117 = CARTESIAN_POINT('',(3.993194656676,-0.114055429322));
#118 = ( GEOMETRIC_REPRESENTATION_CONTEXT(2) 
PARAMETRIC_REPRESENTATION_CONTEXT() REPRESENTATION_CONTEXT('2D SPACE',''
  ) );
#119 = ORIENTED_EDGE('',*,*,#120,.T.);
#120 = EDGE_CURVE('',#24,#121,#123,.T.);
#121 = VERTEX_POINT('',#122);
#122 = CARTESIAN_POINT('',(8.,0.214055429322,0.));
#123 = SURFACE_CURVE('',#124,(#128),.PCURVE_S1.);
#124 = LINE('',#125,#126);
#125 = CARTESIAN_POINT('',(8.,-1.405542932216E-02,0.));
#126 = VECTOR('',#127,1.);
#127 = DIRECTION('',(0.,1.,0.));
#128 = PCURVE('',#70,#129);
#129 = DEFINITIONAL_REPRESENTATION('',(#130),#134);
#130 = LINE('',#131,#132);
#131 = CARTESIAN_POINT('',(3.993194656676,-0.114055429322));
#132 = VECTOR('',#133,1.);
#133 = DIRECTION('',(0.,1.));
#134 = ( GEOMETRIC_REPRESENTATION_CONTEXT(2) 
PARAMETRIC_REPRESENTATION_CONTEXT() REPRESENTATION_CONTEXT('2D SPACE',''
  ) );
#135 = ORIENTED_EDGE('',*,*,#136,.T.);
#136 = EDGE_CURVE('',#121,#137,#139,.T.);
#137 = VERTEX_POINT('',#138);
#138 = CARTESIAN_POINT('',(0.,0.191347311582,0.));
#139 = SURFACE_CURVE('',#140,(#182),.PCURVE_S1.);
#140 = B_SPLINE_CURVE_WITH_KNOTS('',1,(#141,#142,#143,#144,#145,#146,
    #147,#148,#149,#150,#151,#152,#153,#154,#155,#156,#157,#158,#159,
    #160,#161,#162,#163,#164,#165,#166,#167,#168,#169,#170,#171,#172,
    #173,#174,#175,#176,#177,#178,#179,#180,#181),.UNSPECIFIED.,.F.,.F.,
  (2,1,1,1,1,1,1,1,1,1,1,1,1,1,1,1,1,1,1,1,1,1,1,1,1,1,1,1,1,1,1,1,1,1,1
    ,1,1,1,1,1,2),(0.,3.823378931264E-03,2.305028492416E-02,
    5.461770195736E-02,0.120118060023,0.127115757746,0.145905150134,
    0.147854947337,0.222591289599,0.239043262012,0.260739873416,
    0.272815224807,0.274562201241,0.329843318797,0.342294376142,
    0.470111055892,0.514733270639,0.525432117259,0.543009219016,
    0.5517004087,0.593725282014,0.601456705623,0.627241564281,
    0.651846088005,0.661157473575,0.695382600728,0.705212959273,
    0.716103076424,0.721943757916,0.730698176799,0.758266717197,
    0.840621848559,0.855180990232,0.864717695349,0.869665670332,
    0.889954566895,0.914073281324,0.925519138657,0.955491948986,
    0.966788952825,1.),.UNSPECIFIED.);
#141 = CARTESIAN_POINT('',(8.,0.214055429322,0.));
#142 = CARTESIAN_POINT('',(7.97527539688,0.193181358469,0.));
#143 = CARTESIAN_POINT('',(7.820047873031,0.144371833677,0.));
#144 = CARTESIAN_POINT('',(7.552920923972,0.148590476258,0.));
#145 = CARTESIAN_POINT('',(6.999177603781,0.17431099386,0.));
#146 = CARTESIAN_POINT('',(6.997083294744,0.233496621841,0.));
#147 = CARTESIAN_POINT('',(6.852601417194,0.167076558276,0.));
#148 = CARTESIAN_POINT('',(6.836214944338,0.165131940383,0.));
#149 = CARTESIAN_POINT('',(6.205806512178,0.216600795657,0.));
#150 = CARTESIAN_POINT('',(6.080574252348,0.155744595286,0.));
#151 = CARTESIAN_POINT('',(5.897213973738,0.145944193048,0.));
#152 = CARTESIAN_POINT('',(5.828749140303,0.221815965644,0.));
#153 = CARTESIAN_POINT('',(5.816125930147,0.229513322712,0.));
#154 = CARTESIAN_POINT('',(5.348683566568,0.249116157877,0.));
#155 = CARTESIAN_POINT('',(5.280941071056,0.168401108178,0.));
#156 = CARTESIAN_POINT('',(4.199283039639,0.18119140617,0.));
#157 = CARTESIAN_POINT('',(3.827947505132,0.249935802549,0.));
#158 = CARTESIAN_POINT('',(3.77299051174,0.17797521709,0.));
#159 = CARTESIAN_POINT('',(3.624656966479,0.189203565645,0.));
#160 = CARTESIAN_POINT('',(3.554929301106,0.212621222,0.));
#161 = CARTESIAN_POINT('',(3.201696169413,0.171114176109,0.));
#162 = CARTESIAN_POINT('',(3.19960984854,0.236513219933,0.));
#163 = CARTESIAN_POINT('',(2.988728051779,0.180392844028,0.));
#164 = CARTESIAN_POINT('',(2.782965293769,0.148419211938,0.));
#165 = CARTESIAN_POINT('',(2.738520049981,0.213493461841,0.));
#166 = CARTESIAN_POINT('',(2.451843018549,0.172079925735,0.));
#167 = CARTESIAN_POINT('',(2.375509902542,0.205168003389,0.));
#168 = CARTESIAN_POINT('',(2.284071933523,0.193615561363,0.));
#169 = CARTESIAN_POINT('',(2.249967734994,0.157834380353,0.));
#170 = CARTESIAN_POINT('',(2.189603261078,0.200793336771,0.));
#171 = CARTESIAN_POINT('',(1.956502746287,0.210844304862,0.));
#172 = CARTESIAN_POINT('',(1.260141087109,0.181371943276,0.));
#173 = CARTESIAN_POINT('',(1.138263828453,0.163255113533,0.));
#174 = CARTESIAN_POINT('',(1.071112555001,0.208031502444,0.));
#175 = CARTESIAN_POINT('',(1.059082330035,0.24814177031,0.));
#176 = CARTESIAN_POINT('',(0.890919782293,0.213427354561,0.));
#177 = CARTESIAN_POINT('',(0.69157930615,0.169511318071,0.));
#178 = CARTESIAN_POINT('',(0.620413394092,0.235229329927,0.));
#179 = CARTESIAN_POINT('',(0.37248921383,0.181568809517,0.));
#180 = CARTESIAN_POINT('',(0.279326334582,0.160082872317,0.));
#181 = CARTESIAN_POINT('',(0.,0.191347311582,0.));
#182 = PCURVE('',#70,#183);
#183 = DEFINITIONAL_REPRESENTATION('',(#184),#226);
#184 = B_SPLINE_CURVE_WITH_KNOTS('',1,(#185,#186,#187,#188,#189,#190,
    #191,#192,#193,#194,#195,#196,#197,#198,#199,#200,#201,#202,#203,
    #204,#205,#206,#207,#208,#209,#210,#211,#212,#213,#214,#215,#216,
    #217,#218,#219,#220,#221,#222,#223,#224,#225),.UNSPECIFIED.,.F.,.F.,
  (2,1,1,1,1,1,1,1,1,1,1,1,1,1,1,1,1,1,1,1,1,1,1,1,1,1,1,1,1,1,1,1,1,1,1
    ,1,1,1,1,1,2),(0.,3.823378931264E-03,2.305028492416E-02,
    5.461770195736E-02,0.120118060023,0.127115757746,0.145905150134,
    0.147854947337,0.222591289599,0.239043262012,0.260739873416,
    0.272815224807,0.274562201241,0.329843318797,0.342294376142,
    0.470111055892,0.514733270639,0.525432117259,0.543009219016,
    0.5517004087,0.593725282014,0.601456705623,0.627241564281,
    0.651846088005,0.661157473575,0.695382600728,0.705212959273,
    0.716103076424,0.721943757916,0.730698176799,0.758266717197,
    0.840621848559,0.855180990232,0.864717695349,0.869665670332,
    0.889954566895,0.914073281324,0.925519138657,0.955491948986,
    0.966788952825,1.),.UNSPECIFIED.);
#185 = CARTESIAN_POINT('',(3.993194656676,0.114055429322));
#186 = CARTESIAN_POINT('',(3.968470053556,9.318135846943E-02));
#187 = CARTESIAN_POINT('',(3.813242529707,4.437183367718E-02));
#188 = CARTESIAN_POINT('',(3.546115580648,4.859047625823E-02));
#189 = CARTESIAN_POINT('',(2.992372260456,7.431099386043E-02));
#190 = CARTESIAN_POINT('',(2.990277951419,0.133496621841));
#191 = CARTESIAN_POINT('',(2.845796073869,6.707655827564E-02));
#192 = CARTESIAN_POINT('',(2.829409601013,6.513194038315E-02));
#193 = CARTESIAN_POINT('',(2.199001168854,0.116600795657));
#194 = CARTESIAN_POINT('',(2.073768909024,5.574459528589E-02));
#195 = CARTESIAN_POINT('',(1.890408630413,4.594419304803E-02));
#196 = CARTESIAN_POINT('',(1.821943796979,0.121815965644));
#197 = CARTESIAN_POINT('',(1.809320586823,0.129513322712));
#198 = CARTESIAN_POINT('',(1.341878223243,0.149116157877));
#199 = CARTESIAN_POINT('',(1.274135727732,6.840110817844E-02));
#200 = CARTESIAN_POINT('',(0.192477696315,8.119140616965E-02));
#201 = CARTESIAN_POINT('',(-0.178857838193,0.149935802549));
#202 = CARTESIAN_POINT('',(-0.233814831584,7.797521708983E-02));
#203 = CARTESIAN_POINT('',(-0.382148376846,8.920356564524E-02));
#204 = CARTESIAN_POINT('',(-0.451876042219,0.112621222));
#205 = CARTESIAN_POINT('',(-0.805109173912,7.111417610898E-02));
#206 = CARTESIAN_POINT('',(-0.807195494784,0.136513219933));
#207 = CARTESIAN_POINT('',(-1.018077291545,8.039284402786E-02));
#208 = CARTESIAN_POINT('',(-1.223840049556,4.841921193823E-02));
#209 = CARTESIAN_POINT('',(-1.268285293344,0.113493461841));
#210 = CARTESIAN_POINT('',(-1.554962324776,7.207992573491E-02));
#211 = CARTESIAN_POINT('',(-1.631295440783,0.105168003389));
#212 = CARTESIAN_POINT('',(-1.722733409801,9.361556136287E-02));
#213 = CARTESIAN_POINT('',(-1.75683760833,5.783438035323E-02));
#214 = CARTESIAN_POINT('',(-1.817202082246,0.100793336771));
#215 = CARTESIAN_POINT('',(-2.050302597037,0.110844304862));
#216 = CARTESIAN_POINT('',(-2.746664256215,8.137194327591E-02));
#217 = CARTESIAN_POINT('',(-2.868541514872,6.325511353269E-02));
#218 = CARTESIAN_POINT('',(-2.935692788323,0.108031502444));
#219 = CARTESIAN_POINT('',(-2.94772301329,0.14814177031));
#220 = CARTESIAN_POINT('',(-3.115885561032,0.113427354561));
#221 = CARTESIAN_POINT('',(-3.315226037174,6.95113180707E-02));
#222 = CARTESIAN_POINT('',(-3.386391949233,0.135229329927));
#223 = CARTESIAN_POINT('',(-3.634316129494,8.156880951693E-02));
#224 = CARTESIAN_POINT('',(-3.727479008742,6.008287231733E-02));
#225 = CARTESIAN_POINT('',(-4.006805343324,9.134731158151E-02));
#226 = ( GEOMETRIC_REPRESENTATION_CONTEXT(2) 
PARAMETRIC_REPRESENTATION_CONTEXT() REPRESENTATION_CONTEXT('2D SPACE',''
  ) );
#227 = ORIENTED_EDGE('',*,*,#228,.T.);
#228 = EDGE_CURVE('',#137,#22,#229,.T.);
#229 = SURFACE_CURVE('',#230,(#234),.PCURVE_S1.);
#230 = LINE('',#231,#232);
#231 = CARTESIAN_POINT('',(0.,0.191347311582,0.));
#232 = VECTOR('',#233,1.);
#233 = DIRECTION('',(0.,-1.,0.));
#234 = PCURVE('',#70,#235);
#235 = DEFINITIONAL_REPRESENTATION('',(#236),#240);
#236 = LINE('',#237,#238);
#237 = CARTESIAN_POINT('',(-4.006805343324,9.134731158151E-02));
#238 = VECTOR('',#239,1.);
#239 = DIRECTION('',(0.,-1.));
#240 = ( GEOMETRIC_REPRESENTATION_CONTEXT(2) 
PARAMETRIC_REPRESENTATION_CONTEXT() REPRESENTATION_CONTEXT('2D SPACE',''
  ) );
#241 = ( GEOMETRIC_REPRESENTATION_CONTEXT(3) 
GLOBAL_UNCERTAINTY_ASSIGNED_CONTEXT((#245)) GLOBAL_UNIT_ASSIGNED_CONTEXT
((#242,#243,#244)) REPRESENTATION_CONTEXT('Context #1',
  '3D Context with UNIT and UNCERTAINTY') );
#242 = ( LENGTH_UNIT() NAMED_UNIT(*) SI_UNIT(.MILLI.,.METRE.) );
#243 = ( NAMED_UNIT(*) PLANE_ANGLE_UNIT() SI_UNIT($,.RADIAN.) );
#244 = ( NAMED_UNIT(*) SI_UNIT($,.STERADIAN.) SOLID_ANGLE_UNIT() );
#245 = UNCERTAINTY_MEASURE_WITH_UNIT(LENGTH_MEASURE(1.E-07),#242,
  'distance_accuracy_value','confusion accuracy');
#246 = PRODUCT_RELATED_PRODUCT_CATEGORY('part',$,(#7));
ENDSEC;
END-ISO-10303-21;
