ISO-10303-21;
HEADER;
FILE_DESCRIPTION(('Open CASCADE Model'),'2;1');
FILE_NAME('Open CASCADE Shape Model','2026-05-28T17:04:48',('Author'),(
    'Open CASCADE'),'Open CASCADE STEP processor 7.9','Open CASCADE 7.9'
  ,'Unknown');
FILE_SCHEMA(('AUTOMOTIVE_DESIGN { 1 0 10303 214 1 1 1 1 }'));
ENDSEC;
DATA;
#1 = APPLICATION_PROTOCOL_DEFINITION('international standard',
  'automotive_design',2000,#2);
#2 = APPLICATION_CONTEXT(
  'core data for automotive mechanical design processes');
#3 = SHAPE_DEFINITION_REPRESENTATION(#4,#10);
#4 = PRODUCT_DEFINITION_SHAPE('','',#5);
#5 = PRODUCT_DEFINITION('design','',#6,#9);
#6 = PRODUCT_DEFINITION_FORMATION('','',#7);
#7 = PRODUCT('Open CASCADE STEP translator 7.9 21',
  'Open CASCADE STEP translator 7.9 21','',(#8));
#8 = PRODUCT_CONTEXT('',#2,'mechanical');
#9 = PRODUCT_DEFINITION_CONTEXT('part definition',#2,'design');
#10 = MANIFOLD_SURFACE_SHAPE_REPRESENTATION('',(#11,#15),#121);
#11 = AXIS2_PLACEMENT_3D('',#12,#13,#14);
#12 = CARTESIAN_POINT('',(0.,0.,0.));
#13 = DIRECTION('',(0.,0.,1.));
#14 = DIRECTION('',(1.,0.,-0.));
#15 = SHELL_BASED_SURFACE_MODEL('',(#16));
#16 = OPEN_SHELL('',(#17));
#17 = ADVANCED_FACE('',(#18),#40,.T.);
#18 = FACE_BOUND('',#19,.T.);
#19 = EDGE_LOOP('',(#20,#59,#75,#107));
#20 = ORIENTED_EDGE('',*,*,#21,.T.);
#21 = EDGE_CURVE('',#22,#24,#26,.T.);
#22 = VERTEX_POINT('',#23);
#23 = CARTESIAN_POINT('',(0.,-3.094923824794E-02,0.));
#24 = VERTEX_POINT('',#25);
#25 = CARTESIAN_POINT('',(2.,5.987190419727E-02,0.));
#26 = SURFACE_CURVE('',#27,(#39),.PCURVE_S1.);
#27 = B_SPLINE_CURVE_WITH_KNOTS('',1,(#28,#29,#30,#31,#32,#33,#34,#35,
    #36,#37,#38),.UNSPECIFIED.,.F.,.F.,(2,1,1,1,1,1,1,1,1,1,2),(0.,
    2.645782909966E-02,5.388084195853E-02,0.26143675107,0.417476115533,
    0.485547653518,0.550374826593,0.602328368365,0.709734924435,
    0.831293471077,1.),.UNSPECIFIED.);
#28 = CARTESIAN_POINT('',(0.,-3.094923824794E-02,0.));
#29 = CARTESIAN_POINT('',(5.315552999458E-02,-3.919337815895E-02,0.));
#30 = CARTESIAN_POINT('',(9.891827429203E-02,-7.346768146805E-03,0.));
#31 = CARTESIAN_POINT('',(0.520369310686,1.375566229715E-02,0.));
#32 = CARTESIAN_POINT('',(0.83731217463,2.751638862059E-02,0.));
#33 = CARTESIAN_POINT('',(0.972384151245,-2.63021649231E-03,0.));
#34 = CARTESIAN_POINT('',(1.101817536981,2.223004577227E-02,0.));
#35 = CARTESIAN_POINT('',(1.203116904912,-7.691416445667E-03,0.));
#36 = CARTESIAN_POINT('',(1.421065543485,-2.119828590116E-02,0.));
#37 = CARTESIAN_POINT('',(1.657093849678,5.207049468967E-02,0.));
#38 = CARTESIAN_POINT('',(2.,5.987190419727E-02,0.));
#39 = PCURVE('',#40,#45);
#40 = PLANE('',#41);
#41 = AXIS2_PLACEMENT_3D('',#42,#43,#44);
#42 = CARTESIAN_POINT('',(0.957123723919,0.1,0.));
#43 = DIRECTION('',(0.,0.,1.));
#44 = DIRECTION('',(1.,0.,-0.));
#45 = DEFINITIONAL_REPRESENTATION('',(#46),#58);
#46 = B_SPLINE_CURVE_WITH_KNOTS('',1,(#47,#48,#49,#50,#51,#52,#53,#54,
    #55,#56,#57),.UNSPECIFIED.,.F.,.F.,(2,1,1,1,1,1,1,1,1,1,2),(0.,
    2.645782909966E-02,5.388084195853E-02,0.26143675107,0.417476115533,
    0.485547653518,0.550374826593,0.602328368365,0.709734924435,
    0.831293471077,1.),.UNSPECIFIED.);
#47 = CARTESIAN_POINT('',(-0.957123723919,-0.130949238248));
#48 = CARTESIAN_POINT('',(-0.903968193924,-0.139193378159));
#49 = CARTESIAN_POINT('',(-0.858205449627,-0.107346768147));
#50 = CARTESIAN_POINT('',(-0.436754413233,-8.624433770285E-02));
#51 = CARTESIAN_POINT('',(-0.119811549289,-7.248361137941E-02));
#52 = CARTESIAN_POINT('',(1.526042732598E-02,-0.102630216492));
#53 = CARTESIAN_POINT('',(0.144693813062,-7.776995422773E-02));
#54 = CARTESIAN_POINT('',(0.245993180993,-0.107691416446));
#55 = CARTESIAN_POINT('',(0.463941819567,-0.121198285901));
#56 = CARTESIAN_POINT('',(0.699970125759,-4.792950531033E-02));
#57 = CARTESIAN_POINT('',(1.042876276081,-4.012809580273E-02));
#58 = ( GEOMETRIC_REPRESENTATION_CONTEXT(2) 
PARAMETRIC_REPRESENTATION_CONTEXT() REPRESENTATION_CONTEXT('2D SPACE',''
  ) );
#59 = ORIENTED_EDGE('',*,*,#60,.T.);
#60 = EDGE_CURVE('',#24,#61,#63,.T.);
#61 = VERTEX_POINT('',#62);
#62 = CARTESIAN_POINT('',(2.,0.140128095803,0.));
#63 = SURFACE_CURVE('',#64,(#68),.PCURVE_S1.);
#64 = LINE('',#65,#66);
#65 = CARTESIAN_POINT('',(2.,5.987190419727E-02,0.));
#66 = VECTOR('',#67,1.);
#67 = DIRECTION('',(0.,1.,0.));
#68 = PCURVE('',#40,#69);
#69 = DEFINITIONAL_REPRESENTATION('',(#70),#74);
#70 = LINE('',#71,#72);
#71 = CARTESIAN_POINT('',(1.042876276081,-4.012809580273E-02));
#72 = VECTOR('',#73,1.);
#73 = DIRECTION('',(0.,1.));
#74 = ( GEOMETRIC_REPRESENTATION_CONTEXT(2) 
PARAMETRIC_REPRESENTATION_CONTEXT() REPRESENTATION_CONTEXT('2D SPACE',''
  ) );
#75 = ORIENTED_EDGE('',*,*,#76,.T.);
#76 = EDGE_CURVE('',#61,#77,#79,.T.);
#77 = VERTEX_POINT('',#78);
#78 = CARTESIAN_POINT('',(0.,0.230949238248,0.));
#79 = SURFACE_CURVE('',#80,(#92),.PCURVE_S1.);
#80 = B_SPLINE_CURVE_WITH_KNOTS('',1,(#81,#82,#83,#84,#85,#86,#87,#88,
    #89,#90,#91),.UNSPECIFIED.,.F.,.F.,(2,1,1,1,1,1,1,1,1,1,2),(0.,
    0.168706528923,0.290265075565,0.397671631635,0.449625173407,
    0.514452346482,0.582523884467,0.73856324893,0.946119158041,
    0.9735421709,1.),.UNSPECIFIED.);
#81 = CARTESIAN_POINT('',(2.,0.140128095803,0.));
#82 = CARTESIAN_POINT('',(1.657093849678,0.14792950531,0.));
#83 = CARTESIAN_POINT('',(1.421065543485,0.221198285901,0.));
#84 = CARTESIAN_POINT('',(1.203116904912,0.207691416446,0.));
#85 = CARTESIAN_POINT('',(1.101817536981,0.177769954228,0.));
#86 = CARTESIAN_POINT('',(0.972384151245,0.202630216492,0.));
#87 = CARTESIAN_POINT('',(0.83731217463,0.172483611379,0.));
#88 = CARTESIAN_POINT('',(0.520369310686,0.186244337703,0.));
#89 = CARTESIAN_POINT('',(9.891827429203E-02,0.207346768147,0.));
#90 = CARTESIAN_POINT('',(5.315552999458E-02,0.239193378159,0.));
#91 = CARTESIAN_POINT('',(0.,0.230949238248,0.));
#92 = PCURVE('',#40,#93);
#93 = DEFINITIONAL_REPRESENTATION('',(#94),#106);
#94 = B_SPLINE_CURVE_WITH_KNOTS('',1,(#95,#96,#97,#98,#99,#100,#101,#102
    ,#103,#104,#105),.UNSPECIFIED.,.F.,.F.,(2,1,1,1,1,1,1,1,1,1,2),(0.,
    0.168706528923,0.290265075565,0.397671631635,0.449625173407,
    0.514452346482,0.582523884467,0.73856324893,0.946119158041,
    0.9735421709,1.),.UNSPECIFIED.);
#95 = CARTESIAN_POINT('',(1.042876276081,4.012809580273E-02));
#96 = CARTESIAN_POINT('',(0.699970125759,4.792950531033E-02));
#97 = CARTESIAN_POINT('',(0.463941819567,0.121198285901));
#98 = CARTESIAN_POINT('',(0.245993180993,0.107691416446));
#99 = CARTESIAN_POINT('',(0.144693813062,7.776995422773E-02));
#100 = CARTESIAN_POINT('',(1.526042732598E-02,0.102630216492));
#101 = CARTESIAN_POINT('',(-0.119811549289,7.248361137941E-02));
#102 = CARTESIAN_POINT('',(-0.436754413233,8.624433770285E-02));
#103 = CARTESIAN_POINT('',(-0.858205449627,0.107346768147));
#104 = CARTESIAN_POINT('',(-0.903968193924,0.139193378159));
#105 = CARTESIAN_POINT('',(-0.957123723919,0.130949238248));
#106 = ( GEOMETRIC_REPRESENTATION_CONTEXT(2) 
PARAMETRIC_REPRESENTATION_CONTEXT() REPRESENTATION_CONTEXT('2D SPACE',''
  ) );
#107 = ORIENTED_EDGE('',*,*,#108,.T.);
#108 = EDGE_CURVE('',#77,#22,#109,.T.);
#109 = SURFACE_CURVE('',#110,(#114),.PCURVE_S1.);
#110 = LINE('',#111,#112);
#111 = CARTESIAN_POINT('',(0.,0.230949238248,0.));
#112 = VECTOR('',#113,1.);
#113 = DIRECTION('',(0.,-1.,0.));
#114 = PCURVE('',#40,#115);
#115 = DEFINITIONAL_REPRESENTATION('',(#116),#120);
#116 = LINE('',#117,#118);
#117 = CARTESIAN_POINT('',(-0.957123723919,0.130949238248));
#118 = VECTOR('',#119,1.);
#119 = DIRECTION('',(0.,-1.));
#120 = ( GEOMETRIC_REPRESENTATION_CONTEXT(2) 
PARAMETRIC_REPRESENTATION_CONTEXT() REPRESENTATION_CONTEXT('2D SPACE',''
  ) );
#121 = ( GEOMETRIC_REPRESENTATION_CONTEXT(3) 
GLOBAL_UNCERTAINTY_ASSIGNED_CONTEXT((#125)) GLOBAL_UNIT_ASSIGNED_CONTEXT
((#122,#123,#124)) REPRESENTATION_CONTEXT('Context #1',
  '3D Context with UNIT and UNCERTAINTY') );
#122 = ( LENGTH_UNIT() NAMED_UNIT(*) SI_UNIT(.MILLI.,.METRE.) );
#123 = ( NAMED_UNIT(*) PLANE_ANGLE_UNIT() SI_UNIT($,.RADIAN.) );
#124 = ( NAMED_UNIT(*) SI_UNIT($,.STERADIAN.) SOLID_ANGLE_UNIT() );
#125 = UNCERTAINTY_MEASURE_WITH_UNIT(LENGTH_MEASURE(1.E-07),#122,
  'distance_accuracy_value','confusion accuracy');
#126 = PRODUCT_RELATED_PRODUCT_CATEGORY('part',$,(#7));
ENDSEC;
END-ISO-10303-21;
