ISO-10303-21;
HEADER;
FILE_DESCRIPTION(('Open CASCADE Model'),'2;1');
FILE_NAME('Open CASCADE Shape Model','2026-05-28T17:04:49',('Author'),(
    'Open CASCADE'),'Open CASCADE STEP processor 7.9','Open CASCADE 7.9'
  ,'Unknown');
FILE_SCHEMA(('AUTOMOTIVE_DESIGN { 1 0 10303 214 1 1 1 1 }'));
ENDSEC;
DATA;
#1 = APPLICATION_PROTOCOL_DEFINITION('international standard',
  'automotive_design',2000,#2);
#2 = APPLICATION_CONTEXT(
  'core data for automotive mechanical design processes');
#3 = SHAPE_DEFINITION_REPRESENTATION(#4,#10);
#4 = PRODUCT_DEFINITION_SHAPE('','',#5);
#5 = PRODUCT_DEFINITION('design','',#6,#9);
#6 = PRODUCT_DEFINITION_FORMATION('','',#7);
#7 = PRODUCT('Open CASCADE STEP translator 7.9 49',
  'Open CASCADE STEP translator 7.9 49','',(#8));
#8 = PRODUCT_CONTEXT('',#2,'mechanical');
#9 = PRODUCT_DEFINITION_CONTEXT('part definition',#2,'design');
#10 = MANIFOLD_SURFACE_SHAPE_REPRESENTATION('',(#11,#15),#269);
#11 = AXIS2_PLACEMENT_3D('',#12,#13,#14);
#12 = CARTESIAN_POINT('',(0.,0.,0.));
#13 = DIRECTION('',(0.,0.,1.));
#14 = DIRECTION('',(1.,0.,-0.));
#15 = SHELL_BASED_SURFACE_MODEL('',(#16));
#16 = OPEN_SHELL('',(#17));
#17 = ADVANCED_FACE('',(#18),#77,.T.);
#18 = FACE_BOUND('',#19,.T.);
#19 = EDGE_LOOP('',(#20,#133,#149,#255));
#20 = ORIENTED_EDGE('',*,*,#21,.T.);
#21 = EDGE_CURVE('',#22,#24,#26,.T.);
#22 = VERTEX_POINT('',#23);
#23 = CARTESIAN_POINT('',(0.,5.910204046719E-02,0.));
#24 = VERTEX_POINT('',#25);
#25 = CARTESIAN_POINT('',(9.4,-8.861436242952E-03,0.));
#26 = SURFACE_CURVE('',#27,(#76),.PCURVE_S1.);
#27 = B_SPLINE_CURVE_WITH_KNOTS('',1,(#28,#29,#30,#31,#32,#33,#34,#35,
    #36,#37,#38,#39,#40,#41,#42,#43,#44,#45,#46,#47,#48,#49,#50,#51,#52,
    #53,#54,#55,#56,#57,#58,#59,#60,#61,#62,#63,#64,#65,#66,#67,#68,#69,
    #70,#71,#72,#73,#74,#75),.UNSPECIFIED.,.F.,.F.,(2,1,1,1,1,1,1,1,1,1,
    1,1,1,1,1,1,1,1,1,1,1,1,1,1,1,1,1,1,1,1,1,1,1,1,1,1,1,1,1,1,1,1,1,1,
    1,1,1,2),(0.,2.083248566486E-03,2.498662864989E-02,
    3.722154158676E-02,6.008107712381E-02,8.935545484837E-02,
    9.435600908462E-02,0.108598039256,0.126648543733,0.145365917311,
    0.15067461459,0.154979745768,0.161667657121,0.168698086748,
    0.208744680613,0.221004210238,0.226563421195,0.247799994235,
    0.276823453661,0.329857793187,0.378227925315,0.38673817675,
    0.404965737365,0.422831816213,0.457174876349,0.526233576636,
    0.533301146538,0.5476698192,0.549238229809,0.568536088395,
    0.609530953022,0.619867710876,0.63046317582,0.655310927545,
    0.678880444624,0.708256094424,0.71284224403,0.850919833934,
    0.916369719494,0.92444264287,0.934270342305,0.961556579988,
    0.97019017946,0.977790783569,0.983989714381,0.994189552663,
    0.996436340604,1.),.UNSPECIFIED.);
#28 = CARTESIAN_POINT('',(0.,5.910204046719E-02,0.));
#29 = CARTESIAN_POINT('',(9.305942908029E-03,4.067451806161E-02,0.));
#30 = CARTESIAN_POINT('',(0.227755928423,-2.089731610718E-02,0.));
#31 = CARTESIAN_POINT('',(0.324027332628,5.280109984976E-02,0.));
#32 = CARTESIAN_POINT('',(0.541449873562,-1.07747980627E-02,0.));
#33 = CARTESIAN_POINT('',(0.831324431182,-2.208001242733E-02,0.));
#34 = CARTESIAN_POINT('',(0.879524024723,-1.057756177369E-02,0.));
#35 = CARTESIAN_POINT('',(1.018096339177,1.617783563747E-02,0.));
#36 = CARTESIAN_POINT('',(1.19247223084,-2.36738755184E-02,0.));
#37 = CARTESIAN_POINT('',(1.377540169195,-1.131533136166E-02,0.));
#38 = CARTESIAN_POINT('',(1.402331328532,3.508353934873E-02,0.));
#39 = CARTESIAN_POINT('',(1.402740647338,-7.576265230213E-03,0.));
#40 = CARTESIAN_POINT('',(1.456860674197,-4.582886605667E-02,0.));
#41 = CARTESIAN_POINT('',(1.52157198991,-2.001999428285E-02,0.));
#42 = CARTESIAN_POINT('',(1.917723577608,3.385019112738E-03,0.));
#43 = CARTESIAN_POINT('',(2.037864969876,2.140990765567E-02,0.));
#44 = CARTESIAN_POINT('',(2.085139040442,4.969365486749E-02,0.));
#45 = CARTESIAN_POINT('',(2.294719305804,3.064474406892E-02,0.));
#46 = CARTESIAN_POINT('',(2.580960288533,5.865758962957E-02,0.));
#47 = CARTESIAN_POINT('',(3.093303781772,-5.8395110103E-02,0.));
#48 = CARTESIAN_POINT('',(3.563775574261,3.330212974455E-02,0.));
#49 = CARTESIAN_POINT('',(3.609147046685,-3.778511312224E-02,0.));
#50 = CARTESIAN_POINT('',(3.772279552593,3.97626141834E-02,0.));
#51 = CARTESIAN_POINT('',(3.948785513846,2.596786204733E-02,0.));
#52 = CARTESIAN_POINT('',(4.288724689444,9.806721692596E-03,0.));
#53 = CARTESIAN_POINT('',(4.972970298796,2.107132030301E-02,0.));
#54 = CARTESIAN_POINT('',(5.013841849812,-3.580209753118E-02,0.));
#55 = CARTESIAN_POINT('',(5.154938718726,-5.492320896185E-02,0.));
#56 = CARTESIAN_POINT('',(5.16692995307,-4.50353380381E-02,0.));
#57 = CARTESIAN_POINT('',(5.337427022331,4.157065596627E-02,0.));
#58 = CARTESIAN_POINT('',(5.736725546016,-3.320264116191E-02,0.));
#59 = CARTESIAN_POINT('',(5.806006257598,4.224637040343E-02,0.));
#60 = CARTESIAN_POINT('',(5.856872133483,-4.960573278745E-02,0.));
#61 = CARTESIAN_POINT('',(6.098484096552,-2.145429080229E-03,0.));
#62 = CARTESIAN_POINT('',(6.331028918417,1.96342694332E-02,0.));
#63 = CARTESIAN_POINT('',(6.621330662388,4.11569403199E-02,0.));
#64 = CARTESIAN_POINT('',(6.663303537344,5.858290941852E-02,0.));
#65 = CARTESIAN_POINT('',(8.031292235339,3.024636100069E-02,0.));
#66 = CARTESIAN_POINT('',(8.674925011497,-4.968240759376E-02,0.));
#67 = CARTESIAN_POINT('',(8.753687287707,-3.567146307267E-02,0.));
#68 = CARTESIAN_POINT('',(8.84884887194,-5.637524493009E-02,0.));
#69 = CARTESIAN_POINT('',(9.098323275944,4.790861746544E-02,0.));
#70 = CARTESIAN_POINT('',(9.160308389898,-1.106144922068E-02,0.));
#71 = CARTESIAN_POINT('',(9.223999325537,2.914194311631E-02,0.));
#72 = CARTESIAN_POINT('',(9.274963094274,-5.153004692689E-03,0.));
#73 = CARTESIAN_POINT('',(9.372448704117,2.154541373239E-02,0.));
#74 = CARTESIAN_POINT('',(9.394266343237,2.59841339708E-02,0.));
#75 = CARTESIAN_POINT('',(9.4,-8.861436242952E-03,0.));
#76 = PCURVE('',#77,#82);
#77 = PLANE('',#78);
#78 = AXIS2_PLACEMENT_3D('',#79,#80,#81);
#79 = CARTESIAN_POINT('',(4.725053478747,1.E-01,0.));
#80 = DIRECTION('',(0.,0.,1.));
#81 = DIRECTION('',(1.,0.,-0.));
#82 = DEFINITIONAL_REPRESENTATION('',(#83),#132);
#83 = B_SPLINE_CURVE_WITH_KNOTS('',1,(#84,#85,#86,#87,#88,#89,#90,#91,
    #92,#93,#94,#95,#96,#97,#98,#99,#100,#101,#102,#103,#104,#105,#106,
    #107,#108,#109,#110,#111,#112,#113,#114,#115,#116,#117,#118,#119,
    #120,#121,#122,#123,#124,#125,#126,#127,#128,#129,#130,#131),
  .UNSPECIFIED.,.F.,.F.,(2,1,1,1,1,1,1,1,1,1,1,1,1,1,1,1,1,1,1,1,1,1,1,1
    ,1,1,1,1,1,1,1,1,1,1,1,1,1,1,1,1,1,1,1,1,1,1,1,2),(0.,
    2.083248566486E-03,2.498662864989E-02,3.722154158676E-02,
    6.008107712381E-02,8.935545484837E-02,9.435600908462E-02,
    0.108598039256,0.126648543733,0.145365917311,0.15067461459,
    0.154979745768,0.161667657121,0.168698086748,0.208744680613,
    0.221004210238,0.226563421195,0.247799994235,0.276823453661,
    0.329857793187,0.378227925315,0.38673817675,0.404965737365,
    0.422831816213,0.457174876349,0.526233576636,0.533301146538,
    0.5476698192,0.549238229809,0.568536088395,0.609530953022,
    0.619867710876,0.63046317582,0.655310927545,0.678880444624,
    0.708256094424,0.71284224403,0.850919833934,0.916369719494,
    0.92444264287,0.934270342305,0.961556579988,0.97019017946,
    0.977790783569,0.983989714381,0.994189552663,0.996436340604,1.),
  .UNSPECIFIED.);
#84 = CARTESIAN_POINT('',(-4.725053478747,-4.089795953281E-02));
#85 = CARTESIAN_POINT('',(-4.715747535839,-5.932548193839E-02));
#86 = CARTESIAN_POINT('',(-4.497297550324,-0.120897316107));
#87 = CARTESIAN_POINT('',(-4.401026146119,-4.719890015024E-02));
#88 = CARTESIAN_POINT('',(-4.183603605185,-0.110774798063));
#89 = CARTESIAN_POINT('',(-3.893729047566,-0.122080012427));
#90 = CARTESIAN_POINT('',(-3.845529454025,-0.110577561774));
#91 = CARTESIAN_POINT('',(-3.706957139571,-8.382216436253E-02));
#92 = CARTESIAN_POINT('',(-3.532581247907,-0.123673875518));
#93 = CARTESIAN_POINT('',(-3.347513309552,-0.111315331362));
#94 = CARTESIAN_POINT('',(-3.322722150216,-6.491646065127E-02));
#95 = CARTESIAN_POINT('',(-3.322312831409,-0.10757626523));
#96 = CARTESIAN_POINT('',(-3.26819280455,-0.145828866057));
#97 = CARTESIAN_POINT('',(-3.203481488837,-0.120019994283));
#98 = CARTESIAN_POINT('',(-2.807329901139,-9.661498088726E-02));
#99 = CARTESIAN_POINT('',(-2.687188508872,-7.859009234433E-02));
#100 = CARTESIAN_POINT('',(-2.639914438305,-5.030634513251E-02));
#101 = CARTESIAN_POINT('',(-2.430334172943,-6.935525593108E-02));
#102 = CARTESIAN_POINT('',(-2.144093190215,-4.134241037043E-02));
#103 = CARTESIAN_POINT('',(-1.631749696975,-0.158395110103));
#104 = CARTESIAN_POINT('',(-1.161277904487,-6.669787025545E-02));
#105 = CARTESIAN_POINT('',(-1.115906432062,-0.137785113122));
#106 = CARTESIAN_POINT('',(-0.952773926155,-6.02373858166E-02));
#107 = CARTESIAN_POINT('',(-0.776267964901,-7.403213795267E-02));
#108 = CARTESIAN_POINT('',(-0.436328789303,-9.01932783074E-02));
#109 = CARTESIAN_POINT('',(0.247916820048,-7.892867969699E-02));
#110 = CARTESIAN_POINT('',(0.288788371064,-0.135802097531));
#111 = CARTESIAN_POINT('',(0.429885239979,-0.154923208962));
#112 = CARTESIAN_POINT('',(0.441876474322,-0.145035338038));
#113 = CARTESIAN_POINT('',(0.612373543584,-5.842934403373E-02));
#114 = CARTESIAN_POINT('',(1.011672067269,-0.133202641162));
#115 = CARTESIAN_POINT('',(1.080952778851,-5.775362959657E-02));
#116 = CARTESIAN_POINT('',(1.131818654736,-0.149605732787));
#117 = CARTESIAN_POINT('',(1.373430617805,-0.10214542908));
#118 = CARTESIAN_POINT('',(1.60597543967,-8.03657305668E-02));
#119 = CARTESIAN_POINT('',(1.896277183641,-5.88430596801E-02));
#120 = CARTESIAN_POINT('',(1.938250058596,-4.141709058148E-02));
#121 = CARTESIAN_POINT('',(3.306238756592,-6.975363899931E-02));
#122 = CARTESIAN_POINT('',(3.949871532749,-0.149682407594));
#123 = CARTESIAN_POINT('',(4.02863380896,-0.135671463073));
#124 = CARTESIAN_POINT('',(4.123795393193,-0.15637524493));
#125 = CARTESIAN_POINT('',(4.373269797196,-5.209138253456E-02));
#126 = CARTESIAN_POINT('',(4.43525491115,-0.111061449221));
#127 = CARTESIAN_POINT('',(4.498945846789,-7.085805688369E-02));
#128 = CARTESIAN_POINT('',(4.549909615527,-0.105153004693));
#129 = CARTESIAN_POINT('',(4.647395225369,-7.845458626761E-02));
#130 = CARTESIAN_POINT('',(4.669212864489,-7.40158660292E-02));
#131 = CARTESIAN_POINT('',(4.674946521253,-0.108861436243));
#132 = ( GEOMETRIC_REPRESENTATION_CONTEXT(2) 
PARAMETRIC_REPRESENTATION_CONTEXT() REPRESENTATION_CONTEXT('2D SPACE',''
  ) );
#133 = ORIENTED_EDGE('',*,*,#134,.T.);
#134 = EDGE_CURVE('',#24,#135,#137,.T.);
#135 = VERTEX_POINT('',#136);
#136 = CARTESIAN_POINT('',(9.4,0.208861436243,0.));
#137 = SURFACE_CURVE('',#138,(#142),.PCURVE_S1.);
#138 = LINE('',#139,#140);
#139 = CARTESIAN_POINT('',(9.4,-8.861436242952E-03,0.));
#140 = VECTOR('',#141,1.);
#141 = DIRECTION('',(0.,1.,0.));
#142 = PCURVE('',#77,#143);
#143 = DEFINITIONAL_REPRESENTATION('',(#144),#148);
#144 = LINE('',#145,#146);
#145 = CARTESIAN_POINT('',(4.674946521253,-0.108861436243));
#146 = VECTOR('',#147,1.);
#147 = DIRECTION('',(0.,1.));
#148 = ( GEOMETRIC_REPRESENTATION_CONTEXT(2) 
PARAMETRIC_REPRESENTATION_CONTEXT() REPRESENTATION_CONTEXT('2D SPACE',''
  ) );
#149 = ORIENTED_EDGE('',*,*,#150,.T.);
#150 = EDGE_CURVE('',#135,#151,#153,.T.);
#151 = VERTEX_POINT('',#152);
#152 = CARTESIAN_POINT('',(0.,0.140897959533,0.));
#153 = SURFACE_CURVE('',#154,(#203),.PCURVE_S1.);
#154 = B_SPLINE_CURVE_WITH_KNOTS('',1,(#155,#156,#157,#158,#159,#160,
    #161,#162,#163,#164,#165,#166,#167,#168,#169,#170,#171,#172,#173,
    #174,#175,#176,#177,#178,#179,#180,#181,#182,#183,#184,#185,#186,
    #187,#188,#189,#190,#191,#192,#193,#194,#195,#196,#197,#198,#199,
    #200,#201,#202),.UNSPECIFIED.,.F.,.F.,(2,1,1,1,1,1,1,1,1,1,1,1,1,1,1
    ,1,1,1,1,1,1,1,1,1,1,1,1,1,1,1,1,1,1,1,1,1,1,1,1,1,1,1,1,1,1,1,1,2),
  (0.,3.563659396288E-03,5.810447336856E-03,1.601028561864E-02,
    2.220921643133E-02,2.980982053971E-02,3.844342001199E-02,
    6.57296576947E-02,7.555735712985E-02,8.363028050593E-02,
    0.149080166066,0.28715775597,0.291743905576,0.321119555376,
    0.344689072455,0.36953682418,0.380132289124,0.390469046978,
    0.431463911605,0.450761770191,0.4523301808,0.466698853462,
    0.473766423364,0.542825123651,0.577168183787,0.595034262635,
    0.61326182325,0.621772074685,0.670142206813,0.723176546339,
    0.752200005765,0.773436578805,0.778995789762,0.791255319387,
    0.831301913252,0.838332342879,0.845020254232,0.84932538541,
    0.854634082689,0.873351456267,0.891401960744,0.905643990915,
    0.910644545152,0.939918922876,0.962778458413,0.97501337135,
    0.997916751434,1.),.UNSPECIFIED.);
#155 = CARTESIAN_POINT('',(9.4,0.208861436243,0.));
#156 = CARTESIAN_POINT('',(9.394266343237,0.174015866029,0.));
#157 = CARTESIAN_POINT('',(9.372448704117,0.178454586268,0.));
#158 = CARTESIAN_POINT('',(9.274963094274,0.205153004693,0.));
#159 = CARTESIAN_POINT('',(9.223999325537,0.170858056884,0.));
#160 = CARTESIAN_POINT('',(9.160308389898,0.211061449221,0.));
#161 = CARTESIAN_POINT('',(9.098323275944,0.152091382535,0.));
#162 = CARTESIAN_POINT('',(8.84884887194,0.25637524493,0.));
#163 = CARTESIAN_POINT('',(8.753687287707,0.235671463073,0.));
#164 = CARTESIAN_POINT('',(8.674925011497,0.249682407594,0.));
#165 = CARTESIAN_POINT('',(8.031292235339,0.169753638999,0.));
#166 = CARTESIAN_POINT('',(6.663303537344,0.141417090581,0.));
#167 = CARTESIAN_POINT('',(6.621330662388,0.15884305968,0.));
#168 = CARTESIAN_POINT('',(6.331028918417,0.180365730567,0.));
#169 = CARTESIAN_POINT('',(6.098484096552,0.20214542908,0.));
#170 = CARTESIAN_POINT('',(5.856872133483,0.249605732787,0.));
#171 = CARTESIAN_POINT('',(5.806006257598,0.157753629597,0.));
#172 = CARTESIAN_POINT('',(5.736725546016,0.233202641162,0.));
#173 = CARTESIAN_POINT('',(5.337427022331,0.158429344034,0.));
#174 = CARTESIAN_POINT('',(5.16692995307,0.245035338038,0.));
#175 = CARTESIAN_POINT('',(5.154938718726,0.254923208962,0.));
#176 = CARTESIAN_POINT('',(5.013841849812,0.235802097531,0.));
#177 = CARTESIAN_POINT('',(4.972970298796,0.178928679697,0.));
#178 = CARTESIAN_POINT('',(4.288724689444,0.190193278307,0.));
#179 = CARTESIAN_POINT('',(3.948785513846,0.174032137953,0.));
#180 = CARTESIAN_POINT('',(3.772279552593,0.160237385817,0.));
#181 = CARTESIAN_POINT('',(3.609147046685,0.237785113122,0.));
#182 = CARTESIAN_POINT('',(3.563775574261,0.166697870255,0.));
#183 = CARTESIAN_POINT('',(3.093303781772,0.258395110103,0.));
#184 = CARTESIAN_POINT('',(2.580960288533,0.14134241037,0.));
#185 = CARTESIAN_POINT('',(2.294719305804,0.169355255931,0.));
#186 = CARTESIAN_POINT('',(2.085139040442,0.150306345133,0.));
#187 = CARTESIAN_POINT('',(2.037864969876,0.178590092344,0.));
#188 = CARTESIAN_POINT('',(1.917723577608,0.196614980887,0.));
#189 = CARTESIAN_POINT('',(1.52157198991,0.220019994283,0.));
#190 = CARTESIAN_POINT('',(1.456860674197,0.245828866057,0.));
#191 = CARTESIAN_POINT('',(1.402740647338,0.20757626523,0.));
#192 = CARTESIAN_POINT('',(1.402331328532,0.164916460651,0.));
#193 = CARTESIAN_POINT('',(1.377540169195,0.211315331362,0.));
#194 = CARTESIAN_POINT('',(1.19247223084,0.223673875518,0.));
#195 = CARTESIAN_POINT('',(1.018096339177,0.183822164363,0.));
#196 = CARTESIAN_POINT('',(0.879524024723,0.210577561774,0.));
#197 = CARTESIAN_POINT('',(0.831324431182,0.222080012427,0.));
#198 = CARTESIAN_POINT('',(0.541449873562,0.210774798063,0.));
#199 = CARTESIAN_POINT('',(0.324027332628,0.14719890015,0.));
#200 = CARTESIAN_POINT('',(0.227755928423,0.220897316107,0.));
#201 = CARTESIAN_POINT('',(9.305942908029E-03,0.159325481938,0.));
#202 = CARTESIAN_POINT('',(0.,0.140897959533,0.));
#203 = PCURVE('',#77,#204);
#204 = DEFINITIONAL_REPRESENTATION('',(#205),#254);
#205 = B_SPLINE_CURVE_WITH_KNOTS('',1,(#206,#207,#208,#209,#210,#211,
    #212,#213,#214,#215,#216,#217,#218,#219,#220,#221,#222,#223,#224,
    #225,#226,#227,#228,#229,#230,#231,#232,#233,#234,#235,#236,#237,
    #238,#239,#240,#241,#242,#243,#244,#245,#246,#247,#248,#249,#250,
    #251,#252,#253),.UNSPECIFIED.,.F.,.F.,(2,1,1,1,1,1,1,1,1,1,1,1,1,1,1
    ,1,1,1,1,1,1,1,1,1,1,1,1,1,1,1,1,1,1,1,1,1,1,1,1,1,1,1,1,1,1,1,1,2),
  (0.,3.563659396288E-03,5.810447336856E-03,1.601028561864E-02,
    2.220921643133E-02,2.980982053971E-02,3.844342001199E-02,
    6.57296576947E-02,7.555735712985E-02,8.363028050593E-02,
    0.149080166066,0.28715775597,0.291743905576,0.321119555376,
    0.344689072455,0.36953682418,0.380132289124,0.390469046978,
    0.431463911605,0.450761770191,0.4523301808,0.466698853462,
    0.473766423364,0.542825123651,0.577168183787,0.595034262635,
    0.61326182325,0.621772074685,0.670142206813,0.723176546339,
    0.752200005765,0.773436578805,0.778995789762,0.791255319387,
    0.831301913252,0.838332342879,0.845020254232,0.84932538541,
    0.854634082689,0.873351456267,0.891401960744,0.905643990915,
    0.910644545152,0.939918922876,0.962778458413,0.97501337135,
    0.997916751434,1.),.UNSPECIFIED.);
#206 = CARTESIAN_POINT('',(4.674946521253,0.108861436243));
#207 = CARTESIAN_POINT('',(4.669212864489,7.40158660292E-02));
#208 = CARTESIAN_POINT('',(4.647395225369,7.845458626761E-02));
#209 = CARTESIAN_POINT('',(4.549909615527,0.105153004693));
#210 = CARTESIAN_POINT('',(4.498945846789,7.085805688369E-02));
#211 = CARTESIAN_POINT('',(4.43525491115,0.111061449221));
#212 = CARTESIAN_POINT('',(4.373269797196,5.209138253456E-02));
#213 = CARTESIAN_POINT('',(4.123795393193,0.15637524493));
#214 = CARTESIAN_POINT('',(4.02863380896,0.135671463073));
#215 = CARTESIAN_POINT('',(3.949871532749,0.149682407594));
#216 = CARTESIAN_POINT('',(3.306238756592,6.975363899931E-02));
#217 = CARTESIAN_POINT('',(1.938250058596,4.141709058148E-02));
#218 = CARTESIAN_POINT('',(1.896277183641,5.88430596801E-02));
#219 = CARTESIAN_POINT('',(1.60597543967,8.03657305668E-02));
#220 = CARTESIAN_POINT('',(1.373430617805,0.10214542908));
#221 = CARTESIAN_POINT('',(1.131818654736,0.149605732787));
#222 = CARTESIAN_POINT('',(1.080952778851,5.775362959657E-02));
#223 = CARTESIAN_POINT('',(1.011672067269,0.133202641162));
#224 = CARTESIAN_POINT('',(0.612373543584,5.842934403373E-02));
#225 = CARTESIAN_POINT('',(0.441876474322,0.145035338038));
#226 = CARTESIAN_POINT('',(0.429885239979,0.154923208962));
#227 = CARTESIAN_POINT('',(0.288788371064,0.135802097531));
#228 = CARTESIAN_POINT('',(0.247916820048,7.892867969699E-02));
#229 = CARTESIAN_POINT('',(-0.436328789303,9.01932783074E-02));
#230 = CARTESIAN_POINT('',(-0.776267964901,7.403213795267E-02));
#231 = CARTESIAN_POINT('',(-0.952773926155,6.02373858166E-02));
#232 = CARTESIAN_POINT('',(-1.115906432062,0.137785113122));
#233 = CARTESIAN_POINT('',(-1.161277904487,6.669787025545E-02));
#234 = CARTESIAN_POINT('',(-1.631749696975,0.158395110103));
#235 = CARTESIAN_POINT('',(-2.144093190215,4.134241037043E-02));
#236 = CARTESIAN_POINT('',(-2.430334172943,6.935525593108E-02));
#237 = CARTESIAN_POINT('',(-2.639914438305,5.030634513251E-02));
#238 = CARTESIAN_POINT('',(-2.687188508872,7.859009234433E-02));
#239 = CARTESIAN_POINT('',(-2.807329901139,9.661498088726E-02));
#240 = CARTESIAN_POINT('',(-3.203481488837,0.120019994283));
#241 = CARTESIAN_POINT('',(-3.26819280455,0.145828866057));
#242 = CARTESIAN_POINT('',(-3.322312831409,0.10757626523));
#243 = CARTESIAN_POINT('',(-3.322722150216,6.491646065127E-02));
#244 = CARTESIAN_POINT('',(-3.347513309552,0.111315331362));
#245 = CARTESIAN_POINT('',(-3.532581247907,0.123673875518));
#246 = CARTESIAN_POINT('',(-3.706957139571,8.382216436253E-02));
#247 = CARTESIAN_POINT('',(-3.845529454025,0.110577561774));
#248 = CARTESIAN_POINT('',(-3.893729047566,0.122080012427));
#249 = CARTESIAN_POINT('',(-4.183603605185,0.110774798063));
#250 = CARTESIAN_POINT('',(-4.401026146119,4.719890015024E-02));
#251 = CARTESIAN_POINT('',(-4.497297550324,0.120897316107));
#252 = CARTESIAN_POINT('',(-4.715747535839,5.932548193839E-02));
#253 = CARTESIAN_POINT('',(-4.725053478747,4.089795953281E-02));
#254 = ( GEOMETRIC_REPRESENTATION_CONTEXT(2) 
PARAMETRIC_REPRESENTATION_CONTEXT() REPRESENTATION_CONTEXT('2D SPACE',''
  ) );
#255 = ORIENTED_EDGE('',*,*,#256,.T.);
#256 = EDGE_CURVE('',#151,#22,#257,.T.);
#257 = SURFACE_CURVE('',#258,(#262),.PCURVE_S1.);
#258 = LINE('',#259,#260);
#259 = CARTESIAN_POINT('',(0.,0.140897959533,0.));
#260 = VECTOR('',#261,1.);
#261 = DIRECTION('',(0.,-1.,0.));
#262 = PCURVE('',#77,#263);
#263 = DEFINITIONAL_REPRESENTATION('',(#264),#268);
#264 = LINE('',#265,#266);
#265 = CARTESIAN_POINT('',(-4.725053478747,4.089795953281E-02));
#266 = VECTOR('',#267,1.);
#267 = DIRECTION('',(0.,-1.));
#268 = ( GEOMETRIC_REPRESENTATION_CONTEXT(2) 
PARAMETRIC_REPRESENTATION_CONTEXT() REPRESENTATION_CONTEXT('2D SPACE',''
  ) );
#269 = ( GEOMETRIC_REPRESENTATION_CONTEXT(3) 
GLOBAL_UNCERTAINTY_ASSIGNED_CONTEXT((#273)) GLOBAL_UNIT_ASSIGNED_CONTEXT
((#270,#271,#272)) REPRESENTATION_CONTEXT('Context #1',
  '3D Context with UNIT and UNCERTAINTY') );
#270 = ( LENGTH_UNIT() NAMED_UNIT(*) SI_UNIT(.MILLI.,.METRE.) );
#271 = ( NAMED_UNIT(*) PLANE_ANGLE_UNIT() SI_UNIT($,.RADIAN.) );
#272 = ( NAMED_UNIT(*) SI_UNIT($,.STERADIAN.) SOLID_ANGLE_UNIT() );
#273 = UNCERTAINTY_MEASURE_WITH_UNIT(LENGTH_MEASURE(1.E-07),#270,
  'distance_accuracy_value','confusion accuracy');
#274 = PRODUCT_RELATED_PRODUCT_CATEGORY('part',$,(#7));
ENDSEC;
END-ISO-10303-21;
