ISO-10303-21;
HEADER;
FILE_DESCRIPTION(('Open CASCADE Model'),'2;1');
FILE_NAME('Open CASCADE Shape Model','2026-05-28T17:04:48',('Author'),(
    'Open CASCADE'),'Open CASCADE STEP processor 7.9','Open CASCADE 7.9'
  ,'Unknown');
FILE_SCHEMA(('AUTOMOTIVE_DESIGN { 1 0 10303 214 1 1 1 1 }'));
ENDSEC;
DATA;
#1 = APPLICATION_PROTOCOL_DEFINITION('international standard',
  'automotive_design',2000,#2);
#2 = APPLICATION_CONTEXT(
  'core data for automotive mechanical design processes');
#3 = SHAPE_DEFINITION_REPRESENTATION(#4,#10);
#4 = PRODUCT_DEFINITION_SHAPE('','',#5);
#5 = PRODUCT_DEFINITION('design','',#6,#9);
#6 = PRODUCT_DEFINITION_FORMATION('','',#7);
#7 = PRODUCT('Open CASCADE STEP translator 7.9 13',
  'Open CASCADE STEP translator 7.9 13','',(#8));
#8 = PRODUCT_CONTEXT('',#2,'mechanical');
#9 = PRODUCT_DEFINITION_CONTEXT('part definition',#2,'design');
#10 = MANIFOLD_SURFACE_SHAPE_REPRESENTATION('',(#11,#15),#261);
#11 = AXIS2_PLACEMENT_3D('',#12,#13,#14);
#12 = CARTESIAN_POINT('',(0.,0.,0.));
#13 = DIRECTION('',(0.,0.,1.));
#14 = DIRECTION('',(1.,0.,-0.));
#15 = SHELL_BASED_SURFACE_MODEL('',(#16));
#16 = OPEN_SHELL('',(#17));
#17 = ADVANCED_FACE('',(#18),#75,.T.);
#18 = FACE_BOUND('',#19,.T.);
#19 = EDGE_LOOP('',(#20,#129,#145,#247));
#20 = ORIENTED_EDGE('',*,*,#21,.T.);
#21 = EDGE_CURVE('',#22,#24,#26,.T.);
#22 = VERTEX_POINT('',#23);
#23 = CARTESIAN_POINT('',(0.,-5.984920440801E-02,0.));
#24 = VERTEX_POINT('',#25);
#25 = CARTESIAN_POINT('',(9.,-3.775661317415E-02,0.));
#26 = SURFACE_CURVE('',#27,(#74),.PCURVE_S1.);
#27 = B_SPLINE_CURVE_WITH_KNOTS('',1,(#28,#29,#30,#31,#32,#33,#34,#35,
    #36,#37,#38,#39,#40,#41,#42,#43,#44,#45,#46,#47,#48,#49,#50,#51,#52,
    #53,#54,#55,#56,#57,#58,#59,#60,#61,#62,#63,#64,#65,#66,#67,#68,#69,
    #70,#71,#72,#73),.UNSPECIFIED.,.F.,.F.,(2,1,1,1,1,1,1,1,1,1,1,1,1,1,
    1,1,1,1,1,1,1,1,1,1,1,1,1,1,1,1,1,1,1,1,1,1,1,1,1,1,1,1,1,1,1,2),(0.
    ,9.962557971084E-03,3.407861986901E-02,4.19439420814E-02,
    5.450638038613E-02,5.991650554802E-02,9.449766891784E-02,
    9.584861181886E-02,0.119447730516,0.194833108288,0.240159327105,
    0.245677632406,0.281436830033,0.304874943129,0.346125200175,
    0.352434934841,0.376737190813,0.400092619332,0.405730797086,
    0.415580034805,0.467241164205,0.514927040582,0.554171794745,
    0.58775592094,0.619029865904,0.667444056095,0.67116812091,
    0.678868885865,0.713698857619,0.718703373825,0.739688455068,
    0.772576205488,0.792244079964,0.799177408239,0.800718038086,
    0.806293981585,0.823484817827,0.853409794032,0.857007812077,
    0.862457097013,0.869487382556,0.890196322404,0.89891350473,
    0.927561295458,0.978750287675,1.),.UNSPECIFIED.);
#28 = CARTESIAN_POINT('',(0.,-5.984920440801E-02,0.));
#29 = CARTESIAN_POINT('',(4.050112445693E-02,2.443655315866E-02,0.));
#30 = CARTESIAN_POINT('',(0.266465602158,1.104696586425E-02,0.));
#31 = CARTESIAN_POINT('',(0.332736544811,4.358144663644E-02,0.));
#32 = CARTESIAN_POINT('',(0.438286250825,-8.984631554764E-03,0.));
#33 = CARTESIAN_POINT('',(0.44067338841,-5.970960447155E-02,0.));
#34 = CARTESIAN_POINT('',(0.763304321122,-2.410572121448E-02,0.));
#35 = CARTESIAN_POINT('',(0.763373450806,-1.14255408496E-02,0.));
#36 = CARTESIAN_POINT('',(0.983540620031,1.291570884938E-02,0.));
#37 = CARTESIAN_POINT('',(1.688343137455,-4.983585123427E-02,0.));
#38 = CARTESIAN_POINT('',(2.110816353972,3.700084643581E-04,0.));
#39 = CARTESIAN_POINT('',(2.138925270245,4.387597040243E-02,0.));
#40 = CARTESIAN_POINT('',(2.473425456796,1.61545844161E-02,0.));
#41 = CARTESIAN_POINT('',(2.69049286007,5.193999973827E-02,0.));
#42 = CARTESIAN_POINT('',(3.077342446911,3.576251547735E-02,0.));
#43 = CARTESIAN_POINT('',(3.132282810686,5.787974628001E-02,0.));
#44 = CARTESIAN_POINT('',(3.354321071761,5.60641001998E-03,0.));
#45 = CARTESIAN_POINT('',(3.572460609731,-1.614483179422E-02,0.));
#46 = CARTESIAN_POINT('',(3.61220001798,1.880490451453E-02,0.));
#47 = CARTESIAN_POINT('',(3.704184019747,9.554187419367E-03,0.));
#48 = CARTESIAN_POINT('',(4.184761105743,-5.510511274135E-02,0.));
#49 = CARTESIAN_POINT('',(4.631664079047,-3.023557458899E-02,0.));
#50 = CARTESIAN_POINT('',(4.99915539124,-4.902796433394E-03,0.));
#51 = CARTESIAN_POINT('',(5.312882257948,2.585509498658E-02,0.));
#52 = CARTESIAN_POINT('',(5.597079960377,-4.763961585276E-02,0.));
#53 = CARTESIAN_POINT('',(6.044515279703,3.178834597432E-02,0.));
#54 = CARTESIAN_POINT('',(6.077750658007,2.0958872338E-02,0.));
#55 = CARTESIAN_POINT('',(6.09558659428,-4.908777773075E-02,0.));
#56 = CARTESIAN_POINT('',(6.419323766805,-3.545046634209E-03,0.));
#57 = CARTESIAN_POINT('',(6.458752328774,-2.907815393016E-02,0.));
#58 = CARTESIAN_POINT('',(6.654883216289,-1.088937529965E-02,0.));
#59 = CARTESIAN_POINT('',(6.963486144765,-1.841270508114E-02,0.));
#60 = CARTESIAN_POINT('',(7.14313935504,2.407400501822E-02,0.));
#61 = CARTESIAN_POINT('',(7.20784432896,3.10353526048E-02,0.));
#62 = CARTESIAN_POINT('',(7.218538082872,2.130091833976E-02,0.));
#63 = CARTESIAN_POINT('',(7.266884453787,4.134701230999E-02,0.));
#64 = CARTESIAN_POINT('',(7.403247815557,-4.49177238349E-02,0.));
#65 = CARTESIAN_POINT('',(7.675030166687,2.601036800999E-02,0.));
#66 = CARTESIAN_POINT('',(7.680102040297,-7.378727329726E-03,0.));
#67 = CARTESIAN_POINT('',(7.723127741623,-3.503693101696E-02,0.));
#68 = CARTESIAN_POINT('',(7.789108932501,-3.405889312509E-02,0.));
#69 = CARTESIAN_POINT('',(7.979018059547,7.393648969897E-03,0.));
#70 = CARTESIAN_POINT('',(8.060713932453,2.849122969593E-03,0.));
#71 = CARTESIAN_POINT('',(8.322315004979,-5.93642098722E-02,0.));
#72 = CARTESIAN_POINT('',(8.801252811665,-2.095169723748E-02,0.));
#73 = CARTESIAN_POINT('',(9.,-3.775661317415E-02,0.));
#74 = PCURVE('',#75,#80);
#75 = PLANE('',#76);
#76 = AXIS2_PLACEMENT_3D('',#77,#78,#79);
#77 = CARTESIAN_POINT('',(4.463313131578,1.E-01,0.));
#78 = DIRECTION('',(0.,0.,1.));
#79 = DIRECTION('',(1.,0.,-0.));
#80 = DEFINITIONAL_REPRESENTATION('',(#81),#128);
#81 = B_SPLINE_CURVE_WITH_KNOTS('',1,(#82,#83,#84,#85,#86,#87,#88,#89,
    #90,#91,#92,#93,#94,#95,#96,#97,#98,#99,#100,#101,#102,#103,#104,
    #105,#106,#107,#108,#109,#110,#111,#112,#113,#114,#115,#116,#117,
    #118,#119,#120,#121,#122,#123,#124,#125,#126,#127),.UNSPECIFIED.,.F.
  ,.F.,(2,1,1,1,1,1,1,1,1,1,1,1,1,1,1,1,1,1,1,1,1,1,1,1,1,1,1,1,1,1,1,1,
    1,1,1,1,1,1,1,1,1,1,1,1,1,2),(0.,9.962557971084E-03,
    3.407861986901E-02,4.19439420814E-02,5.450638038613E-02,
    5.991650554802E-02,9.449766891784E-02,9.584861181886E-02,
    0.119447730516,0.194833108288,0.240159327105,0.245677632406,
    0.281436830033,0.304874943129,0.346125200175,0.352434934841,
    0.376737190813,0.400092619332,0.405730797086,0.415580034805,
    0.467241164205,0.514927040582,0.554171794745,0.58775592094,
    0.619029865904,0.667444056095,0.67116812091,0.678868885865,
    0.713698857619,0.718703373825,0.739688455068,0.772576205488,
    0.792244079964,0.799177408239,0.800718038086,0.806293981585,
    0.823484817827,0.853409794032,0.857007812077,0.862457097013,
    0.869487382556,0.890196322404,0.89891350473,0.927561295458,
    0.978750287675,1.),.UNSPECIFIED.);
#82 = CARTESIAN_POINT('',(-4.463313131578,-0.159849204408));
#83 = CARTESIAN_POINT('',(-4.422812007121,-7.556344684134E-02));
#84 = CARTESIAN_POINT('',(-4.19684752942,-8.895303413575E-02));
#85 = CARTESIAN_POINT('',(-4.130576586767,-5.641855336356E-02));
#86 = CARTESIAN_POINT('',(-4.025026880753,-0.108984631555));
#87 = CARTESIAN_POINT('',(-4.022639743168,-0.159709604472));
#88 = CARTESIAN_POINT('',(-3.700008810456,-0.124105721214));
#89 = CARTESIAN_POINT('',(-3.699939680771,-0.11142554085));
#90 = CARTESIAN_POINT('',(-3.479772511547,-8.708429115062E-02));
#91 = CARTESIAN_POINT('',(-2.774969994122,-0.149835851234));
#92 = CARTESIAN_POINT('',(-2.352496777606,-9.962999153564E-02));
#93 = CARTESIAN_POINT('',(-2.324387861332,-5.612402959757E-02));
#94 = CARTESIAN_POINT('',(-1.989887674782,-8.38454155839E-02));
#95 = CARTESIAN_POINT('',(-1.772820271508,-4.806000026173E-02));
#96 = CARTESIAN_POINT('',(-1.385970684667,-6.423748452265E-02));
#97 = CARTESIAN_POINT('',(-1.331030320892,-4.212025371999E-02));
#98 = CARTESIAN_POINT('',(-1.108992059817,-9.439358998002E-02));
#99 = CARTESIAN_POINT('',(-0.890852521847,-0.116144831794));
#100 = CARTESIAN_POINT('',(-0.851113113597,-8.119509548547E-02));
#101 = CARTESIAN_POINT('',(-0.759129111831,-9.044581258063E-02));
#102 = CARTESIAN_POINT('',(-0.278552025835,-0.155105112741));
#103 = CARTESIAN_POINT('',(0.168350947469,-0.130235574589));
#104 = CARTESIAN_POINT('',(0.535842259662,-0.104902796433));
#105 = CARTESIAN_POINT('',(0.849569126371,-7.414490501342E-02));
#106 = CARTESIAN_POINT('',(1.133766828799,-0.147639615853));
#107 = CARTESIAN_POINT('',(1.581202148125,-6.821165402568E-02));
#108 = CARTESIAN_POINT('',(1.61443752643,-7.9041127662E-02));
#109 = CARTESIAN_POINT('',(1.632273462702,-0.149087777731));
#110 = CARTESIAN_POINT('',(1.956010635227,-0.103545046634));
#111 = CARTESIAN_POINT('',(1.995439197196,-0.12907815393));
#112 = CARTESIAN_POINT('',(2.191570084711,-0.1108893753));
#113 = CARTESIAN_POINT('',(2.500173013187,-0.118412705081));
#114 = CARTESIAN_POINT('',(2.679826223462,-7.592599498178E-02));
#115 = CARTESIAN_POINT('',(2.744531197382,-6.89646473952E-02));
#116 = CARTESIAN_POINT('',(2.755224951294,-7.869908166024E-02));
#117 = CARTESIAN_POINT('',(2.803571322209,-5.865298769001E-02));
#118 = CARTESIAN_POINT('',(2.939934683979,-0.144917723835));
#119 = CARTESIAN_POINT('',(3.211717035109,-7.398963199001E-02));
#120 = CARTESIAN_POINT('',(3.216788908719,-0.10737872733));
#121 = CARTESIAN_POINT('',(3.259814610046,-0.135036931017));
#122 = CARTESIAN_POINT('',(3.325795800923,-0.134058893125));
#123 = CARTESIAN_POINT('',(3.515704927969,-9.26063510301E-02));
#124 = CARTESIAN_POINT('',(3.597400800875,-9.715087703041E-02));
#125 = CARTESIAN_POINT('',(3.859001873401,-0.159364209872));
#126 = CARTESIAN_POINT('',(4.337939680087,-0.120951697237));
#127 = CARTESIAN_POINT('',(4.536686868422,-0.137756613174));
#128 = ( GEOMETRIC_REPRESENTATION_CONTEXT(2) 
PARAMETRIC_REPRESENTATION_CONTEXT() REPRESENTATION_CONTEXT('2D SPACE',''
  ) );
#129 = ORIENTED_EDGE('',*,*,#130,.T.);
#130 = EDGE_CURVE('',#24,#131,#133,.T.);
#131 = VERTEX_POINT('',#132);
#132 = CARTESIAN_POINT('',(9.,0.237756613174,0.));
#133 = SURFACE_CURVE('',#134,(#138),.PCURVE_S1.);
#134 = LINE('',#135,#136);
#135 = CARTESIAN_POINT('',(9.,-3.775661317415E-02,0.));
#136 = VECTOR('',#137,1.);
#137 = DIRECTION('',(0.,1.,0.));
#138 = PCURVE('',#75,#139);
#139 = DEFINITIONAL_REPRESENTATION('',(#140),#144);
#140 = LINE('',#141,#142);
#141 = CARTESIAN_POINT('',(4.536686868422,-0.137756613174));
#142 = VECTOR('',#143,1.);
#143 = DIRECTION('',(0.,1.));
#144 = ( GEOMETRIC_REPRESENTATION_CONTEXT(2) 
PARAMETRIC_REPRESENTATION_CONTEXT() REPRESENTATION_CONTEXT('2D SPACE',''
  ) );
#145 = ORIENTED_EDGE('',*,*,#146,.T.);
#146 = EDGE_CURVE('',#131,#147,#149,.T.);
#147 = VERTEX_POINT('',#148);
#148 = CARTESIAN_POINT('',(0.,0.259849204408,0.));
#149 = SURFACE_CURVE('',#150,(#197),.PCURVE_S1.);
#150 = B_SPLINE_CURVE_WITH_KNOTS('',1,(#151,#152,#153,#154,#155,#156,
    #157,#158,#159,#160,#161,#162,#163,#164,#165,#166,#167,#168,#169,
    #170,#171,#172,#173,#174,#175,#176,#177,#178,#179,#180,#181,#182,
    #183,#184,#185,#186,#187,#188,#189,#190,#191,#192,#193,#194,#195,
    #196),.UNSPECIFIED.,.F.,.F.,(2,1,1,1,1,1,1,1,1,1,1,1,1,1,1,1,1,1,1,1
    ,1,1,1,1,1,1,1,1,1,1,1,1,1,1,1,1,1,1,1,1,1,1,1,1,1,2),(0.,
    2.124971232491E-02,7.243870454206E-02,0.10108649527,0.109803677596,
    0.130512617444,0.137542902987,0.142992187923,0.146590205968,
    0.176515182173,0.193706018415,0.199281961914,0.200822591761,
    0.207755920036,0.227423794512,0.260311544932,0.281296626175,
    0.286301142381,0.321131114135,0.32883187909,0.332555943905,
    0.380970134096,0.41224407906,0.445828205255,0.485072959418,
    0.532758835795,0.584419965195,0.594269202914,0.599907380668,
    0.623262809187,0.647565065159,0.653874799825,0.695125056871,
    0.718563169967,0.754322367594,0.759840672895,0.805166891712,
    0.880552269484,0.904151388181,0.905502331082,0.940083494452,
    0.945493619614,0.958056057919,0.965921380131,0.990037442029,1.),
  .UNSPECIFIED.);
#151 = CARTESIAN_POINT('',(9.,0.237756613174,0.));
#152 = CARTESIAN_POINT('',(8.801252811665,0.220951697237,0.));
#153 = CARTESIAN_POINT('',(8.322315004979,0.259364209872,0.));
#154 = CARTESIAN_POINT('',(8.060713932453,0.19715087703,0.));
#155 = CARTESIAN_POINT('',(7.979018059547,0.19260635103,0.));
#156 = CARTESIAN_POINT('',(7.789108932501,0.234058893125,0.));
#157 = CARTESIAN_POINT('',(7.723127741623,0.235036931017,0.));
#158 = CARTESIAN_POINT('',(7.680102040297,0.20737872733,0.));
#159 = CARTESIAN_POINT('',(7.675030166687,0.17398963199,0.));
#160 = CARTESIAN_POINT('',(7.403247815557,0.244917723835,0.));
#161 = CARTESIAN_POINT('',(7.266884453787,0.15865298769,0.));
#162 = CARTESIAN_POINT('',(7.218538082872,0.17869908166,0.));
#163 = CARTESIAN_POINT('',(7.20784432896,0.168964647395,0.));
#164 = CARTESIAN_POINT('',(7.14313935504,0.175925994982,0.));
#165 = CARTESIAN_POINT('',(6.963486144765,0.218412705081,0.));
#166 = CARTESIAN_POINT('',(6.654883216289,0.2108893753,0.));
#167 = CARTESIAN_POINT('',(6.458752328774,0.22907815393,0.));
#168 = CARTESIAN_POINT('',(6.419323766805,0.203545046634,0.));
#169 = CARTESIAN_POINT('',(6.09558659428,0.249087777731,0.));
#170 = CARTESIAN_POINT('',(6.077750658007,0.179041127662,0.));
#171 = CARTESIAN_POINT('',(6.044515279703,0.168211654026,0.));
#172 = CARTESIAN_POINT('',(5.597079960377,0.247639615853,0.));
#173 = CARTESIAN_POINT('',(5.312882257948,0.174144905013,0.));
#174 = CARTESIAN_POINT('',(4.99915539124,0.204902796433,0.));
#175 = CARTESIAN_POINT('',(4.631664079047,0.230235574589,0.));
#176 = CARTESIAN_POINT('',(4.184761105743,0.255105112741,0.));
#177 = CARTESIAN_POINT('',(3.704184019747,0.190445812581,0.));
#178 = CARTESIAN_POINT('',(3.61220001798,0.181195095485,0.));
#179 = CARTESIAN_POINT('',(3.572460609731,0.216144831794,0.));
#180 = CARTESIAN_POINT('',(3.354321071761,0.19439358998,0.));
#181 = CARTESIAN_POINT('',(3.132282810686,0.14212025372,0.));
#182 = CARTESIAN_POINT('',(3.077342446911,0.164237484523,0.));
#183 = CARTESIAN_POINT('',(2.69049286007,0.148060000262,0.));
#184 = CARTESIAN_POINT('',(2.473425456796,0.183845415584,0.));
#185 = CARTESIAN_POINT('',(2.138925270245,0.156124029598,0.));
#186 = CARTESIAN_POINT('',(2.110816353972,0.199629991536,0.));
#187 = CARTESIAN_POINT('',(1.688343137455,0.249835851234,0.));
#188 = CARTESIAN_POINT('',(0.983540620031,0.187084291151,0.));
#189 = CARTESIAN_POINT('',(0.763373450806,0.21142554085,0.));
#190 = CARTESIAN_POINT('',(0.763304321122,0.224105721214,0.));
#191 = CARTESIAN_POINT('',(0.44067338841,0.259709604472,0.));
#192 = CARTESIAN_POINT('',(0.438286250825,0.208984631555,0.));
#193 = CARTESIAN_POINT('',(0.332736544811,0.156418553364,0.));
#194 = CARTESIAN_POINT('',(0.266465602158,0.188953034136,0.));
#195 = CARTESIAN_POINT('',(4.050112445693E-02,0.175563446841,0.));
#196 = CARTESIAN_POINT('',(0.,0.259849204408,0.));
#197 = PCURVE('',#75,#198);
#198 = DEFINITIONAL_REPRESENTATION('',(#199),#246);
#199 = B_SPLINE_CURVE_WITH_KNOTS('',1,(#200,#201,#202,#203,#204,#205,
    #206,#207,#208,#209,#210,#211,#212,#213,#214,#215,#216,#217,#218,
    #219,#220,#221,#222,#223,#224,#225,#226,#227,#228,#229,#230,#231,
    #232,#233,#234,#235,#236,#237,#238,#239,#240,#241,#242,#243,#244,
    #245),.UNSPECIFIED.,.F.,.F.,(2,1,1,1,1,1,1,1,1,1,1,1,1,1,1,1,1,1,1,1
    ,1,1,1,1,1,1,1,1,1,1,1,1,1,1,1,1,1,1,1,1,1,1,1,1,1,2),(0.,
    2.124971232491E-02,7.243870454206E-02,0.10108649527,0.109803677596,
    0.130512617444,0.137542902987,0.142992187923,0.146590205968,
    0.176515182173,0.193706018415,0.199281961914,0.200822591761,
    0.207755920036,0.227423794512,0.260311544932,0.281296626175,
    0.286301142381,0.321131114135,0.32883187909,0.332555943905,
    0.380970134096,0.41224407906,0.445828205255,0.485072959418,
    0.532758835795,0.584419965195,0.594269202914,0.599907380668,
    0.623262809187,0.647565065159,0.653874799825,0.695125056871,
    0.718563169967,0.754322367594,0.759840672895,0.805166891712,
    0.880552269484,0.904151388181,0.905502331082,0.940083494452,
    0.945493619614,0.958056057919,0.965921380131,0.990037442029,1.),
  .UNSPECIFIED.);
#200 = CARTESIAN_POINT('',(4.536686868422,0.137756613174));
#201 = CARTESIAN_POINT('',(4.337939680087,0.120951697237));
#202 = CARTESIAN_POINT('',(3.859001873401,0.159364209872));
#203 = CARTESIAN_POINT('',(3.597400800875,9.715087703041E-02));
#204 = CARTESIAN_POINT('',(3.515704927969,9.26063510301E-02));
#205 = CARTESIAN_POINT('',(3.325795800923,0.134058893125));
#206 = CARTESIAN_POINT('',(3.259814610046,0.135036931017));
#207 = CARTESIAN_POINT('',(3.216788908719,0.10737872733));
#208 = CARTESIAN_POINT('',(3.211717035109,7.398963199001E-02));
#209 = CARTESIAN_POINT('',(2.939934683979,0.144917723835));
#210 = CARTESIAN_POINT('',(2.803571322209,5.865298769001E-02));
#211 = CARTESIAN_POINT('',(2.755224951294,7.869908166024E-02));
#212 = CARTESIAN_POINT('',(2.744531197382,6.89646473952E-02));
#213 = CARTESIAN_POINT('',(2.679826223462,7.592599498178E-02));
#214 = CARTESIAN_POINT('',(2.500173013187,0.118412705081));
#215 = CARTESIAN_POINT('',(2.191570084711,0.1108893753));
#216 = CARTESIAN_POINT('',(1.995439197196,0.12907815393));
#217 = CARTESIAN_POINT('',(1.956010635227,0.103545046634));
#218 = CARTESIAN_POINT('',(1.632273462702,0.149087777731));
#219 = CARTESIAN_POINT('',(1.61443752643,7.9041127662E-02));
#220 = CARTESIAN_POINT('',(1.581202148125,6.821165402568E-02));
#221 = CARTESIAN_POINT('',(1.133766828799,0.147639615853));
#222 = CARTESIAN_POINT('',(0.849569126371,7.414490501342E-02));
#223 = CARTESIAN_POINT('',(0.535842259662,0.104902796433));
#224 = CARTESIAN_POINT('',(0.168350947469,0.130235574589));
#225 = CARTESIAN_POINT('',(-0.278552025835,0.155105112741));
#226 = CARTESIAN_POINT('',(-0.759129111831,9.044581258063E-02));
#227 = CARTESIAN_POINT('',(-0.851113113597,8.119509548547E-02));
#228 = CARTESIAN_POINT('',(-0.890852521847,0.116144831794));
#229 = CARTESIAN_POINT('',(-1.108992059817,9.439358998002E-02));
#230 = CARTESIAN_POINT('',(-1.331030320892,4.212025371999E-02));
#231 = CARTESIAN_POINT('',(-1.385970684667,6.423748452265E-02));
#232 = CARTESIAN_POINT('',(-1.772820271508,4.806000026173E-02));
#233 = CARTESIAN_POINT('',(-1.989887674782,8.38454155839E-02));
#234 = CARTESIAN_POINT('',(-2.324387861332,5.612402959757E-02));
#235 = CARTESIAN_POINT('',(-2.352496777606,9.962999153564E-02));
#236 = CARTESIAN_POINT('',(-2.774969994122,0.149835851234));
#237 = CARTESIAN_POINT('',(-3.479772511547,8.708429115062E-02));
#238 = CARTESIAN_POINT('',(-3.699939680771,0.11142554085));
#239 = CARTESIAN_POINT('',(-3.700008810456,0.124105721214));
#240 = CARTESIAN_POINT('',(-4.022639743168,0.159709604472));
#241 = CARTESIAN_POINT('',(-4.025026880753,0.108984631555));
#242 = CARTESIAN_POINT('',(-4.130576586767,5.641855336356E-02));
#243 = CARTESIAN_POINT('',(-4.19684752942,8.895303413575E-02));
#244 = CARTESIAN_POINT('',(-4.422812007121,7.556344684134E-02));
#245 = CARTESIAN_POINT('',(-4.463313131578,0.159849204408));
#246 = ( GEOMETRIC_REPRESENTATION_CONTEXT(2) 
PARAMETRIC_REPRESENTATION_CONTEXT() REPRESENTATION_CONTEXT('2D SPACE',''
  ) );
#247 = ORIENTED_EDGE('',*,*,#248,.T.);
#248 = EDGE_CURVE('',#147,#22,#249,.T.);
#249 = SURFACE_CURVE('',#250,(#254),.PCURVE_S1.);
#250 = LINE('',#251,#252);
#251 = CARTESIAN_POINT('',(0.,0.259849204408,0.));
#252 = VECTOR('',#253,1.);
#253 = DIRECTION('',(0.,-1.,0.));
#254 = PCURVE('',#75,#255);
#255 = DEFINITIONAL_REPRESENTATION('',(#256),#260);
#256 = LINE('',#257,#258);
#257 = CARTESIAN_POINT('',(-4.463313131578,0.159849204408));
#258 = VECTOR('',#259,1.);
#259 = DIRECTION('',(0.,-1.));
#260 = ( GEOMETRIC_REPRESENTATION_CONTEXT(2) 
PARAMETRIC_REPRESENTATION_CONTEXT() REPRESENTATION_CONTEXT('2D SPACE',''
  ) );
#261 = ( GEOMETRIC_REPRESENTATION_CONTEXT(3) 
GLOBAL_UNCERTAINTY_ASSIGNED_CONTEXT((#265)) GLOBAL_UNIT_ASSIGNED_CONTEXT
((#262,#263,#264)) REPRESENTATION_CONTEXT('Context #1',
  '3D Context with UNIT and UNCERTAINTY') );
#262 = ( LENGTH_UNIT() NAMED_UNIT(*) SI_UNIT(.MILLI.,.METRE.) );
#263 = ( NAMED_UNIT(*) PLANE_ANGLE_UNIT() SI_UNIT($,.RADIAN.) );
#264 = ( NAMED_UNIT(*) SI_UNIT($,.STERADIAN.) SOLID_ANGLE_UNIT() );
#265 = UNCERTAINTY_MEASURE_WITH_UNIT(LENGTH_MEASURE(1.E-07),#262,
  'distance_accuracy_value','confusion accuracy');
#266 = PRODUCT_RELATED_PRODUCT_CATEGORY('part',$,(#7));
ENDSEC;
END-ISO-10303-21;
