ISO-10303-21;
HEADER;
FILE_DESCRIPTION(('Open CASCADE Model'),'2;1');
FILE_NAME('Open CASCADE Shape Model','2026-05-28T17:04:49',('Author'),(
    'Open CASCADE'),'Open CASCADE STEP processor 7.9','Open CASCADE 7.9'
  ,'Unknown');
FILE_SCHEMA(('AUTOMOTIVE_DESIGN { 1 0 10303 214 1 1 1 1 }'));
ENDSEC;
DATA;
#1 = APPLICATION_PROTOCOL_DEFINITION('international standard',
  'automotive_design',2000,#2);
#2 = APPLICATION_CONTEXT(
  'core data for automotive mechanical design processes');
#3 = SHAPE_DEFINITION_REPRESENTATION(#4,#10);
#4 = PRODUCT_DEFINITION_SHAPE('','',#5);
#5 = PRODUCT_DEFINITION('design','',#6,#9);
#6 = PRODUCT_DEFINITION_FORMATION('','',#7);
#7 = PRODUCT('Open CASCADE STEP translator 7.9 65',
  'Open CASCADE STEP translator 7.9 65','',(#8));
#8 = PRODUCT_CONTEXT('',#2,'mechanical');
#9 = PRODUCT_DEFINITION_CONTEXT('part definition',#2,'design');
#10 = MANIFOLD_SURFACE_SHAPE_REPRESENTATION('',(#11,#15),#197);
#11 = AXIS2_PLACEMENT_3D('',#12,#13,#14);
#12 = CARTESIAN_POINT('',(0.,0.,0.));
#13 = DIRECTION('',(0.,0.,1.));
#14 = DIRECTION('',(1.,0.,-0.));
#15 = SHELL_BASED_SURFACE_MODEL('',(#16));
#16 = OPEN_SHELL('',(#17));
#17 = ADVANCED_FACE('',(#18),#59,.T.);
#18 = FACE_BOUND('',#19,.T.);
#19 = EDGE_LOOP('',(#20,#97,#113,#183));
#20 = ORIENTED_EDGE('',*,*,#21,.T.);
#21 = EDGE_CURVE('',#22,#24,#26,.T.);
#22 = VERTEX_POINT('',#23);
#23 = CARTESIAN_POINT('',(0.,3.056389297453E-03,0.));
#24 = VERTEX_POINT('',#25);
#25 = CARTESIAN_POINT('',(5.8,5.123504702859E-02,0.));
#26 = SURFACE_CURVE('',#27,(#58),.PCURVE_S1.);
#27 = B_SPLINE_CURVE_WITH_KNOTS('',1,(#28,#29,#30,#31,#32,#33,#34,#35,
    #36,#37,#38,#39,#40,#41,#42,#43,#44,#45,#46,#47,#48,#49,#50,#51,#52,
    #53,#54,#55,#56,#57),.UNSPECIFIED.,.F.,.F.,(2,1,1,1,1,1,1,1,1,1,1,1,
    1,1,1,1,1,1,1,1,1,1,1,1,1,1,1,1,1,2),(0.,3.805591176313E-02,
    0.127830121256,0.136328556813,0.138303658114,0.184911478784,
    0.244125467296,0.2975389805,0.357721665729,0.382439064713,
    0.444024403855,0.490366212949,0.502477882832,0.518130594489,
    0.527833847707,0.543645167959,0.613148343112,0.656310736162,
    0.67221194555,0.707490153036,0.807434110087,0.810325462959,
    0.821739155447,0.851137353818,0.881669450465,0.922829469952,
    0.930097367859,0.973345731061,0.987567251733,1.),.UNSPECIFIED.);
#28 = CARTESIAN_POINT('',(0.,3.056389297453E-03,0.));
#29 = CARTESIAN_POINT('',(0.228052421593,-4.385182267465E-02,0.));
#30 = CARTESIAN_POINT('',(0.774275843533,1.363512764824E-02,0.));
#31 = CARTESIAN_POINT('',(0.826256819249,1.249047851512E-02,0.));
#32 = CARTESIAN_POINT('',(0.831430407215,2.341063856581E-02,0.));
#33 = CARTESIAN_POINT('',(1.115421433599,-2.244207395354E-03,0.));
#34 = CARTESIAN_POINT('',(1.477680059766,-5.382004042735E-03,0.));
#35 = CARTESIAN_POINT('',(1.804170243607,-1.925533743725E-02,0.));
#36 = CARTESIAN_POINT('',(2.17133343504,8.339722786852E-03,0.));
#37 = CARTESIAN_POINT('',(2.320386027224,3.385952497397E-02,0.));
#38 = CARTESIAN_POINT('',(2.68902937842,-4.402104748967E-02,0.));
#39 = CARTESIAN_POINT('',(2.965574529794,1.847989593144E-02,0.));
#40 = CARTESIAN_POINT('',(2.991984740319,-5.075321038082E-02,0.));
#41 = CARTESIAN_POINT('',(3.034374172317,3.511760003683E-02,0.));
#42 = CARTESIAN_POINT('',(3.076001102143,-7.206897148348E-03,0.));
#43 = CARTESIAN_POINT('',(3.172694123597,-4.393811223534E-03,0.));
#44 = CARTESIAN_POINT('',(3.596469258589,-3.943774175124E-02,0.));
#45 = CARTESIAN_POINT('',(3.847228620362,4.33378335899E-02,0.));
#46 = CARTESIAN_POINT('',(3.877266883881,-4.91924607501E-02,0.));
#47 = CARTESIAN_POINT('',(4.088266114238,-3.771380660648E-03,0.));
#48 = CARTESIAN_POINT('',(4.699689779026,-1.033312606972E-02,0.));
#49 = CARTESIAN_POINT('',(4.714851016635,-1.219955195732E-03,0.));
#50 = CARTESIAN_POINT('',(4.755333706554,5.567701117965E-02,0.));
#51 = CARTESIAN_POINT('',(4.926470999909,3.491205832082E-04,0.));
#52 = CARTESIAN_POINT('',(5.111152650896,2.837404047876E-02,0.));
#53 = CARTESIAN_POINT('',(5.362791235203,1.887741835466E-02,0.));
#54 = CARTESIAN_POINT('',(5.387794099333,-1.789219190246E-02,0.));
#55 = CARTESIAN_POINT('',(5.651763826108,2.763444631073E-04,0.));
#56 = CARTESIAN_POINT('',(5.72397477472,4.88138144799E-02,0.));
#57 = CARTESIAN_POINT('',(5.8,5.123504702859E-02,0.));
#58 = PCURVE('',#59,#64);
#59 = PLANE('',#60);
#60 = AXIS2_PLACEMENT_3D('',#61,#62,#63);
#61 = CARTESIAN_POINT('',(2.913140729246,1.E-01,0.));
#62 = DIRECTION('',(0.,0.,1.));
#63 = DIRECTION('',(1.,0.,-0.));
#64 = DEFINITIONAL_REPRESENTATION('',(#65),#96);
#65 = B_SPLINE_CURVE_WITH_KNOTS('',1,(#66,#67,#68,#69,#70,#71,#72,#73,
    #74,#75,#76,#77,#78,#79,#80,#81,#82,#83,#84,#85,#86,#87,#88,#89,#90,
    #91,#92,#93,#94,#95),.UNSPECIFIED.,.F.,.F.,(2,1,1,1,1,1,1,1,1,1,1,1,
    1,1,1,1,1,1,1,1,1,1,1,1,1,1,1,1,1,2),(0.,3.805591176313E-02,
    0.127830121256,0.136328556813,0.138303658114,0.184911478784,
    0.244125467296,0.2975389805,0.357721665729,0.382439064713,
    0.444024403855,0.490366212949,0.502477882832,0.518130594489,
    0.527833847707,0.543645167959,0.613148343112,0.656310736162,
    0.67221194555,0.707490153036,0.807434110087,0.810325462959,
    0.821739155447,0.851137353818,0.881669450465,0.922829469952,
    0.930097367859,0.973345731061,0.987567251733,1.),.UNSPECIFIED.);
#66 = CARTESIAN_POINT('',(-2.913140729246,-9.694361070255E-02));
#67 = CARTESIAN_POINT('',(-2.685088307653,-0.143851822675));
#68 = CARTESIAN_POINT('',(-2.138864885713,-8.636487235176E-02));
#69 = CARTESIAN_POINT('',(-2.086883909997,-8.750952148488E-02));
#70 = CARTESIAN_POINT('',(-2.08171032203,-7.658936143419E-02));
#71 = CARTESIAN_POINT('',(-1.797719295647,-0.102244207395));
#72 = CARTESIAN_POINT('',(-1.43546066948,-0.105382004043));
#73 = CARTESIAN_POINT('',(-1.108970485639,-0.119255337437));
#74 = CARTESIAN_POINT('',(-0.741807294206,-9.166027721315E-02));
#75 = CARTESIAN_POINT('',(-0.592754702022,-6.614047502603E-02));
#76 = CARTESIAN_POINT('',(-0.224111350826,-0.14402104749));
#77 = CARTESIAN_POINT('',(5.243380054795E-02,-8.152010406856E-02));
#78 = CARTESIAN_POINT('',(7.884401107381E-02,-0.150753210381));
#79 = CARTESIAN_POINT('',(0.121233443072,-6.488239996317E-02));
#80 = CARTESIAN_POINT('',(0.162860372897,-0.107206897148));
#81 = CARTESIAN_POINT('',(0.259553394351,-0.104393811224));
#82 = CARTESIAN_POINT('',(0.683328529343,-0.139437741751));
#83 = CARTESIAN_POINT('',(0.934087891116,-5.66621664101E-02));
#84 = CARTESIAN_POINT('',(0.964126154636,-0.14919246075));
#85 = CARTESIAN_POINT('',(1.175125384993,-0.103771380661));
#86 = CARTESIAN_POINT('',(1.78654904978,-0.11033312607));
#87 = CARTESIAN_POINT('',(1.80171028739,-0.101219955196));
#88 = CARTESIAN_POINT('',(1.842192977309,-4.432298882035E-02));
#89 = CARTESIAN_POINT('',(2.013330270663,-9.965087941679E-02));
#90 = CARTESIAN_POINT('',(2.19801192165,-7.162595952124E-02));
#91 = CARTESIAN_POINT('',(2.449650505957,-8.112258164534E-02));
#92 = CARTESIAN_POINT('',(2.474653370087,-0.117892191902));
#93 = CARTESIAN_POINT('',(2.738623096862,-9.972365553689E-02));
#94 = CARTESIAN_POINT('',(2.810834045475,-5.11861855201E-02));
#95 = CARTESIAN_POINT('',(2.886859270754,-4.876495297141E-02));
#96 = ( GEOMETRIC_REPRESENTATION_CONTEXT(2) 
PARAMETRIC_REPRESENTATION_CONTEXT() REPRESENTATION_CONTEXT('2D SPACE',''
  ) );
#97 = ORIENTED_EDGE('',*,*,#98,.T.);
#98 = EDGE_CURVE('',#24,#99,#101,.T.);
#99 = VERTEX_POINT('',#100);
#100 = CARTESIAN_POINT('',(5.8,0.148764952971,0.));
#101 = SURFACE_CURVE('',#102,(#106),.PCURVE_S1.);
#102 = LINE('',#103,#104);
#103 = CARTESIAN_POINT('',(5.8,5.123504702859E-02,0.));
#104 = VECTOR('',#105,1.);
#105 = DIRECTION('',(0.,1.,0.));
#106 = PCURVE('',#59,#107);
#107 = DEFINITIONAL_REPRESENTATION('',(#108),#112);
#108 = LINE('',#109,#110);
#109 = CARTESIAN_POINT('',(2.886859270754,-4.876495297141E-02));
#110 = VECTOR('',#111,1.);
#111 = DIRECTION('',(0.,1.));
#112 = ( GEOMETRIC_REPRESENTATION_CONTEXT(2) 
PARAMETRIC_REPRESENTATION_CONTEXT() REPRESENTATION_CONTEXT('2D SPACE',''
  ) );
#113 = ORIENTED_EDGE('',*,*,#114,.T.);
#114 = EDGE_CURVE('',#99,#115,#117,.T.);
#115 = VERTEX_POINT('',#116);
#116 = CARTESIAN_POINT('',(0.,0.196943610703,0.));
#117 = SURFACE_CURVE('',#118,(#149),.PCURVE_S1.);
#118 = B_SPLINE_CURVE_WITH_KNOTS('',1,(#119,#120,#121,#122,#123,#124,
    #125,#126,#127,#128,#129,#130,#131,#132,#133,#134,#135,#136,#137,
    #138,#139,#140,#141,#142,#143,#144,#145,#146,#147,#148),
  .UNSPECIFIED.,.F.,.F.,(2,1,1,1,1,1,1,1,1,1,1,1,1,1,1,1,1,1,1,1,1,1,1,1
    ,1,1,1,1,1,2),(0.,1.24327482666E-02,2.665426893881E-02,
    6.990263214096E-02,7.717053004769E-02,0.118330549535,0.148862646182,
    0.178260844553,0.189674537041,0.192565889913,0.292509846964,
    0.32778805445,0.343689263838,0.386851656888,0.456354832041,
    0.472166152293,0.481869405511,0.497522117168,0.509633787051,
    0.555975596145,0.617560935287,0.642278334271,0.7024610195,
    0.755874532704,0.815088521216,0.861696341886,0.863671443187,
    0.872169878744,0.961944088237,1.),.UNSPECIFIED.);
#119 = CARTESIAN_POINT('',(5.8,0.148764952971,0.));
#120 = CARTESIAN_POINT('',(5.72397477472,0.15118618552,0.));
#121 = CARTESIAN_POINT('',(5.651763826108,0.199723655537,0.));
#122 = CARTESIAN_POINT('',(5.387794099333,0.217892191902,0.));
#123 = CARTESIAN_POINT('',(5.362791235203,0.181122581645,0.));
#124 = CARTESIAN_POINT('',(5.111152650896,0.171625959521,0.));
#125 = CARTESIAN_POINT('',(4.926470999909,0.199650879417,0.));
#126 = CARTESIAN_POINT('',(4.755333706554,0.14432298882,0.));
#127 = CARTESIAN_POINT('',(4.714851016635,0.201219955196,0.));
#128 = CARTESIAN_POINT('',(4.699689779026,0.21033312607,0.));
#129 = CARTESIAN_POINT('',(4.088266114238,0.203771380661,0.));
#130 = CARTESIAN_POINT('',(3.877266883881,0.24919246075,0.));
#131 = CARTESIAN_POINT('',(3.847228620362,0.15666216641,0.));
#132 = CARTESIAN_POINT('',(3.596469258589,0.239437741751,0.));
#133 = CARTESIAN_POINT('',(3.172694123597,0.204393811224,0.));
#134 = CARTESIAN_POINT('',(3.076001102143,0.207206897148,0.));
#135 = CARTESIAN_POINT('',(3.034374172317,0.164882399963,0.));
#136 = CARTESIAN_POINT('',(2.991984740319,0.250753210381,0.));
#137 = CARTESIAN_POINT('',(2.965574529794,0.181520104069,0.));
#138 = CARTESIAN_POINT('',(2.68902937842,0.24402104749,0.));
#139 = CARTESIAN_POINT('',(2.320386027224,0.166140475026,0.));
#140 = CARTESIAN_POINT('',(2.17133343504,0.191660277213,0.));
#141 = CARTESIAN_POINT('',(1.804170243607,0.219255337437,0.));
#142 = CARTESIAN_POINT('',(1.477680059766,0.205382004043,0.));
#143 = CARTESIAN_POINT('',(1.115421433599,0.202244207395,0.));
#144 = CARTESIAN_POINT('',(0.831430407215,0.176589361434,0.));
#145 = CARTESIAN_POINT('',(0.826256819249,0.187509521485,0.));
#146 = CARTESIAN_POINT('',(0.774275843533,0.186364872352,0.));
#147 = CARTESIAN_POINT('',(0.228052421593,0.243851822675,0.));
#148 = CARTESIAN_POINT('',(0.,0.196943610703,0.));
#149 = PCURVE('',#59,#150);
#150 = DEFINITIONAL_REPRESENTATION('',(#151),#182);
#151 = B_SPLINE_CURVE_WITH_KNOTS('',1,(#152,#153,#154,#155,#156,#157,
    #158,#159,#160,#161,#162,#163,#164,#165,#166,#167,#168,#169,#170,
    #171,#172,#173,#174,#175,#176,#177,#178,#179,#180,#181),
  .UNSPECIFIED.,.F.,.F.,(2,1,1,1,1,1,1,1,1,1,1,1,1,1,1,1,1,1,1,1,1,1,1,1
    ,1,1,1,1,1,2),(0.,1.24327482666E-02,2.665426893881E-02,
    6.990263214096E-02,7.717053004769E-02,0.118330549535,0.148862646182,
    0.178260844553,0.189674537041,0.192565889913,0.292509846964,
    0.32778805445,0.343689263838,0.386851656888,0.456354832041,
    0.472166152293,0.481869405511,0.497522117168,0.509633787051,
    0.555975596145,0.617560935287,0.642278334271,0.7024610195,
    0.755874532704,0.815088521216,0.861696341886,0.863671443187,
    0.872169878744,0.961944088237,1.),.UNSPECIFIED.);
#152 = CARTESIAN_POINT('',(2.886859270754,4.876495297141E-02));
#153 = CARTESIAN_POINT('',(2.810834045475,5.11861855201E-02));
#154 = CARTESIAN_POINT('',(2.738623096862,9.972365553689E-02));
#155 = CARTESIAN_POINT('',(2.474653370087,0.117892191902));
#156 = CARTESIAN_POINT('',(2.449650505957,8.112258164534E-02));
#157 = CARTESIAN_POINT('',(2.19801192165,7.162595952124E-02));
#158 = CARTESIAN_POINT('',(2.013330270663,9.965087941679E-02));
#159 = CARTESIAN_POINT('',(1.842192977309,4.432298882035E-02));
#160 = CARTESIAN_POINT('',(1.80171028739,0.101219955196));
#161 = CARTESIAN_POINT('',(1.78654904978,0.11033312607));
#162 = CARTESIAN_POINT('',(1.175125384993,0.103771380661));
#163 = CARTESIAN_POINT('',(0.964126154636,0.14919246075));
#164 = CARTESIAN_POINT('',(0.934087891116,5.66621664101E-02));
#165 = CARTESIAN_POINT('',(0.683328529343,0.139437741751));
#166 = CARTESIAN_POINT('',(0.259553394351,0.104393811224));
#167 = CARTESIAN_POINT('',(0.162860372897,0.107206897148));
#168 = CARTESIAN_POINT('',(0.121233443072,6.488239996317E-02));
#169 = CARTESIAN_POINT('',(7.884401107381E-02,0.150753210381));
#170 = CARTESIAN_POINT('',(5.243380054795E-02,8.152010406856E-02));
#171 = CARTESIAN_POINT('',(-0.224111350826,0.14402104749));
#172 = CARTESIAN_POINT('',(-0.592754702022,6.614047502603E-02));
#173 = CARTESIAN_POINT('',(-0.741807294206,9.166027721315E-02));
#174 = CARTESIAN_POINT('',(-1.108970485639,0.119255337437));
#175 = CARTESIAN_POINT('',(-1.43546066948,0.105382004043));
#176 = CARTESIAN_POINT('',(-1.797719295647,0.102244207395));
#177 = CARTESIAN_POINT('',(-2.08171032203,7.658936143419E-02));
#178 = CARTESIAN_POINT('',(-2.086883909997,8.750952148488E-02));
#179 = CARTESIAN_POINT('',(-2.138864885713,8.636487235176E-02));
#180 = CARTESIAN_POINT('',(-2.685088307653,0.143851822675));
#181 = CARTESIAN_POINT('',(-2.913140729246,9.694361070255E-02));
#182 = ( GEOMETRIC_REPRESENTATION_CONTEXT(2) 
PARAMETRIC_REPRESENTATION_CONTEXT() REPRESENTATION_CONTEXT('2D SPACE',''
  ) );
#183 = ORIENTED_EDGE('',*,*,#184,.T.);
#184 = EDGE_CURVE('',#115,#22,#185,.T.);
#185 = SURFACE_CURVE('',#186,(#190),.PCURVE_S1.);
#186 = LINE('',#187,#188);
#187 = CARTESIAN_POINT('',(0.,0.196943610703,0.));
#188 = VECTOR('',#189,1.);
#189 = DIRECTION('',(0.,-1.,0.));
#190 = PCURVE('',#59,#191);
#191 = DEFINITIONAL_REPRESENTATION('',(#192),#196);
#192 = LINE('',#193,#194);
#193 = CARTESIAN_POINT('',(-2.913140729246,9.694361070255E-02));
#194 = VECTOR('',#195,1.);
#195 = DIRECTION('',(0.,-1.));
#196 = ( GEOMETRIC_REPRESENTATION_CONTEXT(2) 
PARAMETRIC_REPRESENTATION_CONTEXT() REPRESENTATION_CONTEXT('2D SPACE',''
  ) );
#197 = ( GEOMETRIC_REPRESENTATION_CONTEXT(3) 
GLOBAL_UNCERTAINTY_ASSIGNED_CONTEXT((#201)) GLOBAL_UNIT_ASSIGNED_CONTEXT
((#198,#199,#200)) REPRESENTATION_CONTEXT('Context #1',
  '3D Context with UNIT and UNCERTAINTY') );
#198 = ( LENGTH_UNIT() NAMED_UNIT(*) SI_UNIT(.MILLI.,.METRE.) );
#199 = ( NAMED_UNIT(*) PLANE_ANGLE_UNIT() SI_UNIT($,.RADIAN.) );
#200 = ( NAMED_UNIT(*) SI_UNIT($,.STERADIAN.) SOLID_ANGLE_UNIT() );
#201 = UNCERTAINTY_MEASURE_WITH_UNIT(LENGTH_MEASURE(1.E-07),#198,
  'distance_accuracy_value','confusion accuracy');
#202 = PRODUCT_RELATED_PRODUCT_CATEGORY('part',$,(#7));
ENDSEC;
END-ISO-10303-21;
