ISO-10303-21;
HEADER;
FILE_DESCRIPTION(('Open CASCADE Model'),'2;1');
FILE_NAME('Open CASCADE Shape Model','2026-05-28T17:04:49',('Author'),(
    'Open CASCADE'),'Open CASCADE STEP processor 7.9','Open CASCADE 7.9'
  ,'Unknown');
FILE_SCHEMA(('AUTOMOTIVE_DESIGN { 1 0 10303 214 1 1 1 1 }'));
ENDSEC;
DATA;
#1 = APPLICATION_PROTOCOL_DEFINITION('international standard',
  'automotive_design',2000,#2);
#2 = APPLICATION_CONTEXT(
  'core data for automotive mechanical design processes');
#3 = SHAPE_DEFINITION_REPRESENTATION(#4,#10);
#4 = PRODUCT_DEFINITION_SHAPE('','',#5);
#5 = PRODUCT_DEFINITION('design','',#6,#9);
#6 = PRODUCT_DEFINITION_FORMATION('','',#7);
#7 = PRODUCT('Open CASCADE STEP translator 7.9 70',
  'Open CASCADE STEP translator 7.9 70','',(#8));
#8 = PRODUCT_CONTEXT('',#2,'mechanical');
#9 = PRODUCT_DEFINITION_CONTEXT('part definition',#2,'design');
#10 = MANIFOLD_SURFACE_SHAPE_REPRESENTATION('',(#11,#15),#193);
#11 = AXIS2_PLACEMENT_3D('',#12,#13,#14);
#12 = CARTESIAN_POINT('',(0.,0.,0.));
#13 = DIRECTION('',(0.,0.,1.));
#14 = DIRECTION('',(1.,0.,-0.));
#15 = SHELL_BASED_SURFACE_MODEL('',(#16));
#16 = OPEN_SHELL('',(#17));
#17 = ADVANCED_FACE('',(#18),#58,.T.);
#18 = FACE_BOUND('',#19,.T.);
#19 = EDGE_LOOP('',(#20,#95,#111,#179));
#20 = ORIENTED_EDGE('',*,*,#21,.T.);
#21 = EDGE_CURVE('',#22,#24,#26,.T.);
#22 = VERTEX_POINT('',#23);
#23 = CARTESIAN_POINT('',(0.,-4.65217411908E-02,0.));
#24 = VERTEX_POINT('',#25);
#25 = CARTESIAN_POINT('',(5.6,-1.256984559547E-02,0.));
#26 = SURFACE_CURVE('',#27,(#57),.PCURVE_S1.);
#27 = B_SPLINE_CURVE_WITH_KNOTS('',1,(#28,#29,#30,#31,#32,#33,#34,#35,
    #36,#37,#38,#39,#40,#41,#42,#43,#44,#45,#46,#47,#48,#49,#50,#51,#52,
    #53,#54,#55,#56),.UNSPECIFIED.,.F.,.F.,(2,1,1,1,1,1,1,1,1,1,1,1,1,1,
    1,1,1,1,1,1,1,1,1,1,1,1,1,1,2),(0.,2.281808329885E-02,
    3.678675421433E-02,7.106005778261E-02,7.581723380107E-02,
    0.149605603956,0.171580201,0.185454835481,0.193885969812,
    0.257019777404,0.274927815803,0.332362985851,0.373414038417,
    0.449857947691,0.460753134708,0.491891969112,0.514254408556,
    0.526991773317,0.637512766173,0.697538329813,0.758496819994,
    0.775329735437,0.803091704235,0.825838021344,0.842521465064,
    0.862227988358,0.945400223614,0.96117603808,1.),.UNSPECIFIED.);
#28 = CARTESIAN_POINT('',(0.,-4.65217411908E-02,0.));
#29 = CARTESIAN_POINT('',(0.116406217065,2.60237908335E-02,0.));
#30 = CARTESIAN_POINT('',(0.170693091098,-3.803376771074E-02,0.));
#31 = CARTESIAN_POINT('',(0.376111478163,-2.230407630826E-02,0.));
#32 = CARTESIAN_POINT('',(0.395644008318,-1.418686668571E-03,0.));
#33 = CARTESIAN_POINT('',(0.839063863077,9.250062834855E-03,0.));
#34 = CARTESIAN_POINT('',(0.962468439696,-3.786033071105E-02,0.));
#35 = CARTESIAN_POINT('',(1.045826631984,-3.51695319234E-02,0.));
#36 = CARTESIAN_POINT('',(1.096320972374,-3.083236031311E-02,0.));
#37 = CARTESIAN_POINT('',(1.47471720892,-5.979071414584E-02,0.));
#38 = CARTESIAN_POINT('',(1.562454899119,2.578504687034E-03,0.));
#39 = CARTESIAN_POINT('',(1.905445986599,-3.683075733839E-02,0.));
#40 = CARTESIAN_POINT('',(2.152117290982,-4.349740403802E-02,0.));
#41 = CARTESIAN_POINT('',(2.604941560686,3.460769022556E-02,0.));
#42 = CARTESIAN_POINT('',(2.667193441269,5.495202695363E-02,0.));
#43 = CARTESIAN_POINT('',(2.849241577131,1.143019173737E-02,0.));
#44 = CARTESIAN_POINT('',(2.972235850842,-4.280840213241E-02,0.));
#45 = CARTESIAN_POINT('',(3.007199655144,2.530760625666E-02,0.));
#46 = CARTESIAN_POINT('',(3.669718360041,-2.400121848809E-02,0.));
#47 = CARTESIAN_POINT('',(4.020832799692,5.911822331229E-02,0.));
#48 = CARTESIAN_POINT('',(4.384871878558,1.735626812157E-02,0.));
#49 = CARTESIAN_POINT('',(4.481119681004,-1.386200337098E-02,0.));
#50 = CARTESIAN_POINT('',(4.63748761469,4.442913719132E-02,0.));
#51 = CARTESIAN_POINT('',(4.738616564332,-4.759282945769E-02,0.));
#52 = CARTESIAN_POINT('',(4.785142523647,4.124712274595E-02,0.));
#53 = CARTESIAN_POINT('',(4.861667028563,-4.917522540048E-02,0.));
#54 = CARTESIAN_POINT('',(5.3546495243,3.403328295804E-02,0.));
#55 = CARTESIAN_POINT('',(5.371355018775,-5.93134408699E-02,0.));
#56 = CARTESIAN_POINT('',(5.6,-1.256984559547E-02,0.));
#57 = PCURVE('',#58,#63);
#58 = PLANE('',#59);
#59 = AXIS2_PLACEMENT_3D('',#60,#61,#62);
#60 = CARTESIAN_POINT('',(2.837022288725,0.1,0.));
#61 = DIRECTION('',(0.,0.,1.));
#62 = DIRECTION('',(1.,0.,-0.));
#63 = DEFINITIONAL_REPRESENTATION('',(#64),#94);
#64 = B_SPLINE_CURVE_WITH_KNOTS('',1,(#65,#66,#67,#68,#69,#70,#71,#72,
    #73,#74,#75,#76,#77,#78,#79,#80,#81,#82,#83,#84,#85,#86,#87,#88,#89,
    #90,#91,#92,#93),.UNSPECIFIED.,.F.,.F.,(2,1,1,1,1,1,1,1,1,1,1,1,1,1,
    1,1,1,1,1,1,1,1,1,1,1,1,1,1,2),(0.,2.281808329885E-02,
    3.678675421433E-02,7.106005778261E-02,7.581723380107E-02,
    0.149605603956,0.171580201,0.185454835481,0.193885969812,
    0.257019777404,0.274927815803,0.332362985851,0.373414038417,
    0.449857947691,0.460753134708,0.491891969112,0.514254408556,
    0.526991773317,0.637512766173,0.697538329813,0.758496819994,
    0.775329735437,0.803091704235,0.825838021344,0.842521465064,
    0.862227988358,0.945400223614,0.96117603808,1.),.UNSPECIFIED.);
#65 = CARTESIAN_POINT('',(-2.837022288725,-0.146521741191));
#66 = CARTESIAN_POINT('',(-2.72061607166,-7.39762091665E-02));
#67 = CARTESIAN_POINT('',(-2.666329197627,-0.138033767711));
#68 = CARTESIAN_POINT('',(-2.460910810562,-0.122304076308));
#69 = CARTESIAN_POINT('',(-2.441378280407,-0.101418686669));
#70 = CARTESIAN_POINT('',(-1.997958425648,-9.074993716514E-02));
#71 = CARTESIAN_POINT('',(-1.874553849029,-0.137860330711));
#72 = CARTESIAN_POINT('',(-1.791195656741,-0.135169531923));
#73 = CARTESIAN_POINT('',(-1.740701316351,-0.130832360313));
#74 = CARTESIAN_POINT('',(-1.362305079806,-0.159790714146));
#75 = CARTESIAN_POINT('',(-1.274567389606,-9.742149531297E-02));
#76 = CARTESIAN_POINT('',(-0.931576302126,-0.136830757338));
#77 = CARTESIAN_POINT('',(-0.684904997743,-0.143497404038));
#78 = CARTESIAN_POINT('',(-0.232080728039,-6.539230977444E-02));
#79 = CARTESIAN_POINT('',(-0.169828847456,-4.504797304637E-02));
#80 = CARTESIAN_POINT('',(1.221928840648E-02,-8.856980826263E-02));
#81 = CARTESIAN_POINT('',(0.135213562117,-0.142808402132));
#82 = CARTESIAN_POINT('',(0.170177366419,-7.469239374334E-02));
#83 = CARTESIAN_POINT('',(0.832696071316,-0.124001218488));
#84 = CARTESIAN_POINT('',(1.183810510967,-4.088177668771E-02));
#85 = CARTESIAN_POINT('',(1.547849589833,-8.264373187843E-02));
#86 = CARTESIAN_POINT('',(1.644097392279,-0.113862003371));
#87 = CARTESIAN_POINT('',(1.800465325965,-5.557086280868E-02));
#88 = CARTESIAN_POINT('',(1.901594275607,-0.147592829458));
#89 = CARTESIAN_POINT('',(1.948120234922,-5.875287725405E-02));
#90 = CARTESIAN_POINT('',(2.024644739838,-0.1491752254));
#91 = CARTESIAN_POINT('',(2.517627235575,-6.596671704196E-02));
#92 = CARTESIAN_POINT('',(2.53433273005,-0.15931344087));
#93 = CARTESIAN_POINT('',(2.762977711275,-0.112569845595));
#94 = ( GEOMETRIC_REPRESENTATION_CONTEXT(2) 
PARAMETRIC_REPRESENTATION_CONTEXT() REPRESENTATION_CONTEXT('2D SPACE',''
  ) );
#95 = ORIENTED_EDGE('',*,*,#96,.T.);
#96 = EDGE_CURVE('',#24,#97,#99,.T.);
#97 = VERTEX_POINT('',#98);
#98 = CARTESIAN_POINT('',(5.6,0.212569845595,0.));
#99 = SURFACE_CURVE('',#100,(#104),.PCURVE_S1.);
#100 = LINE('',#101,#102);
#101 = CARTESIAN_POINT('',(5.6,-1.256984559547E-02,0.));
#102 = VECTOR('',#103,1.);
#103 = DIRECTION('',(0.,1.,0.));
#104 = PCURVE('',#58,#105);
#105 = DEFINITIONAL_REPRESENTATION('',(#106),#110);
#106 = LINE('',#107,#108);
#107 = CARTESIAN_POINT('',(2.762977711275,-0.112569845595));
#108 = VECTOR('',#109,1.);
#109 = DIRECTION('',(0.,1.));
#110 = ( GEOMETRIC_REPRESENTATION_CONTEXT(2) 
PARAMETRIC_REPRESENTATION_CONTEXT() REPRESENTATION_CONTEXT('2D SPACE',''
  ) );
#111 = ORIENTED_EDGE('',*,*,#112,.T.);
#112 = EDGE_CURVE('',#97,#113,#115,.T.);
#113 = VERTEX_POINT('',#114);
#114 = CARTESIAN_POINT('',(0.,0.246521741191,0.));
#115 = SURFACE_CURVE('',#116,(#146),.PCURVE_S1.);
#116 = B_SPLINE_CURVE_WITH_KNOTS('',1,(#117,#118,#119,#120,#121,#122,
    #123,#124,#125,#126,#127,#128,#129,#130,#131,#132,#133,#134,#135,
    #136,#137,#138,#139,#140,#141,#142,#143,#144,#145),.UNSPECIFIED.,.F.
  ,.F.,(2,1,1,1,1,1,1,1,1,1,1,1,1,1,1,1,1,1,1,1,1,1,1,1,1,1,1,1,2),(0.,
    3.882396192014E-02,5.4599776386E-02,0.137772011642,0.157478534936,
    0.174161978656,0.196908295765,0.224670264563,0.241503180006,
    0.302461670187,0.362487233827,0.473008226683,0.485745591444,
    0.508108030888,0.539246865292,0.550142052309,0.626585961583,
    0.667637014149,0.725072184197,0.742980222596,0.806114030188,
    0.814545164519,0.828419799,0.850394396044,0.924182766199,
    0.928939942217,0.963213245786,0.977181916701,1.),.UNSPECIFIED.);
#117 = CARTESIAN_POINT('',(5.6,0.212569845595,0.));
#118 = CARTESIAN_POINT('',(5.371355018775,0.25931344087,0.));
#119 = CARTESIAN_POINT('',(5.3546495243,0.165966717042,0.));
#120 = CARTESIAN_POINT('',(4.861667028563,0.2491752254,0.));
#121 = CARTESIAN_POINT('',(4.785142523647,0.158752877254,0.));
#122 = CARTESIAN_POINT('',(4.738616564332,0.247592829458,0.));
#123 = CARTESIAN_POINT('',(4.63748761469,0.155570862809,0.));
#124 = CARTESIAN_POINT('',(4.481119681004,0.213862003371,0.));
#125 = CARTESIAN_POINT('',(4.384871878558,0.182643731878,0.));
#126 = CARTESIAN_POINT('',(4.020832799692,0.140881776688,0.));
#127 = CARTESIAN_POINT('',(3.669718360041,0.224001218488,0.));
#128 = CARTESIAN_POINT('',(3.007199655144,0.174692393743,0.));
#129 = CARTESIAN_POINT('',(2.972235850842,0.242808402132,0.));
#130 = CARTESIAN_POINT('',(2.849241577131,0.188569808263,0.));
#131 = CARTESIAN_POINT('',(2.667193441269,0.145047973046,0.));
#132 = CARTESIAN_POINT('',(2.604941560686,0.165392309774,0.));
#133 = CARTESIAN_POINT('',(2.152117290982,0.243497404038,0.));
#134 = CARTESIAN_POINT('',(1.905445986599,0.236830757338,0.));
#135 = CARTESIAN_POINT('',(1.562454899119,0.197421495313,0.));
#136 = CARTESIAN_POINT('',(1.47471720892,0.259790714146,0.));
#137 = CARTESIAN_POINT('',(1.096320972374,0.230832360313,0.));
#138 = CARTESIAN_POINT('',(1.045826631984,0.235169531923,0.));
#139 = CARTESIAN_POINT('',(0.962468439696,0.237860330711,0.));
#140 = CARTESIAN_POINT('',(0.839063863077,0.190749937165,0.));
#141 = CARTESIAN_POINT('',(0.395644008318,0.201418686669,0.));
#142 = CARTESIAN_POINT('',(0.376111478163,0.222304076308,0.));
#143 = CARTESIAN_POINT('',(0.170693091098,0.238033767711,0.));
#144 = CARTESIAN_POINT('',(0.116406217065,0.173976209167,0.));
#145 = CARTESIAN_POINT('',(0.,0.246521741191,0.));
#146 = PCURVE('',#58,#147);
#147 = DEFINITIONAL_REPRESENTATION('',(#148),#178);
#148 = B_SPLINE_CURVE_WITH_KNOTS('',1,(#149,#150,#151,#152,#153,#154,
    #155,#156,#157,#158,#159,#160,#161,#162,#163,#164,#165,#166,#167,
    #168,#169,#170,#171,#172,#173,#174,#175,#176,#177),.UNSPECIFIED.,.F.
  ,.F.,(2,1,1,1,1,1,1,1,1,1,1,1,1,1,1,1,1,1,1,1,1,1,1,1,1,1,1,1,2),(0.,
    3.882396192014E-02,5.4599776386E-02,0.137772011642,0.157478534936,
    0.174161978656,0.196908295765,0.224670264563,0.241503180006,
    0.302461670187,0.362487233827,0.473008226683,0.485745591444,
    0.508108030888,0.539246865292,0.550142052309,0.626585961583,
    0.667637014149,0.725072184197,0.742980222596,0.806114030188,
    0.814545164519,0.828419799,0.850394396044,0.924182766199,
    0.928939942217,0.963213245786,0.977181916701,1.),.UNSPECIFIED.);
#149 = CARTESIAN_POINT('',(2.762977711275,0.112569845595));
#150 = CARTESIAN_POINT('',(2.53433273005,0.15931344087));
#151 = CARTESIAN_POINT('',(2.517627235575,6.596671704196E-02));
#152 = CARTESIAN_POINT('',(2.024644739838,0.1491752254));
#153 = CARTESIAN_POINT('',(1.948120234922,5.875287725405E-02));
#154 = CARTESIAN_POINT('',(1.901594275607,0.147592829458));
#155 = CARTESIAN_POINT('',(1.800465325965,5.557086280868E-02));
#156 = CARTESIAN_POINT('',(1.644097392279,0.113862003371));
#157 = CARTESIAN_POINT('',(1.547849589833,8.264373187843E-02));
#158 = CARTESIAN_POINT('',(1.183810510967,4.088177668771E-02));
#159 = CARTESIAN_POINT('',(0.832696071316,0.124001218488));
#160 = CARTESIAN_POINT('',(0.170177366419,7.469239374334E-02));
#161 = CARTESIAN_POINT('',(0.135213562117,0.142808402132));
#162 = CARTESIAN_POINT('',(1.221928840648E-02,8.856980826263E-02));
#163 = CARTESIAN_POINT('',(-0.169828847456,4.504797304637E-02));
#164 = CARTESIAN_POINT('',(-0.232080728039,6.539230977444E-02));
#165 = CARTESIAN_POINT('',(-0.684904997743,0.143497404038));
#166 = CARTESIAN_POINT('',(-0.931576302126,0.136830757338));
#167 = CARTESIAN_POINT('',(-1.274567389606,9.742149531297E-02));
#168 = CARTESIAN_POINT('',(-1.362305079806,0.159790714146));
#169 = CARTESIAN_POINT('',(-1.740701316351,0.130832360313));
#170 = CARTESIAN_POINT('',(-1.791195656741,0.135169531923));
#171 = CARTESIAN_POINT('',(-1.874553849029,0.137860330711));
#172 = CARTESIAN_POINT('',(-1.997958425648,9.074993716514E-02));
#173 = CARTESIAN_POINT('',(-2.441378280407,0.101418686669));
#174 = CARTESIAN_POINT('',(-2.460910810562,0.122304076308));
#175 = CARTESIAN_POINT('',(-2.666329197627,0.138033767711));
#176 = CARTESIAN_POINT('',(-2.72061607166,7.39762091665E-02));
#177 = CARTESIAN_POINT('',(-2.837022288725,0.146521741191));
#178 = ( GEOMETRIC_REPRESENTATION_CONTEXT(2) 
PARAMETRIC_REPRESENTATION_CONTEXT() REPRESENTATION_CONTEXT('2D SPACE',''
  ) );
#179 = ORIENTED_EDGE('',*,*,#180,.T.);
#180 = EDGE_CURVE('',#113,#22,#181,.T.);
#181 = SURFACE_CURVE('',#182,(#186),.PCURVE_S1.);
#182 = LINE('',#183,#184);
#183 = CARTESIAN_POINT('',(0.,0.246521741191,0.));
#184 = VECTOR('',#185,1.);
#185 = DIRECTION('',(0.,-1.,0.));
#186 = PCURVE('',#58,#187);
#187 = DEFINITIONAL_REPRESENTATION('',(#188),#192);
#188 = LINE('',#189,#190);
#189 = CARTESIAN_POINT('',(-2.837022288725,0.146521741191));
#190 = VECTOR('',#191,1.);
#191 = DIRECTION('',(0.,-1.));
#192 = ( GEOMETRIC_REPRESENTATION_CONTEXT(2) 
PARAMETRIC_REPRESENTATION_CONTEXT() REPRESENTATION_CONTEXT('2D SPACE',''
  ) );
#193 = ( GEOMETRIC_REPRESENTATION_CONTEXT(3) 
GLOBAL_UNCERTAINTY_ASSIGNED_CONTEXT((#197)) GLOBAL_UNIT_ASSIGNED_CONTEXT
((#194,#195,#196)) REPRESENTATION_CONTEXT('Context #1',
  '3D Context with UNIT and UNCERTAINTY') );
#194 = ( LENGTH_UNIT() NAMED_UNIT(*) SI_UNIT(.MILLI.,.METRE.) );
#195 = ( NAMED_UNIT(*) PLANE_ANGLE_UNIT() SI_UNIT($,.RADIAN.) );
#196 = ( NAMED_UNIT(*) SI_UNIT($,.STERADIAN.) SOLID_ANGLE_UNIT() );
#197 = UNCERTAINTY_MEASURE_WITH_UNIT(LENGTH_MEASURE(1.E-07),#194,
  'distance_accuracy_value','confusion accuracy');
#198 = PRODUCT_RELATED_PRODUCT_CATEGORY('part',$,(#7));
ENDSEC;
END-ISO-10303-21;
