ISO-10303-21;
HEADER;
FILE_DESCRIPTION(('Open CASCADE Model'),'2;1');
FILE_NAME('Open CASCADE Shape Model','2026-05-28T17:04:49',('Author'),(
    'Open CASCADE'),'Open CASCADE STEP processor 7.9','Open CASCADE 7.9'
  ,'Unknown');
FILE_SCHEMA(('AUTOMOTIVE_DESIGN { 1 0 10303 214 1 1 1 1 }'));
ENDSEC;
DATA;
#1 = APPLICATION_PROTOCOL_DEFINITION('international standard',
  'automotive_design',2000,#2);
#2 = APPLICATION_CONTEXT(
  'core data for automotive mechanical design processes');
#3 = SHAPE_DEFINITION_REPRESENTATION(#4,#10);
#4 = PRODUCT_DEFINITION_SHAPE('','',#5);
#5 = PRODUCT_DEFINITION('design','',#6,#9);
#6 = PRODUCT_DEFINITION_FORMATION('','',#7);
#7 = PRODUCT('Open CASCADE STEP translator 7.9 31',
  'Open CASCADE STEP translator 7.9 31','',(#8));
#8 = PRODUCT_CONTEXT('',#2,'mechanical');
#9 = PRODUCT_DEFINITION_CONTEXT('part definition',#2,'design');
#10 = MANIFOLD_SURFACE_SHAPE_REPRESENTATION('',(#11,#15),#209);
#11 = AXIS2_PLACEMENT_3D('',#12,#13,#14);
#12 = CARTESIAN_POINT('',(0.,0.,0.));
#13 = DIRECTION('',(0.,0.,1.));
#14 = DIRECTION('',(1.,0.,-0.));
#15 = SHELL_BASED_SURFACE_MODEL('',(#16));
#16 = OPEN_SHELL('',(#17));
#17 = ADVANCED_FACE('',(#18),#62,.T.);
#18 = FACE_BOUND('',#19,.T.);
#19 = EDGE_LOOP('',(#20,#103,#119,#195));
#20 = ORIENTED_EDGE('',*,*,#21,.T.);
#21 = EDGE_CURVE('',#22,#24,#26,.T.);
#22 = VERTEX_POINT('',#23);
#23 = CARTESIAN_POINT('',(0.,7.222914902344E-03,0.));
#24 = VERTEX_POINT('',#25);
#25 = CARTESIAN_POINT('',(6.4,4.135234568913E-02,0.));
#26 = SURFACE_CURVE('',#27,(#61),.PCURVE_S1.);
#27 = B_SPLINE_CURVE_WITH_KNOTS('',1,(#28,#29,#30,#31,#32,#33,#34,#35,
    #36,#37,#38,#39,#40,#41,#42,#43,#44,#45,#46,#47,#48,#49,#50,#51,#52,
    #53,#54,#55,#56,#57,#58,#59,#60),.UNSPECIFIED.,.F.,.F.,(2,1,1,1,1,1,
    1,1,1,1,1,1,1,1,1,1,1,1,1,1,1,1,1,1,1,1,1,1,1,1,1,1,2),(0.,
    3.165507472662E-02,0.146246481575,0.158598770436,0.192892875147,
    0.213912630803,0.220295433868,0.239252685032,0.25092519614,
    0.273483775094,0.288959202768,0.310942974934,0.391873300977,
    0.474716055803,0.49963920208,0.503584240295,0.542481175281,
    0.558981413376,0.60105196321,0.613293558054,0.622940843056,
    0.730460235063,0.740407882409,0.809277726813,0.825316080353,
    0.838094260403,0.88160469859,0.90733691062,0.914978890361,
    0.962063169267,0.972374365046,0.987752344826,1.),.UNSPECIFIED.);
#28 = CARTESIAN_POINT('',(0.,7.222914902344E-03,0.));
#29 = CARTESIAN_POINT('',(0.205754161938,-5.827453218144E-02,0.));
#30 = CARTESIAN_POINT('',(0.987412002646,-5.82056036065E-02,0.));
#31 = CARTESIAN_POINT('',(1.071135997723,-4.873281729182E-02,0.));
#32 = CARTESIAN_POINT('',(1.304708014909,-3.581380137937E-02,0.));
#33 = CARTESIAN_POINT('',(1.433252259801,2.770433991326E-02,0.));
#34 = CARTESIAN_POINT('',(1.476346402098,2.149799111194E-02,0.));
#35 = CARTESIAN_POINT('',(1.602771755084,-5.673940944585E-03,0.));
#36 = CARTESIAN_POINT('',(1.682376525823,-7.293284947441E-03,0.));
#37 = CARTESIAN_POINT('',(1.836111446806,-6.60338322848E-04,0.));
#38 = CARTESIAN_POINT('',(1.940493290461,-1.640043358996E-02,0.));
#39 = CARTESIAN_POINT('',(2.08792551785,1.100123728404E-02,0.));
#40 = CARTESIAN_POINT('',(2.63845501737,-2.990089887786E-02,0.));
#41 = CARTESIAN_POINT('',(3.201341755605,1.99740088226E-02,0.));
#42 = CARTESIAN_POINT('',(3.371348680719,2.031876036644E-02,0.));
#43 = CARTESIAN_POINT('',(3.382667065232,4.473288457298E-02,0.));
#44 = CARTESIAN_POINT('',(3.647890583002,3.735453479653E-02,0.));
#45 = CARTESIAN_POINT('',(3.727646345852,-4.206250547056E-02,0.));
#46 = CARTESIAN_POINT('',(4.010490993264,6.446119370347E-03,0.));
#47 = CARTESIAN_POINT('',(4.089774145694,3.265586561366E-02,0.));
#48 = CARTESIAN_POINT('',(4.105992486172,-3.112093200269E-02,0.));
#49 = CARTESIAN_POINT('',(4.838996145362,-6.477735098023E-03,0.));
#50 = CARTESIAN_POINT('',(4.861715534761,5.74612786292E-02,0.));
#51 = CARTESIAN_POINT('',(5.330157149834,2.203662511959E-02,0.));
#52 = CARTESIAN_POINT('',(5.438273224968,3.875983066544E-02,0.));
#53 = CARTESIAN_POINT('',(5.50381147969,-1.870474331794E-02,0.));
#54 = CARTESIAN_POINT('',(5.797067858651,2.699627512437E-02,0.));
#55 = CARTESIAN_POINT('',(5.970774134102,5.220638649481E-02,0.));
#56 = CARTESIAN_POINT('',(6.022888222494,5.340780129628E-02,0.));
#57 = CARTESIAN_POINT('',(6.337779757394,-9.807275755046E-03,0.));
#58 = CARTESIAN_POINT('',(6.358544148133,5.739318531551E-02,0.));
#59 = CARTESIAN_POINT('',(6.392503110111,-4.185505357633E-02,0.));
#60 = CARTESIAN_POINT('',(6.4,4.135234568913E-02,0.));
#61 = PCURVE('',#62,#67);
#62 = PLANE('',#63);
#63 = AXIS2_PLACEMENT_3D('',#64,#65,#66);
#64 = CARTESIAN_POINT('',(3.29664161677,0.1,0.));
#65 = DIRECTION('',(0.,0.,1.));
#66 = DIRECTION('',(1.,0.,-0.));
#67 = DEFINITIONAL_REPRESENTATION('',(#68),#102);
#68 = B_SPLINE_CURVE_WITH_KNOTS('',1,(#69,#70,#71,#72,#73,#74,#75,#76,
    #77,#78,#79,#80,#81,#82,#83,#84,#85,#86,#87,#88,#89,#90,#91,#92,#93,
    #94,#95,#96,#97,#98,#99,#100,#101),.UNSPECIFIED.,.F.,.F.,(2,1,1,1,1,
    1,1,1,1,1,1,1,1,1,1,1,1,1,1,1,1,1,1,1,1,1,1,1,1,1,1,1,2),(0.,
    3.165507472662E-02,0.146246481575,0.158598770436,0.192892875147,
    0.213912630803,0.220295433868,0.239252685032,0.25092519614,
    0.273483775094,0.288959202768,0.310942974934,0.391873300977,
    0.474716055803,0.49963920208,0.503584240295,0.542481175281,
    0.558981413376,0.60105196321,0.613293558054,0.622940843056,
    0.730460235063,0.740407882409,0.809277726813,0.825316080353,
    0.838094260403,0.88160469859,0.90733691062,0.914978890361,
    0.962063169267,0.972374365046,0.987752344826,1.),.UNSPECIFIED.);
#69 = CARTESIAN_POINT('',(-3.29664161677,-9.277708509766E-02));
#70 = CARTESIAN_POINT('',(-3.090887454831,-0.158274532181));
#71 = CARTESIAN_POINT('',(-2.309229614123,-0.158205603607));
#72 = CARTESIAN_POINT('',(-2.225505619047,-0.148732817292));
#73 = CARTESIAN_POINT('',(-1.991933601861,-0.135813801379));
#74 = CARTESIAN_POINT('',(-1.863389356968,-7.229566008674E-02));
#75 = CARTESIAN_POINT('',(-1.820295214671,-7.850200888806E-02));
#76 = CARTESIAN_POINT('',(-1.693869861686,-0.105673940945));
#77 = CARTESIAN_POINT('',(-1.614265090947,-0.107293284947));
#78 = CARTESIAN_POINT('',(-1.460530169964,-0.100660338323));
#79 = CARTESIAN_POINT('',(-1.356148326308,-0.11640043359));
#80 = CARTESIAN_POINT('',(-1.20871609892,-8.899876271596E-02));
#81 = CARTESIAN_POINT('',(-0.6581865994,-0.129900898878));
#82 = CARTESIAN_POINT('',(-9.529986116428E-02,-8.00259911774E-02));
#83 = CARTESIAN_POINT('',(7.470706394904E-02,-7.968123963356E-02));
#84 = CARTESIAN_POINT('',(8.602544846197E-02,-5.526711542702E-02));
#85 = CARTESIAN_POINT('',(0.351248966232,-6.264546520347E-02));
#86 = CARTESIAN_POINT('',(0.431004729082,-0.142062505471));
#87 = CARTESIAN_POINT('',(0.713849376494,-9.355388062965E-02));
#88 = CARTESIAN_POINT('',(0.793132528924,-6.734413438634E-02));
#89 = CARTESIAN_POINT('',(0.809350869402,-0.131120932003));
#90 = CARTESIAN_POINT('',(1.542354528593,-0.106477735098));
#91 = CARTESIAN_POINT('',(1.565073917991,-4.25387213708E-02));
#92 = CARTESIAN_POINT('',(2.033515533064,-7.796337488041E-02));
#93 = CARTESIAN_POINT('',(2.141631608198,-6.124016933456E-02));
#94 = CARTESIAN_POINT('',(2.207169862921,-0.118704743318));
#95 = CARTESIAN_POINT('',(2.500426241882,-7.300372487563E-02));
#96 = CARTESIAN_POINT('',(2.674132517333,-4.779361350519E-02));
#97 = CARTESIAN_POINT('',(2.726246605724,-4.659219870372E-02));
#98 = CARTESIAN_POINT('',(3.041138140624,-0.109807275755));
#99 = CARTESIAN_POINT('',(3.061902531364,-4.260681468449E-02));
#100 = CARTESIAN_POINT('',(3.095861493341,-0.141855053576));
#101 = CARTESIAN_POINT('',(3.10335838323,-5.864765431087E-02));
#102 = ( GEOMETRIC_REPRESENTATION_CONTEXT(2) 
PARAMETRIC_REPRESENTATION_CONTEXT() REPRESENTATION_CONTEXT('2D SPACE',''
  ) );
#103 = ORIENTED_EDGE('',*,*,#104,.T.);
#104 = EDGE_CURVE('',#24,#105,#107,.T.);
#105 = VERTEX_POINT('',#106);
#106 = CARTESIAN_POINT('',(6.4,0.158647654311,0.));
#107 = SURFACE_CURVE('',#108,(#112),.PCURVE_S1.);
#108 = LINE('',#109,#110);
#109 = CARTESIAN_POINT('',(6.4,4.135234568913E-02,0.));
#110 = VECTOR('',#111,1.);
#111 = DIRECTION('',(0.,1.,0.));
#112 = PCURVE('',#62,#113);
#113 = DEFINITIONAL_REPRESENTATION('',(#114),#118);
#114 = LINE('',#115,#116);
#115 = CARTESIAN_POINT('',(3.10335838323,-5.864765431087E-02));
#116 = VECTOR('',#117,1.);
#117 = DIRECTION('',(0.,1.));
#118 = ( GEOMETRIC_REPRESENTATION_CONTEXT(2) 
PARAMETRIC_REPRESENTATION_CONTEXT() REPRESENTATION_CONTEXT('2D SPACE',''
  ) );
#119 = ORIENTED_EDGE('',*,*,#120,.T.);
#120 = EDGE_CURVE('',#105,#121,#123,.T.);
#121 = VERTEX_POINT('',#122);
#122 = CARTESIAN_POINT('',(0.,0.192777085098,0.));
#123 = SURFACE_CURVE('',#124,(#158),.PCURVE_S1.);
#124 = B_SPLINE_CURVE_WITH_KNOTS('',1,(#125,#126,#127,#128,#129,#130,
    #131,#132,#133,#134,#135,#136,#137,#138,#139,#140,#141,#142,#143,
    #144,#145,#146,#147,#148,#149,#150,#151,#152,#153,#154,#155,#156,
    #157),.UNSPECIFIED.,.F.,.F.,(2,1,1,1,1,1,1,1,1,1,1,1,1,1,1,1,1,1,1,1
    ,1,1,1,1,1,1,1,1,1,1,1,1,2),(0.,1.224765517353E-02,
    2.762563495419E-02,3.793683073305E-02,8.502110963871E-02,
    9.26630893802E-02,0.11839530141,0.161905739597,0.174683919647,
    0.190722273187,0.259592117591,0.269539764937,0.377059156944,
    0.386706441946,0.39894803679,0.441018586624,0.457518824719,
    0.496415759705,0.50036079792,0.525283944197,0.608126699023,
    0.689057025066,0.711040797232,0.726516224906,0.74907480386,
    0.760747314968,0.779704566132,0.786087369197,0.807107124853,
    0.841401229564,0.853753518425,0.968344925273,1.),.UNSPECIFIED.);
#125 = CARTESIAN_POINT('',(6.4,0.158647654311,0.));
#126 = CARTESIAN_POINT('',(6.392503110111,0.241855053576,0.));
#127 = CARTESIAN_POINT('',(6.358544148133,0.142606814684,0.));
#128 = CARTESIAN_POINT('',(6.337779757394,0.209807275755,0.));
#129 = CARTESIAN_POINT('',(6.022888222494,0.146592198704,0.));
#130 = CARTESIAN_POINT('',(5.970774134102,0.147793613505,0.));
#131 = CARTESIAN_POINT('',(5.797067858651,0.173003724876,0.));
#132 = CARTESIAN_POINT('',(5.50381147969,0.218704743318,0.));
#133 = CARTESIAN_POINT('',(5.438273224968,0.161240169335,0.));
#134 = CARTESIAN_POINT('',(5.330157149834,0.17796337488,0.));
#135 = CARTESIAN_POINT('',(4.861715534761,0.142538721371,0.));
#136 = CARTESIAN_POINT('',(4.838996145362,0.206477735098,0.));
#137 = CARTESIAN_POINT('',(4.105992486172,0.231120932003,0.));
#138 = CARTESIAN_POINT('',(4.089774145694,0.167344134386,0.));
#139 = CARTESIAN_POINT('',(4.010490993264,0.19355388063,0.));
#140 = CARTESIAN_POINT('',(3.727646345852,0.242062505471,0.));
#141 = CARTESIAN_POINT('',(3.647890583002,0.162645465203,0.));
#142 = CARTESIAN_POINT('',(3.382667065232,0.155267115427,0.));
#143 = CARTESIAN_POINT('',(3.371348680719,0.179681239634,0.));
#144 = CARTESIAN_POINT('',(3.201341755605,0.180025991177,0.));
#145 = CARTESIAN_POINT('',(2.63845501737,0.229900898878,0.));
#146 = CARTESIAN_POINT('',(2.08792551785,0.188998762716,0.));
#147 = CARTESIAN_POINT('',(1.940493290461,0.21640043359,0.));
#148 = CARTESIAN_POINT('',(1.836111446806,0.200660338323,0.));
#149 = CARTESIAN_POINT('',(1.682376525823,0.207293284947,0.));
#150 = CARTESIAN_POINT('',(1.602771755084,0.205673940945,0.));
#151 = CARTESIAN_POINT('',(1.476346402098,0.178502008888,0.));
#152 = CARTESIAN_POINT('',(1.433252259801,0.172295660087,0.));
#153 = CARTESIAN_POINT('',(1.304708014909,0.235813801379,0.));
#154 = CARTESIAN_POINT('',(1.071135997723,0.248732817292,0.));
#155 = CARTESIAN_POINT('',(0.987412002646,0.258205603607,0.));
#156 = CARTESIAN_POINT('',(0.205754161938,0.258274532181,0.));
#157 = CARTESIAN_POINT('',(0.,0.192777085098,0.));
#158 = PCURVE('',#62,#159);
#159 = DEFINITIONAL_REPRESENTATION('',(#160),#194);
#160 = B_SPLINE_CURVE_WITH_KNOTS('',1,(#161,#162,#163,#164,#165,#166,
    #167,#168,#169,#170,#171,#172,#173,#174,#175,#176,#177,#178,#179,
    #180,#181,#182,#183,#184,#185,#186,#187,#188,#189,#190,#191,#192,
    #193),.UNSPECIFIED.,.F.,.F.,(2,1,1,1,1,1,1,1,1,1,1,1,1,1,1,1,1,1,1,1
    ,1,1,1,1,1,1,1,1,1,1,1,1,2),(0.,1.224765517353E-02,
    2.762563495419E-02,3.793683073305E-02,8.502110963871E-02,
    9.26630893802E-02,0.11839530141,0.161905739597,0.174683919647,
    0.190722273187,0.259592117591,0.269539764937,0.377059156944,
    0.386706441946,0.39894803679,0.441018586624,0.457518824719,
    0.496415759705,0.50036079792,0.525283944197,0.608126699023,
    0.689057025066,0.711040797232,0.726516224906,0.74907480386,
    0.760747314968,0.779704566132,0.786087369197,0.807107124853,
    0.841401229564,0.853753518425,0.968344925273,1.),.UNSPECIFIED.);
#161 = CARTESIAN_POINT('',(3.10335838323,5.864765431087E-02));
#162 = CARTESIAN_POINT('',(3.095861493341,0.141855053576));
#163 = CARTESIAN_POINT('',(3.061902531364,4.260681468449E-02));
#164 = CARTESIAN_POINT('',(3.041138140624,0.109807275755));
#165 = CARTESIAN_POINT('',(2.726246605724,4.659219870372E-02));
#166 = CARTESIAN_POINT('',(2.674132517333,4.779361350519E-02));
#167 = CARTESIAN_POINT('',(2.500426241882,7.300372487563E-02));
#168 = CARTESIAN_POINT('',(2.207169862921,0.118704743318));
#169 = CARTESIAN_POINT('',(2.141631608198,6.124016933456E-02));
#170 = CARTESIAN_POINT('',(2.033515533064,7.796337488041E-02));
#171 = CARTESIAN_POINT('',(1.565073917991,4.25387213708E-02));
#172 = CARTESIAN_POINT('',(1.542354528593,0.106477735098));
#173 = CARTESIAN_POINT('',(0.809350869402,0.131120932003));
#174 = CARTESIAN_POINT('',(0.793132528924,6.734413438634E-02));
#175 = CARTESIAN_POINT('',(0.713849376494,9.355388062965E-02));
#176 = CARTESIAN_POINT('',(0.431004729082,0.142062505471));
#177 = CARTESIAN_POINT('',(0.351248966232,6.264546520347E-02));
#178 = CARTESIAN_POINT('',(8.602544846197E-02,5.526711542702E-02));
#179 = CARTESIAN_POINT('',(7.470706394904E-02,7.968123963356E-02));
#180 = CARTESIAN_POINT('',(-9.529986116428E-02,8.00259911774E-02));
#181 = CARTESIAN_POINT('',(-0.6581865994,0.129900898878));
#182 = CARTESIAN_POINT('',(-1.20871609892,8.899876271596E-02));
#183 = CARTESIAN_POINT('',(-1.356148326308,0.11640043359));
#184 = CARTESIAN_POINT('',(-1.460530169964,0.100660338323));
#185 = CARTESIAN_POINT('',(-1.614265090947,0.107293284947));
#186 = CARTESIAN_POINT('',(-1.693869861686,0.105673940945));
#187 = CARTESIAN_POINT('',(-1.820295214671,7.850200888806E-02));
#188 = CARTESIAN_POINT('',(-1.863389356968,7.229566008674E-02));
#189 = CARTESIAN_POINT('',(-1.991933601861,0.135813801379));
#190 = CARTESIAN_POINT('',(-2.225505619047,0.148732817292));
#191 = CARTESIAN_POINT('',(-2.309229614123,0.158205603607));
#192 = CARTESIAN_POINT('',(-3.090887454831,0.158274532181));
#193 = CARTESIAN_POINT('',(-3.29664161677,9.277708509766E-02));
#194 = ( GEOMETRIC_REPRESENTATION_CONTEXT(2) 
PARAMETRIC_REPRESENTATION_CONTEXT() REPRESENTATION_CONTEXT('2D SPACE',''
  ) );
#195 = ORIENTED_EDGE('',*,*,#196,.T.);
#196 = EDGE_CURVE('',#121,#22,#197,.T.);
#197 = SURFACE_CURVE('',#198,(#202),.PCURVE_S1.);
#198 = LINE('',#199,#200);
#199 = CARTESIAN_POINT('',(0.,0.192777085098,0.));
#200 = VECTOR('',#201,1.);
#201 = DIRECTION('',(0.,-1.,0.));
#202 = PCURVE('',#62,#203);
#203 = DEFINITIONAL_REPRESENTATION('',(#204),#208);
#204 = LINE('',#205,#206);
#205 = CARTESIAN_POINT('',(-3.29664161677,9.277708509766E-02));
#206 = VECTOR('',#207,1.);
#207 = DIRECTION('',(0.,-1.));
#208 = ( GEOMETRIC_REPRESENTATION_CONTEXT(2) 
PARAMETRIC_REPRESENTATION_CONTEXT() REPRESENTATION_CONTEXT('2D SPACE',''
  ) );
#209 = ( GEOMETRIC_REPRESENTATION_CONTEXT(3) 
GLOBAL_UNCERTAINTY_ASSIGNED_CONTEXT((#213)) GLOBAL_UNIT_ASSIGNED_CONTEXT
((#210,#211,#212)) REPRESENTATION_CONTEXT('Context #1',
  '3D Context with UNIT and UNCERTAINTY') );
#210 = ( LENGTH_UNIT() NAMED_UNIT(*) SI_UNIT(.MILLI.,.METRE.) );
#211 = ( NAMED_UNIT(*) PLANE_ANGLE_UNIT() SI_UNIT($,.RADIAN.) );
#212 = ( NAMED_UNIT(*) SI_UNIT($,.STERADIAN.) SOLID_ANGLE_UNIT() );
#213 = UNCERTAINTY_MEASURE_WITH_UNIT(LENGTH_MEASURE(1.E-07),#210,
  'distance_accuracy_value','confusion accuracy');
#214 = PRODUCT_RELATED_PRODUCT_CATEGORY('part',$,(#7));
ENDSEC;
END-ISO-10303-21;
