ISO-10303-21;
HEADER;
FILE_DESCRIPTION(('Open CASCADE Model'),'2;1');
FILE_NAME('Open CASCADE Shape Model','2026-05-28T17:04:49',('Author'),(
    'Open CASCADE'),'Open CASCADE STEP processor 7.9','Open CASCADE 7.9'
  ,'Unknown');
FILE_SCHEMA(('AUTOMOTIVE_DESIGN { 1 0 10303 214 1 1 1 1 }'));
ENDSEC;
DATA;
#1 = APPLICATION_PROTOCOL_DEFINITION('international standard',
  'automotive_design',2000,#2);
#2 = APPLICATION_CONTEXT(
  'core data for automotive mechanical design processes');
#3 = SHAPE_DEFINITION_REPRESENTATION(#4,#10);
#4 = PRODUCT_DEFINITION_SHAPE('','',#5);
#5 = PRODUCT_DEFINITION('design','',#6,#9);
#6 = PRODUCT_DEFINITION_FORMATION('','',#7);
#7 = PRODUCT('Open CASCADE STEP translator 7.9 98',
  'Open CASCADE STEP translator 7.9 98','',(#8));
#8 = PRODUCT_CONTEXT('',#2,'mechanical');
#9 = PRODUCT_DEFINITION_CONTEXT('part definition',#2,'design');
#10 = MANIFOLD_SURFACE_SHAPE_REPRESENTATION('',(#11,#15),#205);
#11 = AXIS2_PLACEMENT_3D('',#12,#13,#14);
#12 = CARTESIAN_POINT('',(0.,0.,0.));
#13 = DIRECTION('',(0.,0.,1.));
#14 = DIRECTION('',(1.,0.,-0.));
#15 = SHELL_BASED_SURFACE_MODEL('',(#16));
#16 = OPEN_SHELL('',(#17));
#17 = ADVANCED_FACE('',(#18),#61,.T.);
#18 = FACE_BOUND('',#19,.T.);
#19 = EDGE_LOOP('',(#20,#101,#117,#191));
#20 = ORIENTED_EDGE('',*,*,#21,.T.);
#21 = EDGE_CURVE('',#22,#24,#26,.T.);
#22 = VERTEX_POINT('',#23);
#23 = CARTESIAN_POINT('',(0.,2.493178726416E-02,0.));
#24 = VERTEX_POINT('',#25);
#25 = CARTESIAN_POINT('',(6.2,-4.032314442933E-02,0.));
#26 = SURFACE_CURVE('',#27,(#60),.PCURVE_S1.);
#27 = B_SPLINE_CURVE_WITH_KNOTS('',1,(#28,#29,#30,#31,#32,#33,#34,#35,
    #36,#37,#38,#39,#40,#41,#42,#43,#44,#45,#46,#47,#48,#49,#50,#51,#52,
    #53,#54,#55,#56,#57,#58,#59),.UNSPECIFIED.,.F.,.F.,(2,1,1,1,1,1,1,1,
    1,1,1,1,1,1,1,1,1,1,1,1,1,1,1,1,1,1,1,1,1,1,1,2),(0.,
    2.581737358521E-02,4.086265942057E-02,6.153752286518E-02,
    8.10643377014E-02,0.103831121761,0.133654116831,0.154963691591,
    0.173814641724,0.235290945717,0.27015100088,0.29202202778,
    0.320884794082,0.465129434805,0.49433995797,0.51938712716,
    0.531117024586,0.587306573778,0.622254952315,0.633433090663,
    0.705830154518,0.768414329959,0.787211247725,0.805204591008,
    0.838493701722,0.84565330662,0.847546171158,0.854287388678,
    0.886761068251,0.960478384778,0.968341004329,1.),.UNSPECIFIED.);
#28 = CARTESIAN_POINT('',(0.,2.493178726416E-02,0.));
#29 = CARTESIAN_POINT('',(0.169347525842,4.395833717379E-02,0.));
#30 = CARTESIAN_POINT('',(0.170795252007,-5.53406869076E-02,0.));
#31 = CARTESIAN_POINT('',(0.260589976878,4.742427730279E-02,0.));
#32 = CARTESIAN_POINT('',(0.379002294633,-3.481272008828E-03,0.));
#33 = CARTESIAN_POINT('',(0.526094722086,2.729176909983E-02,0.));
#34 = CARTESIAN_POINT('',(0.722945082525,2.830312037023E-02,0.));
#35 = CARTESIAN_POINT('',(0.85789829594,-1.135034631634E-02,0.));
#36 = CARTESIAN_POINT('',(0.979911804937,-3.575209406146E-02,0.));
#37 = CARTESIAN_POINT('',(1.385691450659,-3.326153793975E-02,0.));
#38 = CARTESIAN_POINT('',(1.615529761838,-4.425620270323E-02,0.));
#39 = CARTESIAN_POINT('',(1.742278166509,2.485167145052E-02,0.));
#40 = CARTESIAN_POINT('',(1.931660458043,4.109834194191E-03,0.));
#41 = CARTESIAN_POINT('',(2.882200967919,5.88798512136E-02,0.));
#42 = CARTESIAN_POINT('',(3.053499061804,-2.962291477636E-02,0.));
#43 = CARTESIAN_POINT('',(3.20998667986,2.371882654293E-02,0.));
#44 = CARTESIAN_POINT('',(3.280892559275,-7.379223992422E-03,0.));
#45 = CARTESIAN_POINT('',(3.648785415073,3.968396615767E-02,0.));
#46 = CARTESIAN_POINT('',(3.865878277097,-3.832794085612E-02,0.));
#47 = CARTESIAN_POINT('',(3.939661491305,-3.807266631339E-02,0.));
#48 = CARTESIAN_POINT('',(4.417478984252,-4.529434977035E-02,0.));
#49 = CARTESIAN_POINT('',(4.818347046323,5.448756034719E-02,0.));
#50 = CARTESIAN_POINT('',(4.868278042848,-5.9095045173E-02,0.));
#51 = CARTESIAN_POINT('',(4.946512047725,3.026647026724E-02,0.));
#52 = CARTESIAN_POINT('',(5.166119240568,2.286795767432E-02,0.));
#53 = CARTESIAN_POINT('',(5.212824213431,3.007971249715E-02,0.));
#54 = CARTESIAN_POINT('',(5.225126166083,2.789607619602E-02,0.));
#55 = CARTESIAN_POINT('',(5.253573858999,-6.319362732438E-03,0.));
#56 = CARTESIAN_POINT('',(5.464609967,3.122273468355E-02,0.));
#57 = CARTESIAN_POINT('',(5.950845764209,1.274744263195E-02,0.));
#58 = CARTESIAN_POINT('',(5.992152692268,-1.867278989319E-02,0.));
#59 = CARTESIAN_POINT('',(6.2,-4.032314442933E-02,0.));
#60 = PCURVE('',#61,#66);
#61 = PLANE('',#62);
#62 = AXIS2_PLACEMENT_3D('',#63,#64,#65);
#63 = CARTESIAN_POINT('',(3.100234830735,1.E-01,0.));
#64 = DIRECTION('',(0.,0.,1.));
#65 = DIRECTION('',(1.,0.,-0.));
#66 = DEFINITIONAL_REPRESENTATION('',(#67),#100);
#67 = B_SPLINE_CURVE_WITH_KNOTS('',1,(#68,#69,#70,#71,#72,#73,#74,#75,
    #76,#77,#78,#79,#80,#81,#82,#83,#84,#85,#86,#87,#88,#89,#90,#91,#92,
    #93,#94,#95,#96,#97,#98,#99),.UNSPECIFIED.,.F.,.F.,(2,1,1,1,1,1,1,1,
    1,1,1,1,1,1,1,1,1,1,1,1,1,1,1,1,1,1,1,1,1,1,1,2),(0.,
    2.581737358521E-02,4.086265942057E-02,6.153752286518E-02,
    8.10643377014E-02,0.103831121761,0.133654116831,0.154963691591,
    0.173814641724,0.235290945717,0.27015100088,0.29202202778,
    0.320884794082,0.465129434805,0.49433995797,0.51938712716,
    0.531117024586,0.587306573778,0.622254952315,0.633433090663,
    0.705830154518,0.768414329959,0.787211247725,0.805204591008,
    0.838493701722,0.84565330662,0.847546171158,0.854287388678,
    0.886761068251,0.960478384778,0.968341004329,1.),.UNSPECIFIED.);
#68 = CARTESIAN_POINT('',(-3.100234830735,-7.506821273584E-02));
#69 = CARTESIAN_POINT('',(-2.930887304893,-5.604166282621E-02));
#70 = CARTESIAN_POINT('',(-2.929439578728,-0.155340686908));
#71 = CARTESIAN_POINT('',(-2.839644853857,-5.257572269721E-02));
#72 = CARTESIAN_POINT('',(-2.721232536102,-0.103481272009));
#73 = CARTESIAN_POINT('',(-2.574140108649,-7.270823090017E-02));
#74 = CARTESIAN_POINT('',(-2.37728974821,-7.169687962977E-02));
#75 = CARTESIAN_POINT('',(-2.242336534795,-0.111350346316));
#76 = CARTESIAN_POINT('',(-2.120323025798,-0.135752094061));
#77 = CARTESIAN_POINT('',(-1.714543380075,-0.13326153794));
#78 = CARTESIAN_POINT('',(-1.484705068897,-0.144256202703));
#79 = CARTESIAN_POINT('',(-1.357956664225,-7.514832854948E-02));
#80 = CARTESIAN_POINT('',(-1.168574372692,-9.589016580581E-02));
#81 = CARTESIAN_POINT('',(-0.218033862816,-4.11201487864E-02));
#82 = CARTESIAN_POINT('',(-4.673576893071E-02,-0.129622914776));
#83 = CARTESIAN_POINT('',(0.109751849125,-7.628117345707E-02));
#84 = CARTESIAN_POINT('',(0.18065772854,-0.107379223992));
#85 = CARTESIAN_POINT('',(0.548550584338,-6.031603384233E-02));
#86 = CARTESIAN_POINT('',(0.765643446362,-0.138327940856));
#87 = CARTESIAN_POINT('',(0.83942666057,-0.138072666313));
#88 = CARTESIAN_POINT('',(1.317244153517,-0.14529434977));
#89 = CARTESIAN_POINT('',(1.718112215589,-4.551243965281E-02));
#90 = CARTESIAN_POINT('',(1.768043212113,-0.159095045173));
#91 = CARTESIAN_POINT('',(1.84627721699,-6.973352973276E-02));
#92 = CARTESIAN_POINT('',(2.065884409833,-7.713204232568E-02));
#93 = CARTESIAN_POINT('',(2.112589382696,-6.992028750285E-02));
#94 = CARTESIAN_POINT('',(2.124891335348,-7.210392380398E-02));
#95 = CARTESIAN_POINT('',(2.153339028264,-0.106319362732));
#96 = CARTESIAN_POINT('',(2.364375136265,-6.877726531645E-02));
#97 = CARTESIAN_POINT('',(2.850610933474,-8.725255736805E-02));
#98 = CARTESIAN_POINT('',(2.891917861533,-0.118672789893));
#99 = CARTESIAN_POINT('',(3.099765169265,-0.140323144429));
#100 = ( GEOMETRIC_REPRESENTATION_CONTEXT(2) 
PARAMETRIC_REPRESENTATION_CONTEXT() REPRESENTATION_CONTEXT('2D SPACE',''
  ) );
#101 = ORIENTED_EDGE('',*,*,#102,.T.);
#102 = EDGE_CURVE('',#24,#103,#105,.T.);
#103 = VERTEX_POINT('',#104);
#104 = CARTESIAN_POINT('',(6.2,0.240323144429,0.));
#105 = SURFACE_CURVE('',#106,(#110),.PCURVE_S1.);
#106 = LINE('',#107,#108);
#107 = CARTESIAN_POINT('',(6.2,-4.032314442933E-02,0.));
#108 = VECTOR('',#109,1.);
#109 = DIRECTION('',(0.,1.,0.));
#110 = PCURVE('',#61,#111);
#111 = DEFINITIONAL_REPRESENTATION('',(#112),#116);
#112 = LINE('',#113,#114);
#113 = CARTESIAN_POINT('',(3.099765169265,-0.140323144429));
#114 = VECTOR('',#115,1.);
#115 = DIRECTION('',(0.,1.));
#116 = ( GEOMETRIC_REPRESENTATION_CONTEXT(2) 
PARAMETRIC_REPRESENTATION_CONTEXT() REPRESENTATION_CONTEXT('2D SPACE',''
  ) );
#117 = ORIENTED_EDGE('',*,*,#118,.T.);
#118 = EDGE_CURVE('',#103,#119,#121,.T.);
#119 = VERTEX_POINT('',#120);
#120 = CARTESIAN_POINT('',(0.,0.175068212736,0.));
#121 = SURFACE_CURVE('',#122,(#155),.PCURVE_S1.);
#122 = B_SPLINE_CURVE_WITH_KNOTS('',1,(#123,#124,#125,#126,#127,#128,
    #129,#130,#131,#132,#133,#134,#135,#136,#137,#138,#139,#140,#141,
    #142,#143,#144,#145,#146,#147,#148,#149,#150,#151,#152,#153,#154),
  .UNSPECIFIED.,.F.,.F.,(2,1,1,1,1,1,1,1,1,1,1,1,1,1,1,1,1,1,1,1,1,1,1,1
    ,1,1,1,1,1,1,1,2),(0.,3.165899567114E-02,3.952161522223E-02,
    0.113238931749,0.145712611322,0.152453828842,0.15434669338,
    0.161506298278,0.194795408992,0.212788752275,0.231585670041,
    0.294169845482,0.366566909337,0.377745047685,0.412693426222,
    0.468882975414,0.48061287284,0.50566004203,0.534870565195,
    0.679115205918,0.70797797222,0.72984899912,0.764709054283,
    0.826185358276,0.845036308409,0.866345883169,0.896168878239,
    0.918935662299,0.938462477135,0.959137340579,0.974182626415,1.),
  .UNSPECIFIED.);
#123 = CARTESIAN_POINT('',(6.2,0.240323144429,0.));
#124 = CARTESIAN_POINT('',(5.992152692268,0.218672789893,0.));
#125 = CARTESIAN_POINT('',(5.950845764209,0.187252557368,0.));
#126 = CARTESIAN_POINT('',(5.464609967,0.168777265316,0.));
#127 = CARTESIAN_POINT('',(5.253573858999,0.206319362732,0.));
#128 = CARTESIAN_POINT('',(5.225126166083,0.172103923804,0.));
#129 = CARTESIAN_POINT('',(5.212824213431,0.169920287503,0.));
#130 = CARTESIAN_POINT('',(5.166119240568,0.177132042326,0.));
#131 = CARTESIAN_POINT('',(4.946512047725,0.169733529733,0.));
#132 = CARTESIAN_POINT('',(4.868278042848,0.259095045173,0.));
#133 = CARTESIAN_POINT('',(4.818347046323,0.145512439653,0.));
#134 = CARTESIAN_POINT('',(4.417478984252,0.24529434977,0.));
#135 = CARTESIAN_POINT('',(3.939661491305,0.238072666313,0.));
#136 = CARTESIAN_POINT('',(3.865878277097,0.238327940856,0.));
#137 = CARTESIAN_POINT('',(3.648785415073,0.160316033842,0.));
#138 = CARTESIAN_POINT('',(3.280892559275,0.207379223992,0.));
#139 = CARTESIAN_POINT('',(3.20998667986,0.176281173457,0.));
#140 = CARTESIAN_POINT('',(3.053499061804,0.229622914776,0.));
#141 = CARTESIAN_POINT('',(2.882200967919,0.141120148786,0.));
#142 = CARTESIAN_POINT('',(1.931660458043,0.195890165806,0.));
#143 = CARTESIAN_POINT('',(1.742278166509,0.175148328549,0.));
#144 = CARTESIAN_POINT('',(1.615529761838,0.244256202703,0.));
#145 = CARTESIAN_POINT('',(1.385691450659,0.23326153794,0.));
#146 = CARTESIAN_POINT('',(0.979911804937,0.235752094061,0.));
#147 = CARTESIAN_POINT('',(0.85789829594,0.211350346316,0.));
#148 = CARTESIAN_POINT('',(0.722945082525,0.17169687963,0.));
#149 = CARTESIAN_POINT('',(0.526094722086,0.1727082309,0.));
#150 = CARTESIAN_POINT('',(0.379002294633,0.203481272009,0.));
#151 = CARTESIAN_POINT('',(0.260589976878,0.152575722697,0.));
#152 = CARTESIAN_POINT('',(0.170795252007,0.255340686908,0.));
#153 = CARTESIAN_POINT('',(0.169347525842,0.156041662826,0.));
#154 = CARTESIAN_POINT('',(0.,0.175068212736,0.));
#155 = PCURVE('',#61,#156);
#156 = DEFINITIONAL_REPRESENTATION('',(#157),#190);
#157 = B_SPLINE_CURVE_WITH_KNOTS('',1,(#158,#159,#160,#161,#162,#163,
    #164,#165,#166,#167,#168,#169,#170,#171,#172,#173,#174,#175,#176,
    #177,#178,#179,#180,#181,#182,#183,#184,#185,#186,#187,#188,#189),
  .UNSPECIFIED.,.F.,.F.,(2,1,1,1,1,1,1,1,1,1,1,1,1,1,1,1,1,1,1,1,1,1,1,1
    ,1,1,1,1,1,1,1,2),(0.,3.165899567114E-02,3.952161522223E-02,
    0.113238931749,0.145712611322,0.152453828842,0.15434669338,
    0.161506298278,0.194795408992,0.212788752275,0.231585670041,
    0.294169845482,0.366566909337,0.377745047685,0.412693426222,
    0.468882975414,0.48061287284,0.50566004203,0.534870565195,
    0.679115205918,0.70797797222,0.72984899912,0.764709054283,
    0.826185358276,0.845036308409,0.866345883169,0.896168878239,
    0.918935662299,0.938462477135,0.959137340579,0.974182626415,1.),
  .UNSPECIFIED.);
#158 = CARTESIAN_POINT('',(3.099765169265,0.140323144429));
#159 = CARTESIAN_POINT('',(2.891917861533,0.118672789893));
#160 = CARTESIAN_POINT('',(2.850610933474,8.725255736805E-02));
#161 = CARTESIAN_POINT('',(2.364375136265,6.877726531645E-02));
#162 = CARTESIAN_POINT('',(2.153339028264,0.106319362732));
#163 = CARTESIAN_POINT('',(2.124891335348,7.210392380398E-02));
#164 = CARTESIAN_POINT('',(2.112589382696,6.992028750285E-02));
#165 = CARTESIAN_POINT('',(2.065884409833,7.713204232568E-02));
#166 = CARTESIAN_POINT('',(1.84627721699,6.973352973276E-02));
#167 = CARTESIAN_POINT('',(1.768043212113,0.159095045173));
#168 = CARTESIAN_POINT('',(1.718112215589,4.551243965281E-02));
#169 = CARTESIAN_POINT('',(1.317244153517,0.14529434977));
#170 = CARTESIAN_POINT('',(0.83942666057,0.138072666313));
#171 = CARTESIAN_POINT('',(0.765643446362,0.138327940856));
#172 = CARTESIAN_POINT('',(0.548550584338,6.031603384233E-02));
#173 = CARTESIAN_POINT('',(0.18065772854,0.107379223992));
#174 = CARTESIAN_POINT('',(0.109751849125,7.628117345707E-02));
#175 = CARTESIAN_POINT('',(-4.673576893071E-02,0.129622914776));
#176 = CARTESIAN_POINT('',(-0.218033862816,4.11201487864E-02));
#177 = CARTESIAN_POINT('',(-1.168574372692,9.589016580581E-02));
#178 = CARTESIAN_POINT('',(-1.357956664225,7.514832854948E-02));
#179 = CARTESIAN_POINT('',(-1.484705068897,0.144256202703));
#180 = CARTESIAN_POINT('',(-1.714543380075,0.13326153794));
#181 = CARTESIAN_POINT('',(-2.120323025798,0.135752094061));
#182 = CARTESIAN_POINT('',(-2.242336534795,0.111350346316));
#183 = CARTESIAN_POINT('',(-2.37728974821,7.169687962977E-02));
#184 = CARTESIAN_POINT('',(-2.574140108649,7.270823090017E-02));
#185 = CARTESIAN_POINT('',(-2.721232536102,0.103481272009));
#186 = CARTESIAN_POINT('',(-2.839644853857,5.257572269721E-02));
#187 = CARTESIAN_POINT('',(-2.929439578728,0.155340686908));
#188 = CARTESIAN_POINT('',(-2.930887304893,5.604166282621E-02));
#189 = CARTESIAN_POINT('',(-3.100234830735,7.506821273584E-02));
#190 = ( GEOMETRIC_REPRESENTATION_CONTEXT(2) 
PARAMETRIC_REPRESENTATION_CONTEXT() REPRESENTATION_CONTEXT('2D SPACE',''
  ) );
#191 = ORIENTED_EDGE('',*,*,#192,.T.);
#192 = EDGE_CURVE('',#119,#22,#193,.T.);
#193 = SURFACE_CURVE('',#194,(#198),.PCURVE_S1.);
#194 = LINE('',#195,#196);
#195 = CARTESIAN_POINT('',(0.,0.175068212736,0.));
#196 = VECTOR('',#197,1.);
#197 = DIRECTION('',(0.,-1.,0.));
#198 = PCURVE('',#61,#199);
#199 = DEFINITIONAL_REPRESENTATION('',(#200),#204);
#200 = LINE('',#201,#202);
#201 = CARTESIAN_POINT('',(-3.100234830735,7.506821273584E-02));
#202 = VECTOR('',#203,1.);
#203 = DIRECTION('',(0.,-1.));
#204 = ( GEOMETRIC_REPRESENTATION_CONTEXT(2) 
PARAMETRIC_REPRESENTATION_CONTEXT() REPRESENTATION_CONTEXT('2D SPACE',''
  ) );
#205 = ( GEOMETRIC_REPRESENTATION_CONTEXT(3) 
GLOBAL_UNCERTAINTY_ASSIGNED_CONTEXT((#209)) GLOBAL_UNIT_ASSIGNED_CONTEXT
((#206,#207,#208)) REPRESENTATION_CONTEXT('Context #1',
  '3D Context with UNIT and UNCERTAINTY') );
#206 = ( LENGTH_UNIT() NAMED_UNIT(*) SI_UNIT(.MILLI.,.METRE.) );
#207 = ( NAMED_UNIT(*) PLANE_ANGLE_UNIT() SI_UNIT($,.RADIAN.) );
#208 = ( NAMED_UNIT(*) SI_UNIT($,.STERADIAN.) SOLID_ANGLE_UNIT() );
#209 = UNCERTAINTY_MEASURE_WITH_UNIT(LENGTH_MEASURE(1.E-07),#206,
  'distance_accuracy_value','confusion accuracy');
#210 = PRODUCT_RELATED_PRODUCT_CATEGORY('part',$,(#7));
ENDSEC;
END-ISO-10303-21;
