ISO-10303-21;
HEADER;
FILE_DESCRIPTION(('Open CASCADE Model'),'2;1');
FILE_NAME('Open CASCADE Shape Model','2026-05-28T17:04:49',('Author'),(
    'Open CASCADE'),'Open CASCADE STEP processor 7.9','Open CASCADE 7.9'
  ,'Unknown');
FILE_SCHEMA(('AUTOMOTIVE_DESIGN { 1 0 10303 214 1 1 1 1 }'));
ENDSEC;
DATA;
#1 = APPLICATION_PROTOCOL_DEFINITION('international standard',
  'automotive_design',2000,#2);
#2 = APPLICATION_CONTEXT(
  'core data for automotive mechanical design processes');
#3 = SHAPE_DEFINITION_REPRESENTATION(#4,#10);
#4 = PRODUCT_DEFINITION_SHAPE('','',#5);
#5 = PRODUCT_DEFINITION('design','',#6,#9);
#6 = PRODUCT_DEFINITION_FORMATION('','',#7);
#7 = PRODUCT('Open CASCADE STEP translator 7.9 74',
  'Open CASCADE STEP translator 7.9 74','',(#8));
#8 = PRODUCT_CONTEXT('',#2,'mechanical');
#9 = PRODUCT_DEFINITION_CONTEXT('part definition',#2,'design');
#10 = MANIFOLD_SURFACE_SHAPE_REPRESENTATION('',(#11,#15),#197);
#11 = AXIS2_PLACEMENT_3D('',#12,#13,#14);
#12 = CARTESIAN_POINT('',(0.,0.,0.));
#13 = DIRECTION('',(0.,0.,1.));
#14 = DIRECTION('',(1.,0.,-0.));
#15 = SHELL_BASED_SURFACE_MODEL('',(#16));
#16 = OPEN_SHELL('',(#17));
#17 = ADVANCED_FACE('',(#18),#59,.T.);
#18 = FACE_BOUND('',#19,.T.);
#19 = EDGE_LOOP('',(#20,#97,#113,#183));
#20 = ORIENTED_EDGE('',*,*,#21,.T.);
#21 = EDGE_CURVE('',#22,#24,#26,.T.);
#22 = VERTEX_POINT('',#23);
#23 = CARTESIAN_POINT('',(0.,3.900996566751E-02,0.));
#24 = VERTEX_POINT('',#25);
#25 = CARTESIAN_POINT('',(5.8,4.713469849678E-02,0.));
#26 = SURFACE_CURVE('',#27,(#58),.PCURVE_S1.);
#27 = B_SPLINE_CURVE_WITH_KNOTS('',1,(#28,#29,#30,#31,#32,#33,#34,#35,
    #36,#37,#38,#39,#40,#41,#42,#43,#44,#45,#46,#47,#48,#49,#50,#51,#52,
    #53,#54,#55,#56,#57),.UNSPECIFIED.,.F.,.F.,(2,1,1,1,1,1,1,1,1,1,1,1,
    1,1,1,1,1,1,1,1,1,1,1,1,1,1,1,1,1,2),(0.,1.903213319323E-02,
    3.839174177212E-02,4.870625057394E-02,0.109809781047,0.14957550751,
    0.232604845869,0.290347022716,0.299132875386,0.316048532856,
    0.330734154576,0.338084793103,0.382356775823,0.414261960041,
    0.427113869043,0.462109797918,0.493137989925,0.52957189595,
    0.554864023184,0.584415234582,0.650654742415,0.663796003482,
    0.818169343141,0.831665878076,0.844803652302,0.878642800907,
    0.910644713675,0.964891890366,0.969831678255,1.),.UNSPECIFIED.);
#28 = CARTESIAN_POINT('',(0.,3.900996566751E-02,0.));
#29 = CARTESIAN_POINT('',(0.117500808103,4.184306142297E-02,0.));
#30 = CARTESIAN_POINT('',(0.237045940676,4.01362198146E-02,0.));
#31 = CARTESIAN_POINT('',(0.260660140353,-1.902329794209E-02,0.));
#32 = CARTESIAN_POINT('',(0.635885005458,-5.902743824755E-02,0.));
#33 = CARTESIAN_POINT('',(0.864071380241,3.174297955179E-02,0.));
#34 = CARTESIAN_POINT('',(1.370482588798,-4.86740876481E-02,0.));
#35 = CARTESIAN_POINT('',(1.719047434999,2.656601289502E-02,0.));
#36 = CARTESIAN_POINT('',(1.750355515725,-1.774799041504E-02,0.));
#37 = CARTESIAN_POINT('',(1.825189607077,5.5140125768E-02,0.));
#38 = CARTESIAN_POINT('',(1.89759097916,5.215230508573E-04,0.));
#39 = CARTESIAN_POINT('',(1.938785787943,-1.854839595348E-02,0.));
#40 = CARTESIAN_POINT('',(2.211823629208,-4.358373266715E-03,0.));
#41 = CARTESIAN_POINT('',(2.405574500139,3.145975381419E-02,0.));
#42 = CARTESIAN_POINT('',(2.44128785693,-3.941963379215E-02,0.));
#43 = CARTESIAN_POINT('',(2.656739541387,-5.641638134859E-02,0.));
#44 = CARTESIAN_POINT('',(2.838283340416,4.896468516952E-03,0.));
#45 = CARTESIAN_POINT('',(3.062283175418,-1.631031182271E-02,0.));
#46 = CARTESIAN_POINT('',(3.21737323954,-3.484959220147E-02,0.));
#47 = CARTESIAN_POINT('',(3.387567387637,3.102131272538E-02,0.));
#48 = CARTESIAN_POINT('',(3.789747909621,-4.373404583145E-02,0.));
#49 = CARTESIAN_POINT('',(3.830622983262,2.63758913628E-02,0.));
#50 = CARTESIAN_POINT('',(4.782114892613,-3.309969642183E-02,0.));
#51 = CARTESIAN_POINT('',(4.806677727324,4.654809210883E-02,0.));
#52 = CARTESIAN_POINT('',(4.885005037943,2.53935955903E-02,0.));
#53 = CARTESIAN_POINT('',(5.09189990421,-4.034392072784E-03,0.));
#54 = CARTESIAN_POINT('',(5.289528355915,-2.990651484518E-03,0.));
#55 = CARTESIAN_POINT('',(5.622252554452,-4.205174213836E-02,0.));
#56 = CARTESIAN_POINT('',(5.647251624405,-5.953527091663E-02,0.));
#57 = CARTESIAN_POINT('',(5.8,4.713469849678E-02,0.));
#58 = PCURVE('',#59,#64);
#59 = PLANE('',#60);
#60 = AXIS2_PLACEMENT_3D('',#61,#62,#63);
#61 = CARTESIAN_POINT('',(2.897412623257,0.1,0.));
#62 = DIRECTION('',(0.,0.,1.));
#63 = DIRECTION('',(1.,0.,-0.));
#64 = DEFINITIONAL_REPRESENTATION('',(#65),#96);
#65 = B_SPLINE_CURVE_WITH_KNOTS('',1,(#66,#67,#68,#69,#70,#71,#72,#73,
    #74,#75,#76,#77,#78,#79,#80,#81,#82,#83,#84,#85,#86,#87,#88,#89,#90,
    #91,#92,#93,#94,#95),.UNSPECIFIED.,.F.,.F.,(2,1,1,1,1,1,1,1,1,1,1,1,
    1,1,1,1,1,1,1,1,1,1,1,1,1,1,1,1,1,2),(0.,1.903213319323E-02,
    3.839174177212E-02,4.870625057394E-02,0.109809781047,0.14957550751,
    0.232604845869,0.290347022716,0.299132875386,0.316048532856,
    0.330734154576,0.338084793103,0.382356775823,0.414261960041,
    0.427113869043,0.462109797918,0.493137989925,0.52957189595,
    0.554864023184,0.584415234582,0.650654742415,0.663796003482,
    0.818169343141,0.831665878076,0.844803652302,0.878642800907,
    0.910644713675,0.964891890366,0.969831678255,1.),.UNSPECIFIED.);
#66 = CARTESIAN_POINT('',(-2.897412623257,-6.099003433249E-02));
#67 = CARTESIAN_POINT('',(-2.779911815154,-5.815693857703E-02));
#68 = CARTESIAN_POINT('',(-2.660366682581,-5.98637801854E-02));
#69 = CARTESIAN_POINT('',(-2.636752482903,-0.119023297942));
#70 = CARTESIAN_POINT('',(-2.261527617799,-0.159027438248));
#71 = CARTESIAN_POINT('',(-2.033341243016,-6.825702044821E-02));
#72 = CARTESIAN_POINT('',(-1.526930034458,-0.148674087648));
#73 = CARTESIAN_POINT('',(-1.178365188257,-7.343398710498E-02));
#74 = CARTESIAN_POINT('',(-1.147057107532,-0.117747990415));
#75 = CARTESIAN_POINT('',(-1.07222301618,-4.4859874232E-02));
#76 = CARTESIAN_POINT('',(-0.999821644097,-9.947847694914E-02));
#77 = CARTESIAN_POINT('',(-0.958626835313,-0.118548395953));
#78 = CARTESIAN_POINT('',(-0.685588994049,-0.104358373267));
#79 = CARTESIAN_POINT('',(-0.491838123117,-6.854024618581E-02));
#80 = CARTESIAN_POINT('',(-0.456124766327,-0.139419633792));
#81 = CARTESIAN_POINT('',(-0.24067308187,-0.156416381349));
#82 = CARTESIAN_POINT('',(-5.912928284123E-02,-9.510353148305E-02));
#83 = CARTESIAN_POINT('',(0.164870552161,-0.116310311823));
#84 = CARTESIAN_POINT('',(0.319960616283,-0.134849592201));
#85 = CARTESIAN_POINT('',(0.49015476438,-6.897868727462E-02));
#86 = CARTESIAN_POINT('',(0.892335286364,-0.143734045831));
#87 = CARTESIAN_POINT('',(0.933210360005,-7.36241086372E-02));
#88 = CARTESIAN_POINT('',(1.884702269356,-0.133099696422));
#89 = CARTESIAN_POINT('',(1.909265104067,-5.345190789117E-02));
#90 = CARTESIAN_POINT('',(1.987592414686,-7.46064044097E-02));
#91 = CARTESIAN_POINT('',(2.194487280954,-0.104034392073));
#92 = CARTESIAN_POINT('',(2.392115732658,-0.102990651485));
#93 = CARTESIAN_POINT('',(2.724839931195,-0.142051742138));
#94 = CARTESIAN_POINT('',(2.749839001148,-0.159535270917));
#95 = CARTESIAN_POINT('',(2.902587376743,-5.286530150322E-02));
#96 = ( GEOMETRIC_REPRESENTATION_CONTEXT(2) 
PARAMETRIC_REPRESENTATION_CONTEXT() REPRESENTATION_CONTEXT('2D SPACE',''
  ) );
#97 = ORIENTED_EDGE('',*,*,#98,.T.);
#98 = EDGE_CURVE('',#24,#99,#101,.T.);
#99 = VERTEX_POINT('',#100);
#100 = CARTESIAN_POINT('',(5.8,0.152865301503,0.));
#101 = SURFACE_CURVE('',#102,(#106),.PCURVE_S1.);
#102 = LINE('',#103,#104);
#103 = CARTESIAN_POINT('',(5.8,4.713469849678E-02,0.));
#104 = VECTOR('',#105,1.);
#105 = DIRECTION('',(0.,1.,0.));
#106 = PCURVE('',#59,#107);
#107 = DEFINITIONAL_REPRESENTATION('',(#108),#112);
#108 = LINE('',#109,#110);
#109 = CARTESIAN_POINT('',(2.902587376743,-5.286530150322E-02));
#110 = VECTOR('',#111,1.);
#111 = DIRECTION('',(0.,1.));
#112 = ( GEOMETRIC_REPRESENTATION_CONTEXT(2) 
PARAMETRIC_REPRESENTATION_CONTEXT() REPRESENTATION_CONTEXT('2D SPACE',''
  ) );
#113 = ORIENTED_EDGE('',*,*,#114,.T.);
#114 = EDGE_CURVE('',#99,#115,#117,.T.);
#115 = VERTEX_POINT('',#116);
#116 = CARTESIAN_POINT('',(0.,0.160990034332,0.));
#117 = SURFACE_CURVE('',#118,(#149),.PCURVE_S1.);
#118 = B_SPLINE_CURVE_WITH_KNOTS('',1,(#119,#120,#121,#122,#123,#124,
    #125,#126,#127,#128,#129,#130,#131,#132,#133,#134,#135,#136,#137,
    #138,#139,#140,#141,#142,#143,#144,#145,#146,#147,#148),
  .UNSPECIFIED.,.F.,.F.,(2,1,1,1,1,1,1,1,1,1,1,1,1,1,1,1,1,1,1,1,1,1,1,1
    ,1,1,1,1,1,2),(0.,3.016832174456E-02,3.510810963357E-02,
    8.93552863251E-02,0.121357199093,0.155196347698,0.168334121924,
    0.181830656859,0.336203996518,0.349345257585,0.415584765418,
    0.445135976816,0.47042810405,0.506862010075,0.537890202082,
    0.572886130957,0.585738039959,0.617643224177,0.661915206897,
    0.669265845424,0.683951467144,0.700867124614,0.709652977284,
    0.767395154131,0.85042449249,0.890190218953,0.951293749426,
    0.961608258228,0.980967866807,1.),.UNSPECIFIED.);
#119 = CARTESIAN_POINT('',(5.8,0.152865301503,0.));
#120 = CARTESIAN_POINT('',(5.647251624405,0.259535270917,0.));
#121 = CARTESIAN_POINT('',(5.622252554452,0.242051742138,0.));
#122 = CARTESIAN_POINT('',(5.289528355915,0.202990651485,0.));
#123 = CARTESIAN_POINT('',(5.09189990421,0.204034392073,0.));
#124 = CARTESIAN_POINT('',(4.885005037943,0.17460640441,0.));
#125 = CARTESIAN_POINT('',(4.806677727324,0.153451907891,0.));
#126 = CARTESIAN_POINT('',(4.782114892613,0.233099696422,0.));
#127 = CARTESIAN_POINT('',(3.830622983262,0.173624108637,0.));
#128 = CARTESIAN_POINT('',(3.789747909621,0.243734045831,0.));
#129 = CARTESIAN_POINT('',(3.387567387637,0.168978687275,0.));
#130 = CARTESIAN_POINT('',(3.21737323954,0.234849592201,0.));
#131 = CARTESIAN_POINT('',(3.062283175418,0.216310311823,0.));
#132 = CARTESIAN_POINT('',(2.838283340416,0.195103531483,0.));
#133 = CARTESIAN_POINT('',(2.656739541387,0.256416381349,0.));
#134 = CARTESIAN_POINT('',(2.44128785693,0.239419633792,0.));
#135 = CARTESIAN_POINT('',(2.405574500139,0.168540246186,0.));
#136 = CARTESIAN_POINT('',(2.211823629208,0.204358373267,0.));
#137 = CARTESIAN_POINT('',(1.938785787943,0.218548395953,0.));
#138 = CARTESIAN_POINT('',(1.89759097916,0.199478476949,0.));
#139 = CARTESIAN_POINT('',(1.825189607077,0.144859874232,0.));
#140 = CARTESIAN_POINT('',(1.750355515725,0.217747990415,0.));
#141 = CARTESIAN_POINT('',(1.719047434999,0.173433987105,0.));
#142 = CARTESIAN_POINT('',(1.370482588798,0.248674087648,0.));
#143 = CARTESIAN_POINT('',(0.864071380241,0.168257020448,0.));
#144 = CARTESIAN_POINT('',(0.635885005458,0.259027438248,0.));
#145 = CARTESIAN_POINT('',(0.260660140353,0.219023297942,0.));
#146 = CARTESIAN_POINT('',(0.237045940676,0.159863780185,0.));
#147 = CARTESIAN_POINT('',(0.117500808103,0.158156938577,0.));
#148 = CARTESIAN_POINT('',(0.,0.160990034332,0.));
#149 = PCURVE('',#59,#150);
#150 = DEFINITIONAL_REPRESENTATION('',(#151),#182);
#151 = B_SPLINE_CURVE_WITH_KNOTS('',1,(#152,#153,#154,#155,#156,#157,
    #158,#159,#160,#161,#162,#163,#164,#165,#166,#167,#168,#169,#170,
    #171,#172,#173,#174,#175,#176,#177,#178,#179,#180,#181),
  .UNSPECIFIED.,.F.,.F.,(2,1,1,1,1,1,1,1,1,1,1,1,1,1,1,1,1,1,1,1,1,1,1,1
    ,1,1,1,1,1,2),(0.,3.016832174456E-02,3.510810963357E-02,
    8.93552863251E-02,0.121357199093,0.155196347698,0.168334121924,
    0.181830656859,0.336203996518,0.349345257585,0.415584765418,
    0.445135976816,0.47042810405,0.506862010075,0.537890202082,
    0.572886130957,0.585738039959,0.617643224177,0.661915206897,
    0.669265845424,0.683951467144,0.700867124614,0.709652977284,
    0.767395154131,0.85042449249,0.890190218953,0.951293749426,
    0.961608258228,0.980967866807,1.),.UNSPECIFIED.);
#152 = CARTESIAN_POINT('',(2.902587376743,5.286530150322E-02));
#153 = CARTESIAN_POINT('',(2.749839001148,0.159535270917));
#154 = CARTESIAN_POINT('',(2.724839931195,0.142051742138));
#155 = CARTESIAN_POINT('',(2.392115732658,0.102990651485));
#156 = CARTESIAN_POINT('',(2.194487280954,0.104034392073));
#157 = CARTESIAN_POINT('',(1.987592414686,7.46064044097E-02));
#158 = CARTESIAN_POINT('',(1.909265104067,5.345190789117E-02));
#159 = CARTESIAN_POINT('',(1.884702269356,0.133099696422));
#160 = CARTESIAN_POINT('',(0.933210360005,7.36241086372E-02));
#161 = CARTESIAN_POINT('',(0.892335286364,0.143734045831));
#162 = CARTESIAN_POINT('',(0.49015476438,6.897868727462E-02));
#163 = CARTESIAN_POINT('',(0.319960616283,0.134849592201));
#164 = CARTESIAN_POINT('',(0.164870552161,0.116310311823));
#165 = CARTESIAN_POINT('',(-5.912928284123E-02,9.510353148305E-02));
#166 = CARTESIAN_POINT('',(-0.24067308187,0.156416381349));
#167 = CARTESIAN_POINT('',(-0.456124766327,0.139419633792));
#168 = CARTESIAN_POINT('',(-0.491838123117,6.854024618581E-02));
#169 = CARTESIAN_POINT('',(-0.685588994049,0.104358373267));
#170 = CARTESIAN_POINT('',(-0.958626835313,0.118548395953));
#171 = CARTESIAN_POINT('',(-0.999821644097,9.947847694914E-02));
#172 = CARTESIAN_POINT('',(-1.07222301618,4.4859874232E-02));
#173 = CARTESIAN_POINT('',(-1.147057107532,0.117747990415));
#174 = CARTESIAN_POINT('',(-1.178365188257,7.343398710498E-02));
#175 = CARTESIAN_POINT('',(-1.526930034458,0.148674087648));
#176 = CARTESIAN_POINT('',(-2.033341243016,6.825702044821E-02));
#177 = CARTESIAN_POINT('',(-2.261527617799,0.159027438248));
#178 = CARTESIAN_POINT('',(-2.636752482903,0.119023297942));
#179 = CARTESIAN_POINT('',(-2.660366682581,5.98637801854E-02));
#180 = CARTESIAN_POINT('',(-2.779911815154,5.815693857703E-02));
#181 = CARTESIAN_POINT('',(-2.897412623257,6.099003433249E-02));
#182 = ( GEOMETRIC_REPRESENTATION_CONTEXT(2) 
PARAMETRIC_REPRESENTATION_CONTEXT() REPRESENTATION_CONTEXT('2D SPACE',''
  ) );
#183 = ORIENTED_EDGE('',*,*,#184,.T.);
#184 = EDGE_CURVE('',#115,#22,#185,.T.);
#185 = SURFACE_CURVE('',#186,(#190),.PCURVE_S1.);
#186 = LINE('',#187,#188);
#187 = CARTESIAN_POINT('',(0.,0.160990034332,0.));
#188 = VECTOR('',#189,1.);
#189 = DIRECTION('',(0.,-1.,0.));
#190 = PCURVE('',#59,#191);
#191 = DEFINITIONAL_REPRESENTATION('',(#192),#196);
#192 = LINE('',#193,#194);
#193 = CARTESIAN_POINT('',(-2.897412623257,6.099003433249E-02));
#194 = VECTOR('',#195,1.);
#195 = DIRECTION('',(0.,-1.));
#196 = ( GEOMETRIC_REPRESENTATION_CONTEXT(2) 
PARAMETRIC_REPRESENTATION_CONTEXT() REPRESENTATION_CONTEXT('2D SPACE',''
  ) );
#197 = ( GEOMETRIC_REPRESENTATION_CONTEXT(3) 
GLOBAL_UNCERTAINTY_ASSIGNED_CONTEXT((#201)) GLOBAL_UNIT_ASSIGNED_CONTEXT
((#198,#199,#200)) REPRESENTATION_CONTEXT('Context #1',
  '3D Context with UNIT and UNCERTAINTY') );
#198 = ( LENGTH_UNIT() NAMED_UNIT(*) SI_UNIT(.MILLI.,.METRE.) );
#199 = ( NAMED_UNIT(*) PLANE_ANGLE_UNIT() SI_UNIT($,.RADIAN.) );
#200 = ( NAMED_UNIT(*) SI_UNIT($,.STERADIAN.) SOLID_ANGLE_UNIT() );
#201 = UNCERTAINTY_MEASURE_WITH_UNIT(LENGTH_MEASURE(1.E-07),#198,
  'distance_accuracy_value','confusion accuracy');
#202 = PRODUCT_RELATED_PRODUCT_CATEGORY('part',$,(#7));
ENDSEC;
END-ISO-10303-21;
