ISO-10303-21;
HEADER;
FILE_DESCRIPTION(('Open CASCADE Model'),'2;1');
FILE_NAME('Open CASCADE Shape Model','2026-05-29T14:30:30',('Author'),(
    'Open CASCADE'),'Open CASCADE STEP processor 7.9','Open CASCADE 7.9'
  ,'Unknown');
FILE_SCHEMA(('AUTOMOTIVE_DESIGN { 1 0 10303 214 1 1 1 1 }'));
ENDSEC;
DATA;
#1 = APPLICATION_PROTOCOL_DEFINITION('international standard',
  'automotive_design',2000,#2);
#2 = APPLICATION_CONTEXT(
  'core data for automotive mechanical design processes');
#3 = SHAPE_DEFINITION_REPRESENTATION(#4,#10);
#4 = PRODUCT_DEFINITION_SHAPE('','',#5);
#5 = PRODUCT_DEFINITION('design','',#6,#9);
#6 = PRODUCT_DEFINITION_FORMATION('','',#7);
#7 = PRODUCT('Open CASCADE STEP translator 7.9 91',
  'Open CASCADE STEP translator 7.9 91','',(#8));
#8 = PRODUCT_CONTEXT('',#2,'mechanical');
#9 = PRODUCT_DEFINITION_CONTEXT('part definition',#2,'design');
#10 = MANIFOLD_SURFACE_SHAPE_REPRESENTATION('',(#11,#15),#121);
#11 = AXIS2_PLACEMENT_3D('',#12,#13,#14);
#12 = CARTESIAN_POINT('',(0.,0.,0.));
#13 = DIRECTION('',(0.,0.,1.));
#14 = DIRECTION('',(1.,0.,-0.));
#15 = SHELL_BASED_SURFACE_MODEL('',(#16));
#16 = OPEN_SHELL('',(#17));
#17 = ADVANCED_FACE('',(#18),#40,.T.);
#18 = FACE_BOUND('',#19,.T.);
#19 = EDGE_LOOP('',(#20,#59,#75,#107));
#20 = ORIENTED_EDGE('',*,*,#21,.T.);
#21 = EDGE_CURVE('',#22,#24,#26,.T.);
#22 = VERTEX_POINT('',#23);
#23 = CARTESIAN_POINT('',(0.,-9.936369825688,0.));
#24 = VERTEX_POINT('',#25);
#25 = CARTESIAN_POINT('',(1.5E+03,4.059503844063,0.));
#26 = SURFACE_CURVE('',#27,(#39),.PCURVE_S1.);
#27 = B_SPLINE_CURVE_WITH_KNOTS('',1,(#28,#29,#30,#31,#32,#33,#34,#35,
    #36,#37,#38),.UNSPECIFIED.,.F.,.F.,(2,1,1,1,1,1,1,1,1,1,2),(0.,
    0.113166414122,0.287365021145,0.372435384299,0.586467961233,
    0.635524197546,0.680073264275,0.772702950574,0.798226501546,
    0.86068827364,1.),.UNSPECIFIED.);
#28 = CARTESIAN_POINT('',(0.,-9.936369825688,0.));
#29 = CARTESIAN_POINT('',(171.95320295336,-24.89835922998,0.));
#30 = CARTESIAN_POINT('',(437.62573388674,-27.94677440938,0.));
#31 = CARTESIAN_POINT('',(567.07104121999,-19.05352388274,0.));
#32 = CARTESIAN_POINT('',(888.88358840891,35.748207346973,0.));
#33 = CARTESIAN_POINT('',(955.78612803883,2.247980039608,0.));
#34 = CARTESIAN_POINT('',(1.022743310606E+03,-9.306536173885,0.));
#35 = CARTESIAN_POINT('',(1.160303641516E+03,22.899056507149,0.));
#36 = CARTESIAN_POINT('',(1.19467828742E+03,41.17033641179,0.));
#37 = CARTESIAN_POINT('',(1.288542143866E+03,24.876871121156,0.));
#38 = CARTESIAN_POINT('',(1.5E+03,4.059503844063,0.));
#39 = PCURVE('',#40,#45);
#40 = PLANE('',#41);
#41 = AXIS2_PLACEMENT_3D('',#42,#43,#44);
#42 = CARTESIAN_POINT('',(747.05764810167,75.,0.));
#43 = DIRECTION('',(0.,0.,1.));
#44 = DIRECTION('',(1.,0.,-0.));
#45 = DEFINITIONAL_REPRESENTATION('',(#46),#58);
#46 = B_SPLINE_CURVE_WITH_KNOTS('',1,(#47,#48,#49,#50,#51,#52,#53,#54,
    #55,#56,#57),.UNSPECIFIED.,.F.,.F.,(2,1,1,1,1,1,1,1,1,1,2),(0.,
    0.113166414122,0.287365021145,0.372435384299,0.586467961233,
    0.635524197546,0.680073264275,0.772702950574,0.798226501546,
    0.86068827364,1.),.UNSPECIFIED.);
#47 = CARTESIAN_POINT('',(-747.0576481016,-84.93636982568));
#48 = CARTESIAN_POINT('',(-575.1044451483,-99.89835922998));
#49 = CARTESIAN_POINT('',(-309.4319142149,-102.9467744093));
#50 = CARTESIAN_POINT('',(-179.9866068816,-94.05352388274));
#51 = CARTESIAN_POINT('',(141.82594030724,-39.25179265302));
#52 = CARTESIAN_POINT('',(208.72847993716,-72.75201996039));
#53 = CARTESIAN_POINT('',(275.68566250386,-84.30653617388));
#54 = CARTESIAN_POINT('',(413.24599341415,-52.10094349285));
#55 = CARTESIAN_POINT('',(447.6206393184,-33.82966358821));
#56 = CARTESIAN_POINT('',(541.48449576447,-50.12312887884));
#57 = CARTESIAN_POINT('',(752.94235189833,-70.94049615593));
#58 = ( GEOMETRIC_REPRESENTATION_CONTEXT(2) 
PARAMETRIC_REPRESENTATION_CONTEXT() REPRESENTATION_CONTEXT('2D SPACE',''
  ) );
#59 = ORIENTED_EDGE('',*,*,#60,.T.);
#60 = EDGE_CURVE('',#24,#61,#63,.T.);
#61 = VERTEX_POINT('',#62);
#62 = CARTESIAN_POINT('',(1.5E+03,145.94049615593,0.));
#63 = SURFACE_CURVE('',#64,(#68),.PCURVE_S1.);
#64 = LINE('',#65,#66);
#65 = CARTESIAN_POINT('',(1.5E+03,4.059503844063,0.));
#66 = VECTOR('',#67,1.);
#67 = DIRECTION('',(0.,1.,0.));
#68 = PCURVE('',#40,#69);
#69 = DEFINITIONAL_REPRESENTATION('',(#70),#74);
#70 = LINE('',#71,#72);
#71 = CARTESIAN_POINT('',(752.94235189833,-70.94049615593));
#72 = VECTOR('',#73,1.);
#73 = DIRECTION('',(0.,1.));
#74 = ( GEOMETRIC_REPRESENTATION_CONTEXT(2) 
PARAMETRIC_REPRESENTATION_CONTEXT() REPRESENTATION_CONTEXT('2D SPACE',''
  ) );
#75 = ORIENTED_EDGE('',*,*,#76,.T.);
#76 = EDGE_CURVE('',#61,#77,#79,.T.);
#77 = VERTEX_POINT('',#78);
#78 = CARTESIAN_POINT('',(0.,159.93636982568,0.));
#79 = SURFACE_CURVE('',#80,(#92),.PCURVE_S1.);
#80 = B_SPLINE_CURVE_WITH_KNOTS('',1,(#81,#82,#83,#84,#85,#86,#87,#88,
    #89,#90,#91),.UNSPECIFIED.,.F.,.F.,(2,1,1,1,1,1,1,1,1,1,2),(0.,
    0.13931172636,0.201773498454,0.227297049426,0.319926735725,
    0.364475802454,0.413532038767,0.627564615701,0.712634978855,
    0.886833585878,1.),.UNSPECIFIED.);
#81 = CARTESIAN_POINT('',(1.5E+03,145.94049615593,0.));
#82 = CARTESIAN_POINT('',(1.288542143866E+03,125.12312887884,0.));
#83 = CARTESIAN_POINT('',(1.19467828742E+03,108.82966358821,0.));
#84 = CARTESIAN_POINT('',(1.160303641516E+03,127.10094349285,0.));
#85 = CARTESIAN_POINT('',(1.022743310606E+03,159.30653617388,0.));
#86 = CARTESIAN_POINT('',(955.78612803883,147.75201996039,0.));
#87 = CARTESIAN_POINT('',(888.88358840891,114.25179265302,0.));
#88 = CARTESIAN_POINT('',(567.07104121999,169.05352388274,0.));
#89 = CARTESIAN_POINT('',(437.62573388674,177.94677440938,0.));
#90 = CARTESIAN_POINT('',(171.95320295336,174.89835922998,0.));
#91 = CARTESIAN_POINT('',(0.,159.93636982568,0.));
#92 = PCURVE('',#40,#93);
#93 = DEFINITIONAL_REPRESENTATION('',(#94),#106);
#94 = B_SPLINE_CURVE_WITH_KNOTS('',1,(#95,#96,#97,#98,#99,#100,#101,#102
    ,#103,#104,#105),.UNSPECIFIED.,.F.,.F.,(2,1,1,1,1,1,1,1,1,1,2),(0.,
    0.13931172636,0.201773498454,0.227297049426,0.319926735725,
    0.364475802454,0.413532038767,0.627564615701,0.712634978855,
    0.886833585878,1.),.UNSPECIFIED.);
#95 = CARTESIAN_POINT('',(752.94235189833,70.940496155937));
#96 = CARTESIAN_POINT('',(541.48449576447,50.123128878844));
#97 = CARTESIAN_POINT('',(447.6206393184,33.82966358821));
#98 = CARTESIAN_POINT('',(413.24599341415,52.100943492851));
#99 = CARTESIAN_POINT('',(275.68566250386,84.306536173885));
#100 = CARTESIAN_POINT('',(208.72847993716,72.752019960392));
#101 = CARTESIAN_POINT('',(141.82594030724,39.251792653027));
#102 = CARTESIAN_POINT('',(-179.9866068816,94.053523882745));
#103 = CARTESIAN_POINT('',(-309.4319142149,102.94677440938));
#104 = CARTESIAN_POINT('',(-575.1044451483,99.898359229984));
#105 = CARTESIAN_POINT('',(-747.0576481016,84.936369825688));
#106 = ( GEOMETRIC_REPRESENTATION_CONTEXT(2) 
PARAMETRIC_REPRESENTATION_CONTEXT() REPRESENTATION_CONTEXT('2D SPACE',''
  ) );
#107 = ORIENTED_EDGE('',*,*,#108,.T.);
#108 = EDGE_CURVE('',#77,#22,#109,.T.);
#109 = SURFACE_CURVE('',#110,(#114),.PCURVE_S1.);
#110 = LINE('',#111,#112);
#111 = CARTESIAN_POINT('',(0.,159.93636982568,0.));
#112 = VECTOR('',#113,1.);
#113 = DIRECTION('',(0.,-1.,0.));
#114 = PCURVE('',#40,#115);
#115 = DEFINITIONAL_REPRESENTATION('',(#116),#120);
#116 = LINE('',#117,#118);
#117 = CARTESIAN_POINT('',(-747.0576481016,84.936369825688));
#118 = VECTOR('',#119,1.);
#119 = DIRECTION('',(0.,-1.));
#120 = ( GEOMETRIC_REPRESENTATION_CONTEXT(2) 
PARAMETRIC_REPRESENTATION_CONTEXT() REPRESENTATION_CONTEXT('2D SPACE',''
  ) );
#121 = ( GEOMETRIC_REPRESENTATION_CONTEXT(3) 
GLOBAL_UNCERTAINTY_ASSIGNED_CONTEXT((#125)) GLOBAL_UNIT_ASSIGNED_CONTEXT
((#122,#123,#124)) REPRESENTATION_CONTEXT('Context #1',
  '3D Context with UNIT and UNCERTAINTY') );
#122 = ( LENGTH_UNIT() NAMED_UNIT(*) SI_UNIT(.MILLI.,.METRE.) );
#123 = ( NAMED_UNIT(*) PLANE_ANGLE_UNIT() SI_UNIT($,.RADIAN.) );
#124 = ( NAMED_UNIT(*) SI_UNIT($,.STERADIAN.) SOLID_ANGLE_UNIT() );
#125 = UNCERTAINTY_MEASURE_WITH_UNIT(LENGTH_MEASURE(1.E-07),#122,
  'distance_accuracy_value','confusion accuracy');
#126 = PRODUCT_RELATED_PRODUCT_CATEGORY('part',$,(#7));
ENDSEC;
END-ISO-10303-21;
