ISO-10303-21;
HEADER;
FILE_DESCRIPTION(('Open CASCADE Model'),'2;1');
FILE_NAME('Open CASCADE Shape Model','2026-05-29T14:30:30',('Author'),(
    'Open CASCADE'),'Open CASCADE STEP processor 7.9','Open CASCADE 7.9'
  ,'Unknown');
FILE_SCHEMA(('AUTOMOTIVE_DESIGN { 1 0 10303 214 1 1 1 1 }'));
ENDSEC;
DATA;
#1 = APPLICATION_PROTOCOL_DEFINITION('international standard',
  'automotive_design',2000,#2);
#2 = APPLICATION_CONTEXT(
  'core data for automotive mechanical design processes');
#3 = SHAPE_DEFINITION_REPRESENTATION(#4,#10);
#4 = PRODUCT_DEFINITION_SHAPE('','',#5);
#5 = PRODUCT_DEFINITION('design','',#6,#9);
#6 = PRODUCT_DEFINITION_FORMATION('','',#7);
#7 = PRODUCT('Open CASCADE STEP translator 7.9 14',
  'Open CASCADE STEP translator 7.9 14','',(#8));
#8 = PRODUCT_CONTEXT('',#2,'mechanical');
#9 = PRODUCT_DEFINITION_CONTEXT('part definition',#2,'design');
#10 = MANIFOLD_SURFACE_SHAPE_REPRESENTATION('',(#11,#15),#121);
#11 = AXIS2_PLACEMENT_3D('',#12,#13,#14);
#12 = CARTESIAN_POINT('',(0.,0.,0.));
#13 = DIRECTION('',(0.,0.,1.));
#14 = DIRECTION('',(1.,0.,-0.));
#15 = SHELL_BASED_SURFACE_MODEL('',(#16));
#16 = OPEN_SHELL('',(#17));
#17 = ADVANCED_FACE('',(#18),#40,.T.);
#18 = FACE_BOUND('',#19,.T.);
#19 = EDGE_LOOP('',(#20,#59,#75,#107));
#20 = ORIENTED_EDGE('',*,*,#21,.T.);
#21 = EDGE_CURVE('',#22,#24,#26,.T.);
#22 = VERTEX_POINT('',#23);
#23 = CARTESIAN_POINT('',(0.,7.536381686713,0.));
#24 = VERTEX_POINT('',#25);
#25 = CARTESIAN_POINT('',(1.5E+03,-36.23878295348,0.));
#26 = SURFACE_CURVE('',#27,(#39),.PCURVE_S1.);
#27 = B_SPLINE_CURVE_WITH_KNOTS('',1,(#28,#29,#30,#31,#32,#33,#34,#35,
    #36,#37,#38),.UNSPECIFIED.,.F.,.F.,(2,1,1,1,1,1,1,1,1,1,2),(0.,
    9.900062108135E-02,0.217373348882,0.25679576096,0.609687740349,
    0.699318031127,0.749426148751,0.805715984008,0.892760038555,
    0.944649667225,1.),.UNSPECIFIED.);
#28 = CARTESIAN_POINT('',(0.,7.536381686713,0.));
#29 = CARTESIAN_POINT('',(160.80356637041,40.567129206517,0.));
#30 = CARTESIAN_POINT('',(354.90400468912,11.374727538639,0.));
#31 = CARTESIAN_POINT('',(418.86167339931,-2.137765384587,0.));
#32 = CARTESIAN_POINT('',(1.002786119817E+03,35.849528738666,0.));
#33 = CARTESIAN_POINT('',(1.136019840434E+03,-30.01126984097,0.));
#34 = CARTESIAN_POINT('',(1.180254443287E+03,40.323432018141,0.));
#35 = CARTESIAN_POINT('',(1.230658526499E+03,-38.23576821162,0.));
#36 = CARTESIAN_POINT('',(1.354391010444E+03,36.079817257811,0.));
#37 = CARTESIAN_POINT('',(1.408373272059E+03,-30.92174564379,0.));
#38 = CARTESIAN_POINT('',(1.5E+03,-36.23878295348,0.));
#39 = PCURVE('',#40,#45);
#40 = PLANE('',#41);
#41 = AXIS2_PLACEMENT_3D('',#42,#43,#44);
#42 = CARTESIAN_POINT('',(804.87768157789,75.,0.));
#43 = DIRECTION('',(0.,0.,1.));
#44 = DIRECTION('',(1.,0.,-0.));
#45 = DEFINITIONAL_REPRESENTATION('',(#46),#58);
#46 = B_SPLINE_CURVE_WITH_KNOTS('',1,(#47,#48,#49,#50,#51,#52,#53,#54,
    #55,#56,#57),.UNSPECIFIED.,.F.,.F.,(2,1,1,1,1,1,1,1,1,1,2),(0.,
    9.900062108135E-02,0.217373348882,0.25679576096,0.609687740349,
    0.699318031127,0.749426148751,0.805715984008,0.892760038555,
    0.944649667225,1.),.UNSPECIFIED.);
#47 = CARTESIAN_POINT('',(-804.8776815778,-67.46361831328));
#48 = CARTESIAN_POINT('',(-644.0741152074,-34.43287079348));
#49 = CARTESIAN_POINT('',(-449.9736768887,-63.62527246136));
#50 = CARTESIAN_POINT('',(-386.0160081785,-77.13776538458));
#51 = CARTESIAN_POINT('',(197.90843823945,-39.15047126133));
#52 = CARTESIAN_POINT('',(331.14215885603,-105.0112698409));
#53 = CARTESIAN_POINT('',(375.37676170865,-34.67656798185));
#54 = CARTESIAN_POINT('',(425.78084492156,-113.2357682116));
#55 = CARTESIAN_POINT('',(549.51332886577,-38.92018274218));
#56 = CARTESIAN_POINT('',(603.49559048081,-105.9217456437));
#57 = CARTESIAN_POINT('',(695.1223184221,-111.2387829534));
#58 = ( GEOMETRIC_REPRESENTATION_CONTEXT(2) 
PARAMETRIC_REPRESENTATION_CONTEXT() REPRESENTATION_CONTEXT('2D SPACE',''
  ) );
#59 = ORIENTED_EDGE('',*,*,#60,.T.);
#60 = EDGE_CURVE('',#24,#61,#63,.T.);
#61 = VERTEX_POINT('',#62);
#62 = CARTESIAN_POINT('',(1.5E+03,186.23878295348,0.));
#63 = SURFACE_CURVE('',#64,(#68),.PCURVE_S1.);
#64 = LINE('',#65,#66);
#65 = CARTESIAN_POINT('',(1.5E+03,-36.23878295348,0.));
#66 = VECTOR('',#67,1.);
#67 = DIRECTION('',(0.,1.,0.));
#68 = PCURVE('',#40,#69);
#69 = DEFINITIONAL_REPRESENTATION('',(#70),#74);
#70 = LINE('',#71,#72);
#71 = CARTESIAN_POINT('',(695.1223184221,-111.2387829534));
#72 = VECTOR('',#73,1.);
#73 = DIRECTION('',(0.,1.));
#74 = ( GEOMETRIC_REPRESENTATION_CONTEXT(2) 
PARAMETRIC_REPRESENTATION_CONTEXT() REPRESENTATION_CONTEXT('2D SPACE',''
  ) );
#75 = ORIENTED_EDGE('',*,*,#76,.T.);
#76 = EDGE_CURVE('',#61,#77,#79,.T.);
#77 = VERTEX_POINT('',#78);
#78 = CARTESIAN_POINT('',(0.,142.46361831328,0.));
#79 = SURFACE_CURVE('',#80,(#92),.PCURVE_S1.);
#80 = B_SPLINE_CURVE_WITH_KNOTS('',1,(#81,#82,#83,#84,#85,#86,#87,#88,
    #89,#90,#91),.UNSPECIFIED.,.F.,.F.,(2,1,1,1,1,1,1,1,1,1,2),(0.,
    5.535033277462E-02,0.107239961445,0.194284015992,0.250573851249,
    0.300681968873,0.390312259651,0.74320423904,0.782626651118,
    0.900999378919,1.),.UNSPECIFIED.);
#81 = CARTESIAN_POINT('',(1.5E+03,186.23878295348,0.));
#82 = CARTESIAN_POINT('',(1.408373272059E+03,180.92174564379,0.));
#83 = CARTESIAN_POINT('',(1.354391010444E+03,113.92018274218,0.));
#84 = CARTESIAN_POINT('',(1.230658526499E+03,188.23576821162,0.));
#85 = CARTESIAN_POINT('',(1.180254443287E+03,109.67656798185,0.));
#86 = CARTESIAN_POINT('',(1.136019840434E+03,180.01126984097,0.));
#87 = CARTESIAN_POINT('',(1.002786119817E+03,114.15047126133,0.));
#88 = CARTESIAN_POINT('',(418.86167339931,152.13776538458,0.));
#89 = CARTESIAN_POINT('',(354.90400468912,138.62527246136,0.));
#90 = CARTESIAN_POINT('',(160.80356637041,109.43287079348,0.));
#91 = CARTESIAN_POINT('',(0.,142.46361831328,0.));
#92 = PCURVE('',#40,#93);
#93 = DEFINITIONAL_REPRESENTATION('',(#94),#106);
#94 = B_SPLINE_CURVE_WITH_KNOTS('',1,(#95,#96,#97,#98,#99,#100,#101,#102
    ,#103,#104,#105),.UNSPECIFIED.,.F.,.F.,(2,1,1,1,1,1,1,1,1,1,2),(0.,
    5.535033277462E-02,0.107239961445,0.194284015992,0.250573851249,
    0.300681968873,0.390312259651,0.74320423904,0.782626651118,
    0.900999378919,1.),.UNSPECIFIED.);
#95 = CARTESIAN_POINT('',(695.1223184221,111.23878295348));
#96 = CARTESIAN_POINT('',(603.49559048081,105.92174564379));
#97 = CARTESIAN_POINT('',(549.51332886577,38.920182742189));
#98 = CARTESIAN_POINT('',(425.78084492156,113.23576821162));
#99 = CARTESIAN_POINT('',(375.37676170865,34.676567981859));
#100 = CARTESIAN_POINT('',(331.14215885603,105.01126984097));
#101 = CARTESIAN_POINT('',(197.90843823945,39.150471261334));
#102 = CARTESIAN_POINT('',(-386.0160081785,77.137765384587));
#103 = CARTESIAN_POINT('',(-449.9736768887,63.625272461361));
#104 = CARTESIAN_POINT('',(-644.0741152074,34.432870793483));
#105 = CARTESIAN_POINT('',(-804.8776815778,67.463618313287));
#106 = ( GEOMETRIC_REPRESENTATION_CONTEXT(2) 
PARAMETRIC_REPRESENTATION_CONTEXT() REPRESENTATION_CONTEXT('2D SPACE',''
  ) );
#107 = ORIENTED_EDGE('',*,*,#108,.T.);
#108 = EDGE_CURVE('',#77,#22,#109,.T.);
#109 = SURFACE_CURVE('',#110,(#114),.PCURVE_S1.);
#110 = LINE('',#111,#112);
#111 = CARTESIAN_POINT('',(0.,142.46361831328,0.));
#112 = VECTOR('',#113,1.);
#113 = DIRECTION('',(0.,-1.,0.));
#114 = PCURVE('',#40,#115);
#115 = DEFINITIONAL_REPRESENTATION('',(#116),#120);
#116 = LINE('',#117,#118);
#117 = CARTESIAN_POINT('',(-804.8776815778,67.463618313287));
#118 = VECTOR('',#119,1.);
#119 = DIRECTION('',(0.,-1.));
#120 = ( GEOMETRIC_REPRESENTATION_CONTEXT(2) 
PARAMETRIC_REPRESENTATION_CONTEXT() REPRESENTATION_CONTEXT('2D SPACE',''
  ) );
#121 = ( GEOMETRIC_REPRESENTATION_CONTEXT(3) 
GLOBAL_UNCERTAINTY_ASSIGNED_CONTEXT((#125)) GLOBAL_UNIT_ASSIGNED_CONTEXT
((#122,#123,#124)) REPRESENTATION_CONTEXT('Context #1',
  '3D Context with UNIT and UNCERTAINTY') );
#122 = ( LENGTH_UNIT() NAMED_UNIT(*) SI_UNIT(.MILLI.,.METRE.) );
#123 = ( NAMED_UNIT(*) PLANE_ANGLE_UNIT() SI_UNIT($,.RADIAN.) );
#124 = ( NAMED_UNIT(*) SI_UNIT($,.STERADIAN.) SOLID_ANGLE_UNIT() );
#125 = UNCERTAINTY_MEASURE_WITH_UNIT(LENGTH_MEASURE(1.E-07),#122,
  'distance_accuracy_value','confusion accuracy');
#126 = PRODUCT_RELATED_PRODUCT_CATEGORY('part',$,(#7));
ENDSEC;
END-ISO-10303-21;
