ISO-10303-21;
HEADER;
FILE_DESCRIPTION(('Open CASCADE Model'),'2;1');
FILE_NAME('Open CASCADE Shape Model','2026-05-28T17:04:48',('Author'),(
    'Open CASCADE'),'Open CASCADE STEP processor 7.9','Open CASCADE 7.9'
  ,'Unknown');
FILE_SCHEMA(('AUTOMOTIVE_DESIGN { 1 0 10303 214 1 1 1 1 }'));
ENDSEC;
DATA;
#1 = APPLICATION_PROTOCOL_DEFINITION('international standard',
  'automotive_design',2000,#2);
#2 = APPLICATION_CONTEXT(
  'core data for automotive mechanical design processes');
#3 = SHAPE_DEFINITION_REPRESENTATION(#4,#10);
#4 = PRODUCT_DEFINITION_SHAPE('','',#5);
#5 = PRODUCT_DEFINITION('design','',#6,#9);
#6 = PRODUCT_DEFINITION_FORMATION('','',#7);
#7 = PRODUCT('Open CASCADE STEP translator 7.9 6',
  'Open CASCADE STEP translator 7.9 6','',(#8));
#8 = PRODUCT_CONTEXT('',#2,'mechanical');
#9 = PRODUCT_DEFINITION_CONTEXT('part definition',#2,'design');
#10 = MANIFOLD_SURFACE_SHAPE_REPRESENTATION('',(#11,#15),#125);
#11 = AXIS2_PLACEMENT_3D('',#12,#13,#14);
#12 = CARTESIAN_POINT('',(0.,0.,0.));
#13 = DIRECTION('',(0.,0.,1.));
#14 = DIRECTION('',(1.,0.,-0.));
#15 = SHELL_BASED_SURFACE_MODEL('',(#16));
#16 = OPEN_SHELL('',(#17));
#17 = ADVANCED_FACE('',(#18),#41,.T.);
#18 = FACE_BOUND('',#19,.T.);
#19 = EDGE_LOOP('',(#20,#61,#77,#111));
#20 = ORIENTED_EDGE('',*,*,#21,.T.);
#21 = EDGE_CURVE('',#22,#24,#26,.T.);
#22 = VERTEX_POINT('',#23);
#23 = CARTESIAN_POINT('',(0.,-3.353730489256E-02,0.));
#24 = VERTEX_POINT('',#25);
#25 = CARTESIAN_POINT('',(2.2,4.322779068553E-02,0.));
#26 = SURFACE_CURVE('',#27,(#40),.PCURVE_S1.);
#27 = B_SPLINE_CURVE_WITH_KNOTS('',1,(#28,#29,#30,#31,#32,#33,#34,#35,
    #36,#37,#38,#39),.UNSPECIFIED.,.F.,.F.,(2,1,1,1,1,1,1,1,1,1,1,2),(0.
    ,4.942511991313E-02,9.436797057513E-02,0.127550507251,0.525472430805
    ,0.787467496618,0.821915886465,0.84431505168,0.900079872659,
    0.924721247685,0.979695241218,1.),.UNSPECIFIED.);
#28 = CARTESIAN_POINT('',(0.,-3.353730489256E-02,0.));
#29 = CARTESIAN_POINT('',(0.114316106223,-1.709799311947E-02,0.));
#30 = CARTESIAN_POINT('',(0.218048911476,-3.347956254938E-02,0.));
#31 = CARTESIAN_POINT('',(0.223678186388,4.385373499042E-02,0.));
#32 = CARTESIAN_POINT('',(1.152256487179,-4.328164313716E-03,0.));
#33 = CARTESIAN_POINT('',(1.764456936602,-1.70674442285E-03,0.));
#34 = CARTESIAN_POINT('',(1.833608818335,-4.290865729471E-02,0.));
#35 = CARTESIAN_POINT('',(1.855864893515,4.464076128778E-03,0.));
#36 = CARTESIAN_POINT('',(1.985836916641,1.378926046796E-02,0.));
#37 = CARTESIAN_POINT('',(2.03465211184,-1.674759254845E-02,0.));
#38 = CARTESIAN_POINT('',(2.155055497291,2.80244018999E-02,0.));
#39 = CARTESIAN_POINT('',(2.2,4.322779068553E-02,0.));
#40 = PCURVE('',#41,#46);
#41 = PLANE('',#42);
#42 = AXIS2_PLACEMENT_3D('',#43,#44,#45);
#43 = CARTESIAN_POINT('',(1.0599121274,0.1,0.));
#44 = DIRECTION('',(0.,0.,1.));
#45 = DIRECTION('',(1.,0.,-0.));
#46 = DEFINITIONAL_REPRESENTATION('',(#47),#60);
#47 = B_SPLINE_CURVE_WITH_KNOTS('',1,(#48,#49,#50,#51,#52,#53,#54,#55,
    #56,#57,#58,#59),.UNSPECIFIED.,.F.,.F.,(2,1,1,1,1,1,1,1,1,1,1,2),(0.
    ,4.942511991313E-02,9.436797057513E-02,0.127550507251,0.525472430805
    ,0.787467496618,0.821915886465,0.84431505168,0.900079872659,
    0.924721247685,0.979695241218,1.),.UNSPECIFIED.);
#48 = CARTESIAN_POINT('',(-1.0599121274,-0.133537304893));
#49 = CARTESIAN_POINT('',(-0.945596021176,-0.117097993119));
#50 = CARTESIAN_POINT('',(-0.841863215924,-0.133479562549));
#51 = CARTESIAN_POINT('',(-0.836233941011,-5.614626500958E-02));
#52 = CARTESIAN_POINT('',(9.234435977926E-02,-0.104328164314));
#53 = CARTESIAN_POINT('',(0.704544809202,-0.101706744423));
#54 = CARTESIAN_POINT('',(0.773696690935,-0.142908657295));
#55 = CARTESIAN_POINT('',(0.795952766116,-9.553592387122E-02));
#56 = CARTESIAN_POINT('',(0.925924789241,-8.621073953204E-02));
#57 = CARTESIAN_POINT('',(0.97473998444,-0.116747592548));
#58 = CARTESIAN_POINT('',(1.095143369891,-7.19755981001E-02));
#59 = CARTESIAN_POINT('',(1.1400878726,-5.677220931447E-02));
#60 = ( GEOMETRIC_REPRESENTATION_CONTEXT(2) 
PARAMETRIC_REPRESENTATION_CONTEXT() REPRESENTATION_CONTEXT('2D SPACE',''
  ) );
#61 = ORIENTED_EDGE('',*,*,#62,.T.);
#62 = EDGE_CURVE('',#24,#63,#65,.T.);
#63 = VERTEX_POINT('',#64);
#64 = CARTESIAN_POINT('',(2.2,0.156772209314,0.));
#65 = SURFACE_CURVE('',#66,(#70),.PCURVE_S1.);
#66 = LINE('',#67,#68);
#67 = CARTESIAN_POINT('',(2.2,4.322779068553E-02,0.));
#68 = VECTOR('',#69,1.);
#69 = DIRECTION('',(0.,1.,0.));
#70 = PCURVE('',#41,#71);
#71 = DEFINITIONAL_REPRESENTATION('',(#72),#76);
#72 = LINE('',#73,#74);
#73 = CARTESIAN_POINT('',(1.1400878726,-5.677220931447E-02));
#74 = VECTOR('',#75,1.);
#75 = DIRECTION('',(0.,1.));
#76 = ( GEOMETRIC_REPRESENTATION_CONTEXT(2) 
PARAMETRIC_REPRESENTATION_CONTEXT() REPRESENTATION_CONTEXT('2D SPACE',''
  ) );
#77 = ORIENTED_EDGE('',*,*,#78,.T.);
#78 = EDGE_CURVE('',#63,#79,#81,.T.);
#79 = VERTEX_POINT('',#80);
#80 = CARTESIAN_POINT('',(0.,0.233537304893,0.));
#81 = SURFACE_CURVE('',#82,(#95),.PCURVE_S1.);
#82 = B_SPLINE_CURVE_WITH_KNOTS('',1,(#83,#84,#85,#86,#87,#88,#89,#90,
    #91,#92,#93,#94),.UNSPECIFIED.,.F.,.F.,(2,1,1,1,1,1,1,1,1,1,1,2),(0.
    ,2.030475878232E-02,7.527875231526E-02,9.992012734073E-02,
    0.15568494832,0.178084113535,0.212532503382,0.474527569195,
    0.872449492749,0.905632029425,0.950574880087,1.),.UNSPECIFIED.);
#83 = CARTESIAN_POINT('',(2.2,0.156772209314,0.));
#84 = CARTESIAN_POINT('',(2.155055497291,0.1719755981,0.));
#85 = CARTESIAN_POINT('',(2.03465211184,0.216747592548,0.));
#86 = CARTESIAN_POINT('',(1.985836916641,0.186210739532,0.));
#87 = CARTESIAN_POINT('',(1.855864893515,0.195535923871,0.));
#88 = CARTESIAN_POINT('',(1.833608818335,0.242908657295,0.));
#89 = CARTESIAN_POINT('',(1.764456936602,0.201706744423,0.));
#90 = CARTESIAN_POINT('',(1.152256487179,0.204328164314,0.));
#91 = CARTESIAN_POINT('',(0.223678186388,0.15614626501,0.));
#92 = CARTESIAN_POINT('',(0.218048911476,0.233479562549,0.));
#93 = CARTESIAN_POINT('',(0.114316106223,0.217097993119,0.));
#94 = CARTESIAN_POINT('',(0.,0.233537304893,0.));
#95 = PCURVE('',#41,#96);
#96 = DEFINITIONAL_REPRESENTATION('',(#97),#110);
#97 = B_SPLINE_CURVE_WITH_KNOTS('',1,(#98,#99,#100,#101,#102,#103,#104,
    #105,#106,#107,#108,#109),.UNSPECIFIED.,.F.,.F.,(2,1,1,1,1,1,1,1,1,1
    ,1,2),(0.,2.030475878232E-02,7.527875231526E-02,9.992012734073E-02,
    0.15568494832,0.178084113535,0.212532503382,0.474527569195,
    0.872449492749,0.905632029425,0.950574880087,1.),.UNSPECIFIED.);
#98 = CARTESIAN_POINT('',(1.1400878726,5.677220931447E-02));
#99 = CARTESIAN_POINT('',(1.095143369891,7.19755981001E-02));
#100 = CARTESIAN_POINT('',(0.97473998444,0.116747592548));
#101 = CARTESIAN_POINT('',(0.925924789241,8.621073953204E-02));
#102 = CARTESIAN_POINT('',(0.795952766116,9.553592387122E-02));
#103 = CARTESIAN_POINT('',(0.773696690935,0.142908657295));
#104 = CARTESIAN_POINT('',(0.704544809202,0.101706744423));
#105 = CARTESIAN_POINT('',(9.234435977926E-02,0.104328164314));
#106 = CARTESIAN_POINT('',(-0.836233941011,5.614626500958E-02));
#107 = CARTESIAN_POINT('',(-0.841863215924,0.133479562549));
#108 = CARTESIAN_POINT('',(-0.945596021176,0.117097993119));
#109 = CARTESIAN_POINT('',(-1.0599121274,0.133537304893));
#110 = ( GEOMETRIC_REPRESENTATION_CONTEXT(2) 
PARAMETRIC_REPRESENTATION_CONTEXT() REPRESENTATION_CONTEXT('2D SPACE',''
  ) );
#111 = ORIENTED_EDGE('',*,*,#112,.T.);
#112 = EDGE_CURVE('',#79,#22,#113,.T.);
#113 = SURFACE_CURVE('',#114,(#118),.PCURVE_S1.);
#114 = LINE('',#115,#116);
#115 = CARTESIAN_POINT('',(0.,0.233537304893,0.));
#116 = VECTOR('',#117,1.);
#117 = DIRECTION('',(0.,-1.,0.));
#118 = PCURVE('',#41,#119);
#119 = DEFINITIONAL_REPRESENTATION('',(#120),#124);
#120 = LINE('',#121,#122);
#121 = CARTESIAN_POINT('',(-1.0599121274,0.133537304893));
#122 = VECTOR('',#123,1.);
#123 = DIRECTION('',(0.,-1.));
#124 = ( GEOMETRIC_REPRESENTATION_CONTEXT(2) 
PARAMETRIC_REPRESENTATION_CONTEXT() REPRESENTATION_CONTEXT('2D SPACE',''
  ) );
#125 = ( GEOMETRIC_REPRESENTATION_CONTEXT(3) 
GLOBAL_UNCERTAINTY_ASSIGNED_CONTEXT((#129)) GLOBAL_UNIT_ASSIGNED_CONTEXT
((#126,#127,#128)) REPRESENTATION_CONTEXT('Context #1',
  '3D Context with UNIT and UNCERTAINTY') );
#126 = ( LENGTH_UNIT() NAMED_UNIT(*) SI_UNIT(.MILLI.,.METRE.) );
#127 = ( NAMED_UNIT(*) PLANE_ANGLE_UNIT() SI_UNIT($,.RADIAN.) );
#128 = ( NAMED_UNIT(*) SI_UNIT($,.STERADIAN.) SOLID_ANGLE_UNIT() );
#129 = UNCERTAINTY_MEASURE_WITH_UNIT(LENGTH_MEASURE(1.E-07),#126,
  'distance_accuracy_value','confusion accuracy');
#130 = PRODUCT_RELATED_PRODUCT_CATEGORY('part',$,(#7));
ENDSEC;
END-ISO-10303-21;
