ISO-10303-21;
HEADER;
FILE_DESCRIPTION(('Open CASCADE Model'),'2;1');
FILE_NAME('Open CASCADE Shape Model','2026-05-28T17:04:49',('Author'),(
    'Open CASCADE'),'Open CASCADE STEP processor 7.9','Open CASCADE 7.9'
  ,'Unknown');
FILE_SCHEMA(('AUTOMOTIVE_DESIGN { 1 0 10303 214 1 1 1 1 }'));
ENDSEC;
DATA;
#1 = APPLICATION_PROTOCOL_DEFINITION('international standard',
  'automotive_design',2000,#2);
#2 = APPLICATION_CONTEXT(
  'core data for automotive mechanical design processes');
#3 = SHAPE_DEFINITION_REPRESENTATION(#4,#10);
#4 = PRODUCT_DEFINITION_SHAPE('','',#5);
#5 = PRODUCT_DEFINITION('design','',#6,#9);
#6 = PRODUCT_DEFINITION_FORMATION('','',#7);
#7 = PRODUCT('Open CASCADE STEP translator 7.9 69',
  'Open CASCADE STEP translator 7.9 69','',(#8));
#8 = PRODUCT_CONTEXT('',#2,'mechanical');
#9 = PRODUCT_DEFINITION_CONTEXT('part definition',#2,'design');
#10 = MANIFOLD_SURFACE_SHAPE_REPRESENTATION('',(#11,#15),#229);
#11 = AXIS2_PLACEMENT_3D('',#12,#13,#14);
#12 = CARTESIAN_POINT('',(0.,0.,0.));
#13 = DIRECTION('',(0.,0.,1.));
#14 = DIRECTION('',(1.,0.,-0.));
#15 = SHELL_BASED_SURFACE_MODEL('',(#16));
#16 = OPEN_SHELL('',(#17));
#17 = ADVANCED_FACE('',(#18),#67,.T.);
#18 = FACE_BOUND('',#19,.T.);
#19 = EDGE_LOOP('',(#20,#113,#129,#215));
#20 = ORIENTED_EDGE('',*,*,#21,.T.);
#21 = EDGE_CURVE('',#22,#24,#26,.T.);
#22 = VERTEX_POINT('',#23);
#23 = CARTESIAN_POINT('',(0.,-2.296894099337E-03,0.));
#24 = VERTEX_POINT('',#25);
#25 = CARTESIAN_POINT('',(7.4,-2.787821066014E-02,0.));
#26 = SURFACE_CURVE('',#27,(#66),.PCURVE_S1.);
#27 = B_SPLINE_CURVE_WITH_KNOTS('',1,(#28,#29,#30,#31,#32,#33,#34,#35,
    #36,#37,#38,#39,#40,#41,#42,#43,#44,#45,#46,#47,#48,#49,#50,#51,#52,
    #53,#54,#55,#56,#57,#58,#59,#60,#61,#62,#63,#64,#65),.UNSPECIFIED.,
  .F.,.F.,(2,1,1,1,1,1,1,1,1,1,1,1,1,1,1,1,1,1,1,1,1,1,1,1,1,1,1,1,1,1,1
    ,1,1,1,1,1,1,2),(0.,1.91710243018E-02,6.761176550455E-02,
    8.262493999295E-02,0.104533046011,0.126364711618,0.137353611666,
    0.206966751999,0.24659958899,0.275622766558,0.276036275535,
    0.292330321355,0.387221605106,0.396595362317,0.448607451772,
    0.473000209284,0.482849193309,0.511483371415,0.524428616886,
    0.540815127355,0.547345268758,0.600511411462,0.627425993492,
    0.64723215747,0.690014712474,0.70033656129,0.716311280525,
    0.721549414842,0.780899381921,0.797581925056,0.826547008748,
    0.849505636673,0.886426405422,0.906010097162,0.946741074902,
    0.971603879778,0.988627989314,1.),.UNSPECIFIED.);
#28 = CARTESIAN_POINT('',(0.,-2.296894099337E-03,0.));
#29 = CARTESIAN_POINT('',(0.143605513656,4.590243769073E-02,0.));
#30 = CARTESIAN_POINT('',(0.51512141331,-4.615320031803E-02,0.));
#31 = CARTESIAN_POINT('',(0.597711018134,3.899940452522E-02,0.));
#32 = CARTESIAN_POINT('',(0.770596688293,4.771652983795E-02,0.));
#33 = CARTESIAN_POINT('',(0.942657300763,3.539392817722E-02,0.));
#34 = CARTESIAN_POINT('',(0.990975763036,-3.674777864676E-02,0.));
#35 = CARTESIAN_POINT('',(1.534559276771,4.730225667784E-02,0.));
#36 = CARTESIAN_POINT('',(1.841709988294,-1.373129938058E-02,0.));
#37 = CARTESIAN_POINT('',(2.070488836168,-2.954175607382E-02,0.));
#38 = CARTESIAN_POINT('',(2.073702805099,-3.012973925794E-02,0.));
#39 = CARTESIAN_POINT('',(2.183444668323,3.719269360702E-02,0.));
#40 = CARTESIAN_POINT('',(2.933062771322,5.260512019469E-02,0.));
#41 = CARTESIAN_POINT('',(2.990743563538,6.143233947334E-03,0.));
#42 = CARTESIAN_POINT('',(3.400648919337,3.570175857065E-02,0.));
#43 = CARTESIAN_POINT('',(3.583935356273,-2.391249708167E-02,0.));
#44 = CARTESIAN_POINT('',(3.65001207311,1.719686404135E-02,0.));
#45 = CARTESIAN_POINT('',(3.875989533337,6.077527076024E-03,0.));
#46 = CARTESIAN_POINT('',(3.970000022731,4.638180802779E-02,0.));
#47 = CARTESIAN_POINT('',(4.087453502733,-8.106034385783E-03,0.));
#48 = CARTESIAN_POINT('',(4.111132659845,3.773709724417E-02,0.));
#49 = CARTESIAN_POINT('',(4.527026622919,-2.147827930979E-02,0.));
#50 = CARTESIAN_POINT('',(4.726791112686,5.145974129425E-02,0.));
#51 = CARTESIAN_POINT('',(4.839505278158,-5.710735107376E-02,0.));
#52 = CARTESIAN_POINT('',(5.175735456385,-2.21432374303E-02,0.));
#53 = CARTESIAN_POINT('',(5.230609886461,3.819245186257E-02,0.));
#54 = CARTESIAN_POINT('',(5.355219690653,5.830864254458E-02,0.));
#55 = CARTESIAN_POINT('',(5.370551736922,1.986445293537E-02,0.));
#56 = CARTESIAN_POINT('',(5.838994269093,4.166240831374E-02,0.));
#57 = CARTESIAN_POINT('',(5.970574909209,3.379064002565E-02,0.));
#58 = CARTESIAN_POINT('',(6.185549129893,-4.473003101255E-02,0.));
#59 = CARTESIAN_POINT('',(6.364048085663,-1.23845592061E-02,0.));
#60 = CARTESIAN_POINT('',(6.651245003293,3.882508163653E-02,0.));
#61 = CARTESIAN_POINT('',(6.799105148069,-6.799128082494E-03,0.));
#62 = CARTESIAN_POINT('',(7.11890629226,2.9306321589E-02,0.));
#63 = CARTESIAN_POINT('',(7.295313683273,-5.714410372297E-02,0.));
#64 = CARTESIAN_POINT('',(7.367956524628,5.606913236836E-02,0.));
#65 = CARTESIAN_POINT('',(7.4,-2.787821066014E-02,0.));
#66 = PCURVE('',#67,#72);
#67 = PLANE('',#68);
#68 = AXIS2_PLACEMENT_3D('',#69,#70,#71);
#69 = CARTESIAN_POINT('',(3.760348456137,0.1,0.));
#70 = DIRECTION('',(0.,0.,1.));
#71 = DIRECTION('',(1.,0.,-0.));
#72 = DEFINITIONAL_REPRESENTATION('',(#73),#112);
#73 = B_SPLINE_CURVE_WITH_KNOTS('',1,(#74,#75,#76,#77,#78,#79,#80,#81,
    #82,#83,#84,#85,#86,#87,#88,#89,#90,#91,#92,#93,#94,#95,#96,#97,#98,
    #99,#100,#101,#102,#103,#104,#105,#106,#107,#108,#109,#110,#111),
  .UNSPECIFIED.,.F.,.F.,(2,1,1,1,1,1,1,1,1,1,1,1,1,1,1,1,1,1,1,1,1,1,1,1
    ,1,1,1,1,1,1,1,1,1,1,1,1,1,2),(0.,1.91710243018E-02,
    6.761176550455E-02,8.262493999295E-02,0.104533046011,0.126364711618,
    0.137353611666,0.206966751999,0.24659958899,0.275622766558,
    0.276036275535,0.292330321355,0.387221605106,0.396595362317,
    0.448607451772,0.473000209284,0.482849193309,0.511483371415,
    0.524428616886,0.540815127355,0.547345268758,0.600511411462,
    0.627425993492,0.64723215747,0.690014712474,0.70033656129,
    0.716311280525,0.721549414842,0.780899381921,0.797581925056,
    0.826547008748,0.849505636673,0.886426405422,0.906010097162,
    0.946741074902,0.971603879778,0.988627989314,1.),.UNSPECIFIED.);
#74 = CARTESIAN_POINT('',(-3.760348456137,-0.102296894099));
#75 = CARTESIAN_POINT('',(-3.616742942481,-5.409756230927E-02));
#76 = CARTESIAN_POINT('',(-3.245227042827,-0.146153200318));
#77 = CARTESIAN_POINT('',(-3.162637438002,-6.100059547478E-02));
#78 = CARTESIAN_POINT('',(-2.989751767843,-5.228347016205E-02));
#79 = CARTESIAN_POINT('',(-2.817691155373,-6.460607182278E-02));
#80 = CARTESIAN_POINT('',(-2.7693726931,-0.136747778647));
#81 = CARTESIAN_POINT('',(-2.225789179365,-5.269774332216E-02));
#82 = CARTESIAN_POINT('',(-1.918638467842,-0.113731299381));
#83 = CARTESIAN_POINT('',(-1.689859619969,-0.129541756074));
#84 = CARTESIAN_POINT('',(-1.686645651038,-0.130129739258));
#85 = CARTESIAN_POINT('',(-1.576903787813,-6.280730639298E-02));
#86 = CARTESIAN_POINT('',(-0.827285684815,-4.739487980531E-02));
#87 = CARTESIAN_POINT('',(-0.769604892598,-9.385676605267E-02));
#88 = CARTESIAN_POINT('',(-0.3596995368,-6.429824142935E-02));
#89 = CARTESIAN_POINT('',(-0.176413099864,-0.123912497082));
#90 = CARTESIAN_POINT('',(-0.110336383026,-8.280313595865E-02));
#91 = CARTESIAN_POINT('',(0.1156410772,-9.392247292398E-02));
#92 = CARTESIAN_POINT('',(0.209651566595,-5.361819197221E-02));
#93 = CARTESIAN_POINT('',(0.327105046597,-0.108106034386));
#94 = CARTESIAN_POINT('',(0.350784203708,-6.226290275583E-02));
#95 = CARTESIAN_POINT('',(0.766678166782,-0.12147827931));
#96 = CARTESIAN_POINT('',(0.96644265655,-4.854025870575E-02));
#97 = CARTESIAN_POINT('',(1.079156822022,-0.157107351074));
#98 = CARTESIAN_POINT('',(1.415387000249,-0.12214323743));
#99 = CARTESIAN_POINT('',(1.470261430324,-6.180754813743E-02));
#100 = CARTESIAN_POINT('',(1.594871234516,-4.169135745542E-02));
#101 = CARTESIAN_POINT('',(1.610203280786,-8.013554706463E-02));
#102 = CARTESIAN_POINT('',(2.078645812956,-5.833759168626E-02));
#103 = CARTESIAN_POINT('',(2.210226453073,-6.620935997435E-02));
#104 = CARTESIAN_POINT('',(2.425200673757,-0.144730031013));
#105 = CARTESIAN_POINT('',(2.603699629527,-0.112384559206));
#106 = CARTESIAN_POINT('',(2.890896547157,-6.117491836347E-02));
#107 = CARTESIAN_POINT('',(3.038756691933,-0.106799128082));
#108 = CARTESIAN_POINT('',(3.358557836123,-7.0693678411E-02));
#109 = CARTESIAN_POINT('',(3.534965227137,-0.157144103723));
#110 = CARTESIAN_POINT('',(3.607608068491,-4.393086763164E-02));
#111 = CARTESIAN_POINT('',(3.639651543863,-0.12787821066));
#112 = ( GEOMETRIC_REPRESENTATION_CONTEXT(2) 
PARAMETRIC_REPRESENTATION_CONTEXT() REPRESENTATION_CONTEXT('2D SPACE',''
  ) );
#113 = ORIENTED_EDGE('',*,*,#114,.T.);
#114 = EDGE_CURVE('',#24,#115,#117,.T.);
#115 = VERTEX_POINT('',#116);
#116 = CARTESIAN_POINT('',(7.4,0.22787821066,0.));
#117 = SURFACE_CURVE('',#118,(#122),.PCURVE_S1.);
#118 = LINE('',#119,#120);
#119 = CARTESIAN_POINT('',(7.4,-2.787821066014E-02,0.));
#120 = VECTOR('',#121,1.);
#121 = DIRECTION('',(0.,1.,0.));
#122 = PCURVE('',#67,#123);
#123 = DEFINITIONAL_REPRESENTATION('',(#124),#128);
#124 = LINE('',#125,#126);
#125 = CARTESIAN_POINT('',(3.639651543863,-0.12787821066));
#126 = VECTOR('',#127,1.);
#127 = DIRECTION('',(0.,1.));
#128 = ( GEOMETRIC_REPRESENTATION_CONTEXT(2) 
PARAMETRIC_REPRESENTATION_CONTEXT() REPRESENTATION_CONTEXT('2D SPACE',''
  ) );
#129 = ORIENTED_EDGE('',*,*,#130,.T.);
#130 = EDGE_CURVE('',#115,#131,#133,.T.);
#131 = VERTEX_POINT('',#132);
#132 = CARTESIAN_POINT('',(0.,0.202296894099,0.));
#133 = SURFACE_CURVE('',#134,(#173),.PCURVE_S1.);
#134 = B_SPLINE_CURVE_WITH_KNOTS('',1,(#135,#136,#137,#138,#139,#140,
    #141,#142,#143,#144,#145,#146,#147,#148,#149,#150,#151,#152,#153,
    #154,#155,#156,#157,#158,#159,#160,#161,#162,#163,#164,#165,#166,
    #167,#168,#169,#170,#171,#172),.UNSPECIFIED.,.F.,.F.,(2,1,1,1,1,1,1,
    1,1,1,1,1,1,1,1,1,1,1,1,1,1,1,1,1,1,1,1,1,1,1,1,1,1,1,1,1,1,2),(0.,
    1.137201068613E-02,2.839612022212E-02,5.325892509761E-02,
    9.398990283825E-02,0.113573594578,0.150494363327,0.173452991252,
    0.202418074944,0.219100618079,0.278450585158,0.283688719475,
    0.29966343871,0.309985287526,0.35276784253,0.372574006508,
    0.399488588538,0.452654731242,0.459184872645,0.475571383114,
    0.488516628585,0.517150806691,0.526999790716,0.551392548228,
    0.603404637683,0.612778394894,0.707669678645,0.723963724465,
    0.724377233442,0.75340041101,0.793033248001,0.862646388334,
    0.873635288382,0.895466953989,0.917375060007,0.932388234495,
    0.980828975698,1.),.UNSPECIFIED.);
#135 = CARTESIAN_POINT('',(7.4,0.22787821066,0.));
#136 = CARTESIAN_POINT('',(7.367956524628,0.143930867632,0.));
#137 = CARTESIAN_POINT('',(7.295313683273,0.257144103723,0.));
#138 = CARTESIAN_POINT('',(7.11890629226,0.170693678411,0.));
#139 = CARTESIAN_POINT('',(6.799105148069,0.206799128082,0.));
#140 = CARTESIAN_POINT('',(6.651245003293,0.161174918363,0.));
#141 = CARTESIAN_POINT('',(6.364048085663,0.212384559206,0.));
#142 = CARTESIAN_POINT('',(6.185549129893,0.244730031013,0.));
#143 = CARTESIAN_POINT('',(5.970574909209,0.166209359974,0.));
#144 = CARTESIAN_POINT('',(5.838994269093,0.158337591686,0.));
#145 = CARTESIAN_POINT('',(5.370551736922,0.180135547065,0.));
#146 = CARTESIAN_POINT('',(5.355219690653,0.141691357455,0.));
#147 = CARTESIAN_POINT('',(5.230609886461,0.161807548137,0.));
#148 = CARTESIAN_POINT('',(5.175735456385,0.22214323743,0.));
#149 = CARTESIAN_POINT('',(4.839505278158,0.257107351074,0.));
#150 = CARTESIAN_POINT('',(4.726791112686,0.148540258706,0.));
#151 = CARTESIAN_POINT('',(4.527026622919,0.22147827931,0.));
#152 = CARTESIAN_POINT('',(4.111132659845,0.162262902756,0.));
#153 = CARTESIAN_POINT('',(4.087453502733,0.208106034386,0.));
#154 = CARTESIAN_POINT('',(3.970000022731,0.153618191972,0.));
#155 = CARTESIAN_POINT('',(3.875989533337,0.193922472924,0.));
#156 = CARTESIAN_POINT('',(3.65001207311,0.182803135959,0.));
#157 = CARTESIAN_POINT('',(3.583935356273,0.223912497082,0.));
#158 = CARTESIAN_POINT('',(3.400648919337,0.164298241429,0.));
#159 = CARTESIAN_POINT('',(2.990743563538,0.193856766053,0.));
#160 = CARTESIAN_POINT('',(2.933062771322,0.147394879805,0.));
#161 = CARTESIAN_POINT('',(2.183444668323,0.162807306393,0.));
#162 = CARTESIAN_POINT('',(2.073702805099,0.230129739258,0.));
#163 = CARTESIAN_POINT('',(2.070488836168,0.229541756074,0.));
#164 = CARTESIAN_POINT('',(1.841709988294,0.213731299381,0.));
#165 = CARTESIAN_POINT('',(1.534559276771,0.152697743322,0.));
#166 = CARTESIAN_POINT('',(0.990975763036,0.236747778647,0.));
#167 = CARTESIAN_POINT('',(0.942657300763,0.164606071823,0.));
#168 = CARTESIAN_POINT('',(0.770596688293,0.152283470162,0.));
#169 = CARTESIAN_POINT('',(0.597711018134,0.161000595475,0.));
#170 = CARTESIAN_POINT('',(0.51512141331,0.246153200318,0.));
#171 = CARTESIAN_POINT('',(0.143605513656,0.154097562309,0.));
#172 = CARTESIAN_POINT('',(0.,0.202296894099,0.));
#173 = PCURVE('',#67,#174);
#174 = DEFINITIONAL_REPRESENTATION('',(#175),#214);
#175 = B_SPLINE_CURVE_WITH_KNOTS('',1,(#176,#177,#178,#179,#180,#181,
    #182,#183,#184,#185,#186,#187,#188,#189,#190,#191,#192,#193,#194,
    #195,#196,#197,#198,#199,#200,#201,#202,#203,#204,#205,#206,#207,
    #208,#209,#210,#211,#212,#213),.UNSPECIFIED.,.F.,.F.,(2,1,1,1,1,1,1,
    1,1,1,1,1,1,1,1,1,1,1,1,1,1,1,1,1,1,1,1,1,1,1,1,1,1,1,1,1,1,2),(0.,
    1.137201068613E-02,2.839612022212E-02,5.325892509761E-02,
    9.398990283825E-02,0.113573594578,0.150494363327,0.173452991252,
    0.202418074944,0.219100618079,0.278450585158,0.283688719475,
    0.29966343871,0.309985287526,0.35276784253,0.372574006508,
    0.399488588538,0.452654731242,0.459184872645,0.475571383114,
    0.488516628585,0.517150806691,0.526999790716,0.551392548228,
    0.603404637683,0.612778394894,0.707669678645,0.723963724465,
    0.724377233442,0.75340041101,0.793033248001,0.862646388334,
    0.873635288382,0.895466953989,0.917375060007,0.932388234495,
    0.980828975698,1.),.UNSPECIFIED.);
#176 = CARTESIAN_POINT('',(3.639651543863,0.12787821066));
#177 = CARTESIAN_POINT('',(3.607608068491,4.393086763164E-02));
#178 = CARTESIAN_POINT('',(3.534965227137,0.157144103723));
#179 = CARTESIAN_POINT('',(3.358557836123,7.0693678411E-02));
#180 = CARTESIAN_POINT('',(3.038756691933,0.106799128082));
#181 = CARTESIAN_POINT('',(2.890896547157,6.117491836347E-02));
#182 = CARTESIAN_POINT('',(2.603699629527,0.112384559206));
#183 = CARTESIAN_POINT('',(2.425200673757,0.144730031013));
#184 = CARTESIAN_POINT('',(2.210226453073,6.620935997435E-02));
#185 = CARTESIAN_POINT('',(2.078645812956,5.833759168626E-02));
#186 = CARTESIAN_POINT('',(1.610203280786,8.013554706463E-02));
#187 = CARTESIAN_POINT('',(1.594871234516,4.169135745542E-02));
#188 = CARTESIAN_POINT('',(1.470261430324,6.180754813743E-02));
#189 = CARTESIAN_POINT('',(1.415387000249,0.12214323743));
#190 = CARTESIAN_POINT('',(1.079156822022,0.157107351074));
#191 = CARTESIAN_POINT('',(0.96644265655,4.854025870575E-02));
#192 = CARTESIAN_POINT('',(0.766678166782,0.12147827931));
#193 = CARTESIAN_POINT('',(0.350784203708,6.226290275583E-02));
#194 = CARTESIAN_POINT('',(0.327105046597,0.108106034386));
#195 = CARTESIAN_POINT('',(0.209651566595,5.361819197221E-02));
#196 = CARTESIAN_POINT('',(0.1156410772,9.392247292398E-02));
#197 = CARTESIAN_POINT('',(-0.110336383026,8.280313595865E-02));
#198 = CARTESIAN_POINT('',(-0.176413099864,0.123912497082));
#199 = CARTESIAN_POINT('',(-0.3596995368,6.429824142935E-02));
#200 = CARTESIAN_POINT('',(-0.769604892598,9.385676605267E-02));
#201 = CARTESIAN_POINT('',(-0.827285684815,4.739487980531E-02));
#202 = CARTESIAN_POINT('',(-1.576903787813,6.280730639298E-02));
#203 = CARTESIAN_POINT('',(-1.686645651038,0.130129739258));
#204 = CARTESIAN_POINT('',(-1.689859619969,0.129541756074));
#205 = CARTESIAN_POINT('',(-1.918638467842,0.113731299381));
#206 = CARTESIAN_POINT('',(-2.225789179365,5.269774332216E-02));
#207 = CARTESIAN_POINT('',(-2.7693726931,0.136747778647));
#208 = CARTESIAN_POINT('',(-2.817691155373,6.460607182278E-02));
#209 = CARTESIAN_POINT('',(-2.989751767843,5.228347016205E-02));
#210 = CARTESIAN_POINT('',(-3.162637438002,6.100059547478E-02));
#211 = CARTESIAN_POINT('',(-3.245227042827,0.146153200318));
#212 = CARTESIAN_POINT('',(-3.616742942481,5.409756230927E-02));
#213 = CARTESIAN_POINT('',(-3.760348456137,0.102296894099));
#214 = ( GEOMETRIC_REPRESENTATION_CONTEXT(2) 
PARAMETRIC_REPRESENTATION_CONTEXT() REPRESENTATION_CONTEXT('2D SPACE',''
  ) );
#215 = ORIENTED_EDGE('',*,*,#216,.T.);
#216 = EDGE_CURVE('',#131,#22,#217,.T.);
#217 = SURFACE_CURVE('',#218,(#222),.PCURVE_S1.);
#218 = LINE('',#219,#220);
#219 = CARTESIAN_POINT('',(0.,0.202296894099,0.));
#220 = VECTOR('',#221,1.);
#221 = DIRECTION('',(0.,-1.,0.));
#222 = PCURVE('',#67,#223);
#223 = DEFINITIONAL_REPRESENTATION('',(#224),#228);
#224 = LINE('',#225,#226);
#225 = CARTESIAN_POINT('',(-3.760348456137,0.102296894099));
#226 = VECTOR('',#227,1.);
#227 = DIRECTION('',(0.,-1.));
#228 = ( GEOMETRIC_REPRESENTATION_CONTEXT(2) 
PARAMETRIC_REPRESENTATION_CONTEXT() REPRESENTATION_CONTEXT('2D SPACE',''
  ) );
#229 = ( GEOMETRIC_REPRESENTATION_CONTEXT(3) 
GLOBAL_UNCERTAINTY_ASSIGNED_CONTEXT((#233)) GLOBAL_UNIT_ASSIGNED_CONTEXT
((#230,#231,#232)) REPRESENTATION_CONTEXT('Context #1',
  '3D Context with UNIT and UNCERTAINTY') );
#230 = ( LENGTH_UNIT() NAMED_UNIT(*) SI_UNIT(.MILLI.,.METRE.) );
#231 = ( NAMED_UNIT(*) PLANE_ANGLE_UNIT() SI_UNIT($,.RADIAN.) );
#232 = ( NAMED_UNIT(*) SI_UNIT($,.STERADIAN.) SOLID_ANGLE_UNIT() );
#233 = UNCERTAINTY_MEASURE_WITH_UNIT(LENGTH_MEASURE(1.E-07),#230,
  'distance_accuracy_value','confusion accuracy');
#234 = PRODUCT_RELATED_PRODUCT_CATEGORY('part',$,(#7));
ENDSEC;
END-ISO-10303-21;
