ISO-10303-21;
HEADER;
FILE_DESCRIPTION(('Open CASCADE Model'),'2;1');
FILE_NAME('Open CASCADE Shape Model','2026-05-29T14:30:30',('Author'),(
    'Open CASCADE'),'Open CASCADE STEP processor 7.9','Open CASCADE 7.9'
  ,'Unknown');
FILE_SCHEMA(('AUTOMOTIVE_DESIGN { 1 0 10303 214 1 1 1 1 }'));
ENDSEC;
DATA;
#1 = APPLICATION_PROTOCOL_DEFINITION('international standard',
  'automotive_design',2000,#2);
#2 = APPLICATION_CONTEXT(
  'core data for automotive mechanical design processes');
#3 = SHAPE_DEFINITION_REPRESENTATION(#4,#10);
#4 = PRODUCT_DEFINITION_SHAPE('','',#5);
#5 = PRODUCT_DEFINITION('design','',#6,#9);
#6 = PRODUCT_DEFINITION_FORMATION('','',#7);
#7 = PRODUCT('Open CASCADE STEP translator 7.9 45',
  'Open CASCADE STEP translator 7.9 45','',(#8));
#8 = PRODUCT_CONTEXT('',#2,'mechanical');
#9 = PRODUCT_DEFINITION_CONTEXT('part definition',#2,'design');
#10 = MANIFOLD_SURFACE_SHAPE_REPRESENTATION('',(#11,#15),#121);
#11 = AXIS2_PLACEMENT_3D('',#12,#13,#14);
#12 = CARTESIAN_POINT('',(0.,0.,0.));
#13 = DIRECTION('',(0.,0.,1.));
#14 = DIRECTION('',(1.,0.,-0.));
#15 = SHELL_BASED_SURFACE_MODEL('',(#16));
#16 = OPEN_SHELL('',(#17));
#17 = ADVANCED_FACE('',(#18),#40,.T.);
#18 = FACE_BOUND('',#19,.T.);
#19 = EDGE_LOOP('',(#20,#59,#75,#107));
#20 = ORIENTED_EDGE('',*,*,#21,.T.);
#21 = EDGE_CURVE('',#22,#24,#26,.T.);
#22 = VERTEX_POINT('',#23);
#23 = CARTESIAN_POINT('',(0.,22.643423652091,0.));
#24 = VERTEX_POINT('',#25);
#25 = CARTESIAN_POINT('',(1.5E+03,5.889322377208,0.));
#26 = SURFACE_CURVE('',#27,(#39),.PCURVE_S1.);
#27 = B_SPLINE_CURVE_WITH_KNOTS('',1,(#28,#29,#30,#31,#32,#33,#34,#35,
    #36,#37,#38),.UNSPECIFIED.,.F.,.F.,(2,1,1,1,1,1,1,1,1,1,2),(0.,
    0.203870356906,0.237572915073,0.338590302191,0.366488505012,
    0.416900502461,0.511007167002,0.559166549042,0.826488384095,
    0.919486180803,1.),.UNSPECIFIED.);
#28 = CARTESIAN_POINT('',(0.,22.643423652091,0.));
#29 = CARTESIAN_POINT('',(310.02703632722,22.968314860487,0.));
#30 = CARTESIAN_POINT('',(360.72425443033,30.487134343327,0.));
#31 = CARTESIAN_POINT('',(497.42105885985,-39.60171097267,0.));
#32 = CARTESIAN_POINT('',(539.58684621485,-34.9189945745,0.));
#33 = CARTESIAN_POINT('',(615.59942549059,-24.96228419949,0.));
#34 = CARTESIAN_POINT('',(756.78661021854,-1.589536915896,0.));
#35 = CARTESIAN_POINT('',(829.98246434234,0.845287603932,0.));
#36 = CARTESIAN_POINT('',(1.236485556924E+03,-2.677109956425,0.));
#37 = CARTESIAN_POINT('',(1.377906682697E+03,-3.291121221938,0.));
#38 = CARTESIAN_POINT('',(1.5E+03,5.889322377208,0.));
#39 = PCURVE('',#40,#45);
#40 = PLANE('',#41);
#41 = AXIS2_PLACEMENT_3D('',#42,#43,#44);
#42 = CARTESIAN_POINT('',(754.17423484497,75.,0.));
#43 = DIRECTION('',(0.,0.,1.));
#44 = DIRECTION('',(1.,0.,-0.));
#45 = DEFINITIONAL_REPRESENTATION('',(#46),#58);
#46 = B_SPLINE_CURVE_WITH_KNOTS('',1,(#47,#48,#49,#50,#51,#52,#53,#54,
    #55,#56,#57),.UNSPECIFIED.,.F.,.F.,(2,1,1,1,1,1,1,1,1,1,2),(0.,
    0.203870356906,0.237572915073,0.338590302191,0.366488505012,
    0.416900502461,0.511007167002,0.559166549042,0.826488384095,
    0.919486180803,1.),.UNSPECIFIED.);
#47 = CARTESIAN_POINT('',(-754.1742348449,-52.3565763479));
#48 = CARTESIAN_POINT('',(-444.1471985177,-52.03168513951));
#49 = CARTESIAN_POINT('',(-393.4499804146,-44.51286565667));
#50 = CARTESIAN_POINT('',(-256.7531759851,-114.6017109726));
#51 = CARTESIAN_POINT('',(-214.5873886301,-109.9189945745));
#52 = CARTESIAN_POINT('',(-138.5748093543,-99.96228419949));
#53 = CARTESIAN_POINT('',(2.612375373579,-76.58953691589));
#54 = CARTESIAN_POINT('',(75.808229497379,-74.15471239606));
#55 = CARTESIAN_POINT('',(482.31132207951,-77.67710995642));
#56 = CARTESIAN_POINT('',(623.73244785182,-78.29112122193));
#57 = CARTESIAN_POINT('',(745.82576515503,-69.11067762279));
#58 = ( GEOMETRIC_REPRESENTATION_CONTEXT(2) 
PARAMETRIC_REPRESENTATION_CONTEXT() REPRESENTATION_CONTEXT('2D SPACE',''
  ) );
#59 = ORIENTED_EDGE('',*,*,#60,.T.);
#60 = EDGE_CURVE('',#24,#61,#63,.T.);
#61 = VERTEX_POINT('',#62);
#62 = CARTESIAN_POINT('',(1.5E+03,144.11067762279,0.));
#63 = SURFACE_CURVE('',#64,(#68),.PCURVE_S1.);
#64 = LINE('',#65,#66);
#65 = CARTESIAN_POINT('',(1.5E+03,5.889322377208,0.));
#66 = VECTOR('',#67,1.);
#67 = DIRECTION('',(0.,1.,0.));
#68 = PCURVE('',#40,#69);
#69 = DEFINITIONAL_REPRESENTATION('',(#70),#74);
#70 = LINE('',#71,#72);
#71 = CARTESIAN_POINT('',(745.82576515503,-69.11067762279));
#72 = VECTOR('',#73,1.);
#73 = DIRECTION('',(0.,1.));
#74 = ( GEOMETRIC_REPRESENTATION_CONTEXT(2) 
PARAMETRIC_REPRESENTATION_CONTEXT() REPRESENTATION_CONTEXT('2D SPACE',''
  ) );
#75 = ORIENTED_EDGE('',*,*,#76,.T.);
#76 = EDGE_CURVE('',#61,#77,#79,.T.);
#77 = VERTEX_POINT('',#78);
#78 = CARTESIAN_POINT('',(0.,127.3565763479,0.));
#79 = SURFACE_CURVE('',#80,(#92),.PCURVE_S1.);
#80 = B_SPLINE_CURVE_WITH_KNOTS('',1,(#81,#82,#83,#84,#85,#86,#87,#88,
    #89,#90,#91),.UNSPECIFIED.,.F.,.F.,(2,1,1,1,1,1,1,1,1,1,2),(0.,
    8.051381919713E-02,0.173511615905,0.440833450958,0.488992832998,
    0.583099497539,0.633511494988,0.661409697809,0.762427084927,
    0.796129643094,1.),.UNSPECIFIED.);
#81 = CARTESIAN_POINT('',(1.5E+03,144.11067762279,0.));
#82 = CARTESIAN_POINT('',(1.377906682697E+03,153.29112122193,0.));
#83 = CARTESIAN_POINT('',(1.236485556924E+03,152.67710995642,0.));
#84 = CARTESIAN_POINT('',(829.98246434234,149.15471239606,0.));
#85 = CARTESIAN_POINT('',(756.78661021854,151.58953691589,0.));
#86 = CARTESIAN_POINT('',(615.59942549059,174.96228419949,0.));
#87 = CARTESIAN_POINT('',(539.58684621485,184.9189945745,0.));
#88 = CARTESIAN_POINT('',(497.42105885985,189.60171097267,0.));
#89 = CARTESIAN_POINT('',(360.72425443033,119.51286565667,0.));
#90 = CARTESIAN_POINT('',(310.02703632722,127.03168513951,0.));
#91 = CARTESIAN_POINT('',(0.,127.3565763479,0.));
#92 = PCURVE('',#40,#93);
#93 = DEFINITIONAL_REPRESENTATION('',(#94),#106);
#94 = B_SPLINE_CURVE_WITH_KNOTS('',1,(#95,#96,#97,#98,#99,#100,#101,#102
    ,#103,#104,#105),.UNSPECIFIED.,.F.,.F.,(2,1,1,1,1,1,1,1,1,1,2),(0.,
    8.051381919713E-02,0.173511615905,0.440833450958,0.488992832998,
    0.583099497539,0.633511494988,0.661409697809,0.762427084927,
    0.796129643094,1.),.UNSPECIFIED.);
#95 = CARTESIAN_POINT('',(745.82576515503,69.110677622792));
#96 = CARTESIAN_POINT('',(623.73244785182,78.291121221938));
#97 = CARTESIAN_POINT('',(482.31132207951,77.677109956425));
#98 = CARTESIAN_POINT('',(75.808229497379,74.154712396068));
#99 = CARTESIAN_POINT('',(2.612375373579,76.589536915896));
#100 = CARTESIAN_POINT('',(-138.5748093543,99.962284199492));
#101 = CARTESIAN_POINT('',(-214.5873886301,109.9189945745));
#102 = CARTESIAN_POINT('',(-256.7531759851,114.60171097267));
#103 = CARTESIAN_POINT('',(-393.4499804146,44.512865656673));
#104 = CARTESIAN_POINT('',(-444.1471985177,52.031685139513));
#105 = CARTESIAN_POINT('',(-754.1742348449,52.356576347909));
#106 = ( GEOMETRIC_REPRESENTATION_CONTEXT(2) 
PARAMETRIC_REPRESENTATION_CONTEXT() REPRESENTATION_CONTEXT('2D SPACE',''
  ) );
#107 = ORIENTED_EDGE('',*,*,#108,.T.);
#108 = EDGE_CURVE('',#77,#22,#109,.T.);
#109 = SURFACE_CURVE('',#110,(#114),.PCURVE_S1.);
#110 = LINE('',#111,#112);
#111 = CARTESIAN_POINT('',(0.,127.3565763479,0.));
#112 = VECTOR('',#113,1.);
#113 = DIRECTION('',(0.,-1.,0.));
#114 = PCURVE('',#40,#115);
#115 = DEFINITIONAL_REPRESENTATION('',(#116),#120);
#116 = LINE('',#117,#118);
#117 = CARTESIAN_POINT('',(-754.1742348449,52.356576347909));
#118 = VECTOR('',#119,1.);
#119 = DIRECTION('',(0.,-1.));
#120 = ( GEOMETRIC_REPRESENTATION_CONTEXT(2) 
PARAMETRIC_REPRESENTATION_CONTEXT() REPRESENTATION_CONTEXT('2D SPACE',''
  ) );
#121 = ( GEOMETRIC_REPRESENTATION_CONTEXT(3) 
GLOBAL_UNCERTAINTY_ASSIGNED_CONTEXT((#125)) GLOBAL_UNIT_ASSIGNED_CONTEXT
((#122,#123,#124)) REPRESENTATION_CONTEXT('Context #1',
  '3D Context with UNIT and UNCERTAINTY') );
#122 = ( LENGTH_UNIT() NAMED_UNIT(*) SI_UNIT(.MILLI.,.METRE.) );
#123 = ( NAMED_UNIT(*) PLANE_ANGLE_UNIT() SI_UNIT($,.RADIAN.) );
#124 = ( NAMED_UNIT(*) SI_UNIT($,.STERADIAN.) SOLID_ANGLE_UNIT() );
#125 = UNCERTAINTY_MEASURE_WITH_UNIT(LENGTH_MEASURE(1.E-07),#122,
  'distance_accuracy_value','confusion accuracy');
#126 = PRODUCT_RELATED_PRODUCT_CATEGORY('part',$,(#7));
ENDSEC;
END-ISO-10303-21;
