ISO-10303-21;
HEADER;
FILE_DESCRIPTION(('Open CASCADE Model'),'2;1');
FILE_NAME('Open CASCADE Shape Model','2026-05-28T17:04:49',('Author'),(
    'Open CASCADE'),'Open CASCADE STEP processor 7.9','Open CASCADE 7.9'
  ,'Unknown');
FILE_SCHEMA(('AUTOMOTIVE_DESIGN { 1 0 10303 214 1 1 1 1 }'));
ENDSEC;
DATA;
#1 = APPLICATION_PROTOCOL_DEFINITION('international standard',
  'automotive_design',2000,#2);
#2 = APPLICATION_CONTEXT(
  'core data for automotive mechanical design processes');
#3 = SHAPE_DEFINITION_REPRESENTATION(#4,#10);
#4 = PRODUCT_DEFINITION_SHAPE('','',#5);
#5 = PRODUCT_DEFINITION('design','',#6,#9);
#6 = PRODUCT_DEFINITION_FORMATION('','',#7);
#7 = PRODUCT('Open CASCADE STEP translator 7.9 37',
  'Open CASCADE STEP translator 7.9 37','',(#8));
#8 = PRODUCT_CONTEXT('',#2,'mechanical');
#9 = PRODUCT_DEFINITION_CONTEXT('part definition',#2,'design');
#10 = MANIFOLD_SURFACE_SHAPE_REPRESENTATION('',(#11,#15),#177);
#11 = AXIS2_PLACEMENT_3D('',#12,#13,#14);
#12 = CARTESIAN_POINT('',(0.,0.,0.));
#13 = DIRECTION('',(0.,0.,1.));
#14 = DIRECTION('',(1.,0.,-0.));
#15 = SHELL_BASED_SURFACE_MODEL('',(#16));
#16 = OPEN_SHELL('',(#17));
#17 = ADVANCED_FACE('',(#18),#54,.T.);
#18 = FACE_BOUND('',#19,.T.);
#19 = EDGE_LOOP('',(#20,#87,#103,#163));
#20 = ORIENTED_EDGE('',*,*,#21,.T.);
#21 = EDGE_CURVE('',#22,#24,#26,.T.);
#22 = VERTEX_POINT('',#23);
#23 = CARTESIAN_POINT('',(0.,4.867901968324E-02,0.));
#24 = VERTEX_POINT('',#25);
#25 = CARTESIAN_POINT('',(4.8,9.870805636459E-03,0.));
#26 = SURFACE_CURVE('',#27,(#53),.PCURVE_S1.);
#27 = B_SPLINE_CURVE_WITH_KNOTS('',1,(#28,#29,#30,#31,#32,#33,#34,#35,
    #36,#37,#38,#39,#40,#41,#42,#43,#44,#45,#46,#47,#48,#49,#50,#51,#52)
  ,.UNSPECIFIED.,.F.,.F.,(2,1,1,1,1,1,1,1,1,1,1,1,1,1,1,1,1,1,1,1,1,1,1,
    1,2),(0.,3.176046039933E-02,9.264762799815E-02,0.190967140412,
    0.206759424804,0.307793947252,0.326023534096,0.33858469559,
    0.349984730351,0.387700698661,0.406569741311,0.452992399355,
    0.518754997389,0.546135976997,0.757701129063,0.766452244395,
    0.770050762816,0.776734671827,0.80906249039,0.847435779069,
    0.897776415238,0.930707908866,0.933111101305,0.991133883037,1.),
  .UNSPECIFIED.);
#28 = CARTESIAN_POINT('',(0.,4.867901968324E-02,0.));
#29 = CARTESIAN_POINT('',(0.120983746206,-5.931230149959E-02,0.));
#30 = CARTESIAN_POINT('',(0.430710133158,-3.241088617906E-02,0.));
#31 = CARTESIAN_POINT('',(0.926120335169,4.880749136108E-02,0.));
#32 = CARTESIAN_POINT('',(0.970148640751,-1.87475577726E-02,0.));
#33 = CARTESIAN_POINT('',(1.480606187989,5.589847068861E-02,0.));
#34 = CARTESIAN_POINT('',(1.509991531372,-3.24224339333E-02,0.));
#35 = CARTESIAN_POINT('',(1.574034640947,-3.590675059909E-02,0.));
#36 = CARTESIAN_POINT('',(1.627237154894,-1.228923037097E-02,0.));
#37 = CARTESIAN_POINT('',(1.817380451686,-4.282324702999E-02,0.));
#38 = CARTESIAN_POINT('',(1.848805139309,4.825400637422E-02,0.));
#39 = CARTESIAN_POINT('',(2.084876391481,2.68891389551E-02,0.));
#40 = CARTESIAN_POINT('',(2.420252906581,1.029869740888E-02,0.));
#41 = CARTESIAN_POINT('',(2.552754507734,5.490504566063E-02,0.));
#42 = CARTESIAN_POINT('',(3.6319172516,6.21406949146E-03,0.));
#43 = CARTESIAN_POINT('',(3.670832102077,2.817438526649E-02,0.));
#44 = CARTESIAN_POINT('',(3.681002726915,1.287179854779E-02,0.));
#45 = CARTESIAN_POINT('',(3.714909305461,8.987684160923E-03,0.));
#46 = CARTESIAN_POINT('',(3.87071389822,-4.552940801852E-02,0.));
#47 = CARTESIAN_POINT('',(4.052507316396,2.755908353668E-02,0.));
#48 = CARTESIAN_POINT('',(4.298421970545,-4.724917544595E-02,0.));
#49 = CARTESIAN_POINT('',(4.456925640275,8.883484222458E-03,0.));
#50 = CARTESIAN_POINT('',(4.46036277123,2.066307351672E-02,0.));
#51 = CARTESIAN_POINT('',(4.755886874645,-3.014459202175E-04,0.));
#52 = CARTESIAN_POINT('',(4.8,9.870805636459E-03,0.));
#53 = PCURVE('',#54,#59);
#54 = PLANE('',#55);
#55 = AXIS2_PLACEMENT_3D('',#56,#57,#58);
#56 = CARTESIAN_POINT('',(2.388282662152,0.1,0.));
#57 = DIRECTION('',(0.,0.,1.));
#58 = DIRECTION('',(1.,0.,-0.));
#59 = DEFINITIONAL_REPRESENTATION('',(#60),#86);
#60 = B_SPLINE_CURVE_WITH_KNOTS('',1,(#61,#62,#63,#64,#65,#66,#67,#68,
    #69,#70,#71,#72,#73,#74,#75,#76,#77,#78,#79,#80,#81,#82,#83,#84,#85)
  ,.UNSPECIFIED.,.F.,.F.,(2,1,1,1,1,1,1,1,1,1,1,1,1,1,1,1,1,1,1,1,1,1,1,
    1,2),(0.,3.176046039933E-02,9.264762799815E-02,0.190967140412,
    0.206759424804,0.307793947252,0.326023534096,0.33858469559,
    0.349984730351,0.387700698661,0.406569741311,0.452992399355,
    0.518754997389,0.546135976997,0.757701129063,0.766452244395,
    0.770050762816,0.776734671827,0.80906249039,0.847435779069,
    0.897776415238,0.930707908866,0.933111101305,0.991133883037,1.),
  .UNSPECIFIED.);
#61 = CARTESIAN_POINT('',(-2.388282662152,-5.132098031676E-02));
#62 = CARTESIAN_POINT('',(-2.267298915947,-0.1593123015));
#63 = CARTESIAN_POINT('',(-1.957572528994,-0.132410886179));
#64 = CARTESIAN_POINT('',(-1.462162326984,-5.119250863892E-02));
#65 = CARTESIAN_POINT('',(-1.418134021401,-0.118747557773));
#66 = CARTESIAN_POINT('',(-0.907676474163,-4.410152931139E-02));
#67 = CARTESIAN_POINT('',(-0.87829113078,-0.132422433933));
#68 = CARTESIAN_POINT('',(-0.814248021205,-0.135906750599));
#69 = CARTESIAN_POINT('',(-0.761045507259,-0.112289230371));
#70 = CARTESIAN_POINT('',(-0.570902210467,-0.14282324703));
#71 = CARTESIAN_POINT('',(-0.539477522844,-5.174599362578E-02));
#72 = CARTESIAN_POINT('',(-0.303406270671,-7.31108610449E-02));
#73 = CARTESIAN_POINT('',(3.197024442888E-02,-8.970130259112E-02));
#74 = CARTESIAN_POINT('',(0.164471845582,-4.509495433937E-02));
#75 = CARTESIAN_POINT('',(1.243634589447,-9.378593050854E-02));
#76 = CARTESIAN_POINT('',(1.282549439924,-7.182561473351E-02));
#77 = CARTESIAN_POINT('',(1.292720064762,-8.712820145221E-02));
#78 = CARTESIAN_POINT('',(1.326626643308,-9.101231583908E-02));
#79 = CARTESIAN_POINT('',(1.482431236068,-0.145529408019));
#80 = CARTESIAN_POINT('',(1.664224654243,-7.244091646332E-02));
#81 = CARTESIAN_POINT('',(1.910139308393,-0.147249175446));
#82 = CARTESIAN_POINT('',(2.068642978123,-9.111651577754E-02));
#83 = CARTESIAN_POINT('',(2.072080109077,-7.933692648328E-02));
#84 = CARTESIAN_POINT('',(2.367604212493,-0.10030144592));
#85 = CARTESIAN_POINT('',(2.411717337848,-9.012919436354E-02));
#86 = ( GEOMETRIC_REPRESENTATION_CONTEXT(2) 
PARAMETRIC_REPRESENTATION_CONTEXT() REPRESENTATION_CONTEXT('2D SPACE',''
  ) );
#87 = ORIENTED_EDGE('',*,*,#88,.T.);
#88 = EDGE_CURVE('',#24,#89,#91,.T.);
#89 = VERTEX_POINT('',#90);
#90 = CARTESIAN_POINT('',(4.8,0.190129194364,0.));
#91 = SURFACE_CURVE('',#92,(#96),.PCURVE_S1.);
#92 = LINE('',#93,#94);
#93 = CARTESIAN_POINT('',(4.8,9.870805636459E-03,0.));
#94 = VECTOR('',#95,1.);
#95 = DIRECTION('',(0.,1.,0.));
#96 = PCURVE('',#54,#97);
#97 = DEFINITIONAL_REPRESENTATION('',(#98),#102);
#98 = LINE('',#99,#100);
#99 = CARTESIAN_POINT('',(2.411717337848,-9.012919436354E-02));
#100 = VECTOR('',#101,1.);
#101 = DIRECTION('',(0.,1.));
#102 = ( GEOMETRIC_REPRESENTATION_CONTEXT(2) 
PARAMETRIC_REPRESENTATION_CONTEXT() REPRESENTATION_CONTEXT('2D SPACE',''
  ) );
#103 = ORIENTED_EDGE('',*,*,#104,.T.);
#104 = EDGE_CURVE('',#89,#105,#107,.T.);
#105 = VERTEX_POINT('',#106);
#106 = CARTESIAN_POINT('',(0.,0.151320980317,0.));
#107 = SURFACE_CURVE('',#108,(#134),.PCURVE_S1.);
#108 = B_SPLINE_CURVE_WITH_KNOTS('',1,(#109,#110,#111,#112,#113,#114,
    #115,#116,#117,#118,#119,#120,#121,#122,#123,#124,#125,#126,#127,
    #128,#129,#130,#131,#132,#133),.UNSPECIFIED.,.F.,.F.,(2,1,1,1,1,1,1,
    1,1,1,1,1,1,1,1,1,1,1,1,1,1,1,1,1,2),(0.,8.866116963098E-03,
    6.688889869457E-02,6.929209113359E-02,0.102223584762,0.152564220931,
    0.19093750961,0.223265328173,0.229949237184,0.233547755605,
    0.242298870937,0.453864023003,0.481245002611,0.547007600645,
    0.593430258689,0.612299301339,0.650015269649,0.66141530441,
    0.673976465904,0.692206052748,0.793240575196,0.809032859588,
    0.907352372002,0.968239539601,1.),.UNSPECIFIED.);
#109 = CARTESIAN_POINT('',(4.8,0.190129194364,0.));
#110 = CARTESIAN_POINT('',(4.755886874645,0.20030144592,0.));
#111 = CARTESIAN_POINT('',(4.46036277123,0.179336926483,0.));
#112 = CARTESIAN_POINT('',(4.456925640275,0.191116515778,0.));
#113 = CARTESIAN_POINT('',(4.298421970545,0.247249175446,0.));
#114 = CARTESIAN_POINT('',(4.052507316396,0.172440916463,0.));
#115 = CARTESIAN_POINT('',(3.87071389822,0.245529408019,0.));
#116 = CARTESIAN_POINT('',(3.714909305461,0.191012315839,0.));
#117 = CARTESIAN_POINT('',(3.681002726915,0.187128201452,0.));
#118 = CARTESIAN_POINT('',(3.670832102077,0.171825614734,0.));
#119 = CARTESIAN_POINT('',(3.6319172516,0.193785930509,0.));
#120 = CARTESIAN_POINT('',(2.552754507734,0.145094954339,0.));
#121 = CARTESIAN_POINT('',(2.420252906581,0.189701302591,0.));
#122 = CARTESIAN_POINT('',(2.084876391481,0.173110861045,0.));
#123 = CARTESIAN_POINT('',(1.848805139309,0.151745993626,0.));
#124 = CARTESIAN_POINT('',(1.817380451686,0.24282324703,0.));
#125 = CARTESIAN_POINT('',(1.627237154894,0.212289230371,0.));
#126 = CARTESIAN_POINT('',(1.574034640947,0.235906750599,0.));
#127 = CARTESIAN_POINT('',(1.509991531372,0.232422433933,0.));
#128 = CARTESIAN_POINT('',(1.480606187989,0.144101529311,0.));
#129 = CARTESIAN_POINT('',(0.970148640751,0.218747557773,0.));
#130 = CARTESIAN_POINT('',(0.926120335169,0.151192508639,0.));
#131 = CARTESIAN_POINT('',(0.430710133158,0.232410886179,0.));
#132 = CARTESIAN_POINT('',(0.120983746206,0.2593123015,0.));
#133 = CARTESIAN_POINT('',(0.,0.151320980317,0.));
#134 = PCURVE('',#54,#135);
#135 = DEFINITIONAL_REPRESENTATION('',(#136),#162);
#136 = B_SPLINE_CURVE_WITH_KNOTS('',1,(#137,#138,#139,#140,#141,#142,
    #143,#144,#145,#146,#147,#148,#149,#150,#151,#152,#153,#154,#155,
    #156,#157,#158,#159,#160,#161),.UNSPECIFIED.,.F.,.F.,(2,1,1,1,1,1,1,
    1,1,1,1,1,1,1,1,1,1,1,1,1,1,1,1,1,2),(0.,8.866116963098E-03,
    6.688889869457E-02,6.929209113359E-02,0.102223584762,0.152564220931,
    0.19093750961,0.223265328173,0.229949237184,0.233547755605,
    0.242298870937,0.453864023003,0.481245002611,0.547007600645,
    0.593430258689,0.612299301339,0.650015269649,0.66141530441,
    0.673976465904,0.692206052748,0.793240575196,0.809032859588,
    0.907352372002,0.968239539601,1.),.UNSPECIFIED.);
#137 = CARTESIAN_POINT('',(2.411717337848,9.012919436354E-02));
#138 = CARTESIAN_POINT('',(2.367604212493,0.10030144592));
#139 = CARTESIAN_POINT('',(2.072080109077,7.933692648328E-02));
#140 = CARTESIAN_POINT('',(2.068642978123,9.111651577754E-02));
#141 = CARTESIAN_POINT('',(1.910139308393,0.147249175446));
#142 = CARTESIAN_POINT('',(1.664224654243,7.244091646332E-02));
#143 = CARTESIAN_POINT('',(1.482431236068,0.145529408019));
#144 = CARTESIAN_POINT('',(1.326626643308,9.101231583908E-02));
#145 = CARTESIAN_POINT('',(1.292720064762,8.712820145221E-02));
#146 = CARTESIAN_POINT('',(1.282549439924,7.182561473351E-02));
#147 = CARTESIAN_POINT('',(1.243634589447,9.378593050854E-02));
#148 = CARTESIAN_POINT('',(0.164471845582,4.509495433937E-02));
#149 = CARTESIAN_POINT('',(3.197024442888E-02,8.970130259112E-02));
#150 = CARTESIAN_POINT('',(-0.303406270671,7.31108610449E-02));
#151 = CARTESIAN_POINT('',(-0.539477522844,5.174599362578E-02));
#152 = CARTESIAN_POINT('',(-0.570902210467,0.14282324703));
#153 = CARTESIAN_POINT('',(-0.761045507259,0.112289230371));
#154 = CARTESIAN_POINT('',(-0.814248021205,0.135906750599));
#155 = CARTESIAN_POINT('',(-0.87829113078,0.132422433933));
#156 = CARTESIAN_POINT('',(-0.907676474163,4.410152931139E-02));
#157 = CARTESIAN_POINT('',(-1.418134021401,0.118747557773));
#158 = CARTESIAN_POINT('',(-1.462162326984,5.119250863892E-02));
#159 = CARTESIAN_POINT('',(-1.957572528994,0.132410886179));
#160 = CARTESIAN_POINT('',(-2.267298915947,0.1593123015));
#161 = CARTESIAN_POINT('',(-2.388282662152,5.132098031676E-02));
#162 = ( GEOMETRIC_REPRESENTATION_CONTEXT(2) 
PARAMETRIC_REPRESENTATION_CONTEXT() REPRESENTATION_CONTEXT('2D SPACE',''
  ) );
#163 = ORIENTED_EDGE('',*,*,#164,.T.);
#164 = EDGE_CURVE('',#105,#22,#165,.T.);
#165 = SURFACE_CURVE('',#166,(#170),.PCURVE_S1.);
#166 = LINE('',#167,#168);
#167 = CARTESIAN_POINT('',(0.,0.151320980317,0.));
#168 = VECTOR('',#169,1.);
#169 = DIRECTION('',(0.,-1.,0.));
#170 = PCURVE('',#54,#171);
#171 = DEFINITIONAL_REPRESENTATION('',(#172),#176);
#172 = LINE('',#173,#174);
#173 = CARTESIAN_POINT('',(-2.388282662152,5.132098031676E-02));
#174 = VECTOR('',#175,1.);
#175 = DIRECTION('',(0.,-1.));
#176 = ( GEOMETRIC_REPRESENTATION_CONTEXT(2) 
PARAMETRIC_REPRESENTATION_CONTEXT() REPRESENTATION_CONTEXT('2D SPACE',''
  ) );
#177 = ( GEOMETRIC_REPRESENTATION_CONTEXT(3) 
GLOBAL_UNCERTAINTY_ASSIGNED_CONTEXT((#181)) GLOBAL_UNIT_ASSIGNED_CONTEXT
((#178,#179,#180)) REPRESENTATION_CONTEXT('Context #1',
  '3D Context with UNIT and UNCERTAINTY') );
#178 = ( LENGTH_UNIT() NAMED_UNIT(*) SI_UNIT(.MILLI.,.METRE.) );
#179 = ( NAMED_UNIT(*) PLANE_ANGLE_UNIT() SI_UNIT($,.RADIAN.) );
#180 = ( NAMED_UNIT(*) SI_UNIT($,.STERADIAN.) SOLID_ANGLE_UNIT() );
#181 = UNCERTAINTY_MEASURE_WITH_UNIT(LENGTH_MEASURE(1.E-07),#178,
  'distance_accuracy_value','confusion accuracy');
#182 = PRODUCT_RELATED_PRODUCT_CATEGORY('part',$,(#7));
ENDSEC;
END-ISO-10303-21;
