ISO-10303-21;
HEADER;
FILE_DESCRIPTION(('Open CASCADE Model'),'2;1');
FILE_NAME('Open CASCADE Shape Model','2026-05-28T17:04:49',('Author'),(
    'Open CASCADE'),'Open CASCADE STEP processor 7.9','Open CASCADE 7.9'
  ,'Unknown');
FILE_SCHEMA(('AUTOMOTIVE_DESIGN { 1 0 10303 214 1 1 1 1 }'));
ENDSEC;
DATA;
#1 = APPLICATION_PROTOCOL_DEFINITION('international standard',
  'automotive_design',2000,#2);
#2 = APPLICATION_CONTEXT(
  'core data for automotive mechanical design processes');
#3 = SHAPE_DEFINITION_REPRESENTATION(#4,#10);
#4 = PRODUCT_DEFINITION_SHAPE('','',#5);
#5 = PRODUCT_DEFINITION('design','',#6,#9);
#6 = PRODUCT_DEFINITION_FORMATION('','',#7);
#7 = PRODUCT('Open CASCADE STEP translator 7.9 53',
  'Open CASCADE STEP translator 7.9 53','',(#8));
#8 = PRODUCT_CONTEXT('',#2,'mechanical');
#9 = PRODUCT_DEFINITION_CONTEXT('part definition',#2,'design');
#10 = MANIFOLD_SURFACE_SHAPE_REPRESENTATION('',(#11,#15),#165);
#11 = AXIS2_PLACEMENT_3D('',#12,#13,#14);
#12 = CARTESIAN_POINT('',(0.,0.,0.));
#13 = DIRECTION('',(0.,0.,1.));
#14 = DIRECTION('',(1.,0.,-0.));
#15 = SHELL_BASED_SURFACE_MODEL('',(#16));
#16 = OPEN_SHELL('',(#17));
#17 = ADVANCED_FACE('',(#18),#51,.T.);
#18 = FACE_BOUND('',#19,.T.);
#19 = EDGE_LOOP('',(#20,#81,#97,#151));
#20 = ORIENTED_EDGE('',*,*,#21,.T.);
#21 = EDGE_CURVE('',#22,#24,#26,.T.);
#22 = VERTEX_POINT('',#23);
#23 = CARTESIAN_POINT('',(0.,-4.813263757808E-02,0.));
#24 = VERTEX_POINT('',#25);
#25 = CARTESIAN_POINT('',(4.2,1.75369632812E-02,0.));
#26 = SURFACE_CURVE('',#27,(#50),.PCURVE_S1.);
#27 = B_SPLINE_CURVE_WITH_KNOTS('',1,(#28,#29,#30,#31,#32,#33,#34,#35,
    #36,#37,#38,#39,#40,#41,#42,#43,#44,#45,#46,#47,#48,#49),
  .UNSPECIFIED.,.F.,.F.,(2,1,1,1,1,1,1,1,1,1,1,1,1,1,1,1,1,1,1,1,1,2),(
    0.,0.119915717872,0.147999167937,0.165925269029,0.191815458503,
    0.195014072185,0.255577610178,0.27913311625,0.289808547961,
    0.343355051371,0.346918384219,0.436054064576,0.469210533908,
    0.489363292542,0.569723853608,0.652855937197,0.674852356766,
    0.690784912008,0.713482886055,0.734434508432,0.948253946757,1.),
  .UNSPECIFIED.);
#28 = CARTESIAN_POINT('',(0.,-4.813263757808E-02,0.));
#29 = CARTESIAN_POINT('',(0.541285099616,4.82020090649E-02,0.));
#30 = CARTESIAN_POINT('',(0.669870901396,5.484508471492E-02,0.));
#31 = CARTESIAN_POINT('',(0.681155726764,-2.656426530166E-02,0.));
#32 = CARTESIAN_POINT('',(0.799761919599,-3.132258875778E-02,0.));
#33 = CARTESIAN_POINT('',(0.810631651867,-4.116698891589E-02,0.));
#34 = CARTESIAN_POINT('',(1.071783351633,5.3181878592E-02,0.));
#35 = CARTESIAN_POINT('',(1.13656491982,-3.322884659482E-02,0.));
#36 = CARTESIAN_POINT('',(1.145911102041,1.481535206441E-02,0.));
#37 = CARTESIAN_POINT('',(1.391254453308,2.359948407814E-02,0.));
#38 = CARTESIAN_POINT('',(1.395983967152,3.92371294388E-02,0.));
#39 = CARTESIAN_POINT('',(1.79254161099,-5.95218906123E-02,0.));
#40 = CARTESIAN_POINT('',(1.895455457042,5.236036928174E-02,0.));
#41 = CARTESIAN_POINT('',(1.90755184915,-3.924096175296E-02,0.));
#42 = CARTESIAN_POINT('',(2.275302000986,-1.673933225886E-02,0.));
#43 = CARTESIAN_POINT('',(2.656274185701,-2.820965331142E-02,0.));
#44 = CARTESIAN_POINT('',(2.757084615878,-2.540605439062E-02,0.));
#45 = CARTESIAN_POINT('',(2.827978891088,-4.301213820878E-02,0.));
#46 = CARTESIAN_POINT('',(2.893367433553,3.794495161727E-02,0.));
#47 = CARTESIAN_POINT('',(2.986883752415,5.990104597984E-02,0.));
#48 = CARTESIAN_POINT('',(3.964577928623,-1.182341868519E-02,0.));
#49 = CARTESIAN_POINT('',(4.2,1.75369632812E-02,0.));
#50 = PCURVE('',#51,#56);
#51 = PLANE('',#52);
#52 = AXIS2_PLACEMENT_3D('',#53,#54,#55);
#53 = CARTESIAN_POINT('',(2.024717022888,0.1,0.));
#54 = DIRECTION('',(0.,0.,1.));
#55 = DIRECTION('',(1.,0.,-0.));
#56 = DEFINITIONAL_REPRESENTATION('',(#57),#80);
#57 = B_SPLINE_CURVE_WITH_KNOTS('',1,(#58,#59,#60,#61,#62,#63,#64,#65,
    #66,#67,#68,#69,#70,#71,#72,#73,#74,#75,#76,#77,#78,#79),
  .UNSPECIFIED.,.F.,.F.,(2,1,1,1,1,1,1,1,1,1,1,1,1,1,1,1,1,1,1,1,1,2),(
    0.,0.119915717872,0.147999167937,0.165925269029,0.191815458503,
    0.195014072185,0.255577610178,0.27913311625,0.289808547961,
    0.343355051371,0.346918384219,0.436054064576,0.469210533908,
    0.489363292542,0.569723853608,0.652855937197,0.674852356766,
    0.690784912008,0.713482886055,0.734434508432,0.948253946757,1.),
  .UNSPECIFIED.);
#58 = CARTESIAN_POINT('',(-2.024717022888,-0.148132637578));
#59 = CARTESIAN_POINT('',(-1.483431923272,-5.17979909351E-02));
#60 = CARTESIAN_POINT('',(-1.354846121492,-4.515491528508E-02));
#61 = CARTESIAN_POINT('',(-1.343561296124,-0.126564265302));
#62 = CARTESIAN_POINT('',(-1.224955103289,-0.131322588758));
#63 = CARTESIAN_POINT('',(-1.214085371021,-0.141166988916));
#64 = CARTESIAN_POINT('',(-0.952933671255,-4.6818121408E-02));
#65 = CARTESIAN_POINT('',(-0.888152103068,-0.133228846595));
#66 = CARTESIAN_POINT('',(-0.878805920847,-8.518464793559E-02));
#67 = CARTESIAN_POINT('',(-0.63346256958,-7.640051592186E-02));
#68 = CARTESIAN_POINT('',(-0.628733055736,-6.07628705612E-02));
#69 = CARTESIAN_POINT('',(-0.232175411897,-0.159521890612));
#70 = CARTESIAN_POINT('',(-0.129261565846,-4.763963071826E-02));
#71 = CARTESIAN_POINT('',(-0.117165173738,-0.139240961753));
#72 = CARTESIAN_POINT('',(0.250584978098,-0.116739332259));
#73 = CARTESIAN_POINT('',(0.631557162813,-0.128209653311));
#74 = CARTESIAN_POINT('',(0.73236759299,-0.125406054391));
#75 = CARTESIAN_POINT('',(0.8032618682,-0.143012138209));
#76 = CARTESIAN_POINT('',(0.868650410665,-6.205504838273E-02));
#77 = CARTESIAN_POINT('',(0.962166729528,-4.009895402016E-02));
#78 = CARTESIAN_POINT('',(1.939860905735,-0.111823418685));
#79 = CARTESIAN_POINT('',(2.175282977112,-8.24630367188E-02));
#80 = ( GEOMETRIC_REPRESENTATION_CONTEXT(2) 
PARAMETRIC_REPRESENTATION_CONTEXT() REPRESENTATION_CONTEXT('2D SPACE',''
  ) );
#81 = ORIENTED_EDGE('',*,*,#82,.T.);
#82 = EDGE_CURVE('',#24,#83,#85,.T.);
#83 = VERTEX_POINT('',#84);
#84 = CARTESIAN_POINT('',(4.2,0.182463036719,0.));
#85 = SURFACE_CURVE('',#86,(#90),.PCURVE_S1.);
#86 = LINE('',#87,#88);
#87 = CARTESIAN_POINT('',(4.2,1.75369632812E-02,0.));
#88 = VECTOR('',#89,1.);
#89 = DIRECTION('',(0.,1.,0.));
#90 = PCURVE('',#51,#91);
#91 = DEFINITIONAL_REPRESENTATION('',(#92),#96);
#92 = LINE('',#93,#94);
#93 = CARTESIAN_POINT('',(2.175282977112,-8.24630367188E-02));
#94 = VECTOR('',#95,1.);
#95 = DIRECTION('',(0.,1.));
#96 = ( GEOMETRIC_REPRESENTATION_CONTEXT(2) 
PARAMETRIC_REPRESENTATION_CONTEXT() REPRESENTATION_CONTEXT('2D SPACE',''
  ) );
#97 = ORIENTED_EDGE('',*,*,#98,.T.);
#98 = EDGE_CURVE('',#83,#99,#101,.T.);
#99 = VERTEX_POINT('',#100);
#100 = CARTESIAN_POINT('',(0.,0.248132637578,0.));
#101 = SURFACE_CURVE('',#102,(#125),.PCURVE_S1.);
#102 = B_SPLINE_CURVE_WITH_KNOTS('',1,(#103,#104,#105,#106,#107,#108,
    #109,#110,#111,#112,#113,#114,#115,#116,#117,#118,#119,#120,#121,
    #122,#123,#124),.UNSPECIFIED.,.F.,.F.,(2,1,1,1,1,1,1,1,1,1,1,1,1,1,1
    ,1,1,1,1,1,1,2),(0.,5.174605324318E-02,0.265565491568,0.286517113945
    ,0.309215087992,0.325147643234,0.347144062803,0.430276146392,
    0.510636707458,0.530789466092,0.563945935424,0.653081615781,
    0.656644948629,0.710191452039,0.72086688375,0.744422389822,
    0.804985927815,0.808184541497,0.834074730971,0.852000832063,
    0.880084282128,1.),.UNSPECIFIED.);
#103 = CARTESIAN_POINT('',(4.2,0.182463036719,0.));
#104 = CARTESIAN_POINT('',(3.964577928623,0.211823418685,0.));
#105 = CARTESIAN_POINT('',(2.986883752415,0.14009895402,0.));
#106 = CARTESIAN_POINT('',(2.893367433553,0.162055048383,0.));
#107 = CARTESIAN_POINT('',(2.827978891088,0.243012138209,0.));
#108 = CARTESIAN_POINT('',(2.757084615878,0.225406054391,0.));
#109 = CARTESIAN_POINT('',(2.656274185701,0.228209653311,0.));
#110 = CARTESIAN_POINT('',(2.275302000986,0.216739332259,0.));
#111 = CARTESIAN_POINT('',(1.90755184915,0.239240961753,0.));
#112 = CARTESIAN_POINT('',(1.895455457042,0.147639630718,0.));
#113 = CARTESIAN_POINT('',(1.79254161099,0.259521890612,0.));
#114 = CARTESIAN_POINT('',(1.395983967152,0.160762870561,0.));
#115 = CARTESIAN_POINT('',(1.391254453308,0.176400515922,0.));
#116 = CARTESIAN_POINT('',(1.145911102041,0.185184647936,0.));
#117 = CARTESIAN_POINT('',(1.13656491982,0.233228846595,0.));
#118 = CARTESIAN_POINT('',(1.071783351633,0.146818121408,0.));
#119 = CARTESIAN_POINT('',(0.810631651867,0.241166988916,0.));
#120 = CARTESIAN_POINT('',(0.799761919599,0.231322588758,0.));
#121 = CARTESIAN_POINT('',(0.681155726764,0.226564265302,0.));
#122 = CARTESIAN_POINT('',(0.669870901396,0.145154915285,0.));
#123 = CARTESIAN_POINT('',(0.541285099616,0.151797990935,0.));
#124 = CARTESIAN_POINT('',(0.,0.248132637578,0.));
#125 = PCURVE('',#51,#126);
#126 = DEFINITIONAL_REPRESENTATION('',(#127),#150);
#127 = B_SPLINE_CURVE_WITH_KNOTS('',1,(#128,#129,#130,#131,#132,#133,
    #134,#135,#136,#137,#138,#139,#140,#141,#142,#143,#144,#145,#146,
    #147,#148,#149),.UNSPECIFIED.,.F.,.F.,(2,1,1,1,1,1,1,1,1,1,1,1,1,1,1
    ,1,1,1,1,1,1,2),(0.,5.174605324318E-02,0.265565491568,0.286517113945
    ,0.309215087992,0.325147643234,0.347144062803,0.430276146392,
    0.510636707458,0.530789466092,0.563945935424,0.653081615781,
    0.656644948629,0.710191452039,0.72086688375,0.744422389822,
    0.804985927815,0.808184541497,0.834074730971,0.852000832063,
    0.880084282128,1.),.UNSPECIFIED.);
#128 = CARTESIAN_POINT('',(2.175282977112,8.24630367188E-02));
#129 = CARTESIAN_POINT('',(1.939860905735,0.111823418685));
#130 = CARTESIAN_POINT('',(0.962166729528,4.009895402016E-02));
#131 = CARTESIAN_POINT('',(0.868650410665,6.205504838273E-02));
#132 = CARTESIAN_POINT('',(0.8032618682,0.143012138209));
#133 = CARTESIAN_POINT('',(0.73236759299,0.125406054391));
#134 = CARTESIAN_POINT('',(0.631557162813,0.128209653311));
#135 = CARTESIAN_POINT('',(0.250584978098,0.116739332259));
#136 = CARTESIAN_POINT('',(-0.117165173738,0.139240961753));
#137 = CARTESIAN_POINT('',(-0.129261565846,4.763963071826E-02));
#138 = CARTESIAN_POINT('',(-0.232175411897,0.159521890612));
#139 = CARTESIAN_POINT('',(-0.628733055736,6.07628705612E-02));
#140 = CARTESIAN_POINT('',(-0.63346256958,7.640051592186E-02));
#141 = CARTESIAN_POINT('',(-0.878805920847,8.518464793559E-02));
#142 = CARTESIAN_POINT('',(-0.888152103068,0.133228846595));
#143 = CARTESIAN_POINT('',(-0.952933671255,4.6818121408E-02));
#144 = CARTESIAN_POINT('',(-1.214085371021,0.141166988916));
#145 = CARTESIAN_POINT('',(-1.224955103289,0.131322588758));
#146 = CARTESIAN_POINT('',(-1.343561296124,0.126564265302));
#147 = CARTESIAN_POINT('',(-1.354846121492,4.515491528508E-02));
#148 = CARTESIAN_POINT('',(-1.483431923272,5.17979909351E-02));
#149 = CARTESIAN_POINT('',(-2.024717022888,0.148132637578));
#150 = ( GEOMETRIC_REPRESENTATION_CONTEXT(2) 
PARAMETRIC_REPRESENTATION_CONTEXT() REPRESENTATION_CONTEXT('2D SPACE',''
  ) );
#151 = ORIENTED_EDGE('',*,*,#152,.T.);
#152 = EDGE_CURVE('',#99,#22,#153,.T.);
#153 = SURFACE_CURVE('',#154,(#158),.PCURVE_S1.);
#154 = LINE('',#155,#156);
#155 = CARTESIAN_POINT('',(0.,0.248132637578,0.));
#156 = VECTOR('',#157,1.);
#157 = DIRECTION('',(0.,-1.,0.));
#158 = PCURVE('',#51,#159);
#159 = DEFINITIONAL_REPRESENTATION('',(#160),#164);
#160 = LINE('',#161,#162);
#161 = CARTESIAN_POINT('',(-2.024717022888,0.148132637578));
#162 = VECTOR('',#163,1.);
#163 = DIRECTION('',(0.,-1.));
#164 = ( GEOMETRIC_REPRESENTATION_CONTEXT(2) 
PARAMETRIC_REPRESENTATION_CONTEXT() REPRESENTATION_CONTEXT('2D SPACE',''
  ) );
#165 = ( GEOMETRIC_REPRESENTATION_CONTEXT(3) 
GLOBAL_UNCERTAINTY_ASSIGNED_CONTEXT((#169)) GLOBAL_UNIT_ASSIGNED_CONTEXT
((#166,#167,#168)) REPRESENTATION_CONTEXT('Context #1',
  '3D Context with UNIT and UNCERTAINTY') );
#166 = ( LENGTH_UNIT() NAMED_UNIT(*) SI_UNIT(.MILLI.,.METRE.) );
#167 = ( NAMED_UNIT(*) PLANE_ANGLE_UNIT() SI_UNIT($,.RADIAN.) );
#168 = ( NAMED_UNIT(*) SI_UNIT($,.STERADIAN.) SOLID_ANGLE_UNIT() );
#169 = UNCERTAINTY_MEASURE_WITH_UNIT(LENGTH_MEASURE(1.E-07),#166,
  'distance_accuracy_value','confusion accuracy');
#170 = PRODUCT_RELATED_PRODUCT_CATEGORY('part',$,(#7));
ENDSEC;
END-ISO-10303-21;
