ISO-10303-21;
HEADER;
FILE_DESCRIPTION(('Open CASCADE Model'),'2;1');
FILE_NAME('Open CASCADE Shape Model','2026-05-28T17:04:49',('Author'),(
    'Open CASCADE'),'Open CASCADE STEP processor 7.9','Open CASCADE 7.9'
  ,'Unknown');
FILE_SCHEMA(('AUTOMOTIVE_DESIGN { 1 0 10303 214 1 1 1 1 }'));
ENDSEC;
DATA;
#1 = APPLICATION_PROTOCOL_DEFINITION('international standard',
  'automotive_design',2000,#2);
#2 = APPLICATION_CONTEXT(
  'core data for automotive mechanical design processes');
#3 = SHAPE_DEFINITION_REPRESENTATION(#4,#10);
#4 = PRODUCT_DEFINITION_SHAPE('','',#5);
#5 = PRODUCT_DEFINITION('design','',#6,#9);
#6 = PRODUCT_DEFINITION_FORMATION('','',#7);
#7 = PRODUCT('Open CASCADE STEP translator 7.9 96',
  'Open CASCADE STEP translator 7.9 96','',(#8));
#8 = PRODUCT_CONTEXT('',#2,'mechanical');
#9 = PRODUCT_DEFINITION_CONTEXT('part definition',#2,'design');
#10 = MANIFOLD_SURFACE_SHAPE_REPRESENTATION('',(#11,#15),#249);
#11 = AXIS2_PLACEMENT_3D('',#12,#13,#14);
#12 = CARTESIAN_POINT('',(0.,0.,0.));
#13 = DIRECTION('',(0.,0.,1.));
#14 = DIRECTION('',(1.,0.,-0.));
#15 = SHELL_BASED_SURFACE_MODEL('',(#16));
#16 = OPEN_SHELL('',(#17));
#17 = ADVANCED_FACE('',(#18),#72,.T.);
#18 = FACE_BOUND('',#19,.T.);
#19 = EDGE_LOOP('',(#20,#123,#139,#235));
#20 = ORIENTED_EDGE('',*,*,#21,.T.);
#21 = EDGE_CURVE('',#22,#24,#26,.T.);
#22 = VERTEX_POINT('',#23);
#23 = CARTESIAN_POINT('',(0.,3.077177330333E-02,0.));
#24 = VERTEX_POINT('',#25);
#25 = CARTESIAN_POINT('',(8.4,-2.240690394697E-02,0.));
#26 = SURFACE_CURVE('',#27,(#71),.PCURVE_S1.);
#27 = B_SPLINE_CURVE_WITH_KNOTS('',1,(#28,#29,#30,#31,#32,#33,#34,#35,
    #36,#37,#38,#39,#40,#41,#42,#43,#44,#45,#46,#47,#48,#49,#50,#51,#52,
    #53,#54,#55,#56,#57,#58,#59,#60,#61,#62,#63,#64,#65,#66,#67,#68,#69,
    #70),.UNSPECIFIED.,.F.,.F.,(2,1,1,1,1,1,1,1,1,1,1,1,1,1,1,1,1,1,1,1,
    1,1,1,1,1,1,1,1,1,1,1,1,1,1,1,1,1,1,1,1,1,1,2),(0.,3.61477672727E-02
    ,3.823198895686E-02,5.331294025608E-02,6.728048124219E-02,
    8.01543436834E-02,8.766986184974E-02,9.010066495781E-02,
    0.143950319583,0.182800829508,0.22272554242,0.238523004476,
    0.241865080432,0.34692187051,0.354357824891,0.377832832337,
    0.407589768998,0.457542130455,0.462808984958,0.485371193072,
    0.517999756549,0.539396359517,0.597769602271,0.604569354264,
    0.666977039141,0.695410800253,0.711296250337,0.73217970837,
    0.740654831513,0.74705499739,0.754121610864,0.794468891838,
    0.857295045229,0.866832396864,0.887289186945,0.900771890975,
    0.921345117159,0.942816758206,0.955891066382,0.963522558367,
    0.98845499204,0.991535958633,1.),.UNSPECIFIED.);
#28 = CARTESIAN_POINT('',(0.,3.077177330333E-02,0.));
#29 = CARTESIAN_POINT('',(0.309114963361,-2.85079393468E-02,0.));
#30 = CARTESIAN_POINT('',(0.315468916731,-4.550710281763E-02,0.));
#31 = CARTESIAN_POINT('',(0.446553842572,-3.775995192969E-02,0.));
#32 = CARTESIAN_POINT('',(0.568172257826,-3.741288938894E-02,0.));
#33 = CARTESIAN_POINT('',(0.672163174424,4.436804149336E-03,0.));
#34 = CARTESIAN_POINT('',(0.72163480158,-3.839879373345E-02,0.));
#35 = CARTESIAN_POINT('',(0.736032455815,-2.288457756256E-02,0.));
#36 = CARTESIAN_POINT('',(1.200104795743,4.41058322227E-02,0.));
#37 = CARTESIAN_POINT('',(1.538378905138,4.629787151226E-02,0.));
#38 = CARTESIAN_POINT('',(1.876934780531,-3.263065631216E-02,0.));
#39 = CARTESIAN_POINT('',(2.013359887065,-1.505569065275E-02,0.));
#40 = CARTESIAN_POINT('',(2.03952781406,-2.325134062965E-03,0.));
#41 = CARTESIAN_POINT('',(2.953098850559,-4.887141490186E-02,0.));
#42 = CARTESIAN_POINT('',(3.010621257018,-1.915084282455E-02,0.));
#43 = CARTESIAN_POINT('',(3.212564610775,1.24623905894E-02,0.));
#44 = CARTESIAN_POINT('',(3.471656991204,1.032818301886E-02,0.));
#45 = CARTESIAN_POINT('',(3.90599853423,-1.262932329811E-02,0.));
#46 = CARTESIAN_POINT('',(3.947915431602,-3.123303416236E-02,0.));
#47 = CARTESIAN_POINT('',(4.142958396089,-7.722396833895E-03,0.));
#48 = CARTESIAN_POINT('',(4.426985214056,-1.051305866302E-03,0.));
#49 = CARTESIAN_POINT('',(4.611442701055,-2.72280843185E-02,0.));
#50 = CARTESIAN_POINT('',(5.119706651552,-2.463174598884E-02,0.));
#51 = CARTESIAN_POINT('',(5.176979606838,-3.964162087363E-02,0.));
#52 = CARTESIAN_POINT('',(5.712511185613,5.249378564672E-02,0.));
#53 = CARTESIAN_POINT('',(5.945732555027,-3.059425584984E-02,0.));
#54 = CARTESIAN_POINT('',(6.080989148246,-1.651254114203E-03,0.));
#55 = CARTESIAN_POINT('',(6.255026099293,5.103682559602E-02,0.));
#56 = CARTESIAN_POINT('',(6.268695165449,-2.148120338034E-02,0.));
#57 = CARTESIAN_POINT('',(6.324240750726,-2.598482328023E-02,0.));
#58 = CARTESIAN_POINT('',(6.381250713499,-2.835260345362E-03,0.));
#59 = CARTESIAN_POINT('',(6.731065540213,-3.525587731797E-02,0.));
#60 = CARTESIAN_POINT('',(7.274893207544,2.397022696448E-02,0.));
#61 = CARTESIAN_POINT('',(7.357094584807,3.577113377623E-02,0.));
#62 = CARTESIAN_POINT('',(7.5343194514,1.791192579081E-02,0.));
#63 = CARTESIAN_POINT('',(7.651500777731,1.079393840448E-02,0.));
#64 = CARTESIAN_POINT('',(7.827321446893,-2.351203228826E-02,0.));
#65 = CARTESIAN_POINT('',(8.013416731044,-4.146239254539E-02,0.));
#66 = CARTESIAN_POINT('',(8.126271835066,-2.651018280944E-02,0.));
#67 = CARTESIAN_POINT('',(8.136663976369,3.912149291165E-02,0.));
#68 = CARTESIAN_POINT('',(8.352527962355,1.605394982397E-02,0.));
#69 = CARTESIAN_POINT('',(8.36241990412,4.099035438627E-02,0.));
#70 = CARTESIAN_POINT('',(8.4,-2.240690394697E-02,0.));
#71 = PCURVE('',#72,#77);
#72 = PLANE('',#73);
#73 = AXIS2_PLACEMENT_3D('',#74,#75,#76);
#74 = CARTESIAN_POINT('',(4.273958735042,0.1,0.));
#75 = DIRECTION('',(0.,0.,1.));
#76 = DIRECTION('',(1.,0.,-0.));
#77 = DEFINITIONAL_REPRESENTATION('',(#78),#122);
#78 = B_SPLINE_CURVE_WITH_KNOTS('',1,(#79,#80,#81,#82,#83,#84,#85,#86,
    #87,#88,#89,#90,#91,#92,#93,#94,#95,#96,#97,#98,#99,#100,#101,#102,
    #103,#104,#105,#106,#107,#108,#109,#110,#111,#112,#113,#114,#115,
    #116,#117,#118,#119,#120,#121),.UNSPECIFIED.,.F.,.F.,(2,1,1,1,1,1,1,
    1,1,1,1,1,1,1,1,1,1,1,1,1,1,1,1,1,1,1,1,1,1,1,1,1,1,1,1,1,1,1,1,1,1,
    1,2),(0.,3.61477672727E-02,3.823198895686E-02,5.331294025608E-02,
    6.728048124219E-02,8.01543436834E-02,8.766986184974E-02,
    9.010066495781E-02,0.143950319583,0.182800829508,0.22272554242,
    0.238523004476,0.241865080432,0.34692187051,0.354357824891,
    0.377832832337,0.407589768998,0.457542130455,0.462808984958,
    0.485371193072,0.517999756549,0.539396359517,0.597769602271,
    0.604569354264,0.666977039141,0.695410800253,0.711296250337,
    0.73217970837,0.740654831513,0.74705499739,0.754121610864,
    0.794468891838,0.857295045229,0.866832396864,0.887289186945,
    0.900771890975,0.921345117159,0.942816758206,0.955891066382,
    0.963522558367,0.98845499204,0.991535958633,1.),.UNSPECIFIED.);
#79 = CARTESIAN_POINT('',(-4.273958735042,-6.922822669667E-02));
#80 = CARTESIAN_POINT('',(-3.964843771681,-0.128507939347));
#81 = CARTESIAN_POINT('',(-3.958489818311,-0.145507102818));
#82 = CARTESIAN_POINT('',(-3.82740489247,-0.13775995193));
#83 = CARTESIAN_POINT('',(-3.705786477216,-0.137412889389));
#84 = CARTESIAN_POINT('',(-3.601795560618,-9.556319585066E-02));
#85 = CARTESIAN_POINT('',(-3.552323933462,-0.138398793733));
#86 = CARTESIAN_POINT('',(-3.537926279227,-0.122884577563));
#87 = CARTESIAN_POINT('',(-3.073853939298,-5.58941677773E-02));
#88 = CARTESIAN_POINT('',(-2.735579829903,-5.370212848774E-02));
#89 = CARTESIAN_POINT('',(-2.397023954511,-0.132630656312));
#90 = CARTESIAN_POINT('',(-2.260598847976,-0.115055690653));
#91 = CARTESIAN_POINT('',(-2.234430920981,-0.102325134063));
#92 = CARTESIAN_POINT('',(-1.320859884482,-0.148871414902));
#93 = CARTESIAN_POINT('',(-1.263337478024,-0.119150842825));
#94 = CARTESIAN_POINT('',(-1.061394124266,-8.75376094106E-02));
#95 = CARTESIAN_POINT('',(-0.802301743838,-8.967181698114E-02));
#96 = CARTESIAN_POINT('',(-0.367960200812,-0.112629323298));
#97 = CARTESIAN_POINT('',(-0.32604330344,-0.131233034162));
#98 = CARTESIAN_POINT('',(-0.131000338952,-0.107722396834));
#99 = CARTESIAN_POINT('',(0.153026479014,-0.101051305866));
#100 = CARTESIAN_POINT('',(0.337483966013,-0.127228084319));
#101 = CARTESIAN_POINT('',(0.84574791651,-0.124631745989));
#102 = CARTESIAN_POINT('',(0.903020871796,-0.139641620874));
#103 = CARTESIAN_POINT('',(1.438552450571,-4.750621435328E-02));
#104 = CARTESIAN_POINT('',(1.671773819985,-0.13059425585));
#105 = CARTESIAN_POINT('',(1.807030413204,-0.101651254114));
#106 = CARTESIAN_POINT('',(1.981067364251,-4.896317440398E-02));
#107 = CARTESIAN_POINT('',(1.994736430407,-0.12148120338));
#108 = CARTESIAN_POINT('',(2.050282015684,-0.12598482328));
#109 = CARTESIAN_POINT('',(2.107291978458,-0.102835260345));
#110 = CARTESIAN_POINT('',(2.457106805172,-0.135255877318));
#111 = CARTESIAN_POINT('',(3.000934472503,-7.602977303552E-02));
#112 = CARTESIAN_POINT('',(3.083135849765,-6.422886622377E-02));
#113 = CARTESIAN_POINT('',(3.260360716358,-8.208807420919E-02));
#114 = CARTESIAN_POINT('',(3.37754204269,-8.920606159552E-02));
#115 = CARTESIAN_POINT('',(3.553362711851,-0.123512032288));
#116 = CARTESIAN_POINT('',(3.739457996002,-0.141462392545));
#117 = CARTESIAN_POINT('',(3.852313100025,-0.126510182809));
#118 = CARTESIAN_POINT('',(3.862705241327,-6.087850708835E-02));
#119 = CARTESIAN_POINT('',(4.078569227314,-8.394605017603E-02));
#120 = CARTESIAN_POINT('',(4.088461169079,-5.900964561373E-02));
#121 = CARTESIAN_POINT('',(4.126041264958,-0.122406903947));
#122 = ( GEOMETRIC_REPRESENTATION_CONTEXT(2) 
PARAMETRIC_REPRESENTATION_CONTEXT() REPRESENTATION_CONTEXT('2D SPACE',''
  ) );
#123 = ORIENTED_EDGE('',*,*,#124,.T.);
#124 = EDGE_CURVE('',#24,#125,#127,.T.);
#125 = VERTEX_POINT('',#126);
#126 = CARTESIAN_POINT('',(8.4,0.222406903947,0.));
#127 = SURFACE_CURVE('',#128,(#132),.PCURVE_S1.);
#128 = LINE('',#129,#130);
#129 = CARTESIAN_POINT('',(8.4,-2.240690394697E-02,0.));
#130 = VECTOR('',#131,1.);
#131 = DIRECTION('',(0.,1.,0.));
#132 = PCURVE('',#72,#133);
#133 = DEFINITIONAL_REPRESENTATION('',(#134),#138);
#134 = LINE('',#135,#136);
#135 = CARTESIAN_POINT('',(4.126041264958,-0.122406903947));
#136 = VECTOR('',#137,1.);
#137 = DIRECTION('',(0.,1.));
#138 = ( GEOMETRIC_REPRESENTATION_CONTEXT(2) 
PARAMETRIC_REPRESENTATION_CONTEXT() REPRESENTATION_CONTEXT('2D SPACE',''
  ) );
#139 = ORIENTED_EDGE('',*,*,#140,.T.);
#140 = EDGE_CURVE('',#125,#141,#143,.T.);
#141 = VERTEX_POINT('',#142);
#142 = CARTESIAN_POINT('',(0.,0.169228226697,0.));
#143 = SURFACE_CURVE('',#144,(#188),.PCURVE_S1.);
#144 = B_SPLINE_CURVE_WITH_KNOTS('',1,(#145,#146,#147,#148,#149,#150,
    #151,#152,#153,#154,#155,#156,#157,#158,#159,#160,#161,#162,#163,
    #164,#165,#166,#167,#168,#169,#170,#171,#172,#173,#174,#175,#176,
    #177,#178,#179,#180,#181,#182,#183,#184,#185,#186,#187),
  .UNSPECIFIED.,.F.,.F.,(2,1,1,1,1,1,1,1,1,1,1,1,1,1,1,1,1,1,1,1,1,1,1,1
    ,1,1,1,1,1,1,1,1,1,1,1,1,1,1,1,1,1,1,2),(0.,8.464041367203E-03,
    1.154500795961E-02,3.647744163286E-02,4.410893361805E-02,
    5.718324179369E-02,7.865488284091E-02,9.922810902522E-02,
    0.112710813055,0.133167603136,0.142704954771,0.205531108162,
    0.245878389136,0.25294500261,0.259345168487,0.26782029163,
    0.288703749663,0.304589199747,0.333022960859,0.395430645736,
    0.402230397729,0.460603640483,0.482000243451,0.514628806928,
    0.537191015042,0.542457869545,0.592410231002,0.622167167663,
    0.645642175109,0.65307812949,0.758134919568,0.761476995524,
    0.77727445758,0.817199170492,0.856049680417,0.909899335042,
    0.91233013815,0.919845656317,0.932719518758,0.946687059744,
    0.961768011043,0.963852232727,1.),.UNSPECIFIED.);
#145 = CARTESIAN_POINT('',(8.4,0.222406903947,0.));
#146 = CARTESIAN_POINT('',(8.36241990412,0.159009645614,0.));
#147 = CARTESIAN_POINT('',(8.352527962355,0.183946050176,0.));
#148 = CARTESIAN_POINT('',(8.136663976369,0.160878507088,0.));
#149 = CARTESIAN_POINT('',(8.126271835066,0.226510182809,0.));
#150 = CARTESIAN_POINT('',(8.013416731044,0.241462392545,0.));
#151 = CARTESIAN_POINT('',(7.827321446893,0.223512032288,0.));
#152 = CARTESIAN_POINT('',(7.651500777731,0.189206061596,0.));
#153 = CARTESIAN_POINT('',(7.5343194514,0.182088074209,0.));
#154 = CARTESIAN_POINT('',(7.357094584807,0.164228866224,0.));
#155 = CARTESIAN_POINT('',(7.274893207544,0.176029773036,0.));
#156 = CARTESIAN_POINT('',(6.731065540213,0.235255877318,0.));
#157 = CARTESIAN_POINT('',(6.381250713499,0.202835260345,0.));
#158 = CARTESIAN_POINT('',(6.324240750726,0.22598482328,0.));
#159 = CARTESIAN_POINT('',(6.268695165449,0.22148120338,0.));
#160 = CARTESIAN_POINT('',(6.255026099293,0.148963174404,0.));
#161 = CARTESIAN_POINT('',(6.080989148246,0.201651254114,0.));
#162 = CARTESIAN_POINT('',(5.945732555027,0.23059425585,0.));
#163 = CARTESIAN_POINT('',(5.712511185613,0.147506214353,0.));
#164 = CARTESIAN_POINT('',(5.176979606838,0.239641620874,0.));
#165 = CARTESIAN_POINT('',(5.119706651552,0.224631745989,0.));
#166 = CARTESIAN_POINT('',(4.611442701055,0.227228084319,0.));
#167 = CARTESIAN_POINT('',(4.426985214056,0.201051305866,0.));
#168 = CARTESIAN_POINT('',(4.142958396089,0.207722396834,0.));
#169 = CARTESIAN_POINT('',(3.947915431602,0.231233034162,0.));
#170 = CARTESIAN_POINT('',(3.90599853423,0.212629323298,0.));
#171 = CARTESIAN_POINT('',(3.471656991204,0.189671816981,0.));
#172 = CARTESIAN_POINT('',(3.212564610775,0.187537609411,0.));
#173 = CARTESIAN_POINT('',(3.010621257018,0.219150842825,0.));
#174 = CARTESIAN_POINT('',(2.953098850559,0.248871414902,0.));
#175 = CARTESIAN_POINT('',(2.03952781406,0.202325134063,0.));
#176 = CARTESIAN_POINT('',(2.013359887065,0.215055690653,0.));
#177 = CARTESIAN_POINT('',(1.876934780531,0.232630656312,0.));
#178 = CARTESIAN_POINT('',(1.538378905138,0.153702128488,0.));
#179 = CARTESIAN_POINT('',(1.200104795743,0.155894167777,0.));
#180 = CARTESIAN_POINT('',(0.736032455815,0.222884577563,0.));
#181 = CARTESIAN_POINT('',(0.72163480158,0.238398793733,0.));
#182 = CARTESIAN_POINT('',(0.672163174424,0.195563195851,0.));
#183 = CARTESIAN_POINT('',(0.568172257826,0.237412889389,0.));
#184 = CARTESIAN_POINT('',(0.446553842572,0.23775995193,0.));
#185 = CARTESIAN_POINT('',(0.315468916731,0.245507102818,0.));
#186 = CARTESIAN_POINT('',(0.309114963361,0.228507939347,0.));
#187 = CARTESIAN_POINT('',(0.,0.169228226697,0.));
#188 = PCURVE('',#72,#189);
#189 = DEFINITIONAL_REPRESENTATION('',(#190),#234);
#190 = B_SPLINE_CURVE_WITH_KNOTS('',1,(#191,#192,#193,#194,#195,#196,
    #197,#198,#199,#200,#201,#202,#203,#204,#205,#206,#207,#208,#209,
    #210,#211,#212,#213,#214,#215,#216,#217,#218,#219,#220,#221,#222,
    #223,#224,#225,#226,#227,#228,#229,#230,#231,#232,#233),
  .UNSPECIFIED.,.F.,.F.,(2,1,1,1,1,1,1,1,1,1,1,1,1,1,1,1,1,1,1,1,1,1,1,1
    ,1,1,1,1,1,1,1,1,1,1,1,1,1,1,1,1,1,1,2),(0.,8.464041367203E-03,
    1.154500795961E-02,3.647744163286E-02,4.410893361805E-02,
    5.718324179369E-02,7.865488284091E-02,9.922810902522E-02,
    0.112710813055,0.133167603136,0.142704954771,0.205531108162,
    0.245878389136,0.25294500261,0.259345168487,0.26782029163,
    0.288703749663,0.304589199747,0.333022960859,0.395430645736,
    0.402230397729,0.460603640483,0.482000243451,0.514628806928,
    0.537191015042,0.542457869545,0.592410231002,0.622167167663,
    0.645642175109,0.65307812949,0.758134919568,0.761476995524,
    0.77727445758,0.817199170492,0.856049680417,0.909899335042,
    0.91233013815,0.919845656317,0.932719518758,0.946687059744,
    0.961768011043,0.963852232727,1.),.UNSPECIFIED.);
#191 = CARTESIAN_POINT('',(4.126041264958,0.122406903947));
#192 = CARTESIAN_POINT('',(4.088461169079,5.900964561373E-02));
#193 = CARTESIAN_POINT('',(4.078569227314,8.394605017603E-02));
#194 = CARTESIAN_POINT('',(3.862705241327,6.087850708835E-02));
#195 = CARTESIAN_POINT('',(3.852313100025,0.126510182809));
#196 = CARTESIAN_POINT('',(3.739457996002,0.141462392545));
#197 = CARTESIAN_POINT('',(3.553362711851,0.123512032288));
#198 = CARTESIAN_POINT('',(3.37754204269,8.920606159552E-02));
#199 = CARTESIAN_POINT('',(3.260360716358,8.208807420919E-02));
#200 = CARTESIAN_POINT('',(3.083135849765,6.422886622377E-02));
#201 = CARTESIAN_POINT('',(3.000934472503,7.602977303552E-02));
#202 = CARTESIAN_POINT('',(2.457106805172,0.135255877318));
#203 = CARTESIAN_POINT('',(2.107291978458,0.102835260345));
#204 = CARTESIAN_POINT('',(2.050282015684,0.12598482328));
#205 = CARTESIAN_POINT('',(1.994736430407,0.12148120338));
#206 = CARTESIAN_POINT('',(1.981067364251,4.896317440398E-02));
#207 = CARTESIAN_POINT('',(1.807030413204,0.101651254114));
#208 = CARTESIAN_POINT('',(1.671773819985,0.13059425585));
#209 = CARTESIAN_POINT('',(1.438552450571,4.750621435328E-02));
#210 = CARTESIAN_POINT('',(0.903020871796,0.139641620874));
#211 = CARTESIAN_POINT('',(0.84574791651,0.124631745989));
#212 = CARTESIAN_POINT('',(0.337483966013,0.127228084319));
#213 = CARTESIAN_POINT('',(0.153026479014,0.101051305866));
#214 = CARTESIAN_POINT('',(-0.131000338952,0.107722396834));
#215 = CARTESIAN_POINT('',(-0.32604330344,0.131233034162));
#216 = CARTESIAN_POINT('',(-0.367960200812,0.112629323298));
#217 = CARTESIAN_POINT('',(-0.802301743838,8.967181698114E-02));
#218 = CARTESIAN_POINT('',(-1.061394124266,8.75376094106E-02));
#219 = CARTESIAN_POINT('',(-1.263337478024,0.119150842825));
#220 = CARTESIAN_POINT('',(-1.320859884482,0.148871414902));
#221 = CARTESIAN_POINT('',(-2.234430920981,0.102325134063));
#222 = CARTESIAN_POINT('',(-2.260598847976,0.115055690653));
#223 = CARTESIAN_POINT('',(-2.397023954511,0.132630656312));
#224 = CARTESIAN_POINT('',(-2.735579829903,5.370212848774E-02));
#225 = CARTESIAN_POINT('',(-3.073853939298,5.58941677773E-02));
#226 = CARTESIAN_POINT('',(-3.537926279227,0.122884577563));
#227 = CARTESIAN_POINT('',(-3.552323933462,0.138398793733));
#228 = CARTESIAN_POINT('',(-3.601795560618,9.556319585066E-02));
#229 = CARTESIAN_POINT('',(-3.705786477216,0.137412889389));
#230 = CARTESIAN_POINT('',(-3.82740489247,0.13775995193));
#231 = CARTESIAN_POINT('',(-3.958489818311,0.145507102818));
#232 = CARTESIAN_POINT('',(-3.964843771681,0.128507939347));
#233 = CARTESIAN_POINT('',(-4.273958735042,6.922822669667E-02));
#234 = ( GEOMETRIC_REPRESENTATION_CONTEXT(2) 
PARAMETRIC_REPRESENTATION_CONTEXT() REPRESENTATION_CONTEXT('2D SPACE',''
  ) );
#235 = ORIENTED_EDGE('',*,*,#236,.T.);
#236 = EDGE_CURVE('',#141,#22,#237,.T.);
#237 = SURFACE_CURVE('',#238,(#242),.PCURVE_S1.);
#238 = LINE('',#239,#240);
#239 = CARTESIAN_POINT('',(0.,0.169228226697,0.));
#240 = VECTOR('',#241,1.);
#241 = DIRECTION('',(0.,-1.,0.));
#242 = PCURVE('',#72,#243);
#243 = DEFINITIONAL_REPRESENTATION('',(#244),#248);
#244 = LINE('',#245,#246);
#245 = CARTESIAN_POINT('',(-4.273958735042,6.922822669667E-02));
#246 = VECTOR('',#247,1.);
#247 = DIRECTION('',(0.,-1.));
#248 = ( GEOMETRIC_REPRESENTATION_CONTEXT(2) 
PARAMETRIC_REPRESENTATION_CONTEXT() REPRESENTATION_CONTEXT('2D SPACE',''
  ) );
#249 = ( GEOMETRIC_REPRESENTATION_CONTEXT(3) 
GLOBAL_UNCERTAINTY_ASSIGNED_CONTEXT((#253)) GLOBAL_UNIT_ASSIGNED_CONTEXT
((#250,#251,#252)) REPRESENTATION_CONTEXT('Context #1',
  '3D Context with UNIT and UNCERTAINTY') );
#250 = ( LENGTH_UNIT() NAMED_UNIT(*) SI_UNIT(.MILLI.,.METRE.) );
#251 = ( NAMED_UNIT(*) PLANE_ANGLE_UNIT() SI_UNIT($,.RADIAN.) );
#252 = ( NAMED_UNIT(*) SI_UNIT($,.STERADIAN.) SOLID_ANGLE_UNIT() );
#253 = UNCERTAINTY_MEASURE_WITH_UNIT(LENGTH_MEASURE(1.E-07),#250,
  'distance_accuracy_value','confusion accuracy');
#254 = PRODUCT_RELATED_PRODUCT_CATEGORY('part',$,(#7));
ENDSEC;
END-ISO-10303-21;
