ISO-10303-21;
HEADER;
FILE_DESCRIPTION(('Open CASCADE Model'),'2;1');
FILE_NAME('Open CASCADE Shape Model','2026-05-28T17:04:49',('Author'),(
    'Open CASCADE'),'Open CASCADE STEP processor 7.9','Open CASCADE 7.9'
  ,'Unknown');
FILE_SCHEMA(('AUTOMOTIVE_DESIGN { 1 0 10303 214 1 1 1 1 }'));
ENDSEC;
DATA;
#1 = APPLICATION_PROTOCOL_DEFINITION('international standard',
  'automotive_design',2000,#2);
#2 = APPLICATION_CONTEXT(
  'core data for automotive mechanical design processes');
#3 = SHAPE_DEFINITION_REPRESENTATION(#4,#10);
#4 = PRODUCT_DEFINITION_SHAPE('','',#5);
#5 = PRODUCT_DEFINITION('design','',#6,#9);
#6 = PRODUCT_DEFINITION_FORMATION('','',#7);
#7 = PRODUCT('Open CASCADE STEP translator 7.9 92',
  'Open CASCADE STEP translator 7.9 92','',(#8));
#8 = PRODUCT_CONTEXT('',#2,'mechanical');
#9 = PRODUCT_DEFINITION_CONTEXT('part definition',#2,'design');
#10 = MANIFOLD_SURFACE_SHAPE_REPRESENTATION('',(#11,#15),#141);
#11 = AXIS2_PLACEMENT_3D('',#12,#13,#14);
#12 = CARTESIAN_POINT('',(0.,0.,0.));
#13 = DIRECTION('',(0.,0.,1.));
#14 = DIRECTION('',(1.,0.,-0.));
#15 = SHELL_BASED_SURFACE_MODEL('',(#16));
#16 = OPEN_SHELL('',(#17));
#17 = ADVANCED_FACE('',(#18),#45,.T.);
#18 = FACE_BOUND('',#19,.T.);
#19 = EDGE_LOOP('',(#20,#69,#85,#127));
#20 = ORIENTED_EDGE('',*,*,#21,.T.);
#21 = EDGE_CURVE('',#22,#24,#26,.T.);
#22 = VERTEX_POINT('',#23);
#23 = CARTESIAN_POINT('',(0.,-1.364565800711E-02,0.));
#24 = VERTEX_POINT('',#25);
#25 = CARTESIAN_POINT('',(3.,-5.767153181116E-03,0.));
#26 = SURFACE_CURVE('',#27,(#44),.PCURVE_S1.);
#27 = B_SPLINE_CURVE_WITH_KNOTS('',1,(#28,#29,#30,#31,#32,#33,#34,#35,
    #36,#37,#38,#39,#40,#41,#42,#43),.UNSPECIFIED.,.F.,.F.,(2,1,1,1,1,1,
    1,1,1,1,1,1,1,1,1,2),(0.,0.124122963705,0.285677516047,
    0.315500241751,0.37783141616,0.481603705167,0.558150302853,
    0.663211193076,0.691644674573,0.710553978441,0.714408162077,
    0.748491714062,0.845453380881,0.947232284259,0.977829612181,1.),
  .UNSPECIFIED.);
#28 = CARTESIAN_POINT('',(0.,-1.364565800711E-02,0.));
#29 = CARTESIAN_POINT('',(0.384486811937,8.79242405077E-03,0.));
#30 = CARTESIAN_POINT('',(0.883863317363,-3.493597480315E-02,0.));
#31 = CARTESIAN_POINT('',(0.973019979611,-1.01535854659E-02,0.));
#32 = CARTESIAN_POINT('',(1.153692201393,5.886771268468E-02,0.));
#33 = CARTESIAN_POINT('',(1.468586397991,-8.380786587841E-03,0.));
#34 = CARTESIAN_POINT('',(1.705979453545,-1.603245431302E-02,0.));
#35 = CARTESIAN_POINT('',(2.030215888468,-4.983135018529E-02,0.));
#36 = CARTESIAN_POINT('',(2.094726821968,1.03533991603E-02,0.));
#37 = CARTESIAN_POINT('',(2.150139024532,-8.936119112563E-03,0.));
#38 = CARTESIAN_POINT('',(2.150875787683,3.000305914275E-03,0.));
#39 = CARTESIAN_POINT('',(2.256414816987,-3.798771416266E-03,0.));
#40 = CARTESIAN_POINT('',(2.552071895844,5.192351151972E-02,0.));
#41 = CARTESIAN_POINT('',(2.851765152147,-4.767404010397E-02,0.));
#42 = CARTESIAN_POINT('',(2.946692488697,-4.92494807798E-02,0.));
#43 = CARTESIAN_POINT('',(3.,-5.767153181116E-03,0.));
#44 = PCURVE('',#45,#50);
#45 = PLANE('',#46);
#46 = AXIS2_PLACEMENT_3D('',#47,#48,#49);
#47 = CARTESIAN_POINT('',(1.514215889231,0.1,0.));
#48 = DIRECTION('',(0.,0.,1.));
#49 = DIRECTION('',(1.,0.,-0.));
#50 = DEFINITIONAL_REPRESENTATION('',(#51),#68);
#51 = B_SPLINE_CURVE_WITH_KNOTS('',1,(#52,#53,#54,#55,#56,#57,#58,#59,
    #60,#61,#62,#63,#64,#65,#66,#67),.UNSPECIFIED.,.F.,.F.,(2,1,1,1,1,1,
    1,1,1,1,1,1,1,1,1,2),(0.,0.124122963705,0.285677516047,
    0.315500241751,0.37783141616,0.481603705167,0.558150302853,
    0.663211193076,0.691644674573,0.710553978441,0.714408162077,
    0.748491714062,0.845453380881,0.947232284259,0.977829612181,1.),
  .UNSPECIFIED.);
#52 = CARTESIAN_POINT('',(-1.514215889231,-0.113645658007));
#53 = CARTESIAN_POINT('',(-1.129729077294,-9.120757594923E-02));
#54 = CARTESIAN_POINT('',(-0.630352571868,-0.134935974803));
#55 = CARTESIAN_POINT('',(-0.54119590962,-0.110153585466));
#56 = CARTESIAN_POINT('',(-0.360523687838,-4.113228731532E-02));
#57 = CARTESIAN_POINT('',(-4.562949123967E-02,-0.108380786588));
#58 = CARTESIAN_POINT('',(0.191763564314,-0.116032454313));
#59 = CARTESIAN_POINT('',(0.515999999237,-0.149831350185));
#60 = CARTESIAN_POINT('',(0.580510932736,-8.96466008397E-02));
#61 = CARTESIAN_POINT('',(0.635923135301,-0.108936119113));
#62 = CARTESIAN_POINT('',(0.636659898452,-9.699969408572E-02));
#63 = CARTESIAN_POINT('',(0.742198927756,-0.103798771416));
#64 = CARTESIAN_POINT('',(1.037856006613,-4.807648848028E-02));
#65 = CARTESIAN_POINT('',(1.337549262916,-0.147674040104));
#66 = CARTESIAN_POINT('',(1.432476599466,-0.14924948078));
#67 = CARTESIAN_POINT('',(1.485784110769,-0.105767153181));
#68 = ( GEOMETRIC_REPRESENTATION_CONTEXT(2) 
PARAMETRIC_REPRESENTATION_CONTEXT() REPRESENTATION_CONTEXT('2D SPACE',''
  ) );
#69 = ORIENTED_EDGE('',*,*,#70,.T.);
#70 = EDGE_CURVE('',#24,#71,#73,.T.);
#71 = VERTEX_POINT('',#72);
#72 = CARTESIAN_POINT('',(3.,0.205767153181,0.));
#73 = SURFACE_CURVE('',#74,(#78),.PCURVE_S1.);
#74 = LINE('',#75,#76);
#75 = CARTESIAN_POINT('',(3.,-5.767153181116E-03,0.));
#76 = VECTOR('',#77,1.);
#77 = DIRECTION('',(0.,1.,0.));
#78 = PCURVE('',#45,#79);
#79 = DEFINITIONAL_REPRESENTATION('',(#80),#84);
#80 = LINE('',#81,#82);
#81 = CARTESIAN_POINT('',(1.485784110769,-0.105767153181));
#82 = VECTOR('',#83,1.);
#83 = DIRECTION('',(0.,1.));
#84 = ( GEOMETRIC_REPRESENTATION_CONTEXT(2) 
PARAMETRIC_REPRESENTATION_CONTEXT() REPRESENTATION_CONTEXT('2D SPACE',''
  ) );
#85 = ORIENTED_EDGE('',*,*,#86,.T.);
#86 = EDGE_CURVE('',#71,#87,#89,.T.);
#87 = VERTEX_POINT('',#88);
#88 = CARTESIAN_POINT('',(0.,0.213645658007,0.));
#89 = SURFACE_CURVE('',#90,(#107),.PCURVE_S1.);
#90 = B_SPLINE_CURVE_WITH_KNOTS('',1,(#91,#92,#93,#94,#95,#96,#97,#98,
    #99,#100,#101,#102,#103,#104,#105,#106),.UNSPECIFIED.,.F.,.F.,(2,1,1
    ,1,1,1,1,1,1,1,1,1,1,1,1,2),(0.,2.217038781862E-02,5.2767715741E-02,
    0.154546619119,0.251508285938,0.285591837923,0.289446021559,
    0.308355325427,0.336788806924,0.441849697147,0.518396294833,
    0.62216858384,0.684499758249,0.714322483953,0.875877036295,1.),
  .UNSPECIFIED.);
#91 = CARTESIAN_POINT('',(3.,0.205767153181,0.));
#92 = CARTESIAN_POINT('',(2.946692488697,0.24924948078,0.));
#93 = CARTESIAN_POINT('',(2.851765152147,0.247674040104,0.));
#94 = CARTESIAN_POINT('',(2.552071895844,0.14807648848,0.));
#95 = CARTESIAN_POINT('',(2.256414816987,0.203798771416,0.));
#96 = CARTESIAN_POINT('',(2.150875787683,0.196999694086,0.));
#97 = CARTESIAN_POINT('',(2.150139024532,0.208936119113,0.));
#98 = CARTESIAN_POINT('',(2.094726821968,0.18964660084,0.));
#99 = CARTESIAN_POINT('',(2.030215888468,0.249831350185,0.));
#100 = CARTESIAN_POINT('',(1.705979453545,0.216032454313,0.));
#101 = CARTESIAN_POINT('',(1.468586397991,0.208380786588,0.));
#102 = CARTESIAN_POINT('',(1.153692201393,0.141132287315,0.));
#103 = CARTESIAN_POINT('',(0.973019979611,0.210153585466,0.));
#104 = CARTESIAN_POINT('',(0.883863317363,0.234935974803,0.));
#105 = CARTESIAN_POINT('',(0.384486811937,0.191207575949,0.));
#106 = CARTESIAN_POINT('',(0.,0.213645658007,0.));
#107 = PCURVE('',#45,#108);
#108 = DEFINITIONAL_REPRESENTATION('',(#109),#126);
#109 = B_SPLINE_CURVE_WITH_KNOTS('',1,(#110,#111,#112,#113,#114,#115,
    #116,#117,#118,#119,#120,#121,#122,#123,#124,#125),.UNSPECIFIED.,.F.
  ,.F.,(2,1,1,1,1,1,1,1,1,1,1,1,1,1,1,2),(0.,2.217038781862E-02,
    5.2767715741E-02,0.154546619119,0.251508285938,0.285591837923,
    0.289446021559,0.308355325427,0.336788806924,0.441849697147,
    0.518396294833,0.62216858384,0.684499758249,0.714322483953,
    0.875877036295,1.),.UNSPECIFIED.);
#110 = CARTESIAN_POINT('',(1.485784110769,0.105767153181));
#111 = CARTESIAN_POINT('',(1.432476599466,0.14924948078));
#112 = CARTESIAN_POINT('',(1.337549262916,0.147674040104));
#113 = CARTESIAN_POINT('',(1.037856006613,4.807648848028E-02));
#114 = CARTESIAN_POINT('',(0.742198927756,0.103798771416));
#115 = CARTESIAN_POINT('',(0.636659898452,9.699969408572E-02));
#116 = CARTESIAN_POINT('',(0.635923135301,0.108936119113));
#117 = CARTESIAN_POINT('',(0.580510932736,8.96466008397E-02));
#118 = CARTESIAN_POINT('',(0.515999999237,0.149831350185));
#119 = CARTESIAN_POINT('',(0.191763564314,0.116032454313));
#120 = CARTESIAN_POINT('',(-4.562949123967E-02,0.108380786588));
#121 = CARTESIAN_POINT('',(-0.360523687838,4.113228731532E-02));
#122 = CARTESIAN_POINT('',(-0.54119590962,0.110153585466));
#123 = CARTESIAN_POINT('',(-0.630352571868,0.134935974803));
#124 = CARTESIAN_POINT('',(-1.129729077294,9.120757594923E-02));
#125 = CARTESIAN_POINT('',(-1.514215889231,0.113645658007));
#126 = ( GEOMETRIC_REPRESENTATION_CONTEXT(2) 
PARAMETRIC_REPRESENTATION_CONTEXT() REPRESENTATION_CONTEXT('2D SPACE',''
  ) );
#127 = ORIENTED_EDGE('',*,*,#128,.T.);
#128 = EDGE_CURVE('',#87,#22,#129,.T.);
#129 = SURFACE_CURVE('',#130,(#134),.PCURVE_S1.);
#130 = LINE('',#131,#132);
#131 = CARTESIAN_POINT('',(0.,0.213645658007,0.));
#132 = VECTOR('',#133,1.);
#133 = DIRECTION('',(0.,-1.,0.));
#134 = PCURVE('',#45,#135);
#135 = DEFINITIONAL_REPRESENTATION('',(#136),#140);
#136 = LINE('',#137,#138);
#137 = CARTESIAN_POINT('',(-1.514215889231,0.113645658007));
#138 = VECTOR('',#139,1.);
#139 = DIRECTION('',(0.,-1.));
#140 = ( GEOMETRIC_REPRESENTATION_CONTEXT(2) 
PARAMETRIC_REPRESENTATION_CONTEXT() REPRESENTATION_CONTEXT('2D SPACE',''
  ) );
#141 = ( GEOMETRIC_REPRESENTATION_CONTEXT(3) 
GLOBAL_UNCERTAINTY_ASSIGNED_CONTEXT((#145)) GLOBAL_UNIT_ASSIGNED_CONTEXT
((#142,#143,#144)) REPRESENTATION_CONTEXT('Context #1',
  '3D Context with UNIT and UNCERTAINTY') );
#142 = ( LENGTH_UNIT() NAMED_UNIT(*) SI_UNIT(.MILLI.,.METRE.) );
#143 = ( NAMED_UNIT(*) PLANE_ANGLE_UNIT() SI_UNIT($,.RADIAN.) );
#144 = ( NAMED_UNIT(*) SI_UNIT($,.STERADIAN.) SOLID_ANGLE_UNIT() );
#145 = UNCERTAINTY_MEASURE_WITH_UNIT(LENGTH_MEASURE(1.E-07),#142,
  'distance_accuracy_value','confusion accuracy');
#146 = PRODUCT_RELATED_PRODUCT_CATEGORY('part',$,(#7));
ENDSEC;
END-ISO-10303-21;
