ISO-10303-21;
HEADER;
FILE_DESCRIPTION(('Open CASCADE Model'),'2;1');
FILE_NAME('Open CASCADE Shape Model','2026-05-28T17:04:49',('Author'),(
    'Open CASCADE'),'Open CASCADE STEP processor 7.9','Open CASCADE 7.9'
  ,'Unknown');
FILE_SCHEMA(('AUTOMOTIVE_DESIGN { 1 0 10303 214 1 1 1 1 }'));
ENDSEC;
DATA;
#1 = APPLICATION_PROTOCOL_DEFINITION('international standard',
  'automotive_design',2000,#2);
#2 = APPLICATION_CONTEXT(
  'core data for automotive mechanical design processes');
#3 = SHAPE_DEFINITION_REPRESENTATION(#4,#10);
#4 = PRODUCT_DEFINITION_SHAPE('','',#5);
#5 = PRODUCT_DEFINITION('design','',#6,#9);
#6 = PRODUCT_DEFINITION_FORMATION('','',#7);
#7 = PRODUCT('Open CASCADE STEP translator 7.9 82',
  'Open CASCADE STEP translator 7.9 82','',(#8));
#8 = PRODUCT_CONTEXT('',#2,'mechanical');
#9 = PRODUCT_DEFINITION_CONTEXT('part definition',#2,'design');
#10 = MANIFOLD_SURFACE_SHAPE_REPRESENTATION('',(#11,#15),#205);
#11 = AXIS2_PLACEMENT_3D('',#12,#13,#14);
#12 = CARTESIAN_POINT('',(0.,0.,0.));
#13 = DIRECTION('',(0.,0.,1.));
#14 = DIRECTION('',(1.,0.,-0.));
#15 = SHELL_BASED_SURFACE_MODEL('',(#16));
#16 = OPEN_SHELL('',(#17));
#17 = ADVANCED_FACE('',(#18),#61,.T.);
#18 = FACE_BOUND('',#19,.T.);
#19 = EDGE_LOOP('',(#20,#101,#117,#191));
#20 = ORIENTED_EDGE('',*,*,#21,.T.);
#21 = EDGE_CURVE('',#22,#24,#26,.T.);
#22 = VERTEX_POINT('',#23);
#23 = CARTESIAN_POINT('',(0.,2.313586396412E-02,0.));
#24 = VERTEX_POINT('',#25);
#25 = CARTESIAN_POINT('',(6.2,2.504840799428E-02,0.));
#26 = SURFACE_CURVE('',#27,(#60),.PCURVE_S1.);
#27 = B_SPLINE_CURVE_WITH_KNOTS('',1,(#28,#29,#30,#31,#32,#33,#34,#35,
    #36,#37,#38,#39,#40,#41,#42,#43,#44,#45,#46,#47,#48,#49,#50,#51,#52,
    #53,#54,#55,#56,#57,#58,#59),.UNSPECIFIED.,.F.,.F.,(2,1,1,1,1,1,1,1,
    1,1,1,1,1,1,1,1,1,1,1,1,1,1,1,1,1,1,1,1,1,1,1,2),(0.,
    8.708279871744E-03,3.004977074699E-02,6.822826767301E-02,
    0.15206672347,0.166940322709,0.169221477272,0.216662988704,
    0.231652250805,0.238962123409,0.247565415198,0.254409803084,
    0.260425682845,0.265981489501,0.329120196734,0.336733505651,
    0.344056082334,0.385010377206,0.394193243785,0.434777882462,
    0.484831816824,0.506097845843,0.596479619834,0.633317573321,
    0.638505039321,0.721496504559,0.813072264506,0.85744380082,
    0.872021432222,0.90890069443,0.919042010359,1.),.UNSPECIFIED.);
#28 = CARTESIAN_POINT('',(0.,2.313586396412E-02,0.));
#29 = CARTESIAN_POINT('',(5.728131279478E-02,2.006335534529E-02,0.));
#30 = CARTESIAN_POINT('',(0.193166027125,-1.597268844776E-02,0.));
#31 = CARTESIAN_POINT('',(0.438962924997,3.724243421423E-02,0.));
#32 = CARTESIAN_POINT('',(0.984241197208,-5.032763092413E-02,0.));
#33 = CARTESIAN_POINT('',(0.986244879931,4.762806358976E-02,0.));
#34 = CARTESIAN_POINT('',(0.995861203819,5.917463867588E-02,0.));
#35 = CARTESIAN_POINT('',(1.291335965502,-4.259341543566E-02,0.));
#36 = CARTESIAN_POINT('',(1.388393228492,-2.445237693193E-02,0.));
#37 = CARTESIAN_POINT('',(1.412280583959,1.735681555728E-02,0.));
#38 = CARTESIAN_POINT('',(1.461079324528,-1.145996470921E-02,0.));
#39 = CARTESIAN_POINT('',(1.467440822305,3.317470789929E-02,0.));
#40 = CARTESIAN_POINT('',(1.506512344169,3.979324216255E-02,0.));
#41 = CARTESIAN_POINT('',(1.510919876243,3.462103783353E-03,0.));
#42 = CARTESIAN_POINT('',(1.926589660214,1.761746043348E-02,0.));
#43 = CARTESIAN_POINT('',(1.965657690039,-1.382760606424E-02,0.));
#44 = CARTESIAN_POINT('',(1.973153438634,3.382209785268E-02,0.));
#45 = CARTESIAN_POINT('',(2.237597319646,-1.955132406727E-02,0.));
#46 = CARTESIAN_POINT('',(2.296787465427,-3.202338243634E-02,0.));
#47 = CARTESIAN_POINT('',(2.554243288874,4.000366283658E-02,0.));
#48 = CARTESIAN_POINT('',(2.883631956477,5.473700598985E-02,0.));
#49 = CARTESIAN_POINT('',(3.015422224253,7.249514963839E-03,0.));
#50 = CARTESIAN_POINT('',(3.609435823116,-3.288289031909E-02,0.));
#51 = CARTESIAN_POINT('',(3.851645704925,-1.80935802689E-02,0.));
#52 = CARTESIAN_POINT('',(3.885262128421,-2.422580644975E-02,0.));
#53 = CARTESIAN_POINT('',(4.43076899931,1.16592792008E-02,0.));
#54 = CARTESIAN_POINT('',(5.033665304389,3.180653456963E-02,0.));
#55 = CARTESIAN_POINT('',(5.323773347,-3.813461194153E-03,0.));
#56 = CARTESIAN_POINT('',(5.411394298371,3.54761167501E-02,0.));
#57 = CARTESIAN_POINT('',(5.64611706195,-2.714744363821E-02,0.));
#58 = CARTESIAN_POINT('',(5.666829173796,3.636402528486E-02,0.));
#59 = CARTESIAN_POINT('',(6.2,2.504840799428E-02,0.));
#60 = PCURVE('',#61,#66);
#61 = PLANE('',#62);
#62 = AXIS2_PLACEMENT_3D('',#63,#64,#65);
#63 = CARTESIAN_POINT('',(3.043276616726,1.E-01,0.));
#64 = DIRECTION('',(0.,0.,1.));
#65 = DIRECTION('',(1.,0.,-0.));
#66 = DEFINITIONAL_REPRESENTATION('',(#67),#100);
#67 = B_SPLINE_CURVE_WITH_KNOTS('',1,(#68,#69,#70,#71,#72,#73,#74,#75,
    #76,#77,#78,#79,#80,#81,#82,#83,#84,#85,#86,#87,#88,#89,#90,#91,#92,
    #93,#94,#95,#96,#97,#98,#99),.UNSPECIFIED.,.F.,.F.,(2,1,1,1,1,1,1,1,
    1,1,1,1,1,1,1,1,1,1,1,1,1,1,1,1,1,1,1,1,1,1,1,2),(0.,
    8.708279871744E-03,3.004977074699E-02,6.822826767301E-02,
    0.15206672347,0.166940322709,0.169221477272,0.216662988704,
    0.231652250805,0.238962123409,0.247565415198,0.254409803084,
    0.260425682845,0.265981489501,0.329120196734,0.336733505651,
    0.344056082334,0.385010377206,0.394193243785,0.434777882462,
    0.484831816824,0.506097845843,0.596479619834,0.633317573321,
    0.638505039321,0.721496504559,0.813072264506,0.85744380082,
    0.872021432222,0.90890069443,0.919042010359,1.),.UNSPECIFIED.);
#68 = CARTESIAN_POINT('',(-3.043276616726,-7.686413603588E-02));
#69 = CARTESIAN_POINT('',(-2.985995303931,-7.993664465471E-02));
#70 = CARTESIAN_POINT('',(-2.850110589601,-0.115972688448));
#71 = CARTESIAN_POINT('',(-2.604313691729,-6.275756578577E-02));
#72 = CARTESIAN_POINT('',(-2.059035419518,-0.150327630924));
#73 = CARTESIAN_POINT('',(-2.057031736796,-5.237193641024E-02));
#74 = CARTESIAN_POINT('',(-2.047415412907,-4.082536132412E-02));
#75 = CARTESIAN_POINT('',(-1.751940651224,-0.142593415436));
#76 = CARTESIAN_POINT('',(-1.654883388234,-0.124452376932));
#77 = CARTESIAN_POINT('',(-1.630996032767,-8.264318444272E-02));
#78 = CARTESIAN_POINT('',(-1.582197292198,-0.111459964709));
#79 = CARTESIAN_POINT('',(-1.575835794421,-6.682529210071E-02));
#80 = CARTESIAN_POINT('',(-1.536764272557,-6.020675783745E-02));
#81 = CARTESIAN_POINT('',(-1.532356740483,-9.653789621665E-02));
#82 = CARTESIAN_POINT('',(-1.116686956512,-8.238253956652E-02));
#83 = CARTESIAN_POINT('',(-1.077618926687,-0.113827606064));
#84 = CARTESIAN_POINT('',(-1.070123178092,-6.617790214732E-02));
#85 = CARTESIAN_POINT('',(-0.80567929708,-0.119551324067));
#86 = CARTESIAN_POINT('',(-0.746489151299,-0.132023382436));
#87 = CARTESIAN_POINT('',(-0.489033327852,-5.999633716342E-02));
#88 = CARTESIAN_POINT('',(-0.159644660249,-4.526299401015E-02));
#89 = CARTESIAN_POINT('',(-2.785439247298E-02,-9.275048503616E-02));
#90 = CARTESIAN_POINT('',(0.56615920639,-0.132882890319));
#91 = CARTESIAN_POINT('',(0.808369088199,-0.118093580269));
#92 = CARTESIAN_POINT('',(0.841985511695,-0.12422580645));
#93 = CARTESIAN_POINT('',(1.387492382584,-8.83407207992E-02));
#94 = CARTESIAN_POINT('',(1.990388687663,-6.819346543037E-02));
#95 = CARTESIAN_POINT('',(2.280496730274,-0.103813461194));
#96 = CARTESIAN_POINT('',(2.368117681645,-6.45238832499E-02));
#97 = CARTESIAN_POINT('',(2.602840445224,-0.127147443638));
#98 = CARTESIAN_POINT('',(2.62355255707,-6.363597471514E-02));
#99 = CARTESIAN_POINT('',(3.156723383274,-7.495159200572E-02));
#100 = ( GEOMETRIC_REPRESENTATION_CONTEXT(2) 
PARAMETRIC_REPRESENTATION_CONTEXT() REPRESENTATION_CONTEXT('2D SPACE',''
  ) );
#101 = ORIENTED_EDGE('',*,*,#102,.T.);
#102 = EDGE_CURVE('',#24,#103,#105,.T.);
#103 = VERTEX_POINT('',#104);
#104 = CARTESIAN_POINT('',(6.2,0.174951592006,0.));
#105 = SURFACE_CURVE('',#106,(#110),.PCURVE_S1.);
#106 = LINE('',#107,#108);
#107 = CARTESIAN_POINT('',(6.2,2.504840799428E-02,0.));
#108 = VECTOR('',#109,1.);
#109 = DIRECTION('',(0.,1.,0.));
#110 = PCURVE('',#61,#111);
#111 = DEFINITIONAL_REPRESENTATION('',(#112),#116);
#112 = LINE('',#113,#114);
#113 = CARTESIAN_POINT('',(3.156723383274,-7.495159200572E-02));
#114 = VECTOR('',#115,1.);
#115 = DIRECTION('',(0.,1.));
#116 = ( GEOMETRIC_REPRESENTATION_CONTEXT(2) 
PARAMETRIC_REPRESENTATION_CONTEXT() REPRESENTATION_CONTEXT('2D SPACE',''
  ) );
#117 = ORIENTED_EDGE('',*,*,#118,.T.);
#118 = EDGE_CURVE('',#103,#119,#121,.T.);
#119 = VERTEX_POINT('',#120);
#120 = CARTESIAN_POINT('',(0.,0.176864136036,0.));
#121 = SURFACE_CURVE('',#122,(#155),.PCURVE_S1.);
#122 = B_SPLINE_CURVE_WITH_KNOTS('',1,(#123,#124,#125,#126,#127,#128,
    #129,#130,#131,#132,#133,#134,#135,#136,#137,#138,#139,#140,#141,
    #142,#143,#144,#145,#146,#147,#148,#149,#150,#151,#152,#153,#154),
  .UNSPECIFIED.,.F.,.F.,(2,1,1,1,1,1,1,1,1,1,1,1,1,1,1,1,1,1,1,1,1,1,1,1
    ,1,1,1,1,1,1,1,2),(0.,8.095798964094E-02,9.109930556995E-02,
    0.127978567778,0.14255619918,0.186927735494,0.278503495441,
    0.361494960679,0.366682426679,0.403520380166,0.493902154157,
    0.515168183176,0.565222117538,0.605806756215,0.614989622794,
    0.655943917666,0.663266494349,0.670879803266,0.734018510499,
    0.739574317155,0.745590196916,0.752434584802,0.761037876591,
    0.768347749195,0.783337011296,0.830778522728,0.833059677291,
    0.84793327653,0.931771732327,0.969950229253,0.991291720128,1.),
  .UNSPECIFIED.);
#123 = CARTESIAN_POINT('',(6.2,0.174951592006,0.));
#124 = CARTESIAN_POINT('',(5.666829173796,0.163635974715,0.));
#125 = CARTESIAN_POINT('',(5.64611706195,0.227147443638,0.));
#126 = CARTESIAN_POINT('',(5.411394298371,0.16452388325,0.));
#127 = CARTESIAN_POINT('',(5.323773347,0.203813461194,0.));
#128 = CARTESIAN_POINT('',(5.033665304389,0.16819346543,0.));
#129 = CARTESIAN_POINT('',(4.43076899931,0.188340720799,0.));
#130 = CARTESIAN_POINT('',(3.885262128421,0.22422580645,0.));
#131 = CARTESIAN_POINT('',(3.851645704925,0.218093580269,0.));
#132 = CARTESIAN_POINT('',(3.609435823116,0.232882890319,0.));
#133 = CARTESIAN_POINT('',(3.015422224253,0.192750485036,0.));
#134 = CARTESIAN_POINT('',(2.883631956477,0.14526299401,0.));
#135 = CARTESIAN_POINT('',(2.554243288874,0.159996337163,0.));
#136 = CARTESIAN_POINT('',(2.296787465427,0.232023382436,0.));
#137 = CARTESIAN_POINT('',(2.237597319646,0.219551324067,0.));
#138 = CARTESIAN_POINT('',(1.973153438634,0.166177902147,0.));
#139 = CARTESIAN_POINT('',(1.965657690039,0.213827606064,0.));
#140 = CARTESIAN_POINT('',(1.926589660214,0.182382539567,0.));
#141 = CARTESIAN_POINT('',(1.510919876243,0.196537896217,0.));
#142 = CARTESIAN_POINT('',(1.506512344169,0.160206757837,0.));
#143 = CARTESIAN_POINT('',(1.467440822305,0.166825292101,0.));
#144 = CARTESIAN_POINT('',(1.461079324528,0.211459964709,0.));
#145 = CARTESIAN_POINT('',(1.412280583959,0.182643184443,0.));
#146 = CARTESIAN_POINT('',(1.388393228492,0.224452376932,0.));
#147 = CARTESIAN_POINT('',(1.291335965502,0.242593415436,0.));
#148 = CARTESIAN_POINT('',(0.995861203819,0.140825361324,0.));
#149 = CARTESIAN_POINT('',(0.986244879931,0.15237193641,0.));
#150 = CARTESIAN_POINT('',(0.984241197208,0.250327630924,0.));
#151 = CARTESIAN_POINT('',(0.438962924997,0.162757565786,0.));
#152 = CARTESIAN_POINT('',(0.193166027125,0.215972688448,0.));
#153 = CARTESIAN_POINT('',(5.728131279478E-02,0.179936644655,0.));
#154 = CARTESIAN_POINT('',(0.,0.176864136036,0.));
#155 = PCURVE('',#61,#156);
#156 = DEFINITIONAL_REPRESENTATION('',(#157),#190);
#157 = B_SPLINE_CURVE_WITH_KNOTS('',1,(#158,#159,#160,#161,#162,#163,
    #164,#165,#166,#167,#168,#169,#170,#171,#172,#173,#174,#175,#176,
    #177,#178,#179,#180,#181,#182,#183,#184,#185,#186,#187,#188,#189),
  .UNSPECIFIED.,.F.,.F.,(2,1,1,1,1,1,1,1,1,1,1,1,1,1,1,1,1,1,1,1,1,1,1,1
    ,1,1,1,1,1,1,1,2),(0.,8.095798964094E-02,9.109930556995E-02,
    0.127978567778,0.14255619918,0.186927735494,0.278503495441,
    0.361494960679,0.366682426679,0.403520380166,0.493902154157,
    0.515168183176,0.565222117538,0.605806756215,0.614989622794,
    0.655943917666,0.663266494349,0.670879803266,0.734018510499,
    0.739574317155,0.745590196916,0.752434584802,0.761037876591,
    0.768347749195,0.783337011296,0.830778522728,0.833059677291,
    0.84793327653,0.931771732327,0.969950229253,0.991291720128,1.),
  .UNSPECIFIED.);
#158 = CARTESIAN_POINT('',(3.156723383274,7.495159200572E-02));
#159 = CARTESIAN_POINT('',(2.62355255707,6.363597471514E-02));
#160 = CARTESIAN_POINT('',(2.602840445224,0.127147443638));
#161 = CARTESIAN_POINT('',(2.368117681645,6.45238832499E-02));
#162 = CARTESIAN_POINT('',(2.280496730274,0.103813461194));
#163 = CARTESIAN_POINT('',(1.990388687663,6.819346543037E-02));
#164 = CARTESIAN_POINT('',(1.387492382584,8.83407207992E-02));
#165 = CARTESIAN_POINT('',(0.841985511695,0.12422580645));
#166 = CARTESIAN_POINT('',(0.808369088199,0.118093580269));
#167 = CARTESIAN_POINT('',(0.56615920639,0.132882890319));
#168 = CARTESIAN_POINT('',(-2.785439247298E-02,9.275048503616E-02));
#169 = CARTESIAN_POINT('',(-0.159644660249,4.526299401015E-02));
#170 = CARTESIAN_POINT('',(-0.489033327852,5.999633716342E-02));
#171 = CARTESIAN_POINT('',(-0.746489151299,0.132023382436));
#172 = CARTESIAN_POINT('',(-0.80567929708,0.119551324067));
#173 = CARTESIAN_POINT('',(-1.070123178092,6.617790214732E-02));
#174 = CARTESIAN_POINT('',(-1.077618926687,0.113827606064));
#175 = CARTESIAN_POINT('',(-1.116686956512,8.238253956652E-02));
#176 = CARTESIAN_POINT('',(-1.532356740483,9.653789621665E-02));
#177 = CARTESIAN_POINT('',(-1.536764272557,6.020675783745E-02));
#178 = CARTESIAN_POINT('',(-1.575835794421,6.682529210071E-02));
#179 = CARTESIAN_POINT('',(-1.582197292198,0.111459964709));
#180 = CARTESIAN_POINT('',(-1.630996032767,8.264318444272E-02));
#181 = CARTESIAN_POINT('',(-1.654883388234,0.124452376932));
#182 = CARTESIAN_POINT('',(-1.751940651224,0.142593415436));
#183 = CARTESIAN_POINT('',(-2.047415412907,4.082536132412E-02));
#184 = CARTESIAN_POINT('',(-2.057031736796,5.237193641024E-02));
#185 = CARTESIAN_POINT('',(-2.059035419518,0.150327630924));
#186 = CARTESIAN_POINT('',(-2.604313691729,6.275756578577E-02));
#187 = CARTESIAN_POINT('',(-2.850110589601,0.115972688448));
#188 = CARTESIAN_POINT('',(-2.985995303931,7.993664465471E-02));
#189 = CARTESIAN_POINT('',(-3.043276616726,7.686413603588E-02));
#190 = ( GEOMETRIC_REPRESENTATION_CONTEXT(2) 
PARAMETRIC_REPRESENTATION_CONTEXT() REPRESENTATION_CONTEXT('2D SPACE',''
  ) );
#191 = ORIENTED_EDGE('',*,*,#192,.T.);
#192 = EDGE_CURVE('',#119,#22,#193,.T.);
#193 = SURFACE_CURVE('',#194,(#198),.PCURVE_S1.);
#194 = LINE('',#195,#196);
#195 = CARTESIAN_POINT('',(0.,0.176864136036,0.));
#196 = VECTOR('',#197,1.);
#197 = DIRECTION('',(0.,-1.,0.));
#198 = PCURVE('',#61,#199);
#199 = DEFINITIONAL_REPRESENTATION('',(#200),#204);
#200 = LINE('',#201,#202);
#201 = CARTESIAN_POINT('',(-3.043276616726,7.686413603588E-02));
#202 = VECTOR('',#203,1.);
#203 = DIRECTION('',(0.,-1.));
#204 = ( GEOMETRIC_REPRESENTATION_CONTEXT(2) 
PARAMETRIC_REPRESENTATION_CONTEXT() REPRESENTATION_CONTEXT('2D SPACE',''
  ) );
#205 = ( GEOMETRIC_REPRESENTATION_CONTEXT(3) 
GLOBAL_UNCERTAINTY_ASSIGNED_CONTEXT((#209)) GLOBAL_UNIT_ASSIGNED_CONTEXT
((#206,#207,#208)) REPRESENTATION_CONTEXT('Context #1',
  '3D Context with UNIT and UNCERTAINTY') );
#206 = ( LENGTH_UNIT() NAMED_UNIT(*) SI_UNIT(.MILLI.,.METRE.) );
#207 = ( NAMED_UNIT(*) PLANE_ANGLE_UNIT() SI_UNIT($,.RADIAN.) );
#208 = ( NAMED_UNIT(*) SI_UNIT($,.STERADIAN.) SOLID_ANGLE_UNIT() );
#209 = UNCERTAINTY_MEASURE_WITH_UNIT(LENGTH_MEASURE(1.E-07),#206,
  'distance_accuracy_value','confusion accuracy');
#210 = PRODUCT_RELATED_PRODUCT_CATEGORY('part',$,(#7));
ENDSEC;
END-ISO-10303-21;
