ISO-10303-21;
HEADER;
FILE_DESCRIPTION(('Open CASCADE Model'),'2;1');
FILE_NAME('Open CASCADE Shape Model','2026-05-28T17:04:49',('Author'),(
    'Open CASCADE'),'Open CASCADE STEP processor 7.9','Open CASCADE 7.9'
  ,'Unknown');
FILE_SCHEMA(('AUTOMOTIVE_DESIGN { 1 0 10303 214 1 1 1 1 }'));
ENDSEC;
DATA;
#1 = APPLICATION_PROTOCOL_DEFINITION('international standard',
  'automotive_design',2000,#2);
#2 = APPLICATION_CONTEXT(
  'core data for automotive mechanical design processes');
#3 = SHAPE_DEFINITION_REPRESENTATION(#4,#10);
#4 = PRODUCT_DEFINITION_SHAPE('','',#5);
#5 = PRODUCT_DEFINITION('design','',#6,#9);
#6 = PRODUCT_DEFINITION_FORMATION('','',#7);
#7 = PRODUCT('Open CASCADE STEP translator 7.9 46',
  'Open CASCADE STEP translator 7.9 46','',(#8));
#8 = PRODUCT_CONTEXT('',#2,'mechanical');
#9 = PRODUCT_DEFINITION_CONTEXT('part definition',#2,'design');
#10 = MANIFOLD_SURFACE_SHAPE_REPRESENTATION('',(#11,#15),#253);
#11 = AXIS2_PLACEMENT_3D('',#12,#13,#14);
#12 = CARTESIAN_POINT('',(0.,0.,0.));
#13 = DIRECTION('',(0.,0.,1.));
#14 = DIRECTION('',(1.,0.,-0.));
#15 = SHELL_BASED_SURFACE_MODEL('',(#16));
#16 = OPEN_SHELL('',(#17));
#17 = ADVANCED_FACE('',(#18),#73,.T.);
#18 = FACE_BOUND('',#19,.T.);
#19 = EDGE_LOOP('',(#20,#125,#141,#239));
#20 = ORIENTED_EDGE('',*,*,#21,.T.);
#21 = EDGE_CURVE('',#22,#24,#26,.T.);
#22 = VERTEX_POINT('',#23);
#23 = CARTESIAN_POINT('',(0.,2.735457729868E-02,0.));
#24 = VERTEX_POINT('',#25);
#25 = CARTESIAN_POINT('',(8.6,-1.685783524664E-03,0.));
#26 = SURFACE_CURVE('',#27,(#72),.PCURVE_S1.);
#27 = B_SPLINE_CURVE_WITH_KNOTS('',1,(#28,#29,#30,#31,#32,#33,#34,#35,
    #36,#37,#38,#39,#40,#41,#42,#43,#44,#45,#46,#47,#48,#49,#50,#51,#52,
    #53,#54,#55,#56,#57,#58,#59,#60,#61,#62,#63,#64,#65,#66,#67,#68,#69,
    #70,#71),.UNSPECIFIED.,.F.,.F.,(2,1,1,1,1,1,1,1,1,1,1,1,1,1,1,1,1,1,
    1,1,1,1,1,1,1,1,1,1,1,1,1,1,1,1,1,1,1,1,1,1,1,1,1,2),(0.,
    3.477481673702E-03,1.288947688468E-02,3.188330875989E-02,
    0.128323854779,0.131438823002,0.15654182733,0.166399648143,
    0.175308876398,0.227529058541,0.233677534592,0.250544101622,
    0.258291568295,0.303576360749,0.336416441824,0.356854494161,
    0.387013500957,0.395160517893,0.396626840933,0.41499662065,
    0.469544373694,0.50164095632,0.510096546487,0.529091202346,
    0.549666934806,0.552002611662,0.631647225433,0.674172854545,
    0.696068533,0.725035614815,0.765648266831,0.78944084087,
    0.797274108886,0.804682558535,0.842477825452,0.852055750663,
    0.863385166301,0.871634785419,0.887124144545,0.897924924973,
    0.971447019431,0.986165455231,0.991403631732,1.),.UNSPECIFIED.);
#28 = CARTESIAN_POINT('',(0.,2.735457729868E-02,0.));
#29 = CARTESIAN_POINT('',(2.328255361177E-02,4.795501811614E-03,0.));
#30 = CARTESIAN_POINT('',(0.10441174793,3.821722702684E-02,0.));
#31 = CARTESIAN_POINT('',(0.276484797865,-3.555028915138E-03,0.));
#32 = CARTESIAN_POINT('',(1.175304558698,-2.480351055759E-02,0.));
#33 = CARTESIAN_POINT('',(1.199690092475,-9.03539431542E-03,0.));
#34 = CARTESIAN_POINT('',(1.426447855621,4.882688029698E-02,0.));
#35 = CARTESIAN_POINT('',(1.44426663315,-4.132903369987E-02,0.));
#36 = CARTESIAN_POINT('',(1.465366978764,3.90026595015E-02,0.));
#37 = CARTESIAN_POINT('',(1.947018847537,-3.177744007334E-02,0.));
#38 = CARTESIAN_POINT('',(1.97755295324,1.67321867069E-02,0.));
#39 = CARTESIAN_POINT('',(2.126406530438,-3.393136176673E-02,0.));
#40 = CARTESIAN_POINT('',(2.147165258831,3.524725159136E-02,0.));
#41 = CARTESIAN_POINT('',(2.569328007355,3.760054755655E-02,0.));
#42 = CARTESIAN_POINT('',(2.873207193076,3.568984539021E-04,0.));
#43 = CARTESIAN_POINT('',(3.055421240154,5.60476782362E-02,0.));
#44 = CARTESIAN_POINT('',(3.335630615711,3.296431934612E-02,0.));
#45 = CARTESIAN_POINT('',(3.382396199814,-2.688147026212E-02,0.));
#46 = CARTESIAN_POINT('',(3.3837308363,-4.048601739665E-02,0.));
#47 = CARTESIAN_POINT('',(3.528935686532,5.030575632746E-02,0.));
#48 = CARTESIAN_POINT('',(4.028285748695,-4.584932513257E-02,0.));
#49 = CARTESIAN_POINT('',(4.327335329834,-3.570206448638E-02,0.));
#50 = CARTESIAN_POINT('',(4.405685767263,-4.436211548484E-02,0.));
#51 = CARTESIAN_POINT('',(4.581567675106,-2.381142654946E-02,0.));
#52 = CARTESIAN_POINT('',(4.773363651452,-2.089836807528E-02,0.));
#53 = CARTESIAN_POINT('',(4.785780378393,-3.011188001384E-03,0.));
#54 = CARTESIAN_POINT('',(5.528112373269,-1.833446693896E-02,0.));
#55 = CARTESIAN_POINT('',(5.923269029735,-5.029315974799E-02,0.));
#56 = CARTESIAN_POINT('',(6.102202273955,4.793735982999E-02,0.));
#57 = CARTESIAN_POINT('',(6.371010992068,2.210826265847E-02,0.));
#58 = CARTESIAN_POINT('',(6.748496619018,5.13054031685E-02,0.));
#59 = CARTESIAN_POINT('',(6.944047437127,-5.337662063328E-02,0.));
#60 = CARTESIAN_POINT('',(6.985753739644,6.568144080073E-03,0.));
#61 = CARTESIAN_POINT('',(7.049060688002,-2.104133648114E-02,0.));
#62 = CARTESIAN_POINT('',(7.400846575353,-4.093440774052E-02,0.));
#63 = CARTESIAN_POINT('',(7.488307010534,-5.892002976918E-02,0.));
#64 = CARTESIAN_POINT('',(7.523717299724,4.058610506493E-02,0.));
#65 = CARTESIAN_POINT('',(7.531350979284,-3.594151268619E-02,0.));
#66 = CARTESIAN_POINT('',(7.675365300003,-4.649074777641E-02,0.));
#67 = CARTESIAN_POINT('',(7.678982960119,5.413495477789E-02,0.));
#68 = CARTESIAN_POINT('',(8.359151347235,-3.049086722227E-02,0.));
#69 = CARTESIAN_POINT('',(8.487723398353,1.743296145641E-02,0.));
#70 = CARTESIAN_POINT('',(8.521503310819,-1.783161497645E-02,0.));
#71 = CARTESIAN_POINT('',(8.6,-1.685783524664E-03,0.));
#72 = PCURVE('',#73,#78);
#73 = PLANE('',#74);
#74 = AXIS2_PLACEMENT_3D('',#75,#76,#77);
#75 = CARTESIAN_POINT('',(4.347954665566,0.1,0.));
#76 = DIRECTION('',(0.,0.,1.));
#77 = DIRECTION('',(1.,0.,-0.));
#78 = DEFINITIONAL_REPRESENTATION('',(#79),#124);
#79 = B_SPLINE_CURVE_WITH_KNOTS('',1,(#80,#81,#82,#83,#84,#85,#86,#87,
    #88,#89,#90,#91,#92,#93,#94,#95,#96,#97,#98,#99,#100,#101,#102,#103,
    #104,#105,#106,#107,#108,#109,#110,#111,#112,#113,#114,#115,#116,
    #117,#118,#119,#120,#121,#122,#123),.UNSPECIFIED.,.F.,.F.,(2,1,1,1,1
    ,1,1,1,1,1,1,1,1,1,1,1,1,1,1,1,1,1,1,1,1,1,1,1,1,1,1,1,1,1,1,1,1,1,1
    ,1,1,1,1,2),(0.,3.477481673702E-03,1.288947688468E-02,
    3.188330875989E-02,0.128323854779,0.131438823002,0.15654182733,
    0.166399648143,0.175308876398,0.227529058541,0.233677534592,
    0.250544101622,0.258291568295,0.303576360749,0.336416441824,
    0.356854494161,0.387013500957,0.395160517893,0.396626840933,
    0.41499662065,0.469544373694,0.50164095632,0.510096546487,
    0.529091202346,0.549666934806,0.552002611662,0.631647225433,
    0.674172854545,0.696068533,0.725035614815,0.765648266831,
    0.78944084087,0.797274108886,0.804682558535,0.842477825452,
    0.852055750663,0.863385166301,0.871634785419,0.887124144545,
    0.897924924973,0.971447019431,0.986165455231,0.991403631732,1.),
  .UNSPECIFIED.);
#80 = CARTESIAN_POINT('',(-4.347954665566,-7.264542270132E-02));
#81 = CARTESIAN_POINT('',(-4.324672111954,-9.520449818839E-02));
#82 = CARTESIAN_POINT('',(-4.243542917636,-6.178277297316E-02));
#83 = CARTESIAN_POINT('',(-4.071469867701,-0.103555028915));
#84 = CARTESIAN_POINT('',(-3.172650106868,-0.124803510558));
#85 = CARTESIAN_POINT('',(-3.148264573091,-0.109035394315));
#86 = CARTESIAN_POINT('',(-2.921506809945,-5.117311970302E-02));
#87 = CARTESIAN_POINT('',(-2.903688032416,-0.1413290337));
#88 = CARTESIAN_POINT('',(-2.882587686802,-6.09973404985E-02));
#89 = CARTESIAN_POINT('',(-2.400935818028,-0.131777440073));
#90 = CARTESIAN_POINT('',(-2.370401712326,-8.32678132931E-02));
#91 = CARTESIAN_POINT('',(-2.221548135128,-0.133931361767));
#92 = CARTESIAN_POINT('',(-2.200789406735,-6.475274840864E-02));
#93 = CARTESIAN_POINT('',(-1.778626658211,-6.239945244345E-02));
#94 = CARTESIAN_POINT('',(-1.47474747249,-9.96431015461E-02));
#95 = CARTESIAN_POINT('',(-1.292533425412,-4.39523217638E-02));
#96 = CARTESIAN_POINT('',(-1.012324049855,-6.703568065388E-02));
#97 = CARTESIAN_POINT('',(-0.965558465752,-0.126881470262));
#98 = CARTESIAN_POINT('',(-0.964223829266,-0.140486017397));
#99 = CARTESIAN_POINT('',(-0.819018979034,-4.969424367254E-02));
#100 = CARTESIAN_POINT('',(-0.319668916871,-0.145849325133));
#101 = CARTESIAN_POINT('',(-2.061933573186E-02,-0.135702064486));
#102 = CARTESIAN_POINT('',(5.773110169664E-02,-0.144362115485));
#103 = CARTESIAN_POINT('',(0.23361300954,-0.123811426549));
#104 = CARTESIAN_POINT('',(0.425408985886,-0.120898368075));
#105 = CARTESIAN_POINT('',(0.437825712827,-0.103011188001));
#106 = CARTESIAN_POINT('',(1.180157707703,-0.118334466939));
#107 = CARTESIAN_POINT('',(1.575314364169,-0.150293159748));
#108 = CARTESIAN_POINT('',(1.754247608389,-5.206264017001E-02));
#109 = CARTESIAN_POINT('',(2.023056326502,-7.789173734153E-02));
#110 = CARTESIAN_POINT('',(2.400541953452,-4.86945968315E-02));
#111 = CARTESIAN_POINT('',(2.596092771561,-0.153376620633));
#112 = CARTESIAN_POINT('',(2.637799074079,-9.343185591993E-02));
#113 = CARTESIAN_POINT('',(2.701106022437,-0.121041336481));
#114 = CARTESIAN_POINT('',(3.052891909787,-0.140934407741));
#115 = CARTESIAN_POINT('',(3.140352344968,-0.158920029769));
#116 = CARTESIAN_POINT('',(3.175762634159,-5.941389493507E-02));
#117 = CARTESIAN_POINT('',(3.183396313718,-0.135941512686));
#118 = CARTESIAN_POINT('',(3.327410634437,-0.146490747776));
#119 = CARTESIAN_POINT('',(3.331028294553,-4.586504522211E-02));
#120 = CARTESIAN_POINT('',(4.011196681669,-0.130490867222));
#121 = CARTESIAN_POINT('',(4.139768732788,-8.256703854359E-02));
#122 = CARTESIAN_POINT('',(4.173548645253,-0.117831614976));
#123 = CARTESIAN_POINT('',(4.252045334434,-0.101685783525));
#124 = ( GEOMETRIC_REPRESENTATION_CONTEXT(2) 
PARAMETRIC_REPRESENTATION_CONTEXT() REPRESENTATION_CONTEXT('2D SPACE',''
  ) );
#125 = ORIENTED_EDGE('',*,*,#126,.T.);
#126 = EDGE_CURVE('',#24,#127,#129,.T.);
#127 = VERTEX_POINT('',#128);
#128 = CARTESIAN_POINT('',(8.6,0.201685783525,0.));
#129 = SURFACE_CURVE('',#130,(#134),.PCURVE_S1.);
#130 = LINE('',#131,#132);
#131 = CARTESIAN_POINT('',(8.6,-1.685783524664E-03,0.));
#132 = VECTOR('',#133,1.);
#133 = DIRECTION('',(0.,1.,0.));
#134 = PCURVE('',#73,#135);
#135 = DEFINITIONAL_REPRESENTATION('',(#136),#140);
#136 = LINE('',#137,#138);
#137 = CARTESIAN_POINT('',(4.252045334434,-0.101685783525));
#138 = VECTOR('',#139,1.);
#139 = DIRECTION('',(0.,1.));
#140 = ( GEOMETRIC_REPRESENTATION_CONTEXT(2) 
PARAMETRIC_REPRESENTATION_CONTEXT() REPRESENTATION_CONTEXT('2D SPACE',''
  ) );
#141 = ORIENTED_EDGE('',*,*,#142,.T.);
#142 = EDGE_CURVE('',#127,#143,#145,.T.);
#143 = VERTEX_POINT('',#144);
#144 = CARTESIAN_POINT('',(0.,0.172645422701,0.));
#145 = SURFACE_CURVE('',#146,(#191),.PCURVE_S1.);
#146 = B_SPLINE_CURVE_WITH_KNOTS('',1,(#147,#148,#149,#150,#151,#152,
    #153,#154,#155,#156,#157,#158,#159,#160,#161,#162,#163,#164,#165,
    #166,#167,#168,#169,#170,#171,#172,#173,#174,#175,#176,#177,#178,
    #179,#180,#181,#182,#183,#184,#185,#186,#187,#188,#189,#190),
  .UNSPECIFIED.,.F.,.F.,(2,1,1,1,1,1,1,1,1,1,1,1,1,1,1,1,1,1,1,1,1,1,1,1
    ,1,1,1,1,1,1,1,1,1,1,1,1,1,1,1,1,1,1,1,2),(0.,8.59636826835E-03,
    1.383454476915E-02,2.855298056871E-02,0.102075075027,0.112875855455,
    0.128365214581,0.136614833699,0.147944249337,0.157522174548,
    0.195317441465,0.202725891114,0.21055915913,0.234351733169,
    0.274964385185,0.303931467,0.325827145455,0.368352774567,
    0.447997388338,0.450333065194,0.470908797654,0.489903453513,
    0.49835904368,0.530455626306,0.58500337935,0.603373159067,
    0.604839482107,0.612986499043,0.643145505839,0.663583558176,
    0.696423639251,0.741708431705,0.749455898378,0.766322465408,
    0.772470941459,0.824691123602,0.833600351857,0.84345817267,
    0.868561176998,0.871676145221,0.96811669124,0.987110523115,
    0.996522518326,1.),.UNSPECIFIED.);
#147 = CARTESIAN_POINT('',(8.6,0.201685783525,0.));
#148 = CARTESIAN_POINT('',(8.521503310819,0.217831614976,0.));
#149 = CARTESIAN_POINT('',(8.487723398353,0.182567038544,0.));
#150 = CARTESIAN_POINT('',(8.359151347235,0.230490867222,0.));
#151 = CARTESIAN_POINT('',(7.678982960119,0.145865045222,0.));
#152 = CARTESIAN_POINT('',(7.675365300003,0.246490747776,0.));
#153 = CARTESIAN_POINT('',(7.531350979284,0.235941512686,0.));
#154 = CARTESIAN_POINT('',(7.523717299724,0.159413894935,0.));
#155 = CARTESIAN_POINT('',(7.488307010534,0.258920029769,0.));
#156 = CARTESIAN_POINT('',(7.400846575353,0.240934407741,0.));
#157 = CARTESIAN_POINT('',(7.049060688002,0.221041336481,0.));
#158 = CARTESIAN_POINT('',(6.985753739644,0.19343185592,0.));
#159 = CARTESIAN_POINT('',(6.944047437127,0.253376620633,0.));
#160 = CARTESIAN_POINT('',(6.748496619018,0.148694596832,0.));
#161 = CARTESIAN_POINT('',(6.371010992068,0.177891737342,0.));
#162 = CARTESIAN_POINT('',(6.102202273955,0.15206264017,0.));
#163 = CARTESIAN_POINT('',(5.923269029735,0.250293159748,0.));
#164 = CARTESIAN_POINT('',(5.528112373269,0.218334466939,0.));
#165 = CARTESIAN_POINT('',(4.785780378393,0.203011188001,0.));
#166 = CARTESIAN_POINT('',(4.773363651452,0.220898368075,0.));
#167 = CARTESIAN_POINT('',(4.581567675106,0.223811426549,0.));
#168 = CARTESIAN_POINT('',(4.405685767263,0.244362115485,0.));
#169 = CARTESIAN_POINT('',(4.327335329834,0.235702064486,0.));
#170 = CARTESIAN_POINT('',(4.028285748695,0.245849325133,0.));
#171 = CARTESIAN_POINT('',(3.528935686532,0.149694243673,0.));
#172 = CARTESIAN_POINT('',(3.3837308363,0.240486017397,0.));
#173 = CARTESIAN_POINT('',(3.382396199814,0.226881470262,0.));
#174 = CARTESIAN_POINT('',(3.335630615711,0.167035680654,0.));
#175 = CARTESIAN_POINT('',(3.055421240154,0.143952321764,0.));
#176 = CARTESIAN_POINT('',(2.873207193076,0.199643101546,0.));
#177 = CARTESIAN_POINT('',(2.569328007355,0.162399452443,0.));
#178 = CARTESIAN_POINT('',(2.147165258831,0.164752748409,0.));
#179 = CARTESIAN_POINT('',(2.126406530438,0.233931361767,0.));
#180 = CARTESIAN_POINT('',(1.97755295324,0.183267813293,0.));
#181 = CARTESIAN_POINT('',(1.947018847537,0.231777440073,0.));
#182 = CARTESIAN_POINT('',(1.465366978764,0.160997340498,0.));
#183 = CARTESIAN_POINT('',(1.44426663315,0.2413290337,0.));
#184 = CARTESIAN_POINT('',(1.426447855621,0.151173119703,0.));
#185 = CARTESIAN_POINT('',(1.199690092475,0.209035394315,0.));
#186 = CARTESIAN_POINT('',(1.175304558698,0.224803510558,0.));
#187 = CARTESIAN_POINT('',(0.276484797865,0.203555028915,0.));
#188 = CARTESIAN_POINT('',(0.10441174793,0.161782772973,0.));
#189 = CARTESIAN_POINT('',(2.328255361177E-02,0.195204498188,0.));
#190 = CARTESIAN_POINT('',(0.,0.172645422701,0.));
#191 = PCURVE('',#73,#192);
#192 = DEFINITIONAL_REPRESENTATION('',(#193),#238);
#193 = B_SPLINE_CURVE_WITH_KNOTS('',1,(#194,#195,#196,#197,#198,#199,
    #200,#201,#202,#203,#204,#205,#206,#207,#208,#209,#210,#211,#212,
    #213,#214,#215,#216,#217,#218,#219,#220,#221,#222,#223,#224,#225,
    #226,#227,#228,#229,#230,#231,#232,#233,#234,#235,#236,#237),
  .UNSPECIFIED.,.F.,.F.,(2,1,1,1,1,1,1,1,1,1,1,1,1,1,1,1,1,1,1,1,1,1,1,1
    ,1,1,1,1,1,1,1,1,1,1,1,1,1,1,1,1,1,1,1,2),(0.,8.59636826835E-03,
    1.383454476915E-02,2.855298056871E-02,0.102075075027,0.112875855455,
    0.128365214581,0.136614833699,0.147944249337,0.157522174548,
    0.195317441465,0.202725891114,0.21055915913,0.234351733169,
    0.274964385185,0.303931467,0.325827145455,0.368352774567,
    0.447997388338,0.450333065194,0.470908797654,0.489903453513,
    0.49835904368,0.530455626306,0.58500337935,0.603373159067,
    0.604839482107,0.612986499043,0.643145505839,0.663583558176,
    0.696423639251,0.741708431705,0.749455898378,0.766322465408,
    0.772470941459,0.824691123602,0.833600351857,0.84345817267,
    0.868561176998,0.871676145221,0.96811669124,0.987110523115,
    0.996522518326,1.),.UNSPECIFIED.);
#194 = CARTESIAN_POINT('',(4.252045334434,0.101685783525));
#195 = CARTESIAN_POINT('',(4.173548645253,0.117831614976));
#196 = CARTESIAN_POINT('',(4.139768732788,8.256703854359E-02));
#197 = CARTESIAN_POINT('',(4.011196681669,0.130490867222));
#198 = CARTESIAN_POINT('',(3.331028294553,4.586504522211E-02));
#199 = CARTESIAN_POINT('',(3.327410634437,0.146490747776));
#200 = CARTESIAN_POINT('',(3.183396313718,0.135941512686));
#201 = CARTESIAN_POINT('',(3.175762634159,5.941389493507E-02));
#202 = CARTESIAN_POINT('',(3.140352344968,0.158920029769));
#203 = CARTESIAN_POINT('',(3.052891909787,0.140934407741));
#204 = CARTESIAN_POINT('',(2.701106022437,0.121041336481));
#205 = CARTESIAN_POINT('',(2.637799074079,9.343185591993E-02));
#206 = CARTESIAN_POINT('',(2.596092771561,0.153376620633));
#207 = CARTESIAN_POINT('',(2.400541953452,4.86945968315E-02));
#208 = CARTESIAN_POINT('',(2.023056326502,7.789173734153E-02));
#209 = CARTESIAN_POINT('',(1.754247608389,5.206264017001E-02));
#210 = CARTESIAN_POINT('',(1.575314364169,0.150293159748));
#211 = CARTESIAN_POINT('',(1.180157707703,0.118334466939));
#212 = CARTESIAN_POINT('',(0.437825712827,0.103011188001));
#213 = CARTESIAN_POINT('',(0.425408985886,0.120898368075));
#214 = CARTESIAN_POINT('',(0.23361300954,0.123811426549));
#215 = CARTESIAN_POINT('',(5.773110169664E-02,0.144362115485));
#216 = CARTESIAN_POINT('',(-2.061933573186E-02,0.135702064486));
#217 = CARTESIAN_POINT('',(-0.319668916871,0.145849325133));
#218 = CARTESIAN_POINT('',(-0.819018979034,4.969424367254E-02));
#219 = CARTESIAN_POINT('',(-0.964223829266,0.140486017397));
#220 = CARTESIAN_POINT('',(-0.965558465752,0.126881470262));
#221 = CARTESIAN_POINT('',(-1.012324049855,6.703568065388E-02));
#222 = CARTESIAN_POINT('',(-1.292533425412,4.39523217638E-02));
#223 = CARTESIAN_POINT('',(-1.47474747249,9.96431015461E-02));
#224 = CARTESIAN_POINT('',(-1.778626658211,6.239945244345E-02));
#225 = CARTESIAN_POINT('',(-2.200789406735,6.475274840864E-02));
#226 = CARTESIAN_POINT('',(-2.221548135128,0.133931361767));
#227 = CARTESIAN_POINT('',(-2.370401712326,8.32678132931E-02));
#228 = CARTESIAN_POINT('',(-2.400935818028,0.131777440073));
#229 = CARTESIAN_POINT('',(-2.882587686802,6.09973404985E-02));
#230 = CARTESIAN_POINT('',(-2.903688032416,0.1413290337));
#231 = CARTESIAN_POINT('',(-2.921506809945,5.117311970302E-02));
#232 = CARTESIAN_POINT('',(-3.148264573091,0.109035394315));
#233 = CARTESIAN_POINT('',(-3.172650106868,0.124803510558));
#234 = CARTESIAN_POINT('',(-4.071469867701,0.103555028915));
#235 = CARTESIAN_POINT('',(-4.243542917636,6.178277297316E-02));
#236 = CARTESIAN_POINT('',(-4.324672111954,9.520449818839E-02));
#237 = CARTESIAN_POINT('',(-4.347954665566,7.264542270132E-02));
#238 = ( GEOMETRIC_REPRESENTATION_CONTEXT(2) 
PARAMETRIC_REPRESENTATION_CONTEXT() REPRESENTATION_CONTEXT('2D SPACE',''
  ) );
#239 = ORIENTED_EDGE('',*,*,#240,.T.);
#240 = EDGE_CURVE('',#143,#22,#241,.T.);
#241 = SURFACE_CURVE('',#242,(#246),.PCURVE_S1.);
#242 = LINE('',#243,#244);
#243 = CARTESIAN_POINT('',(0.,0.172645422701,0.));
#244 = VECTOR('',#245,1.);
#245 = DIRECTION('',(0.,-1.,0.));
#246 = PCURVE('',#73,#247);
#247 = DEFINITIONAL_REPRESENTATION('',(#248),#252);
#248 = LINE('',#249,#250);
#249 = CARTESIAN_POINT('',(-4.347954665566,7.264542270132E-02));
#250 = VECTOR('',#251,1.);
#251 = DIRECTION('',(0.,-1.));
#252 = ( GEOMETRIC_REPRESENTATION_CONTEXT(2) 
PARAMETRIC_REPRESENTATION_CONTEXT() REPRESENTATION_CONTEXT('2D SPACE',''
  ) );
#253 = ( GEOMETRIC_REPRESENTATION_CONTEXT(3) 
GLOBAL_UNCERTAINTY_ASSIGNED_CONTEXT((#257)) GLOBAL_UNIT_ASSIGNED_CONTEXT
((#254,#255,#256)) REPRESENTATION_CONTEXT('Context #1',
  '3D Context with UNIT and UNCERTAINTY') );
#254 = ( LENGTH_UNIT() NAMED_UNIT(*) SI_UNIT(.MILLI.,.METRE.) );
#255 = ( NAMED_UNIT(*) PLANE_ANGLE_UNIT() SI_UNIT($,.RADIAN.) );
#256 = ( NAMED_UNIT(*) SI_UNIT($,.STERADIAN.) SOLID_ANGLE_UNIT() );
#257 = UNCERTAINTY_MEASURE_WITH_UNIT(LENGTH_MEASURE(1.E-07),#254,
  'distance_accuracy_value','confusion accuracy');
#258 = PRODUCT_RELATED_PRODUCT_CATEGORY('part',$,(#7));
ENDSEC;
END-ISO-10303-21;
