ISO-10303-21;
HEADER;
FILE_DESCRIPTION(('Open CASCADE Model'),'2;1');
FILE_NAME('Open CASCADE Shape Model','2026-05-28T17:04:48',('Author'),(
    'Open CASCADE'),'Open CASCADE STEP processor 7.9','Open CASCADE 7.9'
  ,'Unknown');
FILE_SCHEMA(('AUTOMOTIVE_DESIGN { 1 0 10303 214 1 1 1 1 }'));
ENDSEC;
DATA;
#1 = APPLICATION_PROTOCOL_DEFINITION('international standard',
  'automotive_design',2000,#2);
#2 = APPLICATION_CONTEXT(
  'core data for automotive mechanical design processes');
#3 = SHAPE_DEFINITION_REPRESENTATION(#4,#10);
#4 = PRODUCT_DEFINITION_SHAPE('','',#5);
#5 = PRODUCT_DEFINITION('design','',#6,#9);
#6 = PRODUCT_DEFINITION_FORMATION('','',#7);
#7 = PRODUCT('Open CASCADE STEP translator 7.9 5',
  'Open CASCADE STEP translator 7.9 5','',(#8));
#8 = PRODUCT_CONTEXT('',#2,'mechanical');
#9 = PRODUCT_DEFINITION_CONTEXT('part definition',#2,'design');
#10 = MANIFOLD_SURFACE_SHAPE_REPRESENTATION('',(#11,#15),#201);
#11 = AXIS2_PLACEMENT_3D('',#12,#13,#14);
#12 = CARTESIAN_POINT('',(0.,0.,0.));
#13 = DIRECTION('',(0.,0.,1.));
#14 = DIRECTION('',(1.,0.,-0.));
#15 = SHELL_BASED_SURFACE_MODEL('',(#16));
#16 = OPEN_SHELL('',(#17));
#17 = ADVANCED_FACE('',(#18),#60,.T.);
#18 = FACE_BOUND('',#19,.T.);
#19 = EDGE_LOOP('',(#20,#99,#115,#187));
#20 = ORIENTED_EDGE('',*,*,#21,.T.);
#21 = EDGE_CURVE('',#22,#24,#26,.T.);
#22 = VERTEX_POINT('',#23);
#23 = CARTESIAN_POINT('',(0.,-3.798825161087E-02,0.));
#24 = VERTEX_POINT('',#25);
#25 = CARTESIAN_POINT('',(6.,5.408950560869E-02,0.));
#26 = SURFACE_CURVE('',#27,(#59),.PCURVE_S1.);
#27 = B_SPLINE_CURVE_WITH_KNOTS('',1,(#28,#29,#30,#31,#32,#33,#34,#35,
    #36,#37,#38,#39,#40,#41,#42,#43,#44,#45,#46,#47,#48,#49,#50,#51,#52,
    #53,#54,#55,#56,#57,#58),.UNSPECIFIED.,.F.,.F.,(2,1,1,1,1,1,1,1,1,1,
    1,1,1,1,1,1,1,1,1,1,1,1,1,1,1,1,1,1,1,1,2),(0.,2.178756745309E-02,
    0.105885753561,0.116433749563,0.147430324287,0.236522300539,
    0.247069703659,0.258206992556,0.379771181575,0.419167189187,
    0.425817069855,0.432748195874,0.459511291742,0.472514197676,
    0.533051132406,0.556490395584,0.595564228251,0.607852674687,
    0.611114900276,0.638372272683,0.655580316253,0.745497273361,
    0.783171877257,0.794691725029,0.811716743041,0.835800263858,
    0.872163524185,0.872501963826,0.935148556593,0.966999563369,1.),
  .UNSPECIFIED.);
#28 = CARTESIAN_POINT('',(0.,-3.798825161087E-02,0.));
#29 = CARTESIAN_POINT('',(0.107020703862,4.736663041751E-02,0.));
#30 = CARTESIAN_POINT('',(0.635384422505,5.201293716538E-02,0.));
#31 = CARTESIAN_POINT('',(0.654863980594,-1.133203965077E-02,0.));
#32 = CARTESIAN_POINT('',(0.842037582383,4.245921069688E-02,0.));
#33 = CARTESIAN_POINT('',(1.395844451799,-3.895970285476E-02,0.));
#34 = CARTESIAN_POINT('',(1.419974177985,2.275983912911E-02,0.));
#35 = CARTESIAN_POINT('',(1.487037377708,4.273536804346E-02,0.));
#36 = CARTESIAN_POINT('',(2.245104260443,-5.051645669849E-02,0.));
#37 = CARTESIAN_POINT('',(2.475429415642,4.013619327177E-02,0.));
#38 = CARTESIAN_POINT('',(2.514685915898,2.583359011945E-02,0.));
#39 = CARTESIAN_POINT('',(2.555292518241,4.156639257695E-02,0.));
#40 = CARTESIAN_POINT('',(2.723381292458,4.614119236016E-02,0.));
#41 = CARTESIAN_POINT('',(2.804289609332,5.746223803963E-02,0.));
#42 = CARTESIAN_POINT('',(3.184617543594,5.335255090029E-02,0.));
#43 = CARTESIAN_POINT('',(3.331188253961,3.90430234877E-02,0.));
#44 = CARTESIAN_POINT('',(3.576255319406,5.359416808474E-02,0.));
#45 = CARTESIAN_POINT('',(3.618642944032,-1.093725793332E-02,0.));
#46 = CARTESIAN_POINT('',(3.6360949242,-2.168574321594E-02,0.));
#47 = CARTESIAN_POINT('',(3.803850670087,1.276434518016E-02,0.));
#48 = CARTESIAN_POINT('',(3.91158615348,2.184106836575E-02,0.));
#49 = CARTESIAN_POINT('',(4.476085681461,-5.431484426676E-04,0.));
#50 = CARTESIAN_POINT('',(4.708580695513,-4.500059306815E-02,0.));
#51 = CARTESIAN_POINT('',(4.780902529951,-4.213579521866E-02,0.));
#52 = CARTESIAN_POINT('',(4.826165493678,5.478299255846E-02,0.));
#53 = CARTESIAN_POINT('',(4.976571689296,3.822019084842E-02,0.));
#54 = CARTESIAN_POINT('',(5.204943790514,3.159061546747E-02,0.));
#55 = CARTESIAN_POINT('',(5.206433722656,3.007349090013E-02,0.));
#56 = CARTESIAN_POINT('',(5.598139329601,-8.547918209133E-03,0.));
#57 = CARTESIAN_POINT('',(5.797391472859,1.004850891562E-02,0.));
#58 = CARTESIAN_POINT('',(6.,5.408950560869E-02,0.));
#59 = PCURVE('',#60,#65);
#60 = PLANE('',#61);
#61 = AXIS2_PLACEMENT_3D('',#62,#63,#64);
#62 = CARTESIAN_POINT('',(2.934100324534,0.1,0.));
#63 = DIRECTION('',(0.,0.,1.));
#64 = DIRECTION('',(1.,0.,-0.));
#65 = DEFINITIONAL_REPRESENTATION('',(#66),#98);
#66 = B_SPLINE_CURVE_WITH_KNOTS('',1,(#67,#68,#69,#70,#71,#72,#73,#74,
    #75,#76,#77,#78,#79,#80,#81,#82,#83,#84,#85,#86,#87,#88,#89,#90,#91,
    #92,#93,#94,#95,#96,#97),.UNSPECIFIED.,.F.,.F.,(2,1,1,1,1,1,1,1,1,1,
    1,1,1,1,1,1,1,1,1,1,1,1,1,1,1,1,1,1,1,1,2),(0.,2.178756745309E-02,
    0.105885753561,0.116433749563,0.147430324287,0.236522300539,
    0.247069703659,0.258206992556,0.379771181575,0.419167189187,
    0.425817069855,0.432748195874,0.459511291742,0.472514197676,
    0.533051132406,0.556490395584,0.595564228251,0.607852674687,
    0.611114900276,0.638372272683,0.655580316253,0.745497273361,
    0.783171877257,0.794691725029,0.811716743041,0.835800263858,
    0.872163524185,0.872501963826,0.935148556593,0.966999563369,1.),
  .UNSPECIFIED.);
#67 = CARTESIAN_POINT('',(-2.934100324534,-0.137988251611));
#68 = CARTESIAN_POINT('',(-2.827079620672,-5.26333695825E-02));
#69 = CARTESIAN_POINT('',(-2.298715902029,-4.798706283462E-02));
#70 = CARTESIAN_POINT('',(-2.279236343939,-0.111332039651));
#71 = CARTESIAN_POINT('',(-2.09206274215,-5.754078930312E-02));
#72 = CARTESIAN_POINT('',(-1.538255872735,-0.138959702855));
#73 = CARTESIAN_POINT('',(-1.514126146548,-7.724016087089E-02));
#74 = CARTESIAN_POINT('',(-1.447062946825,-5.726463195654E-02));
#75 = CARTESIAN_POINT('',(-0.688996064091,-0.150516456698));
#76 = CARTESIAN_POINT('',(-0.458670908892,-5.986380672823E-02));
#77 = CARTESIAN_POINT('',(-0.419414408636,-7.416640988055E-02));
#78 = CARTESIAN_POINT('',(-0.378807806293,-5.843360742305E-02));
#79 = CARTESIAN_POINT('',(-0.210719032076,-5.385880763984E-02));
#80 = CARTESIAN_POINT('',(-0.129810715202,-4.253776196037E-02));
#81 = CARTESIAN_POINT('',(0.250517219061,-4.664744909971E-02));
#82 = CARTESIAN_POINT('',(0.397087929427,-6.09569765123E-02));
#83 = CARTESIAN_POINT('',(0.642154994873,-4.640583191526E-02));
#84 = CARTESIAN_POINT('',(0.684542619499,-0.110937257933));
#85 = CARTESIAN_POINT('',(0.701994599666,-0.121685743216));
#86 = CARTESIAN_POINT('',(0.869750345553,-8.723565481984E-02));
#87 = CARTESIAN_POINT('',(0.977485828946,-7.815893163425E-02));
#88 = CARTESIAN_POINT('',(1.541985356927,-0.100543148443));
#89 = CARTESIAN_POINT('',(1.774480370979,-0.145000593068));
#90 = CARTESIAN_POINT('',(1.846802205417,-0.142135795219));
#91 = CARTESIAN_POINT('',(1.892065169144,-4.521700744154E-02));
#92 = CARTESIAN_POINT('',(2.042471364763,-6.177980915158E-02));
#93 = CARTESIAN_POINT('',(2.27084346598,-6.840938453253E-02));
#94 = CARTESIAN_POINT('',(2.272333398122,-6.992650909987E-02));
#95 = CARTESIAN_POINT('',(2.664039005068,-0.108547918209));
#96 = CARTESIAN_POINT('',(2.863291148325,-8.995149108438E-02));
#97 = CARTESIAN_POINT('',(3.065899675466,-4.591049439131E-02));
#98 = ( GEOMETRIC_REPRESENTATION_CONTEXT(2) 
PARAMETRIC_REPRESENTATION_CONTEXT() REPRESENTATION_CONTEXT('2D SPACE',''
  ) );
#99 = ORIENTED_EDGE('',*,*,#100,.T.);
#100 = EDGE_CURVE('',#24,#101,#103,.T.);
#101 = VERTEX_POINT('',#102);
#102 = CARTESIAN_POINT('',(6.,0.145910494391,0.));
#103 = SURFACE_CURVE('',#104,(#108),.PCURVE_S1.);
#104 = LINE('',#105,#106);
#105 = CARTESIAN_POINT('',(6.,5.408950560869E-02,0.));
#106 = VECTOR('',#107,1.);
#107 = DIRECTION('',(0.,1.,0.));
#108 = PCURVE('',#60,#109);
#109 = DEFINITIONAL_REPRESENTATION('',(#110),#114);
#110 = LINE('',#111,#112);
#111 = CARTESIAN_POINT('',(3.065899675466,-4.591049439131E-02));
#112 = VECTOR('',#113,1.);
#113 = DIRECTION('',(0.,1.));
#114 = ( GEOMETRIC_REPRESENTATION_CONTEXT(2) 
PARAMETRIC_REPRESENTATION_CONTEXT() REPRESENTATION_CONTEXT('2D SPACE',''
  ) );
#115 = ORIENTED_EDGE('',*,*,#116,.T.);
#116 = EDGE_CURVE('',#101,#117,#119,.T.);
#117 = VERTEX_POINT('',#118);
#118 = CARTESIAN_POINT('',(0.,0.237988251611,0.));
#119 = SURFACE_CURVE('',#120,(#152),.PCURVE_S1.);
#120 = B_SPLINE_CURVE_WITH_KNOTS('',1,(#121,#122,#123,#124,#125,#126,
    #127,#128,#129,#130,#131,#132,#133,#134,#135,#136,#137,#138,#139,
    #140,#141,#142,#143,#144,#145,#146,#147,#148,#149,#150,#151),
  .UNSPECIFIED.,.F.,.F.,(2,1,1,1,1,1,1,1,1,1,1,1,1,1,1,1,1,1,1,1,1,1,1,1
    ,1,1,1,1,1,1,2),(0.,3.300043663084E-02,6.48514434071E-02,
    0.127498036174,0.127836475815,0.164199736142,0.188283256959,
    0.205308274971,0.216828122743,0.254502726639,0.344419683747,
    0.361627727317,0.388885099724,0.392147325313,0.404435771749,
    0.443509604416,0.466948867594,0.527485802324,0.540488708258,
    0.567251804126,0.574182930145,0.580832810813,0.620228818425,
    0.741793007444,0.752930296341,0.763477699461,0.852569675713,
    0.883566250437,0.894114246439,0.978212432547,1.),.UNSPECIFIED.);
#121 = CARTESIAN_POINT('',(6.,0.145910494391,0.));
#122 = CARTESIAN_POINT('',(5.797391472859,0.189951491084,0.));
#123 = CARTESIAN_POINT('',(5.598139329601,0.208547918209,0.));
#124 = CARTESIAN_POINT('',(5.206433722656,0.1699265091,0.));
#125 = CARTESIAN_POINT('',(5.204943790514,0.168409384533,0.));
#126 = CARTESIAN_POINT('',(4.976571689296,0.161779809152,0.));
#127 = CARTESIAN_POINT('',(4.826165493678,0.145217007442,0.));
#128 = CARTESIAN_POINT('',(4.780902529951,0.242135795219,0.));
#129 = CARTESIAN_POINT('',(4.708580695513,0.245000593068,0.));
#130 = CARTESIAN_POINT('',(4.476085681461,0.200543148443,0.));
#131 = CARTESIAN_POINT('',(3.91158615348,0.178158931634,0.));
#132 = CARTESIAN_POINT('',(3.803850670087,0.18723565482,0.));
#133 = CARTESIAN_POINT('',(3.6360949242,0.221685743216,0.));
#134 = CARTESIAN_POINT('',(3.618642944032,0.210937257933,0.));
#135 = CARTESIAN_POINT('',(3.576255319406,0.146405831915,0.));
#136 = CARTESIAN_POINT('',(3.331188253961,0.160956976512,0.));
#137 = CARTESIAN_POINT('',(3.184617543594,0.1466474491,0.));
#138 = CARTESIAN_POINT('',(2.804289609332,0.14253776196,0.));
#139 = CARTESIAN_POINT('',(2.723381292458,0.15385880764,0.));
#140 = CARTESIAN_POINT('',(2.555292518241,0.158433607423,0.));
#141 = CARTESIAN_POINT('',(2.514685915898,0.174166409881,0.));
#142 = CARTESIAN_POINT('',(2.475429415642,0.159863806728,0.));
#143 = CARTESIAN_POINT('',(2.245104260443,0.250516456698,0.));
#144 = CARTESIAN_POINT('',(1.487037377708,0.157264631957,0.));
#145 = CARTESIAN_POINT('',(1.419974177985,0.177240160871,0.));
#146 = CARTESIAN_POINT('',(1.395844451799,0.238959702855,0.));
#147 = CARTESIAN_POINT('',(0.842037582383,0.157540789303,0.));
#148 = CARTESIAN_POINT('',(0.654863980594,0.211332039651,0.));
#149 = CARTESIAN_POINT('',(0.635384422505,0.147987062835,0.));
#150 = CARTESIAN_POINT('',(0.107020703862,0.152633369582,0.));
#151 = CARTESIAN_POINT('',(0.,0.237988251611,0.));
#152 = PCURVE('',#60,#153);
#153 = DEFINITIONAL_REPRESENTATION('',(#154),#186);
#154 = B_SPLINE_CURVE_WITH_KNOTS('',1,(#155,#156,#157,#158,#159,#160,
    #161,#162,#163,#164,#165,#166,#167,#168,#169,#170,#171,#172,#173,
    #174,#175,#176,#177,#178,#179,#180,#181,#182,#183,#184,#185),
  .UNSPECIFIED.,.F.,.F.,(2,1,1,1,1,1,1,1,1,1,1,1,1,1,1,1,1,1,1,1,1,1,1,1
    ,1,1,1,1,1,1,2),(0.,3.300043663084E-02,6.48514434071E-02,
    0.127498036174,0.127836475815,0.164199736142,0.188283256959,
    0.205308274971,0.216828122743,0.254502726639,0.344419683747,
    0.361627727317,0.388885099724,0.392147325313,0.404435771749,
    0.443509604416,0.466948867594,0.527485802324,0.540488708258,
    0.567251804126,0.574182930145,0.580832810813,0.620228818425,
    0.741793007444,0.752930296341,0.763477699461,0.852569675713,
    0.883566250437,0.894114246439,0.978212432547,1.),.UNSPECIFIED.);
#155 = CARTESIAN_POINT('',(3.065899675466,4.591049439131E-02));
#156 = CARTESIAN_POINT('',(2.863291148325,8.995149108438E-02));
#157 = CARTESIAN_POINT('',(2.664039005068,0.108547918209));
#158 = CARTESIAN_POINT('',(2.272333398122,6.992650909987E-02));
#159 = CARTESIAN_POINT('',(2.27084346598,6.840938453253E-02));
#160 = CARTESIAN_POINT('',(2.042471364763,6.177980915158E-02));
#161 = CARTESIAN_POINT('',(1.892065169144,4.521700744153E-02));
#162 = CARTESIAN_POINT('',(1.846802205417,0.142135795219));
#163 = CARTESIAN_POINT('',(1.774480370979,0.145000593068));
#164 = CARTESIAN_POINT('',(1.541985356927,0.100543148443));
#165 = CARTESIAN_POINT('',(0.977485828946,7.815893163425E-02));
#166 = CARTESIAN_POINT('',(0.869750345553,8.723565481984E-02));
#167 = CARTESIAN_POINT('',(0.701994599666,0.121685743216));
#168 = CARTESIAN_POINT('',(0.684542619499,0.110937257933));
#169 = CARTESIAN_POINT('',(0.642154994873,4.640583191526E-02));
#170 = CARTESIAN_POINT('',(0.397087929427,6.09569765123E-02));
#171 = CARTESIAN_POINT('',(0.250517219061,4.664744909971E-02));
#172 = CARTESIAN_POINT('',(-0.129810715202,4.253776196037E-02));
#173 = CARTESIAN_POINT('',(-0.210719032076,5.385880763984E-02));
#174 = CARTESIAN_POINT('',(-0.378807806293,5.843360742305E-02));
#175 = CARTESIAN_POINT('',(-0.419414408636,7.416640988055E-02));
#176 = CARTESIAN_POINT('',(-0.458670908892,5.986380672823E-02));
#177 = CARTESIAN_POINT('',(-0.688996064091,0.150516456698));
#178 = CARTESIAN_POINT('',(-1.447062946825,5.726463195654E-02));
#179 = CARTESIAN_POINT('',(-1.514126146548,7.724016087089E-02));
#180 = CARTESIAN_POINT('',(-1.538255872735,0.138959702855));
#181 = CARTESIAN_POINT('',(-2.09206274215,5.754078930312E-02));
#182 = CARTESIAN_POINT('',(-2.279236343939,0.111332039651));
#183 = CARTESIAN_POINT('',(-2.298715902029,4.798706283462E-02));
#184 = CARTESIAN_POINT('',(-2.827079620672,5.263336958249E-02));
#185 = CARTESIAN_POINT('',(-2.934100324534,0.137988251611));
#186 = ( GEOMETRIC_REPRESENTATION_CONTEXT(2) 
PARAMETRIC_REPRESENTATION_CONTEXT() REPRESENTATION_CONTEXT('2D SPACE',''
  ) );
#187 = ORIENTED_EDGE('',*,*,#188,.T.);
#188 = EDGE_CURVE('',#117,#22,#189,.T.);
#189 = SURFACE_CURVE('',#190,(#194),.PCURVE_S1.);
#190 = LINE('',#191,#192);
#191 = CARTESIAN_POINT('',(0.,0.237988251611,0.));
#192 = VECTOR('',#193,1.);
#193 = DIRECTION('',(0.,-1.,0.));
#194 = PCURVE('',#60,#195);
#195 = DEFINITIONAL_REPRESENTATION('',(#196),#200);
#196 = LINE('',#197,#198);
#197 = CARTESIAN_POINT('',(-2.934100324534,0.137988251611));
#198 = VECTOR('',#199,1.);
#199 = DIRECTION('',(0.,-1.));
#200 = ( GEOMETRIC_REPRESENTATION_CONTEXT(2) 
PARAMETRIC_REPRESENTATION_CONTEXT() REPRESENTATION_CONTEXT('2D SPACE',''
  ) );
#201 = ( GEOMETRIC_REPRESENTATION_CONTEXT(3) 
GLOBAL_UNCERTAINTY_ASSIGNED_CONTEXT((#205)) GLOBAL_UNIT_ASSIGNED_CONTEXT
((#202,#203,#204)) REPRESENTATION_CONTEXT('Context #1',
  '3D Context with UNIT and UNCERTAINTY') );
#202 = ( LENGTH_UNIT() NAMED_UNIT(*) SI_UNIT(.MILLI.,.METRE.) );
#203 = ( NAMED_UNIT(*) PLANE_ANGLE_UNIT() SI_UNIT($,.RADIAN.) );
#204 = ( NAMED_UNIT(*) SI_UNIT($,.STERADIAN.) SOLID_ANGLE_UNIT() );
#205 = UNCERTAINTY_MEASURE_WITH_UNIT(LENGTH_MEASURE(1.E-07),#202,
  'distance_accuracy_value','confusion accuracy');
#206 = PRODUCT_RELATED_PRODUCT_CATEGORY('part',$,(#7));
ENDSEC;
END-ISO-10303-21;
