ISO-10303-21;
HEADER;
FILE_DESCRIPTION(('Open CASCADE Model'),'2;1');
FILE_NAME('Open CASCADE Shape Model','2026-05-29T14:30:30',('Author'),(
    'Open CASCADE'),'Open CASCADE STEP processor 7.9','Open CASCADE 7.9'
  ,'Unknown');
FILE_SCHEMA(('AUTOMOTIVE_DESIGN { 1 0 10303 214 1 1 1 1 }'));
ENDSEC;
DATA;
#1 = APPLICATION_PROTOCOL_DEFINITION('international standard',
  'automotive_design',2000,#2);
#2 = APPLICATION_CONTEXT(
  'core data for automotive mechanical design processes');
#3 = SHAPE_DEFINITION_REPRESENTATION(#4,#10);
#4 = PRODUCT_DEFINITION_SHAPE('','',#5);
#5 = PRODUCT_DEFINITION('design','',#6,#9);
#6 = PRODUCT_DEFINITION_FORMATION('','',#7);
#7 = PRODUCT('Open CASCADE STEP translator 7.9 90',
  'Open CASCADE STEP translator 7.9 90','',(#8));
#8 = PRODUCT_CONTEXT('',#2,'mechanical');
#9 = PRODUCT_DEFINITION_CONTEXT('part definition',#2,'design');
#10 = MANIFOLD_SURFACE_SHAPE_REPRESENTATION('',(#11,#15),#121);
#11 = AXIS2_PLACEMENT_3D('',#12,#13,#14);
#12 = CARTESIAN_POINT('',(0.,0.,0.));
#13 = DIRECTION('',(0.,0.,1.));
#14 = DIRECTION('',(1.,0.,-0.));
#15 = SHELL_BASED_SURFACE_MODEL('',(#16));
#16 = OPEN_SHELL('',(#17));
#17 = ADVANCED_FACE('',(#18),#40,.T.);
#18 = FACE_BOUND('',#19,.T.);
#19 = EDGE_LOOP('',(#20,#59,#75,#107));
#20 = ORIENTED_EDGE('',*,*,#21,.T.);
#21 = EDGE_CURVE('',#22,#24,#26,.T.);
#22 = VERTEX_POINT('',#23);
#23 = CARTESIAN_POINT('',(0.,44.008499935419,0.));
#24 = VERTEX_POINT('',#25);
#25 = CARTESIAN_POINT('',(1.5E+03,0.53427567044,0.));
#26 = SURFACE_CURVE('',#27,(#39),.PCURVE_S1.);
#27 = B_SPLINE_CURVE_WITH_KNOTS('',1,(#28,#29,#30,#31,#32,#33,#34,#35,
    #36,#37,#38),.UNSPECIFIED.,.F.,.F.,(2,1,1,1,1,1,1,1,1,1,2),(0.,
    0.136609141186,0.183593064614,0.34438179747,0.386269134021,
    0.536992806164,0.675286240354,0.795006526323,0.818802892692,
    0.881094677963,1.),.UNSPECIFIED.);
#28 = CARTESIAN_POINT('',(0.,44.008499935419,0.));
#29 = CARTESIAN_POINT('',(213.7460443649,28.925624187259,0.));
#30 = CARTESIAN_POINT('',(247.95233000916,-36.35137699159,0.));
#31 = CARTESIAN_POINT('',(498.1314636206,-4.454425152005,0.));
#32 = CARTESIAN_POINT('',(553.12518239664,31.496437957661,0.));
#33 = CARTESIAN_POINT('',(789.49432208966,26.748859265176,0.));
#34 = CARTESIAN_POINT('',(1.002475336144E+03,-14.39876198134,0.));
#35 = CARTESIAN_POINT('',(1.190171285109E+03,-20.23351400221,0.));
#36 = CARTESIAN_POINT('',(1.225750094345E+03,-8.948412772194,0.));
#37 = CARTESIAN_POINT('',(1.318125859178E+03,-40.78335419212,0.));
#38 = CARTESIAN_POINT('',(1.5E+03,0.53427567044,0.));
#39 = PCURVE('',#40,#45);
#40 = PLANE('',#41);
#41 = AXIS2_PLACEMENT_3D('',#42,#43,#44);
#42 = CARTESIAN_POINT('',(759.46000139248,75.,0.));
#43 = DIRECTION('',(0.,0.,1.));
#44 = DIRECTION('',(1.,0.,-0.));
#45 = DEFINITIONAL_REPRESENTATION('',(#46),#58);
#46 = B_SPLINE_CURVE_WITH_KNOTS('',1,(#47,#48,#49,#50,#51,#52,#53,#54,
    #55,#56,#57),.UNSPECIFIED.,.F.,.F.,(2,1,1,1,1,1,1,1,1,1,2),(0.,
    0.136609141186,0.183593064614,0.34438179747,0.386269134021,
    0.536992806164,0.675286240354,0.795006526323,0.818802892692,
    0.881094677963,1.),.UNSPECIFIED.);
#47 = CARTESIAN_POINT('',(-759.4600013924,-30.99150006458));
#48 = CARTESIAN_POINT('',(-545.7139570275,-46.07437581274));
#49 = CARTESIAN_POINT('',(-511.5076713833,-111.3513769915));
#50 = CARTESIAN_POINT('',(-261.3285377718,-79.454425152));
#51 = CARTESIAN_POINT('',(-206.3348189958,-43.50356204233));
#52 = CARTESIAN_POINT('',(30.034320697177,-48.25114073482));
#53 = CARTESIAN_POINT('',(243.01533475157,-89.39876198134));
#54 = CARTESIAN_POINT('',(430.71128371671,-95.23351400221));
#55 = CARTESIAN_POINT('',(466.29009295247,-83.94841277219));
#56 = CARTESIAN_POINT('',(558.66585778518,-115.7833541921));
#57 = CARTESIAN_POINT('',(740.53999860751,-74.46572432956));
#58 = ( GEOMETRIC_REPRESENTATION_CONTEXT(2) 
PARAMETRIC_REPRESENTATION_CONTEXT() REPRESENTATION_CONTEXT('2D SPACE',''
  ) );
#59 = ORIENTED_EDGE('',*,*,#60,.T.);
#60 = EDGE_CURVE('',#24,#61,#63,.T.);
#61 = VERTEX_POINT('',#62);
#62 = CARTESIAN_POINT('',(1.5E+03,149.46572432956,0.));
#63 = SURFACE_CURVE('',#64,(#68),.PCURVE_S1.);
#64 = LINE('',#65,#66);
#65 = CARTESIAN_POINT('',(1.5E+03,0.53427567044,0.));
#66 = VECTOR('',#67,1.);
#67 = DIRECTION('',(0.,1.,0.));
#68 = PCURVE('',#40,#69);
#69 = DEFINITIONAL_REPRESENTATION('',(#70),#74);
#70 = LINE('',#71,#72);
#71 = CARTESIAN_POINT('',(740.53999860751,-74.46572432956));
#72 = VECTOR('',#73,1.);
#73 = DIRECTION('',(0.,1.));
#74 = ( GEOMETRIC_REPRESENTATION_CONTEXT(2) 
PARAMETRIC_REPRESENTATION_CONTEXT() REPRESENTATION_CONTEXT('2D SPACE',''
  ) );
#75 = ORIENTED_EDGE('',*,*,#76,.T.);
#76 = EDGE_CURVE('',#61,#77,#79,.T.);
#77 = VERTEX_POINT('',#78);
#78 = CARTESIAN_POINT('',(0.,105.99150006458,0.));
#79 = SURFACE_CURVE('',#80,(#92),.PCURVE_S1.);
#80 = B_SPLINE_CURVE_WITH_KNOTS('',1,(#81,#82,#83,#84,#85,#86,#87,#88,
    #89,#90,#91),.UNSPECIFIED.,.F.,.F.,(2,1,1,1,1,1,1,1,1,1,2),(0.,
    0.118905322037,0.181197107308,0.204993473677,0.324713759646,
    0.463007193836,0.613730865979,0.65561820253,0.816406935386,
    0.863390858814,1.),.UNSPECIFIED.);
#81 = CARTESIAN_POINT('',(1.5E+03,149.46572432956,0.));
#82 = CARTESIAN_POINT('',(1.318125859178E+03,190.78335419212,0.));
#83 = CARTESIAN_POINT('',(1.225750094345E+03,158.94841277219,0.));
#84 = CARTESIAN_POINT('',(1.190171285109E+03,170.23351400221,0.));
#85 = CARTESIAN_POINT('',(1.002475336144E+03,164.39876198134,0.));
#86 = CARTESIAN_POINT('',(789.49432208966,123.25114073482,0.));
#87 = CARTESIAN_POINT('',(553.12518239664,118.50356204233,0.));
#88 = CARTESIAN_POINT('',(498.1314636206,154.454425152,0.));
#89 = CARTESIAN_POINT('',(247.95233000916,186.35137699159,0.));
#90 = CARTESIAN_POINT('',(213.7460443649,121.07437581274,0.));
#91 = CARTESIAN_POINT('',(0.,105.99150006458,0.));
#92 = PCURVE('',#40,#93);
#93 = DEFINITIONAL_REPRESENTATION('',(#94),#106);
#94 = B_SPLINE_CURVE_WITH_KNOTS('',1,(#95,#96,#97,#98,#99,#100,#101,#102
    ,#103,#104,#105),.UNSPECIFIED.,.F.,.F.,(2,1,1,1,1,1,1,1,1,1,2),(0.,
    0.118905322037,0.181197107308,0.204993473677,0.324713759646,
    0.463007193836,0.613730865979,0.65561820253,0.816406935386,
    0.863390858814,1.),.UNSPECIFIED.);
#95 = CARTESIAN_POINT('',(740.53999860751,74.46572432956));
#96 = CARTESIAN_POINT('',(558.66585778518,115.78335419212));
#97 = CARTESIAN_POINT('',(466.29009295247,83.948412772194));
#98 = CARTESIAN_POINT('',(430.71128371671,95.233514002219));
#99 = CARTESIAN_POINT('',(243.01533475157,89.39876198134));
#100 = CARTESIAN_POINT('',(30.034320697177,48.251140734824));
#101 = CARTESIAN_POINT('',(-206.3348189958,43.503562042339));
#102 = CARTESIAN_POINT('',(-261.3285377718,79.454425152005));
#103 = CARTESIAN_POINT('',(-511.5076713833,111.35137699159));
#104 = CARTESIAN_POINT('',(-545.7139570275,46.074375812741));
#105 = CARTESIAN_POINT('',(-759.4600013924,30.991500064581));
#106 = ( GEOMETRIC_REPRESENTATION_CONTEXT(2) 
PARAMETRIC_REPRESENTATION_CONTEXT() REPRESENTATION_CONTEXT('2D SPACE',''
  ) );
#107 = ORIENTED_EDGE('',*,*,#108,.T.);
#108 = EDGE_CURVE('',#77,#22,#109,.T.);
#109 = SURFACE_CURVE('',#110,(#114),.PCURVE_S1.);
#110 = LINE('',#111,#112);
#111 = CARTESIAN_POINT('',(0.,105.99150006458,0.));
#112 = VECTOR('',#113,1.);
#113 = DIRECTION('',(0.,-1.,0.));
#114 = PCURVE('',#40,#115);
#115 = DEFINITIONAL_REPRESENTATION('',(#116),#120);
#116 = LINE('',#117,#118);
#117 = CARTESIAN_POINT('',(-759.4600013924,30.991500064581));
#118 = VECTOR('',#119,1.);
#119 = DIRECTION('',(0.,-1.));
#120 = ( GEOMETRIC_REPRESENTATION_CONTEXT(2) 
PARAMETRIC_REPRESENTATION_CONTEXT() REPRESENTATION_CONTEXT('2D SPACE',''
  ) );
#121 = ( GEOMETRIC_REPRESENTATION_CONTEXT(3) 
GLOBAL_UNCERTAINTY_ASSIGNED_CONTEXT((#125)) GLOBAL_UNIT_ASSIGNED_CONTEXT
((#122,#123,#124)) REPRESENTATION_CONTEXT('Context #1',
  '3D Context with UNIT and UNCERTAINTY') );
#122 = ( LENGTH_UNIT() NAMED_UNIT(*) SI_UNIT(.MILLI.,.METRE.) );
#123 = ( NAMED_UNIT(*) PLANE_ANGLE_UNIT() SI_UNIT($,.RADIAN.) );
#124 = ( NAMED_UNIT(*) SI_UNIT($,.STERADIAN.) SOLID_ANGLE_UNIT() );
#125 = UNCERTAINTY_MEASURE_WITH_UNIT(LENGTH_MEASURE(1.E-07),#122,
  'distance_accuracy_value','confusion accuracy');
#126 = PRODUCT_RELATED_PRODUCT_CATEGORY('part',$,(#7));
ENDSEC;
END-ISO-10303-21;
