ISO-10303-21;
HEADER;
FILE_DESCRIPTION(('Open CASCADE Model'),'2;1');
FILE_NAME('Open CASCADE Shape Model','2026-05-28T17:04:49',('Author'),(
    'Open CASCADE'),'Open CASCADE STEP processor 7.9','Open CASCADE 7.9'
  ,'Unknown');
FILE_SCHEMA(('AUTOMOTIVE_DESIGN { 1 0 10303 214 1 1 1 1 }'));
ENDSEC;
DATA;
#1 = APPLICATION_PROTOCOL_DEFINITION('international standard',
  'automotive_design',2000,#2);
#2 = APPLICATION_CONTEXT(
  'core data for automotive mechanical design processes');
#3 = SHAPE_DEFINITION_REPRESENTATION(#4,#10);
#4 = PRODUCT_DEFINITION_SHAPE('','',#5);
#5 = PRODUCT_DEFINITION('design','',#6,#9);
#6 = PRODUCT_DEFINITION_FORMATION('','',#7);
#7 = PRODUCT('Open CASCADE STEP translator 7.9 50',
  'Open CASCADE STEP translator 7.9 50','',(#8));
#8 = PRODUCT_CONTEXT('',#2,'mechanical');
#9 = PRODUCT_DEFINITION_CONTEXT('part definition',#2,'design');
#10 = MANIFOLD_SURFACE_SHAPE_REPRESENTATION('',(#11,#15),#137);
#11 = AXIS2_PLACEMENT_3D('',#12,#13,#14);
#12 = CARTESIAN_POINT('',(0.,0.,0.));
#13 = DIRECTION('',(0.,0.,1.));
#14 = DIRECTION('',(1.,0.,-0.));
#15 = SHELL_BASED_SURFACE_MODEL('',(#16));
#16 = OPEN_SHELL('',(#17));
#17 = ADVANCED_FACE('',(#18),#44,.T.);
#18 = FACE_BOUND('',#19,.T.);
#19 = EDGE_LOOP('',(#20,#67,#83,#123));
#20 = ORIENTED_EDGE('',*,*,#21,.T.);
#21 = EDGE_CURVE('',#22,#24,#26,.T.);
#22 = VERTEX_POINT('',#23);
#23 = CARTESIAN_POINT('',(0.,-1.275007433402E-02,0.));
#24 = VERTEX_POINT('',#25);
#25 = CARTESIAN_POINT('',(2.8,3.478954514118E-02,0.));
#26 = SURFACE_CURVE('',#27,(#43),.PCURVE_S1.);
#27 = B_SPLINE_CURVE_WITH_KNOTS('',1,(#28,#29,#30,#31,#32,#33,#34,#35,
    #36,#37,#38,#39,#40,#41,#42),.UNSPECIFIED.,.F.,.F.,(2,1,1,1,1,1,1,1,
    1,1,1,1,1,1,2),(0.,9.971402816431E-02,0.128639684359,0.275270975318,
    0.462723828065,0.501961766636,0.60892483374,0.646015504579,
    0.649301439584,0.708096399946,0.719761898439,0.820680737285,
    0.875050658266,0.929747759157,1.),.UNSPECIFIED.);
#28 = CARTESIAN_POINT('',(0.,-1.275007433402E-02,0.));
#29 = CARTESIAN_POINT('',(0.278627000023,5.203766354753E-02,0.));
#30 = CARTESIAN_POINT('',(0.358909804912,3.104478579726E-02,0.));
#31 = CARTESIAN_POINT('',(0.77900802482,5.271513784777E-02,0.));
#32 = CARTESIAN_POINT('',(1.313573623522,-5.866510680788E-03,0.));
#33 = CARTESIAN_POINT('',(1.416029158472,4.075942500686E-02,0.));
#34 = CARTESIAN_POINT('',(1.718095218131,-1.324887833202E-02,0.));
#35 = CARTESIAN_POINT('',(1.822274342123,-3.490381570359E-02,0.));
#36 = CARTESIAN_POINT('',(1.830935205739,-3.862568649262E-02,0.));
#37 = CARTESIAN_POINT('',(1.988002635423,2.285477902348E-02,0.));
#38 = CARTESIAN_POINT('',(2.00516663478,-5.87454392334E-03,0.));
#39 = CARTESIAN_POINT('',(2.294678321276,-7.561291210363E-03,0.));
#40 = CARTESIAN_POINT('',(2.450279711772,3.2535381415E-03,0.));
#41 = CARTESIAN_POINT('',(2.605663958455,-1.861366697097E-02,0.));
#42 = CARTESIAN_POINT('',(2.8,3.478954514118E-02,0.));
#43 = PCURVE('',#44,#49);
#44 = PLANE('',#45);
#45 = AXIS2_PLACEMENT_3D('',#46,#47,#48);
#46 = CARTESIAN_POINT('',(1.38302237195,0.1,0.));
#47 = DIRECTION('',(0.,0.,1.));
#48 = DIRECTION('',(1.,0.,-0.));
#49 = DEFINITIONAL_REPRESENTATION('',(#50),#66);
#50 = B_SPLINE_CURVE_WITH_KNOTS('',1,(#51,#52,#53,#54,#55,#56,#57,#58,
    #59,#60,#61,#62,#63,#64,#65),.UNSPECIFIED.,.F.,.F.,(2,1,1,1,1,1,1,1,
    1,1,1,1,1,1,2),(0.,9.971402816431E-02,0.128639684359,0.275270975318,
    0.462723828065,0.501961766636,0.60892483374,0.646015504579,
    0.649301439584,0.708096399946,0.719761898439,0.820680737285,
    0.875050658266,0.929747759157,1.),.UNSPECIFIED.);
#51 = CARTESIAN_POINT('',(-1.38302237195,-0.112750074334));
#52 = CARTESIAN_POINT('',(-1.104395371927,-4.796233645247E-02));
#53 = CARTESIAN_POINT('',(-1.024112567038,-6.895521420274E-02));
#54 = CARTESIAN_POINT('',(-0.60401434713,-4.728486215223E-02));
#55 = CARTESIAN_POINT('',(-6.944874842824E-02,-0.105866510681));
#56 = CARTESIAN_POINT('',(3.300678652139E-02,-5.924057499314E-02));
#57 = CARTESIAN_POINT('',(0.335072846181,-0.113248878332));
#58 = CARTESIAN_POINT('',(0.439251970173,-0.134903815704));
#59 = CARTESIAN_POINT('',(0.447912833789,-0.138625686493));
#60 = CARTESIAN_POINT('',(0.604980263473,-7.714522097652E-02));
#61 = CARTESIAN_POINT('',(0.62214426283,-0.105874543923));
#62 = CARTESIAN_POINT('',(0.911655949326,-0.10756129121));
#63 = CARTESIAN_POINT('',(1.067257339822,-9.67464618585E-02));
#64 = CARTESIAN_POINT('',(1.222641586505,-0.118613666971));
#65 = CARTESIAN_POINT('',(1.41697762805,-6.521045485882E-02));
#66 = ( GEOMETRIC_REPRESENTATION_CONTEXT(2) 
PARAMETRIC_REPRESENTATION_CONTEXT() REPRESENTATION_CONTEXT('2D SPACE',''
  ) );
#67 = ORIENTED_EDGE('',*,*,#68,.T.);
#68 = EDGE_CURVE('',#24,#69,#71,.T.);
#69 = VERTEX_POINT('',#70);
#70 = CARTESIAN_POINT('',(2.8,0.165210454859,0.));
#71 = SURFACE_CURVE('',#72,(#76),.PCURVE_S1.);
#72 = LINE('',#73,#74);
#73 = CARTESIAN_POINT('',(2.8,3.478954514118E-02,0.));
#74 = VECTOR('',#75,1.);
#75 = DIRECTION('',(0.,1.,0.));
#76 = PCURVE('',#44,#77);
#77 = DEFINITIONAL_REPRESENTATION('',(#78),#82);
#78 = LINE('',#79,#80);
#79 = CARTESIAN_POINT('',(1.41697762805,-6.521045485882E-02));
#80 = VECTOR('',#81,1.);
#81 = DIRECTION('',(0.,1.));
#82 = ( GEOMETRIC_REPRESENTATION_CONTEXT(2) 
PARAMETRIC_REPRESENTATION_CONTEXT() REPRESENTATION_CONTEXT('2D SPACE',''
  ) );
#83 = ORIENTED_EDGE('',*,*,#84,.T.);
#84 = EDGE_CURVE('',#69,#85,#87,.T.);
#85 = VERTEX_POINT('',#86);
#86 = CARTESIAN_POINT('',(0.,0.212750074334,0.));
#87 = SURFACE_CURVE('',#88,(#104),.PCURVE_S1.);
#88 = B_SPLINE_CURVE_WITH_KNOTS('',1,(#89,#90,#91,#92,#93,#94,#95,#96,
    #97,#98,#99,#100,#101,#102,#103),.UNSPECIFIED.,.F.,.F.,(2,1,1,1,1,1,
    1,1,1,1,1,1,1,1,2),(0.,7.025224084324E-02,0.124949341734,
    0.179319262715,0.280238101561,0.291903600054,0.350698560416,
    0.353984495421,0.39107516626,0.498038233364,0.537276171935,
    0.724729024682,0.871360315641,0.900285971836,1.),.UNSPECIFIED.);
#89 = CARTESIAN_POINT('',(2.8,0.165210454859,0.));
#90 = CARTESIAN_POINT('',(2.605663958455,0.218613666971,0.));
#91 = CARTESIAN_POINT('',(2.450279711772,0.196746461859,0.));
#92 = CARTESIAN_POINT('',(2.294678321276,0.20756129121,0.));
#93 = CARTESIAN_POINT('',(2.00516663478,0.205874543923,0.));
#94 = CARTESIAN_POINT('',(1.988002635423,0.177145220977,0.));
#95 = CARTESIAN_POINT('',(1.830935205739,0.238625686493,0.));
#96 = CARTESIAN_POINT('',(1.822274342123,0.234903815704,0.));
#97 = CARTESIAN_POINT('',(1.718095218131,0.213248878332,0.));
#98 = CARTESIAN_POINT('',(1.416029158472,0.159240574993,0.));
#99 = CARTESIAN_POINT('',(1.313573623522,0.205866510681,0.));
#100 = CARTESIAN_POINT('',(0.77900802482,0.147284862152,0.));
#101 = CARTESIAN_POINT('',(0.358909804912,0.168955214203,0.));
#102 = CARTESIAN_POINT('',(0.278627000023,0.147962336452,0.));
#103 = CARTESIAN_POINT('',(0.,0.212750074334,0.));
#104 = PCURVE('',#44,#105);
#105 = DEFINITIONAL_REPRESENTATION('',(#106),#122);
#106 = B_SPLINE_CURVE_WITH_KNOTS('',1,(#107,#108,#109,#110,#111,#112,
    #113,#114,#115,#116,#117,#118,#119,#120,#121),.UNSPECIFIED.,.F.,.F.,
  (2,1,1,1,1,1,1,1,1,1,1,1,1,1,2),(0.,7.025224084324E-02,0.124949341734,
    0.179319262715,0.280238101561,0.291903600054,0.350698560416,
    0.353984495421,0.39107516626,0.498038233364,0.537276171935,
    0.724729024682,0.871360315641,0.900285971836,1.),.UNSPECIFIED.);
#107 = CARTESIAN_POINT('',(1.41697762805,6.521045485882E-02));
#108 = CARTESIAN_POINT('',(1.222641586505,0.118613666971));
#109 = CARTESIAN_POINT('',(1.067257339822,9.67464618585E-02));
#110 = CARTESIAN_POINT('',(0.911655949326,0.10756129121));
#111 = CARTESIAN_POINT('',(0.62214426283,0.105874543923));
#112 = CARTESIAN_POINT('',(0.604980263473,7.714522097652E-02));
#113 = CARTESIAN_POINT('',(0.447912833789,0.138625686493));
#114 = CARTESIAN_POINT('',(0.439251970173,0.134903815704));
#115 = CARTESIAN_POINT('',(0.335072846181,0.113248878332));
#116 = CARTESIAN_POINT('',(3.300678652139E-02,5.924057499314E-02));
#117 = CARTESIAN_POINT('',(-6.944874842824E-02,0.105866510681));
#118 = CARTESIAN_POINT('',(-0.60401434713,4.728486215223E-02));
#119 = CARTESIAN_POINT('',(-1.024112567038,6.895521420274E-02));
#120 = CARTESIAN_POINT('',(-1.104395371927,4.796233645247E-02));
#121 = CARTESIAN_POINT('',(-1.38302237195,0.112750074334));
#122 = ( GEOMETRIC_REPRESENTATION_CONTEXT(2) 
PARAMETRIC_REPRESENTATION_CONTEXT() REPRESENTATION_CONTEXT('2D SPACE',''
  ) );
#123 = ORIENTED_EDGE('',*,*,#124,.T.);
#124 = EDGE_CURVE('',#85,#22,#125,.T.);
#125 = SURFACE_CURVE('',#126,(#130),.PCURVE_S1.);
#126 = LINE('',#127,#128);
#127 = CARTESIAN_POINT('',(0.,0.212750074334,0.));
#128 = VECTOR('',#129,1.);
#129 = DIRECTION('',(0.,-1.,0.));
#130 = PCURVE('',#44,#131);
#131 = DEFINITIONAL_REPRESENTATION('',(#132),#136);
#132 = LINE('',#133,#134);
#133 = CARTESIAN_POINT('',(-1.38302237195,0.112750074334));
#134 = VECTOR('',#135,1.);
#135 = DIRECTION('',(0.,-1.));
#136 = ( GEOMETRIC_REPRESENTATION_CONTEXT(2) 
PARAMETRIC_REPRESENTATION_CONTEXT() REPRESENTATION_CONTEXT('2D SPACE',''
  ) );
#137 = ( GEOMETRIC_REPRESENTATION_CONTEXT(3) 
GLOBAL_UNCERTAINTY_ASSIGNED_CONTEXT((#141)) GLOBAL_UNIT_ASSIGNED_CONTEXT
((#138,#139,#140)) REPRESENTATION_CONTEXT('Context #1',
  '3D Context with UNIT and UNCERTAINTY') );
#138 = ( LENGTH_UNIT() NAMED_UNIT(*) SI_UNIT(.MILLI.,.METRE.) );
#139 = ( NAMED_UNIT(*) PLANE_ANGLE_UNIT() SI_UNIT($,.RADIAN.) );
#140 = ( NAMED_UNIT(*) SI_UNIT($,.STERADIAN.) SOLID_ANGLE_UNIT() );
#141 = UNCERTAINTY_MEASURE_WITH_UNIT(LENGTH_MEASURE(1.E-07),#138,
  'distance_accuracy_value','confusion accuracy');
#142 = PRODUCT_RELATED_PRODUCT_CATEGORY('part',$,(#7));
ENDSEC;
END-ISO-10303-21;
