ISO-10303-21;
HEADER;
FILE_DESCRIPTION(('Open CASCADE Model'),'2;1');
FILE_NAME('Open CASCADE Shape Model','2026-05-29T14:30:30',('Author'),(
    'Open CASCADE'),'Open CASCADE STEP processor 7.9','Open CASCADE 7.9'
  ,'Unknown');
FILE_SCHEMA(('AUTOMOTIVE_DESIGN { 1 0 10303 214 1 1 1 1 }'));
ENDSEC;
DATA;
#1 = APPLICATION_PROTOCOL_DEFINITION('international standard',
  'automotive_design',2000,#2);
#2 = APPLICATION_CONTEXT(
  'core data for automotive mechanical design processes');
#3 = SHAPE_DEFINITION_REPRESENTATION(#4,#10);
#4 = PRODUCT_DEFINITION_SHAPE('','',#5);
#5 = PRODUCT_DEFINITION('design','',#6,#9);
#6 = PRODUCT_DEFINITION_FORMATION('','',#7);
#7 = PRODUCT('Open CASCADE STEP translator 7.9 47',
  'Open CASCADE STEP translator 7.9 47','',(#8));
#8 = PRODUCT_CONTEXT('',#2,'mechanical');
#9 = PRODUCT_DEFINITION_CONTEXT('part definition',#2,'design');
#10 = MANIFOLD_SURFACE_SHAPE_REPRESENTATION('',(#11,#15),#121);
#11 = AXIS2_PLACEMENT_3D('',#12,#13,#14);
#12 = CARTESIAN_POINT('',(0.,0.,0.));
#13 = DIRECTION('',(0.,0.,1.));
#14 = DIRECTION('',(1.,0.,-0.));
#15 = SHELL_BASED_SURFACE_MODEL('',(#16));
#16 = OPEN_SHELL('',(#17));
#17 = ADVANCED_FACE('',(#18),#40,.T.);
#18 = FACE_BOUND('',#19,.T.);
#19 = EDGE_LOOP('',(#20,#59,#75,#107));
#20 = ORIENTED_EDGE('',*,*,#21,.T.);
#21 = EDGE_CURVE('',#22,#24,#26,.T.);
#22 = VERTEX_POINT('',#23);
#23 = CARTESIAN_POINT('',(0.,5.580935737166,0.));
#24 = VERTEX_POINT('',#25);
#25 = CARTESIAN_POINT('',(1.5E+03,9.636534758679,0.));
#26 = SURFACE_CURVE('',#27,(#39),.PCURVE_S1.);
#27 = B_SPLINE_CURVE_WITH_KNOTS('',1,(#28,#29,#30,#31,#32,#33,#34,#35,
    #36,#37,#38),.UNSPECIFIED.,.F.,.F.,(2,1,1,1,1,1,1,1,1,1,2),(0.,
    8.826343259148E-02,0.152938081393,0.214176224,0.263440736346,
    0.51695114942,0.626779422,0.679901672719,0.798007252851,
    0.872365722436,1.),.UNSPECIFIED.);
#28 = CARTESIAN_POINT('',(0.,5.580935737166,0.));
#29 = CARTESIAN_POINT('',(142.21115968251,-12.51122843377,0.));
#30 = CARTESIAN_POINT('',(230.24901549089,44.792210467193,0.));
#31 = CARTESIAN_POINT('',(274.26106544837,-44.403164857,0.));
#32 = CARTESIAN_POINT('',(322.12301971007,19.719325263226,0.));
#33 = CARTESIAN_POINT('',(733.40310388523,39.414320411386,0.));
#34 = CARTESIAN_POINT('',(908.18583045492,3.756416261714,0.));
#35 = CARTESIAN_POINT('',(989.21941105275,33.387294853616,0.));
#36 = CARTESIAN_POINT('',(1.181034927699E+03,31.290596085818,0.));
#37 = CARTESIAN_POINT('',(1.293818830988E+03,-11.90545317271,0.));
#38 = CARTESIAN_POINT('',(1.5E+03,9.636534758679,0.));
#39 = PCURVE('',#40,#45);
#40 = PLANE('',#41);
#41 = AXIS2_PLACEMENT_3D('',#42,#43,#44);
#42 = CARTESIAN_POINT('',(721.73450516068,75.,0.));
#43 = DIRECTION('',(0.,0.,1.));
#44 = DIRECTION('',(1.,0.,-0.));
#45 = DEFINITIONAL_REPRESENTATION('',(#46),#58);
#46 = B_SPLINE_CURVE_WITH_KNOTS('',1,(#47,#48,#49,#50,#51,#52,#53,#54,
    #55,#56,#57),.UNSPECIFIED.,.F.,.F.,(2,1,1,1,1,1,1,1,1,1,2),(0.,
    8.826343259148E-02,0.152938081393,0.214176224,0.263440736346,
    0.51695114942,0.626779422,0.679901672719,0.798007252851,
    0.872365722436,1.),.UNSPECIFIED.);
#47 = CARTESIAN_POINT('',(-721.7345051606,-69.41906426283));
#48 = CARTESIAN_POINT('',(-579.5233454781,-87.51122843377));
#49 = CARTESIAN_POINT('',(-491.4854896697,-30.2077895328));
#50 = CARTESIAN_POINT('',(-447.4734397123,-119.403164857));
#51 = CARTESIAN_POINT('',(-399.6114854506,-55.28067473677));
#52 = CARTESIAN_POINT('',(11.668598724549,-35.58567958861));
#53 = CARTESIAN_POINT('',(186.45132529423,-71.24358373828));
#54 = CARTESIAN_POINT('',(267.48490589206,-41.61270514638));
#55 = CARTESIAN_POINT('',(459.30042253852,-43.70940391418));
#56 = CARTESIAN_POINT('',(572.08432582689,-86.90545317271));
#57 = CARTESIAN_POINT('',(778.26549483931,-65.36346524132));
#58 = ( GEOMETRIC_REPRESENTATION_CONTEXT(2) 
PARAMETRIC_REPRESENTATION_CONTEXT() REPRESENTATION_CONTEXT('2D SPACE',''
  ) );
#59 = ORIENTED_EDGE('',*,*,#60,.T.);
#60 = EDGE_CURVE('',#24,#61,#63,.T.);
#61 = VERTEX_POINT('',#62);
#62 = CARTESIAN_POINT('',(1.5E+03,140.36346524132,0.));
#63 = SURFACE_CURVE('',#64,(#68),.PCURVE_S1.);
#64 = LINE('',#65,#66);
#65 = CARTESIAN_POINT('',(1.5E+03,9.636534758679,0.));
#66 = VECTOR('',#67,1.);
#67 = DIRECTION('',(0.,1.,0.));
#68 = PCURVE('',#40,#69);
#69 = DEFINITIONAL_REPRESENTATION('',(#70),#74);
#70 = LINE('',#71,#72);
#71 = CARTESIAN_POINT('',(778.26549483931,-65.36346524132));
#72 = VECTOR('',#73,1.);
#73 = DIRECTION('',(0.,1.));
#74 = ( GEOMETRIC_REPRESENTATION_CONTEXT(2) 
PARAMETRIC_REPRESENTATION_CONTEXT() REPRESENTATION_CONTEXT('2D SPACE',''
  ) );
#75 = ORIENTED_EDGE('',*,*,#76,.T.);
#76 = EDGE_CURVE('',#61,#77,#79,.T.);
#77 = VERTEX_POINT('',#78);
#78 = CARTESIAN_POINT('',(0.,144.41906426283,0.));
#79 = SURFACE_CURVE('',#80,(#92),.PCURVE_S1.);
#80 = B_SPLINE_CURVE_WITH_KNOTS('',1,(#81,#82,#83,#84,#85,#86,#87,#88,
    #89,#90,#91),.UNSPECIFIED.,.F.,.F.,(2,1,1,1,1,1,1,1,1,1,2),(0.,
    0.127634277564,0.201992747149,0.320098327281,0.373220578,
    0.48304885058,0.736559263654,0.785823776,0.847061918607,
    0.911736567409,1.),.UNSPECIFIED.);
#81 = CARTESIAN_POINT('',(1.5E+03,140.36346524132,0.));
#82 = CARTESIAN_POINT('',(1.293818830988E+03,161.90545317271,0.));
#83 = CARTESIAN_POINT('',(1.181034927699E+03,118.70940391418,0.));
#84 = CARTESIAN_POINT('',(989.21941105275,116.61270514638,0.));
#85 = CARTESIAN_POINT('',(908.18583045492,146.24358373828,0.));
#86 = CARTESIAN_POINT('',(733.40310388523,110.58567958861,0.));
#87 = CARTESIAN_POINT('',(322.12301971007,130.28067473677,0.));
#88 = CARTESIAN_POINT('',(274.26106544837,194.403164857,0.));
#89 = CARTESIAN_POINT('',(230.24901549089,105.2077895328,0.));
#90 = CARTESIAN_POINT('',(142.21115968251,162.51122843377,0.));
#91 = CARTESIAN_POINT('',(0.,144.41906426283,0.));
#92 = PCURVE('',#40,#93);
#93 = DEFINITIONAL_REPRESENTATION('',(#94),#106);
#94 = B_SPLINE_CURVE_WITH_KNOTS('',1,(#95,#96,#97,#98,#99,#100,#101,#102
    ,#103,#104,#105),.UNSPECIFIED.,.F.,.F.,(2,1,1,1,1,1,1,1,1,1,2),(0.,
    0.127634277564,0.201992747149,0.320098327281,0.373220578,
    0.48304885058,0.736559263654,0.785823776,0.847061918607,
    0.911736567409,1.),.UNSPECIFIED.);
#95 = CARTESIAN_POINT('',(778.26549483931,65.363465241321));
#96 = CARTESIAN_POINT('',(572.08432582689,86.905453172719));
#97 = CARTESIAN_POINT('',(459.30042253852,43.709403914182));
#98 = CARTESIAN_POINT('',(267.48490589206,41.612705146384));
#99 = CARTESIAN_POINT('',(186.45132529423,71.243583738286));
#100 = CARTESIAN_POINT('',(11.668598724549,35.585679588614));
#101 = CARTESIAN_POINT('',(-399.6114854506,55.280674736774));
#102 = CARTESIAN_POINT('',(-447.4734397123,119.403164857));
#103 = CARTESIAN_POINT('',(-491.4854896697,30.207789532807));
#104 = CARTESIAN_POINT('',(-579.5233454781,87.511228433775));
#105 = CARTESIAN_POINT('',(-721.7345051606,69.419064262834));
#106 = ( GEOMETRIC_REPRESENTATION_CONTEXT(2) 
PARAMETRIC_REPRESENTATION_CONTEXT() REPRESENTATION_CONTEXT('2D SPACE',''
  ) );
#107 = ORIENTED_EDGE('',*,*,#108,.T.);
#108 = EDGE_CURVE('',#77,#22,#109,.T.);
#109 = SURFACE_CURVE('',#110,(#114),.PCURVE_S1.);
#110 = LINE('',#111,#112);
#111 = CARTESIAN_POINT('',(0.,144.41906426283,0.));
#112 = VECTOR('',#113,1.);
#113 = DIRECTION('',(0.,-1.,0.));
#114 = PCURVE('',#40,#115);
#115 = DEFINITIONAL_REPRESENTATION('',(#116),#120);
#116 = LINE('',#117,#118);
#117 = CARTESIAN_POINT('',(-721.7345051606,69.419064262834));
#118 = VECTOR('',#119,1.);
#119 = DIRECTION('',(0.,-1.));
#120 = ( GEOMETRIC_REPRESENTATION_CONTEXT(2) 
PARAMETRIC_REPRESENTATION_CONTEXT() REPRESENTATION_CONTEXT('2D SPACE',''
  ) );
#121 = ( GEOMETRIC_REPRESENTATION_CONTEXT(3) 
GLOBAL_UNCERTAINTY_ASSIGNED_CONTEXT((#125)) GLOBAL_UNIT_ASSIGNED_CONTEXT
((#122,#123,#124)) REPRESENTATION_CONTEXT('Context #1',
  '3D Context with UNIT and UNCERTAINTY') );
#122 = ( LENGTH_UNIT() NAMED_UNIT(*) SI_UNIT(.MILLI.,.METRE.) );
#123 = ( NAMED_UNIT(*) PLANE_ANGLE_UNIT() SI_UNIT($,.RADIAN.) );
#124 = ( NAMED_UNIT(*) SI_UNIT($,.STERADIAN.) SOLID_ANGLE_UNIT() );
#125 = UNCERTAINTY_MEASURE_WITH_UNIT(LENGTH_MEASURE(1.E-07),#122,
  'distance_accuracy_value','confusion accuracy');
#126 = PRODUCT_RELATED_PRODUCT_CATEGORY('part',$,(#7));
ENDSEC;
END-ISO-10303-21;
