ISO-10303-21;
HEADER;
FILE_DESCRIPTION(('Open CASCADE Model'),'2;1');
FILE_NAME('Open CASCADE Shape Model','2026-05-28T17:04:49',('Author'),(
    'Open CASCADE'),'Open CASCADE STEP processor 7.9','Open CASCADE 7.9'
  ,'Unknown');
FILE_SCHEMA(('AUTOMOTIVE_DESIGN { 1 0 10303 214 1 1 1 1 }'));
ENDSEC;
DATA;
#1 = APPLICATION_PROTOCOL_DEFINITION('international standard',
  'automotive_design',2000,#2);
#2 = APPLICATION_CONTEXT(
  'core data for automotive mechanical design processes');
#3 = SHAPE_DEFINITION_REPRESENTATION(#4,#10);
#4 = PRODUCT_DEFINITION_SHAPE('','',#5);
#5 = PRODUCT_DEFINITION('design','',#6,#9);
#6 = PRODUCT_DEFINITION_FORMATION('','',#7);
#7 = PRODUCT('Open CASCADE STEP translator 7.9 93',
  'Open CASCADE STEP translator 7.9 93','',(#8));
#8 = PRODUCT_CONTEXT('',#2,'mechanical');
#9 = PRODUCT_DEFINITION_CONTEXT('part definition',#2,'design');
#10 = MANIFOLD_SURFACE_SHAPE_REPRESENTATION('',(#11,#15),#129);
#11 = AXIS2_PLACEMENT_3D('',#12,#13,#14);
#12 = CARTESIAN_POINT('',(0.,0.,0.));
#13 = DIRECTION('',(0.,0.,1.));
#14 = DIRECTION('',(1.,0.,-0.));
#15 = SHELL_BASED_SURFACE_MODEL('',(#16));
#16 = OPEN_SHELL('',(#17));
#17 = ADVANCED_FACE('',(#18),#42,.T.);
#18 = FACE_BOUND('',#19,.T.);
#19 = EDGE_LOOP('',(#20,#63,#79,#115));
#20 = ORIENTED_EDGE('',*,*,#21,.T.);
#21 = EDGE_CURVE('',#22,#24,#26,.T.);
#22 = VERTEX_POINT('',#23);
#23 = CARTESIAN_POINT('',(0.,-1.267099723137E-02,0.));
#24 = VERTEX_POINT('',#25);
#25 = CARTESIAN_POINT('',(2.4,9.447172733817E-03,0.));
#26 = SURFACE_CURVE('',#27,(#41),.PCURVE_S1.);
#27 = B_SPLINE_CURVE_WITH_KNOTS('',1,(#28,#29,#30,#31,#32,#33,#34,#35,
    #36,#37,#38,#39,#40),.UNSPECIFIED.,.F.,.F.,(2,1,1,1,1,1,1,1,1,1,1,1,
    2),(0.,5.115676757329E-02,0.221593451534,0.278575463676,
    0.413661544584,0.424397231549,0.575667935678,0.615049941384,
    0.638997863349,0.693106762176,0.726626297097,0.844859152208,1.),
  .UNSPECIFIED.);
#28 = CARTESIAN_POINT('',(0.,-1.267099723137E-02,0.));
#29 = CARTESIAN_POINT('',(0.113099799829,5.175140376259E-02,0.));
#30 = CARTESIAN_POINT('',(0.544419563117,6.8509402415E-03,0.));
#31 = CARTESIAN_POINT('',(0.688545177198,2.258742494665E-02,0.));
#32 = CARTESIAN_POINT('',(1.02996429571,-1.69974814694E-02,0.));
#33 = CARTESIAN_POINT('',(1.057085628519,-1.374767295543E-02,0.));
#34 = CARTESIAN_POINT('',(1.435081231487,5.875222781878E-02,0.));
#35 = CARTESIAN_POINT('',(1.505102340749,-1.292346113022E-02,0.));
#36 = CARTESIAN_POINT('',(1.564092793087,-2.818195847819E-02,0.));
#37 = CARTESIAN_POINT('',(1.701704712563,-3.224760388819E-02,0.));
#38 = CARTESIAN_POINT('',(1.706130438551,5.29229075532E-02,0.));
#39 = CARTESIAN_POINT('',(2.005519821728,2.356098994682E-02,0.));
#40 = CARTESIAN_POINT('',(2.4,9.447172733817E-03,0.));
#41 = PCURVE('',#42,#47);
#42 = PLANE('',#43);
#43 = AXIS2_PLACEMENT_3D('',#44,#45,#46);
#44 = CARTESIAN_POINT('',(1.200617294055,0.1,0.));
#45 = DIRECTION('',(0.,0.,1.));
#46 = DIRECTION('',(1.,0.,-0.));
#47 = DEFINITIONAL_REPRESENTATION('',(#48),#62);
#48 = B_SPLINE_CURVE_WITH_KNOTS('',1,(#49,#50,#51,#52,#53,#54,#55,#56,
    #57,#58,#59,#60,#61),.UNSPECIFIED.,.F.,.F.,(2,1,1,1,1,1,1,1,1,1,1,1,
    2),(0.,5.115676757329E-02,0.221593451534,0.278575463676,
    0.413661544584,0.424397231549,0.575667935678,0.615049941384,
    0.638997863349,0.693106762176,0.726626297097,0.844859152208,1.),
  .UNSPECIFIED.);
#49 = CARTESIAN_POINT('',(-1.200617294055,-0.112670997231));
#50 = CARTESIAN_POINT('',(-1.087517494226,-4.824859623741E-02));
#51 = CARTESIAN_POINT('',(-0.656197730938,-9.31490597585E-02));
#52 = CARTESIAN_POINT('',(-0.512072116857,-7.741257505335E-02));
#53 = CARTESIAN_POINT('',(-0.170652998345,-0.116997481469));
#54 = CARTESIAN_POINT('',(-0.143531665536,-0.113747672955));
#55 = CARTESIAN_POINT('',(0.234463937432,-4.124777218122E-02));
#56 = CARTESIAN_POINT('',(0.304485046694,-0.11292346113));
#57 = CARTESIAN_POINT('',(0.363475499033,-0.128181958478));
#58 = CARTESIAN_POINT('',(0.501087418508,-0.132247603888));
#59 = CARTESIAN_POINT('',(0.505513144496,-4.70770924468E-02));
#60 = CARTESIAN_POINT('',(0.804902527673,-7.643901005318E-02));
#61 = CARTESIAN_POINT('',(1.199382705945,-9.055282726618E-02));
#62 = ( GEOMETRIC_REPRESENTATION_CONTEXT(2) 
PARAMETRIC_REPRESENTATION_CONTEXT() REPRESENTATION_CONTEXT('2D SPACE',''
  ) );
#63 = ORIENTED_EDGE('',*,*,#64,.T.);
#64 = EDGE_CURVE('',#24,#65,#67,.T.);
#65 = VERTEX_POINT('',#66);
#66 = CARTESIAN_POINT('',(2.4,0.190552827266,0.));
#67 = SURFACE_CURVE('',#68,(#72),.PCURVE_S1.);
#68 = LINE('',#69,#70);
#69 = CARTESIAN_POINT('',(2.4,9.447172733817E-03,0.));
#70 = VECTOR('',#71,1.);
#71 = DIRECTION('',(0.,1.,0.));
#72 = PCURVE('',#42,#73);
#73 = DEFINITIONAL_REPRESENTATION('',(#74),#78);
#74 = LINE('',#75,#76);
#75 = CARTESIAN_POINT('',(1.199382705945,-9.055282726618E-02));
#76 = VECTOR('',#77,1.);
#77 = DIRECTION('',(0.,1.));
#78 = ( GEOMETRIC_REPRESENTATION_CONTEXT(2) 
PARAMETRIC_REPRESENTATION_CONTEXT() REPRESENTATION_CONTEXT('2D SPACE',''
  ) );
#79 = ORIENTED_EDGE('',*,*,#80,.T.);
#80 = EDGE_CURVE('',#65,#81,#83,.T.);
#81 = VERTEX_POINT('',#82);
#82 = CARTESIAN_POINT('',(0.,0.212670997231,0.));
#83 = SURFACE_CURVE('',#84,(#98),.PCURVE_S1.);
#84 = B_SPLINE_CURVE_WITH_KNOTS('',1,(#85,#86,#87,#88,#89,#90,#91,#92,
    #93,#94,#95,#96,#97),.UNSPECIFIED.,.F.,.F.,(2,1,1,1,1,1,1,1,1,1,1,1,
    2),(0.,0.155140847792,0.273373702903,0.306893237824,0.361002136651,
    0.384950058616,0.424332064322,0.575602768451,0.586338455416,
    0.721424536324,0.778406548466,0.948843232427,1.),.UNSPECIFIED.);
#85 = CARTESIAN_POINT('',(2.4,0.190552827266,0.));
#86 = CARTESIAN_POINT('',(2.005519821728,0.176439010053,0.));
#87 = CARTESIAN_POINT('',(1.706130438551,0.147077092447,0.));
#88 = CARTESIAN_POINT('',(1.701704712563,0.232247603888,0.));
#89 = CARTESIAN_POINT('',(1.564092793087,0.228181958478,0.));
#90 = CARTESIAN_POINT('',(1.505102340749,0.21292346113,0.));
#91 = CARTESIAN_POINT('',(1.435081231487,0.141247772181,0.));
#92 = CARTESIAN_POINT('',(1.057085628519,0.213747672955,0.));
#93 = CARTESIAN_POINT('',(1.02996429571,0.216997481469,0.));
#94 = CARTESIAN_POINT('',(0.688545177198,0.177412575053,0.));
#95 = CARTESIAN_POINT('',(0.544419563117,0.193149059758,0.));
#96 = CARTESIAN_POINT('',(0.113099799829,0.148248596237,0.));
#97 = CARTESIAN_POINT('',(0.,0.212670997231,0.));
#98 = PCURVE('',#42,#99);
#99 = DEFINITIONAL_REPRESENTATION('',(#100),#114);
#100 = B_SPLINE_CURVE_WITH_KNOTS('',1,(#101,#102,#103,#104,#105,#106,
    #107,#108,#109,#110,#111,#112,#113),.UNSPECIFIED.,.F.,.F.,(2,1,1,1,1
    ,1,1,1,1,1,1,1,2),(0.,0.155140847792,0.273373702903,0.306893237824,
    0.361002136651,0.384950058616,0.424332064322,0.575602768451,
    0.586338455416,0.721424536324,0.778406548466,0.948843232427,1.),
  .UNSPECIFIED.);
#101 = CARTESIAN_POINT('',(1.199382705945,9.055282726618E-02));
#102 = CARTESIAN_POINT('',(0.804902527673,7.643901005318E-02));
#103 = CARTESIAN_POINT('',(0.505513144496,4.70770924468E-02));
#104 = CARTESIAN_POINT('',(0.501087418508,0.132247603888));
#105 = CARTESIAN_POINT('',(0.363475499033,0.128181958478));
#106 = CARTESIAN_POINT('',(0.304485046694,0.11292346113));
#107 = CARTESIAN_POINT('',(0.234463937432,4.124777218122E-02));
#108 = CARTESIAN_POINT('',(-0.143531665536,0.113747672955));
#109 = CARTESIAN_POINT('',(-0.170652998345,0.116997481469));
#110 = CARTESIAN_POINT('',(-0.512072116857,7.741257505335E-02));
#111 = CARTESIAN_POINT('',(-0.656197730938,9.31490597585E-02));
#112 = CARTESIAN_POINT('',(-1.087517494226,4.824859623741E-02));
#113 = CARTESIAN_POINT('',(-1.200617294055,0.112670997231));
#114 = ( GEOMETRIC_REPRESENTATION_CONTEXT(2) 
PARAMETRIC_REPRESENTATION_CONTEXT() REPRESENTATION_CONTEXT('2D SPACE',''
  ) );
#115 = ORIENTED_EDGE('',*,*,#116,.T.);
#116 = EDGE_CURVE('',#81,#22,#117,.T.);
#117 = SURFACE_CURVE('',#118,(#122),.PCURVE_S1.);
#118 = LINE('',#119,#120);
#119 = CARTESIAN_POINT('',(0.,0.212670997231,0.));
#120 = VECTOR('',#121,1.);
#121 = DIRECTION('',(0.,-1.,0.));
#122 = PCURVE('',#42,#123);
#123 = DEFINITIONAL_REPRESENTATION('',(#124),#128);
#124 = LINE('',#125,#126);
#125 = CARTESIAN_POINT('',(-1.200617294055,0.112670997231));
#126 = VECTOR('',#127,1.);
#127 = DIRECTION('',(0.,-1.));
#128 = ( GEOMETRIC_REPRESENTATION_CONTEXT(2) 
PARAMETRIC_REPRESENTATION_CONTEXT() REPRESENTATION_CONTEXT('2D SPACE',''
  ) );
#129 = ( GEOMETRIC_REPRESENTATION_CONTEXT(3) 
GLOBAL_UNCERTAINTY_ASSIGNED_CONTEXT((#133)) GLOBAL_UNIT_ASSIGNED_CONTEXT
((#130,#131,#132)) REPRESENTATION_CONTEXT('Context #1',
  '3D Context with UNIT and UNCERTAINTY') );
#130 = ( LENGTH_UNIT() NAMED_UNIT(*) SI_UNIT(.MILLI.,.METRE.) );
#131 = ( NAMED_UNIT(*) PLANE_ANGLE_UNIT() SI_UNIT($,.RADIAN.) );
#132 = ( NAMED_UNIT(*) SI_UNIT($,.STERADIAN.) SOLID_ANGLE_UNIT() );
#133 = UNCERTAINTY_MEASURE_WITH_UNIT(LENGTH_MEASURE(1.E-07),#130,
  'distance_accuracy_value','confusion accuracy');
#134 = PRODUCT_RELATED_PRODUCT_CATEGORY('part',$,(#7));
ENDSEC;
END-ISO-10303-21;
