ISO-10303-21;
HEADER;
FILE_DESCRIPTION(('Open CASCADE Model'),'2;1');
FILE_NAME('Open CASCADE Shape Model','2026-05-29T14:30:30',('Author'),(
    'Open CASCADE'),'Open CASCADE STEP processor 7.9','Open CASCADE 7.9'
  ,'Unknown');
FILE_SCHEMA(('AUTOMOTIVE_DESIGN { 1 0 10303 214 1 1 1 1 }'));
ENDSEC;
DATA;
#1 = APPLICATION_PROTOCOL_DEFINITION('international standard',
  'automotive_design',2000,#2);
#2 = APPLICATION_CONTEXT(
  'core data for automotive mechanical design processes');
#3 = SHAPE_DEFINITION_REPRESENTATION(#4,#10);
#4 = PRODUCT_DEFINITION_SHAPE('','',#5);
#5 = PRODUCT_DEFINITION('design','',#6,#9);
#6 = PRODUCT_DEFINITION_FORMATION('','',#7);
#7 = PRODUCT('Open CASCADE STEP translator 7.9 24',
  'Open CASCADE STEP translator 7.9 24','',(#8));
#8 = PRODUCT_CONTEXT('',#2,'mechanical');
#9 = PRODUCT_DEFINITION_CONTEXT('part definition',#2,'design');
#10 = MANIFOLD_SURFACE_SHAPE_REPRESENTATION('',(#11,#15),#121);
#11 = AXIS2_PLACEMENT_3D('',#12,#13,#14);
#12 = CARTESIAN_POINT('',(0.,0.,0.));
#13 = DIRECTION('',(0.,0.,1.));
#14 = DIRECTION('',(1.,0.,-0.));
#15 = SHELL_BASED_SURFACE_MODEL('',(#16));
#16 = OPEN_SHELL('',(#17));
#17 = ADVANCED_FACE('',(#18),#40,.T.);
#18 = FACE_BOUND('',#19,.T.);
#19 = EDGE_LOOP('',(#20,#59,#75,#107));
#20 = ORIENTED_EDGE('',*,*,#21,.T.);
#21 = EDGE_CURVE('',#22,#24,#26,.T.);
#22 = VERTEX_POINT('',#23);
#23 = CARTESIAN_POINT('',(0.,-1.146532014608,0.));
#24 = VERTEX_POINT('',#25);
#25 = CARTESIAN_POINT('',(1.5E+03,34.572894809826,0.));
#26 = SURFACE_CURVE('',#27,(#39),.PCURVE_S1.);
#27 = B_SPLINE_CURVE_WITH_KNOTS('',1,(#28,#29,#30,#31,#32,#33,#34,#35,
    #36,#37,#38),.UNSPECIFIED.,.F.,.F.,(2,1,1,1,1,1,1,1,1,1,2),(0.,
    2.756168209263E-02,0.172080020135,0.319294037001,0.356578866694,
    0.383121252729,0.662791000714,0.716253329214,0.799834184968,
    0.873009643165,1.),.UNSPECIFIED.);
#28 = CARTESIAN_POINT('',(0.,-1.146532014608,0.));
#29 = CARTESIAN_POINT('',(37.626259805157,-21.3035119634,0.));
#30 = CARTESIAN_POINT('',(261.03896044389,-34.77625980513,0.));
#31 = CARTESIAN_POINT('',(489.01104502793,-37.89514775656,0.));
#32 = CARTESIAN_POINT('',(532.86280883981,-0.326963266479,0.));
#33 = CARTESIAN_POINT('',(573.94225917882,-1.824760326651,0.));
#34 = CARTESIAN_POINT('',(1.006341048895E+03,-26.98833696874,0.));
#35 = CARTESIAN_POINT('',(1.076675422476E+03,16.699437743022,0.));
#36 = CARTESIAN_POINT('',(1.197259797747E+03,-30.36441261105,0.));
#37 = CARTESIAN_POINT('',(1.306296589106E+03,0.527251813432,0.));
#38 = CARTESIAN_POINT('',(1.5E+03,34.572894809826,0.));
#39 = PCURVE('',#40,#45);
#40 = PLANE('',#41);
#41 = AXIS2_PLACEMENT_3D('',#42,#43,#44);
#42 = CARTESIAN_POINT('',(736.2586764527,75.,0.));
#43 = DIRECTION('',(0.,0.,1.));
#44 = DIRECTION('',(1.,0.,-0.));
#45 = DEFINITIONAL_REPRESENTATION('',(#46),#58);
#46 = B_SPLINE_CURVE_WITH_KNOTS('',1,(#47,#48,#49,#50,#51,#52,#53,#54,
    #55,#56,#57),.UNSPECIFIED.,.F.,.F.,(2,1,1,1,1,1,1,1,1,1,2),(0.,
    2.756168209263E-02,0.172080020135,0.319294037001,0.356578866694,
    0.383121252729,0.662791000714,0.716253329214,0.799834184968,
    0.873009643165,1.),.UNSPECIFIED.);
#47 = CARTESIAN_POINT('',(-736.2586764527,-76.1465320146));
#48 = CARTESIAN_POINT('',(-698.6324166475,-96.3035119634));
#49 = CARTESIAN_POINT('',(-475.2197160088,-109.7762598051));
#50 = CARTESIAN_POINT('',(-247.2476314247,-112.8951477565));
#51 = CARTESIAN_POINT('',(-203.3958676128,-75.32696326647));
#52 = CARTESIAN_POINT('',(-162.3164172738,-76.82476032665));
#53 = CARTESIAN_POINT('',(270.08237244191,-101.9883369687));
#54 = CARTESIAN_POINT('',(340.41674602366,-58.30056225697));
#55 = CARTESIAN_POINT('',(461.00112129433,-105.364412611));
#56 = CARTESIAN_POINT('',(570.03791265283,-74.47274818656));
#57 = CARTESIAN_POINT('',(763.74132354729,-40.42710519017));
#58 = ( GEOMETRIC_REPRESENTATION_CONTEXT(2) 
PARAMETRIC_REPRESENTATION_CONTEXT() REPRESENTATION_CONTEXT('2D SPACE',''
  ) );
#59 = ORIENTED_EDGE('',*,*,#60,.T.);
#60 = EDGE_CURVE('',#24,#61,#63,.T.);
#61 = VERTEX_POINT('',#62);
#62 = CARTESIAN_POINT('',(1.5E+03,115.42710519017,0.));
#63 = SURFACE_CURVE('',#64,(#68),.PCURVE_S1.);
#64 = LINE('',#65,#66);
#65 = CARTESIAN_POINT('',(1.5E+03,34.572894809826,0.));
#66 = VECTOR('',#67,1.);
#67 = DIRECTION('',(0.,1.,0.));
#68 = PCURVE('',#40,#69);
#69 = DEFINITIONAL_REPRESENTATION('',(#70),#74);
#70 = LINE('',#71,#72);
#71 = CARTESIAN_POINT('',(763.74132354729,-40.42710519017));
#72 = VECTOR('',#73,1.);
#73 = DIRECTION('',(0.,1.));
#74 = ( GEOMETRIC_REPRESENTATION_CONTEXT(2) 
PARAMETRIC_REPRESENTATION_CONTEXT() REPRESENTATION_CONTEXT('2D SPACE',''
  ) );
#75 = ORIENTED_EDGE('',*,*,#76,.T.);
#76 = EDGE_CURVE('',#61,#77,#79,.T.);
#77 = VERTEX_POINT('',#78);
#78 = CARTESIAN_POINT('',(0.,151.1465320146,0.));
#79 = SURFACE_CURVE('',#80,(#92),.PCURVE_S1.);
#80 = B_SPLINE_CURVE_WITH_KNOTS('',1,(#81,#82,#83,#84,#85,#86,#87,#88,
    #89,#90,#91),.UNSPECIFIED.,.F.,.F.,(2,1,1,1,1,1,1,1,1,1,2),(0.,
    0.126990356835,0.200165815032,0.283746670786,0.337208999286,
    0.616878747271,0.643421133306,0.680705962999,0.827919979865,
    0.972438317907,1.),.UNSPECIFIED.);
#81 = CARTESIAN_POINT('',(1.5E+03,115.42710519017,0.));
#82 = CARTESIAN_POINT('',(1.306296589106E+03,149.47274818656,0.));
#83 = CARTESIAN_POINT('',(1.197259797747E+03,180.36441261105,0.));
#84 = CARTESIAN_POINT('',(1.076675422476E+03,133.30056225697,0.));
#85 = CARTESIAN_POINT('',(1.006341048895E+03,176.98833696874,0.));
#86 = CARTESIAN_POINT('',(573.94225917882,151.82476032665,0.));
#87 = CARTESIAN_POINT('',(532.86280883981,150.32696326647,0.));
#88 = CARTESIAN_POINT('',(489.01104502793,187.89514775656,0.));
#89 = CARTESIAN_POINT('',(261.03896044389,184.77625980513,0.));
#90 = CARTESIAN_POINT('',(37.626259805157,171.3035119634,0.));
#91 = CARTESIAN_POINT('',(0.,151.1465320146,0.));
#92 = PCURVE('',#40,#93);
#93 = DEFINITIONAL_REPRESENTATION('',(#94),#106);
#94 = B_SPLINE_CURVE_WITH_KNOTS('',1,(#95,#96,#97,#98,#99,#100,#101,#102
    ,#103,#104,#105),.UNSPECIFIED.,.F.,.F.,(2,1,1,1,1,1,1,1,1,1,2),(0.,
    0.126990356835,0.200165815032,0.283746670786,0.337208999286,
    0.616878747271,0.643421133306,0.680705962999,0.827919979865,
    0.972438317907,1.),.UNSPECIFIED.);
#95 = CARTESIAN_POINT('',(763.74132354729,40.427105190174));
#96 = CARTESIAN_POINT('',(570.03791265283,74.472748186568));
#97 = CARTESIAN_POINT('',(461.00112129433,105.36441261105));
#98 = CARTESIAN_POINT('',(340.41674602366,58.300562256978));
#99 = CARTESIAN_POINT('',(270.08237244191,101.98833696874));
#100 = CARTESIAN_POINT('',(-162.3164172738,76.824760326651));
#101 = CARTESIAN_POINT('',(-203.3958676128,75.326963266479));
#102 = CARTESIAN_POINT('',(-247.2476314247,112.89514775656));
#103 = CARTESIAN_POINT('',(-475.2197160088,109.77625980513));
#104 = CARTESIAN_POINT('',(-698.6324166475,96.3035119634));
#105 = CARTESIAN_POINT('',(-736.2586764527,76.146532014608));
#106 = ( GEOMETRIC_REPRESENTATION_CONTEXT(2) 
PARAMETRIC_REPRESENTATION_CONTEXT() REPRESENTATION_CONTEXT('2D SPACE',''
  ) );
#107 = ORIENTED_EDGE('',*,*,#108,.T.);
#108 = EDGE_CURVE('',#77,#22,#109,.T.);
#109 = SURFACE_CURVE('',#110,(#114),.PCURVE_S1.);
#110 = LINE('',#111,#112);
#111 = CARTESIAN_POINT('',(0.,151.1465320146,0.));
#112 = VECTOR('',#113,1.);
#113 = DIRECTION('',(0.,-1.,0.));
#114 = PCURVE('',#40,#115);
#115 = DEFINITIONAL_REPRESENTATION('',(#116),#120);
#116 = LINE('',#117,#118);
#117 = CARTESIAN_POINT('',(-736.2586764527,76.146532014608));
#118 = VECTOR('',#119,1.);
#119 = DIRECTION('',(0.,-1.));
#120 = ( GEOMETRIC_REPRESENTATION_CONTEXT(2) 
PARAMETRIC_REPRESENTATION_CONTEXT() REPRESENTATION_CONTEXT('2D SPACE',''
  ) );
#121 = ( GEOMETRIC_REPRESENTATION_CONTEXT(3) 
GLOBAL_UNCERTAINTY_ASSIGNED_CONTEXT((#125)) GLOBAL_UNIT_ASSIGNED_CONTEXT
((#122,#123,#124)) REPRESENTATION_CONTEXT('Context #1',
  '3D Context with UNIT and UNCERTAINTY') );
#122 = ( LENGTH_UNIT() NAMED_UNIT(*) SI_UNIT(.MILLI.,.METRE.) );
#123 = ( NAMED_UNIT(*) PLANE_ANGLE_UNIT() SI_UNIT($,.RADIAN.) );
#124 = ( NAMED_UNIT(*) SI_UNIT($,.STERADIAN.) SOLID_ANGLE_UNIT() );
#125 = UNCERTAINTY_MEASURE_WITH_UNIT(LENGTH_MEASURE(1.E-07),#122,
  'distance_accuracy_value','confusion accuracy');
#126 = PRODUCT_RELATED_PRODUCT_CATEGORY('part',$,(#7));
ENDSEC;
END-ISO-10303-21;
