ISO-10303-21;
HEADER;
FILE_DESCRIPTION(('Open CASCADE Model'),'2;1');
FILE_NAME('Open CASCADE Shape Model','2026-05-29T14:30:30',('Author'),(
    'Open CASCADE'),'Open CASCADE STEP processor 7.9','Open CASCADE 7.9'
  ,'Unknown');
FILE_SCHEMA(('AUTOMOTIVE_DESIGN { 1 0 10303 214 1 1 1 1 }'));
ENDSEC;
DATA;
#1 = APPLICATION_PROTOCOL_DEFINITION('international standard',
  'automotive_design',2000,#2);
#2 = APPLICATION_CONTEXT(
  'core data for automotive mechanical design processes');
#3 = SHAPE_DEFINITION_REPRESENTATION(#4,#10);
#4 = PRODUCT_DEFINITION_SHAPE('','',#5);
#5 = PRODUCT_DEFINITION('design','',#6,#9);
#6 = PRODUCT_DEFINITION_FORMATION('','',#7);
#7 = PRODUCT('Open CASCADE STEP translator 7.9 77',
  'Open CASCADE STEP translator 7.9 77','',(#8));
#8 = PRODUCT_CONTEXT('',#2,'mechanical');
#9 = PRODUCT_DEFINITION_CONTEXT('part definition',#2,'design');
#10 = MANIFOLD_SURFACE_SHAPE_REPRESENTATION('',(#11,#15),#121);
#11 = AXIS2_PLACEMENT_3D('',#12,#13,#14);
#12 = CARTESIAN_POINT('',(0.,0.,0.));
#13 = DIRECTION('',(0.,0.,1.));
#14 = DIRECTION('',(1.,0.,-0.));
#15 = SHELL_BASED_SURFACE_MODEL('',(#16));
#16 = OPEN_SHELL('',(#17));
#17 = ADVANCED_FACE('',(#18),#40,.T.);
#18 = FACE_BOUND('',#19,.T.);
#19 = EDGE_LOOP('',(#20,#59,#75,#107));
#20 = ORIENTED_EDGE('',*,*,#21,.T.);
#21 = EDGE_CURVE('',#22,#24,#26,.T.);
#22 = VERTEX_POINT('',#23);
#23 = CARTESIAN_POINT('',(0.,-17.13617590639,0.));
#24 = VERTEX_POINT('',#25);
#25 = CARTESIAN_POINT('',(1.5E+03,26.94937758106,0.));
#26 = SURFACE_CURVE('',#27,(#39),.PCURVE_S1.);
#27 = B_SPLINE_CURVE_WITH_KNOTS('',1,(#28,#29,#30,#31,#32,#33,#34,#35,
    #36,#37,#38),.UNSPECIFIED.,.F.,.F.,(2,1,1,1,1,1,1,1,1,1,2),(0.,
    3.534239284836E-02,0.143049026775,0.27178443439,0.389429138053,
    0.457015310131,0.570150446415,0.649017411349,0.746185200665,
    0.891347164806,1.),.UNSPECIFIED.);
#28 = CARTESIAN_POINT('',(0.,-17.13617590639,0.));
#29 = CARTESIAN_POINT('',(48.512660064408,-43.46884543823,0.));
#30 = CARTESIAN_POINT('',(208.68546744989,7.934090372912,0.));
#31 = CARTESIAN_POINT('',(409.74614826608,8.698103707578,0.));
#32 = CARTESIAN_POINT('',(587.42663779238,-38.10122709532,0.));
#33 = CARTESIAN_POINT('',(673.59392804561,22.871197169545,0.));
#34 = CARTESIAN_POINT('',(844.83911945996,-20.68337216725,0.));
#35 = CARTESIAN_POINT('',(967.99533367839,-22.91158243963,0.));
#36 = CARTESIAN_POINT('',(1.107769216251E+03,36.19908022991,0.));
#37 = CARTESIAN_POINT('',(1.332021954234E+03,2.859173487577,0.));
#38 = CARTESIAN_POINT('',(1.5E+03,26.94937758106,0.));
#39 = PCURVE('',#40,#45);
#40 = PLANE('',#41);
#41 = AXIS2_PLACEMENT_3D('',#42,#43,#44);
#42 = CARTESIAN_POINT('',(725.93970646406,75.,0.));
#43 = DIRECTION('',(0.,0.,1.));
#44 = DIRECTION('',(1.,0.,-0.));
#45 = DEFINITIONAL_REPRESENTATION('',(#46),#58);
#46 = B_SPLINE_CURVE_WITH_KNOTS('',1,(#47,#48,#49,#50,#51,#52,#53,#54,
    #55,#56,#57),.UNSPECIFIED.,.F.,.F.,(2,1,1,1,1,1,1,1,1,1,2),(0.,
    3.534239284836E-02,0.143049026775,0.27178443439,0.389429138053,
    0.457015310131,0.570150446415,0.649017411349,0.746185200665,
    0.891347164806,1.),.UNSPECIFIED.);
#47 = CARTESIAN_POINT('',(-725.939706464,-92.13617590639));
#48 = CARTESIAN_POINT('',(-677.4270463996,-118.4688454382));
#49 = CARTESIAN_POINT('',(-517.2542390141,-67.06590962708));
#50 = CARTESIAN_POINT('',(-316.1935581979,-66.30189629242));
#51 = CARTESIAN_POINT('',(-138.5130686716,-113.1012270953));
#52 = CARTESIAN_POINT('',(-52.34577841844,-52.12880283045));
#53 = CARTESIAN_POINT('',(118.89941299589,-95.68337216725));
#54 = CARTESIAN_POINT('',(242.05562721432,-97.91158243963));
#55 = CARTESIAN_POINT('',(381.82950978696,-38.80091977009));
#56 = CARTESIAN_POINT('',(606.08224776963,-72.14082651242));
#57 = CARTESIAN_POINT('',(774.06029353593,-48.05062241894));
#58 = ( GEOMETRIC_REPRESENTATION_CONTEXT(2) 
PARAMETRIC_REPRESENTATION_CONTEXT() REPRESENTATION_CONTEXT('2D SPACE',''
  ) );
#59 = ORIENTED_EDGE('',*,*,#60,.T.);
#60 = EDGE_CURVE('',#24,#61,#63,.T.);
#61 = VERTEX_POINT('',#62);
#62 = CARTESIAN_POINT('',(1.5E+03,123.05062241894,0.));
#63 = SURFACE_CURVE('',#64,(#68),.PCURVE_S1.);
#64 = LINE('',#65,#66);
#65 = CARTESIAN_POINT('',(1.5E+03,26.94937758106,0.));
#66 = VECTOR('',#67,1.);
#67 = DIRECTION('',(0.,1.,0.));
#68 = PCURVE('',#40,#69);
#69 = DEFINITIONAL_REPRESENTATION('',(#70),#74);
#70 = LINE('',#71,#72);
#71 = CARTESIAN_POINT('',(774.06029353593,-48.05062241894));
#72 = VECTOR('',#73,1.);
#73 = DIRECTION('',(0.,1.));
#74 = ( GEOMETRIC_REPRESENTATION_CONTEXT(2) 
PARAMETRIC_REPRESENTATION_CONTEXT() REPRESENTATION_CONTEXT('2D SPACE',''
  ) );
#75 = ORIENTED_EDGE('',*,*,#76,.T.);
#76 = EDGE_CURVE('',#61,#77,#79,.T.);
#77 = VERTEX_POINT('',#78);
#78 = CARTESIAN_POINT('',(0.,167.13617590639,0.));
#79 = SURFACE_CURVE('',#80,(#92),.PCURVE_S1.);
#80 = B_SPLINE_CURVE_WITH_KNOTS('',1,(#81,#82,#83,#84,#85,#86,#87,#88,
    #89,#90,#91),.UNSPECIFIED.,.F.,.F.,(2,1,1,1,1,1,1,1,1,1,2),(0.,
    0.108652835194,0.253814799335,0.350982588651,0.429849553585,
    0.542984689869,0.610570861947,0.72821556561,0.856950973225,
    0.964657607152,1.),.UNSPECIFIED.);
#81 = CARTESIAN_POINT('',(1.5E+03,123.05062241894,0.));
#82 = CARTESIAN_POINT('',(1.332021954234E+03,147.14082651242,0.));
#83 = CARTESIAN_POINT('',(1.107769216251E+03,113.80091977009,0.));
#84 = CARTESIAN_POINT('',(967.99533367839,172.91158243963,0.));
#85 = CARTESIAN_POINT('',(844.83911945996,170.68337216725,0.));
#86 = CARTESIAN_POINT('',(673.59392804561,127.12880283045,0.));
#87 = CARTESIAN_POINT('',(587.42663779238,188.10122709532,0.));
#88 = CARTESIAN_POINT('',(409.74614826608,141.30189629242,0.));
#89 = CARTESIAN_POINT('',(208.68546744989,142.06590962708,0.));
#90 = CARTESIAN_POINT('',(48.512660064408,193.46884543823,0.));
#91 = CARTESIAN_POINT('',(0.,167.13617590639,0.));
#92 = PCURVE('',#40,#93);
#93 = DEFINITIONAL_REPRESENTATION('',(#94),#106);
#94 = B_SPLINE_CURVE_WITH_KNOTS('',1,(#95,#96,#97,#98,#99,#100,#101,#102
    ,#103,#104,#105),.UNSPECIFIED.,.F.,.F.,(2,1,1,1,1,1,1,1,1,1,2),(0.,
    0.108652835194,0.253814799335,0.350982588651,0.429849553585,
    0.542984689869,0.610570861947,0.72821556561,0.856950973225,
    0.964657607152,1.),.UNSPECIFIED.);
#95 = CARTESIAN_POINT('',(774.06029353593,48.05062241894));
#96 = CARTESIAN_POINT('',(606.08224776963,72.140826512423));
#97 = CARTESIAN_POINT('',(381.82950978696,38.80091977009));
#98 = CARTESIAN_POINT('',(242.05562721432,97.911582439632));
#99 = CARTESIAN_POINT('',(118.89941299589,95.683372167258));
#100 = CARTESIAN_POINT('',(-52.34577841844,52.128802830455));
#101 = CARTESIAN_POINT('',(-138.5130686716,113.10122709532));
#102 = CARTESIAN_POINT('',(-316.1935581979,66.301896292422));
#103 = CARTESIAN_POINT('',(-517.2542390141,67.065909627088));
#104 = CARTESIAN_POINT('',(-677.4270463996,118.46884543823));
#105 = CARTESIAN_POINT('',(-725.939706464,92.136175906395));
#106 = ( GEOMETRIC_REPRESENTATION_CONTEXT(2) 
PARAMETRIC_REPRESENTATION_CONTEXT() REPRESENTATION_CONTEXT('2D SPACE',''
  ) );
#107 = ORIENTED_EDGE('',*,*,#108,.T.);
#108 = EDGE_CURVE('',#77,#22,#109,.T.);
#109 = SURFACE_CURVE('',#110,(#114),.PCURVE_S1.);
#110 = LINE('',#111,#112);
#111 = CARTESIAN_POINT('',(0.,167.13617590639,0.));
#112 = VECTOR('',#113,1.);
#113 = DIRECTION('',(0.,-1.,0.));
#114 = PCURVE('',#40,#115);
#115 = DEFINITIONAL_REPRESENTATION('',(#116),#120);
#116 = LINE('',#117,#118);
#117 = CARTESIAN_POINT('',(-725.939706464,92.136175906395));
#118 = VECTOR('',#119,1.);
#119 = DIRECTION('',(0.,-1.));
#120 = ( GEOMETRIC_REPRESENTATION_CONTEXT(2) 
PARAMETRIC_REPRESENTATION_CONTEXT() REPRESENTATION_CONTEXT('2D SPACE',''
  ) );
#121 = ( GEOMETRIC_REPRESENTATION_CONTEXT(3) 
GLOBAL_UNCERTAINTY_ASSIGNED_CONTEXT((#125)) GLOBAL_UNIT_ASSIGNED_CONTEXT
((#122,#123,#124)) REPRESENTATION_CONTEXT('Context #1',
  '3D Context with UNIT and UNCERTAINTY') );
#122 = ( LENGTH_UNIT() NAMED_UNIT(*) SI_UNIT(.MILLI.,.METRE.) );
#123 = ( NAMED_UNIT(*) PLANE_ANGLE_UNIT() SI_UNIT($,.RADIAN.) );
#124 = ( NAMED_UNIT(*) SI_UNIT($,.STERADIAN.) SOLID_ANGLE_UNIT() );
#125 = UNCERTAINTY_MEASURE_WITH_UNIT(LENGTH_MEASURE(1.E-07),#122,
  'distance_accuracy_value','confusion accuracy');
#126 = PRODUCT_RELATED_PRODUCT_CATEGORY('part',$,(#7));
ENDSEC;
END-ISO-10303-21;
