ISO-10303-21;
HEADER;
FILE_DESCRIPTION(('Open CASCADE Model'),'2;1');
FILE_NAME('Open CASCADE Shape Model','2026-05-28T17:04:49',('Author'),(
    'Open CASCADE'),'Open CASCADE STEP processor 7.9','Open CASCADE 7.9'
  ,'Unknown');
FILE_SCHEMA(('AUTOMOTIVE_DESIGN { 1 0 10303 214 1 1 1 1 }'));
ENDSEC;
DATA;
#1 = APPLICATION_PROTOCOL_DEFINITION('international standard',
  'automotive_design',2000,#2);
#2 = APPLICATION_CONTEXT(
  'core data for automotive mechanical design processes');
#3 = SHAPE_DEFINITION_REPRESENTATION(#4,#10);
#4 = PRODUCT_DEFINITION_SHAPE('','',#5);
#5 = PRODUCT_DEFINITION('design','',#6,#9);
#6 = PRODUCT_DEFINITION_FORMATION('','',#7);
#7 = PRODUCT('Open CASCADE STEP translator 7.9 51',
  'Open CASCADE STEP translator 7.9 51','',(#8));
#8 = PRODUCT_CONTEXT('',#2,'mechanical');
#9 = PRODUCT_DEFINITION_CONTEXT('part definition',#2,'design');
#10 = MANIFOLD_SURFACE_SHAPE_REPRESENTATION('',(#11,#15),#241);
#11 = AXIS2_PLACEMENT_3D('',#12,#13,#14);
#12 = CARTESIAN_POINT('',(0.,0.,0.));
#13 = DIRECTION('',(0.,0.,1.));
#14 = DIRECTION('',(1.,0.,-0.));
#15 = SHELL_BASED_SURFACE_MODEL('',(#16));
#16 = OPEN_SHELL('',(#17));
#17 = ADVANCED_FACE('',(#18),#70,.T.);
#18 = FACE_BOUND('',#19,.T.);
#19 = EDGE_LOOP('',(#20,#119,#135,#227));
#20 = ORIENTED_EDGE('',*,*,#21,.T.);
#21 = EDGE_CURVE('',#22,#24,#26,.T.);
#22 = VERTEX_POINT('',#23);
#23 = CARTESIAN_POINT('',(0.,-1.626495515677E-02,0.));
#24 = VERTEX_POINT('',#25);
#25 = CARTESIAN_POINT('',(8.,2.792403974273E-02,0.));
#26 = SURFACE_CURVE('',#27,(#69),.PCURVE_S1.);
#27 = B_SPLINE_CURVE_WITH_KNOTS('',1,(#28,#29,#30,#31,#32,#33,#34,#35,
    #36,#37,#38,#39,#40,#41,#42,#43,#44,#45,#46,#47,#48,#49,#50,#51,#52,
    #53,#54,#55,#56,#57,#58,#59,#60,#61,#62,#63,#64,#65,#66,#67,#68),
  .UNSPECIFIED.,.F.,.F.,(2,1,1,1,1,1,1,1,1,1,1,1,1,1,1,1,1,1,1,1,1,1,1,1
    ,1,1,1,1,1,1,1,1,1,1,1,1,1,1,1,1,2),(0.,5.985216258818E-03,
    6.309935992055E-02,7.759630881999E-02,8.414743515011E-02,
    9.21444113196E-02,0.110684916556,0.140653239892,0.181665685045,
    0.225411793503,0.235915172936,0.249208925595,0.263375967031,
    0.27806583191,0.289335516184,0.303178921227,0.32343834753,
    0.334994199443,0.384748066243,0.399296648363,0.476357892559,
    0.568277123077,0.586730808899,0.591551028101,0.603620091768,
    0.619946555432,0.696451257433,0.70399320321,0.708223621401,
    0.74094385143,0.746086135785,0.75397018744,0.771210682982,
    0.783144747469,0.797939022394,0.835401630033,0.864385897779,
    0.893716058651,0.949838666886,0.985247336636,1.),.UNSPECIFIED.);
#28 = CARTESIAN_POINT('',(0.,-1.626495515677E-02,0.));
#29 = CARTESIAN_POINT('',(3.987972235578E-02,1.44336808222E-02,0.));
#30 = CARTESIAN_POINT('',(0.515659459639,-5.091364604149E-02,0.));
#31 = CARTESIAN_POINT('',(0.636044504739,-3.176690629701E-02,0.));
#32 = CARTESIAN_POINT('',(0.675847165417,6.313911263506E-03,0.));
#33 = CARTESIAN_POINT('',(0.732478674965,-2.994179730459E-02,0.));
#34 = CARTESIAN_POINT('',(0.886002547171,-5.704851885915E-02,0.));
#35 = CARTESIAN_POINT('',(1.130314136697,4.682301035824E-03,0.));
#36 = CARTESIAN_POINT('',(1.474480016719,-1.710310654662E-02,0.));
#37 = CARTESIAN_POINT('',(1.840825232459,-5.023975380736E-02,0.));
#38 = CARTESIAN_POINT('',(1.877378123693,3.015904055566E-02,0.));
#39 = CARTESIAN_POINT('',(1.95883797755,-4.638694963995E-02,0.));
#40 = CARTESIAN_POINT('',(2.031128703379,4.829463518724E-02,0.));
#41 = CARTESIAN_POINT('',(2.135469191502,-1.781378047052E-02,0.));
#42 = CARTESIAN_POINT('',(2.228848421068,-3.394057860669E-02,0.));
#43 = CARTESIAN_POINT('',(2.343487252031,-1.375274631029E-02,0.));
#44 = CARTESIAN_POINT('',(2.513239104627,5.358235016948E-04,0.));
#45 = CARTESIAN_POINT('',(2.609301136029,-1.408165199108E-02,0.));
#46 = CARTESIAN_POINT('',(3.023909385578,4.180035494647E-02,0.));
#47 = CARTESIAN_POINT('',(3.146001075205,3.413151476037E-02,0.));
#48 = CARTESIAN_POINT('',(3.793940651403,2.761207872524E-02,0.));
#49 = CARTESIAN_POINT('',(4.565844848962,-1.17335208756E-02,0.));
#50 = CARTESIAN_POINT('',(4.719881777944,6.971871150592E-03,0.));
#51 = CARTESIAN_POINT('',(4.75276789561,3.06628989017E-02,0.));
#52 = CARTESIAN_POINT('',(4.819335697227,-4.593711985735E-02,0.));
#53 = CARTESIAN_POINT('',(4.942287491108,1.512937916481E-02,0.));
#54 = CARTESIAN_POINT('',(5.585521957742,6.476193692413E-03,0.));
#55 = CARTESIAN_POINT('',(5.648788659142,1.083587081412E-02,0.));
#56 = CARTESIAN_POINT('',(5.671556152173,3.816684536679E-02,0.));
#57 = CARTESIAN_POINT('',(5.938661238832,-2.779524185163E-02,0.));
#58 = CARTESIAN_POINT('',(5.965400005282,6.185008527737E-03,0.));
#59 = CARTESIAN_POINT('',(6.006690667492,5.804914681287E-02,0.));
#60 = CARTESIAN_POINT('',(6.096584168241,-5.568164428318E-02,0.));
#61 = CARTESIAN_POINT('',(6.19534267559,-3.789163339145E-02,0.));
#62 = CARTESIAN_POINT('',(6.319247853885,-2.682712249102E-02,0.));
#63 = CARTESIAN_POINT('',(6.633769129625,-4.429102446222E-02,0.));
#64 = CARTESIAN_POINT('',(6.877442409936,-4.881687043267E-02,0.));
#65 = CARTESIAN_POINT('',(7.114414806138,1.950123523387E-02,0.));
#66 = CARTESIAN_POINT('',(7.585181476119,-1.331504141E-02,0.));
#67 = CARTESIAN_POINT('',(7.882916497346,-1.305693710467E-02,0.));
#68 = CARTESIAN_POINT('',(8.,2.792403974273E-02,0.));
#69 = PCURVE('',#70,#75);
#70 = PLANE('',#71);
#71 = AXIS2_PLACEMENT_3D('',#72,#73,#74);
#72 = CARTESIAN_POINT('',(3.960923186806,0.1,0.));
#73 = DIRECTION('',(0.,0.,1.));
#74 = DIRECTION('',(1.,0.,-0.));
#75 = DEFINITIONAL_REPRESENTATION('',(#76),#118);
#76 = B_SPLINE_CURVE_WITH_KNOTS('',1,(#77,#78,#79,#80,#81,#82,#83,#84,
    #85,#86,#87,#88,#89,#90,#91,#92,#93,#94,#95,#96,#97,#98,#99,#100,
    #101,#102,#103,#104,#105,#106,#107,#108,#109,#110,#111,#112,#113,
    #114,#115,#116,#117),.UNSPECIFIED.,.F.,.F.,(2,1,1,1,1,1,1,1,1,1,1,1,
    1,1,1,1,1,1,1,1,1,1,1,1,1,1,1,1,1,1,1,1,1,1,1,1,1,1,1,1,2),(0.,
    5.985216258818E-03,6.309935992055E-02,7.759630881999E-02,
    8.414743515011E-02,9.21444113196E-02,0.110684916556,0.140653239892,
    0.181665685045,0.225411793503,0.235915172936,0.249208925595,
    0.263375967031,0.27806583191,0.289335516184,0.303178921227,
    0.32343834753,0.334994199443,0.384748066243,0.399296648363,
    0.476357892559,0.568277123077,0.586730808899,0.591551028101,
    0.603620091768,0.619946555432,0.696451257433,0.70399320321,
    0.708223621401,0.74094385143,0.746086135785,0.75397018744,
    0.771210682982,0.783144747469,0.797939022394,0.835401630033,
    0.864385897779,0.893716058651,0.949838666886,0.985247336636,1.),
  .UNSPECIFIED.);
#77 = CARTESIAN_POINT('',(-3.960923186806,-0.116264955157));
#78 = CARTESIAN_POINT('',(-3.92104346445,-8.55663191778E-02));
#79 = CARTESIAN_POINT('',(-3.445263727166,-0.150913646041));
#80 = CARTESIAN_POINT('',(-3.324878682067,-0.131766906297));
#81 = CARTESIAN_POINT('',(-3.285076021389,-9.368608873649E-02));
#82 = CARTESIAN_POINT('',(-3.228444511841,-0.129941797305));
#83 = CARTESIAN_POINT('',(-3.074920639635,-0.157048518859));
#84 = CARTESIAN_POINT('',(-2.830609050109,-9.531769896418E-02));
#85 = CARTESIAN_POINT('',(-2.486443170087,-0.117103106547));
#86 = CARTESIAN_POINT('',(-2.120097954347,-0.150239753807));
#87 = CARTESIAN_POINT('',(-2.083545063113,-6.984095944434E-02));
#88 = CARTESIAN_POINT('',(-2.002085209256,-0.14638694964));
#89 = CARTESIAN_POINT('',(-1.929794483427,-5.170536481276E-02));
#90 = CARTESIAN_POINT('',(-1.825453995304,-0.117813780471));
#91 = CARTESIAN_POINT('',(-1.732074765738,-0.133940578607));
#92 = CARTESIAN_POINT('',(-1.617435934775,-0.11375274631));
#93 = CARTESIAN_POINT('',(-1.447684082179,-9.946417649831E-02));
#94 = CARTESIAN_POINT('',(-1.351622050777,-0.114081651991));
#95 = CARTESIAN_POINT('',(-0.937013801228,-5.819964505353E-02));
#96 = CARTESIAN_POINT('',(-0.8149221116,-6.586848523963E-02));
#97 = CARTESIAN_POINT('',(-0.166982535403,-7.238792127476E-02));
#98 = CARTESIAN_POINT('',(0.604921662156,-0.111733520876));
#99 = CARTESIAN_POINT('',(0.758958591138,-9.302812884941E-02));
#100 = CARTESIAN_POINT('',(0.791844708804,-6.93371010983E-02));
#101 = CARTESIAN_POINT('',(0.858412510422,-0.145937119857));
#102 = CARTESIAN_POINT('',(0.981364304303,-8.487062083519E-02));
#103 = CARTESIAN_POINT('',(1.624598770936,-9.352380630759E-02));
#104 = CARTESIAN_POINT('',(1.687865472336,-8.916412918588E-02));
#105 = CARTESIAN_POINT('',(1.710632965367,-6.183315463321E-02));
#106 = CARTESIAN_POINT('',(1.977738052026,-0.127795241852));
#107 = CARTESIAN_POINT('',(2.004476818477,-9.381499147226E-02));
#108 = CARTESIAN_POINT('',(2.045767480686,-4.195085318713E-02));
#109 = CARTESIAN_POINT('',(2.135660981436,-0.155681644283));
#110 = CARTESIAN_POINT('',(2.234419488785,-0.137891633391));
#111 = CARTESIAN_POINT('',(2.358324667079,-0.126827122491));
#112 = CARTESIAN_POINT('',(2.672845942819,-0.144291024462));
#113 = CARTESIAN_POINT('',(2.91651922313,-0.148816870433));
#114 = CARTESIAN_POINT('',(3.153491619332,-8.049876476613E-02));
#115 = CARTESIAN_POINT('',(3.624258289313,-0.11331504141));
#116 = CARTESIAN_POINT('',(3.92199331054,-0.113056937105));
#117 = CARTESIAN_POINT('',(4.039076813194,-7.207596025727E-02));
#118 = ( GEOMETRIC_REPRESENTATION_CONTEXT(2) 
PARAMETRIC_REPRESENTATION_CONTEXT() REPRESENTATION_CONTEXT('2D SPACE',''
  ) );
#119 = ORIENTED_EDGE('',*,*,#120,.T.);
#120 = EDGE_CURVE('',#24,#121,#123,.T.);
#121 = VERTEX_POINT('',#122);
#122 = CARTESIAN_POINT('',(8.,0.172075960257,0.));
#123 = SURFACE_CURVE('',#124,(#128),.PCURVE_S1.);
#124 = LINE('',#125,#126);
#125 = CARTESIAN_POINT('',(8.,2.792403974273E-02,0.));
#126 = VECTOR('',#127,1.);
#127 = DIRECTION('',(0.,1.,0.));
#128 = PCURVE('',#70,#129);
#129 = DEFINITIONAL_REPRESENTATION('',(#130),#134);
#130 = LINE('',#131,#132);
#131 = CARTESIAN_POINT('',(4.039076813194,-7.207596025727E-02));
#132 = VECTOR('',#133,1.);
#133 = DIRECTION('',(0.,1.));
#134 = ( GEOMETRIC_REPRESENTATION_CONTEXT(2) 
PARAMETRIC_REPRESENTATION_CONTEXT() REPRESENTATION_CONTEXT('2D SPACE',''
  ) );
#135 = ORIENTED_EDGE('',*,*,#136,.T.);
#136 = EDGE_CURVE('',#121,#137,#139,.T.);
#137 = VERTEX_POINT('',#138);
#138 = CARTESIAN_POINT('',(0.,0.216264955157,0.));
#139 = SURFACE_CURVE('',#140,(#182),.PCURVE_S1.);
#140 = B_SPLINE_CURVE_WITH_KNOTS('',1,(#141,#142,#143,#144,#145,#146,
    #147,#148,#149,#150,#151,#152,#153,#154,#155,#156,#157,#158,#159,
    #160,#161,#162,#163,#164,#165,#166,#167,#168,#169,#170,#171,#172,
    #173,#174,#175,#176,#177,#178,#179,#180,#181),.UNSPECIFIED.,.F.,.F.,
  (2,1,1,1,1,1,1,1,1,1,1,1,1,1,1,1,1,1,1,1,1,1,1,1,1,1,1,1,1,1,1,1,1,1,1
    ,1,1,1,1,1,2),(0.,1.475266336423E-02,5.016133311418E-02,
    0.106283941349,0.135614102221,0.164598369967,0.202060977606,
    0.216855252531,0.228789317018,0.24602981256,0.253913864215,
    0.25905614857,0.291776378599,0.29600679679,0.303548742567,
    0.380053444568,0.396379908232,0.408448971899,0.413269191101,
    0.431722876923,0.523642107441,0.600703351637,0.615251933757,
    0.665005800557,0.67656165247,0.696821078773,0.710664483816,
    0.72193416809,0.736624032969,0.750791074405,0.764084827064,
    0.774588206497,0.818334314955,0.859346760108,0.889315083444,
    0.90785558868,0.91585256485,0.92240369118,0.936900640079,
    0.994014783741,1.),.UNSPECIFIED.);
#141 = CARTESIAN_POINT('',(8.,0.172075960257,0.));
#142 = CARTESIAN_POINT('',(7.882916497346,0.213056937105,0.));
#143 = CARTESIAN_POINT('',(7.585181476119,0.21331504141,0.));
#144 = CARTESIAN_POINT('',(7.114414806138,0.180498764766,0.));
#145 = CARTESIAN_POINT('',(6.877442409936,0.248816870433,0.));
#146 = CARTESIAN_POINT('',(6.633769129625,0.244291024462,0.));
#147 = CARTESIAN_POINT('',(6.319247853885,0.226827122491,0.));
#148 = CARTESIAN_POINT('',(6.19534267559,0.237891633391,0.));
#149 = CARTESIAN_POINT('',(6.096584168241,0.255681644283,0.));
#150 = CARTESIAN_POINT('',(6.006690667492,0.141950853187,0.));
#151 = CARTESIAN_POINT('',(5.965400005282,0.193814991472,0.));
#152 = CARTESIAN_POINT('',(5.938661238832,0.227795241852,0.));
#153 = CARTESIAN_POINT('',(5.671556152173,0.161833154633,0.));
#154 = CARTESIAN_POINT('',(5.648788659142,0.189164129186,0.));
#155 = CARTESIAN_POINT('',(5.585521957742,0.193523806308,0.));
#156 = CARTESIAN_POINT('',(4.942287491108,0.184870620835,0.));
#157 = CARTESIAN_POINT('',(4.819335697227,0.245937119857,0.));
#158 = CARTESIAN_POINT('',(4.75276789561,0.169337101098,0.));
#159 = CARTESIAN_POINT('',(4.719881777944,0.193028128849,0.));
#160 = CARTESIAN_POINT('',(4.565844848962,0.211733520876,0.));
#161 = CARTESIAN_POINT('',(3.793940651403,0.172387921275,0.));
#162 = CARTESIAN_POINT('',(3.146001075205,0.16586848524,0.));
#163 = CARTESIAN_POINT('',(3.023909385578,0.158199645054,0.));
#164 = CARTESIAN_POINT('',(2.609301136029,0.214081651991,0.));
#165 = CARTESIAN_POINT('',(2.513239104627,0.199464176498,0.));
#166 = CARTESIAN_POINT('',(2.343487252031,0.21375274631,0.));
#167 = CARTESIAN_POINT('',(2.228848421068,0.233940578607,0.));
#168 = CARTESIAN_POINT('',(2.135469191502,0.217813780471,0.));
#169 = CARTESIAN_POINT('',(2.031128703379,0.151705364813,0.));
#170 = CARTESIAN_POINT('',(1.95883797755,0.24638694964,0.));
#171 = CARTESIAN_POINT('',(1.877378123693,0.169840959444,0.));
#172 = CARTESIAN_POINT('',(1.840825232459,0.250239753807,0.));
#173 = CARTESIAN_POINT('',(1.474480016719,0.217103106547,0.));
#174 = CARTESIAN_POINT('',(1.130314136697,0.195317698964,0.));
#175 = CARTESIAN_POINT('',(0.886002547171,0.257048518859,0.));
#176 = CARTESIAN_POINT('',(0.732478674965,0.229941797305,0.));
#177 = CARTESIAN_POINT('',(0.675847165417,0.193686088736,0.));
#178 = CARTESIAN_POINT('',(0.636044504739,0.231766906297,0.));
#179 = CARTESIAN_POINT('',(0.515659459639,0.250913646041,0.));
#180 = CARTESIAN_POINT('',(3.987972235578E-02,0.185566319178,0.));
#181 = CARTESIAN_POINT('',(0.,0.216264955157,0.));
#182 = PCURVE('',#70,#183);
#183 = DEFINITIONAL_REPRESENTATION('',(#184),#226);
#184 = B_SPLINE_CURVE_WITH_KNOTS('',1,(#185,#186,#187,#188,#189,#190,
    #191,#192,#193,#194,#195,#196,#197,#198,#199,#200,#201,#202,#203,
    #204,#205,#206,#207,#208,#209,#210,#211,#212,#213,#214,#215,#216,
    #217,#218,#219,#220,#221,#222,#223,#224,#225),.UNSPECIFIED.,.F.,.F.,
  (2,1,1,1,1,1,1,1,1,1,1,1,1,1,1,1,1,1,1,1,1,1,1,1,1,1,1,1,1,1,1,1,1,1,1
    ,1,1,1,1,1,2),(0.,1.475266336423E-02,5.016133311418E-02,
    0.106283941349,0.135614102221,0.164598369967,0.202060977606,
    0.216855252531,0.228789317018,0.24602981256,0.253913864215,
    0.25905614857,0.291776378599,0.29600679679,0.303548742567,
    0.380053444568,0.396379908232,0.408448971899,0.413269191101,
    0.431722876923,0.523642107441,0.600703351637,0.615251933757,
    0.665005800557,0.67656165247,0.696821078773,0.710664483816,
    0.72193416809,0.736624032969,0.750791074405,0.764084827064,
    0.774588206497,0.818334314955,0.859346760108,0.889315083444,
    0.90785558868,0.91585256485,0.92240369118,0.936900640079,
    0.994014783741,1.),.UNSPECIFIED.);
#185 = CARTESIAN_POINT('',(4.039076813194,7.207596025727E-02));
#186 = CARTESIAN_POINT('',(3.92199331054,0.113056937105));
#187 = CARTESIAN_POINT('',(3.624258289313,0.11331504141));
#188 = CARTESIAN_POINT('',(3.153491619332,8.049876476613E-02));
#189 = CARTESIAN_POINT('',(2.91651922313,0.148816870433));
#190 = CARTESIAN_POINT('',(2.672845942819,0.144291024462));
#191 = CARTESIAN_POINT('',(2.358324667079,0.126827122491));
#192 = CARTESIAN_POINT('',(2.234419488785,0.137891633391));
#193 = CARTESIAN_POINT('',(2.135660981436,0.155681644283));
#194 = CARTESIAN_POINT('',(2.045767480686,4.195085318713E-02));
#195 = CARTESIAN_POINT('',(2.004476818477,9.381499147226E-02));
#196 = CARTESIAN_POINT('',(1.977738052026,0.127795241852));
#197 = CARTESIAN_POINT('',(1.710632965367,6.183315463321E-02));
#198 = CARTESIAN_POINT('',(1.687865472336,8.916412918588E-02));
#199 = CARTESIAN_POINT('',(1.624598770936,9.352380630759E-02));
#200 = CARTESIAN_POINT('',(0.981364304303,8.487062083519E-02));
#201 = CARTESIAN_POINT('',(0.858412510422,0.145937119857));
#202 = CARTESIAN_POINT('',(0.791844708804,6.93371010983E-02));
#203 = CARTESIAN_POINT('',(0.758958591138,9.302812884941E-02));
#204 = CARTESIAN_POINT('',(0.604921662156,0.111733520876));
#205 = CARTESIAN_POINT('',(-0.166982535403,7.238792127476E-02));
#206 = CARTESIAN_POINT('',(-0.8149221116,6.586848523963E-02));
#207 = CARTESIAN_POINT('',(-0.937013801228,5.819964505353E-02));
#208 = CARTESIAN_POINT('',(-1.351622050777,0.114081651991));
#209 = CARTESIAN_POINT('',(-1.447684082179,9.946417649831E-02));
#210 = CARTESIAN_POINT('',(-1.617435934775,0.11375274631));
#211 = CARTESIAN_POINT('',(-1.732074765738,0.133940578607));
#212 = CARTESIAN_POINT('',(-1.825453995304,0.117813780471));
#213 = CARTESIAN_POINT('',(-1.929794483427,5.170536481276E-02));
#214 = CARTESIAN_POINT('',(-2.002085209256,0.14638694964));
#215 = CARTESIAN_POINT('',(-2.083545063113,6.984095944434E-02));
#216 = CARTESIAN_POINT('',(-2.120097954347,0.150239753807));
#217 = CARTESIAN_POINT('',(-2.486443170087,0.117103106547));
#218 = CARTESIAN_POINT('',(-2.830609050109,9.531769896418E-02));
#219 = CARTESIAN_POINT('',(-3.074920639635,0.157048518859));
#220 = CARTESIAN_POINT('',(-3.228444511841,0.129941797305));
#221 = CARTESIAN_POINT('',(-3.285076021389,9.368608873649E-02));
#222 = CARTESIAN_POINT('',(-3.324878682067,0.131766906297));
#223 = CARTESIAN_POINT('',(-3.445263727166,0.150913646041));
#224 = CARTESIAN_POINT('',(-3.92104346445,8.55663191778E-02));
#225 = CARTESIAN_POINT('',(-3.960923186806,0.116264955157));
#226 = ( GEOMETRIC_REPRESENTATION_CONTEXT(2) 
PARAMETRIC_REPRESENTATION_CONTEXT() REPRESENTATION_CONTEXT('2D SPACE',''
  ) );
#227 = ORIENTED_EDGE('',*,*,#228,.T.);
#228 = EDGE_CURVE('',#137,#22,#229,.T.);
#229 = SURFACE_CURVE('',#230,(#234),.PCURVE_S1.);
#230 = LINE('',#231,#232);
#231 = CARTESIAN_POINT('',(0.,0.216264955157,0.));
#232 = VECTOR('',#233,1.);
#233 = DIRECTION('',(0.,-1.,0.));
#234 = PCURVE('',#70,#235);
#235 = DEFINITIONAL_REPRESENTATION('',(#236),#240);
#236 = LINE('',#237,#238);
#237 = CARTESIAN_POINT('',(-3.960923186806,0.116264955157));
#238 = VECTOR('',#239,1.);
#239 = DIRECTION('',(0.,-1.));
#240 = ( GEOMETRIC_REPRESENTATION_CONTEXT(2) 
PARAMETRIC_REPRESENTATION_CONTEXT() REPRESENTATION_CONTEXT('2D SPACE',''
  ) );
#241 = ( GEOMETRIC_REPRESENTATION_CONTEXT(3) 
GLOBAL_UNCERTAINTY_ASSIGNED_CONTEXT((#245)) GLOBAL_UNIT_ASSIGNED_CONTEXT
((#242,#243,#244)) REPRESENTATION_CONTEXT('Context #1',
  '3D Context with UNIT and UNCERTAINTY') );
#242 = ( LENGTH_UNIT() NAMED_UNIT(*) SI_UNIT(.MILLI.,.METRE.) );
#243 = ( NAMED_UNIT(*) PLANE_ANGLE_UNIT() SI_UNIT($,.RADIAN.) );
#244 = ( NAMED_UNIT(*) SI_UNIT($,.STERADIAN.) SOLID_ANGLE_UNIT() );
#245 = UNCERTAINTY_MEASURE_WITH_UNIT(LENGTH_MEASURE(1.E-07),#242,
  'distance_accuracy_value','confusion accuracy');
#246 = PRODUCT_RELATED_PRODUCT_CATEGORY('part',$,(#7));
ENDSEC;
END-ISO-10303-21;
