ISO-10303-21;
HEADER;
FILE_DESCRIPTION(('Open CASCADE Model'),'2;1');
FILE_NAME('Open CASCADE Shape Model','2026-05-29T14:30:30',('Author'),(
    'Open CASCADE'),'Open CASCADE STEP processor 7.9','Open CASCADE 7.9'
  ,'Unknown');
FILE_SCHEMA(('AUTOMOTIVE_DESIGN { 1 0 10303 214 1 1 1 1 }'));
ENDSEC;
DATA;
#1 = APPLICATION_PROTOCOL_DEFINITION('international standard',
  'automotive_design',2000,#2);
#2 = APPLICATION_CONTEXT(
  'core data for automotive mechanical design processes');
#3 = SHAPE_DEFINITION_REPRESENTATION(#4,#10);
#4 = PRODUCT_DEFINITION_SHAPE('','',#5);
#5 = PRODUCT_DEFINITION('design','',#6,#9);
#6 = PRODUCT_DEFINITION_FORMATION('','',#7);
#7 = PRODUCT('Open CASCADE STEP translator 7.9 79',
  'Open CASCADE STEP translator 7.9 79','',(#8));
#8 = PRODUCT_CONTEXT('',#2,'mechanical');
#9 = PRODUCT_DEFINITION_CONTEXT('part definition',#2,'design');
#10 = MANIFOLD_SURFACE_SHAPE_REPRESENTATION('',(#11,#15),#121);
#11 = AXIS2_PLACEMENT_3D('',#12,#13,#14);
#12 = CARTESIAN_POINT('',(0.,0.,0.));
#13 = DIRECTION('',(0.,0.,1.));
#14 = DIRECTION('',(1.,0.,-0.));
#15 = SHELL_BASED_SURFACE_MODEL('',(#16));
#16 = OPEN_SHELL('',(#17));
#17 = ADVANCED_FACE('',(#18),#40,.T.);
#18 = FACE_BOUND('',#19,.T.);
#19 = EDGE_LOOP('',(#20,#59,#75,#107));
#20 = ORIENTED_EDGE('',*,*,#21,.T.);
#21 = EDGE_CURVE('',#22,#24,#26,.T.);
#22 = VERTEX_POINT('',#23);
#23 = CARTESIAN_POINT('',(0.,-39.46603130649,0.));
#24 = VERTEX_POINT('',#25);
#25 = CARTESIAN_POINT('',(1.5E+03,23.549532357415,0.));
#26 = SURFACE_CURVE('',#27,(#39),.PCURVE_S1.);
#27 = B_SPLINE_CURVE_WITH_KNOTS('',1,(#28,#29,#30,#31,#32,#33,#34,#35,
    #36,#37,#38),.UNSPECIFIED.,.F.,.F.,(2,1,1,1,1,1,1,1,1,1,2),(0.,
    8.770171769504E-02,0.166912000405,0.20427597017,0.240426389333,
    0.441269863176,0.615027465277,0.69490955934,0.894249413731,
    0.921433057901,1.),.UNSPECIFIED.);
#28 = CARTESIAN_POINT('',(0.,-39.46603130649,0.));
#29 = CARTESIAN_POINT('',(133.41222805544,-20.55374691717,0.));
#30 = CARTESIAN_POINT('',(252.3362348507,5.28995263675,0.));
#31 = CARTESIAN_POINT('',(294.28347598081,-33.90103248765,0.));
#32 = CARTESIAN_POINT('',(340.07730845185,-2.47118670653,0.));
#33 = CARTESIAN_POINT('',(648.03536540206,-22.0293835035,0.));
#34 = CARTESIAN_POINT('',(914.91174962661,-28.84553494727,0.));
#35 = CARTESIAN_POINT('',(1.037476447308E+03,-22.44175755291,0.));
#36 = CARTESIAN_POINT('',(1.340915304036E+03,19.093061155666,0.));
#37 = CARTESIAN_POINT('',(1.379776854341E+03,34.394048918475,0.));
#38 = CARTESIAN_POINT('',(1.5E+03,23.549532357415,0.));
#39 = PCURVE('',#40,#45);
#40 = PLANE('',#41);
#41 = AXIS2_PLACEMENT_3D('',#42,#43,#44);
#42 = CARTESIAN_POINT('',(715.88530650122,75.,0.));
#43 = DIRECTION('',(0.,0.,1.));
#44 = DIRECTION('',(1.,0.,-0.));
#45 = DEFINITIONAL_REPRESENTATION('',(#46),#58);
#46 = B_SPLINE_CURVE_WITH_KNOTS('',1,(#47,#48,#49,#50,#51,#52,#53,#54,
    #55,#56,#57),.UNSPECIFIED.,.F.,.F.,(2,1,1,1,1,1,1,1,1,1,2),(0.,
    8.770171769504E-02,0.166912000405,0.20427597017,0.240426389333,
    0.441269863176,0.615027465277,0.69490955934,0.894249413731,
    0.921433057901,1.),.UNSPECIFIED.);
#47 = CARTESIAN_POINT('',(-715.8853065012,-114.4660313064));
#48 = CARTESIAN_POINT('',(-582.4730784457,-95.55374691717));
#49 = CARTESIAN_POINT('',(-463.5490716505,-69.71004736325));
#50 = CARTESIAN_POINT('',(-421.6018305204,-108.9010324876));
#51 = CARTESIAN_POINT('',(-375.8079980493,-77.47118670653));
#52 = CARTESIAN_POINT('',(-67.84994109916,-97.0293835035));
#53 = CARTESIAN_POINT('',(199.02644312539,-103.8455349472));
#54 = CARTESIAN_POINT('',(321.5911408065,-97.44175755291));
#55 = CARTESIAN_POINT('',(625.02999753489,-55.90693884433));
#56 = CARTESIAN_POINT('',(663.89154783938,-40.60595108152));
#57 = CARTESIAN_POINT('',(784.11469349877,-51.45046764258));
#58 = ( GEOMETRIC_REPRESENTATION_CONTEXT(2) 
PARAMETRIC_REPRESENTATION_CONTEXT() REPRESENTATION_CONTEXT('2D SPACE',''
  ) );
#59 = ORIENTED_EDGE('',*,*,#60,.T.);
#60 = EDGE_CURVE('',#24,#61,#63,.T.);
#61 = VERTEX_POINT('',#62);
#62 = CARTESIAN_POINT('',(1.5E+03,126.45046764258,0.));
#63 = SURFACE_CURVE('',#64,(#68),.PCURVE_S1.);
#64 = LINE('',#65,#66);
#65 = CARTESIAN_POINT('',(1.5E+03,23.549532357415,0.));
#66 = VECTOR('',#67,1.);
#67 = DIRECTION('',(0.,1.,0.));
#68 = PCURVE('',#40,#69);
#69 = DEFINITIONAL_REPRESENTATION('',(#70),#74);
#70 = LINE('',#71,#72);
#71 = CARTESIAN_POINT('',(784.11469349877,-51.45046764258));
#72 = VECTOR('',#73,1.);
#73 = DIRECTION('',(0.,1.));
#74 = ( GEOMETRIC_REPRESENTATION_CONTEXT(2) 
PARAMETRIC_REPRESENTATION_CONTEXT() REPRESENTATION_CONTEXT('2D SPACE',''
  ) );
#75 = ORIENTED_EDGE('',*,*,#76,.T.);
#76 = EDGE_CURVE('',#61,#77,#79,.T.);
#77 = VERTEX_POINT('',#78);
#78 = CARTESIAN_POINT('',(0.,189.46603130649,0.));
#79 = SURFACE_CURVE('',#80,(#92),.PCURVE_S1.);
#80 = B_SPLINE_CURVE_WITH_KNOTS('',1,(#81,#82,#83,#84,#85,#86,#87,#88,
    #89,#90,#91),.UNSPECIFIED.,.F.,.F.,(2,1,1,1,1,1,1,1,1,1,2),(0.,
    7.856694209888E-02,0.105750586269,0.30509044066,0.384972534723,
    0.558730136824,0.759573610667,0.79572402983,0.833087999595,
    0.912298282305,1.),.UNSPECIFIED.);
#81 = CARTESIAN_POINT('',(1.5E+03,126.45046764258,0.));
#82 = CARTESIAN_POINT('',(1.379776854341E+03,115.60595108152,0.));
#83 = CARTESIAN_POINT('',(1.340915304036E+03,130.90693884433,0.));
#84 = CARTESIAN_POINT('',(1.037476447308E+03,172.44175755291,0.));
#85 = CARTESIAN_POINT('',(914.91174962661,178.84553494727,0.));
#86 = CARTESIAN_POINT('',(648.03536540206,172.0293835035,0.));
#87 = CARTESIAN_POINT('',(340.07730845185,152.47118670653,0.));
#88 = CARTESIAN_POINT('',(294.28347598081,183.90103248765,0.));
#89 = CARTESIAN_POINT('',(252.3362348507,144.71004736325,0.));
#90 = CARTESIAN_POINT('',(133.41222805544,170.55374691717,0.));
#91 = CARTESIAN_POINT('',(0.,189.46603130649,0.));
#92 = PCURVE('',#40,#93);
#93 = DEFINITIONAL_REPRESENTATION('',(#94),#106);
#94 = B_SPLINE_CURVE_WITH_KNOTS('',1,(#95,#96,#97,#98,#99,#100,#101,#102
    ,#103,#104,#105),.UNSPECIFIED.,.F.,.F.,(2,1,1,1,1,1,1,1,1,1,2),(0.,
    7.856694209888E-02,0.105750586269,0.30509044066,0.384972534723,
    0.558730136824,0.759573610667,0.79572402983,0.833087999595,
    0.912298282305,1.),.UNSPECIFIED.);
#95 = CARTESIAN_POINT('',(784.11469349877,51.450467642585));
#96 = CARTESIAN_POINT('',(663.89154783938,40.605951081525));
#97 = CARTESIAN_POINT('',(625.02999753489,55.906938844334));
#98 = CARTESIAN_POINT('',(321.5911408065,97.441757552911));
#99 = CARTESIAN_POINT('',(199.02644312539,103.84553494727));
#100 = CARTESIAN_POINT('',(-67.84994109916,97.029383503508));
#101 = CARTESIAN_POINT('',(-375.8079980493,77.47118670653));
#102 = CARTESIAN_POINT('',(-421.6018305204,108.90103248765));
#103 = CARTESIAN_POINT('',(-463.5490716505,69.71004736325));
#104 = CARTESIAN_POINT('',(-582.4730784457,95.553746917177));
#105 = CARTESIAN_POINT('',(-715.8853065012,114.46603130649));
#106 = ( GEOMETRIC_REPRESENTATION_CONTEXT(2) 
PARAMETRIC_REPRESENTATION_CONTEXT() REPRESENTATION_CONTEXT('2D SPACE',''
  ) );
#107 = ORIENTED_EDGE('',*,*,#108,.T.);
#108 = EDGE_CURVE('',#77,#22,#109,.T.);
#109 = SURFACE_CURVE('',#110,(#114),.PCURVE_S1.);
#110 = LINE('',#111,#112);
#111 = CARTESIAN_POINT('',(0.,189.46603130649,0.));
#112 = VECTOR('',#113,1.);
#113 = DIRECTION('',(0.,-1.,0.));
#114 = PCURVE('',#40,#115);
#115 = DEFINITIONAL_REPRESENTATION('',(#116),#120);
#116 = LINE('',#117,#118);
#117 = CARTESIAN_POINT('',(-715.8853065012,114.46603130649));
#118 = VECTOR('',#119,1.);
#119 = DIRECTION('',(0.,-1.));
#120 = ( GEOMETRIC_REPRESENTATION_CONTEXT(2) 
PARAMETRIC_REPRESENTATION_CONTEXT() REPRESENTATION_CONTEXT('2D SPACE',''
  ) );
#121 = ( GEOMETRIC_REPRESENTATION_CONTEXT(3) 
GLOBAL_UNCERTAINTY_ASSIGNED_CONTEXT((#125)) GLOBAL_UNIT_ASSIGNED_CONTEXT
((#122,#123,#124)) REPRESENTATION_CONTEXT('Context #1',
  '3D Context with UNIT and UNCERTAINTY') );
#122 = ( LENGTH_UNIT() NAMED_UNIT(*) SI_UNIT(.MILLI.,.METRE.) );
#123 = ( NAMED_UNIT(*) PLANE_ANGLE_UNIT() SI_UNIT($,.RADIAN.) );
#124 = ( NAMED_UNIT(*) SI_UNIT($,.STERADIAN.) SOLID_ANGLE_UNIT() );
#125 = UNCERTAINTY_MEASURE_WITH_UNIT(LENGTH_MEASURE(1.E-07),#122,
  'distance_accuracy_value','confusion accuracy');
#126 = PRODUCT_RELATED_PRODUCT_CATEGORY('part',$,(#7));
ENDSEC;
END-ISO-10303-21;
