ISO-10303-21;
HEADER;
FILE_DESCRIPTION(('Open CASCADE Model'),'2;1');
FILE_NAME('Open CASCADE Shape Model','2026-05-28T17:04:49',('Author'),(
    'Open CASCADE'),'Open CASCADE STEP processor 7.9','Open CASCADE 7.9'
  ,'Unknown');
FILE_SCHEMA(('AUTOMOTIVE_DESIGN { 1 0 10303 214 1 1 1 1 }'));
ENDSEC;
DATA;
#1 = APPLICATION_PROTOCOL_DEFINITION('international standard',
  'automotive_design',2000,#2);
#2 = APPLICATION_CONTEXT(
  'core data for automotive mechanical design processes');
#3 = SHAPE_DEFINITION_REPRESENTATION(#4,#10);
#4 = PRODUCT_DEFINITION_SHAPE('','',#5);
#5 = PRODUCT_DEFINITION('design','',#6,#9);
#6 = PRODUCT_DEFINITION_FORMATION('','',#7);
#7 = PRODUCT('Open CASCADE STEP translator 7.9 66',
  'Open CASCADE STEP translator 7.9 66','',(#8));
#8 = PRODUCT_CONTEXT('',#2,'mechanical');
#9 = PRODUCT_DEFINITION_CONTEXT('part definition',#2,'design');
#10 = MANIFOLD_SURFACE_SHAPE_REPRESENTATION('',(#11,#15),#237);
#11 = AXIS2_PLACEMENT_3D('',#12,#13,#14);
#12 = CARTESIAN_POINT('',(0.,0.,0.));
#13 = DIRECTION('',(0.,0.,1.));
#14 = DIRECTION('',(1.,0.,-0.));
#15 = SHELL_BASED_SURFACE_MODEL('',(#16));
#16 = OPEN_SHELL('',(#17));
#17 = ADVANCED_FACE('',(#18),#69,.T.);
#18 = FACE_BOUND('',#19,.T.);
#19 = EDGE_LOOP('',(#20,#117,#133,#223));
#20 = ORIENTED_EDGE('',*,*,#21,.T.);
#21 = EDGE_CURVE('',#22,#24,#26,.T.);
#22 = VERTEX_POINT('',#23);
#23 = CARTESIAN_POINT('',(0.,4.951922219139E-02,0.));
#24 = VERTEX_POINT('',#25);
#25 = CARTESIAN_POINT('',(7.8,-2.655241751087E-02,0.));
#26 = SURFACE_CURVE('',#27,(#68),.PCURVE_S1.);
#27 = B_SPLINE_CURVE_WITH_KNOTS('',1,(#28,#29,#30,#31,#32,#33,#34,#35,
    #36,#37,#38,#39,#40,#41,#42,#43,#44,#45,#46,#47,#48,#49,#50,#51,#52,
    #53,#54,#55,#56,#57,#58,#59,#60,#61,#62,#63,#64,#65,#66,#67),
  .UNSPECIFIED.,.F.,.F.,(2,1,1,1,1,1,1,1,1,1,1,1,1,1,1,1,1,1,1,1,1,1,1,1
    ,1,1,1,1,1,1,1,1,1,1,1,1,1,1,1,2),(0.,5.277196327644E-02,
    6.650880519159E-02,7.527482345985E-02,8.884738022559E-02,
    9.333738652727E-02,0.107761492134,0.130796935933,0.14286344751,
    0.146646451629,0.148238109111,0.16331065405,0.182811727986,
    0.195845023602,0.201823823826,0.207904637359,0.215148585728,
    0.27681771343,0.297478413824,0.316995483393,0.346203333015,
    0.395481085628,0.42464837481,0.435696148512,0.494719309455,
    0.501485249327,0.524872392711,0.5935627626,0.607906574239,
    0.650151600898,0.6916796595,0.711014985299,0.865610596278,
    0.879888905648,0.940444773034,0.942899329336,0.950865763123,
    0.956655515948,0.985965555129,1.),.UNSPECIFIED.);
#28 = CARTESIAN_POINT('',(0.,4.951922219139E-02,0.));
#29 = CARTESIAN_POINT('',(0.427238037645,7.077765131488E-03,0.));
#30 = CARTESIAN_POINT('',(0.537723823514,-9.749642742402E-03,0.));
#31 = CARTESIAN_POINT('',(0.595622067086,3.189291885467E-02,0.));
#32 = CARTESIAN_POINT('',(0.704799238271,1.535059061808E-02,0.));
#33 = CARTESIAN_POINT('',(0.710825274326,5.137981563197E-02,0.));
#34 = CARTESIAN_POINT('',(0.826819441656,3.358427037203E-02,0.));
#35 = CARTESIAN_POINT('',(1.011879233858,3.989648889727E-03,0.));
#36 = CARTESIAN_POINT('',(1.087299588344,-5.885306147104E-02,0.));
#37 = CARTESIAN_POINT('',(1.118069332406,-5.95518075527E-02,0.));
#38 = CARTESIAN_POINT('',(1.130863758938,-5.755460173491E-02,0.));
#39 = CARTESIAN_POINT('',(1.233709336486,9.229633643961E-03,0.));
#40 = CARTESIAN_POINT('',(1.386952819555,5.031835459024E-02,0.));
#41 = CARTESIAN_POINT('',(1.488904143263,2.117118753008E-02,0.));
#42 = CARTESIAN_POINT('',(1.536442637488,3.147427495548E-02,0.));
#43 = CARTESIAN_POINT('',(1.578007226968,5.830481101082E-02,0.));
#44 = CARTESIAN_POINT('',(1.636133152785,4.857196676539E-02,0.));
#45 = CARTESIAN_POINT('',(2.13601724201,5.616967794112E-03,0.));
#46 = CARTESIAN_POINT('',(2.303555093399,1.924050434348E-02,0.));
#47 = CARTESIAN_POINT('',(2.461186618042,3.835755340386E-02,0.));
#48 = CARTESIAN_POINT('',(2.689953264377,-2.593199647905E-02,0.));
#49 = CARTESIAN_POINT('',(3.088544964105,1.714612849241E-02,0.));
#50 = CARTESIAN_POINT('',(3.318296512703,-4.222414268959E-02,0.));
#51 = CARTESIAN_POINT('',(3.37030530392,3.108274076843E-02,0.));
#52 = CARTESIAN_POINT('',(3.849176430553,-4.607218810395E-03,0.));
#53 = CARTESIAN_POINT('',(3.884146958474,3.79032939421E-02,0.));
#54 = CARTESIAN_POINT('',(4.070719800035,5.63926033699E-04,0.));
#55 = CARTESIAN_POINT('',(4.628052978209,4.170401892259E-02,0.));
#56 = CARTESIAN_POINT('',(4.744745904377,4.061056507542E-02,0.));
#57 = CARTESIAN_POINT('',(5.084161064249,-1.346680524504E-02,0.));
#58 = CARTESIAN_POINT('',(5.41942682774,2.834567493891E-02,0.));
#59 = CARTESIAN_POINT('',(5.576351736266,3.931593281229E-02,0.));
#60 = CARTESIAN_POINT('',(6.830818927605,-5.157219001621E-02,0.));
#61 = CARTESIAN_POINT('',(6.877411501543,5.483960991119E-02,0.));
#62 = CARTESIAN_POINT('',(7.366079909431,-7.817773523506E-03,0.));
#63 = CARTESIAN_POINT('',(7.385946581707,-5.791661019992E-03,0.));
#64 = CARTESIAN_POINT('',(7.440029141611,2.992693507163E-02,0.));
#65 = CARTESIAN_POINT('',(7.480405795297,5.667390586462E-03,0.));
#66 = CARTESIAN_POINT('',(7.71480789333,4.947146603008E-02,0.));
#67 = CARTESIAN_POINT('',(7.8,-2.655241751087E-02,0.));
#68 = PCURVE('',#69,#74);
#69 = PLANE('',#70);
#70 = AXIS2_PLACEMENT_3D('',#71,#72,#73);
#71 = CARTESIAN_POINT('',(3.940592129907,1.E-01,0.));
#72 = DIRECTION('',(0.,0.,1.));
#73 = DIRECTION('',(1.,0.,-0.));
#74 = DEFINITIONAL_REPRESENTATION('',(#75),#116);
#75 = B_SPLINE_CURVE_WITH_KNOTS('',1,(#76,#77,#78,#79,#80,#81,#82,#83,
    #84,#85,#86,#87,#88,#89,#90,#91,#92,#93,#94,#95,#96,#97,#98,#99,#100
    ,#101,#102,#103,#104,#105,#106,#107,#108,#109,#110,#111,#112,#113,
    #114,#115),.UNSPECIFIED.,.F.,.F.,(2,1,1,1,1,1,1,1,1,1,1,1,1,1,1,1,1,
    1,1,1,1,1,1,1,1,1,1,1,1,1,1,1,1,1,1,1,1,1,1,2),(0.,
    5.277196327644E-02,6.650880519159E-02,7.527482345985E-02,
    8.884738022559E-02,9.333738652727E-02,0.107761492134,0.130796935933,
    0.14286344751,0.146646451629,0.148238109111,0.16331065405,
    0.182811727986,0.195845023602,0.201823823826,0.207904637359,
    0.215148585728,0.27681771343,0.297478413824,0.316995483393,
    0.346203333015,0.395481085628,0.42464837481,0.435696148512,
    0.494719309455,0.501485249327,0.524872392711,0.5935627626,
    0.607906574239,0.650151600898,0.6916796595,0.711014985299,
    0.865610596278,0.879888905648,0.940444773034,0.942899329336,
    0.950865763123,0.956655515948,0.985965555129,1.),.UNSPECIFIED.);
#76 = CARTESIAN_POINT('',(-3.940592129907,-5.048077780861E-02));
#77 = CARTESIAN_POINT('',(-3.513354092262,-9.292223486851E-02));
#78 = CARTESIAN_POINT('',(-3.402868306393,-0.109749642742));
#79 = CARTESIAN_POINT('',(-3.344970062821,-6.810708114533E-02));
#80 = CARTESIAN_POINT('',(-3.235792891636,-8.464940938192E-02));
#81 = CARTESIAN_POINT('',(-3.229766855581,-4.862018436803E-02));
#82 = CARTESIAN_POINT('',(-3.113772688252,-6.641572962797E-02));
#83 = CARTESIAN_POINT('',(-2.928712896049,-9.601035111027E-02));
#84 = CARTESIAN_POINT('',(-2.853292541563,-0.158853061471));
#85 = CARTESIAN_POINT('',(-2.822522797501,-0.159551807553));
#86 = CARTESIAN_POINT('',(-2.809728370969,-0.157554601735));
#87 = CARTESIAN_POINT('',(-2.706882793421,-9.077036635604E-02));
#88 = CARTESIAN_POINT('',(-2.553639310352,-4.968164540976E-02));
#89 = CARTESIAN_POINT('',(-2.451687986644,-7.882881246992E-02));
#90 = CARTESIAN_POINT('',(-2.404149492419,-6.852572504452E-02));
#91 = CARTESIAN_POINT('',(-2.362584902939,-4.169518898918E-02));
#92 = CARTESIAN_POINT('',(-2.304458977122,-5.142803323461E-02));
#93 = CARTESIAN_POINT('',(-1.804574887897,-9.438303220589E-02));
#94 = CARTESIAN_POINT('',(-1.637037036509,-8.075949565652E-02));
#95 = CARTESIAN_POINT('',(-1.479405511865,-6.164244659614E-02));
#96 = CARTESIAN_POINT('',(-1.25063886553,-0.125931996479));
#97 = CARTESIAN_POINT('',(-0.852047165802,-8.285387150759E-02));
#98 = CARTESIAN_POINT('',(-0.622295617204,-0.14222414269));
#99 = CARTESIAN_POINT('',(-0.570286825987,-6.891725923157E-02));
#100 = CARTESIAN_POINT('',(-9.141569935397E-02,-0.10460721881));
#101 = CARTESIAN_POINT('',(-5.644517143347E-02,-6.20967060579E-02));
#102 = CARTESIAN_POINT('',(0.130127670128,-9.94360739663E-02));
#103 = CARTESIAN_POINT('',(0.687460848302,-5.829598107741E-02));
#104 = CARTESIAN_POINT('',(0.80415377447,-5.938943492458E-02));
#105 = CARTESIAN_POINT('',(1.143568934342,-0.113466805245));
#106 = CARTESIAN_POINT('',(1.478834697833,-7.165432506109E-02));
#107 = CARTESIAN_POINT('',(1.635759606359,-6.068406718771E-02));
#108 = CARTESIAN_POINT('',(2.890226797698,-0.151572190016));
#109 = CARTESIAN_POINT('',(2.936819371636,-4.516039008881E-02));
#110 = CARTESIAN_POINT('',(3.425487779524,-0.107817773524));
#111 = CARTESIAN_POINT('',(3.4453544518,-0.10579166102));
#112 = CARTESIAN_POINT('',(3.499437011704,-7.007306492837E-02));
#113 = CARTESIAN_POINT('',(3.53981366539,-9.433260941354E-02));
#114 = CARTESIAN_POINT('',(3.774215763423,-5.052853396992E-02));
#115 = CARTESIAN_POINT('',(3.859407870093,-0.126552417511));
#116 = ( GEOMETRIC_REPRESENTATION_CONTEXT(2) 
PARAMETRIC_REPRESENTATION_CONTEXT() REPRESENTATION_CONTEXT('2D SPACE',''
  ) );
#117 = ORIENTED_EDGE('',*,*,#118,.T.);
#118 = EDGE_CURVE('',#24,#119,#121,.T.);
#119 = VERTEX_POINT('',#120);
#120 = CARTESIAN_POINT('',(7.8,0.226552417511,0.));
#121 = SURFACE_CURVE('',#122,(#126),.PCURVE_S1.);
#122 = LINE('',#123,#124);
#123 = CARTESIAN_POINT('',(7.8,-2.655241751087E-02,0.));
#124 = VECTOR('',#125,1.);
#125 = DIRECTION('',(0.,1.,0.));
#126 = PCURVE('',#69,#127);
#127 = DEFINITIONAL_REPRESENTATION('',(#128),#132);
#128 = LINE('',#129,#130);
#129 = CARTESIAN_POINT('',(3.859407870093,-0.126552417511));
#130 = VECTOR('',#131,1.);
#131 = DIRECTION('',(0.,1.));
#132 = ( GEOMETRIC_REPRESENTATION_CONTEXT(2) 
PARAMETRIC_REPRESENTATION_CONTEXT() REPRESENTATION_CONTEXT('2D SPACE',''
  ) );
#133 = ORIENTED_EDGE('',*,*,#134,.T.);
#134 = EDGE_CURVE('',#119,#135,#137,.T.);
#135 = VERTEX_POINT('',#136);
#136 = CARTESIAN_POINT('',(0.,0.150480777809,0.));
#137 = SURFACE_CURVE('',#138,(#179),.PCURVE_S1.);
#138 = B_SPLINE_CURVE_WITH_KNOTS('',1,(#139,#140,#141,#142,#143,#144,
    #145,#146,#147,#148,#149,#150,#151,#152,#153,#154,#155,#156,#157,
    #158,#159,#160,#161,#162,#163,#164,#165,#166,#167,#168,#169,#170,
    #171,#172,#173,#174,#175,#176,#177,#178),.UNSPECIFIED.,.F.,.F.,(2,1,
    1,1,1,1,1,1,1,1,1,1,1,1,1,1,1,1,1,1,1,1,1,1,1,1,1,1,1,1,1,1,1,1,1,1,
    1,1,1,2),(0.,1.403444487079E-02,4.33444840519E-02,4.913423687656E-02
    ,5.710067066434E-02,5.955522696591E-02,0.120111094352,0.134389403722
    ,0.288985014701,0.3083203405,0.349848399102,0.392093425761,
    0.4064372374,0.475127607289,0.498514750673,0.505280690545,
    0.564303851488,0.57535162519,0.604518914372,0.653796666985,
    0.683004516607,0.702521586176,0.72318228657,0.784851414272,
    0.792095362641,0.798176176174,0.804154976398,0.817188272014,
    0.83668934595,0.851761890889,0.853353548371,0.85713655249,
    0.869203064067,0.892238507866,0.906662613473,0.911152619774,
    0.92472517654,0.933491194808,0.947228036724,1.),.UNSPECIFIED.);
#139 = CARTESIAN_POINT('',(7.8,0.226552417511,0.));
#140 = CARTESIAN_POINT('',(7.71480789333,0.15052853397,0.));
#141 = CARTESIAN_POINT('',(7.480405795297,0.194332609414,0.));
#142 = CARTESIAN_POINT('',(7.440029141611,0.170073064928,0.));
#143 = CARTESIAN_POINT('',(7.385946581707,0.20579166102,0.));
#144 = CARTESIAN_POINT('',(7.366079909431,0.207817773524,0.));
#145 = CARTESIAN_POINT('',(6.877411501543,0.145160390089,0.));
#146 = CARTESIAN_POINT('',(6.830818927605,0.251572190016,0.));
#147 = CARTESIAN_POINT('',(5.576351736266,0.160684067188,0.));
#148 = CARTESIAN_POINT('',(5.41942682774,0.171654325061,0.));
#149 = CARTESIAN_POINT('',(5.084161064249,0.213466805245,0.));
#150 = CARTESIAN_POINT('',(4.744745904377,0.159389434925,0.));
#151 = CARTESIAN_POINT('',(4.628052978209,0.158295981077,0.));
#152 = CARTESIAN_POINT('',(4.070719800035,0.199436073966,0.));
#153 = CARTESIAN_POINT('',(3.884146958474,0.162096706058,0.));
#154 = CARTESIAN_POINT('',(3.849176430553,0.20460721881,0.));
#155 = CARTESIAN_POINT('',(3.37030530392,0.168917259232,0.));
#156 = CARTESIAN_POINT('',(3.318296512703,0.24222414269,0.));
#157 = CARTESIAN_POINT('',(3.088544964105,0.182853871508,0.));
#158 = CARTESIAN_POINT('',(2.689953264377,0.225931996479,0.));
#159 = CARTESIAN_POINT('',(2.461186618042,0.161642446596,0.));
#160 = CARTESIAN_POINT('',(2.303555093399,0.180759495657,0.));
#161 = CARTESIAN_POINT('',(2.13601724201,0.194383032206,0.));
#162 = CARTESIAN_POINT('',(1.636133152785,0.151428033235,0.));
#163 = CARTESIAN_POINT('',(1.578007226968,0.141695188989,0.));
#164 = CARTESIAN_POINT('',(1.536442637488,0.168525725045,0.));
#165 = CARTESIAN_POINT('',(1.488904143263,0.17882881247,0.));
#166 = CARTESIAN_POINT('',(1.386952819555,0.14968164541,0.));
#167 = CARTESIAN_POINT('',(1.233709336486,0.190770366356,0.));
#168 = CARTESIAN_POINT('',(1.130863758938,0.257554601735,0.));
#169 = CARTESIAN_POINT('',(1.118069332406,0.259551807553,0.));
#170 = CARTESIAN_POINT('',(1.087299588344,0.258853061471,0.));
#171 = CARTESIAN_POINT('',(1.011879233858,0.19601035111,0.));
#172 = CARTESIAN_POINT('',(0.826819441656,0.166415729628,0.));
#173 = CARTESIAN_POINT('',(0.710825274326,0.148620184368,0.));
#174 = CARTESIAN_POINT('',(0.704799238271,0.184649409382,0.));
#175 = CARTESIAN_POINT('',(0.595622067086,0.168107081145,0.));
#176 = CARTESIAN_POINT('',(0.537723823514,0.209749642742,0.));
#177 = CARTESIAN_POINT('',(0.427238037645,0.192922234869,0.));
#178 = CARTESIAN_POINT('',(0.,0.150480777809,0.));
#179 = PCURVE('',#69,#180);
#180 = DEFINITIONAL_REPRESENTATION('',(#181),#222);
#181 = B_SPLINE_CURVE_WITH_KNOTS('',1,(#182,#183,#184,#185,#186,#187,
    #188,#189,#190,#191,#192,#193,#194,#195,#196,#197,#198,#199,#200,
    #201,#202,#203,#204,#205,#206,#207,#208,#209,#210,#211,#212,#213,
    #214,#215,#216,#217,#218,#219,#220,#221),.UNSPECIFIED.,.F.,.F.,(2,1,
    1,1,1,1,1,1,1,1,1,1,1,1,1,1,1,1,1,1,1,1,1,1,1,1,1,1,1,1,1,1,1,1,1,1,
    1,1,1,2),(0.,1.403444487079E-02,4.33444840519E-02,4.913423687656E-02
    ,5.710067066434E-02,5.955522696591E-02,0.120111094352,0.134389403722
    ,0.288985014701,0.3083203405,0.349848399102,0.392093425761,
    0.4064372374,0.475127607289,0.498514750673,0.505280690545,
    0.564303851488,0.57535162519,0.604518914372,0.653796666985,
    0.683004516607,0.702521586176,0.72318228657,0.784851414272,
    0.792095362641,0.798176176174,0.804154976398,0.817188272014,
    0.83668934595,0.851761890889,0.853353548371,0.85713655249,
    0.869203064067,0.892238507866,0.906662613473,0.911152619774,
    0.92472517654,0.933491194808,0.947228036724,1.),.UNSPECIFIED.);
#182 = CARTESIAN_POINT('',(3.859407870093,0.126552417511));
#183 = CARTESIAN_POINT('',(3.774215763423,5.052853396992E-02));
#184 = CARTESIAN_POINT('',(3.53981366539,9.433260941354E-02));
#185 = CARTESIAN_POINT('',(3.499437011704,7.007306492837E-02));
#186 = CARTESIAN_POINT('',(3.4453544518,0.10579166102));
#187 = CARTESIAN_POINT('',(3.425487779524,0.107817773524));
#188 = CARTESIAN_POINT('',(2.936819371636,4.516039008881E-02));
#189 = CARTESIAN_POINT('',(2.890226797698,0.151572190016));
#190 = CARTESIAN_POINT('',(1.635759606359,6.068406718771E-02));
#191 = CARTESIAN_POINT('',(1.478834697833,7.165432506109E-02));
#192 = CARTESIAN_POINT('',(1.143568934342,0.113466805245));
#193 = CARTESIAN_POINT('',(0.80415377447,5.938943492458E-02));
#194 = CARTESIAN_POINT('',(0.687460848302,5.829598107741E-02));
#195 = CARTESIAN_POINT('',(0.130127670128,9.94360739663E-02));
#196 = CARTESIAN_POINT('',(-5.644517143347E-02,6.20967060579E-02));
#197 = CARTESIAN_POINT('',(-9.141569935397E-02,0.10460721881));
#198 = CARTESIAN_POINT('',(-0.570286825987,6.891725923157E-02));
#199 = CARTESIAN_POINT('',(-0.622295617204,0.14222414269));
#200 = CARTESIAN_POINT('',(-0.852047165802,8.285387150759E-02));
#201 = CARTESIAN_POINT('',(-1.25063886553,0.125931996479));
#202 = CARTESIAN_POINT('',(-1.479405511865,6.164244659614E-02));
#203 = CARTESIAN_POINT('',(-1.637037036509,8.075949565652E-02));
#204 = CARTESIAN_POINT('',(-1.804574887897,9.438303220589E-02));
#205 = CARTESIAN_POINT('',(-2.304458977122,5.142803323461E-02));
#206 = CARTESIAN_POINT('',(-2.362584902939,4.169518898918E-02));
#207 = CARTESIAN_POINT('',(-2.404149492419,6.852572504452E-02));
#208 = CARTESIAN_POINT('',(-2.451687986644,7.882881246992E-02));
#209 = CARTESIAN_POINT('',(-2.553639310352,4.968164540976E-02));
#210 = CARTESIAN_POINT('',(-2.706882793421,9.077036635604E-02));
#211 = CARTESIAN_POINT('',(-2.809728370969,0.157554601735));
#212 = CARTESIAN_POINT('',(-2.822522797501,0.159551807553));
#213 = CARTESIAN_POINT('',(-2.853292541563,0.158853061471));
#214 = CARTESIAN_POINT('',(-2.928712896049,9.601035111027E-02));
#215 = CARTESIAN_POINT('',(-3.113772688252,6.641572962797E-02));
#216 = CARTESIAN_POINT('',(-3.229766855581,4.862018436803E-02));
#217 = CARTESIAN_POINT('',(-3.235792891636,8.464940938192E-02));
#218 = CARTESIAN_POINT('',(-3.344970062821,6.810708114533E-02));
#219 = CARTESIAN_POINT('',(-3.402868306393,0.109749642742));
#220 = CARTESIAN_POINT('',(-3.513354092262,9.292223486851E-02));
#221 = CARTESIAN_POINT('',(-3.940592129907,5.048077780861E-02));
#222 = ( GEOMETRIC_REPRESENTATION_CONTEXT(2) 
PARAMETRIC_REPRESENTATION_CONTEXT() REPRESENTATION_CONTEXT('2D SPACE',''
  ) );
#223 = ORIENTED_EDGE('',*,*,#224,.T.);
#224 = EDGE_CURVE('',#135,#22,#225,.T.);
#225 = SURFACE_CURVE('',#226,(#230),.PCURVE_S1.);
#226 = LINE('',#227,#228);
#227 = CARTESIAN_POINT('',(0.,0.150480777809,0.));
#228 = VECTOR('',#229,1.);
#229 = DIRECTION('',(0.,-1.,0.));
#230 = PCURVE('',#69,#231);
#231 = DEFINITIONAL_REPRESENTATION('',(#232),#236);
#232 = LINE('',#233,#234);
#233 = CARTESIAN_POINT('',(-3.940592129907,5.048077780861E-02));
#234 = VECTOR('',#235,1.);
#235 = DIRECTION('',(0.,-1.));
#236 = ( GEOMETRIC_REPRESENTATION_CONTEXT(2) 
PARAMETRIC_REPRESENTATION_CONTEXT() REPRESENTATION_CONTEXT('2D SPACE',''
  ) );
#237 = ( GEOMETRIC_REPRESENTATION_CONTEXT(3) 
GLOBAL_UNCERTAINTY_ASSIGNED_CONTEXT((#241)) GLOBAL_UNIT_ASSIGNED_CONTEXT
((#238,#239,#240)) REPRESENTATION_CONTEXT('Context #1',
  '3D Context with UNIT and UNCERTAINTY') );
#238 = ( LENGTH_UNIT() NAMED_UNIT(*) SI_UNIT(.MILLI.,.METRE.) );
#239 = ( NAMED_UNIT(*) PLANE_ANGLE_UNIT() SI_UNIT($,.RADIAN.) );
#240 = ( NAMED_UNIT(*) SI_UNIT($,.STERADIAN.) SOLID_ANGLE_UNIT() );
#241 = UNCERTAINTY_MEASURE_WITH_UNIT(LENGTH_MEASURE(1.E-07),#238,
  'distance_accuracy_value','confusion accuracy');
#242 = PRODUCT_RELATED_PRODUCT_CATEGORY('part',$,(#7));
ENDSEC;
END-ISO-10303-21;
