ISO-10303-21;
HEADER;
FILE_DESCRIPTION(('Open CASCADE Model'),'2;1');
FILE_NAME('Open CASCADE Shape Model','2026-05-29T14:30:30',('Author'),(
    'Open CASCADE'),'Open CASCADE STEP processor 7.9','Open CASCADE 7.9'
  ,'Unknown');
FILE_SCHEMA(('AUTOMOTIVE_DESIGN { 1 0 10303 214 1 1 1 1 }'));
ENDSEC;
DATA;
#1 = APPLICATION_PROTOCOL_DEFINITION('international standard',
  'automotive_design',2000,#2);
#2 = APPLICATION_CONTEXT(
  'core data for automotive mechanical design processes');
#3 = SHAPE_DEFINITION_REPRESENTATION(#4,#10);
#4 = PRODUCT_DEFINITION_SHAPE('','',#5);
#5 = PRODUCT_DEFINITION('design','',#6,#9);
#6 = PRODUCT_DEFINITION_FORMATION('','',#7);
#7 = PRODUCT('Open CASCADE STEP translator 7.9 94',
  'Open CASCADE STEP translator 7.9 94','',(#8));
#8 = PRODUCT_CONTEXT('',#2,'mechanical');
#9 = PRODUCT_DEFINITION_CONTEXT('part definition',#2,'design');
#10 = MANIFOLD_SURFACE_SHAPE_REPRESENTATION('',(#11,#15),#121);
#11 = AXIS2_PLACEMENT_3D('',#12,#13,#14);
#12 = CARTESIAN_POINT('',(0.,0.,0.));
#13 = DIRECTION('',(0.,0.,1.));
#14 = DIRECTION('',(1.,0.,-0.));
#15 = SHELL_BASED_SURFACE_MODEL('',(#16));
#16 = OPEN_SHELL('',(#17));
#17 = ADVANCED_FACE('',(#18),#40,.T.);
#18 = FACE_BOUND('',#19,.T.);
#19 = EDGE_LOOP('',(#20,#59,#75,#107));
#20 = ORIENTED_EDGE('',*,*,#21,.T.);
#21 = EDGE_CURVE('',#22,#24,#26,.T.);
#22 = VERTEX_POINT('',#23);
#23 = CARTESIAN_POINT('',(0.,2.222494390476,0.));
#24 = VERTEX_POINT('',#25);
#25 = CARTESIAN_POINT('',(1.5E+03,34.569102121268,0.));
#26 = SURFACE_CURVE('',#27,(#39),.PCURVE_S1.);
#27 = B_SPLINE_CURVE_WITH_KNOTS('',1,(#28,#29,#30,#31,#32,#33,#34,#35,
    #36,#37,#38),.UNSPECIFIED.,.F.,.F.,(2,1,1,1,1,1,1,1,1,1,2),(0.,
    0.222105401622,0.376685337743,0.404438914181,0.52315964465,
    0.621747806199,0.707447982798,0.742384095035,0.855824155092,
    0.944156389881,1.),.UNSPECIFIED.);
#28 = CARTESIAN_POINT('',(0.,2.222494390476,0.));
#29 = CARTESIAN_POINT('',(344.10924814285,-22.83936116795,0.));
#30 = CARTESIAN_POINT('',(580.5018638148,19.338983962633,0.));
#31 = CARTESIAN_POINT('',(623.37975821744,14.845781024538,0.));
#32 = CARTESIAN_POINT('',(801.98335470419,-31.11294605822,0.));
#33 = CARTESIAN_POINT('',(952.30095449684,-1.806472103534,0.));
#34 = CARTESIAN_POINT('',(1.082222623508E+03,-30.84587719258,0.));
#35 = CARTESIAN_POINT('',(1.123122936749E+03,4.824945707066,0.));
#36 = CARTESIAN_POINT('',(1.293341623494E+03,-40.7677645404,0.));
#37 = CARTESIAN_POINT('',(1.427835621506E+03,-13.57151307459,0.));
#38 = CARTESIAN_POINT('',(1.5E+03,34.569102121268,0.));
#39 = PCURVE('',#40,#45);
#40 = PLANE('',#41);
#41 = AXIS2_PLACEMENT_3D('',#42,#43,#44);
#42 = CARTESIAN_POINT('',(746.78524235854,75.,0.));
#43 = DIRECTION('',(0.,0.,1.));
#44 = DIRECTION('',(1.,0.,-0.));
#45 = DEFINITIONAL_REPRESENTATION('',(#46),#58);
#46 = B_SPLINE_CURVE_WITH_KNOTS('',1,(#47,#48,#49,#50,#51,#52,#53,#54,
    #55,#56,#57),.UNSPECIFIED.,.F.,.F.,(2,1,1,1,1,1,1,1,1,1,2),(0.,
    0.222105401622,0.376685337743,0.404438914181,0.52315964465,
    0.621747806199,0.707447982798,0.742384095035,0.855824155092,
    0.944156389881,1.),.UNSPECIFIED.);
#47 = CARTESIAN_POINT('',(-746.7852423585,-72.77750560952));
#48 = CARTESIAN_POINT('',(-402.6759942156,-97.83936116795));
#49 = CARTESIAN_POINT('',(-166.2833785437,-55.66101603736));
#50 = CARTESIAN_POINT('',(-123.4054841411,-60.15421897546));
#51 = CARTESIAN_POINT('',(55.198112345646,-106.1129460582));
#52 = CARTESIAN_POINT('',(205.51571213829,-76.80647210353));
#53 = CARTESIAN_POINT('',(335.4373811495,-105.8458771925));
#54 = CARTESIAN_POINT('',(376.33769439027,-70.17505429293));
#55 = CARTESIAN_POINT('',(546.55638113523,-115.7677645404));
#56 = CARTESIAN_POINT('',(681.05037914725,-88.57151307459));
#57 = CARTESIAN_POINT('',(753.21475764145,-40.43089787873));
#58 = ( GEOMETRIC_REPRESENTATION_CONTEXT(2) 
PARAMETRIC_REPRESENTATION_CONTEXT() REPRESENTATION_CONTEXT('2D SPACE',''
  ) );
#59 = ORIENTED_EDGE('',*,*,#60,.T.);
#60 = EDGE_CURVE('',#24,#61,#63,.T.);
#61 = VERTEX_POINT('',#62);
#62 = CARTESIAN_POINT('',(1.5E+03,115.43089787873,0.));
#63 = SURFACE_CURVE('',#64,(#68),.PCURVE_S1.);
#64 = LINE('',#65,#66);
#65 = CARTESIAN_POINT('',(1.5E+03,34.569102121268,0.));
#66 = VECTOR('',#67,1.);
#67 = DIRECTION('',(0.,1.,0.));
#68 = PCURVE('',#40,#69);
#69 = DEFINITIONAL_REPRESENTATION('',(#70),#74);
#70 = LINE('',#71,#72);
#71 = CARTESIAN_POINT('',(753.21475764145,-40.43089787873));
#72 = VECTOR('',#73,1.);
#73 = DIRECTION('',(0.,1.));
#74 = ( GEOMETRIC_REPRESENTATION_CONTEXT(2) 
PARAMETRIC_REPRESENTATION_CONTEXT() REPRESENTATION_CONTEXT('2D SPACE',''
  ) );
#75 = ORIENTED_EDGE('',*,*,#76,.T.);
#76 = EDGE_CURVE('',#61,#77,#79,.T.);
#77 = VERTEX_POINT('',#78);
#78 = CARTESIAN_POINT('',(0.,147.77750560952,0.));
#79 = SURFACE_CURVE('',#80,(#92),.PCURVE_S1.);
#80 = B_SPLINE_CURVE_WITH_KNOTS('',1,(#81,#82,#83,#84,#85,#86,#87,#88,
    #89,#90,#91),.UNSPECIFIED.,.F.,.F.,(2,1,1,1,1,1,1,1,1,1,2),(0.,
    5.58436101191E-02,0.144175844908,0.257615904965,0.292552017202,
    0.378252193801,0.47684035535,0.595561085819,0.623314662257,
    0.777894598378,1.),.UNSPECIFIED.);
#81 = CARTESIAN_POINT('',(1.5E+03,115.43089787873,0.));
#82 = CARTESIAN_POINT('',(1.427835621506E+03,163.57151307459,0.));
#83 = CARTESIAN_POINT('',(1.293341623494E+03,190.7677645404,0.));
#84 = CARTESIAN_POINT('',(1.123122936749E+03,145.17505429293,0.));
#85 = CARTESIAN_POINT('',(1.082222623508E+03,180.84587719258,0.));
#86 = CARTESIAN_POINT('',(952.30095449684,151.80647210353,0.));
#87 = CARTESIAN_POINT('',(801.98335470419,181.11294605822,0.));
#88 = CARTESIAN_POINT('',(623.37975821744,135.15421897546,0.));
#89 = CARTESIAN_POINT('',(580.5018638148,130.66101603736,0.));
#90 = CARTESIAN_POINT('',(344.10924814285,172.83936116795,0.));
#91 = CARTESIAN_POINT('',(0.,147.77750560952,0.));
#92 = PCURVE('',#40,#93);
#93 = DEFINITIONAL_REPRESENTATION('',(#94),#106);
#94 = B_SPLINE_CURVE_WITH_KNOTS('',1,(#95,#96,#97,#98,#99,#100,#101,#102
    ,#103,#104,#105),.UNSPECIFIED.,.F.,.F.,(2,1,1,1,1,1,1,1,1,1,2),(0.,
    5.58436101191E-02,0.144175844908,0.257615904965,0.292552017202,
    0.378252193801,0.47684035535,0.595561085819,0.623314662257,
    0.777894598378,1.),.UNSPECIFIED.);
#95 = CARTESIAN_POINT('',(753.21475764145,40.430897878732));
#96 = CARTESIAN_POINT('',(681.05037914725,88.571513074596));
#97 = CARTESIAN_POINT('',(546.55638113523,115.7677645404));
#98 = CARTESIAN_POINT('',(376.33769439027,70.175054292934));
#99 = CARTESIAN_POINT('',(335.4373811495,105.84587719258));
#100 = CARTESIAN_POINT('',(205.51571213829,76.806472103534));
#101 = CARTESIAN_POINT('',(55.198112345646,106.11294605822));
#102 = CARTESIAN_POINT('',(-123.4054841411,60.154218975462));
#103 = CARTESIAN_POINT('',(-166.2833785437,55.661016037367));
#104 = CARTESIAN_POINT('',(-402.6759942156,97.839361167956));
#105 = CARTESIAN_POINT('',(-746.7852423585,72.777505609524));
#106 = ( GEOMETRIC_REPRESENTATION_CONTEXT(2) 
PARAMETRIC_REPRESENTATION_CONTEXT() REPRESENTATION_CONTEXT('2D SPACE',''
  ) );
#107 = ORIENTED_EDGE('',*,*,#108,.T.);
#108 = EDGE_CURVE('',#77,#22,#109,.T.);
#109 = SURFACE_CURVE('',#110,(#114),.PCURVE_S1.);
#110 = LINE('',#111,#112);
#111 = CARTESIAN_POINT('',(0.,147.77750560952,0.));
#112 = VECTOR('',#113,1.);
#113 = DIRECTION('',(0.,-1.,0.));
#114 = PCURVE('',#40,#115);
#115 = DEFINITIONAL_REPRESENTATION('',(#116),#120);
#116 = LINE('',#117,#118);
#117 = CARTESIAN_POINT('',(-746.7852423585,72.777505609524));
#118 = VECTOR('',#119,1.);
#119 = DIRECTION('',(0.,-1.));
#120 = ( GEOMETRIC_REPRESENTATION_CONTEXT(2) 
PARAMETRIC_REPRESENTATION_CONTEXT() REPRESENTATION_CONTEXT('2D SPACE',''
  ) );
#121 = ( GEOMETRIC_REPRESENTATION_CONTEXT(3) 
GLOBAL_UNCERTAINTY_ASSIGNED_CONTEXT((#125)) GLOBAL_UNIT_ASSIGNED_CONTEXT
((#122,#123,#124)) REPRESENTATION_CONTEXT('Context #1',
  '3D Context with UNIT and UNCERTAINTY') );
#122 = ( LENGTH_UNIT() NAMED_UNIT(*) SI_UNIT(.MILLI.,.METRE.) );
#123 = ( NAMED_UNIT(*) PLANE_ANGLE_UNIT() SI_UNIT($,.RADIAN.) );
#124 = ( NAMED_UNIT(*) SI_UNIT($,.STERADIAN.) SOLID_ANGLE_UNIT() );
#125 = UNCERTAINTY_MEASURE_WITH_UNIT(LENGTH_MEASURE(1.E-07),#122,
  'distance_accuracy_value','confusion accuracy');
#126 = PRODUCT_RELATED_PRODUCT_CATEGORY('part',$,(#7));
ENDSEC;
END-ISO-10303-21;
