ISO-10303-21;
HEADER;
FILE_DESCRIPTION(('Open CASCADE Model'),'2;1');
FILE_NAME('Open CASCADE Shape Model','2026-05-28T17:04:49',('Author'),(
    'Open CASCADE'),'Open CASCADE STEP processor 7.9','Open CASCADE 7.9'
  ,'Unknown');
FILE_SCHEMA(('AUTOMOTIVE_DESIGN { 1 0 10303 214 1 1 1 1 }'));
ENDSEC;
DATA;
#1 = APPLICATION_PROTOCOL_DEFINITION('international standard',
  'automotive_design',2000,#2);
#2 = APPLICATION_CONTEXT(
  'core data for automotive mechanical design processes');
#3 = SHAPE_DEFINITION_REPRESENTATION(#4,#10);
#4 = PRODUCT_DEFINITION_SHAPE('','',#5);
#5 = PRODUCT_DEFINITION('design','',#6,#9);
#6 = PRODUCT_DEFINITION_FORMATION('','',#7);
#7 = PRODUCT('Open CASCADE STEP translator 7.9 52',
  'Open CASCADE STEP translator 7.9 52','',(#8));
#8 = PRODUCT_CONTEXT('',#2,'mechanical');
#9 = PRODUCT_DEFINITION_CONTEXT('part definition',#2,'design');
#10 = MANIFOLD_SURFACE_SHAPE_REPRESENTATION('',(#11,#15),#137);
#11 = AXIS2_PLACEMENT_3D('',#12,#13,#14);
#12 = CARTESIAN_POINT('',(0.,0.,0.));
#13 = DIRECTION('',(0.,0.,1.));
#14 = DIRECTION('',(1.,0.,-0.));
#15 = SHELL_BASED_SURFACE_MODEL('',(#16));
#16 = OPEN_SHELL('',(#17));
#17 = ADVANCED_FACE('',(#18),#44,.T.);
#18 = FACE_BOUND('',#19,.T.);
#19 = EDGE_LOOP('',(#20,#67,#83,#123));
#20 = ORIENTED_EDGE('',*,*,#21,.T.);
#21 = EDGE_CURVE('',#22,#24,#26,.T.);
#22 = VERTEX_POINT('',#23);
#23 = CARTESIAN_POINT('',(0.,4.140000339713E-03,0.));
#24 = VERTEX_POINT('',#25);
#25 = CARTESIAN_POINT('',(2.8,3.759694580625E-02,0.));
#26 = SURFACE_CURVE('',#27,(#43),.PCURVE_S1.);
#27 = B_SPLINE_CURVE_WITH_KNOTS('',1,(#28,#29,#30,#31,#32,#33,#34,#35,
    #36,#37,#38,#39,#40,#41,#42),.UNSPECIFIED.,.F.,.F.,(2,1,1,1,1,1,1,1,
    1,1,1,1,1,1,2),(0.,0.109720095536,0.19665849855,0.30303250219,
    0.433828121276,0.522583431626,0.634296612788,0.735827495078,
    0.772317946223,0.838796078601,0.862672672444,0.901935787377,
    0.916278995438,0.96143377097,1.),.UNSPECIFIED.);
#28 = CARTESIAN_POINT('',(0.,4.140000339713E-03,0.));
#29 = CARTESIAN_POINT('',(0.318940313493,5.430318030803E-02,0.));
#30 = CARTESIAN_POINT('',(0.574727581303,4.997255614218E-02,0.));
#31 = CARTESIAN_POINT('',(0.885571056118,1.316686298732E-02,0.));
#32 = CARTESIAN_POINT('',(1.270119699673,2.907754904724E-02,0.));
#33 = CARTESIAN_POINT('',(1.531077688673,3.960712903667E-02,0.));
#34 = CARTESIAN_POINT('',(1.846079748566,-5.438445294104E-02,0.));
#35 = CARTESIAN_POINT('',(2.130668342648,3.654964939073E-02,0.));
#36 = CARTESIAN_POINT('',(2.186573174886,-5.512551267783E-02,0.));
#37 = CARTESIAN_POINT('',(2.380734678381,-3.130066083854E-02,0.));
#38 = CARTESIAN_POINT('',(2.449504831967,-1.691348065503E-02,0.));
#39 = CARTESIAN_POINT('',(2.564963327645,-2.112227521073E-02,0.));
#40 = CARTESIAN_POINT('',(2.573443958312,2.022308116091E-02,0.));
#41 = CARTESIAN_POINT('',(2.700827372422,-1.757124456699E-02,0.));
#42 = CARTESIAN_POINT('',(2.8,3.759694580625E-02,0.));
#43 = PCURVE('',#44,#49);
#44 = PLANE('',#45);
#45 = AXIS2_PLACEMENT_3D('',#46,#47,#48);
#46 = CARTESIAN_POINT('',(1.421439667677,0.1,0.));
#47 = DIRECTION('',(0.,0.,1.));
#48 = DIRECTION('',(1.,0.,-0.));
#49 = DEFINITIONAL_REPRESENTATION('',(#50),#66);
#50 = B_SPLINE_CURVE_WITH_KNOTS('',1,(#51,#52,#53,#54,#55,#56,#57,#58,
    #59,#60,#61,#62,#63,#64,#65),.UNSPECIFIED.,.F.,.F.,(2,1,1,1,1,1,1,1,
    1,1,1,1,1,1,2),(0.,0.109720095536,0.19665849855,0.30303250219,
    0.433828121276,0.522583431626,0.634296612788,0.735827495078,
    0.772317946223,0.838796078601,0.862672672444,0.901935787377,
    0.916278995438,0.96143377097,1.),.UNSPECIFIED.);
#51 = CARTESIAN_POINT('',(-1.421439667677,-9.585999966029E-02));
#52 = CARTESIAN_POINT('',(-1.102499354184,-4.569681969197E-02));
#53 = CARTESIAN_POINT('',(-0.846712086374,-5.002744385782E-02));
#54 = CARTESIAN_POINT('',(-0.535868611559,-8.683313701268E-02));
#55 = CARTESIAN_POINT('',(-0.151319968004,-7.092245095276E-02));
#56 = CARTESIAN_POINT('',(0.109638020996,-6.039287096333E-02));
#57 = CARTESIAN_POINT('',(0.424640080889,-0.154384452941));
#58 = CARTESIAN_POINT('',(0.709228674971,-6.345035060927E-02));
#59 = CARTESIAN_POINT('',(0.765133507209,-0.155125512678));
#60 = CARTESIAN_POINT('',(0.959295010704,-0.131300660839));
#61 = CARTESIAN_POINT('',(1.02806516429,-0.116913480655));
#62 = CARTESIAN_POINT('',(1.143523659968,-0.121122275211));
#63 = CARTESIAN_POINT('',(1.152004290635,-7.977691883909E-02));
#64 = CARTESIAN_POINT('',(1.279387704745,-0.117571244567));
#65 = CARTESIAN_POINT('',(1.378560332323,-6.240305419375E-02));
#66 = ( GEOMETRIC_REPRESENTATION_CONTEXT(2) 
PARAMETRIC_REPRESENTATION_CONTEXT() REPRESENTATION_CONTEXT('2D SPACE',''
  ) );
#67 = ORIENTED_EDGE('',*,*,#68,.T.);
#68 = EDGE_CURVE('',#24,#69,#71,.T.);
#69 = VERTEX_POINT('',#70);
#70 = CARTESIAN_POINT('',(2.8,0.162403054194,0.));
#71 = SURFACE_CURVE('',#72,(#76),.PCURVE_S1.);
#72 = LINE('',#73,#74);
#73 = CARTESIAN_POINT('',(2.8,3.759694580625E-02,0.));
#74 = VECTOR('',#75,1.);
#75 = DIRECTION('',(0.,1.,0.));
#76 = PCURVE('',#44,#77);
#77 = DEFINITIONAL_REPRESENTATION('',(#78),#82);
#78 = LINE('',#79,#80);
#79 = CARTESIAN_POINT('',(1.378560332323,-6.240305419375E-02));
#80 = VECTOR('',#81,1.);
#81 = DIRECTION('',(0.,1.));
#82 = ( GEOMETRIC_REPRESENTATION_CONTEXT(2) 
PARAMETRIC_REPRESENTATION_CONTEXT() REPRESENTATION_CONTEXT('2D SPACE',''
  ) );
#83 = ORIENTED_EDGE('',*,*,#84,.T.);
#84 = EDGE_CURVE('',#69,#85,#87,.T.);
#85 = VERTEX_POINT('',#86);
#86 = CARTESIAN_POINT('',(0.,0.19585999966,0.));
#87 = SURFACE_CURVE('',#88,(#104),.PCURVE_S1.);
#88 = B_SPLINE_CURVE_WITH_KNOTS('',1,(#89,#90,#91,#92,#93,#94,#95,#96,
    #97,#98,#99,#100,#101,#102,#103),.UNSPECIFIED.,.F.,.F.,(2,1,1,1,1,1,
    1,1,1,1,1,1,1,1,2),(0.,3.856622902964E-02,8.372100456249E-02,
    9.806421262292E-02,0.137327327556,0.161203921399,0.227682053777,
    0.264172504922,0.365703387212,0.477416568374,0.566171878724,
    0.69696749781,0.80334150145,0.890279904464,1.),.UNSPECIFIED.);
#89 = CARTESIAN_POINT('',(2.8,0.162403054194,0.));
#90 = CARTESIAN_POINT('',(2.700827372422,0.217571244567,0.));
#91 = CARTESIAN_POINT('',(2.573443958312,0.179776918839,0.));
#92 = CARTESIAN_POINT('',(2.564963327645,0.221122275211,0.));
#93 = CARTESIAN_POINT('',(2.449504831967,0.216913480655,0.));
#94 = CARTESIAN_POINT('',(2.380734678381,0.231300660839,0.));
#95 = CARTESIAN_POINT('',(2.186573174886,0.255125512678,0.));
#96 = CARTESIAN_POINT('',(2.130668342648,0.163450350609,0.));
#97 = CARTESIAN_POINT('',(1.846079748566,0.254384452941,0.));
#98 = CARTESIAN_POINT('',(1.531077688673,0.160392870963,0.));
#99 = CARTESIAN_POINT('',(1.270119699673,0.170922450953,0.));
#100 = CARTESIAN_POINT('',(0.885571056118,0.186833137013,0.));
#101 = CARTESIAN_POINT('',(0.574727581303,0.150027443858,0.));
#102 = CARTESIAN_POINT('',(0.318940313493,0.145696819692,0.));
#103 = CARTESIAN_POINT('',(0.,0.19585999966,0.));
#104 = PCURVE('',#44,#105);
#105 = DEFINITIONAL_REPRESENTATION('',(#106),#122);
#106 = B_SPLINE_CURVE_WITH_KNOTS('',1,(#107,#108,#109,#110,#111,#112,
    #113,#114,#115,#116,#117,#118,#119,#120,#121),.UNSPECIFIED.,.F.,.F.,
  (2,1,1,1,1,1,1,1,1,1,1,1,1,1,2),(0.,3.856622902964E-02,
    8.372100456249E-02,9.806421262292E-02,0.137327327556,0.161203921399,
    0.227682053777,0.264172504922,0.365703387212,0.477416568374,
    0.566171878724,0.69696749781,0.80334150145,0.890279904464,1.),
  .UNSPECIFIED.);
#107 = CARTESIAN_POINT('',(1.378560332323,6.240305419375E-02));
#108 = CARTESIAN_POINT('',(1.279387704745,0.117571244567));
#109 = CARTESIAN_POINT('',(1.152004290635,7.977691883909E-02));
#110 = CARTESIAN_POINT('',(1.143523659968,0.121122275211));
#111 = CARTESIAN_POINT('',(1.02806516429,0.116913480655));
#112 = CARTESIAN_POINT('',(0.959295010704,0.131300660839));
#113 = CARTESIAN_POINT('',(0.765133507209,0.155125512678));
#114 = CARTESIAN_POINT('',(0.709228674971,6.345035060927E-02));
#115 = CARTESIAN_POINT('',(0.424640080889,0.154384452941));
#116 = CARTESIAN_POINT('',(0.109638020996,6.039287096333E-02));
#117 = CARTESIAN_POINT('',(-0.151319968004,7.092245095276E-02));
#118 = CARTESIAN_POINT('',(-0.535868611559,8.683313701268E-02));
#119 = CARTESIAN_POINT('',(-0.846712086374,5.002744385782E-02));
#120 = CARTESIAN_POINT('',(-1.102499354184,4.569681969197E-02));
#121 = CARTESIAN_POINT('',(-1.421439667677,9.585999966029E-02));
#122 = ( GEOMETRIC_REPRESENTATION_CONTEXT(2) 
PARAMETRIC_REPRESENTATION_CONTEXT() REPRESENTATION_CONTEXT('2D SPACE',''
  ) );
#123 = ORIENTED_EDGE('',*,*,#124,.T.);
#124 = EDGE_CURVE('',#85,#22,#125,.T.);
#125 = SURFACE_CURVE('',#126,(#130),.PCURVE_S1.);
#126 = LINE('',#127,#128);
#127 = CARTESIAN_POINT('',(0.,0.19585999966,0.));
#128 = VECTOR('',#129,1.);
#129 = DIRECTION('',(0.,-1.,0.));
#130 = PCURVE('',#44,#131);
#131 = DEFINITIONAL_REPRESENTATION('',(#132),#136);
#132 = LINE('',#133,#134);
#133 = CARTESIAN_POINT('',(-1.421439667677,9.585999966029E-02));
#134 = VECTOR('',#135,1.);
#135 = DIRECTION('',(0.,-1.));
#136 = ( GEOMETRIC_REPRESENTATION_CONTEXT(2) 
PARAMETRIC_REPRESENTATION_CONTEXT() REPRESENTATION_CONTEXT('2D SPACE',''
  ) );
#137 = ( GEOMETRIC_REPRESENTATION_CONTEXT(3) 
GLOBAL_UNCERTAINTY_ASSIGNED_CONTEXT((#141)) GLOBAL_UNIT_ASSIGNED_CONTEXT
((#138,#139,#140)) REPRESENTATION_CONTEXT('Context #1',
  '3D Context with UNIT and UNCERTAINTY') );
#138 = ( LENGTH_UNIT() NAMED_UNIT(*) SI_UNIT(.MILLI.,.METRE.) );
#139 = ( NAMED_UNIT(*) PLANE_ANGLE_UNIT() SI_UNIT($,.RADIAN.) );
#140 = ( NAMED_UNIT(*) SI_UNIT($,.STERADIAN.) SOLID_ANGLE_UNIT() );
#141 = UNCERTAINTY_MEASURE_WITH_UNIT(LENGTH_MEASURE(1.E-07),#138,
  'distance_accuracy_value','confusion accuracy');
#142 = PRODUCT_RELATED_PRODUCT_CATEGORY('part',$,(#7));
ENDSEC;
END-ISO-10303-21;
