ISO-10303-21;
HEADER;
FILE_DESCRIPTION(('Open CASCADE Model'),'2;1');
FILE_NAME('Open CASCADE Shape Model','2026-05-29T14:30:30',('Author'),(
    'Open CASCADE'),'Open CASCADE STEP processor 7.9','Open CASCADE 7.9'
  ,'Unknown');
FILE_SCHEMA(('AUTOMOTIVE_DESIGN { 1 0 10303 214 1 1 1 1 }'));
ENDSEC;
DATA;
#1 = APPLICATION_PROTOCOL_DEFINITION('international standard',
  'automotive_design',2000,#2);
#2 = APPLICATION_CONTEXT(
  'core data for automotive mechanical design processes');
#3 = SHAPE_DEFINITION_REPRESENTATION(#4,#10);
#4 = PRODUCT_DEFINITION_SHAPE('','',#5);
#5 = PRODUCT_DEFINITION('design','',#6,#9);
#6 = PRODUCT_DEFINITION_FORMATION('','',#7);
#7 = PRODUCT('Open CASCADE STEP translator 7.9 67',
  'Open CASCADE STEP translator 7.9 67','',(#8));
#8 = PRODUCT_CONTEXT('',#2,'mechanical');
#9 = PRODUCT_DEFINITION_CONTEXT('part definition',#2,'design');
#10 = MANIFOLD_SURFACE_SHAPE_REPRESENTATION('',(#11,#15),#121);
#11 = AXIS2_PLACEMENT_3D('',#12,#13,#14);
#12 = CARTESIAN_POINT('',(0.,0.,0.));
#13 = DIRECTION('',(0.,0.,1.));
#14 = DIRECTION('',(1.,0.,-0.));
#15 = SHELL_BASED_SURFACE_MODEL('',(#16));
#16 = OPEN_SHELL('',(#17));
#17 = ADVANCED_FACE('',(#18),#40,.T.);
#18 = FACE_BOUND('',#19,.T.);
#19 = EDGE_LOOP('',(#20,#59,#75,#107));
#20 = ORIENTED_EDGE('',*,*,#21,.T.);
#21 = EDGE_CURVE('',#22,#24,#26,.T.);
#22 = VERTEX_POINT('',#23);
#23 = CARTESIAN_POINT('',(0.,-18.43544907388,0.));
#24 = VERTEX_POINT('',#25);
#25 = CARTESIAN_POINT('',(1.5E+03,-38.76160396901,0.));
#26 = SURFACE_CURVE('',#27,(#39),.PCURVE_S1.);
#27 = B_SPLINE_CURVE_WITH_KNOTS('',1,(#28,#29,#30,#31,#32,#33,#34,#35,
    #36,#37,#38),.UNSPECIFIED.,.F.,.F.,(2,1,1,1,1,1,1,1,1,1,2),(0.,
    0.151510048157,0.183928073223,0.312930346515,0.45978849686,
    0.508339482102,0.643621137049,0.748048013349,0.809854660884,
    0.916723853744,1.),.UNSPECIFIED.);
#28 = CARTESIAN_POINT('',(0.,-18.43544907388,0.));
#29 = CARTESIAN_POINT('',(232.06927170778,1.535544947539,0.));
#30 = CARTESIAN_POINT('',(281.85052210705,3.923652788834,0.));
#31 = CARTESIAN_POINT('',(480.07447768696,10.229268849914,0.));
#32 = CARTESIAN_POINT('',(705.83880812476,12.45608733846,0.));
#33 = CARTESIAN_POINT('',(780.43108554073,9.764384248401,0.));
#34 = CARTESIAN_POINT('',(986.62827907527,36.922208827392,0.));
#35 = CARTESIAN_POINT('',(1.147167196943E+03,38.030752326561,0.));
#36 = CARTESIAN_POINT('',(1.218104448694E+03,-25.1882859485,0.));
#37 = CARTESIAN_POINT('',(1.379632030609E+03,4.85343963718,0.));
#38 = CARTESIAN_POINT('',(1.5E+03,-38.76160396901,0.));
#39 = PCURVE('',#40,#45);
#40 = PLANE('',#41);
#41 = AXIS2_PLACEMENT_3D('',#42,#43,#44);
#42 = CARTESIAN_POINT('',(768.39688422912,75.,0.));
#43 = DIRECTION('',(0.,0.,1.));
#44 = DIRECTION('',(1.,0.,-0.));
#45 = DEFINITIONAL_REPRESENTATION('',(#46),#58);
#46 = B_SPLINE_CURVE_WITH_KNOTS('',1,(#47,#48,#49,#50,#51,#52,#53,#54,
    #55,#56,#57),.UNSPECIFIED.,.F.,.F.,(2,1,1,1,1,1,1,1,1,1,2),(0.,
    0.151510048157,0.183928073223,0.312930346515,0.45978849686,
    0.508339482102,0.643621137049,0.748048013349,0.809854660884,
    0.916723853744,1.),.UNSPECIFIED.);
#47 = CARTESIAN_POINT('',(-768.3968842291,-93.43544907388));
#48 = CARTESIAN_POINT('',(-536.3276125213,-73.46445505246));
#49 = CARTESIAN_POINT('',(-486.546362122,-71.07634721116));
#50 = CARTESIAN_POINT('',(-288.3224065421,-64.77073115008));
#51 = CARTESIAN_POINT('',(-62.55807610435,-62.54391266154));
#52 = CARTESIAN_POINT('',(12.034201311612,-65.23561575159));
#53 = CARTESIAN_POINT('',(218.23139484614,-38.0777911726));
#54 = CARTESIAN_POINT('',(378.77031271371,-36.96924767343));
#55 = CARTESIAN_POINT('',(449.70756446456,-100.1882859485));
#56 = CARTESIAN_POINT('',(611.23514638009,-70.14656036282));
#57 = CARTESIAN_POINT('',(731.60311577087,-113.761603969));
#58 = ( GEOMETRIC_REPRESENTATION_CONTEXT(2) 
PARAMETRIC_REPRESENTATION_CONTEXT() REPRESENTATION_CONTEXT('2D SPACE',''
  ) );
#59 = ORIENTED_EDGE('',*,*,#60,.T.);
#60 = EDGE_CURVE('',#24,#61,#63,.T.);
#61 = VERTEX_POINT('',#62);
#62 = CARTESIAN_POINT('',(1.5E+03,188.76160396901,0.));
#63 = SURFACE_CURVE('',#64,(#68),.PCURVE_S1.);
#64 = LINE('',#65,#66);
#65 = CARTESIAN_POINT('',(1.5E+03,-38.76160396901,0.));
#66 = VECTOR('',#67,1.);
#67 = DIRECTION('',(0.,1.,0.));
#68 = PCURVE('',#40,#69);
#69 = DEFINITIONAL_REPRESENTATION('',(#70),#74);
#70 = LINE('',#71,#72);
#71 = CARTESIAN_POINT('',(731.60311577087,-113.761603969));
#72 = VECTOR('',#73,1.);
#73 = DIRECTION('',(0.,1.));
#74 = ( GEOMETRIC_REPRESENTATION_CONTEXT(2) 
PARAMETRIC_REPRESENTATION_CONTEXT() REPRESENTATION_CONTEXT('2D SPACE',''
  ) );
#75 = ORIENTED_EDGE('',*,*,#76,.T.);
#76 = EDGE_CURVE('',#61,#77,#79,.T.);
#77 = VERTEX_POINT('',#78);
#78 = CARTESIAN_POINT('',(0.,168.43544907388,0.));
#79 = SURFACE_CURVE('',#80,(#92),.PCURVE_S1.);
#80 = B_SPLINE_CURVE_WITH_KNOTS('',1,(#81,#82,#83,#84,#85,#86,#87,#88,
    #89,#90,#91),.UNSPECIFIED.,.F.,.F.,(2,1,1,1,1,1,1,1,1,1,2),(0.,
    8.327614625643E-02,0.190145339116,0.251951986651,0.356378862951,
    0.491660517898,0.54021150314,0.687069653485,0.816071926777,
    0.848489951843,1.),.UNSPECIFIED.);
#81 = CARTESIAN_POINT('',(1.5E+03,188.76160396901,0.));
#82 = CARTESIAN_POINT('',(1.379632030609E+03,145.14656036282,0.));
#83 = CARTESIAN_POINT('',(1.218104448694E+03,175.1882859485,0.));
#84 = CARTESIAN_POINT('',(1.147167196943E+03,111.96924767343,0.));
#85 = CARTESIAN_POINT('',(986.62827907527,113.0777911726,0.));
#86 = CARTESIAN_POINT('',(780.43108554073,140.23561575159,0.));
#87 = CARTESIAN_POINT('',(705.83880812476,137.54391266154,0.));
#88 = CARTESIAN_POINT('',(480.07447768696,139.77073115008,0.));
#89 = CARTESIAN_POINT('',(281.85052210705,146.07634721116,0.));
#90 = CARTESIAN_POINT('',(232.06927170778,148.46445505246,0.));
#91 = CARTESIAN_POINT('',(0.,168.43544907388,0.));
#92 = PCURVE('',#40,#93);
#93 = DEFINITIONAL_REPRESENTATION('',(#94),#106);
#94 = B_SPLINE_CURVE_WITH_KNOTS('',1,(#95,#96,#97,#98,#99,#100,#101,#102
    ,#103,#104,#105),.UNSPECIFIED.,.F.,.F.,(2,1,1,1,1,1,1,1,1,1,2),(0.,
    8.327614625643E-02,0.190145339116,0.251951986651,0.356378862951,
    0.491660517898,0.54021150314,0.687069653485,0.816071926777,
    0.848489951843,1.),.UNSPECIFIED.);
#95 = CARTESIAN_POINT('',(731.60311577087,113.76160396901));
#96 = CARTESIAN_POINT('',(611.23514638009,70.14656036282));
#97 = CARTESIAN_POINT('',(449.70756446456,100.1882859485));
#98 = CARTESIAN_POINT('',(378.77031271371,36.969247673439));
#99 = CARTESIAN_POINT('',(218.23139484614,38.077791172608));
#100 = CARTESIAN_POINT('',(12.034201311612,65.235615751599));
#101 = CARTESIAN_POINT('',(-62.55807610435,62.54391266154));
#102 = CARTESIAN_POINT('',(-288.3224065421,64.770731150086));
#103 = CARTESIAN_POINT('',(-486.546362122,71.076347211166));
#104 = CARTESIAN_POINT('',(-536.3276125213,73.464455052461));
#105 = CARTESIAN_POINT('',(-768.3968842291,93.435449073886));
#106 = ( GEOMETRIC_REPRESENTATION_CONTEXT(2) 
PARAMETRIC_REPRESENTATION_CONTEXT() REPRESENTATION_CONTEXT('2D SPACE',''
  ) );
#107 = ORIENTED_EDGE('',*,*,#108,.T.);
#108 = EDGE_CURVE('',#77,#22,#109,.T.);
#109 = SURFACE_CURVE('',#110,(#114),.PCURVE_S1.);
#110 = LINE('',#111,#112);
#111 = CARTESIAN_POINT('',(0.,168.43544907388,0.));
#112 = VECTOR('',#113,1.);
#113 = DIRECTION('',(0.,-1.,0.));
#114 = PCURVE('',#40,#115);
#115 = DEFINITIONAL_REPRESENTATION('',(#116),#120);
#116 = LINE('',#117,#118);
#117 = CARTESIAN_POINT('',(-768.3968842291,93.435449073886));
#118 = VECTOR('',#119,1.);
#119 = DIRECTION('',(0.,-1.));
#120 = ( GEOMETRIC_REPRESENTATION_CONTEXT(2) 
PARAMETRIC_REPRESENTATION_CONTEXT() REPRESENTATION_CONTEXT('2D SPACE',''
  ) );
#121 = ( GEOMETRIC_REPRESENTATION_CONTEXT(3) 
GLOBAL_UNCERTAINTY_ASSIGNED_CONTEXT((#125)) GLOBAL_UNIT_ASSIGNED_CONTEXT
((#122,#123,#124)) REPRESENTATION_CONTEXT('Context #1',
  '3D Context with UNIT and UNCERTAINTY') );
#122 = ( LENGTH_UNIT() NAMED_UNIT(*) SI_UNIT(.MILLI.,.METRE.) );
#123 = ( NAMED_UNIT(*) PLANE_ANGLE_UNIT() SI_UNIT($,.RADIAN.) );
#124 = ( NAMED_UNIT(*) SI_UNIT($,.STERADIAN.) SOLID_ANGLE_UNIT() );
#125 = UNCERTAINTY_MEASURE_WITH_UNIT(LENGTH_MEASURE(1.E-07),#122,
  'distance_accuracy_value','confusion accuracy');
#126 = PRODUCT_RELATED_PRODUCT_CATEGORY('part',$,(#7));
ENDSEC;
END-ISO-10303-21;
