ISO-10303-21;
HEADER;
FILE_DESCRIPTION(('Open CASCADE Model'),'2;1');
FILE_NAME('Open CASCADE Shape Model','2026-05-29T14:30:30',('Author'),(
    'Open CASCADE'),'Open CASCADE STEP processor 7.9','Open CASCADE 7.9'
  ,'Unknown');
FILE_SCHEMA(('AUTOMOTIVE_DESIGN { 1 0 10303 214 1 1 1 1 }'));
ENDSEC;
DATA;
#1 = APPLICATION_PROTOCOL_DEFINITION('international standard',
  'automotive_design',2000,#2);
#2 = APPLICATION_CONTEXT(
  'core data for automotive mechanical design processes');
#3 = SHAPE_DEFINITION_REPRESENTATION(#4,#10);
#4 = PRODUCT_DEFINITION_SHAPE('','',#5);
#5 = PRODUCT_DEFINITION('design','',#6,#9);
#6 = PRODUCT_DEFINITION_FORMATION('','',#7);
#7 = PRODUCT('Open CASCADE STEP translator 7.9 100',
  'Open CASCADE STEP translator 7.9 100','',(#8));
#8 = PRODUCT_CONTEXT('',#2,'mechanical');
#9 = PRODUCT_DEFINITION_CONTEXT('part definition',#2,'design');
#10 = MANIFOLD_SURFACE_SHAPE_REPRESENTATION('',(#11,#15),#121);
#11 = AXIS2_PLACEMENT_3D('',#12,#13,#14);
#12 = CARTESIAN_POINT('',(0.,0.,0.));
#13 = DIRECTION('',(0.,0.,1.));
#14 = DIRECTION('',(1.,0.,-0.));
#15 = SHELL_BASED_SURFACE_MODEL('',(#16));
#16 = OPEN_SHELL('',(#17));
#17 = ADVANCED_FACE('',(#18),#40,.T.);
#18 = FACE_BOUND('',#19,.T.);
#19 = EDGE_LOOP('',(#20,#59,#75,#107));
#20 = ORIENTED_EDGE('',*,*,#21,.T.);
#21 = EDGE_CURVE('',#22,#24,#26,.T.);
#22 = VERTEX_POINT('',#23);
#23 = CARTESIAN_POINT('',(0.,19.858066902564,0.));
#24 = VERTEX_POINT('',#25);
#25 = CARTESIAN_POINT('',(1.5E+03,-44.1728788996,0.));
#26 = SURFACE_CURVE('',#27,(#39),.PCURVE_S1.);
#27 = B_SPLINE_CURVE_WITH_KNOTS('',1,(#28,#29,#30,#31,#32,#33,#34,#35,
    #36,#37,#38),.UNSPECIFIED.,.F.,.F.,(2,1,1,1,1,1,1,1,1,1,2),(0.,
    0.144425390391,0.503129196758,0.532771062329,0.604874189708,
    0.665653082705,0.705078618658,0.775228809648,0.869422945087,
    0.97070977751,1.),.UNSPECIFIED.);
#28 = CARTESIAN_POINT('',(0.,19.858066902564,0.));
#29 = CARTESIAN_POINT('',(219.26210425811,27.635243715587,0.));
#30 = CARTESIAN_POINT('',(763.92114204189,10.924116530893,0.));
#31 = CARTESIAN_POINT('',(808.94693818195,10.334903637963,0.));
#32 = CARTESIAN_POINT('',(918.40167266761,14.489303345741,0.));
#33 = CARTESIAN_POINT('',(1.010726921522E+03,15.486850482237,0.));
#34 = CARTESIAN_POINT('',(1.066651180518E+03,36.924185003287,0.));
#35 = CARTESIAN_POINT('',(1.173059621971E+03,42.731554758645,0.));
#36 = CARTESIAN_POINT('',(1.315263568965E+03,26.809712985918,0.));
#37 = CARTESIAN_POINT('',(1.460811806362E+03,-23.09844846749,0.));
#38 = CARTESIAN_POINT('',(1.5E+03,-44.1728788996,0.));
#39 = PCURVE('',#40,#45);
#40 = PLANE('',#41);
#41 = AXIS2_PLACEMENT_3D('',#42,#43,#44);
#42 = CARTESIAN_POINT('',(784.66697942926,75.,0.));
#43 = DIRECTION('',(0.,0.,1.));
#44 = DIRECTION('',(1.,0.,-0.));
#45 = DEFINITIONAL_REPRESENTATION('',(#46),#58);
#46 = B_SPLINE_CURVE_WITH_KNOTS('',1,(#47,#48,#49,#50,#51,#52,#53,#54,
    #55,#56,#57),.UNSPECIFIED.,.F.,.F.,(2,1,1,1,1,1,1,1,1,1,2),(0.,
    0.144425390391,0.503129196758,0.532771062329,0.604874189708,
    0.665653082705,0.705078618658,0.775228809648,0.869422945087,
    0.97070977751,1.),.UNSPECIFIED.);
#47 = CARTESIAN_POINT('',(-784.6669794292,-55.14193309743));
#48 = CARTESIAN_POINT('',(-565.4048751711,-47.36475628441));
#49 = CARTESIAN_POINT('',(-20.74583738737,-64.0758834691));
#50 = CARTESIAN_POINT('',(24.279958752687,-64.66509636203));
#51 = CARTESIAN_POINT('',(133.73469323834,-60.51069665425));
#52 = CARTESIAN_POINT('',(226.05994209308,-59.51314951776));
#53 = CARTESIAN_POINT('',(281.9842010884,-38.07581499671));
#54 = CARTESIAN_POINT('',(388.39264254187,-32.26844524135));
#55 = CARTESIAN_POINT('',(530.59658953565,-48.19028701408));
#56 = CARTESIAN_POINT('',(676.1448269328,-98.09844846749));
#57 = CARTESIAN_POINT('',(715.33302057073,-119.1728788996));
#58 = ( GEOMETRIC_REPRESENTATION_CONTEXT(2) 
PARAMETRIC_REPRESENTATION_CONTEXT() REPRESENTATION_CONTEXT('2D SPACE',''
  ) );
#59 = ORIENTED_EDGE('',*,*,#60,.T.);
#60 = EDGE_CURVE('',#24,#61,#63,.T.);
#61 = VERTEX_POINT('',#62);
#62 = CARTESIAN_POINT('',(1.5E+03,194.1728788996,0.));
#63 = SURFACE_CURVE('',#64,(#68),.PCURVE_S1.);
#64 = LINE('',#65,#66);
#65 = CARTESIAN_POINT('',(1.5E+03,-44.1728788996,0.));
#66 = VECTOR('',#67,1.);
#67 = DIRECTION('',(0.,1.,0.));
#68 = PCURVE('',#40,#69);
#69 = DEFINITIONAL_REPRESENTATION('',(#70),#74);
#70 = LINE('',#71,#72);
#71 = CARTESIAN_POINT('',(715.33302057073,-119.1728788996));
#72 = VECTOR('',#73,1.);
#73 = DIRECTION('',(0.,1.));
#74 = ( GEOMETRIC_REPRESENTATION_CONTEXT(2) 
PARAMETRIC_REPRESENTATION_CONTEXT() REPRESENTATION_CONTEXT('2D SPACE',''
  ) );
#75 = ORIENTED_EDGE('',*,*,#76,.T.);
#76 = EDGE_CURVE('',#61,#77,#79,.T.);
#77 = VERTEX_POINT('',#78);
#78 = CARTESIAN_POINT('',(0.,130.14193309743,0.));
#79 = SURFACE_CURVE('',#80,(#92),.PCURVE_S1.);
#80 = B_SPLINE_CURVE_WITH_KNOTS('',1,(#81,#82,#83,#84,#85,#86,#87,#88,
    #89,#90,#91),.UNSPECIFIED.,.F.,.F.,(2,1,1,1,1,1,1,1,1,1,2),(0.,
    2.929022249E-02,0.130577054913,0.224771190352,0.294921381342,
    0.334346917295,0.395125810292,0.467228937671,0.496870803242,
    0.855574609609,1.),.UNSPECIFIED.);
#81 = CARTESIAN_POINT('',(1.5E+03,194.1728788996,0.));
#82 = CARTESIAN_POINT('',(1.460811806362E+03,173.09844846749,0.));
#83 = CARTESIAN_POINT('',(1.315263568965E+03,123.19028701408,0.));
#84 = CARTESIAN_POINT('',(1.173059621971E+03,107.26844524135,0.));
#85 = CARTESIAN_POINT('',(1.066651180518E+03,113.07581499671,0.));
#86 = CARTESIAN_POINT('',(1.010726921522E+03,134.51314951776,0.));
#87 = CARTESIAN_POINT('',(918.40167266761,135.51069665425,0.));
#88 = CARTESIAN_POINT('',(808.94693818195,139.66509636203,0.));
#89 = CARTESIAN_POINT('',(763.92114204189,139.0758834691,0.));
#90 = CARTESIAN_POINT('',(219.26210425811,122.36475628441,0.));
#91 = CARTESIAN_POINT('',(0.,130.14193309743,0.));
#92 = PCURVE('',#40,#93);
#93 = DEFINITIONAL_REPRESENTATION('',(#94),#106);
#94 = B_SPLINE_CURVE_WITH_KNOTS('',1,(#95,#96,#97,#98,#99,#100,#101,#102
    ,#103,#104,#105),.UNSPECIFIED.,.F.,.F.,(2,1,1,1,1,1,1,1,1,1,2),(0.,
    2.929022249E-02,0.130577054913,0.224771190352,0.294921381342,
    0.334346917295,0.395125810292,0.467228937671,0.496870803242,
    0.855574609609,1.),.UNSPECIFIED.);
#95 = CARTESIAN_POINT('',(715.33302057073,119.1728788996));
#96 = CARTESIAN_POINT('',(676.1448269328,98.098448467495));
#97 = CARTESIAN_POINT('',(530.59658953565,48.190287014082));
#98 = CARTESIAN_POINT('',(388.39264254187,32.268445241355));
#99 = CARTESIAN_POINT('',(281.9842010884,38.075814996713));
#100 = CARTESIAN_POINT('',(226.05994209308,59.513149517763));
#101 = CARTESIAN_POINT('',(133.73469323834,60.510696654259));
#102 = CARTESIAN_POINT('',(24.279958752687,64.665096362037));
#103 = CARTESIAN_POINT('',(-20.74583738737,64.075883469107));
#104 = CARTESIAN_POINT('',(-565.4048751711,47.364756284413));
#105 = CARTESIAN_POINT('',(-784.6669794292,55.141933097436));
#106 = ( GEOMETRIC_REPRESENTATION_CONTEXT(2) 
PARAMETRIC_REPRESENTATION_CONTEXT() REPRESENTATION_CONTEXT('2D SPACE',''
  ) );
#107 = ORIENTED_EDGE('',*,*,#108,.T.);
#108 = EDGE_CURVE('',#77,#22,#109,.T.);
#109 = SURFACE_CURVE('',#110,(#114),.PCURVE_S1.);
#110 = LINE('',#111,#112);
#111 = CARTESIAN_POINT('',(0.,130.14193309743,0.));
#112 = VECTOR('',#113,1.);
#113 = DIRECTION('',(0.,-1.,0.));
#114 = PCURVE('',#40,#115);
#115 = DEFINITIONAL_REPRESENTATION('',(#116),#120);
#116 = LINE('',#117,#118);
#117 = CARTESIAN_POINT('',(-784.6669794292,55.141933097436));
#118 = VECTOR('',#119,1.);
#119 = DIRECTION('',(0.,-1.));
#120 = ( GEOMETRIC_REPRESENTATION_CONTEXT(2) 
PARAMETRIC_REPRESENTATION_CONTEXT() REPRESENTATION_CONTEXT('2D SPACE',''
  ) );
#121 = ( GEOMETRIC_REPRESENTATION_CONTEXT(3) 
GLOBAL_UNCERTAINTY_ASSIGNED_CONTEXT((#125)) GLOBAL_UNIT_ASSIGNED_CONTEXT
((#122,#123,#124)) REPRESENTATION_CONTEXT('Context #1',
  '3D Context with UNIT and UNCERTAINTY') );
#122 = ( LENGTH_UNIT() NAMED_UNIT(*) SI_UNIT(.MILLI.,.METRE.) );
#123 = ( NAMED_UNIT(*) PLANE_ANGLE_UNIT() SI_UNIT($,.RADIAN.) );
#124 = ( NAMED_UNIT(*) SI_UNIT($,.STERADIAN.) SOLID_ANGLE_UNIT() );
#125 = UNCERTAINTY_MEASURE_WITH_UNIT(LENGTH_MEASURE(1.E-07),#122,
  'distance_accuracy_value','confusion accuracy');
#126 = PRODUCT_RELATED_PRODUCT_CATEGORY('part',$,(#7));
ENDSEC;
END-ISO-10303-21;
