ISO-10303-21;
HEADER;
FILE_DESCRIPTION(('Open CASCADE Model'),'2;1');
FILE_NAME('Open CASCADE Shape Model','2026-05-28T17:04:48',('Author'),(
    'Open CASCADE'),'Open CASCADE STEP processor 7.9','Open CASCADE 7.9'
  ,'Unknown');
FILE_SCHEMA(('AUTOMOTIVE_DESIGN { 1 0 10303 214 1 1 1 1 }'));
ENDSEC;
DATA;
#1 = APPLICATION_PROTOCOL_DEFINITION('international standard',
  'automotive_design',2000,#2);
#2 = APPLICATION_CONTEXT(
  'core data for automotive mechanical design processes');
#3 = SHAPE_DEFINITION_REPRESENTATION(#4,#10);
#4 = PRODUCT_DEFINITION_SHAPE('','',#5);
#5 = PRODUCT_DEFINITION('design','',#6,#9);
#6 = PRODUCT_DEFINITION_FORMATION('','',#7);
#7 = PRODUCT('Open CASCADE STEP translator 7.9 25',
  'Open CASCADE STEP translator 7.9 25','',(#8));
#8 = PRODUCT_CONTEXT('',#2,'mechanical');
#9 = PRODUCT_DEFINITION_CONTEXT('part definition',#2,'design');
#10 = MANIFOLD_SURFACE_SHAPE_REPRESENTATION('',(#11,#15),#197);
#11 = AXIS2_PLACEMENT_3D('',#12,#13,#14);
#12 = CARTESIAN_POINT('',(0.,0.,0.));
#13 = DIRECTION('',(0.,0.,1.));
#14 = DIRECTION('',(1.,0.,-0.));
#15 = SHELL_BASED_SURFACE_MODEL('',(#16));
#16 = OPEN_SHELL('',(#17));
#17 = ADVANCED_FACE('',(#18),#59,.T.);
#18 = FACE_BOUND('',#19,.T.);
#19 = EDGE_LOOP('',(#20,#97,#113,#183));
#20 = ORIENTED_EDGE('',*,*,#21,.T.);
#21 = EDGE_CURVE('',#22,#24,#26,.T.);
#22 = VERTEX_POINT('',#23);
#23 = CARTESIAN_POINT('',(0.,5.389998456618E-02,0.));
#24 = VERTEX_POINT('',#25);
#25 = CARTESIAN_POINT('',(5.8,-4.736254642414E-02,0.));
#26 = SURFACE_CURVE('',#27,(#58),.PCURVE_S1.);
#27 = B_SPLINE_CURVE_WITH_KNOTS('',1,(#28,#29,#30,#31,#32,#33,#34,#35,
    #36,#37,#38,#39,#40,#41,#42,#43,#44,#45,#46,#47,#48,#49,#50,#51,#52,
    #53,#54,#55,#56,#57),.UNSPECIFIED.,.F.,.F.,(2,1,1,1,1,1,1,1,1,1,1,1,
    1,1,1,1,1,1,1,1,1,1,1,1,1,1,1,1,1,2),(0.,6.64685317519E-02,
    0.106469265437,0.165912516081,0.181621759698,0.19116815508,
    0.232317867732,0.235819708352,0.32387552249,0.379347550615,
    0.42108869628,0.434236591448,0.43904802347,0.444763264431,
    0.483597128562,0.491564747874,0.503838099894,0.519250908369,
    0.530158105344,0.551574090451,0.602097796011,0.645018903146,
    0.660887104048,0.680289749302,0.728329795143,0.776587898259,
    0.935153728809,0.94724099265,0.994250375675,1.),.UNSPECIFIED.);
#28 = CARTESIAN_POINT('',(0.,5.389998456618E-02,0.));
#29 = CARTESIAN_POINT('',(0.387589377268,-5.776645215036E-02,0.));
#30 = CARTESIAN_POINT('',(0.622411704429,3.719390518479E-03,0.));
#31 = CARTESIAN_POINT('',(0.979463641354,-4.761064459088E-02,0.));
#32 = CARTESIAN_POINT('',(1.0602908685,2.932659212048E-03,0.));
#33 = CARTESIAN_POINT('',(1.089840758412,5.276030177109E-02,0.));
#34 = CARTESIAN_POINT('',(1.322213078894,-3.866562553126E-02,0.));
#35 = CARTESIAN_POINT('',(1.32614449544,-1.778204756006E-02,0.));
#36 = CARTESIAN_POINT('',(1.86025788993,-3.381084570887E-02,0.));
#37 = CARTESIAN_POINT('',(2.194196969766,8.619616378935E-03,0.));
#38 = CARTESIAN_POINT('',(2.446243163744,-1.65524093096E-02,0.));
#39 = CARTESIAN_POINT('',(2.521606531492,-4.274748045559E-02,0.));
#40 = CARTESIAN_POINT('',(2.532671438165,-1.572785314463E-02,0.));
#41 = CARTESIAN_POINT('',(2.53948108092,1.827916381969E-02,0.));
#42 = CARTESIAN_POINT('',(2.772090168291,-1.950355132394E-02,0.));
#43 = CARTESIAN_POINT('',(2.820427553489,-2.062250263369E-02,0.));
#44 = CARTESIAN_POINT('',(2.886356673719,-5.527043550079E-02,0.));
#45 = CARTESIAN_POINT('',(2.947518905714,1.5490521415E-02,0.));
#46 = CARTESIAN_POINT('',(3.013387669036,8.990187898304E-03,0.));
#47 = CARTESIAN_POINT('',(3.13476481459,-3.745475534245E-02,0.));
#48 = CARTESIAN_POINT('',(3.439148460668,-6.91477769129E-04,0.));
#49 = CARTESIAN_POINT('',(3.698132085328,-2.838877117389E-02,0.));
#50 = CARTESIAN_POINT('',(3.788512933132,4.834864265569E-03,0.));
#51 = CARTESIAN_POINT('',(3.902549689172,3.414058298248E-02,0.));
#52 = CARTESIAN_POINT('',(4.187059321174,-2.942446113372E-02,0.));
#53 = CARTESIAN_POINT('',(4.470484639259,4.426137969783E-02,0.));
#54 = CARTESIAN_POINT('',(5.432684212818,3.616996037624E-02,0.));
#55 = CARTESIAN_POINT('',(5.485023180582,-1.521899793411E-02,0.));
#56 = CARTESIAN_POINT('',(5.769926378412,-2.967237602305E-02,0.));
#57 = CARTESIAN_POINT('',(5.8,-4.736254642414E-02,0.));
#58 = PCURVE('',#59,#64);
#59 = PLANE('',#60);
#60 = AXIS2_PLACEMENT_3D('',#61,#62,#63);
#61 = CARTESIAN_POINT('',(2.926823038862,0.1,0.));
#62 = DIRECTION('',(0.,0.,1.));
#63 = DIRECTION('',(1.,0.,-0.));
#64 = DEFINITIONAL_REPRESENTATION('',(#65),#96);
#65 = B_SPLINE_CURVE_WITH_KNOTS('',1,(#66,#67,#68,#69,#70,#71,#72,#73,
    #74,#75,#76,#77,#78,#79,#80,#81,#82,#83,#84,#85,#86,#87,#88,#89,#90,
    #91,#92,#93,#94,#95),.UNSPECIFIED.,.F.,.F.,(2,1,1,1,1,1,1,1,1,1,1,1,
    1,1,1,1,1,1,1,1,1,1,1,1,1,1,1,1,1,2),(0.,6.64685317519E-02,
    0.106469265437,0.165912516081,0.181621759698,0.19116815508,
    0.232317867732,0.235819708352,0.32387552249,0.379347550615,
    0.42108869628,0.434236591448,0.43904802347,0.444763264431,
    0.483597128562,0.491564747874,0.503838099894,0.519250908369,
    0.530158105344,0.551574090451,0.602097796011,0.645018903146,
    0.660887104048,0.680289749302,0.728329795143,0.776587898259,
    0.935153728809,0.94724099265,0.994250375675,1.),.UNSPECIFIED.);
#66 = CARTESIAN_POINT('',(-2.926823038862,-4.610001543382E-02));
#67 = CARTESIAN_POINT('',(-2.539233661594,-0.15776645215));
#68 = CARTESIAN_POINT('',(-2.304411334433,-9.628060948152E-02));
#69 = CARTESIAN_POINT('',(-1.947359397508,-0.147610644591));
#70 = CARTESIAN_POINT('',(-1.866532170362,-9.706734078795E-02));
#71 = CARTESIAN_POINT('',(-1.83698228045,-4.723969822891E-02));
#72 = CARTESIAN_POINT('',(-1.604609959968,-0.138665625531));
#73 = CARTESIAN_POINT('',(-1.600678543422,-0.11778204756));
#74 = CARTESIAN_POINT('',(-1.066565148932,-0.133810845709));
#75 = CARTESIAN_POINT('',(-0.732626069096,-9.138038362106E-02));
#76 = CARTESIAN_POINT('',(-0.480579875118,-0.11655240931));
#77 = CARTESIAN_POINT('',(-0.40521650737,-0.142747480456));
#78 = CARTESIAN_POINT('',(-0.394151600697,-0.115727853145));
#79 = CARTESIAN_POINT('',(-0.387341957942,-8.172083618031E-02));
#80 = CARTESIAN_POINT('',(-0.154732870571,-0.119503551324));
#81 = CARTESIAN_POINT('',(-0.106395485373,-0.120622502634));
#82 = CARTESIAN_POINT('',(-4.046636514279E-02,-0.155270435501));
#83 = CARTESIAN_POINT('',(2.069586685183E-02,-8.4509478585E-02));
#84 = CARTESIAN_POINT('',(8.656463017423E-02,-9.10098121017E-02));
#85 = CARTESIAN_POINT('',(0.207941775728,-0.137454755342));
#86 = CARTESIAN_POINT('',(0.512325421806,-0.100691477769));
#87 = CARTESIAN_POINT('',(0.771309046466,-0.128388771174));
#88 = CARTESIAN_POINT('',(0.86168989427,-9.516513573443E-02));
#89 = CARTESIAN_POINT('',(0.97572665031,-6.585941701752E-02));
#90 = CARTESIAN_POINT('',(1.260236282312,-0.129424461134));
#91 = CARTESIAN_POINT('',(1.543661600397,-5.573862030217E-02));
#92 = CARTESIAN_POINT('',(2.505861173956,-6.383003962376E-02));
#93 = CARTESIAN_POINT('',(2.55820014172,-0.115218997934));
#94 = CARTESIAN_POINT('',(2.84310333955,-0.129672376023));
#95 = CARTESIAN_POINT('',(2.873176961138,-0.147362546424));
#96 = ( GEOMETRIC_REPRESENTATION_CONTEXT(2) 
PARAMETRIC_REPRESENTATION_CONTEXT() REPRESENTATION_CONTEXT('2D SPACE',''
  ) );
#97 = ORIENTED_EDGE('',*,*,#98,.T.);
#98 = EDGE_CURVE('',#24,#99,#101,.T.);
#99 = VERTEX_POINT('',#100);
#100 = CARTESIAN_POINT('',(5.8,0.247362546424,0.));
#101 = SURFACE_CURVE('',#102,(#106),.PCURVE_S1.);
#102 = LINE('',#103,#104);
#103 = CARTESIAN_POINT('',(5.8,-4.736254642414E-02,0.));
#104 = VECTOR('',#105,1.);
#105 = DIRECTION('',(0.,1.,0.));
#106 = PCURVE('',#59,#107);
#107 = DEFINITIONAL_REPRESENTATION('',(#108),#112);
#108 = LINE('',#109,#110);
#109 = CARTESIAN_POINT('',(2.873176961138,-0.147362546424));
#110 = VECTOR('',#111,1.);
#111 = DIRECTION('',(0.,1.));
#112 = ( GEOMETRIC_REPRESENTATION_CONTEXT(2) 
PARAMETRIC_REPRESENTATION_CONTEXT() REPRESENTATION_CONTEXT('2D SPACE',''
  ) );
#113 = ORIENTED_EDGE('',*,*,#114,.T.);
#114 = EDGE_CURVE('',#99,#115,#117,.T.);
#115 = VERTEX_POINT('',#116);
#116 = CARTESIAN_POINT('',(0.,0.146100015434,0.));
#117 = SURFACE_CURVE('',#118,(#149),.PCURVE_S1.);
#118 = B_SPLINE_CURVE_WITH_KNOTS('',1,(#119,#120,#121,#122,#123,#124,
    #125,#126,#127,#128,#129,#130,#131,#132,#133,#134,#135,#136,#137,
    #138,#139,#140,#141,#142,#143,#144,#145,#146,#147,#148),
  .UNSPECIFIED.,.F.,.F.,(2,1,1,1,1,1,1,1,1,1,1,1,1,1,1,1,1,1,1,1,1,1,1,1
    ,1,1,1,1,1,2),(0.,5.749624324528E-03,5.275900735016E-02,
    6.48462711913E-02,0.223412101741,0.271670204857,0.319710250698,
    0.339112895952,0.354981096854,0.397902203989,0.448425909549,
    0.469841894656,0.480749091631,0.496161900106,0.508435252126,
    0.516402871438,0.555236735569,0.56095197653,0.565763408552,
    0.57891130372,0.620652449385,0.67612447751,0.764180291648,
    0.767682132268,0.80883184492,0.818378240302,0.834087483919,
    0.893530734563,0.933531468248,1.),.UNSPECIFIED.);
#119 = CARTESIAN_POINT('',(5.8,0.247362546424,0.));
#120 = CARTESIAN_POINT('',(5.769926378412,0.229672376023,0.));
#121 = CARTESIAN_POINT('',(5.485023180582,0.215218997934,0.));
#122 = CARTESIAN_POINT('',(5.432684212818,0.163830039624,0.));
#123 = CARTESIAN_POINT('',(4.470484639259,0.155738620302,0.));
#124 = CARTESIAN_POINT('',(4.187059321174,0.229424461134,0.));
#125 = CARTESIAN_POINT('',(3.902549689172,0.165859417018,0.));
#126 = CARTESIAN_POINT('',(3.788512933132,0.195165135734,0.));
#127 = CARTESIAN_POINT('',(3.698132085328,0.228388771174,0.));
#128 = CARTESIAN_POINT('',(3.439148460668,0.200691477769,0.));
#129 = CARTESIAN_POINT('',(3.13476481459,0.237454755342,0.));
#130 = CARTESIAN_POINT('',(3.013387669036,0.191009812102,0.));
#131 = CARTESIAN_POINT('',(2.947518905714,0.184509478585,0.));
#132 = CARTESIAN_POINT('',(2.886356673719,0.255270435501,0.));
#133 = CARTESIAN_POINT('',(2.820427553489,0.220622502634,0.));
#134 = CARTESIAN_POINT('',(2.772090168291,0.219503551324,0.));
#135 = CARTESIAN_POINT('',(2.53948108092,0.18172083618,0.));
#136 = CARTESIAN_POINT('',(2.532671438165,0.215727853145,0.));
#137 = CARTESIAN_POINT('',(2.521606531492,0.242747480456,0.));
#138 = CARTESIAN_POINT('',(2.446243163744,0.21655240931,0.));
#139 = CARTESIAN_POINT('',(2.194196969766,0.191380383621,0.));
#140 = CARTESIAN_POINT('',(1.86025788993,0.233810845709,0.));
#141 = CARTESIAN_POINT('',(1.32614449544,0.21778204756,0.));
#142 = CARTESIAN_POINT('',(1.322213078894,0.238665625531,0.));
#143 = CARTESIAN_POINT('',(1.089840758412,0.147239698229,0.));
#144 = CARTESIAN_POINT('',(1.0602908685,0.197067340788,0.));
#145 = CARTESIAN_POINT('',(0.979463641354,0.247610644591,0.));
#146 = CARTESIAN_POINT('',(0.622411704429,0.196280609482,0.));
#147 = CARTESIAN_POINT('',(0.387589377268,0.25776645215,0.));
#148 = CARTESIAN_POINT('',(0.,0.146100015434,0.));
#149 = PCURVE('',#59,#150);
#150 = DEFINITIONAL_REPRESENTATION('',(#151),#182);
#151 = B_SPLINE_CURVE_WITH_KNOTS('',1,(#152,#153,#154,#155,#156,#157,
    #158,#159,#160,#161,#162,#163,#164,#165,#166,#167,#168,#169,#170,
    #171,#172,#173,#174,#175,#176,#177,#178,#179,#180,#181),
  .UNSPECIFIED.,.F.,.F.,(2,1,1,1,1,1,1,1,1,1,1,1,1,1,1,1,1,1,1,1,1,1,1,1
    ,1,1,1,1,1,2),(0.,5.749624324528E-03,5.275900735016E-02,
    6.48462711913E-02,0.223412101741,0.271670204857,0.319710250698,
    0.339112895952,0.354981096854,0.397902203989,0.448425909549,
    0.469841894656,0.480749091631,0.496161900106,0.508435252126,
    0.516402871438,0.555236735569,0.56095197653,0.565763408552,
    0.57891130372,0.620652449385,0.67612447751,0.764180291648,
    0.767682132268,0.80883184492,0.818378240302,0.834087483919,
    0.893530734563,0.933531468248,1.),.UNSPECIFIED.);
#152 = CARTESIAN_POINT('',(2.873176961138,0.147362546424));
#153 = CARTESIAN_POINT('',(2.84310333955,0.129672376023));
#154 = CARTESIAN_POINT('',(2.55820014172,0.115218997934));
#155 = CARTESIAN_POINT('',(2.505861173956,6.383003962376E-02));
#156 = CARTESIAN_POINT('',(1.543661600397,5.573862030217E-02));
#157 = CARTESIAN_POINT('',(1.260236282312,0.129424461134));
#158 = CARTESIAN_POINT('',(0.97572665031,6.585941701752E-02));
#159 = CARTESIAN_POINT('',(0.86168989427,9.516513573443E-02));
#160 = CARTESIAN_POINT('',(0.771309046466,0.128388771174));
#161 = CARTESIAN_POINT('',(0.512325421806,0.100691477769));
#162 = CARTESIAN_POINT('',(0.207941775728,0.137454755342));
#163 = CARTESIAN_POINT('',(8.656463017423E-02,9.10098121017E-02));
#164 = CARTESIAN_POINT('',(2.069586685183E-02,8.4509478585E-02));
#165 = CARTESIAN_POINT('',(-4.046636514279E-02,0.155270435501));
#166 = CARTESIAN_POINT('',(-0.106395485373,0.120622502634));
#167 = CARTESIAN_POINT('',(-0.154732870571,0.119503551324));
#168 = CARTESIAN_POINT('',(-0.387341957942,8.172083618031E-02));
#169 = CARTESIAN_POINT('',(-0.394151600697,0.115727853145));
#170 = CARTESIAN_POINT('',(-0.40521650737,0.142747480456));
#171 = CARTESIAN_POINT('',(-0.480579875118,0.11655240931));
#172 = CARTESIAN_POINT('',(-0.732626069096,9.138038362106E-02));
#173 = CARTESIAN_POINT('',(-1.066565148932,0.133810845709));
#174 = CARTESIAN_POINT('',(-1.600678543422,0.11778204756));
#175 = CARTESIAN_POINT('',(-1.604609959968,0.138665625531));
#176 = CARTESIAN_POINT('',(-1.83698228045,4.723969822891E-02));
#177 = CARTESIAN_POINT('',(-1.866532170362,9.706734078795E-02));
#178 = CARTESIAN_POINT('',(-1.947359397508,0.147610644591));
#179 = CARTESIAN_POINT('',(-2.304411334433,9.628060948152E-02));
#180 = CARTESIAN_POINT('',(-2.539233661594,0.15776645215));
#181 = CARTESIAN_POINT('',(-2.926823038862,4.610001543382E-02));
#182 = ( GEOMETRIC_REPRESENTATION_CONTEXT(2) 
PARAMETRIC_REPRESENTATION_CONTEXT() REPRESENTATION_CONTEXT('2D SPACE',''
  ) );
#183 = ORIENTED_EDGE('',*,*,#184,.T.);
#184 = EDGE_CURVE('',#115,#22,#185,.T.);
#185 = SURFACE_CURVE('',#186,(#190),.PCURVE_S1.);
#186 = LINE('',#187,#188);
#187 = CARTESIAN_POINT('',(0.,0.146100015434,0.));
#188 = VECTOR('',#189,1.);
#189 = DIRECTION('',(0.,-1.,0.));
#190 = PCURVE('',#59,#191);
#191 = DEFINITIONAL_REPRESENTATION('',(#192),#196);
#192 = LINE('',#193,#194);
#193 = CARTESIAN_POINT('',(-2.926823038862,4.610001543382E-02));
#194 = VECTOR('',#195,1.);
#195 = DIRECTION('',(0.,-1.));
#196 = ( GEOMETRIC_REPRESENTATION_CONTEXT(2) 
PARAMETRIC_REPRESENTATION_CONTEXT() REPRESENTATION_CONTEXT('2D SPACE',''
  ) );
#197 = ( GEOMETRIC_REPRESENTATION_CONTEXT(3) 
GLOBAL_UNCERTAINTY_ASSIGNED_CONTEXT((#201)) GLOBAL_UNIT_ASSIGNED_CONTEXT
((#198,#199,#200)) REPRESENTATION_CONTEXT('Context #1',
  '3D Context with UNIT and UNCERTAINTY') );
#198 = ( LENGTH_UNIT() NAMED_UNIT(*) SI_UNIT(.MILLI.,.METRE.) );
#199 = ( NAMED_UNIT(*) PLANE_ANGLE_UNIT() SI_UNIT($,.RADIAN.) );
#200 = ( NAMED_UNIT(*) SI_UNIT($,.STERADIAN.) SOLID_ANGLE_UNIT() );
#201 = UNCERTAINTY_MEASURE_WITH_UNIT(LENGTH_MEASURE(1.E-07),#198,
  'distance_accuracy_value','confusion accuracy');
#202 = PRODUCT_RELATED_PRODUCT_CATEGORY('part',$,(#7));
ENDSEC;
END-ISO-10303-21;
