ISO-10303-21;
HEADER;
FILE_DESCRIPTION(('Open CASCADE Model'),'2;1');
FILE_NAME('Open CASCADE Shape Model','2026-05-28T17:04:49',('Author'),(
    'Open CASCADE'),'Open CASCADE STEP processor 7.9','Open CASCADE 7.9'
  ,'Unknown');
FILE_SCHEMA(('AUTOMOTIVE_DESIGN { 1 0 10303 214 1 1 1 1 }'));
ENDSEC;
DATA;
#1 = APPLICATION_PROTOCOL_DEFINITION('international standard',
  'automotive_design',2000,#2);
#2 = APPLICATION_CONTEXT(
  'core data for automotive mechanical design processes');
#3 = SHAPE_DEFINITION_REPRESENTATION(#4,#10);
#4 = PRODUCT_DEFINITION_SHAPE('','',#5);
#5 = PRODUCT_DEFINITION('design','',#6,#9);
#6 = PRODUCT_DEFINITION_FORMATION('','',#7);
#7 = PRODUCT('Open CASCADE STEP translator 7.9 39',
  'Open CASCADE STEP translator 7.9 39','',(#8));
#8 = PRODUCT_CONTEXT('',#2,'mechanical');
#9 = PRODUCT_DEFINITION_CONTEXT('part definition',#2,'design');
#10 = MANIFOLD_SURFACE_SHAPE_REPRESENTATION('',(#11,#15),#269);
#11 = AXIS2_PLACEMENT_3D('',#12,#13,#14);
#12 = CARTESIAN_POINT('',(0.,0.,0.));
#13 = DIRECTION('',(0.,0.,1.));
#14 = DIRECTION('',(1.,0.,-0.));
#15 = SHELL_BASED_SURFACE_MODEL('',(#16));
#16 = OPEN_SHELL('',(#17));
#17 = ADVANCED_FACE('',(#18),#77,.T.);
#18 = FACE_BOUND('',#19,.T.);
#19 = EDGE_LOOP('',(#20,#133,#149,#255));
#20 = ORIENTED_EDGE('',*,*,#21,.T.);
#21 = EDGE_CURVE('',#22,#24,#26,.T.);
#22 = VERTEX_POINT('',#23);
#23 = CARTESIAN_POINT('',(0.,4.994845060618E-03,0.));
#24 = VERTEX_POINT('',#25);
#25 = CARTESIAN_POINT('',(9.4,-4.777440966013E-02,0.));
#26 = SURFACE_CURVE('',#27,(#76),.PCURVE_S1.);
#27 = B_SPLINE_CURVE_WITH_KNOTS('',1,(#28,#29,#30,#31,#32,#33,#34,#35,
    #36,#37,#38,#39,#40,#41,#42,#43,#44,#45,#46,#47,#48,#49,#50,#51,#52,
    #53,#54,#55,#56,#57,#58,#59,#60,#61,#62,#63,#64,#65,#66,#67,#68,#69,
    #70,#71,#72,#73,#74,#75),.UNSPECIFIED.,.F.,.F.,(2,1,1,1,1,1,1,1,1,1,
    1,1,1,1,1,1,1,1,1,1,1,1,1,1,1,1,1,1,1,1,1,1,1,1,1,1,1,1,1,1,1,1,1,1,
    1,1,1,2),(0.,3.748451673482E-02,5.7504842436E-02,6.315039865036E-02,
    7.304852860693E-02,9.902196500437E-02,0.11840871644,0.140044409828,
    0.191580212188,0.198223601171,0.252366578765,0.253973751614,
    0.261037172113,0.29614032492,0.314428025628,0.321113633356,
    0.340868129892,0.347512498358,0.357314025863,0.370286971761,
    0.372207059727,0.382791790682,0.391922732963,0.394460747512,
    0.423067765766,0.435584635508,0.459053872854,0.525837848078,
    0.540001962342,0.544508732913,0.592875105515,0.630926824956,
    0.656643924949,0.660233723732,0.702251936688,0.712984723782,
    0.754515713383,0.778632538168,0.799752147558,0.879108506149,
    0.900625805356,0.911596746885,0.930655118163,0.947862509668,
    0.95117417678,0.966916610089,0.986719243325,1.),.UNSPECIFIED.);
#28 = CARTESIAN_POINT('',(0.,4.994845060618E-03,0.));
#29 = CARTESIAN_POINT('',(0.364262516367,4.886574550479E-02,0.));
#30 = CARTESIAN_POINT('',(0.551955607511,-7.441100965544E-03,0.));
#31 = CARTESIAN_POINT('',(0.56992897658,4.481234494512E-02,0.));
#32 = CARTESIAN_POINT('',(0.631263370709,-3.018234723353E-02,0.));
#33 = CARTESIAN_POINT('',(0.883799300387,-9.212396954133E-04,0.));
#34 = CARTESIAN_POINT('',(1.071780398545,-2.681176420527E-02,0.));
#35 = CARTESIAN_POINT('',(1.282823208018,-4.432341922542E-02,0.));
#36 = CARTESIAN_POINT('',(1.78642503002,-1.547376205953E-02,0.));
#37 = CARTESIAN_POINT('',(1.851419700628,-1.349271951038E-02,0.));
#38 = CARTESIAN_POINT('',(2.381091446633,-3.054843545276E-02,0.));
#39 = CARTESIAN_POINT('',(2.392763557496,-4.109460017432E-02,0.));
#40 = CARTESIAN_POINT('',(2.461825920909,-4.428645435324E-02,0.));
#41 = CARTESIAN_POINT('',(2.79056376377,5.562837651805E-02,0.));
#42 = CARTESIAN_POINT('',(2.958344006174,-6.742835615735E-03,0.));
#43 = CARTESIAN_POINT('',(3.009513107593,3.404768282429E-02,0.));
#44 = CARTESIAN_POINT('',(3.186749061189,-4.324150689381E-02,0.));
#45 = CARTESIAN_POINT('',(3.246603895793,-1.78077222244E-02,0.));
#46 = CARTESIAN_POINT('',(3.338549937742,9.573302516107E-03,0.));
#47 = CARTESIAN_POINT('',(3.46243514354,3.742749262544E-02,0.));
#48 = CARTESIAN_POINT('',(3.467456778932,1.931716488962E-02,0.));
#49 = CARTESIAN_POINT('',(3.561358789671,-2.445332334483E-02,0.));
#50 = CARTESIAN_POINT('',(3.627660139754,3.54768545746E-02,0.));
#51 = CARTESIAN_POINT('',(3.648646045034,4.87700465594E-02,0.));
#52 = CARTESIAN_POINT('',(3.911919792633,-4.656345098731E-02,0.));
#53 = CARTESIAN_POINT('',(4.033529391811,-3.170524194961E-02,0.));
#54 = CARTESIAN_POINT('',(4.253032207447,3.602460832102E-02,0.));
#55 = CARTESIAN_POINT('',(4.90661307271,2.49226147884E-02,0.));
#56 = CARTESIAN_POINT('',(5.01871294759,-5.664842125571E-02,0.));
#57 = CARTESIAN_POINT('',(5.049422894272,-2.498213841109E-02,0.));
#58 = CARTESIAN_POINT('',(5.522683230025,-1.326264050566E-02,0.));
#59 = CARTESIAN_POINT('',(5.893352000063,2.30845817491E-02,0.));
#60 = CARTESIAN_POINT('',(6.145066442223,2.410498270002E-02,0.));
#61 = CARTESIAN_POINT('',(6.161318291568,5.525716575717E-02,0.));
#62 = CARTESIAN_POINT('',(6.564193033965,-2.741782402823E-02,0.));
#63 = CARTESIAN_POINT('',(6.62956064909,5.481897299317E-02,0.));
#64 = CARTESIAN_POINT('',(7.036035988795,5.941711946673E-02,0.));
#65 = CARTESIAN_POINT('',(7.255489083933,-2.753941054332E-02,0.));
#66 = CARTESIAN_POINT('',(7.46052266801,-5.38648508579E-02,0.));
#67 = CARTESIAN_POINT('',(8.236911990443,-3.078036572728E-02,0.));
#68 = CARTESIAN_POINT('',(8.44472860903,3.403177125075E-03,0.));
#69 = CARTESIAN_POINT('',(8.552097219265,1.674570052695E-03,0.));
#70 = CARTESIAN_POINT('',(8.738542564608,7.663629282107E-03,0.));
#71 = CARTESIAN_POINT('',(8.906434623421,2.104275994676E-02,0.));
#72 = CARTESIAN_POINT('',(8.928602971209,-2.605705702301E-03,0.));
#73 = CARTESIAN_POINT('',(9.082304678461,8.261885143066E-03,0.));
#74 = CARTESIAN_POINT('',(9.275091977013,-1.178014560489E-02,0.));
#75 = CARTESIAN_POINT('',(9.4,-4.777440966013E-02,0.));
#76 = PCURVE('',#77,#82);
#77 = PLANE('',#78);
#78 = AXIS2_PLACEMENT_3D('',#79,#80,#81);
#79 = CARTESIAN_POINT('',(4.693578183697,0.1,0.));
#80 = DIRECTION('',(0.,0.,1.));
#81 = DIRECTION('',(1.,0.,-0.));
#82 = DEFINITIONAL_REPRESENTATION('',(#83),#132);
#83 = B_SPLINE_CURVE_WITH_KNOTS('',1,(#84,#85,#86,#87,#88,#89,#90,#91,
    #92,#93,#94,#95,#96,#97,#98,#99,#100,#101,#102,#103,#104,#105,#106,
    #107,#108,#109,#110,#111,#112,#113,#114,#115,#116,#117,#118,#119,
    #120,#121,#122,#123,#124,#125,#126,#127,#128,#129,#130,#131),
  .UNSPECIFIED.,.F.,.F.,(2,1,1,1,1,1,1,1,1,1,1,1,1,1,1,1,1,1,1,1,1,1,1,1
    ,1,1,1,1,1,1,1,1,1,1,1,1,1,1,1,1,1,1,1,1,1,1,1,2),(0.,
    3.748451673482E-02,5.7504842436E-02,6.315039865036E-02,
    7.304852860693E-02,9.902196500437E-02,0.11840871644,0.140044409828,
    0.191580212188,0.198223601171,0.252366578765,0.253973751614,
    0.261037172113,0.29614032492,0.314428025628,0.321113633356,
    0.340868129892,0.347512498358,0.357314025863,0.370286971761,
    0.372207059727,0.382791790682,0.391922732963,0.394460747512,
    0.423067765766,0.435584635508,0.459053872854,0.525837848078,
    0.540001962342,0.544508732913,0.592875105515,0.630926824956,
    0.656643924949,0.660233723732,0.702251936688,0.712984723782,
    0.754515713383,0.778632538168,0.799752147558,0.879108506149,
    0.900625805356,0.911596746885,0.930655118163,0.947862509668,
    0.95117417678,0.966916610089,0.986719243325,1.),.UNSPECIFIED.);
#84 = CARTESIAN_POINT('',(-4.693578183697,-9.500515493938E-02));
#85 = CARTESIAN_POINT('',(-4.32931566733,-5.113425449521E-02));
#86 = CARTESIAN_POINT('',(-4.141622576186,-0.107441100966));
#87 = CARTESIAN_POINT('',(-4.123649207117,-5.518765505488E-02));
#88 = CARTESIAN_POINT('',(-4.062314812988,-0.130182347234));
#89 = CARTESIAN_POINT('',(-3.80977888331,-0.100921239695));
#90 = CARTESIAN_POINT('',(-3.621797785152,-0.126811764205));
#91 = CARTESIAN_POINT('',(-3.410754975679,-0.144323419225));
#92 = CARTESIAN_POINT('',(-2.907153153677,-0.11547376206));
#93 = CARTESIAN_POINT('',(-2.842158483069,-0.11349271951));
#94 = CARTESIAN_POINT('',(-2.312486737064,-0.130548435453));
#95 = CARTESIAN_POINT('',(-2.300814626201,-0.141094600174));
#96 = CARTESIAN_POINT('',(-2.231752262789,-0.144286454353));
#97 = CARTESIAN_POINT('',(-1.903014419927,-4.437162348195E-02));
#98 = CARTESIAN_POINT('',(-1.735234177523,-0.106742835616));
#99 = CARTESIAN_POINT('',(-1.684065076104,-6.595231717571E-02));
#100 = CARTESIAN_POINT('',(-1.506829122508,-0.143241506894));
#101 = CARTESIAN_POINT('',(-1.446974287904,-0.117807722224));
#102 = CARTESIAN_POINT('',(-1.355028245955,-9.042669748389E-02));
#103 = CARTESIAN_POINT('',(-1.231143040157,-6.257250737456E-02));
#104 = CARTESIAN_POINT('',(-1.226121404765,-8.068283511038E-02));
#105 = CARTESIAN_POINT('',(-1.132219394026,-0.124453323345));
#106 = CARTESIAN_POINT('',(-1.065918043943,-6.45231454254E-02));
#107 = CARTESIAN_POINT('',(-1.044932138663,-5.12299534406E-02));
#108 = CARTESIAN_POINT('',(-0.781658391064,-0.146563450987));
#109 = CARTESIAN_POINT('',(-0.660048791886,-0.13170524195));
#110 = CARTESIAN_POINT('',(-0.44054597625,-6.397539167898E-02));
#111 = CARTESIAN_POINT('',(0.213034889013,-7.50773852116E-02));
#112 = CARTESIAN_POINT('',(0.325134763893,-0.156648421256));
#113 = CARTESIAN_POINT('',(0.355844710575,-0.124982138411));
#114 = CARTESIAN_POINT('',(0.829105046328,-0.113262640506));
#115 = CARTESIAN_POINT('',(1.199773816366,-7.69154182509E-02));
#116 = CARTESIAN_POINT('',(1.451488258526,-7.589501729998E-02));
#117 = CARTESIAN_POINT('',(1.467740107871,-4.474283424283E-02));
#118 = CARTESIAN_POINT('',(1.870614850268,-0.127417824028));
#119 = CARTESIAN_POINT('',(1.935982465393,-4.518102700683E-02));
#120 = CARTESIAN_POINT('',(2.342457805098,-4.058288053327E-02));
#121 = CARTESIAN_POINT('',(2.561910900236,-0.127539410543));
#122 = CARTESIAN_POINT('',(2.766944484313,-0.153864850858));
#123 = CARTESIAN_POINT('',(3.543333806745,-0.130780365727));
#124 = CARTESIAN_POINT('',(3.751150425333,-9.659682287493E-02));
#125 = CARTESIAN_POINT('',(3.858519035568,-9.83254299473E-02));
#126 = CARTESIAN_POINT('',(4.044964380911,-9.233637071789E-02));
#127 = CARTESIAN_POINT('',(4.212856439724,-7.895724005324E-02));
#128 = CARTESIAN_POINT('',(4.235024787512,-0.102605705702));
#129 = CARTESIAN_POINT('',(4.388726494764,-9.173811485693E-02));
#130 = CARTESIAN_POINT('',(4.581513793316,-0.111780145605));
#131 = CARTESIAN_POINT('',(4.706421816303,-0.14777440966));
#132 = ( GEOMETRIC_REPRESENTATION_CONTEXT(2) 
PARAMETRIC_REPRESENTATION_CONTEXT() REPRESENTATION_CONTEXT('2D SPACE',''
  ) );
#133 = ORIENTED_EDGE('',*,*,#134,.T.);
#134 = EDGE_CURVE('',#24,#135,#137,.T.);
#135 = VERTEX_POINT('',#136);
#136 = CARTESIAN_POINT('',(9.4,0.24777440966,0.));
#137 = SURFACE_CURVE('',#138,(#142),.PCURVE_S1.);
#138 = LINE('',#139,#140);
#139 = CARTESIAN_POINT('',(9.4,-4.777440966013E-02,0.));
#140 = VECTOR('',#141,1.);
#141 = DIRECTION('',(0.,1.,0.));
#142 = PCURVE('',#77,#143);
#143 = DEFINITIONAL_REPRESENTATION('',(#144),#148);
#144 = LINE('',#145,#146);
#145 = CARTESIAN_POINT('',(4.706421816303,-0.14777440966));
#146 = VECTOR('',#147,1.);
#147 = DIRECTION('',(0.,1.));
#148 = ( GEOMETRIC_REPRESENTATION_CONTEXT(2) 
PARAMETRIC_REPRESENTATION_CONTEXT() REPRESENTATION_CONTEXT('2D SPACE',''
  ) );
#149 = ORIENTED_EDGE('',*,*,#150,.T.);
#150 = EDGE_CURVE('',#135,#151,#153,.T.);
#151 = VERTEX_POINT('',#152);
#152 = CARTESIAN_POINT('',(0.,0.195005154939,0.));
#153 = SURFACE_CURVE('',#154,(#203),.PCURVE_S1.);
#154 = B_SPLINE_CURVE_WITH_KNOTS('',1,(#155,#156,#157,#158,#159,#160,
    #161,#162,#163,#164,#165,#166,#167,#168,#169,#170,#171,#172,#173,
    #174,#175,#176,#177,#178,#179,#180,#181,#182,#183,#184,#185,#186,
    #187,#188,#189,#190,#191,#192,#193,#194,#195,#196,#197,#198,#199,
    #200,#201,#202),.UNSPECIFIED.,.F.,.F.,(2,1,1,1,1,1,1,1,1,1,1,1,1,1,1
    ,1,1,1,1,1,1,1,1,1,1,1,1,1,1,1,1,1,1,1,1,1,1,1,1,1,1,1,1,1,1,1,1,2),
  (0.,1.328075667495E-02,3.30833899113E-02,4.882582321976E-02,
    5.213749033227E-02,6.934488183735E-02,8.840325311534E-02,
    9.937419464376E-02,0.120891493851,0.200247852442,0.221367461832,
    0.245484286617,0.287015276218,0.297748063312,0.339766276268,
    0.343356075051,0.369073175044,0.407124894485,0.455491267087,
    0.459998037658,0.474162151922,0.540946127146,0.564415364492,
    0.576932234234,0.605539252488,0.608077267037,0.617208209318,
    0.627792940273,0.629713028239,0.642685974137,0.652487501642,
    0.659131870108,0.678886366644,0.685571974372,0.70385967508,
    0.738962827887,0.746026248386,0.747633421235,0.801776398829,
    0.808419787812,0.859955590172,0.88159128356,0.900978034996,
    0.926951471393,0.93684960135,0.942495157564,0.962515483265,1.),
  .UNSPECIFIED.);
#155 = CARTESIAN_POINT('',(9.4,0.24777440966,0.));
#156 = CARTESIAN_POINT('',(9.275091977013,0.211780145605,0.));
#157 = CARTESIAN_POINT('',(9.082304678461,0.191738114857,0.));
#158 = CARTESIAN_POINT('',(8.928602971209,0.202605705702,0.));
#159 = CARTESIAN_POINT('',(8.906434623421,0.178957240053,0.));
#160 = CARTESIAN_POINT('',(8.738542564608,0.192336370718,0.));
#161 = CARTESIAN_POINT('',(8.552097219265,0.198325429947,0.));
#162 = CARTESIAN_POINT('',(8.44472860903,0.196596822875,0.));
#163 = CARTESIAN_POINT('',(8.236911990443,0.230780365727,0.));
#164 = CARTESIAN_POINT('',(7.46052266801,0.253864850858,0.));
#165 = CARTESIAN_POINT('',(7.255489083933,0.227539410543,0.));
#166 = CARTESIAN_POINT('',(7.036035988795,0.140582880533,0.));
#167 = CARTESIAN_POINT('',(6.62956064909,0.145181027007,0.));
#168 = CARTESIAN_POINT('',(6.564193033965,0.227417824028,0.));
#169 = CARTESIAN_POINT('',(6.161318291568,0.144742834243,0.));
#170 = CARTESIAN_POINT('',(6.145066442223,0.1758950173,0.));
#171 = CARTESIAN_POINT('',(5.893352000063,0.176915418251,0.));
#172 = CARTESIAN_POINT('',(5.522683230025,0.213262640506,0.));
#173 = CARTESIAN_POINT('',(5.049422894272,0.224982138411,0.));
#174 = CARTESIAN_POINT('',(5.01871294759,0.256648421256,0.));
#175 = CARTESIAN_POINT('',(4.90661307271,0.175077385212,0.));
#176 = CARTESIAN_POINT('',(4.253032207447,0.163975391679,0.));
#177 = CARTESIAN_POINT('',(4.033529391811,0.23170524195,0.));
#178 = CARTESIAN_POINT('',(3.911919792633,0.246563450987,0.));
#179 = CARTESIAN_POINT('',(3.648646045034,0.151229953441,0.));
#180 = CARTESIAN_POINT('',(3.627660139754,0.164523145425,0.));
#181 = CARTESIAN_POINT('',(3.561358789671,0.224453323345,0.));
#182 = CARTESIAN_POINT('',(3.467456778932,0.18068283511,0.));
#183 = CARTESIAN_POINT('',(3.46243514354,0.162572507375,0.));
#184 = CARTESIAN_POINT('',(3.338549937742,0.190426697484,0.));
#185 = CARTESIAN_POINT('',(3.246603895793,0.217807722224,0.));
#186 = CARTESIAN_POINT('',(3.186749061189,0.243241506894,0.));
#187 = CARTESIAN_POINT('',(3.009513107593,0.165952317176,0.));
#188 = CARTESIAN_POINT('',(2.958344006174,0.206742835616,0.));
#189 = CARTESIAN_POINT('',(2.79056376377,0.144371623482,0.));
#190 = CARTESIAN_POINT('',(2.461825920909,0.244286454353,0.));
#191 = CARTESIAN_POINT('',(2.392763557496,0.241094600174,0.));
#192 = CARTESIAN_POINT('',(2.381091446633,0.230548435453,0.));
#193 = CARTESIAN_POINT('',(1.851419700628,0.21349271951,0.));
#194 = CARTESIAN_POINT('',(1.78642503002,0.21547376206,0.));
#195 = CARTESIAN_POINT('',(1.282823208018,0.244323419225,0.));
#196 = CARTESIAN_POINT('',(1.071780398545,0.226811764205,0.));
#197 = CARTESIAN_POINT('',(0.883799300387,0.200921239695,0.));
#198 = CARTESIAN_POINT('',(0.631263370709,0.230182347234,0.));
#199 = CARTESIAN_POINT('',(0.56992897658,0.155187655055,0.));
#200 = CARTESIAN_POINT('',(0.551955607511,0.207441100966,0.));
#201 = CARTESIAN_POINT('',(0.364262516367,0.151134254495,0.));
#202 = CARTESIAN_POINT('',(0.,0.195005154939,0.));
#203 = PCURVE('',#77,#204);
#204 = DEFINITIONAL_REPRESENTATION('',(#205),#254);
#205 = B_SPLINE_CURVE_WITH_KNOTS('',1,(#206,#207,#208,#209,#210,#211,
    #212,#213,#214,#215,#216,#217,#218,#219,#220,#221,#222,#223,#224,
    #225,#226,#227,#228,#229,#230,#231,#232,#233,#234,#235,#236,#237,
    #238,#239,#240,#241,#242,#243,#244,#245,#246,#247,#248,#249,#250,
    #251,#252,#253),.UNSPECIFIED.,.F.,.F.,(2,1,1,1,1,1,1,1,1,1,1,1,1,1,1
    ,1,1,1,1,1,1,1,1,1,1,1,1,1,1,1,1,1,1,1,1,1,1,1,1,1,1,1,1,1,1,1,1,2),
  (0.,1.328075667495E-02,3.30833899113E-02,4.882582321976E-02,
    5.213749033227E-02,6.934488183735E-02,8.840325311534E-02,
    9.937419464376E-02,0.120891493851,0.200247852442,0.221367461832,
    0.245484286617,0.287015276218,0.297748063312,0.339766276268,
    0.343356075051,0.369073175044,0.407124894485,0.455491267087,
    0.459998037658,0.474162151922,0.540946127146,0.564415364492,
    0.576932234234,0.605539252488,0.608077267037,0.617208209318,
    0.627792940273,0.629713028239,0.642685974137,0.652487501642,
    0.659131870108,0.678886366644,0.685571974372,0.70385967508,
    0.738962827887,0.746026248386,0.747633421235,0.801776398829,
    0.808419787812,0.859955590172,0.88159128356,0.900978034996,
    0.926951471393,0.93684960135,0.942495157564,0.962515483265,1.),
  .UNSPECIFIED.);
#206 = CARTESIAN_POINT('',(4.706421816303,0.14777440966));
#207 = CARTESIAN_POINT('',(4.581513793316,0.111780145605));
#208 = CARTESIAN_POINT('',(4.388726494764,9.173811485693E-02));
#209 = CARTESIAN_POINT('',(4.235024787512,0.102605705702));
#210 = CARTESIAN_POINT('',(4.212856439724,7.895724005324E-02));
#211 = CARTESIAN_POINT('',(4.044964380911,9.233637071789E-02));
#212 = CARTESIAN_POINT('',(3.858519035568,9.83254299473E-02));
#213 = CARTESIAN_POINT('',(3.751150425333,9.659682287493E-02));
#214 = CARTESIAN_POINT('',(3.543333806745,0.130780365727));
#215 = CARTESIAN_POINT('',(2.766944484313,0.153864850858));
#216 = CARTESIAN_POINT('',(2.561910900236,0.127539410543));
#217 = CARTESIAN_POINT('',(2.342457805098,4.058288053327E-02));
#218 = CARTESIAN_POINT('',(1.935982465393,4.518102700683E-02));
#219 = CARTESIAN_POINT('',(1.870614850268,0.127417824028));
#220 = CARTESIAN_POINT('',(1.467740107871,4.474283424283E-02));
#221 = CARTESIAN_POINT('',(1.451488258526,7.589501729998E-02));
#222 = CARTESIAN_POINT('',(1.199773816366,7.69154182509E-02));
#223 = CARTESIAN_POINT('',(0.829105046328,0.113262640506));
#224 = CARTESIAN_POINT('',(0.355844710575,0.124982138411));
#225 = CARTESIAN_POINT('',(0.325134763893,0.156648421256));
#226 = CARTESIAN_POINT('',(0.213034889013,7.50773852116E-02));
#227 = CARTESIAN_POINT('',(-0.44054597625,6.397539167898E-02));
#228 = CARTESIAN_POINT('',(-0.660048791886,0.13170524195));
#229 = CARTESIAN_POINT('',(-0.781658391064,0.146563450987));
#230 = CARTESIAN_POINT('',(-1.044932138663,5.12299534406E-02));
#231 = CARTESIAN_POINT('',(-1.065918043943,6.45231454254E-02));
#232 = CARTESIAN_POINT('',(-1.132219394026,0.124453323345));
#233 = CARTESIAN_POINT('',(-1.226121404765,8.068283511038E-02));
#234 = CARTESIAN_POINT('',(-1.231143040157,6.257250737456E-02));
#235 = CARTESIAN_POINT('',(-1.355028245955,9.042669748389E-02));
#236 = CARTESIAN_POINT('',(-1.446974287904,0.117807722224));
#237 = CARTESIAN_POINT('',(-1.506829122508,0.143241506894));
#238 = CARTESIAN_POINT('',(-1.684065076104,6.595231717571E-02));
#239 = CARTESIAN_POINT('',(-1.735234177523,0.106742835616));
#240 = CARTESIAN_POINT('',(-1.903014419927,4.437162348195E-02));
#241 = CARTESIAN_POINT('',(-2.231752262789,0.144286454353));
#242 = CARTESIAN_POINT('',(-2.300814626201,0.141094600174));
#243 = CARTESIAN_POINT('',(-2.312486737064,0.130548435453));
#244 = CARTESIAN_POINT('',(-2.842158483069,0.11349271951));
#245 = CARTESIAN_POINT('',(-2.907153153677,0.11547376206));
#246 = CARTESIAN_POINT('',(-3.410754975679,0.144323419225));
#247 = CARTESIAN_POINT('',(-3.621797785152,0.126811764205));
#248 = CARTESIAN_POINT('',(-3.80977888331,0.100921239695));
#249 = CARTESIAN_POINT('',(-4.062314812988,0.130182347234));
#250 = CARTESIAN_POINT('',(-4.123649207117,5.518765505488E-02));
#251 = CARTESIAN_POINT('',(-4.141622576186,0.107441100966));
#252 = CARTESIAN_POINT('',(-4.32931566733,5.113425449521E-02));
#253 = CARTESIAN_POINT('',(-4.693578183697,9.500515493938E-02));
#254 = ( GEOMETRIC_REPRESENTATION_CONTEXT(2) 
PARAMETRIC_REPRESENTATION_CONTEXT() REPRESENTATION_CONTEXT('2D SPACE',''
  ) );
#255 = ORIENTED_EDGE('',*,*,#256,.T.);
#256 = EDGE_CURVE('',#151,#22,#257,.T.);
#257 = SURFACE_CURVE('',#258,(#262),.PCURVE_S1.);
#258 = LINE('',#259,#260);
#259 = CARTESIAN_POINT('',(0.,0.195005154939,0.));
#260 = VECTOR('',#261,1.);
#261 = DIRECTION('',(0.,-1.,0.));
#262 = PCURVE('',#77,#263);
#263 = DEFINITIONAL_REPRESENTATION('',(#264),#268);
#264 = LINE('',#265,#266);
#265 = CARTESIAN_POINT('',(-4.693578183697,9.500515493938E-02));
#266 = VECTOR('',#267,1.);
#267 = DIRECTION('',(0.,-1.));
#268 = ( GEOMETRIC_REPRESENTATION_CONTEXT(2) 
PARAMETRIC_REPRESENTATION_CONTEXT() REPRESENTATION_CONTEXT('2D SPACE',''
  ) );
#269 = ( GEOMETRIC_REPRESENTATION_CONTEXT(3) 
GLOBAL_UNCERTAINTY_ASSIGNED_CONTEXT((#273)) GLOBAL_UNIT_ASSIGNED_CONTEXT
((#270,#271,#272)) REPRESENTATION_CONTEXT('Context #1',
  '3D Context with UNIT and UNCERTAINTY') );
#270 = ( LENGTH_UNIT() NAMED_UNIT(*) SI_UNIT(.MILLI.,.METRE.) );
#271 = ( NAMED_UNIT(*) PLANE_ANGLE_UNIT() SI_UNIT($,.RADIAN.) );
#272 = ( NAMED_UNIT(*) SI_UNIT($,.STERADIAN.) SOLID_ANGLE_UNIT() );
#273 = UNCERTAINTY_MEASURE_WITH_UNIT(LENGTH_MEASURE(1.E-07),#270,
  'distance_accuracy_value','confusion accuracy');
#274 = PRODUCT_RELATED_PRODUCT_CATEGORY('part',$,(#7));
ENDSEC;
END-ISO-10303-21;
