ISO-10303-21;
HEADER;
FILE_DESCRIPTION(('Open CASCADE Model'),'2;1');
FILE_NAME('Open CASCADE Shape Model','2026-05-28T17:04:49',('Author'),(
    'Open CASCADE'),'Open CASCADE STEP processor 7.9','Open CASCADE 7.9'
  ,'Unknown');
FILE_SCHEMA(('AUTOMOTIVE_DESIGN { 1 0 10303 214 1 1 1 1 }'));
ENDSEC;
DATA;
#1 = APPLICATION_PROTOCOL_DEFINITION('international standard',
  'automotive_design',2000,#2);
#2 = APPLICATION_CONTEXT(
  'core data for automotive mechanical design processes');
#3 = SHAPE_DEFINITION_REPRESENTATION(#4,#10);
#4 = PRODUCT_DEFINITION_SHAPE('','',#5);
#5 = PRODUCT_DEFINITION('design','',#6,#9);
#6 = PRODUCT_DEFINITION_FORMATION('','',#7);
#7 = PRODUCT('Open CASCADE STEP translator 7.9 68',
  'Open CASCADE STEP translator 7.9 68','',(#8));
#8 = PRODUCT_CONTEXT('',#2,'mechanical');
#9 = PRODUCT_DEFINITION_CONTEXT('part definition',#2,'design');
#10 = MANIFOLD_SURFACE_SHAPE_REPRESENTATION('',(#11,#15),#149);
#11 = AXIS2_PLACEMENT_3D('',#12,#13,#14);
#12 = CARTESIAN_POINT('',(0.,0.,0.));
#13 = DIRECTION('',(0.,0.,1.));
#14 = DIRECTION('',(1.,0.,-0.));
#15 = SHELL_BASED_SURFACE_MODEL('',(#16));
#16 = OPEN_SHELL('',(#17));
#17 = ADVANCED_FACE('',(#18),#47,.T.);
#18 = FACE_BOUND('',#19,.T.);
#19 = EDGE_LOOP('',(#20,#73,#89,#135));
#20 = ORIENTED_EDGE('',*,*,#21,.T.);
#21 = EDGE_CURVE('',#22,#24,#26,.T.);
#22 = VERTEX_POINT('',#23);
#23 = CARTESIAN_POINT('',(0.,-3.5485034655E-02,0.));
#24 = VERTEX_POINT('',#25);
#25 = CARTESIAN_POINT('',(3.4,-4.892350842461E-02,0.));
#26 = SURFACE_CURVE('',#27,(#46),.PCURVE_S1.);
#27 = B_SPLINE_CURVE_WITH_KNOTS('',1,(#28,#29,#30,#31,#32,#33,#34,#35,
    #36,#37,#38,#39,#40,#41,#42,#43,#44,#45),.UNSPECIFIED.,.F.,.F.,(2,1,
    1,1,1,1,1,1,1,1,1,1,1,1,1,1,1,2),(0.,2.321948400082E-02,
    0.146637298558,0.364330115139,0.40533229887,0.45379400567,
    0.477117518015,0.486521558025,0.5082475012,0.51976921083,
    0.620572615152,0.697694960904,0.720188643882,0.783055543574,
    0.836749344293,0.885992364788,0.970141365135,1.),.UNSPECIFIED.);
#28 = CARTESIAN_POINT('',(0.,-3.5485034655E-02,0.));
#29 = CARTESIAN_POINT('',(6.925281052688E-02,1.314180122778E-02,0.));
#30 = CARTESIAN_POINT('',(0.518723055925,-3.476788429555E-03,0.));
#31 = CARTESIAN_POINT('',(1.309840007028,5.598197172035E-02,0.));
#32 = CARTESIAN_POINT('',(1.453259248885,1.404024693968E-02,0.));
#33 = CARTESIAN_POINT('',(1.629529499807,3.070074612883E-03,0.));
#34 = CARTESIAN_POINT('',(1.710355736414,2.937493204811E-02,0.));
#35 = CARTESIAN_POINT('',(1.731621064964,5.625108252112E-02,0.));
#36 = CARTESIAN_POINT('',(1.735108118057,-2.284897305347E-02,0.));
#37 = CARTESIAN_POINT('',(1.763819982935,7.789469898139E-03,0.));
#38 = CARTESIAN_POINT('',(2.131175202843,1.011861682653E-02,0.));
#39 = CARTESIAN_POINT('',(2.411531637884,3.000158951658E-02,0.));
#40 = CARTESIAN_POINT('',(2.485873881487,-4.539647879762E-03,0.));
#41 = CARTESIAN_POINT('',(2.71466944872,7.436786247512E-03,0.));
#42 = CARTESIAN_POINT('',(2.910300720592,3.121863236509E-03,0.));
#43 = CARTESIAN_POINT('',(3.089300426551,-9.704561812366E-03,0.));
#44 = CARTESIAN_POINT('',(3.388117882758,5.924104233123E-02,0.));
#45 = CARTESIAN_POINT('',(3.4,-4.892350842461E-02,0.));
#46 = PCURVE('',#47,#52);
#47 = PLANE('',#48);
#48 = AXIS2_PLACEMENT_3D('',#49,#50,#51);
#49 = CARTESIAN_POINT('',(1.745757939171,0.1,0.));
#50 = DIRECTION('',(0.,0.,1.));
#51 = DIRECTION('',(1.,0.,-0.));
#52 = DEFINITIONAL_REPRESENTATION('',(#53),#72);
#53 = B_SPLINE_CURVE_WITH_KNOTS('',1,(#54,#55,#56,#57,#58,#59,#60,#61,
    #62,#63,#64,#65,#66,#67,#68,#69,#70,#71),.UNSPECIFIED.,.F.,.F.,(2,1,
    1,1,1,1,1,1,1,1,1,1,1,1,1,1,1,2),(0.,2.321948400082E-02,
    0.146637298558,0.364330115139,0.40533229887,0.45379400567,
    0.477117518015,0.486521558025,0.5082475012,0.51976921083,
    0.620572615152,0.697694960904,0.720188643882,0.783055543574,
    0.836749344293,0.885992364788,0.970141365135,1.),.UNSPECIFIED.);
#54 = CARTESIAN_POINT('',(-1.745757939171,-0.135485034655));
#55 = CARTESIAN_POINT('',(-1.676505128644,-8.685819877222E-02));
#56 = CARTESIAN_POINT('',(-1.227034883246,-0.10347678843));
#57 = CARTESIAN_POINT('',(-0.435917932143,-4.401802827965E-02));
#58 = CARTESIAN_POINT('',(-0.292498690286,-8.595975306032E-02));
#59 = CARTESIAN_POINT('',(-0.116228439363,-9.692992538712E-02));
#60 = CARTESIAN_POINT('',(-3.540220275663E-02,-7.062506795189E-02));
#61 = CARTESIAN_POINT('',(-1.413687420634E-02,-4.374891747888E-02));
#62 = CARTESIAN_POINT('',(-1.064982111324E-02,-0.122848973053));
#63 = CARTESIAN_POINT('',(1.806204376472E-02,-9.221053010186E-02));
#64 = CARTESIAN_POINT('',(0.385417263672,-8.988138317347E-02));
#65 = CARTESIAN_POINT('',(0.665773698713,-6.999841048342E-02));
#66 = CARTESIAN_POINT('',(0.740115942317,-0.10453964788));
#67 = CARTESIAN_POINT('',(0.96891150955,-9.256321375249E-02));
#68 = CARTESIAN_POINT('',(1.164542781421,-9.687813676349E-02));
#69 = CARTESIAN_POINT('',(1.34354248738,-0.109704561812));
#70 = CARTESIAN_POINT('',(1.642359943587,-4.075895766877E-02));
#71 = CARTESIAN_POINT('',(1.654242060829,-0.148923508425));
#72 = ( GEOMETRIC_REPRESENTATION_CONTEXT(2) 
PARAMETRIC_REPRESENTATION_CONTEXT() REPRESENTATION_CONTEXT('2D SPACE',''
  ) );
#73 = ORIENTED_EDGE('',*,*,#74,.T.);
#74 = EDGE_CURVE('',#24,#75,#77,.T.);
#75 = VERTEX_POINT('',#76);
#76 = CARTESIAN_POINT('',(3.4,0.248923508425,0.));
#77 = SURFACE_CURVE('',#78,(#82),.PCURVE_S1.);
#78 = LINE('',#79,#80);
#79 = CARTESIAN_POINT('',(3.4,-4.892350842461E-02,0.));
#80 = VECTOR('',#81,1.);
#81 = DIRECTION('',(0.,1.,0.));
#82 = PCURVE('',#47,#83);
#83 = DEFINITIONAL_REPRESENTATION('',(#84),#88);
#84 = LINE('',#85,#86);
#85 = CARTESIAN_POINT('',(1.654242060829,-0.148923508425));
#86 = VECTOR('',#87,1.);
#87 = DIRECTION('',(0.,1.));
#88 = ( GEOMETRIC_REPRESENTATION_CONTEXT(2) 
PARAMETRIC_REPRESENTATION_CONTEXT() REPRESENTATION_CONTEXT('2D SPACE',''
  ) );
#89 = ORIENTED_EDGE('',*,*,#90,.T.);
#90 = EDGE_CURVE('',#75,#91,#93,.T.);
#91 = VERTEX_POINT('',#92);
#92 = CARTESIAN_POINT('',(0.,0.235485034655,0.));
#93 = SURFACE_CURVE('',#94,(#113),.PCURVE_S1.);
#94 = B_SPLINE_CURVE_WITH_KNOTS('',1,(#95,#96,#97,#98,#99,#100,#101,#102
    ,#103,#104,#105,#106,#107,#108,#109,#110,#111,#112),.UNSPECIFIED.,
  .F.,.F.,(2,1,1,1,1,1,1,1,1,1,1,1,1,1,1,1,1,2),(0.,2.985863486536E-02,
    0.114007635212,0.163250655707,0.216944456426,0.279811356118,
    0.302305039096,0.379427384848,0.48023078917,0.4917524988,
    0.513478441975,0.522882481985,0.54620599433,0.59466770113,
    0.635669884861,0.853362701442,0.976780515999,1.),.UNSPECIFIED.);
#95 = CARTESIAN_POINT('',(3.4,0.248923508425,0.));
#96 = CARTESIAN_POINT('',(3.388117882758,0.140758957669,0.));
#97 = CARTESIAN_POINT('',(3.089300426551,0.209704561812,0.));
#98 = CARTESIAN_POINT('',(2.910300720592,0.196878136763,0.));
#99 = CARTESIAN_POINT('',(2.71466944872,0.192563213752,0.));
#100 = CARTESIAN_POINT('',(2.485873881487,0.20453964788,0.));
#101 = CARTESIAN_POINT('',(2.411531637884,0.169998410483,0.));
#102 = CARTESIAN_POINT('',(2.131175202843,0.189881383173,0.));
#103 = CARTESIAN_POINT('',(1.763819982935,0.192210530102,0.));
#104 = CARTESIAN_POINT('',(1.735108118057,0.222848973053,0.));
#105 = CARTESIAN_POINT('',(1.731621064964,0.143748917479,0.));
#106 = CARTESIAN_POINT('',(1.710355736414,0.170625067952,0.));
#107 = CARTESIAN_POINT('',(1.629529499807,0.196929925387,0.));
#108 = CARTESIAN_POINT('',(1.453259248885,0.18595975306,0.));
#109 = CARTESIAN_POINT('',(1.309840007028,0.14401802828,0.));
#110 = CARTESIAN_POINT('',(0.518723055925,0.20347678843,0.));
#111 = CARTESIAN_POINT('',(6.925281052688E-02,0.186858198772,0.));
#112 = CARTESIAN_POINT('',(0.,0.235485034655,0.));
#113 = PCURVE('',#47,#114);
#114 = DEFINITIONAL_REPRESENTATION('',(#115),#134);
#115 = B_SPLINE_CURVE_WITH_KNOTS('',1,(#116,#117,#118,#119,#120,#121,
    #122,#123,#124,#125,#126,#127,#128,#129,#130,#131,#132,#133),
  .UNSPECIFIED.,.F.,.F.,(2,1,1,1,1,1,1,1,1,1,1,1,1,1,1,1,1,2),(0.,
    2.985863486536E-02,0.114007635212,0.163250655707,0.216944456426,
    0.279811356118,0.302305039096,0.379427384848,0.48023078917,
    0.4917524988,0.513478441975,0.522882481985,0.54620599433,
    0.59466770113,0.635669884861,0.853362701442,0.976780515999,1.),
  .UNSPECIFIED.);
#116 = CARTESIAN_POINT('',(1.654242060829,0.148923508425));
#117 = CARTESIAN_POINT('',(1.642359943587,4.075895766877E-02));
#118 = CARTESIAN_POINT('',(1.34354248738,0.109704561812));
#119 = CARTESIAN_POINT('',(1.164542781421,9.687813676349E-02));
#120 = CARTESIAN_POINT('',(0.96891150955,9.256321375249E-02));
#121 = CARTESIAN_POINT('',(0.740115942317,0.10453964788));
#122 = CARTESIAN_POINT('',(0.665773698713,6.999841048342E-02));
#123 = CARTESIAN_POINT('',(0.385417263672,8.988138317347E-02));
#124 = CARTESIAN_POINT('',(1.806204376472E-02,9.221053010186E-02));
#125 = CARTESIAN_POINT('',(-1.064982111324E-02,0.122848973053));
#126 = CARTESIAN_POINT('',(-1.413687420634E-02,4.374891747888E-02));
#127 = CARTESIAN_POINT('',(-3.540220275663E-02,7.062506795189E-02));
#128 = CARTESIAN_POINT('',(-0.116228439363,9.692992538712E-02));
#129 = CARTESIAN_POINT('',(-0.292498690286,8.595975306032E-02));
#130 = CARTESIAN_POINT('',(-0.435917932143,4.401802827965E-02));
#131 = CARTESIAN_POINT('',(-1.227034883246,0.10347678843));
#132 = CARTESIAN_POINT('',(-1.676505128644,8.685819877222E-02));
#133 = CARTESIAN_POINT('',(-1.745757939171,0.135485034655));
#134 = ( GEOMETRIC_REPRESENTATION_CONTEXT(2) 
PARAMETRIC_REPRESENTATION_CONTEXT() REPRESENTATION_CONTEXT('2D SPACE',''
  ) );
#135 = ORIENTED_EDGE('',*,*,#136,.T.);
#136 = EDGE_CURVE('',#91,#22,#137,.T.);
#137 = SURFACE_CURVE('',#138,(#142),.PCURVE_S1.);
#138 = LINE('',#139,#140);
#139 = CARTESIAN_POINT('',(0.,0.235485034655,0.));
#140 = VECTOR('',#141,1.);
#141 = DIRECTION('',(0.,-1.,0.));
#142 = PCURVE('',#47,#143);
#143 = DEFINITIONAL_REPRESENTATION('',(#144),#148);
#144 = LINE('',#145,#146);
#145 = CARTESIAN_POINT('',(-1.745757939171,0.135485034655));
#146 = VECTOR('',#147,1.);
#147 = DIRECTION('',(0.,-1.));
#148 = ( GEOMETRIC_REPRESENTATION_CONTEXT(2) 
PARAMETRIC_REPRESENTATION_CONTEXT() REPRESENTATION_CONTEXT('2D SPACE',''
  ) );
#149 = ( GEOMETRIC_REPRESENTATION_CONTEXT(3) 
GLOBAL_UNCERTAINTY_ASSIGNED_CONTEXT((#153)) GLOBAL_UNIT_ASSIGNED_CONTEXT
((#150,#151,#152)) REPRESENTATION_CONTEXT('Context #1',
  '3D Context with UNIT and UNCERTAINTY') );
#150 = ( LENGTH_UNIT() NAMED_UNIT(*) SI_UNIT(.MILLI.,.METRE.) );
#151 = ( NAMED_UNIT(*) PLANE_ANGLE_UNIT() SI_UNIT($,.RADIAN.) );
#152 = ( NAMED_UNIT(*) SI_UNIT($,.STERADIAN.) SOLID_ANGLE_UNIT() );
#153 = UNCERTAINTY_MEASURE_WITH_UNIT(LENGTH_MEASURE(1.E-07),#150,
  'distance_accuracy_value','confusion accuracy');
#154 = PRODUCT_RELATED_PRODUCT_CATEGORY('part',$,(#7));
ENDSEC;
END-ISO-10303-21;
