ISO-10303-21;
HEADER;
FILE_DESCRIPTION(('Open CASCADE Model'),'2;1');
FILE_NAME('Open CASCADE Shape Model','2026-05-29T14:30:30',('Author'),(
    'Open CASCADE'),'Open CASCADE STEP processor 7.9','Open CASCADE 7.9'
  ,'Unknown');
FILE_SCHEMA(('AUTOMOTIVE_DESIGN { 1 0 10303 214 1 1 1 1 }'));
ENDSEC;
DATA;
#1 = APPLICATION_PROTOCOL_DEFINITION('international standard',
  'automotive_design',2000,#2);
#2 = APPLICATION_CONTEXT(
  'core data for automotive mechanical design processes');
#3 = SHAPE_DEFINITION_REPRESENTATION(#4,#10);
#4 = PRODUCT_DEFINITION_SHAPE('','',#5);
#5 = PRODUCT_DEFINITION('design','',#6,#9);
#6 = PRODUCT_DEFINITION_FORMATION('','',#7);
#7 = PRODUCT('Open CASCADE STEP translator 7.9 22',
  'Open CASCADE STEP translator 7.9 22','',(#8));
#8 = PRODUCT_CONTEXT('',#2,'mechanical');
#9 = PRODUCT_DEFINITION_CONTEXT('part definition',#2,'design');
#10 = MANIFOLD_SURFACE_SHAPE_REPRESENTATION('',(#11,#15),#121);
#11 = AXIS2_PLACEMENT_3D('',#12,#13,#14);
#12 = CARTESIAN_POINT('',(0.,0.,0.));
#13 = DIRECTION('',(0.,0.,1.));
#14 = DIRECTION('',(1.,0.,-0.));
#15 = SHELL_BASED_SURFACE_MODEL('',(#16));
#16 = OPEN_SHELL('',(#17));
#17 = ADVANCED_FACE('',(#18),#40,.T.);
#18 = FACE_BOUND('',#19,.T.);
#19 = EDGE_LOOP('',(#20,#59,#75,#107));
#20 = ORIENTED_EDGE('',*,*,#21,.T.);
#21 = EDGE_CURVE('',#22,#24,#26,.T.);
#22 = VERTEX_POINT('',#23);
#23 = CARTESIAN_POINT('',(0.,3.729542178736,0.));
#24 = VERTEX_POINT('',#25);
#25 = CARTESIAN_POINT('',(1.5E+03,-39.65349687259,0.));
#26 = SURFACE_CURVE('',#27,(#39),.PCURVE_S1.);
#27 = B_SPLINE_CURVE_WITH_KNOTS('',1,(#28,#29,#30,#31,#32,#33,#34,#35,
    #36,#37,#38),.UNSPECIFIED.,.F.,.F.,(2,1,1,1,1,1,1,1,1,1,2),(0.,
    6.051790938589E-02,8.88219348784E-02,0.218847429586,0.257480317005,
    0.622231449956,0.703584249211,0.754070498528,0.790150062964,
    0.868049783337,1.),.UNSPECIFIED.);
#28 = CARTESIAN_POINT('',(0.,3.729542178736,0.));
#29 = CARTESIAN_POINT('',(88.894590015789,-25.56728535072,0.));
#30 = CARTESIAN_POINT('',(130.60366012866,-12.2767507897,0.));
#31 = CARTESIAN_POINT('',(331.62036354979,-6.517183496277,0.));
#32 = CARTESIAN_POINT('',(377.35063659048,31.938277080146,0.));
#33 = CARTESIAN_POINT('',(936.85577921436,-40.14220082022,0.));
#34 = CARTESIAN_POINT('',(1.048500449446E+03,17.879163073675,0.));
#35 = CARTESIAN_POINT('',(1.122506298247E+03,-7.021549422679,0.));
#36 = CARTESIAN_POINT('',(1.177220864573E+03,-17.97983501301,0.));
#37 = CARTESIAN_POINT('',(1.297615728168E+03,-13.43098397207,0.));
#38 = CARTESIAN_POINT('',(1.5E+03,-39.65349687259,0.));
#39 = PCURVE('',#40,#45);
#40 = PLANE('',#41);
#41 = AXIS2_PLACEMENT_3D('',#42,#43,#44);
#42 = CARTESIAN_POINT('',(766.31171210211,75.,0.));
#43 = DIRECTION('',(0.,0.,1.));
#44 = DIRECTION('',(1.,0.,-0.));
#45 = DEFINITIONAL_REPRESENTATION('',(#46),#58);
#46 = B_SPLINE_CURVE_WITH_KNOTS('',1,(#47,#48,#49,#50,#51,#52,#53,#54,
    #55,#56,#57),.UNSPECIFIED.,.F.,.F.,(2,1,1,1,1,1,1,1,1,1,2),(0.,
    6.051790938589E-02,8.88219348784E-02,0.218847429586,0.257480317005,
    0.622231449956,0.703584249211,0.754070498528,0.790150062964,
    0.868049783337,1.),.UNSPECIFIED.);
#47 = CARTESIAN_POINT('',(-766.3117121021,-71.27045782126));
#48 = CARTESIAN_POINT('',(-677.4171220863,-100.5672853507));
#49 = CARTESIAN_POINT('',(-635.7080519734,-87.2767507897));
#50 = CARTESIAN_POINT('',(-434.6913485523,-81.51718349627));
#51 = CARTESIAN_POINT('',(-388.9610755116,-43.06172291985));
#52 = CARTESIAN_POINT('',(170.54406711224,-115.1422008202));
#53 = CARTESIAN_POINT('',(282.18873734358,-57.12083692632));
#54 = CARTESIAN_POINT('',(356.19458614524,-82.02154942267));
#55 = CARTESIAN_POINT('',(410.90915247131,-92.97983501301));
#56 = CARTESIAN_POINT('',(531.30401606602,-88.43098397207));
#57 = CARTESIAN_POINT('',(733.68828789788,-114.6534968725));
#58 = ( GEOMETRIC_REPRESENTATION_CONTEXT(2) 
PARAMETRIC_REPRESENTATION_CONTEXT() REPRESENTATION_CONTEXT('2D SPACE',''
  ) );
#59 = ORIENTED_EDGE('',*,*,#60,.T.);
#60 = EDGE_CURVE('',#24,#61,#63,.T.);
#61 = VERTEX_POINT('',#62);
#62 = CARTESIAN_POINT('',(1.5E+03,189.65349687259,0.));
#63 = SURFACE_CURVE('',#64,(#68),.PCURVE_S1.);
#64 = LINE('',#65,#66);
#65 = CARTESIAN_POINT('',(1.5E+03,-39.65349687259,0.));
#66 = VECTOR('',#67,1.);
#67 = DIRECTION('',(0.,1.,0.));
#68 = PCURVE('',#40,#69);
#69 = DEFINITIONAL_REPRESENTATION('',(#70),#74);
#70 = LINE('',#71,#72);
#71 = CARTESIAN_POINT('',(733.68828789788,-114.6534968725));
#72 = VECTOR('',#73,1.);
#73 = DIRECTION('',(0.,1.));
#74 = ( GEOMETRIC_REPRESENTATION_CONTEXT(2) 
PARAMETRIC_REPRESENTATION_CONTEXT() REPRESENTATION_CONTEXT('2D SPACE',''
  ) );
#75 = ORIENTED_EDGE('',*,*,#76,.T.);
#76 = EDGE_CURVE('',#61,#77,#79,.T.);
#77 = VERTEX_POINT('',#78);
#78 = CARTESIAN_POINT('',(0.,146.27045782126,0.));
#79 = SURFACE_CURVE('',#80,(#92),.PCURVE_S1.);
#80 = B_SPLINE_CURVE_WITH_KNOTS('',1,(#81,#82,#83,#84,#85,#86,#87,#88,
    #89,#90,#91),.UNSPECIFIED.,.F.,.F.,(2,1,1,1,1,1,1,1,1,1,2),(0.,
    0.131950216663,0.209849937036,0.245929501472,0.296415750789,
    0.377768550044,0.742519682995,0.781152570414,0.911178065122,
    0.939482090614,1.),.UNSPECIFIED.);
#81 = CARTESIAN_POINT('',(1.5E+03,189.65349687259,0.));
#82 = CARTESIAN_POINT('',(1.297615728168E+03,163.43098397207,0.));
#83 = CARTESIAN_POINT('',(1.177220864573E+03,167.97983501301,0.));
#84 = CARTESIAN_POINT('',(1.122506298247E+03,157.02154942267,0.));
#85 = CARTESIAN_POINT('',(1.048500449446E+03,132.12083692632,0.));
#86 = CARTESIAN_POINT('',(936.85577921436,190.14220082022,0.));
#87 = CARTESIAN_POINT('',(377.35063659048,118.06172291985,0.));
#88 = CARTESIAN_POINT('',(331.62036354979,156.51718349627,0.));
#89 = CARTESIAN_POINT('',(130.60366012866,162.2767507897,0.));
#90 = CARTESIAN_POINT('',(88.894590015789,175.56728535072,0.));
#91 = CARTESIAN_POINT('',(0.,146.27045782126,0.));
#92 = PCURVE('',#40,#93);
#93 = DEFINITIONAL_REPRESENTATION('',(#94),#106);
#94 = B_SPLINE_CURVE_WITH_KNOTS('',1,(#95,#96,#97,#98,#99,#100,#101,#102
    ,#103,#104,#105),.UNSPECIFIED.,.F.,.F.,(2,1,1,1,1,1,1,1,1,1,2),(0.,
    0.131950216663,0.209849937036,0.245929501472,0.296415750789,
    0.377768550044,0.742519682995,0.781152570414,0.911178065122,
    0.939482090614,1.),.UNSPECIFIED.);
#95 = CARTESIAN_POINT('',(733.68828789788,114.65349687259));
#96 = CARTESIAN_POINT('',(531.30401606602,88.430983972078));
#97 = CARTESIAN_POINT('',(410.90915247131,92.979835013016));
#98 = CARTESIAN_POINT('',(356.19458614524,82.021549422679));
#99 = CARTESIAN_POINT('',(282.18873734358,57.120836926325));
#100 = CARTESIAN_POINT('',(170.54406711224,115.14220082022));
#101 = CARTESIAN_POINT('',(-388.9610755116,43.061722919854));
#102 = CARTESIAN_POINT('',(-434.6913485523,81.517183496277));
#103 = CARTESIAN_POINT('',(-635.7080519734,87.2767507897));
#104 = CARTESIAN_POINT('',(-677.4171220863,100.56728535072));
#105 = CARTESIAN_POINT('',(-766.3117121021,71.270457821264));
#106 = ( GEOMETRIC_REPRESENTATION_CONTEXT(2) 
PARAMETRIC_REPRESENTATION_CONTEXT() REPRESENTATION_CONTEXT('2D SPACE',''
  ) );
#107 = ORIENTED_EDGE('',*,*,#108,.T.);
#108 = EDGE_CURVE('',#77,#22,#109,.T.);
#109 = SURFACE_CURVE('',#110,(#114),.PCURVE_S1.);
#110 = LINE('',#111,#112);
#111 = CARTESIAN_POINT('',(0.,146.27045782126,0.));
#112 = VECTOR('',#113,1.);
#113 = DIRECTION('',(0.,-1.,0.));
#114 = PCURVE('',#40,#115);
#115 = DEFINITIONAL_REPRESENTATION('',(#116),#120);
#116 = LINE('',#117,#118);
#117 = CARTESIAN_POINT('',(-766.3117121021,71.270457821264));
#118 = VECTOR('',#119,1.);
#119 = DIRECTION('',(0.,-1.));
#120 = ( GEOMETRIC_REPRESENTATION_CONTEXT(2) 
PARAMETRIC_REPRESENTATION_CONTEXT() REPRESENTATION_CONTEXT('2D SPACE',''
  ) );
#121 = ( GEOMETRIC_REPRESENTATION_CONTEXT(3) 
GLOBAL_UNCERTAINTY_ASSIGNED_CONTEXT((#125)) GLOBAL_UNIT_ASSIGNED_CONTEXT
((#122,#123,#124)) REPRESENTATION_CONTEXT('Context #1',
  '3D Context with UNIT and UNCERTAINTY') );
#122 = ( LENGTH_UNIT() NAMED_UNIT(*) SI_UNIT(.MILLI.,.METRE.) );
#123 = ( NAMED_UNIT(*) PLANE_ANGLE_UNIT() SI_UNIT($,.RADIAN.) );
#124 = ( NAMED_UNIT(*) SI_UNIT($,.STERADIAN.) SOLID_ANGLE_UNIT() );
#125 = UNCERTAINTY_MEASURE_WITH_UNIT(LENGTH_MEASURE(1.E-07),#122,
  'distance_accuracy_value','confusion accuracy');
#126 = PRODUCT_RELATED_PRODUCT_CATEGORY('part',$,(#7));
ENDSEC;
END-ISO-10303-21;
