ISO-10303-21;
HEADER;
FILE_DESCRIPTION(('Open CASCADE Model'),'2;1');
FILE_NAME('Open CASCADE Shape Model','2026-05-28T17:04:49',('Author'),(
    'Open CASCADE'),'Open CASCADE STEP processor 7.9','Open CASCADE 7.9'
  ,'Unknown');
FILE_SCHEMA(('AUTOMOTIVE_DESIGN { 1 0 10303 214 1 1 1 1 }'));
ENDSEC;
DATA;
#1 = APPLICATION_PROTOCOL_DEFINITION('international standard',
  'automotive_design',2000,#2);
#2 = APPLICATION_CONTEXT(
  'core data for automotive mechanical design processes');
#3 = SHAPE_DEFINITION_REPRESENTATION(#4,#10);
#4 = PRODUCT_DEFINITION_SHAPE('','',#5);
#5 = PRODUCT_DEFINITION('design','',#6,#9);
#6 = PRODUCT_DEFINITION_FORMATION('','',#7);
#7 = PRODUCT('Open CASCADE STEP translator 7.9 87',
  'Open CASCADE STEP translator 7.9 87','',(#8));
#8 = PRODUCT_CONTEXT('',#2,'mechanical');
#9 = PRODUCT_DEFINITION_CONTEXT('part definition',#2,'design');
#10 = MANIFOLD_SURFACE_SHAPE_REPRESENTATION('',(#11,#15),#217);
#11 = AXIS2_PLACEMENT_3D('',#12,#13,#14);
#12 = CARTESIAN_POINT('',(0.,0.,0.));
#13 = DIRECTION('',(0.,0.,1.));
#14 = DIRECTION('',(1.,0.,-0.));
#15 = SHELL_BASED_SURFACE_MODEL('',(#16));
#16 = OPEN_SHELL('',(#17));
#17 = ADVANCED_FACE('',(#18),#64,.T.);
#18 = FACE_BOUND('',#19,.T.);
#19 = EDGE_LOOP('',(#20,#107,#123,#203));
#20 = ORIENTED_EDGE('',*,*,#21,.T.);
#21 = EDGE_CURVE('',#22,#24,#26,.T.);
#22 = VERTEX_POINT('',#23);
#23 = CARTESIAN_POINT('',(0.,-1.301404437525E-02,0.));
#24 = VERTEX_POINT('',#25);
#25 = CARTESIAN_POINT('',(6.8,5.506161599371E-02,0.));
#26 = SURFACE_CURVE('',#27,(#63),.PCURVE_S1.);
#27 = B_SPLINE_CURVE_WITH_KNOTS('',1,(#28,#29,#30,#31,#32,#33,#34,#35,
    #36,#37,#38,#39,#40,#41,#42,#43,#44,#45,#46,#47,#48,#49,#50,#51,#52,
    #53,#54,#55,#56,#57,#58,#59,#60,#61,#62),.UNSPECIFIED.,.F.,.F.,(2,1,
    1,1,1,1,1,1,1,1,1,1,1,1,1,1,1,1,1,1,1,1,1,1,1,1,1,1,1,1,1,1,1,1,2),(
    0.,4.710382878632E-02,0.106086832822,0.146804321499,0.168648996501,
    0.184010881631,0.190171567332,0.287429792078,0.30059555068,
    0.320155262511,0.358513008199,0.370600614099,0.374043319478,
    0.41276011795,0.420145294899,0.480482563851,0.542074637246,
    0.564151899896,0.57794462478,0.594090348345,0.640029666302,
    0.704998111106,0.716410015985,0.740097287239,0.767385460882,
    0.80565098196,0.838159023334,0.8494072042,0.864865964593,
    0.877855294942,0.907378796169,0.944714788923,0.953900530178,
    0.981096402213,1.),.UNSPECIFIED.);
#28 = CARTESIAN_POINT('',(0.,-1.301404437525E-02,0.));
#29 = CARTESIAN_POINT('',(0.338223605543,2.014785745908E-02,0.));
#30 = CARTESIAN_POINT('',(0.763546362642,6.197069120585E-03,0.));
#31 = CARTESIAN_POINT('',(1.053077997716,-4.351969509037E-02,0.));
#32 = CARTESIAN_POINT('',(1.208945531549,-2.01799772231E-02,0.));
#33 = CARTESIAN_POINT('',(1.319200302552,-3.148822076457E-02,0.));
#34 = CARTESIAN_POINT('',(1.358119779743,-1.001922617635E-02,0.));
#35 = CARTESIAN_POINT('',(2.058110592194,-5.896776586627E-02,0.));
#36 = CARTESIAN_POINT('',(2.088492796902,3.103079204509E-02,0.));
#37 = CARTESIAN_POINT('',(2.229590261303,2.852506071374E-02,0.));
#38 = CARTESIAN_POINT('',(2.505583782512,4.88929273514E-02,0.));
#39 = CARTESIAN_POINT('',(2.572956900677,-6.482340248485E-03,0.));
#40 = CARTESIAN_POINT('',(2.596752802748,-1.3603108369E-02,0.));
#41 = CARTESIAN_POINT('',(2.875760353635,-2.711538874786E-02,0.));
#42 = CARTESIAN_POINT('',(2.90111798337,1.974648888609E-02,0.));
#43 = CARTESIAN_POINT('',(3.334709237366,5.85291837762E-02,0.));
#44 = CARTESIAN_POINT('',(3.772812722561,-1.58675444506E-02,0.));
#45 = CARTESIAN_POINT('',(3.925905220918,-5.984345910245E-02,0.));
#46 = CARTESIAN_POINT('',(3.978467541431,2.46540775452E-02,0.));
#47 = CARTESIAN_POINT('',(4.094197216812,3.792786570372E-02,0.));
#48 = CARTESIAN_POINT('',(4.425432938322,2.618796506084E-02,0.));
#49 = CARTESIAN_POINT('',(4.893851211834,8.950143026754E-03,0.));
#50 = CARTESIAN_POINT('',(4.97347860007,2.989044852569E-02,0.));
#51 = CARTESIAN_POINT('',(5.143988797138,1.83647969559E-02,0.));
#52 = CARTESIAN_POINT('',(5.33774101036,-1.658480862952E-02,0.));
#53 = CARTESIAN_POINT('',(5.611568876275,1.859664157889E-02,0.));
#54 = CARTESIAN_POINT('',(5.846028439839,1.247292662596E-02,0.));
#55 = CARTESIAN_POINT('',(5.915025660039,5.519624846409E-02,0.));
#56 = CARTESIAN_POINT('',(5.951644302641,-5.015310019474E-02,0.));
#57 = CARTESIAN_POINT('',(6.022507856309,1.117368481022E-02,0.));
#58 = CARTESIAN_POINT('',(6.23530478386,2.062277807582E-02,0.));
#59 = CARTESIAN_POINT('',(6.503111592499,4.962189645055E-02,0.));
#60 = CARTESIAN_POINT('',(6.51162855252,-1.610198584742E-02,0.));
#61 = CARTESIAN_POINT('',(6.705897002898,-4.365899403165E-02,0.));
#62 = CARTESIAN_POINT('',(6.8,5.506161599371E-02,0.));
#63 = PCURVE('',#64,#69);
#64 = PLANE('',#65);
#65 = AXIS2_PLACEMENT_3D('',#66,#67,#68);
#66 = CARTESIAN_POINT('',(3.436769975533,0.1,0.));
#67 = DIRECTION('',(0.,0.,1.));
#68 = DIRECTION('',(1.,0.,-0.));
#69 = DEFINITIONAL_REPRESENTATION('',(#70),#106);
#70 = B_SPLINE_CURVE_WITH_KNOTS('',1,(#71,#72,#73,#74,#75,#76,#77,#78,
    #79,#80,#81,#82,#83,#84,#85,#86,#87,#88,#89,#90,#91,#92,#93,#94,#95,
    #96,#97,#98,#99,#100,#101,#102,#103,#104,#105),.UNSPECIFIED.,.F.,.F.
  ,(2,1,1,1,1,1,1,1,1,1,1,1,1,1,1,1,1,1,1,1,1,1,1,1,1,1,1,1,1,1,1,1,1,1,
    2),(0.,4.710382878632E-02,0.106086832822,0.146804321499,
    0.168648996501,0.184010881631,0.190171567332,0.287429792078,
    0.30059555068,0.320155262511,0.358513008199,0.370600614099,
    0.374043319478,0.41276011795,0.420145294899,0.480482563851,
    0.542074637246,0.564151899896,0.57794462478,0.594090348345,
    0.640029666302,0.704998111106,0.716410015985,0.740097287239,
    0.767385460882,0.80565098196,0.838159023334,0.8494072042,
    0.864865964593,0.877855294942,0.907378796169,0.944714788923,
    0.953900530178,0.981096402213,1.),.UNSPECIFIED.);
#71 = CARTESIAN_POINT('',(-3.436769975533,-0.113014044375));
#72 = CARTESIAN_POINT('',(-3.09854636999,-7.985214254092E-02));
#73 = CARTESIAN_POINT('',(-2.673223612891,-9.380293087942E-02));
#74 = CARTESIAN_POINT('',(-2.383691977817,-0.14351969509));
#75 = CARTESIAN_POINT('',(-2.227824443984,-0.120179977223));
#76 = CARTESIAN_POINT('',(-2.117569672981,-0.131488220765));
#77 = CARTESIAN_POINT('',(-2.07865019579,-0.110019226176));
#78 = CARTESIAN_POINT('',(-1.378659383339,-0.158967765866));
#79 = CARTESIAN_POINT('',(-1.348277178631,-6.896920795491E-02));
#80 = CARTESIAN_POINT('',(-1.207179714231,-7.147493928626E-02));
#81 = CARTESIAN_POINT('',(-0.931186193021,-5.11070726486E-02));
#82 = CARTESIAN_POINT('',(-0.863813074857,-0.106482340248));
#83 = CARTESIAN_POINT('',(-0.840017172785,-0.113603108369));
#84 = CARTESIAN_POINT('',(-0.561009621898,-0.127115388748));
#85 = CARTESIAN_POINT('',(-0.535651992163,-8.025351111391E-02));
#86 = CARTESIAN_POINT('',(-0.102060738168,-4.14708162238E-02));
#87 = CARTESIAN_POINT('',(0.336042747028,-0.115867544451));
#88 = CARTESIAN_POINT('',(0.489135245385,-0.159843459102));
#89 = CARTESIAN_POINT('',(0.541697565898,-7.53459224548E-02));
#90 = CARTESIAN_POINT('',(0.657427241278,-6.207213429628E-02));
#91 = CARTESIAN_POINT('',(0.988662962789,-7.381203493916E-02));
#92 = CARTESIAN_POINT('',(1.457081236301,-9.104985697325E-02));
#93 = CARTESIAN_POINT('',(1.536708624537,-7.010955147431E-02));
#94 = CARTESIAN_POINT('',(1.707218821605,-8.16352030441E-02));
#95 = CARTESIAN_POINT('',(1.900971034827,-0.11658480863));
#96 = CARTESIAN_POINT('',(2.174798900742,-8.140335842111E-02));
#97 = CARTESIAN_POINT('',(2.409258464306,-8.752707337404E-02));
#98 = CARTESIAN_POINT('',(2.478255684506,-4.480375153591E-02));
#99 = CARTESIAN_POINT('',(2.514874327108,-0.150153100195));
#100 = CARTESIAN_POINT('',(2.585737880775,-8.882631518978E-02));
#101 = CARTESIAN_POINT('',(2.798534808327,-7.937722192418E-02));
#102 = CARTESIAN_POINT('',(3.066341616966,-5.037810354945E-02));
#103 = CARTESIAN_POINT('',(3.074858576987,-0.116101985847));
#104 = CARTESIAN_POINT('',(3.269127027365,-0.143658994032));
#105 = CARTESIAN_POINT('',(3.363230024467,-4.493838400629E-02));
#106 = ( GEOMETRIC_REPRESENTATION_CONTEXT(2) 
PARAMETRIC_REPRESENTATION_CONTEXT() REPRESENTATION_CONTEXT('2D SPACE',''
  ) );
#107 = ORIENTED_EDGE('',*,*,#108,.T.);
#108 = EDGE_CURVE('',#24,#109,#111,.T.);
#109 = VERTEX_POINT('',#110);
#110 = CARTESIAN_POINT('',(6.8,0.144938384006,0.));
#111 = SURFACE_CURVE('',#112,(#116),.PCURVE_S1.);
#112 = LINE('',#113,#114);
#113 = CARTESIAN_POINT('',(6.8,5.506161599371E-02,0.));
#114 = VECTOR('',#115,1.);
#115 = DIRECTION('',(0.,1.,0.));
#116 = PCURVE('',#64,#117);
#117 = DEFINITIONAL_REPRESENTATION('',(#118),#122);
#118 = LINE('',#119,#120);
#119 = CARTESIAN_POINT('',(3.363230024467,-4.493838400629E-02));
#120 = VECTOR('',#121,1.);
#121 = DIRECTION('',(0.,1.));
#122 = ( GEOMETRIC_REPRESENTATION_CONTEXT(2) 
PARAMETRIC_REPRESENTATION_CONTEXT() REPRESENTATION_CONTEXT('2D SPACE',''
  ) );
#123 = ORIENTED_EDGE('',*,*,#124,.T.);
#124 = EDGE_CURVE('',#109,#125,#127,.T.);
#125 = VERTEX_POINT('',#126);
#126 = CARTESIAN_POINT('',(0.,0.213014044375,0.));
#127 = SURFACE_CURVE('',#128,(#164),.PCURVE_S1.);
#128 = B_SPLINE_CURVE_WITH_KNOTS('',1,(#129,#130,#131,#132,#133,#134,
    #135,#136,#137,#138,#139,#140,#141,#142,#143,#144,#145,#146,#147,
    #148,#149,#150,#151,#152,#153,#154,#155,#156,#157,#158,#159,#160,
    #161,#162,#163),.UNSPECIFIED.,.F.,.F.,(2,1,1,1,1,1,1,1,1,1,1,1,1,1,1
    ,1,1,1,1,1,1,1,1,1,1,1,1,1,1,1,1,1,1,1,2),(0.,1.890359778711E-02,
    4.609946982169E-02,5.528521107738E-02,9.262120383139E-02,
    0.122144705058,0.135134035407,0.1505927958,0.161840976666,
    0.19434901804,0.232614539118,0.259902712761,0.283589984015,
    0.295001888894,0.359970333698,0.405909651655,0.42205537522,
    0.435848100104,0.457925362754,0.519517436149,0.579854705101,
    0.58723988205,0.625956680522,0.629399385901,0.641486991801,
    0.679844737489,0.69940444932,0.712570207922,0.809828432668,
    0.815989118369,0.831351003499,0.853195678501,0.893913167178,
    0.952896171214,1.),.UNSPECIFIED.);
#129 = CARTESIAN_POINT('',(6.8,0.144938384006,0.));
#130 = CARTESIAN_POINT('',(6.705897002898,0.243658994032,0.));
#131 = CARTESIAN_POINT('',(6.51162855252,0.216101985847,0.));
#132 = CARTESIAN_POINT('',(6.503111592499,0.150378103549,0.));
#133 = CARTESIAN_POINT('',(6.23530478386,0.179377221924,0.));
#134 = CARTESIAN_POINT('',(6.022507856309,0.18882631519,0.));
#135 = CARTESIAN_POINT('',(5.951644302641,0.250153100195,0.));
#136 = CARTESIAN_POINT('',(5.915025660039,0.144803751536,0.));
#137 = CARTESIAN_POINT('',(5.846028439839,0.187527073374,0.));
#138 = CARTESIAN_POINT('',(5.611568876275,0.181403358421,0.));
#139 = CARTESIAN_POINT('',(5.33774101036,0.21658480863,0.));
#140 = CARTESIAN_POINT('',(5.143988797138,0.181635203044,0.));
#141 = CARTESIAN_POINT('',(4.97347860007,0.170109551474,0.));
#142 = CARTESIAN_POINT('',(4.893851211834,0.191049856973,0.));
#143 = CARTESIAN_POINT('',(4.425432938322,0.173812034939,0.));
#144 = CARTESIAN_POINT('',(4.094197216812,0.162072134296,0.));
#145 = CARTESIAN_POINT('',(3.978467541431,0.175345922455,0.));
#146 = CARTESIAN_POINT('',(3.925905220918,0.259843459102,0.));
#147 = CARTESIAN_POINT('',(3.772812722561,0.215867544451,0.));
#148 = CARTESIAN_POINT('',(3.334709237366,0.141470816224,0.));
#149 = CARTESIAN_POINT('',(2.90111798337,0.180253511114,0.));
#150 = CARTESIAN_POINT('',(2.875760353635,0.227115388748,0.));
#151 = CARTESIAN_POINT('',(2.596752802748,0.213603108369,0.));
#152 = CARTESIAN_POINT('',(2.572956900677,0.206482340248,0.));
#153 = CARTESIAN_POINT('',(2.505583782512,0.151107072649,0.));
#154 = CARTESIAN_POINT('',(2.229590261303,0.171474939286,0.));
#155 = CARTESIAN_POINT('',(2.088492796902,0.168969207955,0.));
#156 = CARTESIAN_POINT('',(2.058110592194,0.258967765866,0.));
#157 = CARTESIAN_POINT('',(1.358119779743,0.210019226176,0.));
#158 = CARTESIAN_POINT('',(1.319200302552,0.231488220765,0.));
#159 = CARTESIAN_POINT('',(1.208945531549,0.220179977223,0.));
#160 = CARTESIAN_POINT('',(1.053077997716,0.24351969509,0.));
#161 = CARTESIAN_POINT('',(0.763546362642,0.193802930879,0.));
#162 = CARTESIAN_POINT('',(0.338223605543,0.179852142541,0.));
#163 = CARTESIAN_POINT('',(0.,0.213014044375,0.));
#164 = PCURVE('',#64,#165);
#165 = DEFINITIONAL_REPRESENTATION('',(#166),#202);
#166 = B_SPLINE_CURVE_WITH_KNOTS('',1,(#167,#168,#169,#170,#171,#172,
    #173,#174,#175,#176,#177,#178,#179,#180,#181,#182,#183,#184,#185,
    #186,#187,#188,#189,#190,#191,#192,#193,#194,#195,#196,#197,#198,
    #199,#200,#201),.UNSPECIFIED.,.F.,.F.,(2,1,1,1,1,1,1,1,1,1,1,1,1,1,1
    ,1,1,1,1,1,1,1,1,1,1,1,1,1,1,1,1,1,1,1,2),(0.,1.890359778711E-02,
    4.609946982169E-02,5.528521107738E-02,9.262120383139E-02,
    0.122144705058,0.135134035407,0.1505927958,0.161840976666,
    0.19434901804,0.232614539118,0.259902712761,0.283589984015,
    0.295001888894,0.359970333698,0.405909651655,0.42205537522,
    0.435848100104,0.457925362754,0.519517436149,0.579854705101,
    0.58723988205,0.625956680522,0.629399385901,0.641486991801,
    0.679844737489,0.69940444932,0.712570207922,0.809828432668,
    0.815989118369,0.831351003499,0.853195678501,0.893913167178,
    0.952896171214,1.),.UNSPECIFIED.);
#167 = CARTESIAN_POINT('',(3.363230024467,4.493838400629E-02));
#168 = CARTESIAN_POINT('',(3.269127027365,0.143658994032));
#169 = CARTESIAN_POINT('',(3.074858576987,0.116101985847));
#170 = CARTESIAN_POINT('',(3.066341616966,5.037810354945E-02));
#171 = CARTESIAN_POINT('',(2.798534808327,7.937722192418E-02));
#172 = CARTESIAN_POINT('',(2.585737880775,8.882631518978E-02));
#173 = CARTESIAN_POINT('',(2.514874327108,0.150153100195));
#174 = CARTESIAN_POINT('',(2.478255684506,4.480375153591E-02));
#175 = CARTESIAN_POINT('',(2.409258464306,8.752707337404E-02));
#176 = CARTESIAN_POINT('',(2.174798900742,8.140335842111E-02));
#177 = CARTESIAN_POINT('',(1.900971034827,0.11658480863));
#178 = CARTESIAN_POINT('',(1.707218821605,8.16352030441E-02));
#179 = CARTESIAN_POINT('',(1.536708624537,7.010955147431E-02));
#180 = CARTESIAN_POINT('',(1.457081236301,9.104985697325E-02));
#181 = CARTESIAN_POINT('',(0.988662962789,7.381203493916E-02));
#182 = CARTESIAN_POINT('',(0.657427241278,6.207213429628E-02));
#183 = CARTESIAN_POINT('',(0.541697565898,7.53459224548E-02));
#184 = CARTESIAN_POINT('',(0.489135245385,0.159843459102));
#185 = CARTESIAN_POINT('',(0.336042747028,0.115867544451));
#186 = CARTESIAN_POINT('',(-0.102060738168,4.14708162238E-02));
#187 = CARTESIAN_POINT('',(-0.535651992163,8.025351111391E-02));
#188 = CARTESIAN_POINT('',(-0.561009621898,0.127115388748));
#189 = CARTESIAN_POINT('',(-0.840017172785,0.113603108369));
#190 = CARTESIAN_POINT('',(-0.863813074857,0.106482340248));
#191 = CARTESIAN_POINT('',(-0.931186193021,5.11070726486E-02));
#192 = CARTESIAN_POINT('',(-1.207179714231,7.147493928626E-02));
#193 = CARTESIAN_POINT('',(-1.348277178631,6.896920795491E-02));
#194 = CARTESIAN_POINT('',(-1.378659383339,0.158967765866));
#195 = CARTESIAN_POINT('',(-2.07865019579,0.110019226176));
#196 = CARTESIAN_POINT('',(-2.117569672981,0.131488220765));
#197 = CARTESIAN_POINT('',(-2.227824443984,0.120179977223));
#198 = CARTESIAN_POINT('',(-2.383691977817,0.14351969509));
#199 = CARTESIAN_POINT('',(-2.673223612891,9.380293087942E-02));
#200 = CARTESIAN_POINT('',(-3.09854636999,7.985214254092E-02));
#201 = CARTESIAN_POINT('',(-3.436769975533,0.113014044375));
#202 = ( GEOMETRIC_REPRESENTATION_CONTEXT(2) 
PARAMETRIC_REPRESENTATION_CONTEXT() REPRESENTATION_CONTEXT('2D SPACE',''
  ) );
#203 = ORIENTED_EDGE('',*,*,#204,.T.);
#204 = EDGE_CURVE('',#125,#22,#205,.T.);
#205 = SURFACE_CURVE('',#206,(#210),.PCURVE_S1.);
#206 = LINE('',#207,#208);
#207 = CARTESIAN_POINT('',(0.,0.213014044375,0.));
#208 = VECTOR('',#209,1.);
#209 = DIRECTION('',(0.,-1.,0.));
#210 = PCURVE('',#64,#211);
#211 = DEFINITIONAL_REPRESENTATION('',(#212),#216);
#212 = LINE('',#213,#214);
#213 = CARTESIAN_POINT('',(-3.436769975533,0.113014044375));
#214 = VECTOR('',#215,1.);
#215 = DIRECTION('',(0.,-1.));
#216 = ( GEOMETRIC_REPRESENTATION_CONTEXT(2) 
PARAMETRIC_REPRESENTATION_CONTEXT() REPRESENTATION_CONTEXT('2D SPACE',''
  ) );
#217 = ( GEOMETRIC_REPRESENTATION_CONTEXT(3) 
GLOBAL_UNCERTAINTY_ASSIGNED_CONTEXT((#221)) GLOBAL_UNIT_ASSIGNED_CONTEXT
((#218,#219,#220)) REPRESENTATION_CONTEXT('Context #1',
  '3D Context with UNIT and UNCERTAINTY') );
#218 = ( LENGTH_UNIT() NAMED_UNIT(*) SI_UNIT(.MILLI.,.METRE.) );
#219 = ( NAMED_UNIT(*) PLANE_ANGLE_UNIT() SI_UNIT($,.RADIAN.) );
#220 = ( NAMED_UNIT(*) SI_UNIT($,.STERADIAN.) SOLID_ANGLE_UNIT() );
#221 = UNCERTAINTY_MEASURE_WITH_UNIT(LENGTH_MEASURE(1.E-07),#218,
  'distance_accuracy_value','confusion accuracy');
#222 = PRODUCT_RELATED_PRODUCT_CATEGORY('part',$,(#7));
ENDSEC;
END-ISO-10303-21;
