ISO-10303-21;
HEADER;
FILE_DESCRIPTION(('Open CASCADE Model'),'2;1');
FILE_NAME('Open CASCADE Shape Model','2026-05-28T17:04:49',('Author'),(
    'Open CASCADE'),'Open CASCADE STEP processor 7.9','Open CASCADE 7.9'
  ,'Unknown');
FILE_SCHEMA(('AUTOMOTIVE_DESIGN { 1 0 10303 214 1 1 1 1 }'));
ENDSEC;
DATA;
#1 = APPLICATION_PROTOCOL_DEFINITION('international standard',
  'automotive_design',2000,#2);
#2 = APPLICATION_CONTEXT(
  'core data for automotive mechanical design processes');
#3 = SHAPE_DEFINITION_REPRESENTATION(#4,#10);
#4 = PRODUCT_DEFINITION_SHAPE('','',#5);
#5 = PRODUCT_DEFINITION('design','',#6,#9);
#6 = PRODUCT_DEFINITION_FORMATION('','',#7);
#7 = PRODUCT('Open CASCADE STEP translator 7.9 32',
  'Open CASCADE STEP translator 7.9 32','',(#8));
#8 = PRODUCT_CONTEXT('',#2,'mechanical');
#9 = PRODUCT_DEFINITION_CONTEXT('part definition',#2,'design');
#10 = MANIFOLD_SURFACE_SHAPE_REPRESENTATION('',(#11,#15),#241);
#11 = AXIS2_PLACEMENT_3D('',#12,#13,#14);
#12 = CARTESIAN_POINT('',(0.,0.,0.));
#13 = DIRECTION('',(0.,0.,1.));
#14 = DIRECTION('',(1.,0.,-0.));
#15 = SHELL_BASED_SURFACE_MODEL('',(#16));
#16 = OPEN_SHELL('',(#17));
#17 = ADVANCED_FACE('',(#18),#70,.T.);
#18 = FACE_BOUND('',#19,.T.);
#19 = EDGE_LOOP('',(#20,#119,#135,#227));
#20 = ORIENTED_EDGE('',*,*,#21,.T.);
#21 = EDGE_CURVE('',#22,#24,#26,.T.);
#22 = VERTEX_POINT('',#23);
#23 = CARTESIAN_POINT('',(0.,-3.892986512202E-02,0.));
#24 = VERTEX_POINT('',#25);
#25 = CARTESIAN_POINT('',(8.,-1.423927343236E-02,0.));
#26 = SURFACE_CURVE('',#27,(#69),.PCURVE_S1.);
#27 = B_SPLINE_CURVE_WITH_KNOTS('',1,(#28,#29,#30,#31,#32,#33,#34,#35,
    #36,#37,#38,#39,#40,#41,#42,#43,#44,#45,#46,#47,#48,#49,#50,#51,#52,
    #53,#54,#55,#56,#57,#58,#59,#60,#61,#62,#63,#64,#65,#66,#67,#68),
  .UNSPECIFIED.,.F.,.F.,(2,1,1,1,1,1,1,1,1,1,1,1,1,1,1,1,1,1,1,1,1,1,1,1
    ,1,1,1,1,1,1,1,1,1,1,1,1,1,1,1,1,2),(0.,1.031442686787E-02,
    2.251787336781E-02,4.707082952619E-02,6.014344408857E-02,
    8.722409955626E-02,0.11597896863,0.161704373236,0.188519766399,
    0.191916263454,0.214366402502,0.233678941078,0.239577360893,
    0.260264356957,0.312126229028,0.360411845563,0.367325114368,
    0.417728896244,0.441244666717,0.447987473473,0.456318659863,
    0.469552636037,0.490324874933,0.492961756815,0.509427303045,
    0.560840205565,0.607233823572,0.617094254036,0.624370176769,
    0.655947456138,0.671009912449,0.718707926132,0.722118377029,
    0.73598247403,0.784142674528,0.809406828744,0.820906885856,
    0.897746830336,0.909775853692,0.956230696076,1.),.UNSPECIFIED.);
#28 = CARTESIAN_POINT('',(0.,-3.892986512202E-02,0.));
#29 = CARTESIAN_POINT('',(8.813333907383E-02,-5.108240024841E-02,0.));
#30 = CARTESIAN_POINT('',(0.147502423002,3.583820171367E-02,0.));
#31 = CARTESIAN_POINT('',(0.340414541174,-5.154874986807E-02,0.));
#32 = CARTESIAN_POINT('',(0.367705994721,5.785668489898E-02,0.));
#33 = CARTESIAN_POINT('',(0.57437713888,-5.099549672483E-02,0.));
#34 = CARTESIAN_POINT('',(0.822381569158,-5.423145480971E-02,0.));
#35 = CARTESIAN_POINT('',(1.200316625986,5.855377643809E-02,0.));
#36 = CARTESIAN_POINT('',(1.413335850617,-3.156231561321E-02,0.));
#37 = CARTESIAN_POINT('',(1.428833405577,-5.642418870838E-02,0.));
#38 = CARTESIAN_POINT('',(1.622323620873,-4.870826625813E-02,0.));
#39 = CARTESIAN_POINT('',(1.788722567008,-5.648521934355E-02,0.));
#40 = CARTESIAN_POINT('',(1.795327141397,-6.038820683717E-03,0.));
#41 = CARTESIAN_POINT('',(1.964528310476,5.062126321375E-02,0.));
#42 = CARTESIAN_POINT('',(2.40217529714,-4.19747037366E-02,0.));
#43 = CARTESIAN_POINT('',(2.817699948521,-1.365939069708E-02,0.));
#44 = CARTESIAN_POINT('',(2.877330349333,-1.376840930259E-02,0.));
#45 = CARTESIAN_POINT('',(3.311442552437,9.929566816958E-03,0.));
#46 = CARTESIAN_POINT('',(3.513428105647,-8.621037182533E-03,0.));
#47 = CARTESIAN_POINT('',(3.542812169855,4.157042650967E-02,0.));
#48 = CARTESIAN_POINT('',(3.557504224086,-2.877240318794E-02,0.));
#49 = CARTESIAN_POINT('',(3.639155213861,5.099792311781E-02,0.));
#50 = CARTESIAN_POINT('',(3.800179552035,-2.757369204526E-02,0.));
#51 = CARTESIAN_POINT('',(3.817863279806,-4.187741071498E-02,0.));
#52 = CARTESIAN_POINT('',(3.952508829294,3.303758692261E-03,0.));
#53 = CARTESIAN_POINT('',(4.3959489024,-1.179643926846E-03,0.));
#54 = CARTESIAN_POINT('',(4.795414468639,2.253428724935E-02,0.));
#55 = CARTESIAN_POINT('',(4.827247659901,-5.633503004707E-02,0.));
#56 = CARTESIAN_POINT('',(4.883232873394,-2.797493694715E-02,0.));
#57 = CARTESIAN_POINT('',(5.152075211599,1.572137360396E-02,0.));
#58 = CARTESIAN_POINT('',(5.279889953897,3.902311365204E-02,0.));
#59 = CARTESIAN_POINT('',(5.691274781678,3.365044893575E-02,0.));
#60 = CARTESIAN_POINT('',(5.693646567355,4.329325666794E-03,0.));
#61 = CARTESIAN_POINT('',(5.798534577975,-5.310820803772E-02,0.));
#62 = CARTESIAN_POINT('',(6.21318748711,-2.809756149131E-02,0.));
#63 = CARTESIAN_POINT('',(6.422018001698,3.41707502185E-02,0.));
#64 = CARTESIAN_POINT('',(6.484157725278,-4.314733601027E-02,0.));
#65 = CARTESIAN_POINT('',(7.144419878026,1.461593723884E-02,0.));
#66 = CARTESIAN_POINT('',(7.231233510364,-4.22066619303E-02,0.));
#67 = CARTESIAN_POINT('',(7.6251870393,3.099604824226E-02,0.));
#68 = CARTESIAN_POINT('',(8.,-1.423927343236E-02,0.));
#69 = PCURVE('',#70,#75);
#70 = PLANE('',#71);
#71 = AXIS2_PLACEMENT_3D('',#72,#73,#74);
#72 = CARTESIAN_POINT('',(3.915067070365,1.E-01,0.));
#73 = DIRECTION('',(0.,0.,1.));
#74 = DIRECTION('',(1.,0.,-0.));
#75 = DEFINITIONAL_REPRESENTATION('',(#76),#118);
#76 = B_SPLINE_CURVE_WITH_KNOTS('',1,(#77,#78,#79,#80,#81,#82,#83,#84,
    #85,#86,#87,#88,#89,#90,#91,#92,#93,#94,#95,#96,#97,#98,#99,#100,
    #101,#102,#103,#104,#105,#106,#107,#108,#109,#110,#111,#112,#113,
    #114,#115,#116,#117),.UNSPECIFIED.,.F.,.F.,(2,1,1,1,1,1,1,1,1,1,1,1,
    1,1,1,1,1,1,1,1,1,1,1,1,1,1,1,1,1,1,1,1,1,1,1,1,1,1,1,1,2),(0.,
    1.031442686787E-02,2.251787336781E-02,4.707082952619E-02,
    6.014344408857E-02,8.722409955626E-02,0.11597896863,0.161704373236,
    0.188519766399,0.191916263454,0.214366402502,0.233678941078,
    0.239577360893,0.260264356957,0.312126229028,0.360411845563,
    0.367325114368,0.417728896244,0.441244666717,0.447987473473,
    0.456318659863,0.469552636037,0.490324874933,0.492961756815,
    0.509427303045,0.560840205565,0.607233823572,0.617094254036,
    0.624370176769,0.655947456138,0.671009912449,0.718707926132,
    0.722118377029,0.73598247403,0.784142674528,0.809406828744,
    0.820906885856,0.897746830336,0.909775853692,0.956230696076,1.),
  .UNSPECIFIED.);
#77 = CARTESIAN_POINT('',(-3.915067070365,-0.138929865122));
#78 = CARTESIAN_POINT('',(-3.826933731291,-0.151082400248));
#79 = CARTESIAN_POINT('',(-3.767564647363,-6.416179828633E-02));
#80 = CARTESIAN_POINT('',(-3.57465252919,-0.151548749868));
#81 = CARTESIAN_POINT('',(-3.547361075643,-4.214331510102E-02));
#82 = CARTESIAN_POINT('',(-3.340689931484,-0.150995496725));
#83 = CARTESIAN_POINT('',(-3.092685501207,-0.15423145481));
#84 = CARTESIAN_POINT('',(-2.714750444379,-4.144622356191E-02));
#85 = CARTESIAN_POINT('',(-2.501731219747,-0.131562315613));
#86 = CARTESIAN_POINT('',(-2.486233664788,-0.156424188708));
#87 = CARTESIAN_POINT('',(-2.292743449491,-0.148708266258));
#88 = CARTESIAN_POINT('',(-2.126344503356,-0.156485219344));
#89 = CARTESIAN_POINT('',(-2.119739928967,-0.106038820684));
#90 = CARTESIAN_POINT('',(-1.950538759889,-4.937873678625E-02));
#91 = CARTESIAN_POINT('',(-1.512891773224,-0.141974703737));
#92 = CARTESIAN_POINT('',(-1.097367121844,-0.113659390697));
#93 = CARTESIAN_POINT('',(-1.037736721032,-0.113768409303));
#94 = CARTESIAN_POINT('',(-0.603624517928,-9.007043318304E-02));
#95 = CARTESIAN_POINT('',(-0.401638964717,-0.108621037183));
#96 = CARTESIAN_POINT('',(-0.372254900509,-5.842957349033E-02));
#97 = CARTESIAN_POINT('',(-0.357562846279,-0.128772403188));
#98 = CARTESIAN_POINT('',(-0.275911856503,-4.900207688219E-02));
#99 = CARTESIAN_POINT('',(-0.11488751833,-0.127573692045));
#100 = CARTESIAN_POINT('',(-9.720379055821E-02,-0.141877410715));
#101 = CARTESIAN_POINT('',(3.744175892963E-02,-9.669624130774E-02));
#102 = CARTESIAN_POINT('',(0.480881832036,-0.101179643927));
#103 = CARTESIAN_POINT('',(0.880347398275,-7.746571275065E-02));
#104 = CARTESIAN_POINT('',(0.912180589536,-0.156335030047));
#105 = CARTESIAN_POINT('',(0.96816580303,-0.127974936947));
#106 = CARTESIAN_POINT('',(1.237008141234,-8.427862639604E-02));
#107 = CARTESIAN_POINT('',(1.364822883532,-6.097688634796E-02));
#108 = CARTESIAN_POINT('',(1.776207711313,-6.634955106425E-02));
#109 = CARTESIAN_POINT('',(1.778579496991,-9.567067433321E-02));
#110 = CARTESIAN_POINT('',(1.88346750761,-0.153108208038));
#111 = CARTESIAN_POINT('',(2.298120416745,-0.128097561491));
#112 = CARTESIAN_POINT('',(2.506950931333,-6.58292497815E-02));
#113 = CARTESIAN_POINT('',(2.569090654914,-0.14314733601));
#114 = CARTESIAN_POINT('',(3.229352807661,-8.538406276116E-02));
#115 = CARTESIAN_POINT('',(3.316166439999,-0.14220666193));
#116 = CARTESIAN_POINT('',(3.710119968936,-6.900395175774E-02));
#117 = CARTESIAN_POINT('',(4.084932929635,-0.114239273432));
#118 = ( GEOMETRIC_REPRESENTATION_CONTEXT(2) 
PARAMETRIC_REPRESENTATION_CONTEXT() REPRESENTATION_CONTEXT('2D SPACE',''
  ) );
#119 = ORIENTED_EDGE('',*,*,#120,.T.);
#120 = EDGE_CURVE('',#24,#121,#123,.T.);
#121 = VERTEX_POINT('',#122);
#122 = CARTESIAN_POINT('',(8.,0.214239273432,0.));
#123 = SURFACE_CURVE('',#124,(#128),.PCURVE_S1.);
#124 = LINE('',#125,#126);
#125 = CARTESIAN_POINT('',(8.,-1.423927343236E-02,0.));
#126 = VECTOR('',#127,1.);
#127 = DIRECTION('',(0.,1.,0.));
#128 = PCURVE('',#70,#129);
#129 = DEFINITIONAL_REPRESENTATION('',(#130),#134);
#130 = LINE('',#131,#132);
#131 = CARTESIAN_POINT('',(4.084932929635,-0.114239273432));
#132 = VECTOR('',#133,1.);
#133 = DIRECTION('',(0.,1.));
#134 = ( GEOMETRIC_REPRESENTATION_CONTEXT(2) 
PARAMETRIC_REPRESENTATION_CONTEXT() REPRESENTATION_CONTEXT('2D SPACE',''
  ) );
#135 = ORIENTED_EDGE('',*,*,#136,.T.);
#136 = EDGE_CURVE('',#121,#137,#139,.T.);
#137 = VERTEX_POINT('',#138);
#138 = CARTESIAN_POINT('',(0.,0.238929865122,0.));
#139 = SURFACE_CURVE('',#140,(#182),.PCURVE_S1.);
#140 = B_SPLINE_CURVE_WITH_KNOTS('',1,(#141,#142,#143,#144,#145,#146,
    #147,#148,#149,#150,#151,#152,#153,#154,#155,#156,#157,#158,#159,
    #160,#161,#162,#163,#164,#165,#166,#167,#168,#169,#170,#171,#172,
    #173,#174,#175,#176,#177,#178,#179,#180,#181),.UNSPECIFIED.,.F.,.F.,
  (2,1,1,1,1,1,1,1,1,1,1,1,1,1,1,1,1,1,1,1,1,1,1,1,1,1,1,1,1,1,1,1,1,1,1
    ,1,1,1,1,1,2),(0.,4.37693039241E-02,9.022414630814E-02,
    0.102253169664,0.179093114144,0.190593171256,0.215857325472,
    0.26401752597,0.277881622971,0.281292073868,0.328990087551,
    0.344052543862,0.375629823231,0.382905745964,0.392766176428,
    0.439159794435,0.490572696955,0.507038243185,0.509675125067,
    0.530447363963,0.543681340137,0.552012526527,0.558755333283,
    0.582271103756,0.632674885632,0.639588154437,0.687873770972,
    0.739735643043,0.760422639107,0.766321058922,0.785633597498,
    0.808083736546,0.811480233601,0.838295626764,0.88402103137,
    0.912775900444,0.939856555911,0.952929170474,0.977482126632,
    0.989685573132,1.),.UNSPECIFIED.);
#141 = CARTESIAN_POINT('',(8.,0.214239273432,0.));
#142 = CARTESIAN_POINT('',(7.6251870393,0.169003951758,0.));
#143 = CARTESIAN_POINT('',(7.231233510364,0.24220666193,0.));
#144 = CARTESIAN_POINT('',(7.144419878026,0.185384062761,0.));
#145 = CARTESIAN_POINT('',(6.484157725278,0.24314733601,0.));
#146 = CARTESIAN_POINT('',(6.422018001698,0.165829249781,0.));
#147 = CARTESIAN_POINT('',(6.21318748711,0.228097561491,0.));
#148 = CARTESIAN_POINT('',(5.798534577975,0.253108208038,0.));
#149 = CARTESIAN_POINT('',(5.693646567355,0.195670674333,0.));
#150 = CARTESIAN_POINT('',(5.691274781678,0.166349551064,0.));
#151 = CARTESIAN_POINT('',(5.279889953897,0.160976886348,0.));
#152 = CARTESIAN_POINT('',(5.152075211599,0.184278626396,0.));
#153 = CARTESIAN_POINT('',(4.883232873394,0.227974936947,0.));
#154 = CARTESIAN_POINT('',(4.827247659901,0.256335030047,0.));
#155 = CARTESIAN_POINT('',(4.795414468639,0.177465712751,0.));
#156 = CARTESIAN_POINT('',(4.3959489024,0.201179643927,0.));
#157 = CARTESIAN_POINT('',(3.952508829294,0.196696241308,0.));
#158 = CARTESIAN_POINT('',(3.817863279806,0.241877410715,0.));
#159 = CARTESIAN_POINT('',(3.800179552035,0.227573692045,0.));
#160 = CARTESIAN_POINT('',(3.639155213861,0.149002076882,0.));
#161 = CARTESIAN_POINT('',(3.557504224086,0.228772403188,0.));
#162 = CARTESIAN_POINT('',(3.542812169855,0.15842957349,0.));
#163 = CARTESIAN_POINT('',(3.513428105647,0.208621037183,0.));
#164 = CARTESIAN_POINT('',(3.311442552437,0.190070433183,0.));
#165 = CARTESIAN_POINT('',(2.877330349333,0.213768409303,0.));
#166 = CARTESIAN_POINT('',(2.817699948521,0.213659390697,0.));
#167 = CARTESIAN_POINT('',(2.40217529714,0.241974703737,0.));
#168 = CARTESIAN_POINT('',(1.964528310476,0.149378736786,0.));
#169 = CARTESIAN_POINT('',(1.795327141397,0.206038820684,0.));
#170 = CARTESIAN_POINT('',(1.788722567008,0.256485219344,0.));
#171 = CARTESIAN_POINT('',(1.622323620873,0.248708266258,0.));
#172 = CARTESIAN_POINT('',(1.428833405577,0.256424188708,0.));
#173 = CARTESIAN_POINT('',(1.413335850617,0.231562315613,0.));
#174 = CARTESIAN_POINT('',(1.200316625986,0.141446223562,0.));
#175 = CARTESIAN_POINT('',(0.822381569158,0.25423145481,0.));
#176 = CARTESIAN_POINT('',(0.57437713888,0.250995496725,0.));
#177 = CARTESIAN_POINT('',(0.367705994721,0.142143315101,0.));
#178 = CARTESIAN_POINT('',(0.340414541174,0.251548749868,0.));
#179 = CARTESIAN_POINT('',(0.147502423002,0.164161798286,0.));
#180 = CARTESIAN_POINT('',(8.813333907383E-02,0.251082400248,0.));
#181 = CARTESIAN_POINT('',(0.,0.238929865122,0.));
#182 = PCURVE('',#70,#183);
#183 = DEFINITIONAL_REPRESENTATION('',(#184),#226);
#184 = B_SPLINE_CURVE_WITH_KNOTS('',1,(#185,#186,#187,#188,#189,#190,
    #191,#192,#193,#194,#195,#196,#197,#198,#199,#200,#201,#202,#203,
    #204,#205,#206,#207,#208,#209,#210,#211,#212,#213,#214,#215,#216,
    #217,#218,#219,#220,#221,#222,#223,#224,#225),.UNSPECIFIED.,.F.,.F.,
  (2,1,1,1,1,1,1,1,1,1,1,1,1,1,1,1,1,1,1,1,1,1,1,1,1,1,1,1,1,1,1,1,1,1,1
    ,1,1,1,1,1,2),(0.,4.37693039241E-02,9.022414630814E-02,
    0.102253169664,0.179093114144,0.190593171256,0.215857325472,
    0.26401752597,0.277881622971,0.281292073868,0.328990087551,
    0.344052543862,0.375629823231,0.382905745964,0.392766176428,
    0.439159794435,0.490572696955,0.507038243185,0.509675125067,
    0.530447363963,0.543681340137,0.552012526527,0.558755333283,
    0.582271103756,0.632674885632,0.639588154437,0.687873770972,
    0.739735643043,0.760422639107,0.766321058922,0.785633597498,
    0.808083736546,0.811480233601,0.838295626764,0.88402103137,
    0.912775900444,0.939856555911,0.952929170474,0.977482126632,
    0.989685573132,1.),.UNSPECIFIED.);
#185 = CARTESIAN_POINT('',(4.084932929635,0.114239273432));
#186 = CARTESIAN_POINT('',(3.710119968936,6.900395175774E-02));
#187 = CARTESIAN_POINT('',(3.316166439999,0.14220666193));
#188 = CARTESIAN_POINT('',(3.229352807661,8.538406276116E-02));
#189 = CARTESIAN_POINT('',(2.569090654914,0.14314733601));
#190 = CARTESIAN_POINT('',(2.506950931333,6.58292497815E-02));
#191 = CARTESIAN_POINT('',(2.298120416745,0.128097561491));
#192 = CARTESIAN_POINT('',(1.88346750761,0.153108208038));
#193 = CARTESIAN_POINT('',(1.778579496991,9.567067433321E-02));
#194 = CARTESIAN_POINT('',(1.776207711313,6.634955106425E-02));
#195 = CARTESIAN_POINT('',(1.364822883532,6.097688634796E-02));
#196 = CARTESIAN_POINT('',(1.237008141234,8.427862639604E-02));
#197 = CARTESIAN_POINT('',(0.96816580303,0.127974936947));
#198 = CARTESIAN_POINT('',(0.912180589536,0.156335030047));
#199 = CARTESIAN_POINT('',(0.880347398275,7.746571275065E-02));
#200 = CARTESIAN_POINT('',(0.480881832036,0.101179643927));
#201 = CARTESIAN_POINT('',(3.744175892963E-02,9.669624130774E-02));
#202 = CARTESIAN_POINT('',(-9.720379055821E-02,0.141877410715));
#203 = CARTESIAN_POINT('',(-0.11488751833,0.127573692045));
#204 = CARTESIAN_POINT('',(-0.275911856503,4.900207688219E-02));
#205 = CARTESIAN_POINT('',(-0.357562846279,0.128772403188));
#206 = CARTESIAN_POINT('',(-0.372254900509,5.842957349033E-02));
#207 = CARTESIAN_POINT('',(-0.401638964717,0.108621037183));
#208 = CARTESIAN_POINT('',(-0.603624517928,9.007043318304E-02));
#209 = CARTESIAN_POINT('',(-1.037736721032,0.113768409303));
#210 = CARTESIAN_POINT('',(-1.097367121844,0.113659390697));
#211 = CARTESIAN_POINT('',(-1.512891773224,0.141974703737));
#212 = CARTESIAN_POINT('',(-1.950538759889,4.937873678625E-02));
#213 = CARTESIAN_POINT('',(-2.119739928967,0.106038820684));
#214 = CARTESIAN_POINT('',(-2.126344503356,0.156485219344));
#215 = CARTESIAN_POINT('',(-2.292743449491,0.148708266258));
#216 = CARTESIAN_POINT('',(-2.486233664788,0.156424188708));
#217 = CARTESIAN_POINT('',(-2.501731219747,0.131562315613));
#218 = CARTESIAN_POINT('',(-2.714750444379,4.144622356191E-02));
#219 = CARTESIAN_POINT('',(-3.092685501207,0.15423145481));
#220 = CARTESIAN_POINT('',(-3.340689931484,0.150995496725));
#221 = CARTESIAN_POINT('',(-3.547361075643,4.214331510102E-02));
#222 = CARTESIAN_POINT('',(-3.57465252919,0.151548749868));
#223 = CARTESIAN_POINT('',(-3.767564647363,6.416179828633E-02));
#224 = CARTESIAN_POINT('',(-3.826933731291,0.151082400248));
#225 = CARTESIAN_POINT('',(-3.915067070365,0.138929865122));
#226 = ( GEOMETRIC_REPRESENTATION_CONTEXT(2) 
PARAMETRIC_REPRESENTATION_CONTEXT() REPRESENTATION_CONTEXT('2D SPACE',''
  ) );
#227 = ORIENTED_EDGE('',*,*,#228,.T.);
#228 = EDGE_CURVE('',#137,#22,#229,.T.);
#229 = SURFACE_CURVE('',#230,(#234),.PCURVE_S1.);
#230 = LINE('',#231,#232);
#231 = CARTESIAN_POINT('',(0.,0.238929865122,0.));
#232 = VECTOR('',#233,1.);
#233 = DIRECTION('',(0.,-1.,0.));
#234 = PCURVE('',#70,#235);
#235 = DEFINITIONAL_REPRESENTATION('',(#236),#240);
#236 = LINE('',#237,#238);
#237 = CARTESIAN_POINT('',(-3.915067070365,0.138929865122));
#238 = VECTOR('',#239,1.);
#239 = DIRECTION('',(0.,-1.));
#240 = ( GEOMETRIC_REPRESENTATION_CONTEXT(2) 
PARAMETRIC_REPRESENTATION_CONTEXT() REPRESENTATION_CONTEXT('2D SPACE',''
  ) );
#241 = ( GEOMETRIC_REPRESENTATION_CONTEXT(3) 
GLOBAL_UNCERTAINTY_ASSIGNED_CONTEXT((#245)) GLOBAL_UNIT_ASSIGNED_CONTEXT
((#242,#243,#244)) REPRESENTATION_CONTEXT('Context #1',
  '3D Context with UNIT and UNCERTAINTY') );
#242 = ( LENGTH_UNIT() NAMED_UNIT(*) SI_UNIT(.MILLI.,.METRE.) );
#243 = ( NAMED_UNIT(*) PLANE_ANGLE_UNIT() SI_UNIT($,.RADIAN.) );
#244 = ( NAMED_UNIT(*) SI_UNIT($,.STERADIAN.) SOLID_ANGLE_UNIT() );
#245 = UNCERTAINTY_MEASURE_WITH_UNIT(LENGTH_MEASURE(1.E-07),#242,
  'distance_accuracy_value','confusion accuracy');
#246 = PRODUCT_RELATED_PRODUCT_CATEGORY('part',$,(#7));
ENDSEC;
END-ISO-10303-21;
