ISO-10303-21;
HEADER;
FILE_DESCRIPTION(('Open CASCADE Model'),'2;1');
FILE_NAME('Open CASCADE Shape Model','2026-05-29T14:30:30',('Author'),(
    'Open CASCADE'),'Open CASCADE STEP processor 7.9','Open CASCADE 7.9'
  ,'Unknown');
FILE_SCHEMA(('AUTOMOTIVE_DESIGN { 1 0 10303 214 1 1 1 1 }'));
ENDSEC;
DATA;
#1 = APPLICATION_PROTOCOL_DEFINITION('international standard',
  'automotive_design',2000,#2);
#2 = APPLICATION_CONTEXT(
  'core data for automotive mechanical design processes');
#3 = SHAPE_DEFINITION_REPRESENTATION(#4,#10);
#4 = PRODUCT_DEFINITION_SHAPE('','',#5);
#5 = PRODUCT_DEFINITION('design','',#6,#9);
#6 = PRODUCT_DEFINITION_FORMATION('','',#7);
#7 = PRODUCT('Open CASCADE STEP translator 7.9 54',
  'Open CASCADE STEP translator 7.9 54','',(#8));
#8 = PRODUCT_CONTEXT('',#2,'mechanical');
#9 = PRODUCT_DEFINITION_CONTEXT('part definition',#2,'design');
#10 = MANIFOLD_SURFACE_SHAPE_REPRESENTATION('',(#11,#15),#121);
#11 = AXIS2_PLACEMENT_3D('',#12,#13,#14);
#12 = CARTESIAN_POINT('',(0.,0.,0.));
#13 = DIRECTION('',(0.,0.,1.));
#14 = DIRECTION('',(1.,0.,-0.));
#15 = SHELL_BASED_SURFACE_MODEL('',(#16));
#16 = OPEN_SHELL('',(#17));
#17 = ADVANCED_FACE('',(#18),#40,.T.);
#18 = FACE_BOUND('',#19,.T.);
#19 = EDGE_LOOP('',(#20,#59,#75,#107));
#20 = ORIENTED_EDGE('',*,*,#21,.T.);
#21 = EDGE_CURVE('',#22,#24,#26,.T.);
#22 = VERTEX_POINT('',#23);
#23 = CARTESIAN_POINT('',(0.,7.500060176411,0.));
#24 = VERTEX_POINT('',#25);
#25 = CARTESIAN_POINT('',(1.5E+03,-3.045601194656,0.));
#26 = SURFACE_CURVE('',#27,(#39),.PCURVE_S1.);
#27 = B_SPLINE_CURVE_WITH_KNOTS('',1,(#28,#29,#30,#31,#32,#33,#34,#35,
    #36,#37,#38),.UNSPECIFIED.,.F.,.F.,(2,1,1,1,1,1,1,1,1,1,2),(0.,
    0.136590242282,0.204964391856,0.324407679752,0.400180981042,
    0.44344924856,0.505506468099,0.593136397851,0.673778332322,
    0.843272414796,1.),.UNSPECIFIED.);
#28 = CARTESIAN_POINT('',(0.,7.500060176411,0.));
#29 = CARTESIAN_POINT('',(216.70904223192,16.060888598319,0.));
#30 = CARTESIAN_POINT('',(318.2348302261,-22.39387017003,0.));
#31 = CARTESIAN_POINT('',(507.82793199275,-27.12504904584,0.));
#32 = CARTESIAN_POINT('',(624.85835254001,0.786829824777,0.));
#33 = CARTESIAN_POINT('',(683.27377470218,-35.37279175826,0.));
#34 = CARTESIAN_POINT('',(755.1309479997,32.04821735293,0.));
#35 = CARTESIAN_POINT('',(877.53148804348,-34.1161901693,0.));
#36 = CARTESIAN_POINT('',(984.43988066635,36.351429032531,0.));
#37 = CARTESIAN_POINT('',(1.253513047416E+03,31.182703015085,0.));
#38 = CARTESIAN_POINT('',(1.5E+03,-3.045601194656,0.));
#39 = PCURVE('',#40,#45);
#40 = PLANE('',#41);
#41 = AXIS2_PLACEMENT_3D('',#42,#43,#44);
#42 = CARTESIAN_POINT('',(754.85154725627,75.,0.));
#43 = DIRECTION('',(0.,0.,1.));
#44 = DIRECTION('',(1.,0.,-0.));
#45 = DEFINITIONAL_REPRESENTATION('',(#46),#58);
#46 = B_SPLINE_CURVE_WITH_KNOTS('',1,(#47,#48,#49,#50,#51,#52,#53,#54,
    #55,#56,#57),.UNSPECIFIED.,.F.,.F.,(2,1,1,1,1,1,1,1,1,1,2),(0.,
    0.136590242282,0.204964391856,0.324407679752,0.400180981042,
    0.44344924856,0.505506468099,0.593136397851,0.673778332322,
    0.843272414796,1.),.UNSPECIFIED.);
#47 = CARTESIAN_POINT('',(-754.8515472562,-67.49993982358));
#48 = CARTESIAN_POINT('',(-538.1425050243,-58.93911140168));
#49 = CARTESIAN_POINT('',(-436.6167170301,-97.39387017003));
#50 = CARTESIAN_POINT('',(-247.0236152635,-102.1250490458));
#51 = CARTESIAN_POINT('',(-129.9931947162,-74.21317017522));
#52 = CARTESIAN_POINT('',(-71.57777255408,-110.3727917582));
#53 = CARTESIAN_POINT('',(0.27940074343,-42.95178264707));
#54 = CARTESIAN_POINT('',(122.67994078721,-109.1161901693));
#55 = CARTESIAN_POINT('',(229.58833341008,-38.64857096746));
#56 = CARTESIAN_POINT('',(498.66150015961,-43.81729698491));
#57 = CARTESIAN_POINT('',(745.14845274372,-78.04560119465));
#58 = ( GEOMETRIC_REPRESENTATION_CONTEXT(2) 
PARAMETRIC_REPRESENTATION_CONTEXT() REPRESENTATION_CONTEXT('2D SPACE',''
  ) );
#59 = ORIENTED_EDGE('',*,*,#60,.T.);
#60 = EDGE_CURVE('',#24,#61,#63,.T.);
#61 = VERTEX_POINT('',#62);
#62 = CARTESIAN_POINT('',(1.5E+03,153.04560119465,0.));
#63 = SURFACE_CURVE('',#64,(#68),.PCURVE_S1.);
#64 = LINE('',#65,#66);
#65 = CARTESIAN_POINT('',(1.5E+03,-3.045601194656,0.));
#66 = VECTOR('',#67,1.);
#67 = DIRECTION('',(0.,1.,0.));
#68 = PCURVE('',#40,#69);
#69 = DEFINITIONAL_REPRESENTATION('',(#70),#74);
#70 = LINE('',#71,#72);
#71 = CARTESIAN_POINT('',(745.14845274372,-78.04560119465));
#72 = VECTOR('',#73,1.);
#73 = DIRECTION('',(0.,1.));
#74 = ( GEOMETRIC_REPRESENTATION_CONTEXT(2) 
PARAMETRIC_REPRESENTATION_CONTEXT() REPRESENTATION_CONTEXT('2D SPACE',''
  ) );
#75 = ORIENTED_EDGE('',*,*,#76,.T.);
#76 = EDGE_CURVE('',#61,#77,#79,.T.);
#77 = VERTEX_POINT('',#78);
#78 = CARTESIAN_POINT('',(0.,142.49993982358,0.));
#79 = SURFACE_CURVE('',#80,(#92),.PCURVE_S1.);
#80 = B_SPLINE_CURVE_WITH_KNOTS('',1,(#81,#82,#83,#84,#85,#86,#87,#88,
    #89,#90,#91),.UNSPECIFIED.,.F.,.F.,(2,1,1,1,1,1,1,1,1,1,2),(0.,
    0.156727585204,0.326221667678,0.406863602149,0.494493531901,
    0.55655075144,0.599819018958,0.675592320248,0.795035608144,
    0.863409757718,1.),.UNSPECIFIED.);
#81 = CARTESIAN_POINT('',(1.5E+03,153.04560119465,0.));
#82 = CARTESIAN_POINT('',(1.253513047416E+03,118.81729698491,0.));
#83 = CARTESIAN_POINT('',(984.43988066635,113.64857096746,0.));
#84 = CARTESIAN_POINT('',(877.53148804348,184.1161901693,0.));
#85 = CARTESIAN_POINT('',(755.1309479997,117.95178264707,0.));
#86 = CARTESIAN_POINT('',(683.27377470218,185.37279175826,0.));
#87 = CARTESIAN_POINT('',(624.85835254001,149.21317017522,0.));
#88 = CARTESIAN_POINT('',(507.82793199275,177.12504904584,0.));
#89 = CARTESIAN_POINT('',(318.2348302261,172.39387017003,0.));
#90 = CARTESIAN_POINT('',(216.70904223192,133.93911140168,0.));
#91 = CARTESIAN_POINT('',(0.,142.49993982358,0.));
#92 = PCURVE('',#40,#93);
#93 = DEFINITIONAL_REPRESENTATION('',(#94),#106);
#94 = B_SPLINE_CURVE_WITH_KNOTS('',1,(#95,#96,#97,#98,#99,#100,#101,#102
    ,#103,#104,#105),.UNSPECIFIED.,.F.,.F.,(2,1,1,1,1,1,1,1,1,1,2),(0.,
    0.156727585204,0.326221667678,0.406863602149,0.494493531901,
    0.55655075144,0.599819018958,0.675592320248,0.795035608144,
    0.863409757718,1.),.UNSPECIFIED.);
#95 = CARTESIAN_POINT('',(745.14845274372,78.045601194656));
#96 = CARTESIAN_POINT('',(498.66150015961,43.817296984915));
#97 = CARTESIAN_POINT('',(229.58833341008,38.648570967469));
#98 = CARTESIAN_POINT('',(122.67994078721,109.1161901693));
#99 = CARTESIAN_POINT('',(0.27940074343,42.95178264707));
#100 = CARTESIAN_POINT('',(-71.57777255408,110.37279175826));
#101 = CARTESIAN_POINT('',(-129.9931947162,74.213170175223));
#102 = CARTESIAN_POINT('',(-247.0236152635,102.12504904584));
#103 = CARTESIAN_POINT('',(-436.6167170301,97.393870170035));
#104 = CARTESIAN_POINT('',(-538.1425050243,58.939111401681));
#105 = CARTESIAN_POINT('',(-754.8515472562,67.499939823589));
#106 = ( GEOMETRIC_REPRESENTATION_CONTEXT(2) 
PARAMETRIC_REPRESENTATION_CONTEXT() REPRESENTATION_CONTEXT('2D SPACE',''
  ) );
#107 = ORIENTED_EDGE('',*,*,#108,.T.);
#108 = EDGE_CURVE('',#77,#22,#109,.T.);
#109 = SURFACE_CURVE('',#110,(#114),.PCURVE_S1.);
#110 = LINE('',#111,#112);
#111 = CARTESIAN_POINT('',(0.,142.49993982358,0.));
#112 = VECTOR('',#113,1.);
#113 = DIRECTION('',(0.,-1.,0.));
#114 = PCURVE('',#40,#115);
#115 = DEFINITIONAL_REPRESENTATION('',(#116),#120);
#116 = LINE('',#117,#118);
#117 = CARTESIAN_POINT('',(-754.8515472562,67.499939823589));
#118 = VECTOR('',#119,1.);
#119 = DIRECTION('',(0.,-1.));
#120 = ( GEOMETRIC_REPRESENTATION_CONTEXT(2) 
PARAMETRIC_REPRESENTATION_CONTEXT() REPRESENTATION_CONTEXT('2D SPACE',''
  ) );
#121 = ( GEOMETRIC_REPRESENTATION_CONTEXT(3) 
GLOBAL_UNCERTAINTY_ASSIGNED_CONTEXT((#125)) GLOBAL_UNIT_ASSIGNED_CONTEXT
((#122,#123,#124)) REPRESENTATION_CONTEXT('Context #1',
  '3D Context with UNIT and UNCERTAINTY') );
#122 = ( LENGTH_UNIT() NAMED_UNIT(*) SI_UNIT(.MILLI.,.METRE.) );
#123 = ( NAMED_UNIT(*) PLANE_ANGLE_UNIT() SI_UNIT($,.RADIAN.) );
#124 = ( NAMED_UNIT(*) SI_UNIT($,.STERADIAN.) SOLID_ANGLE_UNIT() );
#125 = UNCERTAINTY_MEASURE_WITH_UNIT(LENGTH_MEASURE(1.E-07),#122,
  'distance_accuracy_value','confusion accuracy');
#126 = PRODUCT_RELATED_PRODUCT_CATEGORY('part',$,(#7));
ENDSEC;
END-ISO-10303-21;
