ISO-10303-21;
HEADER;
FILE_DESCRIPTION(('Open CASCADE Model'),'2;1');
FILE_NAME('Open CASCADE Shape Model','2026-05-29T14:30:30',('Author'),(
    'Open CASCADE'),'Open CASCADE STEP processor 7.9','Open CASCADE 7.9'
  ,'Unknown');
FILE_SCHEMA(('AUTOMOTIVE_DESIGN { 1 0 10303 214 1 1 1 1 }'));
ENDSEC;
DATA;
#1 = APPLICATION_PROTOCOL_DEFINITION('international standard',
  'automotive_design',2000,#2);
#2 = APPLICATION_CONTEXT(
  'core data for automotive mechanical design processes');
#3 = SHAPE_DEFINITION_REPRESENTATION(#4,#10);
#4 = PRODUCT_DEFINITION_SHAPE('','',#5);
#5 = PRODUCT_DEFINITION('design','',#6,#9);
#6 = PRODUCT_DEFINITION_FORMATION('','',#7);
#7 = PRODUCT('Open CASCADE STEP translator 7.9 76',
  'Open CASCADE STEP translator 7.9 76','',(#8));
#8 = PRODUCT_CONTEXT('',#2,'mechanical');
#9 = PRODUCT_DEFINITION_CONTEXT('part definition',#2,'design');
#10 = MANIFOLD_SURFACE_SHAPE_REPRESENTATION('',(#11,#15),#121);
#11 = AXIS2_PLACEMENT_3D('',#12,#13,#14);
#12 = CARTESIAN_POINT('',(0.,0.,0.));
#13 = DIRECTION('',(0.,0.,1.));
#14 = DIRECTION('',(1.,0.,-0.));
#15 = SHELL_BASED_SURFACE_MODEL('',(#16));
#16 = OPEN_SHELL('',(#17));
#17 = ADVANCED_FACE('',(#18),#40,.T.);
#18 = FACE_BOUND('',#19,.T.);
#19 = EDGE_LOOP('',(#20,#59,#75,#107));
#20 = ORIENTED_EDGE('',*,*,#21,.T.);
#21 = EDGE_CURVE('',#22,#24,#26,.T.);
#22 = VERTEX_POINT('',#23);
#23 = CARTESIAN_POINT('',(0.,-24.46644089062,0.));
#24 = VERTEX_POINT('',#25);
#25 = CARTESIAN_POINT('',(1.5E+03,-27.89466628003,0.));
#26 = SURFACE_CURVE('',#27,(#39),.PCURVE_S1.);
#27 = B_SPLINE_CURVE_WITH_KNOTS('',1,(#28,#29,#30,#31,#32,#33,#34,#35,
    #36,#37,#38),.UNSPECIFIED.,.F.,.F.,(2,1,1,1,1,1,1,1,1,1,2),(0.,
    0.15434563986,0.234798056885,0.304751062048,0.345978411244,
    0.482741311796,0.545066242919,0.624346829995,0.907768454264,
    0.937213523558,1.),.UNSPECIFIED.);
#28 = CARTESIAN_POINT('',(0.,-24.46644089062,0.));
#29 = CARTESIAN_POINT('',(242.52080279081,10.951378719859,0.));
#30 = CARTESIAN_POINT('',(363.47932959434,-30.16132119726,0.));
#31 = CARTESIAN_POINT('',(459.42166433904,25.82325590409,0.));
#32 = CARTESIAN_POINT('',(522.13447490657,44.612480189909,0.));
#33 = CARTESIAN_POINT('',(733.22983715369,-6.405062585017,0.));
#34 = CARTESIAN_POINT('',(824.58707119173,-44.46699952071,0.));
#35 = CARTESIAN_POINT('',(916.53878808872,41.52201211558,0.));
#36 = CARTESIAN_POINT('',(1.366340384515E+03,26.280173366239,0.));
#37 = CARTESIAN_POINT('',(1.403800081696E+03,-1.702317823838,0.));
#38 = CARTESIAN_POINT('',(1.5E+03,-27.89466628003,0.));
#39 = PCURVE('',#40,#45);
#40 = PLANE('',#41);
#41 = AXIS2_PLACEMENT_3D('',#42,#43,#44);
#42 = CARTESIAN_POINT('',(752.29510247286,75.,0.));
#43 = DIRECTION('',(0.,0.,1.));
#44 = DIRECTION('',(1.,0.,-0.));
#45 = DEFINITIONAL_REPRESENTATION('',(#46),#58);
#46 = B_SPLINE_CURVE_WITH_KNOTS('',1,(#47,#48,#49,#50,#51,#52,#53,#54,
    #55,#56,#57),.UNSPECIFIED.,.F.,.F.,(2,1,1,1,1,1,1,1,1,1,2),(0.,
    0.15434563986,0.234798056885,0.304751062048,0.345978411244,
    0.482741311796,0.545066242919,0.624346829995,0.907768454264,
    0.937213523558,1.),.UNSPECIFIED.);
#47 = CARTESIAN_POINT('',(-752.2951024728,-99.46644089062));
#48 = CARTESIAN_POINT('',(-509.774299682,-64.04862128014));
#49 = CARTESIAN_POINT('',(-388.8157728785,-105.1613211972));
#50 = CARTESIAN_POINT('',(-292.8734381338,-49.17674409591));
#51 = CARTESIAN_POINT('',(-230.1606275662,-30.38751981009));
#52 = CARTESIAN_POINT('',(-19.06526531917,-81.40506258501));
#53 = CARTESIAN_POINT('',(72.291968718873,-119.4669995207));
#54 = CARTESIAN_POINT('',(164.24368561586,-33.47798788442));
#55 = CARTESIAN_POINT('',(614.04528204216,-48.71982663376));
#56 = CARTESIAN_POINT('',(651.50497922327,-76.70231782383));
#57 = CARTESIAN_POINT('',(747.70489752713,-102.89466628));
#58 = ( GEOMETRIC_REPRESENTATION_CONTEXT(2) 
PARAMETRIC_REPRESENTATION_CONTEXT() REPRESENTATION_CONTEXT('2D SPACE',''
  ) );
#59 = ORIENTED_EDGE('',*,*,#60,.T.);
#60 = EDGE_CURVE('',#24,#61,#63,.T.);
#61 = VERTEX_POINT('',#62);
#62 = CARTESIAN_POINT('',(1.5E+03,177.89466628003,0.));
#63 = SURFACE_CURVE('',#64,(#68),.PCURVE_S1.);
#64 = LINE('',#65,#66);
#65 = CARTESIAN_POINT('',(1.5E+03,-27.89466628003,0.));
#66 = VECTOR('',#67,1.);
#67 = DIRECTION('',(0.,1.,0.));
#68 = PCURVE('',#40,#69);
#69 = DEFINITIONAL_REPRESENTATION('',(#70),#74);
#70 = LINE('',#71,#72);
#71 = CARTESIAN_POINT('',(747.70489752713,-102.89466628));
#72 = VECTOR('',#73,1.);
#73 = DIRECTION('',(0.,1.));
#74 = ( GEOMETRIC_REPRESENTATION_CONTEXT(2) 
PARAMETRIC_REPRESENTATION_CONTEXT() REPRESENTATION_CONTEXT('2D SPACE',''
  ) );
#75 = ORIENTED_EDGE('',*,*,#76,.T.);
#76 = EDGE_CURVE('',#61,#77,#79,.T.);
#77 = VERTEX_POINT('',#78);
#78 = CARTESIAN_POINT('',(0.,174.46644089062,0.));
#79 = SURFACE_CURVE('',#80,(#92),.PCURVE_S1.);
#80 = B_SPLINE_CURVE_WITH_KNOTS('',1,(#81,#82,#83,#84,#85,#86,#87,#88,
    #89,#90,#91),.UNSPECIFIED.,.F.,.F.,(2,1,1,1,1,1,1,1,1,1,2),(0.,
    6.27864764423E-02,9.223154573615E-02,0.375653170005,0.454933757081,
    0.517258688204,0.654021588756,0.695248937952,0.765201943115,
    0.84565436014,1.),.UNSPECIFIED.);
#81 = CARTESIAN_POINT('',(1.5E+03,177.89466628003,0.));
#82 = CARTESIAN_POINT('',(1.403800081696E+03,151.70231782383,0.));
#83 = CARTESIAN_POINT('',(1.366340384515E+03,123.71982663376,0.));
#84 = CARTESIAN_POINT('',(916.53878808872,108.47798788442,0.));
#85 = CARTESIAN_POINT('',(824.58707119173,194.46699952071,0.));
#86 = CARTESIAN_POINT('',(733.22983715369,156.40506258501,0.));
#87 = CARTESIAN_POINT('',(522.13447490657,105.38751981009,0.));
#88 = CARTESIAN_POINT('',(459.42166433904,124.17674409591,0.));
#89 = CARTESIAN_POINT('',(363.47932959434,180.16132119726,0.));
#90 = CARTESIAN_POINT('',(242.52080279081,139.04862128014,0.));
#91 = CARTESIAN_POINT('',(0.,174.46644089062,0.));
#92 = PCURVE('',#40,#93);
#93 = DEFINITIONAL_REPRESENTATION('',(#94),#106);
#94 = B_SPLINE_CURVE_WITH_KNOTS('',1,(#95,#96,#97,#98,#99,#100,#101,#102
    ,#103,#104,#105),.UNSPECIFIED.,.F.,.F.,(2,1,1,1,1,1,1,1,1,1,2),(0.,
    6.27864764423E-02,9.223154573615E-02,0.375653170005,0.454933757081,
    0.517258688204,0.654021588756,0.695248937952,0.765201943115,
    0.84565436014,1.),.UNSPECIFIED.);
#95 = CARTESIAN_POINT('',(747.70489752713,102.89466628003));
#96 = CARTESIAN_POINT('',(651.50497922327,76.702317823838));
#97 = CARTESIAN_POINT('',(614.04528204216,48.719826633761));
#98 = CARTESIAN_POINT('',(164.24368561586,33.47798788442));
#99 = CARTESIAN_POINT('',(72.291968718873,119.46699952071));
#100 = CARTESIAN_POINT('',(-19.06526531917,81.405062585017));
#101 = CARTESIAN_POINT('',(-230.1606275662,30.387519810091));
#102 = CARTESIAN_POINT('',(-292.8734381338,49.17674409591));
#103 = CARTESIAN_POINT('',(-388.8157728785,105.16132119726));
#104 = CARTESIAN_POINT('',(-509.774299682,64.048621280141));
#105 = CARTESIAN_POINT('',(-752.2951024728,99.466440890624));
#106 = ( GEOMETRIC_REPRESENTATION_CONTEXT(2) 
PARAMETRIC_REPRESENTATION_CONTEXT() REPRESENTATION_CONTEXT('2D SPACE',''
  ) );
#107 = ORIENTED_EDGE('',*,*,#108,.T.);
#108 = EDGE_CURVE('',#77,#22,#109,.T.);
#109 = SURFACE_CURVE('',#110,(#114),.PCURVE_S1.);
#110 = LINE('',#111,#112);
#111 = CARTESIAN_POINT('',(0.,174.46644089062,0.));
#112 = VECTOR('',#113,1.);
#113 = DIRECTION('',(0.,-1.,0.));
#114 = PCURVE('',#40,#115);
#115 = DEFINITIONAL_REPRESENTATION('',(#116),#120);
#116 = LINE('',#117,#118);
#117 = CARTESIAN_POINT('',(-752.2951024728,99.466440890624));
#118 = VECTOR('',#119,1.);
#119 = DIRECTION('',(0.,-1.));
#120 = ( GEOMETRIC_REPRESENTATION_CONTEXT(2) 
PARAMETRIC_REPRESENTATION_CONTEXT() REPRESENTATION_CONTEXT('2D SPACE',''
  ) );
#121 = ( GEOMETRIC_REPRESENTATION_CONTEXT(3) 
GLOBAL_UNCERTAINTY_ASSIGNED_CONTEXT((#125)) GLOBAL_UNIT_ASSIGNED_CONTEXT
((#122,#123,#124)) REPRESENTATION_CONTEXT('Context #1',
  '3D Context with UNIT and UNCERTAINTY') );
#122 = ( LENGTH_UNIT() NAMED_UNIT(*) SI_UNIT(.MILLI.,.METRE.) );
#123 = ( NAMED_UNIT(*) PLANE_ANGLE_UNIT() SI_UNIT($,.RADIAN.) );
#124 = ( NAMED_UNIT(*) SI_UNIT($,.STERADIAN.) SOLID_ANGLE_UNIT() );
#125 = UNCERTAINTY_MEASURE_WITH_UNIT(LENGTH_MEASURE(1.E-07),#122,
  'distance_accuracy_value','confusion accuracy');
#126 = PRODUCT_RELATED_PRODUCT_CATEGORY('part',$,(#7));
ENDSEC;
END-ISO-10303-21;
