ISO-10303-21;
HEADER;
FILE_DESCRIPTION(('Open CASCADE Model'),'2;1');
FILE_NAME('Open CASCADE Shape Model','2026-05-28T17:04:49',('Author'),(
    'Open CASCADE'),'Open CASCADE STEP processor 7.9','Open CASCADE 7.9'
  ,'Unknown');
FILE_SCHEMA(('AUTOMOTIVE_DESIGN { 1 0 10303 214 1 1 1 1 }'));
ENDSEC;
DATA;
#1 = APPLICATION_PROTOCOL_DEFINITION('international standard',
  'automotive_design',2000,#2);
#2 = APPLICATION_CONTEXT(
  'core data for automotive mechanical design processes');
#3 = SHAPE_DEFINITION_REPRESENTATION(#4,#10);
#4 = PRODUCT_DEFINITION_SHAPE('','',#5);
#5 = PRODUCT_DEFINITION('design','',#6,#9);
#6 = PRODUCT_DEFINITION_FORMATION('','',#7);
#7 = PRODUCT('Open CASCADE STEP translator 7.9 44',
  'Open CASCADE STEP translator 7.9 44','',(#8));
#8 = PRODUCT_CONTEXT('',#2,'mechanical');
#9 = PRODUCT_DEFINITION_CONTEXT('part definition',#2,'design');
#10 = MANIFOLD_SURFACE_SHAPE_REPRESENTATION('',(#11,#15),#261);
#11 = AXIS2_PLACEMENT_3D('',#12,#13,#14);
#12 = CARTESIAN_POINT('',(0.,0.,0.));
#13 = DIRECTION('',(0.,0.,1.));
#14 = DIRECTION('',(1.,0.,-0.));
#15 = SHELL_BASED_SURFACE_MODEL('',(#16));
#16 = OPEN_SHELL('',(#17));
#17 = ADVANCED_FACE('',(#18),#75,.T.);
#18 = FACE_BOUND('',#19,.T.);
#19 = EDGE_LOOP('',(#20,#129,#145,#247));
#20 = ORIENTED_EDGE('',*,*,#21,.T.);
#21 = EDGE_CURVE('',#22,#24,#26,.T.);
#22 = VERTEX_POINT('',#23);
#23 = CARTESIAN_POINT('',(0.,4.270114212944E-02,0.));
#24 = VERTEX_POINT('',#25);
#25 = CARTESIAN_POINT('',(9.,-5.917186352612E-02,0.));
#26 = SURFACE_CURVE('',#27,(#74),.PCURVE_S1.);
#27 = B_SPLINE_CURVE_WITH_KNOTS('',1,(#28,#29,#30,#31,#32,#33,#34,#35,
    #36,#37,#38,#39,#40,#41,#42,#43,#44,#45,#46,#47,#48,#49,#50,#51,#52,
    #53,#54,#55,#56,#57,#58,#59,#60,#61,#62,#63,#64,#65,#66,#67,#68,#69,
    #70,#71,#72,#73),.UNSPECIFIED.,.F.,.F.,(2,1,1,1,1,1,1,1,1,1,1,1,1,1,
    1,1,1,1,1,1,1,1,1,1,1,1,1,1,1,1,1,1,1,1,1,1,1,1,1,1,1,1,1,1,1,2),(0.
    ,7.036112592048E-03,1.938583213997E-02,3.057737980375E-02,
    3.72237507506E-02,4.868700505078E-02,8.253845038071E-02,
    9.470566612229E-02,0.105979591286,0.128215524604,0.131699526573,
    0.171531547734,0.20011111393,0.296199010536,0.333372712817,
    0.392216104304,0.398319101121,0.408553265322,0.418411830653,
    0.451207195793,0.45708254241,0.462753316894,0.519873011971,
    0.547183461857,0.559002899034,0.603258808418,0.619373532812,
    0.650904403459,0.654915885689,0.666822576744,0.677295921615,
    0.694861642286,0.74265804751,0.751462163944,0.759740136533,
    0.774799699877,0.831173014459,0.840463655379,0.862480446115,
    0.895860678211,0.916524410103,0.928943075319,0.944533004088,
    0.952499347914,0.995369001564,1.),.UNSPECIFIED.);
#28 = CARTESIAN_POINT('',(0.,4.270114212944E-02,0.));
#29 = CARTESIAN_POINT('',(3.504731743019E-02,-1.370385642523E-02,0.));
#30 = CARTESIAN_POINT('',(0.14222915247,3.209372850683E-02,0.));
#31 = CARTESIAN_POINT('',(0.234156631964,-1.99262759123E-02,0.));
#32 = CARTESIAN_POINT('',(0.284231976237,1.785324870464E-02,0.));
#33 = CARTESIAN_POINT('',(0.371277292559,-4.639746697534E-02,0.));
#34 = CARTESIAN_POINT('',(0.690663839037,-3.83111262672E-02,0.));
#35 = CARTESIAN_POINT('',(0.798610437071,8.594639917461E-04,0.));
#36 = CARTESIAN_POINT('',(0.899566701971,-3.274741045138E-02,0.));
#37 = CARTESIAN_POINT('',(1.100605834825,2.746345365179E-02,0.));
#38 = CARTESIAN_POINT('',(1.119693498539,6.888267825765E-04,0.));
#39 = CARTESIAN_POINT('',(1.493936203383,3.630215377641E-02,0.));
#40 = CARTESIAN_POINT('',(1.751653904444,-4.330634022252E-02,0.));
#41 = CARTESIAN_POINT('',(2.658517152389,-3.876811398821E-02,0.));
#42 = CARTESIAN_POINT('',(3.009233040457,-4.825796020908E-02,0.));
#43 = CARTESIAN_POINT('',(3.564587261506,-4.529723774691E-02,0.));
#44 = CARTESIAN_POINT('',(3.62133794855,-5.515155144714E-02,0.));
#45 = CARTESIAN_POINT('',(3.661702554517,3.259965220417E-02,0.));
#46 = CARTESIAN_POINT('',(3.70082859344,-5.181891489544E-02,0.));
#47 = CARTESIAN_POINT('',(4.007310349824,-8.54558296224E-03,0.));
#48 = CARTESIAN_POINT('',(4.059811447235,9.300589929822E-03,0.));
#49 = CARTESIAN_POINT('',(4.110710385186,-7.244867516145E-03,0.));
#50 = CARTESIAN_POINT('',(4.649170543587,1.888771720197E-02,0.));
#51 = CARTESIAN_POINT('',(4.906844111004,2.537363916469E-02,0.));
#52 = CARTESIAN_POINT('',(5.018251471437,3.10422794427E-02,0.));
#53 = CARTESIAN_POINT('',(5.435501984808,5.010864126514E-02,0.));
#54 = CARTESIAN_POINT('',(5.579243821657,4.122123423375E-04,0.));
#55 = CARTESIAN_POINT('',(5.873105265904,-4.653140108567E-02,0.));
#56 = CARTESIAN_POINT('',(5.894963317813,-1.561823631293E-02,0.));
#57 = CARTESIAN_POINT('',(6.006571992889,-2.517075930693E-03,0.));
#58 = CARTESIAN_POINT('',(6.104795475615,8.56884980989E-03,0.));
#59 = CARTESIAN_POINT('',(6.270524507471,4.271804841937E-03,0.));
#60 = CARTESIAN_POINT('',(6.720585433542,3.488671829137E-02,0.));
#61 = CARTESIAN_POINT('',(6.759078775943,-3.875230526317E-02,0.));
#62 = CARTESIAN_POINT('',(6.781144854927,3.619404440622E-02,0.));
#63 = CARTESIAN_POINT('',(6.908949294289,-2.599473080728E-02,0.));
#64 = CARTESIAN_POINT('',(7.440973452125,-3.119820137954E-02,0.));
#65 = CARTESIAN_POINT('',(7.52579775862,-8.984285043328E-03,0.));
#66 = CARTESIAN_POINT('',(7.730696247241,-4.355116499458E-02,0.));
#67 = CARTESIAN_POINT('',(8.03817275463,2.507395770592E-02,0.));
#68 = CARTESIAN_POINT('',(8.219864671491,-4.579406654914E-02,0.));
#69 = CARTESIAN_POINT('',(8.335639766474,-2.752925515192E-02,0.));
#70 = CARTESIAN_POINT('',(8.482541573101,-3.584997933141E-02,0.));
#71 = CARTESIAN_POINT('',(8.555983573225,-1.974956514328E-02,0.));
#72 = CARTESIAN_POINT('',(8.959997696272,-4.15611620388E-02,0.));
#73 = CARTESIAN_POINT('',(9.,-5.917186352612E-02,0.));
#74 = PCURVE('',#75,#80);
#75 = PLANE('',#76);
#76 = AXIS2_PLACEMENT_3D('',#77,#78,#79);
#77 = CARTESIAN_POINT('',(4.524703013113,0.1,0.));
#78 = DIRECTION('',(0.,0.,1.));
#79 = DIRECTION('',(1.,0.,-0.));
#80 = DEFINITIONAL_REPRESENTATION('',(#81),#128);
#81 = B_SPLINE_CURVE_WITH_KNOTS('',1,(#82,#83,#84,#85,#86,#87,#88,#89,
    #90,#91,#92,#93,#94,#95,#96,#97,#98,#99,#100,#101,#102,#103,#104,
    #105,#106,#107,#108,#109,#110,#111,#112,#113,#114,#115,#116,#117,
    #118,#119,#120,#121,#122,#123,#124,#125,#126,#127),.UNSPECIFIED.,.F.
  ,.F.,(2,1,1,1,1,1,1,1,1,1,1,1,1,1,1,1,1,1,1,1,1,1,1,1,1,1,1,1,1,1,1,1,
    1,1,1,1,1,1,1,1,1,1,1,1,1,2),(0.,7.036112592048E-03,
    1.938583213997E-02,3.057737980375E-02,3.72237507506E-02,
    4.868700505078E-02,8.253845038071E-02,9.470566612229E-02,
    0.105979591286,0.128215524604,0.131699526573,0.171531547734,
    0.20011111393,0.296199010536,0.333372712817,0.392216104304,
    0.398319101121,0.408553265322,0.418411830653,0.451207195793,
    0.45708254241,0.462753316894,0.519873011971,0.547183461857,
    0.559002899034,0.603258808418,0.619373532812,0.650904403459,
    0.654915885689,0.666822576744,0.677295921615,0.694861642286,
    0.74265804751,0.751462163944,0.759740136533,0.774799699877,
    0.831173014459,0.840463655379,0.862480446115,0.895860678211,
    0.916524410103,0.928943075319,0.944533004088,0.952499347914,
    0.995369001564,1.),.UNSPECIFIED.);
#82 = CARTESIAN_POINT('',(-4.524703013113,-5.729885787056E-02));
#83 = CARTESIAN_POINT('',(-4.489655695683,-0.113703856425));
#84 = CARTESIAN_POINT('',(-4.382473860643,-6.790627149317E-02));
#85 = CARTESIAN_POINT('',(-4.290546381149,-0.119926275912));
#86 = CARTESIAN_POINT('',(-4.240471036876,-8.214675129536E-02));
#87 = CARTESIAN_POINT('',(-4.153425720554,-0.146397466975));
#88 = CARTESIAN_POINT('',(-3.834039174076,-0.138311126267));
#89 = CARTESIAN_POINT('',(-3.726092576042,-9.914053600825E-02));
#90 = CARTESIAN_POINT('',(-3.625136311142,-0.132747410451));
#91 = CARTESIAN_POINT('',(-3.424097178288,-7.253654634821E-02));
#92 = CARTESIAN_POINT('',(-3.405009514574,-9.931117321742E-02));
#93 = CARTESIAN_POINT('',(-3.03076680973,-6.369784622359E-02));
#94 = CARTESIAN_POINT('',(-2.773049108669,-0.143306340223));
#95 = CARTESIAN_POINT('',(-1.866185860724,-0.138768113988));
#96 = CARTESIAN_POINT('',(-1.515469972656,-0.148257960209));
#97 = CARTESIAN_POINT('',(-0.960115751606,-0.145297237747));
#98 = CARTESIAN_POINT('',(-0.903365064563,-0.155151551447));
#99 = CARTESIAN_POINT('',(-0.863000458595,-6.740034779583E-02));
#100 = CARTESIAN_POINT('',(-0.823874419673,-0.151818914895));
#101 = CARTESIAN_POINT('',(-0.517392663289,-0.108545582962));
#102 = CARTESIAN_POINT('',(-0.464891565878,-9.069941007018E-02));
#103 = CARTESIAN_POINT('',(-0.413992627927,-0.107244867516));
#104 = CARTESIAN_POINT('',(0.124467530474,-8.111228279803E-02));
#105 = CARTESIAN_POINT('',(0.382141097891,-7.462636083531E-02));
#106 = CARTESIAN_POINT('',(0.493548458325,-6.89577205573E-02));
#107 = CARTESIAN_POINT('',(0.910798971695,-4.989135873486E-02));
#108 = CARTESIAN_POINT('',(1.054540808544,-9.958778765766E-02));
#109 = CARTESIAN_POINT('',(1.348402252791,-0.146531401086));
#110 = CARTESIAN_POINT('',(1.3702603047,-0.115618236313));
#111 = CARTESIAN_POINT('',(1.481868979776,-0.102517075931));
#112 = CARTESIAN_POINT('',(1.580092462502,-9.143115019011E-02));
#113 = CARTESIAN_POINT('',(1.745821494358,-9.572819515806E-02));
#114 = CARTESIAN_POINT('',(2.19588242043,-6.511328170863E-02));
#115 = CARTESIAN_POINT('',(2.23437576283,-0.138752305263));
#116 = CARTESIAN_POINT('',(2.256441841814,-6.380595559378E-02));
#117 = CARTESIAN_POINT('',(2.384246281176,-0.125994730807));
#118 = CARTESIAN_POINT('',(2.916270439012,-0.13119820138));
#119 = CARTESIAN_POINT('',(3.001094745507,-0.108984285043));
#120 = CARTESIAN_POINT('',(3.205993234128,-0.143551164995));
#121 = CARTESIAN_POINT('',(3.513469741517,-7.492604229408E-02));
#122 = CARTESIAN_POINT('',(3.695161658378,-0.145794066549));
#123 = CARTESIAN_POINT('',(3.810936753361,-0.127529255152));
#124 = CARTESIAN_POINT('',(3.957838559988,-0.135849979331));
#125 = CARTESIAN_POINT('',(4.031280560112,-0.119749565143));
#126 = CARTESIAN_POINT('',(4.435294683159,-0.141561162039));
#127 = CARTESIAN_POINT('',(4.475296986887,-0.159171863526));
#128 = ( GEOMETRIC_REPRESENTATION_CONTEXT(2) 
PARAMETRIC_REPRESENTATION_CONTEXT() REPRESENTATION_CONTEXT('2D SPACE',''
  ) );
#129 = ORIENTED_EDGE('',*,*,#130,.T.);
#130 = EDGE_CURVE('',#24,#131,#133,.T.);
#131 = VERTEX_POINT('',#132);
#132 = CARTESIAN_POINT('',(9.,0.259171863526,0.));
#133 = SURFACE_CURVE('',#134,(#138),.PCURVE_S1.);
#134 = LINE('',#135,#136);
#135 = CARTESIAN_POINT('',(9.,-5.917186352612E-02,0.));
#136 = VECTOR('',#137,1.);
#137 = DIRECTION('',(0.,1.,0.));
#138 = PCURVE('',#75,#139);
#139 = DEFINITIONAL_REPRESENTATION('',(#140),#144);
#140 = LINE('',#141,#142);
#141 = CARTESIAN_POINT('',(4.475296986887,-0.159171863526));
#142 = VECTOR('',#143,1.);
#143 = DIRECTION('',(0.,1.));
#144 = ( GEOMETRIC_REPRESENTATION_CONTEXT(2) 
PARAMETRIC_REPRESENTATION_CONTEXT() REPRESENTATION_CONTEXT('2D SPACE',''
  ) );
#145 = ORIENTED_EDGE('',*,*,#146,.T.);
#146 = EDGE_CURVE('',#131,#147,#149,.T.);
#147 = VERTEX_POINT('',#148);
#148 = CARTESIAN_POINT('',(0.,0.157298857871,0.));
#149 = SURFACE_CURVE('',#150,(#197),.PCURVE_S1.);
#150 = B_SPLINE_CURVE_WITH_KNOTS('',1,(#151,#152,#153,#154,#155,#156,
    #157,#158,#159,#160,#161,#162,#163,#164,#165,#166,#167,#168,#169,
    #170,#171,#172,#173,#174,#175,#176,#177,#178,#179,#180,#181,#182,
    #183,#184,#185,#186,#187,#188,#189,#190,#191,#192,#193,#194,#195,
    #196),.UNSPECIFIED.,.F.,.F.,(2,1,1,1,1,1,1,1,1,1,1,1,1,1,1,1,1,1,1,1
    ,1,1,1,1,1,1,1,1,1,1,1,1,1,1,1,1,1,1,1,1,1,1,1,1,1,2),(0.,
    4.630998436446E-03,4.750065208566E-02,5.546699591234E-02,
    7.105692468063E-02,8.347558989723E-02,0.104139321789,0.137519553885,
    0.159536344621,0.168826985541,0.225200300123,0.240259863467,
    0.248537836056,0.25734195249,0.305138357714,0.322704078385,
    0.333177423256,0.345084114311,0.349095596541,0.380626467188,
    0.396741191582,0.440997100966,0.452816538143,0.480126988029,
    0.537246683106,0.54291745759,0.548792804207,0.581588169347,
    0.591446734678,0.601680898879,0.607783895696,0.666627287183,
    0.703800989464,0.79988888607,0.828468452266,0.868300473427,
    0.871784475396,0.894020408714,0.905294333878,0.917461549619,
    0.951312994949,0.962776249249,0.969422620196,0.98061416786,
    0.992963887408,1.),.UNSPECIFIED.);
#151 = CARTESIAN_POINT('',(9.,0.259171863526,0.));
#152 = CARTESIAN_POINT('',(8.959997696272,0.241561162039,0.));
#153 = CARTESIAN_POINT('',(8.555983573225,0.219749565143,0.));
#154 = CARTESIAN_POINT('',(8.482541573101,0.235849979331,0.));
#155 = CARTESIAN_POINT('',(8.335639766474,0.227529255152,0.));
#156 = CARTESIAN_POINT('',(8.219864671491,0.245794066549,0.));
#157 = CARTESIAN_POINT('',(8.03817275463,0.174926042294,0.));
#158 = CARTESIAN_POINT('',(7.730696247241,0.243551164995,0.));
#159 = CARTESIAN_POINT('',(7.52579775862,0.208984285043,0.));
#160 = CARTESIAN_POINT('',(7.440973452125,0.23119820138,0.));
#161 = CARTESIAN_POINT('',(6.908949294289,0.225994730807,0.));
#162 = CARTESIAN_POINT('',(6.781144854927,0.163805955594,0.));
#163 = CARTESIAN_POINT('',(6.759078775943,0.238752305263,0.));
#164 = CARTESIAN_POINT('',(6.720585433542,0.165113281709,0.));
#165 = CARTESIAN_POINT('',(6.270524507471,0.195728195158,0.));
#166 = CARTESIAN_POINT('',(6.104795475615,0.19143115019,0.));
#167 = CARTESIAN_POINT('',(6.006571992889,0.202517075931,0.));
#168 = CARTESIAN_POINT('',(5.894963317813,0.215618236313,0.));
#169 = CARTESIAN_POINT('',(5.873105265904,0.246531401086,0.));
#170 = CARTESIAN_POINT('',(5.579243821657,0.199587787658,0.));
#171 = CARTESIAN_POINT('',(5.435501984808,0.149891358735,0.));
#172 = CARTESIAN_POINT('',(5.018251471437,0.168957720557,0.));
#173 = CARTESIAN_POINT('',(4.906844111004,0.174626360835,0.));
#174 = CARTESIAN_POINT('',(4.649170543587,0.181112282798,0.));
#175 = CARTESIAN_POINT('',(4.110710385186,0.207244867516,0.));
#176 = CARTESIAN_POINT('',(4.059811447235,0.19069941007,0.));
#177 = CARTESIAN_POINT('',(4.007310349824,0.208545582962,0.));
#178 = CARTESIAN_POINT('',(3.70082859344,0.251818914895,0.));
#179 = CARTESIAN_POINT('',(3.661702554517,0.167400347796,0.));
#180 = CARTESIAN_POINT('',(3.62133794855,0.255151551447,0.));
#181 = CARTESIAN_POINT('',(3.564587261506,0.245297237747,0.));
#182 = CARTESIAN_POINT('',(3.009233040457,0.248257960209,0.));
#183 = CARTESIAN_POINT('',(2.658517152389,0.238768113988,0.));
#184 = CARTESIAN_POINT('',(1.751653904444,0.243306340223,0.));
#185 = CARTESIAN_POINT('',(1.493936203383,0.163697846224,0.));
#186 = CARTESIAN_POINT('',(1.119693498539,0.199311173217,0.));
#187 = CARTESIAN_POINT('',(1.100605834825,0.172536546348,0.));
#188 = CARTESIAN_POINT('',(0.899566701971,0.232747410451,0.));
#189 = CARTESIAN_POINT('',(0.798610437071,0.199140536008,0.));
#190 = CARTESIAN_POINT('',(0.690663839037,0.238311126267,0.));
#191 = CARTESIAN_POINT('',(0.371277292559,0.246397466975,0.));
#192 = CARTESIAN_POINT('',(0.284231976237,0.182146751295,0.));
#193 = CARTESIAN_POINT('',(0.234156631964,0.219926275912,0.));
#194 = CARTESIAN_POINT('',(0.14222915247,0.167906271493,0.));
#195 = CARTESIAN_POINT('',(3.504731743019E-02,0.213703856425,0.));
#196 = CARTESIAN_POINT('',(0.,0.157298857871,0.));
#197 = PCURVE('',#75,#198);
#198 = DEFINITIONAL_REPRESENTATION('',(#199),#246);
#199 = B_SPLINE_CURVE_WITH_KNOTS('',1,(#200,#201,#202,#203,#204,#205,
    #206,#207,#208,#209,#210,#211,#212,#213,#214,#215,#216,#217,#218,
    #219,#220,#221,#222,#223,#224,#225,#226,#227,#228,#229,#230,#231,
    #232,#233,#234,#235,#236,#237,#238,#239,#240,#241,#242,#243,#244,
    #245),.UNSPECIFIED.,.F.,.F.,(2,1,1,1,1,1,1,1,1,1,1,1,1,1,1,1,1,1,1,1
    ,1,1,1,1,1,1,1,1,1,1,1,1,1,1,1,1,1,1,1,1,1,1,1,1,1,2),(0.,
    4.630998436446E-03,4.750065208566E-02,5.546699591234E-02,
    7.105692468063E-02,8.347558989723E-02,0.104139321789,0.137519553885,
    0.159536344621,0.168826985541,0.225200300123,0.240259863467,
    0.248537836056,0.25734195249,0.305138357714,0.322704078385,
    0.333177423256,0.345084114311,0.349095596541,0.380626467188,
    0.396741191582,0.440997100966,0.452816538143,0.480126988029,
    0.537246683106,0.54291745759,0.548792804207,0.581588169347,
    0.591446734678,0.601680898879,0.607783895696,0.666627287183,
    0.703800989464,0.79988888607,0.828468452266,0.868300473427,
    0.871784475396,0.894020408714,0.905294333878,0.917461549619,
    0.951312994949,0.962776249249,0.969422620196,0.98061416786,
    0.992963887408,1.),.UNSPECIFIED.);
#200 = CARTESIAN_POINT('',(4.475296986887,0.159171863526));
#201 = CARTESIAN_POINT('',(4.435294683159,0.141561162039));
#202 = CARTESIAN_POINT('',(4.031280560112,0.119749565143));
#203 = CARTESIAN_POINT('',(3.957838559988,0.135849979331));
#204 = CARTESIAN_POINT('',(3.810936753361,0.127529255152));
#205 = CARTESIAN_POINT('',(3.695161658378,0.145794066549));
#206 = CARTESIAN_POINT('',(3.513469741517,7.492604229408E-02));
#207 = CARTESIAN_POINT('',(3.205993234128,0.143551164995));
#208 = CARTESIAN_POINT('',(3.001094745507,0.108984285043));
#209 = CARTESIAN_POINT('',(2.916270439012,0.13119820138));
#210 = CARTESIAN_POINT('',(2.384246281176,0.125994730807));
#211 = CARTESIAN_POINT('',(2.256441841814,6.380595559378E-02));
#212 = CARTESIAN_POINT('',(2.23437576283,0.138752305263));
#213 = CARTESIAN_POINT('',(2.19588242043,6.511328170863E-02));
#214 = CARTESIAN_POINT('',(1.745821494358,9.572819515806E-02));
#215 = CARTESIAN_POINT('',(1.580092462502,9.143115019011E-02));
#216 = CARTESIAN_POINT('',(1.481868979776,0.102517075931));
#217 = CARTESIAN_POINT('',(1.3702603047,0.115618236313));
#218 = CARTESIAN_POINT('',(1.348402252791,0.146531401086));
#219 = CARTESIAN_POINT('',(1.054540808544,9.958778765766E-02));
#220 = CARTESIAN_POINT('',(0.910798971695,4.989135873486E-02));
#221 = CARTESIAN_POINT('',(0.493548458325,6.89577205573E-02));
#222 = CARTESIAN_POINT('',(0.382141097891,7.462636083531E-02));
#223 = CARTESIAN_POINT('',(0.124467530474,8.111228279803E-02));
#224 = CARTESIAN_POINT('',(-0.413992627927,0.107244867516));
#225 = CARTESIAN_POINT('',(-0.464891565878,9.069941007018E-02));
#226 = CARTESIAN_POINT('',(-0.517392663289,0.108545582962));
#227 = CARTESIAN_POINT('',(-0.823874419673,0.151818914895));
#228 = CARTESIAN_POINT('',(-0.863000458595,6.740034779583E-02));
#229 = CARTESIAN_POINT('',(-0.903365064563,0.155151551447));
#230 = CARTESIAN_POINT('',(-0.960115751606,0.145297237747));
#231 = CARTESIAN_POINT('',(-1.515469972656,0.148257960209));
#232 = CARTESIAN_POINT('',(-1.866185860724,0.138768113988));
#233 = CARTESIAN_POINT('',(-2.773049108669,0.143306340223));
#234 = CARTESIAN_POINT('',(-3.03076680973,6.369784622359E-02));
#235 = CARTESIAN_POINT('',(-3.405009514574,9.931117321742E-02));
#236 = CARTESIAN_POINT('',(-3.424097178288,7.253654634821E-02));
#237 = CARTESIAN_POINT('',(-3.625136311142,0.132747410451));
#238 = CARTESIAN_POINT('',(-3.726092576042,9.914053600825E-02));
#239 = CARTESIAN_POINT('',(-3.834039174076,0.138311126267));
#240 = CARTESIAN_POINT('',(-4.153425720554,0.146397466975));
#241 = CARTESIAN_POINT('',(-4.240471036876,8.214675129536E-02));
#242 = CARTESIAN_POINT('',(-4.290546381149,0.119926275912));
#243 = CARTESIAN_POINT('',(-4.382473860643,6.790627149317E-02));
#244 = CARTESIAN_POINT('',(-4.489655695683,0.113703856425));
#245 = CARTESIAN_POINT('',(-4.524703013113,5.729885787056E-02));
#246 = ( GEOMETRIC_REPRESENTATION_CONTEXT(2) 
PARAMETRIC_REPRESENTATION_CONTEXT() REPRESENTATION_CONTEXT('2D SPACE',''
  ) );
#247 = ORIENTED_EDGE('',*,*,#248,.T.);
#248 = EDGE_CURVE('',#147,#22,#249,.T.);
#249 = SURFACE_CURVE('',#250,(#254),.PCURVE_S1.);
#250 = LINE('',#251,#252);
#251 = CARTESIAN_POINT('',(0.,0.157298857871,0.));
#252 = VECTOR('',#253,1.);
#253 = DIRECTION('',(0.,-1.,0.));
#254 = PCURVE('',#75,#255);
#255 = DEFINITIONAL_REPRESENTATION('',(#256),#260);
#256 = LINE('',#257,#258);
#257 = CARTESIAN_POINT('',(-4.524703013113,5.729885787056E-02));
#258 = VECTOR('',#259,1.);
#259 = DIRECTION('',(0.,-1.));
#260 = ( GEOMETRIC_REPRESENTATION_CONTEXT(2) 
PARAMETRIC_REPRESENTATION_CONTEXT() REPRESENTATION_CONTEXT('2D SPACE',''
  ) );
#261 = ( GEOMETRIC_REPRESENTATION_CONTEXT(3) 
GLOBAL_UNCERTAINTY_ASSIGNED_CONTEXT((#265)) GLOBAL_UNIT_ASSIGNED_CONTEXT
((#262,#263,#264)) REPRESENTATION_CONTEXT('Context #1',
  '3D Context with UNIT and UNCERTAINTY') );
#262 = ( LENGTH_UNIT() NAMED_UNIT(*) SI_UNIT(.MILLI.,.METRE.) );
#263 = ( NAMED_UNIT(*) PLANE_ANGLE_UNIT() SI_UNIT($,.RADIAN.) );
#264 = ( NAMED_UNIT(*) SI_UNIT($,.STERADIAN.) SOLID_ANGLE_UNIT() );
#265 = UNCERTAINTY_MEASURE_WITH_UNIT(LENGTH_MEASURE(1.E-07),#262,
  'distance_accuracy_value','confusion accuracy');
#266 = PRODUCT_RELATED_PRODUCT_CATEGORY('part',$,(#7));
ENDSEC;
END-ISO-10303-21;
