ISO-10303-21;
HEADER;
FILE_DESCRIPTION(('Open CASCADE Model'),'2;1');
FILE_NAME('Open CASCADE Shape Model','2026-05-28T17:04:48',('Author'),(
    'Open CASCADE'),'Open CASCADE STEP processor 7.9','Open CASCADE 7.9'
  ,'Unknown');
FILE_SCHEMA(('AUTOMOTIVE_DESIGN { 1 0 10303 214 1 1 1 1 }'));
ENDSEC;
DATA;
#1 = APPLICATION_PROTOCOL_DEFINITION('international standard',
  'automotive_design',2000,#2);
#2 = APPLICATION_CONTEXT(
  'core data for automotive mechanical design processes');
#3 = SHAPE_DEFINITION_REPRESENTATION(#4,#10);
#4 = PRODUCT_DEFINITION_SHAPE('','',#5);
#5 = PRODUCT_DEFINITION('design','',#6,#9);
#6 = PRODUCT_DEFINITION_FORMATION('','',#7);
#7 = PRODUCT('Open CASCADE STEP translator 7.9 3',
  'Open CASCADE STEP translator 7.9 3','',(#8));
#8 = PRODUCT_CONTEXT('',#2,'mechanical');
#9 = PRODUCT_DEFINITION_CONTEXT('part definition',#2,'design');
#10 = MANIFOLD_SURFACE_SHAPE_REPRESENTATION('',(#11,#15),#233);
#11 = AXIS2_PLACEMENT_3D('',#12,#13,#14);
#12 = CARTESIAN_POINT('',(0.,0.,0.));
#13 = DIRECTION('',(0.,0.,1.));
#14 = DIRECTION('',(1.,0.,-0.));
#15 = SHELL_BASED_SURFACE_MODEL('',(#16));
#16 = OPEN_SHELL('',(#17));
#17 = ADVANCED_FACE('',(#18),#68,.T.);
#18 = FACE_BOUND('',#19,.T.);
#19 = EDGE_LOOP('',(#20,#115,#131,#219));
#20 = ORIENTED_EDGE('',*,*,#21,.T.);
#21 = EDGE_CURVE('',#22,#24,#26,.T.);
#22 = VERTEX_POINT('',#23);
#23 = CARTESIAN_POINT('',(0.,5.740655041436E-02,0.));
#24 = VERTEX_POINT('',#25);
#25 = CARTESIAN_POINT('',(7.6,4.866399983262E-02,0.));
#26 = SURFACE_CURVE('',#27,(#67),.PCURVE_S1.);
#27 = B_SPLINE_CURVE_WITH_KNOTS('',1,(#28,#29,#30,#31,#32,#33,#34,#35,
    #36,#37,#38,#39,#40,#41,#42,#43,#44,#45,#46,#47,#48,#49,#50,#51,#52,
    #53,#54,#55,#56,#57,#58,#59,#60,#61,#62,#63,#64,#65,#66),
  .UNSPECIFIED.,.F.,.F.,(2,1,1,1,1,1,1,1,1,1,1,1,1,1,1,1,1,1,1,1,1,1,1,1
    ,1,1,1,1,1,1,1,1,1,1,1,1,1,1,2),(0.,2.40940116493E-02,
    4.148542799254E-02,8.100122570243E-02,8.7235647719E-02,
    0.105899571306,0.144732515208,0.169459096269,0.177390721781,
    0.260652239602,0.296636111101,0.320710326558,0.332594586405,
    0.349895739874,0.413585955593,0.430402805759,0.43724316024,
    0.469851080899,0.477992336364,0.486200966692,0.496191358421,
    0.506303598097,0.531145924511,0.578420435591,0.590505137792,
    0.601875352688,0.605176775919,0.61173802887,0.620402455863,
    0.654024927675,0.674931120411,0.739219210792,0.775267771951,
    0.798275453055,0.866528642099,0.930106728601,0.94194420706,
    0.961535072937,1.),.UNSPECIFIED.);
#28 = CARTESIAN_POINT('',(0.,5.740655041436E-02,0.));
#29 = CARTESIAN_POINT('',(0.173309419826,-3.915503090332E-02,0.));
#30 = CARTESIAN_POINT('',(0.31626772135,-4.753929262077E-02,0.));
#31 = CARTESIAN_POINT('',(0.628747999411,4.317010932017E-02,0.));
#32 = CARTESIAN_POINT('',(0.641776840663,-6.484337224686E-03,0.));
#33 = CARTESIAN_POINT('',(0.785862554691,4.697091106375E-02,0.));
#34 = CARTESIAN_POINT('',(1.098383835382,-2.066881116478E-02,0.));
#35 = CARTESIAN_POINT('',(1.29650656088,2.625194593932E-02,0.));
#36 = CARTESIAN_POINT('',(1.343473150338,-1.913071616303E-02,0.));
#37 = CARTESIAN_POINT('',(2.029015039498,-2.723935371443E-02,0.));
#38 = CARTESIAN_POINT('',(2.325270343545,-3.223769903012E-02,0.));
#39 = CARTESIAN_POINT('',(2.506945213729,4.707108648529E-02,0.));
#40 = CARTESIAN_POINT('',(2.519924379803,-4.992142141651E-02,0.));
#41 = CARTESIAN_POINT('',(2.636210514465,3.237432109261E-02,0.));
#42 = CARTESIAN_POINT('',(3.160136256497,5.551049325886E-02,0.));
#43 = CARTESIAN_POINT('',(3.283907102291,-6.582296326978E-03,0.));
#44 = CARTESIAN_POINT('',(3.335727098318,1.548932593651E-02,0.));
#45 = CARTESIAN_POINT('',(3.598519448033,-3.957476917589E-02,0.));
#46 = CARTESIAN_POINT('',(3.665506120766,-3.699017664772E-02,0.));
#47 = CARTESIAN_POINT('',(3.69860331437,2.194333286127E-02,0.));
#48 = CARTESIAN_POINT('',(3.729373157094,-5.434792740837E-02,0.));
#49 = CARTESIAN_POINT('',(3.754330226258,2.508985942319E-02,0.));
#50 = CARTESIAN_POINT('',(3.957110258784,-1.806855507806E-03,0.));
#51 = CARTESIAN_POINT('',(4.345133198058,2.928418913189E-02,0.));
#52 = CARTESIAN_POINT('',(4.402068723958,-5.232522840588E-02,0.));
#53 = CARTESIAN_POINT('',(4.416064661723,4.024706189016E-02,0.));
#54 = CARTESIAN_POINT('',(4.439144563737,5.461072567292E-02,0.));
#55 = CARTESIAN_POINT('',(4.466098748551,7.788352799635E-03,0.));
#56 = CARTESIAN_POINT('',(4.490957735259,-5.90850676867E-02,0.));
#57 = CARTESIAN_POINT('',(4.767547189339,-4.700127195059E-02,0.));
#58 = CARTESIAN_POINT('',(4.938834171817,-2.983296233483E-02,0.));
#59 = CARTESIAN_POINT('',(5.467918465227,-4.689509890542E-02,0.));
#60 = CARTESIAN_POINT('',(5.764748426748,-4.721359676374E-02,0.));
#61 = CARTESIAN_POINT('',(5.948787727102,-2.263003246374E-03,0.));
#62 = CARTESIAN_POINT('',(6.510268559102,2.20885137803E-02,0.));
#63 = CARTESIAN_POINT('',(7.030912899664,-3.264149185332E-02,0.));
#64 = CARTESIAN_POINT('',(7.12748105781,-1.939935158013E-02,0.));
#65 = CARTESIAN_POINT('',(7.285050020635,1.516107253515E-02,0.));
#66 = CARTESIAN_POINT('',(7.6,4.866399983262E-02,0.));
#67 = PCURVE('',#68,#73);
#68 = PLANE('',#69);
#69 = AXIS2_PLACEMENT_3D('',#70,#71,#72);
#70 = CARTESIAN_POINT('',(3.757450210028,1.E-01,0.));
#71 = DIRECTION('',(0.,0.,1.));
#72 = DIRECTION('',(1.,0.,-0.));
#73 = DEFINITIONAL_REPRESENTATION('',(#74),#114);
#74 = B_SPLINE_CURVE_WITH_KNOTS('',1,(#75,#76,#77,#78,#79,#80,#81,#82,
    #83,#84,#85,#86,#87,#88,#89,#90,#91,#92,#93,#94,#95,#96,#97,#98,#99,
    #100,#101,#102,#103,#104,#105,#106,#107,#108,#109,#110,#111,#112,
    #113),.UNSPECIFIED.,.F.,.F.,(2,1,1,1,1,1,1,1,1,1,1,1,1,1,1,1,1,1,1,1
    ,1,1,1,1,1,1,1,1,1,1,1,1,1,1,1,1,1,1,2),(0.,2.40940116493E-02,
    4.148542799254E-02,8.100122570243E-02,8.7235647719E-02,
    0.105899571306,0.144732515208,0.169459096269,0.177390721781,
    0.260652239602,0.296636111101,0.320710326558,0.332594586405,
    0.349895739874,0.413585955593,0.430402805759,0.43724316024,
    0.469851080899,0.477992336364,0.486200966692,0.496191358421,
    0.506303598097,0.531145924511,0.578420435591,0.590505137792,
    0.601875352688,0.605176775919,0.61173802887,0.620402455863,
    0.654024927675,0.674931120411,0.739219210792,0.775267771951,
    0.798275453055,0.866528642099,0.930106728601,0.94194420706,
    0.961535072937,1.),.UNSPECIFIED.);
#75 = CARTESIAN_POINT('',(-3.757450210028,-4.259344958564E-02));
#76 = CARTESIAN_POINT('',(-3.584140790203,-0.139155030903));
#77 = CARTESIAN_POINT('',(-3.441182488678,-0.147539292621));
#78 = CARTESIAN_POINT('',(-3.128702210618,-5.682989067983E-02));
#79 = CARTESIAN_POINT('',(-3.115673369365,-0.106484337225));
#80 = CARTESIAN_POINT('',(-2.971587655337,-5.302908893625E-02));
#81 = CARTESIAN_POINT('',(-2.659066374646,-0.120668811165));
#82 = CARTESIAN_POINT('',(-2.460943649148,-7.374805406068E-02));
#83 = CARTESIAN_POINT('',(-2.41397705969,-0.119130716163));
#84 = CARTESIAN_POINT('',(-1.72843517053,-0.127239353714));
#85 = CARTESIAN_POINT('',(-1.432179866483,-0.13223769903));
#86 = CARTESIAN_POINT('',(-1.250504996299,-5.292891351471E-02));
#87 = CARTESIAN_POINT('',(-1.237525830225,-0.149921421417));
#88 = CARTESIAN_POINT('',(-1.121239695564,-6.762567890739E-02));
#89 = CARTESIAN_POINT('',(-0.597313953532,-4.448950674114E-02));
#90 = CARTESIAN_POINT('',(-0.473543107738,-0.106582296327));
#91 = CARTESIAN_POINT('',(-0.42172311171,-8.451067406349E-02));
#92 = CARTESIAN_POINT('',(-0.158930761996,-0.139574769176));
#93 = CARTESIAN_POINT('',(-9.194408926232E-02,-0.136990176648));
#94 = CARTESIAN_POINT('',(-5.884689565834E-02,-7.805666713873E-02));
#95 = CARTESIAN_POINT('',(-2.8077052934E-02,-0.154347927408));
#96 = CARTESIAN_POINT('',(-3.119983770015E-03,-7.491014057681E-02));
#97 = CARTESIAN_POINT('',(0.199660048755,-0.101806855508));
#98 = CARTESIAN_POINT('',(0.58768298803,-7.071581086811E-02));
#99 = CARTESIAN_POINT('',(0.64461851393,-0.152325228406));
#100 = CARTESIAN_POINT('',(0.658614451695,-5.975293810984E-02));
#101 = CARTESIAN_POINT('',(0.681694353708,-4.538927432708E-02));
#102 = CARTESIAN_POINT('',(0.708648538522,-9.221164720036E-02));
#103 = CARTESIAN_POINT('',(0.73350752523,-0.159085067687));
#104 = CARTESIAN_POINT('',(1.01009697931,-0.147001271951));
#105 = CARTESIAN_POINT('',(1.181383961788,-0.129832962335));
#106 = CARTESIAN_POINT('',(1.710468255199,-0.146895098905));
#107 = CARTESIAN_POINT('',(2.007298216719,-0.147213596764));
#108 = CARTESIAN_POINT('',(2.191337517074,-0.102263003246));
#109 = CARTESIAN_POINT('',(2.752818349074,-7.79114862197E-02));
#110 = CARTESIAN_POINT('',(3.273462689635,-0.132641491853));
#111 = CARTESIAN_POINT('',(3.370030847782,-0.11939935158));
#112 = CARTESIAN_POINT('',(3.527599810607,-8.483892746485E-02));
#113 = CARTESIAN_POINT('',(3.842549789972,-5.133600016738E-02));
#114 = ( GEOMETRIC_REPRESENTATION_CONTEXT(2) 
PARAMETRIC_REPRESENTATION_CONTEXT() REPRESENTATION_CONTEXT('2D SPACE',''
  ) );
#115 = ORIENTED_EDGE('',*,*,#116,.T.);
#116 = EDGE_CURVE('',#24,#117,#119,.T.);
#117 = VERTEX_POINT('',#118);
#118 = CARTESIAN_POINT('',(7.6,0.151336000167,0.));
#119 = SURFACE_CURVE('',#120,(#124),.PCURVE_S1.);
#120 = LINE('',#121,#122);
#121 = CARTESIAN_POINT('',(7.6,4.866399983262E-02,0.));
#122 = VECTOR('',#123,1.);
#123 = DIRECTION('',(0.,1.,0.));
#124 = PCURVE('',#68,#125);
#125 = DEFINITIONAL_REPRESENTATION('',(#126),#130);
#126 = LINE('',#127,#128);
#127 = CARTESIAN_POINT('',(3.842549789972,-5.133600016738E-02));
#128 = VECTOR('',#129,1.);
#129 = DIRECTION('',(0.,1.));
#130 = ( GEOMETRIC_REPRESENTATION_CONTEXT(2) 
PARAMETRIC_REPRESENTATION_CONTEXT() REPRESENTATION_CONTEXT('2D SPACE',''
  ) );
#131 = ORIENTED_EDGE('',*,*,#132,.T.);
#132 = EDGE_CURVE('',#117,#133,#135,.T.);
#133 = VERTEX_POINT('',#134);
#134 = CARTESIAN_POINT('',(0.,0.142593449586,0.));
#135 = SURFACE_CURVE('',#136,(#176),.PCURVE_S1.);
#136 = B_SPLINE_CURVE_WITH_KNOTS('',1,(#137,#138,#139,#140,#141,#142,
    #143,#144,#145,#146,#147,#148,#149,#150,#151,#152,#153,#154,#155,
    #156,#157,#158,#159,#160,#161,#162,#163,#164,#165,#166,#167,#168,
    #169,#170,#171,#172,#173,#174,#175),.UNSPECIFIED.,.F.,.F.,(2,1,1,1,1
    ,1,1,1,1,1,1,1,1,1,1,1,1,1,1,1,1,1,1,1,1,1,1,1,1,1,1,1,1,1,1,1,1,1,2
    ),(0.,3.846492706318E-02,5.805579293997E-02,6.989327139877E-02,
    0.133471357901,0.201724546945,0.224732228049,0.260780789208,
    0.325068879589,0.345975072325,0.379597544137,0.38826197113,
    0.394823224081,0.398124647312,0.409494862208,0.421579564409,
    0.468854075489,0.493696401903,0.503808641579,0.513799033308,
    0.522007663636,0.530148919101,0.56275683976,0.569597194241,
    0.586414044407,0.650104260126,0.667405413595,0.679289673442,
    0.703363888899,0.739347760398,0.822609278219,0.830540903731,
    0.855267484792,0.894100428694,0.912764352281,0.918998774298,
    0.958514572007,0.975905988351,1.),.UNSPECIFIED.);
#137 = CARTESIAN_POINT('',(7.6,0.151336000167,0.));
#138 = CARTESIAN_POINT('',(7.285050020635,0.184838927465,0.));
#139 = CARTESIAN_POINT('',(7.12748105781,0.21939935158,0.));
#140 = CARTESIAN_POINT('',(7.030912899664,0.232641491853,0.));
#141 = CARTESIAN_POINT('',(6.510268559102,0.17791148622,0.));
#142 = CARTESIAN_POINT('',(5.948787727102,0.202263003246,0.));
#143 = CARTESIAN_POINT('',(5.764748426748,0.247213596764,0.));
#144 = CARTESIAN_POINT('',(5.467918465227,0.246895098905,0.));
#145 = CARTESIAN_POINT('',(4.938834171817,0.229832962335,0.));
#146 = CARTESIAN_POINT('',(4.767547189339,0.247001271951,0.));
#147 = CARTESIAN_POINT('',(4.490957735259,0.259085067687,0.));
#148 = CARTESIAN_POINT('',(4.466098748551,0.1922116472,0.));
#149 = CARTESIAN_POINT('',(4.439144563737,0.145389274327,0.));
#150 = CARTESIAN_POINT('',(4.416064661723,0.15975293811,0.));
#151 = CARTESIAN_POINT('',(4.402068723958,0.252325228406,0.));
#152 = CARTESIAN_POINT('',(4.345133198058,0.170715810868,0.));
#153 = CARTESIAN_POINT('',(3.957110258784,0.201806855508,0.));
#154 = CARTESIAN_POINT('',(3.754330226258,0.174910140577,0.));
#155 = CARTESIAN_POINT('',(3.729373157094,0.254347927408,0.));
#156 = CARTESIAN_POINT('',(3.69860331437,0.178056667139,0.));
#157 = CARTESIAN_POINT('',(3.665506120766,0.236990176648,0.));
#158 = CARTESIAN_POINT('',(3.598519448033,0.239574769176,0.));
#159 = CARTESIAN_POINT('',(3.335727098318,0.184510674063,0.));
#160 = CARTESIAN_POINT('',(3.283907102291,0.206582296327,0.));
#161 = CARTESIAN_POINT('',(3.160136256497,0.144489506741,0.));
#162 = CARTESIAN_POINT('',(2.636210514465,0.167625678907,0.));
#163 = CARTESIAN_POINT('',(2.519924379803,0.249921421417,0.));
#164 = CARTESIAN_POINT('',(2.506945213729,0.152928913515,0.));
#165 = CARTESIAN_POINT('',(2.325270343545,0.23223769903,0.));
#166 = CARTESIAN_POINT('',(2.029015039498,0.227239353714,0.));
#167 = CARTESIAN_POINT('',(1.343473150338,0.219130716163,0.));
#168 = CARTESIAN_POINT('',(1.29650656088,0.173748054061,0.));
#169 = CARTESIAN_POINT('',(1.098383835382,0.220668811165,0.));
#170 = CARTESIAN_POINT('',(0.785862554691,0.153029088936,0.));
#171 = CARTESIAN_POINT('',(0.641776840663,0.206484337225,0.));
#172 = CARTESIAN_POINT('',(0.628747999411,0.15682989068,0.));
#173 = CARTESIAN_POINT('',(0.31626772135,0.247539292621,0.));
#174 = CARTESIAN_POINT('',(0.173309419826,0.239155030903,0.));
#175 = CARTESIAN_POINT('',(0.,0.142593449586,0.));
#176 = PCURVE('',#68,#177);
#177 = DEFINITIONAL_REPRESENTATION('',(#178),#218);
#178 = B_SPLINE_CURVE_WITH_KNOTS('',1,(#179,#180,#181,#182,#183,#184,
    #185,#186,#187,#188,#189,#190,#191,#192,#193,#194,#195,#196,#197,
    #198,#199,#200,#201,#202,#203,#204,#205,#206,#207,#208,#209,#210,
    #211,#212,#213,#214,#215,#216,#217),.UNSPECIFIED.,.F.,.F.,(2,1,1,1,1
    ,1,1,1,1,1,1,1,1,1,1,1,1,1,1,1,1,1,1,1,1,1,1,1,1,1,1,1,1,1,1,1,1,1,2
    ),(0.,3.846492706318E-02,5.805579293997E-02,6.989327139877E-02,
    0.133471357901,0.201724546945,0.224732228049,0.260780789208,
    0.325068879589,0.345975072325,0.379597544137,0.38826197113,
    0.394823224081,0.398124647312,0.409494862208,0.421579564409,
    0.468854075489,0.493696401903,0.503808641579,0.513799033308,
    0.522007663636,0.530148919101,0.56275683976,0.569597194241,
    0.586414044407,0.650104260126,0.667405413595,0.679289673442,
    0.703363888899,0.739347760398,0.822609278219,0.830540903731,
    0.855267484792,0.894100428694,0.912764352281,0.918998774298,
    0.958514572007,0.975905988351,1.),.UNSPECIFIED.);
#179 = CARTESIAN_POINT('',(3.842549789972,5.133600016738E-02));
#180 = CARTESIAN_POINT('',(3.527599810607,8.483892746485E-02));
#181 = CARTESIAN_POINT('',(3.370030847782,0.11939935158));
#182 = CARTESIAN_POINT('',(3.273462689635,0.132641491853));
#183 = CARTESIAN_POINT('',(2.752818349074,7.79114862197E-02));
#184 = CARTESIAN_POINT('',(2.191337517074,0.102263003246));
#185 = CARTESIAN_POINT('',(2.007298216719,0.147213596764));
#186 = CARTESIAN_POINT('',(1.710468255199,0.146895098905));
#187 = CARTESIAN_POINT('',(1.181383961788,0.129832962335));
#188 = CARTESIAN_POINT('',(1.01009697931,0.147001271951));
#189 = CARTESIAN_POINT('',(0.73350752523,0.159085067687));
#190 = CARTESIAN_POINT('',(0.708648538522,9.221164720036E-02));
#191 = CARTESIAN_POINT('',(0.681694353708,4.538927432708E-02));
#192 = CARTESIAN_POINT('',(0.658614451695,5.975293810984E-02));
#193 = CARTESIAN_POINT('',(0.64461851393,0.152325228406));
#194 = CARTESIAN_POINT('',(0.58768298803,7.071581086811E-02));
#195 = CARTESIAN_POINT('',(0.199660048755,0.101806855508));
#196 = CARTESIAN_POINT('',(-3.119983770016E-03,7.491014057681E-02));
#197 = CARTESIAN_POINT('',(-2.8077052934E-02,0.154347927408));
#198 = CARTESIAN_POINT('',(-5.884689565834E-02,7.805666713873E-02));
#199 = CARTESIAN_POINT('',(-9.194408926232E-02,0.136990176648));
#200 = CARTESIAN_POINT('',(-0.158930761996,0.139574769176));
#201 = CARTESIAN_POINT('',(-0.42172311171,8.451067406349E-02));
#202 = CARTESIAN_POINT('',(-0.473543107738,0.106582296327));
#203 = CARTESIAN_POINT('',(-0.597313953532,4.448950674114E-02));
#204 = CARTESIAN_POINT('',(-1.121239695564,6.762567890739E-02));
#205 = CARTESIAN_POINT('',(-1.237525830225,0.149921421417));
#206 = CARTESIAN_POINT('',(-1.250504996299,5.292891351471E-02));
#207 = CARTESIAN_POINT('',(-1.432179866483,0.13223769903));
#208 = CARTESIAN_POINT('',(-1.72843517053,0.127239353714));
#209 = CARTESIAN_POINT('',(-2.41397705969,0.119130716163));
#210 = CARTESIAN_POINT('',(-2.460943649148,7.374805406068E-02));
#211 = CARTESIAN_POINT('',(-2.659066374646,0.120668811165));
#212 = CARTESIAN_POINT('',(-2.971587655337,5.302908893625E-02));
#213 = CARTESIAN_POINT('',(-3.115673369365,0.106484337225));
#214 = CARTESIAN_POINT('',(-3.128702210618,5.682989067983E-02));
#215 = CARTESIAN_POINT('',(-3.441182488678,0.147539292621));
#216 = CARTESIAN_POINT('',(-3.584140790203,0.139155030903));
#217 = CARTESIAN_POINT('',(-3.757450210028,4.259344958564E-02));
#218 = ( GEOMETRIC_REPRESENTATION_CONTEXT(2) 
PARAMETRIC_REPRESENTATION_CONTEXT() REPRESENTATION_CONTEXT('2D SPACE',''
  ) );
#219 = ORIENTED_EDGE('',*,*,#220,.T.);
#220 = EDGE_CURVE('',#133,#22,#221,.T.);
#221 = SURFACE_CURVE('',#222,(#226),.PCURVE_S1.);
#222 = LINE('',#223,#224);
#223 = CARTESIAN_POINT('',(0.,0.142593449586,0.));
#224 = VECTOR('',#225,1.);
#225 = DIRECTION('',(0.,-1.,0.));
#226 = PCURVE('',#68,#227);
#227 = DEFINITIONAL_REPRESENTATION('',(#228),#232);
#228 = LINE('',#229,#230);
#229 = CARTESIAN_POINT('',(-3.757450210028,4.259344958564E-02));
#230 = VECTOR('',#231,1.);
#231 = DIRECTION('',(0.,-1.));
#232 = ( GEOMETRIC_REPRESENTATION_CONTEXT(2) 
PARAMETRIC_REPRESENTATION_CONTEXT() REPRESENTATION_CONTEXT('2D SPACE',''
  ) );
#233 = ( GEOMETRIC_REPRESENTATION_CONTEXT(3) 
GLOBAL_UNCERTAINTY_ASSIGNED_CONTEXT((#237)) GLOBAL_UNIT_ASSIGNED_CONTEXT
((#234,#235,#236)) REPRESENTATION_CONTEXT('Context #1',
  '3D Context with UNIT and UNCERTAINTY') );
#234 = ( LENGTH_UNIT() NAMED_UNIT(*) SI_UNIT(.MILLI.,.METRE.) );
#235 = ( NAMED_UNIT(*) PLANE_ANGLE_UNIT() SI_UNIT($,.RADIAN.) );
#236 = ( NAMED_UNIT(*) SI_UNIT($,.STERADIAN.) SOLID_ANGLE_UNIT() );
#237 = UNCERTAINTY_MEASURE_WITH_UNIT(LENGTH_MEASURE(1.E-07),#234,
  'distance_accuracy_value','confusion accuracy');
#238 = PRODUCT_RELATED_PRODUCT_CATEGORY('part',$,(#7));
ENDSEC;
END-ISO-10303-21;
