ISO-10303-21;
HEADER;
FILE_DESCRIPTION(('Open CASCADE Model'),'2;1');
FILE_NAME('Open CASCADE Shape Model','2026-05-28T17:04:48',('Author'),(
    'Open CASCADE'),'Open CASCADE STEP processor 7.9','Open CASCADE 7.9'
  ,'Unknown');
FILE_SCHEMA(('AUTOMOTIVE_DESIGN { 1 0 10303 214 1 1 1 1 }'));
ENDSEC;
DATA;
#1 = APPLICATION_PROTOCOL_DEFINITION('international standard',
  'automotive_design',2000,#2);
#2 = APPLICATION_CONTEXT(
  'core data for automotive mechanical design processes');
#3 = SHAPE_DEFINITION_REPRESENTATION(#4,#10);
#4 = PRODUCT_DEFINITION_SHAPE('','',#5);
#5 = PRODUCT_DEFINITION('design','',#6,#9);
#6 = PRODUCT_DEFINITION_FORMATION('','',#7);
#7 = PRODUCT('Open CASCADE STEP translator 7.9 7',
  'Open CASCADE STEP translator 7.9 7','',(#8));
#8 = PRODUCT_CONTEXT('',#2,'mechanical');
#9 = PRODUCT_DEFINITION_CONTEXT('part definition',#2,'design');
#10 = MANIFOLD_SURFACE_SHAPE_REPRESENTATION('',(#11,#15),#145);
#11 = AXIS2_PLACEMENT_3D('',#12,#13,#14);
#12 = CARTESIAN_POINT('',(0.,0.,0.));
#13 = DIRECTION('',(0.,0.,1.));
#14 = DIRECTION('',(1.,0.,-0.));
#15 = SHELL_BASED_SURFACE_MODEL('',(#16));
#16 = OPEN_SHELL('',(#17));
#17 = ADVANCED_FACE('',(#18),#46,.T.);
#18 = FACE_BOUND('',#19,.T.);
#19 = EDGE_LOOP('',(#20,#71,#87,#131));
#20 = ORIENTED_EDGE('',*,*,#21,.T.);
#21 = EDGE_CURVE('',#22,#24,#26,.T.);
#22 = VERTEX_POINT('',#23);
#23 = CARTESIAN_POINT('',(0.,-3.926673127889E-03,0.));
#24 = VERTEX_POINT('',#25);
#25 = CARTESIAN_POINT('',(3.2,-1.124184053596E-02,0.));
#26 = SURFACE_CURVE('',#27,(#45),.PCURVE_S1.);
#27 = B_SPLINE_CURVE_WITH_KNOTS('',1,(#28,#29,#30,#31,#32,#33,#34,#35,
    #36,#37,#38,#39,#40,#41,#42,#43,#44),.UNSPECIFIED.,.F.,.F.,(2,1,1,1,
    1,1,1,1,1,1,1,1,1,1,1,1,2),(0.,0.213711129462,0.27397766647,
    0.306045724377,0.324409676148,0.363253179521,0.36906170607,
    0.396462784273,0.491140397989,0.544336032162,0.654145856264,
    0.691777322744,0.804668848368,0.853697971088,0.922110055585,
    0.952471875401,1.),.UNSPECIFIED.);
#28 = CARTESIAN_POINT('',(0.,-3.926673127889E-03,0.));
#29 = CARTESIAN_POINT('',(0.744223809692,-1.595011551211E-02,0.));
#30 = CARTESIAN_POINT('',(0.950004718628,2.54213262981E-02,0.));
#31 = CARTESIAN_POINT('',(1.04798580612,-2.818717947723E-02,0.));
#32 = CARTESIAN_POINT('',(1.050755856015,3.571144882491E-02,0.));
#33 = CARTESIAN_POINT('',(1.172455839444,-2.337577545822E-02,0.));
#34 = CARTESIAN_POINT('',(1.176037792368,-4.328628819911E-02,0.));
#35 = CARTESIAN_POINT('',(1.214285055126,4.414765952381E-02,0.));
#36 = CARTESIAN_POINT('',(1.53891337056,-1.372556886503E-02,0.));
#37 = CARTESIAN_POINT('',(1.713391327456,4.858851021241E-02,0.));
#38 = CARTESIAN_POINT('',(2.088279489792,-2.708587539257E-02,0.));
#39 = CARTESIAN_POINT('',(2.194378705459,4.986081374118E-02,0.));
#40 = CARTESIAN_POINT('',(2.574053849431,-5.231277872408E-02,0.));
#41 = CARTESIAN_POINT('',(2.715393564076,4.351104839546E-02,0.));
#42 = CARTESIAN_POINT('',(2.932313662522,-5.506562950909E-02,0.));
#43 = CARTESIAN_POINT('',(3.036345365489,-3.610610113021E-02,0.));
#44 = CARTESIAN_POINT('',(3.2,-1.124184053596E-02,0.));
#45 = PCURVE('',#46,#51);
#46 = PLANE('',#47);
#47 = AXIS2_PLACEMENT_3D('',#48,#49,#50);
#48 = CARTESIAN_POINT('',(1.604674964167,0.1,0.));
#49 = DIRECTION('',(0.,0.,1.));
#50 = DIRECTION('',(1.,0.,-0.));
#51 = DEFINITIONAL_REPRESENTATION('',(#52),#70);
#52 = B_SPLINE_CURVE_WITH_KNOTS('',1,(#53,#54,#55,#56,#57,#58,#59,#60,
    #61,#62,#63,#64,#65,#66,#67,#68,#69),.UNSPECIFIED.,.F.,.F.,(2,1,1,1,
    1,1,1,1,1,1,1,1,1,1,1,1,2),(0.,0.213711129462,0.27397766647,
    0.306045724377,0.324409676148,0.363253179521,0.36906170607,
    0.396462784273,0.491140397989,0.544336032162,0.654145856264,
    0.691777322744,0.804668848368,0.853697971088,0.922110055585,
    0.952471875401,1.),.UNSPECIFIED.);
#53 = CARTESIAN_POINT('',(-1.604674964167,-0.103926673128));
#54 = CARTESIAN_POINT('',(-0.860451154475,-0.115950115512));
#55 = CARTESIAN_POINT('',(-0.654670245539,-7.45786737019E-02));
#56 = CARTESIAN_POINT('',(-0.556689158047,-0.128187179477));
#57 = CARTESIAN_POINT('',(-0.553919108152,-6.428855117509E-02));
#58 = CARTESIAN_POINT('',(-0.432219124723,-0.123375775458));
#59 = CARTESIAN_POINT('',(-0.428637171799,-0.143286288199));
#60 = CARTESIAN_POINT('',(-0.390389909041,-5.585234047619E-02));
#61 = CARTESIAN_POINT('',(-6.576159360697E-02,-0.113725568865));
#62 = CARTESIAN_POINT('',(0.108716363289,-5.141148978759E-02));
#63 = CARTESIAN_POINT('',(0.483604525625,-0.127085875393));
#64 = CARTESIAN_POINT('',(0.589703741292,-5.013918625882E-02));
#65 = CARTESIAN_POINT('',(0.969378885263,-0.152312778724));
#66 = CARTESIAN_POINT('',(1.110718599908,-5.648895160454E-02));
#67 = CARTESIAN_POINT('',(1.327638698355,-0.155065629509));
#68 = CARTESIAN_POINT('',(1.431670401322,-0.13610610113));
#69 = CARTESIAN_POINT('',(1.595325035833,-0.111241840536));
#70 = ( GEOMETRIC_REPRESENTATION_CONTEXT(2) 
PARAMETRIC_REPRESENTATION_CONTEXT() REPRESENTATION_CONTEXT('2D SPACE',''
  ) );
#71 = ORIENTED_EDGE('',*,*,#72,.T.);
#72 = EDGE_CURVE('',#24,#73,#75,.T.);
#73 = VERTEX_POINT('',#74);
#74 = CARTESIAN_POINT('',(3.2,0.211241840536,0.));
#75 = SURFACE_CURVE('',#76,(#80),.PCURVE_S1.);
#76 = LINE('',#77,#78);
#77 = CARTESIAN_POINT('',(3.2,-1.124184053596E-02,0.));
#78 = VECTOR('',#79,1.);
#79 = DIRECTION('',(0.,1.,0.));
#80 = PCURVE('',#46,#81);
#81 = DEFINITIONAL_REPRESENTATION('',(#82),#86);
#82 = LINE('',#83,#84);
#83 = CARTESIAN_POINT('',(1.595325035833,-0.111241840536));
#84 = VECTOR('',#85,1.);
#85 = DIRECTION('',(0.,1.));
#86 = ( GEOMETRIC_REPRESENTATION_CONTEXT(2) 
PARAMETRIC_REPRESENTATION_CONTEXT() REPRESENTATION_CONTEXT('2D SPACE',''
  ) );
#87 = ORIENTED_EDGE('',*,*,#88,.T.);
#88 = EDGE_CURVE('',#73,#89,#91,.T.);
#89 = VERTEX_POINT('',#90);
#90 = CARTESIAN_POINT('',(0.,0.203926673128,0.));
#91 = SURFACE_CURVE('',#92,(#110),.PCURVE_S1.);
#92 = B_SPLINE_CURVE_WITH_KNOTS('',1,(#93,#94,#95,#96,#97,#98,#99,#100,
    #101,#102,#103,#104,#105,#106,#107,#108,#109),.UNSPECIFIED.,.F.,.F.,
  (2,1,1,1,1,1,1,1,1,1,1,1,1,1,1,1,2),(0.,4.752812459926E-02,
    7.788994441486E-02,0.146302028912,0.195331151632,0.308222677256,
    0.345854143736,0.455663967838,0.508859602011,0.603537215727,
    0.63093829393,0.636746820479,0.675590323852,0.693954275623,
    0.72602233353,0.786288870538,1.),.UNSPECIFIED.);
#93 = CARTESIAN_POINT('',(3.2,0.211241840536,0.));
#94 = CARTESIAN_POINT('',(3.036345365489,0.23610610113,0.));
#95 = CARTESIAN_POINT('',(2.932313662522,0.255065629509,0.));
#96 = CARTESIAN_POINT('',(2.715393564076,0.156488951605,0.));
#97 = CARTESIAN_POINT('',(2.574053849431,0.252312778724,0.));
#98 = CARTESIAN_POINT('',(2.194378705459,0.150139186259,0.));
#99 = CARTESIAN_POINT('',(2.088279489792,0.227085875393,0.));
#100 = CARTESIAN_POINT('',(1.713391327456,0.151411489788,0.));
#101 = CARTESIAN_POINT('',(1.53891337056,0.213725568865,0.));
#102 = CARTESIAN_POINT('',(1.214285055126,0.155852340476,0.));
#103 = CARTESIAN_POINT('',(1.176037792368,0.243286288199,0.));
#104 = CARTESIAN_POINT('',(1.172455839444,0.223375775458,0.));
#105 = CARTESIAN_POINT('',(1.050755856015,0.164288551175,0.));
#106 = CARTESIAN_POINT('',(1.04798580612,0.228187179477,0.));
#107 = CARTESIAN_POINT('',(0.950004718628,0.174578673702,0.));
#108 = CARTESIAN_POINT('',(0.744223809692,0.215950115512,0.));
#109 = CARTESIAN_POINT('',(0.,0.203926673128,0.));
#110 = PCURVE('',#46,#111);
#111 = DEFINITIONAL_REPRESENTATION('',(#112),#130);
#112 = B_SPLINE_CURVE_WITH_KNOTS('',1,(#113,#114,#115,#116,#117,#118,
    #119,#120,#121,#122,#123,#124,#125,#126,#127,#128,#129),
  .UNSPECIFIED.,.F.,.F.,(2,1,1,1,1,1,1,1,1,1,1,1,1,1,1,1,2),(0.,
    4.752812459926E-02,7.788994441486E-02,0.146302028912,0.195331151632,
    0.308222677256,0.345854143736,0.455663967838,0.508859602011,
    0.603537215727,0.63093829393,0.636746820479,0.675590323852,
    0.693954275623,0.72602233353,0.786288870538,1.),.UNSPECIFIED.);
#113 = CARTESIAN_POINT('',(1.595325035833,0.111241840536));
#114 = CARTESIAN_POINT('',(1.431670401322,0.13610610113));
#115 = CARTESIAN_POINT('',(1.327638698355,0.155065629509));
#116 = CARTESIAN_POINT('',(1.110718599908,5.648895160454E-02));
#117 = CARTESIAN_POINT('',(0.969378885263,0.152312778724));
#118 = CARTESIAN_POINT('',(0.589703741292,5.013918625882E-02));
#119 = CARTESIAN_POINT('',(0.483604525625,0.127085875393));
#120 = CARTESIAN_POINT('',(0.108716363289,5.141148978759E-02));
#121 = CARTESIAN_POINT('',(-6.576159360697E-02,0.113725568865));
#122 = CARTESIAN_POINT('',(-0.390389909041,5.585234047619E-02));
#123 = CARTESIAN_POINT('',(-0.428637171799,0.143286288199));
#124 = CARTESIAN_POINT('',(-0.432219124723,0.123375775458));
#125 = CARTESIAN_POINT('',(-0.553919108152,6.428855117509E-02));
#126 = CARTESIAN_POINT('',(-0.556689158047,0.128187179477));
#127 = CARTESIAN_POINT('',(-0.654670245539,7.45786737019E-02));
#128 = CARTESIAN_POINT('',(-0.860451154475,0.115950115512));
#129 = CARTESIAN_POINT('',(-1.604674964167,0.103926673128));
#130 = ( GEOMETRIC_REPRESENTATION_CONTEXT(2) 
PARAMETRIC_REPRESENTATION_CONTEXT() REPRESENTATION_CONTEXT('2D SPACE',''
  ) );
#131 = ORIENTED_EDGE('',*,*,#132,.T.);
#132 = EDGE_CURVE('',#89,#22,#133,.T.);
#133 = SURFACE_CURVE('',#134,(#138),.PCURVE_S1.);
#134 = LINE('',#135,#136);
#135 = CARTESIAN_POINT('',(0.,0.203926673128,0.));
#136 = VECTOR('',#137,1.);
#137 = DIRECTION('',(0.,-1.,0.));
#138 = PCURVE('',#46,#139);
#139 = DEFINITIONAL_REPRESENTATION('',(#140),#144);
#140 = LINE('',#141,#142);
#141 = CARTESIAN_POINT('',(-1.604674964167,0.103926673128));
#142 = VECTOR('',#143,1.);
#143 = DIRECTION('',(0.,-1.));
#144 = ( GEOMETRIC_REPRESENTATION_CONTEXT(2) 
PARAMETRIC_REPRESENTATION_CONTEXT() REPRESENTATION_CONTEXT('2D SPACE',''
  ) );
#145 = ( GEOMETRIC_REPRESENTATION_CONTEXT(3) 
GLOBAL_UNCERTAINTY_ASSIGNED_CONTEXT((#149)) GLOBAL_UNIT_ASSIGNED_CONTEXT
((#146,#147,#148)) REPRESENTATION_CONTEXT('Context #1',
  '3D Context with UNIT and UNCERTAINTY') );
#146 = ( LENGTH_UNIT() NAMED_UNIT(*) SI_UNIT(.MILLI.,.METRE.) );
#147 = ( NAMED_UNIT(*) PLANE_ANGLE_UNIT() SI_UNIT($,.RADIAN.) );
#148 = ( NAMED_UNIT(*) SI_UNIT($,.STERADIAN.) SOLID_ANGLE_UNIT() );
#149 = UNCERTAINTY_MEASURE_WITH_UNIT(LENGTH_MEASURE(1.E-07),#146,
  'distance_accuracy_value','confusion accuracy');
#150 = PRODUCT_RELATED_PRODUCT_CATEGORY('part',$,(#7));
ENDSEC;
END-ISO-10303-21;
