ISO-10303-21;
HEADER;
FILE_DESCRIPTION(('Open CASCADE Model'),'2;1');
FILE_NAME('Open CASCADE Shape Model','2026-05-28T17:04:48',('Author'),(
    'Open CASCADE'),'Open CASCADE STEP processor 7.9','Open CASCADE 7.9'
  ,'Unknown');
FILE_SCHEMA(('AUTOMOTIVE_DESIGN { 1 0 10303 214 1 1 1 1 }'));
ENDSEC;
DATA;
#1 = APPLICATION_PROTOCOL_DEFINITION('international standard',
  'automotive_design',2000,#2);
#2 = APPLICATION_CONTEXT(
  'core data for automotive mechanical design processes');
#3 = SHAPE_DEFINITION_REPRESENTATION(#4,#10);
#4 = PRODUCT_DEFINITION_SHAPE('','',#5);
#5 = PRODUCT_DEFINITION('design','',#6,#9);
#6 = PRODUCT_DEFINITION_FORMATION('','',#7);
#7 = PRODUCT('Open CASCADE STEP translator 7.9 16',
  'Open CASCADE STEP translator 7.9 16','',(#8));
#8 = PRODUCT_CONTEXT('',#2,'mechanical');
#9 = PRODUCT_DEFINITION_CONTEXT('part definition',#2,'design');
#10 = MANIFOLD_SURFACE_SHAPE_REPRESENTATION('',(#11,#15),#265);
#11 = AXIS2_PLACEMENT_3D('',#12,#13,#14);
#12 = CARTESIAN_POINT('',(0.,0.,0.));
#13 = DIRECTION('',(0.,0.,1.));
#14 = DIRECTION('',(1.,0.,-0.));
#15 = SHELL_BASED_SURFACE_MODEL('',(#16));
#16 = OPEN_SHELL('',(#17));
#17 = ADVANCED_FACE('',(#18),#76,.T.);
#18 = FACE_BOUND('',#19,.T.);
#19 = EDGE_LOOP('',(#20,#131,#147,#251));
#20 = ORIENTED_EDGE('',*,*,#21,.T.);
#21 = EDGE_CURVE('',#22,#24,#26,.T.);
#22 = VERTEX_POINT('',#23);
#23 = CARTESIAN_POINT('',(0.,-1.010734320735E-02,0.));
#24 = VERTEX_POINT('',#25);
#25 = CARTESIAN_POINT('',(9.2,2.141604102212E-02,0.));
#26 = SURFACE_CURVE('',#27,(#75),.PCURVE_S1.);
#27 = B_SPLINE_CURVE_WITH_KNOTS('',1,(#28,#29,#30,#31,#32,#33,#34,#35,
    #36,#37,#38,#39,#40,#41,#42,#43,#44,#45,#46,#47,#48,#49,#50,#51,#52,
    #53,#54,#55,#56,#57,#58,#59,#60,#61,#62,#63,#64,#65,#66,#67,#68,#69,
    #70,#71,#72,#73,#74),.UNSPECIFIED.,.F.,.F.,(2,1,1,1,1,1,1,1,1,1,1,1,
    1,1,1,1,1,1,1,1,1,1,1,1,1,1,1,1,1,1,1,1,1,1,1,1,1,1,1,1,1,1,1,1,1,1,
    2),(0.,4.258985853867E-02,6.826428639978E-02,9.197701755396E-02,
    9.385647706946E-02,0.105768548858,0.124999979285,0.134376767696,
    0.157428306111,0.167797757991,0.177598330804,0.1992035285,
    0.209736942706,0.218481833646,0.258429198719,0.26723801261,
    0.26812917959,0.27447358161,0.292967032984,0.308755432177,
    0.317889533473,0.351516601859,0.387131416503,0.403424628238,
    0.472687144446,0.473947413116,0.489542634734,0.502759322766,
    0.527762599051,0.547196366869,0.557123983933,0.617274997804,
    0.650961027173,0.681168874712,0.746213701446,0.756856715052,
    0.833819023094,0.841990975408,0.866036747053,0.87655878855,
    0.896552985049,0.945114631533,0.946988768528,0.951984531102,
    0.973708518417,0.983728398868,1.),.UNSPECIFIED.);
#28 = CARTESIAN_POINT('',(0.,-1.010734320735E-02,0.));
#29 = CARTESIAN_POINT('',(0.415592676303,-2.821553130236E-02,0.));
#30 = CARTESIAN_POINT('',(0.660763692627,2.44760564508E-02,0.));
#31 = CARTESIAN_POINT('',(0.89219657609,1.544968354941E-02,0.));
#32 = CARTESIAN_POINT('',(0.910105446964,1.141740426882E-02,0.));
#33 = CARTESIAN_POINT('',(1.018367081072,-3.120179660928E-02,0.));
#34 = CARTESIAN_POINT('',(1.206199975841,-3.268235852095E-02,0.));
#35 = CARTESIAN_POINT('',(1.267700530536,3.518237669832E-02,0.));
#36 = CARTESIAN_POINT('',(1.474870629837,-5.298466280857E-02,0.));
#37 = CARTESIAN_POINT('',(1.498417805102,4.552135950676E-02,0.));
#38 = CARTESIAN_POINT('',(1.520864174979,-4.753464989084E-02,0.));
#39 = CARTESIAN_POINT('',(1.709048440814,4.795252252202E-02,0.));
#40 = CARTESIAN_POINT('',(1.810028062906,2.825522266184E-02,0.));
#41 = CARTESIAN_POINT('',(1.859210535138,-4.157742432815E-02,0.));
#42 = CARTESIAN_POINT('',(2.241090057299,3.846095131847E-02,0.));
#43 = CARTESIAN_POINT('',(2.322413873056,1.03718482428E-02,0.));
#44 = CARTESIAN_POINT('',(2.329950364482,6.016884006705E-03,0.));
#45 = CARTESIAN_POINT('',(2.386846526662,3.056892323721E-02,0.));
#46 = CARTESIAN_POINT('',(2.558642883218,-2.522942416032E-02,0.));
#47 = CARTESIAN_POINT('',(2.711920336086,-4.216015792826E-02,0.));
#48 = CARTESIAN_POINT('',(2.80109204358,-4.494901678267E-02,0.));
#49 = CARTESIAN_POINT('',(3.123195338722,1.928134251161E-02,0.));
#50 = CARTESIAN_POINT('',(3.470295042524,-3.702047314538E-03,0.));
#51 = CARTESIAN_POINT('',(3.625784239857,3.019123153612E-02,0.));
#52 = CARTESIAN_POINT('',(4.302290360965,3.062441981398E-02,0.));
#53 = CARTESIAN_POINT('',(4.30943309947,4.064951245777E-02,0.));
#54 = CARTESIAN_POINT('',(4.429720331002,-5.28022812969E-02,0.));
#55 = CARTESIAN_POINT('',(4.558660320983,-4.655865943267E-02,0.));
#56 = CARTESIAN_POINT('',(4.802513172572,-3.328304559932E-02,0.));
#57 = CARTESIAN_POINT('',(4.98975250118,-2.119382554527E-03,0.));
#58 = CARTESIAN_POINT('',(5.086663937393,1.127050138575E-03,0.));
#59 = CARTESIAN_POINT('',(5.674156847511,-3.5694799419E-03,0.));
#60 = CARTESIAN_POINT('',(6.003176646925,-4.388161629251E-03,0.));
#61 = CARTESIAN_POINT('',(6.297971075222,7.852429836277E-03,0.));
#62 = CARTESIAN_POINT('',(6.932241979602,4.418942005295E-02,0.));
#63 = CARTESIAN_POINT('',(7.036192683987,4.492033765578E-02,0.));
#64 = CARTESIAN_POINT('',(7.78133201178,-5.426996590148E-02,0.));
#65 = CARTESIAN_POINT('',(7.837785051712,2.156308849638E-03,0.));
#66 = CARTESIAN_POINT('',(8.065739334834,-5.438466298862E-02,0.));
#67 = CARTESIAN_POINT('',(8.105531677644,4.037077467479E-02,0.));
#68 = CARTESIAN_POINT('',(8.295105052811,-6.529986244792E-03,0.));
#69 = CARTESIAN_POINT('',(8.767592021465,3.507392959782E-02,0.));
#70 = CARTESIAN_POINT('',(8.785065205073,2.961784726481E-02,0.));
#71 = CARTESIAN_POINT('',(8.825857598248,5.639345054866E-02,0.));
#72 = CARTESIAN_POINT('',(9.037773484562,4.572560271117E-02,0.));
#73 = CARTESIAN_POINT('',(9.058031195907,-5.00218089155E-02,0.));
#74 = CARTESIAN_POINT('',(9.2,2.141604102212E-02,0.));
#75 = PCURVE('',#76,#81);
#76 = PLANE('',#77);
#77 = AXIS2_PLACEMENT_3D('',#78,#79,#80);
#78 = CARTESIAN_POINT('',(4.573268438347,1.E-01,0.));
#79 = DIRECTION('',(0.,0.,1.));
#80 = DIRECTION('',(1.,0.,-0.));
#81 = DEFINITIONAL_REPRESENTATION('',(#82),#130);
#82 = B_SPLINE_CURVE_WITH_KNOTS('',1,(#83,#84,#85,#86,#87,#88,#89,#90,
    #91,#92,#93,#94,#95,#96,#97,#98,#99,#100,#101,#102,#103,#104,#105,
    #106,#107,#108,#109,#110,#111,#112,#113,#114,#115,#116,#117,#118,
    #119,#120,#121,#122,#123,#124,#125,#126,#127,#128,#129),
  .UNSPECIFIED.,.F.,.F.,(2,1,1,1,1,1,1,1,1,1,1,1,1,1,1,1,1,1,1,1,1,1,1,1
    ,1,1,1,1,1,1,1,1,1,1,1,1,1,1,1,1,1,1,1,1,1,1,2),(0.,
    4.258985853867E-02,6.826428639978E-02,9.197701755396E-02,
    9.385647706946E-02,0.105768548858,0.124999979285,0.134376767696,
    0.157428306111,0.167797757991,0.177598330804,0.1992035285,
    0.209736942706,0.218481833646,0.258429198719,0.26723801261,
    0.26812917959,0.27447358161,0.292967032984,0.308755432177,
    0.317889533473,0.351516601859,0.387131416503,0.403424628238,
    0.472687144446,0.473947413116,0.489542634734,0.502759322766,
    0.527762599051,0.547196366869,0.557123983933,0.617274997804,
    0.650961027173,0.681168874712,0.746213701446,0.756856715052,
    0.833819023094,0.841990975408,0.866036747053,0.87655878855,
    0.896552985049,0.945114631533,0.946988768528,0.951984531102,
    0.973708518417,0.983728398868,1.),.UNSPECIFIED.);
#83 = CARTESIAN_POINT('',(-4.573268438347,-0.110107343207));
#84 = CARTESIAN_POINT('',(-4.157675762044,-0.128215531302));
#85 = CARTESIAN_POINT('',(-3.91250474572,-7.55239435492E-02));
#86 = CARTESIAN_POINT('',(-3.681071862257,-8.455031645059E-02));
#87 = CARTESIAN_POINT('',(-3.663162991383,-8.858259573118E-02));
#88 = CARTESIAN_POINT('',(-3.554901357274,-0.131201796609));
#89 = CARTESIAN_POINT('',(-3.367068462506,-0.132682358521));
#90 = CARTESIAN_POINT('',(-3.305567907811,-6.481762330168E-02));
#91 = CARTESIAN_POINT('',(-3.09839780851,-0.152984662809));
#92 = CARTESIAN_POINT('',(-3.074850633245,-5.447864049324E-02));
#93 = CARTESIAN_POINT('',(-3.052404263368,-0.147534649891));
#94 = CARTESIAN_POINT('',(-2.864219997533,-5.204747747798E-02));
#95 = CARTESIAN_POINT('',(-2.763240375441,-7.174477733816E-02));
#96 = CARTESIAN_POINT('',(-2.714057903209,-0.141577424328));
#97 = CARTESIAN_POINT('',(-2.332178381048,-6.153904868153E-02));
#98 = CARTESIAN_POINT('',(-2.250854565291,-8.96281517572E-02));
#99 = CARTESIAN_POINT('',(-2.243318073865,-9.39831159933E-02));
#100 = CARTESIAN_POINT('',(-2.186421911685,-6.943107676279E-02));
#101 = CARTESIAN_POINT('',(-2.014625555129,-0.12522942416));
#102 = CARTESIAN_POINT('',(-1.861348102261,-0.142160157928));
#103 = CARTESIAN_POINT('',(-1.772176394767,-0.144949016783));
#104 = CARTESIAN_POINT('',(-1.450073099625,-8.071865748839E-02));
#105 = CARTESIAN_POINT('',(-1.102973395823,-0.103702047315));
#106 = CARTESIAN_POINT('',(-0.94748419849,-6.980876846388E-02));
#107 = CARTESIAN_POINT('',(-0.270978077382,-6.937558018602E-02));
#108 = CARTESIAN_POINT('',(-0.263835338877,-5.935048754223E-02));
#109 = CARTESIAN_POINT('',(-0.143548107345,-0.152802281297));
#110 = CARTESIAN_POINT('',(-1.460811736367E-02,-0.146558659433));
#111 = CARTESIAN_POINT('',(0.229244734225,-0.133283045599));
#112 = CARTESIAN_POINT('',(0.416484062833,-0.102119382555));
#113 = CARTESIAN_POINT('',(0.513395499046,-9.887294986142E-02));
#114 = CARTESIAN_POINT('',(1.100888409164,-0.103569479942));
#115 = CARTESIAN_POINT('',(1.429908208578,-0.104388161629));
#116 = CARTESIAN_POINT('',(1.724702636875,-9.214757016372E-02));
#117 = CARTESIAN_POINT('',(2.358973541255,-5.581057994705E-02));
#118 = CARTESIAN_POINT('',(2.46292424564,-5.507966234422E-02));
#119 = CARTESIAN_POINT('',(3.208063573433,-0.154269965901));
#120 = CARTESIAN_POINT('',(3.264516613365,-9.784369115036E-02));
#121 = CARTESIAN_POINT('',(3.492470896488,-0.154384662989));
#122 = CARTESIAN_POINT('',(3.532263239297,-5.962922532521E-02));
#123 = CARTESIAN_POINT('',(3.721836614464,-0.106529986245));
#124 = CARTESIAN_POINT('',(4.194323583118,-6.492607040218E-02));
#125 = CARTESIAN_POINT('',(4.211796766726,-7.038215273519E-02));
#126 = CARTESIAN_POINT('',(4.252589159901,-4.360654945134E-02));
#127 = CARTESIAN_POINT('',(4.464505046215,-5.427439728883E-02));
#128 = CARTESIAN_POINT('',(4.48476275756,-0.150021808916));
#129 = CARTESIAN_POINT('',(4.626731561653,-7.858395897788E-02));
#130 = ( GEOMETRIC_REPRESENTATION_CONTEXT(2) 
PARAMETRIC_REPRESENTATION_CONTEXT() REPRESENTATION_CONTEXT('2D SPACE',''
  ) );
#131 = ORIENTED_EDGE('',*,*,#132,.T.);
#132 = EDGE_CURVE('',#24,#133,#135,.T.);
#133 = VERTEX_POINT('',#134);
#134 = CARTESIAN_POINT('',(9.2,0.178583958978,0.));
#135 = SURFACE_CURVE('',#136,(#140),.PCURVE_S1.);
#136 = LINE('',#137,#138);
#137 = CARTESIAN_POINT('',(9.2,2.141604102212E-02,0.));
#138 = VECTOR('',#139,1.);
#139 = DIRECTION('',(0.,1.,0.));
#140 = PCURVE('',#76,#141);
#141 = DEFINITIONAL_REPRESENTATION('',(#142),#146);
#142 = LINE('',#143,#144);
#143 = CARTESIAN_POINT('',(4.626731561653,-7.858395897788E-02));
#144 = VECTOR('',#145,1.);
#145 = DIRECTION('',(0.,1.));
#146 = ( GEOMETRIC_REPRESENTATION_CONTEXT(2) 
PARAMETRIC_REPRESENTATION_CONTEXT() REPRESENTATION_CONTEXT('2D SPACE',''
  ) );
#147 = ORIENTED_EDGE('',*,*,#148,.T.);
#148 = EDGE_CURVE('',#133,#149,#151,.T.);
#149 = VERTEX_POINT('',#150);
#150 = CARTESIAN_POINT('',(0.,0.210107343207,0.));
#151 = SURFACE_CURVE('',#152,(#200),.PCURVE_S1.);
#152 = B_SPLINE_CURVE_WITH_KNOTS('',1,(#153,#154,#155,#156,#157,#158,
    #159,#160,#161,#162,#163,#164,#165,#166,#167,#168,#169,#170,#171,
    #172,#173,#174,#175,#176,#177,#178,#179,#180,#181,#182,#183,#184,
    #185,#186,#187,#188,#189,#190,#191,#192,#193,#194,#195,#196,#197,
    #198,#199),.UNSPECIFIED.,.F.,.F.,(2,1,1,1,1,1,1,1,1,1,1,1,1,1,1,1,1,
    1,1,1,1,1,1,1,1,1,1,1,1,1,1,1,1,1,1,1,1,1,1,1,1,1,1,1,1,1,2),(0.,
    1.627160113211E-02,2.6291481583E-02,4.801546889808E-02,
    5.301123147199E-02,5.488536846698E-02,0.103447014951,0.12344121145,
    0.133963252947,0.158009024592,0.166180976906,0.243143284948,
    0.253786298554,0.318831125288,0.349038972827,0.382725002196,
    0.442876016067,0.452803633131,0.472237400949,0.497240677234,
    0.510457365266,0.526052586884,0.527312855554,0.596575371762,
    0.612868583497,0.648483398141,0.682110466527,0.691244567823,
    0.707032967016,0.72552641839,0.73187082041,0.73276198739,
    0.741570801281,0.781518166354,0.790263057294,0.8007964715,
    0.822401669196,0.832202242009,0.842571693889,0.865623232304,
    0.875000020715,0.894231451142,0.906143522931,0.908022982446,
    0.9317357136,0.957410141461,1.),.UNSPECIFIED.);
#153 = CARTESIAN_POINT('',(9.2,0.178583958978,0.));
#154 = CARTESIAN_POINT('',(9.058031195907,0.250021808916,0.));
#155 = CARTESIAN_POINT('',(9.037773484562,0.154274397289,0.));
#156 = CARTESIAN_POINT('',(8.825857598248,0.143606549451,0.));
#157 = CARTESIAN_POINT('',(8.785065205073,0.170382152735,0.));
#158 = CARTESIAN_POINT('',(8.767592021465,0.164926070402,0.));
#159 = CARTESIAN_POINT('',(8.295105052811,0.206529986245,0.));
#160 = CARTESIAN_POINT('',(8.105531677644,0.159629225325,0.));
#161 = CARTESIAN_POINT('',(8.065739334834,0.254384662989,0.));
#162 = CARTESIAN_POINT('',(7.837785051712,0.19784369115,0.));
#163 = CARTESIAN_POINT('',(7.78133201178,0.254269965901,0.));
#164 = CARTESIAN_POINT('',(7.036192683987,0.155079662344,0.));
#165 = CARTESIAN_POINT('',(6.932241979602,0.155810579947,0.));
#166 = CARTESIAN_POINT('',(6.297971075222,0.192147570164,0.));
#167 = CARTESIAN_POINT('',(6.003176646925,0.204388161629,0.));
#168 = CARTESIAN_POINT('',(5.674156847511,0.203569479942,0.));
#169 = CARTESIAN_POINT('',(5.086663937393,0.198872949861,0.));
#170 = CARTESIAN_POINT('',(4.98975250118,0.202119382555,0.));
#171 = CARTESIAN_POINT('',(4.802513172572,0.233283045599,0.));
#172 = CARTESIAN_POINT('',(4.558660320983,0.246558659433,0.));
#173 = CARTESIAN_POINT('',(4.429720331002,0.252802281297,0.));
#174 = CARTESIAN_POINT('',(4.30943309947,0.159350487542,0.));
#175 = CARTESIAN_POINT('',(4.302290360965,0.169375580186,0.));
#176 = CARTESIAN_POINT('',(3.625784239857,0.169808768464,0.));
#177 = CARTESIAN_POINT('',(3.470295042524,0.203702047315,0.));
#178 = CARTESIAN_POINT('',(3.123195338722,0.180718657488,0.));
#179 = CARTESIAN_POINT('',(2.80109204358,0.244949016783,0.));
#180 = CARTESIAN_POINT('',(2.711920336086,0.242160157928,0.));
#181 = CARTESIAN_POINT('',(2.558642883218,0.22522942416,0.));
#182 = CARTESIAN_POINT('',(2.386846526662,0.169431076763,0.));
#183 = CARTESIAN_POINT('',(2.329950364482,0.193983115993,0.));
#184 = CARTESIAN_POINT('',(2.322413873056,0.189628151757,0.));
#185 = CARTESIAN_POINT('',(2.241090057299,0.161539048682,0.));
#186 = CARTESIAN_POINT('',(1.859210535138,0.241577424328,0.));
#187 = CARTESIAN_POINT('',(1.810028062906,0.171744777338,0.));
#188 = CARTESIAN_POINT('',(1.709048440814,0.152047477478,0.));
#189 = CARTESIAN_POINT('',(1.520864174979,0.247534649891,0.));
#190 = CARTESIAN_POINT('',(1.498417805102,0.154478640493,0.));
#191 = CARTESIAN_POINT('',(1.474870629837,0.252984662809,0.));
#192 = CARTESIAN_POINT('',(1.267700530536,0.164817623302,0.));
#193 = CARTESIAN_POINT('',(1.206199975841,0.232682358521,0.));
#194 = CARTESIAN_POINT('',(1.018367081072,0.231201796609,0.));
#195 = CARTESIAN_POINT('',(0.910105446964,0.188582595731,0.));
#196 = CARTESIAN_POINT('',(0.89219657609,0.184550316451,0.));
#197 = CARTESIAN_POINT('',(0.660763692627,0.175523943549,0.));
#198 = CARTESIAN_POINT('',(0.415592676303,0.228215531302,0.));
#199 = CARTESIAN_POINT('',(0.,0.210107343207,0.));
#200 = PCURVE('',#76,#201);
#201 = DEFINITIONAL_REPRESENTATION('',(#202),#250);
#202 = B_SPLINE_CURVE_WITH_KNOTS('',1,(#203,#204,#205,#206,#207,#208,
    #209,#210,#211,#212,#213,#214,#215,#216,#217,#218,#219,#220,#221,
    #222,#223,#224,#225,#226,#227,#228,#229,#230,#231,#232,#233,#234,
    #235,#236,#237,#238,#239,#240,#241,#242,#243,#244,#245,#246,#247,
    #248,#249),.UNSPECIFIED.,.F.,.F.,(2,1,1,1,1,1,1,1,1,1,1,1,1,1,1,1,1,
    1,1,1,1,1,1,1,1,1,1,1,1,1,1,1,1,1,1,1,1,1,1,1,1,1,1,1,1,1,2),(0.,
    1.627160113211E-02,2.6291481583E-02,4.801546889808E-02,
    5.301123147199E-02,5.488536846698E-02,0.103447014951,0.12344121145,
    0.133963252947,0.158009024592,0.166180976906,0.243143284948,
    0.253786298554,0.318831125288,0.349038972827,0.382725002196,
    0.442876016067,0.452803633131,0.472237400949,0.497240677234,
    0.510457365266,0.526052586884,0.527312855554,0.596575371762,
    0.612868583497,0.648483398141,0.682110466527,0.691244567823,
    0.707032967016,0.72552641839,0.73187082041,0.73276198739,
    0.741570801281,0.781518166354,0.790263057294,0.8007964715,
    0.822401669196,0.832202242009,0.842571693889,0.865623232304,
    0.875000020715,0.894231451142,0.906143522931,0.908022982446,
    0.9317357136,0.957410141461,1.),.UNSPECIFIED.);
#203 = CARTESIAN_POINT('',(4.626731561653,7.858395897788E-02));
#204 = CARTESIAN_POINT('',(4.48476275756,0.150021808916));
#205 = CARTESIAN_POINT('',(4.464505046215,5.427439728883E-02));
#206 = CARTESIAN_POINT('',(4.252589159901,4.360654945134E-02));
#207 = CARTESIAN_POINT('',(4.211796766726,7.038215273519E-02));
#208 = CARTESIAN_POINT('',(4.194323583118,6.492607040218E-02));
#209 = CARTESIAN_POINT('',(3.721836614464,0.106529986245));
#210 = CARTESIAN_POINT('',(3.532263239297,5.962922532521E-02));
#211 = CARTESIAN_POINT('',(3.492470896488,0.154384662989));
#212 = CARTESIAN_POINT('',(3.264516613365,9.784369115036E-02));
#213 = CARTESIAN_POINT('',(3.208063573433,0.154269965901));
#214 = CARTESIAN_POINT('',(2.46292424564,5.507966234422E-02));
#215 = CARTESIAN_POINT('',(2.358973541255,5.581057994705E-02));
#216 = CARTESIAN_POINT('',(1.724702636875,9.214757016372E-02));
#217 = CARTESIAN_POINT('',(1.429908208578,0.104388161629));
#218 = CARTESIAN_POINT('',(1.100888409164,0.103569479942));
#219 = CARTESIAN_POINT('',(0.513395499046,9.887294986142E-02));
#220 = CARTESIAN_POINT('',(0.416484062833,0.102119382555));
#221 = CARTESIAN_POINT('',(0.229244734225,0.133283045599));
#222 = CARTESIAN_POINT('',(-1.460811736367E-02,0.146558659433));
#223 = CARTESIAN_POINT('',(-0.143548107345,0.152802281297));
#224 = CARTESIAN_POINT('',(-0.263835338877,5.935048754223E-02));
#225 = CARTESIAN_POINT('',(-0.270978077382,6.937558018602E-02));
#226 = CARTESIAN_POINT('',(-0.94748419849,6.980876846388E-02));
#227 = CARTESIAN_POINT('',(-1.102973395823,0.103702047315));
#228 = CARTESIAN_POINT('',(-1.450073099625,8.071865748839E-02));
#229 = CARTESIAN_POINT('',(-1.772176394767,0.144949016783));
#230 = CARTESIAN_POINT('',(-1.861348102261,0.142160157928));
#231 = CARTESIAN_POINT('',(-2.014625555129,0.12522942416));
#232 = CARTESIAN_POINT('',(-2.186421911685,6.943107676279E-02));
#233 = CARTESIAN_POINT('',(-2.243318073865,9.39831159933E-02));
#234 = CARTESIAN_POINT('',(-2.250854565291,8.96281517572E-02));
#235 = CARTESIAN_POINT('',(-2.332178381048,6.153904868153E-02));
#236 = CARTESIAN_POINT('',(-2.714057903209,0.141577424328));
#237 = CARTESIAN_POINT('',(-2.763240375441,7.174477733816E-02));
#238 = CARTESIAN_POINT('',(-2.864219997533,5.204747747798E-02));
#239 = CARTESIAN_POINT('',(-3.052404263368,0.147534649891));
#240 = CARTESIAN_POINT('',(-3.074850633245,5.447864049324E-02));
#241 = CARTESIAN_POINT('',(-3.09839780851,0.152984662809));
#242 = CARTESIAN_POINT('',(-3.305567907811,6.481762330168E-02));
#243 = CARTESIAN_POINT('',(-3.367068462506,0.132682358521));
#244 = CARTESIAN_POINT('',(-3.554901357274,0.131201796609));
#245 = CARTESIAN_POINT('',(-3.663162991383,8.858259573118E-02));
#246 = CARTESIAN_POINT('',(-3.681071862257,8.455031645059E-02));
#247 = CARTESIAN_POINT('',(-3.91250474572,7.55239435492E-02));
#248 = CARTESIAN_POINT('',(-4.157675762044,0.128215531302));
#249 = CARTESIAN_POINT('',(-4.573268438347,0.110107343207));
#250 = ( GEOMETRIC_REPRESENTATION_CONTEXT(2) 
PARAMETRIC_REPRESENTATION_CONTEXT() REPRESENTATION_CONTEXT('2D SPACE',''
  ) );
#251 = ORIENTED_EDGE('',*,*,#252,.T.);
#252 = EDGE_CURVE('',#149,#22,#253,.T.);
#253 = SURFACE_CURVE('',#254,(#258),.PCURVE_S1.);
#254 = LINE('',#255,#256);
#255 = CARTESIAN_POINT('',(0.,0.210107343207,0.));
#256 = VECTOR('',#257,1.);
#257 = DIRECTION('',(0.,-1.,0.));
#258 = PCURVE('',#76,#259);
#259 = DEFINITIONAL_REPRESENTATION('',(#260),#264);
#260 = LINE('',#261,#262);
#261 = CARTESIAN_POINT('',(-4.573268438347,0.110107343207));
#262 = VECTOR('',#263,1.);
#263 = DIRECTION('',(0.,-1.));
#264 = ( GEOMETRIC_REPRESENTATION_CONTEXT(2) 
PARAMETRIC_REPRESENTATION_CONTEXT() REPRESENTATION_CONTEXT('2D SPACE',''
  ) );
#265 = ( GEOMETRIC_REPRESENTATION_CONTEXT(3) 
GLOBAL_UNCERTAINTY_ASSIGNED_CONTEXT((#269)) GLOBAL_UNIT_ASSIGNED_CONTEXT
((#266,#267,#268)) REPRESENTATION_CONTEXT('Context #1',
  '3D Context with UNIT and UNCERTAINTY') );
#266 = ( LENGTH_UNIT() NAMED_UNIT(*) SI_UNIT(.MILLI.,.METRE.) );
#267 = ( NAMED_UNIT(*) PLANE_ANGLE_UNIT() SI_UNIT($,.RADIAN.) );
#268 = ( NAMED_UNIT(*) SI_UNIT($,.STERADIAN.) SOLID_ANGLE_UNIT() );
#269 = UNCERTAINTY_MEASURE_WITH_UNIT(LENGTH_MEASURE(1.E-07),#266,
  'distance_accuracy_value','confusion accuracy');
#270 = PRODUCT_RELATED_PRODUCT_CATEGORY('part',$,(#7));
ENDSEC;
END-ISO-10303-21;
