ISO-10303-21;
HEADER;
FILE_DESCRIPTION(('Open CASCADE Model'),'2;1');
FILE_NAME('Open CASCADE Shape Model','2026-05-28T17:04:49',('Author'),(
    'Open CASCADE'),'Open CASCADE STEP processor 7.9','Open CASCADE 7.9'
  ,'Unknown');
FILE_SCHEMA(('AUTOMOTIVE_DESIGN { 1 0 10303 214 1 1 1 1 }'));
ENDSEC;
DATA;
#1 = APPLICATION_PROTOCOL_DEFINITION('international standard',
  'automotive_design',2000,#2);
#2 = APPLICATION_CONTEXT(
  'core data for automotive mechanical design processes');
#3 = SHAPE_DEFINITION_REPRESENTATION(#4,#10);
#4 = PRODUCT_DEFINITION_SHAPE('','',#5);
#5 = PRODUCT_DEFINITION('design','',#6,#9);
#6 = PRODUCT_DEFINITION_FORMATION('','',#7);
#7 = PRODUCT('Open CASCADE STEP translator 7.9 84',
  'Open CASCADE STEP translator 7.9 84','',(#8));
#8 = PRODUCT_CONTEXT('',#2,'mechanical');
#9 = PRODUCT_DEFINITION_CONTEXT('part definition',#2,'design');
#10 = MANIFOLD_SURFACE_SHAPE_REPRESENTATION('',(#11,#15),#197);
#11 = AXIS2_PLACEMENT_3D('',#12,#13,#14);
#12 = CARTESIAN_POINT('',(0.,0.,0.));
#13 = DIRECTION('',(0.,0.,1.));
#14 = DIRECTION('',(1.,0.,-0.));
#15 = SHELL_BASED_SURFACE_MODEL('',(#16));
#16 = OPEN_SHELL('',(#17));
#17 = ADVANCED_FACE('',(#18),#59,.T.);
#18 = FACE_BOUND('',#19,.T.);
#19 = EDGE_LOOP('',(#20,#97,#113,#183));
#20 = ORIENTED_EDGE('',*,*,#21,.T.);
#21 = EDGE_CURVE('',#22,#24,#26,.T.);
#22 = VERTEX_POINT('',#23);
#23 = CARTESIAN_POINT('',(0.,3.897775232987E-02,0.));
#24 = VERTEX_POINT('',#25);
#25 = CARTESIAN_POINT('',(5.8,-5.894400369315E-02,0.));
#26 = SURFACE_CURVE('',#27,(#58),.PCURVE_S1.);
#27 = B_SPLINE_CURVE_WITH_KNOTS('',1,(#28,#29,#30,#31,#32,#33,#34,#35,
    #36,#37,#38,#39,#40,#41,#42,#43,#44,#45,#46,#47,#48,#49,#50,#51,#52,
    #53,#54,#55,#56,#57),.UNSPECIFIED.,.F.,.F.,(2,1,1,1,1,1,1,1,1,1,1,1,
    1,1,1,1,1,1,1,1,1,1,1,1,1,1,1,1,1,2),(0.,3.938074009432E-02,
    5.166054774933E-02,0.111347467909,0.157078644799,0.167977710673,
    0.207541536199,0.27748292886,0.29365999716,0.301674477023,
    0.419071379803,0.427834613892,0.443622910753,0.497203183652,
    0.507650295499,0.547695157522,0.555890298332,0.600968678796,
    0.616631184497,0.624353778571,0.637884766379,0.761075560128,
    0.774572943907,0.829926061072,0.840533842969,0.91604672188,
    0.926521247134,0.935971265773,0.974209348669,1.),.UNSPECIFIED.);
#28 = CARTESIAN_POINT('',(0.,3.897775232987E-02,0.));
#29 = CARTESIAN_POINT('',(0.24279684736,3.36595018862E-02,0.));
#30 = CARTESIAN_POINT('',(0.311893315498,2.669729357646E-03,0.));
#31 = CARTESIAN_POINT('',(0.676881411737,-4.494067189358E-02,0.));
#32 = CARTESIAN_POINT('',(0.955295614847,-4.345792516756E-06,0.));
#33 = CARTESIAN_POINT('',(0.996168247197,5.335295259416E-02,0.));
#34 = CARTESIAN_POINT('',(1.240145297795,5.521372767442E-02,0.));
#35 = CARTESIAN_POINT('',(1.670876023027,3.271308652526E-02,0.));
#36 = CARTESIAN_POINT('',(1.737951998842,-4.113255331313E-02,0.));
#37 = CARTESIAN_POINT('',(1.779636271262,-1.457766690422E-02,0.));
#38 = CARTESIAN_POINT('',(2.503571206987,-7.554942454355E-03,0.));
#39 = CARTESIAN_POINT('',(2.548994246158,2.172364889008E-02,0.));
#40 = CARTESIAN_POINT('',(2.613130871968,-5.153104860554E-02,0.));
#41 = CARTESIAN_POINT('',(2.935659302715,2.025861060454E-02,0.));
#42 = CARTESIAN_POINT('',(2.957935791169,-4.019332951835E-02,0.));
#43 = CARTESIAN_POINT('',(3.204778050683,-4.750842215711E-02,0.));
#44 = CARTESIAN_POINT('',(3.214929184622,1.999798414064E-03,0.));
#45 = CARTESIAN_POINT('',(3.488511704012,-4.731471233769E-02,0.));
#46 = CARTESIAN_POINT('',(3.550469279115,2.678360551307E-02,0.));
#47 = CARTESIAN_POINT('',(3.563538856173,-1.901201114199E-02,0.));
#48 = CARTESIAN_POINT('',(3.611252109669,4.944435017707E-02,0.));
#49 = CARTESIAN_POINT('',(4.369537960913,3.127894308913E-03,0.));
#50 = CARTESIAN_POINT('',(4.446869207107,3.3920183741E-02,0.));
#51 = CARTESIAN_POINT('',(4.787719232941,5.246840664833E-02,0.));
#52 = CARTESIAN_POINT('',(4.85275107007,5.955293903069E-02,0.));
#53 = CARTESIAN_POINT('',(5.316831452895,2.10297460271E-02,0.));
#54 = CARTESIAN_POINT('',(5.373071478154,-1.074367134441E-02,0.));
#55 = CARTESIAN_POINT('',(5.429075617942,5.372358281861E-03,0.));
#56 = CARTESIAN_POINT('',(5.664163942715,2.378768417766E-02,0.));
#57 = CARTESIAN_POINT('',(5.8,-5.894400369315E-02,0.));
#58 = PCURVE('',#59,#64);
#59 = PLANE('',#60);
#60 = AXIS2_PLACEMENT_3D('',#61,#62,#63);
#61 = CARTESIAN_POINT('',(2.95193289376,0.1,0.));
#62 = DIRECTION('',(0.,0.,1.));
#63 = DIRECTION('',(1.,0.,-0.));
#64 = DEFINITIONAL_REPRESENTATION('',(#65),#96);
#65 = B_SPLINE_CURVE_WITH_KNOTS('',1,(#66,#67,#68,#69,#70,#71,#72,#73,
    #74,#75,#76,#77,#78,#79,#80,#81,#82,#83,#84,#85,#86,#87,#88,#89,#90,
    #91,#92,#93,#94,#95),.UNSPECIFIED.,.F.,.F.,(2,1,1,1,1,1,1,1,1,1,1,1,
    1,1,1,1,1,1,1,1,1,1,1,1,1,1,1,1,1,2),(0.,3.938074009432E-02,
    5.166054774933E-02,0.111347467909,0.157078644799,0.167977710673,
    0.207541536199,0.27748292886,0.29365999716,0.301674477023,
    0.419071379803,0.427834613892,0.443622910753,0.497203183652,
    0.507650295499,0.547695157522,0.555890298332,0.600968678796,
    0.616631184497,0.624353778571,0.637884766379,0.761075560128,
    0.774572943907,0.829926061072,0.840533842969,0.91604672188,
    0.926521247134,0.935971265773,0.974209348669,1.),.UNSPECIFIED.);
#66 = CARTESIAN_POINT('',(-2.95193289376,-6.102224767013E-02));
#67 = CARTESIAN_POINT('',(-2.7091360464,-6.63404981138E-02));
#68 = CARTESIAN_POINT('',(-2.640039578262,-9.733027064235E-02));
#69 = CARTESIAN_POINT('',(-2.275051482022,-0.144940671894));
#70 = CARTESIAN_POINT('',(-1.996637278913,-0.100004345793));
#71 = CARTESIAN_POINT('',(-1.955764646563,-4.664704740584E-02));
#72 = CARTESIAN_POINT('',(-1.711787595965,-4.478627232558E-02));
#73 = CARTESIAN_POINT('',(-1.281056870733,-6.728691347474E-02));
#74 = CARTESIAN_POINT('',(-1.213980894918,-0.141132553313));
#75 = CARTESIAN_POINT('',(-1.172296622497,-0.114577666904));
#76 = CARTESIAN_POINT('',(-0.448361686773,-0.107554942454));
#77 = CARTESIAN_POINT('',(-0.402938647602,-7.827635110992E-02));
#78 = CARTESIAN_POINT('',(-0.338802021792,-0.151531048606));
#79 = CARTESIAN_POINT('',(-1.627359104436E-02,-7.974138939546E-02));
#80 = CARTESIAN_POINT('',(6.002897409004E-03,-0.140193329518));
#81 = CARTESIAN_POINT('',(0.252845156923,-0.147508422157));
#82 = CARTESIAN_POINT('',(0.262996290862,-9.800020158594E-02));
#83 = CARTESIAN_POINT('',(0.536578810252,-0.147314712338));
#84 = CARTESIAN_POINT('',(0.598536385355,-7.321639448693E-02));
#85 = CARTESIAN_POINT('',(0.611605962413,-0.119012011142));
#86 = CARTESIAN_POINT('',(0.659319215909,-5.055564982293E-02));
#87 = CARTESIAN_POINT('',(1.417605067153,-9.687210569109E-02));
#88 = CARTESIAN_POINT('',(1.494936313347,-6.6079816259E-02));
#89 = CARTESIAN_POINT('',(1.835786339181,-4.753159335167E-02));
#90 = CARTESIAN_POINT('',(1.900818176311,-4.044706096931E-02));
#91 = CARTESIAN_POINT('',(2.364898559135,-7.89702539729E-02));
#92 = CARTESIAN_POINT('',(2.421138584395,-0.110743671344));
#93 = CARTESIAN_POINT('',(2.477142724182,-9.462764171814E-02));
#94 = CARTESIAN_POINT('',(2.712231048956,-7.621231582234E-02));
#95 = CARTESIAN_POINT('',(2.84806710624,-0.158944003693));
#96 = ( GEOMETRIC_REPRESENTATION_CONTEXT(2) 
PARAMETRIC_REPRESENTATION_CONTEXT() REPRESENTATION_CONTEXT('2D SPACE',''
  ) );
#97 = ORIENTED_EDGE('',*,*,#98,.T.);
#98 = EDGE_CURVE('',#24,#99,#101,.T.);
#99 = VERTEX_POINT('',#100);
#100 = CARTESIAN_POINT('',(5.8,0.258944003693,0.));
#101 = SURFACE_CURVE('',#102,(#106),.PCURVE_S1.);
#102 = LINE('',#103,#104);
#103 = CARTESIAN_POINT('',(5.8,-5.894400369315E-02,0.));
#104 = VECTOR('',#105,1.);
#105 = DIRECTION('',(0.,1.,0.));
#106 = PCURVE('',#59,#107);
#107 = DEFINITIONAL_REPRESENTATION('',(#108),#112);
#108 = LINE('',#109,#110);
#109 = CARTESIAN_POINT('',(2.84806710624,-0.158944003693));
#110 = VECTOR('',#111,1.);
#111 = DIRECTION('',(0.,1.));
#112 = ( GEOMETRIC_REPRESENTATION_CONTEXT(2) 
PARAMETRIC_REPRESENTATION_CONTEXT() REPRESENTATION_CONTEXT('2D SPACE',''
  ) );
#113 = ORIENTED_EDGE('',*,*,#114,.T.);
#114 = EDGE_CURVE('',#99,#115,#117,.T.);
#115 = VERTEX_POINT('',#116);
#116 = CARTESIAN_POINT('',(0.,0.16102224767,0.));
#117 = SURFACE_CURVE('',#118,(#149),.PCURVE_S1.);
#118 = B_SPLINE_CURVE_WITH_KNOTS('',1,(#119,#120,#121,#122,#123,#124,
    #125,#126,#127,#128,#129,#130,#131,#132,#133,#134,#135,#136,#137,
    #138,#139,#140,#141,#142,#143,#144,#145,#146,#147,#148),
  .UNSPECIFIED.,.F.,.F.,(2,1,1,1,1,1,1,1,1,1,1,1,1,1,1,1,1,1,1,1,1,1,1,1
    ,1,1,1,1,1,2),(0.,2.57906513308E-02,6.402873422726E-02,
    7.347875286644E-02,8.395327812034E-02,0.159466157031,0.170073938928,
    0.225427056093,0.238924439872,0.362115233621,0.375646221429,
    0.383368815503,0.399031321204,0.444109701668,0.452304842478,
    0.492349704501,0.502796816348,0.556377089247,0.572165386108,
    0.580928620197,0.698325522977,0.70634000284,0.72251707114,
    0.792458463801,0.832022289327,0.842921355201,0.888652532091,
    0.948339452251,0.960619259906,1.),.UNSPECIFIED.);
#119 = CARTESIAN_POINT('',(5.8,0.258944003693,0.));
#120 = CARTESIAN_POINT('',(5.664163942715,0.176212315822,0.));
#121 = CARTESIAN_POINT('',(5.429075617942,0.194627641718,0.));
#122 = CARTESIAN_POINT('',(5.373071478154,0.210743671344,0.));
#123 = CARTESIAN_POINT('',(5.316831452895,0.178970253973,0.));
#124 = CARTESIAN_POINT('',(4.85275107007,0.140447060969,0.));
#125 = CARTESIAN_POINT('',(4.787719232941,0.147531593352,0.));
#126 = CARTESIAN_POINT('',(4.446869207107,0.166079816259,0.));
#127 = CARTESIAN_POINT('',(4.369537960913,0.196872105691,0.));
#128 = CARTESIAN_POINT('',(3.611252109669,0.150555649823,0.));
#129 = CARTESIAN_POINT('',(3.563538856173,0.219012011142,0.));
#130 = CARTESIAN_POINT('',(3.550469279115,0.173216394487,0.));
#131 = CARTESIAN_POINT('',(3.488511704012,0.247314712338,0.));
#132 = CARTESIAN_POINT('',(3.214929184622,0.198000201586,0.));
#133 = CARTESIAN_POINT('',(3.204778050683,0.247508422157,0.));
#134 = CARTESIAN_POINT('',(2.957935791169,0.240193329518,0.));
#135 = CARTESIAN_POINT('',(2.935659302715,0.179741389395,0.));
#136 = CARTESIAN_POINT('',(2.613130871968,0.251531048606,0.));
#137 = CARTESIAN_POINT('',(2.548994246158,0.17827635111,0.));
#138 = CARTESIAN_POINT('',(2.503571206987,0.207554942454,0.));
#139 = CARTESIAN_POINT('',(1.779636271262,0.214577666904,0.));
#140 = CARTESIAN_POINT('',(1.737951998842,0.241132553313,0.));
#141 = CARTESIAN_POINT('',(1.670876023027,0.167286913475,0.));
#142 = CARTESIAN_POINT('',(1.240145297795,0.144786272326,0.));
#143 = CARTESIAN_POINT('',(0.996168247197,0.146647047406,0.));
#144 = CARTESIAN_POINT('',(0.955295614847,0.200004345793,0.));
#145 = CARTESIAN_POINT('',(0.676881411737,0.244940671894,0.));
#146 = CARTESIAN_POINT('',(0.311893315498,0.197330270642,0.));
#147 = CARTESIAN_POINT('',(0.24279684736,0.166340498114,0.));
#148 = CARTESIAN_POINT('',(0.,0.16102224767,0.));
#149 = PCURVE('',#59,#150);
#150 = DEFINITIONAL_REPRESENTATION('',(#151),#182);
#151 = B_SPLINE_CURVE_WITH_KNOTS('',1,(#152,#153,#154,#155,#156,#157,
    #158,#159,#160,#161,#162,#163,#164,#165,#166,#167,#168,#169,#170,
    #171,#172,#173,#174,#175,#176,#177,#178,#179,#180,#181),
  .UNSPECIFIED.,.F.,.F.,(2,1,1,1,1,1,1,1,1,1,1,1,1,1,1,1,1,1,1,1,1,1,1,1
    ,1,1,1,1,1,2),(0.,2.57906513308E-02,6.402873422726E-02,
    7.347875286644E-02,8.395327812034E-02,0.159466157031,0.170073938928,
    0.225427056093,0.238924439872,0.362115233621,0.375646221429,
    0.383368815503,0.399031321204,0.444109701668,0.452304842478,
    0.492349704501,0.502796816348,0.556377089247,0.572165386108,
    0.580928620197,0.698325522977,0.70634000284,0.72251707114,
    0.792458463801,0.832022289327,0.842921355201,0.888652532091,
    0.948339452251,0.960619259906,1.),.UNSPECIFIED.);
#152 = CARTESIAN_POINT('',(2.84806710624,0.158944003693));
#153 = CARTESIAN_POINT('',(2.712231048956,7.621231582234E-02));
#154 = CARTESIAN_POINT('',(2.477142724182,9.462764171814E-02));
#155 = CARTESIAN_POINT('',(2.421138584395,0.110743671344));
#156 = CARTESIAN_POINT('',(2.364898559135,7.89702539729E-02));
#157 = CARTESIAN_POINT('',(1.900818176311,4.044706096931E-02));
#158 = CARTESIAN_POINT('',(1.835786339181,4.753159335167E-02));
#159 = CARTESIAN_POINT('',(1.494936313347,6.6079816259E-02));
#160 = CARTESIAN_POINT('',(1.417605067153,9.687210569109E-02));
#161 = CARTESIAN_POINT('',(0.659319215909,5.055564982293E-02));
#162 = CARTESIAN_POINT('',(0.611605962413,0.119012011142));
#163 = CARTESIAN_POINT('',(0.598536385355,7.321639448693E-02));
#164 = CARTESIAN_POINT('',(0.536578810252,0.147314712338));
#165 = CARTESIAN_POINT('',(0.262996290862,9.800020158594E-02));
#166 = CARTESIAN_POINT('',(0.252845156923,0.147508422157));
#167 = CARTESIAN_POINT('',(6.002897409004E-03,0.140193329518));
#168 = CARTESIAN_POINT('',(-1.627359104436E-02,7.974138939546E-02));
#169 = CARTESIAN_POINT('',(-0.338802021792,0.151531048606));
#170 = CARTESIAN_POINT('',(-0.402938647602,7.827635110992E-02));
#171 = CARTESIAN_POINT('',(-0.448361686773,0.107554942454));
#172 = CARTESIAN_POINT('',(-1.172296622497,0.114577666904));
#173 = CARTESIAN_POINT('',(-1.213980894918,0.141132553313));
#174 = CARTESIAN_POINT('',(-1.281056870733,6.728691347474E-02));
#175 = CARTESIAN_POINT('',(-1.711787595965,4.478627232558E-02));
#176 = CARTESIAN_POINT('',(-1.955764646563,4.664704740584E-02));
#177 = CARTESIAN_POINT('',(-1.996637278913,0.100004345793));
#178 = CARTESIAN_POINT('',(-2.275051482022,0.144940671894));
#179 = CARTESIAN_POINT('',(-2.640039578262,9.733027064235E-02));
#180 = CARTESIAN_POINT('',(-2.7091360464,6.63404981138E-02));
#181 = CARTESIAN_POINT('',(-2.95193289376,6.102224767013E-02));
#182 = ( GEOMETRIC_REPRESENTATION_CONTEXT(2) 
PARAMETRIC_REPRESENTATION_CONTEXT() REPRESENTATION_CONTEXT('2D SPACE',''
  ) );
#183 = ORIENTED_EDGE('',*,*,#184,.T.);
#184 = EDGE_CURVE('',#115,#22,#185,.T.);
#185 = SURFACE_CURVE('',#186,(#190),.PCURVE_S1.);
#186 = LINE('',#187,#188);
#187 = CARTESIAN_POINT('',(0.,0.16102224767,0.));
#188 = VECTOR('',#189,1.);
#189 = DIRECTION('',(0.,-1.,0.));
#190 = PCURVE('',#59,#191);
#191 = DEFINITIONAL_REPRESENTATION('',(#192),#196);
#192 = LINE('',#193,#194);
#193 = CARTESIAN_POINT('',(-2.95193289376,6.102224767013E-02));
#194 = VECTOR('',#195,1.);
#195 = DIRECTION('',(0.,-1.));
#196 = ( GEOMETRIC_REPRESENTATION_CONTEXT(2) 
PARAMETRIC_REPRESENTATION_CONTEXT() REPRESENTATION_CONTEXT('2D SPACE',''
  ) );
#197 = ( GEOMETRIC_REPRESENTATION_CONTEXT(3) 
GLOBAL_UNCERTAINTY_ASSIGNED_CONTEXT((#201)) GLOBAL_UNIT_ASSIGNED_CONTEXT
((#198,#199,#200)) REPRESENTATION_CONTEXT('Context #1',
  '3D Context with UNIT and UNCERTAINTY') );
#198 = ( LENGTH_UNIT() NAMED_UNIT(*) SI_UNIT(.MILLI.,.METRE.) );
#199 = ( NAMED_UNIT(*) PLANE_ANGLE_UNIT() SI_UNIT($,.RADIAN.) );
#200 = ( NAMED_UNIT(*) SI_UNIT($,.STERADIAN.) SOLID_ANGLE_UNIT() );
#201 = UNCERTAINTY_MEASURE_WITH_UNIT(LENGTH_MEASURE(1.E-07),#198,
  'distance_accuracy_value','confusion accuracy');
#202 = PRODUCT_RELATED_PRODUCT_CATEGORY('part',$,(#7));
ENDSEC;
END-ISO-10303-21;
