ISO-10303-21;
HEADER;
FILE_DESCRIPTION(('Open CASCADE Model'),'2;1');
FILE_NAME('Open CASCADE Shape Model','2026-05-28T17:04:49',('Author'),(
    'Open CASCADE'),'Open CASCADE STEP processor 7.9','Open CASCADE 7.9'
  ,'Unknown');
FILE_SCHEMA(('AUTOMOTIVE_DESIGN { 1 0 10303 214 1 1 1 1 }'));
ENDSEC;
DATA;
#1 = APPLICATION_PROTOCOL_DEFINITION('international standard',
  'automotive_design',2000,#2);
#2 = APPLICATION_CONTEXT(
  'core data for automotive mechanical design processes');
#3 = SHAPE_DEFINITION_REPRESENTATION(#4,#10);
#4 = PRODUCT_DEFINITION_SHAPE('','',#5);
#5 = PRODUCT_DEFINITION('design','',#6,#9);
#6 = PRODUCT_DEFINITION_FORMATION('','',#7);
#7 = PRODUCT('Open CASCADE STEP translator 7.9 71',
  'Open CASCADE STEP translator 7.9 71','',(#8));
#8 = PRODUCT_CONTEXT('',#2,'mechanical');
#9 = PRODUCT_DEFINITION_CONTEXT('part definition',#2,'design');
#10 = MANIFOLD_SURFACE_SHAPE_REPRESENTATION('',(#11,#15),#161);
#11 = AXIS2_PLACEMENT_3D('',#12,#13,#14);
#12 = CARTESIAN_POINT('',(0.,0.,0.));
#13 = DIRECTION('',(0.,0.,1.));
#14 = DIRECTION('',(1.,0.,-0.));
#15 = SHELL_BASED_SURFACE_MODEL('',(#16));
#16 = OPEN_SHELL('',(#17));
#17 = ADVANCED_FACE('',(#18),#50,.T.);
#18 = FACE_BOUND('',#19,.T.);
#19 = EDGE_LOOP('',(#20,#79,#95,#147));
#20 = ORIENTED_EDGE('',*,*,#21,.T.);
#21 = EDGE_CURVE('',#22,#24,#26,.T.);
#22 = VERTEX_POINT('',#23);
#23 = CARTESIAN_POINT('',(0.,-3.576474015264E-02,0.));
#24 = VERTEX_POINT('',#25);
#25 = CARTESIAN_POINT('',(4.,-5.276642976274E-02,0.));
#26 = SURFACE_CURVE('',#27,(#49),.PCURVE_S1.);
#27 = B_SPLINE_CURVE_WITH_KNOTS('',1,(#28,#29,#30,#31,#32,#33,#34,#35,
    #36,#37,#38,#39,#40,#41,#42,#43,#44,#45,#46,#47,#48),.UNSPECIFIED.,
  .F.,.F.,(2,1,1,1,1,1,1,1,1,1,1,1,1,1,1,1,1,1,1,1,2),(0.,
    1.886060566444E-02,7.925447688522E-02,0.131635561476,0.335731335206,
    0.346165602245,0.395324968134,0.434317888877,0.46243969109,
    0.509165295886,0.52321684057,0.542354579433,0.579112899514,
    0.583132842055,0.619399768198,0.677432185986,0.708071766865,
    0.797150311152,0.91847042733,0.976483045825,1.),.UNSPECIFIED.);
#28 = CARTESIAN_POINT('',(0.,-3.576474015264E-02,0.));
#29 = CARTESIAN_POINT('',(4.88618516614E-02,2.896921547411E-02,0.));
#30 = CARTESIAN_POINT('',(0.299686785038,-3.836862483388E-02,0.));
#31 = CARTESIAN_POINT('',(0.502500182207,5.963266741631E-02,0.));
#32 = CARTESIAN_POINT('',(1.377031148579,-1.436128345629E-02,0.));
#33 = CARTESIAN_POINT('',(1.401191368995,-5.217085812549E-02,0.));
#34 = CARTESIAN_POINT('',(1.611850967082,-3.454319424406E-02,0.));
#35 = CARTESIAN_POINT('',(1.779343037127,-4.243610305768E-02,0.));
#36 = CARTESIAN_POINT('',(1.887142880652,1.236543657942E-02,0.));
#37 = CARTESIAN_POINT('',(2.081420743862,-3.890867353202E-02,0.));
#38 = CARTESIAN_POINT('',(2.132162419145,-6.099799803632E-03,0.));
#39 = CARTESIAN_POINT('',(2.214056739948,-1.422482838038E-02,0.));
#40 = CARTESIAN_POINT('',(2.357150814659,5.29301592797E-02,0.));
#41 = CARTESIAN_POINT('',(2.359570989164,3.581379633907E-02,0.));
#42 = CARTESIAN_POINT('',(2.50978436043,-6.115729861626E-03,0.));
#43 = CARTESIAN_POINT('',(2.752246932405,5.294387306118E-02,0.));
#44 = CARTESIAN_POINT('',(2.855442740256,-2.897361679053E-02,0.));
#45 = CARTESIAN_POINT('',(3.23831680931,-4.080684102263E-02,0.));
#46 = CARTESIAN_POINT('',(3.75993037482,-5.044348335538E-02,0.));
#47 = CARTESIAN_POINT('',(3.989242970187,4.778778489842E-02,0.));
#48 = CARTESIAN_POINT('',(4.,-5.276642976274E-02,0.));
#49 = PCURVE('',#50,#55);
#50 = PLANE('',#51);
#51 = AXIS2_PLACEMENT_3D('',#52,#53,#54);
#52 = CARTESIAN_POINT('',(2.034548735148,0.1,0.));
#53 = DIRECTION('',(0.,0.,1.));
#54 = DIRECTION('',(1.,0.,-0.));
#55 = DEFINITIONAL_REPRESENTATION('',(#56),#78);
#56 = B_SPLINE_CURVE_WITH_KNOTS('',1,(#57,#58,#59,#60,#61,#62,#63,#64,
    #65,#66,#67,#68,#69,#70,#71,#72,#73,#74,#75,#76,#77),.UNSPECIFIED.,
  .F.,.F.,(2,1,1,1,1,1,1,1,1,1,1,1,1,1,1,1,1,1,1,1,2),(0.,
    1.886060566444E-02,7.925447688522E-02,0.131635561476,0.335731335206,
    0.346165602245,0.395324968134,0.434317888877,0.46243969109,
    0.509165295886,0.52321684057,0.542354579433,0.579112899514,
    0.583132842055,0.619399768198,0.677432185986,0.708071766865,
    0.797150311152,0.91847042733,0.976483045825,1.),.UNSPECIFIED.);
#57 = CARTESIAN_POINT('',(-2.034548735148,-0.135764740153));
#58 = CARTESIAN_POINT('',(-1.985686883487,-7.103078452589E-02));
#59 = CARTESIAN_POINT('',(-1.73486195011,-0.138368624834));
#60 = CARTESIAN_POINT('',(-1.532048552941,-4.036733258369E-02));
#61 = CARTESIAN_POINT('',(-0.657517586569,-0.114361283456));
#62 = CARTESIAN_POINT('',(-0.633357366153,-0.152170858125));
#63 = CARTESIAN_POINT('',(-0.422697768066,-0.134543194244));
#64 = CARTESIAN_POINT('',(-0.255205698021,-0.142436103058));
#65 = CARTESIAN_POINT('',(-0.147405854496,-8.763456342058E-02));
#66 = CARTESIAN_POINT('',(4.687200871389E-02,-0.138908673532));
#67 = CARTESIAN_POINT('',(9.761368399744E-02,-0.106099799804));
#68 = CARTESIAN_POINT('',(0.1795080048,-0.11422482838));
#69 = CARTESIAN_POINT('',(0.322602079511,-4.70698407203E-02));
#70 = CARTESIAN_POINT('',(0.325022254016,-6.418620366093E-02));
#71 = CARTESIAN_POINT('',(0.475235625282,-0.106115729862));
#72 = CARTESIAN_POINT('',(0.717698197257,-4.705612693882E-02));
#73 = CARTESIAN_POINT('',(0.820894005108,-0.128973616791));
#74 = CARTESIAN_POINT('',(1.203768074162,-0.140806841023));
#75 = CARTESIAN_POINT('',(1.725381639672,-0.150443483355));
#76 = CARTESIAN_POINT('',(1.954694235039,-5.221221510158E-02));
#77 = CARTESIAN_POINT('',(1.965451264852,-0.152766429763));
#78 = ( GEOMETRIC_REPRESENTATION_CONTEXT(2) 
PARAMETRIC_REPRESENTATION_CONTEXT() REPRESENTATION_CONTEXT('2D SPACE',''
  ) );
#79 = ORIENTED_EDGE('',*,*,#80,.T.);
#80 = EDGE_CURVE('',#24,#81,#83,.T.);
#81 = VERTEX_POINT('',#82);
#82 = CARTESIAN_POINT('',(4.,0.252766429763,0.));
#83 = SURFACE_CURVE('',#84,(#88),.PCURVE_S1.);
#84 = LINE('',#85,#86);
#85 = CARTESIAN_POINT('',(4.,-5.276642976274E-02,0.));
#86 = VECTOR('',#87,1.);
#87 = DIRECTION('',(0.,1.,0.));
#88 = PCURVE('',#50,#89);
#89 = DEFINITIONAL_REPRESENTATION('',(#90),#94);
#90 = LINE('',#91,#92);
#91 = CARTESIAN_POINT('',(1.965451264852,-0.152766429763));
#92 = VECTOR('',#93,1.);
#93 = DIRECTION('',(0.,1.));
#94 = ( GEOMETRIC_REPRESENTATION_CONTEXT(2) 
PARAMETRIC_REPRESENTATION_CONTEXT() REPRESENTATION_CONTEXT('2D SPACE',''
  ) );
#95 = ORIENTED_EDGE('',*,*,#96,.T.);
#96 = EDGE_CURVE('',#81,#97,#99,.T.);
#97 = VERTEX_POINT('',#98);
#98 = CARTESIAN_POINT('',(0.,0.235764740153,0.));
#99 = SURFACE_CURVE('',#100,(#122),.PCURVE_S1.);
#100 = B_SPLINE_CURVE_WITH_KNOTS('',1,(#101,#102,#103,#104,#105,#106,
    #107,#108,#109,#110,#111,#112,#113,#114,#115,#116,#117,#118,#119,
    #120,#121),.UNSPECIFIED.,.F.,.F.,(2,1,1,1,1,1,1,1,1,1,1,1,1,1,1,1,1,
    1,1,1,2),(0.,2.351695417529E-02,8.152957267016E-02,0.202849688848,
    0.291928233135,0.322567814014,0.380600231802,0.416867157945,
    0.420887100486,0.457645420567,0.47678315943,0.490834704114,
    0.53756030891,0.565682111123,0.604675031866,0.653834397755,
    0.664268664794,0.868364438524,0.920745523115,0.981139394336,1.),
  .UNSPECIFIED.);
#101 = CARTESIAN_POINT('',(4.,0.252766429763,0.));
#102 = CARTESIAN_POINT('',(3.989242970187,0.152212215102,0.));
#103 = CARTESIAN_POINT('',(3.75993037482,0.250443483355,0.));
#104 = CARTESIAN_POINT('',(3.23831680931,0.240806841023,0.));
#105 = CARTESIAN_POINT('',(2.855442740256,0.228973616791,0.));
#106 = CARTESIAN_POINT('',(2.752246932405,0.147056126939,0.));
#107 = CARTESIAN_POINT('',(2.50978436043,0.206115729862,0.));
#108 = CARTESIAN_POINT('',(2.359570989164,0.164186203661,0.));
#109 = CARTESIAN_POINT('',(2.357150814659,0.14706984072,0.));
#110 = CARTESIAN_POINT('',(2.214056739948,0.21422482838,0.));
#111 = CARTESIAN_POINT('',(2.132162419145,0.206099799804,0.));
#112 = CARTESIAN_POINT('',(2.081420743862,0.238908673532,0.));
#113 = CARTESIAN_POINT('',(1.887142880652,0.187634563421,0.));
#114 = CARTESIAN_POINT('',(1.779343037127,0.242436103058,0.));
#115 = CARTESIAN_POINT('',(1.611850967082,0.234543194244,0.));
#116 = CARTESIAN_POINT('',(1.401191368995,0.252170858125,0.));
#117 = CARTESIAN_POINT('',(1.377031148579,0.214361283456,0.));
#118 = CARTESIAN_POINT('',(0.502500182207,0.140367332584,0.));
#119 = CARTESIAN_POINT('',(0.299686785038,0.238368624834,0.));
#120 = CARTESIAN_POINT('',(4.88618516614E-02,0.171030784526,0.));
#121 = CARTESIAN_POINT('',(0.,0.235764740153,0.));
#122 = PCURVE('',#50,#123);
#123 = DEFINITIONAL_REPRESENTATION('',(#124),#146);
#124 = B_SPLINE_CURVE_WITH_KNOTS('',1,(#125,#126,#127,#128,#129,#130,
    #131,#132,#133,#134,#135,#136,#137,#138,#139,#140,#141,#142,#143,
    #144,#145),.UNSPECIFIED.,.F.,.F.,(2,1,1,1,1,1,1,1,1,1,1,1,1,1,1,1,1,
    1,1,1,2),(0.,2.351695417529E-02,8.152957267016E-02,0.202849688848,
    0.291928233135,0.322567814014,0.380600231802,0.416867157945,
    0.420887100486,0.457645420567,0.47678315943,0.490834704114,
    0.53756030891,0.565682111123,0.604675031866,0.653834397755,
    0.664268664794,0.868364438524,0.920745523115,0.981139394336,1.),
  .UNSPECIFIED.);
#125 = CARTESIAN_POINT('',(1.965451264852,0.152766429763));
#126 = CARTESIAN_POINT('',(1.954694235039,5.221221510158E-02));
#127 = CARTESIAN_POINT('',(1.725381639672,0.150443483355));
#128 = CARTESIAN_POINT('',(1.203768074162,0.140806841023));
#129 = CARTESIAN_POINT('',(0.820894005108,0.128973616791));
#130 = CARTESIAN_POINT('',(0.717698197257,4.705612693882E-02));
#131 = CARTESIAN_POINT('',(0.475235625282,0.106115729862));
#132 = CARTESIAN_POINT('',(0.325022254016,6.418620366093E-02));
#133 = CARTESIAN_POINT('',(0.322602079511,4.70698407203E-02));
#134 = CARTESIAN_POINT('',(0.1795080048,0.11422482838));
#135 = CARTESIAN_POINT('',(9.761368399744E-02,0.106099799804));
#136 = CARTESIAN_POINT('',(4.687200871389E-02,0.138908673532));
#137 = CARTESIAN_POINT('',(-0.147405854496,8.763456342058E-02));
#138 = CARTESIAN_POINT('',(-0.255205698021,0.142436103058));
#139 = CARTESIAN_POINT('',(-0.422697768066,0.134543194244));
#140 = CARTESIAN_POINT('',(-0.633357366153,0.152170858125));
#141 = CARTESIAN_POINT('',(-0.657517586569,0.114361283456));
#142 = CARTESIAN_POINT('',(-1.532048552941,4.036733258369E-02));
#143 = CARTESIAN_POINT('',(-1.73486195011,0.138368624834));
#144 = CARTESIAN_POINT('',(-1.985686883487,7.103078452589E-02));
#145 = CARTESIAN_POINT('',(-2.034548735148,0.135764740153));
#146 = ( GEOMETRIC_REPRESENTATION_CONTEXT(2) 
PARAMETRIC_REPRESENTATION_CONTEXT() REPRESENTATION_CONTEXT('2D SPACE',''
  ) );
#147 = ORIENTED_EDGE('',*,*,#148,.T.);
#148 = EDGE_CURVE('',#97,#22,#149,.T.);
#149 = SURFACE_CURVE('',#150,(#154),.PCURVE_S1.);
#150 = LINE('',#151,#152);
#151 = CARTESIAN_POINT('',(0.,0.235764740153,0.));
#152 = VECTOR('',#153,1.);
#153 = DIRECTION('',(0.,-1.,0.));
#154 = PCURVE('',#50,#155);
#155 = DEFINITIONAL_REPRESENTATION('',(#156),#160);
#156 = LINE('',#157,#158);
#157 = CARTESIAN_POINT('',(-2.034548735148,0.135764740153));
#158 = VECTOR('',#159,1.);
#159 = DIRECTION('',(0.,-1.));
#160 = ( GEOMETRIC_REPRESENTATION_CONTEXT(2) 
PARAMETRIC_REPRESENTATION_CONTEXT() REPRESENTATION_CONTEXT('2D SPACE',''
  ) );
#161 = ( GEOMETRIC_REPRESENTATION_CONTEXT(3) 
GLOBAL_UNCERTAINTY_ASSIGNED_CONTEXT((#165)) GLOBAL_UNIT_ASSIGNED_CONTEXT
((#162,#163,#164)) REPRESENTATION_CONTEXT('Context #1',
  '3D Context with UNIT and UNCERTAINTY') );
#162 = ( LENGTH_UNIT() NAMED_UNIT(*) SI_UNIT(.MILLI.,.METRE.) );
#163 = ( NAMED_UNIT(*) PLANE_ANGLE_UNIT() SI_UNIT($,.RADIAN.) );
#164 = ( NAMED_UNIT(*) SI_UNIT($,.STERADIAN.) SOLID_ANGLE_UNIT() );
#165 = UNCERTAINTY_MEASURE_WITH_UNIT(LENGTH_MEASURE(1.E-07),#162,
  'distance_accuracy_value','confusion accuracy');
#166 = PRODUCT_RELATED_PRODUCT_CATEGORY('part',$,(#7));
ENDSEC;
END-ISO-10303-21;
