ISO-10303-21;
HEADER;
FILE_DESCRIPTION(('Open CASCADE Model'),'2;1');
FILE_NAME('Open CASCADE Shape Model','2026-05-29T14:30:30',('Author'),(
    'Open CASCADE'),'Open CASCADE STEP processor 7.9','Open CASCADE 7.9'
  ,'Unknown');
FILE_SCHEMA(('AUTOMOTIVE_DESIGN { 1 0 10303 214 1 1 1 1 }'));
ENDSEC;
DATA;
#1 = APPLICATION_PROTOCOL_DEFINITION('international standard',
  'automotive_design',2000,#2);
#2 = APPLICATION_CONTEXT(
  'core data for automotive mechanical design processes');
#3 = SHAPE_DEFINITION_REPRESENTATION(#4,#10);
#4 = PRODUCT_DEFINITION_SHAPE('','',#5);
#5 = PRODUCT_DEFINITION('design','',#6,#9);
#6 = PRODUCT_DEFINITION_FORMATION('','',#7);
#7 = PRODUCT('Open CASCADE STEP translator 7.9 80',
  'Open CASCADE STEP translator 7.9 80','',(#8));
#8 = PRODUCT_CONTEXT('',#2,'mechanical');
#9 = PRODUCT_DEFINITION_CONTEXT('part definition',#2,'design');
#10 = MANIFOLD_SURFACE_SHAPE_REPRESENTATION('',(#11,#15),#121);
#11 = AXIS2_PLACEMENT_3D('',#12,#13,#14);
#12 = CARTESIAN_POINT('',(0.,0.,0.));
#13 = DIRECTION('',(0.,0.,1.));
#14 = DIRECTION('',(1.,0.,-0.));
#15 = SHELL_BASED_SURFACE_MODEL('',(#16));
#16 = OPEN_SHELL('',(#17));
#17 = ADVANCED_FACE('',(#18),#40,.T.);
#18 = FACE_BOUND('',#19,.T.);
#19 = EDGE_LOOP('',(#20,#59,#75,#107));
#20 = ORIENTED_EDGE('',*,*,#21,.T.);
#21 = EDGE_CURVE('',#22,#24,#26,.T.);
#22 = VERTEX_POINT('',#23);
#23 = CARTESIAN_POINT('',(0.,28.032278951326,0.));
#24 = VERTEX_POINT('',#25);
#25 = CARTESIAN_POINT('',(1.5E+03,36.557295839305,0.));
#26 = SURFACE_CURVE('',#27,(#39),.PCURVE_S1.);
#27 = B_SPLINE_CURVE_WITH_KNOTS('',1,(#28,#29,#30,#31,#32,#33,#34,#35,
    #36,#37,#38),.UNSPECIFIED.,.F.,.F.,(2,1,1,1,1,1,1,1,1,1,2),(0.,
    5.924448286583E-02,0.243707074897,0.316994958358,0.410563227304,
    0.647693770387,0.738515894085,0.76619704478,0.844061813092,
    0.93756422457,1.),.UNSPECIFIED.);
#28 = CARTESIAN_POINT('',(0.,28.032278951326,0.));
#29 = CARTESIAN_POINT('',(76.76684539664,-26.57090327244,0.));
#30 = CARTESIAN_POINT('',(369.70516583332,-41.45636570659,0.));
#31 = CARTESIAN_POINT('',(484.24235365849,-19.96526990102,0.));
#32 = CARTESIAN_POINT('',(631.97676413214,-37.60739969631,0.));
#33 = CARTESIAN_POINT('',(1.008993753068E+03,-43.57667384532,0.));
#34 = CARTESIAN_POINT('',(1.141732862913E+03,13.315439318469,0.));
#35 = CARTESIAN_POINT('',(1.1774270094E+03,-12.44011976337,0.));
#36 = CARTESIAN_POINT('',(1.300354677966E+03,2.346053612573,0.));
#37 = CARTESIAN_POINT('',(1.441692595299E+03,-43.79658721769,0.));
#38 = CARTESIAN_POINT('',(1.5E+03,36.557295839305,0.));
#39 = PCURVE('',#40,#45);
#40 = PLANE('',#41);
#41 = AXIS2_PLACEMENT_3D('',#42,#43,#44);
#42 = CARTESIAN_POINT('',(763.06417036056,75.,0.));
#43 = DIRECTION('',(0.,0.,1.));
#44 = DIRECTION('',(1.,0.,-0.));
#45 = DEFINITIONAL_REPRESENTATION('',(#46),#58);
#46 = B_SPLINE_CURVE_WITH_KNOTS('',1,(#47,#48,#49,#50,#51,#52,#53,#54,
    #55,#56,#57),.UNSPECIFIED.,.F.,.F.,(2,1,1,1,1,1,1,1,1,1,2),(0.,
    5.924448286583E-02,0.243707074897,0.316994958358,0.410563227304,
    0.647693770387,0.738515894085,0.76619704478,0.844061813092,
    0.93756422457,1.),.UNSPECIFIED.);
#47 = CARTESIAN_POINT('',(-763.0641703605,-46.96772104867));
#48 = CARTESIAN_POINT('',(-686.2973249639,-101.5709032724));
#49 = CARTESIAN_POINT('',(-393.3590045272,-116.4563657065));
#50 = CARTESIAN_POINT('',(-278.821816702,-94.96526990102));
#51 = CARTESIAN_POINT('',(-131.0874062284,-112.6073996963));
#52 = CARTESIAN_POINT('',(245.92958270696,-118.5766738453));
#53 = CARTESIAN_POINT('',(378.66869255273,-61.68456068153));
#54 = CARTESIAN_POINT('',(414.36283903934,-87.44011976337));
#55 = CARTESIAN_POINT('',(537.29050760514,-72.65394638742));
#56 = CARTESIAN_POINT('',(678.62842493802,-118.7965872176));
#57 = CARTESIAN_POINT('',(736.93582963943,-38.44270416069));
#58 = ( GEOMETRIC_REPRESENTATION_CONTEXT(2) 
PARAMETRIC_REPRESENTATION_CONTEXT() REPRESENTATION_CONTEXT('2D SPACE',''
  ) );
#59 = ORIENTED_EDGE('',*,*,#60,.T.);
#60 = EDGE_CURVE('',#24,#61,#63,.T.);
#61 = VERTEX_POINT('',#62);
#62 = CARTESIAN_POINT('',(1.5E+03,113.44270416069,0.));
#63 = SURFACE_CURVE('',#64,(#68),.PCURVE_S1.);
#64 = LINE('',#65,#66);
#65 = CARTESIAN_POINT('',(1.5E+03,36.557295839305,0.));
#66 = VECTOR('',#67,1.);
#67 = DIRECTION('',(0.,1.,0.));
#68 = PCURVE('',#40,#69);
#69 = DEFINITIONAL_REPRESENTATION('',(#70),#74);
#70 = LINE('',#71,#72);
#71 = CARTESIAN_POINT('',(736.93582963943,-38.44270416069));
#72 = VECTOR('',#73,1.);
#73 = DIRECTION('',(0.,1.));
#74 = ( GEOMETRIC_REPRESENTATION_CONTEXT(2) 
PARAMETRIC_REPRESENTATION_CONTEXT() REPRESENTATION_CONTEXT('2D SPACE',''
  ) );
#75 = ORIENTED_EDGE('',*,*,#76,.T.);
#76 = EDGE_CURVE('',#61,#77,#79,.T.);
#77 = VERTEX_POINT('',#78);
#78 = CARTESIAN_POINT('',(0.,121.96772104867,0.));
#79 = SURFACE_CURVE('',#80,(#92),.PCURVE_S1.);
#80 = B_SPLINE_CURVE_WITH_KNOTS('',1,(#81,#82,#83,#84,#85,#86,#87,#88,
    #89,#90,#91),.UNSPECIFIED.,.F.,.F.,(2,1,1,1,1,1,1,1,1,1,2),(0.,
    6.243577542951E-02,0.155938186908,0.23380295522,0.261484105915,
    0.352306229613,0.589436772696,0.683005041642,0.756292925103,
    0.940755517134,1.),.UNSPECIFIED.);
#81 = CARTESIAN_POINT('',(1.5E+03,113.44270416069,0.));
#82 = CARTESIAN_POINT('',(1.441692595299E+03,193.79658721769,0.));
#83 = CARTESIAN_POINT('',(1.300354677966E+03,147.65394638742,0.));
#84 = CARTESIAN_POINT('',(1.1774270094E+03,162.44011976337,0.));
#85 = CARTESIAN_POINT('',(1.141732862913E+03,136.68456068153,0.));
#86 = CARTESIAN_POINT('',(1.008993753068E+03,193.57667384532,0.));
#87 = CARTESIAN_POINT('',(631.97676413214,187.60739969631,0.));
#88 = CARTESIAN_POINT('',(484.24235365849,169.96526990102,0.));
#89 = CARTESIAN_POINT('',(369.70516583332,191.45636570659,0.));
#90 = CARTESIAN_POINT('',(76.76684539664,176.57090327244,0.));
#91 = CARTESIAN_POINT('',(0.,121.96772104867,0.));
#92 = PCURVE('',#40,#93);
#93 = DEFINITIONAL_REPRESENTATION('',(#94),#106);
#94 = B_SPLINE_CURVE_WITH_KNOTS('',1,(#95,#96,#97,#98,#99,#100,#101,#102
    ,#103,#104,#105),.UNSPECIFIED.,.F.,.F.,(2,1,1,1,1,1,1,1,1,1,2),(0.,
    6.243577542951E-02,0.155938186908,0.23380295522,0.261484105915,
    0.352306229613,0.589436772696,0.683005041642,0.756292925103,
    0.940755517134,1.),.UNSPECIFIED.);
#95 = CARTESIAN_POINT('',(736.93582963943,38.442704160695));
#96 = CARTESIAN_POINT('',(678.62842493802,118.79658721769));
#97 = CARTESIAN_POINT('',(537.29050760514,72.653946387427));
#98 = CARTESIAN_POINT('',(414.36283903934,87.44011976337));
#99 = CARTESIAN_POINT('',(378.66869255273,61.684560681531));
#100 = CARTESIAN_POINT('',(245.92958270696,118.57667384532));
#101 = CARTESIAN_POINT('',(-131.0874062284,112.60739969631));
#102 = CARTESIAN_POINT('',(-278.821816702,94.965269901025));
#103 = CARTESIAN_POINT('',(-393.3590045272,116.45636570659));
#104 = CARTESIAN_POINT('',(-686.2973249639,101.57090327244));
#105 = CARTESIAN_POINT('',(-763.0641703605,46.967721048674));
#106 = ( GEOMETRIC_REPRESENTATION_CONTEXT(2) 
PARAMETRIC_REPRESENTATION_CONTEXT() REPRESENTATION_CONTEXT('2D SPACE',''
  ) );
#107 = ORIENTED_EDGE('',*,*,#108,.T.);
#108 = EDGE_CURVE('',#77,#22,#109,.T.);
#109 = SURFACE_CURVE('',#110,(#114),.PCURVE_S1.);
#110 = LINE('',#111,#112);
#111 = CARTESIAN_POINT('',(0.,121.96772104867,0.));
#112 = VECTOR('',#113,1.);
#113 = DIRECTION('',(0.,-1.,0.));
#114 = PCURVE('',#40,#115);
#115 = DEFINITIONAL_REPRESENTATION('',(#116),#120);
#116 = LINE('',#117,#118);
#117 = CARTESIAN_POINT('',(-763.0641703605,46.967721048674));
#118 = VECTOR('',#119,1.);
#119 = DIRECTION('',(0.,-1.));
#120 = ( GEOMETRIC_REPRESENTATION_CONTEXT(2) 
PARAMETRIC_REPRESENTATION_CONTEXT() REPRESENTATION_CONTEXT('2D SPACE',''
  ) );
#121 = ( GEOMETRIC_REPRESENTATION_CONTEXT(3) 
GLOBAL_UNCERTAINTY_ASSIGNED_CONTEXT((#125)) GLOBAL_UNIT_ASSIGNED_CONTEXT
((#122,#123,#124)) REPRESENTATION_CONTEXT('Context #1',
  '3D Context with UNIT and UNCERTAINTY') );
#122 = ( LENGTH_UNIT() NAMED_UNIT(*) SI_UNIT(.MILLI.,.METRE.) );
#123 = ( NAMED_UNIT(*) PLANE_ANGLE_UNIT() SI_UNIT($,.RADIAN.) );
#124 = ( NAMED_UNIT(*) SI_UNIT($,.STERADIAN.) SOLID_ANGLE_UNIT() );
#125 = UNCERTAINTY_MEASURE_WITH_UNIT(LENGTH_MEASURE(1.E-07),#122,
  'distance_accuracy_value','confusion accuracy');
#126 = PRODUCT_RELATED_PRODUCT_CATEGORY('part',$,(#7));
ENDSEC;
END-ISO-10303-21;
