ISO-10303-21;
HEADER;
FILE_DESCRIPTION(('Open CASCADE Model'),'2;1');
FILE_NAME('Open CASCADE Shape Model','2026-05-28T17:04:49',('Author'),(
    'Open CASCADE'),'Open CASCADE STEP processor 7.9','Open CASCADE 7.9'
  ,'Unknown');
FILE_SCHEMA(('AUTOMOTIVE_DESIGN { 1 0 10303 214 1 1 1 1 }'));
ENDSEC;
DATA;
#1 = APPLICATION_PROTOCOL_DEFINITION('international standard',
  'automotive_design',2000,#2);
#2 = APPLICATION_CONTEXT(
  'core data for automotive mechanical design processes');
#3 = SHAPE_DEFINITION_REPRESENTATION(#4,#10);
#4 = PRODUCT_DEFINITION_SHAPE('','',#5);
#5 = PRODUCT_DEFINITION('design','',#6,#9);
#6 = PRODUCT_DEFINITION_FORMATION('','',#7);
#7 = PRODUCT('Open CASCADE STEP translator 7.9 27',
  'Open CASCADE STEP translator 7.9 27','',(#8));
#8 = PRODUCT_CONTEXT('',#2,'mechanical');
#9 = PRODUCT_DEFINITION_CONTEXT('part definition',#2,'design');
#10 = MANIFOLD_SURFACE_SHAPE_REPRESENTATION('',(#11,#15),#209);
#11 = AXIS2_PLACEMENT_3D('',#12,#13,#14);
#12 = CARTESIAN_POINT('',(0.,0.,0.));
#13 = DIRECTION('',(0.,0.,1.));
#14 = DIRECTION('',(1.,0.,-0.));
#15 = SHELL_BASED_SURFACE_MODEL('',(#16));
#16 = OPEN_SHELL('',(#17));
#17 = ADVANCED_FACE('',(#18),#62,.T.);
#18 = FACE_BOUND('',#19,.T.);
#19 = EDGE_LOOP('',(#20,#103,#119,#195));
#20 = ORIENTED_EDGE('',*,*,#21,.T.);
#21 = EDGE_CURVE('',#22,#24,#26,.T.);
#22 = VERTEX_POINT('',#23);
#23 = CARTESIAN_POINT('',(0.,-6.840213825774E-03,0.));
#24 = VERTEX_POINT('',#25);
#25 = CARTESIAN_POINT('',(6.4,5.536268282077E-02,0.));
#26 = SURFACE_CURVE('',#27,(#61),.PCURVE_S1.);
#27 = B_SPLINE_CURVE_WITH_KNOTS('',1,(#28,#29,#30,#31,#32,#33,#34,#35,
    #36,#37,#38,#39,#40,#41,#42,#43,#44,#45,#46,#47,#48,#49,#50,#51,#52,
    #53,#54,#55,#56,#57,#58,#59,#60),.UNSPECIFIED.,.F.,.F.,(2,1,1,1,1,1,
    1,1,1,1,1,1,1,1,1,1,1,1,1,1,1,1,1,1,1,1,1,1,1,1,1,1,2),(0.,
    1.515456605612E-02,7.505355765829E-02,0.100250340756,0.207009913964,
    0.249189636278,0.292593400493,0.321313401802,0.373610636922,
    0.383506259949,0.432576609117,0.451059269508,0.469337726156,
    0.480959418343,0.53237975344,0.549705961946,0.584714044056,
    0.596658463941,0.623673257563,0.76017007457,0.772275233844,
    0.812321321402,0.822602508822,0.840580119521,0.850984657604,
    0.866435493535,0.873195326218,0.892043637773,0.914364631817,
    0.923188677266,0.975417743997,0.983555338575,1.),.UNSPECIFIED.);
#28 = CARTESIAN_POINT('',(0.,-6.840213825774E-03,0.));
#29 = CARTESIAN_POINT('',(0.101155554817,2.444404434558E-02,0.));
#30 = CARTESIAN_POINT('',(0.519385602713,3.962400314728E-02,0.));
#31 = CARTESIAN_POINT('',(0.695405460878,3.657773642176E-02,0.));
#32 = CARTESIAN_POINT('',(1.441137063075,5.304655865542E-02,0.));
#33 = CARTESIAN_POINT('',(1.715744670852,-5.391522276111E-02,0.));
#34 = CARTESIAN_POINT('',(2.011826832831,1.165444697908E-02,0.));
#35 = CARTESIAN_POINT('',(2.205701673674,-4.009450704025E-02,0.));
#36 = CARTESIAN_POINT('',(2.57063445766,-2.175953672276E-02,0.));
#37 = CARTESIAN_POINT('',(2.607119282323,3.696946063067E-02,0.));
#38 = CARTESIAN_POINT('',(2.949960902868,3.894453041051E-02,0.));
#39 = CARTESIAN_POINT('',(3.054084053011,-3.743858418127E-02,0.));
#40 = CARTESIAN_POINT('',(3.163613014622,2.823459472566E-02,0.));
#41 = CARTESIAN_POINT('',(3.186763857849,-4.959422204424E-02,0.));
#42 = CARTESIAN_POINT('',(3.533841301148,4.319335143726E-02,0.));
#43 = CARTESIAN_POINT('',(3.636271048265,-2.132503373454E-02,0.));
#44 = CARTESIAN_POINT('',(3.880316148433,-3.773686512371E-02,0.));
#45 = CARTESIAN_POINT('',(3.926505502271,3.176923339012E-02,0.));
#46 = CARTESIAN_POINT('',(4.115189909381,2.685511638521E-02,0.));
#47 = CARTESIAN_POINT('',(5.065289521969,-5.57422663367E-02,0.));
#48 = CARTESIAN_POINT('',(5.075231865342,2.824828735846E-02,0.));
#49 = CARTESIAN_POINT('',(5.354323462609,8.405154011994E-03,0.));
#50 = CARTESIAN_POINT('',(5.426155950231,8.098128810916E-03,0.));
#51 = CARTESIAN_POINT('',(5.549902570283,2.963583000844E-02,0.));
#52 = CARTESIAN_POINT('',(5.586636904877,-3.309493037245E-02,0.));
#53 = CARTESIAN_POINT('',(5.694588585855,-3.26219211875E-02,0.));
#54 = CARTESIAN_POINT('',(5.695353645263,1.460183829315E-02,0.));
#55 = CARTESIAN_POINT('',(5.815092777956,-4.021509492969E-02,0.));
#56 = CARTESIAN_POINT('',(5.95202142307,3.443100787212E-02,0.));
#57 = CARTESIAN_POINT('',(6.008354266925,5.948330691988E-02,0.));
#58 = CARTESIAN_POINT('',(6.366874967174,-8.540083446689E-03,0.));
#59 = CARTESIAN_POINT('',(6.392509678935,-5.928933269429E-02,0.));
#60 = CARTESIAN_POINT('',(6.4,5.536268282077E-02,0.));
#61 = PCURVE('',#62,#67);
#62 = PLANE('',#63);
#63 = AXIS2_PLACEMENT_3D('',#64,#65,#66);
#64 = CARTESIAN_POINT('',(3.291331309405,0.1,0.));
#65 = DIRECTION('',(0.,0.,1.));
#66 = DIRECTION('',(1.,0.,-0.));
#67 = DEFINITIONAL_REPRESENTATION('',(#68),#102);
#68 = B_SPLINE_CURVE_WITH_KNOTS('',1,(#69,#70,#71,#72,#73,#74,#75,#76,
    #77,#78,#79,#80,#81,#82,#83,#84,#85,#86,#87,#88,#89,#90,#91,#92,#93,
    #94,#95,#96,#97,#98,#99,#100,#101),.UNSPECIFIED.,.F.,.F.,(2,1,1,1,1,
    1,1,1,1,1,1,1,1,1,1,1,1,1,1,1,1,1,1,1,1,1,1,1,1,1,1,1,2),(0.,
    1.515456605612E-02,7.505355765829E-02,0.100250340756,0.207009913964,
    0.249189636278,0.292593400493,0.321313401802,0.373610636922,
    0.383506259949,0.432576609117,0.451059269508,0.469337726156,
    0.480959418343,0.53237975344,0.549705961946,0.584714044056,
    0.596658463941,0.623673257563,0.76017007457,0.772275233844,
    0.812321321402,0.822602508822,0.840580119521,0.850984657604,
    0.866435493535,0.873195326218,0.892043637773,0.914364631817,
    0.923188677266,0.975417743997,0.983555338575,1.),.UNSPECIFIED.);
#69 = CARTESIAN_POINT('',(-3.291331309405,-0.106840213826));
#70 = CARTESIAN_POINT('',(-3.190175754589,-7.555595565442E-02));
#71 = CARTESIAN_POINT('',(-2.771945706692,-6.037599685272E-02));
#72 = CARTESIAN_POINT('',(-2.595925848527,-6.342226357824E-02));
#73 = CARTESIAN_POINT('',(-1.85019424633,-4.695344134458E-02));
#74 = CARTESIAN_POINT('',(-1.575586638554,-0.153915222761));
#75 = CARTESIAN_POINT('',(-1.279504476574,-8.834555302092E-02));
#76 = CARTESIAN_POINT('',(-1.085629635731,-0.14009450704));
#77 = CARTESIAN_POINT('',(-0.720696851745,-0.121759536723));
#78 = CARTESIAN_POINT('',(-0.684212027082,-6.303053936933E-02));
#79 = CARTESIAN_POINT('',(-0.341370406537,-6.105546958949E-02));
#80 = CARTESIAN_POINT('',(-0.237247256395,-0.137438584181));
#81 = CARTESIAN_POINT('',(-0.127718294784,-7.176540527434E-02));
#82 = CARTESIAN_POINT('',(-0.104567451556,-0.149594222044));
#83 = CARTESIAN_POINT('',(0.242509991743,-5.680664856274E-02));
#84 = CARTESIAN_POINT('',(0.344939738859,-0.121325033735));
#85 = CARTESIAN_POINT('',(0.588984839028,-0.137736865124));
#86 = CARTESIAN_POINT('',(0.635174192866,-6.823076660988E-02));
#87 = CARTESIAN_POINT('',(0.823858599976,-7.314488361479E-02));
#88 = CARTESIAN_POINT('',(1.773958212563,-0.155742266337));
#89 = CARTESIAN_POINT('',(1.783900555936,-7.175171264154E-02));
#90 = CARTESIAN_POINT('',(2.062992153204,-9.159484598801E-02));
#91 = CARTESIAN_POINT('',(2.134824640826,-9.190187118908E-02));
#92 = CARTESIAN_POINT('',(2.258571260878,-7.036416999156E-02));
#93 = CARTESIAN_POINT('',(2.295305595472,-0.133094930372));
#94 = CARTESIAN_POINT('',(2.40325727645,-0.132621921187));
#95 = CARTESIAN_POINT('',(2.404022335858,-8.539816170685E-02));
#96 = CARTESIAN_POINT('',(2.523761468551,-0.14021509493));
#97 = CARTESIAN_POINT('',(2.660690113665,-6.556899212788E-02));
#98 = CARTESIAN_POINT('',(2.71702295752,-4.051669308012E-02));
#99 = CARTESIAN_POINT('',(3.075543657768,-0.108540083447));
#100 = CARTESIAN_POINT('',(3.10117836953,-0.159289332694));
#101 = CARTESIAN_POINT('',(3.108668690595,-4.463731717923E-02));
#102 = ( GEOMETRIC_REPRESENTATION_CONTEXT(2) 
PARAMETRIC_REPRESENTATION_CONTEXT() REPRESENTATION_CONTEXT('2D SPACE',''
  ) );
#103 = ORIENTED_EDGE('',*,*,#104,.T.);
#104 = EDGE_CURVE('',#24,#105,#107,.T.);
#105 = VERTEX_POINT('',#106);
#106 = CARTESIAN_POINT('',(6.4,0.144637317179,0.));
#107 = SURFACE_CURVE('',#108,(#112),.PCURVE_S1.);
#108 = LINE('',#109,#110);
#109 = CARTESIAN_POINT('',(6.4,5.536268282077E-02,0.));
#110 = VECTOR('',#111,1.);
#111 = DIRECTION('',(0.,1.,0.));
#112 = PCURVE('',#62,#113);
#113 = DEFINITIONAL_REPRESENTATION('',(#114),#118);
#114 = LINE('',#115,#116);
#115 = CARTESIAN_POINT('',(3.108668690595,-4.463731717923E-02));
#116 = VECTOR('',#117,1.);
#117 = DIRECTION('',(0.,1.));
#118 = ( GEOMETRIC_REPRESENTATION_CONTEXT(2) 
PARAMETRIC_REPRESENTATION_CONTEXT() REPRESENTATION_CONTEXT('2D SPACE',''
  ) );
#119 = ORIENTED_EDGE('',*,*,#120,.T.);
#120 = EDGE_CURVE('',#105,#121,#123,.T.);
#121 = VERTEX_POINT('',#122);
#122 = CARTESIAN_POINT('',(0.,0.206840213826,0.));
#123 = SURFACE_CURVE('',#124,(#158),.PCURVE_S1.);
#124 = B_SPLINE_CURVE_WITH_KNOTS('',1,(#125,#126,#127,#128,#129,#130,
    #131,#132,#133,#134,#135,#136,#137,#138,#139,#140,#141,#142,#143,
    #144,#145,#146,#147,#148,#149,#150,#151,#152,#153,#154,#155,#156,
    #157),.UNSPECIFIED.,.F.,.F.,(2,1,1,1,1,1,1,1,1,1,1,1,1,1,1,1,1,1,1,1
    ,1,1,1,1,1,1,1,1,1,1,1,1,2),(0.,1.644466142535E-02,
    2.458225600322E-02,7.681132273407E-02,8.563536818347E-02,
    0.107956362227,0.126804673782,0.133564506465,0.149015342396,
    0.159419880479,0.177397491178,0.187678678598,0.227724766156,
    0.23982992543,0.376326742437,0.403341536059,0.415285955944,
    0.450294038054,0.46762024656,0.519040581657,0.530662273844,
    0.548940730492,0.567423390883,0.616493740051,0.626389363078,
    0.678686598198,0.707406599507,0.750810363722,0.792990086036,
    0.899749659244,0.924946442342,0.984845433944,1.),.UNSPECIFIED.);
#125 = CARTESIAN_POINT('',(6.4,0.144637317179,0.));
#126 = CARTESIAN_POINT('',(6.392509678935,0.259289332694,0.));
#127 = CARTESIAN_POINT('',(6.366874967174,0.208540083447,0.));
#128 = CARTESIAN_POINT('',(6.008354266925,0.14051669308,0.));
#129 = CARTESIAN_POINT('',(5.95202142307,0.165568992128,0.));
#130 = CARTESIAN_POINT('',(5.815092777956,0.24021509493,0.));
#131 = CARTESIAN_POINT('',(5.695353645263,0.185398161707,0.));
#132 = CARTESIAN_POINT('',(5.694588585855,0.232621921187,0.));
#133 = CARTESIAN_POINT('',(5.586636904877,0.233094930372,0.));
#134 = CARTESIAN_POINT('',(5.549902570283,0.170364169992,0.));
#135 = CARTESIAN_POINT('',(5.426155950231,0.191901871189,0.));
#136 = CARTESIAN_POINT('',(5.354323462609,0.191594845988,0.));
#137 = CARTESIAN_POINT('',(5.075231865342,0.171751712642,0.));
#138 = CARTESIAN_POINT('',(5.065289521969,0.255742266337,0.));
#139 = CARTESIAN_POINT('',(4.115189909381,0.173144883615,0.));
#140 = CARTESIAN_POINT('',(3.926505502271,0.16823076661,0.));
#141 = CARTESIAN_POINT('',(3.880316148433,0.237736865124,0.));
#142 = CARTESIAN_POINT('',(3.636271048265,0.221325033735,0.));
#143 = CARTESIAN_POINT('',(3.533841301148,0.156806648563,0.));
#144 = CARTESIAN_POINT('',(3.186763857849,0.249594222044,0.));
#145 = CARTESIAN_POINT('',(3.163613014622,0.171765405274,0.));
#146 = CARTESIAN_POINT('',(3.054084053011,0.237438584181,0.));
#147 = CARTESIAN_POINT('',(2.949960902868,0.161055469589,0.));
#148 = CARTESIAN_POINT('',(2.607119282323,0.163030539369,0.));
#149 = CARTESIAN_POINT('',(2.57063445766,0.221759536723,0.));
#150 = CARTESIAN_POINT('',(2.205701673674,0.24009450704,0.));
#151 = CARTESIAN_POINT('',(2.011826832831,0.188345553021,0.));
#152 = CARTESIAN_POINT('',(1.715744670852,0.253915222761,0.));
#153 = CARTESIAN_POINT('',(1.441137063075,0.146953441345,0.));
#154 = CARTESIAN_POINT('',(0.695405460878,0.163422263578,0.));
#155 = CARTESIAN_POINT('',(0.519385602713,0.160375996853,0.));
#156 = CARTESIAN_POINT('',(0.101155554817,0.175555955654,0.));
#157 = CARTESIAN_POINT('',(0.,0.206840213826,0.));
#158 = PCURVE('',#62,#159);
#159 = DEFINITIONAL_REPRESENTATION('',(#160),#194);
#160 = B_SPLINE_CURVE_WITH_KNOTS('',1,(#161,#162,#163,#164,#165,#166,
    #167,#168,#169,#170,#171,#172,#173,#174,#175,#176,#177,#178,#179,
    #180,#181,#182,#183,#184,#185,#186,#187,#188,#189,#190,#191,#192,
    #193),.UNSPECIFIED.,.F.,.F.,(2,1,1,1,1,1,1,1,1,1,1,1,1,1,1,1,1,1,1,1
    ,1,1,1,1,1,1,1,1,1,1,1,1,2),(0.,1.644466142535E-02,
    2.458225600322E-02,7.681132273407E-02,8.563536818347E-02,
    0.107956362227,0.126804673782,0.133564506465,0.149015342396,
    0.159419880479,0.177397491178,0.187678678598,0.227724766156,
    0.23982992543,0.376326742437,0.403341536059,0.415285955944,
    0.450294038054,0.46762024656,0.519040581657,0.530662273844,
    0.548940730492,0.567423390883,0.616493740051,0.626389363078,
    0.678686598198,0.707406599507,0.750810363722,0.792990086036,
    0.899749659244,0.924946442342,0.984845433944,1.),.UNSPECIFIED.);
#161 = CARTESIAN_POINT('',(3.108668690595,4.463731717923E-02));
#162 = CARTESIAN_POINT('',(3.10117836953,0.159289332694));
#163 = CARTESIAN_POINT('',(3.075543657768,0.108540083447));
#164 = CARTESIAN_POINT('',(2.71702295752,4.051669308012E-02));
#165 = CARTESIAN_POINT('',(2.660690113665,6.556899212788E-02));
#166 = CARTESIAN_POINT('',(2.523761468551,0.14021509493));
#167 = CARTESIAN_POINT('',(2.404022335858,8.539816170685E-02));
#168 = CARTESIAN_POINT('',(2.40325727645,0.132621921187));
#169 = CARTESIAN_POINT('',(2.295305595472,0.133094930372));
#170 = CARTESIAN_POINT('',(2.258571260878,7.036416999156E-02));
#171 = CARTESIAN_POINT('',(2.134824640826,9.190187118908E-02));
#172 = CARTESIAN_POINT('',(2.062992153204,9.159484598801E-02));
#173 = CARTESIAN_POINT('',(1.783900555936,7.175171264154E-02));
#174 = CARTESIAN_POINT('',(1.773958212563,0.155742266337));
#175 = CARTESIAN_POINT('',(0.823858599976,7.314488361479E-02));
#176 = CARTESIAN_POINT('',(0.635174192866,6.823076660988E-02));
#177 = CARTESIAN_POINT('',(0.588984839028,0.137736865124));
#178 = CARTESIAN_POINT('',(0.344939738859,0.121325033735));
#179 = CARTESIAN_POINT('',(0.242509991743,5.680664856274E-02));
#180 = CARTESIAN_POINT('',(-0.104567451556,0.149594222044));
#181 = CARTESIAN_POINT('',(-0.127718294784,7.176540527434E-02));
#182 = CARTESIAN_POINT('',(-0.237247256395,0.137438584181));
#183 = CARTESIAN_POINT('',(-0.341370406537,6.105546958949E-02));
#184 = CARTESIAN_POINT('',(-0.684212027082,6.303053936933E-02));
#185 = CARTESIAN_POINT('',(-0.720696851745,0.121759536723));
#186 = CARTESIAN_POINT('',(-1.085629635731,0.14009450704));
#187 = CARTESIAN_POINT('',(-1.279504476574,8.834555302092E-02));
#188 = CARTESIAN_POINT('',(-1.575586638554,0.153915222761));
#189 = CARTESIAN_POINT('',(-1.85019424633,4.695344134458E-02));
#190 = CARTESIAN_POINT('',(-2.595925848527,6.342226357824E-02));
#191 = CARTESIAN_POINT('',(-2.771945706692,6.037599685272E-02));
#192 = CARTESIAN_POINT('',(-3.190175754589,7.555595565442E-02));
#193 = CARTESIAN_POINT('',(-3.291331309405,0.106840213826));
#194 = ( GEOMETRIC_REPRESENTATION_CONTEXT(2) 
PARAMETRIC_REPRESENTATION_CONTEXT() REPRESENTATION_CONTEXT('2D SPACE',''
  ) );
#195 = ORIENTED_EDGE('',*,*,#196,.T.);
#196 = EDGE_CURVE('',#121,#22,#197,.T.);
#197 = SURFACE_CURVE('',#198,(#202),.PCURVE_S1.);
#198 = LINE('',#199,#200);
#199 = CARTESIAN_POINT('',(0.,0.206840213826,0.));
#200 = VECTOR('',#201,1.);
#201 = DIRECTION('',(0.,-1.,0.));
#202 = PCURVE('',#62,#203);
#203 = DEFINITIONAL_REPRESENTATION('',(#204),#208);
#204 = LINE('',#205,#206);
#205 = CARTESIAN_POINT('',(-3.291331309405,0.106840213826));
#206 = VECTOR('',#207,1.);
#207 = DIRECTION('',(0.,-1.));
#208 = ( GEOMETRIC_REPRESENTATION_CONTEXT(2) 
PARAMETRIC_REPRESENTATION_CONTEXT() REPRESENTATION_CONTEXT('2D SPACE',''
  ) );
#209 = ( GEOMETRIC_REPRESENTATION_CONTEXT(3) 
GLOBAL_UNCERTAINTY_ASSIGNED_CONTEXT((#213)) GLOBAL_UNIT_ASSIGNED_CONTEXT
((#210,#211,#212)) REPRESENTATION_CONTEXT('Context #1',
  '3D Context with UNIT and UNCERTAINTY') );
#210 = ( LENGTH_UNIT() NAMED_UNIT(*) SI_UNIT(.MILLI.,.METRE.) );
#211 = ( NAMED_UNIT(*) PLANE_ANGLE_UNIT() SI_UNIT($,.RADIAN.) );
#212 = ( NAMED_UNIT(*) SI_UNIT($,.STERADIAN.) SOLID_ANGLE_UNIT() );
#213 = UNCERTAINTY_MEASURE_WITH_UNIT(LENGTH_MEASURE(1.E-07),#210,
  'distance_accuracy_value','confusion accuracy');
#214 = PRODUCT_RELATED_PRODUCT_CATEGORY('part',$,(#7));
ENDSEC;
END-ISO-10303-21;
