ISO-10303-21;
HEADER;
FILE_DESCRIPTION(('Open CASCADE Model'),'2;1');
FILE_NAME('Open CASCADE Shape Model','2026-05-28T17:04:49',('Author'),(
    'Open CASCADE'),'Open CASCADE STEP processor 7.9','Open CASCADE 7.9'
  ,'Unknown');
FILE_SCHEMA(('AUTOMOTIVE_DESIGN { 1 0 10303 214 1 1 1 1 }'));
ENDSEC;
DATA;
#1 = APPLICATION_PROTOCOL_DEFINITION('international standard',
  'automotive_design',2000,#2);
#2 = APPLICATION_CONTEXT(
  'core data for automotive mechanical design processes');
#3 = SHAPE_DEFINITION_REPRESENTATION(#4,#10);
#4 = PRODUCT_DEFINITION_SHAPE('','',#5);
#5 = PRODUCT_DEFINITION('design','',#6,#9);
#6 = PRODUCT_DEFINITION_FORMATION('','',#7);
#7 = PRODUCT('Open CASCADE STEP translator 7.9 63',
  'Open CASCADE STEP translator 7.9 63','',(#8));
#8 = PRODUCT_CONTEXT('',#2,'mechanical');
#9 = PRODUCT_DEFINITION_CONTEXT('part definition',#2,'design');
#10 = MANIFOLD_SURFACE_SHAPE_REPRESENTATION('',(#11,#15),#281);
#11 = AXIS2_PLACEMENT_3D('',#12,#13,#14);
#12 = CARTESIAN_POINT('',(0.,0.,0.));
#13 = DIRECTION('',(0.,0.,1.));
#14 = DIRECTION('',(1.,0.,-0.));
#15 = SHELL_BASED_SURFACE_MODEL('',(#16));
#16 = OPEN_SHELL('',(#17));
#17 = ADVANCED_FACE('',(#18),#80,.T.);
#18 = FACE_BOUND('',#19,.T.);
#19 = EDGE_LOOP('',(#20,#139,#155,#267));
#20 = ORIENTED_EDGE('',*,*,#21,.T.);
#21 = EDGE_CURVE('',#22,#24,#26,.T.);
#22 = VERTEX_POINT('',#23);
#23 = CARTESIAN_POINT('',(0.,-3.015745735238E-02,0.));
#24 = VERTEX_POINT('',#25);
#25 = CARTESIAN_POINT('',(10.,3.861517722234E-02,0.));
#26 = SURFACE_CURVE('',#27,(#79),.PCURVE_S1.);
#27 = B_SPLINE_CURVE_WITH_KNOTS('',1,(#28,#29,#30,#31,#32,#33,#34,#35,
    #36,#37,#38,#39,#40,#41,#42,#43,#44,#45,#46,#47,#48,#49,#50,#51,#52,
    #53,#54,#55,#56,#57,#58,#59,#60,#61,#62,#63,#64,#65,#66,#67,#68,#69,
    #70,#71,#72,#73,#74,#75,#76,#77,#78),.UNSPECIFIED.,.F.,.F.,(2,1,1,1,
    1,1,1,1,1,1,1,1,1,1,1,1,1,1,1,1,1,1,1,1,1,1,1,1,1,1,1,1,1,1,1,1,1,1,
    1,1,1,1,1,1,1,1,1,1,1,1,2),(0.,5.81785128488E-02,8.116480554116E-02,
    8.629238522632E-02,0.146415638975,0.161876690695,0.184338558412,
    0.198677291769,0.211569159669,0.247697716204,0.249888476101,
    0.255004142896,0.307767632647,0.328735935526,0.424324929686,
    0.432546357884,0.434659253765,0.44441778403,0.467784966243,
    0.501882275608,0.503619025413,0.506886818259,0.562936297123,
    0.568838815761,0.625759056309,0.657113266463,0.694928654028,
    0.707212168232,0.718542575778,0.723938067035,0.732863848352,
    0.752421772074,0.757646491481,0.759082456734,0.796067841391,
    0.800307305407,0.804940473385,0.822906861974,0.835034051941,
    0.853194006821,0.855042369284,0.861282151275,0.871934074041,
    0.88033424605,0.909503374697,0.936355184252,0.938582331712,
    0.963212657157,0.975889789659,0.992438976424,1.),.UNSPECIFIED.);
#28 = CARTESIAN_POINT('',(0.,-3.015745735238E-02,0.));
#29 = CARTESIAN_POINT('',(0.608298675014,4.247689536836E-03,0.));
#30 = CARTESIAN_POINT('',(0.848584435549,1.874208372908E-02,0.));
#31 = CARTESIAN_POINT('',(0.901369820383,2.860141012405E-02,0.));
#32 = CARTESIAN_POINT('',(1.531003758034,2.66223905436E-02,0.));
#33 = CARTESIAN_POINT('',(1.672912284042,-5.134174821934E-02,0.));
#34 = CARTESIAN_POINT('',(1.889603842197,4.019056774946E-02,0.));
#35 = CARTESIAN_POINT('',(2.002708300901,-5.858117094686E-02,0.));
#36 = CARTESIAN_POINT('',(2.111937200291,2.076966537693E-02,0.));
#37 = CARTESIAN_POINT('',(2.489206992574,4.93931717499E-02,0.));
#38 = CARTESIAN_POINT('',(2.50171052805,3.015715430546E-02,0.));
#39 = CARTESIAN_POINT('',(2.550174627034,5.299027445345E-02,0.));
#40 = CARTESIAN_POINT('',(3.0957178603,-3.480357229967E-02,0.));
#41 = CARTESIAN_POINT('',(3.312767934196,-1.506349504933E-03,0.));
#42 = CARTESIAN_POINT('',(4.313596028715,1.956160573598E-02,0.));
#43 = CARTESIAN_POINT('',(4.390351122281,-1.944595255579E-02,0.));
#44 = CARTESIAN_POINT('',(4.412155046114,-1.567758311404E-02,0.));
#45 = CARTESIAN_POINT('',(4.507375878183,-5.278465070731E-02,0.));
#46 = CARTESIAN_POINT('',(4.752073785263,-5.535126200981E-02,0.));
#47 = CARTESIAN_POINT('',(5.107564867485,-2.168205307985E-02,0.));
#48 = CARTESIAN_POINT('',(5.115311366376,-3.81379112693E-02,0.));
#49 = CARTESIAN_POINT('',(5.149397215728,-3.509101204022E-02,0.));
#50 = CARTESIAN_POINT('',(5.735258617084,1.043576076012E-03,0.));
#51 = CARTESIAN_POINT('',(5.79153185864,-2.453499456401E-02,0.));
#52 = CARTESIAN_POINT('',(6.382870239125,5.060891907797E-02,0.));
#53 = CARTESIAN_POINT('',(6.700931741486,-3.096252997804E-02,0.));
#54 = CARTESIAN_POINT('',(7.096195098859,-5.541996086308E-02,0.));
#55 = CARTESIAN_POINT('',(7.170194727629,4.980302962491E-02,0.));
#56 = CARTESIAN_POINT('',(7.247362184513,-4.033389415102E-02,0.));
#57 = CARTESIAN_POINT('',(7.3026576228,-5.195760319791E-02,0.));
#58 = CARTESIAN_POINT('',(7.341950682182,3.285733322375E-02,0.));
#59 = CARTESIAN_POINT('',(7.543610687316,-2.977342513104E-03,0.));
#60 = CARTESIAN_POINT('',(7.569194976475,-5.134298705556E-02,0.));
#61 = CARTESIAN_POINT('',(7.583722765985,-5.522712054276E-02,0.));
#62 = CARTESIAN_POINT('',(7.957950048053,4.465411387772E-02,0.));
#63 = CARTESIAN_POINT('',(7.993545750571,1.811949293335E-02,0.));
#64 = CARTESIAN_POINT('',(8.018018166559,-2.37773569381E-02,0.));
#65 = CARTESIAN_POINT('',(8.197267711447,3.341298007369E-02,0.));
#66 = CARTESIAN_POINT('',(8.32366358465,2.102752456386E-02,0.));
#67 = CARTESIAN_POINT('',(8.510369871921,5.720507279944E-02,0.));
#68 = CARTESIAN_POINT('',(8.521791950075,4.157739828826E-02,0.));
#69 = CARTESIAN_POINT('',(8.564960009016,-7.479539330129E-03,0.));
#70 = CARTESIAN_POINT('',(8.675978655732,-1.83708079565E-02,0.));
#71 = CARTESIAN_POINT('',(8.763947507509,-1.78694197315E-02,0.));
#72 = CARTESIAN_POINT('',(9.069024180555,-3.340325649339E-02,0.));
#73 = CARTESIAN_POINT('',(9.346832278674,1.016623035135E-02,0.));
#74 = CARTESIAN_POINT('',(9.362784928047,2.718111405106E-02,0.));
#75 = CARTESIAN_POINT('',(9.618861013686,5.81303159949E-02,0.));
#76 = CARTESIAN_POINT('',(9.749627024238,3.520442087371E-02,0.));
#77 = CARTESIAN_POINT('',(9.922472073132,2.251346253576E-02,0.));
#78 = CARTESIAN_POINT('',(10.,3.861517722234E-02,0.));
#79 = PCURVE('',#80,#85);
#80 = PLANE('',#81);
#81 = AXIS2_PLACEMENT_3D('',#82,#83,#84);
#82 = CARTESIAN_POINT('',(5.006259560384,0.1,0.));
#83 = DIRECTION('',(0.,0.,1.));
#84 = DIRECTION('',(1.,0.,-0.));
#85 = DEFINITIONAL_REPRESENTATION('',(#86),#138);
#86 = B_SPLINE_CURVE_WITH_KNOTS('',1,(#87,#88,#89,#90,#91,#92,#93,#94,
    #95,#96,#97,#98,#99,#100,#101,#102,#103,#104,#105,#106,#107,#108,
    #109,#110,#111,#112,#113,#114,#115,#116,#117,#118,#119,#120,#121,
    #122,#123,#124,#125,#126,#127,#128,#129,#130,#131,#132,#133,#134,
    #135,#136,#137),.UNSPECIFIED.,.F.,.F.,(2,1,1,1,1,1,1,1,1,1,1,1,1,1,1
    ,1,1,1,1,1,1,1,1,1,1,1,1,1,1,1,1,1,1,1,1,1,1,1,1,1,1,1,1,1,1,1,1,1,1
    ,1,2),(0.,5.81785128488E-02,8.116480554116E-02,8.629238522632E-02,
    0.146415638975,0.161876690695,0.184338558412,0.198677291769,
    0.211569159669,0.247697716204,0.249888476101,0.255004142896,
    0.307767632647,0.328735935526,0.424324929686,0.432546357884,
    0.434659253765,0.44441778403,0.467784966243,0.501882275608,
    0.503619025413,0.506886818259,0.562936297123,0.568838815761,
    0.625759056309,0.657113266463,0.694928654028,0.707212168232,
    0.718542575778,0.723938067035,0.732863848352,0.752421772074,
    0.757646491481,0.759082456734,0.796067841391,0.800307305407,
    0.804940473385,0.822906861974,0.835034051941,0.853194006821,
    0.855042369284,0.861282151275,0.871934074041,0.88033424605,
    0.909503374697,0.936355184252,0.938582331712,0.963212657157,
    0.975889789659,0.992438976424,1.),.UNSPECIFIED.);
#87 = CARTESIAN_POINT('',(-5.006259560384,-0.130157457352));
#88 = CARTESIAN_POINT('',(-4.39796088537,-9.575231046316E-02));
#89 = CARTESIAN_POINT('',(-4.157675124834,-8.125791627092E-02));
#90 = CARTESIAN_POINT('',(-4.104889740001,-7.139858987595E-02));
#91 = CARTESIAN_POINT('',(-3.47525580235,-7.33776094564E-02));
#92 = CARTESIAN_POINT('',(-3.333347276341,-0.151341748219));
#93 = CARTESIAN_POINT('',(-3.116655718187,-5.980943225054E-02));
#94 = CARTESIAN_POINT('',(-3.003551259482,-0.158581170947));
#95 = CARTESIAN_POINT('',(-2.894322360093,-7.923033462307E-02));
#96 = CARTESIAN_POINT('',(-2.51705256781,-5.06068282501E-02));
#97 = CARTESIAN_POINT('',(-2.504549032333,-6.984284569454E-02));
#98 = CARTESIAN_POINT('',(-2.45608493335,-4.700972554655E-02));
#99 = CARTESIAN_POINT('',(-1.910541700084,-0.1348035723));
#100 = CARTESIAN_POINT('',(-1.693491626188,-0.101506349505));
#101 = CARTESIAN_POINT('',(-0.692663531669,-8.043839426402E-02));
#102 = CARTESIAN_POINT('',(-0.615908438103,-0.119445952556));
#103 = CARTESIAN_POINT('',(-0.59410451427,-0.115677583114));
#104 = CARTESIAN_POINT('',(-0.498883682201,-0.152784650707));
#105 = CARTESIAN_POINT('',(-0.254185775121,-0.15535126201));
#106 = CARTESIAN_POINT('',(0.101305307101,-0.12168205308));
#107 = CARTESIAN_POINT('',(0.109051805993,-0.138137911269));
#108 = CARTESIAN_POINT('',(0.143137655344,-0.13509101204));
#109 = CARTESIAN_POINT('',(0.728999056701,-9.895642392399E-02));
#110 = CARTESIAN_POINT('',(0.785272298256,-0.124534994564));
#111 = CARTESIAN_POINT('',(1.376610678742,-4.939108092203E-02));
#112 = CARTESIAN_POINT('',(1.694672181102,-0.130962529978));
#113 = CARTESIAN_POINT('',(2.089935538475,-0.155419960863));
#114 = CARTESIAN_POINT('',(2.163935167245,-5.019697037509E-02));
#115 = CARTESIAN_POINT('',(2.241102624129,-0.140333894151));
#116 = CARTESIAN_POINT('',(2.296398062417,-0.151957603198));
#117 = CARTESIAN_POINT('',(2.335691121799,-6.714266677625E-02));
#118 = CARTESIAN_POINT('',(2.537351126933,-0.102977342513));
#119 = CARTESIAN_POINT('',(2.562935416091,-0.151342987056));
#120 = CARTESIAN_POINT('',(2.577463205602,-0.155227120543));
#121 = CARTESIAN_POINT('',(2.951690487669,-5.534588612228E-02));
#122 = CARTESIAN_POINT('',(2.987286190188,-8.188050706665E-02));
#123 = CARTESIAN_POINT('',(3.011758606175,-0.123777356938));
#124 = CARTESIAN_POINT('',(3.191008151064,-6.658701992631E-02));
#125 = CARTESIAN_POINT('',(3.317404024266,-7.897247543614E-02));
#126 = CARTESIAN_POINT('',(3.504110311537,-4.279492720056E-02));
#127 = CARTESIAN_POINT('',(3.515532389691,-5.842260171174E-02));
#128 = CARTESIAN_POINT('',(3.558700448632,-0.10747953933));
#129 = CARTESIAN_POINT('',(3.669719095348,-0.118370807957));
#130 = CARTESIAN_POINT('',(3.757687947125,-0.117869419732));
#131 = CARTESIAN_POINT('',(4.062764620172,-0.133403256493));
#132 = CARTESIAN_POINT('',(4.34057271829,-8.983376964865E-02));
#133 = CARTESIAN_POINT('',(4.356525367663,-7.281888594894E-02));
#134 = CARTESIAN_POINT('',(4.612601453302,-4.18696840051E-02));
#135 = CARTESIAN_POINT('',(4.743367463854,-6.479557912629E-02));
#136 = CARTESIAN_POINT('',(4.916212512749,-7.748653746424E-02));
#137 = CARTESIAN_POINT('',(4.993740439616,-6.138482277766E-02));
#138 = ( GEOMETRIC_REPRESENTATION_CONTEXT(2) 
PARAMETRIC_REPRESENTATION_CONTEXT() REPRESENTATION_CONTEXT('2D SPACE',''
  ) );
#139 = ORIENTED_EDGE('',*,*,#140,.T.);
#140 = EDGE_CURVE('',#24,#141,#143,.T.);
#141 = VERTEX_POINT('',#142);
#142 = CARTESIAN_POINT('',(10.,0.161384822778,0.));
#143 = SURFACE_CURVE('',#144,(#148),.PCURVE_S1.);
#144 = LINE('',#145,#146);
#145 = CARTESIAN_POINT('',(10.,3.861517722234E-02,0.));
#146 = VECTOR('',#147,1.);
#147 = DIRECTION('',(0.,1.,0.));
#148 = PCURVE('',#80,#149);
#149 = DEFINITIONAL_REPRESENTATION('',(#150),#154);
#150 = LINE('',#151,#152);
#151 = CARTESIAN_POINT('',(4.993740439616,-6.138482277766E-02));
#152 = VECTOR('',#153,1.);
#153 = DIRECTION('',(0.,1.));
#154 = ( GEOMETRIC_REPRESENTATION_CONTEXT(2) 
PARAMETRIC_REPRESENTATION_CONTEXT() REPRESENTATION_CONTEXT('2D SPACE',''
  ) );
#155 = ORIENTED_EDGE('',*,*,#156,.T.);
#156 = EDGE_CURVE('',#141,#157,#159,.T.);
#157 = VERTEX_POINT('',#158);
#158 = CARTESIAN_POINT('',(0.,0.230157457352,0.));
#159 = SURFACE_CURVE('',#160,(#212),.PCURVE_S1.);
#160 = B_SPLINE_CURVE_WITH_KNOTS('',1,(#161,#162,#163,#164,#165,#166,
    #167,#168,#169,#170,#171,#172,#173,#174,#175,#176,#177,#178,#179,
    #180,#181,#182,#183,#184,#185,#186,#187,#188,#189,#190,#191,#192,
    #193,#194,#195,#196,#197,#198,#199,#200,#201,#202,#203,#204,#205,
    #206,#207,#208,#209,#210,#211),.UNSPECIFIED.,.F.,.F.,(2,1,1,1,1,1,1,
    1,1,1,1,1,1,1,1,1,1,1,1,1,1,1,1,1,1,1,1,1,1,1,1,1,1,1,1,1,1,1,1,1,1,
    1,1,1,1,1,1,1,1,1,2),(0.,7.561023575991E-03,2.411021034084E-02,
    3.678734284322E-02,6.14176682875E-02,6.364481574822E-02,
    9.049662530345E-02,0.11966575395,0.128065925959,0.138717848725,
    0.144957630716,0.146805993179,0.164965948059,0.177093138026,
    0.195059526615,0.199692694593,0.203932158609,0.240917543266,
    0.242353508519,0.247578227926,0.267136151648,0.276061932965,
    0.281457424222,0.292787831768,0.305071345972,0.342886733537,
    0.374240943691,0.431161184239,0.437063702877,0.493113181741,
    0.496380974587,0.498117724392,0.532215033757,0.55558221597,
    0.565340746235,0.567453642116,0.575675070314,0.671264064474,
    0.692232367353,0.744995857104,0.750111523899,0.752302283796,
    0.788430840331,0.801322708231,0.815661441588,0.838123309305,
    0.853584361025,0.913707614774,0.918835194459,0.941821487151,1.),
  .UNSPECIFIED.);
#161 = CARTESIAN_POINT('',(10.,0.161384822778,0.));
#162 = CARTESIAN_POINT('',(9.922472073132,0.177486537464,0.));
#163 = CARTESIAN_POINT('',(9.749627024238,0.164795579126,0.));
#164 = CARTESIAN_POINT('',(9.618861013686,0.141869684005,0.));
#165 = CARTESIAN_POINT('',(9.362784928047,0.172818885949,0.));
#166 = CARTESIAN_POINT('',(9.346832278674,0.189833769649,0.));
#167 = CARTESIAN_POINT('',(9.069024180555,0.233403256493,0.));
#168 = CARTESIAN_POINT('',(8.763947507509,0.217869419732,0.));
#169 = CARTESIAN_POINT('',(8.675978655732,0.218370807957,0.));
#170 = CARTESIAN_POINT('',(8.564960009016,0.20747953933,0.));
#171 = CARTESIAN_POINT('',(8.521791950075,0.158422601712,0.));
#172 = CARTESIAN_POINT('',(8.510369871921,0.142794927201,0.));
#173 = CARTESIAN_POINT('',(8.32366358465,0.178972475436,0.));
#174 = CARTESIAN_POINT('',(8.197267711447,0.166587019926,0.));
#175 = CARTESIAN_POINT('',(8.018018166559,0.223777356938,0.));
#176 = CARTESIAN_POINT('',(7.993545750571,0.181880507067,0.));
#177 = CARTESIAN_POINT('',(7.957950048053,0.155345886122,0.));
#178 = CARTESIAN_POINT('',(7.583722765985,0.255227120543,0.));
#179 = CARTESIAN_POINT('',(7.569194976475,0.251342987056,0.));
#180 = CARTESIAN_POINT('',(7.543610687316,0.202977342513,0.));
#181 = CARTESIAN_POINT('',(7.341950682182,0.167142666776,0.));
#182 = CARTESIAN_POINT('',(7.3026576228,0.251957603198,0.));
#183 = CARTESIAN_POINT('',(7.247362184513,0.240333894151,0.));
#184 = CARTESIAN_POINT('',(7.170194727629,0.150196970375,0.));
#185 = CARTESIAN_POINT('',(7.096195098859,0.255419960863,0.));
#186 = CARTESIAN_POINT('',(6.700931741486,0.230962529978,0.));
#187 = CARTESIAN_POINT('',(6.382870239125,0.149391080922,0.));
#188 = CARTESIAN_POINT('',(5.79153185864,0.224534994564,0.));
#189 = CARTESIAN_POINT('',(5.735258617084,0.198956423924,0.));
#190 = CARTESIAN_POINT('',(5.149397215728,0.23509101204,0.));
#191 = CARTESIAN_POINT('',(5.115311366376,0.238137911269,0.));
#192 = CARTESIAN_POINT('',(5.107564867485,0.22168205308,0.));
#193 = CARTESIAN_POINT('',(4.752073785263,0.25535126201,0.));
#194 = CARTESIAN_POINT('',(4.507375878183,0.252784650707,0.));
#195 = CARTESIAN_POINT('',(4.412155046114,0.215677583114,0.));
#196 = CARTESIAN_POINT('',(4.390351122281,0.219445952556,0.));
#197 = CARTESIAN_POINT('',(4.313596028715,0.180438394264,0.));
#198 = CARTESIAN_POINT('',(3.312767934196,0.201506349505,0.));
#199 = CARTESIAN_POINT('',(3.0957178603,0.2348035723,0.));
#200 = CARTESIAN_POINT('',(2.550174627034,0.147009725547,0.));
#201 = CARTESIAN_POINT('',(2.50171052805,0.169842845695,0.));
#202 = CARTESIAN_POINT('',(2.489206992574,0.15060682825,0.));
#203 = CARTESIAN_POINT('',(2.111937200291,0.179230334623,0.));
#204 = CARTESIAN_POINT('',(2.002708300901,0.258581170947,0.));
#205 = CARTESIAN_POINT('',(1.889603842197,0.159809432251,0.));
#206 = CARTESIAN_POINT('',(1.672912284042,0.251341748219,0.));
#207 = CARTESIAN_POINT('',(1.531003758034,0.173377609456,0.));
#208 = CARTESIAN_POINT('',(0.901369820383,0.171398589876,0.));
#209 = CARTESIAN_POINT('',(0.848584435549,0.181257916271,0.));
#210 = CARTESIAN_POINT('',(0.608298675014,0.195752310463,0.));
#211 = CARTESIAN_POINT('',(0.,0.230157457352,0.));
#212 = PCURVE('',#80,#213);
#213 = DEFINITIONAL_REPRESENTATION('',(#214),#266);
#214 = B_SPLINE_CURVE_WITH_KNOTS('',1,(#215,#216,#217,#218,#219,#220,
    #221,#222,#223,#224,#225,#226,#227,#228,#229,#230,#231,#232,#233,
    #234,#235,#236,#237,#238,#239,#240,#241,#242,#243,#244,#245,#246,
    #247,#248,#249,#250,#251,#252,#253,#254,#255,#256,#257,#258,#259,
    #260,#261,#262,#263,#264,#265),.UNSPECIFIED.,.F.,.F.,(2,1,1,1,1,1,1,
    1,1,1,1,1,1,1,1,1,1,1,1,1,1,1,1,1,1,1,1,1,1,1,1,1,1,1,1,1,1,1,1,1,1,
    1,1,1,1,1,1,1,1,1,2),(0.,7.561023575991E-03,2.411021034084E-02,
    3.678734284322E-02,6.14176682875E-02,6.364481574822E-02,
    9.049662530345E-02,0.11966575395,0.128065925959,0.138717848725,
    0.144957630716,0.146805993179,0.164965948059,0.177093138026,
    0.195059526615,0.199692694593,0.203932158609,0.240917543266,
    0.242353508519,0.247578227926,0.267136151648,0.276061932965,
    0.281457424222,0.292787831768,0.305071345972,0.342886733537,
    0.374240943691,0.431161184239,0.437063702877,0.493113181741,
    0.496380974587,0.498117724392,0.532215033757,0.55558221597,
    0.565340746235,0.567453642116,0.575675070314,0.671264064474,
    0.692232367353,0.744995857104,0.750111523899,0.752302283796,
    0.788430840331,0.801322708231,0.815661441588,0.838123309305,
    0.853584361025,0.913707614774,0.918835194459,0.941821487151,1.),
  .UNSPECIFIED.);
#215 = CARTESIAN_POINT('',(4.993740439616,6.138482277766E-02));
#216 = CARTESIAN_POINT('',(4.916212512749,7.748653746424E-02));
#217 = CARTESIAN_POINT('',(4.743367463854,6.479557912629E-02));
#218 = CARTESIAN_POINT('',(4.612601453302,4.18696840051E-02));
#219 = CARTESIAN_POINT('',(4.356525367663,7.281888594894E-02));
#220 = CARTESIAN_POINT('',(4.34057271829,8.983376964865E-02));
#221 = CARTESIAN_POINT('',(4.062764620172,0.133403256493));
#222 = CARTESIAN_POINT('',(3.757687947125,0.117869419732));
#223 = CARTESIAN_POINT('',(3.669719095348,0.118370807957));
#224 = CARTESIAN_POINT('',(3.558700448632,0.10747953933));
#225 = CARTESIAN_POINT('',(3.515532389691,5.842260171174E-02));
#226 = CARTESIAN_POINT('',(3.504110311537,4.279492720056E-02));
#227 = CARTESIAN_POINT('',(3.317404024266,7.897247543614E-02));
#228 = CARTESIAN_POINT('',(3.191008151064,6.658701992631E-02));
#229 = CARTESIAN_POINT('',(3.011758606175,0.123777356938));
#230 = CARTESIAN_POINT('',(2.987286190188,8.188050706665E-02));
#231 = CARTESIAN_POINT('',(2.951690487669,5.534588612228E-02));
#232 = CARTESIAN_POINT('',(2.577463205602,0.155227120543));
#233 = CARTESIAN_POINT('',(2.562935416091,0.151342987056));
#234 = CARTESIAN_POINT('',(2.537351126933,0.102977342513));
#235 = CARTESIAN_POINT('',(2.335691121799,6.714266677625E-02));
#236 = CARTESIAN_POINT('',(2.296398062417,0.151957603198));
#237 = CARTESIAN_POINT('',(2.241102624129,0.140333894151));
#238 = CARTESIAN_POINT('',(2.163935167245,5.019697037509E-02));
#239 = CARTESIAN_POINT('',(2.089935538475,0.155419960863));
#240 = CARTESIAN_POINT('',(1.694672181102,0.130962529978));
#241 = CARTESIAN_POINT('',(1.376610678742,4.939108092203E-02));
#242 = CARTESIAN_POINT('',(0.785272298256,0.124534994564));
#243 = CARTESIAN_POINT('',(0.728999056701,9.895642392399E-02));
#244 = CARTESIAN_POINT('',(0.143137655344,0.13509101204));
#245 = CARTESIAN_POINT('',(0.109051805993,0.138137911269));
#246 = CARTESIAN_POINT('',(0.101305307101,0.12168205308));
#247 = CARTESIAN_POINT('',(-0.254185775121,0.15535126201));
#248 = CARTESIAN_POINT('',(-0.498883682201,0.152784650707));
#249 = CARTESIAN_POINT('',(-0.59410451427,0.115677583114));
#250 = CARTESIAN_POINT('',(-0.615908438103,0.119445952556));
#251 = CARTESIAN_POINT('',(-0.692663531669,8.043839426402E-02));
#252 = CARTESIAN_POINT('',(-1.693491626188,0.101506349505));
#253 = CARTESIAN_POINT('',(-1.910541700084,0.1348035723));
#254 = CARTESIAN_POINT('',(-2.45608493335,4.700972554655E-02));
#255 = CARTESIAN_POINT('',(-2.504549032333,6.984284569454E-02));
#256 = CARTESIAN_POINT('',(-2.51705256781,5.06068282501E-02));
#257 = CARTESIAN_POINT('',(-2.894322360093,7.923033462307E-02));
#258 = CARTESIAN_POINT('',(-3.003551259482,0.158581170947));
#259 = CARTESIAN_POINT('',(-3.116655718187,5.980943225054E-02));
#260 = CARTESIAN_POINT('',(-3.333347276341,0.151341748219));
#261 = CARTESIAN_POINT('',(-3.47525580235,7.33776094564E-02));
#262 = CARTESIAN_POINT('',(-4.104889740001,7.139858987595E-02));
#263 = CARTESIAN_POINT('',(-4.157675124834,8.125791627092E-02));
#264 = CARTESIAN_POINT('',(-4.39796088537,9.575231046316E-02));
#265 = CARTESIAN_POINT('',(-5.006259560384,0.130157457352));
#266 = ( GEOMETRIC_REPRESENTATION_CONTEXT(2) 
PARAMETRIC_REPRESENTATION_CONTEXT() REPRESENTATION_CONTEXT('2D SPACE',''
  ) );
#267 = ORIENTED_EDGE('',*,*,#268,.T.);
#268 = EDGE_CURVE('',#157,#22,#269,.T.);
#269 = SURFACE_CURVE('',#270,(#274),.PCURVE_S1.);
#270 = LINE('',#271,#272);
#271 = CARTESIAN_POINT('',(0.,0.230157457352,0.));
#272 = VECTOR('',#273,1.);
#273 = DIRECTION('',(0.,-1.,0.));
#274 = PCURVE('',#80,#275);
#275 = DEFINITIONAL_REPRESENTATION('',(#276),#280);
#276 = LINE('',#277,#278);
#277 = CARTESIAN_POINT('',(-5.006259560384,0.130157457352));
#278 = VECTOR('',#279,1.);
#279 = DIRECTION('',(0.,-1.));
#280 = ( GEOMETRIC_REPRESENTATION_CONTEXT(2) 
PARAMETRIC_REPRESENTATION_CONTEXT() REPRESENTATION_CONTEXT('2D SPACE',''
  ) );
#281 = ( GEOMETRIC_REPRESENTATION_CONTEXT(3) 
GLOBAL_UNCERTAINTY_ASSIGNED_CONTEXT((#285)) GLOBAL_UNIT_ASSIGNED_CONTEXT
((#282,#283,#284)) REPRESENTATION_CONTEXT('Context #1',
  '3D Context with UNIT and UNCERTAINTY') );
#282 = ( LENGTH_UNIT() NAMED_UNIT(*) SI_UNIT(.MILLI.,.METRE.) );
#283 = ( NAMED_UNIT(*) PLANE_ANGLE_UNIT() SI_UNIT($,.RADIAN.) );
#284 = ( NAMED_UNIT(*) SI_UNIT($,.STERADIAN.) SOLID_ANGLE_UNIT() );
#285 = UNCERTAINTY_MEASURE_WITH_UNIT(LENGTH_MEASURE(1.E-07),#282,
  'distance_accuracy_value','confusion accuracy');
#286 = PRODUCT_RELATED_PRODUCT_CATEGORY('part',$,(#7));
ENDSEC;
END-ISO-10303-21;
