ISO-10303-21;
HEADER;
FILE_DESCRIPTION(('Open CASCADE Model'),'2;1');
FILE_NAME('Open CASCADE Shape Model','2026-05-29T14:30:30',('Author'),(
    'Open CASCADE'),'Open CASCADE STEP processor 7.9','Open CASCADE 7.9'
  ,'Unknown');
FILE_SCHEMA(('AUTOMOTIVE_DESIGN { 1 0 10303 214 1 1 1 1 }'));
ENDSEC;
DATA;
#1 = APPLICATION_PROTOCOL_DEFINITION('international standard',
  'automotive_design',2000,#2);
#2 = APPLICATION_CONTEXT(
  'core data for automotive mechanical design processes');
#3 = SHAPE_DEFINITION_REPRESENTATION(#4,#10);
#4 = PRODUCT_DEFINITION_SHAPE('','',#5);
#5 = PRODUCT_DEFINITION('design','',#6,#9);
#6 = PRODUCT_DEFINITION_FORMATION('','',#7);
#7 = PRODUCT('Open CASCADE STEP translator 7.9 75',
  'Open CASCADE STEP translator 7.9 75','',(#8));
#8 = PRODUCT_CONTEXT('',#2,'mechanical');
#9 = PRODUCT_DEFINITION_CONTEXT('part definition',#2,'design');
#10 = MANIFOLD_SURFACE_SHAPE_REPRESENTATION('',(#11,#15),#121);
#11 = AXIS2_PLACEMENT_3D('',#12,#13,#14);
#12 = CARTESIAN_POINT('',(0.,0.,0.));
#13 = DIRECTION('',(0.,0.,1.));
#14 = DIRECTION('',(1.,0.,-0.));
#15 = SHELL_BASED_SURFACE_MODEL('',(#16));
#16 = OPEN_SHELL('',(#17));
#17 = ADVANCED_FACE('',(#18),#40,.T.);
#18 = FACE_BOUND('',#19,.T.);
#19 = EDGE_LOOP('',(#20,#59,#75,#107));
#20 = ORIENTED_EDGE('',*,*,#21,.T.);
#21 = EDGE_CURVE('',#22,#24,#26,.T.);
#22 = VERTEX_POINT('',#23);
#23 = CARTESIAN_POINT('',(0.,39.784918991568,0.));
#24 = VERTEX_POINT('',#25);
#25 = CARTESIAN_POINT('',(1.5E+03,32.395013577946,0.));
#26 = SURFACE_CURVE('',#27,(#39),.PCURVE_S1.);
#27 = B_SPLINE_CURVE_WITH_KNOTS('',1,(#28,#29,#30,#31,#32,#33,#34,#35,
    #36,#37,#38),.UNSPECIFIED.,.F.,.F.,(2,1,1,1,1,1,1,1,1,1,2),(0.,
    0.107770347983,0.221553163004,0.273838496429,0.383393758347,
    0.560644715898,0.603604193973,0.837478012845,0.878342335027,
    0.94585751741,1.),.UNSPECIFIED.);
#28 = CARTESIAN_POINT('',(0.,39.784918991568,0.));
#29 = CARTESIAN_POINT('',(154.74439715585,-40.43641707083,0.));
#30 = CARTESIAN_POINT('',(332.0784655909,8.740835234313,0.));
#31 = CARTESIAN_POINT('',(407.20942674724,-30.07088028019,0.));
#32 = CARTESIAN_POINT('',(583.8641484618,-16.31965254207,0.));
#33 = CARTESIAN_POINT('',(867.13684862407,27.727095473002,0.));
#34 = CARTESIAN_POINT('',(936.60153875863,29.208397807882,0.));
#35 = CARTESIAN_POINT('',(1.310493910715E+03,-28.07893813594,0.));
#36 = CARTESIAN_POINT('',(1.354563099958E+03,21.175946044242,0.));
#37 = CARTESIAN_POINT('',(1.446847666961E+03,-37.19566653317,0.));
#38 = CARTESIAN_POINT('',(1.5E+03,32.395013577946,0.));
#39 = PCURVE('',#40,#45);
#40 = PLANE('',#41);
#41 = AXIS2_PLACEMENT_3D('',#42,#43,#44);
#42 = CARTESIAN_POINT('',(770.97230904605,75.,0.));
#43 = DIRECTION('',(0.,0.,1.));
#44 = DIRECTION('',(1.,0.,-0.));
#45 = DEFINITIONAL_REPRESENTATION('',(#46),#58);
#46 = B_SPLINE_CURVE_WITH_KNOTS('',1,(#47,#48,#49,#50,#51,#52,#53,#54,
    #55,#56,#57),.UNSPECIFIED.,.F.,.F.,(2,1,1,1,1,1,1,1,1,1,2),(0.,
    0.107770347983,0.221553163004,0.273838496429,0.383393758347,
    0.560644715898,0.603604193973,0.837478012845,0.878342335027,
    0.94585751741,1.),.UNSPECIFIED.);
#47 = CARTESIAN_POINT('',(-770.972309046,-35.21508100843));
#48 = CARTESIAN_POINT('',(-616.2279118902,-115.4364170708));
#49 = CARTESIAN_POINT('',(-438.8938434551,-66.25916476568));
#50 = CARTESIAN_POINT('',(-363.7628822988,-105.0708802801));
#51 = CARTESIAN_POINT('',(-187.1081605842,-91.31965254207));
#52 = CARTESIAN_POINT('',(96.164539578023,-47.27290452699));
#53 = CARTESIAN_POINT('',(165.62922971257,-45.79160219211));
#54 = CARTESIAN_POINT('',(539.52160166849,-103.0789381359));
#55 = CARTESIAN_POINT('',(583.59079091169,-53.82405395575));
#56 = CARTESIAN_POINT('',(675.87535791496,-112.1956665331));
#57 = CARTESIAN_POINT('',(729.02769095394,-42.60498642205));
#58 = ( GEOMETRIC_REPRESENTATION_CONTEXT(2) 
PARAMETRIC_REPRESENTATION_CONTEXT() REPRESENTATION_CONTEXT('2D SPACE',''
  ) );
#59 = ORIENTED_EDGE('',*,*,#60,.T.);
#60 = EDGE_CURVE('',#24,#61,#63,.T.);
#61 = VERTEX_POINT('',#62);
#62 = CARTESIAN_POINT('',(1.5E+03,117.60498642205,0.));
#63 = SURFACE_CURVE('',#64,(#68),.PCURVE_S1.);
#64 = LINE('',#65,#66);
#65 = CARTESIAN_POINT('',(1.5E+03,32.395013577946,0.));
#66 = VECTOR('',#67,1.);
#67 = DIRECTION('',(0.,1.,0.));
#68 = PCURVE('',#40,#69);
#69 = DEFINITIONAL_REPRESENTATION('',(#70),#74);
#70 = LINE('',#71,#72);
#71 = CARTESIAN_POINT('',(729.02769095394,-42.60498642205));
#72 = VECTOR('',#73,1.);
#73 = DIRECTION('',(0.,1.));
#74 = ( GEOMETRIC_REPRESENTATION_CONTEXT(2) 
PARAMETRIC_REPRESENTATION_CONTEXT() REPRESENTATION_CONTEXT('2D SPACE',''
  ) );
#75 = ORIENTED_EDGE('',*,*,#76,.T.);
#76 = EDGE_CURVE('',#61,#77,#79,.T.);
#77 = VERTEX_POINT('',#78);
#78 = CARTESIAN_POINT('',(0.,110.21508100843,0.));
#79 = SURFACE_CURVE('',#80,(#92),.PCURVE_S1.);
#80 = B_SPLINE_CURVE_WITH_KNOTS('',1,(#81,#82,#83,#84,#85,#86,#87,#88,
    #89,#90,#91),.UNSPECIFIED.,.F.,.F.,(2,1,1,1,1,1,1,1,1,1,2),(0.,
    5.414248258958E-02,0.121657664973,0.162521987155,0.396395806027,
    0.439355284102,0.616606241653,0.726161503571,0.778446836996,
    0.892229652017,1.),.UNSPECIFIED.);
#81 = CARTESIAN_POINT('',(1.5E+03,117.60498642205,0.));
#82 = CARTESIAN_POINT('',(1.446847666961E+03,187.19566653317,0.));
#83 = CARTESIAN_POINT('',(1.354563099958E+03,128.82405395575,0.));
#84 = CARTESIAN_POINT('',(1.310493910715E+03,178.07893813594,0.));
#85 = CARTESIAN_POINT('',(936.60153875863,120.79160219211,0.));
#86 = CARTESIAN_POINT('',(867.13684862407,122.27290452699,0.));
#87 = CARTESIAN_POINT('',(583.8641484618,166.31965254207,0.));
#88 = CARTESIAN_POINT('',(407.20942674724,180.07088028019,0.));
#89 = CARTESIAN_POINT('',(332.0784655909,141.25916476568,0.));
#90 = CARTESIAN_POINT('',(154.74439715585,190.43641707083,0.));
#91 = CARTESIAN_POINT('',(0.,110.21508100843,0.));
#92 = PCURVE('',#40,#93);
#93 = DEFINITIONAL_REPRESENTATION('',(#94),#106);
#94 = B_SPLINE_CURVE_WITH_KNOTS('',1,(#95,#96,#97,#98,#99,#100,#101,#102
    ,#103,#104,#105),.UNSPECIFIED.,.F.,.F.,(2,1,1,1,1,1,1,1,1,1,2),(0.,
    5.414248258958E-02,0.121657664973,0.162521987155,0.396395806027,
    0.439355284102,0.616606241653,0.726161503571,0.778446836996,
    0.892229652017,1.),.UNSPECIFIED.);
#95 = CARTESIAN_POINT('',(729.02769095394,42.604986422054));
#96 = CARTESIAN_POINT('',(675.87535791496,112.19566653317));
#97 = CARTESIAN_POINT('',(583.59079091169,53.824053955758));
#98 = CARTESIAN_POINT('',(539.52160166849,103.07893813594));
#99 = CARTESIAN_POINT('',(165.62922971257,45.791602192118));
#100 = CARTESIAN_POINT('',(96.164539578023,47.272904526998));
#101 = CARTESIAN_POINT('',(-187.1081605842,91.319652542072));
#102 = CARTESIAN_POINT('',(-363.7628822988,105.07088028019));
#103 = CARTESIAN_POINT('',(-438.8938434551,66.259164765687));
#104 = CARTESIAN_POINT('',(-616.2279118902,115.43641707083));
#105 = CARTESIAN_POINT('',(-770.972309046,35.215081008432));
#106 = ( GEOMETRIC_REPRESENTATION_CONTEXT(2) 
PARAMETRIC_REPRESENTATION_CONTEXT() REPRESENTATION_CONTEXT('2D SPACE',''
  ) );
#107 = ORIENTED_EDGE('',*,*,#108,.T.);
#108 = EDGE_CURVE('',#77,#22,#109,.T.);
#109 = SURFACE_CURVE('',#110,(#114),.PCURVE_S1.);
#110 = LINE('',#111,#112);
#111 = CARTESIAN_POINT('',(0.,110.21508100843,0.));
#112 = VECTOR('',#113,1.);
#113 = DIRECTION('',(0.,-1.,0.));
#114 = PCURVE('',#40,#115);
#115 = DEFINITIONAL_REPRESENTATION('',(#116),#120);
#116 = LINE('',#117,#118);
#117 = CARTESIAN_POINT('',(-770.972309046,35.215081008432));
#118 = VECTOR('',#119,1.);
#119 = DIRECTION('',(0.,-1.));
#120 = ( GEOMETRIC_REPRESENTATION_CONTEXT(2) 
PARAMETRIC_REPRESENTATION_CONTEXT() REPRESENTATION_CONTEXT('2D SPACE',''
  ) );
#121 = ( GEOMETRIC_REPRESENTATION_CONTEXT(3) 
GLOBAL_UNCERTAINTY_ASSIGNED_CONTEXT((#125)) GLOBAL_UNIT_ASSIGNED_CONTEXT
((#122,#123,#124)) REPRESENTATION_CONTEXT('Context #1',
  '3D Context with UNIT and UNCERTAINTY') );
#122 = ( LENGTH_UNIT() NAMED_UNIT(*) SI_UNIT(.MILLI.,.METRE.) );
#123 = ( NAMED_UNIT(*) PLANE_ANGLE_UNIT() SI_UNIT($,.RADIAN.) );
#124 = ( NAMED_UNIT(*) SI_UNIT($,.STERADIAN.) SOLID_ANGLE_UNIT() );
#125 = UNCERTAINTY_MEASURE_WITH_UNIT(LENGTH_MEASURE(1.E-07),#122,
  'distance_accuracy_value','confusion accuracy');
#126 = PRODUCT_RELATED_PRODUCT_CATEGORY('part',$,(#7));
ENDSEC;
END-ISO-10303-21;
