ISO-10303-21;
HEADER;
FILE_DESCRIPTION(('Open CASCADE Model'),'2;1');
FILE_NAME('Open CASCADE Shape Model','2026-05-28T17:04:48',('Author'),(
    'Open CASCADE'),'Open CASCADE STEP processor 7.9','Open CASCADE 7.9'
  ,'Unknown');
FILE_SCHEMA(('AUTOMOTIVE_DESIGN { 1 0 10303 214 1 1 1 1 }'));
ENDSEC;
DATA;
#1 = APPLICATION_PROTOCOL_DEFINITION('international standard',
  'automotive_design',2000,#2);
#2 = APPLICATION_CONTEXT(
  'core data for automotive mechanical design processes');
#3 = SHAPE_DEFINITION_REPRESENTATION(#4,#10);
#4 = PRODUCT_DEFINITION_SHAPE('','',#5);
#5 = PRODUCT_DEFINITION('design','',#6,#9);
#6 = PRODUCT_DEFINITION_FORMATION('','',#7);
#7 = PRODUCT('Open CASCADE STEP translator 7.9 17',
  'Open CASCADE STEP translator 7.9 17','',(#8));
#8 = PRODUCT_CONTEXT('',#2,'mechanical');
#9 = PRODUCT_DEFINITION_CONTEXT('part definition',#2,'design');
#10 = MANIFOLD_SURFACE_SHAPE_REPRESENTATION('',(#11,#15),#129);
#11 = AXIS2_PLACEMENT_3D('',#12,#13,#14);
#12 = CARTESIAN_POINT('',(0.,0.,0.));
#13 = DIRECTION('',(0.,0.,1.));
#14 = DIRECTION('',(1.,0.,-0.));
#15 = SHELL_BASED_SURFACE_MODEL('',(#16));
#16 = OPEN_SHELL('',(#17));
#17 = ADVANCED_FACE('',(#18),#42,.T.);
#18 = FACE_BOUND('',#19,.T.);
#19 = EDGE_LOOP('',(#20,#63,#79,#115));
#20 = ORIENTED_EDGE('',*,*,#21,.T.);
#21 = EDGE_CURVE('',#22,#24,#26,.T.);
#22 = VERTEX_POINT('',#23);
#23 = CARTESIAN_POINT('',(0.,1.891155878272E-02,0.));
#24 = VERTEX_POINT('',#25);
#25 = CARTESIAN_POINT('',(2.4,5.255242721518E-02,0.));
#26 = SURFACE_CURVE('',#27,(#41),.PCURVE_S1.);
#27 = B_SPLINE_CURVE_WITH_KNOTS('',1,(#28,#29,#30,#31,#32,#33,#34,#35,
    #36,#37,#38,#39,#40),.UNSPECIFIED.,.F.,.F.,(2,1,1,1,1,1,1,1,1,1,1,1,
    2),(0.,5.200679972389E-02,0.149578420408,0.182648908044,
    0.328504986269,0.390794059793,0.463667977273,0.527661953881,
    0.726317254224,0.804880992941,0.912475059499,0.985052827966,1.),
  .UNSPECIFIED.);
#28 = CARTESIAN_POINT('',(0.,1.891155878272E-02,0.));
#29 = CARTESIAN_POINT('',(0.120256055273,-3.533484365951E-02,0.));
#30 = CARTESIAN_POINT('',(0.366905093103,-1.472504939858E-02,0.));
#31 = CARTESIAN_POINT('',(0.449373467077,-3.010063016938E-02,0.));
#32 = CARTESIAN_POINT('',(0.819328961716,-3.523624606349E-02,0.));
#33 = CARTESIAN_POINT('',(0.961082988589,3.456544667033E-02,0.));
#34 = CARTESIAN_POINT('',(1.125022312833,-5.085399793118E-02,0.));
#35 = CARTESIAN_POINT('',(1.276526619231,7.441247649555E-03,0.));
#36 = CARTESIAN_POINT('',(1.779875118556,-1.66816379117E-02,0.));
#37 = CARTESIAN_POINT('',(1.963938884889,5.972294728959E-02,0.));
#38 = CARTESIAN_POINT('',(2.209598059857,-5.920421980934E-02,0.));
#39 = CARTESIAN_POINT('',(2.372649356447,2.62924336843E-02,0.));
#40 = CARTESIAN_POINT('',(2.4,5.255242721518E-02,0.));
#41 = PCURVE('',#42,#47);
#42 = PLANE('',#43);
#43 = AXIS2_PLACEMENT_3D('',#44,#45,#46);
#44 = CARTESIAN_POINT('',(1.202313971804,0.1,0.));
#45 = DIRECTION('',(0.,0.,1.));
#46 = DIRECTION('',(1.,0.,-0.));
#47 = DEFINITIONAL_REPRESENTATION('',(#48),#62);
#48 = B_SPLINE_CURVE_WITH_KNOTS('',1,(#49,#50,#51,#52,#53,#54,#55,#56,
    #57,#58,#59,#60,#61),.UNSPECIFIED.,.F.,.F.,(2,1,1,1,1,1,1,1,1,1,1,1,
    2),(0.,5.200679972389E-02,0.149578420408,0.182648908044,
    0.328504986269,0.390794059793,0.463667977273,0.527661953881,
    0.726317254224,0.804880992941,0.912475059499,0.985052827966,1.),
  .UNSPECIFIED.);
#49 = CARTESIAN_POINT('',(-1.202313971804,-8.108844121728E-02));
#50 = CARTESIAN_POINT('',(-1.082057916531,-0.13533484366));
#51 = CARTESIAN_POINT('',(-0.835408878701,-0.114725049399));
#52 = CARTESIAN_POINT('',(-0.752940504727,-0.130100630169));
#53 = CARTESIAN_POINT('',(-0.382985010088,-0.135236246063));
#54 = CARTESIAN_POINT('',(-0.241230983215,-6.543455332967E-02));
#55 = CARTESIAN_POINT('',(-7.72916589704E-02,-0.150853997931));
#56 = CARTESIAN_POINT('',(7.421264742667E-02,-9.255875235044E-02));
#57 = CARTESIAN_POINT('',(0.577561146752,-0.116681637912));
#58 = CARTESIAN_POINT('',(0.761624913085,-4.027705271041E-02));
#59 = CARTESIAN_POINT('',(1.007284088053,-0.159204219809));
#60 = CARTESIAN_POINT('',(1.170335384643,-7.37075663157E-02));
#61 = CARTESIAN_POINT('',(1.197686028196,-4.744757278482E-02));
#62 = ( GEOMETRIC_REPRESENTATION_CONTEXT(2) 
PARAMETRIC_REPRESENTATION_CONTEXT() REPRESENTATION_CONTEXT('2D SPACE',''
  ) );
#63 = ORIENTED_EDGE('',*,*,#64,.T.);
#64 = EDGE_CURVE('',#24,#65,#67,.T.);
#65 = VERTEX_POINT('',#66);
#66 = CARTESIAN_POINT('',(2.4,0.147447572785,0.));
#67 = SURFACE_CURVE('',#68,(#72),.PCURVE_S1.);
#68 = LINE('',#69,#70);
#69 = CARTESIAN_POINT('',(2.4,5.255242721518E-02,0.));
#70 = VECTOR('',#71,1.);
#71 = DIRECTION('',(0.,1.,0.));
#72 = PCURVE('',#42,#73);
#73 = DEFINITIONAL_REPRESENTATION('',(#74),#78);
#74 = LINE('',#75,#76);
#75 = CARTESIAN_POINT('',(1.197686028196,-4.744757278482E-02));
#76 = VECTOR('',#77,1.);
#77 = DIRECTION('',(0.,1.));
#78 = ( GEOMETRIC_REPRESENTATION_CONTEXT(2) 
PARAMETRIC_REPRESENTATION_CONTEXT() REPRESENTATION_CONTEXT('2D SPACE',''
  ) );
#79 = ORIENTED_EDGE('',*,*,#80,.T.);
#80 = EDGE_CURVE('',#65,#81,#83,.T.);
#81 = VERTEX_POINT('',#82);
#82 = CARTESIAN_POINT('',(0.,0.181088441217,0.));
#83 = SURFACE_CURVE('',#84,(#98),.PCURVE_S1.);
#84 = B_SPLINE_CURVE_WITH_KNOTS('',1,(#85,#86,#87,#88,#89,#90,#91,#92,
    #93,#94,#95,#96,#97),.UNSPECIFIED.,.F.,.F.,(2,1,1,1,1,1,1,1,1,1,1,1,
    2),(0.,1.494717203354E-02,8.752494050123E-02,0.195119007059,
    0.273682745776,0.472338046119,0.536332022727,0.609205940207,
    0.671495013731,0.817351091956,0.850421579592,0.947993200276,1.),
  .UNSPECIFIED.);
#85 = CARTESIAN_POINT('',(2.4,0.147447572785,0.));
#86 = CARTESIAN_POINT('',(2.372649356447,0.173707566316,0.));
#87 = CARTESIAN_POINT('',(2.209598059857,0.259204219809,0.));
#88 = CARTESIAN_POINT('',(1.963938884889,0.14027705271,0.));
#89 = CARTESIAN_POINT('',(1.779875118556,0.216681637912,0.));
#90 = CARTESIAN_POINT('',(1.276526619231,0.19255875235,0.));
#91 = CARTESIAN_POINT('',(1.125022312833,0.250853997931,0.));
#92 = CARTESIAN_POINT('',(0.961082988589,0.16543455333,0.));
#93 = CARTESIAN_POINT('',(0.819328961716,0.235236246063,0.));
#94 = CARTESIAN_POINT('',(0.449373467077,0.230100630169,0.));
#95 = CARTESIAN_POINT('',(0.366905093103,0.214725049399,0.));
#96 = CARTESIAN_POINT('',(0.120256055273,0.23533484366,0.));
#97 = CARTESIAN_POINT('',(0.,0.181088441217,0.));
#98 = PCURVE('',#42,#99);
#99 = DEFINITIONAL_REPRESENTATION('',(#100),#114);
#100 = B_SPLINE_CURVE_WITH_KNOTS('',1,(#101,#102,#103,#104,#105,#106,
    #107,#108,#109,#110,#111,#112,#113),.UNSPECIFIED.,.F.,.F.,(2,1,1,1,1
    ,1,1,1,1,1,1,1,2),(0.,1.494717203354E-02,8.752494050123E-02,
    0.195119007059,0.273682745776,0.472338046119,0.536332022727,
    0.609205940207,0.671495013731,0.817351091956,0.850421579592,
    0.947993200276,1.),.UNSPECIFIED.);
#101 = CARTESIAN_POINT('',(1.197686028196,4.744757278482E-02));
#102 = CARTESIAN_POINT('',(1.170335384643,7.37075663157E-02));
#103 = CARTESIAN_POINT('',(1.007284088053,0.159204219809));
#104 = CARTESIAN_POINT('',(0.761624913085,4.027705271041E-02));
#105 = CARTESIAN_POINT('',(0.577561146752,0.116681637912));
#106 = CARTESIAN_POINT('',(7.421264742667E-02,9.255875235044E-02));
#107 = CARTESIAN_POINT('',(-7.72916589704E-02,0.150853997931));
#108 = CARTESIAN_POINT('',(-0.241230983215,6.543455332967E-02));
#109 = CARTESIAN_POINT('',(-0.382985010088,0.135236246063));
#110 = CARTESIAN_POINT('',(-0.752940504727,0.130100630169));
#111 = CARTESIAN_POINT('',(-0.835408878701,0.114725049399));
#112 = CARTESIAN_POINT('',(-1.082057916531,0.13533484366));
#113 = CARTESIAN_POINT('',(-1.202313971804,8.108844121728E-02));
#114 = ( GEOMETRIC_REPRESENTATION_CONTEXT(2) 
PARAMETRIC_REPRESENTATION_CONTEXT() REPRESENTATION_CONTEXT('2D SPACE',''
  ) );
#115 = ORIENTED_EDGE('',*,*,#116,.T.);
#116 = EDGE_CURVE('',#81,#22,#117,.T.);
#117 = SURFACE_CURVE('',#118,(#122),.PCURVE_S1.);
#118 = LINE('',#119,#120);
#119 = CARTESIAN_POINT('',(0.,0.181088441217,0.));
#120 = VECTOR('',#121,1.);
#121 = DIRECTION('',(0.,-1.,0.));
#122 = PCURVE('',#42,#123);
#123 = DEFINITIONAL_REPRESENTATION('',(#124),#128);
#124 = LINE('',#125,#126);
#125 = CARTESIAN_POINT('',(-1.202313971804,8.108844121728E-02));
#126 = VECTOR('',#127,1.);
#127 = DIRECTION('',(0.,-1.));
#128 = ( GEOMETRIC_REPRESENTATION_CONTEXT(2) 
PARAMETRIC_REPRESENTATION_CONTEXT() REPRESENTATION_CONTEXT('2D SPACE',''
  ) );
#129 = ( GEOMETRIC_REPRESENTATION_CONTEXT(3) 
GLOBAL_UNCERTAINTY_ASSIGNED_CONTEXT((#133)) GLOBAL_UNIT_ASSIGNED_CONTEXT
((#130,#131,#132)) REPRESENTATION_CONTEXT('Context #1',
  '3D Context with UNIT and UNCERTAINTY') );
#130 = ( LENGTH_UNIT() NAMED_UNIT(*) SI_UNIT(.MILLI.,.METRE.) );
#131 = ( NAMED_UNIT(*) PLANE_ANGLE_UNIT() SI_UNIT($,.RADIAN.) );
#132 = ( NAMED_UNIT(*) SI_UNIT($,.STERADIAN.) SOLID_ANGLE_UNIT() );
#133 = UNCERTAINTY_MEASURE_WITH_UNIT(LENGTH_MEASURE(1.E-07),#130,
  'distance_accuracy_value','confusion accuracy');
#134 = PRODUCT_RELATED_PRODUCT_CATEGORY('part',$,(#7));
ENDSEC;
END-ISO-10303-21;
