ISO-10303-21;
HEADER;
FILE_DESCRIPTION(('Open CASCADE Model'),'2;1');
FILE_NAME('Open CASCADE Shape Model','2026-05-28T17:04:49',('Author'),(
    'Open CASCADE'),'Open CASCADE STEP processor 7.9','Open CASCADE 7.9'
  ,'Unknown');
FILE_SCHEMA(('AUTOMOTIVE_DESIGN { 1 0 10303 214 1 1 1 1 }'));
ENDSEC;
DATA;
#1 = APPLICATION_PROTOCOL_DEFINITION('international standard',
  'automotive_design',2000,#2);
#2 = APPLICATION_CONTEXT(
  'core data for automotive mechanical design processes');
#3 = SHAPE_DEFINITION_REPRESENTATION(#4,#10);
#4 = PRODUCT_DEFINITION_SHAPE('','',#5);
#5 = PRODUCT_DEFINITION('design','',#6,#9);
#6 = PRODUCT_DEFINITION_FORMATION('','',#7);
#7 = PRODUCT('Open CASCADE STEP translator 7.9 33',
  'Open CASCADE STEP translator 7.9 33','',(#8));
#8 = PRODUCT_CONTEXT('',#2,'mechanical');
#9 = PRODUCT_DEFINITION_CONTEXT('part definition',#2,'design');
#10 = MANIFOLD_SURFACE_SHAPE_REPRESENTATION('',(#11,#15),#141);
#11 = AXIS2_PLACEMENT_3D('',#12,#13,#14);
#12 = CARTESIAN_POINT('',(0.,0.,0.));
#13 = DIRECTION('',(0.,0.,1.));
#14 = DIRECTION('',(1.,0.,-0.));
#15 = SHELL_BASED_SURFACE_MODEL('',(#16));
#16 = OPEN_SHELL('',(#17));
#17 = ADVANCED_FACE('',(#18),#45,.T.);
#18 = FACE_BOUND('',#19,.T.);
#19 = EDGE_LOOP('',(#20,#69,#85,#127));
#20 = ORIENTED_EDGE('',*,*,#21,.T.);
#21 = EDGE_CURVE('',#22,#24,#26,.T.);
#22 = VERTEX_POINT('',#23);
#23 = CARTESIAN_POINT('',(0.,6.433260942755E-03,0.));
#24 = VERTEX_POINT('',#25);
#25 = CARTESIAN_POINT('',(3.,2.64436405077E-02,0.));
#26 = SURFACE_CURVE('',#27,(#44),.PCURVE_S1.);
#27 = B_SPLINE_CURVE_WITH_KNOTS('',1,(#28,#29,#30,#31,#32,#33,#34,#35,
    #36,#37,#38,#39,#40,#41,#42,#43),.UNSPECIFIED.,.F.,.F.,(2,1,1,1,1,1,
    1,1,1,1,1,1,1,1,1,2),(0.,7.121907072008E-02,9.139911217581E-02,
    0.154640695754,0.287326798555,0.337685825944,0.351795383031,
    0.482147511918,0.529853407705,0.680075666904,0.700300021325,
    0.759073985872,0.845392377446,0.848425065021,0.984650209523,1.),
  .UNSPECIFIED.);
#28 = CARTESIAN_POINT('',(0.,6.433260942755E-03,0.));
#29 = CARTESIAN_POINT('',(0.2137334321,-5.435701938721E-02,0.));
#30 = CARTESIAN_POINT('',(0.265206872102,-1.809535076613E-02,0.));
#31 = CARTESIAN_POINT('',(0.451794861729,4.609213616169E-02,0.));
#32 = CARTESIAN_POINT('',(0.855367201246,-4.621115858722E-02,0.));
#33 = CARTESIAN_POINT('',(1.005140632515,1.288177100304E-03,0.));
#34 = CARTESIAN_POINT('',(1.019207843247,4.300332384325E-02,0.));
#35 = CARTESIAN_POINT('',(1.425916853651,4.167718393903E-02,0.));
#36 = CARTESIAN_POINT('',(1.560215736784,-2.250407221318E-02,0.));
#37 = CARTESIAN_POINT('',(2.022585577334,5.431529919246E-02,0.));
#38 = CARTESIAN_POINT('',(2.078779771758,2.560874821034E-02,0.));
#39 = CARTESIAN_POINT('',(2.261312038932,4.322548914362E-02,0.));
#40 = CARTESIAN_POINT('',(2.528195906419,7.070708445926E-03,0.));
#41 = CARTESIAN_POINT('',(2.537098201941,1.027754736068E-02,0.));
#42 = CARTESIAN_POINT('',(2.961937859871,-2.625172162663E-03,0.));
#43 = CARTESIAN_POINT('',(3.,2.64436405077E-02,0.));
#44 = PCURVE('',#45,#50);
#45 = PLANE('',#46);
#46 = AXIS2_PLACEMENT_3D('',#47,#48,#49);
#47 = CARTESIAN_POINT('',(1.477944677614,0.1,0.));
#48 = DIRECTION('',(0.,0.,1.));
#49 = DIRECTION('',(1.,0.,-0.));
#50 = DEFINITIONAL_REPRESENTATION('',(#51),#68);
#51 = B_SPLINE_CURVE_WITH_KNOTS('',1,(#52,#53,#54,#55,#56,#57,#58,#59,
    #60,#61,#62,#63,#64,#65,#66,#67),.UNSPECIFIED.,.F.,.F.,(2,1,1,1,1,1,
    1,1,1,1,1,1,1,1,1,2),(0.,7.121907072008E-02,9.139911217581E-02,
    0.154640695754,0.287326798555,0.337685825944,0.351795383031,
    0.482147511918,0.529853407705,0.680075666904,0.700300021325,
    0.759073985872,0.845392377446,0.848425065021,0.984650209523,1.),
  .UNSPECIFIED.);
#52 = CARTESIAN_POINT('',(-1.477944677614,-9.356673905725E-02));
#53 = CARTESIAN_POINT('',(-1.264211245514,-0.154357019387));
#54 = CARTESIAN_POINT('',(-1.212737805512,-0.118095350766));
#55 = CARTESIAN_POINT('',(-1.026149815885,-5.390786383831E-02));
#56 = CARTESIAN_POINT('',(-0.622577476368,-0.146211158587));
#57 = CARTESIAN_POINT('',(-0.472804045098,-9.87118228997E-02));
#58 = CARTESIAN_POINT('',(-0.458736834367,-5.699667615675E-02));
#59 = CARTESIAN_POINT('',(-5.202782396291E-02,-5.832281606097E-02));
#60 = CARTESIAN_POINT('',(8.227105917075E-02,-0.122504072213));
#61 = CARTESIAN_POINT('',(0.544640899721,-4.568470080754E-02));
#62 = CARTESIAN_POINT('',(0.600835094144,-7.439125178966E-02));
#63 = CARTESIAN_POINT('',(0.783367361318,-5.677451085638E-02));
#64 = CARTESIAN_POINT('',(1.050251228806,-9.292929155407E-02));
#65 = CARTESIAN_POINT('',(1.059153524327,-8.972245263932E-02));
#66 = CARTESIAN_POINT('',(1.483993182258,-0.102625172163));
#67 = CARTESIAN_POINT('',(1.522055322386,-7.35563594923E-02));
#68 = ( GEOMETRIC_REPRESENTATION_CONTEXT(2) 
PARAMETRIC_REPRESENTATION_CONTEXT() REPRESENTATION_CONTEXT('2D SPACE',''
  ) );
#69 = ORIENTED_EDGE('',*,*,#70,.T.);
#70 = EDGE_CURVE('',#24,#71,#73,.T.);
#71 = VERTEX_POINT('',#72);
#72 = CARTESIAN_POINT('',(3.,0.173556359492,0.));
#73 = SURFACE_CURVE('',#74,(#78),.PCURVE_S1.);
#74 = LINE('',#75,#76);
#75 = CARTESIAN_POINT('',(3.,2.64436405077E-02,0.));
#76 = VECTOR('',#77,1.);
#77 = DIRECTION('',(0.,1.,0.));
#78 = PCURVE('',#45,#79);
#79 = DEFINITIONAL_REPRESENTATION('',(#80),#84);
#80 = LINE('',#81,#82);
#81 = CARTESIAN_POINT('',(1.522055322386,-7.35563594923E-02));
#82 = VECTOR('',#83,1.);
#83 = DIRECTION('',(0.,1.));
#84 = ( GEOMETRIC_REPRESENTATION_CONTEXT(2) 
PARAMETRIC_REPRESENTATION_CONTEXT() REPRESENTATION_CONTEXT('2D SPACE',''
  ) );
#85 = ORIENTED_EDGE('',*,*,#86,.T.);
#86 = EDGE_CURVE('',#71,#87,#89,.T.);
#87 = VERTEX_POINT('',#88);
#88 = CARTESIAN_POINT('',(0.,0.193566739057,0.));
#89 = SURFACE_CURVE('',#90,(#107),.PCURVE_S1.);
#90 = B_SPLINE_CURVE_WITH_KNOTS('',1,(#91,#92,#93,#94,#95,#96,#97,#98,
    #99,#100,#101,#102,#103,#104,#105,#106),.UNSPECIFIED.,.F.,.F.,(2,1,1
    ,1,1,1,1,1,1,1,1,1,1,1,1,2),(0.,1.534979047727E-02,0.151574934979,
    0.154607622554,0.240926014128,0.299699978675,0.319924333096,
    0.470146592295,0.517852488082,0.648204616969,0.662314174056,
    0.712673201445,0.845359304246,0.908600887824,0.92878092928,1.),
  .UNSPECIFIED.);
#91 = CARTESIAN_POINT('',(3.,0.173556359492,0.));
#92 = CARTESIAN_POINT('',(2.961937859871,0.202625172163,0.));
#93 = CARTESIAN_POINT('',(2.537098201941,0.189722452639,0.));
#94 = CARTESIAN_POINT('',(2.528195906419,0.192929291554,0.));
#95 = CARTESIAN_POINT('',(2.261312038932,0.156774510856,0.));
#96 = CARTESIAN_POINT('',(2.078779771758,0.17439125179,0.));
#97 = CARTESIAN_POINT('',(2.022585577334,0.145684700808,0.));
#98 = CARTESIAN_POINT('',(1.560215736784,0.222504072213,0.));
#99 = CARTESIAN_POINT('',(1.425916853651,0.158322816061,0.));
#100 = CARTESIAN_POINT('',(1.019207843247,0.156996676157,0.));
#101 = CARTESIAN_POINT('',(1.005140632515,0.1987118229,0.));
#102 = CARTESIAN_POINT('',(0.855367201246,0.246211158587,0.));
#103 = CARTESIAN_POINT('',(0.451794861729,0.153907863838,0.));
#104 = CARTESIAN_POINT('',(0.265206872102,0.218095350766,0.));
#105 = CARTESIAN_POINT('',(0.2137334321,0.254357019387,0.));
#106 = CARTESIAN_POINT('',(0.,0.193566739057,0.));
#107 = PCURVE('',#45,#108);
#108 = DEFINITIONAL_REPRESENTATION('',(#109),#126);
#109 = B_SPLINE_CURVE_WITH_KNOTS('',1,(#110,#111,#112,#113,#114,#115,
    #116,#117,#118,#119,#120,#121,#122,#123,#124,#125),.UNSPECIFIED.,.F.
  ,.F.,(2,1,1,1,1,1,1,1,1,1,1,1,1,1,1,2),(0.,1.534979047727E-02,
    0.151574934979,0.154607622554,0.240926014128,0.299699978675,
    0.319924333096,0.470146592295,0.517852488082,0.648204616969,
    0.662314174056,0.712673201445,0.845359304246,0.908600887824,
    0.92878092928,1.),.UNSPECIFIED.);
#110 = CARTESIAN_POINT('',(1.522055322386,7.35563594923E-02));
#111 = CARTESIAN_POINT('',(1.483993182258,0.102625172163));
#112 = CARTESIAN_POINT('',(1.059153524327,8.972245263932E-02));
#113 = CARTESIAN_POINT('',(1.050251228806,9.292929155407E-02));
#114 = CARTESIAN_POINT('',(0.783367361318,5.677451085638E-02));
#115 = CARTESIAN_POINT('',(0.600835094144,7.439125178966E-02));
#116 = CARTESIAN_POINT('',(0.544640899721,4.568470080754E-02));
#117 = CARTESIAN_POINT('',(8.227105917075E-02,0.122504072213));
#118 = CARTESIAN_POINT('',(-5.202782396291E-02,5.832281606097E-02));
#119 = CARTESIAN_POINT('',(-0.458736834367,5.699667615675E-02));
#120 = CARTESIAN_POINT('',(-0.472804045098,9.87118228997E-02));
#121 = CARTESIAN_POINT('',(-0.622577476368,0.146211158587));
#122 = CARTESIAN_POINT('',(-1.026149815885,5.390786383831E-02));
#123 = CARTESIAN_POINT('',(-1.212737805512,0.118095350766));
#124 = CARTESIAN_POINT('',(-1.264211245514,0.154357019387));
#125 = CARTESIAN_POINT('',(-1.477944677614,9.356673905725E-02));
#126 = ( GEOMETRIC_REPRESENTATION_CONTEXT(2) 
PARAMETRIC_REPRESENTATION_CONTEXT() REPRESENTATION_CONTEXT('2D SPACE',''
  ) );
#127 = ORIENTED_EDGE('',*,*,#128,.T.);
#128 = EDGE_CURVE('',#87,#22,#129,.T.);
#129 = SURFACE_CURVE('',#130,(#134),.PCURVE_S1.);
#130 = LINE('',#131,#132);
#131 = CARTESIAN_POINT('',(0.,0.193566739057,0.));
#132 = VECTOR('',#133,1.);
#133 = DIRECTION('',(0.,-1.,0.));
#134 = PCURVE('',#45,#135);
#135 = DEFINITIONAL_REPRESENTATION('',(#136),#140);
#136 = LINE('',#137,#138);
#137 = CARTESIAN_POINT('',(-1.477944677614,9.356673905725E-02));
#138 = VECTOR('',#139,1.);
#139 = DIRECTION('',(0.,-1.));
#140 = ( GEOMETRIC_REPRESENTATION_CONTEXT(2) 
PARAMETRIC_REPRESENTATION_CONTEXT() REPRESENTATION_CONTEXT('2D SPACE',''
  ) );
#141 = ( GEOMETRIC_REPRESENTATION_CONTEXT(3) 
GLOBAL_UNCERTAINTY_ASSIGNED_CONTEXT((#145)) GLOBAL_UNIT_ASSIGNED_CONTEXT
((#142,#143,#144)) REPRESENTATION_CONTEXT('Context #1',
  '3D Context with UNIT and UNCERTAINTY') );
#142 = ( LENGTH_UNIT() NAMED_UNIT(*) SI_UNIT(.MILLI.,.METRE.) );
#143 = ( NAMED_UNIT(*) PLANE_ANGLE_UNIT() SI_UNIT($,.RADIAN.) );
#144 = ( NAMED_UNIT(*) SI_UNIT($,.STERADIAN.) SOLID_ANGLE_UNIT() );
#145 = UNCERTAINTY_MEASURE_WITH_UNIT(LENGTH_MEASURE(1.E-07),#142,
  'distance_accuracy_value','confusion accuracy');
#146 = PRODUCT_RELATED_PRODUCT_CATEGORY('part',$,(#7));
ENDSEC;
END-ISO-10303-21;
