ISO-10303-21;
HEADER;
FILE_DESCRIPTION(('Open CASCADE Model'),'2;1');
FILE_NAME('Open CASCADE Shape Model','2026-05-29T14:30:30',('Author'),(
    'Open CASCADE'),'Open CASCADE STEP processor 7.9','Open CASCADE 7.9'
  ,'Unknown');
FILE_SCHEMA(('AUTOMOTIVE_DESIGN { 1 0 10303 214 1 1 1 1 }'));
ENDSEC;
DATA;
#1 = APPLICATION_PROTOCOL_DEFINITION('international standard',
  'automotive_design',2000,#2);
#2 = APPLICATION_CONTEXT(
  'core data for automotive mechanical design processes');
#3 = SHAPE_DEFINITION_REPRESENTATION(#4,#10);
#4 = PRODUCT_DEFINITION_SHAPE('','',#5);
#5 = PRODUCT_DEFINITION('design','',#6,#9);
#6 = PRODUCT_DEFINITION_FORMATION('','',#7);
#7 = PRODUCT('Open CASCADE STEP translator 7.9 43',
  'Open CASCADE STEP translator 7.9 43','',(#8));
#8 = PRODUCT_CONTEXT('',#2,'mechanical');
#9 = PRODUCT_DEFINITION_CONTEXT('part definition',#2,'design');
#10 = MANIFOLD_SURFACE_SHAPE_REPRESENTATION('',(#11,#15),#121);
#11 = AXIS2_PLACEMENT_3D('',#12,#13,#14);
#12 = CARTESIAN_POINT('',(0.,0.,0.));
#13 = DIRECTION('',(0.,0.,1.));
#14 = DIRECTION('',(1.,0.,-0.));
#15 = SHELL_BASED_SURFACE_MODEL('',(#16));
#16 = OPEN_SHELL('',(#17));
#17 = ADVANCED_FACE('',(#18),#40,.T.);
#18 = FACE_BOUND('',#19,.T.);
#19 = EDGE_LOOP('',(#20,#59,#75,#107));
#20 = ORIENTED_EDGE('',*,*,#21,.T.);
#21 = EDGE_CURVE('',#22,#24,#26,.T.);
#22 = VERTEX_POINT('',#23);
#23 = CARTESIAN_POINT('',(0.,18.470344538291,0.));
#24 = VERTEX_POINT('',#25);
#25 = CARTESIAN_POINT('',(1.5E+03,-4.760842865802,0.));
#26 = SURFACE_CURVE('',#27,(#39),.PCURVE_S1.);
#27 = B_SPLINE_CURVE_WITH_KNOTS('',1,(#28,#29,#30,#31,#32,#33,#34,#35,
    #36,#37,#38),.UNSPECIFIED.,.F.,.F.,(2,1,1,1,1,1,1,1,1,1,2),(0.,
    5.583833875639E-02,0.183063830522,0.260885202505,0.281570466223,
    0.321947736124,0.445253432736,0.816862523813,0.862688327597,
    0.921718822731,1.),.UNSPECIFIED.);
#28 = CARTESIAN_POINT('',(0.,18.470344538291,0.));
#29 = CARTESIAN_POINT('',(73.690195953538,-23.83231973465,0.));
#30 = CARTESIAN_POINT('',(267.02700773237,-33.90397175381,0.));
#31 = CARTESIAN_POINT('',(385.42649269501,-36.14776682097,0.));
#32 = CARTESIAN_POINT('',(416.00563099257,-43.61117474256,0.));
#33 = CARTESIAN_POINT('',(477.44738352465,-43.4130014794,0.));
#34 = CARTESIAN_POINT('',(665.06298597607,-40.76992194911,0.));
#35 = CARTESIAN_POINT('',(1.224951573759E+03,38.53600735474,0.));
#36 = CARTESIAN_POINT('',(1.294431446399E+03,32.598581766498,0.));
#37 = CARTESIAN_POINT('',(1.382996759242E+03,17.598012617157,0.));
#38 = CARTESIAN_POINT('',(1.5E+03,-4.760842865802,0.));
#39 = PCURVE('',#40,#45);
#40 = PLANE('',#41);
#41 = AXIS2_PLACEMENT_3D('',#42,#43,#44);
#42 = CARTESIAN_POINT('',(757.43512133069,75.,0.));
#43 = DIRECTION('',(0.,0.,1.));
#44 = DIRECTION('',(1.,0.,-0.));
#45 = DEFINITIONAL_REPRESENTATION('',(#46),#58);
#46 = B_SPLINE_CURVE_WITH_KNOTS('',1,(#47,#48,#49,#50,#51,#52,#53,#54,
    #55,#56,#57),.UNSPECIFIED.,.F.,.F.,(2,1,1,1,1,1,1,1,1,1,2),(0.,
    5.583833875639E-02,0.183063830522,0.260885202505,0.281570466223,
    0.321947736124,0.445253432736,0.816862523813,0.862688327597,
    0.921718822731,1.),.UNSPECIFIED.);
#47 = CARTESIAN_POINT('',(-757.4351213306,-56.5296554617));
#48 = CARTESIAN_POINT('',(-683.7449253771,-98.83231973465));
#49 = CARTESIAN_POINT('',(-490.4081135983,-108.9039717538));
#50 = CARTESIAN_POINT('',(-372.0086286356,-111.1477668209));
#51 = CARTESIAN_POINT('',(-341.4294903381,-118.6111747425));
#52 = CARTESIAN_POINT('',(-279.987737806,-118.4130014794));
#53 = CARTESIAN_POINT('',(-92.37213535462,-115.7699219491));
#54 = CARTESIAN_POINT('',(467.51645242871,-36.46399264526));
#55 = CARTESIAN_POINT('',(536.99632506807,-42.4014182335));
#56 = CARTESIAN_POINT('',(625.56163791167,-57.40198738284));
#57 = CARTESIAN_POINT('',(742.5648786693,-79.7608428658));
#58 = ( GEOMETRIC_REPRESENTATION_CONTEXT(2) 
PARAMETRIC_REPRESENTATION_CONTEXT() REPRESENTATION_CONTEXT('2D SPACE',''
  ) );
#59 = ORIENTED_EDGE('',*,*,#60,.T.);
#60 = EDGE_CURVE('',#24,#61,#63,.T.);
#61 = VERTEX_POINT('',#62);
#62 = CARTESIAN_POINT('',(1.5E+03,154.7608428658,0.));
#63 = SURFACE_CURVE('',#64,(#68),.PCURVE_S1.);
#64 = LINE('',#65,#66);
#65 = CARTESIAN_POINT('',(1.5E+03,-4.760842865802,0.));
#66 = VECTOR('',#67,1.);
#67 = DIRECTION('',(0.,1.,0.));
#68 = PCURVE('',#40,#69);
#69 = DEFINITIONAL_REPRESENTATION('',(#70),#74);
#70 = LINE('',#71,#72);
#71 = CARTESIAN_POINT('',(742.5648786693,-79.7608428658));
#72 = VECTOR('',#73,1.);
#73 = DIRECTION('',(0.,1.));
#74 = ( GEOMETRIC_REPRESENTATION_CONTEXT(2) 
PARAMETRIC_REPRESENTATION_CONTEXT() REPRESENTATION_CONTEXT('2D SPACE',''
  ) );
#75 = ORIENTED_EDGE('',*,*,#76,.T.);
#76 = EDGE_CURVE('',#61,#77,#79,.T.);
#77 = VERTEX_POINT('',#78);
#78 = CARTESIAN_POINT('',(0.,131.5296554617,0.));
#79 = SURFACE_CURVE('',#80,(#92),.PCURVE_S1.);
#80 = B_SPLINE_CURVE_WITH_KNOTS('',1,(#81,#82,#83,#84,#85,#86,#87,#88,
    #89,#90,#91),.UNSPECIFIED.,.F.,.F.,(2,1,1,1,1,1,1,1,1,1,2),(0.,
    7.828117726936E-02,0.137311672403,0.183137476187,0.554746567264,
    0.678052263876,0.718429533777,0.739114797495,0.816936169478,
    0.944161661244,1.),.UNSPECIFIED.);
#81 = CARTESIAN_POINT('',(1.5E+03,154.7608428658,0.));
#82 = CARTESIAN_POINT('',(1.382996759242E+03,132.40198738284,0.));
#83 = CARTESIAN_POINT('',(1.294431446399E+03,117.4014182335,0.));
#84 = CARTESIAN_POINT('',(1.224951573759E+03,111.46399264526,0.));
#85 = CARTESIAN_POINT('',(665.06298597607,190.76992194911,0.));
#86 = CARTESIAN_POINT('',(477.44738352465,193.4130014794,0.));
#87 = CARTESIAN_POINT('',(416.00563099257,193.61117474256,0.));
#88 = CARTESIAN_POINT('',(385.42649269501,186.14776682097,0.));
#89 = CARTESIAN_POINT('',(267.02700773237,183.90397175381,0.));
#90 = CARTESIAN_POINT('',(73.690195953538,173.83231973465,0.));
#91 = CARTESIAN_POINT('',(0.,131.5296554617,0.));
#92 = PCURVE('',#40,#93);
#93 = DEFINITIONAL_REPRESENTATION('',(#94),#106);
#94 = B_SPLINE_CURVE_WITH_KNOTS('',1,(#95,#96,#97,#98,#99,#100,#101,#102
    ,#103,#104,#105),.UNSPECIFIED.,.F.,.F.,(2,1,1,1,1,1,1,1,1,1,2),(0.,
    7.828117726936E-02,0.137311672403,0.183137476187,0.554746567264,
    0.678052263876,0.718429533777,0.739114797495,0.816936169478,
    0.944161661244,1.),.UNSPECIFIED.);
#95 = CARTESIAN_POINT('',(742.5648786693,79.760842865802));
#96 = CARTESIAN_POINT('',(625.56163791167,57.401987382843));
#97 = CARTESIAN_POINT('',(536.99632506807,42.401418233502));
#98 = CARTESIAN_POINT('',(467.51645242871,36.46399264526));
#99 = CARTESIAN_POINT('',(-92.37213535462,115.76992194911));
#100 = CARTESIAN_POINT('',(-279.987737806,118.4130014794));
#101 = CARTESIAN_POINT('',(-341.4294903381,118.61117474256));
#102 = CARTESIAN_POINT('',(-372.0086286356,111.14776682097));
#103 = CARTESIAN_POINT('',(-490.4081135983,108.90397175381));
#104 = CARTESIAN_POINT('',(-683.7449253771,98.832319734651));
#105 = CARTESIAN_POINT('',(-757.4351213306,56.529655461709));
#106 = ( GEOMETRIC_REPRESENTATION_CONTEXT(2) 
PARAMETRIC_REPRESENTATION_CONTEXT() REPRESENTATION_CONTEXT('2D SPACE',''
  ) );
#107 = ORIENTED_EDGE('',*,*,#108,.T.);
#108 = EDGE_CURVE('',#77,#22,#109,.T.);
#109 = SURFACE_CURVE('',#110,(#114),.PCURVE_S1.);
#110 = LINE('',#111,#112);
#111 = CARTESIAN_POINT('',(0.,131.5296554617,0.));
#112 = VECTOR('',#113,1.);
#113 = DIRECTION('',(0.,-1.,0.));
#114 = PCURVE('',#40,#115);
#115 = DEFINITIONAL_REPRESENTATION('',(#116),#120);
#116 = LINE('',#117,#118);
#117 = CARTESIAN_POINT('',(-757.4351213306,56.529655461709));
#118 = VECTOR('',#119,1.);
#119 = DIRECTION('',(0.,-1.));
#120 = ( GEOMETRIC_REPRESENTATION_CONTEXT(2) 
PARAMETRIC_REPRESENTATION_CONTEXT() REPRESENTATION_CONTEXT('2D SPACE',''
  ) );
#121 = ( GEOMETRIC_REPRESENTATION_CONTEXT(3) 
GLOBAL_UNCERTAINTY_ASSIGNED_CONTEXT((#125)) GLOBAL_UNIT_ASSIGNED_CONTEXT
((#122,#123,#124)) REPRESENTATION_CONTEXT('Context #1',
  '3D Context with UNIT and UNCERTAINTY') );
#122 = ( LENGTH_UNIT() NAMED_UNIT(*) SI_UNIT(.MILLI.,.METRE.) );
#123 = ( NAMED_UNIT(*) PLANE_ANGLE_UNIT() SI_UNIT($,.RADIAN.) );
#124 = ( NAMED_UNIT(*) SI_UNIT($,.STERADIAN.) SOLID_ANGLE_UNIT() );
#125 = UNCERTAINTY_MEASURE_WITH_UNIT(LENGTH_MEASURE(1.E-07),#122,
  'distance_accuracy_value','confusion accuracy');
#126 = PRODUCT_RELATED_PRODUCT_CATEGORY('part',$,(#7));
ENDSEC;
END-ISO-10303-21;
