ISO-10303-21;
HEADER;
FILE_DESCRIPTION(('Open CASCADE Model'),'2;1');
FILE_NAME('Open CASCADE Shape Model','2026-05-28T17:04:49',('Author'),(
    'Open CASCADE'),'Open CASCADE STEP processor 7.9','Open CASCADE 7.9'
  ,'Unknown');
FILE_SCHEMA(('AUTOMOTIVE_DESIGN { 1 0 10303 214 1 1 1 1 }'));
ENDSEC;
DATA;
#1 = APPLICATION_PROTOCOL_DEFINITION('international standard',
  'automotive_design',2000,#2);
#2 = APPLICATION_CONTEXT(
  'core data for automotive mechanical design processes');
#3 = SHAPE_DEFINITION_REPRESENTATION(#4,#10);
#4 = PRODUCT_DEFINITION_SHAPE('','',#5);
#5 = PRODUCT_DEFINITION('design','',#6,#9);
#6 = PRODUCT_DEFINITION_FORMATION('','',#7);
#7 = PRODUCT('Open CASCADE STEP translator 7.9 72',
  'Open CASCADE STEP translator 7.9 72','',(#8));
#8 = PRODUCT_CONTEXT('',#2,'mechanical');
#9 = PRODUCT_DEFINITION_CONTEXT('part definition',#2,'design');
#10 = MANIFOLD_SURFACE_SHAPE_REPRESENTATION('',(#11,#15),#129);
#11 = AXIS2_PLACEMENT_3D('',#12,#13,#14);
#12 = CARTESIAN_POINT('',(0.,0.,0.));
#13 = DIRECTION('',(0.,0.,1.));
#14 = DIRECTION('',(1.,0.,-0.));
#15 = SHELL_BASED_SURFACE_MODEL('',(#16));
#16 = OPEN_SHELL('',(#17));
#17 = ADVANCED_FACE('',(#18),#42,.T.);
#18 = FACE_BOUND('',#19,.T.);
#19 = EDGE_LOOP('',(#20,#63,#79,#115));
#20 = ORIENTED_EDGE('',*,*,#21,.T.);
#21 = EDGE_CURVE('',#22,#24,#26,.T.);
#22 = VERTEX_POINT('',#23);
#23 = CARTESIAN_POINT('',(0.,-2.762564821738E-02,0.));
#24 = VERTEX_POINT('',#25);
#25 = CARTESIAN_POINT('',(2.4,-5.426408704907E-02,0.));
#26 = SURFACE_CURVE('',#27,(#41),.PCURVE_S1.);
#27 = B_SPLINE_CURVE_WITH_KNOTS('',1,(#28,#29,#30,#31,#32,#33,#34,#35,
    #36,#37,#38,#39,#40),.UNSPECIFIED.,.F.,.F.,(2,1,1,1,1,1,1,1,1,1,1,1,
    2),(0.,2.021822262148E-02,3.10267462803E-02,7.445380061967E-02,
    0.128774550777,0.143871771195,0.250003687571,0.477891905096,
    0.52294517664,0.584472010965,0.818847855115,0.847700450042,1.),
  .UNSPECIFIED.);
#28 = CARTESIAN_POINT('',(0.,-2.762564821738E-02,0.));
#29 = CARTESIAN_POINT('',(4.375457517356E-02,-5.395624658121E-02,0.));
#30 = CARTESIAN_POINT('',(5.987452489596E-02,-3.192400879205E-02,0.));
#31 = CARTESIAN_POINT('',(0.168746732555,-4.526104396547E-02,0.));
#32 = CARTESIAN_POINT('',(0.299064609791,-2.3503269086E-03,0.));
#33 = CARTESIAN_POINT('',(0.305824010574,-3.98783165061E-02,0.));
#34 = CARTESIAN_POINT('',(0.562309441949,3.80516179216E-02,0.));
#35 = CARTESIAN_POINT('',(1.137734918227,5.179825315252E-02,0.));
#36 = CARTESIAN_POINT('',(1.227048574646,-1.871437321496E-02,0.));
#37 = CARTESIAN_POINT('',(1.36451245212,5.376569954903E-02,0.));
#38 = CARTESIAN_POINT('',(1.947832187032,-4.709777029676E-02,0.));
#39 = CARTESIAN_POINT('',(2.016602449507,-2.298649765289E-02,0.));
#40 = CARTESIAN_POINT('',(2.4,-5.426408704907E-02,0.));
#41 = PCURVE('',#42,#47);
#42 = PLANE('',#43);
#43 = AXIS2_PLACEMENT_3D('',#44,#45,#46);
#44 = CARTESIAN_POINT('',(1.191319810148,0.1,0.));
#45 = DIRECTION('',(0.,0.,1.));
#46 = DIRECTION('',(1.,0.,-0.));
#47 = DEFINITIONAL_REPRESENTATION('',(#48),#62);
#48 = B_SPLINE_CURVE_WITH_KNOTS('',1,(#49,#50,#51,#52,#53,#54,#55,#56,
    #57,#58,#59,#60,#61),.UNSPECIFIED.,.F.,.F.,(2,1,1,1,1,1,1,1,1,1,1,1,
    2),(0.,2.021822262148E-02,3.10267462803E-02,7.445380061967E-02,
    0.128774550777,0.143871771195,0.250003687571,0.477891905096,
    0.52294517664,0.584472010965,0.818847855115,0.847700450042,1.),
  .UNSPECIFIED.);
#49 = CARTESIAN_POINT('',(-1.191319810148,-0.127625648217));
#50 = CARTESIAN_POINT('',(-1.147565234974,-0.153956246581));
#51 = CARTESIAN_POINT('',(-1.131445285252,-0.131924008792));
#52 = CARTESIAN_POINT('',(-1.022573077593,-0.145261043965));
#53 = CARTESIAN_POINT('',(-0.892255200357,-0.102350326909));
#54 = CARTESIAN_POINT('',(-0.885495799574,-0.139878316506));
#55 = CARTESIAN_POINT('',(-0.629010368199,-6.19483820784E-02));
#56 = CARTESIAN_POINT('',(-5.358489192103E-02,-4.820174684748E-02));
#57 = CARTESIAN_POINT('',(3.572876449869E-02,-0.118714373215));
#58 = CARTESIAN_POINT('',(0.173192641972,-4.623430045097E-02));
#59 = CARTESIAN_POINT('',(0.756512376884,-0.147097770297));
#60 = CARTESIAN_POINT('',(0.825282639359,-0.122986497653));
#61 = CARTESIAN_POINT('',(1.208680189852,-0.154264087049));
#62 = ( GEOMETRIC_REPRESENTATION_CONTEXT(2) 
PARAMETRIC_REPRESENTATION_CONTEXT() REPRESENTATION_CONTEXT('2D SPACE',''
  ) );
#63 = ORIENTED_EDGE('',*,*,#64,.T.);
#64 = EDGE_CURVE('',#24,#65,#67,.T.);
#65 = VERTEX_POINT('',#66);
#66 = CARTESIAN_POINT('',(2.4,0.254264087049,0.));
#67 = SURFACE_CURVE('',#68,(#72),.PCURVE_S1.);
#68 = LINE('',#69,#70);
#69 = CARTESIAN_POINT('',(2.4,-5.426408704907E-02,0.));
#70 = VECTOR('',#71,1.);
#71 = DIRECTION('',(0.,1.,0.));
#72 = PCURVE('',#42,#73);
#73 = DEFINITIONAL_REPRESENTATION('',(#74),#78);
#74 = LINE('',#75,#76);
#75 = CARTESIAN_POINT('',(1.208680189852,-0.154264087049));
#76 = VECTOR('',#77,1.);
#77 = DIRECTION('',(0.,1.));
#78 = ( GEOMETRIC_REPRESENTATION_CONTEXT(2) 
PARAMETRIC_REPRESENTATION_CONTEXT() REPRESENTATION_CONTEXT('2D SPACE',''
  ) );
#79 = ORIENTED_EDGE('',*,*,#80,.T.);
#80 = EDGE_CURVE('',#65,#81,#83,.T.);
#81 = VERTEX_POINT('',#82);
#82 = CARTESIAN_POINT('',(0.,0.227625648217,0.));
#83 = SURFACE_CURVE('',#84,(#98),.PCURVE_S1.);
#84 = B_SPLINE_CURVE_WITH_KNOTS('',1,(#85,#86,#87,#88,#89,#90,#91,#92,
    #93,#94,#95,#96,#97),.UNSPECIFIED.,.F.,.F.,(2,1,1,1,1,1,1,1,1,1,1,1,
    2),(0.,0.152299549958,0.181152144885,0.415527989035,0.47705482336,
    0.522108094904,0.749996312429,0.856128228805,0.871225449223,
    0.92554619938,0.96897325372,0.979781777379,1.),.UNSPECIFIED.);
#85 = CARTESIAN_POINT('',(2.4,0.254264087049,0.));
#86 = CARTESIAN_POINT('',(2.016602449507,0.222986497653,0.));
#87 = CARTESIAN_POINT('',(1.947832187032,0.247097770297,0.));
#88 = CARTESIAN_POINT('',(1.36451245212,0.146234300451,0.));
#89 = CARTESIAN_POINT('',(1.227048574646,0.218714373215,0.));
#90 = CARTESIAN_POINT('',(1.137734918227,0.148201746847,0.));
#91 = CARTESIAN_POINT('',(0.562309441949,0.161948382078,0.));
#92 = CARTESIAN_POINT('',(0.305824010574,0.239878316506,0.));
#93 = CARTESIAN_POINT('',(0.299064609791,0.202350326909,0.));
#94 = CARTESIAN_POINT('',(0.168746732555,0.245261043965,0.));
#95 = CARTESIAN_POINT('',(5.987452489596E-02,0.231924008792,0.));
#96 = CARTESIAN_POINT('',(4.375457517356E-02,0.253956246581,0.));
#97 = CARTESIAN_POINT('',(0.,0.227625648217,0.));
#98 = PCURVE('',#42,#99);
#99 = DEFINITIONAL_REPRESENTATION('',(#100),#114);
#100 = B_SPLINE_CURVE_WITH_KNOTS('',1,(#101,#102,#103,#104,#105,#106,
    #107,#108,#109,#110,#111,#112,#113),.UNSPECIFIED.,.F.,.F.,(2,1,1,1,1
    ,1,1,1,1,1,1,1,2),(0.,0.152299549958,0.181152144885,0.415527989035,
    0.47705482336,0.522108094904,0.749996312429,0.856128228805,
    0.871225449223,0.92554619938,0.96897325372,0.979781777379,1.),
  .UNSPECIFIED.);
#101 = CARTESIAN_POINT('',(1.208680189852,0.154264087049));
#102 = CARTESIAN_POINT('',(0.825282639359,0.122986497653));
#103 = CARTESIAN_POINT('',(0.756512376884,0.147097770297));
#104 = CARTESIAN_POINT('',(0.173192641972,4.623430045097E-02));
#105 = CARTESIAN_POINT('',(3.572876449869E-02,0.118714373215));
#106 = CARTESIAN_POINT('',(-5.358489192103E-02,4.820174684748E-02));
#107 = CARTESIAN_POINT('',(-0.629010368199,6.19483820784E-02));
#108 = CARTESIAN_POINT('',(-0.885495799574,0.139878316506));
#109 = CARTESIAN_POINT('',(-0.892255200357,0.102350326909));
#110 = CARTESIAN_POINT('',(-1.022573077593,0.145261043965));
#111 = CARTESIAN_POINT('',(-1.131445285252,0.131924008792));
#112 = CARTESIAN_POINT('',(-1.147565234974,0.153956246581));
#113 = CARTESIAN_POINT('',(-1.191319810148,0.127625648217));
#114 = ( GEOMETRIC_REPRESENTATION_CONTEXT(2) 
PARAMETRIC_REPRESENTATION_CONTEXT() REPRESENTATION_CONTEXT('2D SPACE',''
  ) );
#115 = ORIENTED_EDGE('',*,*,#116,.T.);
#116 = EDGE_CURVE('',#81,#22,#117,.T.);
#117 = SURFACE_CURVE('',#118,(#122),.PCURVE_S1.);
#118 = LINE('',#119,#120);
#119 = CARTESIAN_POINT('',(0.,0.227625648217,0.));
#120 = VECTOR('',#121,1.);
#121 = DIRECTION('',(0.,-1.,0.));
#122 = PCURVE('',#42,#123);
#123 = DEFINITIONAL_REPRESENTATION('',(#124),#128);
#124 = LINE('',#125,#126);
#125 = CARTESIAN_POINT('',(-1.191319810148,0.127625648217));
#126 = VECTOR('',#127,1.);
#127 = DIRECTION('',(0.,-1.));
#128 = ( GEOMETRIC_REPRESENTATION_CONTEXT(2) 
PARAMETRIC_REPRESENTATION_CONTEXT() REPRESENTATION_CONTEXT('2D SPACE',''
  ) );
#129 = ( GEOMETRIC_REPRESENTATION_CONTEXT(3) 
GLOBAL_UNCERTAINTY_ASSIGNED_CONTEXT((#133)) GLOBAL_UNIT_ASSIGNED_CONTEXT
((#130,#131,#132)) REPRESENTATION_CONTEXT('Context #1',
  '3D Context with UNIT and UNCERTAINTY') );
#130 = ( LENGTH_UNIT() NAMED_UNIT(*) SI_UNIT(.MILLI.,.METRE.) );
#131 = ( NAMED_UNIT(*) PLANE_ANGLE_UNIT() SI_UNIT($,.RADIAN.) );
#132 = ( NAMED_UNIT(*) SI_UNIT($,.STERADIAN.) SOLID_ANGLE_UNIT() );
#133 = UNCERTAINTY_MEASURE_WITH_UNIT(LENGTH_MEASURE(1.E-07),#130,
  'distance_accuracy_value','confusion accuracy');
#134 = PRODUCT_RELATED_PRODUCT_CATEGORY('part',$,(#7));
ENDSEC;
END-ISO-10303-21;
