ISO-10303-21;
HEADER;
FILE_DESCRIPTION(('Open CASCADE Model'),'2;1');
FILE_NAME('Open CASCADE Shape Model','2026-05-28T17:04:49',('Author'),(
    'Open CASCADE'),'Open CASCADE STEP processor 7.9','Open CASCADE 7.9'
  ,'Unknown');
FILE_SCHEMA(('AUTOMOTIVE_DESIGN { 1 0 10303 214 1 1 1 1 }'));
ENDSEC;
DATA;
#1 = APPLICATION_PROTOCOL_DEFINITION('international standard',
  'automotive_design',2000,#2);
#2 = APPLICATION_CONTEXT(
  'core data for automotive mechanical design processes');
#3 = SHAPE_DEFINITION_REPRESENTATION(#4,#10);
#4 = PRODUCT_DEFINITION_SHAPE('','',#5);
#5 = PRODUCT_DEFINITION('design','',#6,#9);
#6 = PRODUCT_DEFINITION_FORMATION('','',#7);
#7 = PRODUCT('Open CASCADE STEP translator 7.9 38',
  'Open CASCADE STEP translator 7.9 38','',(#8));
#8 = PRODUCT_CONTEXT('',#2,'mechanical');
#9 = PRODUCT_DEFINITION_CONTEXT('part definition',#2,'design');
#10 = MANIFOLD_SURFACE_SHAPE_REPRESENTATION('',(#11,#15),#165);
#11 = AXIS2_PLACEMENT_3D('',#12,#13,#14);
#12 = CARTESIAN_POINT('',(0.,0.,0.));
#13 = DIRECTION('',(0.,0.,1.));
#14 = DIRECTION('',(1.,0.,-0.));
#15 = SHELL_BASED_SURFACE_MODEL('',(#16));
#16 = OPEN_SHELL('',(#17));
#17 = ADVANCED_FACE('',(#18),#51,.T.);
#18 = FACE_BOUND('',#19,.T.);
#19 = EDGE_LOOP('',(#20,#81,#97,#151));
#20 = ORIENTED_EDGE('',*,*,#21,.T.);
#21 = EDGE_CURVE('',#22,#24,#26,.T.);
#22 = VERTEX_POINT('',#23);
#23 = CARTESIAN_POINT('',(0.,-2.652486656001E-02,0.));
#24 = VERTEX_POINT('',#25);
#25 = CARTESIAN_POINT('',(4.2,2.114879444506E-03,0.));
#26 = SURFACE_CURVE('',#27,(#50),.PCURVE_S1.);
#27 = B_SPLINE_CURVE_WITH_KNOTS('',1,(#28,#29,#30,#31,#32,#33,#34,#35,
    #36,#37,#38,#39,#40,#41,#42,#43,#44,#45,#46,#47,#48,#49),
  .UNSPECIFIED.,.F.,.F.,(2,1,1,1,1,1,1,1,1,1,1,1,1,1,1,1,1,1,1,1,1,2),(
    0.,0.110118239111,0.139373703022,0.15024730458,0.176721860351,
    0.259425393333,0.268754472006,0.352932318013,0.412755034871,
    0.499810808105,0.522273668936,0.562397077459,0.566520268715,
    0.585259292608,0.774492562683,0.806960187929,0.816358934272,
    0.829850892028,0.919446317157,0.958175855541,0.969606456427,1.),
  .UNSPECIFIED.);
#28 = CARTESIAN_POINT('',(0.,-2.652486656001E-02,0.));
#29 = CARTESIAN_POINT('',(0.48378142392,5.293817552011E-02,0.));
#30 = CARTESIAN_POINT('',(0.596836488577,-1.174272398474E-02,0.));
#31 = CARTESIAN_POINT('',(0.637567278931,-3.790814585557E-02,0.));
#32 = CARTESIAN_POINT('',(0.713909789022,5.189672226983E-02,0.));
#33 = CARTESIAN_POINT('',(1.078231398448,-1.469156532795E-03,0.));
#34 = CARTESIAN_POINT('',(1.106487120299,2.897313862215E-02,0.));
#35 = CARTESIAN_POINT('',(1.478105760696,-1.955093418443E-02,0.));
#36 = CARTESIAN_POINT('',(1.736314626437,4.575871595054E-02,0.));
#37 = CARTESIAN_POINT('',(2.111253164143,-5.244617168046E-02,0.));
#38 = CARTESIAN_POINT('',(2.211132380667,-4.736742980577E-02,0.));
#39 = CARTESIAN_POINT('',(2.36822209458,3.768306961491E-02,0.));
#40 = CARTESIAN_POINT('',(2.376318921371,2.120809387619E-02,0.));
#41 = CARTESIAN_POINT('',(2.45348102657,-1.051619695837E-02,0.));
#42 = CARTESIAN_POINT('',(3.295832487576,-2.616748039611E-02,0.));
#43 = CARTESIAN_POINT('',(3.436554881034,6.881278180769E-03,0.));
#44 = CARTESIAN_POINT('',(3.460431916413,4.124504136468E-02,0.));
#45 = CARTESIAN_POINT('',(3.520173530287,4.750182074366E-02,0.));
#46 = CARTESIAN_POINT('',(3.90431568243,-5.997184042972E-02,0.));
#47 = CARTESIAN_POINT('',(4.063890709189,5.357745426782E-03,0.));
#48 = CARTESIAN_POINT('',(4.07304063109,-4.470380989782E-02,0.));
#49 = CARTESIAN_POINT('',(4.2,2.114879444506E-03,0.));
#50 = PCURVE('',#51,#56);
#51 = PLANE('',#52);
#52 = AXIS2_PLACEMENT_3D('',#53,#54,#55);
#53 = CARTESIAN_POINT('',(2.097713962901,0.1,0.));
#54 = DIRECTION('',(0.,0.,1.));
#55 = DIRECTION('',(1.,0.,-0.));
#56 = DEFINITIONAL_REPRESENTATION('',(#57),#80);
#57 = B_SPLINE_CURVE_WITH_KNOTS('',1,(#58,#59,#60,#61,#62,#63,#64,#65,
    #66,#67,#68,#69,#70,#71,#72,#73,#74,#75,#76,#77,#78,#79),
  .UNSPECIFIED.,.F.,.F.,(2,1,1,1,1,1,1,1,1,1,1,1,1,1,1,1,1,1,1,1,1,2),(
    0.,0.110118239111,0.139373703022,0.15024730458,0.176721860351,
    0.259425393333,0.268754472006,0.352932318013,0.412755034871,
    0.499810808105,0.522273668936,0.562397077459,0.566520268715,
    0.585259292608,0.774492562683,0.806960187929,0.816358934272,
    0.829850892028,0.919446317157,0.958175855541,0.969606456427,1.),
  .UNSPECIFIED.);
#58 = CARTESIAN_POINT('',(-2.097713962901,-0.12652486656));
#59 = CARTESIAN_POINT('',(-1.613932538981,-4.706182447989E-02));
#60 = CARTESIAN_POINT('',(-1.500877474324,-0.111742723985));
#61 = CARTESIAN_POINT('',(-1.46014668397,-0.137908145856));
#62 = CARTESIAN_POINT('',(-1.383804173878,-4.810327773017E-02));
#63 = CARTESIAN_POINT('',(-1.019482564453,-0.101469156533));
#64 = CARTESIAN_POINT('',(-0.991226842602,-7.102686137785E-02));
#65 = CARTESIAN_POINT('',(-0.619608202204,-0.119550934184));
#66 = CARTESIAN_POINT('',(-0.361399336463,-5.424128404946E-02));
#67 = CARTESIAN_POINT('',(1.353920124288E-02,-0.15244617168));
#68 = CARTESIAN_POINT('',(0.113418417766,-0.147367429806));
#69 = CARTESIAN_POINT('',(0.270508131679,-6.231693038509E-02));
#70 = CARTESIAN_POINT('',(0.278604958471,-7.879190612381E-02));
#71 = CARTESIAN_POINT('',(0.355767063669,-0.110516196958));
#72 = CARTESIAN_POINT('',(1.198118524675,-0.126167480396));
#73 = CARTESIAN_POINT('',(1.338840918134,-9.311872181923E-02));
#74 = CARTESIAN_POINT('',(1.362717953513,-5.875495863532E-02));
#75 = CARTESIAN_POINT('',(1.422459567387,-5.249817925634E-02));
#76 = CARTESIAN_POINT('',(1.80660171953,-0.15997184043));
#77 = CARTESIAN_POINT('',(1.966176746289,-9.464225457322E-02));
#78 = CARTESIAN_POINT('',(1.97532666819,-0.144703809898));
#79 = CARTESIAN_POINT('',(2.102286037099,-9.788512055549E-02));
#80 = ( GEOMETRIC_REPRESENTATION_CONTEXT(2) 
PARAMETRIC_REPRESENTATION_CONTEXT() REPRESENTATION_CONTEXT('2D SPACE',''
  ) );
#81 = ORIENTED_EDGE('',*,*,#82,.T.);
#82 = EDGE_CURVE('',#24,#83,#85,.T.);
#83 = VERTEX_POINT('',#84);
#84 = CARTESIAN_POINT('',(4.2,0.197885120555,0.));
#85 = SURFACE_CURVE('',#86,(#90),.PCURVE_S1.);
#86 = LINE('',#87,#88);
#87 = CARTESIAN_POINT('',(4.2,2.114879444506E-03,0.));
#88 = VECTOR('',#89,1.);
#89 = DIRECTION('',(0.,1.,0.));
#90 = PCURVE('',#51,#91);
#91 = DEFINITIONAL_REPRESENTATION('',(#92),#96);
#92 = LINE('',#93,#94);
#93 = CARTESIAN_POINT('',(2.102286037099,-9.788512055549E-02));
#94 = VECTOR('',#95,1.);
#95 = DIRECTION('',(0.,1.));
#96 = ( GEOMETRIC_REPRESENTATION_CONTEXT(2) 
PARAMETRIC_REPRESENTATION_CONTEXT() REPRESENTATION_CONTEXT('2D SPACE',''
  ) );
#97 = ORIENTED_EDGE('',*,*,#98,.T.);
#98 = EDGE_CURVE('',#83,#99,#101,.T.);
#99 = VERTEX_POINT('',#100);
#100 = CARTESIAN_POINT('',(0.,0.22652486656,0.));
#101 = SURFACE_CURVE('',#102,(#125),.PCURVE_S1.);
#102 = B_SPLINE_CURVE_WITH_KNOTS('',1,(#103,#104,#105,#106,#107,#108,
    #109,#110,#111,#112,#113,#114,#115,#116,#117,#118,#119,#120,#121,
    #122,#123,#124),.UNSPECIFIED.,.F.,.F.,(2,1,1,1,1,1,1,1,1,1,1,1,1,1,1
    ,1,1,1,1,1,1,2),(0.,3.039354357302E-02,4.18241444592E-02,
    8.055368284327E-02,0.170149107972,0.183641065728,0.193039812071,
    0.225507437317,0.414740707392,0.433479731285,0.437602922541,
    0.477726331064,0.500189191895,0.587244965129,0.647067681987,
    0.731245527994,0.740574606667,0.823278139649,0.84975269542,
    0.860626296978,0.889881760889,1.),.UNSPECIFIED.);
#103 = CARTESIAN_POINT('',(4.2,0.197885120555,0.));
#104 = CARTESIAN_POINT('',(4.07304063109,0.244703809898,0.));
#105 = CARTESIAN_POINT('',(4.063890709189,0.194642254573,0.));
#106 = CARTESIAN_POINT('',(3.90431568243,0.25997184043,0.));
#107 = CARTESIAN_POINT('',(3.520173530287,0.152498179256,0.));
#108 = CARTESIAN_POINT('',(3.460431916413,0.158754958635,0.));
#109 = CARTESIAN_POINT('',(3.436554881034,0.193118721819,0.));
#110 = CARTESIAN_POINT('',(3.295832487576,0.226167480396,0.));
#111 = CARTESIAN_POINT('',(2.45348102657,0.210516196958,0.));
#112 = CARTESIAN_POINT('',(2.376318921371,0.178791906124,0.));
#113 = CARTESIAN_POINT('',(2.36822209458,0.162316930385,0.));
#114 = CARTESIAN_POINT('',(2.211132380667,0.247367429806,0.));
#115 = CARTESIAN_POINT('',(2.111253164143,0.25244617168,0.));
#116 = CARTESIAN_POINT('',(1.736314626437,0.154241284049,0.));
#117 = CARTESIAN_POINT('',(1.478105760696,0.219550934184,0.));
#118 = CARTESIAN_POINT('',(1.106487120299,0.171026861378,0.));
#119 = CARTESIAN_POINT('',(1.078231398448,0.201469156533,0.));
#120 = CARTESIAN_POINT('',(0.713909789022,0.14810327773,0.));
#121 = CARTESIAN_POINT('',(0.637567278931,0.237908145856,0.));
#122 = CARTESIAN_POINT('',(0.596836488577,0.211742723985,0.));
#123 = CARTESIAN_POINT('',(0.48378142392,0.14706182448,0.));
#124 = CARTESIAN_POINT('',(0.,0.22652486656,0.));
#125 = PCURVE('',#51,#126);
#126 = DEFINITIONAL_REPRESENTATION('',(#127),#150);
#127 = B_SPLINE_CURVE_WITH_KNOTS('',1,(#128,#129,#130,#131,#132,#133,
    #134,#135,#136,#137,#138,#139,#140,#141,#142,#143,#144,#145,#146,
    #147,#148,#149),.UNSPECIFIED.,.F.,.F.,(2,1,1,1,1,1,1,1,1,1,1,1,1,1,1
    ,1,1,1,1,1,1,2),(0.,3.039354357302E-02,4.18241444592E-02,
    8.055368284327E-02,0.170149107972,0.183641065728,0.193039812071,
    0.225507437317,0.414740707392,0.433479731285,0.437602922541,
    0.477726331064,0.500189191895,0.587244965129,0.647067681987,
    0.731245527994,0.740574606667,0.823278139649,0.84975269542,
    0.860626296978,0.889881760889,1.),.UNSPECIFIED.);
#128 = CARTESIAN_POINT('',(2.102286037099,9.788512055549E-02));
#129 = CARTESIAN_POINT('',(1.97532666819,0.144703809898));
#130 = CARTESIAN_POINT('',(1.966176746289,9.464225457322E-02));
#131 = CARTESIAN_POINT('',(1.80660171953,0.15997184043));
#132 = CARTESIAN_POINT('',(1.422459567387,5.249817925634E-02));
#133 = CARTESIAN_POINT('',(1.362717953513,5.875495863532E-02));
#134 = CARTESIAN_POINT('',(1.338840918134,9.311872181923E-02));
#135 = CARTESIAN_POINT('',(1.198118524675,0.126167480396));
#136 = CARTESIAN_POINT('',(0.355767063669,0.110516196958));
#137 = CARTESIAN_POINT('',(0.278604958471,7.879190612381E-02));
#138 = CARTESIAN_POINT('',(0.270508131679,6.231693038509E-02));
#139 = CARTESIAN_POINT('',(0.113418417766,0.147367429806));
#140 = CARTESIAN_POINT('',(1.353920124288E-02,0.15244617168));
#141 = CARTESIAN_POINT('',(-0.361399336463,5.424128404946E-02));
#142 = CARTESIAN_POINT('',(-0.619608202204,0.119550934184));
#143 = CARTESIAN_POINT('',(-0.991226842602,7.102686137785E-02));
#144 = CARTESIAN_POINT('',(-1.019482564453,0.101469156533));
#145 = CARTESIAN_POINT('',(-1.383804173878,4.810327773017E-02));
#146 = CARTESIAN_POINT('',(-1.46014668397,0.137908145856));
#147 = CARTESIAN_POINT('',(-1.500877474324,0.111742723985));
#148 = CARTESIAN_POINT('',(-1.613932538981,4.706182447989E-02));
#149 = CARTESIAN_POINT('',(-2.097713962901,0.12652486656));
#150 = ( GEOMETRIC_REPRESENTATION_CONTEXT(2) 
PARAMETRIC_REPRESENTATION_CONTEXT() REPRESENTATION_CONTEXT('2D SPACE',''
  ) );
#151 = ORIENTED_EDGE('',*,*,#152,.T.);
#152 = EDGE_CURVE('',#99,#22,#153,.T.);
#153 = SURFACE_CURVE('',#154,(#158),.PCURVE_S1.);
#154 = LINE('',#155,#156);
#155 = CARTESIAN_POINT('',(0.,0.22652486656,0.));
#156 = VECTOR('',#157,1.);
#157 = DIRECTION('',(0.,-1.,0.));
#158 = PCURVE('',#51,#159);
#159 = DEFINITIONAL_REPRESENTATION('',(#160),#164);
#160 = LINE('',#161,#162);
#161 = CARTESIAN_POINT('',(-2.097713962901,0.12652486656));
#162 = VECTOR('',#163,1.);
#163 = DIRECTION('',(0.,-1.));
#164 = ( GEOMETRIC_REPRESENTATION_CONTEXT(2) 
PARAMETRIC_REPRESENTATION_CONTEXT() REPRESENTATION_CONTEXT('2D SPACE',''
  ) );
#165 = ( GEOMETRIC_REPRESENTATION_CONTEXT(3) 
GLOBAL_UNCERTAINTY_ASSIGNED_CONTEXT((#169)) GLOBAL_UNIT_ASSIGNED_CONTEXT
((#166,#167,#168)) REPRESENTATION_CONTEXT('Context #1',
  '3D Context with UNIT and UNCERTAINTY') );
#166 = ( LENGTH_UNIT() NAMED_UNIT(*) SI_UNIT(.MILLI.,.METRE.) );
#167 = ( NAMED_UNIT(*) PLANE_ANGLE_UNIT() SI_UNIT($,.RADIAN.) );
#168 = ( NAMED_UNIT(*) SI_UNIT($,.STERADIAN.) SOLID_ANGLE_UNIT() );
#169 = UNCERTAINTY_MEASURE_WITH_UNIT(LENGTH_MEASURE(1.E-07),#166,
  'distance_accuracy_value','confusion accuracy');
#170 = PRODUCT_RELATED_PRODUCT_CATEGORY('part',$,(#7));
ENDSEC;
END-ISO-10303-21;
