ISO-10303-21;
HEADER;
FILE_DESCRIPTION(('Open CASCADE Model'),'2;1');
FILE_NAME('Open CASCADE Shape Model','2026-05-29T14:30:30',('Author'),(
    'Open CASCADE'),'Open CASCADE STEP processor 7.9','Open CASCADE 7.9'
  ,'Unknown');
FILE_SCHEMA(('AUTOMOTIVE_DESIGN { 1 0 10303 214 1 1 1 1 }'));
ENDSEC;
DATA;
#1 = APPLICATION_PROTOCOL_DEFINITION('international standard',
  'automotive_design',2000,#2);
#2 = APPLICATION_CONTEXT(
  'core data for automotive mechanical design processes');
#3 = SHAPE_DEFINITION_REPRESENTATION(#4,#10);
#4 = PRODUCT_DEFINITION_SHAPE('','',#5);
#5 = PRODUCT_DEFINITION('design','',#6,#9);
#6 = PRODUCT_DEFINITION_FORMATION('','',#7);
#7 = PRODUCT('Open CASCADE STEP translator 7.9 4',
  'Open CASCADE STEP translator 7.9 4','',(#8));
#8 = PRODUCT_CONTEXT('',#2,'mechanical');
#9 = PRODUCT_DEFINITION_CONTEXT('part definition',#2,'design');
#10 = MANIFOLD_SURFACE_SHAPE_REPRESENTATION('',(#11,#15),#121);
#11 = AXIS2_PLACEMENT_3D('',#12,#13,#14);
#12 = CARTESIAN_POINT('',(0.,0.,0.));
#13 = DIRECTION('',(0.,0.,1.));
#14 = DIRECTION('',(1.,0.,-0.));
#15 = SHELL_BASED_SURFACE_MODEL('',(#16));
#16 = OPEN_SHELL('',(#17));
#17 = ADVANCED_FACE('',(#18),#40,.T.);
#18 = FACE_BOUND('',#19,.T.);
#19 = EDGE_LOOP('',(#20,#59,#75,#107));
#20 = ORIENTED_EDGE('',*,*,#21,.T.);
#21 = EDGE_CURVE('',#22,#24,#26,.T.);
#22 = VERTEX_POINT('',#23);
#23 = CARTESIAN_POINT('',(0.,23.945446272119,0.));
#24 = VERTEX_POINT('',#25);
#25 = CARTESIAN_POINT('',(1.5E+03,29.972437208307,0.));
#26 = SURFACE_CURVE('',#27,(#39),.PCURVE_S1.);
#27 = B_SPLINE_CURVE_WITH_KNOTS('',1,(#28,#29,#30,#31,#32,#33,#34,#35,
    #36,#37,#38),.UNSPECIFIED.,.F.,.F.,(2,1,1,1,1,1,1,1,1,1,2),(0.,
    0.282409396303,0.406898562638,0.507857573215,0.58229328658,
    0.631590641859,0.657152882218,0.724437918971,0.777011259407,
    0.874200208772,1.),.UNSPECIFIED.);
#28 = CARTESIAN_POINT('',(0.,23.945446272119,0.));
#29 = CARTESIAN_POINT('',(431.86231720978,39.752753247984,0.));
#30 = CARTESIAN_POINT('',(621.29848483992,19.67544971802,0.));
#31 = CARTESIAN_POINT('',(775.7851493457,18.576561800998,0.));
#32 = CARTESIAN_POINT('',(884.7586259864,-14.57248632542,0.));
#33 = CARTESIAN_POINT('',(959.60201646338,-5.132893710715,0.));
#34 = CARTESIAN_POINT('',(992.96634856237,-25.55083881957,0.));
#35 = CARTESIAN_POINT('',(1.095363918781E+03,-14.78821862946,0.));
#36 = CARTESIAN_POINT('',(1.172391406396E+03,8.425182470394,0.));
#37 = CARTESIAN_POINT('',(1.316516873148E+03,-28.26183461994,0.));
#38 = CARTESIAN_POINT('',(1.5E+03,29.972437208307,0.));
#39 = PCURVE('',#40,#45);
#40 = PLANE('',#41);
#41 = AXIS2_PLACEMENT_3D('',#42,#43,#44);
#42 = CARTESIAN_POINT('',(754.04393187301,75.,0.));
#43 = DIRECTION('',(0.,0.,1.));
#44 = DIRECTION('',(1.,0.,-0.));
#45 = DEFINITIONAL_REPRESENTATION('',(#46),#58);
#46 = B_SPLINE_CURVE_WITH_KNOTS('',1,(#47,#48,#49,#50,#51,#52,#53,#54,
    #55,#56,#57),.UNSPECIFIED.,.F.,.F.,(2,1,1,1,1,1,1,1,1,1,2),(0.,
    0.282409396303,0.406898562638,0.507857573215,0.58229328658,
    0.631590641859,0.657152882218,0.724437918971,0.777011259407,
    0.874200208772,1.),.UNSPECIFIED.);
#47 = CARTESIAN_POINT('',(-754.043931873,-51.05455372788));
#48 = CARTESIAN_POINT('',(-322.1816146632,-35.24724675201));
#49 = CARTESIAN_POINT('',(-132.745447033,-55.32455028198));
#50 = CARTESIAN_POINT('',(21.741217472691,-56.423438199));
#51 = CARTESIAN_POINT('',(130.71469411339,-89.57248632542));
#52 = CARTESIAN_POINT('',(205.55808459037,-80.13289371071));
#53 = CARTESIAN_POINT('',(238.92241668935,-100.5508388195));
#54 = CARTESIAN_POINT('',(341.3199869084,-89.78821862946));
#55 = CARTESIAN_POINT('',(418.34747452343,-66.5748175296));
#56 = CARTESIAN_POINT('',(562.47294127541,-103.2618346199));
#57 = CARTESIAN_POINT('',(745.95606812698,-45.02756279169));
#58 = ( GEOMETRIC_REPRESENTATION_CONTEXT(2) 
PARAMETRIC_REPRESENTATION_CONTEXT() REPRESENTATION_CONTEXT('2D SPACE',''
  ) );
#59 = ORIENTED_EDGE('',*,*,#60,.T.);
#60 = EDGE_CURVE('',#24,#61,#63,.T.);
#61 = VERTEX_POINT('',#62);
#62 = CARTESIAN_POINT('',(1.5E+03,120.02756279169,0.));
#63 = SURFACE_CURVE('',#64,(#68),.PCURVE_S1.);
#64 = LINE('',#65,#66);
#65 = CARTESIAN_POINT('',(1.5E+03,29.972437208307,0.));
#66 = VECTOR('',#67,1.);
#67 = DIRECTION('',(0.,1.,0.));
#68 = PCURVE('',#40,#69);
#69 = DEFINITIONAL_REPRESENTATION('',(#70),#74);
#70 = LINE('',#71,#72);
#71 = CARTESIAN_POINT('',(745.95606812698,-45.02756279169));
#72 = VECTOR('',#73,1.);
#73 = DIRECTION('',(0.,1.));
#74 = ( GEOMETRIC_REPRESENTATION_CONTEXT(2) 
PARAMETRIC_REPRESENTATION_CONTEXT() REPRESENTATION_CONTEXT('2D SPACE',''
  ) );
#75 = ORIENTED_EDGE('',*,*,#76,.T.);
#76 = EDGE_CURVE('',#61,#77,#79,.T.);
#77 = VERTEX_POINT('',#78);
#78 = CARTESIAN_POINT('',(0.,126.05455372788,0.));
#79 = SURFACE_CURVE('',#80,(#92),.PCURVE_S1.);
#80 = B_SPLINE_CURVE_WITH_KNOTS('',1,(#81,#82,#83,#84,#85,#86,#87,#88,
    #89,#90,#91),.UNSPECIFIED.,.F.,.F.,(2,1,1,1,1,1,1,1,1,1,2),(0.,
    0.125799791228,0.222988740593,0.275562081029,0.342847117782,
    0.368409358141,0.41770671342,0.492142426785,0.593101437362,
    0.717590603697,1.),.UNSPECIFIED.);
#81 = CARTESIAN_POINT('',(1.5E+03,120.02756279169,0.));
#82 = CARTESIAN_POINT('',(1.316516873148E+03,178.26183461994,0.));
#83 = CARTESIAN_POINT('',(1.172391406396E+03,141.5748175296,0.));
#84 = CARTESIAN_POINT('',(1.095363918781E+03,164.78821862946,0.));
#85 = CARTESIAN_POINT('',(992.96634856237,175.55083881957,0.));
#86 = CARTESIAN_POINT('',(959.60201646338,155.13289371071,0.));
#87 = CARTESIAN_POINT('',(884.7586259864,164.57248632542,0.));
#88 = CARTESIAN_POINT('',(775.7851493457,131.423438199,0.));
#89 = CARTESIAN_POINT('',(621.29848483992,130.32455028198,0.));
#90 = CARTESIAN_POINT('',(431.86231720978,110.24724675201,0.));
#91 = CARTESIAN_POINT('',(0.,126.05455372788,0.));
#92 = PCURVE('',#40,#93);
#93 = DEFINITIONAL_REPRESENTATION('',(#94),#106);
#94 = B_SPLINE_CURVE_WITH_KNOTS('',1,(#95,#96,#97,#98,#99,#100,#101,#102
    ,#103,#104,#105),.UNSPECIFIED.,.F.,.F.,(2,1,1,1,1,1,1,1,1,1,2),(0.,
    0.125799791228,0.222988740593,0.275562081029,0.342847117782,
    0.368409358141,0.41770671342,0.492142426785,0.593101437362,
    0.717590603697,1.),.UNSPECIFIED.);
#95 = CARTESIAN_POINT('',(745.95606812698,45.027562791693));
#96 = CARTESIAN_POINT('',(562.47294127541,103.26183461994));
#97 = CARTESIAN_POINT('',(418.34747452343,66.574817529606));
#98 = CARTESIAN_POINT('',(341.3199869084,89.788218629465));
#99 = CARTESIAN_POINT('',(238.92241668935,100.55083881957));
#100 = CARTESIAN_POINT('',(205.55808459037,80.132893710715));
#101 = CARTESIAN_POINT('',(130.71469411339,89.572486325421));
#102 = CARTESIAN_POINT('',(21.741217472691,56.423438199002));
#103 = CARTESIAN_POINT('',(-132.745447033,55.32455028198));
#104 = CARTESIAN_POINT('',(-322.1816146632,35.247246752016));
#105 = CARTESIAN_POINT('',(-754.043931873,51.054553727881));
#106 = ( GEOMETRIC_REPRESENTATION_CONTEXT(2) 
PARAMETRIC_REPRESENTATION_CONTEXT() REPRESENTATION_CONTEXT('2D SPACE',''
  ) );
#107 = ORIENTED_EDGE('',*,*,#108,.T.);
#108 = EDGE_CURVE('',#77,#22,#109,.T.);
#109 = SURFACE_CURVE('',#110,(#114),.PCURVE_S1.);
#110 = LINE('',#111,#112);
#111 = CARTESIAN_POINT('',(0.,126.05455372788,0.));
#112 = VECTOR('',#113,1.);
#113 = DIRECTION('',(0.,-1.,0.));
#114 = PCURVE('',#40,#115);
#115 = DEFINITIONAL_REPRESENTATION('',(#116),#120);
#116 = LINE('',#117,#118);
#117 = CARTESIAN_POINT('',(-754.043931873,51.054553727881));
#118 = VECTOR('',#119,1.);
#119 = DIRECTION('',(0.,-1.));
#120 = ( GEOMETRIC_REPRESENTATION_CONTEXT(2) 
PARAMETRIC_REPRESENTATION_CONTEXT() REPRESENTATION_CONTEXT('2D SPACE',''
  ) );
#121 = ( GEOMETRIC_REPRESENTATION_CONTEXT(3) 
GLOBAL_UNCERTAINTY_ASSIGNED_CONTEXT((#125)) GLOBAL_UNIT_ASSIGNED_CONTEXT
((#122,#123,#124)) REPRESENTATION_CONTEXT('Context #1',
  '3D Context with UNIT and UNCERTAINTY') );
#122 = ( LENGTH_UNIT() NAMED_UNIT(*) SI_UNIT(.MILLI.,.METRE.) );
#123 = ( NAMED_UNIT(*) PLANE_ANGLE_UNIT() SI_UNIT($,.RADIAN.) );
#124 = ( NAMED_UNIT(*) SI_UNIT($,.STERADIAN.) SOLID_ANGLE_UNIT() );
#125 = UNCERTAINTY_MEASURE_WITH_UNIT(LENGTH_MEASURE(1.E-07),#122,
  'distance_accuracy_value','confusion accuracy');
#126 = PRODUCT_RELATED_PRODUCT_CATEGORY('part',$,(#7));
ENDSEC;
END-ISO-10303-21;
