ISO-10303-21;
HEADER;
FILE_DESCRIPTION(('Open CASCADE Model'),'2;1');
FILE_NAME('Open CASCADE Shape Model','2026-05-29T14:30:30',('Author'),(
    'Open CASCADE'),'Open CASCADE STEP processor 7.9','Open CASCADE 7.9'
  ,'Unknown');
FILE_SCHEMA(('AUTOMOTIVE_DESIGN { 1 0 10303 214 1 1 1 1 }'));
ENDSEC;
DATA;
#1 = APPLICATION_PROTOCOL_DEFINITION('international standard',
  'automotive_design',2000,#2);
#2 = APPLICATION_CONTEXT(
  'core data for automotive mechanical design processes');
#3 = SHAPE_DEFINITION_REPRESENTATION(#4,#10);
#4 = PRODUCT_DEFINITION_SHAPE('','',#5);
#5 = PRODUCT_DEFINITION('design','',#6,#9);
#6 = PRODUCT_DEFINITION_FORMATION('','',#7);
#7 = PRODUCT('Open CASCADE STEP translator 7.9 15',
  'Open CASCADE STEP translator 7.9 15','',(#8));
#8 = PRODUCT_CONTEXT('',#2,'mechanical');
#9 = PRODUCT_DEFINITION_CONTEXT('part definition',#2,'design');
#10 = MANIFOLD_SURFACE_SHAPE_REPRESENTATION('',(#11,#15),#121);
#11 = AXIS2_PLACEMENT_3D('',#12,#13,#14);
#12 = CARTESIAN_POINT('',(0.,0.,0.));
#13 = DIRECTION('',(0.,0.,1.));
#14 = DIRECTION('',(1.,0.,-0.));
#15 = SHELL_BASED_SURFACE_MODEL('',(#16));
#16 = OPEN_SHELL('',(#17));
#17 = ADVANCED_FACE('',(#18),#40,.T.);
#18 = FACE_BOUND('',#19,.T.);
#19 = EDGE_LOOP('',(#20,#59,#75,#107));
#20 = ORIENTED_EDGE('',*,*,#21,.T.);
#21 = EDGE_CURVE('',#22,#24,#26,.T.);
#22 = VERTEX_POINT('',#23);
#23 = CARTESIAN_POINT('',(0.,10.341945350968,0.));
#24 = VERTEX_POINT('',#25);
#25 = CARTESIAN_POINT('',(1.5E+03,10.848232824576,0.));
#26 = SURFACE_CURVE('',#27,(#39),.PCURVE_S1.);
#27 = B_SPLINE_CURVE_WITH_KNOTS('',1,(#28,#29,#30,#31,#32,#33,#34,#35,
    #36,#37,#38),.UNSPECIFIED.,.F.,.F.,(2,1,1,1,1,1,1,1,1,1,2),(0.,
    0.159484093135,0.376455146283,0.481539123514,0.609214736341,
    0.696590953989,0.730154410891,0.822037469559,0.852173138906,
    0.932887674698,1.),.UNSPECIFIED.);
#28 = CARTESIAN_POINT('',(0.,10.341945350968,0.));
#29 = CARTESIAN_POINT('',(239.6085674941,-12.56069441134,0.));
#30 = CARTESIAN_POINT('',(565.34493986411,21.018301424924,0.));
#31 = CARTESIAN_POINT('',(723.53202078345,32.420843014144,0.));
#32 = CARTESIAN_POINT('',(913.80798068701,1.991045337863,0.));
#33 = CARTESIAN_POINT('',(1.045565854842E+03,7.47995682646,0.));
#34 = CARTESIAN_POINT('',(1.093428078429E+03,24.068705352401,0.));
#35 = CARTESIAN_POINT('',(1.231569334113E+03,11.923937089638,0.));
#36 = CARTESIAN_POINT('',(1.277051343409E+03,12.024679515638,0.));
#37 = CARTESIAN_POINT('',(1.398819075705E+03,15.525399202871,0.));
#38 = CARTESIAN_POINT('',(1.5E+03,10.848232824576,0.));
#39 = PCURVE('',#40,#45);
#40 = PLANE('',#41);
#41 = AXIS2_PLACEMENT_3D('',#42,#43,#44);
#42 = CARTESIAN_POINT('',(749.81598256825,75.,0.));
#43 = DIRECTION('',(0.,0.,1.));
#44 = DIRECTION('',(1.,0.,-0.));
#45 = DEFINITIONAL_REPRESENTATION('',(#46),#58);
#46 = B_SPLINE_CURVE_WITH_KNOTS('',1,(#47,#48,#49,#50,#51,#52,#53,#54,
    #55,#56,#57),.UNSPECIFIED.,.F.,.F.,(2,1,1,1,1,1,1,1,1,1,2),(0.,
    0.159484093135,0.376455146283,0.481539123514,0.609214736341,
    0.696590953989,0.730154410891,0.822037469559,0.852173138906,
    0.932887674698,1.),.UNSPECIFIED.);
#47 = CARTESIAN_POINT('',(-749.8159825682,-64.65805464903));
#48 = CARTESIAN_POINT('',(-510.2074150741,-87.56069441134));
#49 = CARTESIAN_POINT('',(-184.4710427041,-53.98169857507));
#50 = CARTESIAN_POINT('',(-26.28396178479,-42.57915698585));
#51 = CARTESIAN_POINT('',(163.99199811875,-73.00895466213));
#52 = CARTESIAN_POINT('',(295.74987227335,-67.52004317354));
#53 = CARTESIAN_POINT('',(343.61209586091,-50.93129464759));
#54 = CARTESIAN_POINT('',(481.75335154517,-63.07606291036));
#55 = CARTESIAN_POINT('',(527.23536084047,-62.97532048436));
#56 = CARTESIAN_POINT('',(649.00309313642,-59.47460079712));
#57 = CARTESIAN_POINT('',(750.18401743174,-64.15176717542));
#58 = ( GEOMETRIC_REPRESENTATION_CONTEXT(2) 
PARAMETRIC_REPRESENTATION_CONTEXT() REPRESENTATION_CONTEXT('2D SPACE',''
  ) );
#59 = ORIENTED_EDGE('',*,*,#60,.T.);
#60 = EDGE_CURVE('',#24,#61,#63,.T.);
#61 = VERTEX_POINT('',#62);
#62 = CARTESIAN_POINT('',(1.5E+03,139.15176717542,0.));
#63 = SURFACE_CURVE('',#64,(#68),.PCURVE_S1.);
#64 = LINE('',#65,#66);
#65 = CARTESIAN_POINT('',(1.5E+03,10.848232824576,0.));
#66 = VECTOR('',#67,1.);
#67 = DIRECTION('',(0.,1.,0.));
#68 = PCURVE('',#40,#69);
#69 = DEFINITIONAL_REPRESENTATION('',(#70),#74);
#70 = LINE('',#71,#72);
#71 = CARTESIAN_POINT('',(750.18401743174,-64.15176717542));
#72 = VECTOR('',#73,1.);
#73 = DIRECTION('',(0.,1.));
#74 = ( GEOMETRIC_REPRESENTATION_CONTEXT(2) 
PARAMETRIC_REPRESENTATION_CONTEXT() REPRESENTATION_CONTEXT('2D SPACE',''
  ) );
#75 = ORIENTED_EDGE('',*,*,#76,.T.);
#76 = EDGE_CURVE('',#61,#77,#79,.T.);
#77 = VERTEX_POINT('',#78);
#78 = CARTESIAN_POINT('',(0.,139.65805464903,0.));
#79 = SURFACE_CURVE('',#80,(#92),.PCURVE_S1.);
#80 = B_SPLINE_CURVE_WITH_KNOTS('',1,(#81,#82,#83,#84,#85,#86,#87,#88,
    #89,#90,#91),.UNSPECIFIED.,.F.,.F.,(2,1,1,1,1,1,1,1,1,1,2),(0.,
    6.711232530177E-02,0.147826861094,0.177962530441,0.269845589109,
    0.303409046011,0.390785263659,0.518460876486,0.623544853717,
    0.840515906865,1.),.UNSPECIFIED.);
#81 = CARTESIAN_POINT('',(1.5E+03,139.15176717542,0.));
#82 = CARTESIAN_POINT('',(1.398819075705E+03,134.47460079712,0.));
#83 = CARTESIAN_POINT('',(1.277051343409E+03,137.97532048436,0.));
#84 = CARTESIAN_POINT('',(1.231569334113E+03,138.07606291036,0.));
#85 = CARTESIAN_POINT('',(1.093428078429E+03,125.93129464759,0.));
#86 = CARTESIAN_POINT('',(1.045565854842E+03,142.52004317354,0.));
#87 = CARTESIAN_POINT('',(913.80798068701,148.00895466213,0.));
#88 = CARTESIAN_POINT('',(723.53202078345,117.57915698585,0.));
#89 = CARTESIAN_POINT('',(565.34493986411,128.98169857507,0.));
#90 = CARTESIAN_POINT('',(239.6085674941,162.56069441134,0.));
#91 = CARTESIAN_POINT('',(0.,139.65805464903,0.));
#92 = PCURVE('',#40,#93);
#93 = DEFINITIONAL_REPRESENTATION('',(#94),#106);
#94 = B_SPLINE_CURVE_WITH_KNOTS('',1,(#95,#96,#97,#98,#99,#100,#101,#102
    ,#103,#104,#105),.UNSPECIFIED.,.F.,.F.,(2,1,1,1,1,1,1,1,1,1,2),(0.,
    6.711232530177E-02,0.147826861094,0.177962530441,0.269845589109,
    0.303409046011,0.390785263659,0.518460876486,0.623544853717,
    0.840515906865,1.),.UNSPECIFIED.);
#95 = CARTESIAN_POINT('',(750.18401743174,64.151767175424));
#96 = CARTESIAN_POINT('',(649.00309313642,59.474600797129));
#97 = CARTESIAN_POINT('',(527.23536084047,62.975320484362));
#98 = CARTESIAN_POINT('',(481.75335154517,63.076062910362));
#99 = CARTESIAN_POINT('',(343.61209586091,50.931294647599));
#100 = CARTESIAN_POINT('',(295.74987227335,67.52004317354));
#101 = CARTESIAN_POINT('',(163.99199811875,73.008954662137));
#102 = CARTESIAN_POINT('',(-26.28396178479,42.579156985856));
#103 = CARTESIAN_POINT('',(-184.4710427041,53.981698575076));
#104 = CARTESIAN_POINT('',(-510.2074150741,87.56069441134));
#105 = CARTESIAN_POINT('',(-749.8159825682,64.658054649032));
#106 = ( GEOMETRIC_REPRESENTATION_CONTEXT(2) 
PARAMETRIC_REPRESENTATION_CONTEXT() REPRESENTATION_CONTEXT('2D SPACE',''
  ) );
#107 = ORIENTED_EDGE('',*,*,#108,.T.);
#108 = EDGE_CURVE('',#77,#22,#109,.T.);
#109 = SURFACE_CURVE('',#110,(#114),.PCURVE_S1.);
#110 = LINE('',#111,#112);
#111 = CARTESIAN_POINT('',(0.,139.65805464903,0.));
#112 = VECTOR('',#113,1.);
#113 = DIRECTION('',(0.,-1.,0.));
#114 = PCURVE('',#40,#115);
#115 = DEFINITIONAL_REPRESENTATION('',(#116),#120);
#116 = LINE('',#117,#118);
#117 = CARTESIAN_POINT('',(-749.8159825682,64.658054649032));
#118 = VECTOR('',#119,1.);
#119 = DIRECTION('',(0.,-1.));
#120 = ( GEOMETRIC_REPRESENTATION_CONTEXT(2) 
PARAMETRIC_REPRESENTATION_CONTEXT() REPRESENTATION_CONTEXT('2D SPACE',''
  ) );
#121 = ( GEOMETRIC_REPRESENTATION_CONTEXT(3) 
GLOBAL_UNCERTAINTY_ASSIGNED_CONTEXT((#125)) GLOBAL_UNIT_ASSIGNED_CONTEXT
((#122,#123,#124)) REPRESENTATION_CONTEXT('Context #1',
  '3D Context with UNIT and UNCERTAINTY') );
#122 = ( LENGTH_UNIT() NAMED_UNIT(*) SI_UNIT(.MILLI.,.METRE.) );
#123 = ( NAMED_UNIT(*) PLANE_ANGLE_UNIT() SI_UNIT($,.RADIAN.) );
#124 = ( NAMED_UNIT(*) SI_UNIT($,.STERADIAN.) SOLID_ANGLE_UNIT() );
#125 = UNCERTAINTY_MEASURE_WITH_UNIT(LENGTH_MEASURE(1.E-07),#122,
  'distance_accuracy_value','confusion accuracy');
#126 = PRODUCT_RELATED_PRODUCT_CATEGORY('part',$,(#7));
ENDSEC;
END-ISO-10303-21;
