ISO-10303-21;
HEADER;
FILE_DESCRIPTION(('Open CASCADE Model'),'2;1');
FILE_NAME('Open CASCADE Shape Model','2026-05-28T17:04:49',('Author'),(
    'Open CASCADE'),'Open CASCADE STEP processor 7.9','Open CASCADE 7.9'
  ,'Unknown');
FILE_SCHEMA(('AUTOMOTIVE_DESIGN { 1 0 10303 214 1 1 1 1 }'));
ENDSEC;
DATA;
#1 = APPLICATION_PROTOCOL_DEFINITION('international standard',
  'automotive_design',2000,#2);
#2 = APPLICATION_CONTEXT(
  'core data for automotive mechanical design processes');
#3 = SHAPE_DEFINITION_REPRESENTATION(#4,#10);
#4 = PRODUCT_DEFINITION_SHAPE('','',#5);
#5 = PRODUCT_DEFINITION('design','',#6,#9);
#6 = PRODUCT_DEFINITION_FORMATION('','',#7);
#7 = PRODUCT('Open CASCADE STEP translator 7.9 36',
  'Open CASCADE STEP translator 7.9 36','',(#8));
#8 = PRODUCT_CONTEXT('',#2,'mechanical');
#9 = PRODUCT_DEFINITION_CONTEXT('part definition',#2,'design');
#10 = MANIFOLD_SURFACE_SHAPE_REPRESENTATION('',(#11,#15),#129);
#11 = AXIS2_PLACEMENT_3D('',#12,#13,#14);
#12 = CARTESIAN_POINT('',(0.,0.,0.));
#13 = DIRECTION('',(0.,0.,1.));
#14 = DIRECTION('',(1.,0.,-0.));
#15 = SHELL_BASED_SURFACE_MODEL('',(#16));
#16 = OPEN_SHELL('',(#17));
#17 = ADVANCED_FACE('',(#18),#42,.T.);
#18 = FACE_BOUND('',#19,.T.);
#19 = EDGE_LOOP('',(#20,#63,#79,#115));
#20 = ORIENTED_EDGE('',*,*,#21,.T.);
#21 = EDGE_CURVE('',#22,#24,#26,.T.);
#22 = VERTEX_POINT('',#23);
#23 = CARTESIAN_POINT('',(0.,1.901540853581E-02,0.));
#24 = VERTEX_POINT('',#25);
#25 = CARTESIAN_POINT('',(2.4,2.713125976727E-02,0.));
#26 = SURFACE_CURVE('',#27,(#41),.PCURVE_S1.);
#27 = B_SPLINE_CURVE_WITH_KNOTS('',1,(#28,#29,#30,#31,#32,#33,#34,#35,
    #36,#37,#38,#39,#40),.UNSPECIFIED.,.F.,.F.,(2,1,1,1,1,1,1,1,1,1,1,1,
    2),(0.,0.115333516005,0.133037420168,0.233016560892,0.471322354609,
    0.577158605186,0.677456419057,0.719958102942,0.763720990915,
    0.820229490038,0.940898836283,0.993144286573,1.),.UNSPECIFIED.);
#28 = CARTESIAN_POINT('',(0.,1.901540853581E-02,0.));
#29 = CARTESIAN_POINT('',(0.297451330658,4.045721385088E-02,0.));
#30 = CARTESIAN_POINT('',(0.313804352103,-2.300068189719E-03,0.));
#31 = CARTESIAN_POINT('',(0.572319464918,-3.989977179805E-03,0.));
#32 = CARTESIAN_POINT('',(1.187040537539,3.865050140446E-02,0.));
#33 = CARTESIAN_POINT('',(1.455677040979,-1.35731302793E-02,0.));
#34 = CARTESIAN_POINT('',(1.704862060855,5.830503198278E-02,0.));
#35 = CARTESIAN_POINT('',(1.712607863778,-5.132020829451E-02,0.));
#36 = CARTESIAN_POINT('',(1.79306609445,2.825108666145E-02,0.));
#37 = CARTESIAN_POINT('',(1.93666613845,5.525277499318E-02,0.));
#38 = CARTESIAN_POINT('',(2.248577491514,4.701006702302E-02,0.));
#39 = CARTESIAN_POINT('',(2.382739097449,3.117012620644E-02,0.));
#40 = CARTESIAN_POINT('',(2.4,2.713125976727E-02,0.));
#41 = PCURVE('',#42,#47);
#42 = PLANE('',#43);
#43 = AXIS2_PLACEMENT_3D('',#44,#45,#46);
#44 = CARTESIAN_POINT('',(1.214798512353,1.E-01,0.));
#45 = DIRECTION('',(0.,0.,1.));
#46 = DIRECTION('',(1.,0.,-0.));
#47 = DEFINITIONAL_REPRESENTATION('',(#48),#62);
#48 = B_SPLINE_CURVE_WITH_KNOTS('',1,(#49,#50,#51,#52,#53,#54,#55,#56,
    #57,#58,#59,#60,#61),.UNSPECIFIED.,.F.,.F.,(2,1,1,1,1,1,1,1,1,1,1,1,
    2),(0.,0.115333516005,0.133037420168,0.233016560892,0.471322354609,
    0.577158605186,0.677456419057,0.719958102942,0.763720990915,
    0.820229490038,0.940898836283,0.993144286573,1.),.UNSPECIFIED.);
#49 = CARTESIAN_POINT('',(-1.214798512353,-8.098459146419E-02));
#50 = CARTESIAN_POINT('',(-0.917347181695,-5.954278614912E-02));
#51 = CARTESIAN_POINT('',(-0.90099416025,-0.10230006819));
#52 = CARTESIAN_POINT('',(-0.642479047436,-0.10398997718));
#53 = CARTESIAN_POINT('',(-2.775797481471E-02,-6.134949859554E-02));
#54 = CARTESIAN_POINT('',(0.240878528626,-0.113573130279));
#55 = CARTESIAN_POINT('',(0.490063548501,-4.169496801722E-02));
#56 = CARTESIAN_POINT('',(0.497809351424,-0.151320208295));
#57 = CARTESIAN_POINT('',(0.578267582096,-7.174891333855E-02));
#58 = CARTESIAN_POINT('',(0.721867626096,-4.474722500682E-02));
#59 = CARTESIAN_POINT('',(1.033778979161,-5.298993297698E-02));
#60 = CARTESIAN_POINT('',(1.167940585096,-6.882987379356E-02));
#61 = CARTESIAN_POINT('',(1.185201487647,-7.286874023273E-02));
#62 = ( GEOMETRIC_REPRESENTATION_CONTEXT(2) 
PARAMETRIC_REPRESENTATION_CONTEXT() REPRESENTATION_CONTEXT('2D SPACE',''
  ) );
#63 = ORIENTED_EDGE('',*,*,#64,.T.);
#64 = EDGE_CURVE('',#24,#65,#67,.T.);
#65 = VERTEX_POINT('',#66);
#66 = CARTESIAN_POINT('',(2.4,0.172868740233,0.));
#67 = SURFACE_CURVE('',#68,(#72),.PCURVE_S1.);
#68 = LINE('',#69,#70);
#69 = CARTESIAN_POINT('',(2.4,2.713125976727E-02,0.));
#70 = VECTOR('',#71,1.);
#71 = DIRECTION('',(0.,1.,0.));
#72 = PCURVE('',#42,#73);
#73 = DEFINITIONAL_REPRESENTATION('',(#74),#78);
#74 = LINE('',#75,#76);
#75 = CARTESIAN_POINT('',(1.185201487647,-7.286874023273E-02));
#76 = VECTOR('',#77,1.);
#77 = DIRECTION('',(0.,1.));
#78 = ( GEOMETRIC_REPRESENTATION_CONTEXT(2) 
PARAMETRIC_REPRESENTATION_CONTEXT() REPRESENTATION_CONTEXT('2D SPACE',''
  ) );
#79 = ORIENTED_EDGE('',*,*,#80,.T.);
#80 = EDGE_CURVE('',#65,#81,#83,.T.);
#81 = VERTEX_POINT('',#82);
#82 = CARTESIAN_POINT('',(0.,0.180984591464,0.));
#83 = SURFACE_CURVE('',#84,(#98),.PCURVE_S1.);
#84 = B_SPLINE_CURVE_WITH_KNOTS('',1,(#85,#86,#87,#88,#89,#90,#91,#92,
    #93,#94,#95,#96,#97),.UNSPECIFIED.,.F.,.F.,(2,1,1,1,1,1,1,1,1,1,1,1,
    2),(0.,6.855713426824E-03,5.910116371713E-02,0.179770509962,
    0.236279009085,0.280041897058,0.322543580943,0.422841394814,
    0.528677645391,0.766983439108,0.866962579832,0.884666483995,1.),
  .UNSPECIFIED.);
#85 = CARTESIAN_POINT('',(2.4,0.172868740233,0.));
#86 = CARTESIAN_POINT('',(2.382739097449,0.168829873794,0.));
#87 = CARTESIAN_POINT('',(2.248577491514,0.152989932977,0.));
#88 = CARTESIAN_POINT('',(1.93666613845,0.144747225007,0.));
#89 = CARTESIAN_POINT('',(1.79306609445,0.171748913339,0.));
#90 = CARTESIAN_POINT('',(1.712607863778,0.251320208295,0.));
#91 = CARTESIAN_POINT('',(1.704862060855,0.141694968017,0.));
#92 = CARTESIAN_POINT('',(1.455677040979,0.213573130279,0.));
#93 = CARTESIAN_POINT('',(1.187040537539,0.161349498596,0.));
#94 = CARTESIAN_POINT('',(0.572319464918,0.20398997718,0.));
#95 = CARTESIAN_POINT('',(0.313804352103,0.20230006819,0.));
#96 = CARTESIAN_POINT('',(0.297451330658,0.159542786149,0.));
#97 = CARTESIAN_POINT('',(0.,0.180984591464,0.));
#98 = PCURVE('',#42,#99);
#99 = DEFINITIONAL_REPRESENTATION('',(#100),#114);
#100 = B_SPLINE_CURVE_WITH_KNOTS('',1,(#101,#102,#103,#104,#105,#106,
    #107,#108,#109,#110,#111,#112,#113),.UNSPECIFIED.,.F.,.F.,(2,1,1,1,1
    ,1,1,1,1,1,1,1,2),(0.,6.855713426824E-03,5.910116371713E-02,
    0.179770509962,0.236279009085,0.280041897058,0.322543580943,
    0.422841394814,0.528677645391,0.766983439108,0.866962579832,
    0.884666483995,1.),.UNSPECIFIED.);
#101 = CARTESIAN_POINT('',(1.185201487647,7.286874023273E-02));
#102 = CARTESIAN_POINT('',(1.167940585096,6.882987379356E-02));
#103 = CARTESIAN_POINT('',(1.033778979161,5.298993297698E-02));
#104 = CARTESIAN_POINT('',(0.721867626096,4.474722500682E-02));
#105 = CARTESIAN_POINT('',(0.578267582096,7.174891333855E-02));
#106 = CARTESIAN_POINT('',(0.497809351424,0.151320208295));
#107 = CARTESIAN_POINT('',(0.490063548501,4.169496801722E-02));
#108 = CARTESIAN_POINT('',(0.240878528626,0.113573130279));
#109 = CARTESIAN_POINT('',(-2.775797481471E-02,6.134949859554E-02));
#110 = CARTESIAN_POINT('',(-0.642479047436,0.10398997718));
#111 = CARTESIAN_POINT('',(-0.90099416025,0.10230006819));
#112 = CARTESIAN_POINT('',(-0.917347181695,5.954278614912E-02));
#113 = CARTESIAN_POINT('',(-1.214798512353,8.098459146419E-02));
#114 = ( GEOMETRIC_REPRESENTATION_CONTEXT(2) 
PARAMETRIC_REPRESENTATION_CONTEXT() REPRESENTATION_CONTEXT('2D SPACE',''
  ) );
#115 = ORIENTED_EDGE('',*,*,#116,.T.);
#116 = EDGE_CURVE('',#81,#22,#117,.T.);
#117 = SURFACE_CURVE('',#118,(#122),.PCURVE_S1.);
#118 = LINE('',#119,#120);
#119 = CARTESIAN_POINT('',(0.,0.180984591464,0.));
#120 = VECTOR('',#121,1.);
#121 = DIRECTION('',(0.,-1.,0.));
#122 = PCURVE('',#42,#123);
#123 = DEFINITIONAL_REPRESENTATION('',(#124),#128);
#124 = LINE('',#125,#126);
#125 = CARTESIAN_POINT('',(-1.214798512353,8.098459146419E-02));
#126 = VECTOR('',#127,1.);
#127 = DIRECTION('',(0.,-1.));
#128 = ( GEOMETRIC_REPRESENTATION_CONTEXT(2) 
PARAMETRIC_REPRESENTATION_CONTEXT() REPRESENTATION_CONTEXT('2D SPACE',''
  ) );
#129 = ( GEOMETRIC_REPRESENTATION_CONTEXT(3) 
GLOBAL_UNCERTAINTY_ASSIGNED_CONTEXT((#133)) GLOBAL_UNIT_ASSIGNED_CONTEXT
((#130,#131,#132)) REPRESENTATION_CONTEXT('Context #1',
  '3D Context with UNIT and UNCERTAINTY') );
#130 = ( LENGTH_UNIT() NAMED_UNIT(*) SI_UNIT(.MILLI.,.METRE.) );
#131 = ( NAMED_UNIT(*) PLANE_ANGLE_UNIT() SI_UNIT($,.RADIAN.) );
#132 = ( NAMED_UNIT(*) SI_UNIT($,.STERADIAN.) SOLID_ANGLE_UNIT() );
#133 = UNCERTAINTY_MEASURE_WITH_UNIT(LENGTH_MEASURE(1.E-07),#130,
  'distance_accuracy_value','confusion accuracy');
#134 = PRODUCT_RELATED_PRODUCT_CATEGORY('part',$,(#7));
ENDSEC;
END-ISO-10303-21;
