ISO-10303-21;
HEADER;
FILE_DESCRIPTION(('Open CASCADE Model'),'2;1');
FILE_NAME('Open CASCADE Shape Model','2026-05-28T17:04:49',('Author'),(
    'Open CASCADE'),'Open CASCADE STEP processor 7.9','Open CASCADE 7.9'
  ,'Unknown');
FILE_SCHEMA(('AUTOMOTIVE_DESIGN { 1 0 10303 214 1 1 1 1 }'));
ENDSEC;
DATA;
#1 = APPLICATION_PROTOCOL_DEFINITION('international standard',
  'automotive_design',2000,#2);
#2 = APPLICATION_CONTEXT(
  'core data for automotive mechanical design processes');
#3 = SHAPE_DEFINITION_REPRESENTATION(#4,#10);
#4 = PRODUCT_DEFINITION_SHAPE('','',#5);
#5 = PRODUCT_DEFINITION('design','',#6,#9);
#6 = PRODUCT_DEFINITION_FORMATION('','',#7);
#7 = PRODUCT('Open CASCADE STEP translator 7.9 55',
  'Open CASCADE STEP translator 7.9 55','',(#8));
#8 = PRODUCT_CONTEXT('',#2,'mechanical');
#9 = PRODUCT_DEFINITION_CONTEXT('part definition',#2,'design');
#10 = MANIFOLD_SURFACE_SHAPE_REPRESENTATION('',(#11,#15),#213);
#11 = AXIS2_PLACEMENT_3D('',#12,#13,#14);
#12 = CARTESIAN_POINT('',(0.,0.,0.));
#13 = DIRECTION('',(0.,0.,1.));
#14 = DIRECTION('',(1.,0.,-0.));
#15 = SHELL_BASED_SURFACE_MODEL('',(#16));
#16 = OPEN_SHELL('',(#17));
#17 = ADVANCED_FACE('',(#18),#63,.T.);
#18 = FACE_BOUND('',#19,.T.);
#19 = EDGE_LOOP('',(#20,#105,#121,#199));
#20 = ORIENTED_EDGE('',*,*,#21,.T.);
#21 = EDGE_CURVE('',#22,#24,#26,.T.);
#22 = VERTEX_POINT('',#23);
#23 = CARTESIAN_POINT('',(0.,-2.19651310142E-03,0.));
#24 = VERTEX_POINT('',#25);
#25 = CARTESIAN_POINT('',(6.6,3.263047104523E-02,0.));
#26 = SURFACE_CURVE('',#27,(#62),.PCURVE_S1.);
#27 = B_SPLINE_CURVE_WITH_KNOTS('',1,(#28,#29,#30,#31,#32,#33,#34,#35,
    #36,#37,#38,#39,#40,#41,#42,#43,#44,#45,#46,#47,#48,#49,#50,#51,#52,
    #53,#54,#55,#56,#57,#58,#59,#60,#61),.UNSPECIFIED.,.F.,.F.,(2,1,1,1,
    1,1,1,1,1,1,1,1,1,1,1,1,1,1,1,1,1,1,1,1,1,1,1,1,1,1,1,1,1,2),(0.,
    7.899805668486E-03,1.676300426226E-02,6.32665963055E-02,
    9.705563053156E-02,0.114548157414,0.117296023774,0.14251569058,
    0.154562294378,0.200318148331,0.275044397751,0.287164962109,
    0.334178704114,0.355353709625,0.359975366689,0.418554532659,
    0.439835939981,0.481833449951,0.582272874269,0.637027602437,
    0.64199001901,0.668312814982,0.68719104031,0.701323100166,
    0.74667084328,0.758490376909,0.763110259464,0.791857400144,
    0.807987724717,0.819166689928,0.918046089983,0.926994066944,
    0.932666485136,1.),.UNSPECIFIED.);
#28 = CARTESIAN_POINT('',(0.,-2.19651310142E-03,0.));
#29 = CARTESIAN_POINT('',(2.386721558061E-02,4.800818292332E-02,0.));
#30 = CARTESIAN_POINT('',(8.575610123386E-02,4.028959352949E-02,0.));
#31 = CARTESIAN_POINT('',(0.412969364585,4.409444228703E-02,0.));
#32 = CARTESIAN_POINT('',(0.629332791007,-5.44929934884E-02,0.));
#33 = CARTESIAN_POINT('',(0.722616349625,2.581623714673E-02,0.));
#34 = CARTESIAN_POINT('',(0.740012878918,1.737548116848E-02,0.));
#35 = CARTESIAN_POINT('',(0.917433518181,2.135032724448E-02,0.));
#36 = CARTESIAN_POINT('',(0.966478752076,-4.779005342138E-02,0.));
#37 = CARTESIAN_POINT('',(1.285928730777,-7.555909360187E-03,0.));
#38 = CARTESIAN_POINT('',(1.810020532439,-5.0299187872E-02,0.));
#39 = CARTESIAN_POINT('',(1.851884895516,2.400901130065E-02,0.));
#40 = CARTESIAN_POINT('',(2.18196365733,4.621983906817E-02,0.));
#41 = CARTESIAN_POINT('',(2.321235779612,-6.746214326901E-03,0.));
#42 = CARTESIAN_POINT('',(2.341692666308,1.85355609852E-02,0.));
#43 = CARTESIAN_POINT('',(2.750247080344,-3.622882001889E-02,0.));
#44 = CARTESIAN_POINT('',(2.899710408251,-4.55308090694E-02,0.));
#45 = CARTESIAN_POINT('',(3.191176830624,3.291178691151E-03,0.));
#46 = CARTESIAN_POINT('',(3.895407610675,-5.656308289026E-02,0.));
#47 = CARTESIAN_POINT('',(4.277419939858,-6.361560761329E-03,0.));
#48 = CARTESIAN_POINT('',(4.285991272911,2.748955279364E-02,0.));
#49 = CARTESIAN_POINT('',(4.469361346978,1.322938158687E-03,0.));
#50 = CARTESIAN_POINT('',(4.590643400723,5.552276491165E-02,0.));
#51 = CARTESIAN_POINT('',(4.628387326922,-3.648013923157E-02,0.));
#52 = CARTESIAN_POINT('',(4.936150574178,4.782779389747E-02,0.));
#53 = CARTESIAN_POINT('',(5.015514224121,2.295018137964E-02,0.));
#54 = CARTESIAN_POINT('',(5.025951135611,-7.837985640593E-03,0.));
#55 = CARTESIAN_POINT('',(5.218282123563,5.484298492237E-02,0.));
#56 = CARTESIAN_POINT('',(5.331703804061,5.048197209823E-02,0.));
#57 = CARTESIAN_POINT('',(5.358343011038,-2.353396291356E-02,0.));
#58 = CARTESIAN_POINT('',(6.050089877696,5.138674883271E-02,0.));
#59 = CARTESIAN_POINT('',(6.090078032446,2.750056050315E-03,0.));
#60 = CARTESIAN_POINT('',(6.12637507754,1.935652398951E-02,0.));
#61 = CARTESIAN_POINT('',(6.6,3.263047104523E-02,0.));
#62 = PCURVE('',#63,#68);
#63 = PLANE('',#64);
#64 = AXIS2_PLACEMENT_3D('',#65,#66,#67);
#65 = CARTESIAN_POINT('',(3.279057160695,0.1,0.));
#66 = DIRECTION('',(0.,0.,1.));
#67 = DIRECTION('',(1.,0.,-0.));
#68 = DEFINITIONAL_REPRESENTATION('',(#69),#104);
#69 = B_SPLINE_CURVE_WITH_KNOTS('',1,(#70,#71,#72,#73,#74,#75,#76,#77,
    #78,#79,#80,#81,#82,#83,#84,#85,#86,#87,#88,#89,#90,#91,#92,#93,#94,
    #95,#96,#97,#98,#99,#100,#101,#102,#103),.UNSPECIFIED.,.F.,.F.,(2,1,
    1,1,1,1,1,1,1,1,1,1,1,1,1,1,1,1,1,1,1,1,1,1,1,1,1,1,1,1,1,1,1,2),(0.
    ,7.899805668486E-03,1.676300426226E-02,6.32665963055E-02,
    9.705563053156E-02,0.114548157414,0.117296023774,0.14251569058,
    0.154562294378,0.200318148331,0.275044397751,0.287164962109,
    0.334178704114,0.355353709625,0.359975366689,0.418554532659,
    0.439835939981,0.481833449951,0.582272874269,0.637027602437,
    0.64199001901,0.668312814982,0.68719104031,0.701323100166,
    0.74667084328,0.758490376909,0.763110259464,0.791857400144,
    0.807987724717,0.819166689928,0.918046089983,0.926994066944,
    0.932666485136,1.),.UNSPECIFIED.);
#70 = CARTESIAN_POINT('',(-3.279057160695,-0.102196513101));
#71 = CARTESIAN_POINT('',(-3.255189945114,-5.199181707668E-02));
#72 = CARTESIAN_POINT('',(-3.193301059461,-5.971040647051E-02));
#73 = CARTESIAN_POINT('',(-2.86608779611,-5.590555771297E-02));
#74 = CARTESIAN_POINT('',(-2.649724369688,-0.154492993488));
#75 = CARTESIAN_POINT('',(-2.556440811069,-7.418376285327E-02));
#76 = CARTESIAN_POINT('',(-2.539044281777,-8.262451883152E-02));
#77 = CARTESIAN_POINT('',(-2.361623642514,-7.864967275552E-02));
#78 = CARTESIAN_POINT('',(-2.312578408619,-0.147790053421));
#79 = CARTESIAN_POINT('',(-1.993128429917,-0.10755590936));
#80 = CARTESIAN_POINT('',(-1.469036628255,-0.150299187872));
#81 = CARTESIAN_POINT('',(-1.427172265178,-7.599098869935E-02));
#82 = CARTESIAN_POINT('',(-1.097093503364,-5.378016093183E-02));
#83 = CARTESIAN_POINT('',(-0.957821381083,-0.106746214327));
#84 = CARTESIAN_POINT('',(-0.937364494386,-8.14644390148E-02));
#85 = CARTESIAN_POINT('',(-0.52881008035,-0.136228820019));
#86 = CARTESIAN_POINT('',(-0.379346752443,-0.145530809069));
#87 = CARTESIAN_POINT('',(-8.788033007027E-02,-9.670882130885E-02));
#88 = CARTESIAN_POINT('',(0.61635044998,-0.15656308289));
#89 = CARTESIAN_POINT('',(0.998362779163,-0.106361560761));
#90 = CARTESIAN_POINT('',(1.006934112217,-7.251044720636E-02));
#91 = CARTESIAN_POINT('',(1.190304186283,-9.867706184131E-02));
#92 = CARTESIAN_POINT('',(1.311586240029,-4.447723508835E-02));
#93 = CARTESIAN_POINT('',(1.349330166227,-0.136480139232));
#94 = CARTESIAN_POINT('',(1.657093413483,-5.217220610253E-02));
#95 = CARTESIAN_POINT('',(1.736457063426,-7.704981862036E-02));
#96 = CARTESIAN_POINT('',(1.746893974917,-0.107837985641));
#97 = CARTESIAN_POINT('',(1.939224962869,-4.515701507763E-02));
#98 = CARTESIAN_POINT('',(2.052646643367,-4.951802790177E-02));
#99 = CARTESIAN_POINT('',(2.079285850343,-0.123533962914));
#100 = CARTESIAN_POINT('',(2.771032717001,-4.861325116729E-02));
#101 = CARTESIAN_POINT('',(2.811020871752,-9.724994394969E-02));
#102 = CARTESIAN_POINT('',(2.847317916846,-8.064347601049E-02));
#103 = CARTESIAN_POINT('',(3.320942839305,-6.736952895477E-02));
#104 = ( GEOMETRIC_REPRESENTATION_CONTEXT(2) 
PARAMETRIC_REPRESENTATION_CONTEXT() REPRESENTATION_CONTEXT('2D SPACE',''
  ) );
#105 = ORIENTED_EDGE('',*,*,#106,.T.);
#106 = EDGE_CURVE('',#24,#107,#109,.T.);
#107 = VERTEX_POINT('',#108);
#108 = CARTESIAN_POINT('',(6.6,0.167369528955,0.));
#109 = SURFACE_CURVE('',#110,(#114),.PCURVE_S1.);
#110 = LINE('',#111,#112);
#111 = CARTESIAN_POINT('',(6.6,3.263047104523E-02,0.));
#112 = VECTOR('',#113,1.);
#113 = DIRECTION('',(0.,1.,0.));
#114 = PCURVE('',#63,#115);
#115 = DEFINITIONAL_REPRESENTATION('',(#116),#120);
#116 = LINE('',#117,#118);
#117 = CARTESIAN_POINT('',(3.320942839305,-6.736952895477E-02));
#118 = VECTOR('',#119,1.);
#119 = DIRECTION('',(0.,1.));
#120 = ( GEOMETRIC_REPRESENTATION_CONTEXT(2) 
PARAMETRIC_REPRESENTATION_CONTEXT() REPRESENTATION_CONTEXT('2D SPACE',''
  ) );
#121 = ORIENTED_EDGE('',*,*,#122,.T.);
#122 = EDGE_CURVE('',#107,#123,#125,.T.);
#123 = VERTEX_POINT('',#124);
#124 = CARTESIAN_POINT('',(0.,0.202196513101,0.));
#125 = SURFACE_CURVE('',#126,(#161),.PCURVE_S1.);
#126 = B_SPLINE_CURVE_WITH_KNOTS('',1,(#127,#128,#129,#130,#131,#132,
    #133,#134,#135,#136,#137,#138,#139,#140,#141,#142,#143,#144,#145,
    #146,#147,#148,#149,#150,#151,#152,#153,#154,#155,#156,#157,#158,
    #159,#160),.UNSPECIFIED.,.F.,.F.,(2,1,1,1,1,1,1,1,1,1,1,1,1,1,1,1,1,
    1,1,1,1,1,1,1,1,1,1,1,1,1,1,1,1,2),(0.,6.733351486444E-02,
    7.300593305604E-02,8.19539100169E-02,0.180833310072,0.192012275283,
    0.208142599856,0.236889740536,0.241509623091,0.25332915672,
    0.298676899834,0.31280895969,0.331687185018,0.35800998099,
    0.362972397563,0.417727125731,0.518166550049,0.560164060019,
    0.581445467341,0.640024633311,0.644646290375,0.665821295886,
    0.712835037891,0.724955602249,0.799681851669,0.845437705622,
    0.85748430942,0.882703976226,0.885451842586,0.902944369468,
    0.936733403694,0.983236995738,0.992100194332,1.),.UNSPECIFIED.);
#127 = CARTESIAN_POINT('',(6.6,0.167369528955,0.));
#128 = CARTESIAN_POINT('',(6.12637507754,0.18064347601,0.));
#129 = CARTESIAN_POINT('',(6.090078032446,0.19724994395,0.));
#130 = CARTESIAN_POINT('',(6.050089877696,0.148613251167,0.));
#131 = CARTESIAN_POINT('',(5.358343011038,0.223533962914,0.));
#132 = CARTESIAN_POINT('',(5.331703804061,0.149518027902,0.));
#133 = CARTESIAN_POINT('',(5.218282123563,0.145157015078,0.));
#134 = CARTESIAN_POINT('',(5.025951135611,0.207837985641,0.));
#135 = CARTESIAN_POINT('',(5.015514224121,0.17704981862,0.));
#136 = CARTESIAN_POINT('',(4.936150574178,0.152172206103,0.));
#137 = CARTESIAN_POINT('',(4.628387326922,0.236480139232,0.));
#138 = CARTESIAN_POINT('',(4.590643400723,0.144477235088,0.));
#139 = CARTESIAN_POINT('',(4.469361346978,0.198677061841,0.));
#140 = CARTESIAN_POINT('',(4.285991272911,0.172510447206,0.));
#141 = CARTESIAN_POINT('',(4.277419939858,0.206361560761,0.));
#142 = CARTESIAN_POINT('',(3.895407610675,0.25656308289,0.));
#143 = CARTESIAN_POINT('',(3.191176830624,0.196708821309,0.));
#144 = CARTESIAN_POINT('',(2.899710408251,0.245530809069,0.));
#145 = CARTESIAN_POINT('',(2.750247080344,0.236228820019,0.));
#146 = CARTESIAN_POINT('',(2.341692666308,0.181464439015,0.));
#147 = CARTESIAN_POINT('',(2.321235779612,0.206746214327,0.));
#148 = CARTESIAN_POINT('',(2.18196365733,0.153780160932,0.));
#149 = CARTESIAN_POINT('',(1.851884895516,0.175990988699,0.));
#150 = CARTESIAN_POINT('',(1.810020532439,0.250299187872,0.));
#151 = CARTESIAN_POINT('',(1.285928730777,0.20755590936,0.));
#152 = CARTESIAN_POINT('',(0.966478752076,0.247790053421,0.));
#153 = CARTESIAN_POINT('',(0.917433518181,0.178649672756,0.));
#154 = CARTESIAN_POINT('',(0.740012878918,0.182624518832,0.));
#155 = CARTESIAN_POINT('',(0.722616349625,0.174183762853,0.));
#156 = CARTESIAN_POINT('',(0.629332791007,0.254492993488,0.));
#157 = CARTESIAN_POINT('',(0.412969364585,0.155905557713,0.));
#158 = CARTESIAN_POINT('',(8.575610123386E-02,0.159710406471,0.));
#159 = CARTESIAN_POINT('',(2.386721558061E-02,0.151991817077,0.));
#160 = CARTESIAN_POINT('',(0.,0.202196513101,0.));
#161 = PCURVE('',#63,#162);
#162 = DEFINITIONAL_REPRESENTATION('',(#163),#198);
#163 = B_SPLINE_CURVE_WITH_KNOTS('',1,(#164,#165,#166,#167,#168,#169,
    #170,#171,#172,#173,#174,#175,#176,#177,#178,#179,#180,#181,#182,
    #183,#184,#185,#186,#187,#188,#189,#190,#191,#192,#193,#194,#195,
    #196,#197),.UNSPECIFIED.,.F.,.F.,(2,1,1,1,1,1,1,1,1,1,1,1,1,1,1,1,1,
    1,1,1,1,1,1,1,1,1,1,1,1,1,1,1,1,2),(0.,6.733351486444E-02,
    7.300593305604E-02,8.19539100169E-02,0.180833310072,0.192012275283,
    0.208142599856,0.236889740536,0.241509623091,0.25332915672,
    0.298676899834,0.31280895969,0.331687185018,0.35800998099,
    0.362972397563,0.417727125731,0.518166550049,0.560164060019,
    0.581445467341,0.640024633311,0.644646290375,0.665821295886,
    0.712835037891,0.724955602249,0.799681851669,0.845437705622,
    0.85748430942,0.882703976226,0.885451842586,0.902944369468,
    0.936733403694,0.983236995738,0.992100194332,1.),.UNSPECIFIED.);
#164 = CARTESIAN_POINT('',(3.320942839305,6.736952895477E-02));
#165 = CARTESIAN_POINT('',(2.847317916846,8.064347601049E-02));
#166 = CARTESIAN_POINT('',(2.811020871752,9.724994394969E-02));
#167 = CARTESIAN_POINT('',(2.771032717001,4.861325116729E-02));
#168 = CARTESIAN_POINT('',(2.079285850343,0.123533962914));
#169 = CARTESIAN_POINT('',(2.052646643367,4.951802790177E-02));
#170 = CARTESIAN_POINT('',(1.939224962869,4.515701507763E-02));
#171 = CARTESIAN_POINT('',(1.746893974917,0.107837985641));
#172 = CARTESIAN_POINT('',(1.736457063426,7.704981862036E-02));
#173 = CARTESIAN_POINT('',(1.657093413483,5.217220610253E-02));
#174 = CARTESIAN_POINT('',(1.349330166227,0.136480139232));
#175 = CARTESIAN_POINT('',(1.311586240029,4.447723508835E-02));
#176 = CARTESIAN_POINT('',(1.190304186283,9.867706184131E-02));
#177 = CARTESIAN_POINT('',(1.006934112217,7.251044720636E-02));
#178 = CARTESIAN_POINT('',(0.998362779163,0.106361560761));
#179 = CARTESIAN_POINT('',(0.61635044998,0.15656308289));
#180 = CARTESIAN_POINT('',(-8.788033007028E-02,9.670882130885E-02));
#181 = CARTESIAN_POINT('',(-0.379346752443,0.145530809069));
#182 = CARTESIAN_POINT('',(-0.52881008035,0.136228820019));
#183 = CARTESIAN_POINT('',(-0.937364494386,8.14644390148E-02));
#184 = CARTESIAN_POINT('',(-0.957821381083,0.106746214327));
#185 = CARTESIAN_POINT('',(-1.097093503364,5.378016093183E-02));
#186 = CARTESIAN_POINT('',(-1.427172265178,7.599098869935E-02));
#187 = CARTESIAN_POINT('',(-1.469036628255,0.150299187872));
#188 = CARTESIAN_POINT('',(-1.993128429917,0.10755590936));
#189 = CARTESIAN_POINT('',(-2.312578408619,0.147790053421));
#190 = CARTESIAN_POINT('',(-2.361623642514,7.864967275552E-02));
#191 = CARTESIAN_POINT('',(-2.539044281777,8.262451883152E-02));
#192 = CARTESIAN_POINT('',(-2.556440811069,7.418376285327E-02));
#193 = CARTESIAN_POINT('',(-2.649724369688,0.154492993488));
#194 = CARTESIAN_POINT('',(-2.86608779611,5.590555771297E-02));
#195 = CARTESIAN_POINT('',(-3.193301059461,5.971040647051E-02));
#196 = CARTESIAN_POINT('',(-3.255189945114,5.199181707668E-02));
#197 = CARTESIAN_POINT('',(-3.279057160695,0.102196513101));
#198 = ( GEOMETRIC_REPRESENTATION_CONTEXT(2) 
PARAMETRIC_REPRESENTATION_CONTEXT() REPRESENTATION_CONTEXT('2D SPACE',''
  ) );
#199 = ORIENTED_EDGE('',*,*,#200,.T.);
#200 = EDGE_CURVE('',#123,#22,#201,.T.);
#201 = SURFACE_CURVE('',#202,(#206),.PCURVE_S1.);
#202 = LINE('',#203,#204);
#203 = CARTESIAN_POINT('',(0.,0.202196513101,0.));
#204 = VECTOR('',#205,1.);
#205 = DIRECTION('',(0.,-1.,0.));
#206 = PCURVE('',#63,#207);
#207 = DEFINITIONAL_REPRESENTATION('',(#208),#212);
#208 = LINE('',#209,#210);
#209 = CARTESIAN_POINT('',(-3.279057160695,0.102196513101));
#210 = VECTOR('',#211,1.);
#211 = DIRECTION('',(0.,-1.));
#212 = ( GEOMETRIC_REPRESENTATION_CONTEXT(2) 
PARAMETRIC_REPRESENTATION_CONTEXT() REPRESENTATION_CONTEXT('2D SPACE',''
  ) );
#213 = ( GEOMETRIC_REPRESENTATION_CONTEXT(3) 
GLOBAL_UNCERTAINTY_ASSIGNED_CONTEXT((#217)) GLOBAL_UNIT_ASSIGNED_CONTEXT
((#214,#215,#216)) REPRESENTATION_CONTEXT('Context #1',
  '3D Context with UNIT and UNCERTAINTY') );
#214 = ( LENGTH_UNIT() NAMED_UNIT(*) SI_UNIT(.MILLI.,.METRE.) );
#215 = ( NAMED_UNIT(*) PLANE_ANGLE_UNIT() SI_UNIT($,.RADIAN.) );
#216 = ( NAMED_UNIT(*) SI_UNIT($,.STERADIAN.) SOLID_ANGLE_UNIT() );
#217 = UNCERTAINTY_MEASURE_WITH_UNIT(LENGTH_MEASURE(1.E-07),#214,
  'distance_accuracy_value','confusion accuracy');
#218 = PRODUCT_RELATED_PRODUCT_CATEGORY('part',$,(#7));
ENDSEC;
END-ISO-10303-21;
