ISO-10303-21;
HEADER;
FILE_DESCRIPTION(('Open CASCADE Model'),'2;1');
FILE_NAME('Open CASCADE Shape Model','2026-05-29T14:30:30',('Author'),(
    'Open CASCADE'),'Open CASCADE STEP processor 7.9','Open CASCADE 7.9'
  ,'Unknown');
FILE_SCHEMA(('AUTOMOTIVE_DESIGN { 1 0 10303 214 1 1 1 1 }'));
ENDSEC;
DATA;
#1 = APPLICATION_PROTOCOL_DEFINITION('international standard',
  'automotive_design',2000,#2);
#2 = APPLICATION_CONTEXT(
  'core data for automotive mechanical design processes');
#3 = SHAPE_DEFINITION_REPRESENTATION(#4,#10);
#4 = PRODUCT_DEFINITION_SHAPE('','',#5);
#5 = PRODUCT_DEFINITION('design','',#6,#9);
#6 = PRODUCT_DEFINITION_FORMATION('','',#7);
#7 = PRODUCT('Open CASCADE STEP translator 7.9 59',
  'Open CASCADE STEP translator 7.9 59','',(#8));
#8 = PRODUCT_CONTEXT('',#2,'mechanical');
#9 = PRODUCT_DEFINITION_CONTEXT('part definition',#2,'design');
#10 = MANIFOLD_SURFACE_SHAPE_REPRESENTATION('',(#11,#15),#121);
#11 = AXIS2_PLACEMENT_3D('',#12,#13,#14);
#12 = CARTESIAN_POINT('',(0.,0.,0.));
#13 = DIRECTION('',(0.,0.,1.));
#14 = DIRECTION('',(1.,0.,-0.));
#15 = SHELL_BASED_SURFACE_MODEL('',(#16));
#16 = OPEN_SHELL('',(#17));
#17 = ADVANCED_FACE('',(#18),#40,.T.);
#18 = FACE_BOUND('',#19,.T.);
#19 = EDGE_LOOP('',(#20,#59,#75,#107));
#20 = ORIENTED_EDGE('',*,*,#21,.T.);
#21 = EDGE_CURVE('',#22,#24,#26,.T.);
#22 = VERTEX_POINT('',#23);
#23 = CARTESIAN_POINT('',(0.,-38.66999588276,0.));
#24 = VERTEX_POINT('',#25);
#25 = CARTESIAN_POINT('',(1.5E+03,-44.70094903672,0.));
#26 = SURFACE_CURVE('',#27,(#39),.PCURVE_S1.);
#27 = B_SPLINE_CURVE_WITH_KNOTS('',1,(#28,#29,#30,#31,#32,#33,#34,#35,
    #36,#37,#38),.UNSPECIFIED.,.F.,.F.,(2,1,1,1,1,1,1,1,1,1,2),(0.,
    7.89811612301E-02,0.187778807893,0.30816161298,0.371581001217,
    0.407750236683,0.476114890119,0.537980154606,0.60566132565,
    0.64933389547,1.),.UNSPECIFIED.);
#28 = CARTESIAN_POINT('',(0.,-38.66999588276,0.));
#29 = CARTESIAN_POINT('',(100.62498597361,36.015204854089,0.));
#30 = CARTESIAN_POINT('',(273.24359397112,35.333733934028,0.));
#31 = CARTESIAN_POINT('',(464.24339937473,34.620620570011,0.));
#32 = CARTESIAN_POINT('',(554.05042602314,-10.76123306792,0.));
#33 = CARTESIAN_POINT('',(589.93381785182,34.022793221134,0.));
#34 = CARTESIAN_POINT('',(676.21247887224,-31.71440861372,0.));
#35 = CARTESIAN_POINT('',(773.97085008968,-22.88443634441,0.));
#36 = CARTESIAN_POINT('',(881.19268145322,-28.78279724142,0.));
#37 = CARTESIAN_POINT('',(945.24254210876,-2.345447419742,0.));
#38 = CARTESIAN_POINT('',(1.5E+03,-44.70094903672,0.));
#39 = PCURVE('',#40,#45);
#40 = PLANE('',#41);
#41 = AXIS2_PLACEMENT_3D('',#42,#43,#44);
#42 = CARTESIAN_POINT('',(738.924299515,75.,0.));
#43 = DIRECTION('',(0.,0.,1.));
#44 = DIRECTION('',(1.,0.,-0.));
#45 = DEFINITIONAL_REPRESENTATION('',(#46),#58);
#46 = B_SPLINE_CURVE_WITH_KNOTS('',1,(#47,#48,#49,#50,#51,#52,#53,#54,
    #55,#56,#57),.UNSPECIFIED.,.F.,.F.,(2,1,1,1,1,1,1,1,1,1,2),(0.,
    7.89811612301E-02,0.187778807893,0.30816161298,0.371581001217,
    0.407750236683,0.476114890119,0.537980154606,0.60566132565,
    0.64933389547,1.),.UNSPECIFIED.);
#47 = CARTESIAN_POINT('',(-738.924299515,-113.6699958827));
#48 = CARTESIAN_POINT('',(-638.2993135413,-38.98479514591));
#49 = CARTESIAN_POINT('',(-465.6807055438,-39.66626606597));
#50 = CARTESIAN_POINT('',(-274.6809001402,-40.37937942998));
#51 = CARTESIAN_POINT('',(-184.8738734918,-85.76123306792));
#52 = CARTESIAN_POINT('',(-148.9904816631,-40.97720677886));
#53 = CARTESIAN_POINT('',(-62.71182064276,-106.7144086137));
#54 = CARTESIAN_POINT('',(35.046550574677,-97.88443634441));
#55 = CARTESIAN_POINT('',(142.26838193822,-103.7827972414));
#56 = CARTESIAN_POINT('',(206.31824259375,-77.34544741974));
#57 = CARTESIAN_POINT('',(761.07570048499,-119.7009490367));
#58 = ( GEOMETRIC_REPRESENTATION_CONTEXT(2) 
PARAMETRIC_REPRESENTATION_CONTEXT() REPRESENTATION_CONTEXT('2D SPACE',''
  ) );
#59 = ORIENTED_EDGE('',*,*,#60,.T.);
#60 = EDGE_CURVE('',#24,#61,#63,.T.);
#61 = VERTEX_POINT('',#62);
#62 = CARTESIAN_POINT('',(1.5E+03,194.70094903672,0.));
#63 = SURFACE_CURVE('',#64,(#68),.PCURVE_S1.);
#64 = LINE('',#65,#66);
#65 = CARTESIAN_POINT('',(1.5E+03,-44.70094903672,0.));
#66 = VECTOR('',#67,1.);
#67 = DIRECTION('',(0.,1.,0.));
#68 = PCURVE('',#40,#69);
#69 = DEFINITIONAL_REPRESENTATION('',(#70),#74);
#70 = LINE('',#71,#72);
#71 = CARTESIAN_POINT('',(761.07570048499,-119.7009490367));
#72 = VECTOR('',#73,1.);
#73 = DIRECTION('',(0.,1.));
#74 = ( GEOMETRIC_REPRESENTATION_CONTEXT(2) 
PARAMETRIC_REPRESENTATION_CONTEXT() REPRESENTATION_CONTEXT('2D SPACE',''
  ) );
#75 = ORIENTED_EDGE('',*,*,#76,.T.);
#76 = EDGE_CURVE('',#61,#77,#79,.T.);
#77 = VERTEX_POINT('',#78);
#78 = CARTESIAN_POINT('',(0.,188.66999588276,0.));
#79 = SURFACE_CURVE('',#80,(#92),.PCURVE_S1.);
#80 = B_SPLINE_CURVE_WITH_KNOTS('',1,(#81,#82,#83,#84,#85,#86,#87,#88,
    #89,#90,#91),.UNSPECIFIED.,.F.,.F.,(2,1,1,1,1,1,1,1,1,1,2),(0.,
    0.35066610453,0.39433867435,0.462019845394,0.523885109881,
    0.592249763317,0.628418998783,0.69183838702,0.812221192107,
    0.92101883877,1.),.UNSPECIFIED.);
#81 = CARTESIAN_POINT('',(1.5E+03,194.70094903672,0.));
#82 = CARTESIAN_POINT('',(945.24254210876,152.34544741974,0.));
#83 = CARTESIAN_POINT('',(881.19268145322,178.78279724142,0.));
#84 = CARTESIAN_POINT('',(773.97085008968,172.88443634441,0.));
#85 = CARTESIAN_POINT('',(676.21247887224,181.71440861372,0.));
#86 = CARTESIAN_POINT('',(589.93381785182,115.97720677886,0.));
#87 = CARTESIAN_POINT('',(554.05042602314,160.76123306792,0.));
#88 = CARTESIAN_POINT('',(464.24339937473,115.37937942998,0.));
#89 = CARTESIAN_POINT('',(273.24359397112,114.66626606597,0.));
#90 = CARTESIAN_POINT('',(100.62498597361,113.98479514591,0.));
#91 = CARTESIAN_POINT('',(0.,188.66999588276,0.));
#92 = PCURVE('',#40,#93);
#93 = DEFINITIONAL_REPRESENTATION('',(#94),#106);
#94 = B_SPLINE_CURVE_WITH_KNOTS('',1,(#95,#96,#97,#98,#99,#100,#101,#102
    ,#103,#104,#105),.UNSPECIFIED.,.F.,.F.,(2,1,1,1,1,1,1,1,1,1,2),(0.,
    0.35066610453,0.39433867435,0.462019845394,0.523885109881,
    0.592249763317,0.628418998783,0.69183838702,0.812221192107,
    0.92101883877,1.),.UNSPECIFIED.);
#95 = CARTESIAN_POINT('',(761.07570048499,119.70094903672));
#96 = CARTESIAN_POINT('',(206.31824259375,77.345447419742));
#97 = CARTESIAN_POINT('',(142.26838193822,103.78279724142));
#98 = CARTESIAN_POINT('',(35.046550574677,97.88443634441));
#99 = CARTESIAN_POINT('',(-62.71182064276,106.71440861372));
#100 = CARTESIAN_POINT('',(-148.9904816631,40.977206778866));
#101 = CARTESIAN_POINT('',(-184.8738734918,85.761233067928));
#102 = CARTESIAN_POINT('',(-274.6809001402,40.379379429989));
#103 = CARTESIAN_POINT('',(-465.6807055438,39.666266065972));
#104 = CARTESIAN_POINT('',(-638.2993135413,38.984795145911));
#105 = CARTESIAN_POINT('',(-738.924299515,113.66999588276));
#106 = ( GEOMETRIC_REPRESENTATION_CONTEXT(2) 
PARAMETRIC_REPRESENTATION_CONTEXT() REPRESENTATION_CONTEXT('2D SPACE',''
  ) );
#107 = ORIENTED_EDGE('',*,*,#108,.T.);
#108 = EDGE_CURVE('',#77,#22,#109,.T.);
#109 = SURFACE_CURVE('',#110,(#114),.PCURVE_S1.);
#110 = LINE('',#111,#112);
#111 = CARTESIAN_POINT('',(0.,188.66999588276,0.));
#112 = VECTOR('',#113,1.);
#113 = DIRECTION('',(0.,-1.,0.));
#114 = PCURVE('',#40,#115);
#115 = DEFINITIONAL_REPRESENTATION('',(#116),#120);
#116 = LINE('',#117,#118);
#117 = CARTESIAN_POINT('',(-738.924299515,113.66999588276));
#118 = VECTOR('',#119,1.);
#119 = DIRECTION('',(0.,-1.));
#120 = ( GEOMETRIC_REPRESENTATION_CONTEXT(2) 
PARAMETRIC_REPRESENTATION_CONTEXT() REPRESENTATION_CONTEXT('2D SPACE',''
  ) );
#121 = ( GEOMETRIC_REPRESENTATION_CONTEXT(3) 
GLOBAL_UNCERTAINTY_ASSIGNED_CONTEXT((#125)) GLOBAL_UNIT_ASSIGNED_CONTEXT
((#122,#123,#124)) REPRESENTATION_CONTEXT('Context #1',
  '3D Context with UNIT and UNCERTAINTY') );
#122 = ( LENGTH_UNIT() NAMED_UNIT(*) SI_UNIT(.MILLI.,.METRE.) );
#123 = ( NAMED_UNIT(*) PLANE_ANGLE_UNIT() SI_UNIT($,.RADIAN.) );
#124 = ( NAMED_UNIT(*) SI_UNIT($,.STERADIAN.) SOLID_ANGLE_UNIT() );
#125 = UNCERTAINTY_MEASURE_WITH_UNIT(LENGTH_MEASURE(1.E-07),#122,
  'distance_accuracy_value','confusion accuracy');
#126 = PRODUCT_RELATED_PRODUCT_CATEGORY('part',$,(#7));
ENDSEC;
END-ISO-10303-21;
