ISO-10303-21;
HEADER;
FILE_DESCRIPTION(('Open CASCADE Model'),'2;1');
FILE_NAME('Open CASCADE Shape Model','2026-06-04T12:09:59',('Author'),(
    'Open CASCADE'),'Open CASCADE STEP processor 7.9','Open CASCADE 7.9'
  ,'Unknown');
FILE_SCHEMA(('AUTOMOTIVE_DESIGN { 1 0 10303 214 1 1 1 1 }'));
ENDSEC;
DATA;
#1 = APPLICATION_PROTOCOL_DEFINITION('international standard',
  'automotive_design',2000,#2);
#2 = APPLICATION_CONTEXT(
  'core data for automotive mechanical design processes');
#3 = SHAPE_DEFINITION_REPRESENTATION(#4,#10);
#4 = PRODUCT_DEFINITION_SHAPE('','',#5);
#5 = PRODUCT_DEFINITION('design','',#6,#9);
#6 = PRODUCT_DEFINITION_FORMATION('','',#7);
#7 = PRODUCT('Open CASCADE STEP translator 7.9 46',
  'Open CASCADE STEP translator 7.9 46','',(#8));
#8 = PRODUCT_CONTEXT('',#2,'mechanical');
#9 = PRODUCT_DEFINITION_CONTEXT('part definition',#2,'design');
#10 = MANIFOLD_SURFACE_SHAPE_REPRESENTATION('',(#11,#15),#121);
#11 = AXIS2_PLACEMENT_3D('',#12,#13,#14);
#12 = CARTESIAN_POINT('',(0.,0.,0.));
#13 = DIRECTION('',(0.,0.,1.));
#14 = DIRECTION('',(1.,0.,-0.));
#15 = SHELL_BASED_SURFACE_MODEL('',(#16));
#16 = OPEN_SHELL('',(#17));
#17 = ADVANCED_FACE('',(#18),#40,.T.);
#18 = FACE_BOUND('',#19,.T.);
#19 = EDGE_LOOP('',(#20,#59,#75,#107));
#20 = ORIENTED_EDGE('',*,*,#21,.T.);
#21 = EDGE_CURVE('',#22,#24,#26,.T.);
#22 = VERTEX_POINT('',#23);
#23 = CARTESIAN_POINT('',(0.,1.070802051106,0.));
#24 = VERTEX_POINT('',#25);
#25 = CARTESIAN_POINT('',(150.,2.082737267242,0.));
#26 = SURFACE_CURVE('',#27,(#39),.PCURVE_S1.);
#27 = B_SPLINE_CURVE_WITH_KNOTS('',1,(#28,#29,#30,#31,#32,#33,#34,#35,
    #36,#37,#38),.UNSPECIFIED.,.F.,.F.,(2,1,1,1,1,1,1,1,1,1,2),(0.,
    6.647486397515E-02,9.057923110472E-02,0.3385700023,0.377874819175,
    0.467919704384,0.532365791323,0.601077382656,0.630338805457,
    0.689668250614,1.),.UNSPECIFIED.);
#28 = CARTESIAN_POINT('',(0.,1.070802051106,0.));
#29 = CARTESIAN_POINT('',(9.955714282906,-0.648775271488,0.));
#30 = CARTESIAN_POINT('',(13.51714026126,0.209915208064,0.));
#31 = CARTESIAN_POINT('',(51.205824241299,0.597292528528,0.));
#32 = CARTESIAN_POINT('',(57.127252496701,-0.191316548076,0.));
#33 = CARTESIAN_POINT('',(70.655518723133,1.876566332308,0.));
#34 = CARTESIAN_POINT('',(79.188931974217,-2.931623391117,0.));
#35 = CARTESIAN_POINT('',(89.581900281709,-1.909847212223,0.));
#36 = CARTESIAN_POINT('',(94.005303306182,-1.449687796389,0.));
#37 = CARTESIAN_POINT('',(102.87257813237,0.187444217916,0.));
#38 = CARTESIAN_POINT('',(150.,2.082737267242,0.));
#39 = PCURVE('',#40,#45);
#40 = PLANE('',#41);
#41 = AXIS2_PLACEMENT_3D('',#42,#43,#44);
#42 = CARTESIAN_POINT('',(74.454630140742,7.5,0.));
#43 = DIRECTION('',(0.,0.,1.));
#44 = DIRECTION('',(1.,0.,-0.));
#45 = DEFINITIONAL_REPRESENTATION('',(#46),#58);
#46 = B_SPLINE_CURVE_WITH_KNOTS('',1,(#47,#48,#49,#50,#51,#52,#53,#54,
    #55,#56,#57),.UNSPECIFIED.,.F.,.F.,(2,1,1,1,1,1,1,1,1,1,2),(0.,
    6.647486397515E-02,9.057923110472E-02,0.3385700023,0.377874819175,
    0.467919704384,0.532365791323,0.601077382656,0.630338805457,
    0.689668250614,1.),.UNSPECIFIED.);
#47 = CARTESIAN_POINT('',(-74.45463014074,-6.429197948894));
#48 = CARTESIAN_POINT('',(-64.49891585783,-8.148775271488));
#49 = CARTESIAN_POINT('',(-60.93748987948,-7.290084791936));
#50 = CARTESIAN_POINT('',(-23.24880589944,-6.902707471472));
#51 = CARTESIAN_POINT('',(-17.32737764404,-7.691316548076));
#52 = CARTESIAN_POINT('',(-3.799111417609,-5.623433667692));
#53 = CARTESIAN_POINT('',(4.734301833475,-10.43162339111));
#54 = CARTESIAN_POINT('',(15.127270140966,-9.409847212223));
#55 = CARTESIAN_POINT('',(19.55067316544,-8.949687796389));
#56 = CARTESIAN_POINT('',(28.417947991631,-7.312555782084));
#57 = CARTESIAN_POINT('',(75.545369859258,-5.417262732758));
#58 = ( GEOMETRIC_REPRESENTATION_CONTEXT(2) 
PARAMETRIC_REPRESENTATION_CONTEXT() REPRESENTATION_CONTEXT('2D SPACE',''
  ) );
#59 = ORIENTED_EDGE('',*,*,#60,.T.);
#60 = EDGE_CURVE('',#24,#61,#63,.T.);
#61 = VERTEX_POINT('',#62);
#62 = CARTESIAN_POINT('',(150.,12.917262732758,0.));
#63 = SURFACE_CURVE('',#64,(#68),.PCURVE_S1.);
#64 = LINE('',#65,#66);
#65 = CARTESIAN_POINT('',(150.,2.082737267242,0.));
#66 = VECTOR('',#67,1.);
#67 = DIRECTION('',(0.,1.,0.));
#68 = PCURVE('',#40,#69);
#69 = DEFINITIONAL_REPRESENTATION('',(#70),#74);
#70 = LINE('',#71,#72);
#71 = CARTESIAN_POINT('',(75.545369859258,-5.417262732758));
#72 = VECTOR('',#73,1.);
#73 = DIRECTION('',(0.,1.));
#74 = ( GEOMETRIC_REPRESENTATION_CONTEXT(2) 
PARAMETRIC_REPRESENTATION_CONTEXT() REPRESENTATION_CONTEXT('2D SPACE',''
  ) );
#75 = ORIENTED_EDGE('',*,*,#76,.T.);
#76 = EDGE_CURVE('',#61,#77,#79,.T.);
#77 = VERTEX_POINT('',#78);
#78 = CARTESIAN_POINT('',(0.,13.929197948894,0.));
#79 = SURFACE_CURVE('',#80,(#92),.PCURVE_S1.);
#80 = B_SPLINE_CURVE_WITH_KNOTS('',1,(#81,#82,#83,#84,#85,#86,#87,#88,
    #89,#90,#91),.UNSPECIFIED.,.F.,.F.,(2,1,1,1,1,1,1,1,1,1,2),(0.,
    0.310331749386,0.369661194543,0.398922617344,0.467634208677,
    0.532080295616,0.622125180825,0.6614299977,0.909420768895,
    0.933525136025,1.),.UNSPECIFIED.);
#81 = CARTESIAN_POINT('',(150.,12.917262732758,0.));
#82 = CARTESIAN_POINT('',(102.87257813237,14.812555782084,0.));
#83 = CARTESIAN_POINT('',(94.005303306182,16.449687796389,0.));
#84 = CARTESIAN_POINT('',(89.581900281709,16.909847212223,0.));
#85 = CARTESIAN_POINT('',(79.188931974217,17.931623391117,0.));
#86 = CARTESIAN_POINT('',(70.655518723133,13.123433667692,0.));
#87 = CARTESIAN_POINT('',(57.127252496701,15.191316548076,0.));
#88 = CARTESIAN_POINT('',(51.205824241299,14.402707471472,0.));
#89 = CARTESIAN_POINT('',(13.51714026126,14.790084791936,0.));
#90 = CARTESIAN_POINT('',(9.955714282906,15.648775271488,0.));
#91 = CARTESIAN_POINT('',(0.,13.929197948894,0.));
#92 = PCURVE('',#40,#93);
#93 = DEFINITIONAL_REPRESENTATION('',(#94),#106);
#94 = B_SPLINE_CURVE_WITH_KNOTS('',1,(#95,#96,#97,#98,#99,#100,#101,#102
    ,#103,#104,#105),.UNSPECIFIED.,.F.,.F.,(2,1,1,1,1,1,1,1,1,1,2),(0.,
    0.310331749386,0.369661194543,0.398922617344,0.467634208677,
    0.532080295616,0.622125180825,0.6614299977,0.909420768895,
    0.933525136025,1.),.UNSPECIFIED.);
#95 = CARTESIAN_POINT('',(75.545369859258,5.417262732758));
#96 = CARTESIAN_POINT('',(28.417947991631,7.312555782084));
#97 = CARTESIAN_POINT('',(19.55067316544,8.949687796389));
#98 = CARTESIAN_POINT('',(15.127270140966,9.409847212223));
#99 = CARTESIAN_POINT('',(4.734301833475,10.431623391117));
#100 = CARTESIAN_POINT('',(-3.799111417609,5.623433667692));
#101 = CARTESIAN_POINT('',(-17.32737764404,7.691316548076));
#102 = CARTESIAN_POINT('',(-23.24880589944,6.902707471472));
#103 = CARTESIAN_POINT('',(-60.93748987948,7.290084791936));
#104 = CARTESIAN_POINT('',(-64.49891585783,8.148775271488));
#105 = CARTESIAN_POINT('',(-74.45463014074,6.429197948894));
#106 = ( GEOMETRIC_REPRESENTATION_CONTEXT(2) 
PARAMETRIC_REPRESENTATION_CONTEXT() REPRESENTATION_CONTEXT('2D SPACE',''
  ) );
#107 = ORIENTED_EDGE('',*,*,#108,.T.);
#108 = EDGE_CURVE('',#77,#22,#109,.T.);
#109 = SURFACE_CURVE('',#110,(#114),.PCURVE_S1.);
#110 = LINE('',#111,#112);
#111 = CARTESIAN_POINT('',(0.,13.929197948894,0.));
#112 = VECTOR('',#113,1.);
#113 = DIRECTION('',(0.,-1.,0.));
#114 = PCURVE('',#40,#115);
#115 = DEFINITIONAL_REPRESENTATION('',(#116),#120);
#116 = LINE('',#117,#118);
#117 = CARTESIAN_POINT('',(-74.45463014074,6.429197948894));
#118 = VECTOR('',#119,1.);
#119 = DIRECTION('',(0.,-1.));
#120 = ( GEOMETRIC_REPRESENTATION_CONTEXT(2) 
PARAMETRIC_REPRESENTATION_CONTEXT() REPRESENTATION_CONTEXT('2D SPACE',''
  ) );
#121 = ( GEOMETRIC_REPRESENTATION_CONTEXT(3) 
GLOBAL_UNCERTAINTY_ASSIGNED_CONTEXT((#125)) GLOBAL_UNIT_ASSIGNED_CONTEXT
((#122,#123,#124)) REPRESENTATION_CONTEXT('Context #1',
  '3D Context with UNIT and UNCERTAINTY') );
#122 = ( LENGTH_UNIT() NAMED_UNIT(*) SI_UNIT(.MILLI.,.METRE.) );
#123 = ( NAMED_UNIT(*) PLANE_ANGLE_UNIT() SI_UNIT($,.RADIAN.) );
#124 = ( NAMED_UNIT(*) SI_UNIT($,.STERADIAN.) SOLID_ANGLE_UNIT() );
#125 = UNCERTAINTY_MEASURE_WITH_UNIT(LENGTH_MEASURE(1.E-07),#122,
  'distance_accuracy_value','confusion accuracy');
#126 = PRODUCT_RELATED_PRODUCT_CATEGORY('part',$,(#7));
ENDSEC;
END-ISO-10303-21;
