ISO-10303-21;
HEADER;
FILE_DESCRIPTION(('Open CASCADE Model'),'2;1');
FILE_NAME('Open CASCADE Shape Model','2026-06-04T12:09:59',('Author'),(
    'Open CASCADE'),'Open CASCADE STEP processor 7.9','Open CASCADE 7.9'
  ,'Unknown');
FILE_SCHEMA(('AUTOMOTIVE_DESIGN { 1 0 10303 214 1 1 1 1 }'));
ENDSEC;
DATA;
#1 = APPLICATION_PROTOCOL_DEFINITION('international standard',
  'automotive_design',2000,#2);
#2 = APPLICATION_CONTEXT(
  'core data for automotive mechanical design processes');
#3 = SHAPE_DEFINITION_REPRESENTATION(#4,#10);
#4 = PRODUCT_DEFINITION_SHAPE('','',#5);
#5 = PRODUCT_DEFINITION('design','',#6,#9);
#6 = PRODUCT_DEFINITION_FORMATION('','',#7);
#7 = PRODUCT('Open CASCADE STEP translator 7.9 21',
  'Open CASCADE STEP translator 7.9 21','',(#8));
#8 = PRODUCT_CONTEXT('',#2,'mechanical');
#9 = PRODUCT_DEFINITION_CONTEXT('part definition',#2,'design');
#10 = MANIFOLD_SURFACE_SHAPE_REPRESENTATION('',(#11,#15),#121);
#11 = AXIS2_PLACEMENT_3D('',#12,#13,#14);
#12 = CARTESIAN_POINT('',(0.,0.,0.));
#13 = DIRECTION('',(0.,0.,1.));
#14 = DIRECTION('',(1.,0.,-0.));
#15 = SHELL_BASED_SURFACE_MODEL('',(#16));
#16 = OPEN_SHELL('',(#17));
#17 = ADVANCED_FACE('',(#18),#40,.T.);
#18 = FACE_BOUND('',#19,.T.);
#19 = EDGE_LOOP('',(#20,#59,#75,#107));
#20 = ORIENTED_EDGE('',*,*,#21,.T.);
#21 = EDGE_CURVE('',#22,#24,#26,.T.);
#22 = VERTEX_POINT('',#23);
#23 = CARTESIAN_POINT('',(0.,2.250457924166,0.));
#24 = VERTEX_POINT('',#25);
#25 = CARTESIAN_POINT('',(150.,-2.881228709392,0.));
#26 = SURFACE_CURVE('',#27,(#39),.PCURVE_S1.);
#27 = B_SPLINE_CURVE_WITH_KNOTS('',1,(#28,#29,#30,#31,#32,#33,#34,#35,
    #36,#37,#38),.UNSPECIFIED.,.F.,.F.,(2,1,1,1,1,1,1,1,1,1,2),(0.,
    4.48039415124E-02,0.153623063319,0.179045758348,0.298164694338,
    0.446604036921,0.608632545931,0.772584492199,0.896759667568,
    0.927218222444,1.),.UNSPECIFIED.);
#28 = CARTESIAN_POINT('',(0.,2.250457924166,0.));
#29 = CARTESIAN_POINT('',(6.4350279707,-2.718594115792E-02,0.));
#30 = CARTESIAN_POINT('',(22.951441916581,-1.471128769973,0.));
#31 = CARTESIAN_POINT('',(26.762635064593,-0.780071067458,0.));
#32 = CARTESIAN_POINT('',(44.862743028239,-2.106786598572,0.));
#33 = CARTESIAN_POINT('',(67.089794779269,2.068722045353,0.));
#34 = CARTESIAN_POINT('',(91.530045551686,-1.407726551611,0.));
#35 = CARTESIAN_POINT('',(116.29709930365,1.841751054787,0.));
#36 = CARTESIAN_POINT('',(135.21037410423,1.375447492093,0.));
#37 = CARTESIAN_POINT('',(139.03038794369,-1.259428183688,0.));
#38 = CARTESIAN_POINT('',(150.,-2.881228709392,0.));
#39 = PCURVE('',#40,#45);
#40 = PLANE('',#41);
#41 = AXIS2_PLACEMENT_3D('',#42,#43,#44);
#42 = CARTESIAN_POINT('',(77.424775458126,7.5,0.));
#43 = DIRECTION('',(0.,0.,1.));
#44 = DIRECTION('',(1.,0.,-0.));
#45 = DEFINITIONAL_REPRESENTATION('',(#46),#58);
#46 = B_SPLINE_CURVE_WITH_KNOTS('',1,(#47,#48,#49,#50,#51,#52,#53,#54,
    #55,#56,#57),.UNSPECIFIED.,.F.,.F.,(2,1,1,1,1,1,1,1,1,1,2),(0.,
    4.48039415124E-02,0.153623063319,0.179045758348,0.298164694338,
    0.446604036921,0.608632545931,0.772584492199,0.896759667568,
    0.927218222444,1.),.UNSPECIFIED.);
#47 = CARTESIAN_POINT('',(-77.42477545812,-5.249542075834));
#48 = CARTESIAN_POINT('',(-70.98974748742,-7.527185941158));
#49 = CARTESIAN_POINT('',(-54.47333354154,-8.971128769973));
#50 = CARTESIAN_POINT('',(-50.66214039353,-8.280071067458));
#51 = CARTESIAN_POINT('',(-32.56203242988,-9.606786598572));
#52 = CARTESIAN_POINT('',(-10.33498067885,-5.431277954647));
#53 = CARTESIAN_POINT('',(14.10527009356,-8.907726551611));
#54 = CARTESIAN_POINT('',(38.872323845532,-5.658248945213));
#55 = CARTESIAN_POINT('',(57.785598646105,-6.124552507907));
#56 = CARTESIAN_POINT('',(61.605612485563,-8.759428183688));
#57 = CARTESIAN_POINT('',(72.575224541874,-10.38122870939));
#58 = ( GEOMETRIC_REPRESENTATION_CONTEXT(2) 
PARAMETRIC_REPRESENTATION_CONTEXT() REPRESENTATION_CONTEXT('2D SPACE',''
  ) );
#59 = ORIENTED_EDGE('',*,*,#60,.T.);
#60 = EDGE_CURVE('',#24,#61,#63,.T.);
#61 = VERTEX_POINT('',#62);
#62 = CARTESIAN_POINT('',(150.,17.881228709392,0.));
#63 = SURFACE_CURVE('',#64,(#68),.PCURVE_S1.);
#64 = LINE('',#65,#66);
#65 = CARTESIAN_POINT('',(150.,-2.881228709392,0.));
#66 = VECTOR('',#67,1.);
#67 = DIRECTION('',(0.,1.,0.));
#68 = PCURVE('',#40,#69);
#69 = DEFINITIONAL_REPRESENTATION('',(#70),#74);
#70 = LINE('',#71,#72);
#71 = CARTESIAN_POINT('',(72.575224541874,-10.38122870939));
#72 = VECTOR('',#73,1.);
#73 = DIRECTION('',(0.,1.));
#74 = ( GEOMETRIC_REPRESENTATION_CONTEXT(2) 
PARAMETRIC_REPRESENTATION_CONTEXT() REPRESENTATION_CONTEXT('2D SPACE',''
  ) );
#75 = ORIENTED_EDGE('',*,*,#76,.T.);
#76 = EDGE_CURVE('',#61,#77,#79,.T.);
#77 = VERTEX_POINT('',#78);
#78 = CARTESIAN_POINT('',(0.,12.749542075834,0.));
#79 = SURFACE_CURVE('',#80,(#92),.PCURVE_S1.);
#80 = B_SPLINE_CURVE_WITH_KNOTS('',1,(#81,#82,#83,#84,#85,#86,#87,#88,
    #89,#90,#91),.UNSPECIFIED.,.F.,.F.,(2,1,1,1,1,1,1,1,1,1,2),(0.,
    7.27817775559E-02,0.103240332432,0.227415507801,0.391367454069,
    0.553395963079,0.701835305662,0.820954241652,0.846376936681,
    0.955196058488,1.),.UNSPECIFIED.);
#81 = CARTESIAN_POINT('',(150.,17.881228709392,0.));
#82 = CARTESIAN_POINT('',(139.03038794369,16.259428183688,0.));
#83 = CARTESIAN_POINT('',(135.21037410423,13.624552507907,0.));
#84 = CARTESIAN_POINT('',(116.29709930365,13.158248945213,0.));
#85 = CARTESIAN_POINT('',(91.530045551686,16.407726551611,0.));
#86 = CARTESIAN_POINT('',(67.089794779269,12.931277954647,0.));
#87 = CARTESIAN_POINT('',(44.862743028239,17.106786598572,0.));
#88 = CARTESIAN_POINT('',(26.762635064593,15.780071067458,0.));
#89 = CARTESIAN_POINT('',(22.951441916581,16.471128769973,0.));
#90 = CARTESIAN_POINT('',(6.4350279707,15.027185941158,0.));
#91 = CARTESIAN_POINT('',(0.,12.749542075834,0.));
#92 = PCURVE('',#40,#93);
#93 = DEFINITIONAL_REPRESENTATION('',(#94),#106);
#94 = B_SPLINE_CURVE_WITH_KNOTS('',1,(#95,#96,#97,#98,#99,#100,#101,#102
    ,#103,#104,#105),.UNSPECIFIED.,.F.,.F.,(2,1,1,1,1,1,1,1,1,1,2),(0.,
    7.27817775559E-02,0.103240332432,0.227415507801,0.391367454069,
    0.553395963079,0.701835305662,0.820954241652,0.846376936681,
    0.955196058488,1.),.UNSPECIFIED.);
#95 = CARTESIAN_POINT('',(72.575224541874,10.381228709392));
#96 = CARTESIAN_POINT('',(61.605612485563,8.759428183688));
#97 = CARTESIAN_POINT('',(57.785598646105,6.124552507907));
#98 = CARTESIAN_POINT('',(38.872323845532,5.658248945213));
#99 = CARTESIAN_POINT('',(14.10527009356,8.907726551611));
#100 = CARTESIAN_POINT('',(-10.33498067885,5.431277954647));
#101 = CARTESIAN_POINT('',(-32.56203242988,9.606786598572));
#102 = CARTESIAN_POINT('',(-50.66214039353,8.280071067458));
#103 = CARTESIAN_POINT('',(-54.47333354154,8.971128769973));
#104 = CARTESIAN_POINT('',(-70.98974748742,7.527185941158));
#105 = CARTESIAN_POINT('',(-77.42477545812,5.249542075834));
#106 = ( GEOMETRIC_REPRESENTATION_CONTEXT(2) 
PARAMETRIC_REPRESENTATION_CONTEXT() REPRESENTATION_CONTEXT('2D SPACE',''
  ) );
#107 = ORIENTED_EDGE('',*,*,#108,.T.);
#108 = EDGE_CURVE('',#77,#22,#109,.T.);
#109 = SURFACE_CURVE('',#110,(#114),.PCURVE_S1.);
#110 = LINE('',#111,#112);
#111 = CARTESIAN_POINT('',(0.,12.749542075834,0.));
#112 = VECTOR('',#113,1.);
#113 = DIRECTION('',(0.,-1.,0.));
#114 = PCURVE('',#40,#115);
#115 = DEFINITIONAL_REPRESENTATION('',(#116),#120);
#116 = LINE('',#117,#118);
#117 = CARTESIAN_POINT('',(-77.42477545812,5.249542075834));
#118 = VECTOR('',#119,1.);
#119 = DIRECTION('',(0.,-1.));
#120 = ( GEOMETRIC_REPRESENTATION_CONTEXT(2) 
PARAMETRIC_REPRESENTATION_CONTEXT() REPRESENTATION_CONTEXT('2D SPACE',''
  ) );
#121 = ( GEOMETRIC_REPRESENTATION_CONTEXT(3) 
GLOBAL_UNCERTAINTY_ASSIGNED_CONTEXT((#125)) GLOBAL_UNIT_ASSIGNED_CONTEXT
((#122,#123,#124)) REPRESENTATION_CONTEXT('Context #1',
  '3D Context with UNIT and UNCERTAINTY') );
#122 = ( LENGTH_UNIT() NAMED_UNIT(*) SI_UNIT(.MILLI.,.METRE.) );
#123 = ( NAMED_UNIT(*) PLANE_ANGLE_UNIT() SI_UNIT($,.RADIAN.) );
#124 = ( NAMED_UNIT(*) SI_UNIT($,.STERADIAN.) SOLID_ANGLE_UNIT() );
#125 = UNCERTAINTY_MEASURE_WITH_UNIT(LENGTH_MEASURE(1.E-07),#122,
  'distance_accuracy_value','confusion accuracy');
#126 = PRODUCT_RELATED_PRODUCT_CATEGORY('part',$,(#7));
ENDSEC;
END-ISO-10303-21;
