ISO-10303-21;
HEADER;
FILE_DESCRIPTION(('Open CASCADE Model'),'2;1');
FILE_NAME('Open CASCADE Shape Model','2026-06-01T11:13:06',('Author'),(
    'Open CASCADE'),'Open CASCADE STEP processor 7.9','Open CASCADE 7.9'
  ,'Unknown');
FILE_SCHEMA(('AUTOMOTIVE_DESIGN { 1 0 10303 214 1 1 1 1 }'));
ENDSEC;
DATA;
#1 = APPLICATION_PROTOCOL_DEFINITION('international standard',
  'automotive_design',2000,#2);
#2 = APPLICATION_CONTEXT(
  'core data for automotive mechanical design processes');
#3 = SHAPE_DEFINITION_REPRESENTATION(#4,#10);
#4 = PRODUCT_DEFINITION_SHAPE('','',#5);
#5 = PRODUCT_DEFINITION('design','',#6,#9);
#6 = PRODUCT_DEFINITION_FORMATION('','',#7);
#7 = PRODUCT('Open CASCADE STEP translator 7.9 93',
  'Open CASCADE STEP translator 7.9 93','',(#8));
#8 = PRODUCT_CONTEXT('',#2,'mechanical');
#9 = PRODUCT_DEFINITION_CONTEXT('part definition',#2,'design');
#10 = MANIFOLD_SURFACE_SHAPE_REPRESENTATION('',(#11,#15),#121);
#11 = AXIS2_PLACEMENT_3D('',#12,#13,#14);
#12 = CARTESIAN_POINT('',(0.,0.,0.));
#13 = DIRECTION('',(0.,0.,1.));
#14 = DIRECTION('',(1.,0.,-0.));
#15 = SHELL_BASED_SURFACE_MODEL('',(#16));
#16 = OPEN_SHELL('',(#17));
#17 = ADVANCED_FACE('',(#18),#40,.T.);
#18 = FACE_BOUND('',#19,.T.);
#19 = EDGE_LOOP('',(#20,#59,#75,#107));
#20 = ORIENTED_EDGE('',*,*,#21,.T.);
#21 = EDGE_CURVE('',#22,#24,#26,.T.);
#22 = VERTEX_POINT('',#23);
#23 = CARTESIAN_POINT('',(0.,1.179103020297,0.));
#24 = VERTEX_POINT('',#25);
#25 = CARTESIAN_POINT('',(150.,2.32470361817,0.));
#26 = SURFACE_CURVE('',#27,(#39),.PCURVE_S1.);
#27 = B_SPLINE_CURVE_WITH_KNOTS('',1,(#28,#29,#30,#31,#32,#33,#34,#35,
    #36,#37,#38),.UNSPECIFIED.,.F.,.F.,(2,1,1,1,1,1,1,1,1,1,2),(0.,
    4.551631439469E-02,0.301000532149,0.331602400516,0.446057281471,
    0.62055645434,0.683564082966,0.786133295528,0.867104343964,
    0.934763167048,1.),.UNSPECIFIED.);
#28 = CARTESIAN_POINT('',(0.,1.179103020297,0.));
#29 = CARTESIAN_POINT('',(6.921965466784,2.926733523903,0.));
#30 = CARTESIAN_POINT('',(46.992307806792,2.523783670181,0.));
#31 = CARTESIAN_POINT('',(51.258772027351,0.32469942501,0.));
#32 = CARTESIAN_POINT('',(68.686353990437,-3.983115602829,0.));
#33 = CARTESIAN_POINT('',(95.991968523643,-2.107317111848,0.));
#34 = CARTESIAN_POINT('',(104.70156165105,2.562806266388,0.));
#35 = CARTESIAN_POINT('',(119.70796419874,-3.23605020077,0.));
#36 = CARTESIAN_POINT('',(131.64642431407,1.096195292913,0.));
#37 = CARTESIAN_POINT('',(141.36530887889,-3.165499644773,0.));
#38 = CARTESIAN_POINT('',(150.,2.32470361817,0.));
#39 = PCURVE('',#40,#45);
#40 = PLANE('',#41);
#41 = AXIS2_PLACEMENT_3D('',#42,#43,#44);
#42 = CARTESIAN_POINT('',(75.912841066306,7.5,0.));
#43 = DIRECTION('',(0.,0.,1.));
#44 = DIRECTION('',(1.,0.,-0.));
#45 = DEFINITIONAL_REPRESENTATION('',(#46),#58);
#46 = B_SPLINE_CURVE_WITH_KNOTS('',1,(#47,#48,#49,#50,#51,#52,#53,#54,
    #55,#56,#57),.UNSPECIFIED.,.F.,.F.,(2,1,1,1,1,1,1,1,1,1,2),(0.,
    4.551631439469E-02,0.301000532149,0.331602400516,0.446057281471,
    0.62055645434,0.683564082966,0.786133295528,0.867104343964,
    0.934763167048,1.),.UNSPECIFIED.);
#47 = CARTESIAN_POINT('',(-75.9128410663,-6.320896979703));
#48 = CARTESIAN_POINT('',(-68.99087559952,-4.573266476097));
#49 = CARTESIAN_POINT('',(-28.92053325951,-4.976216329819));
#50 = CARTESIAN_POINT('',(-24.65406903895,-7.17530057499));
#51 = CARTESIAN_POINT('',(-7.22648707587,-11.48311560282));
#52 = CARTESIAN_POINT('',(20.079127457336,-9.607317111848));
#53 = CARTESIAN_POINT('',(28.788720584745,-4.937193733612));
#54 = CARTESIAN_POINT('',(43.795123132441,-10.73605020077));
#55 = CARTESIAN_POINT('',(55.733583247772,-6.403804707087));
#56 = CARTESIAN_POINT('',(65.452467812586,-10.66549964477));
#57 = CARTESIAN_POINT('',(74.087158933694,-5.17529638183));
#58 = ( GEOMETRIC_REPRESENTATION_CONTEXT(2) 
PARAMETRIC_REPRESENTATION_CONTEXT() REPRESENTATION_CONTEXT('2D SPACE',''
  ) );
#59 = ORIENTED_EDGE('',*,*,#60,.T.);
#60 = EDGE_CURVE('',#24,#61,#63,.T.);
#61 = VERTEX_POINT('',#62);
#62 = CARTESIAN_POINT('',(150.,12.67529638183,0.));
#63 = SURFACE_CURVE('',#64,(#68),.PCURVE_S1.);
#64 = LINE('',#65,#66);
#65 = CARTESIAN_POINT('',(150.,2.32470361817,0.));
#66 = VECTOR('',#67,1.);
#67 = DIRECTION('',(0.,1.,0.));
#68 = PCURVE('',#40,#69);
#69 = DEFINITIONAL_REPRESENTATION('',(#70),#74);
#70 = LINE('',#71,#72);
#71 = CARTESIAN_POINT('',(74.087158933694,-5.17529638183));
#72 = VECTOR('',#73,1.);
#73 = DIRECTION('',(0.,1.));
#74 = ( GEOMETRIC_REPRESENTATION_CONTEXT(2) 
PARAMETRIC_REPRESENTATION_CONTEXT() REPRESENTATION_CONTEXT('2D SPACE',''
  ) );
#75 = ORIENTED_EDGE('',*,*,#76,.T.);
#76 = EDGE_CURVE('',#61,#77,#79,.T.);
#77 = VERTEX_POINT('',#78);
#78 = CARTESIAN_POINT('',(0.,13.820896979703,0.));
#79 = SURFACE_CURVE('',#80,(#92),.PCURVE_S1.);
#80 = B_SPLINE_CURVE_WITH_KNOTS('',1,(#81,#82,#83,#84,#85,#86,#87,#88,
    #89,#90,#91),.UNSPECIFIED.,.F.,.F.,(2,1,1,1,1,1,1,1,1,1,2),(0.,
    6.523683295151E-02,0.132895656036,0.213866704472,0.316435917034,
    0.37944354566,0.553942718529,0.668397599484,0.698999467851,
    0.954483685605,1.),.UNSPECIFIED.);
#81 = CARTESIAN_POINT('',(150.,12.67529638183,0.));
#82 = CARTESIAN_POINT('',(141.36530887889,18.165499644773,0.));
#83 = CARTESIAN_POINT('',(131.64642431407,13.903804707087,0.));
#84 = CARTESIAN_POINT('',(119.70796419874,18.23605020077,0.));
#85 = CARTESIAN_POINT('',(104.70156165105,12.437193733612,0.));
#86 = CARTESIAN_POINT('',(95.991968523643,17.107317111848,0.));
#87 = CARTESIAN_POINT('',(68.686353990437,18.983115602829,0.));
#88 = CARTESIAN_POINT('',(51.258772027351,14.67530057499,0.));
#89 = CARTESIAN_POINT('',(46.992307806792,12.476216329819,0.));
#90 = CARTESIAN_POINT('',(6.921965466784,12.073266476097,0.));
#91 = CARTESIAN_POINT('',(0.,13.820896979703,0.));
#92 = PCURVE('',#40,#93);
#93 = DEFINITIONAL_REPRESENTATION('',(#94),#106);
#94 = B_SPLINE_CURVE_WITH_KNOTS('',1,(#95,#96,#97,#98,#99,#100,#101,#102
    ,#103,#104,#105),.UNSPECIFIED.,.F.,.F.,(2,1,1,1,1,1,1,1,1,1,2),(0.,
    6.523683295151E-02,0.132895656036,0.213866704472,0.316435917034,
    0.37944354566,0.553942718529,0.668397599484,0.698999467851,
    0.954483685605,1.),.UNSPECIFIED.);
#95 = CARTESIAN_POINT('',(74.087158933694,5.17529638183));
#96 = CARTESIAN_POINT('',(65.452467812586,10.665499644773));
#97 = CARTESIAN_POINT('',(55.733583247772,6.403804707087));
#98 = CARTESIAN_POINT('',(43.795123132441,10.73605020077));
#99 = CARTESIAN_POINT('',(28.788720584745,4.937193733612));
#100 = CARTESIAN_POINT('',(20.079127457336,9.607317111848));
#101 = CARTESIAN_POINT('',(-7.22648707587,11.483115602829));
#102 = CARTESIAN_POINT('',(-24.65406903895,7.17530057499));
#103 = CARTESIAN_POINT('',(-28.92053325951,4.976216329819));
#104 = CARTESIAN_POINT('',(-68.99087559952,4.573266476097));
#105 = CARTESIAN_POINT('',(-75.9128410663,6.320896979703));
#106 = ( GEOMETRIC_REPRESENTATION_CONTEXT(2) 
PARAMETRIC_REPRESENTATION_CONTEXT() REPRESENTATION_CONTEXT('2D SPACE',''
  ) );
#107 = ORIENTED_EDGE('',*,*,#108,.T.);
#108 = EDGE_CURVE('',#77,#22,#109,.T.);
#109 = SURFACE_CURVE('',#110,(#114),.PCURVE_S1.);
#110 = LINE('',#111,#112);
#111 = CARTESIAN_POINT('',(0.,13.820896979703,0.));
#112 = VECTOR('',#113,1.);
#113 = DIRECTION('',(0.,-1.,0.));
#114 = PCURVE('',#40,#115);
#115 = DEFINITIONAL_REPRESENTATION('',(#116),#120);
#116 = LINE('',#117,#118);
#117 = CARTESIAN_POINT('',(-75.9128410663,6.320896979703));
#118 = VECTOR('',#119,1.);
#119 = DIRECTION('',(0.,-1.));
#120 = ( GEOMETRIC_REPRESENTATION_CONTEXT(2) 
PARAMETRIC_REPRESENTATION_CONTEXT() REPRESENTATION_CONTEXT('2D SPACE',''
  ) );
#121 = ( GEOMETRIC_REPRESENTATION_CONTEXT(3) 
GLOBAL_UNCERTAINTY_ASSIGNED_CONTEXT((#125)) GLOBAL_UNIT_ASSIGNED_CONTEXT
((#122,#123,#124)) REPRESENTATION_CONTEXT('Context #1',
  '3D Context with UNIT and UNCERTAINTY') );
#122 = ( LENGTH_UNIT() NAMED_UNIT(*) SI_UNIT(.MILLI.,.METRE.) );
#123 = ( NAMED_UNIT(*) PLANE_ANGLE_UNIT() SI_UNIT($,.RADIAN.) );
#124 = ( NAMED_UNIT(*) SI_UNIT($,.STERADIAN.) SOLID_ANGLE_UNIT() );
#125 = UNCERTAINTY_MEASURE_WITH_UNIT(LENGTH_MEASURE(1.E-07),#122,
  'distance_accuracy_value','confusion accuracy');
#126 = PRODUCT_RELATED_PRODUCT_CATEGORY('part',$,(#7));
ENDSEC;
END-ISO-10303-21;
