ISO-10303-21;
HEADER;
FILE_DESCRIPTION(('Open CASCADE Model'),'2;1');
FILE_NAME('Open CASCADE Shape Model','2026-06-04T12:09:59',('Author'),(
    'Open CASCADE'),'Open CASCADE STEP processor 7.9','Open CASCADE 7.9'
  ,'Unknown');
FILE_SCHEMA(('AUTOMOTIVE_DESIGN { 1 0 10303 214 1 1 1 1 }'));
ENDSEC;
DATA;
#1 = APPLICATION_PROTOCOL_DEFINITION('international standard',
  'automotive_design',2000,#2);
#2 = APPLICATION_CONTEXT(
  'core data for automotive mechanical design processes');
#3 = SHAPE_DEFINITION_REPRESENTATION(#4,#10);
#4 = PRODUCT_DEFINITION_SHAPE('','',#5);
#5 = PRODUCT_DEFINITION('design','',#6,#9);
#6 = PRODUCT_DEFINITION_FORMATION('','',#7);
#7 = PRODUCT('Open CASCADE STEP translator 7.9 85',
  'Open CASCADE STEP translator 7.9 85','',(#8));
#8 = PRODUCT_CONTEXT('',#2,'mechanical');
#9 = PRODUCT_DEFINITION_CONTEXT('part definition',#2,'design');
#10 = MANIFOLD_SURFACE_SHAPE_REPRESENTATION('',(#11,#15),#121);
#11 = AXIS2_PLACEMENT_3D('',#12,#13,#14);
#12 = CARTESIAN_POINT('',(0.,0.,0.));
#13 = DIRECTION('',(0.,0.,1.));
#14 = DIRECTION('',(1.,0.,-0.));
#15 = SHELL_BASED_SURFACE_MODEL('',(#16));
#16 = OPEN_SHELL('',(#17));
#17 = ADVANCED_FACE('',(#18),#40,.T.);
#18 = FACE_BOUND('',#19,.T.);
#19 = EDGE_LOOP('',(#20,#59,#75,#107));
#20 = ORIENTED_EDGE('',*,*,#21,.T.);
#21 = EDGE_CURVE('',#22,#24,#26,.T.);
#22 = VERTEX_POINT('',#23);
#23 = CARTESIAN_POINT('',(0.,-0.741278217856,0.));
#24 = VERTEX_POINT('',#25);
#25 = CARTESIAN_POINT('',(150.,0.354224209212,0.));
#26 = SURFACE_CURVE('',#27,(#39),.PCURVE_S1.);
#27 = B_SPLINE_CURVE_WITH_KNOTS('',1,(#28,#29,#30,#31,#32,#33,#34,#35,
    #36,#37,#38),.UNSPECIFIED.,.F.,.F.,(2,1,1,1,1,1,1,1,1,1,2),(0.,
    0.107280928004,0.149499415833,0.384966271103,0.507941256174,
    0.633567355107,0.743515479015,0.789738547266,0.854070606973,
    0.924996275802,1.),.UNSPECIFIED.);
#28 = CARTESIAN_POINT('',(0.,-0.741278217856,0.));
#29 = CARTESIAN_POINT('',(16.042881000494,2.189521246695,0.));
#30 = CARTESIAN_POINT('',(21.51659108769,-1.16124281752,0.));
#31 = CARTESIAN_POINT('',(57.311084686468,-1.048502138281,0.));
#32 = CARTESIAN_POINT('',(76.005160406711,-1.095528733301,0.));
#33 = CARTESIAN_POINT('',(94.750037365808,2.555576683568,0.));
#34 = CARTESIAN_POINT('',(111.31355905461,0.318966945515,0.));
#35 = CARTESIAN_POINT('',(118.3365316425,0.545789207726,0.));
#36 = CARTESIAN_POINT('',(127.92288778336,2.479731098141,0.));
#37 = CARTESIAN_POINT('',(138.67393995239,1.665792432619,0.));
#38 = CARTESIAN_POINT('',(150.,0.354224209212,0.));
#39 = PCURVE('',#40,#45);
#40 = PLANE('',#41);
#41 = AXIS2_PLACEMENT_3D('',#42,#43,#44);
#42 = CARTESIAN_POINT('',(74.231304068451,7.5,0.));
#43 = DIRECTION('',(0.,0.,1.));
#44 = DIRECTION('',(1.,0.,-0.));
#45 = DEFINITIONAL_REPRESENTATION('',(#46),#58);
#46 = B_SPLINE_CURVE_WITH_KNOTS('',1,(#47,#48,#49,#50,#51,#52,#53,#54,
    #55,#56,#57),.UNSPECIFIED.,.F.,.F.,(2,1,1,1,1,1,1,1,1,1,2),(0.,
    0.107280928004,0.149499415833,0.384966271103,0.507941256174,
    0.633567355107,0.743515479015,0.789738547266,0.854070606973,
    0.924996275802,1.),.UNSPECIFIED.);
#47 = CARTESIAN_POINT('',(-74.23130406845,-8.241278217856));
#48 = CARTESIAN_POINT('',(-58.18842306795,-5.310478753305));
#49 = CARTESIAN_POINT('',(-52.71471298076,-8.66124281752));
#50 = CARTESIAN_POINT('',(-16.92021938198,-8.548502138281));
#51 = CARTESIAN_POINT('',(1.77385633826,-8.595528733301));
#52 = CARTESIAN_POINT('',(20.518733297356,-4.944423316432));
#53 = CARTESIAN_POINT('',(37.082254986159,-7.181033054485));
#54 = CARTESIAN_POINT('',(44.105227574057,-6.954210792274));
#55 = CARTESIAN_POINT('',(53.691583714915,-5.020268901859));
#56 = CARTESIAN_POINT('',(64.442635883938,-5.834207567381));
#57 = CARTESIAN_POINT('',(75.768695931549,-7.145775790788));
#58 = ( GEOMETRIC_REPRESENTATION_CONTEXT(2) 
PARAMETRIC_REPRESENTATION_CONTEXT() REPRESENTATION_CONTEXT('2D SPACE',''
  ) );
#59 = ORIENTED_EDGE('',*,*,#60,.T.);
#60 = EDGE_CURVE('',#24,#61,#63,.T.);
#61 = VERTEX_POINT('',#62);
#62 = CARTESIAN_POINT('',(150.,14.645775790788,0.));
#63 = SURFACE_CURVE('',#64,(#68),.PCURVE_S1.);
#64 = LINE('',#65,#66);
#65 = CARTESIAN_POINT('',(150.,0.354224209212,0.));
#66 = VECTOR('',#67,1.);
#67 = DIRECTION('',(0.,1.,0.));
#68 = PCURVE('',#40,#69);
#69 = DEFINITIONAL_REPRESENTATION('',(#70),#74);
#70 = LINE('',#71,#72);
#71 = CARTESIAN_POINT('',(75.768695931549,-7.145775790788));
#72 = VECTOR('',#73,1.);
#73 = DIRECTION('',(0.,1.));
#74 = ( GEOMETRIC_REPRESENTATION_CONTEXT(2) 
PARAMETRIC_REPRESENTATION_CONTEXT() REPRESENTATION_CONTEXT('2D SPACE',''
  ) );
#75 = ORIENTED_EDGE('',*,*,#76,.T.);
#76 = EDGE_CURVE('',#61,#77,#79,.T.);
#77 = VERTEX_POINT('',#78);
#78 = CARTESIAN_POINT('',(0.,15.741278217856,0.));
#79 = SURFACE_CURVE('',#80,(#92),.PCURVE_S1.);
#80 = B_SPLINE_CURVE_WITH_KNOTS('',1,(#81,#82,#83,#84,#85,#86,#87,#88,
    #89,#90,#91),.UNSPECIFIED.,.F.,.F.,(2,1,1,1,1,1,1,1,1,1,2),(0.,
    7.500372419755E-02,0.145929393027,0.210261452734,0.256484520985,
    0.366432644893,0.492058743826,0.615033728897,0.850500584167,
    0.892719071996,1.),.UNSPECIFIED.);
#81 = CARTESIAN_POINT('',(150.,14.645775790788,0.));
#82 = CARTESIAN_POINT('',(138.67393995239,13.334207567381,0.));
#83 = CARTESIAN_POINT('',(127.92288778336,12.520268901859,0.));
#84 = CARTESIAN_POINT('',(118.3365316425,14.454210792274,0.));
#85 = CARTESIAN_POINT('',(111.31355905461,14.681033054485,0.));
#86 = CARTESIAN_POINT('',(94.750037365808,12.444423316432,0.));
#87 = CARTESIAN_POINT('',(76.005160406711,16.095528733301,0.));
#88 = CARTESIAN_POINT('',(57.311084686468,16.048502138281,0.));
#89 = CARTESIAN_POINT('',(21.51659108769,16.16124281752,0.));
#90 = CARTESIAN_POINT('',(16.042881000494,12.810478753305,0.));
#91 = CARTESIAN_POINT('',(0.,15.741278217856,0.));
#92 = PCURVE('',#40,#93);
#93 = DEFINITIONAL_REPRESENTATION('',(#94),#106);
#94 = B_SPLINE_CURVE_WITH_KNOTS('',1,(#95,#96,#97,#98,#99,#100,#101,#102
    ,#103,#104,#105),.UNSPECIFIED.,.F.,.F.,(2,1,1,1,1,1,1,1,1,1,2),(0.,
    7.500372419755E-02,0.145929393027,0.210261452734,0.256484520985,
    0.366432644893,0.492058743826,0.615033728897,0.850500584167,
    0.892719071996,1.),.UNSPECIFIED.);
#95 = CARTESIAN_POINT('',(75.768695931549,7.145775790788));
#96 = CARTESIAN_POINT('',(64.442635883938,5.834207567381));
#97 = CARTESIAN_POINT('',(53.691583714915,5.020268901859));
#98 = CARTESIAN_POINT('',(44.105227574057,6.954210792274));
#99 = CARTESIAN_POINT('',(37.082254986159,7.181033054485));
#100 = CARTESIAN_POINT('',(20.518733297356,4.944423316432));
#101 = CARTESIAN_POINT('',(1.77385633826,8.595528733301));
#102 = CARTESIAN_POINT('',(-16.92021938198,8.548502138281));
#103 = CARTESIAN_POINT('',(-52.71471298076,8.66124281752));
#104 = CARTESIAN_POINT('',(-58.18842306795,5.310478753305));
#105 = CARTESIAN_POINT('',(-74.23130406845,8.241278217856));
#106 = ( GEOMETRIC_REPRESENTATION_CONTEXT(2) 
PARAMETRIC_REPRESENTATION_CONTEXT() REPRESENTATION_CONTEXT('2D SPACE',''
  ) );
#107 = ORIENTED_EDGE('',*,*,#108,.T.);
#108 = EDGE_CURVE('',#77,#22,#109,.T.);
#109 = SURFACE_CURVE('',#110,(#114),.PCURVE_S1.);
#110 = LINE('',#111,#112);
#111 = CARTESIAN_POINT('',(0.,15.741278217856,0.));
#112 = VECTOR('',#113,1.);
#113 = DIRECTION('',(0.,-1.,0.));
#114 = PCURVE('',#40,#115);
#115 = DEFINITIONAL_REPRESENTATION('',(#116),#120);
#116 = LINE('',#117,#118);
#117 = CARTESIAN_POINT('',(-74.23130406845,8.241278217856));
#118 = VECTOR('',#119,1.);
#119 = DIRECTION('',(0.,-1.));
#120 = ( GEOMETRIC_REPRESENTATION_CONTEXT(2) 
PARAMETRIC_REPRESENTATION_CONTEXT() REPRESENTATION_CONTEXT('2D SPACE',''
  ) );
#121 = ( GEOMETRIC_REPRESENTATION_CONTEXT(3) 
GLOBAL_UNCERTAINTY_ASSIGNED_CONTEXT((#125)) GLOBAL_UNIT_ASSIGNED_CONTEXT
((#122,#123,#124)) REPRESENTATION_CONTEXT('Context #1',
  '3D Context with UNIT and UNCERTAINTY') );
#122 = ( LENGTH_UNIT() NAMED_UNIT(*) SI_UNIT(.MILLI.,.METRE.) );
#123 = ( NAMED_UNIT(*) PLANE_ANGLE_UNIT() SI_UNIT($,.RADIAN.) );
#124 = ( NAMED_UNIT(*) SI_UNIT($,.STERADIAN.) SOLID_ANGLE_UNIT() );
#125 = UNCERTAINTY_MEASURE_WITH_UNIT(LENGTH_MEASURE(1.E-07),#122,
  'distance_accuracy_value','confusion accuracy');
#126 = PRODUCT_RELATED_PRODUCT_CATEGORY('part',$,(#7));
ENDSEC;
END-ISO-10303-21;
