ISO-10303-21;
HEADER;
FILE_DESCRIPTION(('Open CASCADE Model'),'2;1');
FILE_NAME('Open CASCADE Shape Model','2026-06-04T14:36:37',('Author'),(
    'Open CASCADE'),'Open CASCADE STEP processor 7.9','Open CASCADE 7.9'
  ,'Unknown');
FILE_SCHEMA(('AUTOMOTIVE_DESIGN { 1 0 10303 214 1 1 1 1 }'));
ENDSEC;
DATA;
#1 = APPLICATION_PROTOCOL_DEFINITION('international standard',
  'automotive_design',2000,#2);
#2 = APPLICATION_CONTEXT(
  'core data for automotive mechanical design processes');
#3 = SHAPE_DEFINITION_REPRESENTATION(#4,#10);
#4 = PRODUCT_DEFINITION_SHAPE('','',#5);
#5 = PRODUCT_DEFINITION('design','',#6,#9);
#6 = PRODUCT_DEFINITION_FORMATION('','',#7);
#7 = PRODUCT('Open CASCADE STEP translator 7.9 61',
  'Open CASCADE STEP translator 7.9 61','',(#8));
#8 = PRODUCT_CONTEXT('',#2,'mechanical');
#9 = PRODUCT_DEFINITION_CONTEXT('part definition',#2,'design');
#10 = MANIFOLD_SURFACE_SHAPE_REPRESENTATION('',(#11,#15),#121);
#11 = AXIS2_PLACEMENT_3D('',#12,#13,#14);
#12 = CARTESIAN_POINT('',(0.,0.,0.));
#13 = DIRECTION('',(0.,0.,1.));
#14 = DIRECTION('',(1.,0.,-0.));
#15 = SHELL_BASED_SURFACE_MODEL('',(#16));
#16 = OPEN_SHELL('',(#17));
#17 = ADVANCED_FACE('',(#18),#40,.T.);
#18 = FACE_BOUND('',#19,.T.);
#19 = EDGE_LOOP('',(#20,#59,#75,#107));
#20 = ORIENTED_EDGE('',*,*,#21,.T.);
#21 = EDGE_CURVE('',#22,#24,#26,.T.);
#22 = VERTEX_POINT('',#23);
#23 = CARTESIAN_POINT('',(0.,-1.587534098167E-03,0.));
#24 = VERTEX_POINT('',#25);
#25 = CARTESIAN_POINT('',(1.,-6.267241057486E-04,0.));
#26 = SURFACE_CURVE('',#27,(#39),.PCURVE_S1.);
#27 = B_SPLINE_CURVE_WITH_KNOTS('',1,(#28,#29,#30,#31,#32,#33,#34,#35,
    #36,#37,#38),.UNSPECIFIED.,.F.,.F.,(2,1,1,1,1,1,1,1,1,1,2),(0.,
    5.392068643239E-02,9.640644584834E-02,0.291758354297,0.371723165996,
    0.509292078126,0.583339897085,0.632696942702,0.789012313592,
    0.879368326563,1.),.UNSPECIFIED.);
#28 = CARTESIAN_POINT('',(0.,-1.587534098167E-03,0.));
#29 = CARTESIAN_POINT('',(5.393894850472E-02,-5.439902337976E-04,0.));
#30 = CARTESIAN_POINT('',(9.638276923774E-02,1.792844533059E-03,0.));
#31 = CARTESIAN_POINT('',(0.291837248955,1.542691942374E-03,0.));
#32 = CARTESIAN_POINT('',(0.371843437533,1.214072124403E-03,0.));
#33 = CARTESIAN_POINT('',(0.509455401403,4.053602317506E-03,0.));
#34 = CARTESIAN_POINT('',(0.583538717691,3.33937367586E-03,0.));
#35 = CARTESIAN_POINT('',(0.632606530245,-2.231138021454E-03,0.));
#36 = CARTESIAN_POINT('',(0.788968432057,1.109032884779E-03,0.));
#37 = CARTESIAN_POINT('',(0.87935510729,2.854610274399E-03,0.));
#38 = CARTESIAN_POINT('',(1.,-6.267241057486E-04,0.));
#39 = PCURVE('',#40,#45);
#40 = PLANE('',#41);
#41 = AXIS2_PLACEMENT_3D('',#42,#43,#44);
#42 = CARTESIAN_POINT('',(0.499596518457,5.E-02,0.));
#43 = DIRECTION('',(0.,0.,1.));
#44 = DIRECTION('',(1.,0.,-0.));
#45 = DEFINITIONAL_REPRESENTATION('',(#46),#58);
#46 = B_SPLINE_CURVE_WITH_KNOTS('',1,(#47,#48,#49,#50,#51,#52,#53,#54,
    #55,#56,#57),.UNSPECIFIED.,.F.,.F.,(2,1,1,1,1,1,1,1,1,1,2),(0.,
    5.392068643239E-02,9.640644584834E-02,0.291758354297,0.371723165996,
    0.509292078126,0.583339897085,0.632696942702,0.789012313592,
    0.879368326563,1.),.UNSPECIFIED.);
#47 = CARTESIAN_POINT('',(-0.499596518457,-5.158753409817E-02));
#48 = CARTESIAN_POINT('',(-0.445657569952,-5.05439902338E-02));
#49 = CARTESIAN_POINT('',(-0.403213749219,-4.820715546694E-02));
#50 = CARTESIAN_POINT('',(-0.207759269502,-4.845730805763E-02));
#51 = CARTESIAN_POINT('',(-0.127753080924,-4.87859278756E-02));
#52 = CARTESIAN_POINT('',(9.858882945833E-03,-4.594639768249E-02));
#53 = CARTESIAN_POINT('',(8.394219923472E-02,-4.666062632414E-02));
#54 = CARTESIAN_POINT('',(0.133010011789,-5.223113802145E-02));
#55 = CARTESIAN_POINT('',(0.2893719136,-4.889096711522E-02));
#56 = CARTESIAN_POINT('',(0.379758588834,-4.71453897256E-02));
#57 = CARTESIAN_POINT('',(0.500403481543,-5.062672410575E-02));
#58 = ( GEOMETRIC_REPRESENTATION_CONTEXT(2) 
PARAMETRIC_REPRESENTATION_CONTEXT() REPRESENTATION_CONTEXT('2D SPACE',''
  ) );
#59 = ORIENTED_EDGE('',*,*,#60,.T.);
#60 = EDGE_CURVE('',#24,#61,#63,.T.);
#61 = VERTEX_POINT('',#62);
#62 = CARTESIAN_POINT('',(1.,0.100626724106,0.));
#63 = SURFACE_CURVE('',#64,(#68),.PCURVE_S1.);
#64 = LINE('',#65,#66);
#65 = CARTESIAN_POINT('',(1.,-6.267241057486E-04,0.));
#66 = VECTOR('',#67,1.);
#67 = DIRECTION('',(0.,1.,0.));
#68 = PCURVE('',#40,#69);
#69 = DEFINITIONAL_REPRESENTATION('',(#70),#74);
#70 = LINE('',#71,#72);
#71 = CARTESIAN_POINT('',(0.500403481543,-5.062672410575E-02));
#72 = VECTOR('',#73,1.);
#73 = DIRECTION('',(0.,1.));
#74 = ( GEOMETRIC_REPRESENTATION_CONTEXT(2) 
PARAMETRIC_REPRESENTATION_CONTEXT() REPRESENTATION_CONTEXT('2D SPACE',''
  ) );
#75 = ORIENTED_EDGE('',*,*,#76,.T.);
#76 = EDGE_CURVE('',#61,#77,#79,.T.);
#77 = VERTEX_POINT('',#78);
#78 = CARTESIAN_POINT('',(0.,0.101587534098,0.));
#79 = SURFACE_CURVE('',#80,(#92),.PCURVE_S1.);
#80 = B_SPLINE_CURVE_WITH_KNOTS('',1,(#81,#82,#83,#84,#85,#86,#87,#88,
    #89,#90,#91),.UNSPECIFIED.,.F.,.F.,(2,1,1,1,1,1,1,1,1,1,2),(0.,
    0.120631673437,0.210987686408,0.367303057298,0.416660102915,
    0.490707921874,0.628276834004,0.708241645703,0.903593554152,
    0.946079313568,1.),.UNSPECIFIED.);
#81 = CARTESIAN_POINT('',(1.,0.100626724106,0.));
#82 = CARTESIAN_POINT('',(0.87935510729,9.71453897256E-02,0.));
#83 = CARTESIAN_POINT('',(0.788968432057,9.889096711522E-02,0.));
#84 = CARTESIAN_POINT('',(0.632606530245,0.102231138021,0.));
#85 = CARTESIAN_POINT('',(0.583538717691,9.666062632414E-02,0.));
#86 = CARTESIAN_POINT('',(0.509455401403,9.594639768249E-02,0.));
#87 = CARTESIAN_POINT('',(0.371843437533,9.87859278756E-02,0.));
#88 = CARTESIAN_POINT('',(0.291837248955,9.845730805763E-02,0.));
#89 = CARTESIAN_POINT('',(9.638276923774E-02,9.820715546694E-02,0.));
#90 = CARTESIAN_POINT('',(5.393894850472E-02,0.100543990234,0.));
#91 = CARTESIAN_POINT('',(0.,0.101587534098,0.));
#92 = PCURVE('',#40,#93);
#93 = DEFINITIONAL_REPRESENTATION('',(#94),#106);
#94 = B_SPLINE_CURVE_WITH_KNOTS('',1,(#95,#96,#97,#98,#99,#100,#101,#102
    ,#103,#104,#105),.UNSPECIFIED.,.F.,.F.,(2,1,1,1,1,1,1,1,1,1,2),(0.,
    0.120631673437,0.210987686408,0.367303057298,0.416660102915,
    0.490707921874,0.628276834004,0.708241645703,0.903593554152,
    0.946079313568,1.),.UNSPECIFIED.);
#95 = CARTESIAN_POINT('',(0.500403481543,5.062672410575E-02));
#96 = CARTESIAN_POINT('',(0.379758588834,4.71453897256E-02));
#97 = CARTESIAN_POINT('',(0.2893719136,4.889096711522E-02));
#98 = CARTESIAN_POINT('',(0.133010011789,5.223113802145E-02));
#99 = CARTESIAN_POINT('',(8.394219923472E-02,4.666062632414E-02));
#100 = CARTESIAN_POINT('',(9.858882945833E-03,4.594639768249E-02));
#101 = CARTESIAN_POINT('',(-0.127753080924,4.87859278756E-02));
#102 = CARTESIAN_POINT('',(-0.207759269502,4.845730805763E-02));
#103 = CARTESIAN_POINT('',(-0.403213749219,4.820715546694E-02));
#104 = CARTESIAN_POINT('',(-0.445657569952,5.05439902338E-02));
#105 = CARTESIAN_POINT('',(-0.499596518457,5.158753409817E-02));
#106 = ( GEOMETRIC_REPRESENTATION_CONTEXT(2) 
PARAMETRIC_REPRESENTATION_CONTEXT() REPRESENTATION_CONTEXT('2D SPACE',''
  ) );
#107 = ORIENTED_EDGE('',*,*,#108,.T.);
#108 = EDGE_CURVE('',#77,#22,#109,.T.);
#109 = SURFACE_CURVE('',#110,(#114),.PCURVE_S1.);
#110 = LINE('',#111,#112);
#111 = CARTESIAN_POINT('',(0.,0.101587534098,0.));
#112 = VECTOR('',#113,1.);
#113 = DIRECTION('',(0.,-1.,0.));
#114 = PCURVE('',#40,#115);
#115 = DEFINITIONAL_REPRESENTATION('',(#116),#120);
#116 = LINE('',#117,#118);
#117 = CARTESIAN_POINT('',(-0.499596518457,5.158753409817E-02));
#118 = VECTOR('',#119,1.);
#119 = DIRECTION('',(0.,-1.));
#120 = ( GEOMETRIC_REPRESENTATION_CONTEXT(2) 
PARAMETRIC_REPRESENTATION_CONTEXT() REPRESENTATION_CONTEXT('2D SPACE',''
  ) );
#121 = ( GEOMETRIC_REPRESENTATION_CONTEXT(3) 
GLOBAL_UNCERTAINTY_ASSIGNED_CONTEXT((#125)) GLOBAL_UNIT_ASSIGNED_CONTEXT
((#122,#123,#124)) REPRESENTATION_CONTEXT('Context #1',
  '3D Context with UNIT and UNCERTAINTY') );
#122 = ( LENGTH_UNIT() NAMED_UNIT(*) SI_UNIT(.MILLI.,.METRE.) );
#123 = ( NAMED_UNIT(*) PLANE_ANGLE_UNIT() SI_UNIT($,.RADIAN.) );
#124 = ( NAMED_UNIT(*) SI_UNIT($,.STERADIAN.) SOLID_ANGLE_UNIT() );
#125 = UNCERTAINTY_MEASURE_WITH_UNIT(LENGTH_MEASURE(1.E-07),#122,
  'distance_accuracy_value','confusion accuracy');
#126 = PRODUCT_RELATED_PRODUCT_CATEGORY('part',$,(#7));
ENDSEC;
END-ISO-10303-21;
