ISO-10303-21;
HEADER;
FILE_DESCRIPTION(('Open CASCADE Model'),'2;1');
FILE_NAME('Open CASCADE Shape Model','2026-06-04T12:09:59',('Author'),(
    'Open CASCADE'),'Open CASCADE STEP processor 7.9','Open CASCADE 7.9'
  ,'Unknown');
FILE_SCHEMA(('AUTOMOTIVE_DESIGN { 1 0 10303 214 1 1 1 1 }'));
ENDSEC;
DATA;
#1 = APPLICATION_PROTOCOL_DEFINITION('international standard',
  'automotive_design',2000,#2);
#2 = APPLICATION_CONTEXT(
  'core data for automotive mechanical design processes');
#3 = SHAPE_DEFINITION_REPRESENTATION(#4,#10);
#4 = PRODUCT_DEFINITION_SHAPE('','',#5);
#5 = PRODUCT_DEFINITION('design','',#6,#9);
#6 = PRODUCT_DEFINITION_FORMATION('','',#7);
#7 = PRODUCT('Open CASCADE STEP translator 7.9 48',
  'Open CASCADE STEP translator 7.9 48','',(#8));
#8 = PRODUCT_CONTEXT('',#2,'mechanical');
#9 = PRODUCT_DEFINITION_CONTEXT('part definition',#2,'design');
#10 = MANIFOLD_SURFACE_SHAPE_REPRESENTATION('',(#11,#15),#121);
#11 = AXIS2_PLACEMENT_3D('',#12,#13,#14);
#12 = CARTESIAN_POINT('',(0.,0.,0.));
#13 = DIRECTION('',(0.,0.,1.));
#14 = DIRECTION('',(1.,0.,-0.));
#15 = SHELL_BASED_SURFACE_MODEL('',(#16));
#16 = OPEN_SHELL('',(#17));
#17 = ADVANCED_FACE('',(#18),#40,.T.);
#18 = FACE_BOUND('',#19,.T.);
#19 = EDGE_LOOP('',(#20,#59,#75,#107));
#20 = ORIENTED_EDGE('',*,*,#21,.T.);
#21 = EDGE_CURVE('',#22,#24,#26,.T.);
#22 = VERTEX_POINT('',#23);
#23 = CARTESIAN_POINT('',(0.,2.75847756036,0.));
#24 = VERTEX_POINT('',#25);
#25 = CARTESIAN_POINT('',(150.,-1.43106427612,0.));
#26 = SURFACE_CURVE('',#27,(#39),.PCURVE_S1.);
#27 = B_SPLINE_CURVE_WITH_KNOTS('',1,(#28,#29,#30,#31,#32,#33,#34,#35,
    #36,#37,#38),.UNSPECIFIED.,.F.,.F.,(2,1,1,1,1,1,1,1,1,1,2),(0.,
    0.202015965994,0.255063991011,0.463953846414,0.539024568958,
    0.593003379291,0.670221754967,0.745521577213,0.791372585786,
    0.835522847118,1.),.UNSPECIFIED.);
#28 = CARTESIAN_POINT('',(0.,2.75847756036,0.));
#29 = CARTESIAN_POINT('',(30.926089899677,0.302203869464,0.));
#30 = CARTESIAN_POINT('',(38.627130881874,-2.354926138124,0.));
#31 = CARTESIAN_POINT('',(70.694775120928,-1.497711713537,0.));
#32 = CARTESIAN_POINT('',(82.131396574509,-2.950846298986,0.));
#33 = CARTESIAN_POINT('',(89.947091852574,-0.188482869583,0.));
#34 = CARTESIAN_POINT('',(101.7803523263,-0.959974312807,0.));
#35 = CARTESIAN_POINT('',(113.14340379009,1.185118313172,0.));
#36 = CARTESIAN_POINT('',(119.02563413956,-2.685213597996,0.));
#37 = CARTESIAN_POINT('',(124.84023735607,0.801987068661,0.));
#38 = CARTESIAN_POINT('',(150.,-1.43106427612,0.));
#39 = PCURVE('',#40,#45);
#40 = PLANE('',#41);
#41 = AXIS2_PLACEMENT_3D('',#42,#43,#44);
#42 = CARTESIAN_POINT('',(77.402343398106,7.5,0.));
#43 = DIRECTION('',(0.,0.,1.));
#44 = DIRECTION('',(1.,0.,-0.));
#45 = DEFINITIONAL_REPRESENTATION('',(#46),#58);
#46 = B_SPLINE_CURVE_WITH_KNOTS('',1,(#47,#48,#49,#50,#51,#52,#53,#54,
    #55,#56,#57),.UNSPECIFIED.,.F.,.F.,(2,1,1,1,1,1,1,1,1,1,2),(0.,
    0.202015965994,0.255063991011,0.463953846414,0.539024568958,
    0.593003379291,0.670221754967,0.745521577213,0.791372585786,
    0.835522847118,1.),.UNSPECIFIED.);
#47 = CARTESIAN_POINT('',(-77.4023433981,-4.74152243964));
#48 = CARTESIAN_POINT('',(-46.47625349842,-7.197796130536));
#49 = CARTESIAN_POINT('',(-38.77521251623,-9.854926138124));
#50 = CARTESIAN_POINT('',(-6.707568277178,-8.997711713537));
#51 = CARTESIAN_POINT('',(4.729053176404,-10.45084629898));
#52 = CARTESIAN_POINT('',(12.544748454468,-7.688482869583));
#53 = CARTESIAN_POINT('',(24.378008928197,-8.459974312807));
#54 = CARTESIAN_POINT('',(35.741060391993,-6.314881686828));
#55 = CARTESIAN_POINT('',(41.623290741459,-10.18521359799));
#56 = CARTESIAN_POINT('',(47.437893957965,-6.698012931339));
#57 = CARTESIAN_POINT('',(72.597656601894,-8.93106427612));
#58 = ( GEOMETRIC_REPRESENTATION_CONTEXT(2) 
PARAMETRIC_REPRESENTATION_CONTEXT() REPRESENTATION_CONTEXT('2D SPACE',''
  ) );
#59 = ORIENTED_EDGE('',*,*,#60,.T.);
#60 = EDGE_CURVE('',#24,#61,#63,.T.);
#61 = VERTEX_POINT('',#62);
#62 = CARTESIAN_POINT('',(150.,16.43106427612,0.));
#63 = SURFACE_CURVE('',#64,(#68),.PCURVE_S1.);
#64 = LINE('',#65,#66);
#65 = CARTESIAN_POINT('',(150.,-1.43106427612,0.));
#66 = VECTOR('',#67,1.);
#67 = DIRECTION('',(0.,1.,0.));
#68 = PCURVE('',#40,#69);
#69 = DEFINITIONAL_REPRESENTATION('',(#70),#74);
#70 = LINE('',#71,#72);
#71 = CARTESIAN_POINT('',(72.597656601894,-8.93106427612));
#72 = VECTOR('',#73,1.);
#73 = DIRECTION('',(0.,1.));
#74 = ( GEOMETRIC_REPRESENTATION_CONTEXT(2) 
PARAMETRIC_REPRESENTATION_CONTEXT() REPRESENTATION_CONTEXT('2D SPACE',''
  ) );
#75 = ORIENTED_EDGE('',*,*,#76,.T.);
#76 = EDGE_CURVE('',#61,#77,#79,.T.);
#77 = VERTEX_POINT('',#78);
#78 = CARTESIAN_POINT('',(0.,12.24152243964,0.));
#79 = SURFACE_CURVE('',#80,(#92),.PCURVE_S1.);
#80 = B_SPLINE_CURVE_WITH_KNOTS('',1,(#81,#82,#83,#84,#85,#86,#87,#88,
    #89,#90,#91),.UNSPECIFIED.,.F.,.F.,(2,1,1,1,1,1,1,1,1,1,2),(0.,
    0.164477152882,0.208627414214,0.254478422787,0.329778245033,
    0.406996620709,0.460975431042,0.536046153586,0.744936008989,
    0.797984034006,1.),.UNSPECIFIED.);
#81 = CARTESIAN_POINT('',(150.,16.43106427612,0.));
#82 = CARTESIAN_POINT('',(124.84023735607,14.198012931339,0.));
#83 = CARTESIAN_POINT('',(119.02563413956,17.685213597996,0.));
#84 = CARTESIAN_POINT('',(113.14340379009,13.814881686828,0.));
#85 = CARTESIAN_POINT('',(101.7803523263,15.959974312807,0.));
#86 = CARTESIAN_POINT('',(89.947091852574,15.188482869583,0.));
#87 = CARTESIAN_POINT('',(82.131396574509,17.950846298986,0.));
#88 = CARTESIAN_POINT('',(70.694775120928,16.497711713537,0.));
#89 = CARTESIAN_POINT('',(38.627130881874,17.354926138124,0.));
#90 = CARTESIAN_POINT('',(30.926089899677,14.697796130536,0.));
#91 = CARTESIAN_POINT('',(0.,12.24152243964,0.));
#92 = PCURVE('',#40,#93);
#93 = DEFINITIONAL_REPRESENTATION('',(#94),#106);
#94 = B_SPLINE_CURVE_WITH_KNOTS('',1,(#95,#96,#97,#98,#99,#100,#101,#102
    ,#103,#104,#105),.UNSPECIFIED.,.F.,.F.,(2,1,1,1,1,1,1,1,1,1,2),(0.,
    0.164477152882,0.208627414214,0.254478422787,0.329778245033,
    0.406996620709,0.460975431042,0.536046153586,0.744936008989,
    0.797984034006,1.),.UNSPECIFIED.);
#95 = CARTESIAN_POINT('',(72.597656601894,8.93106427612));
#96 = CARTESIAN_POINT('',(47.437893957965,6.698012931339));
#97 = CARTESIAN_POINT('',(41.623290741459,10.185213597996));
#98 = CARTESIAN_POINT('',(35.741060391993,6.314881686828));
#99 = CARTESIAN_POINT('',(24.378008928197,8.459974312807));
#100 = CARTESIAN_POINT('',(12.544748454468,7.688482869583));
#101 = CARTESIAN_POINT('',(4.729053176404,10.450846298986));
#102 = CARTESIAN_POINT('',(-6.707568277178,8.997711713537));
#103 = CARTESIAN_POINT('',(-38.77521251623,9.854926138124));
#104 = CARTESIAN_POINT('',(-46.47625349842,7.197796130536));
#105 = CARTESIAN_POINT('',(-77.4023433981,4.74152243964));
#106 = ( GEOMETRIC_REPRESENTATION_CONTEXT(2) 
PARAMETRIC_REPRESENTATION_CONTEXT() REPRESENTATION_CONTEXT('2D SPACE',''
  ) );
#107 = ORIENTED_EDGE('',*,*,#108,.T.);
#108 = EDGE_CURVE('',#77,#22,#109,.T.);
#109 = SURFACE_CURVE('',#110,(#114),.PCURVE_S1.);
#110 = LINE('',#111,#112);
#111 = CARTESIAN_POINT('',(0.,12.24152243964,0.));
#112 = VECTOR('',#113,1.);
#113 = DIRECTION('',(0.,-1.,0.));
#114 = PCURVE('',#40,#115);
#115 = DEFINITIONAL_REPRESENTATION('',(#116),#120);
#116 = LINE('',#117,#118);
#117 = CARTESIAN_POINT('',(-77.4023433981,4.74152243964));
#118 = VECTOR('',#119,1.);
#119 = DIRECTION('',(0.,-1.));
#120 = ( GEOMETRIC_REPRESENTATION_CONTEXT(2) 
PARAMETRIC_REPRESENTATION_CONTEXT() REPRESENTATION_CONTEXT('2D SPACE',''
  ) );
#121 = ( GEOMETRIC_REPRESENTATION_CONTEXT(3) 
GLOBAL_UNCERTAINTY_ASSIGNED_CONTEXT((#125)) GLOBAL_UNIT_ASSIGNED_CONTEXT
((#122,#123,#124)) REPRESENTATION_CONTEXT('Context #1',
  '3D Context with UNIT and UNCERTAINTY') );
#122 = ( LENGTH_UNIT() NAMED_UNIT(*) SI_UNIT(.MILLI.,.METRE.) );
#123 = ( NAMED_UNIT(*) PLANE_ANGLE_UNIT() SI_UNIT($,.RADIAN.) );
#124 = ( NAMED_UNIT(*) SI_UNIT($,.STERADIAN.) SOLID_ANGLE_UNIT() );
#125 = UNCERTAINTY_MEASURE_WITH_UNIT(LENGTH_MEASURE(1.E-07),#122,
  'distance_accuracy_value','confusion accuracy');
#126 = PRODUCT_RELATED_PRODUCT_CATEGORY('part',$,(#7));
ENDSEC;
END-ISO-10303-21;
