ISO-10303-21;
HEADER;
FILE_DESCRIPTION(('Open CASCADE Model'),'2;1');
FILE_NAME('Open CASCADE Shape Model','2026-06-04T12:09:59',('Author'),(
    'Open CASCADE'),'Open CASCADE STEP processor 7.9','Open CASCADE 7.9'
  ,'Unknown');
FILE_SCHEMA(('AUTOMOTIVE_DESIGN { 1 0 10303 214 1 1 1 1 }'));
ENDSEC;
DATA;
#1 = APPLICATION_PROTOCOL_DEFINITION('international standard',
  'automotive_design',2000,#2);
#2 = APPLICATION_CONTEXT(
  'core data for automotive mechanical design processes');
#3 = SHAPE_DEFINITION_REPRESENTATION(#4,#10);
#4 = PRODUCT_DEFINITION_SHAPE('','',#5);
#5 = PRODUCT_DEFINITION('design','',#6,#9);
#6 = PRODUCT_DEFINITION_FORMATION('','',#7);
#7 = PRODUCT('Open CASCADE STEP translator 7.9 27',
  'Open CASCADE STEP translator 7.9 27','',(#8));
#8 = PRODUCT_CONTEXT('',#2,'mechanical');
#9 = PRODUCT_DEFINITION_CONTEXT('part definition',#2,'design');
#10 = MANIFOLD_SURFACE_SHAPE_REPRESENTATION('',(#11,#15),#121);
#11 = AXIS2_PLACEMENT_3D('',#12,#13,#14);
#12 = CARTESIAN_POINT('',(0.,0.,0.));
#13 = DIRECTION('',(0.,0.,1.));
#14 = DIRECTION('',(1.,0.,-0.));
#15 = SHELL_BASED_SURFACE_MODEL('',(#16));
#16 = OPEN_SHELL('',(#17));
#17 = ADVANCED_FACE('',(#18),#40,.T.);
#18 = FACE_BOUND('',#19,.T.);
#19 = EDGE_LOOP('',(#20,#59,#75,#107));
#20 = ORIENTED_EDGE('',*,*,#21,.T.);
#21 = EDGE_CURVE('',#22,#24,#26,.T.);
#22 = VERTEX_POINT('',#23);
#23 = CARTESIAN_POINT('',(0.,-0.894894300806,0.));
#24 = VERTEX_POINT('',#25);
#25 = CARTESIAN_POINT('',(150.,-2.112093101287,0.));
#26 = SURFACE_CURVE('',#27,(#39),.PCURVE_S1.);
#27 = B_SPLINE_CURVE_WITH_KNOTS('',1,(#28,#29,#30,#31,#32,#33,#34,#35,
    #36,#37,#38),.UNSPECIFIED.,.F.,.F.,(2,1,1,1,1,1,1,1,1,1,2),(0.,
    2.353500008173E-02,8.867435784675E-02,0.187904204824,0.232957205776,
    0.398871731665,0.521747579472,0.561877692158,0.630520964198,
    0.916819783881,1.),.UNSPECIFIED.);
#28 = CARTESIAN_POINT('',(0.,-0.894894300806,0.));
#29 = CARTESIAN_POINT('',(3.575543371671,-1.021219532108,0.));
#30 = CARTESIAN_POINT('',(13.462350355557,-1.577418114237,0.));
#31 = CARTESIAN_POINT('',(27.942346327891,2.651349109671,0.));
#32 = CARTESIAN_POINT('',(34.536403033437,0.800349690404,0.));
#33 = CARTESIAN_POINT('',(59.73726500569,-0.23716461157,0.));
#34 = CARTESIAN_POINT('',(78.377765810459,0.969261100216,0.));
#35 = CARTESIAN_POINT('',(83.669137890243,-2.066873239723,0.));
#36 = CARTESIAN_POINT('',(93.875812820414,0.104564948476,0.));
#37 = CARTESIAN_POINT('',(137.36490395224,-1.611765536756,0.));
#38 = CARTESIAN_POINT('',(150.,-2.112093101287,0.));
#39 = PCURVE('',#40,#45);
#40 = PLANE('',#41);
#41 = AXIS2_PLACEMENT_3D('',#42,#43,#44);
#42 = CARTESIAN_POINT('',(75.325482752002,7.5,0.));
#43 = DIRECTION('',(0.,0.,1.));
#44 = DIRECTION('',(1.,0.,-0.));
#45 = DEFINITIONAL_REPRESENTATION('',(#46),#58);
#46 = B_SPLINE_CURVE_WITH_KNOTS('',1,(#47,#48,#49,#50,#51,#52,#53,#54,
    #55,#56,#57),.UNSPECIFIED.,.F.,.F.,(2,1,1,1,1,1,1,1,1,1,2),(0.,
    2.353500008173E-02,8.867435784675E-02,0.187904204824,0.232957205776,
    0.398871731665,0.521747579472,0.561877692158,0.630520964198,
    0.916819783881,1.),.UNSPECIFIED.);
#47 = CARTESIAN_POINT('',(-75.325482752,-8.394894300806));
#48 = CARTESIAN_POINT('',(-71.74993938033,-8.521219532108));
#49 = CARTESIAN_POINT('',(-61.86313239644,-9.077418114237));
#50 = CARTESIAN_POINT('',(-47.38313642411,-4.848650890329));
#51 = CARTESIAN_POINT('',(-40.78907971856,-6.699650309596));
#52 = CARTESIAN_POINT('',(-15.58821774631,-7.73716461157));
#53 = CARTESIAN_POINT('',(3.052283058458,-6.530738899784));
#54 = CARTESIAN_POINT('',(8.343655138242,-9.566873239723));
#55 = CARTESIAN_POINT('',(18.550330068412,-7.395435051524));
#56 = CARTESIAN_POINT('',(62.039421200243,-9.111765536756));
#57 = CARTESIAN_POINT('',(74.674517247998,-9.612093101287));
#58 = ( GEOMETRIC_REPRESENTATION_CONTEXT(2) 
PARAMETRIC_REPRESENTATION_CONTEXT() REPRESENTATION_CONTEXT('2D SPACE',''
  ) );
#59 = ORIENTED_EDGE('',*,*,#60,.T.);
#60 = EDGE_CURVE('',#24,#61,#63,.T.);
#61 = VERTEX_POINT('',#62);
#62 = CARTESIAN_POINT('',(150.,17.112093101287,0.));
#63 = SURFACE_CURVE('',#64,(#68),.PCURVE_S1.);
#64 = LINE('',#65,#66);
#65 = CARTESIAN_POINT('',(150.,-2.112093101287,0.));
#66 = VECTOR('',#67,1.);
#67 = DIRECTION('',(0.,1.,0.));
#68 = PCURVE('',#40,#69);
#69 = DEFINITIONAL_REPRESENTATION('',(#70),#74);
#70 = LINE('',#71,#72);
#71 = CARTESIAN_POINT('',(74.674517247998,-9.612093101287));
#72 = VECTOR('',#73,1.);
#73 = DIRECTION('',(0.,1.));
#74 = ( GEOMETRIC_REPRESENTATION_CONTEXT(2) 
PARAMETRIC_REPRESENTATION_CONTEXT() REPRESENTATION_CONTEXT('2D SPACE',''
  ) );
#75 = ORIENTED_EDGE('',*,*,#76,.T.);
#76 = EDGE_CURVE('',#61,#77,#79,.T.);
#77 = VERTEX_POINT('',#78);
#78 = CARTESIAN_POINT('',(0.,15.894894300806,0.));
#79 = SURFACE_CURVE('',#80,(#92),.PCURVE_S1.);
#80 = B_SPLINE_CURVE_WITH_KNOTS('',1,(#81,#82,#83,#84,#85,#86,#87,#88,
    #89,#90,#91),.UNSPECIFIED.,.F.,.F.,(2,1,1,1,1,1,1,1,1,1,2),(0.,
    8.318021611896E-02,0.369479035802,0.438122307842,0.478252420528,
    0.601128268335,0.767042794224,0.812095795176,0.911325642153,
    0.976464999918,1.),.UNSPECIFIED.);
#81 = CARTESIAN_POINT('',(150.,17.112093101287,0.));
#82 = CARTESIAN_POINT('',(137.36490395224,16.611765536756,0.));
#83 = CARTESIAN_POINT('',(93.875812820414,14.895435051524,0.));
#84 = CARTESIAN_POINT('',(83.669137890243,17.066873239723,0.));
#85 = CARTESIAN_POINT('',(78.377765810459,14.030738899784,0.));
#86 = CARTESIAN_POINT('',(59.73726500569,15.23716461157,0.));
#87 = CARTESIAN_POINT('',(34.536403033437,14.199650309596,0.));
#88 = CARTESIAN_POINT('',(27.942346327891,12.348650890329,0.));
#89 = CARTESIAN_POINT('',(13.462350355557,16.577418114237,0.));
#90 = CARTESIAN_POINT('',(3.575543371671,16.021219532108,0.));
#91 = CARTESIAN_POINT('',(0.,15.894894300806,0.));
#92 = PCURVE('',#40,#93);
#93 = DEFINITIONAL_REPRESENTATION('',(#94),#106);
#94 = B_SPLINE_CURVE_WITH_KNOTS('',1,(#95,#96,#97,#98,#99,#100,#101,#102
    ,#103,#104,#105),.UNSPECIFIED.,.F.,.F.,(2,1,1,1,1,1,1,1,1,1,2),(0.,
    8.318021611896E-02,0.369479035802,0.438122307842,0.478252420528,
    0.601128268335,0.767042794224,0.812095795176,0.911325642153,
    0.976464999918,1.),.UNSPECIFIED.);
#95 = CARTESIAN_POINT('',(74.674517247998,9.612093101287));
#96 = CARTESIAN_POINT('',(62.039421200243,9.111765536756));
#97 = CARTESIAN_POINT('',(18.550330068412,7.395435051524));
#98 = CARTESIAN_POINT('',(8.343655138242,9.566873239723));
#99 = CARTESIAN_POINT('',(3.052283058458,6.530738899784));
#100 = CARTESIAN_POINT('',(-15.58821774631,7.73716461157));
#101 = CARTESIAN_POINT('',(-40.78907971856,6.699650309596));
#102 = CARTESIAN_POINT('',(-47.38313642411,4.848650890329));
#103 = CARTESIAN_POINT('',(-61.86313239644,9.077418114237));
#104 = CARTESIAN_POINT('',(-71.74993938033,8.521219532108));
#105 = CARTESIAN_POINT('',(-75.325482752,8.394894300806));
#106 = ( GEOMETRIC_REPRESENTATION_CONTEXT(2) 
PARAMETRIC_REPRESENTATION_CONTEXT() REPRESENTATION_CONTEXT('2D SPACE',''
  ) );
#107 = ORIENTED_EDGE('',*,*,#108,.T.);
#108 = EDGE_CURVE('',#77,#22,#109,.T.);
#109 = SURFACE_CURVE('',#110,(#114),.PCURVE_S1.);
#110 = LINE('',#111,#112);
#111 = CARTESIAN_POINT('',(0.,15.894894300806,0.));
#112 = VECTOR('',#113,1.);
#113 = DIRECTION('',(0.,-1.,0.));
#114 = PCURVE('',#40,#115);
#115 = DEFINITIONAL_REPRESENTATION('',(#116),#120);
#116 = LINE('',#117,#118);
#117 = CARTESIAN_POINT('',(-75.325482752,8.394894300806));
#118 = VECTOR('',#119,1.);
#119 = DIRECTION('',(0.,-1.));
#120 = ( GEOMETRIC_REPRESENTATION_CONTEXT(2) 
PARAMETRIC_REPRESENTATION_CONTEXT() REPRESENTATION_CONTEXT('2D SPACE',''
  ) );
#121 = ( GEOMETRIC_REPRESENTATION_CONTEXT(3) 
GLOBAL_UNCERTAINTY_ASSIGNED_CONTEXT((#125)) GLOBAL_UNIT_ASSIGNED_CONTEXT
((#122,#123,#124)) REPRESENTATION_CONTEXT('Context #1',
  '3D Context with UNIT and UNCERTAINTY') );
#122 = ( LENGTH_UNIT() NAMED_UNIT(*) SI_UNIT(.MILLI.,.METRE.) );
#123 = ( NAMED_UNIT(*) PLANE_ANGLE_UNIT() SI_UNIT($,.RADIAN.) );
#124 = ( NAMED_UNIT(*) SI_UNIT($,.STERADIAN.) SOLID_ANGLE_UNIT() );
#125 = UNCERTAINTY_MEASURE_WITH_UNIT(LENGTH_MEASURE(1.E-07),#122,
  'distance_accuracy_value','confusion accuracy');
#126 = PRODUCT_RELATED_PRODUCT_CATEGORY('part',$,(#7));
ENDSEC;
END-ISO-10303-21;
