ISO-10303-21;
HEADER;
FILE_DESCRIPTION(('Open CASCADE Model'),'2;1');
FILE_NAME('Open CASCADE Shape Model','2026-06-04T14:36:37',('Author'),(
    'Open CASCADE'),'Open CASCADE STEP processor 7.9','Open CASCADE 7.9'
  ,'Unknown');
FILE_SCHEMA(('AUTOMOTIVE_DESIGN { 1 0 10303 214 1 1 1 1 }'));
ENDSEC;
DATA;
#1 = APPLICATION_PROTOCOL_DEFINITION('international standard',
  'automotive_design',2000,#2);
#2 = APPLICATION_CONTEXT(
  'core data for automotive mechanical design processes');
#3 = SHAPE_DEFINITION_REPRESENTATION(#4,#10);
#4 = PRODUCT_DEFINITION_SHAPE('','',#5);
#5 = PRODUCT_DEFINITION('design','',#6,#9);
#6 = PRODUCT_DEFINITION_FORMATION('','',#7);
#7 = PRODUCT('Open CASCADE STEP translator 7.9 91',
  'Open CASCADE STEP translator 7.9 91','',(#8));
#8 = PRODUCT_CONTEXT('',#2,'mechanical');
#9 = PRODUCT_DEFINITION_CONTEXT('part definition',#2,'design');
#10 = MANIFOLD_SURFACE_SHAPE_REPRESENTATION('',(#11,#15),#121);
#11 = AXIS2_PLACEMENT_3D('',#12,#13,#14);
#12 = CARTESIAN_POINT('',(0.,0.,0.));
#13 = DIRECTION('',(0.,0.,1.));
#14 = DIRECTION('',(1.,0.,-0.));
#15 = SHELL_BASED_SURFACE_MODEL('',(#16));
#16 = OPEN_SHELL('',(#17));
#17 = ADVANCED_FACE('',(#18),#40,.T.);
#18 = FACE_BOUND('',#19,.T.);
#19 = EDGE_LOOP('',(#20,#59,#75,#107));
#20 = ORIENTED_EDGE('',*,*,#21,.T.);
#21 = EDGE_CURVE('',#22,#24,#26,.T.);
#22 = VERTEX_POINT('',#23);
#23 = CARTESIAN_POINT('',(0.,-1.104041091743E-03,0.));
#24 = VERTEX_POINT('',#25);
#25 = CARTESIAN_POINT('',(1.,4.510559826736E-04,0.));
#26 = SURFACE_CURVE('',#27,(#39),.PCURVE_S1.);
#27 = B_SPLINE_CURVE_WITH_KNOTS('',1,(#28,#29,#30,#31,#32,#33,#34,#35,
    #36,#37,#38),.UNSPECIFIED.,.F.,.F.,(2,1,1,1,1,1,1,1,1,1,2),(0.,
    0.11459221673,0.291622121278,0.377883017872,0.592407572177,
    0.637142725861,0.68177776371,0.773510166115,0.796505246929,
    0.859077134823,1.),.UNSPECIFIED.);
#28 = CARTESIAN_POINT('',(0.,-1.104041091743E-03,0.));
#29 = CARTESIAN_POINT('',(0.114635468636,-2.766484358887E-03,0.));
#30 = CARTESIAN_POINT('',(0.291750489258,-3.105197156598E-03,0.));
#31 = CARTESIAN_POINT('',(0.378047360813,-2.117058209194E-03,0.));
#32 = CARTESIAN_POINT('',(0.592589058939,3.972023038553E-03,0.));
#33 = CARTESIAN_POINT('',(0.637190752026,2.497755599564E-04,0.));
#34 = CARTESIAN_POINT('',(0.681828873737,-1.034059574876E-03,0.));
#35 = CARTESIAN_POINT('',(0.773535761011,2.544339611905E-03,0.));
#36 = CARTESIAN_POINT('',(0.796452191613,4.574481823532E-03,0.));
#37 = CARTESIAN_POINT('',(0.859028095911,2.76409679124E-03,0.));
#38 = CARTESIAN_POINT('',(1.,4.510559826736E-04,0.));
#39 = PCURVE('',#40,#45);
#40 = PLANE('',#41);
#41 = AXIS2_PLACEMENT_3D('',#42,#43,#44);
#42 = CARTESIAN_POINT('',(0.499358637843,5.E-02,0.));
#43 = DIRECTION('',(0.,0.,1.));
#44 = DIRECTION('',(1.,0.,-0.));
#45 = DEFINITIONAL_REPRESENTATION('',(#46),#58);
#46 = B_SPLINE_CURVE_WITH_KNOTS('',1,(#47,#48,#49,#50,#51,#52,#53,#54,
    #55,#56,#57),.UNSPECIFIED.,.F.,.F.,(2,1,1,1,1,1,1,1,1,1,2),(0.,
    0.11459221673,0.291622121278,0.377883017872,0.592407572177,
    0.637142725861,0.68177776371,0.773510166115,0.796505246929,
    0.859077134823,1.),.UNSPECIFIED.);
#47 = CARTESIAN_POINT('',(-0.499358637843,-5.110404109174E-02));
#48 = CARTESIAN_POINT('',(-0.384723169207,-5.276648435889E-02));
#49 = CARTESIAN_POINT('',(-0.207608148585,-5.31051971566E-02));
#50 = CARTESIAN_POINT('',(-0.121311277029,-5.211705820919E-02));
#51 = CARTESIAN_POINT('',(9.323042109651E-02,-4.602797696145E-02));
#52 = CARTESIAN_POINT('',(0.137832114183,-4.975022444004E-02));
#53 = CARTESIAN_POINT('',(0.182470235894,-5.103405957488E-02));
#54 = CARTESIAN_POINT('',(0.274177123168,-4.745566038809E-02));
#55 = CARTESIAN_POINT('',(0.297093553771,-4.542551817647E-02));
#56 = CARTESIAN_POINT('',(0.359669458068,-4.723590320876E-02));
#57 = CARTESIAN_POINT('',(0.500641362157,-4.954894401733E-02));
#58 = ( GEOMETRIC_REPRESENTATION_CONTEXT(2) 
PARAMETRIC_REPRESENTATION_CONTEXT() REPRESENTATION_CONTEXT('2D SPACE',''
  ) );
#59 = ORIENTED_EDGE('',*,*,#60,.T.);
#60 = EDGE_CURVE('',#24,#61,#63,.T.);
#61 = VERTEX_POINT('',#62);
#62 = CARTESIAN_POINT('',(1.,9.954894401733E-02,0.));
#63 = SURFACE_CURVE('',#64,(#68),.PCURVE_S1.);
#64 = LINE('',#65,#66);
#65 = CARTESIAN_POINT('',(1.,4.510559826736E-04,0.));
#66 = VECTOR('',#67,1.);
#67 = DIRECTION('',(0.,1.,0.));
#68 = PCURVE('',#40,#69);
#69 = DEFINITIONAL_REPRESENTATION('',(#70),#74);
#70 = LINE('',#71,#72);
#71 = CARTESIAN_POINT('',(0.500641362157,-4.954894401733E-02));
#72 = VECTOR('',#73,1.);
#73 = DIRECTION('',(0.,1.));
#74 = ( GEOMETRIC_REPRESENTATION_CONTEXT(2) 
PARAMETRIC_REPRESENTATION_CONTEXT() REPRESENTATION_CONTEXT('2D SPACE',''
  ) );
#75 = ORIENTED_EDGE('',*,*,#76,.T.);
#76 = EDGE_CURVE('',#61,#77,#79,.T.);
#77 = VERTEX_POINT('',#78);
#78 = CARTESIAN_POINT('',(0.,0.101104041092,0.));
#79 = SURFACE_CURVE('',#80,(#92),.PCURVE_S1.);
#80 = B_SPLINE_CURVE_WITH_KNOTS('',1,(#81,#82,#83,#84,#85,#86,#87,#88,
    #89,#90,#91),.UNSPECIFIED.,.F.,.F.,(2,1,1,1,1,1,1,1,1,1,2),(0.,
    0.140922865177,0.203494753071,0.226489833885,0.31822223629,
    0.362857274139,0.407592427823,0.622116982128,0.708377878722,
    0.88540778327,1.),.UNSPECIFIED.);
#81 = CARTESIAN_POINT('',(1.,9.954894401733E-02,0.));
#82 = CARTESIAN_POINT('',(0.859028095911,9.723590320876E-02,0.));
#83 = CARTESIAN_POINT('',(0.796452191613,9.542551817647E-02,0.));
#84 = CARTESIAN_POINT('',(0.773535761011,9.745566038809E-02,0.));
#85 = CARTESIAN_POINT('',(0.681828873737,0.101034059575,0.));
#86 = CARTESIAN_POINT('',(0.637190752026,9.975022444004E-02,0.));
#87 = CARTESIAN_POINT('',(0.592589058939,9.602797696145E-02,0.));
#88 = CARTESIAN_POINT('',(0.378047360813,0.102117058209,0.));
#89 = CARTESIAN_POINT('',(0.291750489258,0.103105197157,0.));
#90 = CARTESIAN_POINT('',(0.114635468636,0.102766484359,0.));
#91 = CARTESIAN_POINT('',(0.,0.101104041092,0.));
#92 = PCURVE('',#40,#93);
#93 = DEFINITIONAL_REPRESENTATION('',(#94),#106);
#94 = B_SPLINE_CURVE_WITH_KNOTS('',1,(#95,#96,#97,#98,#99,#100,#101,#102
    ,#103,#104,#105),.UNSPECIFIED.,.F.,.F.,(2,1,1,1,1,1,1,1,1,1,2),(0.,
    0.140922865177,0.203494753071,0.226489833885,0.31822223629,
    0.362857274139,0.407592427823,0.622116982128,0.708377878722,
    0.88540778327,1.),.UNSPECIFIED.);
#95 = CARTESIAN_POINT('',(0.500641362157,4.954894401733E-02));
#96 = CARTESIAN_POINT('',(0.359669458068,4.723590320876E-02));
#97 = CARTESIAN_POINT('',(0.297093553771,4.542551817647E-02));
#98 = CARTESIAN_POINT('',(0.274177123168,4.745566038809E-02));
#99 = CARTESIAN_POINT('',(0.182470235894,5.103405957488E-02));
#100 = CARTESIAN_POINT('',(0.137832114183,4.975022444004E-02));
#101 = CARTESIAN_POINT('',(9.323042109651E-02,4.602797696145E-02));
#102 = CARTESIAN_POINT('',(-0.121311277029,5.211705820919E-02));
#103 = CARTESIAN_POINT('',(-0.207608148585,5.31051971566E-02));
#104 = CARTESIAN_POINT('',(-0.384723169207,5.276648435889E-02));
#105 = CARTESIAN_POINT('',(-0.499358637843,5.110404109174E-02));
#106 = ( GEOMETRIC_REPRESENTATION_CONTEXT(2) 
PARAMETRIC_REPRESENTATION_CONTEXT() REPRESENTATION_CONTEXT('2D SPACE',''
  ) );
#107 = ORIENTED_EDGE('',*,*,#108,.T.);
#108 = EDGE_CURVE('',#77,#22,#109,.T.);
#109 = SURFACE_CURVE('',#110,(#114),.PCURVE_S1.);
#110 = LINE('',#111,#112);
#111 = CARTESIAN_POINT('',(0.,0.101104041092,0.));
#112 = VECTOR('',#113,1.);
#113 = DIRECTION('',(0.,-1.,0.));
#114 = PCURVE('',#40,#115);
#115 = DEFINITIONAL_REPRESENTATION('',(#116),#120);
#116 = LINE('',#117,#118);
#117 = CARTESIAN_POINT('',(-0.499358637843,5.110404109174E-02));
#118 = VECTOR('',#119,1.);
#119 = DIRECTION('',(0.,-1.));
#120 = ( GEOMETRIC_REPRESENTATION_CONTEXT(2) 
PARAMETRIC_REPRESENTATION_CONTEXT() REPRESENTATION_CONTEXT('2D SPACE',''
  ) );
#121 = ( GEOMETRIC_REPRESENTATION_CONTEXT(3) 
GLOBAL_UNCERTAINTY_ASSIGNED_CONTEXT((#125)) GLOBAL_UNIT_ASSIGNED_CONTEXT
((#122,#123,#124)) REPRESENTATION_CONTEXT('Context #1',
  '3D Context with UNIT and UNCERTAINTY') );
#122 = ( LENGTH_UNIT() NAMED_UNIT(*) SI_UNIT(.MILLI.,.METRE.) );
#123 = ( NAMED_UNIT(*) PLANE_ANGLE_UNIT() SI_UNIT($,.RADIAN.) );
#124 = ( NAMED_UNIT(*) SI_UNIT($,.STERADIAN.) SOLID_ANGLE_UNIT() );
#125 = UNCERTAINTY_MEASURE_WITH_UNIT(LENGTH_MEASURE(1.E-07),#122,
  'distance_accuracy_value','confusion accuracy');
#126 = PRODUCT_RELATED_PRODUCT_CATEGORY('part',$,(#7));
ENDSEC;
END-ISO-10303-21;
