ISO-10303-21;
HEADER;
FILE_DESCRIPTION(('Open CASCADE Model'),'2;1');
FILE_NAME('Open CASCADE Shape Model','2026-06-04T14:36:37',('Author'),(
    'Open CASCADE'),'Open CASCADE STEP processor 7.9','Open CASCADE 7.9'
  ,'Unknown');
FILE_SCHEMA(('AUTOMOTIVE_DESIGN { 1 0 10303 214 1 1 1 1 }'));
ENDSEC;
DATA;
#1 = APPLICATION_PROTOCOL_DEFINITION('international standard',
  'automotive_design',2000,#2);
#2 = APPLICATION_CONTEXT(
  'core data for automotive mechanical design processes');
#3 = SHAPE_DEFINITION_REPRESENTATION(#4,#10);
#4 = PRODUCT_DEFINITION_SHAPE('','',#5);
#5 = PRODUCT_DEFINITION('design','',#6,#9);
#6 = PRODUCT_DEFINITION_FORMATION('','',#7);
#7 = PRODUCT('Open CASCADE STEP translator 7.9 100',
  'Open CASCADE STEP translator 7.9 100','',(#8));
#8 = PRODUCT_CONTEXT('',#2,'mechanical');
#9 = PRODUCT_DEFINITION_CONTEXT('part definition',#2,'design');
#10 = MANIFOLD_SURFACE_SHAPE_REPRESENTATION('',(#11,#15),#121);
#11 = AXIS2_PLACEMENT_3D('',#12,#13,#14);
#12 = CARTESIAN_POINT('',(0.,0.,0.));
#13 = DIRECTION('',(0.,0.,1.));
#14 = DIRECTION('',(1.,0.,-0.));
#15 = SHELL_BASED_SURFACE_MODEL('',(#16));
#16 = OPEN_SHELL('',(#17));
#17 = ADVANCED_FACE('',(#18),#40,.T.);
#18 = FACE_BOUND('',#19,.T.);
#19 = EDGE_LOOP('',(#20,#59,#75,#107));
#20 = ORIENTED_EDGE('',*,*,#21,.T.);
#21 = EDGE_CURVE('',#22,#24,#26,.T.);
#22 = VERTEX_POINT('',#23);
#23 = CARTESIAN_POINT('',(0.,2.206451878063E-03,0.));
#24 = VERTEX_POINT('',#25);
#25 = CARTESIAN_POINT('',(1.,-4.908097655511E-03,0.));
#26 = SURFACE_CURVE('',#27,(#39),.PCURVE_S1.);
#27 = B_SPLINE_CURVE_WITH_KNOTS('',1,(#28,#29,#30,#31,#32,#33,#34,#35,
    #36,#37,#38),.UNSPECIFIED.,.F.,.F.,(2,1,1,1,1,1,1,1,1,1,2),(0.,
    0.146123598795,0.509100999239,0.539107242584,0.612051722903,
    0.673579380919,0.710924508942,0.781840347247,0.876624656007,
    0.973779443971,1.),.UNSPECIFIED.);
#28 = CARTESIAN_POINT('',(0.,2.206451878063E-03,0.));
#29 = CARTESIAN_POINT('',(0.146174736172,3.070582635065E-03,0.));
#30 = CARTESIAN_POINT('',(0.509280761361,1.213790725655E-03,0.));
#31 = CARTESIAN_POINT('',(0.539297958788,1.14832262644E-03,0.));
#32 = CARTESIAN_POINT('',(0.612267781778,1.609922593971E-03,0.));
#33 = CARTESIAN_POINT('',(0.673817947682,1.720761164693E-03,0.));
#34 = CARTESIAN_POINT('',(0.711100787012,4.102687222587E-03,0.));
#35 = CARTESIAN_POINT('',(0.782039747981,4.747950528738E-03,0.));
#36 = CARTESIAN_POINT('',(0.87684237931,2.978856998435E-03,0.));
#37 = CARTESIAN_POINT('',(0.973874537575,-2.566494274166E-03,0.));
#38 = CARTESIAN_POINT('',(1.,-4.908097655511E-03,0.));
#39 = PCURVE('',#40,#45);
#40 = PLANE('',#41);
#41 = AXIS2_PLACEMENT_3D('',#42,#43,#44);
#42 = CARTESIAN_POINT('',(0.503349405224,5.E-02,0.));
#43 = DIRECTION('',(0.,0.,1.));
#44 = DIRECTION('',(1.,0.,-0.));
#45 = DEFINITIONAL_REPRESENTATION('',(#46),#58);
#46 = B_SPLINE_CURVE_WITH_KNOTS('',1,(#47,#48,#49,#50,#51,#52,#53,#54,
    #55,#56,#57),.UNSPECIFIED.,.F.,.F.,(2,1,1,1,1,1,1,1,1,1,2),(0.,
    0.146123598795,0.509100999239,0.539107242584,0.612051722903,
    0.673579380919,0.710924508942,0.781840347247,0.876624656007,
    0.973779443971,1.),.UNSPECIFIED.);
#47 = CARTESIAN_POINT('',(-0.503349405224,-4.779354812194E-02));
#48 = CARTESIAN_POINT('',(-0.357174669052,-4.692941736493E-02));
#49 = CARTESIAN_POINT('',(5.93135613749E-03,-4.878620927435E-02));
#50 = CARTESIAN_POINT('',(3.59485535642E-02,-4.885167737356E-02));
#51 = CARTESIAN_POINT('',(0.108918376555,-4.839007740603E-02));
#52 = CARTESIAN_POINT('',(0.170468542458,-4.827923883531E-02));
#53 = CARTESIAN_POINT('',(0.207751381788,-4.589731277741E-02));
#54 = CARTESIAN_POINT('',(0.278690342757,-4.525204947126E-02));
#55 = CARTESIAN_POINT('',(0.373492974086,-4.702114300156E-02));
#56 = CARTESIAN_POINT('',(0.470525132351,-5.256649427417E-02));
#57 = CARTESIAN_POINT('',(0.496650594776,-5.490809765551E-02));
#58 = ( GEOMETRIC_REPRESENTATION_CONTEXT(2) 
PARAMETRIC_REPRESENTATION_CONTEXT() REPRESENTATION_CONTEXT('2D SPACE',''
  ) );
#59 = ORIENTED_EDGE('',*,*,#60,.T.);
#60 = EDGE_CURVE('',#24,#61,#63,.T.);
#61 = VERTEX_POINT('',#62);
#62 = CARTESIAN_POINT('',(1.,0.104908097656,0.));
#63 = SURFACE_CURVE('',#64,(#68),.PCURVE_S1.);
#64 = LINE('',#65,#66);
#65 = CARTESIAN_POINT('',(1.,-4.908097655511E-03,0.));
#66 = VECTOR('',#67,1.);
#67 = DIRECTION('',(0.,1.,0.));
#68 = PCURVE('',#40,#69);
#69 = DEFINITIONAL_REPRESENTATION('',(#70),#74);
#70 = LINE('',#71,#72);
#71 = CARTESIAN_POINT('',(0.496650594776,-5.490809765551E-02));
#72 = VECTOR('',#73,1.);
#73 = DIRECTION('',(0.,1.));
#74 = ( GEOMETRIC_REPRESENTATION_CONTEXT(2) 
PARAMETRIC_REPRESENTATION_CONTEXT() REPRESENTATION_CONTEXT('2D SPACE',''
  ) );
#75 = ORIENTED_EDGE('',*,*,#76,.T.);
#76 = EDGE_CURVE('',#61,#77,#79,.T.);
#77 = VERTEX_POINT('',#78);
#78 = CARTESIAN_POINT('',(0.,9.779354812194E-02,0.));
#79 = SURFACE_CURVE('',#80,(#92),.PCURVE_S1.);
#80 = B_SPLINE_CURVE_WITH_KNOTS('',1,(#81,#82,#83,#84,#85,#86,#87,#88,
    #89,#90,#91),.UNSPECIFIED.,.F.,.F.,(2,1,1,1,1,1,1,1,1,1,2),(0.,
    2.622055602865E-02,0.123375343993,0.218159652753,0.289075491058,
    0.326420619081,0.387948277097,0.460892757416,0.490899000761,
    0.853876401205,1.),.UNSPECIFIED.);
#81 = CARTESIAN_POINT('',(1.,0.104908097656,0.));
#82 = CARTESIAN_POINT('',(0.973874537575,0.102566494274,0.));
#83 = CARTESIAN_POINT('',(0.87684237931,9.702114300156E-02,0.));
#84 = CARTESIAN_POINT('',(0.782039747981,9.525204947126E-02,0.));
#85 = CARTESIAN_POINT('',(0.711100787012,9.589731277741E-02,0.));
#86 = CARTESIAN_POINT('',(0.673817947682,9.827923883531E-02,0.));
#87 = CARTESIAN_POINT('',(0.612267781778,9.839007740603E-02,0.));
#88 = CARTESIAN_POINT('',(0.539297958788,9.885167737356E-02,0.));
#89 = CARTESIAN_POINT('',(0.509280761361,9.878620927435E-02,0.));
#90 = CARTESIAN_POINT('',(0.146174736172,9.692941736493E-02,0.));
#91 = CARTESIAN_POINT('',(0.,9.779354812194E-02,0.));
#92 = PCURVE('',#40,#93);
#93 = DEFINITIONAL_REPRESENTATION('',(#94),#106);
#94 = B_SPLINE_CURVE_WITH_KNOTS('',1,(#95,#96,#97,#98,#99,#100,#101,#102
    ,#103,#104,#105),.UNSPECIFIED.,.F.,.F.,(2,1,1,1,1,1,1,1,1,1,2),(0.,
    2.622055602865E-02,0.123375343993,0.218159652753,0.289075491058,
    0.326420619081,0.387948277097,0.460892757416,0.490899000761,
    0.853876401205,1.),.UNSPECIFIED.);
#95 = CARTESIAN_POINT('',(0.496650594776,5.490809765551E-02));
#96 = CARTESIAN_POINT('',(0.470525132351,5.256649427417E-02));
#97 = CARTESIAN_POINT('',(0.373492974086,4.702114300156E-02));
#98 = CARTESIAN_POINT('',(0.278690342757,4.525204947126E-02));
#99 = CARTESIAN_POINT('',(0.207751381788,4.589731277741E-02));
#100 = CARTESIAN_POINT('',(0.170468542458,4.827923883531E-02));
#101 = CARTESIAN_POINT('',(0.108918376555,4.839007740603E-02));
#102 = CARTESIAN_POINT('',(3.59485535642E-02,4.885167737356E-02));
#103 = CARTESIAN_POINT('',(5.93135613749E-03,4.878620927435E-02));
#104 = CARTESIAN_POINT('',(-0.357174669052,4.692941736493E-02));
#105 = CARTESIAN_POINT('',(-0.503349405224,4.779354812194E-02));
#106 = ( GEOMETRIC_REPRESENTATION_CONTEXT(2) 
PARAMETRIC_REPRESENTATION_CONTEXT() REPRESENTATION_CONTEXT('2D SPACE',''
  ) );
#107 = ORIENTED_EDGE('',*,*,#108,.T.);
#108 = EDGE_CURVE('',#77,#22,#109,.T.);
#109 = SURFACE_CURVE('',#110,(#114),.PCURVE_S1.);
#110 = LINE('',#111,#112);
#111 = CARTESIAN_POINT('',(0.,9.779354812194E-02,0.));
#112 = VECTOR('',#113,1.);
#113 = DIRECTION('',(0.,-1.,0.));
#114 = PCURVE('',#40,#115);
#115 = DEFINITIONAL_REPRESENTATION('',(#116),#120);
#116 = LINE('',#117,#118);
#117 = CARTESIAN_POINT('',(-0.503349405224,4.779354812194E-02));
#118 = VECTOR('',#119,1.);
#119 = DIRECTION('',(0.,-1.));
#120 = ( GEOMETRIC_REPRESENTATION_CONTEXT(2) 
PARAMETRIC_REPRESENTATION_CONTEXT() REPRESENTATION_CONTEXT('2D SPACE',''
  ) );
#121 = ( GEOMETRIC_REPRESENTATION_CONTEXT(3) 
GLOBAL_UNCERTAINTY_ASSIGNED_CONTEXT((#125)) GLOBAL_UNIT_ASSIGNED_CONTEXT
((#122,#123,#124)) REPRESENTATION_CONTEXT('Context #1',
  '3D Context with UNIT and UNCERTAINTY') );
#122 = ( LENGTH_UNIT() NAMED_UNIT(*) SI_UNIT(.MILLI.,.METRE.) );
#123 = ( NAMED_UNIT(*) PLANE_ANGLE_UNIT() SI_UNIT($,.RADIAN.) );
#124 = ( NAMED_UNIT(*) SI_UNIT($,.STERADIAN.) SOLID_ANGLE_UNIT() );
#125 = UNCERTAINTY_MEASURE_WITH_UNIT(LENGTH_MEASURE(1.E-07),#122,
  'distance_accuracy_value','confusion accuracy');
#126 = PRODUCT_RELATED_PRODUCT_CATEGORY('part',$,(#7));
ENDSEC;
END-ISO-10303-21;
