ISO-10303-21;
HEADER;
FILE_DESCRIPTION(('Open CASCADE Model'),'2;1');
FILE_NAME('Open CASCADE Shape Model','2026-06-04T12:09:58',('Author'),(
    'Open CASCADE'),'Open CASCADE STEP processor 7.9','Open CASCADE 7.9'
  ,'Unknown');
FILE_SCHEMA(('AUTOMOTIVE_DESIGN { 1 0 10303 214 1 1 1 1 }'));
ENDSEC;
DATA;
#1 = APPLICATION_PROTOCOL_DEFINITION('international standard',
  'automotive_design',2000,#2);
#2 = APPLICATION_CONTEXT(
  'core data for automotive mechanical design processes');
#3 = SHAPE_DEFINITION_REPRESENTATION(#4,#10);
#4 = PRODUCT_DEFINITION_SHAPE('','',#5);
#5 = PRODUCT_DEFINITION('design','',#6,#9);
#6 = PRODUCT_DEFINITION_FORMATION('','',#7);
#7 = PRODUCT('Open CASCADE STEP translator 7.9 5',
  'Open CASCADE STEP translator 7.9 5','',(#8));
#8 = PRODUCT_CONTEXT('',#2,'mechanical');
#9 = PRODUCT_DEFINITION_CONTEXT('part definition',#2,'design');
#10 = MANIFOLD_SURFACE_SHAPE_REPRESENTATION('',(#11,#15),#121);
#11 = AXIS2_PLACEMENT_3D('',#12,#13,#14);
#12 = CARTESIAN_POINT('',(0.,0.,0.));
#13 = DIRECTION('',(0.,0.,1.));
#14 = DIRECTION('',(1.,0.,-0.));
#15 = SHELL_BASED_SURFACE_MODEL('',(#16));
#16 = OPEN_SHELL('',(#17));
#17 = ADVANCED_FACE('',(#18),#40,.T.);
#18 = FACE_BOUND('',#19,.T.);
#19 = EDGE_LOOP('',(#20,#59,#75,#107));
#20 = ORIENTED_EDGE('',*,*,#21,.T.);
#21 = EDGE_CURVE('',#22,#24,#26,.T.);
#22 = VERTEX_POINT('',#23);
#23 = CARTESIAN_POINT('',(0.,1.190927465113,0.));
#24 = VERTEX_POINT('',#25);
#25 = CARTESIAN_POINT('',(150.,-1.672505423795,0.));
#26 = SURFACE_CURVE('',#27,(#39),.PCURVE_S1.);
#27 = B_SPLINE_CURVE_WITH_KNOTS('',1,(#28,#29,#30,#31,#32,#33,#34,#35,
    #36,#37,#38),.UNSPECIFIED.,.F.,.F.,(2,1,1,1,1,1,1,1,1,1,2),(0.,
    3.466188471773E-02,6.222153096889E-02,0.264789907179,0.332175322812,
    0.401363714196,0.520501746407,0.560912476194,0.785302428258,
    0.944816334382,1.),.UNSPECIFIED.);
#28 = CARTESIAN_POINT('',(0.,1.190927465113,0.));
#29 = CARTESIAN_POINT('',(4.912131305047,-0.781695558713,0.));
#30 = CARTESIAN_POINT('',(8.800473614487,0.82912433668,0.));
#31 = CARTESIAN_POINT('',(39.692102817376,2.474100484103,0.));
#32 = CARTESIAN_POINT('',(49.981309871476,2.291964587277,0.));
#33 = CARTESIAN_POINT('',(59.255265783256,-2.771385987297,0.));
#34 = CARTESIAN_POINT('',(77.44671545777,-2.451484144246,0.));
#35 = CARTESIAN_POINT('',(83.489483223346,-1.198242802864,0.));
#36 = CARTESIAN_POINT('',(117.65837155165,1.404780231243,0.));
#37 = CARTESIAN_POINT('',(141.6503916628,-2.815058264086,0.));
#38 = CARTESIAN_POINT('',(150.,-1.672505423795,0.));
#39 = PCURVE('',#40,#45);
#40 = PLANE('',#41);
#41 = AXIS2_PLACEMENT_3D('',#42,#43,#44);
#42 = CARTESIAN_POINT('',(75.984014511939,7.5,0.));
#43 = DIRECTION('',(0.,0.,1.));
#44 = DIRECTION('',(1.,0.,-0.));
#45 = DEFINITIONAL_REPRESENTATION('',(#46),#58);
#46 = B_SPLINE_CURVE_WITH_KNOTS('',1,(#47,#48,#49,#50,#51,#52,#53,#54,
    #55,#56,#57),.UNSPECIFIED.,.F.,.F.,(2,1,1,1,1,1,1,1,1,1,2),(0.,
    3.466188471773E-02,6.222153096889E-02,0.264789907179,0.332175322812,
    0.401363714196,0.520501746407,0.560912476194,0.785302428258,
    0.944816334382,1.),.UNSPECIFIED.);
#47 = CARTESIAN_POINT('',(-75.98401451193,-6.309072534887));
#48 = CARTESIAN_POINT('',(-71.07188320689,-8.281695558713));
#49 = CARTESIAN_POINT('',(-67.18354089745,-6.67087566332));
#50 = CARTESIAN_POINT('',(-36.29191169456,-5.025899515897));
#51 = CARTESIAN_POINT('',(-26.00270464046,-5.208035412723));
#52 = CARTESIAN_POINT('',(-16.72874872868,-10.27138598729));
#53 = CARTESIAN_POINT('',(1.462700945831,-9.951484144246));
#54 = CARTESIAN_POINT('',(7.505468711407,-8.698242802864));
#55 = CARTESIAN_POINT('',(41.674357039718,-6.095219768757));
#56 = CARTESIAN_POINT('',(65.666377150863,-10.31505826408));
#57 = CARTESIAN_POINT('',(74.015985488061,-9.172505423795));
#58 = ( GEOMETRIC_REPRESENTATION_CONTEXT(2) 
PARAMETRIC_REPRESENTATION_CONTEXT() REPRESENTATION_CONTEXT('2D SPACE',''
  ) );
#59 = ORIENTED_EDGE('',*,*,#60,.T.);
#60 = EDGE_CURVE('',#24,#61,#63,.T.);
#61 = VERTEX_POINT('',#62);
#62 = CARTESIAN_POINT('',(150.,16.672505423795,0.));
#63 = SURFACE_CURVE('',#64,(#68),.PCURVE_S1.);
#64 = LINE('',#65,#66);
#65 = CARTESIAN_POINT('',(150.,-1.672505423795,0.));
#66 = VECTOR('',#67,1.);
#67 = DIRECTION('',(0.,1.,0.));
#68 = PCURVE('',#40,#69);
#69 = DEFINITIONAL_REPRESENTATION('',(#70),#74);
#70 = LINE('',#71,#72);
#71 = CARTESIAN_POINT('',(74.015985488061,-9.172505423795));
#72 = VECTOR('',#73,1.);
#73 = DIRECTION('',(0.,1.));
#74 = ( GEOMETRIC_REPRESENTATION_CONTEXT(2) 
PARAMETRIC_REPRESENTATION_CONTEXT() REPRESENTATION_CONTEXT('2D SPACE',''
  ) );
#75 = ORIENTED_EDGE('',*,*,#76,.T.);
#76 = EDGE_CURVE('',#61,#77,#79,.T.);
#77 = VERTEX_POINT('',#78);
#78 = CARTESIAN_POINT('',(0.,13.809072534887,0.));
#79 = SURFACE_CURVE('',#80,(#92),.PCURVE_S1.);
#80 = B_SPLINE_CURVE_WITH_KNOTS('',1,(#81,#82,#83,#84,#85,#86,#87,#88,
    #89,#90,#91),.UNSPECIFIED.,.F.,.F.,(2,1,1,1,1,1,1,1,1,1,2),(0.,
    5.518366561751E-02,0.214697571742,0.439087523806,0.479498253593,
    0.598636285804,0.667824677188,0.735210092821,0.937778469031,
    0.965338115282,1.),.UNSPECIFIED.);
#81 = CARTESIAN_POINT('',(150.,16.672505423795,0.));
#82 = CARTESIAN_POINT('',(141.6503916628,17.815058264086,0.));
#83 = CARTESIAN_POINT('',(117.65837155165,13.595219768757,0.));
#84 = CARTESIAN_POINT('',(83.489483223346,16.198242802864,0.));
#85 = CARTESIAN_POINT('',(77.44671545777,17.451484144246,0.));
#86 = CARTESIAN_POINT('',(59.255265783256,17.771385987297,0.));
#87 = CARTESIAN_POINT('',(49.981309871476,12.708035412723,0.));
#88 = CARTESIAN_POINT('',(39.692102817376,12.525899515897,0.));
#89 = CARTESIAN_POINT('',(8.800473614487,14.17087566332,0.));
#90 = CARTESIAN_POINT('',(4.912131305047,15.781695558713,0.));
#91 = CARTESIAN_POINT('',(0.,13.809072534887,0.));
#92 = PCURVE('',#40,#93);
#93 = DEFINITIONAL_REPRESENTATION('',(#94),#106);
#94 = B_SPLINE_CURVE_WITH_KNOTS('',1,(#95,#96,#97,#98,#99,#100,#101,#102
    ,#103,#104,#105),.UNSPECIFIED.,.F.,.F.,(2,1,1,1,1,1,1,1,1,1,2),(0.,
    5.518366561751E-02,0.214697571742,0.439087523806,0.479498253593,
    0.598636285804,0.667824677188,0.735210092821,0.937778469031,
    0.965338115282,1.),.UNSPECIFIED.);
#95 = CARTESIAN_POINT('',(74.015985488061,9.172505423795));
#96 = CARTESIAN_POINT('',(65.666377150863,10.315058264086));
#97 = CARTESIAN_POINT('',(41.674357039718,6.095219768757));
#98 = CARTESIAN_POINT('',(7.505468711407,8.698242802864));
#99 = CARTESIAN_POINT('',(1.462700945831,9.951484144246));
#100 = CARTESIAN_POINT('',(-16.72874872868,10.271385987297));
#101 = CARTESIAN_POINT('',(-26.00270464046,5.208035412723));
#102 = CARTESIAN_POINT('',(-36.29191169456,5.025899515897));
#103 = CARTESIAN_POINT('',(-67.18354089745,6.67087566332));
#104 = CARTESIAN_POINT('',(-71.07188320689,8.281695558713));
#105 = CARTESIAN_POINT('',(-75.98401451193,6.309072534887));
#106 = ( GEOMETRIC_REPRESENTATION_CONTEXT(2) 
PARAMETRIC_REPRESENTATION_CONTEXT() REPRESENTATION_CONTEXT('2D SPACE',''
  ) );
#107 = ORIENTED_EDGE('',*,*,#108,.T.);
#108 = EDGE_CURVE('',#77,#22,#109,.T.);
#109 = SURFACE_CURVE('',#110,(#114),.PCURVE_S1.);
#110 = LINE('',#111,#112);
#111 = CARTESIAN_POINT('',(0.,13.809072534887,0.));
#112 = VECTOR('',#113,1.);
#113 = DIRECTION('',(0.,-1.,0.));
#114 = PCURVE('',#40,#115);
#115 = DEFINITIONAL_REPRESENTATION('',(#116),#120);
#116 = LINE('',#117,#118);
#117 = CARTESIAN_POINT('',(-75.98401451193,6.309072534887));
#118 = VECTOR('',#119,1.);
#119 = DIRECTION('',(0.,-1.));
#120 = ( GEOMETRIC_REPRESENTATION_CONTEXT(2) 
PARAMETRIC_REPRESENTATION_CONTEXT() REPRESENTATION_CONTEXT('2D SPACE',''
  ) );
#121 = ( GEOMETRIC_REPRESENTATION_CONTEXT(3) 
GLOBAL_UNCERTAINTY_ASSIGNED_CONTEXT((#125)) GLOBAL_UNIT_ASSIGNED_CONTEXT
((#122,#123,#124)) REPRESENTATION_CONTEXT('Context #1',
  '3D Context with UNIT and UNCERTAINTY') );
#122 = ( LENGTH_UNIT() NAMED_UNIT(*) SI_UNIT(.MILLI.,.METRE.) );
#123 = ( NAMED_UNIT(*) PLANE_ANGLE_UNIT() SI_UNIT($,.RADIAN.) );
#124 = ( NAMED_UNIT(*) SI_UNIT($,.STERADIAN.) SOLID_ANGLE_UNIT() );
#125 = UNCERTAINTY_MEASURE_WITH_UNIT(LENGTH_MEASURE(1.E-07),#122,
  'distance_accuracy_value','confusion accuracy');
#126 = PRODUCT_RELATED_PRODUCT_CATEGORY('part',$,(#7));
ENDSEC;
END-ISO-10303-21;
