ISO-10303-21;
HEADER;
FILE_DESCRIPTION(('Open CASCADE Model'),'2;1');
FILE_NAME('Open CASCADE Shape Model','2026-06-04T12:09:58',('Author'),(
    'Open CASCADE'),'Open CASCADE STEP processor 7.9','Open CASCADE 7.9'
  ,'Unknown');
FILE_SCHEMA(('AUTOMOTIVE_DESIGN { 1 0 10303 214 1 1 1 1 }'));
ENDSEC;
DATA;
#1 = APPLICATION_PROTOCOL_DEFINITION('international standard',
  'automotive_design',2000,#2);
#2 = APPLICATION_CONTEXT(
  'core data for automotive mechanical design processes');
#3 = SHAPE_DEFINITION_REPRESENTATION(#4,#10);
#4 = PRODUCT_DEFINITION_SHAPE('','',#5);
#5 = PRODUCT_DEFINITION('design','',#6,#9);
#6 = PRODUCT_DEFINITION_FORMATION('','',#7);
#7 = PRODUCT('Open CASCADE STEP translator 7.9 13',
  'Open CASCADE STEP translator 7.9 13','',(#8));
#8 = PRODUCT_CONTEXT('',#2,'mechanical');
#9 = PRODUCT_DEFINITION_CONTEXT('part definition',#2,'design');
#10 = MANIFOLD_SURFACE_SHAPE_REPRESENTATION('',(#11,#15),#121);
#11 = AXIS2_PLACEMENT_3D('',#12,#13,#14);
#12 = CARTESIAN_POINT('',(0.,0.,0.));
#13 = DIRECTION('',(0.,0.,1.));
#14 = DIRECTION('',(1.,0.,-0.));
#15 = SHELL_BASED_SURFACE_MODEL('',(#16));
#16 = OPEN_SHELL('',(#17));
#17 = ADVANCED_FACE('',(#18),#40,.T.);
#18 = FACE_BOUND('',#19,.T.);
#19 = EDGE_LOOP('',(#20,#59,#75,#107));
#20 = ORIENTED_EDGE('',*,*,#21,.T.);
#21 = EDGE_CURVE('',#22,#24,#26,.T.);
#22 = VERTEX_POINT('',#23);
#23 = CARTESIAN_POINT('',(0.,-2.525822834925,0.));
#24 = VERTEX_POINT('',#25);
#25 = CARTESIAN_POINT('',(150.,-1.084287160797,0.));
#26 = SURFACE_CURVE('',#27,(#39),.PCURVE_S1.);
#27 = B_SPLINE_CURVE_WITH_KNOTS('',1,(#28,#29,#30,#31,#32,#33,#34,#35,
    #36,#37,#38),.UNSPECIFIED.,.F.,.F.,(2,1,1,1,1,1,1,1,1,1,2),(0.,
    0.184386963723,0.285464876932,0.575819846515,0.630588595784,
    0.660022649165,0.736929181081,0.768333622896,0.862757452974,
    0.962038465487,1.),.UNSPECIFIED.);
#28 = CARTESIAN_POINT('',(0.,-2.525822834925,0.));
#29 = CARTESIAN_POINT('',(27.449804922173,2.006809663588,0.));
#30 = CARTESIAN_POINT('',(42.68432687328,1.291679505972,0.));
#31 = CARTESIAN_POINT('',(86.487922907623,2.078319628848,0.));
#32 = CARTESIAN_POINT('',(94.74862406845,2.307059618008,0.));
#33 = CARTESIAN_POINT('',(99.153606033873,2.873111901981,0.));
#34 = CARTESIAN_POINT('',(110.75594761472,2.667627545014,0.));
#35 = CARTESIAN_POINT('',(115.44012840553,1.952151174385,0.));
#36 = CARTESIAN_POINT('',(129.6688251239,2.679708404237,0.));
#37 = CARTESIAN_POINT('',(144.29738303373,-0.546862896666,0.));
#38 = CARTESIAN_POINT('',(150.,-1.084287160797,0.));
#39 = PCURVE('',#40,#45);
#40 = PLANE('',#41);
#41 = AXIS2_PLACEMENT_3D('',#42,#43,#44);
#42 = CARTESIAN_POINT('',(74.38544370516,7.5,0.));
#43 = DIRECTION('',(0.,0.,1.));
#44 = DIRECTION('',(1.,0.,-0.));
#45 = DEFINITIONAL_REPRESENTATION('',(#46),#58);
#46 = B_SPLINE_CURVE_WITH_KNOTS('',1,(#47,#48,#49,#50,#51,#52,#53,#54,
    #55,#56,#57),.UNSPECIFIED.,.F.,.F.,(2,1,1,1,1,1,1,1,1,1,2),(0.,
    0.184386963723,0.285464876932,0.575819846515,0.630588595784,
    0.660022649165,0.736929181081,0.768333622896,0.862757452974,
    0.962038465487,1.),.UNSPECIFIED.);
#47 = CARTESIAN_POINT('',(-74.38544370516,-10.02582283492));
#48 = CARTESIAN_POINT('',(-46.93563878298,-5.493190336412));
#49 = CARTESIAN_POINT('',(-31.70111683188,-6.208320494028));
#50 = CARTESIAN_POINT('',(12.102479202463,-5.421680371152));
#51 = CARTESIAN_POINT('',(20.36318036329,-5.192940381992));
#52 = CARTESIAN_POINT('',(24.768162328713,-4.626888098019));
#53 = CARTESIAN_POINT('',(36.370503909568,-4.832372454986));
#54 = CARTESIAN_POINT('',(41.054684700371,-5.547848825615));
#55 = CARTESIAN_POINT('',(55.28338141874,-4.820291595763));
#56 = CARTESIAN_POINT('',(69.911939328579,-8.046862896666));
#57 = CARTESIAN_POINT('',(75.61455629484,-8.584287160797));
#58 = ( GEOMETRIC_REPRESENTATION_CONTEXT(2) 
PARAMETRIC_REPRESENTATION_CONTEXT() REPRESENTATION_CONTEXT('2D SPACE',''
  ) );
#59 = ORIENTED_EDGE('',*,*,#60,.T.);
#60 = EDGE_CURVE('',#24,#61,#63,.T.);
#61 = VERTEX_POINT('',#62);
#62 = CARTESIAN_POINT('',(150.,16.084287160797,0.));
#63 = SURFACE_CURVE('',#64,(#68),.PCURVE_S1.);
#64 = LINE('',#65,#66);
#65 = CARTESIAN_POINT('',(150.,-1.084287160797,0.));
#66 = VECTOR('',#67,1.);
#67 = DIRECTION('',(0.,1.,0.));
#68 = PCURVE('',#40,#69);
#69 = DEFINITIONAL_REPRESENTATION('',(#70),#74);
#70 = LINE('',#71,#72);
#71 = CARTESIAN_POINT('',(75.61455629484,-8.584287160797));
#72 = VECTOR('',#73,1.);
#73 = DIRECTION('',(0.,1.));
#74 = ( GEOMETRIC_REPRESENTATION_CONTEXT(2) 
PARAMETRIC_REPRESENTATION_CONTEXT() REPRESENTATION_CONTEXT('2D SPACE',''
  ) );
#75 = ORIENTED_EDGE('',*,*,#76,.T.);
#76 = EDGE_CURVE('',#61,#77,#79,.T.);
#77 = VERTEX_POINT('',#78);
#78 = CARTESIAN_POINT('',(0.,17.525822834925,0.));
#79 = SURFACE_CURVE('',#80,(#92),.PCURVE_S1.);
#80 = B_SPLINE_CURVE_WITH_KNOTS('',1,(#81,#82,#83,#84,#85,#86,#87,#88,
    #89,#90,#91),.UNSPECIFIED.,.F.,.F.,(2,1,1,1,1,1,1,1,1,1,2),(0.,
    3.796153451327E-02,0.137242547026,0.231666377104,0.263070818919,
    0.339977350835,0.369411404216,0.424180153485,0.714535123068,
    0.815613036277,1.),.UNSPECIFIED.);
#81 = CARTESIAN_POINT('',(150.,16.084287160797,0.));
#82 = CARTESIAN_POINT('',(144.29738303373,15.546862896666,0.));
#83 = CARTESIAN_POINT('',(129.6688251239,12.320291595763,0.));
#84 = CARTESIAN_POINT('',(115.44012840553,13.047848825615,0.));
#85 = CARTESIAN_POINT('',(110.75594761472,12.332372454986,0.));
#86 = CARTESIAN_POINT('',(99.153606033873,12.126888098019,0.));
#87 = CARTESIAN_POINT('',(94.74862406845,12.692940381992,0.));
#88 = CARTESIAN_POINT('',(86.487922907623,12.921680371152,0.));
#89 = CARTESIAN_POINT('',(42.68432687328,13.708320494028,0.));
#90 = CARTESIAN_POINT('',(27.449804922173,12.993190336412,0.));
#91 = CARTESIAN_POINT('',(0.,17.525822834925,0.));
#92 = PCURVE('',#40,#93);
#93 = DEFINITIONAL_REPRESENTATION('',(#94),#106);
#94 = B_SPLINE_CURVE_WITH_KNOTS('',1,(#95,#96,#97,#98,#99,#100,#101,#102
    ,#103,#104,#105),.UNSPECIFIED.,.F.,.F.,(2,1,1,1,1,1,1,1,1,1,2),(0.,
    3.796153451327E-02,0.137242547026,0.231666377104,0.263070818919,
    0.339977350835,0.369411404216,0.424180153485,0.714535123068,
    0.815613036277,1.),.UNSPECIFIED.);
#95 = CARTESIAN_POINT('',(75.61455629484,8.584287160797));
#96 = CARTESIAN_POINT('',(69.911939328579,8.046862896666));
#97 = CARTESIAN_POINT('',(55.28338141874,4.820291595763));
#98 = CARTESIAN_POINT('',(41.054684700371,5.547848825615));
#99 = CARTESIAN_POINT('',(36.370503909568,4.832372454986));
#100 = CARTESIAN_POINT('',(24.768162328713,4.626888098019));
#101 = CARTESIAN_POINT('',(20.36318036329,5.192940381992));
#102 = CARTESIAN_POINT('',(12.102479202463,5.421680371152));
#103 = CARTESIAN_POINT('',(-31.70111683188,6.208320494028));
#104 = CARTESIAN_POINT('',(-46.93563878298,5.493190336412));
#105 = CARTESIAN_POINT('',(-74.38544370516,10.025822834925));
#106 = ( GEOMETRIC_REPRESENTATION_CONTEXT(2) 
PARAMETRIC_REPRESENTATION_CONTEXT() REPRESENTATION_CONTEXT('2D SPACE',''
  ) );
#107 = ORIENTED_EDGE('',*,*,#108,.T.);
#108 = EDGE_CURVE('',#77,#22,#109,.T.);
#109 = SURFACE_CURVE('',#110,(#114),.PCURVE_S1.);
#110 = LINE('',#111,#112);
#111 = CARTESIAN_POINT('',(0.,17.525822834925,0.));
#112 = VECTOR('',#113,1.);
#113 = DIRECTION('',(0.,-1.,0.));
#114 = PCURVE('',#40,#115);
#115 = DEFINITIONAL_REPRESENTATION('',(#116),#120);
#116 = LINE('',#117,#118);
#117 = CARTESIAN_POINT('',(-74.38544370516,10.025822834925));
#118 = VECTOR('',#119,1.);
#119 = DIRECTION('',(0.,-1.));
#120 = ( GEOMETRIC_REPRESENTATION_CONTEXT(2) 
PARAMETRIC_REPRESENTATION_CONTEXT() REPRESENTATION_CONTEXT('2D SPACE',''
  ) );
#121 = ( GEOMETRIC_REPRESENTATION_CONTEXT(3) 
GLOBAL_UNCERTAINTY_ASSIGNED_CONTEXT((#125)) GLOBAL_UNIT_ASSIGNED_CONTEXT
((#122,#123,#124)) REPRESENTATION_CONTEXT('Context #1',
  '3D Context with UNIT and UNCERTAINTY') );
#122 = ( LENGTH_UNIT() NAMED_UNIT(*) SI_UNIT(.MILLI.,.METRE.) );
#123 = ( NAMED_UNIT(*) PLANE_ANGLE_UNIT() SI_UNIT($,.RADIAN.) );
#124 = ( NAMED_UNIT(*) SI_UNIT($,.STERADIAN.) SOLID_ANGLE_UNIT() );
#125 = UNCERTAINTY_MEASURE_WITH_UNIT(LENGTH_MEASURE(1.E-07),#122,
  'distance_accuracy_value','confusion accuracy');
#126 = PRODUCT_RELATED_PRODUCT_CATEGORY('part',$,(#7));
ENDSEC;
END-ISO-10303-21;
