ISO-10303-21;
HEADER;
FILE_DESCRIPTION(('Open CASCADE Model'),'2;1');
FILE_NAME('Open CASCADE Shape Model','2026-06-01T11:13:05',('Author'),(
    'Open CASCADE'),'Open CASCADE STEP processor 7.9','Open CASCADE 7.9'
  ,'Unknown');
FILE_SCHEMA(('AUTOMOTIVE_DESIGN { 1 0 10303 214 1 1 1 1 }'));
ENDSEC;
DATA;
#1 = APPLICATION_PROTOCOL_DEFINITION('international standard',
  'automotive_design',2000,#2);
#2 = APPLICATION_CONTEXT(
  'core data for automotive mechanical design processes');
#3 = SHAPE_DEFINITION_REPRESENTATION(#4,#10);
#4 = PRODUCT_DEFINITION_SHAPE('','',#5);
#5 = PRODUCT_DEFINITION('design','',#6,#9);
#6 = PRODUCT_DEFINITION_FORMATION('','',#7);
#7 = PRODUCT('Open CASCADE STEP translator 7.9 4',
  'Open CASCADE STEP translator 7.9 4','',(#8));
#8 = PRODUCT_CONTEXT('',#2,'mechanical');
#9 = PRODUCT_DEFINITION_CONTEXT('part definition',#2,'design');
#10 = MANIFOLD_SURFACE_SHAPE_REPRESENTATION('',(#11,#15),#121);
#11 = AXIS2_PLACEMENT_3D('',#12,#13,#14);
#12 = CARTESIAN_POINT('',(0.,0.,0.));
#13 = DIRECTION('',(0.,0.,1.));
#14 = DIRECTION('',(1.,0.,-0.));
#15 = SHELL_BASED_SURFACE_MODEL('',(#16));
#16 = OPEN_SHELL('',(#17));
#17 = ADVANCED_FACE('',(#18),#40,.T.);
#18 = FACE_BOUND('',#19,.T.);
#19 = EDGE_LOOP('',(#20,#59,#75,#107));
#20 = ORIENTED_EDGE('',*,*,#21,.T.);
#21 = EDGE_CURVE('',#22,#24,#26,.T.);
#22 = VERTEX_POINT('',#23);
#23 = CARTESIAN_POINT('',(0.,2.394544627212,0.));
#24 = VERTEX_POINT('',#25);
#25 = CARTESIAN_POINT('',(150.,2.997243720831,0.));
#26 = SURFACE_CURVE('',#27,(#39),.PCURVE_S1.);
#27 = B_SPLINE_CURVE_WITH_KNOTS('',1,(#28,#29,#30,#31,#32,#33,#34,#35,
    #36,#37,#38),.UNSPECIFIED.,.F.,.F.,(2,1,1,1,1,1,1,1,1,1,2),(0.,
    0.282409396303,0.406898562638,0.507857573215,0.58229328658,
    0.631590641859,0.657152882218,0.724437918971,0.777011259407,
    0.874200208772,1.),.UNSPECIFIED.);
#28 = CARTESIAN_POINT('',(0.,2.394544627212,0.));
#29 = CARTESIAN_POINT('',(43.186231720979,3.975275324798,0.));
#30 = CARTESIAN_POINT('',(62.129848483992,1.967544971802,0.));
#31 = CARTESIAN_POINT('',(77.57851493457,1.8576561801,0.));
#32 = CARTESIAN_POINT('',(88.47586259864,-1.457248632542,0.));
#33 = CARTESIAN_POINT('',(95.960201646339,-0.513289371072,0.));
#34 = CARTESIAN_POINT('',(99.296634856237,-2.555083881958,0.));
#35 = CARTESIAN_POINT('',(109.53639187814,-1.478821862946,0.));
#36 = CARTESIAN_POINT('',(117.23914063964,0.842518247039,0.));
#37 = CARTESIAN_POINT('',(131.65168731484,-2.826183461994,0.));
#38 = CARTESIAN_POINT('',(150.,2.997243720831,0.));
#39 = PCURVE('',#40,#45);
#40 = PLANE('',#41);
#41 = AXIS2_PLACEMENT_3D('',#42,#43,#44);
#42 = CARTESIAN_POINT('',(75.404393187301,7.5,0.));
#43 = DIRECTION('',(0.,0.,1.));
#44 = DIRECTION('',(1.,0.,-0.));
#45 = DEFINITIONAL_REPRESENTATION('',(#46),#58);
#46 = B_SPLINE_CURVE_WITH_KNOTS('',1,(#47,#48,#49,#50,#51,#52,#53,#54,
    #55,#56,#57),.UNSPECIFIED.,.F.,.F.,(2,1,1,1,1,1,1,1,1,1,2),(0.,
    0.282409396303,0.406898562638,0.507857573215,0.58229328658,
    0.631590641859,0.657152882218,0.724437918971,0.777011259407,
    0.874200208772,1.),.UNSPECIFIED.);
#47 = CARTESIAN_POINT('',(-75.4043931873,-5.105455372788));
#48 = CARTESIAN_POINT('',(-32.21816146632,-3.524724675202));
#49 = CARTESIAN_POINT('',(-13.2745447033,-5.532455028198));
#50 = CARTESIAN_POINT('',(2.174121747269,-5.6423438199));
#51 = CARTESIAN_POINT('',(13.071469411339,-8.957248632542));
#52 = CARTESIAN_POINT('',(20.555808459037,-8.013289371072));
#53 = CARTESIAN_POINT('',(23.892241668936,-10.05508388195));
#54 = CARTESIAN_POINT('',(34.13199869084,-8.978821862946));
#55 = CARTESIAN_POINT('',(41.834747452344,-6.657481752961));
#56 = CARTESIAN_POINT('',(56.247294127542,-10.32618346199));
#57 = CARTESIAN_POINT('',(74.595606812699,-4.502756279169));
#58 = ( GEOMETRIC_REPRESENTATION_CONTEXT(2) 
PARAMETRIC_REPRESENTATION_CONTEXT() REPRESENTATION_CONTEXT('2D SPACE',''
  ) );
#59 = ORIENTED_EDGE('',*,*,#60,.T.);
#60 = EDGE_CURVE('',#24,#61,#63,.T.);
#61 = VERTEX_POINT('',#62);
#62 = CARTESIAN_POINT('',(150.,12.002756279169,0.));
#63 = SURFACE_CURVE('',#64,(#68),.PCURVE_S1.);
#64 = LINE('',#65,#66);
#65 = CARTESIAN_POINT('',(150.,2.997243720831,0.));
#66 = VECTOR('',#67,1.);
#67 = DIRECTION('',(0.,1.,0.));
#68 = PCURVE('',#40,#69);
#69 = DEFINITIONAL_REPRESENTATION('',(#70),#74);
#70 = LINE('',#71,#72);
#71 = CARTESIAN_POINT('',(74.595606812699,-4.502756279169));
#72 = VECTOR('',#73,1.);
#73 = DIRECTION('',(0.,1.));
#74 = ( GEOMETRIC_REPRESENTATION_CONTEXT(2) 
PARAMETRIC_REPRESENTATION_CONTEXT() REPRESENTATION_CONTEXT('2D SPACE',''
  ) );
#75 = ORIENTED_EDGE('',*,*,#76,.T.);
#76 = EDGE_CURVE('',#61,#77,#79,.T.);
#77 = VERTEX_POINT('',#78);
#78 = CARTESIAN_POINT('',(0.,12.605455372788,0.));
#79 = SURFACE_CURVE('',#80,(#92),.PCURVE_S1.);
#80 = B_SPLINE_CURVE_WITH_KNOTS('',1,(#81,#82,#83,#84,#85,#86,#87,#88,
    #89,#90,#91),.UNSPECIFIED.,.F.,.F.,(2,1,1,1,1,1,1,1,1,1,2),(0.,
    0.125799791228,0.222988740593,0.275562081029,0.342847117782,
    0.368409358141,0.41770671342,0.492142426785,0.593101437362,
    0.717590603697,1.),.UNSPECIFIED.);
#81 = CARTESIAN_POINT('',(150.,12.002756279169,0.));
#82 = CARTESIAN_POINT('',(131.65168731484,17.826183461994,0.));
#83 = CARTESIAN_POINT('',(117.23914063964,14.157481752961,0.));
#84 = CARTESIAN_POINT('',(109.53639187814,16.478821862946,0.));
#85 = CARTESIAN_POINT('',(99.296634856237,17.555083881958,0.));
#86 = CARTESIAN_POINT('',(95.960201646339,15.513289371072,0.));
#87 = CARTESIAN_POINT('',(88.47586259864,16.457248632542,0.));
#88 = CARTESIAN_POINT('',(77.57851493457,13.1423438199,0.));
#89 = CARTESIAN_POINT('',(62.129848483992,13.032455028198,0.));
#90 = CARTESIAN_POINT('',(43.186231720979,11.024724675202,0.));
#91 = CARTESIAN_POINT('',(0.,12.605455372788,0.));
#92 = PCURVE('',#40,#93);
#93 = DEFINITIONAL_REPRESENTATION('',(#94),#106);
#94 = B_SPLINE_CURVE_WITH_KNOTS('',1,(#95,#96,#97,#98,#99,#100,#101,#102
    ,#103,#104,#105),.UNSPECIFIED.,.F.,.F.,(2,1,1,1,1,1,1,1,1,1,2),(0.,
    0.125799791228,0.222988740593,0.275562081029,0.342847117782,
    0.368409358141,0.41770671342,0.492142426785,0.593101437362,
    0.717590603697,1.),.UNSPECIFIED.);
#95 = CARTESIAN_POINT('',(74.595606812699,4.502756279169));
#96 = CARTESIAN_POINT('',(56.247294127542,10.326183461994));
#97 = CARTESIAN_POINT('',(41.834747452344,6.657481752961));
#98 = CARTESIAN_POINT('',(34.13199869084,8.978821862946));
#99 = CARTESIAN_POINT('',(23.892241668936,10.055083881958));
#100 = CARTESIAN_POINT('',(20.555808459037,8.013289371072));
#101 = CARTESIAN_POINT('',(13.071469411339,8.957248632542));
#102 = CARTESIAN_POINT('',(2.174121747269,5.6423438199));
#103 = CARTESIAN_POINT('',(-13.2745447033,5.532455028198));
#104 = CARTESIAN_POINT('',(-32.21816146632,3.524724675202));
#105 = CARTESIAN_POINT('',(-75.4043931873,5.105455372788));
#106 = ( GEOMETRIC_REPRESENTATION_CONTEXT(2) 
PARAMETRIC_REPRESENTATION_CONTEXT() REPRESENTATION_CONTEXT('2D SPACE',''
  ) );
#107 = ORIENTED_EDGE('',*,*,#108,.T.);
#108 = EDGE_CURVE('',#77,#22,#109,.T.);
#109 = SURFACE_CURVE('',#110,(#114),.PCURVE_S1.);
#110 = LINE('',#111,#112);
#111 = CARTESIAN_POINT('',(0.,12.605455372788,0.));
#112 = VECTOR('',#113,1.);
#113 = DIRECTION('',(0.,-1.,0.));
#114 = PCURVE('',#40,#115);
#115 = DEFINITIONAL_REPRESENTATION('',(#116),#120);
#116 = LINE('',#117,#118);
#117 = CARTESIAN_POINT('',(-75.4043931873,5.105455372788));
#118 = VECTOR('',#119,1.);
#119 = DIRECTION('',(0.,-1.));
#120 = ( GEOMETRIC_REPRESENTATION_CONTEXT(2) 
PARAMETRIC_REPRESENTATION_CONTEXT() REPRESENTATION_CONTEXT('2D SPACE',''
  ) );
#121 = ( GEOMETRIC_REPRESENTATION_CONTEXT(3) 
GLOBAL_UNCERTAINTY_ASSIGNED_CONTEXT((#125)) GLOBAL_UNIT_ASSIGNED_CONTEXT
((#122,#123,#124)) REPRESENTATION_CONTEXT('Context #1',
  '3D Context with UNIT and UNCERTAINTY') );
#122 = ( LENGTH_UNIT() NAMED_UNIT(*) SI_UNIT(.MILLI.,.METRE.) );
#123 = ( NAMED_UNIT(*) PLANE_ANGLE_UNIT() SI_UNIT($,.RADIAN.) );
#124 = ( NAMED_UNIT(*) SI_UNIT($,.STERADIAN.) SOLID_ANGLE_UNIT() );
#125 = UNCERTAINTY_MEASURE_WITH_UNIT(LENGTH_MEASURE(1.E-07),#122,
  'distance_accuracy_value','confusion accuracy');
#126 = PRODUCT_RELATED_PRODUCT_CATEGORY('part',$,(#7));
ENDSEC;
END-ISO-10303-21;
