ISO-10303-21;
HEADER;
FILE_DESCRIPTION(('Open CASCADE Model'),'2;1');
FILE_NAME('Open CASCADE Shape Model','2026-06-04T12:09:59',('Author'),(
    'Open CASCADE'),'Open CASCADE STEP processor 7.9','Open CASCADE 7.9'
  ,'Unknown');
FILE_SCHEMA(('AUTOMOTIVE_DESIGN { 1 0 10303 214 1 1 1 1 }'));
ENDSEC;
DATA;
#1 = APPLICATION_PROTOCOL_DEFINITION('international standard',
  'automotive_design',2000,#2);
#2 = APPLICATION_CONTEXT(
  'core data for automotive mechanical design processes');
#3 = SHAPE_DEFINITION_REPRESENTATION(#4,#10);
#4 = PRODUCT_DEFINITION_SHAPE('','',#5);
#5 = PRODUCT_DEFINITION('design','',#6,#9);
#6 = PRODUCT_DEFINITION_FORMATION('','',#7);
#7 = PRODUCT('Open CASCADE STEP translator 7.9 31',
  'Open CASCADE STEP translator 7.9 31','',(#8));
#8 = PRODUCT_CONTEXT('',#2,'mechanical');
#9 = PRODUCT_DEFINITION_CONTEXT('part definition',#2,'design');
#10 = MANIFOLD_SURFACE_SHAPE_REPRESENTATION('',(#11,#15),#121);
#11 = AXIS2_PLACEMENT_3D('',#12,#13,#14);
#12 = CARTESIAN_POINT('',(0.,0.,0.));
#13 = DIRECTION('',(0.,0.,1.));
#14 = DIRECTION('',(1.,0.,-0.));
#15 = SHELL_BASED_SURFACE_MODEL('',(#16));
#16 = OPEN_SHELL('',(#17));
#17 = ADVANCED_FACE('',(#18),#40,.T.);
#18 = FACE_BOUND('',#19,.T.);
#19 = EDGE_LOOP('',(#20,#59,#75,#107));
#20 = ORIENTED_EDGE('',*,*,#21,.T.);
#21 = EDGE_CURVE('',#22,#24,#26,.T.);
#22 = VERTEX_POINT('',#23);
#23 = CARTESIAN_POINT('',(0.,-2.373809288302,0.));
#24 = VERTEX_POINT('',#25);
#25 = CARTESIAN_POINT('',(150.,-2.319345373031,0.));
#26 = SURFACE_CURVE('',#27,(#39),.PCURVE_S1.);
#27 = B_SPLINE_CURVE_WITH_KNOTS('',1,(#28,#29,#30,#31,#32,#33,#34,#35,
    #36,#37,#38),.UNSPECIFIED.,.F.,.F.,(2,1,1,1,1,1,1,1,1,1,2),(0.,
    7.622974271663E-02,0.191447080366,0.222409812551,0.269722656329,
    0.40535024677,0.43519203007,0.562391539186,0.683656996603,
    0.713401734241,1.),.UNSPECIFIED.);
#28 = CARTESIAN_POINT('',(0.,-2.373809288302,0.));
#29 = CARTESIAN_POINT('',(11.710062024641,-1.029676853135,0.));
#30 = CARTESIAN_POINT('',(29.334139458459,1.574049819836,0.));
#31 = CARTESIAN_POINT('',(32.383634131213,-2.116686777791,0.));
#32 = CARTESIAN_POINT('',(39.04304276152,0.911811459543,0.));
#33 = CARTESIAN_POINT('',(59.794010334525,-2.120068026864,0.));
#34 = CARTESIAN_POINT('',(62.991884056426,1.206338093287,0.));
#35 = CARTESIAN_POINT('',(82.582134786948,-0.541921505299,0.));
#36 = CARTESIAN_POINT('',(101.2967587153,0.618359593513,0.));
#37 = CARTESIAN_POINT('',(105.83727465984,1.35104969547,0.));
#38 = CARTESIAN_POINT('',(150.,-2.319345373031,0.));
#39 = PCURVE('',#40,#45);
#40 = PLANE('',#41);
#41 = AXIS2_PLACEMENT_3D('',#42,#43,#44);
#42 = CARTESIAN_POINT('',(74.213705448017,7.5,0.));
#43 = DIRECTION('',(0.,0.,1.));
#44 = DIRECTION('',(1.,0.,-0.));
#45 = DEFINITIONAL_REPRESENTATION('',(#46),#58);
#46 = B_SPLINE_CURVE_WITH_KNOTS('',1,(#47,#48,#49,#50,#51,#52,#53,#54,
    #55,#56,#57),.UNSPECIFIED.,.F.,.F.,(2,1,1,1,1,1,1,1,1,1,2),(0.,
    7.622974271663E-02,0.191447080366,0.222409812551,0.269722656329,
    0.40535024677,0.43519203007,0.562391539186,0.683656996603,
    0.713401734241,1.),.UNSPECIFIED.);
#47 = CARTESIAN_POINT('',(-74.21370544801,-9.873809288302));
#48 = CARTESIAN_POINT('',(-62.50364342337,-8.529676853135));
#49 = CARTESIAN_POINT('',(-44.87956598955,-5.925950180164));
#50 = CARTESIAN_POINT('',(-41.8300713168,-9.616686777791));
#51 = CARTESIAN_POINT('',(-35.17066268649,-6.588188540457));
#52 = CARTESIAN_POINT('',(-14.41969511349,-9.620068026864));
#53 = CARTESIAN_POINT('',(-11.22182139159,-6.293661906713));
#54 = CARTESIAN_POINT('',(8.368429338932,-8.041921505299));
#55 = CARTESIAN_POINT('',(27.083053267289,-6.881640406487));
#56 = CARTESIAN_POINT('',(31.623569211832,-6.14895030453));
#57 = CARTESIAN_POINT('',(75.786294551983,-9.819345373031));
#58 = ( GEOMETRIC_REPRESENTATION_CONTEXT(2) 
PARAMETRIC_REPRESENTATION_CONTEXT() REPRESENTATION_CONTEXT('2D SPACE',''
  ) );
#59 = ORIENTED_EDGE('',*,*,#60,.T.);
#60 = EDGE_CURVE('',#24,#61,#63,.T.);
#61 = VERTEX_POINT('',#62);
#62 = CARTESIAN_POINT('',(150.,17.319345373031,0.));
#63 = SURFACE_CURVE('',#64,(#68),.PCURVE_S1.);
#64 = LINE('',#65,#66);
#65 = CARTESIAN_POINT('',(150.,-2.319345373031,0.));
#66 = VECTOR('',#67,1.);
#67 = DIRECTION('',(0.,1.,0.));
#68 = PCURVE('',#40,#69);
#69 = DEFINITIONAL_REPRESENTATION('',(#70),#74);
#70 = LINE('',#71,#72);
#71 = CARTESIAN_POINT('',(75.786294551983,-9.819345373031));
#72 = VECTOR('',#73,1.);
#73 = DIRECTION('',(0.,1.));
#74 = ( GEOMETRIC_REPRESENTATION_CONTEXT(2) 
PARAMETRIC_REPRESENTATION_CONTEXT() REPRESENTATION_CONTEXT('2D SPACE',''
  ) );
#75 = ORIENTED_EDGE('',*,*,#76,.T.);
#76 = EDGE_CURVE('',#61,#77,#79,.T.);
#77 = VERTEX_POINT('',#78);
#78 = CARTESIAN_POINT('',(0.,17.373809288302,0.));
#79 = SURFACE_CURVE('',#80,(#92),.PCURVE_S1.);
#80 = B_SPLINE_CURVE_WITH_KNOTS('',1,(#81,#82,#83,#84,#85,#86,#87,#88,
    #89,#90,#91),.UNSPECIFIED.,.F.,.F.,(2,1,1,1,1,1,1,1,1,1,2),(0.,
    0.286598265759,0.316343003397,0.437608460814,0.56480796993,
    0.59464975323,0.730277343671,0.777590187449,0.808552919634,
    0.923770257283,1.),.UNSPECIFIED.);
#81 = CARTESIAN_POINT('',(150.,17.319345373031,0.));
#82 = CARTESIAN_POINT('',(105.83727465984,13.64895030453,0.));
#83 = CARTESIAN_POINT('',(101.2967587153,14.381640406487,0.));
#84 = CARTESIAN_POINT('',(82.582134786948,15.541921505299,0.));
#85 = CARTESIAN_POINT('',(62.991884056426,13.793661906713,0.));
#86 = CARTESIAN_POINT('',(59.794010334525,17.120068026864,0.));
#87 = CARTESIAN_POINT('',(39.04304276152,14.088188540457,0.));
#88 = CARTESIAN_POINT('',(32.383634131213,17.116686777791,0.));
#89 = CARTESIAN_POINT('',(29.334139458459,13.425950180164,0.));
#90 = CARTESIAN_POINT('',(11.710062024641,16.029676853135,0.));
#91 = CARTESIAN_POINT('',(0.,17.373809288302,0.));
#92 = PCURVE('',#40,#93);
#93 = DEFINITIONAL_REPRESENTATION('',(#94),#106);
#94 = B_SPLINE_CURVE_WITH_KNOTS('',1,(#95,#96,#97,#98,#99,#100,#101,#102
    ,#103,#104,#105),.UNSPECIFIED.,.F.,.F.,(2,1,1,1,1,1,1,1,1,1,2),(0.,
    0.286598265759,0.316343003397,0.437608460814,0.56480796993,
    0.59464975323,0.730277343671,0.777590187449,0.808552919634,
    0.923770257283,1.),.UNSPECIFIED.);
#95 = CARTESIAN_POINT('',(75.786294551983,9.819345373031));
#96 = CARTESIAN_POINT('',(31.623569211832,6.14895030453));
#97 = CARTESIAN_POINT('',(27.083053267289,6.881640406487));
#98 = CARTESIAN_POINT('',(8.368429338932,8.041921505299));
#99 = CARTESIAN_POINT('',(-11.22182139159,6.293661906713));
#100 = CARTESIAN_POINT('',(-14.41969511349,9.620068026864));
#101 = CARTESIAN_POINT('',(-35.17066268649,6.588188540457));
#102 = CARTESIAN_POINT('',(-41.8300713168,9.616686777791));
#103 = CARTESIAN_POINT('',(-44.87956598955,5.925950180164));
#104 = CARTESIAN_POINT('',(-62.50364342337,8.529676853135));
#105 = CARTESIAN_POINT('',(-74.21370544801,9.873809288302));
#106 = ( GEOMETRIC_REPRESENTATION_CONTEXT(2) 
PARAMETRIC_REPRESENTATION_CONTEXT() REPRESENTATION_CONTEXT('2D SPACE',''
  ) );
#107 = ORIENTED_EDGE('',*,*,#108,.T.);
#108 = EDGE_CURVE('',#77,#22,#109,.T.);
#109 = SURFACE_CURVE('',#110,(#114),.PCURVE_S1.);
#110 = LINE('',#111,#112);
#111 = CARTESIAN_POINT('',(0.,17.373809288302,0.));
#112 = VECTOR('',#113,1.);
#113 = DIRECTION('',(0.,-1.,0.));
#114 = PCURVE('',#40,#115);
#115 = DEFINITIONAL_REPRESENTATION('',(#116),#120);
#116 = LINE('',#117,#118);
#117 = CARTESIAN_POINT('',(-74.21370544801,9.873809288302));
#118 = VECTOR('',#119,1.);
#119 = DIRECTION('',(0.,-1.));
#120 = ( GEOMETRIC_REPRESENTATION_CONTEXT(2) 
PARAMETRIC_REPRESENTATION_CONTEXT() REPRESENTATION_CONTEXT('2D SPACE',''
  ) );
#121 = ( GEOMETRIC_REPRESENTATION_CONTEXT(3) 
GLOBAL_UNCERTAINTY_ASSIGNED_CONTEXT((#125)) GLOBAL_UNIT_ASSIGNED_CONTEXT
((#122,#123,#124)) REPRESENTATION_CONTEXT('Context #1',
  '3D Context with UNIT and UNCERTAINTY') );
#122 = ( LENGTH_UNIT() NAMED_UNIT(*) SI_UNIT(.MILLI.,.METRE.) );
#123 = ( NAMED_UNIT(*) PLANE_ANGLE_UNIT() SI_UNIT($,.RADIAN.) );
#124 = ( NAMED_UNIT(*) SI_UNIT($,.STERADIAN.) SOLID_ANGLE_UNIT() );
#125 = UNCERTAINTY_MEASURE_WITH_UNIT(LENGTH_MEASURE(1.E-07),#122,
  'distance_accuracy_value','confusion accuracy');
#126 = PRODUCT_RELATED_PRODUCT_CATEGORY('part',$,(#7));
ENDSEC;
END-ISO-10303-21;
