ISO-10303-21;
HEADER;
FILE_DESCRIPTION(('Open CASCADE Model'),'2;1');
FILE_NAME('Open CASCADE Shape Model','2026-06-04T12:09:59',('Author'),(
    'Open CASCADE'),'Open CASCADE STEP processor 7.9','Open CASCADE 7.9'
  ,'Unknown');
FILE_SCHEMA(('AUTOMOTIVE_DESIGN { 1 0 10303 214 1 1 1 1 }'));
ENDSEC;
DATA;
#1 = APPLICATION_PROTOCOL_DEFINITION('international standard',
  'automotive_design',2000,#2);
#2 = APPLICATION_CONTEXT(
  'core data for automotive mechanical design processes');
#3 = SHAPE_DEFINITION_REPRESENTATION(#4,#10);
#4 = PRODUCT_DEFINITION_SHAPE('','',#5);
#5 = PRODUCT_DEFINITION('design','',#6,#9);
#6 = PRODUCT_DEFINITION_FORMATION('','',#7);
#7 = PRODUCT('Open CASCADE STEP translator 7.9 92',
  'Open CASCADE STEP translator 7.9 92','',(#8));
#8 = PRODUCT_CONTEXT('',#2,'mechanical');
#9 = PRODUCT_DEFINITION_CONTEXT('part definition',#2,'design');
#10 = MANIFOLD_SURFACE_SHAPE_REPRESENTATION('',(#11,#15),#121);
#11 = AXIS2_PLACEMENT_3D('',#12,#13,#14);
#12 = CARTESIAN_POINT('',(0.,0.,0.));
#13 = DIRECTION('',(0.,0.,1.));
#14 = DIRECTION('',(1.,0.,-0.));
#15 = SHELL_BASED_SURFACE_MODEL('',(#16));
#16 = OPEN_SHELL('',(#17));
#17 = ADVANCED_FACE('',(#18),#40,.T.);
#18 = FACE_BOUND('',#19,.T.);
#19 = EDGE_LOOP('',(#20,#59,#75,#107));
#20 = ORIENTED_EDGE('',*,*,#21,.T.);
#21 = EDGE_CURVE('',#22,#24,#26,.T.);
#22 = VERTEX_POINT('',#23);
#23 = CARTESIAN_POINT('',(0.,-1.57811578066,0.));
#24 = VERTEX_POINT('',#25);
#25 = CARTESIAN_POINT('',(150.,-0.431051859127,0.));
#26 = SURFACE_CURVE('',#27,(#39),.PCURVE_S1.);
#27 = B_SPLINE_CURVE_WITH_KNOTS('',1,(#28,#29,#30,#31,#32,#33,#34,#35,
    #36,#37,#38),.UNSPECIFIED.,.F.,.F.,(2,1,1,1,1,1,1,1,1,1,2),(0.,
    7.341355493527E-02,0.10144460657,0.208532273526,0.377531435964,
    0.409133313313,0.460596464664,0.483003819621,0.623606561444,
    0.978145224289,1.),.UNSPECIFIED.);
#28 = CARTESIAN_POINT('',(0.,-1.57811578066,0.));
#29 = CARTESIAN_POINT('',(11.169502557784,-2.821209435419,0.));
#30 = CARTESIAN_POINT('',(15.443239073983,-2.435413312907,0.));
#31 = CARTESIAN_POINT('',(31.83206897649,-2.824260967177,0.));
#32 = CARTESIAN_POINT('',(57.579939023052,-0.301941034186,0.));
#33 = CARTESIAN_POINT('',(61.501409339411,2.531063160688,0.));
#34 = CARTESIAN_POINT('',(67.875656213032,-2.09873518683,0.));
#35 = CARTESIAN_POINT('',(71.000072932724,-0.682969534854,0.));
#36 = CARTESIAN_POINT('',(92.52414677545,-0.68842046513,0.));
#37 = CARTESIAN_POINT('',(146.7855197037,0.496478340848,0.));
#38 = CARTESIAN_POINT('',(150.,-0.431051859127,0.));
#39 = PCURVE('',#40,#45);
#40 = PLANE('',#41);
#41 = AXIS2_PLACEMENT_3D('',#42,#43,#44);
#42 = CARTESIAN_POINT('',(74.311961362002,7.5,0.));
#43 = DIRECTION('',(0.,0.,1.));
#44 = DIRECTION('',(1.,0.,-0.));
#45 = DEFINITIONAL_REPRESENTATION('',(#46),#58);
#46 = B_SPLINE_CURVE_WITH_KNOTS('',1,(#47,#48,#49,#50,#51,#52,#53,#54,
    #55,#56,#57),.UNSPECIFIED.,.F.,.F.,(2,1,1,1,1,1,1,1,1,1,2),(0.,
    7.341355493527E-02,0.10144460657,0.208532273526,0.377531435964,
    0.409133313313,0.460596464664,0.483003819621,0.623606561444,
    0.978145224289,1.),.UNSPECIFIED.);
#47 = CARTESIAN_POINT('',(-74.311961362,-9.07811578066));
#48 = CARTESIAN_POINT('',(-63.14245880421,-10.32120943541));
#49 = CARTESIAN_POINT('',(-58.86872228802,-9.935413312907));
#50 = CARTESIAN_POINT('',(-42.47989238551,-10.32426096717));
#51 = CARTESIAN_POINT('',(-16.73202233895,-7.801941034186));
#52 = CARTESIAN_POINT('',(-12.81055202259,-4.968936839312));
#53 = CARTESIAN_POINT('',(-6.43630514897,-9.59873518683));
#54 = CARTESIAN_POINT('',(-3.311888429278,-8.182969534854));
#55 = CARTESIAN_POINT('',(18.212185413448,-8.18842046513));
#56 = CARTESIAN_POINT('',(72.473558341703,-7.003521659152));
#57 = CARTESIAN_POINT('',(75.688038637998,-7.931051859127));
#58 = ( GEOMETRIC_REPRESENTATION_CONTEXT(2) 
PARAMETRIC_REPRESENTATION_CONTEXT() REPRESENTATION_CONTEXT('2D SPACE',''
  ) );
#59 = ORIENTED_EDGE('',*,*,#60,.T.);
#60 = EDGE_CURVE('',#24,#61,#63,.T.);
#61 = VERTEX_POINT('',#62);
#62 = CARTESIAN_POINT('',(150.,15.431051859127,0.));
#63 = SURFACE_CURVE('',#64,(#68),.PCURVE_S1.);
#64 = LINE('',#65,#66);
#65 = CARTESIAN_POINT('',(150.,-0.431051859127,0.));
#66 = VECTOR('',#67,1.);
#67 = DIRECTION('',(0.,1.,0.));
#68 = PCURVE('',#40,#69);
#69 = DEFINITIONAL_REPRESENTATION('',(#70),#74);
#70 = LINE('',#71,#72);
#71 = CARTESIAN_POINT('',(75.688038637998,-7.931051859127));
#72 = VECTOR('',#73,1.);
#73 = DIRECTION('',(0.,1.));
#74 = ( GEOMETRIC_REPRESENTATION_CONTEXT(2) 
PARAMETRIC_REPRESENTATION_CONTEXT() REPRESENTATION_CONTEXT('2D SPACE',''
  ) );
#75 = ORIENTED_EDGE('',*,*,#76,.T.);
#76 = EDGE_CURVE('',#61,#77,#79,.T.);
#77 = VERTEX_POINT('',#78);
#78 = CARTESIAN_POINT('',(0.,16.57811578066,0.));
#79 = SURFACE_CURVE('',#80,(#92),.PCURVE_S1.);
#80 = B_SPLINE_CURVE_WITH_KNOTS('',1,(#81,#82,#83,#84,#85,#86,#87,#88,
    #89,#90,#91),.UNSPECIFIED.,.F.,.F.,(2,1,1,1,1,1,1,1,1,1,2),(0.,
    2.185477571119E-02,0.376393438556,0.516996180379,0.539403535336,
    0.590866686687,0.622468564036,0.791467726474,0.89855539343,
    0.926586445065,1.),.UNSPECIFIED.);
#81 = CARTESIAN_POINT('',(150.,15.431051859127,0.));
#82 = CARTESIAN_POINT('',(146.7855197037,14.503521659152,0.));
#83 = CARTESIAN_POINT('',(92.52414677545,15.68842046513,0.));
#84 = CARTESIAN_POINT('',(71.000072932724,15.682969534854,0.));
#85 = CARTESIAN_POINT('',(67.875656213032,17.09873518683,0.));
#86 = CARTESIAN_POINT('',(61.501409339411,12.468936839312,0.));
#87 = CARTESIAN_POINT('',(57.579939023052,15.301941034186,0.));
#88 = CARTESIAN_POINT('',(31.83206897649,17.824260967177,0.));
#89 = CARTESIAN_POINT('',(15.443239073983,17.435413312907,0.));
#90 = CARTESIAN_POINT('',(11.169502557784,17.821209435419,0.));
#91 = CARTESIAN_POINT('',(0.,16.57811578066,0.));
#92 = PCURVE('',#40,#93);
#93 = DEFINITIONAL_REPRESENTATION('',(#94),#106);
#94 = B_SPLINE_CURVE_WITH_KNOTS('',1,(#95,#96,#97,#98,#99,#100,#101,#102
    ,#103,#104,#105),.UNSPECIFIED.,.F.,.F.,(2,1,1,1,1,1,1,1,1,1,2),(0.,
    2.185477571119E-02,0.376393438556,0.516996180379,0.539403535336,
    0.590866686687,0.622468564036,0.791467726474,0.89855539343,
    0.926586445065,1.),.UNSPECIFIED.);
#95 = CARTESIAN_POINT('',(75.688038637998,7.931051859127));
#96 = CARTESIAN_POINT('',(72.473558341703,7.003521659152));
#97 = CARTESIAN_POINT('',(18.212185413448,8.18842046513));
#98 = CARTESIAN_POINT('',(-3.311888429278,8.182969534854));
#99 = CARTESIAN_POINT('',(-6.43630514897,9.59873518683));
#100 = CARTESIAN_POINT('',(-12.81055202259,4.968936839312));
#101 = CARTESIAN_POINT('',(-16.73202233895,7.801941034186));
#102 = CARTESIAN_POINT('',(-42.47989238551,10.324260967177));
#103 = CARTESIAN_POINT('',(-58.86872228802,9.935413312907));
#104 = CARTESIAN_POINT('',(-63.14245880421,10.321209435419));
#105 = CARTESIAN_POINT('',(-74.311961362,9.07811578066));
#106 = ( GEOMETRIC_REPRESENTATION_CONTEXT(2) 
PARAMETRIC_REPRESENTATION_CONTEXT() REPRESENTATION_CONTEXT('2D SPACE',''
  ) );
#107 = ORIENTED_EDGE('',*,*,#108,.T.);
#108 = EDGE_CURVE('',#77,#22,#109,.T.);
#109 = SURFACE_CURVE('',#110,(#114),.PCURVE_S1.);
#110 = LINE('',#111,#112);
#111 = CARTESIAN_POINT('',(0.,16.57811578066,0.));
#112 = VECTOR('',#113,1.);
#113 = DIRECTION('',(0.,-1.,0.));
#114 = PCURVE('',#40,#115);
#115 = DEFINITIONAL_REPRESENTATION('',(#116),#120);
#116 = LINE('',#117,#118);
#117 = CARTESIAN_POINT('',(-74.311961362,9.07811578066));
#118 = VECTOR('',#119,1.);
#119 = DIRECTION('',(0.,-1.));
#120 = ( GEOMETRIC_REPRESENTATION_CONTEXT(2) 
PARAMETRIC_REPRESENTATION_CONTEXT() REPRESENTATION_CONTEXT('2D SPACE',''
  ) );
#121 = ( GEOMETRIC_REPRESENTATION_CONTEXT(3) 
GLOBAL_UNCERTAINTY_ASSIGNED_CONTEXT((#125)) GLOBAL_UNIT_ASSIGNED_CONTEXT
((#122,#123,#124)) REPRESENTATION_CONTEXT('Context #1',
  '3D Context with UNIT and UNCERTAINTY') );
#122 = ( LENGTH_UNIT() NAMED_UNIT(*) SI_UNIT(.MILLI.,.METRE.) );
#123 = ( NAMED_UNIT(*) PLANE_ANGLE_UNIT() SI_UNIT($,.RADIAN.) );
#124 = ( NAMED_UNIT(*) SI_UNIT($,.STERADIAN.) SOLID_ANGLE_UNIT() );
#125 = UNCERTAINTY_MEASURE_WITH_UNIT(LENGTH_MEASURE(1.E-07),#122,
  'distance_accuracy_value','confusion accuracy');
#126 = PRODUCT_RELATED_PRODUCT_CATEGORY('part',$,(#7));
ENDSEC;
END-ISO-10303-21;
