ISO-10303-21;
HEADER;
FILE_DESCRIPTION(('Open CASCADE Model'),'2;1');
FILE_NAME('Open CASCADE Shape Model','2026-06-04T12:09:59',('Author'),(
    'Open CASCADE'),'Open CASCADE STEP processor 7.9','Open CASCADE 7.9'
  ,'Unknown');
FILE_SCHEMA(('AUTOMOTIVE_DESIGN { 1 0 10303 214 1 1 1 1 }'));
ENDSEC;
DATA;
#1 = APPLICATION_PROTOCOL_DEFINITION('international standard',
  'automotive_design',2000,#2);
#2 = APPLICATION_CONTEXT(
  'core data for automotive mechanical design processes');
#3 = SHAPE_DEFINITION_REPRESENTATION(#4,#10);
#4 = PRODUCT_DEFINITION_SHAPE('','',#5);
#5 = PRODUCT_DEFINITION('design','',#6,#9);
#6 = PRODUCT_DEFINITION_FORMATION('','',#7);
#7 = PRODUCT('Open CASCADE STEP translator 7.9 55',
  'Open CASCADE STEP translator 7.9 55','',(#8));
#8 = PRODUCT_CONTEXT('',#2,'mechanical');
#9 = PRODUCT_DEFINITION_CONTEXT('part definition',#2,'design');
#10 = MANIFOLD_SURFACE_SHAPE_REPRESENTATION('',(#11,#15),#121);
#11 = AXIS2_PLACEMENT_3D('',#12,#13,#14);
#12 = CARTESIAN_POINT('',(0.,0.,0.));
#13 = DIRECTION('',(0.,0.,1.));
#14 = DIRECTION('',(1.,0.,-0.));
#15 = SHELL_BASED_SURFACE_MODEL('',(#16));
#16 = OPEN_SHELL('',(#17));
#17 = ADVANCED_FACE('',(#18),#40,.T.);
#18 = FACE_BOUND('',#19,.T.);
#19 = EDGE_LOOP('',(#20,#59,#75,#107));
#20 = ORIENTED_EDGE('',*,*,#21,.T.);
#21 = EDGE_CURVE('',#22,#24,#26,.T.);
#22 = VERTEX_POINT('',#23);
#23 = CARTESIAN_POINT('',(0.,-2.164805841723,0.));
#24 = VERTEX_POINT('',#25);
#25 = CARTESIAN_POINT('',(150.,-1.501595927689,0.));
#26 = SURFACE_CURVE('',#27,(#39),.PCURVE_S1.);
#27 = B_SPLINE_CURVE_WITH_KNOTS('',1,(#28,#29,#30,#31,#32,#33,#34,#35,
    #36,#37,#38),.UNSPECIFIED.,.F.,.F.,(2,1,1,1,1,1,1,1,1,1,2),(0.,
    4.308880553712E-02,6.721123124102E-02,8.97430085552E-02,
    0.162225469531,0.427700790018,0.467759212201,0.617660414637,
    0.880535377548,0.931706928276,1.),.UNSPECIFIED.);
#28 = CARTESIAN_POINT('',(0.,-2.164805841723,0.));
#29 = CARTESIAN_POINT('',(6.575507373692,-1.938747659701,0.));
#30 = CARTESIAN_POINT('',(9.840421981843,-0.233650597585,0.));
#31 = CARTESIAN_POINT('',(12.841950343969,-1.915199275764,0.));
#32 = CARTESIAN_POINT('',(23.015163756327,2.443463535453,0.));
#33 = CARTESIAN_POINT('',(63.511145228266,0.633110892367,0.));
#34 = CARTESIAN_POINT('',(69.270528557673,-1.426785336638,0.));
#35 = CARTESIAN_POINT('',(91.977334238933,1.455288244056,0.));
#36 = CARTESIAN_POINT('',(132.00672812932,-1.513973486601,0.));
#37 = CARTESIAN_POINT('',(139.67713583332,-2.507162634488E-02,0.));
#38 = CARTESIAN_POINT('',(150.,-1.501595927689,0.));
#39 = PCURVE('',#40,#45);
#40 = PLANE('',#41);
#41 = AXIS2_PLACEMENT_3D('',#42,#43,#44);
#42 = CARTESIAN_POINT('',(74.181998316542,7.5,0.));
#43 = DIRECTION('',(0.,0.,1.));
#44 = DIRECTION('',(1.,0.,-0.));
#45 = DEFINITIONAL_REPRESENTATION('',(#46),#58);
#46 = B_SPLINE_CURVE_WITH_KNOTS('',1,(#47,#48,#49,#50,#51,#52,#53,#54,
    #55,#56,#57),.UNSPECIFIED.,.F.,.F.,(2,1,1,1,1,1,1,1,1,1,2),(0.,
    4.308880553712E-02,6.721123124102E-02,8.97430085552E-02,
    0.162225469531,0.427700790018,0.467759212201,0.617660414637,
    0.880535377548,0.931706928276,1.),.UNSPECIFIED.);
#47 = CARTESIAN_POINT('',(-74.18199831654,-9.664805841723));
#48 = CARTESIAN_POINT('',(-67.60649094285,-9.438747659701));
#49 = CARTESIAN_POINT('',(-64.34157633469,-7.733650597585));
#50 = CARTESIAN_POINT('',(-61.34004797257,-9.415199275764));
#51 = CARTESIAN_POINT('',(-51.16683456021,-5.056536464547));
#52 = CARTESIAN_POINT('',(-10.67085308827,-6.866889107633));
#53 = CARTESIAN_POINT('',(-4.911469758869,-8.926785336638));
#54 = CARTESIAN_POINT('',(17.795335922391,-6.044711755944));
#55 = CARTESIAN_POINT('',(57.82472981278,-9.013973486601));
#56 = CARTESIAN_POINT('',(65.495137516778,-7.525071626345));
#57 = CARTESIAN_POINT('',(75.818001683458,-9.001595927689));
#58 = ( GEOMETRIC_REPRESENTATION_CONTEXT(2) 
PARAMETRIC_REPRESENTATION_CONTEXT() REPRESENTATION_CONTEXT('2D SPACE',''
  ) );
#59 = ORIENTED_EDGE('',*,*,#60,.T.);
#60 = EDGE_CURVE('',#24,#61,#63,.T.);
#61 = VERTEX_POINT('',#62);
#62 = CARTESIAN_POINT('',(150.,16.501595927689,0.));
#63 = SURFACE_CURVE('',#64,(#68),.PCURVE_S1.);
#64 = LINE('',#65,#66);
#65 = CARTESIAN_POINT('',(150.,-1.501595927689,0.));
#66 = VECTOR('',#67,1.);
#67 = DIRECTION('',(0.,1.,0.));
#68 = PCURVE('',#40,#69);
#69 = DEFINITIONAL_REPRESENTATION('',(#70),#74);
#70 = LINE('',#71,#72);
#71 = CARTESIAN_POINT('',(75.818001683458,-9.001595927689));
#72 = VECTOR('',#73,1.);
#73 = DIRECTION('',(0.,1.));
#74 = ( GEOMETRIC_REPRESENTATION_CONTEXT(2) 
PARAMETRIC_REPRESENTATION_CONTEXT() REPRESENTATION_CONTEXT('2D SPACE',''
  ) );
#75 = ORIENTED_EDGE('',*,*,#76,.T.);
#76 = EDGE_CURVE('',#61,#77,#79,.T.);
#77 = VERTEX_POINT('',#78);
#78 = CARTESIAN_POINT('',(0.,17.164805841723,0.));
#79 = SURFACE_CURVE('',#80,(#92),.PCURVE_S1.);
#80 = B_SPLINE_CURVE_WITH_KNOTS('',1,(#81,#82,#83,#84,#85,#86,#87,#88,
    #89,#90,#91),.UNSPECIFIED.,.F.,.F.,(2,1,1,1,1,1,1,1,1,1,2),(0.,
    6.829307172372E-02,0.119464622452,0.382339585363,0.532240787799,
    0.572299209982,0.837774530469,0.910256991445,0.932788768759,
    0.956911194463,1.),.UNSPECIFIED.);
#81 = CARTESIAN_POINT('',(150.,16.501595927689,0.));
#82 = CARTESIAN_POINT('',(139.67713583332,15.025071626345,0.));
#83 = CARTESIAN_POINT('',(132.00672812932,16.513973486601,0.));
#84 = CARTESIAN_POINT('',(91.977334238933,13.544711755944,0.));
#85 = CARTESIAN_POINT('',(69.270528557673,16.426785336638,0.));
#86 = CARTESIAN_POINT('',(63.511145228266,14.366889107633,0.));
#87 = CARTESIAN_POINT('',(23.015163756327,12.556536464547,0.));
#88 = CARTESIAN_POINT('',(12.841950343969,16.915199275764,0.));
#89 = CARTESIAN_POINT('',(9.840421981843,15.233650597585,0.));
#90 = CARTESIAN_POINT('',(6.575507373692,16.938747659701,0.));
#91 = CARTESIAN_POINT('',(0.,17.164805841723,0.));
#92 = PCURVE('',#40,#93);
#93 = DEFINITIONAL_REPRESENTATION('',(#94),#106);
#94 = B_SPLINE_CURVE_WITH_KNOTS('',1,(#95,#96,#97,#98,#99,#100,#101,#102
    ,#103,#104,#105),.UNSPECIFIED.,.F.,.F.,(2,1,1,1,1,1,1,1,1,1,2),(0.,
    6.829307172372E-02,0.119464622452,0.382339585363,0.532240787799,
    0.572299209982,0.837774530469,0.910256991445,0.932788768759,
    0.956911194463,1.),.UNSPECIFIED.);
#95 = CARTESIAN_POINT('',(75.818001683458,9.001595927689));
#96 = CARTESIAN_POINT('',(65.495137516778,7.525071626345));
#97 = CARTESIAN_POINT('',(57.82472981278,9.013973486601));
#98 = CARTESIAN_POINT('',(17.795335922391,6.044711755944));
#99 = CARTESIAN_POINT('',(-4.911469758869,8.926785336638));
#100 = CARTESIAN_POINT('',(-10.67085308827,6.866889107633));
#101 = CARTESIAN_POINT('',(-51.16683456021,5.056536464547));
#102 = CARTESIAN_POINT('',(-61.34004797257,9.415199275764));
#103 = CARTESIAN_POINT('',(-64.34157633469,7.733650597585));
#104 = CARTESIAN_POINT('',(-67.60649094285,9.438747659701));
#105 = CARTESIAN_POINT('',(-74.18199831654,9.664805841723));
#106 = ( GEOMETRIC_REPRESENTATION_CONTEXT(2) 
PARAMETRIC_REPRESENTATION_CONTEXT() REPRESENTATION_CONTEXT('2D SPACE',''
  ) );
#107 = ORIENTED_EDGE('',*,*,#108,.T.);
#108 = EDGE_CURVE('',#77,#22,#109,.T.);
#109 = SURFACE_CURVE('',#110,(#114),.PCURVE_S1.);
#110 = LINE('',#111,#112);
#111 = CARTESIAN_POINT('',(0.,17.164805841723,0.));
#112 = VECTOR('',#113,1.);
#113 = DIRECTION('',(0.,-1.,0.));
#114 = PCURVE('',#40,#115);
#115 = DEFINITIONAL_REPRESENTATION('',(#116),#120);
#116 = LINE('',#117,#118);
#117 = CARTESIAN_POINT('',(-74.18199831654,9.664805841723));
#118 = VECTOR('',#119,1.);
#119 = DIRECTION('',(0.,-1.));
#120 = ( GEOMETRIC_REPRESENTATION_CONTEXT(2) 
PARAMETRIC_REPRESENTATION_CONTEXT() REPRESENTATION_CONTEXT('2D SPACE',''
  ) );
#121 = ( GEOMETRIC_REPRESENTATION_CONTEXT(3) 
GLOBAL_UNCERTAINTY_ASSIGNED_CONTEXT((#125)) GLOBAL_UNIT_ASSIGNED_CONTEXT
((#122,#123,#124)) REPRESENTATION_CONTEXT('Context #1',
  '3D Context with UNIT and UNCERTAINTY') );
#122 = ( LENGTH_UNIT() NAMED_UNIT(*) SI_UNIT(.MILLI.,.METRE.) );
#123 = ( NAMED_UNIT(*) PLANE_ANGLE_UNIT() SI_UNIT($,.RADIAN.) );
#124 = ( NAMED_UNIT(*) SI_UNIT($,.STERADIAN.) SOLID_ANGLE_UNIT() );
#125 = UNCERTAINTY_MEASURE_WITH_UNIT(LENGTH_MEASURE(1.E-07),#122,
  'distance_accuracy_value','confusion accuracy');
#126 = PRODUCT_RELATED_PRODUCT_CATEGORY('part',$,(#7));
ENDSEC;
END-ISO-10303-21;
