ISO-10303-21;
HEADER;
FILE_DESCRIPTION(('Open CASCADE Model'),'2;1');
FILE_NAME('Open CASCADE Shape Model','2026-06-01T11:13:06',('Author'),(
    'Open CASCADE'),'Open CASCADE STEP processor 7.9','Open CASCADE 7.9'
  ,'Unknown');
FILE_SCHEMA(('AUTOMOTIVE_DESIGN { 1 0 10303 214 1 1 1 1 }'));
ENDSEC;
DATA;
#1 = APPLICATION_PROTOCOL_DEFINITION('international standard',
  'automotive_design',2000,#2);
#2 = APPLICATION_CONTEXT(
  'core data for automotive mechanical design processes');
#3 = SHAPE_DEFINITION_REPRESENTATION(#4,#10);
#4 = PRODUCT_DEFINITION_SHAPE('','',#5);
#5 = PRODUCT_DEFINITION('design','',#6,#9);
#6 = PRODUCT_DEFINITION_FORMATION('','',#7);
#7 = PRODUCT('Open CASCADE STEP translator 7.9 30',
  'Open CASCADE STEP translator 7.9 30','',(#8));
#8 = PRODUCT_CONTEXT('',#2,'mechanical');
#9 = PRODUCT_DEFINITION_CONTEXT('part definition',#2,'design');
#10 = MANIFOLD_SURFACE_SHAPE_REPRESENTATION('',(#11,#15),#121);
#11 = AXIS2_PLACEMENT_3D('',#12,#13,#14);
#12 = CARTESIAN_POINT('',(0.,0.,0.));
#13 = DIRECTION('',(0.,0.,1.));
#14 = DIRECTION('',(1.,0.,-0.));
#15 = SHELL_BASED_SURFACE_MODEL('',(#16));
#16 = OPEN_SHELL('',(#17));
#17 = ADVANCED_FACE('',(#18),#40,.T.);
#18 = FACE_BOUND('',#19,.T.);
#19 = EDGE_LOOP('',(#20,#59,#75,#107));
#20 = ORIENTED_EDGE('',*,*,#21,.T.);
#21 = EDGE_CURVE('',#22,#24,#26,.T.);
#22 = VERTEX_POINT('',#23);
#23 = CARTESIAN_POINT('',(0.,-2.718538082872,0.));
#24 = VERTEX_POINT('',#25);
#25 = CARTESIAN_POINT('',(150.,-3.289108932501,0.));
#26 = SURFACE_CURVE('',#27,(#39),.PCURVE_S1.);
#27 = B_SPLINE_CURVE_WITH_KNOTS('',1,(#28,#29,#30,#31,#32,#33,#34,#35,
    #36,#37,#38),.UNSPECIFIED.,.F.,.F.,(2,1,1,1,1,1,1,1,1,1,2),(0.,
    2.173294497057E-02,0.221379734702,0.302649737748,0.449911491705,
    0.655610228539,0.746122233818,0.799022948704,0.847561229996,
    0.871796971308,1.),.UNSPECIFIED.);
#28 = CARTESIAN_POINT('',(0.,-2.718538082872,0.));
#29 = CARTESIAN_POINT('',(3.172757308174,-3.822315004979,0.));
#30 = CARTESIAN_POINT('',(34.018576400741,-2.903247815557,0.));
#31 = CARTESIAN_POINT('',(44.401753826434,4.167263455189,0.));
#32 = CARTESIAN_POINT('',(66.962638259051,1.145678928239,0.));
#33 = CARTESIAN_POINT('',(98.623596351141,4.061713749175,0.));
#34 = CARTESIAN_POINT('',(112.6034548724,3.516459379969,0.));
#35 = CARTESIAN_POINT('',(118.99959203608,-1.577750658007,0.));
#36 = CARTESIAN_POINT('',(126.49439991649,-1.919323766805,0.));
#37 = CARTESIAN_POINT('',(130.20079787088,-2.463486144765,0.));
#38 = CARTESIAN_POINT('',(150.,-3.289108932501,0.));
#39 = PCURVE('',#40,#45);
#40 = PLANE('',#41);
#41 = AXIS2_PLACEMENT_3D('',#42,#43,#44);
#42 = CARTESIAN_POINT('',(75.137244733607,7.5,0.));
#43 = DIRECTION('',(0.,0.,1.));
#44 = DIRECTION('',(1.,0.,-0.));
#45 = DEFINITIONAL_REPRESENTATION('',(#46),#58);
#46 = B_SPLINE_CURVE_WITH_KNOTS('',1,(#47,#48,#49,#50,#51,#52,#53,#54,
    #55,#56,#57),.UNSPECIFIED.,.F.,.F.,(2,1,1,1,1,1,1,1,1,1,2),(0.,
    2.173294497057E-02,0.221379734702,0.302649737748,0.449911491705,
    0.655610228539,0.746122233818,0.799022948704,0.847561229996,
    0.871796971308,1.),.UNSPECIFIED.);
#47 = CARTESIAN_POINT('',(-75.1372447336,-10.21853808287));
#48 = CARTESIAN_POINT('',(-71.96448742543,-11.32231500497));
#49 = CARTESIAN_POINT('',(-41.11866833286,-10.40324781555));
#50 = CARTESIAN_POINT('',(-30.73549090717,-3.332736544811));
#51 = CARTESIAN_POINT('',(-8.174606474556,-6.354321071761));
#52 = CARTESIAN_POINT('',(23.486351617534,-3.438286250825));
#53 = CARTESIAN_POINT('',(37.466210138793,-3.983540620031));
#54 = CARTESIAN_POINT('',(43.862347302476,-9.077750658007));
#55 = CARTESIAN_POINT('',(51.357155182889,-9.419323766805));
#56 = CARTESIAN_POINT('',(55.063553137275,-9.963486144765));
#57 = CARTESIAN_POINT('',(74.862755266393,-10.7891089325));
#58 = ( GEOMETRIC_REPRESENTATION_CONTEXT(2) 
PARAMETRIC_REPRESENTATION_CONTEXT() REPRESENTATION_CONTEXT('2D SPACE',''
  ) );
#59 = ORIENTED_EDGE('',*,*,#60,.T.);
#60 = EDGE_CURVE('',#24,#61,#63,.T.);
#61 = VERTEX_POINT('',#62);
#62 = CARTESIAN_POINT('',(150.,18.289108932501,0.));
#63 = SURFACE_CURVE('',#64,(#68),.PCURVE_S1.);
#64 = LINE('',#65,#66);
#65 = CARTESIAN_POINT('',(150.,-3.289108932501,0.));
#66 = VECTOR('',#67,1.);
#67 = DIRECTION('',(0.,1.,0.));
#68 = PCURVE('',#40,#69);
#69 = DEFINITIONAL_REPRESENTATION('',(#70),#74);
#70 = LINE('',#71,#72);
#71 = CARTESIAN_POINT('',(74.862755266393,-10.7891089325));
#72 = VECTOR('',#73,1.);
#73 = DIRECTION('',(0.,1.));
#74 = ( GEOMETRIC_REPRESENTATION_CONTEXT(2) 
PARAMETRIC_REPRESENTATION_CONTEXT() REPRESENTATION_CONTEXT('2D SPACE',''
  ) );
#75 = ORIENTED_EDGE('',*,*,#76,.T.);
#76 = EDGE_CURVE('',#61,#77,#79,.T.);
#77 = VERTEX_POINT('',#78);
#78 = CARTESIAN_POINT('',(0.,17.718538082872,0.));
#79 = SURFACE_CURVE('',#80,(#92),.PCURVE_S1.);
#80 = B_SPLINE_CURVE_WITH_KNOTS('',1,(#81,#82,#83,#84,#85,#86,#87,#88,
    #89,#90,#91),.UNSPECIFIED.,.F.,.F.,(2,1,1,1,1,1,1,1,1,1,2),(0.,
    0.128203028692,0.152438770004,0.200977051296,0.253877766182,
    0.344389771461,0.550088508295,0.697350262252,0.778620265298,
    0.978267055029,1.),.UNSPECIFIED.);
#81 = CARTESIAN_POINT('',(150.,18.289108932501,0.));
#82 = CARTESIAN_POINT('',(130.20079787088,17.463486144765,0.));
#83 = CARTESIAN_POINT('',(126.49439991649,16.919323766805,0.));
#84 = CARTESIAN_POINT('',(118.99959203608,16.577750658007,0.));
#85 = CARTESIAN_POINT('',(112.6034548724,11.483540620031,0.));
#86 = CARTESIAN_POINT('',(98.623596351141,10.938286250825,0.));
#87 = CARTESIAN_POINT('',(66.962638259051,13.854321071761,0.));
#88 = CARTESIAN_POINT('',(44.401753826434,10.832736544811,0.));
#89 = CARTESIAN_POINT('',(34.018576400741,17.903247815557,0.));
#90 = CARTESIAN_POINT('',(3.172757308174,18.822315004979,0.));
#91 = CARTESIAN_POINT('',(0.,17.718538082872,0.));
#92 = PCURVE('',#40,#93);
#93 = DEFINITIONAL_REPRESENTATION('',(#94),#106);
#94 = B_SPLINE_CURVE_WITH_KNOTS('',1,(#95,#96,#97,#98,#99,#100,#101,#102
    ,#103,#104,#105),.UNSPECIFIED.,.F.,.F.,(2,1,1,1,1,1,1,1,1,1,2),(0.,
    0.128203028692,0.152438770004,0.200977051296,0.253877766182,
    0.344389771461,0.550088508295,0.697350262252,0.778620265298,
    0.978267055029,1.),.UNSPECIFIED.);
#95 = CARTESIAN_POINT('',(74.862755266393,10.789108932501));
#96 = CARTESIAN_POINT('',(55.063553137275,9.963486144765));
#97 = CARTESIAN_POINT('',(51.357155182889,9.419323766805));
#98 = CARTESIAN_POINT('',(43.862347302476,9.077750658007));
#99 = CARTESIAN_POINT('',(37.466210138793,3.983540620031));
#100 = CARTESIAN_POINT('',(23.486351617534,3.438286250825));
#101 = CARTESIAN_POINT('',(-8.174606474556,6.354321071761));
#102 = CARTESIAN_POINT('',(-30.73549090717,3.332736544811));
#103 = CARTESIAN_POINT('',(-41.11866833286,10.403247815557));
#104 = CARTESIAN_POINT('',(-71.96448742543,11.322315004979));
#105 = CARTESIAN_POINT('',(-75.1372447336,10.218538082872));
#106 = ( GEOMETRIC_REPRESENTATION_CONTEXT(2) 
PARAMETRIC_REPRESENTATION_CONTEXT() REPRESENTATION_CONTEXT('2D SPACE',''
  ) );
#107 = ORIENTED_EDGE('',*,*,#108,.T.);
#108 = EDGE_CURVE('',#77,#22,#109,.T.);
#109 = SURFACE_CURVE('',#110,(#114),.PCURVE_S1.);
#110 = LINE('',#111,#112);
#111 = CARTESIAN_POINT('',(0.,17.718538082872,0.));
#112 = VECTOR('',#113,1.);
#113 = DIRECTION('',(0.,-1.,0.));
#114 = PCURVE('',#40,#115);
#115 = DEFINITIONAL_REPRESENTATION('',(#116),#120);
#116 = LINE('',#117,#118);
#117 = CARTESIAN_POINT('',(-75.1372447336,10.218538082872));
#118 = VECTOR('',#119,1.);
#119 = DIRECTION('',(0.,-1.));
#120 = ( GEOMETRIC_REPRESENTATION_CONTEXT(2) 
PARAMETRIC_REPRESENTATION_CONTEXT() REPRESENTATION_CONTEXT('2D SPACE',''
  ) );
#121 = ( GEOMETRIC_REPRESENTATION_CONTEXT(3) 
GLOBAL_UNCERTAINTY_ASSIGNED_CONTEXT((#125)) GLOBAL_UNIT_ASSIGNED_CONTEXT
((#122,#123,#124)) REPRESENTATION_CONTEXT('Context #1',
  '3D Context with UNIT and UNCERTAINTY') );
#122 = ( LENGTH_UNIT() NAMED_UNIT(*) SI_UNIT(.MILLI.,.METRE.) );
#123 = ( NAMED_UNIT(*) PLANE_ANGLE_UNIT() SI_UNIT($,.RADIAN.) );
#124 = ( NAMED_UNIT(*) SI_UNIT($,.STERADIAN.) SOLID_ANGLE_UNIT() );
#125 = UNCERTAINTY_MEASURE_WITH_UNIT(LENGTH_MEASURE(1.E-07),#122,
  'distance_accuracy_value','confusion accuracy');
#126 = PRODUCT_RELATED_PRODUCT_CATEGORY('part',$,(#7));
ENDSEC;
END-ISO-10303-21;
