ISO-10303-21;
HEADER;
FILE_DESCRIPTION(('Open CASCADE Model'),'2;1');
FILE_NAME('Open CASCADE Shape Model','2026-06-04T14:36:37',('Author'),(
    'Open CASCADE'),'Open CASCADE STEP processor 7.9','Open CASCADE 7.9'
  ,'Unknown');
FILE_SCHEMA(('AUTOMOTIVE_DESIGN { 1 0 10303 214 1 1 1 1 }'));
ENDSEC;
DATA;
#1 = APPLICATION_PROTOCOL_DEFINITION('international standard',
  'automotive_design',2000,#2);
#2 = APPLICATION_CONTEXT(
  'core data for automotive mechanical design processes');
#3 = SHAPE_DEFINITION_REPRESENTATION(#4,#10);
#4 = PRODUCT_DEFINITION_SHAPE('','',#5);
#5 = PRODUCT_DEFINITION('design','',#6,#9);
#6 = PRODUCT_DEFINITION_FORMATION('','',#7);
#7 = PRODUCT('Open CASCADE STEP translator 7.9 26',
  'Open CASCADE STEP translator 7.9 26','',(#8));
#8 = PRODUCT_CONTEXT('',#2,'mechanical');
#9 = PRODUCT_DEFINITION_CONTEXT('part definition',#2,'design');
#10 = MANIFOLD_SURFACE_SHAPE_REPRESENTATION('',(#11,#15),#121);
#11 = AXIS2_PLACEMENT_3D('',#12,#13,#14);
#12 = CARTESIAN_POINT('',(0.,0.,0.));
#13 = DIRECTION('',(0.,0.,1.));
#14 = DIRECTION('',(1.,0.,-0.));
#15 = SHELL_BASED_SURFACE_MODEL('',(#16));
#16 = OPEN_SHELL('',(#17));
#17 = ADVANCED_FACE('',(#18),#40,.T.);
#18 = FACE_BOUND('',#19,.T.);
#19 = EDGE_LOOP('',(#20,#59,#75,#107));
#20 = ORIENTED_EDGE('',*,*,#21,.T.);
#21 = EDGE_CURVE('',#22,#24,#26,.T.);
#22 = VERTEX_POINT('',#23);
#23 = CARTESIAN_POINT('',(0.,-4.903216643263E-03,0.));
#24 = VERTEX_POINT('',#25);
#25 = CARTESIAN_POINT('',(1.,-4.071036221562E-03,0.));
#26 = SURFACE_CURVE('',#27,(#39),.PCURVE_S1.);
#27 = B_SPLINE_CURVE_WITH_KNOTS('',1,(#28,#29,#30,#31,#32,#33,#34,#35,
    #36,#37,#38),.UNSPECIFIED.,.F.,.F.,(2,1,1,1,1,1,1,1,1,1,2),(0.,
    0.168645192083,0.321930011218,0.571166016156,0.593260905583,
    0.662043200387,0.711410315608,0.774060161883,0.848927327576,
    0.902332085041,1.),.UNSPECIFIED.);
#28 = CARTESIAN_POINT('',(0.,-4.903216643263E-03,0.));
#29 = CARTESIAN_POINT('',(0.168641341569,3.584041114312E-03,0.));
#30 = CARTESIAN_POINT('',(0.322086018219,5.175438674565E-04,0.));
#31 = CARTESIAN_POINT('',(0.571631141439,1.074272841581E-03,0.));
#32 = CARTESIAN_POINT('',(0.593531625219,4.199507163538E-03,0.));
#33 = CARTESIAN_POINT('',(0.662067527605,-2.553301727947E-03,0.));
#34 = CARTESIAN_POINT('',(0.711391292485,6.622097267741E-04,0.));
#35 = CARTESIAN_POINT('',(0.774117989912,3.06730658096E-04,0.));
#36 = CARTESIAN_POINT('',(0.849010437028,3.493270261868E-03,0.));
#37 = CARTESIAN_POINT('',(0.90248070765,3.190733477691E-03,0.));
#38 = CARTESIAN_POINT('',(1.,-4.071036221562E-03,0.));
#39 = PCURVE('',#40,#45);
#40 = PLANE('',#41);
#41 = AXIS2_PLACEMENT_3D('',#42,#43,#44);
#42 = CARTESIAN_POINT('',(0.499739828393,5.E-02,0.));
#43 = DIRECTION('',(0.,0.,1.));
#44 = DIRECTION('',(1.,0.,-0.));
#45 = DEFINITIONAL_REPRESENTATION('',(#46),#58);
#46 = B_SPLINE_CURVE_WITH_KNOTS('',1,(#47,#48,#49,#50,#51,#52,#53,#54,
    #55,#56,#57),.UNSPECIFIED.,.F.,.F.,(2,1,1,1,1,1,1,1,1,1,2),(0.,
    0.168645192083,0.321930011218,0.571166016156,0.593260905583,
    0.662043200387,0.711410315608,0.774060161883,0.848927327576,
    0.902332085041,1.),.UNSPECIFIED.);
#47 = CARTESIAN_POINT('',(-0.499739828393,-5.490321664326E-02));
#48 = CARTESIAN_POINT('',(-0.331098486824,-4.641595888569E-02));
#49 = CARTESIAN_POINT('',(-0.177653810174,-4.948245613254E-02));
#50 = CARTESIAN_POINT('',(7.189131304612E-02,-4.892572715842E-02));
#51 = CARTESIAN_POINT('',(9.379179682586E-02,-4.580049283646E-02));
#52 = CARTESIAN_POINT('',(0.162327699211,-5.255330172795E-02));
#53 = CARTESIAN_POINT('',(0.211651464092,-4.933779027323E-02));
#54 = CARTESIAN_POINT('',(0.274378161519,-4.96932693419E-02));
#55 = CARTESIAN_POINT('',(0.349270608635,-4.650672973813E-02));
#56 = CARTESIAN_POINT('',(0.402740879257,-4.680926652231E-02));
#57 = CARTESIAN_POINT('',(0.500260171607,-5.407103622156E-02));
#58 = ( GEOMETRIC_REPRESENTATION_CONTEXT(2) 
PARAMETRIC_REPRESENTATION_CONTEXT() REPRESENTATION_CONTEXT('2D SPACE',''
  ) );
#59 = ORIENTED_EDGE('',*,*,#60,.T.);
#60 = EDGE_CURVE('',#24,#61,#63,.T.);
#61 = VERTEX_POINT('',#62);
#62 = CARTESIAN_POINT('',(1.,0.104071036222,0.));
#63 = SURFACE_CURVE('',#64,(#68),.PCURVE_S1.);
#64 = LINE('',#65,#66);
#65 = CARTESIAN_POINT('',(1.,-4.071036221562E-03,0.));
#66 = VECTOR('',#67,1.);
#67 = DIRECTION('',(0.,1.,0.));
#68 = PCURVE('',#40,#69);
#69 = DEFINITIONAL_REPRESENTATION('',(#70),#74);
#70 = LINE('',#71,#72);
#71 = CARTESIAN_POINT('',(0.500260171607,-5.407103622156E-02));
#72 = VECTOR('',#73,1.);
#73 = DIRECTION('',(0.,1.));
#74 = ( GEOMETRIC_REPRESENTATION_CONTEXT(2) 
PARAMETRIC_REPRESENTATION_CONTEXT() REPRESENTATION_CONTEXT('2D SPACE',''
  ) );
#75 = ORIENTED_EDGE('',*,*,#76,.T.);
#76 = EDGE_CURVE('',#61,#77,#79,.T.);
#77 = VERTEX_POINT('',#78);
#78 = CARTESIAN_POINT('',(0.,0.104903216643,0.));
#79 = SURFACE_CURVE('',#80,(#92),.PCURVE_S1.);
#80 = B_SPLINE_CURVE_WITH_KNOTS('',1,(#81,#82,#83,#84,#85,#86,#87,#88,
    #89,#90,#91),.UNSPECIFIED.,.F.,.F.,(2,1,1,1,1,1,1,1,1,1,2),(0.,
    9.766791495934E-02,0.151072672424,0.225939838117,0.288589684392,
    0.337956799613,0.406739094417,0.428833983844,0.678069988782,
    0.831354807917,1.),.UNSPECIFIED.);
#81 = CARTESIAN_POINT('',(1.,0.104071036222,0.));
#82 = CARTESIAN_POINT('',(0.90248070765,9.680926652231E-02,0.));
#83 = CARTESIAN_POINT('',(0.849010437028,9.650672973813E-02,0.));
#84 = CARTESIAN_POINT('',(0.774117989912,9.96932693419E-02,0.));
#85 = CARTESIAN_POINT('',(0.711391292485,9.933779027323E-02,0.));
#86 = CARTESIAN_POINT('',(0.662067527605,0.102553301728,0.));
#87 = CARTESIAN_POINT('',(0.593531625219,9.580049283646E-02,0.));
#88 = CARTESIAN_POINT('',(0.571631141439,9.892572715842E-02,0.));
#89 = CARTESIAN_POINT('',(0.322086018219,9.948245613254E-02,0.));
#90 = CARTESIAN_POINT('',(0.168641341569,9.641595888569E-02,0.));
#91 = CARTESIAN_POINT('',(0.,0.104903216643,0.));
#92 = PCURVE('',#40,#93);
#93 = DEFINITIONAL_REPRESENTATION('',(#94),#106);
#94 = B_SPLINE_CURVE_WITH_KNOTS('',1,(#95,#96,#97,#98,#99,#100,#101,#102
    ,#103,#104,#105),.UNSPECIFIED.,.F.,.F.,(2,1,1,1,1,1,1,1,1,1,2),(0.,
    9.766791495934E-02,0.151072672424,0.225939838117,0.288589684392,
    0.337956799613,0.406739094417,0.428833983844,0.678069988782,
    0.831354807917,1.),.UNSPECIFIED.);
#95 = CARTESIAN_POINT('',(0.500260171607,5.407103622156E-02));
#96 = CARTESIAN_POINT('',(0.402740879257,4.680926652231E-02));
#97 = CARTESIAN_POINT('',(0.349270608635,4.650672973813E-02));
#98 = CARTESIAN_POINT('',(0.274378161519,4.96932693419E-02));
#99 = CARTESIAN_POINT('',(0.211651464092,4.933779027323E-02));
#100 = CARTESIAN_POINT('',(0.162327699211,5.255330172795E-02));
#101 = CARTESIAN_POINT('',(9.379179682586E-02,4.580049283646E-02));
#102 = CARTESIAN_POINT('',(7.189131304612E-02,4.892572715842E-02));
#103 = CARTESIAN_POINT('',(-0.177653810174,4.948245613254E-02));
#104 = CARTESIAN_POINT('',(-0.331098486824,4.641595888569E-02));
#105 = CARTESIAN_POINT('',(-0.499739828393,5.490321664326E-02));
#106 = ( GEOMETRIC_REPRESENTATION_CONTEXT(2) 
PARAMETRIC_REPRESENTATION_CONTEXT() REPRESENTATION_CONTEXT('2D SPACE',''
  ) );
#107 = ORIENTED_EDGE('',*,*,#108,.T.);
#108 = EDGE_CURVE('',#77,#22,#109,.T.);
#109 = SURFACE_CURVE('',#110,(#114),.PCURVE_S1.);
#110 = LINE('',#111,#112);
#111 = CARTESIAN_POINT('',(0.,0.104903216643,0.));
#112 = VECTOR('',#113,1.);
#113 = DIRECTION('',(0.,-1.,0.));
#114 = PCURVE('',#40,#115);
#115 = DEFINITIONAL_REPRESENTATION('',(#116),#120);
#116 = LINE('',#117,#118);
#117 = CARTESIAN_POINT('',(-0.499739828393,5.490321664326E-02));
#118 = VECTOR('',#119,1.);
#119 = DIRECTION('',(0.,-1.));
#120 = ( GEOMETRIC_REPRESENTATION_CONTEXT(2) 
PARAMETRIC_REPRESENTATION_CONTEXT() REPRESENTATION_CONTEXT('2D SPACE',''
  ) );
#121 = ( GEOMETRIC_REPRESENTATION_CONTEXT(3) 
GLOBAL_UNCERTAINTY_ASSIGNED_CONTEXT((#125)) GLOBAL_UNIT_ASSIGNED_CONTEXT
((#122,#123,#124)) REPRESENTATION_CONTEXT('Context #1',
  '3D Context with UNIT and UNCERTAINTY') );
#122 = ( LENGTH_UNIT() NAMED_UNIT(*) SI_UNIT(.MILLI.,.METRE.) );
#123 = ( NAMED_UNIT(*) PLANE_ANGLE_UNIT() SI_UNIT($,.RADIAN.) );
#124 = ( NAMED_UNIT(*) SI_UNIT($,.STERADIAN.) SOLID_ANGLE_UNIT() );
#125 = UNCERTAINTY_MEASURE_WITH_UNIT(LENGTH_MEASURE(1.E-07),#122,
  'distance_accuracy_value','confusion accuracy');
#126 = PRODUCT_RELATED_PRODUCT_CATEGORY('part',$,(#7));
ENDSEC;
END-ISO-10303-21;
