ISO-10303-21;
HEADER;
FILE_DESCRIPTION(('Open CASCADE Model'),'2;1');
FILE_NAME('Open CASCADE Shape Model','2026-06-04T12:09:59',('Author'),(
    'Open CASCADE'),'Open CASCADE STEP processor 7.9','Open CASCADE 7.9'
  ,'Unknown');
FILE_SCHEMA(('AUTOMOTIVE_DESIGN { 1 0 10303 214 1 1 1 1 }'));
ENDSEC;
DATA;
#1 = APPLICATION_PROTOCOL_DEFINITION('international standard',
  'automotive_design',2000,#2);
#2 = APPLICATION_CONTEXT(
  'core data for automotive mechanical design processes');
#3 = SHAPE_DEFINITION_REPRESENTATION(#4,#10);
#4 = PRODUCT_DEFINITION_SHAPE('','',#5);
#5 = PRODUCT_DEFINITION('design','',#6,#9);
#6 = PRODUCT_DEFINITION_FORMATION('','',#7);
#7 = PRODUCT('Open CASCADE STEP translator 7.9 57',
  'Open CASCADE STEP translator 7.9 57','',(#8));
#8 = PRODUCT_CONTEXT('',#2,'mechanical');
#9 = PRODUCT_DEFINITION_CONTEXT('part definition',#2,'design');
#10 = MANIFOLD_SURFACE_SHAPE_REPRESENTATION('',(#11,#15),#121);
#11 = AXIS2_PLACEMENT_3D('',#12,#13,#14);
#12 = CARTESIAN_POINT('',(0.,0.,0.));
#13 = DIRECTION('',(0.,0.,1.));
#14 = DIRECTION('',(1.,0.,-0.));
#15 = SHELL_BASED_SURFACE_MODEL('',(#16));
#16 = OPEN_SHELL('',(#17));
#17 = ADVANCED_FACE('',(#18),#40,.T.);
#18 = FACE_BOUND('',#19,.T.);
#19 = EDGE_LOOP('',(#20,#59,#75,#107));
#20 = ORIENTED_EDGE('',*,*,#21,.T.);
#21 = EDGE_CURVE('',#22,#24,#26,.T.);
#22 = VERTEX_POINT('',#23);
#23 = CARTESIAN_POINT('',(0.,8.284754626635E-02,0.));
#24 = VERTEX_POINT('',#25);
#25 = CARTESIAN_POINT('',(150.,-0.384570822283,0.));
#26 = SURFACE_CURVE('',#27,(#39),.PCURVE_S1.);
#27 = B_SPLINE_CURVE_WITH_KNOTS('',1,(#28,#29,#30,#31,#32,#33,#34,#35,
    #36,#37,#38),.UNSPECIFIED.,.F.,.F.,(2,1,1,1,1,1,1,1,1,1,2),(0.,
    0.146728615493,0.214938536528,0.315209931573,0.373867292573,
    0.433516505569,0.774239733006,0.904660334408,0.929548175207,
    0.959001791255,1.),.UNSPECIFIED.);
#28 = CARTESIAN_POINT('',(0.,8.284754626635E-02,0.));
#29 = CARTESIAN_POINT('',(22.12521538217,1.438892067942,0.));
#30 = CARTESIAN_POINT('',(32.385931787288,0.488063476111,0.));
#31 = CARTESIAN_POINT('',(47.396849246116,-1.547461912397,0.));
#32 = CARTESIAN_POINT('',(56.24880035517,-1.959668907948,0.));
#33 = CARTESIAN_POINT('',(65.118386200426,-0.36733840734,0.));
#34 = CARTESIAN_POINT('',(116.58165116081,0.687783114857,0.));
#35 = CARTESIAN_POINT('',(136.27266576904,1.375819431029,0.));
#36 = CARTESIAN_POINT('',(139.71717718639,-0.131510824616,0.));
#37 = CARTESIAN_POINT('',(143.98967869198,1.111502288614,0.));
#38 = CARTESIAN_POINT('',(150.,-0.384570822283,0.));
#39 = PCURVE('',#40,#45);
#40 = PLANE('',#41);
#41 = AXIS2_PLACEMENT_3D('',#42,#43,#44);
#42 = CARTESIAN_POINT('',(75.414305968422,7.5,0.));
#43 = DIRECTION('',(0.,0.,1.));
#44 = DIRECTION('',(1.,0.,-0.));
#45 = DEFINITIONAL_REPRESENTATION('',(#46),#58);
#46 = B_SPLINE_CURVE_WITH_KNOTS('',1,(#47,#48,#49,#50,#51,#52,#53,#54,
    #55,#56,#57),.UNSPECIFIED.,.F.,.F.,(2,1,1,1,1,1,1,1,1,1,2),(0.,
    0.146728615493,0.214938536528,0.315209931573,0.373867292573,
    0.433516505569,0.774239733006,0.904660334408,0.929548175207,
    0.959001791255,1.),.UNSPECIFIED.);
#47 = CARTESIAN_POINT('',(-75.41430596842,-7.417152453734));
#48 = CARTESIAN_POINT('',(-53.28909058625,-6.061107932058));
#49 = CARTESIAN_POINT('',(-43.02837418113,-7.011936523889));
#50 = CARTESIAN_POINT('',(-28.0174567223,-9.047461912397));
#51 = CARTESIAN_POINT('',(-19.16550561325,-9.459668907948));
#52 = CARTESIAN_POINT('',(-10.29591976799,-7.86733840734));
#53 = CARTESIAN_POINT('',(41.167345192397,-6.812216885143));
#54 = CARTESIAN_POINT('',(60.858359800625,-6.124180568971));
#55 = CARTESIAN_POINT('',(64.302871217969,-7.631510824616));
#56 = CARTESIAN_POINT('',(68.575372723562,-6.388497711386));
#57 = CARTESIAN_POINT('',(74.585694031578,-7.884570822283));
#58 = ( GEOMETRIC_REPRESENTATION_CONTEXT(2) 
PARAMETRIC_REPRESENTATION_CONTEXT() REPRESENTATION_CONTEXT('2D SPACE',''
  ) );
#59 = ORIENTED_EDGE('',*,*,#60,.T.);
#60 = EDGE_CURVE('',#24,#61,#63,.T.);
#61 = VERTEX_POINT('',#62);
#62 = CARTESIAN_POINT('',(150.,15.384570822283,0.));
#63 = SURFACE_CURVE('',#64,(#68),.PCURVE_S1.);
#64 = LINE('',#65,#66);
#65 = CARTESIAN_POINT('',(150.,-0.384570822283,0.));
#66 = VECTOR('',#67,1.);
#67 = DIRECTION('',(0.,1.,0.));
#68 = PCURVE('',#40,#69);
#69 = DEFINITIONAL_REPRESENTATION('',(#70),#74);
#70 = LINE('',#71,#72);
#71 = CARTESIAN_POINT('',(74.585694031578,-7.884570822283));
#72 = VECTOR('',#73,1.);
#73 = DIRECTION('',(0.,1.));
#74 = ( GEOMETRIC_REPRESENTATION_CONTEXT(2) 
PARAMETRIC_REPRESENTATION_CONTEXT() REPRESENTATION_CONTEXT('2D SPACE',''
  ) );
#75 = ORIENTED_EDGE('',*,*,#76,.T.);
#76 = EDGE_CURVE('',#61,#77,#79,.T.);
#77 = VERTEX_POINT('',#78);
#78 = CARTESIAN_POINT('',(0.,14.917152453734,0.));
#79 = SURFACE_CURVE('',#80,(#92),.PCURVE_S1.);
#80 = B_SPLINE_CURVE_WITH_KNOTS('',1,(#81,#82,#83,#84,#85,#86,#87,#88,
    #89,#90,#91),.UNSPECIFIED.,.F.,.F.,(2,1,1,1,1,1,1,1,1,1,2),(0.,
    4.099820874499E-02,7.045182479347E-02,9.533966559192E-02,
    0.225760266994,0.566483494431,0.626132707427,0.684790068427,
    0.785061463472,0.853271384507,1.),.UNSPECIFIED.);
#81 = CARTESIAN_POINT('',(150.,15.384570822283,0.));
#82 = CARTESIAN_POINT('',(143.98967869198,13.888497711386,0.));
#83 = CARTESIAN_POINT('',(139.71717718639,15.131510824616,0.));
#84 = CARTESIAN_POINT('',(136.27266576904,13.624180568971,0.));
#85 = CARTESIAN_POINT('',(116.58165116081,14.312216885143,0.));
#86 = CARTESIAN_POINT('',(65.118386200426,15.36733840734,0.));
#87 = CARTESIAN_POINT('',(56.24880035517,16.959668907948,0.));
#88 = CARTESIAN_POINT('',(47.396849246116,16.547461912397,0.));
#89 = CARTESIAN_POINT('',(32.385931787288,14.511936523889,0.));
#90 = CARTESIAN_POINT('',(22.12521538217,13.561107932058,0.));
#91 = CARTESIAN_POINT('',(0.,14.917152453734,0.));
#92 = PCURVE('',#40,#93);
#93 = DEFINITIONAL_REPRESENTATION('',(#94),#106);
#94 = B_SPLINE_CURVE_WITH_KNOTS('',1,(#95,#96,#97,#98,#99,#100,#101,#102
    ,#103,#104,#105),.UNSPECIFIED.,.F.,.F.,(2,1,1,1,1,1,1,1,1,1,2),(0.,
    4.099820874499E-02,7.045182479347E-02,9.533966559192E-02,
    0.225760266994,0.566483494431,0.626132707427,0.684790068427,
    0.785061463472,0.853271384507,1.),.UNSPECIFIED.);
#95 = CARTESIAN_POINT('',(74.585694031578,7.884570822283));
#96 = CARTESIAN_POINT('',(68.575372723562,6.388497711386));
#97 = CARTESIAN_POINT('',(64.302871217969,7.631510824616));
#98 = CARTESIAN_POINT('',(60.858359800625,6.124180568971));
#99 = CARTESIAN_POINT('',(41.167345192397,6.812216885143));
#100 = CARTESIAN_POINT('',(-10.29591976799,7.86733840734));
#101 = CARTESIAN_POINT('',(-19.16550561325,9.459668907948));
#102 = CARTESIAN_POINT('',(-28.0174567223,9.047461912397));
#103 = CARTESIAN_POINT('',(-43.02837418113,7.011936523889));
#104 = CARTESIAN_POINT('',(-53.28909058625,6.061107932058));
#105 = CARTESIAN_POINT('',(-75.41430596842,7.417152453734));
#106 = ( GEOMETRIC_REPRESENTATION_CONTEXT(2) 
PARAMETRIC_REPRESENTATION_CONTEXT() REPRESENTATION_CONTEXT('2D SPACE',''
  ) );
#107 = ORIENTED_EDGE('',*,*,#108,.T.);
#108 = EDGE_CURVE('',#77,#22,#109,.T.);
#109 = SURFACE_CURVE('',#110,(#114),.PCURVE_S1.);
#110 = LINE('',#111,#112);
#111 = CARTESIAN_POINT('',(0.,14.917152453734,0.));
#112 = VECTOR('',#113,1.);
#113 = DIRECTION('',(0.,-1.,0.));
#114 = PCURVE('',#40,#115);
#115 = DEFINITIONAL_REPRESENTATION('',(#116),#120);
#116 = LINE('',#117,#118);
#117 = CARTESIAN_POINT('',(-75.41430596842,7.417152453734));
#118 = VECTOR('',#119,1.);
#119 = DIRECTION('',(0.,-1.));
#120 = ( GEOMETRIC_REPRESENTATION_CONTEXT(2) 
PARAMETRIC_REPRESENTATION_CONTEXT() REPRESENTATION_CONTEXT('2D SPACE',''
  ) );
#121 = ( GEOMETRIC_REPRESENTATION_CONTEXT(3) 
GLOBAL_UNCERTAINTY_ASSIGNED_CONTEXT((#125)) GLOBAL_UNIT_ASSIGNED_CONTEXT
((#122,#123,#124)) REPRESENTATION_CONTEXT('Context #1',
  '3D Context with UNIT and UNCERTAINTY') );
#122 = ( LENGTH_UNIT() NAMED_UNIT(*) SI_UNIT(.MILLI.,.METRE.) );
#123 = ( NAMED_UNIT(*) PLANE_ANGLE_UNIT() SI_UNIT($,.RADIAN.) );
#124 = ( NAMED_UNIT(*) SI_UNIT($,.STERADIAN.) SOLID_ANGLE_UNIT() );
#125 = UNCERTAINTY_MEASURE_WITH_UNIT(LENGTH_MEASURE(1.E-07),#122,
  'distance_accuracy_value','confusion accuracy');
#126 = PRODUCT_RELATED_PRODUCT_CATEGORY('part',$,(#7));
ENDSEC;
END-ISO-10303-21;
