ISO-10303-21;
HEADER;
FILE_DESCRIPTION(('Open CASCADE Model'),'2;1');
FILE_NAME('Open CASCADE Shape Model','2026-06-04T12:09:58',('Author'),(
    'Open CASCADE'),'Open CASCADE STEP processor 7.9','Open CASCADE 7.9'
  ,'Unknown');
FILE_SCHEMA(('AUTOMOTIVE_DESIGN { 1 0 10303 214 1 1 1 1 }'));
ENDSEC;
DATA;
#1 = APPLICATION_PROTOCOL_DEFINITION('international standard',
  'automotive_design',2000,#2);
#2 = APPLICATION_CONTEXT(
  'core data for automotive mechanical design processes');
#3 = SHAPE_DEFINITION_REPRESENTATION(#4,#10);
#4 = PRODUCT_DEFINITION_SHAPE('','',#5);
#5 = PRODUCT_DEFINITION('design','',#6,#9);
#6 = PRODUCT_DEFINITION_FORMATION('','',#7);
#7 = PRODUCT('Open CASCADE STEP translator 7.9 3',
  'Open CASCADE STEP translator 7.9 3','',(#8));
#8 = PRODUCT_CONTEXT('',#2,'mechanical');
#9 = PRODUCT_DEFINITION_CONTEXT('part definition',#2,'design');
#10 = MANIFOLD_SURFACE_SHAPE_REPRESENTATION('',(#11,#15),#121);
#11 = AXIS2_PLACEMENT_3D('',#12,#13,#14);
#12 = CARTESIAN_POINT('',(0.,0.,0.));
#13 = DIRECTION('',(0.,0.,1.));
#14 = DIRECTION('',(1.,0.,-0.));
#15 = SHELL_BASED_SURFACE_MODEL('',(#16));
#16 = OPEN_SHELL('',(#17));
#17 = ADVANCED_FACE('',(#18),#40,.T.);
#18 = FACE_BOUND('',#19,.T.);
#19 = EDGE_LOOP('',(#20,#59,#75,#107));
#20 = ORIENTED_EDGE('',*,*,#21,.T.);
#21 = EDGE_CURVE('',#22,#24,#26,.T.);
#22 = VERTEX_POINT('',#23);
#23 = CARTESIAN_POINT('',(0.,-1.721546265013,0.));
#24 = VERTEX_POINT('',#25);
#25 = CARTESIAN_POINT('',(150.,-0.391416638887,0.));
#26 = SURFACE_CURVE('',#27,(#39),.PCURVE_S1.);
#27 = B_SPLINE_CURVE_WITH_KNOTS('',1,(#28,#29,#30,#31,#32,#33,#34,#35,
    #36,#37,#38),.UNSPECIFIED.,.F.,.F.,(2,1,1,1,1,1,1,1,1,1,2),(0.,
    0.165285202619,0.194938635871,0.366883099478,0.568747763387,
    0.739108564908,0.798950227339,0.861818301428,0.909247925817,
    0.977043803489,1.),.UNSPECIFIED.);
#28 = CARTESIAN_POINT('',(0.,-1.721546265013,0.));
#29 = CARTESIAN_POINT('',(25.012652153163,-0.989105139552,0.));
#30 = CARTESIAN_POINT('',(29.495516221902,-1.230992271758,0.));
#31 = CARTESIAN_POINT('',(55.523121204564,-1.684374186132,0.));
#32 = CARTESIAN_POINT('',(86.023389178203,0.24650534677,0.));
#33 = CARTESIAN_POINT('',(111.80676479684,-0.412447175717,0.));
#34 = CARTESIAN_POINT('',(120.49325215915,2.161218011234,0.));
#35 = CARTESIAN_POINT('',(130.00996463048,2.312819558784,0.));
#36 = CARTESIAN_POINT('',(136.3752854769,-1.010417770743,0.));
#37 = CARTESIAN_POINT('',(146.57075045418,0.173422763141,0.));
#38 = CARTESIAN_POINT('',(150.,-0.391416638887,0.));
#39 = PCURVE('',#40,#45);
#40 = PLANE('',#41);
#41 = AXIS2_PLACEMENT_3D('',#42,#43,#44);
#42 = CARTESIAN_POINT('',(74.821239803978,7.5,0.));
#43 = DIRECTION('',(0.,0.,1.));
#44 = DIRECTION('',(1.,0.,-0.));
#45 = DEFINITIONAL_REPRESENTATION('',(#46),#58);
#46 = B_SPLINE_CURVE_WITH_KNOTS('',1,(#47,#48,#49,#50,#51,#52,#53,#54,
    #55,#56,#57),.UNSPECIFIED.,.F.,.F.,(2,1,1,1,1,1,1,1,1,1,2),(0.,
    0.165285202619,0.194938635871,0.366883099478,0.568747763387,
    0.739108564908,0.798950227339,0.861818301428,0.909247925817,
    0.977043803489,1.),.UNSPECIFIED.);
#47 = CARTESIAN_POINT('',(-74.82123980397,-9.221546265013));
#48 = CARTESIAN_POINT('',(-49.80858765081,-8.489105139552));
#49 = CARTESIAN_POINT('',(-45.32572358207,-8.730992271758));
#50 = CARTESIAN_POINT('',(-19.29811859941,-9.184374186132));
#51 = CARTESIAN_POINT('',(11.202149374225,-7.25349465323));
#52 = CARTESIAN_POINT('',(36.985524992867,-7.912447175717));
#53 = CARTESIAN_POINT('',(45.672012355171,-5.338781988766));
#54 = CARTESIAN_POINT('',(55.188724826511,-5.187180441216));
#55 = CARTESIAN_POINT('',(61.554045672921,-8.510417770743));
#56 = CARTESIAN_POINT('',(71.74951065021,-7.326577236859));
#57 = CARTESIAN_POINT('',(75.178760196022,-7.891416638887));
#58 = ( GEOMETRIC_REPRESENTATION_CONTEXT(2) 
PARAMETRIC_REPRESENTATION_CONTEXT() REPRESENTATION_CONTEXT('2D SPACE',''
  ) );
#59 = ORIENTED_EDGE('',*,*,#60,.T.);
#60 = EDGE_CURVE('',#24,#61,#63,.T.);
#61 = VERTEX_POINT('',#62);
#62 = CARTESIAN_POINT('',(150.,15.391416638887,0.));
#63 = SURFACE_CURVE('',#64,(#68),.PCURVE_S1.);
#64 = LINE('',#65,#66);
#65 = CARTESIAN_POINT('',(150.,-0.391416638887,0.));
#66 = VECTOR('',#67,1.);
#67 = DIRECTION('',(0.,1.,0.));
#68 = PCURVE('',#40,#69);
#69 = DEFINITIONAL_REPRESENTATION('',(#70),#74);
#70 = LINE('',#71,#72);
#71 = CARTESIAN_POINT('',(75.178760196022,-7.891416638887));
#72 = VECTOR('',#73,1.);
#73 = DIRECTION('',(0.,1.));
#74 = ( GEOMETRIC_REPRESENTATION_CONTEXT(2) 
PARAMETRIC_REPRESENTATION_CONTEXT() REPRESENTATION_CONTEXT('2D SPACE',''
  ) );
#75 = ORIENTED_EDGE('',*,*,#76,.T.);
#76 = EDGE_CURVE('',#61,#77,#79,.T.);
#77 = VERTEX_POINT('',#78);
#78 = CARTESIAN_POINT('',(0.,16.721546265013,0.));
#79 = SURFACE_CURVE('',#80,(#92),.PCURVE_S1.);
#80 = B_SPLINE_CURVE_WITH_KNOTS('',1,(#81,#82,#83,#84,#85,#86,#87,#88,
    #89,#90,#91),.UNSPECIFIED.,.F.,.F.,(2,1,1,1,1,1,1,1,1,1,2),(0.,
    2.295619651053E-02,9.075207418289E-02,0.138181698572,0.201049772661,
    0.260891435092,0.431252236613,0.633116900522,0.805061364129,
    0.834714797381,1.),.UNSPECIFIED.);
#81 = CARTESIAN_POINT('',(150.,15.391416638887,0.));
#82 = CARTESIAN_POINT('',(146.57075045418,14.826577236859,0.));
#83 = CARTESIAN_POINT('',(136.3752854769,16.010417770743,0.));
#84 = CARTESIAN_POINT('',(130.00996463048,12.687180441216,0.));
#85 = CARTESIAN_POINT('',(120.49325215915,12.838781988766,0.));
#86 = CARTESIAN_POINT('',(111.80676479684,15.412447175717,0.));
#87 = CARTESIAN_POINT('',(86.023389178203,14.75349465323,0.));
#88 = CARTESIAN_POINT('',(55.523121204564,16.684374186132,0.));
#89 = CARTESIAN_POINT('',(29.495516221902,16.230992271758,0.));
#90 = CARTESIAN_POINT('',(25.012652153163,15.989105139552,0.));
#91 = CARTESIAN_POINT('',(0.,16.721546265013,0.));
#92 = PCURVE('',#40,#93);
#93 = DEFINITIONAL_REPRESENTATION('',(#94),#106);
#94 = B_SPLINE_CURVE_WITH_KNOTS('',1,(#95,#96,#97,#98,#99,#100,#101,#102
    ,#103,#104,#105),.UNSPECIFIED.,.F.,.F.,(2,1,1,1,1,1,1,1,1,1,2),(0.,
    2.295619651053E-02,9.075207418289E-02,0.138181698572,0.201049772661,
    0.260891435092,0.431252236613,0.633116900522,0.805061364129,
    0.834714797381,1.),.UNSPECIFIED.);
#95 = CARTESIAN_POINT('',(75.178760196022,7.891416638887));
#96 = CARTESIAN_POINT('',(71.74951065021,7.326577236859));
#97 = CARTESIAN_POINT('',(61.554045672921,8.510417770743));
#98 = CARTESIAN_POINT('',(55.188724826511,5.187180441216));
#99 = CARTESIAN_POINT('',(45.672012355171,5.338781988766));
#100 = CARTESIAN_POINT('',(36.985524992867,7.912447175717));
#101 = CARTESIAN_POINT('',(11.202149374225,7.25349465323));
#102 = CARTESIAN_POINT('',(-19.29811859941,9.184374186132));
#103 = CARTESIAN_POINT('',(-45.32572358207,8.730992271758));
#104 = CARTESIAN_POINT('',(-49.80858765081,8.489105139552));
#105 = CARTESIAN_POINT('',(-74.82123980397,9.221546265013));
#106 = ( GEOMETRIC_REPRESENTATION_CONTEXT(2) 
PARAMETRIC_REPRESENTATION_CONTEXT() REPRESENTATION_CONTEXT('2D SPACE',''
  ) );
#107 = ORIENTED_EDGE('',*,*,#108,.T.);
#108 = EDGE_CURVE('',#77,#22,#109,.T.);
#109 = SURFACE_CURVE('',#110,(#114),.PCURVE_S1.);
#110 = LINE('',#111,#112);
#111 = CARTESIAN_POINT('',(0.,16.721546265013,0.));
#112 = VECTOR('',#113,1.);
#113 = DIRECTION('',(0.,-1.,0.));
#114 = PCURVE('',#40,#115);
#115 = DEFINITIONAL_REPRESENTATION('',(#116),#120);
#116 = LINE('',#117,#118);
#117 = CARTESIAN_POINT('',(-74.82123980397,9.221546265013));
#118 = VECTOR('',#119,1.);
#119 = DIRECTION('',(0.,-1.));
#120 = ( GEOMETRIC_REPRESENTATION_CONTEXT(2) 
PARAMETRIC_REPRESENTATION_CONTEXT() REPRESENTATION_CONTEXT('2D SPACE',''
  ) );
#121 = ( GEOMETRIC_REPRESENTATION_CONTEXT(3) 
GLOBAL_UNCERTAINTY_ASSIGNED_CONTEXT((#125)) GLOBAL_UNIT_ASSIGNED_CONTEXT
((#122,#123,#124)) REPRESENTATION_CONTEXT('Context #1',
  '3D Context with UNIT and UNCERTAINTY') );
#122 = ( LENGTH_UNIT() NAMED_UNIT(*) SI_UNIT(.MILLI.,.METRE.) );
#123 = ( NAMED_UNIT(*) PLANE_ANGLE_UNIT() SI_UNIT($,.RADIAN.) );
#124 = ( NAMED_UNIT(*) SI_UNIT($,.STERADIAN.) SOLID_ANGLE_UNIT() );
#125 = UNCERTAINTY_MEASURE_WITH_UNIT(LENGTH_MEASURE(1.E-07),#122,
  'distance_accuracy_value','confusion accuracy');
#126 = PRODUCT_RELATED_PRODUCT_CATEGORY('part',$,(#7));
ENDSEC;
END-ISO-10303-21;
