ISO-10303-21;
HEADER;
FILE_DESCRIPTION(('Open CASCADE Model'),'2;1');
FILE_NAME('Open CASCADE Shape Model','2026-06-04T12:09:59',('Author'),(
    'Open CASCADE'),'Open CASCADE STEP processor 7.9','Open CASCADE 7.9'
  ,'Unknown');
FILE_SCHEMA(('AUTOMOTIVE_DESIGN { 1 0 10303 214 1 1 1 1 }'));
ENDSEC;
DATA;
#1 = APPLICATION_PROTOCOL_DEFINITION('international standard',
  'automotive_design',2000,#2);
#2 = APPLICATION_CONTEXT(
  'core data for automotive mechanical design processes');
#3 = SHAPE_DEFINITION_REPRESENTATION(#4,#10);
#4 = PRODUCT_DEFINITION_SHAPE('','',#5);
#5 = PRODUCT_DEFINITION('design','',#6,#9);
#6 = PRODUCT_DEFINITION_FORMATION('','',#7);
#7 = PRODUCT('Open CASCADE STEP translator 7.9 65',
  'Open CASCADE STEP translator 7.9 65','',(#8));
#8 = PRODUCT_CONTEXT('',#2,'mechanical');
#9 = PRODUCT_DEFINITION_CONTEXT('part definition',#2,'design');
#10 = MANIFOLD_SURFACE_SHAPE_REPRESENTATION('',(#11,#15),#121);
#11 = AXIS2_PLACEMENT_3D('',#12,#13,#14);
#12 = CARTESIAN_POINT('',(0.,0.,0.));
#13 = DIRECTION('',(0.,0.,1.));
#14 = DIRECTION('',(1.,0.,-0.));
#15 = SHELL_BASED_SURFACE_MODEL('',(#16));
#16 = OPEN_SHELL('',(#17));
#17 = ADVANCED_FACE('',(#18),#40,.T.);
#18 = FACE_BOUND('',#19,.T.);
#19 = EDGE_LOOP('',(#20,#59,#75,#107));
#20 = ORIENTED_EDGE('',*,*,#21,.T.);
#21 = EDGE_CURVE('',#22,#24,#26,.T.);
#22 = VERTEX_POINT('',#23);
#23 = CARTESIAN_POINT('',(0.,-0.91001680761,0.));
#24 = VERTEX_POINT('',#25);
#25 = CARTESIAN_POINT('',(150.,-1.234782021777,0.));
#26 = SURFACE_CURVE('',#27,(#39),.PCURVE_S1.);
#27 = B_SPLINE_CURVE_WITH_KNOTS('',1,(#28,#29,#30,#31,#32,#33,#34,#35,
    #36,#37,#38),.UNSPECIFIED.,.F.,.F.,(2,1,1,1,1,1,1,1,1,1,2),(0.,
    5.223230694047E-02,0.123551885287,0.196776302569,0.268423822002,
    0.304526047324,0.594552638821,0.655965105894,0.7505154797,
    0.958452457299,1.),.UNSPECIFIED.);
#28 = CARTESIAN_POINT('',(0.,-0.91001680761,0.));
#29 = CARTESIAN_POINT('',(7.892960614329,-2.228454520447,0.));
#30 = CARTESIAN_POINT('',(18.726506677386,-0.8054066038,0.));
#31 = CARTESIAN_POINT('',(29.877178120582,0.425843271856,0.));
#32 = CARTESIAN_POINT('',(40.854022935318,0.413541854172,0.));
#33 = CARTESIAN_POINT('',(45.851121294722,2.784606683956,0.));
#34 = CARTESIAN_POINT('',(90.184160388117,-0.207604507736,0.));
#35 = CARTESIAN_POINT('',(99.180964270869,-2.961257980721,0.));
#36 = CARTESIAN_POINT('',(113.66516967833,-2.752245155832,0.));
#37 = CARTESIAN_POINT('',(145.04233198802,2.757604626947,0.));
#38 = CARTESIAN_POINT('',(150.,-1.234782021777,0.));
#39 = PCURVE('',#40,#45);
#40 = PLANE('',#41);
#41 = AXIS2_PLACEMENT_3D('',#42,#43,#44);
#42 = CARTESIAN_POINT('',(75.740491792906,7.5,0.));
#43 = DIRECTION('',(0.,0.,1.));
#44 = DIRECTION('',(1.,0.,-0.));
#45 = DEFINITIONAL_REPRESENTATION('',(#46),#58);
#46 = B_SPLINE_CURVE_WITH_KNOTS('',1,(#47,#48,#49,#50,#51,#52,#53,#54,
    #55,#56,#57),.UNSPECIFIED.,.F.,.F.,(2,1,1,1,1,1,1,1,1,1,2),(0.,
    5.223230694047E-02,0.123551885287,0.196776302569,0.268423822002,
    0.304526047324,0.594552638821,0.655965105894,0.7505154797,
    0.958452457299,1.),.UNSPECIFIED.);
#47 = CARTESIAN_POINT('',(-75.7404917929,-8.41001680761));
#48 = CARTESIAN_POINT('',(-67.84753117857,-9.728454520447));
#49 = CARTESIAN_POINT('',(-57.01398511552,-8.3054066038));
#50 = CARTESIAN_POINT('',(-45.86331367232,-7.074156728144));
#51 = CARTESIAN_POINT('',(-34.88646885758,-7.086458145828));
#52 = CARTESIAN_POINT('',(-29.88937049818,-4.715393316044));
#53 = CARTESIAN_POINT('',(14.443668595212,-7.707604507736));
#54 = CARTESIAN_POINT('',(23.440472477963,-10.46125798072));
#55 = CARTESIAN_POINT('',(37.924677885425,-10.25224515583));
#56 = CARTESIAN_POINT('',(69.301840195123,-4.742395373053));
#57 = CARTESIAN_POINT('',(74.259508207094,-8.734782021777));
#58 = ( GEOMETRIC_REPRESENTATION_CONTEXT(2) 
PARAMETRIC_REPRESENTATION_CONTEXT() REPRESENTATION_CONTEXT('2D SPACE',''
  ) );
#59 = ORIENTED_EDGE('',*,*,#60,.T.);
#60 = EDGE_CURVE('',#24,#61,#63,.T.);
#61 = VERTEX_POINT('',#62);
#62 = CARTESIAN_POINT('',(150.,16.234782021777,0.));
#63 = SURFACE_CURVE('',#64,(#68),.PCURVE_S1.);
#64 = LINE('',#65,#66);
#65 = CARTESIAN_POINT('',(150.,-1.234782021777,0.));
#66 = VECTOR('',#67,1.);
#67 = DIRECTION('',(0.,1.,0.));
#68 = PCURVE('',#40,#69);
#69 = DEFINITIONAL_REPRESENTATION('',(#70),#74);
#70 = LINE('',#71,#72);
#71 = CARTESIAN_POINT('',(74.259508207094,-8.734782021777));
#72 = VECTOR('',#73,1.);
#73 = DIRECTION('',(0.,1.));
#74 = ( GEOMETRIC_REPRESENTATION_CONTEXT(2) 
PARAMETRIC_REPRESENTATION_CONTEXT() REPRESENTATION_CONTEXT('2D SPACE',''
  ) );
#75 = ORIENTED_EDGE('',*,*,#76,.T.);
#76 = EDGE_CURVE('',#61,#77,#79,.T.);
#77 = VERTEX_POINT('',#78);
#78 = CARTESIAN_POINT('',(0.,15.91001680761,0.));
#79 = SURFACE_CURVE('',#80,(#92),.PCURVE_S1.);
#80 = B_SPLINE_CURVE_WITH_KNOTS('',1,(#81,#82,#83,#84,#85,#86,#87,#88,
    #89,#90,#91),.UNSPECIFIED.,.F.,.F.,(2,1,1,1,1,1,1,1,1,1,2),(0.,
    4.154754270079E-02,0.2494845203,0.344034894106,0.405447361179,
    0.695473952676,0.731576177998,0.803223697431,0.876448114713,
    0.94776769306,1.),.UNSPECIFIED.);
#81 = CARTESIAN_POINT('',(150.,16.234782021777,0.));
#82 = CARTESIAN_POINT('',(145.04233198802,12.242395373053,0.));
#83 = CARTESIAN_POINT('',(113.66516967833,17.752245155832,0.));
#84 = CARTESIAN_POINT('',(99.180964270869,17.961257980721,0.));
#85 = CARTESIAN_POINT('',(90.184160388117,15.207604507736,0.));
#86 = CARTESIAN_POINT('',(45.851121294722,12.215393316044,0.));
#87 = CARTESIAN_POINT('',(40.854022935318,14.586458145828,0.));
#88 = CARTESIAN_POINT('',(29.877178120582,14.574156728144,0.));
#89 = CARTESIAN_POINT('',(18.726506677386,15.8054066038,0.));
#90 = CARTESIAN_POINT('',(7.892960614329,17.228454520447,0.));
#91 = CARTESIAN_POINT('',(0.,15.91001680761,0.));
#92 = PCURVE('',#40,#93);
#93 = DEFINITIONAL_REPRESENTATION('',(#94),#106);
#94 = B_SPLINE_CURVE_WITH_KNOTS('',1,(#95,#96,#97,#98,#99,#100,#101,#102
    ,#103,#104,#105),.UNSPECIFIED.,.F.,.F.,(2,1,1,1,1,1,1,1,1,1,2),(0.,
    4.154754270079E-02,0.2494845203,0.344034894106,0.405447361179,
    0.695473952676,0.731576177998,0.803223697431,0.876448114713,
    0.94776769306,1.),.UNSPECIFIED.);
#95 = CARTESIAN_POINT('',(74.259508207094,8.734782021777));
#96 = CARTESIAN_POINT('',(69.301840195123,4.742395373053));
#97 = CARTESIAN_POINT('',(37.924677885425,10.252245155832));
#98 = CARTESIAN_POINT('',(23.440472477963,10.461257980721));
#99 = CARTESIAN_POINT('',(14.443668595212,7.707604507736));
#100 = CARTESIAN_POINT('',(-29.88937049818,4.715393316044));
#101 = CARTESIAN_POINT('',(-34.88646885758,7.086458145828));
#102 = CARTESIAN_POINT('',(-45.86331367232,7.074156728144));
#103 = CARTESIAN_POINT('',(-57.01398511552,8.3054066038));
#104 = CARTESIAN_POINT('',(-67.84753117857,9.728454520447));
#105 = CARTESIAN_POINT('',(-75.7404917929,8.41001680761));
#106 = ( GEOMETRIC_REPRESENTATION_CONTEXT(2) 
PARAMETRIC_REPRESENTATION_CONTEXT() REPRESENTATION_CONTEXT('2D SPACE',''
  ) );
#107 = ORIENTED_EDGE('',*,*,#108,.T.);
#108 = EDGE_CURVE('',#77,#22,#109,.T.);
#109 = SURFACE_CURVE('',#110,(#114),.PCURVE_S1.);
#110 = LINE('',#111,#112);
#111 = CARTESIAN_POINT('',(0.,15.91001680761,0.));
#112 = VECTOR('',#113,1.);
#113 = DIRECTION('',(0.,-1.,0.));
#114 = PCURVE('',#40,#115);
#115 = DEFINITIONAL_REPRESENTATION('',(#116),#120);
#116 = LINE('',#117,#118);
#117 = CARTESIAN_POINT('',(-75.7404917929,8.41001680761));
#118 = VECTOR('',#119,1.);
#119 = DIRECTION('',(0.,-1.));
#120 = ( GEOMETRIC_REPRESENTATION_CONTEXT(2) 
PARAMETRIC_REPRESENTATION_CONTEXT() REPRESENTATION_CONTEXT('2D SPACE',''
  ) );
#121 = ( GEOMETRIC_REPRESENTATION_CONTEXT(3) 
GLOBAL_UNCERTAINTY_ASSIGNED_CONTEXT((#125)) GLOBAL_UNIT_ASSIGNED_CONTEXT
((#122,#123,#124)) REPRESENTATION_CONTEXT('Context #1',
  '3D Context with UNIT and UNCERTAINTY') );
#122 = ( LENGTH_UNIT() NAMED_UNIT(*) SI_UNIT(.MILLI.,.METRE.) );
#123 = ( NAMED_UNIT(*) PLANE_ANGLE_UNIT() SI_UNIT($,.RADIAN.) );
#124 = ( NAMED_UNIT(*) SI_UNIT($,.STERADIAN.) SOLID_ANGLE_UNIT() );
#125 = UNCERTAINTY_MEASURE_WITH_UNIT(LENGTH_MEASURE(1.E-07),#122,
  'distance_accuracy_value','confusion accuracy');
#126 = PRODUCT_RELATED_PRODUCT_CATEGORY('part',$,(#7));
ENDSEC;
END-ISO-10303-21;
