ISO-10303-21;
HEADER;
FILE_DESCRIPTION(('Open CASCADE Model'),'2;1');
FILE_NAME('Open CASCADE Shape Model','2026-06-04T12:09:59',('Author'),(
    'Open CASCADE'),'Open CASCADE STEP processor 7.9','Open CASCADE 7.9'
  ,'Unknown');
FILE_SCHEMA(('AUTOMOTIVE_DESIGN { 1 0 10303 214 1 1 1 1 }'));
ENDSEC;
DATA;
#1 = APPLICATION_PROTOCOL_DEFINITION('international standard',
  'automotive_design',2000,#2);
#2 = APPLICATION_CONTEXT(
  'core data for automotive mechanical design processes');
#3 = SHAPE_DEFINITION_REPRESENTATION(#4,#10);
#4 = PRODUCT_DEFINITION_SHAPE('','',#5);
#5 = PRODUCT_DEFINITION('design','',#6,#9);
#6 = PRODUCT_DEFINITION_FORMATION('','',#7);
#7 = PRODUCT('Open CASCADE STEP translator 7.9 52',
  'Open CASCADE STEP translator 7.9 52','',(#8));
#8 = PRODUCT_CONTEXT('',#2,'mechanical');
#9 = PRODUCT_DEFINITION_CONTEXT('part definition',#2,'design');
#10 = MANIFOLD_SURFACE_SHAPE_REPRESENTATION('',(#11,#15),#121);
#11 = AXIS2_PLACEMENT_3D('',#12,#13,#14);
#12 = CARTESIAN_POINT('',(0.,0.,0.));
#13 = DIRECTION('',(0.,0.,1.));
#14 = DIRECTION('',(1.,0.,-0.));
#15 = SHELL_BASED_SURFACE_MODEL('',(#16));
#16 = OPEN_SHELL('',(#17));
#17 = ADVANCED_FACE('',(#18),#40,.T.);
#18 = FACE_BOUND('',#19,.T.);
#19 = EDGE_LOOP('',(#20,#59,#75,#107));
#20 = ORIENTED_EDGE('',*,*,#21,.T.);
#21 = EDGE_CURVE('',#22,#24,#26,.T.);
#22 = VERTEX_POINT('',#23);
#23 = CARTESIAN_POINT('',(0.,-1.785065014085,0.));
#24 = VERTEX_POINT('',#25);
#25 = CARTESIAN_POINT('',(150.,-0.718011155819,0.));
#26 = SURFACE_CURVE('',#27,(#39),.PCURVE_S1.);
#27 = B_SPLINE_CURVE_WITH_KNOTS('',1,(#28,#29,#30,#31,#32,#33,#34,#35,
    #36,#37,#38),.UNSPECIFIED.,.F.,.F.,(2,1,1,1,1,1,1,1,1,1,2),(0.,
    9.217184823417E-02,0.18723979999,0.345190146783,0.393369790691,
    0.436371122185,0.719731288041,0.822484840758,0.914258205462,
    0.937680335018,1.),.UNSPECIFIED.);
#28 = CARTESIAN_POINT('',(0.,-1.785065014085,0.));
#29 = CARTESIAN_POINT('',(14.159360448331,-2.035043197406,0.));
#30 = CARTESIAN_POINT('',(28.147505724549,2.170025579304,0.));
#31 = CARTESIAN_POINT('',(52.113577529578,-1.646015407098,0.));
#32 = CARTESIAN_POINT('',(58.372962498564,2.305774996143,0.));
#33 = CARTESIAN_POINT('',(64.771458386275,0.659624459061,0.));
#34 = CARTESIAN_POINT('',(108.15440576541,-2.991657090071,0.));
#35 = CARTESIAN_POINT('',(123.18281729802,1.844455060615,0.));
#36 = CARTESIAN_POINT('',(137.28125512733,2.076218504534,0.));
#37 = CARTESIAN_POINT('',(140.49815327161,0.463198004719,0.));
#38 = CARTESIAN_POINT('',(150.,-0.718011155819,0.));
#39 = PCURVE('',#40,#45);
#40 = PLANE('',#41);
#41 = AXIS2_PLACEMENT_3D('',#42,#43,#44);
#42 = CARTESIAN_POINT('',(74.490911268032,7.5,0.));
#43 = DIRECTION('',(0.,0.,1.));
#44 = DIRECTION('',(1.,0.,-0.));
#45 = DEFINITIONAL_REPRESENTATION('',(#46),#58);
#46 = B_SPLINE_CURVE_WITH_KNOTS('',1,(#47,#48,#49,#50,#51,#52,#53,#54,
    #55,#56,#57),.UNSPECIFIED.,.F.,.F.,(2,1,1,1,1,1,1,1,1,1,2),(0.,
    9.217184823417E-02,0.18723979999,0.345190146783,0.393369790691,
    0.436371122185,0.719731288041,0.822484840758,0.914258205462,
    0.937680335018,1.),.UNSPECIFIED.);
#47 = CARTESIAN_POINT('',(-74.49091126803,-9.285065014085));
#48 = CARTESIAN_POINT('',(-60.3315508197,-9.535043197406));
#49 = CARTESIAN_POINT('',(-46.34340554348,-5.329974420696));
#50 = CARTESIAN_POINT('',(-22.37733373845,-9.146015407098));
#51 = CARTESIAN_POINT('',(-16.11794876946,-5.194225003857));
#52 = CARTESIAN_POINT('',(-9.719452881757,-6.840375540939));
#53 = CARTESIAN_POINT('',(33.663494497384,-10.49165709007));
#54 = CARTESIAN_POINT('',(48.69190602999,-5.655544939385));
#55 = CARTESIAN_POINT('',(62.790343859303,-5.423781495466));
#56 = CARTESIAN_POINT('',(66.007242003577,-7.036801995281));
#57 = CARTESIAN_POINT('',(75.509088731968,-8.218011155819));
#58 = ( GEOMETRIC_REPRESENTATION_CONTEXT(2) 
PARAMETRIC_REPRESENTATION_CONTEXT() REPRESENTATION_CONTEXT('2D SPACE',''
  ) );
#59 = ORIENTED_EDGE('',*,*,#60,.T.);
#60 = EDGE_CURVE('',#24,#61,#63,.T.);
#61 = VERTEX_POINT('',#62);
#62 = CARTESIAN_POINT('',(150.,15.718011155819,0.));
#63 = SURFACE_CURVE('',#64,(#68),.PCURVE_S1.);
#64 = LINE('',#65,#66);
#65 = CARTESIAN_POINT('',(150.,-0.718011155819,0.));
#66 = VECTOR('',#67,1.);
#67 = DIRECTION('',(0.,1.,0.));
#68 = PCURVE('',#40,#69);
#69 = DEFINITIONAL_REPRESENTATION('',(#70),#74);
#70 = LINE('',#71,#72);
#71 = CARTESIAN_POINT('',(75.509088731968,-8.218011155819));
#72 = VECTOR('',#73,1.);
#73 = DIRECTION('',(0.,1.));
#74 = ( GEOMETRIC_REPRESENTATION_CONTEXT(2) 
PARAMETRIC_REPRESENTATION_CONTEXT() REPRESENTATION_CONTEXT('2D SPACE',''
  ) );
#75 = ORIENTED_EDGE('',*,*,#76,.T.);
#76 = EDGE_CURVE('',#61,#77,#79,.T.);
#77 = VERTEX_POINT('',#78);
#78 = CARTESIAN_POINT('',(0.,16.785065014085,0.));
#79 = SURFACE_CURVE('',#80,(#92),.PCURVE_S1.);
#80 = B_SPLINE_CURVE_WITH_KNOTS('',1,(#81,#82,#83,#84,#85,#86,#87,#88,
    #89,#90,#91),.UNSPECIFIED.,.F.,.F.,(2,1,1,1,1,1,1,1,1,1,2),(0.,
    6.231966498195E-02,8.574179453764E-02,0.177515159242,0.280268711959,
    0.563628877815,0.606630209309,0.654809853217,0.81276020001,
    0.907828151766,1.),.UNSPECIFIED.);
#81 = CARTESIAN_POINT('',(150.,15.718011155819,0.));
#82 = CARTESIAN_POINT('',(140.49815327161,14.536801995281,0.));
#83 = CARTESIAN_POINT('',(137.28125512733,12.923781495466,0.));
#84 = CARTESIAN_POINT('',(123.18281729802,13.155544939385,0.));
#85 = CARTESIAN_POINT('',(108.15440576541,17.991657090071,0.));
#86 = CARTESIAN_POINT('',(64.771458386275,14.340375540939,0.));
#87 = CARTESIAN_POINT('',(58.372962498564,12.694225003857,0.));
#88 = CARTESIAN_POINT('',(52.113577529578,16.646015407098,0.));
#89 = CARTESIAN_POINT('',(28.147505724549,12.829974420696,0.));
#90 = CARTESIAN_POINT('',(14.159360448331,17.035043197406,0.));
#91 = CARTESIAN_POINT('',(0.,16.785065014085,0.));
#92 = PCURVE('',#40,#93);
#93 = DEFINITIONAL_REPRESENTATION('',(#94),#106);
#94 = B_SPLINE_CURVE_WITH_KNOTS('',1,(#95,#96,#97,#98,#99,#100,#101,#102
    ,#103,#104,#105),.UNSPECIFIED.,.F.,.F.,(2,1,1,1,1,1,1,1,1,1,2),(0.,
    6.231966498195E-02,8.574179453764E-02,0.177515159242,0.280268711959,
    0.563628877815,0.606630209309,0.654809853217,0.81276020001,
    0.907828151766,1.),.UNSPECIFIED.);
#95 = CARTESIAN_POINT('',(75.509088731968,8.218011155819));
#96 = CARTESIAN_POINT('',(66.007242003577,7.036801995281));
#97 = CARTESIAN_POINT('',(62.790343859303,5.423781495466));
#98 = CARTESIAN_POINT('',(48.69190602999,5.655544939385));
#99 = CARTESIAN_POINT('',(33.663494497384,10.491657090071));
#100 = CARTESIAN_POINT('',(-9.719452881757,6.840375540939));
#101 = CARTESIAN_POINT('',(-16.11794876946,5.194225003857));
#102 = CARTESIAN_POINT('',(-22.37733373845,9.146015407098));
#103 = CARTESIAN_POINT('',(-46.34340554348,5.329974420696));
#104 = CARTESIAN_POINT('',(-60.3315508197,9.535043197406));
#105 = CARTESIAN_POINT('',(-74.49091126803,9.285065014085));
#106 = ( GEOMETRIC_REPRESENTATION_CONTEXT(2) 
PARAMETRIC_REPRESENTATION_CONTEXT() REPRESENTATION_CONTEXT('2D SPACE',''
  ) );
#107 = ORIENTED_EDGE('',*,*,#108,.T.);
#108 = EDGE_CURVE('',#77,#22,#109,.T.);
#109 = SURFACE_CURVE('',#110,(#114),.PCURVE_S1.);
#110 = LINE('',#111,#112);
#111 = CARTESIAN_POINT('',(0.,16.785065014085,0.));
#112 = VECTOR('',#113,1.);
#113 = DIRECTION('',(0.,-1.,0.));
#114 = PCURVE('',#40,#115);
#115 = DEFINITIONAL_REPRESENTATION('',(#116),#120);
#116 = LINE('',#117,#118);
#117 = CARTESIAN_POINT('',(-74.49091126803,9.285065014085));
#118 = VECTOR('',#119,1.);
#119 = DIRECTION('',(0.,-1.));
#120 = ( GEOMETRIC_REPRESENTATION_CONTEXT(2) 
PARAMETRIC_REPRESENTATION_CONTEXT() REPRESENTATION_CONTEXT('2D SPACE',''
  ) );
#121 = ( GEOMETRIC_REPRESENTATION_CONTEXT(3) 
GLOBAL_UNCERTAINTY_ASSIGNED_CONTEXT((#125)) GLOBAL_UNIT_ASSIGNED_CONTEXT
((#122,#123,#124)) REPRESENTATION_CONTEXT('Context #1',
  '3D Context with UNIT and UNCERTAINTY') );
#122 = ( LENGTH_UNIT() NAMED_UNIT(*) SI_UNIT(.MILLI.,.METRE.) );
#123 = ( NAMED_UNIT(*) PLANE_ANGLE_UNIT() SI_UNIT($,.RADIAN.) );
#124 = ( NAMED_UNIT(*) SI_UNIT($,.STERADIAN.) SOLID_ANGLE_UNIT() );
#125 = UNCERTAINTY_MEASURE_WITH_UNIT(LENGTH_MEASURE(1.E-07),#122,
  'distance_accuracy_value','confusion accuracy');
#126 = PRODUCT_RELATED_PRODUCT_CATEGORY('part',$,(#7));
ENDSEC;
END-ISO-10303-21;
