ISO-10303-21;
HEADER;
FILE_DESCRIPTION(('Open CASCADE Model'),'2;1');
FILE_NAME('Open CASCADE Shape Model','2026-06-04T12:09:59',('Author'),(
    'Open CASCADE'),'Open CASCADE STEP processor 7.9','Open CASCADE 7.9'
  ,'Unknown');
FILE_SCHEMA(('AUTOMOTIVE_DESIGN { 1 0 10303 214 1 1 1 1 }'));
ENDSEC;
DATA;
#1 = APPLICATION_PROTOCOL_DEFINITION('international standard',
  'automotive_design',2000,#2);
#2 = APPLICATION_CONTEXT(
  'core data for automotive mechanical design processes');
#3 = SHAPE_DEFINITION_REPRESENTATION(#4,#10);
#4 = PRODUCT_DEFINITION_SHAPE('','',#5);
#5 = PRODUCT_DEFINITION('design','',#6,#9);
#6 = PRODUCT_DEFINITION_FORMATION('','',#7);
#7 = PRODUCT('Open CASCADE STEP translator 7.9 40',
  'Open CASCADE STEP translator 7.9 40','',(#8));
#8 = PRODUCT_CONTEXT('',#2,'mechanical');
#9 = PRODUCT_DEFINITION_CONTEXT('part definition',#2,'design');
#10 = MANIFOLD_SURFACE_SHAPE_REPRESENTATION('',(#11,#15),#121);
#11 = AXIS2_PLACEMENT_3D('',#12,#13,#14);
#12 = CARTESIAN_POINT('',(0.,0.,0.));
#13 = DIRECTION('',(0.,0.,1.));
#14 = DIRECTION('',(1.,0.,-0.));
#15 = SHELL_BASED_SURFACE_MODEL('',(#16));
#16 = OPEN_SHELL('',(#17));
#17 = ADVANCED_FACE('',(#18),#40,.T.);
#18 = FACE_BOUND('',#19,.T.);
#19 = EDGE_LOOP('',(#20,#59,#75,#107));
#20 = ORIENTED_EDGE('',*,*,#21,.T.);
#21 = EDGE_CURVE('',#22,#24,#26,.T.);
#22 = VERTEX_POINT('',#23);
#23 = CARTESIAN_POINT('',(0.,0.629956559757,0.));
#24 = VERTEX_POINT('',#25);
#25 = CARTESIAN_POINT('',(150.,-1.400969427377,0.));
#26 = SURFACE_CURVE('',#27,(#39),.PCURVE_S1.);
#27 = B_SPLINE_CURVE_WITH_KNOTS('',1,(#28,#29,#30,#31,#32,#33,#34,#35,
    #36,#37,#38),.UNSPECIFIED.,.F.,.F.,(2,1,1,1,1,1,1,1,1,1,2),(0.,
    0.102115714744,0.222506448535,0.356940436205,0.494821609964,
    0.515839680925,0.620097678494,0.707409050946,0.871999175467,
    0.902117644074,1.),.UNSPECIFIED.);
#28 = CARTESIAN_POINT('',(0.,0.629956559757,0.));
#29 = CARTESIAN_POINT('',(15.497853201668,-1.095489589255,0.));
#30 = CARTESIAN_POINT('',(33.601646230117,2.103755061791,0.));
#31 = CARTESIAN_POINT('',(53.543665255753,-2.769297777246,0.));
#32 = CARTESIAN_POINT('',(74.067880807101,1.929349429069,0.));
#33 = CARTESIAN_POINT('',(77.274953236965,1.802748042603,0.));
#34 = CARTESIAN_POINT('',(92.696208577951,-2.153897163346,0.));
#35 = CARTESIAN_POINT('',(106.02523650766,-2.475496464852,0.));
#36 = CARTESIAN_POINT('',(130.80516702775,1.72711555486,0.));
#37 = CARTESIAN_POINT('',(135.13682030704,0.181194670951,0.));
#38 = CARTESIAN_POINT('',(150.,-1.400969427377,0.));
#39 = PCURVE('',#40,#45);
#40 = PLANE('',#41);
#41 = AXIS2_PLACEMENT_3D('',#42,#43,#44);
#42 = CARTESIAN_POINT('',(75.884261538735,7.5,0.));
#43 = DIRECTION('',(0.,0.,1.));
#44 = DIRECTION('',(1.,0.,-0.));
#45 = DEFINITIONAL_REPRESENTATION('',(#46),#58);
#46 = B_SPLINE_CURVE_WITH_KNOTS('',1,(#47,#48,#49,#50,#51,#52,#53,#54,
    #55,#56,#57),.UNSPECIFIED.,.F.,.F.,(2,1,1,1,1,1,1,1,1,1,2),(0.,
    0.102115714744,0.222506448535,0.356940436205,0.494821609964,
    0.515839680925,0.620097678494,0.707409050946,0.871999175467,
    0.902117644074,1.),.UNSPECIFIED.);
#47 = CARTESIAN_POINT('',(-75.88426153873,-6.870043440243));
#48 = CARTESIAN_POINT('',(-60.38640833706,-8.595489589255));
#49 = CARTESIAN_POINT('',(-42.28261530861,-5.396244938209));
#50 = CARTESIAN_POINT('',(-22.34059628298,-10.26929777724));
#51 = CARTESIAN_POINT('',(-1.816380731635,-5.570650570931));
#52 = CARTESIAN_POINT('',(1.39069169823,-5.697251957397));
#53 = CARTESIAN_POINT('',(16.811947039215,-9.653897163346));
#54 = CARTESIAN_POINT('',(30.140974968928,-9.975496464852));
#55 = CARTESIAN_POINT('',(54.920905489022,-5.77288444514));
#56 = CARTESIAN_POINT('',(59.252558768308,-7.318805329049));
#57 = CARTESIAN_POINT('',(74.115738461265,-8.900969427377));
#58 = ( GEOMETRIC_REPRESENTATION_CONTEXT(2) 
PARAMETRIC_REPRESENTATION_CONTEXT() REPRESENTATION_CONTEXT('2D SPACE',''
  ) );
#59 = ORIENTED_EDGE('',*,*,#60,.T.);
#60 = EDGE_CURVE('',#24,#61,#63,.T.);
#61 = VERTEX_POINT('',#62);
#62 = CARTESIAN_POINT('',(150.,16.400969427377,0.));
#63 = SURFACE_CURVE('',#64,(#68),.PCURVE_S1.);
#64 = LINE('',#65,#66);
#65 = CARTESIAN_POINT('',(150.,-1.400969427377,0.));
#66 = VECTOR('',#67,1.);
#67 = DIRECTION('',(0.,1.,0.));
#68 = PCURVE('',#40,#69);
#69 = DEFINITIONAL_REPRESENTATION('',(#70),#74);
#70 = LINE('',#71,#72);
#71 = CARTESIAN_POINT('',(74.115738461265,-8.900969427377));
#72 = VECTOR('',#73,1.);
#73 = DIRECTION('',(0.,1.));
#74 = ( GEOMETRIC_REPRESENTATION_CONTEXT(2) 
PARAMETRIC_REPRESENTATION_CONTEXT() REPRESENTATION_CONTEXT('2D SPACE',''
  ) );
#75 = ORIENTED_EDGE('',*,*,#76,.T.);
#76 = EDGE_CURVE('',#61,#77,#79,.T.);
#77 = VERTEX_POINT('',#78);
#78 = CARTESIAN_POINT('',(0.,14.370043440243,0.));
#79 = SURFACE_CURVE('',#80,(#92),.PCURVE_S1.);
#80 = B_SPLINE_CURVE_WITH_KNOTS('',1,(#81,#82,#83,#84,#85,#86,#87,#88,
    #89,#90,#91),.UNSPECIFIED.,.F.,.F.,(2,1,1,1,1,1,1,1,1,1,2),(0.,
    9.788235592645E-02,0.128000824533,0.292590949054,0.379902321506,
    0.484160319075,0.505178390036,0.643059563795,0.777493551465,
    0.897884285256,1.),.UNSPECIFIED.);
#81 = CARTESIAN_POINT('',(150.,16.400969427377,0.));
#82 = CARTESIAN_POINT('',(135.13682030704,14.818805329049,0.));
#83 = CARTESIAN_POINT('',(130.80516702775,13.27288444514,0.));
#84 = CARTESIAN_POINT('',(106.02523650766,17.475496464852,0.));
#85 = CARTESIAN_POINT('',(92.696208577951,17.153897163346,0.));
#86 = CARTESIAN_POINT('',(77.274953236965,13.197251957397,0.));
#87 = CARTESIAN_POINT('',(74.067880807101,13.070650570931,0.));
#88 = CARTESIAN_POINT('',(53.543665255753,17.769297777246,0.));
#89 = CARTESIAN_POINT('',(33.601646230117,12.896244938209,0.));
#90 = CARTESIAN_POINT('',(15.497853201668,16.095489589255,0.));
#91 = CARTESIAN_POINT('',(0.,14.370043440243,0.));
#92 = PCURVE('',#40,#93);
#93 = DEFINITIONAL_REPRESENTATION('',(#94),#106);
#94 = B_SPLINE_CURVE_WITH_KNOTS('',1,(#95,#96,#97,#98,#99,#100,#101,#102
    ,#103,#104,#105),.UNSPECIFIED.,.F.,.F.,(2,1,1,1,1,1,1,1,1,1,2),(0.,
    9.788235592645E-02,0.128000824533,0.292590949054,0.379902321506,
    0.484160319075,0.505178390036,0.643059563795,0.777493551465,
    0.897884285256,1.),.UNSPECIFIED.);
#95 = CARTESIAN_POINT('',(74.115738461265,8.900969427377));
#96 = CARTESIAN_POINT('',(59.252558768308,7.318805329049));
#97 = CARTESIAN_POINT('',(54.920905489022,5.77288444514));
#98 = CARTESIAN_POINT('',(30.140974968928,9.975496464852));
#99 = CARTESIAN_POINT('',(16.811947039215,9.653897163346));
#100 = CARTESIAN_POINT('',(1.39069169823,5.697251957397));
#101 = CARTESIAN_POINT('',(-1.816380731635,5.570650570931));
#102 = CARTESIAN_POINT('',(-22.34059628298,10.269297777246));
#103 = CARTESIAN_POINT('',(-42.28261530861,5.396244938209));
#104 = CARTESIAN_POINT('',(-60.38640833706,8.595489589255));
#105 = CARTESIAN_POINT('',(-75.88426153873,6.870043440243));
#106 = ( GEOMETRIC_REPRESENTATION_CONTEXT(2) 
PARAMETRIC_REPRESENTATION_CONTEXT() REPRESENTATION_CONTEXT('2D SPACE',''
  ) );
#107 = ORIENTED_EDGE('',*,*,#108,.T.);
#108 = EDGE_CURVE('',#77,#22,#109,.T.);
#109 = SURFACE_CURVE('',#110,(#114),.PCURVE_S1.);
#110 = LINE('',#111,#112);
#111 = CARTESIAN_POINT('',(0.,14.370043440243,0.));
#112 = VECTOR('',#113,1.);
#113 = DIRECTION('',(0.,-1.,0.));
#114 = PCURVE('',#40,#115);
#115 = DEFINITIONAL_REPRESENTATION('',(#116),#120);
#116 = LINE('',#117,#118);
#117 = CARTESIAN_POINT('',(-75.88426153873,6.870043440243));
#118 = VECTOR('',#119,1.);
#119 = DIRECTION('',(0.,-1.));
#120 = ( GEOMETRIC_REPRESENTATION_CONTEXT(2) 
PARAMETRIC_REPRESENTATION_CONTEXT() REPRESENTATION_CONTEXT('2D SPACE',''
  ) );
#121 = ( GEOMETRIC_REPRESENTATION_CONTEXT(3) 
GLOBAL_UNCERTAINTY_ASSIGNED_CONTEXT((#125)) GLOBAL_UNIT_ASSIGNED_CONTEXT
((#122,#123,#124)) REPRESENTATION_CONTEXT('Context #1',
  '3D Context with UNIT and UNCERTAINTY') );
#122 = ( LENGTH_UNIT() NAMED_UNIT(*) SI_UNIT(.MILLI.,.METRE.) );
#123 = ( NAMED_UNIT(*) PLANE_ANGLE_UNIT() SI_UNIT($,.RADIAN.) );
#124 = ( NAMED_UNIT(*) SI_UNIT($,.STERADIAN.) SOLID_ANGLE_UNIT() );
#125 = UNCERTAINTY_MEASURE_WITH_UNIT(LENGTH_MEASURE(1.E-07),#122,
  'distance_accuracy_value','confusion accuracy');
#126 = PRODUCT_RELATED_PRODUCT_CATEGORY('part',$,(#7));
ENDSEC;
END-ISO-10303-21;
