ISO-10303-21;
HEADER;
FILE_DESCRIPTION(('Open CASCADE Model'),'2;1');
FILE_NAME('Open CASCADE Shape Model','2026-06-04T12:09:59',('Author'),(
    'Open CASCADE'),'Open CASCADE STEP processor 7.9','Open CASCADE 7.9'
  ,'Unknown');
FILE_SCHEMA(('AUTOMOTIVE_DESIGN { 1 0 10303 214 1 1 1 1 }'));
ENDSEC;
DATA;
#1 = APPLICATION_PROTOCOL_DEFINITION('international standard',
  'automotive_design',2000,#2);
#2 = APPLICATION_CONTEXT(
  'core data for automotive mechanical design processes');
#3 = SHAPE_DEFINITION_REPRESENTATION(#4,#10);
#4 = PRODUCT_DEFINITION_SHAPE('','',#5);
#5 = PRODUCT_DEFINITION('design','',#6,#9);
#6 = PRODUCT_DEFINITION_FORMATION('','',#7);
#7 = PRODUCT('Open CASCADE STEP translator 7.9 58',
  'Open CASCADE STEP translator 7.9 58','',(#8));
#8 = PRODUCT_CONTEXT('',#2,'mechanical');
#9 = PRODUCT_DEFINITION_CONTEXT('part definition',#2,'design');
#10 = MANIFOLD_SURFACE_SHAPE_REPRESENTATION('',(#11,#15),#121);
#11 = AXIS2_PLACEMENT_3D('',#12,#13,#14);
#12 = CARTESIAN_POINT('',(0.,0.,0.));
#13 = DIRECTION('',(0.,0.,1.));
#14 = DIRECTION('',(1.,0.,-0.));
#15 = SHELL_BASED_SURFACE_MODEL('',(#16));
#16 = OPEN_SHELL('',(#17));
#17 = ADVANCED_FACE('',(#18),#40,.T.);
#18 = FACE_BOUND('',#19,.T.);
#19 = EDGE_LOOP('',(#20,#59,#75,#107));
#20 = ORIENTED_EDGE('',*,*,#21,.T.);
#21 = EDGE_CURVE('',#22,#24,#26,.T.);
#22 = VERTEX_POINT('',#23);
#23 = CARTESIAN_POINT('',(0.,-2.613251663056,0.));
#24 = VERTEX_POINT('',#25);
#25 = CARTESIAN_POINT('',(150.,1.943170204962,0.));
#26 = SURFACE_CURVE('',#27,(#39),.PCURVE_S1.);
#27 = B_SPLINE_CURVE_WITH_KNOTS('',1,(#28,#29,#30,#31,#32,#33,#34,#35,
    #36,#37,#38),.UNSPECIFIED.,.F.,.F.,(2,1,1,1,1,1,1,1,1,1,2),(0.,
    0.332291205848,0.359016718119,0.383893364115,0.453679113672,
    0.545647682736,0.684455533657,0.752873078758,0.829294949321,
    0.933835968311,1.),.UNSPECIFIED.);
#28 = CARTESIAN_POINT('',(0.,-2.613251663056,0.));
#29 = CARTESIAN_POINT('',(50.254261585719,2.6430798469,0.));
#30 = CARTESIAN_POINT('',(54.209338195225,1.708930352228,0.));
#31 = CARTESIAN_POINT('',(57.269574757983,-0.514627950928,0.));
#32 = CARTESIAN_POINT('',(67.619638372614,1.827080942508,0.));
#33 = CARTESIAN_POINT('',(81.29954818853,-1.077162055254,0.));
#34 = CARTESIAN_POINT('',(102.2212008922,1.71544626398,0.));
#35 = CARTESIAN_POINT('',(112.60193418928,2.405058176407,0.));
#36 = CARTESIAN_POINT('',(124.20466754337,1.758089042155,0.));
#37 = CARTESIAN_POINT('',(140.04844510699,0.463595794368,0.));
#38 = CARTESIAN_POINT('',(150.,1.943170204962,0.));
#39 = PCURVE('',#40,#45);
#40 = PLANE('',#41);
#41 = AXIS2_PLACEMENT_3D('',#42,#43,#44);
#42 = CARTESIAN_POINT('',(72.854075438987,7.5,0.));
#43 = DIRECTION('',(0.,0.,1.));
#44 = DIRECTION('',(1.,0.,-0.));
#45 = DEFINITIONAL_REPRESENTATION('',(#46),#58);
#46 = B_SPLINE_CURVE_WITH_KNOTS('',1,(#47,#48,#49,#50,#51,#52,#53,#54,
    #55,#56,#57),.UNSPECIFIED.,.F.,.F.,(2,1,1,1,1,1,1,1,1,1,2),(0.,
    0.332291205848,0.359016718119,0.383893364115,0.453679113672,
    0.545647682736,0.684455533657,0.752873078758,0.829294949321,
    0.933835968311,1.),.UNSPECIFIED.);
#47 = CARTESIAN_POINT('',(-72.85407543898,-10.11325166305));
#48 = CARTESIAN_POINT('',(-22.59981385326,-4.8569201531));
#49 = CARTESIAN_POINT('',(-18.64473724376,-5.791069647772));
#50 = CARTESIAN_POINT('',(-15.584500681,-8.014627950928));
#51 = CARTESIAN_POINT('',(-5.234437066373,-5.672919057492));
#52 = CARTESIAN_POINT('',(8.445472749543,-8.577162055254));
#53 = CARTESIAN_POINT('',(29.367125453214,-5.78455373602));
#54 = CARTESIAN_POINT('',(39.747858750302,-5.094941823593));
#55 = CARTESIAN_POINT('',(51.350592104388,-5.741910957845));
#56 = CARTESIAN_POINT('',(67.194369668005,-7.036404205632));
#57 = CARTESIAN_POINT('',(77.145924561013,-5.556829795038));
#58 = ( GEOMETRIC_REPRESENTATION_CONTEXT(2) 
PARAMETRIC_REPRESENTATION_CONTEXT() REPRESENTATION_CONTEXT('2D SPACE',''
  ) );
#59 = ORIENTED_EDGE('',*,*,#60,.T.);
#60 = EDGE_CURVE('',#24,#61,#63,.T.);
#61 = VERTEX_POINT('',#62);
#62 = CARTESIAN_POINT('',(150.,13.056829795038,0.));
#63 = SURFACE_CURVE('',#64,(#68),.PCURVE_S1.);
#64 = LINE('',#65,#66);
#65 = CARTESIAN_POINT('',(150.,1.943170204962,0.));
#66 = VECTOR('',#67,1.);
#67 = DIRECTION('',(0.,1.,0.));
#68 = PCURVE('',#40,#69);
#69 = DEFINITIONAL_REPRESENTATION('',(#70),#74);
#70 = LINE('',#71,#72);
#71 = CARTESIAN_POINT('',(77.145924561013,-5.556829795038));
#72 = VECTOR('',#73,1.);
#73 = DIRECTION('',(0.,1.));
#74 = ( GEOMETRIC_REPRESENTATION_CONTEXT(2) 
PARAMETRIC_REPRESENTATION_CONTEXT() REPRESENTATION_CONTEXT('2D SPACE',''
  ) );
#75 = ORIENTED_EDGE('',*,*,#76,.T.);
#76 = EDGE_CURVE('',#61,#77,#79,.T.);
#77 = VERTEX_POINT('',#78);
#78 = CARTESIAN_POINT('',(0.,17.613251663056,0.));
#79 = SURFACE_CURVE('',#80,(#92),.PCURVE_S1.);
#80 = B_SPLINE_CURVE_WITH_KNOTS('',1,(#81,#82,#83,#84,#85,#86,#87,#88,
    #89,#90,#91),.UNSPECIFIED.,.F.,.F.,(2,1,1,1,1,1,1,1,1,1,2),(0.,
    6.616403168944E-02,0.170705050679,0.247126921242,0.315544466343,
    0.454352317264,0.546320886328,0.616106635885,0.640983281881,
    0.667708794152,1.),.UNSPECIFIED.);
#81 = CARTESIAN_POINT('',(150.,13.056829795038,0.));
#82 = CARTESIAN_POINT('',(140.04844510699,14.536404205632,0.));
#83 = CARTESIAN_POINT('',(124.20466754337,13.241910957845,0.));
#84 = CARTESIAN_POINT('',(112.60193418928,12.594941823593,0.));
#85 = CARTESIAN_POINT('',(102.2212008922,13.28455373602,0.));
#86 = CARTESIAN_POINT('',(81.29954818853,16.077162055254,0.));
#87 = CARTESIAN_POINT('',(67.619638372614,13.172919057492,0.));
#88 = CARTESIAN_POINT('',(57.269574757983,15.514627950928,0.));
#89 = CARTESIAN_POINT('',(54.209338195225,13.291069647772,0.));
#90 = CARTESIAN_POINT('',(50.254261585719,12.3569201531,0.));
#91 = CARTESIAN_POINT('',(0.,17.613251663056,0.));
#92 = PCURVE('',#40,#93);
#93 = DEFINITIONAL_REPRESENTATION('',(#94),#106);
#94 = B_SPLINE_CURVE_WITH_KNOTS('',1,(#95,#96,#97,#98,#99,#100,#101,#102
    ,#103,#104,#105),.UNSPECIFIED.,.F.,.F.,(2,1,1,1,1,1,1,1,1,1,2),(0.,
    6.616403168944E-02,0.170705050679,0.247126921242,0.315544466343,
    0.454352317264,0.546320886328,0.616106635885,0.640983281881,
    0.667708794152,1.),.UNSPECIFIED.);
#95 = CARTESIAN_POINT('',(77.145924561013,5.556829795038));
#96 = CARTESIAN_POINT('',(67.194369668005,7.036404205632));
#97 = CARTESIAN_POINT('',(51.350592104388,5.741910957845));
#98 = CARTESIAN_POINT('',(39.747858750302,5.094941823593));
#99 = CARTESIAN_POINT('',(29.367125453214,5.78455373602));
#100 = CARTESIAN_POINT('',(8.445472749543,8.577162055254));
#101 = CARTESIAN_POINT('',(-5.234437066373,5.672919057492));
#102 = CARTESIAN_POINT('',(-15.584500681,8.014627950928));
#103 = CARTESIAN_POINT('',(-18.64473724376,5.791069647772));
#104 = CARTESIAN_POINT('',(-22.59981385326,4.8569201531));
#105 = CARTESIAN_POINT('',(-72.85407543898,10.113251663056));
#106 = ( GEOMETRIC_REPRESENTATION_CONTEXT(2) 
PARAMETRIC_REPRESENTATION_CONTEXT() REPRESENTATION_CONTEXT('2D SPACE',''
  ) );
#107 = ORIENTED_EDGE('',*,*,#108,.T.);
#108 = EDGE_CURVE('',#77,#22,#109,.T.);
#109 = SURFACE_CURVE('',#110,(#114),.PCURVE_S1.);
#110 = LINE('',#111,#112);
#111 = CARTESIAN_POINT('',(0.,17.613251663056,0.));
#112 = VECTOR('',#113,1.);
#113 = DIRECTION('',(0.,-1.,0.));
#114 = PCURVE('',#40,#115);
#115 = DEFINITIONAL_REPRESENTATION('',(#116),#120);
#116 = LINE('',#117,#118);
#117 = CARTESIAN_POINT('',(-72.85407543898,10.113251663056));
#118 = VECTOR('',#119,1.);
#119 = DIRECTION('',(0.,-1.));
#120 = ( GEOMETRIC_REPRESENTATION_CONTEXT(2) 
PARAMETRIC_REPRESENTATION_CONTEXT() REPRESENTATION_CONTEXT('2D SPACE',''
  ) );
#121 = ( GEOMETRIC_REPRESENTATION_CONTEXT(3) 
GLOBAL_UNCERTAINTY_ASSIGNED_CONTEXT((#125)) GLOBAL_UNIT_ASSIGNED_CONTEXT
((#122,#123,#124)) REPRESENTATION_CONTEXT('Context #1',
  '3D Context with UNIT and UNCERTAINTY') );
#122 = ( LENGTH_UNIT() NAMED_UNIT(*) SI_UNIT(.MILLI.,.METRE.) );
#123 = ( NAMED_UNIT(*) PLANE_ANGLE_UNIT() SI_UNIT($,.RADIAN.) );
#124 = ( NAMED_UNIT(*) SI_UNIT($,.STERADIAN.) SOLID_ANGLE_UNIT() );
#125 = UNCERTAINTY_MEASURE_WITH_UNIT(LENGTH_MEASURE(1.E-07),#122,
  'distance_accuracy_value','confusion accuracy');
#126 = PRODUCT_RELATED_PRODUCT_CATEGORY('part',$,(#7));
ENDSEC;
END-ISO-10303-21;
