ISO-10303-21;
HEADER;
FILE_DESCRIPTION(('Open CASCADE Model'),'2;1');
FILE_NAME('Open CASCADE Shape Model','2026-06-04T12:09:59',('Author'),(
    'Open CASCADE'),'Open CASCADE STEP processor 7.9','Open CASCADE 7.9'
  ,'Unknown');
FILE_SCHEMA(('AUTOMOTIVE_DESIGN { 1 0 10303 214 1 1 1 1 }'));
ENDSEC;
DATA;
#1 = APPLICATION_PROTOCOL_DEFINITION('international standard',
  'automotive_design',2000,#2);
#2 = APPLICATION_CONTEXT(
  'core data for automotive mechanical design processes');
#3 = SHAPE_DEFINITION_REPRESENTATION(#4,#10);
#4 = PRODUCT_DEFINITION_SHAPE('','',#5);
#5 = PRODUCT_DEFINITION('design','',#6,#9);
#6 = PRODUCT_DEFINITION_FORMATION('','',#7);
#7 = PRODUCT('Open CASCADE STEP translator 7.9 62',
  'Open CASCADE STEP translator 7.9 62','',(#8));
#8 = PRODUCT_CONTEXT('',#2,'mechanical');
#9 = PRODUCT_DEFINITION_CONTEXT('part definition',#2,'design');
#10 = MANIFOLD_SURFACE_SHAPE_REPRESENTATION('',(#11,#15),#121);
#11 = AXIS2_PLACEMENT_3D('',#12,#13,#14);
#12 = CARTESIAN_POINT('',(0.,0.,0.));
#13 = DIRECTION('',(0.,0.,1.));
#14 = DIRECTION('',(1.,0.,-0.));
#15 = SHELL_BASED_SURFACE_MODEL('',(#16));
#16 = OPEN_SHELL('',(#17));
#17 = ADVANCED_FACE('',(#18),#40,.T.);
#18 = FACE_BOUND('',#19,.T.);
#19 = EDGE_LOOP('',(#20,#59,#75,#107));
#20 = ORIENTED_EDGE('',*,*,#21,.T.);
#21 = EDGE_CURVE('',#22,#24,#26,.T.);
#22 = VERTEX_POINT('',#23);
#23 = CARTESIAN_POINT('',(0.,2.97228720694,0.));
#24 = VERTEX_POINT('',#25);
#25 = CARTESIAN_POINT('',(150.,-1.719898274962,0.));
#26 = SURFACE_CURVE('',#27,(#39),.PCURVE_S1.);
#27 = B_SPLINE_CURVE_WITH_KNOTS('',1,(#28,#29,#30,#31,#32,#33,#34,#35,
    #36,#37,#38),.UNSPECIFIED.,.F.,.F.,(2,1,1,1,1,1,1,1,1,1,2),(0.,
    0.168357386005,0.228164613425,0.301007624215,0.475139264499,
    0.514530753445,0.646307753188,0.684698930774,0.876113460691,
    0.953951706495,1.),.UNSPECIFIED.);
#28 = CARTESIAN_POINT('',(0.,2.97228720694,0.));
#29 = CARTESIAN_POINT('',(26.144245620956,2.768748004059,0.));
#30 = CARTESIAN_POINT('',(34.595883989854,-1.08251283402,0.));
#31 = CARTESIAN_POINT('',(45.885945599873,-0.376008082992,0.));
#32 = CARTESIAN_POINT('',(72.735682137493,2.840805376764,0.));
#33 = CARTESIAN_POINT('',(77.085147418633,-1.460759767334,0.));
#34 = CARTESIAN_POINT('',(97.539046401944,-2.112872022415,0.));
#35 = CARTESIAN_POINT('',(103.10585504532,2.149510536415E-02,0.));
#36 = CARTESIAN_POINT('',(132.83097982473,0.205455357856,0.));
#37 = CARTESIAN_POINT('',(144.59914978041,2.967161346992,0.));
#38 = CARTESIAN_POINT('',(150.,-1.719898274962,0.));
#39 = PCURVE('',#40,#45);
#40 = PLANE('',#41);
#41 = AXIS2_PLACEMENT_3D('',#42,#43,#44);
#42 = CARTESIAN_POINT('',(77.766635585448,7.5,0.));
#43 = DIRECTION('',(0.,0.,1.));
#44 = DIRECTION('',(1.,0.,-0.));
#45 = DEFINITIONAL_REPRESENTATION('',(#46),#58);
#46 = B_SPLINE_CURVE_WITH_KNOTS('',1,(#47,#48,#49,#50,#51,#52,#53,#54,
    #55,#56,#57),.UNSPECIFIED.,.F.,.F.,(2,1,1,1,1,1,1,1,1,1,2),(0.,
    0.168357386005,0.228164613425,0.301007624215,0.475139264499,
    0.514530753445,0.646307753188,0.684698930774,0.876113460691,
    0.953951706495,1.),.UNSPECIFIED.);
#47 = CARTESIAN_POINT('',(-77.76663558544,-4.52771279306));
#48 = CARTESIAN_POINT('',(-51.62238996449,-4.731251995941));
#49 = CARTESIAN_POINT('',(-43.17075159559,-8.58251283402));
#50 = CARTESIAN_POINT('',(-31.88068998557,-7.876008082992));
#51 = CARTESIAN_POINT('',(-5.030953447955,-4.659194623236));
#52 = CARTESIAN_POINT('',(-0.681488166815,-8.960759767334));
#53 = CARTESIAN_POINT('',(19.772410816495,-9.612872022415));
#54 = CARTESIAN_POINT('',(25.339219459873,-7.478504894636));
#55 = CARTESIAN_POINT('',(55.064344239288,-7.294544642144));
#56 = CARTESIAN_POINT('',(66.832514194969,-4.532838653008));
#57 = CARTESIAN_POINT('',(72.233364414552,-9.219898274962));
#58 = ( GEOMETRIC_REPRESENTATION_CONTEXT(2) 
PARAMETRIC_REPRESENTATION_CONTEXT() REPRESENTATION_CONTEXT('2D SPACE',''
  ) );
#59 = ORIENTED_EDGE('',*,*,#60,.T.);
#60 = EDGE_CURVE('',#24,#61,#63,.T.);
#61 = VERTEX_POINT('',#62);
#62 = CARTESIAN_POINT('',(150.,16.719898274962,0.));
#63 = SURFACE_CURVE('',#64,(#68),.PCURVE_S1.);
#64 = LINE('',#65,#66);
#65 = CARTESIAN_POINT('',(150.,-1.719898274962,0.));
#66 = VECTOR('',#67,1.);
#67 = DIRECTION('',(0.,1.,0.));
#68 = PCURVE('',#40,#69);
#69 = DEFINITIONAL_REPRESENTATION('',(#70),#74);
#70 = LINE('',#71,#72);
#71 = CARTESIAN_POINT('',(72.233364414552,-9.219898274962));
#72 = VECTOR('',#73,1.);
#73 = DIRECTION('',(0.,1.));
#74 = ( GEOMETRIC_REPRESENTATION_CONTEXT(2) 
PARAMETRIC_REPRESENTATION_CONTEXT() REPRESENTATION_CONTEXT('2D SPACE',''
  ) );
#75 = ORIENTED_EDGE('',*,*,#76,.T.);
#76 = EDGE_CURVE('',#61,#77,#79,.T.);
#77 = VERTEX_POINT('',#78);
#78 = CARTESIAN_POINT('',(0.,12.02771279306,0.));
#79 = SURFACE_CURVE('',#80,(#92),.PCURVE_S1.);
#80 = B_SPLINE_CURVE_WITH_KNOTS('',1,(#81,#82,#83,#84,#85,#86,#87,#88,
    #89,#90,#91),.UNSPECIFIED.,.F.,.F.,(2,1,1,1,1,1,1,1,1,1,2),(0.,
    4.604829350485E-02,0.123886539309,0.315301069226,0.353692246812,
    0.485469246555,0.524860735501,0.698992375785,0.771835386575,
    0.831642613995,1.),.UNSPECIFIED.);
#81 = CARTESIAN_POINT('',(150.,16.719898274962,0.));
#82 = CARTESIAN_POINT('',(144.59914978041,12.032838653008,0.));
#83 = CARTESIAN_POINT('',(132.83097982473,14.794544642144,0.));
#84 = CARTESIAN_POINT('',(103.10585504532,14.978504894636,0.));
#85 = CARTESIAN_POINT('',(97.539046401944,17.112872022415,0.));
#86 = CARTESIAN_POINT('',(77.085147418633,16.460759767334,0.));
#87 = CARTESIAN_POINT('',(72.735682137493,12.159194623236,0.));
#88 = CARTESIAN_POINT('',(45.885945599873,15.376008082992,0.));
#89 = CARTESIAN_POINT('',(34.595883989854,16.08251283402,0.));
#90 = CARTESIAN_POINT('',(26.144245620956,12.231251995941,0.));
#91 = CARTESIAN_POINT('',(0.,12.02771279306,0.));
#92 = PCURVE('',#40,#93);
#93 = DEFINITIONAL_REPRESENTATION('',(#94),#106);
#94 = B_SPLINE_CURVE_WITH_KNOTS('',1,(#95,#96,#97,#98,#99,#100,#101,#102
    ,#103,#104,#105),.UNSPECIFIED.,.F.,.F.,(2,1,1,1,1,1,1,1,1,1,2),(0.,
    4.604829350485E-02,0.123886539309,0.315301069226,0.353692246812,
    0.485469246555,0.524860735501,0.698992375785,0.771835386575,
    0.831642613995,1.),.UNSPECIFIED.);
#95 = CARTESIAN_POINT('',(72.233364414552,9.219898274962));
#96 = CARTESIAN_POINT('',(66.832514194969,4.532838653008));
#97 = CARTESIAN_POINT('',(55.064344239288,7.294544642144));
#98 = CARTESIAN_POINT('',(25.339219459873,7.478504894636));
#99 = CARTESIAN_POINT('',(19.772410816495,9.612872022415));
#100 = CARTESIAN_POINT('',(-0.681488166815,8.960759767334));
#101 = CARTESIAN_POINT('',(-5.030953447955,4.659194623236));
#102 = CARTESIAN_POINT('',(-31.88068998557,7.876008082992));
#103 = CARTESIAN_POINT('',(-43.17075159559,8.58251283402));
#104 = CARTESIAN_POINT('',(-51.62238996449,4.731251995941));
#105 = CARTESIAN_POINT('',(-77.76663558544,4.52771279306));
#106 = ( GEOMETRIC_REPRESENTATION_CONTEXT(2) 
PARAMETRIC_REPRESENTATION_CONTEXT() REPRESENTATION_CONTEXT('2D SPACE',''
  ) );
#107 = ORIENTED_EDGE('',*,*,#108,.T.);
#108 = EDGE_CURVE('',#77,#22,#109,.T.);
#109 = SURFACE_CURVE('',#110,(#114),.PCURVE_S1.);
#110 = LINE('',#111,#112);
#111 = CARTESIAN_POINT('',(0.,12.02771279306,0.));
#112 = VECTOR('',#113,1.);
#113 = DIRECTION('',(0.,-1.,0.));
#114 = PCURVE('',#40,#115);
#115 = DEFINITIONAL_REPRESENTATION('',(#116),#120);
#116 = LINE('',#117,#118);
#117 = CARTESIAN_POINT('',(-77.76663558544,4.52771279306));
#118 = VECTOR('',#119,1.);
#119 = DIRECTION('',(0.,-1.));
#120 = ( GEOMETRIC_REPRESENTATION_CONTEXT(2) 
PARAMETRIC_REPRESENTATION_CONTEXT() REPRESENTATION_CONTEXT('2D SPACE',''
  ) );
#121 = ( GEOMETRIC_REPRESENTATION_CONTEXT(3) 
GLOBAL_UNCERTAINTY_ASSIGNED_CONTEXT((#125)) GLOBAL_UNIT_ASSIGNED_CONTEXT
((#122,#123,#124)) REPRESENTATION_CONTEXT('Context #1',
  '3D Context with UNIT and UNCERTAINTY') );
#122 = ( LENGTH_UNIT() NAMED_UNIT(*) SI_UNIT(.MILLI.,.METRE.) );
#123 = ( NAMED_UNIT(*) PLANE_ANGLE_UNIT() SI_UNIT($,.RADIAN.) );
#124 = ( NAMED_UNIT(*) SI_UNIT($,.STERADIAN.) SOLID_ANGLE_UNIT() );
#125 = UNCERTAINTY_MEASURE_WITH_UNIT(LENGTH_MEASURE(1.E-07),#122,
  'distance_accuracy_value','confusion accuracy');
#126 = PRODUCT_RELATED_PRODUCT_CATEGORY('part',$,(#7));
ENDSEC;
END-ISO-10303-21;
