ISO-10303-21;
HEADER;
FILE_DESCRIPTION(('Open CASCADE Model'),'2;1');
FILE_NAME('Open CASCADE Shape Model','2026-06-04T12:09:59',('Author'),(
    'Open CASCADE'),'Open CASCADE STEP processor 7.9','Open CASCADE 7.9'
  ,'Unknown');
FILE_SCHEMA(('AUTOMOTIVE_DESIGN { 1 0 10303 214 1 1 1 1 }'));
ENDSEC;
DATA;
#1 = APPLICATION_PROTOCOL_DEFINITION('international standard',
  'automotive_design',2000,#2);
#2 = APPLICATION_CONTEXT(
  'core data for automotive mechanical design processes');
#3 = SHAPE_DEFINITION_REPRESENTATION(#4,#10);
#4 = PRODUCT_DEFINITION_SHAPE('','',#5);
#5 = PRODUCT_DEFINITION('design','',#6,#9);
#6 = PRODUCT_DEFINITION_FORMATION('','',#7);
#7 = PRODUCT('Open CASCADE STEP translator 7.9 71',
  'Open CASCADE STEP translator 7.9 71','',(#8));
#8 = PRODUCT_CONTEXT('',#2,'mechanical');
#9 = PRODUCT_DEFINITION_CONTEXT('part definition',#2,'design');
#10 = MANIFOLD_SURFACE_SHAPE_REPRESENTATION('',(#11,#15),#121);
#11 = AXIS2_PLACEMENT_3D('',#12,#13,#14);
#12 = CARTESIAN_POINT('',(0.,0.,0.));
#13 = DIRECTION('',(0.,0.,1.));
#14 = DIRECTION('',(1.,0.,-0.));
#15 = SHELL_BASED_SURFACE_MODEL('',(#16));
#16 = OPEN_SHELL('',(#17));
#17 = ADVANCED_FACE('',(#18),#40,.T.);
#18 = FACE_BOUND('',#19,.T.);
#19 = EDGE_LOOP('',(#20,#59,#75,#107));
#20 = ORIENTED_EDGE('',*,*,#21,.T.);
#21 = EDGE_CURVE('',#22,#24,#26,.T.);
#22 = VERTEX_POINT('',#23);
#23 = CARTESIAN_POINT('',(0.,-3.457388845645E-02,0.));
#24 = VERTEX_POINT('',#25);
#25 = CARTESIAN_POINT('',(150.,1.364481015505,0.));
#26 = SURFACE_CURVE('',#27,(#39),.PCURVE_S1.);
#27 = B_SPLINE_CURVE_WITH_KNOTS('',1,(#28,#29,#30,#31,#32,#33,#34,#35,
    #36,#37,#38),.UNSPECIFIED.,.F.,.F.,(2,1,1,1,1,1,1,1,1,1,2),(0.,
    8.168935018499E-02,0.225689247067,0.331379530456,0.43590932622,
    0.590889136208,0.669641818652,0.78239266434,0.836920344588,
    0.909288679217,1.),.UNSPECIFIED.);
#28 = CARTESIAN_POINT('',(0.,-3.457388845645E-02,0.));
#29 = CARTESIAN_POINT('',(12.306874831346,-1.419438558694,0.));
#30 = CARTESIAN_POINT('',(34.074745214739,0.241743213278,0.));
#31 = CARTESIAN_POINT('',(50.030824984365,1.707029149124,0.));
#32 = CARTESIAN_POINT('',(65.556129565253,-1.471223056686,0.));
#33 = CARTESIAN_POINT('',(88.761249057677,2.213068984892,0.));
#34 = CARTESIAN_POINT('',(100.69372537058,1.808498018812,0.));
#35 = CARTESIAN_POINT('',(117.5931457804,-0.760949896705,0.));
#36 = CARTESIAN_POINT('',(125.82818898041,-1.483618801152,0.));
#37 = CARTESIAN_POINT('',(136.7639078126,-2.368127321207,0.));
#38 = CARTESIAN_POINT('',(150.,1.364481015505,0.));
#39 = PCURVE('',#40,#45);
#40 = PLANE('',#41);
#41 = AXIS2_PLACEMENT_3D('',#42,#43,#44);
#42 = CARTESIAN_POINT('',(74.545461588747,7.5,0.));
#43 = DIRECTION('',(0.,0.,1.));
#44 = DIRECTION('',(1.,0.,-0.));
#45 = DEFINITIONAL_REPRESENTATION('',(#46),#58);
#46 = B_SPLINE_CURVE_WITH_KNOTS('',1,(#47,#48,#49,#50,#51,#52,#53,#54,
    #55,#56,#57),.UNSPECIFIED.,.F.,.F.,(2,1,1,1,1,1,1,1,1,1,2),(0.,
    8.168935018499E-02,0.225689247067,0.331379530456,0.43590932622,
    0.590889136208,0.669641818652,0.78239266434,0.836920344588,
    0.909288679217,1.),.UNSPECIFIED.);
#47 = CARTESIAN_POINT('',(-74.54546158874,-7.534573888456));
#48 = CARTESIAN_POINT('',(-62.2385867574,-8.919438558694));
#49 = CARTESIAN_POINT('',(-40.470716374,-7.258256786722));
#50 = CARTESIAN_POINT('',(-24.51463660438,-5.792970850876));
#51 = CARTESIAN_POINT('',(-8.989332023494,-8.971223056686));
#52 = CARTESIAN_POINT('',(14.21578746893,-5.286931015108));
#53 = CARTESIAN_POINT('',(26.148263781841,-5.691501981188));
#54 = CARTESIAN_POINT('',(43.047684191658,-8.260949896705));
#55 = CARTESIAN_POINT('',(51.282727391664,-8.983618801152));
#56 = CARTESIAN_POINT('',(62.218446223856,-9.868127321207));
#57 = CARTESIAN_POINT('',(75.454538411253,-6.135518984495));
#58 = ( GEOMETRIC_REPRESENTATION_CONTEXT(2) 
PARAMETRIC_REPRESENTATION_CONTEXT() REPRESENTATION_CONTEXT('2D SPACE',''
  ) );
#59 = ORIENTED_EDGE('',*,*,#60,.T.);
#60 = EDGE_CURVE('',#24,#61,#63,.T.);
#61 = VERTEX_POINT('',#62);
#62 = CARTESIAN_POINT('',(150.,13.635518984495,0.));
#63 = SURFACE_CURVE('',#64,(#68),.PCURVE_S1.);
#64 = LINE('',#65,#66);
#65 = CARTESIAN_POINT('',(150.,1.364481015505,0.));
#66 = VECTOR('',#67,1.);
#67 = DIRECTION('',(0.,1.,0.));
#68 = PCURVE('',#40,#69);
#69 = DEFINITIONAL_REPRESENTATION('',(#70),#74);
#70 = LINE('',#71,#72);
#71 = CARTESIAN_POINT('',(75.454538411253,-6.135518984495));
#72 = VECTOR('',#73,1.);
#73 = DIRECTION('',(0.,1.));
#74 = ( GEOMETRIC_REPRESENTATION_CONTEXT(2) 
PARAMETRIC_REPRESENTATION_CONTEXT() REPRESENTATION_CONTEXT('2D SPACE',''
  ) );
#75 = ORIENTED_EDGE('',*,*,#76,.T.);
#76 = EDGE_CURVE('',#61,#77,#79,.T.);
#77 = VERTEX_POINT('',#78);
#78 = CARTESIAN_POINT('',(0.,15.034573888456,0.));
#79 = SURFACE_CURVE('',#80,(#92),.PCURVE_S1.);
#80 = B_SPLINE_CURVE_WITH_KNOTS('',1,(#81,#82,#83,#84,#85,#86,#87,#88,
    #89,#90,#91),.UNSPECIFIED.,.F.,.F.,(2,1,1,1,1,1,1,1,1,1,2),(0.,
    9.071132078287E-02,0.163079655412,0.21760733566,0.330358181348,
    0.409110863792,0.56409067378,0.668620469544,0.774310752933,
    0.918310649815,1.),.UNSPECIFIED.);
#81 = CARTESIAN_POINT('',(150.,13.635518984495,0.));
#82 = CARTESIAN_POINT('',(136.7639078126,17.368127321207,0.));
#83 = CARTESIAN_POINT('',(125.82818898041,16.483618801152,0.));
#84 = CARTESIAN_POINT('',(117.5931457804,15.760949896705,0.));
#85 = CARTESIAN_POINT('',(100.69372537058,13.191501981188,0.));
#86 = CARTESIAN_POINT('',(88.761249057677,12.786931015108,0.));
#87 = CARTESIAN_POINT('',(65.556129565253,16.471223056686,0.));
#88 = CARTESIAN_POINT('',(50.030824984365,13.292970850876,0.));
#89 = CARTESIAN_POINT('',(34.074745214739,14.758256786722,0.));
#90 = CARTESIAN_POINT('',(12.306874831346,16.419438558694,0.));
#91 = CARTESIAN_POINT('',(0.,15.034573888456,0.));
#92 = PCURVE('',#40,#93);
#93 = DEFINITIONAL_REPRESENTATION('',(#94),#106);
#94 = B_SPLINE_CURVE_WITH_KNOTS('',1,(#95,#96,#97,#98,#99,#100,#101,#102
    ,#103,#104,#105),.UNSPECIFIED.,.F.,.F.,(2,1,1,1,1,1,1,1,1,1,2),(0.,
    9.071132078287E-02,0.163079655412,0.21760733566,0.330358181348,
    0.409110863792,0.56409067378,0.668620469544,0.774310752933,
    0.918310649815,1.),.UNSPECIFIED.);
#95 = CARTESIAN_POINT('',(75.454538411253,6.135518984495));
#96 = CARTESIAN_POINT('',(62.218446223856,9.868127321207));
#97 = CARTESIAN_POINT('',(51.282727391664,8.983618801152));
#98 = CARTESIAN_POINT('',(43.047684191658,8.260949896705));
#99 = CARTESIAN_POINT('',(26.148263781841,5.691501981188));
#100 = CARTESIAN_POINT('',(14.21578746893,5.286931015108));
#101 = CARTESIAN_POINT('',(-8.989332023494,8.971223056686));
#102 = CARTESIAN_POINT('',(-24.51463660438,5.792970850876));
#103 = CARTESIAN_POINT('',(-40.470716374,7.258256786722));
#104 = CARTESIAN_POINT('',(-62.2385867574,8.919438558694));
#105 = CARTESIAN_POINT('',(-74.54546158874,7.534573888456));
#106 = ( GEOMETRIC_REPRESENTATION_CONTEXT(2) 
PARAMETRIC_REPRESENTATION_CONTEXT() REPRESENTATION_CONTEXT('2D SPACE',''
  ) );
#107 = ORIENTED_EDGE('',*,*,#108,.T.);
#108 = EDGE_CURVE('',#77,#22,#109,.T.);
#109 = SURFACE_CURVE('',#110,(#114),.PCURVE_S1.);
#110 = LINE('',#111,#112);
#111 = CARTESIAN_POINT('',(0.,15.034573888456,0.));
#112 = VECTOR('',#113,1.);
#113 = DIRECTION('',(0.,-1.,0.));
#114 = PCURVE('',#40,#115);
#115 = DEFINITIONAL_REPRESENTATION('',(#116),#120);
#116 = LINE('',#117,#118);
#117 = CARTESIAN_POINT('',(-74.54546158874,7.534573888456));
#118 = VECTOR('',#119,1.);
#119 = DIRECTION('',(0.,-1.));
#120 = ( GEOMETRIC_REPRESENTATION_CONTEXT(2) 
PARAMETRIC_REPRESENTATION_CONTEXT() REPRESENTATION_CONTEXT('2D SPACE',''
  ) );
#121 = ( GEOMETRIC_REPRESENTATION_CONTEXT(3) 
GLOBAL_UNCERTAINTY_ASSIGNED_CONTEXT((#125)) GLOBAL_UNIT_ASSIGNED_CONTEXT
((#122,#123,#124)) REPRESENTATION_CONTEXT('Context #1',
  '3D Context with UNIT and UNCERTAINTY') );
#122 = ( LENGTH_UNIT() NAMED_UNIT(*) SI_UNIT(.MILLI.,.METRE.) );
#123 = ( NAMED_UNIT(*) PLANE_ANGLE_UNIT() SI_UNIT($,.RADIAN.) );
#124 = ( NAMED_UNIT(*) SI_UNIT($,.STERADIAN.) SOLID_ANGLE_UNIT() );
#125 = UNCERTAINTY_MEASURE_WITH_UNIT(LENGTH_MEASURE(1.E-07),#122,
  'distance_accuracy_value','confusion accuracy');
#126 = PRODUCT_RELATED_PRODUCT_CATEGORY('part',$,(#7));
ENDSEC;
END-ISO-10303-21;
