ISO-10303-21;
HEADER;
FILE_DESCRIPTION(('Open CASCADE Model'),'2;1');
FILE_NAME('Open CASCADE Shape Model','2026-06-04T12:09:59',('Author'),(
    'Open CASCADE'),'Open CASCADE STEP processor 7.9','Open CASCADE 7.9'
  ,'Unknown');
FILE_SCHEMA(('AUTOMOTIVE_DESIGN { 1 0 10303 214 1 1 1 1 }'));
ENDSEC;
DATA;
#1 = APPLICATION_PROTOCOL_DEFINITION('international standard',
  'automotive_design',2000,#2);
#2 = APPLICATION_CONTEXT(
  'core data for automotive mechanical design processes');
#3 = SHAPE_DEFINITION_REPRESENTATION(#4,#10);
#4 = PRODUCT_DEFINITION_SHAPE('','',#5);
#5 = PRODUCT_DEFINITION('design','',#6,#9);
#6 = PRODUCT_DEFINITION_FORMATION('','',#7);
#7 = PRODUCT('Open CASCADE STEP translator 7.9 17',
  'Open CASCADE STEP translator 7.9 17','',(#8));
#8 = PRODUCT_CONTEXT('',#2,'mechanical');
#9 = PRODUCT_DEFINITION_CONTEXT('part definition',#2,'design');
#10 = MANIFOLD_SURFACE_SHAPE_REPRESENTATION('',(#11,#15),#121);
#11 = AXIS2_PLACEMENT_3D('',#12,#13,#14);
#12 = CARTESIAN_POINT('',(0.,0.,0.));
#13 = DIRECTION('',(0.,0.,1.));
#14 = DIRECTION('',(1.,0.,-0.));
#15 = SHELL_BASED_SURFACE_MODEL('',(#16));
#16 = OPEN_SHELL('',(#17));
#17 = ADVANCED_FACE('',(#18),#40,.T.);
#18 = FACE_BOUND('',#19,.T.);
#19 = EDGE_LOOP('',(#20,#59,#75,#107));
#20 = ORIENTED_EDGE('',*,*,#21,.T.);
#21 = EDGE_CURVE('',#22,#24,#26,.T.);
#22 = VERTEX_POINT('',#23);
#23 = CARTESIAN_POINT('',(0.,-0.54045537215,0.));
#24 = VERTEX_POINT('',#25);
#25 = CARTESIAN_POINT('',(150.,4.708070654743E-02,0.));
#26 = SURFACE_CURVE('',#27,(#39),.PCURVE_S1.);
#27 = B_SPLINE_CURVE_WITH_KNOTS('',1,(#28,#29,#30,#31,#32,#33,#34,#35,
    #36,#37,#38),.UNSPECIFIED.,.F.,.F.,(2,1,1,1,1,1,1,1,1,1,2),(0.,
    3.202985952167E-02,0.155801688451,0.19197348453,0.511577633886,
    0.56941098731,0.666664272402,0.750999609236,0.81559176262,
    0.930425544327,1.),.UNSPECIFIED.);
#28 = CARTESIAN_POINT('',(0.,-0.54045537215,0.));
#29 = CARTESIAN_POINT('',(3.869884378017,2.429704814614,0.));
#30 = CARTESIAN_POINT('',(22.459830225488,-0.696994200145,0.));
#31 = CARTESIAN_POINT('',(27.27914228173,1.972252175443,0.));
#32 = CARTESIAN_POINT('',(75.899083580993,-0.389703668835,0.));
#33 = CARTESIAN_POINT('',(84.707272604506,-0.434583084203,0.));
#34 = CARTESIAN_POINT('',(99.505649303944,0.204089082113,0.));
#35 = CARTESIAN_POINT('',(112.34583718766,-0.135790653079,0.));
#36 = CARTESIAN_POINT('',(122.0764279373,-1.58354034004,0.));
#37 = CARTESIAN_POINT('',(139.56489202726,-1.795468299072,0.));
#38 = CARTESIAN_POINT('',(150.,4.708070654743E-02,0.));
#39 = PCURVE('',#40,#45);
#40 = PLANE('',#41);
#41 = AXIS2_PLACEMENT_3D('',#42,#43,#44);
#42 = CARTESIAN_POINT('',(74.084720086069,7.5,0.));
#43 = DIRECTION('',(0.,0.,1.));
#44 = DIRECTION('',(1.,0.,-0.));
#45 = DEFINITIONAL_REPRESENTATION('',(#46),#58);
#46 = B_SPLINE_CURVE_WITH_KNOTS('',1,(#47,#48,#49,#50,#51,#52,#53,#54,
    #55,#56,#57),.UNSPECIFIED.,.F.,.F.,(2,1,1,1,1,1,1,1,1,1,2),(0.,
    3.202985952167E-02,0.155801688451,0.19197348453,0.511577633886,
    0.56941098731,0.666664272402,0.750999609236,0.81559176262,
    0.930425544327,1.),.UNSPECIFIED.);
#47 = CARTESIAN_POINT('',(-74.08472008606,-8.04045537215));
#48 = CARTESIAN_POINT('',(-70.21483570805,-5.070295185386));
#49 = CARTESIAN_POINT('',(-51.62488986058,-8.196994200145));
#50 = CARTESIAN_POINT('',(-46.80557780433,-5.527747824557));
#51 = CARTESIAN_POINT('',(1.814363494924,-7.889703668835));
#52 = CARTESIAN_POINT('',(10.622552518437,-7.934583084203));
#53 = CARTESIAN_POINT('',(25.420929217876,-7.295910917887));
#54 = CARTESIAN_POINT('',(38.261117101592,-7.635790653079));
#55 = CARTESIAN_POINT('',(47.991707851236,-9.08354034004));
#56 = CARTESIAN_POINT('',(65.480171941193,-9.295468299072));
#57 = CARTESIAN_POINT('',(75.915279913931,-7.452919293453));
#58 = ( GEOMETRIC_REPRESENTATION_CONTEXT(2) 
PARAMETRIC_REPRESENTATION_CONTEXT() REPRESENTATION_CONTEXT('2D SPACE',''
  ) );
#59 = ORIENTED_EDGE('',*,*,#60,.T.);
#60 = EDGE_CURVE('',#24,#61,#63,.T.);
#61 = VERTEX_POINT('',#62);
#62 = CARTESIAN_POINT('',(150.,14.952919293453,0.));
#63 = SURFACE_CURVE('',#64,(#68),.PCURVE_S1.);
#64 = LINE('',#65,#66);
#65 = CARTESIAN_POINT('',(150.,4.708070654743E-02,0.));
#66 = VECTOR('',#67,1.);
#67 = DIRECTION('',(0.,1.,0.));
#68 = PCURVE('',#40,#69);
#69 = DEFINITIONAL_REPRESENTATION('',(#70),#74);
#70 = LINE('',#71,#72);
#71 = CARTESIAN_POINT('',(75.915279913931,-7.452919293453));
#72 = VECTOR('',#73,1.);
#73 = DIRECTION('',(0.,1.));
#74 = ( GEOMETRIC_REPRESENTATION_CONTEXT(2) 
PARAMETRIC_REPRESENTATION_CONTEXT() REPRESENTATION_CONTEXT('2D SPACE',''
  ) );
#75 = ORIENTED_EDGE('',*,*,#76,.T.);
#76 = EDGE_CURVE('',#61,#77,#79,.T.);
#77 = VERTEX_POINT('',#78);
#78 = CARTESIAN_POINT('',(0.,15.54045537215,0.));
#79 = SURFACE_CURVE('',#80,(#92),.PCURVE_S1.);
#80 = B_SPLINE_CURVE_WITH_KNOTS('',1,(#81,#82,#83,#84,#85,#86,#87,#88,
    #89,#90,#91),.UNSPECIFIED.,.F.,.F.,(2,1,1,1,1,1,1,1,1,1,2),(0.,
    6.957445567292E-02,0.18440823738,0.249000390764,0.333335727598,
    0.43058901269,0.488422366114,0.80802651547,0.844198311549,
    0.967970140478,1.),.UNSPECIFIED.);
#81 = CARTESIAN_POINT('',(150.,14.952919293453,0.));
#82 = CARTESIAN_POINT('',(139.56489202726,16.795468299072,0.));
#83 = CARTESIAN_POINT('',(122.0764279373,16.58354034004,0.));
#84 = CARTESIAN_POINT('',(112.34583718766,15.135790653079,0.));
#85 = CARTESIAN_POINT('',(99.505649303944,14.795910917887,0.));
#86 = CARTESIAN_POINT('',(84.707272604506,15.434583084203,0.));
#87 = CARTESIAN_POINT('',(75.899083580993,15.389703668835,0.));
#88 = CARTESIAN_POINT('',(27.27914228173,13.027747824557,0.));
#89 = CARTESIAN_POINT('',(22.459830225488,15.696994200145,0.));
#90 = CARTESIAN_POINT('',(3.869884378017,12.570295185386,0.));
#91 = CARTESIAN_POINT('',(0.,15.54045537215,0.));
#92 = PCURVE('',#40,#93);
#93 = DEFINITIONAL_REPRESENTATION('',(#94),#106);
#94 = B_SPLINE_CURVE_WITH_KNOTS('',1,(#95,#96,#97,#98,#99,#100,#101,#102
    ,#103,#104,#105),.UNSPECIFIED.,.F.,.F.,(2,1,1,1,1,1,1,1,1,1,2),(0.,
    6.957445567292E-02,0.18440823738,0.249000390764,0.333335727598,
    0.43058901269,0.488422366114,0.80802651547,0.844198311549,
    0.967970140478,1.),.UNSPECIFIED.);
#95 = CARTESIAN_POINT('',(75.915279913931,7.452919293453));
#96 = CARTESIAN_POINT('',(65.480171941193,9.295468299072));
#97 = CARTESIAN_POINT('',(47.991707851236,9.08354034004));
#98 = CARTESIAN_POINT('',(38.261117101592,7.635790653079));
#99 = CARTESIAN_POINT('',(25.420929217876,7.295910917887));
#100 = CARTESIAN_POINT('',(10.622552518437,7.934583084203));
#101 = CARTESIAN_POINT('',(1.814363494924,7.889703668835));
#102 = CARTESIAN_POINT('',(-46.80557780433,5.527747824557));
#103 = CARTESIAN_POINT('',(-51.62488986058,8.196994200145));
#104 = CARTESIAN_POINT('',(-70.21483570805,5.070295185386));
#105 = CARTESIAN_POINT('',(-74.08472008606,8.04045537215));
#106 = ( GEOMETRIC_REPRESENTATION_CONTEXT(2) 
PARAMETRIC_REPRESENTATION_CONTEXT() REPRESENTATION_CONTEXT('2D SPACE',''
  ) );
#107 = ORIENTED_EDGE('',*,*,#108,.T.);
#108 = EDGE_CURVE('',#77,#22,#109,.T.);
#109 = SURFACE_CURVE('',#110,(#114),.PCURVE_S1.);
#110 = LINE('',#111,#112);
#111 = CARTESIAN_POINT('',(0.,15.54045537215,0.));
#112 = VECTOR('',#113,1.);
#113 = DIRECTION('',(0.,-1.,0.));
#114 = PCURVE('',#40,#115);
#115 = DEFINITIONAL_REPRESENTATION('',(#116),#120);
#116 = LINE('',#117,#118);
#117 = CARTESIAN_POINT('',(-74.08472008606,8.04045537215));
#118 = VECTOR('',#119,1.);
#119 = DIRECTION('',(0.,-1.));
#120 = ( GEOMETRIC_REPRESENTATION_CONTEXT(2) 
PARAMETRIC_REPRESENTATION_CONTEXT() REPRESENTATION_CONTEXT('2D SPACE',''
  ) );
#121 = ( GEOMETRIC_REPRESENTATION_CONTEXT(3) 
GLOBAL_UNCERTAINTY_ASSIGNED_CONTEXT((#125)) GLOBAL_UNIT_ASSIGNED_CONTEXT
((#122,#123,#124)) REPRESENTATION_CONTEXT('Context #1',
  '3D Context with UNIT and UNCERTAINTY') );
#122 = ( LENGTH_UNIT() NAMED_UNIT(*) SI_UNIT(.MILLI.,.METRE.) );
#123 = ( NAMED_UNIT(*) PLANE_ANGLE_UNIT() SI_UNIT($,.RADIAN.) );
#124 = ( NAMED_UNIT(*) SI_UNIT($,.STERADIAN.) SOLID_ANGLE_UNIT() );
#125 = UNCERTAINTY_MEASURE_WITH_UNIT(LENGTH_MEASURE(1.E-07),#122,
  'distance_accuracy_value','confusion accuracy');
#126 = PRODUCT_RELATED_PRODUCT_CATEGORY('part',$,(#7));
ENDSEC;
END-ISO-10303-21;
