ISO-10303-21;
HEADER;
FILE_DESCRIPTION(('Open CASCADE Model'),'2;1');
FILE_NAME('Open CASCADE Shape Model','2026-06-04T12:09:58',('Author'),(
    'Open CASCADE'),'Open CASCADE STEP processor 7.9','Open CASCADE 7.9'
  ,'Unknown');
FILE_SCHEMA(('AUTOMOTIVE_DESIGN { 1 0 10303 214 1 1 1 1 }'));
ENDSEC;
DATA;
#1 = APPLICATION_PROTOCOL_DEFINITION('international standard',
  'automotive_design',2000,#2);
#2 = APPLICATION_CONTEXT(
  'core data for automotive mechanical design processes');
#3 = SHAPE_DEFINITION_REPRESENTATION(#4,#10);
#4 = PRODUCT_DEFINITION_SHAPE('','',#5);
#5 = PRODUCT_DEFINITION('design','',#6,#9);
#6 = PRODUCT_DEFINITION_FORMATION('','',#7);
#7 = PRODUCT('Open CASCADE STEP translator 7.9 2',
  'Open CASCADE STEP translator 7.9 2','',(#8));
#8 = PRODUCT_CONTEXT('',#2,'mechanical');
#9 = PRODUCT_DEFINITION_CONTEXT('part definition',#2,'design');
#10 = MANIFOLD_SURFACE_SHAPE_REPRESENTATION('',(#11,#15),#121);
#11 = AXIS2_PLACEMENT_3D('',#12,#13,#14);
#12 = CARTESIAN_POINT('',(0.,0.,0.));
#13 = DIRECTION('',(0.,0.,1.));
#14 = DIRECTION('',(1.,0.,-0.));
#15 = SHELL_BASED_SURFACE_MODEL('',(#16));
#16 = OPEN_SHELL('',(#17));
#17 = ADVANCED_FACE('',(#18),#40,.T.);
#18 = FACE_BOUND('',#19,.T.);
#19 = EDGE_LOOP('',(#20,#59,#75,#107));
#20 = ORIENTED_EDGE('',*,*,#21,.T.);
#21 = EDGE_CURVE('',#22,#24,#26,.T.);
#22 = VERTEX_POINT('',#23);
#23 = CARTESIAN_POINT('',(0.,-2.805058394605,0.));
#24 = VERTEX_POINT('',#25);
#25 = CARTESIAN_POINT('',(150.,-1.996069176347,0.));
#26 = SURFACE_CURVE('',#27,(#39),.PCURVE_S1.);
#27 = B_SPLINE_CURVE_WITH_KNOTS('',1,(#28,#29,#30,#31,#32,#33,#34,#35,
    #36,#37,#38),.UNSPECIFIED.,.F.,.F.,(2,1,1,1,1,1,1,1,1,1,2),(0.,
    5.456660327648E-02,0.309895024292,0.486945631403,0.591299311766,
    0.664503352914,0.743498079651,0.774657109222,0.820807200305,
    0.928750755088,1.),.UNSPECIFIED.);
#28 = CARTESIAN_POINT('',(0.,-2.805058394605,0.));
#29 = CARTESIAN_POINT('',(7.365628119482,1.045047851171,0.));
#30 = CARTESIAN_POINT('',(46.254459253667,0.777241763791,0.));
#31 = CARTESIAN_POINT('',(73.214954257943,0.182665132345,0.));
#32 = CARTESIAN_POINT('',(89.020252519382,1.863171845494,0.));
#33 = CARTESIAN_POINT('',(100.16442909457,2.220470967987,0.));
#34 = CARTESIAN_POINT('',(112.01610319202,0.145770442644,0.));
#35 = CARTESIAN_POINT('',(116.52113772329,1.638543905695,0.));
#36 = CARTESIAN_POINT('',(123.02869808445,-1.018883968095,0.));
#37 = CARTESIAN_POINT('',(139.41049780137,0.377088486766,0.));
#38 = CARTESIAN_POINT('',(150.,-1.996069176347,0.));
#39 = PCURVE('',#40,#45);
#40 = PLANE('',#41);
#41 = AXIS2_PLACEMENT_3D('',#42,#43,#44);
#42 = CARTESIAN_POINT('',(74.607650569976,7.5,0.));
#43 = DIRECTION('',(0.,0.,1.));
#44 = DIRECTION('',(1.,0.,-0.));
#45 = DEFINITIONAL_REPRESENTATION('',(#46),#58);
#46 = B_SPLINE_CURVE_WITH_KNOTS('',1,(#47,#48,#49,#50,#51,#52,#53,#54,
    #55,#56,#57),.UNSPECIFIED.,.F.,.F.,(2,1,1,1,1,1,1,1,1,1,2),(0.,
    5.456660327648E-02,0.309895024292,0.486945631403,0.591299311766,
    0.664503352914,0.743498079651,0.774657109222,0.820807200305,
    0.928750755088,1.),.UNSPECIFIED.);
#47 = CARTESIAN_POINT('',(-74.60765056997,-10.3050583946));
#48 = CARTESIAN_POINT('',(-67.24202245049,-6.454952148829));
#49 = CARTESIAN_POINT('',(-28.3531913163,-6.722758236209));
#50 = CARTESIAN_POINT('',(-1.392696312033,-7.317334867655));
#51 = CARTESIAN_POINT('',(14.412601949406,-5.636828154506));
#52 = CARTESIAN_POINT('',(25.556778524595,-5.279529032013));
#53 = CARTESIAN_POINT('',(37.408452622053,-7.354229557356));
#54 = CARTESIAN_POINT('',(41.913487153323,-5.861456094305));
#55 = CARTESIAN_POINT('',(48.421047514482,-8.518883968095));
#56 = CARTESIAN_POINT('',(64.802847231398,-7.122911513234));
#57 = CARTESIAN_POINT('',(75.392349430024,-9.496069176347));
#58 = ( GEOMETRIC_REPRESENTATION_CONTEXT(2) 
PARAMETRIC_REPRESENTATION_CONTEXT() REPRESENTATION_CONTEXT('2D SPACE',''
  ) );
#59 = ORIENTED_EDGE('',*,*,#60,.T.);
#60 = EDGE_CURVE('',#24,#61,#63,.T.);
#61 = VERTEX_POINT('',#62);
#62 = CARTESIAN_POINT('',(150.,16.996069176347,0.));
#63 = SURFACE_CURVE('',#64,(#68),.PCURVE_S1.);
#64 = LINE('',#65,#66);
#65 = CARTESIAN_POINT('',(150.,-1.996069176347,0.));
#66 = VECTOR('',#67,1.);
#67 = DIRECTION('',(0.,1.,0.));
#68 = PCURVE('',#40,#69);
#69 = DEFINITIONAL_REPRESENTATION('',(#70),#74);
#70 = LINE('',#71,#72);
#71 = CARTESIAN_POINT('',(75.392349430024,-9.496069176347));
#72 = VECTOR('',#73,1.);
#73 = DIRECTION('',(0.,1.));
#74 = ( GEOMETRIC_REPRESENTATION_CONTEXT(2) 
PARAMETRIC_REPRESENTATION_CONTEXT() REPRESENTATION_CONTEXT('2D SPACE',''
  ) );
#75 = ORIENTED_EDGE('',*,*,#76,.T.);
#76 = EDGE_CURVE('',#61,#77,#79,.T.);
#77 = VERTEX_POINT('',#78);
#78 = CARTESIAN_POINT('',(0.,17.805058394605,0.));
#79 = SURFACE_CURVE('',#80,(#92),.PCURVE_S1.);
#80 = B_SPLINE_CURVE_WITH_KNOTS('',1,(#81,#82,#83,#84,#85,#86,#87,#88,
    #89,#90,#91),.UNSPECIFIED.,.F.,.F.,(2,1,1,1,1,1,1,1,1,1,2),(0.,
    7.124924491153E-02,0.179192799695,0.225342890778,0.256501920349,
    0.335496647086,0.408700688234,0.513054368597,0.690104975708,
    0.945433396724,1.),.UNSPECIFIED.);
#81 = CARTESIAN_POINT('',(150.,16.996069176347,0.));
#82 = CARTESIAN_POINT('',(139.41049780137,14.622911513234,0.));
#83 = CARTESIAN_POINT('',(123.02869808445,16.018883968095,0.));
#84 = CARTESIAN_POINT('',(116.52113772329,13.361456094305,0.));
#85 = CARTESIAN_POINT('',(112.01610319202,14.854229557356,0.));
#86 = CARTESIAN_POINT('',(100.16442909457,12.779529032013,0.));
#87 = CARTESIAN_POINT('',(89.020252519382,13.136828154506,0.));
#88 = CARTESIAN_POINT('',(73.214954257943,14.817334867655,0.));
#89 = CARTESIAN_POINT('',(46.254459253667,14.222758236209,0.));
#90 = CARTESIAN_POINT('',(7.365628119482,13.954952148829,0.));
#91 = CARTESIAN_POINT('',(0.,17.805058394605,0.));
#92 = PCURVE('',#40,#93);
#93 = DEFINITIONAL_REPRESENTATION('',(#94),#106);
#94 = B_SPLINE_CURVE_WITH_KNOTS('',1,(#95,#96,#97,#98,#99,#100,#101,#102
    ,#103,#104,#105),.UNSPECIFIED.,.F.,.F.,(2,1,1,1,1,1,1,1,1,1,2),(0.,
    7.124924491153E-02,0.179192799695,0.225342890778,0.256501920349,
    0.335496647086,0.408700688234,0.513054368597,0.690104975708,
    0.945433396724,1.),.UNSPECIFIED.);
#95 = CARTESIAN_POINT('',(75.392349430024,9.496069176347));
#96 = CARTESIAN_POINT('',(64.802847231398,7.122911513234));
#97 = CARTESIAN_POINT('',(48.421047514482,8.518883968095));
#98 = CARTESIAN_POINT('',(41.913487153323,5.861456094305));
#99 = CARTESIAN_POINT('',(37.408452622053,7.354229557356));
#100 = CARTESIAN_POINT('',(25.556778524595,5.279529032013));
#101 = CARTESIAN_POINT('',(14.412601949406,5.636828154506));
#102 = CARTESIAN_POINT('',(-1.392696312033,7.317334867655));
#103 = CARTESIAN_POINT('',(-28.3531913163,6.722758236209));
#104 = CARTESIAN_POINT('',(-67.24202245049,6.454952148829));
#105 = CARTESIAN_POINT('',(-74.60765056997,10.305058394605));
#106 = ( GEOMETRIC_REPRESENTATION_CONTEXT(2) 
PARAMETRIC_REPRESENTATION_CONTEXT() REPRESENTATION_CONTEXT('2D SPACE',''
  ) );
#107 = ORIENTED_EDGE('',*,*,#108,.T.);
#108 = EDGE_CURVE('',#77,#22,#109,.T.);
#109 = SURFACE_CURVE('',#110,(#114),.PCURVE_S1.);
#110 = LINE('',#111,#112);
#111 = CARTESIAN_POINT('',(0.,17.805058394605,0.));
#112 = VECTOR('',#113,1.);
#113 = DIRECTION('',(0.,-1.,0.));
#114 = PCURVE('',#40,#115);
#115 = DEFINITIONAL_REPRESENTATION('',(#116),#120);
#116 = LINE('',#117,#118);
#117 = CARTESIAN_POINT('',(-74.60765056997,10.305058394605));
#118 = VECTOR('',#119,1.);
#119 = DIRECTION('',(0.,-1.));
#120 = ( GEOMETRIC_REPRESENTATION_CONTEXT(2) 
PARAMETRIC_REPRESENTATION_CONTEXT() REPRESENTATION_CONTEXT('2D SPACE',''
  ) );
#121 = ( GEOMETRIC_REPRESENTATION_CONTEXT(3) 
GLOBAL_UNCERTAINTY_ASSIGNED_CONTEXT((#125)) GLOBAL_UNIT_ASSIGNED_CONTEXT
((#122,#123,#124)) REPRESENTATION_CONTEXT('Context #1',
  '3D Context with UNIT and UNCERTAINTY') );
#122 = ( LENGTH_UNIT() NAMED_UNIT(*) SI_UNIT(.MILLI.,.METRE.) );
#123 = ( NAMED_UNIT(*) PLANE_ANGLE_UNIT() SI_UNIT($,.RADIAN.) );
#124 = ( NAMED_UNIT(*) SI_UNIT($,.STERADIAN.) SOLID_ANGLE_UNIT() );
#125 = UNCERTAINTY_MEASURE_WITH_UNIT(LENGTH_MEASURE(1.E-07),#122,
  'distance_accuracy_value','confusion accuracy');
#126 = PRODUCT_RELATED_PRODUCT_CATEGORY('part',$,(#7));
ENDSEC;
END-ISO-10303-21;
