ISO-10303-21;
HEADER;
FILE_DESCRIPTION(('Open CASCADE Model'),'2;1');
FILE_NAME('Open CASCADE Shape Model','2026-06-04T12:09:59',('Author'),(
    'Open CASCADE'),'Open CASCADE STEP processor 7.9','Open CASCADE 7.9'
  ,'Unknown');
FILE_SCHEMA(('AUTOMOTIVE_DESIGN { 1 0 10303 214 1 1 1 1 }'));
ENDSEC;
DATA;
#1 = APPLICATION_PROTOCOL_DEFINITION('international standard',
  'automotive_design',2000,#2);
#2 = APPLICATION_CONTEXT(
  'core data for automotive mechanical design processes');
#3 = SHAPE_DEFINITION_REPRESENTATION(#4,#10);
#4 = PRODUCT_DEFINITION_SHAPE('','',#5);
#5 = PRODUCT_DEFINITION('design','',#6,#9);
#6 = PRODUCT_DEFINITION_FORMATION('','',#7);
#7 = PRODUCT('Open CASCADE STEP translator 7.9 68',
  'Open CASCADE STEP translator 7.9 68','',(#8));
#8 = PRODUCT_CONTEXT('',#2,'mechanical');
#9 = PRODUCT_DEFINITION_CONTEXT('part definition',#2,'design');
#10 = MANIFOLD_SURFACE_SHAPE_REPRESENTATION('',(#11,#15),#121);
#11 = AXIS2_PLACEMENT_3D('',#12,#13,#14);
#12 = CARTESIAN_POINT('',(0.,0.,0.));
#13 = DIRECTION('',(0.,0.,1.));
#14 = DIRECTION('',(1.,0.,-0.));
#15 = SHELL_BASED_SURFACE_MODEL('',(#16));
#16 = OPEN_SHELL('',(#17));
#17 = ADVANCED_FACE('',(#18),#40,.T.);
#18 = FACE_BOUND('',#19,.T.);
#19 = EDGE_LOOP('',(#20,#59,#75,#107));
#20 = ORIENTED_EDGE('',*,*,#21,.T.);
#21 = EDGE_CURVE('',#22,#24,#26,.T.);
#22 = VERTEX_POINT('',#23);
#23 = CARTESIAN_POINT('',(0.,2.7052941375,0.));
#24 = VERTEX_POINT('',#25);
#25 = CARTESIAN_POINT('',(150.,-0.706733451033,0.));
#26 = SURFACE_CURVE('',#27,(#39),.PCURVE_S1.);
#27 = B_SPLINE_CURVE_WITH_KNOTS('',1,(#28,#29,#30,#31,#32,#33,#34,#35,
    #36,#37,#38),.UNSPECIFIED.,.F.,.F.,(2,1,1,1,1,1,1,1,1,1,2),(0.,
    8.05119766685E-02,0.10315785542,0.139221652484,0.17846544909,
    0.487750539938,0.54198757284,0.595641625379,0.850870972426,
    0.942365076989,1.),.UNSPECIFIED.);
#28 = CARTESIAN_POINT('',(0.,2.7052941375,0.));
#29 = CARTESIAN_POINT('',(12.186148659457,2.078389004773,0.));
#30 = CARTESIAN_POINT('',(15.575312650448,2.620029127785,0.));
#31 = CARTESIAN_POINT('',(20.983576444378,1.829254553446,0.));
#32 = CARTESIAN_POINT('',(26.493097665602,-0.411418288222,0.));
#33 = CARTESIAN_POINT('',(73.322407984536,-2.474692777774,0.));
#34 = CARTESIAN_POINT('',(81.228161423953,-0.223313302166,0.));
#35 = CARTESIAN_POINT('',(89.342419658751,-0.755937340194,0.));
#36 = CARTESIAN_POINT('',(127.94076698193,1.788796490343,0.));
#37 = CARTESIAN_POINT('',(141.33407381606,-1.803501724043,0.));
#38 = CARTESIAN_POINT('',(150.,-0.706733451033,0.));
#39 = PCURVE('',#40,#45);
#40 = PLANE('',#41);
#41 = AXIS2_PLACEMENT_3D('',#42,#43,#44);
#42 = CARTESIAN_POINT('',(76.592908918094,7.5,0.));
#43 = DIRECTION('',(0.,0.,1.));
#44 = DIRECTION('',(1.,0.,-0.));
#45 = DEFINITIONAL_REPRESENTATION('',(#46),#58);
#46 = B_SPLINE_CURVE_WITH_KNOTS('',1,(#47,#48,#49,#50,#51,#52,#53,#54,
    #55,#56,#57),.UNSPECIFIED.,.F.,.F.,(2,1,1,1,1,1,1,1,1,1,2),(0.,
    8.05119766685E-02,0.10315785542,0.139221652484,0.17846544909,
    0.487750539938,0.54198757284,0.595641625379,0.850870972426,
    0.942365076989,1.),.UNSPECIFIED.);
#47 = CARTESIAN_POINT('',(-76.59290891809,-4.7947058625));
#48 = CARTESIAN_POINT('',(-64.40676025863,-5.421610995227));
#49 = CARTESIAN_POINT('',(-61.01759626764,-4.879970872215));
#50 = CARTESIAN_POINT('',(-55.60933247371,-5.670745446554));
#51 = CARTESIAN_POINT('',(-50.09981125249,-7.911418288222));
#52 = CARTESIAN_POINT('',(-3.270500933558,-9.974692777774));
#53 = CARTESIAN_POINT('',(4.635252505859,-7.723313302166));
#54 = CARTESIAN_POINT('',(12.749510740657,-8.255937340194));
#55 = CARTESIAN_POINT('',(51.347858063842,-5.711203509657));
#56 = CARTESIAN_POINT('',(64.741164897971,-9.303501724043));
#57 = CARTESIAN_POINT('',(73.407091081906,-8.206733451034));
#58 = ( GEOMETRIC_REPRESENTATION_CONTEXT(2) 
PARAMETRIC_REPRESENTATION_CONTEXT() REPRESENTATION_CONTEXT('2D SPACE',''
  ) );
#59 = ORIENTED_EDGE('',*,*,#60,.T.);
#60 = EDGE_CURVE('',#24,#61,#63,.T.);
#61 = VERTEX_POINT('',#62);
#62 = CARTESIAN_POINT('',(150.,15.706733451034,0.));
#63 = SURFACE_CURVE('',#64,(#68),.PCURVE_S1.);
#64 = LINE('',#65,#66);
#65 = CARTESIAN_POINT('',(150.,-0.706733451033,0.));
#66 = VECTOR('',#67,1.);
#67 = DIRECTION('',(0.,1.,0.));
#68 = PCURVE('',#40,#69);
#69 = DEFINITIONAL_REPRESENTATION('',(#70),#74);
#70 = LINE('',#71,#72);
#71 = CARTESIAN_POINT('',(73.407091081906,-8.206733451034));
#72 = VECTOR('',#73,1.);
#73 = DIRECTION('',(0.,1.));
#74 = ( GEOMETRIC_REPRESENTATION_CONTEXT(2) 
PARAMETRIC_REPRESENTATION_CONTEXT() REPRESENTATION_CONTEXT('2D SPACE',''
  ) );
#75 = ORIENTED_EDGE('',*,*,#76,.T.);
#76 = EDGE_CURVE('',#61,#77,#79,.T.);
#77 = VERTEX_POINT('',#78);
#78 = CARTESIAN_POINT('',(0.,12.2947058625,0.));
#79 = SURFACE_CURVE('',#80,(#92),.PCURVE_S1.);
#80 = B_SPLINE_CURVE_WITH_KNOTS('',1,(#81,#82,#83,#84,#85,#86,#87,#88,
    #89,#90,#91),.UNSPECIFIED.,.F.,.F.,(2,1,1,1,1,1,1,1,1,1,2),(0.,
    5.763492301122E-02,0.149129027574,0.404358374621,0.45801242716,
    0.512249460062,0.82153455091,0.860778347516,0.89684214458,
    0.919488023332,1.),.UNSPECIFIED.);
#81 = CARTESIAN_POINT('',(150.,15.706733451034,0.));
#82 = CARTESIAN_POINT('',(141.33407381606,16.803501724043,0.));
#83 = CARTESIAN_POINT('',(127.94076698193,13.211203509657,0.));
#84 = CARTESIAN_POINT('',(89.342419658751,15.755937340194,0.));
#85 = CARTESIAN_POINT('',(81.228161423953,15.223313302166,0.));
#86 = CARTESIAN_POINT('',(73.322407984536,17.474692777774,0.));
#87 = CARTESIAN_POINT('',(26.493097665602,15.411418288222,0.));
#88 = CARTESIAN_POINT('',(20.983576444378,13.170745446554,0.));
#89 = CARTESIAN_POINT('',(15.575312650448,12.379970872215,0.));
#90 = CARTESIAN_POINT('',(12.186148659457,12.921610995227,0.));
#91 = CARTESIAN_POINT('',(0.,12.2947058625,0.));
#92 = PCURVE('',#40,#93);
#93 = DEFINITIONAL_REPRESENTATION('',(#94),#106);
#94 = B_SPLINE_CURVE_WITH_KNOTS('',1,(#95,#96,#97,#98,#99,#100,#101,#102
    ,#103,#104,#105),.UNSPECIFIED.,.F.,.F.,(2,1,1,1,1,1,1,1,1,1,2),(0.,
    5.763492301122E-02,0.149129027574,0.404358374621,0.45801242716,
    0.512249460062,0.82153455091,0.860778347516,0.89684214458,
    0.919488023332,1.),.UNSPECIFIED.);
#95 = CARTESIAN_POINT('',(73.407091081906,8.206733451034));
#96 = CARTESIAN_POINT('',(64.741164897971,9.303501724043));
#97 = CARTESIAN_POINT('',(51.347858063842,5.711203509657));
#98 = CARTESIAN_POINT('',(12.749510740657,8.255937340194));
#99 = CARTESIAN_POINT('',(4.635252505859,7.723313302166));
#100 = CARTESIAN_POINT('',(-3.270500933558,9.974692777774));
#101 = CARTESIAN_POINT('',(-50.09981125249,7.911418288222));
#102 = CARTESIAN_POINT('',(-55.60933247371,5.670745446554));
#103 = CARTESIAN_POINT('',(-61.01759626764,4.879970872215));
#104 = CARTESIAN_POINT('',(-64.40676025863,5.421610995227));
#105 = CARTESIAN_POINT('',(-76.59290891809,4.7947058625));
#106 = ( GEOMETRIC_REPRESENTATION_CONTEXT(2) 
PARAMETRIC_REPRESENTATION_CONTEXT() REPRESENTATION_CONTEXT('2D SPACE',''
  ) );
#107 = ORIENTED_EDGE('',*,*,#108,.T.);
#108 = EDGE_CURVE('',#77,#22,#109,.T.);
#109 = SURFACE_CURVE('',#110,(#114),.PCURVE_S1.);
#110 = LINE('',#111,#112);
#111 = CARTESIAN_POINT('',(0.,12.2947058625,0.));
#112 = VECTOR('',#113,1.);
#113 = DIRECTION('',(0.,-1.,0.));
#114 = PCURVE('',#40,#115);
#115 = DEFINITIONAL_REPRESENTATION('',(#116),#120);
#116 = LINE('',#117,#118);
#117 = CARTESIAN_POINT('',(-76.59290891809,4.7947058625));
#118 = VECTOR('',#119,1.);
#119 = DIRECTION('',(0.,-1.));
#120 = ( GEOMETRIC_REPRESENTATION_CONTEXT(2) 
PARAMETRIC_REPRESENTATION_CONTEXT() REPRESENTATION_CONTEXT('2D SPACE',''
  ) );
#121 = ( GEOMETRIC_REPRESENTATION_CONTEXT(3) 
GLOBAL_UNCERTAINTY_ASSIGNED_CONTEXT((#125)) GLOBAL_UNIT_ASSIGNED_CONTEXT
((#122,#123,#124)) REPRESENTATION_CONTEXT('Context #1',
  '3D Context with UNIT and UNCERTAINTY') );
#122 = ( LENGTH_UNIT() NAMED_UNIT(*) SI_UNIT(.MILLI.,.METRE.) );
#123 = ( NAMED_UNIT(*) PLANE_ANGLE_UNIT() SI_UNIT($,.RADIAN.) );
#124 = ( NAMED_UNIT(*) SI_UNIT($,.STERADIAN.) SOLID_ANGLE_UNIT() );
#125 = UNCERTAINTY_MEASURE_WITH_UNIT(LENGTH_MEASURE(1.E-07),#122,
  'distance_accuracy_value','confusion accuracy');
#126 = PRODUCT_RELATED_PRODUCT_CATEGORY('part',$,(#7));
ENDSEC;
END-ISO-10303-21;
