ISO-10303-21;
HEADER;
FILE_DESCRIPTION(('Open CASCADE Model'),'2;1');
FILE_NAME('Open CASCADE Shape Model','2026-06-04T12:09:59',('Author'),(
    'Open CASCADE'),'Open CASCADE STEP processor 7.9','Open CASCADE 7.9'
  ,'Unknown');
FILE_SCHEMA(('AUTOMOTIVE_DESIGN { 1 0 10303 214 1 1 1 1 }'));
ENDSEC;
DATA;
#1 = APPLICATION_PROTOCOL_DEFINITION('international standard',
  'automotive_design',2000,#2);
#2 = APPLICATION_CONTEXT(
  'core data for automotive mechanical design processes');
#3 = SHAPE_DEFINITION_REPRESENTATION(#4,#10);
#4 = PRODUCT_DEFINITION_SHAPE('','',#5);
#5 = PRODUCT_DEFINITION('design','',#6,#9);
#6 = PRODUCT_DEFINITION_FORMATION('','',#7);
#7 = PRODUCT('Open CASCADE STEP translator 7.9 25',
  'Open CASCADE STEP translator 7.9 25','',(#8));
#8 = PRODUCT_CONTEXT('',#2,'mechanical');
#9 = PRODUCT_DEFINITION_CONTEXT('part definition',#2,'design');
#10 = MANIFOLD_SURFACE_SHAPE_REPRESENTATION('',(#11,#15),#121);
#11 = AXIS2_PLACEMENT_3D('',#12,#13,#14);
#12 = CARTESIAN_POINT('',(0.,0.,0.));
#13 = DIRECTION('',(0.,0.,1.));
#14 = DIRECTION('',(1.,0.,-0.));
#15 = SHELL_BASED_SURFACE_MODEL('',(#16));
#16 = OPEN_SHELL('',(#17));
#17 = ADVANCED_FACE('',(#18),#40,.T.);
#18 = FACE_BOUND('',#19,.T.);
#19 = EDGE_LOOP('',(#20,#59,#75,#107));
#20 = ORIENTED_EDGE('',*,*,#21,.T.);
#21 = EDGE_CURVE('',#22,#24,#26,.T.);
#22 = VERTEX_POINT('',#23);
#23 = CARTESIAN_POINT('',(0.,-2.139288141447,0.));
#24 = VERTEX_POINT('',#25);
#25 = CARTESIAN_POINT('',(150.,-1.125990294997,0.));
#26 = SURFACE_CURVE('',#27,(#39),.PCURVE_S1.);
#27 = B_SPLINE_CURVE_WITH_KNOTS('',1,(#28,#29,#30,#31,#32,#33,#34,#35,
    #36,#37,#38),.UNSPECIFIED.,.F.,.F.,(2,1,1,1,1,1,1,1,1,1,2),(0.,
    2.878456314539E-02,0.231591596048,0.266866718696,0.313308686713,
    0.440349373677,0.507738277731,0.599065745841,0.692410102584,
    0.721025228369,1.),.UNSPECIFIED.);
#28 = CARTESIAN_POINT('',(0.,-2.139288141447,0.));
#29 = CARTESIAN_POINT('',(3.355633125461,0.766430560851,0.));
#30 = CARTESIAN_POINT('',(34.602923134604,2.078322605636,0.));
#31 = CARTESIAN_POINT('',(39.334795649222,-0.60504244767,0.));
#32 = CARTESIAN_POINT('',(45.888925290885,2.281964664811,0.));
#33 = CARTESIAN_POINT('',(65.42449507763,0.81048383353,0.));
#34 = CARTESIAN_POINT('',(75.187334468962,-2.750575085406,0.));
#35 = CARTESIAN_POINT('',(89.269165278658,-2.972786835502,0.));
#36 = CARTESIAN_POINT('',(103.60125206505,-1.632629348128,0.));
#37 = CARTESIAN_POINT('',(107.038791413,1.134230940475,0.));
#38 = CARTESIAN_POINT('',(150.,-1.125990294997,0.));
#39 = PCURVE('',#40,#45);
#40 = PLANE('',#41);
#41 = AXIS2_PLACEMENT_3D('',#42,#43,#44);
#42 = CARTESIAN_POINT('',(73.994110318094,7.5,0.));
#43 = DIRECTION('',(0.,0.,1.));
#44 = DIRECTION('',(1.,0.,-0.));
#45 = DEFINITIONAL_REPRESENTATION('',(#46),#58);
#46 = B_SPLINE_CURVE_WITH_KNOTS('',1,(#47,#48,#49,#50,#51,#52,#53,#54,
    #55,#56,#57),.UNSPECIFIED.,.F.,.F.,(2,1,1,1,1,1,1,1,1,1,2),(0.,
    2.878456314539E-02,0.231591596048,0.266866718696,0.313308686713,
    0.440349373677,0.507738277731,0.599065745841,0.692410102584,
    0.721025228369,1.),.UNSPECIFIED.);
#47 = CARTESIAN_POINT('',(-73.99411031809,-9.639288141447));
#48 = CARTESIAN_POINT('',(-70.63847719263,-6.733569439149));
#49 = CARTESIAN_POINT('',(-39.39118718349,-5.421677394364));
#50 = CARTESIAN_POINT('',(-34.65931466887,-8.10504244767));
#51 = CARTESIAN_POINT('',(-28.1051850272,-5.218035335189));
#52 = CARTESIAN_POINT('',(-8.569615240465,-6.68951616647));
#53 = CARTESIAN_POINT('',(1.193224150868,-10.2505750854));
#54 = CARTESIAN_POINT('',(15.275054960564,-10.4727868355));
#55 = CARTESIAN_POINT('',(29.607141746959,-9.132629348128));
#56 = CARTESIAN_POINT('',(33.044681094912,-6.365769059525));
#57 = CARTESIAN_POINT('',(76.005889681906,-8.625990294997));
#58 = ( GEOMETRIC_REPRESENTATION_CONTEXT(2) 
PARAMETRIC_REPRESENTATION_CONTEXT() REPRESENTATION_CONTEXT('2D SPACE',''
  ) );
#59 = ORIENTED_EDGE('',*,*,#60,.T.);
#60 = EDGE_CURVE('',#24,#61,#63,.T.);
#61 = VERTEX_POINT('',#62);
#62 = CARTESIAN_POINT('',(150.,16.125990294997,0.));
#63 = SURFACE_CURVE('',#64,(#68),.PCURVE_S1.);
#64 = LINE('',#65,#66);
#65 = CARTESIAN_POINT('',(150.,-1.125990294997,0.));
#66 = VECTOR('',#67,1.);
#67 = DIRECTION('',(0.,1.,0.));
#68 = PCURVE('',#40,#69);
#69 = DEFINITIONAL_REPRESENTATION('',(#70),#74);
#70 = LINE('',#71,#72);
#71 = CARTESIAN_POINT('',(76.005889681906,-8.625990294997));
#72 = VECTOR('',#73,1.);
#73 = DIRECTION('',(0.,1.));
#74 = ( GEOMETRIC_REPRESENTATION_CONTEXT(2) 
PARAMETRIC_REPRESENTATION_CONTEXT() REPRESENTATION_CONTEXT('2D SPACE',''
  ) );
#75 = ORIENTED_EDGE('',*,*,#76,.T.);
#76 = EDGE_CURVE('',#61,#77,#79,.T.);
#77 = VERTEX_POINT('',#78);
#78 = CARTESIAN_POINT('',(0.,17.139288141447,0.));
#79 = SURFACE_CURVE('',#80,(#92),.PCURVE_S1.);
#80 = B_SPLINE_CURVE_WITH_KNOTS('',1,(#81,#82,#83,#84,#85,#86,#87,#88,
    #89,#90,#91),.UNSPECIFIED.,.F.,.F.,(2,1,1,1,1,1,1,1,1,1,2),(0.,
    0.278974771631,0.307589897416,0.400934254159,0.492261722269,
    0.559650626323,0.686691313287,0.733133281304,0.768408403952,
    0.971215436855,1.),.UNSPECIFIED.);
#81 = CARTESIAN_POINT('',(150.,16.125990294997,0.));
#82 = CARTESIAN_POINT('',(107.038791413,13.865769059525,0.));
#83 = CARTESIAN_POINT('',(103.60125206505,16.632629348128,0.));
#84 = CARTESIAN_POINT('',(89.269165278658,17.972786835502,0.));
#85 = CARTESIAN_POINT('',(75.187334468962,17.750575085406,0.));
#86 = CARTESIAN_POINT('',(65.42449507763,14.18951616647,0.));
#87 = CARTESIAN_POINT('',(45.888925290885,12.718035335189,0.));
#88 = CARTESIAN_POINT('',(39.334795649222,15.60504244767,0.));
#89 = CARTESIAN_POINT('',(34.602923134604,12.921677394364,0.));
#90 = CARTESIAN_POINT('',(3.355633125461,14.233569439149,0.));
#91 = CARTESIAN_POINT('',(0.,17.139288141447,0.));
#92 = PCURVE('',#40,#93);
#93 = DEFINITIONAL_REPRESENTATION('',(#94),#106);
#94 = B_SPLINE_CURVE_WITH_KNOTS('',1,(#95,#96,#97,#98,#99,#100,#101,#102
    ,#103,#104,#105),.UNSPECIFIED.,.F.,.F.,(2,1,1,1,1,1,1,1,1,1,2),(0.,
    0.278974771631,0.307589897416,0.400934254159,0.492261722269,
    0.559650626323,0.686691313287,0.733133281304,0.768408403952,
    0.971215436855,1.),.UNSPECIFIED.);
#95 = CARTESIAN_POINT('',(76.005889681906,8.625990294997));
#96 = CARTESIAN_POINT('',(33.044681094912,6.365769059525));
#97 = CARTESIAN_POINT('',(29.607141746959,9.132629348128));
#98 = CARTESIAN_POINT('',(15.275054960564,10.472786835502));
#99 = CARTESIAN_POINT('',(1.193224150868,10.250575085406));
#100 = CARTESIAN_POINT('',(-8.569615240465,6.68951616647));
#101 = CARTESIAN_POINT('',(-28.1051850272,5.218035335189));
#102 = CARTESIAN_POINT('',(-34.65931466887,8.10504244767));
#103 = CARTESIAN_POINT('',(-39.39118718349,5.421677394364));
#104 = CARTESIAN_POINT('',(-70.63847719263,6.733569439149));
#105 = CARTESIAN_POINT('',(-73.99411031809,9.639288141447));
#106 = ( GEOMETRIC_REPRESENTATION_CONTEXT(2) 
PARAMETRIC_REPRESENTATION_CONTEXT() REPRESENTATION_CONTEXT('2D SPACE',''
  ) );
#107 = ORIENTED_EDGE('',*,*,#108,.T.);
#108 = EDGE_CURVE('',#77,#22,#109,.T.);
#109 = SURFACE_CURVE('',#110,(#114),.PCURVE_S1.);
#110 = LINE('',#111,#112);
#111 = CARTESIAN_POINT('',(0.,17.139288141447,0.));
#112 = VECTOR('',#113,1.);
#113 = DIRECTION('',(0.,-1.,0.));
#114 = PCURVE('',#40,#115);
#115 = DEFINITIONAL_REPRESENTATION('',(#116),#120);
#116 = LINE('',#117,#118);
#117 = CARTESIAN_POINT('',(-73.99411031809,9.639288141447));
#118 = VECTOR('',#119,1.);
#119 = DIRECTION('',(0.,-1.));
#120 = ( GEOMETRIC_REPRESENTATION_CONTEXT(2) 
PARAMETRIC_REPRESENTATION_CONTEXT() REPRESENTATION_CONTEXT('2D SPACE',''
  ) );
#121 = ( GEOMETRIC_REPRESENTATION_CONTEXT(3) 
GLOBAL_UNCERTAINTY_ASSIGNED_CONTEXT((#125)) GLOBAL_UNIT_ASSIGNED_CONTEXT
((#122,#123,#124)) REPRESENTATION_CONTEXT('Context #1',
  '3D Context with UNIT and UNCERTAINTY') );
#122 = ( LENGTH_UNIT() NAMED_UNIT(*) SI_UNIT(.MILLI.,.METRE.) );
#123 = ( NAMED_UNIT(*) PLANE_ANGLE_UNIT() SI_UNIT($,.RADIAN.) );
#124 = ( NAMED_UNIT(*) SI_UNIT($,.STERADIAN.) SOLID_ANGLE_UNIT() );
#125 = UNCERTAINTY_MEASURE_WITH_UNIT(LENGTH_MEASURE(1.E-07),#122,
  'distance_accuracy_value','confusion accuracy');
#126 = PRODUCT_RELATED_PRODUCT_CATEGORY('part',$,(#7));
ENDSEC;
END-ISO-10303-21;
