ISO-10303-21;
HEADER;
FILE_DESCRIPTION(('Open CASCADE Model'),'2;1');
FILE_NAME('Open CASCADE Shape Model','2026-06-04T12:09:59',('Author'),(
    'Open CASCADE'),'Open CASCADE STEP processor 7.9','Open CASCADE 7.9'
  ,'Unknown');
FILE_SCHEMA(('AUTOMOTIVE_DESIGN { 1 0 10303 214 1 1 1 1 }'));
ENDSEC;
DATA;
#1 = APPLICATION_PROTOCOL_DEFINITION('international standard',
  'automotive_design',2000,#2);
#2 = APPLICATION_CONTEXT(
  'core data for automotive mechanical design processes');
#3 = SHAPE_DEFINITION_REPRESENTATION(#4,#10);
#4 = PRODUCT_DEFINITION_SHAPE('','',#5);
#5 = PRODUCT_DEFINITION('design','',#6,#9);
#6 = PRODUCT_DEFINITION_FORMATION('','',#7);
#7 = PRODUCT('Open CASCADE STEP translator 7.9 34',
  'Open CASCADE STEP translator 7.9 34','',(#8));
#8 = PRODUCT_CONTEXT('',#2,'mechanical');
#9 = PRODUCT_DEFINITION_CONTEXT('part definition',#2,'design');
#10 = MANIFOLD_SURFACE_SHAPE_REPRESENTATION('',(#11,#15),#121);
#11 = AXIS2_PLACEMENT_3D('',#12,#13,#14);
#12 = CARTESIAN_POINT('',(0.,0.,0.));
#13 = DIRECTION('',(0.,0.,1.));
#14 = DIRECTION('',(1.,0.,-0.));
#15 = SHELL_BASED_SURFACE_MODEL('',(#16));
#16 = OPEN_SHELL('',(#17));
#17 = ADVANCED_FACE('',(#18),#40,.T.);
#18 = FACE_BOUND('',#19,.T.);
#19 = EDGE_LOOP('',(#20,#59,#75,#107));
#20 = ORIENTED_EDGE('',*,*,#21,.T.);
#21 = EDGE_CURVE('',#22,#24,#26,.T.);
#22 = VERTEX_POINT('',#23);
#23 = CARTESIAN_POINT('',(0.,-7.639238580067E-02,0.));
#24 = VERTEX_POINT('',#25);
#25 = CARTESIAN_POINT('',(150.,1.124580305828,0.));
#26 = SURFACE_CURVE('',#27,(#39),.PCURVE_S1.);
#27 = B_SPLINE_CURVE_WITH_KNOTS('',1,(#28,#29,#30,#31,#32,#33,#34,#35,
    #36,#37,#38),.UNSPECIFIED.,.F.,.F.,(2,1,1,1,1,1,1,1,1,1,2),(0.,
    2.766898059969E-02,0.107737850263,0.173046572834,0.424682032623,
    0.597678286278,0.650115121923,0.698811479969,0.728075900288,
    0.821781823516,1.),.UNSPECIFIED.);
#28 = CARTESIAN_POINT('',(0.,-7.639238580067E-02,0.));
#29 = CARTESIAN_POINT('',(4.210349560637,0.402165042793,0.));
#30 = CARTESIAN_POINT('',(16.239033209575,2.784943491491,0.));
#31 = CARTESIAN_POINT('',(24.564121320883,-2.758647133975,0.));
#32 = CARTESIAN_POINT('',(62.757280925069,2.381983895219,0.));
#33 = CARTESIAN_POINT('',(89.248769523035,2.753525440171,0.));
#34 = CARTESIAN_POINT('',(97.184642144964,1.52360033097,0.));
#35 = CARTESIAN_POINT('',(104.5633236455,2.60681739649,0.));
#36 = CARTESIAN_POINT('',(108.38726070323,0.269292945529,0.));
#37 = CARTESIAN_POINT('',(122.73350658213,-9.652680754267E-02,0.));
#38 = CARTESIAN_POINT('',(150.,1.124580305828,0.));
#39 = PCURVE('',#40,#45);
#40 = PLANE('',#41);
#41 = AXIS2_PLACEMENT_3D('',#42,#43,#44);
#42 = CARTESIAN_POINT('',(73.903725435893,7.5,0.));
#43 = DIRECTION('',(0.,0.,1.));
#44 = DIRECTION('',(1.,0.,-0.));
#45 = DEFINITIONAL_REPRESENTATION('',(#46),#58);
#46 = B_SPLINE_CURVE_WITH_KNOTS('',1,(#47,#48,#49,#50,#51,#52,#53,#54,
    #55,#56,#57),.UNSPECIFIED.,.F.,.F.,(2,1,1,1,1,1,1,1,1,1,2),(0.,
    2.766898059969E-02,0.107737850263,0.173046572834,0.424682032623,
    0.597678286278,0.650115121923,0.698811479969,0.728075900288,
    0.821781823516,1.),.UNSPECIFIED.);
#47 = CARTESIAN_POINT('',(-73.90372543589,-7.576392385801));
#48 = CARTESIAN_POINT('',(-69.69337587525,-7.097834957207));
#49 = CARTESIAN_POINT('',(-57.66469222631,-4.715056508509));
#50 = CARTESIAN_POINT('',(-49.33960411501,-10.25864713397));
#51 = CARTESIAN_POINT('',(-11.14644451082,-5.118016104781));
#52 = CARTESIAN_POINT('',(15.345044087141,-4.746474559829));
#53 = CARTESIAN_POINT('',(23.280916709071,-5.97639966903));
#54 = CARTESIAN_POINT('',(30.659598209613,-4.89318260351));
#55 = CARTESIAN_POINT('',(34.483535267341,-7.230707054471));
#56 = CARTESIAN_POINT('',(48.829781146241,-7.596526807543));
#57 = CARTESIAN_POINT('',(76.096274564107,-6.375419694172));
#58 = ( GEOMETRIC_REPRESENTATION_CONTEXT(2) 
PARAMETRIC_REPRESENTATION_CONTEXT() REPRESENTATION_CONTEXT('2D SPACE',''
  ) );
#59 = ORIENTED_EDGE('',*,*,#60,.T.);
#60 = EDGE_CURVE('',#24,#61,#63,.T.);
#61 = VERTEX_POINT('',#62);
#62 = CARTESIAN_POINT('',(150.,13.875419694172,0.));
#63 = SURFACE_CURVE('',#64,(#68),.PCURVE_S1.);
#64 = LINE('',#65,#66);
#65 = CARTESIAN_POINT('',(150.,1.124580305828,0.));
#66 = VECTOR('',#67,1.);
#67 = DIRECTION('',(0.,1.,0.));
#68 = PCURVE('',#40,#69);
#69 = DEFINITIONAL_REPRESENTATION('',(#70),#74);
#70 = LINE('',#71,#72);
#71 = CARTESIAN_POINT('',(76.096274564107,-6.375419694172));
#72 = VECTOR('',#73,1.);
#73 = DIRECTION('',(0.,1.));
#74 = ( GEOMETRIC_REPRESENTATION_CONTEXT(2) 
PARAMETRIC_REPRESENTATION_CONTEXT() REPRESENTATION_CONTEXT('2D SPACE',''
  ) );
#75 = ORIENTED_EDGE('',*,*,#76,.T.);
#76 = EDGE_CURVE('',#61,#77,#79,.T.);
#77 = VERTEX_POINT('',#78);
#78 = CARTESIAN_POINT('',(0.,15.076392385801,0.));
#79 = SURFACE_CURVE('',#80,(#92),.PCURVE_S1.);
#80 = B_SPLINE_CURVE_WITH_KNOTS('',1,(#81,#82,#83,#84,#85,#86,#87,#88,
    #89,#90,#91),.UNSPECIFIED.,.F.,.F.,(2,1,1,1,1,1,1,1,1,1,2),(0.,
    0.178218176484,0.271924099712,0.301188520031,0.349884878077,
    0.402321713722,0.575317967377,0.826953427166,0.892262149737,
    0.9723310194,1.),.UNSPECIFIED.);
#81 = CARTESIAN_POINT('',(150.,13.875419694172,0.));
#82 = CARTESIAN_POINT('',(122.73350658213,15.096526807543,0.));
#83 = CARTESIAN_POINT('',(108.38726070323,14.730707054471,0.));
#84 = CARTESIAN_POINT('',(104.5633236455,12.39318260351,0.));
#85 = CARTESIAN_POINT('',(97.184642144964,13.47639966903,0.));
#86 = CARTESIAN_POINT('',(89.248769523035,12.246474559829,0.));
#87 = CARTESIAN_POINT('',(62.757280925069,12.618016104781,0.));
#88 = CARTESIAN_POINT('',(24.564121320883,17.758647133975,0.));
#89 = CARTESIAN_POINT('',(16.239033209575,12.215056508509,0.));
#90 = CARTESIAN_POINT('',(4.210349560637,14.597834957207,0.));
#91 = CARTESIAN_POINT('',(0.,15.076392385801,0.));
#92 = PCURVE('',#40,#93);
#93 = DEFINITIONAL_REPRESENTATION('',(#94),#106);
#94 = B_SPLINE_CURVE_WITH_KNOTS('',1,(#95,#96,#97,#98,#99,#100,#101,#102
    ,#103,#104,#105),.UNSPECIFIED.,.F.,.F.,(2,1,1,1,1,1,1,1,1,1,2),(0.,
    0.178218176484,0.271924099712,0.301188520031,0.349884878077,
    0.402321713722,0.575317967377,0.826953427166,0.892262149737,
    0.9723310194,1.),.UNSPECIFIED.);
#95 = CARTESIAN_POINT('',(76.096274564107,6.375419694172));
#96 = CARTESIAN_POINT('',(48.829781146241,7.596526807543));
#97 = CARTESIAN_POINT('',(34.483535267341,7.230707054471));
#98 = CARTESIAN_POINT('',(30.659598209613,4.89318260351));
#99 = CARTESIAN_POINT('',(23.280916709071,5.97639966903));
#100 = CARTESIAN_POINT('',(15.345044087141,4.746474559829));
#101 = CARTESIAN_POINT('',(-11.14644451082,5.118016104781));
#102 = CARTESIAN_POINT('',(-49.33960411501,10.258647133975));
#103 = CARTESIAN_POINT('',(-57.66469222631,4.715056508509));
#104 = CARTESIAN_POINT('',(-69.69337587525,7.097834957207));
#105 = CARTESIAN_POINT('',(-73.90372543589,7.576392385801));
#106 = ( GEOMETRIC_REPRESENTATION_CONTEXT(2) 
PARAMETRIC_REPRESENTATION_CONTEXT() REPRESENTATION_CONTEXT('2D SPACE',''
  ) );
#107 = ORIENTED_EDGE('',*,*,#108,.T.);
#108 = EDGE_CURVE('',#77,#22,#109,.T.);
#109 = SURFACE_CURVE('',#110,(#114),.PCURVE_S1.);
#110 = LINE('',#111,#112);
#111 = CARTESIAN_POINT('',(0.,15.076392385801,0.));
#112 = VECTOR('',#113,1.);
#113 = DIRECTION('',(0.,-1.,0.));
#114 = PCURVE('',#40,#115);
#115 = DEFINITIONAL_REPRESENTATION('',(#116),#120);
#116 = LINE('',#117,#118);
#117 = CARTESIAN_POINT('',(-73.90372543589,7.576392385801));
#118 = VECTOR('',#119,1.);
#119 = DIRECTION('',(0.,-1.));
#120 = ( GEOMETRIC_REPRESENTATION_CONTEXT(2) 
PARAMETRIC_REPRESENTATION_CONTEXT() REPRESENTATION_CONTEXT('2D SPACE',''
  ) );
#121 = ( GEOMETRIC_REPRESENTATION_CONTEXT(3) 
GLOBAL_UNCERTAINTY_ASSIGNED_CONTEXT((#125)) GLOBAL_UNIT_ASSIGNED_CONTEXT
((#122,#123,#124)) REPRESENTATION_CONTEXT('Context #1',
  '3D Context with UNIT and UNCERTAINTY') );
#122 = ( LENGTH_UNIT() NAMED_UNIT(*) SI_UNIT(.MILLI.,.METRE.) );
#123 = ( NAMED_UNIT(*) PLANE_ANGLE_UNIT() SI_UNIT($,.RADIAN.) );
#124 = ( NAMED_UNIT(*) SI_UNIT($,.STERADIAN.) SOLID_ANGLE_UNIT() );
#125 = UNCERTAINTY_MEASURE_WITH_UNIT(LENGTH_MEASURE(1.E-07),#122,
  'distance_accuracy_value','confusion accuracy');
#126 = PRODUCT_RELATED_PRODUCT_CATEGORY('part',$,(#7));
ENDSEC;
END-ISO-10303-21;
