ISO-10303-21;
HEADER;
FILE_DESCRIPTION(('Open CASCADE Model'),'2;1');
FILE_NAME('Open CASCADE Shape Model','2026-06-04T12:09:59',('Author'),(
    'Open CASCADE'),'Open CASCADE STEP processor 7.9','Open CASCADE 7.9'
  ,'Unknown');
FILE_SCHEMA(('AUTOMOTIVE_DESIGN { 1 0 10303 214 1 1 1 1 }'));
ENDSEC;
DATA;
#1 = APPLICATION_PROTOCOL_DEFINITION('international standard',
  'automotive_design',2000,#2);
#2 = APPLICATION_CONTEXT(
  'core data for automotive mechanical design processes');
#3 = SHAPE_DEFINITION_REPRESENTATION(#4,#10);
#4 = PRODUCT_DEFINITION_SHAPE('','',#5);
#5 = PRODUCT_DEFINITION('design','',#6,#9);
#6 = PRODUCT_DEFINITION_FORMATION('','',#7);
#7 = PRODUCT('Open CASCADE STEP translator 7.9 19',
  'Open CASCADE STEP translator 7.9 19','',(#8));
#8 = PRODUCT_CONTEXT('',#2,'mechanical');
#9 = PRODUCT_DEFINITION_CONTEXT('part definition',#2,'design');
#10 = MANIFOLD_SURFACE_SHAPE_REPRESENTATION('',(#11,#15),#121);
#11 = AXIS2_PLACEMENT_3D('',#12,#13,#14);
#12 = CARTESIAN_POINT('',(0.,0.,0.));
#13 = DIRECTION('',(0.,0.,1.));
#14 = DIRECTION('',(1.,0.,-0.));
#15 = SHELL_BASED_SURFACE_MODEL('',(#16));
#16 = OPEN_SHELL('',(#17));
#17 = ADVANCED_FACE('',(#18),#40,.T.);
#18 = FACE_BOUND('',#19,.T.);
#19 = EDGE_LOOP('',(#20,#59,#75,#107));
#20 = ORIENTED_EDGE('',*,*,#21,.T.);
#21 = EDGE_CURVE('',#22,#24,#26,.T.);
#22 = VERTEX_POINT('',#23);
#23 = CARTESIAN_POINT('',(0.,-0.822443303947,0.));
#24 = VERTEX_POINT('',#25);
#25 = CARTESIAN_POINT('',(150.,1.188435651345,0.));
#26 = SURFACE_CURVE('',#27,(#39),.PCURVE_S1.);
#27 = B_SPLINE_CURVE_WITH_KNOTS('',1,(#28,#29,#30,#31,#32,#33,#34,#35,
    #36,#37,#38),.UNSPECIFIED.,.F.,.F.,(2,1,1,1,1,1,1,1,1,1,2),(0.,
    0.105665866476,0.39774420791,0.552960015918,0.609599942678,
    0.673097148899,0.762456560125,0.832251827602,0.872692145858,
    0.912442615943,1.),.UNSPECIFIED.);
#28 = CARTESIAN_POINT('',(0.,-0.822443303947,0.));
#29 = CARTESIAN_POINT('',(15.819496451811,2.268469929989,0.));
#30 = CARTESIAN_POINT('',(60.286172309582,-0.529547999815,0.));
#31 = CARTESIAN_POINT('',(83.956039404515,-1.116578190633,0.));
#32 = CARTESIAN_POINT('',(91.591907147045,2.926183884668,0.));
#33 = CARTESIAN_POINT('',(100.90783633871,0.27409222895,0.));
#34 = CARTESIAN_POINT('',(114.35595947526,-1.952397067178,0.));
#35 = CARTESIAN_POINT('',(124.51669500196,1.227845847935,0.));
#36 = CARTESIAN_POINT('',(130.60739796507,0.248711509209,0.));
#37 = CARTESIAN_POINT('',(136.67028701043,0.346115237593,0.));
#38 = CARTESIAN_POINT('',(150.,1.188435651345,0.));
#39 = PCURVE('',#40,#45);
#40 = PLANE('',#41);
#41 = AXIS2_PLACEMENT_3D('',#42,#43,#44);
#42 = CARTESIAN_POINT('',(74.282701753753,7.5,0.));
#43 = DIRECTION('',(0.,0.,1.));
#44 = DIRECTION('',(1.,0.,-0.));
#45 = DEFINITIONAL_REPRESENTATION('',(#46),#58);
#46 = B_SPLINE_CURVE_WITH_KNOTS('',1,(#47,#48,#49,#50,#51,#52,#53,#54,
    #55,#56,#57),.UNSPECIFIED.,.F.,.F.,(2,1,1,1,1,1,1,1,1,1,2),(0.,
    0.105665866476,0.39774420791,0.552960015918,0.609599942678,
    0.673097148899,0.762456560125,0.832251827602,0.872692145858,
    0.912442615943,1.),.UNSPECIFIED.);
#47 = CARTESIAN_POINT('',(-74.28270175375,-8.322443303947));
#48 = CARTESIAN_POINT('',(-58.46320530194,-5.231530070011));
#49 = CARTESIAN_POINT('',(-13.99652944417,-8.029547999815));
#50 = CARTESIAN_POINT('',(9.673337650762,-8.616578190633));
#51 = CARTESIAN_POINT('',(17.309205393292,-4.573816115332));
#52 = CARTESIAN_POINT('',(26.625134584959,-7.22590777105));
#53 = CARTESIAN_POINT('',(40.073257721513,-9.452397067178));
#54 = CARTESIAN_POINT('',(50.233993248211,-6.272154152065));
#55 = CARTESIAN_POINT('',(56.324696211321,-7.251288490791));
#56 = CARTESIAN_POINT('',(62.387585256682,-7.153884762407));
#57 = CARTESIAN_POINT('',(75.717298246247,-6.311564348655));
#58 = ( GEOMETRIC_REPRESENTATION_CONTEXT(2) 
PARAMETRIC_REPRESENTATION_CONTEXT() REPRESENTATION_CONTEXT('2D SPACE',''
  ) );
#59 = ORIENTED_EDGE('',*,*,#60,.T.);
#60 = EDGE_CURVE('',#24,#61,#63,.T.);
#61 = VERTEX_POINT('',#62);
#62 = CARTESIAN_POINT('',(150.,13.811564348655,0.));
#63 = SURFACE_CURVE('',#64,(#68),.PCURVE_S1.);
#64 = LINE('',#65,#66);
#65 = CARTESIAN_POINT('',(150.,1.188435651345,0.));
#66 = VECTOR('',#67,1.);
#67 = DIRECTION('',(0.,1.,0.));
#68 = PCURVE('',#40,#69);
#69 = DEFINITIONAL_REPRESENTATION('',(#70),#74);
#70 = LINE('',#71,#72);
#71 = CARTESIAN_POINT('',(75.717298246247,-6.311564348655));
#72 = VECTOR('',#73,1.);
#73 = DIRECTION('',(0.,1.));
#74 = ( GEOMETRIC_REPRESENTATION_CONTEXT(2) 
PARAMETRIC_REPRESENTATION_CONTEXT() REPRESENTATION_CONTEXT('2D SPACE',''
  ) );
#75 = ORIENTED_EDGE('',*,*,#76,.T.);
#76 = EDGE_CURVE('',#61,#77,#79,.T.);
#77 = VERTEX_POINT('',#78);
#78 = CARTESIAN_POINT('',(0.,15.822443303947,0.));
#79 = SURFACE_CURVE('',#80,(#92),.PCURVE_S1.);
#80 = B_SPLINE_CURVE_WITH_KNOTS('',1,(#81,#82,#83,#84,#85,#86,#87,#88,
    #89,#90,#91),.UNSPECIFIED.,.F.,.F.,(2,1,1,1,1,1,1,1,1,1,2),(0.,
    8.755738405741E-02,0.127307854142,0.167748172398,0.237543439875,
    0.326902851101,0.390400057322,0.447039984082,0.60225579209,
    0.894334133524,1.),.UNSPECIFIED.);
#81 = CARTESIAN_POINT('',(150.,13.811564348655,0.));
#82 = CARTESIAN_POINT('',(136.67028701043,14.653884762407,0.));
#83 = CARTESIAN_POINT('',(130.60739796507,14.751288490791,0.));
#84 = CARTESIAN_POINT('',(124.51669500196,13.772154152065,0.));
#85 = CARTESIAN_POINT('',(114.35595947526,16.952397067178,0.));
#86 = CARTESIAN_POINT('',(100.90783633871,14.72590777105,0.));
#87 = CARTESIAN_POINT('',(91.591907147045,12.073816115332,0.));
#88 = CARTESIAN_POINT('',(83.956039404515,16.116578190633,0.));
#89 = CARTESIAN_POINT('',(60.286172309582,15.529547999815,0.));
#90 = CARTESIAN_POINT('',(15.819496451811,12.731530070011,0.));
#91 = CARTESIAN_POINT('',(0.,15.822443303947,0.));
#92 = PCURVE('',#40,#93);
#93 = DEFINITIONAL_REPRESENTATION('',(#94),#106);
#94 = B_SPLINE_CURVE_WITH_KNOTS('',1,(#95,#96,#97,#98,#99,#100,#101,#102
    ,#103,#104,#105),.UNSPECIFIED.,.F.,.F.,(2,1,1,1,1,1,1,1,1,1,2),(0.,
    8.755738405741E-02,0.127307854142,0.167748172398,0.237543439875,
    0.326902851101,0.390400057322,0.447039984082,0.60225579209,
    0.894334133524,1.),.UNSPECIFIED.);
#95 = CARTESIAN_POINT('',(75.717298246247,6.311564348655));
#96 = CARTESIAN_POINT('',(62.387585256682,7.153884762407));
#97 = CARTESIAN_POINT('',(56.324696211321,7.251288490791));
#98 = CARTESIAN_POINT('',(50.233993248211,6.272154152065));
#99 = CARTESIAN_POINT('',(40.073257721513,9.452397067178));
#100 = CARTESIAN_POINT('',(26.625134584959,7.22590777105));
#101 = CARTESIAN_POINT('',(17.309205393292,4.573816115332));
#102 = CARTESIAN_POINT('',(9.673337650762,8.616578190633));
#103 = CARTESIAN_POINT('',(-13.99652944417,8.029547999815));
#104 = CARTESIAN_POINT('',(-58.46320530194,5.231530070011));
#105 = CARTESIAN_POINT('',(-74.28270175375,8.322443303947));
#106 = ( GEOMETRIC_REPRESENTATION_CONTEXT(2) 
PARAMETRIC_REPRESENTATION_CONTEXT() REPRESENTATION_CONTEXT('2D SPACE',''
  ) );
#107 = ORIENTED_EDGE('',*,*,#108,.T.);
#108 = EDGE_CURVE('',#77,#22,#109,.T.);
#109 = SURFACE_CURVE('',#110,(#114),.PCURVE_S1.);
#110 = LINE('',#111,#112);
#111 = CARTESIAN_POINT('',(0.,15.822443303947,0.));
#112 = VECTOR('',#113,1.);
#113 = DIRECTION('',(0.,-1.,0.));
#114 = PCURVE('',#40,#115);
#115 = DEFINITIONAL_REPRESENTATION('',(#116),#120);
#116 = LINE('',#117,#118);
#117 = CARTESIAN_POINT('',(-74.28270175375,8.322443303947));
#118 = VECTOR('',#119,1.);
#119 = DIRECTION('',(0.,-1.));
#120 = ( GEOMETRIC_REPRESENTATION_CONTEXT(2) 
PARAMETRIC_REPRESENTATION_CONTEXT() REPRESENTATION_CONTEXT('2D SPACE',''
  ) );
#121 = ( GEOMETRIC_REPRESENTATION_CONTEXT(3) 
GLOBAL_UNCERTAINTY_ASSIGNED_CONTEXT((#125)) GLOBAL_UNIT_ASSIGNED_CONTEXT
((#122,#123,#124)) REPRESENTATION_CONTEXT('Context #1',
  '3D Context with UNIT and UNCERTAINTY') );
#122 = ( LENGTH_UNIT() NAMED_UNIT(*) SI_UNIT(.MILLI.,.METRE.) );
#123 = ( NAMED_UNIT(*) PLANE_ANGLE_UNIT() SI_UNIT($,.RADIAN.) );
#124 = ( NAMED_UNIT(*) SI_UNIT($,.STERADIAN.) SOLID_ANGLE_UNIT() );
#125 = UNCERTAINTY_MEASURE_WITH_UNIT(LENGTH_MEASURE(1.E-07),#122,
  'distance_accuracy_value','confusion accuracy');
#126 = PRODUCT_RELATED_PRODUCT_CATEGORY('part',$,(#7));
ENDSEC;
END-ISO-10303-21;
