ISO-10303-21;
HEADER;
FILE_DESCRIPTION(('Open CASCADE Model'),'2;1');
FILE_NAME('Open CASCADE Shape Model','2026-06-04T14:36:37',('Author'),(
    'Open CASCADE'),'Open CASCADE STEP processor 7.9','Open CASCADE 7.9'
  ,'Unknown');
FILE_SCHEMA(('AUTOMOTIVE_DESIGN { 1 0 10303 214 1 1 1 1 }'));
ENDSEC;
DATA;
#1 = APPLICATION_PROTOCOL_DEFINITION('international standard',
  'automotive_design',2000,#2);
#2 = APPLICATION_CONTEXT(
  'core data for automotive mechanical design processes');
#3 = SHAPE_DEFINITION_REPRESENTATION(#4,#10);
#4 = PRODUCT_DEFINITION_SHAPE('','',#5);
#5 = PRODUCT_DEFINITION('design','',#6,#9);
#6 = PRODUCT_DEFINITION_FORMATION('','',#7);
#7 = PRODUCT('Open CASCADE STEP translator 7.9 7',
  'Open CASCADE STEP translator 7.9 7','',(#8));
#8 = PRODUCT_CONTEXT('',#2,'mechanical');
#9 = PRODUCT_DEFINITION_CONTEXT('part definition',#2,'design');
#10 = MANIFOLD_SURFACE_SHAPE_REPRESENTATION('',(#11,#15),#121);
#11 = AXIS2_PLACEMENT_3D('',#12,#13,#14);
#12 = CARTESIAN_POINT('',(0.,0.,0.));
#13 = DIRECTION('',(0.,0.,1.));
#14 = DIRECTION('',(1.,0.,-0.));
#15 = SHELL_BASED_SURFACE_MODEL('',(#16));
#16 = OPEN_SHELL('',(#17));
#17 = ADVANCED_FACE('',(#18),#40,.T.);
#18 = FACE_BOUND('',#19,.T.);
#19 = EDGE_LOOP('',(#20,#59,#75,#107));
#20 = ORIENTED_EDGE('',*,*,#21,.T.);
#21 = EDGE_CURVE('',#22,#24,#26,.T.);
#22 = VERTEX_POINT('',#23);
#23 = CARTESIAN_POINT('',(0.,-4.585592132414E-03,0.));
#24 = VERTEX_POINT('',#25);
#25 = CARTESIAN_POINT('',(1.,1.684310026574E-03,0.));
#26 = SURFACE_CURVE('',#27,(#39),.PCURVE_S1.);
#27 = B_SPLINE_CURVE_WITH_KNOTS('',1,(#28,#29,#30,#31,#32,#33,#34,#35,
    #36,#37,#38),.UNSPECIFIED.,.F.,.F.,(2,1,1,1,1,1,1,1,1,1,2),(0.,
    9.693069966964E-02,0.140278940826,0.164887628982,0.400736767361,
    0.484590650511,0.622315654598,0.670325341906,0.822874856362,
    0.972657234275,1.),.UNSPECIFIED.);
#28 = CARTESIAN_POINT('',(0.,-4.585592132414E-03,0.));
#29 = CARTESIAN_POINT('',(9.695993536447E-02,1.76965630571E-04,0.));
#30 = CARTESIAN_POINT('',(0.140269449967,-2.827352272503E-03,0.));
#31 = CARTESIAN_POINT('',(0.163900237539,4.172700000776E-03,0.));
#32 = CARTESIAN_POINT('',(0.400070397543,1.334166916184E-04,0.));
#33 = CARTESIAN_POINT('',(0.484050687422,9.293005645479E-05,0.));
#34 = CARTESIAN_POINT('',(0.621910835366,-4.37826454975E-03,0.));
#35 = CARTESIAN_POINT('',(0.669853324306,-7.172805237608E-04,0.));
#36 = CARTESIAN_POINT('',(0.822629660999,2.651059894305E-04,0.));
#37 = CARTESIAN_POINT('',(0.972623632047,2.330243369081E-03,0.));
#38 = CARTESIAN_POINT('',(1.,1.684310026574E-03,0.));
#39 = PCURVE('',#40,#45);
#40 = PLANE('',#41);
#41 = AXIS2_PLACEMENT_3D('',#42,#43,#44);
#42 = CARTESIAN_POINT('',(0.496782213369,5.E-02,0.));
#43 = DIRECTION('',(0.,0.,1.));
#44 = DIRECTION('',(1.,0.,-0.));
#45 = DEFINITIONAL_REPRESENTATION('',(#46),#58);
#46 = B_SPLINE_CURVE_WITH_KNOTS('',1,(#47,#48,#49,#50,#51,#52,#53,#54,
    #55,#56,#57),.UNSPECIFIED.,.F.,.F.,(2,1,1,1,1,1,1,1,1,1,2),(0.,
    9.693069966964E-02,0.140278940826,0.164887628982,0.400736767361,
    0.484590650511,0.622315654598,0.670325341906,0.822874856362,
    0.972657234275,1.),.UNSPECIFIED.);
#47 = CARTESIAN_POINT('',(-0.496782213369,-5.458559213241E-02));
#48 = CARTESIAN_POINT('',(-0.399822278005,-4.982303436943E-02));
#49 = CARTESIAN_POINT('',(-0.356512763402,-5.28273522725E-02));
#50 = CARTESIAN_POINT('',(-0.33288197583,-4.582729999922E-02));
#51 = CARTESIAN_POINT('',(-9.671181582553E-02,-4.986658330838E-02));
#52 = CARTESIAN_POINT('',(-1.273152594677E-02,-4.990706994355E-02));
#53 = CARTESIAN_POINT('',(0.125128621997,-5.437826454975E-02));
#54 = CARTESIAN_POINT('',(0.173071110937,-5.071728052376E-02));
#55 = CARTESIAN_POINT('',(0.32584744763,-4.973489401057E-02));
#56 = CARTESIAN_POINT('',(0.475841418678,-4.766975663092E-02));
#57 = CARTESIAN_POINT('',(0.503217786631,-4.831568997343E-02));
#58 = ( GEOMETRIC_REPRESENTATION_CONTEXT(2) 
PARAMETRIC_REPRESENTATION_CONTEXT() REPRESENTATION_CONTEXT('2D SPACE',''
  ) );
#59 = ORIENTED_EDGE('',*,*,#60,.T.);
#60 = EDGE_CURVE('',#24,#61,#63,.T.);
#61 = VERTEX_POINT('',#62);
#62 = CARTESIAN_POINT('',(1.,9.831568997343E-02,0.));
#63 = SURFACE_CURVE('',#64,(#68),.PCURVE_S1.);
#64 = LINE('',#65,#66);
#65 = CARTESIAN_POINT('',(1.,1.684310026574E-03,0.));
#66 = VECTOR('',#67,1.);
#67 = DIRECTION('',(0.,1.,0.));
#68 = PCURVE('',#40,#69);
#69 = DEFINITIONAL_REPRESENTATION('',(#70),#74);
#70 = LINE('',#71,#72);
#71 = CARTESIAN_POINT('',(0.503217786631,-4.831568997343E-02));
#72 = VECTOR('',#73,1.);
#73 = DIRECTION('',(0.,1.));
#74 = ( GEOMETRIC_REPRESENTATION_CONTEXT(2) 
PARAMETRIC_REPRESENTATION_CONTEXT() REPRESENTATION_CONTEXT('2D SPACE',''
  ) );
#75 = ORIENTED_EDGE('',*,*,#76,.T.);
#76 = EDGE_CURVE('',#61,#77,#79,.T.);
#77 = VERTEX_POINT('',#78);
#78 = CARTESIAN_POINT('',(0.,0.104585592132,0.));
#79 = SURFACE_CURVE('',#80,(#92),.PCURVE_S1.);
#80 = B_SPLINE_CURVE_WITH_KNOTS('',1,(#81,#82,#83,#84,#85,#86,#87,#88,
    #89,#90,#91),.UNSPECIFIED.,.F.,.F.,(2,1,1,1,1,1,1,1,1,1,2),(0.,
    2.734276572548E-02,0.177125143638,0.329674658094,0.377684345402,
    0.515409349489,0.599263232639,0.835112371018,0.859721059174,
    0.90306930033,1.),.UNSPECIFIED.);
#81 = CARTESIAN_POINT('',(1.,9.831568997343E-02,0.));
#82 = CARTESIAN_POINT('',(0.972623632047,9.766975663092E-02,0.));
#83 = CARTESIAN_POINT('',(0.822629660999,9.973489401057E-02,0.));
#84 = CARTESIAN_POINT('',(0.669853324306,0.100717280524,0.));
#85 = CARTESIAN_POINT('',(0.621910835366,0.10437826455,0.));
#86 = CARTESIAN_POINT('',(0.484050687422,9.990706994355E-02,0.));
#87 = CARTESIAN_POINT('',(0.400070397543,9.986658330838E-02,0.));
#88 = CARTESIAN_POINT('',(0.163900237539,9.582729999922E-02,0.));
#89 = CARTESIAN_POINT('',(0.140269449967,0.102827352273,0.));
#90 = CARTESIAN_POINT('',(9.695993536447E-02,9.982303436943E-02,0.));
#91 = CARTESIAN_POINT('',(0.,0.104585592132,0.));
#92 = PCURVE('',#40,#93);
#93 = DEFINITIONAL_REPRESENTATION('',(#94),#106);
#94 = B_SPLINE_CURVE_WITH_KNOTS('',1,(#95,#96,#97,#98,#99,#100,#101,#102
    ,#103,#104,#105),.UNSPECIFIED.,.F.,.F.,(2,1,1,1,1,1,1,1,1,1,2),(0.,
    2.734276572548E-02,0.177125143638,0.329674658094,0.377684345402,
    0.515409349489,0.599263232639,0.835112371018,0.859721059174,
    0.90306930033,1.),.UNSPECIFIED.);
#95 = CARTESIAN_POINT('',(0.503217786631,4.831568997343E-02));
#96 = CARTESIAN_POINT('',(0.475841418678,4.766975663092E-02));
#97 = CARTESIAN_POINT('',(0.32584744763,4.973489401057E-02));
#98 = CARTESIAN_POINT('',(0.173071110937,5.071728052376E-02));
#99 = CARTESIAN_POINT('',(0.125128621997,5.437826454975E-02));
#100 = CARTESIAN_POINT('',(-1.273152594677E-02,4.990706994355E-02));
#101 = CARTESIAN_POINT('',(-9.671181582553E-02,4.986658330838E-02));
#102 = CARTESIAN_POINT('',(-0.33288197583,4.582729999922E-02));
#103 = CARTESIAN_POINT('',(-0.356512763402,5.28273522725E-02));
#104 = CARTESIAN_POINT('',(-0.399822278005,4.982303436943E-02));
#105 = CARTESIAN_POINT('',(-0.496782213369,5.458559213241E-02));
#106 = ( GEOMETRIC_REPRESENTATION_CONTEXT(2) 
PARAMETRIC_REPRESENTATION_CONTEXT() REPRESENTATION_CONTEXT('2D SPACE',''
  ) );
#107 = ORIENTED_EDGE('',*,*,#108,.T.);
#108 = EDGE_CURVE('',#77,#22,#109,.T.);
#109 = SURFACE_CURVE('',#110,(#114),.PCURVE_S1.);
#110 = LINE('',#111,#112);
#111 = CARTESIAN_POINT('',(0.,0.104585592132,0.));
#112 = VECTOR('',#113,1.);
#113 = DIRECTION('',(0.,-1.,0.));
#114 = PCURVE('',#40,#115);
#115 = DEFINITIONAL_REPRESENTATION('',(#116),#120);
#116 = LINE('',#117,#118);
#117 = CARTESIAN_POINT('',(-0.496782213369,5.458559213241E-02));
#118 = VECTOR('',#119,1.);
#119 = DIRECTION('',(0.,-1.));
#120 = ( GEOMETRIC_REPRESENTATION_CONTEXT(2) 
PARAMETRIC_REPRESENTATION_CONTEXT() REPRESENTATION_CONTEXT('2D SPACE',''
  ) );
#121 = ( GEOMETRIC_REPRESENTATION_CONTEXT(3) 
GLOBAL_UNCERTAINTY_ASSIGNED_CONTEXT((#125)) GLOBAL_UNIT_ASSIGNED_CONTEXT
((#122,#123,#124)) REPRESENTATION_CONTEXT('Context #1',
  '3D Context with UNIT and UNCERTAINTY') );
#122 = ( LENGTH_UNIT() NAMED_UNIT(*) SI_UNIT(.MILLI.,.METRE.) );
#123 = ( NAMED_UNIT(*) PLANE_ANGLE_UNIT() SI_UNIT($,.RADIAN.) );
#124 = ( NAMED_UNIT(*) SI_UNIT($,.STERADIAN.) SOLID_ANGLE_UNIT() );
#125 = UNCERTAINTY_MEASURE_WITH_UNIT(LENGTH_MEASURE(1.E-07),#122,
  'distance_accuracy_value','confusion accuracy');
#126 = PRODUCT_RELATED_PRODUCT_CATEGORY('part',$,(#7));
ENDSEC;
END-ISO-10303-21;
