ISO-10303-21;
HEADER;
FILE_DESCRIPTION(('Open CASCADE Model'),'2;1');
FILE_NAME('Open CASCADE Shape Model','2026-06-04T12:09:59',('Author'),(
    'Open CASCADE'),'Open CASCADE STEP processor 7.9','Open CASCADE 7.9'
  ,'Unknown');
FILE_SCHEMA(('AUTOMOTIVE_DESIGN { 1 0 10303 214 1 1 1 1 }'));
ENDSEC;
DATA;
#1 = APPLICATION_PROTOCOL_DEFINITION('international standard',
  'automotive_design',2000,#2);
#2 = APPLICATION_CONTEXT(
  'core data for automotive mechanical design processes');
#3 = SHAPE_DEFINITION_REPRESENTATION(#4,#10);
#4 = PRODUCT_DEFINITION_SHAPE('','',#5);
#5 = PRODUCT_DEFINITION('design','',#6,#9);
#6 = PRODUCT_DEFINITION_FORMATION('','',#7);
#7 = PRODUCT('Open CASCADE STEP translator 7.9 56',
  'Open CASCADE STEP translator 7.9 56','',(#8));
#8 = PRODUCT_CONTEXT('',#2,'mechanical');
#9 = PRODUCT_DEFINITION_CONTEXT('part definition',#2,'design');
#10 = MANIFOLD_SURFACE_SHAPE_REPRESENTATION('',(#11,#15),#121);
#11 = AXIS2_PLACEMENT_3D('',#12,#13,#14);
#12 = CARTESIAN_POINT('',(0.,0.,0.));
#13 = DIRECTION('',(0.,0.,1.));
#14 = DIRECTION('',(1.,0.,-0.));
#15 = SHELL_BASED_SURFACE_MODEL('',(#16));
#16 = OPEN_SHELL('',(#17));
#17 = ADVANCED_FACE('',(#18),#40,.T.);
#18 = FACE_BOUND('',#19,.T.);
#19 = EDGE_LOOP('',(#20,#59,#75,#107));
#20 = ORIENTED_EDGE('',*,*,#21,.T.);
#21 = EDGE_CURVE('',#22,#24,#26,.T.);
#22 = VERTEX_POINT('',#23);
#23 = CARTESIAN_POINT('',(0.,0.608960259155,0.));
#24 = VERTEX_POINT('',#25);
#25 = CARTESIAN_POINT('',(150.,1.675212472746,0.));
#26 = SURFACE_CURVE('',#27,(#39),.PCURVE_S1.);
#27 = B_SPLINE_CURVE_WITH_KNOTS('',1,(#28,#29,#30,#31,#32,#33,#34,#35,
    #36,#37,#38),.UNSPECIFIED.,.F.,.F.,(2,1,1,1,1,1,1,1,1,1,2),(0.,
    0.204408162446,0.484250049563,0.531430096927,0.583314909466,
    0.75737386613,0.804039463399,0.825068341436,0.872080307159,
    0.938681975408,1.),.UNSPECIFIED.);
#28 = CARTESIAN_POINT('',(0.,0.608960259155,0.));
#29 = CARTESIAN_POINT('',(31.043346393775,-2.942330744163,0.));
#30 = CARTESIAN_POINT('',(73.512553007538,2.176732453256,0.));
#31 = CARTESIAN_POINT('',(80.025204475249,-0.921238954162,0.));
#32 = CARTESIAN_POINT('',(87.86053344844,0.307622956792,0.));
#33 = CARTESIAN_POINT('',(114.46506487406,0.642490939818,0.));
#34 = CARTESIAN_POINT('',(120.9853821217,-2.250505194324,0.));
#35 = CARTESIAN_POINT('',(124.14277706665,-2.85357387497,0.));
#36 = CARTESIAN_POINT('',(131.30253617158,-2.237153752645,0.));
#37 = CARTESIAN_POINT('',(140.62849111634,1.846195925789,0.));
#38 = CARTESIAN_POINT('',(150.,1.675212472746,0.));
#39 = PCURVE('',#40,#45);
#40 = PLANE('',#41);
#41 = AXIS2_PLACEMENT_3D('',#42,#43,#44);
#42 = CARTESIAN_POINT('',(74.913481564837,7.5,0.));
#43 = DIRECTION('',(0.,0.,1.));
#44 = DIRECTION('',(1.,0.,-0.));
#45 = DEFINITIONAL_REPRESENTATION('',(#46),#58);
#46 = B_SPLINE_CURVE_WITH_KNOTS('',1,(#47,#48,#49,#50,#51,#52,#53,#54,
    #55,#56,#57),.UNSPECIFIED.,.F.,.F.,(2,1,1,1,1,1,1,1,1,1,2),(0.,
    0.204408162446,0.484250049563,0.531430096927,0.583314909466,
    0.75737386613,0.804039463399,0.825068341436,0.872080307159,
    0.938681975408,1.),.UNSPECIFIED.);
#47 = CARTESIAN_POINT('',(-74.91348156483,-6.891039740845));
#48 = CARTESIAN_POINT('',(-43.87013517106,-10.44233074416));
#49 = CARTESIAN_POINT('',(-1.400928557298,-5.323267546744));
#50 = CARTESIAN_POINT('',(5.111722910412,-8.421238954162));
#51 = CARTESIAN_POINT('',(12.947051883604,-7.192377043208));
#52 = CARTESIAN_POINT('',(39.551583309226,-6.857509060182));
#53 = CARTESIAN_POINT('',(46.071900556869,-9.750505194324));
#54 = CARTESIAN_POINT('',(49.229295501818,-10.35357387497));
#55 = CARTESIAN_POINT('',(56.389054606747,-9.737153752645));
#56 = CARTESIAN_POINT('',(65.715009551506,-5.653804074211));
#57 = CARTESIAN_POINT('',(75.086518435163,-5.824787527254));
#58 = ( GEOMETRIC_REPRESENTATION_CONTEXT(2) 
PARAMETRIC_REPRESENTATION_CONTEXT() REPRESENTATION_CONTEXT('2D SPACE',''
  ) );
#59 = ORIENTED_EDGE('',*,*,#60,.T.);
#60 = EDGE_CURVE('',#24,#61,#63,.T.);
#61 = VERTEX_POINT('',#62);
#62 = CARTESIAN_POINT('',(150.,13.324787527254,0.));
#63 = SURFACE_CURVE('',#64,(#68),.PCURVE_S1.);
#64 = LINE('',#65,#66);
#65 = CARTESIAN_POINT('',(150.,1.675212472746,0.));
#66 = VECTOR('',#67,1.);
#67 = DIRECTION('',(0.,1.,0.));
#68 = PCURVE('',#40,#69);
#69 = DEFINITIONAL_REPRESENTATION('',(#70),#74);
#70 = LINE('',#71,#72);
#71 = CARTESIAN_POINT('',(75.086518435163,-5.824787527254));
#72 = VECTOR('',#73,1.);
#73 = DIRECTION('',(0.,1.));
#74 = ( GEOMETRIC_REPRESENTATION_CONTEXT(2) 
PARAMETRIC_REPRESENTATION_CONTEXT() REPRESENTATION_CONTEXT('2D SPACE',''
  ) );
#75 = ORIENTED_EDGE('',*,*,#76,.T.);
#76 = EDGE_CURVE('',#61,#77,#79,.T.);
#77 = VERTEX_POINT('',#78);
#78 = CARTESIAN_POINT('',(0.,14.391039740845,0.));
#79 = SURFACE_CURVE('',#80,(#92),.PCURVE_S1.);
#80 = B_SPLINE_CURVE_WITH_KNOTS('',1,(#81,#82,#83,#84,#85,#86,#87,#88,
    #89,#90,#91),.UNSPECIFIED.,.F.,.F.,(2,1,1,1,1,1,1,1,1,1,2),(0.,
    6.131802459185E-02,0.127919692841,0.174931658564,0.195960536601,
    0.24262613387,0.416685090534,0.468569903073,0.515749950437,
    0.795591837554,1.),.UNSPECIFIED.);
#81 = CARTESIAN_POINT('',(150.,13.324787527254,0.));
#82 = CARTESIAN_POINT('',(140.62849111634,13.153804074211,0.));
#83 = CARTESIAN_POINT('',(131.30253617158,17.237153752645,0.));
#84 = CARTESIAN_POINT('',(124.14277706665,17.85357387497,0.));
#85 = CARTESIAN_POINT('',(120.9853821217,17.250505194324,0.));
#86 = CARTESIAN_POINT('',(114.46506487406,14.357509060182,0.));
#87 = CARTESIAN_POINT('',(87.86053344844,14.692377043208,0.));
#88 = CARTESIAN_POINT('',(80.025204475249,15.921238954162,0.));
#89 = CARTESIAN_POINT('',(73.512553007538,12.823267546744,0.));
#90 = CARTESIAN_POINT('',(31.043346393775,17.942330744163,0.));
#91 = CARTESIAN_POINT('',(0.,14.391039740845,0.));
#92 = PCURVE('',#40,#93);
#93 = DEFINITIONAL_REPRESENTATION('',(#94),#106);
#94 = B_SPLINE_CURVE_WITH_KNOTS('',1,(#95,#96,#97,#98,#99,#100,#101,#102
    ,#103,#104,#105),.UNSPECIFIED.,.F.,.F.,(2,1,1,1,1,1,1,1,1,1,2),(0.,
    6.131802459185E-02,0.127919692841,0.174931658564,0.195960536601,
    0.24262613387,0.416685090534,0.468569903073,0.515749950437,
    0.795591837554,1.),.UNSPECIFIED.);
#95 = CARTESIAN_POINT('',(75.086518435163,5.824787527254));
#96 = CARTESIAN_POINT('',(65.715009551506,5.653804074211));
#97 = CARTESIAN_POINT('',(56.389054606747,9.737153752645));
#98 = CARTESIAN_POINT('',(49.229295501818,10.35357387497));
#99 = CARTESIAN_POINT('',(46.071900556869,9.750505194324));
#100 = CARTESIAN_POINT('',(39.551583309226,6.857509060182));
#101 = CARTESIAN_POINT('',(12.947051883604,7.192377043208));
#102 = CARTESIAN_POINT('',(5.111722910412,8.421238954162));
#103 = CARTESIAN_POINT('',(-1.400928557298,5.323267546744));
#104 = CARTESIAN_POINT('',(-43.87013517106,10.442330744163));
#105 = CARTESIAN_POINT('',(-74.91348156483,6.891039740845));
#106 = ( GEOMETRIC_REPRESENTATION_CONTEXT(2) 
PARAMETRIC_REPRESENTATION_CONTEXT() REPRESENTATION_CONTEXT('2D SPACE',''
  ) );
#107 = ORIENTED_EDGE('',*,*,#108,.T.);
#108 = EDGE_CURVE('',#77,#22,#109,.T.);
#109 = SURFACE_CURVE('',#110,(#114),.PCURVE_S1.);
#110 = LINE('',#111,#112);
#111 = CARTESIAN_POINT('',(0.,14.391039740845,0.));
#112 = VECTOR('',#113,1.);
#113 = DIRECTION('',(0.,-1.,0.));
#114 = PCURVE('',#40,#115);
#115 = DEFINITIONAL_REPRESENTATION('',(#116),#120);
#116 = LINE('',#117,#118);
#117 = CARTESIAN_POINT('',(-74.91348156483,6.891039740845));
#118 = VECTOR('',#119,1.);
#119 = DIRECTION('',(0.,-1.));
#120 = ( GEOMETRIC_REPRESENTATION_CONTEXT(2) 
PARAMETRIC_REPRESENTATION_CONTEXT() REPRESENTATION_CONTEXT('2D SPACE',''
  ) );
#121 = ( GEOMETRIC_REPRESENTATION_CONTEXT(3) 
GLOBAL_UNCERTAINTY_ASSIGNED_CONTEXT((#125)) GLOBAL_UNIT_ASSIGNED_CONTEXT
((#122,#123,#124)) REPRESENTATION_CONTEXT('Context #1',
  '3D Context with UNIT and UNCERTAINTY') );
#122 = ( LENGTH_UNIT() NAMED_UNIT(*) SI_UNIT(.MILLI.,.METRE.) );
#123 = ( NAMED_UNIT(*) PLANE_ANGLE_UNIT() SI_UNIT($,.RADIAN.) );
#124 = ( NAMED_UNIT(*) SI_UNIT($,.STERADIAN.) SOLID_ANGLE_UNIT() );
#125 = UNCERTAINTY_MEASURE_WITH_UNIT(LENGTH_MEASURE(1.E-07),#122,
  'distance_accuracy_value','confusion accuracy');
#126 = PRODUCT_RELATED_PRODUCT_CATEGORY('part',$,(#7));
ENDSEC;
END-ISO-10303-21;
