ISO-10303-21;
HEADER;
FILE_DESCRIPTION(('Open CASCADE Model'),'2;1');
FILE_NAME('Open CASCADE Shape Model','2026-06-04T12:09:58',('Author'),(
    'Open CASCADE'),'Open CASCADE STEP processor 7.9','Open CASCADE 7.9'
  ,'Unknown');
FILE_SCHEMA(('AUTOMOTIVE_DESIGN { 1 0 10303 214 1 1 1 1 }'));
ENDSEC;
DATA;
#1 = APPLICATION_PROTOCOL_DEFINITION('international standard',
  'automotive_design',2000,#2);
#2 = APPLICATION_CONTEXT(
  'core data for automotive mechanical design processes');
#3 = SHAPE_DEFINITION_REPRESENTATION(#4,#10);
#4 = PRODUCT_DEFINITION_SHAPE('','',#5);
#5 = PRODUCT_DEFINITION('design','',#6,#9);
#6 = PRODUCT_DEFINITION_FORMATION('','',#7);
#7 = PRODUCT('Open CASCADE STEP translator 7.9 8',
  'Open CASCADE STEP translator 7.9 8','',(#8));
#8 = PRODUCT_CONTEXT('',#2,'mechanical');
#9 = PRODUCT_DEFINITION_CONTEXT('part definition',#2,'design');
#10 = MANIFOLD_SURFACE_SHAPE_REPRESENTATION('',(#11,#15),#121);
#11 = AXIS2_PLACEMENT_3D('',#12,#13,#14);
#12 = CARTESIAN_POINT('',(0.,0.,0.));
#13 = DIRECTION('',(0.,0.,1.));
#14 = DIRECTION('',(1.,0.,-0.));
#15 = SHELL_BASED_SURFACE_MODEL('',(#16));
#16 = OPEN_SHELL('',(#17));
#17 = ADVANCED_FACE('',(#18),#40,.T.);
#18 = FACE_BOUND('',#19,.T.);
#19 = EDGE_LOOP('',(#20,#59,#75,#107));
#20 = ORIENTED_EDGE('',*,*,#21,.T.);
#21 = EDGE_CURVE('',#22,#24,#26,.T.);
#22 = VERTEX_POINT('',#23);
#23 = CARTESIAN_POINT('',(0.,-0.956535808151,0.));
#24 = VERTEX_POINT('',#25);
#25 = CARTESIAN_POINT('',(150.,-1.849508832386,0.));
#26 = SURFACE_CURVE('',#27,(#39),.PCURVE_S1.);
#27 = B_SPLINE_CURVE_WITH_KNOTS('',1,(#28,#29,#30,#31,#32,#33,#34,#35,
    #36,#37,#38),.UNSPECIFIED.,.F.,.F.,(2,1,1,1,1,1,1,1,1,1,2),(0.,
    4.918607579543E-02,0.107125146408,0.140675700568,0.263690987614,
    0.442283074534,0.498702182033,0.732098736219,0.763032500506,
    0.957629406298,1.),.UNSPECIFIED.);
#28 = CARTESIAN_POINT('',(0.,-0.956535808151,0.));
#29 = CARTESIAN_POINT('',(7.529265835606,-1.361967685721,0.));
#30 = CARTESIAN_POINT('',(16.407747686207,-1.611884951506,0.));
#31 = CARTESIAN_POINT('',(19.683180890262,2.353554324265,0.));
#32 = CARTESIAN_POINT('',(37.907055353583,-2.496071070826,0.));
#33 = CARTESIAN_POINT('',(64.974051181919,1.618716054631,0.));
#34 = CARTESIAN_POINT('',(73.545329897951,2.775524662943,0.));
#35 = CARTESIAN_POINT('',(109.18982435522,-0.329114816349,0.));
#36 = CARTESIAN_POINT('',(113.80173820733,0.774466296825,0.));
#37 = CARTESIAN_POINT('',(143.5059182427,-1.978738458794,0.));
#38 = CARTESIAN_POINT('',(150.,-1.849508832386,0.));
#39 = PCURVE('',#40,#45);
#40 = PLANE('',#41);
#41 = AXIS2_PLACEMENT_3D('',#42,#43,#44);
#42 = CARTESIAN_POINT('',(74.628294000208,7.5,0.));
#43 = DIRECTION('',(0.,0.,1.));
#44 = DIRECTION('',(1.,0.,-0.));
#45 = DEFINITIONAL_REPRESENTATION('',(#46),#58);
#46 = B_SPLINE_CURVE_WITH_KNOTS('',1,(#47,#48,#49,#50,#51,#52,#53,#54,
    #55,#56,#57),.UNSPECIFIED.,.F.,.F.,(2,1,1,1,1,1,1,1,1,1,2),(0.,
    4.918607579543E-02,0.107125146408,0.140675700568,0.263690987614,
    0.442283074534,0.498702182033,0.732098736219,0.763032500506,
    0.957629406298,1.),.UNSPECIFIED.);
#47 = CARTESIAN_POINT('',(-74.6282940002,-8.456535808151));
#48 = CARTESIAN_POINT('',(-67.0990281646,-8.861967685721));
#49 = CARTESIAN_POINT('',(-58.220546314,-9.111884951506));
#50 = CARTESIAN_POINT('',(-54.94511310994,-5.146445675735));
#51 = CARTESIAN_POINT('',(-36.72123864662,-9.996071070826));
#52 = CARTESIAN_POINT('',(-9.654242818289,-5.881283945369));
#53 = CARTESIAN_POINT('',(-1.082964102257,-4.724475337057));
#54 = CARTESIAN_POINT('',(34.561530355013,-7.829114816349));
#55 = CARTESIAN_POINT('',(39.17344420713,-6.725533703175));
#56 = CARTESIAN_POINT('',(68.877624242501,-9.478738458794));
#57 = CARTESIAN_POINT('',(75.371705999792,-9.349508832386));
#58 = ( GEOMETRIC_REPRESENTATION_CONTEXT(2) 
PARAMETRIC_REPRESENTATION_CONTEXT() REPRESENTATION_CONTEXT('2D SPACE',''
  ) );
#59 = ORIENTED_EDGE('',*,*,#60,.T.);
#60 = EDGE_CURVE('',#24,#61,#63,.T.);
#61 = VERTEX_POINT('',#62);
#62 = CARTESIAN_POINT('',(150.,16.849508832386,0.));
#63 = SURFACE_CURVE('',#64,(#68),.PCURVE_S1.);
#64 = LINE('',#65,#66);
#65 = CARTESIAN_POINT('',(150.,-1.849508832386,0.));
#66 = VECTOR('',#67,1.);
#67 = DIRECTION('',(0.,1.,0.));
#68 = PCURVE('',#40,#69);
#69 = DEFINITIONAL_REPRESENTATION('',(#70),#74);
#70 = LINE('',#71,#72);
#71 = CARTESIAN_POINT('',(75.371705999792,-9.349508832386));
#72 = VECTOR('',#73,1.);
#73 = DIRECTION('',(0.,1.));
#74 = ( GEOMETRIC_REPRESENTATION_CONTEXT(2) 
PARAMETRIC_REPRESENTATION_CONTEXT() REPRESENTATION_CONTEXT('2D SPACE',''
  ) );
#75 = ORIENTED_EDGE('',*,*,#76,.T.);
#76 = EDGE_CURVE('',#61,#77,#79,.T.);
#77 = VERTEX_POINT('',#78);
#78 = CARTESIAN_POINT('',(0.,15.956535808151,0.));
#79 = SURFACE_CURVE('',#80,(#92),.PCURVE_S1.);
#80 = B_SPLINE_CURVE_WITH_KNOTS('',1,(#81,#82,#83,#84,#85,#86,#87,#88,
    #89,#90,#91),.UNSPECIFIED.,.F.,.F.,(2,1,1,1,1,1,1,1,1,1,2),(0.,
    4.237059370156E-02,0.236967499494,0.267901263781,0.501297817967,
    0.557716925466,0.736309012386,0.859324299432,0.892874853592,
    0.950813924205,1.),.UNSPECIFIED.);
#81 = CARTESIAN_POINT('',(150.,16.849508832386,0.));
#82 = CARTESIAN_POINT('',(143.5059182427,16.978738458794,0.));
#83 = CARTESIAN_POINT('',(113.80173820733,14.225533703175,0.));
#84 = CARTESIAN_POINT('',(109.18982435522,15.329114816349,0.));
#85 = CARTESIAN_POINT('',(73.545329897951,12.224475337057,0.));
#86 = CARTESIAN_POINT('',(64.974051181919,13.381283945369,0.));
#87 = CARTESIAN_POINT('',(37.907055353583,17.496071070826,0.));
#88 = CARTESIAN_POINT('',(19.683180890262,12.646445675735,0.));
#89 = CARTESIAN_POINT('',(16.407747686207,16.611884951506,0.));
#90 = CARTESIAN_POINT('',(7.529265835606,16.361967685721,0.));
#91 = CARTESIAN_POINT('',(0.,15.956535808151,0.));
#92 = PCURVE('',#40,#93);
#93 = DEFINITIONAL_REPRESENTATION('',(#94),#106);
#94 = B_SPLINE_CURVE_WITH_KNOTS('',1,(#95,#96,#97,#98,#99,#100,#101,#102
    ,#103,#104,#105),.UNSPECIFIED.,.F.,.F.,(2,1,1,1,1,1,1,1,1,1,2),(0.,
    4.237059370156E-02,0.236967499494,0.267901263781,0.501297817967,
    0.557716925466,0.736309012386,0.859324299432,0.892874853592,
    0.950813924205,1.),.UNSPECIFIED.);
#95 = CARTESIAN_POINT('',(75.371705999792,9.349508832386));
#96 = CARTESIAN_POINT('',(68.877624242501,9.478738458794));
#97 = CARTESIAN_POINT('',(39.17344420713,6.725533703175));
#98 = CARTESIAN_POINT('',(34.561530355013,7.829114816349));
#99 = CARTESIAN_POINT('',(-1.082964102257,4.724475337057));
#100 = CARTESIAN_POINT('',(-9.654242818289,5.881283945369));
#101 = CARTESIAN_POINT('',(-36.72123864662,9.996071070826));
#102 = CARTESIAN_POINT('',(-54.94511310994,5.146445675735));
#103 = CARTESIAN_POINT('',(-58.220546314,9.111884951506));
#104 = CARTESIAN_POINT('',(-67.0990281646,8.861967685721));
#105 = CARTESIAN_POINT('',(-74.6282940002,8.456535808151));
#106 = ( GEOMETRIC_REPRESENTATION_CONTEXT(2) 
PARAMETRIC_REPRESENTATION_CONTEXT() REPRESENTATION_CONTEXT('2D SPACE',''
  ) );
#107 = ORIENTED_EDGE('',*,*,#108,.T.);
#108 = EDGE_CURVE('',#77,#22,#109,.T.);
#109 = SURFACE_CURVE('',#110,(#114),.PCURVE_S1.);
#110 = LINE('',#111,#112);
#111 = CARTESIAN_POINT('',(0.,15.956535808151,0.));
#112 = VECTOR('',#113,1.);
#113 = DIRECTION('',(0.,-1.,0.));
#114 = PCURVE('',#40,#115);
#115 = DEFINITIONAL_REPRESENTATION('',(#116),#120);
#116 = LINE('',#117,#118);
#117 = CARTESIAN_POINT('',(-74.6282940002,8.456535808151));
#118 = VECTOR('',#119,1.);
#119 = DIRECTION('',(0.,-1.));
#120 = ( GEOMETRIC_REPRESENTATION_CONTEXT(2) 
PARAMETRIC_REPRESENTATION_CONTEXT() REPRESENTATION_CONTEXT('2D SPACE',''
  ) );
#121 = ( GEOMETRIC_REPRESENTATION_CONTEXT(3) 
GLOBAL_UNCERTAINTY_ASSIGNED_CONTEXT((#125)) GLOBAL_UNIT_ASSIGNED_CONTEXT
((#122,#123,#124)) REPRESENTATION_CONTEXT('Context #1',
  '3D Context with UNIT and UNCERTAINTY') );
#122 = ( LENGTH_UNIT() NAMED_UNIT(*) SI_UNIT(.MILLI.,.METRE.) );
#123 = ( NAMED_UNIT(*) PLANE_ANGLE_UNIT() SI_UNIT($,.RADIAN.) );
#124 = ( NAMED_UNIT(*) SI_UNIT($,.STERADIAN.) SOLID_ANGLE_UNIT() );
#125 = UNCERTAINTY_MEASURE_WITH_UNIT(LENGTH_MEASURE(1.E-07),#122,
  'distance_accuracy_value','confusion accuracy');
#126 = PRODUCT_RELATED_PRODUCT_CATEGORY('part',$,(#7));
ENDSEC;
END-ISO-10303-21;
