ISO-10303-21;
HEADER;
FILE_DESCRIPTION(('Open CASCADE Model'),'2;1');
FILE_NAME('Open CASCADE Shape Model','2026-06-01T11:13:06',('Author'),(
    'Open CASCADE'),'Open CASCADE STEP processor 7.9','Open CASCADE 7.9'
  ,'Unknown');
FILE_SCHEMA(('AUTOMOTIVE_DESIGN { 1 0 10303 214 1 1 1 1 }'));
ENDSEC;
DATA;
#1 = APPLICATION_PROTOCOL_DEFINITION('international standard',
  'automotive_design',2000,#2);
#2 = APPLICATION_CONTEXT(
  'core data for automotive mechanical design processes');
#3 = SHAPE_DEFINITION_REPRESENTATION(#4,#10);
#4 = PRODUCT_DEFINITION_SHAPE('','',#5);
#5 = PRODUCT_DEFINITION('design','',#6,#9);
#6 = PRODUCT_DEFINITION_FORMATION('','',#7);
#7 = PRODUCT('Open CASCADE STEP translator 7.9 73',
  'Open CASCADE STEP translator 7.9 73','',(#8));
#8 = PRODUCT_CONTEXT('',#2,'mechanical');
#9 = PRODUCT_DEFINITION_CONTEXT('part definition',#2,'design');
#10 = MANIFOLD_SURFACE_SHAPE_REPRESENTATION('',(#11,#15),#121);
#11 = AXIS2_PLACEMENT_3D('',#12,#13,#14);
#12 = CARTESIAN_POINT('',(0.,0.,0.));
#13 = DIRECTION('',(0.,0.,1.));
#14 = DIRECTION('',(1.,0.,-0.));
#15 = SHELL_BASED_SURFACE_MODEL('',(#16));
#16 = OPEN_SHELL('',(#17));
#17 = ADVANCED_FACE('',(#18),#40,.T.);
#18 = FACE_BOUND('',#19,.T.);
#19 = EDGE_LOOP('',(#20,#59,#75,#107));
#20 = ORIENTED_EDGE('',*,*,#21,.T.);
#21 = EDGE_CURVE('',#22,#24,#26,.T.);
#22 = VERTEX_POINT('',#23);
#23 = CARTESIAN_POINT('',(0.,-2.266026383077,0.));
#24 = VERTEX_POINT('',#25);
#25 = CARTESIAN_POINT('',(150.,1.861332490001E-02,0.));
#26 = SURFACE_CURVE('',#27,(#39),.PCURVE_S1.);
#27 = B_SPLINE_CURVE_WITH_KNOTS('',1,(#28,#29,#30,#31,#32,#33,#34,#35,
    #36,#37,#38),.UNSPECIFIED.,.F.,.F.,(2,1,1,1,1,1,1,1,1,1,2),(0.,
    0.203594682445,0.313253882218,0.473633065324,0.686376707474,
    0.737782217117,0.824064708909,0.855099807801,0.902857200984,
    0.937657536782,1.),.UNSPECIFIED.);
#28 = CARTESIAN_POINT('',(0.,-2.266026383077,0.));
#29 = CARTESIAN_POINT('',(30.992299541512,1.675379050995,0.));
#30 = CARTESIAN_POINT('',(47.81561702907,2.044761028687,0.));
#31 = CARTESIAN_POINT('',(72.392883413604,3.321987022346,0.));
#32 = CARTESIAN_POINT('',(104.92087386542,0.550604683782,0.));
#33 = CARTESIAN_POINT('',(112.71378895285,1.773318340464,0.));
#34 = CARTESIAN_POINT('',(125.94051346522,1.176544427931,0.));
#35 = CARTESIAN_POINT('',(130.5493683639,2.376024636415,0.));
#36 = CARTESIAN_POINT('',(136.13475542293,-2.368399408379,0.));
#37 = CARTESIAN_POINT('',(141.25944718311,-3.870030126192,0.));
#38 = CARTESIAN_POINT('',(150.,1.861332490001E-02,0.));
#39 = PCURVE('',#40,#45);
#40 = PLANE('',#41);
#41 = AXIS2_PLACEMENT_3D('',#42,#43,#44);
#42 = CARTESIAN_POINT('',(75.003066711673,7.5,0.));
#43 = DIRECTION('',(0.,0.,1.));
#44 = DIRECTION('',(1.,0.,-0.));
#45 = DEFINITIONAL_REPRESENTATION('',(#46),#58);
#46 = B_SPLINE_CURVE_WITH_KNOTS('',1,(#47,#48,#49,#50,#51,#52,#53,#54,
    #55,#56,#57),.UNSPECIFIED.,.F.,.F.,(2,1,1,1,1,1,1,1,1,1,2),(0.,
    0.203594682445,0.313253882218,0.473633065324,0.686376707474,
    0.737782217117,0.824064708909,0.855099807801,0.902857200984,
    0.937657536782,1.),.UNSPECIFIED.);
#47 = CARTESIAN_POINT('',(-75.00306671167,-9.766026383077));
#48 = CARTESIAN_POINT('',(-44.01076717016,-5.824620949005));
#49 = CARTESIAN_POINT('',(-27.1874496826,-5.455238971313));
#50 = CARTESIAN_POINT('',(-2.610183298069,-4.178012977654));
#51 = CARTESIAN_POINT('',(29.917807153753,-6.949395316218));
#52 = CARTESIAN_POINT('',(37.710722241181,-5.726681659536));
#53 = CARTESIAN_POINT('',(50.93744675355,-6.323455572069));
#54 = CARTESIAN_POINT('',(55.546301652228,-5.123975363585));
#55 = CARTESIAN_POINT('',(61.131688711262,-9.868399408379));
#56 = CARTESIAN_POINT('',(66.256380471446,-11.37003012619));
#57 = CARTESIAN_POINT('',(74.996933288327,-7.4813866751));
#58 = ( GEOMETRIC_REPRESENTATION_CONTEXT(2) 
PARAMETRIC_REPRESENTATION_CONTEXT() REPRESENTATION_CONTEXT('2D SPACE',''
  ) );
#59 = ORIENTED_EDGE('',*,*,#60,.T.);
#60 = EDGE_CURVE('',#24,#61,#63,.T.);
#61 = VERTEX_POINT('',#62);
#62 = CARTESIAN_POINT('',(150.,14.9813866751,0.));
#63 = SURFACE_CURVE('',#64,(#68),.PCURVE_S1.);
#64 = LINE('',#65,#66);
#65 = CARTESIAN_POINT('',(150.,1.861332490001E-02,0.));
#66 = VECTOR('',#67,1.);
#67 = DIRECTION('',(0.,1.,0.));
#68 = PCURVE('',#40,#69);
#69 = DEFINITIONAL_REPRESENTATION('',(#70),#74);
#70 = LINE('',#71,#72);
#71 = CARTESIAN_POINT('',(74.996933288327,-7.4813866751));
#72 = VECTOR('',#73,1.);
#73 = DIRECTION('',(0.,1.));
#74 = ( GEOMETRIC_REPRESENTATION_CONTEXT(2) 
PARAMETRIC_REPRESENTATION_CONTEXT() REPRESENTATION_CONTEXT('2D SPACE',''
  ) );
#75 = ORIENTED_EDGE('',*,*,#76,.T.);
#76 = EDGE_CURVE('',#61,#77,#79,.T.);
#77 = VERTEX_POINT('',#78);
#78 = CARTESIAN_POINT('',(0.,17.266026383077,0.));
#79 = SURFACE_CURVE('',#80,(#92),.PCURVE_S1.);
#80 = B_SPLINE_CURVE_WITH_KNOTS('',1,(#81,#82,#83,#84,#85,#86,#87,#88,
    #89,#90,#91),.UNSPECIFIED.,.F.,.F.,(2,1,1,1,1,1,1,1,1,1,2),(0.,
    6.234246321782E-02,9.714279901577E-02,0.144900192199,0.175935291091,
    0.262217782883,0.313623292526,0.526366934676,0.686746117782,
    0.796405317555,1.),.UNSPECIFIED.);
#81 = CARTESIAN_POINT('',(150.,14.9813866751,0.));
#82 = CARTESIAN_POINT('',(141.25944718311,18.870030126192,0.));
#83 = CARTESIAN_POINT('',(136.13475542293,17.368399408379,0.));
#84 = CARTESIAN_POINT('',(130.5493683639,12.623975363585,0.));
#85 = CARTESIAN_POINT('',(125.94051346522,13.823455572069,0.));
#86 = CARTESIAN_POINT('',(112.71378895285,13.226681659536,0.));
#87 = CARTESIAN_POINT('',(104.92087386542,14.449395316218,0.));
#88 = CARTESIAN_POINT('',(72.392883413604,11.678012977654,0.));
#89 = CARTESIAN_POINT('',(47.81561702907,12.955238971313,0.));
#90 = CARTESIAN_POINT('',(30.992299541512,13.324620949005,0.));
#91 = CARTESIAN_POINT('',(0.,17.266026383077,0.));
#92 = PCURVE('',#40,#93);
#93 = DEFINITIONAL_REPRESENTATION('',(#94),#106);
#94 = B_SPLINE_CURVE_WITH_KNOTS('',1,(#95,#96,#97,#98,#99,#100,#101,#102
    ,#103,#104,#105),.UNSPECIFIED.,.F.,.F.,(2,1,1,1,1,1,1,1,1,1,2),(0.,
    6.234246321782E-02,9.714279901577E-02,0.144900192199,0.175935291091,
    0.262217782883,0.313623292526,0.526366934676,0.686746117782,
    0.796405317555,1.),.UNSPECIFIED.);
#95 = CARTESIAN_POINT('',(74.996933288327,7.4813866751));
#96 = CARTESIAN_POINT('',(66.256380471446,11.370030126192));
#97 = CARTESIAN_POINT('',(61.131688711262,9.868399408379));
#98 = CARTESIAN_POINT('',(55.546301652228,5.123975363585));
#99 = CARTESIAN_POINT('',(50.93744675355,6.323455572069));
#100 = CARTESIAN_POINT('',(37.710722241181,5.726681659536));
#101 = CARTESIAN_POINT('',(29.917807153753,6.949395316218));
#102 = CARTESIAN_POINT('',(-2.610183298069,4.178012977654));
#103 = CARTESIAN_POINT('',(-27.1874496826,5.455238971313));
#104 = CARTESIAN_POINT('',(-44.01076717016,5.824620949005));
#105 = CARTESIAN_POINT('',(-75.00306671167,9.766026383077));
#106 = ( GEOMETRIC_REPRESENTATION_CONTEXT(2) 
PARAMETRIC_REPRESENTATION_CONTEXT() REPRESENTATION_CONTEXT('2D SPACE',''
  ) );
#107 = ORIENTED_EDGE('',*,*,#108,.T.);
#108 = EDGE_CURVE('',#77,#22,#109,.T.);
#109 = SURFACE_CURVE('',#110,(#114),.PCURVE_S1.);
#110 = LINE('',#111,#112);
#111 = CARTESIAN_POINT('',(0.,17.266026383077,0.));
#112 = VECTOR('',#113,1.);
#113 = DIRECTION('',(0.,-1.,0.));
#114 = PCURVE('',#40,#115);
#115 = DEFINITIONAL_REPRESENTATION('',(#116),#120);
#116 = LINE('',#117,#118);
#117 = CARTESIAN_POINT('',(-75.00306671167,9.766026383077));
#118 = VECTOR('',#119,1.);
#119 = DIRECTION('',(0.,-1.));
#120 = ( GEOMETRIC_REPRESENTATION_CONTEXT(2) 
PARAMETRIC_REPRESENTATION_CONTEXT() REPRESENTATION_CONTEXT('2D SPACE',''
  ) );
#121 = ( GEOMETRIC_REPRESENTATION_CONTEXT(3) 
GLOBAL_UNCERTAINTY_ASSIGNED_CONTEXT((#125)) GLOBAL_UNIT_ASSIGNED_CONTEXT
((#122,#123,#124)) REPRESENTATION_CONTEXT('Context #1',
  '3D Context with UNIT and UNCERTAINTY') );
#122 = ( LENGTH_UNIT() NAMED_UNIT(*) SI_UNIT(.MILLI.,.METRE.) );
#123 = ( NAMED_UNIT(*) PLANE_ANGLE_UNIT() SI_UNIT($,.RADIAN.) );
#124 = ( NAMED_UNIT(*) SI_UNIT($,.STERADIAN.) SOLID_ANGLE_UNIT() );
#125 = UNCERTAINTY_MEASURE_WITH_UNIT(LENGTH_MEASURE(1.E-07),#122,
  'distance_accuracy_value','confusion accuracy');
#126 = PRODUCT_RELATED_PRODUCT_CATEGORY('part',$,(#7));
ENDSEC;
END-ISO-10303-21;
