ISO-10303-21;
HEADER;
FILE_DESCRIPTION(('Open CASCADE Model'),'2;1');
FILE_NAME('Open CASCADE Shape Model','2026-06-04T12:09:59',('Author'),(
    'Open CASCADE'),'Open CASCADE STEP processor 7.9','Open CASCADE 7.9'
  ,'Unknown');
FILE_SCHEMA(('AUTOMOTIVE_DESIGN { 1 0 10303 214 1 1 1 1 }'));
ENDSEC;
DATA;
#1 = APPLICATION_PROTOCOL_DEFINITION('international standard',
  'automotive_design',2000,#2);
#2 = APPLICATION_CONTEXT(
  'core data for automotive mechanical design processes');
#3 = SHAPE_DEFINITION_REPRESENTATION(#4,#10);
#4 = PRODUCT_DEFINITION_SHAPE('','',#5);
#5 = PRODUCT_DEFINITION('design','',#6,#9);
#6 = PRODUCT_DEFINITION_FORMATION('','',#7);
#7 = PRODUCT('Open CASCADE STEP translator 7.9 83',
  'Open CASCADE STEP translator 7.9 83','',(#8));
#8 = PRODUCT_CONTEXT('',#2,'mechanical');
#9 = PRODUCT_DEFINITION_CONTEXT('part definition',#2,'design');
#10 = MANIFOLD_SURFACE_SHAPE_REPRESENTATION('',(#11,#15),#121);
#11 = AXIS2_PLACEMENT_3D('',#12,#13,#14);
#12 = CARTESIAN_POINT('',(0.,0.,0.));
#13 = DIRECTION('',(0.,0.,1.));
#14 = DIRECTION('',(1.,0.,-0.));
#15 = SHELL_BASED_SURFACE_MODEL('',(#16));
#16 = OPEN_SHELL('',(#17));
#17 = ADVANCED_FACE('',(#18),#40,.T.);
#18 = FACE_BOUND('',#19,.T.);
#19 = EDGE_LOOP('',(#20,#59,#75,#107));
#20 = ORIENTED_EDGE('',*,*,#21,.T.);
#21 = EDGE_CURVE('',#22,#24,#26,.T.);
#22 = VERTEX_POINT('',#23);
#23 = CARTESIAN_POINT('',(0.,-2.531385038995,0.));
#24 = VERTEX_POINT('',#25);
#25 = CARTESIAN_POINT('',(150.,-1.963527573544,0.));
#26 = SURFACE_CURVE('',#27,(#39),.PCURVE_S1.);
#27 = B_SPLINE_CURVE_WITH_KNOTS('',1,(#28,#29,#30,#31,#32,#33,#34,#35,
    #36,#37,#38),.UNSPECIFIED.,.F.,.F.,(2,1,1,1,1,1,1,1,1,1,2),(0.,
    0.104845726916,0.187971915701,0.211578978962,0.265282679581,
    0.446172813998,0.51129731577,0.589253260138,0.638836149284,
    0.857159581798,1.),.UNSPECIFIED.);
#28 = CARTESIAN_POINT('',(0.,-2.531385038995,0.));
#29 = CARTESIAN_POINT('',(15.810696883719,1.007021713779,0.));
#30 = CARTESIAN_POINT('',(28.618884618038,1.985191755703,0.));
#31 = CARTESIAN_POINT('',(32.25790152843,1.729367019202,0.));
#32 = CARTESIAN_POINT('',(40.524506836163,2.459991653729,0.));
#33 = CARTESIAN_POINT('',(68.476865154556,2.279336219392,0.));
#34 = CARTESIAN_POINT('',(78.536289247068,2.572172794891,0.));
#35 = CARTESIAN_POINT('',(89.248267624475,-2.938938415229,0.));
#36 = CARTESIAN_POINT('',(94.588335772741,2.555653899786,0.));
#37 = CARTESIAN_POINT('',(128.32401832799,2.204747514292,0.));
#38 = CARTESIAN_POINT('',(150.,-1.963527573544,0.));
#39 = PCURVE('',#40,#45);
#40 = PLANE('',#41);
#41 = AXIS2_PLACEMENT_3D('',#42,#43,#44);
#42 = CARTESIAN_POINT('',(75.024346418872,7.5,0.));
#43 = DIRECTION('',(0.,0.,1.));
#44 = DIRECTION('',(1.,0.,-0.));
#45 = DEFINITIONAL_REPRESENTATION('',(#46),#58);
#46 = B_SPLINE_CURVE_WITH_KNOTS('',1,(#47,#48,#49,#50,#51,#52,#53,#54,
    #55,#56,#57),.UNSPECIFIED.,.F.,.F.,(2,1,1,1,1,1,1,1,1,1,2),(0.,
    0.104845726916,0.187971915701,0.211578978962,0.265282679581,
    0.446172813998,0.51129731577,0.589253260138,0.638836149284,
    0.857159581798,1.),.UNSPECIFIED.);
#47 = CARTESIAN_POINT('',(-75.02434641887,-10.03138503899));
#48 = CARTESIAN_POINT('',(-59.21364953515,-6.492978286221));
#49 = CARTESIAN_POINT('',(-46.40546180083,-5.514808244297));
#50 = CARTESIAN_POINT('',(-42.76644489044,-5.770632980798));
#51 = CARTESIAN_POINT('',(-34.4998395827,-5.040008346271));
#52 = CARTESIAN_POINT('',(-6.547481264316,-5.220663780608));
#53 = CARTESIAN_POINT('',(3.511942828197,-4.927827205109));
#54 = CARTESIAN_POINT('',(14.223921205604,-10.43893841522));
#55 = CARTESIAN_POINT('',(19.56398935387,-4.944346100214));
#56 = CARTESIAN_POINT('',(53.299671909126,-5.295252485708));
#57 = CARTESIAN_POINT('',(74.975653581128,-9.463527573544));
#58 = ( GEOMETRIC_REPRESENTATION_CONTEXT(2) 
PARAMETRIC_REPRESENTATION_CONTEXT() REPRESENTATION_CONTEXT('2D SPACE',''
  ) );
#59 = ORIENTED_EDGE('',*,*,#60,.T.);
#60 = EDGE_CURVE('',#24,#61,#63,.T.);
#61 = VERTEX_POINT('',#62);
#62 = CARTESIAN_POINT('',(150.,16.963527573544,0.));
#63 = SURFACE_CURVE('',#64,(#68),.PCURVE_S1.);
#64 = LINE('',#65,#66);
#65 = CARTESIAN_POINT('',(150.,-1.963527573544,0.));
#66 = VECTOR('',#67,1.);
#67 = DIRECTION('',(0.,1.,0.));
#68 = PCURVE('',#40,#69);
#69 = DEFINITIONAL_REPRESENTATION('',(#70),#74);
#70 = LINE('',#71,#72);
#71 = CARTESIAN_POINT('',(74.975653581128,-9.463527573544));
#72 = VECTOR('',#73,1.);
#73 = DIRECTION('',(0.,1.));
#74 = ( GEOMETRIC_REPRESENTATION_CONTEXT(2) 
PARAMETRIC_REPRESENTATION_CONTEXT() REPRESENTATION_CONTEXT('2D SPACE',''
  ) );
#75 = ORIENTED_EDGE('',*,*,#76,.T.);
#76 = EDGE_CURVE('',#61,#77,#79,.T.);
#77 = VERTEX_POINT('',#78);
#78 = CARTESIAN_POINT('',(0.,17.531385038995,0.));
#79 = SURFACE_CURVE('',#80,(#92),.PCURVE_S1.);
#80 = B_SPLINE_CURVE_WITH_KNOTS('',1,(#81,#82,#83,#84,#85,#86,#87,#88,
    #89,#90,#91),.UNSPECIFIED.,.F.,.F.,(2,1,1,1,1,1,1,1,1,1,2),(0.,
    0.142840418202,0.361163850716,0.410746739862,0.48870268423,
    0.553827186002,0.734717320419,0.788421021038,0.812028084299,
    0.895154273084,1.),.UNSPECIFIED.);
#81 = CARTESIAN_POINT('',(150.,16.963527573544,0.));
#82 = CARTESIAN_POINT('',(128.32401832799,12.795252485708,0.));
#83 = CARTESIAN_POINT('',(94.588335772741,12.444346100214,0.));
#84 = CARTESIAN_POINT('',(89.248267624475,17.938938415229,0.));
#85 = CARTESIAN_POINT('',(78.536289247068,12.427827205109,0.));
#86 = CARTESIAN_POINT('',(68.476865154556,12.720663780608,0.));
#87 = CARTESIAN_POINT('',(40.524506836163,12.540008346271,0.));
#88 = CARTESIAN_POINT('',(32.25790152843,13.270632980798,0.));
#89 = CARTESIAN_POINT('',(28.618884618038,13.014808244297,0.));
#90 = CARTESIAN_POINT('',(15.810696883719,13.992978286221,0.));
#91 = CARTESIAN_POINT('',(0.,17.531385038995,0.));
#92 = PCURVE('',#40,#93);
#93 = DEFINITIONAL_REPRESENTATION('',(#94),#106);
#94 = B_SPLINE_CURVE_WITH_KNOTS('',1,(#95,#96,#97,#98,#99,#100,#101,#102
    ,#103,#104,#105),.UNSPECIFIED.,.F.,.F.,(2,1,1,1,1,1,1,1,1,1,2),(0.,
    0.142840418202,0.361163850716,0.410746739862,0.48870268423,
    0.553827186002,0.734717320419,0.788421021038,0.812028084299,
    0.895154273084,1.),.UNSPECIFIED.);
#95 = CARTESIAN_POINT('',(74.975653581128,9.463527573544));
#96 = CARTESIAN_POINT('',(53.299671909126,5.295252485708));
#97 = CARTESIAN_POINT('',(19.56398935387,4.944346100214));
#98 = CARTESIAN_POINT('',(14.223921205604,10.438938415229));
#99 = CARTESIAN_POINT('',(3.511942828197,4.927827205109));
#100 = CARTESIAN_POINT('',(-6.547481264316,5.220663780608));
#101 = CARTESIAN_POINT('',(-34.4998395827,5.040008346271));
#102 = CARTESIAN_POINT('',(-42.76644489044,5.770632980798));
#103 = CARTESIAN_POINT('',(-46.40546180083,5.514808244297));
#104 = CARTESIAN_POINT('',(-59.21364953515,6.492978286221));
#105 = CARTESIAN_POINT('',(-75.02434641887,10.031385038995));
#106 = ( GEOMETRIC_REPRESENTATION_CONTEXT(2) 
PARAMETRIC_REPRESENTATION_CONTEXT() REPRESENTATION_CONTEXT('2D SPACE',''
  ) );
#107 = ORIENTED_EDGE('',*,*,#108,.T.);
#108 = EDGE_CURVE('',#77,#22,#109,.T.);
#109 = SURFACE_CURVE('',#110,(#114),.PCURVE_S1.);
#110 = LINE('',#111,#112);
#111 = CARTESIAN_POINT('',(0.,17.531385038995,0.));
#112 = VECTOR('',#113,1.);
#113 = DIRECTION('',(0.,-1.,0.));
#114 = PCURVE('',#40,#115);
#115 = DEFINITIONAL_REPRESENTATION('',(#116),#120);
#116 = LINE('',#117,#118);
#117 = CARTESIAN_POINT('',(-75.02434641887,10.031385038995));
#118 = VECTOR('',#119,1.);
#119 = DIRECTION('',(0.,-1.));
#120 = ( GEOMETRIC_REPRESENTATION_CONTEXT(2) 
PARAMETRIC_REPRESENTATION_CONTEXT() REPRESENTATION_CONTEXT('2D SPACE',''
  ) );
#121 = ( GEOMETRIC_REPRESENTATION_CONTEXT(3) 
GLOBAL_UNCERTAINTY_ASSIGNED_CONTEXT((#125)) GLOBAL_UNIT_ASSIGNED_CONTEXT
((#122,#123,#124)) REPRESENTATION_CONTEXT('Context #1',
  '3D Context with UNIT and UNCERTAINTY') );
#122 = ( LENGTH_UNIT() NAMED_UNIT(*) SI_UNIT(.MILLI.,.METRE.) );
#123 = ( NAMED_UNIT(*) PLANE_ANGLE_UNIT() SI_UNIT($,.RADIAN.) );
#124 = ( NAMED_UNIT(*) SI_UNIT($,.STERADIAN.) SOLID_ANGLE_UNIT() );
#125 = UNCERTAINTY_MEASURE_WITH_UNIT(LENGTH_MEASURE(1.E-07),#122,
  'distance_accuracy_value','confusion accuracy');
#126 = PRODUCT_RELATED_PRODUCT_CATEGORY('part',$,(#7));
ENDSEC;
END-ISO-10303-21;
