ISO-10303-21;
HEADER;
FILE_DESCRIPTION(('Open CASCADE Model'),'2;1');
FILE_NAME('Open CASCADE Shape Model','2026-06-04T12:09:59',('Author'),(
    'Open CASCADE'),'Open CASCADE STEP processor 7.9','Open CASCADE 7.9'
  ,'Unknown');
FILE_SCHEMA(('AUTOMOTIVE_DESIGN { 1 0 10303 214 1 1 1 1 }'));
ENDSEC;
DATA;
#1 = APPLICATION_PROTOCOL_DEFINITION('international standard',
  'automotive_design',2000,#2);
#2 = APPLICATION_CONTEXT(
  'core data for automotive mechanical design processes');
#3 = SHAPE_DEFINITION_REPRESENTATION(#4,#10);
#4 = PRODUCT_DEFINITION_SHAPE('','',#5);
#5 = PRODUCT_DEFINITION('design','',#6,#9);
#6 = PRODUCT_DEFINITION_FORMATION('','',#7);
#7 = PRODUCT('Open CASCADE STEP translator 7.9 98',
  'Open CASCADE STEP translator 7.9 98','',(#8));
#8 = PRODUCT_CONTEXT('',#2,'mechanical');
#9 = PRODUCT_DEFINITION_CONTEXT('part definition',#2,'design');
#10 = MANIFOLD_SURFACE_SHAPE_REPRESENTATION('',(#11,#15),#121);
#11 = AXIS2_PLACEMENT_3D('',#12,#13,#14);
#12 = CARTESIAN_POINT('',(0.,0.,0.));
#13 = DIRECTION('',(0.,0.,1.));
#14 = DIRECTION('',(1.,0.,-0.));
#15 = SHELL_BASED_SURFACE_MODEL('',(#16));
#16 = OPEN_SHELL('',(#17));
#17 = ADVANCED_FACE('',(#18),#40,.T.);
#18 = FACE_BOUND('',#19,.T.);
#19 = EDGE_LOOP('',(#20,#59,#75,#107));
#20 = ORIENTED_EDGE('',*,*,#21,.T.);
#21 = EDGE_CURVE('',#22,#24,#26,.T.);
#22 = VERTEX_POINT('',#23);
#23 = CARTESIAN_POINT('',(0.,1.191596179679,0.));
#24 = VERTEX_POINT('',#25);
#25 = CARTESIAN_POINT('',(150.,-1.300510500982,0.));
#26 = SURFACE_CURVE('',#27,(#39),.PCURVE_S1.);
#27 = B_SPLINE_CURVE_WITH_KNOTS('',1,(#28,#29,#30,#31,#32,#33,#34,#35,
    #36,#37,#38),.UNSPECIFIED.,.F.,.F.,(2,1,1,1,1,1,1,1,1,1,2),(0.,
    8.032712310365E-02,0.132510010584,0.242929288468,0.348190210723,
    0.384596050868,0.507684708669,0.562130581839,0.774503540924,
    0.926987250827,1.),.UNSPECIFIED.);
#28 = CARTESIAN_POINT('',(0.,1.191596179679,0.));
#29 = CARTESIAN_POINT('',(12.135567536964,2.813582399581,0.));
#30 = CARTESIAN_POINT('',(19.789082013685,0.64897374054,0.));
#31 = CARTESIAN_POINT('',(36.579887213713,1.798899416491,0.));
#32 = CARTESIAN_POINT('',(52.363340169971,-1.080209612447,0.));
#33 = CARTESIAN_POINT('',(57.036403548261,1.912071247405,0.));
#34 = CARTESIAN_POINT('',(75.562483492073,-1.048876514435,0.));
#35 = CARTESIAN_POINT('',(83.485647250452,1.419147430864,0.));
#36 = CARTESIAN_POINT('',(115.85090958202,0.868692995273,0.));
#37 = CARTESIAN_POINT('',(139.09248592413,0.906836087722,0.));
#38 = CARTESIAN_POINT('',(150.,-1.300510500982,0.));
#39 = PCURVE('',#40,#45);
#40 = PLANE('',#41);
#41 = AXIS2_PLACEMENT_3D('',#42,#43,#44);
#42 = CARTESIAN_POINT('',(75.891301601104,7.5,0.));
#43 = DIRECTION('',(0.,0.,1.));
#44 = DIRECTION('',(1.,0.,-0.));
#45 = DEFINITIONAL_REPRESENTATION('',(#46),#58);
#46 = B_SPLINE_CURVE_WITH_KNOTS('',1,(#47,#48,#49,#50,#51,#52,#53,#54,
    #55,#56,#57),.UNSPECIFIED.,.F.,.F.,(2,1,1,1,1,1,1,1,1,1,2),(0.,
    8.032712310365E-02,0.132510010584,0.242929288468,0.348190210723,
    0.384596050868,0.507684708669,0.562130581839,0.774503540924,
    0.926987250827,1.),.UNSPECIFIED.);
#47 = CARTESIAN_POINT('',(-75.8913016011,-6.308403820321));
#48 = CARTESIAN_POINT('',(-63.75573406414,-4.686417600419));
#49 = CARTESIAN_POINT('',(-56.10221958741,-6.85102625946));
#50 = CARTESIAN_POINT('',(-39.31141438739,-5.701100583509));
#51 = CARTESIAN_POINT('',(-23.52796143113,-8.580209612447));
#52 = CARTESIAN_POINT('',(-18.85489805284,-5.587928752595));
#53 = CARTESIAN_POINT('',(-0.328818109031,-8.548876514435));
#54 = CARTESIAN_POINT('',(7.594345649348,-6.080852569136));
#55 = CARTESIAN_POINT('',(39.959607980916,-6.631307004727));
#56 = CARTESIAN_POINT('',(63.201184323028,-6.593163912278));
#57 = CARTESIAN_POINT('',(74.108698398896,-8.800510500982));
#58 = ( GEOMETRIC_REPRESENTATION_CONTEXT(2) 
PARAMETRIC_REPRESENTATION_CONTEXT() REPRESENTATION_CONTEXT('2D SPACE',''
  ) );
#59 = ORIENTED_EDGE('',*,*,#60,.T.);
#60 = EDGE_CURVE('',#24,#61,#63,.T.);
#61 = VERTEX_POINT('',#62);
#62 = CARTESIAN_POINT('',(150.,16.300510500982,0.));
#63 = SURFACE_CURVE('',#64,(#68),.PCURVE_S1.);
#64 = LINE('',#65,#66);
#65 = CARTESIAN_POINT('',(150.,-1.300510500982,0.));
#66 = VECTOR('',#67,1.);
#67 = DIRECTION('',(0.,1.,0.));
#68 = PCURVE('',#40,#69);
#69 = DEFINITIONAL_REPRESENTATION('',(#70),#74);
#70 = LINE('',#71,#72);
#71 = CARTESIAN_POINT('',(74.108698398896,-8.800510500982));
#72 = VECTOR('',#73,1.);
#73 = DIRECTION('',(0.,1.));
#74 = ( GEOMETRIC_REPRESENTATION_CONTEXT(2) 
PARAMETRIC_REPRESENTATION_CONTEXT() REPRESENTATION_CONTEXT('2D SPACE',''
  ) );
#75 = ORIENTED_EDGE('',*,*,#76,.T.);
#76 = EDGE_CURVE('',#61,#77,#79,.T.);
#77 = VERTEX_POINT('',#78);
#78 = CARTESIAN_POINT('',(0.,13.808403820321,0.));
#79 = SURFACE_CURVE('',#80,(#92),.PCURVE_S1.);
#80 = B_SPLINE_CURVE_WITH_KNOTS('',1,(#81,#82,#83,#84,#85,#86,#87,#88,
    #89,#90,#91),.UNSPECIFIED.,.F.,.F.,(2,1,1,1,1,1,1,1,1,1,2),(0.,
    7.301274917277E-02,0.225496459076,0.437869418161,0.492315291331,
    0.615403949132,0.651809789277,0.757070711532,0.867489989416,
    0.919672876896,1.),.UNSPECIFIED.);
#81 = CARTESIAN_POINT('',(150.,16.300510500982,0.));
#82 = CARTESIAN_POINT('',(139.09248592413,14.093163912278,0.));
#83 = CARTESIAN_POINT('',(115.85090958202,14.131307004727,0.));
#84 = CARTESIAN_POINT('',(83.485647250452,13.580852569136,0.));
#85 = CARTESIAN_POINT('',(75.562483492073,16.048876514435,0.));
#86 = CARTESIAN_POINT('',(57.036403548261,13.087928752595,0.));
#87 = CARTESIAN_POINT('',(52.363340169971,16.080209612447,0.));
#88 = CARTESIAN_POINT('',(36.579887213713,13.201100583509,0.));
#89 = CARTESIAN_POINT('',(19.789082013685,14.35102625946,0.));
#90 = CARTESIAN_POINT('',(12.135567536964,12.186417600419,0.));
#91 = CARTESIAN_POINT('',(0.,13.808403820321,0.));
#92 = PCURVE('',#40,#93);
#93 = DEFINITIONAL_REPRESENTATION('',(#94),#106);
#94 = B_SPLINE_CURVE_WITH_KNOTS('',1,(#95,#96,#97,#98,#99,#100,#101,#102
    ,#103,#104,#105),.UNSPECIFIED.,.F.,.F.,(2,1,1,1,1,1,1,1,1,1,2),(0.,
    7.301274917277E-02,0.225496459076,0.437869418161,0.492315291331,
    0.615403949132,0.651809789277,0.757070711532,0.867489989416,
    0.919672876896,1.),.UNSPECIFIED.);
#95 = CARTESIAN_POINT('',(74.108698398896,8.800510500982));
#96 = CARTESIAN_POINT('',(63.201184323028,6.593163912278));
#97 = CARTESIAN_POINT('',(39.959607980916,6.631307004727));
#98 = CARTESIAN_POINT('',(7.594345649348,6.080852569136));
#99 = CARTESIAN_POINT('',(-0.328818109031,8.548876514435));
#100 = CARTESIAN_POINT('',(-18.85489805284,5.587928752595));
#101 = CARTESIAN_POINT('',(-23.52796143113,8.580209612447));
#102 = CARTESIAN_POINT('',(-39.31141438739,5.701100583509));
#103 = CARTESIAN_POINT('',(-56.10221958741,6.85102625946));
#104 = CARTESIAN_POINT('',(-63.75573406414,4.686417600419));
#105 = CARTESIAN_POINT('',(-75.8913016011,6.308403820321));
#106 = ( GEOMETRIC_REPRESENTATION_CONTEXT(2) 
PARAMETRIC_REPRESENTATION_CONTEXT() REPRESENTATION_CONTEXT('2D SPACE',''
  ) );
#107 = ORIENTED_EDGE('',*,*,#108,.T.);
#108 = EDGE_CURVE('',#77,#22,#109,.T.);
#109 = SURFACE_CURVE('',#110,(#114),.PCURVE_S1.);
#110 = LINE('',#111,#112);
#111 = CARTESIAN_POINT('',(0.,13.808403820321,0.));
#112 = VECTOR('',#113,1.);
#113 = DIRECTION('',(0.,-1.,0.));
#114 = PCURVE('',#40,#115);
#115 = DEFINITIONAL_REPRESENTATION('',(#116),#120);
#116 = LINE('',#117,#118);
#117 = CARTESIAN_POINT('',(-75.8913016011,6.308403820321));
#118 = VECTOR('',#119,1.);
#119 = DIRECTION('',(0.,-1.));
#120 = ( GEOMETRIC_REPRESENTATION_CONTEXT(2) 
PARAMETRIC_REPRESENTATION_CONTEXT() REPRESENTATION_CONTEXT('2D SPACE',''
  ) );
#121 = ( GEOMETRIC_REPRESENTATION_CONTEXT(3) 
GLOBAL_UNCERTAINTY_ASSIGNED_CONTEXT((#125)) GLOBAL_UNIT_ASSIGNED_CONTEXT
((#122,#123,#124)) REPRESENTATION_CONTEXT('Context #1',
  '3D Context with UNIT and UNCERTAINTY') );
#122 = ( LENGTH_UNIT() NAMED_UNIT(*) SI_UNIT(.MILLI.,.METRE.) );
#123 = ( NAMED_UNIT(*) PLANE_ANGLE_UNIT() SI_UNIT($,.RADIAN.) );
#124 = ( NAMED_UNIT(*) SI_UNIT($,.STERADIAN.) SOLID_ANGLE_UNIT() );
#125 = UNCERTAINTY_MEASURE_WITH_UNIT(LENGTH_MEASURE(1.E-07),#122,
  'distance_accuracy_value','confusion accuracy');
#126 = PRODUCT_RELATED_PRODUCT_CATEGORY('part',$,(#7));
ENDSEC;
END-ISO-10303-21;
