ISO-10303-21;
HEADER;
FILE_DESCRIPTION(('Open CASCADE Model'),'2;1');
FILE_NAME('Open CASCADE Shape Model','2026-06-04T12:09:59',('Author'),(
    'Open CASCADE'),'Open CASCADE STEP processor 7.9','Open CASCADE 7.9'
  ,'Unknown');
FILE_SCHEMA(('AUTOMOTIVE_DESIGN { 1 0 10303 214 1 1 1 1 }'));
ENDSEC;
DATA;
#1 = APPLICATION_PROTOCOL_DEFINITION('international standard',
  'automotive_design',2000,#2);
#2 = APPLICATION_CONTEXT(
  'core data for automotive mechanical design processes');
#3 = SHAPE_DEFINITION_REPRESENTATION(#4,#10);
#4 = PRODUCT_DEFINITION_SHAPE('','',#5);
#5 = PRODUCT_DEFINITION('design','',#6,#9);
#6 = PRODUCT_DEFINITION_FORMATION('','',#7);
#7 = PRODUCT('Open CASCADE STEP translator 7.9 49',
  'Open CASCADE STEP translator 7.9 49','',(#8));
#8 = PRODUCT_CONTEXT('',#2,'mechanical');
#9 = PRODUCT_DEFINITION_CONTEXT('part definition',#2,'design');
#10 = MANIFOLD_SURFACE_SHAPE_REPRESENTATION('',(#11,#15),#121);
#11 = AXIS2_PLACEMENT_3D('',#12,#13,#14);
#12 = CARTESIAN_POINT('',(0.,0.,0.));
#13 = DIRECTION('',(0.,0.,1.));
#14 = DIRECTION('',(1.,0.,-0.));
#15 = SHELL_BASED_SURFACE_MODEL('',(#16));
#16 = OPEN_SHELL('',(#17));
#17 = ADVANCED_FACE('',(#18),#40,.T.);
#18 = FACE_BOUND('',#19,.T.);
#19 = EDGE_LOOP('',(#20,#59,#75,#107));
#20 = ORIENTED_EDGE('',*,*,#21,.T.);
#21 = EDGE_CURVE('',#22,#24,#26,.T.);
#22 = VERTEX_POINT('',#23);
#23 = CARTESIAN_POINT('',(0.,2.245157890126,0.));
#24 = VERTEX_POINT('',#25);
#25 = CARTESIAN_POINT('',(150.,1.519917736643,0.));
#26 = SURFACE_CURVE('',#27,(#39),.PCURVE_S1.);
#27 = B_SPLINE_CURVE_WITH_KNOTS('',1,(#28,#29,#30,#31,#32,#33,#34,#35,
    #36,#37,#38),.UNSPECIFIED.,.F.,.F.,(2,1,1,1,1,1,1,1,1,1,2),(0.,
    9.37105226189E-02,0.247607110102,0.280463858328,0.437894271472,
    0.67125631919,0.815272586613,0.868414352318,0.913846513683,
    0.960986601145,1.),.UNSPECIFIED.);
#28 = CARTESIAN_POINT('',(0.,2.245157890126,0.));
#29 = CARTESIAN_POINT('',(14.318272397086,2.449657925646,0.));
#30 = CARTESIAN_POINT('',(37.579802912259,-1.004939538881,0.));
#31 = CARTESIAN_POINT('',(42.600068321349,-0.933106430058,0.));
#32 = CARTESIAN_POINT('',(66.656679482355,-0.977458285261,0.));
#33 = CARTESIAN_POINT('',(102.10689946314,2.881401327944,0.));
#34 = CARTESIAN_POINT('',(124.03664692279,1.040718943969,0.));
#35 = CARTESIAN_POINT('',(132.12032257138,1.813140916445,0.));
#36 = CARTESIAN_POINT('',(138.12634618977,-1.668908535264,0.));
#37 = CARTESIAN_POINT('',(145.31271724649,-2.163782408377,0.));
#38 = CARTESIAN_POINT('',(150.,1.519917736643,0.));
#39 = PCURVE('',#40,#45);
#40 = PLANE('',#41);
#41 = AXIS2_PLACEMENT_3D('',#42,#43,#44);
#42 = CARTESIAN_POINT('',(76.210867998839,7.5,0.));
#43 = DIRECTION('',(0.,0.,1.));
#44 = DIRECTION('',(1.,0.,-0.));
#45 = DEFINITIONAL_REPRESENTATION('',(#46),#58);
#46 = B_SPLINE_CURVE_WITH_KNOTS('',1,(#47,#48,#49,#50,#51,#52,#53,#54,
    #55,#56,#57),.UNSPECIFIED.,.F.,.F.,(2,1,1,1,1,1,1,1,1,1,2),(0.,
    9.37105226189E-02,0.247607110102,0.280463858328,0.437894271472,
    0.67125631919,0.815272586613,0.868414352318,0.913846513683,
    0.960986601145,1.),.UNSPECIFIED.);
#47 = CARTESIAN_POINT('',(-76.21086799883,-5.254842109874));
#48 = CARTESIAN_POINT('',(-61.89259560175,-5.050342074354));
#49 = CARTESIAN_POINT('',(-38.63106508658,-8.504939538881));
#50 = CARTESIAN_POINT('',(-33.61079967749,-8.433106430058));
#51 = CARTESIAN_POINT('',(-9.554188516483,-8.477458285261));
#52 = CARTESIAN_POINT('',(25.896031464304,-4.618598672056));
#53 = CARTESIAN_POINT('',(47.825778923955,-6.459281056031));
#54 = CARTESIAN_POINT('',(55.909454572546,-5.686859083555));
#55 = CARTESIAN_POINT('',(61.915478190935,-9.168908535264));
#56 = CARTESIAN_POINT('',(69.101849247658,-9.663782408377));
#57 = CARTESIAN_POINT('',(73.789132001161,-5.980082263357));
#58 = ( GEOMETRIC_REPRESENTATION_CONTEXT(2) 
PARAMETRIC_REPRESENTATION_CONTEXT() REPRESENTATION_CONTEXT('2D SPACE',''
  ) );
#59 = ORIENTED_EDGE('',*,*,#60,.T.);
#60 = EDGE_CURVE('',#24,#61,#63,.T.);
#61 = VERTEX_POINT('',#62);
#62 = CARTESIAN_POINT('',(150.,13.480082263357,0.));
#63 = SURFACE_CURVE('',#64,(#68),.PCURVE_S1.);
#64 = LINE('',#65,#66);
#65 = CARTESIAN_POINT('',(150.,1.519917736643,0.));
#66 = VECTOR('',#67,1.);
#67 = DIRECTION('',(0.,1.,0.));
#68 = PCURVE('',#40,#69);
#69 = DEFINITIONAL_REPRESENTATION('',(#70),#74);
#70 = LINE('',#71,#72);
#71 = CARTESIAN_POINT('',(73.789132001161,-5.980082263357));
#72 = VECTOR('',#73,1.);
#73 = DIRECTION('',(0.,1.));
#74 = ( GEOMETRIC_REPRESENTATION_CONTEXT(2) 
PARAMETRIC_REPRESENTATION_CONTEXT() REPRESENTATION_CONTEXT('2D SPACE',''
  ) );
#75 = ORIENTED_EDGE('',*,*,#76,.T.);
#76 = EDGE_CURVE('',#61,#77,#79,.T.);
#77 = VERTEX_POINT('',#78);
#78 = CARTESIAN_POINT('',(0.,12.754842109874,0.));
#79 = SURFACE_CURVE('',#80,(#92),.PCURVE_S1.);
#80 = B_SPLINE_CURVE_WITH_KNOTS('',1,(#81,#82,#83,#84,#85,#86,#87,#88,
    #89,#90,#91),.UNSPECIFIED.,.F.,.F.,(2,1,1,1,1,1,1,1,1,1,2),(0.,
    3.901339885487E-02,8.615348631734E-02,0.131585647682,0.184727413387,
    0.32874368081,0.562105728528,0.719536141672,0.752392889898,
    0.906289477381,1.),.UNSPECIFIED.);
#81 = CARTESIAN_POINT('',(150.,13.480082263357,0.));
#82 = CARTESIAN_POINT('',(145.31271724649,17.163782408377,0.));
#83 = CARTESIAN_POINT('',(138.12634618977,16.668908535264,0.));
#84 = CARTESIAN_POINT('',(132.12032257138,13.186859083555,0.));
#85 = CARTESIAN_POINT('',(124.03664692279,13.959281056031,0.));
#86 = CARTESIAN_POINT('',(102.10689946314,12.118598672056,0.));
#87 = CARTESIAN_POINT('',(66.656679482355,15.977458285261,0.));
#88 = CARTESIAN_POINT('',(42.600068321349,15.933106430058,0.));
#89 = CARTESIAN_POINT('',(37.579802912259,16.004939538881,0.));
#90 = CARTESIAN_POINT('',(14.318272397086,12.550342074354,0.));
#91 = CARTESIAN_POINT('',(0.,12.754842109874,0.));
#92 = PCURVE('',#40,#93);
#93 = DEFINITIONAL_REPRESENTATION('',(#94),#106);
#94 = B_SPLINE_CURVE_WITH_KNOTS('',1,(#95,#96,#97,#98,#99,#100,#101,#102
    ,#103,#104,#105),.UNSPECIFIED.,.F.,.F.,(2,1,1,1,1,1,1,1,1,1,2),(0.,
    3.901339885487E-02,8.615348631734E-02,0.131585647682,0.184727413387,
    0.32874368081,0.562105728528,0.719536141672,0.752392889898,
    0.906289477381,1.),.UNSPECIFIED.);
#95 = CARTESIAN_POINT('',(73.789132001161,5.980082263357));
#96 = CARTESIAN_POINT('',(69.101849247658,9.663782408377));
#97 = CARTESIAN_POINT('',(61.915478190935,9.168908535264));
#98 = CARTESIAN_POINT('',(55.909454572546,5.686859083555));
#99 = CARTESIAN_POINT('',(47.825778923955,6.459281056031));
#100 = CARTESIAN_POINT('',(25.896031464304,4.618598672056));
#101 = CARTESIAN_POINT('',(-9.554188516483,8.477458285261));
#102 = CARTESIAN_POINT('',(-33.61079967749,8.433106430058));
#103 = CARTESIAN_POINT('',(-38.63106508658,8.504939538881));
#104 = CARTESIAN_POINT('',(-61.89259560175,5.050342074354));
#105 = CARTESIAN_POINT('',(-76.21086799883,5.254842109874));
#106 = ( GEOMETRIC_REPRESENTATION_CONTEXT(2) 
PARAMETRIC_REPRESENTATION_CONTEXT() REPRESENTATION_CONTEXT('2D SPACE',''
  ) );
#107 = ORIENTED_EDGE('',*,*,#108,.T.);
#108 = EDGE_CURVE('',#77,#22,#109,.T.);
#109 = SURFACE_CURVE('',#110,(#114),.PCURVE_S1.);
#110 = LINE('',#111,#112);
#111 = CARTESIAN_POINT('',(0.,12.754842109874,0.));
#112 = VECTOR('',#113,1.);
#113 = DIRECTION('',(0.,-1.,0.));
#114 = PCURVE('',#40,#115);
#115 = DEFINITIONAL_REPRESENTATION('',(#116),#120);
#116 = LINE('',#117,#118);
#117 = CARTESIAN_POINT('',(-76.21086799883,5.254842109874));
#118 = VECTOR('',#119,1.);
#119 = DIRECTION('',(0.,-1.));
#120 = ( GEOMETRIC_REPRESENTATION_CONTEXT(2) 
PARAMETRIC_REPRESENTATION_CONTEXT() REPRESENTATION_CONTEXT('2D SPACE',''
  ) );
#121 = ( GEOMETRIC_REPRESENTATION_CONTEXT(3) 
GLOBAL_UNCERTAINTY_ASSIGNED_CONTEXT((#125)) GLOBAL_UNIT_ASSIGNED_CONTEXT
((#122,#123,#124)) REPRESENTATION_CONTEXT('Context #1',
  '3D Context with UNIT and UNCERTAINTY') );
#122 = ( LENGTH_UNIT() NAMED_UNIT(*) SI_UNIT(.MILLI.,.METRE.) );
#123 = ( NAMED_UNIT(*) PLANE_ANGLE_UNIT() SI_UNIT($,.RADIAN.) );
#124 = ( NAMED_UNIT(*) SI_UNIT($,.STERADIAN.) SOLID_ANGLE_UNIT() );
#125 = UNCERTAINTY_MEASURE_WITH_UNIT(LENGTH_MEASURE(1.E-07),#122,
  'distance_accuracy_value','confusion accuracy');
#126 = PRODUCT_RELATED_PRODUCT_CATEGORY('part',$,(#7));
ENDSEC;
END-ISO-10303-21;
