ISO-10303-21;
HEADER;
FILE_DESCRIPTION(('Open CASCADE Model'),'2;1');
FILE_NAME('Open CASCADE Shape Model','2026-06-04T12:09:58',('Author'),(
    'Open CASCADE'),'Open CASCADE STEP processor 7.9','Open CASCADE 7.9'
  ,'Unknown');
FILE_SCHEMA(('AUTOMOTIVE_DESIGN { 1 0 10303 214 1 1 1 1 }'));
ENDSEC;
DATA;
#1 = APPLICATION_PROTOCOL_DEFINITION('international standard',
  'automotive_design',2000,#2);
#2 = APPLICATION_CONTEXT(
  'core data for automotive mechanical design processes');
#3 = SHAPE_DEFINITION_REPRESENTATION(#4,#10);
#4 = PRODUCT_DEFINITION_SHAPE('','',#5);
#5 = PRODUCT_DEFINITION('design','',#6,#9);
#6 = PRODUCT_DEFINITION_FORMATION('','',#7);
#7 = PRODUCT('Open CASCADE STEP translator 7.9 14',
  'Open CASCADE STEP translator 7.9 14','',(#8));
#8 = PRODUCT_CONTEXT('',#2,'mechanical');
#9 = PRODUCT_DEFINITION_CONTEXT('part definition',#2,'design');
#10 = MANIFOLD_SURFACE_SHAPE_REPRESENTATION('',(#11,#15),#121);
#11 = AXIS2_PLACEMENT_3D('',#12,#13,#14);
#12 = CARTESIAN_POINT('',(0.,0.,0.));
#13 = DIRECTION('',(0.,0.,1.));
#14 = DIRECTION('',(1.,0.,-0.));
#15 = SHELL_BASED_SURFACE_MODEL('',(#16));
#16 = OPEN_SHELL('',(#17));
#17 = ADVANCED_FACE('',(#18),#40,.T.);
#18 = FACE_BOUND('',#19,.T.);
#19 = EDGE_LOOP('',(#20,#59,#75,#107));
#20 = ORIENTED_EDGE('',*,*,#21,.T.);
#21 = EDGE_CURVE('',#22,#24,#26,.T.);
#22 = VERTEX_POINT('',#23);
#23 = CARTESIAN_POINT('',(0.,0.502425445781,0.));
#24 = VERTEX_POINT('',#25);
#25 = CARTESIAN_POINT('',(150.,-2.415918863566,0.));
#26 = SURFACE_CURVE('',#27,(#39),.PCURVE_S1.);
#27 = B_SPLINE_CURVE_WITH_KNOTS('',1,(#28,#29,#30,#31,#32,#33,#34,#35,
    #36,#37,#38),.UNSPECIFIED.,.F.,.F.,(2,1,1,1,1,1,1,1,1,1,2),(0.,
    0.102794747741,0.226343826013,0.267250968361,0.637424694735,
    0.72627176597,0.767098520785,0.81313488085,0.89754898564,
    0.94192519064,1.),.UNSPECIFIED.);
#28 = CARTESIAN_POINT('',(0.,0.502425445781,0.));
#29 = CARTESIAN_POINT('',(16.080356637042,2.704475280434,0.));
#30 = CARTESIAN_POINT('',(35.490400468912,0.758315169243,0.));
#31 = CARTESIAN_POINT('',(41.886167339931,-0.142517692306,0.));
#32 = CARTESIAN_POINT('',(100.27861198173,2.389968582578,0.));
#33 = CARTESIAN_POINT('',(113.60198404339,-2.000751322731,0.));
#34 = CARTESIAN_POINT('',(118.02544432865,2.688228801209,0.));
#35 = CARTESIAN_POINT('',(123.06585264994,-2.549051214108,0.));
#36 = CARTESIAN_POINT('',(135.43910104436,2.405321150521,0.));
#37 = CARTESIAN_POINT('',(140.83732720587,-2.061449709587,0.));
#38 = CARTESIAN_POINT('',(150.,-2.415918863566,0.));
#39 = PCURVE('',#40,#45);
#40 = PLANE('',#41);
#41 = AXIS2_PLACEMENT_3D('',#42,#43,#44);
#42 = CARTESIAN_POINT('',(78.214648998473,7.5,0.));
#43 = DIRECTION('',(0.,0.,1.));
#44 = DIRECTION('',(1.,0.,-0.));
#45 = DEFINITIONAL_REPRESENTATION('',(#46),#58);
#46 = B_SPLINE_CURVE_WITH_KNOTS('',1,(#47,#48,#49,#50,#51,#52,#53,#54,
    #55,#56,#57),.UNSPECIFIED.,.F.,.F.,(2,1,1,1,1,1,1,1,1,1,2),(0.,
    0.102794747741,0.226343826013,0.267250968361,0.637424694735,
    0.72627176597,0.767098520785,0.81313488085,0.89754898564,
    0.94192519064,1.),.UNSPECIFIED.);
#47 = CARTESIAN_POINT('',(-78.21464899847,-6.997574554219));
#48 = CARTESIAN_POINT('',(-62.13429236143,-4.795524719566));
#49 = CARTESIAN_POINT('',(-42.72424852956,-6.741684830757));
#50 = CARTESIAN_POINT('',(-36.32848165854,-7.642517692306));
#51 = CARTESIAN_POINT('',(22.063962983262,-5.110031417422));
#52 = CARTESIAN_POINT('',(35.38733504492,-9.500751322731));
#53 = CARTESIAN_POINT('',(39.810795330182,-4.811771198791));
#54 = CARTESIAN_POINT('',(44.851203651472,-10.0490512141));
#55 = CARTESIAN_POINT('',(57.224452045894,-5.094678849479));
#56 = CARTESIAN_POINT('',(62.622678207398,-9.561449709587));
#57 = CARTESIAN_POINT('',(71.785351001527,-9.915918863566));
#58 = ( GEOMETRIC_REPRESENTATION_CONTEXT(2) 
PARAMETRIC_REPRESENTATION_CONTEXT() REPRESENTATION_CONTEXT('2D SPACE',''
  ) );
#59 = ORIENTED_EDGE('',*,*,#60,.T.);
#60 = EDGE_CURVE('',#24,#61,#63,.T.);
#61 = VERTEX_POINT('',#62);
#62 = CARTESIAN_POINT('',(150.,17.415918863566,0.));
#63 = SURFACE_CURVE('',#64,(#68),.PCURVE_S1.);
#64 = LINE('',#65,#66);
#65 = CARTESIAN_POINT('',(150.,-2.415918863566,0.));
#66 = VECTOR('',#67,1.);
#67 = DIRECTION('',(0.,1.,0.));
#68 = PCURVE('',#40,#69);
#69 = DEFINITIONAL_REPRESENTATION('',(#70),#74);
#70 = LINE('',#71,#72);
#71 = CARTESIAN_POINT('',(71.785351001527,-9.915918863566));
#72 = VECTOR('',#73,1.);
#73 = DIRECTION('',(0.,1.));
#74 = ( GEOMETRIC_REPRESENTATION_CONTEXT(2) 
PARAMETRIC_REPRESENTATION_CONTEXT() REPRESENTATION_CONTEXT('2D SPACE',''
  ) );
#75 = ORIENTED_EDGE('',*,*,#76,.T.);
#76 = EDGE_CURVE('',#61,#77,#79,.T.);
#77 = VERTEX_POINT('',#78);
#78 = CARTESIAN_POINT('',(0.,14.497574554219,0.));
#79 = SURFACE_CURVE('',#80,(#92),.PCURVE_S1.);
#80 = B_SPLINE_CURVE_WITH_KNOTS('',1,(#81,#82,#83,#84,#85,#86,#87,#88,
    #89,#90,#91),.UNSPECIFIED.,.F.,.F.,(2,1,1,1,1,1,1,1,1,1,2),(0.,
    5.807480936031E-02,0.10245101436,0.18686511915,0.232901479215,
    0.27372823403,0.362575305265,0.732749031639,0.773656173987,
    0.897205252259,1.),.UNSPECIFIED.);
#81 = CARTESIAN_POINT('',(150.,17.415918863566,0.));
#82 = CARTESIAN_POINT('',(140.83732720587,17.061449709587,0.));
#83 = CARTESIAN_POINT('',(135.43910104436,12.594678849479,0.));
#84 = CARTESIAN_POINT('',(123.06585264994,17.549051214108,0.));
#85 = CARTESIAN_POINT('',(118.02544432865,12.311771198791,0.));
#86 = CARTESIAN_POINT('',(113.60198404339,17.000751322731,0.));
#87 = CARTESIAN_POINT('',(100.27861198173,12.610031417422,0.));
#88 = CARTESIAN_POINT('',(41.886167339931,15.142517692306,0.));
#89 = CARTESIAN_POINT('',(35.490400468912,14.241684830757,0.));
#90 = CARTESIAN_POINT('',(16.080356637042,12.295524719566,0.));
#91 = CARTESIAN_POINT('',(0.,14.497574554219,0.));
#92 = PCURVE('',#40,#93);
#93 = DEFINITIONAL_REPRESENTATION('',(#94),#106);
#94 = B_SPLINE_CURVE_WITH_KNOTS('',1,(#95,#96,#97,#98,#99,#100,#101,#102
    ,#103,#104,#105),.UNSPECIFIED.,.F.,.F.,(2,1,1,1,1,1,1,1,1,1,2),(0.,
    5.807480936031E-02,0.10245101436,0.18686511915,0.232901479215,
    0.27372823403,0.362575305265,0.732749031639,0.773656173987,
    0.897205252259,1.),.UNSPECIFIED.);
#95 = CARTESIAN_POINT('',(71.785351001527,9.915918863566));
#96 = CARTESIAN_POINT('',(62.622678207398,9.561449709587));
#97 = CARTESIAN_POINT('',(57.224452045894,5.094678849479));
#98 = CARTESIAN_POINT('',(44.851203651472,10.049051214108));
#99 = CARTESIAN_POINT('',(39.810795330182,4.811771198791));
#100 = CARTESIAN_POINT('',(35.38733504492,9.500751322731));
#101 = CARTESIAN_POINT('',(22.063962983262,5.110031417422));
#102 = CARTESIAN_POINT('',(-36.32848165854,7.642517692306));
#103 = CARTESIAN_POINT('',(-42.72424852956,6.741684830757));
#104 = CARTESIAN_POINT('',(-62.13429236143,4.795524719566));
#105 = CARTESIAN_POINT('',(-78.21464899847,6.997574554219));
#106 = ( GEOMETRIC_REPRESENTATION_CONTEXT(2) 
PARAMETRIC_REPRESENTATION_CONTEXT() REPRESENTATION_CONTEXT('2D SPACE',''
  ) );
#107 = ORIENTED_EDGE('',*,*,#108,.T.);
#108 = EDGE_CURVE('',#77,#22,#109,.T.);
#109 = SURFACE_CURVE('',#110,(#114),.PCURVE_S1.);
#110 = LINE('',#111,#112);
#111 = CARTESIAN_POINT('',(0.,14.497574554219,0.));
#112 = VECTOR('',#113,1.);
#113 = DIRECTION('',(0.,-1.,0.));
#114 = PCURVE('',#40,#115);
#115 = DEFINITIONAL_REPRESENTATION('',(#116),#120);
#116 = LINE('',#117,#118);
#117 = CARTESIAN_POINT('',(-78.21464899847,6.997574554219));
#118 = VECTOR('',#119,1.);
#119 = DIRECTION('',(0.,-1.));
#120 = ( GEOMETRIC_REPRESENTATION_CONTEXT(2) 
PARAMETRIC_REPRESENTATION_CONTEXT() REPRESENTATION_CONTEXT('2D SPACE',''
  ) );
#121 = ( GEOMETRIC_REPRESENTATION_CONTEXT(3) 
GLOBAL_UNCERTAINTY_ASSIGNED_CONTEXT((#125)) GLOBAL_UNIT_ASSIGNED_CONTEXT
((#122,#123,#124)) REPRESENTATION_CONTEXT('Context #1',
  '3D Context with UNIT and UNCERTAINTY') );
#122 = ( LENGTH_UNIT() NAMED_UNIT(*) SI_UNIT(.MILLI.,.METRE.) );
#123 = ( NAMED_UNIT(*) PLANE_ANGLE_UNIT() SI_UNIT($,.RADIAN.) );
#124 = ( NAMED_UNIT(*) SI_UNIT($,.STERADIAN.) SOLID_ANGLE_UNIT() );
#125 = UNCERTAINTY_MEASURE_WITH_UNIT(LENGTH_MEASURE(1.E-07),#122,
  'distance_accuracy_value','confusion accuracy');
#126 = PRODUCT_RELATED_PRODUCT_CATEGORY('part',$,(#7));
ENDSEC;
END-ISO-10303-21;
