ISO-10303-21;
HEADER;
FILE_DESCRIPTION(('Open CASCADE Model'),'2;1');
FILE_NAME('Open CASCADE Shape Model','2026-06-04T12:09:59',('Author'),(
    'Open CASCADE'),'Open CASCADE STEP processor 7.9','Open CASCADE 7.9'
  ,'Unknown');
FILE_SCHEMA(('AUTOMOTIVE_DESIGN { 1 0 10303 214 1 1 1 1 }'));
ENDSEC;
DATA;
#1 = APPLICATION_PROTOCOL_DEFINITION('international standard',
  'automotive_design',2000,#2);
#2 = APPLICATION_CONTEXT(
  'core data for automotive mechanical design processes');
#3 = SHAPE_DEFINITION_REPRESENTATION(#4,#10);
#4 = PRODUCT_DEFINITION_SHAPE('','',#5);
#5 = PRODUCT_DEFINITION('design','',#6,#9);
#6 = PRODUCT_DEFINITION_FORMATION('','',#7);
#7 = PRODUCT('Open CASCADE STEP translator 7.9 67',
  'Open CASCADE STEP translator 7.9 67','',(#8));
#8 = PRODUCT_CONTEXT('',#2,'mechanical');
#9 = PRODUCT_DEFINITION_CONTEXT('part definition',#2,'design');
#10 = MANIFOLD_SURFACE_SHAPE_REPRESENTATION('',(#11,#15),#121);
#11 = AXIS2_PLACEMENT_3D('',#12,#13,#14);
#12 = CARTESIAN_POINT('',(0.,0.,0.));
#13 = DIRECTION('',(0.,0.,1.));
#14 = DIRECTION('',(1.,0.,-0.));
#15 = SHELL_BASED_SURFACE_MODEL('',(#16));
#16 = OPEN_SHELL('',(#17));
#17 = ADVANCED_FACE('',(#18),#40,.T.);
#18 = FACE_BOUND('',#19,.T.);
#19 = EDGE_LOOP('',(#20,#59,#75,#107));
#20 = ORIENTED_EDGE('',*,*,#21,.T.);
#21 = EDGE_CURVE('',#22,#24,#26,.T.);
#22 = VERTEX_POINT('',#23);
#23 = CARTESIAN_POINT('',(0.,-1.229029938259,0.));
#24 = VERTEX_POINT('',#25);
#25 = CARTESIAN_POINT('',(150.,-2.584106931268,0.));
#26 = SURFACE_CURVE('',#27,(#39),.PCURVE_S1.);
#27 = B_SPLINE_CURVE_WITH_KNOTS('',1,(#28,#29,#30,#31,#32,#33,#34,#35,
    #36,#37,#38),.UNSPECIFIED.,.F.,.F.,(2,1,1,1,1,1,1,1,1,1,2),(0.,
    0.153175318648,0.185995833845,0.316646426077,0.465418810176,
    0.514586195043,0.650984223651,0.756773717617,0.811146247079,
    0.918401166066,1.),.UNSPECIFIED.);
#28 = CARTESIAN_POINT('',(0.,-1.229029938259,0.));
#29 = CARTESIAN_POINT('',(23.206927170778,0.102369663169,0.));
#30 = CARTESIAN_POINT('',(28.185052210705,0.261576852589,0.));
#31 = CARTESIAN_POINT('',(48.007447768697,0.681951256661,0.));
#32 = CARTESIAN_POINT('',(70.583880812477,0.830405822564,0.));
#33 = CARTESIAN_POINT('',(78.043108554074,0.650958949893,0.));
#34 = CARTESIAN_POINT('',(98.662827907527,2.461480588493,0.));
#35 = CARTESIAN_POINT('',(114.71671969428,2.535383488437,0.));
#36 = CARTESIAN_POINT('',(121.81044486936,-1.679219063234,0.));
#37 = CARTESIAN_POINT('',(137.96320306092,0.323562642479,0.));
#38 = CARTESIAN_POINT('',(150.,-2.584106931268,0.));
#39 = PCURVE('',#40,#45);
#40 = PLANE('',#41);
#41 = AXIS2_PLACEMENT_3D('',#42,#43,#44);
#42 = CARTESIAN_POINT('',(76.059572603259,7.5,0.));
#43 = DIRECTION('',(0.,0.,1.));
#44 = DIRECTION('',(1.,0.,-0.));
#45 = DEFINITIONAL_REPRESENTATION('',(#46),#58);
#46 = B_SPLINE_CURVE_WITH_KNOTS('',1,(#47,#48,#49,#50,#51,#52,#53,#54,
    #55,#56,#57),.UNSPECIFIED.,.F.,.F.,(2,1,1,1,1,1,1,1,1,1,2),(0.,
    0.153175318648,0.185995833845,0.316646426077,0.465418810176,
    0.514586195043,0.650984223651,0.756773717617,0.811146247079,
    0.918401166066,1.),.UNSPECIFIED.);
#47 = CARTESIAN_POINT('',(-76.05957260325,-8.729029938259));
#48 = CARTESIAN_POINT('',(-52.85264543248,-7.397630336831));
#49 = CARTESIAN_POINT('',(-47.87452039255,-7.238423147411));
#50 = CARTESIAN_POINT('',(-28.05212483456,-6.818048743339));
#51 = CARTESIAN_POINT('',(-5.475691790783,-6.669594177436));
#52 = CARTESIAN_POINT('',(1.983535950814,-6.849041050107));
#53 = CARTESIAN_POINT('',(22.603255304268,-5.038519411507));
#54 = CARTESIAN_POINT('',(38.657147091024,-4.964616511563));
#55 = CARTESIAN_POINT('',(45.75087226611,-9.179219063234));
#56 = CARTESIAN_POINT('',(61.903630457662,-7.176437357521));
#57 = CARTESIAN_POINT('',(73.940427396741,-10.08410693126));
#58 = ( GEOMETRIC_REPRESENTATION_CONTEXT(2) 
PARAMETRIC_REPRESENTATION_CONTEXT() REPRESENTATION_CONTEXT('2D SPACE',''
  ) );
#59 = ORIENTED_EDGE('',*,*,#60,.T.);
#60 = EDGE_CURVE('',#24,#61,#63,.T.);
#61 = VERTEX_POINT('',#62);
#62 = CARTESIAN_POINT('',(150.,17.584106931268,0.));
#63 = SURFACE_CURVE('',#64,(#68),.PCURVE_S1.);
#64 = LINE('',#65,#66);
#65 = CARTESIAN_POINT('',(150.,-2.584106931268,0.));
#66 = VECTOR('',#67,1.);
#67 = DIRECTION('',(0.,1.,0.));
#68 = PCURVE('',#40,#69);
#69 = DEFINITIONAL_REPRESENTATION('',(#70),#74);
#70 = LINE('',#71,#72);
#71 = CARTESIAN_POINT('',(73.940427396741,-10.08410693126));
#72 = VECTOR('',#73,1.);
#73 = DIRECTION('',(0.,1.));
#74 = ( GEOMETRIC_REPRESENTATION_CONTEXT(2) 
PARAMETRIC_REPRESENTATION_CONTEXT() REPRESENTATION_CONTEXT('2D SPACE',''
  ) );
#75 = ORIENTED_EDGE('',*,*,#76,.T.);
#76 = EDGE_CURVE('',#61,#77,#79,.T.);
#77 = VERTEX_POINT('',#78);
#78 = CARTESIAN_POINT('',(0.,16.229029938259,0.));
#79 = SURFACE_CURVE('',#80,(#92),.PCURVE_S1.);
#80 = B_SPLINE_CURVE_WITH_KNOTS('',1,(#81,#82,#83,#84,#85,#86,#87,#88,
    #89,#90,#91),.UNSPECIFIED.,.F.,.F.,(2,1,1,1,1,1,1,1,1,1,2),(0.,
    8.159883393428E-02,0.188853752921,0.243226282383,0.349015776349,
    0.485413804957,0.534581189824,0.683353573923,0.814004166155,
    0.846824681352,1.),.UNSPECIFIED.);
#81 = CARTESIAN_POINT('',(150.,17.584106931268,0.));
#82 = CARTESIAN_POINT('',(137.96320306092,14.676437357521,0.));
#83 = CARTESIAN_POINT('',(121.81044486936,16.679219063234,0.));
#84 = CARTESIAN_POINT('',(114.71671969428,12.464616511563,0.));
#85 = CARTESIAN_POINT('',(98.662827907527,12.538519411507,0.));
#86 = CARTESIAN_POINT('',(78.043108554074,14.349041050107,0.));
#87 = CARTESIAN_POINT('',(70.583880812477,14.169594177436,0.));
#88 = CARTESIAN_POINT('',(48.007447768697,14.318048743339,0.));
#89 = CARTESIAN_POINT('',(28.185052210705,14.738423147411,0.));
#90 = CARTESIAN_POINT('',(23.206927170778,14.897630336831,0.));
#91 = CARTESIAN_POINT('',(0.,16.229029938259,0.));
#92 = PCURVE('',#40,#93);
#93 = DEFINITIONAL_REPRESENTATION('',(#94),#106);
#94 = B_SPLINE_CURVE_WITH_KNOTS('',1,(#95,#96,#97,#98,#99,#100,#101,#102
    ,#103,#104,#105),.UNSPECIFIED.,.F.,.F.,(2,1,1,1,1,1,1,1,1,1,2),(0.,
    8.159883393428E-02,0.188853752921,0.243226282383,0.349015776349,
    0.485413804957,0.534581189824,0.683353573923,0.814004166155,
    0.846824681352,1.),.UNSPECIFIED.);
#95 = CARTESIAN_POINT('',(73.940427396741,10.084106931268));
#96 = CARTESIAN_POINT('',(61.903630457662,7.176437357521));
#97 = CARTESIAN_POINT('',(45.75087226611,9.179219063234));
#98 = CARTESIAN_POINT('',(38.657147091024,4.964616511563));
#99 = CARTESIAN_POINT('',(22.603255304268,5.038519411507));
#100 = CARTESIAN_POINT('',(1.983535950814,6.849041050107));
#101 = CARTESIAN_POINT('',(-5.475691790783,6.669594177436));
#102 = CARTESIAN_POINT('',(-28.05212483456,6.818048743339));
#103 = CARTESIAN_POINT('',(-47.87452039255,7.238423147411));
#104 = CARTESIAN_POINT('',(-52.85264543248,7.397630336831));
#105 = CARTESIAN_POINT('',(-76.05957260325,8.729029938259));
#106 = ( GEOMETRIC_REPRESENTATION_CONTEXT(2) 
PARAMETRIC_REPRESENTATION_CONTEXT() REPRESENTATION_CONTEXT('2D SPACE',''
  ) );
#107 = ORIENTED_EDGE('',*,*,#108,.T.);
#108 = EDGE_CURVE('',#77,#22,#109,.T.);
#109 = SURFACE_CURVE('',#110,(#114),.PCURVE_S1.);
#110 = LINE('',#111,#112);
#111 = CARTESIAN_POINT('',(0.,16.229029938259,0.));
#112 = VECTOR('',#113,1.);
#113 = DIRECTION('',(0.,-1.,0.));
#114 = PCURVE('',#40,#115);
#115 = DEFINITIONAL_REPRESENTATION('',(#116),#120);
#116 = LINE('',#117,#118);
#117 = CARTESIAN_POINT('',(-76.05957260325,8.729029938259));
#118 = VECTOR('',#119,1.);
#119 = DIRECTION('',(0.,-1.));
#120 = ( GEOMETRIC_REPRESENTATION_CONTEXT(2) 
PARAMETRIC_REPRESENTATION_CONTEXT() REPRESENTATION_CONTEXT('2D SPACE',''
  ) );
#121 = ( GEOMETRIC_REPRESENTATION_CONTEXT(3) 
GLOBAL_UNCERTAINTY_ASSIGNED_CONTEXT((#125)) GLOBAL_UNIT_ASSIGNED_CONTEXT
((#122,#123,#124)) REPRESENTATION_CONTEXT('Context #1',
  '3D Context with UNIT and UNCERTAINTY') );
#122 = ( LENGTH_UNIT() NAMED_UNIT(*) SI_UNIT(.MILLI.,.METRE.) );
#123 = ( NAMED_UNIT(*) PLANE_ANGLE_UNIT() SI_UNIT($,.RADIAN.) );
#124 = ( NAMED_UNIT(*) SI_UNIT($,.STERADIAN.) SOLID_ANGLE_UNIT() );
#125 = UNCERTAINTY_MEASURE_WITH_UNIT(LENGTH_MEASURE(1.E-07),#122,
  'distance_accuracy_value','confusion accuracy');
#126 = PRODUCT_RELATED_PRODUCT_CATEGORY('part',$,(#7));
ENDSEC;
END-ISO-10303-21;
