ISO-10303-21;
HEADER;
FILE_DESCRIPTION(('Open CASCADE Model'),'2;1');
FILE_NAME('Open CASCADE Shape Model','2026-06-04T12:09:59',('Author'),(
    'Open CASCADE'),'Open CASCADE STEP processor 7.9','Open CASCADE 7.9'
  ,'Unknown');
FILE_SCHEMA(('AUTOMOTIVE_DESIGN { 1 0 10303 214 1 1 1 1 }'));
ENDSEC;
DATA;
#1 = APPLICATION_PROTOCOL_DEFINITION('international standard',
  'automotive_design',2000,#2);
#2 = APPLICATION_CONTEXT(
  'core data for automotive mechanical design processes');
#3 = SHAPE_DEFINITION_REPRESENTATION(#4,#10);
#4 = PRODUCT_DEFINITION_SHAPE('','',#5);
#5 = PRODUCT_DEFINITION('design','',#6,#9);
#6 = PRODUCT_DEFINITION_FORMATION('','',#7);
#7 = PRODUCT('Open CASCADE STEP translator 7.9 24',
  'Open CASCADE STEP translator 7.9 24','',(#8));
#8 = PRODUCT_CONTEXT('',#2,'mechanical');
#9 = PRODUCT_DEFINITION_CONTEXT('part definition',#2,'design');
#10 = MANIFOLD_SURFACE_SHAPE_REPRESENTATION('',(#11,#15),#121);
#11 = AXIS2_PLACEMENT_3D('',#12,#13,#14);
#12 = CARTESIAN_POINT('',(0.,0.,0.));
#13 = DIRECTION('',(0.,0.,1.));
#14 = DIRECTION('',(1.,0.,-0.));
#15 = SHELL_BASED_SURFACE_MODEL('',(#16));
#16 = OPEN_SHELL('',(#17));
#17 = ADVANCED_FACE('',(#18),#40,.T.);
#18 = FACE_BOUND('',#19,.T.);
#19 = EDGE_LOOP('',(#20,#59,#75,#107));
#20 = ORIENTED_EDGE('',*,*,#21,.T.);
#21 = EDGE_CURVE('',#22,#24,#26,.T.);
#22 = VERTEX_POINT('',#23);
#23 = CARTESIAN_POINT('',(0.,-7.643546764055E-02,0.));
#24 = VERTEX_POINT('',#25);
#25 = CARTESIAN_POINT('',(150.,2.304859653988,0.));
#26 = SURFACE_CURVE('',#27,(#39),.PCURVE_S1.);
#27 = B_SPLINE_CURVE_WITH_KNOTS('',1,(#28,#29,#30,#31,#32,#33,#34,#35,
    #36,#37,#38),.UNSPECIFIED.,.F.,.F.,(2,1,1,1,1,1,1,1,1,1,2),(0.,
    2.624121329374E-02,0.173094330583,0.322829686581,0.355997449509,
    0.382985872769,0.667193480674,0.717192197114,0.799027552241,
    0.871907703129,1.),.UNSPECIFIED.);
#28 = CARTESIAN_POINT('',(0.,-7.643546764055E-02,0.));
#29 = CARTESIAN_POINT('',(3.762625980516,-1.420234130893,0.));
#30 = CARTESIAN_POINT('',(26.10389604439,-2.318417320342,0.));
#31 = CARTESIAN_POINT('',(48.901104502794,-2.526343183771,0.));
#32 = CARTESIAN_POINT('',(53.286280883981,-2.17975510986E-02,0.));
#33 = CARTESIAN_POINT('',(57.394225917883,-0.121650688443,0.));
#34 = CARTESIAN_POINT('',(100.63410488946,-1.799222464583,0.));
#35 = CARTESIAN_POINT('',(107.66754224763,1.113295849535,0.));
#36 = CARTESIAN_POINT('',(119.7259797747,-2.02429417407,0.));
#37 = CARTESIAN_POINT('',(130.62965891055,3.515012089546E-02,0.));
#38 = CARTESIAN_POINT('',(150.,2.304859653988,0.));
#39 = PCURVE('',#40,#45);
#40 = PLANE('',#41);
#41 = AXIS2_PLACEMENT_3D('',#42,#43,#44);
#42 = CARTESIAN_POINT('',(74.019724709871,7.5,0.));
#43 = DIRECTION('',(0.,0.,1.));
#44 = DIRECTION('',(1.,0.,-0.));
#45 = DEFINITIONAL_REPRESENTATION('',(#46),#58);
#46 = B_SPLINE_CURVE_WITH_KNOTS('',1,(#47,#48,#49,#50,#51,#52,#53,#54,
    #55,#56,#57),.UNSPECIFIED.,.F.,.F.,(2,1,1,1,1,1,1,1,1,1,2),(0.,
    2.624121329374E-02,0.173094330583,0.322829686581,0.355997449509,
    0.382985872769,0.667193480674,0.717192197114,0.799027552241,
    0.871907703129,1.),.UNSPECIFIED.);
#47 = CARTESIAN_POINT('',(-74.01972470987,-7.576435467641));
#48 = CARTESIAN_POINT('',(-70.25709872935,-8.920234130893));
#49 = CARTESIAN_POINT('',(-47.91582866548,-9.818417320342));
#50 = CARTESIAN_POINT('',(-25.11862020707,-10.02634318377));
#51 = CARTESIAN_POINT('',(-20.73344382589,-7.521797551099));
#52 = CARTESIAN_POINT('',(-16.62549879198,-7.621650688443));
#53 = CARTESIAN_POINT('',(26.614380179591,-9.299222464583));
#54 = CARTESIAN_POINT('',(33.647817537767,-6.386704150465));
#55 = CARTESIAN_POINT('',(45.706255064834,-9.52429417407));
#56 = CARTESIAN_POINT('',(56.609934200684,-7.464849879105));
#57 = CARTESIAN_POINT('',(75.980275290129,-5.195140346012));
#58 = ( GEOMETRIC_REPRESENTATION_CONTEXT(2) 
PARAMETRIC_REPRESENTATION_CONTEXT() REPRESENTATION_CONTEXT('2D SPACE',''
  ) );
#59 = ORIENTED_EDGE('',*,*,#60,.T.);
#60 = EDGE_CURVE('',#24,#61,#63,.T.);
#61 = VERTEX_POINT('',#62);
#62 = CARTESIAN_POINT('',(150.,12.695140346012,0.));
#63 = SURFACE_CURVE('',#64,(#68),.PCURVE_S1.);
#64 = LINE('',#65,#66);
#65 = CARTESIAN_POINT('',(150.,2.304859653988,0.));
#66 = VECTOR('',#67,1.);
#67 = DIRECTION('',(0.,1.,0.));
#68 = PCURVE('',#40,#69);
#69 = DEFINITIONAL_REPRESENTATION('',(#70),#74);
#70 = LINE('',#71,#72);
#71 = CARTESIAN_POINT('',(75.980275290129,-5.195140346012));
#72 = VECTOR('',#73,1.);
#73 = DIRECTION('',(0.,1.));
#74 = ( GEOMETRIC_REPRESENTATION_CONTEXT(2) 
PARAMETRIC_REPRESENTATION_CONTEXT() REPRESENTATION_CONTEXT('2D SPACE',''
  ) );
#75 = ORIENTED_EDGE('',*,*,#76,.T.);
#76 = EDGE_CURVE('',#61,#77,#79,.T.);
#77 = VERTEX_POINT('',#78);
#78 = CARTESIAN_POINT('',(0.,15.076435467641,0.));
#79 = SURFACE_CURVE('',#80,(#92),.PCURVE_S1.);
#80 = B_SPLINE_CURVE_WITH_KNOTS('',1,(#81,#82,#83,#84,#85,#86,#87,#88,
    #89,#90,#91),.UNSPECIFIED.,.F.,.F.,(2,1,1,1,1,1,1,1,1,1,2),(0.,
    0.128092296871,0.200972447759,0.282807802886,0.332806519326,
    0.617014127231,0.644002550491,0.677170313419,0.826905669417,
    0.973758786706,1.),.UNSPECIFIED.);
#81 = CARTESIAN_POINT('',(150.,12.695140346012,0.));
#82 = CARTESIAN_POINT('',(130.62965891055,14.964849879105,0.));
#83 = CARTESIAN_POINT('',(119.7259797747,17.02429417407,0.));
#84 = CARTESIAN_POINT('',(107.66754224763,13.886704150465,0.));
#85 = CARTESIAN_POINT('',(100.63410488946,16.799222464583,0.));
#86 = CARTESIAN_POINT('',(57.394225917883,15.121650688443,0.));
#87 = CARTESIAN_POINT('',(53.286280883981,15.021797551099,0.));
#88 = CARTESIAN_POINT('',(48.901104502794,17.526343183771,0.));
#89 = CARTESIAN_POINT('',(26.10389604439,17.318417320342,0.));
#90 = CARTESIAN_POINT('',(3.762625980516,16.420234130893,0.));
#91 = CARTESIAN_POINT('',(0.,15.076435467641,0.));
#92 = PCURVE('',#40,#93);
#93 = DEFINITIONAL_REPRESENTATION('',(#94),#106);
#94 = B_SPLINE_CURVE_WITH_KNOTS('',1,(#95,#96,#97,#98,#99,#100,#101,#102
    ,#103,#104,#105),.UNSPECIFIED.,.F.,.F.,(2,1,1,1,1,1,1,1,1,1,2),(0.,
    0.128092296871,0.200972447759,0.282807802886,0.332806519326,
    0.617014127231,0.644002550491,0.677170313419,0.826905669417,
    0.973758786706,1.),.UNSPECIFIED.);
#95 = CARTESIAN_POINT('',(75.980275290129,5.195140346012));
#96 = CARTESIAN_POINT('',(56.609934200684,7.464849879105));
#97 = CARTESIAN_POINT('',(45.706255064834,9.52429417407));
#98 = CARTESIAN_POINT('',(33.647817537767,6.386704150465));
#99 = CARTESIAN_POINT('',(26.614380179591,9.299222464583));
#100 = CARTESIAN_POINT('',(-16.62549879198,7.621650688443));
#101 = CARTESIAN_POINT('',(-20.73344382589,7.521797551099));
#102 = CARTESIAN_POINT('',(-25.11862020707,10.026343183771));
#103 = CARTESIAN_POINT('',(-47.91582866548,9.818417320342));
#104 = CARTESIAN_POINT('',(-70.25709872935,8.920234130893));
#105 = CARTESIAN_POINT('',(-74.01972470987,7.576435467641));
#106 = ( GEOMETRIC_REPRESENTATION_CONTEXT(2) 
PARAMETRIC_REPRESENTATION_CONTEXT() REPRESENTATION_CONTEXT('2D SPACE',''
  ) );
#107 = ORIENTED_EDGE('',*,*,#108,.T.);
#108 = EDGE_CURVE('',#77,#22,#109,.T.);
#109 = SURFACE_CURVE('',#110,(#114),.PCURVE_S1.);
#110 = LINE('',#111,#112);
#111 = CARTESIAN_POINT('',(0.,15.076435467641,0.));
#112 = VECTOR('',#113,1.);
#113 = DIRECTION('',(0.,-1.,0.));
#114 = PCURVE('',#40,#115);
#115 = DEFINITIONAL_REPRESENTATION('',(#116),#120);
#116 = LINE('',#117,#118);
#117 = CARTESIAN_POINT('',(-74.01972470987,7.576435467641));
#118 = VECTOR('',#119,1.);
#119 = DIRECTION('',(0.,-1.));
#120 = ( GEOMETRIC_REPRESENTATION_CONTEXT(2) 
PARAMETRIC_REPRESENTATION_CONTEXT() REPRESENTATION_CONTEXT('2D SPACE',''
  ) );
#121 = ( GEOMETRIC_REPRESENTATION_CONTEXT(3) 
GLOBAL_UNCERTAINTY_ASSIGNED_CONTEXT((#125)) GLOBAL_UNIT_ASSIGNED_CONTEXT
((#122,#123,#124)) REPRESENTATION_CONTEXT('Context #1',
  '3D Context with UNIT and UNCERTAINTY') );
#122 = ( LENGTH_UNIT() NAMED_UNIT(*) SI_UNIT(.MILLI.,.METRE.) );
#123 = ( NAMED_UNIT(*) PLANE_ANGLE_UNIT() SI_UNIT($,.RADIAN.) );
#124 = ( NAMED_UNIT(*) SI_UNIT($,.STERADIAN.) SOLID_ANGLE_UNIT() );
#125 = UNCERTAINTY_MEASURE_WITH_UNIT(LENGTH_MEASURE(1.E-07),#122,
  'distance_accuracy_value','confusion accuracy');
#126 = PRODUCT_RELATED_PRODUCT_CATEGORY('part',$,(#7));
ENDSEC;
END-ISO-10303-21;
