ISO-10303-21;
HEADER;
FILE_DESCRIPTION(('Open CASCADE Model'),'2;1');
FILE_NAME('Open CASCADE Shape Model','2026-06-01T11:13:06',('Author'),(
    'Open CASCADE'),'Open CASCADE STEP processor 7.9','Open CASCADE 7.9'
  ,'Unknown');
FILE_SCHEMA(('AUTOMOTIVE_DESIGN { 1 0 10303 214 1 1 1 1 }'));
ENDSEC;
DATA;
#1 = APPLICATION_PROTOCOL_DEFINITION('international standard',
  'automotive_design',2000,#2);
#2 = APPLICATION_CONTEXT(
  'core data for automotive mechanical design processes');
#3 = SHAPE_DEFINITION_REPRESENTATION(#4,#10);
#4 = PRODUCT_DEFINITION_SHAPE('','',#5);
#5 = PRODUCT_DEFINITION('design','',#6,#9);
#6 = PRODUCT_DEFINITION_FORMATION('','',#7);
#7 = PRODUCT('Open CASCADE STEP translator 7.9 74',
  'Open CASCADE STEP translator 7.9 74','',(#8));
#8 = PRODUCT_CONTEXT('',#2,'mechanical');
#9 = PRODUCT_DEFINITION_CONTEXT('part definition',#2,'design');
#10 = MANIFOLD_SURFACE_SHAPE_REPRESENTATION('',(#11,#15),#121);
#11 = AXIS2_PLACEMENT_3D('',#12,#13,#14);
#12 = CARTESIAN_POINT('',(0.,0.,0.));
#13 = DIRECTION('',(0.,0.,1.));
#14 = DIRECTION('',(1.,0.,-0.));
#15 = SHELL_BASED_SURFACE_MODEL('',(#16));
#16 = OPEN_SHELL('',(#17));
#17 = ADVANCED_FACE('',(#18),#40,.T.);
#18 = FACE_BOUND('',#19,.T.);
#19 = EDGE_LOOP('',(#20,#59,#75,#107));
#20 = ORIENTED_EDGE('',*,*,#21,.T.);
#21 = EDGE_CURVE('',#22,#24,#26,.T.);
#22 = VERTEX_POINT('',#23);
#23 = CARTESIAN_POINT('',(0.,0.833738509233,0.));
#24 = VERTEX_POINT('',#25);
#25 = CARTESIAN_POINT('',(150.,-3.509091063651,0.));
#26 = SURFACE_CURVE('',#27,(#39),.PCURVE_S1.);
#27 = B_SPLINE_CURVE_WITH_KNOTS('',1,(#28,#29,#30,#31,#32,#33,#34,#35,
    #36,#37,#38),.UNSPECIFIED.,.F.,.F.,(2,1,1,1,1,1,1,1,1,1,2),(0.,
    5.289012889843E-02,0.150110315265,0.297592966653,0.512417914751,
    0.596263819059,0.655612579486,0.684423791767,0.707786500223,
    0.903491722595,1.),.UNSPECIFIED.);
#28 = CARTESIAN_POINT('',(0.,0.833738509233,0.));
#29 = CARTESIAN_POINT('',(7.954161899125,-0.613506161622,0.));
#30 = CARTESIAN_POINT('',(22.814479941687,-0.46946432974,0.));
#31 = CARTESIAN_POINT('',(45.212756335922,-3.029517369294,0.));
#32 = CARTESIAN_POINT('',(77.390560801582,3.52208607064,0.));
#33 = CARTESIAN_POINT('',(90.164217732942,2.47340100505,0.));
#34 = CARTESIAN_POINT('',(97.659868504131,-2.637044810637,0.));
#35 = CARTESIAN_POINT('',(102.03619657252,-3.130531805013,0.));
#36 = CARTESIAN_POINT('',(105.35334968427,-4.453417922588,0.));
#37 = CARTESIAN_POINT('',(135.24859803917,-3.356208147484,0.));
#38 = CARTESIAN_POINT('',(150.,-3.509091063651,0.));
#39 = PCURVE('',#40,#45);
#40 = PLANE('',#41);
#41 = AXIS2_PLACEMENT_3D('',#42,#43,#44);
#42 = CARTESIAN_POINT('',(76.996714795153,7.5,0.));
#43 = DIRECTION('',(0.,0.,1.));
#44 = DIRECTION('',(1.,0.,-0.));
#45 = DEFINITIONAL_REPRESENTATION('',(#46),#58);
#46 = B_SPLINE_CURVE_WITH_KNOTS('',1,(#47,#48,#49,#50,#51,#52,#53,#54,
    #55,#56,#57),.UNSPECIFIED.,.F.,.F.,(2,1,1,1,1,1,1,1,1,1,2),(0.,
    5.289012889843E-02,0.150110315265,0.297592966653,0.512417914751,
    0.596263819059,0.655612579486,0.684423791767,0.707786500223,
    0.903491722595,1.),.UNSPECIFIED.);
#47 = CARTESIAN_POINT('',(-76.99671479515,-6.666261490767));
#48 = CARTESIAN_POINT('',(-69.04255289602,-8.113506161622));
#49 = CARTESIAN_POINT('',(-54.18223485346,-7.96946432974));
#50 = CARTESIAN_POINT('',(-31.78395845923,-10.52951736929));
#51 = CARTESIAN_POINT('',(0.393846006429,-3.97791392936));
#52 = CARTESIAN_POINT('',(13.167502937789,-5.02659899495));
#53 = CARTESIAN_POINT('',(20.663153708978,-10.13704481063));
#54 = CARTESIAN_POINT('',(25.039481777367,-10.63053180501));
#55 = CARTESIAN_POINT('',(28.356634889126,-11.95341792258));
#56 = CARTESIAN_POINT('',(58.251883244021,-10.85620814748));
#57 = CARTESIAN_POINT('',(73.003285204847,-11.00909106365));
#58 = ( GEOMETRIC_REPRESENTATION_CONTEXT(2) 
PARAMETRIC_REPRESENTATION_CONTEXT() REPRESENTATION_CONTEXT('2D SPACE',''
  ) );
#59 = ORIENTED_EDGE('',*,*,#60,.T.);
#60 = EDGE_CURVE('',#24,#61,#63,.T.);
#61 = VERTEX_POINT('',#62);
#62 = CARTESIAN_POINT('',(150.,18.509091063651,0.));
#63 = SURFACE_CURVE('',#64,(#68),.PCURVE_S1.);
#64 = LINE('',#65,#66);
#65 = CARTESIAN_POINT('',(150.,-3.509091063651,0.));
#66 = VECTOR('',#67,1.);
#67 = DIRECTION('',(0.,1.,0.));
#68 = PCURVE('',#40,#69);
#69 = DEFINITIONAL_REPRESENTATION('',(#70),#74);
#70 = LINE('',#71,#72);
#71 = CARTESIAN_POINT('',(73.003285204847,-11.00909106365));
#72 = VECTOR('',#73,1.);
#73 = DIRECTION('',(0.,1.));
#74 = ( GEOMETRIC_REPRESENTATION_CONTEXT(2) 
PARAMETRIC_REPRESENTATION_CONTEXT() REPRESENTATION_CONTEXT('2D SPACE',''
  ) );
#75 = ORIENTED_EDGE('',*,*,#76,.T.);
#76 = EDGE_CURVE('',#61,#77,#79,.T.);
#77 = VERTEX_POINT('',#78);
#78 = CARTESIAN_POINT('',(0.,14.166261490767,0.));
#79 = SURFACE_CURVE('',#80,(#92),.PCURVE_S1.);
#80 = B_SPLINE_CURVE_WITH_KNOTS('',1,(#81,#82,#83,#84,#85,#86,#87,#88,
    #89,#90,#91),.UNSPECIFIED.,.F.,.F.,(2,1,1,1,1,1,1,1,1,1,2),(0.,
    9.650827740518E-02,0.292213499777,0.315576208233,0.344387420514,
    0.403736180941,0.487582085249,0.702407033347,0.849889684735,
    0.947109871102,1.),.UNSPECIFIED.);
#81 = CARTESIAN_POINT('',(150.,18.509091063651,0.));
#82 = CARTESIAN_POINT('',(135.24859803917,18.356208147484,0.));
#83 = CARTESIAN_POINT('',(105.35334968427,19.453417922588,0.));
#84 = CARTESIAN_POINT('',(102.03619657252,18.130531805013,0.));
#85 = CARTESIAN_POINT('',(97.659868504131,17.637044810637,0.));
#86 = CARTESIAN_POINT('',(90.164217732942,12.52659899495,0.));
#87 = CARTESIAN_POINT('',(77.390560801582,11.47791392936,0.));
#88 = CARTESIAN_POINT('',(45.212756335922,18.029517369294,0.));
#89 = CARTESIAN_POINT('',(22.814479941687,15.46946432974,0.));
#90 = CARTESIAN_POINT('',(7.954161899125,15.613506161622,0.));
#91 = CARTESIAN_POINT('',(0.,14.166261490767,0.));
#92 = PCURVE('',#40,#93);
#93 = DEFINITIONAL_REPRESENTATION('',(#94),#106);
#94 = B_SPLINE_CURVE_WITH_KNOTS('',1,(#95,#96,#97,#98,#99,#100,#101,#102
    ,#103,#104,#105),.UNSPECIFIED.,.F.,.F.,(2,1,1,1,1,1,1,1,1,1,2),(0.,
    9.650827740518E-02,0.292213499777,0.315576208233,0.344387420514,
    0.403736180941,0.487582085249,0.702407033347,0.849889684735,
    0.947109871102,1.),.UNSPECIFIED.);
#95 = CARTESIAN_POINT('',(73.003285204847,11.009091063651));
#96 = CARTESIAN_POINT('',(58.251883244021,10.856208147484));
#97 = CARTESIAN_POINT('',(28.356634889126,11.953417922588));
#98 = CARTESIAN_POINT('',(25.039481777367,10.630531805013));
#99 = CARTESIAN_POINT('',(20.663153708978,10.137044810637));
#100 = CARTESIAN_POINT('',(13.167502937789,5.02659899495));
#101 = CARTESIAN_POINT('',(0.393846006429,3.97791392936));
#102 = CARTESIAN_POINT('',(-31.78395845923,10.529517369294));
#103 = CARTESIAN_POINT('',(-54.18223485346,7.96946432974));
#104 = CARTESIAN_POINT('',(-69.04255289602,8.113506161622));
#105 = CARTESIAN_POINT('',(-76.99671479515,6.666261490767));
#106 = ( GEOMETRIC_REPRESENTATION_CONTEXT(2) 
PARAMETRIC_REPRESENTATION_CONTEXT() REPRESENTATION_CONTEXT('2D SPACE',''
  ) );
#107 = ORIENTED_EDGE('',*,*,#108,.T.);
#108 = EDGE_CURVE('',#77,#22,#109,.T.);
#109 = SURFACE_CURVE('',#110,(#114),.PCURVE_S1.);
#110 = LINE('',#111,#112);
#111 = CARTESIAN_POINT('',(0.,14.166261490767,0.));
#112 = VECTOR('',#113,1.);
#113 = DIRECTION('',(0.,-1.,0.));
#114 = PCURVE('',#40,#115);
#115 = DEFINITIONAL_REPRESENTATION('',(#116),#120);
#116 = LINE('',#117,#118);
#117 = CARTESIAN_POINT('',(-76.99671479515,6.666261490767));
#118 = VECTOR('',#119,1.);
#119 = DIRECTION('',(0.,-1.));
#120 = ( GEOMETRIC_REPRESENTATION_CONTEXT(2) 
PARAMETRIC_REPRESENTATION_CONTEXT() REPRESENTATION_CONTEXT('2D SPACE',''
  ) );
#121 = ( GEOMETRIC_REPRESENTATION_CONTEXT(3) 
GLOBAL_UNCERTAINTY_ASSIGNED_CONTEXT((#125)) GLOBAL_UNIT_ASSIGNED_CONTEXT
((#122,#123,#124)) REPRESENTATION_CONTEXT('Context #1',
  '3D Context with UNIT and UNCERTAINTY') );
#122 = ( LENGTH_UNIT() NAMED_UNIT(*) SI_UNIT(.MILLI.,.METRE.) );
#123 = ( NAMED_UNIT(*) PLANE_ANGLE_UNIT() SI_UNIT($,.RADIAN.) );
#124 = ( NAMED_UNIT(*) SI_UNIT($,.STERADIAN.) SOLID_ANGLE_UNIT() );
#125 = UNCERTAINTY_MEASURE_WITH_UNIT(LENGTH_MEASURE(1.E-07),#122,
  'distance_accuracy_value','confusion accuracy');
#126 = PRODUCT_RELATED_PRODUCT_CATEGORY('part',$,(#7));
ENDSEC;
END-ISO-10303-21;
