ISO-10303-21;
HEADER;
FILE_DESCRIPTION(('Open CASCADE Model'),'2;1');
FILE_NAME('Open CASCADE Shape Model','2026-06-04T12:09:59',('Author'),(
    'Open CASCADE'),'Open CASCADE STEP processor 7.9','Open CASCADE 7.9'
  ,'Unknown');
FILE_SCHEMA(('AUTOMOTIVE_DESIGN { 1 0 10303 214 1 1 1 1 }'));
ENDSEC;
DATA;
#1 = APPLICATION_PROTOCOL_DEFINITION('international standard',
  'automotive_design',2000,#2);
#2 = APPLICATION_CONTEXT(
  'core data for automotive mechanical design processes');
#3 = SHAPE_DEFINITION_REPRESENTATION(#4,#10);
#4 = PRODUCT_DEFINITION_SHAPE('','',#5);
#5 = PRODUCT_DEFINITION('design','',#6,#9);
#6 = PRODUCT_DEFINITION_FORMATION('','',#7);
#7 = PRODUCT('Open CASCADE STEP translator 7.9 51',
  'Open CASCADE STEP translator 7.9 51','',(#8));
#8 = PRODUCT_CONTEXT('',#2,'mechanical');
#9 = PRODUCT_DEFINITION_CONTEXT('part definition',#2,'design');
#10 = MANIFOLD_SURFACE_SHAPE_REPRESENTATION('',(#11,#15),#121);
#11 = AXIS2_PLACEMENT_3D('',#12,#13,#14);
#12 = CARTESIAN_POINT('',(0.,0.,0.));
#13 = DIRECTION('',(0.,0.,1.));
#14 = DIRECTION('',(1.,0.,-0.));
#15 = SHELL_BASED_SURFACE_MODEL('',(#16));
#16 = OPEN_SHELL('',(#17));
#17 = ADVANCED_FACE('',(#18),#40,.T.);
#18 = FACE_BOUND('',#19,.T.);
#19 = EDGE_LOOP('',(#20,#59,#75,#107));
#20 = ORIENTED_EDGE('',*,*,#21,.T.);
#21 = EDGE_CURVE('',#22,#24,#26,.T.);
#22 = VERTEX_POINT('',#23);
#23 = CARTESIAN_POINT('',(0.,-2.476031011533,0.));
#24 = VERTEX_POINT('',#25);
#25 = CARTESIAN_POINT('',(150.,-0.868915166156,0.));
#26 = SURFACE_CURVE('',#27,(#39),.PCURVE_S1.);
#27 = B_SPLINE_CURVE_WITH_KNOTS('',1,(#28,#29,#30,#31,#32,#33,#34,#35,
    #36,#37,#38),.UNSPECIFIED.,.F.,.F.,(2,1,1,1,1,1,1,1,1,1,2),(0.,
    0.144505969919,0.286727863709,0.515364810748,0.59542515819,
    0.670592859388,0.739791281204,0.766877232678,0.839111943025,
    0.953765198478,1.),.UNSPECIFIED.);
#28 = CARTESIAN_POINT('',(0.,-2.476031011533,0.));
#29 = CARTESIAN_POINT('',(21.812910726924,-2.543246996991,0.));
#30 = CARTESIAN_POINT('',(43.27570527073,-2.059937314572,0.));
#31 = CARTESIAN_POINT('',(77.778706429824,-2.869226584587,0.));
#32 = CARTESIAN_POINT('',(89.782444406428,-1.469949154678,0.));
#33 = CARTESIAN_POINT('',(101.12831053908,-1.588003371372,0.));
#34 = CARTESIAN_POINT('',(111.57372736371,-1.575540551776,0.));
#35 = CARTESIAN_POINT('',(115.29583607759,0.116354214346,0.));
#36 = CARTESIAN_POINT('',(126.19862142511,0.261286832914,0.));
#37 = CARTESIAN_POINT('',(143.45670704517,1.558642343106,0.));
#38 = CARTESIAN_POINT('',(150.,-0.868915166156,0.));
#39 = PCURVE('',#40,#45);
#40 = PLANE('',#41);
#41 = AXIS2_PLACEMENT_3D('',#42,#43,#44);
#42 = CARTESIAN_POINT('',(74.575413255419,7.5,0.));
#43 = DIRECTION('',(0.,0.,1.));
#44 = DIRECTION('',(1.,0.,-0.));
#45 = DEFINITIONAL_REPRESENTATION('',(#46),#58);
#46 = B_SPLINE_CURVE_WITH_KNOTS('',1,(#47,#48,#49,#50,#51,#52,#53,#54,
    #55,#56,#57),.UNSPECIFIED.,.F.,.F.,(2,1,1,1,1,1,1,1,1,1,2),(0.,
    0.144505969919,0.286727863709,0.515364810748,0.59542515819,
    0.670592859388,0.739791281204,0.766877232678,0.839111943025,
    0.953765198478,1.),.UNSPECIFIED.);
#47 = CARTESIAN_POINT('',(-74.57541325541,-9.976031011533));
#48 = CARTESIAN_POINT('',(-52.76250252849,-10.04324699699));
#49 = CARTESIAN_POINT('',(-31.29970798468,-9.559937314572));
#50 = CARTESIAN_POINT('',(3.203293174405,-10.36922658458));
#51 = CARTESIAN_POINT('',(15.207031151009,-8.969949154678));
#52 = CARTESIAN_POINT('',(26.552897283667,-9.088003371372));
#53 = CARTESIAN_POINT('',(36.998314108298,-9.075540551776));
#54 = CARTESIAN_POINT('',(40.720422822171,-7.383645785654));
#55 = CARTESIAN_POINT('',(51.623208169699,-7.238713167086));
#56 = CARTESIAN_POINT('',(68.881293789757,-5.941357656894));
#57 = CARTESIAN_POINT('',(75.424586744581,-8.368915166156));
#58 = ( GEOMETRIC_REPRESENTATION_CONTEXT(2) 
PARAMETRIC_REPRESENTATION_CONTEXT() REPRESENTATION_CONTEXT('2D SPACE',''
  ) );
#59 = ORIENTED_EDGE('',*,*,#60,.T.);
#60 = EDGE_CURVE('',#24,#61,#63,.T.);
#61 = VERTEX_POINT('',#62);
#62 = CARTESIAN_POINT('',(150.,15.868915166156,0.));
#63 = SURFACE_CURVE('',#64,(#68),.PCURVE_S1.);
#64 = LINE('',#65,#66);
#65 = CARTESIAN_POINT('',(150.,-0.868915166156,0.));
#66 = VECTOR('',#67,1.);
#67 = DIRECTION('',(0.,1.,0.));
#68 = PCURVE('',#40,#69);
#69 = DEFINITIONAL_REPRESENTATION('',(#70),#74);
#70 = LINE('',#71,#72);
#71 = CARTESIAN_POINT('',(75.424586744581,-8.368915166156));
#72 = VECTOR('',#73,1.);
#73 = DIRECTION('',(0.,1.));
#74 = ( GEOMETRIC_REPRESENTATION_CONTEXT(2) 
PARAMETRIC_REPRESENTATION_CONTEXT() REPRESENTATION_CONTEXT('2D SPACE',''
  ) );
#75 = ORIENTED_EDGE('',*,*,#76,.T.);
#76 = EDGE_CURVE('',#61,#77,#79,.T.);
#77 = VERTEX_POINT('',#78);
#78 = CARTESIAN_POINT('',(0.,17.476031011533,0.));
#79 = SURFACE_CURVE('',#80,(#92),.PCURVE_S1.);
#80 = B_SPLINE_CURVE_WITH_KNOTS('',1,(#81,#82,#83,#84,#85,#86,#87,#88,
    #89,#90,#91),.UNSPECIFIED.,.F.,.F.,(2,1,1,1,1,1,1,1,1,1,2),(0.,
    4.62348015217E-02,0.160888056975,0.233122767322,0.260208718796,
    0.329407140612,0.40457484181,0.484635189252,0.713272136291,
    0.855494030081,1.),.UNSPECIFIED.);
#81 = CARTESIAN_POINT('',(150.,15.868915166156,0.));
#82 = CARTESIAN_POINT('',(143.45670704517,13.441357656894,0.));
#83 = CARTESIAN_POINT('',(126.19862142511,14.738713167086,0.));
#84 = CARTESIAN_POINT('',(115.29583607759,14.883645785654,0.));
#85 = CARTESIAN_POINT('',(111.57372736371,16.575540551776,0.));
#86 = CARTESIAN_POINT('',(101.12831053908,16.588003371372,0.));
#87 = CARTESIAN_POINT('',(89.782444406428,16.469949154678,0.));
#88 = CARTESIAN_POINT('',(77.778706429824,17.869226584587,0.));
#89 = CARTESIAN_POINT('',(43.27570527073,17.059937314572,0.));
#90 = CARTESIAN_POINT('',(21.812910726924,17.543246996991,0.));
#91 = CARTESIAN_POINT('',(0.,17.476031011533,0.));
#92 = PCURVE('',#40,#93);
#93 = DEFINITIONAL_REPRESENTATION('',(#94),#106);
#94 = B_SPLINE_CURVE_WITH_KNOTS('',1,(#95,#96,#97,#98,#99,#100,#101,#102
    ,#103,#104,#105),.UNSPECIFIED.,.F.,.F.,(2,1,1,1,1,1,1,1,1,1,2),(0.,
    4.62348015217E-02,0.160888056975,0.233122767322,0.260208718796,
    0.329407140612,0.40457484181,0.484635189252,0.713272136291,
    0.855494030081,1.),.UNSPECIFIED.);
#95 = CARTESIAN_POINT('',(75.424586744581,8.368915166156));
#96 = CARTESIAN_POINT('',(68.881293789757,5.941357656894));
#97 = CARTESIAN_POINT('',(51.623208169699,7.238713167086));
#98 = CARTESIAN_POINT('',(40.720422822171,7.383645785654));
#99 = CARTESIAN_POINT('',(36.998314108298,9.075540551776));
#100 = CARTESIAN_POINT('',(26.552897283667,9.088003371372));
#101 = CARTESIAN_POINT('',(15.207031151009,8.969949154678));
#102 = CARTESIAN_POINT('',(3.203293174405,10.369226584587));
#103 = CARTESIAN_POINT('',(-31.29970798468,9.559937314572));
#104 = CARTESIAN_POINT('',(-52.76250252849,10.043246996991));
#105 = CARTESIAN_POINT('',(-74.57541325541,9.976031011533));
#106 = ( GEOMETRIC_REPRESENTATION_CONTEXT(2) 
PARAMETRIC_REPRESENTATION_CONTEXT() REPRESENTATION_CONTEXT('2D SPACE',''
  ) );
#107 = ORIENTED_EDGE('',*,*,#108,.T.);
#108 = EDGE_CURVE('',#77,#22,#109,.T.);
#109 = SURFACE_CURVE('',#110,(#114),.PCURVE_S1.);
#110 = LINE('',#111,#112);
#111 = CARTESIAN_POINT('',(0.,17.476031011533,0.));
#112 = VECTOR('',#113,1.);
#113 = DIRECTION('',(0.,-1.,0.));
#114 = PCURVE('',#40,#115);
#115 = DEFINITIONAL_REPRESENTATION('',(#116),#120);
#116 = LINE('',#117,#118);
#117 = CARTESIAN_POINT('',(-74.57541325541,9.976031011533));
#118 = VECTOR('',#119,1.);
#119 = DIRECTION('',(0.,-1.));
#120 = ( GEOMETRIC_REPRESENTATION_CONTEXT(2) 
PARAMETRIC_REPRESENTATION_CONTEXT() REPRESENTATION_CONTEXT('2D SPACE',''
  ) );
#121 = ( GEOMETRIC_REPRESENTATION_CONTEXT(3) 
GLOBAL_UNCERTAINTY_ASSIGNED_CONTEXT((#125)) GLOBAL_UNIT_ASSIGNED_CONTEXT
((#122,#123,#124)) REPRESENTATION_CONTEXT('Context #1',
  '3D Context with UNIT and UNCERTAINTY') );
#122 = ( LENGTH_UNIT() NAMED_UNIT(*) SI_UNIT(.MILLI.,.METRE.) );
#123 = ( NAMED_UNIT(*) PLANE_ANGLE_UNIT() SI_UNIT($,.RADIAN.) );
#124 = ( NAMED_UNIT(*) SI_UNIT($,.STERADIAN.) SOLID_ANGLE_UNIT() );
#125 = UNCERTAINTY_MEASURE_WITH_UNIT(LENGTH_MEASURE(1.E-07),#122,
  'distance_accuracy_value','confusion accuracy');
#126 = PRODUCT_RELATED_PRODUCT_CATEGORY('part',$,(#7));
ENDSEC;
END-ISO-10303-21;
