ISO-10303-21;
HEADER;
FILE_DESCRIPTION(('Open CASCADE Model'),'2;1');
FILE_NAME('Open CASCADE Shape Model','2026-06-04T14:36:37',('Author'),(
    'Open CASCADE'),'Open CASCADE STEP processor 7.9','Open CASCADE 7.9'
  ,'Unknown');
FILE_SCHEMA(('AUTOMOTIVE_DESIGN { 1 0 10303 214 1 1 1 1 }'));
ENDSEC;
DATA;
#1 = APPLICATION_PROTOCOL_DEFINITION('international standard',
  'automotive_design',2000,#2);
#2 = APPLICATION_CONTEXT(
  'core data for automotive mechanical design processes');
#3 = SHAPE_DEFINITION_REPRESENTATION(#4,#10);
#4 = PRODUCT_DEFINITION_SHAPE('','',#5);
#5 = PRODUCT_DEFINITION('design','',#6,#9);
#6 = PRODUCT_DEFINITION_FORMATION('','',#7);
#7 = PRODUCT('Open CASCADE STEP translator 7.9 60',
  'Open CASCADE STEP translator 7.9 60','',(#8));
#8 = PRODUCT_CONTEXT('',#2,'mechanical');
#9 = PRODUCT_DEFINITION_CONTEXT('part definition',#2,'design');
#10 = MANIFOLD_SURFACE_SHAPE_REPRESENTATION('',(#11,#15),#121);
#11 = AXIS2_PLACEMENT_3D('',#12,#13,#14);
#12 = CARTESIAN_POINT('',(0.,0.,0.));
#13 = DIRECTION('',(0.,0.,1.));
#14 = DIRECTION('',(1.,0.,-0.));
#15 = SHELL_BASED_SURFACE_MODEL('',(#16));
#16 = OPEN_SHELL('',(#17));
#17 = ADVANCED_FACE('',(#18),#40,.T.);
#18 = FACE_BOUND('',#19,.T.);
#19 = EDGE_LOOP('',(#20,#59,#75,#107));
#20 = ORIENTED_EDGE('',*,*,#21,.T.);
#21 = EDGE_CURVE('',#22,#24,#26,.T.);
#22 = VERTEX_POINT('',#23);
#23 = CARTESIAN_POINT('',(0.,-4.708847285457E-03,0.));
#24 = VERTEX_POINT('',#25);
#25 = CARTESIAN_POINT('',(1.,1.413272084721E-03,0.));
#26 = SURFACE_CURVE('',#27,(#39),.PCURVE_S1.);
#27 = B_SPLINE_CURVE_WITH_KNOTS('',1,(#28,#29,#30,#31,#32,#33,#34,#35,
    #36,#37,#38),.UNSPECIFIED.,.F.,.F.,(2,1,1,1,1,1,1,1,1,1,2),(0.,
    3.756885222743E-02,0.140531253919,0.217139836503,0.362436194826,
    0.442280471,0.513246525462,0.578131458277,0.682178834306,
    0.723118025155,1.),.UNSPECIFIED.);
#28 = CARTESIAN_POINT('',(0.,-4.708847285457E-03,0.));
#29 = CARTESIAN_POINT('',(3.713989283038E-02,1.192676387829E-03,0.));
#30 = CARTESIAN_POINT('',(0.140203542861,1.02474975445E-03,0.));
#31 = CARTESIAN_POINT('',(0.216864700807,-8.475270280494E-04,0.));
#32 = CARTESIAN_POINT('',(0.362232406943,3.719473894522E-03,0.));
#33 = CARTESIAN_POINT('',(0.442131989819,1.789143735881E-03,0.));
#34 = CARTESIAN_POINT('',(0.513156412196,3.067916775549E-03,0.));
#35 = CARTESIAN_POINT('',(0.57809901042,3.96716520893E-03,0.));
#36 = CARTESIAN_POINT('',(0.681969079644,-3.66144606331E-03,0.));
#37 = CARTESIAN_POINT('',(0.72285498296,-8.933116612748E-04,0.));
#38 = CARTESIAN_POINT('',(1.,1.413272084721E-03,0.));
#39 = PCURVE('',#40,#45);
#40 = PLANE('',#41);
#41 = AXIS2_PLACEMENT_3D('',#42,#43,#44);
#42 = CARTESIAN_POINT('',(0.497055690278,5.E-02,0.));
#43 = DIRECTION('',(0.,0.,1.));
#44 = DIRECTION('',(1.,0.,-0.));
#45 = DEFINITIONAL_REPRESENTATION('',(#46),#58);
#46 = B_SPLINE_CURVE_WITH_KNOTS('',1,(#47,#48,#49,#50,#51,#52,#53,#54,
    #55,#56,#57),.UNSPECIFIED.,.F.,.F.,(2,1,1,1,1,1,1,1,1,1,2),(0.,
    3.756885222743E-02,0.140531253919,0.217139836503,0.362436194826,
    0.442280471,0.513246525462,0.578131458277,0.682178834306,
    0.723118025155,1.),.UNSPECIFIED.);
#47 = CARTESIAN_POINT('',(-0.497055690278,-5.470884728546E-02));
#48 = CARTESIAN_POINT('',(-0.459915797447,-4.880732361217E-02));
#49 = CARTESIAN_POINT('',(-0.356852147417,-4.897525024555E-02));
#50 = CARTESIAN_POINT('',(-0.28019098947,-5.084752702805E-02));
#51 = CARTESIAN_POINT('',(-0.134823283335,-4.628052610548E-02));
#52 = CARTESIAN_POINT('',(-5.492370045918E-02,-4.821085626412E-02));
#53 = CARTESIAN_POINT('',(1.610072191853E-02,-4.693208322445E-02));
#54 = CARTESIAN_POINT('',(8.104332014181E-02,-4.603283479107E-02));
#55 = CARTESIAN_POINT('',(0.184913389366,-5.366144606331E-02));
#56 = CARTESIAN_POINT('',(0.225799292683,-5.089331166127E-02));
#57 = CARTESIAN_POINT('',(0.502944309722,-4.858672791528E-02));
#58 = ( GEOMETRIC_REPRESENTATION_CONTEXT(2) 
PARAMETRIC_REPRESENTATION_CONTEXT() REPRESENTATION_CONTEXT('2D SPACE',''
  ) );
#59 = ORIENTED_EDGE('',*,*,#60,.T.);
#60 = EDGE_CURVE('',#24,#61,#63,.T.);
#61 = VERTEX_POINT('',#62);
#62 = CARTESIAN_POINT('',(1.,9.858672791528E-02,0.));
#63 = SURFACE_CURVE('',#64,(#68),.PCURVE_S1.);
#64 = LINE('',#65,#66);
#65 = CARTESIAN_POINT('',(1.,1.413272084721E-03,0.));
#66 = VECTOR('',#67,1.);
#67 = DIRECTION('',(0.,1.,0.));
#68 = PCURVE('',#40,#69);
#69 = DEFINITIONAL_REPRESENTATION('',(#70),#74);
#70 = LINE('',#71,#72);
#71 = CARTESIAN_POINT('',(0.502944309722,-4.858672791528E-02));
#72 = VECTOR('',#73,1.);
#73 = DIRECTION('',(0.,1.));
#74 = ( GEOMETRIC_REPRESENTATION_CONTEXT(2) 
PARAMETRIC_REPRESENTATION_CONTEXT() REPRESENTATION_CONTEXT('2D SPACE',''
  ) );
#75 = ORIENTED_EDGE('',*,*,#76,.T.);
#76 = EDGE_CURVE('',#61,#77,#79,.T.);
#77 = VERTEX_POINT('',#78);
#78 = CARTESIAN_POINT('',(0.,0.104708847285,0.));
#79 = SURFACE_CURVE('',#80,(#92),.PCURVE_S1.);
#80 = B_SPLINE_CURVE_WITH_KNOTS('',1,(#81,#82,#83,#84,#85,#86,#87,#88,
    #89,#90,#91),.UNSPECIFIED.,.F.,.F.,(2,1,1,1,1,1,1,1,1,1,2),(0.,
    0.276881974845,0.317821165694,0.421868541723,0.486753474538,
    0.557719529,0.637563805174,0.782860163497,0.859468746081,
    0.962431147773,1.),.UNSPECIFIED.);
#81 = CARTESIAN_POINT('',(1.,9.858672791528E-02,0.));
#82 = CARTESIAN_POINT('',(0.72285498296,0.100893311661,0.));
#83 = CARTESIAN_POINT('',(0.681969079644,0.103661446063,0.));
#84 = CARTESIAN_POINT('',(0.57809901042,9.603283479107E-02,0.));
#85 = CARTESIAN_POINT('',(0.513156412196,9.693208322445E-02,0.));
#86 = CARTESIAN_POINT('',(0.442131989819,9.821085626412E-02,0.));
#87 = CARTESIAN_POINT('',(0.362232406943,9.628052610548E-02,0.));
#88 = CARTESIAN_POINT('',(0.216864700807,0.100847527028,0.));
#89 = CARTESIAN_POINT('',(0.140203542861,9.897525024555E-02,0.));
#90 = CARTESIAN_POINT('',(3.713989283038E-02,9.880732361217E-02,0.));
#91 = CARTESIAN_POINT('',(0.,0.104708847285,0.));
#92 = PCURVE('',#40,#93);
#93 = DEFINITIONAL_REPRESENTATION('',(#94),#106);
#94 = B_SPLINE_CURVE_WITH_KNOTS('',1,(#95,#96,#97,#98,#99,#100,#101,#102
    ,#103,#104,#105),.UNSPECIFIED.,.F.,.F.,(2,1,1,1,1,1,1,1,1,1,2),(0.,
    0.276881974845,0.317821165694,0.421868541723,0.486753474538,
    0.557719529,0.637563805174,0.782860163497,0.859468746081,
    0.962431147773,1.),.UNSPECIFIED.);
#95 = CARTESIAN_POINT('',(0.502944309722,4.858672791528E-02));
#96 = CARTESIAN_POINT('',(0.225799292683,5.089331166127E-02));
#97 = CARTESIAN_POINT('',(0.184913389366,5.366144606331E-02));
#98 = CARTESIAN_POINT('',(8.104332014181E-02,4.603283479107E-02));
#99 = CARTESIAN_POINT('',(1.610072191853E-02,4.693208322445E-02));
#100 = CARTESIAN_POINT('',(-5.492370045918E-02,4.821085626412E-02));
#101 = CARTESIAN_POINT('',(-0.134823283335,4.628052610548E-02));
#102 = CARTESIAN_POINT('',(-0.28019098947,5.084752702805E-02));
#103 = CARTESIAN_POINT('',(-0.356852147417,4.897525024555E-02));
#104 = CARTESIAN_POINT('',(-0.459915797447,4.880732361217E-02));
#105 = CARTESIAN_POINT('',(-0.497055690278,5.470884728546E-02));
#106 = ( GEOMETRIC_REPRESENTATION_CONTEXT(2) 
PARAMETRIC_REPRESENTATION_CONTEXT() REPRESENTATION_CONTEXT('2D SPACE',''
  ) );
#107 = ORIENTED_EDGE('',*,*,#108,.T.);
#108 = EDGE_CURVE('',#77,#22,#109,.T.);
#109 = SURFACE_CURVE('',#110,(#114),.PCURVE_S1.);
#110 = LINE('',#111,#112);
#111 = CARTESIAN_POINT('',(0.,0.104708847285,0.));
#112 = VECTOR('',#113,1.);
#113 = DIRECTION('',(0.,-1.,0.));
#114 = PCURVE('',#40,#115);
#115 = DEFINITIONAL_REPRESENTATION('',(#116),#120);
#116 = LINE('',#117,#118);
#117 = CARTESIAN_POINT('',(-0.497055690278,5.470884728546E-02));
#118 = VECTOR('',#119,1.);
#119 = DIRECTION('',(0.,-1.));
#120 = ( GEOMETRIC_REPRESENTATION_CONTEXT(2) 
PARAMETRIC_REPRESENTATION_CONTEXT() REPRESENTATION_CONTEXT('2D SPACE',''
  ) );
#121 = ( GEOMETRIC_REPRESENTATION_CONTEXT(3) 
GLOBAL_UNCERTAINTY_ASSIGNED_CONTEXT((#125)) GLOBAL_UNIT_ASSIGNED_CONTEXT
((#122,#123,#124)) REPRESENTATION_CONTEXT('Context #1',
  '3D Context with UNIT and UNCERTAINTY') );
#122 = ( LENGTH_UNIT() NAMED_UNIT(*) SI_UNIT(.MILLI.,.METRE.) );
#123 = ( NAMED_UNIT(*) PLANE_ANGLE_UNIT() SI_UNIT($,.RADIAN.) );
#124 = ( NAMED_UNIT(*) SI_UNIT($,.STERADIAN.) SOLID_ANGLE_UNIT() );
#125 = UNCERTAINTY_MEASURE_WITH_UNIT(LENGTH_MEASURE(1.E-07),#122,
  'distance_accuracy_value','confusion accuracy');
#126 = PRODUCT_RELATED_PRODUCT_CATEGORY('part',$,(#7));
ENDSEC;
END-ISO-10303-21;
