ISO-10303-21;
HEADER;
FILE_DESCRIPTION(('Open CASCADE Model'),'2;1');
FILE_NAME('Open CASCADE Shape Model','2026-06-04T12:09:59',('Author'),(
    'Open CASCADE'),'Open CASCADE STEP processor 7.9','Open CASCADE 7.9'
  ,'Unknown');
FILE_SCHEMA(('AUTOMOTIVE_DESIGN { 1 0 10303 214 1 1 1 1 }'));
ENDSEC;
DATA;
#1 = APPLICATION_PROTOCOL_DEFINITION('international standard',
  'automotive_design',2000,#2);
#2 = APPLICATION_CONTEXT(
  'core data for automotive mechanical design processes');
#3 = SHAPE_DEFINITION_REPRESENTATION(#4,#10);
#4 = PRODUCT_DEFINITION_SHAPE('','',#5);
#5 = PRODUCT_DEFINITION('design','',#6,#9);
#6 = PRODUCT_DEFINITION_FORMATION('','',#7);
#7 = PRODUCT('Open CASCADE STEP translator 7.9 69',
  'Open CASCADE STEP translator 7.9 69','',(#8));
#8 = PRODUCT_CONTEXT('',#2,'mechanical');
#9 = PRODUCT_DEFINITION_CONTEXT('part definition',#2,'design');
#10 = MANIFOLD_SURFACE_SHAPE_REPRESENTATION('',(#11,#15),#121);
#11 = AXIS2_PLACEMENT_3D('',#12,#13,#14);
#12 = CARTESIAN_POINT('',(0.,0.,0.));
#13 = DIRECTION('',(0.,0.,1.));
#14 = DIRECTION('',(1.,0.,-0.));
#15 = SHELL_BASED_SURFACE_MODEL('',(#16));
#16 = OPEN_SHELL('',(#17));
#17 = ADVANCED_FACE('',(#18),#40,.T.);
#18 = FACE_BOUND('',#19,.T.);
#19 = EDGE_LOOP('',(#20,#59,#75,#107));
#20 = ORIENTED_EDGE('',*,*,#21,.T.);
#21 = EDGE_CURVE('',#22,#24,#26,.T.);
#22 = VERTEX_POINT('',#23);
#23 = CARTESIAN_POINT('',(0.,1.903147377414,0.));
#24 = VERTEX_POINT('',#25);
#25 = CARTESIAN_POINT('',(150.,2.356125823005,0.));
#26 = SURFACE_CURVE('',#27,(#39),.PCURVE_S1.);
#27 = B_SPLINE_CURVE_WITH_KNOTS('',1,(#28,#29,#30,#31,#32,#33,#34,#35,
    #36,#37,#38),.UNSPECIFIED.,.F.,.F.,(2,1,1,1,1,1,1,1,1,1,2),(0.,
    8.439251635889E-02,0.149926709989,0.231241365656,0.285361295549,
    0.332251560746,0.433665653589,0.494777653665,0.557861800643,
    0.873460539042,1.),.UNSPECIFIED.);
#28 = CARTESIAN_POINT('',(0.,1.903147377414,0.));
#29 = CARTESIAN_POINT('',(12.863804336762,1.075595286279,0.));
#30 = CARTESIAN_POINT('',(22.672949673718,-0.919151310137,0.));
#31 = CARTESIAN_POINT('',(35.092662484255,-1.037120368109,0.));
#32 = CARTESIAN_POINT('',(43.234748429082,0.391441519146,0.));
#33 = CARTESIAN_POINT('',(50.289348316494,1.628126384027,0.));
#34 = CARTESIAN_POINT('',(65.494322466889,-1.331440677076,0.));
#35 = CARTESIAN_POINT('',(74.219087323116,1.986761750324,0.));
#36 = CARTESIAN_POINT('',(82.682182871017,-2.620018151191,0.));
#37 = CARTESIAN_POINT('',(130.67798819983,1.872578525781,0.));
#38 = CARTESIAN_POINT('',(150.,2.356125823005,0.));
#39 = PCURVE('',#40,#45);
#40 = PLANE('',#41);
#41 = AXIS2_PLACEMENT_3D('',#42,#43,#44);
#42 = CARTESIAN_POINT('',(74.683533515926,7.5,0.));
#43 = DIRECTION('',(0.,0.,1.));
#44 = DIRECTION('',(1.,0.,-0.));
#45 = DEFINITIONAL_REPRESENTATION('',(#46),#58);
#46 = B_SPLINE_CURVE_WITH_KNOTS('',1,(#47,#48,#49,#50,#51,#52,#53,#54,
    #55,#56,#57),.UNSPECIFIED.,.F.,.F.,(2,1,1,1,1,1,1,1,1,1,2),(0.,
    8.439251635889E-02,0.149926709989,0.231241365656,0.285361295549,
    0.332251560746,0.433665653589,0.494777653665,0.557861800643,
    0.873460539042,1.),.UNSPECIFIED.);
#47 = CARTESIAN_POINT('',(-74.68353351592,-5.596852622586));
#48 = CARTESIAN_POINT('',(-61.81972917916,-6.424404713721));
#49 = CARTESIAN_POINT('',(-52.0105838422,-8.419151310137));
#50 = CARTESIAN_POINT('',(-39.59087103167,-8.537120368109));
#51 = CARTESIAN_POINT('',(-31.44878508684,-7.108558480854));
#52 = CARTESIAN_POINT('',(-24.39418519943,-5.871873615973));
#53 = CARTESIAN_POINT('',(-9.189211049037,-8.831440677076));
#54 = CARTESIAN_POINT('',(-0.46444619281,-5.513238249676));
#55 = CARTESIAN_POINT('',(7.998649355091,-10.12001815119));
#56 = CARTESIAN_POINT('',(55.994454683909,-5.627421474219));
#57 = CARTESIAN_POINT('',(75.316466484074,-5.143874176995));
#58 = ( GEOMETRIC_REPRESENTATION_CONTEXT(2) 
PARAMETRIC_REPRESENTATION_CONTEXT() REPRESENTATION_CONTEXT('2D SPACE',''
  ) );
#59 = ORIENTED_EDGE('',*,*,#60,.T.);
#60 = EDGE_CURVE('',#24,#61,#63,.T.);
#61 = VERTEX_POINT('',#62);
#62 = CARTESIAN_POINT('',(150.,12.643874176995,0.));
#63 = SURFACE_CURVE('',#64,(#68),.PCURVE_S1.);
#64 = LINE('',#65,#66);
#65 = CARTESIAN_POINT('',(150.,2.356125823005,0.));
#66 = VECTOR('',#67,1.);
#67 = DIRECTION('',(0.,1.,0.));
#68 = PCURVE('',#40,#69);
#69 = DEFINITIONAL_REPRESENTATION('',(#70),#74);
#70 = LINE('',#71,#72);
#71 = CARTESIAN_POINT('',(75.316466484074,-5.143874176995));
#72 = VECTOR('',#73,1.);
#73 = DIRECTION('',(0.,1.));
#74 = ( GEOMETRIC_REPRESENTATION_CONTEXT(2) 
PARAMETRIC_REPRESENTATION_CONTEXT() REPRESENTATION_CONTEXT('2D SPACE',''
  ) );
#75 = ORIENTED_EDGE('',*,*,#76,.T.);
#76 = EDGE_CURVE('',#61,#77,#79,.T.);
#77 = VERTEX_POINT('',#78);
#78 = CARTESIAN_POINT('',(0.,13.096852622586,0.));
#79 = SURFACE_CURVE('',#80,(#92),.PCURVE_S1.);
#80 = B_SPLINE_CURVE_WITH_KNOTS('',1,(#81,#82,#83,#84,#85,#86,#87,#88,
    #89,#90,#91),.UNSPECIFIED.,.F.,.F.,(2,1,1,1,1,1,1,1,1,1,2),(0.,
    0.126539460958,0.442138199357,0.505222346335,0.566334346411,
    0.667748439254,0.714638704451,0.768758634344,0.850073290011,
    0.915607483641,1.),.UNSPECIFIED.);
#81 = CARTESIAN_POINT('',(150.,12.643874176995,0.));
#82 = CARTESIAN_POINT('',(130.67798819983,13.127421474219,0.));
#83 = CARTESIAN_POINT('',(82.682182871017,17.620018151191,0.));
#84 = CARTESIAN_POINT('',(74.219087323116,13.013238249676,0.));
#85 = CARTESIAN_POINT('',(65.494322466889,16.331440677076,0.));
#86 = CARTESIAN_POINT('',(50.289348316494,13.371873615973,0.));
#87 = CARTESIAN_POINT('',(43.234748429082,14.608558480854,0.));
#88 = CARTESIAN_POINT('',(35.092662484255,16.037120368109,0.));
#89 = CARTESIAN_POINT('',(22.672949673718,15.919151310137,0.));
#90 = CARTESIAN_POINT('',(12.863804336762,13.924404713721,0.));
#91 = CARTESIAN_POINT('',(0.,13.096852622586,0.));
#92 = PCURVE('',#40,#93);
#93 = DEFINITIONAL_REPRESENTATION('',(#94),#106);
#94 = B_SPLINE_CURVE_WITH_KNOTS('',1,(#95,#96,#97,#98,#99,#100,#101,#102
    ,#103,#104,#105),.UNSPECIFIED.,.F.,.F.,(2,1,1,1,1,1,1,1,1,1,2),(0.,
    0.126539460958,0.442138199357,0.505222346335,0.566334346411,
    0.667748439254,0.714638704451,0.768758634344,0.850073290011,
    0.915607483641,1.),.UNSPECIFIED.);
#95 = CARTESIAN_POINT('',(75.316466484074,5.143874176995));
#96 = CARTESIAN_POINT('',(55.994454683909,5.627421474219));
#97 = CARTESIAN_POINT('',(7.998649355091,10.120018151191));
#98 = CARTESIAN_POINT('',(-0.46444619281,5.513238249676));
#99 = CARTESIAN_POINT('',(-9.189211049037,8.831440677076));
#100 = CARTESIAN_POINT('',(-24.39418519943,5.871873615973));
#101 = CARTESIAN_POINT('',(-31.44878508684,7.108558480854));
#102 = CARTESIAN_POINT('',(-39.59087103167,8.537120368109));
#103 = CARTESIAN_POINT('',(-52.0105838422,8.419151310137));
#104 = CARTESIAN_POINT('',(-61.81972917916,6.424404713721));
#105 = CARTESIAN_POINT('',(-74.68353351592,5.596852622586));
#106 = ( GEOMETRIC_REPRESENTATION_CONTEXT(2) 
PARAMETRIC_REPRESENTATION_CONTEXT() REPRESENTATION_CONTEXT('2D SPACE',''
  ) );
#107 = ORIENTED_EDGE('',*,*,#108,.T.);
#108 = EDGE_CURVE('',#77,#22,#109,.T.);
#109 = SURFACE_CURVE('',#110,(#114),.PCURVE_S1.);
#110 = LINE('',#111,#112);
#111 = CARTESIAN_POINT('',(0.,13.096852622586,0.));
#112 = VECTOR('',#113,1.);
#113 = DIRECTION('',(0.,-1.,0.));
#114 = PCURVE('',#40,#115);
#115 = DEFINITIONAL_REPRESENTATION('',(#116),#120);
#116 = LINE('',#117,#118);
#117 = CARTESIAN_POINT('',(-74.68353351592,5.596852622586));
#118 = VECTOR('',#119,1.);
#119 = DIRECTION('',(0.,-1.));
#120 = ( GEOMETRIC_REPRESENTATION_CONTEXT(2) 
PARAMETRIC_REPRESENTATION_CONTEXT() REPRESENTATION_CONTEXT('2D SPACE',''
  ) );
#121 = ( GEOMETRIC_REPRESENTATION_CONTEXT(3) 
GLOBAL_UNCERTAINTY_ASSIGNED_CONTEXT((#125)) GLOBAL_UNIT_ASSIGNED_CONTEXT
((#122,#123,#124)) REPRESENTATION_CONTEXT('Context #1',
  '3D Context with UNIT and UNCERTAINTY') );
#122 = ( LENGTH_UNIT() NAMED_UNIT(*) SI_UNIT(.MILLI.,.METRE.) );
#123 = ( NAMED_UNIT(*) PLANE_ANGLE_UNIT() SI_UNIT($,.RADIAN.) );
#124 = ( NAMED_UNIT(*) SI_UNIT($,.STERADIAN.) SOLID_ANGLE_UNIT() );
#125 = UNCERTAINTY_MEASURE_WITH_UNIT(LENGTH_MEASURE(1.E-07),#122,
  'distance_accuracy_value','confusion accuracy');
#126 = PRODUCT_RELATED_PRODUCT_CATEGORY('part',$,(#7));
ENDSEC;
END-ISO-10303-21;
