ISO-10303-21;
HEADER;
FILE_DESCRIPTION(('Open CASCADE Model'),'2;1');
FILE_NAME('Open CASCADE Shape Model','2026-06-04T12:09:58',('Author'),(
    'Open CASCADE'),'Open CASCADE STEP processor 7.9','Open CASCADE 7.9'
  ,'Unknown');
FILE_SCHEMA(('AUTOMOTIVE_DESIGN { 1 0 10303 214 1 1 1 1 }'));
ENDSEC;
DATA;
#1 = APPLICATION_PROTOCOL_DEFINITION('international standard',
  'automotive_design',2000,#2);
#2 = APPLICATION_CONTEXT(
  'core data for automotive mechanical design processes');
#3 = SHAPE_DEFINITION_REPRESENTATION(#4,#10);
#4 = PRODUCT_DEFINITION_SHAPE('','',#5);
#5 = PRODUCT_DEFINITION('design','',#6,#9);
#6 = PRODUCT_DEFINITION_FORMATION('','',#7);
#7 = PRODUCT('Open CASCADE STEP translator 7.9 16',
  'Open CASCADE STEP translator 7.9 16','',(#8));
#8 = PRODUCT_CONTEXT('',#2,'mechanical');
#9 = PRODUCT_DEFINITION_CONTEXT('part definition',#2,'design');
#10 = MANIFOLD_SURFACE_SHAPE_REPRESENTATION('',(#11,#15),#121);
#11 = AXIS2_PLACEMENT_3D('',#12,#13,#14);
#12 = CARTESIAN_POINT('',(0.,0.,0.));
#13 = DIRECTION('',(0.,0.,1.));
#14 = DIRECTION('',(1.,0.,-0.));
#15 = SHELL_BASED_SURFACE_MODEL('',(#16));
#16 = OPEN_SHELL('',(#17));
#17 = ADVANCED_FACE('',(#18),#40,.T.);
#18 = FACE_BOUND('',#19,.T.);
#19 = EDGE_LOOP('',(#20,#59,#75,#107));
#20 = ORIENTED_EDGE('',*,*,#21,.T.);
#21 = EDGE_CURVE('',#22,#24,#26,.T.);
#22 = VERTEX_POINT('',#23);
#23 = CARTESIAN_POINT('',(0.,-0.196333656394,0.));
#24 = VERTEX_POINT('',#25);
#25 = CARTESIAN_POINT('',(150.,-1.354293769629,0.));
#26 = SURFACE_CURVE('',#27,(#39),.PCURVE_S1.);
#27 = B_SPLINE_CURVE_WITH_KNOTS('',1,(#28,#29,#30,#31,#32,#33,#34,#35,
    #36,#37,#38),.UNSPECIFIED.,.F.,.F.,(2,1,1,1,1,1,1,1,1,1,2),(0.,
    6.341695014192E-02,0.113824501959,0.219872143146,0.273285206343,
    0.364742876611,0.431283926764,0.500730622617,0.730485846221,
    0.90754768603,1.),.UNSPECIFIED.);
#28 = CARTESIAN_POINT('',(0.,-0.196333656394,0.));
#29 = CARTESIAN_POINT('',(9.702437729834,-0.797505775606,0.));
#30 = CARTESIAN_POINT('',(17.147262340418,1.271066314905,0.));
#31 = CARTESIAN_POINT('',(33.180560528048,-1.409358973862,0.));
#32 = CARTESIAN_POINT('',(40.719043619534,1.785572441246,0.));
#33 = CARTESIAN_POINT('',(54.423560185764,-1.168788772911,0.));
#34 = CARTESIAN_POINT('',(64.574792562885,-2.164314409955,0.));
#35 = CARTESIAN_POINT('',(74.281044781274,2.207382976191,0.));
#36 = CARTESIAN_POINT('',(109.38063967038,-0.686278443252,0.));
#37 = CARTESIAN_POINT('',(136.3426317843,2.42942551062,0.));
#38 = CARTESIAN_POINT('',(150.,-1.354293769629,0.));
#39 = PCURVE('',#40,#45);
#40 = PLANE('',#41);
#41 = AXIS2_PLACEMENT_3D('',#42,#43,#44);
#42 = CARTESIAN_POINT('',(75.37345813706,7.5,0.));
#43 = DIRECTION('',(0.,0.,1.));
#44 = DIRECTION('',(1.,0.,-0.));
#45 = DEFINITIONAL_REPRESENTATION('',(#46),#58);
#46 = B_SPLINE_CURVE_WITH_KNOTS('',1,(#47,#48,#49,#50,#51,#52,#53,#54,
    #55,#56,#57),.UNSPECIFIED.,.F.,.F.,(2,1,1,1,1,1,1,1,1,1,2),(0.,
    6.341695014192E-02,0.113824501959,0.219872143146,0.273285206343,
    0.364742876611,0.431283926764,0.500730622617,0.730485846221,
    0.90754768603,1.),.UNSPECIFIED.);
#47 = CARTESIAN_POINT('',(-75.37345813706,-7.696333656394));
#48 = CARTESIAN_POINT('',(-65.67102040722,-8.297505775606));
#49 = CARTESIAN_POINT('',(-58.22619579664,-6.228933685095));
#50 = CARTESIAN_POINT('',(-42.19289760901,-8.909358973862));
#51 = CARTESIAN_POINT('',(-34.65441451752,-5.714427558754));
#52 = CARTESIAN_POINT('',(-20.94989795129,-8.668788772911));
#53 = CARTESIAN_POINT('',(-10.79866557417,-9.664314409955));
#54 = CARTESIAN_POINT('',(-1.092413355785,-5.292617023809));
#55 = CARTESIAN_POINT('',(34.007181533324,-8.186278443252));
#56 = CARTESIAN_POINT('',(60.969173647246,-5.07057448938));
#57 = CARTESIAN_POINT('',(74.62654186294,-8.854293769629));
#58 = ( GEOMETRIC_REPRESENTATION_CONTEXT(2) 
PARAMETRIC_REPRESENTATION_CONTEXT() REPRESENTATION_CONTEXT('2D SPACE',''
  ) );
#59 = ORIENTED_EDGE('',*,*,#60,.T.);
#60 = EDGE_CURVE('',#24,#61,#63,.T.);
#61 = VERTEX_POINT('',#62);
#62 = CARTESIAN_POINT('',(150.,16.354293769629,0.));
#63 = SURFACE_CURVE('',#64,(#68),.PCURVE_S1.);
#64 = LINE('',#65,#66);
#65 = CARTESIAN_POINT('',(150.,-1.354293769629,0.));
#66 = VECTOR('',#67,1.);
#67 = DIRECTION('',(0.,1.,0.));
#68 = PCURVE('',#40,#69);
#69 = DEFINITIONAL_REPRESENTATION('',(#70),#74);
#70 = LINE('',#71,#72);
#71 = CARTESIAN_POINT('',(74.62654186294,-8.854293769629));
#72 = VECTOR('',#73,1.);
#73 = DIRECTION('',(0.,1.));
#74 = ( GEOMETRIC_REPRESENTATION_CONTEXT(2) 
PARAMETRIC_REPRESENTATION_CONTEXT() REPRESENTATION_CONTEXT('2D SPACE',''
  ) );
#75 = ORIENTED_EDGE('',*,*,#76,.T.);
#76 = EDGE_CURVE('',#61,#77,#79,.T.);
#77 = VERTEX_POINT('',#78);
#78 = CARTESIAN_POINT('',(0.,15.196333656394,0.));
#79 = SURFACE_CURVE('',#80,(#92),.PCURVE_S1.);
#80 = B_SPLINE_CURVE_WITH_KNOTS('',1,(#81,#82,#83,#84,#85,#86,#87,#88,
    #89,#90,#91),.UNSPECIFIED.,.F.,.F.,(2,1,1,1,1,1,1,1,1,1,2),(0.,
    9.245231397048E-02,0.269514153779,0.499269377383,0.568716073236,
    0.635257123389,0.726714793657,0.780127856854,0.886175498041,
    0.936583049858,1.),.UNSPECIFIED.);
#81 = CARTESIAN_POINT('',(150.,16.354293769629,0.));
#82 = CARTESIAN_POINT('',(136.3426317843,12.57057448938,0.));
#83 = CARTESIAN_POINT('',(109.38063967038,15.686278443252,0.));
#84 = CARTESIAN_POINT('',(74.281044781274,12.792617023809,0.));
#85 = CARTESIAN_POINT('',(64.574792562885,17.164314409955,0.));
#86 = CARTESIAN_POINT('',(54.423560185764,16.168788772911,0.));
#87 = CARTESIAN_POINT('',(40.719043619534,13.214427558754,0.));
#88 = CARTESIAN_POINT('',(33.180560528048,16.409358973862,0.));
#89 = CARTESIAN_POINT('',(17.147262340418,13.728933685095,0.));
#90 = CARTESIAN_POINT('',(9.702437729834,15.797505775606,0.));
#91 = CARTESIAN_POINT('',(0.,15.196333656394,0.));
#92 = PCURVE('',#40,#93);
#93 = DEFINITIONAL_REPRESENTATION('',(#94),#106);
#94 = B_SPLINE_CURVE_WITH_KNOTS('',1,(#95,#96,#97,#98,#99,#100,#101,#102
    ,#103,#104,#105),.UNSPECIFIED.,.F.,.F.,(2,1,1,1,1,1,1,1,1,1,2),(0.,
    9.245231397048E-02,0.269514153779,0.499269377383,0.568716073236,
    0.635257123389,0.726714793657,0.780127856854,0.886175498041,
    0.936583049858,1.),.UNSPECIFIED.);
#95 = CARTESIAN_POINT('',(74.62654186294,8.854293769629));
#96 = CARTESIAN_POINT('',(60.969173647246,5.07057448938));
#97 = CARTESIAN_POINT('',(34.007181533324,8.186278443252));
#98 = CARTESIAN_POINT('',(-1.092413355785,5.292617023809));
#99 = CARTESIAN_POINT('',(-10.79866557417,9.664314409955));
#100 = CARTESIAN_POINT('',(-20.94989795129,8.668788772911));
#101 = CARTESIAN_POINT('',(-34.65441451752,5.714427558754));
#102 = CARTESIAN_POINT('',(-42.19289760901,8.909358973862));
#103 = CARTESIAN_POINT('',(-58.22619579664,6.228933685095));
#104 = CARTESIAN_POINT('',(-65.67102040722,8.297505775606));
#105 = CARTESIAN_POINT('',(-75.37345813706,7.696333656394));
#106 = ( GEOMETRIC_REPRESENTATION_CONTEXT(2) 
PARAMETRIC_REPRESENTATION_CONTEXT() REPRESENTATION_CONTEXT('2D SPACE',''
  ) );
#107 = ORIENTED_EDGE('',*,*,#108,.T.);
#108 = EDGE_CURVE('',#77,#22,#109,.T.);
#109 = SURFACE_CURVE('',#110,(#114),.PCURVE_S1.);
#110 = LINE('',#111,#112);
#111 = CARTESIAN_POINT('',(0.,15.196333656394,0.));
#112 = VECTOR('',#113,1.);
#113 = DIRECTION('',(0.,-1.,0.));
#114 = PCURVE('',#40,#115);
#115 = DEFINITIONAL_REPRESENTATION('',(#116),#120);
#116 = LINE('',#117,#118);
#117 = CARTESIAN_POINT('',(-75.37345813706,7.696333656394));
#118 = VECTOR('',#119,1.);
#119 = DIRECTION('',(0.,-1.));
#120 = ( GEOMETRIC_REPRESENTATION_CONTEXT(2) 
PARAMETRIC_REPRESENTATION_CONTEXT() REPRESENTATION_CONTEXT('2D SPACE',''
  ) );
#121 = ( GEOMETRIC_REPRESENTATION_CONTEXT(3) 
GLOBAL_UNCERTAINTY_ASSIGNED_CONTEXT((#125)) GLOBAL_UNIT_ASSIGNED_CONTEXT
((#122,#123,#124)) REPRESENTATION_CONTEXT('Context #1',
  '3D Context with UNIT and UNCERTAINTY') );
#122 = ( LENGTH_UNIT() NAMED_UNIT(*) SI_UNIT(.MILLI.,.METRE.) );
#123 = ( NAMED_UNIT(*) PLANE_ANGLE_UNIT() SI_UNIT($,.RADIAN.) );
#124 = ( NAMED_UNIT(*) SI_UNIT($,.STERADIAN.) SOLID_ANGLE_UNIT() );
#125 = UNCERTAINTY_MEASURE_WITH_UNIT(LENGTH_MEASURE(1.E-07),#122,
  'distance_accuracy_value','confusion accuracy');
#126 = PRODUCT_RELATED_PRODUCT_CATEGORY('part',$,(#7));
ENDSEC;
END-ISO-10303-21;
