ISO-10303-21;
HEADER;
FILE_DESCRIPTION(('Open CASCADE Model'),'2;1');
FILE_NAME('Open CASCADE Shape Model','2026-06-04T12:09:59',('Author'),(
    'Open CASCADE'),'Open CASCADE STEP processor 7.9','Open CASCADE 7.9'
  ,'Unknown');
FILE_SCHEMA(('AUTOMOTIVE_DESIGN { 1 0 10303 214 1 1 1 1 }'));
ENDSEC;
DATA;
#1 = APPLICATION_PROTOCOL_DEFINITION('international standard',
  'automotive_design',2000,#2);
#2 = APPLICATION_CONTEXT(
  'core data for automotive mechanical design processes');
#3 = SHAPE_DEFINITION_REPRESENTATION(#4,#10);
#4 = PRODUCT_DEFINITION_SHAPE('','',#5);
#5 = PRODUCT_DEFINITION('design','',#6,#9);
#6 = PRODUCT_DEFINITION_FORMATION('','',#7);
#7 = PRODUCT('Open CASCADE STEP translator 7.9 43',
  'Open CASCADE STEP translator 7.9 43','',(#8));
#8 = PRODUCT_CONTEXT('',#2,'mechanical');
#9 = PRODUCT_DEFINITION_CONTEXT('part definition',#2,'design');
#10 = MANIFOLD_SURFACE_SHAPE_REPRESENTATION('',(#11,#15),#121);
#11 = AXIS2_PLACEMENT_3D('',#12,#13,#14);
#12 = CARTESIAN_POINT('',(0.,0.,0.));
#13 = DIRECTION('',(0.,0.,1.));
#14 = DIRECTION('',(1.,0.,-0.));
#15 = SHELL_BASED_SURFACE_MODEL('',(#16));
#16 = OPEN_SHELL('',(#17));
#17 = ADVANCED_FACE('',(#18),#40,.T.);
#18 = FACE_BOUND('',#19,.T.);
#19 = EDGE_LOOP('',(#20,#59,#75,#107));
#20 = ORIENTED_EDGE('',*,*,#21,.T.);
#21 = EDGE_CURVE('',#22,#24,#26,.T.);
#22 = VERTEX_POINT('',#23);
#23 = CARTESIAN_POINT('',(0.,1.231356302553,0.));
#24 = VERTEX_POINT('',#25);
#25 = CARTESIAN_POINT('',(150.,-0.317389524387,0.));
#26 = SURFACE_CURVE('',#27,(#39),.PCURVE_S1.);
#27 = B_SPLINE_CURVE_WITH_KNOTS('',1,(#28,#29,#30,#31,#32,#33,#34,#35,
    #36,#37,#38),.UNSPECIFIED.,.F.,.F.,(2,1,1,1,1,1,1,1,1,1,2),(0.,
    5.225805253499E-02,0.180384690963,0.25880844062,0.279327744955,
    0.320021496654,0.444287187109,0.816758214946,0.862850238898,
    0.921880933075,1.),.UNSPECIFIED.);
#28 = CARTESIAN_POINT('',(0.,1.231356302553,0.));
#29 = CARTESIAN_POINT('',(7.369019595354,-1.588821315643,0.));
#30 = CARTESIAN_POINT('',(26.702700773238,-2.260264783588,0.));
#31 = CARTESIAN_POINT('',(38.542649269501,-2.409851121399,0.));
#32 = CARTESIAN_POINT('',(41.600563099258,-2.907411649505,0.));
#33 = CARTESIAN_POINT('',(47.744738352465,-2.894200098627,0.));
#34 = CARTESIAN_POINT('',(66.506298597607,-2.717994796608,0.));
#35 = CARTESIAN_POINT('',(122.49515737594,2.569067156983,0.));
#36 = CARTESIAN_POINT('',(129.44314463987,2.173238784433,0.));
#37 = CARTESIAN_POINT('',(138.29967592423,1.173200841144,0.));
#38 = CARTESIAN_POINT('',(150.,-0.317389524387,0.));
#39 = PCURVE('',#40,#45);
#40 = PLANE('',#41);
#41 = AXIS2_PLACEMENT_3D('',#42,#43,#44);
#42 = CARTESIAN_POINT('',(75.558140721029,7.5,0.));
#43 = DIRECTION('',(0.,0.,1.));
#44 = DIRECTION('',(1.,0.,-0.));
#45 = DEFINITIONAL_REPRESENTATION('',(#46),#58);
#46 = B_SPLINE_CURVE_WITH_KNOTS('',1,(#47,#48,#49,#50,#51,#52,#53,#54,
    #55,#56,#57),.UNSPECIFIED.,.F.,.F.,(2,1,1,1,1,1,1,1,1,1,2),(0.,
    5.225805253499E-02,0.180384690963,0.25880844062,0.279327744955,
    0.320021496654,0.444287187109,0.816758214946,0.862850238898,
    0.921880933075,1.),.UNSPECIFIED.);
#47 = CARTESIAN_POINT('',(-75.55814072102,-6.268643697447));
#48 = CARTESIAN_POINT('',(-68.18912112567,-9.088821315643));
#49 = CARTESIAN_POINT('',(-48.85543994779,-9.760264783588));
#50 = CARTESIAN_POINT('',(-37.01549145152,-9.909851121399));
#51 = CARTESIAN_POINT('',(-33.95757762177,-10.4074116495));
#52 = CARTESIAN_POINT('',(-27.81340236856,-10.39420009862));
#53 = CARTESIAN_POINT('',(-9.051842123422,-10.2179947966));
#54 = CARTESIAN_POINT('',(46.937016654912,-4.930932843017));
#55 = CARTESIAN_POINT('',(53.885003918848,-5.326761215567));
#56 = CARTESIAN_POINT('',(62.741535203208,-6.326799158856));
#57 = CARTESIAN_POINT('',(74.441859278971,-7.817389524387));
#58 = ( GEOMETRIC_REPRESENTATION_CONTEXT(2) 
PARAMETRIC_REPRESENTATION_CONTEXT() REPRESENTATION_CONTEXT('2D SPACE',''
  ) );
#59 = ORIENTED_EDGE('',*,*,#60,.T.);
#60 = EDGE_CURVE('',#24,#61,#63,.T.);
#61 = VERTEX_POINT('',#62);
#62 = CARTESIAN_POINT('',(150.,15.317389524387,0.));
#63 = SURFACE_CURVE('',#64,(#68),.PCURVE_S1.);
#64 = LINE('',#65,#66);
#65 = CARTESIAN_POINT('',(150.,-0.317389524387,0.));
#66 = VECTOR('',#67,1.);
#67 = DIRECTION('',(0.,1.,0.));
#68 = PCURVE('',#40,#69);
#69 = DEFINITIONAL_REPRESENTATION('',(#70),#74);
#70 = LINE('',#71,#72);
#71 = CARTESIAN_POINT('',(74.441859278971,-7.817389524387));
#72 = VECTOR('',#73,1.);
#73 = DIRECTION('',(0.,1.));
#74 = ( GEOMETRIC_REPRESENTATION_CONTEXT(2) 
PARAMETRIC_REPRESENTATION_CONTEXT() REPRESENTATION_CONTEXT('2D SPACE',''
  ) );
#75 = ORIENTED_EDGE('',*,*,#76,.T.);
#76 = EDGE_CURVE('',#61,#77,#79,.T.);
#77 = VERTEX_POINT('',#78);
#78 = CARTESIAN_POINT('',(0.,13.768643697447,0.));
#79 = SURFACE_CURVE('',#80,(#92),.PCURVE_S1.);
#80 = B_SPLINE_CURVE_WITH_KNOTS('',1,(#81,#82,#83,#84,#85,#86,#87,#88,
    #89,#90,#91),.UNSPECIFIED.,.F.,.F.,(2,1,1,1,1,1,1,1,1,1,2),(0.,
    7.811906692501E-02,0.137149761102,0.183241785054,0.555712812891,
    0.679978503346,0.720672255045,0.74119155938,0.819615309037,
    0.947741947465,1.),.UNSPECIFIED.);
#81 = CARTESIAN_POINT('',(150.,15.317389524387,0.));
#82 = CARTESIAN_POINT('',(138.29967592423,13.826799158856,0.));
#83 = CARTESIAN_POINT('',(129.44314463987,12.826761215567,0.));
#84 = CARTESIAN_POINT('',(122.49515737594,12.430932843017,0.));
#85 = CARTESIAN_POINT('',(66.506298597607,17.717994796608,0.));
#86 = CARTESIAN_POINT('',(47.744738352465,17.894200098627,0.));
#87 = CARTESIAN_POINT('',(41.600563099258,17.907411649505,0.));
#88 = CARTESIAN_POINT('',(38.542649269501,17.409851121399,0.));
#89 = CARTESIAN_POINT('',(26.702700773238,17.260264783588,0.));
#90 = CARTESIAN_POINT('',(7.369019595354,16.588821315643,0.));
#91 = CARTESIAN_POINT('',(0.,13.768643697447,0.));
#92 = PCURVE('',#40,#93);
#93 = DEFINITIONAL_REPRESENTATION('',(#94),#106);
#94 = B_SPLINE_CURVE_WITH_KNOTS('',1,(#95,#96,#97,#98,#99,#100,#101,#102
    ,#103,#104,#105),.UNSPECIFIED.,.F.,.F.,(2,1,1,1,1,1,1,1,1,1,2),(0.,
    7.811906692501E-02,0.137149761102,0.183241785054,0.555712812891,
    0.679978503346,0.720672255045,0.74119155938,0.819615309037,
    0.947741947465,1.),.UNSPECIFIED.);
#95 = CARTESIAN_POINT('',(74.441859278971,7.817389524387));
#96 = CARTESIAN_POINT('',(62.741535203208,6.326799158856));
#97 = CARTESIAN_POINT('',(53.885003918848,5.326761215567));
#98 = CARTESIAN_POINT('',(46.937016654912,4.930932843017));
#99 = CARTESIAN_POINT('',(-9.051842123422,10.217994796608));
#100 = CARTESIAN_POINT('',(-27.81340236856,10.394200098627));
#101 = CARTESIAN_POINT('',(-33.95757762177,10.407411649505));
#102 = CARTESIAN_POINT('',(-37.01549145152,9.909851121399));
#103 = CARTESIAN_POINT('',(-48.85543994779,9.760264783588));
#104 = CARTESIAN_POINT('',(-68.18912112567,9.088821315643));
#105 = CARTESIAN_POINT('',(-75.55814072102,6.268643697447));
#106 = ( GEOMETRIC_REPRESENTATION_CONTEXT(2) 
PARAMETRIC_REPRESENTATION_CONTEXT() REPRESENTATION_CONTEXT('2D SPACE',''
  ) );
#107 = ORIENTED_EDGE('',*,*,#108,.T.);
#108 = EDGE_CURVE('',#77,#22,#109,.T.);
#109 = SURFACE_CURVE('',#110,(#114),.PCURVE_S1.);
#110 = LINE('',#111,#112);
#111 = CARTESIAN_POINT('',(0.,13.768643697447,0.));
#112 = VECTOR('',#113,1.);
#113 = DIRECTION('',(0.,-1.,0.));
#114 = PCURVE('',#40,#115);
#115 = DEFINITIONAL_REPRESENTATION('',(#116),#120);
#116 = LINE('',#117,#118);
#117 = CARTESIAN_POINT('',(-75.55814072102,6.268643697447));
#118 = VECTOR('',#119,1.);
#119 = DIRECTION('',(0.,-1.));
#120 = ( GEOMETRIC_REPRESENTATION_CONTEXT(2) 
PARAMETRIC_REPRESENTATION_CONTEXT() REPRESENTATION_CONTEXT('2D SPACE',''
  ) );
#121 = ( GEOMETRIC_REPRESENTATION_CONTEXT(3) 
GLOBAL_UNCERTAINTY_ASSIGNED_CONTEXT((#125)) GLOBAL_UNIT_ASSIGNED_CONTEXT
((#122,#123,#124)) REPRESENTATION_CONTEXT('Context #1',
  '3D Context with UNIT and UNCERTAINTY') );
#122 = ( LENGTH_UNIT() NAMED_UNIT(*) SI_UNIT(.MILLI.,.METRE.) );
#123 = ( NAMED_UNIT(*) PLANE_ANGLE_UNIT() SI_UNIT($,.RADIAN.) );
#124 = ( NAMED_UNIT(*) SI_UNIT($,.STERADIAN.) SOLID_ANGLE_UNIT() );
#125 = UNCERTAINTY_MEASURE_WITH_UNIT(LENGTH_MEASURE(1.E-07),#122,
  'distance_accuracy_value','confusion accuracy');
#126 = PRODUCT_RELATED_PRODUCT_CATEGORY('part',$,(#7));
ENDSEC;
END-ISO-10303-21;
