ISO-10303-21;
HEADER;
FILE_DESCRIPTION(('Open CASCADE Model'),'2;1');
FILE_NAME('Open CASCADE Shape Model','2026-06-04T12:09:59',('Author'),(
    'Open CASCADE'),'Open CASCADE STEP processor 7.9','Open CASCADE 7.9'
  ,'Unknown');
FILE_SCHEMA(('AUTOMOTIVE_DESIGN { 1 0 10303 214 1 1 1 1 }'));
ENDSEC;
DATA;
#1 = APPLICATION_PROTOCOL_DEFINITION('international standard',
  'automotive_design',2000,#2);
#2 = APPLICATION_CONTEXT(
  'core data for automotive mechanical design processes');
#3 = SHAPE_DEFINITION_REPRESENTATION(#4,#10);
#4 = PRODUCT_DEFINITION_SHAPE('','',#5);
#5 = PRODUCT_DEFINITION('design','',#6,#9);
#6 = PRODUCT_DEFINITION_FORMATION('','',#7);
#7 = PRODUCT('Open CASCADE STEP translator 7.9 87',
  'Open CASCADE STEP translator 7.9 87','',(#8));
#8 = PRODUCT_CONTEXT('',#2,'mechanical');
#9 = PRODUCT_DEFINITION_CONTEXT('part definition',#2,'design');
#10 = MANIFOLD_SURFACE_SHAPE_REPRESENTATION('',(#11,#15),#121);
#11 = AXIS2_PLACEMENT_3D('',#12,#13,#14);
#12 = CARTESIAN_POINT('',(0.,0.,0.));
#13 = DIRECTION('',(0.,0.,1.));
#14 = DIRECTION('',(1.,0.,-0.));
#15 = SHELL_BASED_SURFACE_MODEL('',(#16));
#16 = OPEN_SHELL('',(#17));
#17 = ADVANCED_FACE('',(#18),#40,.T.);
#18 = FACE_BOUND('',#19,.T.);
#19 = EDGE_LOOP('',(#20,#59,#75,#107));
#20 = ORIENTED_EDGE('',*,*,#21,.T.);
#21 = EDGE_CURVE('',#22,#24,#26,.T.);
#22 = VERTEX_POINT('',#23);
#23 = CARTESIAN_POINT('',(0.,-2.646457708588,0.));
#24 = VERTEX_POINT('',#25);
#25 = CARTESIAN_POINT('',(150.,-1.536558886277,0.));
#26 = SURFACE_CURVE('',#27,(#39),.PCURVE_S1.);
#27 = B_SPLINE_CURVE_WITH_KNOTS('',1,(#28,#29,#30,#31,#32,#33,#34,#35,
    #36,#37,#38),.UNSPECIFIED.,.F.,.F.,(2,1,1,1,1,1,1,1,1,1,2),(0.,
    4.916433545374E-02,0.143120582531,0.17404420907,0.197015854768,
    0.298279128971,0.764972611474,0.858544774534,0.896504845696,
    0.956725599668,1.),.UNSPECIFIED.);
#28 = CARTESIAN_POINT('',(0.,-2.646457708588,0.));
#29 = CARTESIAN_POINT('',(6.060834147168,1.995810002135,0.));
#30 = CARTESIAN_POINT('',(20.388109044166,-0.759835306185,0.));
#31 = CARTESIAN_POINT('',(24.838941994418,1.042569827016,0.));
#32 = CARTESIAN_POINT('',(27.863000552513,-0.849367955786,0.));
#33 = CARTESIAN_POINT('',(43.52723136238,0.526448421216,0.));
#34 = CARTESIAN_POINT('',(115.96713790186,-1.557858313838,0.));
#35 = CARTESIAN_POINT('',(130.14651391798,1.615925248033,0.));
#36 = CARTESIAN_POINT('',(134.42881394258,-2.434751117486,0.));
#37 = CARTESIAN_POINT('',(143.45793013605,-1.257895880113E-03,0.));
#38 = CARTESIAN_POINT('',(150.,-1.536558886277,0.));
#39 = PCURVE('',#40,#45);
#40 = PLANE('',#41);
#41 = AXIS2_PLACEMENT_3D('',#42,#43,#44);
#42 = CARTESIAN_POINT('',(74.328353654788,7.5,0.));
#43 = DIRECTION('',(0.,0.,1.));
#44 = DIRECTION('',(1.,0.,-0.));
#45 = DEFINITIONAL_REPRESENTATION('',(#46),#58);
#46 = B_SPLINE_CURVE_WITH_KNOTS('',1,(#47,#48,#49,#50,#51,#52,#53,#54,
    #55,#56,#57),.UNSPECIFIED.,.F.,.F.,(2,1,1,1,1,1,1,1,1,1,2),(0.,
    4.916433545374E-02,0.143120582531,0.17404420907,0.197015854768,
    0.298279128971,0.764972611474,0.858544774534,0.896504845696,
    0.956725599668,1.),.UNSPECIFIED.);
#47 = CARTESIAN_POINT('',(-74.32835365478,-10.14645770858));
#48 = CARTESIAN_POINT('',(-68.26751950762,-5.504189997865));
#49 = CARTESIAN_POINT('',(-53.94024461062,-8.259835306185));
#50 = CARTESIAN_POINT('',(-49.48941166037,-6.457430172984));
#51 = CARTESIAN_POINT('',(-46.46535310227,-8.349367955786));
#52 = CARTESIAN_POINT('',(-30.8011222924,-6.973551578784));
#53 = CARTESIAN_POINT('',(41.638784247076,-9.057858313838));
#54 = CARTESIAN_POINT('',(55.818160263195,-5.884074751967));
#55 = CARTESIAN_POINT('',(60.100460287796,-9.934751117486));
#56 = CARTESIAN_POINT('',(69.129576481265,-7.50125789588));
#57 = CARTESIAN_POINT('',(75.671646345212,-9.036558886277));
#58 = ( GEOMETRIC_REPRESENTATION_CONTEXT(2) 
PARAMETRIC_REPRESENTATION_CONTEXT() REPRESENTATION_CONTEXT('2D SPACE',''
  ) );
#59 = ORIENTED_EDGE('',*,*,#60,.T.);
#60 = EDGE_CURVE('',#24,#61,#63,.T.);
#61 = VERTEX_POINT('',#62);
#62 = CARTESIAN_POINT('',(150.,16.536558886277,0.));
#63 = SURFACE_CURVE('',#64,(#68),.PCURVE_S1.);
#64 = LINE('',#65,#66);
#65 = CARTESIAN_POINT('',(150.,-1.536558886277,0.));
#66 = VECTOR('',#67,1.);
#67 = DIRECTION('',(0.,1.,0.));
#68 = PCURVE('',#40,#69);
#69 = DEFINITIONAL_REPRESENTATION('',(#70),#74);
#70 = LINE('',#71,#72);
#71 = CARTESIAN_POINT('',(75.671646345212,-9.036558886277));
#72 = VECTOR('',#73,1.);
#73 = DIRECTION('',(0.,1.));
#74 = ( GEOMETRIC_REPRESENTATION_CONTEXT(2) 
PARAMETRIC_REPRESENTATION_CONTEXT() REPRESENTATION_CONTEXT('2D SPACE',''
  ) );
#75 = ORIENTED_EDGE('',*,*,#76,.T.);
#76 = EDGE_CURVE('',#61,#77,#79,.T.);
#77 = VERTEX_POINT('',#78);
#78 = CARTESIAN_POINT('',(0.,17.646457708588,0.));
#79 = SURFACE_CURVE('',#80,(#92),.PCURVE_S1.);
#80 = B_SPLINE_CURVE_WITH_KNOTS('',1,(#81,#82,#83,#84,#85,#86,#87,#88,
    #89,#90,#91),.UNSPECIFIED.,.F.,.F.,(2,1,1,1,1,1,1,1,1,1,2),(0.,
    4.327440033234E-02,0.103495154304,0.141455225466,0.235027388526,
    0.701720871029,0.802984145232,0.82595579093,0.856879417469,
    0.950835664546,1.),.UNSPECIFIED.);
#81 = CARTESIAN_POINT('',(150.,16.536558886277,0.));
#82 = CARTESIAN_POINT('',(143.45793013605,15.00125789588,0.));
#83 = CARTESIAN_POINT('',(134.42881394258,17.434751117486,0.));
#84 = CARTESIAN_POINT('',(130.14651391798,13.384074751967,0.));
#85 = CARTESIAN_POINT('',(115.96713790186,16.557858313838,0.));
#86 = CARTESIAN_POINT('',(43.52723136238,14.473551578784,0.));
#87 = CARTESIAN_POINT('',(27.863000552513,15.849367955786,0.));
#88 = CARTESIAN_POINT('',(24.838941994418,13.957430172984,0.));
#89 = CARTESIAN_POINT('',(20.388109044166,15.759835306185,0.));
#90 = CARTESIAN_POINT('',(6.060834147168,13.004189997865,0.));
#91 = CARTESIAN_POINT('',(0.,17.646457708588,0.));
#92 = PCURVE('',#40,#93);
#93 = DEFINITIONAL_REPRESENTATION('',(#94),#106);
#94 = B_SPLINE_CURVE_WITH_KNOTS('',1,(#95,#96,#97,#98,#99,#100,#101,#102
    ,#103,#104,#105),.UNSPECIFIED.,.F.,.F.,(2,1,1,1,1,1,1,1,1,1,2),(0.,
    4.327440033234E-02,0.103495154304,0.141455225466,0.235027388526,
    0.701720871029,0.802984145232,0.82595579093,0.856879417469,
    0.950835664546,1.),.UNSPECIFIED.);
#95 = CARTESIAN_POINT('',(75.671646345212,9.036558886277));
#96 = CARTESIAN_POINT('',(69.129576481265,7.50125789588));
#97 = CARTESIAN_POINT('',(60.100460287796,9.934751117486));
#98 = CARTESIAN_POINT('',(55.818160263195,5.884074751967));
#99 = CARTESIAN_POINT('',(41.638784247076,9.057858313838));
#100 = CARTESIAN_POINT('',(-30.8011222924,6.973551578784));
#101 = CARTESIAN_POINT('',(-46.46535310227,8.349367955786));
#102 = CARTESIAN_POINT('',(-49.48941166037,6.457430172984));
#103 = CARTESIAN_POINT('',(-53.94024461062,8.259835306185));
#104 = CARTESIAN_POINT('',(-68.26751950762,5.504189997865));
#105 = CARTESIAN_POINT('',(-74.32835365478,10.146457708588));
#106 = ( GEOMETRIC_REPRESENTATION_CONTEXT(2) 
PARAMETRIC_REPRESENTATION_CONTEXT() REPRESENTATION_CONTEXT('2D SPACE',''
  ) );
#107 = ORIENTED_EDGE('',*,*,#108,.T.);
#108 = EDGE_CURVE('',#77,#22,#109,.T.);
#109 = SURFACE_CURVE('',#110,(#114),.PCURVE_S1.);
#110 = LINE('',#111,#112);
#111 = CARTESIAN_POINT('',(0.,17.646457708588,0.));
#112 = VECTOR('',#113,1.);
#113 = DIRECTION('',(0.,-1.,0.));
#114 = PCURVE('',#40,#115);
#115 = DEFINITIONAL_REPRESENTATION('',(#116),#120);
#116 = LINE('',#117,#118);
#117 = CARTESIAN_POINT('',(-74.32835365478,10.146457708588));
#118 = VECTOR('',#119,1.);
#119 = DIRECTION('',(0.,-1.));
#120 = ( GEOMETRIC_REPRESENTATION_CONTEXT(2) 
PARAMETRIC_REPRESENTATION_CONTEXT() REPRESENTATION_CONTEXT('2D SPACE',''
  ) );
#121 = ( GEOMETRIC_REPRESENTATION_CONTEXT(3) 
GLOBAL_UNCERTAINTY_ASSIGNED_CONTEXT((#125)) GLOBAL_UNIT_ASSIGNED_CONTEXT
((#122,#123,#124)) REPRESENTATION_CONTEXT('Context #1',
  '3D Context with UNIT and UNCERTAINTY') );
#122 = ( LENGTH_UNIT() NAMED_UNIT(*) SI_UNIT(.MILLI.,.METRE.) );
#123 = ( NAMED_UNIT(*) PLANE_ANGLE_UNIT() SI_UNIT($,.RADIAN.) );
#124 = ( NAMED_UNIT(*) SI_UNIT($,.STERADIAN.) SOLID_ANGLE_UNIT() );
#125 = UNCERTAINTY_MEASURE_WITH_UNIT(LENGTH_MEASURE(1.E-07),#122,
  'distance_accuracy_value','confusion accuracy');
#126 = PRODUCT_RELATED_PRODUCT_CATEGORY('part',$,(#7));
ENDSEC;
END-ISO-10303-21;
