ISO-10303-21;
HEADER;
FILE_DESCRIPTION(('Open CASCADE Model'),'2;1');
FILE_NAME('Open CASCADE Shape Model','2026-06-04T12:09:59',('Author'),(
    'Open CASCADE'),'Open CASCADE STEP processor 7.9','Open CASCADE 7.9'
  ,'Unknown');
FILE_SCHEMA(('AUTOMOTIVE_DESIGN { 1 0 10303 214 1 1 1 1 }'));
ENDSEC;
DATA;
#1 = APPLICATION_PROTOCOL_DEFINITION('international standard',
  'automotive_design',2000,#2);
#2 = APPLICATION_CONTEXT(
  'core data for automotive mechanical design processes');
#3 = SHAPE_DEFINITION_REPRESENTATION(#4,#10);
#4 = PRODUCT_DEFINITION_SHAPE('','',#5);
#5 = PRODUCT_DEFINITION('design','',#6,#9);
#6 = PRODUCT_DEFINITION_FORMATION('','',#7);
#7 = PRODUCT('Open CASCADE STEP translator 7.9 88',
  'Open CASCADE STEP translator 7.9 88','',(#8));
#8 = PRODUCT_CONTEXT('',#2,'mechanical');
#9 = PRODUCT_DEFINITION_CONTEXT('part definition',#2,'design');
#10 = MANIFOLD_SURFACE_SHAPE_REPRESENTATION('',(#11,#15),#121);
#11 = AXIS2_PLACEMENT_3D('',#12,#13,#14);
#12 = CARTESIAN_POINT('',(0.,0.,0.));
#13 = DIRECTION('',(0.,0.,1.));
#14 = DIRECTION('',(1.,0.,-0.));
#15 = SHELL_BASED_SURFACE_MODEL('',(#16));
#16 = OPEN_SHELL('',(#17));
#17 = ADVANCED_FACE('',(#18),#40,.T.);
#18 = FACE_BOUND('',#19,.T.);
#19 = EDGE_LOOP('',(#20,#59,#75,#107));
#20 = ORIENTED_EDGE('',*,*,#21,.T.);
#21 = EDGE_CURVE('',#22,#24,#26,.T.);
#22 = VERTEX_POINT('',#23);
#23 = CARTESIAN_POINT('',(0.,-0.171250373655,0.));
#24 = VERTEX_POINT('',#25);
#25 = CARTESIAN_POINT('',(150.,-0.283697047229,0.));
#26 = SURFACE_CURVE('',#27,(#39),.PCURVE_S1.);
#27 = B_SPLINE_CURVE_WITH_KNOTS('',1,(#28,#29,#30,#31,#32,#33,#34,#35,
    #36,#37,#38),.UNSPECIFIED.,.F.,.F.,(2,1,1,1,1,1,1,1,1,1,2),(0.,
    3.777663490182E-02,0.116127109123,0.228527820779,0.274485158998,
    0.443453447686,0.58703429945,0.721490679096,0.839837464056,
    0.933594318413,1.),.UNSPECIFIED.);
#28 = CARTESIAN_POINT('',(0.,-0.171250373655,0.));
#29 = CARTESIAN_POINT('',(5.442392848571,-1.997022327969,0.));
#30 = CARTESIAN_POINT('',(16.916480741795,1.180787540192,0.));
#31 = CARTESIAN_POINT('',(33.977037143586,0.361145745117,0.));
#32 = CARTESIAN_POINT('',(40.145176282104,-2.913726609072,0.));
#33 = CARTESIAN_POINT('',(65.821329575222,-2.910280180325,0.));
#34 = CARTESIAN_POINT('',(87.634506829415,-2.436640864591,0.));
#35 = CARTESIAN_POINT('',(108.05607189645,-1.790690068968,0.));
#36 = CARTESIAN_POINT('',(125.7572107564,1.385216995663,0.));
#37 = CARTESIAN_POINT('',(140.00097392782,1.074899555597,0.));
#38 = CARTESIAN_POINT('',(150.,-0.283697047229,0.));
#39 = PCURVE('',#40,#45);
#40 = PLANE('',#41);
#41 = AXIS2_PLACEMENT_3D('',#42,#43,#44);
#42 = CARTESIAN_POINT('',(74.678184304458,7.5,0.));
#43 = DIRECTION('',(0.,0.,1.));
#44 = DIRECTION('',(1.,0.,-0.));
#45 = DEFINITIONAL_REPRESENTATION('',(#46),#58);
#46 = B_SPLINE_CURVE_WITH_KNOTS('',1,(#47,#48,#49,#50,#51,#52,#53,#54,
    #55,#56,#57),.UNSPECIFIED.,.F.,.F.,(2,1,1,1,1,1,1,1,1,1,2),(0.,
    3.777663490182E-02,0.116127109123,0.228527820779,0.274485158998,
    0.443453447686,0.58703429945,0.721490679096,0.839837464056,
    0.933594318413,1.),.UNSPECIFIED.);
#47 = CARTESIAN_POINT('',(-74.67818430445,-7.671250373655));
#48 = CARTESIAN_POINT('',(-69.23579145588,-9.497022327969));
#49 = CARTESIAN_POINT('',(-57.76170356266,-6.319212459808));
#50 = CARTESIAN_POINT('',(-40.70114716087,-7.138854254883));
#51 = CARTESIAN_POINT('',(-34.53300802235,-10.41372660907));
#52 = CARTESIAN_POINT('',(-8.856854729236,-10.41028018032));
#53 = CARTESIAN_POINT('',(12.956322524957,-9.936640864591));
#54 = CARTESIAN_POINT('',(33.377887591993,-9.290690068968));
#55 = CARTESIAN_POINT('',(51.07902645195,-6.114783004337));
#56 = CARTESIAN_POINT('',(65.322789623367,-6.425100444403));
#57 = CARTESIAN_POINT('',(75.321815695542,-7.783697047229));
#58 = ( GEOMETRIC_REPRESENTATION_CONTEXT(2) 
PARAMETRIC_REPRESENTATION_CONTEXT() REPRESENTATION_CONTEXT('2D SPACE',''
  ) );
#59 = ORIENTED_EDGE('',*,*,#60,.T.);
#60 = EDGE_CURVE('',#24,#61,#63,.T.);
#61 = VERTEX_POINT('',#62);
#62 = CARTESIAN_POINT('',(150.,15.283697047229,0.));
#63 = SURFACE_CURVE('',#64,(#68),.PCURVE_S1.);
#64 = LINE('',#65,#66);
#65 = CARTESIAN_POINT('',(150.,-0.283697047229,0.));
#66 = VECTOR('',#67,1.);
#67 = DIRECTION('',(0.,1.,0.));
#68 = PCURVE('',#40,#69);
#69 = DEFINITIONAL_REPRESENTATION('',(#70),#74);
#70 = LINE('',#71,#72);
#71 = CARTESIAN_POINT('',(75.321815695542,-7.783697047229));
#72 = VECTOR('',#73,1.);
#73 = DIRECTION('',(0.,1.));
#74 = ( GEOMETRIC_REPRESENTATION_CONTEXT(2) 
PARAMETRIC_REPRESENTATION_CONTEXT() REPRESENTATION_CONTEXT('2D SPACE',''
  ) );
#75 = ORIENTED_EDGE('',*,*,#76,.T.);
#76 = EDGE_CURVE('',#61,#77,#79,.T.);
#77 = VERTEX_POINT('',#78);
#78 = CARTESIAN_POINT('',(0.,15.171250373655,0.));
#79 = SURFACE_CURVE('',#80,(#92),.PCURVE_S1.);
#80 = B_SPLINE_CURVE_WITH_KNOTS('',1,(#81,#82,#83,#84,#85,#86,#87,#88,
    #89,#90,#91),.UNSPECIFIED.,.F.,.F.,(2,1,1,1,1,1,1,1,1,1,2),(0.,
    6.640568158671E-02,0.160162535944,0.278509320904,0.41296570055,
    0.556546552314,0.725514841002,0.771472179221,0.883872890877,
    0.962223365098,1.),.UNSPECIFIED.);
#81 = CARTESIAN_POINT('',(150.,15.283697047229,0.));
#82 = CARTESIAN_POINT('',(140.00097392782,13.925100444403,0.));
#83 = CARTESIAN_POINT('',(125.7572107564,13.614783004337,0.));
#84 = CARTESIAN_POINT('',(108.05607189645,16.790690068968,0.));
#85 = CARTESIAN_POINT('',(87.634506829415,17.436640864591,0.));
#86 = CARTESIAN_POINT('',(65.821329575222,17.910280180325,0.));
#87 = CARTESIAN_POINT('',(40.145176282104,17.913726609072,0.));
#88 = CARTESIAN_POINT('',(33.977037143586,14.638854254883,0.));
#89 = CARTESIAN_POINT('',(16.916480741795,13.819212459808,0.));
#90 = CARTESIAN_POINT('',(5.442392848571,16.997022327969,0.));
#91 = CARTESIAN_POINT('',(0.,15.171250373655,0.));
#92 = PCURVE('',#40,#93);
#93 = DEFINITIONAL_REPRESENTATION('',(#94),#106);
#94 = B_SPLINE_CURVE_WITH_KNOTS('',1,(#95,#96,#97,#98,#99,#100,#101,#102
    ,#103,#104,#105),.UNSPECIFIED.,.F.,.F.,(2,1,1,1,1,1,1,1,1,1,2),(0.,
    6.640568158671E-02,0.160162535944,0.278509320904,0.41296570055,
    0.556546552314,0.725514841002,0.771472179221,0.883872890877,
    0.962223365098,1.),.UNSPECIFIED.);
#95 = CARTESIAN_POINT('',(75.321815695542,7.783697047229));
#96 = CARTESIAN_POINT('',(65.322789623367,6.425100444403));
#97 = CARTESIAN_POINT('',(51.07902645195,6.114783004337));
#98 = CARTESIAN_POINT('',(33.377887591993,9.290690068968));
#99 = CARTESIAN_POINT('',(12.956322524957,9.936640864591));
#100 = CARTESIAN_POINT('',(-8.856854729236,10.410280180325));
#101 = CARTESIAN_POINT('',(-34.53300802235,10.413726609072));
#102 = CARTESIAN_POINT('',(-40.70114716087,7.138854254883));
#103 = CARTESIAN_POINT('',(-57.76170356266,6.319212459808));
#104 = CARTESIAN_POINT('',(-69.23579145588,9.497022327969));
#105 = CARTESIAN_POINT('',(-74.67818430445,7.671250373655));
#106 = ( GEOMETRIC_REPRESENTATION_CONTEXT(2) 
PARAMETRIC_REPRESENTATION_CONTEXT() REPRESENTATION_CONTEXT('2D SPACE',''
  ) );
#107 = ORIENTED_EDGE('',*,*,#108,.T.);
#108 = EDGE_CURVE('',#77,#22,#109,.T.);
#109 = SURFACE_CURVE('',#110,(#114),.PCURVE_S1.);
#110 = LINE('',#111,#112);
#111 = CARTESIAN_POINT('',(0.,15.171250373655,0.));
#112 = VECTOR('',#113,1.);
#113 = DIRECTION('',(0.,-1.,0.));
#114 = PCURVE('',#40,#115);
#115 = DEFINITIONAL_REPRESENTATION('',(#116),#120);
#116 = LINE('',#117,#118);
#117 = CARTESIAN_POINT('',(-74.67818430445,7.671250373655));
#118 = VECTOR('',#119,1.);
#119 = DIRECTION('',(0.,-1.));
#120 = ( GEOMETRIC_REPRESENTATION_CONTEXT(2) 
PARAMETRIC_REPRESENTATION_CONTEXT() REPRESENTATION_CONTEXT('2D SPACE',''
  ) );
#121 = ( GEOMETRIC_REPRESENTATION_CONTEXT(3) 
GLOBAL_UNCERTAINTY_ASSIGNED_CONTEXT((#125)) GLOBAL_UNIT_ASSIGNED_CONTEXT
((#122,#123,#124)) REPRESENTATION_CONTEXT('Context #1',
  '3D Context with UNIT and UNCERTAINTY') );
#122 = ( LENGTH_UNIT() NAMED_UNIT(*) SI_UNIT(.MILLI.,.METRE.) );
#123 = ( NAMED_UNIT(*) PLANE_ANGLE_UNIT() SI_UNIT($,.RADIAN.) );
#124 = ( NAMED_UNIT(*) SI_UNIT($,.STERADIAN.) SOLID_ANGLE_UNIT() );
#125 = UNCERTAINTY_MEASURE_WITH_UNIT(LENGTH_MEASURE(1.E-07),#122,
  'distance_accuracy_value','confusion accuracy');
#126 = PRODUCT_RELATED_PRODUCT_CATEGORY('part',$,(#7));
ENDSEC;
END-ISO-10303-21;
