ISO-10303-21;
HEADER;
FILE_DESCRIPTION(('Open CASCADE Model'),'2;1');
FILE_NAME('Open CASCADE Shape Model','2026-06-04T12:09:59',('Author'),(
    'Open CASCADE'),'Open CASCADE STEP processor 7.9','Open CASCADE 7.9'
  ,'Unknown');
FILE_SCHEMA(('AUTOMOTIVE_DESIGN { 1 0 10303 214 1 1 1 1 }'));
ENDSEC;
DATA;
#1 = APPLICATION_PROTOCOL_DEFINITION('international standard',
  'automotive_design',2000,#2);
#2 = APPLICATION_CONTEXT(
  'core data for automotive mechanical design processes');
#3 = SHAPE_DEFINITION_REPRESENTATION(#4,#10);
#4 = PRODUCT_DEFINITION_SHAPE('','',#5);
#5 = PRODUCT_DEFINITION('design','',#6,#9);
#6 = PRODUCT_DEFINITION_FORMATION('','',#7);
#7 = PRODUCT('Open CASCADE STEP translator 7.9 79',
  'Open CASCADE STEP translator 7.9 79','',(#8));
#8 = PRODUCT_CONTEXT('',#2,'mechanical');
#9 = PRODUCT_DEFINITION_CONTEXT('part definition',#2,'design');
#10 = MANIFOLD_SURFACE_SHAPE_REPRESENTATION('',(#11,#15),#121);
#11 = AXIS2_PLACEMENT_3D('',#12,#13,#14);
#12 = CARTESIAN_POINT('',(0.,0.,0.));
#13 = DIRECTION('',(0.,0.,1.));
#14 = DIRECTION('',(1.,0.,-0.));
#15 = SHELL_BASED_SURFACE_MODEL('',(#16));
#16 = OPEN_SHELL('',(#17));
#17 = ADVANCED_FACE('',(#18),#40,.T.);
#18 = FACE_BOUND('',#19,.T.);
#19 = EDGE_LOOP('',(#20,#59,#75,#107));
#20 = ORIENTED_EDGE('',*,*,#21,.T.);
#21 = EDGE_CURVE('',#22,#24,#26,.T.);
#22 = VERTEX_POINT('',#23);
#23 = CARTESIAN_POINT('',(0.,-2.631068753766,0.));
#24 = VERTEX_POINT('',#25);
#25 = CARTESIAN_POINT('',(150.,1.569968823828,0.));
#26 = SURFACE_CURVE('',#27,(#39),.PCURVE_S1.);
#27 = B_SPLINE_CURVE_WITH_KNOTS('',1,(#28,#29,#30,#31,#32,#33,#34,#35,
    #36,#37,#38),.UNSPECIFIED.,.F.,.F.,(2,1,1,1,1,1,1,1,1,1,2),(0.,
    8.833332640508E-02,0.167542991366,0.200118370816,0.233314118071,
    0.436493034854,0.612435731187,0.69327583273,0.894125025326,
    0.920609216534,1.),.UNSPECIFIED.);
#28 = CARTESIAN_POINT('',(0.,-2.631068753766,0.));
#29 = CARTESIAN_POINT('',(13.341222805544,-1.370249794478,0.));
#30 = CARTESIAN_POINT('',(25.23362348507,0.352663509117,0.));
#31 = CARTESIAN_POINT('',(29.428347598082,-2.26006883251,0.));
#32 = CARTESIAN_POINT('',(34.007730845186,-0.164745780435,0.));
#33 = CARTESIAN_POINT('',(64.803536540206,-1.468625566901,0.));
#34 = CARTESIAN_POINT('',(91.491174962662,-1.923035663152,0.));
#35 = CARTESIAN_POINT('',(103.74764473077,-1.496117170194,0.));
#36 = CARTESIAN_POINT('',(134.09153040361,1.272870743711,0.));
#37 = CARTESIAN_POINT('',(137.97768543406,2.292936594565,0.));
#38 = CARTESIAN_POINT('',(150.,1.569968823828,0.));
#39 = PCURVE('',#40,#45);
#40 = PLANE('',#41);
#41 = AXIS2_PLACEMENT_3D('',#42,#43,#44);
#42 = CARTESIAN_POINT('',(72.813094319513,7.5,0.));
#43 = DIRECTION('',(0.,0.,1.));
#44 = DIRECTION('',(1.,0.,-0.));
#45 = DEFINITIONAL_REPRESENTATION('',(#46),#58);
#46 = B_SPLINE_CURVE_WITH_KNOTS('',1,(#47,#48,#49,#50,#51,#52,#53,#54,
    #55,#56,#57),.UNSPECIFIED.,.F.,.F.,(2,1,1,1,1,1,1,1,1,1,2),(0.,
    8.833332640508E-02,0.167542991366,0.200118370816,0.233314118071,
    0.436493034854,0.612435731187,0.69327583273,0.894125025326,
    0.920609216534,1.),.UNSPECIFIED.);
#47 = CARTESIAN_POINT('',(-72.81309431951,-10.13106875376));
#48 = CARTESIAN_POINT('',(-59.47187151396,-8.870249794478));
#49 = CARTESIAN_POINT('',(-47.57947083444,-7.147336490883));
#50 = CARTESIAN_POINT('',(-43.38474672143,-9.76006883251));
#51 = CARTESIAN_POINT('',(-38.80536347432,-7.664745780435));
#52 = CARTESIAN_POINT('',(-8.009557779307,-8.968625566901));
#53 = CARTESIAN_POINT('',(18.678080643148,-9.423035663152));
#54 = CARTESIAN_POINT('',(30.934550411259,-8.996117170194));
#55 = CARTESIAN_POINT('',(61.278436084098,-6.227129256289));
#56 = CARTESIAN_POINT('',(65.164591114548,-5.207063405435));
#57 = CARTESIAN_POINT('',(77.186905680487,-5.930031176172));
#58 = ( GEOMETRIC_REPRESENTATION_CONTEXT(2) 
PARAMETRIC_REPRESENTATION_CONTEXT() REPRESENTATION_CONTEXT('2D SPACE',''
  ) );
#59 = ORIENTED_EDGE('',*,*,#60,.T.);
#60 = EDGE_CURVE('',#24,#61,#63,.T.);
#61 = VERTEX_POINT('',#62);
#62 = CARTESIAN_POINT('',(150.,13.430031176172,0.));
#63 = SURFACE_CURVE('',#64,(#68),.PCURVE_S1.);
#64 = LINE('',#65,#66);
#65 = CARTESIAN_POINT('',(150.,1.569968823828,0.));
#66 = VECTOR('',#67,1.);
#67 = DIRECTION('',(0.,1.,0.));
#68 = PCURVE('',#40,#69);
#69 = DEFINITIONAL_REPRESENTATION('',(#70),#74);
#70 = LINE('',#71,#72);
#71 = CARTESIAN_POINT('',(77.186905680487,-5.930031176172));
#72 = VECTOR('',#73,1.);
#73 = DIRECTION('',(0.,1.));
#74 = ( GEOMETRIC_REPRESENTATION_CONTEXT(2) 
PARAMETRIC_REPRESENTATION_CONTEXT() REPRESENTATION_CONTEXT('2D SPACE',''
  ) );
#75 = ORIENTED_EDGE('',*,*,#76,.T.);
#76 = EDGE_CURVE('',#61,#77,#79,.T.);
#77 = VERTEX_POINT('',#78);
#78 = CARTESIAN_POINT('',(0.,17.631068753766,0.));
#79 = SURFACE_CURVE('',#80,(#92),.PCURVE_S1.);
#80 = B_SPLINE_CURVE_WITH_KNOTS('',1,(#81,#82,#83,#84,#85,#86,#87,#88,
    #89,#90,#91),.UNSPECIFIED.,.F.,.F.,(2,1,1,1,1,1,1,1,1,1,2),(0.,
    7.939078346632E-02,0.105874974674,0.30672416727,0.387564268813,
    0.563506965146,0.766685881929,0.799881629184,0.832457008634,
    0.911666673595,1.),.UNSPECIFIED.);
#81 = CARTESIAN_POINT('',(150.,13.430031176172,0.));
#82 = CARTESIAN_POINT('',(137.97768543406,12.707063405435,0.));
#83 = CARTESIAN_POINT('',(134.09153040361,13.727129256289,0.));
#84 = CARTESIAN_POINT('',(103.74764473077,16.496117170194,0.));
#85 = CARTESIAN_POINT('',(91.491174962662,16.923035663152,0.));
#86 = CARTESIAN_POINT('',(64.803536540206,16.468625566901,0.));
#87 = CARTESIAN_POINT('',(34.007730845186,15.164745780435,0.));
#88 = CARTESIAN_POINT('',(29.428347598082,17.26006883251,0.));
#89 = CARTESIAN_POINT('',(25.23362348507,14.647336490883,0.));
#90 = CARTESIAN_POINT('',(13.341222805544,16.370249794478,0.));
#91 = CARTESIAN_POINT('',(0.,17.631068753766,0.));
#92 = PCURVE('',#40,#93);
#93 = DEFINITIONAL_REPRESENTATION('',(#94),#106);
#94 = B_SPLINE_CURVE_WITH_KNOTS('',1,(#95,#96,#97,#98,#99,#100,#101,#102
    ,#103,#104,#105),.UNSPECIFIED.,.F.,.F.,(2,1,1,1,1,1,1,1,1,1,2),(0.,
    7.939078346632E-02,0.105874974674,0.30672416727,0.387564268813,
    0.563506965146,0.766685881929,0.799881629184,0.832457008634,
    0.911666673595,1.),.UNSPECIFIED.);
#95 = CARTESIAN_POINT('',(77.186905680487,5.930031176172));
#96 = CARTESIAN_POINT('',(65.164591114548,5.207063405435));
#97 = CARTESIAN_POINT('',(61.278436084098,6.227129256289));
#98 = CARTESIAN_POINT('',(30.934550411259,8.996117170194));
#99 = CARTESIAN_POINT('',(18.678080643148,9.423035663152));
#100 = CARTESIAN_POINT('',(-8.009557779307,8.968625566901));
#101 = CARTESIAN_POINT('',(-38.80536347432,7.664745780435));
#102 = CARTESIAN_POINT('',(-43.38474672143,9.76006883251));
#103 = CARTESIAN_POINT('',(-47.57947083444,7.147336490883));
#104 = CARTESIAN_POINT('',(-59.47187151396,8.870249794478));
#105 = CARTESIAN_POINT('',(-72.81309431951,10.131068753766));
#106 = ( GEOMETRIC_REPRESENTATION_CONTEXT(2) 
PARAMETRIC_REPRESENTATION_CONTEXT() REPRESENTATION_CONTEXT('2D SPACE',''
  ) );
#107 = ORIENTED_EDGE('',*,*,#108,.T.);
#108 = EDGE_CURVE('',#77,#22,#109,.T.);
#109 = SURFACE_CURVE('',#110,(#114),.PCURVE_S1.);
#110 = LINE('',#111,#112);
#111 = CARTESIAN_POINT('',(0.,17.631068753766,0.));
#112 = VECTOR('',#113,1.);
#113 = DIRECTION('',(0.,-1.,0.));
#114 = PCURVE('',#40,#115);
#115 = DEFINITIONAL_REPRESENTATION('',(#116),#120);
#116 = LINE('',#117,#118);
#117 = CARTESIAN_POINT('',(-72.81309431951,10.131068753766));
#118 = VECTOR('',#119,1.);
#119 = DIRECTION('',(0.,-1.));
#120 = ( GEOMETRIC_REPRESENTATION_CONTEXT(2) 
PARAMETRIC_REPRESENTATION_CONTEXT() REPRESENTATION_CONTEXT('2D SPACE',''
  ) );
#121 = ( GEOMETRIC_REPRESENTATION_CONTEXT(3) 
GLOBAL_UNCERTAINTY_ASSIGNED_CONTEXT((#125)) GLOBAL_UNIT_ASSIGNED_CONTEXT
((#122,#123,#124)) REPRESENTATION_CONTEXT('Context #1',
  '3D Context with UNIT and UNCERTAINTY') );
#122 = ( LENGTH_UNIT() NAMED_UNIT(*) SI_UNIT(.MILLI.,.METRE.) );
#123 = ( NAMED_UNIT(*) PLANE_ANGLE_UNIT() SI_UNIT($,.RADIAN.) );
#124 = ( NAMED_UNIT(*) SI_UNIT($,.STERADIAN.) SOLID_ANGLE_UNIT() );
#125 = UNCERTAINTY_MEASURE_WITH_UNIT(LENGTH_MEASURE(1.E-07),#122,
  'distance_accuracy_value','confusion accuracy');
#126 = PRODUCT_RELATED_PRODUCT_CATEGORY('part',$,(#7));
ENDSEC;
END-ISO-10303-21;
