ISO-10303-21;
HEADER;
FILE_DESCRIPTION(('Open CASCADE Model'),'2;1');
FILE_NAME('Open CASCADE Shape Model','2026-06-01T11:13:06',('Author'),(
    'Open CASCADE'),'Open CASCADE STEP processor 7.9','Open CASCADE 7.9'
  ,'Unknown');
FILE_SCHEMA(('AUTOMOTIVE_DESIGN { 1 0 10303 214 1 1 1 1 }'));
ENDSEC;
DATA;
#1 = APPLICATION_PROTOCOL_DEFINITION('international standard',
  'automotive_design',2000,#2);
#2 = APPLICATION_CONTEXT(
  'core data for automotive mechanical design processes');
#3 = SHAPE_DEFINITION_REPRESENTATION(#4,#10);
#4 = PRODUCT_DEFINITION_SHAPE('','',#5);
#5 = PRODUCT_DEFINITION('design','',#6,#9);
#6 = PRODUCT_DEFINITION_FORMATION('','',#7);
#7 = PRODUCT('Open CASCADE STEP translator 7.9 59',
  'Open CASCADE STEP translator 7.9 59','',(#8));
#8 = PRODUCT_CONTEXT('',#2,'mechanical');
#9 = PRODUCT_DEFINITION_CONTEXT('part definition',#2,'design');
#10 = MANIFOLD_SURFACE_SHAPE_REPRESENTATION('',(#11,#15),#121);
#11 = AXIS2_PLACEMENT_3D('',#12,#13,#14);
#12 = CARTESIAN_POINT('',(0.,0.,0.));
#13 = DIRECTION('',(0.,0.,1.));
#14 = DIRECTION('',(1.,0.,-0.));
#15 = SHELL_BASED_SURFACE_MODEL('',(#16));
#16 = OPEN_SHELL('',(#17));
#17 = ADVANCED_FACE('',(#18),#40,.T.);
#18 = FACE_BOUND('',#19,.T.);
#19 = EDGE_LOOP('',(#20,#59,#75,#107));
#20 = ORIENTED_EDGE('',*,*,#21,.T.);
#21 = EDGE_CURVE('',#22,#24,#26,.T.);
#22 = VERTEX_POINT('',#23);
#23 = CARTESIAN_POINT('',(0.,-3.866999588276,0.));
#24 = VERTEX_POINT('',#25);
#25 = CARTESIAN_POINT('',(150.,-4.470094903672,0.));
#26 = SURFACE_CURVE('',#27,(#39),.PCURVE_S1.);
#27 = B_SPLINE_CURVE_WITH_KNOTS('',1,(#28,#29,#30,#31,#32,#33,#34,#35,
    #36,#37,#38),.UNSPECIFIED.,.F.,.F.,(2,1,1,1,1,1,1,1,1,1,2),(0.,
    7.89811612301E-02,0.187778807893,0.30816161298,0.371581001217,
    0.407750236683,0.476114890119,0.537980154606,0.60566132565,
    0.64933389547,1.),.UNSPECIFIED.);
#28 = CARTESIAN_POINT('',(0.,-3.866999588276,0.));
#29 = CARTESIAN_POINT('',(10.062498597361,3.601520485409,0.));
#30 = CARTESIAN_POINT('',(27.324359397112,3.533373393403,0.));
#31 = CARTESIAN_POINT('',(46.424339937473,3.462062057001,0.));
#32 = CARTESIAN_POINT('',(55.405042602315,-1.076123306793,0.));
#33 = CARTESIAN_POINT('',(58.993381785182,3.402279322113,0.));
#34 = CARTESIAN_POINT('',(67.621247887225,-3.171440861372,0.));
#35 = CARTESIAN_POINT('',(77.397085008968,-2.288443634441,0.));
#36 = CARTESIAN_POINT('',(88.119268145323,-2.878279724142,0.));
#37 = CARTESIAN_POINT('',(94.524254210876,-0.234544741974,0.));
#38 = CARTESIAN_POINT('',(150.,-4.470094903672,0.));
#39 = PCURVE('',#40,#45);
#40 = PLANE('',#41);
#41 = AXIS2_PLACEMENT_3D('',#42,#43,#44);
#42 = CARTESIAN_POINT('',(73.892429951501,7.5,0.));
#43 = DIRECTION('',(0.,0.,1.));
#44 = DIRECTION('',(1.,0.,-0.));
#45 = DEFINITIONAL_REPRESENTATION('',(#46),#58);
#46 = B_SPLINE_CURVE_WITH_KNOTS('',1,(#47,#48,#49,#50,#51,#52,#53,#54,
    #55,#56,#57),.UNSPECIFIED.,.F.,.F.,(2,1,1,1,1,1,1,1,1,1,2),(0.,
    7.89811612301E-02,0.187778807893,0.30816161298,0.371581001217,
    0.407750236683,0.476114890119,0.537980154606,0.60566132565,
    0.64933389547,1.),.UNSPECIFIED.);
#47 = CARTESIAN_POINT('',(-73.8924299515,-11.36699958827));
#48 = CARTESIAN_POINT('',(-63.82993135413,-3.898479514591));
#49 = CARTESIAN_POINT('',(-46.56807055438,-3.966626606597));
#50 = CARTESIAN_POINT('',(-27.46809001402,-4.037937942999));
#51 = CARTESIAN_POINT('',(-18.48738734918,-8.576123306793));
#52 = CARTESIAN_POINT('',(-14.89904816631,-4.097720677887));
#53 = CARTESIAN_POINT('',(-6.271182064276,-10.67144086137));
#54 = CARTESIAN_POINT('',(3.504655057468,-9.788443634441));
#55 = CARTESIAN_POINT('',(14.226838193822,-10.37827972414));
#56 = CARTESIAN_POINT('',(20.631824259376,-7.734544741974));
#57 = CARTESIAN_POINT('',(76.107570048499,-11.97009490367));
#58 = ( GEOMETRIC_REPRESENTATION_CONTEXT(2) 
PARAMETRIC_REPRESENTATION_CONTEXT() REPRESENTATION_CONTEXT('2D SPACE',''
  ) );
#59 = ORIENTED_EDGE('',*,*,#60,.T.);
#60 = EDGE_CURVE('',#24,#61,#63,.T.);
#61 = VERTEX_POINT('',#62);
#62 = CARTESIAN_POINT('',(150.,19.470094903672,0.));
#63 = SURFACE_CURVE('',#64,(#68),.PCURVE_S1.);
#64 = LINE('',#65,#66);
#65 = CARTESIAN_POINT('',(150.,-4.470094903672,0.));
#66 = VECTOR('',#67,1.);
#67 = DIRECTION('',(0.,1.,0.));
#68 = PCURVE('',#40,#69);
#69 = DEFINITIONAL_REPRESENTATION('',(#70),#74);
#70 = LINE('',#71,#72);
#71 = CARTESIAN_POINT('',(76.107570048499,-11.97009490367));
#72 = VECTOR('',#73,1.);
#73 = DIRECTION('',(0.,1.));
#74 = ( GEOMETRIC_REPRESENTATION_CONTEXT(2) 
PARAMETRIC_REPRESENTATION_CONTEXT() REPRESENTATION_CONTEXT('2D SPACE',''
  ) );
#75 = ORIENTED_EDGE('',*,*,#76,.T.);
#76 = EDGE_CURVE('',#61,#77,#79,.T.);
#77 = VERTEX_POINT('',#78);
#78 = CARTESIAN_POINT('',(0.,18.866999588276,0.));
#79 = SURFACE_CURVE('',#80,(#92),.PCURVE_S1.);
#80 = B_SPLINE_CURVE_WITH_KNOTS('',1,(#81,#82,#83,#84,#85,#86,#87,#88,
    #89,#90,#91),.UNSPECIFIED.,.F.,.F.,(2,1,1,1,1,1,1,1,1,1,2),(0.,
    0.35066610453,0.39433867435,0.462019845394,0.523885109881,
    0.592249763317,0.628418998783,0.69183838702,0.812221192107,
    0.92101883877,1.),.UNSPECIFIED.);
#81 = CARTESIAN_POINT('',(150.,19.470094903672,0.));
#82 = CARTESIAN_POINT('',(94.524254210876,15.234544741974,0.));
#83 = CARTESIAN_POINT('',(88.119268145323,17.878279724142,0.));
#84 = CARTESIAN_POINT('',(77.397085008968,17.288443634441,0.));
#85 = CARTESIAN_POINT('',(67.621247887225,18.171440861372,0.));
#86 = CARTESIAN_POINT('',(58.993381785182,11.597720677887,0.));
#87 = CARTESIAN_POINT('',(55.405042602315,16.076123306793,0.));
#88 = CARTESIAN_POINT('',(46.424339937473,11.537937942999,0.));
#89 = CARTESIAN_POINT('',(27.324359397112,11.466626606597,0.));
#90 = CARTESIAN_POINT('',(10.062498597361,11.398479514591,0.));
#91 = CARTESIAN_POINT('',(0.,18.866999588276,0.));
#92 = PCURVE('',#40,#93);
#93 = DEFINITIONAL_REPRESENTATION('',(#94),#106);
#94 = B_SPLINE_CURVE_WITH_KNOTS('',1,(#95,#96,#97,#98,#99,#100,#101,#102
    ,#103,#104,#105),.UNSPECIFIED.,.F.,.F.,(2,1,1,1,1,1,1,1,1,1,2),(0.,
    0.35066610453,0.39433867435,0.462019845394,0.523885109881,
    0.592249763317,0.628418998783,0.69183838702,0.812221192107,
    0.92101883877,1.),.UNSPECIFIED.);
#95 = CARTESIAN_POINT('',(76.107570048499,11.970094903672));
#96 = CARTESIAN_POINT('',(20.631824259376,7.734544741974));
#97 = CARTESIAN_POINT('',(14.226838193822,10.378279724142));
#98 = CARTESIAN_POINT('',(3.504655057468,9.788443634441));
#99 = CARTESIAN_POINT('',(-6.271182064276,10.671440861372));
#100 = CARTESIAN_POINT('',(-14.89904816631,4.097720677887));
#101 = CARTESIAN_POINT('',(-18.48738734918,8.576123306793));
#102 = CARTESIAN_POINT('',(-27.46809001402,4.037937942999));
#103 = CARTESIAN_POINT('',(-46.56807055438,3.966626606597));
#104 = CARTESIAN_POINT('',(-63.82993135413,3.898479514591));
#105 = CARTESIAN_POINT('',(-73.8924299515,11.366999588276));
#106 = ( GEOMETRIC_REPRESENTATION_CONTEXT(2) 
PARAMETRIC_REPRESENTATION_CONTEXT() REPRESENTATION_CONTEXT('2D SPACE',''
  ) );
#107 = ORIENTED_EDGE('',*,*,#108,.T.);
#108 = EDGE_CURVE('',#77,#22,#109,.T.);
#109 = SURFACE_CURVE('',#110,(#114),.PCURVE_S1.);
#110 = LINE('',#111,#112);
#111 = CARTESIAN_POINT('',(0.,18.866999588276,0.));
#112 = VECTOR('',#113,1.);
#113 = DIRECTION('',(0.,-1.,0.));
#114 = PCURVE('',#40,#115);
#115 = DEFINITIONAL_REPRESENTATION('',(#116),#120);
#116 = LINE('',#117,#118);
#117 = CARTESIAN_POINT('',(-73.8924299515,11.366999588276));
#118 = VECTOR('',#119,1.);
#119 = DIRECTION('',(0.,-1.));
#120 = ( GEOMETRIC_REPRESENTATION_CONTEXT(2) 
PARAMETRIC_REPRESENTATION_CONTEXT() REPRESENTATION_CONTEXT('2D SPACE',''
  ) );
#121 = ( GEOMETRIC_REPRESENTATION_CONTEXT(3) 
GLOBAL_UNCERTAINTY_ASSIGNED_CONTEXT((#125)) GLOBAL_UNIT_ASSIGNED_CONTEXT
((#122,#123,#124)) REPRESENTATION_CONTEXT('Context #1',
  '3D Context with UNIT and UNCERTAINTY') );
#122 = ( LENGTH_UNIT() NAMED_UNIT(*) SI_UNIT(.MILLI.,.METRE.) );
#123 = ( NAMED_UNIT(*) PLANE_ANGLE_UNIT() SI_UNIT($,.RADIAN.) );
#124 = ( NAMED_UNIT(*) SI_UNIT($,.STERADIAN.) SOLID_ANGLE_UNIT() );
#125 = UNCERTAINTY_MEASURE_WITH_UNIT(LENGTH_MEASURE(1.E-07),#122,
  'distance_accuracy_value','confusion accuracy');
#126 = PRODUCT_RELATED_PRODUCT_CATEGORY('part',$,(#7));
ENDSEC;
END-ISO-10303-21;
