ISO-10303-21;
HEADER;
FILE_DESCRIPTION(('Open CASCADE Model'),'2;1');
FILE_NAME('Open CASCADE Shape Model','2026-06-04T12:09:59',('Author'),(
    'Open CASCADE'),'Open CASCADE STEP processor 7.9','Open CASCADE 7.9'
  ,'Unknown');
FILE_SCHEMA(('AUTOMOTIVE_DESIGN { 1 0 10303 214 1 1 1 1 }'));
ENDSEC;
DATA;
#1 = APPLICATION_PROTOCOL_DEFINITION('international standard',
  'automotive_design',2000,#2);
#2 = APPLICATION_CONTEXT(
  'core data for automotive mechanical design processes');
#3 = SHAPE_DEFINITION_REPRESENTATION(#4,#10);
#4 = PRODUCT_DEFINITION_SHAPE('','',#5);
#5 = PRODUCT_DEFINITION('design','',#6,#9);
#6 = PRODUCT_DEFINITION_FORMATION('','',#7);
#7 = PRODUCT('Open CASCADE STEP translator 7.9 20',
  'Open CASCADE STEP translator 7.9 20','',(#8));
#8 = PRODUCT_CONTEXT('',#2,'mechanical');
#9 = PRODUCT_DEFINITION_CONTEXT('part definition',#2,'design');
#10 = MANIFOLD_SURFACE_SHAPE_REPRESENTATION('',(#11,#15),#121);
#11 = AXIS2_PLACEMENT_3D('',#12,#13,#14);
#12 = CARTESIAN_POINT('',(0.,0.,0.));
#13 = DIRECTION('',(0.,0.,1.));
#14 = DIRECTION('',(1.,0.,-0.));
#15 = SHELL_BASED_SURFACE_MODEL('',(#16));
#16 = OPEN_SHELL('',(#17));
#17 = ADVANCED_FACE('',(#18),#40,.T.);
#18 = FACE_BOUND('',#19,.T.);
#19 = EDGE_LOOP('',(#20,#59,#75,#107));
#20 = ORIENTED_EDGE('',*,*,#21,.T.);
#21 = EDGE_CURVE('',#22,#24,#26,.T.);
#22 = VERTEX_POINT('',#23);
#23 = CARTESIAN_POINT('',(0.,1.555031651753,0.));
#24 = VERTEX_POINT('',#25);
#25 = CARTESIAN_POINT('',(150.,-1.808890865156,0.));
#26 = SURFACE_CURVE('',#27,(#39),.PCURVE_S1.);
#27 = B_SPLINE_CURVE_WITH_KNOTS('',1,(#28,#29,#30,#31,#32,#33,#34,#35,
    #36,#37,#38),.UNSPECIFIED.,.F.,.F.,(2,1,1,1,1,1,1,1,1,1,2),(0.,
    6.324010712367E-02,0.188596039078,0.246497103299,0.325887075263,
    0.527022188508,0.559516436672,0.806123854472,0.828381563957,
    0.971915480014,1.),.UNSPECIFIED.);
#28 = CARTESIAN_POINT('',(0.,1.555031651753,0.));
#29 = CARTESIAN_POINT('',(9.720780354195,2.141868749,0.));
#30 = CARTESIAN_POINT('',(28.646393347516,-1.660607644153,0.));
#31 = CARTESIAN_POINT('',(36.85919065925,1.810774636723,0.));
#32 = CARTESIAN_POINT('',(48.312962445443,-2.463829362785,0.));
#33 = CARTESIAN_POINT('',(79.248558336898,-0.937614235965,0.));
#34 = CARTESIAN_POINT('',(82.594518190546,2.783023737032,0.));
#35 = CARTESIAN_POINT('',(120.56966787468,2.967420995228,0.));
#36 = CARTESIAN_POINT('',(123.98593825071,2.690052497914,0.));
#37 = CARTESIAN_POINT('',(145.83741404192,-0.635551065886,0.));
#38 = CARTESIAN_POINT('',(150.,-1.808890865156,0.));
#39 = PCURVE('',#40,#45);
#40 = PLANE('',#41);
#41 = AXIS2_PLACEMENT_3D('',#42,#43,#44);
#42 = CARTESIAN_POINT('',(76.252909981903,7.5,0.));
#43 = DIRECTION('',(0.,0.,1.));
#44 = DIRECTION('',(1.,0.,-0.));
#45 = DEFINITIONAL_REPRESENTATION('',(#46),#58);
#46 = B_SPLINE_CURVE_WITH_KNOTS('',1,(#47,#48,#49,#50,#51,#52,#53,#54,
    #55,#56,#57),.UNSPECIFIED.,.F.,.F.,(2,1,1,1,1,1,1,1,1,1,2),(0.,
    6.324010712367E-02,0.188596039078,0.246497103299,0.325887075263,
    0.527022188508,0.559516436672,0.806123854472,0.828381563957,
    0.971915480014,1.),.UNSPECIFIED.);
#47 = CARTESIAN_POINT('',(-76.2529099819,-5.944968348247));
#48 = CARTESIAN_POINT('',(-66.5321296277,-5.358131251));
#49 = CARTESIAN_POINT('',(-47.60651663438,-9.160607644153));
#50 = CARTESIAN_POINT('',(-39.39371932265,-5.689225363277));
#51 = CARTESIAN_POINT('',(-27.93994753646,-9.963829362785));
#52 = CARTESIAN_POINT('',(2.995648354995,-8.437614235965));
#53 = CARTESIAN_POINT('',(6.341608208643,-4.716976262968));
#54 = CARTESIAN_POINT('',(44.316757892781,-4.532579004772));
#55 = CARTESIAN_POINT('',(47.733028268814,-4.809947502086));
#56 = CARTESIAN_POINT('',(69.584504060018,-8.135551065886));
#57 = CARTESIAN_POINT('',(73.747090018097,-9.308890865156));
#58 = ( GEOMETRIC_REPRESENTATION_CONTEXT(2) 
PARAMETRIC_REPRESENTATION_CONTEXT() REPRESENTATION_CONTEXT('2D SPACE',''
  ) );
#59 = ORIENTED_EDGE('',*,*,#60,.T.);
#60 = EDGE_CURVE('',#24,#61,#63,.T.);
#61 = VERTEX_POINT('',#62);
#62 = CARTESIAN_POINT('',(150.,16.808890865156,0.));
#63 = SURFACE_CURVE('',#64,(#68),.PCURVE_S1.);
#64 = LINE('',#65,#66);
#65 = CARTESIAN_POINT('',(150.,-1.808890865156,0.));
#66 = VECTOR('',#67,1.);
#67 = DIRECTION('',(0.,1.,0.));
#68 = PCURVE('',#40,#69);
#69 = DEFINITIONAL_REPRESENTATION('',(#70),#74);
#70 = LINE('',#71,#72);
#71 = CARTESIAN_POINT('',(73.747090018097,-9.308890865156));
#72 = VECTOR('',#73,1.);
#73 = DIRECTION('',(0.,1.));
#74 = ( GEOMETRIC_REPRESENTATION_CONTEXT(2) 
PARAMETRIC_REPRESENTATION_CONTEXT() REPRESENTATION_CONTEXT('2D SPACE',''
  ) );
#75 = ORIENTED_EDGE('',*,*,#76,.T.);
#76 = EDGE_CURVE('',#61,#77,#79,.T.);
#77 = VERTEX_POINT('',#78);
#78 = CARTESIAN_POINT('',(0.,13.444968348247,0.));
#79 = SURFACE_CURVE('',#80,(#92),.PCURVE_S1.);
#80 = B_SPLINE_CURVE_WITH_KNOTS('',1,(#81,#82,#83,#84,#85,#86,#87,#88,
    #89,#90,#91),.UNSPECIFIED.,.F.,.F.,(2,1,1,1,1,1,1,1,1,1,2),(0.,
    2.808451998622E-02,0.171618436043,0.193876145528,0.440483563328,
    0.472977811492,0.674112924737,0.753502896701,0.811403960922,
    0.936759892876,1.),.UNSPECIFIED.);
#81 = CARTESIAN_POINT('',(150.,16.808890865156,0.));
#82 = CARTESIAN_POINT('',(145.83741404192,15.635551065886,0.));
#83 = CARTESIAN_POINT('',(123.98593825071,12.309947502086,0.));
#84 = CARTESIAN_POINT('',(120.56966787468,12.032579004772,0.));
#85 = CARTESIAN_POINT('',(82.594518190546,12.216976262968,0.));
#86 = CARTESIAN_POINT('',(79.248558336898,15.937614235965,0.));
#87 = CARTESIAN_POINT('',(48.312962445443,17.463829362785,0.));
#88 = CARTESIAN_POINT('',(36.85919065925,13.189225363277,0.));
#89 = CARTESIAN_POINT('',(28.646393347516,16.660607644153,0.));
#90 = CARTESIAN_POINT('',(9.720780354195,12.858131251,0.));
#91 = CARTESIAN_POINT('',(0.,13.444968348247,0.));
#92 = PCURVE('',#40,#93);
#93 = DEFINITIONAL_REPRESENTATION('',(#94),#106);
#94 = B_SPLINE_CURVE_WITH_KNOTS('',1,(#95,#96,#97,#98,#99,#100,#101,#102
    ,#103,#104,#105),.UNSPECIFIED.,.F.,.F.,(2,1,1,1,1,1,1,1,1,1,2),(0.,
    2.808451998622E-02,0.171618436043,0.193876145528,0.440483563328,
    0.472977811492,0.674112924737,0.753502896701,0.811403960922,
    0.936759892876,1.),.UNSPECIFIED.);
#95 = CARTESIAN_POINT('',(73.747090018097,9.308890865156));
#96 = CARTESIAN_POINT('',(69.584504060018,8.135551065886));
#97 = CARTESIAN_POINT('',(47.733028268814,4.809947502086));
#98 = CARTESIAN_POINT('',(44.316757892781,4.532579004772));
#99 = CARTESIAN_POINT('',(6.341608208643,4.716976262968));
#100 = CARTESIAN_POINT('',(2.995648354995,8.437614235965));
#101 = CARTESIAN_POINT('',(-27.93994753646,9.963829362785));
#102 = CARTESIAN_POINT('',(-39.39371932265,5.689225363277));
#103 = CARTESIAN_POINT('',(-47.60651663438,9.160607644153));
#104 = CARTESIAN_POINT('',(-66.5321296277,5.358131251));
#105 = CARTESIAN_POINT('',(-76.2529099819,5.944968348247));
#106 = ( GEOMETRIC_REPRESENTATION_CONTEXT(2) 
PARAMETRIC_REPRESENTATION_CONTEXT() REPRESENTATION_CONTEXT('2D SPACE',''
  ) );
#107 = ORIENTED_EDGE('',*,*,#108,.T.);
#108 = EDGE_CURVE('',#77,#22,#109,.T.);
#109 = SURFACE_CURVE('',#110,(#114),.PCURVE_S1.);
#110 = LINE('',#111,#112);
#111 = CARTESIAN_POINT('',(0.,13.444968348247,0.));
#112 = VECTOR('',#113,1.);
#113 = DIRECTION('',(0.,-1.,0.));
#114 = PCURVE('',#40,#115);
#115 = DEFINITIONAL_REPRESENTATION('',(#116),#120);
#116 = LINE('',#117,#118);
#117 = CARTESIAN_POINT('',(-76.2529099819,5.944968348247));
#118 = VECTOR('',#119,1.);
#119 = DIRECTION('',(0.,-1.));
#120 = ( GEOMETRIC_REPRESENTATION_CONTEXT(2) 
PARAMETRIC_REPRESENTATION_CONTEXT() REPRESENTATION_CONTEXT('2D SPACE',''
  ) );
#121 = ( GEOMETRIC_REPRESENTATION_CONTEXT(3) 
GLOBAL_UNCERTAINTY_ASSIGNED_CONTEXT((#125)) GLOBAL_UNIT_ASSIGNED_CONTEXT
((#122,#123,#124)) REPRESENTATION_CONTEXT('Context #1',
  '3D Context with UNIT and UNCERTAINTY') );
#122 = ( LENGTH_UNIT() NAMED_UNIT(*) SI_UNIT(.MILLI.,.METRE.) );
#123 = ( NAMED_UNIT(*) PLANE_ANGLE_UNIT() SI_UNIT($,.RADIAN.) );
#124 = ( NAMED_UNIT(*) SI_UNIT($,.STERADIAN.) SOLID_ANGLE_UNIT() );
#125 = UNCERTAINTY_MEASURE_WITH_UNIT(LENGTH_MEASURE(1.E-07),#122,
  'distance_accuracy_value','confusion accuracy');
#126 = PRODUCT_RELATED_PRODUCT_CATEGORY('part',$,(#7));
ENDSEC;
END-ISO-10303-21;
