ISO-10303-21;
HEADER;
FILE_DESCRIPTION(('Open CASCADE Model'),'2;1');
FILE_NAME('Open CASCADE Shape Model','2026-06-04T12:09:59',('Author'),(
    'Open CASCADE'),'Open CASCADE STEP processor 7.9','Open CASCADE 7.9'
  ,'Unknown');
FILE_SCHEMA(('AUTOMOTIVE_DESIGN { 1 0 10303 214 1 1 1 1 }'));
ENDSEC;
DATA;
#1 = APPLICATION_PROTOCOL_DEFINITION('international standard',
  'automotive_design',2000,#2);
#2 = APPLICATION_CONTEXT(
  'core data for automotive mechanical design processes');
#3 = SHAPE_DEFINITION_REPRESENTATION(#4,#10);
#4 = PRODUCT_DEFINITION_SHAPE('','',#5);
#5 = PRODUCT_DEFINITION('design','',#6,#9);
#6 = PRODUCT_DEFINITION_FORMATION('','',#7);
#7 = PRODUCT('Open CASCADE STEP translator 7.9 97',
  'Open CASCADE STEP translator 7.9 97','',(#8));
#8 = PRODUCT_CONTEXT('',#2,'mechanical');
#9 = PRODUCT_DEFINITION_CONTEXT('part definition',#2,'design');
#10 = MANIFOLD_SURFACE_SHAPE_REPRESENTATION('',(#11,#15),#121);
#11 = AXIS2_PLACEMENT_3D('',#12,#13,#14);
#12 = CARTESIAN_POINT('',(0.,0.,0.));
#13 = DIRECTION('',(0.,0.,1.));
#14 = DIRECTION('',(1.,0.,-0.));
#15 = SHELL_BASED_SURFACE_MODEL('',(#16));
#16 = OPEN_SHELL('',(#17));
#17 = ADVANCED_FACE('',(#18),#40,.T.);
#18 = FACE_BOUND('',#19,.T.);
#19 = EDGE_LOOP('',(#20,#59,#75,#107));
#20 = ORIENTED_EDGE('',*,*,#21,.T.);
#21 = EDGE_CURVE('',#22,#24,#26,.T.);
#22 = VERTEX_POINT('',#23);
#23 = CARTESIAN_POINT('',(0.,0.150738981146,0.));
#24 = VERTEX_POINT('',#25);
#25 = CARTESIAN_POINT('',(150.,-2.826810910814,0.));
#26 = SURFACE_CURVE('',#27,(#39),.PCURVE_S1.);
#27 = B_SPLINE_CURVE_WITH_KNOTS('',1,(#28,#29,#30,#31,#32,#33,#34,#35,
    #36,#37,#38),.UNSPECIFIED.,.F.,.F.,(2,1,1,1,1,1,1,1,1,1,2),(0.,
    6.893215168183E-02,0.125835164784,0.198708762003,0.369572060552,
    0.393893002194,0.597779882101,0.647459337913,0.698850235535,
    0.814667422011,1.),.UNSPECIFIED.);
#28 = CARTESIAN_POINT('',(0.,0.150738981146,0.));
#29 = CARTESIAN_POINT('',(10.377028721663,2.214472127121,0.));
#30 = CARTESIAN_POINT('',(19.098015874079,2.689671050002,0.));
#31 = CARTESIAN_POINT('',(28.914134038356,-2.67249943464,0.));
#32 = CARTESIAN_POINT('',(54.820639434073,1.40514352035,0.));
#33 = CARTESIAN_POINT('',(58.269047780931,-2.438343938731E-02,0.));
#34 = CARTESIAN_POINT('',(89.464781361412,2.45578940346,0.));
#35 = CARTESIAN_POINT('',(96.823634563947,0.458069276696,0.));
#36 = CARTESIAN_POINT('',(104.10271115253,-2.580633115501,0.));
#37 = CARTESIAN_POINT('',(121.69305274896,-1.447796178563E-02,0.));
#38 = CARTESIAN_POINT('',(150.,-2.826810910814,0.));
#39 = PCURVE('',#40,#45);
#40 = PLANE('',#41);
#41 = AXIS2_PLACEMENT_3D('',#42,#43,#44);
#42 = CARTESIAN_POINT('',(75.925859647182,7.5,0.));
#43 = DIRECTION('',(0.,0.,1.));
#44 = DIRECTION('',(1.,0.,-0.));
#45 = DEFINITIONAL_REPRESENTATION('',(#46),#58);
#46 = B_SPLINE_CURVE_WITH_KNOTS('',1,(#47,#48,#49,#50,#51,#52,#53,#54,
    #55,#56,#57),.UNSPECIFIED.,.F.,.F.,(2,1,1,1,1,1,1,1,1,1,2),(0.,
    6.893215168183E-02,0.125835164784,0.198708762003,0.369572060552,
    0.393893002194,0.597779882101,0.647459337913,0.698850235535,
    0.814667422011,1.),.UNSPECIFIED.);
#47 = CARTESIAN_POINT('',(-75.92585964718,-7.349261018854));
#48 = CARTESIAN_POINT('',(-65.54883092551,-5.285527872879));
#49 = CARTESIAN_POINT('',(-56.8278437731,-4.810328949998));
#50 = CARTESIAN_POINT('',(-47.01172560882,-10.17249943464));
#51 = CARTESIAN_POINT('',(-21.1052202131,-6.09485647965));
#52 = CARTESIAN_POINT('',(-17.65681186625,-7.524383439387));
#53 = CARTESIAN_POINT('',(13.53892171423,-5.04421059654));
#54 = CARTESIAN_POINT('',(20.897774916765,-7.041930723304));
#55 = CARTESIAN_POINT('',(28.176851505348,-10.0806331155));
#56 = CARTESIAN_POINT('',(45.767193101787,-7.514477961786));
#57 = CARTESIAN_POINT('',(74.074140352818,-10.32681091081));
#58 = ( GEOMETRIC_REPRESENTATION_CONTEXT(2) 
PARAMETRIC_REPRESENTATION_CONTEXT() REPRESENTATION_CONTEXT('2D SPACE',''
  ) );
#59 = ORIENTED_EDGE('',*,*,#60,.T.);
#60 = EDGE_CURVE('',#24,#61,#63,.T.);
#61 = VERTEX_POINT('',#62);
#62 = CARTESIAN_POINT('',(150.,17.826810910814,0.));
#63 = SURFACE_CURVE('',#64,(#68),.PCURVE_S1.);
#64 = LINE('',#65,#66);
#65 = CARTESIAN_POINT('',(150.,-2.826810910814,0.));
#66 = VECTOR('',#67,1.);
#67 = DIRECTION('',(0.,1.,0.));
#68 = PCURVE('',#40,#69);
#69 = DEFINITIONAL_REPRESENTATION('',(#70),#74);
#70 = LINE('',#71,#72);
#71 = CARTESIAN_POINT('',(74.074140352818,-10.32681091081));
#72 = VECTOR('',#73,1.);
#73 = DIRECTION('',(0.,1.));
#74 = ( GEOMETRIC_REPRESENTATION_CONTEXT(2) 
PARAMETRIC_REPRESENTATION_CONTEXT() REPRESENTATION_CONTEXT('2D SPACE',''
  ) );
#75 = ORIENTED_EDGE('',*,*,#76,.T.);
#76 = EDGE_CURVE('',#61,#77,#79,.T.);
#77 = VERTEX_POINT('',#78);
#78 = CARTESIAN_POINT('',(0.,14.849261018854,0.));
#79 = SURFACE_CURVE('',#80,(#92),.PCURVE_S1.);
#80 = B_SPLINE_CURVE_WITH_KNOTS('',1,(#81,#82,#83,#84,#85,#86,#87,#88,
    #89,#90,#91),.UNSPECIFIED.,.F.,.F.,(2,1,1,1,1,1,1,1,1,1,2),(0.,
    0.185332577989,0.301149764465,0.352540662087,0.402220117899,
    0.606106997806,0.630427939448,0.801291237997,0.874164835216,
    0.931067848318,1.),.UNSPECIFIED.);
#81 = CARTESIAN_POINT('',(150.,17.826810910814,0.));
#82 = CARTESIAN_POINT('',(121.69305274896,15.014477961786,0.));
#83 = CARTESIAN_POINT('',(104.10271115253,17.580633115501,0.));
#84 = CARTESIAN_POINT('',(96.823634563947,14.541930723304,0.));
#85 = CARTESIAN_POINT('',(89.464781361412,12.54421059654,0.));
#86 = CARTESIAN_POINT('',(58.269047780931,15.024383439387,0.));
#87 = CARTESIAN_POINT('',(54.820639434073,13.59485647965,0.));
#88 = CARTESIAN_POINT('',(28.914134038356,17.67249943464,0.));
#89 = CARTESIAN_POINT('',(19.098015874079,12.310328949998,0.));
#90 = CARTESIAN_POINT('',(10.377028721663,12.785527872879,0.));
#91 = CARTESIAN_POINT('',(0.,14.849261018854,0.));
#92 = PCURVE('',#40,#93);
#93 = DEFINITIONAL_REPRESENTATION('',(#94),#106);
#94 = B_SPLINE_CURVE_WITH_KNOTS('',1,(#95,#96,#97,#98,#99,#100,#101,#102
    ,#103,#104,#105),.UNSPECIFIED.,.F.,.F.,(2,1,1,1,1,1,1,1,1,1,2),(0.,
    0.185332577989,0.301149764465,0.352540662087,0.402220117899,
    0.606106997806,0.630427939448,0.801291237997,0.874164835216,
    0.931067848318,1.),.UNSPECIFIED.);
#95 = CARTESIAN_POINT('',(74.074140352818,10.326810910814));
#96 = CARTESIAN_POINT('',(45.767193101787,7.514477961786));
#97 = CARTESIAN_POINT('',(28.176851505348,10.080633115501));
#98 = CARTESIAN_POINT('',(20.897774916765,7.041930723304));
#99 = CARTESIAN_POINT('',(13.53892171423,5.04421059654));
#100 = CARTESIAN_POINT('',(-17.65681186625,7.524383439387));
#101 = CARTESIAN_POINT('',(-21.1052202131,6.09485647965));
#102 = CARTESIAN_POINT('',(-47.01172560882,10.17249943464));
#103 = CARTESIAN_POINT('',(-56.8278437731,4.810328949998));
#104 = CARTESIAN_POINT('',(-65.54883092551,5.285527872879));
#105 = CARTESIAN_POINT('',(-75.92585964718,7.349261018854));
#106 = ( GEOMETRIC_REPRESENTATION_CONTEXT(2) 
PARAMETRIC_REPRESENTATION_CONTEXT() REPRESENTATION_CONTEXT('2D SPACE',''
  ) );
#107 = ORIENTED_EDGE('',*,*,#108,.T.);
#108 = EDGE_CURVE('',#77,#22,#109,.T.);
#109 = SURFACE_CURVE('',#110,(#114),.PCURVE_S1.);
#110 = LINE('',#111,#112);
#111 = CARTESIAN_POINT('',(0.,14.849261018854,0.));
#112 = VECTOR('',#113,1.);
#113 = DIRECTION('',(0.,-1.,0.));
#114 = PCURVE('',#40,#115);
#115 = DEFINITIONAL_REPRESENTATION('',(#116),#120);
#116 = LINE('',#117,#118);
#117 = CARTESIAN_POINT('',(-75.92585964718,7.349261018854));
#118 = VECTOR('',#119,1.);
#119 = DIRECTION('',(0.,-1.));
#120 = ( GEOMETRIC_REPRESENTATION_CONTEXT(2) 
PARAMETRIC_REPRESENTATION_CONTEXT() REPRESENTATION_CONTEXT('2D SPACE',''
  ) );
#121 = ( GEOMETRIC_REPRESENTATION_CONTEXT(3) 
GLOBAL_UNCERTAINTY_ASSIGNED_CONTEXT((#125)) GLOBAL_UNIT_ASSIGNED_CONTEXT
((#122,#123,#124)) REPRESENTATION_CONTEXT('Context #1',
  '3D Context with UNIT and UNCERTAINTY') );
#122 = ( LENGTH_UNIT() NAMED_UNIT(*) SI_UNIT(.MILLI.,.METRE.) );
#123 = ( NAMED_UNIT(*) PLANE_ANGLE_UNIT() SI_UNIT($,.RADIAN.) );
#124 = ( NAMED_UNIT(*) SI_UNIT($,.STERADIAN.) SOLID_ANGLE_UNIT() );
#125 = UNCERTAINTY_MEASURE_WITH_UNIT(LENGTH_MEASURE(1.E-07),#122,
  'distance_accuracy_value','confusion accuracy');
#126 = PRODUCT_RELATED_PRODUCT_CATEGORY('part',$,(#7));
ENDSEC;
END-ISO-10303-21;
