ISO-10303-21;
HEADER;
FILE_DESCRIPTION(('Open CASCADE Model'),'2;1');
FILE_NAME('Open CASCADE Shape Model','2026-06-04T12:09:59',('Author'),(
    'Open CASCADE'),'Open CASCADE STEP processor 7.9','Open CASCADE 7.9'
  ,'Unknown');
FILE_SCHEMA(('AUTOMOTIVE_DESIGN { 1 0 10303 214 1 1 1 1 }'));
ENDSEC;
DATA;
#1 = APPLICATION_PROTOCOL_DEFINITION('international standard',
  'automotive_design',2000,#2);
#2 = APPLICATION_CONTEXT(
  'core data for automotive mechanical design processes');
#3 = SHAPE_DEFINITION_REPRESENTATION(#4,#10);
#4 = PRODUCT_DEFINITION_SHAPE('','',#5);
#5 = PRODUCT_DEFINITION('design','',#6,#9);
#6 = PRODUCT_DEFINITION_FORMATION('','',#7);
#7 = PRODUCT('Open CASCADE STEP translator 7.9 18',
  'Open CASCADE STEP translator 7.9 18','',(#8));
#8 = PRODUCT_CONTEXT('',#2,'mechanical');
#9 = PRODUCT_DEFINITION_CONTEXT('part definition',#2,'design');
#10 = MANIFOLD_SURFACE_SHAPE_REPRESENTATION('',(#11,#15),#121);
#11 = AXIS2_PLACEMENT_3D('',#12,#13,#14);
#12 = CARTESIAN_POINT('',(0.,0.,0.));
#13 = DIRECTION('',(0.,0.,1.));
#14 = DIRECTION('',(1.,0.,-0.));
#15 = SHELL_BASED_SURFACE_MODEL('',(#16));
#16 = OPEN_SHELL('',(#17));
#17 = ADVANCED_FACE('',(#18),#40,.T.);
#18 = FACE_BOUND('',#19,.T.);
#19 = EDGE_LOOP('',(#20,#59,#75,#107));
#20 = ORIENTED_EDGE('',*,*,#21,.T.);
#21 = EDGE_CURVE('',#22,#24,#26,.T.);
#22 = VERTEX_POINT('',#23);
#23 = CARTESIAN_POINT('',(0.,-2.390199284169,0.));
#24 = VERTEX_POINT('',#25);
#25 = CARTESIAN_POINT('',(150.,-1.378114252064,0.));
#26 = SURFACE_CURVE('',#27,(#39),.PCURVE_S1.);
#27 = B_SPLINE_CURVE_WITH_KNOTS('',1,(#28,#29,#30,#31,#32,#33,#34,#35,
    #36,#37,#38),.UNSPECIFIED.,.F.,.F.,(2,1,1,1,1,1,1,1,1,1,2),(0.,
    0.155903545023,0.236046751764,0.265860315751,0.332571123869,
    0.37805874394,0.568258845922,0.61839744671,0.74970750687,
    0.965948991796,1.),.UNSPECIFIED.);
#28 = CARTESIAN_POINT('',(0.,-2.390199284169,0.));
#29 = CARTESIAN_POINT('',(23.803758390545,-1.575192882424,0.));
#30 = CARTESIAN_POINT('',(35.686207419904,1.376790354539,0.));
#31 = CARTESIAN_POINT('',(40.206088873842,0.814847893368,0.));
#32 = CARTESIAN_POINT('',(50.393264160233,1.113360118774,0.));
#33 = CARTESIAN_POINT('',(57.278500529084,2.05433010825,0.));
#34 = CARTESIAN_POINT('',(86.33570317194,2.113299764747,0.));
#35 = CARTESIAN_POINT('',(92.360541967072,-2.616764780254,0.));
#36 = CARTESIAN_POINT('',(112.19707064582,0.372575776807,0.));
#37 = CARTESIAN_POINT('',(145.23110555977,0.700081063336,0.));
#38 = CARTESIAN_POINT('',(150.,-1.378114252064,0.));
#39 = PCURVE('',#40,#45);
#40 = PLANE('',#41);
#41 = AXIS2_PLACEMENT_3D('',#42,#43,#44);
#42 = CARTESIAN_POINT('',(74.797146284839,7.5,0.));
#43 = DIRECTION('',(0.,0.,1.));
#44 = DIRECTION('',(1.,0.,-0.));
#45 = DEFINITIONAL_REPRESENTATION('',(#46),#58);
#46 = B_SPLINE_CURVE_WITH_KNOTS('',1,(#47,#48,#49,#50,#51,#52,#53,#54,
    #55,#56,#57),.UNSPECIFIED.,.F.,.F.,(2,1,1,1,1,1,1,1,1,1,2),(0.,
    0.155903545023,0.236046751764,0.265860315751,0.332571123869,
    0.37805874394,0.568258845922,0.61839744671,0.74970750687,
    0.965948991796,1.),.UNSPECIFIED.);
#47 = CARTESIAN_POINT('',(-74.79714628483,-9.890199284169));
#48 = CARTESIAN_POINT('',(-50.99338789429,-9.075192882424));
#49 = CARTESIAN_POINT('',(-39.11093886493,-6.123209645461));
#50 = CARTESIAN_POINT('',(-34.59105741099,-6.685152106632));
#51 = CARTESIAN_POINT('',(-24.4038821246,-6.386639881226));
#52 = CARTESIAN_POINT('',(-17.51864575575,-5.44566989175));
#53 = CARTESIAN_POINT('',(11.538556887101,-5.386700235253));
#54 = CARTESIAN_POINT('',(17.563395682233,-10.11676478025));
#55 = CARTESIAN_POINT('',(37.399924360982,-7.127424223193));
#56 = CARTESIAN_POINT('',(70.43395927494,-6.799918936664));
#57 = CARTESIAN_POINT('',(75.202853715161,-8.878114252064));
#58 = ( GEOMETRIC_REPRESENTATION_CONTEXT(2) 
PARAMETRIC_REPRESENTATION_CONTEXT() REPRESENTATION_CONTEXT('2D SPACE',''
  ) );
#59 = ORIENTED_EDGE('',*,*,#60,.T.);
#60 = EDGE_CURVE('',#24,#61,#63,.T.);
#61 = VERTEX_POINT('',#62);
#62 = CARTESIAN_POINT('',(150.,16.378114252064,0.));
#63 = SURFACE_CURVE('',#64,(#68),.PCURVE_S1.);
#64 = LINE('',#65,#66);
#65 = CARTESIAN_POINT('',(150.,-1.378114252064,0.));
#66 = VECTOR('',#67,1.);
#67 = DIRECTION('',(0.,1.,0.));
#68 = PCURVE('',#40,#69);
#69 = DEFINITIONAL_REPRESENTATION('',(#70),#74);
#70 = LINE('',#71,#72);
#71 = CARTESIAN_POINT('',(75.202853715161,-8.878114252064));
#72 = VECTOR('',#73,1.);
#73 = DIRECTION('',(0.,1.));
#74 = ( GEOMETRIC_REPRESENTATION_CONTEXT(2) 
PARAMETRIC_REPRESENTATION_CONTEXT() REPRESENTATION_CONTEXT('2D SPACE',''
  ) );
#75 = ORIENTED_EDGE('',*,*,#76,.T.);
#76 = EDGE_CURVE('',#61,#77,#79,.T.);
#77 = VERTEX_POINT('',#78);
#78 = CARTESIAN_POINT('',(0.,17.390199284169,0.));
#79 = SURFACE_CURVE('',#80,(#92),.PCURVE_S1.);
#80 = B_SPLINE_CURVE_WITH_KNOTS('',1,(#81,#82,#83,#84,#85,#86,#87,#88,
    #89,#90,#91),.UNSPECIFIED.,.F.,.F.,(2,1,1,1,1,1,1,1,1,1,2),(0.,
    3.405100820398E-02,0.25029249313,0.38160255329,0.431741154078,
    0.62194125606,0.667428876131,0.734139684249,0.763953248236,
    0.844096454977,1.),.UNSPECIFIED.);
#81 = CARTESIAN_POINT('',(150.,16.378114252064,0.));
#82 = CARTESIAN_POINT('',(145.23110555977,14.299918936664,0.));
#83 = CARTESIAN_POINT('',(112.19707064582,14.627424223193,0.));
#84 = CARTESIAN_POINT('',(92.360541967072,17.616764780254,0.));
#85 = CARTESIAN_POINT('',(86.33570317194,12.886700235253,0.));
#86 = CARTESIAN_POINT('',(57.278500529084,12.94566989175,0.));
#87 = CARTESIAN_POINT('',(50.393264160233,13.886639881226,0.));
#88 = CARTESIAN_POINT('',(40.206088873842,14.185152106632,0.));
#89 = CARTESIAN_POINT('',(35.686207419904,13.623209645461,0.));
#90 = CARTESIAN_POINT('',(23.803758390545,16.575192882424,0.));
#91 = CARTESIAN_POINT('',(0.,17.390199284169,0.));
#92 = PCURVE('',#40,#93);
#93 = DEFINITIONAL_REPRESENTATION('',(#94),#106);
#94 = B_SPLINE_CURVE_WITH_KNOTS('',1,(#95,#96,#97,#98,#99,#100,#101,#102
    ,#103,#104,#105),.UNSPECIFIED.,.F.,.F.,(2,1,1,1,1,1,1,1,1,1,2),(0.,
    3.405100820398E-02,0.25029249313,0.38160255329,0.431741154078,
    0.62194125606,0.667428876131,0.734139684249,0.763953248236,
    0.844096454977,1.),.UNSPECIFIED.);
#95 = CARTESIAN_POINT('',(75.202853715161,8.878114252064));
#96 = CARTESIAN_POINT('',(70.43395927494,6.799918936664));
#97 = CARTESIAN_POINT('',(37.399924360982,7.127424223193));
#98 = CARTESIAN_POINT('',(17.563395682233,10.116764780254));
#99 = CARTESIAN_POINT('',(11.538556887101,5.386700235253));
#100 = CARTESIAN_POINT('',(-17.51864575575,5.44566989175));
#101 = CARTESIAN_POINT('',(-24.4038821246,6.386639881226));
#102 = CARTESIAN_POINT('',(-34.59105741099,6.685152106632));
#103 = CARTESIAN_POINT('',(-39.11093886493,6.123209645461));
#104 = CARTESIAN_POINT('',(-50.99338789429,9.075192882424));
#105 = CARTESIAN_POINT('',(-74.79714628483,9.890199284169));
#106 = ( GEOMETRIC_REPRESENTATION_CONTEXT(2) 
PARAMETRIC_REPRESENTATION_CONTEXT() REPRESENTATION_CONTEXT('2D SPACE',''
  ) );
#107 = ORIENTED_EDGE('',*,*,#108,.T.);
#108 = EDGE_CURVE('',#77,#22,#109,.T.);
#109 = SURFACE_CURVE('',#110,(#114),.PCURVE_S1.);
#110 = LINE('',#111,#112);
#111 = CARTESIAN_POINT('',(0.,17.390199284169,0.));
#112 = VECTOR('',#113,1.);
#113 = DIRECTION('',(0.,-1.,0.));
#114 = PCURVE('',#40,#115);
#115 = DEFINITIONAL_REPRESENTATION('',(#116),#120);
#116 = LINE('',#117,#118);
#117 = CARTESIAN_POINT('',(-74.79714628483,9.890199284169));
#118 = VECTOR('',#119,1.);
#119 = DIRECTION('',(0.,-1.));
#120 = ( GEOMETRIC_REPRESENTATION_CONTEXT(2) 
PARAMETRIC_REPRESENTATION_CONTEXT() REPRESENTATION_CONTEXT('2D SPACE',''
  ) );
#121 = ( GEOMETRIC_REPRESENTATION_CONTEXT(3) 
GLOBAL_UNCERTAINTY_ASSIGNED_CONTEXT((#125)) GLOBAL_UNIT_ASSIGNED_CONTEXT
((#122,#123,#124)) REPRESENTATION_CONTEXT('Context #1',
  '3D Context with UNIT and UNCERTAINTY') );
#122 = ( LENGTH_UNIT() NAMED_UNIT(*) SI_UNIT(.MILLI.,.METRE.) );
#123 = ( NAMED_UNIT(*) PLANE_ANGLE_UNIT() SI_UNIT($,.RADIAN.) );
#124 = ( NAMED_UNIT(*) SI_UNIT($,.STERADIAN.) SOLID_ANGLE_UNIT() );
#125 = UNCERTAINTY_MEASURE_WITH_UNIT(LENGTH_MEASURE(1.E-07),#122,
  'distance_accuracy_value','confusion accuracy');
#126 = PRODUCT_RELATED_PRODUCT_CATEGORY('part',$,(#7));
ENDSEC;
END-ISO-10303-21;
