ISO-10303-21;
HEADER;
FILE_DESCRIPTION(('Open CASCADE Model'),'2;1');
FILE_NAME('Open CASCADE Shape Model','2026-06-04T14:36:37',('Author'),(
    'Open CASCADE'),'Open CASCADE STEP processor 7.9','Open CASCADE 7.9'
  ,'Unknown');
FILE_SCHEMA(('AUTOMOTIVE_DESIGN { 1 0 10303 214 1 1 1 1 }'));
ENDSEC;
DATA;
#1 = APPLICATION_PROTOCOL_DEFINITION('international standard',
  'automotive_design',2000,#2);
#2 = APPLICATION_CONTEXT(
  'core data for automotive mechanical design processes');
#3 = SHAPE_DEFINITION_REPRESENTATION(#4,#10);
#4 = PRODUCT_DEFINITION_SHAPE('','',#5);
#5 = PRODUCT_DEFINITION('design','',#6,#9);
#6 = PRODUCT_DEFINITION_FORMATION('','',#7);
#7 = PRODUCT('Open CASCADE STEP translator 7.9 95',
  'Open CASCADE STEP translator 7.9 95','',(#8));
#8 = PRODUCT_CONTEXT('',#2,'mechanical');
#9 = PRODUCT_DEFINITION_CONTEXT('part definition',#2,'design');
#10 = MANIFOLD_SURFACE_SHAPE_REPRESENTATION('',(#11,#15),#121);
#11 = AXIS2_PLACEMENT_3D('',#12,#13,#14);
#12 = CARTESIAN_POINT('',(0.,0.,0.));
#13 = DIRECTION('',(0.,0.,1.));
#14 = DIRECTION('',(1.,0.,-0.));
#15 = SHELL_BASED_SURFACE_MODEL('',(#16));
#16 = OPEN_SHELL('',(#17));
#17 = ADVANCED_FACE('',(#18),#40,.T.);
#18 = FACE_BOUND('',#19,.T.);
#19 = EDGE_LOOP('',(#20,#59,#75,#107));
#20 = ORIENTED_EDGE('',*,*,#21,.T.);
#21 = EDGE_CURVE('',#22,#24,#26,.T.);
#22 = VERTEX_POINT('',#23);
#23 = CARTESIAN_POINT('',(0.,-2.187643468886E-04,0.));
#24 = VERTEX_POINT('',#25);
#25 = CARTESIAN_POINT('',(1.,1.059280258315E-03,0.));
#26 = SURFACE_CURVE('',#27,(#39),.PCURVE_S1.);
#27 = B_SPLINE_CURVE_WITH_KNOTS('',1,(#28,#29,#30,#31,#32,#33,#34,#35,
    #36,#37,#38),.UNSPECIFIED.,.F.,.F.,(2,1,1,1,1,1,1,1,1,1,2),(0.,
    0.336822219502,0.411246172068,0.453612034577,0.492226289475,
    0.605516177338,0.628752161996,0.699296768577,0.813090039464,
    0.938398930671,1.),.UNSPECIFIED.);
#28 = CARTESIAN_POINT('',(0.,-2.187643468886E-04,0.));
#29 = CARTESIAN_POINT('',(0.337235605412,2.203636708975E-03,0.));
#30 = CARTESIAN_POINT('',(0.411711677495,4.679564106218E-03,0.));
#31 = CARTESIAN_POINT('',(0.453728998778,-1.143861065352E-03,0.));
#32 = CARTESIAN_POINT('',(0.492316664295,1.262819971176E-03,0.));
#33 = CARTESIAN_POINT('',(0.605714542892,-1.5133499874E-03,0.));
#34 = CARTESIAN_POINT('',(0.628337896799,3.913330291957E-03,0.));
#35 = CARTESIAN_POINT('',(0.698964531667,4.862226447059E-03,0.));
#36 = CARTESIAN_POINT('',(0.812876263513,2.517057521147E-03,0.));
#37 = CARTESIAN_POINT('',(0.938324900017,4.345267700595E-04,0.));
#38 = CARTESIAN_POINT('',(1.,1.059280258315E-03,0.));
#39 = PCURVE('',#40,#45);
#40 = PLANE('',#41);
#41 = AXIS2_PLACEMENT_3D('',#42,#43,#44);
#42 = CARTESIAN_POINT('',(0.49946915335,5.E-02,0.));
#43 = DIRECTION('',(0.,0.,1.));
#44 = DIRECTION('',(1.,0.,-0.));
#45 = DEFINITIONAL_REPRESENTATION('',(#46),#58);
#46 = B_SPLINE_CURVE_WITH_KNOTS('',1,(#47,#48,#49,#50,#51,#52,#53,#54,
    #55,#56,#57),.UNSPECIFIED.,.F.,.F.,(2,1,1,1,1,1,1,1,1,1,2),(0.,
    0.336822219502,0.411246172068,0.453612034577,0.492226289475,
    0.605516177338,0.628752161996,0.699296768577,0.813090039464,
    0.938398930671,1.),.UNSPECIFIED.);
#47 = CARTESIAN_POINT('',(-0.49946915335,-5.021876434689E-02));
#48 = CARTESIAN_POINT('',(-0.162233547938,-4.779636329103E-02));
#49 = CARTESIAN_POINT('',(-8.775747585469E-02,-4.532043589378E-02));
#50 = CARTESIAN_POINT('',(-4.574015457147E-02,-5.114386106535E-02));
#51 = CARTESIAN_POINT('',(-7.152489054548E-03,-4.873718002882E-02));
#52 = CARTESIAN_POINT('',(0.106245389542,-5.15133499874E-02));
#53 = CARTESIAN_POINT('',(0.128868743449,-4.608666970804E-02));
#54 = CARTESIAN_POINT('',(0.199495378317,-4.513777355294E-02));
#55 = CARTESIAN_POINT('',(0.313407110163,-4.748294247885E-02));
#56 = CARTESIAN_POINT('',(0.438855746667,-4.956547322994E-02));
#57 = CARTESIAN_POINT('',(0.50053084665,-4.894071974168E-02));
#58 = ( GEOMETRIC_REPRESENTATION_CONTEXT(2) 
PARAMETRIC_REPRESENTATION_CONTEXT() REPRESENTATION_CONTEXT('2D SPACE',''
  ) );
#59 = ORIENTED_EDGE('',*,*,#60,.T.);
#60 = EDGE_CURVE('',#24,#61,#63,.T.);
#61 = VERTEX_POINT('',#62);
#62 = CARTESIAN_POINT('',(1.,9.894071974168E-02,0.));
#63 = SURFACE_CURVE('',#64,(#68),.PCURVE_S1.);
#64 = LINE('',#65,#66);
#65 = CARTESIAN_POINT('',(1.,1.059280258315E-03,0.));
#66 = VECTOR('',#67,1.);
#67 = DIRECTION('',(0.,1.,0.));
#68 = PCURVE('',#40,#69);
#69 = DEFINITIONAL_REPRESENTATION('',(#70),#74);
#70 = LINE('',#71,#72);
#71 = CARTESIAN_POINT('',(0.50053084665,-4.894071974168E-02));
#72 = VECTOR('',#73,1.);
#73 = DIRECTION('',(0.,1.));
#74 = ( GEOMETRIC_REPRESENTATION_CONTEXT(2) 
PARAMETRIC_REPRESENTATION_CONTEXT() REPRESENTATION_CONTEXT('2D SPACE',''
  ) );
#75 = ORIENTED_EDGE('',*,*,#76,.T.);
#76 = EDGE_CURVE('',#61,#77,#79,.T.);
#77 = VERTEX_POINT('',#78);
#78 = CARTESIAN_POINT('',(0.,0.100218764347,0.));
#79 = SURFACE_CURVE('',#80,(#92),.PCURVE_S1.);
#80 = B_SPLINE_CURVE_WITH_KNOTS('',1,(#81,#82,#83,#84,#85,#86,#87,#88,
    #89,#90,#91),.UNSPECIFIED.,.F.,.F.,(2,1,1,1,1,1,1,1,1,1,2),(0.,
    6.160106932902E-02,0.186909960536,0.300703231423,0.371247838004,
    0.394483822662,0.507773710525,0.546387965423,0.588753827932,
    0.663177780498,1.),.UNSPECIFIED.);
#81 = CARTESIAN_POINT('',(1.,9.894071974168E-02,0.));
#82 = CARTESIAN_POINT('',(0.938324900017,9.956547322994E-02,0.));
#83 = CARTESIAN_POINT('',(0.812876263513,9.748294247885E-02,0.));
#84 = CARTESIAN_POINT('',(0.698964531667,9.513777355294E-02,0.));
#85 = CARTESIAN_POINT('',(0.628337896799,9.608666970804E-02,0.));
#86 = CARTESIAN_POINT('',(0.605714542892,0.101513349987,0.));
#87 = CARTESIAN_POINT('',(0.492316664295,9.873718002882E-02,0.));
#88 = CARTESIAN_POINT('',(0.453728998778,0.101143861065,0.));
#89 = CARTESIAN_POINT('',(0.411711677495,9.532043589378E-02,0.));
#90 = CARTESIAN_POINT('',(0.337235605412,9.779636329103E-02,0.));
#91 = CARTESIAN_POINT('',(0.,0.100218764347,0.));
#92 = PCURVE('',#40,#93);
#93 = DEFINITIONAL_REPRESENTATION('',(#94),#106);
#94 = B_SPLINE_CURVE_WITH_KNOTS('',1,(#95,#96,#97,#98,#99,#100,#101,#102
    ,#103,#104,#105),.UNSPECIFIED.,.F.,.F.,(2,1,1,1,1,1,1,1,1,1,2),(0.,
    6.160106932902E-02,0.186909960536,0.300703231423,0.371247838004,
    0.394483822662,0.507773710525,0.546387965423,0.588753827932,
    0.663177780498,1.),.UNSPECIFIED.);
#95 = CARTESIAN_POINT('',(0.50053084665,4.894071974168E-02));
#96 = CARTESIAN_POINT('',(0.438855746667,4.956547322994E-02));
#97 = CARTESIAN_POINT('',(0.313407110163,4.748294247885E-02));
#98 = CARTESIAN_POINT('',(0.199495378317,4.513777355294E-02));
#99 = CARTESIAN_POINT('',(0.128868743449,4.608666970804E-02));
#100 = CARTESIAN_POINT('',(0.106245389542,5.15133499874E-02));
#101 = CARTESIAN_POINT('',(-7.152489054548E-03,4.873718002882E-02));
#102 = CARTESIAN_POINT('',(-4.574015457147E-02,5.114386106535E-02));
#103 = CARTESIAN_POINT('',(-8.775747585469E-02,4.532043589378E-02));
#104 = CARTESIAN_POINT('',(-0.162233547938,4.779636329103E-02));
#105 = CARTESIAN_POINT('',(-0.49946915335,5.021876434689E-02));
#106 = ( GEOMETRIC_REPRESENTATION_CONTEXT(2) 
PARAMETRIC_REPRESENTATION_CONTEXT() REPRESENTATION_CONTEXT('2D SPACE',''
  ) );
#107 = ORIENTED_EDGE('',*,*,#108,.T.);
#108 = EDGE_CURVE('',#77,#22,#109,.T.);
#109 = SURFACE_CURVE('',#110,(#114),.PCURVE_S1.);
#110 = LINE('',#111,#112);
#111 = CARTESIAN_POINT('',(0.,0.100218764347,0.));
#112 = VECTOR('',#113,1.);
#113 = DIRECTION('',(0.,-1.,0.));
#114 = PCURVE('',#40,#115);
#115 = DEFINITIONAL_REPRESENTATION('',(#116),#120);
#116 = LINE('',#117,#118);
#117 = CARTESIAN_POINT('',(-0.49946915335,5.021876434689E-02));
#118 = VECTOR('',#119,1.);
#119 = DIRECTION('',(0.,-1.));
#120 = ( GEOMETRIC_REPRESENTATION_CONTEXT(2) 
PARAMETRIC_REPRESENTATION_CONTEXT() REPRESENTATION_CONTEXT('2D SPACE',''
  ) );
#121 = ( GEOMETRIC_REPRESENTATION_CONTEXT(3) 
GLOBAL_UNCERTAINTY_ASSIGNED_CONTEXT((#125)) GLOBAL_UNIT_ASSIGNED_CONTEXT
((#122,#123,#124)) REPRESENTATION_CONTEXT('Context #1',
  '3D Context with UNIT and UNCERTAINTY') );
#122 = ( LENGTH_UNIT() NAMED_UNIT(*) SI_UNIT(.MILLI.,.METRE.) );
#123 = ( NAMED_UNIT(*) PLANE_ANGLE_UNIT() SI_UNIT($,.RADIAN.) );
#124 = ( NAMED_UNIT(*) SI_UNIT($,.STERADIAN.) SOLID_ANGLE_UNIT() );
#125 = UNCERTAINTY_MEASURE_WITH_UNIT(LENGTH_MEASURE(1.E-07),#122,
  'distance_accuracy_value','confusion accuracy');
#126 = PRODUCT_RELATED_PRODUCT_CATEGORY('part',$,(#7));
ENDSEC;
END-ISO-10303-21;
