ISO-10303-21;
HEADER;
FILE_DESCRIPTION(('Open CASCADE Model'),'2;1');
FILE_NAME('Open CASCADE Shape Model','2026-06-04T12:09:59',('Author'),(
    'Open CASCADE'),'Open CASCADE STEP processor 7.9','Open CASCADE 7.9'
  ,'Unknown');
FILE_SCHEMA(('AUTOMOTIVE_DESIGN { 1 0 10303 214 1 1 1 1 }'));
ENDSEC;
DATA;
#1 = APPLICATION_PROTOCOL_DEFINITION('international standard',
  'automotive_design',2000,#2);
#2 = APPLICATION_CONTEXT(
  'core data for automotive mechanical design processes');
#3 = SHAPE_DEFINITION_REPRESENTATION(#4,#10);
#4 = PRODUCT_DEFINITION_SHAPE('','',#5);
#5 = PRODUCT_DEFINITION('design','',#6,#9);
#6 = PRODUCT_DEFINITION_FORMATION('','',#7);
#7 = PRODUCT('Open CASCADE STEP translator 7.9 86',
  'Open CASCADE STEP translator 7.9 86','',(#8));
#8 = PRODUCT_CONTEXT('',#2,'mechanical');
#9 = PRODUCT_DEFINITION_CONTEXT('part definition',#2,'design');
#10 = MANIFOLD_SURFACE_SHAPE_REPRESENTATION('',(#11,#15),#121);
#11 = AXIS2_PLACEMENT_3D('',#12,#13,#14);
#12 = CARTESIAN_POINT('',(0.,0.,0.));
#13 = DIRECTION('',(0.,0.,1.));
#14 = DIRECTION('',(1.,0.,-0.));
#15 = SHELL_BASED_SURFACE_MODEL('',(#16));
#16 = OPEN_SHELL('',(#17));
#17 = ADVANCED_FACE('',(#18),#40,.T.);
#18 = FACE_BOUND('',#19,.T.);
#19 = EDGE_LOOP('',(#20,#59,#75,#107));
#20 = ORIENTED_EDGE('',*,*,#21,.T.);
#21 = EDGE_CURVE('',#22,#24,#26,.T.);
#22 = VERTEX_POINT('',#23);
#23 = CARTESIAN_POINT('',(0.,-0.17194522865,0.));
#24 = VERTEX_POINT('',#25);
#25 = CARTESIAN_POINT('',(150.,0.296541218395,0.));
#26 = SURFACE_CURVE('',#27,(#39),.PCURVE_S1.);
#27 = B_SPLINE_CURVE_WITH_KNOTS('',1,(#28,#29,#30,#31,#32,#33,#34,#35,
    #36,#37,#38),.UNSPECIFIED.,.F.,.F.,(2,1,1,1,1,1,1,1,1,1,2),(0.,
    0.161062864716,0.215035537134,0.398040080669,0.537676694682,
    0.59765463189,0.679997774862,0.752833509518,0.868213387425,
    0.938731248713,1.),.UNSPECIFIED.);
#28 = CARTESIAN_POINT('',(0.,-0.17194522865,0.));
#29 = CARTESIAN_POINT('',(24.481635216628,-0.611981781165,0.));
#30 = CARTESIAN_POINT('',(32.646445605477,-1.425090823786,0.));
#31 = CARTESIAN_POINT('',(60.179541259905,2.568897987083,0.));
#32 = CARTESIAN_POINT('',(81.24010751338,-9.412463113183E-02,0.));
#33 = CARTESIAN_POINT('',(90.355961005693,0.110450464764,0.));
#34 = CARTESIAN_POINT('',(102.59251595011,-2.530109905425,0.));
#35 = CARTESIAN_POINT('',(113.36321771051,3.896051738195E-02,0.));
#36 = CARTESIAN_POINT('',(130.90319808202,0.190076791834,0.));
#37 = CARTESIAN_POINT('',(141.20599902866,-2.773199931208,0.));
#38 = CARTESIAN_POINT('',(150.,0.296541218395,0.));
#39 = PCURVE('',#40,#45);
#40 = PLANE('',#41);
#41 = AXIS2_PLACEMENT_3D('',#42,#43,#44);
#42 = CARTESIAN_POINT('',(75.192286257829,7.5,0.));
#43 = DIRECTION('',(0.,0.,1.));
#44 = DIRECTION('',(1.,0.,-0.));
#45 = DEFINITIONAL_REPRESENTATION('',(#46),#58);
#46 = B_SPLINE_CURVE_WITH_KNOTS('',1,(#47,#48,#49,#50,#51,#52,#53,#54,
    #55,#56,#57),.UNSPECIFIED.,.F.,.F.,(2,1,1,1,1,1,1,1,1,1,2),(0.,
    0.161062864716,0.215035537134,0.398040080669,0.537676694682,
    0.59765463189,0.679997774862,0.752833509518,0.868213387425,
    0.938731248713,1.),.UNSPECIFIED.);
#47 = CARTESIAN_POINT('',(-75.19228625782,-7.67194522865));
#48 = CARTESIAN_POINT('',(-50.7106510412,-8.111981781165));
#49 = CARTESIAN_POINT('',(-42.54584065235,-8.925090823786));
#50 = CARTESIAN_POINT('',(-15.01274499792,-4.931102012917));
#51 = CARTESIAN_POINT('',(6.047821255551,-7.594124631132));
#52 = CARTESIAN_POINT('',(15.163674747864,-7.389549535236));
#53 = CARTESIAN_POINT('',(27.400229692284,-10.03010990542));
#54 = CARTESIAN_POINT('',(38.170931452683,-7.461039482618));
#55 = CARTESIAN_POINT('',(55.710911824197,-7.309923208166));
#56 = CARTESIAN_POINT('',(66.013712770834,-10.2731999312));
#57 = CARTESIAN_POINT('',(74.807713742171,-7.203458781605));
#58 = ( GEOMETRIC_REPRESENTATION_CONTEXT(2) 
PARAMETRIC_REPRESENTATION_CONTEXT() REPRESENTATION_CONTEXT('2D SPACE',''
  ) );
#59 = ORIENTED_EDGE('',*,*,#60,.T.);
#60 = EDGE_CURVE('',#24,#61,#63,.T.);
#61 = VERTEX_POINT('',#62);
#62 = CARTESIAN_POINT('',(150.,14.703458781605,0.));
#63 = SURFACE_CURVE('',#64,(#68),.PCURVE_S1.);
#64 = LINE('',#65,#66);
#65 = CARTESIAN_POINT('',(150.,0.296541218395,0.));
#66 = VECTOR('',#67,1.);
#67 = DIRECTION('',(0.,1.,0.));
#68 = PCURVE('',#40,#69);
#69 = DEFINITIONAL_REPRESENTATION('',(#70),#74);
#70 = LINE('',#71,#72);
#71 = CARTESIAN_POINT('',(74.807713742171,-7.203458781605));
#72 = VECTOR('',#73,1.);
#73 = DIRECTION('',(0.,1.));
#74 = ( GEOMETRIC_REPRESENTATION_CONTEXT(2) 
PARAMETRIC_REPRESENTATION_CONTEXT() REPRESENTATION_CONTEXT('2D SPACE',''
  ) );
#75 = ORIENTED_EDGE('',*,*,#76,.T.);
#76 = EDGE_CURVE('',#61,#77,#79,.T.);
#77 = VERTEX_POINT('',#78);
#78 = CARTESIAN_POINT('',(0.,15.17194522865,0.));
#79 = SURFACE_CURVE('',#80,(#92),.PCURVE_S1.);
#80 = B_SPLINE_CURVE_WITH_KNOTS('',1,(#81,#82,#83,#84,#85,#86,#87,#88,
    #89,#90,#91),.UNSPECIFIED.,.F.,.F.,(2,1,1,1,1,1,1,1,1,1,2),(0.,
    6.126875128744E-02,0.131786612575,0.247166490482,0.320002225138,
    0.40234536811,0.462323305318,0.601959919331,0.784964462866,
    0.838937135284,1.),.UNSPECIFIED.);
#81 = CARTESIAN_POINT('',(150.,14.703458781605,0.));
#82 = CARTESIAN_POINT('',(141.20599902866,17.773199931208,0.));
#83 = CARTESIAN_POINT('',(130.90319808202,14.809923208166,0.));
#84 = CARTESIAN_POINT('',(113.36321771051,14.961039482618,0.));
#85 = CARTESIAN_POINT('',(102.59251595011,17.530109905425,0.));
#86 = CARTESIAN_POINT('',(90.355961005693,14.889549535236,0.));
#87 = CARTESIAN_POINT('',(81.24010751338,15.094124631132,0.));
#88 = CARTESIAN_POINT('',(60.179541259905,12.431102012917,0.));
#89 = CARTESIAN_POINT('',(32.646445605477,16.425090823786,0.));
#90 = CARTESIAN_POINT('',(24.481635216628,15.611981781165,0.));
#91 = CARTESIAN_POINT('',(0.,15.17194522865,0.));
#92 = PCURVE('',#40,#93);
#93 = DEFINITIONAL_REPRESENTATION('',(#94),#106);
#94 = B_SPLINE_CURVE_WITH_KNOTS('',1,(#95,#96,#97,#98,#99,#100,#101,#102
    ,#103,#104,#105),.UNSPECIFIED.,.F.,.F.,(2,1,1,1,1,1,1,1,1,1,2),(0.,
    6.126875128744E-02,0.131786612575,0.247166490482,0.320002225138,
    0.40234536811,0.462323305318,0.601959919331,0.784964462866,
    0.838937135284,1.),.UNSPECIFIED.);
#95 = CARTESIAN_POINT('',(74.807713742171,7.203458781605));
#96 = CARTESIAN_POINT('',(66.013712770834,10.273199931208));
#97 = CARTESIAN_POINT('',(55.710911824197,7.309923208166));
#98 = CARTESIAN_POINT('',(38.170931452683,7.461039482618));
#99 = CARTESIAN_POINT('',(27.400229692284,10.030109905425));
#100 = CARTESIAN_POINT('',(15.163674747864,7.389549535236));
#101 = CARTESIAN_POINT('',(6.047821255551,7.594124631132));
#102 = CARTESIAN_POINT('',(-15.01274499792,4.931102012917));
#103 = CARTESIAN_POINT('',(-42.54584065235,8.925090823786));
#104 = CARTESIAN_POINT('',(-50.7106510412,8.111981781165));
#105 = CARTESIAN_POINT('',(-75.19228625782,7.67194522865));
#106 = ( GEOMETRIC_REPRESENTATION_CONTEXT(2) 
PARAMETRIC_REPRESENTATION_CONTEXT() REPRESENTATION_CONTEXT('2D SPACE',''
  ) );
#107 = ORIENTED_EDGE('',*,*,#108,.T.);
#108 = EDGE_CURVE('',#77,#22,#109,.T.);
#109 = SURFACE_CURVE('',#110,(#114),.PCURVE_S1.);
#110 = LINE('',#111,#112);
#111 = CARTESIAN_POINT('',(0.,15.17194522865,0.));
#112 = VECTOR('',#113,1.);
#113 = DIRECTION('',(0.,-1.,0.));
#114 = PCURVE('',#40,#115);
#115 = DEFINITIONAL_REPRESENTATION('',(#116),#120);
#116 = LINE('',#117,#118);
#117 = CARTESIAN_POINT('',(-75.19228625782,7.67194522865));
#118 = VECTOR('',#119,1.);
#119 = DIRECTION('',(0.,-1.));
#120 = ( GEOMETRIC_REPRESENTATION_CONTEXT(2) 
PARAMETRIC_REPRESENTATION_CONTEXT() REPRESENTATION_CONTEXT('2D SPACE',''
  ) );
#121 = ( GEOMETRIC_REPRESENTATION_CONTEXT(3) 
GLOBAL_UNCERTAINTY_ASSIGNED_CONTEXT((#125)) GLOBAL_UNIT_ASSIGNED_CONTEXT
((#122,#123,#124)) REPRESENTATION_CONTEXT('Context #1',
  '3D Context with UNIT and UNCERTAINTY') );
#122 = ( LENGTH_UNIT() NAMED_UNIT(*) SI_UNIT(.MILLI.,.METRE.) );
#123 = ( NAMED_UNIT(*) PLANE_ANGLE_UNIT() SI_UNIT($,.RADIAN.) );
#124 = ( NAMED_UNIT(*) SI_UNIT($,.STERADIAN.) SOLID_ANGLE_UNIT() );
#125 = UNCERTAINTY_MEASURE_WITH_UNIT(LENGTH_MEASURE(1.E-07),#122,
  'distance_accuracy_value','confusion accuracy');
#126 = PRODUCT_RELATED_PRODUCT_CATEGORY('part',$,(#7));
ENDSEC;
END-ISO-10303-21;
