ISO-10303-21;
HEADER;
FILE_DESCRIPTION(('Open CASCADE Model'),'2;1');
FILE_NAME('Open CASCADE Shape Model','2026-06-04T12:09:59',('Author'),(
    'Open CASCADE'),'Open CASCADE STEP processor 7.9','Open CASCADE 7.9'
  ,'Unknown');
FILE_SCHEMA(('AUTOMOTIVE_DESIGN { 1 0 10303 214 1 1 1 1 }'));
ENDSEC;
DATA;
#1 = APPLICATION_PROTOCOL_DEFINITION('international standard',
  'automotive_design',2000,#2);
#2 = APPLICATION_CONTEXT(
  'core data for automotive mechanical design processes');
#3 = SHAPE_DEFINITION_REPRESENTATION(#4,#10);
#4 = PRODUCT_DEFINITION_SHAPE('','',#5);
#5 = PRODUCT_DEFINITION('design','',#6,#9);
#6 = PRODUCT_DEFINITION_FORMATION('','',#7);
#7 = PRODUCT('Open CASCADE STEP translator 7.9 44',
  'Open CASCADE STEP translator 7.9 44','',(#8));
#8 = PRODUCT_CONTEXT('',#2,'mechanical');
#9 = PRODUCT_DEFINITION_CONTEXT('part definition',#2,'design');
#10 = MANIFOLD_SURFACE_SHAPE_REPRESENTATION('',(#11,#15),#121);
#11 = AXIS2_PLACEMENT_3D('',#12,#13,#14);
#12 = CARTESIAN_POINT('',(0.,0.,0.));
#13 = DIRECTION('',(0.,0.,1.));
#14 = DIRECTION('',(1.,0.,-0.));
#15 = SHELL_BASED_SURFACE_MODEL('',(#16));
#16 = OPEN_SHELL('',(#17));
#17 = ADVANCED_FACE('',(#18),#40,.T.);
#18 = FACE_BOUND('',#19,.T.);
#19 = EDGE_LOOP('',(#20,#59,#75,#107));
#20 = ORIENTED_EDGE('',*,*,#21,.T.);
#21 = EDGE_CURVE('',#22,#24,#26,.T.);
#22 = VERTEX_POINT('',#23);
#23 = CARTESIAN_POINT('',(0.,1.22380282254,0.));
#24 = VERTEX_POINT('',#25);
#25 = CARTESIAN_POINT('',(150.,1.412761133092,0.));
#26 = SURFACE_CURVE('',#27,(#39),.PCURVE_S1.);
#27 = B_SPLINE_CURVE_WITH_KNOTS('',1,(#28,#29,#30,#31,#32,#33,#34,#35,
    #36,#37,#38),.UNSPECIFIED.,.F.,.F.,(2,1,1,1,1,1,1,1,1,1,2),(0.,
    2.778390465453E-02,0.116008431626,0.259388106602,0.399103929013,
    0.457413265295,0.552121702459,0.602856121159,0.655524260749,
    0.718506956694,1.),.UNSPECIFIED.);
#28 = CARTESIAN_POINT('',(0.,1.22380282254,0.));
#29 = CARTESIAN_POINT('',(4.307228488657,0.77248417747,0.));
#30 = CARTESIAN_POINT('',(18.057725679973,0.570870213441,0.));
#31 = CARTESIAN_POINT('',(40.305171757826,-1.560089830464,0.));
#32 = CARTESIAN_POINT('',(62.083213386329,-1.634117926047,0.));
#33 = CARTESIAN_POINT('',(70.514998718929,1.759118834916,0.));
#34 = CARTESIAN_POINT('',(84.604085137228,-2.649233140429,0.));
#35 = CARTESIAN_POINT('',(90.791270478748,2.276067975338,0.));
#36 = CARTESIAN_POINT('',(97.555109207925,-2.376732494542,0.));
#37 = CARTESIAN_POINT('',(106.13339954277,2.397626126101,0.));
#38 = CARTESIAN_POINT('',(150.,1.412761133092,0.));
#39 = PCURVE('',#40,#45);
#40 = PLANE('',#41);
#41 = AXIS2_PLACEMENT_3D('',#42,#43,#44);
#42 = CARTESIAN_POINT('',(75.34936891483,7.5,0.));
#43 = DIRECTION('',(0.,0.,1.));
#44 = DIRECTION('',(1.,0.,-0.));
#45 = DEFINITIONAL_REPRESENTATION('',(#46),#58);
#46 = B_SPLINE_CURVE_WITH_KNOTS('',1,(#47,#48,#49,#50,#51,#52,#53,#54,
    #55,#56,#57),.UNSPECIFIED.,.F.,.F.,(2,1,1,1,1,1,1,1,1,1,2),(0.,
    2.778390465453E-02,0.116008431626,0.259388106602,0.399103929013,
    0.457413265295,0.552121702459,0.602856121159,0.655524260749,
    0.718506956694,1.),.UNSPECIFIED.);
#47 = CARTESIAN_POINT('',(-75.34936891483,-6.27619717746));
#48 = CARTESIAN_POINT('',(-71.04214042617,-6.72751582253));
#49 = CARTESIAN_POINT('',(-57.29164323485,-6.929129786559));
#50 = CARTESIAN_POINT('',(-35.044197157,-9.060089830464));
#51 = CARTESIAN_POINT('',(-13.2661555285,-9.134117926047));
#52 = CARTESIAN_POINT('',(-4.8343701959,-5.740881165084));
#53 = CARTESIAN_POINT('',(9.254716222398,-10.14923314042));
#54 = CARTESIAN_POINT('',(15.441901563919,-5.223932024662));
#55 = CARTESIAN_POINT('',(22.205740293095,-9.876732494542));
#56 = CARTESIAN_POINT('',(30.784030627945,-5.102373873899));
#57 = CARTESIAN_POINT('',(74.65063108517,-6.087238866908));
#58 = ( GEOMETRIC_REPRESENTATION_CONTEXT(2) 
PARAMETRIC_REPRESENTATION_CONTEXT() REPRESENTATION_CONTEXT('2D SPACE',''
  ) );
#59 = ORIENTED_EDGE('',*,*,#60,.T.);
#60 = EDGE_CURVE('',#24,#61,#63,.T.);
#61 = VERTEX_POINT('',#62);
#62 = CARTESIAN_POINT('',(150.,13.587238866908,0.));
#63 = SURFACE_CURVE('',#64,(#68),.PCURVE_S1.);
#64 = LINE('',#65,#66);
#65 = CARTESIAN_POINT('',(150.,1.412761133092,0.));
#66 = VECTOR('',#67,1.);
#67 = DIRECTION('',(0.,1.,0.));
#68 = PCURVE('',#40,#69);
#69 = DEFINITIONAL_REPRESENTATION('',(#70),#74);
#70 = LINE('',#71,#72);
#71 = CARTESIAN_POINT('',(74.65063108517,-6.087238866908));
#72 = VECTOR('',#73,1.);
#73 = DIRECTION('',(0.,1.));
#74 = ( GEOMETRIC_REPRESENTATION_CONTEXT(2) 
PARAMETRIC_REPRESENTATION_CONTEXT() REPRESENTATION_CONTEXT('2D SPACE',''
  ) );
#75 = ORIENTED_EDGE('',*,*,#76,.T.);
#76 = EDGE_CURVE('',#61,#77,#79,.T.);
#77 = VERTEX_POINT('',#78);
#78 = CARTESIAN_POINT('',(0.,13.77619717746,0.));
#79 = SURFACE_CURVE('',#80,(#92),.PCURVE_S1.);
#80 = B_SPLINE_CURVE_WITH_KNOTS('',1,(#81,#82,#83,#84,#85,#86,#87,#88,
    #89,#90,#91),.UNSPECIFIED.,.F.,.F.,(2,1,1,1,1,1,1,1,1,1,2),(0.,
    0.281493043306,0.344475739251,0.397143878841,0.447878297541,
    0.542586734705,0.600896070987,0.740611893398,0.883991568374,
    0.972216095345,1.),.UNSPECIFIED.);
#81 = CARTESIAN_POINT('',(150.,13.587238866908,0.));
#82 = CARTESIAN_POINT('',(106.13339954277,12.602373873899,0.));
#83 = CARTESIAN_POINT('',(97.555109207925,17.376732494542,0.));
#84 = CARTESIAN_POINT('',(90.791270478748,12.723932024662,0.));
#85 = CARTESIAN_POINT('',(84.604085137228,17.649233140429,0.));
#86 = CARTESIAN_POINT('',(70.514998718929,13.240881165084,0.));
#87 = CARTESIAN_POINT('',(62.083213386329,16.634117926047,0.));
#88 = CARTESIAN_POINT('',(40.305171757826,16.560089830464,0.));
#89 = CARTESIAN_POINT('',(18.057725679973,14.429129786559,0.));
#90 = CARTESIAN_POINT('',(4.307228488657,14.22751582253,0.));
#91 = CARTESIAN_POINT('',(0.,13.77619717746,0.));
#92 = PCURVE('',#40,#93);
#93 = DEFINITIONAL_REPRESENTATION('',(#94),#106);
#94 = B_SPLINE_CURVE_WITH_KNOTS('',1,(#95,#96,#97,#98,#99,#100,#101,#102
    ,#103,#104,#105),.UNSPECIFIED.,.F.,.F.,(2,1,1,1,1,1,1,1,1,1,2),(0.,
    0.281493043306,0.344475739251,0.397143878841,0.447878297541,
    0.542586734705,0.600896070987,0.740611893398,0.883991568374,
    0.972216095345,1.),.UNSPECIFIED.);
#95 = CARTESIAN_POINT('',(74.65063108517,6.087238866908));
#96 = CARTESIAN_POINT('',(30.784030627945,5.102373873899));
#97 = CARTESIAN_POINT('',(22.205740293095,9.876732494542));
#98 = CARTESIAN_POINT('',(15.441901563919,5.223932024662));
#99 = CARTESIAN_POINT('',(9.254716222398,10.149233140429));
#100 = CARTESIAN_POINT('',(-4.8343701959,5.740881165084));
#101 = CARTESIAN_POINT('',(-13.2661555285,9.134117926047));
#102 = CARTESIAN_POINT('',(-35.044197157,9.060089830464));
#103 = CARTESIAN_POINT('',(-57.29164323485,6.929129786559));
#104 = CARTESIAN_POINT('',(-71.04214042617,6.72751582253));
#105 = CARTESIAN_POINT('',(-75.34936891483,6.27619717746));
#106 = ( GEOMETRIC_REPRESENTATION_CONTEXT(2) 
PARAMETRIC_REPRESENTATION_CONTEXT() REPRESENTATION_CONTEXT('2D SPACE',''
  ) );
#107 = ORIENTED_EDGE('',*,*,#108,.T.);
#108 = EDGE_CURVE('',#77,#22,#109,.T.);
#109 = SURFACE_CURVE('',#110,(#114),.PCURVE_S1.);
#110 = LINE('',#111,#112);
#111 = CARTESIAN_POINT('',(0.,13.77619717746,0.));
#112 = VECTOR('',#113,1.);
#113 = DIRECTION('',(0.,-1.,0.));
#114 = PCURVE('',#40,#115);
#115 = DEFINITIONAL_REPRESENTATION('',(#116),#120);
#116 = LINE('',#117,#118);
#117 = CARTESIAN_POINT('',(-75.34936891483,6.27619717746));
#118 = VECTOR('',#119,1.);
#119 = DIRECTION('',(0.,-1.));
#120 = ( GEOMETRIC_REPRESENTATION_CONTEXT(2) 
PARAMETRIC_REPRESENTATION_CONTEXT() REPRESENTATION_CONTEXT('2D SPACE',''
  ) );
#121 = ( GEOMETRIC_REPRESENTATION_CONTEXT(3) 
GLOBAL_UNCERTAINTY_ASSIGNED_CONTEXT((#125)) GLOBAL_UNIT_ASSIGNED_CONTEXT
((#122,#123,#124)) REPRESENTATION_CONTEXT('Context #1',
  '3D Context with UNIT and UNCERTAINTY') );
#122 = ( LENGTH_UNIT() NAMED_UNIT(*) SI_UNIT(.MILLI.,.METRE.) );
#123 = ( NAMED_UNIT(*) PLANE_ANGLE_UNIT() SI_UNIT($,.RADIAN.) );
#124 = ( NAMED_UNIT(*) SI_UNIT($,.STERADIAN.) SOLID_ANGLE_UNIT() );
#125 = UNCERTAINTY_MEASURE_WITH_UNIT(LENGTH_MEASURE(1.E-07),#122,
  'distance_accuracy_value','confusion accuracy');
#126 = PRODUCT_RELATED_PRODUCT_CATEGORY('part',$,(#7));
ENDSEC;
END-ISO-10303-21;
