ISO-10303-21;
HEADER;
FILE_DESCRIPTION(('Open CASCADE Model'),'2;1');
FILE_NAME('Open CASCADE Shape Model','2026-06-04T12:09:59',('Author'),(
    'Open CASCADE'),'Open CASCADE STEP processor 7.9','Open CASCADE 7.9'
  ,'Unknown');
FILE_SCHEMA(('AUTOMOTIVE_DESIGN { 1 0 10303 214 1 1 1 1 }'));
ENDSEC;
DATA;
#1 = APPLICATION_PROTOCOL_DEFINITION('international standard',
  'automotive_design',2000,#2);
#2 = APPLICATION_CONTEXT(
  'core data for automotive mechanical design processes');
#3 = SHAPE_DEFINITION_REPRESENTATION(#4,#10);
#4 = PRODUCT_DEFINITION_SHAPE('','',#5);
#5 = PRODUCT_DEFINITION('design','',#6,#9);
#6 = PRODUCT_DEFINITION_FORMATION('','',#7);
#7 = PRODUCT('Open CASCADE STEP translator 7.9 28',
  'Open CASCADE STEP translator 7.9 28','',(#8));
#8 = PRODUCT_CONTEXT('',#2,'mechanical');
#9 = PRODUCT_DEFINITION_CONTEXT('part definition',#2,'design');
#10 = MANIFOLD_SURFACE_SHAPE_REPRESENTATION('',(#11,#15),#121);
#11 = AXIS2_PLACEMENT_3D('',#12,#13,#14);
#12 = CARTESIAN_POINT('',(0.,0.,0.));
#13 = DIRECTION('',(0.,0.,1.));
#14 = DIRECTION('',(1.,0.,-0.));
#15 = SHELL_BASED_SURFACE_MODEL('',(#16));
#16 = OPEN_SHELL('',(#17));
#17 = ADVANCED_FACE('',(#18),#40,.T.);
#18 = FACE_BOUND('',#19,.T.);
#19 = EDGE_LOOP('',(#20,#59,#75,#107));
#20 = ORIENTED_EDGE('',*,*,#21,.T.);
#21 = EDGE_CURVE('',#22,#24,#26,.T.);
#22 = VERTEX_POINT('',#23);
#23 = CARTESIAN_POINT('',(0.,0.966866186342,0.));
#24 = VERTEX_POINT('',#25);
#25 = CARTESIAN_POINT('',(150.,-0.802618638416,0.));
#26 = SURFACE_CURVE('',#27,(#39),.PCURVE_S1.);
#27 = B_SPLINE_CURVE_WITH_KNOTS('',1,(#28,#29,#30,#31,#32,#33,#34,#35,
    #36,#37,#38),.UNSPECIFIED.,.F.,.F.,(2,1,1,1,1,1,1,1,1,1,2),(0.,
    0.175278485876,0.391613218169,0.488870092759,0.615754654536,
    0.663695680474,0.693420412575,0.76279080307,0.923636474356,
    0.956484176858,1.),.UNSPECIFIED.);
#28 = CARTESIAN_POINT('',(0.,0.966866186342,0.));
#29 = CARTESIAN_POINT('',(26.80877985413,1.850381942024,0.));
#30 = CARTESIAN_POINT('',(59.899934549042,2.851061209209,0.));
#31 = CARTESIAN_POINT('',(73.763080000071,-2.564762751024,0.));
#32 = CARTESIAN_POINT('',(92.96646628877,0.310756030459,0.));
#33 = CARTESIAN_POINT('',(100.25429676612,1.154789565475,0.));
#34 = CARTESIAN_POINT('',(104.45486569225,-0.590863149346,0.));
#35 = CARTESIAN_POINT('',(114.46071678617,2.956113262242,0.));
#36 = CARTESIAN_POINT('',(139.02171120814,1.331867360395,0.));
#37 = CARTESIAN_POINT('',(143.35363746267,-1.218200794193,0.));
#38 = CARTESIAN_POINT('',(150.,-0.802618638416,0.));
#39 = PCURVE('',#40,#45);
#40 = PLANE('',#41);
#41 = AXIS2_PLACEMENT_3D('',#42,#43,#44);
#42 = CARTESIAN_POINT('',(76.227693196203,7.5,0.));
#43 = DIRECTION('',(0.,0.,1.));
#44 = DIRECTION('',(1.,0.,-0.));
#45 = DEFINITIONAL_REPRESENTATION('',(#46),#58);
#46 = B_SPLINE_CURVE_WITH_KNOTS('',1,(#47,#48,#49,#50,#51,#52,#53,#54,
    #55,#56,#57),.UNSPECIFIED.,.F.,.F.,(2,1,1,1,1,1,1,1,1,1,2),(0.,
    0.175278485876,0.391613218169,0.488870092759,0.615754654536,
    0.663695680474,0.693420412575,0.76279080307,0.923636474356,
    0.956484176858,1.),.UNSPECIFIED.);
#47 = CARTESIAN_POINT('',(-76.2276931962,-6.533133813658));
#48 = CARTESIAN_POINT('',(-49.41891334207,-5.649618057976));
#49 = CARTESIAN_POINT('',(-16.32775864716,-4.648938790791));
#50 = CARTESIAN_POINT('',(-2.464613196132,-10.06476275102));
#51 = CARTESIAN_POINT('',(16.738773092567,-7.189243969541));
#52 = CARTESIAN_POINT('',(24.026603569925,-6.345210434525));
#53 = CARTESIAN_POINT('',(28.227172496054,-8.090863149346));
#54 = CARTESIAN_POINT('',(38.23302358997,-4.543886737758));
#55 = CARTESIAN_POINT('',(62.794018011938,-6.168132639605));
#56 = CARTESIAN_POINT('',(67.125944266474,-8.718200794193));
#57 = CARTESIAN_POINT('',(73.772306803797,-8.302618638416));
#58 = ( GEOMETRIC_REPRESENTATION_CONTEXT(2) 
PARAMETRIC_REPRESENTATION_CONTEXT() REPRESENTATION_CONTEXT('2D SPACE',''
  ) );
#59 = ORIENTED_EDGE('',*,*,#60,.T.);
#60 = EDGE_CURVE('',#24,#61,#63,.T.);
#61 = VERTEX_POINT('',#62);
#62 = CARTESIAN_POINT('',(150.,15.802618638416,0.));
#63 = SURFACE_CURVE('',#64,(#68),.PCURVE_S1.);
#64 = LINE('',#65,#66);
#65 = CARTESIAN_POINT('',(150.,-0.802618638416,0.));
#66 = VECTOR('',#67,1.);
#67 = DIRECTION('',(0.,1.,0.));
#68 = PCURVE('',#40,#69);
#69 = DEFINITIONAL_REPRESENTATION('',(#70),#74);
#70 = LINE('',#71,#72);
#71 = CARTESIAN_POINT('',(73.772306803797,-8.302618638416));
#72 = VECTOR('',#73,1.);
#73 = DIRECTION('',(0.,1.));
#74 = ( GEOMETRIC_REPRESENTATION_CONTEXT(2) 
PARAMETRIC_REPRESENTATION_CONTEXT() REPRESENTATION_CONTEXT('2D SPACE',''
  ) );
#75 = ORIENTED_EDGE('',*,*,#76,.T.);
#76 = EDGE_CURVE('',#61,#77,#79,.T.);
#77 = VERTEX_POINT('',#78);
#78 = CARTESIAN_POINT('',(0.,14.033133813658,0.));
#79 = SURFACE_CURVE('',#80,(#92),.PCURVE_S1.);
#80 = B_SPLINE_CURVE_WITH_KNOTS('',1,(#81,#82,#83,#84,#85,#86,#87,#88,
    #89,#90,#91),.UNSPECIFIED.,.F.,.F.,(2,1,1,1,1,1,1,1,1,1,2),(0.,
    4.351582314179E-02,7.636352564382E-02,0.23720919693,0.306579587425,
    0.336304319526,0.384245345464,0.511129907241,0.608386781831,
    0.824721514124,1.),.UNSPECIFIED.);
#81 = CARTESIAN_POINT('',(150.,15.802618638416,0.));
#82 = CARTESIAN_POINT('',(143.35363746267,16.218200794193,0.));
#83 = CARTESIAN_POINT('',(139.02171120814,13.668132639605,0.));
#84 = CARTESIAN_POINT('',(114.46071678617,12.043886737758,0.));
#85 = CARTESIAN_POINT('',(104.45486569225,15.590863149346,0.));
#86 = CARTESIAN_POINT('',(100.25429676612,13.845210434525,0.));
#87 = CARTESIAN_POINT('',(92.96646628877,14.689243969541,0.));
#88 = CARTESIAN_POINT('',(73.763080000071,17.564762751024,0.));
#89 = CARTESIAN_POINT('',(59.899934549042,12.148938790791,0.));
#90 = CARTESIAN_POINT('',(26.80877985413,13.149618057976,0.));
#91 = CARTESIAN_POINT('',(0.,14.033133813658,0.));
#92 = PCURVE('',#40,#93);
#93 = DEFINITIONAL_REPRESENTATION('',(#94),#106);
#94 = B_SPLINE_CURVE_WITH_KNOTS('',1,(#95,#96,#97,#98,#99,#100,#101,#102
    ,#103,#104,#105),.UNSPECIFIED.,.F.,.F.,(2,1,1,1,1,1,1,1,1,1,2),(0.,
    4.351582314179E-02,7.636352564382E-02,0.23720919693,0.306579587425,
    0.336304319526,0.384245345464,0.511129907241,0.608386781831,
    0.824721514124,1.),.UNSPECIFIED.);
#95 = CARTESIAN_POINT('',(73.772306803797,8.302618638416));
#96 = CARTESIAN_POINT('',(67.125944266474,8.718200794193));
#97 = CARTESIAN_POINT('',(62.794018011938,6.168132639605));
#98 = CARTESIAN_POINT('',(38.23302358997,4.543886737758));
#99 = CARTESIAN_POINT('',(28.227172496054,8.090863149346));
#100 = CARTESIAN_POINT('',(24.026603569925,6.345210434525));
#101 = CARTESIAN_POINT('',(16.738773092567,7.189243969541));
#102 = CARTESIAN_POINT('',(-2.464613196132,10.064762751024));
#103 = CARTESIAN_POINT('',(-16.32775864716,4.648938790791));
#104 = CARTESIAN_POINT('',(-49.41891334207,5.649618057976));
#105 = CARTESIAN_POINT('',(-76.2276931962,6.533133813658));
#106 = ( GEOMETRIC_REPRESENTATION_CONTEXT(2) 
PARAMETRIC_REPRESENTATION_CONTEXT() REPRESENTATION_CONTEXT('2D SPACE',''
  ) );
#107 = ORIENTED_EDGE('',*,*,#108,.T.);
#108 = EDGE_CURVE('',#77,#22,#109,.T.);
#109 = SURFACE_CURVE('',#110,(#114),.PCURVE_S1.);
#110 = LINE('',#111,#112);
#111 = CARTESIAN_POINT('',(0.,14.033133813658,0.));
#112 = VECTOR('',#113,1.);
#113 = DIRECTION('',(0.,-1.,0.));
#114 = PCURVE('',#40,#115);
#115 = DEFINITIONAL_REPRESENTATION('',(#116),#120);
#116 = LINE('',#117,#118);
#117 = CARTESIAN_POINT('',(-76.2276931962,6.533133813658));
#118 = VECTOR('',#119,1.);
#119 = DIRECTION('',(0.,-1.));
#120 = ( GEOMETRIC_REPRESENTATION_CONTEXT(2) 
PARAMETRIC_REPRESENTATION_CONTEXT() REPRESENTATION_CONTEXT('2D SPACE',''
  ) );
#121 = ( GEOMETRIC_REPRESENTATION_CONTEXT(3) 
GLOBAL_UNCERTAINTY_ASSIGNED_CONTEXT((#125)) GLOBAL_UNIT_ASSIGNED_CONTEXT
((#122,#123,#124)) REPRESENTATION_CONTEXT('Context #1',
  '3D Context with UNIT and UNCERTAINTY') );
#122 = ( LENGTH_UNIT() NAMED_UNIT(*) SI_UNIT(.MILLI.,.METRE.) );
#123 = ( NAMED_UNIT(*) PLANE_ANGLE_UNIT() SI_UNIT($,.RADIAN.) );
#124 = ( NAMED_UNIT(*) SI_UNIT($,.STERADIAN.) SOLID_ANGLE_UNIT() );
#125 = UNCERTAINTY_MEASURE_WITH_UNIT(LENGTH_MEASURE(1.E-07),#122,
  'distance_accuracy_value','confusion accuracy');
#126 = PRODUCT_RELATED_PRODUCT_CATEGORY('part',$,(#7));
ENDSEC;
END-ISO-10303-21;
