ISO-10303-21;
HEADER;
FILE_DESCRIPTION(('Open CASCADE Model'),'2;1');
FILE_NAME('Open CASCADE Shape Model','2026-06-04T12:09:59',('Author'),(
    'Open CASCADE'),'Open CASCADE STEP processor 7.9','Open CASCADE 7.9'
  ,'Unknown');
FILE_SCHEMA(('AUTOMOTIVE_DESIGN { 1 0 10303 214 1 1 1 1 }'));
ENDSEC;
DATA;
#1 = APPLICATION_PROTOCOL_DEFINITION('international standard',
  'automotive_design',2000,#2);
#2 = APPLICATION_CONTEXT(
  'core data for automotive mechanical design processes');
#3 = SHAPE_DEFINITION_REPRESENTATION(#4,#10);
#4 = PRODUCT_DEFINITION_SHAPE('','',#5);
#5 = PRODUCT_DEFINITION('design','',#6,#9);
#6 = PRODUCT_DEFINITION_FORMATION('','',#7);
#7 = PRODUCT('Open CASCADE STEP translator 7.9 66',
  'Open CASCADE STEP translator 7.9 66','',(#8));
#8 = PRODUCT_CONTEXT('',#2,'mechanical');
#9 = PRODUCT_DEFINITION_CONTEXT('part definition',#2,'design');
#10 = MANIFOLD_SURFACE_SHAPE_REPRESENTATION('',(#11,#15),#121);
#11 = AXIS2_PLACEMENT_3D('',#12,#13,#14);
#12 = CARTESIAN_POINT('',(0.,0.,0.));
#13 = DIRECTION('',(0.,0.,1.));
#14 = DIRECTION('',(1.,0.,-0.));
#15 = SHELL_BASED_SURFACE_MODEL('',(#16));
#16 = OPEN_SHELL('',(#17));
#17 = ADVANCED_FACE('',(#18),#40,.T.);
#18 = FACE_BOUND('',#19,.T.);
#19 = EDGE_LOOP('',(#20,#59,#75,#107));
#20 = ORIENTED_EDGE('',*,*,#21,.T.);
#21 = EDGE_CURVE('',#22,#24,#26,.T.);
#22 = VERTEX_POINT('',#23);
#23 = CARTESIAN_POINT('',(0.,-2.494469147272,0.));
#24 = VERTEX_POINT('',#25);
#25 = CARTESIAN_POINT('',(150.,2.434283679072,0.));
#26 = SURFACE_CURVE('',#27,(#39),.PCURVE_S1.);
#27 = B_SPLINE_CURVE_WITH_KNOTS('',1,(#28,#29,#30,#31,#32,#33,#34,#35,
    #36,#37,#38),.UNSPECIFIED.,.F.,.F.,(2,1,1,1,1,1,1,1,1,1,2),(0.,
    4.376245598499E-02,0.261270141403,0.290674393138,0.473508149007,
    0.743742755935,0.789751528387,0.81621698325,0.899530264765,
    0.945476002521,1.),.UNSPECIFIED.);
#28 = CARTESIAN_POINT('',(0.,-2.494469147272,0.));
#29 = CARTESIAN_POINT('',(6.460100867655,-0.404688681296,0.));
#30 = CARTESIAN_POINT('',(40.190758530308,0.616600191163,0.));
#31 = CARTESIAN_POINT('',(44.743783390193,0.329903670876,0.));
#32 = CARTESIAN_POINT('',(73.017571971825,2.621296975777,0.));
#33 = CARTESIAN_POINT('',(114.59061042293,-2.81251392817,0.));
#34 = CARTESIAN_POINT('',(120.53727392382,1.136074889514,0.));
#35 = CARTESIAN_POINT('',(124.57835911589,1.863819049963,0.));
#36 = CARTESIAN_POINT('',(137.49131359952,1.283716188958,0.));
#37 = CARTESIAN_POINT('',(143.34367202498,-2.786239169349,0.));
#38 = CARTESIAN_POINT('',(150.,2.434283679072,0.));
#39 = PCURVE('',#40,#45);
#40 = PLANE('',#41);
#41 = AXIS2_PLACEMENT_3D('',#42,#43,#44);
#42 = CARTESIAN_POINT('',(74.283194719826,7.5,0.));
#43 = DIRECTION('',(0.,0.,1.));
#44 = DIRECTION('',(1.,0.,-0.));
#45 = DEFINITIONAL_REPRESENTATION('',(#46),#58);
#46 = B_SPLINE_CURVE_WITH_KNOTS('',1,(#47,#48,#49,#50,#51,#52,#53,#54,
    #55,#56,#57),.UNSPECIFIED.,.F.,.F.,(2,1,1,1,1,1,1,1,1,1,2),(0.,
    4.376245598499E-02,0.261270141403,0.290674393138,0.473508149007,
    0.743742755935,0.789751528387,0.81621698325,0.899530264765,
    0.945476002521,1.),.UNSPECIFIED.);
#47 = CARTESIAN_POINT('',(-74.28319471982,-9.994469147272));
#48 = CARTESIAN_POINT('',(-67.82309385217,-7.904688681296));
#49 = CARTESIAN_POINT('',(-34.09243618951,-6.883399808837));
#50 = CARTESIAN_POINT('',(-29.53941132963,-7.170096329124));
#51 = CARTESIAN_POINT('',(-1.265622748002,-4.878703024223));
#52 = CARTESIAN_POINT('',(40.307415703104,-10.31251392817));
#53 = CARTESIAN_POINT('',(46.254079203994,-6.363925110486));
#54 = CARTESIAN_POINT('',(50.295164396065,-5.636180950037));
#55 = CARTESIAN_POINT('',(63.2081188797,-6.216283811042));
#56 = CARTESIAN_POINT('',(69.060477305158,-10.28623916934));
#57 = CARTESIAN_POINT('',(75.716805280174,-5.065716320928));
#58 = ( GEOMETRIC_REPRESENTATION_CONTEXT(2) 
PARAMETRIC_REPRESENTATION_CONTEXT() REPRESENTATION_CONTEXT('2D SPACE',''
  ) );
#59 = ORIENTED_EDGE('',*,*,#60,.T.);
#60 = EDGE_CURVE('',#24,#61,#63,.T.);
#61 = VERTEX_POINT('',#62);
#62 = CARTESIAN_POINT('',(150.,12.565716320928,0.));
#63 = SURFACE_CURVE('',#64,(#68),.PCURVE_S1.);
#64 = LINE('',#65,#66);
#65 = CARTESIAN_POINT('',(150.,2.434283679072,0.));
#66 = VECTOR('',#67,1.);
#67 = DIRECTION('',(0.,1.,0.));
#68 = PCURVE('',#40,#69);
#69 = DEFINITIONAL_REPRESENTATION('',(#70),#74);
#70 = LINE('',#71,#72);
#71 = CARTESIAN_POINT('',(75.716805280174,-5.065716320928));
#72 = VECTOR('',#73,1.);
#73 = DIRECTION('',(0.,1.));
#74 = ( GEOMETRIC_REPRESENTATION_CONTEXT(2) 
PARAMETRIC_REPRESENTATION_CONTEXT() REPRESENTATION_CONTEXT('2D SPACE',''
  ) );
#75 = ORIENTED_EDGE('',*,*,#76,.T.);
#76 = EDGE_CURVE('',#61,#77,#79,.T.);
#77 = VERTEX_POINT('',#78);
#78 = CARTESIAN_POINT('',(0.,17.494469147272,0.));
#79 = SURFACE_CURVE('',#80,(#92),.PCURVE_S1.);
#80 = B_SPLINE_CURVE_WITH_KNOTS('',1,(#81,#82,#83,#84,#85,#86,#87,#88,
    #89,#90,#91),.UNSPECIFIED.,.F.,.F.,(2,1,1,1,1,1,1,1,1,1,2),(0.,
    5.452399747854E-02,0.100469735235,0.18378301675,0.210248471613,
    0.256257244065,0.526491850993,0.709325606862,0.738729858597,
    0.956237544015,1.),.UNSPECIFIED.);
#81 = CARTESIAN_POINT('',(150.,12.565716320928,0.));
#82 = CARTESIAN_POINT('',(143.34367202498,17.786239169349,0.));
#83 = CARTESIAN_POINT('',(137.49131359952,13.716283811042,0.));
#84 = CARTESIAN_POINT('',(124.57835911589,13.136180950037,0.));
#85 = CARTESIAN_POINT('',(120.53727392382,13.863925110486,0.));
#86 = CARTESIAN_POINT('',(114.59061042293,17.81251392817,0.));
#87 = CARTESIAN_POINT('',(73.017571971825,12.378703024223,0.));
#88 = CARTESIAN_POINT('',(44.743783390193,14.670096329124,0.));
#89 = CARTESIAN_POINT('',(40.190758530308,14.383399808837,0.));
#90 = CARTESIAN_POINT('',(6.460100867655,15.404688681296,0.));
#91 = CARTESIAN_POINT('',(0.,17.494469147272,0.));
#92 = PCURVE('',#40,#93);
#93 = DEFINITIONAL_REPRESENTATION('',(#94),#106);
#94 = B_SPLINE_CURVE_WITH_KNOTS('',1,(#95,#96,#97,#98,#99,#100,#101,#102
    ,#103,#104,#105),.UNSPECIFIED.,.F.,.F.,(2,1,1,1,1,1,1,1,1,1,2),(0.,
    5.452399747854E-02,0.100469735235,0.18378301675,0.210248471613,
    0.256257244065,0.526491850993,0.709325606862,0.738729858597,
    0.956237544015,1.),.UNSPECIFIED.);
#95 = CARTESIAN_POINT('',(75.716805280174,5.065716320928));
#96 = CARTESIAN_POINT('',(69.060477305158,10.286239169349));
#97 = CARTESIAN_POINT('',(63.2081188797,6.216283811042));
#98 = CARTESIAN_POINT('',(50.295164396065,5.636180950037));
#99 = CARTESIAN_POINT('',(46.254079203994,6.363925110486));
#100 = CARTESIAN_POINT('',(40.307415703104,10.31251392817));
#101 = CARTESIAN_POINT('',(-1.265622748002,4.878703024223));
#102 = CARTESIAN_POINT('',(-29.53941132963,7.170096329124));
#103 = CARTESIAN_POINT('',(-34.09243618951,6.883399808837));
#104 = CARTESIAN_POINT('',(-67.82309385217,7.904688681296));
#105 = CARTESIAN_POINT('',(-74.28319471982,9.994469147272));
#106 = ( GEOMETRIC_REPRESENTATION_CONTEXT(2) 
PARAMETRIC_REPRESENTATION_CONTEXT() REPRESENTATION_CONTEXT('2D SPACE',''
  ) );
#107 = ORIENTED_EDGE('',*,*,#108,.T.);
#108 = EDGE_CURVE('',#77,#22,#109,.T.);
#109 = SURFACE_CURVE('',#110,(#114),.PCURVE_S1.);
#110 = LINE('',#111,#112);
#111 = CARTESIAN_POINT('',(0.,17.494469147272,0.));
#112 = VECTOR('',#113,1.);
#113 = DIRECTION('',(0.,-1.,0.));
#114 = PCURVE('',#40,#115);
#115 = DEFINITIONAL_REPRESENTATION('',(#116),#120);
#116 = LINE('',#117,#118);
#117 = CARTESIAN_POINT('',(-74.28319471982,9.994469147272));
#118 = VECTOR('',#119,1.);
#119 = DIRECTION('',(0.,-1.));
#120 = ( GEOMETRIC_REPRESENTATION_CONTEXT(2) 
PARAMETRIC_REPRESENTATION_CONTEXT() REPRESENTATION_CONTEXT('2D SPACE',''
  ) );
#121 = ( GEOMETRIC_REPRESENTATION_CONTEXT(3) 
GLOBAL_UNCERTAINTY_ASSIGNED_CONTEXT((#125)) GLOBAL_UNIT_ASSIGNED_CONTEXT
((#122,#123,#124)) REPRESENTATION_CONTEXT('Context #1',
  '3D Context with UNIT and UNCERTAINTY') );
#122 = ( LENGTH_UNIT() NAMED_UNIT(*) SI_UNIT(.MILLI.,.METRE.) );
#123 = ( NAMED_UNIT(*) PLANE_ANGLE_UNIT() SI_UNIT($,.RADIAN.) );
#124 = ( NAMED_UNIT(*) SI_UNIT($,.STERADIAN.) SOLID_ANGLE_UNIT() );
#125 = UNCERTAINTY_MEASURE_WITH_UNIT(LENGTH_MEASURE(1.E-07),#122,
  'distance_accuracy_value','confusion accuracy');
#126 = PRODUCT_RELATED_PRODUCT_CATEGORY('part',$,(#7));
ENDSEC;
END-ISO-10303-21;
