ISO-10303-21;
HEADER;
FILE_DESCRIPTION(('Open CASCADE Model'),'2;1');
FILE_NAME('Open CASCADE Shape Model','2026-06-04T12:09:59',('Author'),(
    'Open CASCADE'),'Open CASCADE STEP processor 7.9','Open CASCADE 7.9'
  ,'Unknown');
FILE_SCHEMA(('AUTOMOTIVE_DESIGN { 1 0 10303 214 1 1 1 1 }'));
ENDSEC;
DATA;
#1 = APPLICATION_PROTOCOL_DEFINITION('international standard',
  'automotive_design',2000,#2);
#2 = APPLICATION_CONTEXT(
  'core data for automotive mechanical design processes');
#3 = SHAPE_DEFINITION_REPRESENTATION(#4,#10);
#4 = PRODUCT_DEFINITION_SHAPE('','',#5);
#5 = PRODUCT_DEFINITION('design','',#6,#9);
#6 = PRODUCT_DEFINITION_FORMATION('','',#7);
#7 = PRODUCT('Open CASCADE STEP translator 7.9 77',
  'Open CASCADE STEP translator 7.9 77','',(#8));
#8 = PRODUCT_CONTEXT('',#2,'mechanical');
#9 = PRODUCT_DEFINITION_CONTEXT('part definition',#2,'design');
#10 = MANIFOLD_SURFACE_SHAPE_REPRESENTATION('',(#11,#15),#121);
#11 = AXIS2_PLACEMENT_3D('',#12,#13,#14);
#12 = CARTESIAN_POINT('',(0.,0.,0.));
#13 = DIRECTION('',(0.,0.,1.));
#14 = DIRECTION('',(1.,0.,-0.));
#15 = SHELL_BASED_SURFACE_MODEL('',(#16));
#16 = OPEN_SHELL('',(#17));
#17 = ADVANCED_FACE('',(#18),#40,.T.);
#18 = FACE_BOUND('',#19,.T.);
#19 = EDGE_LOOP('',(#20,#59,#75,#107));
#20 = ORIENTED_EDGE('',*,*,#21,.T.);
#21 = EDGE_CURVE('',#22,#24,#26,.T.);
#22 = VERTEX_POINT('',#23);
#23 = CARTESIAN_POINT('',(0.,-1.142411727093,0.));
#24 = VERTEX_POINT('',#25);
#25 = CARTESIAN_POINT('',(150.,1.796625172071,0.));
#26 = SURFACE_CURVE('',#27,(#39),.PCURVE_S1.);
#27 = B_SPLINE_CURVE_WITH_KNOTS('',1,(#28,#29,#30,#31,#32,#33,#34,#35,
    #36,#37,#38),.UNSPECIFIED.,.F.,.F.,(2,1,1,1,1,1,1,1,1,1,2),(0.,
    3.375738985378E-02,0.140934044054,0.272493205901,0.390532465497,
    0.452872315386,0.566521417546,0.647111291272,0.742133983032,
    0.889586798098,1.),.UNSPECIFIED.);
#28 = CARTESIAN_POINT('',(0.,-1.142411727093,0.));
#29 = CARTESIAN_POINT('',(4.851266006441,-2.897923029215,0.));
#30 = CARTESIAN_POINT('',(20.86854674499,0.528939358194,0.));
#31 = CARTESIAN_POINT('',(40.974614826609,0.579873580505,0.));
#32 = CARTESIAN_POINT('',(58.742663779239,-2.540081806355,0.));
#33 = CARTESIAN_POINT('',(67.359392804562,1.52474647797,0.));
#34 = CARTESIAN_POINT('',(84.483911945997,-1.378891477817,0.));
#35 = CARTESIAN_POINT('',(96.799533367839,-1.527438829309,0.));
#36 = CARTESIAN_POINT('',(110.7769216251,2.413272015327,0.));
#37 = CARTESIAN_POINT('',(133.20219542337,0.190611565838,0.));
#38 = CARTESIAN_POINT('',(150.,1.796625172071,0.));
#39 = PCURVE('',#40,#45);
#40 = PLANE('',#41);
#41 = AXIS2_PLACEMENT_3D('',#42,#43,#44);
#42 = CARTESIAN_POINT('',(73.463748165992,7.5,0.));
#43 = DIRECTION('',(0.,0.,1.));
#44 = DIRECTION('',(1.,0.,-0.));
#45 = DEFINITIONAL_REPRESENTATION('',(#46),#58);
#46 = B_SPLINE_CURVE_WITH_KNOTS('',1,(#47,#48,#49,#50,#51,#52,#53,#54,
    #55,#56,#57),.UNSPECIFIED.,.F.,.F.,(2,1,1,1,1,1,1,1,1,1,2),(0.,
    3.375738985378E-02,0.140934044054,0.272493205901,0.390532465497,
    0.452872315386,0.566521417546,0.647111291272,0.742133983032,
    0.889586798098,1.),.UNSPECIFIED.);
#47 = CARTESIAN_POINT('',(-73.46374816599,-8.642411727093));
#48 = CARTESIAN_POINT('',(-68.61248215955,-10.39792302921));
#49 = CARTESIAN_POINT('',(-52.595201421,-6.971060641806));
#50 = CARTESIAN_POINT('',(-32.48913333938,-6.920126419495));
#51 = CARTESIAN_POINT('',(-14.72108438675,-10.04008180635));
#52 = CARTESIAN_POINT('',(-6.10435536143,-5.97525352203));
#53 = CARTESIAN_POINT('',(11.020163780005,-8.878891477817));
#54 = CARTESIAN_POINT('',(23.335785201847,-9.027438829309));
#55 = CARTESIAN_POINT('',(37.313173459111,-5.086727984673));
#56 = CARTESIAN_POINT('',(59.738447257378,-7.309388434162));
#57 = CARTESIAN_POINT('',(76.536251834008,-5.703374827929));
#58 = ( GEOMETRIC_REPRESENTATION_CONTEXT(2) 
PARAMETRIC_REPRESENTATION_CONTEXT() REPRESENTATION_CONTEXT('2D SPACE',''
  ) );
#59 = ORIENTED_EDGE('',*,*,#60,.T.);
#60 = EDGE_CURVE('',#24,#61,#63,.T.);
#61 = VERTEX_POINT('',#62);
#62 = CARTESIAN_POINT('',(150.,13.203374827929,0.));
#63 = SURFACE_CURVE('',#64,(#68),.PCURVE_S1.);
#64 = LINE('',#65,#66);
#65 = CARTESIAN_POINT('',(150.,1.796625172071,0.));
#66 = VECTOR('',#67,1.);
#67 = DIRECTION('',(0.,1.,0.));
#68 = PCURVE('',#40,#69);
#69 = DEFINITIONAL_REPRESENTATION('',(#70),#74);
#70 = LINE('',#71,#72);
#71 = CARTESIAN_POINT('',(76.536251834008,-5.703374827929));
#72 = VECTOR('',#73,1.);
#73 = DIRECTION('',(0.,1.));
#74 = ( GEOMETRIC_REPRESENTATION_CONTEXT(2) 
PARAMETRIC_REPRESENTATION_CONTEXT() REPRESENTATION_CONTEXT('2D SPACE',''
  ) );
#75 = ORIENTED_EDGE('',*,*,#76,.T.);
#76 = EDGE_CURVE('',#61,#77,#79,.T.);
#77 = VERTEX_POINT('',#78);
#78 = CARTESIAN_POINT('',(0.,16.142411727093,0.));
#79 = SURFACE_CURVE('',#80,(#92),.PCURVE_S1.);
#80 = B_SPLINE_CURVE_WITH_KNOTS('',1,(#81,#82,#83,#84,#85,#86,#87,#88,
    #89,#90,#91),.UNSPECIFIED.,.F.,.F.,(2,1,1,1,1,1,1,1,1,1,2),(0.,
    0.110413201902,0.257866016968,0.352888708728,0.433478582454,
    0.547127684614,0.609467534503,0.727506794099,0.859065955946,
    0.966242610146,1.),.UNSPECIFIED.);
#81 = CARTESIAN_POINT('',(150.,13.203374827929,0.));
#82 = CARTESIAN_POINT('',(133.20219542337,14.809388434162,0.));
#83 = CARTESIAN_POINT('',(110.7769216251,12.586727984673,0.));
#84 = CARTESIAN_POINT('',(96.799533367839,16.527438829309,0.));
#85 = CARTESIAN_POINT('',(84.483911945997,16.378891477817,0.));
#86 = CARTESIAN_POINT('',(67.359392804562,13.47525352203,0.));
#87 = CARTESIAN_POINT('',(58.742663779239,17.540081806355,0.));
#88 = CARTESIAN_POINT('',(40.974614826609,14.420126419495,0.));
#89 = CARTESIAN_POINT('',(20.86854674499,14.471060641806,0.));
#90 = CARTESIAN_POINT('',(4.851266006441,17.897923029215,0.));
#91 = CARTESIAN_POINT('',(0.,16.142411727093,0.));
#92 = PCURVE('',#40,#93);
#93 = DEFINITIONAL_REPRESENTATION('',(#94),#106);
#94 = B_SPLINE_CURVE_WITH_KNOTS('',1,(#95,#96,#97,#98,#99,#100,#101,#102
    ,#103,#104,#105),.UNSPECIFIED.,.F.,.F.,(2,1,1,1,1,1,1,1,1,1,2),(0.,
    0.110413201902,0.257866016968,0.352888708728,0.433478582454,
    0.547127684614,0.609467534503,0.727506794099,0.859065955946,
    0.966242610146,1.),.UNSPECIFIED.);
#95 = CARTESIAN_POINT('',(76.536251834008,5.703374827929));
#96 = CARTESIAN_POINT('',(59.738447257378,7.309388434162));
#97 = CARTESIAN_POINT('',(37.313173459111,5.086727984673));
#98 = CARTESIAN_POINT('',(23.335785201847,9.027438829309));
#99 = CARTESIAN_POINT('',(11.020163780005,8.878891477817));
#100 = CARTESIAN_POINT('',(-6.10435536143,5.97525352203));
#101 = CARTESIAN_POINT('',(-14.72108438675,10.040081806355));
#102 = CARTESIAN_POINT('',(-32.48913333938,6.920126419495));
#103 = CARTESIAN_POINT('',(-52.595201421,6.971060641806));
#104 = CARTESIAN_POINT('',(-68.61248215955,10.397923029215));
#105 = CARTESIAN_POINT('',(-73.46374816599,8.642411727093));
#106 = ( GEOMETRIC_REPRESENTATION_CONTEXT(2) 
PARAMETRIC_REPRESENTATION_CONTEXT() REPRESENTATION_CONTEXT('2D SPACE',''
  ) );
#107 = ORIENTED_EDGE('',*,*,#108,.T.);
#108 = EDGE_CURVE('',#77,#22,#109,.T.);
#109 = SURFACE_CURVE('',#110,(#114),.PCURVE_S1.);
#110 = LINE('',#111,#112);
#111 = CARTESIAN_POINT('',(0.,16.142411727093,0.));
#112 = VECTOR('',#113,1.);
#113 = DIRECTION('',(0.,-1.,0.));
#114 = PCURVE('',#40,#115);
#115 = DEFINITIONAL_REPRESENTATION('',(#116),#120);
#116 = LINE('',#117,#118);
#117 = CARTESIAN_POINT('',(-73.46374816599,8.642411727093));
#118 = VECTOR('',#119,1.);
#119 = DIRECTION('',(0.,-1.));
#120 = ( GEOMETRIC_REPRESENTATION_CONTEXT(2) 
PARAMETRIC_REPRESENTATION_CONTEXT() REPRESENTATION_CONTEXT('2D SPACE',''
  ) );
#121 = ( GEOMETRIC_REPRESENTATION_CONTEXT(3) 
GLOBAL_UNCERTAINTY_ASSIGNED_CONTEXT((#125)) GLOBAL_UNIT_ASSIGNED_CONTEXT
((#122,#123,#124)) REPRESENTATION_CONTEXT('Context #1',
  '3D Context with UNIT and UNCERTAINTY') );
#122 = ( LENGTH_UNIT() NAMED_UNIT(*) SI_UNIT(.MILLI.,.METRE.) );
#123 = ( NAMED_UNIT(*) PLANE_ANGLE_UNIT() SI_UNIT($,.RADIAN.) );
#124 = ( NAMED_UNIT(*) SI_UNIT($,.STERADIAN.) SOLID_ANGLE_UNIT() );
#125 = UNCERTAINTY_MEASURE_WITH_UNIT(LENGTH_MEASURE(1.E-07),#122,
  'distance_accuracy_value','confusion accuracy');
#126 = PRODUCT_RELATED_PRODUCT_CATEGORY('part',$,(#7));
ENDSEC;
END-ISO-10303-21;
