ISO-10303-21;
HEADER;
FILE_DESCRIPTION(('Open CASCADE Model'),'2;1');
FILE_NAME('Open CASCADE Shape Model','2026-06-01T11:13:06',('Author'),(
    'Open CASCADE'),'Open CASCADE STEP processor 7.9','Open CASCADE 7.9'
  ,'Unknown');
FILE_SCHEMA(('AUTOMOTIVE_DESIGN { 1 0 10303 214 1 1 1 1 }'));
ENDSEC;
DATA;
#1 = APPLICATION_PROTOCOL_DEFINITION('international standard',
  'automotive_design',2000,#2);
#2 = APPLICATION_CONTEXT(
  'core data for automotive mechanical design processes');
#3 = SHAPE_DEFINITION_REPRESENTATION(#4,#10);
#4 = PRODUCT_DEFINITION_SHAPE('','',#5);
#5 = PRODUCT_DEFINITION('design','',#6,#9);
#6 = PRODUCT_DEFINITION_FORMATION('','',#7);
#7 = PRODUCT('Open CASCADE STEP translator 7.9 39',
  'Open CASCADE STEP translator 7.9 39','',(#8));
#8 = PRODUCT_CONTEXT('',#2,'mechanical');
#9 = PRODUCT_DEFINITION_CONTEXT('part definition',#2,'design');
#10 = MANIFOLD_SURFACE_SHAPE_REPRESENTATION('',(#11,#15),#121);
#11 = AXIS2_PLACEMENT_3D('',#12,#13,#14);
#12 = CARTESIAN_POINT('',(0.,0.,0.));
#13 = DIRECTION('',(0.,0.,1.));
#14 = DIRECTION('',(1.,0.,-0.));
#15 = SHELL_BASED_SURFACE_MODEL('',(#16));
#16 = OPEN_SHELL('',(#17));
#17 = ADVANCED_FACE('',(#18),#40,.T.);
#18 = FACE_BOUND('',#19,.T.);
#19 = EDGE_LOOP('',(#20,#59,#75,#107));
#20 = ORIENTED_EDGE('',*,*,#21,.T.);
#21 = EDGE_CURVE('',#22,#24,#26,.T.);
#22 = VERTEX_POINT('',#23);
#23 = CARTESIAN_POINT('',(0.,4.336555104771,0.));
#24 = VERTEX_POINT('',#25);
#25 = CARTESIAN_POINT('',(150.,-0.602440157874,0.));
#26 = SURFACE_CURVE('',#27,(#39),.PCURVE_S1.);
#27 = B_SPLINE_CURVE_WITH_KNOTS('',1,(#28,#29,#30,#31,#32,#33,#34,#35,
    #36,#37,#38),.UNSPECIFIED.,.F.,.F.,(2,1,1,1,1,1,1,1,1,1,2),(0.,
    0.26508538511,0.425136064458,0.554113369382,0.622533290727,
    0.663227112984,0.689854702241,0.839414061243,0.872633076511,
    0.910626549863,1.),.UNSPECIFIED.);
#28 = CARTESIAN_POINT('',(0.,4.336555104771,0.));
#29 = CARTESIAN_POINT('',(40.681258252423,-0.861423972172,0.));
#30 = CARTESIAN_POINT('',(65.224896956179,2.418475142818,0.));
#31 = CARTESIAN_POINT('',(84.322777886352,-3.364996481134,0.));
#32 = CARTESIAN_POINT('',(93.316776089497,2.217019440944,0.));
#33 = CARTESIAN_POINT('',(98.730472352618,-0.996931199119,0.));
#34 = CARTESIAN_POINT('',(102.81776524791,-0.481867560807,0.));
#35 = CARTESIAN_POINT('',(125.91306196761,0.934501499467,0.));
#36 = CARTESIAN_POINT('',(130.38484333378,-1.598586872398,0.));
#37 = CARTESIAN_POINT('',(136.24690965602,-2.031926712439,0.));
#38 = CARTESIAN_POINT('',(150.,-0.602440157874,0.));
#39 = PCURVE('',#40,#45);
#40 = PLANE('',#41);
#41 = AXIS2_PLACEMENT_3D('',#42,#43,#44);
#42 = CARTESIAN_POINT('',(77.602061459728,7.5,0.));
#43 = DIRECTION('',(0.,0.,1.));
#44 = DIRECTION('',(1.,0.,-0.));
#45 = DEFINITIONAL_REPRESENTATION('',(#46),#58);
#46 = B_SPLINE_CURVE_WITH_KNOTS('',1,(#47,#48,#49,#50,#51,#52,#53,#54,
    #55,#56,#57),.UNSPECIFIED.,.F.,.F.,(2,1,1,1,1,1,1,1,1,1,2),(0.,
    0.26508538511,0.425136064458,0.554113369382,0.622533290727,
    0.663227112984,0.689854702241,0.839414061243,0.872633076511,
    0.910626549863,1.),.UNSPECIFIED.);
#47 = CARTESIAN_POINT('',(-77.60206145972,-3.163444895229));
#48 = CARTESIAN_POINT('',(-36.9208032073,-8.361423972172));
#49 = CARTESIAN_POINT('',(-12.37716450354,-5.081524857182));
#50 = CARTESIAN_POINT('',(6.720716426624,-10.86499648113));
#51 = CARTESIAN_POINT('',(15.714714629769,-5.282980559056));
#52 = CARTESIAN_POINT('',(21.12841089289,-8.496931199119));
#53 = CARTESIAN_POINT('',(25.215703788182,-7.981867560807));
#54 = CARTESIAN_POINT('',(48.311000507891,-6.565498500533));
#55 = CARTESIAN_POINT('',(52.782781874058,-9.098586872398));
#56 = CARTESIAN_POINT('',(58.644848196301,-9.531926712439));
#57 = CARTESIAN_POINT('',(72.397938540272,-8.102440157874));
#58 = ( GEOMETRIC_REPRESENTATION_CONTEXT(2) 
PARAMETRIC_REPRESENTATION_CONTEXT() REPRESENTATION_CONTEXT('2D SPACE',''
  ) );
#59 = ORIENTED_EDGE('',*,*,#60,.T.);
#60 = EDGE_CURVE('',#24,#61,#63,.T.);
#61 = VERTEX_POINT('',#62);
#62 = CARTESIAN_POINT('',(150.,15.602440157874,0.));
#63 = SURFACE_CURVE('',#64,(#68),.PCURVE_S1.);
#64 = LINE('',#65,#66);
#65 = CARTESIAN_POINT('',(150.,-0.602440157874,0.));
#66 = VECTOR('',#67,1.);
#67 = DIRECTION('',(0.,1.,0.));
#68 = PCURVE('',#40,#69);
#69 = DEFINITIONAL_REPRESENTATION('',(#70),#74);
#70 = LINE('',#71,#72);
#71 = CARTESIAN_POINT('',(72.397938540272,-8.102440157874));
#72 = VECTOR('',#73,1.);
#73 = DIRECTION('',(0.,1.));
#74 = ( GEOMETRIC_REPRESENTATION_CONTEXT(2) 
PARAMETRIC_REPRESENTATION_CONTEXT() REPRESENTATION_CONTEXT('2D SPACE',''
  ) );
#75 = ORIENTED_EDGE('',*,*,#76,.T.);
#76 = EDGE_CURVE('',#61,#77,#79,.T.);
#77 = VERTEX_POINT('',#78);
#78 = CARTESIAN_POINT('',(0.,10.663444895229,0.));
#79 = SURFACE_CURVE('',#80,(#92),.PCURVE_S1.);
#80 = B_SPLINE_CURVE_WITH_KNOTS('',1,(#81,#82,#83,#84,#85,#86,#87,#88,
    #89,#90,#91),.UNSPECIFIED.,.F.,.F.,(2,1,1,1,1,1,1,1,1,1,2),(0.,
    8.937345013708E-02,0.127366923489,0.160585938757,0.310145297759,
    0.336772887016,0.377466709273,0.445886630618,0.574863935542,
    0.73491461489,1.),.UNSPECIFIED.);
#81 = CARTESIAN_POINT('',(150.,15.602440157874,0.));
#82 = CARTESIAN_POINT('',(136.24690965602,17.031926712439,0.));
#83 = CARTESIAN_POINT('',(130.38484333378,16.598586872398,0.));
#84 = CARTESIAN_POINT('',(125.91306196761,14.065498500533,0.));
#85 = CARTESIAN_POINT('',(102.81776524791,15.481867560807,0.));
#86 = CARTESIAN_POINT('',(98.730472352618,15.996931199119,0.));
#87 = CARTESIAN_POINT('',(93.316776089497,12.782980559056,0.));
#88 = CARTESIAN_POINT('',(84.322777886352,18.364996481134,0.));
#89 = CARTESIAN_POINT('',(65.224896956179,12.581524857182,0.));
#90 = CARTESIAN_POINT('',(40.681258252423,15.861423972172,0.));
#91 = CARTESIAN_POINT('',(0.,10.663444895229,0.));
#92 = PCURVE('',#40,#93);
#93 = DEFINITIONAL_REPRESENTATION('',(#94),#106);
#94 = B_SPLINE_CURVE_WITH_KNOTS('',1,(#95,#96,#97,#98,#99,#100,#101,#102
    ,#103,#104,#105),.UNSPECIFIED.,.F.,.F.,(2,1,1,1,1,1,1,1,1,1,2),(0.,
    8.937345013708E-02,0.127366923489,0.160585938757,0.310145297759,
    0.336772887016,0.377466709273,0.445886630618,0.574863935542,
    0.73491461489,1.),.UNSPECIFIED.);
#95 = CARTESIAN_POINT('',(72.397938540272,8.102440157874));
#96 = CARTESIAN_POINT('',(58.644848196301,9.531926712439));
#97 = CARTESIAN_POINT('',(52.782781874058,9.098586872398));
#98 = CARTESIAN_POINT('',(48.311000507891,6.565498500533));
#99 = CARTESIAN_POINT('',(25.215703788182,7.981867560807));
#100 = CARTESIAN_POINT('',(21.12841089289,8.496931199119));
#101 = CARTESIAN_POINT('',(15.714714629769,5.282980559056));
#102 = CARTESIAN_POINT('',(6.720716426624,10.864996481134));
#103 = CARTESIAN_POINT('',(-12.37716450354,5.081524857182));
#104 = CARTESIAN_POINT('',(-36.9208032073,8.361423972172));
#105 = CARTESIAN_POINT('',(-77.60206145972,3.163444895229));
#106 = ( GEOMETRIC_REPRESENTATION_CONTEXT(2) 
PARAMETRIC_REPRESENTATION_CONTEXT() REPRESENTATION_CONTEXT('2D SPACE',''
  ) );
#107 = ORIENTED_EDGE('',*,*,#108,.T.);
#108 = EDGE_CURVE('',#77,#22,#109,.T.);
#109 = SURFACE_CURVE('',#110,(#114),.PCURVE_S1.);
#110 = LINE('',#111,#112);
#111 = CARTESIAN_POINT('',(0.,10.663444895229,0.));
#112 = VECTOR('',#113,1.);
#113 = DIRECTION('',(0.,-1.,0.));
#114 = PCURVE('',#40,#115);
#115 = DEFINITIONAL_REPRESENTATION('',(#116),#120);
#116 = LINE('',#117,#118);
#117 = CARTESIAN_POINT('',(-77.60206145972,3.163444895229));
#118 = VECTOR('',#119,1.);
#119 = DIRECTION('',(0.,-1.));
#120 = ( GEOMETRIC_REPRESENTATION_CONTEXT(2) 
PARAMETRIC_REPRESENTATION_CONTEXT() REPRESENTATION_CONTEXT('2D SPACE',''
  ) );
#121 = ( GEOMETRIC_REPRESENTATION_CONTEXT(3) 
GLOBAL_UNCERTAINTY_ASSIGNED_CONTEXT((#125)) GLOBAL_UNIT_ASSIGNED_CONTEXT
((#122,#123,#124)) REPRESENTATION_CONTEXT('Context #1',
  '3D Context with UNIT and UNCERTAINTY') );
#122 = ( LENGTH_UNIT() NAMED_UNIT(*) SI_UNIT(.MILLI.,.METRE.) );
#123 = ( NAMED_UNIT(*) PLANE_ANGLE_UNIT() SI_UNIT($,.RADIAN.) );
#124 = ( NAMED_UNIT(*) SI_UNIT($,.STERADIAN.) SOLID_ANGLE_UNIT() );
#125 = UNCERTAINTY_MEASURE_WITH_UNIT(LENGTH_MEASURE(1.E-07),#122,
  'distance_accuracy_value','confusion accuracy');
#126 = PRODUCT_RELATED_PRODUCT_CATEGORY('part',$,(#7));
ENDSEC;
END-ISO-10303-21;
