ISO-10303-21;
HEADER;
FILE_DESCRIPTION(('Open CASCADE Model'),'2;1');
FILE_NAME('Open CASCADE Shape Model','2026-06-04T12:09:59',('Author'),(
    'Open CASCADE'),'Open CASCADE STEP processor 7.9','Open CASCADE 7.9'
  ,'Unknown');
FILE_SCHEMA(('AUTOMOTIVE_DESIGN { 1 0 10303 214 1 1 1 1 }'));
ENDSEC;
DATA;
#1 = APPLICATION_PROTOCOL_DEFINITION('international standard',
  'automotive_design',2000,#2);
#2 = APPLICATION_CONTEXT(
  'core data for automotive mechanical design processes');
#3 = SHAPE_DEFINITION_REPRESENTATION(#4,#10);
#4 = PRODUCT_DEFINITION_SHAPE('','',#5);
#5 = PRODUCT_DEFINITION('design','',#6,#9);
#6 = PRODUCT_DEFINITION_FORMATION('','',#7);
#7 = PRODUCT('Open CASCADE STEP translator 7.9 54',
  'Open CASCADE STEP translator 7.9 54','',(#8));
#8 = PRODUCT_CONTEXT('',#2,'mechanical');
#9 = PRODUCT_DEFINITION_CONTEXT('part definition',#2,'design');
#10 = MANIFOLD_SURFACE_SHAPE_REPRESENTATION('',(#11,#15),#121);
#11 = AXIS2_PLACEMENT_3D('',#12,#13,#14);
#12 = CARTESIAN_POINT('',(0.,0.,0.));
#13 = DIRECTION('',(0.,0.,1.));
#14 = DIRECTION('',(1.,0.,-0.));
#15 = SHELL_BASED_SURFACE_MODEL('',(#16));
#16 = OPEN_SHELL('',(#17));
#17 = ADVANCED_FACE('',(#18),#40,.T.);
#18 = FACE_BOUND('',#19,.T.);
#19 = EDGE_LOOP('',(#20,#59,#75,#107));
#20 = ORIENTED_EDGE('',*,*,#21,.T.);
#21 = EDGE_CURVE('',#22,#24,#26,.T.);
#22 = VERTEX_POINT('',#23);
#23 = CARTESIAN_POINT('',(0.,0.500004011761,0.));
#24 = VERTEX_POINT('',#25);
#25 = CARTESIAN_POINT('',(150.,-0.203040079644,0.));
#26 = SURFACE_CURVE('',#27,(#39),.PCURVE_S1.);
#27 = B_SPLINE_CURVE_WITH_KNOTS('',1,(#28,#29,#30,#31,#32,#33,#34,#35,
    #36,#37,#38),.UNSPECIFIED.,.F.,.F.,(2,1,1,1,1,1,1,1,1,1,2),(0.,
    0.140669898596,0.208617210535,0.331660011128,0.408554258973,
    0.449560445577,0.504558608491,0.588983523306,0.664758020663,
    0.839372231157,1.),.UNSPECIFIED.);
#28 = CARTESIAN_POINT('',(0.,0.500004011761,0.));
#29 = CARTESIAN_POINT('',(21.670904223193,1.070725906555,0.));
#30 = CARTESIAN_POINT('',(31.82348302261,-1.492924678002,0.));
#31 = CARTESIAN_POINT('',(50.782793199275,-1.808336603056,0.));
#32 = CARTESIAN_POINT('',(62.485835254002,5.24553216518E-02,0.));
#33 = CARTESIAN_POINT('',(68.327377470219,-2.358186117218,0.));
#34 = CARTESIAN_POINT('',(75.51309479997,2.136547823529,0.));
#35 = CARTESIAN_POINT('',(87.753148804349,-2.274412677954,0.));
#36 = CARTESIAN_POINT('',(98.443988066636,2.423428602169,0.));
#37 = CARTESIAN_POINT('',(125.35130474158,2.078846867672,0.));
#38 = CARTESIAN_POINT('',(150.,-0.203040079644,0.));
#39 = PCURVE('',#40,#45);
#40 = PLANE('',#41);
#41 = AXIS2_PLACEMENT_3D('',#42,#43,#44);
#42 = CARTESIAN_POINT('',(75.326868730084,7.5,0.));
#43 = DIRECTION('',(0.,0.,1.));
#44 = DIRECTION('',(1.,0.,-0.));
#45 = DEFINITIONAL_REPRESENTATION('',(#46),#58);
#46 = B_SPLINE_CURVE_WITH_KNOTS('',1,(#47,#48,#49,#50,#51,#52,#53,#54,
    #55,#56,#57),.UNSPECIFIED.,.F.,.F.,(2,1,1,1,1,1,1,1,1,1,2),(0.,
    0.140669898596,0.208617210535,0.331660011128,0.408554258973,
    0.449560445577,0.504558608491,0.588983523306,0.664758020663,
    0.839372231157,1.),.UNSPECIFIED.);
#47 = CARTESIAN_POINT('',(-75.32686873008,-6.999995988239));
#48 = CARTESIAN_POINT('',(-53.65596450689,-6.429274093445));
#49 = CARTESIAN_POINT('',(-43.50338570747,-8.992924678002));
#50 = CARTESIAN_POINT('',(-24.5440755308,-9.308336603056));
#51 = CARTESIAN_POINT('',(-12.84103347608,-7.447544678348));
#52 = CARTESIAN_POINT('',(-6.999491259866,-9.858186117218));
#53 = CARTESIAN_POINT('',(0.186226069886,-5.363452176471));
#54 = CARTESIAN_POINT('',(12.426280074264,-9.774412677954));
#55 = CARTESIAN_POINT('',(23.117119336551,-5.076571397831));
#56 = CARTESIAN_POINT('',(50.024436011505,-5.421153132328));
#57 = CARTESIAN_POINT('',(74.673131269916,-7.703040079644));
#58 = ( GEOMETRIC_REPRESENTATION_CONTEXT(2) 
PARAMETRIC_REPRESENTATION_CONTEXT() REPRESENTATION_CONTEXT('2D SPACE',''
  ) );
#59 = ORIENTED_EDGE('',*,*,#60,.T.);
#60 = EDGE_CURVE('',#24,#61,#63,.T.);
#61 = VERTEX_POINT('',#62);
#62 = CARTESIAN_POINT('',(150.,15.203040079644,0.));
#63 = SURFACE_CURVE('',#64,(#68),.PCURVE_S1.);
#64 = LINE('',#65,#66);
#65 = CARTESIAN_POINT('',(150.,-0.203040079644,0.));
#66 = VECTOR('',#67,1.);
#67 = DIRECTION('',(0.,1.,0.));
#68 = PCURVE('',#40,#69);
#69 = DEFINITIONAL_REPRESENTATION('',(#70),#74);
#70 = LINE('',#71,#72);
#71 = CARTESIAN_POINT('',(74.673131269916,-7.703040079644));
#72 = VECTOR('',#73,1.);
#73 = DIRECTION('',(0.,1.));
#74 = ( GEOMETRIC_REPRESENTATION_CONTEXT(2) 
PARAMETRIC_REPRESENTATION_CONTEXT() REPRESENTATION_CONTEXT('2D SPACE',''
  ) );
#75 = ORIENTED_EDGE('',*,*,#76,.T.);
#76 = EDGE_CURVE('',#61,#77,#79,.T.);
#77 = VERTEX_POINT('',#78);
#78 = CARTESIAN_POINT('',(0.,14.499995988239,0.));
#79 = SURFACE_CURVE('',#80,(#92),.PCURVE_S1.);
#80 = B_SPLINE_CURVE_WITH_KNOTS('',1,(#81,#82,#83,#84,#85,#86,#87,#88,
    #89,#90,#91),.UNSPECIFIED.,.F.,.F.,(2,1,1,1,1,1,1,1,1,1,2),(0.,
    0.160627768843,0.335241979337,0.411016476694,0.495441391509,
    0.550439554423,0.591445741027,0.668339988872,0.791382789465,
    0.859330101404,1.),.UNSPECIFIED.);
#81 = CARTESIAN_POINT('',(150.,15.203040079644,0.));
#82 = CARTESIAN_POINT('',(125.35130474158,12.921153132328,0.));
#83 = CARTESIAN_POINT('',(98.443988066636,12.576571397831,0.));
#84 = CARTESIAN_POINT('',(87.753148804349,17.274412677954,0.));
#85 = CARTESIAN_POINT('',(75.51309479997,12.863452176471,0.));
#86 = CARTESIAN_POINT('',(68.327377470219,17.358186117218,0.));
#87 = CARTESIAN_POINT('',(62.485835254002,14.947544678348,0.));
#88 = CARTESIAN_POINT('',(50.782793199275,16.808336603056,0.));
#89 = CARTESIAN_POINT('',(31.82348302261,16.492924678002,0.));
#90 = CARTESIAN_POINT('',(21.670904223193,13.929274093445,0.));
#91 = CARTESIAN_POINT('',(0.,14.499995988239,0.));
#92 = PCURVE('',#40,#93);
#93 = DEFINITIONAL_REPRESENTATION('',(#94),#106);
#94 = B_SPLINE_CURVE_WITH_KNOTS('',1,(#95,#96,#97,#98,#99,#100,#101,#102
    ,#103,#104,#105),.UNSPECIFIED.,.F.,.F.,(2,1,1,1,1,1,1,1,1,1,2),(0.,
    0.160627768843,0.335241979337,0.411016476694,0.495441391509,
    0.550439554423,0.591445741027,0.668339988872,0.791382789465,
    0.859330101404,1.),.UNSPECIFIED.);
#95 = CARTESIAN_POINT('',(74.673131269916,7.703040079644));
#96 = CARTESIAN_POINT('',(50.024436011505,5.421153132328));
#97 = CARTESIAN_POINT('',(23.117119336551,5.076571397831));
#98 = CARTESIAN_POINT('',(12.426280074264,9.774412677954));
#99 = CARTESIAN_POINT('',(0.186226069886,5.363452176471));
#100 = CARTESIAN_POINT('',(-6.999491259866,9.858186117218));
#101 = CARTESIAN_POINT('',(-12.84103347608,7.447544678348));
#102 = CARTESIAN_POINT('',(-24.5440755308,9.308336603056));
#103 = CARTESIAN_POINT('',(-43.50338570747,8.992924678002));
#104 = CARTESIAN_POINT('',(-53.65596450689,6.429274093445));
#105 = CARTESIAN_POINT('',(-75.32686873008,6.999995988239));
#106 = ( GEOMETRIC_REPRESENTATION_CONTEXT(2) 
PARAMETRIC_REPRESENTATION_CONTEXT() REPRESENTATION_CONTEXT('2D SPACE',''
  ) );
#107 = ORIENTED_EDGE('',*,*,#108,.T.);
#108 = EDGE_CURVE('',#77,#22,#109,.T.);
#109 = SURFACE_CURVE('',#110,(#114),.PCURVE_S1.);
#110 = LINE('',#111,#112);
#111 = CARTESIAN_POINT('',(0.,14.499995988239,0.));
#112 = VECTOR('',#113,1.);
#113 = DIRECTION('',(0.,-1.,0.));
#114 = PCURVE('',#40,#115);
#115 = DEFINITIONAL_REPRESENTATION('',(#116),#120);
#116 = LINE('',#117,#118);
#117 = CARTESIAN_POINT('',(-75.32686873008,6.999995988239));
#118 = VECTOR('',#119,1.);
#119 = DIRECTION('',(0.,-1.));
#120 = ( GEOMETRIC_REPRESENTATION_CONTEXT(2) 
PARAMETRIC_REPRESENTATION_CONTEXT() REPRESENTATION_CONTEXT('2D SPACE',''
  ) );
#121 = ( GEOMETRIC_REPRESENTATION_CONTEXT(3) 
GLOBAL_UNCERTAINTY_ASSIGNED_CONTEXT((#125)) GLOBAL_UNIT_ASSIGNED_CONTEXT
((#122,#123,#124)) REPRESENTATION_CONTEXT('Context #1',
  '3D Context with UNIT and UNCERTAINTY') );
#122 = ( LENGTH_UNIT() NAMED_UNIT(*) SI_UNIT(.MILLI.,.METRE.) );
#123 = ( NAMED_UNIT(*) PLANE_ANGLE_UNIT() SI_UNIT($,.RADIAN.) );
#124 = ( NAMED_UNIT(*) SI_UNIT($,.STERADIAN.) SOLID_ANGLE_UNIT() );
#125 = UNCERTAINTY_MEASURE_WITH_UNIT(LENGTH_MEASURE(1.E-07),#122,
  'distance_accuracy_value','confusion accuracy');
#126 = PRODUCT_RELATED_PRODUCT_CATEGORY('part',$,(#7));
ENDSEC;
END-ISO-10303-21;
