ISO-10303-21;
HEADER;
FILE_DESCRIPTION(('Open CASCADE Model'),'2;1');
FILE_NAME('Open CASCADE Shape Model','2026-06-01T11:13:06',('Author'),(
    'Open CASCADE'),'Open CASCADE STEP processor 7.9','Open CASCADE 7.9'
  ,'Unknown');
FILE_SCHEMA(('AUTOMOTIVE_DESIGN { 1 0 10303 214 1 1 1 1 }'));
ENDSEC;
DATA;
#1 = APPLICATION_PROTOCOL_DEFINITION('international standard',
  'automotive_design',2000,#2);
#2 = APPLICATION_CONTEXT(
  'core data for automotive mechanical design processes');
#3 = SHAPE_DEFINITION_REPRESENTATION(#4,#10);
#4 = PRODUCT_DEFINITION_SHAPE('','',#5);
#5 = PRODUCT_DEFINITION('design','',#6,#9);
#6 = PRODUCT_DEFINITION_FORMATION('','',#7);
#7 = PRODUCT('Open CASCADE STEP translator 7.9 35',
  'Open CASCADE STEP translator 7.9 35','',(#8));
#8 = PRODUCT_CONTEXT('',#2,'mechanical');
#9 = PRODUCT_DEFINITION_CONTEXT('part definition',#2,'design');
#10 = MANIFOLD_SURFACE_SHAPE_REPRESENTATION('',(#11,#15),#121);
#11 = AXIS2_PLACEMENT_3D('',#12,#13,#14);
#12 = CARTESIAN_POINT('',(0.,0.,0.));
#13 = DIRECTION('',(0.,0.,1.));
#14 = DIRECTION('',(1.,0.,-0.));
#15 = SHELL_BASED_SURFACE_MODEL('',(#16));
#16 = OPEN_SHELL('',(#17));
#17 = ADVANCED_FACE('',(#18),#40,.T.);
#18 = FACE_BOUND('',#19,.T.);
#19 = EDGE_LOOP('',(#20,#59,#75,#107));
#20 = ORIENTED_EDGE('',*,*,#21,.T.);
#21 = EDGE_CURVE('',#22,#24,#26,.T.);
#22 = VERTEX_POINT('',#23);
#23 = CARTESIAN_POINT('',(0.,3.491366661012,0.));
#24 = VERTEX_POINT('',#25);
#25 = CARTESIAN_POINT('',(150.,1.59758603129,0.));
#26 = SURFACE_CURVE('',#27,(#39),.PCURVE_S1.);
#27 = B_SPLINE_CURVE_WITH_KNOTS('',1,(#28,#29,#30,#31,#32,#33,#34,#35,
    #36,#37,#38),.UNSPECIFIED.,.F.,.F.,(2,1,1,1,1,1,1,1,1,1,2),(0.,
    5.324468307427E-02,0.170020491928,0.241953205998,0.284440514007,
    0.629696390654,0.74194699814,0.784761552116,0.914738889086,
    0.980515049436,1.),.UNSPECIFIED.);
#28 = CARTESIAN_POINT('',(0.,3.491366661012,0.));
#29 = CARTESIAN_POINT('',(5.041759015726,-3.264881073668,0.));
#30 = CARTESIAN_POINT('',(21.826091014234,4.488902437393,0.));
#31 = CARTESIAN_POINT('',(32.261199213877,-7.350620231588E-02,0.));
#32 = CARTESIAN_POINT('',(38.985995096798,9.448194143513E-02,0.));
#33 = CARTESIAN_POINT('',(93.631241068777,1.502152550904,0.));
#34 = CARTESIAN_POINT('',(111.38155459658,0.618056818682,0.));
#35 = CARTESIAN_POINT('',(117.38743481135,-2.525230237739,0.));
#36 = CARTESIAN_POINT('',(137.95914024626,-3.070833355935,0.));
#37 = CARTESIAN_POINT('',(146.96612261965,2.156863109263,0.));
#38 = CARTESIAN_POINT('',(150.,1.59758603129,0.));
#39 = PCURVE('',#40,#45);
#40 = PLANE('',#41);
#41 = AXIS2_PLACEMENT_3D('',#42,#43,#44);
#42 = CARTESIAN_POINT('',(74.260844132521,7.5,0.));
#43 = DIRECTION('',(0.,0.,1.));
#44 = DIRECTION('',(1.,0.,-0.));
#45 = DEFINITIONAL_REPRESENTATION('',(#46),#58);
#46 = B_SPLINE_CURVE_WITH_KNOTS('',1,(#47,#48,#49,#50,#51,#52,#53,#54,
    #55,#56,#57),.UNSPECIFIED.,.F.,.F.,(2,1,1,1,1,1,1,1,1,1,2),(0.,
    5.324468307427E-02,0.170020491928,0.241953205998,0.284440514007,
    0.629696390654,0.74194699814,0.784761552116,0.914738889086,
    0.980515049436,1.),.UNSPECIFIED.);
#47 = CARTESIAN_POINT('',(-74.26084413252,-4.008633338988));
#48 = CARTESIAN_POINT('',(-69.21908511679,-10.76488107366));
#49 = CARTESIAN_POINT('',(-52.43475311828,-3.011097562607));
#50 = CARTESIAN_POINT('',(-41.99964491864,-7.573506202316));
#51 = CARTESIAN_POINT('',(-35.27484903572,-7.405518058565));
#52 = CARTESIAN_POINT('',(19.370396936256,-5.997847449096));
#53 = CARTESIAN_POINT('',(37.12071046406,-6.881943181318));
#54 = CARTESIAN_POINT('',(43.126590678831,-10.02523023773));
#55 = CARTESIAN_POINT('',(63.698296113747,-10.57083335593));
#56 = CARTESIAN_POINT('',(72.705278487129,-5.343136890737));
#57 = CARTESIAN_POINT('',(75.739155867479,-5.90241396871));
#58 = ( GEOMETRIC_REPRESENTATION_CONTEXT(2) 
PARAMETRIC_REPRESENTATION_CONTEXT() REPRESENTATION_CONTEXT('2D SPACE',''
  ) );
#59 = ORIENTED_EDGE('',*,*,#60,.T.);
#60 = EDGE_CURVE('',#24,#61,#63,.T.);
#61 = VERTEX_POINT('',#62);
#62 = CARTESIAN_POINT('',(150.,13.40241396871,0.));
#63 = SURFACE_CURVE('',#64,(#68),.PCURVE_S1.);
#64 = LINE('',#65,#66);
#65 = CARTESIAN_POINT('',(150.,1.59758603129,0.));
#66 = VECTOR('',#67,1.);
#67 = DIRECTION('',(0.,1.,0.));
#68 = PCURVE('',#40,#69);
#69 = DEFINITIONAL_REPRESENTATION('',(#70),#74);
#70 = LINE('',#71,#72);
#71 = CARTESIAN_POINT('',(75.739155867479,-5.90241396871));
#72 = VECTOR('',#73,1.);
#73 = DIRECTION('',(0.,1.));
#74 = ( GEOMETRIC_REPRESENTATION_CONTEXT(2) 
PARAMETRIC_REPRESENTATION_CONTEXT() REPRESENTATION_CONTEXT('2D SPACE',''
  ) );
#75 = ORIENTED_EDGE('',*,*,#76,.T.);
#76 = EDGE_CURVE('',#61,#77,#79,.T.);
#77 = VERTEX_POINT('',#78);
#78 = CARTESIAN_POINT('',(0.,11.508633338988,0.));
#79 = SURFACE_CURVE('',#80,(#92),.PCURVE_S1.);
#80 = B_SPLINE_CURVE_WITH_KNOTS('',1,(#81,#82,#83,#84,#85,#86,#87,#88,
    #89,#90,#91),.UNSPECIFIED.,.F.,.F.,(2,1,1,1,1,1,1,1,1,1,2),(0.,
    1.948495056402E-02,8.52611109139E-02,0.215238447884,0.25805300186,
    0.370303609346,0.715559485993,0.758046794002,0.829979508072,
    0.946755316926,1.),.UNSPECIFIED.);
#81 = CARTESIAN_POINT('',(150.,13.40241396871,0.));
#82 = CARTESIAN_POINT('',(146.96612261965,12.843136890737,0.));
#83 = CARTESIAN_POINT('',(137.95914024626,18.070833355935,0.));
#84 = CARTESIAN_POINT('',(117.38743481135,17.525230237739,0.));
#85 = CARTESIAN_POINT('',(111.38155459658,14.381943181318,0.));
#86 = CARTESIAN_POINT('',(93.631241068777,13.497847449096,0.));
#87 = CARTESIAN_POINT('',(38.985995096798,14.905518058565,0.));
#88 = CARTESIAN_POINT('',(32.261199213877,15.073506202316,0.));
#89 = CARTESIAN_POINT('',(21.826091014234,10.511097562607,0.));
#90 = CARTESIAN_POINT('',(5.041759015726,18.264881073668,0.));
#91 = CARTESIAN_POINT('',(0.,11.508633338988,0.));
#92 = PCURVE('',#40,#93);
#93 = DEFINITIONAL_REPRESENTATION('',(#94),#106);
#94 = B_SPLINE_CURVE_WITH_KNOTS('',1,(#95,#96,#97,#98,#99,#100,#101,#102
    ,#103,#104,#105),.UNSPECIFIED.,.F.,.F.,(2,1,1,1,1,1,1,1,1,1,2),(0.,
    1.948495056402E-02,8.52611109139E-02,0.215238447884,0.25805300186,
    0.370303609346,0.715559485993,0.758046794002,0.829979508072,
    0.946755316926,1.),.UNSPECIFIED.);
#95 = CARTESIAN_POINT('',(75.739155867479,5.90241396871));
#96 = CARTESIAN_POINT('',(72.705278487129,5.343136890737));
#97 = CARTESIAN_POINT('',(63.698296113747,10.570833355935));
#98 = CARTESIAN_POINT('',(43.126590678831,10.025230237739));
#99 = CARTESIAN_POINT('',(37.12071046406,6.881943181318));
#100 = CARTESIAN_POINT('',(19.370396936256,5.997847449096));
#101 = CARTESIAN_POINT('',(-35.27484903572,7.405518058565));
#102 = CARTESIAN_POINT('',(-41.99964491864,7.573506202316));
#103 = CARTESIAN_POINT('',(-52.43475311828,3.011097562607));
#104 = CARTESIAN_POINT('',(-69.21908511679,10.764881073668));
#105 = CARTESIAN_POINT('',(-74.26084413252,4.008633338988));
#106 = ( GEOMETRIC_REPRESENTATION_CONTEXT(2) 
PARAMETRIC_REPRESENTATION_CONTEXT() REPRESENTATION_CONTEXT('2D SPACE',''
  ) );
#107 = ORIENTED_EDGE('',*,*,#108,.T.);
#108 = EDGE_CURVE('',#77,#22,#109,.T.);
#109 = SURFACE_CURVE('',#110,(#114),.PCURVE_S1.);
#110 = LINE('',#111,#112);
#111 = CARTESIAN_POINT('',(0.,11.508633338988,0.));
#112 = VECTOR('',#113,1.);
#113 = DIRECTION('',(0.,-1.,0.));
#114 = PCURVE('',#40,#115);
#115 = DEFINITIONAL_REPRESENTATION('',(#116),#120);
#116 = LINE('',#117,#118);
#117 = CARTESIAN_POINT('',(-74.26084413252,4.008633338988));
#118 = VECTOR('',#119,1.);
#119 = DIRECTION('',(0.,-1.));
#120 = ( GEOMETRIC_REPRESENTATION_CONTEXT(2) 
PARAMETRIC_REPRESENTATION_CONTEXT() REPRESENTATION_CONTEXT('2D SPACE',''
  ) );
#121 = ( GEOMETRIC_REPRESENTATION_CONTEXT(3) 
GLOBAL_UNCERTAINTY_ASSIGNED_CONTEXT((#125)) GLOBAL_UNIT_ASSIGNED_CONTEXT
((#122,#123,#124)) REPRESENTATION_CONTEXT('Context #1',
  '3D Context with UNIT and UNCERTAINTY') );
#122 = ( LENGTH_UNIT() NAMED_UNIT(*) SI_UNIT(.MILLI.,.METRE.) );
#123 = ( NAMED_UNIT(*) PLANE_ANGLE_UNIT() SI_UNIT($,.RADIAN.) );
#124 = ( NAMED_UNIT(*) SI_UNIT($,.STERADIAN.) SOLID_ANGLE_UNIT() );
#125 = UNCERTAINTY_MEASURE_WITH_UNIT(LENGTH_MEASURE(1.E-07),#122,
  'distance_accuracy_value','confusion accuracy');
#126 = PRODUCT_RELATED_PRODUCT_CATEGORY('part',$,(#7));
ENDSEC;
END-ISO-10303-21;
