ISO-10303-21;
HEADER;
FILE_DESCRIPTION(('Open CASCADE Model'),'2;1');
FILE_NAME('Open CASCADE Shape Model','2026-06-04T12:09:59',('Author'),(
    'Open CASCADE'),'Open CASCADE STEP processor 7.9','Open CASCADE 7.9'
  ,'Unknown');
FILE_SCHEMA(('AUTOMOTIVE_DESIGN { 1 0 10303 214 1 1 1 1 }'));
ENDSEC;
DATA;
#1 = APPLICATION_PROTOCOL_DEFINITION('international standard',
  'automotive_design',2000,#2);
#2 = APPLICATION_CONTEXT(
  'core data for automotive mechanical design processes');
#3 = SHAPE_DEFINITION_REPRESENTATION(#4,#10);
#4 = PRODUCT_DEFINITION_SHAPE('','',#5);
#5 = PRODUCT_DEFINITION('design','',#6,#9);
#6 = PRODUCT_DEFINITION_FORMATION('','',#7);
#7 = PRODUCT('Open CASCADE STEP translator 7.9 90',
  'Open CASCADE STEP translator 7.9 90','',(#8));
#8 = PRODUCT_CONTEXT('',#2,'mechanical');
#9 = PRODUCT_DEFINITION_CONTEXT('part definition',#2,'design');
#10 = MANIFOLD_SURFACE_SHAPE_REPRESENTATION('',(#11,#15),#121);
#11 = AXIS2_PLACEMENT_3D('',#12,#13,#14);
#12 = CARTESIAN_POINT('',(0.,0.,0.));
#13 = DIRECTION('',(0.,0.,1.));
#14 = DIRECTION('',(1.,0.,-0.));
#15 = SHELL_BASED_SURFACE_MODEL('',(#16));
#16 = OPEN_SHELL('',(#17));
#17 = ADVANCED_FACE('',(#18),#40,.T.);
#18 = FACE_BOUND('',#19,.T.);
#19 = EDGE_LOOP('',(#20,#59,#75,#107));
#20 = ORIENTED_EDGE('',*,*,#21,.T.);
#21 = EDGE_CURVE('',#22,#24,#26,.T.);
#22 = VERTEX_POINT('',#23);
#23 = CARTESIAN_POINT('',(0.,2.933899995695,0.));
#24 = VERTEX_POINT('',#25);
#25 = CARTESIAN_POINT('',(150.,3.561837802934E-02,0.));
#26 = SURFACE_CURVE('',#27,(#39),.PCURVE_S1.);
#27 = B_SPLINE_CURVE_WITH_KNOTS('',1,(#28,#29,#30,#31,#32,#33,#34,#35,
    #36,#37,#38),.UNSPECIFIED.,.F.,.F.,(2,1,1,1,1,1,1,1,1,1,2),(0.,
    0.139459596887,0.175534620294,0.339172762434,0.378269939116,
    0.532333524209,0.672287077175,0.794641151594,0.81834181238,
    0.880114736511,1.),.UNSPECIFIED.);
#28 = CARTESIAN_POINT('',(0.,2.933899995695,0.));
#29 = CARTESIAN_POINT('',(21.37460443649,1.928374945817,0.));
#30 = CARTESIAN_POINT('',(24.795233000917,-2.423425132773,0.));
#31 = CARTESIAN_POINT('',(49.813146362061,-0.2969616768,0.));
#32 = CARTESIAN_POINT('',(55.312518239664,2.099762530511,0.));
#33 = CARTESIAN_POINT('',(78.949432208966,1.783257284345,0.));
#34 = CARTESIAN_POINT('',(100.2475336144,-0.959917465423,0.));
#35 = CARTESIAN_POINT('',(119.01712851092,-1.348900933481,0.));
#36 = CARTESIAN_POINT('',(122.57500943449,-0.59656085148,0.));
#37 = CARTESIAN_POINT('',(131.81258591776,-2.718890279475,0.));
#38 = CARTESIAN_POINT('',(150.,3.561837802934E-02,0.));
#39 = PCURVE('',#40,#45);
#40 = PLANE('',#41);
#41 = AXIS2_PLACEMENT_3D('',#42,#43,#44);
#42 = CARTESIAN_POINT('',(75.74930761121,7.5,0.));
#43 = DIRECTION('',(0.,0.,1.));
#44 = DIRECTION('',(1.,0.,-0.));
#45 = DEFINITIONAL_REPRESENTATION('',(#46),#58);
#46 = B_SPLINE_CURVE_WITH_KNOTS('',1,(#47,#48,#49,#50,#51,#52,#53,#54,
    #55,#56,#57),.UNSPECIFIED.,.F.,.F.,(2,1,1,1,1,1,1,1,1,1,2),(0.,
    0.139459596887,0.175534620294,0.339172762434,0.378269939116,
    0.532333524209,0.672287077175,0.794641151594,0.81834181238,
    0.880114736511,1.),.UNSPECIFIED.);
#47 = CARTESIAN_POINT('',(-75.74930761121,-4.566100004305));
#48 = CARTESIAN_POINT('',(-54.37470317472,-5.571625054183));
#49 = CARTESIAN_POINT('',(-50.95407461029,-9.923425132773));
#50 = CARTESIAN_POINT('',(-25.93616124915,-7.7969616768));
#51 = CARTESIAN_POINT('',(-20.43678937154,-5.400237469489));
#52 = CARTESIAN_POINT('',(3.200124597756,-5.716742715655));
#53 = CARTESIAN_POINT('',(24.498226003195,-8.459917465423));
#54 = CARTESIAN_POINT('',(43.26782089971,-8.848900933481));
#55 = CARTESIAN_POINT('',(46.825701823286,-8.09656085148));
#56 = CARTESIAN_POINT('',(56.063278306556,-10.21889027947));
#57 = CARTESIAN_POINT('',(74.25069238879,-7.464381621971));
#58 = ( GEOMETRIC_REPRESENTATION_CONTEXT(2) 
PARAMETRIC_REPRESENTATION_CONTEXT() REPRESENTATION_CONTEXT('2D SPACE',''
  ) );
#59 = ORIENTED_EDGE('',*,*,#60,.T.);
#60 = EDGE_CURVE('',#24,#61,#63,.T.);
#61 = VERTEX_POINT('',#62);
#62 = CARTESIAN_POINT('',(150.,14.964381621971,0.));
#63 = SURFACE_CURVE('',#64,(#68),.PCURVE_S1.);
#64 = LINE('',#65,#66);
#65 = CARTESIAN_POINT('',(150.,3.561837802934E-02,0.));
#66 = VECTOR('',#67,1.);
#67 = DIRECTION('',(0.,1.,0.));
#68 = PCURVE('',#40,#69);
#69 = DEFINITIONAL_REPRESENTATION('',(#70),#74);
#70 = LINE('',#71,#72);
#71 = CARTESIAN_POINT('',(74.25069238879,-7.464381621971));
#72 = VECTOR('',#73,1.);
#73 = DIRECTION('',(0.,1.));
#74 = ( GEOMETRIC_REPRESENTATION_CONTEXT(2) 
PARAMETRIC_REPRESENTATION_CONTEXT() REPRESENTATION_CONTEXT('2D SPACE',''
  ) );
#75 = ORIENTED_EDGE('',*,*,#76,.T.);
#76 = EDGE_CURVE('',#61,#77,#79,.T.);
#77 = VERTEX_POINT('',#78);
#78 = CARTESIAN_POINT('',(0.,12.066100004305,0.));
#79 = SURFACE_CURVE('',#80,(#92),.PCURVE_S1.);
#80 = B_SPLINE_CURVE_WITH_KNOTS('',1,(#81,#82,#83,#84,#85,#86,#87,#88,
    #89,#90,#91),.UNSPECIFIED.,.F.,.F.,(2,1,1,1,1,1,1,1,1,1,2),(0.,
    0.119885263489,0.18165818762,0.205358848406,0.327712922825,
    0.467666475791,0.621730060884,0.660827237566,0.824465379706,
    0.860540403113,1.),.UNSPECIFIED.);
#81 = CARTESIAN_POINT('',(150.,14.964381621971,0.));
#82 = CARTESIAN_POINT('',(131.81258591776,17.718890279475,0.));
#83 = CARTESIAN_POINT('',(122.57500943449,15.59656085148,0.));
#84 = CARTESIAN_POINT('',(119.01712851092,16.348900933481,0.));
#85 = CARTESIAN_POINT('',(100.2475336144,15.959917465423,0.));
#86 = CARTESIAN_POINT('',(78.949432208966,13.216742715655,0.));
#87 = CARTESIAN_POINT('',(55.312518239664,12.900237469489,0.));
#88 = CARTESIAN_POINT('',(49.813146362061,15.2969616768,0.));
#89 = CARTESIAN_POINT('',(24.795233000917,17.423425132773,0.));
#90 = CARTESIAN_POINT('',(21.37460443649,13.071625054183,0.));
#91 = CARTESIAN_POINT('',(0.,12.066100004305,0.));
#92 = PCURVE('',#40,#93);
#93 = DEFINITIONAL_REPRESENTATION('',(#94),#106);
#94 = B_SPLINE_CURVE_WITH_KNOTS('',1,(#95,#96,#97,#98,#99,#100,#101,#102
    ,#103,#104,#105),.UNSPECIFIED.,.F.,.F.,(2,1,1,1,1,1,1,1,1,1,2),(0.,
    0.119885263489,0.18165818762,0.205358848406,0.327712922825,
    0.467666475791,0.621730060884,0.660827237566,0.824465379706,
    0.860540403113,1.),.UNSPECIFIED.);
#95 = CARTESIAN_POINT('',(74.25069238879,7.464381621971));
#96 = CARTESIAN_POINT('',(56.063278306556,10.218890279475));
#97 = CARTESIAN_POINT('',(46.825701823286,8.09656085148));
#98 = CARTESIAN_POINT('',(43.26782089971,8.848900933481));
#99 = CARTESIAN_POINT('',(24.498226003195,8.459917465423));
#100 = CARTESIAN_POINT('',(3.200124597756,5.716742715655));
#101 = CARTESIAN_POINT('',(-20.43678937154,5.400237469489));
#102 = CARTESIAN_POINT('',(-25.93616124915,7.7969616768));
#103 = CARTESIAN_POINT('',(-50.95407461029,9.923425132773));
#104 = CARTESIAN_POINT('',(-54.37470317472,5.571625054183));
#105 = CARTESIAN_POINT('',(-75.74930761121,4.566100004305));
#106 = ( GEOMETRIC_REPRESENTATION_CONTEXT(2) 
PARAMETRIC_REPRESENTATION_CONTEXT() REPRESENTATION_CONTEXT('2D SPACE',''
  ) );
#107 = ORIENTED_EDGE('',*,*,#108,.T.);
#108 = EDGE_CURVE('',#77,#22,#109,.T.);
#109 = SURFACE_CURVE('',#110,(#114),.PCURVE_S1.);
#110 = LINE('',#111,#112);
#111 = CARTESIAN_POINT('',(0.,12.066100004305,0.));
#112 = VECTOR('',#113,1.);
#113 = DIRECTION('',(0.,-1.,0.));
#114 = PCURVE('',#40,#115);
#115 = DEFINITIONAL_REPRESENTATION('',(#116),#120);
#116 = LINE('',#117,#118);
#117 = CARTESIAN_POINT('',(-75.74930761121,4.566100004305));
#118 = VECTOR('',#119,1.);
#119 = DIRECTION('',(0.,-1.));
#120 = ( GEOMETRIC_REPRESENTATION_CONTEXT(2) 
PARAMETRIC_REPRESENTATION_CONTEXT() REPRESENTATION_CONTEXT('2D SPACE',''
  ) );
#121 = ( GEOMETRIC_REPRESENTATION_CONTEXT(3) 
GLOBAL_UNCERTAINTY_ASSIGNED_CONTEXT((#125)) GLOBAL_UNIT_ASSIGNED_CONTEXT
((#122,#123,#124)) REPRESENTATION_CONTEXT('Context #1',
  '3D Context with UNIT and UNCERTAINTY') );
#122 = ( LENGTH_UNIT() NAMED_UNIT(*) SI_UNIT(.MILLI.,.METRE.) );
#123 = ( NAMED_UNIT(*) PLANE_ANGLE_UNIT() SI_UNIT($,.RADIAN.) );
#124 = ( NAMED_UNIT(*) SI_UNIT($,.STERADIAN.) SOLID_ANGLE_UNIT() );
#125 = UNCERTAINTY_MEASURE_WITH_UNIT(LENGTH_MEASURE(1.E-07),#122,
  'distance_accuracy_value','confusion accuracy');
#126 = PRODUCT_RELATED_PRODUCT_CATEGORY('part',$,(#7));
ENDSEC;
END-ISO-10303-21;
