ISO-10303-21;
HEADER;
FILE_DESCRIPTION(('Open CASCADE Model'),'2;1');
FILE_NAME('Open CASCADE Shape Model','2026-06-04T12:09:59',('Author'),(
    'Open CASCADE'),'Open CASCADE STEP processor 7.9','Open CASCADE 7.9'
  ,'Unknown');
FILE_SCHEMA(('AUTOMOTIVE_DESIGN { 1 0 10303 214 1 1 1 1 }'));
ENDSEC;
DATA;
#1 = APPLICATION_PROTOCOL_DEFINITION('international standard',
  'automotive_design',2000,#2);
#2 = APPLICATION_CONTEXT(
  'core data for automotive mechanical design processes');
#3 = SHAPE_DEFINITION_REPRESENTATION(#4,#10);
#4 = PRODUCT_DEFINITION_SHAPE('','',#5);
#5 = PRODUCT_DEFINITION('design','',#6,#9);
#6 = PRODUCT_DEFINITION_FORMATION('','',#7);
#7 = PRODUCT('Open CASCADE STEP translator 7.9 33',
  'Open CASCADE STEP translator 7.9 33','',(#8));
#8 = PRODUCT_CONTEXT('',#2,'mechanical');
#9 = PRODUCT_DEFINITION_CONTEXT('part definition',#2,'design');
#10 = MANIFOLD_SURFACE_SHAPE_REPRESENTATION('',(#11,#15),#121);
#11 = AXIS2_PLACEMENT_3D('',#12,#13,#14);
#12 = CARTESIAN_POINT('',(0.,0.,0.));
#13 = DIRECTION('',(0.,0.,1.));
#14 = DIRECTION('',(1.,0.,-0.));
#15 = SHELL_BASED_SURFACE_MODEL('',(#16));
#16 = OPEN_SHELL('',(#17));
#17 = ADVANCED_FACE('',(#18),#40,.T.);
#18 = FACE_BOUND('',#19,.T.);
#19 = EDGE_LOOP('',(#20,#59,#75,#107));
#20 = ORIENTED_EDGE('',*,*,#21,.T.);
#21 = EDGE_CURVE('',#22,#24,#26,.T.);
#22 = VERTEX_POINT('',#23);
#23 = CARTESIAN_POINT('',(0.,-0.544468764983,0.));
#24 = VERTEX_POINT('',#25);
#25 = CARTESIAN_POINT('',(150.,-1.702944656254,0.));
#26 = SURFACE_CURVE('',#27,(#39),.PCURVE_S1.);
#27 = B_SPLINE_CURVE_WITH_KNOTS('',1,(#28,#29,#30,#31,#32,#33,#34,#35,
    #36,#37,#38),.UNSPECIFIED.,.F.,.F.,(2,1,1,1,1,1,1,1,1,1,2),(0.,
    0.1175047239,0.171576073251,0.281324160536,0.37416716999,
    0.467190234307,0.518338370679,0.595368924178,0.797968908803,
    0.903478181511,1.),.UNSPECIFIED.);
#28 = CARTESIAN_POINT('',(0.,-0.544468764983,0.));
#29 = CARTESIAN_POINT('',(17.890517945401,-0.920635254057,0.));
#30 = CARTESIAN_POINT('',(25.846155666608,1.203700250911,0.));
#31 = CARTESIAN_POINT('',(42.555766107267,1.55176763024,0.));
#32 = CARTESIAN_POINT('',(56.686193334352,1.065045916988,0.));
#33 = CARTESIAN_POINT('',(70.816918111272,2.067350615499,0.));
#34 = CARTESIAN_POINT('',(77.302885393181,-2.245886191745,0.));
#35 = CARTESIAN_POINT('',(88.484746601453,1.300518400499,0.));
#36 = CARTESIAN_POINT('',(119.2929430406,-0.368936366486,0.));
#37 = CARTESIAN_POINT('',(135.30103831425,-1.751846550848,0.));
#38 = CARTESIAN_POINT('',(150.,-1.702944656254,0.));
#39 = PCURVE('',#40,#45);
#40 = PLANE('',#41);
#41 = AXIS2_PLACEMENT_3D('',#42,#43,#44);
#42 = CARTESIAN_POINT('',(75.46357386787,7.5,0.));
#43 = DIRECTION('',(0.,0.,1.));
#44 = DIRECTION('',(1.,0.,-0.));
#45 = DEFINITIONAL_REPRESENTATION('',(#46),#58);
#46 = B_SPLINE_CURVE_WITH_KNOTS('',1,(#47,#48,#49,#50,#51,#52,#53,#54,
    #55,#56,#57),.UNSPECIFIED.,.F.,.F.,(2,1,1,1,1,1,1,1,1,1,2),(0.,
    0.1175047239,0.171576073251,0.281324160536,0.37416716999,
    0.467190234307,0.518338370679,0.595368924178,0.797968908803,
    0.903478181511,1.),.UNSPECIFIED.);
#47 = CARTESIAN_POINT('',(-75.46357386787,-8.044468764983));
#48 = CARTESIAN_POINT('',(-57.57305592246,-8.420635254057));
#49 = CARTESIAN_POINT('',(-49.61741820126,-6.296299749089));
#50 = CARTESIAN_POINT('',(-32.9078077606,-5.94823236976));
#51 = CARTESIAN_POINT('',(-18.77738053351,-6.434954083012));
#52 = CARTESIAN_POINT('',(-4.646655756597,-5.432649384501));
#53 = CARTESIAN_POINT('',(1.839311525311,-9.745886191745));
#54 = CARTESIAN_POINT('',(13.021172733583,-6.199481599501));
#55 = CARTESIAN_POINT('',(43.829369172738,-7.868936366486));
#56 = CARTESIAN_POINT('',(59.837464446382,-9.251846550848));
#57 = CARTESIAN_POINT('',(74.53642613213,-9.202944656254));
#58 = ( GEOMETRIC_REPRESENTATION_CONTEXT(2) 
PARAMETRIC_REPRESENTATION_CONTEXT() REPRESENTATION_CONTEXT('2D SPACE',''
  ) );
#59 = ORIENTED_EDGE('',*,*,#60,.T.);
#60 = EDGE_CURVE('',#24,#61,#63,.T.);
#61 = VERTEX_POINT('',#62);
#62 = CARTESIAN_POINT('',(150.,16.702944656254,0.));
#63 = SURFACE_CURVE('',#64,(#68),.PCURVE_S1.);
#64 = LINE('',#65,#66);
#65 = CARTESIAN_POINT('',(150.,-1.702944656254,0.));
#66 = VECTOR('',#67,1.);
#67 = DIRECTION('',(0.,1.,0.));
#68 = PCURVE('',#40,#69);
#69 = DEFINITIONAL_REPRESENTATION('',(#70),#74);
#70 = LINE('',#71,#72);
#71 = CARTESIAN_POINT('',(74.53642613213,-9.202944656254));
#72 = VECTOR('',#73,1.);
#73 = DIRECTION('',(0.,1.));
#74 = ( GEOMETRIC_REPRESENTATION_CONTEXT(2) 
PARAMETRIC_REPRESENTATION_CONTEXT() REPRESENTATION_CONTEXT('2D SPACE',''
  ) );
#75 = ORIENTED_EDGE('',*,*,#76,.T.);
#76 = EDGE_CURVE('',#61,#77,#79,.T.);
#77 = VERTEX_POINT('',#78);
#78 = CARTESIAN_POINT('',(0.,15.544468764983,0.));
#79 = SURFACE_CURVE('',#80,(#92),.PCURVE_S1.);
#80 = B_SPLINE_CURVE_WITH_KNOTS('',1,(#81,#82,#83,#84,#85,#86,#87,#88,
    #89,#90,#91),.UNSPECIFIED.,.F.,.F.,(2,1,1,1,1,1,1,1,1,1,2),(0.,
    9.652181848934E-02,0.202031091197,0.404631075822,0.481661629321,
    0.532809765693,0.62583283001,0.718675839464,0.828423926749,
    0.8824952761,1.),.UNSPECIFIED.);
#81 = CARTESIAN_POINT('',(150.,16.702944656254,0.));
#82 = CARTESIAN_POINT('',(135.30103831425,16.751846550848,0.));
#83 = CARTESIAN_POINT('',(119.2929430406,15.368936366486,0.));
#84 = CARTESIAN_POINT('',(88.484746601453,13.699481599501,0.));
#85 = CARTESIAN_POINT('',(77.302885393181,17.245886191745,0.));
#86 = CARTESIAN_POINT('',(70.816918111272,12.932649384501,0.));
#87 = CARTESIAN_POINT('',(56.686193334352,13.934954083012,0.));
#88 = CARTESIAN_POINT('',(42.555766107267,13.44823236976,0.));
#89 = CARTESIAN_POINT('',(25.846155666608,13.796299749089,0.));
#90 = CARTESIAN_POINT('',(17.890517945401,15.920635254057,0.));
#91 = CARTESIAN_POINT('',(0.,15.544468764983,0.));
#92 = PCURVE('',#40,#93);
#93 = DEFINITIONAL_REPRESENTATION('',(#94),#106);
#94 = B_SPLINE_CURVE_WITH_KNOTS('',1,(#95,#96,#97,#98,#99,#100,#101,#102
    ,#103,#104,#105),.UNSPECIFIED.,.F.,.F.,(2,1,1,1,1,1,1,1,1,1,2),(0.,
    9.652181848934E-02,0.202031091197,0.404631075822,0.481661629321,
    0.532809765693,0.62583283001,0.718675839464,0.828423926749,
    0.8824952761,1.),.UNSPECIFIED.);
#95 = CARTESIAN_POINT('',(74.53642613213,9.202944656254));
#96 = CARTESIAN_POINT('',(59.837464446382,9.251846550848));
#97 = CARTESIAN_POINT('',(43.829369172738,7.868936366486));
#98 = CARTESIAN_POINT('',(13.021172733583,6.199481599501));
#99 = CARTESIAN_POINT('',(1.839311525311,9.745886191745));
#100 = CARTESIAN_POINT('',(-4.646655756597,5.432649384501));
#101 = CARTESIAN_POINT('',(-18.77738053351,6.434954083012));
#102 = CARTESIAN_POINT('',(-32.9078077606,5.94823236976));
#103 = CARTESIAN_POINT('',(-49.61741820126,6.296299749089));
#104 = CARTESIAN_POINT('',(-57.57305592246,8.420635254057));
#105 = CARTESIAN_POINT('',(-75.46357386787,8.044468764983));
#106 = ( GEOMETRIC_REPRESENTATION_CONTEXT(2) 
PARAMETRIC_REPRESENTATION_CONTEXT() REPRESENTATION_CONTEXT('2D SPACE',''
  ) );
#107 = ORIENTED_EDGE('',*,*,#108,.T.);
#108 = EDGE_CURVE('',#77,#22,#109,.T.);
#109 = SURFACE_CURVE('',#110,(#114),.PCURVE_S1.);
#110 = LINE('',#111,#112);
#111 = CARTESIAN_POINT('',(0.,15.544468764983,0.));
#112 = VECTOR('',#113,1.);
#113 = DIRECTION('',(0.,-1.,0.));
#114 = PCURVE('',#40,#115);
#115 = DEFINITIONAL_REPRESENTATION('',(#116),#120);
#116 = LINE('',#117,#118);
#117 = CARTESIAN_POINT('',(-75.46357386787,8.044468764983));
#118 = VECTOR('',#119,1.);
#119 = DIRECTION('',(0.,-1.));
#120 = ( GEOMETRIC_REPRESENTATION_CONTEXT(2) 
PARAMETRIC_REPRESENTATION_CONTEXT() REPRESENTATION_CONTEXT('2D SPACE',''
  ) );
#121 = ( GEOMETRIC_REPRESENTATION_CONTEXT(3) 
GLOBAL_UNCERTAINTY_ASSIGNED_CONTEXT((#125)) GLOBAL_UNIT_ASSIGNED_CONTEXT
((#122,#123,#124)) REPRESENTATION_CONTEXT('Context #1',
  '3D Context with UNIT and UNCERTAINTY') );
#122 = ( LENGTH_UNIT() NAMED_UNIT(*) SI_UNIT(.MILLI.,.METRE.) );
#123 = ( NAMED_UNIT(*) PLANE_ANGLE_UNIT() SI_UNIT($,.RADIAN.) );
#124 = ( NAMED_UNIT(*) SI_UNIT($,.STERADIAN.) SOLID_ANGLE_UNIT() );
#125 = UNCERTAINTY_MEASURE_WITH_UNIT(LENGTH_MEASURE(1.E-07),#122,
  'distance_accuracy_value','confusion accuracy');
#126 = PRODUCT_RELATED_PRODUCT_CATEGORY('part',$,(#7));
ENDSEC;
END-ISO-10303-21;
