ISO-10303-21;
HEADER;
FILE_DESCRIPTION(('Open CASCADE Model'),'2;1');
FILE_NAME('Open CASCADE Shape Model','2026-06-04T12:09:58',('Author'),(
    'Open CASCADE'),'Open CASCADE STEP processor 7.9','Open CASCADE 7.9'
  ,'Unknown');
FILE_SCHEMA(('AUTOMOTIVE_DESIGN { 1 0 10303 214 1 1 1 1 }'));
ENDSEC;
DATA;
#1 = APPLICATION_PROTOCOL_DEFINITION('international standard',
  'automotive_design',2000,#2);
#2 = APPLICATION_CONTEXT(
  'core data for automotive mechanical design processes');
#3 = SHAPE_DEFINITION_REPRESENTATION(#4,#10);
#4 = PRODUCT_DEFINITION_SHAPE('','',#5);
#5 = PRODUCT_DEFINITION('design','',#6,#9);
#6 = PRODUCT_DEFINITION_FORMATION('','',#7);
#7 = PRODUCT('Open CASCADE STEP translator 7.9 1',
  'Open CASCADE STEP translator 7.9 1','',(#8));
#8 = PRODUCT_CONTEXT('',#2,'mechanical');
#9 = PRODUCT_DEFINITION_CONTEXT('part definition',#2,'design');
#10 = MANIFOLD_SURFACE_SHAPE_REPRESENTATION('',(#11,#15),#121);
#11 = AXIS2_PLACEMENT_3D('',#12,#13,#14);
#12 = CARTESIAN_POINT('',(0.,0.,0.));
#13 = DIRECTION('',(0.,0.,1.));
#14 = DIRECTION('',(1.,0.,-0.));
#15 = SHELL_BASED_SURFACE_MODEL('',(#16));
#16 = OPEN_SHELL('',(#17));
#17 = ADVANCED_FACE('',(#18),#40,.T.);
#18 = FACE_BOUND('',#19,.T.);
#19 = EDGE_LOOP('',(#20,#59,#75,#107));
#20 = ORIENTED_EDGE('',*,*,#21,.T.);
#21 = EDGE_CURVE('',#22,#24,#26,.T.);
#22 = VERTEX_POINT('',#23);
#23 = CARTESIAN_POINT('',(0.,0.775211854605,0.));
#24 = VERTEX_POINT('',#25);
#25 = CARTESIAN_POINT('',(150.,-1.548526440512,0.));
#26 = SURFACE_CURVE('',#27,(#39),.PCURVE_S1.);
#27 = B_SPLINE_CURVE_WITH_KNOTS('',1,(#28,#29,#30,#31,#32,#33,#34,#35,
    #36,#37,#38),.UNSPECIFIED.,.F.,.F.,(2,1,1,1,1,1,1,1,1,1,2),(0.,
    0.151285954473,0.29772181807,0.446524346464,0.484461729586,
    0.510316720245,0.609415837397,0.707296882451,0.898299061866,
    0.923534117252,1.),.UNSPECIFIED.);
#28 = CARTESIAN_POINT('',(0.,0.775211854605,0.));
#29 = CARTESIAN_POINT('',(22.754985569929,-2.560589933092,0.));
#30 = CARTESIAN_POINT('',(44.951070661422,-0.863190720484,0.));
#31 = CARTESIAN_POINT('',(67.546258476045,-1.936569679625,0.));
#32 = CARTESIAN_POINT('',(72.845282008965,0.339514807036,0.));
#33 = CARTESIAN_POINT('',(76.555523866068,1.636567669291,0.));
#34 = CARTESIAN_POINT('',(91.491795734675,-0.327508722095,0.));
#35 = CARTESIAN_POINT('',(106.07721021296,2.617096463375,0.));
#36 = CARTESIAN_POINT('',(134.74903479425,-1.965787031955,0.));
#37 = CARTESIAN_POINT('',(138.40058213442,-0.789986394732,0.));
#38 = CARTESIAN_POINT('',(150.,-1.548526440512,0.));
#39 = PCURVE('',#40,#45);
#40 = PLANE('',#41);
#41 = AXIS2_PLACEMENT_3D('',#42,#43,#44);
#42 = CARTESIAN_POINT('',(76.139023748156,7.5,0.));
#43 = DIRECTION('',(0.,0.,1.));
#44 = DIRECTION('',(1.,0.,-0.));
#45 = DEFINITIONAL_REPRESENTATION('',(#46),#58);
#46 = B_SPLINE_CURVE_WITH_KNOTS('',1,(#47,#48,#49,#50,#51,#52,#53,#54,
    #55,#56,#57),.UNSPECIFIED.,.F.,.F.,(2,1,1,1,1,1,1,1,1,1,2),(0.,
    0.151285954473,0.29772181807,0.446524346464,0.484461729586,
    0.510316720245,0.609415837397,0.707296882451,0.898299061866,
    0.923534117252,1.),.UNSPECIFIED.);
#47 = CARTESIAN_POINT('',(-76.13902374815,-6.724788145395));
#48 = CARTESIAN_POINT('',(-53.38403817822,-10.06058993309));
#49 = CARTESIAN_POINT('',(-31.18795308673,-8.363190720484));
#50 = CARTESIAN_POINT('',(-8.592765272111,-9.436569679625));
#51 = CARTESIAN_POINT('',(-3.293741739191,-7.160485192964));
#52 = CARTESIAN_POINT('',(0.416500117912,-5.863432330709));
#53 = CARTESIAN_POINT('',(15.352771986519,-7.827508722095));
#54 = CARTESIAN_POINT('',(29.938186464813,-4.882903536625));
#55 = CARTESIAN_POINT('',(58.610011046095,-9.465787031955));
#56 = CARTESIAN_POINT('',(62.261558386269,-8.289986394732));
#57 = CARTESIAN_POINT('',(73.860976251844,-9.048526440512));
#58 = ( GEOMETRIC_REPRESENTATION_CONTEXT(2) 
PARAMETRIC_REPRESENTATION_CONTEXT() REPRESENTATION_CONTEXT('2D SPACE',''
  ) );
#59 = ORIENTED_EDGE('',*,*,#60,.T.);
#60 = EDGE_CURVE('',#24,#61,#63,.T.);
#61 = VERTEX_POINT('',#62);
#62 = CARTESIAN_POINT('',(150.,16.548526440512,0.));
#63 = SURFACE_CURVE('',#64,(#68),.PCURVE_S1.);
#64 = LINE('',#65,#66);
#65 = CARTESIAN_POINT('',(150.,-1.548526440512,0.));
#66 = VECTOR('',#67,1.);
#67 = DIRECTION('',(0.,1.,0.));
#68 = PCURVE('',#40,#69);
#69 = DEFINITIONAL_REPRESENTATION('',(#70),#74);
#70 = LINE('',#71,#72);
#71 = CARTESIAN_POINT('',(73.860976251844,-9.048526440512));
#72 = VECTOR('',#73,1.);
#73 = DIRECTION('',(0.,1.));
#74 = ( GEOMETRIC_REPRESENTATION_CONTEXT(2) 
PARAMETRIC_REPRESENTATION_CONTEXT() REPRESENTATION_CONTEXT('2D SPACE',''
  ) );
#75 = ORIENTED_EDGE('',*,*,#76,.T.);
#76 = EDGE_CURVE('',#61,#77,#79,.T.);
#77 = VERTEX_POINT('',#78);
#78 = CARTESIAN_POINT('',(0.,14.224788145395,0.));
#79 = SURFACE_CURVE('',#80,(#92),.PCURVE_S1.);
#80 = B_SPLINE_CURVE_WITH_KNOTS('',1,(#81,#82,#83,#84,#85,#86,#87,#88,
    #89,#90,#91),.UNSPECIFIED.,.F.,.F.,(2,1,1,1,1,1,1,1,1,1,2),(0.,
    7.646588274781E-02,0.101700938134,0.292703117549,0.390584162603,
    0.489683279755,0.515538270414,0.553475653536,0.70227818193,
    0.848714045527,1.),.UNSPECIFIED.);
#81 = CARTESIAN_POINT('',(150.,16.548526440512,0.));
#82 = CARTESIAN_POINT('',(138.40058213442,15.789986394732,0.));
#83 = CARTESIAN_POINT('',(134.74903479425,16.965787031955,0.));
#84 = CARTESIAN_POINT('',(106.07721021296,12.382903536625,0.));
#85 = CARTESIAN_POINT('',(91.491795734675,15.327508722095,0.));
#86 = CARTESIAN_POINT('',(76.555523866068,13.363432330709,0.));
#87 = CARTESIAN_POINT('',(72.845282008965,14.660485192964,0.));
#88 = CARTESIAN_POINT('',(67.546258476045,16.936569679625,0.));
#89 = CARTESIAN_POINT('',(44.951070661422,15.863190720484,0.));
#90 = CARTESIAN_POINT('',(22.754985569929,17.560589933092,0.));
#91 = CARTESIAN_POINT('',(0.,14.224788145395,0.));
#92 = PCURVE('',#40,#93);
#93 = DEFINITIONAL_REPRESENTATION('',(#94),#106);
#94 = B_SPLINE_CURVE_WITH_KNOTS('',1,(#95,#96,#97,#98,#99,#100,#101,#102
    ,#103,#104,#105),.UNSPECIFIED.,.F.,.F.,(2,1,1,1,1,1,1,1,1,1,2),(0.,
    7.646588274781E-02,0.101700938134,0.292703117549,0.390584162603,
    0.489683279755,0.515538270414,0.553475653536,0.70227818193,
    0.848714045527,1.),.UNSPECIFIED.);
#95 = CARTESIAN_POINT('',(73.860976251844,9.048526440512));
#96 = CARTESIAN_POINT('',(62.261558386269,8.289986394732));
#97 = CARTESIAN_POINT('',(58.610011046095,9.465787031955));
#98 = CARTESIAN_POINT('',(29.938186464813,4.882903536625));
#99 = CARTESIAN_POINT('',(15.352771986519,7.827508722095));
#100 = CARTESIAN_POINT('',(0.416500117912,5.863432330709));
#101 = CARTESIAN_POINT('',(-3.293741739191,7.160485192964));
#102 = CARTESIAN_POINT('',(-8.592765272111,9.436569679625));
#103 = CARTESIAN_POINT('',(-31.18795308673,8.363190720484));
#104 = CARTESIAN_POINT('',(-53.38403817822,10.060589933092));
#105 = CARTESIAN_POINT('',(-76.13902374815,6.724788145395));
#106 = ( GEOMETRIC_REPRESENTATION_CONTEXT(2) 
PARAMETRIC_REPRESENTATION_CONTEXT() REPRESENTATION_CONTEXT('2D SPACE',''
  ) );
#107 = ORIENTED_EDGE('',*,*,#108,.T.);
#108 = EDGE_CURVE('',#77,#22,#109,.T.);
#109 = SURFACE_CURVE('',#110,(#114),.PCURVE_S1.);
#110 = LINE('',#111,#112);
#111 = CARTESIAN_POINT('',(0.,14.224788145395,0.));
#112 = VECTOR('',#113,1.);
#113 = DIRECTION('',(0.,-1.,0.));
#114 = PCURVE('',#40,#115);
#115 = DEFINITIONAL_REPRESENTATION('',(#116),#120);
#116 = LINE('',#117,#118);
#117 = CARTESIAN_POINT('',(-76.13902374815,6.724788145395));
#118 = VECTOR('',#119,1.);
#119 = DIRECTION('',(0.,-1.));
#120 = ( GEOMETRIC_REPRESENTATION_CONTEXT(2) 
PARAMETRIC_REPRESENTATION_CONTEXT() REPRESENTATION_CONTEXT('2D SPACE',''
  ) );
#121 = ( GEOMETRIC_REPRESENTATION_CONTEXT(3) 
GLOBAL_UNCERTAINTY_ASSIGNED_CONTEXT((#125)) GLOBAL_UNIT_ASSIGNED_CONTEXT
((#122,#123,#124)) REPRESENTATION_CONTEXT('Context #1',
  '3D Context with UNIT and UNCERTAINTY') );
#122 = ( LENGTH_UNIT() NAMED_UNIT(*) SI_UNIT(.MILLI.,.METRE.) );
#123 = ( NAMED_UNIT(*) PLANE_ANGLE_UNIT() SI_UNIT($,.RADIAN.) );
#124 = ( NAMED_UNIT(*) SI_UNIT($,.STERADIAN.) SOLID_ANGLE_UNIT() );
#125 = UNCERTAINTY_MEASURE_WITH_UNIT(LENGTH_MEASURE(1.E-07),#122,
  'distance_accuracy_value','confusion accuracy');
#126 = PRODUCT_RELATED_PRODUCT_CATEGORY('part',$,(#7));
ENDSEC;
END-ISO-10303-21;
