ISO-10303-21;
HEADER;
FILE_DESCRIPTION(('Open CASCADE Model'),'2;1');
FILE_NAME('Open CASCADE Shape Model','2026-06-04T12:09:59',('Author'),(
    'Open CASCADE'),'Open CASCADE STEP processor 7.9','Open CASCADE 7.9'
  ,'Unknown');
FILE_SCHEMA(('AUTOMOTIVE_DESIGN { 1 0 10303 214 1 1 1 1 }'));
ENDSEC;
DATA;
#1 = APPLICATION_PROTOCOL_DEFINITION('international standard',
  'automotive_design',2000,#2);
#2 = APPLICATION_CONTEXT(
  'core data for automotive mechanical design processes');
#3 = SHAPE_DEFINITION_REPRESENTATION(#4,#10);
#4 = PRODUCT_DEFINITION_SHAPE('','',#5);
#5 = PRODUCT_DEFINITION('design','',#6,#9);
#6 = PRODUCT_DEFINITION_FORMATION('','',#7);
#7 = PRODUCT('Open CASCADE STEP translator 7.9 72',
  'Open CASCADE STEP translator 7.9 72','',(#8));
#8 = PRODUCT_CONTEXT('',#2,'mechanical');
#9 = PRODUCT_DEFINITION_CONTEXT('part definition',#2,'design');
#10 = MANIFOLD_SURFACE_SHAPE_REPRESENTATION('',(#11,#15),#121);
#11 = AXIS2_PLACEMENT_3D('',#12,#13,#14);
#12 = CARTESIAN_POINT('',(0.,0.,0.));
#13 = DIRECTION('',(0.,0.,1.));
#14 = DIRECTION('',(1.,0.,-0.));
#15 = SHELL_BASED_SURFACE_MODEL('',(#16));
#16 = OPEN_SHELL('',(#17));
#17 = ADVANCED_FACE('',(#18),#40,.T.);
#18 = FACE_BOUND('',#19,.T.);
#19 = EDGE_LOOP('',(#20,#59,#75,#107));
#20 = ORIENTED_EDGE('',*,*,#21,.T.);
#21 = EDGE_CURVE('',#22,#24,#26,.T.);
#22 = VERTEX_POINT('',#23);
#23 = CARTESIAN_POINT('',(0.,0.853904210844,0.));
#24 = VERTEX_POINT('',#25);
#25 = CARTESIAN_POINT('',(150.,-1.693267171607,0.));
#26 = SURFACE_CURVE('',#27,(#39),.PCURVE_S1.);
#27 = B_SPLINE_CURVE_WITH_KNOTS('',1,(#28,#29,#30,#31,#32,#33,#34,#35,
    #36,#37,#38),.UNSPECIFIED.,.F.,.F.,(2,1,1,1,1,1,1,1,1,1,2),(0.,
    2.702977901195E-02,0.221114818537,0.267635267482,0.316179804636,
    0.347641553709,0.444408838633,0.510486226053,0.764467614359,
    0.929134209757,1.),.UNSPECIFIED.);
#28 = CARTESIAN_POINT('',(0.,0.853904210844,0.));
#29 = CARTESIAN_POINT('',(4.017617176479,0.12957044348,0.));
#30 = CARTESIAN_POINT('',(33.263526612205,2.115444279086,0.));
#31 = CARTESIAN_POINT('',(40.248858723,1.35942178724,0.));
#32 = CARTESIAN_POINT('',(47.577696604296,1.150000776283,0.));
#33 = CARTESIAN_POINT('',(52.20361494266,2.236342810026,0.));
#34 = CARTESIAN_POINT('',(66.596654413901,-0.30143815145,0.));
#35 = CARTESIAN_POINT('',(76.533215551505,-1.230169179145,0.));
#36 = CARTESIAN_POINT('',(114.70306086208,2.580410211139,0.));
#37 = CARTESIAN_POINT('',(139.45048363953,0.113261389421,0.));
#38 = CARTESIAN_POINT('',(150.,-1.693267171607,0.));
#39 = PCURVE('',#40,#45);
#40 = PLANE('',#41);
#41 = AXIS2_PLACEMENT_3D('',#42,#43,#44);
#42 = CARTESIAN_POINT('',(76.169137632041,7.5,0.));
#43 = DIRECTION('',(0.,0.,1.));
#44 = DIRECTION('',(1.,0.,-0.));
#45 = DEFINITIONAL_REPRESENTATION('',(#46),#58);
#46 = B_SPLINE_CURVE_WITH_KNOTS('',1,(#47,#48,#49,#50,#51,#52,#53,#54,
    #55,#56,#57),.UNSPECIFIED.,.F.,.F.,(2,1,1,1,1,1,1,1,1,1,2),(0.,
    2.702977901195E-02,0.221114818537,0.267635267482,0.316179804636,
    0.347641553709,0.444408838633,0.510486226053,0.764467614359,
    0.929134209757,1.),.UNSPECIFIED.);
#47 = CARTESIAN_POINT('',(-76.16913763204,-6.646095789156));
#48 = CARTESIAN_POINT('',(-72.15152045556,-7.37042955652));
#49 = CARTESIAN_POINT('',(-42.90561101983,-5.384555720914));
#50 = CARTESIAN_POINT('',(-35.92027890904,-6.14057821276));
#51 = CARTESIAN_POINT('',(-28.59144102774,-6.349999223717));
#52 = CARTESIAN_POINT('',(-23.96552268938,-5.263657189974));
#53 = CARTESIAN_POINT('',(-9.572483218141,-7.80143815145));
#54 = CARTESIAN_POINT('',(0.364077919463,-8.730169179145));
#55 = CARTESIAN_POINT('',(38.53392323004,-4.919589788861));
#56 = CARTESIAN_POINT('',(63.281346007491,-7.386738610579));
#57 = CARTESIAN_POINT('',(73.830862367959,-9.193267171607));
#58 = ( GEOMETRIC_REPRESENTATION_CONTEXT(2) 
PARAMETRIC_REPRESENTATION_CONTEXT() REPRESENTATION_CONTEXT('2D SPACE',''
  ) );
#59 = ORIENTED_EDGE('',*,*,#60,.T.);
#60 = EDGE_CURVE('',#24,#61,#63,.T.);
#61 = VERTEX_POINT('',#62);
#62 = CARTESIAN_POINT('',(150.,16.693267171607,0.));
#63 = SURFACE_CURVE('',#64,(#68),.PCURVE_S1.);
#64 = LINE('',#65,#66);
#65 = CARTESIAN_POINT('',(150.,-1.693267171607,0.));
#66 = VECTOR('',#67,1.);
#67 = DIRECTION('',(0.,1.,0.));
#68 = PCURVE('',#40,#69);
#69 = DEFINITIONAL_REPRESENTATION('',(#70),#74);
#70 = LINE('',#71,#72);
#71 = CARTESIAN_POINT('',(73.830862367959,-9.193267171607));
#72 = VECTOR('',#73,1.);
#73 = DIRECTION('',(0.,1.));
#74 = ( GEOMETRIC_REPRESENTATION_CONTEXT(2) 
PARAMETRIC_REPRESENTATION_CONTEXT() REPRESENTATION_CONTEXT('2D SPACE',''
  ) );
#75 = ORIENTED_EDGE('',*,*,#76,.T.);
#76 = EDGE_CURVE('',#61,#77,#79,.T.);
#77 = VERTEX_POINT('',#78);
#78 = CARTESIAN_POINT('',(0.,14.146095789156,0.));
#79 = SURFACE_CURVE('',#80,(#92),.PCURVE_S1.);
#80 = B_SPLINE_CURVE_WITH_KNOTS('',1,(#81,#82,#83,#84,#85,#86,#87,#88,
    #89,#90,#91),.UNSPECIFIED.,.F.,.F.,(2,1,1,1,1,1,1,1,1,1,2),(0.,
    7.086579024256E-02,0.235532385641,0.489513773947,0.555591161367,
    0.652358446291,0.683820195364,0.732364732518,0.778885181463,
    0.972970220988,1.),.UNSPECIFIED.);
#81 = CARTESIAN_POINT('',(150.,16.693267171607,0.));
#82 = CARTESIAN_POINT('',(139.45048363953,14.886738610579,0.));
#83 = CARTESIAN_POINT('',(114.70306086208,12.419589788861,0.));
#84 = CARTESIAN_POINT('',(76.533215551505,16.230169179145,0.));
#85 = CARTESIAN_POINT('',(66.596654413901,15.30143815145,0.));
#86 = CARTESIAN_POINT('',(52.20361494266,12.763657189974,0.));
#87 = CARTESIAN_POINT('',(47.577696604296,13.849999223717,0.));
#88 = CARTESIAN_POINT('',(40.248858723,13.64057821276,0.));
#89 = CARTESIAN_POINT('',(33.263526612205,12.884555720914,0.));
#90 = CARTESIAN_POINT('',(4.017617176479,14.87042955652,0.));
#91 = CARTESIAN_POINT('',(0.,14.146095789156,0.));
#92 = PCURVE('',#40,#93);
#93 = DEFINITIONAL_REPRESENTATION('',(#94),#106);
#94 = B_SPLINE_CURVE_WITH_KNOTS('',1,(#95,#96,#97,#98,#99,#100,#101,#102
    ,#103,#104,#105),.UNSPECIFIED.,.F.,.F.,(2,1,1,1,1,1,1,1,1,1,2),(0.,
    7.086579024256E-02,0.235532385641,0.489513773947,0.555591161367,
    0.652358446291,0.683820195364,0.732364732518,0.778885181463,
    0.972970220988,1.),.UNSPECIFIED.);
#95 = CARTESIAN_POINT('',(73.830862367959,9.193267171607));
#96 = CARTESIAN_POINT('',(63.281346007491,7.386738610579));
#97 = CARTESIAN_POINT('',(38.53392323004,4.919589788861));
#98 = CARTESIAN_POINT('',(0.364077919463,8.730169179145));
#99 = CARTESIAN_POINT('',(-9.572483218141,7.80143815145));
#100 = CARTESIAN_POINT('',(-23.96552268938,5.263657189974));
#101 = CARTESIAN_POINT('',(-28.59144102774,6.349999223717));
#102 = CARTESIAN_POINT('',(-35.92027890904,6.14057821276));
#103 = CARTESIAN_POINT('',(-42.90561101983,5.384555720914));
#104 = CARTESIAN_POINT('',(-72.15152045556,7.37042955652));
#105 = CARTESIAN_POINT('',(-76.16913763204,6.646095789156));
#106 = ( GEOMETRIC_REPRESENTATION_CONTEXT(2) 
PARAMETRIC_REPRESENTATION_CONTEXT() REPRESENTATION_CONTEXT('2D SPACE',''
  ) );
#107 = ORIENTED_EDGE('',*,*,#108,.T.);
#108 = EDGE_CURVE('',#77,#22,#109,.T.);
#109 = SURFACE_CURVE('',#110,(#114),.PCURVE_S1.);
#110 = LINE('',#111,#112);
#111 = CARTESIAN_POINT('',(0.,14.146095789156,0.));
#112 = VECTOR('',#113,1.);
#113 = DIRECTION('',(0.,-1.,0.));
#114 = PCURVE('',#40,#115);
#115 = DEFINITIONAL_REPRESENTATION('',(#116),#120);
#116 = LINE('',#117,#118);
#117 = CARTESIAN_POINT('',(-76.16913763204,6.646095789156));
#118 = VECTOR('',#119,1.);
#119 = DIRECTION('',(0.,-1.));
#120 = ( GEOMETRIC_REPRESENTATION_CONTEXT(2) 
PARAMETRIC_REPRESENTATION_CONTEXT() REPRESENTATION_CONTEXT('2D SPACE',''
  ) );
#121 = ( GEOMETRIC_REPRESENTATION_CONTEXT(3) 
GLOBAL_UNCERTAINTY_ASSIGNED_CONTEXT((#125)) GLOBAL_UNIT_ASSIGNED_CONTEXT
((#122,#123,#124)) REPRESENTATION_CONTEXT('Context #1',
  '3D Context with UNIT and UNCERTAINTY') );
#122 = ( LENGTH_UNIT() NAMED_UNIT(*) SI_UNIT(.MILLI.,.METRE.) );
#123 = ( NAMED_UNIT(*) PLANE_ANGLE_UNIT() SI_UNIT($,.RADIAN.) );
#124 = ( NAMED_UNIT(*) SI_UNIT($,.STERADIAN.) SOLID_ANGLE_UNIT() );
#125 = UNCERTAINTY_MEASURE_WITH_UNIT(LENGTH_MEASURE(1.E-07),#122,
  'distance_accuracy_value','confusion accuracy');
#126 = PRODUCT_RELATED_PRODUCT_CATEGORY('part',$,(#7));
ENDSEC;
END-ISO-10303-21;
