ISO-10303-21;
HEADER;
FILE_DESCRIPTION(('Open CASCADE Model'),'2;1');
FILE_NAME('Open CASCADE Shape Model','2026-06-04T14:36:37',('Author'),(
    'Open CASCADE'),'Open CASCADE STEP processor 7.9','Open CASCADE 7.9'
  ,'Unknown');
FILE_SCHEMA(('AUTOMOTIVE_DESIGN { 1 0 10303 214 1 1 1 1 }'));
ENDSEC;
DATA;
#1 = APPLICATION_PROTOCOL_DEFINITION('international standard',
  'automotive_design',2000,#2);
#2 = APPLICATION_CONTEXT(
  'core data for automotive mechanical design processes');
#3 = SHAPE_DEFINITION_REPRESENTATION(#4,#10);
#4 = PRODUCT_DEFINITION_SHAPE('','',#5);
#5 = PRODUCT_DEFINITION('design','',#6,#9);
#6 = PRODUCT_DEFINITION_FORMATION('','',#7);
#7 = PRODUCT('Open CASCADE STEP translator 7.9 63',
  'Open CASCADE STEP translator 7.9 63','',(#8));
#8 = PRODUCT_CONTEXT('',#2,'mechanical');
#9 = PRODUCT_DEFINITION_CONTEXT('part definition',#2,'design');
#10 = MANIFOLD_SURFACE_SHAPE_REPRESENTATION('',(#11,#15),#121);
#11 = AXIS2_PLACEMENT_3D('',#12,#13,#14);
#12 = CARTESIAN_POINT('',(0.,0.,0.));
#13 = DIRECTION('',(0.,0.,1.));
#14 = DIRECTION('',(1.,0.,-0.));
#15 = SHELL_BASED_SURFACE_MODEL('',(#16));
#16 = OPEN_SHELL('',(#17));
#17 = ADVANCED_FACE('',(#18),#40,.T.);
#18 = FACE_BOUND('',#19,.T.);
#19 = EDGE_LOOP('',(#20,#59,#75,#107));
#20 = ORIENTED_EDGE('',*,*,#21,.T.);
#21 = EDGE_CURVE('',#22,#24,#26,.T.);
#22 = VERTEX_POINT('',#23);
#23 = CARTESIAN_POINT('',(0.,-4.635799122222E-03,0.));
#24 = VERTEX_POINT('',#25);
#25 = CARTESIAN_POINT('',(1.,-4.821442963178E-03,0.));
#26 = SURFACE_CURVE('',#27,(#39),.PCURVE_S1.);
#27 = B_SPLINE_CURVE_WITH_KNOTS('',1,(#28,#29,#30,#31,#32,#33,#34,#35,
    #36,#37,#38),.UNSPECIFIED.,.F.,.F.,(2,1,1,1,1,1,1,1,1,1,2),(0.,
    3.890367742256E-02,9.594464726416E-02,0.197937263966,0.333051235664,
    0.384752513456,0.452394299674,0.738147492016,0.81065581594,
    0.865879584504,1.),.UNSPECIFIED.);
#28 = CARTESIAN_POINT('',(0.,-4.635799122222E-03,0.));
#29 = CARTESIAN_POINT('',(3.892967165487E-02,-3.556421217024E-03,0.));
#30 = CARTESIAN_POINT('',(9.563857324673E-02,3.12390707235E-03,0.));
#31 = CARTESIAN_POINT('',(0.197657541373,-9.427269430158E-04,0.));
#32 = CARTESIAN_POINT('',(0.332883958254,-3.781474246555E-03,0.));
#33 = CARTESIAN_POINT('',(0.384393989403,1.255360635511E-03,0.));
#34 = CARTESIAN_POINT('',(0.452051784131,3.988938340644E-03,0.));
#35 = CARTESIAN_POINT('',(0.738017705935,-3.109629022399E-03,0.));
#36 = CARTESIAN_POINT('',(0.810527670638,1.823644863783E-04,0.));
#37 = CARTESIAN_POINT('',(0.865803399194,-6.439268035918E-04,0.));
#38 = CARTESIAN_POINT('',(1.,-4.821442963178E-03,0.));
#39 = PCURVE('',#40,#45);
#40 = PLANE('',#41);
#41 = AXIS2_PLACEMENT_3D('',#42,#43,#44);
#42 = CARTESIAN_POINT('',(0.499910113857,5.E-02,0.));
#43 = DIRECTION('',(0.,0.,1.));
#44 = DIRECTION('',(1.,0.,-0.));
#45 = DEFINITIONAL_REPRESENTATION('',(#46),#58);
#46 = B_SPLINE_CURVE_WITH_KNOTS('',1,(#47,#48,#49,#50,#51,#52,#53,#54,
    #55,#56,#57),.UNSPECIFIED.,.F.,.F.,(2,1,1,1,1,1,1,1,1,1,2),(0.,
    3.890367742256E-02,9.594464726416E-02,0.197937263966,0.333051235664,
    0.384752513456,0.452394299674,0.738147492016,0.81065581594,
    0.865879584504,1.),.UNSPECIFIED.);
#47 = CARTESIAN_POINT('',(-0.499910113857,-5.463579912222E-02));
#48 = CARTESIAN_POINT('',(-0.460980442202,-5.355642121702E-02));
#49 = CARTESIAN_POINT('',(-0.40427154061,-4.687609292765E-02));
#50 = CARTESIAN_POINT('',(-0.302252572485,-5.094272694302E-02));
#51 = CARTESIAN_POINT('',(-0.167026155603,-5.378147424656E-02));
#52 = CARTESIAN_POINT('',(-0.115516124454,-4.874463936449E-02));
#53 = CARTESIAN_POINT('',(-4.785832972601E-02,-4.601106165936E-02));
#54 = CARTESIAN_POINT('',(0.238107592078,-5.31096290224E-02));
#55 = CARTESIAN_POINT('',(0.31061755678,-4.981763551362E-02));
#56 = CARTESIAN_POINT('',(0.365893285337,-5.064392680359E-02));
#57 = CARTESIAN_POINT('',(0.500089886143,-5.482144296318E-02));
#58 = ( GEOMETRIC_REPRESENTATION_CONTEXT(2) 
PARAMETRIC_REPRESENTATION_CONTEXT() REPRESENTATION_CONTEXT('2D SPACE',''
  ) );
#59 = ORIENTED_EDGE('',*,*,#60,.T.);
#60 = EDGE_CURVE('',#24,#61,#63,.T.);
#61 = VERTEX_POINT('',#62);
#62 = CARTESIAN_POINT('',(1.,0.104821442963,0.));
#63 = SURFACE_CURVE('',#64,(#68),.PCURVE_S1.);
#64 = LINE('',#65,#66);
#65 = CARTESIAN_POINT('',(1.,-4.821442963178E-03,0.));
#66 = VECTOR('',#67,1.);
#67 = DIRECTION('',(0.,1.,0.));
#68 = PCURVE('',#40,#69);
#69 = DEFINITIONAL_REPRESENTATION('',(#70),#74);
#70 = LINE('',#71,#72);
#71 = CARTESIAN_POINT('',(0.500089886143,-5.482144296318E-02));
#72 = VECTOR('',#73,1.);
#73 = DIRECTION('',(0.,1.));
#74 = ( GEOMETRIC_REPRESENTATION_CONTEXT(2) 
PARAMETRIC_REPRESENTATION_CONTEXT() REPRESENTATION_CONTEXT('2D SPACE',''
  ) );
#75 = ORIENTED_EDGE('',*,*,#76,.T.);
#76 = EDGE_CURVE('',#61,#77,#79,.T.);
#77 = VERTEX_POINT('',#78);
#78 = CARTESIAN_POINT('',(0.,0.104635799122,0.));
#79 = SURFACE_CURVE('',#80,(#92),.PCURVE_S1.);
#80 = B_SPLINE_CURVE_WITH_KNOTS('',1,(#81,#82,#83,#84,#85,#86,#87,#88,
    #89,#90,#91),.UNSPECIFIED.,.F.,.F.,(2,1,1,1,1,1,1,1,1,1,2),(0.,
    0.134120415496,0.18934418406,0.261852507984,0.547605700326,
    0.615247486544,0.666948764336,0.802062736034,0.904055352736,
    0.961096322577,1.),.UNSPECIFIED.);
#81 = CARTESIAN_POINT('',(1.,0.104821442963,0.));
#82 = CARTESIAN_POINT('',(0.865803399194,0.100643926804,0.));
#83 = CARTESIAN_POINT('',(0.810527670638,9.981763551362E-02,0.));
#84 = CARTESIAN_POINT('',(0.738017705935,0.103109629022,0.));
#85 = CARTESIAN_POINT('',(0.452051784131,9.601106165936E-02,0.));
#86 = CARTESIAN_POINT('',(0.384393989403,9.874463936449E-02,0.));
#87 = CARTESIAN_POINT('',(0.332883958254,0.103781474247,0.));
#88 = CARTESIAN_POINT('',(0.197657541373,0.100942726943,0.));
#89 = CARTESIAN_POINT('',(9.563857324673E-02,9.687609292765E-02,0.));
#90 = CARTESIAN_POINT('',(3.892967165487E-02,0.103556421217,0.));
#91 = CARTESIAN_POINT('',(0.,0.104635799122,0.));
#92 = PCURVE('',#40,#93);
#93 = DEFINITIONAL_REPRESENTATION('',(#94),#106);
#94 = B_SPLINE_CURVE_WITH_KNOTS('',1,(#95,#96,#97,#98,#99,#100,#101,#102
    ,#103,#104,#105),.UNSPECIFIED.,.F.,.F.,(2,1,1,1,1,1,1,1,1,1,2),(0.,
    0.134120415496,0.18934418406,0.261852507984,0.547605700326,
    0.615247486544,0.666948764336,0.802062736034,0.904055352736,
    0.961096322577,1.),.UNSPECIFIED.);
#95 = CARTESIAN_POINT('',(0.500089886143,5.482144296318E-02));
#96 = CARTESIAN_POINT('',(0.365893285337,5.064392680359E-02));
#97 = CARTESIAN_POINT('',(0.31061755678,4.981763551362E-02));
#98 = CARTESIAN_POINT('',(0.238107592078,5.31096290224E-02));
#99 = CARTESIAN_POINT('',(-4.785832972601E-02,4.601106165936E-02));
#100 = CARTESIAN_POINT('',(-0.115516124454,4.874463936449E-02));
#101 = CARTESIAN_POINT('',(-0.167026155603,5.378147424656E-02));
#102 = CARTESIAN_POINT('',(-0.302252572485,5.094272694302E-02));
#103 = CARTESIAN_POINT('',(-0.40427154061,4.687609292765E-02));
#104 = CARTESIAN_POINT('',(-0.460980442202,5.355642121702E-02));
#105 = CARTESIAN_POINT('',(-0.499910113857,5.463579912222E-02));
#106 = ( GEOMETRIC_REPRESENTATION_CONTEXT(2) 
PARAMETRIC_REPRESENTATION_CONTEXT() REPRESENTATION_CONTEXT('2D SPACE',''
  ) );
#107 = ORIENTED_EDGE('',*,*,#108,.T.);
#108 = EDGE_CURVE('',#77,#22,#109,.T.);
#109 = SURFACE_CURVE('',#110,(#114),.PCURVE_S1.);
#110 = LINE('',#111,#112);
#111 = CARTESIAN_POINT('',(0.,0.104635799122,0.));
#112 = VECTOR('',#113,1.);
#113 = DIRECTION('',(0.,-1.,0.));
#114 = PCURVE('',#40,#115);
#115 = DEFINITIONAL_REPRESENTATION('',(#116),#120);
#116 = LINE('',#117,#118);
#117 = CARTESIAN_POINT('',(-0.499910113857,5.463579912222E-02));
#118 = VECTOR('',#119,1.);
#119 = DIRECTION('',(0.,-1.));
#120 = ( GEOMETRIC_REPRESENTATION_CONTEXT(2) 
PARAMETRIC_REPRESENTATION_CONTEXT() REPRESENTATION_CONTEXT('2D SPACE',''
  ) );
#121 = ( GEOMETRIC_REPRESENTATION_CONTEXT(3) 
GLOBAL_UNCERTAINTY_ASSIGNED_CONTEXT((#125)) GLOBAL_UNIT_ASSIGNED_CONTEXT
((#122,#123,#124)) REPRESENTATION_CONTEXT('Context #1',
  '3D Context with UNIT and UNCERTAINTY') );
#122 = ( LENGTH_UNIT() NAMED_UNIT(*) SI_UNIT(.MILLI.,.METRE.) );
#123 = ( NAMED_UNIT(*) PLANE_ANGLE_UNIT() SI_UNIT($,.RADIAN.) );
#124 = ( NAMED_UNIT(*) SI_UNIT($,.STERADIAN.) SOLID_ANGLE_UNIT() );
#125 = UNCERTAINTY_MEASURE_WITH_UNIT(LENGTH_MEASURE(1.E-07),#122,
  'distance_accuracy_value','confusion accuracy');
#126 = PRODUCT_RELATED_PRODUCT_CATEGORY('part',$,(#7));
ENDSEC;
END-ISO-10303-21;
