ISO-10303-21;
HEADER;
FILE_DESCRIPTION(('Open CASCADE Model'),'2;1');
FILE_NAME('Open CASCADE Shape Model','2026-06-01T11:13:06',('Author'),(
    'Open CASCADE'),'Open CASCADE STEP processor 7.9','Open CASCADE 7.9'
  ,'Unknown');
FILE_SCHEMA(('AUTOMOTIVE_DESIGN { 1 0 10303 214 1 1 1 1 }'));
ENDSEC;
DATA;
#1 = APPLICATION_PROTOCOL_DEFINITION('international standard',
  'automotive_design',2000,#2);
#2 = APPLICATION_CONTEXT(
  'core data for automotive mechanical design processes');
#3 = SHAPE_DEFINITION_REPRESENTATION(#4,#10);
#4 = PRODUCT_DEFINITION_SHAPE('','',#5);
#5 = PRODUCT_DEFINITION('design','',#6,#9);
#6 = PRODUCT_DEFINITION_FORMATION('','',#7);
#7 = PRODUCT('Open CASCADE STEP translator 7.9 99',
  'Open CASCADE STEP translator 7.9 99','',(#8));
#8 = PRODUCT_CONTEXT('',#2,'mechanical');
#9 = PRODUCT_DEFINITION_CONTEXT('part definition',#2,'design');
#10 = MANIFOLD_SURFACE_SHAPE_REPRESENTATION('',(#11,#15),#121);
#11 = AXIS2_PLACEMENT_3D('',#12,#13,#14);
#12 = CARTESIAN_POINT('',(0.,0.,0.));
#13 = DIRECTION('',(0.,0.,1.));
#14 = DIRECTION('',(1.,0.,-0.));
#15 = SHELL_BASED_SURFACE_MODEL('',(#16));
#16 = OPEN_SHELL('',(#17));
#17 = ADVANCED_FACE('',(#18),#40,.T.);
#18 = FACE_BOUND('',#19,.T.);
#19 = EDGE_LOOP('',(#20,#59,#75,#107));
#20 = ORIENTED_EDGE('',*,*,#21,.T.);
#21 = EDGE_CURVE('',#22,#24,#26,.T.);
#22 = VERTEX_POINT('',#23);
#23 = CARTESIAN_POINT('',(0.,3.323233679613,0.));
#24 = VERTEX_POINT('',#25);
#25 = CARTESIAN_POINT('',(150.,-0.299248288485,0.));
#26 = SURFACE_CURVE('',#27,(#39),.PCURVE_S1.);
#27 = B_SPLINE_CURVE_WITH_KNOTS('',1,(#28,#29,#30,#31,#32,#33,#34,#35,
    #36,#37,#38),.UNSPECIFIED.,.F.,.F.,(2,1,1,1,1,1,1,1,1,1,2),(0.,
    0.11900011953,0.164252506243,0.357997213919,0.524473181495,
    0.56254585244,0.598070417599,0.724700814658,0.74952742214,
    0.800842193425,1.),.UNSPECIFIED.);
#28 = CARTESIAN_POINT('',(0.,3.323233679613,0.));
#29 = CARTESIAN_POINT('',(17.267889348426,-2.762498019186,0.));
#30 = CARTESIAN_POINT('',(24.131295990962,-3.932165593179,0.));
#31 = CARTESIAN_POINT('',(53.791459160592,-0.958788903672,0.));
#32 = CARTESIAN_POINT('',(79.387771068165,-1.893232728205,0.));
#33 = CARTESIAN_POINT('',(85.245416285634,-1.922279489167,0.));
#34 = CARTESIAN_POINT('',(90.09912385607,-4.435271615434,0.));
#35 = CARTESIAN_POINT('',(108.67938377147,1.426155640185,0.));
#36 = CARTESIAN_POINT('',(112.14409478292,3.034291038816,0.));
#37 = CARTESIAN_POINT('',(119.35859483028,-0.172505114229,0.));
#38 = CARTESIAN_POINT('',(150.,-0.299248288485,0.));
#39 = PCURVE('',#40,#45);
#40 = PLANE('',#41);
#41 = AXIS2_PLACEMENT_3D('',#42,#43,#44);
#42 = CARTESIAN_POINT('',(76.578798729924,7.5,0.));
#43 = DIRECTION('',(0.,0.,1.));
#44 = DIRECTION('',(1.,0.,-0.));
#45 = DEFINITIONAL_REPRESENTATION('',(#46),#58);
#46 = B_SPLINE_CURVE_WITH_KNOTS('',1,(#47,#48,#49,#50,#51,#52,#53,#54,
    #55,#56,#57),.UNSPECIFIED.,.F.,.F.,(2,1,1,1,1,1,1,1,1,1,2),(0.,
    0.11900011953,0.164252506243,0.357997213919,0.524473181495,
    0.56254585244,0.598070417599,0.724700814658,0.74952742214,
    0.800842193425,1.),.UNSPECIFIED.);
#47 = CARTESIAN_POINT('',(-76.57879872992,-4.176766320387));
#48 = CARTESIAN_POINT('',(-59.31090938149,-10.26249801918));
#49 = CARTESIAN_POINT('',(-52.44750273896,-11.43216559317));
#50 = CARTESIAN_POINT('',(-22.78733956933,-8.458788903672));
#51 = CARTESIAN_POINT('',(2.808972338241,-9.393232728205));
#52 = CARTESIAN_POINT('',(8.66661755571,-9.422279489167));
#53 = CARTESIAN_POINT('',(13.520325126146,-11.93527161543));
#54 = CARTESIAN_POINT('',(32.100585041552,-6.073844359815));
#55 = CARTESIAN_POINT('',(35.565296053004,-4.465708961184));
#56 = CARTESIAN_POINT('',(42.779796100358,-7.672505114229));
#57 = CARTESIAN_POINT('',(73.421201270076,-7.799248288485));
#58 = ( GEOMETRIC_REPRESENTATION_CONTEXT(2) 
PARAMETRIC_REPRESENTATION_CONTEXT() REPRESENTATION_CONTEXT('2D SPACE',''
  ) );
#59 = ORIENTED_EDGE('',*,*,#60,.T.);
#60 = EDGE_CURVE('',#24,#61,#63,.T.);
#61 = VERTEX_POINT('',#62);
#62 = CARTESIAN_POINT('',(150.,15.299248288485,0.));
#63 = SURFACE_CURVE('',#64,(#68),.PCURVE_S1.);
#64 = LINE('',#65,#66);
#65 = CARTESIAN_POINT('',(150.,-0.299248288485,0.));
#66 = VECTOR('',#67,1.);
#67 = DIRECTION('',(0.,1.,0.));
#68 = PCURVE('',#40,#69);
#69 = DEFINITIONAL_REPRESENTATION('',(#70),#74);
#70 = LINE('',#71,#72);
#71 = CARTESIAN_POINT('',(73.421201270076,-7.799248288485));
#72 = VECTOR('',#73,1.);
#73 = DIRECTION('',(0.,1.));
#74 = ( GEOMETRIC_REPRESENTATION_CONTEXT(2) 
PARAMETRIC_REPRESENTATION_CONTEXT() REPRESENTATION_CONTEXT('2D SPACE',''
  ) );
#75 = ORIENTED_EDGE('',*,*,#76,.T.);
#76 = EDGE_CURVE('',#61,#77,#79,.T.);
#77 = VERTEX_POINT('',#78);
#78 = CARTESIAN_POINT('',(0.,11.676766320387,0.));
#79 = SURFACE_CURVE('',#80,(#92),.PCURVE_S1.);
#80 = B_SPLINE_CURVE_WITH_KNOTS('',1,(#81,#82,#83,#84,#85,#86,#87,#88,
    #89,#90,#91),.UNSPECIFIED.,.F.,.F.,(2,1,1,1,1,1,1,1,1,1,2),(0.,
    0.199157806575,0.25047257786,0.275299185342,0.401929582401,
    0.43745414756,0.475526818505,0.642002786081,0.835747493757,
    0.88099988047,1.),.UNSPECIFIED.);
#81 = CARTESIAN_POINT('',(150.,15.299248288485,0.));
#82 = CARTESIAN_POINT('',(119.35859483028,15.172505114229,0.));
#83 = CARTESIAN_POINT('',(112.14409478292,11.965708961184,0.));
#84 = CARTESIAN_POINT('',(108.67938377147,13.573844359815,0.));
#85 = CARTESIAN_POINT('',(90.09912385607,19.435271615434,0.));
#86 = CARTESIAN_POINT('',(85.245416285634,16.922279489167,0.));
#87 = CARTESIAN_POINT('',(79.387771068165,16.893232728205,0.));
#88 = CARTESIAN_POINT('',(53.791459160592,15.958788903672,0.));
#89 = CARTESIAN_POINT('',(24.131295990962,18.932165593179,0.));
#90 = CARTESIAN_POINT('',(17.267889348426,17.762498019186,0.));
#91 = CARTESIAN_POINT('',(0.,11.676766320387,0.));
#92 = PCURVE('',#40,#93);
#93 = DEFINITIONAL_REPRESENTATION('',(#94),#106);
#94 = B_SPLINE_CURVE_WITH_KNOTS('',1,(#95,#96,#97,#98,#99,#100,#101,#102
    ,#103,#104,#105),.UNSPECIFIED.,.F.,.F.,(2,1,1,1,1,1,1,1,1,1,2),(0.,
    0.199157806575,0.25047257786,0.275299185342,0.401929582401,
    0.43745414756,0.475526818505,0.642002786081,0.835747493757,
    0.88099988047,1.),.UNSPECIFIED.);
#95 = CARTESIAN_POINT('',(73.421201270076,7.799248288485));
#96 = CARTESIAN_POINT('',(42.779796100358,7.672505114229));
#97 = CARTESIAN_POINT('',(35.565296053004,4.465708961184));
#98 = CARTESIAN_POINT('',(32.100585041552,6.073844359815));
#99 = CARTESIAN_POINT('',(13.520325126146,11.935271615434));
#100 = CARTESIAN_POINT('',(8.66661755571,9.422279489167));
#101 = CARTESIAN_POINT('',(2.808972338241,9.393232728205));
#102 = CARTESIAN_POINT('',(-22.78733956933,8.458788903672));
#103 = CARTESIAN_POINT('',(-52.44750273896,11.432165593179));
#104 = CARTESIAN_POINT('',(-59.31090938149,10.262498019186));
#105 = CARTESIAN_POINT('',(-76.57879872992,4.176766320387));
#106 = ( GEOMETRIC_REPRESENTATION_CONTEXT(2) 
PARAMETRIC_REPRESENTATION_CONTEXT() REPRESENTATION_CONTEXT('2D SPACE',''
  ) );
#107 = ORIENTED_EDGE('',*,*,#108,.T.);
#108 = EDGE_CURVE('',#77,#22,#109,.T.);
#109 = SURFACE_CURVE('',#110,(#114),.PCURVE_S1.);
#110 = LINE('',#111,#112);
#111 = CARTESIAN_POINT('',(0.,11.676766320387,0.));
#112 = VECTOR('',#113,1.);
#113 = DIRECTION('',(0.,-1.,0.));
#114 = PCURVE('',#40,#115);
#115 = DEFINITIONAL_REPRESENTATION('',(#116),#120);
#116 = LINE('',#117,#118);
#117 = CARTESIAN_POINT('',(-76.57879872992,4.176766320387));
#118 = VECTOR('',#119,1.);
#119 = DIRECTION('',(0.,-1.));
#120 = ( GEOMETRIC_REPRESENTATION_CONTEXT(2) 
PARAMETRIC_REPRESENTATION_CONTEXT() REPRESENTATION_CONTEXT('2D SPACE',''
  ) );
#121 = ( GEOMETRIC_REPRESENTATION_CONTEXT(3) 
GLOBAL_UNCERTAINTY_ASSIGNED_CONTEXT((#125)) GLOBAL_UNIT_ASSIGNED_CONTEXT
((#122,#123,#124)) REPRESENTATION_CONTEXT('Context #1',
  '3D Context with UNIT and UNCERTAINTY') );
#122 = ( LENGTH_UNIT() NAMED_UNIT(*) SI_UNIT(.MILLI.,.METRE.) );
#123 = ( NAMED_UNIT(*) PLANE_ANGLE_UNIT() SI_UNIT($,.RADIAN.) );
#124 = ( NAMED_UNIT(*) SI_UNIT($,.STERADIAN.) SOLID_ANGLE_UNIT() );
#125 = UNCERTAINTY_MEASURE_WITH_UNIT(LENGTH_MEASURE(1.E-07),#122,
  'distance_accuracy_value','confusion accuracy');
#126 = PRODUCT_RELATED_PRODUCT_CATEGORY('part',$,(#7));
ENDSEC;
END-ISO-10303-21;
