ISO-10303-21;
HEADER;
FILE_DESCRIPTION(('Open CASCADE Model'),'2;1');
FILE_NAME('Open CASCADE Shape Model','2026-06-04T12:09:58',('Author'),(
    'Open CASCADE'),'Open CASCADE STEP processor 7.9','Open CASCADE 7.9'
  ,'Unknown');
FILE_SCHEMA(('AUTOMOTIVE_DESIGN { 1 0 10303 214 1 1 1 1 }'));
ENDSEC;
DATA;
#1 = APPLICATION_PROTOCOL_DEFINITION('international standard',
  'automotive_design',2000,#2);
#2 = APPLICATION_CONTEXT(
  'core data for automotive mechanical design processes');
#3 = SHAPE_DEFINITION_REPRESENTATION(#4,#10);
#4 = PRODUCT_DEFINITION_SHAPE('','',#5);
#5 = PRODUCT_DEFINITION('design','',#6,#9);
#6 = PRODUCT_DEFINITION_FORMATION('','',#7);
#7 = PRODUCT('Open CASCADE STEP translator 7.9 12',
  'Open CASCADE STEP translator 7.9 12','',(#8));
#8 = PRODUCT_CONTEXT('',#2,'mechanical');
#9 = PRODUCT_DEFINITION_CONTEXT('part definition',#2,'design');
#10 = MANIFOLD_SURFACE_SHAPE_REPRESENTATION('',(#11,#15),#121);
#11 = AXIS2_PLACEMENT_3D('',#12,#13,#14);
#12 = CARTESIAN_POINT('',(0.,0.,0.));
#13 = DIRECTION('',(0.,0.,1.));
#14 = DIRECTION('',(1.,0.,-0.));
#15 = SHELL_BASED_SURFACE_MODEL('',(#16));
#16 = OPEN_SHELL('',(#17));
#17 = ADVANCED_FACE('',(#18),#40,.T.);
#18 = FACE_BOUND('',#19,.T.);
#19 = EDGE_LOOP('',(#20,#59,#75,#107));
#20 = ORIENTED_EDGE('',*,*,#21,.T.);
#21 = EDGE_CURVE('',#22,#24,#26,.T.);
#22 = VERTEX_POINT('',#23);
#23 = CARTESIAN_POINT('',(0.,-0.184617543594,0.));
#24 = VERTEX_POINT('',#25);
#25 = CARTESIAN_POINT('',(150.,1.512962622292,0.));
#26 = SURFACE_CURVE('',#27,(#39),.PCURVE_S1.);
#27 = B_SPLINE_CURVE_WITH_KNOTS('',1,(#28,#29,#30,#31,#32,#33,#34,#35,
    #36,#37,#38),.UNSPECIFIED.,.F.,.F.,(2,1,1,1,1,1,1,1,1,1,2),(0.,
    4.04858807537E-02,0.151011621451,0.357923635106,0.403517840046,
    0.694065264257,0.717825931309,0.741785678986,0.878762477774,
    0.941428185999,1.),.UNSPECIFIED.);
#28 = CARTESIAN_POINT('',(0.,-0.184617543594,0.));
#29 = CARTESIAN_POINT('',(6.095185271632,-0.6360949242,0.));
#30 = CARTESIAN_POINT('',(22.706457928304,-2.206433722656,0.));
#31 = CARTESIAN_POINT('',(53.902201943554,-0.618642944032,0.));
#32 = CARTESIAN_POINT('',(60.689651950789,0.524570584358,0.));
#33 = CARTESIAN_POINT('',(104.5510520816,0.754895739557,0.));
#34 = CARTESIAN_POINT('',(108.12460427638,0.444707481759,0.));
#35 = CARTESIAN_POINT('',(111.4777324717,-0.91158615348,0.));
#36 = CARTESIAN_POINT('',(132.11571842754,-2.204943790514,0.));
#37 = CARTESIAN_POINT('',(141.24466568999,0.276618707542,0.));
#38 = CARTESIAN_POINT('',(150.,1.512962622292,0.));
#39 = PCURVE('',#40,#45);
#40 = PLANE('',#41);
#41 = AXIS2_PLACEMENT_3D('',#42,#43,#44);
#42 = CARTESIAN_POINT('',(74.404076190485,7.5,0.));
#43 = DIRECTION('',(0.,0.,1.));
#44 = DIRECTION('',(1.,0.,-0.));
#45 = DEFINITIONAL_REPRESENTATION('',(#46),#58);
#46 = B_SPLINE_CURVE_WITH_KNOTS('',1,(#47,#48,#49,#50,#51,#52,#53,#54,
    #55,#56,#57),.UNSPECIFIED.,.F.,.F.,(2,1,1,1,1,1,1,1,1,1,2),(0.,
    4.04858807537E-02,0.151011621451,0.357923635106,0.403517840046,
    0.694065264257,0.717825931309,0.741785678986,0.878762477774,
    0.941428185999,1.),.UNSPECIFIED.);
#47 = CARTESIAN_POINT('',(-74.40407619048,-7.684617543594));
#48 = CARTESIAN_POINT('',(-68.30889091885,-8.1360949242));
#49 = CARTESIAN_POINT('',(-51.69761826218,-9.706433722656));
#50 = CARTESIAN_POINT('',(-20.50187424693,-8.118642944032));
#51 = CARTESIAN_POINT('',(-13.71442423969,-6.975429415642));
#52 = CARTESIAN_POINT('',(30.146975891118,-6.745104260443));
#53 = CARTESIAN_POINT('',(33.720528085902,-7.055292518241));
#54 = CARTESIAN_POINT('',(37.073656281217,-8.41158615348));
#55 = CARTESIAN_POINT('',(57.71164223706,-9.704943790514));
#56 = CARTESIAN_POINT('',(66.840589499507,-7.223381292458));
#57 = CARTESIAN_POINT('',(75.595923809515,-5.987037377708));
#58 = ( GEOMETRIC_REPRESENTATION_CONTEXT(2) 
PARAMETRIC_REPRESENTATION_CONTEXT() REPRESENTATION_CONTEXT('2D SPACE',''
  ) );
#59 = ORIENTED_EDGE('',*,*,#60,.T.);
#60 = EDGE_CURVE('',#24,#61,#63,.T.);
#61 = VERTEX_POINT('',#62);
#62 = CARTESIAN_POINT('',(150.,13.487037377708,0.));
#63 = SURFACE_CURVE('',#64,(#68),.PCURVE_S1.);
#64 = LINE('',#65,#66);
#65 = CARTESIAN_POINT('',(150.,1.512962622292,0.));
#66 = VECTOR('',#67,1.);
#67 = DIRECTION('',(0.,1.,0.));
#68 = PCURVE('',#40,#69);
#69 = DEFINITIONAL_REPRESENTATION('',(#70),#74);
#70 = LINE('',#71,#72);
#71 = CARTESIAN_POINT('',(75.595923809515,-5.987037377708));
#72 = VECTOR('',#73,1.);
#73 = DIRECTION('',(0.,1.));
#74 = ( GEOMETRIC_REPRESENTATION_CONTEXT(2) 
PARAMETRIC_REPRESENTATION_CONTEXT() REPRESENTATION_CONTEXT('2D SPACE',''
  ) );
#75 = ORIENTED_EDGE('',*,*,#76,.T.);
#76 = EDGE_CURVE('',#61,#77,#79,.T.);
#77 = VERTEX_POINT('',#78);
#78 = CARTESIAN_POINT('',(0.,15.184617543594,0.));
#79 = SURFACE_CURVE('',#80,(#92),.PCURVE_S1.);
#80 = B_SPLINE_CURVE_WITH_KNOTS('',1,(#81,#82,#83,#84,#85,#86,#87,#88,
    #89,#90,#91),.UNSPECIFIED.,.F.,.F.,(2,1,1,1,1,1,1,1,1,1,2),(0.,
    5.857181400105E-02,0.121237522226,0.258214321014,0.282174068691,
    0.305934735743,0.596482159954,0.642076364894,0.848988378549,
    0.959514119246,1.),.UNSPECIFIED.);
#81 = CARTESIAN_POINT('',(150.,13.487037377708,0.));
#82 = CARTESIAN_POINT('',(141.24466568999,14.723381292458,0.));
#83 = CARTESIAN_POINT('',(132.11571842754,17.204943790514,0.));
#84 = CARTESIAN_POINT('',(111.4777324717,15.91158615348,0.));
#85 = CARTESIAN_POINT('',(108.12460427638,14.555292518241,0.));
#86 = CARTESIAN_POINT('',(104.5510520816,14.245104260443,0.));
#87 = CARTESIAN_POINT('',(60.689651950789,14.475429415642,0.));
#88 = CARTESIAN_POINT('',(53.902201943554,15.618642944032,0.));
#89 = CARTESIAN_POINT('',(22.706457928304,17.206433722656,0.));
#90 = CARTESIAN_POINT('',(6.095185271632,15.6360949242,0.));
#91 = CARTESIAN_POINT('',(0.,15.184617543594,0.));
#92 = PCURVE('',#40,#93);
#93 = DEFINITIONAL_REPRESENTATION('',(#94),#106);
#94 = B_SPLINE_CURVE_WITH_KNOTS('',1,(#95,#96,#97,#98,#99,#100,#101,#102
    ,#103,#104,#105),.UNSPECIFIED.,.F.,.F.,(2,1,1,1,1,1,1,1,1,1,2),(0.,
    5.857181400105E-02,0.121237522226,0.258214321014,0.282174068691,
    0.305934735743,0.596482159954,0.642076364894,0.848988378549,
    0.959514119246,1.),.UNSPECIFIED.);
#95 = CARTESIAN_POINT('',(75.595923809515,5.987037377708));
#96 = CARTESIAN_POINT('',(66.840589499507,7.223381292458));
#97 = CARTESIAN_POINT('',(57.71164223706,9.704943790514));
#98 = CARTESIAN_POINT('',(37.073656281217,8.41158615348));
#99 = CARTESIAN_POINT('',(33.720528085902,7.055292518241));
#100 = CARTESIAN_POINT('',(30.146975891118,6.745104260443));
#101 = CARTESIAN_POINT('',(-13.71442423969,6.975429415642));
#102 = CARTESIAN_POINT('',(-20.50187424693,8.118642944032));
#103 = CARTESIAN_POINT('',(-51.69761826218,9.706433722656));
#104 = CARTESIAN_POINT('',(-68.30889091885,8.1360949242));
#105 = CARTESIAN_POINT('',(-74.40407619048,7.684617543594));
#106 = ( GEOMETRIC_REPRESENTATION_CONTEXT(2) 
PARAMETRIC_REPRESENTATION_CONTEXT() REPRESENTATION_CONTEXT('2D SPACE',''
  ) );
#107 = ORIENTED_EDGE('',*,*,#108,.T.);
#108 = EDGE_CURVE('',#77,#22,#109,.T.);
#109 = SURFACE_CURVE('',#110,(#114),.PCURVE_S1.);
#110 = LINE('',#111,#112);
#111 = CARTESIAN_POINT('',(0.,15.184617543594,0.));
#112 = VECTOR('',#113,1.);
#113 = DIRECTION('',(0.,-1.,0.));
#114 = PCURVE('',#40,#115);
#115 = DEFINITIONAL_REPRESENTATION('',(#116),#120);
#116 = LINE('',#117,#118);
#117 = CARTESIAN_POINT('',(-74.40407619048,7.684617543594));
#118 = VECTOR('',#119,1.);
#119 = DIRECTION('',(0.,-1.));
#120 = ( GEOMETRIC_REPRESENTATION_CONTEXT(2) 
PARAMETRIC_REPRESENTATION_CONTEXT() REPRESENTATION_CONTEXT('2D SPACE',''
  ) );
#121 = ( GEOMETRIC_REPRESENTATION_CONTEXT(3) 
GLOBAL_UNCERTAINTY_ASSIGNED_CONTEXT((#125)) GLOBAL_UNIT_ASSIGNED_CONTEXT
((#122,#123,#124)) REPRESENTATION_CONTEXT('Context #1',
  '3D Context with UNIT and UNCERTAINTY') );
#122 = ( LENGTH_UNIT() NAMED_UNIT(*) SI_UNIT(.MILLI.,.METRE.) );
#123 = ( NAMED_UNIT(*) PLANE_ANGLE_UNIT() SI_UNIT($,.RADIAN.) );
#124 = ( NAMED_UNIT(*) SI_UNIT($,.STERADIAN.) SOLID_ANGLE_UNIT() );
#125 = UNCERTAINTY_MEASURE_WITH_UNIT(LENGTH_MEASURE(1.E-07),#122,
  'distance_accuracy_value','confusion accuracy');
#126 = PRODUCT_RELATED_PRODUCT_CATEGORY('part',$,(#7));
ENDSEC;
END-ISO-10303-21;
