ISO-10303-21;
HEADER;
FILE_DESCRIPTION(('Open CASCADE Model'),'2;1');
FILE_NAME('Open CASCADE Shape Model','2026-06-01T11:13:06',('Author'),(
    'Open CASCADE'),'Open CASCADE STEP processor 7.9','Open CASCADE 7.9'
  ,'Unknown');
FILE_SCHEMA(('AUTOMOTIVE_DESIGN { 1 0 10303 214 1 1 1 1 }'));
ENDSEC;
DATA;
#1 = APPLICATION_PROTOCOL_DEFINITION('international standard',
  'automotive_design',2000,#2);
#2 = APPLICATION_CONTEXT(
  'core data for automotive mechanical design processes');
#3 = SHAPE_DEFINITION_REPRESENTATION(#4,#10);
#4 = PRODUCT_DEFINITION_SHAPE('','',#5);
#5 = PRODUCT_DEFINITION('design','',#6,#9);
#6 = PRODUCT_DEFINITION_FORMATION('','',#7);
#7 = PRODUCT('Open CASCADE STEP translator 7.9 96',
  'Open CASCADE STEP translator 7.9 96','',(#8));
#8 = PRODUCT_CONTEXT('',#2,'mechanical');
#9 = PRODUCT_DEFINITION_CONTEXT('part definition',#2,'design');
#10 = MANIFOLD_SURFACE_SHAPE_REPRESENTATION('',(#11,#15),#121);
#11 = AXIS2_PLACEMENT_3D('',#12,#13,#14);
#12 = CARTESIAN_POINT('',(0.,0.,0.));
#13 = DIRECTION('',(0.,0.,1.));
#14 = DIRECTION('',(1.,0.,-0.));
#15 = SHELL_BASED_SURFACE_MODEL('',(#16));
#16 = OPEN_SHELL('',(#17));
#17 = ADVANCED_FACE('',(#18),#40,.T.);
#18 = FACE_BOUND('',#19,.T.);
#19 = EDGE_LOOP('',(#20,#59,#75,#107));
#20 = ORIENTED_EDGE('',*,*,#21,.T.);
#21 = EDGE_CURVE('',#22,#24,#26,.T.);
#22 = VERTEX_POINT('',#23);
#23 = CARTESIAN_POINT('',(0.,-3.981638257277,0.));
#24 = VERTEX_POINT('',#25);
#25 = CARTESIAN_POINT('',(150.,0.495560150757,0.));
#26 = SURFACE_CURVE('',#27,(#39),.PCURVE_S1.);
#27 = B_SPLINE_CURVE_WITH_KNOTS('',1,(#28,#29,#30,#31,#32,#33,#34,#35,
    #36,#37,#38),.UNSPECIFIED.,.F.,.F.,(2,1,1,1,1,1,1,1,1,1,2),(0.,
    0.173622503728,0.220894961786,0.286818447824,0.414359268066,
    0.456725369298,0.602513298569,0.721285179587,0.879432702019,
    0.939253721232,1.),.UNSPECIFIED.);
#28 = CARTESIAN_POINT('',(0.,-3.981638257277,0.));
#29 = CARTESIAN_POINT('',(26.784976795319,4.299580614334,0.));
#30 = CARTESIAN_POINT('',(32.362099866513,-0.912354865302,0.));
#31 = CARTESIAN_POINT('',(42.906278523117,-2.374596605595,0.));
#32 = CARTESIAN_POINT('',(63.044785738072,1.936731702151,0.));
#33 = CARTESIAN_POINT('',(68.175846806573,-2.588000263769,0.));
#34 = CARTESIAN_POINT('',(91.675678287506,-1.191195456897,0.));
#35 = CARTESIAN_POINT('',(110.66759095415,-3.86246369044,0.));
#36 = CARTESIAN_POINT('',(136.2004177798,-4.329043302184,0.));
#37 = CARTESIAN_POINT('',(140.88464214135,4.118884974012,0.));
#38 = CARTESIAN_POINT('',(150.,0.495560150757,0.));
#39 = PCURVE('',#40,#45);
#40 = PLANE('',#41);
#41 = AXIS2_PLACEMENT_3D('',#42,#43,#44);
#42 = CARTESIAN_POINT('',(74.078584824934,7.5,0.));
#43 = DIRECTION('',(0.,0.,1.));
#44 = DIRECTION('',(1.,0.,-0.));
#45 = DEFINITIONAL_REPRESENTATION('',(#46),#58);
#46 = B_SPLINE_CURVE_WITH_KNOTS('',1,(#47,#48,#49,#50,#51,#52,#53,#54,
    #55,#56,#57),.UNSPECIFIED.,.F.,.F.,(2,1,1,1,1,1,1,1,1,1,2),(0.,
    0.173622503728,0.220894961786,0.286818447824,0.414359268066,
    0.456725369298,0.602513298569,0.721285179587,0.879432702019,
    0.939253721232,1.),.UNSPECIFIED.);
#47 = CARTESIAN_POINT('',(-74.07858482493,-11.48163825727));
#48 = CARTESIAN_POINT('',(-47.29360802961,-3.200419385666));
#49 = CARTESIAN_POINT('',(-41.71648495842,-8.412354865302));
#50 = CARTESIAN_POINT('',(-31.17230630181,-9.874596605595));
#51 = CARTESIAN_POINT('',(-11.03379908686,-5.563268297849));
#52 = CARTESIAN_POINT('',(-5.902738018361,-10.08800026376));
#53 = CARTESIAN_POINT('',(17.597093462572,-8.691195456897));
#54 = CARTESIAN_POINT('',(36.589006129223,-11.36246369044));
#55 = CARTESIAN_POINT('',(62.121832954867,-11.82904330218));
#56 = CARTESIAN_POINT('',(66.806057316423,-3.381115025988));
#57 = CARTESIAN_POINT('',(75.921415175066,-7.004439849243));
#58 = ( GEOMETRIC_REPRESENTATION_CONTEXT(2) 
PARAMETRIC_REPRESENTATION_CONTEXT() REPRESENTATION_CONTEXT('2D SPACE',''
  ) );
#59 = ORIENTED_EDGE('',*,*,#60,.T.);
#60 = EDGE_CURVE('',#24,#61,#63,.T.);
#61 = VERTEX_POINT('',#62);
#62 = CARTESIAN_POINT('',(150.,14.504439849243,0.));
#63 = SURFACE_CURVE('',#64,(#68),.PCURVE_S1.);
#64 = LINE('',#65,#66);
#65 = CARTESIAN_POINT('',(150.,0.495560150757,0.));
#66 = VECTOR('',#67,1.);
#67 = DIRECTION('',(0.,1.,0.));
#68 = PCURVE('',#40,#69);
#69 = DEFINITIONAL_REPRESENTATION('',(#70),#74);
#70 = LINE('',#71,#72);
#71 = CARTESIAN_POINT('',(75.921415175066,-7.004439849243));
#72 = VECTOR('',#73,1.);
#73 = DIRECTION('',(0.,1.));
#74 = ( GEOMETRIC_REPRESENTATION_CONTEXT(2) 
PARAMETRIC_REPRESENTATION_CONTEXT() REPRESENTATION_CONTEXT('2D SPACE',''
  ) );
#75 = ORIENTED_EDGE('',*,*,#76,.T.);
#76 = EDGE_CURVE('',#61,#77,#79,.T.);
#77 = VERTEX_POINT('',#78);
#78 = CARTESIAN_POINT('',(0.,18.981638257277,0.));
#79 = SURFACE_CURVE('',#80,(#92),.PCURVE_S1.);
#80 = B_SPLINE_CURVE_WITH_KNOTS('',1,(#81,#82,#83,#84,#85,#86,#87,#88,
    #89,#90,#91),.UNSPECIFIED.,.F.,.F.,(2,1,1,1,1,1,1,1,1,1,2),(0.,
    6.074627876776E-02,0.120567297981,0.278714820413,0.397486701431,
    0.543274630702,0.585640731934,0.713181552176,0.779105038214,
    0.826377496272,1.),.UNSPECIFIED.);
#81 = CARTESIAN_POINT('',(150.,14.504439849243,0.));
#82 = CARTESIAN_POINT('',(140.88464214135,10.881115025988,0.));
#83 = CARTESIAN_POINT('',(136.2004177798,19.329043302184,0.));
#84 = CARTESIAN_POINT('',(110.66759095415,18.86246369044,0.));
#85 = CARTESIAN_POINT('',(91.675678287506,16.191195456897,0.));
#86 = CARTESIAN_POINT('',(68.175846806573,17.588000263769,0.));
#87 = CARTESIAN_POINT('',(63.044785738072,13.063268297849,0.));
#88 = CARTESIAN_POINT('',(42.906278523117,17.374596605595,0.));
#89 = CARTESIAN_POINT('',(32.362099866513,15.912354865302,0.));
#90 = CARTESIAN_POINT('',(26.784976795319,10.700419385666,0.));
#91 = CARTESIAN_POINT('',(0.,18.981638257277,0.));
#92 = PCURVE('',#40,#93);
#93 = DEFINITIONAL_REPRESENTATION('',(#94),#106);
#94 = B_SPLINE_CURVE_WITH_KNOTS('',1,(#95,#96,#97,#98,#99,#100,#101,#102
    ,#103,#104,#105),.UNSPECIFIED.,.F.,.F.,(2,1,1,1,1,1,1,1,1,1,2),(0.,
    6.074627876776E-02,0.120567297981,0.278714820413,0.397486701431,
    0.543274630702,0.585640731934,0.713181552176,0.779105038214,
    0.826377496272,1.),.UNSPECIFIED.);
#95 = CARTESIAN_POINT('',(75.921415175066,7.004439849243));
#96 = CARTESIAN_POINT('',(66.806057316423,3.381115025988));
#97 = CARTESIAN_POINT('',(62.121832954867,11.829043302184));
#98 = CARTESIAN_POINT('',(36.589006129223,11.36246369044));
#99 = CARTESIAN_POINT('',(17.597093462572,8.691195456897));
#100 = CARTESIAN_POINT('',(-5.902738018361,10.088000263769));
#101 = CARTESIAN_POINT('',(-11.03379908686,5.563268297849));
#102 = CARTESIAN_POINT('',(-31.17230630181,9.874596605595));
#103 = CARTESIAN_POINT('',(-41.71648495842,8.412354865302));
#104 = CARTESIAN_POINT('',(-47.29360802961,3.200419385666));
#105 = CARTESIAN_POINT('',(-74.07858482493,11.481638257277));
#106 = ( GEOMETRIC_REPRESENTATION_CONTEXT(2) 
PARAMETRIC_REPRESENTATION_CONTEXT() REPRESENTATION_CONTEXT('2D SPACE',''
  ) );
#107 = ORIENTED_EDGE('',*,*,#108,.T.);
#108 = EDGE_CURVE('',#77,#22,#109,.T.);
#109 = SURFACE_CURVE('',#110,(#114),.PCURVE_S1.);
#110 = LINE('',#111,#112);
#111 = CARTESIAN_POINT('',(0.,18.981638257277,0.));
#112 = VECTOR('',#113,1.);
#113 = DIRECTION('',(0.,-1.,0.));
#114 = PCURVE('',#40,#115);
#115 = DEFINITIONAL_REPRESENTATION('',(#116),#120);
#116 = LINE('',#117,#118);
#117 = CARTESIAN_POINT('',(-74.07858482493,11.481638257277));
#118 = VECTOR('',#119,1.);
#119 = DIRECTION('',(0.,-1.));
#120 = ( GEOMETRIC_REPRESENTATION_CONTEXT(2) 
PARAMETRIC_REPRESENTATION_CONTEXT() REPRESENTATION_CONTEXT('2D SPACE',''
  ) );
#121 = ( GEOMETRIC_REPRESENTATION_CONTEXT(3) 
GLOBAL_UNCERTAINTY_ASSIGNED_CONTEXT((#125)) GLOBAL_UNIT_ASSIGNED_CONTEXT
((#122,#123,#124)) REPRESENTATION_CONTEXT('Context #1',
  '3D Context with UNIT and UNCERTAINTY') );
#122 = ( LENGTH_UNIT() NAMED_UNIT(*) SI_UNIT(.MILLI.,.METRE.) );
#123 = ( NAMED_UNIT(*) PLANE_ANGLE_UNIT() SI_UNIT($,.RADIAN.) );
#124 = ( NAMED_UNIT(*) SI_UNIT($,.STERADIAN.) SOLID_ANGLE_UNIT() );
#125 = UNCERTAINTY_MEASURE_WITH_UNIT(LENGTH_MEASURE(1.E-07),#122,
  'distance_accuracy_value','confusion accuracy');
#126 = PRODUCT_RELATED_PRODUCT_CATEGORY('part',$,(#7));
ENDSEC;
END-ISO-10303-21;
