ISO-10303-21;
HEADER;
FILE_DESCRIPTION(('Open CASCADE Model'),'2;1');
FILE_NAME('Open CASCADE Shape Model','2026-06-04T12:09:59',('Author'),(
    'Open CASCADE'),'Open CASCADE STEP processor 7.9','Open CASCADE 7.9'
  ,'Unknown');
FILE_SCHEMA(('AUTOMOTIVE_DESIGN { 1 0 10303 214 1 1 1 1 }'));
ENDSEC;
DATA;
#1 = APPLICATION_PROTOCOL_DEFINITION('international standard',
  'automotive_design',2000,#2);
#2 = APPLICATION_CONTEXT(
  'core data for automotive mechanical design processes');
#3 = SHAPE_DEFINITION_REPRESENTATION(#4,#10);
#4 = PRODUCT_DEFINITION_SHAPE('','',#5);
#5 = PRODUCT_DEFINITION('design','',#6,#9);
#6 = PRODUCT_DEFINITION_FORMATION('','',#7);
#7 = PRODUCT('Open CASCADE STEP translator 7.9 94',
  'Open CASCADE STEP translator 7.9 94','',(#8));
#8 = PRODUCT_CONTEXT('',#2,'mechanical');
#9 = PRODUCT_DEFINITION_CONTEXT('part definition',#2,'design');
#10 = MANIFOLD_SURFACE_SHAPE_REPRESENTATION('',(#11,#15),#121);
#11 = AXIS2_PLACEMENT_3D('',#12,#13,#14);
#12 = CARTESIAN_POINT('',(0.,0.,0.));
#13 = DIRECTION('',(0.,0.,1.));
#14 = DIRECTION('',(1.,0.,-0.));
#15 = SHELL_BASED_SURFACE_MODEL('',(#16));
#16 = OPEN_SHELL('',(#17));
#17 = ADVANCED_FACE('',(#18),#40,.T.);
#18 = FACE_BOUND('',#19,.T.);
#19 = EDGE_LOOP('',(#20,#59,#75,#107));
#20 = ORIENTED_EDGE('',*,*,#21,.T.);
#21 = EDGE_CURVE('',#22,#24,#26,.T.);
#22 = VERTEX_POINT('',#23);
#23 = CARTESIAN_POINT('',(0.,0.148166292698,0.));
#24 = VERTEX_POINT('',#25);
#25 = CARTESIAN_POINT('',(150.,2.304606808085,0.));
#26 = SURFACE_CURVE('',#27,(#39),.PCURVE_S1.);
#27 = B_SPLINE_CURVE_WITH_KNOTS('',1,(#28,#29,#30,#31,#32,#33,#34,#35,
    #36,#37,#38),.UNSPECIFIED.,.F.,.F.,(2,1,1,1,1,1,1,1,1,1,2),(0.,
    0.225967694394,0.382111046464,0.410303270879,0.529160897097,
    0.628583768218,0.714740467199,0.745771962074,0.859184661574,
    0.948197450414,1.),.UNSPECIFIED.);
#28 = CARTESIAN_POINT('',(0.,0.148166292698,0.));
#29 = CARTESIAN_POINT('',(34.410924814286,-1.522624077864,0.));
#30 = CARTESIAN_POINT('',(58.050186381481,1.289265597509,0.));
#31 = CARTESIAN_POINT('',(62.337975821744,0.989718734969,0.));
#32 = CARTESIAN_POINT('',(80.198335470419,-2.074196403882,0.));
#33 = CARTESIAN_POINT('',(95.230095449684,-0.120431473569,0.));
#34 = CARTESIAN_POINT('',(108.2222623508,-2.056391812839,0.));
#35 = CARTESIAN_POINT('',(112.31229367488,0.321663047138,0.));
#36 = CARTESIAN_POINT('',(129.33416234937,-2.717850969361,0.));
#37 = CARTESIAN_POINT('',(142.78356215058,-0.904767538306,0.));
#38 = CARTESIAN_POINT('',(150.,2.304606808085,0.));
#39 = PCURVE('',#40,#45);
#40 = PLANE('',#41);
#41 = AXIS2_PLACEMENT_3D('',#42,#43,#44);
#42 = CARTESIAN_POINT('',(74.554388648561,7.5,0.));
#43 = DIRECTION('',(0.,0.,1.));
#44 = DIRECTION('',(1.,0.,-0.));
#45 = DEFINITIONAL_REPRESENTATION('',(#46),#58);
#46 = B_SPLINE_CURVE_WITH_KNOTS('',1,(#47,#48,#49,#50,#51,#52,#53,#54,
    #55,#56,#57),.UNSPECIFIED.,.F.,.F.,(2,1,1,1,1,1,1,1,1,1,2),(0.,
    0.225967694394,0.382111046464,0.410303270879,0.529160897097,
    0.628583768218,0.714740467199,0.745771962074,0.859184661574,
    0.948197450414,1.),.UNSPECIFIED.);
#47 = CARTESIAN_POINT('',(-74.55438864856,-7.351833707302));
#48 = CARTESIAN_POINT('',(-40.14346383427,-9.022624077864));
#49 = CARTESIAN_POINT('',(-16.50420226708,-6.210734402491));
#50 = CARTESIAN_POINT('',(-12.21641282681,-6.510281265031));
#51 = CARTESIAN_POINT('',(5.643946821858,-9.574196403882));
#52 = CARTESIAN_POINT('',(20.675706801123,-7.620431473569));
#53 = CARTESIAN_POINT('',(33.667873702244,-9.556391812839));
#54 = CARTESIAN_POINT('',(37.757905026321,-7.178336952862));
#55 = CARTESIAN_POINT('',(54.779773700817,-10.21785096936));
#56 = CARTESIAN_POINT('',(68.229173502019,-8.404767538306));
#57 = CARTESIAN_POINT('',(75.445611351439,-5.195393191915));
#58 = ( GEOMETRIC_REPRESENTATION_CONTEXT(2) 
PARAMETRIC_REPRESENTATION_CONTEXT() REPRESENTATION_CONTEXT('2D SPACE',''
  ) );
#59 = ORIENTED_EDGE('',*,*,#60,.T.);
#60 = EDGE_CURVE('',#24,#61,#63,.T.);
#61 = VERTEX_POINT('',#62);
#62 = CARTESIAN_POINT('',(150.,12.695393191915,0.));
#63 = SURFACE_CURVE('',#64,(#68),.PCURVE_S1.);
#64 = LINE('',#65,#66);
#65 = CARTESIAN_POINT('',(150.,2.304606808085,0.));
#66 = VECTOR('',#67,1.);
#67 = DIRECTION('',(0.,1.,0.));
#68 = PCURVE('',#40,#69);
#69 = DEFINITIONAL_REPRESENTATION('',(#70),#74);
#70 = LINE('',#71,#72);
#71 = CARTESIAN_POINT('',(75.445611351439,-5.195393191915));
#72 = VECTOR('',#73,1.);
#73 = DIRECTION('',(0.,1.));
#74 = ( GEOMETRIC_REPRESENTATION_CONTEXT(2) 
PARAMETRIC_REPRESENTATION_CONTEXT() REPRESENTATION_CONTEXT('2D SPACE',''
  ) );
#75 = ORIENTED_EDGE('',*,*,#76,.T.);
#76 = EDGE_CURVE('',#61,#77,#79,.T.);
#77 = VERTEX_POINT('',#78);
#78 = CARTESIAN_POINT('',(0.,14.851833707302,0.));
#79 = SURFACE_CURVE('',#80,(#92),.PCURVE_S1.);
#80 = B_SPLINE_CURVE_WITH_KNOTS('',1,(#81,#82,#83,#84,#85,#86,#87,#88,
    #89,#90,#91),.UNSPECIFIED.,.F.,.F.,(2,1,1,1,1,1,1,1,1,1,2),(0.,
    5.180254958613E-02,0.140815338426,0.254228037926,0.285259532801,
    0.371416231782,0.470839102903,0.589696729121,0.617888953536,
    0.774032305606,1.),.UNSPECIFIED.);
#81 = CARTESIAN_POINT('',(150.,12.695393191915,0.));
#82 = CARTESIAN_POINT('',(142.78356215058,15.904767538306,0.));
#83 = CARTESIAN_POINT('',(129.33416234937,17.717850969361,0.));
#84 = CARTESIAN_POINT('',(112.31229367488,14.678336952862,0.));
#85 = CARTESIAN_POINT('',(108.2222623508,17.056391812839,0.));
#86 = CARTESIAN_POINT('',(95.230095449684,15.120431473569,0.));
#87 = CARTESIAN_POINT('',(80.198335470419,17.074196403882,0.));
#88 = CARTESIAN_POINT('',(62.337975821744,14.010281265031,0.));
#89 = CARTESIAN_POINT('',(58.050186381481,13.710734402491,0.));
#90 = CARTESIAN_POINT('',(34.410924814286,16.522624077864,0.));
#91 = CARTESIAN_POINT('',(0.,14.851833707302,0.));
#92 = PCURVE('',#40,#93);
#93 = DEFINITIONAL_REPRESENTATION('',(#94),#106);
#94 = B_SPLINE_CURVE_WITH_KNOTS('',1,(#95,#96,#97,#98,#99,#100,#101,#102
    ,#103,#104,#105),.UNSPECIFIED.,.F.,.F.,(2,1,1,1,1,1,1,1,1,1,2),(0.,
    5.180254958613E-02,0.140815338426,0.254228037926,0.285259532801,
    0.371416231782,0.470839102903,0.589696729121,0.617888953536,
    0.774032305606,1.),.UNSPECIFIED.);
#95 = CARTESIAN_POINT('',(75.445611351439,5.195393191915));
#96 = CARTESIAN_POINT('',(68.229173502019,8.404767538306));
#97 = CARTESIAN_POINT('',(54.779773700817,10.217850969361));
#98 = CARTESIAN_POINT('',(37.757905026321,7.178336952862));
#99 = CARTESIAN_POINT('',(33.667873702244,9.556391812839));
#100 = CARTESIAN_POINT('',(20.675706801123,7.620431473569));
#101 = CARTESIAN_POINT('',(5.643946821858,9.574196403882));
#102 = CARTESIAN_POINT('',(-12.21641282681,6.510281265031));
#103 = CARTESIAN_POINT('',(-16.50420226708,6.210734402491));
#104 = CARTESIAN_POINT('',(-40.14346383427,9.022624077864));
#105 = CARTESIAN_POINT('',(-74.55438864856,7.351833707302));
#106 = ( GEOMETRIC_REPRESENTATION_CONTEXT(2) 
PARAMETRIC_REPRESENTATION_CONTEXT() REPRESENTATION_CONTEXT('2D SPACE',''
  ) );
#107 = ORIENTED_EDGE('',*,*,#108,.T.);
#108 = EDGE_CURVE('',#77,#22,#109,.T.);
#109 = SURFACE_CURVE('',#110,(#114),.PCURVE_S1.);
#110 = LINE('',#111,#112);
#111 = CARTESIAN_POINT('',(0.,14.851833707302,0.));
#112 = VECTOR('',#113,1.);
#113 = DIRECTION('',(0.,-1.,0.));
#114 = PCURVE('',#40,#115);
#115 = DEFINITIONAL_REPRESENTATION('',(#116),#120);
#116 = LINE('',#117,#118);
#117 = CARTESIAN_POINT('',(-74.55438864856,7.351833707302));
#118 = VECTOR('',#119,1.);
#119 = DIRECTION('',(0.,-1.));
#120 = ( GEOMETRIC_REPRESENTATION_CONTEXT(2) 
PARAMETRIC_REPRESENTATION_CONTEXT() REPRESENTATION_CONTEXT('2D SPACE',''
  ) );
#121 = ( GEOMETRIC_REPRESENTATION_CONTEXT(3) 
GLOBAL_UNCERTAINTY_ASSIGNED_CONTEXT((#125)) GLOBAL_UNIT_ASSIGNED_CONTEXT
((#122,#123,#124)) REPRESENTATION_CONTEXT('Context #1',
  '3D Context with UNIT and UNCERTAINTY') );
#122 = ( LENGTH_UNIT() NAMED_UNIT(*) SI_UNIT(.MILLI.,.METRE.) );
#123 = ( NAMED_UNIT(*) PLANE_ANGLE_UNIT() SI_UNIT($,.RADIAN.) );
#124 = ( NAMED_UNIT(*) SI_UNIT($,.STERADIAN.) SOLID_ANGLE_UNIT() );
#125 = UNCERTAINTY_MEASURE_WITH_UNIT(LENGTH_MEASURE(1.E-07),#122,
  'distance_accuracy_value','confusion accuracy');
#126 = PRODUCT_RELATED_PRODUCT_CATEGORY('part',$,(#7));
ENDSEC;
END-ISO-10303-21;
