ISO-10303-21;
HEADER;
FILE_DESCRIPTION(('Open CASCADE Model'),'2;1');
FILE_NAME('Open CASCADE Shape Model','2026-06-04T14:36:37',('Author'),(
    'Open CASCADE'),'Open CASCADE STEP processor 7.9','Open CASCADE 7.9'
  ,'Unknown');
FILE_SCHEMA(('AUTOMOTIVE_DESIGN { 1 0 10303 214 1 1 1 1 }'));
ENDSEC;
DATA;
#1 = APPLICATION_PROTOCOL_DEFINITION('international standard',
  'automotive_design',2000,#2);
#2 = APPLICATION_CONTEXT(
  'core data for automotive mechanical design processes');
#3 = SHAPE_DEFINITION_REPRESENTATION(#4,#10);
#4 = PRODUCT_DEFINITION_SHAPE('','',#5);
#5 = PRODUCT_DEFINITION('design','',#6,#9);
#6 = PRODUCT_DEFINITION_FORMATION('','',#7);
#7 = PRODUCT('Open CASCADE STEP translator 7.9 11',
  'Open CASCADE STEP translator 7.9 11','',(#8));
#8 = PRODUCT_CONTEXT('',#2,'mechanical');
#9 = PRODUCT_DEFINITION_CONTEXT('part definition',#2,'design');
#10 = MANIFOLD_SURFACE_SHAPE_REPRESENTATION('',(#11,#15),#121);
#11 = AXIS2_PLACEMENT_3D('',#12,#13,#14);
#12 = CARTESIAN_POINT('',(0.,0.,0.));
#13 = DIRECTION('',(0.,0.,1.));
#14 = DIRECTION('',(1.,0.,-0.));
#15 = SHELL_BASED_SURFACE_MODEL('',(#16));
#16 = OPEN_SHELL('',(#17));
#17 = ADVANCED_FACE('',(#18),#40,.T.);
#18 = FACE_BOUND('',#19,.T.);
#19 = EDGE_LOOP('',(#20,#59,#75,#107));
#20 = ORIENTED_EDGE('',*,*,#21,.T.);
#21 = EDGE_CURVE('',#22,#24,#26,.T.);
#22 = VERTEX_POINT('',#23);
#23 = CARTESIAN_POINT('',(0.,-1.628642127636E-03,0.));
#24 = VERTEX_POINT('',#25);
#25 = CARTESIAN_POINT('',(1.,-4.662319121432E-03,0.));
#26 = SURFACE_CURVE('',#27,(#39),.PCURVE_S1.);
#27 = B_SPLINE_CURVE_WITH_KNOTS('',1,(#28,#29,#30,#31,#32,#33,#34,#35,
    #36,#37,#38),.UNSPECIFIED.,.F.,.F.,(2,1,1,1,1,1,1,1,1,1,2),(0.,
    4.898371610932E-02,0.241909508067,0.338134562252,0.530581015721,
    0.586465258727,0.639578520384,0.68502746831,0.808944807188,
    0.893648598651,1.),.UNSPECIFIED.);
#28 = CARTESIAN_POINT('',(0.,-1.628642127636E-03,0.));
#29 = CARTESIAN_POINT('',(4.896374006541E-02,-4.55623257047E-03,0.));
#30 = CARTESIAN_POINT('',(0.242039328437,2.135537731179E-03,0.));
#31 = CARTESIAN_POINT('',(0.33818523029,-4.24808429312E-03,0.));
#32 = CARTESIAN_POINT('',(0.530686500021,4.751405086137E-03,0.));
#33 = CARTESIAN_POINT('',(0.586395850175,-5.519804232682E-04,0.));
#34 = CARTESIAN_POINT('',(0.639576432939,-1.339751116811E-03,0.));
#35 = CARTESIAN_POINT('',(0.684780573234,3.941025962492E-03,0.));
#36 = CARTESIAN_POINT('',(0.808868111453,3.596604029361E-03,0.));
#37 = CARTESIAN_POINT('',(0.893642745485,8.08856806837E-04,0.));
#38 = CARTESIAN_POINT('',(1.,-4.662319121432E-03,0.));
#39 = PCURVE('',#40,#45);
#40 = PLANE('',#41);
#41 = AXIS2_PLACEMENT_3D('',#42,#43,#44);
#42 = CARTESIAN_POINT('',(0.5013724811,5.E-02,0.));
#43 = DIRECTION('',(0.,0.,1.));
#44 = DIRECTION('',(1.,0.,-0.));
#45 = DEFINITIONAL_REPRESENTATION('',(#46),#58);
#46 = B_SPLINE_CURVE_WITH_KNOTS('',1,(#47,#48,#49,#50,#51,#52,#53,#54,
    #55,#56,#57),.UNSPECIFIED.,.F.,.F.,(2,1,1,1,1,1,1,1,1,1,2),(0.,
    4.898371610932E-02,0.241909508067,0.338134562252,0.530581015721,
    0.586465258727,0.639578520384,0.68502746831,0.808944807188,
    0.893648598651,1.),.UNSPECIFIED.);
#47 = CARTESIAN_POINT('',(-0.5013724811,-5.162864212764E-02));
#48 = CARTESIAN_POINT('',(-0.452408741034,-5.455623257047E-02));
#49 = CARTESIAN_POINT('',(-0.259333152663,-4.786446226882E-02));
#50 = CARTESIAN_POINT('',(-0.163187250809,-5.424808429312E-02));
#51 = CARTESIAN_POINT('',(2.931401892115E-02,-4.524859491386E-02));
#52 = CARTESIAN_POINT('',(8.502336907489E-02,-5.055198042327E-02));
#53 = CARTESIAN_POINT('',(0.138203951839,-5.133975111681E-02));
#54 = CARTESIAN_POINT('',(0.183408092134,-4.605897403751E-02));
#55 = CARTESIAN_POINT('',(0.307495630353,-4.640339597064E-02));
#56 = CARTESIAN_POINT('',(0.392270264385,-4.919114319316E-02));
#57 = CARTESIAN_POINT('',(0.4986275189,-5.466231912143E-02));
#58 = ( GEOMETRIC_REPRESENTATION_CONTEXT(2) 
PARAMETRIC_REPRESENTATION_CONTEXT() REPRESENTATION_CONTEXT('2D SPACE',''
  ) );
#59 = ORIENTED_EDGE('',*,*,#60,.T.);
#60 = EDGE_CURVE('',#24,#61,#63,.T.);
#61 = VERTEX_POINT('',#62);
#62 = CARTESIAN_POINT('',(1.,0.104662319121,0.));
#63 = SURFACE_CURVE('',#64,(#68),.PCURVE_S1.);
#64 = LINE('',#65,#66);
#65 = CARTESIAN_POINT('',(1.,-4.662319121432E-03,0.));
#66 = VECTOR('',#67,1.);
#67 = DIRECTION('',(0.,1.,0.));
#68 = PCURVE('',#40,#69);
#69 = DEFINITIONAL_REPRESENTATION('',(#70),#74);
#70 = LINE('',#71,#72);
#71 = CARTESIAN_POINT('',(0.4986275189,-5.466231912143E-02));
#72 = VECTOR('',#73,1.);
#73 = DIRECTION('',(0.,1.));
#74 = ( GEOMETRIC_REPRESENTATION_CONTEXT(2) 
PARAMETRIC_REPRESENTATION_CONTEXT() REPRESENTATION_CONTEXT('2D SPACE',''
  ) );
#75 = ORIENTED_EDGE('',*,*,#76,.T.);
#76 = EDGE_CURVE('',#61,#77,#79,.T.);
#77 = VERTEX_POINT('',#78);
#78 = CARTESIAN_POINT('',(0.,0.101628642128,0.));
#79 = SURFACE_CURVE('',#80,(#92),.PCURVE_S1.);
#80 = B_SPLINE_CURVE_WITH_KNOTS('',1,(#81,#82,#83,#84,#85,#86,#87,#88,
    #89,#90,#91),.UNSPECIFIED.,.F.,.F.,(2,1,1,1,1,1,1,1,1,1,2),(0.,
    0.106351401349,0.191055192812,0.31497253169,0.360421479616,
    0.413534741273,0.469418984279,0.661865437748,0.758090491933,
    0.951016283891,1.),.UNSPECIFIED.);
#81 = CARTESIAN_POINT('',(1.,0.104662319121,0.));
#82 = CARTESIAN_POINT('',(0.893642745485,9.919114319316E-02,0.));
#83 = CARTESIAN_POINT('',(0.808868111453,9.640339597064E-02,0.));
#84 = CARTESIAN_POINT('',(0.684780573234,9.605897403751E-02,0.));
#85 = CARTESIAN_POINT('',(0.639576432939,0.101339751117,0.));
#86 = CARTESIAN_POINT('',(0.586395850175,0.100551980423,0.));
#87 = CARTESIAN_POINT('',(0.530686500021,9.524859491386E-02,0.));
#88 = CARTESIAN_POINT('',(0.33818523029,0.104248084293,0.));
#89 = CARTESIAN_POINT('',(0.242039328437,9.786446226882E-02,0.));
#90 = CARTESIAN_POINT('',(4.896374006541E-02,0.10455623257,0.));
#91 = CARTESIAN_POINT('',(0.,0.101628642128,0.));
#92 = PCURVE('',#40,#93);
#93 = DEFINITIONAL_REPRESENTATION('',(#94),#106);
#94 = B_SPLINE_CURVE_WITH_KNOTS('',1,(#95,#96,#97,#98,#99,#100,#101,#102
    ,#103,#104,#105),.UNSPECIFIED.,.F.,.F.,(2,1,1,1,1,1,1,1,1,1,2),(0.,
    0.106351401349,0.191055192812,0.31497253169,0.360421479616,
    0.413534741273,0.469418984279,0.661865437748,0.758090491933,
    0.951016283891,1.),.UNSPECIFIED.);
#95 = CARTESIAN_POINT('',(0.4986275189,5.466231912143E-02));
#96 = CARTESIAN_POINT('',(0.392270264385,4.919114319316E-02));
#97 = CARTESIAN_POINT('',(0.307495630353,4.640339597064E-02));
#98 = CARTESIAN_POINT('',(0.183408092134,4.605897403751E-02));
#99 = CARTESIAN_POINT('',(0.138203951839,5.133975111681E-02));
#100 = CARTESIAN_POINT('',(8.502336907489E-02,5.055198042327E-02));
#101 = CARTESIAN_POINT('',(2.931401892115E-02,4.524859491386E-02));
#102 = CARTESIAN_POINT('',(-0.163187250809,5.424808429312E-02));
#103 = CARTESIAN_POINT('',(-0.259333152663,4.786446226882E-02));
#104 = CARTESIAN_POINT('',(-0.452408741034,5.455623257047E-02));
#105 = CARTESIAN_POINT('',(-0.5013724811,5.162864212764E-02));
#106 = ( GEOMETRIC_REPRESENTATION_CONTEXT(2) 
PARAMETRIC_REPRESENTATION_CONTEXT() REPRESENTATION_CONTEXT('2D SPACE',''
  ) );
#107 = ORIENTED_EDGE('',*,*,#108,.T.);
#108 = EDGE_CURVE('',#77,#22,#109,.T.);
#109 = SURFACE_CURVE('',#110,(#114),.PCURVE_S1.);
#110 = LINE('',#111,#112);
#111 = CARTESIAN_POINT('',(0.,0.101628642128,0.));
#112 = VECTOR('',#113,1.);
#113 = DIRECTION('',(0.,-1.,0.));
#114 = PCURVE('',#40,#115);
#115 = DEFINITIONAL_REPRESENTATION('',(#116),#120);
#116 = LINE('',#117,#118);
#117 = CARTESIAN_POINT('',(-0.5013724811,5.162864212764E-02));
#118 = VECTOR('',#119,1.);
#119 = DIRECTION('',(0.,-1.));
#120 = ( GEOMETRIC_REPRESENTATION_CONTEXT(2) 
PARAMETRIC_REPRESENTATION_CONTEXT() REPRESENTATION_CONTEXT('2D SPACE',''
  ) );
#121 = ( GEOMETRIC_REPRESENTATION_CONTEXT(3) 
GLOBAL_UNCERTAINTY_ASSIGNED_CONTEXT((#125)) GLOBAL_UNIT_ASSIGNED_CONTEXT
((#122,#123,#124)) REPRESENTATION_CONTEXT('Context #1',
  '3D Context with UNIT and UNCERTAINTY') );
#122 = ( LENGTH_UNIT() NAMED_UNIT(*) SI_UNIT(.MILLI.,.METRE.) );
#123 = ( NAMED_UNIT(*) PLANE_ANGLE_UNIT() SI_UNIT($,.RADIAN.) );
#124 = ( NAMED_UNIT(*) SI_UNIT($,.STERADIAN.) SOLID_ANGLE_UNIT() );
#125 = UNCERTAINTY_MEASURE_WITH_UNIT(LENGTH_MEASURE(1.E-07),#122,
  'distance_accuracy_value','confusion accuracy');
#126 = PRODUCT_RELATED_PRODUCT_CATEGORY('part',$,(#7));
ENDSEC;
END-ISO-10303-21;
