ISO-10303-21;
HEADER;
FILE_DESCRIPTION(('Open CASCADE Model'),'2;1');
FILE_NAME('Open CASCADE Shape Model','2026-06-04T12:09:59',('Author'),(
    'Open CASCADE'),'Open CASCADE STEP processor 7.9','Open CASCADE 7.9'
  ,'Unknown');
FILE_SCHEMA(('AUTOMOTIVE_DESIGN { 1 0 10303 214 1 1 1 1 }'));
ENDSEC;
DATA;
#1 = APPLICATION_PROTOCOL_DEFINITION('international standard',
  'automotive_design',2000,#2);
#2 = APPLICATION_CONTEXT(
  'core data for automotive mechanical design processes');
#3 = SHAPE_DEFINITION_REPRESENTATION(#4,#10);
#4 = PRODUCT_DEFINITION_SHAPE('','',#5);
#5 = PRODUCT_DEFINITION('design','',#6,#9);
#6 = PRODUCT_DEFINITION_FORMATION('','',#7);
#7 = PRODUCT('Open CASCADE STEP translator 7.9 84',
  'Open CASCADE STEP translator 7.9 84','',(#8));
#8 = PRODUCT_CONTEXT('',#2,'mechanical');
#9 = PRODUCT_DEFINITION_CONTEXT('part definition',#2,'design');
#10 = MANIFOLD_SURFACE_SHAPE_REPRESENTATION('',(#11,#15),#121);
#11 = AXIS2_PLACEMENT_3D('',#12,#13,#14);
#12 = CARTESIAN_POINT('',(0.,0.,0.));
#13 = DIRECTION('',(0.,0.,1.));
#14 = DIRECTION('',(1.,0.,-0.));
#15 = SHELL_BASED_SURFACE_MODEL('',(#16));
#16 = OPEN_SHELL('',(#17));
#17 = ADVANCED_FACE('',(#18),#40,.T.);
#18 = FACE_BOUND('',#19,.T.);
#19 = EDGE_LOOP('',(#20,#59,#75,#107));
#20 = ORIENTED_EDGE('',*,*,#21,.T.);
#21 = EDGE_CURVE('',#22,#24,#26,.T.);
#22 = VERTEX_POINT('',#23);
#23 = CARTESIAN_POINT('',(0.,1.981715369409,0.));
#24 = VERTEX_POINT('',#25);
#25 = CARTESIAN_POINT('',(150.,-1.590146431068,0.));
#26 = SURFACE_CURVE('',#27,(#39),.PCURVE_S1.);
#27 = B_SPLINE_CURVE_WITH_KNOTS('',1,(#28,#29,#30,#31,#32,#33,#34,#35,
    #36,#37,#38),.UNSPECIFIED.,.F.,.F.,(2,1,1,1,1,1,1,1,1,1,2),(0.,
    6.979154951124E-02,0.167933646415,0.290196413286,0.350267913296,
    0.452081112673,0.518044839409,0.762184352147,0.881764098065,
    0.932582975534,1.),.UNSPECIFIED.);
#28 = CARTESIAN_POINT('',(0.,1.981715369409,0.));
#29 = CARTESIAN_POINT('',(10.099509130917,-1.779430378816,0.));
#30 = CARTESIAN_POINT('',(24.909494476395,1.435777311984,0.));
#31 = CARTESIAN_POINT('',(43.778196387017,2.078810721978,0.));
#32 = CARTESIAN_POINT('',(53.037625031257,1.521886549301,0.));
#33 = CARTESIAN_POINT('',(68.347792337002,-2.052420910633,0.));
#34 = CARTESIAN_POINT('',(78.059789969202,1.018792226414,0.));
#35 = CARTESIAN_POINT('',(115.69898462111,-1.116299217035,0.));
#36 = CARTESIAN_POINT('',(134.13601911151,-2.138457783934,0.));
#37 = CARTESIAN_POINT('',(140.44109259389,2.53353199845,0.));
#38 = CARTESIAN_POINT('',(150.,-1.590146431068,0.));
#39 = PCURVE('',#40,#45);
#40 = PLANE('',#41);
#41 = AXIS2_PLACEMENT_3D('',#42,#43,#44);
#42 = CARTESIAN_POINT('',(77.080284679644,7.5,0.));
#43 = DIRECTION('',(0.,0.,1.));
#44 = DIRECTION('',(1.,0.,-0.));
#45 = DEFINITIONAL_REPRESENTATION('',(#46),#58);
#46 = B_SPLINE_CURVE_WITH_KNOTS('',1,(#47,#48,#49,#50,#51,#52,#53,#54,
    #55,#56,#57),.UNSPECIFIED.,.F.,.F.,(2,1,1,1,1,1,1,1,1,1,2),(0.,
    6.979154951124E-02,0.167933646415,0.290196413286,0.350267913296,
    0.452081112673,0.518044839409,0.762184352147,0.881764098065,
    0.932582975534,1.),.UNSPECIFIED.);
#47 = CARTESIAN_POINT('',(-77.08028467964,-5.518284630591));
#48 = CARTESIAN_POINT('',(-66.98077554872,-9.279430378816));
#49 = CARTESIAN_POINT('',(-52.17079020324,-6.064222688016));
#50 = CARTESIAN_POINT('',(-33.30208829262,-5.421189278022));
#51 = CARTESIAN_POINT('',(-24.04265964838,-5.978113450699));
#52 = CARTESIAN_POINT('',(-8.732492342642,-9.552420910633));
#53 = CARTESIAN_POINT('',(0.979505289558,-6.481207773586));
#54 = CARTESIAN_POINT('',(38.618699941468,-8.616299217035));
#55 = CARTESIAN_POINT('',(57.055734431873,-9.638457783934));
#56 = CARTESIAN_POINT('',(63.360807914247,-4.96646800155));
#57 = CARTESIAN_POINT('',(72.919715320356,-9.090146431068));
#58 = ( GEOMETRIC_REPRESENTATION_CONTEXT(2) 
PARAMETRIC_REPRESENTATION_CONTEXT() REPRESENTATION_CONTEXT('2D SPACE',''
  ) );
#59 = ORIENTED_EDGE('',*,*,#60,.T.);
#60 = EDGE_CURVE('',#24,#61,#63,.T.);
#61 = VERTEX_POINT('',#62);
#62 = CARTESIAN_POINT('',(150.,16.590146431068,0.));
#63 = SURFACE_CURVE('',#64,(#68),.PCURVE_S1.);
#64 = LINE('',#65,#66);
#65 = CARTESIAN_POINT('',(150.,-1.590146431068,0.));
#66 = VECTOR('',#67,1.);
#67 = DIRECTION('',(0.,1.,0.));
#68 = PCURVE('',#40,#69);
#69 = DEFINITIONAL_REPRESENTATION('',(#70),#74);
#70 = LINE('',#71,#72);
#71 = CARTESIAN_POINT('',(72.919715320356,-9.090146431068));
#72 = VECTOR('',#73,1.);
#73 = DIRECTION('',(0.,1.));
#74 = ( GEOMETRIC_REPRESENTATION_CONTEXT(2) 
PARAMETRIC_REPRESENTATION_CONTEXT() REPRESENTATION_CONTEXT('2D SPACE',''
  ) );
#75 = ORIENTED_EDGE('',*,*,#76,.T.);
#76 = EDGE_CURVE('',#61,#77,#79,.T.);
#77 = VERTEX_POINT('',#78);
#78 = CARTESIAN_POINT('',(0.,13.018284630591,0.));
#79 = SURFACE_CURVE('',#80,(#92),.PCURVE_S1.);
#80 = B_SPLINE_CURVE_WITH_KNOTS('',1,(#81,#82,#83,#84,#85,#86,#87,#88,
    #89,#90,#91),.UNSPECIFIED.,.F.,.F.,(2,1,1,1,1,1,1,1,1,1,2),(0.,
    6.741702446606E-02,0.118235901935,0.237815647853,0.481955160591,
    0.547918887327,0.649732086704,0.709803586714,0.832066353585,
    0.930208450489,1.),.UNSPECIFIED.);
#81 = CARTESIAN_POINT('',(150.,16.590146431068,0.));
#82 = CARTESIAN_POINT('',(140.44109259389,12.46646800155,0.));
#83 = CARTESIAN_POINT('',(134.13601911151,17.138457783934,0.));
#84 = CARTESIAN_POINT('',(115.69898462111,16.116299217035,0.));
#85 = CARTESIAN_POINT('',(78.059789969202,13.981207773586,0.));
#86 = CARTESIAN_POINT('',(68.347792337002,17.052420910633,0.));
#87 = CARTESIAN_POINT('',(53.037625031257,13.478113450699,0.));
#88 = CARTESIAN_POINT('',(43.778196387017,12.921189278022,0.));
#89 = CARTESIAN_POINT('',(24.909494476395,13.564222688016,0.));
#90 = CARTESIAN_POINT('',(10.099509130917,16.779430378816,0.));
#91 = CARTESIAN_POINT('',(0.,13.018284630591,0.));
#92 = PCURVE('',#40,#93);
#93 = DEFINITIONAL_REPRESENTATION('',(#94),#106);
#94 = B_SPLINE_CURVE_WITH_KNOTS('',1,(#95,#96,#97,#98,#99,#100,#101,#102
    ,#103,#104,#105),.UNSPECIFIED.,.F.,.F.,(2,1,1,1,1,1,1,1,1,1,2),(0.,
    6.741702446606E-02,0.118235901935,0.237815647853,0.481955160591,
    0.547918887327,0.649732086704,0.709803586714,0.832066353585,
    0.930208450489,1.),.UNSPECIFIED.);
#95 = CARTESIAN_POINT('',(72.919715320356,9.090146431068));
#96 = CARTESIAN_POINT('',(63.360807914247,4.96646800155));
#97 = CARTESIAN_POINT('',(57.055734431873,9.638457783934));
#98 = CARTESIAN_POINT('',(38.618699941468,8.616299217035));
#99 = CARTESIAN_POINT('',(0.979505289558,6.481207773586));
#100 = CARTESIAN_POINT('',(-8.732492342642,9.552420910633));
#101 = CARTESIAN_POINT('',(-24.04265964838,5.978113450699));
#102 = CARTESIAN_POINT('',(-33.30208829262,5.421189278022));
#103 = CARTESIAN_POINT('',(-52.17079020324,6.064222688016));
#104 = CARTESIAN_POINT('',(-66.98077554872,9.279430378816));
#105 = CARTESIAN_POINT('',(-77.08028467964,5.518284630591));
#106 = ( GEOMETRIC_REPRESENTATION_CONTEXT(2) 
PARAMETRIC_REPRESENTATION_CONTEXT() REPRESENTATION_CONTEXT('2D SPACE',''
  ) );
#107 = ORIENTED_EDGE('',*,*,#108,.T.);
#108 = EDGE_CURVE('',#77,#22,#109,.T.);
#109 = SURFACE_CURVE('',#110,(#114),.PCURVE_S1.);
#110 = LINE('',#111,#112);
#111 = CARTESIAN_POINT('',(0.,13.018284630591,0.));
#112 = VECTOR('',#113,1.);
#113 = DIRECTION('',(0.,-1.,0.));
#114 = PCURVE('',#40,#115);
#115 = DEFINITIONAL_REPRESENTATION('',(#116),#120);
#116 = LINE('',#117,#118);
#117 = CARTESIAN_POINT('',(-77.08028467964,5.518284630591));
#118 = VECTOR('',#119,1.);
#119 = DIRECTION('',(0.,-1.));
#120 = ( GEOMETRIC_REPRESENTATION_CONTEXT(2) 
PARAMETRIC_REPRESENTATION_CONTEXT() REPRESENTATION_CONTEXT('2D SPACE',''
  ) );
#121 = ( GEOMETRIC_REPRESENTATION_CONTEXT(3) 
GLOBAL_UNCERTAINTY_ASSIGNED_CONTEXT((#125)) GLOBAL_UNIT_ASSIGNED_CONTEXT
((#122,#123,#124)) REPRESENTATION_CONTEXT('Context #1',
  '3D Context with UNIT and UNCERTAINTY') );
#122 = ( LENGTH_UNIT() NAMED_UNIT(*) SI_UNIT(.MILLI.,.METRE.) );
#123 = ( NAMED_UNIT(*) PLANE_ANGLE_UNIT() SI_UNIT($,.RADIAN.) );
#124 = ( NAMED_UNIT(*) SI_UNIT($,.STERADIAN.) SOLID_ANGLE_UNIT() );
#125 = UNCERTAINTY_MEASURE_WITH_UNIT(LENGTH_MEASURE(1.E-07),#122,
  'distance_accuracy_value','confusion accuracy');
#126 = PRODUCT_RELATED_PRODUCT_CATEGORY('part',$,(#7));
ENDSEC;
END-ISO-10303-21;
