ISO-10303-21;
HEADER;
FILE_DESCRIPTION(('Open CASCADE Model'),'2;1');
FILE_NAME('Open CASCADE Shape Model','2026-06-04T12:09:59',('Author'),(
    'Open CASCADE'),'Open CASCADE STEP processor 7.9','Open CASCADE 7.9'
  ,'Unknown');
FILE_SCHEMA(('AUTOMOTIVE_DESIGN { 1 0 10303 214 1 1 1 1 }'));
ENDSEC;
DATA;
#1 = APPLICATION_PROTOCOL_DEFINITION('international standard',
  'automotive_design',2000,#2);
#2 = APPLICATION_CONTEXT(
  'core data for automotive mechanical design processes');
#3 = SHAPE_DEFINITION_REPRESENTATION(#4,#10);
#4 = PRODUCT_DEFINITION_SHAPE('','',#5);
#5 = PRODUCT_DEFINITION('design','',#6,#9);
#6 = PRODUCT_DEFINITION_FORMATION('','',#7);
#7 = PRODUCT('Open CASCADE STEP translator 7.9 37',
  'Open CASCADE STEP translator 7.9 37','',(#8));
#8 = PRODUCT_CONTEXT('',#2,'mechanical');
#9 = PRODUCT_DEFINITION_CONTEXT('part definition',#2,'design');
#10 = MANIFOLD_SURFACE_SHAPE_REPRESENTATION('',(#11,#15),#121);
#11 = AXIS2_PLACEMENT_3D('',#12,#13,#14);
#12 = CARTESIAN_POINT('',(0.,0.,0.));
#13 = DIRECTION('',(0.,0.,1.));
#14 = DIRECTION('',(1.,0.,-0.));
#15 = SHELL_BASED_SURFACE_MODEL('',(#16));
#16 = OPEN_SHELL('',(#17));
#17 = ADVANCED_FACE('',(#18),#40,.T.);
#18 = FACE_BOUND('',#19,.T.);
#19 = EDGE_LOOP('',(#20,#59,#75,#107));
#20 = ORIENTED_EDGE('',*,*,#21,.T.);
#21 = EDGE_CURVE('',#22,#24,#26,.T.);
#22 = VERTEX_POINT('',#23);
#23 = CARTESIAN_POINT('',(0.,-0.620546726,0.));
#24 = VERTEX_POINT('',#25);
#25 = CARTESIAN_POINT('',(150.,2.531349641518,0.));
#26 = SURFACE_CURVE('',#27,(#39),.PCURVE_S1.);
#27 = B_SPLINE_CURVE_WITH_KNOTS('',1,(#28,#29,#30,#31,#32,#33,#34,#35,
    #36,#37,#38),.UNSPECIFIED.,.F.,.F.,(2,1,1,1,1,1,1,1,1,1,2),(0.,
    0.232534225829,0.263824672995,0.297401191039,0.351588824066,
    0.380746663051,0.575421467587,0.738358090972,0.78747781907,
    0.891989945457,1.),.UNSPECIFIED.);
#28 = CARTESIAN_POINT('',(0.,-0.620546726,0.));
#29 = CARTESIAN_POINT('',(35.851475902377,-2.907897201706,0.));
#30 = CARTESIAN_POINT('',(38.915887364847,0.830783528165,0.));
#31 = CARTESIAN_POINT('',(43.339117629651,-1.878956074921,0.));
#32 = CARTESIAN_POINT('',(51.166593997852,1.089605293029,0.));
#33 = CARTESIAN_POINT('',(54.626215247882,-1.795281133449,0.));
#34 = CARTESIAN_POINT('',(84.678070428932,-0.604403513176,0.));
#35 = CARTESIAN_POINT('',(109.74438654109,1.701865828648,0.));
#36 = CARTESIAN_POINT('',(117.23967093885,0.515843437265,0.));
#37 = CARTESIAN_POINT('',(133.37545849151,1.094186193819,0.));
#38 = CARTESIAN_POINT('',(150.,2.531349641518,0.));
#39 = PCURVE('',#40,#45);
#40 = PLANE('',#41);
#41 = AXIS2_PLACEMENT_3D('',#42,#43,#44);
#42 = CARTESIAN_POINT('',(72.847461259026,7.5,0.));
#43 = DIRECTION('',(0.,0.,1.));
#44 = DIRECTION('',(1.,0.,-0.));
#45 = DEFINITIONAL_REPRESENTATION('',(#46),#58);
#46 = B_SPLINE_CURVE_WITH_KNOTS('',1,(#47,#48,#49,#50,#51,#52,#53,#54,
    #55,#56,#57),.UNSPECIFIED.,.F.,.F.,(2,1,1,1,1,1,1,1,1,1,2),(0.,
    0.232534225829,0.263824672995,0.297401191039,0.351588824066,
    0.380746663051,0.575421467587,0.738358090972,0.78747781907,
    0.891989945457,1.),.UNSPECIFIED.);
#47 = CARTESIAN_POINT('',(-72.84746125902,-8.120546726));
#48 = CARTESIAN_POINT('',(-36.99598535664,-10.4078972017));
#49 = CARTESIAN_POINT('',(-33.93157389417,-6.669216471835));
#50 = CARTESIAN_POINT('',(-29.50834362937,-9.378956074921));
#51 = CARTESIAN_POINT('',(-21.68086726117,-6.410394706971));
#52 = CARTESIAN_POINT('',(-18.22124601114,-9.295281133449));
#53 = CARTESIAN_POINT('',(11.830609169905,-8.104403513176));
#54 = CARTESIAN_POINT('',(36.896925282067,-5.798134171352));
#55 = CARTESIAN_POINT('',(44.392209679828,-6.984156562735));
#56 = CARTESIAN_POINT('',(60.527997232492,-6.405813806181));
#57 = CARTESIAN_POINT('',(77.152538740974,-4.968650358482));
#58 = ( GEOMETRIC_REPRESENTATION_CONTEXT(2) 
PARAMETRIC_REPRESENTATION_CONTEXT() REPRESENTATION_CONTEXT('2D SPACE',''
  ) );
#59 = ORIENTED_EDGE('',*,*,#60,.T.);
#60 = EDGE_CURVE('',#24,#61,#63,.T.);
#61 = VERTEX_POINT('',#62);
#62 = CARTESIAN_POINT('',(150.,12.468650358482,0.));
#63 = SURFACE_CURVE('',#64,(#68),.PCURVE_S1.);
#64 = LINE('',#65,#66);
#65 = CARTESIAN_POINT('',(150.,2.531349641518,0.));
#66 = VECTOR('',#67,1.);
#67 = DIRECTION('',(0.,1.,0.));
#68 = PCURVE('',#40,#69);
#69 = DEFINITIONAL_REPRESENTATION('',(#70),#74);
#70 = LINE('',#71,#72);
#71 = CARTESIAN_POINT('',(77.152538740974,-4.968650358482));
#72 = VECTOR('',#73,1.);
#73 = DIRECTION('',(0.,1.));
#74 = ( GEOMETRIC_REPRESENTATION_CONTEXT(2) 
PARAMETRIC_REPRESENTATION_CONTEXT() REPRESENTATION_CONTEXT('2D SPACE',''
  ) );
#75 = ORIENTED_EDGE('',*,*,#76,.T.);
#76 = EDGE_CURVE('',#61,#77,#79,.T.);
#77 = VERTEX_POINT('',#78);
#78 = CARTESIAN_POINT('',(0.,15.620546726,0.));
#79 = SURFACE_CURVE('',#80,(#92),.PCURVE_S1.);
#80 = B_SPLINE_CURVE_WITH_KNOTS('',1,(#81,#82,#83,#84,#85,#86,#87,#88,
    #89,#90,#91),.UNSPECIFIED.,.F.,.F.,(2,1,1,1,1,1,1,1,1,1,2),(0.,
    0.108010054543,0.21252218093,0.261641909028,0.424578532413,
    0.619253336949,0.648411175934,0.702598808961,0.736175327005,
    0.767465774171,1.),.UNSPECIFIED.);
#81 = CARTESIAN_POINT('',(150.,12.468650358482,0.));
#82 = CARTESIAN_POINT('',(133.37545849151,13.905813806181,0.));
#83 = CARTESIAN_POINT('',(117.23967093885,14.484156562735,0.));
#84 = CARTESIAN_POINT('',(109.74438654109,13.298134171352,0.));
#85 = CARTESIAN_POINT('',(84.678070428932,15.604403513176,0.));
#86 = CARTESIAN_POINT('',(54.626215247882,16.795281133449,0.));
#87 = CARTESIAN_POINT('',(51.166593997852,13.910394706971,0.));
#88 = CARTESIAN_POINT('',(43.339117629651,16.878956074921,0.));
#89 = CARTESIAN_POINT('',(38.915887364847,14.169216471835,0.));
#90 = CARTESIAN_POINT('',(35.851475902377,17.907897201706,0.));
#91 = CARTESIAN_POINT('',(0.,15.620546726,0.));
#92 = PCURVE('',#40,#93);
#93 = DEFINITIONAL_REPRESENTATION('',(#94),#106);
#94 = B_SPLINE_CURVE_WITH_KNOTS('',1,(#95,#96,#97,#98,#99,#100,#101,#102
    ,#103,#104,#105),.UNSPECIFIED.,.F.,.F.,(2,1,1,1,1,1,1,1,1,1,2),(0.,
    0.108010054543,0.21252218093,0.261641909028,0.424578532413,
    0.619253336949,0.648411175934,0.702598808961,0.736175327005,
    0.767465774171,1.),.UNSPECIFIED.);
#95 = CARTESIAN_POINT('',(77.152538740974,4.968650358482));
#96 = CARTESIAN_POINT('',(60.527997232492,6.405813806181));
#97 = CARTESIAN_POINT('',(44.392209679828,6.984156562735));
#98 = CARTESIAN_POINT('',(36.896925282067,5.798134171352));
#99 = CARTESIAN_POINT('',(11.830609169905,8.104403513176));
#100 = CARTESIAN_POINT('',(-18.22124601114,9.295281133449));
#101 = CARTESIAN_POINT('',(-21.68086726117,6.410394706971));
#102 = CARTESIAN_POINT('',(-29.50834362937,9.378956074921));
#103 = CARTESIAN_POINT('',(-33.93157389417,6.669216471835));
#104 = CARTESIAN_POINT('',(-36.99598535664,10.407897201706));
#105 = CARTESIAN_POINT('',(-72.84746125902,8.120546726));
#106 = ( GEOMETRIC_REPRESENTATION_CONTEXT(2) 
PARAMETRIC_REPRESENTATION_CONTEXT() REPRESENTATION_CONTEXT('2D SPACE',''
  ) );
#107 = ORIENTED_EDGE('',*,*,#108,.T.);
#108 = EDGE_CURVE('',#77,#22,#109,.T.);
#109 = SURFACE_CURVE('',#110,(#114),.PCURVE_S1.);
#110 = LINE('',#111,#112);
#111 = CARTESIAN_POINT('',(0.,15.620546726,0.));
#112 = VECTOR('',#113,1.);
#113 = DIRECTION('',(0.,-1.,0.));
#114 = PCURVE('',#40,#115);
#115 = DEFINITIONAL_REPRESENTATION('',(#116),#120);
#116 = LINE('',#117,#118);
#117 = CARTESIAN_POINT('',(-72.84746125902,8.120546726));
#118 = VECTOR('',#119,1.);
#119 = DIRECTION('',(0.,-1.));
#120 = ( GEOMETRIC_REPRESENTATION_CONTEXT(2) 
PARAMETRIC_REPRESENTATION_CONTEXT() REPRESENTATION_CONTEXT('2D SPACE',''
  ) );
#121 = ( GEOMETRIC_REPRESENTATION_CONTEXT(3) 
GLOBAL_UNCERTAINTY_ASSIGNED_CONTEXT((#125)) GLOBAL_UNIT_ASSIGNED_CONTEXT
((#122,#123,#124)) REPRESENTATION_CONTEXT('Context #1',
  '3D Context with UNIT and UNCERTAINTY') );
#122 = ( LENGTH_UNIT() NAMED_UNIT(*) SI_UNIT(.MILLI.,.METRE.) );
#123 = ( NAMED_UNIT(*) PLANE_ANGLE_UNIT() SI_UNIT($,.RADIAN.) );
#124 = ( NAMED_UNIT(*) SI_UNIT($,.STERADIAN.) SOLID_ANGLE_UNIT() );
#125 = UNCERTAINTY_MEASURE_WITH_UNIT(LENGTH_MEASURE(1.E-07),#122,
  'distance_accuracy_value','confusion accuracy');
#126 = PRODUCT_RELATED_PRODUCT_CATEGORY('part',$,(#7));
ENDSEC;
END-ISO-10303-21;
