ISO-10303-21;
HEADER;
FILE_DESCRIPTION(('Open CASCADE Model'),'2;1');
FILE_NAME('Open CASCADE Shape Model','2026-06-04T12:09:59',('Author'),(
    'Open CASCADE'),'Open CASCADE STEP processor 7.9','Open CASCADE 7.9'
  ,'Unknown');
FILE_SCHEMA(('AUTOMOTIVE_DESIGN { 1 0 10303 214 1 1 1 1 }'));
ENDSEC;
DATA;
#1 = APPLICATION_PROTOCOL_DEFINITION('international standard',
  'automotive_design',2000,#2);
#2 = APPLICATION_CONTEXT(
  'core data for automotive mechanical design processes');
#3 = SHAPE_DEFINITION_REPRESENTATION(#4,#10);
#4 = PRODUCT_DEFINITION_SHAPE('','',#5);
#5 = PRODUCT_DEFINITION('design','',#6,#9);
#6 = PRODUCT_DEFINITION_FORMATION('','',#7);
#7 = PRODUCT('Open CASCADE STEP translator 7.9 38',
  'Open CASCADE STEP translator 7.9 38','',(#8));
#8 = PRODUCT_CONTEXT('',#2,'mechanical');
#9 = PRODUCT_DEFINITION_CONTEXT('part definition',#2,'design');
#10 = MANIFOLD_SURFACE_SHAPE_REPRESENTATION('',(#11,#15),#121);
#11 = AXIS2_PLACEMENT_3D('',#12,#13,#14);
#12 = CARTESIAN_POINT('',(0.,0.,0.));
#13 = DIRECTION('',(0.,0.,1.));
#14 = DIRECTION('',(1.,0.,-0.));
#15 = SHELL_BASED_SURFACE_MODEL('',(#16));
#16 = OPEN_SHELL('',(#17));
#17 = ADVANCED_FACE('',(#18),#40,.T.);
#18 = FACE_BOUND('',#19,.T.);
#19 = EDGE_LOOP('',(#20,#59,#75,#107));
#20 = ORIENTED_EDGE('',*,*,#21,.T.);
#21 = EDGE_CURVE('',#22,#24,#26,.T.);
#22 = VERTEX_POINT('',#23);
#23 = CARTESIAN_POINT('',(0.,2.24384194952,0.));
#24 = VERTEX_POINT('',#25);
#25 = CARTESIAN_POINT('',(150.,2.238540146889,0.));
#26 = SURFACE_CURVE('',#27,(#39),.PCURVE_S1.);
#27 = B_SPLINE_CURVE_WITH_KNOTS('',1,(#28,#29,#30,#31,#32,#33,#34,#35,
    #36,#37,#38),.UNSPECIFIED.,.F.,.F.,(2,1,1,1,1,1,1,1,1,1,2),(0.,
    1.986494853446E-02,6.265014226256E-02,9.115394629864E-02,
    0.127238032625,0.338523159711,0.505180560412,0.663449233836,
    0.720095564725,0.912510887751,1.),.UNSPECIFIED.);
#28 = CARTESIAN_POINT('',(0.,2.24384194952,0.));
#29 = CARTESIAN_POINT('',(3.095888199,2.137688031267,0.));
#30 = CARTESIAN_POINT('',(8.89660288514,-1.158572561578,0.));
#31 = CARTESIAN_POINT('',(12.061488325616,1.962336381348,0.));
#32 = CARTESIAN_POINT('',(17.318628450042,-4.375620949226E-02,0.));
#33 = CARTESIAN_POINT('',(50.13760059531,-2.950646855572,0.));
#34 = CARTESIAN_POINT('',(75.441083218185,2.9759543716,0.));
#35 = CARTESIAN_POINT('',(100.12112616753,2.900521188615,0.));
#36 = CARTESIAN_POINT('',(106.73169438345,-2.958507491583,0.));
#37 = CARTESIAN_POINT('',(136.63637756039,-0.507833004805,0.));
#38 = CARTESIAN_POINT('',(150.,2.238540146889,0.));
#39 = PCURVE('',#40,#45);
#40 = PLANE('',#41);
#41 = AXIS2_PLACEMENT_3D('',#42,#43,#44);
#42 = CARTESIAN_POINT('',(74.450612329075,7.5,0.));
#43 = DIRECTION('',(0.,0.,1.));
#44 = DIRECTION('',(1.,0.,-0.));
#45 = DEFINITIONAL_REPRESENTATION('',(#46),#58);
#46 = B_SPLINE_CURVE_WITH_KNOTS('',1,(#47,#48,#49,#50,#51,#52,#53,#54,
    #55,#56,#57),.UNSPECIFIED.,.F.,.F.,(2,1,1,1,1,1,1,1,1,1,2),(0.,
    1.986494853446E-02,6.265014226256E-02,9.115394629864E-02,
    0.127238032625,0.338523159711,0.505180560412,0.663449233836,
    0.720095564725,0.912510887751,1.),.UNSPECIFIED.);
#47 = CARTESIAN_POINT('',(-74.45061232907,-5.25615805048));
#48 = CARTESIAN_POINT('',(-71.35472413007,-5.362311968733));
#49 = CARTESIAN_POINT('',(-65.55400944393,-8.658572561578));
#50 = CARTESIAN_POINT('',(-62.38912400345,-5.537663618652));
#51 = CARTESIAN_POINT('',(-57.13198387903,-7.543756209492));
#52 = CARTESIAN_POINT('',(-24.31301173376,-10.45064685557));
#53 = CARTESIAN_POINT('',(0.990470889111,-4.5240456284));
#54 = CARTESIAN_POINT('',(25.670513838463,-4.599478811385));
#55 = CARTESIAN_POINT('',(32.28108205438,-10.45850749158));
#56 = CARTESIAN_POINT('',(62.185765231323,-8.007833004805));
#57 = CARTESIAN_POINT('',(75.549387670925,-5.261459853111));
#58 = ( GEOMETRIC_REPRESENTATION_CONTEXT(2) 
PARAMETRIC_REPRESENTATION_CONTEXT() REPRESENTATION_CONTEXT('2D SPACE',''
  ) );
#59 = ORIENTED_EDGE('',*,*,#60,.T.);
#60 = EDGE_CURVE('',#24,#61,#63,.T.);
#61 = VERTEX_POINT('',#62);
#62 = CARTESIAN_POINT('',(150.,12.761459853111,0.));
#63 = SURFACE_CURVE('',#64,(#68),.PCURVE_S1.);
#64 = LINE('',#65,#66);
#65 = CARTESIAN_POINT('',(150.,2.238540146889,0.));
#66 = VECTOR('',#67,1.);
#67 = DIRECTION('',(0.,1.,0.));
#68 = PCURVE('',#40,#69);
#69 = DEFINITIONAL_REPRESENTATION('',(#70),#74);
#70 = LINE('',#71,#72);
#71 = CARTESIAN_POINT('',(75.549387670925,-5.261459853111));
#72 = VECTOR('',#73,1.);
#73 = DIRECTION('',(0.,1.));
#74 = ( GEOMETRIC_REPRESENTATION_CONTEXT(2) 
PARAMETRIC_REPRESENTATION_CONTEXT() REPRESENTATION_CONTEXT('2D SPACE',''
  ) );
#75 = ORIENTED_EDGE('',*,*,#76,.T.);
#76 = EDGE_CURVE('',#61,#77,#79,.T.);
#77 = VERTEX_POINT('',#78);
#78 = CARTESIAN_POINT('',(0.,12.75615805048,0.));
#79 = SURFACE_CURVE('',#80,(#92),.PCURVE_S1.);
#80 = B_SPLINE_CURVE_WITH_KNOTS('',1,(#81,#82,#83,#84,#85,#86,#87,#88,
    #89,#90,#91),.UNSPECIFIED.,.F.,.F.,(2,1,1,1,1,1,1,1,1,1,2),(0.,
    8.748911224916E-02,0.279904435275,0.336550766164,0.494819439588,
    0.661476840289,0.872761967375,0.908846053701,0.937349857737,
    0.980135051466,1.),.UNSPECIFIED.);
#81 = CARTESIAN_POINT('',(150.,12.761459853111,0.));
#82 = CARTESIAN_POINT('',(136.63637756039,15.507833004805,0.));
#83 = CARTESIAN_POINT('',(106.73169438345,17.958507491583,0.));
#84 = CARTESIAN_POINT('',(100.12112616753,12.099478811385,0.));
#85 = CARTESIAN_POINT('',(75.441083218185,12.0240456284,0.));
#86 = CARTESIAN_POINT('',(50.13760059531,17.950646855572,0.));
#87 = CARTESIAN_POINT('',(17.318628450042,15.043756209492,0.));
#88 = CARTESIAN_POINT('',(12.061488325616,13.037663618652,0.));
#89 = CARTESIAN_POINT('',(8.89660288514,16.158572561578,0.));
#90 = CARTESIAN_POINT('',(3.095888199,12.862311968733,0.));
#91 = CARTESIAN_POINT('',(0.,12.75615805048,0.));
#92 = PCURVE('',#40,#93);
#93 = DEFINITIONAL_REPRESENTATION('',(#94),#106);
#94 = B_SPLINE_CURVE_WITH_KNOTS('',1,(#95,#96,#97,#98,#99,#100,#101,#102
    ,#103,#104,#105),.UNSPECIFIED.,.F.,.F.,(2,1,1,1,1,1,1,1,1,1,2),(0.,
    8.748911224916E-02,0.279904435275,0.336550766164,0.494819439588,
    0.661476840289,0.872761967375,0.908846053701,0.937349857737,
    0.980135051466,1.),.UNSPECIFIED.);
#95 = CARTESIAN_POINT('',(75.549387670925,5.261459853111));
#96 = CARTESIAN_POINT('',(62.185765231323,8.007833004805));
#97 = CARTESIAN_POINT('',(32.28108205438,10.458507491583));
#98 = CARTESIAN_POINT('',(25.670513838463,4.599478811385));
#99 = CARTESIAN_POINT('',(0.990470889111,4.5240456284));
#100 = CARTESIAN_POINT('',(-24.31301173376,10.450646855572));
#101 = CARTESIAN_POINT('',(-57.13198387903,7.543756209492));
#102 = CARTESIAN_POINT('',(-62.38912400345,5.537663618652));
#103 = CARTESIAN_POINT('',(-65.55400944393,8.658572561578));
#104 = CARTESIAN_POINT('',(-71.35472413007,5.362311968733));
#105 = CARTESIAN_POINT('',(-74.45061232907,5.25615805048));
#106 = ( GEOMETRIC_REPRESENTATION_CONTEXT(2) 
PARAMETRIC_REPRESENTATION_CONTEXT() REPRESENTATION_CONTEXT('2D SPACE',''
  ) );
#107 = ORIENTED_EDGE('',*,*,#108,.T.);
#108 = EDGE_CURVE('',#77,#22,#109,.T.);
#109 = SURFACE_CURVE('',#110,(#114),.PCURVE_S1.);
#110 = LINE('',#111,#112);
#111 = CARTESIAN_POINT('',(0.,12.75615805048,0.));
#112 = VECTOR('',#113,1.);
#113 = DIRECTION('',(0.,-1.,0.));
#114 = PCURVE('',#40,#115);
#115 = DEFINITIONAL_REPRESENTATION('',(#116),#120);
#116 = LINE('',#117,#118);
#117 = CARTESIAN_POINT('',(-74.45061232907,5.25615805048));
#118 = VECTOR('',#119,1.);
#119 = DIRECTION('',(0.,-1.));
#120 = ( GEOMETRIC_REPRESENTATION_CONTEXT(2) 
PARAMETRIC_REPRESENTATION_CONTEXT() REPRESENTATION_CONTEXT('2D SPACE',''
  ) );
#121 = ( GEOMETRIC_REPRESENTATION_CONTEXT(3) 
GLOBAL_UNCERTAINTY_ASSIGNED_CONTEXT((#125)) GLOBAL_UNIT_ASSIGNED_CONTEXT
((#122,#123,#124)) REPRESENTATION_CONTEXT('Context #1',
  '3D Context with UNIT and UNCERTAINTY') );
#122 = ( LENGTH_UNIT() NAMED_UNIT(*) SI_UNIT(.MILLI.,.METRE.) );
#123 = ( NAMED_UNIT(*) PLANE_ANGLE_UNIT() SI_UNIT($,.RADIAN.) );
#124 = ( NAMED_UNIT(*) SI_UNIT($,.STERADIAN.) SOLID_ANGLE_UNIT() );
#125 = UNCERTAINTY_MEASURE_WITH_UNIT(LENGTH_MEASURE(1.E-07),#122,
  'distance_accuracy_value','confusion accuracy');
#126 = PRODUCT_RELATED_PRODUCT_CATEGORY('part',$,(#7));
ENDSEC;
END-ISO-10303-21;
