ISO-10303-21;
HEADER;
FILE_DESCRIPTION(('Open CASCADE Model'),'2;1');
FILE_NAME('Open CASCADE Shape Model','2026-06-04T12:09:59',('Author'),(
    'Open CASCADE'),'Open CASCADE STEP processor 7.9','Open CASCADE 7.9'
  ,'Unknown');
FILE_SCHEMA(('AUTOMOTIVE_DESIGN { 1 0 10303 214 1 1 1 1 }'));
ENDSEC;
DATA;
#1 = APPLICATION_PROTOCOL_DEFINITION('international standard',
  'automotive_design',2000,#2);
#2 = APPLICATION_CONTEXT(
  'core data for automotive mechanical design processes');
#3 = SHAPE_DEFINITION_REPRESENTATION(#4,#10);
#4 = PRODUCT_DEFINITION_SHAPE('','',#5);
#5 = PRODUCT_DEFINITION('design','',#6,#9);
#6 = PRODUCT_DEFINITION_FORMATION('','',#7);
#7 = PRODUCT('Open CASCADE STEP translator 7.9 75',
  'Open CASCADE STEP translator 7.9 75','',(#8));
#8 = PRODUCT_CONTEXT('',#2,'mechanical');
#9 = PRODUCT_DEFINITION_CONTEXT('part definition',#2,'design');
#10 = MANIFOLD_SURFACE_SHAPE_REPRESENTATION('',(#11,#15),#121);
#11 = AXIS2_PLACEMENT_3D('',#12,#13,#14);
#12 = CARTESIAN_POINT('',(0.,0.,0.));
#13 = DIRECTION('',(0.,0.,1.));
#14 = DIRECTION('',(1.,0.,-0.));
#15 = SHELL_BASED_SURFACE_MODEL('',(#16));
#16 = OPEN_SHELL('',(#17));
#17 = ADVANCED_FACE('',(#18),#40,.T.);
#18 = FACE_BOUND('',#19,.T.);
#19 = EDGE_LOOP('',(#20,#59,#75,#107));
#20 = ORIENTED_EDGE('',*,*,#21,.T.);
#21 = EDGE_CURVE('',#22,#24,#26,.T.);
#22 = VERTEX_POINT('',#23);
#23 = CARTESIAN_POINT('',(0.,2.652327932771,0.));
#24 = VERTEX_POINT('',#25);
#25 = CARTESIAN_POINT('',(150.,2.159667571863,0.));
#26 = SURFACE_CURVE('',#27,(#39),.PCURVE_S1.);
#27 = B_SPLINE_CURVE_WITH_KNOTS('',1,(#28,#29,#30,#31,#32,#33,#34,#35,
    #36,#37,#38),.UNSPECIFIED.,.F.,.F.,(2,1,1,1,1,1,1,1,1,1,2),(0.,
    0.105209726662,0.221095382354,0.272157291991,0.38582807955,
    0.568834062493,0.613476468622,0.85498926238,0.890304909639,
    0.95466354091,1.),.UNSPECIFIED.);
#28 = CARTESIAN_POINT('',(0.,2.652327932771,0.));
#29 = CARTESIAN_POINT('',(15.474439715585,-2.695761138056,0.));
#30 = CARTESIAN_POINT('',(33.20784655909,0.582722348954,0.));
#31 = CARTESIAN_POINT('',(40.720942674724,-2.004725352013,0.));
#32 = CARTESIAN_POINT('',(58.386414846181,-1.087976836138,0.));
#33 = CARTESIAN_POINT('',(86.713684862408,1.848473031533,0.));
#34 = CARTESIAN_POINT('',(93.660153875863,1.947226520525,0.));
#35 = CARTESIAN_POINT('',(131.04939107145,-1.871929209063,0.));
#36 = CARTESIAN_POINT('',(135.45630999577,1.411729736283,0.));
#37 = CARTESIAN_POINT('',(144.6847666961,-2.479711102212,0.));
#38 = CARTESIAN_POINT('',(150.,2.159667571863,0.));
#39 = PCURVE('',#40,#45);
#40 = PLANE('',#41);
#41 = AXIS2_PLACEMENT_3D('',#42,#43,#44);
#42 = CARTESIAN_POINT('',(76.155872808821,7.5,0.));
#43 = DIRECTION('',(0.,0.,1.));
#44 = DIRECTION('',(1.,0.,-0.));
#45 = DEFINITIONAL_REPRESENTATION('',(#46),#58);
#46 = B_SPLINE_CURVE_WITH_KNOTS('',1,(#47,#48,#49,#50,#51,#52,#53,#54,
    #55,#56,#57),.UNSPECIFIED.,.F.,.F.,(2,1,1,1,1,1,1,1,1,1,2),(0.,
    0.105209726662,0.221095382354,0.272157291991,0.38582807955,
    0.568834062493,0.613476468622,0.85498926238,0.890304909639,
    0.95466354091,1.),.UNSPECIFIED.);
#47 = CARTESIAN_POINT('',(-76.15587280882,-4.847672067229));
#48 = CARTESIAN_POINT('',(-60.68143309323,-10.19576113805));
#49 = CARTESIAN_POINT('',(-42.94802624973,-6.917277651046));
#50 = CARTESIAN_POINT('',(-35.43493013409,-9.504725352013));
#51 = CARTESIAN_POINT('',(-17.76945796264,-8.587976836138));
#52 = CARTESIAN_POINT('',(10.557812053587,-5.651526968467));
#53 = CARTESIAN_POINT('',(17.504281067042,-5.552773479475));
#54 = CARTESIAN_POINT('',(54.893518262634,-9.371929209063));
#55 = CARTESIAN_POINT('',(59.300437186954,-6.088270263717));
#56 = CARTESIAN_POINT('',(68.528893887281,-9.979711102212));
#57 = CARTESIAN_POINT('',(73.844127191179,-5.340332428137));
#58 = ( GEOMETRIC_REPRESENTATION_CONTEXT(2) 
PARAMETRIC_REPRESENTATION_CONTEXT() REPRESENTATION_CONTEXT('2D SPACE',''
  ) );
#59 = ORIENTED_EDGE('',*,*,#60,.T.);
#60 = EDGE_CURVE('',#24,#61,#63,.T.);
#61 = VERTEX_POINT('',#62);
#62 = CARTESIAN_POINT('',(150.,12.840332428137,0.));
#63 = SURFACE_CURVE('',#64,(#68),.PCURVE_S1.);
#64 = LINE('',#65,#66);
#65 = CARTESIAN_POINT('',(150.,2.159667571863,0.));
#66 = VECTOR('',#67,1.);
#67 = DIRECTION('',(0.,1.,0.));
#68 = PCURVE('',#40,#69);
#69 = DEFINITIONAL_REPRESENTATION('',(#70),#74);
#70 = LINE('',#71,#72);
#71 = CARTESIAN_POINT('',(73.844127191179,-5.340332428137));
#72 = VECTOR('',#73,1.);
#73 = DIRECTION('',(0.,1.));
#74 = ( GEOMETRIC_REPRESENTATION_CONTEXT(2) 
PARAMETRIC_REPRESENTATION_CONTEXT() REPRESENTATION_CONTEXT('2D SPACE',''
  ) );
#75 = ORIENTED_EDGE('',*,*,#76,.T.);
#76 = EDGE_CURVE('',#61,#77,#79,.T.);
#77 = VERTEX_POINT('',#78);
#78 = CARTESIAN_POINT('',(0.,12.347672067229,0.));
#79 = SURFACE_CURVE('',#80,(#92),.PCURVE_S1.);
#80 = B_SPLINE_CURVE_WITH_KNOTS('',1,(#81,#82,#83,#84,#85,#86,#87,#88,
    #89,#90,#91),.UNSPECIFIED.,.F.,.F.,(2,1,1,1,1,1,1,1,1,1,2),(0.,
    4.533645909011E-02,0.109695090361,0.14501073762,0.386523531378,
    0.431165937507,0.61417192045,0.727842708009,0.778904617646,
    0.894790273338,1.),.UNSPECIFIED.);
#81 = CARTESIAN_POINT('',(150.,12.840332428137,0.));
#82 = CARTESIAN_POINT('',(144.6847666961,17.479711102212,0.));
#83 = CARTESIAN_POINT('',(135.45630999577,13.588270263717,0.));
#84 = CARTESIAN_POINT('',(131.04939107145,16.871929209063,0.));
#85 = CARTESIAN_POINT('',(93.660153875863,13.052773479475,0.));
#86 = CARTESIAN_POINT('',(86.713684862408,13.151526968467,0.));
#87 = CARTESIAN_POINT('',(58.386414846181,16.087976836138,0.));
#88 = CARTESIAN_POINT('',(40.720942674724,17.004725352013,0.));
#89 = CARTESIAN_POINT('',(33.20784655909,14.417277651046,0.));
#90 = CARTESIAN_POINT('',(15.474439715585,17.695761138056,0.));
#91 = CARTESIAN_POINT('',(0.,12.347672067229,0.));
#92 = PCURVE('',#40,#93);
#93 = DEFINITIONAL_REPRESENTATION('',(#94),#106);
#94 = B_SPLINE_CURVE_WITH_KNOTS('',1,(#95,#96,#97,#98,#99,#100,#101,#102
    ,#103,#104,#105),.UNSPECIFIED.,.F.,.F.,(2,1,1,1,1,1,1,1,1,1,2),(0.,
    4.533645909011E-02,0.109695090361,0.14501073762,0.386523531378,
    0.431165937507,0.61417192045,0.727842708009,0.778904617646,
    0.894790273338,1.),.UNSPECIFIED.);
#95 = CARTESIAN_POINT('',(73.844127191179,5.340332428137));
#96 = CARTESIAN_POINT('',(68.528893887281,9.979711102212));
#97 = CARTESIAN_POINT('',(59.300437186954,6.088270263717));
#98 = CARTESIAN_POINT('',(54.893518262634,9.371929209063));
#99 = CARTESIAN_POINT('',(17.504281067042,5.552773479475));
#100 = CARTESIAN_POINT('',(10.557812053587,5.651526968467));
#101 = CARTESIAN_POINT('',(-17.76945796264,8.587976836138));
#102 = CARTESIAN_POINT('',(-35.43493013409,9.504725352013));
#103 = CARTESIAN_POINT('',(-42.94802624973,6.917277651046));
#104 = CARTESIAN_POINT('',(-60.68143309323,10.195761138056));
#105 = CARTESIAN_POINT('',(-76.15587280882,4.847672067229));
#106 = ( GEOMETRIC_REPRESENTATION_CONTEXT(2) 
PARAMETRIC_REPRESENTATION_CONTEXT() REPRESENTATION_CONTEXT('2D SPACE',''
  ) );
#107 = ORIENTED_EDGE('',*,*,#108,.T.);
#108 = EDGE_CURVE('',#77,#22,#109,.T.);
#109 = SURFACE_CURVE('',#110,(#114),.PCURVE_S1.);
#110 = LINE('',#111,#112);
#111 = CARTESIAN_POINT('',(0.,12.347672067229,0.));
#112 = VECTOR('',#113,1.);
#113 = DIRECTION('',(0.,-1.,0.));
#114 = PCURVE('',#40,#115);
#115 = DEFINITIONAL_REPRESENTATION('',(#116),#120);
#116 = LINE('',#117,#118);
#117 = CARTESIAN_POINT('',(-76.15587280882,4.847672067229));
#118 = VECTOR('',#119,1.);
#119 = DIRECTION('',(0.,-1.));
#120 = ( GEOMETRIC_REPRESENTATION_CONTEXT(2) 
PARAMETRIC_REPRESENTATION_CONTEXT() REPRESENTATION_CONTEXT('2D SPACE',''
  ) );
#121 = ( GEOMETRIC_REPRESENTATION_CONTEXT(3) 
GLOBAL_UNCERTAINTY_ASSIGNED_CONTEXT((#125)) GLOBAL_UNIT_ASSIGNED_CONTEXT
((#122,#123,#124)) REPRESENTATION_CONTEXT('Context #1',
  '3D Context with UNIT and UNCERTAINTY') );
#122 = ( LENGTH_UNIT() NAMED_UNIT(*) SI_UNIT(.MILLI.,.METRE.) );
#123 = ( NAMED_UNIT(*) PLANE_ANGLE_UNIT() SI_UNIT($,.RADIAN.) );
#124 = ( NAMED_UNIT(*) SI_UNIT($,.STERADIAN.) SOLID_ANGLE_UNIT() );
#125 = UNCERTAINTY_MEASURE_WITH_UNIT(LENGTH_MEASURE(1.E-07),#122,
  'distance_accuracy_value','confusion accuracy');
#126 = PRODUCT_RELATED_PRODUCT_CATEGORY('part',$,(#7));
ENDSEC;
END-ISO-10303-21;
