ISO-10303-21;
HEADER;
FILE_DESCRIPTION(('Open CASCADE Model'),'2;1');
FILE_NAME('Open CASCADE Shape Model','2026-06-04T12:09:59',('Author'),(
    'Open CASCADE'),'Open CASCADE STEP processor 7.9','Open CASCADE 7.9'
  ,'Unknown');
FILE_SCHEMA(('AUTOMOTIVE_DESIGN { 1 0 10303 214 1 1 1 1 }'));
ENDSEC;
DATA;
#1 = APPLICATION_PROTOCOL_DEFINITION('international standard',
  'automotive_design',2000,#2);
#2 = APPLICATION_CONTEXT(
  'core data for automotive mechanical design processes');
#3 = SHAPE_DEFINITION_REPRESENTATION(#4,#10);
#4 = PRODUCT_DEFINITION_SHAPE('','',#5);
#5 = PRODUCT_DEFINITION('design','',#6,#9);
#6 = PRODUCT_DEFINITION_FORMATION('','',#7);
#7 = PRODUCT('Open CASCADE STEP translator 7.9 53',
  'Open CASCADE STEP translator 7.9 53','',(#8));
#8 = PRODUCT_CONTEXT('',#2,'mechanical');
#9 = PRODUCT_DEFINITION_CONTEXT('part definition',#2,'design');
#10 = MANIFOLD_SURFACE_SHAPE_REPRESENTATION('',(#11,#15),#121);
#11 = AXIS2_PLACEMENT_3D('',#12,#13,#14);
#12 = CARTESIAN_POINT('',(0.,0.,0.));
#13 = DIRECTION('',(0.,0.,1.));
#14 = DIRECTION('',(1.,0.,-0.));
#15 = SHELL_BASED_SURFACE_MODEL('',(#16));
#16 = OPEN_SHELL('',(#17));
#17 = ADVANCED_FACE('',(#18),#40,.T.);
#18 = FACE_BOUND('',#19,.T.);
#19 = EDGE_LOOP('',(#20,#59,#75,#107));
#20 = ORIENTED_EDGE('',*,*,#21,.T.);
#21 = EDGE_CURVE('',#22,#24,#26,.T.);
#22 = VERTEX_POINT('',#23);
#23 = CARTESIAN_POINT('',(0.,1.941861719952,0.));
#24 = VERTEX_POINT('',#25);
#25 = CARTESIAN_POINT('',(150.,-1.367059793812,0.));
#26 = SURFACE_CURVE('',#27,(#39),.PCURVE_S1.);
#27 = B_SPLINE_CURVE_WITH_KNOTS('',1,(#28,#29,#30,#31,#32,#33,#34,#35,
    #36,#37,#38),.UNSPECIFIED.,.F.,.F.,(2,1,1,1,1,1,1,1,1,1,2),(0.,
    6.451147836135E-02,0.285301187966,0.312734601976,0.372039441581,
    0.486152332388,0.554794659653,0.747905143362,0.802863695759,
    0.837657184987,1.),.UNSPECIFIED.);
#28 = CARTESIAN_POINT('',(0.,1.941861719952,0.));
#29 = CARTESIAN_POINT('',(9.683913286906,0.459027631922,0.));
#30 = CARTESIAN_POINT('',(43.204388827638,-0.313109571356,0.));
#31 = CARTESIAN_POINT('',(47.359018203632,-4.596894481669E-03,0.));
#32 = CARTESIAN_POINT('',(56.296154765856,-1.116977493691,0.));
#33 = CARTESIAN_POINT('',(73.624299409637,-0.916120409216,0.));
#34 = CARTESIAN_POINT('',(83.847606583764,-2.952252033168,0.));
#35 = CARTESIAN_POINT('',(113.17354293488,-2.996531455345,0.));
#36 = CARTESIAN_POINT('',(121.00040168391,-9.875641581385E-02,0.));
#37 = CARTESIAN_POINT('',(125.64041620003,2.428805478235,0.));
#38 = CARTESIAN_POINT('',(150.,-1.367059793812,0.));
#39 = PCURVE('',#40,#45);
#40 = PLANE('',#41);
#41 = AXIS2_PLACEMENT_3D('',#42,#43,#44);
#42 = CARTESIAN_POINT('',(76.864532185275,7.5,0.));
#43 = DIRECTION('',(0.,0.,1.));
#44 = DIRECTION('',(1.,0.,-0.));
#45 = DEFINITIONAL_REPRESENTATION('',(#46),#58);
#46 = B_SPLINE_CURVE_WITH_KNOTS('',1,(#47,#48,#49,#50,#51,#52,#53,#54,
    #55,#56,#57),.UNSPECIFIED.,.F.,.F.,(2,1,1,1,1,1,1,1,1,1,2),(0.,
    6.451147836135E-02,0.285301187966,0.312734601976,0.372039441581,
    0.486152332388,0.554794659653,0.747905143362,0.802863695759,
    0.837657184987,1.),.UNSPECIFIED.);
#47 = CARTESIAN_POINT('',(-76.86453218527,-5.558138280048));
#48 = CARTESIAN_POINT('',(-67.18061889836,-7.040972368078));
#49 = CARTESIAN_POINT('',(-33.66014335763,-7.813109571356));
#50 = CARTESIAN_POINT('',(-29.50551398164,-7.504596894482));
#51 = CARTESIAN_POINT('',(-20.56837741941,-8.616977493691));
#52 = CARTESIAN_POINT('',(-3.240232775638,-8.416120409216));
#53 = CARTESIAN_POINT('',(6.983074398489,-10.45225203316));
#54 = CARTESIAN_POINT('',(36.309010749612,-10.49653145534));
#55 = CARTESIAN_POINT('',(44.135869498641,-7.598756415814));
#56 = CARTESIAN_POINT('',(48.775884014765,-5.071194521765));
#57 = CARTESIAN_POINT('',(73.135467814725,-8.867059793812));
#58 = ( GEOMETRIC_REPRESENTATION_CONTEXT(2) 
PARAMETRIC_REPRESENTATION_CONTEXT() REPRESENTATION_CONTEXT('2D SPACE',''
  ) );
#59 = ORIENTED_EDGE('',*,*,#60,.T.);
#60 = EDGE_CURVE('',#24,#61,#63,.T.);
#61 = VERTEX_POINT('',#62);
#62 = CARTESIAN_POINT('',(150.,16.367059793812,0.));
#63 = SURFACE_CURVE('',#64,(#68),.PCURVE_S1.);
#64 = LINE('',#65,#66);
#65 = CARTESIAN_POINT('',(150.,-1.367059793812,0.));
#66 = VECTOR('',#67,1.);
#67 = DIRECTION('',(0.,1.,0.));
#68 = PCURVE('',#40,#69);
#69 = DEFINITIONAL_REPRESENTATION('',(#70),#74);
#70 = LINE('',#71,#72);
#71 = CARTESIAN_POINT('',(73.135467814725,-8.867059793812));
#72 = VECTOR('',#73,1.);
#73 = DIRECTION('',(0.,1.));
#74 = ( GEOMETRIC_REPRESENTATION_CONTEXT(2) 
PARAMETRIC_REPRESENTATION_CONTEXT() REPRESENTATION_CONTEXT('2D SPACE',''
  ) );
#75 = ORIENTED_EDGE('',*,*,#76,.T.);
#76 = EDGE_CURVE('',#61,#77,#79,.T.);
#77 = VERTEX_POINT('',#78);
#78 = CARTESIAN_POINT('',(0.,13.058138280048,0.));
#79 = SURFACE_CURVE('',#80,(#92),.PCURVE_S1.);
#80 = B_SPLINE_CURVE_WITH_KNOTS('',1,(#81,#82,#83,#84,#85,#86,#87,#88,
    #89,#90,#91),.UNSPECIFIED.,.F.,.F.,(2,1,1,1,1,1,1,1,1,1,2),(0.,
    0.162342815013,0.197136304241,0.252094856638,0.445205340347,
    0.513847667612,0.627960558419,0.687265398024,0.714698812034,
    0.935488521639,1.),.UNSPECIFIED.);
#81 = CARTESIAN_POINT('',(150.,16.367059793812,0.));
#82 = CARTESIAN_POINT('',(125.64041620003,12.571194521765,0.));
#83 = CARTESIAN_POINT('',(121.00040168391,15.098756415814,0.));
#84 = CARTESIAN_POINT('',(113.17354293488,17.996531455345,0.));
#85 = CARTESIAN_POINT('',(83.847606583764,17.952252033168,0.));
#86 = CARTESIAN_POINT('',(73.624299409637,15.916120409216,0.));
#87 = CARTESIAN_POINT('',(56.296154765856,16.116977493691,0.));
#88 = CARTESIAN_POINT('',(47.359018203632,15.004596894482,0.));
#89 = CARTESIAN_POINT('',(43.204388827638,15.313109571356,0.));
#90 = CARTESIAN_POINT('',(9.683913286906,14.540972368078,0.));
#91 = CARTESIAN_POINT('',(0.,13.058138280048,0.));
#92 = PCURVE('',#40,#93);
#93 = DEFINITIONAL_REPRESENTATION('',(#94),#106);
#94 = B_SPLINE_CURVE_WITH_KNOTS('',1,(#95,#96,#97,#98,#99,#100,#101,#102
    ,#103,#104,#105),.UNSPECIFIED.,.F.,.F.,(2,1,1,1,1,1,1,1,1,1,2),(0.,
    0.162342815013,0.197136304241,0.252094856638,0.445205340347,
    0.513847667612,0.627960558419,0.687265398024,0.714698812034,
    0.935488521639,1.),.UNSPECIFIED.);
#95 = CARTESIAN_POINT('',(73.135467814725,8.867059793812));
#96 = CARTESIAN_POINT('',(48.775884014765,5.071194521765));
#97 = CARTESIAN_POINT('',(44.135869498641,7.598756415814));
#98 = CARTESIAN_POINT('',(36.309010749612,10.496531455345));
#99 = CARTESIAN_POINT('',(6.983074398489,10.452252033168));
#100 = CARTESIAN_POINT('',(-3.240232775638,8.416120409216));
#101 = CARTESIAN_POINT('',(-20.56837741941,8.616977493691));
#102 = CARTESIAN_POINT('',(-29.50551398164,7.504596894482));
#103 = CARTESIAN_POINT('',(-33.66014335763,7.813109571356));
#104 = CARTESIAN_POINT('',(-67.18061889836,7.040972368078));
#105 = CARTESIAN_POINT('',(-76.86453218527,5.558138280048));
#106 = ( GEOMETRIC_REPRESENTATION_CONTEXT(2) 
PARAMETRIC_REPRESENTATION_CONTEXT() REPRESENTATION_CONTEXT('2D SPACE',''
  ) );
#107 = ORIENTED_EDGE('',*,*,#108,.T.);
#108 = EDGE_CURVE('',#77,#22,#109,.T.);
#109 = SURFACE_CURVE('',#110,(#114),.PCURVE_S1.);
#110 = LINE('',#111,#112);
#111 = CARTESIAN_POINT('',(0.,13.058138280048,0.));
#112 = VECTOR('',#113,1.);
#113 = DIRECTION('',(0.,-1.,0.));
#114 = PCURVE('',#40,#115);
#115 = DEFINITIONAL_REPRESENTATION('',(#116),#120);
#116 = LINE('',#117,#118);
#117 = CARTESIAN_POINT('',(-76.86453218527,5.558138280048));
#118 = VECTOR('',#119,1.);
#119 = DIRECTION('',(0.,-1.));
#120 = ( GEOMETRIC_REPRESENTATION_CONTEXT(2) 
PARAMETRIC_REPRESENTATION_CONTEXT() REPRESENTATION_CONTEXT('2D SPACE',''
  ) );
#121 = ( GEOMETRIC_REPRESENTATION_CONTEXT(3) 
GLOBAL_UNCERTAINTY_ASSIGNED_CONTEXT((#125)) GLOBAL_UNIT_ASSIGNED_CONTEXT
((#122,#123,#124)) REPRESENTATION_CONTEXT('Context #1',
  '3D Context with UNIT and UNCERTAINTY') );
#122 = ( LENGTH_UNIT() NAMED_UNIT(*) SI_UNIT(.MILLI.,.METRE.) );
#123 = ( NAMED_UNIT(*) PLANE_ANGLE_UNIT() SI_UNIT($,.RADIAN.) );
#124 = ( NAMED_UNIT(*) SI_UNIT($,.STERADIAN.) SOLID_ANGLE_UNIT() );
#125 = UNCERTAINTY_MEASURE_WITH_UNIT(LENGTH_MEASURE(1.E-07),#122,
  'distance_accuracy_value','confusion accuracy');
#126 = PRODUCT_RELATED_PRODUCT_CATEGORY('part',$,(#7));
ENDSEC;
END-ISO-10303-21;
