ISO-10303-21;
HEADER;
FILE_DESCRIPTION(('Open CASCADE Model'),'2;1');
FILE_NAME('Open CASCADE Shape Model','2026-06-02T12:09:04',('Author'),(
    'Open CASCADE'),'Open CASCADE STEP processor 7.9','Open CASCADE 7.9'
  ,'Unknown');
FILE_SCHEMA(('AUTOMOTIVE_DESIGN { 1 0 10303 214 1 1 1 1 }'));
ENDSEC;
DATA;
#1 = APPLICATION_PROTOCOL_DEFINITION('international standard',
  'automotive_design',2000,#2);
#2 = APPLICATION_CONTEXT(
  'core data for automotive mechanical design processes');
#3 = SHAPE_DEFINITION_REPRESENTATION(#4,#10);
#4 = PRODUCT_DEFINITION_SHAPE('','',#5);
#5 = PRODUCT_DEFINITION('design','',#6,#9);
#6 = PRODUCT_DEFINITION_FORMATION('','',#7);
#7 = PRODUCT('Open CASCADE STEP translator 7.9 58',
  'Open CASCADE STEP translator 7.9 58','',(#8));
#8 = PRODUCT_CONTEXT('',#2,'mechanical');
#9 = PRODUCT_DEFINITION_CONTEXT('part definition',#2,'design');
#10 = MANIFOLD_SURFACE_SHAPE_REPRESENTATION('',(#11,#15),#121);
#11 = AXIS2_PLACEMENT_3D('',#12,#13,#14);
#12 = CARTESIAN_POINT('',(0.,0.,0.));
#13 = DIRECTION('',(0.,0.,1.));
#14 = DIRECTION('',(1.,0.,-0.));
#15 = SHELL_BASED_SURFACE_MODEL('',(#16));
#16 = OPEN_SHELL('',(#17));
#17 = ADVANCED_FACE('',(#18),#40,.T.);
#18 = FACE_BOUND('',#19,.T.);
#19 = EDGE_LOOP('',(#20,#59,#75,#107));
#20 = ORIENTED_EDGE('',*,*,#21,.T.);
#21 = EDGE_CURVE('',#22,#24,#26,.T.);
#22 = VERTEX_POINT('',#23);
#23 = CARTESIAN_POINT('',(0.,-13.06625831528,0.));
#24 = VERTEX_POINT('',#25);
#25 = CARTESIAN_POINT('',(1.5E+03,9.715851024808,0.));
#26 = SURFACE_CURVE('',#27,(#39),.PCURVE_S1.);
#27 = B_SPLINE_CURVE_WITH_KNOTS('',1,(#28,#29,#30,#31,#32,#33,#34,#35,
    #36,#37,#38),.UNSPECIFIED.,.F.,.F.,(2,1,1,1,1,1,1,1,1,1,2),(0.,
    0.334300200944,0.360756741547,0.382386224173,0.451581261338,
    0.542968799212,0.682262573406,0.751260832158,0.828368875921,
    0.933708430109,1.),.UNSPECIFIED.);
#28 = CARTESIAN_POINT('',(0.,-13.06625831528,0.));
#29 = CARTESIAN_POINT('',(502.54261585718,13.2153992345,0.));
#30 = CARTESIAN_POINT('',(542.09338195224,8.544651761138,0.));
#31 = CARTESIAN_POINT('',(572.69574757982,-2.573139754642,0.));
#32 = CARTESIAN_POINT('',(676.19638372614,9.13540471254,0.));
#33 = CARTESIAN_POINT('',(812.9954818853,-5.385810276269,0.));
#34 = CARTESIAN_POINT('',(1.022212008922E+03,8.577231319898,0.));
#35 = CARTESIAN_POINT('',(1.126019341893E+03,12.025290882036,0.));
#36 = CARTESIAN_POINT('',(1.242046675434E+03,8.790445210775,0.));
#37 = CARTESIAN_POINT('',(1.40048445107E+03,2.317978971838,0.));
#38 = CARTESIAN_POINT('',(1.5E+03,9.715851024808,0.));
#39 = PCURVE('',#40,#45);
#40 = PLANE('',#41);
#41 = AXIS2_PLACEMENT_3D('',#42,#43,#44);
#42 = CARTESIAN_POINT('',(739.40615296295,75.,0.));
#43 = DIRECTION('',(0.,0.,1.));
#44 = DIRECTION('',(1.,0.,-0.));
#45 = DEFINITIONAL_REPRESENTATION('',(#46),#58);
#46 = B_SPLINE_CURVE_WITH_KNOTS('',1,(#47,#48,#49,#50,#51,#52,#53,#54,
    #55,#56,#57),.UNSPECIFIED.,.F.,.F.,(2,1,1,1,1,1,1,1,1,1,2),(0.,
    0.334300200944,0.360756741547,0.382386224173,0.451581261338,
    0.542968799212,0.682262573406,0.751260832158,0.828368875921,
    0.933708430109,1.),.UNSPECIFIED.);
#47 = CARTESIAN_POINT('',(-739.4061529629,-88.06625831528));
#48 = CARTESIAN_POINT('',(-236.8635371057,-61.7846007655));
#49 = CARTESIAN_POINT('',(-197.3127710107,-66.45534823886));
#50 = CARTESIAN_POINT('',(-166.7104053831,-77.57313975464));
#51 = CARTESIAN_POINT('',(-63.20976923681,-65.86459528746));
#52 = CARTESIAN_POINT('',(73.589328922343,-80.38581027626));
#53 = CARTESIAN_POINT('',(282.80585595905,-66.4227686801));
#54 = CARTESIAN_POINT('',(386.61318892992,-62.97470911796));
#55 = CARTESIAN_POINT('',(502.64052247079,-66.20955478922));
#56 = CARTESIAN_POINT('',(661.07829810696,-72.68202102816));
#57 = CARTESIAN_POINT('',(760.59384703704,-65.28414897519));
#58 = ( GEOMETRIC_REPRESENTATION_CONTEXT(2) 
PARAMETRIC_REPRESENTATION_CONTEXT() REPRESENTATION_CONTEXT('2D SPACE',''
  ) );
#59 = ORIENTED_EDGE('',*,*,#60,.T.);
#60 = EDGE_CURVE('',#24,#61,#63,.T.);
#61 = VERTEX_POINT('',#62);
#62 = CARTESIAN_POINT('',(1.5E+03,140.28414897519,0.));
#63 = SURFACE_CURVE('',#64,(#68),.PCURVE_S1.);
#64 = LINE('',#65,#66);
#65 = CARTESIAN_POINT('',(1.5E+03,9.715851024808,0.));
#66 = VECTOR('',#67,1.);
#67 = DIRECTION('',(0.,1.,0.));
#68 = PCURVE('',#40,#69);
#69 = DEFINITIONAL_REPRESENTATION('',(#70),#74);
#70 = LINE('',#71,#72);
#71 = CARTESIAN_POINT('',(760.59384703704,-65.28414897519));
#72 = VECTOR('',#73,1.);
#73 = DIRECTION('',(0.,1.));
#74 = ( GEOMETRIC_REPRESENTATION_CONTEXT(2) 
PARAMETRIC_REPRESENTATION_CONTEXT() REPRESENTATION_CONTEXT('2D SPACE',''
  ) );
#75 = ORIENTED_EDGE('',*,*,#76,.T.);
#76 = EDGE_CURVE('',#61,#77,#79,.T.);
#77 = VERTEX_POINT('',#78);
#78 = CARTESIAN_POINT('',(0.,163.06625831528,0.));
#79 = SURFACE_CURVE('',#80,(#92),.PCURVE_S1.);
#80 = B_SPLINE_CURVE_WITH_KNOTS('',1,(#81,#82,#83,#84,#85,#86,#87,#88,
    #89,#90,#91),.UNSPECIFIED.,.F.,.F.,(2,1,1,1,1,1,1,1,1,1,2),(0.,
    6.629156989127E-02,0.171631124079,0.248739167842,0.317737426594,
    0.457031200788,0.548418738662,0.617613775827,0.639243258453,
    0.665699799056,1.),.UNSPECIFIED.);
#81 = CARTESIAN_POINT('',(1.5E+03,140.28414897519,0.));
#82 = CARTESIAN_POINT('',(1.40048445107E+03,147.68202102816,0.));
#83 = CARTESIAN_POINT('',(1.242046675434E+03,141.20955478922,0.));
#84 = CARTESIAN_POINT('',(1.126019341893E+03,137.97470911796,0.));
#85 = CARTESIAN_POINT('',(1.022212008922E+03,141.4227686801,0.));
#86 = CARTESIAN_POINT('',(812.9954818853,155.38581027626,0.));
#87 = CARTESIAN_POINT('',(676.19638372614,140.86459528746,0.));
#88 = CARTESIAN_POINT('',(572.69574757982,152.57313975464,0.));
#89 = CARTESIAN_POINT('',(542.09338195224,141.45534823886,0.));
#90 = CARTESIAN_POINT('',(502.54261585718,136.7846007655,0.));
#91 = CARTESIAN_POINT('',(0.,163.06625831528,0.));
#92 = PCURVE('',#40,#93);
#93 = DEFINITIONAL_REPRESENTATION('',(#94),#106);
#94 = B_SPLINE_CURVE_WITH_KNOTS('',1,(#95,#96,#97,#98,#99,#100,#101,#102
    ,#103,#104,#105),.UNSPECIFIED.,.F.,.F.,(2,1,1,1,1,1,1,1,1,1,2),(0.,
    6.629156989127E-02,0.171631124079,0.248739167842,0.317737426594,
    0.457031200788,0.548418738662,0.617613775827,0.639243258453,
    0.665699799056,1.),.UNSPECIFIED.);
#95 = CARTESIAN_POINT('',(760.59384703704,65.284148975192));
#96 = CARTESIAN_POINT('',(661.07829810696,72.682021028162));
#97 = CARTESIAN_POINT('',(502.64052247079,66.209554789225));
#98 = CARTESIAN_POINT('',(386.61318892992,62.974709117964));
#99 = CARTESIAN_POINT('',(282.80585595905,66.422768680102));
#100 = CARTESIAN_POINT('',(73.589328922343,80.385810276269));
#101 = CARTESIAN_POINT('',(-63.20976923681,65.86459528746));
#102 = CARTESIAN_POINT('',(-166.7104053831,77.573139754642));
#103 = CARTESIAN_POINT('',(-197.3127710107,66.455348238862));
#104 = CARTESIAN_POINT('',(-236.8635371057,61.7846007655));
#105 = CARTESIAN_POINT('',(-739.4061529629,88.06625831528));
#106 = ( GEOMETRIC_REPRESENTATION_CONTEXT(2) 
PARAMETRIC_REPRESENTATION_CONTEXT() REPRESENTATION_CONTEXT('2D SPACE',''
  ) );
#107 = ORIENTED_EDGE('',*,*,#108,.T.);
#108 = EDGE_CURVE('',#77,#22,#109,.T.);
#109 = SURFACE_CURVE('',#110,(#114),.PCURVE_S1.);
#110 = LINE('',#111,#112);
#111 = CARTESIAN_POINT('',(0.,163.06625831528,0.));
#112 = VECTOR('',#113,1.);
#113 = DIRECTION('',(0.,-1.,0.));
#114 = PCURVE('',#40,#115);
#115 = DEFINITIONAL_REPRESENTATION('',(#116),#120);
#116 = LINE('',#117,#118);
#117 = CARTESIAN_POINT('',(-739.4061529629,88.06625831528));
#118 = VECTOR('',#119,1.);
#119 = DIRECTION('',(0.,-1.));
#120 = ( GEOMETRIC_REPRESENTATION_CONTEXT(2) 
PARAMETRIC_REPRESENTATION_CONTEXT() REPRESENTATION_CONTEXT('2D SPACE',''
  ) );
#121 = ( GEOMETRIC_REPRESENTATION_CONTEXT(3) 
GLOBAL_UNCERTAINTY_ASSIGNED_CONTEXT((#125)) GLOBAL_UNIT_ASSIGNED_CONTEXT
((#122,#123,#124)) REPRESENTATION_CONTEXT('Context #1',
  '3D Context with UNIT and UNCERTAINTY') );
#122 = ( LENGTH_UNIT() NAMED_UNIT(*) SI_UNIT(.MILLI.,.METRE.) );
#123 = ( NAMED_UNIT(*) PLANE_ANGLE_UNIT() SI_UNIT($,.RADIAN.) );
#124 = ( NAMED_UNIT(*) SI_UNIT($,.STERADIAN.) SOLID_ANGLE_UNIT() );
#125 = UNCERTAINTY_MEASURE_WITH_UNIT(LENGTH_MEASURE(1.E-07),#122,
  'distance_accuracy_value','confusion accuracy');
#126 = PRODUCT_RELATED_PRODUCT_CATEGORY('part',$,(#7));
ENDSEC;
END-ISO-10303-21;
