ISO-10303-21;
HEADER;
FILE_DESCRIPTION(('Open CASCADE Model'),'2;1');
FILE_NAME('Open CASCADE Shape Model','2026-06-02T12:09:04',('Author'),(
    'Open CASCADE'),'Open CASCADE STEP processor 7.9','Open CASCADE 7.9'
  ,'Unknown');
FILE_SCHEMA(('AUTOMOTIVE_DESIGN { 1 0 10303 214 1 1 1 1 }'));
ENDSEC;
DATA;
#1 = APPLICATION_PROTOCOL_DEFINITION('international standard',
  'automotive_design',2000,#2);
#2 = APPLICATION_CONTEXT(
  'core data for automotive mechanical design processes');
#3 = SHAPE_DEFINITION_REPRESENTATION(#4,#10);
#4 = PRODUCT_DEFINITION_SHAPE('','',#5);
#5 = PRODUCT_DEFINITION('design','',#6,#9);
#6 = PRODUCT_DEFINITION_FORMATION('','',#7);
#7 = PRODUCT('Open CASCADE STEP translator 7.9 19',
  'Open CASCADE STEP translator 7.9 19','',(#8));
#8 = PRODUCT_CONTEXT('',#2,'mechanical');
#9 = PRODUCT_DEFINITION_CONTEXT('part definition',#2,'design');
#10 = MANIFOLD_SURFACE_SHAPE_REPRESENTATION('',(#11,#15),#121);
#11 = AXIS2_PLACEMENT_3D('',#12,#13,#14);
#12 = CARTESIAN_POINT('',(0.,0.,0.));
#13 = DIRECTION('',(0.,0.,1.));
#14 = DIRECTION('',(1.,0.,-0.));
#15 = SHELL_BASED_SURFACE_MODEL('',(#16));
#16 = OPEN_SHELL('',(#17));
#17 = ADVANCED_FACE('',(#18),#40,.T.);
#18 = FACE_BOUND('',#19,.T.);
#19 = EDGE_LOOP('',(#20,#59,#75,#107));
#20 = ORIENTED_EDGE('',*,*,#21,.T.);
#21 = EDGE_CURVE('',#22,#24,#26,.T.);
#22 = VERTEX_POINT('',#23);
#23 = CARTESIAN_POINT('',(0.,-4.112216519736,0.));
#24 = VERTEX_POINT('',#25);
#25 = CARTESIAN_POINT('',(1.5E+03,5.942178256725,0.));
#26 = SURFACE_CURVE('',#27,(#39),.PCURVE_S1.);
#27 = B_SPLINE_CURVE_WITH_KNOTS('',1,(#28,#29,#30,#31,#32,#33,#34,#35,
    #36,#37,#38),.UNSPECIFIED.,.F.,.F.,(2,1,1,1,1,1,1,1,1,1,2),(0.,
    0.105506626544,0.400813780686,0.557941813414,0.610373099612,
    0.672833724611,0.762405070346,0.830670956476,0.871230245073,
    0.911475816423,1.),.UNSPECIFIED.);
#28 = CARTESIAN_POINT('',(0.,-4.112216519736,0.));
#29 = CARTESIAN_POINT('',(158.19496451811,11.342349649947,0.));
#30 = CARTESIAN_POINT('',(602.86172309581,-2.647739999077,0.));
#31 = CARTESIAN_POINT('',(839.56039404515,-5.582890953163,0.));
#32 = CARTESIAN_POINT('',(915.91907147045,14.630919423342,0.));
#33 = CARTESIAN_POINT('',(1.009078363387E+03,1.370461144748,0.));
#34 = CARTESIAN_POINT('',(1.143559594753E+03,-9.76198533589,0.));
#35 = CARTESIAN_POINT('',(1.24516695002E+03,6.139229239677,0.));
#36 = CARTESIAN_POINT('',(1.306073979651E+03,1.243557546043,0.));
#37 = CARTESIAN_POINT('',(1.366702870104E+03,1.730576187963,0.));
#38 = CARTESIAN_POINT('',(1.5E+03,5.942178256725,0.));
#39 = PCURVE('',#40,#45);
#40 = PLANE('',#41);
#41 = AXIS2_PLACEMENT_3D('',#42,#43,#44);
#42 = CARTESIAN_POINT('',(745.92501767556,75.,0.));
#43 = DIRECTION('',(0.,0.,1.));
#44 = DIRECTION('',(1.,0.,-0.));
#45 = DEFINITIONAL_REPRESENTATION('',(#46),#58);
#46 = B_SPLINE_CURVE_WITH_KNOTS('',1,(#47,#48,#49,#50,#51,#52,#53,#54,
    #55,#56,#57),.UNSPECIFIED.,.F.,.F.,(2,1,1,1,1,1,1,1,1,1,2),(0.,
    0.105506626544,0.400813780686,0.557941813414,0.610373099612,
    0.672833724611,0.762405070346,0.830670956476,0.871230245073,
    0.911475816423,1.),.UNSPECIFIED.);
#47 = CARTESIAN_POINT('',(-745.9250176755,-79.11221651973));
#48 = CARTESIAN_POINT('',(-587.7300531574,-63.65765035005));
#49 = CARTESIAN_POINT('',(-143.0632945797,-77.64773999907));
#50 = CARTESIAN_POINT('',(93.635376369585,-80.58289095316));
#51 = CARTESIAN_POINT('',(169.99405379488,-60.36908057665));
#52 = CARTESIAN_POINT('',(263.15334571155,-73.62953885525));
#53 = CARTESIAN_POINT('',(397.63457707709,-84.76198533589));
#54 = CARTESIAN_POINT('',(499.24193234407,-68.86077076032));
#55 = CARTESIAN_POINT('',(560.14896197516,-73.75644245395));
#56 = CARTESIAN_POINT('',(620.77785242878,-73.26942381203));
#57 = CARTESIAN_POINT('',(754.07498232443,-69.05782174327));
#58 = ( GEOMETRIC_REPRESENTATION_CONTEXT(2) 
PARAMETRIC_REPRESENTATION_CONTEXT() REPRESENTATION_CONTEXT('2D SPACE',''
  ) );
#59 = ORIENTED_EDGE('',*,*,#60,.T.);
#60 = EDGE_CURVE('',#24,#61,#63,.T.);
#61 = VERTEX_POINT('',#62);
#62 = CARTESIAN_POINT('',(1.5E+03,144.05782174327,0.));
#63 = SURFACE_CURVE('',#64,(#68),.PCURVE_S1.);
#64 = LINE('',#65,#66);
#65 = CARTESIAN_POINT('',(1.5E+03,5.942178256725,0.));
#66 = VECTOR('',#67,1.);
#67 = DIRECTION('',(0.,1.,0.));
#68 = PCURVE('',#40,#69);
#69 = DEFINITIONAL_REPRESENTATION('',(#70),#74);
#70 = LINE('',#71,#72);
#71 = CARTESIAN_POINT('',(754.07498232443,-69.05782174327));
#72 = VECTOR('',#73,1.);
#73 = DIRECTION('',(0.,1.));
#74 = ( GEOMETRIC_REPRESENTATION_CONTEXT(2) 
PARAMETRIC_REPRESENTATION_CONTEXT() REPRESENTATION_CONTEXT('2D SPACE',''
  ) );
#75 = ORIENTED_EDGE('',*,*,#76,.T.);
#76 = EDGE_CURVE('',#61,#77,#79,.T.);
#77 = VERTEX_POINT('',#78);
#78 = CARTESIAN_POINT('',(0.,154.11221651973,0.));
#79 = SURFACE_CURVE('',#80,(#92),.PCURVE_S1.);
#80 = B_SPLINE_CURVE_WITH_KNOTS('',1,(#81,#82,#83,#84,#85,#86,#87,#88,
    #89,#90,#91),.UNSPECIFIED.,.F.,.F.,(2,1,1,1,1,1,1,1,1,1,2),(0.,
    8.852418357742E-02,0.128769754927,0.169329043524,0.237594929654,
    0.327166275389,0.389626900388,0.442058186586,0.599186219314,
    0.894493373456,1.),.UNSPECIFIED.);
#81 = CARTESIAN_POINT('',(1.5E+03,144.05782174327,0.));
#82 = CARTESIAN_POINT('',(1.366702870104E+03,148.26942381203,0.));
#83 = CARTESIAN_POINT('',(1.306073979651E+03,148.75644245395,0.));
#84 = CARTESIAN_POINT('',(1.24516695002E+03,143.86077076032,0.));
#85 = CARTESIAN_POINT('',(1.143559594753E+03,159.76198533589,0.));
#86 = CARTESIAN_POINT('',(1.009078363387E+03,148.62953885525,0.));
#87 = CARTESIAN_POINT('',(915.91907147045,135.36908057665,0.));
#88 = CARTESIAN_POINT('',(839.56039404515,155.58289095316,0.));
#89 = CARTESIAN_POINT('',(602.86172309581,152.64773999907,0.));
#90 = CARTESIAN_POINT('',(158.19496451811,138.65765035005,0.));
#91 = CARTESIAN_POINT('',(0.,154.11221651973,0.));
#92 = PCURVE('',#40,#93);
#93 = DEFINITIONAL_REPRESENTATION('',(#94),#106);
#94 = B_SPLINE_CURVE_WITH_KNOTS('',1,(#95,#96,#97,#98,#99,#100,#101,#102
    ,#103,#104,#105),.UNSPECIFIED.,.F.,.F.,(2,1,1,1,1,1,1,1,1,1,2),(0.,
    8.852418357742E-02,0.128769754927,0.169329043524,0.237594929654,
    0.327166275389,0.389626900388,0.442058186586,0.599186219314,
    0.894493373456,1.),.UNSPECIFIED.);
#95 = CARTESIAN_POINT('',(754.07498232443,69.057821743275));
#96 = CARTESIAN_POINT('',(620.77785242878,73.269423812037));
#97 = CARTESIAN_POINT('',(560.14896197516,73.756442453957));
#98 = CARTESIAN_POINT('',(499.24193234407,68.860770760323));
#99 = CARTESIAN_POINT('',(397.63457707709,84.76198533589));
#100 = CARTESIAN_POINT('',(263.15334571155,73.629538855252));
#101 = CARTESIAN_POINT('',(169.99405379488,60.369080576658));
#102 = CARTESIAN_POINT('',(93.635376369585,80.582890953163));
#103 = CARTESIAN_POINT('',(-143.0632945797,77.647739999077));
#104 = CARTESIAN_POINT('',(-587.7300531574,63.657650350053));
#105 = CARTESIAN_POINT('',(-745.9250176755,79.112216519736));
#106 = ( GEOMETRIC_REPRESENTATION_CONTEXT(2) 
PARAMETRIC_REPRESENTATION_CONTEXT() REPRESENTATION_CONTEXT('2D SPACE',''
  ) );
#107 = ORIENTED_EDGE('',*,*,#108,.T.);
#108 = EDGE_CURVE('',#77,#22,#109,.T.);
#109 = SURFACE_CURVE('',#110,(#114),.PCURVE_S1.);
#110 = LINE('',#111,#112);
#111 = CARTESIAN_POINT('',(0.,154.11221651973,0.));
#112 = VECTOR('',#113,1.);
#113 = DIRECTION('',(0.,-1.,0.));
#114 = PCURVE('',#40,#115);
#115 = DEFINITIONAL_REPRESENTATION('',(#116),#120);
#116 = LINE('',#117,#118);
#117 = CARTESIAN_POINT('',(-745.9250176755,79.112216519736));
#118 = VECTOR('',#119,1.);
#119 = DIRECTION('',(0.,-1.));
#120 = ( GEOMETRIC_REPRESENTATION_CONTEXT(2) 
PARAMETRIC_REPRESENTATION_CONTEXT() REPRESENTATION_CONTEXT('2D SPACE',''
  ) );
#121 = ( GEOMETRIC_REPRESENTATION_CONTEXT(3) 
GLOBAL_UNCERTAINTY_ASSIGNED_CONTEXT((#125)) GLOBAL_UNIT_ASSIGNED_CONTEXT
((#122,#123,#124)) REPRESENTATION_CONTEXT('Context #1',
  '3D Context with UNIT and UNCERTAINTY') );
#122 = ( LENGTH_UNIT() NAMED_UNIT(*) SI_UNIT(.MILLI.,.METRE.) );
#123 = ( NAMED_UNIT(*) PLANE_ANGLE_UNIT() SI_UNIT($,.RADIAN.) );
#124 = ( NAMED_UNIT(*) SI_UNIT($,.STERADIAN.) SOLID_ANGLE_UNIT() );
#125 = UNCERTAINTY_MEASURE_WITH_UNIT(LENGTH_MEASURE(1.E-07),#122,
  'distance_accuracy_value','confusion accuracy');
#126 = PRODUCT_RELATED_PRODUCT_CATEGORY('part',$,(#7));
ENDSEC;
END-ISO-10303-21;
