ISO-10303-21;
HEADER;
FILE_DESCRIPTION(('Open CASCADE Model'),'2;1');
FILE_NAME('Open CASCADE Shape Model','2026-06-02T12:09:04',('Author'),(
    'Open CASCADE'),'Open CASCADE STEP processor 7.9','Open CASCADE 7.9'
  ,'Unknown');
FILE_SCHEMA(('AUTOMOTIVE_DESIGN { 1 0 10303 214 1 1 1 1 }'));
ENDSEC;
DATA;
#1 = APPLICATION_PROTOCOL_DEFINITION('international standard',
  'automotive_design',2000,#2);
#2 = APPLICATION_CONTEXT(
  'core data for automotive mechanical design processes');
#3 = SHAPE_DEFINITION_REPRESENTATION(#4,#10);
#4 = PRODUCT_DEFINITION_SHAPE('','',#5);
#5 = PRODUCT_DEFINITION('design','',#6,#9);
#6 = PRODUCT_DEFINITION_FORMATION('','',#7);
#7 = PRODUCT('Open CASCADE STEP translator 7.9 72',
  'Open CASCADE STEP translator 7.9 72','',(#8));
#8 = PRODUCT_CONTEXT('',#2,'mechanical');
#9 = PRODUCT_DEFINITION_CONTEXT('part definition',#2,'design');
#10 = MANIFOLD_SURFACE_SHAPE_REPRESENTATION('',(#11,#15),#121);
#11 = AXIS2_PLACEMENT_3D('',#12,#13,#14);
#12 = CARTESIAN_POINT('',(0.,0.,0.));
#13 = DIRECTION('',(0.,0.,1.));
#14 = DIRECTION('',(1.,0.,-0.));
#15 = SHELL_BASED_SURFACE_MODEL('',(#16));
#16 = OPEN_SHELL('',(#17));
#17 = ADVANCED_FACE('',(#18),#40,.T.);
#18 = FACE_BOUND('',#19,.T.);
#19 = EDGE_LOOP('',(#20,#59,#75,#107));
#20 = ORIENTED_EDGE('',*,*,#21,.T.);
#21 = EDGE_CURVE('',#22,#24,#26,.T.);
#22 = VERTEX_POINT('',#23);
#23 = CARTESIAN_POINT('',(0.,4.269521054221,0.));
#24 = VERTEX_POINT('',#25);
#25 = CARTESIAN_POINT('',(1.5E+03,-8.466335858034,0.));
#26 = SURFACE_CURVE('',#27,(#39),.PCURVE_S1.);
#27 = B_SPLINE_CURVE_WITH_KNOTS('',1,(#28,#29,#30,#31,#32,#33,#34,#35,
    #36,#37,#38),.UNSPECIFIED.,.F.,.F.,(2,1,1,1,1,1,1,1,1,1,2),(0.,
    2.684629171114E-02,0.221594567421,0.268151071492,0.316930619043,
    0.347928335573,0.444087799003,0.510289350369,0.764631949718,
    0.929534427407,1.),.UNSPECIFIED.);
#28 = CARTESIAN_POINT('',(0.,4.269521054221,0.));
#29 = CARTESIAN_POINT('',(40.176171764791,0.6478522174,0.));
#30 = CARTESIAN_POINT('',(332.63526612204,10.577221395432,0.));
#31 = CARTESIAN_POINT('',(402.48858723,6.7971089362,0.));
#32 = CARTESIAN_POINT('',(475.77696604296,5.750003881415,0.));
#33 = CARTESIAN_POINT('',(522.03614942659,11.181714050129,0.));
#34 = CARTESIAN_POINT('',(665.966544139,-1.507190757248,0.));
#35 = CARTESIAN_POINT('',(765.33215551504,-6.150845895726,0.));
#36 = CARTESIAN_POINT('',(1.147030608621E+03,12.902051055694,0.));
#37 = CARTESIAN_POINT('',(1.394504836395E+03,0.566306947106,0.));
#38 = CARTESIAN_POINT('',(1.5E+03,-8.466335858034,0.));
#39 = PCURVE('',#40,#45);
#40 = PLANE('',#41);
#41 = AXIS2_PLACEMENT_3D('',#42,#43,#44);
#42 = CARTESIAN_POINT('',(755.82639398661,75.,0.));
#43 = DIRECTION('',(0.,0.,1.));
#44 = DIRECTION('',(1.,0.,-0.));
#45 = DEFINITIONAL_REPRESENTATION('',(#46),#58);
#46 = B_SPLINE_CURVE_WITH_KNOTS('',1,(#47,#48,#49,#50,#51,#52,#53,#54,
    #55,#56,#57),.UNSPECIFIED.,.F.,.F.,(2,1,1,1,1,1,1,1,1,1,2),(0.,
    2.684629171114E-02,0.221594567421,0.268151071492,0.316930619043,
    0.347928335573,0.444087799003,0.510289350369,0.764631949718,
    0.929534427407,1.),.UNSPECIFIED.);
#47 = CARTESIAN_POINT('',(-755.8263939866,-70.73047894577));
#48 = CARTESIAN_POINT('',(-715.6502222218,-74.3521477826));
#49 = CARTESIAN_POINT('',(-423.1911278645,-64.42277860456));
#50 = CARTESIAN_POINT('',(-353.3378067566,-68.2028910638));
#51 = CARTESIAN_POINT('',(-280.0494279436,-69.24999611858));
#52 = CARTESIAN_POINT('',(-233.79024456,-63.81828594987));
#53 = CARTESIAN_POINT('',(-89.8598498476,-76.50719075724));
#54 = CARTESIAN_POINT('',(9.505761528435,-81.15084589572));
#55 = CARTESIAN_POINT('',(391.20421463419,-62.0979489443));
#56 = CARTESIAN_POINT('',(638.67844240871,-74.43369305289));
#57 = CARTESIAN_POINT('',(744.17360601338,-83.46633585803));
#58 = ( GEOMETRIC_REPRESENTATION_CONTEXT(2) 
PARAMETRIC_REPRESENTATION_CONTEXT() REPRESENTATION_CONTEXT('2D SPACE',''
  ) );
#59 = ORIENTED_EDGE('',*,*,#60,.T.);
#60 = EDGE_CURVE('',#24,#61,#63,.T.);
#61 = VERTEX_POINT('',#62);
#62 = CARTESIAN_POINT('',(1.5E+03,158.46633585803,0.));
#63 = SURFACE_CURVE('',#64,(#68),.PCURVE_S1.);
#64 = LINE('',#65,#66);
#65 = CARTESIAN_POINT('',(1.5E+03,-8.466335858034,0.));
#66 = VECTOR('',#67,1.);
#67 = DIRECTION('',(0.,1.,0.));
#68 = PCURVE('',#40,#69);
#69 = DEFINITIONAL_REPRESENTATION('',(#70),#74);
#70 = LINE('',#71,#72);
#71 = CARTESIAN_POINT('',(744.17360601338,-83.46633585803));
#72 = VECTOR('',#73,1.);
#73 = DIRECTION('',(0.,1.));
#74 = ( GEOMETRIC_REPRESENTATION_CONTEXT(2) 
PARAMETRIC_REPRESENTATION_CONTEXT() REPRESENTATION_CONTEXT('2D SPACE',''
  ) );
#75 = ORIENTED_EDGE('',*,*,#76,.T.);
#76 = EDGE_CURVE('',#61,#77,#79,.T.);
#77 = VERTEX_POINT('',#78);
#78 = CARTESIAN_POINT('',(0.,145.73047894577,0.));
#79 = SURFACE_CURVE('',#80,(#92),.PCURVE_S1.);
#80 = B_SPLINE_CURVE_WITH_KNOTS('',1,(#81,#82,#83,#84,#85,#86,#87,#88,
    #89,#90,#91),.UNSPECIFIED.,.F.,.F.,(2,1,1,1,1,1,1,1,1,1,2),(0.,
    7.046557259313E-02,0.235368050282,0.489710649631,0.555912200997,
    0.652071664427,0.683069380957,0.731848928508,0.778405432579,
    0.973153708289,1.),.UNSPECIFIED.);
#81 = CARTESIAN_POINT('',(1.5E+03,158.46633585803,0.));
#82 = CARTESIAN_POINT('',(1.394504836395E+03,149.43369305289,0.));
#83 = CARTESIAN_POINT('',(1.147030608621E+03,137.0979489443,0.));
#84 = CARTESIAN_POINT('',(765.33215551504,156.15084589572,0.));
#85 = CARTESIAN_POINT('',(665.966544139,151.50719075724,0.));
#86 = CARTESIAN_POINT('',(522.03614942659,138.81828594987,0.));
#87 = CARTESIAN_POINT('',(475.77696604296,144.24999611858,0.));
#88 = CARTESIAN_POINT('',(402.48858723,143.2028910638,0.));
#89 = CARTESIAN_POINT('',(332.63526612204,139.42277860456,0.));
#90 = CARTESIAN_POINT('',(40.176171764791,149.3521477826,0.));
#91 = CARTESIAN_POINT('',(0.,145.73047894577,0.));
#92 = PCURVE('',#40,#93);
#93 = DEFINITIONAL_REPRESENTATION('',(#94),#106);
#94 = B_SPLINE_CURVE_WITH_KNOTS('',1,(#95,#96,#97,#98,#99,#100,#101,#102
    ,#103,#104,#105),.UNSPECIFIED.,.F.,.F.,(2,1,1,1,1,1,1,1,1,1,2),(0.,
    7.046557259313E-02,0.235368050282,0.489710649631,0.555912200997,
    0.652071664427,0.683069380957,0.731848928508,0.778405432579,
    0.973153708289,1.),.UNSPECIFIED.);
#95 = CARTESIAN_POINT('',(744.17360601338,83.466335858034));
#96 = CARTESIAN_POINT('',(638.67844240871,74.433693052894));
#97 = CARTESIAN_POINT('',(391.20421463419,62.097948944306));
#98 = CARTESIAN_POINT('',(9.505761528435,81.150845895726));
#99 = CARTESIAN_POINT('',(-89.8598498476,76.507190757248));
#100 = CARTESIAN_POINT('',(-233.79024456,63.818285949871));
#101 = CARTESIAN_POINT('',(-280.0494279436,69.249996118585));
#102 = CARTESIAN_POINT('',(-353.3378067566,68.2028910638));
#103 = CARTESIAN_POINT('',(-423.1911278645,64.422778604568));
#104 = CARTESIAN_POINT('',(-715.6502222218,74.3521477826));
#105 = CARTESIAN_POINT('',(-755.8263939866,70.730478945779));
#106 = ( GEOMETRIC_REPRESENTATION_CONTEXT(2) 
PARAMETRIC_REPRESENTATION_CONTEXT() REPRESENTATION_CONTEXT('2D SPACE',''
  ) );
#107 = ORIENTED_EDGE('',*,*,#108,.T.);
#108 = EDGE_CURVE('',#77,#22,#109,.T.);
#109 = SURFACE_CURVE('',#110,(#114),.PCURVE_S1.);
#110 = LINE('',#111,#112);
#111 = CARTESIAN_POINT('',(0.,145.73047894577,0.));
#112 = VECTOR('',#113,1.);
#113 = DIRECTION('',(0.,-1.,0.));
#114 = PCURVE('',#40,#115);
#115 = DEFINITIONAL_REPRESENTATION('',(#116),#120);
#116 = LINE('',#117,#118);
#117 = CARTESIAN_POINT('',(-755.8263939866,70.730478945779));
#118 = VECTOR('',#119,1.);
#119 = DIRECTION('',(0.,-1.));
#120 = ( GEOMETRIC_REPRESENTATION_CONTEXT(2) 
PARAMETRIC_REPRESENTATION_CONTEXT() REPRESENTATION_CONTEXT('2D SPACE',''
  ) );
#121 = ( GEOMETRIC_REPRESENTATION_CONTEXT(3) 
GLOBAL_UNCERTAINTY_ASSIGNED_CONTEXT((#125)) GLOBAL_UNIT_ASSIGNED_CONTEXT
((#122,#123,#124)) REPRESENTATION_CONTEXT('Context #1',
  '3D Context with UNIT and UNCERTAINTY') );
#122 = ( LENGTH_UNIT() NAMED_UNIT(*) SI_UNIT(.MILLI.,.METRE.) );
#123 = ( NAMED_UNIT(*) PLANE_ANGLE_UNIT() SI_UNIT($,.RADIAN.) );
#124 = ( NAMED_UNIT(*) SI_UNIT($,.STERADIAN.) SOLID_ANGLE_UNIT() );
#125 = UNCERTAINTY_MEASURE_WITH_UNIT(LENGTH_MEASURE(1.E-07),#122,
  'distance_accuracy_value','confusion accuracy');
#126 = PRODUCT_RELATED_PRODUCT_CATEGORY('part',$,(#7));
ENDSEC;
END-ISO-10303-21;
