ISO-10303-21;
HEADER;
FILE_DESCRIPTION(('Open CASCADE Model'),'2;1');
FILE_NAME('Open CASCADE Shape Model','2026-06-02T12:09:04',('Author'),(
    'Open CASCADE'),'Open CASCADE STEP processor 7.9','Open CASCADE 7.9'
  ,'Unknown');
FILE_SCHEMA(('AUTOMOTIVE_DESIGN { 1 0 10303 214 1 1 1 1 }'));
ENDSEC;
DATA;
#1 = APPLICATION_PROTOCOL_DEFINITION('international standard',
  'automotive_design',2000,#2);
#2 = APPLICATION_CONTEXT(
  'core data for automotive mechanical design processes');
#3 = SHAPE_DEFINITION_REPRESENTATION(#4,#10);
#4 = PRODUCT_DEFINITION_SHAPE('','',#5);
#5 = PRODUCT_DEFINITION('design','',#6,#9);
#6 = PRODUCT_DEFINITION_FORMATION('','',#7);
#7 = PRODUCT('Open CASCADE STEP translator 7.9 35',
  'Open CASCADE STEP translator 7.9 35','',(#8));
#8 = PRODUCT_CONTEXT('',#2,'mechanical');
#9 = PRODUCT_DEFINITION_CONTEXT('part definition',#2,'design');
#10 = MANIFOLD_SURFACE_SHAPE_REPRESENTATION('',(#11,#15),#121);
#11 = AXIS2_PLACEMENT_3D('',#12,#13,#14);
#12 = CARTESIAN_POINT('',(0.,0.,0.));
#13 = DIRECTION('',(0.,0.,1.));
#14 = DIRECTION('',(1.,0.,-0.));
#15 = SHELL_BASED_SURFACE_MODEL('',(#16));
#16 = OPEN_SHELL('',(#17));
#17 = ADVANCED_FACE('',(#18),#40,.T.);
#18 = FACE_BOUND('',#19,.T.);
#19 = EDGE_LOOP('',(#20,#59,#75,#107));
#20 = ORIENTED_EDGE('',*,*,#21,.T.);
#21 = EDGE_CURVE('',#22,#24,#26,.T.);
#22 = VERTEX_POINT('',#23);
#23 = CARTESIAN_POINT('',(0.,11.637888870039,0.));
#24 = VERTEX_POINT('',#25);
#25 = CARTESIAN_POINT('',(1.5E+03,5.325286770968,0.));
#26 = SURFACE_CURVE('',#27,(#39),.PCURVE_S1.);
#27 = B_SPLINE_CURVE_WITH_KNOTS('',1,(#28,#29,#30,#31,#32,#33,#34,#35,
    #36,#37,#38),.UNSPECIFIED.,.F.,.F.,(2,1,1,1,1,1,1,1,1,1,2),(0.,
    3.655493891551E-02,0.148977064107,0.218787374965,0.263307143316,
    0.625072627596,0.742596098306,0.78295558972,0.919145834888,
    0.97987781533,1.),.UNSPECIFIED.);
#28 = CARTESIAN_POINT('',(0.,11.637888870039,0.));
#29 = CARTESIAN_POINT('',(50.417590157264,-10.88293691222,0.));
#30 = CARTESIAN_POINT('',(218.26091014234,14.963008124643,0.));
#31 = CARTESIAN_POINT('',(322.61199213876,-0.245020674386,0.));
#32 = CARTESIAN_POINT('',(389.85995096797,0.314939804784,0.));
#33 = CARTESIAN_POINT('',(936.31241068777,5.007175169681,0.));
#34 = CARTESIAN_POINT('',(1.113815545966E+03,2.060189395607,0.));
#35 = CARTESIAN_POINT('',(1.173874348114E+03,-8.417434125798,0.));
#36 = CARTESIAN_POINT('',(1.379591402463E+03,-10.23611118644,0.));
#37 = CARTESIAN_POINT('',(1.469661226197E+03,7.189543697542,0.));
#38 = CARTESIAN_POINT('',(1.5E+03,5.325286770968,0.));
#39 = PCURVE('',#40,#45);
#40 = PLANE('',#41);
#41 = AXIS2_PLACEMENT_3D('',#42,#43,#44);
#42 = CARTESIAN_POINT('',(750.63411750238,75.,0.));
#43 = DIRECTION('',(0.,0.,1.));
#44 = DIRECTION('',(1.,0.,-0.));
#45 = DEFINITIONAL_REPRESENTATION('',(#46),#58);
#46 = B_SPLINE_CURVE_WITH_KNOTS('',1,(#47,#48,#49,#50,#51,#52,#53,#54,
    #55,#56,#57),.UNSPECIFIED.,.F.,.F.,(2,1,1,1,1,1,1,1,1,1,2),(0.,
    3.655493891551E-02,0.148977064107,0.218787374965,0.263307143316,
    0.625072627596,0.742596098306,0.78295558972,0.919145834888,
    0.97987781533,1.),.UNSPECIFIED.);
#47 = CARTESIAN_POINT('',(-750.6341175023,-63.36211112996));
#48 = CARTESIAN_POINT('',(-700.2165273451,-85.88293691222));
#49 = CARTESIAN_POINT('',(-532.37320736,-60.03699187535));
#50 = CARTESIAN_POINT('',(-428.0221253636,-75.24502067438));
#51 = CARTESIAN_POINT('',(-360.7741665344,-74.68506019521));
#52 = CARTESIAN_POINT('',(185.67829318538,-69.99282483031));
#53 = CARTESIAN_POINT('',(363.18142846342,-72.93981060439));
#54 = CARTESIAN_POINT('',(423.24023061113,-83.41743412579));
#55 = CARTESIAN_POINT('',(628.95728496029,-85.23611118644));
#56 = CARTESIAN_POINT('',(719.02710869411,-67.81045630245));
#57 = CARTESIAN_POINT('',(749.36588249761,-69.67471322903));
#58 = ( GEOMETRIC_REPRESENTATION_CONTEXT(2) 
PARAMETRIC_REPRESENTATION_CONTEXT() REPRESENTATION_CONTEXT('2D SPACE',''
  ) );
#59 = ORIENTED_EDGE('',*,*,#60,.T.);
#60 = EDGE_CURVE('',#24,#61,#63,.T.);
#61 = VERTEX_POINT('',#62);
#62 = CARTESIAN_POINT('',(1.5E+03,144.67471322903,0.));
#63 = SURFACE_CURVE('',#64,(#68),.PCURVE_S1.);
#64 = LINE('',#65,#66);
#65 = CARTESIAN_POINT('',(1.5E+03,5.325286770968,0.));
#66 = VECTOR('',#67,1.);
#67 = DIRECTION('',(0.,1.,0.));
#68 = PCURVE('',#40,#69);
#69 = DEFINITIONAL_REPRESENTATION('',(#70),#74);
#70 = LINE('',#71,#72);
#71 = CARTESIAN_POINT('',(749.36588249761,-69.67471322903));
#72 = VECTOR('',#73,1.);
#73 = DIRECTION('',(0.,1.));
#74 = ( GEOMETRIC_REPRESENTATION_CONTEXT(2) 
PARAMETRIC_REPRESENTATION_CONTEXT() REPRESENTATION_CONTEXT('2D SPACE',''
  ) );
#75 = ORIENTED_EDGE('',*,*,#76,.T.);
#76 = EDGE_CURVE('',#61,#77,#79,.T.);
#77 = VERTEX_POINT('',#78);
#78 = CARTESIAN_POINT('',(0.,138.36211112996,0.));
#79 = SURFACE_CURVE('',#80,(#92),.PCURVE_S1.);
#80 = B_SPLINE_CURVE_WITH_KNOTS('',1,(#81,#82,#83,#84,#85,#86,#87,#88,
    #89,#90,#91),.UNSPECIFIED.,.F.,.F.,(2,1,1,1,1,1,1,1,1,1,2),(0.,
    2.012218467003E-02,8.085416511225E-02,0.21704441028,0.257403901694,
    0.374927372404,0.736692856684,0.781212625035,0.851022935893,
    0.963445061084,1.),.UNSPECIFIED.);
#81 = CARTESIAN_POINT('',(1.5E+03,144.67471322903,0.));
#82 = CARTESIAN_POINT('',(1.469661226197E+03,142.81045630245,0.));
#83 = CARTESIAN_POINT('',(1.379591402463E+03,160.23611118644,0.));
#84 = CARTESIAN_POINT('',(1.173874348114E+03,158.41743412579,0.));
#85 = CARTESIAN_POINT('',(1.113815545966E+03,147.93981060439,0.));
#86 = CARTESIAN_POINT('',(936.31241068777,144.99282483031,0.));
#87 = CARTESIAN_POINT('',(389.85995096797,149.68506019521,0.));
#88 = CARTESIAN_POINT('',(322.61199213876,150.24502067438,0.));
#89 = CARTESIAN_POINT('',(218.26091014234,135.03699187535,0.));
#90 = CARTESIAN_POINT('',(50.417590157264,160.88293691222,0.));
#91 = CARTESIAN_POINT('',(0.,138.36211112996,0.));
#92 = PCURVE('',#40,#93);
#93 = DEFINITIONAL_REPRESENTATION('',(#94),#106);
#94 = B_SPLINE_CURVE_WITH_KNOTS('',1,(#95,#96,#97,#98,#99,#100,#101,#102
    ,#103,#104,#105),.UNSPECIFIED.,.F.,.F.,(2,1,1,1,1,1,1,1,1,1,2),(0.,
    2.012218467003E-02,8.085416511225E-02,0.21704441028,0.257403901694,
    0.374927372404,0.736692856684,0.781212625035,0.851022935893,
    0.963445061084,1.),.UNSPECIFIED.);
#95 = CARTESIAN_POINT('',(749.36588249761,69.674713229032));
#96 = CARTESIAN_POINT('',(719.02710869411,67.810456302458));
#97 = CARTESIAN_POINT('',(628.95728496029,85.236111186449));
#98 = CARTESIAN_POINT('',(423.24023061113,83.417434125798));
#99 = CARTESIAN_POINT('',(363.18142846342,72.939810604394));
#100 = CARTESIAN_POINT('',(185.67829318538,69.992824830319));
#101 = CARTESIAN_POINT('',(-360.7741665344,74.685060195216));
#102 = CARTESIAN_POINT('',(-428.0221253636,75.245020674386));
#103 = CARTESIAN_POINT('',(-532.37320736,60.036991875357));
#104 = CARTESIAN_POINT('',(-700.2165273451,85.882936912226));
#105 = CARTESIAN_POINT('',(-750.6341175023,63.362111129961));
#106 = ( GEOMETRIC_REPRESENTATION_CONTEXT(2) 
PARAMETRIC_REPRESENTATION_CONTEXT() REPRESENTATION_CONTEXT('2D SPACE',''
  ) );
#107 = ORIENTED_EDGE('',*,*,#108,.T.);
#108 = EDGE_CURVE('',#77,#22,#109,.T.);
#109 = SURFACE_CURVE('',#110,(#114),.PCURVE_S1.);
#110 = LINE('',#111,#112);
#111 = CARTESIAN_POINT('',(0.,138.36211112996,0.));
#112 = VECTOR('',#113,1.);
#113 = DIRECTION('',(0.,-1.,0.));
#114 = PCURVE('',#40,#115);
#115 = DEFINITIONAL_REPRESENTATION('',(#116),#120);
#116 = LINE('',#117,#118);
#117 = CARTESIAN_POINT('',(-750.6341175023,63.362111129961));
#118 = VECTOR('',#119,1.);
#119 = DIRECTION('',(0.,-1.));
#120 = ( GEOMETRIC_REPRESENTATION_CONTEXT(2) 
PARAMETRIC_REPRESENTATION_CONTEXT() REPRESENTATION_CONTEXT('2D SPACE',''
  ) );
#121 = ( GEOMETRIC_REPRESENTATION_CONTEXT(3) 
GLOBAL_UNCERTAINTY_ASSIGNED_CONTEXT((#125)) GLOBAL_UNIT_ASSIGNED_CONTEXT
((#122,#123,#124)) REPRESENTATION_CONTEXT('Context #1',
  '3D Context with UNIT and UNCERTAINTY') );
#122 = ( LENGTH_UNIT() NAMED_UNIT(*) SI_UNIT(.MILLI.,.METRE.) );
#123 = ( NAMED_UNIT(*) PLANE_ANGLE_UNIT() SI_UNIT($,.RADIAN.) );
#124 = ( NAMED_UNIT(*) SI_UNIT($,.STERADIAN.) SOLID_ANGLE_UNIT() );
#125 = UNCERTAINTY_MEASURE_WITH_UNIT(LENGTH_MEASURE(1.E-07),#122,
  'distance_accuracy_value','confusion accuracy');
#126 = PRODUCT_RELATED_PRODUCT_CATEGORY('part',$,(#7));
ENDSEC;
END-ISO-10303-21;
