ISO-10303-21;
HEADER;
FILE_DESCRIPTION(('Open CASCADE Model'),'2;1');
FILE_NAME('Open CASCADE Shape Model','2026-06-02T12:09:04',('Author'),(
    'Open CASCADE'),'Open CASCADE STEP processor 7.9','Open CASCADE 7.9'
  ,'Unknown');
FILE_SCHEMA(('AUTOMOTIVE_DESIGN { 1 0 10303 214 1 1 1 1 }'));
ENDSEC;
DATA;
#1 = APPLICATION_PROTOCOL_DEFINITION('international standard',
  'automotive_design',2000,#2);
#2 = APPLICATION_CONTEXT(
  'core data for automotive mechanical design processes');
#3 = SHAPE_DEFINITION_REPRESENTATION(#4,#10);
#4 = PRODUCT_DEFINITION_SHAPE('','',#5);
#5 = PRODUCT_DEFINITION('design','',#6,#9);
#6 = PRODUCT_DEFINITION_FORMATION('','',#7);
#7 = PRODUCT('Open CASCADE STEP translator 7.9 95',
  'Open CASCADE STEP translator 7.9 95','',(#8));
#8 = PRODUCT_CONTEXT('',#2,'mechanical');
#9 = PRODUCT_DEFINITION_CONTEXT('part definition',#2,'design');
#10 = MANIFOLD_SURFACE_SHAPE_REPRESENTATION('',(#11,#15),#121);
#11 = AXIS2_PLACEMENT_3D('',#12,#13,#14);
#12 = CARTESIAN_POINT('',(0.,0.,0.));
#13 = DIRECTION('',(0.,0.,1.));
#14 = DIRECTION('',(1.,0.,-0.));
#15 = SHELL_BASED_SURFACE_MODEL('',(#16));
#16 = OPEN_SHELL('',(#17));
#17 = ADVANCED_FACE('',(#18),#40,.T.);
#18 = FACE_BOUND('',#19,.T.);
#19 = EDGE_LOOP('',(#20,#59,#75,#107));
#20 = ORIENTED_EDGE('',*,*,#21,.T.);
#21 = EDGE_CURVE('',#22,#24,#26,.T.);
#22 = VERTEX_POINT('',#23);
#23 = CARTESIAN_POINT('',(0.,-0.656293040666,0.));
#24 = VERTEX_POINT('',#25);
#25 = CARTESIAN_POINT('',(1.5E+03,3.177840774946,0.));
#26 = SURFACE_CURVE('',#27,(#39),.PCURVE_S1.);
#27 = B_SPLINE_CURVE_WITH_KNOTS('',1,(#28,#29,#30,#31,#32,#33,#34,#35,
    #36,#37,#38),.UNSPECIFIED.,.F.,.F.,(2,1,1,1,1,1,1,1,1,1,2),(0.,
    0.335628852664,0.409906077736,0.453295517208,0.491992961232,
    0.604974101312,0.629944036072,0.700252288139,0.81370564456,
    0.938612488788,1.),.UNSPECIFIED.);
#28 = CARTESIAN_POINT('',(0.,-0.656293040666,0.));
#29 = CARTESIAN_POINT('',(505.8534081176,6.610910126924,0.));
#30 = CARTESIAN_POINT('',(617.5675162424,14.038692318655,0.));
#31 = CARTESIAN_POINT('',(680.59349816723,-3.431583196056,0.));
#32 = CARTESIAN_POINT('',(738.47499644261,3.788459913529,0.));
#33 = CARTESIAN_POINT('',(908.57181433798,-4.540049962201,0.));
#34 = CARTESIAN_POINT('',(942.50684519863,11.739990875872,0.));
#35 = CARTESIAN_POINT('',(1.0484467975E+03,14.586679341178,0.));
#36 = CARTESIAN_POINT('',(1.219314395269E+03,7.551172563441,0.));
#37 = CARTESIAN_POINT('',(1.407487350025E+03,1.303580310178,0.));
#38 = CARTESIAN_POINT('',(1.5E+03,3.177840774946,0.));
#39 = PCURVE('',#40,#45);
#40 = PLANE('',#41);
#41 = AXIS2_PLACEMENT_3D('',#42,#43,#44);
#42 = CARTESIAN_POINT('',(748.54713665788,75.,0.));
#43 = DIRECTION('',(0.,0.,1.));
#44 = DIRECTION('',(1.,0.,-0.));
#45 = DEFINITIONAL_REPRESENTATION('',(#46),#58);
#46 = B_SPLINE_CURVE_WITH_KNOTS('',1,(#47,#48,#49,#50,#51,#52,#53,#54,
    #55,#56,#57),.UNSPECIFIED.,.F.,.F.,(2,1,1,1,1,1,1,1,1,1,2),(0.,
    0.335628852664,0.409906077736,0.453295517208,0.491992961232,
    0.604974101312,0.629944036072,0.700252288139,0.81370564456,
    0.938612488788,1.),.UNSPECIFIED.);
#47 = CARTESIAN_POINT('',(-748.5471366578,-75.65629304066));
#48 = CARTESIAN_POINT('',(-242.6937285402,-68.38908987307));
#49 = CARTESIAN_POINT('',(-130.9796204154,-60.96130768134));
#50 = CARTESIAN_POINT('',(-67.95363849065,-78.43158319605));
#51 = CARTESIAN_POINT('',(-10.07214021527,-71.21154008647));
#52 = CARTESIAN_POINT('',(160.02467768009,-79.5400499622));
#53 = CARTESIAN_POINT('',(193.95970854074,-63.26000912412));
#54 = CARTESIAN_POINT('',(299.8996608419,-60.41332065882));
#55 = CARTESIAN_POINT('',(470.76725861106,-67.44882743655));
#56 = CARTESIAN_POINT('',(658.94021336734,-73.69641968982));
#57 = CARTESIAN_POINT('',(751.45286334211,-71.82215922505));
#58 = ( GEOMETRIC_REPRESENTATION_CONTEXT(2) 
PARAMETRIC_REPRESENTATION_CONTEXT() REPRESENTATION_CONTEXT('2D SPACE',''
  ) );
#59 = ORIENTED_EDGE('',*,*,#60,.T.);
#60 = EDGE_CURVE('',#24,#61,#63,.T.);
#61 = VERTEX_POINT('',#62);
#62 = CARTESIAN_POINT('',(1.5E+03,146.82215922505,0.));
#63 = SURFACE_CURVE('',#64,(#68),.PCURVE_S1.);
#64 = LINE('',#65,#66);
#65 = CARTESIAN_POINT('',(1.5E+03,3.177840774946,0.));
#66 = VECTOR('',#67,1.);
#67 = DIRECTION('',(0.,1.,0.));
#68 = PCURVE('',#40,#69);
#69 = DEFINITIONAL_REPRESENTATION('',(#70),#74);
#70 = LINE('',#71,#72);
#71 = CARTESIAN_POINT('',(751.45286334211,-71.82215922505));
#72 = VECTOR('',#73,1.);
#73 = DIRECTION('',(0.,1.));
#74 = ( GEOMETRIC_REPRESENTATION_CONTEXT(2) 
PARAMETRIC_REPRESENTATION_CONTEXT() REPRESENTATION_CONTEXT('2D SPACE',''
  ) );
#75 = ORIENTED_EDGE('',*,*,#76,.T.);
#76 = EDGE_CURVE('',#61,#77,#79,.T.);
#77 = VERTEX_POINT('',#78);
#78 = CARTESIAN_POINT('',(0.,150.65629304066,0.));
#79 = SURFACE_CURVE('',#80,(#92),.PCURVE_S1.);
#80 = B_SPLINE_CURVE_WITH_KNOTS('',1,(#81,#82,#83,#84,#85,#86,#87,#88,
    #89,#90,#91),.UNSPECIFIED.,.F.,.F.,(2,1,1,1,1,1,1,1,1,1,2),(0.,
    6.138751121163E-02,0.18629435544,0.299747711861,0.370055963928,
    0.395025898688,0.508007038768,0.546704482792,0.590093922264,
    0.664371147336,1.),.UNSPECIFIED.);
#81 = CARTESIAN_POINT('',(1.5E+03,146.82215922505,0.));
#82 = CARTESIAN_POINT('',(1.407487350025E+03,148.69641968982,0.));
#83 = CARTESIAN_POINT('',(1.219314395269E+03,142.44882743655,0.));
#84 = CARTESIAN_POINT('',(1.0484467975E+03,135.41332065882,0.));
#85 = CARTESIAN_POINT('',(942.50684519863,138.26000912412,0.));
#86 = CARTESIAN_POINT('',(908.57181433798,154.5400499622,0.));
#87 = CARTESIAN_POINT('',(738.47499644261,146.21154008647,0.));
#88 = CARTESIAN_POINT('',(680.59349816723,153.43158319605,0.));
#89 = CARTESIAN_POINT('',(617.5675162424,135.96130768134,0.));
#90 = CARTESIAN_POINT('',(505.8534081176,143.38908987307,0.));
#91 = CARTESIAN_POINT('',(0.,150.65629304066,0.));
#92 = PCURVE('',#40,#93);
#93 = DEFINITIONAL_REPRESENTATION('',(#94),#106);
#94 = B_SPLINE_CURVE_WITH_KNOTS('',1,(#95,#96,#97,#98,#99,#100,#101,#102
    ,#103,#104,#105),.UNSPECIFIED.,.F.,.F.,(2,1,1,1,1,1,1,1,1,1,2),(0.,
    6.138751121163E-02,0.18629435544,0.299747711861,0.370055963928,
    0.395025898688,0.508007038768,0.546704482792,0.590093922264,
    0.664371147336,1.),.UNSPECIFIED.);
#95 = CARTESIAN_POINT('',(751.45286334211,71.822159225054));
#96 = CARTESIAN_POINT('',(658.94021336734,73.696419689822));
#97 = CARTESIAN_POINT('',(470.76725861106,67.448827436559));
#98 = CARTESIAN_POINT('',(299.8996608419,60.413320658821));
#99 = CARTESIAN_POINT('',(193.95970854074,63.260009124128));
#100 = CARTESIAN_POINT('',(160.02467768009,79.540049962201));
#101 = CARTESIAN_POINT('',(-10.07214021527,71.211540086471));
#102 = CARTESIAN_POINT('',(-67.95363849065,78.431583196056));
#103 = CARTESIAN_POINT('',(-130.9796204154,60.961307681345));
#104 = CARTESIAN_POINT('',(-242.6937285402,68.389089873076));
#105 = CARTESIAN_POINT('',(-748.5471366578,75.656293040666));
#106 = ( GEOMETRIC_REPRESENTATION_CONTEXT(2) 
PARAMETRIC_REPRESENTATION_CONTEXT() REPRESENTATION_CONTEXT('2D SPACE',''
  ) );
#107 = ORIENTED_EDGE('',*,*,#108,.T.);
#108 = EDGE_CURVE('',#77,#22,#109,.T.);
#109 = SURFACE_CURVE('',#110,(#114),.PCURVE_S1.);
#110 = LINE('',#111,#112);
#111 = CARTESIAN_POINT('',(0.,150.65629304066,0.));
#112 = VECTOR('',#113,1.);
#113 = DIRECTION('',(0.,-1.,0.));
#114 = PCURVE('',#40,#115);
#115 = DEFINITIONAL_REPRESENTATION('',(#116),#120);
#116 = LINE('',#117,#118);
#117 = CARTESIAN_POINT('',(-748.5471366578,75.656293040666));
#118 = VECTOR('',#119,1.);
#119 = DIRECTION('',(0.,-1.));
#120 = ( GEOMETRIC_REPRESENTATION_CONTEXT(2) 
PARAMETRIC_REPRESENTATION_CONTEXT() REPRESENTATION_CONTEXT('2D SPACE',''
  ) );
#121 = ( GEOMETRIC_REPRESENTATION_CONTEXT(3) 
GLOBAL_UNCERTAINTY_ASSIGNED_CONTEXT((#125)) GLOBAL_UNIT_ASSIGNED_CONTEXT
((#122,#123,#124)) REPRESENTATION_CONTEXT('Context #1',
  '3D Context with UNIT and UNCERTAINTY') );
#122 = ( LENGTH_UNIT() NAMED_UNIT(*) SI_UNIT(.MILLI.,.METRE.) );
#123 = ( NAMED_UNIT(*) PLANE_ANGLE_UNIT() SI_UNIT($,.RADIAN.) );
#124 = ( NAMED_UNIT(*) SI_UNIT($,.STERADIAN.) SOLID_ANGLE_UNIT() );
#125 = UNCERTAINTY_MEASURE_WITH_UNIT(LENGTH_MEASURE(1.E-07),#122,
  'distance_accuracy_value','confusion accuracy');
#126 = PRODUCT_RELATED_PRODUCT_CATEGORY('part',$,(#7));
ENDSEC;
END-ISO-10303-21;
