ISO-10303-21;
HEADER;
FILE_DESCRIPTION(('Open CASCADE Model'),'2;1');
FILE_NAME('Open CASCADE Shape Model','2026-06-02T12:09:04',('Author'),(
    'Open CASCADE'),'Open CASCADE STEP processor 7.9','Open CASCADE 7.9'
  ,'Unknown');
FILE_SCHEMA(('AUTOMOTIVE_DESIGN { 1 0 10303 214 1 1 1 1 }'));
ENDSEC;
DATA;
#1 = APPLICATION_PROTOCOL_DEFINITION('international standard',
  'automotive_design',2000,#2);
#2 = APPLICATION_CONTEXT(
  'core data for automotive mechanical design processes');
#3 = SHAPE_DEFINITION_REPRESENTATION(#4,#10);
#4 = PRODUCT_DEFINITION_SHAPE('','',#5);
#5 = PRODUCT_DEFINITION('design','',#6,#9);
#6 = PRODUCT_DEFINITION_FORMATION('','',#7);
#7 = PRODUCT('Open CASCADE STEP translator 7.9 50',
  'Open CASCADE STEP translator 7.9 50','',(#8));
#8 = PRODUCT_CONTEXT('',#2,'mechanical');
#9 = PRODUCT_DEFINITION_CONTEXT('part definition',#2,'design');
#10 = MANIFOLD_SURFACE_SHAPE_REPRESENTATION('',(#11,#15),#121);
#11 = AXIS2_PLACEMENT_3D('',#12,#13,#14);
#12 = CARTESIAN_POINT('',(0.,0.,0.));
#13 = DIRECTION('',(0.,0.,1.));
#14 = DIRECTION('',(1.,0.,-0.));
#15 = SHELL_BASED_SURFACE_MODEL('',(#16));
#16 = OPEN_SHELL('',(#17));
#17 = ADVANCED_FACE('',(#18),#40,.T.);
#18 = FACE_BOUND('',#19,.T.);
#19 = EDGE_LOOP('',(#20,#59,#75,#107));
#20 = ORIENTED_EDGE('',*,*,#21,.T.);
#21 = EDGE_CURVE('',#22,#24,#26,.T.);
#22 = VERTEX_POINT('',#23);
#23 = CARTESIAN_POINT('',(0.,-13.58767405456,0.));
#24 = VERTEX_POINT('',#25);
#25 = CARTESIAN_POINT('',(1.5E+03,-11.25322839967,0.));
#26 = SURFACE_CURVE('',#27,(#39),.PCURVE_S1.);
#27 = B_SPLINE_CURVE_WITH_KNOTS('',1,(#28,#29,#30,#31,#32,#33,#34,#35,
    #36,#37,#38),.UNSPECIFIED.,.F.,.F.,(2,1,1,1,1,1,1,1,1,1,2),(0.,
    8.262034072173E-02,0.108293376825,0.191692158338,0.248731716865,
    0.365902851246,0.453229891093,0.633853048435,0.709988963334,
    0.793632287765,1.),.UNSPECIFIED.);
#28 = CARTESIAN_POINT('',(0.,-13.58767405456,0.));
#29 = CARTESIAN_POINT('',(124.15278820489,-3.301814486615,0.));
#30 = CARTESIAN_POINT('',(161.37016202352,7.346792069179,0.));
#31 = CARTESIAN_POINT('',(286.63022965492,-3.764344707418,0.));
#32 = CARTESIAN_POINT('',(372.14861507304,5.38526514966,0.));
#33 = CARTESIAN_POINT('',(547.72549229859,-14.28385172075,0.));
#34 = CARTESIAN_POINT('',(678.26001174194,3.009715945091,0.));
#35 = CARTESIAN_POINT('',(950.47564071469,-5.56283162283,0.));
#36 = CARTESIAN_POINT('',(1.063544367154E+03,14.303172529597,0.));
#37 = CARTESIAN_POINT('',(1.189157311551E+03,2.998156615957,0.));
#38 = CARTESIAN_POINT('',(1.5E+03,-11.25322839967,0.));
#39 = PCURVE('',#40,#45);
#40 = PLANE('',#41);
#41 = AXIS2_PLACEMENT_3D('',#42,#43,#44);
#42 = CARTESIAN_POINT('',(748.18734894884,75.,0.));
#43 = DIRECTION('',(0.,0.,1.));
#44 = DIRECTION('',(1.,0.,-0.));
#45 = DEFINITIONAL_REPRESENTATION('',(#46),#58);
#46 = B_SPLINE_CURVE_WITH_KNOTS('',1,(#47,#48,#49,#50,#51,#52,#53,#54,
    #55,#56,#57),.UNSPECIFIED.,.F.,.F.,(2,1,1,1,1,1,1,1,1,1,2),(0.,
    8.262034072173E-02,0.108293376825,0.191692158338,0.248731716865,
    0.365902851246,0.453229891093,0.633853048435,0.709988963334,
    0.793632287765,1.),.UNSPECIFIED.);
#47 = CARTESIAN_POINT('',(-748.1873489488,-88.58767405456));
#48 = CARTESIAN_POINT('',(-624.0345607439,-78.30181448661));
#49 = CARTESIAN_POINT('',(-586.8171869253,-67.65320793082));
#50 = CARTESIAN_POINT('',(-461.5571192939,-78.76434470741));
#51 = CARTESIAN_POINT('',(-376.0387338758,-69.61473485034));
#52 = CARTESIAN_POINT('',(-200.4618566502,-89.28385172075));
#53 = CARTESIAN_POINT('',(-69.9273372069,-71.9902840549));
#54 = CARTESIAN_POINT('',(202.28829176585,-80.56283162283));
#55 = CARTESIAN_POINT('',(315.3570182048,-60.6968274704));
#56 = CARTESIAN_POINT('',(440.96996260261,-72.00184338404));
#57 = CARTESIAN_POINT('',(751.81265105115,-86.25322839967));
#58 = ( GEOMETRIC_REPRESENTATION_CONTEXT(2) 
PARAMETRIC_REPRESENTATION_CONTEXT() REPRESENTATION_CONTEXT('2D SPACE',''
  ) );
#59 = ORIENTED_EDGE('',*,*,#60,.T.);
#60 = EDGE_CURVE('',#24,#61,#63,.T.);
#61 = VERTEX_POINT('',#62);
#62 = CARTESIAN_POINT('',(1.5E+03,161.25322839967,0.));
#63 = SURFACE_CURVE('',#64,(#68),.PCURVE_S1.);
#64 = LINE('',#65,#66);
#65 = CARTESIAN_POINT('',(1.5E+03,-11.25322839967,0.));
#66 = VECTOR('',#67,1.);
#67 = DIRECTION('',(0.,1.,0.));
#68 = PCURVE('',#40,#69);
#69 = DEFINITIONAL_REPRESENTATION('',(#70),#74);
#70 = LINE('',#71,#72);
#71 = CARTESIAN_POINT('',(751.81265105115,-86.25322839967));
#72 = VECTOR('',#73,1.);
#73 = DIRECTION('',(0.,1.));
#74 = ( GEOMETRIC_REPRESENTATION_CONTEXT(2) 
PARAMETRIC_REPRESENTATION_CONTEXT() REPRESENTATION_CONTEXT('2D SPACE',''
  ) );
#75 = ORIENTED_EDGE('',*,*,#76,.T.);
#76 = EDGE_CURVE('',#61,#77,#79,.T.);
#77 = VERTEX_POINT('',#78);
#78 = CARTESIAN_POINT('',(0.,163.58767405456,0.));
#79 = SURFACE_CURVE('',#80,(#92),.PCURVE_S1.);
#80 = B_SPLINE_CURVE_WITH_KNOTS('',1,(#81,#82,#83,#84,#85,#86,#87,#88,
    #89,#90,#91),.UNSPECIFIED.,.F.,.F.,(2,1,1,1,1,1,1,1,1,1,2),(0.,
    0.206367712235,0.290011036666,0.366146951565,0.546770108907,
    0.634097148754,0.751268283135,0.808307841662,0.891706623175,
    0.917379659278,1.),.UNSPECIFIED.);
#81 = CARTESIAN_POINT('',(1.5E+03,161.25322839967,0.));
#82 = CARTESIAN_POINT('',(1.189157311551E+03,147.00184338404,0.));
#83 = CARTESIAN_POINT('',(1.063544367154E+03,135.6968274704,0.));
#84 = CARTESIAN_POINT('',(950.47564071469,155.56283162283,0.));
#85 = CARTESIAN_POINT('',(678.26001174194,146.9902840549,0.));
#86 = CARTESIAN_POINT('',(547.72549229859,164.28385172075,0.));
#87 = CARTESIAN_POINT('',(372.14861507304,144.61473485034,0.));
#88 = CARTESIAN_POINT('',(286.63022965492,153.76434470741,0.));
#89 = CARTESIAN_POINT('',(161.37016202352,142.65320793082,0.));
#90 = CARTESIAN_POINT('',(124.15278820489,153.30181448661,0.));
#91 = CARTESIAN_POINT('',(0.,163.58767405456,0.));
#92 = PCURVE('',#40,#93);
#93 = DEFINITIONAL_REPRESENTATION('',(#94),#106);
#94 = B_SPLINE_CURVE_WITH_KNOTS('',1,(#95,#96,#97,#98,#99,#100,#101,#102
    ,#103,#104,#105),.UNSPECIFIED.,.F.,.F.,(2,1,1,1,1,1,1,1,1,1,2),(0.,
    0.206367712235,0.290011036666,0.366146951565,0.546770108907,
    0.634097148754,0.751268283135,0.808307841662,0.891706623175,
    0.917379659278,1.),.UNSPECIFIED.);
#95 = CARTESIAN_POINT('',(751.81265105115,86.253228399675));
#96 = CARTESIAN_POINT('',(440.96996260261,72.001843384043));
#97 = CARTESIAN_POINT('',(315.3570182048,60.696827470403));
#98 = CARTESIAN_POINT('',(202.28829176585,80.56283162283));
#99 = CARTESIAN_POINT('',(-69.9273372069,71.990284054909));
#100 = CARTESIAN_POINT('',(-200.4618566502,89.283851720751));
#101 = CARTESIAN_POINT('',(-376.0387338758,69.61473485034));
#102 = CARTESIAN_POINT('',(-461.5571192939,78.764344707418));
#103 = CARTESIAN_POINT('',(-586.8171869253,67.653207930821));
#104 = CARTESIAN_POINT('',(-624.0345607439,78.301814486615));
#105 = CARTESIAN_POINT('',(-748.1873489488,88.587674054567));
#106 = ( GEOMETRIC_REPRESENTATION_CONTEXT(2) 
PARAMETRIC_REPRESENTATION_CONTEXT() REPRESENTATION_CONTEXT('2D SPACE',''
  ) );
#107 = ORIENTED_EDGE('',*,*,#108,.T.);
#108 = EDGE_CURVE('',#77,#22,#109,.T.);
#109 = SURFACE_CURVE('',#110,(#114),.PCURVE_S1.);
#110 = LINE('',#111,#112);
#111 = CARTESIAN_POINT('',(0.,163.58767405456,0.));
#112 = VECTOR('',#113,1.);
#113 = DIRECTION('',(0.,-1.,0.));
#114 = PCURVE('',#40,#115);
#115 = DEFINITIONAL_REPRESENTATION('',(#116),#120);
#116 = LINE('',#117,#118);
#117 = CARTESIAN_POINT('',(-748.1873489488,88.587674054567));
#118 = VECTOR('',#119,1.);
#119 = DIRECTION('',(0.,-1.));
#120 = ( GEOMETRIC_REPRESENTATION_CONTEXT(2) 
PARAMETRIC_REPRESENTATION_CONTEXT() REPRESENTATION_CONTEXT('2D SPACE',''
  ) );
#121 = ( GEOMETRIC_REPRESENTATION_CONTEXT(3) 
GLOBAL_UNCERTAINTY_ASSIGNED_CONTEXT((#125)) GLOBAL_UNIT_ASSIGNED_CONTEXT
((#122,#123,#124)) REPRESENTATION_CONTEXT('Context #1',
  '3D Context with UNIT and UNCERTAINTY') );
#122 = ( LENGTH_UNIT() NAMED_UNIT(*) SI_UNIT(.MILLI.,.METRE.) );
#123 = ( NAMED_UNIT(*) PLANE_ANGLE_UNIT() SI_UNIT($,.RADIAN.) );
#124 = ( NAMED_UNIT(*) SI_UNIT($,.STERADIAN.) SOLID_ANGLE_UNIT() );
#125 = UNCERTAINTY_MEASURE_WITH_UNIT(LENGTH_MEASURE(1.E-07),#122,
  'distance_accuracy_value','confusion accuracy');
#126 = PRODUCT_RELATED_PRODUCT_CATEGORY('part',$,(#7));
ENDSEC;
END-ISO-10303-21;
