ISO-10303-21;
HEADER;
FILE_DESCRIPTION(('Open CASCADE Model'),'2;1');
FILE_NAME('Open CASCADE Shape Model','2026-06-02T12:09:04',('Author'),(
    'Open CASCADE'),'Open CASCADE STEP processor 7.9','Open CASCADE 7.9'
  ,'Unknown');
FILE_SCHEMA(('AUTOMOTIVE_DESIGN { 1 0 10303 214 1 1 1 1 }'));
ENDSEC;
DATA;
#1 = APPLICATION_PROTOCOL_DEFINITION('international standard',
  'automotive_design',2000,#2);
#2 = APPLICATION_CONTEXT(
  'core data for automotive mechanical design processes');
#3 = SHAPE_DEFINITION_REPRESENTATION(#4,#10);
#4 = PRODUCT_DEFINITION_SHAPE('','',#5);
#5 = PRODUCT_DEFINITION('design','',#6,#9);
#6 = PRODUCT_DEFINITION_FORMATION('','',#7);
#7 = PRODUCT('Open CASCADE STEP translator 7.9 7',
  'Open CASCADE STEP translator 7.9 7','',(#8));
#8 = PRODUCT_CONTEXT('',#2,'mechanical');
#9 = PRODUCT_DEFINITION_CONTEXT('part definition',#2,'design');
#10 = MANIFOLD_SURFACE_SHAPE_REPRESENTATION('',(#11,#15),#121);
#11 = AXIS2_PLACEMENT_3D('',#12,#13,#14);
#12 = CARTESIAN_POINT('',(0.,0.,0.));
#13 = DIRECTION('',(0.,0.,1.));
#14 = DIRECTION('',(1.,0.,-0.));
#15 = SHELL_BASED_SURFACE_MODEL('',(#16));
#16 = OPEN_SHELL('',(#17));
#17 = ADVANCED_FACE('',(#18),#40,.T.);
#18 = FACE_BOUND('',#19,.T.);
#19 = EDGE_LOOP('',(#20,#59,#75,#107));
#20 = ORIENTED_EDGE('',*,*,#21,.T.);
#21 = EDGE_CURVE('',#22,#24,#26,.T.);
#22 = VERTEX_POINT('',#23);
#23 = CARTESIAN_POINT('',(0.,-13.75677639724,0.));
#24 = VERTEX_POINT('',#25);
#25 = CARTESIAN_POINT('',(1.5E+03,5.052930079723,0.));
#26 = SURFACE_CURVE('',#27,(#39),.PCURVE_S1.);
#27 = B_SPLINE_CURVE_WITH_KNOTS('',1,(#28,#29,#30,#31,#32,#33,#34,#35,
    #36,#37,#38),.UNSPECIFIED.,.F.,.F.,(2,1,1,1,1,1,1,1,1,1,2),(0.,
    9.68647455935E-02,0.140336894568,0.167645128259,0.402590460042,
    0.486086414742,0.623439476787,0.671658138319,0.823565865896,
    0.972751242642,1.),.UNSPECIFIED.);
#28 = CARTESIAN_POINT('',(0.,-13.75677639724,0.));
#29 = CARTESIAN_POINT('',(145.4399030467,0.530896891713,0.));
#30 = CARTESIAN_POINT('',(210.40417494979,-8.482056817509,0.));
#31 = CARTESIAN_POINT('',(245.85035630905,12.518100002327,0.));
#32 = CARTESIAN_POINT('',(600.10559631519,0.400250074855,0.));
#33 = CARTESIAN_POINT('',(726.07603113334,0.278790169364,0.));
#34 = CARTESIAN_POINT('',(932.86625304899,-13.13479364924,0.));
#35 = CARTESIAN_POINT('',(1.004779986459E+03,-2.151841571282,0.));
#36 = CARTESIAN_POINT('',(1.233944491499E+03,0.795317968291,0.));
#37 = CARTESIAN_POINT('',(1.458935448071E+03,6.990730107243,0.));
#38 = CARTESIAN_POINT('',(1.5E+03,5.052930079723,0.));
#39 = PCURVE('',#40,#45);
#40 = PLANE('',#41);
#41 = AXIS2_PLACEMENT_3D('',#42,#43,#44);
#42 = CARTESIAN_POINT('',(739.38486930124,75.,0.));
#43 = DIRECTION('',(0.,0.,1.));
#44 = DIRECTION('',(1.,0.,-0.));
#45 = DEFINITIONAL_REPRESENTATION('',(#46),#58);
#46 = B_SPLINE_CURVE_WITH_KNOTS('',1,(#47,#48,#49,#50,#51,#52,#53,#54,
    #55,#56,#57),.UNSPECIFIED.,.F.,.F.,(2,1,1,1,1,1,1,1,1,1,2),(0.,
    9.68647455935E-02,0.140336894568,0.167645128259,0.402590460042,
    0.486086414742,0.623439476787,0.671658138319,0.823565865896,
    0.972751242642,1.),.UNSPECIFIED.);
#47 = CARTESIAN_POINT('',(-739.3848693012,-88.75677639724));
#48 = CARTESIAN_POINT('',(-593.9449662545,-74.46910310828));
#49 = CARTESIAN_POINT('',(-528.9806943514,-83.4820568175));
#50 = CARTESIAN_POINT('',(-493.5345129921,-62.48189999767));
#51 = CARTESIAN_POINT('',(-139.279272986,-74.59974992514));
#52 = CARTESIAN_POINT('',(-13.3088381679,-74.72120983063));
#53 = CARTESIAN_POINT('',(193.48138374775,-88.13479364924));
#54 = CARTESIAN_POINT('',(265.39511715794,-77.15184157128));
#55 = CARTESIAN_POINT('',(494.55962219788,-74.2046820317));
#56 = CARTESIAN_POINT('',(719.55057876976,-68.00926989275));
#57 = CARTESIAN_POINT('',(760.61513069875,-69.94706992027));
#58 = ( GEOMETRIC_REPRESENTATION_CONTEXT(2) 
PARAMETRIC_REPRESENTATION_CONTEXT() REPRESENTATION_CONTEXT('2D SPACE',''
  ) );
#59 = ORIENTED_EDGE('',*,*,#60,.T.);
#60 = EDGE_CURVE('',#24,#61,#63,.T.);
#61 = VERTEX_POINT('',#62);
#62 = CARTESIAN_POINT('',(1.5E+03,144.94706992027,0.));
#63 = SURFACE_CURVE('',#64,(#68),.PCURVE_S1.);
#64 = LINE('',#65,#66);
#65 = CARTESIAN_POINT('',(1.5E+03,5.052930079723,0.));
#66 = VECTOR('',#67,1.);
#67 = DIRECTION('',(0.,1.,0.));
#68 = PCURVE('',#40,#69);
#69 = DEFINITIONAL_REPRESENTATION('',(#70),#74);
#70 = LINE('',#71,#72);
#71 = CARTESIAN_POINT('',(760.61513069875,-69.94706992027));
#72 = VECTOR('',#73,1.);
#73 = DIRECTION('',(0.,1.));
#74 = ( GEOMETRIC_REPRESENTATION_CONTEXT(2) 
PARAMETRIC_REPRESENTATION_CONTEXT() REPRESENTATION_CONTEXT('2D SPACE',''
  ) );
#75 = ORIENTED_EDGE('',*,*,#76,.T.);
#76 = EDGE_CURVE('',#61,#77,#79,.T.);
#77 = VERTEX_POINT('',#78);
#78 = CARTESIAN_POINT('',(0.,163.75677639724,0.));
#79 = SURFACE_CURVE('',#80,(#92),.PCURVE_S1.);
#80 = B_SPLINE_CURVE_WITH_KNOTS('',1,(#81,#82,#83,#84,#85,#86,#87,#88,
    #89,#90,#91),.UNSPECIFIED.,.F.,.F.,(2,1,1,1,1,1,1,1,1,1,2),(0.,
    2.724875735812E-02,0.176434134104,0.328341861681,0.376560523213,
    0.513913585258,0.597409539958,0.832354871741,0.859663105432,
    0.903135254407,1.),.UNSPECIFIED.);
#81 = CARTESIAN_POINT('',(1.5E+03,144.94706992027,0.));
#82 = CARTESIAN_POINT('',(1.458935448071E+03,143.00926989275,0.));
#83 = CARTESIAN_POINT('',(1.233944491499E+03,149.2046820317,0.));
#84 = CARTESIAN_POINT('',(1.004779986459E+03,152.15184157128,0.));
#85 = CARTESIAN_POINT('',(932.86625304899,163.13479364924,0.));
#86 = CARTESIAN_POINT('',(726.07603113334,149.72120983063,0.));
#87 = CARTESIAN_POINT('',(600.10559631519,149.59974992514,0.));
#88 = CARTESIAN_POINT('',(245.85035630905,137.48189999767,0.));
#89 = CARTESIAN_POINT('',(210.40417494979,158.4820568175,0.));
#90 = CARTESIAN_POINT('',(145.4399030467,149.46910310828,0.));
#91 = CARTESIAN_POINT('',(0.,163.75677639724,0.));
#92 = PCURVE('',#40,#93);
#93 = DEFINITIONAL_REPRESENTATION('',(#94),#106);
#94 = B_SPLINE_CURVE_WITH_KNOTS('',1,(#95,#96,#97,#98,#99,#100,#101,#102
    ,#103,#104,#105),.UNSPECIFIED.,.F.,.F.,(2,1,1,1,1,1,1,1,1,1,2),(0.,
    2.724875735812E-02,0.176434134104,0.328341861681,0.376560523213,
    0.513913585258,0.597409539958,0.832354871741,0.859663105432,
    0.903135254407,1.),.UNSPECIFIED.);
#95 = CARTESIAN_POINT('',(760.61513069875,69.947069920277));
#96 = CARTESIAN_POINT('',(719.55057876976,68.009269892757));
#97 = CARTESIAN_POINT('',(494.55962219788,74.204682031709));
#98 = CARTESIAN_POINT('',(265.39511715794,77.151841571282));
#99 = CARTESIAN_POINT('',(193.48138374775,88.134793649249));
#100 = CARTESIAN_POINT('',(-13.3088381679,74.721209830636));
#101 = CARTESIAN_POINT('',(-139.279272986,74.599749925145));
#102 = CARTESIAN_POINT('',(-493.5345129921,62.481899997673));
#103 = CARTESIAN_POINT('',(-528.9806943514,83.482056817509));
#104 = CARTESIAN_POINT('',(-593.9449662545,74.469103108287));
#105 = CARTESIAN_POINT('',(-739.3848693012,88.756776397243));
#106 = ( GEOMETRIC_REPRESENTATION_CONTEXT(2) 
PARAMETRIC_REPRESENTATION_CONTEXT() REPRESENTATION_CONTEXT('2D SPACE',''
  ) );
#107 = ORIENTED_EDGE('',*,*,#108,.T.);
#108 = EDGE_CURVE('',#77,#22,#109,.T.);
#109 = SURFACE_CURVE('',#110,(#114),.PCURVE_S1.);
#110 = LINE('',#111,#112);
#111 = CARTESIAN_POINT('',(0.,163.75677639724,0.));
#112 = VECTOR('',#113,1.);
#113 = DIRECTION('',(0.,-1.,0.));
#114 = PCURVE('',#40,#115);
#115 = DEFINITIONAL_REPRESENTATION('',(#116),#120);
#116 = LINE('',#117,#118);
#117 = CARTESIAN_POINT('',(-739.3848693012,88.756776397243));
#118 = VECTOR('',#119,1.);
#119 = DIRECTION('',(0.,-1.));
#120 = ( GEOMETRIC_REPRESENTATION_CONTEXT(2) 
PARAMETRIC_REPRESENTATION_CONTEXT() REPRESENTATION_CONTEXT('2D SPACE',''
  ) );
#121 = ( GEOMETRIC_REPRESENTATION_CONTEXT(3) 
GLOBAL_UNCERTAINTY_ASSIGNED_CONTEXT((#125)) GLOBAL_UNIT_ASSIGNED_CONTEXT
((#122,#123,#124)) REPRESENTATION_CONTEXT('Context #1',
  '3D Context with UNIT and UNCERTAINTY') );
#122 = ( LENGTH_UNIT() NAMED_UNIT(*) SI_UNIT(.MILLI.,.METRE.) );
#123 = ( NAMED_UNIT(*) PLANE_ANGLE_UNIT() SI_UNIT($,.RADIAN.) );
#124 = ( NAMED_UNIT(*) SI_UNIT($,.STERADIAN.) SOLID_ANGLE_UNIT() );
#125 = UNCERTAINTY_MEASURE_WITH_UNIT(LENGTH_MEASURE(1.E-07),#122,
  'distance_accuracy_value','confusion accuracy');
#126 = PRODUCT_RELATED_PRODUCT_CATEGORY('part',$,(#7));
ENDSEC;
END-ISO-10303-21;
