ISO-10303-21;
HEADER;
FILE_DESCRIPTION(('Open CASCADE Model'),'2;1');
FILE_NAME('Open CASCADE Shape Model','2026-06-02T12:09:04',('Author'),(
    'Open CASCADE'),'Open CASCADE STEP processor 7.9','Open CASCADE 7.9'
  ,'Unknown');
FILE_SCHEMA(('AUTOMOTIVE_DESIGN { 1 0 10303 214 1 1 1 1 }'));
ENDSEC;
DATA;
#1 = APPLICATION_PROTOCOL_DEFINITION('international standard',
  'automotive_design',2000,#2);
#2 = APPLICATION_CONTEXT(
  'core data for automotive mechanical design processes');
#3 = SHAPE_DEFINITION_REPRESENTATION(#4,#10);
#4 = PRODUCT_DEFINITION_SHAPE('','',#5);
#5 = PRODUCT_DEFINITION('design','',#6,#9);
#6 = PRODUCT_DEFINITION_FORMATION('','',#7);
#7 = PRODUCT('Open CASCADE STEP translator 7.9 90',
  'Open CASCADE STEP translator 7.9 90','',(#8));
#8 = PRODUCT_CONTEXT('',#2,'mechanical');
#9 = PRODUCT_DEFINITION_CONTEXT('part definition',#2,'design');
#10 = MANIFOLD_SURFACE_SHAPE_REPRESENTATION('',(#11,#15),#121);
#11 = AXIS2_PLACEMENT_3D('',#12,#13,#14);
#12 = CARTESIAN_POINT('',(0.,0.,0.));
#13 = DIRECTION('',(0.,0.,1.));
#14 = DIRECTION('',(1.,0.,-0.));
#15 = SHELL_BASED_SURFACE_MODEL('',(#16));
#16 = OPEN_SHELL('',(#17));
#17 = ADVANCED_FACE('',(#18),#40,.T.);
#18 = FACE_BOUND('',#19,.T.);
#19 = EDGE_LOOP('',(#20,#59,#75,#107));
#20 = ORIENTED_EDGE('',*,*,#21,.T.);
#21 = EDGE_CURVE('',#22,#24,#26,.T.);
#22 = VERTEX_POINT('',#23);
#23 = CARTESIAN_POINT('',(0.,14.669499978473,0.));
#24 = VERTEX_POINT('',#25);
#25 = CARTESIAN_POINT('',(1.5E+03,0.178091890147,0.));
#26 = SURFACE_CURVE('',#27,(#39),.PCURVE_S1.);
#27 = B_SPLINE_CURVE_WITH_KNOTS('',1,(#28,#29,#30,#31,#32,#33,#34,#35,
    #36,#37,#38),.UNSPECIFIED.,.F.,.F.,(2,1,1,1,1,1,1,1,1,1,2),(0.,
    0.141621646502,0.168475058949,0.33433991569,0.371621837809,
    0.528193064822,0.669561043862,0.793894973755,0.817593251268,
    0.879184112156,1.),.UNSPECIFIED.);
#28 = CARTESIAN_POINT('',(0.,14.669499978473,0.));
#29 = CARTESIAN_POINT('',(213.7460443649,9.641874729086,0.));
#30 = CARTESIAN_POINT('',(247.95233000916,-12.11712566386,0.));
#31 = CARTESIAN_POINT('',(498.1314636206,-1.484808384002,0.));
#32 = CARTESIAN_POINT('',(553.12518239664,10.498812652554,0.));
#33 = CARTESIAN_POINT('',(789.49432208966,8.916286421725,0.));
#34 = CARTESIAN_POINT('',(1.002475336144E+03,-4.799587327113,0.));
#35 = CARTESIAN_POINT('',(1.190171285109E+03,-6.744504667406,0.));
#36 = CARTESIAN_POINT('',(1.225750094345E+03,-2.982804257398,0.));
#37 = CARTESIAN_POINT('',(1.318125859178E+03,-13.59445139737,0.));
#38 = CARTESIAN_POINT('',(1.5E+03,0.178091890147,0.));
#39 = PCURVE('',#40,#45);
#40 = PLANE('',#41);
#41 = AXIS2_PLACEMENT_3D('',#42,#43,#44);
#42 = CARTESIAN_POINT('',(754.85520164741,75.,0.));
#43 = DIRECTION('',(0.,0.,1.));
#44 = DIRECTION('',(1.,0.,-0.));
#45 = DEFINITIONAL_REPRESENTATION('',(#46),#58);
#46 = B_SPLINE_CURVE_WITH_KNOTS('',1,(#47,#48,#49,#50,#51,#52,#53,#54,
    #55,#56,#57),.UNSPECIFIED.,.F.,.F.,(2,1,1,1,1,1,1,1,1,1,2),(0.,
    0.141621646502,0.168475058949,0.33433991569,0.371621837809,
    0.528193064822,0.669561043862,0.793894973755,0.817593251268,
    0.879184112156,1.),.UNSPECIFIED.);
#47 = CARTESIAN_POINT('',(-754.8552016474,-60.33050002152));
#48 = CARTESIAN_POINT('',(-541.1091572825,-65.35812527091));
#49 = CARTESIAN_POINT('',(-506.9028716382,-87.11712566386));
#50 = CARTESIAN_POINT('',(-256.7237380268,-76.484808384));
#51 = CARTESIAN_POINT('',(-201.7300192507,-64.50118734744));
#52 = CARTESIAN_POINT('',(34.639120442244,-66.08371357827));
#53 = CARTESIAN_POINT('',(247.62013449664,-79.79958732711));
#54 = CARTESIAN_POINT('',(435.31608346178,-81.7445046674));
#55 = CARTESIAN_POINT('',(470.89489269754,-77.98280425739));
#56 = CARTESIAN_POINT('',(563.27065753025,-88.59445139737));
#57 = CARTESIAN_POINT('',(745.14479835258,-74.82190810985));
#58 = ( GEOMETRIC_REPRESENTATION_CONTEXT(2) 
PARAMETRIC_REPRESENTATION_CONTEXT() REPRESENTATION_CONTEXT('2D SPACE',''
  ) );
#59 = ORIENTED_EDGE('',*,*,#60,.T.);
#60 = EDGE_CURVE('',#24,#61,#63,.T.);
#61 = VERTEX_POINT('',#62);
#62 = CARTESIAN_POINT('',(1.5E+03,149.82190810985,0.));
#63 = SURFACE_CURVE('',#64,(#68),.PCURVE_S1.);
#64 = LINE('',#65,#66);
#65 = CARTESIAN_POINT('',(1.5E+03,0.178091890147,0.));
#66 = VECTOR('',#67,1.);
#67 = DIRECTION('',(0.,1.,0.));
#68 = PCURVE('',#40,#69);
#69 = DEFINITIONAL_REPRESENTATION('',(#70),#74);
#70 = LINE('',#71,#72);
#71 = CARTESIAN_POINT('',(745.14479835258,-74.82190810985));
#72 = VECTOR('',#73,1.);
#73 = DIRECTION('',(0.,1.));
#74 = ( GEOMETRIC_REPRESENTATION_CONTEXT(2) 
PARAMETRIC_REPRESENTATION_CONTEXT() REPRESENTATION_CONTEXT('2D SPACE',''
  ) );
#75 = ORIENTED_EDGE('',*,*,#76,.T.);
#76 = EDGE_CURVE('',#61,#77,#79,.T.);
#77 = VERTEX_POINT('',#78);
#78 = CARTESIAN_POINT('',(0.,135.33050002152,0.));
#79 = SURFACE_CURVE('',#80,(#92),.PCURVE_S1.);
#80 = B_SPLINE_CURVE_WITH_KNOTS('',1,(#81,#82,#83,#84,#85,#86,#87,#88,
    #89,#90,#91),.UNSPECIFIED.,.F.,.F.,(2,1,1,1,1,1,1,1,1,1,2),(0.,
    0.120815887844,0.182406748732,0.206105026245,0.330438956138,
    0.471806935178,0.628378162191,0.66566008431,0.831524941051,
    0.858378353498,1.),.UNSPECIFIED.);
#81 = CARTESIAN_POINT('',(1.5E+03,149.82190810985,0.));
#82 = CARTESIAN_POINT('',(1.318125859178E+03,163.59445139737,0.));
#83 = CARTESIAN_POINT('',(1.225750094345E+03,152.98280425739,0.));
#84 = CARTESIAN_POINT('',(1.190171285109E+03,156.7445046674,0.));
#85 = CARTESIAN_POINT('',(1.002475336144E+03,154.79958732711,0.));
#86 = CARTESIAN_POINT('',(789.49432208966,141.08371357827,0.));
#87 = CARTESIAN_POINT('',(553.12518239664,139.50118734744,0.));
#88 = CARTESIAN_POINT('',(498.1314636206,151.484808384,0.));
#89 = CARTESIAN_POINT('',(247.95233000916,162.11712566386,0.));
#90 = CARTESIAN_POINT('',(213.7460443649,140.35812527091,0.));
#91 = CARTESIAN_POINT('',(0.,135.33050002152,0.));
#92 = PCURVE('',#40,#93);
#93 = DEFINITIONAL_REPRESENTATION('',(#94),#106);
#94 = B_SPLINE_CURVE_WITH_KNOTS('',1,(#95,#96,#97,#98,#99,#100,#101,#102
    ,#103,#104,#105),.UNSPECIFIED.,.F.,.F.,(2,1,1,1,1,1,1,1,1,1,2),(0.,
    0.120815887844,0.182406748732,0.206105026245,0.330438956138,
    0.471806935178,0.628378162191,0.66566008431,0.831524941051,
    0.858378353498,1.),.UNSPECIFIED.);
#95 = CARTESIAN_POINT('',(745.14479835258,74.821908109853));
#96 = CARTESIAN_POINT('',(563.27065753025,88.594451397376));
#97 = CARTESIAN_POINT('',(470.89489269754,77.982804257398));
#98 = CARTESIAN_POINT('',(435.31608346178,81.744504667406));
#99 = CARTESIAN_POINT('',(247.62013449664,79.799587327113));
#100 = CARTESIAN_POINT('',(34.639120442244,66.083713578275));
#101 = CARTESIAN_POINT('',(-201.7300192507,64.501187347446));
#102 = CARTESIAN_POINT('',(-256.7237380268,76.484808384002));
#103 = CARTESIAN_POINT('',(-506.9028716382,87.117125663864));
#104 = CARTESIAN_POINT('',(-541.1091572825,65.358125270914));
#105 = CARTESIAN_POINT('',(-754.8552016474,60.330500021527));
#106 = ( GEOMETRIC_REPRESENTATION_CONTEXT(2) 
PARAMETRIC_REPRESENTATION_CONTEXT() REPRESENTATION_CONTEXT('2D SPACE',''
  ) );
#107 = ORIENTED_EDGE('',*,*,#108,.T.);
#108 = EDGE_CURVE('',#77,#22,#109,.T.);
#109 = SURFACE_CURVE('',#110,(#114),.PCURVE_S1.);
#110 = LINE('',#111,#112);
#111 = CARTESIAN_POINT('',(0.,135.33050002152,0.));
#112 = VECTOR('',#113,1.);
#113 = DIRECTION('',(0.,-1.,0.));
#114 = PCURVE('',#40,#115);
#115 = DEFINITIONAL_REPRESENTATION('',(#116),#120);
#116 = LINE('',#117,#118);
#117 = CARTESIAN_POINT('',(-754.8552016474,60.330500021527));
#118 = VECTOR('',#119,1.);
#119 = DIRECTION('',(0.,-1.));
#120 = ( GEOMETRIC_REPRESENTATION_CONTEXT(2) 
PARAMETRIC_REPRESENTATION_CONTEXT() REPRESENTATION_CONTEXT('2D SPACE',''
  ) );
#121 = ( GEOMETRIC_REPRESENTATION_CONTEXT(3) 
GLOBAL_UNCERTAINTY_ASSIGNED_CONTEXT((#125)) GLOBAL_UNIT_ASSIGNED_CONTEXT
((#122,#123,#124)) REPRESENTATION_CONTEXT('Context #1',
  '3D Context with UNIT and UNCERTAINTY') );
#122 = ( LENGTH_UNIT() NAMED_UNIT(*) SI_UNIT(.MILLI.,.METRE.) );
#123 = ( NAMED_UNIT(*) PLANE_ANGLE_UNIT() SI_UNIT($,.RADIAN.) );
#124 = ( NAMED_UNIT(*) SI_UNIT($,.STERADIAN.) SOLID_ANGLE_UNIT() );
#125 = UNCERTAINTY_MEASURE_WITH_UNIT(LENGTH_MEASURE(1.E-07),#122,
  'distance_accuracy_value','confusion accuracy');
#126 = PRODUCT_RELATED_PRODUCT_CATEGORY('part',$,(#7));
ENDSEC;
END-ISO-10303-21;
