ISO-10303-21;
HEADER;
FILE_DESCRIPTION(('Open CASCADE Model'),'2;1');
FILE_NAME('Open CASCADE Shape Model','2026-06-02T12:09:04',('Author'),(
    'Open CASCADE'),'Open CASCADE STEP processor 7.9','Open CASCADE 7.9'
  ,'Unknown');
FILE_SCHEMA(('AUTOMOTIVE_DESIGN { 1 0 10303 214 1 1 1 1 }'));
ENDSEC;
DATA;
#1 = APPLICATION_PROTOCOL_DEFINITION('international standard',
  'automotive_design',2000,#2);
#2 = APPLICATION_CONTEXT(
  'core data for automotive mechanical design processes');
#3 = SHAPE_DEFINITION_REPRESENTATION(#4,#10);
#4 = PRODUCT_DEFINITION_SHAPE('','',#5);
#5 = PRODUCT_DEFINITION('design','',#6,#9);
#6 = PRODUCT_DEFINITION_FORMATION('','',#7);
#7 = PRODUCT('Open CASCADE STEP translator 7.9 62',
  'Open CASCADE STEP translator 7.9 62','',(#8));
#8 = PRODUCT_CONTEXT('',#2,'mechanical');
#9 = PRODUCT_DEFINITION_CONTEXT('part definition',#2,'design');
#10 = MANIFOLD_SURFACE_SHAPE_REPRESENTATION('',(#11,#15),#121);
#11 = AXIS2_PLACEMENT_3D('',#12,#13,#14);
#12 = CARTESIAN_POINT('',(0.,0.,0.));
#13 = DIRECTION('',(0.,0.,1.));
#14 = DIRECTION('',(1.,0.,-0.));
#15 = SHELL_BASED_SURFACE_MODEL('',(#16));
#16 = OPEN_SHELL('',(#17));
#17 = ADVANCED_FACE('',(#18),#40,.T.);
#18 = FACE_BOUND('',#19,.T.);
#19 = EDGE_LOOP('',(#20,#59,#75,#107));
#20 = ORIENTED_EDGE('',*,*,#21,.T.);
#21 = EDGE_CURVE('',#22,#24,#26,.T.);
#22 = VERTEX_POINT('',#23);
#23 = CARTESIAN_POINT('',(0.,14.8614360347,0.));
#24 = VERTEX_POINT('',#25);
#25 = CARTESIAN_POINT('',(1.5E+03,-8.599491374808,0.));
#26 = SURFACE_CURVE('',#27,(#39),.PCURVE_S1.);
#27 = B_SPLINE_CURVE_WITH_KNOTS('',1,(#28,#29,#30,#31,#32,#33,#34,#35,
    #36,#37,#38),.UNSPECIFIED.,.F.,.F.,(2,1,1,1,1,1,1,1,1,1,2),(0.,
    0.172633768277,0.229870768545,0.304456394303,0.482065083715,
    0.514104443624,0.649180267638,0.686607680479,0.882885900447,
    0.961125137743,1.),.UNSPECIFIED.);
#28 = CARTESIAN_POINT('',(0.,14.8614360347,0.));
#29 = CARTESIAN_POINT('',(261.44245620956,13.843740020297,0.));
#30 = CARTESIAN_POINT('',(345.95883989854,-5.412564170098,0.));
#31 = CARTESIAN_POINT('',(458.85945599873,-1.880040414958,0.));
#32 = CARTESIAN_POINT('',(727.35682137493,14.204026883818,0.));
#33 = CARTESIAN_POINT('',(770.85147418632,-7.303798836672,0.));
#34 = CARTESIAN_POINT('',(975.39046401943,-10.56436011207,0.));
#35 = CARTESIAN_POINT('',(1.031058550453E+03,0.107475526821,0.));
#36 = CARTESIAN_POINT('',(1.328309798247E+03,1.027276789282,0.));
#37 = CARTESIAN_POINT('',(1.445991497804E+03,14.835806734961,0.));
#38 = CARTESIAN_POINT('',(1.5E+03,-8.599491374808,0.));
#39 = PCURVE('',#40,#45);
#40 = PLANE('',#41);
#41 = AXIS2_PLACEMENT_3D('',#42,#43,#44);
#42 = CARTESIAN_POINT('',(762.55659419978,75.,0.));
#43 = DIRECTION('',(0.,0.,1.));
#44 = DIRECTION('',(1.,0.,-0.));
#45 = DEFINITIONAL_REPRESENTATION('',(#46),#58);
#46 = B_SPLINE_CURVE_WITH_KNOTS('',1,(#47,#48,#49,#50,#51,#52,#53,#54,
    #55,#56,#57),.UNSPECIFIED.,.F.,.F.,(2,1,1,1,1,1,1,1,1,1,2),(0.,
    0.172633768277,0.229870768545,0.304456394303,0.482065083715,
    0.514104443624,0.649180267638,0.686607680479,0.882885900447,
    0.961125137743,1.),.UNSPECIFIED.);
#47 = CARTESIAN_POINT('',(-762.5565941997,-60.1385639653));
#48 = CARTESIAN_POINT('',(-501.1141379902,-61.1562599797));
#49 = CARTESIAN_POINT('',(-416.5977543012,-80.41256417009));
#50 = CARTESIAN_POINT('',(-303.697138201,-76.88004041495));
#51 = CARTESIAN_POINT('',(-35.19977282484,-60.79597311618));
#52 = CARTESIAN_POINT('',(8.29487998655,-82.30379883667));
#53 = CARTESIAN_POINT('',(212.83386981965,-85.56436011207));
#54 = CARTESIAN_POINT('',(268.50195625343,-74.89252447317));
#55 = CARTESIAN_POINT('',(565.75320404758,-73.97272321071));
#56 = CARTESIAN_POINT('',(683.43490360439,-60.16419326503));
#57 = CARTESIAN_POINT('',(737.44340580022,-83.5994913748));
#58 = ( GEOMETRIC_REPRESENTATION_CONTEXT(2) 
PARAMETRIC_REPRESENTATION_CONTEXT() REPRESENTATION_CONTEXT('2D SPACE',''
  ) );
#59 = ORIENTED_EDGE('',*,*,#60,.T.);
#60 = EDGE_CURVE('',#24,#61,#63,.T.);
#61 = VERTEX_POINT('',#62);
#62 = CARTESIAN_POINT('',(1.5E+03,158.5994913748,0.));
#63 = SURFACE_CURVE('',#64,(#68),.PCURVE_S1.);
#64 = LINE('',#65,#66);
#65 = CARTESIAN_POINT('',(1.5E+03,-8.599491374808,0.));
#66 = VECTOR('',#67,1.);
#67 = DIRECTION('',(0.,1.,0.));
#68 = PCURVE('',#40,#69);
#69 = DEFINITIONAL_REPRESENTATION('',(#70),#74);
#70 = LINE('',#71,#72);
#71 = CARTESIAN_POINT('',(737.44340580022,-83.5994913748));
#72 = VECTOR('',#73,1.);
#73 = DIRECTION('',(0.,1.));
#74 = ( GEOMETRIC_REPRESENTATION_CONTEXT(2) 
PARAMETRIC_REPRESENTATION_CONTEXT() REPRESENTATION_CONTEXT('2D SPACE',''
  ) );
#75 = ORIENTED_EDGE('',*,*,#76,.T.);
#76 = EDGE_CURVE('',#61,#77,#79,.T.);
#77 = VERTEX_POINT('',#78);
#78 = CARTESIAN_POINT('',(0.,135.1385639653,0.));
#79 = SURFACE_CURVE('',#80,(#92),.PCURVE_S1.);
#80 = B_SPLINE_CURVE_WITH_KNOTS('',1,(#81,#82,#83,#84,#85,#86,#87,#88,
    #89,#90,#91),.UNSPECIFIED.,.F.,.F.,(2,1,1,1,1,1,1,1,1,1,2),(0.,
    3.887486225665E-02,0.117114099553,0.313392319521,0.350819732362,
    0.485895556376,0.517934916285,0.695543605697,0.770129231455,
    0.827366231723,1.),.UNSPECIFIED.);
#81 = CARTESIAN_POINT('',(1.5E+03,158.5994913748,0.));
#82 = CARTESIAN_POINT('',(1.445991497804E+03,135.16419326503,0.));
#83 = CARTESIAN_POINT('',(1.328309798247E+03,148.97272321071,0.));
#84 = CARTESIAN_POINT('',(1.031058550453E+03,149.89252447317,0.));
#85 = CARTESIAN_POINT('',(975.39046401943,160.56436011207,0.));
#86 = CARTESIAN_POINT('',(770.85147418632,157.30379883667,0.));
#87 = CARTESIAN_POINT('',(727.35682137493,135.79597311618,0.));
#88 = CARTESIAN_POINT('',(458.85945599873,151.88004041495,0.));
#89 = CARTESIAN_POINT('',(345.95883989854,155.41256417009,0.));
#90 = CARTESIAN_POINT('',(261.44245620956,136.1562599797,0.));
#91 = CARTESIAN_POINT('',(0.,135.1385639653,0.));
#92 = PCURVE('',#40,#93);
#93 = DEFINITIONAL_REPRESENTATION('',(#94),#106);
#94 = B_SPLINE_CURVE_WITH_KNOTS('',1,(#95,#96,#97,#98,#99,#100,#101,#102
    ,#103,#104,#105),.UNSPECIFIED.,.F.,.F.,(2,1,1,1,1,1,1,1,1,1,2),(0.,
    3.887486225665E-02,0.117114099553,0.313392319521,0.350819732362,
    0.485895556376,0.517934916285,0.695543605697,0.770129231455,
    0.827366231723,1.),.UNSPECIFIED.);
#95 = CARTESIAN_POINT('',(737.44340580022,83.599491374808));
#96 = CARTESIAN_POINT('',(683.43490360439,60.164193265039));
#97 = CARTESIAN_POINT('',(565.75320404758,73.972723210718));
#98 = CARTESIAN_POINT('',(268.50195625343,74.892524473179));
#99 = CARTESIAN_POINT('',(212.83386981965,85.564360112075));
#100 = CARTESIAN_POINT('',(8.29487998655,82.303798836672));
#101 = CARTESIAN_POINT('',(-35.19977282484,60.795973116182));
#102 = CARTESIAN_POINT('',(-303.697138201,76.880040414958));
#103 = CARTESIAN_POINT('',(-416.5977543012,80.412564170098));
#104 = CARTESIAN_POINT('',(-501.1141379902,61.156259979703));
#105 = CARTESIAN_POINT('',(-762.5565941997,60.1385639653));
#106 = ( GEOMETRIC_REPRESENTATION_CONTEXT(2) 
PARAMETRIC_REPRESENTATION_CONTEXT() REPRESENTATION_CONTEXT('2D SPACE',''
  ) );
#107 = ORIENTED_EDGE('',*,*,#108,.T.);
#108 = EDGE_CURVE('',#77,#22,#109,.T.);
#109 = SURFACE_CURVE('',#110,(#114),.PCURVE_S1.);
#110 = LINE('',#111,#112);
#111 = CARTESIAN_POINT('',(0.,135.1385639653,0.));
#112 = VECTOR('',#113,1.);
#113 = DIRECTION('',(0.,-1.,0.));
#114 = PCURVE('',#40,#115);
#115 = DEFINITIONAL_REPRESENTATION('',(#116),#120);
#116 = LINE('',#117,#118);
#117 = CARTESIAN_POINT('',(-762.5565941997,60.1385639653));
#118 = VECTOR('',#119,1.);
#119 = DIRECTION('',(0.,-1.));
#120 = ( GEOMETRIC_REPRESENTATION_CONTEXT(2) 
PARAMETRIC_REPRESENTATION_CONTEXT() REPRESENTATION_CONTEXT('2D SPACE',''
  ) );
#121 = ( GEOMETRIC_REPRESENTATION_CONTEXT(3) 
GLOBAL_UNCERTAINTY_ASSIGNED_CONTEXT((#125)) GLOBAL_UNIT_ASSIGNED_CONTEXT
((#122,#123,#124)) REPRESENTATION_CONTEXT('Context #1',
  '3D Context with UNIT and UNCERTAINTY') );
#122 = ( LENGTH_UNIT() NAMED_UNIT(*) SI_UNIT(.MILLI.,.METRE.) );
#123 = ( NAMED_UNIT(*) PLANE_ANGLE_UNIT() SI_UNIT($,.RADIAN.) );
#124 = ( NAMED_UNIT(*) SI_UNIT($,.STERADIAN.) SOLID_ANGLE_UNIT() );
#125 = UNCERTAINTY_MEASURE_WITH_UNIT(LENGTH_MEASURE(1.E-07),#122,
  'distance_accuracy_value','confusion accuracy');
#126 = PRODUCT_RELATED_PRODUCT_CATEGORY('part',$,(#7));
ENDSEC;
END-ISO-10303-21;
