ISO-10303-21;
HEADER;
FILE_DESCRIPTION(('Open CASCADE Model'),'2;1');
FILE_NAME('Open CASCADE Shape Model','2026-06-02T12:09:04',('Author'),(
    'Open CASCADE'),'Open CASCADE STEP processor 7.9','Open CASCADE 7.9'
  ,'Unknown');
FILE_SCHEMA(('AUTOMOTIVE_DESIGN { 1 0 10303 214 1 1 1 1 }'));
ENDSEC;
DATA;
#1 = APPLICATION_PROTOCOL_DEFINITION('international standard',
  'automotive_design',2000,#2);
#2 = APPLICATION_CONTEXT(
  'core data for automotive mechanical design processes');
#3 = SHAPE_DEFINITION_REPRESENTATION(#4,#10);
#4 = PRODUCT_DEFINITION_SHAPE('','',#5);
#5 = PRODUCT_DEFINITION('design','',#6,#9);
#6 = PRODUCT_DEFINITION_FORMATION('','',#7);
#7 = PRODUCT('Open CASCADE STEP translator 7.9 55',
  'Open CASCADE STEP translator 7.9 55','',(#8));
#8 = PRODUCT_CONTEXT('',#2,'mechanical');
#9 = PRODUCT_DEFINITION_CONTEXT('part definition',#2,'design');
#10 = MANIFOLD_SURFACE_SHAPE_REPRESENTATION('',(#11,#15),#121);
#11 = AXIS2_PLACEMENT_3D('',#12,#13,#14);
#12 = CARTESIAN_POINT('',(0.,0.,0.));
#13 = DIRECTION('',(0.,0.,1.));
#14 = DIRECTION('',(1.,0.,-0.));
#15 = SHELL_BASED_SURFACE_MODEL('',(#16));
#16 = OPEN_SHELL('',(#17));
#17 = ADVANCED_FACE('',(#18),#40,.T.);
#18 = FACE_BOUND('',#19,.T.);
#19 = EDGE_LOOP('',(#20,#59,#75,#107));
#20 = ORIENTED_EDGE('',*,*,#21,.T.);
#21 = EDGE_CURVE('',#22,#24,#26,.T.);
#22 = VERTEX_POINT('',#23);
#23 = CARTESIAN_POINT('',(0.,-10.82402920861,0.));
#24 = VERTEX_POINT('',#25);
#25 = CARTESIAN_POINT('',(1.5E+03,-7.507979638447,0.));
#26 = SURFACE_CURVE('',#27,(#39),.PCURVE_S1.);
#27 = B_SPLINE_CURVE_WITH_KNOTS('',1,(#28,#29,#30,#31,#32,#33,#34,#35,
    #36,#37,#38),.UNSPECIFIED.,.F.,.F.,(2,1,1,1,1,1,1,1,1,1,2),(0.,
    4.364131142991E-02,6.603365858858E-02,8.671838486634E-02,
    0.155759182344,0.424556397625,0.463381803169,0.614366601714,
    0.880183067209,0.931322828859,1.),.UNSPECIFIED.);
#28 = CARTESIAN_POINT('',(0.,-10.82402920861,0.));
#29 = CARTESIAN_POINT('',(65.75507373692,-9.693738298503,0.));
#30 = CARTESIAN_POINT('',(98.404219818434,-1.168252987926,0.));
#31 = CARTESIAN_POINT('',(128.41950343968,-9.575996378819,0.));
#32 = CARTESIAN_POINT('',(230.15163756327,12.217317677265,0.));
#33 = CARTESIAN_POINT('',(635.11145228266,3.165554461837,0.));
#34 = CARTESIAN_POINT('',(692.70528557672,-7.133926683191,0.));
#35 = CARTESIAN_POINT('',(919.77334238932,7.276441220281,0.));
#36 = CARTESIAN_POINT('',(1.320067281293E+03,-7.569867433007,0.));
#37 = CARTESIAN_POINT('',(1.396771358333E+03,-0.125358131724,0.));
#38 = CARTESIAN_POINT('',(1.5E+03,-7.507979638447,0.));
#39 = PCURVE('',#40,#45);
#40 = PLANE('',#41);
#41 = AXIS2_PLACEMENT_3D('',#42,#43,#44);
#42 = CARTESIAN_POINT('',(747.10028503486,75.,0.));
#43 = DIRECTION('',(0.,0.,1.));
#44 = DIRECTION('',(1.,0.,-0.));
#45 = DEFINITIONAL_REPRESENTATION('',(#46),#58);
#46 = B_SPLINE_CURVE_WITH_KNOTS('',1,(#47,#48,#49,#50,#51,#52,#53,#54,
    #55,#56,#57),.UNSPECIFIED.,.F.,.F.,(2,1,1,1,1,1,1,1,1,1,2),(0.,
    4.364131142991E-02,6.603365858858E-02,8.671838486634E-02,
    0.155759182344,0.424556397625,0.463381803169,0.614366601714,
    0.880183067209,0.931322828859,1.),.UNSPECIFIED.);
#47 = CARTESIAN_POINT('',(-747.1002850348,-85.82402920861));
#48 = CARTESIAN_POINT('',(-681.3452112979,-84.6937382985));
#49 = CARTESIAN_POINT('',(-648.6960652164,-76.16825298792));
#50 = CARTESIAN_POINT('',(-618.6807815951,-84.57599637881));
#51 = CARTESIAN_POINT('',(-516.9486474715,-62.78268232273));
#52 = CARTESIAN_POINT('',(-111.9888327522,-71.83444553816));
#53 = CARTESIAN_POINT('',(-54.39499945813,-82.13392668319));
#54 = CARTESIAN_POINT('',(172.67305735446,-67.72355877971));
#55 = CARTESIAN_POINT('',(572.96699625836,-82.569867433));
#56 = CARTESIAN_POINT('',(649.67107329833,-75.12535813172));
#57 = CARTESIAN_POINT('',(752.89971496513,-82.50797963844));
#58 = ( GEOMETRIC_REPRESENTATION_CONTEXT(2) 
PARAMETRIC_REPRESENTATION_CONTEXT() REPRESENTATION_CONTEXT('2D SPACE',''
  ) );
#59 = ORIENTED_EDGE('',*,*,#60,.T.);
#60 = EDGE_CURVE('',#24,#61,#63,.T.);
#61 = VERTEX_POINT('',#62);
#62 = CARTESIAN_POINT('',(1.5E+03,157.50797963844,0.));
#63 = SURFACE_CURVE('',#64,(#68),.PCURVE_S1.);
#64 = LINE('',#65,#66);
#65 = CARTESIAN_POINT('',(1.5E+03,-7.507979638447,0.));
#66 = VECTOR('',#67,1.);
#67 = DIRECTION('',(0.,1.,0.));
#68 = PCURVE('',#40,#69);
#69 = DEFINITIONAL_REPRESENTATION('',(#70),#74);
#70 = LINE('',#71,#72);
#71 = CARTESIAN_POINT('',(752.89971496513,-82.50797963844));
#72 = VECTOR('',#73,1.);
#73 = DIRECTION('',(0.,1.));
#74 = ( GEOMETRIC_REPRESENTATION_CONTEXT(2) 
PARAMETRIC_REPRESENTATION_CONTEXT() REPRESENTATION_CONTEXT('2D SPACE',''
  ) );
#75 = ORIENTED_EDGE('',*,*,#76,.T.);
#76 = EDGE_CURVE('',#61,#77,#79,.T.);
#77 = VERTEX_POINT('',#78);
#78 = CARTESIAN_POINT('',(0.,160.82402920861,0.));
#79 = SURFACE_CURVE('',#80,(#92),.PCURVE_S1.);
#80 = B_SPLINE_CURVE_WITH_KNOTS('',1,(#81,#82,#83,#84,#85,#86,#87,#88,
    #89,#90,#91),.UNSPECIFIED.,.F.,.F.,(2,1,1,1,1,1,1,1,1,1,2),(0.,
    6.86771711411E-02,0.119816932791,0.385633398286,0.536618196831,
    0.575443602375,0.844240817656,0.913281615134,0.933966341411,
    0.95635868857,1.),.UNSPECIFIED.);
#81 = CARTESIAN_POINT('',(1.5E+03,157.50797963844,0.));
#82 = CARTESIAN_POINT('',(1.396771358333E+03,150.12535813172,0.));
#83 = CARTESIAN_POINT('',(1.320067281293E+03,157.569867433,0.));
#84 = CARTESIAN_POINT('',(919.77334238932,142.72355877971,0.));
#85 = CARTESIAN_POINT('',(692.70528557672,157.13392668319,0.));
#86 = CARTESIAN_POINT('',(635.11145228266,146.83444553816,0.));
#87 = CARTESIAN_POINT('',(230.15163756327,137.78268232273,0.));
#88 = CARTESIAN_POINT('',(128.41950343968,159.57599637881,0.));
#89 = CARTESIAN_POINT('',(98.404219818434,151.16825298792,0.));
#90 = CARTESIAN_POINT('',(65.75507373692,159.6937382985,0.));
#91 = CARTESIAN_POINT('',(0.,160.82402920861,0.));
#92 = PCURVE('',#40,#93);
#93 = DEFINITIONAL_REPRESENTATION('',(#94),#106);
#94 = B_SPLINE_CURVE_WITH_KNOTS('',1,(#95,#96,#97,#98,#99,#100,#101,#102
    ,#103,#104,#105),.UNSPECIFIED.,.F.,.F.,(2,1,1,1,1,1,1,1,1,1,2),(0.,
    6.86771711411E-02,0.119816932791,0.385633398286,0.536618196831,
    0.575443602375,0.844240817656,0.913281615134,0.933966341411,
    0.95635868857,1.),.UNSPECIFIED.);
#95 = CARTESIAN_POINT('',(752.89971496513,82.507979638447));
#96 = CARTESIAN_POINT('',(649.67107329833,75.125358131724));
#97 = CARTESIAN_POINT('',(572.96699625836,82.569867433007));
#98 = CARTESIAN_POINT('',(172.67305735446,67.723558779719));
#99 = CARTESIAN_POINT('',(-54.39499945813,82.133926683191));
#100 = CARTESIAN_POINT('',(-111.9888327522,71.834445538163));
#101 = CARTESIAN_POINT('',(-516.9486474715,62.782682322735));
#102 = CARTESIAN_POINT('',(-618.6807815951,84.575996378819));
#103 = CARTESIAN_POINT('',(-648.6960652164,76.168252987926));
#104 = CARTESIAN_POINT('',(-681.3452112979,84.693738298503));
#105 = CARTESIAN_POINT('',(-747.1002850348,85.824029208616));
#106 = ( GEOMETRIC_REPRESENTATION_CONTEXT(2) 
PARAMETRIC_REPRESENTATION_CONTEXT() REPRESENTATION_CONTEXT('2D SPACE',''
  ) );
#107 = ORIENTED_EDGE('',*,*,#108,.T.);
#108 = EDGE_CURVE('',#77,#22,#109,.T.);
#109 = SURFACE_CURVE('',#110,(#114),.PCURVE_S1.);
#110 = LINE('',#111,#112);
#111 = CARTESIAN_POINT('',(0.,160.82402920861,0.));
#112 = VECTOR('',#113,1.);
#113 = DIRECTION('',(0.,-1.,0.));
#114 = PCURVE('',#40,#115);
#115 = DEFINITIONAL_REPRESENTATION('',(#116),#120);
#116 = LINE('',#117,#118);
#117 = CARTESIAN_POINT('',(-747.1002850348,85.824029208616));
#118 = VECTOR('',#119,1.);
#119 = DIRECTION('',(0.,-1.));
#120 = ( GEOMETRIC_REPRESENTATION_CONTEXT(2) 
PARAMETRIC_REPRESENTATION_CONTEXT() REPRESENTATION_CONTEXT('2D SPACE',''
  ) );
#121 = ( GEOMETRIC_REPRESENTATION_CONTEXT(3) 
GLOBAL_UNCERTAINTY_ASSIGNED_CONTEXT((#125)) GLOBAL_UNIT_ASSIGNED_CONTEXT
((#122,#123,#124)) REPRESENTATION_CONTEXT('Context #1',
  '3D Context with UNIT and UNCERTAINTY') );
#122 = ( LENGTH_UNIT() NAMED_UNIT(*) SI_UNIT(.MILLI.,.METRE.) );
#123 = ( NAMED_UNIT(*) PLANE_ANGLE_UNIT() SI_UNIT($,.RADIAN.) );
#124 = ( NAMED_UNIT(*) SI_UNIT($,.STERADIAN.) SOLID_ANGLE_UNIT() );
#125 = UNCERTAINTY_MEASURE_WITH_UNIT(LENGTH_MEASURE(1.E-07),#122,
  'distance_accuracy_value','confusion accuracy');
#126 = PRODUCT_RELATED_PRODUCT_CATEGORY('part',$,(#7));
ENDSEC;
END-ISO-10303-21;
