ISO-10303-21;
HEADER;
FILE_DESCRIPTION(('Open CASCADE Model'),'2;1');
FILE_NAME('Open CASCADE Shape Model','2026-06-02T12:09:04',('Author'),(
    'Open CASCADE'),'Open CASCADE STEP processor 7.9','Open CASCADE 7.9'
  ,'Unknown');
FILE_SCHEMA(('AUTOMOTIVE_DESIGN { 1 0 10303 214 1 1 1 1 }'));
ENDSEC;
DATA;
#1 = APPLICATION_PROTOCOL_DEFINITION('international standard',
  'automotive_design',2000,#2);
#2 = APPLICATION_CONTEXT(
  'core data for automotive mechanical design processes');
#3 = SHAPE_DEFINITION_REPRESENTATION(#4,#10);
#4 = PRODUCT_DEFINITION_SHAPE('','',#5);
#5 = PRODUCT_DEFINITION('design','',#6,#9);
#6 = PRODUCT_DEFINITION_FORMATION('','',#7);
#7 = PRODUCT('Open CASCADE STEP translator 7.9 75',
  'Open CASCADE STEP translator 7.9 75','',(#8));
#8 = PRODUCT_CONTEXT('',#2,'mechanical');
#9 = PRODUCT_DEFINITION_CONTEXT('part definition',#2,'design');
#10 = MANIFOLD_SURFACE_SHAPE_REPRESENTATION('',(#11,#15),#121);
#11 = AXIS2_PLACEMENT_3D('',#12,#13,#14);
#12 = CARTESIAN_POINT('',(0.,0.,0.));
#13 = DIRECTION('',(0.,0.,1.));
#14 = DIRECTION('',(1.,0.,-0.));
#15 = SHELL_BASED_SURFACE_MODEL('',(#16));
#16 = OPEN_SHELL('',(#17));
#17 = ADVANCED_FACE('',(#18),#40,.T.);
#18 = FACE_BOUND('',#19,.T.);
#19 = EDGE_LOOP('',(#20,#59,#75,#107));
#20 = ORIENTED_EDGE('',*,*,#21,.T.);
#21 = EDGE_CURVE('',#22,#24,#26,.T.);
#22 = VERTEX_POINT('',#23);
#23 = CARTESIAN_POINT('',(0.,13.261639663856,0.));
#24 = VERTEX_POINT('',#25);
#25 = CARTESIAN_POINT('',(1.5E+03,10.798337859315,0.));
#26 = SURFACE_CURVE('',#27,(#39),.PCURVE_S1.);
#27 = B_SPLINE_CURVE_WITH_KNOTS('',1,(#28,#29,#30,#31,#32,#33,#34,#35,
    #36,#37,#38),.UNSPECIFIED.,.F.,.F.,(2,1,1,1,1,1,1,1,1,1,2),(0.,
    0.103661271033,0.221219225285,0.271543357987,0.388193063171,
    0.575433453177,0.621288518865,0.868417984254,0.899461494477,
    0.961718153448,1.),.UNSPECIFIED.);
#28 = CARTESIAN_POINT('',(0.,13.261639663856,0.));
#29 = CARTESIAN_POINT('',(154.74439715585,-13.47880569027,0.));
#30 = CARTESIAN_POINT('',(332.0784655909,2.913611744771,0.));
#31 = CARTESIAN_POINT('',(407.20942674724,-10.02362676006,0.));
#32 = CARTESIAN_POINT('',(583.8641484618,-5.439884180691,0.));
#33 = CARTESIAN_POINT('',(867.13684862407,9.242365157667,0.));
#34 = CARTESIAN_POINT('',(936.60153875863,9.736132602627,0.));
#35 = CARTESIAN_POINT('',(1.310493910715E+03,-9.359646045316,0.));
#36 = CARTESIAN_POINT('',(1.354563099958E+03,7.058648681414,0.));
#37 = CARTESIAN_POINT('',(1.446847666961E+03,-12.39855551105,0.));
#38 = CARTESIAN_POINT('',(1.5E+03,10.798337859315,0.));
#39 = PCURVE('',#40,#45);
#40 = PLANE('',#41);
#41 = AXIS2_PLACEMENT_3D('',#42,#43,#44);
#42 = CARTESIAN_POINT('',(753.78181313841,75.,0.));
#43 = DIRECTION('',(0.,0.,1.));
#44 = DIRECTION('',(1.,0.,-0.));
#45 = DEFINITIONAL_REPRESENTATION('',(#46),#58);
#46 = B_SPLINE_CURVE_WITH_KNOTS('',1,(#47,#48,#49,#50,#51,#52,#53,#54,
    #55,#56,#57),.UNSPECIFIED.,.F.,.F.,(2,1,1,1,1,1,1,1,1,1,2),(0.,
    0.103661271033,0.221219225285,0.271543357987,0.388193063171,
    0.575433453177,0.621288518865,0.868417984254,0.899461494477,
    0.961718153448,1.),.UNSPECIFIED.);
#47 = CARTESIAN_POINT('',(-753.7818131384,-61.73836033614));
#48 = CARTESIAN_POINT('',(-599.0374159825,-88.47880569027));
#49 = CARTESIAN_POINT('',(-421.7033475475,-72.08638825522));
#50 = CARTESIAN_POINT('',(-346.5723863911,-85.02362676006));
#51 = CARTESIAN_POINT('',(-169.9176646766,-80.43988418069));
#52 = CARTESIAN_POINT('',(113.35503548566,-65.75763484233));
#53 = CARTESIAN_POINT('',(182.81972562022,-65.26386739737));
#54 = CARTESIAN_POINT('',(556.71209757614,-84.35964604531));
#55 = CARTESIAN_POINT('',(600.78128681934,-67.94135131858));
#56 = CARTESIAN_POINT('',(693.0658538226,-87.39855551105));
#57 = CARTESIAN_POINT('',(746.21818686159,-64.20166214068));
#58 = ( GEOMETRIC_REPRESENTATION_CONTEXT(2) 
PARAMETRIC_REPRESENTATION_CONTEXT() REPRESENTATION_CONTEXT('2D SPACE',''
  ) );
#59 = ORIENTED_EDGE('',*,*,#60,.T.);
#60 = EDGE_CURVE('',#24,#61,#63,.T.);
#61 = VERTEX_POINT('',#62);
#62 = CARTESIAN_POINT('',(1.5E+03,139.20166214068,0.));
#63 = SURFACE_CURVE('',#64,(#68),.PCURVE_S1.);
#64 = LINE('',#65,#66);
#65 = CARTESIAN_POINT('',(1.5E+03,10.798337859315,0.));
#66 = VECTOR('',#67,1.);
#67 = DIRECTION('',(0.,1.,0.));
#68 = PCURVE('',#40,#69);
#69 = DEFINITIONAL_REPRESENTATION('',(#70),#74);
#70 = LINE('',#71,#72);
#71 = CARTESIAN_POINT('',(746.21818686159,-64.20166214068));
#72 = VECTOR('',#73,1.);
#73 = DIRECTION('',(0.,1.));
#74 = ( GEOMETRIC_REPRESENTATION_CONTEXT(2) 
PARAMETRIC_REPRESENTATION_CONTEXT() REPRESENTATION_CONTEXT('2D SPACE',''
  ) );
#75 = ORIENTED_EDGE('',*,*,#76,.T.);
#76 = EDGE_CURVE('',#61,#77,#79,.T.);
#77 = VERTEX_POINT('',#78);
#78 = CARTESIAN_POINT('',(0.,136.73836033614,0.));
#79 = SURFACE_CURVE('',#80,(#92),.PCURVE_S1.);
#80 = B_SPLINE_CURVE_WITH_KNOTS('',1,(#81,#82,#83,#84,#85,#86,#87,#88,
    #89,#90,#91),.UNSPECIFIED.,.F.,.F.,(2,1,1,1,1,1,1,1,1,1,2),(0.,
    3.828184655215E-02,0.100538505523,0.131582015746,0.378711481135,
    0.424566546823,0.611806936829,0.728456642013,0.778780774715,
    0.896338728967,1.),.UNSPECIFIED.);
#81 = CARTESIAN_POINT('',(1.5E+03,139.20166214068,0.));
#82 = CARTESIAN_POINT('',(1.446847666961E+03,162.39855551105,0.));
#83 = CARTESIAN_POINT('',(1.354563099958E+03,142.94135131858,0.));
#84 = CARTESIAN_POINT('',(1.310493910715E+03,159.35964604531,0.));
#85 = CARTESIAN_POINT('',(936.60153875863,140.26386739737,0.));
#86 = CARTESIAN_POINT('',(867.13684862407,140.75763484233,0.));
#87 = CARTESIAN_POINT('',(583.8641484618,155.43988418069,0.));
#88 = CARTESIAN_POINT('',(407.20942674724,160.02362676006,0.));
#89 = CARTESIAN_POINT('',(332.0784655909,147.08638825522,0.));
#90 = CARTESIAN_POINT('',(154.74439715585,163.47880569027,0.));
#91 = CARTESIAN_POINT('',(0.,136.73836033614,0.));
#92 = PCURVE('',#40,#93);
#93 = DEFINITIONAL_REPRESENTATION('',(#94),#106);
#94 = B_SPLINE_CURVE_WITH_KNOTS('',1,(#95,#96,#97,#98,#99,#100,#101,#102
    ,#103,#104,#105),.UNSPECIFIED.,.F.,.F.,(2,1,1,1,1,1,1,1,1,1,2),(0.,
    3.828184655215E-02,0.100538505523,0.131582015746,0.378711481135,
    0.424566546823,0.611806936829,0.728456642013,0.778780774715,
    0.896338728967,1.),.UNSPECIFIED.);
#95 = CARTESIAN_POINT('',(746.21818686159,64.201662140685));
#96 = CARTESIAN_POINT('',(693.0658538226,87.398555511059));
#97 = CARTESIAN_POINT('',(600.78128681934,67.941351318586));
#98 = CARTESIAN_POINT('',(556.71209757614,84.359646045316));
#99 = CARTESIAN_POINT('',(182.81972562022,65.263867397373));
#100 = CARTESIAN_POINT('',(113.35503548566,65.757634842333));
#101 = CARTESIAN_POINT('',(-169.9176646766,80.439884180691));
#102 = CARTESIAN_POINT('',(-346.5723863911,85.023626760063));
#103 = CARTESIAN_POINT('',(-421.7033475475,72.086388255229));
#104 = CARTESIAN_POINT('',(-599.0374159825,88.478805690278));
#105 = CARTESIAN_POINT('',(-753.7818131384,61.738360336144));
#106 = ( GEOMETRIC_REPRESENTATION_CONTEXT(2) 
PARAMETRIC_REPRESENTATION_CONTEXT() REPRESENTATION_CONTEXT('2D SPACE',''
  ) );
#107 = ORIENTED_EDGE('',*,*,#108,.T.);
#108 = EDGE_CURVE('',#77,#22,#109,.T.);
#109 = SURFACE_CURVE('',#110,(#114),.PCURVE_S1.);
#110 = LINE('',#111,#112);
#111 = CARTESIAN_POINT('',(0.,136.73836033614,0.));
#112 = VECTOR('',#113,1.);
#113 = DIRECTION('',(0.,-1.,0.));
#114 = PCURVE('',#40,#115);
#115 = DEFINITIONAL_REPRESENTATION('',(#116),#120);
#116 = LINE('',#117,#118);
#117 = CARTESIAN_POINT('',(-753.7818131384,61.738360336144));
#118 = VECTOR('',#119,1.);
#119 = DIRECTION('',(0.,-1.));
#120 = ( GEOMETRIC_REPRESENTATION_CONTEXT(2) 
PARAMETRIC_REPRESENTATION_CONTEXT() REPRESENTATION_CONTEXT('2D SPACE',''
  ) );
#121 = ( GEOMETRIC_REPRESENTATION_CONTEXT(3) 
GLOBAL_UNCERTAINTY_ASSIGNED_CONTEXT((#125)) GLOBAL_UNIT_ASSIGNED_CONTEXT
((#122,#123,#124)) REPRESENTATION_CONTEXT('Context #1',
  '3D Context with UNIT and UNCERTAINTY') );
#122 = ( LENGTH_UNIT() NAMED_UNIT(*) SI_UNIT(.MILLI.,.METRE.) );
#123 = ( NAMED_UNIT(*) PLANE_ANGLE_UNIT() SI_UNIT($,.RADIAN.) );
#124 = ( NAMED_UNIT(*) SI_UNIT($,.STERADIAN.) SOLID_ANGLE_UNIT() );
#125 = UNCERTAINTY_MEASURE_WITH_UNIT(LENGTH_MEASURE(1.E-07),#122,
  'distance_accuracy_value','confusion accuracy');
#126 = PRODUCT_RELATED_PRODUCT_CATEGORY('part',$,(#7));
ENDSEC;
END-ISO-10303-21;
