ISO-10303-21;
HEADER;
FILE_DESCRIPTION(('Open CASCADE Model'),'2;1');
FILE_NAME('Open CASCADE Shape Model','2026-06-02T12:09:04',('Author'),(
    'Open CASCADE'),'Open CASCADE STEP processor 7.9','Open CASCADE 7.9'
  ,'Unknown');
FILE_SCHEMA(('AUTOMOTIVE_DESIGN { 1 0 10303 214 1 1 1 1 }'));
ENDSEC;
DATA;
#1 = APPLICATION_PROTOCOL_DEFINITION('international standard',
  'automotive_design',2000,#2);
#2 = APPLICATION_CONTEXT(
  'core data for automotive mechanical design processes');
#3 = SHAPE_DEFINITION_REPRESENTATION(#4,#10);
#4 = PRODUCT_DEFINITION_SHAPE('','',#5);
#5 = PRODUCT_DEFINITION('design','',#6,#9);
#6 = PRODUCT_DEFINITION_FORMATION('','',#7);
#7 = PRODUCT('Open CASCADE STEP translator 7.9 5',
  'Open CASCADE STEP translator 7.9 5','',(#8));
#8 = PRODUCT_CONTEXT('',#2,'mechanical');
#9 = PRODUCT_DEFINITION_CONTEXT('part definition',#2,'design');
#10 = MANIFOLD_SURFACE_SHAPE_REPRESENTATION('',(#11,#15),#121);
#11 = AXIS2_PLACEMENT_3D('',#12,#13,#14);
#12 = CARTESIAN_POINT('',(0.,0.,0.));
#13 = DIRECTION('',(0.,0.,1.));
#14 = DIRECTION('',(1.,0.,-0.));
#15 = SHELL_BASED_SURFACE_MODEL('',(#16));
#16 = OPEN_SHELL('',(#17));
#17 = ADVANCED_FACE('',(#18),#40,.T.);
#18 = FACE_BOUND('',#19,.T.);
#19 = EDGE_LOOP('',(#20,#59,#75,#107));
#20 = ORIENTED_EDGE('',*,*,#21,.T.);
#21 = EDGE_CURVE('',#22,#24,#26,.T.);
#22 = VERTEX_POINT('',#23);
#23 = CARTESIAN_POINT('',(0.,5.954637325564,0.));
#24 = VERTEX_POINT('',#25);
#25 = CARTESIAN_POINT('',(1.5E+03,-8.362527118974,0.));
#26 = SURFACE_CURVE('',#27,(#39),.PCURVE_S1.);
#27 = B_SPLINE_CURVE_WITH_KNOTS('',1,(#28,#29,#30,#31,#32,#33,#34,#35,
    #36,#37,#38),.UNSPECIFIED.,.F.,.F.,(2,1,1,1,1,1,1,1,1,1,2),(0.,
    3.324572953208E-02,5.95950765488E-02,0.264653560878,0.332931745879,
    0.396722213272,0.517438855704,0.557751521396,0.784648508427,
    0.944465444444,1.),.UNSPECIFIED.);
#28 = CARTESIAN_POINT('',(0.,5.954637325564,0.));
#29 = CARTESIAN_POINT('',(49.121313050468,-3.908477793567,0.));
#30 = CARTESIAN_POINT('',(88.00473614487,4.145621683398,0.));
#31 = CARTESIAN_POINT('',(396.92102817376,12.370502420517,0.));
#32 = CARTESIAN_POINT('',(499.81309871476,11.459822936385,0.));
#33 = CARTESIAN_POINT('',(592.55265783256,-13.85692993648,0.));
#34 = CARTESIAN_POINT('',(774.46715457769,-12.25742072122,0.));
#35 = CARTESIAN_POINT('',(834.89483223346,-5.991214014322,0.));
#36 = CARTESIAN_POINT('',(1.176583715517E+03,7.023901156214,0.));
#37 = CARTESIAN_POINT('',(1.416503916628E+03,-14.07529132043,0.));
#38 = CARTESIAN_POINT('',(1.5E+03,-8.362527118974,0.));
#39 = PCURVE('',#40,#45);
#40 = PLANE('',#41);
#41 = AXIS2_PLACEMENT_3D('',#42,#43,#44);
#42 = CARTESIAN_POINT('',(755.6891627779,75.,0.));
#43 = DIRECTION('',(0.,0.,1.));
#44 = DIRECTION('',(1.,0.,-0.));
#45 = DEFINITIONAL_REPRESENTATION('',(#46),#58);
#46 = B_SPLINE_CURVE_WITH_KNOTS('',1,(#47,#48,#49,#50,#51,#52,#53,#54,
    #55,#56,#57),.UNSPECIFIED.,.F.,.F.,(2,1,1,1,1,1,1,1,1,1,2),(0.,
    3.324572953208E-02,5.95950765488E-02,0.264653560878,0.332931745879,
    0.396722213272,0.517438855704,0.557751521396,0.784648508427,
    0.944465444444,1.),.UNSPECIFIED.);
#47 = CARTESIAN_POINT('',(-755.6891627779,-69.04536267443));
#48 = CARTESIAN_POINT('',(-706.5678497274,-78.90847779356));
#49 = CARTESIAN_POINT('',(-667.684426633,-70.8543783166));
#50 = CARTESIAN_POINT('',(-358.7681346041,-62.62949757948));
#51 = CARTESIAN_POINT('',(-255.8760640631,-63.54017706361));
#52 = CARTESIAN_POINT('',(-163.1365049453,-88.85692993648));
#53 = CARTESIAN_POINT('',(18.777991799794,-87.25742072122));
#54 = CARTESIAN_POINT('',(79.205669455556,-80.99121401432));
#55 = CARTESIAN_POINT('',(420.89455273866,-67.97609884378));
#56 = CARTESIAN_POINT('',(660.81475385011,-89.07529132043));
#57 = CARTESIAN_POINT('',(744.31083722209,-83.36252711897));
#58 = ( GEOMETRIC_REPRESENTATION_CONTEXT(2) 
PARAMETRIC_REPRESENTATION_CONTEXT() REPRESENTATION_CONTEXT('2D SPACE',''
  ) );
#59 = ORIENTED_EDGE('',*,*,#60,.T.);
#60 = EDGE_CURVE('',#24,#61,#63,.T.);
#61 = VERTEX_POINT('',#62);
#62 = CARTESIAN_POINT('',(1.5E+03,158.36252711897,0.));
#63 = SURFACE_CURVE('',#64,(#68),.PCURVE_S1.);
#64 = LINE('',#65,#66);
#65 = CARTESIAN_POINT('',(1.5E+03,-8.362527118974,0.));
#66 = VECTOR('',#67,1.);
#67 = DIRECTION('',(0.,1.,0.));
#68 = PCURVE('',#40,#69);
#69 = DEFINITIONAL_REPRESENTATION('',(#70),#74);
#70 = LINE('',#71,#72);
#71 = CARTESIAN_POINT('',(744.31083722209,-83.36252711897));
#72 = VECTOR('',#73,1.);
#73 = DIRECTION('',(0.,1.));
#74 = ( GEOMETRIC_REPRESENTATION_CONTEXT(2) 
PARAMETRIC_REPRESENTATION_CONTEXT() REPRESENTATION_CONTEXT('2D SPACE',''
  ) );
#75 = ORIENTED_EDGE('',*,*,#76,.T.);
#76 = EDGE_CURVE('',#61,#77,#79,.T.);
#77 = VERTEX_POINT('',#78);
#78 = CARTESIAN_POINT('',(0.,144.04536267443,0.));
#79 = SURFACE_CURVE('',#80,(#92),.PCURVE_S1.);
#80 = B_SPLINE_CURVE_WITH_KNOTS('',1,(#81,#82,#83,#84,#85,#86,#87,#88,
    #89,#90,#91),.UNSPECIFIED.,.F.,.F.,(2,1,1,1,1,1,1,1,1,1,2),(0.,
    5.553455555587E-02,0.215351491573,0.442248478604,0.482561144296,
    0.603277786728,0.667068254121,0.735346439122,0.940404923451,
    0.966754270468,1.),.UNSPECIFIED.);
#81 = CARTESIAN_POINT('',(1.5E+03,158.36252711897,0.));
#82 = CARTESIAN_POINT('',(1.416503916628E+03,164.07529132043,0.));
#83 = CARTESIAN_POINT('',(1.176583715517E+03,142.97609884378,0.));
#84 = CARTESIAN_POINT('',(834.89483223346,155.99121401432,0.));
#85 = CARTESIAN_POINT('',(774.46715457769,162.25742072122,0.));
#86 = CARTESIAN_POINT('',(592.55265783256,163.85692993648,0.));
#87 = CARTESIAN_POINT('',(499.81309871476,138.54017706361,0.));
#88 = CARTESIAN_POINT('',(396.92102817376,137.62949757948,0.));
#89 = CARTESIAN_POINT('',(88.00473614487,145.8543783166,0.));
#90 = CARTESIAN_POINT('',(49.121313050468,153.90847779356,0.));
#91 = CARTESIAN_POINT('',(0.,144.04536267443,0.));
#92 = PCURVE('',#40,#93);
#93 = DEFINITIONAL_REPRESENTATION('',(#94),#106);
#94 = B_SPLINE_CURVE_WITH_KNOTS('',1,(#95,#96,#97,#98,#99,#100,#101,#102
    ,#103,#104,#105),.UNSPECIFIED.,.F.,.F.,(2,1,1,1,1,1,1,1,1,1,2),(0.,
    5.553455555587E-02,0.215351491573,0.442248478604,0.482561144296,
    0.603277786728,0.667068254121,0.735346439122,0.940404923451,
    0.966754270468,1.),.UNSPECIFIED.);
#95 = CARTESIAN_POINT('',(744.31083722209,83.362527118974));
#96 = CARTESIAN_POINT('',(660.81475385011,89.075291320432));
#97 = CARTESIAN_POINT('',(420.89455273866,67.976098843786));
#98 = CARTESIAN_POINT('',(79.205669455556,80.991214014322));
#99 = CARTESIAN_POINT('',(18.777991799794,87.257420721228));
#100 = CARTESIAN_POINT('',(-163.1365049453,88.856929936485));
#101 = CARTESIAN_POINT('',(-255.8760640631,63.540177063615));
#102 = CARTESIAN_POINT('',(-358.7681346041,62.629497579483));
#103 = CARTESIAN_POINT('',(-667.684426633,70.854378316602));
#104 = CARTESIAN_POINT('',(-706.5678497274,78.908477793567));
#105 = CARTESIAN_POINT('',(-755.6891627779,69.045362674436));
#106 = ( GEOMETRIC_REPRESENTATION_CONTEXT(2) 
PARAMETRIC_REPRESENTATION_CONTEXT() REPRESENTATION_CONTEXT('2D SPACE',''
  ) );
#107 = ORIENTED_EDGE('',*,*,#108,.T.);
#108 = EDGE_CURVE('',#77,#22,#109,.T.);
#109 = SURFACE_CURVE('',#110,(#114),.PCURVE_S1.);
#110 = LINE('',#111,#112);
#111 = CARTESIAN_POINT('',(0.,144.04536267443,0.));
#112 = VECTOR('',#113,1.);
#113 = DIRECTION('',(0.,-1.,0.));
#114 = PCURVE('',#40,#115);
#115 = DEFINITIONAL_REPRESENTATION('',(#116),#120);
#116 = LINE('',#117,#118);
#117 = CARTESIAN_POINT('',(-755.6891627779,69.045362674436));
#118 = VECTOR('',#119,1.);
#119 = DIRECTION('',(0.,-1.));
#120 = ( GEOMETRIC_REPRESENTATION_CONTEXT(2) 
PARAMETRIC_REPRESENTATION_CONTEXT() REPRESENTATION_CONTEXT('2D SPACE',''
  ) );
#121 = ( GEOMETRIC_REPRESENTATION_CONTEXT(3) 
GLOBAL_UNCERTAINTY_ASSIGNED_CONTEXT((#125)) GLOBAL_UNIT_ASSIGNED_CONTEXT
((#122,#123,#124)) REPRESENTATION_CONTEXT('Context #1',
  '3D Context with UNIT and UNCERTAINTY') );
#122 = ( LENGTH_UNIT() NAMED_UNIT(*) SI_UNIT(.MILLI.,.METRE.) );
#123 = ( NAMED_UNIT(*) PLANE_ANGLE_UNIT() SI_UNIT($,.RADIAN.) );
#124 = ( NAMED_UNIT(*) SI_UNIT($,.STERADIAN.) SOLID_ANGLE_UNIT() );
#125 = UNCERTAINTY_MEASURE_WITH_UNIT(LENGTH_MEASURE(1.E-07),#122,
  'distance_accuracy_value','confusion accuracy');
#126 = PRODUCT_RELATED_PRODUCT_CATEGORY('part',$,(#7));
ENDSEC;
END-ISO-10303-21;
