ISO-10303-21;
HEADER;
FILE_DESCRIPTION(('Open CASCADE Model'),'2;1');
FILE_NAME('Open CASCADE Shape Model','2026-06-02T12:09:04',('Author'),(
    'Open CASCADE'),'Open CASCADE STEP processor 7.9','Open CASCADE 7.9'
  ,'Unknown');
FILE_SCHEMA(('AUTOMOTIVE_DESIGN { 1 0 10303 214 1 1 1 1 }'));
ENDSEC;
DATA;
#1 = APPLICATION_PROTOCOL_DEFINITION('international standard',
  'automotive_design',2000,#2);
#2 = APPLICATION_CONTEXT(
  'core data for automotive mechanical design processes');
#3 = SHAPE_DEFINITION_REPRESENTATION(#4,#10);
#4 = PRODUCT_DEFINITION_SHAPE('','',#5);
#5 = PRODUCT_DEFINITION('design','',#6,#9);
#6 = PRODUCT_DEFINITION_FORMATION('','',#7);
#7 = PRODUCT('Open CASCADE STEP translator 7.9 38',
  'Open CASCADE STEP translator 7.9 38','',(#8));
#8 = PRODUCT_CONTEXT('',#2,'mechanical');
#9 = PRODUCT_DEFINITION_CONTEXT('part definition',#2,'design');
#10 = MANIFOLD_SURFACE_SHAPE_REPRESENTATION('',(#11,#15),#121);
#11 = AXIS2_PLACEMENT_3D('',#12,#13,#14);
#12 = CARTESIAN_POINT('',(0.,0.,0.));
#13 = DIRECTION('',(0.,0.,1.));
#14 = DIRECTION('',(1.,0.,-0.));
#15 = SHELL_BASED_SURFACE_MODEL('',(#16));
#16 = OPEN_SHELL('',(#17));
#17 = ADVANCED_FACE('',(#18),#40,.T.);
#18 = FACE_BOUND('',#19,.T.);
#19 = EDGE_LOOP('',(#20,#59,#75,#107));
#20 = ORIENTED_EDGE('',*,*,#21,.T.);
#21 = EDGE_CURVE('',#22,#24,#26,.T.);
#22 = VERTEX_POINT('',#23);
#23 = CARTESIAN_POINT('',(0.,11.219209747601,0.));
#24 = VERTEX_POINT('',#25);
#25 = CARTESIAN_POINT('',(1.5E+03,11.192700734445,0.));
#26 = SURFACE_CURVE('',#27,(#39),.PCURVE_S1.);
#27 = B_SPLINE_CURVE_WITH_KNOTS('',1,(#28,#29,#30,#31,#32,#33,#34,#35,
    #36,#37,#38),.UNSPECIFIED.,.F.,.F.,(2,1,1,1,1,1,1,1,1,1,2),(0.,
    2.042317576753E-02,6.019850129886E-02,8.347326821479E-02,
    0.118774362914,0.335457264396,0.50349715558,0.666284488646,
    0.713976858228,0.911390729527,1.),.UNSPECIFIED.);
#28 = CARTESIAN_POINT('',(0.,11.219209747601,0.));
#29 = CARTESIAN_POINT('',(30.95888199,10.688440156334,0.));
#30 = CARTESIAN_POINT('',(88.9660288514,-5.792862807891,0.));
#31 = CARTESIAN_POINT('',(120.61488325616,9.811681906738,0.));
#32 = CARTESIAN_POINT('',(173.18628450041,-0.218781047461,0.));
#33 = CARTESIAN_POINT('',(501.3760059531,-14.75323427786,0.));
#34 = CARTESIAN_POINT('',(754.41083218185,14.879771858,0.));
#35 = CARTESIAN_POINT('',(1.001211261675E+03,14.502605943073,0.));
#36 = CARTESIAN_POINT('',(1.067316943835E+03,-14.79253745791,0.));
#37 = CARTESIAN_POINT('',(1.366363775604E+03,-2.539165024025,0.));
#38 = CARTESIAN_POINT('',(1.5E+03,11.192700734445,0.));
#39 = PCURVE('',#40,#45);
#40 = PLANE('',#41);
#41 = AXIS2_PLACEMENT_3D('',#42,#43,#44);
#42 = CARTESIAN_POINT('',(748.49707584428,75.,0.));
#43 = DIRECTION('',(0.,0.,1.));
#44 = DIRECTION('',(1.,0.,-0.));
#45 = DEFINITIONAL_REPRESENTATION('',(#46),#58);
#46 = B_SPLINE_CURVE_WITH_KNOTS('',1,(#47,#48,#49,#50,#51,#52,#53,#54,
    #55,#56,#57),.UNSPECIFIED.,.F.,.F.,(2,1,1,1,1,1,1,1,1,1,2),(0.,
    2.042317576753E-02,6.019850129886E-02,8.347326821479E-02,
    0.118774362914,0.335457264396,0.50349715558,0.666284488646,
    0.713976858228,0.911390729527,1.),.UNSPECIFIED.);
#47 = CARTESIAN_POINT('',(-748.4970758442,-63.78079025239));
#48 = CARTESIAN_POINT('',(-717.5381938542,-64.31155984366));
#49 = CARTESIAN_POINT('',(-659.5310469928,-80.79286280789));
#50 = CARTESIAN_POINT('',(-627.8821925881,-65.18831809326));
#51 = CARTESIAN_POINT('',(-575.3107913438,-75.21878104746));
#52 = CARTESIAN_POINT('',(-247.1210698911,-89.75323427786));
#53 = CARTESIAN_POINT('',(5.913756337571,-60.120228142));
#54 = CARTESIAN_POINT('',(252.71418583109,-60.49739405692));
#55 = CARTESIAN_POINT('',(318.81986799026,-89.79253745791));
#56 = CARTESIAN_POINT('',(617.86669975969,-77.53916502402));
#57 = CARTESIAN_POINT('',(751.50292415571,-63.80729926555));
#58 = ( GEOMETRIC_REPRESENTATION_CONTEXT(2) 
PARAMETRIC_REPRESENTATION_CONTEXT() REPRESENTATION_CONTEXT('2D SPACE',''
  ) );
#59 = ORIENTED_EDGE('',*,*,#60,.T.);
#60 = EDGE_CURVE('',#24,#61,#63,.T.);
#61 = VERTEX_POINT('',#62);
#62 = CARTESIAN_POINT('',(1.5E+03,138.80729926555,0.));
#63 = SURFACE_CURVE('',#64,(#68),.PCURVE_S1.);
#64 = LINE('',#65,#66);
#65 = CARTESIAN_POINT('',(1.5E+03,11.192700734445,0.));
#66 = VECTOR('',#67,1.);
#67 = DIRECTION('',(0.,1.,0.));
#68 = PCURVE('',#40,#69);
#69 = DEFINITIONAL_REPRESENTATION('',(#70),#74);
#70 = LINE('',#71,#72);
#71 = CARTESIAN_POINT('',(751.50292415571,-63.80729926555));
#72 = VECTOR('',#73,1.);
#73 = DIRECTION('',(0.,1.));
#74 = ( GEOMETRIC_REPRESENTATION_CONTEXT(2) 
PARAMETRIC_REPRESENTATION_CONTEXT() REPRESENTATION_CONTEXT('2D SPACE',''
  ) );
#75 = ORIENTED_EDGE('',*,*,#76,.T.);
#76 = EDGE_CURVE('',#61,#77,#79,.T.);
#77 = VERTEX_POINT('',#78);
#78 = CARTESIAN_POINT('',(0.,138.78079025239,0.));
#79 = SURFACE_CURVE('',#80,(#92),.PCURVE_S1.);
#80 = B_SPLINE_CURVE_WITH_KNOTS('',1,(#81,#82,#83,#84,#85,#86,#87,#88,
    #89,#90,#91),.UNSPECIFIED.,.F.,.F.,(2,1,1,1,1,1,1,1,1,1,2),(0.,
    8.860927047335E-02,0.286023141772,0.333715511354,0.49650284442,
    0.664542735604,0.881225637086,0.916526731785,0.939801498701,
    0.979576824232,1.),.UNSPECIFIED.);
#81 = CARTESIAN_POINT('',(1.5E+03,138.80729926555,0.));
#82 = CARTESIAN_POINT('',(1.366363775604E+03,152.53916502402,0.));
#83 = CARTESIAN_POINT('',(1.067316943835E+03,164.79253745791,0.));
#84 = CARTESIAN_POINT('',(1.001211261675E+03,135.49739405692,0.));
#85 = CARTESIAN_POINT('',(754.41083218185,135.120228142,0.));
#86 = CARTESIAN_POINT('',(501.3760059531,164.75323427786,0.));
#87 = CARTESIAN_POINT('',(173.18628450041,150.21878104746,0.));
#88 = CARTESIAN_POINT('',(120.61488325616,140.18831809326,0.));
#89 = CARTESIAN_POINT('',(88.9660288514,155.79286280789,0.));
#90 = CARTESIAN_POINT('',(30.95888199,139.31155984366,0.));
#91 = CARTESIAN_POINT('',(0.,138.78079025239,0.));
#92 = PCURVE('',#40,#93);
#93 = DEFINITIONAL_REPRESENTATION('',(#94),#106);
#94 = B_SPLINE_CURVE_WITH_KNOTS('',1,(#95,#96,#97,#98,#99,#100,#101,#102
    ,#103,#104,#105),.UNSPECIFIED.,.F.,.F.,(2,1,1,1,1,1,1,1,1,1,2),(0.,
    8.860927047335E-02,0.286023141772,0.333715511354,0.49650284442,
    0.664542735604,0.881225637086,0.916526731785,0.939801498701,
    0.979576824232,1.),.UNSPECIFIED.);
#95 = CARTESIAN_POINT('',(751.50292415571,63.807299265555));
#96 = CARTESIAN_POINT('',(617.86669975969,77.539165024025));
#97 = CARTESIAN_POINT('',(318.81986799026,89.792537457915));
#98 = CARTESIAN_POINT('',(252.71418583109,60.497394056927));
#99 = CARTESIAN_POINT('',(5.913756337571,60.120228142));
#100 = CARTESIAN_POINT('',(-247.1210698911,89.753234277861));
#101 = CARTESIAN_POINT('',(-575.3107913438,75.218781047461));
#102 = CARTESIAN_POINT('',(-627.8821925881,65.188318093262));
#103 = CARTESIAN_POINT('',(-659.5310469928,80.792862807891));
#104 = CARTESIAN_POINT('',(-717.5381938542,64.311559843666));
#105 = CARTESIAN_POINT('',(-748.4970758442,63.780790252399));
#106 = ( GEOMETRIC_REPRESENTATION_CONTEXT(2) 
PARAMETRIC_REPRESENTATION_CONTEXT() REPRESENTATION_CONTEXT('2D SPACE',''
  ) );
#107 = ORIENTED_EDGE('',*,*,#108,.T.);
#108 = EDGE_CURVE('',#77,#22,#109,.T.);
#109 = SURFACE_CURVE('',#110,(#114),.PCURVE_S1.);
#110 = LINE('',#111,#112);
#111 = CARTESIAN_POINT('',(0.,138.78079025239,0.));
#112 = VECTOR('',#113,1.);
#113 = DIRECTION('',(0.,-1.,0.));
#114 = PCURVE('',#40,#115);
#115 = DEFINITIONAL_REPRESENTATION('',(#116),#120);
#116 = LINE('',#117,#118);
#117 = CARTESIAN_POINT('',(-748.4970758442,63.780790252399));
#118 = VECTOR('',#119,1.);
#119 = DIRECTION('',(0.,-1.));
#120 = ( GEOMETRIC_REPRESENTATION_CONTEXT(2) 
PARAMETRIC_REPRESENTATION_CONTEXT() REPRESENTATION_CONTEXT('2D SPACE',''
  ) );
#121 = ( GEOMETRIC_REPRESENTATION_CONTEXT(3) 
GLOBAL_UNCERTAINTY_ASSIGNED_CONTEXT((#125)) GLOBAL_UNIT_ASSIGNED_CONTEXT
((#122,#123,#124)) REPRESENTATION_CONTEXT('Context #1',
  '3D Context with UNIT and UNCERTAINTY') );
#122 = ( LENGTH_UNIT() NAMED_UNIT(*) SI_UNIT(.MILLI.,.METRE.) );
#123 = ( NAMED_UNIT(*) PLANE_ANGLE_UNIT() SI_UNIT($,.RADIAN.) );
#124 = ( NAMED_UNIT(*) SI_UNIT($,.STERADIAN.) SOLID_ANGLE_UNIT() );
#125 = UNCERTAINTY_MEASURE_WITH_UNIT(LENGTH_MEASURE(1.E-07),#122,
  'distance_accuracy_value','confusion accuracy');
#126 = PRODUCT_RELATED_PRODUCT_CATEGORY('part',$,(#7));
ENDSEC;
END-ISO-10303-21;
