ISO-10303-21;
HEADER;
FILE_DESCRIPTION(('Open CASCADE Model'),'2;1');
FILE_NAME('Open CASCADE Shape Model','2026-06-02T12:09:04',('Author'),(
    'Open CASCADE'),'Open CASCADE STEP processor 7.9','Open CASCADE 7.9'
  ,'Unknown');
FILE_SCHEMA(('AUTOMOTIVE_DESIGN { 1 0 10303 214 1 1 1 1 }'));
ENDSEC;
DATA;
#1 = APPLICATION_PROTOCOL_DEFINITION('international standard',
  'automotive_design',2000,#2);
#2 = APPLICATION_CONTEXT(
  'core data for automotive mechanical design processes');
#3 = SHAPE_DEFINITION_REPRESENTATION(#4,#10);
#4 = PRODUCT_DEFINITION_SHAPE('','',#5);
#5 = PRODUCT_DEFINITION('design','',#6,#9);
#6 = PRODUCT_DEFINITION_FORMATION('','',#7);
#7 = PRODUCT('Open CASCADE STEP translator 7.9 42',
  'Open CASCADE STEP translator 7.9 42','',(#8));
#8 = PRODUCT_CONTEXT('',#2,'mechanical');
#9 = PRODUCT_DEFINITION_CONTEXT('part definition',#2,'design');
#10 = MANIFOLD_SURFACE_SHAPE_REPRESENTATION('',(#11,#15),#121);
#11 = AXIS2_PLACEMENT_3D('',#12,#13,#14);
#12 = CARTESIAN_POINT('',(0.,0.,0.));
#13 = DIRECTION('',(0.,0.,1.));
#14 = DIRECTION('',(1.,0.,-0.));
#15 = SHELL_BASED_SURFACE_MODEL('',(#16));
#16 = OPEN_SHELL('',(#17));
#17 = ADVANCED_FACE('',(#18),#40,.T.);
#18 = FACE_BOUND('',#19,.T.);
#19 = EDGE_LOOP('',(#20,#59,#75,#107));
#20 = ORIENTED_EDGE('',*,*,#21,.T.);
#21 = EDGE_CURVE('',#22,#24,#26,.T.);
#22 = VERTEX_POINT('',#23);
#23 = CARTESIAN_POINT('',(0.,10.113854983363,0.));
#24 = VERTEX_POINT('',#25);
#25 = CARTESIAN_POINT('',(1.5E+03,9.427015953867,0.));
#26 = SURFACE_CURVE('',#27,(#39),.PCURVE_S1.);
#27 = B_SPLINE_CURVE_WITH_KNOTS('',1,(#28,#29,#30,#31,#32,#33,#34,#35,
    #36,#37,#38),.UNSPECIFIED.,.F.,.F.,(2,1,1,1,1,1,1,1,1,1,2),(0.,
    0.193961848399,0.228829073776,0.303174605586,0.374822732818,
    0.674183172948,0.83269401858,0.870303298232,0.90565291055,
    0.962600620621,1.),.UNSPECIFIED.);
#28 = CARTESIAN_POINT('',(0.,10.113854983363,0.));
#29 = CARTESIAN_POINT('',(292.31866459151,-5.53686220181,0.));
#30 = CARTESIAN_POINT('',(343.9137319317,4.815667373733,0.));
#31 = CARTESIAN_POINT('',(454.59052435395,-13.64695175567,0.));
#32 = CARTESIAN_POINT('',(560.59921477413,7.692097639242,0.));
#33 = CARTESIAN_POINT('',(1.012388751539E+03,12.032264846855,0.));
#34 = CARTESIAN_POINT('',(1.250814254497E+03,-7.605136890008,0.));
#35 = CARTESIAN_POINT('',(1.307447052468E+03,-11.43108155753,0.));
#36 = CARTESIAN_POINT('',(1.357638844544E+03,6.656599293855,0.));
#37 = CARTESIAN_POINT('',(1.443557030746E+03,8.937356950636,0.));
#38 = CARTESIAN_POINT('',(1.5E+03,9.427015953867,0.));
#39 = PCURVE('',#40,#45);
#40 = PLANE('',#41);
#41 = AXIS2_PLACEMENT_3D('',#42,#43,#44);
#42 = CARTESIAN_POINT('',(750.61311722385,75.,0.));
#43 = DIRECTION('',(0.,0.,1.));
#44 = DIRECTION('',(1.,0.,-0.));
#45 = DEFINITIONAL_REPRESENTATION('',(#46),#58);
#46 = B_SPLINE_CURVE_WITH_KNOTS('',1,(#47,#48,#49,#50,#51,#52,#53,#54,
    #55,#56,#57),.UNSPECIFIED.,.F.,.F.,(2,1,1,1,1,1,1,1,1,1,2),(0.,
    0.193961848399,0.228829073776,0.303174605586,0.374822732818,
    0.674183172948,0.83269401858,0.870303298232,0.90565291055,
    0.962600620621,1.),.UNSPECIFIED.);
#47 = CARTESIAN_POINT('',(-750.6131172238,-64.88614501663));
#48 = CARTESIAN_POINT('',(-458.2944526323,-80.53686220181));
#49 = CARTESIAN_POINT('',(-406.6993852921,-70.18433262626));
#50 = CARTESIAN_POINT('',(-296.0225928699,-88.64695175567));
#51 = CARTESIAN_POINT('',(-190.0139024497,-67.30790236075));
#52 = CARTESIAN_POINT('',(261.77563431466,-62.96773515314));
#53 = CARTESIAN_POINT('',(500.20113727277,-82.60513689));
#54 = CARTESIAN_POINT('',(556.83393524374,-86.43108155753));
#55 = CARTESIAN_POINT('',(607.02572732023,-68.34340070614));
#56 = CARTESIAN_POINT('',(692.94391352241,-66.06264304936));
#57 = CARTESIAN_POINT('',(749.38688277614,-65.57298404613));
#58 = ( GEOMETRIC_REPRESENTATION_CONTEXT(2) 
PARAMETRIC_REPRESENTATION_CONTEXT() REPRESENTATION_CONTEXT('2D SPACE',''
  ) );
#59 = ORIENTED_EDGE('',*,*,#60,.T.);
#60 = EDGE_CURVE('',#24,#61,#63,.T.);
#61 = VERTEX_POINT('',#62);
#62 = CARTESIAN_POINT('',(1.5E+03,140.57298404613,0.));
#63 = SURFACE_CURVE('',#64,(#68),.PCURVE_S1.);
#64 = LINE('',#65,#66);
#65 = CARTESIAN_POINT('',(1.5E+03,9.427015953867,0.));
#66 = VECTOR('',#67,1.);
#67 = DIRECTION('',(0.,1.,0.));
#68 = PCURVE('',#40,#69);
#69 = DEFINITIONAL_REPRESENTATION('',(#70),#74);
#70 = LINE('',#71,#72);
#71 = CARTESIAN_POINT('',(749.38688277614,-65.57298404613));
#72 = VECTOR('',#73,1.);
#73 = DIRECTION('',(0.,1.));
#74 = ( GEOMETRIC_REPRESENTATION_CONTEXT(2) 
PARAMETRIC_REPRESENTATION_CONTEXT() REPRESENTATION_CONTEXT('2D SPACE',''
  ) );
#75 = ORIENTED_EDGE('',*,*,#76,.T.);
#76 = EDGE_CURVE('',#61,#77,#79,.T.);
#77 = VERTEX_POINT('',#78);
#78 = CARTESIAN_POINT('',(0.,139.88614501663,0.));
#79 = SURFACE_CURVE('',#80,(#92),.PCURVE_S1.);
#80 = B_SPLINE_CURVE_WITH_KNOTS('',1,(#81,#82,#83,#84,#85,#86,#87,#88,
    #89,#90,#91),.UNSPECIFIED.,.F.,.F.,(2,1,1,1,1,1,1,1,1,1,2),(0.,
    3.739937937907E-02,9.434708945038E-02,0.129696701768,0.16730598142,
    0.325816827052,0.625177267182,0.696825394414,0.771170926224,
    0.806038151601,1.),.UNSPECIFIED.);
#81 = CARTESIAN_POINT('',(1.5E+03,140.57298404613,0.));
#82 = CARTESIAN_POINT('',(1.443557030746E+03,141.06264304936,0.));
#83 = CARTESIAN_POINT('',(1.357638844544E+03,143.34340070614,0.));
#84 = CARTESIAN_POINT('',(1.307447052468E+03,161.43108155753,0.));
#85 = CARTESIAN_POINT('',(1.250814254497E+03,157.60513689,0.));
#86 = CARTESIAN_POINT('',(1.012388751539E+03,137.96773515314,0.));
#87 = CARTESIAN_POINT('',(560.59921477413,142.30790236075,0.));
#88 = CARTESIAN_POINT('',(454.59052435395,163.64695175567,0.));
#89 = CARTESIAN_POINT('',(343.9137319317,145.18433262626,0.));
#90 = CARTESIAN_POINT('',(292.31866459151,155.53686220181,0.));
#91 = CARTESIAN_POINT('',(0.,139.88614501663,0.));
#92 = PCURVE('',#40,#93);
#93 = DEFINITIONAL_REPRESENTATION('',(#94),#106);
#94 = B_SPLINE_CURVE_WITH_KNOTS('',1,(#95,#96,#97,#98,#99,#100,#101,#102
    ,#103,#104,#105),.UNSPECIFIED.,.F.,.F.,(2,1,1,1,1,1,1,1,1,1,2),(0.,
    3.739937937907E-02,9.434708945038E-02,0.129696701768,0.16730598142,
    0.325816827052,0.625177267182,0.696825394414,0.771170926224,
    0.806038151601,1.),.UNSPECIFIED.);
#95 = CARTESIAN_POINT('',(749.38688277614,65.572984046133));
#96 = CARTESIAN_POINT('',(692.94391352241,66.062643049364));
#97 = CARTESIAN_POINT('',(607.02572732023,68.343400706145));
#98 = CARTESIAN_POINT('',(556.83393524374,86.431081557536));
#99 = CARTESIAN_POINT('',(500.20113727277,82.605136890008));
#100 = CARTESIAN_POINT('',(261.77563431466,62.967735153145));
#101 = CARTESIAN_POINT('',(-190.0139024497,67.307902360758));
#102 = CARTESIAN_POINT('',(-296.0225928699,88.646951755674));
#103 = CARTESIAN_POINT('',(-406.6993852921,70.184332626267));
#104 = CARTESIAN_POINT('',(-458.2944526323,80.53686220181));
#105 = CARTESIAN_POINT('',(-750.6131172238,64.886145016637));
#106 = ( GEOMETRIC_REPRESENTATION_CONTEXT(2) 
PARAMETRIC_REPRESENTATION_CONTEXT() REPRESENTATION_CONTEXT('2D SPACE',''
  ) );
#107 = ORIENTED_EDGE('',*,*,#108,.T.);
#108 = EDGE_CURVE('',#77,#22,#109,.T.);
#109 = SURFACE_CURVE('',#110,(#114),.PCURVE_S1.);
#110 = LINE('',#111,#112);
#111 = CARTESIAN_POINT('',(0.,139.88614501663,0.));
#112 = VECTOR('',#113,1.);
#113 = DIRECTION('',(0.,-1.,0.));
#114 = PCURVE('',#40,#115);
#115 = DEFINITIONAL_REPRESENTATION('',(#116),#120);
#116 = LINE('',#117,#118);
#117 = CARTESIAN_POINT('',(-750.6131172238,64.886145016637));
#118 = VECTOR('',#119,1.);
#119 = DIRECTION('',(0.,-1.));
#120 = ( GEOMETRIC_REPRESENTATION_CONTEXT(2) 
PARAMETRIC_REPRESENTATION_CONTEXT() REPRESENTATION_CONTEXT('2D SPACE',''
  ) );
#121 = ( GEOMETRIC_REPRESENTATION_CONTEXT(3) 
GLOBAL_UNCERTAINTY_ASSIGNED_CONTEXT((#125)) GLOBAL_UNIT_ASSIGNED_CONTEXT
((#122,#123,#124)) REPRESENTATION_CONTEXT('Context #1',
  '3D Context with UNIT and UNCERTAINTY') );
#122 = ( LENGTH_UNIT() NAMED_UNIT(*) SI_UNIT(.MILLI.,.METRE.) );
#123 = ( NAMED_UNIT(*) PLANE_ANGLE_UNIT() SI_UNIT($,.RADIAN.) );
#124 = ( NAMED_UNIT(*) SI_UNIT($,.STERADIAN.) SOLID_ANGLE_UNIT() );
#125 = UNCERTAINTY_MEASURE_WITH_UNIT(LENGTH_MEASURE(1.E-07),#122,
  'distance_accuracy_value','confusion accuracy');
#126 = PRODUCT_RELATED_PRODUCT_CATEGORY('part',$,(#7));
ENDSEC;
END-ISO-10303-21;
