ISO-10303-21;
HEADER;
FILE_DESCRIPTION(('Open CASCADE Model'),'2;1');
FILE_NAME('Open CASCADE Shape Model','2026-06-02T12:09:04',('Author'),(
    'Open CASCADE'),'Open CASCADE STEP processor 7.9','Open CASCADE 7.9'
  ,'Unknown');
FILE_SCHEMA(('AUTOMOTIVE_DESIGN { 1 0 10303 214 1 1 1 1 }'));
ENDSEC;
DATA;
#1 = APPLICATION_PROTOCOL_DEFINITION('international standard',
  'automotive_design',2000,#2);
#2 = APPLICATION_CONTEXT(
  'core data for automotive mechanical design processes');
#3 = SHAPE_DEFINITION_REPRESENTATION(#4,#10);
#4 = PRODUCT_DEFINITION_SHAPE('','',#5);
#5 = PRODUCT_DEFINITION('design','',#6,#9);
#6 = PRODUCT_DEFINITION_FORMATION('','',#7);
#7 = PRODUCT('Open CASCADE STEP translator 7.9 63',
  'Open CASCADE STEP translator 7.9 63','',(#8));
#8 = PRODUCT_CONTEXT('',#2,'mechanical');
#9 = PRODUCT_DEFINITION_CONTEXT('part definition',#2,'design');
#10 = MANIFOLD_SURFACE_SHAPE_REPRESENTATION('',(#11,#15),#121);
#11 = AXIS2_PLACEMENT_3D('',#12,#13,#14);
#12 = CARTESIAN_POINT('',(0.,0.,0.));
#13 = DIRECTION('',(0.,0.,1.));
#14 = DIRECTION('',(1.,0.,-0.));
#15 = SHELL_BASED_SURFACE_MODEL('',(#16));
#16 = OPEN_SHELL('',(#17));
#17 = ADVANCED_FACE('',(#18),#40,.T.);
#18 = FACE_BOUND('',#19,.T.);
#19 = EDGE_LOOP('',(#20,#59,#75,#107));
#20 = ORIENTED_EDGE('',*,*,#21,.T.);
#21 = EDGE_CURVE('',#22,#24,#26,.T.);
#22 = VERTEX_POINT('',#23);
#23 = CARTESIAN_POINT('',(0.,-13.90739736666,0.));
#24 = VERTEX_POINT('',#25);
#25 = CARTESIAN_POINT('',(1.5E+03,-14.46432888953,0.));
#26 = SURFACE_CURVE('',#27,(#39),.PCURVE_S1.);
#27 = B_SPLINE_CURVE_WITH_KNOTS('',1,(#28,#29,#30,#31,#32,#33,#34,#35,
    #36,#37,#38),.UNSPECIFIED.,.F.,.F.,(2,1,1,1,1,1,1,1,1,1,2),(0.,
    3.88269259766E-02,9.68455598805E-02,0.198761534168,0.333542803684,
    0.385809808723,0.453405136546,0.738529546862,0.81103426392,
    0.86610413321,1.),.UNSPECIFIED.);
#28 = CARTESIAN_POINT('',(0.,-13.90739736666,0.));
#29 = CARTESIAN_POINT('',(58.394507482311,-10.66926365107,0.));
#30 = CARTESIAN_POINT('',(143.45785987009,9.371721217049,0.));
#31 = CARTESIAN_POINT('',(296.48631205881,-2.828180829047,0.));
#32 = CARTESIAN_POINT('',(499.32593738105,-11.34442273966,0.));
#33 = CARTESIAN_POINT('',(576.59098410398,3.766081906532,0.));
#34 = CARTESIAN_POINT('',(678.07767619656,11.966815021932,0.));
#35 = CARTESIAN_POINT('',(1.107026558903E+03,-9.328887067198,0.));
#36 = CARTESIAN_POINT('',(1.215791505956E+03,0.547093459135,0.));
#37 = CARTESIAN_POINT('',(1.298705098792E+03,-1.931780410775,0.));
#38 = CARTESIAN_POINT('',(1.5E+03,-14.46432888953,0.));
#39 = PCURVE('',#40,#45);
#40 = PLANE('',#41);
#41 = AXIS2_PLACEMENT_3D('',#42,#43,#44);
#42 = CARTESIAN_POINT('',(749.2291838297,75.,0.));
#43 = DIRECTION('',(0.,0.,1.));
#44 = DIRECTION('',(1.,0.,-0.));
#45 = DEFINITIONAL_REPRESENTATION('',(#46),#58);
#46 = B_SPLINE_CURVE_WITH_KNOTS('',1,(#47,#48,#49,#50,#51,#52,#53,#54,
    #55,#56,#57),.UNSPECIFIED.,.F.,.F.,(2,1,1,1,1,1,1,1,1,1,2),(0.,
    3.88269259766E-02,9.68455598805E-02,0.198761534168,0.333542803684,
    0.385809808723,0.453405136546,0.738529546862,0.81103426392,
    0.86610413321,1.),.UNSPECIFIED.);
#47 = CARTESIAN_POINT('',(-749.2291838297,-88.90739736666));
#48 = CARTESIAN_POINT('',(-690.8346763473,-85.66926365107));
#49 = CARTESIAN_POINT('',(-605.7713239596,-65.62827878295));
#50 = CARTESIAN_POINT('',(-452.7428717708,-77.82818082904));
#51 = CARTESIAN_POINT('',(-249.9032464486,-86.34442273966));
#52 = CARTESIAN_POINT('',(-172.6381997257,-71.23391809346));
#53 = CARTESIAN_POINT('',(-71.15150763314,-63.03318497806));
#54 = CARTESIAN_POINT('',(357.79737507317,-84.32888706719));
#55 = CARTESIAN_POINT('',(466.56232212655,-74.45290654086));
#56 = CARTESIAN_POINT('',(549.47591496182,-76.93178041077));
#57 = CARTESIAN_POINT('',(750.77081617029,-89.46432888953));
#58 = ( GEOMETRIC_REPRESENTATION_CONTEXT(2) 
PARAMETRIC_REPRESENTATION_CONTEXT() REPRESENTATION_CONTEXT('2D SPACE',''
  ) );
#59 = ORIENTED_EDGE('',*,*,#60,.T.);
#60 = EDGE_CURVE('',#24,#61,#63,.T.);
#61 = VERTEX_POINT('',#62);
#62 = CARTESIAN_POINT('',(1.5E+03,164.46432888953,0.));
#63 = SURFACE_CURVE('',#64,(#68),.PCURVE_S1.);
#64 = LINE('',#65,#66);
#65 = CARTESIAN_POINT('',(1.5E+03,-14.46432888953,0.));
#66 = VECTOR('',#67,1.);
#67 = DIRECTION('',(0.,1.,0.));
#68 = PCURVE('',#40,#69);
#69 = DEFINITIONAL_REPRESENTATION('',(#70),#74);
#70 = LINE('',#71,#72);
#71 = CARTESIAN_POINT('',(750.77081617029,-89.46432888953));
#72 = VECTOR('',#73,1.);
#73 = DIRECTION('',(0.,1.));
#74 = ( GEOMETRIC_REPRESENTATION_CONTEXT(2) 
PARAMETRIC_REPRESENTATION_CONTEXT() REPRESENTATION_CONTEXT('2D SPACE',''
  ) );
#75 = ORIENTED_EDGE('',*,*,#76,.T.);
#76 = EDGE_CURVE('',#61,#77,#79,.T.);
#77 = VERTEX_POINT('',#78);
#78 = CARTESIAN_POINT('',(0.,163.90739736666,0.));
#79 = SURFACE_CURVE('',#80,(#92),.PCURVE_S1.);
#80 = B_SPLINE_CURVE_WITH_KNOTS('',1,(#81,#82,#83,#84,#85,#86,#87,#88,
    #89,#90,#91),.UNSPECIFIED.,.F.,.F.,(2,1,1,1,1,1,1,1,1,1,2),(0.,
    0.13389586679,0.18896573608,0.261470453138,0.546594863454,
    0.614190191277,0.666457196316,0.801238465832,0.90315444012,
    0.961173074023,1.),.UNSPECIFIED.);
#81 = CARTESIAN_POINT('',(1.5E+03,164.46432888953,0.));
#82 = CARTESIAN_POINT('',(1.298705098792E+03,151.93178041077,0.));
#83 = CARTESIAN_POINT('',(1.215791505956E+03,149.45290654086,0.));
#84 = CARTESIAN_POINT('',(1.107026558903E+03,159.32888706719,0.));
#85 = CARTESIAN_POINT('',(678.07767619656,138.03318497806,0.));
#86 = CARTESIAN_POINT('',(576.59098410398,146.23391809346,0.));
#87 = CARTESIAN_POINT('',(499.32593738105,161.34442273966,0.));
#88 = CARTESIAN_POINT('',(296.48631205881,152.82818082904,0.));
#89 = CARTESIAN_POINT('',(143.45785987009,140.62827878295,0.));
#90 = CARTESIAN_POINT('',(58.394507482311,160.66926365107,0.));
#91 = CARTESIAN_POINT('',(0.,163.90739736666,0.));
#92 = PCURVE('',#40,#93);
#93 = DEFINITIONAL_REPRESENTATION('',(#94),#106);
#94 = B_SPLINE_CURVE_WITH_KNOTS('',1,(#95,#96,#97,#98,#99,#100,#101,#102
    ,#103,#104,#105),.UNSPECIFIED.,.F.,.F.,(2,1,1,1,1,1,1,1,1,1,2),(0.,
    0.13389586679,0.18896573608,0.261470453138,0.546594863454,
    0.614190191277,0.666457196316,0.801238465832,0.90315444012,
    0.961173074023,1.),.UNSPECIFIED.);
#95 = CARTESIAN_POINT('',(750.77081617029,89.464328889535));
#96 = CARTESIAN_POINT('',(549.47591496182,76.931780410775));
#97 = CARTESIAN_POINT('',(466.56232212655,74.452906540865));
#98 = CARTESIAN_POINT('',(357.79737507317,84.328887067198));
#99 = CARTESIAN_POINT('',(-71.15150763314,63.033184978068));
#100 = CARTESIAN_POINT('',(-172.6381997257,71.233918093468));
#101 = CARTESIAN_POINT('',(-249.9032464486,86.344422739666));
#102 = CARTESIAN_POINT('',(-452.7428717708,77.828180829047));
#103 = CARTESIAN_POINT('',(-605.7713239596,65.628278782951));
#104 = CARTESIAN_POINT('',(-690.8346763473,85.669263651072));
#105 = CARTESIAN_POINT('',(-749.2291838297,88.907397366665));
#106 = ( GEOMETRIC_REPRESENTATION_CONTEXT(2) 
PARAMETRIC_REPRESENTATION_CONTEXT() REPRESENTATION_CONTEXT('2D SPACE',''
  ) );
#107 = ORIENTED_EDGE('',*,*,#108,.T.);
#108 = EDGE_CURVE('',#77,#22,#109,.T.);
#109 = SURFACE_CURVE('',#110,(#114),.PCURVE_S1.);
#110 = LINE('',#111,#112);
#111 = CARTESIAN_POINT('',(0.,163.90739736666,0.));
#112 = VECTOR('',#113,1.);
#113 = DIRECTION('',(0.,-1.,0.));
#114 = PCURVE('',#40,#115);
#115 = DEFINITIONAL_REPRESENTATION('',(#116),#120);
#116 = LINE('',#117,#118);
#117 = CARTESIAN_POINT('',(-749.2291838297,88.907397366665));
#118 = VECTOR('',#119,1.);
#119 = DIRECTION('',(0.,-1.));
#120 = ( GEOMETRIC_REPRESENTATION_CONTEXT(2) 
PARAMETRIC_REPRESENTATION_CONTEXT() REPRESENTATION_CONTEXT('2D SPACE',''
  ) );
#121 = ( GEOMETRIC_REPRESENTATION_CONTEXT(3) 
GLOBAL_UNCERTAINTY_ASSIGNED_CONTEXT((#125)) GLOBAL_UNIT_ASSIGNED_CONTEXT
((#122,#123,#124)) REPRESENTATION_CONTEXT('Context #1',
  '3D Context with UNIT and UNCERTAINTY') );
#122 = ( LENGTH_UNIT() NAMED_UNIT(*) SI_UNIT(.MILLI.,.METRE.) );
#123 = ( NAMED_UNIT(*) PLANE_ANGLE_UNIT() SI_UNIT($,.RADIAN.) );
#124 = ( NAMED_UNIT(*) SI_UNIT($,.STERADIAN.) SOLID_ANGLE_UNIT() );
#125 = UNCERTAINTY_MEASURE_WITH_UNIT(LENGTH_MEASURE(1.E-07),#122,
  'distance_accuracy_value','confusion accuracy');
#126 = PRODUCT_RELATED_PRODUCT_CATEGORY('part',$,(#7));
ENDSEC;
END-ISO-10303-21;
