ISO-10303-21;
HEADER;
FILE_DESCRIPTION(('Open CASCADE Model'),'2;1');
FILE_NAME('Open CASCADE Shape Model','2026-06-02T12:09:04',('Author'),(
    'Open CASCADE'),'Open CASCADE STEP processor 7.9','Open CASCADE 7.9'
  ,'Unknown');
FILE_SCHEMA(('AUTOMOTIVE_DESIGN { 1 0 10303 214 1 1 1 1 }'));
ENDSEC;
DATA;
#1 = APPLICATION_PROTOCOL_DEFINITION('international standard',
  'automotive_design',2000,#2);
#2 = APPLICATION_CONTEXT(
  'core data for automotive mechanical design processes');
#3 = SHAPE_DEFINITION_REPRESENTATION(#4,#10);
#4 = PRODUCT_DEFINITION_SHAPE('','',#5);
#5 = PRODUCT_DEFINITION('design','',#6,#9);
#6 = PRODUCT_DEFINITION_FORMATION('','',#7);
#7 = PRODUCT('Open CASCADE STEP translator 7.9 74',
  'Open CASCADE STEP translator 7.9 74','',(#8));
#8 = PRODUCT_CONTEXT('',#2,'mechanical');
#9 = PRODUCT_DEFINITION_CONTEXT('part definition',#2,'design');
#10 = MANIFOLD_SURFACE_SHAPE_REPRESENTATION('',(#11,#15),#121);
#11 = AXIS2_PLACEMENT_3D('',#12,#13,#14);
#12 = CARTESIAN_POINT('',(0.,0.,0.));
#13 = DIRECTION('',(0.,0.,1.));
#14 = DIRECTION('',(1.,0.,-0.));
#15 = SHELL_BASED_SURFACE_MODEL('',(#16));
#16 = OPEN_SHELL('',(#17));
#17 = ADVANCED_FACE('',(#18),#40,.T.);
#18 = FACE_BOUND('',#19,.T.);
#19 = EDGE_LOOP('',(#20,#59,#75,#107));
#20 = ORIENTED_EDGE('',*,*,#21,.T.);
#21 = EDGE_CURVE('',#22,#24,#26,.T.);
#22 = VERTEX_POINT('',#23);
#23 = CARTESIAN_POINT('',(0.,2.779128364111,0.));
#24 = VERTEX_POINT('',#25);
#25 = CARTESIAN_POINT('',(1.5E+03,-11.69697021217,0.));
#26 = SURFACE_CURVE('',#27,(#39),.PCURVE_S1.);
#27 = B_SPLINE_CURVE_WITH_KNOTS('',1,(#28,#29,#30,#31,#32,#33,#34,#35,
    #36,#37,#38),.UNSPECIFIED.,.F.,.F.,(2,1,1,1,1,1,1,1,1,1,2),(0.,
    5.300663358355E-02,0.151854862187,0.300951581218,0.515483960041,
    0.600483451203,0.65161431557,0.680745286914,0.703004398473,
    0.90187618871,1.),.UNSPECIFIED.);
#28 = CARTESIAN_POINT('',(0.,2.779128364111,0.));
#29 = CARTESIAN_POINT('',(79.541618991251,-2.045020538741,0.));
#30 = CARTESIAN_POINT('',(228.14479941686,-1.564881099133,0.));
#31 = CARTESIAN_POINT('',(452.12756335922,-10.09839123098,0.));
#32 = CARTESIAN_POINT('',(773.90560801581,11.740286902132,0.));
#33 = CARTESIAN_POINT('',(901.64217732942,8.244670016834,0.));
#34 = CARTESIAN_POINT('',(976.59868504131,-8.790149368789,0.));
#35 = CARTESIAN_POINT('',(1.020361965725E+03,-10.43510601671,0.));
#36 = CARTESIAN_POINT('',(1.053533496843E+03,-14.84472640862,0.));
#37 = CARTESIAN_POINT('',(1.352485980392E+03,-11.18736049161,0.));
#38 = CARTESIAN_POINT('',(1.5E+03,-11.69697021217,0.));
#39 = PCURVE('',#40,#45);
#40 = PLANE('',#41);
#41 = AXIS2_PLACEMENT_3D('',#42,#43,#44);
#42 = CARTESIAN_POINT('',(756.64909894705,75.,0.));
#43 = DIRECTION('',(0.,0.,1.));
#44 = DIRECTION('',(1.,0.,-0.));
#45 = DEFINITIONAL_REPRESENTATION('',(#46),#58);
#46 = B_SPLINE_CURVE_WITH_KNOTS('',1,(#47,#48,#49,#50,#51,#52,#53,#54,
    #55,#56,#57),.UNSPECIFIED.,.F.,.F.,(2,1,1,1,1,1,1,1,1,1,2),(0.,
    5.300663358355E-02,0.151854862187,0.300951581218,0.515483960041,
    0.600483451203,0.65161431557,0.680745286914,0.703004398473,
    0.90187618871,1.),.UNSPECIFIED.);
#47 = CARTESIAN_POINT('',(-756.649098947,-72.22087163588));
#48 = CARTESIAN_POINT('',(-677.1074799557,-77.04502053874));
#49 = CARTESIAN_POINT('',(-528.5042995301,-76.56488109913));
#50 = CARTESIAN_POINT('',(-304.5215355878,-85.09839123098));
#51 = CARTESIAN_POINT('',(17.256509068768,-63.25971309786));
#52 = CARTESIAN_POINT('',(144.99307838237,-66.75532998316));
#53 = CARTESIAN_POINT('',(219.94958609426,-83.79014936878));
#54 = CARTESIAN_POINT('',(263.71286677815,-85.43510601671));
#55 = CARTESIAN_POINT('',(296.88439789574,-89.84472640862));
#56 = CARTESIAN_POINT('',(595.83688144468,-86.18736049161));
#57 = CARTESIAN_POINT('',(743.35090105295,-86.69697021217));
#58 = ( GEOMETRIC_REPRESENTATION_CONTEXT(2) 
PARAMETRIC_REPRESENTATION_CONTEXT() REPRESENTATION_CONTEXT('2D SPACE',''
  ) );
#59 = ORIENTED_EDGE('',*,*,#60,.T.);
#60 = EDGE_CURVE('',#24,#61,#63,.T.);
#61 = VERTEX_POINT('',#62);
#62 = CARTESIAN_POINT('',(1.5E+03,161.69697021217,0.));
#63 = SURFACE_CURVE('',#64,(#68),.PCURVE_S1.);
#64 = LINE('',#65,#66);
#65 = CARTESIAN_POINT('',(1.5E+03,-11.69697021217,0.));
#66 = VECTOR('',#67,1.);
#67 = DIRECTION('',(0.,1.,0.));
#68 = PCURVE('',#40,#69);
#69 = DEFINITIONAL_REPRESENTATION('',(#70),#74);
#70 = LINE('',#71,#72);
#71 = CARTESIAN_POINT('',(743.35090105295,-86.69697021217));
#72 = VECTOR('',#73,1.);
#73 = DIRECTION('',(0.,1.));
#74 = ( GEOMETRIC_REPRESENTATION_CONTEXT(2) 
PARAMETRIC_REPRESENTATION_CONTEXT() REPRESENTATION_CONTEXT('2D SPACE',''
  ) );
#75 = ORIENTED_EDGE('',*,*,#76,.T.);
#76 = EDGE_CURVE('',#61,#77,#79,.T.);
#77 = VERTEX_POINT('',#78);
#78 = CARTESIAN_POINT('',(0.,147.22087163588,0.));
#79 = SURFACE_CURVE('',#80,(#92),.PCURVE_S1.);
#80 = B_SPLINE_CURVE_WITH_KNOTS('',1,(#81,#82,#83,#84,#85,#86,#87,#88,
    #89,#90,#91),.UNSPECIFIED.,.F.,.F.,(2,1,1,1,1,1,1,1,1,1,2),(0.,
    9.812381128976E-02,0.296995601527,0.319254713086,0.34838568443,
    0.399516548797,0.484516039959,0.699048418782,0.848145137813,
    0.946993366416,1.),.UNSPECIFIED.);
#81 = CARTESIAN_POINT('',(1.5E+03,161.69697021217,0.));
#82 = CARTESIAN_POINT('',(1.352485980392E+03,161.18736049161,0.));
#83 = CARTESIAN_POINT('',(1.053533496843E+03,164.84472640862,0.));
#84 = CARTESIAN_POINT('',(1.020361965725E+03,160.43510601671,0.));
#85 = CARTESIAN_POINT('',(976.59868504131,158.79014936878,0.));
#86 = CARTESIAN_POINT('',(901.64217732942,141.75532998316,0.));
#87 = CARTESIAN_POINT('',(773.90560801581,138.25971309786,0.));
#88 = CARTESIAN_POINT('',(452.12756335922,160.09839123098,0.));
#89 = CARTESIAN_POINT('',(228.14479941686,151.56488109913,0.));
#90 = CARTESIAN_POINT('',(79.541618991251,152.04502053874,0.));
#91 = CARTESIAN_POINT('',(0.,147.22087163588,0.));
#92 = PCURVE('',#40,#93);
#93 = DEFINITIONAL_REPRESENTATION('',(#94),#106);
#94 = B_SPLINE_CURVE_WITH_KNOTS('',1,(#95,#96,#97,#98,#99,#100,#101,#102
    ,#103,#104,#105),.UNSPECIFIED.,.F.,.F.,(2,1,1,1,1,1,1,1,1,1,2),(0.,
    9.812381128976E-02,0.296995601527,0.319254713086,0.34838568443,
    0.399516548797,0.484516039959,0.699048418782,0.848145137813,
    0.946993366416,1.),.UNSPECIFIED.);
#95 = CARTESIAN_POINT('',(743.35090105295,86.69697021217));
#96 = CARTESIAN_POINT('',(595.83688144468,86.187360491613));
#97 = CARTESIAN_POINT('',(296.88439789574,89.844726408626));
#98 = CARTESIAN_POINT('',(263.71286677815,85.43510601671));
#99 = CARTESIAN_POINT('',(219.94958609426,83.790149368789));
#100 = CARTESIAN_POINT('',(144.99307838237,66.755329983166));
#101 = CARTESIAN_POINT('',(17.256509068768,63.259713097868));
#102 = CARTESIAN_POINT('',(-304.5215355878,85.098391230981));
#103 = CARTESIAN_POINT('',(-528.5042995301,76.564881099133));
#104 = CARTESIAN_POINT('',(-677.1074799557,77.045020538741));
#105 = CARTESIAN_POINT('',(-756.649098947,72.220871635889));
#106 = ( GEOMETRIC_REPRESENTATION_CONTEXT(2) 
PARAMETRIC_REPRESENTATION_CONTEXT() REPRESENTATION_CONTEXT('2D SPACE',''
  ) );
#107 = ORIENTED_EDGE('',*,*,#108,.T.);
#108 = EDGE_CURVE('',#77,#22,#109,.T.);
#109 = SURFACE_CURVE('',#110,(#114),.PCURVE_S1.);
#110 = LINE('',#111,#112);
#111 = CARTESIAN_POINT('',(0.,147.22087163588,0.));
#112 = VECTOR('',#113,1.);
#113 = DIRECTION('',(0.,-1.,0.));
#114 = PCURVE('',#40,#115);
#115 = DEFINITIONAL_REPRESENTATION('',(#116),#120);
#116 = LINE('',#117,#118);
#117 = CARTESIAN_POINT('',(-756.649098947,72.220871635889));
#118 = VECTOR('',#119,1.);
#119 = DIRECTION('',(0.,-1.));
#120 = ( GEOMETRIC_REPRESENTATION_CONTEXT(2) 
PARAMETRIC_REPRESENTATION_CONTEXT() REPRESENTATION_CONTEXT('2D SPACE',''
  ) );
#121 = ( GEOMETRIC_REPRESENTATION_CONTEXT(3) 
GLOBAL_UNCERTAINTY_ASSIGNED_CONTEXT((#125)) GLOBAL_UNIT_ASSIGNED_CONTEXT
((#122,#123,#124)) REPRESENTATION_CONTEXT('Context #1',
  '3D Context with UNIT and UNCERTAINTY') );
#122 = ( LENGTH_UNIT() NAMED_UNIT(*) SI_UNIT(.MILLI.,.METRE.) );
#123 = ( NAMED_UNIT(*) PLANE_ANGLE_UNIT() SI_UNIT($,.RADIAN.) );
#124 = ( NAMED_UNIT(*) SI_UNIT($,.STERADIAN.) SOLID_ANGLE_UNIT() );
#125 = UNCERTAINTY_MEASURE_WITH_UNIT(LENGTH_MEASURE(1.E-07),#122,
  'distance_accuracy_value','confusion accuracy');
#126 = PRODUCT_RELATED_PRODUCT_CATEGORY('part',$,(#7));
ENDSEC;
END-ISO-10303-21;
