ISO-10303-21;
HEADER;
FILE_DESCRIPTION(('Open CASCADE Model'),'2;1');
FILE_NAME('Open CASCADE Shape Model','2026-06-02T12:09:04',('Author'),(
    'Open CASCADE'),'Open CASCADE STEP processor 7.9','Open CASCADE 7.9'
  ,'Unknown');
FILE_SCHEMA(('AUTOMOTIVE_DESIGN { 1 0 10303 214 1 1 1 1 }'));
ENDSEC;
DATA;
#1 = APPLICATION_PROTOCOL_DEFINITION('international standard',
  'automotive_design',2000,#2);
#2 = APPLICATION_CONTEXT(
  'core data for automotive mechanical design processes');
#3 = SHAPE_DEFINITION_REPRESENTATION(#4,#10);
#4 = PRODUCT_DEFINITION_SHAPE('','',#5);
#5 = PRODUCT_DEFINITION('design','',#6,#9);
#6 = PRODUCT_DEFINITION_FORMATION('','',#7);
#7 = PRODUCT('Open CASCADE STEP translator 7.9 1',
  'Open CASCADE STEP translator 7.9 1','',(#8));
#8 = PRODUCT_CONTEXT('',#2,'mechanical');
#9 = PRODUCT_DEFINITION_CONTEXT('part definition',#2,'design');
#10 = MANIFOLD_SURFACE_SHAPE_REPRESENTATION('',(#11,#15),#121);
#11 = AXIS2_PLACEMENT_3D('',#12,#13,#14);
#12 = CARTESIAN_POINT('',(0.,0.,0.));
#13 = DIRECTION('',(0.,0.,1.));
#14 = DIRECTION('',(1.,0.,-0.));
#15 = SHELL_BASED_SURFACE_MODEL('',(#16));
#16 = OPEN_SHELL('',(#17));
#17 = ADVANCED_FACE('',(#18),#40,.T.);
#18 = FACE_BOUND('',#19,.T.);
#19 = EDGE_LOOP('',(#20,#59,#75,#107));
#20 = ORIENTED_EDGE('',*,*,#21,.T.);
#21 = EDGE_CURVE('',#22,#24,#26,.T.);
#22 = VERTEX_POINT('',#23);
#23 = CARTESIAN_POINT('',(0.,3.876059273023,0.));
#24 = VERTEX_POINT('',#25);
#25 = CARTESIAN_POINT('',(1.5E+03,-7.742632202561,0.));
#26 = SURFACE_CURVE('',#27,(#39),.PCURVE_S1.);
#27 = B_SPLINE_CURVE_WITH_KNOTS('',1,(#28,#29,#30,#31,#32,#33,#34,#35,
    #36,#37,#38),.UNSPECIFIED.,.F.,.F.,(2,1,1,1,1,1,1,1,1,1,2),(0.,
    0.15158971773,0.299168279627,0.449333058175,0.485342553858,
    0.510367145122,0.609818003577,0.707215965381,0.898318972796,
    0.922892277582,1.),.UNSPECIFIED.);
#28 = CARTESIAN_POINT('',(0.,3.876059273023,0.));
#29 = CARTESIAN_POINT('',(227.54985569929,-12.80294966545,0.));
#30 = CARTESIAN_POINT('',(449.51070661422,-4.31595360242,0.));
#31 = CARTESIAN_POINT('',(675.46258476045,-9.682848398125,0.));
#32 = CARTESIAN_POINT('',(728.45282008965,1.69757403518,0.));
#33 = CARTESIAN_POINT('',(765.55523866068,8.182838346457,0.));
#34 = CARTESIAN_POINT('',(914.91795734674,-1.637543610475,0.));
#35 = CARTESIAN_POINT('',(1.06077210213E+03,13.085482316875,0.));
#36 = CARTESIAN_POINT('',(1.347490347943E+03,-9.828935159777,0.));
#37 = CARTESIAN_POINT('',(1.384005821344E+03,-3.949931973662,0.));
#38 = CARTESIAN_POINT('',(1.5E+03,-7.742632202561,0.));
#39 = PCURVE('',#40,#45);
#40 = PLANE('',#41);
#41 = AXIS2_PLACEMENT_3D('',#42,#43,#44);
#42 = CARTESIAN_POINT('',(755.50952454305,75.,0.));
#43 = DIRECTION('',(0.,0.,1.));
#44 = DIRECTION('',(1.,0.,-0.));
#45 = DEFINITIONAL_REPRESENTATION('',(#46),#58);
#46 = B_SPLINE_CURVE_WITH_KNOTS('',1,(#47,#48,#49,#50,#51,#52,#53,#54,
    #55,#56,#57),.UNSPECIFIED.,.F.,.F.,(2,1,1,1,1,1,1,1,1,1,2),(0.,
    0.15158971773,0.299168279627,0.449333058175,0.485342553858,
    0.510367145122,0.609818003577,0.707215965381,0.898318972796,
    0.922892277582,1.),.UNSPECIFIED.);
#47 = CARTESIAN_POINT('',(-755.509524543,-71.12394072697));
#48 = CARTESIAN_POINT('',(-527.9596688437,-87.80294966545));
#49 = CARTESIAN_POINT('',(-305.9988179288,-79.31595360242));
#50 = CARTESIAN_POINT('',(-80.04693978259,-84.68284839812));
#51 = CARTESIAN_POINT('',(-27.05670445339,-73.30242596482));
#52 = CARTESIAN_POINT('',(10.045714117631,-66.81716165354));
#53 = CARTESIAN_POINT('',(159.40843280369,-76.63754361047));
#54 = CARTESIAN_POINT('',(305.26257758663,-61.91451768312));
#55 = CARTESIAN_POINT('',(591.98082339945,-84.82893515977));
#56 = CARTESIAN_POINT('',(628.4962968012,-78.94993197366));
#57 = CARTESIAN_POINT('',(744.49047545694,-82.74263220256));
#58 = ( GEOMETRIC_REPRESENTATION_CONTEXT(2) 
PARAMETRIC_REPRESENTATION_CONTEXT() REPRESENTATION_CONTEXT('2D SPACE',''
  ) );
#59 = ORIENTED_EDGE('',*,*,#60,.T.);
#60 = EDGE_CURVE('',#24,#61,#63,.T.);
#61 = VERTEX_POINT('',#62);
#62 = CARTESIAN_POINT('',(1.5E+03,157.74263220256,0.));
#63 = SURFACE_CURVE('',#64,(#68),.PCURVE_S1.);
#64 = LINE('',#65,#66);
#65 = CARTESIAN_POINT('',(1.5E+03,-7.742632202561,0.));
#66 = VECTOR('',#67,1.);
#67 = DIRECTION('',(0.,1.,0.));
#68 = PCURVE('',#40,#69);
#69 = DEFINITIONAL_REPRESENTATION('',(#70),#74);
#70 = LINE('',#71,#72);
#71 = CARTESIAN_POINT('',(744.49047545694,-82.74263220256));
#72 = VECTOR('',#73,1.);
#73 = DIRECTION('',(0.,1.));
#74 = ( GEOMETRIC_REPRESENTATION_CONTEXT(2) 
PARAMETRIC_REPRESENTATION_CONTEXT() REPRESENTATION_CONTEXT('2D SPACE',''
  ) );
#75 = ORIENTED_EDGE('',*,*,#76,.T.);
#76 = EDGE_CURVE('',#61,#77,#79,.T.);
#77 = VERTEX_POINT('',#78);
#78 = CARTESIAN_POINT('',(0.,146.12394072697,0.));
#79 = SURFACE_CURVE('',#80,(#92),.PCURVE_S1.);
#80 = B_SPLINE_CURVE_WITH_KNOTS('',1,(#81,#82,#83,#84,#85,#86,#87,#88,
    #89,#90,#91),.UNSPECIFIED.,.F.,.F.,(2,1,1,1,1,1,1,1,1,1,2),(0.,
    7.710772241813E-02,0.101681027204,0.292784034619,0.390181996423,
    0.489632854878,0.514657446142,0.550666941825,0.700831720373,
    0.84841028227,1.),.UNSPECIFIED.);
#81 = CARTESIAN_POINT('',(1.5E+03,157.74263220256,0.));
#82 = CARTESIAN_POINT('',(1.384005821344E+03,153.94993197366,0.));
#83 = CARTESIAN_POINT('',(1.347490347943E+03,159.82893515977,0.));
#84 = CARTESIAN_POINT('',(1.06077210213E+03,136.91451768312,0.));
#85 = CARTESIAN_POINT('',(914.91795734674,151.63754361047,0.));
#86 = CARTESIAN_POINT('',(765.55523866068,141.81716165354,0.));
#87 = CARTESIAN_POINT('',(728.45282008965,148.30242596482,0.));
#88 = CARTESIAN_POINT('',(675.46258476045,159.68284839812,0.));
#89 = CARTESIAN_POINT('',(449.51070661422,154.31595360242,0.));
#90 = CARTESIAN_POINT('',(227.54985569929,162.80294966545,0.));
#91 = CARTESIAN_POINT('',(0.,146.12394072697,0.));
#92 = PCURVE('',#40,#93);
#93 = DEFINITIONAL_REPRESENTATION('',(#94),#106);
#94 = B_SPLINE_CURVE_WITH_KNOTS('',1,(#95,#96,#97,#98,#99,#100,#101,#102
    ,#103,#104,#105),.UNSPECIFIED.,.F.,.F.,(2,1,1,1,1,1,1,1,1,1,2),(0.,
    7.710772241813E-02,0.101681027204,0.292784034619,0.390181996423,
    0.489632854878,0.514657446142,0.550666941825,0.700831720373,
    0.84841028227,1.),.UNSPECIFIED.);
#95 = CARTESIAN_POINT('',(744.49047545694,82.742632202561));
#96 = CARTESIAN_POINT('',(628.4962968012,78.949931973662));
#97 = CARTESIAN_POINT('',(591.98082339945,84.828935159777));
#98 = CARTESIAN_POINT('',(305.26257758663,61.914517683125));
#99 = CARTESIAN_POINT('',(159.40843280369,76.637543610475));
#100 = CARTESIAN_POINT('',(10.045714117631,66.817161653543));
#101 = CARTESIAN_POINT('',(-27.05670445339,73.30242596482));
#102 = CARTESIAN_POINT('',(-80.04693978259,84.682848398125));
#103 = CARTESIAN_POINT('',(-305.9988179288,79.31595360242));
#104 = CARTESIAN_POINT('',(-527.9596688437,87.802949665458));
#105 = CARTESIAN_POINT('',(-755.509524543,71.123940726977));
#106 = ( GEOMETRIC_REPRESENTATION_CONTEXT(2) 
PARAMETRIC_REPRESENTATION_CONTEXT() REPRESENTATION_CONTEXT('2D SPACE',''
  ) );
#107 = ORIENTED_EDGE('',*,*,#108,.T.);
#108 = EDGE_CURVE('',#77,#22,#109,.T.);
#109 = SURFACE_CURVE('',#110,(#114),.PCURVE_S1.);
#110 = LINE('',#111,#112);
#111 = CARTESIAN_POINT('',(0.,146.12394072697,0.));
#112 = VECTOR('',#113,1.);
#113 = DIRECTION('',(0.,-1.,0.));
#114 = PCURVE('',#40,#115);
#115 = DEFINITIONAL_REPRESENTATION('',(#116),#120);
#116 = LINE('',#117,#118);
#117 = CARTESIAN_POINT('',(-755.509524543,71.123940726977));
#118 = VECTOR('',#119,1.);
#119 = DIRECTION('',(0.,-1.));
#120 = ( GEOMETRIC_REPRESENTATION_CONTEXT(2) 
PARAMETRIC_REPRESENTATION_CONTEXT() REPRESENTATION_CONTEXT('2D SPACE',''
  ) );
#121 = ( GEOMETRIC_REPRESENTATION_CONTEXT(3) 
GLOBAL_UNCERTAINTY_ASSIGNED_CONTEXT((#125)) GLOBAL_UNIT_ASSIGNED_CONTEXT
((#122,#123,#124)) REPRESENTATION_CONTEXT('Context #1',
  '3D Context with UNIT and UNCERTAINTY') );
#122 = ( LENGTH_UNIT() NAMED_UNIT(*) SI_UNIT(.MILLI.,.METRE.) );
#123 = ( NAMED_UNIT(*) PLANE_ANGLE_UNIT() SI_UNIT($,.RADIAN.) );
#124 = ( NAMED_UNIT(*) SI_UNIT($,.STERADIAN.) SOLID_ANGLE_UNIT() );
#125 = UNCERTAINTY_MEASURE_WITH_UNIT(LENGTH_MEASURE(1.E-07),#122,
  'distance_accuracy_value','confusion accuracy');
#126 = PRODUCT_RELATED_PRODUCT_CATEGORY('part',$,(#7));
ENDSEC;
END-ISO-10303-21;
