ISO-10303-21;
HEADER;
FILE_DESCRIPTION(('Open CASCADE Model'),'2;1');
FILE_NAME('Open CASCADE Shape Model','2026-06-02T12:09:04',('Author'),(
    'Open CASCADE'),'Open CASCADE STEP processor 7.9','Open CASCADE 7.9'
  ,'Unknown');
FILE_SCHEMA(('AUTOMOTIVE_DESIGN { 1 0 10303 214 1 1 1 1 }'));
ENDSEC;
DATA;
#1 = APPLICATION_PROTOCOL_DEFINITION('international standard',
  'automotive_design',2000,#2);
#2 = APPLICATION_CONTEXT(
  'core data for automotive mechanical design processes');
#3 = SHAPE_DEFINITION_REPRESENTATION(#4,#10);
#4 = PRODUCT_DEFINITION_SHAPE('','',#5);
#5 = PRODUCT_DEFINITION('design','',#6,#9);
#6 = PRODUCT_DEFINITION_FORMATION('','',#7);
#7 = PRODUCT('Open CASCADE STEP translator 7.9 15',
  'Open CASCADE STEP translator 7.9 15','',(#8));
#8 = PRODUCT_CONTEXT('',#2,'mechanical');
#9 = PRODUCT_DEFINITION_CONTEXT('part definition',#2,'design');
#10 = MANIFOLD_SURFACE_SHAPE_REPRESENTATION('',(#11,#15),#121);
#11 = AXIS2_PLACEMENT_3D('',#12,#13,#14);
#12 = CARTESIAN_POINT('',(0.,0.,0.));
#13 = DIRECTION('',(0.,0.,1.));
#14 = DIRECTION('',(1.,0.,-0.));
#15 = SHELL_BASED_SURFACE_MODEL('',(#16));
#16 = OPEN_SHELL('',(#17));
#17 = ADVANCED_FACE('',(#18),#40,.T.);
#18 = FACE_BOUND('',#19,.T.);
#19 = EDGE_LOOP('',(#20,#59,#75,#107));
#20 = ORIENTED_EDGE('',*,*,#21,.T.);
#21 = EDGE_CURVE('',#22,#24,#26,.T.);
#22 = VERTEX_POINT('',#23);
#23 = CARTESIAN_POINT('',(0.,3.447315116989,0.));
#24 = VERTEX_POINT('',#25);
#25 = CARTESIAN_POINT('',(1.5E+03,3.616077608192,0.));
#26 = SURFACE_CURVE('',#27,(#39),.PCURVE_S1.);
#27 = B_SPLINE_CURVE_WITH_KNOTS('',1,(#28,#29,#30,#31,#32,#33,#34,#35,
    #36,#37,#38),.UNSPECIFIED.,.F.,.F.,(2,1,1,1,1,1,1,1,1,1,2),(0.,
    0.159709621619,0.376845164212,0.482260732872,0.609203670233,
    0.696989994281,0.729088179689,0.821158196021,0.851458583135,
    0.932584678741,1.),.UNSPECIFIED.);
#28 = CARTESIAN_POINT('',(0.,3.447315116989,0.));
#29 = CARTESIAN_POINT('',(239.6085674941,-4.186898137113,0.));
#30 = CARTESIAN_POINT('',(565.34493986411,7.006100474975,0.));
#31 = CARTESIAN_POINT('',(723.53202078345,10.806947671381,0.));
#32 = CARTESIAN_POINT('',(913.80798068701,0.663681779288,0.));
#33 = CARTESIAN_POINT('',(1.045565854842E+03,2.493318942153,0.));
#34 = CARTESIAN_POINT('',(1.093428078429E+03,8.022901784134,0.));
#35 = CARTESIAN_POINT('',(1.231569334113E+03,3.974645696546,0.));
#36 = CARTESIAN_POINT('',(1.277051343409E+03,4.008226505213,0.));
#37 = CARTESIAN_POINT('',(1.398819075705E+03,5.175133067624,0.));
#38 = CARTESIAN_POINT('',(1.5E+03,3.616077608192,0.));
#39 = PCURVE('',#40,#45);
#40 = PLANE('',#41);
#41 = AXIS2_PLACEMENT_3D('',#42,#43,#44);
#42 = CARTESIAN_POINT('',(749.92975317302,75.,0.));
#43 = DIRECTION('',(0.,0.,1.));
#44 = DIRECTION('',(1.,0.,-0.));
#45 = DEFINITIONAL_REPRESENTATION('',(#46),#58);
#46 = B_SPLINE_CURVE_WITH_KNOTS('',1,(#47,#48,#49,#50,#51,#52,#53,#54,
    #55,#56,#57),.UNSPECIFIED.,.F.,.F.,(2,1,1,1,1,1,1,1,1,1,2),(0.,
    0.159709621619,0.376845164212,0.482260732872,0.609203670233,
    0.696989994281,0.729088179689,0.821158196021,0.851458583135,
    0.932584678741,1.),.UNSPECIFIED.);
#47 = CARTESIAN_POINT('',(-749.929753173,-71.55268488301));
#48 = CARTESIAN_POINT('',(-510.3211856789,-79.18689813711));
#49 = CARTESIAN_POINT('',(-184.5848133089,-67.99389952502));
#50 = CARTESIAN_POINT('',(-26.39773238957,-64.19305232861));
#51 = CARTESIAN_POINT('',(163.87822751398,-74.33631822071));
#52 = CARTESIAN_POINT('',(295.63610166857,-72.50668105784));
#53 = CARTESIAN_POINT('',(343.49832525613,-66.97709821586));
#54 = CARTESIAN_POINT('',(481.6395809404,-71.02535430345));
#55 = CARTESIAN_POINT('',(527.12159023569,-70.99177349478));
#56 = CARTESIAN_POINT('',(648.88932253165,-69.82486693237));
#57 = CARTESIAN_POINT('',(750.07024682697,-71.3839223918));
#58 = ( GEOMETRIC_REPRESENTATION_CONTEXT(2) 
PARAMETRIC_REPRESENTATION_CONTEXT() REPRESENTATION_CONTEXT('2D SPACE',''
  ) );
#59 = ORIENTED_EDGE('',*,*,#60,.T.);
#60 = EDGE_CURVE('',#24,#61,#63,.T.);
#61 = VERTEX_POINT('',#62);
#62 = CARTESIAN_POINT('',(1.5E+03,146.3839223918,0.));
#63 = SURFACE_CURVE('',#64,(#68),.PCURVE_S1.);
#64 = LINE('',#65,#66);
#65 = CARTESIAN_POINT('',(1.5E+03,3.616077608192,0.));
#66 = VECTOR('',#67,1.);
#67 = DIRECTION('',(0.,1.,0.));
#68 = PCURVE('',#40,#69);
#69 = DEFINITIONAL_REPRESENTATION('',(#70),#74);
#70 = LINE('',#71,#72);
#71 = CARTESIAN_POINT('',(750.07024682697,-71.3839223918));
#72 = VECTOR('',#73,1.);
#73 = DIRECTION('',(0.,1.));
#74 = ( GEOMETRIC_REPRESENTATION_CONTEXT(2) 
PARAMETRIC_REPRESENTATION_CONTEXT() REPRESENTATION_CONTEXT('2D SPACE',''
  ) );
#75 = ORIENTED_EDGE('',*,*,#76,.T.);
#76 = EDGE_CURVE('',#61,#77,#79,.T.);
#77 = VERTEX_POINT('',#78);
#78 = CARTESIAN_POINT('',(0.,146.55268488301,0.));
#79 = SURFACE_CURVE('',#80,(#92),.PCURVE_S1.);
#80 = B_SPLINE_CURVE_WITH_KNOTS('',1,(#81,#82,#83,#84,#85,#86,#87,#88,
    #89,#90,#91),.UNSPECIFIED.,.F.,.F.,(2,1,1,1,1,1,1,1,1,1,2),(0.,
    6.741532125944E-02,0.148541416865,0.178841803979,0.270911820311,
    0.303010005719,0.390796329767,0.517739267128,0.623154835788,
    0.840290378381,1.),.UNSPECIFIED.);
#81 = CARTESIAN_POINT('',(1.5E+03,146.3839223918,0.));
#82 = CARTESIAN_POINT('',(1.398819075705E+03,144.82486693237,0.));
#83 = CARTESIAN_POINT('',(1.277051343409E+03,145.99177349478,0.));
#84 = CARTESIAN_POINT('',(1.231569334113E+03,146.02535430345,0.));
#85 = CARTESIAN_POINT('',(1.093428078429E+03,141.97709821586,0.));
#86 = CARTESIAN_POINT('',(1.045565854842E+03,147.50668105784,0.));
#87 = CARTESIAN_POINT('',(913.80798068701,149.33631822071,0.));
#88 = CARTESIAN_POINT('',(723.53202078345,139.19305232861,0.));
#89 = CARTESIAN_POINT('',(565.34493986411,142.99389952502,0.));
#90 = CARTESIAN_POINT('',(239.6085674941,154.18689813711,0.));
#91 = CARTESIAN_POINT('',(0.,146.55268488301,0.));
#92 = PCURVE('',#40,#93);
#93 = DEFINITIONAL_REPRESENTATION('',(#94),#106);
#94 = B_SPLINE_CURVE_WITH_KNOTS('',1,(#95,#96,#97,#98,#99,#100,#101,#102
    ,#103,#104,#105),.UNSPECIFIED.,.F.,.F.,(2,1,1,1,1,1,1,1,1,1,2),(0.,
    6.741532125944E-02,0.148541416865,0.178841803979,0.270911820311,
    0.303010005719,0.390796329767,0.517739267128,0.623154835788,
    0.840290378381,1.),.UNSPECIFIED.);
#95 = CARTESIAN_POINT('',(750.07024682697,71.383922391808));
#96 = CARTESIAN_POINT('',(648.88932253165,69.824866932376));
#97 = CARTESIAN_POINT('',(527.12159023569,70.991773494787));
#98 = CARTESIAN_POINT('',(481.6395809404,71.025354303454));
#99 = CARTESIAN_POINT('',(343.49832525613,66.977098215866));
#100 = CARTESIAN_POINT('',(295.63610166857,72.506681057847));
#101 = CARTESIAN_POINT('',(163.87822751398,74.336318220712));
#102 = CARTESIAN_POINT('',(-26.39773238957,64.193052328619));
#103 = CARTESIAN_POINT('',(-184.5848133089,67.993899525025));
#104 = CARTESIAN_POINT('',(-510.3211856789,79.186898137113));
#105 = CARTESIAN_POINT('',(-749.929753173,71.552684883011));
#106 = ( GEOMETRIC_REPRESENTATION_CONTEXT(2) 
PARAMETRIC_REPRESENTATION_CONTEXT() REPRESENTATION_CONTEXT('2D SPACE',''
  ) );
#107 = ORIENTED_EDGE('',*,*,#108,.T.);
#108 = EDGE_CURVE('',#77,#22,#109,.T.);
#109 = SURFACE_CURVE('',#110,(#114),.PCURVE_S1.);
#110 = LINE('',#111,#112);
#111 = CARTESIAN_POINT('',(0.,146.55268488301,0.));
#112 = VECTOR('',#113,1.);
#113 = DIRECTION('',(0.,-1.,0.));
#114 = PCURVE('',#40,#115);
#115 = DEFINITIONAL_REPRESENTATION('',(#116),#120);
#116 = LINE('',#117,#118);
#117 = CARTESIAN_POINT('',(-749.929753173,71.552684883011));
#118 = VECTOR('',#119,1.);
#119 = DIRECTION('',(0.,-1.));
#120 = ( GEOMETRIC_REPRESENTATION_CONTEXT(2) 
PARAMETRIC_REPRESENTATION_CONTEXT() REPRESENTATION_CONTEXT('2D SPACE',''
  ) );
#121 = ( GEOMETRIC_REPRESENTATION_CONTEXT(3) 
GLOBAL_UNCERTAINTY_ASSIGNED_CONTEXT((#125)) GLOBAL_UNIT_ASSIGNED_CONTEXT
((#122,#123,#124)) REPRESENTATION_CONTEXT('Context #1',
  '3D Context with UNIT and UNCERTAINTY') );
#122 = ( LENGTH_UNIT() NAMED_UNIT(*) SI_UNIT(.MILLI.,.METRE.) );
#123 = ( NAMED_UNIT(*) PLANE_ANGLE_UNIT() SI_UNIT($,.RADIAN.) );
#124 = ( NAMED_UNIT(*) SI_UNIT($,.STERADIAN.) SOLID_ANGLE_UNIT() );
#125 = UNCERTAINTY_MEASURE_WITH_UNIT(LENGTH_MEASURE(1.E-07),#122,
  'distance_accuracy_value','confusion accuracy');
#126 = PRODUCT_RELATED_PRODUCT_CATEGORY('part',$,(#7));
ENDSEC;
END-ISO-10303-21;
