ISO-10303-21;
HEADER;
FILE_DESCRIPTION(('Open CASCADE Model'),'2;1');
FILE_NAME('Open CASCADE Shape Model','2026-06-02T12:09:04',('Author'),(
    'Open CASCADE'),'Open CASCADE STEP processor 7.9','Open CASCADE 7.9'
  ,'Unknown');
FILE_SCHEMA(('AUTOMOTIVE_DESIGN { 1 0 10303 214 1 1 1 1 }'));
ENDSEC;
DATA;
#1 = APPLICATION_PROTOCOL_DEFINITION('international standard',
  'automotive_design',2000,#2);
#2 = APPLICATION_CONTEXT(
  'core data for automotive mechanical design processes');
#3 = SHAPE_DEFINITION_REPRESENTATION(#4,#10);
#4 = PRODUCT_DEFINITION_SHAPE('','',#5);
#5 = PRODUCT_DEFINITION('design','',#6,#9);
#6 = PRODUCT_DEFINITION_FORMATION('','',#7);
#7 = PRODUCT('Open CASCADE STEP translator 7.9 29',
  'Open CASCADE STEP translator 7.9 29','',(#8));
#8 = PRODUCT_CONTEXT('',#2,'mechanical');
#9 = PRODUCT_DEFINITION_CONTEXT('part definition',#2,'design');
#10 = MANIFOLD_SURFACE_SHAPE_REPRESENTATION('',(#11,#15),#121);
#11 = AXIS2_PLACEMENT_3D('',#12,#13,#14);
#12 = CARTESIAN_POINT('',(0.,0.,0.));
#13 = DIRECTION('',(0.,0.,1.));
#14 = DIRECTION('',(1.,0.,-0.));
#15 = SHELL_BASED_SURFACE_MODEL('',(#16));
#16 = OPEN_SHELL('',(#17));
#17 = ADVANCED_FACE('',(#18),#40,.T.);
#18 = FACE_BOUND('',#19,.T.);
#19 = EDGE_LOOP('',(#20,#59,#75,#107));
#20 = ORIENTED_EDGE('',*,*,#21,.T.);
#21 = EDGE_CURVE('',#22,#24,#26,.T.);
#22 = VERTEX_POINT('',#23);
#23 = CARTESIAN_POINT('',(0.,-6.972405089814,0.));
#24 = VERTEX_POINT('',#25);
#25 = CARTESIAN_POINT('',(1.5E+03,11.283906754073,0.));
#26 = SURFACE_CURVE('',#27,(#39),.PCURVE_S1.);
#27 = B_SPLINE_CURVE_WITH_KNOTS('',1,(#28,#29,#30,#31,#32,#33,#34,#35,
    #36,#37,#38),.UNSPECIFIED.,.F.,.F.,(2,1,1,1,1,1,1,1,1,1,2),(0.,
    9.536986034024E-02,0.149597770042,0.243385151532,0.29951711943,
    0.371276731873,0.489456292779,0.732092948706,0.779312072224,
    0.973983788514,1.),.UNSPECIFIED.);
#28 = CARTESIAN_POINT('',(0.,-6.972405089814,0.));
#29 = CARTESIAN_POINT('',(143.09243807101,1.797339014179,0.));
#30 = CARTESIAN_POINT('',(224.5378322452,-1.593114072338,0.));
#31 = CARTESIAN_POINT('',(365.48739392285,-4.623072284471,0.));
#32 = CARTESIAN_POINT('',(449.33226382863,-14.09445350116,0.));
#33 = CARTESIAN_POINT('',(557.20111806529,-14.53734244294,0.));
#34 = CARTESIAN_POINT('',(733.61723108545,6.353152635363,0.));
#35 = CARTESIAN_POINT('',(1.098106088594E+03,-7.012604923137,0.));
#36 = CARTESIAN_POINT('',(1.169084674891E+03,-7.499506138058,0.));
#37 = CARTESIAN_POINT('',(1.461466673207E+03,4.605214160609,0.));
#38 = CARTESIAN_POINT('',(1.5E+03,11.283906754073,0.));
#39 = PCURVE('',#40,#45);
#40 = PLANE('',#41);
#41 = AXIS2_PLACEMENT_3D('',#42,#43,#44);
#42 = CARTESIAN_POINT('',(741.72883363063,75.,0.));
#43 = DIRECTION('',(0.,0.,1.));
#44 = DIRECTION('',(1.,0.,-0.));
#45 = DEFINITIONAL_REPRESENTATION('',(#46),#58);
#46 = B_SPLINE_CURVE_WITH_KNOTS('',1,(#47,#48,#49,#50,#51,#52,#53,#54,
    #55,#56,#57),.UNSPECIFIED.,.F.,.F.,(2,1,1,1,1,1,1,1,1,1,2),(0.,
    9.536986034024E-02,0.149597770042,0.243385151532,0.29951711943,
    0.371276731873,0.489456292779,0.732092948706,0.779312072224,
    0.973983788514,1.),.UNSPECIFIED.);
#47 = CARTESIAN_POINT('',(-741.7288336306,-81.97240508981));
#48 = CARTESIAN_POINT('',(-598.6363955596,-73.20266098582));
#49 = CARTESIAN_POINT('',(-517.1910013854,-76.59311407233));
#50 = CARTESIAN_POINT('',(-376.2414397077,-79.62307228447));
#51 = CARTESIAN_POINT('',(-292.3965698019,-89.09445350116));
#52 = CARTESIAN_POINT('',(-184.5277155653,-89.53734244294));
#53 = CARTESIAN_POINT('',(-8.111602545179,-68.64684736463));
#54 = CARTESIAN_POINT('',(356.37725496343,-82.01260492313));
#55 = CARTESIAN_POINT('',(427.35584126045,-82.49950613805));
#56 = CARTESIAN_POINT('',(719.73783957632,-70.39478583939));
#57 = CARTESIAN_POINT('',(758.27116636936,-63.71609324592));
#58 = ( GEOMETRIC_REPRESENTATION_CONTEXT(2) 
PARAMETRIC_REPRESENTATION_CONTEXT() REPRESENTATION_CONTEXT('2D SPACE',''
  ) );
#59 = ORIENTED_EDGE('',*,*,#60,.T.);
#60 = EDGE_CURVE('',#24,#61,#63,.T.);
#61 = VERTEX_POINT('',#62);
#62 = CARTESIAN_POINT('',(1.5E+03,138.71609324592,0.));
#63 = SURFACE_CURVE('',#64,(#68),.PCURVE_S1.);
#64 = LINE('',#65,#66);
#65 = CARTESIAN_POINT('',(1.5E+03,11.283906754073,0.));
#66 = VECTOR('',#67,1.);
#67 = DIRECTION('',(0.,1.,0.));
#68 = PCURVE('',#40,#69);
#69 = DEFINITIONAL_REPRESENTATION('',(#70),#74);
#70 = LINE('',#71,#72);
#71 = CARTESIAN_POINT('',(758.27116636936,-63.71609324592));
#72 = VECTOR('',#73,1.);
#73 = DIRECTION('',(0.,1.));
#74 = ( GEOMETRIC_REPRESENTATION_CONTEXT(2) 
PARAMETRIC_REPRESENTATION_CONTEXT() REPRESENTATION_CONTEXT('2D SPACE',''
  ) );
#75 = ORIENTED_EDGE('',*,*,#76,.T.);
#76 = EDGE_CURVE('',#61,#77,#79,.T.);
#77 = VERTEX_POINT('',#78);
#78 = CARTESIAN_POINT('',(0.,156.97240508981,0.));
#79 = SURFACE_CURVE('',#80,(#92),.PCURVE_S1.);
#80 = B_SPLINE_CURVE_WITH_KNOTS('',1,(#81,#82,#83,#84,#85,#86,#87,#88,
    #89,#90,#91),.UNSPECIFIED.,.F.,.F.,(2,1,1,1,1,1,1,1,1,1,2),(0.,
    2.601621148565E-02,0.220687927776,0.267907051294,0.510543707221,
    0.628723268127,0.70048288057,0.756614848468,0.850402229958,
    0.90463013966,1.),.UNSPECIFIED.);
#81 = CARTESIAN_POINT('',(1.5E+03,138.71609324592,0.));
#82 = CARTESIAN_POINT('',(1.461466673207E+03,145.39478583939,0.));
#83 = CARTESIAN_POINT('',(1.169084674891E+03,157.49950613805,0.));
#84 = CARTESIAN_POINT('',(1.098106088594E+03,157.01260492313,0.));
#85 = CARTESIAN_POINT('',(733.61723108545,143.64684736463,0.));
#86 = CARTESIAN_POINT('',(557.20111806529,164.53734244294,0.));
#87 = CARTESIAN_POINT('',(449.33226382863,164.09445350116,0.));
#88 = CARTESIAN_POINT('',(365.48739392285,154.62307228447,0.));
#89 = CARTESIAN_POINT('',(224.5378322452,151.59311407233,0.));
#90 = CARTESIAN_POINT('',(143.09243807101,148.20266098582,0.));
#91 = CARTESIAN_POINT('',(0.,156.97240508981,0.));
#92 = PCURVE('',#40,#93);
#93 = DEFINITIONAL_REPRESENTATION('',(#94),#106);
#94 = B_SPLINE_CURVE_WITH_KNOTS('',1,(#95,#96,#97,#98,#99,#100,#101,#102
    ,#103,#104,#105),.UNSPECIFIED.,.F.,.F.,(2,1,1,1,1,1,1,1,1,1,2),(0.,
    2.601621148565E-02,0.220687927776,0.267907051294,0.510543707221,
    0.628723268127,0.70048288057,0.756614848468,0.850402229958,
    0.90463013966,1.),.UNSPECIFIED.);
#95 = CARTESIAN_POINT('',(758.27116636936,63.716093245927));
#96 = CARTESIAN_POINT('',(719.73783957632,70.394785839391));
#97 = CARTESIAN_POINT('',(427.35584126045,82.499506138058));
#98 = CARTESIAN_POINT('',(356.37725496343,82.012604923137));
#99 = CARTESIAN_POINT('',(-8.111602545179,68.646847364637));
#100 = CARTESIAN_POINT('',(-184.5277155653,89.537342442949));
#101 = CARTESIAN_POINT('',(-292.3965698019,89.094453501167));
#102 = CARTESIAN_POINT('',(-376.2414397077,79.623072284471));
#103 = CARTESIAN_POINT('',(-517.1910013854,76.593114072338));
#104 = CARTESIAN_POINT('',(-598.6363955596,73.202660985821));
#105 = CARTESIAN_POINT('',(-741.7288336306,81.972405089814));
#106 = ( GEOMETRIC_REPRESENTATION_CONTEXT(2) 
PARAMETRIC_REPRESENTATION_CONTEXT() REPRESENTATION_CONTEXT('2D SPACE',''
  ) );
#107 = ORIENTED_EDGE('',*,*,#108,.T.);
#108 = EDGE_CURVE('',#77,#22,#109,.T.);
#109 = SURFACE_CURVE('',#110,(#114),.PCURVE_S1.);
#110 = LINE('',#111,#112);
#111 = CARTESIAN_POINT('',(0.,156.97240508981,0.));
#112 = VECTOR('',#113,1.);
#113 = DIRECTION('',(0.,-1.,0.));
#114 = PCURVE('',#40,#115);
#115 = DEFINITIONAL_REPRESENTATION('',(#116),#120);
#116 = LINE('',#117,#118);
#117 = CARTESIAN_POINT('',(-741.7288336306,81.972405089814));
#118 = VECTOR('',#119,1.);
#119 = DIRECTION('',(0.,-1.));
#120 = ( GEOMETRIC_REPRESENTATION_CONTEXT(2) 
PARAMETRIC_REPRESENTATION_CONTEXT() REPRESENTATION_CONTEXT('2D SPACE',''
  ) );
#121 = ( GEOMETRIC_REPRESENTATION_CONTEXT(3) 
GLOBAL_UNCERTAINTY_ASSIGNED_CONTEXT((#125)) GLOBAL_UNIT_ASSIGNED_CONTEXT
((#122,#123,#124)) REPRESENTATION_CONTEXT('Context #1',
  '3D Context with UNIT and UNCERTAINTY') );
#122 = ( LENGTH_UNIT() NAMED_UNIT(*) SI_UNIT(.MILLI.,.METRE.) );
#123 = ( NAMED_UNIT(*) PLANE_ANGLE_UNIT() SI_UNIT($,.RADIAN.) );
#124 = ( NAMED_UNIT(*) SI_UNIT($,.STERADIAN.) SOLID_ANGLE_UNIT() );
#125 = UNCERTAINTY_MEASURE_WITH_UNIT(LENGTH_MEASURE(1.E-07),#122,
  'distance_accuracy_value','confusion accuracy');
#126 = PRODUCT_RELATED_PRODUCT_CATEGORY('part',$,(#7));
ENDSEC;
END-ISO-10303-21;
