ISO-10303-21;
HEADER;
FILE_DESCRIPTION(('Open CASCADE Model'),'2;1');
FILE_NAME('Open CASCADE Shape Model','2026-06-02T12:09:04',('Author'),(
    'Open CASCADE'),'Open CASCADE STEP processor 7.9','Open CASCADE 7.9'
  ,'Unknown');
FILE_SCHEMA(('AUTOMOTIVE_DESIGN { 1 0 10303 214 1 1 1 1 }'));
ENDSEC;
DATA;
#1 = APPLICATION_PROTOCOL_DEFINITION('international standard',
  'automotive_design',2000,#2);
#2 = APPLICATION_CONTEXT(
  'core data for automotive mechanical design processes');
#3 = SHAPE_DEFINITION_REPRESENTATION(#4,#10);
#4 = PRODUCT_DEFINITION_SHAPE('','',#5);
#5 = PRODUCT_DEFINITION('design','',#6,#9);
#6 = PRODUCT_DEFINITION_FORMATION('','',#7);
#7 = PRODUCT('Open CASCADE STEP translator 7.9 57',
  'Open CASCADE STEP translator 7.9 57','',(#8));
#8 = PRODUCT_CONTEXT('',#2,'mechanical');
#9 = PRODUCT_DEFINITION_CONTEXT('part definition',#2,'design');
#10 = MANIFOLD_SURFACE_SHAPE_REPRESENTATION('',(#11,#15),#121);
#11 = AXIS2_PLACEMENT_3D('',#12,#13,#14);
#12 = CARTESIAN_POINT('',(0.,0.,0.));
#13 = DIRECTION('',(0.,0.,1.));
#14 = DIRECTION('',(1.,0.,-0.));
#15 = SHELL_BASED_SURFACE_MODEL('',(#16));
#16 = OPEN_SHELL('',(#17));
#17 = ADVANCED_FACE('',(#18),#40,.T.);
#18 = FACE_BOUND('',#19,.T.);
#19 = EDGE_LOOP('',(#20,#59,#75,#107));
#20 = ORIENTED_EDGE('',*,*,#21,.T.);
#21 = EDGE_CURVE('',#22,#24,#26,.T.);
#22 = VERTEX_POINT('',#23);
#23 = CARTESIAN_POINT('',(0.,0.414237731332,0.));
#24 = VERTEX_POINT('',#25);
#25 = CARTESIAN_POINT('',(1.5E+03,-1.922854111417,0.));
#26 = SURFACE_CURVE('',#27,(#39),.PCURVE_S1.);
#27 = B_SPLINE_CURVE_WITH_KNOTS('',1,(#28,#29,#30,#31,#32,#33,#34,#35,
    #36,#37,#38),.UNSPECIFIED.,.F.,.F.,(2,1,1,1,1,1,1,1,1,1,2),(0.,
    0.147303124004,0.215657130648,0.315777814487,0.37469979232,
    0.433960470104,0.776444855839,0.907500275839,0.93096431778,
    0.959695259526,1.),.UNSPECIFIED.);
#28 = CARTESIAN_POINT('',(0.,0.414237731332,0.));
#29 = CARTESIAN_POINT('',(221.2521538217,7.19446033971,0.));
#30 = CARTESIAN_POINT('',(323.85931787288,2.440317380556,0.));
#31 = CARTESIAN_POINT('',(473.96849246115,-7.737309561986,0.));
#32 = CARTESIAN_POINT('',(562.48800355169,-9.798344539738,0.));
#33 = CARTESIAN_POINT('',(651.18386200426,-1.836692036701,0.));
#34 = CARTESIAN_POINT('',(1.165816511608E+03,3.438915574287,0.));
#35 = CARTESIAN_POINT('',(1.36272665769E+03,6.879097155147,0.));
#36 = CARTESIAN_POINT('',(1.397171771864E+03,-0.657554123078,0.));
#37 = CARTESIAN_POINT('',(1.43989678692E+03,5.557511443069,0.));
#38 = CARTESIAN_POINT('',(1.5E+03,-1.922854111417,0.));
#39 = PCURVE('',#40,#45);
#40 = PLANE('',#41);
#41 = AXIS2_PLACEMENT_3D('',#42,#43,#44);
#42 = CARTESIAN_POINT('',(751.58610297345,75.,0.));
#43 = DIRECTION('',(0.,0.,1.));
#44 = DIRECTION('',(1.,0.,-0.));
#45 = DEFINITIONAL_REPRESENTATION('',(#46),#58);
#46 = B_SPLINE_CURVE_WITH_KNOTS('',1,(#47,#48,#49,#50,#51,#52,#53,#54,
    #55,#56,#57),.UNSPECIFIED.,.F.,.F.,(2,1,1,1,1,1,1,1,1,1,2),(0.,
    0.147303124004,0.215657130648,0.315777814487,0.37469979232,
    0.433960470104,0.776444855839,0.907500275839,0.93096431778,
    0.959695259526,1.),.UNSPECIFIED.);
#47 = CARTESIAN_POINT('',(-751.5861029734,-74.58576226866));
#48 = CARTESIAN_POINT('',(-530.3339491517,-67.80553966029));
#49 = CARTESIAN_POINT('',(-427.7267851005,-72.55968261944));
#50 = CARTESIAN_POINT('',(-277.6176105123,-82.73730956198));
#51 = CARTESIAN_POINT('',(-189.0980994217,-84.79834453973));
#52 = CARTESIAN_POINT('',(-100.4022409691,-76.8366920367));
#53 = CARTESIAN_POINT('',(414.23040863473,-71.56108442571));
#54 = CARTESIAN_POINT('',(611.14055471701,-68.12090284485));
#55 = CARTESIAN_POINT('',(645.58566889044,-75.65755412307));
#56 = CARTESIAN_POINT('',(688.31068394637,-69.44248855693));
#57 = CARTESIAN_POINT('',(748.41389702654,-76.92285411141));
#58 = ( GEOMETRIC_REPRESENTATION_CONTEXT(2) 
PARAMETRIC_REPRESENTATION_CONTEXT() REPRESENTATION_CONTEXT('2D SPACE',''
  ) );
#59 = ORIENTED_EDGE('',*,*,#60,.T.);
#60 = EDGE_CURVE('',#24,#61,#63,.T.);
#61 = VERTEX_POINT('',#62);
#62 = CARTESIAN_POINT('',(1.5E+03,151.92285411141,0.));
#63 = SURFACE_CURVE('',#64,(#68),.PCURVE_S1.);
#64 = LINE('',#65,#66);
#65 = CARTESIAN_POINT('',(1.5E+03,-1.922854111417,0.));
#66 = VECTOR('',#67,1.);
#67 = DIRECTION('',(0.,1.,0.));
#68 = PCURVE('',#40,#69);
#69 = DEFINITIONAL_REPRESENTATION('',(#70),#74);
#70 = LINE('',#71,#72);
#71 = CARTESIAN_POINT('',(748.41389702654,-76.92285411141));
#72 = VECTOR('',#73,1.);
#73 = DIRECTION('',(0.,1.));
#74 = ( GEOMETRIC_REPRESENTATION_CONTEXT(2) 
PARAMETRIC_REPRESENTATION_CONTEXT() REPRESENTATION_CONTEXT('2D SPACE',''
  ) );
#75 = ORIENTED_EDGE('',*,*,#76,.T.);
#76 = EDGE_CURVE('',#61,#77,#79,.T.);
#77 = VERTEX_POINT('',#78);
#78 = CARTESIAN_POINT('',(0.,149.58576226866,0.));
#79 = SURFACE_CURVE('',#80,(#92),.PCURVE_S1.);
#80 = B_SPLINE_CURVE_WITH_KNOTS('',1,(#81,#82,#83,#84,#85,#86,#87,#88,
    #89,#90,#91),.UNSPECIFIED.,.F.,.F.,(2,1,1,1,1,1,1,1,1,1,2),(0.,
    4.030474047397E-02,6.903568222044E-02,9.249972416081E-02,
    0.223555144161,0.566039529896,0.62530020768,0.684222185513,
    0.784342869352,0.852696875996,1.),.UNSPECIFIED.);
#81 = CARTESIAN_POINT('',(1.5E+03,151.92285411141,0.));
#82 = CARTESIAN_POINT('',(1.43989678692E+03,144.44248855693,0.));
#83 = CARTESIAN_POINT('',(1.397171771864E+03,150.65755412307,0.));
#84 = CARTESIAN_POINT('',(1.36272665769E+03,143.12090284485,0.));
#85 = CARTESIAN_POINT('',(1.165816511608E+03,146.56108442571,0.));
#86 = CARTESIAN_POINT('',(651.18386200426,151.8366920367,0.));
#87 = CARTESIAN_POINT('',(562.48800355169,159.79834453973,0.));
#88 = CARTESIAN_POINT('',(473.96849246115,157.73730956198,0.));
#89 = CARTESIAN_POINT('',(323.85931787288,147.55968261944,0.));
#90 = CARTESIAN_POINT('',(221.2521538217,142.80553966029,0.));
#91 = CARTESIAN_POINT('',(0.,149.58576226866,0.));
#92 = PCURVE('',#40,#93);
#93 = DEFINITIONAL_REPRESENTATION('',(#94),#106);
#94 = B_SPLINE_CURVE_WITH_KNOTS('',1,(#95,#96,#97,#98,#99,#100,#101,#102
    ,#103,#104,#105),.UNSPECIFIED.,.F.,.F.,(2,1,1,1,1,1,1,1,1,1,2),(0.,
    4.030474047397E-02,6.903568222044E-02,9.249972416081E-02,
    0.223555144161,0.566039529896,0.62530020768,0.684222185513,
    0.784342869352,0.852696875996,1.),.UNSPECIFIED.);
#95 = CARTESIAN_POINT('',(748.41389702654,76.922854111417));
#96 = CARTESIAN_POINT('',(688.31068394637,69.442488556931));
#97 = CARTESIAN_POINT('',(645.58566889044,75.657554123078));
#98 = CARTESIAN_POINT('',(611.14055471701,68.120902844853));
#99 = CARTESIAN_POINT('',(414.23040863473,71.561084425713));
#100 = CARTESIAN_POINT('',(-100.4022409691,76.836692036701));
#101 = CARTESIAN_POINT('',(-189.0980994217,84.798344539738));
#102 = CARTESIAN_POINT('',(-277.6176105123,82.737309561986));
#103 = CARTESIAN_POINT('',(-427.7267851005,72.559682619444));
#104 = CARTESIAN_POINT('',(-530.3339491517,67.80553966029));
#105 = CARTESIAN_POINT('',(-751.5861029734,74.585762268668));
#106 = ( GEOMETRIC_REPRESENTATION_CONTEXT(2) 
PARAMETRIC_REPRESENTATION_CONTEXT() REPRESENTATION_CONTEXT('2D SPACE',''
  ) );
#107 = ORIENTED_EDGE('',*,*,#108,.T.);
#108 = EDGE_CURVE('',#77,#22,#109,.T.);
#109 = SURFACE_CURVE('',#110,(#114),.PCURVE_S1.);
#110 = LINE('',#111,#112);
#111 = CARTESIAN_POINT('',(0.,149.58576226866,0.));
#112 = VECTOR('',#113,1.);
#113 = DIRECTION('',(0.,-1.,0.));
#114 = PCURVE('',#40,#115);
#115 = DEFINITIONAL_REPRESENTATION('',(#116),#120);
#116 = LINE('',#117,#118);
#117 = CARTESIAN_POINT('',(-751.5861029734,74.585762268668));
#118 = VECTOR('',#119,1.);
#119 = DIRECTION('',(0.,-1.));
#120 = ( GEOMETRIC_REPRESENTATION_CONTEXT(2) 
PARAMETRIC_REPRESENTATION_CONTEXT() REPRESENTATION_CONTEXT('2D SPACE',''
  ) );
#121 = ( GEOMETRIC_REPRESENTATION_CONTEXT(3) 
GLOBAL_UNCERTAINTY_ASSIGNED_CONTEXT((#125)) GLOBAL_UNIT_ASSIGNED_CONTEXT
((#122,#123,#124)) REPRESENTATION_CONTEXT('Context #1',
  '3D Context with UNIT and UNCERTAINTY') );
#122 = ( LENGTH_UNIT() NAMED_UNIT(*) SI_UNIT(.MILLI.,.METRE.) );
#123 = ( NAMED_UNIT(*) PLANE_ANGLE_UNIT() SI_UNIT($,.RADIAN.) );
#124 = ( NAMED_UNIT(*) SI_UNIT($,.STERADIAN.) SOLID_ANGLE_UNIT() );
#125 = UNCERTAINTY_MEASURE_WITH_UNIT(LENGTH_MEASURE(1.E-07),#122,
  'distance_accuracy_value','confusion accuracy');
#126 = PRODUCT_RELATED_PRODUCT_CATEGORY('part',$,(#7));
ENDSEC;
END-ISO-10303-21;
