ISO-10303-21;
HEADER;
FILE_DESCRIPTION(('Open CASCADE Model'),'2;1');
FILE_NAME('Open CASCADE Shape Model','2026-06-02T12:09:04',('Author'),(
    'Open CASCADE'),'Open CASCADE STEP processor 7.9','Open CASCADE 7.9'
  ,'Unknown');
FILE_SCHEMA(('AUTOMOTIVE_DESIGN { 1 0 10303 214 1 1 1 1 }'));
ENDSEC;
DATA;
#1 = APPLICATION_PROTOCOL_DEFINITION('international standard',
  'automotive_design',2000,#2);
#2 = APPLICATION_CONTEXT(
  'core data for automotive mechanical design processes');
#3 = SHAPE_DEFINITION_REPRESENTATION(#4,#10);
#4 = PRODUCT_DEFINITION_SHAPE('','',#5);
#5 = PRODUCT_DEFINITION('design','',#6,#9);
#6 = PRODUCT_DEFINITION_FORMATION('','',#7);
#7 = PRODUCT('Open CASCADE STEP translator 7.9 100',
  'Open CASCADE STEP translator 7.9 100','',(#8));
#8 = PRODUCT_CONTEXT('',#2,'mechanical');
#9 = PRODUCT_DEFINITION_CONTEXT('part definition',#2,'design');
#10 = MANIFOLD_SURFACE_SHAPE_REPRESENTATION('',(#11,#15),#121);
#11 = AXIS2_PLACEMENT_3D('',#12,#13,#14);
#12 = CARTESIAN_POINT('',(0.,0.,0.));
#13 = DIRECTION('',(0.,0.,1.));
#14 = DIRECTION('',(1.,0.,-0.));
#15 = SHELL_BASED_SURFACE_MODEL('',(#16));
#16 = OPEN_SHELL('',(#17));
#17 = ADVANCED_FACE('',(#18),#40,.T.);
#18 = FACE_BOUND('',#19,.T.);
#19 = EDGE_LOOP('',(#20,#59,#75,#107));
#20 = ORIENTED_EDGE('',*,*,#21,.T.);
#21 = EDGE_CURVE('',#22,#24,#26,.T.);
#22 = VERTEX_POINT('',#23);
#23 = CARTESIAN_POINT('',(0.,6.619355634188,0.));
#24 = VERTEX_POINT('',#25);
#25 = CARTESIAN_POINT('',(1.5E+03,-14.72429296653,0.));
#26 = SURFACE_CURVE('',#27,(#39),.PCURVE_S1.);
#27 = B_SPLINE_CURVE_WITH_KNOTS('',1,(#28,#29,#30,#31,#32,#33,#34,#35,
    #36,#37,#38),.UNSPECIFIED.,.F.,.F.,(2,1,1,1,1,1,1,1,1,1,2),(0.,
    0.145971134553,0.508565022665,0.538538600454,0.61140752509,
    0.672868062963,0.710399047769,0.781245970072,0.8759758438,
    0.973496926206,1.),.UNSPECIFIED.);
#28 = CARTESIAN_POINT('',(0.,6.619355634188,0.));
#29 = CARTESIAN_POINT('',(219.26210425811,9.211747905196,0.));
#30 = CARTESIAN_POINT('',(763.92114204189,3.641372176964,0.));
#31 = CARTESIAN_POINT('',(808.94693818195,3.444967879321,0.));
#32 = CARTESIAN_POINT('',(918.40167266761,4.829767781914,0.));
#33 = CARTESIAN_POINT('',(1.010726921522E+03,5.162283494079,0.));
#34 = CARTESIAN_POINT('',(1.066651180518E+03,12.308061667762,0.));
#35 = CARTESIAN_POINT('',(1.173059621971E+03,14.243851586215,0.));
#36 = CARTESIAN_POINT('',(1.315263568965E+03,8.936570995306,0.));
#37 = CARTESIAN_POINT('',(1.460811806362E+03,-7.699482822498,0.));
#38 = CARTESIAN_POINT('',(1.5E+03,-14.72429296653,0.));
#39 = PCURVE('',#40,#45);
#40 = PLANE('',#41);
#41 = AXIS2_PLACEMENT_3D('',#42,#43,#44);
#42 = CARTESIAN_POINT('',(760.38322423594,75.,0.));
#43 = DIRECTION('',(0.,0.,1.));
#44 = DIRECTION('',(1.,0.,-0.));
#45 = DEFINITIONAL_REPRESENTATION('',(#46),#58);
#46 = B_SPLINE_CURVE_WITH_KNOTS('',1,(#47,#48,#49,#50,#51,#52,#53,#54,
    #55,#56,#57),.UNSPECIFIED.,.F.,.F.,(2,1,1,1,1,1,1,1,1,1,2),(0.,
    0.145971134553,0.508565022665,0.538538600454,0.61140752509,
    0.672868062963,0.710399047769,0.781245970072,0.8759758438,
    0.973496926206,1.),.UNSPECIFIED.);
#47 = CARTESIAN_POINT('',(-760.3832242359,-68.38064436581));
#48 = CARTESIAN_POINT('',(-541.1211199778,-65.7882520948));
#49 = CARTESIAN_POINT('',(3.537917805948,-71.35862782303));
#50 = CARTESIAN_POINT('',(48.563713946008,-71.55503212067));
#51 = CARTESIAN_POINT('',(158.01844843166,-70.17023221808));
#52 = CARTESIAN_POINT('',(250.3436972864,-69.83771650592));
#53 = CARTESIAN_POINT('',(306.26795628172,-62.69193833223));
#54 = CARTESIAN_POINT('',(412.67639773519,-60.75614841378));
#55 = CARTESIAN_POINT('',(554.88034472897,-66.06342900469));
#56 = CARTESIAN_POINT('',(700.42858212612,-82.69948282249));
#57 = CARTESIAN_POINT('',(739.61677576405,-89.72429296653));
#58 = ( GEOMETRIC_REPRESENTATION_CONTEXT(2) 
PARAMETRIC_REPRESENTATION_CONTEXT() REPRESENTATION_CONTEXT('2D SPACE',''
  ) );
#59 = ORIENTED_EDGE('',*,*,#60,.T.);
#60 = EDGE_CURVE('',#24,#61,#63,.T.);
#61 = VERTEX_POINT('',#62);
#62 = CARTESIAN_POINT('',(1.5E+03,164.72429296653,0.));
#63 = SURFACE_CURVE('',#64,(#68),.PCURVE_S1.);
#64 = LINE('',#65,#66);
#65 = CARTESIAN_POINT('',(1.5E+03,-14.72429296653,0.));
#66 = VECTOR('',#67,1.);
#67 = DIRECTION('',(0.,1.,0.));
#68 = PCURVE('',#40,#69);
#69 = DEFINITIONAL_REPRESENTATION('',(#70),#74);
#70 = LINE('',#71,#72);
#71 = CARTESIAN_POINT('',(739.61677576405,-89.72429296653));
#72 = VECTOR('',#73,1.);
#73 = DIRECTION('',(0.,1.));
#74 = ( GEOMETRIC_REPRESENTATION_CONTEXT(2) 
PARAMETRIC_REPRESENTATION_CONTEXT() REPRESENTATION_CONTEXT('2D SPACE',''
  ) );
#75 = ORIENTED_EDGE('',*,*,#76,.T.);
#76 = EDGE_CURVE('',#61,#77,#79,.T.);
#77 = VERTEX_POINT('',#78);
#78 = CARTESIAN_POINT('',(0.,143.38064436581,0.));
#79 = SURFACE_CURVE('',#80,(#92),.PCURVE_S1.);
#80 = B_SPLINE_CURVE_WITH_KNOTS('',1,(#81,#82,#83,#84,#85,#86,#87,#88,
    #89,#90,#91),.UNSPECIFIED.,.F.,.F.,(2,1,1,1,1,1,1,1,1,1,2),(0.,
    2.650307379355E-02,0.1240241562,0.218754029928,0.289600952231,
    0.327131937037,0.38859247491,0.461461399546,0.491434977335,
    0.854028865447,1.),.UNSPECIFIED.);
#81 = CARTESIAN_POINT('',(1.5E+03,164.72429296653,0.));
#82 = CARTESIAN_POINT('',(1.460811806362E+03,157.69948282249,0.));
#83 = CARTESIAN_POINT('',(1.315263568965E+03,141.06342900469,0.));
#84 = CARTESIAN_POINT('',(1.173059621971E+03,135.75614841378,0.));
#85 = CARTESIAN_POINT('',(1.066651180518E+03,137.69193833223,0.));
#86 = CARTESIAN_POINT('',(1.010726921522E+03,144.83771650592,0.));
#87 = CARTESIAN_POINT('',(918.40167266761,145.17023221808,0.));
#88 = CARTESIAN_POINT('',(808.94693818195,146.55503212067,0.));
#89 = CARTESIAN_POINT('',(763.92114204189,146.35862782303,0.));
#90 = CARTESIAN_POINT('',(219.26210425811,140.7882520948,0.));
#91 = CARTESIAN_POINT('',(0.,143.38064436581,0.));
#92 = PCURVE('',#40,#93);
#93 = DEFINITIONAL_REPRESENTATION('',(#94),#106);
#94 = B_SPLINE_CURVE_WITH_KNOTS('',1,(#95,#96,#97,#98,#99,#100,#101,#102
    ,#103,#104,#105),.UNSPECIFIED.,.F.,.F.,(2,1,1,1,1,1,1,1,1,1,2),(0.,
    2.650307379355E-02,0.1240241562,0.218754029928,0.289600952231,
    0.327131937037,0.38859247491,0.461461399546,0.491434977335,
    0.854028865447,1.),.UNSPECIFIED.);
#95 = CARTESIAN_POINT('',(739.61677576405,89.724292966534));
#96 = CARTESIAN_POINT('',(700.42858212612,82.699482822498));
#97 = CARTESIAN_POINT('',(554.88034472897,66.063429004694));
#98 = CARTESIAN_POINT('',(412.67639773519,60.756148413785));
#99 = CARTESIAN_POINT('',(306.26795628172,62.691938332238));
#100 = CARTESIAN_POINT('',(250.3436972864,69.837716505921));
#101 = CARTESIAN_POINT('',(158.01844843166,70.170232218086));
#102 = CARTESIAN_POINT('',(48.563713946008,71.555032120679));
#103 = CARTESIAN_POINT('',(3.537917805948,71.358627823036));
#104 = CARTESIAN_POINT('',(-541.1211199778,65.788252094804));
#105 = CARTESIAN_POINT('',(-760.3832242359,68.380644365812));
#106 = ( GEOMETRIC_REPRESENTATION_CONTEXT(2) 
PARAMETRIC_REPRESENTATION_CONTEXT() REPRESENTATION_CONTEXT('2D SPACE',''
  ) );
#107 = ORIENTED_EDGE('',*,*,#108,.T.);
#108 = EDGE_CURVE('',#77,#22,#109,.T.);
#109 = SURFACE_CURVE('',#110,(#114),.PCURVE_S1.);
#110 = LINE('',#111,#112);
#111 = CARTESIAN_POINT('',(0.,143.38064436581,0.));
#112 = VECTOR('',#113,1.);
#113 = DIRECTION('',(0.,-1.,0.));
#114 = PCURVE('',#40,#115);
#115 = DEFINITIONAL_REPRESENTATION('',(#116),#120);
#116 = LINE('',#117,#118);
#117 = CARTESIAN_POINT('',(-760.3832242359,68.380644365812));
#118 = VECTOR('',#119,1.);
#119 = DIRECTION('',(0.,-1.));
#120 = ( GEOMETRIC_REPRESENTATION_CONTEXT(2) 
PARAMETRIC_REPRESENTATION_CONTEXT() REPRESENTATION_CONTEXT('2D SPACE',''
  ) );
#121 = ( GEOMETRIC_REPRESENTATION_CONTEXT(3) 
GLOBAL_UNCERTAINTY_ASSIGNED_CONTEXT((#125)) GLOBAL_UNIT_ASSIGNED_CONTEXT
((#122,#123,#124)) REPRESENTATION_CONTEXT('Context #1',
  '3D Context with UNIT and UNCERTAINTY') );
#122 = ( LENGTH_UNIT() NAMED_UNIT(*) SI_UNIT(.MILLI.,.METRE.) );
#123 = ( NAMED_UNIT(*) PLANE_ANGLE_UNIT() SI_UNIT($,.RADIAN.) );
#124 = ( NAMED_UNIT(*) SI_UNIT($,.STERADIAN.) SOLID_ANGLE_UNIT() );
#125 = UNCERTAINTY_MEASURE_WITH_UNIT(LENGTH_MEASURE(1.E-07),#122,
  'distance_accuracy_value','confusion accuracy');
#126 = PRODUCT_RELATED_PRODUCT_CATEGORY('part',$,(#7));
ENDSEC;
END-ISO-10303-21;
