ISO-10303-21;
HEADER;
FILE_DESCRIPTION(('Open CASCADE Model'),'2;1');
FILE_NAME('Open CASCADE Shape Model','2026-06-02T12:09:04',('Author'),(
    'Open CASCADE'),'Open CASCADE STEP processor 7.9','Open CASCADE 7.9'
  ,'Unknown');
FILE_SCHEMA(('AUTOMOTIVE_DESIGN { 1 0 10303 214 1 1 1 1 }'));
ENDSEC;
DATA;
#1 = APPLICATION_PROTOCOL_DEFINITION('international standard',
  'automotive_design',2000,#2);
#2 = APPLICATION_CONTEXT(
  'core data for automotive mechanical design processes');
#3 = SHAPE_DEFINITION_REPRESENTATION(#4,#10);
#4 = PRODUCT_DEFINITION_SHAPE('','',#5);
#5 = PRODUCT_DEFINITION('design','',#6,#9);
#6 = PRODUCT_DEFINITION_FORMATION('','',#7);
#7 = PRODUCT('Open CASCADE STEP translator 7.9 60',
  'Open CASCADE STEP translator 7.9 60','',(#8));
#8 = PRODUCT_CONTEXT('',#2,'mechanical');
#9 = PRODUCT_DEFINITION_CONTEXT('part definition',#2,'design');
#10 = MANIFOLD_SURFACE_SHAPE_REPRESENTATION('',(#11,#15),#121);
#11 = AXIS2_PLACEMENT_3D('',#12,#13,#14);
#12 = CARTESIAN_POINT('',(0.,0.,0.));
#13 = DIRECTION('',(0.,0.,1.));
#14 = DIRECTION('',(1.,0.,-0.));
#15 = SHELL_BASED_SURFACE_MODEL('',(#16));
#16 = OPEN_SHELL('',(#17));
#17 = ADVANCED_FACE('',(#18),#40,.T.);
#18 = FACE_BOUND('',#19,.T.);
#19 = EDGE_LOOP('',(#20,#59,#75,#107));
#20 = ORIENTED_EDGE('',*,*,#21,.T.);
#21 = EDGE_CURVE('',#22,#24,#26,.T.);
#22 = VERTEX_POINT('',#23);
#23 = CARTESIAN_POINT('',(0.,-14.12654185637,0.));
#24 = VERTEX_POINT('',#25);
#25 = CARTESIAN_POINT('',(1.5E+03,4.239816254163,0.));
#26 = SURFACE_CURVE('',#27,(#39),.PCURVE_S1.);
#27 = B_SPLINE_CURVE_WITH_KNOTS('',1,(#28,#29,#30,#31,#32,#33,#34,#35,
    #36,#37,#38),.UNSPECIFIED.,.F.,.F.,(2,1,1,1,1,1,1,1,1,1,2),(0.,
    3.881892593231E-02,0.141482810543,0.217937250985,0.363025898753,
    0.442707997886,0.513502407743,0.578217563775,0.682794429479,
    0.723893202538,1.),.UNSPECIFIED.);
#28 = CARTESIAN_POINT('',(0.,-14.12654185637,0.));
#29 = CARTESIAN_POINT('',(55.709839245576,3.578029163486,0.));
#30 = CARTESIAN_POINT('',(210.3053142914,3.07424926335,0.));
#31 = CARTESIAN_POINT('',(325.29705121101,-2.542581084148,0.));
#32 = CARTESIAN_POINT('',(543.34861041458,11.158421683566,0.));
#33 = CARTESIAN_POINT('',(663.19798472797,5.367431207644,0.));
#34 = CARTESIAN_POINT('',(769.73461829453,9.203750326646,0.));
#35 = CARTESIAN_POINT('',(867.14851562945,11.901495626789,0.));
#36 = CARTESIAN_POINT('',(1.022953619466E+03,-10.98433818993,0.));
#37 = CARTESIAN_POINT('',(1.084282474441E+03,-2.679934983824,0.));
#38 = CARTESIAN_POINT('',(1.5E+03,4.239816254163,0.));
#39 = PCURVE('',#40,#45);
#40 = PLANE('',#41);
#41 = AXIS2_PLACEMENT_3D('',#42,#43,#44);
#42 = CARTESIAN_POINT('',(740.72309127572,75.,0.));
#43 = DIRECTION('',(0.,0.,1.));
#44 = DIRECTION('',(1.,0.,-0.));
#45 = DEFINITIONAL_REPRESENTATION('',(#46),#58);
#46 = B_SPLINE_CURVE_WITH_KNOTS('',1,(#47,#48,#49,#50,#51,#52,#53,#54,
    #55,#56,#57),.UNSPECIFIED.,.F.,.F.,(2,1,1,1,1,1,1,1,1,1,2),(0.,
    3.881892593231E-02,0.141482810543,0.217937250985,0.363025898753,
    0.442707997886,0.513502407743,0.578217563775,0.682794429479,
    0.723893202538,1.),.UNSPECIFIED.);
#47 = CARTESIAN_POINT('',(-740.7230912757,-89.12654185637));
#48 = CARTESIAN_POINT('',(-685.0132520301,-71.42197083651));
#49 = CARTESIAN_POINT('',(-530.4177769843,-71.92575073665));
#50 = CARTESIAN_POINT('',(-415.4260400647,-77.54258108414));
#51 = CARTESIAN_POINT('',(-197.3744808611,-63.84157831643));
#52 = CARTESIAN_POINT('',(-77.52510654775,-69.63256879235));
#53 = CARTESIAN_POINT('',(29.01152701881,-65.79624967335));
#54 = CARTESIAN_POINT('',(126.42542435372,-63.09850437321));
#55 = CARTESIAN_POINT('',(282.23052819026,-85.98433818993));
#56 = CARTESIAN_POINT('',(343.55938316496,-77.67993498382));
#57 = CARTESIAN_POINT('',(759.27690872427,-70.76018374583));
#58 = ( GEOMETRIC_REPRESENTATION_CONTEXT(2) 
PARAMETRIC_REPRESENTATION_CONTEXT() REPRESENTATION_CONTEXT('2D SPACE',''
  ) );
#59 = ORIENTED_EDGE('',*,*,#60,.T.);
#60 = EDGE_CURVE('',#24,#61,#63,.T.);
#61 = VERTEX_POINT('',#62);
#62 = CARTESIAN_POINT('',(1.5E+03,145.76018374583,0.));
#63 = SURFACE_CURVE('',#64,(#68),.PCURVE_S1.);
#64 = LINE('',#65,#66);
#65 = CARTESIAN_POINT('',(1.5E+03,4.239816254163,0.));
#66 = VECTOR('',#67,1.);
#67 = DIRECTION('',(0.,1.,0.));
#68 = PCURVE('',#40,#69);
#69 = DEFINITIONAL_REPRESENTATION('',(#70),#74);
#70 = LINE('',#71,#72);
#71 = CARTESIAN_POINT('',(759.27690872427,-70.76018374583));
#72 = VECTOR('',#73,1.);
#73 = DIRECTION('',(0.,1.));
#74 = ( GEOMETRIC_REPRESENTATION_CONTEXT(2) 
PARAMETRIC_REPRESENTATION_CONTEXT() REPRESENTATION_CONTEXT('2D SPACE',''
  ) );
#75 = ORIENTED_EDGE('',*,*,#76,.T.);
#76 = EDGE_CURVE('',#61,#77,#79,.T.);
#77 = VERTEX_POINT('',#78);
#78 = CARTESIAN_POINT('',(0.,164.12654185637,0.));
#79 = SURFACE_CURVE('',#80,(#92),.PCURVE_S1.);
#80 = B_SPLINE_CURVE_WITH_KNOTS('',1,(#81,#82,#83,#84,#85,#86,#87,#88,
    #89,#90,#91),.UNSPECIFIED.,.F.,.F.,(2,1,1,1,1,1,1,1,1,1,2),(0.,
    0.276106797462,0.317205570521,0.421782436225,0.486497592257,
    0.557292002114,0.636974101247,0.782062749015,0.858517189457,
    0.961181074068,1.),.UNSPECIFIED.);
#81 = CARTESIAN_POINT('',(1.5E+03,145.76018374583,0.));
#82 = CARTESIAN_POINT('',(1.084282474441E+03,152.67993498382,0.));
#83 = CARTESIAN_POINT('',(1.022953619466E+03,160.98433818993,0.));
#84 = CARTESIAN_POINT('',(867.14851562945,138.09850437321,0.));
#85 = CARTESIAN_POINT('',(769.73461829453,140.79624967335,0.));
#86 = CARTESIAN_POINT('',(663.19798472797,144.63256879235,0.));
#87 = CARTESIAN_POINT('',(543.34861041458,138.84157831643,0.));
#88 = CARTESIAN_POINT('',(325.29705121101,152.54258108414,0.));
#89 = CARTESIAN_POINT('',(210.3053142914,146.92575073665,0.));
#90 = CARTESIAN_POINT('',(55.709839245576,146.42197083651,0.));
#91 = CARTESIAN_POINT('',(0.,164.12654185637,0.));
#92 = PCURVE('',#40,#93);
#93 = DEFINITIONAL_REPRESENTATION('',(#94),#106);
#94 = B_SPLINE_CURVE_WITH_KNOTS('',1,(#95,#96,#97,#98,#99,#100,#101,#102
    ,#103,#104,#105),.UNSPECIFIED.,.F.,.F.,(2,1,1,1,1,1,1,1,1,1,2),(0.,
    0.276106797462,0.317205570521,0.421782436225,0.486497592257,
    0.557292002114,0.636974101247,0.782062749015,0.858517189457,
    0.961181074068,1.),.UNSPECIFIED.);
#95 = CARTESIAN_POINT('',(759.27690872427,70.760183745837));
#96 = CARTESIAN_POINT('',(343.55938316496,77.679934983824));
#97 = CARTESIAN_POINT('',(282.23052819026,85.984338189931));
#98 = CARTESIAN_POINT('',(126.42542435372,63.098504373211));
#99 = CARTESIAN_POINT('',(29.01152701881,65.796249673354));
#100 = CARTESIAN_POINT('',(-77.52510654775,69.632568792356));
#101 = CARTESIAN_POINT('',(-197.3744808611,63.841578316434));
#102 = CARTESIAN_POINT('',(-415.4260400647,77.542581084148));
#103 = CARTESIAN_POINT('',(-530.4177769843,71.92575073665));
#104 = CARTESIAN_POINT('',(-685.0132520301,71.421970836514));
#105 = CARTESIAN_POINT('',(-740.7230912757,89.126541856372));
#106 = ( GEOMETRIC_REPRESENTATION_CONTEXT(2) 
PARAMETRIC_REPRESENTATION_CONTEXT() REPRESENTATION_CONTEXT('2D SPACE',''
  ) );
#107 = ORIENTED_EDGE('',*,*,#108,.T.);
#108 = EDGE_CURVE('',#77,#22,#109,.T.);
#109 = SURFACE_CURVE('',#110,(#114),.PCURVE_S1.);
#110 = LINE('',#111,#112);
#111 = CARTESIAN_POINT('',(0.,164.12654185637,0.));
#112 = VECTOR('',#113,1.);
#113 = DIRECTION('',(0.,-1.,0.));
#114 = PCURVE('',#40,#115);
#115 = DEFINITIONAL_REPRESENTATION('',(#116),#120);
#116 = LINE('',#117,#118);
#117 = CARTESIAN_POINT('',(-740.7230912757,89.126541856372));
#118 = VECTOR('',#119,1.);
#119 = DIRECTION('',(0.,-1.));
#120 = ( GEOMETRIC_REPRESENTATION_CONTEXT(2) 
PARAMETRIC_REPRESENTATION_CONTEXT() REPRESENTATION_CONTEXT('2D SPACE',''
  ) );
#121 = ( GEOMETRIC_REPRESENTATION_CONTEXT(3) 
GLOBAL_UNCERTAINTY_ASSIGNED_CONTEXT((#125)) GLOBAL_UNIT_ASSIGNED_CONTEXT
((#122,#123,#124)) REPRESENTATION_CONTEXT('Context #1',
  '3D Context with UNIT and UNCERTAINTY') );
#122 = ( LENGTH_UNIT() NAMED_UNIT(*) SI_UNIT(.MILLI.,.METRE.) );
#123 = ( NAMED_UNIT(*) PLANE_ANGLE_UNIT() SI_UNIT($,.RADIAN.) );
#124 = ( NAMED_UNIT(*) SI_UNIT($,.STERADIAN.) SOLID_ANGLE_UNIT() );
#125 = UNCERTAINTY_MEASURE_WITH_UNIT(LENGTH_MEASURE(1.E-07),#122,
  'distance_accuracy_value','confusion accuracy');
#126 = PRODUCT_RELATED_PRODUCT_CATEGORY('part',$,(#7));
ENDSEC;
END-ISO-10303-21;
