ISO-10303-21;
HEADER;
FILE_DESCRIPTION(('Open CASCADE Model'),'2;1');
FILE_NAME('Open CASCADE Shape Model','2026-06-02T12:09:04',('Author'),(
    'Open CASCADE'),'Open CASCADE STEP processor 7.9','Open CASCADE 7.9'
  ,'Unknown');
FILE_SCHEMA(('AUTOMOTIVE_DESIGN { 1 0 10303 214 1 1 1 1 }'));
ENDSEC;
DATA;
#1 = APPLICATION_PROTOCOL_DEFINITION('international standard',
  'automotive_design',2000,#2);
#2 = APPLICATION_CONTEXT(
  'core data for automotive mechanical design processes');
#3 = SHAPE_DEFINITION_REPRESENTATION(#4,#10);
#4 = PRODUCT_DEFINITION_SHAPE('','',#5);
#5 = PRODUCT_DEFINITION('design','',#6,#9);
#6 = PRODUCT_DEFINITION_FORMATION('','',#7);
#7 = PRODUCT('Open CASCADE STEP translator 7.9 51',
  'Open CASCADE STEP translator 7.9 51','',(#8));
#8 = PRODUCT_CONTEXT('',#2,'mechanical');
#9 = PRODUCT_DEFINITION_CONTEXT('part definition',#2,'design');
#10 = MANIFOLD_SURFACE_SHAPE_REPRESENTATION('',(#11,#15),#121);
#11 = AXIS2_PLACEMENT_3D('',#12,#13,#14);
#12 = CARTESIAN_POINT('',(0.,0.,0.));
#13 = DIRECTION('',(0.,0.,1.));
#14 = DIRECTION('',(1.,0.,-0.));
#15 = SHELL_BASED_SURFACE_MODEL('',(#16));
#16 = OPEN_SHELL('',(#17));
#17 = ADVANCED_FACE('',(#18),#40,.T.);
#18 = FACE_BOUND('',#19,.T.);
#19 = EDGE_LOOP('',(#20,#59,#75,#107));
#20 = ORIENTED_EDGE('',*,*,#21,.T.);
#21 = EDGE_CURVE('',#22,#24,#26,.T.);
#22 = VERTEX_POINT('',#23);
#23 = CARTESIAN_POINT('',(0.,-12.38015505766,0.));
#24 = VERTEX_POINT('',#25);
#25 = CARTESIAN_POINT('',(1.5E+03,-4.344575830779,0.));
#26 = SURFACE_CURVE('',#27,(#39),.PCURVE_S1.);
#27 = B_SPLINE_CURVE_WITH_KNOTS('',1,(#28,#29,#30,#31,#32,#33,#34,#35,
    #36,#37,#38),.UNSPECIFIED.,.F.,.F.,(2,1,1,1,1,1,1,1,1,1,2),(0.,
    0.14518412656,0.288046806626,0.517710178209,0.597741121739,
    0.673258782912,0.742782158636,0.768187825868,0.840756978722,
    0.955705709825,1.),.UNSPECIFIED.);
#28 = CARTESIAN_POINT('',(0.,-12.38015505766,0.));
#29 = CARTESIAN_POINT('',(218.12910726923,-12.71623498495,0.));
#30 = CARTESIAN_POINT('',(432.75705270729,-10.29968657285,0.));
#31 = CARTESIAN_POINT('',(777.78706429824,-14.34613292293,0.));
#32 = CARTESIAN_POINT('',(897.82444406428,-7.349745773391,0.));
#33 = CARTESIAN_POINT('',(1.011283105391E+03,-7.94001685686,0.));
#34 = CARTESIAN_POINT('',(1.115737273637E+03,-7.877702758879,0.));
#35 = CARTESIAN_POINT('',(1.152958360776E+03,0.581771071731,0.));
#36 = CARTESIAN_POINT('',(1.261986214251E+03,1.306434164572,0.));
#37 = CARTESIAN_POINT('',(1.434567070452E+03,7.79321171553,0.));
#38 = CARTESIAN_POINT('',(1.5E+03,-4.344575830779,0.));
#39 = PCURVE('',#40,#45);
#40 = PLANE('',#41);
#41 = AXIS2_PLACEMENT_3D('',#42,#43,#44);
#42 = CARTESIAN_POINT('',(747.13727425252,75.,0.));
#43 = DIRECTION('',(0.,0.,1.));
#44 = DIRECTION('',(1.,0.,-0.));
#45 = DEFINITIONAL_REPRESENTATION('',(#46),#58);
#46 = B_SPLINE_CURVE_WITH_KNOTS('',1,(#47,#48,#49,#50,#51,#52,#53,#54,
    #55,#56,#57),.UNSPECIFIED.,.F.,.F.,(2,1,1,1,1,1,1,1,1,1,2),(0.,
    0.14518412656,0.288046806626,0.517710178209,0.597741121739,
    0.673258782912,0.742782158636,0.768187825868,0.840756978722,
    0.955705709825,1.),.UNSPECIFIED.);
#47 = CARTESIAN_POINT('',(-747.1372742525,-87.38015505766));
#48 = CARTESIAN_POINT('',(-529.0081669832,-87.71623498495));
#49 = CARTESIAN_POINT('',(-314.3802215452,-85.29968657285));
#50 = CARTESIAN_POINT('',(30.649790045721,-89.34613292293));
#51 = CARTESIAN_POINT('',(150.68716981176,-82.34974577339));
#52 = CARTESIAN_POINT('',(264.14583113833,-82.94001685686));
#53 = CARTESIAN_POINT('',(368.59999938464,-82.87770275887));
#54 = CARTESIAN_POINT('',(405.82108652338,-74.41822892826));
#55 = CARTESIAN_POINT('',(514.84893999866,-73.69356583542));
#56 = CARTESIAN_POINT('',(687.42979619924,-67.20678828447));
#57 = CARTESIAN_POINT('',(752.86272574747,-79.34457583077));
#58 = ( GEOMETRIC_REPRESENTATION_CONTEXT(2) 
PARAMETRIC_REPRESENTATION_CONTEXT() REPRESENTATION_CONTEXT('2D SPACE',''
  ) );
#59 = ORIENTED_EDGE('',*,*,#60,.T.);
#60 = EDGE_CURVE('',#24,#61,#63,.T.);
#61 = VERTEX_POINT('',#62);
#62 = CARTESIAN_POINT('',(1.5E+03,154.34457583077,0.));
#63 = SURFACE_CURVE('',#64,(#68),.PCURVE_S1.);
#64 = LINE('',#65,#66);
#65 = CARTESIAN_POINT('',(1.5E+03,-4.344575830779,0.));
#66 = VECTOR('',#67,1.);
#67 = DIRECTION('',(0.,1.,0.));
#68 = PCURVE('',#40,#69);
#69 = DEFINITIONAL_REPRESENTATION('',(#70),#74);
#70 = LINE('',#71,#72);
#71 = CARTESIAN_POINT('',(752.86272574747,-79.34457583077));
#72 = VECTOR('',#73,1.);
#73 = DIRECTION('',(0.,1.));
#74 = ( GEOMETRIC_REPRESENTATION_CONTEXT(2) 
PARAMETRIC_REPRESENTATION_CONTEXT() REPRESENTATION_CONTEXT('2D SPACE',''
  ) );
#75 = ORIENTED_EDGE('',*,*,#76,.T.);
#76 = EDGE_CURVE('',#61,#77,#79,.T.);
#77 = VERTEX_POINT('',#78);
#78 = CARTESIAN_POINT('',(0.,162.38015505766,0.));
#79 = SURFACE_CURVE('',#80,(#92),.PCURVE_S1.);
#80 = B_SPLINE_CURVE_WITH_KNOTS('',1,(#81,#82,#83,#84,#85,#86,#87,#88,
    #89,#90,#91),.UNSPECIFIED.,.F.,.F.,(2,1,1,1,1,1,1,1,1,1,2),(0.,
    4.429429017518E-02,0.159243021278,0.231812174132,0.257217841364,
    0.326741217088,0.402258878261,0.482289821791,0.711953193374,
    0.85481587344,1.),.UNSPECIFIED.);
#81 = CARTESIAN_POINT('',(1.5E+03,154.34457583077,0.));
#82 = CARTESIAN_POINT('',(1.434567070452E+03,142.20678828447,0.));
#83 = CARTESIAN_POINT('',(1.261986214251E+03,148.69356583542,0.));
#84 = CARTESIAN_POINT('',(1.152958360776E+03,149.41822892826,0.));
#85 = CARTESIAN_POINT('',(1.115737273637E+03,157.87770275887,0.));
#86 = CARTESIAN_POINT('',(1.011283105391E+03,157.94001685686,0.));
#87 = CARTESIAN_POINT('',(897.82444406428,157.34974577339,0.));
#88 = CARTESIAN_POINT('',(777.78706429824,164.34613292293,0.));
#89 = CARTESIAN_POINT('',(432.75705270729,160.29968657285,0.));
#90 = CARTESIAN_POINT('',(218.12910726923,162.71623498495,0.));
#91 = CARTESIAN_POINT('',(0.,162.38015505766,0.));
#92 = PCURVE('',#40,#93);
#93 = DEFINITIONAL_REPRESENTATION('',(#94),#106);
#94 = B_SPLINE_CURVE_WITH_KNOTS('',1,(#95,#96,#97,#98,#99,#100,#101,#102
    ,#103,#104,#105),.UNSPECIFIED.,.F.,.F.,(2,1,1,1,1,1,1,1,1,1,2),(0.,
    4.429429017518E-02,0.159243021278,0.231812174132,0.257217841364,
    0.326741217088,0.402258878261,0.482289821791,0.711953193374,
    0.85481587344,1.),.UNSPECIFIED.);
#95 = CARTESIAN_POINT('',(752.86272574747,79.344575830779));
#96 = CARTESIAN_POINT('',(687.42979619924,67.20678828447));
#97 = CARTESIAN_POINT('',(514.84893999866,73.693565835428));
#98 = CARTESIAN_POINT('',(405.82108652338,74.418228928269));
#99 = CARTESIAN_POINT('',(368.59999938464,82.877702758879));
#100 = CARTESIAN_POINT('',(264.14583113833,82.94001685686));
#101 = CARTESIAN_POINT('',(150.68716981176,82.349745773391));
#102 = CARTESIAN_POINT('',(30.649790045721,89.346132922937));
#103 = CARTESIAN_POINT('',(-314.3802215452,85.299686572859));
#104 = CARTESIAN_POINT('',(-529.0081669832,87.716234984955));
#105 = CARTESIAN_POINT('',(-747.1372742525,87.380155057666));
#106 = ( GEOMETRIC_REPRESENTATION_CONTEXT(2) 
PARAMETRIC_REPRESENTATION_CONTEXT() REPRESENTATION_CONTEXT('2D SPACE',''
  ) );
#107 = ORIENTED_EDGE('',*,*,#108,.T.);
#108 = EDGE_CURVE('',#77,#22,#109,.T.);
#109 = SURFACE_CURVE('',#110,(#114),.PCURVE_S1.);
#110 = LINE('',#111,#112);
#111 = CARTESIAN_POINT('',(0.,162.38015505766,0.));
#112 = VECTOR('',#113,1.);
#113 = DIRECTION('',(0.,-1.,0.));
#114 = PCURVE('',#40,#115);
#115 = DEFINITIONAL_REPRESENTATION('',(#116),#120);
#116 = LINE('',#117,#118);
#117 = CARTESIAN_POINT('',(-747.1372742525,87.380155057666));
#118 = VECTOR('',#119,1.);
#119 = DIRECTION('',(0.,-1.));
#120 = ( GEOMETRIC_REPRESENTATION_CONTEXT(2) 
PARAMETRIC_REPRESENTATION_CONTEXT() REPRESENTATION_CONTEXT('2D SPACE',''
  ) );
#121 = ( GEOMETRIC_REPRESENTATION_CONTEXT(3) 
GLOBAL_UNCERTAINTY_ASSIGNED_CONTEXT((#125)) GLOBAL_UNIT_ASSIGNED_CONTEXT
((#122,#123,#124)) REPRESENTATION_CONTEXT('Context #1',
  '3D Context with UNIT and UNCERTAINTY') );
#122 = ( LENGTH_UNIT() NAMED_UNIT(*) SI_UNIT(.MILLI.,.METRE.) );
#123 = ( NAMED_UNIT(*) PLANE_ANGLE_UNIT() SI_UNIT($,.RADIAN.) );
#124 = ( NAMED_UNIT(*) SI_UNIT($,.STERADIAN.) SOLID_ANGLE_UNIT() );
#125 = UNCERTAINTY_MEASURE_WITH_UNIT(LENGTH_MEASURE(1.E-07),#122,
  'distance_accuracy_value','confusion accuracy');
#126 = PRODUCT_RELATED_PRODUCT_CATEGORY('part',$,(#7));
ENDSEC;
END-ISO-10303-21;
