ISO-10303-21;
HEADER;
FILE_DESCRIPTION(('Open CASCADE Model'),'2;1');
FILE_NAME('Open CASCADE Shape Model','2026-06-02T12:09:04',('Author'),(
    'Open CASCADE'),'Open CASCADE STEP processor 7.9','Open CASCADE 7.9'
  ,'Unknown');
FILE_SCHEMA(('AUTOMOTIVE_DESIGN { 1 0 10303 214 1 1 1 1 }'));
ENDSEC;
DATA;
#1 = APPLICATION_PROTOCOL_DEFINITION('international standard',
  'automotive_design',2000,#2);
#2 = APPLICATION_CONTEXT(
  'core data for automotive mechanical design processes');
#3 = SHAPE_DEFINITION_REPRESENTATION(#4,#10);
#4 = PRODUCT_DEFINITION_SHAPE('','',#5);
#5 = PRODUCT_DEFINITION('design','',#6,#9);
#6 = PRODUCT_DEFINITION_FORMATION('','',#7);
#7 = PRODUCT('Open CASCADE STEP translator 7.9 81',
  'Open CASCADE STEP translator 7.9 81','',(#8));
#8 = PRODUCT_CONTEXT('',#2,'mechanical');
#9 = PRODUCT_DEFINITION_CONTEXT('part definition',#2,'design');
#10 = MANIFOLD_SURFACE_SHAPE_REPRESENTATION('',(#11,#15),#121);
#11 = AXIS2_PLACEMENT_3D('',#12,#13,#14);
#12 = CARTESIAN_POINT('',(0.,0.,0.));
#13 = DIRECTION('',(0.,0.,1.));
#14 = DIRECTION('',(1.,0.,-0.));
#15 = SHELL_BASED_SURFACE_MODEL('',(#16));
#16 = OPEN_SHELL('',(#17));
#17 = ADVANCED_FACE('',(#18),#40,.T.);
#18 = FACE_BOUND('',#19,.T.);
#19 = EDGE_LOOP('',(#20,#59,#75,#107));
#20 = ORIENTED_EDGE('',*,*,#21,.T.);
#21 = EDGE_CURVE('',#22,#24,#26,.T.);
#22 = VERTEX_POINT('',#23);
#23 = CARTESIAN_POINT('',(0.,-3.190885206466,0.));
#24 = VERTEX_POINT('',#25);
#25 = CARTESIAN_POINT('',(1.5E+03,-10.95300695731,0.));
#26 = SURFACE_CURVE('',#27,(#39),.PCURVE_S1.);
#27 = B_SPLINE_CURVE_WITH_KNOTS('',1,(#28,#29,#30,#31,#32,#33,#34,#35,
    #36,#37,#38),.UNSPECIFIED.,.F.,.F.,(2,1,1,1,1,1,1,1,1,1,2),(0.,
    2.211923040152E-02,0.340549945078,0.383141162954,0.584729005663,
    0.640598785581,0.692926849212,0.754272684571,0.80877589697,
    0.957618125016,1.),.UNSPECIFIED.);
#28 = CARTESIAN_POINT('',(0.,-3.190885206466,0.));
#29 = CARTESIAN_POINT('',(33.350722647863,-4.754423051799,0.));
#30 = CARTESIAN_POINT('',(513.97107705502,-9.887862272571,0.));
#31 = CARTESIAN_POINT('',(573.54922187533,14.26647477354,0.));
#32 = CARTESIAN_POINT('',(877.77461094664,8.395263265431,0.));
#33 = CARTESIAN_POINT('',(960.80549581742,-6.357534317657,0.));
#34 = CARTESIAN_POINT('',(1.039665304454E+03,-1.905697109086,0.));
#35 = CARTESIAN_POINT('',(1.132239915574E+03,0.131847653966,0.));
#36 = CARTESIAN_POINT('',(1.213440707438E+03,13.343701298761,0.));
#37 = CARTESIAN_POINT('',(1.437935018849E+03,4.551723496156,0.));
#38 = CARTESIAN_POINT('',(1.5E+03,-10.95300695731,0.));
#39 = PCURVE('',#40,#45);
#40 = PLANE('',#41);
#41 = AXIS2_PLACEMENT_3D('',#42,#43,#44);
#42 = CARTESIAN_POINT('',(754.17662385053,75.,0.));
#43 = DIRECTION('',(0.,0.,1.));
#44 = DIRECTION('',(1.,0.,-0.));
#45 = DEFINITIONAL_REPRESENTATION('',(#46),#58);
#46 = B_SPLINE_CURVE_WITH_KNOTS('',1,(#47,#48,#49,#50,#51,#52,#53,#54,
    #55,#56,#57),.UNSPECIFIED.,.F.,.F.,(2,1,1,1,1,1,1,1,1,1,2),(0.,
    2.211923040152E-02,0.340549945078,0.383141162954,0.584729005663,
    0.640598785581,0.692926849212,0.754272684571,0.80877589697,
    0.957618125016,1.),.UNSPECIFIED.);
#47 = CARTESIAN_POINT('',(-754.1766238505,-78.19088520646));
#48 = CARTESIAN_POINT('',(-720.8259012026,-79.75442305179));
#49 = CARTESIAN_POINT('',(-240.2055467955,-84.88786227257));
#50 = CARTESIAN_POINT('',(-180.6274019752,-60.73352522646));
#51 = CARTESIAN_POINT('',(123.5979870961,-66.60473673456));
#52 = CARTESIAN_POINT('',(206.62887196688,-81.35753431765));
#53 = CARTESIAN_POINT('',(285.48868060319,-76.90569710908));
#54 = CARTESIAN_POINT('',(378.06329172309,-74.86815234603));
#55 = CARTESIAN_POINT('',(459.26408358785,-61.65629870123));
#56 = CARTESIAN_POINT('',(683.75839499855,-70.44827650384));
#57 = CARTESIAN_POINT('',(745.82337614946,-85.95300695731));
#58 = ( GEOMETRIC_REPRESENTATION_CONTEXT(2) 
PARAMETRIC_REPRESENTATION_CONTEXT() REPRESENTATION_CONTEXT('2D SPACE',''
  ) );
#59 = ORIENTED_EDGE('',*,*,#60,.T.);
#60 = EDGE_CURVE('',#24,#61,#63,.T.);
#61 = VERTEX_POINT('',#62);
#62 = CARTESIAN_POINT('',(1.5E+03,160.95300695731,0.));
#63 = SURFACE_CURVE('',#64,(#68),.PCURVE_S1.);
#64 = LINE('',#65,#66);
#65 = CARTESIAN_POINT('',(1.5E+03,-10.95300695731,0.));
#66 = VECTOR('',#67,1.);
#67 = DIRECTION('',(0.,1.,0.));
#68 = PCURVE('',#40,#69);
#69 = DEFINITIONAL_REPRESENTATION('',(#70),#74);
#70 = LINE('',#71,#72);
#71 = CARTESIAN_POINT('',(745.82337614946,-85.95300695731));
#72 = VECTOR('',#73,1.);
#73 = DIRECTION('',(0.,1.));
#74 = ( GEOMETRIC_REPRESENTATION_CONTEXT(2) 
PARAMETRIC_REPRESENTATION_CONTEXT() REPRESENTATION_CONTEXT('2D SPACE',''
  ) );
#75 = ORIENTED_EDGE('',*,*,#76,.T.);
#76 = EDGE_CURVE('',#61,#77,#79,.T.);
#77 = VERTEX_POINT('',#78);
#78 = CARTESIAN_POINT('',(0.,153.19088520646,0.));
#79 = SURFACE_CURVE('',#80,(#92),.PCURVE_S1.);
#80 = B_SPLINE_CURVE_WITH_KNOTS('',1,(#81,#82,#83,#84,#85,#86,#87,#88,
    #89,#90,#91),.UNSPECIFIED.,.F.,.F.,(2,1,1,1,1,1,1,1,1,1,2),(0.,
    4.238187498396E-02,0.19122410303,0.245727315429,0.307073150788,
    0.359401214419,0.415270994337,0.616858837046,0.659450054922,
    0.977880769598,1.),.UNSPECIFIED.);
#81 = CARTESIAN_POINT('',(1.5E+03,160.95300695731,0.));
#82 = CARTESIAN_POINT('',(1.437935018849E+03,145.44827650384,0.));
#83 = CARTESIAN_POINT('',(1.213440707438E+03,136.65629870123,0.));
#84 = CARTESIAN_POINT('',(1.132239915574E+03,149.86815234603,0.));
#85 = CARTESIAN_POINT('',(1.039665304454E+03,151.90569710908,0.));
#86 = CARTESIAN_POINT('',(960.80549581742,156.35753431765,0.));
#87 = CARTESIAN_POINT('',(877.77461094664,141.60473673456,0.));
#88 = CARTESIAN_POINT('',(573.54922187533,135.73352522646,0.));
#89 = CARTESIAN_POINT('',(513.97107705502,159.88786227257,0.));
#90 = CARTESIAN_POINT('',(33.350722647863,154.75442305179,0.));
#91 = CARTESIAN_POINT('',(0.,153.19088520646,0.));
#92 = PCURVE('',#40,#93);
#93 = DEFINITIONAL_REPRESENTATION('',(#94),#106);
#94 = B_SPLINE_CURVE_WITH_KNOTS('',1,(#95,#96,#97,#98,#99,#100,#101,#102
    ,#103,#104,#105),.UNSPECIFIED.,.F.,.F.,(2,1,1,1,1,1,1,1,1,1,2),(0.,
    4.238187498396E-02,0.19122410303,0.245727315429,0.307073150788,
    0.359401214419,0.415270994337,0.616858837046,0.659450054922,
    0.977880769598,1.),.UNSPECIFIED.);
#95 = CARTESIAN_POINT('',(745.82337614946,85.953006957319));
#96 = CARTESIAN_POINT('',(683.75839499855,70.448276503844));
#97 = CARTESIAN_POINT('',(459.26408358785,61.656298701239));
#98 = CARTESIAN_POINT('',(378.06329172309,74.868152346034));
#99 = CARTESIAN_POINT('',(285.48868060319,76.905697109086));
#100 = CARTESIAN_POINT('',(206.62887196688,81.357534317657));
#101 = CARTESIAN_POINT('',(123.5979870961,66.604736734569));
#102 = CARTESIAN_POINT('',(-180.6274019752,60.73352522646));
#103 = CARTESIAN_POINT('',(-240.2055467955,84.887862272571));
#104 = CARTESIAN_POINT('',(-720.8259012026,79.754423051799));
#105 = CARTESIAN_POINT('',(-754.1766238505,78.190885206466));
#106 = ( GEOMETRIC_REPRESENTATION_CONTEXT(2) 
PARAMETRIC_REPRESENTATION_CONTEXT() REPRESENTATION_CONTEXT('2D SPACE',''
  ) );
#107 = ORIENTED_EDGE('',*,*,#108,.T.);
#108 = EDGE_CURVE('',#77,#22,#109,.T.);
#109 = SURFACE_CURVE('',#110,(#114),.PCURVE_S1.);
#110 = LINE('',#111,#112);
#111 = CARTESIAN_POINT('',(0.,153.19088520646,0.));
#112 = VECTOR('',#113,1.);
#113 = DIRECTION('',(0.,-1.,0.));
#114 = PCURVE('',#40,#115);
#115 = DEFINITIONAL_REPRESENTATION('',(#116),#120);
#116 = LINE('',#117,#118);
#117 = CARTESIAN_POINT('',(-754.1766238505,78.190885206466));
#118 = VECTOR('',#119,1.);
#119 = DIRECTION('',(0.,-1.));
#120 = ( GEOMETRIC_REPRESENTATION_CONTEXT(2) 
PARAMETRIC_REPRESENTATION_CONTEXT() REPRESENTATION_CONTEXT('2D SPACE',''
  ) );
#121 = ( GEOMETRIC_REPRESENTATION_CONTEXT(3) 
GLOBAL_UNCERTAINTY_ASSIGNED_CONTEXT((#125)) GLOBAL_UNIT_ASSIGNED_CONTEXT
((#122,#123,#124)) REPRESENTATION_CONTEXT('Context #1',
  '3D Context with UNIT and UNCERTAINTY') );
#122 = ( LENGTH_UNIT() NAMED_UNIT(*) SI_UNIT(.MILLI.,.METRE.) );
#123 = ( NAMED_UNIT(*) PLANE_ANGLE_UNIT() SI_UNIT($,.RADIAN.) );
#124 = ( NAMED_UNIT(*) SI_UNIT($,.STERADIAN.) SOLID_ANGLE_UNIT() );
#125 = UNCERTAINTY_MEASURE_WITH_UNIT(LENGTH_MEASURE(1.E-07),#122,
  'distance_accuracy_value','confusion accuracy');
#126 = PRODUCT_RELATED_PRODUCT_CATEGORY('part',$,(#7));
ENDSEC;
END-ISO-10303-21;
