ISO-10303-21;
HEADER;
FILE_DESCRIPTION(('Open CASCADE Model'),'2;1');
FILE_NAME('Open CASCADE Shape Model','2026-06-02T12:09:04',('Author'),(
    'Open CASCADE'),'Open CASCADE STEP processor 7.9','Open CASCADE 7.9'
  ,'Unknown');
FILE_SCHEMA(('AUTOMOTIVE_DESIGN { 1 0 10303 214 1 1 1 1 }'));
ENDSEC;
DATA;
#1 = APPLICATION_PROTOCOL_DEFINITION('international standard',
  'automotive_design',2000,#2);
#2 = APPLICATION_CONTEXT(
  'core data for automotive mechanical design processes');
#3 = SHAPE_DEFINITION_REPRESENTATION(#4,#10);
#4 = PRODUCT_DEFINITION_SHAPE('','',#5);
#5 = PRODUCT_DEFINITION('design','',#6,#9);
#6 = PRODUCT_DEFINITION_FORMATION('','',#7);
#7 = PRODUCT('Open CASCADE STEP translator 7.9 45',
  'Open CASCADE STEP translator 7.9 45','',(#8));
#8 = PRODUCT_CONTEXT('',#2,'mechanical');
#9 = PRODUCT_DEFINITION_CONTEXT('part definition',#2,'design');
#10 = MANIFOLD_SURFACE_SHAPE_REPRESENTATION('',(#11,#15),#121);
#11 = AXIS2_PLACEMENT_3D('',#12,#13,#14);
#12 = CARTESIAN_POINT('',(0.,0.,0.));
#13 = DIRECTION('',(0.,0.,1.));
#14 = DIRECTION('',(1.,0.,-0.));
#15 = SHELL_BASED_SURFACE_MODEL('',(#16));
#16 = OPEN_SHELL('',(#17));
#17 = ADVANCED_FACE('',(#18),#40,.T.);
#18 = FACE_BOUND('',#19,.T.);
#19 = EDGE_LOOP('',(#20,#59,#75,#107));
#20 = ORIENTED_EDGE('',*,*,#21,.T.);
#21 = EDGE_CURVE('',#22,#24,#26,.T.);
#22 = VERTEX_POINT('',#23);
#23 = CARTESIAN_POINT('',(0.,7.54780788403,0.));
#24 = VERTEX_POINT('',#25);
#25 = CARTESIAN_POINT('',(1.5E+03,1.963107459069,0.));
#26 = SURFACE_CURVE('',#27,(#39),.PCURVE_S1.);
#27 = B_SPLINE_CURVE_WITH_KNOTS('',1,(#28,#29,#30,#31,#32,#33,#34,#35,
    #36,#37,#38),.UNSPECIFIED.,.F.,.F.,(2,1,1,1,1,1,1,1,1,1,2),(0.,
    0.206353872402,0.240139127463,0.332443758011,0.360528510908,
    0.41117065409,0.505287749092,0.554009872446,0.824579281747,
    0.918709219799,1.),.UNSPECIFIED.);
#28 = CARTESIAN_POINT('',(0.,7.54780788403,0.));
#29 = CARTESIAN_POINT('',(310.02703632722,7.656104953496,0.));
#30 = CARTESIAN_POINT('',(360.72425443033,10.162378114442,0.));
#31 = CARTESIAN_POINT('',(497.42105885985,-13.20057032422,0.));
#32 = CARTESIAN_POINT('',(539.58684621485,-11.63966485816,0.));
#33 = CARTESIAN_POINT('',(615.59942549059,-8.320761399831,0.));
#34 = CARTESIAN_POINT('',(756.78661021854,-0.529845638632,0.));
#35 = CARTESIAN_POINT('',(829.98246434234,0.281762534644,0.));
#36 = CARTESIAN_POINT('',(1.236485556924E+03,-0.892369985475,0.));
#37 = CARTESIAN_POINT('',(1.377906682697E+03,-1.097040407313,0.));
#38 = CARTESIAN_POINT('',(1.5E+03,1.963107459069,0.));
#39 = PCURVE('',#40,#45);
#40 = PLANE('',#41);
#41 = AXIS2_PLACEMENT_3D('',#42,#43,#44);
#42 = CARTESIAN_POINT('',(752.14318495342,75.,0.));
#43 = DIRECTION('',(0.,0.,1.));
#44 = DIRECTION('',(1.,0.,-0.));
#45 = DEFINITIONAL_REPRESENTATION('',(#46),#58);
#46 = B_SPLINE_CURVE_WITH_KNOTS('',1,(#47,#48,#49,#50,#51,#52,#53,#54,
    #55,#56,#57),.UNSPECIFIED.,.F.,.F.,(2,1,1,1,1,1,1,1,1,1,2),(0.,
    0.206353872402,0.240139127463,0.332443758011,0.360528510908,
    0.41117065409,0.505287749092,0.554009872446,0.824579281747,
    0.918709219799,1.),.UNSPECIFIED.);
#47 = CARTESIAN_POINT('',(-752.1431849534,-67.45219211597));
#48 = CARTESIAN_POINT('',(-442.1161486261,-67.3438950465));
#49 = CARTESIAN_POINT('',(-391.418930523,-64.83762188555));
#50 = CARTESIAN_POINT('',(-254.7221260935,-88.20057032422));
#51 = CARTESIAN_POINT('',(-212.5563387385,-86.63966485816));
#52 = CARTESIAN_POINT('',(-136.5437594628,-83.32076139983));
#53 = CARTESIAN_POINT('',(4.643425265128,-75.52984563863));
#54 = CARTESIAN_POINT('',(77.839279388928,-74.71823746535));
#55 = CARTESIAN_POINT('',(484.34237197106,-75.89236998547));
#56 = CARTESIAN_POINT('',(625.76349774337,-76.09704040731));
#57 = CARTESIAN_POINT('',(747.85681504658,-73.03689254093));
#58 = ( GEOMETRIC_REPRESENTATION_CONTEXT(2) 
PARAMETRIC_REPRESENTATION_CONTEXT() REPRESENTATION_CONTEXT('2D SPACE',''
  ) );
#59 = ORIENTED_EDGE('',*,*,#60,.T.);
#60 = EDGE_CURVE('',#24,#61,#63,.T.);
#61 = VERTEX_POINT('',#62);
#62 = CARTESIAN_POINT('',(1.5E+03,148.03689254093,0.));
#63 = SURFACE_CURVE('',#64,(#68),.PCURVE_S1.);
#64 = LINE('',#65,#66);
#65 = CARTESIAN_POINT('',(1.5E+03,1.963107459069,0.));
#66 = VECTOR('',#67,1.);
#67 = DIRECTION('',(0.,1.,0.));
#68 = PCURVE('',#40,#69);
#69 = DEFINITIONAL_REPRESENTATION('',(#70),#74);
#70 = LINE('',#71,#72);
#71 = CARTESIAN_POINT('',(747.85681504658,-73.03689254093));
#72 = VECTOR('',#73,1.);
#73 = DIRECTION('',(0.,1.));
#74 = ( GEOMETRIC_REPRESENTATION_CONTEXT(2) 
PARAMETRIC_REPRESENTATION_CONTEXT() REPRESENTATION_CONTEXT('2D SPACE',''
  ) );
#75 = ORIENTED_EDGE('',*,*,#76,.T.);
#76 = EDGE_CURVE('',#61,#77,#79,.T.);
#77 = VERTEX_POINT('',#78);
#78 = CARTESIAN_POINT('',(0.,142.45219211597,0.));
#79 = SURFACE_CURVE('',#80,(#92),.PCURVE_S1.);
#80 = B_SPLINE_CURVE_WITH_KNOTS('',1,(#81,#82,#83,#84,#85,#86,#87,#88,
    #89,#90,#91),.UNSPECIFIED.,.F.,.F.,(2,1,1,1,1,1,1,1,1,1,2),(0.,
    8.129078020118E-02,0.175420718253,0.445990127554,0.494712250908,
    0.58882934591,0.639471489092,0.667556241989,0.759860872537,
    0.793646127598,1.),.UNSPECIFIED.);
#81 = CARTESIAN_POINT('',(1.5E+03,148.03689254093,0.));
#82 = CARTESIAN_POINT('',(1.377906682697E+03,151.09704040731,0.));
#83 = CARTESIAN_POINT('',(1.236485556924E+03,150.89236998547,0.));
#84 = CARTESIAN_POINT('',(829.98246434234,149.71823746535,0.));
#85 = CARTESIAN_POINT('',(756.78661021854,150.52984563863,0.));
#86 = CARTESIAN_POINT('',(615.59942549059,158.32076139983,0.));
#87 = CARTESIAN_POINT('',(539.58684621485,161.63966485816,0.));
#88 = CARTESIAN_POINT('',(497.42105885985,163.20057032422,0.));
#89 = CARTESIAN_POINT('',(360.72425443033,139.83762188555,0.));
#90 = CARTESIAN_POINT('',(310.02703632722,142.3438950465,0.));
#91 = CARTESIAN_POINT('',(0.,142.45219211597,0.));
#92 = PCURVE('',#40,#93);
#93 = DEFINITIONAL_REPRESENTATION('',(#94),#106);
#94 = B_SPLINE_CURVE_WITH_KNOTS('',1,(#95,#96,#97,#98,#99,#100,#101,#102
    ,#103,#104,#105),.UNSPECIFIED.,.F.,.F.,(2,1,1,1,1,1,1,1,1,1,2),(0.,
    8.129078020118E-02,0.175420718253,0.445990127554,0.494712250908,
    0.58882934591,0.639471489092,0.667556241989,0.759860872537,
    0.793646127598,1.),.UNSPECIFIED.);
#95 = CARTESIAN_POINT('',(747.85681504658,73.036892540931));
#96 = CARTESIAN_POINT('',(625.76349774337,76.097040407313));
#97 = CARTESIAN_POINT('',(484.34237197106,75.892369985475));
#98 = CARTESIAN_POINT('',(77.839279388928,74.718237465356));
#99 = CARTESIAN_POINT('',(4.643425265128,75.529845638632));
#100 = CARTESIAN_POINT('',(-136.5437594628,83.320761399831));
#101 = CARTESIAN_POINT('',(-212.5563387385,86.639664858167));
#102 = CARTESIAN_POINT('',(-254.7221260935,88.200570324225));
#103 = CARTESIAN_POINT('',(-391.418930523,64.837621885558));
#104 = CARTESIAN_POINT('',(-442.1161486261,67.343895046504));
#105 = CARTESIAN_POINT('',(-752.1431849534,67.45219211597));
#106 = ( GEOMETRIC_REPRESENTATION_CONTEXT(2) 
PARAMETRIC_REPRESENTATION_CONTEXT() REPRESENTATION_CONTEXT('2D SPACE',''
  ) );
#107 = ORIENTED_EDGE('',*,*,#108,.T.);
#108 = EDGE_CURVE('',#77,#22,#109,.T.);
#109 = SURFACE_CURVE('',#110,(#114),.PCURVE_S1.);
#110 = LINE('',#111,#112);
#111 = CARTESIAN_POINT('',(0.,142.45219211597,0.));
#112 = VECTOR('',#113,1.);
#113 = DIRECTION('',(0.,-1.,0.));
#114 = PCURVE('',#40,#115);
#115 = DEFINITIONAL_REPRESENTATION('',(#116),#120);
#116 = LINE('',#117,#118);
#117 = CARTESIAN_POINT('',(-752.1431849534,67.45219211597));
#118 = VECTOR('',#119,1.);
#119 = DIRECTION('',(0.,-1.));
#120 = ( GEOMETRIC_REPRESENTATION_CONTEXT(2) 
PARAMETRIC_REPRESENTATION_CONTEXT() REPRESENTATION_CONTEXT('2D SPACE',''
  ) );
#121 = ( GEOMETRIC_REPRESENTATION_CONTEXT(3) 
GLOBAL_UNCERTAINTY_ASSIGNED_CONTEXT((#125)) GLOBAL_UNIT_ASSIGNED_CONTEXT
((#122,#123,#124)) REPRESENTATION_CONTEXT('Context #1',
  '3D Context with UNIT and UNCERTAINTY') );
#122 = ( LENGTH_UNIT() NAMED_UNIT(*) SI_UNIT(.MILLI.,.METRE.) );
#123 = ( NAMED_UNIT(*) PLANE_ANGLE_UNIT() SI_UNIT($,.RADIAN.) );
#124 = ( NAMED_UNIT(*) SI_UNIT($,.STERADIAN.) SOLID_ANGLE_UNIT() );
#125 = UNCERTAINTY_MEASURE_WITH_UNIT(LENGTH_MEASURE(1.E-07),#122,
  'distance_accuracy_value','confusion accuracy');
#126 = PRODUCT_RELATED_PRODUCT_CATEGORY('part',$,(#7));
ENDSEC;
END-ISO-10303-21;
