ISO-10303-21;
HEADER;
FILE_DESCRIPTION(('Open CASCADE Model'),'2;1');
FILE_NAME('Open CASCADE Shape Model','2026-06-02T12:09:04',('Author'),(
    'Open CASCADE'),'Open CASCADE STEP processor 7.9','Open CASCADE 7.9'
  ,'Unknown');
FILE_SCHEMA(('AUTOMOTIVE_DESIGN { 1 0 10303 214 1 1 1 1 }'));
ENDSEC;
DATA;
#1 = APPLICATION_PROTOCOL_DEFINITION('international standard',
  'automotive_design',2000,#2);
#2 = APPLICATION_CONTEXT(
  'core data for automotive mechanical design processes');
#3 = SHAPE_DEFINITION_REPRESENTATION(#4,#10);
#4 = PRODUCT_DEFINITION_SHAPE('','',#5);
#5 = PRODUCT_DEFINITION('design','',#6,#9);
#6 = PRODUCT_DEFINITION_FORMATION('','',#7);
#7 = PRODUCT('Open CASCADE STEP translator 7.9 26',
  'Open CASCADE STEP translator 7.9 26','',(#8));
#8 = PRODUCT_CONTEXT('',#2,'mechanical');
#9 = PRODUCT_DEFINITION_CONTEXT('part definition',#2,'design');
#10 = MANIFOLD_SURFACE_SHAPE_REPRESENTATION('',(#11,#15),#121);
#11 = AXIS2_PLACEMENT_3D('',#12,#13,#14);
#12 = CARTESIAN_POINT('',(0.,0.,0.));
#13 = DIRECTION('',(0.,0.,1.));
#14 = DIRECTION('',(1.,0.,-0.));
#15 = SHELL_BASED_SURFACE_MODEL('',(#16));
#16 = OPEN_SHELL('',(#17));
#17 = ADVANCED_FACE('',(#18),#40,.T.);
#18 = FACE_BOUND('',#19,.T.);
#19 = EDGE_LOOP('',(#20,#59,#75,#107));
#20 = ORIENTED_EDGE('',*,*,#21,.T.);
#21 = EDGE_CURVE('',#22,#24,#26,.T.);
#22 = VERTEX_POINT('',#23);
#23 = CARTESIAN_POINT('',(0.,-14.70964992978,0.));
#24 = VERTEX_POINT('',#25);
#25 = CARTESIAN_POINT('',(1.5E+03,-12.21310866468,0.));
#26 = SURFACE_CURVE('',#27,(#39),.PCURVE_S1.);
#27 = B_SPLINE_CURVE_WITH_KNOTS('',1,(#28,#29,#30,#31,#32,#33,#34,#35,
    #36,#37,#38),.UNSPECIFIED.,.F.,.F.,(2,1,1,1,1,1,1,1,1,1,2),(0.,
    0.168660149907,0.321472324015,0.569793022961,0.592456025457,
    0.661966517146,0.711463211646,0.773885520508,0.84867909985,
    0.901889888857,1.),.UNSPECIFIED.);
#28 = CARTESIAN_POINT('',(0.,-14.70964992978,0.));
#29 = CARTESIAN_POINT('',(252.962012354,10.752123342937,0.));
#30 = CARTESIAN_POINT('',(483.12902732822,1.552631602369,0.));
#31 = CARTESIAN_POINT('',(857.44671215873,3.222818524742,0.));
#32 = CARTESIAN_POINT('',(890.29743782834,12.598521490614,0.));
#33 = CARTESIAN_POINT('',(993.1012914068,-7.659905183842,0.));
#34 = CARTESIAN_POINT('',(1.067086938727E+03,1.986629180322,0.));
#35 = CARTESIAN_POINT('',(1.161176984868E+03,0.920191974288,0.));
#36 = CARTESIAN_POINT('',(1.273515655542E+03,10.479810785603,0.));
#37 = CARTESIAN_POINT('',(1.353721061475E+03,9.572200433074,0.));
#38 = CARTESIAN_POINT('',(1.5E+03,-12.21310866468,0.));
#39 = PCURVE('',#40,#45);
#40 = PLANE('',#41);
#41 = AXIS2_PLACEMENT_3D('',#42,#43,#44);
#42 = CARTESIAN_POINT('',(749.5629531213,75.,0.));
#43 = DIRECTION('',(0.,0.,1.));
#44 = DIRECTION('',(1.,0.,-0.));
#45 = DEFINITIONAL_REPRESENTATION('',(#46),#58);
#46 = B_SPLINE_CURVE_WITH_KNOTS('',1,(#47,#48,#49,#50,#51,#52,#53,#54,
    #55,#56,#57),.UNSPECIFIED.,.F.,.F.,(2,1,1,1,1,1,1,1,1,1,2),(0.,
    0.168660149907,0.321472324015,0.569793022961,0.592456025457,
    0.661966517146,0.711463211646,0.773885520508,0.84867909985,
    0.901889888857,1.),.UNSPECIFIED.);
#47 = CARTESIAN_POINT('',(-749.5629531213,-89.70964992978));
#48 = CARTESIAN_POINT('',(-496.6009407672,-64.24787665706));
#49 = CARTESIAN_POINT('',(-266.433925793,-73.44736839763));
#50 = CARTESIAN_POINT('',(107.88375903742,-71.77718147525));
#51 = CARTESIAN_POINT('',(140.73448470704,-62.40147850938));
#52 = CARTESIAN_POINT('',(243.53833828549,-82.65990518384));
#53 = CARTESIAN_POINT('',(317.52398560588,-73.01337081967));
#54 = CARTESIAN_POINT('',(411.61403174663,-74.07980802571));
#55 = CARTESIAN_POINT('',(523.95270242062,-64.52018921439));
#56 = CARTESIAN_POINT('',(604.15810835356,-65.42779956692));
#57 = CARTESIAN_POINT('',(750.43704687869,-87.21310866468));
#58 = ( GEOMETRIC_REPRESENTATION_CONTEXT(2) 
PARAMETRIC_REPRESENTATION_CONTEXT() REPRESENTATION_CONTEXT('2D SPACE',''
  ) );
#59 = ORIENTED_EDGE('',*,*,#60,.T.);
#60 = EDGE_CURVE('',#24,#61,#63,.T.);
#61 = VERTEX_POINT('',#62);
#62 = CARTESIAN_POINT('',(1.5E+03,162.21310866468,0.));
#63 = SURFACE_CURVE('',#64,(#68),.PCURVE_S1.);
#64 = LINE('',#65,#66);
#65 = CARTESIAN_POINT('',(1.5E+03,-12.21310866468,0.));
#66 = VECTOR('',#67,1.);
#67 = DIRECTION('',(0.,1.,0.));
#68 = PCURVE('',#40,#69);
#69 = DEFINITIONAL_REPRESENTATION('',(#70),#74);
#70 = LINE('',#71,#72);
#71 = CARTESIAN_POINT('',(750.43704687869,-87.21310866468));
#72 = VECTOR('',#73,1.);
#73 = DIRECTION('',(0.,1.));
#74 = ( GEOMETRIC_REPRESENTATION_CONTEXT(2) 
PARAMETRIC_REPRESENTATION_CONTEXT() REPRESENTATION_CONTEXT('2D SPACE',''
  ) );
#75 = ORIENTED_EDGE('',*,*,#76,.T.);
#76 = EDGE_CURVE('',#61,#77,#79,.T.);
#77 = VERTEX_POINT('',#78);
#78 = CARTESIAN_POINT('',(0.,164.70964992978,0.));
#79 = SURFACE_CURVE('',#80,(#92),.PCURVE_S1.);
#80 = B_SPLINE_CURVE_WITH_KNOTS('',1,(#81,#82,#83,#84,#85,#86,#87,#88,
    #89,#90,#91),.UNSPECIFIED.,.F.,.F.,(2,1,1,1,1,1,1,1,1,1,2),(0.,
    9.811011114296E-02,0.15132090015,0.226114479492,0.288536788354,
    0.338033482854,0.407543974543,0.430206977039,0.678527675985,
    0.831339850093,1.),.UNSPECIFIED.);
#81 = CARTESIAN_POINT('',(1.5E+03,162.21310866468,0.));
#82 = CARTESIAN_POINT('',(1.353721061475E+03,140.42779956692,0.));
#83 = CARTESIAN_POINT('',(1.273515655542E+03,139.52018921439,0.));
#84 = CARTESIAN_POINT('',(1.161176984868E+03,149.07980802571,0.));
#85 = CARTESIAN_POINT('',(1.067086938727E+03,148.01337081967,0.));
#86 = CARTESIAN_POINT('',(993.1012914068,157.65990518384,0.));
#87 = CARTESIAN_POINT('',(890.29743782834,137.40147850938,0.));
#88 = CARTESIAN_POINT('',(857.44671215873,146.77718147525,0.));
#89 = CARTESIAN_POINT('',(483.12902732822,148.44736839763,0.));
#90 = CARTESIAN_POINT('',(252.962012354,139.24787665706,0.));
#91 = CARTESIAN_POINT('',(0.,164.70964992978,0.));
#92 = PCURVE('',#40,#93);
#93 = DEFINITIONAL_REPRESENTATION('',(#94),#106);
#94 = B_SPLINE_CURVE_WITH_KNOTS('',1,(#95,#96,#97,#98,#99,#100,#101,#102
    ,#103,#104,#105),.UNSPECIFIED.,.F.,.F.,(2,1,1,1,1,1,1,1,1,1,2),(0.,
    9.811011114296E-02,0.15132090015,0.226114479492,0.288536788354,
    0.338033482854,0.407543974543,0.430206977039,0.678527675985,
    0.831339850093,1.),.UNSPECIFIED.);
#95 = CARTESIAN_POINT('',(750.43704687869,87.213108664686));
#96 = CARTESIAN_POINT('',(604.15810835356,65.427799566926));
#97 = CARTESIAN_POINT('',(523.95270242062,64.520189214397));
#98 = CARTESIAN_POINT('',(411.61403174663,74.079808025712));
#99 = CARTESIAN_POINT('',(317.52398560588,73.013370819678));
#100 = CARTESIAN_POINT('',(243.53833828549,82.659905183842));
#101 = CARTESIAN_POINT('',(140.73448470704,62.401478509386));
#102 = CARTESIAN_POINT('',(107.88375903742,71.777181475258));
#103 = CARTESIAN_POINT('',(-266.433925793,73.447368397631));
#104 = CARTESIAN_POINT('',(-496.6009407672,64.247876657063));
#105 = CARTESIAN_POINT('',(-749.5629531213,89.709649929788));
#106 = ( GEOMETRIC_REPRESENTATION_CONTEXT(2) 
PARAMETRIC_REPRESENTATION_CONTEXT() REPRESENTATION_CONTEXT('2D SPACE',''
  ) );
#107 = ORIENTED_EDGE('',*,*,#108,.T.);
#108 = EDGE_CURVE('',#77,#22,#109,.T.);
#109 = SURFACE_CURVE('',#110,(#114),.PCURVE_S1.);
#110 = LINE('',#111,#112);
#111 = CARTESIAN_POINT('',(0.,164.70964992978,0.));
#112 = VECTOR('',#113,1.);
#113 = DIRECTION('',(0.,-1.,0.));
#114 = PCURVE('',#40,#115);
#115 = DEFINITIONAL_REPRESENTATION('',(#116),#120);
#116 = LINE('',#117,#118);
#117 = CARTESIAN_POINT('',(-749.5629531213,89.709649929788));
#118 = VECTOR('',#119,1.);
#119 = DIRECTION('',(0.,-1.));
#120 = ( GEOMETRIC_REPRESENTATION_CONTEXT(2) 
PARAMETRIC_REPRESENTATION_CONTEXT() REPRESENTATION_CONTEXT('2D SPACE',''
  ) );
#121 = ( GEOMETRIC_REPRESENTATION_CONTEXT(3) 
GLOBAL_UNCERTAINTY_ASSIGNED_CONTEXT((#125)) GLOBAL_UNIT_ASSIGNED_CONTEXT
((#122,#123,#124)) REPRESENTATION_CONTEXT('Context #1',
  '3D Context with UNIT and UNCERTAINTY') );
#122 = ( LENGTH_UNIT() NAMED_UNIT(*) SI_UNIT(.MILLI.,.METRE.) );
#123 = ( NAMED_UNIT(*) PLANE_ANGLE_UNIT() SI_UNIT($,.RADIAN.) );
#124 = ( NAMED_UNIT(*) SI_UNIT($,.STERADIAN.) SOLID_ANGLE_UNIT() );
#125 = UNCERTAINTY_MEASURE_WITH_UNIT(LENGTH_MEASURE(1.E-07),#122,
  'distance_accuracy_value','confusion accuracy');
#126 = PRODUCT_RELATED_PRODUCT_CATEGORY('part',$,(#7));
ENDSEC;
END-ISO-10303-21;
