ISO-10303-21;
HEADER;
FILE_DESCRIPTION(('Open CASCADE Model'),'2;1');
FILE_NAME('Open CASCADE Shape Model','2026-06-02T12:09:04',('Author'),(
    'Open CASCADE'),'Open CASCADE STEP processor 7.9','Open CASCADE 7.9'
  ,'Unknown');
FILE_SCHEMA(('AUTOMOTIVE_DESIGN { 1 0 10303 214 1 1 1 1 }'));
ENDSEC;
DATA;
#1 = APPLICATION_PROTOCOL_DEFINITION('international standard',
  'automotive_design',2000,#2);
#2 = APPLICATION_CONTEXT(
  'core data for automotive mechanical design processes');
#3 = SHAPE_DEFINITION_REPRESENTATION(#4,#10);
#4 = PRODUCT_DEFINITION_SHAPE('','',#5);
#5 = PRODUCT_DEFINITION('design','',#6,#9);
#6 = PRODUCT_DEFINITION_FORMATION('','',#7);
#7 = PRODUCT('Open CASCADE STEP translator 7.9 80',
  'Open CASCADE STEP translator 7.9 80','',(#8));
#8 = PRODUCT_CONTEXT('',#2,'mechanical');
#9 = PRODUCT_DEFINITION_CONTEXT('part definition',#2,'design');
#10 = MANIFOLD_SURFACE_SHAPE_REPRESENTATION('',(#11,#15),#121);
#11 = AXIS2_PLACEMENT_3D('',#12,#13,#14);
#12 = CARTESIAN_POINT('',(0.,0.,0.));
#13 = DIRECTION('',(0.,0.,1.));
#14 = DIRECTION('',(1.,0.,-0.));
#15 = SHELL_BASED_SURFACE_MODEL('',(#16));
#16 = OPEN_SHELL('',(#17));
#17 = ADVANCED_FACE('',(#18),#40,.T.);
#18 = FACE_BOUND('',#19,.T.);
#19 = EDGE_LOOP('',(#20,#59,#75,#107));
#20 = ORIENTED_EDGE('',*,*,#21,.T.);
#21 = EDGE_CURVE('',#22,#24,#26,.T.);
#22 = VERTEX_POINT('',#23);
#23 = CARTESIAN_POINT('',(0.,9.344092983775,0.));
#24 = VERTEX_POINT('',#25);
#25 = CARTESIAN_POINT('',(1.5E+03,12.185765279768,0.));
#26 = SURFACE_CURVE('',#27,(#39),.PCURVE_S1.);
#27 = B_SPLINE_CURVE_WITH_KNOTS('',1,(#28,#29,#30,#31,#32,#33,#34,#35,
    #36,#37,#38),.UNSPECIFIED.,.F.,.F.,(2,1,1,1,1,1,1,1,1,1,2),(0.,
    5.21905454117E-02,0.246002525446,0.321919072339,0.41972554686,
    0.669132817388,0.757833835122,0.782119569722,0.863503860781,
    0.957553535146,1.),.UNSPECIFIED.);
#28 = CARTESIAN_POINT('',(0.,9.344092983775,0.));
#29 = CARTESIAN_POINT('',(76.76684539664,-8.856967757481,0.));
#30 = CARTESIAN_POINT('',(369.70516583332,-13.81878856886,0.));
#31 = CARTESIAN_POINT('',(484.24235365849,-6.655089967008,0.));
#32 = CARTESIAN_POINT('',(631.97676413214,-12.53579989877,0.));
#33 = CARTESIAN_POINT('',(1.008993753068E+03,-14.52555794844,0.));
#34 = CARTESIAN_POINT('',(1.141732862913E+03,4.438479772823,0.));
#35 = CARTESIAN_POINT('',(1.1774270094E+03,-4.14670658779,0.));
#36 = CARTESIAN_POINT('',(1.300354677966E+03,0.782017870858,0.));
#37 = CARTESIAN_POINT('',(1.441692595299E+03,-14.59886240589,0.));
#38 = CARTESIAN_POINT('',(1.5E+03,12.185765279768,0.));
#39 = PCURVE('',#40,#45);
#40 = PLANE('',#41);
#41 = AXIS2_PLACEMENT_3D('',#42,#43,#44);
#42 = CARTESIAN_POINT('',(751.14763369753,75.,0.));
#43 = DIRECTION('',(0.,0.,1.));
#44 = DIRECTION('',(1.,0.,-0.));
#45 = DEFINITIONAL_REPRESENTATION('',(#46),#58);
#46 = B_SPLINE_CURVE_WITH_KNOTS('',1,(#47,#48,#49,#50,#51,#52,#53,#54,
    #55,#56,#57),.UNSPECIFIED.,.F.,.F.,(2,1,1,1,1,1,1,1,1,1,2),(0.,
    5.21905454117E-02,0.246002525446,0.321919072339,0.41972554686,
    0.669132817388,0.757833835122,0.782119569722,0.863503860781,
    0.957553535146,1.),.UNSPECIFIED.);
#47 = CARTESIAN_POINT('',(-751.1476336975,-65.65590701622));
#48 = CARTESIAN_POINT('',(-674.3807883008,-83.85696775748));
#49 = CARTESIAN_POINT('',(-381.4424678642,-88.81878856886));
#50 = CARTESIAN_POINT('',(-266.905280039,-81.655089967));
#51 = CARTESIAN_POINT('',(-119.1708695653,-87.53579989877));
#52 = CARTESIAN_POINT('',(257.84611936999,-89.52555794844));
#53 = CARTESIAN_POINT('',(390.58522921576,-70.56152022717));
#54 = CARTESIAN_POINT('',(426.27937570237,-79.14670658779));
#55 = CARTESIAN_POINT('',(549.20704426817,-74.21798212914));
#56 = CARTESIAN_POINT('',(690.54496160106,-89.59886240589));
#57 = CARTESIAN_POINT('',(748.85236630246,-62.81423472023));
#58 = ( GEOMETRIC_REPRESENTATION_CONTEXT(2) 
PARAMETRIC_REPRESENTATION_CONTEXT() REPRESENTATION_CONTEXT('2D SPACE',''
  ) );
#59 = ORIENTED_EDGE('',*,*,#60,.T.);
#60 = EDGE_CURVE('',#24,#61,#63,.T.);
#61 = VERTEX_POINT('',#62);
#62 = CARTESIAN_POINT('',(1.5E+03,137.81423472023,0.));
#63 = SURFACE_CURVE('',#64,(#68),.PCURVE_S1.);
#64 = LINE('',#65,#66);
#65 = CARTESIAN_POINT('',(1.5E+03,12.185765279768,0.));
#66 = VECTOR('',#67,1.);
#67 = DIRECTION('',(0.,1.,0.));
#68 = PCURVE('',#40,#69);
#69 = DEFINITIONAL_REPRESENTATION('',(#70),#74);
#70 = LINE('',#71,#72);
#71 = CARTESIAN_POINT('',(748.85236630246,-62.81423472023));
#72 = VECTOR('',#73,1.);
#73 = DIRECTION('',(0.,1.));
#74 = ( GEOMETRIC_REPRESENTATION_CONTEXT(2) 
PARAMETRIC_REPRESENTATION_CONTEXT() REPRESENTATION_CONTEXT('2D SPACE',''
  ) );
#75 = ORIENTED_EDGE('',*,*,#76,.T.);
#76 = EDGE_CURVE('',#61,#77,#79,.T.);
#77 = VERTEX_POINT('',#78);
#78 = CARTESIAN_POINT('',(0.,140.65590701622,0.));
#79 = SURFACE_CURVE('',#80,(#92),.PCURVE_S1.);
#80 = B_SPLINE_CURVE_WITH_KNOTS('',1,(#81,#82,#83,#84,#85,#86,#87,#88,
    #89,#90,#91),.UNSPECIFIED.,.F.,.F.,(2,1,1,1,1,1,1,1,1,1,2),(0.,
    4.244646485402E-02,0.136496139219,0.217880430278,0.242166164878,
    0.330867182612,0.58027445314,0.678080927661,0.753997474554,
    0.947809454588,1.),.UNSPECIFIED.);
#81 = CARTESIAN_POINT('',(1.5E+03,137.81423472023,0.));
#82 = CARTESIAN_POINT('',(1.441692595299E+03,164.59886240589,0.));
#83 = CARTESIAN_POINT('',(1.300354677966E+03,149.21798212914,0.));
#84 = CARTESIAN_POINT('',(1.1774270094E+03,154.14670658779,0.));
#85 = CARTESIAN_POINT('',(1.141732862913E+03,145.56152022717,0.));
#86 = CARTESIAN_POINT('',(1.008993753068E+03,164.52555794844,0.));
#87 = CARTESIAN_POINT('',(631.97676413214,162.53579989877,0.));
#88 = CARTESIAN_POINT('',(484.24235365849,156.655089967,0.));
#89 = CARTESIAN_POINT('',(369.70516583332,163.81878856886,0.));
#90 = CARTESIAN_POINT('',(76.76684539664,158.85696775748,0.));
#91 = CARTESIAN_POINT('',(0.,140.65590701622,0.));
#92 = PCURVE('',#40,#93);
#93 = DEFINITIONAL_REPRESENTATION('',(#94),#106);
#94 = B_SPLINE_CURVE_WITH_KNOTS('',1,(#95,#96,#97,#98,#99,#100,#101,#102
    ,#103,#104,#105),.UNSPECIFIED.,.F.,.F.,(2,1,1,1,1,1,1,1,1,1,2),(0.,
    4.244646485402E-02,0.136496139219,0.217880430278,0.242166164878,
    0.330867182612,0.58027445314,0.678080927661,0.753997474554,
    0.947809454588,1.),.UNSPECIFIED.);
#95 = CARTESIAN_POINT('',(748.85236630246,62.814234720232));
#96 = CARTESIAN_POINT('',(690.54496160106,89.598862405897));
#97 = CARTESIAN_POINT('',(549.20704426817,74.217982129142));
#98 = CARTESIAN_POINT('',(426.27937570237,79.14670658779));
#99 = CARTESIAN_POINT('',(390.58522921576,70.561520227177));
#100 = CARTESIAN_POINT('',(257.84611936999,89.52555794844));
#101 = CARTESIAN_POINT('',(-119.1708695653,87.535799898772));
#102 = CARTESIAN_POINT('',(-266.905280039,81.655089967008));
#103 = CARTESIAN_POINT('',(-381.4424678642,88.818788568865));
#104 = CARTESIAN_POINT('',(-674.3807883008,83.856967757481));
#105 = CARTESIAN_POINT('',(-751.1476336975,65.655907016225));
#106 = ( GEOMETRIC_REPRESENTATION_CONTEXT(2) 
PARAMETRIC_REPRESENTATION_CONTEXT() REPRESENTATION_CONTEXT('2D SPACE',''
  ) );
#107 = ORIENTED_EDGE('',*,*,#108,.T.);
#108 = EDGE_CURVE('',#77,#22,#109,.T.);
#109 = SURFACE_CURVE('',#110,(#114),.PCURVE_S1.);
#110 = LINE('',#111,#112);
#111 = CARTESIAN_POINT('',(0.,140.65590701622,0.));
#112 = VECTOR('',#113,1.);
#113 = DIRECTION('',(0.,-1.,0.));
#114 = PCURVE('',#40,#115);
#115 = DEFINITIONAL_REPRESENTATION('',(#116),#120);
#116 = LINE('',#117,#118);
#117 = CARTESIAN_POINT('',(-751.1476336975,65.655907016225));
#118 = VECTOR('',#119,1.);
#119 = DIRECTION('',(0.,-1.));
#120 = ( GEOMETRIC_REPRESENTATION_CONTEXT(2) 
PARAMETRIC_REPRESENTATION_CONTEXT() REPRESENTATION_CONTEXT('2D SPACE',''
  ) );
#121 = ( GEOMETRIC_REPRESENTATION_CONTEXT(3) 
GLOBAL_UNCERTAINTY_ASSIGNED_CONTEXT((#125)) GLOBAL_UNIT_ASSIGNED_CONTEXT
((#122,#123,#124)) REPRESENTATION_CONTEXT('Context #1',
  '3D Context with UNIT and UNCERTAINTY') );
#122 = ( LENGTH_UNIT() NAMED_UNIT(*) SI_UNIT(.MILLI.,.METRE.) );
#123 = ( NAMED_UNIT(*) PLANE_ANGLE_UNIT() SI_UNIT($,.RADIAN.) );
#124 = ( NAMED_UNIT(*) SI_UNIT($,.STERADIAN.) SOLID_ANGLE_UNIT() );
#125 = UNCERTAINTY_MEASURE_WITH_UNIT(LENGTH_MEASURE(1.E-07),#122,
  'distance_accuracy_value','confusion accuracy');
#126 = PRODUCT_RELATED_PRODUCT_CATEGORY('part',$,(#7));
ENDSEC;
END-ISO-10303-21;
