ISO-10303-21;
HEADER;
FILE_DESCRIPTION(('Open CASCADE Model'),'2;1');
FILE_NAME('Open CASCADE Shape Model','2026-06-02T12:09:04',('Author'),(
    'Open CASCADE'),'Open CASCADE STEP processor 7.9','Open CASCADE 7.9'
  ,'Unknown');
FILE_SCHEMA(('AUTOMOTIVE_DESIGN { 1 0 10303 214 1 1 1 1 }'));
ENDSEC;
DATA;
#1 = APPLICATION_PROTOCOL_DEFINITION('international standard',
  'automotive_design',2000,#2);
#2 = APPLICATION_CONTEXT(
  'core data for automotive mechanical design processes');
#3 = SHAPE_DEFINITION_REPRESENTATION(#4,#10);
#4 = PRODUCT_DEFINITION_SHAPE('','',#5);
#5 = PRODUCT_DEFINITION('design','',#6,#9);
#6 = PRODUCT_DEFINITION_FORMATION('','',#7);
#7 = PRODUCT('Open CASCADE STEP translator 7.9 3',
  'Open CASCADE STEP translator 7.9 3','',(#8));
#8 = PRODUCT_CONTEXT('',#2,'mechanical');
#9 = PRODUCT_DEFINITION_CONTEXT('part definition',#2,'design');
#10 = MANIFOLD_SURFACE_SHAPE_REPRESENTATION('',(#11,#15),#121);
#11 = AXIS2_PLACEMENT_3D('',#12,#13,#14);
#12 = CARTESIAN_POINT('',(0.,0.,0.));
#13 = DIRECTION('',(0.,0.,1.));
#14 = DIRECTION('',(1.,0.,-0.));
#15 = SHELL_BASED_SURFACE_MODEL('',(#16));
#16 = OPEN_SHELL('',(#17));
#17 = ADVANCED_FACE('',(#18),#40,.T.);
#18 = FACE_BOUND('',#19,.T.);
#19 = EDGE_LOOP('',(#20,#59,#75,#107));
#20 = ORIENTED_EDGE('',*,*,#21,.T.);
#21 = EDGE_CURVE('',#22,#24,#26,.T.);
#22 = VERTEX_POINT('',#23);
#23 = CARTESIAN_POINT('',(0.,-8.607731325064,0.));
#24 = VERTEX_POINT('',#25);
#25 = CARTESIAN_POINT('',(1.5E+03,-1.957083194436,0.));
#26 = SURFACE_CURVE('',#27,(#39),.PCURVE_S1.);
#27 = B_SPLINE_CURVE_WITH_KNOTS('',1,(#28,#29,#30,#31,#32,#33,#34,#35,
    #36,#37,#38),.UNSPECIFIED.,.F.,.F.,(2,1,1,1,1,1,1,1,1,1,2),(0.,
    0.166369752067,0.196194834229,0.3693034802,0.572253545855,
    0.743745327474,0.802147129904,0.865442042533,0.909194566105,
    0.977115838379,1.),.UNSPECIFIED.);
#28 = CARTESIAN_POINT('',(0.,-8.607731325064,0.));
#29 = CARTESIAN_POINT('',(250.12652153162,-4.945525697761,0.));
#30 = CARTESIAN_POINT('',(294.95516221902,-6.15496135879,0.));
#31 = CARTESIAN_POINT('',(555.23121204563,-8.421870930659,0.));
#32 = CARTESIAN_POINT('',(860.23389178203,1.23252673385,0.));
#33 = CARTESIAN_POINT('',(1.118067647968E+03,-2.062235878587,0.));
#34 = CARTESIAN_POINT('',(1.204932521591E+03,10.80609005617,0.));
#35 = CARTESIAN_POINT('',(1.300099646305E+03,11.564097793921,0.));
#36 = CARTESIAN_POINT('',(1.363752854769E+03,-5.052088853714,0.));
#37 = CARTESIAN_POINT('',(1.465707504542E+03,0.867113815706,0.));
#38 = CARTESIAN_POINT('',(1.5E+03,-1.957083194436,0.));
#39 = PCURVE('',#40,#45);
#40 = PLANE('',#41);
#41 = AXIS2_PLACEMENT_3D('',#42,#43,#44);
#42 = CARTESIAN_POINT('',(748.08608243352,75.,0.));
#43 = DIRECTION('',(0.,0.,1.));
#44 = DIRECTION('',(1.,0.,-0.));
#45 = DEFINITIONAL_REPRESENTATION('',(#46),#58);
#46 = B_SPLINE_CURVE_WITH_KNOTS('',1,(#47,#48,#49,#50,#51,#52,#53,#54,
    #55,#56,#57),.UNSPECIFIED.,.F.,.F.,(2,1,1,1,1,1,1,1,1,1,2),(0.,
    0.166369752067,0.196194834229,0.3693034802,0.572253545855,
    0.743745327474,0.802147129904,0.865442042533,0.909194566105,
    0.977115838379,1.),.UNSPECIFIED.);
#47 = CARTESIAN_POINT('',(-748.0860824335,-83.60773132506));
#48 = CARTESIAN_POINT('',(-497.9595609018,-79.94552569776));
#49 = CARTESIAN_POINT('',(-453.1309202145,-81.15496135879));
#50 = CARTESIAN_POINT('',(-192.8548703878,-83.42187093065));
#51 = CARTESIAN_POINT('',(112.1478093485,-73.76747326615));
#52 = CARTESIAN_POINT('',(369.98156553493,-77.06223587858));
#53 = CARTESIAN_POINT('',(456.84643915797,-64.19390994383));
#54 = CARTESIAN_POINT('',(552.01356387136,-63.43590220607));
#55 = CARTESIAN_POINT('',(615.66677233547,-80.05208885371));
#56 = CARTESIAN_POINT('',(717.62142210835,-74.13288618429));
#57 = CARTESIAN_POINT('',(751.91391756647,-76.95708319443));
#58 = ( GEOMETRIC_REPRESENTATION_CONTEXT(2) 
PARAMETRIC_REPRESENTATION_CONTEXT() REPRESENTATION_CONTEXT('2D SPACE',''
  ) );
#59 = ORIENTED_EDGE('',*,*,#60,.T.);
#60 = EDGE_CURVE('',#24,#61,#63,.T.);
#61 = VERTEX_POINT('',#62);
#62 = CARTESIAN_POINT('',(1.5E+03,151.95708319443,0.));
#63 = SURFACE_CURVE('',#64,(#68),.PCURVE_S1.);
#64 = LINE('',#65,#66);
#65 = CARTESIAN_POINT('',(1.5E+03,-1.957083194436,0.));
#66 = VECTOR('',#67,1.);
#67 = DIRECTION('',(0.,1.,0.));
#68 = PCURVE('',#40,#69);
#69 = DEFINITIONAL_REPRESENTATION('',(#70),#74);
#70 = LINE('',#71,#72);
#71 = CARTESIAN_POINT('',(751.91391756647,-76.95708319443));
#72 = VECTOR('',#73,1.);
#73 = DIRECTION('',(0.,1.));
#74 = ( GEOMETRIC_REPRESENTATION_CONTEXT(2) 
PARAMETRIC_REPRESENTATION_CONTEXT() REPRESENTATION_CONTEXT('2D SPACE',''
  ) );
#75 = ORIENTED_EDGE('',*,*,#76,.T.);
#76 = EDGE_CURVE('',#61,#77,#79,.T.);
#77 = VERTEX_POINT('',#78);
#78 = CARTESIAN_POINT('',(0.,158.60773132506,0.));
#79 = SURFACE_CURVE('',#80,(#92),.PCURVE_S1.);
#80 = B_SPLINE_CURVE_WITH_KNOTS('',1,(#81,#82,#83,#84,#85,#86,#87,#88,
    #89,#90,#91),.UNSPECIFIED.,.F.,.F.,(2,1,1,1,1,1,1,1,1,1,2),(0.,
    2.288416162147E-02,9.0805433895E-02,0.134557957467,0.197852870096,
    0.256254672526,0.427746454145,0.6306965198,0.803805165771,
    0.833630247933,1.),.UNSPECIFIED.);
#81 = CARTESIAN_POINT('',(1.5E+03,151.95708319443,0.));
#82 = CARTESIAN_POINT('',(1.465707504542E+03,149.13288618429,0.));
#83 = CARTESIAN_POINT('',(1.363752854769E+03,155.05208885371,0.));
#84 = CARTESIAN_POINT('',(1.300099646305E+03,138.43590220607,0.));
#85 = CARTESIAN_POINT('',(1.204932521591E+03,139.19390994383,0.));
#86 = CARTESIAN_POINT('',(1.118067647968E+03,152.06223587858,0.));
#87 = CARTESIAN_POINT('',(860.23389178203,148.76747326615,0.));
#88 = CARTESIAN_POINT('',(555.23121204563,158.42187093065,0.));
#89 = CARTESIAN_POINT('',(294.95516221902,156.15496135879,0.));
#90 = CARTESIAN_POINT('',(250.12652153162,154.94552569776,0.));
#91 = CARTESIAN_POINT('',(0.,158.60773132506,0.));
#92 = PCURVE('',#40,#93);
#93 = DEFINITIONAL_REPRESENTATION('',(#94),#106);
#94 = B_SPLINE_CURVE_WITH_KNOTS('',1,(#95,#96,#97,#98,#99,#100,#101,#102
    ,#103,#104,#105),.UNSPECIFIED.,.F.,.F.,(2,1,1,1,1,1,1,1,1,1,2),(0.,
    2.288416162147E-02,9.0805433895E-02,0.134557957467,0.197852870096,
    0.256254672526,0.427746454145,0.6306965198,0.803805165771,
    0.833630247933,1.),.UNSPECIFIED.);
#95 = CARTESIAN_POINT('',(751.91391756647,76.957083194436));
#96 = CARTESIAN_POINT('',(717.62142210835,74.132886184294));
#97 = CARTESIAN_POINT('',(615.66677233547,80.052088853714));
#98 = CARTESIAN_POINT('',(552.01356387136,63.435902206079));
#99 = CARTESIAN_POINT('',(456.84643915797,64.19390994383));
#100 = CARTESIAN_POINT('',(369.98156553493,77.062235878587));
#101 = CARTESIAN_POINT('',(112.1478093485,73.76747326615));
#102 = CARTESIAN_POINT('',(-192.8548703878,83.421870930659));
#103 = CARTESIAN_POINT('',(-453.1309202145,81.15496135879));
#104 = CARTESIAN_POINT('',(-497.9595609018,79.945525697761));
#105 = CARTESIAN_POINT('',(-748.0860824335,83.607731325064));
#106 = ( GEOMETRIC_REPRESENTATION_CONTEXT(2) 
PARAMETRIC_REPRESENTATION_CONTEXT() REPRESENTATION_CONTEXT('2D SPACE',''
  ) );
#107 = ORIENTED_EDGE('',*,*,#108,.T.);
#108 = EDGE_CURVE('',#77,#22,#109,.T.);
#109 = SURFACE_CURVE('',#110,(#114),.PCURVE_S1.);
#110 = LINE('',#111,#112);
#111 = CARTESIAN_POINT('',(0.,158.60773132506,0.));
#112 = VECTOR('',#113,1.);
#113 = DIRECTION('',(0.,-1.,0.));
#114 = PCURVE('',#40,#115);
#115 = DEFINITIONAL_REPRESENTATION('',(#116),#120);
#116 = LINE('',#117,#118);
#117 = CARTESIAN_POINT('',(-748.0860824335,83.607731325064));
#118 = VECTOR('',#119,1.);
#119 = DIRECTION('',(0.,-1.));
#120 = ( GEOMETRIC_REPRESENTATION_CONTEXT(2) 
PARAMETRIC_REPRESENTATION_CONTEXT() REPRESENTATION_CONTEXT('2D SPACE',''
  ) );
#121 = ( GEOMETRIC_REPRESENTATION_CONTEXT(3) 
GLOBAL_UNCERTAINTY_ASSIGNED_CONTEXT((#125)) GLOBAL_UNIT_ASSIGNED_CONTEXT
((#122,#123,#124)) REPRESENTATION_CONTEXT('Context #1',
  '3D Context with UNIT and UNCERTAINTY') );
#122 = ( LENGTH_UNIT() NAMED_UNIT(*) SI_UNIT(.MILLI.,.METRE.) );
#123 = ( NAMED_UNIT(*) PLANE_ANGLE_UNIT() SI_UNIT($,.RADIAN.) );
#124 = ( NAMED_UNIT(*) SI_UNIT($,.STERADIAN.) SOLID_ANGLE_UNIT() );
#125 = UNCERTAINTY_MEASURE_WITH_UNIT(LENGTH_MEASURE(1.E-07),#122,
  'distance_accuracy_value','confusion accuracy');
#126 = PRODUCT_RELATED_PRODUCT_CATEGORY('part',$,(#7));
ENDSEC;
END-ISO-10303-21;
