ISO-10303-21;
HEADER;
FILE_DESCRIPTION(('Open CASCADE Model'),'2;1');
FILE_NAME('Open CASCADE Shape Model','2026-06-02T12:09:04',('Author'),(
    'Open CASCADE'),'Open CASCADE STEP processor 7.9','Open CASCADE 7.9'
  ,'Unknown');
FILE_SCHEMA(('AUTOMOTIVE_DESIGN { 1 0 10303 214 1 1 1 1 }'));
ENDSEC;
DATA;
#1 = APPLICATION_PROTOCOL_DEFINITION('international standard',
  'automotive_design',2000,#2);
#2 = APPLICATION_CONTEXT(
  'core data for automotive mechanical design processes');
#3 = SHAPE_DEFINITION_REPRESENTATION(#4,#10);
#4 = PRODUCT_DEFINITION_SHAPE('','',#5);
#5 = PRODUCT_DEFINITION('design','',#6,#9);
#6 = PRODUCT_DEFINITION_FORMATION('','',#7);
#7 = PRODUCT('Open CASCADE STEP translator 7.9 47',
  'Open CASCADE STEP translator 7.9 47','',(#8));
#8 = PRODUCT_CONTEXT('',#2,'mechanical');
#9 = PRODUCT_DEFINITION_CONTEXT('part definition',#2,'design');
#10 = MANIFOLD_SURFACE_SHAPE_REPRESENTATION('',(#11,#15),#121);
#11 = AXIS2_PLACEMENT_3D('',#12,#13,#14);
#12 = CARTESIAN_POINT('',(0.,0.,0.));
#13 = DIRECTION('',(0.,0.,1.));
#14 = DIRECTION('',(1.,0.,-0.));
#15 = SHELL_BASED_SURFACE_MODEL('',(#16));
#16 = OPEN_SHELL('',(#17));
#17 = ADVANCED_FACE('',(#18),#40,.T.);
#18 = FACE_BOUND('',#19,.T.);
#19 = EDGE_LOOP('',(#20,#59,#75,#107));
#20 = ORIENTED_EDGE('',*,*,#21,.T.);
#21 = EDGE_CURVE('',#22,#24,#26,.T.);
#22 = VERTEX_POINT('',#23);
#23 = CARTESIAN_POINT('',(0.,1.860311912389,0.));
#24 = VERTEX_POINT('',#25);
#25 = CARTESIAN_POINT('',(1.5E+03,3.212178252893,0.));
#26 = SURFACE_CURVE('',#27,(#39),.PCURVE_S1.);
#27 = B_SPLINE_CURVE_WITH_KNOTS('',1,(#28,#29,#30,#31,#32,#33,#34,#35,
    #36,#37,#38),.UNSPECIFIED.,.F.,.F.,(2,1,1,1,1,1,1,1,1,1,2),(0.,
    9.377171402317E-02,0.153119721358,0.188110422421,0.222642799789,
    0.493625161984,0.609036488444,0.662815816443,0.789183097681,
    0.864087236574,1.),.UNSPECIFIED.);
#28 = CARTESIAN_POINT('',(0.,1.860311912389,0.));
#29 = CARTESIAN_POINT('',(142.21115968251,-4.170409477925,0.));
#30 = CARTESIAN_POINT('',(230.24901549089,14.930736822398,0.));
#31 = CARTESIAN_POINT('',(274.26106544837,-14.80105495233,0.));
#32 = CARTESIAN_POINT('',(322.12301971007,6.573108421075,0.));
#33 = CARTESIAN_POINT('',(733.40310388523,13.138106803795,0.));
#34 = CARTESIAN_POINT('',(908.18583045492,1.252138753905,0.));
#35 = CARTESIAN_POINT('',(989.21941105275,11.129098284539,0.));
#36 = CARTESIAN_POINT('',(1.181034927699E+03,10.430198695273,0.));
#37 = CARTESIAN_POINT('',(1.293818830988E+03,-3.968484390906,0.));
#38 = CARTESIAN_POINT('',(1.5E+03,3.212178252893,0.));
#39 = PCURVE('',#40,#45);
#40 = PLANE('',#41);
#41 = AXIS2_PLACEMENT_3D('',#42,#43,#44);
#42 = CARTESIAN_POINT('',(745.08051907262,75.,0.));
#43 = DIRECTION('',(0.,0.,1.));
#44 = DIRECTION('',(1.,0.,-0.));
#45 = DEFINITIONAL_REPRESENTATION('',(#46),#58);
#46 = B_SPLINE_CURVE_WITH_KNOTS('',1,(#47,#48,#49,#50,#51,#52,#53,#54,
    #55,#56,#57),.UNSPECIFIED.,.F.,.F.,(2,1,1,1,1,1,1,1,1,1,2),(0.,
    9.377171402317E-02,0.153119721358,0.188110422421,0.222642799789,
    0.493625161984,0.609036488444,0.662815816443,0.789183097681,
    0.864087236574,1.),.UNSPECIFIED.);
#47 = CARTESIAN_POINT('',(-745.0805190726,-73.13968808761));
#48 = CARTESIAN_POINT('',(-602.8693593901,-79.17040947792));
#49 = CARTESIAN_POINT('',(-514.8315035817,-60.0692631776));
#50 = CARTESIAN_POINT('',(-470.8194536242,-89.80105495233));
#51 = CARTESIAN_POINT('',(-422.9574993625,-68.42689157892));
#52 = CARTESIAN_POINT('',(-11.67741518739,-61.8618931962));
#53 = CARTESIAN_POINT('',(163.10531138229,-73.74786124609));
#54 = CARTESIAN_POINT('',(244.13889198012,-63.87090171546));
#55 = CARTESIAN_POINT('',(435.95440862657,-64.56980130472));
#56 = CARTESIAN_POINT('',(548.73831191494,-78.9684843909));
#57 = CARTESIAN_POINT('',(754.91948092737,-71.7878217471));
#58 = ( GEOMETRIC_REPRESENTATION_CONTEXT(2) 
PARAMETRIC_REPRESENTATION_CONTEXT() REPRESENTATION_CONTEXT('2D SPACE',''
  ) );
#59 = ORIENTED_EDGE('',*,*,#60,.T.);
#60 = EDGE_CURVE('',#24,#61,#63,.T.);
#61 = VERTEX_POINT('',#62);
#62 = CARTESIAN_POINT('',(1.5E+03,146.7878217471,0.));
#63 = SURFACE_CURVE('',#64,(#68),.PCURVE_S1.);
#64 = LINE('',#65,#66);
#65 = CARTESIAN_POINT('',(1.5E+03,3.212178252893,0.));
#66 = VECTOR('',#67,1.);
#67 = DIRECTION('',(0.,1.,0.));
#68 = PCURVE('',#40,#69);
#69 = DEFINITIONAL_REPRESENTATION('',(#70),#74);
#70 = LINE('',#71,#72);
#71 = CARTESIAN_POINT('',(754.91948092737,-71.7878217471));
#72 = VECTOR('',#73,1.);
#73 = DIRECTION('',(0.,1.));
#74 = ( GEOMETRIC_REPRESENTATION_CONTEXT(2) 
PARAMETRIC_REPRESENTATION_CONTEXT() REPRESENTATION_CONTEXT('2D SPACE',''
  ) );
#75 = ORIENTED_EDGE('',*,*,#76,.T.);
#76 = EDGE_CURVE('',#61,#77,#79,.T.);
#77 = VERTEX_POINT('',#78);
#78 = CARTESIAN_POINT('',(0.,148.13968808761,0.));
#79 = SURFACE_CURVE('',#80,(#92),.PCURVE_S1.);
#80 = B_SPLINE_CURVE_WITH_KNOTS('',1,(#81,#82,#83,#84,#85,#86,#87,#88,
    #89,#90,#91),.UNSPECIFIED.,.F.,.F.,(2,1,1,1,1,1,1,1,1,1,2),(0.,
    0.135912763426,0.210816902319,0.337184183557,0.390963511556,
    0.506374838016,0.777357200211,0.811889577579,0.846880278642,
    0.906228285977,1.),.UNSPECIFIED.);
#81 = CARTESIAN_POINT('',(1.5E+03,146.7878217471,0.));
#82 = CARTESIAN_POINT('',(1.293818830988E+03,153.9684843909,0.));
#83 = CARTESIAN_POINT('',(1.181034927699E+03,139.56980130472,0.));
#84 = CARTESIAN_POINT('',(989.21941105275,138.87090171546,0.));
#85 = CARTESIAN_POINT('',(908.18583045492,148.74786124609,0.));
#86 = CARTESIAN_POINT('',(733.40310388523,136.8618931962,0.));
#87 = CARTESIAN_POINT('',(322.12301971007,143.42689157892,0.));
#88 = CARTESIAN_POINT('',(274.26106544837,164.80105495233,0.));
#89 = CARTESIAN_POINT('',(230.24901549089,135.0692631776,0.));
#90 = CARTESIAN_POINT('',(142.21115968251,154.17040947792,0.));
#91 = CARTESIAN_POINT('',(0.,148.13968808761,0.));
#92 = PCURVE('',#40,#93);
#93 = DEFINITIONAL_REPRESENTATION('',(#94),#106);
#94 = B_SPLINE_CURVE_WITH_KNOTS('',1,(#95,#96,#97,#98,#99,#100,#101,#102
    ,#103,#104,#105),.UNSPECIFIED.,.F.,.F.,(2,1,1,1,1,1,1,1,1,1,2),(0.,
    0.135912763426,0.210816902319,0.337184183557,0.390963511556,
    0.506374838016,0.777357200211,0.811889577579,0.846880278642,
    0.906228285977,1.),.UNSPECIFIED.);
#95 = CARTESIAN_POINT('',(754.91948092737,71.787821747107));
#96 = CARTESIAN_POINT('',(548.73831191494,78.968484390906));
#97 = CARTESIAN_POINT('',(435.95440862657,64.569801304727));
#98 = CARTESIAN_POINT('',(244.13889198012,63.870901715461));
#99 = CARTESIAN_POINT('',(163.10531138229,73.747861246095));
#100 = CARTESIAN_POINT('',(-11.67741518739,61.861893196205));
#101 = CARTESIAN_POINT('',(-422.9574993625,68.426891578925));
#102 = CARTESIAN_POINT('',(-470.8194536242,89.801054952335));
#103 = CARTESIAN_POINT('',(-514.8315035817,60.069263177602));
#104 = CARTESIAN_POINT('',(-602.8693593901,79.170409477925));
#105 = CARTESIAN_POINT('',(-745.0805190726,73.139688087611));
#106 = ( GEOMETRIC_REPRESENTATION_CONTEXT(2) 
PARAMETRIC_REPRESENTATION_CONTEXT() REPRESENTATION_CONTEXT('2D SPACE',''
  ) );
#107 = ORIENTED_EDGE('',*,*,#108,.T.);
#108 = EDGE_CURVE('',#77,#22,#109,.T.);
#109 = SURFACE_CURVE('',#110,(#114),.PCURVE_S1.);
#110 = LINE('',#111,#112);
#111 = CARTESIAN_POINT('',(0.,148.13968808761,0.));
#112 = VECTOR('',#113,1.);
#113 = DIRECTION('',(0.,-1.,0.));
#114 = PCURVE('',#40,#115);
#115 = DEFINITIONAL_REPRESENTATION('',(#116),#120);
#116 = LINE('',#117,#118);
#117 = CARTESIAN_POINT('',(-745.0805190726,73.139688087611));
#118 = VECTOR('',#119,1.);
#119 = DIRECTION('',(0.,-1.));
#120 = ( GEOMETRIC_REPRESENTATION_CONTEXT(2) 
PARAMETRIC_REPRESENTATION_CONTEXT() REPRESENTATION_CONTEXT('2D SPACE',''
  ) );
#121 = ( GEOMETRIC_REPRESENTATION_CONTEXT(3) 
GLOBAL_UNCERTAINTY_ASSIGNED_CONTEXT((#125)) GLOBAL_UNIT_ASSIGNED_CONTEXT
((#122,#123,#124)) REPRESENTATION_CONTEXT('Context #1',
  '3D Context with UNIT and UNCERTAINTY') );
#122 = ( LENGTH_UNIT() NAMED_UNIT(*) SI_UNIT(.MILLI.,.METRE.) );
#123 = ( NAMED_UNIT(*) PLANE_ANGLE_UNIT() SI_UNIT($,.RADIAN.) );
#124 = ( NAMED_UNIT(*) SI_UNIT($,.STERADIAN.) SOLID_ANGLE_UNIT() );
#125 = UNCERTAINTY_MEASURE_WITH_UNIT(LENGTH_MEASURE(1.E-07),#122,
  'distance_accuracy_value','confusion accuracy');
#126 = PRODUCT_RELATED_PRODUCT_CATEGORY('part',$,(#7));
ENDSEC;
END-ISO-10303-21;
