ISO-10303-21;
HEADER;
FILE_DESCRIPTION(('Open CASCADE Model'),'2;1');
FILE_NAME('Open CASCADE Shape Model','2026-06-02T12:09:04',('Author'),(
    'Open CASCADE'),'Open CASCADE STEP processor 7.9','Open CASCADE 7.9'
  ,'Unknown');
FILE_SCHEMA(('AUTOMOTIVE_DESIGN { 1 0 10303 214 1 1 1 1 }'));
ENDSEC;
DATA;
#1 = APPLICATION_PROTOCOL_DEFINITION('international standard',
  'automotive_design',2000,#2);
#2 = APPLICATION_CONTEXT(
  'core data for automotive mechanical design processes');
#3 = SHAPE_DEFINITION_REPRESENTATION(#4,#10);
#4 = PRODUCT_DEFINITION_SHAPE('','',#5);
#5 = PRODUCT_DEFINITION('design','',#6,#9);
#6 = PRODUCT_DEFINITION_FORMATION('','',#7);
#7 = PRODUCT('Open CASCADE STEP translator 7.9 12',
  'Open CASCADE STEP translator 7.9 12','',(#8));
#8 = PRODUCT_CONTEXT('',#2,'mechanical');
#9 = PRODUCT_DEFINITION_CONTEXT('part definition',#2,'design');
#10 = MANIFOLD_SURFACE_SHAPE_REPRESENTATION('',(#11,#15),#121);
#11 = AXIS2_PLACEMENT_3D('',#12,#13,#14);
#12 = CARTESIAN_POINT('',(0.,0.,0.));
#13 = DIRECTION('',(0.,0.,1.));
#14 = DIRECTION('',(1.,0.,-0.));
#15 = SHELL_BASED_SURFACE_MODEL('',(#16));
#16 = OPEN_SHELL('',(#17));
#17 = ADVANCED_FACE('',(#18),#40,.T.);
#18 = FACE_BOUND('',#19,.T.);
#19 = EDGE_LOOP('',(#20,#59,#75,#107));
#20 = ORIENTED_EDGE('',*,*,#21,.T.);
#21 = EDGE_CURVE('',#22,#24,#26,.T.);
#22 = VERTEX_POINT('',#23);
#23 = CARTESIAN_POINT('',(0.,-0.923087717972,0.));
#24 = VERTEX_POINT('',#25);
#25 = CARTESIAN_POINT('',(1.5E+03,7.564813111459,0.));
#26 = SURFACE_CURVE('',#27,(#39),.PCURVE_S1.);
#27 = B_SPLINE_CURVE_WITH_KNOTS('',1,(#28,#29,#30,#31,#32,#33,#34,#35,
    #36,#37,#38),.UNSPECIFIED.,.F.,.F.,(2,1,1,1,1,1,1,1,1,1,2),(0.,
    4.059635874799E-02,0.151281683306,0.358982624499,0.4043186861,
    0.696253921733,0.720061284705,0.74283100303,0.880261444285,
    0.941580871829,1.),.UNSPECIFIED.);
#28 = CARTESIAN_POINT('',(0.,-0.923087717972,0.));
#29 = CARTESIAN_POINT('',(60.951852716321,-3.180474621,0.));
#30 = CARTESIAN_POINT('',(227.06457928304,-11.03216861328,0.));
#31 = CARTESIAN_POINT('',(539.02201943553,-3.093214720162,0.));
#32 = CARTESIAN_POINT('',(606.89651950789,2.62285292179,0.));
#33 = CARTESIAN_POINT('',(1.045510520816E+03,3.774478697785,0.));
#34 = CARTESIAN_POINT('',(1.081246042764E+03,2.223537408795,0.));
#35 = CARTESIAN_POINT('',(1.114777324717E+03,-4.557930767399,0.));
#36 = CARTESIAN_POINT('',(1.321157184275E+03,-11.02471895257,0.));
#37 = CARTESIAN_POINT('',(1.4124466569E+03,1.383093537711,0.));
#38 = CARTESIAN_POINT('',(1.5E+03,7.564813111459,0.));
#39 = PCURVE('',#40,#45);
#40 = PLANE('',#41);
#41 = AXIS2_PLACEMENT_3D('',#42,#43,#44);
#42 = CARTESIAN_POINT('',(746.58402026854,75.,0.));
#43 = DIRECTION('',(0.,0.,1.));
#44 = DIRECTION('',(1.,0.,-0.));
#45 = DEFINITIONAL_REPRESENTATION('',(#46),#58);
#46 = B_SPLINE_CURVE_WITH_KNOTS('',1,(#47,#48,#49,#50,#51,#52,#53,#54,
    #55,#56,#57),.UNSPECIFIED.,.F.,.F.,(2,1,1,1,1,1,1,1,1,1,2),(0.,
    4.059635874799E-02,0.151281683306,0.358982624499,0.4043186861,
    0.696253921733,0.720061284705,0.74283100303,0.880261444285,
    0.941580871829,1.),.UNSPECIFIED.);
#47 = CARTESIAN_POINT('',(-746.5840202685,-75.92308771797));
#48 = CARTESIAN_POINT('',(-685.6321675522,-78.180474621));
#49 = CARTESIAN_POINT('',(-519.5194409855,-86.03216861328));
#50 = CARTESIAN_POINT('',(-207.562000833,-78.09321472016));
#51 = CARTESIAN_POINT('',(-139.6875007606,-72.37714707821));
#52 = CARTESIAN_POINT('',(298.92650054748,-71.22552130221));
#53 = CARTESIAN_POINT('',(334.66202249533,-72.7764625912));
#54 = CARTESIAN_POINT('',(368.19330444847,-79.55793076739));
#55 = CARTESIAN_POINT('',(574.5731640069,-86.02471895257));
#56 = CARTESIAN_POINT('',(665.86263663138,-73.61690646228));
#57 = CARTESIAN_POINT('',(753.41597973145,-67.43518688854));
#58 = ( GEOMETRIC_REPRESENTATION_CONTEXT(2) 
PARAMETRIC_REPRESENTATION_CONTEXT() REPRESENTATION_CONTEXT('2D SPACE',''
  ) );
#59 = ORIENTED_EDGE('',*,*,#60,.T.);
#60 = EDGE_CURVE('',#24,#61,#63,.T.);
#61 = VERTEX_POINT('',#62);
#62 = CARTESIAN_POINT('',(1.5E+03,142.43518688854,0.));
#63 = SURFACE_CURVE('',#64,(#68),.PCURVE_S1.);
#64 = LINE('',#65,#66);
#65 = CARTESIAN_POINT('',(1.5E+03,7.564813111459,0.));
#66 = VECTOR('',#67,1.);
#67 = DIRECTION('',(0.,1.,0.));
#68 = PCURVE('',#40,#69);
#69 = DEFINITIONAL_REPRESENTATION('',(#70),#74);
#70 = LINE('',#71,#72);
#71 = CARTESIAN_POINT('',(753.41597973145,-67.43518688854));
#72 = VECTOR('',#73,1.);
#73 = DIRECTION('',(0.,1.));
#74 = ( GEOMETRIC_REPRESENTATION_CONTEXT(2) 
PARAMETRIC_REPRESENTATION_CONTEXT() REPRESENTATION_CONTEXT('2D SPACE',''
  ) );
#75 = ORIENTED_EDGE('',*,*,#76,.T.);
#76 = EDGE_CURVE('',#61,#77,#79,.T.);
#77 = VERTEX_POINT('',#78);
#78 = CARTESIAN_POINT('',(0.,150.92308771797,0.));
#79 = SURFACE_CURVE('',#80,(#92),.PCURVE_S1.);
#80 = B_SPLINE_CURVE_WITH_KNOTS('',1,(#81,#82,#83,#84,#85,#86,#87,#88,
    #89,#90,#91),.UNSPECIFIED.,.F.,.F.,(2,1,1,1,1,1,1,1,1,1,2),(0.,
    5.841912817083E-02,0.119738555715,0.25716899697,0.279938715295,
    0.303746078267,0.5956813139,0.641017375501,0.848718316694,
    0.959403641252,1.),.UNSPECIFIED.);
#81 = CARTESIAN_POINT('',(1.5E+03,142.43518688854,0.));
#82 = CARTESIAN_POINT('',(1.4124466569E+03,148.61690646228,0.));
#83 = CARTESIAN_POINT('',(1.321157184275E+03,161.02471895257,0.));
#84 = CARTESIAN_POINT('',(1.114777324717E+03,154.55793076739,0.));
#85 = CARTESIAN_POINT('',(1.081246042764E+03,147.7764625912,0.));
#86 = CARTESIAN_POINT('',(1.045510520816E+03,146.22552130221,0.));
#87 = CARTESIAN_POINT('',(606.89651950789,147.37714707821,0.));
#88 = CARTESIAN_POINT('',(539.02201943553,153.09321472016,0.));
#89 = CARTESIAN_POINT('',(227.06457928304,161.03216861328,0.));
#90 = CARTESIAN_POINT('',(60.951852716321,153.180474621,0.));
#91 = CARTESIAN_POINT('',(0.,150.92308771797,0.));
#92 = PCURVE('',#40,#93);
#93 = DEFINITIONAL_REPRESENTATION('',(#94),#106);
#94 = B_SPLINE_CURVE_WITH_KNOTS('',1,(#95,#96,#97,#98,#99,#100,#101,#102
    ,#103,#104,#105),.UNSPECIFIED.,.F.,.F.,(2,1,1,1,1,1,1,1,1,1,2),(0.,
    5.841912817083E-02,0.119738555715,0.25716899697,0.279938715295,
    0.303746078267,0.5956813139,0.641017375501,0.848718316694,
    0.959403641252,1.),.UNSPECIFIED.);
#95 = CARTESIAN_POINT('',(753.41597973145,67.435186888541));
#96 = CARTESIAN_POINT('',(665.86263663138,73.616906462289));
#97 = CARTESIAN_POINT('',(574.5731640069,86.02471895257));
#98 = CARTESIAN_POINT('',(368.19330444847,79.557930767399));
#99 = CARTESIAN_POINT('',(334.66202249533,72.776462591205));
#100 = CARTESIAN_POINT('',(298.92650054748,71.225521302215));
#101 = CARTESIAN_POINT('',(-139.6875007606,72.37714707821));
#102 = CARTESIAN_POINT('',(-207.562000833,78.093214720162));
#103 = CARTESIAN_POINT('',(-519.5194409855,86.03216861328));
#104 = CARTESIAN_POINT('',(-685.6321675522,78.180474621));
#105 = CARTESIAN_POINT('',(-746.5840202685,75.923087717972));
#106 = ( GEOMETRIC_REPRESENTATION_CONTEXT(2) 
PARAMETRIC_REPRESENTATION_CONTEXT() REPRESENTATION_CONTEXT('2D SPACE',''
  ) );
#107 = ORIENTED_EDGE('',*,*,#108,.T.);
#108 = EDGE_CURVE('',#77,#22,#109,.T.);
#109 = SURFACE_CURVE('',#110,(#114),.PCURVE_S1.);
#110 = LINE('',#111,#112);
#111 = CARTESIAN_POINT('',(0.,150.92308771797,0.));
#112 = VECTOR('',#113,1.);
#113 = DIRECTION('',(0.,-1.,0.));
#114 = PCURVE('',#40,#115);
#115 = DEFINITIONAL_REPRESENTATION('',(#116),#120);
#116 = LINE('',#117,#118);
#117 = CARTESIAN_POINT('',(-746.5840202685,75.923087717972));
#118 = VECTOR('',#119,1.);
#119 = DIRECTION('',(0.,-1.));
#120 = ( GEOMETRIC_REPRESENTATION_CONTEXT(2) 
PARAMETRIC_REPRESENTATION_CONTEXT() REPRESENTATION_CONTEXT('2D SPACE',''
  ) );
#121 = ( GEOMETRIC_REPRESENTATION_CONTEXT(3) 
GLOBAL_UNCERTAINTY_ASSIGNED_CONTEXT((#125)) GLOBAL_UNIT_ASSIGNED_CONTEXT
((#122,#123,#124)) REPRESENTATION_CONTEXT('Context #1',
  '3D Context with UNIT and UNCERTAINTY') );
#122 = ( LENGTH_UNIT() NAMED_UNIT(*) SI_UNIT(.MILLI.,.METRE.) );
#123 = ( NAMED_UNIT(*) PLANE_ANGLE_UNIT() SI_UNIT($,.RADIAN.) );
#124 = ( NAMED_UNIT(*) SI_UNIT($,.STERADIAN.) SOLID_ANGLE_UNIT() );
#125 = UNCERTAINTY_MEASURE_WITH_UNIT(LENGTH_MEASURE(1.E-07),#122,
  'distance_accuracy_value','confusion accuracy');
#126 = PRODUCT_RELATED_PRODUCT_CATEGORY('part',$,(#7));
ENDSEC;
END-ISO-10303-21;
