ISO-10303-21;
HEADER;
FILE_DESCRIPTION(('Open CASCADE Model'),'2;1');
FILE_NAME('Open CASCADE Shape Model','2026-06-02T12:09:04',('Author'),(
    'Open CASCADE'),'Open CASCADE STEP processor 7.9','Open CASCADE 7.9'
  ,'Unknown');
FILE_SCHEMA(('AUTOMOTIVE_DESIGN { 1 0 10303 214 1 1 1 1 }'));
ENDSEC;
DATA;
#1 = APPLICATION_PROTOCOL_DEFINITION('international standard',
  'automotive_design',2000,#2);
#2 = APPLICATION_CONTEXT(
  'core data for automotive mechanical design processes');
#3 = SHAPE_DEFINITION_REPRESENTATION(#4,#10);
#4 = PRODUCT_DEFINITION_SHAPE('','',#5);
#5 = PRODUCT_DEFINITION('design','',#6,#9);
#6 = PRODUCT_DEFINITION_FORMATION('','',#7);
#7 = PRODUCT('Open CASCADE STEP translator 7.9 23',
  'Open CASCADE STEP translator 7.9 23','',(#8));
#8 = PRODUCT_CONTEXT('',#2,'mechanical');
#9 = PRODUCT_DEFINITION_CONTEXT('part definition',#2,'design');
#10 = MANIFOLD_SURFACE_SHAPE_REPRESENTATION('',(#11,#15),#121);
#11 = AXIS2_PLACEMENT_3D('',#12,#13,#14);
#12 = CARTESIAN_POINT('',(0.,0.,0.));
#13 = DIRECTION('',(0.,0.,1.));
#14 = DIRECTION('',(1.,0.,-0.));
#15 = SHELL_BASED_SURFACE_MODEL('',(#16));
#16 = OPEN_SHELL('',(#17));
#17 = ADVANCED_FACE('',(#18),#40,.T.);
#18 = FACE_BOUND('',#19,.T.);
#19 = EDGE_LOOP('',(#20,#59,#75,#107));
#20 = ORIENTED_EDGE('',*,*,#21,.T.);
#21 = EDGE_CURVE('',#22,#24,#26,.T.);
#22 = VERTEX_POINT('',#23);
#23 = CARTESIAN_POINT('',(0.,-4.038873522548,0.));
#24 = VERTEX_POINT('',#25);
#25 = CARTESIAN_POINT('',(1.5E+03,-2.173737993663,0.));
#26 = SURFACE_CURVE('',#27,(#39),.PCURVE_S1.);
#27 = B_SPLINE_CURVE_WITH_KNOTS('',1,(#28,#29,#30,#31,#32,#33,#34,#35,
    #36,#37,#38),.UNSPECIFIED.,.F.,.F.,(2,1,1,1,1,1,1,1,1,1,2),(0.,
    3.133410118195E-02,0.447619734049,0.535139631274,0.594547051889,
    0.62411079316,0.64852499577,0.674008094919,0.751324476337,
    0.82636254573,1.),.UNSPECIFIED.);
#28 = CARTESIAN_POINT('',(0.,-4.038873522548,0.));
#29 = CARTESIAN_POINT('',(46.689445589133,2.645673102433,0.));
#30 = CARTESIAN_POINT('',(673.30175494557,2.736506717139,0.));
#31 = CARTESIAN_POINT('',(804.91586250543,8.471144199091,0.));
#32 = CARTESIAN_POINT('',(893.64451081865,-2.64918745227,0.));
#33 = CARTESIAN_POINT('',(937.39478398757,5.488772660483,0.));
#34 = CARTESIAN_POINT('',(973.16434927116,13.918204971679,0.));
#35 = CARTESIAN_POINT('',(1.00976757637E+03,2.447998675294,0.));
#36 = CARTESIAN_POINT('',(1.126135745332E+03,0.776019747295,0.));
#37 = CARTESIAN_POINT('',(1.238840134172E+03,8.232213953874,0.));
#38 = CARTESIAN_POINT('',(1.5E+03,-2.173737993663,0.));
#39 = PCURVE('',#40,#45);
#40 = PLANE('',#41);
#41 = AXIS2_PLACEMENT_3D('',#42,#43,#44);
#42 = CARTESIAN_POINT('',(749.58508123053,75.,0.));
#43 = DIRECTION('',(0.,0.,1.));
#44 = DIRECTION('',(1.,0.,-0.));
#45 = DEFINITIONAL_REPRESENTATION('',(#46),#58);
#46 = B_SPLINE_CURVE_WITH_KNOTS('',1,(#47,#48,#49,#50,#51,#52,#53,#54,
    #55,#56,#57),.UNSPECIFIED.,.F.,.F.,(2,1,1,1,1,1,1,1,1,1,2),(0.,
    3.133410118195E-02,0.447619734049,0.535139631274,0.594547051889,
    0.62411079316,0.64852499577,0.674008094919,0.751324476337,
    0.82636254573,1.),.UNSPECIFIED.);
#47 = CARTESIAN_POINT('',(-749.5850812305,-79.03887352254));
#48 = CARTESIAN_POINT('',(-702.8956356414,-72.35432689756));
#49 = CARTESIAN_POINT('',(-76.28332628496,-72.26349328286));
#50 = CARTESIAN_POINT('',(55.330781274895,-66.5288558009));
#51 = CARTESIAN_POINT('',(144.05942958812,-77.64918745227));
#52 = CARTESIAN_POINT('',(187.80970275704,-69.51122733951));
#53 = CARTESIAN_POINT('',(223.57926804063,-61.08179502832));
#54 = CARTESIAN_POINT('',(260.18249513976,-72.5520013247));
#55 = CARTESIAN_POINT('',(376.55066410106,-74.2239802527));
#56 = CARTESIAN_POINT('',(489.2550529418,-66.76778604612));
#57 = CARTESIAN_POINT('',(750.41491876946,-77.17373799366));
#58 = ( GEOMETRIC_REPRESENTATION_CONTEXT(2) 
PARAMETRIC_REPRESENTATION_CONTEXT() REPRESENTATION_CONTEXT('2D SPACE',''
  ) );
#59 = ORIENTED_EDGE('',*,*,#60,.T.);
#60 = EDGE_CURVE('',#24,#61,#63,.T.);
#61 = VERTEX_POINT('',#62);
#62 = CARTESIAN_POINT('',(1.5E+03,152.17373799366,0.));
#63 = SURFACE_CURVE('',#64,(#68),.PCURVE_S1.);
#64 = LINE('',#65,#66);
#65 = CARTESIAN_POINT('',(1.5E+03,-2.173737993663,0.));
#66 = VECTOR('',#67,1.);
#67 = DIRECTION('',(0.,1.,0.));
#68 = PCURVE('',#40,#69);
#69 = DEFINITIONAL_REPRESENTATION('',(#70),#74);
#70 = LINE('',#71,#72);
#71 = CARTESIAN_POINT('',(750.41491876946,-77.17373799366));
#72 = VECTOR('',#73,1.);
#73 = DIRECTION('',(0.,1.));
#74 = ( GEOMETRIC_REPRESENTATION_CONTEXT(2) 
PARAMETRIC_REPRESENTATION_CONTEXT() REPRESENTATION_CONTEXT('2D SPACE',''
  ) );
#75 = ORIENTED_EDGE('',*,*,#76,.T.);
#76 = EDGE_CURVE('',#61,#77,#79,.T.);
#77 = VERTEX_POINT('',#78);
#78 = CARTESIAN_POINT('',(0.,154.03887352254,0.));
#79 = SURFACE_CURVE('',#80,(#92),.PCURVE_S1.);
#80 = B_SPLINE_CURVE_WITH_KNOTS('',1,(#81,#82,#83,#84,#85,#86,#87,#88,
    #89,#90,#91),.UNSPECIFIED.,.F.,.F.,(2,1,1,1,1,1,1,1,1,1,2),(0.,
    0.17363745427,0.248675523663,0.325991905081,0.35147500423,
    0.37588920684,0.405452948111,0.464860368726,0.552380265951,
    0.968665898818,1.),.UNSPECIFIED.);
#81 = CARTESIAN_POINT('',(1.5E+03,152.17373799366,0.));
#82 = CARTESIAN_POINT('',(1.238840134172E+03,141.76778604612,0.));
#83 = CARTESIAN_POINT('',(1.126135745332E+03,149.2239802527,0.));
#84 = CARTESIAN_POINT('',(1.00976757637E+03,147.5520013247,0.));
#85 = CARTESIAN_POINT('',(973.16434927116,136.08179502832,0.));
#86 = CARTESIAN_POINT('',(937.39478398757,144.51122733951,0.));
#87 = CARTESIAN_POINT('',(893.64451081865,152.64918745227,0.));
#88 = CARTESIAN_POINT('',(804.91586250543,141.5288558009,0.));
#89 = CARTESIAN_POINT('',(673.30175494557,147.26349328286,0.));
#90 = CARTESIAN_POINT('',(46.689445589133,147.35432689756,0.));
#91 = CARTESIAN_POINT('',(0.,154.03887352254,0.));
#92 = PCURVE('',#40,#93);
#93 = DEFINITIONAL_REPRESENTATION('',(#94),#106);
#94 = B_SPLINE_CURVE_WITH_KNOTS('',1,(#95,#96,#97,#98,#99,#100,#101,#102
    ,#103,#104,#105),.UNSPECIFIED.,.F.,.F.,(2,1,1,1,1,1,1,1,1,1,2),(0.,
    0.17363745427,0.248675523663,0.325991905081,0.35147500423,
    0.37588920684,0.405452948111,0.464860368726,0.552380265951,
    0.968665898818,1.),.UNSPECIFIED.);
#95 = CARTESIAN_POINT('',(750.41491876946,77.173737993663));
#96 = CARTESIAN_POINT('',(489.2550529418,66.767786046126));
#97 = CARTESIAN_POINT('',(376.55066410106,74.223980252705));
#98 = CARTESIAN_POINT('',(260.18249513976,72.552001324706));
#99 = CARTESIAN_POINT('',(223.57926804063,61.081795028321));
#100 = CARTESIAN_POINT('',(187.80970275704,69.511227339517));
#101 = CARTESIAN_POINT('',(144.05942958812,77.64918745227));
#102 = CARTESIAN_POINT('',(55.330781274895,66.528855800909));
#103 = CARTESIAN_POINT('',(-76.28332628496,72.263493282861));
#104 = CARTESIAN_POINT('',(-702.8956356414,72.354326897567));
#105 = CARTESIAN_POINT('',(-749.5850812305,79.038873522548));
#106 = ( GEOMETRIC_REPRESENTATION_CONTEXT(2) 
PARAMETRIC_REPRESENTATION_CONTEXT() REPRESENTATION_CONTEXT('2D SPACE',''
  ) );
#107 = ORIENTED_EDGE('',*,*,#108,.T.);
#108 = EDGE_CURVE('',#77,#22,#109,.T.);
#109 = SURFACE_CURVE('',#110,(#114),.PCURVE_S1.);
#110 = LINE('',#111,#112);
#111 = CARTESIAN_POINT('',(0.,154.03887352254,0.));
#112 = VECTOR('',#113,1.);
#113 = DIRECTION('',(0.,-1.,0.));
#114 = PCURVE('',#40,#115);
#115 = DEFINITIONAL_REPRESENTATION('',(#116),#120);
#116 = LINE('',#117,#118);
#117 = CARTESIAN_POINT('',(-749.5850812305,79.038873522548));
#118 = VECTOR('',#119,1.);
#119 = DIRECTION('',(0.,-1.));
#120 = ( GEOMETRIC_REPRESENTATION_CONTEXT(2) 
PARAMETRIC_REPRESENTATION_CONTEXT() REPRESENTATION_CONTEXT('2D SPACE',''
  ) );
#121 = ( GEOMETRIC_REPRESENTATION_CONTEXT(3) 
GLOBAL_UNCERTAINTY_ASSIGNED_CONTEXT((#125)) GLOBAL_UNIT_ASSIGNED_CONTEXT
((#122,#123,#124)) REPRESENTATION_CONTEXT('Context #1',
  '3D Context with UNIT and UNCERTAINTY') );
#122 = ( LENGTH_UNIT() NAMED_UNIT(*) SI_UNIT(.MILLI.,.METRE.) );
#123 = ( NAMED_UNIT(*) PLANE_ANGLE_UNIT() SI_UNIT($,.RADIAN.) );
#124 = ( NAMED_UNIT(*) SI_UNIT($,.STERADIAN.) SOLID_ANGLE_UNIT() );
#125 = UNCERTAINTY_MEASURE_WITH_UNIT(LENGTH_MEASURE(1.E-07),#122,
  'distance_accuracy_value','confusion accuracy');
#126 = PRODUCT_RELATED_PRODUCT_CATEGORY('part',$,(#7));
ENDSEC;
END-ISO-10303-21;
