ISO-10303-21;
HEADER;
FILE_DESCRIPTION(('Open CASCADE Model'),'2;1');
FILE_NAME('Open CASCADE Shape Model','2026-06-02T12:09:04',('Author'),(
    'Open CASCADE'),'Open CASCADE STEP processor 7.9','Open CASCADE 7.9'
  ,'Unknown');
FILE_SCHEMA(('AUTOMOTIVE_DESIGN { 1 0 10303 214 1 1 1 1 }'));
ENDSEC;
DATA;
#1 = APPLICATION_PROTOCOL_DEFINITION('international standard',
  'automotive_design',2000,#2);
#2 = APPLICATION_CONTEXT(
  'core data for automotive mechanical design processes');
#3 = SHAPE_DEFINITION_REPRESENTATION(#4,#10);
#4 = PRODUCT_DEFINITION_SHAPE('','',#5);
#5 = PRODUCT_DEFINITION('design','',#6,#9);
#6 = PRODUCT_DEFINITION_FORMATION('','',#7);
#7 = PRODUCT('Open CASCADE STEP translator 7.9 13',
  'Open CASCADE STEP translator 7.9 13','',(#8));
#8 = PRODUCT_CONTEXT('',#2,'mechanical');
#9 = PRODUCT_DEFINITION_CONTEXT('part definition',#2,'design');
#10 = MANIFOLD_SURFACE_SHAPE_REPRESENTATION('',(#11,#15),#121);
#11 = AXIS2_PLACEMENT_3D('',#12,#13,#14);
#12 = CARTESIAN_POINT('',(0.,0.,0.));
#13 = DIRECTION('',(0.,0.,1.));
#14 = DIRECTION('',(1.,0.,-0.));
#15 = SHELL_BASED_SURFACE_MODEL('',(#16));
#16 = OPEN_SHELL('',(#17));
#17 = ADVANCED_FACE('',(#18),#40,.T.);
#18 = FACE_BOUND('',#19,.T.);
#19 = EDGE_LOOP('',(#20,#59,#75,#107));
#20 = ORIENTED_EDGE('',*,*,#21,.T.);
#21 = EDGE_CURVE('',#22,#24,#26,.T.);
#22 = VERTEX_POINT('',#23);
#23 = CARTESIAN_POINT('',(0.,-12.62911417462,0.));
#24 = VERTEX_POINT('',#25);
#25 = CARTESIAN_POINT('',(1.5E+03,-5.421435803985,0.));
#26 = SURFACE_CURVE('',#27,(#39),.PCURVE_S1.);
#27 = B_SPLINE_CURVE_WITH_KNOTS('',1,(#28,#29,#30,#31,#32,#33,#34,#35,
    #36,#37,#38),.UNSPECIFIED.,.F.,.F.,(2,1,1,1,1,1,1,1,1,1,2),(0.,
    0.183348773233,0.284789417582,0.576391655335,0.631386516736,
    0.660769934207,0.738007086803,0.769279405695,0.864027524181,
    0.961996867503,1.),.UNSPECIFIED.);
#28 = CARTESIAN_POINT('',(0.,-12.62911417462,0.));
#29 = CARTESIAN_POINT('',(274.49804922173,10.034048317942,0.));
#30 = CARTESIAN_POINT('',(426.84326873279,6.458397529862,0.));
#31 = CARTESIAN_POINT('',(864.87922907623,10.391598144238,0.));
#32 = CARTESIAN_POINT('',(947.4862406845,11.535298090039,0.));
#33 = CARTESIAN_POINT('',(991.53606033872,14.365559509907,0.));
#34 = CARTESIAN_POINT('',(1.107559476147E+03,13.338137725072,0.));
#35 = CARTESIAN_POINT('',(1.154401284055E+03,9.760755871924,0.));
#36 = CARTESIAN_POINT('',(1.296688251239E+03,13.398542021185,0.));
#37 = CARTESIAN_POINT('',(1.442973830337E+03,-2.734314483329,0.));
#38 = CARTESIAN_POINT('',(1.5E+03,-5.421435803985,0.));
#39 = PCURVE('',#40,#45);
#40 = PLANE('',#41);
#41 = AXIS2_PLACEMENT_3D('',#42,#43,#44);
#42 = CARTESIAN_POINT('',(746.82409918618,75.,0.));
#43 = DIRECTION('',(0.,0.,1.));
#44 = DIRECTION('',(1.,0.,-0.));
#45 = DEFINITIONAL_REPRESENTATION('',(#46),#58);
#46 = B_SPLINE_CURVE_WITH_KNOTS('',1,(#47,#48,#49,#50,#51,#52,#53,#54,
    #55,#56,#57),.UNSPECIFIED.,.F.,.F.,(2,1,1,1,1,1,1,1,1,1,2),(0.,
    0.183348773233,0.284789417582,0.576391655335,0.631386516736,
    0.660769934207,0.738007086803,0.769279405695,0.864027524181,
    0.961996867503,1.),.UNSPECIFIED.);
#47 = CARTESIAN_POINT('',(-746.8240991861,-87.62911417462));
#48 = CARTESIAN_POINT('',(-472.3260499644,-64.96595168205));
#49 = CARTESIAN_POINT('',(-319.9808304533,-68.54160247013));
#50 = CARTESIAN_POINT('',(118.05512989004,-64.60840185576));
#51 = CARTESIAN_POINT('',(200.66214149831,-63.46470190996));
#52 = CARTESIAN_POINT('',(244.71196115254,-60.63444049009));
#53 = CARTESIAN_POINT('',(360.73537696109,-61.66186227492));
#54 = CARTESIAN_POINT('',(407.57718486912,-65.23924412807));
#55 = CARTESIAN_POINT('',(549.86415205281,-61.60145797881));
#56 = CARTESIAN_POINT('',(696.1497311512,-77.73431448332));
#57 = CARTESIAN_POINT('',(753.17590081381,-80.42143580398));
#58 = ( GEOMETRIC_REPRESENTATION_CONTEXT(2) 
PARAMETRIC_REPRESENTATION_CONTEXT() REPRESENTATION_CONTEXT('2D SPACE',''
  ) );
#59 = ORIENTED_EDGE('',*,*,#60,.T.);
#60 = EDGE_CURVE('',#24,#61,#63,.T.);
#61 = VERTEX_POINT('',#62);
#62 = CARTESIAN_POINT('',(1.5E+03,155.42143580398,0.));
#63 = SURFACE_CURVE('',#64,(#68),.PCURVE_S1.);
#64 = LINE('',#65,#66);
#65 = CARTESIAN_POINT('',(1.5E+03,-5.421435803985,0.));
#66 = VECTOR('',#67,1.);
#67 = DIRECTION('',(0.,1.,0.));
#68 = PCURVE('',#40,#69);
#69 = DEFINITIONAL_REPRESENTATION('',(#70),#74);
#70 = LINE('',#71,#72);
#71 = CARTESIAN_POINT('',(753.17590081381,-80.42143580398));
#72 = VECTOR('',#73,1.);
#73 = DIRECTION('',(0.,1.));
#74 = ( GEOMETRIC_REPRESENTATION_CONTEXT(2) 
PARAMETRIC_REPRESENTATION_CONTEXT() REPRESENTATION_CONTEXT('2D SPACE',''
  ) );
#75 = ORIENTED_EDGE('',*,*,#76,.T.);
#76 = EDGE_CURVE('',#61,#77,#79,.T.);
#77 = VERTEX_POINT('',#78);
#78 = CARTESIAN_POINT('',(0.,162.62911417462,0.));
#79 = SURFACE_CURVE('',#80,(#92),.PCURVE_S1.);
#80 = B_SPLINE_CURVE_WITH_KNOTS('',1,(#81,#82,#83,#84,#85,#86,#87,#88,
    #89,#90,#91),.UNSPECIFIED.,.F.,.F.,(2,1,1,1,1,1,1,1,1,1,2),(0.,
    3.80031324969E-02,0.135972475819,0.230720594305,0.261992913197,
    0.339230065793,0.368613483264,0.423608344665,0.715210582418,
    0.816651226767,1.),.UNSPECIFIED.);
#81 = CARTESIAN_POINT('',(1.5E+03,155.42143580398,0.));
#82 = CARTESIAN_POINT('',(1.442973830337E+03,152.73431448332,0.));
#83 = CARTESIAN_POINT('',(1.296688251239E+03,136.60145797881,0.));
#84 = CARTESIAN_POINT('',(1.154401284055E+03,140.23924412807,0.));
#85 = CARTESIAN_POINT('',(1.107559476147E+03,136.66186227492,0.));
#86 = CARTESIAN_POINT('',(991.53606033872,135.63444049009,0.));
#87 = CARTESIAN_POINT('',(947.4862406845,138.46470190996,0.));
#88 = CARTESIAN_POINT('',(864.87922907623,139.60840185576,0.));
#89 = CARTESIAN_POINT('',(426.84326873279,143.54160247013,0.));
#90 = CARTESIAN_POINT('',(274.49804922173,139.96595168205,0.));
#91 = CARTESIAN_POINT('',(0.,162.62911417462,0.));
#92 = PCURVE('',#40,#93);
#93 = DEFINITIONAL_REPRESENTATION('',(#94),#106);
#94 = B_SPLINE_CURVE_WITH_KNOTS('',1,(#95,#96,#97,#98,#99,#100,#101,#102
    ,#103,#104,#105),.UNSPECIFIED.,.F.,.F.,(2,1,1,1,1,1,1,1,1,1,2),(0.,
    3.80031324969E-02,0.135972475819,0.230720594305,0.261992913197,
    0.339230065793,0.368613483264,0.423608344665,0.715210582418,
    0.816651226767,1.),.UNSPECIFIED.);
#95 = CARTESIAN_POINT('',(753.17590081381,80.421435803985));
#96 = CARTESIAN_POINT('',(696.1497311512,77.734314483329));
#97 = CARTESIAN_POINT('',(549.86415205281,61.601457978815));
#98 = CARTESIAN_POINT('',(407.57718486912,65.239244128076));
#99 = CARTESIAN_POINT('',(360.73537696109,61.661862274928));
#100 = CARTESIAN_POINT('',(244.71196115254,60.634440490093));
#101 = CARTESIAN_POINT('',(200.66214149831,63.464701909961));
#102 = CARTESIAN_POINT('',(118.05512989004,64.608401855762));
#103 = CARTESIAN_POINT('',(-319.9808304533,68.541602470138));
#104 = CARTESIAN_POINT('',(-472.3260499644,64.965951682058));
#105 = CARTESIAN_POINT('',(-746.8240991861,87.629114174623));
#106 = ( GEOMETRIC_REPRESENTATION_CONTEXT(2) 
PARAMETRIC_REPRESENTATION_CONTEXT() REPRESENTATION_CONTEXT('2D SPACE',''
  ) );
#107 = ORIENTED_EDGE('',*,*,#108,.T.);
#108 = EDGE_CURVE('',#77,#22,#109,.T.);
#109 = SURFACE_CURVE('',#110,(#114),.PCURVE_S1.);
#110 = LINE('',#111,#112);
#111 = CARTESIAN_POINT('',(0.,162.62911417462,0.));
#112 = VECTOR('',#113,1.);
#113 = DIRECTION('',(0.,-1.,0.));
#114 = PCURVE('',#40,#115);
#115 = DEFINITIONAL_REPRESENTATION('',(#116),#120);
#116 = LINE('',#117,#118);
#117 = CARTESIAN_POINT('',(-746.8240991861,87.629114174623));
#118 = VECTOR('',#119,1.);
#119 = DIRECTION('',(0.,-1.));
#120 = ( GEOMETRIC_REPRESENTATION_CONTEXT(2) 
PARAMETRIC_REPRESENTATION_CONTEXT() REPRESENTATION_CONTEXT('2D SPACE',''
  ) );
#121 = ( GEOMETRIC_REPRESENTATION_CONTEXT(3) 
GLOBAL_UNCERTAINTY_ASSIGNED_CONTEXT((#125)) GLOBAL_UNIT_ASSIGNED_CONTEXT
((#122,#123,#124)) REPRESENTATION_CONTEXT('Context #1',
  '3D Context with UNIT and UNCERTAINTY') );
#122 = ( LENGTH_UNIT() NAMED_UNIT(*) SI_UNIT(.MILLI.,.METRE.) );
#123 = ( NAMED_UNIT(*) PLANE_ANGLE_UNIT() SI_UNIT($,.RADIAN.) );
#124 = ( NAMED_UNIT(*) SI_UNIT($,.STERADIAN.) SOLID_ANGLE_UNIT() );
#125 = UNCERTAINTY_MEASURE_WITH_UNIT(LENGTH_MEASURE(1.E-07),#122,
  'distance_accuracy_value','confusion accuracy');
#126 = PRODUCT_RELATED_PRODUCT_CATEGORY('part',$,(#7));
ENDSEC;
END-ISO-10303-21;
