ISO-10303-21;
HEADER;
FILE_DESCRIPTION(('Open CASCADE Model'),'2;1');
FILE_NAME('Open CASCADE Shape Model','2026-06-02T12:09:04',('Author'),(
    'Open CASCADE'),'Open CASCADE STEP processor 7.9','Open CASCADE 7.9'
  ,'Unknown');
FILE_SCHEMA(('AUTOMOTIVE_DESIGN { 1 0 10303 214 1 1 1 1 }'));
ENDSEC;
DATA;
#1 = APPLICATION_PROTOCOL_DEFINITION('international standard',
  'automotive_design',2000,#2);
#2 = APPLICATION_CONTEXT(
  'core data for automotive mechanical design processes');
#3 = SHAPE_DEFINITION_REPRESENTATION(#4,#10);
#4 = PRODUCT_DEFINITION_SHAPE('','',#5);
#5 = PRODUCT_DEFINITION('design','',#6,#9);
#6 = PRODUCT_DEFINITION_FORMATION('','',#7);
#7 = PRODUCT('Open CASCADE STEP translator 7.9 43',
  'Open CASCADE STEP translator 7.9 43','',(#8));
#8 = PRODUCT_CONTEXT('',#2,'mechanical');
#9 = PRODUCT_DEFINITION_CONTEXT('part definition',#2,'design');
#10 = MANIFOLD_SURFACE_SHAPE_REPRESENTATION('',(#11,#15),#121);
#11 = AXIS2_PLACEMENT_3D('',#12,#13,#14);
#12 = CARTESIAN_POINT('',(0.,0.,0.));
#13 = DIRECTION('',(0.,0.,1.));
#14 = DIRECTION('',(1.,0.,-0.));
#15 = SHELL_BASED_SURFACE_MODEL('',(#16));
#16 = OPEN_SHELL('',(#17));
#17 = ADVANCED_FACE('',(#18),#40,.T.);
#18 = FACE_BOUND('',#19,.T.);
#19 = EDGE_LOOP('',(#20,#59,#75,#107));
#20 = ORIENTED_EDGE('',*,*,#21,.T.);
#21 = EDGE_CURVE('',#22,#24,#26,.T.);
#22 = VERTEX_POINT('',#23);
#23 = CARTESIAN_POINT('',(0.,6.156781512764,0.));
#24 = VERTEX_POINT('',#25);
#25 = CARTESIAN_POINT('',(1.5E+03,-1.586947621934,0.));
#26 = SURFACE_CURVE('',#27,(#39),.PCURVE_S1.);
#27 = B_SPLINE_CURVE_WITH_KNOTS('',1,(#28,#29,#30,#31,#32,#33,#34,#35,
    #36,#37,#38),.UNSPECIFIED.,.F.,.F.,(2,1,1,1,1,1,1,1,1,1,2),(0.,
    4.993484804864E-02,0.178630845525,0.257433981302,0.277853372518,
    0.318746362589,0.443616549539,0.816669243822,0.86293079141,
    0.92196989178,1.),.UNSPECIFIED.);
#28 = CARTESIAN_POINT('',(0.,6.156781512764,0.));
#29 = CARTESIAN_POINT('',(73.690195953538,-7.944106578217,0.));
#30 = CARTESIAN_POINT('',(267.02700773237,-11.30132391793,0.));
#31 = CARTESIAN_POINT('',(385.42649269501,-12.04925560699,0.));
#32 = CARTESIAN_POINT('',(416.00563099257,-14.53705824752,0.));
#33 = CARTESIAN_POINT('',(477.44738352465,-14.47100049313,0.));
#34 = CARTESIAN_POINT('',(665.06298597607,-13.58997398303,0.));
#35 = CARTESIAN_POINT('',(1.224951573759E+03,12.845335784913,0.));
#36 = CARTESIAN_POINT('',(1.294431446399E+03,10.866193922166,0.));
#37 = CARTESIAN_POINT('',(1.382996759242E+03,5.866004205719,0.));
#38 = CARTESIAN_POINT('',(1.5E+03,-1.586947621934,0.));
#39 = PCURVE('',#40,#45);
#40 = PLANE('',#41);
#41 = AXIS2_PLACEMENT_3D('',#42,#43,#44);
#42 = CARTESIAN_POINT('',(753.14560737758,75.,0.));
#43 = DIRECTION('',(0.,0.,1.));
#44 = DIRECTION('',(1.,0.,-0.));
#45 = DEFINITIONAL_REPRESENTATION('',(#46),#58);
#46 = B_SPLINE_CURVE_WITH_KNOTS('',1,(#47,#48,#49,#50,#51,#52,#53,#54,
    #55,#56,#57),.UNSPECIFIED.,.F.,.F.,(2,1,1,1,1,1,1,1,1,1,2),(0.,
    4.993484804864E-02,0.178630845525,0.257433981302,0.277853372518,
    0.318746362589,0.443616549539,0.816669243822,0.86293079141,
    0.92196989178,1.),.UNSPECIFIED.);
#47 = CARTESIAN_POINT('',(-753.1456073775,-68.84321848723));
#48 = CARTESIAN_POINT('',(-679.455411424,-82.94410657821));
#49 = CARTESIAN_POINT('',(-486.1185996452,-86.30132391793));
#50 = CARTESIAN_POINT('',(-367.7191146825,-87.04925560699));
#51 = CARTESIAN_POINT('',(-337.139976385,-89.53705824752));
#52 = CARTESIAN_POINT('',(-275.6982238529,-89.47100049313));
#53 = CARTESIAN_POINT('',(-88.08262140151,-88.58997398303));
#54 = CARTESIAN_POINT('',(471.80596638183,-62.15466421508));
#55 = CARTESIAN_POINT('',(541.28583902119,-64.13380607783));
#56 = CARTESIAN_POINT('',(629.85115186478,-69.13399579428));
#57 = CARTESIAN_POINT('',(746.85439262241,-76.58694762193));
#58 = ( GEOMETRIC_REPRESENTATION_CONTEXT(2) 
PARAMETRIC_REPRESENTATION_CONTEXT() REPRESENTATION_CONTEXT('2D SPACE',''
  ) );
#59 = ORIENTED_EDGE('',*,*,#60,.T.);
#60 = EDGE_CURVE('',#24,#61,#63,.T.);
#61 = VERTEX_POINT('',#62);
#62 = CARTESIAN_POINT('',(1.5E+03,151.58694762193,0.));
#63 = SURFACE_CURVE('',#64,(#68),.PCURVE_S1.);
#64 = LINE('',#65,#66);
#65 = CARTESIAN_POINT('',(1.5E+03,-1.586947621934,0.));
#66 = VECTOR('',#67,1.);
#67 = DIRECTION('',(0.,1.,0.));
#68 = PCURVE('',#40,#69);
#69 = DEFINITIONAL_REPRESENTATION('',(#70),#74);
#70 = LINE('',#71,#72);
#71 = CARTESIAN_POINT('',(746.85439262241,-76.58694762193));
#72 = VECTOR('',#73,1.);
#73 = DIRECTION('',(0.,1.));
#74 = ( GEOMETRIC_REPRESENTATION_CONTEXT(2) 
PARAMETRIC_REPRESENTATION_CONTEXT() REPRESENTATION_CONTEXT('2D SPACE',''
  ) );
#75 = ORIENTED_EDGE('',*,*,#76,.T.);
#76 = EDGE_CURVE('',#61,#77,#79,.T.);
#77 = VERTEX_POINT('',#78);
#78 = CARTESIAN_POINT('',(0.,143.84321848723,0.));
#79 = SURFACE_CURVE('',#80,(#92),.PCURVE_S1.);
#80 = B_SPLINE_CURVE_WITH_KNOTS('',1,(#81,#82,#83,#84,#85,#86,#87,#88,
    #89,#90,#91),.UNSPECIFIED.,.F.,.F.,(2,1,1,1,1,1,1,1,1,1,2),(0.,
    7.803010822034E-02,0.13706920859,0.183330756178,0.556383450461,
    0.681253637411,0.722146627482,0.742566018698,0.821369154475,
    0.950065151951,1.),.UNSPECIFIED.);
#81 = CARTESIAN_POINT('',(1.5E+03,151.58694762193,0.));
#82 = CARTESIAN_POINT('',(1.382996759242E+03,144.13399579428,0.));
#83 = CARTESIAN_POINT('',(1.294431446399E+03,139.13380607783,0.));
#84 = CARTESIAN_POINT('',(1.224951573759E+03,137.15466421508,0.));
#85 = CARTESIAN_POINT('',(665.06298597607,163.58997398303,0.));
#86 = CARTESIAN_POINT('',(477.44738352465,164.47100049313,0.));
#87 = CARTESIAN_POINT('',(416.00563099257,164.53705824752,0.));
#88 = CARTESIAN_POINT('',(385.42649269501,162.04925560699,0.));
#89 = CARTESIAN_POINT('',(267.02700773237,161.30132391793,0.));
#90 = CARTESIAN_POINT('',(73.690195953538,157.94410657821,0.));
#91 = CARTESIAN_POINT('',(0.,143.84321848723,0.));
#92 = PCURVE('',#40,#93);
#93 = DEFINITIONAL_REPRESENTATION('',(#94),#106);
#94 = B_SPLINE_CURVE_WITH_KNOTS('',1,(#95,#96,#97,#98,#99,#100,#101,#102
    ,#103,#104,#105),.UNSPECIFIED.,.F.,.F.,(2,1,1,1,1,1,1,1,1,1,2),(0.,
    7.803010822034E-02,0.13706920859,0.183330756178,0.556383450461,
    0.681253637411,0.722146627482,0.742566018698,0.821369154475,
    0.950065151951,1.),.UNSPECIFIED.);
#95 = CARTESIAN_POINT('',(746.85439262241,76.586947621934));
#96 = CARTESIAN_POINT('',(629.85115186478,69.133995794281));
#97 = CARTESIAN_POINT('',(541.28583902119,64.133806077834));
#98 = CARTESIAN_POINT('',(471.80596638183,62.154664215087));
#99 = CARTESIAN_POINT('',(-88.08262140151,88.589973983039));
#100 = CARTESIAN_POINT('',(-275.6982238529,89.471000493136));
#101 = CARTESIAN_POINT('',(-337.139976385,89.537058247523));
#102 = CARTESIAN_POINT('',(-367.7191146825,87.049255606993));
#103 = CARTESIAN_POINT('',(-486.1185996452,86.301323917939));
#104 = CARTESIAN_POINT('',(-679.455411424,82.944106578217));
#105 = CARTESIAN_POINT('',(-753.1456073775,68.843218487236));
#106 = ( GEOMETRIC_REPRESENTATION_CONTEXT(2) 
PARAMETRIC_REPRESENTATION_CONTEXT() REPRESENTATION_CONTEXT('2D SPACE',''
  ) );
#107 = ORIENTED_EDGE('',*,*,#108,.T.);
#108 = EDGE_CURVE('',#77,#22,#109,.T.);
#109 = SURFACE_CURVE('',#110,(#114),.PCURVE_S1.);
#110 = LINE('',#111,#112);
#111 = CARTESIAN_POINT('',(0.,143.84321848723,0.));
#112 = VECTOR('',#113,1.);
#113 = DIRECTION('',(0.,-1.,0.));
#114 = PCURVE('',#40,#115);
#115 = DEFINITIONAL_REPRESENTATION('',(#116),#120);
#116 = LINE('',#117,#118);
#117 = CARTESIAN_POINT('',(-753.1456073775,68.843218487236));
#118 = VECTOR('',#119,1.);
#119 = DIRECTION('',(0.,-1.));
#120 = ( GEOMETRIC_REPRESENTATION_CONTEXT(2) 
PARAMETRIC_REPRESENTATION_CONTEXT() REPRESENTATION_CONTEXT('2D SPACE',''
  ) );
#121 = ( GEOMETRIC_REPRESENTATION_CONTEXT(3) 
GLOBAL_UNCERTAINTY_ASSIGNED_CONTEXT((#125)) GLOBAL_UNIT_ASSIGNED_CONTEXT
((#122,#123,#124)) REPRESENTATION_CONTEXT('Context #1',
  '3D Context with UNIT and UNCERTAINTY') );
#122 = ( LENGTH_UNIT() NAMED_UNIT(*) SI_UNIT(.MILLI.,.METRE.) );
#123 = ( NAMED_UNIT(*) PLANE_ANGLE_UNIT() SI_UNIT($,.RADIAN.) );
#124 = ( NAMED_UNIT(*) SI_UNIT($,.STERADIAN.) SOLID_ANGLE_UNIT() );
#125 = UNCERTAINTY_MEASURE_WITH_UNIT(LENGTH_MEASURE(1.E-07),#122,
  'distance_accuracy_value','confusion accuracy');
#126 = PRODUCT_RELATED_PRODUCT_CATEGORY('part',$,(#7));
ENDSEC;
END-ISO-10303-21;
