ISO-10303-21;
HEADER;
FILE_DESCRIPTION(('Open CASCADE Model'),'2;1');
FILE_NAME('Open CASCADE Shape Model','2026-06-02T12:09:04',('Author'),(
    'Open CASCADE'),'Open CASCADE STEP processor 7.9','Open CASCADE 7.9'
  ,'Unknown');
FILE_SCHEMA(('AUTOMOTIVE_DESIGN { 1 0 10303 214 1 1 1 1 }'));
ENDSEC;
DATA;
#1 = APPLICATION_PROTOCOL_DEFINITION('international standard',
  'automotive_design',2000,#2);
#2 = APPLICATION_CONTEXT(
  'core data for automotive mechanical design processes');
#3 = SHAPE_DEFINITION_REPRESENTATION(#4,#10);
#4 = PRODUCT_DEFINITION_SHAPE('','',#5);
#5 = PRODUCT_DEFINITION('design','',#6,#9);
#6 = PRODUCT_DEFINITION_FORMATION('','',#7);
#7 = PRODUCT('Open CASCADE STEP translator 7.9 30',
  'Open CASCADE STEP translator 7.9 30','',(#8));
#8 = PRODUCT_CONTEXT('',#2,'mechanical');
#9 = PRODUCT_DEFINITION_CONTEXT('part definition',#2,'design');
#10 = MANIFOLD_SURFACE_SHAPE_REPRESENTATION('',(#11,#15),#121);
#11 = AXIS2_PLACEMENT_3D('',#12,#13,#14);
#12 = CARTESIAN_POINT('',(0.,0.,0.));
#13 = DIRECTION('',(0.,0.,1.));
#14 = DIRECTION('',(1.,0.,-0.));
#15 = SHELL_BASED_SURFACE_MODEL('',(#16));
#16 = OPEN_SHELL('',(#17));
#17 = ADVANCED_FACE('',(#18),#40,.T.);
#18 = FACE_BOUND('',#19,.T.);
#19 = EDGE_LOOP('',(#20,#59,#75,#107));
#20 = ORIENTED_EDGE('',*,*,#21,.T.);
#21 = EDGE_CURVE('',#22,#24,#26,.T.);
#22 = VERTEX_POINT('',#23);
#23 = CARTESIAN_POINT('',(0.,-9.061793609572,0.));
#24 = VERTEX_POINT('',#25);
#25 = CARTESIAN_POINT('',(1.5E+03,-10.96369644167,0.));
#26 = SURFACE_CURVE('',#27,(#39),.PCURVE_S1.);
#27 = B_SPLINE_CURVE_WITH_KNOTS('',1,(#28,#29,#30,#31,#32,#33,#34,#35,
    #36,#37,#38),.UNSPECIFIED.,.F.,.F.,(2,1,1,1,1,1,1,1,1,1,2),(0.,
    2.121506998036E-02,0.226106918827,0.296827619708,0.446829059462,
    0.657224139375,0.750087935283,0.79404354655,0.843830731172,
    0.868478547823,1.),.UNSPECIFIED.);
#28 = CARTESIAN_POINT('',(0.,-9.061793609572,0.));
#29 = CARTESIAN_POINT('',(31.72757308174,-12.74105001659,0.));
#30 = CARTESIAN_POINT('',(340.18576400741,-9.677492718523,0.));
#31 = CARTESIAN_POINT('',(444.01753826434,13.890878183965,0.));
#32 = CARTESIAN_POINT('',(669.62638259051,3.818929760798,0.));
#33 = CARTESIAN_POINT('',(986.23596351141,13.539045830584,0.));
#34 = CARTESIAN_POINT('',(1.126034548724E+03,11.721531266563,0.));
#35 = CARTESIAN_POINT('',(1.189995920361E+03,-5.259168860025,0.));
#36 = CARTESIAN_POINT('',(1.264943999165E+03,-6.397745889351,0.));
#37 = CARTESIAN_POINT('',(1.302007978709E+03,-8.211620482549,0.));
#38 = CARTESIAN_POINT('',(1.5E+03,-10.96369644167,0.));
#39 = PCURVE('',#40,#45);
#40 = PLANE('',#41);
#41 = AXIS2_PLACEMENT_3D('',#42,#43,#44);
#42 = CARTESIAN_POINT('',(750.7356076539,75.,0.));
#43 = DIRECTION('',(0.,0.,1.));
#44 = DIRECTION('',(1.,0.,-0.));
#45 = DEFINITIONAL_REPRESENTATION('',(#46),#58);
#46 = B_SPLINE_CURVE_WITH_KNOTS('',1,(#47,#48,#49,#50,#51,#52,#53,#54,
    #55,#56,#57),.UNSPECIFIED.,.F.,.F.,(2,1,1,1,1,1,1,1,1,1,2),(0.,
    2.121506998036E-02,0.226106918827,0.296827619708,0.446829059462,
    0.657224139375,0.750087935283,0.79404354655,0.843830731172,
    0.868478547823,1.),.UNSPECIFIED.);
#47 = CARTESIAN_POINT('',(-750.7356076539,-84.06179360957));
#48 = CARTESIAN_POINT('',(-719.0080345721,-87.74105001659));
#49 = CARTESIAN_POINT('',(-410.5498436464,-84.67749271852));
#50 = CARTESIAN_POINT('',(-306.7180693895,-61.10912181603));
#51 = CARTESIAN_POINT('',(-81.10922506339,-71.1810702392));
#52 = CARTESIAN_POINT('',(235.5003558575,-61.46095416941));
#53 = CARTESIAN_POINT('',(375.29894107009,-63.27846873343));
#54 = CARTESIAN_POINT('',(439.26031270692,-80.25916886002));
#55 = CARTESIAN_POINT('',(514.20839151105,-81.39774588935));
#56 = CARTESIAN_POINT('',(551.2723710549,-83.21162048254));
#57 = CARTESIAN_POINT('',(749.26439234609,-85.96369644167));
#58 = ( GEOMETRIC_REPRESENTATION_CONTEXT(2) 
PARAMETRIC_REPRESENTATION_CONTEXT() REPRESENTATION_CONTEXT('2D SPACE',''
  ) );
#59 = ORIENTED_EDGE('',*,*,#60,.T.);
#60 = EDGE_CURVE('',#24,#61,#63,.T.);
#61 = VERTEX_POINT('',#62);
#62 = CARTESIAN_POINT('',(1.5E+03,160.96369644167,0.));
#63 = SURFACE_CURVE('',#64,(#68),.PCURVE_S1.);
#64 = LINE('',#65,#66);
#65 = CARTESIAN_POINT('',(1.5E+03,-10.96369644167,0.));
#66 = VECTOR('',#67,1.);
#67 = DIRECTION('',(0.,1.,0.));
#68 = PCURVE('',#40,#69);
#69 = DEFINITIONAL_REPRESENTATION('',(#70),#74);
#70 = LINE('',#71,#72);
#71 = CARTESIAN_POINT('',(749.26439234609,-85.96369644167));
#72 = VECTOR('',#73,1.);
#73 = DIRECTION('',(0.,1.));
#74 = ( GEOMETRIC_REPRESENTATION_CONTEXT(2) 
PARAMETRIC_REPRESENTATION_CONTEXT() REPRESENTATION_CONTEXT('2D SPACE',''
  ) );
#75 = ORIENTED_EDGE('',*,*,#76,.T.);
#76 = EDGE_CURVE('',#61,#77,#79,.T.);
#77 = VERTEX_POINT('',#78);
#78 = CARTESIAN_POINT('',(0.,159.06179360957,0.));
#79 = SURFACE_CURVE('',#80,(#92),.PCURVE_S1.);
#80 = B_SPLINE_CURVE_WITH_KNOTS('',1,(#81,#82,#83,#84,#85,#86,#87,#88,
    #89,#90,#91),.UNSPECIFIED.,.F.,.F.,(2,1,1,1,1,1,1,1,1,1,2),(0.,
    0.131521452177,0.156169268828,0.20595645345,0.249912064717,
    0.342775860625,0.553170940538,0.703172380292,0.773893081173,
    0.97878493002,1.),.UNSPECIFIED.);
#81 = CARTESIAN_POINT('',(1.5E+03,160.96369644167,0.));
#82 = CARTESIAN_POINT('',(1.302007978709E+03,158.21162048254,0.));
#83 = CARTESIAN_POINT('',(1.264943999165E+03,156.39774588935,0.));
#84 = CARTESIAN_POINT('',(1.189995920361E+03,155.25916886002,0.));
#85 = CARTESIAN_POINT('',(1.126034548724E+03,138.27846873343,0.));
#86 = CARTESIAN_POINT('',(986.23596351141,136.46095416941,0.));
#87 = CARTESIAN_POINT('',(669.62638259051,146.1810702392,0.));
#88 = CARTESIAN_POINT('',(444.01753826434,136.10912181603,0.));
#89 = CARTESIAN_POINT('',(340.18576400741,159.67749271852,0.));
#90 = CARTESIAN_POINT('',(31.72757308174,162.74105001659,0.));
#91 = CARTESIAN_POINT('',(0.,159.06179360957,0.));
#92 = PCURVE('',#40,#93);
#93 = DEFINITIONAL_REPRESENTATION('',(#94),#106);
#94 = B_SPLINE_CURVE_WITH_KNOTS('',1,(#95,#96,#97,#98,#99,#100,#101,#102
    ,#103,#104,#105),.UNSPECIFIED.,.F.,.F.,(2,1,1,1,1,1,1,1,1,1,2),(0.,
    0.131521452177,0.156169268828,0.20595645345,0.249912064717,
    0.342775860625,0.553170940538,0.703172380292,0.773893081173,
    0.97878493002,1.),.UNSPECIFIED.);
#95 = CARTESIAN_POINT('',(749.26439234609,85.96369644167));
#96 = CARTESIAN_POINT('',(551.2723710549,83.211620482549));
#97 = CARTESIAN_POINT('',(514.20839151105,81.397745889351));
#98 = CARTESIAN_POINT('',(439.26031270692,80.259168860025));
#99 = CARTESIAN_POINT('',(375.29894107009,63.278468733437));
#100 = CARTESIAN_POINT('',(235.5003558575,61.460954169416));
#101 = CARTESIAN_POINT('',(-81.10922506339,71.181070239202));
#102 = CARTESIAN_POINT('',(-306.7180693895,61.109121816035));
#103 = CARTESIAN_POINT('',(-410.5498436464,84.677492718523));
#104 = CARTESIAN_POINT('',(-719.0080345721,87.741050016597));
#105 = CARTESIAN_POINT('',(-750.7356076539,84.061793609572));
#106 = ( GEOMETRIC_REPRESENTATION_CONTEXT(2) 
PARAMETRIC_REPRESENTATION_CONTEXT() REPRESENTATION_CONTEXT('2D SPACE',''
  ) );
#107 = ORIENTED_EDGE('',*,*,#108,.T.);
#108 = EDGE_CURVE('',#77,#22,#109,.T.);
#109 = SURFACE_CURVE('',#110,(#114),.PCURVE_S1.);
#110 = LINE('',#111,#112);
#111 = CARTESIAN_POINT('',(0.,159.06179360957,0.));
#112 = VECTOR('',#113,1.);
#113 = DIRECTION('',(0.,-1.,0.));
#114 = PCURVE('',#40,#115);
#115 = DEFINITIONAL_REPRESENTATION('',(#116),#120);
#116 = LINE('',#117,#118);
#117 = CARTESIAN_POINT('',(-750.7356076539,84.061793609572));
#118 = VECTOR('',#119,1.);
#119 = DIRECTION('',(0.,-1.));
#120 = ( GEOMETRIC_REPRESENTATION_CONTEXT(2) 
PARAMETRIC_REPRESENTATION_CONTEXT() REPRESENTATION_CONTEXT('2D SPACE',''
  ) );
#121 = ( GEOMETRIC_REPRESENTATION_CONTEXT(3) 
GLOBAL_UNCERTAINTY_ASSIGNED_CONTEXT((#125)) GLOBAL_UNIT_ASSIGNED_CONTEXT
((#122,#123,#124)) REPRESENTATION_CONTEXT('Context #1',
  '3D Context with UNIT and UNCERTAINTY') );
#122 = ( LENGTH_UNIT() NAMED_UNIT(*) SI_UNIT(.MILLI.,.METRE.) );
#123 = ( NAMED_UNIT(*) PLANE_ANGLE_UNIT() SI_UNIT($,.RADIAN.) );
#124 = ( NAMED_UNIT(*) SI_UNIT($,.STERADIAN.) SOLID_ANGLE_UNIT() );
#125 = UNCERTAINTY_MEASURE_WITH_UNIT(LENGTH_MEASURE(1.E-07),#122,
  'distance_accuracy_value','confusion accuracy');
#126 = PRODUCT_RELATED_PRODUCT_CATEGORY('part',$,(#7));
ENDSEC;
END-ISO-10303-21;
