ISO-10303-21;
HEADER;
FILE_DESCRIPTION(('Open CASCADE Model'),'2;1');
FILE_NAME('Open CASCADE Shape Model','2026-06-02T12:09:04',('Author'),(
    'Open CASCADE'),'Open CASCADE STEP processor 7.9','Open CASCADE 7.9'
  ,'Unknown');
FILE_SCHEMA(('AUTOMOTIVE_DESIGN { 1 0 10303 214 1 1 1 1 }'));
ENDSEC;
DATA;
#1 = APPLICATION_PROTOCOL_DEFINITION('international standard',
  'automotive_design',2000,#2);
#2 = APPLICATION_CONTEXT(
  'core data for automotive mechanical design processes');
#3 = SHAPE_DEFINITION_REPRESENTATION(#4,#10);
#4 = PRODUCT_DEFINITION_SHAPE('','',#5);
#5 = PRODUCT_DEFINITION('design','',#6,#9);
#6 = PRODUCT_DEFINITION_FORMATION('','',#7);
#7 = PRODUCT('Open CASCADE STEP translator 7.9 73',
  'Open CASCADE STEP translator 7.9 73','',(#8));
#8 = PRODUCT_CONTEXT('',#2,'mechanical');
#9 = PRODUCT_DEFINITION_CONTEXT('part definition',#2,'design');
#10 = MANIFOLD_SURFACE_SHAPE_REPRESENTATION('',(#11,#15),#121);
#11 = AXIS2_PLACEMENT_3D('',#12,#13,#14);
#12 = CARTESIAN_POINT('',(0.,0.,0.));
#13 = DIRECTION('',(0.,0.,1.));
#14 = DIRECTION('',(1.,0.,-0.));
#15 = SHELL_BASED_SURFACE_MODEL('',(#16));
#16 = OPEN_SHELL('',(#17));
#17 = ADVANCED_FACE('',(#18),#40,.T.);
#18 = FACE_BOUND('',#19,.T.);
#19 = EDGE_LOOP('',(#20,#59,#75,#107));
#20 = ORIENTED_EDGE('',*,*,#21,.T.);
#21 = EDGE_CURVE('',#22,#24,#26,.T.);
#22 = VERTEX_POINT('',#23);
#23 = CARTESIAN_POINT('',(0.,-7.553421276923,0.));
#24 = VERTEX_POINT('',#25);
#25 = CARTESIAN_POINT('',(1.5E+03,6.204441633337E-02,0.));
#26 = SURFACE_CURVE('',#27,(#39),.PCURVE_S1.);
#27 = B_SPLINE_CURVE_WITH_KNOTS('',1,(#28,#29,#30,#31,#32,#33,#34,#35,
    #36,#37,#38),.UNSPECIFIED.,.F.,.F.,(2,1,1,1,1,1,1,1,1,1,2),(0.,
    0.206231557169,0.318081231867,0.481503103415,0.697846557004,
    0.749727104692,0.837672452758,0.868428646986,0.907021866338,
    0.941254551574,1.),.UNSPECIFIED.);
#28 = CARTESIAN_POINT('',(0.,-7.553421276923,0.));
#29 = CARTESIAN_POINT('',(309.92299541511,5.584596836651,0.));
#30 = CARTESIAN_POINT('',(478.15617029069,6.815870095625,0.));
#31 = CARTESIAN_POINT('',(723.92883413603,11.073290074485,0.));
#32 = CARTESIAN_POINT('',(1.049208738654E+03,1.835348945942,0.));
#33 = CARTESIAN_POINT('',(1.127137889529E+03,5.911061134881,0.));
#34 = CARTESIAN_POINT('',(1.259405134652E+03,3.921814759771,0.));
#35 = CARTESIAN_POINT('',(1.305493683639E+03,7.920082121383,0.));
#36 = CARTESIAN_POINT('',(1.361347554229E+03,-7.894664694597,0.));
#37 = CARTESIAN_POINT('',(1.412594471831E+03,-12.90010042064,0.));
#38 = CARTESIAN_POINT('',(1.5E+03,6.204441633337E-02,0.));
#39 = PCURVE('',#40,#45);
#40 = PLANE('',#41);
#41 = AXIS2_PLACEMENT_3D('',#42,#43,#44);
#42 = CARTESIAN_POINT('',(747.821394975,75.,0.));
#43 = DIRECTION('',(0.,0.,1.));
#44 = DIRECTION('',(1.,0.,-0.));
#45 = DEFINITIONAL_REPRESENTATION('',(#46),#58);
#46 = B_SPLINE_CURVE_WITH_KNOTS('',1,(#47,#48,#49,#50,#51,#52,#53,#54,
    #55,#56,#57),.UNSPECIFIED.,.F.,.F.,(2,1,1,1,1,1,1,1,1,1,2),(0.,
    0.206231557169,0.318081231867,0.481503103415,0.697846557004,
    0.749727104692,0.837672452758,0.868428646986,0.907021866338,
    0.941254551574,1.),.UNSPECIFIED.);
#47 = CARTESIAN_POINT('',(-747.821394975,-82.55342127692));
#48 = CARTESIAN_POINT('',(-437.8983995598,-69.41540316334));
#49 = CARTESIAN_POINT('',(-269.6652246843,-68.18412990437));
#50 = CARTESIAN_POINT('',(-23.89256083896,-63.92670992551));
#51 = CARTESIAN_POINT('',(301.38734367924,-73.16465105405));
#52 = CARTESIAN_POINT('',(379.31649455352,-69.08893886511));
#53 = CARTESIAN_POINT('',(511.58373967722,-71.07818524022));
#54 = CARTESIAN_POINT('',(557.67228866399,-67.07991787861));
#55 = CARTESIAN_POINT('',(613.52615925433,-82.89466469459));
#56 = CARTESIAN_POINT('',(664.77307685617,-87.90010042064));
#57 = CARTESIAN_POINT('',(752.17860502499,-74.93795558366));
#58 = ( GEOMETRIC_REPRESENTATION_CONTEXT(2) 
PARAMETRIC_REPRESENTATION_CONTEXT() REPRESENTATION_CONTEXT('2D SPACE',''
  ) );
#59 = ORIENTED_EDGE('',*,*,#60,.T.);
#60 = EDGE_CURVE('',#24,#61,#63,.T.);
#61 = VERTEX_POINT('',#62);
#62 = CARTESIAN_POINT('',(1.5E+03,149.93795558366,0.));
#63 = SURFACE_CURVE('',#64,(#68),.PCURVE_S1.);
#64 = LINE('',#65,#66);
#65 = CARTESIAN_POINT('',(1.5E+03,6.204441633337E-02,0.));
#66 = VECTOR('',#67,1.);
#67 = DIRECTION('',(0.,1.,0.));
#68 = PCURVE('',#40,#69);
#69 = DEFINITIONAL_REPRESENTATION('',(#70),#74);
#70 = LINE('',#71,#72);
#71 = CARTESIAN_POINT('',(752.17860502499,-74.93795558366));
#72 = VECTOR('',#73,1.);
#73 = DIRECTION('',(0.,1.));
#74 = ( GEOMETRIC_REPRESENTATION_CONTEXT(2) 
PARAMETRIC_REPRESENTATION_CONTEXT() REPRESENTATION_CONTEXT('2D SPACE',''
  ) );
#75 = ORIENTED_EDGE('',*,*,#76,.T.);
#76 = EDGE_CURVE('',#61,#77,#79,.T.);
#77 = VERTEX_POINT('',#78);
#78 = CARTESIAN_POINT('',(0.,157.55342127692,0.));
#79 = SURFACE_CURVE('',#80,(#92),.PCURVE_S1.);
#80 = B_SPLINE_CURVE_WITH_KNOTS('',1,(#81,#82,#83,#84,#85,#86,#87,#88,
    #89,#90,#91),.UNSPECIFIED.,.F.,.F.,(2,1,1,1,1,1,1,1,1,1,2),(0.,
    5.874544842628E-02,9.297813366207E-02,0.131571353014,0.162327547242,
    0.250272895308,0.302153442996,0.518496896585,0.681918768133,
    0.793768442831,1.),.UNSPECIFIED.);
#81 = CARTESIAN_POINT('',(1.5E+03,149.93795558366,0.));
#82 = CARTESIAN_POINT('',(1.412594471831E+03,162.90010042064,0.));
#83 = CARTESIAN_POINT('',(1.361347554229E+03,157.89466469459,0.));
#84 = CARTESIAN_POINT('',(1.305493683639E+03,142.07991787861,0.));
#85 = CARTESIAN_POINT('',(1.259405134652E+03,146.07818524022,0.));
#86 = CARTESIAN_POINT('',(1.127137889529E+03,144.08893886511,0.));
#87 = CARTESIAN_POINT('',(1.049208738654E+03,148.16465105405,0.));
#88 = CARTESIAN_POINT('',(723.92883413603,138.92670992551,0.));
#89 = CARTESIAN_POINT('',(478.15617029069,143.18412990437,0.));
#90 = CARTESIAN_POINT('',(309.92299541511,144.41540316334,0.));
#91 = CARTESIAN_POINT('',(0.,157.55342127692,0.));
#92 = PCURVE('',#40,#93);
#93 = DEFINITIONAL_REPRESENTATION('',(#94),#106);
#94 = B_SPLINE_CURVE_WITH_KNOTS('',1,(#95,#96,#97,#98,#99,#100,#101,#102
    ,#103,#104,#105),.UNSPECIFIED.,.F.,.F.,(2,1,1,1,1,1,1,1,1,1,2),(0.,
    5.874544842628E-02,9.297813366207E-02,0.131571353014,0.162327547242,
    0.250272895308,0.302153442996,0.518496896585,0.681918768133,
    0.793768442831,1.),.UNSPECIFIED.);
#95 = CARTESIAN_POINT('',(752.17860502499,74.937955583667));
#96 = CARTESIAN_POINT('',(664.77307685617,87.900100420642));
#97 = CARTESIAN_POINT('',(613.52615925433,82.894664694597));
#98 = CARTESIAN_POINT('',(557.67228866399,67.079917878617));
#99 = CARTESIAN_POINT('',(511.58373967722,71.078185240229));
#100 = CARTESIAN_POINT('',(379.31649455352,69.088938865119));
#101 = CARTESIAN_POINT('',(301.38734367924,73.164651054058));
#102 = CARTESIAN_POINT('',(-23.89256083896,63.926709925515));
#103 = CARTESIAN_POINT('',(-269.6652246843,68.184129904375));
#104 = CARTESIAN_POINT('',(-437.8983995598,69.415403163349));
#105 = CARTESIAN_POINT('',(-747.821394975,82.553421276923));
#106 = ( GEOMETRIC_REPRESENTATION_CONTEXT(2) 
PARAMETRIC_REPRESENTATION_CONTEXT() REPRESENTATION_CONTEXT('2D SPACE',''
  ) );
#107 = ORIENTED_EDGE('',*,*,#108,.T.);
#108 = EDGE_CURVE('',#77,#22,#109,.T.);
#109 = SURFACE_CURVE('',#110,(#114),.PCURVE_S1.);
#110 = LINE('',#111,#112);
#111 = CARTESIAN_POINT('',(0.,157.55342127692,0.));
#112 = VECTOR('',#113,1.);
#113 = DIRECTION('',(0.,-1.,0.));
#114 = PCURVE('',#40,#115);
#115 = DEFINITIONAL_REPRESENTATION('',(#116),#120);
#116 = LINE('',#117,#118);
#117 = CARTESIAN_POINT('',(-747.821394975,82.553421276923));
#118 = VECTOR('',#119,1.);
#119 = DIRECTION('',(0.,-1.));
#120 = ( GEOMETRIC_REPRESENTATION_CONTEXT(2) 
PARAMETRIC_REPRESENTATION_CONTEXT() REPRESENTATION_CONTEXT('2D SPACE',''
  ) );
#121 = ( GEOMETRIC_REPRESENTATION_CONTEXT(3) 
GLOBAL_UNCERTAINTY_ASSIGNED_CONTEXT((#125)) GLOBAL_UNIT_ASSIGNED_CONTEXT
((#122,#123,#124)) REPRESENTATION_CONTEXT('Context #1',
  '3D Context with UNIT and UNCERTAINTY') );
#122 = ( LENGTH_UNIT() NAMED_UNIT(*) SI_UNIT(.MILLI.,.METRE.) );
#123 = ( NAMED_UNIT(*) PLANE_ANGLE_UNIT() SI_UNIT($,.RADIAN.) );
#124 = ( NAMED_UNIT(*) SI_UNIT($,.STERADIAN.) SOLID_ANGLE_UNIT() );
#125 = UNCERTAINTY_MEASURE_WITH_UNIT(LENGTH_MEASURE(1.E-07),#122,
  'distance_accuracy_value','confusion accuracy');
#126 = PRODUCT_RELATED_PRODUCT_CATEGORY('part',$,(#7));
ENDSEC;
END-ISO-10303-21;
