ISO-10303-21;
HEADER;
FILE_DESCRIPTION(('Open CASCADE Model'),'2;1');
FILE_NAME('Open CASCADE Shape Model','2026-06-02T12:09:04',('Author'),(
    'Open CASCADE'),'Open CASCADE STEP processor 7.9','Open CASCADE 7.9'
  ,'Unknown');
FILE_SCHEMA(('AUTOMOTIVE_DESIGN { 1 0 10303 214 1 1 1 1 }'));
ENDSEC;
DATA;
#1 = APPLICATION_PROTOCOL_DEFINITION('international standard',
  'automotive_design',2000,#2);
#2 = APPLICATION_CONTEXT(
  'core data for automotive mechanical design processes');
#3 = SHAPE_DEFINITION_REPRESENTATION(#4,#10);
#4 = PRODUCT_DEFINITION_SHAPE('','',#5);
#5 = PRODUCT_DEFINITION('design','',#6,#9);
#6 = PRODUCT_DEFINITION_FORMATION('','',#7);
#7 = PRODUCT('Open CASCADE STEP translator 7.9 70',
  'Open CASCADE STEP translator 7.9 70','',(#8));
#8 = PRODUCT_CONTEXT('',#2,'mechanical');
#9 = PRODUCT_DEFINITION_CONTEXT('part definition',#2,'design');
#10 = MANIFOLD_SURFACE_SHAPE_REPRESENTATION('',(#11,#15),#121);
#11 = AXIS2_PLACEMENT_3D('',#12,#13,#14);
#12 = CARTESIAN_POINT('',(0.,0.,0.));
#13 = DIRECTION('',(0.,0.,1.));
#14 = DIRECTION('',(1.,0.,-0.));
#15 = SHELL_BASED_SURFACE_MODEL('',(#16));
#16 = OPEN_SHELL('',(#17));
#17 = ADVANCED_FACE('',(#18),#40,.T.);
#18 = FACE_BOUND('',#19,.T.);
#19 = EDGE_LOOP('',(#20,#59,#75,#107));
#20 = ORIENTED_EDGE('',*,*,#21,.T.);
#21 = EDGE_CURVE('',#22,#24,#26,.T.);
#22 = VERTEX_POINT('',#23);
#23 = CARTESIAN_POINT('',(0.,-4.128269406871,0.));
#24 = VERTEX_POINT('',#25);
#25 = CARTESIAN_POINT('',(1.5E+03,2.154904094734,0.));
#26 = SURFACE_CURVE('',#27,(#39),.PCURVE_S1.);
#27 = B_SPLINE_CURVE_WITH_KNOTS('',1,(#28,#29,#30,#31,#32,#33,#34,#35,
    #36,#37,#38),.UNSPECIFIED.,.F.,.F.,(2,1,1,1,1,1,1,1,1,1,2),(0.,
    0.177454023349,0.239358975846,0.309019639755,0.369272766961,
    0.569811844532,0.649434992166,0.714785064266,0.742552148527,
    0.961622083198,1.),.UNSPECIFIED.);
#28 = CARTESIAN_POINT('',(0.,-4.128269406871,0.));
#29 = CARTESIAN_POINT('',(267.69563263505,13.474996141546,0.));
#30 = CARTESIAN_POINT('',(357.02245290558,-14.44161303759,0.));
#31 = CARTESIAN_POINT('',(461.20712085848,0.92984762962,0.));
#32 = CARTESIAN_POINT('',(551.38895901425,-11.90266114772,0.));
#33 = CARTESIAN_POINT('',(854.2991424836,0.733164803012,0.));
#34 = CARTESIAN_POINT('',(974.02658930165,13.190075442773,0.));
#35 = CARTESIAN_POINT('',(1.070142095944E+03,-9.666406382814,0.));
#36 = CARTESIAN_POINT('',(1.111794254269E+03,-4.445511890014,0.));
#37 = CARTESIAN_POINT('',(1.442958454313E+03,-8.452711427218,0.));
#38 = CARTESIAN_POINT('',(1.5E+03,2.154904094734,0.));
#39 = PCURVE('',#40,#45);
#40 = PLANE('',#41);
#41 = AXIS2_PLACEMENT_3D('',#42,#43,#44);
#42 = CARTESIAN_POINT('',(746.46182425411,75.,0.));
#43 = DIRECTION('',(0.,0.,1.));
#44 = DIRECTION('',(1.,0.,-0.));
#45 = DEFINITIONAL_REPRESENTATION('',(#46),#58);
#46 = B_SPLINE_CURVE_WITH_KNOTS('',1,(#47,#48,#49,#50,#51,#52,#53,#54,
    #55,#56,#57),.UNSPECIFIED.,.F.,.F.,(2,1,1,1,1,1,1,1,1,1,2),(0.,
    0.177454023349,0.239358975846,0.309019639755,0.369272766961,
    0.569811844532,0.649434992166,0.714785064266,0.742552148527,
    0.961622083198,1.),.UNSPECIFIED.);
#47 = CARTESIAN_POINT('',(-746.4618242541,-79.12826940687));
#48 = CARTESIAN_POINT('',(-478.766191619,-61.52500385845));
#49 = CARTESIAN_POINT('',(-389.4393713485,-89.44161303759));
#50 = CARTESIAN_POINT('',(-285.2547033956,-74.07015237038));
#51 = CARTESIAN_POINT('',(-195.0728652398,-86.90266114772));
#52 = CARTESIAN_POINT('',(107.83731822948,-74.26683519698));
#53 = CARTESIAN_POINT('',(227.56476504754,-61.80992455722));
#54 = CARTESIAN_POINT('',(323.6802716899,-84.66640638281));
#55 = CARTESIAN_POINT('',(365.3324300151,-79.44551189001));
#56 = CARTESIAN_POINT('',(696.49663005919,-83.45271142721));
#57 = CARTESIAN_POINT('',(753.53817574588,-72.84509590526));
#58 = ( GEOMETRIC_REPRESENTATION_CONTEXT(2) 
PARAMETRIC_REPRESENTATION_CONTEXT() REPRESENTATION_CONTEXT('2D SPACE',''
  ) );
#59 = ORIENTED_EDGE('',*,*,#60,.T.);
#60 = EDGE_CURVE('',#24,#61,#63,.T.);
#61 = VERTEX_POINT('',#62);
#62 = CARTESIAN_POINT('',(1.5E+03,147.84509590526,0.));
#63 = SURFACE_CURVE('',#64,(#68),.PCURVE_S1.);
#64 = LINE('',#65,#66);
#65 = CARTESIAN_POINT('',(1.5E+03,2.154904094734,0.));
#66 = VECTOR('',#67,1.);
#67 = DIRECTION('',(0.,1.,0.));
#68 = PCURVE('',#40,#69);
#69 = DEFINITIONAL_REPRESENTATION('',(#70),#74);
#70 = LINE('',#71,#72);
#71 = CARTESIAN_POINT('',(753.53817574588,-72.84509590526));
#72 = VECTOR('',#73,1.);
#73 = DIRECTION('',(0.,1.));
#74 = ( GEOMETRIC_REPRESENTATION_CONTEXT(2) 
PARAMETRIC_REPRESENTATION_CONTEXT() REPRESENTATION_CONTEXT('2D SPACE',''
  ) );
#75 = ORIENTED_EDGE('',*,*,#76,.T.);
#76 = EDGE_CURVE('',#61,#77,#79,.T.);
#77 = VERTEX_POINT('',#78);
#78 = CARTESIAN_POINT('',(0.,154.12826940687,0.));
#79 = SURFACE_CURVE('',#80,(#92),.PCURVE_S1.);
#80 = B_SPLINE_CURVE_WITH_KNOTS('',1,(#81,#82,#83,#84,#85,#86,#87,#88,
    #89,#90,#91),.UNSPECIFIED.,.F.,.F.,(2,1,1,1,1,1,1,1,1,1,2),(0.,
    3.837791680189E-02,0.257447851473,0.285214935734,0.350565007834,
    0.430188155468,0.630727233039,0.690980360245,0.760641024154,
    0.822545976651,1.),.UNSPECIFIED.);
#81 = CARTESIAN_POINT('',(1.5E+03,147.84509590526,0.));
#82 = CARTESIAN_POINT('',(1.442958454313E+03,158.45271142721,0.));
#83 = CARTESIAN_POINT('',(1.111794254269E+03,154.44551189001,0.));
#84 = CARTESIAN_POINT('',(1.070142095944E+03,159.66640638281,0.));
#85 = CARTESIAN_POINT('',(974.02658930165,136.80992455722,0.));
#86 = CARTESIAN_POINT('',(854.2991424836,149.26683519698,0.));
#87 = CARTESIAN_POINT('',(551.38895901425,161.90266114772,0.));
#88 = CARTESIAN_POINT('',(461.20712085848,149.07015237038,0.));
#89 = CARTESIAN_POINT('',(357.02245290558,164.44161303759,0.));
#90 = CARTESIAN_POINT('',(267.69563263505,136.52500385845,0.));
#91 = CARTESIAN_POINT('',(0.,154.12826940687,0.));
#92 = PCURVE('',#40,#93);
#93 = DEFINITIONAL_REPRESENTATION('',(#94),#106);
#94 = B_SPLINE_CURVE_WITH_KNOTS('',1,(#95,#96,#97,#98,#99,#100,#101,#102
    ,#103,#104,#105),.UNSPECIFIED.,.F.,.F.,(2,1,1,1,1,1,1,1,1,1,2),(0.,
    3.837791680189E-02,0.257447851473,0.285214935734,0.350565007834,
    0.430188155468,0.630727233039,0.690980360245,0.760641024154,
    0.822545976651,1.),.UNSPECIFIED.);
#95 = CARTESIAN_POINT('',(753.53817574588,72.845095905266));
#96 = CARTESIAN_POINT('',(696.49663005919,83.452711427218));
#97 = CARTESIAN_POINT('',(365.3324300151,79.445511890014));
#98 = CARTESIAN_POINT('',(323.6802716899,84.666406382814));
#99 = CARTESIAN_POINT('',(227.56476504754,61.809924557227));
#100 = CARTESIAN_POINT('',(107.83731822948,74.266835196988));
#101 = CARTESIAN_POINT('',(-195.0728652398,86.902661147721));
#102 = CARTESIAN_POINT('',(-285.2547033956,74.07015237038));
#103 = CARTESIAN_POINT('',(-389.4393713485,89.44161303759));
#104 = CARTESIAN_POINT('',(-478.766191619,61.525003858454));
#105 = CARTESIAN_POINT('',(-746.4618242541,79.128269406871));
#106 = ( GEOMETRIC_REPRESENTATION_CONTEXT(2) 
PARAMETRIC_REPRESENTATION_CONTEXT() REPRESENTATION_CONTEXT('2D SPACE',''
  ) );
#107 = ORIENTED_EDGE('',*,*,#108,.T.);
#108 = EDGE_CURVE('',#77,#22,#109,.T.);
#109 = SURFACE_CURVE('',#110,(#114),.PCURVE_S1.);
#110 = LINE('',#111,#112);
#111 = CARTESIAN_POINT('',(0.,154.12826940687,0.));
#112 = VECTOR('',#113,1.);
#113 = DIRECTION('',(0.,-1.,0.));
#114 = PCURVE('',#40,#115);
#115 = DEFINITIONAL_REPRESENTATION('',(#116),#120);
#116 = LINE('',#117,#118);
#117 = CARTESIAN_POINT('',(-746.4618242541,79.128269406871));
#118 = VECTOR('',#119,1.);
#119 = DIRECTION('',(0.,-1.));
#120 = ( GEOMETRIC_REPRESENTATION_CONTEXT(2) 
PARAMETRIC_REPRESENTATION_CONTEXT() REPRESENTATION_CONTEXT('2D SPACE',''
  ) );
#121 = ( GEOMETRIC_REPRESENTATION_CONTEXT(3) 
GLOBAL_UNCERTAINTY_ASSIGNED_CONTEXT((#125)) GLOBAL_UNIT_ASSIGNED_CONTEXT
((#122,#123,#124)) REPRESENTATION_CONTEXT('Context #1',
  '3D Context with UNIT and UNCERTAINTY') );
#122 = ( LENGTH_UNIT() NAMED_UNIT(*) SI_UNIT(.MILLI.,.METRE.) );
#123 = ( NAMED_UNIT(*) PLANE_ANGLE_UNIT() SI_UNIT($,.RADIAN.) );
#124 = ( NAMED_UNIT(*) SI_UNIT($,.STERADIAN.) SOLID_ANGLE_UNIT() );
#125 = UNCERTAINTY_MEASURE_WITH_UNIT(LENGTH_MEASURE(1.E-07),#122,
  'distance_accuracy_value','confusion accuracy');
#126 = PRODUCT_RELATED_PRODUCT_CATEGORY('part',$,(#7));
ENDSEC;
END-ISO-10303-21;
