ISO-10303-21;
HEADER;
FILE_DESCRIPTION(('Open CASCADE Model'),'2;1');
FILE_NAME('Open CASCADE Shape Model','2026-06-02T12:09:04',('Author'),(
    'Open CASCADE'),'Open CASCADE STEP processor 7.9','Open CASCADE 7.9'
  ,'Unknown');
FILE_SCHEMA(('AUTOMOTIVE_DESIGN { 1 0 10303 214 1 1 1 1 }'));
ENDSEC;
DATA;
#1 = APPLICATION_PROTOCOL_DEFINITION('international standard',
  'automotive_design',2000,#2);
#2 = APPLICATION_CONTEXT(
  'core data for automotive mechanical design processes');
#3 = SHAPE_DEFINITION_REPRESENTATION(#4,#10);
#4 = PRODUCT_DEFINITION_SHAPE('','',#5);
#5 = PRODUCT_DEFINITION('design','',#6,#9);
#6 = PRODUCT_DEFINITION_FORMATION('','',#7);
#7 = PRODUCT('Open CASCADE STEP translator 7.9 83',
  'Open CASCADE STEP translator 7.9 83','',(#8));
#8 = PRODUCT_CONTEXT('',#2,'mechanical');
#9 = PRODUCT_DEFINITION_CONTEXT('part definition',#2,'design');
#10 = MANIFOLD_SURFACE_SHAPE_REPRESENTATION('',(#11,#15),#121);
#11 = AXIS2_PLACEMENT_3D('',#12,#13,#14);
#12 = CARTESIAN_POINT('',(0.,0.,0.));
#13 = DIRECTION('',(0.,0.,1.));
#14 = DIRECTION('',(1.,0.,-0.));
#15 = SHELL_BASED_SURFACE_MODEL('',(#16));
#16 = OPEN_SHELL('',(#17));
#17 = ADVANCED_FACE('',(#18),#40,.T.);
#18 = FACE_BOUND('',#19,.T.);
#19 = EDGE_LOOP('',(#20,#59,#75,#107));
#20 = ORIENTED_EDGE('',*,*,#21,.T.);
#21 = EDGE_CURVE('',#22,#24,#26,.T.);
#22 = VERTEX_POINT('',#23);
#23 = CARTESIAN_POINT('',(0.,-12.65692519497,0.));
#24 = VERTEX_POINT('',#25);
#25 = CARTESIAN_POINT('',(1.5E+03,-9.817637867722,0.));
#26 = SURFACE_CURVE('',#27,(#39),.PCURVE_S1.);
#27 = B_SPLINE_CURVE_WITH_KNOTS('',1,(#28,#29,#30,#31,#32,#33,#34,#35,
    #36,#37,#38),.UNSPECIFIED.,.F.,.F.,(2,1,1,1,1,1,1,1,1,1,2),(0.,
    0.105197105161,0.189950040373,0.214027067908,0.268741452319,
    0.453570995242,0.520093682454,0.593230176462,0.632939034493,
    0.856011538332,1.),.UNSPECIFIED.);
#28 = CARTESIAN_POINT('',(0.,-12.65692519497,0.));
#29 = CARTESIAN_POINT('',(158.10696883718,5.035108568896,0.));
#30 = CARTESIAN_POINT('',(286.18884618038,9.925958778514,0.));
#31 = CARTESIAN_POINT('',(322.57901528429,8.646835096011,0.));
#32 = CARTESIAN_POINT('',(405.24506836162,12.299958268647,0.));
#33 = CARTESIAN_POINT('',(684.76865154555,11.396681096958,0.));
#34 = CARTESIAN_POINT('',(785.36289247068,12.860863974455,0.));
#35 = CARTESIAN_POINT('',(892.48267624475,-14.69469207614,0.));
#36 = CARTESIAN_POINT('',(945.88335772741,12.778269498928,0.));
#37 = CARTESIAN_POINT('',(1.28324018328E+03,11.023737571458,0.));
#38 = CARTESIAN_POINT('',(1.5E+03,-9.817637867722,0.));
#39 = PCURVE('',#40,#45);
#40 = PLANE('',#41);
#41 = AXIS2_PLACEMENT_3D('',#42,#43,#44);
#42 = CARTESIAN_POINT('',(749.52293447533,75.,0.));
#43 = DIRECTION('',(0.,0.,1.));
#44 = DIRECTION('',(1.,0.,-0.));
#45 = DEFINITIONAL_REPRESENTATION('',(#46),#58);
#46 = B_SPLINE_CURVE_WITH_KNOTS('',1,(#47,#48,#49,#50,#51,#52,#53,#54,
    #55,#56,#57),.UNSPECIFIED.,.F.,.F.,(2,1,1,1,1,1,1,1,1,1,2),(0.,
    0.105197105161,0.189950040373,0.214027067908,0.268741452319,
    0.453570995242,0.520093682454,0.593230176462,0.632939034493,
    0.856011538332,1.),.UNSPECIFIED.);
#47 = CARTESIAN_POINT('',(-749.5229344753,-87.65692519497));
#48 = CARTESIAN_POINT('',(-591.4159656381,-69.9648914311));
#49 = CARTESIAN_POINT('',(-463.3340882949,-65.07404122148));
#50 = CARTESIAN_POINT('',(-426.943919191,-66.35316490398));
#51 = CARTESIAN_POINT('',(-344.2778661137,-62.70004173135));
#52 = CARTESIAN_POINT('',(-64.75428292978,-63.60331890304));
#53 = CARTESIAN_POINT('',(35.839957995345,-62.13913602554));
#54 = CARTESIAN_POINT('',(142.95974176941,-89.69469207614));
#55 = CARTESIAN_POINT('',(196.36042325207,-62.22173050107));
#56 = CARTESIAN_POINT('',(533.71724880463,-63.97626242854));
#57 = CARTESIAN_POINT('',(750.47706552466,-84.81763786772));
#58 = ( GEOMETRIC_REPRESENTATION_CONTEXT(2) 
PARAMETRIC_REPRESENTATION_CONTEXT() REPRESENTATION_CONTEXT('2D SPACE',''
  ) );
#59 = ORIENTED_EDGE('',*,*,#60,.T.);
#60 = EDGE_CURVE('',#24,#61,#63,.T.);
#61 = VERTEX_POINT('',#62);
#62 = CARTESIAN_POINT('',(1.5E+03,159.81763786772,0.));
#63 = SURFACE_CURVE('',#64,(#68),.PCURVE_S1.);
#64 = LINE('',#65,#66);
#65 = CARTESIAN_POINT('',(1.5E+03,-9.817637867722,0.));
#66 = VECTOR('',#67,1.);
#67 = DIRECTION('',(0.,1.,0.));
#68 = PCURVE('',#40,#69);
#69 = DEFINITIONAL_REPRESENTATION('',(#70),#74);
#70 = LINE('',#71,#72);
#71 = CARTESIAN_POINT('',(750.47706552466,-84.81763786772));
#72 = VECTOR('',#73,1.);
#73 = DIRECTION('',(0.,1.));
#74 = ( GEOMETRIC_REPRESENTATION_CONTEXT(2) 
PARAMETRIC_REPRESENTATION_CONTEXT() REPRESENTATION_CONTEXT('2D SPACE',''
  ) );
#75 = ORIENTED_EDGE('',*,*,#76,.T.);
#76 = EDGE_CURVE('',#61,#77,#79,.T.);
#77 = VERTEX_POINT('',#78);
#78 = CARTESIAN_POINT('',(0.,162.65692519497,0.));
#79 = SURFACE_CURVE('',#80,(#92),.PCURVE_S1.);
#80 = B_SPLINE_CURVE_WITH_KNOTS('',1,(#81,#82,#83,#84,#85,#86,#87,#88,
    #89,#90,#91),.UNSPECIFIED.,.F.,.F.,(2,1,1,1,1,1,1,1,1,1,2),(0.,
    0.143988461668,0.367060965507,0.406769823538,0.479906317546,
    0.546429004758,0.731258547681,0.785972932092,0.810049959627,
    0.894802894839,1.),.UNSPECIFIED.);
#81 = CARTESIAN_POINT('',(1.5E+03,159.81763786772,0.));
#82 = CARTESIAN_POINT('',(1.28324018328E+03,138.97626242854,0.));
#83 = CARTESIAN_POINT('',(945.88335772741,137.22173050107,0.));
#84 = CARTESIAN_POINT('',(892.48267624475,164.69469207614,0.));
#85 = CARTESIAN_POINT('',(785.36289247068,137.13913602554,0.));
#86 = CARTESIAN_POINT('',(684.76865154555,138.60331890304,0.));
#87 = CARTESIAN_POINT('',(405.24506836162,137.70004173135,0.));
#88 = CARTESIAN_POINT('',(322.57901528429,141.35316490398,0.));
#89 = CARTESIAN_POINT('',(286.18884618038,140.07404122148,0.));
#90 = CARTESIAN_POINT('',(158.10696883718,144.9648914311,0.));
#91 = CARTESIAN_POINT('',(0.,162.65692519497,0.));
#92 = PCURVE('',#40,#93);
#93 = DEFINITIONAL_REPRESENTATION('',(#94),#106);
#94 = B_SPLINE_CURVE_WITH_KNOTS('',1,(#95,#96,#97,#98,#99,#100,#101,#102
    ,#103,#104,#105),.UNSPECIFIED.,.F.,.F.,(2,1,1,1,1,1,1,1,1,1,2),(0.,
    0.143988461668,0.367060965507,0.406769823538,0.479906317546,
    0.546429004758,0.731258547681,0.785972932092,0.810049959627,
    0.894802894839,1.),.UNSPECIFIED.);
#95 = CARTESIAN_POINT('',(750.47706552466,84.817637867722));
#96 = CARTESIAN_POINT('',(533.71724880463,63.976262428542));
#97 = CARTESIAN_POINT('',(196.36042325207,62.221730501072));
#98 = CARTESIAN_POINT('',(142.95974176941,89.694692076146));
#99 = CARTESIAN_POINT('',(35.839957995345,62.139136025545));
#100 = CARTESIAN_POINT('',(-64.75428292978,63.603318903042));
#101 = CARTESIAN_POINT('',(-344.2778661137,62.700041731353));
#102 = CARTESIAN_POINT('',(-426.943919191,66.353164903989));
#103 = CARTESIAN_POINT('',(-463.3340882949,65.074041221486));
#104 = CARTESIAN_POINT('',(-591.4159656381,69.964891431104));
#105 = CARTESIAN_POINT('',(-749.5229344753,87.656925194976));
#106 = ( GEOMETRIC_REPRESENTATION_CONTEXT(2) 
PARAMETRIC_REPRESENTATION_CONTEXT() REPRESENTATION_CONTEXT('2D SPACE',''
  ) );
#107 = ORIENTED_EDGE('',*,*,#108,.T.);
#108 = EDGE_CURVE('',#77,#22,#109,.T.);
#109 = SURFACE_CURVE('',#110,(#114),.PCURVE_S1.);
#110 = LINE('',#111,#112);
#111 = CARTESIAN_POINT('',(0.,162.65692519497,0.));
#112 = VECTOR('',#113,1.);
#113 = DIRECTION('',(0.,-1.,0.));
#114 = PCURVE('',#40,#115);
#115 = DEFINITIONAL_REPRESENTATION('',(#116),#120);
#116 = LINE('',#117,#118);
#117 = CARTESIAN_POINT('',(-749.5229344753,87.656925194976));
#118 = VECTOR('',#119,1.);
#119 = DIRECTION('',(0.,-1.));
#120 = ( GEOMETRIC_REPRESENTATION_CONTEXT(2) 
PARAMETRIC_REPRESENTATION_CONTEXT() REPRESENTATION_CONTEXT('2D SPACE',''
  ) );
#121 = ( GEOMETRIC_REPRESENTATION_CONTEXT(3) 
GLOBAL_UNCERTAINTY_ASSIGNED_CONTEXT((#125)) GLOBAL_UNIT_ASSIGNED_CONTEXT
((#122,#123,#124)) REPRESENTATION_CONTEXT('Context #1',
  '3D Context with UNIT and UNCERTAINTY') );
#122 = ( LENGTH_UNIT() NAMED_UNIT(*) SI_UNIT(.MILLI.,.METRE.) );
#123 = ( NAMED_UNIT(*) PLANE_ANGLE_UNIT() SI_UNIT($,.RADIAN.) );
#124 = ( NAMED_UNIT(*) SI_UNIT($,.STERADIAN.) SOLID_ANGLE_UNIT() );
#125 = UNCERTAINTY_MEASURE_WITH_UNIT(LENGTH_MEASURE(1.E-07),#122,
  'distance_accuracy_value','confusion accuracy');
#126 = PRODUCT_RELATED_PRODUCT_CATEGORY('part',$,(#7));
ENDSEC;
END-ISO-10303-21;
