ISO-10303-21;
HEADER;
FILE_DESCRIPTION(('Open CASCADE Model'),'2;1');
FILE_NAME('Open CASCADE Shape Model','2026-06-02T12:09:04',('Author'),(
    'Open CASCADE'),'Open CASCADE STEP processor 7.9','Open CASCADE 7.9'
  ,'Unknown');
FILE_SCHEMA(('AUTOMOTIVE_DESIGN { 1 0 10303 214 1 1 1 1 }'));
ENDSEC;
DATA;
#1 = APPLICATION_PROTOCOL_DEFINITION('international standard',
  'automotive_design',2000,#2);
#2 = APPLICATION_CONTEXT(
  'core data for automotive mechanical design processes');
#3 = SHAPE_DEFINITION_REPRESENTATION(#4,#10);
#4 = PRODUCT_DEFINITION_SHAPE('','',#5);
#5 = PRODUCT_DEFINITION('design','',#6,#9);
#6 = PRODUCT_DEFINITION_FORMATION('','',#7);
#7 = PRODUCT('Open CASCADE STEP translator 7.9 27',
  'Open CASCADE STEP translator 7.9 27','',(#8));
#8 = PRODUCT_CONTEXT('',#2,'mechanical');
#9 = PRODUCT_DEFINITION_CONTEXT('part definition',#2,'design');
#10 = MANIFOLD_SURFACE_SHAPE_REPRESENTATION('',(#11,#15),#121);
#11 = AXIS2_PLACEMENT_3D('',#12,#13,#14);
#12 = CARTESIAN_POINT('',(0.,0.,0.));
#13 = DIRECTION('',(0.,0.,1.));
#14 = DIRECTION('',(1.,0.,-0.));
#15 = SHELL_BASED_SURFACE_MODEL('',(#16));
#16 = OPEN_SHELL('',(#17));
#17 = ADVANCED_FACE('',(#18),#40,.T.);
#18 = FACE_BOUND('',#19,.T.);
#19 = EDGE_LOOP('',(#20,#59,#75,#107));
#20 = ORIENTED_EDGE('',*,*,#21,.T.);
#21 = EDGE_CURVE('',#22,#24,#26,.T.);
#22 = VERTEX_POINT('',#23);
#23 = CARTESIAN_POINT('',(0.,-4.474471504028,0.));
#24 = VERTEX_POINT('',#25);
#25 = CARTESIAN_POINT('',(1.5E+03,-10.56046550643,0.));
#26 = SURFACE_CURVE('',#27,(#39),.PCURVE_S1.);
#27 = B_SPLINE_CURVE_WITH_KNOTS('',1,(#28,#29,#30,#31,#32,#33,#34,#35,
    #36,#37,#38),.UNSPECIFIED.,.F.,.F.,(2,1,1,1,1,1,1,1,1,1,2),(0.,
    2.375835405395E-02,8.946878912726E-02,0.186688955679,0.230926931924,
    0.398388030998,0.522293763464,0.558865906499,0.627058015358,
    0.916040430848,1.),.UNSPECIFIED.);
#28 = CARTESIAN_POINT('',(0.,-4.474471504028,0.));
#29 = CARTESIAN_POINT('',(35.755433716706,-5.106097660541,0.));
#30 = CARTESIAN_POINT('',(134.62350355556,-7.887090571186,0.));
#31 = CARTESIAN_POINT('',(279.4234632789,13.256745548357,0.));
#32 = CARTESIAN_POINT('',(345.36403033437,4.001748452022,0.));
#33 = CARTESIAN_POINT('',(597.37265005689,-1.18582305785,0.));
#34 = CARTESIAN_POINT('',(783.77765810459,4.84630550108,0.));
#35 = CARTESIAN_POINT('',(836.69137890243,-10.33436619861,0.));
#36 = CARTESIAN_POINT('',(938.75812820413,0.522824742381,0.));
#37 = CARTESIAN_POINT('',(1.373649039522E+03,-8.058827683781,0.));
#38 = CARTESIAN_POINT('',(1.5E+03,-10.56046550643,0.));
#39 = PCURVE('',#40,#45);
#40 = PLANE('',#41);
#41 = AXIS2_PLACEMENT_3D('',#42,#43,#44);
#42 = CARTESIAN_POINT('',(752.18915824568,75.,0.));
#43 = DIRECTION('',(0.,0.,1.));
#44 = DIRECTION('',(1.,0.,-0.));
#45 = DEFINITIONAL_REPRESENTATION('',(#46),#58);
#46 = B_SPLINE_CURVE_WITH_KNOTS('',1,(#47,#48,#49,#50,#51,#52,#53,#54,
    #55,#56,#57),.UNSPECIFIED.,.F.,.F.,(2,1,1,1,1,1,1,1,1,1,2),(0.,
    2.375835405395E-02,8.946878912726E-02,0.186688955679,0.230926931924,
    0.398388030998,0.522293763464,0.558865906499,0.627058015358,
    0.916040430848,1.),.UNSPECIFIED.);
#47 = CARTESIAN_POINT('',(-752.1891582456,-79.47447150402));
#48 = CARTESIAN_POINT('',(-716.4337245289,-80.10609766054));
#49 = CARTESIAN_POINT('',(-617.5656546901,-82.88709057118));
#50 = CARTESIAN_POINT('',(-472.7656949667,-61.74325445164));
#51 = CARTESIAN_POINT('',(-406.8251279113,-70.99825154797));
#52 = CARTESIAN_POINT('',(-154.8165081887,-76.18582305785));
#53 = CARTESIAN_POINT('',(31.588499858904,-70.15369449892));
#54 = CARTESIAN_POINT('',(84.502220656745,-85.33436619861));
#55 = CARTESIAN_POINT('',(186.56896995844,-74.47717525761));
#56 = CARTESIAN_POINT('',(621.45988127675,-83.05882768378));
#57 = CARTESIAN_POINT('',(747.81084175431,-85.56046550643));
#58 = ( GEOMETRIC_REPRESENTATION_CONTEXT(2) 
PARAMETRIC_REPRESENTATION_CONTEXT() REPRESENTATION_CONTEXT('2D SPACE',''
  ) );
#59 = ORIENTED_EDGE('',*,*,#60,.T.);
#60 = EDGE_CURVE('',#24,#61,#63,.T.);
#61 = VERTEX_POINT('',#62);
#62 = CARTESIAN_POINT('',(1.5E+03,160.56046550643,0.));
#63 = SURFACE_CURVE('',#64,(#68),.PCURVE_S1.);
#64 = LINE('',#65,#66);
#65 = CARTESIAN_POINT('',(1.5E+03,-10.56046550643,0.));
#66 = VECTOR('',#67,1.);
#67 = DIRECTION('',(0.,1.,0.));
#68 = PCURVE('',#40,#69);
#69 = DEFINITIONAL_REPRESENTATION('',(#70),#74);
#70 = LINE('',#71,#72);
#71 = CARTESIAN_POINT('',(747.81084175431,-85.56046550643));
#72 = VECTOR('',#73,1.);
#73 = DIRECTION('',(0.,1.));
#74 = ( GEOMETRIC_REPRESENTATION_CONTEXT(2) 
PARAMETRIC_REPRESENTATION_CONTEXT() REPRESENTATION_CONTEXT('2D SPACE',''
  ) );
#75 = ORIENTED_EDGE('',*,*,#76,.T.);
#76 = EDGE_CURVE('',#61,#77,#79,.T.);
#77 = VERTEX_POINT('',#78);
#78 = CARTESIAN_POINT('',(0.,154.47447150402,0.));
#79 = SURFACE_CURVE('',#80,(#92),.PCURVE_S1.);
#80 = B_SPLINE_CURVE_WITH_KNOTS('',1,(#81,#82,#83,#84,#85,#86,#87,#88,
    #89,#90,#91),.UNSPECIFIED.,.F.,.F.,(2,1,1,1,1,1,1,1,1,1,2),(0.,
    8.395956915233E-02,0.372941984642,0.441134093501,0.477706236536,
    0.601611969002,0.769073068076,0.813311044321,0.910531210873,
    0.976241645946,1.),.UNSPECIFIED.);
#81 = CARTESIAN_POINT('',(1.5E+03,160.56046550643,0.));
#82 = CARTESIAN_POINT('',(1.373649039522E+03,158.05882768378,0.));
#83 = CARTESIAN_POINT('',(938.75812820413,149.47717525761,0.));
#84 = CARTESIAN_POINT('',(836.69137890243,160.33436619861,0.));
#85 = CARTESIAN_POINT('',(783.77765810459,145.15369449892,0.));
#86 = CARTESIAN_POINT('',(597.37265005689,151.18582305785,0.));
#87 = CARTESIAN_POINT('',(345.36403033437,145.99825154797,0.));
#88 = CARTESIAN_POINT('',(279.4234632789,136.74325445164,0.));
#89 = CARTESIAN_POINT('',(134.62350355556,157.88709057118,0.));
#90 = CARTESIAN_POINT('',(35.755433716706,155.10609766054,0.));
#91 = CARTESIAN_POINT('',(0.,154.47447150402,0.));
#92 = PCURVE('',#40,#93);
#93 = DEFINITIONAL_REPRESENTATION('',(#94),#106);
#94 = B_SPLINE_CURVE_WITH_KNOTS('',1,(#95,#96,#97,#98,#99,#100,#101,#102
    ,#103,#104,#105),.UNSPECIFIED.,.F.,.F.,(2,1,1,1,1,1,1,1,1,1,2),(0.,
    8.395956915233E-02,0.372941984642,0.441134093501,0.477706236536,
    0.601611969002,0.769073068076,0.813311044321,0.910531210873,
    0.976241645946,1.),.UNSPECIFIED.);
#95 = CARTESIAN_POINT('',(747.81084175431,85.560465506435));
#96 = CARTESIAN_POINT('',(621.45988127675,83.058827683781));
#97 = CARTESIAN_POINT('',(186.56896995844,74.477175257619));
#98 = CARTESIAN_POINT('',(84.502220656745,85.334366198616));
#99 = CARTESIAN_POINT('',(31.588499858904,70.15369449892));
#100 = CARTESIAN_POINT('',(-154.8165081887,76.18582305785));
#101 = CARTESIAN_POINT('',(-406.8251279113,70.998251547978));
#102 = CARTESIAN_POINT('',(-472.7656949667,61.743254451643));
#103 = CARTESIAN_POINT('',(-617.5656546901,82.887090571186));
#104 = CARTESIAN_POINT('',(-716.4337245289,80.106097660541));
#105 = CARTESIAN_POINT('',(-752.1891582456,79.474471504028));
#106 = ( GEOMETRIC_REPRESENTATION_CONTEXT(2) 
PARAMETRIC_REPRESENTATION_CONTEXT() REPRESENTATION_CONTEXT('2D SPACE',''
  ) );
#107 = ORIENTED_EDGE('',*,*,#108,.T.);
#108 = EDGE_CURVE('',#77,#22,#109,.T.);
#109 = SURFACE_CURVE('',#110,(#114),.PCURVE_S1.);
#110 = LINE('',#111,#112);
#111 = CARTESIAN_POINT('',(0.,154.47447150402,0.));
#112 = VECTOR('',#113,1.);
#113 = DIRECTION('',(0.,-1.,0.));
#114 = PCURVE('',#40,#115);
#115 = DEFINITIONAL_REPRESENTATION('',(#116),#120);
#116 = LINE('',#117,#118);
#117 = CARTESIAN_POINT('',(-752.1891582456,79.474471504028));
#118 = VECTOR('',#119,1.);
#119 = DIRECTION('',(0.,-1.));
#120 = ( GEOMETRIC_REPRESENTATION_CONTEXT(2) 
PARAMETRIC_REPRESENTATION_CONTEXT() REPRESENTATION_CONTEXT('2D SPACE',''
  ) );
#121 = ( GEOMETRIC_REPRESENTATION_CONTEXT(3) 
GLOBAL_UNCERTAINTY_ASSIGNED_CONTEXT((#125)) GLOBAL_UNIT_ASSIGNED_CONTEXT
((#122,#123,#124)) REPRESENTATION_CONTEXT('Context #1',
  '3D Context with UNIT and UNCERTAINTY') );
#122 = ( LENGTH_UNIT() NAMED_UNIT(*) SI_UNIT(.MILLI.,.METRE.) );
#123 = ( NAMED_UNIT(*) PLANE_ANGLE_UNIT() SI_UNIT($,.RADIAN.) );
#124 = ( NAMED_UNIT(*) SI_UNIT($,.STERADIAN.) SOLID_ANGLE_UNIT() );
#125 = UNCERTAINTY_MEASURE_WITH_UNIT(LENGTH_MEASURE(1.E-07),#122,
  'distance_accuracy_value','confusion accuracy');
#126 = PRODUCT_RELATED_PRODUCT_CATEGORY('part',$,(#7));
ENDSEC;
END-ISO-10303-21;
