ISO-10303-21;
HEADER;
FILE_DESCRIPTION(('Open CASCADE Model'),'2;1');
FILE_NAME('Open CASCADE Shape Model','2026-06-02T12:09:04',('Author'),(
    'Open CASCADE'),'Open CASCADE STEP processor 7.9','Open CASCADE 7.9'
  ,'Unknown');
FILE_SCHEMA(('AUTOMOTIVE_DESIGN { 1 0 10303 214 1 1 1 1 }'));
ENDSEC;
DATA;
#1 = APPLICATION_PROTOCOL_DEFINITION('international standard',
  'automotive_design',2000,#2);
#2 = APPLICATION_CONTEXT(
  'core data for automotive mechanical design processes');
#3 = SHAPE_DEFINITION_REPRESENTATION(#4,#10);
#4 = PRODUCT_DEFINITION_SHAPE('','',#5);
#5 = PRODUCT_DEFINITION('design','',#6,#9);
#6 = PRODUCT_DEFINITION_FORMATION('','',#7);
#7 = PRODUCT('Open CASCADE STEP translator 7.9 98',
  'Open CASCADE STEP translator 7.9 98','',(#8));
#8 = PRODUCT_CONTEXT('',#2,'mechanical');
#9 = PRODUCT_DEFINITION_CONTEXT('part definition',#2,'design');
#10 = MANIFOLD_SURFACE_SHAPE_REPRESENTATION('',(#11,#15),#121);
#11 = AXIS2_PLACEMENT_3D('',#12,#13,#14);
#12 = CARTESIAN_POINT('',(0.,0.,0.));
#13 = DIRECTION('',(0.,0.,1.));
#14 = DIRECTION('',(1.,0.,-0.));
#15 = SHELL_BASED_SURFACE_MODEL('',(#16));
#16 = OPEN_SHELL('',(#17));
#17 = ADVANCED_FACE('',(#18),#40,.T.);
#18 = FACE_BOUND('',#19,.T.);
#19 = EDGE_LOOP('',(#20,#59,#75,#107));
#20 = ORIENTED_EDGE('',*,*,#21,.T.);
#21 = EDGE_CURVE('',#22,#24,#26,.T.);
#22 = VERTEX_POINT('',#23);
#23 = CARTESIAN_POINT('',(0.,5.957980898394,0.));
#24 = VERTEX_POINT('',#25);
#25 = CARTESIAN_POINT('',(1.5E+03,-6.502552504908,0.));
#26 = SURFACE_CURVE('',#27,(#39),.PCURVE_S1.);
#27 = B_SPLINE_CURVE_WITH_KNOTS('',1,(#28,#29,#30,#31,#32,#33,#34,#35,
    #36,#37,#38),.UNSPECIFIED.,.F.,.F.,(2,1,1,1,1,1,1,1,1,1,2),(0.,
    8.074849375019E-02,0.13206619595,0.243606730392,0.348828995243,
    0.381405051947,0.504792951903,0.558029499376,0.772912253588,
    0.927214573154,1.),.UNSPECIFIED.);
#28 = CARTESIAN_POINT('',(0.,5.957980898394,0.));
#29 = CARTESIAN_POINT('',(121.35567536964,14.067911997905,0.));
#30 = CARTESIAN_POINT('',(197.89082013685,3.244868702698,0.));
#31 = CARTESIAN_POINT('',(365.79887213713,8.994497082454,0.));
#32 = CARTESIAN_POINT('',(523.6334016997,-5.401048062237,0.));
#33 = CARTESIAN_POINT('',(570.3640354826,9.560356237024,0.));
#34 = CARTESIAN_POINT('',(755.62483492072,-5.244382572176,0.));
#35 = CARTESIAN_POINT('',(834.85647250451,7.09573715432,0.));
#36 = CARTESIAN_POINT('',(1.15850909582E+03,4.343464976364,0.));
#37 = CARTESIAN_POINT('',(1.390924859241E+03,4.534180438608,0.));
#38 = CARTESIAN_POINT('',(1.5E+03,-6.502552504908,0.));
#39 = PCURVE('',#40,#45);
#40 = PLANE('',#41);
#41 = AXIS2_PLACEMENT_3D('',#42,#43,#44);
#42 = CARTESIAN_POINT('',(755.05253444593,75.,0.));
#43 = DIRECTION('',(0.,0.,1.));
#44 = DIRECTION('',(1.,0.,-0.));
#45 = DEFINITIONAL_REPRESENTATION('',(#46),#58);
#46 = B_SPLINE_CURVE_WITH_KNOTS('',1,(#47,#48,#49,#50,#51,#52,#53,#54,
    #55,#56,#57),.UNSPECIFIED.,.F.,.F.,(2,1,1,1,1,1,1,1,1,1,2),(0.,
    8.074849375019E-02,0.13206619595,0.243606730392,0.348828995243,
    0.381405051947,0.504792951903,0.558029499376,0.772912253588,
    0.927214573154,1.),.UNSPECIFIED.);
#47 = CARTESIAN_POINT('',(-755.0525344459,-69.0420191016));
#48 = CARTESIAN_POINT('',(-633.6968590762,-60.93208800209));
#49 = CARTESIAN_POINT('',(-557.161714309,-71.7551312973));
#50 = CARTESIAN_POINT('',(-389.2536623088,-66.00550291754));
#51 = CARTESIAN_POINT('',(-231.4191327462,-80.40104806223));
#52 = CARTESIAN_POINT('',(-184.6884989633,-65.43964376297));
#53 = CARTESIAN_POINT('',(0.572300474793,-80.24438257217));
#54 = CARTESIAN_POINT('',(79.803938058584,-67.90426284568));
#55 = CARTESIAN_POINT('',(403.45656137426,-70.65653502363));
#56 = CARTESIAN_POINT('',(635.87232479538,-70.46581956139));
#57 = CARTESIAN_POINT('',(744.94746555406,-81.5025525049));
#58 = ( GEOMETRIC_REPRESENTATION_CONTEXT(2) 
PARAMETRIC_REPRESENTATION_CONTEXT() REPRESENTATION_CONTEXT('2D SPACE',''
  ) );
#59 = ORIENTED_EDGE('',*,*,#60,.T.);
#60 = EDGE_CURVE('',#24,#61,#63,.T.);
#61 = VERTEX_POINT('',#62);
#62 = CARTESIAN_POINT('',(1.5E+03,156.5025525049,0.));
#63 = SURFACE_CURVE('',#64,(#68),.PCURVE_S1.);
#64 = LINE('',#65,#66);
#65 = CARTESIAN_POINT('',(1.5E+03,-6.502552504908,0.));
#66 = VECTOR('',#67,1.);
#67 = DIRECTION('',(0.,1.,0.));
#68 = PCURVE('',#40,#69);
#69 = DEFINITIONAL_REPRESENTATION('',(#70),#74);
#70 = LINE('',#71,#72);
#71 = CARTESIAN_POINT('',(744.94746555406,-81.5025525049));
#72 = VECTOR('',#73,1.);
#73 = DIRECTION('',(0.,1.));
#74 = ( GEOMETRIC_REPRESENTATION_CONTEXT(2) 
PARAMETRIC_REPRESENTATION_CONTEXT() REPRESENTATION_CONTEXT('2D SPACE',''
  ) );
#75 = ORIENTED_EDGE('',*,*,#76,.T.);
#76 = EDGE_CURVE('',#61,#77,#79,.T.);
#77 = VERTEX_POINT('',#78);
#78 = CARTESIAN_POINT('',(0.,144.0420191016,0.));
#79 = SURFACE_CURVE('',#80,(#92),.PCURVE_S1.);
#80 = B_SPLINE_CURVE_WITH_KNOTS('',1,(#81,#82,#83,#84,#85,#86,#87,#88,
    #89,#90,#91),.UNSPECIFIED.,.F.,.F.,(2,1,1,1,1,1,1,1,1,1,2),(0.,
    7.27854268462E-02,0.227087746412,0.441970500624,0.495207048097,
    0.618594948053,0.651171004757,0.756393269608,0.86793380405,
    0.91925150625,1.),.UNSPECIFIED.);
#81 = CARTESIAN_POINT('',(1.5E+03,156.5025525049,0.));
#82 = CARTESIAN_POINT('',(1.390924859241E+03,145.46581956139,0.));
#83 = CARTESIAN_POINT('',(1.15850909582E+03,145.65653502363,0.));
#84 = CARTESIAN_POINT('',(834.85647250451,142.90426284568,0.));
#85 = CARTESIAN_POINT('',(755.62483492072,155.24438257217,0.));
#86 = CARTESIAN_POINT('',(570.3640354826,140.43964376297,0.));
#87 = CARTESIAN_POINT('',(523.6334016997,155.40104806223,0.));
#88 = CARTESIAN_POINT('',(365.79887213713,141.00550291754,0.));
#89 = CARTESIAN_POINT('',(197.89082013685,146.7551312973,0.));
#90 = CARTESIAN_POINT('',(121.35567536964,135.93208800209,0.));
#91 = CARTESIAN_POINT('',(0.,144.0420191016,0.));
#92 = PCURVE('',#40,#93);
#93 = DEFINITIONAL_REPRESENTATION('',(#94),#106);
#94 = B_SPLINE_CURVE_WITH_KNOTS('',1,(#95,#96,#97,#98,#99,#100,#101,#102
    ,#103,#104,#105),.UNSPECIFIED.,.F.,.F.,(2,1,1,1,1,1,1,1,1,1,2),(0.,
    7.27854268462E-02,0.227087746412,0.441970500624,0.495207048097,
    0.618594948053,0.651171004757,0.756393269608,0.86793380405,
    0.91925150625,1.),.UNSPECIFIED.);
#95 = CARTESIAN_POINT('',(744.94746555406,81.502552504908));
#96 = CARTESIAN_POINT('',(635.87232479538,70.465819561392));
#97 = CARTESIAN_POINT('',(403.45656137426,70.656535023636));
#98 = CARTESIAN_POINT('',(79.803938058584,67.90426284568));
#99 = CARTESIAN_POINT('',(0.572300474793,80.244382572176));
#100 = CARTESIAN_POINT('',(-184.6884989633,65.439643762976));
#101 = CARTESIAN_POINT('',(-231.4191327462,80.401048062237));
#102 = CARTESIAN_POINT('',(-389.2536623088,66.005502917546));
#103 = CARTESIAN_POINT('',(-557.161714309,71.755131297302));
#104 = CARTESIAN_POINT('',(-633.6968590762,60.932088002095));
#105 = CARTESIAN_POINT('',(-755.0525344459,69.042019101606));
#106 = ( GEOMETRIC_REPRESENTATION_CONTEXT(2) 
PARAMETRIC_REPRESENTATION_CONTEXT() REPRESENTATION_CONTEXT('2D SPACE',''
  ) );
#107 = ORIENTED_EDGE('',*,*,#108,.T.);
#108 = EDGE_CURVE('',#77,#22,#109,.T.);
#109 = SURFACE_CURVE('',#110,(#114),.PCURVE_S1.);
#110 = LINE('',#111,#112);
#111 = CARTESIAN_POINT('',(0.,144.0420191016,0.));
#112 = VECTOR('',#113,1.);
#113 = DIRECTION('',(0.,-1.,0.));
#114 = PCURVE('',#40,#115);
#115 = DEFINITIONAL_REPRESENTATION('',(#116),#120);
#116 = LINE('',#117,#118);
#117 = CARTESIAN_POINT('',(-755.0525344459,69.042019101606));
#118 = VECTOR('',#119,1.);
#119 = DIRECTION('',(0.,-1.));
#120 = ( GEOMETRIC_REPRESENTATION_CONTEXT(2) 
PARAMETRIC_REPRESENTATION_CONTEXT() REPRESENTATION_CONTEXT('2D SPACE',''
  ) );
#121 = ( GEOMETRIC_REPRESENTATION_CONTEXT(3) 
GLOBAL_UNCERTAINTY_ASSIGNED_CONTEXT((#125)) GLOBAL_UNIT_ASSIGNED_CONTEXT
((#122,#123,#124)) REPRESENTATION_CONTEXT('Context #1',
  '3D Context with UNIT and UNCERTAINTY') );
#122 = ( LENGTH_UNIT() NAMED_UNIT(*) SI_UNIT(.MILLI.,.METRE.) );
#123 = ( NAMED_UNIT(*) PLANE_ANGLE_UNIT() SI_UNIT($,.RADIAN.) );
#124 = ( NAMED_UNIT(*) SI_UNIT($,.STERADIAN.) SOLID_ANGLE_UNIT() );
#125 = UNCERTAINTY_MEASURE_WITH_UNIT(LENGTH_MEASURE(1.E-07),#122,
  'distance_accuracy_value','confusion accuracy');
#126 = PRODUCT_RELATED_PRODUCT_CATEGORY('part',$,(#7));
ENDSEC;
END-ISO-10303-21;
