ISO-10303-21;
HEADER;
FILE_DESCRIPTION(('Open CASCADE Model'),'2;1');
FILE_NAME('Open CASCADE Shape Model','2026-06-02T12:09:04',('Author'),(
    'Open CASCADE'),'Open CASCADE STEP processor 7.9','Open CASCADE 7.9'
  ,'Unknown');
FILE_SCHEMA(('AUTOMOTIVE_DESIGN { 1 0 10303 214 1 1 1 1 }'));
ENDSEC;
DATA;
#1 = APPLICATION_PROTOCOL_DEFINITION('international standard',
  'automotive_design',2000,#2);
#2 = APPLICATION_CONTEXT(
  'core data for automotive mechanical design processes');
#3 = SHAPE_DEFINITION_REPRESENTATION(#4,#10);
#4 = PRODUCT_DEFINITION_SHAPE('','',#5);
#5 = PRODUCT_DEFINITION('design','',#6,#9);
#6 = PRODUCT_DEFINITION_FORMATION('','',#7);
#7 = PRODUCT('Open CASCADE STEP translator 7.9 93',
  'Open CASCADE STEP translator 7.9 93','',(#8));
#8 = PRODUCT_CONTEXT('',#2,'mechanical');
#9 = PRODUCT_DEFINITION_CONTEXT('part definition',#2,'design');
#10 = MANIFOLD_SURFACE_SHAPE_REPRESENTATION('',(#11,#15),#121);
#11 = AXIS2_PLACEMENT_3D('',#12,#13,#14);
#12 = CARTESIAN_POINT('',(0.,0.,0.));
#13 = DIRECTION('',(0.,0.,1.));
#14 = DIRECTION('',(1.,0.,-0.));
#15 = SHELL_BASED_SURFACE_MODEL('',(#16));
#16 = OPEN_SHELL('',(#17));
#17 = ADVANCED_FACE('',(#18),#40,.T.);
#18 = FACE_BOUND('',#19,.T.);
#19 = EDGE_LOOP('',(#20,#59,#75,#107));
#20 = ORIENTED_EDGE('',*,*,#21,.T.);
#21 = EDGE_CURVE('',#22,#24,#26,.T.);
#22 = VERTEX_POINT('',#23);
#23 = CARTESIAN_POINT('',(0.,3.93034340099,0.));
#24 = VERTEX_POINT('',#25);
#25 = CARTESIAN_POINT('',(1.5E+03,7.749012060566,0.));
#26 = SURFACE_CURVE('',#27,(#39),.PCURVE_S1.);
#27 = B_SPLINE_CURVE_WITH_KNOTS('',1,(#28,#29,#30,#31,#32,#33,#34,#35,
    #36,#37,#38),.UNSPECIFIED.,.F.,.F.,(2,1,1,1,1,1,1,1,1,1,2),(0.,
    4.606465092654E-02,0.311788958798,0.340496178366,0.45645722541,
    0.637579381526,0.69625155486,0.796587292693,0.876333173964,
    0.941467895355,1.),.UNSPECIFIED.);
#28 = CARTESIAN_POINT('',(0.,3.93034340099,0.));
#29 = CARTESIAN_POINT('',(69.219654667842,9.75577841301,0.));
#30 = CARTESIAN_POINT('',(469.92307806792,8.412612233937,0.));
#31 = CARTESIAN_POINT('',(512.5877202735,1.082331416698,0.));
#32 = CARTESIAN_POINT('',(686.86353990436,-13.27705200943,0.));
#33 = CARTESIAN_POINT('',(959.91968523642,-7.024390372828,0.));
#34 = CARTESIAN_POINT('',(1.047015616511E+03,8.542687554626,0.));
#35 = CARTESIAN_POINT('',(1.197079641987E+03,-10.78683400256,0.));
#36 = CARTESIAN_POINT('',(1.316464243141E+03,3.65398430971,0.));
#37 = CARTESIAN_POINT('',(1.413653088789E+03,-10.55166548257,0.));
#38 = CARTESIAN_POINT('',(1.5E+03,7.749012060566,0.));
#39 = PCURVE('',#40,#45);
#40 = PLANE('',#41);
#41 = AXIS2_PLACEMENT_3D('',#42,#43,#44);
#42 = CARTESIAN_POINT('',(749.97426204848,75.,0.));
#43 = DIRECTION('',(0.,0.,1.));
#44 = DIRECTION('',(1.,0.,-0.));
#45 = DEFINITIONAL_REPRESENTATION('',(#46),#58);
#46 = B_SPLINE_CURVE_WITH_KNOTS('',1,(#47,#48,#49,#50,#51,#52,#53,#54,
    #55,#56,#57),.UNSPECIFIED.,.F.,.F.,(2,1,1,1,1,1,1,1,1,1,2),(0.,
    4.606465092654E-02,0.311788958798,0.340496178366,0.45645722541,
    0.637579381526,0.69625155486,0.796587292693,0.876333173964,
    0.941467895355,1.),.UNSPECIFIED.);
#47 = CARTESIAN_POINT('',(-749.9742620484,-71.06965659901));
#48 = CARTESIAN_POINT('',(-680.7546073806,-65.24422158699));
#49 = CARTESIAN_POINT('',(-280.0511839805,-66.58738776606));
#50 = CARTESIAN_POINT('',(-237.3865417749,-73.9176685833));
#51 = CARTESIAN_POINT('',(-63.11072214411,-88.27705200943));
#52 = CARTESIAN_POINT('',(209.94542318794,-82.02439037282));
#53 = CARTESIAN_POINT('',(297.04135446202,-66.45731244537));
#54 = CARTESIAN_POINT('',(447.10537993899,-85.78683400256));
#55 = CARTESIAN_POINT('',(566.4899810923,-71.34601569029));
#56 = CARTESIAN_POINT('',(663.67882674044,-85.55166548257));
#57 = CARTESIAN_POINT('',(750.02573795151,-67.25098793943));
#58 = ( GEOMETRIC_REPRESENTATION_CONTEXT(2) 
PARAMETRIC_REPRESENTATION_CONTEXT() REPRESENTATION_CONTEXT('2D SPACE',''
  ) );
#59 = ORIENTED_EDGE('',*,*,#60,.T.);
#60 = EDGE_CURVE('',#24,#61,#63,.T.);
#61 = VERTEX_POINT('',#62);
#62 = CARTESIAN_POINT('',(1.5E+03,142.25098793943,0.));
#63 = SURFACE_CURVE('',#64,(#68),.PCURVE_S1.);
#64 = LINE('',#65,#66);
#65 = CARTESIAN_POINT('',(1.5E+03,7.749012060566,0.));
#66 = VECTOR('',#67,1.);
#67 = DIRECTION('',(0.,1.,0.));
#68 = PCURVE('',#40,#69);
#69 = DEFINITIONAL_REPRESENTATION('',(#70),#74);
#70 = LINE('',#71,#72);
#71 = CARTESIAN_POINT('',(750.02573795151,-67.25098793943));
#72 = VECTOR('',#73,1.);
#73 = DIRECTION('',(0.,1.));
#74 = ( GEOMETRIC_REPRESENTATION_CONTEXT(2) 
PARAMETRIC_REPRESENTATION_CONTEXT() REPRESENTATION_CONTEXT('2D SPACE',''
  ) );
#75 = ORIENTED_EDGE('',*,*,#76,.T.);
#76 = EDGE_CURVE('',#61,#77,#79,.T.);
#77 = VERTEX_POINT('',#78);
#78 = CARTESIAN_POINT('',(0.,146.06965659901,0.));
#79 = SURFACE_CURVE('',#80,(#92),.PCURVE_S1.);
#80 = B_SPLINE_CURVE_WITH_KNOTS('',1,(#81,#82,#83,#84,#85,#86,#87,#88,
    #89,#90,#91),.UNSPECIFIED.,.F.,.F.,(2,1,1,1,1,1,1,1,1,1,2),(0.,
    5.853210464452E-02,0.123666826036,0.203412707307,0.30374844514,
    0.362420618474,0.54354277459,0.659503821634,0.688211041202,
    0.953935349073,1.),.UNSPECIFIED.);
#81 = CARTESIAN_POINT('',(1.5E+03,142.25098793943,0.));
#82 = CARTESIAN_POINT('',(1.413653088789E+03,160.55166548257,0.));
#83 = CARTESIAN_POINT('',(1.316464243141E+03,146.34601569029,0.));
#84 = CARTESIAN_POINT('',(1.197079641987E+03,160.78683400256,0.));
#85 = CARTESIAN_POINT('',(1.047015616511E+03,141.45731244537,0.));
#86 = CARTESIAN_POINT('',(959.91968523642,157.02439037282,0.));
#87 = CARTESIAN_POINT('',(686.86353990436,163.27705200943,0.));
#88 = CARTESIAN_POINT('',(512.5877202735,148.9176685833,0.));
#89 = CARTESIAN_POINT('',(469.92307806792,141.58738776606,0.));
#90 = CARTESIAN_POINT('',(69.219654667842,140.24422158699,0.));
#91 = CARTESIAN_POINT('',(0.,146.06965659901,0.));
#92 = PCURVE('',#40,#93);
#93 = DEFINITIONAL_REPRESENTATION('',(#94),#106);
#94 = B_SPLINE_CURVE_WITH_KNOTS('',1,(#95,#96,#97,#98,#99,#100,#101,#102
    ,#103,#104,#105),.UNSPECIFIED.,.F.,.F.,(2,1,1,1,1,1,1,1,1,1,2),(0.,
    5.853210464452E-02,0.123666826036,0.203412707307,0.30374844514,
    0.362420618474,0.54354277459,0.659503821634,0.688211041202,
    0.953935349073,1.),.UNSPECIFIED.);
#95 = CARTESIAN_POINT('',(750.02573795151,67.250987939434));
#96 = CARTESIAN_POINT('',(663.67882674044,85.551665482576));
#97 = CARTESIAN_POINT('',(566.4899810923,71.34601569029));
#98 = CARTESIAN_POINT('',(447.10537993899,85.786834002567));
#99 = CARTESIAN_POINT('',(297.04135446202,66.457312445374));
#100 = CARTESIAN_POINT('',(209.94542318794,82.024390372828));
#101 = CARTESIAN_POINT('',(-63.11072214411,88.27705200943));
#102 = CARTESIAN_POINT('',(-237.3865417749,73.917668583301));
#103 = CARTESIAN_POINT('',(-280.0511839805,66.587387766063));
#104 = CARTESIAN_POINT('',(-680.7546073806,65.24422158699));
#105 = CARTESIAN_POINT('',(-749.9742620484,71.06965659901));
#106 = ( GEOMETRIC_REPRESENTATION_CONTEXT(2) 
PARAMETRIC_REPRESENTATION_CONTEXT() REPRESENTATION_CONTEXT('2D SPACE',''
  ) );
#107 = ORIENTED_EDGE('',*,*,#108,.T.);
#108 = EDGE_CURVE('',#77,#22,#109,.T.);
#109 = SURFACE_CURVE('',#110,(#114),.PCURVE_S1.);
#110 = LINE('',#111,#112);
#111 = CARTESIAN_POINT('',(0.,146.06965659901,0.));
#112 = VECTOR('',#113,1.);
#113 = DIRECTION('',(0.,-1.,0.));
#114 = PCURVE('',#40,#115);
#115 = DEFINITIONAL_REPRESENTATION('',(#116),#120);
#116 = LINE('',#117,#118);
#117 = CARTESIAN_POINT('',(-749.9742620484,71.06965659901));
#118 = VECTOR('',#119,1.);
#119 = DIRECTION('',(0.,-1.));
#120 = ( GEOMETRIC_REPRESENTATION_CONTEXT(2) 
PARAMETRIC_REPRESENTATION_CONTEXT() REPRESENTATION_CONTEXT('2D SPACE',''
  ) );
#121 = ( GEOMETRIC_REPRESENTATION_CONTEXT(3) 
GLOBAL_UNCERTAINTY_ASSIGNED_CONTEXT((#125)) GLOBAL_UNIT_ASSIGNED_CONTEXT
((#122,#123,#124)) REPRESENTATION_CONTEXT('Context #1',
  '3D Context with UNIT and UNCERTAINTY') );
#122 = ( LENGTH_UNIT() NAMED_UNIT(*) SI_UNIT(.MILLI.,.METRE.) );
#123 = ( NAMED_UNIT(*) PLANE_ANGLE_UNIT() SI_UNIT($,.RADIAN.) );
#124 = ( NAMED_UNIT(*) SI_UNIT($,.STERADIAN.) SOLID_ANGLE_UNIT() );
#125 = UNCERTAINTY_MEASURE_WITH_UNIT(LENGTH_MEASURE(1.E-07),#122,
  'distance_accuracy_value','confusion accuracy');
#126 = PRODUCT_RELATED_PRODUCT_CATEGORY('part',$,(#7));
ENDSEC;
END-ISO-10303-21;
