ISO-10303-21;
HEADER;
FILE_DESCRIPTION(('Open CASCADE Model'),'2;1');
FILE_NAME('Open CASCADE Shape Model','2026-06-02T12:09:04',('Author'),(
    'Open CASCADE'),'Open CASCADE STEP processor 7.9','Open CASCADE 7.9'
  ,'Unknown');
FILE_SCHEMA(('AUTOMOTIVE_DESIGN { 1 0 10303 214 1 1 1 1 }'));
ENDSEC;
DATA;
#1 = APPLICATION_PROTOCOL_DEFINITION('international standard',
  'automotive_design',2000,#2);
#2 = APPLICATION_CONTEXT(
  'core data for automotive mechanical design processes');
#3 = SHAPE_DEFINITION_REPRESENTATION(#4,#10);
#4 = PRODUCT_DEFINITION_SHAPE('','',#5);
#5 = PRODUCT_DEFINITION('design','',#6,#9);
#6 = PRODUCT_DEFINITION_FORMATION('','',#7);
#7 = PRODUCT('Open CASCADE STEP translator 7.9 96',
  'Open CASCADE STEP translator 7.9 96','',(#8));
#8 = PRODUCT_CONTEXT('',#2,'mechanical');
#9 = PRODUCT_DEFINITION_CONTEXT('part definition',#2,'design');
#10 = MANIFOLD_SURFACE_SHAPE_REPRESENTATION('',(#11,#15),#121);
#11 = AXIS2_PLACEMENT_3D('',#12,#13,#14);
#12 = CARTESIAN_POINT('',(0.,0.,0.));
#13 = DIRECTION('',(0.,0.,1.));
#14 = DIRECTION('',(1.,0.,-0.));
#15 = SHELL_BASED_SURFACE_MODEL('',(#16));
#16 = OPEN_SHELL('',(#17));
#17 = ADVANCED_FACE('',(#18),#40,.T.);
#18 = FACE_BOUND('',#19,.T.);
#19 = EDGE_LOOP('',(#20,#59,#75,#107));
#20 = ORIENTED_EDGE('',*,*,#21,.T.);
#21 = EDGE_CURVE('',#22,#24,#26,.T.);
#22 = VERTEX_POINT('',#23);
#23 = CARTESIAN_POINT('',(0.,-13.27212752425,0.));
#24 = VERTEX_POINT('',#25);
#25 = CARTESIAN_POINT('',(1.5E+03,1.65186716919,0.));
#26 = SURFACE_CURVE('',#27,(#39),.PCURVE_S1.);
#27 = B_SPLINE_CURVE_WITH_KNOTS('',1,(#28,#29,#30,#31,#32,#33,#34,#35,
    #36,#37,#38),.UNSPECIFIED.,.F.,.F.,(2,1,1,1,1,1,1,1,1,1,2),(0.,
    0.177649763468,0.216188722147,0.285828195491,0.419029809208,
    0.454314138986,0.609384637618,0.734821363772,0.903277240584,
    0.939335854506,1.),.UNSPECIFIED.);
#28 = CARTESIAN_POINT('',(0.,-13.27212752425,0.));
#29 = CARTESIAN_POINT('',(267.84976795318,14.331935381112,0.));
#30 = CARTESIAN_POINT('',(323.62099866513,-3.04118288434,0.));
#31 = CARTESIAN_POINT('',(429.06278523117,-7.915322018651,0.));
#32 = CARTESIAN_POINT('',(630.44785738071,6.455772340503,0.));
#33 = CARTESIAN_POINT('',(681.75846806573,-8.626667545897,0.));
#34 = CARTESIAN_POINT('',(916.75678287506,-3.970651522989,0.));
#35 = CARTESIAN_POINT('',(1.106675909542E+03,-12.87487896813,0.));
#36 = CARTESIAN_POINT('',(1.362004177798E+03,-14.43014434061,0.));
#37 = CARTESIAN_POINT('',(1.408846421414E+03,13.729616580039,0.));
#38 = CARTESIAN_POINT('',(1.5E+03,1.65186716919,0.));
#39 = PCURVE('',#40,#45);
#40 = PLANE('',#41);
#41 = AXIS2_PLACEMENT_3D('',#42,#43,#44);
#42 = CARTESIAN_POINT('',(745.205722019,75.,0.));
#43 = DIRECTION('',(0.,0.,1.));
#44 = DIRECTION('',(1.,0.,-0.));
#45 = DEFINITIONAL_REPRESENTATION('',(#46),#58);
#46 = B_SPLINE_CURVE_WITH_KNOTS('',1,(#47,#48,#49,#50,#51,#52,#53,#54,
    #55,#56,#57),.UNSPECIFIED.,.F.,.F.,(2,1,1,1,1,1,1,1,1,1,2),(0.,
    0.177649763468,0.216188722147,0.285828195491,0.419029809208,
    0.454314138986,0.609384637618,0.734821363772,0.903277240584,
    0.939335854506,1.),.UNSPECIFIED.);
#47 = CARTESIAN_POINT('',(-745.205722019,-88.27212752425));
#48 = CARTESIAN_POINT('',(-477.3559540658,-60.66806461888));
#49 = CARTESIAN_POINT('',(-421.5847233538,-78.04118288434));
#50 = CARTESIAN_POINT('',(-316.1429367878,-82.91532201865));
#51 = CARTESIAN_POINT('',(-114.7578646382,-68.54422765949));
#52 = CARTESIAN_POINT('',(-63.44725395326,-83.62666754589));
#53 = CARTESIAN_POINT('',(171.55106085606,-78.97065152298));
#54 = CARTESIAN_POINT('',(361.47018752256,-87.87487896813));
#55 = CARTESIAN_POINT('',(616.798455779,-89.43014434061));
#56 = CARTESIAN_POINT('',(663.64069939456,-61.27038341996));
#57 = CARTESIAN_POINT('',(754.79427798099,-73.34813283081));
#58 = ( GEOMETRIC_REPRESENTATION_CONTEXT(2) 
PARAMETRIC_REPRESENTATION_CONTEXT() REPRESENTATION_CONTEXT('2D SPACE',''
  ) );
#59 = ORIENTED_EDGE('',*,*,#60,.T.);
#60 = EDGE_CURVE('',#24,#61,#63,.T.);
#61 = VERTEX_POINT('',#62);
#62 = CARTESIAN_POINT('',(1.5E+03,148.34813283081,0.));
#63 = SURFACE_CURVE('',#64,(#68),.PCURVE_S1.);
#64 = LINE('',#65,#66);
#65 = CARTESIAN_POINT('',(1.5E+03,1.65186716919,0.));
#66 = VECTOR('',#67,1.);
#67 = DIRECTION('',(0.,1.,0.));
#68 = PCURVE('',#40,#69);
#69 = DEFINITIONAL_REPRESENTATION('',(#70),#74);
#70 = LINE('',#71,#72);
#71 = CARTESIAN_POINT('',(754.79427798099,-73.34813283081));
#72 = VECTOR('',#73,1.);
#73 = DIRECTION('',(0.,1.));
#74 = ( GEOMETRIC_REPRESENTATION_CONTEXT(2) 
PARAMETRIC_REPRESENTATION_CONTEXT() REPRESENTATION_CONTEXT('2D SPACE',''
  ) );
#75 = ORIENTED_EDGE('',*,*,#76,.T.);
#76 = EDGE_CURVE('',#61,#77,#79,.T.);
#77 = VERTEX_POINT('',#78);
#78 = CARTESIAN_POINT('',(0.,163.27212752425,0.));
#79 = SURFACE_CURVE('',#80,(#92),.PCURVE_S1.);
#80 = B_SPLINE_CURVE_WITH_KNOTS('',1,(#81,#82,#83,#84,#85,#86,#87,#88,
    #89,#90,#91),.UNSPECIFIED.,.F.,.F.,(2,1,1,1,1,1,1,1,1,1,2),(0.,
    6.066414549412E-02,9.672275941626E-02,0.265178636228,0.390615362382,
    0.545685861014,0.580970190792,0.714171804509,0.783811277853,
    0.822350236532,1.),.UNSPECIFIED.);
#81 = CARTESIAN_POINT('',(1.5E+03,148.34813283081,0.));
#82 = CARTESIAN_POINT('',(1.408846421414E+03,136.27038341996,0.));
#83 = CARTESIAN_POINT('',(1.362004177798E+03,164.43014434061,0.));
#84 = CARTESIAN_POINT('',(1.106675909542E+03,162.87487896813,0.));
#85 = CARTESIAN_POINT('',(916.75678287506,153.97065152298,0.));
#86 = CARTESIAN_POINT('',(681.75846806573,158.62666754589,0.));
#87 = CARTESIAN_POINT('',(630.44785738071,143.54422765949,0.));
#88 = CARTESIAN_POINT('',(429.06278523117,157.91532201865,0.));
#89 = CARTESIAN_POINT('',(323.62099866513,153.04118288434,0.));
#90 = CARTESIAN_POINT('',(267.84976795318,135.66806461888,0.));
#91 = CARTESIAN_POINT('',(0.,163.27212752425,0.));
#92 = PCURVE('',#40,#93);
#93 = DEFINITIONAL_REPRESENTATION('',(#94),#106);
#94 = B_SPLINE_CURVE_WITH_KNOTS('',1,(#95,#96,#97,#98,#99,#100,#101,#102
    ,#103,#104,#105),.UNSPECIFIED.,.F.,.F.,(2,1,1,1,1,1,1,1,1,1,2),(0.,
    6.066414549412E-02,9.672275941626E-02,0.265178636228,0.390615362382,
    0.545685861014,0.580970190792,0.714171804509,0.783811277853,
    0.822350236532,1.),.UNSPECIFIED.);
#95 = CARTESIAN_POINT('',(754.79427798099,73.34813283081));
#96 = CARTESIAN_POINT('',(663.64069939456,61.270383419961));
#97 = CARTESIAN_POINT('',(616.798455779,89.430144340613));
#98 = CARTESIAN_POINT('',(361.47018752256,87.874878968132));
#99 = CARTESIAN_POINT('',(171.55106085606,78.970651522989));
#100 = CARTESIAN_POINT('',(-63.44725395326,83.626667545897));
#101 = CARTESIAN_POINT('',(-114.7578646382,68.544227659497));
#102 = CARTESIAN_POINT('',(-316.1429367878,82.915322018651));
#103 = CARTESIAN_POINT('',(-421.5847233538,78.04118288434));
#104 = CARTESIAN_POINT('',(-477.3559540658,60.668064618888));
#105 = CARTESIAN_POINT('',(-745.205722019,88.272127524256));
#106 = ( GEOMETRIC_REPRESENTATION_CONTEXT(2) 
PARAMETRIC_REPRESENTATION_CONTEXT() REPRESENTATION_CONTEXT('2D SPACE',''
  ) );
#107 = ORIENTED_EDGE('',*,*,#108,.T.);
#108 = EDGE_CURVE('',#77,#22,#109,.T.);
#109 = SURFACE_CURVE('',#110,(#114),.PCURVE_S1.);
#110 = LINE('',#111,#112);
#111 = CARTESIAN_POINT('',(0.,163.27212752425,0.));
#112 = VECTOR('',#113,1.);
#113 = DIRECTION('',(0.,-1.,0.));
#114 = PCURVE('',#40,#115);
#115 = DEFINITIONAL_REPRESENTATION('',(#116),#120);
#116 = LINE('',#117,#118);
#117 = CARTESIAN_POINT('',(-745.205722019,88.272127524256));
#118 = VECTOR('',#119,1.);
#119 = DIRECTION('',(0.,-1.));
#120 = ( GEOMETRIC_REPRESENTATION_CONTEXT(2) 
PARAMETRIC_REPRESENTATION_CONTEXT() REPRESENTATION_CONTEXT('2D SPACE',''
  ) );
#121 = ( GEOMETRIC_REPRESENTATION_CONTEXT(3) 
GLOBAL_UNCERTAINTY_ASSIGNED_CONTEXT((#125)) GLOBAL_UNIT_ASSIGNED_CONTEXT
((#122,#123,#124)) REPRESENTATION_CONTEXT('Context #1',
  '3D Context with UNIT and UNCERTAINTY') );
#122 = ( LENGTH_UNIT() NAMED_UNIT(*) SI_UNIT(.MILLI.,.METRE.) );
#123 = ( NAMED_UNIT(*) PLANE_ANGLE_UNIT() SI_UNIT($,.RADIAN.) );
#124 = ( NAMED_UNIT(*) SI_UNIT($,.STERADIAN.) SOLID_ANGLE_UNIT() );
#125 = UNCERTAINTY_MEASURE_WITH_UNIT(LENGTH_MEASURE(1.E-07),#122,
  'distance_accuracy_value','confusion accuracy');
#126 = PRODUCT_RELATED_PRODUCT_CATEGORY('part',$,(#7));
ENDSEC;
END-ISO-10303-21;
