ISO-10303-21;
HEADER;
FILE_DESCRIPTION(('Open CASCADE Model'),'2;1');
FILE_NAME('Open CASCADE Shape Model','2026-06-02T12:09:04',('Author'),(
    'Open CASCADE'),'Open CASCADE STEP processor 7.9','Open CASCADE 7.9'
  ,'Unknown');
FILE_SCHEMA(('AUTOMOTIVE_DESIGN { 1 0 10303 214 1 1 1 1 }'));
ENDSEC;
DATA;
#1 = APPLICATION_PROTOCOL_DEFINITION('international standard',
  'automotive_design',2000,#2);
#2 = APPLICATION_CONTEXT(
  'core data for automotive mechanical design processes');
#3 = SHAPE_DEFINITION_REPRESENTATION(#4,#10);
#4 = PRODUCT_DEFINITION_SHAPE('','',#5);
#5 = PRODUCT_DEFINITION('design','',#6,#9);
#6 = PRODUCT_DEFINITION_FORMATION('','',#7);
#7 = PRODUCT('Open CASCADE STEP translator 7.9 64',
  'Open CASCADE STEP translator 7.9 64','',(#8));
#8 = PRODUCT_CONTEXT('',#2,'mechanical');
#9 = PRODUCT_DEFINITION_CONTEXT('part definition',#2,'design');
#10 = MANIFOLD_SURFACE_SHAPE_REPRESENTATION('',(#11,#15),#121);
#11 = AXIS2_PLACEMENT_3D('',#12,#13,#14);
#12 = CARTESIAN_POINT('',(0.,0.,0.));
#13 = DIRECTION('',(0.,0.,1.));
#14 = DIRECTION('',(1.,0.,-0.));
#15 = SHELL_BASED_SURFACE_MODEL('',(#16));
#16 = OPEN_SHELL('',(#17));
#17 = ADVANCED_FACE('',(#18),#40,.T.);
#18 = FACE_BOUND('',#19,.T.);
#19 = EDGE_LOOP('',(#20,#59,#75,#107));
#20 = ORIENTED_EDGE('',*,*,#21,.T.);
#21 = EDGE_CURVE('',#22,#24,#26,.T.);
#22 = VERTEX_POINT('',#23);
#23 = CARTESIAN_POINT('',(0.,14.280889334161,0.));
#24 = VERTEX_POINT('',#25);
#25 = CARTESIAN_POINT('',(1.5E+03,-0.667526819471,0.));
#26 = SURFACE_CURVE('',#27,(#39),.PCURVE_S1.);
#27 = B_SPLINE_CURVE_WITH_KNOTS('',1,(#28,#29,#30,#31,#32,#33,#34,#35,
    #36,#37,#38),.UNSPECIFIED.,.F.,.F.,(2,1,1,1,1,1,1,1,1,1,2),(0.,
    5.917832860978E-02,0.128507713895,0.380922598782,0.453107087967,
    0.498496615935,0.607011472545,0.79308575125,0.842657225495,
    0.943919992264,1.),.UNSPECIFIED.);
#28 = CARTESIAN_POINT('',(0.,14.280889334161,0.));
#29 = CARTESIAN_POINT('',(87.934929755939,-0.613723313017,0.));
#30 = CARTESIAN_POINT('',(192.4071154622,1.089728559555,0.));
#31 = CARTESIAN_POINT('',(572.76003445035,-5.703803087354,0.));
#32 = CARTESIAN_POINT('',(680.39524886144,10.098248995516,0.));
#33 = CARTESIAN_POINT('',(747.10333057205,-5.049922223855,0.));
#34 = CARTESIAN_POINT('',(910.41155806901,3.697979763754,0.));
#35 = CARTESIAN_POINT('',(1.190749471732E+03,-3.561443345089,0.));
#36 = CARTESIAN_POINT('',(1.263413858294E+03,13.797149703817,0.));
#37 = CARTESIAN_POINT('',(1.415501523638E+03,1.148184084465,0.));
#38 = CARTESIAN_POINT('',(1.5E+03,-0.667526819471,0.));
#39 = PCURVE('',#40,#45);
#40 = PLANE('',#41);
#41 = AXIS2_PLACEMENT_3D('',#42,#43,#44);
#42 = CARTESIAN_POINT('',(756.95944154862,75.,0.));
#43 = DIRECTION('',(0.,0.,1.));
#44 = DIRECTION('',(1.,0.,-0.));
#45 = DEFINITIONAL_REPRESENTATION('',(#46),#58);
#46 = B_SPLINE_CURVE_WITH_KNOTS('',1,(#47,#48,#49,#50,#51,#52,#53,#54,
    #55,#56,#57),.UNSPECIFIED.,.F.,.F.,(2,1,1,1,1,1,1,1,1,1,2),(0.,
    5.917832860978E-02,0.128507713895,0.380922598782,0.453107087967,
    0.498496615935,0.607011472545,0.79308575125,0.842657225495,
    0.943919992264,1.),.UNSPECIFIED.);
#47 = CARTESIAN_POINT('',(-756.9594415486,-60.71911066583));
#48 = CARTESIAN_POINT('',(-669.0245117926,-75.61372331301));
#49 = CARTESIAN_POINT('',(-564.5523260864,-73.91027144044));
#50 = CARTESIAN_POINT('',(-184.1994070982,-80.70380308735));
#51 = CARTESIAN_POINT('',(-76.56419268718,-64.90175100448));
#52 = CARTESIAN_POINT('',(-9.856110976579,-80.04992222385));
#53 = CARTESIAN_POINT('',(153.45211652038,-71.30202023624));
#54 = CARTESIAN_POINT('',(433.7900301835,-78.56144334508));
#55 = CARTESIAN_POINT('',(506.45441674553,-61.20285029618));
#56 = CARTESIAN_POINT('',(658.54208208904,-73.85181591553));
#57 = CARTESIAN_POINT('',(743.04055845137,-75.66752681947));
#58 = ( GEOMETRIC_REPRESENTATION_CONTEXT(2) 
PARAMETRIC_REPRESENTATION_CONTEXT() REPRESENTATION_CONTEXT('2D SPACE',''
  ) );
#59 = ORIENTED_EDGE('',*,*,#60,.T.);
#60 = EDGE_CURVE('',#24,#61,#63,.T.);
#61 = VERTEX_POINT('',#62);
#62 = CARTESIAN_POINT('',(1.5E+03,150.66752681947,0.));
#63 = SURFACE_CURVE('',#64,(#68),.PCURVE_S1.);
#64 = LINE('',#65,#66);
#65 = CARTESIAN_POINT('',(1.5E+03,-0.667526819471,0.));
#66 = VECTOR('',#67,1.);
#67 = DIRECTION('',(0.,1.,0.));
#68 = PCURVE('',#40,#69);
#69 = DEFINITIONAL_REPRESENTATION('',(#70),#74);
#70 = LINE('',#71,#72);
#71 = CARTESIAN_POINT('',(743.04055845137,-75.66752681947));
#72 = VECTOR('',#73,1.);
#73 = DIRECTION('',(0.,1.));
#74 = ( GEOMETRIC_REPRESENTATION_CONTEXT(2) 
PARAMETRIC_REPRESENTATION_CONTEXT() REPRESENTATION_CONTEXT('2D SPACE',''
  ) );
#75 = ORIENTED_EDGE('',*,*,#76,.T.);
#76 = EDGE_CURVE('',#61,#77,#79,.T.);
#77 = VERTEX_POINT('',#78);
#78 = CARTESIAN_POINT('',(0.,135.71911066583,0.));
#79 = SURFACE_CURVE('',#80,(#92),.PCURVE_S1.);
#80 = B_SPLINE_CURVE_WITH_KNOTS('',1,(#81,#82,#83,#84,#85,#86,#87,#88,
    #89,#90,#91),.UNSPECIFIED.,.F.,.F.,(2,1,1,1,1,1,1,1,1,1,2),(0.,
    5.608000773581E-02,0.157342774505,0.20691424875,0.392988527455,
    0.501503384065,0.546892912033,0.619077401218,0.871492286105,
    0.94082167139,1.),.UNSPECIFIED.);
#81 = CARTESIAN_POINT('',(1.5E+03,150.66752681947,0.));
#82 = CARTESIAN_POINT('',(1.415501523638E+03,148.85181591553,0.));
#83 = CARTESIAN_POINT('',(1.263413858294E+03,136.20285029618,0.));
#84 = CARTESIAN_POINT('',(1.190749471732E+03,153.56144334508,0.));
#85 = CARTESIAN_POINT('',(910.41155806901,146.30202023624,0.));
#86 = CARTESIAN_POINT('',(747.10333057205,155.04992222385,0.));
#87 = CARTESIAN_POINT('',(680.39524886144,139.90175100448,0.));
#88 = CARTESIAN_POINT('',(572.76003445035,155.70380308735,0.));
#89 = CARTESIAN_POINT('',(192.4071154622,148.91027144044,0.));
#90 = CARTESIAN_POINT('',(87.934929755939,150.61372331301,0.));
#91 = CARTESIAN_POINT('',(0.,135.71911066583,0.));
#92 = PCURVE('',#40,#93);
#93 = DEFINITIONAL_REPRESENTATION('',(#94),#106);
#94 = B_SPLINE_CURVE_WITH_KNOTS('',1,(#95,#96,#97,#98,#99,#100,#101,#102
    ,#103,#104,#105),.UNSPECIFIED.,.F.,.F.,(2,1,1,1,1,1,1,1,1,1,2),(0.,
    5.608000773581E-02,0.157342774505,0.20691424875,0.392988527455,
    0.501503384065,0.546892912033,0.619077401218,0.871492286105,
    0.94082167139,1.),.UNSPECIFIED.);
#95 = CARTESIAN_POINT('',(743.04055845137,75.667526819471));
#96 = CARTESIAN_POINT('',(658.54208208904,73.851815915535));
#97 = CARTESIAN_POINT('',(506.45441674553,61.202850296183));
#98 = CARTESIAN_POINT('',(433.7900301835,78.561443345089));
#99 = CARTESIAN_POINT('',(153.45211652038,71.302020236246));
#100 = CARTESIAN_POINT('',(-9.856110976579,80.049922223855));
#101 = CARTESIAN_POINT('',(-76.56419268718,64.901751004484));
#102 = CARTESIAN_POINT('',(-184.1994070982,80.703803087354));
#103 = CARTESIAN_POINT('',(-564.5523260864,73.910271440445));
#104 = CARTESIAN_POINT('',(-669.0245117926,75.613723313017));
#105 = CARTESIAN_POINT('',(-756.9594415486,60.719110665839));
#106 = ( GEOMETRIC_REPRESENTATION_CONTEXT(2) 
PARAMETRIC_REPRESENTATION_CONTEXT() REPRESENTATION_CONTEXT('2D SPACE',''
  ) );
#107 = ORIENTED_EDGE('',*,*,#108,.T.);
#108 = EDGE_CURVE('',#77,#22,#109,.T.);
#109 = SURFACE_CURVE('',#110,(#114),.PCURVE_S1.);
#110 = LINE('',#111,#112);
#111 = CARTESIAN_POINT('',(0.,135.71911066583,0.));
#112 = VECTOR('',#113,1.);
#113 = DIRECTION('',(0.,-1.,0.));
#114 = PCURVE('',#40,#115);
#115 = DEFINITIONAL_REPRESENTATION('',(#116),#120);
#116 = LINE('',#117,#118);
#117 = CARTESIAN_POINT('',(-756.9594415486,60.719110665839));
#118 = VECTOR('',#119,1.);
#119 = DIRECTION('',(0.,-1.));
#120 = ( GEOMETRIC_REPRESENTATION_CONTEXT(2) 
PARAMETRIC_REPRESENTATION_CONTEXT() REPRESENTATION_CONTEXT('2D SPACE',''
  ) );
#121 = ( GEOMETRIC_REPRESENTATION_CONTEXT(3) 
GLOBAL_UNCERTAINTY_ASSIGNED_CONTEXT((#125)) GLOBAL_UNIT_ASSIGNED_CONTEXT
((#122,#123,#124)) REPRESENTATION_CONTEXT('Context #1',
  '3D Context with UNIT and UNCERTAINTY') );
#122 = ( LENGTH_UNIT() NAMED_UNIT(*) SI_UNIT(.MILLI.,.METRE.) );
#123 = ( NAMED_UNIT(*) PLANE_ANGLE_UNIT() SI_UNIT($,.RADIAN.) );
#124 = ( NAMED_UNIT(*) SI_UNIT($,.STERADIAN.) SOLID_ANGLE_UNIT() );
#125 = UNCERTAINTY_MEASURE_WITH_UNIT(LENGTH_MEASURE(1.E-07),#122,
  'distance_accuracy_value','confusion accuracy');
#126 = PRODUCT_RELATED_PRODUCT_CATEGORY('part',$,(#7));
ENDSEC;
END-ISO-10303-21;
