ISO-10303-21;
HEADER;
FILE_DESCRIPTION(('Open CASCADE Model'),'2;1');
FILE_NAME('Open CASCADE Shape Model','2026-06-02T12:09:04',('Author'),(
    'Open CASCADE'),'Open CASCADE STEP processor 7.9','Open CASCADE 7.9'
  ,'Unknown');
FILE_SCHEMA(('AUTOMOTIVE_DESIGN { 1 0 10303 214 1 1 1 1 }'));
ENDSEC;
DATA;
#1 = APPLICATION_PROTOCOL_DEFINITION('international standard',
  'automotive_design',2000,#2);
#2 = APPLICATION_CONTEXT(
  'core data for automotive mechanical design processes');
#3 = SHAPE_DEFINITION_REPRESENTATION(#4,#10);
#4 = PRODUCT_DEFINITION_SHAPE('','',#5);
#5 = PRODUCT_DEFINITION('design','',#6,#9);
#6 = PRODUCT_DEFINITION_FORMATION('','',#7);
#7 = PRODUCT('Open CASCADE STEP translator 7.9 22',
  'Open CASCADE STEP translator 7.9 22','',(#8));
#8 = PRODUCT_CONTEXT('',#2,'mechanical');
#9 = PRODUCT_DEFINITION_CONTEXT('part definition',#2,'design');
#10 = MANIFOLD_SURFACE_SHAPE_REPRESENTATION('',(#11,#15),#121);
#11 = AXIS2_PLACEMENT_3D('',#12,#13,#14);
#12 = CARTESIAN_POINT('',(0.,0.,0.));
#13 = DIRECTION('',(0.,0.,1.));
#14 = DIRECTION('',(1.,0.,-0.));
#15 = SHELL_BASED_SURFACE_MODEL('',(#16));
#16 = OPEN_SHELL('',(#17));
#17 = ADVANCED_FACE('',(#18),#40,.T.);
#18 = FACE_BOUND('',#19,.T.);
#19 = EDGE_LOOP('',(#20,#59,#75,#107));
#20 = ORIENTED_EDGE('',*,*,#21,.T.);
#21 = EDGE_CURVE('',#22,#24,#26,.T.);
#22 = VERTEX_POINT('',#23);
#23 = CARTESIAN_POINT('',(0.,1.243180726245,0.));
#24 = VERTEX_POINT('',#25);
#25 = CARTESIAN_POINT('',(1.5E+03,-13.21783229086,0.));
#26 = SURFACE_CURVE('',#27,(#39),.PCURVE_S1.);
#27 = B_SPLINE_CURVE_WITH_KNOTS('',1,(#28,#29,#30,#31,#32,#33,#34,#35,
    #36,#37,#38),.UNSPECIFIED.,.F.,.F.,(2,1,1,1,1,1,1,1,1,1,2),(0.,
    5.940164070507E-02,8.726187770938E-02,0.22078919996,0.252335358667,
    0.624317715781,0.699579892878,0.749044971831,0.785468902446,
    0.865445069444,1.),.UNSPECIFIED.);
#28 = CARTESIAN_POINT('',(0.,1.243180726245,0.));
#29 = CARTESIAN_POINT('',(88.894590015789,-8.522428450242,0.));
#30 = CARTESIAN_POINT('',(130.60366012866,-4.092250263233,0.));
#31 = CARTESIAN_POINT('',(331.62036354979,-2.172394498759,0.));
#32 = CARTESIAN_POINT('',(377.35063659048,10.646092360049,0.));
#33 = CARTESIAN_POINT('',(936.85577921436,-13.38073360674,0.));
#34 = CARTESIAN_POINT('',(1.048500449446E+03,5.959721024558,0.));
#35 = CARTESIAN_POINT('',(1.122506298247E+03,-2.340516474226,0.));
#36 = CARTESIAN_POINT('',(1.177220864573E+03,-5.993278337672,0.));
#37 = CARTESIAN_POINT('',(1.297615728168E+03,-4.476994657359,0.));
#38 = CARTESIAN_POINT('',(1.5E+03,-13.21783229086,0.));
#39 = PCURVE('',#40,#45);
#40 = PLANE('',#41);
#41 = AXIS2_PLACEMENT_3D('',#42,#43,#44);
#42 = CARTESIAN_POINT('',(756.17903010852,75.,0.));
#43 = DIRECTION('',(0.,0.,1.));
#44 = DIRECTION('',(1.,0.,-0.));
#45 = DEFINITIONAL_REPRESENTATION('',(#46),#58);
#46 = B_SPLINE_CURVE_WITH_KNOTS('',1,(#47,#48,#49,#50,#51,#52,#53,#54,
    #55,#56,#57),.UNSPECIFIED.,.F.,.F.,(2,1,1,1,1,1,1,1,1,1,2),(0.,
    5.940164070507E-02,8.726187770938E-02,0.22078919996,0.252335358667,
    0.624317715781,0.699579892878,0.749044971831,0.785468902446,
    0.865445069444,1.),.UNSPECIFIED.);
#47 = CARTESIAN_POINT('',(-756.1790301085,-73.75681927375));
#48 = CARTESIAN_POINT('',(-667.2844400927,-83.52242845024));
#49 = CARTESIAN_POINT('',(-625.5753699798,-79.09225026323));
#50 = CARTESIAN_POINT('',(-424.5586665587,-77.17239449875));
#51 = CARTESIAN_POINT('',(-378.828393518,-64.35390763995));
#52 = CARTESIAN_POINT('',(180.67674910584,-88.38073360674));
#53 = CARTESIAN_POINT('',(292.32141933717,-69.04027897544));
#54 = CARTESIAN_POINT('',(366.32726813883,-77.34051647422));
#55 = CARTESIAN_POINT('',(421.04183446491,-80.99327833767));
#56 = CARTESIAN_POINT('',(541.43669805962,-79.47699465735));
#57 = CARTESIAN_POINT('',(743.82096989148,-88.21783229086));
#58 = ( GEOMETRIC_REPRESENTATION_CONTEXT(2) 
PARAMETRIC_REPRESENTATION_CONTEXT() REPRESENTATION_CONTEXT('2D SPACE',''
  ) );
#59 = ORIENTED_EDGE('',*,*,#60,.T.);
#60 = EDGE_CURVE('',#24,#61,#63,.T.);
#61 = VERTEX_POINT('',#62);
#62 = CARTESIAN_POINT('',(1.5E+03,163.21783229086,0.));
#63 = SURFACE_CURVE('',#64,(#68),.PCURVE_S1.);
#64 = LINE('',#65,#66);
#65 = CARTESIAN_POINT('',(1.5E+03,-13.21783229086,0.));
#66 = VECTOR('',#67,1.);
#67 = DIRECTION('',(0.,1.,0.));
#68 = PCURVE('',#40,#69);
#69 = DEFINITIONAL_REPRESENTATION('',(#70),#74);
#70 = LINE('',#71,#72);
#71 = CARTESIAN_POINT('',(743.82096989148,-88.21783229086));
#72 = VECTOR('',#73,1.);
#73 = DIRECTION('',(0.,1.));
#74 = ( GEOMETRIC_REPRESENTATION_CONTEXT(2) 
PARAMETRIC_REPRESENTATION_CONTEXT() REPRESENTATION_CONTEXT('2D SPACE',''
  ) );
#75 = ORIENTED_EDGE('',*,*,#76,.T.);
#76 = EDGE_CURVE('',#61,#77,#79,.T.);
#77 = VERTEX_POINT('',#78);
#78 = CARTESIAN_POINT('',(0.,148.75681927375,0.));
#79 = SURFACE_CURVE('',#80,(#92),.PCURVE_S1.);
#80 = B_SPLINE_CURVE_WITH_KNOTS('',1,(#81,#82,#83,#84,#85,#86,#87,#88,
    #89,#90,#91),.UNSPECIFIED.,.F.,.F.,(2,1,1,1,1,1,1,1,1,1,2),(0.,
    0.134554930556,0.214531097554,0.250955028169,0.300420107122,
    0.375682284219,0.747664641333,0.77921080004,0.912738122291,
    0.940598359295,1.),.UNSPECIFIED.);
#81 = CARTESIAN_POINT('',(1.5E+03,163.21783229086,0.));
#82 = CARTESIAN_POINT('',(1.297615728168E+03,154.47699465735,0.));
#83 = CARTESIAN_POINT('',(1.177220864573E+03,155.99327833767,0.));
#84 = CARTESIAN_POINT('',(1.122506298247E+03,152.34051647422,0.));
#85 = CARTESIAN_POINT('',(1.048500449446E+03,144.04027897544,0.));
#86 = CARTESIAN_POINT('',(936.85577921436,163.38073360674,0.));
#87 = CARTESIAN_POINT('',(377.35063659048,139.35390763995,0.));
#88 = CARTESIAN_POINT('',(331.62036354979,152.17239449875,0.));
#89 = CARTESIAN_POINT('',(130.60366012866,154.09225026323,0.));
#90 = CARTESIAN_POINT('',(88.894590015789,158.52242845024,0.));
#91 = CARTESIAN_POINT('',(0.,148.75681927375,0.));
#92 = PCURVE('',#40,#93);
#93 = DEFINITIONAL_REPRESENTATION('',(#94),#106);
#94 = B_SPLINE_CURVE_WITH_KNOTS('',1,(#95,#96,#97,#98,#99,#100,#101,#102
    ,#103,#104,#105),.UNSPECIFIED.,.F.,.F.,(2,1,1,1,1,1,1,1,1,1,2),(0.,
    0.134554930556,0.214531097554,0.250955028169,0.300420107122,
    0.375682284219,0.747664641333,0.77921080004,0.912738122291,
    0.940598359295,1.),.UNSPECIFIED.);
#95 = CARTESIAN_POINT('',(743.82096989148,88.217832290866));
#96 = CARTESIAN_POINT('',(541.43669805962,79.476994657359));
#97 = CARTESIAN_POINT('',(421.04183446491,80.993278337672));
#98 = CARTESIAN_POINT('',(366.32726813883,77.340516474226));
#99 = CARTESIAN_POINT('',(292.32141933717,69.040278975442));
#100 = CARTESIAN_POINT('',(180.67674910584,88.380733606743));
#101 = CARTESIAN_POINT('',(-378.828393518,64.353907639952));
#102 = CARTESIAN_POINT('',(-424.5586665587,77.172394498759));
#103 = CARTESIAN_POINT('',(-625.5753699798,79.092250263233));
#104 = CARTESIAN_POINT('',(-667.2844400927,83.522428450242));
#105 = CARTESIAN_POINT('',(-756.1790301085,73.756819273755));
#106 = ( GEOMETRIC_REPRESENTATION_CONTEXT(2) 
PARAMETRIC_REPRESENTATION_CONTEXT() REPRESENTATION_CONTEXT('2D SPACE',''
  ) );
#107 = ORIENTED_EDGE('',*,*,#108,.T.);
#108 = EDGE_CURVE('',#77,#22,#109,.T.);
#109 = SURFACE_CURVE('',#110,(#114),.PCURVE_S1.);
#110 = LINE('',#111,#112);
#111 = CARTESIAN_POINT('',(0.,148.75681927375,0.));
#112 = VECTOR('',#113,1.);
#113 = DIRECTION('',(0.,-1.,0.));
#114 = PCURVE('',#40,#115);
#115 = DEFINITIONAL_REPRESENTATION('',(#116),#120);
#116 = LINE('',#117,#118);
#117 = CARTESIAN_POINT('',(-756.1790301085,73.756819273755));
#118 = VECTOR('',#119,1.);
#119 = DIRECTION('',(0.,-1.));
#120 = ( GEOMETRIC_REPRESENTATION_CONTEXT(2) 
PARAMETRIC_REPRESENTATION_CONTEXT() REPRESENTATION_CONTEXT('2D SPACE',''
  ) );
#121 = ( GEOMETRIC_REPRESENTATION_CONTEXT(3) 
GLOBAL_UNCERTAINTY_ASSIGNED_CONTEXT((#125)) GLOBAL_UNIT_ASSIGNED_CONTEXT
((#122,#123,#124)) REPRESENTATION_CONTEXT('Context #1',
  '3D Context with UNIT and UNCERTAINTY') );
#122 = ( LENGTH_UNIT() NAMED_UNIT(*) SI_UNIT(.MILLI.,.METRE.) );
#123 = ( NAMED_UNIT(*) PLANE_ANGLE_UNIT() SI_UNIT($,.RADIAN.) );
#124 = ( NAMED_UNIT(*) SI_UNIT($,.STERADIAN.) SOLID_ANGLE_UNIT() );
#125 = UNCERTAINTY_MEASURE_WITH_UNIT(LENGTH_MEASURE(1.E-07),#122,
  'distance_accuracy_value','confusion accuracy');
#126 = PRODUCT_RELATED_PRODUCT_CATEGORY('part',$,(#7));
ENDSEC;
END-ISO-10303-21;
