ISO-10303-21;
HEADER;
FILE_DESCRIPTION(('Open CASCADE Model'),'2;1');
FILE_NAME('Open CASCADE Shape Model','2026-06-02T12:09:04',('Author'),(
    'Open CASCADE'),'Open CASCADE STEP processor 7.9','Open CASCADE 7.9'
  ,'Unknown');
FILE_SCHEMA(('AUTOMOTIVE_DESIGN { 1 0 10303 214 1 1 1 1 }'));
ENDSEC;
DATA;
#1 = APPLICATION_PROTOCOL_DEFINITION('international standard',
  'automotive_design',2000,#2);
#2 = APPLICATION_CONTEXT(
  'core data for automotive mechanical design processes');
#3 = SHAPE_DEFINITION_REPRESENTATION(#4,#10);
#4 = PRODUCT_DEFINITION_SHAPE('','',#5);
#5 = PRODUCT_DEFINITION('design','',#6,#9);
#6 = PRODUCT_DEFINITION_FORMATION('','',#7);
#7 = PRODUCT('Open CASCADE STEP translator 7.9 61',
  'Open CASCADE STEP translator 7.9 61','',(#8));
#8 = PRODUCT_CONTEXT('',#2,'mechanical');
#9 = PRODUCT_DEFINITION_CONTEXT('part definition',#2,'design');
#10 = MANIFOLD_SURFACE_SHAPE_REPRESENTATION('',(#11,#15),#121);
#11 = AXIS2_PLACEMENT_3D('',#12,#13,#14);
#12 = CARTESIAN_POINT('',(0.,0.,0.));
#13 = DIRECTION('',(0.,0.,1.));
#14 = DIRECTION('',(1.,0.,-0.));
#15 = SHELL_BASED_SURFACE_MODEL('',(#16));
#16 = OPEN_SHELL('',(#17));
#17 = ADVANCED_FACE('',(#18),#40,.T.);
#18 = FACE_BOUND('',#19,.T.);
#19 = EDGE_LOOP('',(#20,#59,#75,#107));
#20 = ORIENTED_EDGE('',*,*,#21,.T.);
#21 = EDGE_CURVE('',#22,#24,#26,.T.);
#22 = VERTEX_POINT('',#23);
#23 = CARTESIAN_POINT('',(0.,-4.762602294501,0.));
#24 = VERTEX_POINT('',#25);
#25 = CARTESIAN_POINT('',(1.5E+03,-1.880172317246,0.));
#26 = SURFACE_CURVE('',#27,(#39),.PCURVE_S1.);
#27 = B_SPLINE_CURVE_WITH_KNOTS('',1,(#28,#29,#30,#31,#32,#33,#34,#35,
    #36,#37,#38),.UNSPECIFIED.,.F.,.F.,(2,1,1,1,1,1,1,1,1,1,2),(0.,
    5.386668486671E-02,9.647795550913E-02,0.291525261743,0.37136721265,
    0.508808940824,0.582751425107,0.632963163292,0.789141160062,
    0.879406501613,1.),.UNSPECIFIED.);
#28 = CARTESIAN_POINT('',(0.,-4.762602294501,0.));
#29 = CARTESIAN_POINT('',(80.908422757083,-1.631970701393,0.));
#30 = CARTESIAN_POINT('',(144.5741538566,5.378533599178,0.));
#31 = CARTESIAN_POINT('',(437.75587343264,4.628075827121,0.));
#32 = CARTESIAN_POINT('',(557.76515629918,3.642216373208,0.));
#33 = CARTESIAN_POINT('',(764.18310210378,12.160806952518,0.));
#34 = CARTESIAN_POINT('',(875.30807653711,10.018121027581,0.));
#35 = CARTESIAN_POINT('',(948.909795368,-6.693414064362,0.));
#36 = CARTESIAN_POINT('',(1.183452648086E+03,3.327098654338,0.));
#37 = CARTESIAN_POINT('',(1.319032660936E+03,8.563830823196,0.));
#38 = CARTESIAN_POINT('',(1.5E+03,-1.880172317246,0.));
#39 = PCURVE('',#40,#45);
#40 = PLANE('',#41);
#41 = AXIS2_PLACEMENT_3D('',#42,#43,#44);
#42 = CARTESIAN_POINT('',(748.88836733574,75.,0.));
#43 = DIRECTION('',(0.,0.,1.));
#44 = DIRECTION('',(1.,0.,-0.));
#45 = DEFINITIONAL_REPRESENTATION('',(#46),#58);
#46 = B_SPLINE_CURVE_WITH_KNOTS('',1,(#47,#48,#49,#50,#51,#52,#53,#54,
    #55,#56,#57),.UNSPECIFIED.,.F.,.F.,(2,1,1,1,1,1,1,1,1,1,2),(0.,
    5.386668486671E-02,9.647795550913E-02,0.291525261743,0.37136721265,
    0.508808940824,0.582751425107,0.632963163292,0.789141160062,
    0.879406501613,1.),.UNSPECIFIED.);
#47 = CARTESIAN_POINT('',(-748.8883673357,-79.7626022945));
#48 = CARTESIAN_POINT('',(-667.9799445786,-76.63197070139));
#49 = CARTESIAN_POINT('',(-604.3142134791,-69.62146640082));
#50 = CARTESIAN_POINT('',(-311.1324939031,-70.37192417287));
#51 = CARTESIAN_POINT('',(-191.1232110365,-71.35778362679));
#52 = CARTESIAN_POINT('',(15.294734768035,-62.83919304748));
#53 = CARTESIAN_POINT('',(126.41970920136,-64.98187897241));
#54 = CARTESIAN_POINT('',(200.02142803226,-81.69341406436));
#55 = CARTESIAN_POINT('',(434.56428075001,-71.67290134566));
#56 = CARTESIAN_POINT('',(570.14429359999,-66.4361691768));
#57 = CARTESIAN_POINT('',(751.11163266425,-76.88017231724));
#58 = ( GEOMETRIC_REPRESENTATION_CONTEXT(2) 
PARAMETRIC_REPRESENTATION_CONTEXT() REPRESENTATION_CONTEXT('2D SPACE',''
  ) );
#59 = ORIENTED_EDGE('',*,*,#60,.T.);
#60 = EDGE_CURVE('',#24,#61,#63,.T.);
#61 = VERTEX_POINT('',#62);
#62 = CARTESIAN_POINT('',(1.5E+03,151.88017231724,0.));
#63 = SURFACE_CURVE('',#64,(#68),.PCURVE_S1.);
#64 = LINE('',#65,#66);
#65 = CARTESIAN_POINT('',(1.5E+03,-1.880172317246,0.));
#66 = VECTOR('',#67,1.);
#67 = DIRECTION('',(0.,1.,0.));
#68 = PCURVE('',#40,#69);
#69 = DEFINITIONAL_REPRESENTATION('',(#70),#74);
#70 = LINE('',#71,#72);
#71 = CARTESIAN_POINT('',(751.11163266425,-76.88017231724));
#72 = VECTOR('',#73,1.);
#73 = DIRECTION('',(0.,1.));
#74 = ( GEOMETRIC_REPRESENTATION_CONTEXT(2) 
PARAMETRIC_REPRESENTATION_CONTEXT() REPRESENTATION_CONTEXT('2D SPACE',''
  ) );
#75 = ORIENTED_EDGE('',*,*,#76,.T.);
#76 = EDGE_CURVE('',#61,#77,#79,.T.);
#77 = VERTEX_POINT('',#78);
#78 = CARTESIAN_POINT('',(0.,154.7626022945,0.));
#79 = SURFACE_CURVE('',#80,(#92),.PCURVE_S1.);
#80 = B_SPLINE_CURVE_WITH_KNOTS('',1,(#81,#82,#83,#84,#85,#86,#87,#88,
    #89,#90,#91),.UNSPECIFIED.,.F.,.F.,(2,1,1,1,1,1,1,1,1,1,2),(0.,
    0.120593498387,0.210858839938,0.367036836708,0.417248574893,
    0.491191059176,0.62863278735,0.708474738257,0.903522044491,
    0.946133315133,1.),.UNSPECIFIED.);
#81 = CARTESIAN_POINT('',(1.5E+03,151.88017231724,0.));
#82 = CARTESIAN_POINT('',(1.319032660936E+03,141.4361691768,0.));
#83 = CARTESIAN_POINT('',(1.183452648086E+03,146.67290134566,0.));
#84 = CARTESIAN_POINT('',(948.909795368,156.69341406436,0.));
#85 = CARTESIAN_POINT('',(875.30807653711,139.98187897241,0.));
#86 = CARTESIAN_POINT('',(764.18310210378,137.83919304748,0.));
#87 = CARTESIAN_POINT('',(557.76515629918,146.35778362679,0.));
#88 = CARTESIAN_POINT('',(437.75587343264,145.37192417287,0.));
#89 = CARTESIAN_POINT('',(144.5741538566,144.62146640082,0.));
#90 = CARTESIAN_POINT('',(80.908422757083,151.63197070139,0.));
#91 = CARTESIAN_POINT('',(0.,154.7626022945,0.));
#92 = PCURVE('',#40,#93);
#93 = DEFINITIONAL_REPRESENTATION('',(#94),#106);
#94 = B_SPLINE_CURVE_WITH_KNOTS('',1,(#95,#96,#97,#98,#99,#100,#101,#102
    ,#103,#104,#105),.UNSPECIFIED.,.F.,.F.,(2,1,1,1,1,1,1,1,1,1,2),(0.,
    0.120593498387,0.210858839938,0.367036836708,0.417248574893,
    0.491191059176,0.62863278735,0.708474738257,0.903522044491,
    0.946133315133,1.),.UNSPECIFIED.);
#95 = CARTESIAN_POINT('',(751.11163266425,76.880172317246));
#96 = CARTESIAN_POINT('',(570.14429359999,66.436169176804));
#97 = CARTESIAN_POINT('',(434.56428075001,71.672901345662));
#98 = CARTESIAN_POINT('',(200.02142803226,81.693414064362));
#99 = CARTESIAN_POINT('',(126.41970920136,64.981878972419));
#100 = CARTESIAN_POINT('',(15.294734768035,62.839193047482));
#101 = CARTESIAN_POINT('',(-191.1232110365,71.357783626792));
#102 = CARTESIAN_POINT('',(-311.1324939031,70.371924172879));
#103 = CARTESIAN_POINT('',(-604.3142134791,69.621466400822));
#104 = CARTESIAN_POINT('',(-667.9799445786,76.631970701393));
#105 = CARTESIAN_POINT('',(-748.8883673357,79.762602294501));
#106 = ( GEOMETRIC_REPRESENTATION_CONTEXT(2) 
PARAMETRIC_REPRESENTATION_CONTEXT() REPRESENTATION_CONTEXT('2D SPACE',''
  ) );
#107 = ORIENTED_EDGE('',*,*,#108,.T.);
#108 = EDGE_CURVE('',#77,#22,#109,.T.);
#109 = SURFACE_CURVE('',#110,(#114),.PCURVE_S1.);
#110 = LINE('',#111,#112);
#111 = CARTESIAN_POINT('',(0.,154.7626022945,0.));
#112 = VECTOR('',#113,1.);
#113 = DIRECTION('',(0.,-1.,0.));
#114 = PCURVE('',#40,#115);
#115 = DEFINITIONAL_REPRESENTATION('',(#116),#120);
#116 = LINE('',#117,#118);
#117 = CARTESIAN_POINT('',(-748.8883673357,79.762602294501));
#118 = VECTOR('',#119,1.);
#119 = DIRECTION('',(0.,-1.));
#120 = ( GEOMETRIC_REPRESENTATION_CONTEXT(2) 
PARAMETRIC_REPRESENTATION_CONTEXT() REPRESENTATION_CONTEXT('2D SPACE',''
  ) );
#121 = ( GEOMETRIC_REPRESENTATION_CONTEXT(3) 
GLOBAL_UNCERTAINTY_ASSIGNED_CONTEXT((#125)) GLOBAL_UNIT_ASSIGNED_CONTEXT
((#122,#123,#124)) REPRESENTATION_CONTEXT('Context #1',
  '3D Context with UNIT and UNCERTAINTY') );
#122 = ( LENGTH_UNIT() NAMED_UNIT(*) SI_UNIT(.MILLI.,.METRE.) );
#123 = ( NAMED_UNIT(*) PLANE_ANGLE_UNIT() SI_UNIT($,.RADIAN.) );
#124 = ( NAMED_UNIT(*) SI_UNIT($,.STERADIAN.) SOLID_ANGLE_UNIT() );
#125 = UNCERTAINTY_MEASURE_WITH_UNIT(LENGTH_MEASURE(1.E-07),#122,
  'distance_accuracy_value','confusion accuracy');
#126 = PRODUCT_RELATED_PRODUCT_CATEGORY('part',$,(#7));
ENDSEC;
END-ISO-10303-21;
