ISO-10303-21;
HEADER;
FILE_DESCRIPTION(('Open CASCADE Model'),'2;1');
FILE_NAME('Open CASCADE Shape Model','2026-06-02T12:09:04',('Author'),(
    'Open CASCADE'),'Open CASCADE STEP processor 7.9','Open CASCADE 7.9'
  ,'Unknown');
FILE_SCHEMA(('AUTOMOTIVE_DESIGN { 1 0 10303 214 1 1 1 1 }'));
ENDSEC;
DATA;
#1 = APPLICATION_PROTOCOL_DEFINITION('international standard',
  'automotive_design',2000,#2);
#2 = APPLICATION_CONTEXT(
  'core data for automotive mechanical design processes');
#3 = SHAPE_DEFINITION_REPRESENTATION(#4,#10);
#4 = PRODUCT_DEFINITION_SHAPE('','',#5);
#5 = PRODUCT_DEFINITION('design','',#6,#9);
#6 = PRODUCT_DEFINITION_FORMATION('','',#7);
#7 = PRODUCT('Open CASCADE STEP translator 7.9 85',
  'Open CASCADE STEP translator 7.9 85','',(#8));
#8 = PRODUCT_CONTEXT('',#2,'mechanical');
#9 = PRODUCT_DEFINITION_CONTEXT('part definition',#2,'design');
#10 = MANIFOLD_SURFACE_SHAPE_REPRESENTATION('',(#11,#15),#121);
#11 = AXIS2_PLACEMENT_3D('',#12,#13,#14);
#12 = CARTESIAN_POINT('',(0.,0.,0.));
#13 = DIRECTION('',(0.,0.,1.));
#14 = DIRECTION('',(1.,0.,-0.));
#15 = SHELL_BASED_SURFACE_MODEL('',(#16));
#16 = OPEN_SHELL('',(#17));
#17 = ADVANCED_FACE('',(#18),#40,.T.);
#18 = FACE_BOUND('',#19,.T.);
#19 = EDGE_LOOP('',(#20,#59,#75,#107));
#20 = ORIENTED_EDGE('',*,*,#21,.T.);
#21 = EDGE_CURVE('',#22,#24,#26,.T.);
#22 = VERTEX_POINT('',#23);
#23 = CARTESIAN_POINT('',(0.,-3.706391089282,0.));
#24 = VERTEX_POINT('',#25);
#25 = CARTESIAN_POINT('',(1.5E+03,1.771121046059,0.));
#26 = SURFACE_CURVE('',#27,(#39),.PCURVE_S1.);
#27 = B_SPLINE_CURVE_WITH_KNOTS('',1,(#28,#29,#30,#31,#32,#33,#34,#35,
    #36,#37,#38),.UNSPECIFIED.,.F.,.F.,(2,1,1,1,1,1,1,1,1,1,2),(0.,
    0.107026672682,0.145057264049,0.382862917332,0.507059531003,
    0.632182741136,0.742475168521,0.789139280598,0.853150663105,
    0.924627827387,1.),.UNSPECIFIED.);
#28 = CARTESIAN_POINT('',(0.,-3.706391089282,0.));
#29 = CARTESIAN_POINT('',(160.42881000494,10.947606233474,0.));
#30 = CARTESIAN_POINT('',(215.1659108769,-5.806214087602,0.));
#31 = CARTESIAN_POINT('',(573.11084686467,-5.242510691407,0.));
#32 = CARTESIAN_POINT('',(760.05160406711,-5.477643666506,0.));
#33 = CARTESIAN_POINT('',(947.50037365807,12.777883417839,0.));
#34 = CARTESIAN_POINT('',(1.113135590546E+03,1.594834727575,0.));
#35 = CARTESIAN_POINT('',(1.183365316425E+03,2.728946038628,0.));
#36 = CARTESIAN_POINT('',(1.279228877834E+03,12.398655490704,0.));
#37 = CARTESIAN_POINT('',(1.386739399524E+03,8.328962163096,0.));
#38 = CARTESIAN_POINT('',(1.5E+03,1.771121046059,0.));
#39 = PCURVE('',#40,#45);
#40 = PLANE('',#41);
#41 = AXIS2_PLACEMENT_3D('',#42,#43,#44);
#42 = CARTESIAN_POINT('',(746.76977580017,75.,0.));
#43 = DIRECTION('',(0.,0.,1.));
#44 = DIRECTION('',(1.,0.,-0.));
#45 = DEFINITIONAL_REPRESENTATION('',(#46),#58);
#46 = B_SPLINE_CURVE_WITH_KNOTS('',1,(#47,#48,#49,#50,#51,#52,#53,#54,
    #55,#56,#57),.UNSPECIFIED.,.F.,.F.,(2,1,1,1,1,1,1,1,1,1,2),(0.,
    0.107026672682,0.145057264049,0.382862917332,0.507059531003,
    0.632182741136,0.742475168521,0.789139280598,0.853150663105,
    0.924627827387,1.),.UNSPECIFIED.);
#47 = CARTESIAN_POINT('',(-746.7697758001,-78.70639108928));
#48 = CARTESIAN_POINT('',(-586.3409657952,-64.05239376652));
#49 = CARTESIAN_POINT('',(-531.6038649232,-80.8062140876));
#50 = CARTESIAN_POINT('',(-173.6589289354,-80.2425106914));
#51 = CARTESIAN_POINT('',(13.281828266936,-80.4776436665));
#52 = CARTESIAN_POINT('',(200.7305978579,-62.22211658216));
#53 = CARTESIAN_POINT('',(366.36581474593,-73.40516527242));
#54 = CARTESIAN_POINT('',(436.5955406249,-72.27105396137));
#55 = CARTESIAN_POINT('',(532.45910203349,-62.60134450929));
#56 = CARTESIAN_POINT('',(639.96962372372,-66.6710378369));
#57 = CARTESIAN_POINT('',(753.23022419982,-73.22887895394));
#58 = ( GEOMETRIC_REPRESENTATION_CONTEXT(2) 
PARAMETRIC_REPRESENTATION_CONTEXT() REPRESENTATION_CONTEXT('2D SPACE',''
  ) );
#59 = ORIENTED_EDGE('',*,*,#60,.T.);
#60 = EDGE_CURVE('',#24,#61,#63,.T.);
#61 = VERTEX_POINT('',#62);
#62 = CARTESIAN_POINT('',(1.5E+03,148.22887895394,0.));
#63 = SURFACE_CURVE('',#64,(#68),.PCURVE_S1.);
#64 = LINE('',#65,#66);
#65 = CARTESIAN_POINT('',(1.5E+03,1.771121046059,0.));
#66 = VECTOR('',#67,1.);
#67 = DIRECTION('',(0.,1.,0.));
#68 = PCURVE('',#40,#69);
#69 = DEFINITIONAL_REPRESENTATION('',(#70),#74);
#70 = LINE('',#71,#72);
#71 = CARTESIAN_POINT('',(753.23022419982,-73.22887895394));
#72 = VECTOR('',#73,1.);
#73 = DIRECTION('',(0.,1.));
#74 = ( GEOMETRIC_REPRESENTATION_CONTEXT(2) 
PARAMETRIC_REPRESENTATION_CONTEXT() REPRESENTATION_CONTEXT('2D SPACE',''
  ) );
#75 = ORIENTED_EDGE('',*,*,#76,.T.);
#76 = EDGE_CURVE('',#61,#77,#79,.T.);
#77 = VERTEX_POINT('',#78);
#78 = CARTESIAN_POINT('',(0.,153.70639108928,0.));
#79 = SURFACE_CURVE('',#80,(#92),.PCURVE_S1.);
#80 = B_SPLINE_CURVE_WITH_KNOTS('',1,(#81,#82,#83,#84,#85,#86,#87,#88,
    #89,#90,#91),.UNSPECIFIED.,.F.,.F.,(2,1,1,1,1,1,1,1,1,1,2),(0.,
    7.537217261339E-02,0.146849336895,0.210860719402,0.257524831479,
    0.367817258864,0.492940468997,0.617137082668,0.854942735951,
    0.892973327318,1.),.UNSPECIFIED.);
#81 = CARTESIAN_POINT('',(1.5E+03,148.22887895394,0.));
#82 = CARTESIAN_POINT('',(1.386739399524E+03,141.6710378369,0.));
#83 = CARTESIAN_POINT('',(1.279228877834E+03,137.60134450929,0.));
#84 = CARTESIAN_POINT('',(1.183365316425E+03,147.27105396137,0.));
#85 = CARTESIAN_POINT('',(1.113135590546E+03,148.40516527242,0.));
#86 = CARTESIAN_POINT('',(947.50037365807,137.22211658216,0.));
#87 = CARTESIAN_POINT('',(760.05160406711,155.4776436665,0.));
#88 = CARTESIAN_POINT('',(573.11084686467,155.2425106914,0.));
#89 = CARTESIAN_POINT('',(215.1659108769,155.8062140876,0.));
#90 = CARTESIAN_POINT('',(160.42881000494,139.05239376652,0.));
#91 = CARTESIAN_POINT('',(0.,153.70639108928,0.));
#92 = PCURVE('',#40,#93);
#93 = DEFINITIONAL_REPRESENTATION('',(#94),#106);
#94 = B_SPLINE_CURVE_WITH_KNOTS('',1,(#95,#96,#97,#98,#99,#100,#101,#102
    ,#103,#104,#105),.UNSPECIFIED.,.F.,.F.,(2,1,1,1,1,1,1,1,1,1,2),(0.,
    7.537217261339E-02,0.146849336895,0.210860719402,0.257524831479,
    0.367817258864,0.492940468997,0.617137082668,0.854942735951,
    0.892973327318,1.),.UNSPECIFIED.);
#95 = CARTESIAN_POINT('',(753.23022419982,73.228878953941));
#96 = CARTESIAN_POINT('',(639.96962372372,66.671037836904));
#97 = CARTESIAN_POINT('',(532.45910203349,62.601344509296));
#98 = CARTESIAN_POINT('',(436.5955406249,72.271053961372));
#99 = CARTESIAN_POINT('',(366.36581474593,73.405165272425));
#100 = CARTESIAN_POINT('',(200.7305978579,62.222116582161));
#101 = CARTESIAN_POINT('',(13.281828266936,80.477643666506));
#102 = CARTESIAN_POINT('',(-173.6589289354,80.242510691407));
#103 = CARTESIAN_POINT('',(-531.6038649232,80.806214087602));
#104 = CARTESIAN_POINT('',(-586.3409657952,64.052393766526));
#105 = CARTESIAN_POINT('',(-746.7697758001,78.706391089282));
#106 = ( GEOMETRIC_REPRESENTATION_CONTEXT(2) 
PARAMETRIC_REPRESENTATION_CONTEXT() REPRESENTATION_CONTEXT('2D SPACE',''
  ) );
#107 = ORIENTED_EDGE('',*,*,#108,.T.);
#108 = EDGE_CURVE('',#77,#22,#109,.T.);
#109 = SURFACE_CURVE('',#110,(#114),.PCURVE_S1.);
#110 = LINE('',#111,#112);
#111 = CARTESIAN_POINT('',(0.,153.70639108928,0.));
#112 = VECTOR('',#113,1.);
#113 = DIRECTION('',(0.,-1.,0.));
#114 = PCURVE('',#40,#115);
#115 = DEFINITIONAL_REPRESENTATION('',(#116),#120);
#116 = LINE('',#117,#118);
#117 = CARTESIAN_POINT('',(-746.7697758001,78.706391089282));
#118 = VECTOR('',#119,1.);
#119 = DIRECTION('',(0.,-1.));
#120 = ( GEOMETRIC_REPRESENTATION_CONTEXT(2) 
PARAMETRIC_REPRESENTATION_CONTEXT() REPRESENTATION_CONTEXT('2D SPACE',''
  ) );
#121 = ( GEOMETRIC_REPRESENTATION_CONTEXT(3) 
GLOBAL_UNCERTAINTY_ASSIGNED_CONTEXT((#125)) GLOBAL_UNIT_ASSIGNED_CONTEXT
((#122,#123,#124)) REPRESENTATION_CONTEXT('Context #1',
  '3D Context with UNIT and UNCERTAINTY') );
#122 = ( LENGTH_UNIT() NAMED_UNIT(*) SI_UNIT(.MILLI.,.METRE.) );
#123 = ( NAMED_UNIT(*) PLANE_ANGLE_UNIT() SI_UNIT($,.RADIAN.) );
#124 = ( NAMED_UNIT(*) SI_UNIT($,.STERADIAN.) SOLID_ANGLE_UNIT() );
#125 = UNCERTAINTY_MEASURE_WITH_UNIT(LENGTH_MEASURE(1.E-07),#122,
  'distance_accuracy_value','confusion accuracy');
#126 = PRODUCT_RELATED_PRODUCT_CATEGORY('part',$,(#7));
ENDSEC;
END-ISO-10303-21;
