ISO-10303-21;
HEADER;
FILE_DESCRIPTION(('Open CASCADE Model'),'2;1');
FILE_NAME('Open CASCADE Shape Model','2026-06-02T12:09:04',('Author'),(
    'Open CASCADE'),'Open CASCADE STEP processor 7.9','Open CASCADE 7.9'
  ,'Unknown');
FILE_SCHEMA(('AUTOMOTIVE_DESIGN { 1 0 10303 214 1 1 1 1 }'));
ENDSEC;
DATA;
#1 = APPLICATION_PROTOCOL_DEFINITION('international standard',
  'automotive_design',2000,#2);
#2 = APPLICATION_CONTEXT(
  'core data for automotive mechanical design processes');
#3 = SHAPE_DEFINITION_REPRESENTATION(#4,#10);
#4 = PRODUCT_DEFINITION_SHAPE('','',#5);
#5 = PRODUCT_DEFINITION('design','',#6,#9);
#6 = PRODUCT_DEFINITION_FORMATION('','',#7);
#7 = PRODUCT('Open CASCADE STEP translator 7.9 21',
  'Open CASCADE STEP translator 7.9 21','',(#8));
#8 = PRODUCT_CONTEXT('',#2,'mechanical');
#9 = PRODUCT_DEFINITION_CONTEXT('part definition',#2,'design');
#10 = MANIFOLD_SURFACE_SHAPE_REPRESENTATION('',(#11,#15),#121);
#11 = AXIS2_PLACEMENT_3D('',#12,#13,#14);
#12 = CARTESIAN_POINT('',(0.,0.,0.));
#13 = DIRECTION('',(0.,0.,1.));
#14 = DIRECTION('',(1.,0.,-0.));
#15 = SHELL_BASED_SURFACE_MODEL('',(#16));
#16 = OPEN_SHELL('',(#17));
#17 = ADVANCED_FACE('',(#18),#40,.T.);
#18 = FACE_BOUND('',#19,.T.);
#19 = EDGE_LOOP('',(#20,#59,#75,#107));
#20 = ORIENTED_EDGE('',*,*,#21,.T.);
#21 = EDGE_CURVE('',#22,#24,#26,.T.);
#22 = VERTEX_POINT('',#23);
#23 = CARTESIAN_POINT('',(0.,11.252289620831,0.));
#24 = VERTEX_POINT('',#25);
#25 = CARTESIAN_POINT('',(1.5E+03,-14.40614354696,0.));
#26 = SURFACE_CURVE('',#27,(#39),.PCURVE_S1.);
#27 = B_SPLINE_CURVE_WITH_KNOTS('',1,(#28,#29,#30,#31,#32,#33,#34,#35,
    #36,#37,#38),.UNSPECIFIED.,.F.,.F.,(2,1,1,1,1,1,1,1,1,1,2),(0.,
    4.339078047061E-02,0.153160044215,0.178569126552,0.298829654647,
    0.44706088903,0.609747474441,0.774547508559,0.900136102652,
    0.926965995387,1.),.UNSPECIFIED.);
#28 = CARTESIAN_POINT('',(0.,11.252289620831,0.));
#29 = CARTESIAN_POINT('',(64.350279707005,-0.13592970579,0.));
#30 = CARTESIAN_POINT('',(229.51441916581,-7.355643849865,0.));
#31 = CARTESIAN_POINT('',(267.62635064593,-3.900355337292,0.));
#32 = CARTESIAN_POINT('',(448.62743028238,-10.53393299285,0.));
#33 = CARTESIAN_POINT('',(670.89794779269,10.343610226767,0.));
#34 = CARTESIAN_POINT('',(915.30045551686,-7.038632758055,0.));
#35 = CARTESIAN_POINT('',(1.162970993037E+03,9.208755273933,0.));
#36 = CARTESIAN_POINT('',(1.352103741042E+03,6.877237460466,0.));
#37 = CARTESIAN_POINT('',(1.390303879437E+03,-6.297140918439,0.));
#38 = CARTESIAN_POINT('',(1.5E+03,-14.40614354696,0.));
#39 = PCURVE('',#40,#45);
#40 = PLANE('',#41);
#41 = AXIS2_PLACEMENT_3D('',#42,#43,#44);
#42 = CARTESIAN_POINT('',(761.98519410095,75.,0.));
#43 = DIRECTION('',(0.,0.,1.));
#44 = DIRECTION('',(1.,0.,-0.));
#45 = DEFINITIONAL_REPRESENTATION('',(#46),#58);
#46 = B_SPLINE_CURVE_WITH_KNOTS('',1,(#47,#48,#49,#50,#51,#52,#53,#54,
    #55,#56,#57),.UNSPECIFIED.,.F.,.F.,(2,1,1,1,1,1,1,1,1,1,2),(0.,
    4.339078047061E-02,0.153160044215,0.178569126552,0.298829654647,
    0.44706088903,0.609747474441,0.774547508559,0.900136102652,
    0.926965995387,1.),.UNSPECIFIED.);
#47 = CARTESIAN_POINT('',(-761.9851941009,-63.74771037916));
#48 = CARTESIAN_POINT('',(-697.6349143939,-75.13592970579));
#49 = CARTESIAN_POINT('',(-532.4707749351,-82.35564384986));
#50 = CARTESIAN_POINT('',(-494.358843455,-78.90035533729));
#51 = CARTESIAN_POINT('',(-313.3577638185,-85.53393299285));
#52 = CARTESIAN_POINT('',(-91.08724630826,-64.65638977323));
#53 = CARTESIAN_POINT('',(153.3152614159,-82.03863275805));
#54 = CARTESIAN_POINT('',(400.98579893562,-65.79124472606));
#55 = CARTESIAN_POINT('',(590.11854694136,-68.12276253953));
#56 = CARTESIAN_POINT('',(628.31868533594,-81.29714091843));
#57 = CARTESIAN_POINT('',(738.01480589904,-89.40614354696));
#58 = ( GEOMETRIC_REPRESENTATION_CONTEXT(2) 
PARAMETRIC_REPRESENTATION_CONTEXT() REPRESENTATION_CONTEXT('2D SPACE',''
  ) );
#59 = ORIENTED_EDGE('',*,*,#60,.T.);
#60 = EDGE_CURVE('',#24,#61,#63,.T.);
#61 = VERTEX_POINT('',#62);
#62 = CARTESIAN_POINT('',(1.5E+03,164.40614354696,0.));
#63 = SURFACE_CURVE('',#64,(#68),.PCURVE_S1.);
#64 = LINE('',#65,#66);
#65 = CARTESIAN_POINT('',(1.5E+03,-14.40614354696,0.));
#66 = VECTOR('',#67,1.);
#67 = DIRECTION('',(0.,1.,0.));
#68 = PCURVE('',#40,#69);
#69 = DEFINITIONAL_REPRESENTATION('',(#70),#74);
#70 = LINE('',#71,#72);
#71 = CARTESIAN_POINT('',(738.01480589904,-89.40614354696));
#72 = VECTOR('',#73,1.);
#73 = DIRECTION('',(0.,1.));
#74 = ( GEOMETRIC_REPRESENTATION_CONTEXT(2) 
PARAMETRIC_REPRESENTATION_CONTEXT() REPRESENTATION_CONTEXT('2D SPACE',''
  ) );
#75 = ORIENTED_EDGE('',*,*,#76,.T.);
#76 = EDGE_CURVE('',#61,#77,#79,.T.);
#77 = VERTEX_POINT('',#78);
#78 = CARTESIAN_POINT('',(0.,138.74771037916,0.));
#79 = SURFACE_CURVE('',#80,(#92),.PCURVE_S1.);
#80 = B_SPLINE_CURVE_WITH_KNOTS('',1,(#81,#82,#83,#84,#85,#86,#87,#88,
    #89,#90,#91),.UNSPECIFIED.,.F.,.F.,(2,1,1,1,1,1,1,1,1,1,2),(0.,
    7.303400461279E-02,9.986389734777E-02,0.225452491441,0.390252525559,
    0.55293911097,0.701170345353,0.821430873448,0.846839955785,
    0.956609219529,1.),.UNSPECIFIED.);
#81 = CARTESIAN_POINT('',(1.5E+03,164.40614354696,0.));
#82 = CARTESIAN_POINT('',(1.390303879437E+03,156.29714091843,0.));
#83 = CARTESIAN_POINT('',(1.352103741042E+03,143.12276253953,0.));
#84 = CARTESIAN_POINT('',(1.162970993037E+03,140.79124472606,0.));
#85 = CARTESIAN_POINT('',(915.30045551686,157.03863275805,0.));
#86 = CARTESIAN_POINT('',(670.89794779269,139.65638977323,0.));
#87 = CARTESIAN_POINT('',(448.62743028238,160.53393299285,0.));
#88 = CARTESIAN_POINT('',(267.62635064593,153.90035533729,0.));
#89 = CARTESIAN_POINT('',(229.51441916581,157.35564384986,0.));
#90 = CARTESIAN_POINT('',(64.350279707005,150.13592970579,0.));
#91 = CARTESIAN_POINT('',(0.,138.74771037916,0.));
#92 = PCURVE('',#40,#93);
#93 = DEFINITIONAL_REPRESENTATION('',(#94),#106);
#94 = B_SPLINE_CURVE_WITH_KNOTS('',1,(#95,#96,#97,#98,#99,#100,#101,#102
    ,#103,#104,#105),.UNSPECIFIED.,.F.,.F.,(2,1,1,1,1,1,1,1,1,1,2),(0.,
    7.303400461279E-02,9.986389734777E-02,0.225452491441,0.390252525559,
    0.55293911097,0.701170345353,0.821430873448,0.846839955785,
    0.956609219529,1.),.UNSPECIFIED.);
#95 = CARTESIAN_POINT('',(738.01480589904,89.40614354696));
#96 = CARTESIAN_POINT('',(628.31868533594,81.297140918439));
#97 = CARTESIAN_POINT('',(590.11854694136,68.122762539534));
#98 = CARTESIAN_POINT('',(400.98579893562,65.791244726067));
#99 = CARTESIAN_POINT('',(153.3152614159,82.038632758055));
#100 = CARTESIAN_POINT('',(-91.08724630826,64.656389773233));
#101 = CARTESIAN_POINT('',(-313.3577638185,85.533932992858));
#102 = CARTESIAN_POINT('',(-494.358843455,78.900355337292));
#103 = CARTESIAN_POINT('',(-532.4707749351,82.355643849865));
#104 = CARTESIAN_POINT('',(-697.6349143939,75.13592970579));
#105 = CARTESIAN_POINT('',(-761.9851941009,63.747710379169));
#106 = ( GEOMETRIC_REPRESENTATION_CONTEXT(2) 
PARAMETRIC_REPRESENTATION_CONTEXT() REPRESENTATION_CONTEXT('2D SPACE',''
  ) );
#107 = ORIENTED_EDGE('',*,*,#108,.T.);
#108 = EDGE_CURVE('',#77,#22,#109,.T.);
#109 = SURFACE_CURVE('',#110,(#114),.PCURVE_S1.);
#110 = LINE('',#111,#112);
#111 = CARTESIAN_POINT('',(0.,138.74771037916,0.));
#112 = VECTOR('',#113,1.);
#113 = DIRECTION('',(0.,-1.,0.));
#114 = PCURVE('',#40,#115);
#115 = DEFINITIONAL_REPRESENTATION('',(#116),#120);
#116 = LINE('',#117,#118);
#117 = CARTESIAN_POINT('',(-761.9851941009,63.747710379169));
#118 = VECTOR('',#119,1.);
#119 = DIRECTION('',(0.,-1.));
#120 = ( GEOMETRIC_REPRESENTATION_CONTEXT(2) 
PARAMETRIC_REPRESENTATION_CONTEXT() REPRESENTATION_CONTEXT('2D SPACE',''
  ) );
#121 = ( GEOMETRIC_REPRESENTATION_CONTEXT(3) 
GLOBAL_UNCERTAINTY_ASSIGNED_CONTEXT((#125)) GLOBAL_UNIT_ASSIGNED_CONTEXT
((#122,#123,#124)) REPRESENTATION_CONTEXT('Context #1',
  '3D Context with UNIT and UNCERTAINTY') );
#122 = ( LENGTH_UNIT() NAMED_UNIT(*) SI_UNIT(.MILLI.,.METRE.) );
#123 = ( NAMED_UNIT(*) PLANE_ANGLE_UNIT() SI_UNIT($,.RADIAN.) );
#124 = ( NAMED_UNIT(*) SI_UNIT($,.STERADIAN.) SOLID_ANGLE_UNIT() );
#125 = UNCERTAINTY_MEASURE_WITH_UNIT(LENGTH_MEASURE(1.E-07),#122,
  'distance_accuracy_value','confusion accuracy');
#126 = PRODUCT_RELATED_PRODUCT_CATEGORY('part',$,(#7));
ENDSEC;
END-ISO-10303-21;
