ISO-10303-21;
HEADER;
FILE_DESCRIPTION(('Open CASCADE Model'),'2;1');
FILE_NAME('Open CASCADE Shape Model','2026-06-02T12:09:04',('Author'),(
    'Open CASCADE'),'Open CASCADE STEP processor 7.9','Open CASCADE 7.9'
  ,'Unknown');
FILE_SCHEMA(('AUTOMOTIVE_DESIGN { 1 0 10303 214 1 1 1 1 }'));
ENDSEC;
DATA;
#1 = APPLICATION_PROTOCOL_DEFINITION('international standard',
  'automotive_design',2000,#2);
#2 = APPLICATION_CONTEXT(
  'core data for automotive mechanical design processes');
#3 = SHAPE_DEFINITION_REPRESENTATION(#4,#10);
#4 = PRODUCT_DEFINITION_SHAPE('','',#5);
#5 = PRODUCT_DEFINITION('design','',#6,#9);
#6 = PRODUCT_DEFINITION_FORMATION('','',#7);
#7 = PRODUCT('Open CASCADE STEP translator 7.9 67',
  'Open CASCADE STEP translator 7.9 67','',(#8));
#8 = PRODUCT_CONTEXT('',#2,'mechanical');
#9 = PRODUCT_DEFINITION_CONTEXT('part definition',#2,'design');
#10 = MANIFOLD_SURFACE_SHAPE_REPRESENTATION('',(#11,#15),#121);
#11 = AXIS2_PLACEMENT_3D('',#12,#13,#14);
#12 = CARTESIAN_POINT('',(0.,0.,0.));
#13 = DIRECTION('',(0.,0.,1.));
#14 = DIRECTION('',(1.,0.,-0.));
#15 = SHELL_BASED_SURFACE_MODEL('',(#16));
#16 = OPEN_SHELL('',(#17));
#17 = ADVANCED_FACE('',(#18),#40,.T.);
#18 = FACE_BOUND('',#19,.T.);
#19 = EDGE_LOOP('',(#20,#59,#75,#107));
#20 = ORIENTED_EDGE('',*,*,#21,.T.);
#21 = EDGE_CURVE('',#22,#24,#26,.T.);
#22 = VERTEX_POINT('',#23);
#23 = CARTESIAN_POINT('',(0.,-6.145149691295,0.));
#24 = VERTEX_POINT('',#25);
#25 = CARTESIAN_POINT('',(1.5E+03,-12.92053465633,0.));
#26 = SURFACE_CURVE('',#27,(#39),.PCURVE_S1.);
#27 = B_SPLINE_CURVE_WITH_KNOTS('',1,(#28,#29,#30,#31,#32,#33,#34,#35,
    #36,#37,#38),.UNSPECIFIED.,.F.,.F.,(2,1,1,1,1,1,1,1,1,1,2),(0.,
    0.154306632573,0.18739761544,0.319153159818,0.469206622582,
    0.518787434082,0.655966940028,0.762668269238,0.811852584827,
    0.919416851393,1.),.UNSPECIFIED.);
#28 = CARTESIAN_POINT('',(0.,-6.145149691295,0.));
#29 = CARTESIAN_POINT('',(232.06927170778,0.511848315846,0.));
#30 = CARTESIAN_POINT('',(281.85052210705,1.307884262945,0.));
#31 = CARTESIAN_POINT('',(480.07447768696,3.409756283305,0.));
#32 = CARTESIAN_POINT('',(705.83880812476,4.15202911282,0.));
#33 = CARTESIAN_POINT('',(780.43108554073,3.254794749467,0.));
#34 = CARTESIAN_POINT('',(986.62827907527,12.307402942464,0.));
#35 = CARTESIAN_POINT('',(1.147167196943E+03,12.676917442187,0.));
#36 = CARTESIAN_POINT('',(1.218104448694E+03,-8.396095316169,0.));
#37 = CARTESIAN_POINT('',(1.379632030609E+03,1.617813212393,0.));
#38 = CARTESIAN_POINT('',(1.5E+03,-12.92053465633,0.));
#39 = PCURVE('',#40,#45);
#40 = PLANE('',#41);
#41 = AXIS2_PLACEMENT_3D('',#42,#43,#44);
#42 = CARTESIAN_POINT('',(754.26581183117,75.,0.));
#43 = DIRECTION('',(0.,0.,1.));
#44 = DIRECTION('',(1.,0.,-0.));
#45 = DEFINITIONAL_REPRESENTATION('',(#46),#58);
#46 = B_SPLINE_CURVE_WITH_KNOTS('',1,(#47,#48,#49,#50,#51,#52,#53,#54,
    #55,#56,#57),.UNSPECIFIED.,.F.,.F.,(2,1,1,1,1,1,1,1,1,1,2),(0.,
    0.154306632573,0.18739761544,0.319153159818,0.469206622582,
    0.518787434082,0.655966940028,0.762668269238,0.811852584827,
    0.919416851393,1.),.UNSPECIFIED.);
#47 = CARTESIAN_POINT('',(-754.2658118311,-81.14514969129));
#48 = CARTESIAN_POINT('',(-522.1965401233,-74.48815168415));
#49 = CARTESIAN_POINT('',(-472.4152897241,-73.69211573705));
#50 = CARTESIAN_POINT('',(-274.1913341442,-71.59024371669));
#51 = CARTESIAN_POINT('',(-48.4270037064,-70.84797088718));
#52 = CARTESIAN_POINT('',(26.165273709566,-71.74520525053));
#53 = CARTESIAN_POINT('',(232.3624672441,-62.69259705753));
#54 = CARTESIAN_POINT('',(392.90138511166,-62.32308255781));
#55 = CARTESIAN_POINT('',(463.83863686252,-83.39609531616));
#56 = CARTESIAN_POINT('',(625.36621877804,-73.3821867876));
#57 = CARTESIAN_POINT('',(745.73418816882,-87.92053465633));
#58 = ( GEOMETRIC_REPRESENTATION_CONTEXT(2) 
PARAMETRIC_REPRESENTATION_CONTEXT() REPRESENTATION_CONTEXT('2D SPACE',''
  ) );
#59 = ORIENTED_EDGE('',*,*,#60,.T.);
#60 = EDGE_CURVE('',#24,#61,#63,.T.);
#61 = VERTEX_POINT('',#62);
#62 = CARTESIAN_POINT('',(1.5E+03,162.92053465633,0.));
#63 = SURFACE_CURVE('',#64,(#68),.PCURVE_S1.);
#64 = LINE('',#65,#66);
#65 = CARTESIAN_POINT('',(1.5E+03,-12.92053465633,0.));
#66 = VECTOR('',#67,1.);
#67 = DIRECTION('',(0.,1.,0.));
#68 = PCURVE('',#40,#69);
#69 = DEFINITIONAL_REPRESENTATION('',(#70),#74);
#70 = LINE('',#71,#72);
#71 = CARTESIAN_POINT('',(745.73418816882,-87.92053465633));
#72 = VECTOR('',#73,1.);
#73 = DIRECTION('',(0.,1.));
#74 = ( GEOMETRIC_REPRESENTATION_CONTEXT(2) 
PARAMETRIC_REPRESENTATION_CONTEXT() REPRESENTATION_CONTEXT('2D SPACE',''
  ) );
#75 = ORIENTED_EDGE('',*,*,#76,.T.);
#76 = EDGE_CURVE('',#61,#77,#79,.T.);
#77 = VERTEX_POINT('',#78);
#78 = CARTESIAN_POINT('',(0.,156.14514969129,0.));
#79 = SURFACE_CURVE('',#80,(#92),.PCURVE_S1.);
#80 = B_SPLINE_CURVE_WITH_KNOTS('',1,(#81,#82,#83,#84,#85,#86,#87,#88,
    #89,#90,#91),.UNSPECIFIED.,.F.,.F.,(2,1,1,1,1,1,1,1,1,1,2),(0.,
    8.058314860715E-02,0.188147415173,0.237331730762,0.344033059972,
    0.481212565918,0.530793377418,0.680846840182,0.81260238456,
    0.845693367427,1.),.UNSPECIFIED.);
#81 = CARTESIAN_POINT('',(1.5E+03,162.92053465633,0.));
#82 = CARTESIAN_POINT('',(1.379632030609E+03,148.3821867876,0.));
#83 = CARTESIAN_POINT('',(1.218104448694E+03,158.39609531616,0.));
#84 = CARTESIAN_POINT('',(1.147167196943E+03,137.32308255781,0.));
#85 = CARTESIAN_POINT('',(986.62827907527,137.69259705753,0.));
#86 = CARTESIAN_POINT('',(780.43108554073,146.74520525053,0.));
#87 = CARTESIAN_POINT('',(705.83880812476,145.84797088718,0.));
#88 = CARTESIAN_POINT('',(480.07447768696,146.59024371669,0.));
#89 = CARTESIAN_POINT('',(281.85052210705,148.69211573705,0.));
#90 = CARTESIAN_POINT('',(232.06927170778,149.48815168415,0.));
#91 = CARTESIAN_POINT('',(0.,156.14514969129,0.));
#92 = PCURVE('',#40,#93);
#93 = DEFINITIONAL_REPRESENTATION('',(#94),#106);
#94 = B_SPLINE_CURVE_WITH_KNOTS('',1,(#95,#96,#97,#98,#99,#100,#101,#102
    ,#103,#104,#105),.UNSPECIFIED.,.F.,.F.,(2,1,1,1,1,1,1,1,1,1,2),(0.,
    8.058314860715E-02,0.188147415173,0.237331730762,0.344033059972,
    0.481212565918,0.530793377418,0.680846840182,0.81260238456,
    0.845693367427,1.),.UNSPECIFIED.);
#95 = CARTESIAN_POINT('',(745.73418816882,87.920534656339));
#96 = CARTESIAN_POINT('',(625.36621877804,73.382186787607));
#97 = CARTESIAN_POINT('',(463.83863686252,83.396095316169));
#98 = CARTESIAN_POINT('',(392.90138511166,62.323082557813));
#99 = CARTESIAN_POINT('',(232.3624672441,62.692597057536));
#100 = CARTESIAN_POINT('',(26.165273709566,71.745205250533));
#101 = CARTESIAN_POINT('',(-48.4270037064,70.84797088718));
#102 = CARTESIAN_POINT('',(-274.1913341442,71.590243716695));
#103 = CARTESIAN_POINT('',(-472.4152897241,73.692115737055));
#104 = CARTESIAN_POINT('',(-522.1965401233,74.488151684154));
#105 = CARTESIAN_POINT('',(-754.2658118311,81.145149691295));
#106 = ( GEOMETRIC_REPRESENTATION_CONTEXT(2) 
PARAMETRIC_REPRESENTATION_CONTEXT() REPRESENTATION_CONTEXT('2D SPACE',''
  ) );
#107 = ORIENTED_EDGE('',*,*,#108,.T.);
#108 = EDGE_CURVE('',#77,#22,#109,.T.);
#109 = SURFACE_CURVE('',#110,(#114),.PCURVE_S1.);
#110 = LINE('',#111,#112);
#111 = CARTESIAN_POINT('',(0.,156.14514969129,0.));
#112 = VECTOR('',#113,1.);
#113 = DIRECTION('',(0.,-1.,0.));
#114 = PCURVE('',#40,#115);
#115 = DEFINITIONAL_REPRESENTATION('',(#116),#120);
#116 = LINE('',#117,#118);
#117 = CARTESIAN_POINT('',(-754.2658118311,81.145149691295));
#118 = VECTOR('',#119,1.);
#119 = DIRECTION('',(0.,-1.));
#120 = ( GEOMETRIC_REPRESENTATION_CONTEXT(2) 
PARAMETRIC_REPRESENTATION_CONTEXT() REPRESENTATION_CONTEXT('2D SPACE',''
  ) );
#121 = ( GEOMETRIC_REPRESENTATION_CONTEXT(3) 
GLOBAL_UNCERTAINTY_ASSIGNED_CONTEXT((#125)) GLOBAL_UNIT_ASSIGNED_CONTEXT
((#122,#123,#124)) REPRESENTATION_CONTEXT('Context #1',
  '3D Context with UNIT and UNCERTAINTY') );
#122 = ( LENGTH_UNIT() NAMED_UNIT(*) SI_UNIT(.MILLI.,.METRE.) );
#123 = ( NAMED_UNIT(*) PLANE_ANGLE_UNIT() SI_UNIT($,.RADIAN.) );
#124 = ( NAMED_UNIT(*) SI_UNIT($,.STERADIAN.) SOLID_ANGLE_UNIT() );
#125 = UNCERTAINTY_MEASURE_WITH_UNIT(LENGTH_MEASURE(1.E-07),#122,
  'distance_accuracy_value','confusion accuracy');
#126 = PRODUCT_RELATED_PRODUCT_CATEGORY('part',$,(#7));
ENDSEC;
END-ISO-10303-21;
