ISO-10303-21;
HEADER;
FILE_DESCRIPTION(('Open CASCADE Model'),'2;1');
FILE_NAME('Open CASCADE Shape Model','2026-06-02T12:09:04',('Author'),(
    'Open CASCADE'),'Open CASCADE STEP processor 7.9','Open CASCADE 7.9'
  ,'Unknown');
FILE_SCHEMA(('AUTOMOTIVE_DESIGN { 1 0 10303 214 1 1 1 1 }'));
ENDSEC;
DATA;
#1 = APPLICATION_PROTOCOL_DEFINITION('international standard',
  'automotive_design',2000,#2);
#2 = APPLICATION_CONTEXT(
  'core data for automotive mechanical design processes');
#3 = SHAPE_DEFINITION_REPRESENTATION(#4,#10);
#4 = PRODUCT_DEFINITION_SHAPE('','',#5);
#5 = PRODUCT_DEFINITION('design','',#6,#9);
#6 = PRODUCT_DEFINITION_FORMATION('','',#7);
#7 = PRODUCT('Open CASCADE STEP translator 7.9 86',
  'Open CASCADE STEP translator 7.9 86','',(#8));
#8 = PRODUCT_CONTEXT('',#2,'mechanical');
#9 = PRODUCT_DEFINITION_CONTEXT('part definition',#2,'design');
#10 = MANIFOLD_SURFACE_SHAPE_REPRESENTATION('',(#11,#15),#121);
#11 = AXIS2_PLACEMENT_3D('',#12,#13,#14);
#12 = CARTESIAN_POINT('',(0.,0.,0.));
#13 = DIRECTION('',(0.,0.,1.));
#14 = DIRECTION('',(1.,0.,-0.));
#15 = SHELL_BASED_SURFACE_MODEL('',(#16));
#16 = OPEN_SHELL('',(#17));
#17 = ADVANCED_FACE('',(#18),#40,.T.);
#18 = FACE_BOUND('',#19,.T.);
#19 = EDGE_LOOP('',(#20,#59,#75,#107));
#20 = ORIENTED_EDGE('',*,*,#21,.T.);
#21 = EDGE_CURVE('',#22,#24,#26,.T.);
#22 = VERTEX_POINT('',#23);
#23 = CARTESIAN_POINT('',(0.,-0.859726143249,0.));
#24 = VERTEX_POINT('',#25);
#25 = CARTESIAN_POINT('',(1.5E+03,1.482706091974,0.));
#26 = SURFACE_CURVE('',#27,(#39),.PCURVE_S1.);
#27 = B_SPLINE_CURVE_WITH_KNOTS('',1,(#28,#29,#30,#31,#32,#33,#34,#35,
    #36,#37,#38),.UNSPECIFIED.,.F.,.F.,(2,1,1,1,1,1,1,1,1,1,2),(0.,
    0.162661735033,0.216975670348,0.400385174229,0.540590245446,
    0.601159484217,0.682930605225,0.754997906296,0.871534031196,
    0.940689700296,1.),.UNSPECIFIED.);
#28 = CARTESIAN_POINT('',(0.,-0.859726143249,0.));
#29 = CARTESIAN_POINT('',(244.81635216628,-3.059908905826,0.));
#30 = CARTESIAN_POINT('',(326.46445605477,-7.125454118932,0.));
#31 = CARTESIAN_POINT('',(601.79541259905,12.844489935413,0.));
#32 = CARTESIAN_POINT('',(812.4010751338,-0.470623155659,0.));
#33 = CARTESIAN_POINT('',(903.55961005693,0.552252323819,0.));
#34 = CARTESIAN_POINT('',(1.025925159501E+03,-12.65054952712,0.));
#35 = CARTESIAN_POINT('',(1.133632177105E+03,0.19480258691,0.));
#36 = CARTESIAN_POINT('',(1.30903198082E+03,0.95038395917,0.));
#37 = CARTESIAN_POINT('',(1.412059990287E+03,-13.86599965604,0.));
#38 = CARTESIAN_POINT('',(1.5E+03,1.482706091974,0.));
#39 = PCURVE('',#40,#45);
#40 = PLANE('',#41);
#41 = AXIS2_PLACEMENT_3D('',#42,#43,#44);
#42 = CARTESIAN_POINT('',(749.97372853712,75.,0.));
#43 = DIRECTION('',(0.,0.,1.));
#44 = DIRECTION('',(1.,0.,-0.));
#45 = DEFINITIONAL_REPRESENTATION('',(#46),#58);
#46 = B_SPLINE_CURVE_WITH_KNOTS('',1,(#47,#48,#49,#50,#51,#52,#53,#54,
    #55,#56,#57),.UNSPECIFIED.,.F.,.F.,(2,1,1,1,1,1,1,1,1,1,2),(0.,
    0.162661735033,0.216975670348,0.400385174229,0.540590245446,
    0.601159484217,0.682930605225,0.754997906296,0.871534031196,
    0.940689700296,1.),.UNSPECIFIED.);
#47 = CARTESIAN_POINT('',(-749.9737285371,-75.85972614324));
#48 = CARTESIAN_POINT('',(-505.1573763708,-78.05990890582));
#49 = CARTESIAN_POINT('',(-423.5092724823,-82.12545411893));
#50 = CARTESIAN_POINT('',(-148.178315938,-62.15551006458));
#51 = CARTESIAN_POINT('',(62.427346596679,-75.47062315565));
#52 = CARTESIAN_POINT('',(153.5858815198,-74.44774767618));
#53 = CARTESIAN_POINT('',(275.951430964,-87.65054952712));
#54 = CARTESIAN_POINT('',(383.65844856799,-74.80519741309));
#55 = CARTESIAN_POINT('',(559.05825228313,-74.04961604083));
#56 = CARTESIAN_POINT('',(662.0862617495,-88.86599965604));
#57 = CARTESIAN_POINT('',(750.02627146287,-73.51729390802));
#58 = ( GEOMETRIC_REPRESENTATION_CONTEXT(2) 
PARAMETRIC_REPRESENTATION_CONTEXT() REPRESENTATION_CONTEXT('2D SPACE',''
  ) );
#59 = ORIENTED_EDGE('',*,*,#60,.T.);
#60 = EDGE_CURVE('',#24,#61,#63,.T.);
#61 = VERTEX_POINT('',#62);
#62 = CARTESIAN_POINT('',(1.5E+03,148.51729390802,0.));
#63 = SURFACE_CURVE('',#64,(#68),.PCURVE_S1.);
#64 = LINE('',#65,#66);
#65 = CARTESIAN_POINT('',(1.5E+03,1.482706091974,0.));
#66 = VECTOR('',#67,1.);
#67 = DIRECTION('',(0.,1.,0.));
#68 = PCURVE('',#40,#69);
#69 = DEFINITIONAL_REPRESENTATION('',(#70),#74);
#70 = LINE('',#71,#72);
#71 = CARTESIAN_POINT('',(750.02627146287,-73.51729390802));
#72 = VECTOR('',#73,1.);
#73 = DIRECTION('',(0.,1.));
#74 = ( GEOMETRIC_REPRESENTATION_CONTEXT(2) 
PARAMETRIC_REPRESENTATION_CONTEXT() REPRESENTATION_CONTEXT('2D SPACE',''
  ) );
#75 = ORIENTED_EDGE('',*,*,#76,.T.);
#76 = EDGE_CURVE('',#61,#77,#79,.T.);
#77 = VERTEX_POINT('',#78);
#78 = CARTESIAN_POINT('',(0.,150.85972614324,0.));
#79 = SURFACE_CURVE('',#80,(#92),.PCURVE_S1.);
#80 = B_SPLINE_CURVE_WITH_KNOTS('',1,(#81,#82,#83,#84,#85,#86,#87,#88,
    #89,#90,#91),.UNSPECIFIED.,.F.,.F.,(2,1,1,1,1,1,1,1,1,1,2),(0.,
    5.931029970391E-02,0.128465968804,0.245002093704,0.317069394775,
    0.398840515783,0.459409754554,0.599614825771,0.783024329652,
    0.837338264967,1.),.UNSPECIFIED.);
#81 = CARTESIAN_POINT('',(1.5E+03,148.51729390802,0.));
#82 = CARTESIAN_POINT('',(1.412059990287E+03,163.86599965604,0.));
#83 = CARTESIAN_POINT('',(1.30903198082E+03,149.04961604083,0.));
#84 = CARTESIAN_POINT('',(1.133632177105E+03,149.80519741309,0.));
#85 = CARTESIAN_POINT('',(1.025925159501E+03,162.65054952712,0.));
#86 = CARTESIAN_POINT('',(903.55961005693,149.44774767618,0.));
#87 = CARTESIAN_POINT('',(812.4010751338,150.47062315565,0.));
#88 = CARTESIAN_POINT('',(601.79541259905,137.15551006458,0.));
#89 = CARTESIAN_POINT('',(326.46445605477,157.12545411893,0.));
#90 = CARTESIAN_POINT('',(244.81635216628,153.05990890582,0.));
#91 = CARTESIAN_POINT('',(0.,150.85972614324,0.));
#92 = PCURVE('',#40,#93);
#93 = DEFINITIONAL_REPRESENTATION('',(#94),#106);
#94 = B_SPLINE_CURVE_WITH_KNOTS('',1,(#95,#96,#97,#98,#99,#100,#101,#102
    ,#103,#104,#105),.UNSPECIFIED.,.F.,.F.,(2,1,1,1,1,1,1,1,1,1,2),(0.,
    5.931029970391E-02,0.128465968804,0.245002093704,0.317069394775,
    0.398840515783,0.459409754554,0.599614825771,0.783024329652,
    0.837338264967,1.),.UNSPECIFIED.);
#95 = CARTESIAN_POINT('',(750.02627146287,73.517293908026));
#96 = CARTESIAN_POINT('',(662.0862617495,88.865999656041));
#97 = CARTESIAN_POINT('',(559.05825228313,74.04961604083));
#98 = CARTESIAN_POINT('',(383.65844856799,74.80519741309));
#99 = CARTESIAN_POINT('',(275.951430964,87.650549527127));
#100 = CARTESIAN_POINT('',(153.5858815198,74.447747676181));
#101 = CARTESIAN_POINT('',(62.427346596679,75.470623155659));
#102 = CARTESIAN_POINT('',(-148.178315938,62.155510064587));
#103 = CARTESIAN_POINT('',(-423.5092724823,82.125454118932));
#104 = CARTESIAN_POINT('',(-505.1573763708,78.059908905826));
#105 = CARTESIAN_POINT('',(-749.9737285371,75.859726143249));
#106 = ( GEOMETRIC_REPRESENTATION_CONTEXT(2) 
PARAMETRIC_REPRESENTATION_CONTEXT() REPRESENTATION_CONTEXT('2D SPACE',''
  ) );
#107 = ORIENTED_EDGE('',*,*,#108,.T.);
#108 = EDGE_CURVE('',#77,#22,#109,.T.);
#109 = SURFACE_CURVE('',#110,(#114),.PCURVE_S1.);
#110 = LINE('',#111,#112);
#111 = CARTESIAN_POINT('',(0.,150.85972614324,0.));
#112 = VECTOR('',#113,1.);
#113 = DIRECTION('',(0.,-1.,0.));
#114 = PCURVE('',#40,#115);
#115 = DEFINITIONAL_REPRESENTATION('',(#116),#120);
#116 = LINE('',#117,#118);
#117 = CARTESIAN_POINT('',(-749.9737285371,75.859726143249));
#118 = VECTOR('',#119,1.);
#119 = DIRECTION('',(0.,-1.));
#120 = ( GEOMETRIC_REPRESENTATION_CONTEXT(2) 
PARAMETRIC_REPRESENTATION_CONTEXT() REPRESENTATION_CONTEXT('2D SPACE',''
  ) );
#121 = ( GEOMETRIC_REPRESENTATION_CONTEXT(3) 
GLOBAL_UNCERTAINTY_ASSIGNED_CONTEXT((#125)) GLOBAL_UNIT_ASSIGNED_CONTEXT
((#122,#123,#124)) REPRESENTATION_CONTEXT('Context #1',
  '3D Context with UNIT and UNCERTAINTY') );
#122 = ( LENGTH_UNIT() NAMED_UNIT(*) SI_UNIT(.MILLI.,.METRE.) );
#123 = ( NAMED_UNIT(*) PLANE_ANGLE_UNIT() SI_UNIT($,.RADIAN.) );
#124 = ( NAMED_UNIT(*) SI_UNIT($,.STERADIAN.) SOLID_ANGLE_UNIT() );
#125 = UNCERTAINTY_MEASURE_WITH_UNIT(LENGTH_MEASURE(1.E-07),#122,
  'distance_accuracy_value','confusion accuracy');
#126 = PRODUCT_RELATED_PRODUCT_CATEGORY('part',$,(#7));
ENDSEC;
END-ISO-10303-21;
