ISO-10303-21;
HEADER;
FILE_DESCRIPTION(('Open CASCADE Model'),'2;1');
FILE_NAME('Open CASCADE Shape Model','2026-06-02T12:09:04',('Author'),(
    'Open CASCADE'),'Open CASCADE STEP processor 7.9','Open CASCADE 7.9'
  ,'Unknown');
FILE_SCHEMA(('AUTOMOTIVE_DESIGN { 1 0 10303 214 1 1 1 1 }'));
ENDSEC;
DATA;
#1 = APPLICATION_PROTOCOL_DEFINITION('international standard',
  'automotive_design',2000,#2);
#2 = APPLICATION_CONTEXT(
  'core data for automotive mechanical design processes');
#3 = SHAPE_DEFINITION_REPRESENTATION(#4,#10);
#4 = PRODUCT_DEFINITION_SHAPE('','',#5);
#5 = PRODUCT_DEFINITION('design','',#6,#9);
#6 = PRODUCT_DEFINITION_FORMATION('','',#7);
#7 = PRODUCT('Open CASCADE STEP translator 7.9 41',
  'Open CASCADE STEP translator 7.9 41','',(#8));
#8 = PRODUCT_CONTEXT('',#2,'mechanical');
#9 = PRODUCT_DEFINITION_CONTEXT('part definition',#2,'design');
#10 = MANIFOLD_SURFACE_SHAPE_REPRESENTATION('',(#11,#15),#121);
#11 = AXIS2_PLACEMENT_3D('',#12,#13,#14);
#12 = CARTESIAN_POINT('',(0.,0.,0.));
#13 = DIRECTION('',(0.,0.,1.));
#14 = DIRECTION('',(1.,0.,-0.));
#15 = SHELL_BASED_SURFACE_MODEL('',(#16));
#16 = OPEN_SHELL('',(#17));
#17 = ADVANCED_FACE('',(#18),#40,.T.);
#18 = FACE_BOUND('',#19,.T.);
#19 = EDGE_LOOP('',(#20,#59,#75,#107));
#20 = ORIENTED_EDGE('',*,*,#21,.T.);
#21 = EDGE_CURVE('',#22,#24,#26,.T.);
#22 = VERTEX_POINT('',#23);
#23 = CARTESIAN_POINT('',(0.,-8.94292307455,0.));
#24 = VERTEX_POINT('',#25);
#25 = CARTESIAN_POINT('',(1.5E+03,5.42602534201,0.));
#26 = SURFACE_CURVE('',#27,(#39),.PCURVE_S1.);
#27 = B_SPLINE_CURVE_WITH_KNOTS('',1,(#28,#29,#30,#31,#32,#33,#34,#35,
    #36,#37,#38),.UNSPECIFIED.,.F.,.F.,(2,1,1,1,1,1,1,1,1,1,2),(0.,
    0.140389501583,0.165940568554,0.273514064535,0.46331785682,
    0.538868051261,0.672551615508,0.718186243283,0.749852897307,
    0.937780977572,1.),.UNSPECIFIED.);
#28 = CARTESIAN_POINT('',(0.,-8.94292307455,0.));
#29 = CARTESIAN_POINT('',(210.77003924546,12.004125685178,0.));
#30 = CARTESIAN_POINT('',(249.19165918231,8.868078987557,0.));
#31 = CARTESIAN_POINT('',(410.68174976492,-7.30801095323,0.));
#32 = CARTESIAN_POINT('',(696.22558540486,14.305797162542,0.));
#33 = CARTESIAN_POINT('',(806.54183921435,-14.37673901121,0.));
#34 = CARTESIAN_POINT('',(1.007422421768E+03,3.68565958933,0.));
#35 = CARTESIAN_POINT('',(1.075502750592E+03,-6.579376010725,0.));
#36 = CARTESIAN_POINT('',(1.123011441215E+03,-11.62713265464,0.));
#37 = CARTESIAN_POINT('',(1.406156276613E+03,3.161103355498,0.));
#38 = CARTESIAN_POINT('',(1.5E+03,5.42602534201,0.));
#39 = PCURVE('',#40,#45);
#40 = PLANE('',#41);
#41 = AXIS2_PLACEMENT_3D('',#42,#43,#44);
#42 = CARTESIAN_POINT('',(743.17502553437,75.,0.));
#43 = DIRECTION('',(0.,0.,1.));
#44 = DIRECTION('',(1.,0.,-0.));
#45 = DEFINITIONAL_REPRESENTATION('',(#46),#58);
#46 = B_SPLINE_CURVE_WITH_KNOTS('',1,(#47,#48,#49,#50,#51,#52,#53,#54,
    #55,#56,#57),.UNSPECIFIED.,.F.,.F.,(2,1,1,1,1,1,1,1,1,1,2),(0.,
    0.140389501583,0.165940568554,0.273514064535,0.46331785682,
    0.538868051261,0.672551615508,0.718186243283,0.749852897307,
    0.937780977572,1.),.UNSPECIFIED.);
#47 = CARTESIAN_POINT('',(-743.1750255343,-83.94292307455));
#48 = CARTESIAN_POINT('',(-532.4049862889,-62.99587431482));
#49 = CARTESIAN_POINT('',(-493.983366352,-66.13192101244));
#50 = CARTESIAN_POINT('',(-332.4932757694,-82.30801095323));
#51 = CARTESIAN_POINT('',(-46.94944012951,-60.69420283745));
#52 = CARTESIAN_POINT('',(63.366813679978,-89.37673901121));
#53 = CARTESIAN_POINT('',(264.24739623361,-71.31434041067));
#54 = CARTESIAN_POINT('',(332.32772505718,-81.57937601072));
#55 = CARTESIAN_POINT('',(379.83641568023,-86.62713265464));
#56 = CARTESIAN_POINT('',(662.98125107859,-71.8388966445));
#57 = CARTESIAN_POINT('',(756.82497446562,-69.57397465799));
#58 = ( GEOMETRIC_REPRESENTATION_CONTEXT(2) 
PARAMETRIC_REPRESENTATION_CONTEXT() REPRESENTATION_CONTEXT('2D SPACE',''
  ) );
#59 = ORIENTED_EDGE('',*,*,#60,.T.);
#60 = EDGE_CURVE('',#24,#61,#63,.T.);
#61 = VERTEX_POINT('',#62);
#62 = CARTESIAN_POINT('',(1.5E+03,144.57397465799,0.));
#63 = SURFACE_CURVE('',#64,(#68),.PCURVE_S1.);
#64 = LINE('',#65,#66);
#65 = CARTESIAN_POINT('',(1.5E+03,5.42602534201,0.));
#66 = VECTOR('',#67,1.);
#67 = DIRECTION('',(0.,1.,0.));
#68 = PCURVE('',#40,#69);
#69 = DEFINITIONAL_REPRESENTATION('',(#70),#74);
#70 = LINE('',#71,#72);
#71 = CARTESIAN_POINT('',(756.82497446562,-69.57397465799));
#72 = VECTOR('',#73,1.);
#73 = DIRECTION('',(0.,1.));
#74 = ( GEOMETRIC_REPRESENTATION_CONTEXT(2) 
PARAMETRIC_REPRESENTATION_CONTEXT() REPRESENTATION_CONTEXT('2D SPACE',''
  ) );
#75 = ORIENTED_EDGE('',*,*,#76,.T.);
#76 = EDGE_CURVE('',#61,#77,#79,.T.);
#77 = VERTEX_POINT('',#78);
#78 = CARTESIAN_POINT('',(0.,158.94292307455,0.));
#79 = SURFACE_CURVE('',#80,(#92),.PCURVE_S1.);
#80 = B_SPLINE_CURVE_WITH_KNOTS('',1,(#81,#82,#83,#84,#85,#86,#87,#88,
    #89,#90,#91),.UNSPECIFIED.,.F.,.F.,(2,1,1,1,1,1,1,1,1,1,2),(0.,
    6.221902242791E-02,0.250147102693,0.281813756717,0.327448384492,
    0.461131948739,0.53668214318,0.726485935465,0.834059431446,
    0.859610498417,1.),.UNSPECIFIED.);
#81 = CARTESIAN_POINT('',(1.5E+03,144.57397465799,0.));
#82 = CARTESIAN_POINT('',(1.406156276613E+03,146.8388966445,0.));
#83 = CARTESIAN_POINT('',(1.123011441215E+03,161.62713265464,0.));
#84 = CARTESIAN_POINT('',(1.075502750592E+03,156.57937601072,0.));
#85 = CARTESIAN_POINT('',(1.007422421768E+03,146.31434041067,0.));
#86 = CARTESIAN_POINT('',(806.54183921435,164.37673901121,0.));
#87 = CARTESIAN_POINT('',(696.22558540486,135.69420283745,0.));
#88 = CARTESIAN_POINT('',(410.68174976492,157.30801095323,0.));
#89 = CARTESIAN_POINT('',(249.19165918231,141.13192101244,0.));
#90 = CARTESIAN_POINT('',(210.77003924546,137.99587431482,0.));
#91 = CARTESIAN_POINT('',(0.,158.94292307455,0.));
#92 = PCURVE('',#40,#93);
#93 = DEFINITIONAL_REPRESENTATION('',(#94),#106);
#94 = B_SPLINE_CURVE_WITH_KNOTS('',1,(#95,#96,#97,#98,#99,#100,#101,#102
    ,#103,#104,#105),.UNSPECIFIED.,.F.,.F.,(2,1,1,1,1,1,1,1,1,1,2),(0.,
    6.221902242791E-02,0.250147102693,0.281813756717,0.327448384492,
    0.461131948739,0.53668214318,0.726485935465,0.834059431446,
    0.859610498417,1.),.UNSPECIFIED.);
#95 = CARTESIAN_POINT('',(756.82497446562,69.57397465799));
#96 = CARTESIAN_POINT('',(662.98125107859,71.838896644502));
#97 = CARTESIAN_POINT('',(379.83641568023,86.627132654641));
#98 = CARTESIAN_POINT('',(332.32772505718,81.579376010725));
#99 = CARTESIAN_POINT('',(264.24739623361,71.31434041067));
#100 = CARTESIAN_POINT('',(63.366813679978,89.376739011218));
#101 = CARTESIAN_POINT('',(-46.94944012951,60.694202837458));
#102 = CARTESIAN_POINT('',(-332.4932757694,82.30801095323));
#103 = CARTESIAN_POINT('',(-493.983366352,66.131921012443));
#104 = CARTESIAN_POINT('',(-532.4049862889,62.995874314822));
#105 = CARTESIAN_POINT('',(-743.1750255343,83.94292307455));
#106 = ( GEOMETRIC_REPRESENTATION_CONTEXT(2) 
PARAMETRIC_REPRESENTATION_CONTEXT() REPRESENTATION_CONTEXT('2D SPACE',''
  ) );
#107 = ORIENTED_EDGE('',*,*,#108,.T.);
#108 = EDGE_CURVE('',#77,#22,#109,.T.);
#109 = SURFACE_CURVE('',#110,(#114),.PCURVE_S1.);
#110 = LINE('',#111,#112);
#111 = CARTESIAN_POINT('',(0.,158.94292307455,0.));
#112 = VECTOR('',#113,1.);
#113 = DIRECTION('',(0.,-1.,0.));
#114 = PCURVE('',#40,#115);
#115 = DEFINITIONAL_REPRESENTATION('',(#116),#120);
#116 = LINE('',#117,#118);
#117 = CARTESIAN_POINT('',(-743.1750255343,83.94292307455));
#118 = VECTOR('',#119,1.);
#119 = DIRECTION('',(0.,-1.));
#120 = ( GEOMETRIC_REPRESENTATION_CONTEXT(2) 
PARAMETRIC_REPRESENTATION_CONTEXT() REPRESENTATION_CONTEXT('2D SPACE',''
  ) );
#121 = ( GEOMETRIC_REPRESENTATION_CONTEXT(3) 
GLOBAL_UNCERTAINTY_ASSIGNED_CONTEXT((#125)) GLOBAL_UNIT_ASSIGNED_CONTEXT
((#122,#123,#124)) REPRESENTATION_CONTEXT('Context #1',
  '3D Context with UNIT and UNCERTAINTY') );
#122 = ( LENGTH_UNIT() NAMED_UNIT(*) SI_UNIT(.MILLI.,.METRE.) );
#123 = ( NAMED_UNIT(*) PLANE_ANGLE_UNIT() SI_UNIT($,.RADIAN.) );
#124 = ( NAMED_UNIT(*) SI_UNIT($,.STERADIAN.) SOLID_ANGLE_UNIT() );
#125 = UNCERTAINTY_MEASURE_WITH_UNIT(LENGTH_MEASURE(1.E-07),#122,
  'distance_accuracy_value','confusion accuracy');
#126 = PRODUCT_RELATED_PRODUCT_CATEGORY('part',$,(#7));
ENDSEC;
END-ISO-10303-21;
