ISO-10303-21;
HEADER;
FILE_DESCRIPTION(('Open CASCADE Model'),'2;1');
FILE_NAME('Open CASCADE Shape Model','2026-06-02T12:09:04',('Author'),(
    'Open CASCADE'),'Open CASCADE STEP processor 7.9','Open CASCADE 7.9'
  ,'Unknown');
FILE_SCHEMA(('AUTOMOTIVE_DESIGN { 1 0 10303 214 1 1 1 1 }'));
ENDSEC;
DATA;
#1 = APPLICATION_PROTOCOL_DEFINITION('international standard',
  'automotive_design',2000,#2);
#2 = APPLICATION_CONTEXT(
  'core data for automotive mechanical design processes');
#3 = SHAPE_DEFINITION_REPRESENTATION(#4,#10);
#4 = PRODUCT_DEFINITION_SHAPE('','',#5);
#5 = PRODUCT_DEFINITION('design','',#6,#9);
#6 = PRODUCT_DEFINITION_FORMATION('','',#7);
#7 = PRODUCT('Open CASCADE STEP translator 7.9 94',
  'Open CASCADE STEP translator 7.9 94','',(#8));
#8 = PRODUCT_CONTEXT('',#2,'mechanical');
#9 = PRODUCT_DEFINITION_CONTEXT('part definition',#2,'design');
#10 = MANIFOLD_SURFACE_SHAPE_REPRESENTATION('',(#11,#15),#121);
#11 = AXIS2_PLACEMENT_3D('',#12,#13,#14);
#12 = CARTESIAN_POINT('',(0.,0.,0.));
#13 = DIRECTION('',(0.,0.,1.));
#14 = DIRECTION('',(1.,0.,-0.));
#15 = SHELL_BASED_SURFACE_MODEL('',(#16));
#16 = OPEN_SHELL('',(#17));
#17 = ADVANCED_FACE('',(#18),#40,.T.);
#18 = FACE_BOUND('',#19,.T.);
#19 = EDGE_LOOP('',(#20,#59,#75,#107));
#20 = ORIENTED_EDGE('',*,*,#21,.T.);
#21 = EDGE_CURVE('',#22,#24,#26,.T.);
#22 = VERTEX_POINT('',#23);
#23 = CARTESIAN_POINT('',(0.,0.740831463492,0.));
#24 = VERTEX_POINT('',#25);
#25 = CARTESIAN_POINT('',(1.5E+03,11.523034040423,0.));
#26 = SURFACE_CURVE('',#27,(#39),.PCURVE_S1.);
#27 = B_SPLINE_CURVE_WITH_KNOTS('',1,(#28,#29,#30,#31,#32,#33,#34,#35,
    #36,#37,#38),.UNSPECIFIED.,.F.,.F.,(2,1,1,1,1,1,1,1,1,1,2),(0.,
    0.228511508558,0.385723058553,0.414205815507,0.533210960708,
    0.63321298611,0.719703290867,0.747979948649,0.861432724636,
    0.950922005915,1.),.UNSPECIFIED.);
#28 = CARTESIAN_POINT('',(0.,0.740831463492,0.));
#29 = CARTESIAN_POINT('',(344.10924814285,-7.613120389319,0.));
#30 = CARTESIAN_POINT('',(580.5018638148,6.446327987544,0.));
#31 = CARTESIAN_POINT('',(623.37975821744,4.948593674846,0.));
#32 = CARTESIAN_POINT('',(801.98335470419,-10.3709820194,0.));
#33 = CARTESIAN_POINT('',(952.30095449684,-0.602157367845,0.));
#34 = CARTESIAN_POINT('',(1.082222623508E+03,-10.28195906419,0.));
#35 = CARTESIAN_POINT('',(1.123122936749E+03,1.608315235689,0.));
#36 = CARTESIAN_POINT('',(1.293341623494E+03,-13.5892548468,0.));
#37 = CARTESIAN_POINT('',(1.427835621506E+03,-4.523837691532,0.));
#38 = CARTESIAN_POINT('',(1.5E+03,11.523034040423,0.));
#39 = PCURVE('',#40,#45);
#40 = PLANE('',#41);
#41 = AXIS2_PLACEMENT_3D('',#42,#43,#44);
#42 = CARTESIAN_POINT('',(746.46904207883,75.,0.));
#43 = DIRECTION('',(0.,0.,1.));
#44 = DIRECTION('',(1.,0.,-0.));
#45 = DEFINITIONAL_REPRESENTATION('',(#46),#58);
#46 = B_SPLINE_CURVE_WITH_KNOTS('',1,(#47,#48,#49,#50,#51,#52,#53,#54,
    #55,#56,#57),.UNSPECIFIED.,.F.,.F.,(2,1,1,1,1,1,1,1,1,1,2),(0.,
    0.228511508558,0.385723058553,0.414205815507,0.533210960708,
    0.63321298611,0.719703290867,0.747979948649,0.861432724636,
    0.950922005915,1.),.UNSPECIFIED.);
#47 = CARTESIAN_POINT('',(-746.4690420788,-74.2591685365));
#48 = CARTESIAN_POINT('',(-402.3597939359,-82.61312038931));
#49 = CARTESIAN_POINT('',(-165.967178264,-68.55367201245));
#50 = CARTESIAN_POINT('',(-123.0892838613,-70.05140632515));
#51 = CARTESIAN_POINT('',(55.514312625355,-85.3709820194));
#52 = CARTESIAN_POINT('',(205.831912418,-75.60215736784));
#53 = CARTESIAN_POINT('',(335.75358142921,-85.28195906419));
#54 = CARTESIAN_POINT('',(376.65389466998,-73.39168476431));
#55 = CARTESIAN_POINT('',(546.87258141494,-88.5892548468));
#56 = CARTESIAN_POINT('',(681.36657942696,-79.52383769153));
#57 = CARTESIAN_POINT('',(753.53095792116,-63.47696595957));
#58 = ( GEOMETRIC_REPRESENTATION_CONTEXT(2) 
PARAMETRIC_REPRESENTATION_CONTEXT() REPRESENTATION_CONTEXT('2D SPACE',''
  ) );
#59 = ORIENTED_EDGE('',*,*,#60,.T.);
#60 = EDGE_CURVE('',#24,#61,#63,.T.);
#61 = VERTEX_POINT('',#62);
#62 = CARTESIAN_POINT('',(1.5E+03,138.47696595957,0.));
#63 = SURFACE_CURVE('',#64,(#68),.PCURVE_S1.);
#64 = LINE('',#65,#66);
#65 = CARTESIAN_POINT('',(1.5E+03,11.523034040423,0.));
#66 = VECTOR('',#67,1.);
#67 = DIRECTION('',(0.,1.,0.));
#68 = PCURVE('',#40,#69);
#69 = DEFINITIONAL_REPRESENTATION('',(#70),#74);
#70 = LINE('',#71,#72);
#71 = CARTESIAN_POINT('',(753.53095792116,-63.47696595957));
#72 = VECTOR('',#73,1.);
#73 = DIRECTION('',(0.,1.));
#74 = ( GEOMETRIC_REPRESENTATION_CONTEXT(2) 
PARAMETRIC_REPRESENTATION_CONTEXT() REPRESENTATION_CONTEXT('2D SPACE',''
  ) );
#75 = ORIENTED_EDGE('',*,*,#76,.T.);
#76 = EDGE_CURVE('',#61,#77,#79,.T.);
#77 = VERTEX_POINT('',#78);
#78 = CARTESIAN_POINT('',(0.,149.2591685365,0.));
#79 = SURFACE_CURVE('',#80,(#92),.PCURVE_S1.);
#80 = B_SPLINE_CURVE_WITH_KNOTS('',1,(#81,#82,#83,#84,#85,#86,#87,#88,
    #89,#90,#91),.UNSPECIFIED.,.F.,.F.,(2,1,1,1,1,1,1,1,1,1,2),(0.,
    4.907799408476E-02,0.138567275364,0.252020051351,0.280296709133,
    0.36678701389,0.466789039292,0.585794184493,0.614276941447,
    0.771488491442,1.),.UNSPECIFIED.);
#81 = CARTESIAN_POINT('',(1.5E+03,138.47696595957,0.));
#82 = CARTESIAN_POINT('',(1.427835621506E+03,154.52383769153,0.));
#83 = CARTESIAN_POINT('',(1.293341623494E+03,163.5892548468,0.));
#84 = CARTESIAN_POINT('',(1.123122936749E+03,148.39168476431,0.));
#85 = CARTESIAN_POINT('',(1.082222623508E+03,160.28195906419,0.));
#86 = CARTESIAN_POINT('',(952.30095449684,150.60215736784,0.));
#87 = CARTESIAN_POINT('',(801.98335470419,160.3709820194,0.));
#88 = CARTESIAN_POINT('',(623.37975821744,145.05140632515,0.));
#89 = CARTESIAN_POINT('',(580.5018638148,143.55367201245,0.));
#90 = CARTESIAN_POINT('',(344.10924814285,157.61312038931,0.));
#91 = CARTESIAN_POINT('',(0.,149.2591685365,0.));
#92 = PCURVE('',#40,#93);
#93 = DEFINITIONAL_REPRESENTATION('',(#94),#106);
#94 = B_SPLINE_CURVE_WITH_KNOTS('',1,(#95,#96,#97,#98,#99,#100,#101,#102
    ,#103,#104,#105),.UNSPECIFIED.,.F.,.F.,(2,1,1,1,1,1,1,1,1,1,2),(0.,
    4.907799408476E-02,0.138567275364,0.252020051351,0.280296709133,
    0.36678701389,0.466789039292,0.585794184493,0.614276941447,
    0.771488491442,1.),.UNSPECIFIED.);
#95 = CARTESIAN_POINT('',(753.53095792116,63.476965959578));
#96 = CARTESIAN_POINT('',(681.36657942696,79.523837691532));
#97 = CARTESIAN_POINT('',(546.87258141494,88.589254846803));
#98 = CARTESIAN_POINT('',(376.65389466998,73.391684764311));
#99 = CARTESIAN_POINT('',(335.75358142921,85.281959064194));
#100 = CARTESIAN_POINT('',(205.831912418,75.602157367845));
#101 = CARTESIAN_POINT('',(55.514312625355,85.370982019409));
#102 = CARTESIAN_POINT('',(-123.0892838613,70.051406325154));
#103 = CARTESIAN_POINT('',(-165.967178264,68.553672012456));
#104 = CARTESIAN_POINT('',(-402.3597939359,82.613120389319));
#105 = CARTESIAN_POINT('',(-746.4690420788,74.259168536508));
#106 = ( GEOMETRIC_REPRESENTATION_CONTEXT(2) 
PARAMETRIC_REPRESENTATION_CONTEXT() REPRESENTATION_CONTEXT('2D SPACE',''
  ) );
#107 = ORIENTED_EDGE('',*,*,#108,.T.);
#108 = EDGE_CURVE('',#77,#22,#109,.T.);
#109 = SURFACE_CURVE('',#110,(#114),.PCURVE_S1.);
#110 = LINE('',#111,#112);
#111 = CARTESIAN_POINT('',(0.,149.2591685365,0.));
#112 = VECTOR('',#113,1.);
#113 = DIRECTION('',(0.,-1.,0.));
#114 = PCURVE('',#40,#115);
#115 = DEFINITIONAL_REPRESENTATION('',(#116),#120);
#116 = LINE('',#117,#118);
#117 = CARTESIAN_POINT('',(-746.4690420788,74.259168536508));
#118 = VECTOR('',#119,1.);
#119 = DIRECTION('',(0.,-1.));
#120 = ( GEOMETRIC_REPRESENTATION_CONTEXT(2) 
PARAMETRIC_REPRESENTATION_CONTEXT() REPRESENTATION_CONTEXT('2D SPACE',''
  ) );
#121 = ( GEOMETRIC_REPRESENTATION_CONTEXT(3) 
GLOBAL_UNCERTAINTY_ASSIGNED_CONTEXT((#125)) GLOBAL_UNIT_ASSIGNED_CONTEXT
((#122,#123,#124)) REPRESENTATION_CONTEXT('Context #1',
  '3D Context with UNIT and UNCERTAINTY') );
#122 = ( LENGTH_UNIT() NAMED_UNIT(*) SI_UNIT(.MILLI.,.METRE.) );
#123 = ( NAMED_UNIT(*) PLANE_ANGLE_UNIT() SI_UNIT($,.RADIAN.) );
#124 = ( NAMED_UNIT(*) SI_UNIT($,.STERADIAN.) SOLID_ANGLE_UNIT() );
#125 = UNCERTAINTY_MEASURE_WITH_UNIT(LENGTH_MEASURE(1.E-07),#122,
  'distance_accuracy_value','confusion accuracy');
#126 = PRODUCT_RELATED_PRODUCT_CATEGORY('part',$,(#7));
ENDSEC;
END-ISO-10303-21;
