ISO-10303-21;
HEADER;
FILE_DESCRIPTION(('Open CASCADE Model'),'2;1');
FILE_NAME('Open CASCADE Shape Model','2026-06-02T12:09:04',('Author'),(
    'Open CASCADE'),'Open CASCADE STEP processor 7.9','Open CASCADE 7.9'
  ,'Unknown');
FILE_SCHEMA(('AUTOMOTIVE_DESIGN { 1 0 10303 214 1 1 1 1 }'));
ENDSEC;
DATA;
#1 = APPLICATION_PROTOCOL_DEFINITION('international standard',
  'automotive_design',2000,#2);
#2 = APPLICATION_CONTEXT(
  'core data for automotive mechanical design processes');
#3 = SHAPE_DEFINITION_REPRESENTATION(#4,#10);
#4 = PRODUCT_DEFINITION_SHAPE('','',#5);
#5 = PRODUCT_DEFINITION('design','',#6,#9);
#6 = PRODUCT_DEFINITION_FORMATION('','',#7);
#7 = PRODUCT('Open CASCADE STEP translator 7.9 14',
  'Open CASCADE STEP translator 7.9 14','',(#8));
#8 = PRODUCT_CONTEXT('',#2,'mechanical');
#9 = PRODUCT_DEFINITION_CONTEXT('part definition',#2,'design');
#10 = MANIFOLD_SURFACE_SHAPE_REPRESENTATION('',(#11,#15),#121);
#11 = AXIS2_PLACEMENT_3D('',#12,#13,#14);
#12 = CARTESIAN_POINT('',(0.,0.,0.));
#13 = DIRECTION('',(0.,0.,1.));
#14 = DIRECTION('',(1.,0.,-0.));
#15 = SHELL_BASED_SURFACE_MODEL('',(#16));
#16 = OPEN_SHELL('',(#17));
#17 = ADVANCED_FACE('',(#18),#40,.T.);
#18 = FACE_BOUND('',#19,.T.);
#19 = EDGE_LOOP('',(#20,#59,#75,#107));
#20 = ORIENTED_EDGE('',*,*,#21,.T.);
#21 = EDGE_CURVE('',#22,#24,#26,.T.);
#22 = VERTEX_POINT('',#23);
#23 = CARTESIAN_POINT('',(0.,2.512127228904,0.));
#24 = VERTEX_POINT('',#25);
#25 = CARTESIAN_POINT('',(1.5E+03,-12.07959431782,0.));
#26 = SURFACE_CURVE('',#27,(#39),.PCURVE_S1.);
#27 = B_SPLINE_CURVE_WITH_KNOTS('',1,(#28,#29,#30,#31,#32,#33,#34,#35,
    #36,#37,#38),.UNSPECIFIED.,.F.,.F.,(2,1,1,1,1,1,1,1,1,1,2),(0.,
    0.105910742073,0.233613500557,0.275743903164,0.65952840818,
    0.748256258269,0.781152835677,0.818476219266,0.901393723491,
    0.939781199472,1.),.UNSPECIFIED.);
#28 = CARTESIAN_POINT('',(0.,2.512127228904,0.));
#29 = CARTESIAN_POINT('',(160.80356637041,13.522376402172,0.));
#30 = CARTESIAN_POINT('',(354.90400468912,3.791575846213,0.));
#31 = CARTESIAN_POINT('',(418.86167339931,-0.712588461529,0.));
#32 = CARTESIAN_POINT('',(1.002786119817E+03,11.949842912889,0.));
#33 = CARTESIAN_POINT('',(1.136019840434E+03,-10.00375661365,0.));
#34 = CARTESIAN_POINT('',(1.180254443287E+03,13.441144006047,0.));
#35 = CARTESIAN_POINT('',(1.230658526499E+03,-12.74525607054,0.));
#36 = CARTESIAN_POINT('',(1.354391010444E+03,12.026605752604,0.));
#37 = CARTESIAN_POINT('',(1.408373272059E+03,-10.30724854793,0.));
#38 = CARTESIAN_POINT('',(1.5E+03,-12.07959431782,0.));
#39 = PCURVE('',#40,#45);
#40 = PLANE('',#41);
#41 = AXIS2_PLACEMENT_3D('',#42,#43,#44);
#42 = CARTESIAN_POINT('',(762.20459957689,75.,0.));
#43 = DIRECTION('',(0.,0.,1.));
#44 = DIRECTION('',(1.,0.,-0.));
#45 = DEFINITIONAL_REPRESENTATION('',(#46),#58);
#46 = B_SPLINE_CURVE_WITH_KNOTS('',1,(#47,#48,#49,#50,#51,#52,#53,#54,
    #55,#56,#57),.UNSPECIFIED.,.F.,.F.,(2,1,1,1,1,1,1,1,1,1,2),(0.,
    0.105910742073,0.233613500557,0.275743903164,0.65952840818,
    0.748256258269,0.781152835677,0.818476219266,0.901393723491,
    0.939781199472,1.),.UNSPECIFIED.);
#47 = CARTESIAN_POINT('',(-762.2045995768,-72.48787277109));
#48 = CARTESIAN_POINT('',(-601.4010332064,-61.47762359782));
#49 = CARTESIAN_POINT('',(-407.3005948877,-71.20842415378));
#50 = CARTESIAN_POINT('',(-343.3429261775,-75.71258846152));
#51 = CARTESIAN_POINT('',(240.58152024045,-63.05015708711));
#52 = CARTESIAN_POINT('',(373.81524085704,-85.00375661365));
#53 = CARTESIAN_POINT('',(418.04984370965,-61.55885599395));
#54 = CARTESIAN_POINT('',(468.45392692256,-87.74525607054));
#55 = CARTESIAN_POINT('',(592.18641086677,-62.97339424739));
#56 = CARTESIAN_POINT('',(646.16867248181,-85.30724854793));
#57 = CARTESIAN_POINT('',(737.79540042311,-87.07959431782));
#58 = ( GEOMETRIC_REPRESENTATION_CONTEXT(2) 
PARAMETRIC_REPRESENTATION_CONTEXT() REPRESENTATION_CONTEXT('2D SPACE',''
  ) );
#59 = ORIENTED_EDGE('',*,*,#60,.T.);
#60 = EDGE_CURVE('',#24,#61,#63,.T.);
#61 = VERTEX_POINT('',#62);
#62 = CARTESIAN_POINT('',(1.5E+03,162.07959431782,0.));
#63 = SURFACE_CURVE('',#64,(#68),.PCURVE_S1.);
#64 = LINE('',#65,#66);
#65 = CARTESIAN_POINT('',(1.5E+03,-12.07959431782,0.));
#66 = VECTOR('',#67,1.);
#67 = DIRECTION('',(0.,1.,0.));
#68 = PCURVE('',#40,#69);
#69 = DEFINITIONAL_REPRESENTATION('',(#70),#74);
#70 = LINE('',#71,#72);
#71 = CARTESIAN_POINT('',(737.79540042311,-87.07959431782));
#72 = VECTOR('',#73,1.);
#73 = DIRECTION('',(0.,1.));
#74 = ( GEOMETRIC_REPRESENTATION_CONTEXT(2) 
PARAMETRIC_REPRESENTATION_CONTEXT() REPRESENTATION_CONTEXT('2D SPACE',''
  ) );
#75 = ORIENTED_EDGE('',*,*,#76,.T.);
#76 = EDGE_CURVE('',#61,#77,#79,.T.);
#77 = VERTEX_POINT('',#78);
#78 = CARTESIAN_POINT('',(0.,147.48787277109,0.));
#79 = SURFACE_CURVE('',#80,(#92),.PCURVE_S1.);
#80 = B_SPLINE_CURVE_WITH_KNOTS('',1,(#81,#82,#83,#84,#85,#86,#87,#88,
    #89,#90,#91),.UNSPECIFIED.,.F.,.F.,(2,1,1,1,1,1,1,1,1,1,2),(0.,
    6.021880052764E-02,9.86062765093E-02,0.181523780734,0.218847164323,
    0.251743741731,0.34047159182,0.724256096836,0.766386499443,
    0.894089257927,1.),.UNSPECIFIED.);
#81 = CARTESIAN_POINT('',(1.5E+03,162.07959431782,0.));
#82 = CARTESIAN_POINT('',(1.408373272059E+03,160.30724854793,0.));
#83 = CARTESIAN_POINT('',(1.354391010444E+03,137.97339424739,0.));
#84 = CARTESIAN_POINT('',(1.230658526499E+03,162.74525607054,0.));
#85 = CARTESIAN_POINT('',(1.180254443287E+03,136.55885599395,0.));
#86 = CARTESIAN_POINT('',(1.136019840434E+03,160.00375661365,0.));
#87 = CARTESIAN_POINT('',(1.002786119817E+03,138.05015708711,0.));
#88 = CARTESIAN_POINT('',(418.86167339931,150.71258846152,0.));
#89 = CARTESIAN_POINT('',(354.90400468912,146.20842415378,0.));
#90 = CARTESIAN_POINT('',(160.80356637041,136.47762359782,0.));
#91 = CARTESIAN_POINT('',(0.,147.48787277109,0.));
#92 = PCURVE('',#40,#93);
#93 = DEFINITIONAL_REPRESENTATION('',(#94),#106);
#94 = B_SPLINE_CURVE_WITH_KNOTS('',1,(#95,#96,#97,#98,#99,#100,#101,#102
    ,#103,#104,#105),.UNSPECIFIED.,.F.,.F.,(2,1,1,1,1,1,1,1,1,1,2),(0.,
    6.021880052764E-02,9.86062765093E-02,0.181523780734,0.218847164323,
    0.251743741731,0.34047159182,0.724256096836,0.766386499443,
    0.894089257927,1.),.UNSPECIFIED.);
#95 = CARTESIAN_POINT('',(737.79540042311,87.079594317829));
#96 = CARTESIAN_POINT('',(646.16867248181,85.307248547933));
#97 = CARTESIAN_POINT('',(592.18641086677,62.973394247396));
#98 = CARTESIAN_POINT('',(468.45392692256,87.745256070542));
#99 = CARTESIAN_POINT('',(418.04984370965,61.558855993953));
#100 = CARTESIAN_POINT('',(373.81524085704,85.003756613657));
#101 = CARTESIAN_POINT('',(240.58152024045,63.050157087111));
#102 = CARTESIAN_POINT('',(-343.3429261775,75.712588461529));
#103 = CARTESIAN_POINT('',(-407.3005948877,71.208424153787));
#104 = CARTESIAN_POINT('',(-601.4010332064,61.477623597828));
#105 = CARTESIAN_POINT('',(-762.2045995768,72.487872771096));
#106 = ( GEOMETRIC_REPRESENTATION_CONTEXT(2) 
PARAMETRIC_REPRESENTATION_CONTEXT() REPRESENTATION_CONTEXT('2D SPACE',''
  ) );
#107 = ORIENTED_EDGE('',*,*,#108,.T.);
#108 = EDGE_CURVE('',#77,#22,#109,.T.);
#109 = SURFACE_CURVE('',#110,(#114),.PCURVE_S1.);
#110 = LINE('',#111,#112);
#111 = CARTESIAN_POINT('',(0.,147.48787277109,0.));
#112 = VECTOR('',#113,1.);
#113 = DIRECTION('',(0.,-1.,0.));
#114 = PCURVE('',#40,#115);
#115 = DEFINITIONAL_REPRESENTATION('',(#116),#120);
#116 = LINE('',#117,#118);
#117 = CARTESIAN_POINT('',(-762.2045995768,72.487872771096));
#118 = VECTOR('',#119,1.);
#119 = DIRECTION('',(0.,-1.));
#120 = ( GEOMETRIC_REPRESENTATION_CONTEXT(2) 
PARAMETRIC_REPRESENTATION_CONTEXT() REPRESENTATION_CONTEXT('2D SPACE',''
  ) );
#121 = ( GEOMETRIC_REPRESENTATION_CONTEXT(3) 
GLOBAL_UNCERTAINTY_ASSIGNED_CONTEXT((#125)) GLOBAL_UNIT_ASSIGNED_CONTEXT
((#122,#123,#124)) REPRESENTATION_CONTEXT('Context #1',
  '3D Context with UNIT and UNCERTAINTY') );
#122 = ( LENGTH_UNIT() NAMED_UNIT(*) SI_UNIT(.MILLI.,.METRE.) );
#123 = ( NAMED_UNIT(*) PLANE_ANGLE_UNIT() SI_UNIT($,.RADIAN.) );
#124 = ( NAMED_UNIT(*) SI_UNIT($,.STERADIAN.) SOLID_ANGLE_UNIT() );
#125 = UNCERTAINTY_MEASURE_WITH_UNIT(LENGTH_MEASURE(1.E-07),#122,
  'distance_accuracy_value','confusion accuracy');
#126 = PRODUCT_RELATED_PRODUCT_CATEGORY('part',$,(#7));
ENDSEC;
END-ISO-10303-21;
