ISO-10303-21;
HEADER;
FILE_DESCRIPTION(('Open CASCADE Model'),'2;1');
FILE_NAME('Open CASCADE Shape Model','2026-06-02T12:09:04',('Author'),(
    'Open CASCADE'),'Open CASCADE STEP processor 7.9','Open CASCADE 7.9'
  ,'Unknown');
FILE_SCHEMA(('AUTOMOTIVE_DESIGN { 1 0 10303 214 1 1 1 1 }'));
ENDSEC;
DATA;
#1 = APPLICATION_PROTOCOL_DEFINITION('international standard',
  'automotive_design',2000,#2);
#2 = APPLICATION_CONTEXT(
  'core data for automotive mechanical design processes');
#3 = SHAPE_DEFINITION_REPRESENTATION(#4,#10);
#4 = PRODUCT_DEFINITION_SHAPE('','',#5);
#5 = PRODUCT_DEFINITION('design','',#6,#9);
#6 = PRODUCT_DEFINITION_FORMATION('','',#7);
#7 = PRODUCT('Open CASCADE STEP translator 7.9 78',
  'Open CASCADE STEP translator 7.9 78','',(#8));
#8 = PRODUCT_CONTEXT('',#2,'mechanical');
#9 = PRODUCT_DEFINITION_CONTEXT('part definition',#2,'design');
#10 = MANIFOLD_SURFACE_SHAPE_REPRESENTATION('',(#11,#15),#121);
#11 = AXIS2_PLACEMENT_3D('',#12,#13,#14);
#12 = CARTESIAN_POINT('',(0.,0.,0.));
#13 = DIRECTION('',(0.,0.,1.));
#14 = DIRECTION('',(1.,0.,-0.));
#15 = SHELL_BASED_SURFACE_MODEL('',(#16));
#16 = OPEN_SHELL('',(#17));
#17 = ADVANCED_FACE('',(#18),#40,.T.);
#18 = FACE_BOUND('',#19,.T.);
#19 = EDGE_LOOP('',(#20,#59,#75,#107));
#20 = ORIENTED_EDGE('',*,*,#21,.T.);
#21 = EDGE_CURVE('',#22,#24,#26,.T.);
#22 = VERTEX_POINT('',#23);
#23 = CARTESIAN_POINT('',(0.,-13.31395104311,0.));
#24 = VERTEX_POINT('',#25);
#25 = CARTESIAN_POINT('',(1.5E+03,-12.52186767798,0.));
#26 = SURFACE_CURVE('',#27,(#39),.PCURVE_S1.);
#27 = B_SPLINE_CURVE_WITH_KNOTS('',1,(#28,#29,#30,#31,#32,#33,#34,#35,
    #36,#37,#38),.UNSPECIFIED.,.F.,.F.,(2,1,1,1,1,1,1,1,1,1,2),(0.,
    5.039234534588E-02,0.111059217447,0.142015831356,0.321962259424,
    0.488187811375,0.735597919981,0.822672037893,0.926671226658,
    0.973994955223,1.),.UNSPECIFIED.);
#28 = CARTESIAN_POINT('',(0.,-13.31395104311,0.));
#29 = CARTESIAN_POINT('',(74.618427052447,2.938566055288,0.));
#30 = CARTESIAN_POINT('',(166.40291599572,8.259315763624,0.));
#31 = CARTESIAN_POINT('',(209.44614853565,-10.40013151524,0.));
#32 = CARTESIAN_POINT('',(481.81822374921,3.024140920266,0.));
#33 = CARTESIAN_POINT('',(733.49049621259,13.94649566671,0.));
#34 = CARTESIAN_POINT('',(1.108412797355E+03,10.141752892511,0.));
#35 = CARTESIAN_POINT('',(1.239591441726E+03,-4.177510210685,0.));
#36 = CARTESIAN_POINT('',(1.397139742648E+03,-8.487158225152,0.));
#37 = CARTESIAN_POINT('',(1.466774248264E+03,8.671968345339,0.));
#38 = CARTESIAN_POINT('',(1.5E+03,-12.52186767798,0.));
#39 = PCURVE('',#40,#45);
#40 = PLANE('',#41);
#41 = AXIS2_PLACEMENT_3D('',#42,#43,#44);
#42 = CARTESIAN_POINT('',(751.20746214943,75.,0.));
#43 = DIRECTION('',(0.,0.,1.));
#44 = DIRECTION('',(1.,0.,-0.));
#45 = DEFINITIONAL_REPRESENTATION('',(#46),#58);
#46 = B_SPLINE_CURVE_WITH_KNOTS('',1,(#47,#48,#49,#50,#51,#52,#53,#54,
    #55,#56,#57),.UNSPECIFIED.,.F.,.F.,(2,1,1,1,1,1,1,1,1,1,2),(0.,
    5.039234534588E-02,0.111059217447,0.142015831356,0.321962259424,
    0.488187811375,0.735597919981,0.822672037893,0.926671226658,
    0.973994955223,1.),.UNSPECIFIED.);
#47 = CARTESIAN_POINT('',(-751.2074621494,-88.31395104311));
#48 = CARTESIAN_POINT('',(-676.5890350969,-72.06143394471));
#49 = CARTESIAN_POINT('',(-584.8045461537,-66.74068423637));
#50 = CARTESIAN_POINT('',(-541.7613136137,-85.40013151524));
#51 = CARTESIAN_POINT('',(-269.3892384002,-71.97585907973));
#52 = CARTESIAN_POINT('',(-17.71696593684,-61.05350433329));
#53 = CARTESIAN_POINT('',(357.205335206,-64.85824710748));
#54 = CARTESIAN_POINT('',(488.38397957657,-79.17751021068));
#55 = CARTESIAN_POINT('',(645.93228049838,-83.48715822515));
#56 = CARTESIAN_POINT('',(715.56678611504,-66.32803165466));
#57 = CARTESIAN_POINT('',(748.79253785056,-87.52186767798));
#58 = ( GEOMETRIC_REPRESENTATION_CONTEXT(2) 
PARAMETRIC_REPRESENTATION_CONTEXT() REPRESENTATION_CONTEXT('2D SPACE',''
  ) );
#59 = ORIENTED_EDGE('',*,*,#60,.T.);
#60 = EDGE_CURVE('',#24,#61,#63,.T.);
#61 = VERTEX_POINT('',#62);
#62 = CARTESIAN_POINT('',(1.5E+03,162.52186767798,0.));
#63 = SURFACE_CURVE('',#64,(#68),.PCURVE_S1.);
#64 = LINE('',#65,#66);
#65 = CARTESIAN_POINT('',(1.5E+03,-12.52186767798,0.));
#66 = VECTOR('',#67,1.);
#67 = DIRECTION('',(0.,1.,0.));
#68 = PCURVE('',#40,#69);
#69 = DEFINITIONAL_REPRESENTATION('',(#70),#74);
#70 = LINE('',#71,#72);
#71 = CARTESIAN_POINT('',(748.79253785056,-87.52186767798));
#72 = VECTOR('',#73,1.);
#73 = DIRECTION('',(0.,1.));
#74 = ( GEOMETRIC_REPRESENTATION_CONTEXT(2) 
PARAMETRIC_REPRESENTATION_CONTEXT() REPRESENTATION_CONTEXT('2D SPACE',''
  ) );
#75 = ORIENTED_EDGE('',*,*,#76,.T.);
#76 = EDGE_CURVE('',#61,#77,#79,.T.);
#77 = VERTEX_POINT('',#78);
#78 = CARTESIAN_POINT('',(0.,163.31395104311,0.));
#79 = SURFACE_CURVE('',#80,(#92),.PCURVE_S1.);
#80 = B_SPLINE_CURVE_WITH_KNOTS('',1,(#81,#82,#83,#84,#85,#86,#87,#88,
    #89,#90,#91),.UNSPECIFIED.,.F.,.F.,(2,1,1,1,1,1,1,1,1,1,2),(0.,
    2.600504477677E-02,7.332877334156E-02,0.177327962107,0.264402080019,
    0.511812188625,0.678037740576,0.857984168644,0.888940782553,
    0.949607654654,1.),.UNSPECIFIED.);
#81 = CARTESIAN_POINT('',(1.5E+03,162.52186767798,0.));
#82 = CARTESIAN_POINT('',(1.466774248264E+03,141.32803165466,0.));
#83 = CARTESIAN_POINT('',(1.397139742648E+03,158.48715822515,0.));
#84 = CARTESIAN_POINT('',(1.239591441726E+03,154.17751021068,0.));
#85 = CARTESIAN_POINT('',(1.108412797355E+03,139.85824710748,0.));
#86 = CARTESIAN_POINT('',(733.49049621259,136.05350433329,0.));
#87 = CARTESIAN_POINT('',(481.81822374921,146.97585907973,0.));
#88 = CARTESIAN_POINT('',(209.44614853565,160.40013151524,0.));
#89 = CARTESIAN_POINT('',(166.40291599572,141.74068423637,0.));
#90 = CARTESIAN_POINT('',(74.618427052447,147.06143394471,0.));
#91 = CARTESIAN_POINT('',(0.,163.31395104311,0.));
#92 = PCURVE('',#40,#93);
#93 = DEFINITIONAL_REPRESENTATION('',(#94),#106);
#94 = B_SPLINE_CURVE_WITH_KNOTS('',1,(#95,#96,#97,#98,#99,#100,#101,#102
    ,#103,#104,#105),.UNSPECIFIED.,.F.,.F.,(2,1,1,1,1,1,1,1,1,1,2),(0.,
    2.600504477677E-02,7.332877334156E-02,0.177327962107,0.264402080019,
    0.511812188625,0.678037740576,0.857984168644,0.888940782553,
    0.949607654654,1.),.UNSPECIFIED.);
#95 = CARTESIAN_POINT('',(748.79253785056,87.521867677984));
#96 = CARTESIAN_POINT('',(715.56678611504,66.328031654661));
#97 = CARTESIAN_POINT('',(645.93228049838,83.487158225152));
#98 = CARTESIAN_POINT('',(488.38397957657,79.177510210685));
#99 = CARTESIAN_POINT('',(357.205335206,64.858247107489));
#100 = CARTESIAN_POINT('',(-17.71696593684,61.05350433329));
#101 = CARTESIAN_POINT('',(-269.3892384002,71.975859079734));
#102 = CARTESIAN_POINT('',(-541.7613136137,85.400131515247));
#103 = CARTESIAN_POINT('',(-584.8045461537,66.740684236376));
#104 = CARTESIAN_POINT('',(-676.5890350969,72.061433944712));
#105 = CARTESIAN_POINT('',(-751.2074621494,88.313951043111));
#106 = ( GEOMETRIC_REPRESENTATION_CONTEXT(2) 
PARAMETRIC_REPRESENTATION_CONTEXT() REPRESENTATION_CONTEXT('2D SPACE',''
  ) );
#107 = ORIENTED_EDGE('',*,*,#108,.T.);
#108 = EDGE_CURVE('',#77,#22,#109,.T.);
#109 = SURFACE_CURVE('',#110,(#114),.PCURVE_S1.);
#110 = LINE('',#111,#112);
#111 = CARTESIAN_POINT('',(0.,163.31395104311,0.));
#112 = VECTOR('',#113,1.);
#113 = DIRECTION('',(0.,-1.,0.));
#114 = PCURVE('',#40,#115);
#115 = DEFINITIONAL_REPRESENTATION('',(#116),#120);
#116 = LINE('',#117,#118);
#117 = CARTESIAN_POINT('',(-751.2074621494,88.313951043111));
#118 = VECTOR('',#119,1.);
#119 = DIRECTION('',(0.,-1.));
#120 = ( GEOMETRIC_REPRESENTATION_CONTEXT(2) 
PARAMETRIC_REPRESENTATION_CONTEXT() REPRESENTATION_CONTEXT('2D SPACE',''
  ) );
#121 = ( GEOMETRIC_REPRESENTATION_CONTEXT(3) 
GLOBAL_UNCERTAINTY_ASSIGNED_CONTEXT((#125)) GLOBAL_UNIT_ASSIGNED_CONTEXT
((#122,#123,#124)) REPRESENTATION_CONTEXT('Context #1',
  '3D Context with UNIT and UNCERTAINTY') );
#122 = ( LENGTH_UNIT() NAMED_UNIT(*) SI_UNIT(.MILLI.,.METRE.) );
#123 = ( NAMED_UNIT(*) PLANE_ANGLE_UNIT() SI_UNIT($,.RADIAN.) );
#124 = ( NAMED_UNIT(*) SI_UNIT($,.STERADIAN.) SOLID_ANGLE_UNIT() );
#125 = UNCERTAINTY_MEASURE_WITH_UNIT(LENGTH_MEASURE(1.E-07),#122,
  'distance_accuracy_value','confusion accuracy');
#126 = PRODUCT_RELATED_PRODUCT_CATEGORY('part',$,(#7));
ENDSEC;
END-ISO-10303-21;
