ISO-10303-21;
HEADER;
FILE_DESCRIPTION(('Open CASCADE Model'),'2;1');
FILE_NAME('Open CASCADE Shape Model','2026-06-02T12:09:04',('Author'),(
    'Open CASCADE'),'Open CASCADE STEP processor 7.9','Open CASCADE 7.9'
  ,'Unknown');
FILE_SCHEMA(('AUTOMOTIVE_DESIGN { 1 0 10303 214 1 1 1 1 }'));
ENDSEC;
DATA;
#1 = APPLICATION_PROTOCOL_DEFINITION('international standard',
  'automotive_design',2000,#2);
#2 = APPLICATION_CONTEXT(
  'core data for automotive mechanical design processes');
#3 = SHAPE_DEFINITION_REPRESENTATION(#4,#10);
#4 = PRODUCT_DEFINITION_SHAPE('','',#5);
#5 = PRODUCT_DEFINITION('design','',#6,#9);
#6 = PRODUCT_DEFINITION_FORMATION('','',#7);
#7 = PRODUCT('Open CASCADE STEP translator 7.9 44',
  'Open CASCADE STEP translator 7.9 44','',(#8));
#8 = PRODUCT_CONTEXT('',#2,'mechanical');
#9 = PRODUCT_DEFINITION_CONTEXT('part definition',#2,'design');
#10 = MANIFOLD_SURFACE_SHAPE_REPRESENTATION('',(#11,#15),#121);
#11 = AXIS2_PLACEMENT_3D('',#12,#13,#14);
#12 = CARTESIAN_POINT('',(0.,0.,0.));
#13 = DIRECTION('',(0.,0.,1.));
#14 = DIRECTION('',(1.,0.,-0.));
#15 = SHELL_BASED_SURFACE_MODEL('',(#16));
#16 = OPEN_SHELL('',(#17));
#17 = ADVANCED_FACE('',(#18),#40,.T.);
#18 = FACE_BOUND('',#19,.T.);
#19 = EDGE_LOOP('',(#20,#59,#75,#107));
#20 = ORIENTED_EDGE('',*,*,#21,.T.);
#21 = EDGE_CURVE('',#22,#24,#26,.T.);
#22 = VERTEX_POINT('',#23);
#23 = CARTESIAN_POINT('',(0.,6.119014112699,0.));
#24 = VERTEX_POINT('',#25);
#25 = CARTESIAN_POINT('',(1.5E+03,7.063805665461,0.));
#26 = SURFACE_CURVE('',#27,(#39),.PCURVE_S1.);
#27 = B_SPLINE_CURVE_WITH_KNOTS('',1,(#28,#29,#30,#31,#32,#33,#34,#35,
    #36,#37,#38),.UNSPECIFIED.,.F.,.F.,(2,1,1,1,1,1,1,1,1,1,2),(0.,
    2.845791631701E-02,0.119185647378,0.266141752765,0.409832706981,
    0.466580387365,0.56067040353,0.604608047424,0.651801555283,
    0.710551489322,1.),.UNSPECIFIED.);
#28 = CARTESIAN_POINT('',(0.,6.119014112699,0.));
#29 = CARTESIAN_POINT('',(43.07228488657,3.862420887352,0.));
#30 = CARTESIAN_POINT('',(180.57725679973,2.854351067204,0.));
#31 = CARTESIAN_POINT('',(403.05171757825,-7.800449152321,0.));
#32 = CARTESIAN_POINT('',(620.83213386329,-8.170589630237,0.));
#33 = CARTESIAN_POINT('',(705.14998718929,8.795594174579,0.));
#34 = CARTESIAN_POINT('',(846.04085137227,-13.24616570214,0.));
#35 = CARTESIAN_POINT('',(907.91270478748,11.380339876689,0.));
#36 = CARTESIAN_POINT('',(975.55109207925,-11.8836624727,0.));
#37 = CARTESIAN_POINT('',(1.061333995428E+03,11.988130630506,0.));
#38 = CARTESIAN_POINT('',(1.5E+03,7.063805665461,0.));
#39 = PCURVE('',#40,#45);
#40 = PLANE('',#41);
#41 = AXIS2_PLACEMENT_3D('',#42,#43,#44);
#42 = CARTESIAN_POINT('',(750.76293027315,75.,0.));
#43 = DIRECTION('',(0.,0.,1.));
#44 = DIRECTION('',(1.,0.,-0.));
#45 = DEFINITIONAL_REPRESENTATION('',(#46),#58);
#46 = B_SPLINE_CURVE_WITH_KNOTS('',1,(#47,#48,#49,#50,#51,#52,#53,#54,
    #55,#56,#57),.UNSPECIFIED.,.F.,.F.,(2,1,1,1,1,1,1,1,1,1,2),(0.,
    2.845791631701E-02,0.119185647378,0.266141752765,0.409832706981,
    0.466580387365,0.56067040353,0.604608047424,0.651801555283,
    0.710551489322,1.),.UNSPECIFIED.);
#47 = CARTESIAN_POINT('',(-750.7629302731,-68.8809858873));
#48 = CARTESIAN_POINT('',(-707.6906453865,-71.13757911264));
#49 = CARTESIAN_POINT('',(-570.1856734734,-72.14564893279));
#50 = CARTESIAN_POINT('',(-347.7112126948,-82.80044915232));
#51 = CARTESIAN_POINT('',(-129.9307964098,-83.17058963023));
#52 = CARTESIAN_POINT('',(-45.61294308385,-66.20440582542));
#53 = CARTESIAN_POINT('',(95.277921099124,-88.24616570214));
#54 = CARTESIAN_POINT('',(157.14977451433,-63.61966012331));
#55 = CARTESIAN_POINT('',(224.78816180609,-86.8836624727));
#56 = CARTESIAN_POINT('',(310.57106515459,-63.01186936949));
#57 = CARTESIAN_POINT('',(749.23706972684,-67.93619433453));
#58 = ( GEOMETRIC_REPRESENTATION_CONTEXT(2) 
PARAMETRIC_REPRESENTATION_CONTEXT() REPRESENTATION_CONTEXT('2D SPACE',''
  ) );
#59 = ORIENTED_EDGE('',*,*,#60,.T.);
#60 = EDGE_CURVE('',#24,#61,#63,.T.);
#61 = VERTEX_POINT('',#62);
#62 = CARTESIAN_POINT('',(1.5E+03,142.93619433453,0.));
#63 = SURFACE_CURVE('',#64,(#68),.PCURVE_S1.);
#64 = LINE('',#65,#66);
#65 = CARTESIAN_POINT('',(1.5E+03,7.063805665461,0.));
#66 = VECTOR('',#67,1.);
#67 = DIRECTION('',(0.,1.,0.));
#68 = PCURVE('',#40,#69);
#69 = DEFINITIONAL_REPRESENTATION('',(#70),#74);
#70 = LINE('',#71,#72);
#71 = CARTESIAN_POINT('',(749.23706972684,-67.93619433453));
#72 = VECTOR('',#73,1.);
#73 = DIRECTION('',(0.,1.));
#74 = ( GEOMETRIC_REPRESENTATION_CONTEXT(2) 
PARAMETRIC_REPRESENTATION_CONTEXT() REPRESENTATION_CONTEXT('2D SPACE',''
  ) );
#75 = ORIENTED_EDGE('',*,*,#76,.T.);
#76 = EDGE_CURVE('',#61,#77,#79,.T.);
#77 = VERTEX_POINT('',#78);
#78 = CARTESIAN_POINT('',(0.,143.8809858873,0.));
#79 = SURFACE_CURVE('',#80,(#92),.PCURVE_S1.);
#80 = B_SPLINE_CURVE_WITH_KNOTS('',1,(#81,#82,#83,#84,#85,#86,#87,#88,
    #89,#90,#91),.UNSPECIFIED.,.F.,.F.,(2,1,1,1,1,1,1,1,1,1,2),(0.,
    0.289448510678,0.348198444717,0.395391952576,0.43932959647,
    0.533419612635,0.590167293019,0.733858247235,0.880814352622,
    0.971542083683,1.),.UNSPECIFIED.);
#81 = CARTESIAN_POINT('',(1.5E+03,142.93619433453,0.));
#82 = CARTESIAN_POINT('',(1.061333995428E+03,138.01186936949,0.));
#83 = CARTESIAN_POINT('',(975.55109207925,161.8836624727,0.));
#84 = CARTESIAN_POINT('',(907.91270478748,138.61966012331,0.));
#85 = CARTESIAN_POINT('',(846.04085137227,163.24616570214,0.));
#86 = CARTESIAN_POINT('',(705.14998718929,141.20440582542,0.));
#87 = CARTESIAN_POINT('',(620.83213386329,158.17058963023,0.));
#88 = CARTESIAN_POINT('',(403.05171757825,157.80044915232,0.));
#89 = CARTESIAN_POINT('',(180.57725679973,147.14564893279,0.));
#90 = CARTESIAN_POINT('',(43.07228488657,146.13757911264,0.));
#91 = CARTESIAN_POINT('',(0.,143.8809858873,0.));
#92 = PCURVE('',#40,#93);
#93 = DEFINITIONAL_REPRESENTATION('',(#94),#106);
#94 = B_SPLINE_CURVE_WITH_KNOTS('',1,(#95,#96,#97,#98,#99,#100,#101,#102
    ,#103,#104,#105),.UNSPECIFIED.,.F.,.F.,(2,1,1,1,1,1,1,1,1,1,2),(0.,
    0.289448510678,0.348198444717,0.395391952576,0.43932959647,
    0.533419612635,0.590167293019,0.733858247235,0.880814352622,
    0.971542083683,1.),.UNSPECIFIED.);
#95 = CARTESIAN_POINT('',(749.23706972684,67.936194334539));
#96 = CARTESIAN_POINT('',(310.57106515459,63.011869369494));
#97 = CARTESIAN_POINT('',(224.78816180609,86.883662472709));
#98 = CARTESIAN_POINT('',(157.14977451433,63.619660123311));
#99 = CARTESIAN_POINT('',(95.277921099124,88.246165702143));
#100 = CARTESIAN_POINT('',(-45.61294308385,66.204405825421));
#101 = CARTESIAN_POINT('',(-129.9307964098,83.170589630237));
#102 = CARTESIAN_POINT('',(-347.7112126948,82.800449152321));
#103 = CARTESIAN_POINT('',(-570.1856734734,72.145648932796));
#104 = CARTESIAN_POINT('',(-707.6906453865,71.137579112648));
#105 = CARTESIAN_POINT('',(-750.7629302731,68.880985887301));
#106 = ( GEOMETRIC_REPRESENTATION_CONTEXT(2) 
PARAMETRIC_REPRESENTATION_CONTEXT() REPRESENTATION_CONTEXT('2D SPACE',''
  ) );
#107 = ORIENTED_EDGE('',*,*,#108,.T.);
#108 = EDGE_CURVE('',#77,#22,#109,.T.);
#109 = SURFACE_CURVE('',#110,(#114),.PCURVE_S1.);
#110 = LINE('',#111,#112);
#111 = CARTESIAN_POINT('',(0.,143.8809858873,0.));
#112 = VECTOR('',#113,1.);
#113 = DIRECTION('',(0.,-1.,0.));
#114 = PCURVE('',#40,#115);
#115 = DEFINITIONAL_REPRESENTATION('',(#116),#120);
#116 = LINE('',#117,#118);
#117 = CARTESIAN_POINT('',(-750.7629302731,68.880985887301));
#118 = VECTOR('',#119,1.);
#119 = DIRECTION('',(0.,-1.));
#120 = ( GEOMETRIC_REPRESENTATION_CONTEXT(2) 
PARAMETRIC_REPRESENTATION_CONTEXT() REPRESENTATION_CONTEXT('2D SPACE',''
  ) );
#121 = ( GEOMETRIC_REPRESENTATION_CONTEXT(3) 
GLOBAL_UNCERTAINTY_ASSIGNED_CONTEXT((#125)) GLOBAL_UNIT_ASSIGNED_CONTEXT
((#122,#123,#124)) REPRESENTATION_CONTEXT('Context #1',
  '3D Context with UNIT and UNCERTAINTY') );
#122 = ( LENGTH_UNIT() NAMED_UNIT(*) SI_UNIT(.MILLI.,.METRE.) );
#123 = ( NAMED_UNIT(*) PLANE_ANGLE_UNIT() SI_UNIT($,.RADIAN.) );
#124 = ( NAMED_UNIT(*) SI_UNIT($,.STERADIAN.) SOLID_ANGLE_UNIT() );
#125 = UNCERTAINTY_MEASURE_WITH_UNIT(LENGTH_MEASURE(1.E-07),#122,
  'distance_accuracy_value','confusion accuracy');
#126 = PRODUCT_RELATED_PRODUCT_CATEGORY('part',$,(#7));
ENDSEC;
END-ISO-10303-21;
