ISO-10303-21;
HEADER;
FILE_DESCRIPTION(('Open CASCADE Model'),'2;1');
FILE_NAME('Open CASCADE Shape Model','2026-06-02T12:09:04',('Author'),(
    'Open CASCADE'),'Open CASCADE STEP processor 7.9','Open CASCADE 7.9'
  ,'Unknown');
FILE_SCHEMA(('AUTOMOTIVE_DESIGN { 1 0 10303 214 1 1 1 1 }'));
ENDSEC;
DATA;
#1 = APPLICATION_PROTOCOL_DEFINITION('international standard',
  'automotive_design',2000,#2);
#2 = APPLICATION_CONTEXT(
  'core data for automotive mechanical design processes');
#3 = SHAPE_DEFINITION_REPRESENTATION(#4,#10);
#4 = PRODUCT_DEFINITION_SHAPE('','',#5);
#5 = PRODUCT_DEFINITION('design','',#6,#9);
#6 = PRODUCT_DEFINITION_FORMATION('','',#7);
#7 = PRODUCT('Open CASCADE STEP translator 7.9 71',
  'Open CASCADE STEP translator 7.9 71','',(#8));
#8 = PRODUCT_CONTEXT('',#2,'mechanical');
#9 = PRODUCT_DEFINITION_CONTEXT('part definition',#2,'design');
#10 = MANIFOLD_SURFACE_SHAPE_REPRESENTATION('',(#11,#15),#121);
#11 = AXIS2_PLACEMENT_3D('',#12,#13,#14);
#12 = CARTESIAN_POINT('',(0.,0.,0.));
#13 = DIRECTION('',(0.,0.,1.));
#14 = DIRECTION('',(1.,0.,-0.));
#15 = SHELL_BASED_SURFACE_MODEL('',(#16));
#16 = OPEN_SHELL('',(#17));
#17 = ADVANCED_FACE('',(#18),#40,.T.);
#18 = FACE_BOUND('',#19,.T.);
#19 = EDGE_LOOP('',(#20,#59,#75,#107));
#20 = ORIENTED_EDGE('',*,*,#21,.T.);
#21 = EDGE_CURVE('',#22,#24,#26,.T.);
#22 = VERTEX_POINT('',#23);
#23 = CARTESIAN_POINT('',(0.,-0.172869442282,0.));
#24 = VERTEX_POINT('',#25);
#25 = CARTESIAN_POINT('',(1.5E+03,6.822405077523,0.));
#26 = SURFACE_CURVE('',#27,(#39),.PCURVE_S1.);
#27 = B_SPLINE_CURVE_WITH_KNOTS('',1,(#28,#29,#30,#31,#32,#33,#34,#35,
    #36,#37,#38),.UNSPECIFIED.,.F.,.F.,(2,1,1,1,1,1,1,1,1,1,2),(0.,
    8.19545851435E-02,0.226788749405,0.332988300406,0.436751294574,
    0.591521420443,0.670868716113,0.783552730695,0.838358047764,
    0.911126198961,1.),.UNSPECIFIED.);
#28 = CARTESIAN_POINT('',(0.,-0.172869442282,0.));
#29 = CARTESIAN_POINT('',(123.06874831345,-7.097192793472,0.));
#30 = CARTESIAN_POINT('',(340.74745214738,1.208716066392,0.));
#31 = CARTESIAN_POINT('',(500.30824984364,8.535145745619,0.));
#32 = CARTESIAN_POINT('',(655.56129565253,-7.35611528343,0.));
#33 = CARTESIAN_POINT('',(887.61249057676,11.065344924459,0.));
#34 = CARTESIAN_POINT('',(1.006937253706E+03,9.042490094061,0.));
#35 = CARTESIAN_POINT('',(1.175931457804E+03,-3.804749483526,0.));
#36 = CARTESIAN_POINT('',(1.258281889804E+03,-7.418094005762,0.));
#37 = CARTESIAN_POINT('',(1.367639078126E+03,-11.84063660603,0.));
#38 = CARTESIAN_POINT('',(1.5E+03,6.822405077523,0.));
#39 = PCURVE('',#40,#45);
#40 = PLANE('',#41);
#41 = AXIS2_PLACEMENT_3D('',#42,#43,#44);
#42 = CARTESIAN_POINT('',(747.27496521927,75.,0.));
#43 = DIRECTION('',(0.,0.,1.));
#44 = DIRECTION('',(1.,0.,-0.));
#45 = DEFINITIONAL_REPRESENTATION('',(#46),#58);
#46 = B_SPLINE_CURVE_WITH_KNOTS('',1,(#47,#48,#49,#50,#51,#52,#53,#54,
    #55,#56,#57),.UNSPECIFIED.,.F.,.F.,(2,1,1,1,1,1,1,1,1,1,2),(0.,
    8.19545851435E-02,0.226788749405,0.332988300406,0.436751294574,
    0.591521420443,0.670868716113,0.783552730695,0.838358047764,
    0.911126198961,1.),.UNSPECIFIED.);
#47 = CARTESIAN_POINT('',(-747.2749652192,-75.17286944228));
#48 = CARTESIAN_POINT('',(-624.2062169058,-82.09719279347));
#49 = CARTESIAN_POINT('',(-406.5275130718,-73.7912839336));
#50 = CARTESIAN_POINT('',(-246.9667153756,-66.46485425438));
#51 = CARTESIAN_POINT('',(-91.71366956674,-82.35611528343));
#52 = CARTESIAN_POINT('',(140.33752535749,-63.93465507554));
#53 = CARTESIAN_POINT('',(259.6622884866,-65.95750990593));
#54 = CARTESIAN_POINT('',(428.65649258477,-78.80474948352));
#55 = CARTESIAN_POINT('',(511.00692458483,-82.41809400576));
#56 = CARTESIAN_POINT('',(620.36411290675,-86.84063660603));
#57 = CARTESIAN_POINT('',(752.72503478072,-68.17759492247));
#58 = ( GEOMETRIC_REPRESENTATION_CONTEXT(2) 
PARAMETRIC_REPRESENTATION_CONTEXT() REPRESENTATION_CONTEXT('2D SPACE',''
  ) );
#59 = ORIENTED_EDGE('',*,*,#60,.T.);
#60 = EDGE_CURVE('',#24,#61,#63,.T.);
#61 = VERTEX_POINT('',#62);
#62 = CARTESIAN_POINT('',(1.5E+03,143.17759492247,0.));
#63 = SURFACE_CURVE('',#64,(#68),.PCURVE_S1.);
#64 = LINE('',#65,#66);
#65 = CARTESIAN_POINT('',(1.5E+03,6.822405077523,0.));
#66 = VECTOR('',#67,1.);
#67 = DIRECTION('',(0.,1.,0.));
#68 = PCURVE('',#40,#69);
#69 = DEFINITIONAL_REPRESENTATION('',(#70),#74);
#70 = LINE('',#71,#72);
#71 = CARTESIAN_POINT('',(752.72503478072,-68.17759492247));
#72 = VECTOR('',#73,1.);
#73 = DIRECTION('',(0.,1.));
#74 = ( GEOMETRIC_REPRESENTATION_CONTEXT(2) 
PARAMETRIC_REPRESENTATION_CONTEXT() REPRESENTATION_CONTEXT('2D SPACE',''
  ) );
#75 = ORIENTED_EDGE('',*,*,#76,.T.);
#76 = EDGE_CURVE('',#61,#77,#79,.T.);
#77 = VERTEX_POINT('',#78);
#78 = CARTESIAN_POINT('',(0.,150.17286944228,0.));
#79 = SURFACE_CURVE('',#80,(#92),.PCURVE_S1.);
#80 = B_SPLINE_CURVE_WITH_KNOTS('',1,(#81,#82,#83,#84,#85,#86,#87,#88,
    #89,#90,#91),.UNSPECIFIED.,.F.,.F.,(2,1,1,1,1,1,1,1,1,1,2),(0.,
    8.887380103901E-02,0.161641952236,0.216447269305,0.329131283887,
    0.408478579557,0.563248705426,0.667011699594,0.773211250595,
    0.918045414857,1.),.UNSPECIFIED.);
#81 = CARTESIAN_POINT('',(1.5E+03,143.17759492247,0.));
#82 = CARTESIAN_POINT('',(1.367639078126E+03,161.84063660603,0.));
#83 = CARTESIAN_POINT('',(1.258281889804E+03,157.41809400576,0.));
#84 = CARTESIAN_POINT('',(1.175931457804E+03,153.80474948352,0.));
#85 = CARTESIAN_POINT('',(1.006937253706E+03,140.95750990593,0.));
#86 = CARTESIAN_POINT('',(887.61249057676,138.93465507554,0.));
#87 = CARTESIAN_POINT('',(655.56129565253,157.35611528343,0.));
#88 = CARTESIAN_POINT('',(500.30824984364,141.46485425438,0.));
#89 = CARTESIAN_POINT('',(340.74745214738,148.7912839336,0.));
#90 = CARTESIAN_POINT('',(123.06874831345,157.09719279347,0.));
#91 = CARTESIAN_POINT('',(0.,150.17286944228,0.));
#92 = PCURVE('',#40,#93);
#93 = DEFINITIONAL_REPRESENTATION('',(#94),#106);
#94 = B_SPLINE_CURVE_WITH_KNOTS('',1,(#95,#96,#97,#98,#99,#100,#101,#102
    ,#103,#104,#105),.UNSPECIFIED.,.F.,.F.,(2,1,1,1,1,1,1,1,1,1,2),(0.,
    8.887380103901E-02,0.161641952236,0.216447269305,0.329131283887,
    0.408478579557,0.563248705426,0.667011699594,0.773211250595,
    0.918045414857,1.),.UNSPECIFIED.);
#95 = CARTESIAN_POINT('',(752.72503478072,68.177594922477));
#96 = CARTESIAN_POINT('',(620.36411290675,86.840636606034));
#97 = CARTESIAN_POINT('',(511.00692458483,82.418094005762));
#98 = CARTESIAN_POINT('',(428.65649258477,78.804749483526));
#99 = CARTESIAN_POINT('',(259.6622884866,65.957509905939));
#100 = CARTESIAN_POINT('',(140.33752535749,63.934655075541));
#101 = CARTESIAN_POINT('',(-91.71366956674,82.35611528343));
#102 = CARTESIAN_POINT('',(-246.9667153756,66.464854254381));
#103 = CARTESIAN_POINT('',(-406.5275130718,73.791283933608));
#104 = CARTESIAN_POINT('',(-624.2062169058,82.097192793472));
#105 = CARTESIAN_POINT('',(-747.2749652192,75.172869442282));
#106 = ( GEOMETRIC_REPRESENTATION_CONTEXT(2) 
PARAMETRIC_REPRESENTATION_CONTEXT() REPRESENTATION_CONTEXT('2D SPACE',''
  ) );
#107 = ORIENTED_EDGE('',*,*,#108,.T.);
#108 = EDGE_CURVE('',#77,#22,#109,.T.);
#109 = SURFACE_CURVE('',#110,(#114),.PCURVE_S1.);
#110 = LINE('',#111,#112);
#111 = CARTESIAN_POINT('',(0.,150.17286944228,0.));
#112 = VECTOR('',#113,1.);
#113 = DIRECTION('',(0.,-1.,0.));
#114 = PCURVE('',#40,#115);
#115 = DEFINITIONAL_REPRESENTATION('',(#116),#120);
#116 = LINE('',#117,#118);
#117 = CARTESIAN_POINT('',(-747.2749652192,75.172869442282));
#118 = VECTOR('',#119,1.);
#119 = DIRECTION('',(0.,-1.));
#120 = ( GEOMETRIC_REPRESENTATION_CONTEXT(2) 
PARAMETRIC_REPRESENTATION_CONTEXT() REPRESENTATION_CONTEXT('2D SPACE',''
  ) );
#121 = ( GEOMETRIC_REPRESENTATION_CONTEXT(3) 
GLOBAL_UNCERTAINTY_ASSIGNED_CONTEXT((#125)) GLOBAL_UNIT_ASSIGNED_CONTEXT
((#122,#123,#124)) REPRESENTATION_CONTEXT('Context #1',
  '3D Context with UNIT and UNCERTAINTY') );
#122 = ( LENGTH_UNIT() NAMED_UNIT(*) SI_UNIT(.MILLI.,.METRE.) );
#123 = ( NAMED_UNIT(*) PLANE_ANGLE_UNIT() SI_UNIT($,.RADIAN.) );
#124 = ( NAMED_UNIT(*) SI_UNIT($,.STERADIAN.) SOLID_ANGLE_UNIT() );
#125 = UNCERTAINTY_MEASURE_WITH_UNIT(LENGTH_MEASURE(1.E-07),#122,
  'distance_accuracy_value','confusion accuracy');
#126 = PRODUCT_RELATED_PRODUCT_CATEGORY('part',$,(#7));
ENDSEC;
END-ISO-10303-21;
