ISO-10303-21;
HEADER;
FILE_DESCRIPTION(('Open CASCADE Model'),'2;1');
FILE_NAME('Open CASCADE Shape Model','2026-06-02T12:09:04',('Author'),(
    'Open CASCADE'),'Open CASCADE STEP processor 7.9','Open CASCADE 7.9'
  ,'Unknown');
FILE_SCHEMA(('AUTOMOTIVE_DESIGN { 1 0 10303 214 1 1 1 1 }'));
ENDSEC;
DATA;
#1 = APPLICATION_PROTOCOL_DEFINITION('international standard',
  'automotive_design',2000,#2);
#2 = APPLICATION_CONTEXT(
  'core data for automotive mechanical design processes');
#3 = SHAPE_DEFINITION_REPRESENTATION(#4,#10);
#4 = PRODUCT_DEFINITION_SHAPE('','',#5);
#5 = PRODUCT_DEFINITION('design','',#6,#9);
#6 = PRODUCT_DEFINITION_FORMATION('','',#7);
#7 = PRODUCT('Open CASCADE STEP translator 7.9 59',
  'Open CASCADE STEP translator 7.9 59','',(#8));
#8 = PRODUCT_CONTEXT('',#2,'mechanical');
#9 = PRODUCT_DEFINITION_CONTEXT('part definition',#2,'design');
#10 = MANIFOLD_SURFACE_SHAPE_REPRESENTATION('',(#11,#15),#121);
#11 = AXIS2_PLACEMENT_3D('',#12,#13,#14);
#12 = CARTESIAN_POINT('',(0.,0.,0.));
#13 = DIRECTION('',(0.,0.,1.));
#14 = DIRECTION('',(1.,0.,-0.));
#15 = SHELL_BASED_SURFACE_MODEL('',(#16));
#16 = OPEN_SHELL('',(#17));
#17 = ADVANCED_FACE('',(#18),#40,.T.);
#18 = FACE_BOUND('',#19,.T.);
#19 = EDGE_LOOP('',(#20,#59,#75,#107));
#20 = ORIENTED_EDGE('',*,*,#21,.T.);
#21 = EDGE_CURVE('',#22,#24,#26,.T.);
#22 = VERTEX_POINT('',#23);
#23 = CARTESIAN_POINT('',(0.,-12.88999862758,0.));
#24 = VERTEX_POINT('',#25);
#25 = CARTESIAN_POINT('',(1.5E+03,-14.90031634557,0.));
#26 = SURFACE_CURVE('',#27,(#39),.PCURVE_S1.);
#27 = B_SPLINE_CURVE_WITH_KNOTS('',1,(#28,#29,#30,#31,#32,#33,#34,#35,
    #36,#37,#38),.UNSPECIFIED.,.F.,.F.,(2,1,1,1,1,1,1,1,1,1,2),(0.,
    6.860892684696E-02,0.182860536546,0.309278154423,0.369556307604,
    0.395279769952,0.45419817438,0.518931072869,0.589910185283,
    0.632702400008,1.),.UNSPECIFIED.);
#28 = CARTESIAN_POINT('',(0.,-12.88999862758,0.));
#29 = CARTESIAN_POINT('',(100.62498597361,12.005068284696,0.));
#30 = CARTESIAN_POINT('',(273.24359397112,11.777911311343,0.));
#31 = CARTESIAN_POINT('',(464.24339937473,11.54020685667,0.));
#32 = CARTESIAN_POINT('',(554.05042602314,-3.587077689309,0.));
#33 = CARTESIAN_POINT('',(589.93381785182,11.340931073711,0.));
#34 = CARTESIAN_POINT('',(676.21247887224,-10.5714695379,0.));
#35 = CARTESIAN_POINT('',(773.97085008968,-7.628145448137,0.));
#36 = CARTESIAN_POINT('',(881.19268145322,-9.594265747141,0.));
#37 = CARTESIAN_POINT('',(945.24254210876,-0.781815806581,0.));
#38 = CARTESIAN_POINT('',(1.5E+03,-14.90031634557,0.));
#39 = PCURVE('',#40,#45);
#40 = PLANE('',#41);
#41 = AXIS2_PLACEMENT_3D('',#42,#43,#44);
#42 = CARTESIAN_POINT('',(749.06011532748,75.,0.));
#43 = DIRECTION('',(0.,0.,1.));
#44 = DIRECTION('',(1.,0.,-0.));
#45 = DEFINITIONAL_REPRESENTATION('',(#46),#58);
#46 = B_SPLINE_CURVE_WITH_KNOTS('',1,(#47,#48,#49,#50,#51,#52,#53,#54,
    #55,#56,#57),.UNSPECIFIED.,.F.,.F.,(2,1,1,1,1,1,1,1,1,1,2),(0.,
    6.860892684696E-02,0.182860536546,0.309278154423,0.369556307604,
    0.395279769952,0.45419817438,0.518931072869,0.589910185283,
    0.632702400008,1.),.UNSPECIFIED.);
#47 = CARTESIAN_POINT('',(-749.0601153274,-87.88999862758));
#48 = CARTESIAN_POINT('',(-648.4351293538,-62.9949317153));
#49 = CARTESIAN_POINT('',(-475.8165213563,-63.22208868865));
#50 = CARTESIAN_POINT('',(-284.8167159527,-63.45979314333));
#51 = CARTESIAN_POINT('',(-195.0096893043,-78.5870776893));
#52 = CARTESIAN_POINT('',(-159.1262974756,-63.65906892628));
#53 = CARTESIAN_POINT('',(-72.84763645523,-85.5714695379));
#54 = CARTESIAN_POINT('',(24.910734762202,-82.62814544813));
#55 = CARTESIAN_POINT('',(132.13256612574,-84.59426574714));
#56 = CARTESIAN_POINT('',(196.18242678128,-75.78181580658));
#57 = CARTESIAN_POINT('',(750.93988467251,-89.90031634557));
#58 = ( GEOMETRIC_REPRESENTATION_CONTEXT(2) 
PARAMETRIC_REPRESENTATION_CONTEXT() REPRESENTATION_CONTEXT('2D SPACE',''
  ) );
#59 = ORIENTED_EDGE('',*,*,#60,.T.);
#60 = EDGE_CURVE('',#24,#61,#63,.T.);
#61 = VERTEX_POINT('',#62);
#62 = CARTESIAN_POINT('',(1.5E+03,164.90031634557,0.));
#63 = SURFACE_CURVE('',#64,(#68),.PCURVE_S1.);
#64 = LINE('',#65,#66);
#65 = CARTESIAN_POINT('',(1.5E+03,-14.90031634557,0.));
#66 = VECTOR('',#67,1.);
#67 = DIRECTION('',(0.,1.,0.));
#68 = PCURVE('',#40,#69);
#69 = DEFINITIONAL_REPRESENTATION('',(#70),#74);
#70 = LINE('',#71,#72);
#71 = CARTESIAN_POINT('',(750.93988467251,-89.90031634557));
#72 = VECTOR('',#73,1.);
#73 = DIRECTION('',(0.,1.));
#74 = ( GEOMETRIC_REPRESENTATION_CONTEXT(2) 
PARAMETRIC_REPRESENTATION_CONTEXT() REPRESENTATION_CONTEXT('2D SPACE',''
  ) );
#75 = ORIENTED_EDGE('',*,*,#76,.T.);
#76 = EDGE_CURVE('',#61,#77,#79,.T.);
#77 = VERTEX_POINT('',#78);
#78 = CARTESIAN_POINT('',(0.,162.88999862758,0.));
#79 = SURFACE_CURVE('',#80,(#92),.PCURVE_S1.);
#80 = B_SPLINE_CURVE_WITH_KNOTS('',1,(#81,#82,#83,#84,#85,#86,#87,#88,
    #89,#90,#91),.UNSPECIFIED.,.F.,.F.,(2,1,1,1,1,1,1,1,1,1,2),(0.,
    0.367297599992,0.410089814717,0.481068927131,0.54580182562,
    0.604720230048,0.630443692396,0.690721845577,0.817139463454,
    0.931391073153,1.),.UNSPECIFIED.);
#81 = CARTESIAN_POINT('',(1.5E+03,164.90031634557,0.));
#82 = CARTESIAN_POINT('',(945.24254210876,150.78181580658,0.));
#83 = CARTESIAN_POINT('',(881.19268145322,159.59426574714,0.));
#84 = CARTESIAN_POINT('',(773.97085008968,157.62814544813,0.));
#85 = CARTESIAN_POINT('',(676.21247887224,160.5714695379,0.));
#86 = CARTESIAN_POINT('',(589.93381785182,138.65906892628,0.));
#87 = CARTESIAN_POINT('',(554.05042602314,153.5870776893,0.));
#88 = CARTESIAN_POINT('',(464.24339937473,138.45979314333,0.));
#89 = CARTESIAN_POINT('',(273.24359397112,138.22208868865,0.));
#90 = CARTESIAN_POINT('',(100.62498597361,137.9949317153,0.));
#91 = CARTESIAN_POINT('',(0.,162.88999862758,0.));
#92 = PCURVE('',#40,#93);
#93 = DEFINITIONAL_REPRESENTATION('',(#94),#106);
#94 = B_SPLINE_CURVE_WITH_KNOTS('',1,(#95,#96,#97,#98,#99,#100,#101,#102
    ,#103,#104,#105),.UNSPECIFIED.,.F.,.F.,(2,1,1,1,1,1,1,1,1,1,2),(0.,
    0.367297599992,0.410089814717,0.481068927131,0.54580182562,
    0.604720230048,0.630443692396,0.690721845577,0.817139463454,
    0.931391073153,1.),.UNSPECIFIED.);
#95 = CARTESIAN_POINT('',(750.93988467251,89.900316345575));
#96 = CARTESIAN_POINT('',(196.18242678128,75.781815806581));
#97 = CARTESIAN_POINT('',(132.13256612574,84.594265747141));
#98 = CARTESIAN_POINT('',(24.910734762202,82.628145448137));
#99 = CARTESIAN_POINT('',(-72.84763645523,85.571469537908));
#100 = CARTESIAN_POINT('',(-159.1262974756,63.659068926289));
#101 = CARTESIAN_POINT('',(-195.0096893043,78.587077689309));
#102 = CARTESIAN_POINT('',(-284.8167159527,63.45979314333));
#103 = CARTESIAN_POINT('',(-475.8165213563,63.222088688657));
#104 = CARTESIAN_POINT('',(-648.4351293538,62.994931715304));
#105 = CARTESIAN_POINT('',(-749.0601153274,87.889998627587));
#106 = ( GEOMETRIC_REPRESENTATION_CONTEXT(2) 
PARAMETRIC_REPRESENTATION_CONTEXT() REPRESENTATION_CONTEXT('2D SPACE',''
  ) );
#107 = ORIENTED_EDGE('',*,*,#108,.T.);
#108 = EDGE_CURVE('',#77,#22,#109,.T.);
#109 = SURFACE_CURVE('',#110,(#114),.PCURVE_S1.);
#110 = LINE('',#111,#112);
#111 = CARTESIAN_POINT('',(0.,162.88999862758,0.));
#112 = VECTOR('',#113,1.);
#113 = DIRECTION('',(0.,-1.,0.));
#114 = PCURVE('',#40,#115);
#115 = DEFINITIONAL_REPRESENTATION('',(#116),#120);
#116 = LINE('',#117,#118);
#117 = CARTESIAN_POINT('',(-749.0601153274,87.889998627587));
#118 = VECTOR('',#119,1.);
#119 = DIRECTION('',(0.,-1.));
#120 = ( GEOMETRIC_REPRESENTATION_CONTEXT(2) 
PARAMETRIC_REPRESENTATION_CONTEXT() REPRESENTATION_CONTEXT('2D SPACE',''
  ) );
#121 = ( GEOMETRIC_REPRESENTATION_CONTEXT(3) 
GLOBAL_UNCERTAINTY_ASSIGNED_CONTEXT((#125)) GLOBAL_UNIT_ASSIGNED_CONTEXT
((#122,#123,#124)) REPRESENTATION_CONTEXT('Context #1',
  '3D Context with UNIT and UNCERTAINTY') );
#122 = ( LENGTH_UNIT() NAMED_UNIT(*) SI_UNIT(.MILLI.,.METRE.) );
#123 = ( NAMED_UNIT(*) PLANE_ANGLE_UNIT() SI_UNIT($,.RADIAN.) );
#124 = ( NAMED_UNIT(*) SI_UNIT($,.STERADIAN.) SOLID_ANGLE_UNIT() );
#125 = UNCERTAINTY_MEASURE_WITH_UNIT(LENGTH_MEASURE(1.E-07),#122,
  'distance_accuracy_value','confusion accuracy');
#126 = PRODUCT_RELATED_PRODUCT_CATEGORY('part',$,(#7));
ENDSEC;
END-ISO-10303-21;
