ISO-10303-21;
HEADER;
FILE_DESCRIPTION(('Open CASCADE Model'),'2;1');
FILE_NAME('Open CASCADE Shape Model','2026-06-02T12:09:04',('Author'),(
    'Open CASCADE'),'Open CASCADE STEP processor 7.9','Open CASCADE 7.9'
  ,'Unknown');
FILE_SCHEMA(('AUTOMOTIVE_DESIGN { 1 0 10303 214 1 1 1 1 }'));
ENDSEC;
DATA;
#1 = APPLICATION_PROTOCOL_DEFINITION('international standard',
  'automotive_design',2000,#2);
#2 = APPLICATION_CONTEXT(
  'core data for automotive mechanical design processes');
#3 = SHAPE_DEFINITION_REPRESENTATION(#4,#10);
#4 = PRODUCT_DEFINITION_SHAPE('','',#5);
#5 = PRODUCT_DEFINITION('design','',#6,#9);
#6 = PRODUCT_DEFINITION_FORMATION('','',#7);
#7 = PRODUCT('Open CASCADE STEP translator 7.9 8',
  'Open CASCADE STEP translator 7.9 8','',(#8));
#8 = PRODUCT_CONTEXT('',#2,'mechanical');
#9 = PRODUCT_DEFINITION_CONTEXT('part definition',#2,'design');
#10 = MANIFOLD_SURFACE_SHAPE_REPRESENTATION('',(#11,#15),#121);
#11 = AXIS2_PLACEMENT_3D('',#12,#13,#14);
#12 = CARTESIAN_POINT('',(0.,0.,0.));
#13 = DIRECTION('',(0.,0.,1.));
#14 = DIRECTION('',(1.,0.,-0.));
#15 = SHELL_BASED_SURFACE_MODEL('',(#16));
#16 = OPEN_SHELL('',(#17));
#17 = ADVANCED_FACE('',(#18),#40,.T.);
#18 = FACE_BOUND('',#19,.T.);
#19 = EDGE_LOOP('',(#20,#59,#75,#107));
#20 = ORIENTED_EDGE('',*,*,#21,.T.);
#21 = EDGE_CURVE('',#22,#24,#26,.T.);
#22 = VERTEX_POINT('',#23);
#23 = CARTESIAN_POINT('',(0.,-4.782679040757,0.));
#24 = VERTEX_POINT('',#25);
#25 = CARTESIAN_POINT('',(1.5E+03,-9.247544161929,0.));
#26 = SURFACE_CURVE('',#27,(#39),.PCURVE_S1.);
#27 = B_SPLINE_CURVE_WITH_KNOTS('',1,(#28,#29,#30,#31,#32,#33,#34,#35,
    #36,#37,#38),.UNSPECIFIED.,.F.,.F.,(2,1,1,1,1,1,1,1,1,1,2),(0.,
    4.990917166901E-02,0.10874638586,0.134117061385,0.255937979295,
    0.435809098466,0.492734040067,0.729148640058,0.759926467073,
    0.956966206772,1.),.UNSPECIFIED.);
#28 = CARTESIAN_POINT('',(0.,-4.782679040757,0.));
#29 = CARTESIAN_POINT('',(75.292658356056,-6.809838428606,0.));
#30 = CARTESIAN_POINT('',(164.07747686207,-8.05942475753,0.));
#31 = CARTESIAN_POINT('',(196.83180890261,11.767771621323,0.));
#32 = CARTESIAN_POINT('',(379.07055353583,-12.48035535412,0.));
#33 = CARTESIAN_POINT('',(649.74051181919,8.093580273154,0.));
#34 = CARTESIAN_POINT('',(735.4532989795,13.877623314715,0.));
#35 = CARTESIAN_POINT('',(1.091898243552E+03,-1.645574081744,0.));
#36 = CARTESIAN_POINT('',(1.138017382073E+03,3.872331484127,0.));
#37 = CARTESIAN_POINT('',(1.435059182427E+03,-9.893692293972,0.));
#38 = CARTESIAN_POINT('',(1.5E+03,-9.247544161929,0.));
#39 = PCURVE('',#40,#45);
#40 = PLANE('',#41);
#41 = AXIS2_PLACEMENT_3D('',#42,#43,#44);
#42 = CARTESIAN_POINT('',(749.75107510993,75.,0.));
#43 = DIRECTION('',(0.,0.,1.));
#44 = DIRECTION('',(1.,0.,-0.));
#45 = DEFINITIONAL_REPRESENTATION('',(#46),#58);
#46 = B_SPLINE_CURVE_WITH_KNOTS('',1,(#47,#48,#49,#50,#51,#52,#53,#54,
    #55,#56,#57),.UNSPECIFIED.,.F.,.F.,(2,1,1,1,1,1,1,1,1,1,2),(0.,
    4.990917166901E-02,0.10874638586,0.134117061385,0.255937979295,
    0.435809098466,0.492734040067,0.729148640058,0.759926467073,
    0.956966206772,1.),.UNSPECIFIED.);
#47 = CARTESIAN_POINT('',(-749.7510751099,-79.78267904075));
#48 = CARTESIAN_POINT('',(-674.4584167538,-81.8098384286));
#49 = CARTESIAN_POINT('',(-585.6735982478,-83.05942475753));
#50 = CARTESIAN_POINT('',(-552.9192662073,-63.23222837867));
#51 = CARTESIAN_POINT('',(-370.6805215741,-87.48035535412));
#52 = CARTESIAN_POINT('',(-100.0105632907,-66.90641972684));
#53 = CARTESIAN_POINT('',(-14.29777613043,-61.12237668528));
#54 = CARTESIAN_POINT('',(342.14716844227,-76.64557408174));
#55 = CARTESIAN_POINT('',(388.26630696344,-71.12766851587));
#56 = CARTESIAN_POINT('',(685.30810731715,-84.89369229397));
#57 = CARTESIAN_POINT('',(750.24892489006,-84.24754416192));
#58 = ( GEOMETRIC_REPRESENTATION_CONTEXT(2) 
PARAMETRIC_REPRESENTATION_CONTEXT() REPRESENTATION_CONTEXT('2D SPACE',''
  ) );
#59 = ORIENTED_EDGE('',*,*,#60,.T.);
#60 = EDGE_CURVE('',#24,#61,#63,.T.);
#61 = VERTEX_POINT('',#62);
#62 = CARTESIAN_POINT('',(1.5E+03,159.24754416192,0.));
#63 = SURFACE_CURVE('',#64,(#68),.PCURVE_S1.);
#64 = LINE('',#65,#66);
#65 = CARTESIAN_POINT('',(1.5E+03,-9.247544161929,0.));
#66 = VECTOR('',#67,1.);
#67 = DIRECTION('',(0.,1.,0.));
#68 = PCURVE('',#40,#69);
#69 = DEFINITIONAL_REPRESENTATION('',(#70),#74);
#70 = LINE('',#71,#72);
#71 = CARTESIAN_POINT('',(750.24892489006,-84.24754416192));
#72 = VECTOR('',#73,1.);
#73 = DIRECTION('',(0.,1.));
#74 = ( GEOMETRIC_REPRESENTATION_CONTEXT(2) 
PARAMETRIC_REPRESENTATION_CONTEXT() REPRESENTATION_CONTEXT('2D SPACE',''
  ) );
#75 = ORIENTED_EDGE('',*,*,#76,.T.);
#76 = EDGE_CURVE('',#61,#77,#79,.T.);
#77 = VERTEX_POINT('',#78);
#78 = CARTESIAN_POINT('',(0.,154.78267904075,0.));
#79 = SURFACE_CURVE('',#80,(#92),.PCURVE_S1.);
#80 = B_SPLINE_CURVE_WITH_KNOTS('',1,(#81,#82,#83,#84,#85,#86,#87,#88,
    #89,#90,#91),.UNSPECIFIED.,.F.,.F.,(2,1,1,1,1,1,1,1,1,1,2),(0.,
    4.303379322837E-02,0.240073532927,0.270851359942,0.507265959933,
    0.564190901534,0.744062020705,0.865882938615,0.89125361414,
    0.950090828331,1.),.UNSPECIFIED.);
#81 = CARTESIAN_POINT('',(1.5E+03,159.24754416192,0.));
#82 = CARTESIAN_POINT('',(1.435059182427E+03,159.89369229397,0.));
#83 = CARTESIAN_POINT('',(1.138017382073E+03,146.12766851587,0.));
#84 = CARTESIAN_POINT('',(1.091898243552E+03,151.64557408174,0.));
#85 = CARTESIAN_POINT('',(735.4532989795,136.12237668528,0.));
#86 = CARTESIAN_POINT('',(649.74051181919,141.90641972684,0.));
#87 = CARTESIAN_POINT('',(379.07055353583,162.48035535412,0.));
#88 = CARTESIAN_POINT('',(196.83180890261,138.23222837867,0.));
#89 = CARTESIAN_POINT('',(164.07747686207,158.05942475753,0.));
#90 = CARTESIAN_POINT('',(75.292658356056,156.8098384286,0.));
#91 = CARTESIAN_POINT('',(0.,154.78267904075,0.));
#92 = PCURVE('',#40,#93);
#93 = DEFINITIONAL_REPRESENTATION('',(#94),#106);
#94 = B_SPLINE_CURVE_WITH_KNOTS('',1,(#95,#96,#97,#98,#99,#100,#101,#102
    ,#103,#104,#105),.UNSPECIFIED.,.F.,.F.,(2,1,1,1,1,1,1,1,1,1,2),(0.,
    4.303379322837E-02,0.240073532927,0.270851359942,0.507265959933,
    0.564190901534,0.744062020705,0.865882938615,0.89125361414,
    0.950090828331,1.),.UNSPECIFIED.);
#95 = CARTESIAN_POINT('',(750.24892489006,84.247544161929));
#96 = CARTESIAN_POINT('',(685.30810731715,84.893692293972));
#97 = CARTESIAN_POINT('',(388.26630696344,71.127668515873));
#98 = CARTESIAN_POINT('',(342.14716844227,76.645574081744));
#99 = CARTESIAN_POINT('',(-14.29777613043,61.122376685285));
#100 = CARTESIAN_POINT('',(-100.0105632907,66.906419726846));
#101 = CARTESIAN_POINT('',(-370.6805215741,87.480355354128));
#102 = CARTESIAN_POINT('',(-552.9192662073,63.232228378677));
#103 = CARTESIAN_POINT('',(-585.6735982478,83.05942475753));
#104 = CARTESIAN_POINT('',(-674.4584167538,81.809838428606));
#105 = CARTESIAN_POINT('',(-749.7510751099,79.782679040757));
#106 = ( GEOMETRIC_REPRESENTATION_CONTEXT(2) 
PARAMETRIC_REPRESENTATION_CONTEXT() REPRESENTATION_CONTEXT('2D SPACE',''
  ) );
#107 = ORIENTED_EDGE('',*,*,#108,.T.);
#108 = EDGE_CURVE('',#77,#22,#109,.T.);
#109 = SURFACE_CURVE('',#110,(#114),.PCURVE_S1.);
#110 = LINE('',#111,#112);
#111 = CARTESIAN_POINT('',(0.,154.78267904075,0.));
#112 = VECTOR('',#113,1.);
#113 = DIRECTION('',(0.,-1.,0.));
#114 = PCURVE('',#40,#115);
#115 = DEFINITIONAL_REPRESENTATION('',(#116),#120);
#116 = LINE('',#117,#118);
#117 = CARTESIAN_POINT('',(-749.7510751099,79.782679040757));
#118 = VECTOR('',#119,1.);
#119 = DIRECTION('',(0.,-1.));
#120 = ( GEOMETRIC_REPRESENTATION_CONTEXT(2) 
PARAMETRIC_REPRESENTATION_CONTEXT() REPRESENTATION_CONTEXT('2D SPACE',''
  ) );
#121 = ( GEOMETRIC_REPRESENTATION_CONTEXT(3) 
GLOBAL_UNCERTAINTY_ASSIGNED_CONTEXT((#125)) GLOBAL_UNIT_ASSIGNED_CONTEXT
((#122,#123,#124)) REPRESENTATION_CONTEXT('Context #1',
  '3D Context with UNIT and UNCERTAINTY') );
#122 = ( LENGTH_UNIT() NAMED_UNIT(*) SI_UNIT(.MILLI.,.METRE.) );
#123 = ( NAMED_UNIT(*) PLANE_ANGLE_UNIT() SI_UNIT($,.RADIAN.) );
#124 = ( NAMED_UNIT(*) SI_UNIT($,.STERADIAN.) SOLID_ANGLE_UNIT() );
#125 = UNCERTAINTY_MEASURE_WITH_UNIT(LENGTH_MEASURE(1.E-07),#122,
  'distance_accuracy_value','confusion accuracy');
#126 = PRODUCT_RELATED_PRODUCT_CATEGORY('part',$,(#7));
ENDSEC;
END-ISO-10303-21;
