ISO-10303-21;
HEADER;
FILE_DESCRIPTION(('Open CASCADE Model'),'2;1');
FILE_NAME('Open CASCADE Shape Model','2026-06-02T12:09:04',('Author'),(
    'Open CASCADE'),'Open CASCADE STEP processor 7.9','Open CASCADE 7.9'
  ,'Unknown');
FILE_SCHEMA(('AUTOMOTIVE_DESIGN { 1 0 10303 214 1 1 1 1 }'));
ENDSEC;
DATA;
#1 = APPLICATION_PROTOCOL_DEFINITION('international standard',
  'automotive_design',2000,#2);
#2 = APPLICATION_CONTEXT(
  'core data for automotive mechanical design processes');
#3 = SHAPE_DEFINITION_REPRESENTATION(#4,#10);
#4 = PRODUCT_DEFINITION_SHAPE('','',#5);
#5 = PRODUCT_DEFINITION('design','',#6,#9);
#6 = PRODUCT_DEFINITION_FORMATION('','',#7);
#7 = PRODUCT('Open CASCADE STEP translator 7.9 48',
  'Open CASCADE STEP translator 7.9 48','',(#8));
#8 = PRODUCT_CONTEXT('',#2,'mechanical');
#9 = PRODUCT_DEFINITION_CONTEXT('part definition',#2,'design');
#10 = MANIFOLD_SURFACE_SHAPE_REPRESENTATION('',(#11,#15),#121);
#11 = AXIS2_PLACEMENT_3D('',#12,#13,#14);
#12 = CARTESIAN_POINT('',(0.,0.,0.));
#13 = DIRECTION('',(0.,0.,1.));
#14 = DIRECTION('',(1.,0.,-0.));
#15 = SHELL_BASED_SURFACE_MODEL('',(#16));
#16 = OPEN_SHELL('',(#17));
#17 = ADVANCED_FACE('',(#18),#40,.T.);
#18 = FACE_BOUND('',#19,.T.);
#19 = EDGE_LOOP('',(#20,#59,#75,#107));
#20 = ORIENTED_EDGE('',*,*,#21,.T.);
#21 = EDGE_CURVE('',#22,#24,#26,.T.);
#22 = VERTEX_POINT('',#23);
#23 = CARTESIAN_POINT('',(0.,13.792387801802,0.));
#24 = VERTEX_POINT('',#25);
#25 = CARTESIAN_POINT('',(1.5E+03,-7.155321380599,0.));
#26 = SURFACE_CURVE('',#27,(#39),.PCURVE_S1.);
#27 = B_SPLINE_CURVE_WITH_KNOTS('',1,(#28,#29,#30,#31,#32,#33,#34,#35,
    #36,#37,#38),.UNSPECIFIED.,.F.,.F.,(2,1,1,1,1,1,1,1,1,1,2),(0.,
    0.205061432858,0.256838175551,0.469320416502,0.545246184204,
    0.597831210611,0.676273786739,0.751893986958,0.792921387561,
    0.833140648112,1.),.UNSPECIFIED.);
#28 = CARTESIAN_POINT('',(0.,13.792387801802,0.));
#29 = CARTESIAN_POINT('',(309.26089899676,1.51101934732,0.));
#30 = CARTESIAN_POINT('',(386.27130881874,-11.77463069062,0.));
#31 = CARTESIAN_POINT('',(706.94775120927,-7.488558567686,0.));
#32 = CARTESIAN_POINT('',(821.31396574509,-14.75423149492,0.));
#33 = CARTESIAN_POINT('',(899.47091852573,-0.942414347917,0.));
#34 = CARTESIAN_POINT('',(1.017803523263E+03,-4.799871564035,0.));
#35 = CARTESIAN_POINT('',(1.131434037901E+03,5.925591565862,0.));
#36 = CARTESIAN_POINT('',(1.190256341396E+03,-13.42606798998,0.));
#37 = CARTESIAN_POINT('',(1.248402373561E+03,4.009935343304,0.));
#38 = CARTESIAN_POINT('',(1.5E+03,-7.155321380599,0.));
#39 = PCURVE('',#40,#45);
#40 = PLANE('',#41);
#41 = AXIS2_PLACEMENT_3D('',#42,#43,#44);
#42 = CARTESIAN_POINT('',(760.91890716699,75.,0.));
#43 = DIRECTION('',(0.,0.,1.));
#44 = DIRECTION('',(1.,0.,-0.));
#45 = DEFINITIONAL_REPRESENTATION('',(#46),#58);
#46 = B_SPLINE_CURVE_WITH_KNOTS('',1,(#47,#48,#49,#50,#51,#52,#53,#54,
    #55,#56,#57),.UNSPECIFIED.,.F.,.F.,(2,1,1,1,1,1,1,1,1,1,2),(0.,
    0.205061432858,0.256838175551,0.469320416502,0.545246184204,
    0.597831210611,0.676273786739,0.751893986958,0.792921387561,
    0.833140648112,1.),.UNSPECIFIED.);
#47 = CARTESIAN_POINT('',(-760.9189071669,-61.20761219819));
#48 = CARTESIAN_POINT('',(-451.6580081702,-73.48898065268));
#49 = CARTESIAN_POINT('',(-374.6475983482,-86.77463069062));
#50 = CARTESIAN_POINT('',(-53.97115595772,-82.48855856768));
#51 = CARTESIAN_POINT('',(60.395058578095,-89.75423149492));
#52 = CARTESIAN_POINT('',(138.55201135874,-75.94241434791));
#53 = CARTESIAN_POINT('',(256.88461609603,-79.79987156403));
#54 = CARTESIAN_POINT('',(370.51513073398,-69.07440843413));
#55 = CARTESIAN_POINT('',(429.33743422865,-88.42606798998));
#56 = CARTESIAN_POINT('',(487.48346639371,-70.99006465669));
#57 = CARTESIAN_POINT('',(739.081092833,-82.15532138059));
#58 = ( GEOMETRIC_REPRESENTATION_CONTEXT(2) 
PARAMETRIC_REPRESENTATION_CONTEXT() REPRESENTATION_CONTEXT('2D SPACE',''
  ) );
#59 = ORIENTED_EDGE('',*,*,#60,.T.);
#60 = EDGE_CURVE('',#24,#61,#63,.T.);
#61 = VERTEX_POINT('',#62);
#62 = CARTESIAN_POINT('',(1.5E+03,157.15532138059,0.));
#63 = SURFACE_CURVE('',#64,(#68),.PCURVE_S1.);
#64 = LINE('',#65,#66);
#65 = CARTESIAN_POINT('',(1.5E+03,-7.155321380599,0.));
#66 = VECTOR('',#67,1.);
#67 = DIRECTION('',(0.,1.,0.));
#68 = PCURVE('',#40,#69);
#69 = DEFINITIONAL_REPRESENTATION('',(#70),#74);
#70 = LINE('',#71,#72);
#71 = CARTESIAN_POINT('',(739.081092833,-82.15532138059));
#72 = VECTOR('',#73,1.);
#73 = DIRECTION('',(0.,1.));
#74 = ( GEOMETRIC_REPRESENTATION_CONTEXT(2) 
PARAMETRIC_REPRESENTATION_CONTEXT() REPRESENTATION_CONTEXT('2D SPACE',''
  ) );
#75 = ORIENTED_EDGE('',*,*,#76,.T.);
#76 = EDGE_CURVE('',#61,#77,#79,.T.);
#77 = VERTEX_POINT('',#78);
#78 = CARTESIAN_POINT('',(0.,136.20761219819,0.));
#79 = SURFACE_CURVE('',#80,(#92),.PCURVE_S1.);
#80 = B_SPLINE_CURVE_WITH_KNOTS('',1,(#81,#82,#83,#84,#85,#86,#87,#88,
    #89,#90,#91),.UNSPECIFIED.,.F.,.F.,(2,1,1,1,1,1,1,1,1,1,2),(0.,
    0.166859351888,0.207078612439,0.248106013042,0.323726213261,
    0.402168789389,0.454753815796,0.530679583498,0.743161824449,
    0.794938567142,1.),.UNSPECIFIED.);
#81 = CARTESIAN_POINT('',(1.5E+03,157.15532138059,0.));
#82 = CARTESIAN_POINT('',(1.248402373561E+03,145.99006465669,0.));
#83 = CARTESIAN_POINT('',(1.190256341396E+03,163.42606798998,0.));
#84 = CARTESIAN_POINT('',(1.131434037901E+03,144.07440843413,0.));
#85 = CARTESIAN_POINT('',(1.017803523263E+03,154.79987156403,0.));
#86 = CARTESIAN_POINT('',(899.47091852573,150.94241434791,0.));
#87 = CARTESIAN_POINT('',(821.31396574509,164.75423149492,0.));
#88 = CARTESIAN_POINT('',(706.94775120927,157.48855856768,0.));
#89 = CARTESIAN_POINT('',(386.27130881874,161.77463069062,0.));
#90 = CARTESIAN_POINT('',(309.26089899676,148.48898065268,0.));
#91 = CARTESIAN_POINT('',(0.,136.20761219819,0.));
#92 = PCURVE('',#40,#93);
#93 = DEFINITIONAL_REPRESENTATION('',(#94),#106);
#94 = B_SPLINE_CURVE_WITH_KNOTS('',1,(#95,#96,#97,#98,#99,#100,#101,#102
    ,#103,#104,#105),.UNSPECIFIED.,.F.,.F.,(2,1,1,1,1,1,1,1,1,1,2),(0.,
    0.166859351888,0.207078612439,0.248106013042,0.323726213261,
    0.402168789389,0.454753815796,0.530679583498,0.743161824449,
    0.794938567142,1.),.UNSPECIFIED.);
#95 = CARTESIAN_POINT('',(739.081092833,82.155321380599));
#96 = CARTESIAN_POINT('',(487.48346639371,70.990064656696));
#97 = CARTESIAN_POINT('',(429.33743422865,88.42606798998));
#98 = CARTESIAN_POINT('',(370.51513073398,69.074408434138));
#99 = CARTESIAN_POINT('',(256.88461609603,79.799871564035));
#100 = CARTESIAN_POINT('',(138.55201135874,75.942414347917));
#101 = CARTESIAN_POINT('',(60.395058578095,89.754231494929));
#102 = CARTESIAN_POINT('',(-53.97115595772,82.488558567686));
#103 = CARTESIAN_POINT('',(-374.6475983482,86.77463069062));
#104 = CARTESIAN_POINT('',(-451.6580081702,73.48898065268));
#105 = CARTESIAN_POINT('',(-760.9189071669,61.207612198198));
#106 = ( GEOMETRIC_REPRESENTATION_CONTEXT(2) 
PARAMETRIC_REPRESENTATION_CONTEXT() REPRESENTATION_CONTEXT('2D SPACE',''
  ) );
#107 = ORIENTED_EDGE('',*,*,#108,.T.);
#108 = EDGE_CURVE('',#77,#22,#109,.T.);
#109 = SURFACE_CURVE('',#110,(#114),.PCURVE_S1.);
#110 = LINE('',#111,#112);
#111 = CARTESIAN_POINT('',(0.,136.20761219819,0.));
#112 = VECTOR('',#113,1.);
#113 = DIRECTION('',(0.,-1.,0.));
#114 = PCURVE('',#40,#115);
#115 = DEFINITIONAL_REPRESENTATION('',(#116),#120);
#116 = LINE('',#117,#118);
#117 = CARTESIAN_POINT('',(-760.9189071669,61.207612198198));
#118 = VECTOR('',#119,1.);
#119 = DIRECTION('',(0.,-1.));
#120 = ( GEOMETRIC_REPRESENTATION_CONTEXT(2) 
PARAMETRIC_REPRESENTATION_CONTEXT() REPRESENTATION_CONTEXT('2D SPACE',''
  ) );
#121 = ( GEOMETRIC_REPRESENTATION_CONTEXT(3) 
GLOBAL_UNCERTAINTY_ASSIGNED_CONTEXT((#125)) GLOBAL_UNIT_ASSIGNED_CONTEXT
((#122,#123,#124)) REPRESENTATION_CONTEXT('Context #1',
  '3D Context with UNIT and UNCERTAINTY') );
#122 = ( LENGTH_UNIT() NAMED_UNIT(*) SI_UNIT(.MILLI.,.METRE.) );
#123 = ( NAMED_UNIT(*) PLANE_ANGLE_UNIT() SI_UNIT($,.RADIAN.) );
#124 = ( NAMED_UNIT(*) SI_UNIT($,.STERADIAN.) SOLID_ANGLE_UNIT() );
#125 = UNCERTAINTY_MEASURE_WITH_UNIT(LENGTH_MEASURE(1.E-07),#122,
  'distance_accuracy_value','confusion accuracy');
#126 = PRODUCT_RELATED_PRODUCT_CATEGORY('part',$,(#7));
ENDSEC;
END-ISO-10303-21;
