ISO-10303-21;
HEADER;
FILE_DESCRIPTION(('Open CASCADE Model'),'2;1');
FILE_NAME('Open CASCADE Shape Model','2026-06-02T12:09:04',('Author'),(
    'Open CASCADE'),'Open CASCADE STEP processor 7.9','Open CASCADE 7.9'
  ,'Unknown');
FILE_SCHEMA(('AUTOMOTIVE_DESIGN { 1 0 10303 214 1 1 1 1 }'));
ENDSEC;
DATA;
#1 = APPLICATION_PROTOCOL_DEFINITION('international standard',
  'automotive_design',2000,#2);
#2 = APPLICATION_CONTEXT(
  'core data for automotive mechanical design processes');
#3 = SHAPE_DEFINITION_REPRESENTATION(#4,#10);
#4 = PRODUCT_DEFINITION_SHAPE('','',#5);
#5 = PRODUCT_DEFINITION('design','',#6,#9);
#6 = PRODUCT_DEFINITION_FORMATION('','',#7);
#7 = PRODUCT('Open CASCADE STEP translator 7.9 79',
  'Open CASCADE STEP translator 7.9 79','',(#8));
#8 = PRODUCT_CONTEXT('',#2,'mechanical');
#9 = PRODUCT_DEFINITION_CONTEXT('part definition',#2,'design');
#10 = MANIFOLD_SURFACE_SHAPE_REPRESENTATION('',(#11,#15),#121);
#11 = AXIS2_PLACEMENT_3D('',#12,#13,#14);
#12 = CARTESIAN_POINT('',(0.,0.,0.));
#13 = DIRECTION('',(0.,0.,1.));
#14 = DIRECTION('',(1.,0.,-0.));
#15 = SHELL_BASED_SURFACE_MODEL('',(#16));
#16 = OPEN_SHELL('',(#17));
#17 = ADVANCED_FACE('',(#18),#40,.T.);
#18 = FACE_BOUND('',#19,.T.);
#19 = EDGE_LOOP('',(#20,#59,#75,#107));
#20 = ORIENTED_EDGE('',*,*,#21,.T.);
#21 = EDGE_CURVE('',#22,#24,#26,.T.);
#22 = VERTEX_POINT('',#23);
#23 = CARTESIAN_POINT('',(0.,-13.15534376883,0.));
#24 = VERTEX_POINT('',#25);
#25 = CARTESIAN_POINT('',(1.5E+03,7.849844119138,0.));
#26 = SURFACE_CURVE('',#27,(#39),.PCURVE_S1.);
#27 = B_SPLINE_CURVE_WITH_KNOTS('',1,(#28,#29,#30,#31,#32,#33,#34,#35,
    #36,#37,#38),.UNSPECIFIED.,.F.,.F.,(2,1,1,1,1,1,1,1,1,1,2),(0.,
    8.87784576803E-02,0.168034725498,0.197238044456,0.228463769858,
    0.433210282536,0.610610248059,0.692091726623,0.89399828655,
    0.920051197597,1.),.UNSPECIFIED.);
#28 = CARTESIAN_POINT('',(0.,-13.15534376883,0.));
#29 = CARTESIAN_POINT('',(133.41222805544,-6.851248972392,0.));
#30 = CARTESIAN_POINT('',(252.3362348507,1.763317545583,0.));
#31 = CARTESIAN_POINT('',(294.28347598081,-11.30034416255,0.));
#32 = CARTESIAN_POINT('',(340.07730845185,-0.823728902177,0.));
#33 = CARTESIAN_POINT('',(648.03536540206,-7.343127834503,0.));
#34 = CARTESIAN_POINT('',(914.91174962661,-9.615178315758,0.));
#35 = CARTESIAN_POINT('',(1.037476447308E+03,-7.48058585097,0.));
#36 = CARTESIAN_POINT('',(1.340915304036E+03,6.364353718555,0.));
#37 = CARTESIAN_POINT('',(1.379776854341E+03,11.464682972825,0.));
#38 = CARTESIAN_POINT('',(1.5E+03,7.849844119138,0.));
#39 = PCURVE('',#40,#45);
#40 = PLANE('',#41);
#41 = AXIS2_PLACEMENT_3D('',#42,#43,#44);
#42 = CARTESIAN_POINT('',(739.68381423788,75.,0.));
#43 = DIRECTION('',(0.,0.,1.));
#44 = DIRECTION('',(1.,0.,-0.));
#45 = DEFINITIONAL_REPRESENTATION('',(#46),#58);
#46 = B_SPLINE_CURVE_WITH_KNOTS('',1,(#47,#48,#49,#50,#51,#52,#53,#54,
    #55,#56,#57),.UNSPECIFIED.,.F.,.F.,(2,1,1,1,1,1,1,1,1,1,2),(0.,
    8.87784576803E-02,0.168034725498,0.197238044456,0.228463769858,
    0.433210282536,0.610610248059,0.692091726623,0.89399828655,
    0.920051197597,1.),.UNSPECIFIED.);
#47 = CARTESIAN_POINT('',(-739.6838142378,-88.15534376883));
#48 = CARTESIAN_POINT('',(-606.2715861824,-81.85124897239));
#49 = CARTESIAN_POINT('',(-487.3475793871,-73.23668245441));
#50 = CARTESIAN_POINT('',(-445.400338257,-86.30034416255));
#51 = CARTESIAN_POINT('',(-399.606505786,-75.82372890217));
#52 = CARTESIAN_POINT('',(-91.64844883581,-82.3431278345));
#53 = CARTESIAN_POINT('',(175.22793538873,-84.61517831575));
#54 = CARTESIAN_POINT('',(297.79263306984,-82.48058585097));
#55 = CARTESIAN_POINT('',(601.23148979823,-68.63564628144));
#56 = CARTESIAN_POINT('',(640.09304010272,-63.53531702717));
#57 = CARTESIAN_POINT('',(760.31618576211,-67.15015588086));
#58 = ( GEOMETRIC_REPRESENTATION_CONTEXT(2) 
PARAMETRIC_REPRESENTATION_CONTEXT() REPRESENTATION_CONTEXT('2D SPACE',''
  ) );
#59 = ORIENTED_EDGE('',*,*,#60,.T.);
#60 = EDGE_CURVE('',#24,#61,#63,.T.);
#61 = VERTEX_POINT('',#62);
#62 = CARTESIAN_POINT('',(1.5E+03,142.15015588086,0.));
#63 = SURFACE_CURVE('',#64,(#68),.PCURVE_S1.);
#64 = LINE('',#65,#66);
#65 = CARTESIAN_POINT('',(1.5E+03,7.849844119138,0.));
#66 = VECTOR('',#67,1.);
#67 = DIRECTION('',(0.,1.,0.));
#68 = PCURVE('',#40,#69);
#69 = DEFINITIONAL_REPRESENTATION('',(#70),#74);
#70 = LINE('',#71,#72);
#71 = CARTESIAN_POINT('',(760.31618576211,-67.15015588086));
#72 = VECTOR('',#73,1.);
#73 = DIRECTION('',(0.,1.));
#74 = ( GEOMETRIC_REPRESENTATION_CONTEXT(2) 
PARAMETRIC_REPRESENTATION_CONTEXT() REPRESENTATION_CONTEXT('2D SPACE',''
  ) );
#75 = ORIENTED_EDGE('',*,*,#76,.T.);
#76 = EDGE_CURVE('',#61,#77,#79,.T.);
#77 = VERTEX_POINT('',#78);
#78 = CARTESIAN_POINT('',(0.,163.15534376883,0.));
#79 = SURFACE_CURVE('',#80,(#92),.PCURVE_S1.);
#80 = B_SPLINE_CURVE_WITH_KNOTS('',1,(#81,#82,#83,#84,#85,#86,#87,#88,
    #89,#90,#91),.UNSPECIFIED.,.F.,.F.,(2,1,1,1,1,1,1,1,1,1,2),(0.,
    7.994880240318E-02,0.10600171345,0.307908273377,0.389389751941,
    0.566789717464,0.771536230142,0.802761955544,0.831965274502,
    0.91122154232,1.),.UNSPECIFIED.);
#81 = CARTESIAN_POINT('',(1.5E+03,142.15015588086,0.));
#82 = CARTESIAN_POINT('',(1.379776854341E+03,138.53531702717,0.));
#83 = CARTESIAN_POINT('',(1.340915304036E+03,143.63564628144,0.));
#84 = CARTESIAN_POINT('',(1.037476447308E+03,157.48058585097,0.));
#85 = CARTESIAN_POINT('',(914.91174962661,159.61517831575,0.));
#86 = CARTESIAN_POINT('',(648.03536540206,157.3431278345,0.));
#87 = CARTESIAN_POINT('',(340.07730845185,150.82372890217,0.));
#88 = CARTESIAN_POINT('',(294.28347598081,161.30034416255,0.));
#89 = CARTESIAN_POINT('',(252.3362348507,148.23668245441,0.));
#90 = CARTESIAN_POINT('',(133.41222805544,156.85124897239,0.));
#91 = CARTESIAN_POINT('',(0.,163.15534376883,0.));
#92 = PCURVE('',#40,#93);
#93 = DEFINITIONAL_REPRESENTATION('',(#94),#106);
#94 = B_SPLINE_CURVE_WITH_KNOTS('',1,(#95,#96,#97,#98,#99,#100,#101,#102
    ,#103,#104,#105),.UNSPECIFIED.,.F.,.F.,(2,1,1,1,1,1,1,1,1,1,2),(0.,
    7.994880240318E-02,0.10600171345,0.307908273377,0.389389751941,
    0.566789717464,0.771536230142,0.802761955544,0.831965274502,
    0.91122154232,1.),.UNSPECIFIED.);
#95 = CARTESIAN_POINT('',(760.31618576211,67.150155880862));
#96 = CARTESIAN_POINT('',(640.09304010272,63.535317027175));
#97 = CARTESIAN_POINT('',(601.23148979823,68.635646281445));
#98 = CARTESIAN_POINT('',(297.79263306984,82.48058585097));
#99 = CARTESIAN_POINT('',(175.22793538873,84.615178315758));
#100 = CARTESIAN_POINT('',(-91.64844883581,82.343127834503));
#101 = CARTESIAN_POINT('',(-399.606505786,75.823728902177));
#102 = CARTESIAN_POINT('',(-445.400338257,86.300344162551));
#103 = CARTESIAN_POINT('',(-487.3475793871,73.236682454417));
#104 = CARTESIAN_POINT('',(-606.2715861824,81.851248972392));
#105 = CARTESIAN_POINT('',(-739.6838142378,88.155343768832));
#106 = ( GEOMETRIC_REPRESENTATION_CONTEXT(2) 
PARAMETRIC_REPRESENTATION_CONTEXT() REPRESENTATION_CONTEXT('2D SPACE',''
  ) );
#107 = ORIENTED_EDGE('',*,*,#108,.T.);
#108 = EDGE_CURVE('',#77,#22,#109,.T.);
#109 = SURFACE_CURVE('',#110,(#114),.PCURVE_S1.);
#110 = LINE('',#111,#112);
#111 = CARTESIAN_POINT('',(0.,163.15534376883,0.));
#112 = VECTOR('',#113,1.);
#113 = DIRECTION('',(0.,-1.,0.));
#114 = PCURVE('',#40,#115);
#115 = DEFINITIONAL_REPRESENTATION('',(#116),#120);
#116 = LINE('',#117,#118);
#117 = CARTESIAN_POINT('',(-739.6838142378,88.155343768832));
#118 = VECTOR('',#119,1.);
#119 = DIRECTION('',(0.,-1.));
#120 = ( GEOMETRIC_REPRESENTATION_CONTEXT(2) 
PARAMETRIC_REPRESENTATION_CONTEXT() REPRESENTATION_CONTEXT('2D SPACE',''
  ) );
#121 = ( GEOMETRIC_REPRESENTATION_CONTEXT(3) 
GLOBAL_UNCERTAINTY_ASSIGNED_CONTEXT((#125)) GLOBAL_UNIT_ASSIGNED_CONTEXT
((#122,#123,#124)) REPRESENTATION_CONTEXT('Context #1',
  '3D Context with UNIT and UNCERTAINTY') );
#122 = ( LENGTH_UNIT() NAMED_UNIT(*) SI_UNIT(.MILLI.,.METRE.) );
#123 = ( NAMED_UNIT(*) PLANE_ANGLE_UNIT() SI_UNIT($,.RADIAN.) );
#124 = ( NAMED_UNIT(*) SI_UNIT($,.STERADIAN.) SOLID_ANGLE_UNIT() );
#125 = UNCERTAINTY_MEASURE_WITH_UNIT(LENGTH_MEASURE(1.E-07),#122,
  'distance_accuracy_value','confusion accuracy');
#126 = PRODUCT_RELATED_PRODUCT_CATEGORY('part',$,(#7));
ENDSEC;
END-ISO-10303-21;
