ISO-10303-21;
HEADER;
FILE_DESCRIPTION(('Open CASCADE Model'),'2;1');
FILE_NAME('Open CASCADE Shape Model','2026-06-02T12:09:04',('Author'),(
    'Open CASCADE'),'Open CASCADE STEP processor 7.9','Open CASCADE 7.9'
  ,'Unknown');
FILE_SCHEMA(('AUTOMOTIVE_DESIGN { 1 0 10303 214 1 1 1 1 }'));
ENDSEC;
DATA;
#1 = APPLICATION_PROTOCOL_DEFINITION('international standard',
  'automotive_design',2000,#2);
#2 = APPLICATION_CONTEXT(
  'core data for automotive mechanical design processes');
#3 = SHAPE_DEFINITION_REPRESENTATION(#4,#10);
#4 = PRODUCT_DEFINITION_SHAPE('','',#5);
#5 = PRODUCT_DEFINITION('design','',#6,#9);
#6 = PRODUCT_DEFINITION_FORMATION('','',#7);
#7 = PRODUCT('Open CASCADE STEP translator 7.9 56',
  'Open CASCADE STEP translator 7.9 56','',(#8));
#8 = PRODUCT_CONTEXT('',#2,'mechanical');
#9 = PRODUCT_DEFINITION_CONTEXT('part definition',#2,'design');
#10 = MANIFOLD_SURFACE_SHAPE_REPRESENTATION('',(#11,#15),#121);
#11 = AXIS2_PLACEMENT_3D('',#12,#13,#14);
#12 = CARTESIAN_POINT('',(0.,0.,0.));
#13 = DIRECTION('',(0.,0.,1.));
#14 = DIRECTION('',(1.,0.,-0.));
#15 = SHELL_BASED_SURFACE_MODEL('',(#16));
#16 = OPEN_SHELL('',(#17));
#17 = ADVANCED_FACE('',(#18),#40,.T.);
#18 = FACE_BOUND('',#19,.T.);
#19 = EDGE_LOOP('',(#20,#59,#75,#107));
#20 = ORIENTED_EDGE('',*,*,#21,.T.);
#21 = EDGE_CURVE('',#22,#24,#26,.T.);
#22 = VERTEX_POINT('',#23);
#23 = CARTESIAN_POINT('',(0.,3.044801295774,0.));
#24 = VERTEX_POINT('',#25);
#25 = CARTESIAN_POINT('',(1.5E+03,8.376062363732,0.));
#26 = SURFACE_CURVE('',#27,(#39),.PCURVE_S1.);
#27 = B_SPLINE_CURVE_WITH_KNOTS('',1,(#28,#29,#30,#31,#32,#33,#34,#35,
    #36,#37,#38),.UNSPECIFIED.,.F.,.F.,(2,1,1,1,1,1,1,1,1,1,2),(0.,
    0.206283356938,0.488542371832,0.532953638644,0.585094096874,
    0.761596486595,0.805905019004,0.826947007831,0.874490032373,
    0.937825261611,1.),.UNSPECIFIED.);
#28 = CARTESIAN_POINT('',(0.,3.044801295774,0.));
#29 = CARTESIAN_POINT('',(310.43346393774,-14.71165372081,0.));
#30 = CARTESIAN_POINT('',(735.12553007538,10.883662266282,0.));
#31 = CARTESIAN_POINT('',(800.25204475249,-4.606194770809,0.));
#32 = CARTESIAN_POINT('',(878.6053344844,1.538114783962,0.));
#33 = CARTESIAN_POINT('',(1.144650648741E+03,3.212454699088,0.));
#34 = CARTESIAN_POINT('',(1.209853821217E+03,-11.25252597162,0.));
#35 = CARTESIAN_POINT('',(1.241427770667E+03,-14.26786937485,0.));
#36 = CARTESIAN_POINT('',(1.313025361716E+03,-11.18576876322,0.));
#37 = CARTESIAN_POINT('',(1.406284911163E+03,9.230979628946,0.));
#38 = CARTESIAN_POINT('',(1.5E+03,8.376062363732,0.));
#39 = PCURVE('',#40,#45);
#40 = PLANE('',#41);
#41 = AXIS2_PLACEMENT_3D('',#42,#43,#44);
#42 = CARTESIAN_POINT('',(748.60841569088,75.,0.));
#43 = DIRECTION('',(0.,0.,1.));
#44 = DIRECTION('',(1.,0.,-0.));
#45 = DEFINITIONAL_REPRESENTATION('',(#46),#58);
#46 = B_SPLINE_CURVE_WITH_KNOTS('',1,(#47,#48,#49,#50,#51,#52,#53,#54,
    #55,#56,#57),.UNSPECIFIED.,.F.,.F.,(2,1,1,1,1,1,1,1,1,1,2),(0.,
    0.206283356938,0.488542371832,0.532953638644,0.585094096874,
    0.761596486595,0.805905019004,0.826947007831,0.874490032373,
    0.937825261611,1.),.UNSPECIFIED.);
#47 = CARTESIAN_POINT('',(-748.6084156908,-71.95519870422));
#48 = CARTESIAN_POINT('',(-438.1749517531,-89.71165372081));
#49 = CARTESIAN_POINT('',(-13.4828856155,-64.11633773371));
#50 = CARTESIAN_POINT('',(51.643629061606,-79.6061947708));
#51 = CARTESIAN_POINT('',(129.99691879351,-73.46188521603));
#52 = CARTESIAN_POINT('',(396.04223304973,-71.78754530091));
#53 = CARTESIAN_POINT('',(461.24540552616,-86.25252597162));
#54 = CARTESIAN_POINT('',(492.81935497566,-89.26786937485));
#55 = CARTESIAN_POINT('',(564.41694602495,-86.18576876322));
#56 = CARTESIAN_POINT('',(657.67649547254,-65.76902037105));
#57 = CARTESIAN_POINT('',(751.39158430911,-66.62393763626));
#58 = ( GEOMETRIC_REPRESENTATION_CONTEXT(2) 
PARAMETRIC_REPRESENTATION_CONTEXT() REPRESENTATION_CONTEXT('2D SPACE',''
  ) );
#59 = ORIENTED_EDGE('',*,*,#60,.T.);
#60 = EDGE_CURVE('',#24,#61,#63,.T.);
#61 = VERTEX_POINT('',#62);
#62 = CARTESIAN_POINT('',(1.5E+03,141.62393763626,0.));
#63 = SURFACE_CURVE('',#64,(#68),.PCURVE_S1.);
#64 = LINE('',#65,#66);
#65 = CARTESIAN_POINT('',(1.5E+03,8.376062363732,0.));
#66 = VECTOR('',#67,1.);
#67 = DIRECTION('',(0.,1.,0.));
#68 = PCURVE('',#40,#69);
#69 = DEFINITIONAL_REPRESENTATION('',(#70),#74);
#70 = LINE('',#71,#72);
#71 = CARTESIAN_POINT('',(751.39158430911,-66.62393763626));
#72 = VECTOR('',#73,1.);
#73 = DIRECTION('',(0.,1.));
#74 = ( GEOMETRIC_REPRESENTATION_CONTEXT(2) 
PARAMETRIC_REPRESENTATION_CONTEXT() REPRESENTATION_CONTEXT('2D SPACE',''
  ) );
#75 = ORIENTED_EDGE('',*,*,#76,.T.);
#76 = EDGE_CURVE('',#61,#77,#79,.T.);
#77 = VERTEX_POINT('',#78);
#78 = CARTESIAN_POINT('',(0.,146.95519870422,0.));
#79 = SURFACE_CURVE('',#80,(#92),.PCURVE_S1.);
#80 = B_SPLINE_CURVE_WITH_KNOTS('',1,(#81,#82,#83,#84,#85,#86,#87,#88,
    #89,#90,#91),.UNSPECIFIED.,.F.,.F.,(2,1,1,1,1,1,1,1,1,1,2),(0.,
    6.217473838895E-02,0.125509967627,0.173052992169,0.194094980996,
    0.238403513405,0.414905903126,0.467046361356,0.511457628168,
    0.793716643062,1.),.UNSPECIFIED.);
#81 = CARTESIAN_POINT('',(1.5E+03,141.62393763626,0.));
#82 = CARTESIAN_POINT('',(1.406284911163E+03,140.76902037105,0.));
#83 = CARTESIAN_POINT('',(1.313025361716E+03,161.18576876322,0.));
#84 = CARTESIAN_POINT('',(1.241427770667E+03,164.26786937485,0.));
#85 = CARTESIAN_POINT('',(1.209853821217E+03,161.25252597162,0.));
#86 = CARTESIAN_POINT('',(1.144650648741E+03,146.78754530091,0.));
#87 = CARTESIAN_POINT('',(878.6053344844,148.46188521603,0.));
#88 = CARTESIAN_POINT('',(800.25204475249,154.6061947708,0.));
#89 = CARTESIAN_POINT('',(735.12553007538,139.11633773371,0.));
#90 = CARTESIAN_POINT('',(310.43346393774,164.71165372081,0.));
#91 = CARTESIAN_POINT('',(0.,146.95519870422,0.));
#92 = PCURVE('',#40,#93);
#93 = DEFINITIONAL_REPRESENTATION('',(#94),#106);
#94 = B_SPLINE_CURVE_WITH_KNOTS('',1,(#95,#96,#97,#98,#99,#100,#101,#102
    ,#103,#104,#105),.UNSPECIFIED.,.F.,.F.,(2,1,1,1,1,1,1,1,1,1,2),(0.,
    6.217473838895E-02,0.125509967627,0.173052992169,0.194094980996,
    0.238403513405,0.414905903126,0.467046361356,0.511457628168,
    0.793716643062,1.),.UNSPECIFIED.);
#95 = CARTESIAN_POINT('',(751.39158430911,66.623937636268));
#96 = CARTESIAN_POINT('',(657.67649547254,65.769020371054));
#97 = CARTESIAN_POINT('',(564.41694602495,86.185768763225));
#98 = CARTESIAN_POINT('',(492.81935497566,89.267869374852));
#99 = CARTESIAN_POINT('',(461.24540552616,86.252525971622));
#100 = CARTESIAN_POINT('',(396.04223304973,71.787545300912));
#101 = CARTESIAN_POINT('',(129.99691879351,73.461885216038));
#102 = CARTESIAN_POINT('',(51.643629061606,79.606194770809));
#103 = CARTESIAN_POINT('',(-13.4828856155,64.116337733718));
#104 = CARTESIAN_POINT('',(-438.1749517531,89.711653720814));
#105 = CARTESIAN_POINT('',(-748.6084156908,71.955198704226));
#106 = ( GEOMETRIC_REPRESENTATION_CONTEXT(2) 
PARAMETRIC_REPRESENTATION_CONTEXT() REPRESENTATION_CONTEXT('2D SPACE',''
  ) );
#107 = ORIENTED_EDGE('',*,*,#108,.T.);
#108 = EDGE_CURVE('',#77,#22,#109,.T.);
#109 = SURFACE_CURVE('',#110,(#114),.PCURVE_S1.);
#110 = LINE('',#111,#112);
#111 = CARTESIAN_POINT('',(0.,146.95519870422,0.));
#112 = VECTOR('',#113,1.);
#113 = DIRECTION('',(0.,-1.,0.));
#114 = PCURVE('',#40,#115);
#115 = DEFINITIONAL_REPRESENTATION('',(#116),#120);
#116 = LINE('',#117,#118);
#117 = CARTESIAN_POINT('',(-748.6084156908,71.955198704226));
#118 = VECTOR('',#119,1.);
#119 = DIRECTION('',(0.,-1.));
#120 = ( GEOMETRIC_REPRESENTATION_CONTEXT(2) 
PARAMETRIC_REPRESENTATION_CONTEXT() REPRESENTATION_CONTEXT('2D SPACE',''
  ) );
#121 = ( GEOMETRIC_REPRESENTATION_CONTEXT(3) 
GLOBAL_UNCERTAINTY_ASSIGNED_CONTEXT((#125)) GLOBAL_UNIT_ASSIGNED_CONTEXT
((#122,#123,#124)) REPRESENTATION_CONTEXT('Context #1',
  '3D Context with UNIT and UNCERTAINTY') );
#122 = ( LENGTH_UNIT() NAMED_UNIT(*) SI_UNIT(.MILLI.,.METRE.) );
#123 = ( NAMED_UNIT(*) PLANE_ANGLE_UNIT() SI_UNIT($,.RADIAN.) );
#124 = ( NAMED_UNIT(*) SI_UNIT($,.STERADIAN.) SOLID_ANGLE_UNIT() );
#125 = UNCERTAINTY_MEASURE_WITH_UNIT(LENGTH_MEASURE(1.E-07),#122,
  'distance_accuracy_value','confusion accuracy');
#126 = PRODUCT_RELATED_PRODUCT_CATEGORY('part',$,(#7));
ENDSEC;
END-ISO-10303-21;
