ISO-10303-21;
HEADER;
FILE_DESCRIPTION(('Open CASCADE Model'),'2;1');
FILE_NAME('Open CASCADE Shape Model','2026-06-02T12:09:04',('Author'),(
    'Open CASCADE'),'Open CASCADE STEP processor 7.9','Open CASCADE 7.9'
  ,'Unknown');
FILE_SCHEMA(('AUTOMOTIVE_DESIGN { 1 0 10303 214 1 1 1 1 }'));
ENDSEC;
DATA;
#1 = APPLICATION_PROTOCOL_DEFINITION('international standard',
  'automotive_design',2000,#2);
#2 = APPLICATION_CONTEXT(
  'core data for automotive mechanical design processes');
#3 = SHAPE_DEFINITION_REPRESENTATION(#4,#10);
#4 = PRODUCT_DEFINITION_SHAPE('','',#5);
#5 = PRODUCT_DEFINITION('design','',#6,#9);
#6 = PRODUCT_DEFINITION_FORMATION('','',#7);
#7 = PRODUCT('Open CASCADE STEP translator 7.9 37',
  'Open CASCADE STEP translator 7.9 37','',(#8));
#8 = PRODUCT_CONTEXT('',#2,'mechanical');
#9 = PRODUCT_DEFINITION_CONTEXT('part definition',#2,'design');
#10 = MANIFOLD_SURFACE_SHAPE_REPRESENTATION('',(#11,#15),#121);
#11 = AXIS2_PLACEMENT_3D('',#12,#13,#14);
#12 = CARTESIAN_POINT('',(0.,0.,0.));
#13 = DIRECTION('',(0.,0.,1.));
#14 = DIRECTION('',(1.,0.,-0.));
#15 = SHELL_BASED_SURFACE_MODEL('',(#16));
#16 = OPEN_SHELL('',(#17));
#17 = ADVANCED_FACE('',(#18),#40,.T.);
#18 = FACE_BOUND('',#19,.T.);
#19 = EDGE_LOOP('',(#20,#59,#75,#107));
#20 = ORIENTED_EDGE('',*,*,#21,.T.);
#21 = EDGE_CURVE('',#22,#24,#26,.T.);
#22 = VERTEX_POINT('',#23);
#23 = CARTESIAN_POINT('',(0.,-3.10273363,0.));
#24 = VERTEX_POINT('',#25);
#25 = CARTESIAN_POINT('',(1.5E+03,12.656748207589,0.));
#26 = SURFACE_CURVE('',#27,(#39),.PCURVE_S1.);
#27 = B_SPLINE_CURVE_WITH_KNOTS('',1,(#28,#29,#30,#31,#32,#33,#34,#35,
    #36,#37,#38),.UNSPECIFIED.,.F.,.F.,(2,1,1,1,1,1,1,1,1,1,2),(0.,
    0.237157724598,0.260890713876,0.291476717376,0.344151419704,
    0.368933724037,0.56766484895,0.73356964814,0.783280649978,
    0.889981841301,1.),.UNSPECIFIED.);
#28 = CARTESIAN_POINT('',(0.,-3.10273363,0.));
#29 = CARTESIAN_POINT('',(358.51475902377,-14.53948600852,0.));
#30 = CARTESIAN_POINT('',(389.15887364847,4.153917640824,0.));
#31 = CARTESIAN_POINT('',(433.39117629651,-9.394780374603,0.));
#32 = CARTESIAN_POINT('',(511.66593997852,5.448026465146,0.));
#33 = CARTESIAN_POINT('',(546.26215247881,-8.976405667245,0.));
#34 = CARTESIAN_POINT('',(846.78070428931,-3.022017565879,0.));
#35 = CARTESIAN_POINT('',(1.097443865411E+03,8.509329143238,0.));
#36 = CARTESIAN_POINT('',(1.172396709389E+03,2.579217186323,0.));
#37 = CARTESIAN_POINT('',(1.333754584915E+03,5.470930969093,0.));
#38 = CARTESIAN_POINT('',(1.5E+03,12.656748207589,0.));
#39 = PCURVE('',#40,#45);
#40 = PLANE('',#41);
#41 = AXIS2_PLACEMENT_3D('',#42,#43,#44);
#42 = CARTESIAN_POINT('',(740.71410928589,75.,0.));
#43 = DIRECTION('',(0.,0.,1.));
#44 = DIRECTION('',(1.,0.,-0.));
#45 = DEFINITIONAL_REPRESENTATION('',(#46),#58);
#46 = B_SPLINE_CURVE_WITH_KNOTS('',1,(#47,#48,#49,#50,#51,#52,#53,#54,
    #55,#56,#57),.UNSPECIFIED.,.F.,.F.,(2,1,1,1,1,1,1,1,1,1,2),(0.,
    0.237157724598,0.260890713876,0.291476717376,0.344151419704,
    0.368933724037,0.56766484895,0.73356964814,0.783280649978,
    0.889981841301,1.),.UNSPECIFIED.);
#47 = CARTESIAN_POINT('',(-740.7141092858,-78.10273363));
#48 = CARTESIAN_POINT('',(-382.1993502621,-89.53948600852));
#49 = CARTESIAN_POINT('',(-351.5552356374,-70.84608235917));
#50 = CARTESIAN_POINT('',(-307.3229329893,-84.3947803746));
#51 = CARTESIAN_POINT('',(-229.0481693073,-69.55197353485));
#52 = CARTESIAN_POINT('',(-194.451956807,-83.97640566724));
#53 = CARTESIAN_POINT('',(106.06659500342,-78.02201756587));
#54 = CARTESIAN_POINT('',(356.72975612503,-66.49067085676));
#55 = CARTESIAN_POINT('',(431.68260010264,-72.42078281367));
#56 = CARTESIAN_POINT('',(593.04047562928,-69.5290690309));
#57 = CARTESIAN_POINT('',(759.2858907141,-62.34325179241));
#58 = ( GEOMETRIC_REPRESENTATION_CONTEXT(2) 
PARAMETRIC_REPRESENTATION_CONTEXT() REPRESENTATION_CONTEXT('2D SPACE',''
  ) );
#59 = ORIENTED_EDGE('',*,*,#60,.T.);
#60 = EDGE_CURVE('',#24,#61,#63,.T.);
#61 = VERTEX_POINT('',#62);
#62 = CARTESIAN_POINT('',(1.5E+03,137.34325179241,0.));
#63 = SURFACE_CURVE('',#64,(#68),.PCURVE_S1.);
#64 = LINE('',#65,#66);
#65 = CARTESIAN_POINT('',(1.5E+03,12.656748207589,0.));
#66 = VECTOR('',#67,1.);
#67 = DIRECTION('',(0.,1.,0.));
#68 = PCURVE('',#40,#69);
#69 = DEFINITIONAL_REPRESENTATION('',(#70),#74);
#70 = LINE('',#71,#72);
#71 = CARTESIAN_POINT('',(759.2858907141,-62.34325179241));
#72 = VECTOR('',#73,1.);
#73 = DIRECTION('',(0.,1.));
#74 = ( GEOMETRIC_REPRESENTATION_CONTEXT(2) 
PARAMETRIC_REPRESENTATION_CONTEXT() REPRESENTATION_CONTEXT('2D SPACE',''
  ) );
#75 = ORIENTED_EDGE('',*,*,#76,.T.);
#76 = EDGE_CURVE('',#61,#77,#79,.T.);
#77 = VERTEX_POINT('',#78);
#78 = CARTESIAN_POINT('',(0.,153.10273363,0.));
#79 = SURFACE_CURVE('',#80,(#92),.PCURVE_S1.);
#80 = B_SPLINE_CURVE_WITH_KNOTS('',1,(#81,#82,#83,#84,#85,#86,#87,#88,
    #89,#90,#91),.UNSPECIFIED.,.F.,.F.,(2,1,1,1,1,1,1,1,1,1,2),(0.,
    0.110018158699,0.216719350022,0.26643035186,0.43233515105,
    0.631066275963,0.655848580296,0.708523282624,0.739109286124,
    0.762842275402,1.),.UNSPECIFIED.);
#81 = CARTESIAN_POINT('',(1.5E+03,137.34325179241,0.));
#82 = CARTESIAN_POINT('',(1.333754584915E+03,144.5290690309,0.));
#83 = CARTESIAN_POINT('',(1.172396709389E+03,147.42078281367,0.));
#84 = CARTESIAN_POINT('',(1.097443865411E+03,141.49067085676,0.));
#85 = CARTESIAN_POINT('',(846.78070428931,153.02201756587,0.));
#86 = CARTESIAN_POINT('',(546.26215247881,158.97640566724,0.));
#87 = CARTESIAN_POINT('',(511.66593997852,144.55197353485,0.));
#88 = CARTESIAN_POINT('',(433.39117629651,159.3947803746,0.));
#89 = CARTESIAN_POINT('',(389.15887364847,145.84608235917,0.));
#90 = CARTESIAN_POINT('',(358.51475902377,164.53948600852,0.));
#91 = CARTESIAN_POINT('',(0.,153.10273363,0.));
#92 = PCURVE('',#40,#93);
#93 = DEFINITIONAL_REPRESENTATION('',(#94),#106);
#94 = B_SPLINE_CURVE_WITH_KNOTS('',1,(#95,#96,#97,#98,#99,#100,#101,#102
    ,#103,#104,#105),.UNSPECIFIED.,.F.,.F.,(2,1,1,1,1,1,1,1,1,1,2),(0.,
    0.110018158699,0.216719350022,0.26643035186,0.43233515105,
    0.631066275963,0.655848580296,0.708523282624,0.739109286124,
    0.762842275402,1.),.UNSPECIFIED.);
#95 = CARTESIAN_POINT('',(759.2858907141,62.343251792411));
#96 = CARTESIAN_POINT('',(593.04047562928,69.529069030907));
#97 = CARTESIAN_POINT('',(431.68260010264,72.420782813677));
#98 = CARTESIAN_POINT('',(356.72975612503,66.490670856762));
#99 = CARTESIAN_POINT('',(106.06659500342,78.022017565879));
#100 = CARTESIAN_POINT('',(-194.451956807,83.976405667245));
#101 = CARTESIAN_POINT('',(-229.0481693073,69.551973534854));
#102 = CARTESIAN_POINT('',(-307.3229329893,84.394780374603));
#103 = CARTESIAN_POINT('',(-351.5552356374,70.846082359176));
#104 = CARTESIAN_POINT('',(-382.1993502621,89.539486008529));
#105 = CARTESIAN_POINT('',(-740.7141092858,78.10273363));
#106 = ( GEOMETRIC_REPRESENTATION_CONTEXT(2) 
PARAMETRIC_REPRESENTATION_CONTEXT() REPRESENTATION_CONTEXT('2D SPACE',''
  ) );
#107 = ORIENTED_EDGE('',*,*,#108,.T.);
#108 = EDGE_CURVE('',#77,#22,#109,.T.);
#109 = SURFACE_CURVE('',#110,(#114),.PCURVE_S1.);
#110 = LINE('',#111,#112);
#111 = CARTESIAN_POINT('',(0.,153.10273363,0.));
#112 = VECTOR('',#113,1.);
#113 = DIRECTION('',(0.,-1.,0.));
#114 = PCURVE('',#40,#115);
#115 = DEFINITIONAL_REPRESENTATION('',(#116),#120);
#116 = LINE('',#117,#118);
#117 = CARTESIAN_POINT('',(-740.7141092858,78.10273363));
#118 = VECTOR('',#119,1.);
#119 = DIRECTION('',(0.,-1.));
#120 = ( GEOMETRIC_REPRESENTATION_CONTEXT(2) 
PARAMETRIC_REPRESENTATION_CONTEXT() REPRESENTATION_CONTEXT('2D SPACE',''
  ) );
#121 = ( GEOMETRIC_REPRESENTATION_CONTEXT(3) 
GLOBAL_UNCERTAINTY_ASSIGNED_CONTEXT((#125)) GLOBAL_UNIT_ASSIGNED_CONTEXT
((#122,#123,#124)) REPRESENTATION_CONTEXT('Context #1',
  '3D Context with UNIT and UNCERTAINTY') );
#122 = ( LENGTH_UNIT() NAMED_UNIT(*) SI_UNIT(.MILLI.,.METRE.) );
#123 = ( NAMED_UNIT(*) PLANE_ANGLE_UNIT() SI_UNIT($,.RADIAN.) );
#124 = ( NAMED_UNIT(*) SI_UNIT($,.STERADIAN.) SOLID_ANGLE_UNIT() );
#125 = UNCERTAINTY_MEASURE_WITH_UNIT(LENGTH_MEASURE(1.E-07),#122,
  'distance_accuracy_value','confusion accuracy');
#126 = PRODUCT_RELATED_PRODUCT_CATEGORY('part',$,(#7));
ENDSEC;
END-ISO-10303-21;
