ISO-10303-21;
HEADER;
FILE_DESCRIPTION(('Open CASCADE Model'),'2;1');
FILE_NAME('Open CASCADE Shape Model','2026-06-02T12:09:04',('Author'),(
    'Open CASCADE'),'Open CASCADE STEP processor 7.9','Open CASCADE 7.9'
  ,'Unknown');
FILE_SCHEMA(('AUTOMOTIVE_DESIGN { 1 0 10303 214 1 1 1 1 }'));
ENDSEC;
DATA;
#1 = APPLICATION_PROTOCOL_DEFINITION('international standard',
  'automotive_design',2000,#2);
#2 = APPLICATION_CONTEXT(
  'core data for automotive mechanical design processes');
#3 = SHAPE_DEFINITION_REPRESENTATION(#4,#10);
#4 = PRODUCT_DEFINITION_SHAPE('','',#5);
#5 = PRODUCT_DEFINITION('design','',#6,#9);
#6 = PRODUCT_DEFINITION_FORMATION('','',#7);
#7 = PRODUCT('Open CASCADE STEP translator 7.9 87',
  'Open CASCADE STEP translator 7.9 87','',(#8));
#8 = PRODUCT_CONTEXT('',#2,'mechanical');
#9 = PRODUCT_DEFINITION_CONTEXT('part definition',#2,'design');
#10 = MANIFOLD_SURFACE_SHAPE_REPRESENTATION('',(#11,#15),#121);
#11 = AXIS2_PLACEMENT_3D('',#12,#13,#14);
#12 = CARTESIAN_POINT('',(0.,0.,0.));
#13 = DIRECTION('',(0.,0.,1.));
#14 = DIRECTION('',(1.,0.,-0.));
#15 = SHELL_BASED_SURFACE_MODEL('',(#16));
#16 = OPEN_SHELL('',(#17));
#17 = ADVANCED_FACE('',(#18),#40,.T.);
#18 = FACE_BOUND('',#19,.T.);
#19 = EDGE_LOOP('',(#20,#59,#75,#107));
#20 = ORIENTED_EDGE('',*,*,#21,.T.);
#21 = EDGE_CURVE('',#22,#24,#26,.T.);
#22 = VERTEX_POINT('',#23);
#23 = CARTESIAN_POINT('',(0.,-13.23228854294,0.));
#24 = VERTEX_POINT('',#25);
#25 = CARTESIAN_POINT('',(1.5E+03,-7.682794431386,0.));
#26 = SURFACE_CURVE('',#27,(#39),.PCURVE_S1.);
#27 = B_SPLINE_CURVE_WITH_KNOTS('',1,(#28,#29,#30,#31,#32,#33,#34,#35,
    #36,#37,#38),.UNSPECIFIED.,.F.,.F.,(2,1,1,1,1,1,1,1,1,1,2),(0.,
    4.286082850109E-02,0.137915157026,0.167905092844,0.188830386368,
    0.292377205842,0.770822317992,0.865048005717,0.896331955696,
    0.956499530431,1.),.UNSPECIFIED.);
#28 = CARTESIAN_POINT('',(0.,-13.23228854294,0.));
#29 = CARTESIAN_POINT('',(60.608341471685,9.979050010675,0.));
#30 = CARTESIAN_POINT('',(203.88109044166,-3.799176530924,0.));
#31 = CARTESIAN_POINT('',(248.38941994417,5.212849135078,0.));
#32 = CARTESIAN_POINT('',(278.63000552513,-4.246839778931,0.));
#33 = CARTESIAN_POINT('',(435.27231362379,2.632242106078,0.));
#34 = CARTESIAN_POINT('',(1.159671379019E+03,-7.789291569192,0.));
#35 = CARTESIAN_POINT('',(1.30146513918E+03,8.079626240164,0.));
#36 = CARTESIAN_POINT('',(1.344288139426E+03,-12.17375558742,0.));
#37 = CARTESIAN_POINT('',(1.434579301361E+03,-6.289479400563E-03,0.));
#38 = CARTESIAN_POINT('',(1.5E+03,-7.682794431386,0.));
#39 = PCURVE('',#40,#45);
#40 = PLANE('',#41);
#41 = AXIS2_PLACEMENT_3D('',#42,#43,#44);
#42 = CARTESIAN_POINT('',(747.0227266606,75.,0.));
#43 = DIRECTION('',(0.,0.,1.));
#44 = DIRECTION('',(1.,0.,-0.));
#45 = DEFINITIONAL_REPRESENTATION('',(#46),#58);
#46 = B_SPLINE_CURVE_WITH_KNOTS('',1,(#47,#48,#49,#50,#51,#52,#53,#54,
    #55,#56,#57),.UNSPECIFIED.,.F.,.F.,(2,1,1,1,1,1,1,1,1,1,2),(0.,
    4.286082850109E-02,0.137915157026,0.167905092844,0.188830386368,
    0.292377205842,0.770822317992,0.865048005717,0.896331955696,
    0.956499530431,1.),.UNSPECIFIED.);
#47 = CARTESIAN_POINT('',(-747.0227266606,-88.23228854294));
#48 = CARTESIAN_POINT('',(-686.4143851889,-65.02094998932));
#49 = CARTESIAN_POINT('',(-543.1416362189,-78.79917653092));
#50 = CARTESIAN_POINT('',(-498.6333067164,-69.78715086492));
#51 = CARTESIAN_POINT('',(-468.3927211354,-79.24683977893));
#52 = CARTESIAN_POINT('',(-311.7504130368,-72.36775789392));
#53 = CARTESIAN_POINT('',(412.64865235803,-82.78929156919));
#54 = CARTESIAN_POINT('',(554.44241251922,-66.92037375983));
#55 = CARTESIAN_POINT('',(597.26541276523,-87.17375558742));
#56 = CARTESIAN_POINT('',(687.55657469993,-75.0062894794));
#57 = CARTESIAN_POINT('',(752.97727333939,-82.68279443138));
#58 = ( GEOMETRIC_REPRESENTATION_CONTEXT(2) 
PARAMETRIC_REPRESENTATION_CONTEXT() REPRESENTATION_CONTEXT('2D SPACE',''
  ) );
#59 = ORIENTED_EDGE('',*,*,#60,.T.);
#60 = EDGE_CURVE('',#24,#61,#63,.T.);
#61 = VERTEX_POINT('',#62);
#62 = CARTESIAN_POINT('',(1.5E+03,157.68279443138,0.));
#63 = SURFACE_CURVE('',#64,(#68),.PCURVE_S1.);
#64 = LINE('',#65,#66);
#65 = CARTESIAN_POINT('',(1.5E+03,-7.682794431386,0.));
#66 = VECTOR('',#67,1.);
#67 = DIRECTION('',(0.,1.,0.));
#68 = PCURVE('',#40,#69);
#69 = DEFINITIONAL_REPRESENTATION('',(#70),#74);
#70 = LINE('',#71,#72);
#71 = CARTESIAN_POINT('',(752.97727333939,-82.68279443138));
#72 = VECTOR('',#73,1.);
#73 = DIRECTION('',(0.,1.));
#74 = ( GEOMETRIC_REPRESENTATION_CONTEXT(2) 
PARAMETRIC_REPRESENTATION_CONTEXT() REPRESENTATION_CONTEXT('2D SPACE',''
  ) );
#75 = ORIENTED_EDGE('',*,*,#76,.T.);
#76 = EDGE_CURVE('',#61,#77,#79,.T.);
#77 = VERTEX_POINT('',#78);
#78 = CARTESIAN_POINT('',(0.,163.23228854294,0.));
#79 = SURFACE_CURVE('',#80,(#92),.PCURVE_S1.);
#80 = B_SPLINE_CURVE_WITH_KNOTS('',1,(#81,#82,#83,#84,#85,#86,#87,#88,
    #89,#90,#91),.UNSPECIFIED.,.F.,.F.,(2,1,1,1,1,1,1,1,1,1,2),(0.,
    4.350046956897E-02,0.103668044304,0.134951994283,0.229177682008,
    0.707622794158,0.811169613632,0.832094907156,0.862084842974,
    0.957139171499,1.),.UNSPECIFIED.);
#81 = CARTESIAN_POINT('',(1.5E+03,157.68279443138,0.));
#82 = CARTESIAN_POINT('',(1.434579301361E+03,150.0062894794,0.));
#83 = CARTESIAN_POINT('',(1.344288139426E+03,162.17375558742,0.));
#84 = CARTESIAN_POINT('',(1.30146513918E+03,141.92037375983,0.));
#85 = CARTESIAN_POINT('',(1.159671379019E+03,157.78929156919,0.));
#86 = CARTESIAN_POINT('',(435.27231362379,147.36775789392,0.));
#87 = CARTESIAN_POINT('',(278.63000552513,154.24683977893,0.));
#88 = CARTESIAN_POINT('',(248.38941994417,144.78715086492,0.));
#89 = CARTESIAN_POINT('',(203.88109044166,153.79917653092,0.));
#90 = CARTESIAN_POINT('',(60.608341471685,140.02094998932,0.));
#91 = CARTESIAN_POINT('',(0.,163.23228854294,0.));
#92 = PCURVE('',#40,#93);
#93 = DEFINITIONAL_REPRESENTATION('',(#94),#106);
#94 = B_SPLINE_CURVE_WITH_KNOTS('',1,(#95,#96,#97,#98,#99,#100,#101,#102
    ,#103,#104,#105),.UNSPECIFIED.,.F.,.F.,(2,1,1,1,1,1,1,1,1,1,2),(0.,
    4.350046956897E-02,0.103668044304,0.134951994283,0.229177682008,
    0.707622794158,0.811169613632,0.832094907156,0.862084842974,
    0.957139171499,1.),.UNSPECIFIED.);
#95 = CARTESIAN_POINT('',(752.97727333939,82.682794431386));
#96 = CARTESIAN_POINT('',(687.55657469993,75.006289479401));
#97 = CARTESIAN_POINT('',(597.26541276523,87.173755587428));
#98 = CARTESIAN_POINT('',(554.44241251922,66.920373759836));
#99 = CARTESIAN_POINT('',(412.64865235803,82.789291569192));
#100 = CARTESIAN_POINT('',(-311.7504130368,72.367757893922));
#101 = CARTESIAN_POINT('',(-468.3927211354,79.246839778931));
#102 = CARTESIAN_POINT('',(-498.6333067164,69.787150864922));
#103 = CARTESIAN_POINT('',(-543.1416362189,78.799176530924));
#104 = CARTESIAN_POINT('',(-686.4143851889,65.020949989325));
#105 = CARTESIAN_POINT('',(-747.0227266606,88.232288542941));
#106 = ( GEOMETRIC_REPRESENTATION_CONTEXT(2) 
PARAMETRIC_REPRESENTATION_CONTEXT() REPRESENTATION_CONTEXT('2D SPACE',''
  ) );
#107 = ORIENTED_EDGE('',*,*,#108,.T.);
#108 = EDGE_CURVE('',#77,#22,#109,.T.);
#109 = SURFACE_CURVE('',#110,(#114),.PCURVE_S1.);
#110 = LINE('',#111,#112);
#111 = CARTESIAN_POINT('',(0.,163.23228854294,0.));
#112 = VECTOR('',#113,1.);
#113 = DIRECTION('',(0.,-1.,0.));
#114 = PCURVE('',#40,#115);
#115 = DEFINITIONAL_REPRESENTATION('',(#116),#120);
#116 = LINE('',#117,#118);
#117 = CARTESIAN_POINT('',(-747.0227266606,88.232288542941));
#118 = VECTOR('',#119,1.);
#119 = DIRECTION('',(0.,-1.));
#120 = ( GEOMETRIC_REPRESENTATION_CONTEXT(2) 
PARAMETRIC_REPRESENTATION_CONTEXT() REPRESENTATION_CONTEXT('2D SPACE',''
  ) );
#121 = ( GEOMETRIC_REPRESENTATION_CONTEXT(3) 
GLOBAL_UNCERTAINTY_ASSIGNED_CONTEXT((#125)) GLOBAL_UNIT_ASSIGNED_CONTEXT
((#122,#123,#124)) REPRESENTATION_CONTEXT('Context #1',
  '3D Context with UNIT and UNCERTAINTY') );
#122 = ( LENGTH_UNIT() NAMED_UNIT(*) SI_UNIT(.MILLI.,.METRE.) );
#123 = ( NAMED_UNIT(*) PLANE_ANGLE_UNIT() SI_UNIT($,.RADIAN.) );
#124 = ( NAMED_UNIT(*) SI_UNIT($,.STERADIAN.) SOLID_ANGLE_UNIT() );
#125 = UNCERTAINTY_MEASURE_WITH_UNIT(LENGTH_MEASURE(1.E-07),#122,
  'distance_accuracy_value','confusion accuracy');
#126 = PRODUCT_RELATED_PRODUCT_CATEGORY('part',$,(#7));
ENDSEC;
END-ISO-10303-21;
