ISO-10303-21;
HEADER;
FILE_DESCRIPTION(('Open CASCADE Model'),'2;1');
FILE_NAME('Open CASCADE Shape Model','2026-06-02T12:09:04',('Author'),(
    'Open CASCADE'),'Open CASCADE STEP processor 7.9','Open CASCADE 7.9'
  ,'Unknown');
FILE_SCHEMA(('AUTOMOTIVE_DESIGN { 1 0 10303 214 1 1 1 1 }'));
ENDSEC;
DATA;
#1 = APPLICATION_PROTOCOL_DEFINITION('international standard',
  'automotive_design',2000,#2);
#2 = APPLICATION_CONTEXT(
  'core data for automotive mechanical design processes');
#3 = SHAPE_DEFINITION_REPRESENTATION(#4,#10);
#4 = PRODUCT_DEFINITION_SHAPE('','',#5);
#5 = PRODUCT_DEFINITION('design','',#6,#9);
#6 = PRODUCT_DEFINITION_FORMATION('','',#7);
#7 = PRODUCT('Open CASCADE STEP translator 7.9 4',
  'Open CASCADE STEP translator 7.9 4','',(#8));
#8 = PRODUCT_CONTEXT('',#2,'mechanical');
#9 = PRODUCT_DEFINITION_CONTEXT('part definition',#2,'design');
#10 = MANIFOLD_SURFACE_SHAPE_REPRESENTATION('',(#11,#15),#121);
#11 = AXIS2_PLACEMENT_3D('',#12,#13,#14);
#12 = CARTESIAN_POINT('',(0.,0.,0.));
#13 = DIRECTION('',(0.,0.,1.));
#14 = DIRECTION('',(1.,0.,-0.));
#15 = SHELL_BASED_SURFACE_MODEL('',(#16));
#16 = OPEN_SHELL('',(#17));
#17 = ADVANCED_FACE('',(#18),#40,.T.);
#18 = FACE_BOUND('',#19,.T.);
#19 = EDGE_LOOP('',(#20,#59,#75,#107));
#20 = ORIENTED_EDGE('',*,*,#21,.T.);
#21 = EDGE_CURVE('',#22,#24,#26,.T.);
#22 = VERTEX_POINT('',#23);
#23 = CARTESIAN_POINT('',(0.,7.98181542404,0.));
#24 = VERTEX_POINT('',#25);
#25 = CARTESIAN_POINT('',(1.5E+03,9.990812402769,0.));
#26 = SURFACE_CURVE('',#27,(#39),.PCURVE_S1.);
#27 = B_SPLINE_CURVE_WITH_KNOTS('',1,(#28,#29,#30,#31,#32,#33,#34,#35,
    #36,#37,#38),.UNSPECIFIED.,.F.,.F.,(2,1,1,1,1,1,1,1,1,1,2),(0.,
    0.287267951094,0.413347106552,0.516101822008,0.588955512817,
    0.638780416038,0.661429202037,0.729579157355,0.781070660985,
    0.877277958606,1.),.UNSPECIFIED.);
#28 = CARTESIAN_POINT('',(0.,7.98181542404,0.));
#29 = CARTESIAN_POINT('',(431.86231720978,13.250917749328,0.));
#30 = CARTESIAN_POINT('',(621.29848483992,6.55848323934,0.));
#31 = CARTESIAN_POINT('',(775.7851493457,6.192187266999,0.));
#32 = CARTESIAN_POINT('',(884.7586259864,-4.857495441807,0.));
#33 = CARTESIAN_POINT('',(959.60201646338,-1.710964570238,0.));
#34 = CARTESIAN_POINT('',(992.96634856237,-8.516946273192,0.));
#35 = CARTESIAN_POINT('',(1.095363918781E+03,-4.929406209822,0.));
#36 = CARTESIAN_POINT('',(1.172391406396E+03,2.808394156798,0.));
#37 = CARTESIAN_POINT('',(1.316516873148E+03,-9.420611539981,0.));
#38 = CARTESIAN_POINT('',(1.5E+03,9.990812402769,0.));
#39 = PCURVE('',#40,#45);
#40 = PLANE('',#41);
#41 = AXIS2_PLACEMENT_3D('',#42,#43,#44);
#42 = CARTESIAN_POINT('',(749.85250303523,75.,0.));
#43 = DIRECTION('',(0.,0.,1.));
#44 = DIRECTION('',(1.,0.,-0.));
#45 = DEFINITIONAL_REPRESENTATION('',(#46),#58);
#46 = B_SPLINE_CURVE_WITH_KNOTS('',1,(#47,#48,#49,#50,#51,#52,#53,#54,
    #55,#56,#57),.UNSPECIFIED.,.F.,.F.,(2,1,1,1,1,1,1,1,1,1,2),(0.,
    0.287267951094,0.413347106552,0.516101822008,0.588955512817,
    0.638780416038,0.661429202037,0.729579157355,0.781070660985,
    0.877277958606,1.),.UNSPECIFIED.);
#47 = CARTESIAN_POINT('',(-749.8525030352,-67.01818457596));
#48 = CARTESIAN_POINT('',(-317.9901858254,-61.74908225067));
#49 = CARTESIAN_POINT('',(-128.5540181953,-68.44151676066));
#50 = CARTESIAN_POINT('',(25.932646310465,-68.807812733));
#51 = CARTESIAN_POINT('',(134.90612295116,-79.8574954418));
#52 = CARTESIAN_POINT('',(209.74951342814,-76.71096457023));
#53 = CARTESIAN_POINT('',(243.11384552713,-83.51694627319));
#54 = CARTESIAN_POINT('',(345.51141574617,-79.92940620982));
#55 = CARTESIAN_POINT('',(422.53890336121,-72.1916058432));
#56 = CARTESIAN_POINT('',(566.66437011319,-84.42061153998));
#57 = CARTESIAN_POINT('',(750.14749696476,-65.00918759723));
#58 = ( GEOMETRIC_REPRESENTATION_CONTEXT(2) 
PARAMETRIC_REPRESENTATION_CONTEXT() REPRESENTATION_CONTEXT('2D SPACE',''
  ) );
#59 = ORIENTED_EDGE('',*,*,#60,.T.);
#60 = EDGE_CURVE('',#24,#61,#63,.T.);
#61 = VERTEX_POINT('',#62);
#62 = CARTESIAN_POINT('',(1.5E+03,140.00918759723,0.));
#63 = SURFACE_CURVE('',#64,(#68),.PCURVE_S1.);
#64 = LINE('',#65,#66);
#65 = CARTESIAN_POINT('',(1.5E+03,9.990812402769,0.));
#66 = VECTOR('',#67,1.);
#67 = DIRECTION('',(0.,1.,0.));
#68 = PCURVE('',#40,#69);
#69 = DEFINITIONAL_REPRESENTATION('',(#70),#74);
#70 = LINE('',#71,#72);
#71 = CARTESIAN_POINT('',(750.14749696476,-65.00918759723));
#72 = VECTOR('',#73,1.);
#73 = DIRECTION('',(0.,1.));
#74 = ( GEOMETRIC_REPRESENTATION_CONTEXT(2) 
PARAMETRIC_REPRESENTATION_CONTEXT() REPRESENTATION_CONTEXT('2D SPACE',''
  ) );
#75 = ORIENTED_EDGE('',*,*,#76,.T.);
#76 = EDGE_CURVE('',#61,#77,#79,.T.);
#77 = VERTEX_POINT('',#78);
#78 = CARTESIAN_POINT('',(0.,142.01818457596,0.));
#79 = SURFACE_CURVE('',#80,(#92),.PCURVE_S1.);
#80 = B_SPLINE_CURVE_WITH_KNOTS('',1,(#81,#82,#83,#84,#85,#86,#87,#88,
    #89,#90,#91),.UNSPECIFIED.,.F.,.F.,(2,1,1,1,1,1,1,1,1,1,2),(0.,
    0.122722041394,0.218929339015,0.270420842645,0.338570797963,
    0.361219583962,0.411044487183,0.483898177992,0.586652893448,
    0.712732048906,1.),.UNSPECIFIED.);
#81 = CARTESIAN_POINT('',(1.5E+03,140.00918759723,0.));
#82 = CARTESIAN_POINT('',(1.316516873148E+03,159.42061153998,0.));
#83 = CARTESIAN_POINT('',(1.172391406396E+03,147.1916058432,0.));
#84 = CARTESIAN_POINT('',(1.095363918781E+03,154.92940620982,0.));
#85 = CARTESIAN_POINT('',(992.96634856237,158.51694627319,0.));
#86 = CARTESIAN_POINT('',(959.60201646338,151.71096457023,0.));
#87 = CARTESIAN_POINT('',(884.7586259864,154.8574954418,0.));
#88 = CARTESIAN_POINT('',(775.7851493457,143.807812733,0.));
#89 = CARTESIAN_POINT('',(621.29848483992,143.44151676066,0.));
#90 = CARTESIAN_POINT('',(431.86231720978,136.74908225067,0.));
#91 = CARTESIAN_POINT('',(0.,142.01818457596,0.));
#92 = PCURVE('',#40,#93);
#93 = DEFINITIONAL_REPRESENTATION('',(#94),#106);
#94 = B_SPLINE_CURVE_WITH_KNOTS('',1,(#95,#96,#97,#98,#99,#100,#101,#102
    ,#103,#104,#105),.UNSPECIFIED.,.F.,.F.,(2,1,1,1,1,1,1,1,1,1,2),(0.,
    0.122722041394,0.218929339015,0.270420842645,0.338570797963,
    0.361219583962,0.411044487183,0.483898177992,0.586652893448,
    0.712732048906,1.),.UNSPECIFIED.);
#95 = CARTESIAN_POINT('',(750.14749696476,65.009187597231));
#96 = CARTESIAN_POINT('',(566.66437011319,84.420611539981));
#97 = CARTESIAN_POINT('',(422.53890336121,72.191605843202));
#98 = CARTESIAN_POINT('',(345.51141574617,79.929406209822));
#99 = CARTESIAN_POINT('',(243.11384552713,83.516946273192));
#100 = CARTESIAN_POINT('',(209.74951342814,76.710964570238));
#101 = CARTESIAN_POINT('',(134.90612295116,79.857495441807));
#102 = CARTESIAN_POINT('',(25.932646310465,68.807812733));
#103 = CARTESIAN_POINT('',(-128.5540181953,68.44151676066));
#104 = CARTESIAN_POINT('',(-317.9901858254,61.749082250672));
#105 = CARTESIAN_POINT('',(-749.8525030352,67.01818457596));
#106 = ( GEOMETRIC_REPRESENTATION_CONTEXT(2) 
PARAMETRIC_REPRESENTATION_CONTEXT() REPRESENTATION_CONTEXT('2D SPACE',''
  ) );
#107 = ORIENTED_EDGE('',*,*,#108,.T.);
#108 = EDGE_CURVE('',#77,#22,#109,.T.);
#109 = SURFACE_CURVE('',#110,(#114),.PCURVE_S1.);
#110 = LINE('',#111,#112);
#111 = CARTESIAN_POINT('',(0.,142.01818457596,0.));
#112 = VECTOR('',#113,1.);
#113 = DIRECTION('',(0.,-1.,0.));
#114 = PCURVE('',#40,#115);
#115 = DEFINITIONAL_REPRESENTATION('',(#116),#120);
#116 = LINE('',#117,#118);
#117 = CARTESIAN_POINT('',(-749.8525030352,67.01818457596));
#118 = VECTOR('',#119,1.);
#119 = DIRECTION('',(0.,-1.));
#120 = ( GEOMETRIC_REPRESENTATION_CONTEXT(2) 
PARAMETRIC_REPRESENTATION_CONTEXT() REPRESENTATION_CONTEXT('2D SPACE',''
  ) );
#121 = ( GEOMETRIC_REPRESENTATION_CONTEXT(3) 
GLOBAL_UNCERTAINTY_ASSIGNED_CONTEXT((#125)) GLOBAL_UNIT_ASSIGNED_CONTEXT
((#122,#123,#124)) REPRESENTATION_CONTEXT('Context #1',
  '3D Context with UNIT and UNCERTAINTY') );
#122 = ( LENGTH_UNIT() NAMED_UNIT(*) SI_UNIT(.MILLI.,.METRE.) );
#123 = ( NAMED_UNIT(*) PLANE_ANGLE_UNIT() SI_UNIT($,.RADIAN.) );
#124 = ( NAMED_UNIT(*) SI_UNIT($,.STERADIAN.) SOLID_ANGLE_UNIT() );
#125 = UNCERTAINTY_MEASURE_WITH_UNIT(LENGTH_MEASURE(1.E-07),#122,
  'distance_accuracy_value','confusion accuracy');
#126 = PRODUCT_RELATED_PRODUCT_CATEGORY('part',$,(#7));
ENDSEC;
END-ISO-10303-21;
