ISO-10303-21;
HEADER;
FILE_DESCRIPTION(('Open CASCADE Model'),'2;1');
FILE_NAME('Open CASCADE Shape Model','2026-06-02T12:09:04',('Author'),(
    'Open CASCADE'),'Open CASCADE STEP processor 7.9','Open CASCADE 7.9'
  ,'Unknown');
FILE_SCHEMA(('AUTOMOTIVE_DESIGN { 1 0 10303 214 1 1 1 1 }'));
ENDSEC;
DATA;
#1 = APPLICATION_PROTOCOL_DEFINITION('international standard',
  'automotive_design',2000,#2);
#2 = APPLICATION_CONTEXT(
  'core data for automotive mechanical design processes');
#3 = SHAPE_DEFINITION_REPRESENTATION(#4,#10);
#4 = PRODUCT_DEFINITION_SHAPE('','',#5);
#5 = PRODUCT_DEFINITION('design','',#6,#9);
#6 = PRODUCT_DEFINITION_FORMATION('','',#7);
#7 = PRODUCT('Open CASCADE STEP translator 7.9 2',
  'Open CASCADE STEP translator 7.9 2','',(#8));
#8 = PRODUCT_CONTEXT('',#2,'mechanical');
#9 = PRODUCT_DEFINITION_CONTEXT('part definition',#2,'design');
#10 = MANIFOLD_SURFACE_SHAPE_REPRESENTATION('',(#11,#15),#121);
#11 = AXIS2_PLACEMENT_3D('',#12,#13,#14);
#12 = CARTESIAN_POINT('',(0.,0.,0.));
#13 = DIRECTION('',(0.,0.,1.));
#14 = DIRECTION('',(1.,0.,-0.));
#15 = SHELL_BASED_SURFACE_MODEL('',(#16));
#16 = OPEN_SHELL('',(#17));
#17 = ADVANCED_FACE('',(#18),#40,.T.);
#18 = FACE_BOUND('',#19,.T.);
#19 = EDGE_LOOP('',(#20,#59,#75,#107));
#20 = ORIENTED_EDGE('',*,*,#21,.T.);
#21 = EDGE_CURVE('',#22,#24,#26,.T.);
#22 = VERTEX_POINT('',#23);
#23 = CARTESIAN_POINT('',(0.,-14.02529197302,0.));
#24 = VERTEX_POINT('',#25);
#25 = CARTESIAN_POINT('',(1.5E+03,-9.980345881735,0.));
#26 = SURFACE_CURVE('',#27,(#39),.PCURVE_S1.);
#27 = B_SPLINE_CURVE_WITH_KNOTS('',1,(#28,#29,#30,#31,#32,#33,#34,#35,
    #36,#37,#38),.UNSPECIFIED.,.F.,.F.,(2,1,1,1,1,1,1,1,1,1,2),(0.,
    5.055299161572E-02,0.308788809503,0.487826010053,0.592926457349,
    0.66693686503,0.745936659921,0.77625932324,0.820363158924,
    0.929242247655,1.),.UNSPECIFIED.);
#28 = CARTESIAN_POINT('',(0.,-14.02529197302,0.));
#29 = CARTESIAN_POINT('',(73.656281194824,5.225239255855,0.));
#30 = CARTESIAN_POINT('',(462.54459253666,3.886208818954,0.));
#31 = CARTESIAN_POINT('',(732.14954257943,0.913325661726,0.));
#32 = CARTESIAN_POINT('',(890.20252519382,9.315859227471,0.));
#33 = CARTESIAN_POINT('',(1.001644290946E+03,11.102354839936,0.));
#34 = CARTESIAN_POINT('',(1.12016103192E+03,0.728852213222,0.));
#35 = CARTESIAN_POINT('',(1.165211377233E+03,8.192719528473,0.));
#36 = CARTESIAN_POINT('',(1.230286980845E+03,-5.094419840475,0.));
#37 = CARTESIAN_POINT('',(1.394104978014E+03,1.88544243383,0.));
#38 = CARTESIAN_POINT('',(1.5E+03,-9.980345881735,0.));
#39 = PCURVE('',#40,#45);
#40 = PLANE('',#41);
#41 = AXIS2_PLACEMENT_3D('',#42,#43,#44);
#42 = CARTESIAN_POINT('',(748.06149929728,75.,0.));
#43 = DIRECTION('',(0.,0.,1.));
#44 = DIRECTION('',(1.,0.,-0.));
#45 = DEFINITIONAL_REPRESENTATION('',(#46),#58);
#46 = B_SPLINE_CURVE_WITH_KNOTS('',1,(#47,#48,#49,#50,#51,#52,#53,#54,
    #55,#56,#57),.UNSPECIFIED.,.F.,.F.,(2,1,1,1,1,1,1,1,1,1,2),(0.,
    5.055299161572E-02,0.308788809503,0.487826010053,0.592926457349,
    0.66693686503,0.745936659921,0.77625932324,0.820363158924,
    0.929242247655,1.),.UNSPECIFIED.);
#47 = CARTESIAN_POINT('',(-748.0614992972,-89.02529197302));
#48 = CARTESIAN_POINT('',(-674.4052181024,-69.77476074414));
#49 = CARTESIAN_POINT('',(-285.5169067606,-71.11379118104));
#50 = CARTESIAN_POINT('',(-15.91195671785,-74.08667433827));
#51 = CARTESIAN_POINT('',(142.14102589653,-65.68414077252));
#52 = CARTESIAN_POINT('',(253.58279164841,-63.89764516006));
#53 = CARTESIAN_POINT('',(372.099532623,-74.27114778677));
#54 = CARTESIAN_POINT('',(417.1498779357,-66.80728047152));
#55 = CARTESIAN_POINT('',(482.22548154728,-80.09441984047));
#56 = CARTESIAN_POINT('',(646.04347871644,-73.11455756617));
#57 = CARTESIAN_POINT('',(751.93850070271,-84.98034588173));
#58 = ( GEOMETRIC_REPRESENTATION_CONTEXT(2) 
PARAMETRIC_REPRESENTATION_CONTEXT() REPRESENTATION_CONTEXT('2D SPACE',''
  ) );
#59 = ORIENTED_EDGE('',*,*,#60,.T.);
#60 = EDGE_CURVE('',#24,#61,#63,.T.);
#61 = VERTEX_POINT('',#62);
#62 = CARTESIAN_POINT('',(1.5E+03,159.98034588173,0.));
#63 = SURFACE_CURVE('',#64,(#68),.PCURVE_S1.);
#64 = LINE('',#65,#66);
#65 = CARTESIAN_POINT('',(1.5E+03,-9.980345881735,0.));
#66 = VECTOR('',#67,1.);
#67 = DIRECTION('',(0.,1.,0.));
#68 = PCURVE('',#40,#69);
#69 = DEFINITIONAL_REPRESENTATION('',(#70),#74);
#70 = LINE('',#71,#72);
#71 = CARTESIAN_POINT('',(751.93850070271,-84.98034588173));
#72 = VECTOR('',#73,1.);
#73 = DIRECTION('',(0.,1.));
#74 = ( GEOMETRIC_REPRESENTATION_CONTEXT(2) 
PARAMETRIC_REPRESENTATION_CONTEXT() REPRESENTATION_CONTEXT('2D SPACE',''
  ) );
#75 = ORIENTED_EDGE('',*,*,#76,.T.);
#76 = EDGE_CURVE('',#61,#77,#79,.T.);
#77 = VERTEX_POINT('',#78);
#78 = CARTESIAN_POINT('',(0.,164.02529197302,0.));
#79 = SURFACE_CURVE('',#80,(#92),.PCURVE_S1.);
#80 = B_SPLINE_CURVE_WITH_KNOTS('',1,(#81,#82,#83,#84,#85,#86,#87,#88,
    #89,#90,#91),.UNSPECIFIED.,.F.,.F.,(2,1,1,1,1,1,1,1,1,1,2),(0.,
    7.075775234538E-02,0.179636841076,0.22374067676,0.254063340079,
    0.33306313497,0.407073542651,0.512173989947,0.691211190497,
    0.949447008384,1.),.UNSPECIFIED.);
#81 = CARTESIAN_POINT('',(1.5E+03,159.98034588173,0.));
#82 = CARTESIAN_POINT('',(1.394104978014E+03,148.11455756617,0.));
#83 = CARTESIAN_POINT('',(1.230286980845E+03,155.09441984047,0.));
#84 = CARTESIAN_POINT('',(1.165211377233E+03,141.80728047152,0.));
#85 = CARTESIAN_POINT('',(1.12016103192E+03,149.27114778677,0.));
#86 = CARTESIAN_POINT('',(1.001644290946E+03,138.89764516006,0.));
#87 = CARTESIAN_POINT('',(890.20252519382,140.68414077252,0.));
#88 = CARTESIAN_POINT('',(732.14954257943,149.08667433827,0.));
#89 = CARTESIAN_POINT('',(462.54459253666,146.11379118104,0.));
#90 = CARTESIAN_POINT('',(73.656281194824,144.77476074414,0.));
#91 = CARTESIAN_POINT('',(0.,164.02529197302,0.));
#92 = PCURVE('',#40,#93);
#93 = DEFINITIONAL_REPRESENTATION('',(#94),#106);
#94 = B_SPLINE_CURVE_WITH_KNOTS('',1,(#95,#96,#97,#98,#99,#100,#101,#102
    ,#103,#104,#105),.UNSPECIFIED.,.F.,.F.,(2,1,1,1,1,1,1,1,1,1,2),(0.,
    7.075775234538E-02,0.179636841076,0.22374067676,0.254063340079,
    0.33306313497,0.407073542651,0.512173989947,0.691211190497,
    0.949447008384,1.),.UNSPECIFIED.);
#95 = CARTESIAN_POINT('',(751.93850070271,84.980345881735));
#96 = CARTESIAN_POINT('',(646.04347871644,73.11455756617));
#97 = CARTESIAN_POINT('',(482.22548154728,80.094419840475));
#98 = CARTESIAN_POINT('',(417.1498779357,66.807280471527));
#99 = CARTESIAN_POINT('',(372.099532623,74.271147786778));
#100 = CARTESIAN_POINT('',(253.58279164841,63.897645160064));
#101 = CARTESIAN_POINT('',(142.14102589653,65.684140772529));
#102 = CARTESIAN_POINT('',(-15.91195671785,74.086674338274));
#103 = CARTESIAN_POINT('',(-285.5169067606,71.113791181046));
#104 = CARTESIAN_POINT('',(-674.4052181024,69.774760744145));
#105 = CARTESIAN_POINT('',(-748.0614992972,89.025291973026));
#106 = ( GEOMETRIC_REPRESENTATION_CONTEXT(2) 
PARAMETRIC_REPRESENTATION_CONTEXT() REPRESENTATION_CONTEXT('2D SPACE',''
  ) );
#107 = ORIENTED_EDGE('',*,*,#108,.T.);
#108 = EDGE_CURVE('',#77,#22,#109,.T.);
#109 = SURFACE_CURVE('',#110,(#114),.PCURVE_S1.);
#110 = LINE('',#111,#112);
#111 = CARTESIAN_POINT('',(0.,164.02529197302,0.));
#112 = VECTOR('',#113,1.);
#113 = DIRECTION('',(0.,-1.,0.));
#114 = PCURVE('',#40,#115);
#115 = DEFINITIONAL_REPRESENTATION('',(#116),#120);
#116 = LINE('',#117,#118);
#117 = CARTESIAN_POINT('',(-748.0614992972,89.025291973026));
#118 = VECTOR('',#119,1.);
#119 = DIRECTION('',(0.,-1.));
#120 = ( GEOMETRIC_REPRESENTATION_CONTEXT(2) 
PARAMETRIC_REPRESENTATION_CONTEXT() REPRESENTATION_CONTEXT('2D SPACE',''
  ) );
#121 = ( GEOMETRIC_REPRESENTATION_CONTEXT(3) 
GLOBAL_UNCERTAINTY_ASSIGNED_CONTEXT((#125)) GLOBAL_UNIT_ASSIGNED_CONTEXT
((#122,#123,#124)) REPRESENTATION_CONTEXT('Context #1',
  '3D Context with UNIT and UNCERTAINTY') );
#122 = ( LENGTH_UNIT() NAMED_UNIT(*) SI_UNIT(.MILLI.,.METRE.) );
#123 = ( NAMED_UNIT(*) PLANE_ANGLE_UNIT() SI_UNIT($,.RADIAN.) );
#124 = ( NAMED_UNIT(*) SI_UNIT($,.STERADIAN.) SOLID_ANGLE_UNIT() );
#125 = UNCERTAINTY_MEASURE_WITH_UNIT(LENGTH_MEASURE(1.E-07),#122,
  'distance_accuracy_value','confusion accuracy');
#126 = PRODUCT_RELATED_PRODUCT_CATEGORY('part',$,(#7));
ENDSEC;
END-ISO-10303-21;
