ISO-10303-21;
HEADER;
FILE_DESCRIPTION(('Open CASCADE Model'),'2;1');
FILE_NAME('Open CASCADE Shape Model','2026-06-02T12:09:04',('Author'),(
    'Open CASCADE'),'Open CASCADE STEP processor 7.9','Open CASCADE 7.9'
  ,'Unknown');
FILE_SCHEMA(('AUTOMOTIVE_DESIGN { 1 0 10303 214 1 1 1 1 }'));
ENDSEC;
DATA;
#1 = APPLICATION_PROTOCOL_DEFINITION('international standard',
  'automotive_design',2000,#2);
#2 = APPLICATION_CONTEXT(
  'core data for automotive mechanical design processes');
#3 = SHAPE_DEFINITION_REPRESENTATION(#4,#10);
#4 = PRODUCT_DEFINITION_SHAPE('','',#5);
#5 = PRODUCT_DEFINITION('design','',#6,#9);
#6 = PRODUCT_DEFINITION_FORMATION('','',#7);
#7 = PRODUCT('Open CASCADE STEP translator 7.9 84',
  'Open CASCADE STEP translator 7.9 84','',(#8));
#8 = PRODUCT_CONTEXT('',#2,'mechanical');
#9 = PRODUCT_DEFINITION_CONTEXT('part definition',#2,'design');
#10 = MANIFOLD_SURFACE_SHAPE_REPRESENTATION('',(#11,#15),#121);
#11 = AXIS2_PLACEMENT_3D('',#12,#13,#14);
#12 = CARTESIAN_POINT('',(0.,0.,0.));
#13 = DIRECTION('',(0.,0.,1.));
#14 = DIRECTION('',(1.,0.,-0.));
#15 = SHELL_BASED_SURFACE_MODEL('',(#16));
#16 = OPEN_SHELL('',(#17));
#17 = ADVANCED_FACE('',(#18),#40,.T.);
#18 = FACE_BOUND('',#19,.T.);
#19 = EDGE_LOOP('',(#20,#59,#75,#107));
#20 = ORIENTED_EDGE('',*,*,#21,.T.);
#21 = EDGE_CURVE('',#22,#24,#26,.T.);
#22 = VERTEX_POINT('',#23);
#23 = CARTESIAN_POINT('',(0.,9.908576847043,0.));
#24 = VERTEX_POINT('',#25);
#25 = CARTESIAN_POINT('',(1.5E+03,-7.950732155341,0.));
#26 = SURFACE_CURVE('',#27,(#39),.PCURVE_S1.);
#27 = B_SPLINE_CURVE_WITH_KNOTS('',1,(#28,#29,#30,#31,#32,#33,#34,#35,
    #36,#37,#38),.UNSPECIFIED.,.F.,.F.,(2,1,1,1,1,1,1,1,1,1,2),(0.,
    6.796492561127E-02,0.166520567987,0.291370491174,0.352656833991,
    0.454633778202,0.519684744278,0.768798752694,0.890821578723,
    0.935305639585,1.),.UNSPECIFIED.);
#28 = CARTESIAN_POINT('',(0.,9.908576847043,0.));
#29 = CARTESIAN_POINT('',(100.99509130916,-8.897151894081,0.));
#30 = CARTESIAN_POINT('',(249.09494476395,7.178886559922,0.));
#31 = CARTESIAN_POINT('',(437.78196387016,10.394053609889,0.));
#32 = CARTESIAN_POINT('',(530.37625031256,7.609432746503,0.));
#33 = CARTESIAN_POINT('',(683.47792337001,-10.26210455316,0.));
#34 = CARTESIAN_POINT('',(780.59789969202,5.093961132068,0.));
#35 = CARTESIAN_POINT('',(1.156989846211E+03,-5.581496085177,0.));
#36 = CARTESIAN_POINT('',(1.341360191115E+03,-10.69228891967,0.));
#37 = CARTESIAN_POINT('',(1.404410925939E+03,12.667659992249,0.));
#38 = CARTESIAN_POINT('',(1.5E+03,-7.950732155341,0.));
#39 = PCURVE('',#40,#45);
#40 = PLANE('',#41);
#41 = AXIS2_PLACEMENT_3D('',#42,#43,#44);
#42 = CARTESIAN_POINT('',(759.46529103542,75.,0.));
#43 = DIRECTION('',(0.,0.,1.));
#44 = DIRECTION('',(1.,0.,-0.));
#45 = DEFINITIONAL_REPRESENTATION('',(#46),#58);
#46 = B_SPLINE_CURVE_WITH_KNOTS('',1,(#47,#48,#49,#50,#51,#52,#53,#54,
    #55,#56,#57),.UNSPECIFIED.,.F.,.F.,(2,1,1,1,1,1,1,1,1,1,2),(0.,
    6.796492561127E-02,0.166520567987,0.291370491174,0.352656833991,
    0.454633778202,0.519684744278,0.768798752694,0.890821578723,
    0.935305639585,1.),.UNSPECIFIED.);
#47 = CARTESIAN_POINT('',(-759.4652910354,-65.09142315295));
#48 = CARTESIAN_POINT('',(-658.4701997262,-83.89715189408));
#49 = CARTESIAN_POINT('',(-510.3703462714,-67.82111344007));
#50 = CARTESIAN_POINT('',(-321.6833271652,-64.60594639011));
#51 = CARTESIAN_POINT('',(-229.0890407228,-67.39056725349));
#52 = CARTESIAN_POINT('',(-75.9873676654,-85.26210455316));
#53 = CARTESIAN_POINT('',(21.132608656601,-69.90603886793));
#54 = CARTESIAN_POINT('',(397.52455517569,-80.58149608517));
#55 = CARTESIAN_POINT('',(581.89490007974,-85.69228891967));
#56 = CARTESIAN_POINT('',(644.94563490349,-62.33234000775));
#57 = CARTESIAN_POINT('',(740.53470896458,-82.95073215534));
#58 = ( GEOMETRIC_REPRESENTATION_CONTEXT(2) 
PARAMETRIC_REPRESENTATION_CONTEXT() REPRESENTATION_CONTEXT('2D SPACE',''
  ) );
#59 = ORIENTED_EDGE('',*,*,#60,.T.);
#60 = EDGE_CURVE('',#24,#61,#63,.T.);
#61 = VERTEX_POINT('',#62);
#62 = CARTESIAN_POINT('',(1.5E+03,157.95073215534,0.));
#63 = SURFACE_CURVE('',#64,(#68),.PCURVE_S1.);
#64 = LINE('',#65,#66);
#65 = CARTESIAN_POINT('',(1.5E+03,-7.950732155341,0.));
#66 = VECTOR('',#67,1.);
#67 = DIRECTION('',(0.,1.,0.));
#68 = PCURVE('',#40,#69);
#69 = DEFINITIONAL_REPRESENTATION('',(#70),#74);
#70 = LINE('',#71,#72);
#71 = CARTESIAN_POINT('',(740.53470896458,-82.95073215534));
#72 = VECTOR('',#73,1.);
#73 = DIRECTION('',(0.,1.));
#74 = ( GEOMETRIC_REPRESENTATION_CONTEXT(2) 
PARAMETRIC_REPRESENTATION_CONTEXT() REPRESENTATION_CONTEXT('2D SPACE',''
  ) );
#75 = ORIENTED_EDGE('',*,*,#76,.T.);
#76 = EDGE_CURVE('',#61,#77,#79,.T.);
#77 = VERTEX_POINT('',#78);
#78 = CARTESIAN_POINT('',(0.,140.09142315295,0.));
#79 = SURFACE_CURVE('',#80,(#92),.PCURVE_S1.);
#80 = B_SPLINE_CURVE_WITH_KNOTS('',1,(#81,#82,#83,#84,#85,#86,#87,#88,
    #89,#90,#91),.UNSPECIFIED.,.F.,.F.,(2,1,1,1,1,1,1,1,1,1,2),(0.,
    6.469436041499E-02,0.109178421277,0.231201247306,0.480315255722,
    0.545366221798,0.647343166009,0.708629508826,0.833479432013,
    0.932035074389,1.),.UNSPECIFIED.);
#81 = CARTESIAN_POINT('',(1.5E+03,157.95073215534,0.));
#82 = CARTESIAN_POINT('',(1.404410925939E+03,137.33234000775,0.));
#83 = CARTESIAN_POINT('',(1.341360191115E+03,160.69228891967,0.));
#84 = CARTESIAN_POINT('',(1.156989846211E+03,155.58149608517,0.));
#85 = CARTESIAN_POINT('',(780.59789969202,144.90603886793,0.));
#86 = CARTESIAN_POINT('',(683.47792337001,160.26210455316,0.));
#87 = CARTESIAN_POINT('',(530.37625031256,142.39056725349,0.));
#88 = CARTESIAN_POINT('',(437.78196387016,139.60594639011,0.));
#89 = CARTESIAN_POINT('',(249.09494476395,142.82111344007,0.));
#90 = CARTESIAN_POINT('',(100.99509130916,158.89715189408,0.));
#91 = CARTESIAN_POINT('',(0.,140.09142315295,0.));
#92 = PCURVE('',#40,#93);
#93 = DEFINITIONAL_REPRESENTATION('',(#94),#106);
#94 = B_SPLINE_CURVE_WITH_KNOTS('',1,(#95,#96,#97,#98,#99,#100,#101,#102
    ,#103,#104,#105),.UNSPECIFIED.,.F.,.F.,(2,1,1,1,1,1,1,1,1,1,2),(0.,
    6.469436041499E-02,0.109178421277,0.231201247306,0.480315255722,
    0.545366221798,0.647343166009,0.708629508826,0.833479432013,
    0.932035074389,1.),.UNSPECIFIED.);
#95 = CARTESIAN_POINT('',(740.53470896458,82.950732155341));
#96 = CARTESIAN_POINT('',(644.94563490349,62.332340007751));
#97 = CARTESIAN_POINT('',(581.89490007974,85.692288919672));
#98 = CARTESIAN_POINT('',(397.52455517569,80.581496085177));
#99 = CARTESIAN_POINT('',(21.1326086566,69.906038867932));
#100 = CARTESIAN_POINT('',(-75.9873676654,85.262104553167));
#101 = CARTESIAN_POINT('',(-229.0890407228,67.390567253497));
#102 = CARTESIAN_POINT('',(-321.6833271652,64.605946390111));
#103 = CARTESIAN_POINT('',(-510.3703462714,67.821113440078));
#104 = CARTESIAN_POINT('',(-658.4701997262,83.897151894081));
#105 = CARTESIAN_POINT('',(-759.4652910354,65.091423152957));
#106 = ( GEOMETRIC_REPRESENTATION_CONTEXT(2) 
PARAMETRIC_REPRESENTATION_CONTEXT() REPRESENTATION_CONTEXT('2D SPACE',''
  ) );
#107 = ORIENTED_EDGE('',*,*,#108,.T.);
#108 = EDGE_CURVE('',#77,#22,#109,.T.);
#109 = SURFACE_CURVE('',#110,(#114),.PCURVE_S1.);
#110 = LINE('',#111,#112);
#111 = CARTESIAN_POINT('',(0.,140.09142315295,0.));
#112 = VECTOR('',#113,1.);
#113 = DIRECTION('',(0.,-1.,0.));
#114 = PCURVE('',#40,#115);
#115 = DEFINITIONAL_REPRESENTATION('',(#116),#120);
#116 = LINE('',#117,#118);
#117 = CARTESIAN_POINT('',(-759.4652910354,65.091423152957));
#118 = VECTOR('',#119,1.);
#119 = DIRECTION('',(0.,-1.));
#120 = ( GEOMETRIC_REPRESENTATION_CONTEXT(2) 
PARAMETRIC_REPRESENTATION_CONTEXT() REPRESENTATION_CONTEXT('2D SPACE',''
  ) );
#121 = ( GEOMETRIC_REPRESENTATION_CONTEXT(3) 
GLOBAL_UNCERTAINTY_ASSIGNED_CONTEXT((#125)) GLOBAL_UNIT_ASSIGNED_CONTEXT
((#122,#123,#124)) REPRESENTATION_CONTEXT('Context #1',
  '3D Context with UNIT and UNCERTAINTY') );
#122 = ( LENGTH_UNIT() NAMED_UNIT(*) SI_UNIT(.MILLI.,.METRE.) );
#123 = ( NAMED_UNIT(*) PLANE_ANGLE_UNIT() SI_UNIT($,.RADIAN.) );
#124 = ( NAMED_UNIT(*) SI_UNIT($,.STERADIAN.) SOLID_ANGLE_UNIT() );
#125 = UNCERTAINTY_MEASURE_WITH_UNIT(LENGTH_MEASURE(1.E-07),#122,
  'distance_accuracy_value','confusion accuracy');
#126 = PRODUCT_RELATED_PRODUCT_CATEGORY('part',$,(#7));
ENDSEC;
END-ISO-10303-21;
