ISO-10303-21;
HEADER;
FILE_DESCRIPTION(('Open CASCADE Model'),'2;1');
FILE_NAME('Open CASCADE Shape Model','2026-06-02T12:09:04',('Author'),(
    'Open CASCADE'),'Open CASCADE STEP processor 7.9','Open CASCADE 7.9'
  ,'Unknown');
FILE_SCHEMA(('AUTOMOTIVE_DESIGN { 1 0 10303 214 1 1 1 1 }'));
ENDSEC;
DATA;
#1 = APPLICATION_PROTOCOL_DEFINITION('international standard',
  'automotive_design',2000,#2);
#2 = APPLICATION_CONTEXT(
  'core data for automotive mechanical design processes');
#3 = SHAPE_DEFINITION_REPRESENTATION(#4,#10);
#4 = PRODUCT_DEFINITION_SHAPE('','',#5);
#5 = PRODUCT_DEFINITION('design','',#6,#9);
#6 = PRODUCT_DEFINITION_FORMATION('','',#7);
#7 = PRODUCT('Open CASCADE STEP translator 7.9 88',
  'Open CASCADE STEP translator 7.9 88','',(#8));
#8 = PRODUCT_CONTEXT('',#2,'mechanical');
#9 = PRODUCT_DEFINITION_CONTEXT('part definition',#2,'design');
#10 = MANIFOLD_SURFACE_SHAPE_REPRESENTATION('',(#11,#15),#121);
#11 = AXIS2_PLACEMENT_3D('',#12,#13,#14);
#12 = CARTESIAN_POINT('',(0.,0.,0.));
#13 = DIRECTION('',(0.,0.,1.));
#14 = DIRECTION('',(1.,0.,-0.));
#15 = SHELL_BASED_SURFACE_MODEL('',(#16));
#16 = OPEN_SHELL('',(#17));
#17 = ADVANCED_FACE('',(#18),#40,.T.);
#18 = FACE_BOUND('',#19,.T.);
#19 = EDGE_LOOP('',(#20,#59,#75,#107));
#20 = ORIENTED_EDGE('',*,*,#21,.T.);
#21 = EDGE_CURVE('',#22,#24,#26,.T.);
#22 = VERTEX_POINT('',#23);
#23 = CARTESIAN_POINT('',(0.,-0.856251868274,0.));
#24 = VERTEX_POINT('',#25);
#25 = CARTESIAN_POINT('',(1.5E+03,-1.418485236146,0.));
#26 = SURFACE_CURVE('',#27,(#39),.PCURVE_S1.);
#27 = B_SPLINE_CURVE_WITH_KNOTS('',1,(#28,#29,#30,#31,#32,#33,#34,#35,
    #36,#37,#38),.UNSPECIFIED.,.F.,.F.,(2,1,1,1,1,1,1,1,1,1,2),(0.,
    3.666656015396E-02,0.11363238048,0.227022073262,0.269425120407,
    0.440027499525,0.584971299908,0.720677113327,0.838762696435,
    0.933409430303,1.),.UNSPECIFIED.);
#28 = CARTESIAN_POINT('',(0.,-0.856251868274,0.));
#29 = CARTESIAN_POINT('',(54.423928485712,-9.985111639845,0.));
#30 = CARTESIAN_POINT('',(169.16480741795,5.903937700962,0.));
#31 = CARTESIAN_POINT('',(339.77037143585,1.805728725586,0.));
#32 = CARTESIAN_POINT('',(401.45176282103,-14.56863304536,0.));
#33 = CARTESIAN_POINT('',(658.21329575222,-14.55140090162,0.));
#34 = CARTESIAN_POINT('',(876.34506829414,-12.18320432295,0.));
#35 = CARTESIAN_POINT('',(1.080560718965E+03,-8.953450344842,0.));
#36 = CARTESIAN_POINT('',(1.257572107564E+03,6.926084978316,0.));
#37 = CARTESIAN_POINT('',(1.400009739278E+03,5.374497777984,0.));
#38 = CARTESIAN_POINT('',(1.5E+03,-1.418485236146,0.));
#39 = PCURVE('',#40,#45);
#40 = PLANE('',#41);
#41 = AXIS2_PLACEMENT_3D('',#42,#43,#44);
#42 = CARTESIAN_POINT('',(749.28112284929,75.,0.));
#43 = DIRECTION('',(0.,0.,1.));
#44 = DIRECTION('',(1.,0.,-0.));
#45 = DEFINITIONAL_REPRESENTATION('',(#46),#58);
#46 = B_SPLINE_CURVE_WITH_KNOTS('',1,(#47,#48,#49,#50,#51,#52,#53,#54,
    #55,#56,#57),.UNSPECIFIED.,.F.,.F.,(2,1,1,1,1,1,1,1,1,1,2),(0.,
    3.666656015396E-02,0.11363238048,0.227022073262,0.269425120407,
    0.440027499525,0.584971299908,0.720677113327,0.838762696435,
    0.933409430303,1.),.UNSPECIFIED.);
#47 = CARTESIAN_POINT('',(-749.2811228492,-75.85625186827));
#48 = CARTESIAN_POINT('',(-694.8571943635,-84.98511163984));
#49 = CARTESIAN_POINT('',(-580.1163154313,-69.09606229903));
#50 = CARTESIAN_POINT('',(-409.5107514134,-73.19427127441));
#51 = CARTESIAN_POINT('',(-347.8293600282,-89.56863304536));
#52 = CARTESIAN_POINT('',(-91.06782709707,-89.55140090162));
#53 = CARTESIAN_POINT('',(127.06394544485,-87.18320432295));
#54 = CARTESIAN_POINT('',(331.27959611521,-83.95345034484));
#55 = CARTESIAN_POINT('',(508.29098471478,-68.07391502168));
#56 = CARTESIAN_POINT('',(650.72861642895,-69.62550222201));
#57 = CARTESIAN_POINT('',(750.7188771507,-76.41848523614));
#58 = ( GEOMETRIC_REPRESENTATION_CONTEXT(2) 
PARAMETRIC_REPRESENTATION_CONTEXT() REPRESENTATION_CONTEXT('2D SPACE',''
  ) );
#59 = ORIENTED_EDGE('',*,*,#60,.T.);
#60 = EDGE_CURVE('',#24,#61,#63,.T.);
#61 = VERTEX_POINT('',#62);
#62 = CARTESIAN_POINT('',(1.5E+03,151.41848523614,0.));
#63 = SURFACE_CURVE('',#64,(#68),.PCURVE_S1.);
#64 = LINE('',#65,#66);
#65 = CARTESIAN_POINT('',(1.5E+03,-1.418485236146,0.));
#66 = VECTOR('',#67,1.);
#67 = DIRECTION('',(0.,1.,0.));
#68 = PCURVE('',#40,#69);
#69 = DEFINITIONAL_REPRESENTATION('',(#70),#74);
#70 = LINE('',#71,#72);
#71 = CARTESIAN_POINT('',(750.7188771507,-76.41848523614));
#72 = VECTOR('',#73,1.);
#73 = DIRECTION('',(0.,1.));
#74 = ( GEOMETRIC_REPRESENTATION_CONTEXT(2) 
PARAMETRIC_REPRESENTATION_CONTEXT() REPRESENTATION_CONTEXT('2D SPACE',''
  ) );
#75 = ORIENTED_EDGE('',*,*,#76,.T.);
#76 = EDGE_CURVE('',#61,#77,#79,.T.);
#77 = VERTEX_POINT('',#78);
#78 = CARTESIAN_POINT('',(0.,150.85625186827,0.));
#79 = SURFACE_CURVE('',#80,(#92),.PCURVE_S1.);
#80 = B_SPLINE_CURVE_WITH_KNOTS('',1,(#81,#82,#83,#84,#85,#86,#87,#88,
    #89,#90,#91),.UNSPECIFIED.,.F.,.F.,(2,1,1,1,1,1,1,1,1,1,2),(0.,
    6.659056969723E-02,0.161237303565,0.279322886673,0.415028700092,
    0.559972500475,0.730574879593,0.772977926738,0.88636761952,
    0.963333439846,1.),.UNSPECIFIED.);
#81 = CARTESIAN_POINT('',(1.5E+03,151.41848523614,0.));
#82 = CARTESIAN_POINT('',(1.400009739278E+03,144.62550222201,0.));
#83 = CARTESIAN_POINT('',(1.257572107564E+03,143.07391502168,0.));
#84 = CARTESIAN_POINT('',(1.080560718965E+03,158.95345034484,0.));
#85 = CARTESIAN_POINT('',(876.34506829414,162.18320432295,0.));
#86 = CARTESIAN_POINT('',(658.21329575222,164.55140090162,0.));
#87 = CARTESIAN_POINT('',(401.45176282103,164.56863304536,0.));
#88 = CARTESIAN_POINT('',(339.77037143585,148.19427127441,0.));
#89 = CARTESIAN_POINT('',(169.16480741795,144.09606229903,0.));
#90 = CARTESIAN_POINT('',(54.423928485712,159.98511163984,0.));
#91 = CARTESIAN_POINT('',(0.,150.85625186827,0.));
#92 = PCURVE('',#40,#93);
#93 = DEFINITIONAL_REPRESENTATION('',(#94),#106);
#94 = B_SPLINE_CURVE_WITH_KNOTS('',1,(#95,#96,#97,#98,#99,#100,#101,#102
    ,#103,#104,#105),.UNSPECIFIED.,.F.,.F.,(2,1,1,1,1,1,1,1,1,1,2),(0.,
    6.659056969723E-02,0.161237303565,0.279322886673,0.415028700092,
    0.559972500475,0.730574879593,0.772977926738,0.88636761952,
    0.963333439846,1.),.UNSPECIFIED.);
#95 = CARTESIAN_POINT('',(750.7188771507,76.418485236146));
#96 = CARTESIAN_POINT('',(650.72861642895,69.625502222016));
#97 = CARTESIAN_POINT('',(508.29098471478,68.073915021684));
#98 = CARTESIAN_POINT('',(331.27959611521,83.953450344842));
#99 = CARTESIAN_POINT('',(127.06394544485,87.183204322955));
#100 = CARTESIAN_POINT('',(-91.06782709707,89.551400901626));
#101 = CARTESIAN_POINT('',(-347.8293600282,89.56863304536));
#102 = CARTESIAN_POINT('',(-409.5107514134,73.194271274414));
#103 = CARTESIAN_POINT('',(-580.1163154313,69.096062299038));
#104 = CARTESIAN_POINT('',(-694.8571943635,84.985111639845));
#105 = CARTESIAN_POINT('',(-749.2811228492,75.856251868274));
#106 = ( GEOMETRIC_REPRESENTATION_CONTEXT(2) 
PARAMETRIC_REPRESENTATION_CONTEXT() REPRESENTATION_CONTEXT('2D SPACE',''
  ) );
#107 = ORIENTED_EDGE('',*,*,#108,.T.);
#108 = EDGE_CURVE('',#77,#22,#109,.T.);
#109 = SURFACE_CURVE('',#110,(#114),.PCURVE_S1.);
#110 = LINE('',#111,#112);
#111 = CARTESIAN_POINT('',(0.,150.85625186827,0.));
#112 = VECTOR('',#113,1.);
#113 = DIRECTION('',(0.,-1.,0.));
#114 = PCURVE('',#40,#115);
#115 = DEFINITIONAL_REPRESENTATION('',(#116),#120);
#116 = LINE('',#117,#118);
#117 = CARTESIAN_POINT('',(-749.2811228492,75.856251868274));
#118 = VECTOR('',#119,1.);
#119 = DIRECTION('',(0.,-1.));
#120 = ( GEOMETRIC_REPRESENTATION_CONTEXT(2) 
PARAMETRIC_REPRESENTATION_CONTEXT() REPRESENTATION_CONTEXT('2D SPACE',''
  ) );
#121 = ( GEOMETRIC_REPRESENTATION_CONTEXT(3) 
GLOBAL_UNCERTAINTY_ASSIGNED_CONTEXT((#125)) GLOBAL_UNIT_ASSIGNED_CONTEXT
((#122,#123,#124)) REPRESENTATION_CONTEXT('Context #1',
  '3D Context with UNIT and UNCERTAINTY') );
#122 = ( LENGTH_UNIT() NAMED_UNIT(*) SI_UNIT(.MILLI.,.METRE.) );
#123 = ( NAMED_UNIT(*) PLANE_ANGLE_UNIT() SI_UNIT($,.RADIAN.) );
#124 = ( NAMED_UNIT(*) SI_UNIT($,.STERADIAN.) SOLID_ANGLE_UNIT() );
#125 = UNCERTAINTY_MEASURE_WITH_UNIT(LENGTH_MEASURE(1.E-07),#122,
  'distance_accuracy_value','confusion accuracy');
#126 = PRODUCT_RELATED_PRODUCT_CATEGORY('part',$,(#7));
ENDSEC;
END-ISO-10303-21;
