ISO-10303-21;
HEADER;
FILE_DESCRIPTION(('Open CASCADE Model'),'2;1');
FILE_NAME('Open CASCADE Shape Model','2026-06-02T12:09:04',('Author'),(
    'Open CASCADE'),'Open CASCADE STEP processor 7.9','Open CASCADE 7.9'
  ,'Unknown');
FILE_SCHEMA(('AUTOMOTIVE_DESIGN { 1 0 10303 214 1 1 1 1 }'));
ENDSEC;
DATA;
#1 = APPLICATION_PROTOCOL_DEFINITION('international standard',
  'automotive_design',2000,#2);
#2 = APPLICATION_CONTEXT(
  'core data for automotive mechanical design processes');
#3 = SHAPE_DEFINITION_REPRESENTATION(#4,#10);
#4 = PRODUCT_DEFINITION_SHAPE('','',#5);
#5 = PRODUCT_DEFINITION('design','',#6,#9);
#6 = PRODUCT_DEFINITION_FORMATION('','',#7);
#7 = PRODUCT('Open CASCADE STEP translator 7.9 54',
  'Open CASCADE STEP translator 7.9 54','',(#8));
#8 = PRODUCT_CONTEXT('',#2,'mechanical');
#9 = PRODUCT_DEFINITION_CONTEXT('part definition',#2,'design');
#10 = MANIFOLD_SURFACE_SHAPE_REPRESENTATION('',(#11,#15),#121);
#11 = AXIS2_PLACEMENT_3D('',#12,#13,#14);
#12 = CARTESIAN_POINT('',(0.,0.,0.));
#13 = DIRECTION('',(0.,0.,1.));
#14 = DIRECTION('',(1.,0.,-0.));
#15 = SHELL_BASED_SURFACE_MODEL('',(#16));
#16 = OPEN_SHELL('',(#17));
#17 = ADVANCED_FACE('',(#18),#40,.T.);
#18 = FACE_BOUND('',#19,.T.);
#19 = EDGE_LOOP('',(#20,#59,#75,#107));
#20 = ORIENTED_EDGE('',*,*,#21,.T.);
#21 = EDGE_CURVE('',#22,#24,#26,.T.);
#22 = VERTEX_POINT('',#23);
#23 = CARTESIAN_POINT('',(0.,2.500020058804,0.));
#24 = VERTEX_POINT('',#25);
#25 = CARTESIAN_POINT('',(1.5E+03,-1.015200398219,0.));
#26 = SURFACE_CURVE('',#27,(#39),.PCURVE_S1.);
#27 = B_SPLINE_CURVE_WITH_KNOTS('',1,(#28,#29,#30,#31,#32,#33,#34,#35,
    #36,#37,#38),.UNSPECIFIED.,.F.,.F.,(2,1,1,1,1,1,1,1,1,1,2),(0.,
    0.143466216721,0.211206263712,0.336714584834,0.414429047411,
    0.453912584035,0.50375163624,0.586081301378,0.658538938408,
    0.836659582619,1.),.UNSPECIFIED.);
#28 = CARTESIAN_POINT('',(0.,2.500020058804,0.));
#29 = CARTESIAN_POINT('',(216.70904223192,5.353629532773,0.));
#30 = CARTESIAN_POINT('',(318.2348302261,-7.464623390012,0.));
#31 = CARTESIAN_POINT('',(507.82793199275,-9.041683015282,0.));
#32 = CARTESIAN_POINT('',(624.85835254001,0.262276608259,0.));
#33 = CARTESIAN_POINT('',(683.27377470218,-11.79093058608,0.));
#34 = CARTESIAN_POINT('',(755.1309479997,10.682739117643,0.));
#35 = CARTESIAN_POINT('',(877.53148804348,-11.37206338976,0.));
#36 = CARTESIAN_POINT('',(984.43988066635,12.117143010844,0.));
#37 = CARTESIAN_POINT('',(1.253513047416E+03,10.394234338362,0.));
#38 = CARTESIAN_POINT('',(1.5E+03,-1.015200398219,0.));
#39 = PCURVE('',#40,#45);
#40 = PLANE('',#41);
#41 = AXIS2_PLACEMENT_3D('',#42,#43,#44);
#42 = CARTESIAN_POINT('',(751.62814888318,75.,0.));
#43 = DIRECTION('',(0.,0.,1.));
#44 = DIRECTION('',(1.,0.,-0.));
#45 = DEFINITIONAL_REPRESENTATION('',(#46),#58);
#46 = B_SPLINE_CURVE_WITH_KNOTS('',1,(#47,#48,#49,#50,#51,#52,#53,#54,
    #55,#56,#57),.UNSPECIFIED.,.F.,.F.,(2,1,1,1,1,1,1,1,1,1,2),(0.,
    0.143466216721,0.211206263712,0.336714584834,0.414429047411,
    0.453912584035,0.50375163624,0.586081301378,0.658538938408,
    0.836659582619,1.),.UNSPECIFIED.);
#47 = CARTESIAN_POINT('',(-751.6281488831,-72.49997994119));
#48 = CARTESIAN_POINT('',(-534.9191066512,-69.64637046722));
#49 = CARTESIAN_POINT('',(-433.393318657,-82.46462339001));
#50 = CARTESIAN_POINT('',(-243.8002168904,-84.04168301528));
#51 = CARTESIAN_POINT('',(-126.7697963431,-74.73772339174));
#52 = CARTESIAN_POINT('',(-68.35437418099,-86.79093058608));
#53 = CARTESIAN_POINT('',(3.502799116516,-64.31726088235));
#54 = CARTESIAN_POINT('',(125.90333916029,-86.37206338976));
#55 = CARTESIAN_POINT('',(232.81173178317,-62.88285698915));
#56 = CARTESIAN_POINT('',(501.8848985327,-64.60576566163));
#57 = CARTESIAN_POINT('',(748.37185111681,-76.01520039821));
#58 = ( GEOMETRIC_REPRESENTATION_CONTEXT(2) 
PARAMETRIC_REPRESENTATION_CONTEXT() REPRESENTATION_CONTEXT('2D SPACE',''
  ) );
#59 = ORIENTED_EDGE('',*,*,#60,.T.);
#60 = EDGE_CURVE('',#24,#61,#63,.T.);
#61 = VERTEX_POINT('',#62);
#62 = CARTESIAN_POINT('',(1.5E+03,151.01520039821,0.));
#63 = SURFACE_CURVE('',#64,(#68),.PCURVE_S1.);
#64 = LINE('',#65,#66);
#65 = CARTESIAN_POINT('',(1.5E+03,-1.015200398219,0.));
#66 = VECTOR('',#67,1.);
#67 = DIRECTION('',(0.,1.,0.));
#68 = PCURVE('',#40,#69);
#69 = DEFINITIONAL_REPRESENTATION('',(#70),#74);
#70 = LINE('',#71,#72);
#71 = CARTESIAN_POINT('',(748.37185111681,-76.01520039821));
#72 = VECTOR('',#73,1.);
#73 = DIRECTION('',(0.,1.));
#74 = ( GEOMETRIC_REPRESENTATION_CONTEXT(2) 
PARAMETRIC_REPRESENTATION_CONTEXT() REPRESENTATION_CONTEXT('2D SPACE',''
  ) );
#75 = ORIENTED_EDGE('',*,*,#76,.T.);
#76 = EDGE_CURVE('',#61,#77,#79,.T.);
#77 = VERTEX_POINT('',#78);
#78 = CARTESIAN_POINT('',(0.,147.49997994119,0.));
#79 = SURFACE_CURVE('',#80,(#92),.PCURVE_S1.);
#80 = B_SPLINE_CURVE_WITH_KNOTS('',1,(#81,#82,#83,#84,#85,#86,#87,#88,
    #89,#90,#91),.UNSPECIFIED.,.F.,.F.,(2,1,1,1,1,1,1,1,1,1,2),(0.,
    0.163340417381,0.341461061592,0.413918698622,0.49624836376,
    0.546087415965,0.585570952589,0.663285415166,0.788793736288,
    0.856533783279,1.),.UNSPECIFIED.);
#81 = CARTESIAN_POINT('',(1.5E+03,151.01520039821,0.));
#82 = CARTESIAN_POINT('',(1.253513047416E+03,139.60576566163,0.));
#83 = CARTESIAN_POINT('',(984.43988066635,137.88285698915,0.));
#84 = CARTESIAN_POINT('',(877.53148804348,161.37206338976,0.));
#85 = CARTESIAN_POINT('',(755.1309479997,139.31726088235,0.));
#86 = CARTESIAN_POINT('',(683.27377470218,161.79093058608,0.));
#87 = CARTESIAN_POINT('',(624.85835254001,149.73772339174,0.));
#88 = CARTESIAN_POINT('',(507.82793199275,159.04168301528,0.));
#89 = CARTESIAN_POINT('',(318.2348302261,157.46462339001,0.));
#90 = CARTESIAN_POINT('',(216.70904223192,144.64637046722,0.));
#91 = CARTESIAN_POINT('',(0.,147.49997994119,0.));
#92 = PCURVE('',#40,#93);
#93 = DEFINITIONAL_REPRESENTATION('',(#94),#106);
#94 = B_SPLINE_CURVE_WITH_KNOTS('',1,(#95,#96,#97,#98,#99,#100,#101,#102
    ,#103,#104,#105),.UNSPECIFIED.,.F.,.F.,(2,1,1,1,1,1,1,1,1,1,2),(0.,
    0.163340417381,0.341461061592,0.413918698622,0.49624836376,
    0.546087415965,0.585570952589,0.663285415166,0.788793736288,
    0.856533783279,1.),.UNSPECIFIED.);
#95 = CARTESIAN_POINT('',(748.37185111681,76.015200398219));
#96 = CARTESIAN_POINT('',(501.8848985327,64.605765661638));
#97 = CARTESIAN_POINT('',(232.81173178317,62.882856989156));
#98 = CARTESIAN_POINT('',(125.90333916029,86.372063389769));
#99 = CARTESIAN_POINT('',(3.502799116516,64.317260882357));
#100 = CARTESIAN_POINT('',(-68.35437418099,86.790930586089));
#101 = CARTESIAN_POINT('',(-126.7697963431,74.737723391741));
#102 = CARTESIAN_POINT('',(-243.8002168904,84.041683015282));
#103 = CARTESIAN_POINT('',(-433.393318657,82.464623390012));
#104 = CARTESIAN_POINT('',(-534.9191066512,69.646370467227));
#105 = CARTESIAN_POINT('',(-751.6281488831,72.499979941196));
#106 = ( GEOMETRIC_REPRESENTATION_CONTEXT(2) 
PARAMETRIC_REPRESENTATION_CONTEXT() REPRESENTATION_CONTEXT('2D SPACE',''
  ) );
#107 = ORIENTED_EDGE('',*,*,#108,.T.);
#108 = EDGE_CURVE('',#77,#22,#109,.T.);
#109 = SURFACE_CURVE('',#110,(#114),.PCURVE_S1.);
#110 = LINE('',#111,#112);
#111 = CARTESIAN_POINT('',(0.,147.49997994119,0.));
#112 = VECTOR('',#113,1.);
#113 = DIRECTION('',(0.,-1.,0.));
#114 = PCURVE('',#40,#115);
#115 = DEFINITIONAL_REPRESENTATION('',(#116),#120);
#116 = LINE('',#117,#118);
#117 = CARTESIAN_POINT('',(-751.6281488831,72.499979941196));
#118 = VECTOR('',#119,1.);
#119 = DIRECTION('',(0.,-1.));
#120 = ( GEOMETRIC_REPRESENTATION_CONTEXT(2) 
PARAMETRIC_REPRESENTATION_CONTEXT() REPRESENTATION_CONTEXT('2D SPACE',''
  ) );
#121 = ( GEOMETRIC_REPRESENTATION_CONTEXT(3) 
GLOBAL_UNCERTAINTY_ASSIGNED_CONTEXT((#125)) GLOBAL_UNIT_ASSIGNED_CONTEXT
((#122,#123,#124)) REPRESENTATION_CONTEXT('Context #1',
  '3D Context with UNIT and UNCERTAINTY') );
#122 = ( LENGTH_UNIT() NAMED_UNIT(*) SI_UNIT(.MILLI.,.METRE.) );
#123 = ( NAMED_UNIT(*) PLANE_ANGLE_UNIT() SI_UNIT($,.RADIAN.) );
#124 = ( NAMED_UNIT(*) SI_UNIT($,.STERADIAN.) SOLID_ANGLE_UNIT() );
#125 = UNCERTAINTY_MEASURE_WITH_UNIT(LENGTH_MEASURE(1.E-07),#122,
  'distance_accuracy_value','confusion accuracy');
#126 = PRODUCT_RELATED_PRODUCT_CATEGORY('part',$,(#7));
ENDSEC;
END-ISO-10303-21;
