ISO-10303-21;
HEADER;
FILE_DESCRIPTION(('Open CASCADE Model'),'2;1');
FILE_NAME('Open CASCADE Shape Model','2026-06-02T12:09:04',('Author'),(
    'Open CASCADE'),'Open CASCADE STEP processor 7.9','Open CASCADE 7.9'
  ,'Unknown');
FILE_SCHEMA(('AUTOMOTIVE_DESIGN { 1 0 10303 214 1 1 1 1 }'));
ENDSEC;
DATA;
#1 = APPLICATION_PROTOCOL_DEFINITION('international standard',
  'automotive_design',2000,#2);
#2 = APPLICATION_CONTEXT(
  'core data for automotive mechanical design processes');
#3 = SHAPE_DEFINITION_REPRESENTATION(#4,#10);
#4 = PRODUCT_DEFINITION_SHAPE('','',#5);
#5 = PRODUCT_DEFINITION('design','',#6,#9);
#6 = PRODUCT_DEFINITION_FORMATION('','',#7);
#7 = PRODUCT('Open CASCADE STEP translator 7.9 77',
  'Open CASCADE STEP translator 7.9 77','',(#8));
#8 = PRODUCT_CONTEXT('',#2,'mechanical');
#9 = PRODUCT_DEFINITION_CONTEXT('part definition',#2,'design');
#10 = MANIFOLD_SURFACE_SHAPE_REPRESENTATION('',(#11,#15),#121);
#11 = AXIS2_PLACEMENT_3D('',#12,#13,#14);
#12 = CARTESIAN_POINT('',(0.,0.,0.));
#13 = DIRECTION('',(0.,0.,1.));
#14 = DIRECTION('',(1.,0.,-0.));
#15 = SHELL_BASED_SURFACE_MODEL('',(#16));
#16 = OPEN_SHELL('',(#17));
#17 = ADVANCED_FACE('',(#18),#40,.T.);
#18 = FACE_BOUND('',#19,.T.);
#19 = EDGE_LOOP('',(#20,#59,#75,#107));
#20 = ORIENTED_EDGE('',*,*,#21,.T.);
#21 = EDGE_CURVE('',#22,#24,#26,.T.);
#22 = VERTEX_POINT('',#23);
#23 = CARTESIAN_POINT('',(0.,-5.712058635465,0.));
#24 = VERTEX_POINT('',#25);
#25 = CARTESIAN_POINT('',(1.5E+03,8.983125860353,0.));
#26 = SURFACE_CURVE('',#27,(#39),.PCURVE_S1.);
#27 = B_SPLINE_CURVE_WITH_KNOTS('',1,(#28,#29,#30,#31,#32,#33,#34,#35,
    #36,#37,#38),.UNSPECIFIED.,.F.,.F.,(2,1,1,1,1,1,1,1,1,1,2),(0.,
    3.270955709797E-02,0.139586572839,0.272985467807,0.391325556305,
    0.450064189394,0.564088727206,0.645801314698,0.739454715938,
    0.888423450045,1.),.UNSPECIFIED.);
#28 = CARTESIAN_POINT('',(0.,-5.712058635465,0.));
#29 = CARTESIAN_POINT('',(48.512660064408,-14.48961514607,0.));
#30 = CARTESIAN_POINT('',(208.68546744989,2.644696790971,0.));
#31 = CARTESIAN_POINT('',(409.74614826608,2.899367902526,0.));
#32 = CARTESIAN_POINT('',(587.42663779238,-12.70040903177,0.));
#33 = CARTESIAN_POINT('',(673.59392804561,7.623732389848,0.));
#34 = CARTESIAN_POINT('',(844.83911945996,-6.894457389086,0.));
#35 = CARTESIAN_POINT('',(967.99533367839,-7.637194146544,0.));
#36 = CARTESIAN_POINT('',(1.107769216251E+03,12.066360076637,0.));
#37 = CARTESIAN_POINT('',(1.332021954234E+03,0.953057829192,0.));
#38 = CARTESIAN_POINT('',(1.5E+03,8.983125860353,0.));
#39 = PCURVE('',#40,#45);
#40 = PLANE('',#41);
#41 = AXIS2_PLACEMENT_3D('',#42,#43,#44);
#42 = CARTESIAN_POINT('',(742.77216912578,75.,0.));
#43 = DIRECTION('',(0.,0.,1.));
#44 = DIRECTION('',(1.,0.,-0.));
#45 = DEFINITIONAL_REPRESENTATION('',(#46),#58);
#46 = B_SPLINE_CURVE_WITH_KNOTS('',1,(#47,#48,#49,#50,#51,#52,#53,#54,
    #55,#56,#57),.UNSPECIFIED.,.F.,.F.,(2,1,1,1,1,1,1,1,1,1,2),(0.,
    3.270955709797E-02,0.139586572839,0.272985467807,0.391325556305,
    0.450064189394,0.564088727206,0.645801314698,0.739454715938,
    0.888423450045,1.),.UNSPECIFIED.);
#47 = CARTESIAN_POINT('',(-742.7721691257,-80.71205863546));
#48 = CARTESIAN_POINT('',(-694.2595090613,-89.48961514607));
#49 = CARTESIAN_POINT('',(-534.0867016758,-72.35530320902));
#50 = CARTESIAN_POINT('',(-333.0260208596,-72.10063209747));
#51 = CARTESIAN_POINT('',(-155.3455313333,-87.70040903177));
#52 = CARTESIAN_POINT('',(-69.17824108016,-67.37626761015));
#53 = CARTESIAN_POINT('',(102.06695033418,-81.89445738908));
#54 = CARTESIAN_POINT('',(225.2231645526,-82.63719414654));
#55 = CARTESIAN_POINT('',(364.99704712524,-62.93363992336));
#56 = CARTESIAN_POINT('',(589.24978510791,-74.0469421708));
#57 = CARTESIAN_POINT('',(757.22783087421,-66.01687413964));
#58 = ( GEOMETRIC_REPRESENTATION_CONTEXT(2) 
PARAMETRIC_REPRESENTATION_CONTEXT() REPRESENTATION_CONTEXT('2D SPACE',''
  ) );
#59 = ORIENTED_EDGE('',*,*,#60,.T.);
#60 = EDGE_CURVE('',#24,#61,#63,.T.);
#61 = VERTEX_POINT('',#62);
#62 = CARTESIAN_POINT('',(1.5E+03,141.01687413964,0.));
#63 = SURFACE_CURVE('',#64,(#68),.PCURVE_S1.);
#64 = LINE('',#65,#66);
#65 = CARTESIAN_POINT('',(1.5E+03,8.983125860353,0.));
#66 = VECTOR('',#67,1.);
#67 = DIRECTION('',(0.,1.,0.));
#68 = PCURVE('',#40,#69);
#69 = DEFINITIONAL_REPRESENTATION('',(#70),#74);
#70 = LINE('',#71,#72);
#71 = CARTESIAN_POINT('',(757.22783087421,-66.01687413964));
#72 = VECTOR('',#73,1.);
#73 = DIRECTION('',(0.,1.));
#74 = ( GEOMETRIC_REPRESENTATION_CONTEXT(2) 
PARAMETRIC_REPRESENTATION_CONTEXT() REPRESENTATION_CONTEXT('2D SPACE',''
  ) );
#75 = ORIENTED_EDGE('',*,*,#76,.T.);
#76 = EDGE_CURVE('',#61,#77,#79,.T.);
#77 = VERTEX_POINT('',#78);
#78 = CARTESIAN_POINT('',(0.,155.71205863546,0.));
#79 = SURFACE_CURVE('',#80,(#92),.PCURVE_S1.);
#80 = B_SPLINE_CURVE_WITH_KNOTS('',1,(#81,#82,#83,#84,#85,#86,#87,#88,
    #89,#90,#91),.UNSPECIFIED.,.F.,.F.,(2,1,1,1,1,1,1,1,1,1,2),(0.,
    0.111576549955,0.260545284062,0.354198685302,0.435911272794,
    0.549935810606,0.608674443695,0.727014532193,0.860413427161,
    0.967290442902,1.),.UNSPECIFIED.);
#81 = CARTESIAN_POINT('',(1.5E+03,141.01687413964,0.));
#82 = CARTESIAN_POINT('',(1.332021954234E+03,149.0469421708,0.));
#83 = CARTESIAN_POINT('',(1.107769216251E+03,137.93363992336,0.));
#84 = CARTESIAN_POINT('',(967.99533367839,157.63719414654,0.));
#85 = CARTESIAN_POINT('',(844.83911945996,156.89445738908,0.));
#86 = CARTESIAN_POINT('',(673.59392804561,142.37626761015,0.));
#87 = CARTESIAN_POINT('',(587.42663779238,162.70040903177,0.));
#88 = CARTESIAN_POINT('',(409.74614826608,147.10063209747,0.));
#89 = CARTESIAN_POINT('',(208.68546744989,147.35530320902,0.));
#90 = CARTESIAN_POINT('',(48.512660064408,164.48961514607,0.));
#91 = CARTESIAN_POINT('',(0.,155.71205863546,0.));
#92 = PCURVE('',#40,#93);
#93 = DEFINITIONAL_REPRESENTATION('',(#94),#106);
#94 = B_SPLINE_CURVE_WITH_KNOTS('',1,(#95,#96,#97,#98,#99,#100,#101,#102
    ,#103,#104,#105),.UNSPECIFIED.,.F.,.F.,(2,1,1,1,1,1,1,1,1,1,2),(0.,
    0.111576549955,0.260545284062,0.354198685302,0.435911272794,
    0.549935810606,0.608674443695,0.727014532193,0.860413427161,
    0.967290442902,1.),.UNSPECIFIED.);
#95 = CARTESIAN_POINT('',(757.22783087421,66.016874139647));
#96 = CARTESIAN_POINT('',(589.24978510791,74.046942170807));
#97 = CARTESIAN_POINT('',(364.99704712524,62.933639923363));
#98 = CARTESIAN_POINT('',(225.2231645526,82.637194146544));
#99 = CARTESIAN_POINT('',(102.06695033418,81.894457389086));
#100 = CARTESIAN_POINT('',(-69.17824108016,67.376267610152));
#101 = CARTESIAN_POINT('',(-155.3455313333,87.700409031774));
#102 = CARTESIAN_POINT('',(-333.0260208596,72.100632097474));
#103 = CARTESIAN_POINT('',(-534.0867016758,72.355303209029));
#104 = CARTESIAN_POINT('',(-694.2595090613,89.489615146077));
#105 = CARTESIAN_POINT('',(-742.7721691257,80.712058635465));
#106 = ( GEOMETRIC_REPRESENTATION_CONTEXT(2) 
PARAMETRIC_REPRESENTATION_CONTEXT() REPRESENTATION_CONTEXT('2D SPACE',''
  ) );
#107 = ORIENTED_EDGE('',*,*,#108,.T.);
#108 = EDGE_CURVE('',#77,#22,#109,.T.);
#109 = SURFACE_CURVE('',#110,(#114),.PCURVE_S1.);
#110 = LINE('',#111,#112);
#111 = CARTESIAN_POINT('',(0.,155.71205863546,0.));
#112 = VECTOR('',#113,1.);
#113 = DIRECTION('',(0.,-1.,0.));
#114 = PCURVE('',#40,#115);
#115 = DEFINITIONAL_REPRESENTATION('',(#116),#120);
#116 = LINE('',#117,#118);
#117 = CARTESIAN_POINT('',(-742.7721691257,80.712058635465));
#118 = VECTOR('',#119,1.);
#119 = DIRECTION('',(0.,-1.));
#120 = ( GEOMETRIC_REPRESENTATION_CONTEXT(2) 
PARAMETRIC_REPRESENTATION_CONTEXT() REPRESENTATION_CONTEXT('2D SPACE',''
  ) );
#121 = ( GEOMETRIC_REPRESENTATION_CONTEXT(3) 
GLOBAL_UNCERTAINTY_ASSIGNED_CONTEXT((#125)) GLOBAL_UNIT_ASSIGNED_CONTEXT
((#122,#123,#124)) REPRESENTATION_CONTEXT('Context #1',
  '3D Context with UNIT and UNCERTAINTY') );
#122 = ( LENGTH_UNIT() NAMED_UNIT(*) SI_UNIT(.MILLI.,.METRE.) );
#123 = ( NAMED_UNIT(*) PLANE_ANGLE_UNIT() SI_UNIT($,.RADIAN.) );
#124 = ( NAMED_UNIT(*) SI_UNIT($,.STERADIAN.) SOLID_ANGLE_UNIT() );
#125 = UNCERTAINTY_MEASURE_WITH_UNIT(LENGTH_MEASURE(1.E-07),#122,
  'distance_accuracy_value','confusion accuracy');
#126 = PRODUCT_RELATED_PRODUCT_CATEGORY('part',$,(#7));
ENDSEC;
END-ISO-10303-21;
