ISO-10303-21;
HEADER;
FILE_DESCRIPTION(('Open CASCADE Model'),'2;1');
FILE_NAME('Open CASCADE Shape Model','2026-06-02T12:09:04',('Author'),(
    'Open CASCADE'),'Open CASCADE STEP processor 7.9','Open CASCADE 7.9'
  ,'Unknown');
FILE_SCHEMA(('AUTOMOTIVE_DESIGN { 1 0 10303 214 1 1 1 1 }'));
ENDSEC;
DATA;
#1 = APPLICATION_PROTOCOL_DEFINITION('international standard',
  'automotive_design',2000,#2);
#2 = APPLICATION_CONTEXT(
  'core data for automotive mechanical design processes');
#3 = SHAPE_DEFINITION_REPRESENTATION(#4,#10);
#4 = PRODUCT_DEFINITION_SHAPE('','',#5);
#5 = PRODUCT_DEFINITION('design','',#6,#9);
#6 = PRODUCT_DEFINITION_FORMATION('','',#7);
#7 = PRODUCT('Open CASCADE STEP translator 7.9 65',
  'Open CASCADE STEP translator 7.9 65','',(#8));
#8 = PRODUCT_CONTEXT('',#2,'mechanical');
#9 = PRODUCT_DEFINITION_CONTEXT('part definition',#2,'design');
#10 = MANIFOLD_SURFACE_SHAPE_REPRESENTATION('',(#11,#15),#121);
#11 = AXIS2_PLACEMENT_3D('',#12,#13,#14);
#12 = CARTESIAN_POINT('',(0.,0.,0.));
#13 = DIRECTION('',(0.,0.,1.));
#14 = DIRECTION('',(1.,0.,-0.));
#15 = SHELL_BASED_SURFACE_MODEL('',(#16));
#16 = OPEN_SHELL('',(#17));
#17 = ADVANCED_FACE('',(#18),#40,.T.);
#18 = FACE_BOUND('',#19,.T.);
#19 = EDGE_LOOP('',(#20,#59,#75,#107));
#20 = ORIENTED_EDGE('',*,*,#21,.T.);
#21 = EDGE_CURVE('',#22,#24,#26,.T.);
#22 = VERTEX_POINT('',#23);
#23 = CARTESIAN_POINT('',(0.,-4.55008403805,0.));
#24 = VERTEX_POINT('',#25);
#25 = CARTESIAN_POINT('',(1.5E+03,-6.173910108885,0.));
#26 = SURFACE_CURVE('',#27,(#39),.PCURVE_S1.);
#27 = B_SPLINE_CURVE_WITH_KNOTS('',1,(#28,#29,#30,#31,#32,#33,#34,#35,
    #36,#37,#38),.UNSPECIFIED.,.F.,.F.,(2,1,1,1,1,1,1,1,1,1,2),(0.,
    5.250737433876E-02,0.124481467487,0.198515737908,0.271285087383,
    0.305332123503,0.599398630485,0.659735954949,0.755759310696,
    0.96456970358,1.),.UNSPECIFIED.);
#28 = CARTESIAN_POINT('',(0.,-4.55008403805,0.));
#29 = CARTESIAN_POINT('',(78.929606143291,-11.14227260223,0.));
#30 = CARTESIAN_POINT('',(187.26506677385,-4.027033019002,0.));
#31 = CARTESIAN_POINT('',(298.77178120582,2.129216359278,0.));
#32 = CARTESIAN_POINT('',(408.54022935318,2.067709270862,0.));
#33 = CARTESIAN_POINT('',(458.51121294721,13.923033419779,0.));
#34 = CARTESIAN_POINT('',(901.84160388117,-1.038022538678,0.));
#35 = CARTESIAN_POINT('',(991.80964270869,-14.8062899036,0.));
#36 = CARTESIAN_POINT('',(1.136651696783E+03,-13.76122577915,0.));
#37 = CARTESIAN_POINT('',(1.45042331988E+03,13.788023134735,0.));
#38 = CARTESIAN_POINT('',(1.5E+03,-6.173910108885,0.));
#39 = PCURVE('',#40,#45);
#40 = PLANE('',#41);
#41 = AXIS2_PLACEMENT_3D('',#42,#43,#44);
#42 = CARTESIAN_POINT('',(752.39906464802,75.,0.));
#43 = DIRECTION('',(0.,0.,1.));
#44 = DIRECTION('',(1.,0.,-0.));
#45 = DEFINITIONAL_REPRESENTATION('',(#46),#58);
#46 = B_SPLINE_CURVE_WITH_KNOTS('',1,(#47,#48,#49,#50,#51,#52,#53,#54,
    #55,#56,#57),.UNSPECIFIED.,.F.,.F.,(2,1,1,1,1,1,1,1,1,1,2),(0.,
    5.250737433876E-02,0.124481467487,0.198515737908,0.271285087383,
    0.305332123503,0.599398630485,0.659735954949,0.755759310696,
    0.96456970358,1.),.UNSPECIFIED.);
#47 = CARTESIAN_POINT('',(-752.399064648,-79.55008403805));
#48 = CARTESIAN_POINT('',(-673.4694585047,-86.14227260223));
#49 = CARTESIAN_POINT('',(-565.1339978741,-79.027033019));
#50 = CARTESIAN_POINT('',(-453.6272834422,-72.87078364072));
#51 = CARTESIAN_POINT('',(-343.8588352948,-72.93229072913));
#52 = CARTESIAN_POINT('',(-293.8878517008,-61.07696658022));
#53 = CARTESIAN_POINT('',(149.44253923314,-76.03802253867));
#54 = CARTESIAN_POINT('',(239.41057806066,-89.8062899036));
#55 = CARTESIAN_POINT('',(384.25263213528,-88.76122577915));
#56 = CARTESIAN_POINT('',(698.02425523225,-61.21197686526));
#57 = CARTESIAN_POINT('',(747.60093535197,-81.17391010888));
#58 = ( GEOMETRIC_REPRESENTATION_CONTEXT(2) 
PARAMETRIC_REPRESENTATION_CONTEXT() REPRESENTATION_CONTEXT('2D SPACE',''
  ) );
#59 = ORIENTED_EDGE('',*,*,#60,.T.);
#60 = EDGE_CURVE('',#24,#61,#63,.T.);
#61 = VERTEX_POINT('',#62);
#62 = CARTESIAN_POINT('',(1.5E+03,156.17391010888,0.));
#63 = SURFACE_CURVE('',#64,(#68),.PCURVE_S1.);
#64 = LINE('',#65,#66);
#65 = CARTESIAN_POINT('',(1.5E+03,-6.173910108885,0.));
#66 = VECTOR('',#67,1.);
#67 = DIRECTION('',(0.,1.,0.));
#68 = PCURVE('',#40,#69);
#69 = DEFINITIONAL_REPRESENTATION('',(#70),#74);
#70 = LINE('',#71,#72);
#71 = CARTESIAN_POINT('',(747.60093535197,-81.17391010888));
#72 = VECTOR('',#73,1.);
#73 = DIRECTION('',(0.,1.));
#74 = ( GEOMETRIC_REPRESENTATION_CONTEXT(2) 
PARAMETRIC_REPRESENTATION_CONTEXT() REPRESENTATION_CONTEXT('2D SPACE',''
  ) );
#75 = ORIENTED_EDGE('',*,*,#76,.T.);
#76 = EDGE_CURVE('',#61,#77,#79,.T.);
#77 = VERTEX_POINT('',#78);
#78 = CARTESIAN_POINT('',(0.,154.55008403805,0.));
#79 = SURFACE_CURVE('',#80,(#92),.PCURVE_S1.);
#80 = B_SPLINE_CURVE_WITH_KNOTS('',1,(#81,#82,#83,#84,#85,#86,#87,#88,
    #89,#90,#91),.UNSPECIFIED.,.F.,.F.,(2,1,1,1,1,1,1,1,1,1,2),(0.,
    3.543029642037E-02,0.244240689304,0.340264045051,0.400601369515,
    0.694667876497,0.728714912617,0.801484262092,0.875518532513,
    0.947492625661,1.),.UNSPECIFIED.);
#81 = CARTESIAN_POINT('',(1.5E+03,156.17391010888,0.));
#82 = CARTESIAN_POINT('',(1.45042331988E+03,136.21197686526,0.));
#83 = CARTESIAN_POINT('',(1.136651696783E+03,163.76122577915,0.));
#84 = CARTESIAN_POINT('',(991.80964270869,164.8062899036,0.));
#85 = CARTESIAN_POINT('',(901.84160388117,151.03802253867,0.));
#86 = CARTESIAN_POINT('',(458.51121294721,136.07696658022,0.));
#87 = CARTESIAN_POINT('',(408.54022935318,147.93229072913,0.));
#88 = CARTESIAN_POINT('',(298.77178120582,147.87078364072,0.));
#89 = CARTESIAN_POINT('',(187.26506677385,154.027033019,0.));
#90 = CARTESIAN_POINT('',(78.929606143291,161.14227260223,0.));
#91 = CARTESIAN_POINT('',(0.,154.55008403805,0.));
#92 = PCURVE('',#40,#93);
#93 = DEFINITIONAL_REPRESENTATION('',(#94),#106);
#94 = B_SPLINE_CURVE_WITH_KNOTS('',1,(#95,#96,#97,#98,#99,#100,#101,#102
    ,#103,#104,#105),.UNSPECIFIED.,.F.,.F.,(2,1,1,1,1,1,1,1,1,1,2),(0.,
    3.543029642037E-02,0.244240689304,0.340264045051,0.400601369515,
    0.694667876497,0.728714912617,0.801484262092,0.875518532513,
    0.947492625661,1.),.UNSPECIFIED.);
#95 = CARTESIAN_POINT('',(747.60093535197,81.173910108885));
#96 = CARTESIAN_POINT('',(698.02425523225,61.211976865265));
#97 = CARTESIAN_POINT('',(384.25263213528,88.761225779158));
#98 = CARTESIAN_POINT('',(239.41057806066,89.806289903605));
#99 = CARTESIAN_POINT('',(149.44253923314,76.038022538678));
#100 = CARTESIAN_POINT('',(-293.8878517008,61.076966580221));
#101 = CARTESIAN_POINT('',(-343.8588352948,72.932290729138));
#102 = CARTESIAN_POINT('',(-453.6272834422,72.870783640722));
#103 = CARTESIAN_POINT('',(-565.1339978741,79.027033019002));
#104 = CARTESIAN_POINT('',(-673.4694585047,86.142272602236));
#105 = CARTESIAN_POINT('',(-752.399064648,79.55008403805));
#106 = ( GEOMETRIC_REPRESENTATION_CONTEXT(2) 
PARAMETRIC_REPRESENTATION_CONTEXT() REPRESENTATION_CONTEXT('2D SPACE',''
  ) );
#107 = ORIENTED_EDGE('',*,*,#108,.T.);
#108 = EDGE_CURVE('',#77,#22,#109,.T.);
#109 = SURFACE_CURVE('',#110,(#114),.PCURVE_S1.);
#110 = LINE('',#111,#112);
#111 = CARTESIAN_POINT('',(0.,154.55008403805,0.));
#112 = VECTOR('',#113,1.);
#113 = DIRECTION('',(0.,-1.,0.));
#114 = PCURVE('',#40,#115);
#115 = DEFINITIONAL_REPRESENTATION('',(#116),#120);
#116 = LINE('',#117,#118);
#117 = CARTESIAN_POINT('',(-752.399064648,79.55008403805));
#118 = VECTOR('',#119,1.);
#119 = DIRECTION('',(0.,-1.));
#120 = ( GEOMETRIC_REPRESENTATION_CONTEXT(2) 
PARAMETRIC_REPRESENTATION_CONTEXT() REPRESENTATION_CONTEXT('2D SPACE',''
  ) );
#121 = ( GEOMETRIC_REPRESENTATION_CONTEXT(3) 
GLOBAL_UNCERTAINTY_ASSIGNED_CONTEXT((#125)) GLOBAL_UNIT_ASSIGNED_CONTEXT
((#122,#123,#124)) REPRESENTATION_CONTEXT('Context #1',
  '3D Context with UNIT and UNCERTAINTY') );
#122 = ( LENGTH_UNIT() NAMED_UNIT(*) SI_UNIT(.MILLI.,.METRE.) );
#123 = ( NAMED_UNIT(*) PLANE_ANGLE_UNIT() SI_UNIT($,.RADIAN.) );
#124 = ( NAMED_UNIT(*) SI_UNIT($,.STERADIAN.) SOLID_ANGLE_UNIT() );
#125 = UNCERTAINTY_MEASURE_WITH_UNIT(LENGTH_MEASURE(1.E-07),#122,
  'distance_accuracy_value','confusion accuracy');
#126 = PRODUCT_RELATED_PRODUCT_CATEGORY('part',$,(#7));
ENDSEC;
END-ISO-10303-21;
