ISO-10303-21;
HEADER;
FILE_DESCRIPTION(('Open CASCADE Model'),'2;1');
FILE_NAME('Open CASCADE Shape Model','2026-06-02T12:09:04',('Author'),(
    'Open CASCADE'),'Open CASCADE STEP processor 7.9','Open CASCADE 7.9'
  ,'Unknown');
FILE_SCHEMA(('AUTOMOTIVE_DESIGN { 1 0 10303 214 1 1 1 1 }'));
ENDSEC;
DATA;
#1 = APPLICATION_PROTOCOL_DEFINITION('international standard',
  'automotive_design',2000,#2);
#2 = APPLICATION_CONTEXT(
  'core data for automotive mechanical design processes');
#3 = SHAPE_DEFINITION_REPRESENTATION(#4,#10);
#4 = PRODUCT_DEFINITION_SHAPE('','',#5);
#5 = PRODUCT_DEFINITION('design','',#6,#9);
#6 = PRODUCT_DEFINITION_FORMATION('','',#7);
#7 = PRODUCT('Open CASCADE STEP translator 7.9 31',
  'Open CASCADE STEP translator 7.9 31','',(#8));
#8 = PRODUCT_CONTEXT('',#2,'mechanical');
#9 = PRODUCT_DEFINITION_CONTEXT('part definition',#2,'design');
#10 = MANIFOLD_SURFACE_SHAPE_REPRESENTATION('',(#11,#15),#121);
#11 = AXIS2_PLACEMENT_3D('',#12,#13,#14);
#12 = CARTESIAN_POINT('',(0.,0.,0.));
#13 = DIRECTION('',(0.,0.,1.));
#14 = DIRECTION('',(1.,0.,-0.));
#15 = SHELL_BASED_SURFACE_MODEL('',(#16));
#16 = OPEN_SHELL('',(#17));
#17 = ADVANCED_FACE('',(#18),#40,.T.);
#18 = FACE_BOUND('',#19,.T.);
#19 = EDGE_LOOP('',(#20,#59,#75,#107));
#20 = ORIENTED_EDGE('',*,*,#21,.T.);
#21 = EDGE_CURVE('',#22,#24,#26,.T.);
#22 = VERTEX_POINT('',#23);
#23 = CARTESIAN_POINT('',(0.,-11.86904644151,0.));
#24 = VERTEX_POINT('',#25);
#25 = CARTESIAN_POINT('',(1.5E+03,-11.59672686515,0.));
#26 = SURFACE_CURVE('',#27,(#39),.PCURVE_S1.);
#27 = B_SPLINE_CURVE_WITH_KNOTS('',1,(#28,#29,#30,#31,#32,#33,#34,#35,
    #36,#37,#38),.UNSPECIFIED.,.F.,.F.,(2,1,1,1,1,1,1,1,1,1,2),(0.,
    7.752599518607E-02,0.194331180302,0.217890243947,0.263029716878,
    0.400550467643,0.4243749126,0.553987142264,0.677742425864,
    0.707850868607,1.),.UNSPECIFIED.);
#28 = CARTESIAN_POINT('',(0.,-11.86904644151,0.));
#29 = CARTESIAN_POINT('',(117.1006202464,-5.148384265676,0.));
#30 = CARTESIAN_POINT('',(293.34139458458,7.870249099182,0.));
#31 = CARTESIAN_POINT('',(323.83634131212,-10.58343388895,0.));
#32 = CARTESIAN_POINT('',(390.43042761519,4.559057297715,0.));
#33 = CARTESIAN_POINT('',(597.94010334525,-10.60034013432,0.));
#34 = CARTESIAN_POINT('',(629.91884056425,6.031690466433,0.));
#35 = CARTESIAN_POINT('',(825.82134786948,-2.709607526494,0.));
#36 = CARTESIAN_POINT('',(1.012967587153E+03,3.091797967565,0.));
#37 = CARTESIAN_POINT('',(1.058372746598E+03,6.755248477348,0.));
#38 = CARTESIAN_POINT('',(1.5E+03,-11.59672686515,0.));
#39 = PCURVE('',#40,#45);
#40 = PLANE('',#41);
#41 = AXIS2_PLACEMENT_3D('',#42,#43,#44);
#42 = CARTESIAN_POINT('',(747.64014831718,75.,0.));
#43 = DIRECTION('',(0.,0.,1.));
#44 = DIRECTION('',(1.,0.,-0.));
#45 = DEFINITIONAL_REPRESENTATION('',(#46),#58);
#46 = B_SPLINE_CURVE_WITH_KNOTS('',1,(#47,#48,#49,#50,#51,#52,#53,#54,
    #55,#56,#57),.UNSPECIFIED.,.F.,.F.,(2,1,1,1,1,1,1,1,1,1,2),(0.,
    7.752599518607E-02,0.194331180302,0.217890243947,0.263029716878,
    0.400550467643,0.4243749126,0.553987142264,0.677742425864,
    0.707850868607,1.),.UNSPECIFIED.);
#47 = CARTESIAN_POINT('',(-747.6401483171,-86.86904644151));
#48 = CARTESIAN_POINT('',(-630.5395280707,-80.14838426567));
#49 = CARTESIAN_POINT('',(-454.2987537326,-67.12975090081));
#50 = CARTESIAN_POINT('',(-423.803807005,-85.58343388895));
#51 = CARTESIAN_POINT('',(-357.2097207019,-70.44094270228));
#52 = CARTESIAN_POINT('',(-149.7000449719,-85.60034013432));
#53 = CARTESIAN_POINT('',(-117.7213077529,-68.96830953356));
#54 = CARTESIAN_POINT('',(78.181199552295,-77.70960752649));
#55 = CARTESIAN_POINT('',(265.32743883586,-71.90820203243));
#56 = CARTESIAN_POINT('',(310.73259828129,-68.24475152265));
#57 = CARTESIAN_POINT('',(752.35985168281,-86.59672686515));
#58 = ( GEOMETRIC_REPRESENTATION_CONTEXT(2) 
PARAMETRIC_REPRESENTATION_CONTEXT() REPRESENTATION_CONTEXT('2D SPACE',''
  ) );
#59 = ORIENTED_EDGE('',*,*,#60,.T.);
#60 = EDGE_CURVE('',#24,#61,#63,.T.);
#61 = VERTEX_POINT('',#62);
#62 = CARTESIAN_POINT('',(1.5E+03,161.59672686515,0.));
#63 = SURFACE_CURVE('',#64,(#68),.PCURVE_S1.);
#64 = LINE('',#65,#66);
#65 = CARTESIAN_POINT('',(1.5E+03,-11.59672686515,0.));
#66 = VECTOR('',#67,1.);
#67 = DIRECTION('',(0.,1.,0.));
#68 = PCURVE('',#40,#69);
#69 = DEFINITIONAL_REPRESENTATION('',(#70),#74);
#70 = LINE('',#71,#72);
#71 = CARTESIAN_POINT('',(752.35985168281,-86.59672686515));
#72 = VECTOR('',#73,1.);
#73 = DIRECTION('',(0.,1.));
#74 = ( GEOMETRIC_REPRESENTATION_CONTEXT(2) 
PARAMETRIC_REPRESENTATION_CONTEXT() REPRESENTATION_CONTEXT('2D SPACE',''
  ) );
#75 = ORIENTED_EDGE('',*,*,#76,.T.);
#76 = EDGE_CURVE('',#61,#77,#79,.T.);
#77 = VERTEX_POINT('',#78);
#78 = CARTESIAN_POINT('',(0.,161.86904644151,0.));
#79 = SURFACE_CURVE('',#80,(#92),.PCURVE_S1.);
#80 = B_SPLINE_CURVE_WITH_KNOTS('',1,(#81,#82,#83,#84,#85,#86,#87,#88,
    #89,#90,#91),.UNSPECIFIED.,.F.,.F.,(2,1,1,1,1,1,1,1,1,1,2),(0.,
    0.292149131393,0.322257574136,0.446012857736,0.5756250874,
    0.599449532357,0.736970283122,0.782109756053,0.805668819698,
    0.922474004814,1.),.UNSPECIFIED.);
#81 = CARTESIAN_POINT('',(1.5E+03,161.59672686515,0.));
#82 = CARTESIAN_POINT('',(1.058372746598E+03,143.24475152265,0.));
#83 = CARTESIAN_POINT('',(1.012967587153E+03,146.90820203243,0.));
#84 = CARTESIAN_POINT('',(825.82134786948,152.70960752649,0.));
#85 = CARTESIAN_POINT('',(629.91884056425,143.96830953356,0.));
#86 = CARTESIAN_POINT('',(597.94010334525,160.60034013432,0.));
#87 = CARTESIAN_POINT('',(390.43042761519,145.44094270228,0.));
#88 = CARTESIAN_POINT('',(323.83634131212,160.58343388895,0.));
#89 = CARTESIAN_POINT('',(293.34139458458,142.12975090081,0.));
#90 = CARTESIAN_POINT('',(117.1006202464,155.14838426567,0.));
#91 = CARTESIAN_POINT('',(0.,161.86904644151,0.));
#92 = PCURVE('',#40,#93);
#93 = DEFINITIONAL_REPRESENTATION('',(#94),#106);
#94 = B_SPLINE_CURVE_WITH_KNOTS('',1,(#95,#96,#97,#98,#99,#100,#101,#102
    ,#103,#104,#105),.UNSPECIFIED.,.F.,.F.,(2,1,1,1,1,1,1,1,1,1,2),(0.,
    0.292149131393,0.322257574136,0.446012857736,0.5756250874,
    0.599449532357,0.736970283122,0.782109756053,0.805668819698,
    0.922474004814,1.),.UNSPECIFIED.);
#95 = CARTESIAN_POINT('',(752.35985168281,86.596726865156));
#96 = CARTESIAN_POINT('',(310.73259828129,68.244751522652));
#97 = CARTESIAN_POINT('',(265.32743883586,71.908202032435));
#98 = CARTESIAN_POINT('',(78.181199552295,77.709607526494));
#99 = CARTESIAN_POINT('',(-117.7213077529,68.968309533567));
#100 = CARTESIAN_POINT('',(-149.7000449719,85.600340134322));
#101 = CARTESIAN_POINT('',(-357.2097207019,70.440942702285));
#102 = CARTESIAN_POINT('',(-423.803807005,85.583433888957));
#103 = CARTESIAN_POINT('',(-454.2987537326,67.129750900818));
#104 = CARTESIAN_POINT('',(-630.5395280707,80.148384265676));
#105 = CARTESIAN_POINT('',(-747.6401483171,86.869046441511));
#106 = ( GEOMETRIC_REPRESENTATION_CONTEXT(2) 
PARAMETRIC_REPRESENTATION_CONTEXT() REPRESENTATION_CONTEXT('2D SPACE',''
  ) );
#107 = ORIENTED_EDGE('',*,*,#108,.T.);
#108 = EDGE_CURVE('',#77,#22,#109,.T.);
#109 = SURFACE_CURVE('',#110,(#114),.PCURVE_S1.);
#110 = LINE('',#111,#112);
#111 = CARTESIAN_POINT('',(0.,161.86904644151,0.));
#112 = VECTOR('',#113,1.);
#113 = DIRECTION('',(0.,-1.,0.));
#114 = PCURVE('',#40,#115);
#115 = DEFINITIONAL_REPRESENTATION('',(#116),#120);
#116 = LINE('',#117,#118);
#117 = CARTESIAN_POINT('',(-747.6401483171,86.869046441511));
#118 = VECTOR('',#119,1.);
#119 = DIRECTION('',(0.,-1.));
#120 = ( GEOMETRIC_REPRESENTATION_CONTEXT(2) 
PARAMETRIC_REPRESENTATION_CONTEXT() REPRESENTATION_CONTEXT('2D SPACE',''
  ) );
#121 = ( GEOMETRIC_REPRESENTATION_CONTEXT(3) 
GLOBAL_UNCERTAINTY_ASSIGNED_CONTEXT((#125)) GLOBAL_UNIT_ASSIGNED_CONTEXT
((#122,#123,#124)) REPRESENTATION_CONTEXT('Context #1',
  '3D Context with UNIT and UNCERTAINTY') );
#122 = ( LENGTH_UNIT() NAMED_UNIT(*) SI_UNIT(.MILLI.,.METRE.) );
#123 = ( NAMED_UNIT(*) PLANE_ANGLE_UNIT() SI_UNIT($,.RADIAN.) );
#124 = ( NAMED_UNIT(*) SI_UNIT($,.STERADIAN.) SOLID_ANGLE_UNIT() );
#125 = UNCERTAINTY_MEASURE_WITH_UNIT(LENGTH_MEASURE(1.E-07),#122,
  'distance_accuracy_value','confusion accuracy');
#126 = PRODUCT_RELATED_PRODUCT_CATEGORY('part',$,(#7));
ENDSEC;
END-ISO-10303-21;
