ISO-10303-21;
HEADER;
FILE_DESCRIPTION(('Open CASCADE Model'),'2;1');
FILE_NAME('Open CASCADE Shape Model','2026-06-02T12:09:04',('Author'),(
    'Open CASCADE'),'Open CASCADE STEP processor 7.9','Open CASCADE 7.9'
  ,'Unknown');
FILE_SCHEMA(('AUTOMOTIVE_DESIGN { 1 0 10303 214 1 1 1 1 }'));
ENDSEC;
DATA;
#1 = APPLICATION_PROTOCOL_DEFINITION('international standard',
  'automotive_design',2000,#2);
#2 = APPLICATION_CONTEXT(
  'core data for automotive mechanical design processes');
#3 = SHAPE_DEFINITION_REPRESENTATION(#4,#10);
#4 = PRODUCT_DEFINITION_SHAPE('','',#5);
#5 = PRODUCT_DEFINITION('design','',#6,#9);
#6 = PRODUCT_DEFINITION_FORMATION('','',#7);
#7 = PRODUCT('Open CASCADE STEP translator 7.9 97',
  'Open CASCADE STEP translator 7.9 97','',(#8));
#8 = PRODUCT_CONTEXT('',#2,'mechanical');
#9 = PRODUCT_DEFINITION_CONTEXT('part definition',#2,'design');
#10 = MANIFOLD_SURFACE_SHAPE_REPRESENTATION('',(#11,#15),#121);
#11 = AXIS2_PLACEMENT_3D('',#12,#13,#14);
#12 = CARTESIAN_POINT('',(0.,0.,0.));
#13 = DIRECTION('',(0.,0.,1.));
#14 = DIRECTION('',(1.,0.,-0.));
#15 = SHELL_BASED_SURFACE_MODEL('',(#16));
#16 = OPEN_SHELL('',(#17));
#17 = ADVANCED_FACE('',(#18),#40,.T.);
#18 = FACE_BOUND('',#19,.T.);
#19 = EDGE_LOOP('',(#20,#59,#75,#107));
#20 = ORIENTED_EDGE('',*,*,#21,.T.);
#21 = EDGE_CURVE('',#22,#24,#26,.T.);
#22 = VERTEX_POINT('',#23);
#23 = CARTESIAN_POINT('',(0.,0.753694905729,0.));
#24 = VERTEX_POINT('',#25);
#25 = CARTESIAN_POINT('',(1.5E+03,-14.13405455407,0.));
#26 = SURFACE_CURVE('',#27,(#39),.PCURVE_S1.);
#27 = B_SPLINE_CURVE_WITH_KNOTS('',1,(#28,#29,#30,#31,#32,#33,#34,#35,
    #36,#37,#38),.UNSPECIFIED.,.F.,.F.,(2,1,1,1,1,1,1,1,1,1,2),(0.,
    6.910764505432E-02,0.12692301029,0.194357146798,0.366570216118,
    0.389908530967,0.596805712588,0.646019977636,0.695297979624,
    0.812178748818,1.),.UNSPECIFIED.);
#28 = CARTESIAN_POINT('',(0.,0.753694905729,0.));
#29 = CARTESIAN_POINT('',(103.77028721662,11.072360635605,0.));
#30 = CARTESIAN_POINT('',(190.98015874079,13.448355250008,0.));
#31 = CARTESIAN_POINT('',(289.14134038355,-13.36249717319,0.));
#32 = CARTESIAN_POINT('',(548.20639434073,7.025717601748,0.));
#33 = CARTESIAN_POINT('',(582.6904778093,-0.121917196937,0.));
#34 = CARTESIAN_POINT('',(894.64781361411,12.278947017301,0.));
#35 = CARTESIAN_POINT('',(968.23634563946,2.290346383482,0.));
#36 = CARTESIAN_POINT('',(1.041027111525E+03,-12.9031655775,0.));
#37 = CARTESIAN_POINT('',(1.21693052749E+03,-7.238980892815E-02,0.));
#38 = CARTESIAN_POINT('',(1.5E+03,-14.13405455407,0.));
#39 = PCURVE('',#40,#45);
#40 = PLANE('',#41);
#41 = AXIS2_PLACEMENT_3D('',#42,#43,#44);
#42 = CARTESIAN_POINT('',(755.65872555856,75.,0.));
#43 = DIRECTION('',(0.,0.,1.));
#44 = DIRECTION('',(1.,0.,-0.));
#45 = DEFINITIONAL_REPRESENTATION('',(#46),#58);
#46 = B_SPLINE_CURVE_WITH_KNOTS('',1,(#47,#48,#49,#50,#51,#52,#53,#54,
    #55,#56,#57),.UNSPECIFIED.,.F.,.F.,(2,1,1,1,1,1,1,1,1,1,2),(0.,
    6.910764505432E-02,0.12692301029,0.194357146798,0.366570216118,
    0.389908530967,0.596805712588,0.646019977636,0.695297979624,
    0.812178748818,1.),.UNSPECIFIED.);
#47 = CARTESIAN_POINT('',(-755.6587255585,-74.24630509427));
#48 = CARTESIAN_POINT('',(-651.8884383419,-63.92763936439));
#49 = CARTESIAN_POINT('',(-564.6785668177,-61.55164474999));
#50 = CARTESIAN_POINT('',(-466.517385175,-88.36249717319));
#51 = CARTESIAN_POINT('',(-207.4523312178,-67.97428239825));
#52 = CARTESIAN_POINT('',(-172.9682477492,-75.12191719693));
#53 = CARTESIAN_POINT('',(138.98908805555,-62.72105298269));
#54 = CARTESIAN_POINT('',(212.5776200809,-72.70965361651));
#55 = CARTESIAN_POINT('',(285.36838596673,-87.9031655775));
#56 = CARTESIAN_POINT('',(461.27180193112,-75.07238980892));
#57 = CARTESIAN_POINT('',(744.34127444143,-89.13405455407));
#58 = ( GEOMETRIC_REPRESENTATION_CONTEXT(2) 
PARAMETRIC_REPRESENTATION_CONTEXT() REPRESENTATION_CONTEXT('2D SPACE',''
  ) );
#59 = ORIENTED_EDGE('',*,*,#60,.T.);
#60 = EDGE_CURVE('',#24,#61,#63,.T.);
#61 = VERTEX_POINT('',#62);
#62 = CARTESIAN_POINT('',(1.5E+03,164.13405455407,0.));
#63 = SURFACE_CURVE('',#64,(#68),.PCURVE_S1.);
#64 = LINE('',#65,#66);
#65 = CARTESIAN_POINT('',(1.5E+03,-14.13405455407,0.));
#66 = VECTOR('',#67,1.);
#67 = DIRECTION('',(0.,1.,0.));
#68 = PCURVE('',#40,#69);
#69 = DEFINITIONAL_REPRESENTATION('',(#70),#74);
#70 = LINE('',#71,#72);
#71 = CARTESIAN_POINT('',(744.34127444143,-89.13405455407));
#72 = VECTOR('',#73,1.);
#73 = DIRECTION('',(0.,1.));
#74 = ( GEOMETRIC_REPRESENTATION_CONTEXT(2) 
PARAMETRIC_REPRESENTATION_CONTEXT() REPRESENTATION_CONTEXT('2D SPACE',''
  ) );
#75 = ORIENTED_EDGE('',*,*,#76,.T.);
#76 = EDGE_CURVE('',#61,#77,#79,.T.);
#77 = VERTEX_POINT('',#78);
#78 = CARTESIAN_POINT('',(0.,149.24630509427,0.));
#79 = SURFACE_CURVE('',#80,(#92),.PCURVE_S1.);
#80 = B_SPLINE_CURVE_WITH_KNOTS('',1,(#81,#82,#83,#84,#85,#86,#87,#88,
    #89,#90,#91),.UNSPECIFIED.,.F.,.F.,(2,1,1,1,1,1,1,1,1,1,2),(0.,
    0.187821251182,0.304702020376,0.353980022364,0.403194287412,
    0.610091469033,0.633429783882,0.805642853202,0.87307698971,
    0.930892354946,1.),.UNSPECIFIED.);
#81 = CARTESIAN_POINT('',(1.5E+03,164.13405455407,0.));
#82 = CARTESIAN_POINT('',(1.21693052749E+03,150.07238980892,0.));
#83 = CARTESIAN_POINT('',(1.041027111525E+03,162.9031655775,0.));
#84 = CARTESIAN_POINT('',(968.23634563946,147.70965361651,0.));
#85 = CARTESIAN_POINT('',(894.64781361411,137.72105298269,0.));
#86 = CARTESIAN_POINT('',(582.6904778093,150.12191719693,0.));
#87 = CARTESIAN_POINT('',(548.20639434073,142.97428239825,0.));
#88 = CARTESIAN_POINT('',(289.14134038355,163.36249717319,0.));
#89 = CARTESIAN_POINT('',(190.98015874079,136.55164474999,0.));
#90 = CARTESIAN_POINT('',(103.77028721662,138.92763936439,0.));
#91 = CARTESIAN_POINT('',(0.,149.24630509427,0.));
#92 = PCURVE('',#40,#93);
#93 = DEFINITIONAL_REPRESENTATION('',(#94),#106);
#94 = B_SPLINE_CURVE_WITH_KNOTS('',1,(#95,#96,#97,#98,#99,#100,#101,#102
    ,#103,#104,#105),.UNSPECIFIED.,.F.,.F.,(2,1,1,1,1,1,1,1,1,1,2),(0.,
    0.187821251182,0.304702020376,0.353980022364,0.403194287412,
    0.610091469033,0.633429783882,0.805642853202,0.87307698971,
    0.930892354946,1.),.UNSPECIFIED.);
#95 = CARTESIAN_POINT('',(744.34127444143,89.13405455407));
#96 = CARTESIAN_POINT('',(461.27180193112,75.072389808928));
#97 = CARTESIAN_POINT('',(285.36838596673,87.903165577504));
#98 = CARTESIAN_POINT('',(212.5776200809,72.709653616518));
#99 = CARTESIAN_POINT('',(138.98908805555,62.721052982699));
#100 = CARTESIAN_POINT('',(-172.9682477492,75.121917196937));
#101 = CARTESIAN_POINT('',(-207.4523312178,67.974282398252));
#102 = CARTESIAN_POINT('',(-466.517385175,88.362497173198));
#103 = CARTESIAN_POINT('',(-564.6785668177,61.551644749992));
#104 = CARTESIAN_POINT('',(-651.8884383419,63.927639364395));
#105 = CARTESIAN_POINT('',(-755.6587255585,74.246305094271));
#106 = ( GEOMETRIC_REPRESENTATION_CONTEXT(2) 
PARAMETRIC_REPRESENTATION_CONTEXT() REPRESENTATION_CONTEXT('2D SPACE',''
  ) );
#107 = ORIENTED_EDGE('',*,*,#108,.T.);
#108 = EDGE_CURVE('',#77,#22,#109,.T.);
#109 = SURFACE_CURVE('',#110,(#114),.PCURVE_S1.);
#110 = LINE('',#111,#112);
#111 = CARTESIAN_POINT('',(0.,149.24630509427,0.));
#112 = VECTOR('',#113,1.);
#113 = DIRECTION('',(0.,-1.,0.));
#114 = PCURVE('',#40,#115);
#115 = DEFINITIONAL_REPRESENTATION('',(#116),#120);
#116 = LINE('',#117,#118);
#117 = CARTESIAN_POINT('',(-755.6587255585,74.246305094271));
#118 = VECTOR('',#119,1.);
#119 = DIRECTION('',(0.,-1.));
#120 = ( GEOMETRIC_REPRESENTATION_CONTEXT(2) 
PARAMETRIC_REPRESENTATION_CONTEXT() REPRESENTATION_CONTEXT('2D SPACE',''
  ) );
#121 = ( GEOMETRIC_REPRESENTATION_CONTEXT(3) 
GLOBAL_UNCERTAINTY_ASSIGNED_CONTEXT((#125)) GLOBAL_UNIT_ASSIGNED_CONTEXT
((#122,#123,#124)) REPRESENTATION_CONTEXT('Context #1',
  '3D Context with UNIT and UNCERTAINTY') );
#122 = ( LENGTH_UNIT() NAMED_UNIT(*) SI_UNIT(.MILLI.,.METRE.) );
#123 = ( NAMED_UNIT(*) PLANE_ANGLE_UNIT() SI_UNIT($,.RADIAN.) );
#124 = ( NAMED_UNIT(*) SI_UNIT($,.STERADIAN.) SOLID_ANGLE_UNIT() );
#125 = UNCERTAINTY_MEASURE_WITH_UNIT(LENGTH_MEASURE(1.E-07),#122,
  'distance_accuracy_value','confusion accuracy');
#126 = PRODUCT_RELATED_PRODUCT_CATEGORY('part',$,(#7));
ENDSEC;
END-ISO-10303-21;
