ISO-10303-21;
HEADER;
FILE_DESCRIPTION(('Open CASCADE Model'),'2;1');
FILE_NAME('Open CASCADE Shape Model','2026-06-02T12:09:04',('Author'),(
    'Open CASCADE'),'Open CASCADE STEP processor 7.9','Open CASCADE 7.9'
  ,'Unknown');
FILE_SCHEMA(('AUTOMOTIVE_DESIGN { 1 0 10303 214 1 1 1 1 }'));
ENDSEC;
DATA;
#1 = APPLICATION_PROTOCOL_DEFINITION('international standard',
  'automotive_design',2000,#2);
#2 = APPLICATION_CONTEXT(
  'core data for automotive mechanical design processes');
#3 = SHAPE_DEFINITION_REPRESENTATION(#4,#10);
#4 = PRODUCT_DEFINITION_SHAPE('','',#5);
#5 = PRODUCT_DEFINITION('design','',#6,#9);
#6 = PRODUCT_DEFINITION_FORMATION('','',#7);
#7 = PRODUCT('Open CASCADE STEP translator 7.9 25',
  'Open CASCADE STEP translator 7.9 25','',(#8));
#8 = PRODUCT_CONTEXT('',#2,'mechanical');
#9 = PRODUCT_DEFINITION_CONTEXT('part definition',#2,'design');
#10 = MANIFOLD_SURFACE_SHAPE_REPRESENTATION('',(#11,#15),#121);
#11 = AXIS2_PLACEMENT_3D('',#12,#13,#14);
#12 = CARTESIAN_POINT('',(0.,0.,0.));
#13 = DIRECTION('',(0.,0.,1.));
#14 = DIRECTION('',(1.,0.,-0.));
#15 = SHELL_BASED_SURFACE_MODEL('',(#16));
#16 = OPEN_SHELL('',(#17));
#17 = ADVANCED_FACE('',(#18),#40,.T.);
#18 = FACE_BOUND('',#19,.T.);
#19 = EDGE_LOOP('',(#20,#59,#75,#107));
#20 = ORIENTED_EDGE('',*,*,#21,.T.);
#21 = EDGE_CURVE('',#22,#24,#26,.T.);
#22 = VERTEX_POINT('',#23);
#23 = CARTESIAN_POINT('',(0.,-10.69644070723,0.));
#24 = VERTEX_POINT('',#25);
#25 = CARTESIAN_POINT('',(1.5E+03,-5.629951474983,0.));
#26 = SURFACE_CURVE('',#27,(#39),.PCURVE_S1.);
#27 = B_SPLINE_CURVE_WITH_KNOTS('',1,(#28,#29,#30,#31,#32,#33,#34,#35,
    #36,#37,#38),.UNSPECIFIED.,.F.,.F.,(2,1,1,1,1,1,1,1,1,1,2),(0.,
    2.419613474999E-02,0.231005820995,0.26355104997,0.30795929108,
    0.437318310169,0.502984857941,0.596167600481,0.69110698787,
    0.715626222328,1.),.UNSPECIFIED.);
#28 = CARTESIAN_POINT('',(0.,-10.69644070723,0.));
#29 = CARTESIAN_POINT('',(33.556331254612,3.832152804254,0.));
#30 = CARTESIAN_POINT('',(346.02923134603,10.391613028181,0.));
#31 = CARTESIAN_POINT('',(393.34795649221,-3.025212238352,0.));
#32 = CARTESIAN_POINT('',(458.88925290885,11.409823324053,0.));
#33 = CARTESIAN_POINT('',(654.24495077629,4.052419167652,0.));
#34 = CARTESIAN_POINT('',(751.87334468961,-13.75287542702,0.));
#35 = CARTESIAN_POINT('',(892.69165278658,-14.8639341775,0.));
#36 = CARTESIAN_POINT('',(1.036012520651E+03,-8.163146740638,0.));
#37 = CARTESIAN_POINT('',(1.07038791413E+03,5.671154702377,0.));
#38 = CARTESIAN_POINT('',(1.5E+03,-5.629951474983,0.));
#39 = PCURVE('',#40,#45);
#40 = PLANE('',#41);
#41 = AXIS2_PLACEMENT_3D('',#42,#43,#44);
#42 = CARTESIAN_POINT('',(746.16096663782,75.,0.));
#43 = DIRECTION('',(0.,0.,1.));
#44 = DIRECTION('',(1.,0.,-0.));
#45 = DEFINITIONAL_REPRESENTATION('',(#46),#58);
#46 = B_SPLINE_CURVE_WITH_KNOTS('',1,(#47,#48,#49,#50,#51,#52,#53,#54,
    #55,#56,#57),.UNSPECIFIED.,.F.,.F.,(2,1,1,1,1,1,1,1,1,1,2),(0.,
    2.419613474999E-02,0.231005820995,0.26355104997,0.30795929108,
    0.437318310169,0.502984857941,0.596167600481,0.69110698787,
    0.715626222328,1.),.UNSPECIFIED.);
#47 = CARTESIAN_POINT('',(-746.1609666378,-85.69644070723));
#48 = CARTESIAN_POINT('',(-712.6046353832,-71.16784719574));
#49 = CARTESIAN_POINT('',(-400.1317352917,-64.60838697181));
#50 = CARTESIAN_POINT('',(-352.8130101456,-78.02521223835));
#51 = CARTESIAN_POINT('',(-287.2717137289,-63.59017667594));
#52 = CARTESIAN_POINT('',(-91.91601586153,-70.94758083234));
#53 = CARTESIAN_POINT('',(5.712378051792,-88.75287542702));
#54 = CARTESIAN_POINT('',(146.53068614875,-89.8639341775));
#55 = CARTESIAN_POINT('',(289.8515540127,-83.16314674063));
#56 = CARTESIAN_POINT('',(324.22694749223,-69.32884529762));
#57 = CARTESIAN_POINT('',(753.83903336217,-80.62995147498));
#58 = ( GEOMETRIC_REPRESENTATION_CONTEXT(2) 
PARAMETRIC_REPRESENTATION_CONTEXT() REPRESENTATION_CONTEXT('2D SPACE',''
  ) );
#59 = ORIENTED_EDGE('',*,*,#60,.T.);
#60 = EDGE_CURVE('',#24,#61,#63,.T.);
#61 = VERTEX_POINT('',#62);
#62 = CARTESIAN_POINT('',(1.5E+03,155.62995147498,0.));
#63 = SURFACE_CURVE('',#64,(#68),.PCURVE_S1.);
#64 = LINE('',#65,#66);
#65 = CARTESIAN_POINT('',(1.5E+03,-5.629951474983,0.));
#66 = VECTOR('',#67,1.);
#67 = DIRECTION('',(0.,1.,0.));
#68 = PCURVE('',#40,#69);
#69 = DEFINITIONAL_REPRESENTATION('',(#70),#74);
#70 = LINE('',#71,#72);
#71 = CARTESIAN_POINT('',(753.83903336217,-80.62995147498));
#72 = VECTOR('',#73,1.);
#73 = DIRECTION('',(0.,1.));
#74 = ( GEOMETRIC_REPRESENTATION_CONTEXT(2) 
PARAMETRIC_REPRESENTATION_CONTEXT() REPRESENTATION_CONTEXT('2D SPACE',''
  ) );
#75 = ORIENTED_EDGE('',*,*,#76,.T.);
#76 = EDGE_CURVE('',#61,#77,#79,.T.);
#77 = VERTEX_POINT('',#78);
#78 = CARTESIAN_POINT('',(0.,160.69644070723,0.));
#79 = SURFACE_CURVE('',#80,(#92),.PCURVE_S1.);
#80 = B_SPLINE_CURVE_WITH_KNOTS('',1,(#81,#82,#83,#84,#85,#86,#87,#88,
    #89,#90,#91),.UNSPECIFIED.,.F.,.F.,(2,1,1,1,1,1,1,1,1,1,2),(0.,
    0.284373777672,0.30889301213,0.403832399519,0.497015142059,
    0.562681689831,0.69204070892,0.73644895003,0.768994179005,
    0.97580386525,1.),.UNSPECIFIED.);
#81 = CARTESIAN_POINT('',(1.5E+03,155.62995147498,0.));
#82 = CARTESIAN_POINT('',(1.07038791413E+03,144.32884529762,0.));
#83 = CARTESIAN_POINT('',(1.036012520651E+03,158.16314674063,0.));
#84 = CARTESIAN_POINT('',(892.69165278658,164.8639341775,0.));
#85 = CARTESIAN_POINT('',(751.87334468961,163.75287542702,0.));
#86 = CARTESIAN_POINT('',(654.24495077629,145.94758083234,0.));
#87 = CARTESIAN_POINT('',(458.88925290885,138.59017667594,0.));
#88 = CARTESIAN_POINT('',(393.34795649221,153.02521223835,0.));
#89 = CARTESIAN_POINT('',(346.02923134603,139.60838697181,0.));
#90 = CARTESIAN_POINT('',(33.556331254612,146.16784719574,0.));
#91 = CARTESIAN_POINT('',(0.,160.69644070723,0.));
#92 = PCURVE('',#40,#93);
#93 = DEFINITIONAL_REPRESENTATION('',(#94),#106);
#94 = B_SPLINE_CURVE_WITH_KNOTS('',1,(#95,#96,#97,#98,#99,#100,#101,#102
    ,#103,#104,#105),.UNSPECIFIED.,.F.,.F.,(2,1,1,1,1,1,1,1,1,1,2),(0.,
    0.284373777672,0.30889301213,0.403832399519,0.497015142059,
    0.562681689831,0.69204070892,0.73644895003,0.768994179005,
    0.97580386525,1.),.UNSPECIFIED.);
#95 = CARTESIAN_POINT('',(753.83903336217,80.629951474983));
#96 = CARTESIAN_POINT('',(324.22694749223,69.328845297623));
#97 = CARTESIAN_POINT('',(289.8515540127,83.163146740638));
#98 = CARTESIAN_POINT('',(146.53068614875,89.863934177509));
#99 = CARTESIAN_POINT('',(5.712378051792,88.752875427029));
#100 = CARTESIAN_POINT('',(-91.91601586153,70.947580832348));
#101 = CARTESIAN_POINT('',(-287.2717137289,63.590176675947));
#102 = CARTESIAN_POINT('',(-352.8130101456,78.025212238352));
#103 = CARTESIAN_POINT('',(-400.1317352917,64.608386971819));
#104 = CARTESIAN_POINT('',(-712.6046353832,71.167847195746));
#105 = CARTESIAN_POINT('',(-746.1609666378,85.696440707237));
#106 = ( GEOMETRIC_REPRESENTATION_CONTEXT(2) 
PARAMETRIC_REPRESENTATION_CONTEXT() REPRESENTATION_CONTEXT('2D SPACE',''
  ) );
#107 = ORIENTED_EDGE('',*,*,#108,.T.);
#108 = EDGE_CURVE('',#77,#22,#109,.T.);
#109 = SURFACE_CURVE('',#110,(#114),.PCURVE_S1.);
#110 = LINE('',#111,#112);
#111 = CARTESIAN_POINT('',(0.,160.69644070723,0.));
#112 = VECTOR('',#113,1.);
#113 = DIRECTION('',(0.,-1.,0.));
#114 = PCURVE('',#40,#115);
#115 = DEFINITIONAL_REPRESENTATION('',(#116),#120);
#116 = LINE('',#117,#118);
#117 = CARTESIAN_POINT('',(-746.1609666378,85.696440707237));
#118 = VECTOR('',#119,1.);
#119 = DIRECTION('',(0.,-1.));
#120 = ( GEOMETRIC_REPRESENTATION_CONTEXT(2) 
PARAMETRIC_REPRESENTATION_CONTEXT() REPRESENTATION_CONTEXT('2D SPACE',''
  ) );
#121 = ( GEOMETRIC_REPRESENTATION_CONTEXT(3) 
GLOBAL_UNCERTAINTY_ASSIGNED_CONTEXT((#125)) GLOBAL_UNIT_ASSIGNED_CONTEXT
((#122,#123,#124)) REPRESENTATION_CONTEXT('Context #1',
  '3D Context with UNIT and UNCERTAINTY') );
#122 = ( LENGTH_UNIT() NAMED_UNIT(*) SI_UNIT(.MILLI.,.METRE.) );
#123 = ( NAMED_UNIT(*) PLANE_ANGLE_UNIT() SI_UNIT($,.RADIAN.) );
#124 = ( NAMED_UNIT(*) SI_UNIT($,.STERADIAN.) SOLID_ANGLE_UNIT() );
#125 = UNCERTAINTY_MEASURE_WITH_UNIT(LENGTH_MEASURE(1.E-07),#122,
  'distance_accuracy_value','confusion accuracy');
#126 = PRODUCT_RELATED_PRODUCT_CATEGORY('part',$,(#7));
ENDSEC;
END-ISO-10303-21;
