ISO-10303-21;
HEADER;
FILE_DESCRIPTION(('Open CASCADE Model'),'2;1');
FILE_NAME('Open CASCADE Shape Model','2026-06-02T12:09:04',('Author'),(
    'Open CASCADE'),'Open CASCADE STEP processor 7.9','Open CASCADE 7.9'
  ,'Unknown');
FILE_SCHEMA(('AUTOMOTIVE_DESIGN { 1 0 10303 214 1 1 1 1 }'));
ENDSEC;
DATA;
#1 = APPLICATION_PROTOCOL_DEFINITION('international standard',
  'automotive_design',2000,#2);
#2 = APPLICATION_CONTEXT(
  'core data for automotive mechanical design processes');
#3 = SHAPE_DEFINITION_REPRESENTATION(#4,#10);
#4 = PRODUCT_DEFINITION_SHAPE('','',#5);
#5 = PRODUCT_DEFINITION('design','',#6,#9);
#6 = PRODUCT_DEFINITION_FORMATION('','',#7);
#7 = PRODUCT('Open CASCADE STEP translator 7.9 16',
  'Open CASCADE STEP translator 7.9 16','',(#8));
#8 = PRODUCT_CONTEXT('',#2,'mechanical');
#9 = PRODUCT_DEFINITION_CONTEXT('part definition',#2,'design');
#10 = MANIFOLD_SURFACE_SHAPE_REPRESENTATION('',(#11,#15),#121);
#11 = AXIS2_PLACEMENT_3D('',#12,#13,#14);
#12 = CARTESIAN_POINT('',(0.,0.,0.));
#13 = DIRECTION('',(0.,0.,1.));
#14 = DIRECTION('',(1.,0.,-0.));
#15 = SHELL_BASED_SURFACE_MODEL('',(#16));
#16 = OPEN_SHELL('',(#17));
#17 = ADVANCED_FACE('',(#18),#40,.T.);
#18 = FACE_BOUND('',#19,.T.);
#19 = EDGE_LOOP('',(#20,#59,#75,#107));
#20 = ORIENTED_EDGE('',*,*,#21,.T.);
#21 = EDGE_CURVE('',#22,#24,#26,.T.);
#22 = VERTEX_POINT('',#23);
#23 = CARTESIAN_POINT('',(0.,-0.981668281972,0.));
#24 = VERTEX_POINT('',#25);
#25 = CARTESIAN_POINT('',(1.5E+03,-6.771468848143,0.));
#26 = SURFACE_CURVE('',#27,(#39),.PCURVE_S1.);
#27 = B_SPLINE_CURVE_WITH_KNOTS('',1,(#28,#29,#30,#31,#32,#33,#34,#35,
    #36,#37,#38),.UNSPECIFIED.,.F.,.F.,(2,1,1,1,1,1,1,1,1,1,2),(0.,
    6.435386241078E-02,0.114183882652,0.220848474887,0.271935170952,
    0.363316502142,0.430695677332,0.496655501803,0.729548372449,
    0.908592940179,1.),.UNSPECIFIED.);
#28 = CARTESIAN_POINT('',(0.,-0.981668281972,0.));
#29 = CARTESIAN_POINT('',(97.024377298335,-3.987528878029,0.));
#30 = CARTESIAN_POINT('',(171.47262340417,6.355331574526,0.));
#31 = CARTESIAN_POINT('',(331.80560528048,-7.046794869309,0.));
#32 = CARTESIAN_POINT('',(407.19043619534,8.927862206228,0.));
#33 = CARTESIAN_POINT('',(544.23560185763,-5.843943864555,0.));
#34 = CARTESIAN_POINT('',(645.74792562884,-10.82157204977,0.));
#35 = CARTESIAN_POINT('',(742.81044781274,11.036914880954,0.));
#36 = CARTESIAN_POINT('',(1.093806396704E+03,-3.431392216258,0.));
#37 = CARTESIAN_POINT('',(1.363426317843E+03,12.147127553102,0.));
#38 = CARTESIAN_POINT('',(1.5E+03,-6.771468848143,0.));
#39 = PCURVE('',#40,#45);
#40 = PLANE('',#41);
#41 = AXIS2_PLACEMENT_3D('',#42,#43,#44);
#42 = CARTESIAN_POINT('',(752.24238082389,75.,0.));
#43 = DIRECTION('',(0.,0.,1.));
#44 = DIRECTION('',(1.,0.,-0.));
#45 = DEFINITIONAL_REPRESENTATION('',(#46),#58);
#46 = B_SPLINE_CURVE_WITH_KNOTS('',1,(#47,#48,#49,#50,#51,#52,#53,#54,
    #55,#56,#57),.UNSPECIFIED.,.F.,.F.,(2,1,1,1,1,1,1,1,1,1,2),(0.,
    6.435386241078E-02,0.114183882652,0.220848474887,0.271935170952,
    0.363316502142,0.430695677332,0.496655501803,0.729548372449,
    0.908592940179,1.),.UNSPECIFIED.);
#47 = CARTESIAN_POINT('',(-752.2423808238,-75.98166828197));
#48 = CARTESIAN_POINT('',(-655.2180035255,-78.98752887802));
#49 = CARTESIAN_POINT('',(-580.7697574197,-68.64466842547));
#50 = CARTESIAN_POINT('',(-420.4367755434,-82.0467948693));
#51 = CARTESIAN_POINT('',(-345.0519446285,-66.07213779377));
#52 = CARTESIAN_POINT('',(-208.0067789662,-80.84394386455));
#53 = CARTESIAN_POINT('',(-106.494455195,-85.82157204977));
#54 = CARTESIAN_POINT('',(-9.431933011156,-63.96308511904));
#55 = CARTESIAN_POINT('',(341.56401587994,-78.43139221625));
#56 = CARTESIAN_POINT('',(611.18393701915,-62.85287244689));
#57 = CARTESIAN_POINT('',(747.7576191761,-81.77146884814));
#58 = ( GEOMETRIC_REPRESENTATION_CONTEXT(2) 
PARAMETRIC_REPRESENTATION_CONTEXT() REPRESENTATION_CONTEXT('2D SPACE',''
  ) );
#59 = ORIENTED_EDGE('',*,*,#60,.T.);
#60 = EDGE_CURVE('',#24,#61,#63,.T.);
#61 = VERTEX_POINT('',#62);
#62 = CARTESIAN_POINT('',(1.5E+03,156.77146884814,0.));
#63 = SURFACE_CURVE('',#64,(#68),.PCURVE_S1.);
#64 = LINE('',#65,#66);
#65 = CARTESIAN_POINT('',(1.5E+03,-6.771468848143,0.));
#66 = VECTOR('',#67,1.);
#67 = DIRECTION('',(0.,1.,0.));
#68 = PCURVE('',#40,#69);
#69 = DEFINITIONAL_REPRESENTATION('',(#70),#74);
#70 = LINE('',#71,#72);
#71 = CARTESIAN_POINT('',(747.7576191761,-81.77146884814));
#72 = VECTOR('',#73,1.);
#73 = DIRECTION('',(0.,1.));
#74 = ( GEOMETRIC_REPRESENTATION_CONTEXT(2) 
PARAMETRIC_REPRESENTATION_CONTEXT() REPRESENTATION_CONTEXT('2D SPACE',''
  ) );
#75 = ORIENTED_EDGE('',*,*,#76,.T.);
#76 = EDGE_CURVE('',#61,#77,#79,.T.);
#77 = VERTEX_POINT('',#78);
#78 = CARTESIAN_POINT('',(0.,150.98166828197,0.));
#79 = SURFACE_CURVE('',#80,(#92),.PCURVE_S1.);
#80 = B_SPLINE_CURVE_WITH_KNOTS('',1,(#81,#82,#83,#84,#85,#86,#87,#88,
    #89,#90,#91),.UNSPECIFIED.,.F.,.F.,(2,1,1,1,1,1,1,1,1,1,2),(0.,
    9.140705982059E-02,0.270451627551,0.503344498197,0.569304322668,
    0.636683497858,0.728064829048,0.779151525113,0.885816117348,
    0.935646137589,1.),.UNSPECIFIED.);
#81 = CARTESIAN_POINT('',(1.5E+03,156.77146884814,0.));
#82 = CARTESIAN_POINT('',(1.363426317843E+03,137.85287244689,0.));
#83 = CARTESIAN_POINT('',(1.093806396704E+03,153.43139221625,0.));
#84 = CARTESIAN_POINT('',(742.81044781274,138.96308511904,0.));
#85 = CARTESIAN_POINT('',(645.74792562884,160.82157204977,0.));
#86 = CARTESIAN_POINT('',(544.23560185763,155.84394386455,0.));
#87 = CARTESIAN_POINT('',(407.19043619534,141.07213779377,0.));
#88 = CARTESIAN_POINT('',(331.80560528048,157.0467948693,0.));
#89 = CARTESIAN_POINT('',(171.47262340417,143.64466842547,0.));
#90 = CARTESIAN_POINT('',(97.024377298335,153.98752887802,0.));
#91 = CARTESIAN_POINT('',(0.,150.98166828197,0.));
#92 = PCURVE('',#40,#93);
#93 = DEFINITIONAL_REPRESENTATION('',(#94),#106);
#94 = B_SPLINE_CURVE_WITH_KNOTS('',1,(#95,#96,#97,#98,#99,#100,#101,#102
    ,#103,#104,#105),.UNSPECIFIED.,.F.,.F.,(2,1,1,1,1,1,1,1,1,1,2),(0.,
    9.140705982059E-02,0.270451627551,0.503344498197,0.569304322668,
    0.636683497858,0.728064829048,0.779151525113,0.885816117348,
    0.935646137589,1.),.UNSPECIFIED.);
#95 = CARTESIAN_POINT('',(747.7576191761,81.771468848143));
#96 = CARTESIAN_POINT('',(611.18393701915,62.852872446898));
#97 = CARTESIAN_POINT('',(341.56401587994,78.431392216258));
#98 = CARTESIAN_POINT('',(-9.431933011156,63.963085119046));
#99 = CARTESIAN_POINT('',(-106.494455195,85.821572049777));
#100 = CARTESIAN_POINT('',(-208.0067789662,80.843943864555));
#101 = CARTESIAN_POINT('',(-345.0519446285,66.072137793772));
#102 = CARTESIAN_POINT('',(-420.4367755434,82.046794869309));
#103 = CARTESIAN_POINT('',(-580.7697574197,68.644668425474));
#104 = CARTESIAN_POINT('',(-655.2180035255,78.987528878029));
#105 = CARTESIAN_POINT('',(-752.2423808238,75.981668281972));
#106 = ( GEOMETRIC_REPRESENTATION_CONTEXT(2) 
PARAMETRIC_REPRESENTATION_CONTEXT() REPRESENTATION_CONTEXT('2D SPACE',''
  ) );
#107 = ORIENTED_EDGE('',*,*,#108,.T.);
#108 = EDGE_CURVE('',#77,#22,#109,.T.);
#109 = SURFACE_CURVE('',#110,(#114),.PCURVE_S1.);
#110 = LINE('',#111,#112);
#111 = CARTESIAN_POINT('',(0.,150.98166828197,0.));
#112 = VECTOR('',#113,1.);
#113 = DIRECTION('',(0.,-1.,0.));
#114 = PCURVE('',#40,#115);
#115 = DEFINITIONAL_REPRESENTATION('',(#116),#120);
#116 = LINE('',#117,#118);
#117 = CARTESIAN_POINT('',(-752.2423808238,75.981668281972));
#118 = VECTOR('',#119,1.);
#119 = DIRECTION('',(0.,-1.));
#120 = ( GEOMETRIC_REPRESENTATION_CONTEXT(2) 
PARAMETRIC_REPRESENTATION_CONTEXT() REPRESENTATION_CONTEXT('2D SPACE',''
  ) );
#121 = ( GEOMETRIC_REPRESENTATION_CONTEXT(3) 
GLOBAL_UNCERTAINTY_ASSIGNED_CONTEXT((#125)) GLOBAL_UNIT_ASSIGNED_CONTEXT
((#122,#123,#124)) REPRESENTATION_CONTEXT('Context #1',
  '3D Context with UNIT and UNCERTAINTY') );
#122 = ( LENGTH_UNIT() NAMED_UNIT(*) SI_UNIT(.MILLI.,.METRE.) );
#123 = ( NAMED_UNIT(*) PLANE_ANGLE_UNIT() SI_UNIT($,.RADIAN.) );
#124 = ( NAMED_UNIT(*) SI_UNIT($,.STERADIAN.) SOLID_ANGLE_UNIT() );
#125 = UNCERTAINTY_MEASURE_WITH_UNIT(LENGTH_MEASURE(1.E-07),#122,
  'distance_accuracy_value','confusion accuracy');
#126 = PRODUCT_RELATED_PRODUCT_CATEGORY('part',$,(#7));
ENDSEC;
END-ISO-10303-21;
