ISO-10303-21;
HEADER;
FILE_DESCRIPTION(('Open CASCADE Model'),'2;1');
FILE_NAME('Open CASCADE Shape Model','2026-06-02T12:09:04',('Author'),(
    'Open CASCADE'),'Open CASCADE STEP processor 7.9','Open CASCADE 7.9'
  ,'Unknown');
FILE_SCHEMA(('AUTOMOTIVE_DESIGN { 1 0 10303 214 1 1 1 1 }'));
ENDSEC;
DATA;
#1 = APPLICATION_PROTOCOL_DEFINITION('international standard',
  'automotive_design',2000,#2);
#2 = APPLICATION_CONTEXT(
  'core data for automotive mechanical design processes');
#3 = SHAPE_DEFINITION_REPRESENTATION(#4,#10);
#4 = PRODUCT_DEFINITION_SHAPE('','',#5);
#5 = PRODUCT_DEFINITION('design','',#6,#9);
#6 = PRODUCT_DEFINITION_FORMATION('','',#7);
#7 = PRODUCT('Open CASCADE STEP translator 7.9 17',
  'Open CASCADE STEP translator 7.9 17','',(#8));
#8 = PRODUCT_CONTEXT('',#2,'mechanical');
#9 = PRODUCT_DEFINITION_CONTEXT('part definition',#2,'design');
#10 = MANIFOLD_SURFACE_SHAPE_REPRESENTATION('',(#11,#15),#121);
#11 = AXIS2_PLACEMENT_3D('',#12,#13,#14);
#12 = CARTESIAN_POINT('',(0.,0.,0.));
#13 = DIRECTION('',(0.,0.,1.));
#14 = DIRECTION('',(1.,0.,-0.));
#15 = SHELL_BASED_SURFACE_MODEL('',(#16));
#16 = OPEN_SHELL('',(#17));
#17 = ADVANCED_FACE('',(#18),#40,.T.);
#18 = FACE_BOUND('',#19,.T.);
#19 = EDGE_LOOP('',(#20,#59,#75,#107));
#20 = ORIENTED_EDGE('',*,*,#21,.T.);
#21 = EDGE_CURVE('',#22,#24,#26,.T.);
#22 = VERTEX_POINT('',#23);
#23 = CARTESIAN_POINT('',(0.,-2.702276860749,0.));
#24 = VERTEX_POINT('',#25);
#25 = CARTESIAN_POINT('',(1.5E+03,0.235403532737,0.));
#26 = SURFACE_CURVE('',#27,(#39),.PCURVE_S1.);
#27 = B_SPLINE_CURVE_WITH_KNOTS('',1,(#28,#29,#30,#31,#32,#33,#34,#35,
    #36,#37,#38),.UNSPECIFIED.,.F.,.F.,(2,1,1,1,1,1,1,1,1,1,2),(0.,
    2.752196634999E-02,0.151389576684,0.184592782434,0.507510471622,
    0.565994511058,0.664274363833,0.749536996409,0.814323857517,
    0.930444376291,1.),.UNSPECIFIED.);
#28 = CARTESIAN_POINT('',(0.,-2.702276860749,0.));
#29 = CARTESIAN_POINT('',(38.69884378017,12.148524073068,0.));
#30 = CARTESIAN_POINT('',(224.59830225488,-3.484971000724,0.));
#31 = CARTESIAN_POINT('',(272.7914228173,9.861260877216,0.));
#32 = CARTESIAN_POINT('',(758.99083580993,-1.948518344173,0.));
#33 = CARTESIAN_POINT('',(847.07272604506,-2.172915421015,0.));
#34 = CARTESIAN_POINT('',(995.05649303944,1.020445410563,0.));
#35 = CARTESIAN_POINT('',(1.123458371877E+03,-0.678953265394,0.));
#36 = CARTESIAN_POINT('',(1.220764279373E+03,-7.917701700198,0.));
#37 = CARTESIAN_POINT('',(1.395648920273E+03,-8.977341495362,0.));
#38 = CARTESIAN_POINT('',(1.5E+03,0.235403532737,0.));
#39 = PCURVE('',#40,#45);
#40 = PLANE('',#41);
#41 = AXIS2_PLACEMENT_3D('',#42,#43,#44);
#42 = CARTESIAN_POINT('',(746.89217131458,75.,0.));
#43 = DIRECTION('',(0.,0.,1.));
#44 = DIRECTION('',(1.,0.,-0.));
#45 = DEFINITIONAL_REPRESENTATION('',(#46),#58);
#46 = B_SPLINE_CURVE_WITH_KNOTS('',1,(#47,#48,#49,#50,#51,#52,#53,#54,
    #55,#56,#57),.UNSPECIFIED.,.F.,.F.,(2,1,1,1,1,1,1,1,1,1,2),(0.,
    2.752196634999E-02,0.151389576684,0.184592782434,0.507510471622,
    0.565994511058,0.664274363833,0.749536996409,0.814323857517,
    0.930444376291,1.),.UNSPECIFIED.);
#47 = CARTESIAN_POINT('',(-746.8921713145,-77.70227686074));
#48 = CARTESIAN_POINT('',(-708.1933275344,-62.85147592693));
#49 = CARTESIAN_POINT('',(-522.2938690597,-78.48497100072));
#50 = CARTESIAN_POINT('',(-474.1007484972,-65.13873912278));
#51 = CARTESIAN_POINT('',(12.098664495348,-76.94851834417));
#52 = CARTESIAN_POINT('',(100.18055473047,-77.17291542101));
#53 = CARTESIAN_POINT('',(248.16432172486,-73.97955458943));
#54 = CARTESIAN_POINT('',(376.56620056202,-75.67895326539));
#55 = CARTESIAN_POINT('',(473.87210805846,-82.91770170019));
#56 = CARTESIAN_POINT('',(648.75674895803,-83.97734149536));
#57 = CARTESIAN_POINT('',(753.10782868541,-74.76459646726));
#58 = ( GEOMETRIC_REPRESENTATION_CONTEXT(2) 
PARAMETRIC_REPRESENTATION_CONTEXT() REPRESENTATION_CONTEXT('2D SPACE',''
  ) );
#59 = ORIENTED_EDGE('',*,*,#60,.T.);
#60 = EDGE_CURVE('',#24,#61,#63,.T.);
#61 = VERTEX_POINT('',#62);
#62 = CARTESIAN_POINT('',(1.5E+03,149.76459646726,0.));
#63 = SURFACE_CURVE('',#64,(#68),.PCURVE_S1.);
#64 = LINE('',#65,#66);
#65 = CARTESIAN_POINT('',(1.5E+03,0.235403532737,0.));
#66 = VECTOR('',#67,1.);
#67 = DIRECTION('',(0.,1.,0.));
#68 = PCURVE('',#40,#69);
#69 = DEFINITIONAL_REPRESENTATION('',(#70),#74);
#70 = LINE('',#71,#72);
#71 = CARTESIAN_POINT('',(753.10782868541,-74.76459646726));
#72 = VECTOR('',#73,1.);
#73 = DIRECTION('',(0.,1.));
#74 = ( GEOMETRIC_REPRESENTATION_CONTEXT(2) 
PARAMETRIC_REPRESENTATION_CONTEXT() REPRESENTATION_CONTEXT('2D SPACE',''
  ) );
#75 = ORIENTED_EDGE('',*,*,#76,.T.);
#76 = EDGE_CURVE('',#61,#77,#79,.T.);
#77 = VERTEX_POINT('',#78);
#78 = CARTESIAN_POINT('',(0.,152.70227686074,0.));
#79 = SURFACE_CURVE('',#80,(#92),.PCURVE_S1.);
#80 = B_SPLINE_CURVE_WITH_KNOTS('',1,(#81,#82,#83,#84,#85,#86,#87,#88,
    #89,#90,#91),.UNSPECIFIED.,.F.,.F.,(2,1,1,1,1,1,1,1,1,1,2),(0.,
    6.955562370896E-02,0.185676142483,0.250463003591,0.335725636167,
    0.434005488942,0.492489528378,0.815407217566,0.848610423316,
    0.97247803365,1.),.UNSPECIFIED.);
#81 = CARTESIAN_POINT('',(1.5E+03,149.76459646726,0.));
#82 = CARTESIAN_POINT('',(1.395648920273E+03,158.97734149536,0.));
#83 = CARTESIAN_POINT('',(1.220764279373E+03,157.91770170019,0.));
#84 = CARTESIAN_POINT('',(1.123458371877E+03,150.67895326539,0.));
#85 = CARTESIAN_POINT('',(995.05649303944,148.97955458943,0.));
#86 = CARTESIAN_POINT('',(847.07272604506,152.17291542101,0.));
#87 = CARTESIAN_POINT('',(758.99083580993,151.94851834417,0.));
#88 = CARTESIAN_POINT('',(272.7914228173,140.13873912278,0.));
#89 = CARTESIAN_POINT('',(224.59830225488,153.48497100072,0.));
#90 = CARTESIAN_POINT('',(38.69884378017,137.85147592693,0.));
#91 = CARTESIAN_POINT('',(0.,152.70227686074,0.));
#92 = PCURVE('',#40,#93);
#93 = DEFINITIONAL_REPRESENTATION('',(#94),#106);
#94 = B_SPLINE_CURVE_WITH_KNOTS('',1,(#95,#96,#97,#98,#99,#100,#101,#102
    ,#103,#104,#105),.UNSPECIFIED.,.F.,.F.,(2,1,1,1,1,1,1,1,1,1,2),(0.,
    6.955562370896E-02,0.185676142483,0.250463003591,0.335725636167,
    0.434005488942,0.492489528378,0.815407217566,0.848610423316,
    0.97247803365,1.),.UNSPECIFIED.);
#95 = CARTESIAN_POINT('',(753.10782868541,74.764596467263));
#96 = CARTESIAN_POINT('',(648.75674895803,83.977341495362));
#97 = CARTESIAN_POINT('',(473.87210805846,82.917701700198));
#98 = CARTESIAN_POINT('',(376.56620056202,75.678953265394));
#99 = CARTESIAN_POINT('',(248.16432172486,73.979554589437));
#100 = CARTESIAN_POINT('',(100.18055473047,77.172915421016));
#101 = CARTESIAN_POINT('',(12.098664495348,76.948518344173));
#102 = CARTESIAN_POINT('',(-474.1007484972,65.138739122784));
#103 = CARTESIAN_POINT('',(-522.2938690597,78.484971000724));
#104 = CARTESIAN_POINT('',(-708.1933275344,62.851475926932));
#105 = CARTESIAN_POINT('',(-746.8921713145,77.702276860749));
#106 = ( GEOMETRIC_REPRESENTATION_CONTEXT(2) 
PARAMETRIC_REPRESENTATION_CONTEXT() REPRESENTATION_CONTEXT('2D SPACE',''
  ) );
#107 = ORIENTED_EDGE('',*,*,#108,.T.);
#108 = EDGE_CURVE('',#77,#22,#109,.T.);
#109 = SURFACE_CURVE('',#110,(#114),.PCURVE_S1.);
#110 = LINE('',#111,#112);
#111 = CARTESIAN_POINT('',(0.,152.70227686074,0.));
#112 = VECTOR('',#113,1.);
#113 = DIRECTION('',(0.,-1.,0.));
#114 = PCURVE('',#40,#115);
#115 = DEFINITIONAL_REPRESENTATION('',(#116),#120);
#116 = LINE('',#117,#118);
#117 = CARTESIAN_POINT('',(-746.8921713145,77.702276860749));
#118 = VECTOR('',#119,1.);
#119 = DIRECTION('',(0.,-1.));
#120 = ( GEOMETRIC_REPRESENTATION_CONTEXT(2) 
PARAMETRIC_REPRESENTATION_CONTEXT() REPRESENTATION_CONTEXT('2D SPACE',''
  ) );
#121 = ( GEOMETRIC_REPRESENTATION_CONTEXT(3) 
GLOBAL_UNCERTAINTY_ASSIGNED_CONTEXT((#125)) GLOBAL_UNIT_ASSIGNED_CONTEXT
((#122,#123,#124)) REPRESENTATION_CONTEXT('Context #1',
  '3D Context with UNIT and UNCERTAINTY') );
#122 = ( LENGTH_UNIT() NAMED_UNIT(*) SI_UNIT(.MILLI.,.METRE.) );
#123 = ( NAMED_UNIT(*) PLANE_ANGLE_UNIT() SI_UNIT($,.RADIAN.) );
#124 = ( NAMED_UNIT(*) SI_UNIT($,.STERADIAN.) SOLID_ANGLE_UNIT() );
#125 = UNCERTAINTY_MEASURE_WITH_UNIT(LENGTH_MEASURE(1.E-07),#122,
  'distance_accuracy_value','confusion accuracy');
#126 = PRODUCT_RELATED_PRODUCT_CATEGORY('part',$,(#7));
ENDSEC;
END-ISO-10303-21;
