ISO-10303-21;
HEADER;
FILE_DESCRIPTION(('Open CASCADE Model'),'2;1');
FILE_NAME('Open CASCADE Shape Model','2026-06-02T12:09:04',('Author'),(
    'Open CASCADE'),'Open CASCADE STEP processor 7.9','Open CASCADE 7.9'
  ,'Unknown');
FILE_SCHEMA(('AUTOMOTIVE_DESIGN { 1 0 10303 214 1 1 1 1 }'));
ENDSEC;
DATA;
#1 = APPLICATION_PROTOCOL_DEFINITION('international standard',
  'automotive_design',2000,#2);
#2 = APPLICATION_CONTEXT(
  'core data for automotive mechanical design processes');
#3 = SHAPE_DEFINITION_REPRESENTATION(#4,#10);
#4 = PRODUCT_DEFINITION_SHAPE('','',#5);
#5 = PRODUCT_DEFINITION('design','',#6,#9);
#6 = PRODUCT_DEFINITION_FORMATION('','',#7);
#7 = PRODUCT('Open CASCADE STEP translator 7.9 76',
  'Open CASCADE STEP translator 7.9 76','',(#8));
#8 = PRODUCT_CONTEXT('',#2,'mechanical');
#9 = PRODUCT_DEFINITION_CONTEXT('part definition',#2,'design');
#10 = MANIFOLD_SURFACE_SHAPE_REPRESENTATION('',(#11,#15),#121);
#11 = AXIS2_PLACEMENT_3D('',#12,#13,#14);
#12 = CARTESIAN_POINT('',(0.,0.,0.));
#13 = DIRECTION('',(0.,0.,1.));
#14 = DIRECTION('',(1.,0.,-0.));
#15 = SHELL_BASED_SURFACE_MODEL('',(#16));
#16 = OPEN_SHELL('',(#17));
#17 = ADVANCED_FACE('',(#18),#40,.T.);
#18 = FACE_BOUND('',#19,.T.);
#19 = EDGE_LOOP('',(#20,#59,#75,#107));
#20 = ORIENTED_EDGE('',*,*,#21,.T.);
#21 = EDGE_CURVE('',#22,#24,#26,.T.);
#22 = VERTEX_POINT('',#23);
#23 = CARTESIAN_POINT('',(0.,-8.155480296875,0.));
#24 = VERTEX_POINT('',#25);
#25 = CARTESIAN_POINT('',(1.5E+03,-9.298222093346,0.));
#26 = SURFACE_CURVE('',#27,(#39),.PCURVE_S1.);
#27 = B_SPLINE_CURVE_WITH_KNOTS('',1,(#28,#29,#30,#31,#32,#33,#34,#35,
    #36,#37,#38),.UNSPECIFIED.,.F.,.F.,(2,1,1,1,1,1,1,1,1,1,2),(0.,
    0.160729374402,0.241311436554,0.306011745577,0.34773167923,
    0.487921243821,0.548976542267,0.612733664983,0.910503688609,
    0.936057700579,1.),.UNSPECIFIED.);
#28 = CARTESIAN_POINT('',(0.,-8.155480296875,0.));
#29 = CARTESIAN_POINT('',(242.52080279081,3.650459573286,0.));
#30 = CARTESIAN_POINT('',(363.47932959434,-10.05377373242,0.));
#31 = CARTESIAN_POINT('',(459.42166433904,8.60775196803,0.));
#32 = CARTESIAN_POINT('',(522.13447490657,14.87082672997,0.));
#33 = CARTESIAN_POINT('',(733.22983715369,-2.135020861672,0.));
#34 = CARTESIAN_POINT('',(824.58707119173,-14.82233317357,0.));
#35 = CARTESIAN_POINT('',(916.53878808872,13.840670705193,0.));
#36 = CARTESIAN_POINT('',(1.366340384515E+03,8.760057788746,0.));
#37 = CARTESIAN_POINT('',(1.403800081696E+03,-0.567439274613,0.));
#38 = CARTESIAN_POINT('',(1.5E+03,-9.298222093346,0.));
#39 = PCURVE('',#40,#45);
#40 = PLANE('',#41);
#41 = AXIS2_PLACEMENT_3D('',#42,#43,#44);
#42 = CARTESIAN_POINT('',(750.66976233159,75.,0.));
#43 = DIRECTION('',(0.,0.,1.));
#44 = DIRECTION('',(1.,0.,-0.));
#45 = DEFINITIONAL_REPRESENTATION('',(#46),#58);
#46 = B_SPLINE_CURVE_WITH_KNOTS('',1,(#47,#48,#49,#50,#51,#52,#53,#54,
    #55,#56,#57),.UNSPECIFIED.,.F.,.F.,(2,1,1,1,1,1,1,1,1,1,2),(0.,
    0.160729374402,0.241311436554,0.306011745577,0.34773167923,
    0.487921243821,0.548976542267,0.612733664983,0.910503688609,
    0.936057700579,1.),.UNSPECIFIED.);
#47 = CARTESIAN_POINT('',(-750.6697623315,-83.15548029687));
#48 = CARTESIAN_POINT('',(-508.1489595407,-71.34954042671));
#49 = CARTESIAN_POINT('',(-387.1904327372,-85.05377373242));
#50 = CARTESIAN_POINT('',(-291.2480979925,-66.39224803197));
#51 = CARTESIAN_POINT('',(-228.535287425,-60.12917327003));
#52 = CARTESIAN_POINT('',(-17.4399251779,-77.13502086167));
#53 = CARTESIAN_POINT('',(73.917308860139,-89.82233317357));
#54 = CARTESIAN_POINT('',(165.86902575712,-61.1593292948));
#55 = CARTESIAN_POINT('',(615.67062218342,-66.23994221125));
#56 = CARTESIAN_POINT('',(653.13031936454,-75.56743927461));
#57 = CARTESIAN_POINT('',(749.3302376684,-84.29822209334));
#58 = ( GEOMETRIC_REPRESENTATION_CONTEXT(2) 
PARAMETRIC_REPRESENTATION_CONTEXT() REPRESENTATION_CONTEXT('2D SPACE',''
  ) );
#59 = ORIENTED_EDGE('',*,*,#60,.T.);
#60 = EDGE_CURVE('',#24,#61,#63,.T.);
#61 = VERTEX_POINT('',#62);
#62 = CARTESIAN_POINT('',(1.5E+03,159.29822209334,0.));
#63 = SURFACE_CURVE('',#64,(#68),.PCURVE_S1.);
#64 = LINE('',#65,#66);
#65 = CARTESIAN_POINT('',(1.5E+03,-9.298222093346,0.));
#66 = VECTOR('',#67,1.);
#67 = DIRECTION('',(0.,1.,0.));
#68 = PCURVE('',#40,#69);
#69 = DEFINITIONAL_REPRESENTATION('',(#70),#74);
#70 = LINE('',#71,#72);
#71 = CARTESIAN_POINT('',(749.3302376684,-84.29822209334));
#72 = VECTOR('',#73,1.);
#73 = DIRECTION('',(0.,1.));
#74 = ( GEOMETRIC_REPRESENTATION_CONTEXT(2) 
PARAMETRIC_REPRESENTATION_CONTEXT() REPRESENTATION_CONTEXT('2D SPACE',''
  ) );
#75 = ORIENTED_EDGE('',*,*,#76,.T.);
#76 = EDGE_CURVE('',#61,#77,#79,.T.);
#77 = VERTEX_POINT('',#78);
#78 = CARTESIAN_POINT('',(0.,158.15548029687,0.));
#79 = SURFACE_CURVE('',#80,(#92),.PCURVE_S1.);
#80 = B_SPLINE_CURVE_WITH_KNOTS('',1,(#81,#82,#83,#84,#85,#86,#87,#88,
    #89,#90,#91),.UNSPECIFIED.,.F.,.F.,(2,1,1,1,1,1,1,1,1,1,2),(0.,
    6.39422994206E-02,8.949631139134E-02,0.387266335017,0.451023457733,
    0.512078756179,0.65226832077,0.693988254423,0.758688563446,
    0.839270625598,1.),.UNSPECIFIED.);
#81 = CARTESIAN_POINT('',(1.5E+03,159.29822209334,0.));
#82 = CARTESIAN_POINT('',(1.403800081696E+03,150.56743927461,0.));
#83 = CARTESIAN_POINT('',(1.366340384515E+03,141.23994221125,0.));
#84 = CARTESIAN_POINT('',(916.53878808872,136.1593292948,0.));
#85 = CARTESIAN_POINT('',(824.58707119173,164.82233317357,0.));
#86 = CARTESIAN_POINT('',(733.22983715369,152.13502086167,0.));
#87 = CARTESIAN_POINT('',(522.13447490657,135.12917327003,0.));
#88 = CARTESIAN_POINT('',(459.42166433904,141.39224803197,0.));
#89 = CARTESIAN_POINT('',(363.47932959434,160.05377373242,0.));
#90 = CARTESIAN_POINT('',(242.52080279081,146.34954042671,0.));
#91 = CARTESIAN_POINT('',(0.,158.15548029687,0.));
#92 = PCURVE('',#40,#93);
#93 = DEFINITIONAL_REPRESENTATION('',(#94),#106);
#94 = B_SPLINE_CURVE_WITH_KNOTS('',1,(#95,#96,#97,#98,#99,#100,#101,#102
    ,#103,#104,#105),.UNSPECIFIED.,.F.,.F.,(2,1,1,1,1,1,1,1,1,1,2),(0.,
    6.39422994206E-02,8.949631139134E-02,0.387266335017,0.451023457733,
    0.512078756179,0.65226832077,0.693988254423,0.758688563446,
    0.839270625598,1.),.UNSPECIFIED.);
#95 = CARTESIAN_POINT('',(749.3302376684,84.298222093346));
#96 = CARTESIAN_POINT('',(653.13031936454,75.567439274613));
#97 = CARTESIAN_POINT('',(615.67062218342,66.239942211254));
#98 = CARTESIAN_POINT('',(165.86902575712,61.159329294807));
#99 = CARTESIAN_POINT('',(73.917308860139,89.822333173571));
#100 = CARTESIAN_POINT('',(-17.4399251779,77.135020861672));
#101 = CARTESIAN_POINT('',(-228.535287425,60.12917327003));
#102 = CARTESIAN_POINT('',(-291.2480979925,66.39224803197));
#103 = CARTESIAN_POINT('',(-387.1904327372,85.053773732422));
#104 = CARTESIAN_POINT('',(-508.1489595407,71.349540426714));
#105 = CARTESIAN_POINT('',(-750.6697623315,83.155480296875));
#106 = ( GEOMETRIC_REPRESENTATION_CONTEXT(2) 
PARAMETRIC_REPRESENTATION_CONTEXT() REPRESENTATION_CONTEXT('2D SPACE',''
  ) );
#107 = ORIENTED_EDGE('',*,*,#108,.T.);
#108 = EDGE_CURVE('',#77,#22,#109,.T.);
#109 = SURFACE_CURVE('',#110,(#114),.PCURVE_S1.);
#110 = LINE('',#111,#112);
#111 = CARTESIAN_POINT('',(0.,158.15548029687,0.));
#112 = VECTOR('',#113,1.);
#113 = DIRECTION('',(0.,-1.,0.));
#114 = PCURVE('',#40,#115);
#115 = DEFINITIONAL_REPRESENTATION('',(#116),#120);
#116 = LINE('',#117,#118);
#117 = CARTESIAN_POINT('',(-750.6697623315,83.155480296875));
#118 = VECTOR('',#119,1.);
#119 = DIRECTION('',(0.,-1.));
#120 = ( GEOMETRIC_REPRESENTATION_CONTEXT(2) 
PARAMETRIC_REPRESENTATION_CONTEXT() REPRESENTATION_CONTEXT('2D SPACE',''
  ) );
#121 = ( GEOMETRIC_REPRESENTATION_CONTEXT(3) 
GLOBAL_UNCERTAINTY_ASSIGNED_CONTEXT((#125)) GLOBAL_UNIT_ASSIGNED_CONTEXT
((#122,#123,#124)) REPRESENTATION_CONTEXT('Context #1',
  '3D Context with UNIT and UNCERTAINTY') );
#122 = ( LENGTH_UNIT() NAMED_UNIT(*) SI_UNIT(.MILLI.,.METRE.) );
#123 = ( NAMED_UNIT(*) PLANE_ANGLE_UNIT() SI_UNIT($,.RADIAN.) );
#124 = ( NAMED_UNIT(*) SI_UNIT($,.STERADIAN.) SOLID_ANGLE_UNIT() );
#125 = UNCERTAINTY_MEASURE_WITH_UNIT(LENGTH_MEASURE(1.E-07),#122,
  'distance_accuracy_value','confusion accuracy');
#126 = PRODUCT_RELATED_PRODUCT_CATEGORY('part',$,(#7));
ENDSEC;
END-ISO-10303-21;
