ISO-10303-21;
HEADER;
FILE_DESCRIPTION(('Open CASCADE Model'),'2;1');
FILE_NAME('Open CASCADE Shape Model','2026-06-02T12:09:04',('Author'),(
    'Open CASCADE'),'Open CASCADE STEP processor 7.9','Open CASCADE 7.9'
  ,'Unknown');
FILE_SCHEMA(('AUTOMOTIVE_DESIGN { 1 0 10303 214 1 1 1 1 }'));
ENDSEC;
DATA;
#1 = APPLICATION_PROTOCOL_DEFINITION('international standard',
  'automotive_design',2000,#2);
#2 = APPLICATION_CONTEXT(
  'core data for automotive mechanical design processes');
#3 = SHAPE_DEFINITION_REPRESENTATION(#4,#10);
#4 = PRODUCT_DEFINITION_SHAPE('','',#5);
#5 = PRODUCT_DEFINITION('design','',#6,#9);
#6 = PRODUCT_DEFINITION_FORMATION('','',#7);
#7 = PRODUCT('Open CASCADE STEP translator 7.9 92',
  'Open CASCADE STEP translator 7.9 92','',(#8));
#8 = PRODUCT_CONTEXT('',#2,'mechanical');
#9 = PRODUCT_DEFINITION_CONTEXT('part definition',#2,'design');
#10 = MANIFOLD_SURFACE_SHAPE_REPRESENTATION('',(#11,#15),#121);
#11 = AXIS2_PLACEMENT_3D('',#12,#13,#14);
#12 = CARTESIAN_POINT('',(0.,0.,0.));
#13 = DIRECTION('',(0.,0.,1.));
#14 = DIRECTION('',(1.,0.,-0.));
#15 = SHELL_BASED_SURFACE_MODEL('',(#16));
#16 = OPEN_SHELL('',(#17));
#17 = ADVANCED_FACE('',(#18),#40,.T.);
#18 = FACE_BOUND('',#19,.T.);
#19 = EDGE_LOOP('',(#20,#59,#75,#107));
#20 = ORIENTED_EDGE('',*,*,#21,.T.);
#21 = EDGE_CURVE('',#22,#24,#26,.T.);
#22 = VERTEX_POINT('',#23);
#23 = CARTESIAN_POINT('',(0.,-7.890578903302,0.));
#24 = VERTEX_POINT('',#25);
#25 = CARTESIAN_POINT('',(1.5E+03,-2.155259295633,0.));
#26 = SURFACE_CURVE('',#27,(#39),.PCURVE_S1.);
#27 = B_SPLINE_CURVE_WITH_KNOTS('',1,(#28,#29,#30,#31,#32,#33,#34,#35,
    #36,#37,#38),.UNSPECIFIED.,.F.,.F.,(2,1,1,1,1,1,1,1,1,1,2),(0.,
    7.417077198077E-02,0.102535411502,0.211204519415,0.382123089068,
    0.409767513005,0.454730822381,0.475971404231,0.618680637477,
    0.978466636738,1.),.UNSPECIFIED.);
#28 = CARTESIAN_POINT('',(0.,-7.890578903302,0.));
#29 = CARTESIAN_POINT('',(111.69502557784,-14.10604717709,0.));
#30 = CARTESIAN_POINT('',(154.43239073982,-12.17706656453,0.));
#31 = CARTESIAN_POINT('',(318.32068976489,-14.12130483588,0.));
#32 = CARTESIAN_POINT('',(575.79939023052,-1.509705170929,0.));
#33 = CARTESIAN_POINT('',(615.01409339411,12.655315803438,0.));
#34 = CARTESIAN_POINT('',(678.75656213032,-10.49367593415,0.));
#35 = CARTESIAN_POINT('',(710.00072932724,-3.41484767427,0.));
#36 = CARTESIAN_POINT('',(925.2414677545,-3.442102325649,0.));
#37 = CARTESIAN_POINT('',(1.467855197037E+03,2.482391704239,0.));
#38 = CARTESIAN_POINT('',(1.5E+03,-2.155259295633,0.));
#39 = PCURVE('',#40,#45);
#40 = PLANE('',#41);
#41 = AXIS2_PLACEMENT_3D('',#42,#43,#44);
#42 = CARTESIAN_POINT('',(746.92113517154,75.,0.));
#43 = DIRECTION('',(0.,0.,1.));
#44 = DIRECTION('',(1.,0.,-0.));
#45 = DEFINITIONAL_REPRESENTATION('',(#46),#58);
#46 = B_SPLINE_CURVE_WITH_KNOTS('',1,(#47,#48,#49,#50,#51,#52,#53,#54,
    #55,#56,#57),.UNSPECIFIED.,.F.,.F.,(2,1,1,1,1,1,1,1,1,1,2),(0.,
    7.417077198077E-02,0.102535411502,0.211204519415,0.382123089068,
    0.409767513005,0.454730822381,0.475971404231,0.618680637477,
    0.978466636738,1.),.UNSPECIFIED.);
#47 = CARTESIAN_POINT('',(-746.9211351715,-82.8905789033));
#48 = CARTESIAN_POINT('',(-635.2261095937,-89.10604717709));
#49 = CARTESIAN_POINT('',(-592.4887444317,-87.17706656453));
#50 = CARTESIAN_POINT('',(-428.6004454066,-89.12130483588));
#51 = CARTESIAN_POINT('',(-171.121744941,-76.50970517092));
#52 = CARTESIAN_POINT('',(-131.9070417774,-62.34468419656));
#53 = CARTESIAN_POINT('',(-68.16457304122,-85.49367593415));
#54 = CARTESIAN_POINT('',(-36.9204058443,-78.41484767427));
#55 = CARTESIAN_POINT('',(178.32033258295,-78.44210232564));
#56 = CARTESIAN_POINT('',(720.9340618655,-72.51760829576));
#57 = CARTESIAN_POINT('',(753.07886482845,-77.15525929563));
#58 = ( GEOMETRIC_REPRESENTATION_CONTEXT(2) 
PARAMETRIC_REPRESENTATION_CONTEXT() REPRESENTATION_CONTEXT('2D SPACE',''
  ) );
#59 = ORIENTED_EDGE('',*,*,#60,.T.);
#60 = EDGE_CURVE('',#24,#61,#63,.T.);
#61 = VERTEX_POINT('',#62);
#62 = CARTESIAN_POINT('',(1.5E+03,152.15525929563,0.));
#63 = SURFACE_CURVE('',#64,(#68),.PCURVE_S1.);
#64 = LINE('',#65,#66);
#65 = CARTESIAN_POINT('',(1.5E+03,-2.155259295633,0.));
#66 = VECTOR('',#67,1.);
#67 = DIRECTION('',(0.,1.,0.));
#68 = PCURVE('',#40,#69);
#69 = DEFINITIONAL_REPRESENTATION('',(#70),#74);
#70 = LINE('',#71,#72);
#71 = CARTESIAN_POINT('',(753.07886482845,-77.15525929563));
#72 = VECTOR('',#73,1.);
#73 = DIRECTION('',(0.,1.));
#74 = ( GEOMETRIC_REPRESENTATION_CONTEXT(2) 
PARAMETRIC_REPRESENTATION_CONTEXT() REPRESENTATION_CONTEXT('2D SPACE',''
  ) );
#75 = ORIENTED_EDGE('',*,*,#76,.T.);
#76 = EDGE_CURVE('',#61,#77,#79,.T.);
#77 = VERTEX_POINT('',#78);
#78 = CARTESIAN_POINT('',(0.,157.8905789033,0.));
#79 = SURFACE_CURVE('',#80,(#92),.PCURVE_S1.);
#80 = B_SPLINE_CURVE_WITH_KNOTS('',1,(#81,#82,#83,#84,#85,#86,#87,#88,
    #89,#90,#91),.UNSPECIFIED.,.F.,.F.,(2,1,1,1,1,1,1,1,1,1,2),(0.,
    2.153336326158E-02,0.381319362523,0.524028595769,0.545269177619,
    0.590232486995,0.617876910932,0.788795480585,0.897464588498,
    0.925829228019,1.),.UNSPECIFIED.);
#81 = CARTESIAN_POINT('',(1.5E+03,152.15525929563,0.));
#82 = CARTESIAN_POINT('',(1.467855197037E+03,147.51760829576,0.));
#83 = CARTESIAN_POINT('',(925.2414677545,153.44210232564,0.));
#84 = CARTESIAN_POINT('',(710.00072932724,153.41484767427,0.));
#85 = CARTESIAN_POINT('',(678.75656213032,160.49367593415,0.));
#86 = CARTESIAN_POINT('',(615.01409339411,137.34468419656,0.));
#87 = CARTESIAN_POINT('',(575.79939023052,151.50970517092,0.));
#88 = CARTESIAN_POINT('',(318.32068976489,164.12130483588,0.));
#89 = CARTESIAN_POINT('',(154.43239073982,162.17706656453,0.));
#90 = CARTESIAN_POINT('',(111.69502557784,164.10604717709,0.));
#91 = CARTESIAN_POINT('',(0.,157.8905789033,0.));
#92 = PCURVE('',#40,#93);
#93 = DEFINITIONAL_REPRESENTATION('',(#94),#106);
#94 = B_SPLINE_CURVE_WITH_KNOTS('',1,(#95,#96,#97,#98,#99,#100,#101,#102
    ,#103,#104,#105),.UNSPECIFIED.,.F.,.F.,(2,1,1,1,1,1,1,1,1,1,2),(0.,
    2.153336326158E-02,0.381319362523,0.524028595769,0.545269177619,
    0.590232486995,0.617876910932,0.788795480585,0.897464588498,
    0.925829228019,1.),.UNSPECIFIED.);
#95 = CARTESIAN_POINT('',(753.07886482845,77.155259295633));
#96 = CARTESIAN_POINT('',(720.9340618655,72.517608295761));
#97 = CARTESIAN_POINT('',(178.32033258295,78.442102325649));
#98 = CARTESIAN_POINT('',(-36.9204058443,78.41484767427));
#99 = CARTESIAN_POINT('',(-68.16457304122,85.493675934151));
#100 = CARTESIAN_POINT('',(-131.9070417774,62.344684196562));
#101 = CARTESIAN_POINT('',(-171.121744941,76.509705170929));
#102 = CARTESIAN_POINT('',(-428.6004454066,89.121304835886));
#103 = CARTESIAN_POINT('',(-592.4887444317,87.177066564533));
#104 = CARTESIAN_POINT('',(-635.2261095937,89.106047177095));
#105 = CARTESIAN_POINT('',(-746.9211351715,82.890578903302));
#106 = ( GEOMETRIC_REPRESENTATION_CONTEXT(2) 
PARAMETRIC_REPRESENTATION_CONTEXT() REPRESENTATION_CONTEXT('2D SPACE',''
  ) );
#107 = ORIENTED_EDGE('',*,*,#108,.T.);
#108 = EDGE_CURVE('',#77,#22,#109,.T.);
#109 = SURFACE_CURVE('',#110,(#114),.PCURVE_S1.);
#110 = LINE('',#111,#112);
#111 = CARTESIAN_POINT('',(0.,157.8905789033,0.));
#112 = VECTOR('',#113,1.);
#113 = DIRECTION('',(0.,-1.,0.));
#114 = PCURVE('',#40,#115);
#115 = DEFINITIONAL_REPRESENTATION('',(#116),#120);
#116 = LINE('',#117,#118);
#117 = CARTESIAN_POINT('',(-746.9211351715,82.890578903302));
#118 = VECTOR('',#119,1.);
#119 = DIRECTION('',(0.,-1.));
#120 = ( GEOMETRIC_REPRESENTATION_CONTEXT(2) 
PARAMETRIC_REPRESENTATION_CONTEXT() REPRESENTATION_CONTEXT('2D SPACE',''
  ) );
#121 = ( GEOMETRIC_REPRESENTATION_CONTEXT(3) 
GLOBAL_UNCERTAINTY_ASSIGNED_CONTEXT((#125)) GLOBAL_UNIT_ASSIGNED_CONTEXT
((#122,#123,#124)) REPRESENTATION_CONTEXT('Context #1',
  '3D Context with UNIT and UNCERTAINTY') );
#122 = ( LENGTH_UNIT() NAMED_UNIT(*) SI_UNIT(.MILLI.,.METRE.) );
#123 = ( NAMED_UNIT(*) PLANE_ANGLE_UNIT() SI_UNIT($,.RADIAN.) );
#124 = ( NAMED_UNIT(*) SI_UNIT($,.STERADIAN.) SOLID_ANGLE_UNIT() );
#125 = UNCERTAINTY_MEASURE_WITH_UNIT(LENGTH_MEASURE(1.E-07),#122,
  'distance_accuracy_value','confusion accuracy');
#126 = PRODUCT_RELATED_PRODUCT_CATEGORY('part',$,(#7));
ENDSEC;
END-ISO-10303-21;
