ISO-10303-21;
HEADER;
FILE_DESCRIPTION(('Open CASCADE Model'),'2;1');
FILE_NAME('Open CASCADE Shape Model','2026-06-02T12:09:04',('Author'),(
    'Open CASCADE'),'Open CASCADE STEP processor 7.9','Open CASCADE 7.9'
  ,'Unknown');
FILE_SCHEMA(('AUTOMOTIVE_DESIGN { 1 0 10303 214 1 1 1 1 }'));
ENDSEC;
DATA;
#1 = APPLICATION_PROTOCOL_DEFINITION('international standard',
  'automotive_design',2000,#2);
#2 = APPLICATION_CONTEXT(
  'core data for automotive mechanical design processes');
#3 = SHAPE_DEFINITION_REPRESENTATION(#4,#10);
#4 = PRODUCT_DEFINITION_SHAPE('','',#5);
#5 = PRODUCT_DEFINITION('design','',#6,#9);
#6 = PRODUCT_DEFINITION_FORMATION('','',#7);
#7 = PRODUCT('Open CASCADE STEP translator 7.9 46',
  'Open CASCADE STEP translator 7.9 46','',(#8));
#8 = PRODUCT_CONTEXT('',#2,'mechanical');
#9 = PRODUCT_DEFINITION_CONTEXT('part definition',#2,'design');
#10 = MANIFOLD_SURFACE_SHAPE_REPRESENTATION('',(#11,#15),#121);
#11 = AXIS2_PLACEMENT_3D('',#12,#13,#14);
#12 = CARTESIAN_POINT('',(0.,0.,0.));
#13 = DIRECTION('',(0.,0.,1.));
#14 = DIRECTION('',(1.,0.,-0.));
#15 = SHELL_BASED_SURFACE_MODEL('',(#16));
#16 = OPEN_SHELL('',(#17));
#17 = ADVANCED_FACE('',(#18),#40,.T.);
#18 = FACE_BOUND('',#19,.T.);
#19 = EDGE_LOOP('',(#20,#59,#75,#107));
#20 = ORIENTED_EDGE('',*,*,#21,.T.);
#21 = EDGE_CURVE('',#22,#24,#26,.T.);
#22 = VERTEX_POINT('',#23);
#23 = CARTESIAN_POINT('',(0.,5.35401025553,0.));
#24 = VERTEX_POINT('',#25);
#25 = CARTESIAN_POINT('',(1.5E+03,10.41368633621,0.));
#26 = SURFACE_CURVE('',#27,(#39),.PCURVE_S1.);
#27 = B_SPLINE_CURVE_WITH_KNOTS('',1,(#28,#29,#30,#31,#32,#33,#34,#35,
    #36,#37,#38),.UNSPECIFIED.,.F.,.F.,(2,1,1,1,1,1,1,1,1,1,2),(0.,
    6.639104328553E-02,9.022414784392E-02,0.340627559688,0.380056103805,
    0.470198770503,0.529100972399,0.598234262044,0.627662667966,
    0.686826504717,1.),.UNSPECIFIED.);
#28 = CARTESIAN_POINT('',(0.,5.35401025553,0.));
#29 = CARTESIAN_POINT('',(99.557142829063,-3.243876357438,0.));
#30 = CARTESIAN_POINT('',(135.17140261259,1.049576040322,0.));
#31 = CARTESIAN_POINT('',(512.05824241298,2.986462642642,0.));
#32 = CARTESIAN_POINT('',(571.27252496701,-0.956582740382,0.));
#33 = CARTESIAN_POINT('',(706.55518723133,9.38283166154,0.));
#34 = CARTESIAN_POINT('',(791.88931974217,-14.65811695558,0.));
#35 = CARTESIAN_POINT('',(895.81900281708,-9.549236061116,0.));
#36 = CARTESIAN_POINT('',(940.05303306181,-7.248438981945,0.));
#37 = CARTESIAN_POINT('',(1.028725781324E+03,0.937221089581,0.));
#38 = CARTESIAN_POINT('',(1.5E+03,10.41368633621,0.));
#39 = PCURVE('',#40,#45);
#40 = PLANE('',#41);
#41 = AXIS2_PLACEMENT_3D('',#42,#43,#44);
#42 = CARTESIAN_POINT('',(747.47827912473,75.,0.));
#43 = DIRECTION('',(0.,0.,1.));
#44 = DIRECTION('',(1.,0.,-0.));
#45 = DEFINITIONAL_REPRESENTATION('',(#46),#58);
#46 = B_SPLINE_CURVE_WITH_KNOTS('',1,(#47,#48,#49,#50,#51,#52,#53,#54,
    #55,#56,#57),.UNSPECIFIED.,.F.,.F.,(2,1,1,1,1,1,1,1,1,1,2),(0.,
    6.639104328553E-02,9.022414784392E-02,0.340627559688,0.380056103805,
    0.470198770503,0.529100972399,0.598234262044,0.627662667966,
    0.686826504717,1.),.UNSPECIFIED.);
#47 = CARTESIAN_POINT('',(-747.4782791247,-69.64598974447));
#48 = CARTESIAN_POINT('',(-647.9211362956,-78.24387635743));
#49 = CARTESIAN_POINT('',(-612.3068765121,-73.95042395967));
#50 = CARTESIAN_POINT('',(-235.4200367117,-72.01353735735));
#51 = CARTESIAN_POINT('',(-176.2057541577,-75.95658274038));
#52 = CARTESIAN_POINT('',(-40.9230918934,-65.61716833846));
#53 = CARTESIAN_POINT('',(44.411040617435,-89.65811695558));
#54 = CARTESIAN_POINT('',(148.34072369234,-84.54923606111));
#55 = CARTESIAN_POINT('',(192.57475393708,-82.24843898194));
#56 = CARTESIAN_POINT('',(281.247502199,-74.06277891041));
#57 = CARTESIAN_POINT('',(752.52172087526,-64.58631366379));
#58 = ( GEOMETRIC_REPRESENTATION_CONTEXT(2) 
PARAMETRIC_REPRESENTATION_CONTEXT() REPRESENTATION_CONTEXT('2D SPACE',''
  ) );
#59 = ORIENTED_EDGE('',*,*,#60,.T.);
#60 = EDGE_CURVE('',#24,#61,#63,.T.);
#61 = VERTEX_POINT('',#62);
#62 = CARTESIAN_POINT('',(1.5E+03,139.58631366379,0.));
#63 = SURFACE_CURVE('',#64,(#68),.PCURVE_S1.);
#64 = LINE('',#65,#66);
#65 = CARTESIAN_POINT('',(1.5E+03,10.41368633621,0.));
#66 = VECTOR('',#67,1.);
#67 = DIRECTION('',(0.,1.,0.));
#68 = PCURVE('',#40,#69);
#69 = DEFINITIONAL_REPRESENTATION('',(#70),#74);
#70 = LINE('',#71,#72);
#71 = CARTESIAN_POINT('',(752.52172087526,-64.58631366379));
#72 = VECTOR('',#73,1.);
#73 = DIRECTION('',(0.,1.));
#74 = ( GEOMETRIC_REPRESENTATION_CONTEXT(2) 
PARAMETRIC_REPRESENTATION_CONTEXT() REPRESENTATION_CONTEXT('2D SPACE',''
  ) );
#75 = ORIENTED_EDGE('',*,*,#76,.T.);
#76 = EDGE_CURVE('',#61,#77,#79,.T.);
#77 = VERTEX_POINT('',#78);
#78 = CARTESIAN_POINT('',(0.,144.64598974447,0.));
#79 = SURFACE_CURVE('',#80,(#92),.PCURVE_S1.);
#80 = B_SPLINE_CURVE_WITH_KNOTS('',1,(#81,#82,#83,#84,#85,#86,#87,#88,
    #89,#90,#91),.UNSPECIFIED.,.F.,.F.,(2,1,1,1,1,1,1,1,1,1,2),(0.,
    0.313173495283,0.372337332034,0.401765737956,0.470899027601,
    0.529801229497,0.619943896195,0.659372440312,0.909775852156,
    0.933608956714,1.),.UNSPECIFIED.);
#81 = CARTESIAN_POINT('',(1.5E+03,139.58631366379,0.));
#82 = CARTESIAN_POINT('',(1.028725781324E+03,149.06277891041,0.));
#83 = CARTESIAN_POINT('',(940.05303306181,157.24843898194,0.));
#84 = CARTESIAN_POINT('',(895.81900281708,159.54923606111,0.));
#85 = CARTESIAN_POINT('',(791.88931974217,164.65811695558,0.));
#86 = CARTESIAN_POINT('',(706.55518723133,140.61716833846,0.));
#87 = CARTESIAN_POINT('',(571.27252496701,150.95658274038,0.));
#88 = CARTESIAN_POINT('',(512.05824241298,147.01353735735,0.));
#89 = CARTESIAN_POINT('',(135.17140261259,148.95042395967,0.));
#90 = CARTESIAN_POINT('',(99.557142829063,153.24387635743,0.));
#91 = CARTESIAN_POINT('',(0.,144.64598974447,0.));
#92 = PCURVE('',#40,#93);
#93 = DEFINITIONAL_REPRESENTATION('',(#94),#106);
#94 = B_SPLINE_CURVE_WITH_KNOTS('',1,(#95,#96,#97,#98,#99,#100,#101,#102
    ,#103,#104,#105),.UNSPECIFIED.,.F.,.F.,(2,1,1,1,1,1,1,1,1,1,2),(0.,
    0.313173495283,0.372337332034,0.401765737956,0.470899027601,
    0.529801229497,0.619943896195,0.659372440312,0.909775852156,
    0.933608956714,1.),.UNSPECIFIED.);
#95 = CARTESIAN_POINT('',(752.52172087526,64.58631366379));
#96 = CARTESIAN_POINT('',(281.247502199,74.062778910419));
#97 = CARTESIAN_POINT('',(192.57475393708,82.248438981945));
#98 = CARTESIAN_POINT('',(148.34072369234,84.549236061116));
#99 = CARTESIAN_POINT('',(44.411040617435,89.658116955587));
#100 = CARTESIAN_POINT('',(-40.9230918934,65.61716833846));
#101 = CARTESIAN_POINT('',(-176.2057541577,75.956582740382));
#102 = CARTESIAN_POINT('',(-235.4200367117,72.013537357358));
#103 = CARTESIAN_POINT('',(-612.3068765121,73.950423959678));
#104 = CARTESIAN_POINT('',(-647.9211362956,78.243876357438));
#105 = CARTESIAN_POINT('',(-747.4782791247,69.64598974447));
#106 = ( GEOMETRIC_REPRESENTATION_CONTEXT(2) 
PARAMETRIC_REPRESENTATION_CONTEXT() REPRESENTATION_CONTEXT('2D SPACE',''
  ) );
#107 = ORIENTED_EDGE('',*,*,#108,.T.);
#108 = EDGE_CURVE('',#77,#22,#109,.T.);
#109 = SURFACE_CURVE('',#110,(#114),.PCURVE_S1.);
#110 = LINE('',#111,#112);
#111 = CARTESIAN_POINT('',(0.,144.64598974447,0.));
#112 = VECTOR('',#113,1.);
#113 = DIRECTION('',(0.,-1.,0.));
#114 = PCURVE('',#40,#115);
#115 = DEFINITIONAL_REPRESENTATION('',(#116),#120);
#116 = LINE('',#117,#118);
#117 = CARTESIAN_POINT('',(-747.4782791247,69.64598974447));
#118 = VECTOR('',#119,1.);
#119 = DIRECTION('',(0.,-1.));
#120 = ( GEOMETRIC_REPRESENTATION_CONTEXT(2) 
PARAMETRIC_REPRESENTATION_CONTEXT() REPRESENTATION_CONTEXT('2D SPACE',''
  ) );
#121 = ( GEOMETRIC_REPRESENTATION_CONTEXT(3) 
GLOBAL_UNCERTAINTY_ASSIGNED_CONTEXT((#125)) GLOBAL_UNIT_ASSIGNED_CONTEXT
((#122,#123,#124)) REPRESENTATION_CONTEXT('Context #1',
  '3D Context with UNIT and UNCERTAINTY') );
#122 = ( LENGTH_UNIT() NAMED_UNIT(*) SI_UNIT(.MILLI.,.METRE.) );
#123 = ( NAMED_UNIT(*) PLANE_ANGLE_UNIT() SI_UNIT($,.RADIAN.) );
#124 = ( NAMED_UNIT(*) SI_UNIT($,.STERADIAN.) SOLID_ANGLE_UNIT() );
#125 = UNCERTAINTY_MEASURE_WITH_UNIT(LENGTH_MEASURE(1.E-07),#122,
  'distance_accuracy_value','confusion accuracy');
#126 = PRODUCT_RELATED_PRODUCT_CATEGORY('part',$,(#7));
ENDSEC;
END-ISO-10303-21;
