ISO-10303-21;
HEADER;
FILE_DESCRIPTION(('Open CASCADE Model'),'2;1');
FILE_NAME('Open CASCADE Shape Model','2026-06-02T12:09:04',('Author'),(
    'Open CASCADE'),'Open CASCADE STEP processor 7.9','Open CASCADE 7.9'
  ,'Unknown');
FILE_SCHEMA(('AUTOMOTIVE_DESIGN { 1 0 10303 214 1 1 1 1 }'));
ENDSEC;
DATA;
#1 = APPLICATION_PROTOCOL_DEFINITION('international standard',
  'automotive_design',2000,#2);
#2 = APPLICATION_CONTEXT(
  'core data for automotive mechanical design processes');
#3 = SHAPE_DEFINITION_REPRESENTATION(#4,#10);
#4 = PRODUCT_DEFINITION_SHAPE('','',#5);
#5 = PRODUCT_DEFINITION('design','',#6,#9);
#6 = PRODUCT_DEFINITION_FORMATION('','',#7);
#7 = PRODUCT('Open CASCADE STEP translator 7.9 40',
  'Open CASCADE STEP translator 7.9 40','',(#8));
#8 = PRODUCT_CONTEXT('',#2,'mechanical');
#9 = PRODUCT_DEFINITION_CONTEXT('part definition',#2,'design');
#10 = MANIFOLD_SURFACE_SHAPE_REPRESENTATION('',(#11,#15),#121);
#11 = AXIS2_PLACEMENT_3D('',#12,#13,#14);
#12 = CARTESIAN_POINT('',(0.,0.,0.));
#13 = DIRECTION('',(0.,0.,1.));
#14 = DIRECTION('',(1.,0.,-0.));
#15 = SHELL_BASED_SURFACE_MODEL('',(#16));
#16 = OPEN_SHELL('',(#17));
#17 = ADVANCED_FACE('',(#18),#40,.T.);
#18 = FACE_BOUND('',#19,.T.);
#19 = EDGE_LOOP('',(#20,#59,#75,#107));
#20 = ORIENTED_EDGE('',*,*,#21,.T.);
#21 = EDGE_CURVE('',#22,#24,#26,.T.);
#22 = VERTEX_POINT('',#23);
#23 = CARTESIAN_POINT('',(0.,3.149782798783,0.));
#24 = VERTEX_POINT('',#25);
#25 = CARTESIAN_POINT('',(1.5E+03,-7.004847136885,0.));
#26 = SURFACE_CURVE('',#27,(#39),.PCURVE_S1.);
#27 = B_SPLINE_CURVE_WITH_KNOTS('',1,(#28,#29,#30,#31,#32,#33,#34,#35,
    #36,#37,#38),.UNSPECIFIED.,.F.,.F.,(2,1,1,1,1,1,1,1,1,1,2),(0.,
    0.103009797963,0.223622607381,0.356950768171,0.494047902692,
    0.515335589697,0.618516509339,0.706980230998,0.872020944036,
    0.901221795851,1.),.UNSPECIFIED.);
#28 = CARTESIAN_POINT('',(0.,3.149782798783,0.));
#29 = CARTESIAN_POINT('',(154.97853201668,-5.477447946277,0.));
#30 = CARTESIAN_POINT('',(336.01646230117,10.518775308955,0.));
#31 = CARTESIAN_POINT('',(535.43665255753,-13.84648888623,0.));
#32 = CARTESIAN_POINT('',(740.678808071,9.646747145345,0.));
#33 = CARTESIAN_POINT('',(772.74953236965,9.013740213015,0.));
#34 = CARTESIAN_POINT('',(926.9620857795,-10.76948581673,0.));
#35 = CARTESIAN_POINT('',(1.060252365077E+03,-12.37748232425,0.));
#36 = CARTESIAN_POINT('',(1.308051670278E+03,8.635577774301,0.));
#37 = CARTESIAN_POINT('',(1.35136820307E+03,0.905973354755,0.));
#38 = CARTESIAN_POINT('',(1.5E+03,-7.004847136885,0.));
#39 = PCURVE('',#40,#45);
#40 = PLANE('',#41);
#41 = AXIS2_PLACEMENT_3D('',#42,#43,#44);
#42 = CARTESIAN_POINT('',(754.53800702667,75.,0.));
#43 = DIRECTION('',(0.,0.,1.));
#44 = DIRECTION('',(1.,0.,-0.));
#45 = DEFINITIONAL_REPRESENTATION('',(#46),#58);
#46 = B_SPLINE_CURVE_WITH_KNOTS('',1,(#47,#48,#49,#50,#51,#52,#53,#54,
    #55,#56,#57),.UNSPECIFIED.,.F.,.F.,(2,1,1,1,1,1,1,1,1,1,2),(0.,
    0.103009797963,0.223622607381,0.356950768171,0.494047902692,
    0.515335589697,0.618516509339,0.706980230998,0.872020944036,
    0.901221795851,1.),.UNSPECIFIED.);
#47 = CARTESIAN_POINT('',(-754.5380070266,-71.85021720121));
#48 = CARTESIAN_POINT('',(-599.5594750099,-80.47744794627));
#49 = CARTESIAN_POINT('',(-418.5215447255,-64.48122469104));
#50 = CARTESIAN_POINT('',(-219.1013544691,-88.84648888623));
#51 = CARTESIAN_POINT('',(-13.85919895566,-65.35325285465));
#52 = CARTESIAN_POINT('',(18.21152534298,-65.98625978698));
#53 = CARTESIAN_POINT('',(172.42407875283,-85.76948581673));
#54 = CARTESIAN_POINT('',(305.71435804996,-87.37748232425));
#55 = CARTESIAN_POINT('',(553.5136632509,-66.36442222569));
#56 = CARTESIAN_POINT('',(596.83019604376,-74.09402664524));
#57 = CARTESIAN_POINT('',(745.46199297332,-82.00484713688));
#58 = ( GEOMETRIC_REPRESENTATION_CONTEXT(2) 
PARAMETRIC_REPRESENTATION_CONTEXT() REPRESENTATION_CONTEXT('2D SPACE',''
  ) );
#59 = ORIENTED_EDGE('',*,*,#60,.T.);
#60 = EDGE_CURVE('',#24,#61,#63,.T.);
#61 = VERTEX_POINT('',#62);
#62 = CARTESIAN_POINT('',(1.5E+03,157.00484713688,0.));
#63 = SURFACE_CURVE('',#64,(#68),.PCURVE_S1.);
#64 = LINE('',#65,#66);
#65 = CARTESIAN_POINT('',(1.5E+03,-7.004847136885,0.));
#66 = VECTOR('',#67,1.);
#67 = DIRECTION('',(0.,1.,0.));
#68 = PCURVE('',#40,#69);
#69 = DEFINITIONAL_REPRESENTATION('',(#70),#74);
#70 = LINE('',#71,#72);
#71 = CARTESIAN_POINT('',(745.46199297332,-82.00484713688));
#72 = VECTOR('',#73,1.);
#73 = DIRECTION('',(0.,1.));
#74 = ( GEOMETRIC_REPRESENTATION_CONTEXT(2) 
PARAMETRIC_REPRESENTATION_CONTEXT() REPRESENTATION_CONTEXT('2D SPACE',''
  ) );
#75 = ORIENTED_EDGE('',*,*,#76,.T.);
#76 = EDGE_CURVE('',#61,#77,#79,.T.);
#77 = VERTEX_POINT('',#78);
#78 = CARTESIAN_POINT('',(0.,146.85021720121,0.));
#79 = SURFACE_CURVE('',#80,(#92),.PCURVE_S1.);
#80 = B_SPLINE_CURVE_WITH_KNOTS('',1,(#81,#82,#83,#84,#85,#86,#87,#88,
    #89,#90,#91),.UNSPECIFIED.,.F.,.F.,(2,1,1,1,1,1,1,1,1,1,2),(0.,
    9.877820414898E-02,0.127979055964,0.293019769002,0.381483490661,
    0.484664410303,0.505952097308,0.643049231829,0.776377392619,
    0.896990202037,1.),.UNSPECIFIED.);
#81 = CARTESIAN_POINT('',(1.5E+03,157.00484713688,0.));
#82 = CARTESIAN_POINT('',(1.35136820307E+03,149.09402664524,0.));
#83 = CARTESIAN_POINT('',(1.308051670278E+03,141.36442222569,0.));
#84 = CARTESIAN_POINT('',(1.060252365077E+03,162.37748232425,0.));
#85 = CARTESIAN_POINT('',(926.9620857795,160.76948581673,0.));
#86 = CARTESIAN_POINT('',(772.74953236965,140.98625978698,0.));
#87 = CARTESIAN_POINT('',(740.678808071,140.35325285465,0.));
#88 = CARTESIAN_POINT('',(535.43665255753,163.84648888623,0.));
#89 = CARTESIAN_POINT('',(336.01646230117,139.48122469104,0.));
#90 = CARTESIAN_POINT('',(154.97853201668,155.47744794627,0.));
#91 = CARTESIAN_POINT('',(0.,146.85021720121,0.));
#92 = PCURVE('',#40,#93);
#93 = DEFINITIONAL_REPRESENTATION('',(#94),#106);
#94 = B_SPLINE_CURVE_WITH_KNOTS('',1,(#95,#96,#97,#98,#99,#100,#101,#102
    ,#103,#104,#105),.UNSPECIFIED.,.F.,.F.,(2,1,1,1,1,1,1,1,1,1,2),(0.,
    9.877820414898E-02,0.127979055964,0.293019769002,0.381483490661,
    0.484664410303,0.505952097308,0.643049231829,0.776377392619,
    0.896990202037,1.),.UNSPECIFIED.);
#95 = CARTESIAN_POINT('',(745.46199297332,82.004847136885));
#96 = CARTESIAN_POINT('',(596.83019604376,74.094026645245));
#97 = CARTESIAN_POINT('',(553.5136632509,66.364422225699));
#98 = CARTESIAN_POINT('',(305.71435804996,87.377482324258));
#99 = CARTESIAN_POINT('',(172.42407875283,85.769485816731));
#100 = CARTESIAN_POINT('',(18.21152534298,65.986259786985));
#101 = CARTESIAN_POINT('',(-13.85919895566,65.353252854655));
#102 = CARTESIAN_POINT('',(-219.1013544691,88.846488886231));
#103 = CARTESIAN_POINT('',(-418.5215447255,64.481224691045));
#104 = CARTESIAN_POINT('',(-599.5594750099,80.477447946277));
#105 = CARTESIAN_POINT('',(-754.5380070266,71.850217201217));
#106 = ( GEOMETRIC_REPRESENTATION_CONTEXT(2) 
PARAMETRIC_REPRESENTATION_CONTEXT() REPRESENTATION_CONTEXT('2D SPACE',''
  ) );
#107 = ORIENTED_EDGE('',*,*,#108,.T.);
#108 = EDGE_CURVE('',#77,#22,#109,.T.);
#109 = SURFACE_CURVE('',#110,(#114),.PCURVE_S1.);
#110 = LINE('',#111,#112);
#111 = CARTESIAN_POINT('',(0.,146.85021720121,0.));
#112 = VECTOR('',#113,1.);
#113 = DIRECTION('',(0.,-1.,0.));
#114 = PCURVE('',#40,#115);
#115 = DEFINITIONAL_REPRESENTATION('',(#116),#120);
#116 = LINE('',#117,#118);
#117 = CARTESIAN_POINT('',(-754.5380070266,71.850217201217));
#118 = VECTOR('',#119,1.);
#119 = DIRECTION('',(0.,-1.));
#120 = ( GEOMETRIC_REPRESENTATION_CONTEXT(2) 
PARAMETRIC_REPRESENTATION_CONTEXT() REPRESENTATION_CONTEXT('2D SPACE',''
  ) );
#121 = ( GEOMETRIC_REPRESENTATION_CONTEXT(3) 
GLOBAL_UNCERTAINTY_ASSIGNED_CONTEXT((#125)) GLOBAL_UNIT_ASSIGNED_CONTEXT
((#122,#123,#124)) REPRESENTATION_CONTEXT('Context #1',
  '3D Context with UNIT and UNCERTAINTY') );
#122 = ( LENGTH_UNIT() NAMED_UNIT(*) SI_UNIT(.MILLI.,.METRE.) );
#123 = ( NAMED_UNIT(*) PLANE_ANGLE_UNIT() SI_UNIT($,.RADIAN.) );
#124 = ( NAMED_UNIT(*) SI_UNIT($,.STERADIAN.) SOLID_ANGLE_UNIT() );
#125 = UNCERTAINTY_MEASURE_WITH_UNIT(LENGTH_MEASURE(1.E-07),#122,
  'distance_accuracy_value','confusion accuracy');
#126 = PRODUCT_RELATED_PRODUCT_CATEGORY('part',$,(#7));
ENDSEC;
END-ISO-10303-21;
