ISO-10303-21;
HEADER;
FILE_DESCRIPTION(('Open CASCADE Model'),'2;1');
FILE_NAME('Open CASCADE Shape Model','2026-06-02T12:09:04',('Author'),(
    'Open CASCADE'),'Open CASCADE STEP processor 7.9','Open CASCADE 7.9'
  ,'Unknown');
FILE_SCHEMA(('AUTOMOTIVE_DESIGN { 1 0 10303 214 1 1 1 1 }'));
ENDSEC;
DATA;
#1 = APPLICATION_PROTOCOL_DEFINITION('international standard',
  'automotive_design',2000,#2);
#2 = APPLICATION_CONTEXT(
  'core data for automotive mechanical design processes');
#3 = SHAPE_DEFINITION_REPRESENTATION(#4,#10);
#4 = PRODUCT_DEFINITION_SHAPE('','',#5);
#5 = PRODUCT_DEFINITION('design','',#6,#9);
#6 = PRODUCT_DEFINITION_FORMATION('','',#7);
#7 = PRODUCT('Open CASCADE STEP translator 7.9 6',
  'Open CASCADE STEP translator 7.9 6','',(#8));
#8 = PRODUCT_CONTEXT('',#2,'mechanical');
#9 = PRODUCT_DEFINITION_CONTEXT('part definition',#2,'design');
#10 = MANIFOLD_SURFACE_SHAPE_REPRESENTATION('',(#11,#15),#121);
#11 = AXIS2_PLACEMENT_3D('',#12,#13,#14);
#12 = CARTESIAN_POINT('',(0.,0.,0.));
#13 = DIRECTION('',(0.,0.,1.));
#14 = DIRECTION('',(1.,0.,-0.));
#15 = SHELL_BASED_SURFACE_MODEL('',(#16));
#16 = OPEN_SHELL('',(#17));
#17 = ADVANCED_FACE('',(#18),#40,.T.);
#18 = FACE_BOUND('',#19,.T.);
#19 = EDGE_LOOP('',(#20,#59,#75,#107));
#20 = ORIENTED_EDGE('',*,*,#21,.T.);
#21 = EDGE_CURVE('',#22,#24,#26,.T.);
#22 = VERTEX_POINT('',#23);
#23 = CARTESIAN_POINT('',(0.,-10.69842852277,0.));
#24 = VERTEX_POINT('',#25);
#25 = CARTESIAN_POINT('',(1.5E+03,0.180275422664,0.));
#26 = SURFACE_CURVE('',#27,(#39),.PCURVE_S1.);
#27 = B_SPLINE_CURVE_WITH_KNOTS('',1,(#28,#29,#30,#31,#32,#33,#34,#35,
    #36,#37,#38),.UNSPECIFIED.,.F.,.F.,(2,1,1,1,1,1,1,1,1,1,2),(0.,
    0.108350951907,0.25814194099,0.324562713961,0.371300627386,
    0.652062300332,0.689084937094,0.733332233353,0.791373456182,
    0.929162027156,1.),.UNSPECIFIED.);
#28 = CARTESIAN_POINT('',(0.,-10.69842852277,0.));
#29 = CARTESIAN_POINT('',(163.00041758327,-7.755585895056,0.));
#30 = CARTESIAN_POINT('',(388.37585044743,-6.583888678528,0.));
#31 = CARTESIAN_POINT('',(487.9413149062,2.037208806747,0.));
#32 = CARTESIAN_POINT('',(558.0198143479,-3.819265221073,0.));
#33 = CARTESIAN_POINT('',(980.45737984401,-2.522939067382,0.));
#34 = CARTESIAN_POINT('',(1.03612743746E+03,-4.495398046645,0.));
#35 = CARTESIAN_POINT('',(1.100505742524E+03,12.466670365803,0.));
#36 = CARTESIAN_POINT('',(1.187268074315E+03,2.525777934882,0.));
#37 = CARTESIAN_POINT('',(1.394283331042E+03,13.751574784143,0.));
#38 = CARTESIAN_POINT('',(1.5E+03,0.180275422664,0.));
#39 = PCURVE('',#40,#45);
#40 = PLANE('',#41);
#41 = AXIS2_PLACEMENT_3D('',#42,#43,#44);
#42 = CARTESIAN_POINT('',(746.00718786345,75.,0.));
#43 = DIRECTION('',(0.,0.,1.));
#44 = DIRECTION('',(1.,0.,-0.));
#45 = DEFINITIONAL_REPRESENTATION('',(#46),#58);
#46 = B_SPLINE_CURVE_WITH_KNOTS('',1,(#47,#48,#49,#50,#51,#52,#53,#54,
    #55,#56,#57),.UNSPECIFIED.,.F.,.F.,(2,1,1,1,1,1,1,1,1,1,2),(0.,
    0.108350951907,0.25814194099,0.324562713961,0.371300627386,
    0.652062300332,0.689084937094,0.733332233353,0.791373456182,
    0.929162027156,1.),.UNSPECIFIED.);
#47 = CARTESIAN_POINT('',(-746.0071878634,-85.69842852277));
#48 = CARTESIAN_POINT('',(-583.0067702801,-82.75558589505));
#49 = CARTESIAN_POINT('',(-357.631337416,-81.58388867852));
#50 = CARTESIAN_POINT('',(-258.0658729572,-72.96279119325));
#51 = CARTESIAN_POINT('',(-187.9873735155,-78.81926522107));
#52 = CARTESIAN_POINT('',(234.45019198055,-77.52293906738));
#53 = CARTESIAN_POINT('',(290.12024959685,-79.49539804664));
#54 = CARTESIAN_POINT('',(354.49855466061,-62.53332963419));
#55 = CARTESIAN_POINT('',(441.26088645113,-72.47422206511));
#56 = CARTESIAN_POINT('',(648.2761431786,-61.24842521585));
#57 = CARTESIAN_POINT('',(753.99281213654,-74.81972457733));
#58 = ( GEOMETRIC_REPRESENTATION_CONTEXT(2) 
PARAMETRIC_REPRESENTATION_CONTEXT() REPRESENTATION_CONTEXT('2D SPACE',''
  ) );
#59 = ORIENTED_EDGE('',*,*,#60,.T.);
#60 = EDGE_CURVE('',#24,#61,#63,.T.);
#61 = VERTEX_POINT('',#62);
#62 = CARTESIAN_POINT('',(1.5E+03,149.81972457733,0.));
#63 = SURFACE_CURVE('',#64,(#68),.PCURVE_S1.);
#64 = LINE('',#65,#66);
#65 = CARTESIAN_POINT('',(1.5E+03,0.180275422664,0.));
#66 = VECTOR('',#67,1.);
#67 = DIRECTION('',(0.,1.,0.));
#68 = PCURVE('',#40,#69);
#69 = DEFINITIONAL_REPRESENTATION('',(#70),#74);
#70 = LINE('',#71,#72);
#71 = CARTESIAN_POINT('',(753.99281213654,-74.81972457733));
#72 = VECTOR('',#73,1.);
#73 = DIRECTION('',(0.,1.));
#74 = ( GEOMETRIC_REPRESENTATION_CONTEXT(2) 
PARAMETRIC_REPRESENTATION_CONTEXT() REPRESENTATION_CONTEXT('2D SPACE',''
  ) );
#75 = ORIENTED_EDGE('',*,*,#76,.T.);
#76 = EDGE_CURVE('',#61,#77,#79,.T.);
#77 = VERTEX_POINT('',#78);
#78 = CARTESIAN_POINT('',(0.,160.69842852277,0.));
#79 = SURFACE_CURVE('',#80,(#92),.PCURVE_S1.);
#80 = B_SPLINE_CURVE_WITH_KNOTS('',1,(#81,#82,#83,#84,#85,#86,#87,#88,
    #89,#90,#91),.UNSPECIFIED.,.F.,.F.,(2,1,1,1,1,1,1,1,1,1,2),(0.,
    7.083797284351E-02,0.208626543818,0.266667766647,0.310915062906,
    0.347937699668,0.628699372614,0.675437286039,0.74185805901,
    0.891649048093,1.),.UNSPECIFIED.);
#81 = CARTESIAN_POINT('',(1.5E+03,149.81972457733,0.));
#82 = CARTESIAN_POINT('',(1.394283331042E+03,136.24842521585,0.));
#83 = CARTESIAN_POINT('',(1.187268074315E+03,147.47422206511,0.));
#84 = CARTESIAN_POINT('',(1.100505742524E+03,137.53332963419,0.));
#85 = CARTESIAN_POINT('',(1.03612743746E+03,154.49539804664,0.));
#86 = CARTESIAN_POINT('',(980.45737984401,152.52293906738,0.));
#87 = CARTESIAN_POINT('',(558.0198143479,153.81926522107,0.));
#88 = CARTESIAN_POINT('',(487.9413149062,147.96279119325,0.));
#89 = CARTESIAN_POINT('',(388.37585044743,156.58388867852,0.));
#90 = CARTESIAN_POINT('',(163.00041758327,157.75558589505,0.));
#91 = CARTESIAN_POINT('',(0.,160.69842852277,0.));
#92 = PCURVE('',#40,#93);
#93 = DEFINITIONAL_REPRESENTATION('',(#94),#106);
#94 = B_SPLINE_CURVE_WITH_KNOTS('',1,(#95,#96,#97,#98,#99,#100,#101,#102
    ,#103,#104,#105),.UNSPECIFIED.,.F.,.F.,(2,1,1,1,1,1,1,1,1,1,2),(0.,
    7.083797284351E-02,0.208626543818,0.266667766647,0.310915062906,
    0.347937699668,0.628699372614,0.675437286039,0.74185805901,
    0.891649048093,1.),.UNSPECIFIED.);
#95 = CARTESIAN_POINT('',(753.99281213654,74.819724577336));
#96 = CARTESIAN_POINT('',(648.2761431786,61.248425215857));
#97 = CARTESIAN_POINT('',(441.26088645113,72.474222065118));
#98 = CARTESIAN_POINT('',(354.49855466061,62.533329634197));
#99 = CARTESIAN_POINT('',(290.12024959685,79.495398046645));
#100 = CARTESIAN_POINT('',(234.45019198055,77.522939067382));
#101 = CARTESIAN_POINT('',(-187.9873735155,78.819265221073));
#102 = CARTESIAN_POINT('',(-258.0658729572,72.962791193253));
#103 = CARTESIAN_POINT('',(-357.631337416,81.583888678528));
#104 = CARTESIAN_POINT('',(-583.0067702801,82.755585895056));
#105 = CARTESIAN_POINT('',(-746.0071878634,85.698428522771));
#106 = ( GEOMETRIC_REPRESENTATION_CONTEXT(2) 
PARAMETRIC_REPRESENTATION_CONTEXT() REPRESENTATION_CONTEXT('2D SPACE',''
  ) );
#107 = ORIENTED_EDGE('',*,*,#108,.T.);
#108 = EDGE_CURVE('',#77,#22,#109,.T.);
#109 = SURFACE_CURVE('',#110,(#114),.PCURVE_S1.);
#110 = LINE('',#111,#112);
#111 = CARTESIAN_POINT('',(0.,160.69842852277,0.));
#112 = VECTOR('',#113,1.);
#113 = DIRECTION('',(0.,-1.,0.));
#114 = PCURVE('',#40,#115);
#115 = DEFINITIONAL_REPRESENTATION('',(#116),#120);
#116 = LINE('',#117,#118);
#117 = CARTESIAN_POINT('',(-746.0071878634,85.698428522771));
#118 = VECTOR('',#119,1.);
#119 = DIRECTION('',(0.,-1.));
#120 = ( GEOMETRIC_REPRESENTATION_CONTEXT(2) 
PARAMETRIC_REPRESENTATION_CONTEXT() REPRESENTATION_CONTEXT('2D SPACE',''
  ) );
#121 = ( GEOMETRIC_REPRESENTATION_CONTEXT(3) 
GLOBAL_UNCERTAINTY_ASSIGNED_CONTEXT((#125)) GLOBAL_UNIT_ASSIGNED_CONTEXT
((#122,#123,#124)) REPRESENTATION_CONTEXT('Context #1',
  '3D Context with UNIT and UNCERTAINTY') );
#122 = ( LENGTH_UNIT() NAMED_UNIT(*) SI_UNIT(.MILLI.,.METRE.) );
#123 = ( NAMED_UNIT(*) PLANE_ANGLE_UNIT() SI_UNIT($,.RADIAN.) );
#124 = ( NAMED_UNIT(*) SI_UNIT($,.STERADIAN.) SOLID_ANGLE_UNIT() );
#125 = UNCERTAINTY_MEASURE_WITH_UNIT(LENGTH_MEASURE(1.E-07),#122,
  'distance_accuracy_value','confusion accuracy');
#126 = PRODUCT_RELATED_PRODUCT_CATEGORY('part',$,(#7));
ENDSEC;
END-ISO-10303-21;
