ISO-10303-21;
HEADER;
FILE_DESCRIPTION(('Open CASCADE Model'),'2;1');
FILE_NAME('Open CASCADE Shape Model','2026-06-02T12:09:04',('Author'),(
    'Open CASCADE'),'Open CASCADE STEP processor 7.9','Open CASCADE 7.9'
  ,'Unknown');
FILE_SCHEMA(('AUTOMOTIVE_DESIGN { 1 0 10303 214 1 1 1 1 }'));
ENDSEC;
DATA;
#1 = APPLICATION_PROTOCOL_DEFINITION('international standard',
  'automotive_design',2000,#2);
#2 = APPLICATION_CONTEXT(
  'core data for automotive mechanical design processes');
#3 = SHAPE_DEFINITION_REPRESENTATION(#4,#10);
#4 = PRODUCT_DEFINITION_SHAPE('','',#5);
#5 = PRODUCT_DEFINITION('design','',#6,#9);
#6 = PRODUCT_DEFINITION_FORMATION('','',#7);
#7 = PRODUCT('Open CASCADE STEP translator 7.9 10',
  'Open CASCADE STEP translator 7.9 10','',(#8));
#8 = PRODUCT_CONTEXT('',#2,'mechanical');
#9 = PRODUCT_DEFINITION_CONTEXT('part definition',#2,'design');
#10 = MANIFOLD_SURFACE_SHAPE_REPRESENTATION('',(#11,#15),#121);
#11 = AXIS2_PLACEMENT_3D('',#12,#13,#14);
#12 = CARTESIAN_POINT('',(0.,0.,0.));
#13 = DIRECTION('',(0.,0.,1.));
#14 = DIRECTION('',(1.,0.,-0.));
#15 = SHELL_BASED_SURFACE_MODEL('',(#16));
#16 = OPEN_SHELL('',(#17));
#17 = ADVANCED_FACE('',(#18),#40,.T.);
#18 = FACE_BOUND('',#19,.T.);
#19 = EDGE_LOOP('',(#20,#59,#75,#107));
#20 = ORIENTED_EDGE('',*,*,#21,.T.);
#21 = EDGE_CURVE('',#22,#24,#26,.T.);
#22 = VERTEX_POINT('',#23);
#23 = CARTESIAN_POINT('',(0.,-14.15479278182,0.));
#24 = VERTEX_POINT('',#25);
#25 = CARTESIAN_POINT('',(1.5E+03,-2.433498276627,0.));
#26 = SURFACE_CURVE('',#27,(#39),.PCURVE_S1.);
#27 = B_SPLINE_CURVE_WITH_KNOTS('',1,(#28,#29,#30,#31,#32,#33,#34,#35,
    #36,#37,#38),.UNSPECIFIED.,.F.,.F.,(2,1,1,1,1,1,1,1,1,1,2),(0.,
    0.12737107908,0.162415997074,0.289952150825,0.368696480995,
    0.400494818908,0.449723843373,0.826222538884,0.887946259918,
    0.934493039766,1.),.UNSPECIFIED.);
#28 = CARTESIAN_POINT('',(0.,-14.15479278182,0.));
#29 = CARTESIAN_POINT('',(191.17286718392,-2.223558607027E-02,0.));
#30 = CARTESIAN_POINT('',(242.81789704418,10.683074923462,0.));
#31 = CARTESIAN_POINT('',(434.72126808995,14.581911368754,0.));
#32 = CARTESIAN_POINT('',(553.05530930449,8.110319100034,0.));
#33 = CARTESIAN_POINT('',(600.82198671103,11.045333466404,0.));
#34 = CARTESIAN_POINT('',(673.07984413504,-5.329760208386,0.));
#35 = CARTESIAN_POINT('',(1.239468109459E+03,11.345024861144,0.));
#36 = CARTESIAN_POINT('',(1.331643883941E+03,-0.189897948619,0.));
#37 = CARTESIAN_POINT('',(1.401469930767E+03,-5.827873069287,0.));
#38 = CARTESIAN_POINT('',(1.5E+03,-2.433498276627,0.));
#39 = PCURVE('',#40,#45);
#40 = PLANE('',#41);
#41 = AXIS2_PLACEMENT_3D('',#42,#43,#44);
#42 = CARTESIAN_POINT('',(744.38554792293,75.,0.));
#43 = DIRECTION('',(0.,0.,1.));
#44 = DIRECTION('',(1.,0.,-0.));
#45 = DEFINITIONAL_REPRESENTATION('',(#46),#58);
#46 = B_SPLINE_CURVE_WITH_KNOTS('',1,(#47,#48,#49,#50,#51,#52,#53,#54,
    #55,#56,#57),.UNSPECIFIED.,.F.,.F.,(2,1,1,1,1,1,1,1,1,1,2),(0.,
    0.12737107908,0.162415997074,0.289952150825,0.368696480995,
    0.400494818908,0.449723843373,0.826222538884,0.887946259918,
    0.934493039766,1.),.UNSPECIFIED.);
#47 = CARTESIAN_POINT('',(-744.3855479229,-89.15479278182));
#48 = CARTESIAN_POINT('',(-553.212680739,-75.02223558607));
#49 = CARTESIAN_POINT('',(-501.5676508787,-64.31692507653));
#50 = CARTESIAN_POINT('',(-309.6642798329,-60.41808863124));
#51 = CARTESIAN_POINT('',(-191.3302386184,-66.88968089996));
#52 = CARTESIAN_POINT('',(-143.5635612118,-63.95466653359));
#53 = CARTESIAN_POINT('',(-71.30570378788,-80.32976020838));
#54 = CARTESIAN_POINT('',(495.08256153558,-63.65497513885));
#55 = CARTESIAN_POINT('',(587.2583360177,-75.18989794861));
#56 = CARTESIAN_POINT('',(657.0843828436,-80.82787306928));
#57 = CARTESIAN_POINT('',(755.61445207707,-77.43349827662));
#58 = ( GEOMETRIC_REPRESENTATION_CONTEXT(2) 
PARAMETRIC_REPRESENTATION_CONTEXT() REPRESENTATION_CONTEXT('2D SPACE',''
  ) );
#59 = ORIENTED_EDGE('',*,*,#60,.T.);
#60 = EDGE_CURVE('',#24,#61,#63,.T.);
#61 = VERTEX_POINT('',#62);
#62 = CARTESIAN_POINT('',(1.5E+03,152.43349827662,0.));
#63 = SURFACE_CURVE('',#64,(#68),.PCURVE_S1.);
#64 = LINE('',#65,#66);
#65 = CARTESIAN_POINT('',(1.5E+03,-2.433498276627,0.));
#66 = VECTOR('',#67,1.);
#67 = DIRECTION('',(0.,1.,0.));
#68 = PCURVE('',#40,#69);
#69 = DEFINITIONAL_REPRESENTATION('',(#70),#74);
#70 = LINE('',#71,#72);
#71 = CARTESIAN_POINT('',(755.61445207707,-77.43349827662));
#72 = VECTOR('',#73,1.);
#73 = DIRECTION('',(0.,1.));
#74 = ( GEOMETRIC_REPRESENTATION_CONTEXT(2) 
PARAMETRIC_REPRESENTATION_CONTEXT() REPRESENTATION_CONTEXT('2D SPACE',''
  ) );
#75 = ORIENTED_EDGE('',*,*,#76,.T.);
#76 = EDGE_CURVE('',#61,#77,#79,.T.);
#77 = VERTEX_POINT('',#78);
#78 = CARTESIAN_POINT('',(0.,164.15479278182,0.));
#79 = SURFACE_CURVE('',#80,(#92),.PCURVE_S1.);
#80 = B_SPLINE_CURVE_WITH_KNOTS('',1,(#81,#82,#83,#84,#85,#86,#87,#88,
    #89,#90,#91),.UNSPECIFIED.,.F.,.F.,(2,1,1,1,1,1,1,1,1,1,2),(0.,
    6.550696023368E-02,0.112053740082,0.173777461116,0.550276156627,
    0.599505181092,0.631303519005,0.710047849175,0.837584002926,
    0.87262892092,1.),.UNSPECIFIED.);
#81 = CARTESIAN_POINT('',(1.5E+03,152.43349827662,0.));
#82 = CARTESIAN_POINT('',(1.401469930767E+03,155.82787306928,0.));
#83 = CARTESIAN_POINT('',(1.331643883941E+03,150.18989794861,0.));
#84 = CARTESIAN_POINT('',(1.239468109459E+03,138.65497513885,0.));
#85 = CARTESIAN_POINT('',(673.07984413504,155.32976020838,0.));
#86 = CARTESIAN_POINT('',(600.82198671103,138.95466653359,0.));
#87 = CARTESIAN_POINT('',(553.05530930449,141.88968089996,0.));
#88 = CARTESIAN_POINT('',(434.72126808995,135.41808863124,0.));
#89 = CARTESIAN_POINT('',(242.81789704418,139.31692507653,0.));
#90 = CARTESIAN_POINT('',(191.17286718392,150.02223558607,0.));
#91 = CARTESIAN_POINT('',(0.,164.15479278182,0.));
#92 = PCURVE('',#40,#93);
#93 = DEFINITIONAL_REPRESENTATION('',(#94),#106);
#94 = B_SPLINE_CURVE_WITH_KNOTS('',1,(#95,#96,#97,#98,#99,#100,#101,#102
    ,#103,#104,#105),.UNSPECIFIED.,.F.,.F.,(2,1,1,1,1,1,1,1,1,1,2),(0.,
    6.550696023368E-02,0.112053740082,0.173777461116,0.550276156627,
    0.599505181092,0.631303519005,0.710047849175,0.837584002926,
    0.87262892092,1.),.UNSPECIFIED.);
#95 = CARTESIAN_POINT('',(755.61445207707,77.433498276627));
#96 = CARTESIAN_POINT('',(657.0843828436,80.827873069287));
#97 = CARTESIAN_POINT('',(587.2583360177,75.189897948619));
#98 = CARTESIAN_POINT('',(495.08256153558,63.654975138856));
#99 = CARTESIAN_POINT('',(-71.30570378788,80.329760208386));
#100 = CARTESIAN_POINT('',(-143.5635612118,63.954666533596));
#101 = CARTESIAN_POINT('',(-191.3302386184,66.889680899966));
#102 = CARTESIAN_POINT('',(-309.6642798329,60.418088631246));
#103 = CARTESIAN_POINT('',(-501.5676508787,64.316925076538));
#104 = CARTESIAN_POINT('',(-553.212680739,75.02223558607));
#105 = CARTESIAN_POINT('',(-744.3855479229,89.154792781829));
#106 = ( GEOMETRIC_REPRESENTATION_CONTEXT(2) 
PARAMETRIC_REPRESENTATION_CONTEXT() REPRESENTATION_CONTEXT('2D SPACE',''
  ) );
#107 = ORIENTED_EDGE('',*,*,#108,.T.);
#108 = EDGE_CURVE('',#77,#22,#109,.T.);
#109 = SURFACE_CURVE('',#110,(#114),.PCURVE_S1.);
#110 = LINE('',#111,#112);
#111 = CARTESIAN_POINT('',(0.,164.15479278182,0.));
#112 = VECTOR('',#113,1.);
#113 = DIRECTION('',(0.,-1.,0.));
#114 = PCURVE('',#40,#115);
#115 = DEFINITIONAL_REPRESENTATION('',(#116),#120);
#116 = LINE('',#117,#118);
#117 = CARTESIAN_POINT('',(-744.3855479229,89.154792781829));
#118 = VECTOR('',#119,1.);
#119 = DIRECTION('',(0.,-1.));
#120 = ( GEOMETRIC_REPRESENTATION_CONTEXT(2) 
PARAMETRIC_REPRESENTATION_CONTEXT() REPRESENTATION_CONTEXT('2D SPACE',''
  ) );
#121 = ( GEOMETRIC_REPRESENTATION_CONTEXT(3) 
GLOBAL_UNCERTAINTY_ASSIGNED_CONTEXT((#125)) GLOBAL_UNIT_ASSIGNED_CONTEXT
((#122,#123,#124)) REPRESENTATION_CONTEXT('Context #1',
  '3D Context with UNIT and UNCERTAINTY') );
#122 = ( LENGTH_UNIT() NAMED_UNIT(*) SI_UNIT(.MILLI.,.METRE.) );
#123 = ( NAMED_UNIT(*) PLANE_ANGLE_UNIT() SI_UNIT($,.RADIAN.) );
#124 = ( NAMED_UNIT(*) SI_UNIT($,.STERADIAN.) SOLID_ANGLE_UNIT() );
#125 = UNCERTAINTY_MEASURE_WITH_UNIT(LENGTH_MEASURE(1.E-07),#122,
  'distance_accuracy_value','confusion accuracy');
#126 = PRODUCT_RELATED_PRODUCT_CATEGORY('part',$,(#7));
ENDSEC;
END-ISO-10303-21;
