ISO-10303-21;
HEADER;
FILE_DESCRIPTION(('Open CASCADE Model'),'2;1');
FILE_NAME('Open CASCADE Shape Model','2026-06-02T12:09:04',('Author'),(
    'Open CASCADE'),'Open CASCADE STEP processor 7.9','Open CASCADE 7.9'
  ,'Unknown');
FILE_SCHEMA(('AUTOMOTIVE_DESIGN { 1 0 10303 214 1 1 1 1 }'));
ENDSEC;
DATA;
#1 = APPLICATION_PROTOCOL_DEFINITION('international standard',
  'automotive_design',2000,#2);
#2 = APPLICATION_CONTEXT(
  'core data for automotive mechanical design processes');
#3 = SHAPE_DEFINITION_REPRESENTATION(#4,#10);
#4 = PRODUCT_DEFINITION_SHAPE('','',#5);
#5 = PRODUCT_DEFINITION('design','',#6,#9);
#6 = PRODUCT_DEFINITION_FORMATION('','',#7);
#7 = PRODUCT('Open CASCADE STEP translator 7.9 99',
  'Open CASCADE STEP translator 7.9 99','',(#8));
#8 = PRODUCT_CONTEXT('',#2,'mechanical');
#9 = PRODUCT_DEFINITION_CONTEXT('part definition',#2,'design');
#10 = MANIFOLD_SURFACE_SHAPE_REPRESENTATION('',(#11,#15),#121);
#11 = AXIS2_PLACEMENT_3D('',#12,#13,#14);
#12 = CARTESIAN_POINT('',(0.,0.,0.));
#13 = DIRECTION('',(0.,0.,1.));
#14 = DIRECTION('',(1.,0.,-0.));
#15 = SHELL_BASED_SURFACE_MODEL('',(#16));
#16 = OPEN_SHELL('',(#17));
#17 = ADVANCED_FACE('',(#18),#40,.T.);
#18 = FACE_BOUND('',#19,.T.);
#19 = EDGE_LOOP('',(#20,#59,#75,#107));
#20 = ORIENTED_EDGE('',*,*,#21,.T.);
#21 = EDGE_CURVE('',#22,#24,#26,.T.);
#22 = VERTEX_POINT('',#23);
#23 = CARTESIAN_POINT('',(0.,11.07744559871,0.));
#24 = VERTEX_POINT('',#25);
#25 = CARTESIAN_POINT('',(1.5E+03,-0.997494294951,0.));
#26 = SURFACE_CURVE('',#27,(#39),.PCURVE_S1.);
#27 = B_SPLINE_CURVE_WITH_KNOTS('',1,(#28,#29,#30,#31,#32,#33,#34,#35,
    #36,#37,#38),.UNSPECIFIED.,.F.,.F.,(2,1,1,1,1,1,1,1,1,1,2),(0.,
    0.115569995695,0.1612650151,0.358527907781,0.52868069616,
    0.567616861765,0.600356685551,0.72454171825,0.747845861731,
    0.796324583347,1.),.UNSPECIFIED.);
#28 = CARTESIAN_POINT('',(0.,11.07744559871,0.));
#29 = CARTESIAN_POINT('',(172.67889348425,-9.208326730621,0.));
#30 = CARTESIAN_POINT('',(241.31295990961,-13.10721864392,0.));
#31 = CARTESIAN_POINT('',(537.91459160591,-3.195963012238,0.));
#32 = CARTESIAN_POINT('',(793.87771068164,-6.310775760685,0.));
#33 = CARTESIAN_POINT('',(852.45416285634,-6.407598297223,0.));
#34 = CARTESIAN_POINT('',(900.99123856069,-14.78423871811,0.));
#35 = CARTESIAN_POINT('',(1.086793837715E+03,4.753852133951,0.));
#36 = CARTESIAN_POINT('',(1.121440947829E+03,10.114303462719,0.));
#37 = CARTESIAN_POINT('',(1.193585948303E+03,-0.57501704743,0.));
#38 = CARTESIAN_POINT('',(1.5E+03,-0.997494294951,0.));
#39 = PCURVE('',#40,#45);
#40 = PLANE('',#41);
#41 = AXIS2_PLACEMENT_3D('',#42,#43,#44);
#42 = CARTESIAN_POINT('',(755.44573951373,75.,0.));
#43 = DIRECTION('',(0.,0.,1.));
#44 = DIRECTION('',(1.,0.,-0.));
#45 = DEFINITIONAL_REPRESENTATION('',(#46),#58);
#46 = B_SPLINE_CURVE_WITH_KNOTS('',1,(#47,#48,#49,#50,#51,#52,#53,#54,
    #55,#56,#57),.UNSPECIFIED.,.F.,.F.,(2,1,1,1,1,1,1,1,1,1,2),(0.,
    0.115569995695,0.1612650151,0.358527907781,0.52868069616,
    0.567616861765,0.600356685551,0.72454171825,0.747845861731,
    0.796324583347,1.),.UNSPECIFIED.);
#47 = CARTESIAN_POINT('',(-755.4457395137,-63.92255440129));
#48 = CARTESIAN_POINT('',(-582.7668460294,-84.20832673062));
#49 = CARTESIAN_POINT('',(-514.1327796041,-88.10721864392));
#50 = CARTESIAN_POINT('',(-217.5311479078,-78.19596301223));
#51 = CARTESIAN_POINT('',(38.43197116791,-81.31077576068));
#52 = CARTESIAN_POINT('',(97.008423342606,-81.40759829722));
#53 = CARTESIAN_POINT('',(145.54549904696,-89.78423871811));
#54 = CARTESIAN_POINT('',(331.34809820102,-70.24614786604));
#55 = CARTESIAN_POINT('',(365.99520831554,-64.88569653728));
#56 = CARTESIAN_POINT('',(438.14020878908,-75.57501704743));
#57 = CARTESIAN_POINT('',(744.55426048626,-75.99749429495));
#58 = ( GEOMETRIC_REPRESENTATION_CONTEXT(2) 
PARAMETRIC_REPRESENTATION_CONTEXT() REPRESENTATION_CONTEXT('2D SPACE',''
  ) );
#59 = ORIENTED_EDGE('',*,*,#60,.T.);
#60 = EDGE_CURVE('',#24,#61,#63,.T.);
#61 = VERTEX_POINT('',#62);
#62 = CARTESIAN_POINT('',(1.5E+03,150.99749429495,0.));
#63 = SURFACE_CURVE('',#64,(#68),.PCURVE_S1.);
#64 = LINE('',#65,#66);
#65 = CARTESIAN_POINT('',(1.5E+03,-0.997494294951,0.));
#66 = VECTOR('',#67,1.);
#67 = DIRECTION('',(0.,1.,0.));
#68 = PCURVE('',#40,#69);
#69 = DEFINITIONAL_REPRESENTATION('',(#70),#74);
#70 = LINE('',#71,#72);
#71 = CARTESIAN_POINT('',(744.55426048626,-75.99749429495));
#72 = VECTOR('',#73,1.);
#73 = DIRECTION('',(0.,1.));
#74 = ( GEOMETRIC_REPRESENTATION_CONTEXT(2) 
PARAMETRIC_REPRESENTATION_CONTEXT() REPRESENTATION_CONTEXT('2D SPACE',''
  ) );
#75 = ORIENTED_EDGE('',*,*,#76,.T.);
#76 = EDGE_CURVE('',#61,#77,#79,.T.);
#77 = VERTEX_POINT('',#78);
#78 = CARTESIAN_POINT('',(0.,138.92255440129,0.));
#79 = SURFACE_CURVE('',#80,(#92),.PCURVE_S1.);
#80 = B_SPLINE_CURVE_WITH_KNOTS('',1,(#81,#82,#83,#84,#85,#86,#87,#88,
    #89,#90,#91),.UNSPECIFIED.,.F.,.F.,(2,1,1,1,1,1,1,1,1,1,2),(0.,
    0.203675416653,0.252154138269,0.27545828175,0.399643314449,
    0.432383138235,0.47131930384,0.641472092219,0.8387349849,
    0.884430004305,1.),.UNSPECIFIED.);
#81 = CARTESIAN_POINT('',(1.5E+03,150.99749429495,0.));
#82 = CARTESIAN_POINT('',(1.193585948303E+03,150.57501704743,0.));
#83 = CARTESIAN_POINT('',(1.121440947829E+03,139.88569653728,0.));
#84 = CARTESIAN_POINT('',(1.086793837715E+03,145.24614786604,0.));
#85 = CARTESIAN_POINT('',(900.99123856069,164.78423871811,0.));
#86 = CARTESIAN_POINT('',(852.45416285634,156.40759829722,0.));
#87 = CARTESIAN_POINT('',(793.87771068164,156.31077576068,0.));
#88 = CARTESIAN_POINT('',(537.91459160591,153.19596301223,0.));
#89 = CARTESIAN_POINT('',(241.31295990961,163.10721864392,0.));
#90 = CARTESIAN_POINT('',(172.67889348425,159.20832673062,0.));
#91 = CARTESIAN_POINT('',(0.,138.92255440129,0.));
#92 = PCURVE('',#40,#93);
#93 = DEFINITIONAL_REPRESENTATION('',(#94),#106);
#94 = B_SPLINE_CURVE_WITH_KNOTS('',1,(#95,#96,#97,#98,#99,#100,#101,#102
    ,#103,#104,#105),.UNSPECIFIED.,.F.,.F.,(2,1,1,1,1,1,1,1,1,1,2),(0.,
    0.203675416653,0.252154138269,0.27545828175,0.399643314449,
    0.432383138235,0.47131930384,0.641472092219,0.8387349849,
    0.884430004305,1.),.UNSPECIFIED.);
#95 = CARTESIAN_POINT('',(744.55426048626,75.997494294951));
#96 = CARTESIAN_POINT('',(438.14020878908,75.57501704743));
#97 = CARTESIAN_POINT('',(365.99520831554,64.885696537281));
#98 = CARTESIAN_POINT('',(331.34809820102,70.246147866049));
#99 = CARTESIAN_POINT('',(145.54549904696,89.784238718113));
#100 = CARTESIAN_POINT('',(97.008423342606,81.407598297223));
#101 = CARTESIAN_POINT('',(38.43197116791,81.310775760685));
#102 = CARTESIAN_POINT('',(-217.5311479078,78.195963012238));
#103 = CARTESIAN_POINT('',(-514.1327796041,88.107218643929));
#104 = CARTESIAN_POINT('',(-582.7668460294,84.208326730621));
#105 = CARTESIAN_POINT('',(-755.4457395137,63.92255440129));
#106 = ( GEOMETRIC_REPRESENTATION_CONTEXT(2) 
PARAMETRIC_REPRESENTATION_CONTEXT() REPRESENTATION_CONTEXT('2D SPACE',''
  ) );
#107 = ORIENTED_EDGE('',*,*,#108,.T.);
#108 = EDGE_CURVE('',#77,#22,#109,.T.);
#109 = SURFACE_CURVE('',#110,(#114),.PCURVE_S1.);
#110 = LINE('',#111,#112);
#111 = CARTESIAN_POINT('',(0.,138.92255440129,0.));
#112 = VECTOR('',#113,1.);
#113 = DIRECTION('',(0.,-1.,0.));
#114 = PCURVE('',#40,#115);
#115 = DEFINITIONAL_REPRESENTATION('',(#116),#120);
#116 = LINE('',#117,#118);
#117 = CARTESIAN_POINT('',(-755.4457395137,63.92255440129));
#118 = VECTOR('',#119,1.);
#119 = DIRECTION('',(0.,-1.));
#120 = ( GEOMETRIC_REPRESENTATION_CONTEXT(2) 
PARAMETRIC_REPRESENTATION_CONTEXT() REPRESENTATION_CONTEXT('2D SPACE',''
  ) );
#121 = ( GEOMETRIC_REPRESENTATION_CONTEXT(3) 
GLOBAL_UNCERTAINTY_ASSIGNED_CONTEXT((#125)) GLOBAL_UNIT_ASSIGNED_CONTEXT
((#122,#123,#124)) REPRESENTATION_CONTEXT('Context #1',
  '3D Context with UNIT and UNCERTAINTY') );
#122 = ( LENGTH_UNIT() NAMED_UNIT(*) SI_UNIT(.MILLI.,.METRE.) );
#123 = ( NAMED_UNIT(*) PLANE_ANGLE_UNIT() SI_UNIT($,.RADIAN.) );
#124 = ( NAMED_UNIT(*) SI_UNIT($,.STERADIAN.) SOLID_ANGLE_UNIT() );
#125 = UNCERTAINTY_MEASURE_WITH_UNIT(LENGTH_MEASURE(1.E-07),#122,
  'distance_accuracy_value','confusion accuracy');
#126 = PRODUCT_RELATED_PRODUCT_CATEGORY('part',$,(#7));
ENDSEC;
END-ISO-10303-21;
