ISO-10303-21;
HEADER;
FILE_DESCRIPTION(('Open CASCADE Model'),'2;1');
FILE_NAME('Open CASCADE Shape Model','2026-06-02T12:09:04',('Author'),(
    'Open CASCADE'),'Open CASCADE STEP processor 7.9','Open CASCADE 7.9'
  ,'Unknown');
FILE_SCHEMA(('AUTOMOTIVE_DESIGN { 1 0 10303 214 1 1 1 1 }'));
ENDSEC;
DATA;
#1 = APPLICATION_PROTOCOL_DEFINITION('international standard',
  'automotive_design',2000,#2);
#2 = APPLICATION_CONTEXT(
  'core data for automotive mechanical design processes');
#3 = SHAPE_DEFINITION_REPRESENTATION(#4,#10);
#4 = PRODUCT_DEFINITION_SHAPE('','',#5);
#5 = PRODUCT_DEFINITION('design','',#6,#9);
#6 = PRODUCT_DEFINITION_FORMATION('','',#7);
#7 = PRODUCT('Open CASCADE STEP translator 7.9 36',
  'Open CASCADE STEP translator 7.9 36','',(#8));
#8 = PRODUCT_CONTEXT('',#2,'mechanical');
#9 = PRODUCT_DEFINITION_CONTEXT('part definition',#2,'design');
#10 = MANIFOLD_SURFACE_SHAPE_REPRESENTATION('',(#11,#15),#121);
#11 = AXIS2_PLACEMENT_3D('',#12,#13,#14);
#12 = CARTESIAN_POINT('',(0.,0.,0.));
#13 = DIRECTION('',(0.,0.,1.));
#14 = DIRECTION('',(1.,0.,-0.));
#15 = SHELL_BASED_SURFACE_MODEL('',(#16));
#16 = OPEN_SHELL('',(#17));
#17 = ADVANCED_FACE('',(#18),#40,.T.);
#18 = FACE_BOUND('',#19,.T.);
#19 = EDGE_LOOP('',(#20,#59,#75,#107));
#20 = ORIENTED_EDGE('',*,*,#21,.T.);
#21 = EDGE_CURVE('',#22,#24,#26,.T.);
#22 = VERTEX_POINT('',#23);
#23 = CARTESIAN_POINT('',(0.,13.578779399836,0.));
#24 = VERTEX_POINT('',#25);
#25 = CARTESIAN_POINT('',(1.5E+03,-2.705861482984,0.));
#26 = SURFACE_CURVE('',#27,(#39),.PCURVE_S1.);
#27 = B_SPLINE_CURVE_WITH_KNOTS('',1,(#28,#29,#30,#31,#32,#33,#34,#35,
    #36,#37,#38),.UNSPECIFIED.,.F.,.F.,(2,1,1,1,1,1,1,1,1,1,2),(0.,
    6.766789620531E-02,0.263513871333,0.329986814494,0.405071656408,
    0.642458341401,0.692582510593,0.717983233815,0.896876696881,
    0.969308150157,1.),.UNSPECIFIED.);
#28 = CARTESIAN_POINT('',(0.,13.578779399836,0.));
#29 = CARTESIAN_POINT('',(102.06170816456,10.853838850844,0.));
#30 = CARTESIAN_POINT('',(396.62686021382,-12.56469580592,0.));
#31 = CARTESIAN_POINT('',(493.13870402596,14.722206545366,0.));
#32 = CARTESIAN_POINT('',(606.30012113223,9.350340755659,0.));
#33 = CARTESIAN_POINT('',(964.44082000295,14.061494612951,0.));
#34 = CARTESIAN_POINT('',(1.040031256448E+03,11.681115973134,0.));
#35 = CARTESIAN_POINT('',(1.075175931517E+03,-3.604478598849,0.));
#36 = CARTESIAN_POINT('',(1.344853425132E+03,7.750832737827,0.));
#37 = CARTESIAN_POINT('',(1.453696072687E+03,-2.07636151292,0.));
#38 = CARTESIAN_POINT('',(1.5E+03,-2.705861482984,0.));
#39 = PCURVE('',#40,#45);
#40 = PLANE('',#41);
#41 = AXIS2_PLACEMENT_3D('',#42,#43,#44);
#42 = CARTESIAN_POINT('',(757.24065532181,75.,0.));
#43 = DIRECTION('',(0.,0.,1.));
#44 = DIRECTION('',(1.,0.,-0.));
#45 = DEFINITIONAL_REPRESENTATION('',(#46),#58);
#46 = B_SPLINE_CURVE_WITH_KNOTS('',1,(#47,#48,#49,#50,#51,#52,#53,#54,
    #55,#56,#57),.UNSPECIFIED.,.F.,.F.,(2,1,1,1,1,1,1,1,1,1,2),(0.,
    6.766789620531E-02,0.263513871333,0.329986814494,0.405071656408,
    0.642458341401,0.692582510593,0.717983233815,0.896876696881,
    0.969308150157,1.),.UNSPECIFIED.);
#47 = CARTESIAN_POINT('',(-757.2406553218,-61.42122060016));
#48 = CARTESIAN_POINT('',(-655.1789471572,-64.14616114915));
#49 = CARTESIAN_POINT('',(-360.6137951079,-87.56469580592));
#50 = CARTESIAN_POINT('',(-264.1019512958,-60.27779345463));
#51 = CARTESIAN_POINT('',(-150.9405341895,-65.64965924434));
#52 = CARTESIAN_POINT('',(207.20016468114,-60.93850538704));
#53 = CARTESIAN_POINT('',(282.79060112603,-63.31888402686));
#54 = CARTESIAN_POINT('',(317.93527619507,-78.60447859884));
#55 = CARTESIAN_POINT('',(587.61276980971,-67.24916726217));
#56 = CARTESIAN_POINT('',(696.45541736493,-77.07636151292));
#57 = CARTESIAN_POINT('',(742.75934467818,-77.70586148298));
#58 = ( GEOMETRIC_REPRESENTATION_CONTEXT(2) 
PARAMETRIC_REPRESENTATION_CONTEXT() REPRESENTATION_CONTEXT('2D SPACE',''
  ) );
#59 = ORIENTED_EDGE('',*,*,#60,.T.);
#60 = EDGE_CURVE('',#24,#61,#63,.T.);
#61 = VERTEX_POINT('',#62);
#62 = CARTESIAN_POINT('',(1.5E+03,152.70586148298,0.));
#63 = SURFACE_CURVE('',#64,(#68),.PCURVE_S1.);
#64 = LINE('',#65,#66);
#65 = CARTESIAN_POINT('',(1.5E+03,-2.705861482984,0.));
#66 = VECTOR('',#67,1.);
#67 = DIRECTION('',(0.,1.,0.));
#68 = PCURVE('',#40,#69);
#69 = DEFINITIONAL_REPRESENTATION('',(#70),#74);
#70 = LINE('',#71,#72);
#71 = CARTESIAN_POINT('',(742.75934467818,-77.70586148298));
#72 = VECTOR('',#73,1.);
#73 = DIRECTION('',(0.,1.));
#74 = ( GEOMETRIC_REPRESENTATION_CONTEXT(2) 
PARAMETRIC_REPRESENTATION_CONTEXT() REPRESENTATION_CONTEXT('2D SPACE',''
  ) );
#75 = ORIENTED_EDGE('',*,*,#76,.T.);
#76 = EDGE_CURVE('',#61,#77,#79,.T.);
#77 = VERTEX_POINT('',#78);
#78 = CARTESIAN_POINT('',(0.,136.42122060016,0.));
#79 = SURFACE_CURVE('',#80,(#92),.PCURVE_S1.);
#80 = B_SPLINE_CURVE_WITH_KNOTS('',1,(#81,#82,#83,#84,#85,#86,#87,#88,
    #89,#90,#91),.UNSPECIFIED.,.F.,.F.,(2,1,1,1,1,1,1,1,1,1,2),(0.,
    3.069184984336E-02,0.103123303119,0.282016766185,0.307417489407,
    0.357541658599,0.594928343592,0.670013185506,0.736486128667,
    0.932332103795,1.),.UNSPECIFIED.);
#81 = CARTESIAN_POINT('',(1.5E+03,152.70586148298,0.));
#82 = CARTESIAN_POINT('',(1.453696072687E+03,152.07636151292,0.));
#83 = CARTESIAN_POINT('',(1.344853425132E+03,142.24916726217,0.));
#84 = CARTESIAN_POINT('',(1.075175931517E+03,153.60447859884,0.));
#85 = CARTESIAN_POINT('',(1.040031256448E+03,138.31888402686,0.));
#86 = CARTESIAN_POINT('',(964.44082000295,135.93850538704,0.));
#87 = CARTESIAN_POINT('',(606.30012113223,140.64965924434,0.));
#88 = CARTESIAN_POINT('',(493.13870402596,135.27779345463,0.));
#89 = CARTESIAN_POINT('',(396.62686021382,162.56469580592,0.));
#90 = CARTESIAN_POINT('',(102.06170816456,139.14616114915,0.));
#91 = CARTESIAN_POINT('',(0.,136.42122060016,0.));
#92 = PCURVE('',#40,#93);
#93 = DEFINITIONAL_REPRESENTATION('',(#94),#106);
#94 = B_SPLINE_CURVE_WITH_KNOTS('',1,(#95,#96,#97,#98,#99,#100,#101,#102
    ,#103,#104,#105),.UNSPECIFIED.,.F.,.F.,(2,1,1,1,1,1,1,1,1,1,2),(0.,
    3.069184984336E-02,0.103123303119,0.282016766185,0.307417489407,
    0.357541658599,0.594928343592,0.670013185506,0.736486128667,
    0.932332103795,1.),.UNSPECIFIED.);
#95 = CARTESIAN_POINT('',(742.75934467818,77.705861482984));
#96 = CARTESIAN_POINT('',(696.45541736493,77.07636151292));
#97 = CARTESIAN_POINT('',(587.61276980971,67.249167262173));
#98 = CARTESIAN_POINT('',(317.93527619507,78.604478598849));
#99 = CARTESIAN_POINT('',(282.79060112603,63.318884026866));
#100 = CARTESIAN_POINT('',(207.20016468114,60.938505387049));
#101 = CARTESIAN_POINT('',(-150.9405341895,65.649659244341));
#102 = CARTESIAN_POINT('',(-264.1019512958,60.277793454634));
#103 = CARTESIAN_POINT('',(-360.6137951079,87.56469580592));
#104 = CARTESIAN_POINT('',(-655.1789471572,64.146161149156));
#105 = CARTESIAN_POINT('',(-757.2406553218,61.421220600164));
#106 = ( GEOMETRIC_REPRESENTATION_CONTEXT(2) 
PARAMETRIC_REPRESENTATION_CONTEXT() REPRESENTATION_CONTEXT('2D SPACE',''
  ) );
#107 = ORIENTED_EDGE('',*,*,#108,.T.);
#108 = EDGE_CURVE('',#77,#22,#109,.T.);
#109 = SURFACE_CURVE('',#110,(#114),.PCURVE_S1.);
#110 = LINE('',#111,#112);
#111 = CARTESIAN_POINT('',(0.,136.42122060016,0.));
#112 = VECTOR('',#113,1.);
#113 = DIRECTION('',(0.,-1.,0.));
#114 = PCURVE('',#40,#115);
#115 = DEFINITIONAL_REPRESENTATION('',(#116),#120);
#116 = LINE('',#117,#118);
#117 = CARTESIAN_POINT('',(-757.2406553218,61.421220600164));
#118 = VECTOR('',#119,1.);
#119 = DIRECTION('',(0.,-1.));
#120 = ( GEOMETRIC_REPRESENTATION_CONTEXT(2) 
PARAMETRIC_REPRESENTATION_CONTEXT() REPRESENTATION_CONTEXT('2D SPACE',''
  ) );
#121 = ( GEOMETRIC_REPRESENTATION_CONTEXT(3) 
GLOBAL_UNCERTAINTY_ASSIGNED_CONTEXT((#125)) GLOBAL_UNIT_ASSIGNED_CONTEXT
((#122,#123,#124)) REPRESENTATION_CONTEXT('Context #1',
  '3D Context with UNIT and UNCERTAINTY') );
#122 = ( LENGTH_UNIT() NAMED_UNIT(*) SI_UNIT(.MILLI.,.METRE.) );
#123 = ( NAMED_UNIT(*) PLANE_ANGLE_UNIT() SI_UNIT($,.RADIAN.) );
#124 = ( NAMED_UNIT(*) SI_UNIT($,.STERADIAN.) SOLID_ANGLE_UNIT() );
#125 = UNCERTAINTY_MEASURE_WITH_UNIT(LENGTH_MEASURE(1.E-07),#122,
  'distance_accuracy_value','confusion accuracy');
#126 = PRODUCT_RELATED_PRODUCT_CATEGORY('part',$,(#7));
ENDSEC;
END-ISO-10303-21;
